<svg xmlns="http://www.w3.org/2000/svg" width="800" height="599pt" viewBox="0 0 600 599"><g stroke-linecap="square" stroke-miterlimit="3.25"><path d="M321.105 586.063h6.172v-6.172h-6.172zm0 0" fill="#849ae0" stroke-width=".03" stroke="#849ae0"/><path d="M568.02 586.063h6.175v-6.172h-6.175zm0 0" fill="#f2e3d2" stroke-width=".03" stroke="#f2e3d2"/><path d="M574.195 586.063h6.172v-6.172h-6.172zm0 0" fill="#b1b8da" stroke-width=".03" stroke="#b1b8da"/><path d="M580.367 586.063h6.172v-6.172h-6.172zm0 0" fill="#c67c10" stroke-width=".03" stroke="#c67c10"/><path d="M314.934 579.89h6.171v-6.175h-6.171zm0 0" fill="#c7c7d7" stroke-width=".03" stroke="#c7c7d7"/><path d="M561.848 579.89h6.172v-6.175h-6.172zm0 0" fill="#f3e4d2" stroke-width=".03" stroke="#f3e4d2"/><path d="M568.02 579.89h6.175v-6.175h-6.175zm0 0" fill="#b7bdd9" stroke-width=".03" stroke="#b7bdd9"/><path d="M574.195 579.89h6.172v-6.175h-6.172zm0 0" fill="#fccb85" stroke-width=".03" stroke="#fccb85"/><path d="M580.367 579.89h6.172v-6.175h-6.172zm0 0" fill="#b1b8da" stroke-width=".03" stroke="#b1b8da"/><path d="M308.758 573.715h6.176v-6.172h-6.176zm0 0" fill="#c7c7d7" stroke-width=".03" stroke="#c7c7d7"/><path d="M314.934 573.715h6.171v-6.172h-6.171zm0 0" fill="#f4e5d2" stroke-width=".03" stroke="#f4e5d2"/><path d="M537.156 573.715h6.172v-6.172h-6.172zm0 0" fill="#fae9d1" stroke-width=".03" stroke="#fae9d1"/><path d="M543.328 573.715h6.176v-6.172h-6.176zm0 0" fill="#e4dad4" stroke-width=".03" stroke="#e4dad4"/><path d="M561.848 573.715h6.172v-6.172h-6.172zm0 0" fill="#879de0" stroke-width=".03" stroke="#879de0"/><path d="M568.02 573.715h6.175v-6.172h-6.175zm0 0" fill="#fddcac" stroke-width=".03" stroke="#fddcac"/><path d="M574.195 573.715h6.172v-6.172h-6.172zm0 0" fill="#b7bdd9" stroke-width=".03" stroke="#b7bdd9"/><path d="M580.367 573.715h6.172v-6.172h-6.172zm0 0" fill="#f2e3d2" stroke-width=".03" stroke="#f2e3d2"/><path d="M302.586 567.543h6.172v-6.172h-6.172zm0 0" fill="#e1d8d4" stroke-width=".03" stroke="#e1d8d4"/><path d="M308.758 567.543h6.176v-6.172h-6.176zm0 0" fill="#f6e6d2" stroke-width=".03" stroke="#f6e6d2"/><path d="M530.984 567.543h6.172v-6.172h-6.172zm0 0" fill="#f9e8d1" stroke-width=".03" stroke="#f9e8d1"/><path d="M537.156 567.543h6.172v-6.172h-6.172zm0 0" fill="#d3cfd6" stroke-width=".03" stroke="#d3cfd6"/><path d="M555.676 567.543h6.172v-6.172h-6.172zm0 0" fill="#7f98e1" stroke-width=".03" stroke="#7f98e1"/><path d="M561.848 567.543h6.172v-6.172h-6.172zm0 0" fill="#fcd398" stroke-width=".03" stroke="#fcd398"/><path d="M568.02 567.543h6.175v-6.172h-6.175zm0 0" fill="#889de0" stroke-width=".03" stroke="#889de0"/><path d="M574.195 567.543h6.172v-6.172h-6.172zm0 0" fill="#f3e4d2" stroke-width=".03" stroke="#f3e4d2"/><path d="M296.414 561.371h6.172v-6.176h-6.172zm0 0" fill="#fae9d1" stroke-width=".03" stroke="#fae9d1"/><path d="M302.586 561.371h6.172v-6.176h-6.172zm0 0" fill="#ede0d3" stroke-width=".03" stroke="#ede0d3"/><path d="M524.813 561.371h6.171v-6.176h-6.172zm0 0" fill="#f7e7d1" stroke-width=".03" stroke="#f7e7d1"/><path d="M530.984 561.371h6.172v-6.176h-6.172zm0 0" fill="#c1c3d8" stroke-width=".03" stroke="#c1c3d8"/><path d="M549.504 561.371h6.172v-6.176h-6.172zm0 0" fill="#abb5db" stroke-width=".03" stroke="#abb5db"/><path d="M555.676 561.371h6.172v-6.176h-6.172zm0 0" fill="#fddaa7" stroke-width=".03" stroke="#fddaa7"/><path d="M561.848 561.371h6.172v-6.176h-6.172zm0 0" fill="#7f98e1" stroke-width=".03" stroke="#7f98e1"/><path d="M296.414 555.195h6.172v-6.172h-6.172zm0 0" fill="#ebdfd3" stroke-width=".03" stroke="#ebdfd3"/><path d="M518.637 555.195h6.176v-6.172h-6.176zm0 0" fill="#f4e5d2" stroke-width=".03" stroke="#f4e5d2"/><path d="M524.813 555.195h6.171v-6.172h-6.172zm0 0" fill="#adb6db" stroke-width=".03" stroke="#adb6db"/><path d="M543.328 555.195h6.176v-6.172h-6.176zm0 0" fill="#f3e4d2" stroke-width=".03" stroke="#f3e4d2"/><path d="M549.504 555.195h6.172v-6.172h-6.172zm0 0" fill="#fbc980" stroke-width=".03" stroke="#fbc980"/><path d="M555.676 555.195h6.172v-6.172h-6.172zm0 0" fill="#abb5db" stroke-width=".03" stroke="#abb5db"/><path d="M290.242 549.023h6.172v-6.171h-6.172zm0 0" fill="#d6d1d6" stroke-width=".03" stroke="#d6d1d6"/><path d="M296.414 549.023h6.172v-6.171h-6.172zm0 0" fill="#f4e5d2" stroke-width=".03" stroke="#f4e5d2"/><path d="M469.254 549.023h6.176v-6.171h-6.176zm0 0" fill="#fae9d1" stroke-width=".03" stroke="#fae9d1"/><path d="M475.43 549.023h6.172v-6.171h-6.172zm0 0" fill="#eee1d2" stroke-width=".03" stroke="#eee1d2"/><path d="M518.637 549.023h6.176v-6.171h-6.176zm0 0" fill="#f3e4d2" stroke-width=".03" stroke="#f3e4d2"/><path d="M537.156 549.023h6.172v-6.171h-6.172zm0 0" fill="#bbbfd9" stroke-width=".03" stroke="#bbbfd9"/><path d="M543.328 549.023h6.176v-6.171h-6.176zm0 0" fill="#fbc77b" stroke-width=".03" stroke="#fbc77b"/><path d="M549.504 549.023h6.172v-6.171h-6.172zm0 0" fill="#f3e4d2" stroke-width=".03" stroke="#f3e4d2"/><path d="M568.02 549.023h6.175v-6.171h-6.175zm0 0" fill="#e4dad4" stroke-width=".03" stroke="#e4dad4"/><path d="M284.066 542.852h6.176v-6.172h-6.176zm0 0" fill="#ede0d3" stroke-width=".03" stroke="#ede0d3"/><path d="M290.242 542.852h6.172v-6.172h-6.172zm0 0" fill="#eee1d2" stroke-width=".03" stroke="#eee1d2"/><path d="M463.082 542.852h6.172v-6.172h-6.172zm0 0" fill="#fae9d1" stroke-width=".03" stroke="#fae9d1"/><path d="M469.254 542.852h6.176v-6.172h-6.176zm0 0" fill="#e4dad4" stroke-width=".03" stroke="#e4dad4"/><path d="M518.637 542.852h6.176v-6.172h-6.176zm0 0" fill="#dfd7d4" stroke-width=".03" stroke="#dfd7d4"/><path d="M530.984 542.852h6.172v-6.172h-6.172zm0 0" fill="#91a3de" stroke-width=".03" stroke="#91a3de"/><path d="M537.156 542.852h6.172v-6.172h-6.172zm0 0" fill="#fcd49a" stroke-width=".03" stroke="#fcd49a"/><path d="M543.328 542.852h6.176v-6.172h-6.176zm0 0" fill="#bbbfd9" stroke-width=".03" stroke="#bbbfd9"/><path d="M561.848 542.852h6.172v-6.172h-6.172zm0 0" fill="#d3cfd6" stroke-width=".03" stroke="#d3cfd6"/><path d="M568.02 542.852h6.175v-6.172h-6.175zm0 0M277.895 536.68h6.171v-6.176h-6.171zm0 0" fill="#fae9d1" stroke-width=".03" stroke="#fae9d1"/><path d="M284.066 536.68h6.176v-6.176h-6.176zm0 0" fill="#e1d8d4" stroke-width=".03" stroke="#e1d8d4"/><path d="M456.91 536.68h6.172v-6.176h-6.172zm0 0" fill="#fae9d1" stroke-width=".03" stroke="#fae9d1"/><path d="M463.082 536.68h6.172v-6.176h-6.172zm0 0" fill="#e4dad4" stroke-width=".03" stroke="#e4dad4"/><path d="M512.465 536.68h6.172v-6.176h-6.172zm0 0" fill="#a1aedc" stroke-width=".03" stroke="#a1aedc"/><path d="M524.813 536.68h6.171v-6.176h-6.172zm0 0" fill="#a3afdc" stroke-width=".03" stroke="#a3afdc"/><path d="M530.984 536.68h6.172v-6.176h-6.172zm0 0" fill="#feebcf" stroke-width=".03" stroke="#feebcf"/><path d="M537.156 536.68h6.172v-6.176h-6.172zm0 0" fill="#91a3de" stroke-width=".03" stroke="#91a3de"/><path d="M555.676 536.68h6.172v-6.176h-6.172zm0 0" fill="#c1c3d8" stroke-width=".03" stroke="#c1c3d8"/><path d="M561.848 536.68h6.172v-6.176h-6.172zm0 0" fill="#f9e8d1" stroke-width=".03" stroke="#f9e8d1"/><path d="M277.895 530.504h6.171v-6.172h-6.171zm0 0" fill="#ebdfd3" stroke-width=".03" stroke="#ebdfd3"/><path d="M450.734 530.504h6.176v-6.172h-6.176zm0 0" fill="#fae9d1" stroke-width=".03" stroke="#fae9d1"/><path d="M456.91 530.504h6.172v-6.172h-6.172zm0 0" fill="#e4dad4" stroke-width=".03" stroke="#e4dad4"/><path d="M506.293 530.504h6.172v-6.172h-6.172zm0 0" fill="#8199e0" stroke-width=".03" stroke="#8199e0"/><path d="M518.637 530.504h6.176v-6.172h-6.176zm0 0" fill="#e6dbd4" stroke-width=".03" stroke="#e6dbd4"/><path d="M524.813 530.504h6.171v-6.172h-6.172zm0 0" fill="#fde2bc" stroke-width=".03" stroke="#fde2bc"/><path d="M530.984 530.504h6.172v-6.172h-6.172zm0 0" fill="#a4b0dc" stroke-width=".03" stroke="#a4b0dc"/><path d="M549.504 530.504h6.172v-6.172h-6.172zm0 0" fill="#adb6db" stroke-width=".03" stroke="#adb6db"/><path d="M555.676 530.504h6.172v-6.172h-6.172zm0 0" fill="#f7e7d1" stroke-width=".03" stroke="#f7e7d1"/><path d="M271.723 524.332h6.172v-6.172h-6.172zm0 0" fill="#ede0d3" stroke-width=".03" stroke="#ede0d3"/><path d="M277.895 524.332h6.171v-6.172h-6.171zm0 0" fill="#f6e6d2" stroke-width=".03" stroke="#f6e6d2"/><path d="M444.563 524.332h6.171v-6.172h-6.171zm0 0" fill="#f9e8d1" stroke-width=".03" stroke="#f9e8d1"/><path d="M450.734 524.332h6.176v-6.172h-6.176zm0 0" fill="#d9d3d5" stroke-width=".03" stroke="#d9d3d5"/><path d="M500.121 524.332h6.172v-6.172h-6.172zm0 0" fill="#c8c8d7" stroke-width=".03" stroke="#c8c8d7"/><path d="M512.465 524.332h6.172v-6.172h-6.172zm0 0" fill="#d8d2d5" stroke-width=".03" stroke="#d8d2d5"/><path d="M518.637 524.332h6.176v-6.172h-6.176zm0 0" fill="#fcd090" stroke-width=".03" stroke="#fcd090"/><path d="M524.813 524.332h6.171v-6.172h-6.172zm0 0" fill="#e6dbd4" stroke-width=".03" stroke="#e6dbd4"/><path d="M537.156 524.332h6.172v-6.172h-6.172zm0 0" fill="#dfd7d4" stroke-width=".03" stroke="#dfd7d4"/><path d="M543.328 524.332h6.176v-6.172h-6.176zm0 0" fill="#f3e4d2" stroke-width=".03" stroke="#f3e4d2"/><path d="M549.504 524.332h6.172v-6.172h-6.172zm0 0" fill="#f4e5d2" stroke-width=".03" stroke="#f4e5d2"/><path d="M265.55 518.16h6.173v-6.172h-6.172zm0 0" fill="#fae9d1" stroke-width=".03" stroke="#fae9d1"/><path d="M271.723 518.16h6.172v-6.172h-6.172zm0 0" fill="#e1d8d4" stroke-width=".03" stroke="#e1d8d4"/><path d="M438.39 518.16h6.173v-6.172h-6.172zm0 0" fill="#f9e8d1" stroke-width=".03" stroke="#f9e8d1"/><path d="M444.563 518.16h6.171v-6.172h-6.171zm0 0" fill="#cccad7" stroke-width=".03" stroke="#cccad7"/><path d="M500.121 518.16h6.172v-6.172h-6.172zm0 0" fill="#d4d0d6" stroke-width=".03" stroke="#d4d0d6"/><path d="M506.293 518.16h6.172v-6.172h-6.172zm0 0" fill="#b9bed9" stroke-width=".03" stroke="#b9bed9"/><path d="M512.465 518.16h6.172v-6.172h-6.172zm0 0" fill="#fde5c2" stroke-width=".03" stroke="#fde5c2"/><path d="M518.637 518.16h6.176v-6.172h-6.176zm0 0" fill="#d8d2d5" stroke-width=".03" stroke="#d8d2d5"/><path d="M530.984 518.16h6.172v-6.172h-6.172zm0 0" fill="#a1aedc" stroke-width=".03" stroke="#a1aedc"/><path d="M265.55 511.988h6.173v-6.175h-6.172zm0 0" fill="#ebdfd3" stroke-width=".03" stroke="#ebdfd3"/><path d="M432.219 511.988h6.172v-6.175h-6.172zm0 0" fill="#f9e8d1" stroke-width=".03" stroke="#f9e8d1"/><path d="M438.39 511.988h6.173v-6.175h-6.172zm0 0" fill="#cccad7" stroke-width=".03" stroke="#cccad7"/><path d="M493.945 511.988h6.176v-6.175h-6.176zm0 0" fill="#829ae0" stroke-width=".03" stroke="#829ae0"/><path d="M500.121 511.988h6.172v-6.175h-6.172zm0 0" fill="#eaded3" stroke-width=".03" stroke="#eaded3"/><path d="M506.293 511.988h6.172v-6.175h-6.172zm0 0" fill="#fee9ca" stroke-width=".03" stroke="#fee9ca"/><path d="M512.465 511.988h6.172v-6.175h-6.172zm0 0" fill="#b9bed9" stroke-width=".03" stroke="#b9bed9"/><path d="M524.813 511.988h6.171v-6.175h-6.172zm0 0" fill="#8199e0" stroke-width=".03" stroke="#8199e0"/><path d="M259.375 505.813h6.176v-6.172h-6.176zm0 0" fill="#f3e4d2" stroke-width=".03" stroke="#f3e4d2"/><path d="M265.55 505.813h6.173v-6.172h-6.172zm0 0M426.043 505.813h6.176v-6.172h-6.176zm0 0" fill="#f7e7d1" stroke-width=".03" stroke="#f7e7d1"/><path d="M432.219 505.813h6.172v-6.172h-6.172zm0 0" fill="#c4c5d8" stroke-width=".03" stroke="#c4c5d8"/><path d="M487.773 505.813h6.172v-6.172h-6.172zm0 0" fill="#c2c3d8" stroke-width=".03" stroke="#c2c3d8"/><path d="M493.945 505.813h6.176v-6.172h-6.176zm0 0" fill="#e1d8d4" stroke-width=".03" stroke="#e1d8d4"/><path d="M500.121 505.813h6.172v-6.172h-6.172zm0 0" fill="#fcd59b" stroke-width=".03" stroke="#fcd59b"/><path d="M506.293 505.813h6.172v-6.172h-6.172zm0 0" fill="#eaded3" stroke-width=".03" stroke="#eaded3"/><path d="M512.465 505.813h6.172v-6.172h-6.172zm0 0" fill="#d4d0d6" stroke-width=".03" stroke="#d4d0d6"/><path d="M518.637 505.813h6.176v-6.172h-6.176zm0 0" fill="#c8c8d7" stroke-width=".03" stroke="#c8c8d7"/><path d="M259.375 499.64h6.176v-6.171h-6.176zm0 0" fill="#ebdfd3" stroke-width=".03" stroke="#ebdfd3"/><path d="M419.871 499.64h6.172v-6.171h-6.172zm0 0" fill="#f7e7d1" stroke-width=".03" stroke="#f7e7d1"/><path d="M426.043 499.64h6.176v-6.171h-6.176zm0 0" fill="#bcc0d9" stroke-width=".03" stroke="#bcc0d9"/><path d="M481.602 499.64h6.171v-6.171h-6.171zm0 0" fill="#f0e2d2" stroke-width=".03" stroke="#f0e2d2"/><path d="M487.773 499.64h6.172v-6.171h-6.172zm0 0" fill="#9faddd" stroke-width=".03" stroke="#9faddd"/><path d="M493.945 499.64h6.176v-6.171h-6.176zm0 0" fill="#fddaa8" stroke-width=".03" stroke="#fddaa8"/><path d="M500.121 499.64h6.172v-6.171h-6.172zm0 0" fill="#e1d8d4" stroke-width=".03" stroke="#e1d8d4"/><path d="M506.293 499.64h6.172v-6.171h-6.172zm0 0" fill="#829ae0" stroke-width=".03" stroke="#829ae0"/><path d="M253.203 493.469h6.172v-6.172h-6.172zm0 0" fill="#f3e4d2" stroke-width=".03" stroke="#f3e4d2"/><path d="M413.7 493.469h6.171v-6.172H413.7zm0 0" fill="#f6e6d2" stroke-width=".03" stroke="#f6e6d2"/><path d="M419.871 493.469h6.172v-6.172h-6.172zm0 0" fill="#b6bbda" stroke-width=".03" stroke="#b6bbda"/><path d="M481.602 493.469h6.171v-6.172h-6.171zm0 0" fill="#a5b0dc" stroke-width=".03" stroke="#a5b0dc"/><path d="M487.773 493.469h6.172v-6.172h-6.172zm0 0" fill="#fbca82" stroke-width=".03" stroke="#fbca82"/><path d="M493.945 493.469h6.176v-6.172h-6.176zm0 0" fill="#9faddd" stroke-width=".03" stroke="#9faddd"/><path d="M500.121 493.469h6.172v-6.172h-6.172zm0 0" fill="#c2c3d8" stroke-width=".03" stroke="#c2c3d8"/><path d="M253.203 487.297h6.172v-6.176h-6.172zm0 0" fill="#f6e6d2" stroke-width=".03" stroke="#f6e6d2"/><path d="M407.527 487.297h6.172v-6.176h-6.172zm0 0" fill="#f4e5d2" stroke-width=".03" stroke="#f4e5d2"/><path d="M413.7 487.297h6.171v-6.176H413.7zm0 0" fill="#adb6db" stroke-width=".03" stroke="#adb6db"/><path d="M475.43 487.297h6.172v-6.176h-6.172zm0 0" fill="#e0d8d4" stroke-width=".03" stroke="#e0d8d4"/><path d="M481.602 487.297h6.171v-6.176h-6.171zm0 0" fill="#fbc679" stroke-width=".03" stroke="#fbc679"/><path d="M487.773 487.297h6.172v-6.176h-6.172zm0 0" fill="#a6b1dc" stroke-width=".03" stroke="#a6b1dc"/><path d="M493.945 487.297h6.176v-6.176h-6.176zm0 0" fill="#f0e2d2" stroke-width=".03" stroke="#f0e2d2"/><path d="M247.031 481.121h6.172v-6.172h-6.172zm0 0" fill="#e7dcd3" stroke-width=".03" stroke="#e7dcd3"/><path d="M253.203 481.121h6.172v-6.172h-6.172zm0 0" fill="#f4e5d2" stroke-width=".03" stroke="#f4e5d2"/><path d="M314.934 481.121h6.171v-6.172h-6.171zm0 0" fill="#fae9d1" stroke-width=".03" stroke="#fae9d1"/><path d="M321.105 481.121h6.172v-6.172h-6.172zm0 0" fill="#f6e6d2" stroke-width=".03" stroke="#f6e6d2"/><path d="M407.527 481.121h6.172v-6.172h-6.172zm0 0" fill="#dbd4d5" stroke-width=".03" stroke="#dbd4d5"/><path d="M469.254 481.121h6.176v-6.172h-6.176zm0 0" fill="#d2ced6" stroke-width=".03" stroke="#d2ced6"/><path d="M475.43 481.121h6.172v-6.172h-6.172zm0 0" fill="#fbc06b" stroke-width=".03" stroke="#fbc06b"/><path d="M481.602 481.121h6.171v-6.172h-6.171zm0 0" fill="#e0d8d4" stroke-width=".03" stroke="#e0d8d4"/><path d="M543.328 481.121h6.176v-6.172h-6.176zm0 0" fill="#eee1d2" stroke-width=".03" stroke="#eee1d2"/><path d="M240.855 474.95h6.176v-6.173h-6.176zm0 0" fill="#f7e7d1" stroke-width=".03" stroke="#f7e7d1"/><path d="M247.031 474.95h6.172v-6.173h-6.172zm0 0" fill="#ddd5d5" stroke-width=".03" stroke="#ddd5d5"/><path d="M308.758 474.95h6.176v-6.173h-6.176zm0 0" fill="#fae9d1" stroke-width=".03" stroke="#fae9d1"/><path d="M314.934 474.95h6.171v-6.173h-6.171zm0 0" fill="#e4dad4" stroke-width=".03" stroke="#e4dad4"/><path d="M450.734 474.95h6.176v-6.173h-6.176zm0 0" fill="#f6e6d2" stroke-width=".03" stroke="#f6e6d2"/><path d="M463.082 474.95h6.172v-6.173h-6.172zm0 0" fill="#94a5de" stroke-width=".03" stroke="#94a5de"/><path d="M469.254 474.95h6.176v-6.173h-6.176zm0 0" fill="#fcd295" stroke-width=".03" stroke="#fcd295"/><path d="M475.43 474.95h6.172v-6.173h-6.172zm0 0" fill="#d2ced6" stroke-width=".03" stroke="#d2ced6"/><path d="M537.156 474.95h6.172v-6.173h-6.172zm0 0" fill="#e4dad4" stroke-width=".03" stroke="#e4dad4"/><path d="M543.328 474.95h6.176v-6.173h-6.176zm0 0" fill="#fae9d1" stroke-width=".03" stroke="#fae9d1"/><path d="M240.855 468.777h6.176v-6.172h-6.176zm0 0" fill="#d0cdd6" stroke-width=".03" stroke="#d0cdd6"/><path d="M302.586 468.777h6.172v-6.172h-6.172zm0 0" fill="#fae9d1" stroke-width=".03" stroke="#fae9d1"/><path d="M308.758 468.777h6.176v-6.172h-6.176zm0 0" fill="#e4dad4" stroke-width=".03" stroke="#e4dad4"/><path d="M444.563 468.777h6.171v-6.172h-6.171zm0 0" fill="#cbcad7" stroke-width=".03" stroke="#cbcad7"/><path d="M456.91 468.777h6.172v-6.172h-6.172zm0 0" fill="#9facdd" stroke-width=".03" stroke="#9facdd"/><path d="M463.082 468.777h6.172v-6.172h-6.172zm0 0" fill="#feebcf" stroke-width=".03" stroke="#feebcf"/><path d="M469.254 468.777h6.176v-6.172h-6.176zm0 0" fill="#94a5de" stroke-width=".03" stroke="#94a5de"/><path d="M530.984 468.777h6.172v-6.172h-6.172zm0 0" fill="#e4dad4" stroke-width=".03" stroke="#e4dad4"/><path d="M537.156 468.777h6.172v-6.172h-6.172zm0 0" fill="#fae9d1" stroke-width=".03" stroke="#fae9d1"/><path d="M234.684 462.605h6.171v-6.175h-6.171zm0 0" fill="#ebdfd3" stroke-width=".03" stroke="#ebdfd3"/><path d="M296.414 462.605h6.172v-6.175h-6.172zm0 0" fill="#fae9d1" stroke-width=".03" stroke="#fae9d1"/><path d="M302.586 462.605h6.172v-6.175h-6.172zm0 0" fill="#e4dad4" stroke-width=".03" stroke="#e4dad4"/><path d="M438.39 462.605h6.173v-6.175h-6.172zm0 0" fill="#aeb6db" stroke-width=".03" stroke="#aeb6db"/><path d="M450.734 462.605h6.176v-6.175h-6.176zm0 0" fill="#d9d3d5" stroke-width=".03" stroke="#d9d3d5"/><path d="M456.91 462.605h6.172v-6.175h-6.172zm0 0" fill="#eee1d3" stroke-width=".03" stroke="#eee1d3"/><path d="M463.082 462.605h6.172v-6.175h-6.172zm0 0" fill="#9facdd" stroke-width=".03" stroke="#9facdd"/><path d="M524.813 462.605h6.171v-6.175h-6.172zm0 0" fill="#e4dad4" stroke-width=".03" stroke="#e4dad4"/><path d="M530.984 462.605h6.172v-6.175h-6.172zm0 0" fill="#fae9d1" stroke-width=".03" stroke="#fae9d1"/><path d="M228.512 456.43h6.172v-6.172h-6.172zm0 0" fill="#f7e7d1" stroke-width=".03" stroke="#f7e7d1"/><path d="M234.684 456.43h6.171v-6.172h-6.171zm0 0" fill="#eee1d2" stroke-width=".03" stroke="#eee1d2"/><path d="M290.242 456.43h6.172v-6.172h-6.172zm0 0" fill="#fae9d1" stroke-width=".03" stroke="#fae9d1"/><path d="M296.414 456.43h6.172v-6.172h-6.172zm0 0" fill="#e4dad4" stroke-width=".03" stroke="#e4dad4"/><path d="M407.527 456.43h6.172v-6.172h-6.172zm0 0" fill="#f0e2d2" stroke-width=".03" stroke="#f0e2d2"/><path d="M432.219 456.43h6.172v-6.172h-6.172zm0 0" fill="#c6c6d8" stroke-width=".03" stroke="#c6c6d8"/><path d="M444.563 456.43h6.171v-6.172h-6.171zm0 0" fill="#eaded3" stroke-width=".03" stroke="#eaded3"/><path d="M450.734 456.43h6.176v-6.172h-6.176zm0 0" fill="#fbca84" stroke-width=".03" stroke="#fbca84"/><path d="M456.91 456.43h6.172v-6.172h-6.172zm0 0" fill="#d9d3d5" stroke-width=".03" stroke="#d9d3d5"/><path d="M469.254 456.43h6.176v-6.172h-6.176zm0 0" fill="#f6e6d2" stroke-width=".03" stroke="#f6e6d2"/><path d="M518.637 456.43h6.176v-6.172h-6.176zm0 0" fill="#d9d3d5" stroke-width=".03" stroke="#d9d3d5"/><path d="M524.813 456.43h6.171v-6.172h-6.172zm0 0" fill="#fae9d1" stroke-width=".03" stroke="#fae9d1"/><path d="M228.512 450.258h6.172v-6.172h-6.172zm0 0" fill="#d0cdd6" stroke-width=".03" stroke="#d0cdd6"/><path d="M284.066 450.258h6.176v-6.172h-6.176zm0 0" fill="#fae9d1" stroke-width=".03" stroke="#fae9d1"/><path d="M290.242 450.258h6.172v-6.172h-6.172zm0 0" fill="#e4dad4" stroke-width=".03" stroke="#e4dad4"/><path d="M401.352 450.258h6.175v-6.172h-6.175zm0 0" fill="#babfd9" stroke-width=".03" stroke="#babfd9"/><path d="M432.219 450.258h6.172v-6.172h-6.172zm0 0" fill="#f0e2d2" stroke-width=".03" stroke="#f0e2d2"/><path d="M438.39 450.258h6.173v-6.172h-6.172zm0 0" fill="#b9bed9" stroke-width=".03" stroke="#b9bed9"/><path d="M444.563 450.258h6.171v-6.172h-6.171zm0 0" fill="#fdebd1" stroke-width=".03" stroke="#fdebd1"/><path d="M450.734 450.258h6.176v-6.172h-6.176zm0 0" fill="#eaded3" stroke-width=".03" stroke="#eaded3"/><path d="M463.082 450.258h6.172v-6.172h-6.172zm0 0" fill="#cbcad7" stroke-width=".03" stroke="#cbcad7"/><path d="M512.465 450.258h6.172v-6.172h-6.172zm0 0" fill="#cccad7" stroke-width=".03" stroke="#cccad7"/><path d="M518.637 450.258h6.176v-6.172h-6.176zm0 0" fill="#f9e8d1" stroke-width=".03" stroke="#f9e8d1"/><path d="M222.34 444.086h6.172v-6.176h-6.172zm0 0" fill="#ebdfd3" stroke-width=".03" stroke="#ebdfd3"/><path d="M277.895 444.086h6.171v-6.176h-6.171zm0 0" fill="#fae9d1" stroke-width=".03" stroke="#fae9d1"/><path d="M284.066 444.086h6.176v-6.176h-6.176zm0 0" fill="#e4dad4" stroke-width=".03" stroke="#e4dad4"/><path d="M395.18 444.086h6.172v-6.176h-6.172zm0 0" fill="#babfd9" stroke-width=".03" stroke="#babfd9"/><path d="M426.043 444.086h6.176v-6.176h-6.176zm0 0" fill="#a1aedc" stroke-width=".03" stroke="#a1aedc"/><path d="M432.219 444.086h6.172v-6.176h-6.172zm0 0" fill="#e0d7d4" stroke-width=".03" stroke="#e0d7d4"/><path d="M438.39 444.086h6.173v-6.176h-6.172zm0 0" fill="#9eacdd" stroke-width=".03" stroke="#9eacdd"/><path d="M444.563 444.086h6.171v-6.176h-6.171zm0 0" fill="#b9bed9" stroke-width=".03" stroke="#b9bed9"/><path d="M456.91 444.086h6.172v-6.176h-6.172zm0 0" fill="#aeb6db" stroke-width=".03" stroke="#aeb6db"/><path d="M506.293 444.086h6.172v-6.176h-6.172zm0 0" fill="#cccad7" stroke-width=".03" stroke="#cccad7"/><path d="M512.465 444.086h6.172v-6.176h-6.172zm0 0M216.164 437.91h6.176v-6.172h-6.176zm0 0" fill="#f9e8d1" stroke-width=".03" stroke="#f9e8d1"/><path d="M222.34 437.91h6.172v-6.172h-6.172zm0 0" fill="#f1e2d2" stroke-width=".03" stroke="#f1e2d2"/><path d="M271.723 437.91h6.172v-6.172h-6.172zm0 0" fill="#fae9d1" stroke-width=".03" stroke="#fae9d1"/><path d="M277.895 437.91h6.171v-6.172h-6.171zm0 0" fill="#e4dad4" stroke-width=".03" stroke="#e4dad4"/><path d="M389.008 437.91h6.172v-6.172h-6.172zm0 0" fill="#acb5db" stroke-width=".03" stroke="#acb5db"/><path d="M419.871 437.91h6.172v-6.172h-6.172zm0 0" fill="#b3bada" stroke-width=".03" stroke="#b3bada"/><path d="M426.043 437.91h6.176v-6.172h-6.176zm0 0" fill="#eee1d2" stroke-width=".03" stroke="#eee1d2"/><path d="M432.219 437.91h6.172v-6.172h-6.172zm0 0" fill="#fddbaa" stroke-width=".03" stroke="#fddbaa"/><path d="M438.39 437.91h6.173v-6.172h-6.172zm0 0" fill="#e0d7d4" stroke-width=".03" stroke="#e0d7d4"/><path d="M444.563 437.91h6.171v-6.172h-6.171zm0 0" fill="#f0e2d2" stroke-width=".03" stroke="#f0e2d2"/><path d="M450.734 437.91h6.176v-6.172h-6.176zm0 0" fill="#c6c6d8" stroke-width=".03" stroke="#c6c6d8"/><path d="M500.121 437.91h6.172v-6.172h-6.172zm0 0" fill="#c4c5d8" stroke-width=".03" stroke="#c4c5d8"/><path d="M506.293 437.91h6.172v-6.172h-6.172zm0 0" fill="#f9e8d1" stroke-width=".03" stroke="#f9e8d1"/><path d="M216.164 431.738h6.176v-6.172h-6.176zm0 0" fill="#ebdfd3" stroke-width=".03" stroke="#ebdfd3"/><path d="M265.55 431.738h6.173v-6.172h-6.172zm0 0" fill="#fae9d1" stroke-width=".03" stroke="#fae9d1"/><path d="M271.723 431.738h6.172v-6.172h-6.172zm0 0" fill="#e4dad4" stroke-width=".03" stroke="#e4dad4"/><path d="M382.836 431.738h6.172v-6.172h-6.172zm0 0" fill="#93a5de" stroke-width=".03" stroke="#93a5de"/><path d="M413.7 431.738h6.171v-6.172H413.7zm0 0" fill="#f7e7d1" stroke-width=".03" stroke="#f7e7d1"/><path d="M419.871 431.738h6.172v-6.172h-6.172zm0 0" fill="#bec1d9" stroke-width=".03" stroke="#bec1d9"/><path d="M426.043 431.738h6.176v-6.172h-6.176zm0 0" fill="#ded6d5" stroke-width=".03" stroke="#ded6d5"/><path d="M432.219 431.738h6.172v-6.172h-6.172zm0 0" fill="#eee1d2" stroke-width=".03" stroke="#eee1d2"/><path d="M438.39 431.738h6.173v-6.172h-6.172zm0 0" fill="#a1aedc" stroke-width=".03" stroke="#a1aedc"/><path d="M493.945 431.738h6.176v-6.172h-6.176zm0 0" fill="#bcc0d9" stroke-width=".03" stroke="#bcc0d9"/><path d="M500.121 431.738h6.172v-6.172h-6.172zm0 0" fill="#f7e7d1" stroke-width=".03" stroke="#f7e7d1"/><path d="M209.992 425.566h6.172v-6.171h-6.172zm0 0" fill="#f3e4d2" stroke-width=".03" stroke="#f3e4d2"/><path d="M216.164 425.566h6.176v-6.171h-6.176zm0 0M259.375 425.566h6.176v-6.171h-6.176zm0 0" fill="#fae9d1" stroke-width=".03" stroke="#fae9d1"/><path d="M265.55 425.566h6.173v-6.171h-6.172zm0 0" fill="#e4dad4" stroke-width=".03" stroke="#e4dad4"/><path d="M376.66 425.566h6.176v-6.171h-6.176zm0 0" fill="#899edf" stroke-width=".03" stroke="#899edf"/><path d="M413.7 425.566h6.171v-6.171H413.7zm0 0" fill="#8da1df" stroke-width=".03" stroke="#8da1df"/><path d="M419.871 425.566h6.172v-6.171h-6.172zm0 0" fill="#fddfb3" stroke-width=".03" stroke="#fddfb3"/><path d="M426.043 425.566h6.176v-6.171h-6.176zm0 0" fill="#bec1d9" stroke-width=".03" stroke="#bec1d9"/><path d="M432.219 425.566h6.172v-6.171h-6.172zm0 0" fill="#b3bada" stroke-width=".03" stroke="#b3bada"/><path d="M487.773 425.566h6.172v-6.171h-6.172zm0 0" fill="#b6bbda" stroke-width=".03" stroke="#b6bbda"/><path d="M493.945 425.566h6.176v-6.171h-6.176zm0 0" fill="#f7e7d1" stroke-width=".03" stroke="#f7e7d1"/><path d="M209.992 419.395h6.172v-6.176h-6.172zm0 0" fill="#f6e6d2" stroke-width=".03" stroke="#f6e6d2"/><path d="M253.203 419.395h6.172v-6.176h-6.172zm0 0" fill="#fae9d1" stroke-width=".03" stroke="#fae9d1"/><path d="M259.375 419.395h6.176v-6.176h-6.176zm0 0" fill="#e4dad4" stroke-width=".03" stroke="#e4dad4"/><path d="M370.488 419.395h6.172v-6.176h-6.172zm0 0" fill="#7e97e1" stroke-width=".03" stroke="#7e97e1"/><path d="M407.527 419.395h6.172v-6.176h-6.172zm0 0" fill="#cbcad7" stroke-width=".03" stroke="#cbcad7"/><path d="M413.7 419.395h6.171v-6.176H413.7zm0 0" fill="#fddbab" stroke-width=".03" stroke="#fddbab"/><path d="M419.871 419.395h6.172v-6.176h-6.172zm0 0" fill="#8ea1df" stroke-width=".03" stroke="#8ea1df"/><path d="M426.043 419.395h6.176v-6.176h-6.176zm0 0" fill="#f7e7d1" stroke-width=".03" stroke="#f7e7d1"/><path d="M481.602 419.395h6.171v-6.176h-6.171zm0 0" fill="#adb6db" stroke-width=".03" stroke="#adb6db"/><path d="M487.773 419.395h6.172v-6.176h-6.172zm0 0" fill="#f6e6d2" stroke-width=".03" stroke="#f6e6d2"/><path d="M203.82 413.219h6.172v-6.172h-6.172zm0 0" fill="#f7e7d1" stroke-width=".03" stroke="#f7e7d1"/><path d="M209.992 413.219h6.172v-6.172h-6.172zm0 0" fill="#f6e6d2" stroke-width=".03" stroke="#f6e6d2"/><path d="M247.031 413.219h6.172v-6.172h-6.172zm0 0" fill="#f9e8d1" stroke-width=".03" stroke="#f9e8d1"/><path d="M253.203 413.219h6.172v-6.172h-6.172zm0 0" fill="#ddd5d5" stroke-width=".03" stroke="#ddd5d5"/><path d="M364.316 413.219h6.172v-6.172h-6.172zm0 0" fill="#a2afdc" stroke-width=".03" stroke="#a2afdc"/><path d="M401.352 413.219h6.175v-6.172h-6.175zm0 0" fill="#eaded3" stroke-width=".03" stroke="#eaded3"/><path d="M407.527 413.219h6.172v-6.172h-6.172zm0 0" fill="#fbc77c" stroke-width=".03" stroke="#fbc77c"/><path d="M413.7 413.219h6.171v-6.172H413.7zm0 0" fill="#cbcad7" stroke-width=".03" stroke="#cbcad7"/><path d="M450.734 413.219h6.176v-6.172h-6.176zm0 0" fill="#f0e2d2" stroke-width=".03" stroke="#f0e2d2"/><path d="M475.43 413.219h6.172v-6.172h-6.172zm0 0" fill="#dbd4d5" stroke-width=".03" stroke="#dbd4d5"/><path d="M481.602 413.219h6.171v-6.172h-6.171zm0 0" fill="#f4e5d2" stroke-width=".03" stroke="#f4e5d2"/><path d="M203.82 407.047h6.172v-6.172h-6.172zm0 0" fill="#d0cdd6" stroke-width=".03" stroke="#d0cdd6"/><path d="M240.855 407.047h6.176v-6.172h-6.176zm0 0" fill="#f9e8d1" stroke-width=".03" stroke="#f9e8d1"/><path d="M247.031 407.047h6.172v-6.172h-6.172zm0 0" fill="#cccad7" stroke-width=".03" stroke="#cccad7"/><path d="M389.008 407.047h6.172v-6.172h-6.172zm0 0" fill="#f6e6d2" stroke-width=".03" stroke="#f6e6d2"/><path d="M395.18 407.047h6.172v-6.172h-6.172zm0 0" fill="#b9bed9" stroke-width=".03" stroke="#b9bed9"/><path d="M401.352 407.047h6.175v-6.172h-6.175zm0 0" fill="#fde3bd" stroke-width=".03" stroke="#fde3bd"/><path d="M407.527 407.047h6.172v-6.172h-6.172zm0 0" fill="#eaded3" stroke-width=".03" stroke="#eaded3"/><path d="M444.563 407.047h6.171v-6.172h-6.171zm0 0" fill="#babfd9" stroke-width=".03" stroke="#babfd9"/><path d="M197.648 400.875h6.172v-6.172h-6.172zm0 0" fill="#ebdfd3" stroke-width=".03" stroke="#ebdfd3"/><path d="M234.684 400.875h6.171v-6.172h-6.171zm0 0" fill="#f9e8d1" stroke-width=".03" stroke="#f9e8d1"/><path d="M240.855 400.875h6.176v-6.172h-6.176zm0 0" fill="#cccad7" stroke-width=".03" stroke="#cccad7"/><path d="M382.836 400.875h6.172v-6.172h-6.172zm0 0" fill="#c5c6d8" stroke-width=".03" stroke="#c5c6d8"/><path d="M389.008 400.875h6.172v-6.172h-6.172zm0 0" fill="#e0d7d4" stroke-width=".03" stroke="#e0d7d4"/><path d="M395.18 400.875h6.172v-6.172h-6.172zm0 0" fill="#e3dad4" stroke-width=".03" stroke="#e3dad4"/><path d="M401.352 400.875h6.175v-6.172h-6.175zm0 0" fill="#b9bed9" stroke-width=".03" stroke="#b9bed9"/><path d="M438.39 400.875h6.173v-6.172h-6.172zm0 0" fill="#babfd9" stroke-width=".03" stroke="#babfd9"/><path d="M191.473 394.703h6.175v-6.176h-6.175zm0 0" fill="#f9e8d1" stroke-width=".03" stroke="#f9e8d1"/><path d="M197.648 394.703h6.172v-6.176h-6.172zm0 0" fill="#f1e2d2" stroke-width=".03" stroke="#f1e2d2"/><path d="M228.512 394.703h6.172v-6.176h-6.172zm0 0" fill="#f9e8d1" stroke-width=".03" stroke="#f9e8d1"/><path d="M234.684 394.703h6.171v-6.176h-6.171zm0 0" fill="#cccad7" stroke-width=".03" stroke="#cccad7"/><path d="M364.316 394.703h6.172v-6.176h-6.172zm0 0" fill="#e9ddd3" stroke-width=".03" stroke="#e9ddd3"/><path d="M376.66 394.703h6.176v-6.176h-6.176zm0 0" fill="#d1ced6" stroke-width=".03" stroke="#d1ced6"/><path d="M382.836 394.703h6.172v-6.176h-6.172zm0 0" fill="#eee1d2" stroke-width=".03" stroke="#eee1d2"/><path d="M389.008 394.703h6.172v-6.176h-6.172zm0 0" fill="#fcd7a1" stroke-width=".03" stroke="#fcd7a1"/><path d="M395.18 394.703h6.172v-6.176h-6.172zm0 0" fill="#e0d7d4" stroke-width=".03" stroke="#e0d7d4"/><path d="M401.352 394.703h6.175v-6.176h-6.175zm0 0" fill="#f6e6d2" stroke-width=".03" stroke="#f6e6d2"/><path d="M432.219 394.703h6.172v-6.176h-6.172zm0 0" fill="#acb5db" stroke-width=".03" stroke="#acb5db"/><path d="M191.473 388.527h6.175v-6.172h-6.175zm0 0" fill="#ebdfd3" stroke-width=".03" stroke="#ebdfd3"/><path d="M222.34 388.527h6.172v-6.172h-6.172zm0 0" fill="#f9e8d1" stroke-width=".03" stroke="#f9e8d1"/><path d="M228.512 388.527h6.172v-6.172h-6.172zm0 0" fill="#cccad7" stroke-width=".03" stroke="#cccad7"/><path d="M358.145 388.527h6.171v-6.172h-6.171zm0 0" fill="#a7b2dc" stroke-width=".03" stroke="#a7b2dc"/><path d="M370.488 388.527h6.172v-6.172h-6.172zm0 0" fill="#f9e8d1" stroke-width=".03" stroke="#f9e8d1"/><path d="M376.66 388.527h6.176v-6.172h-6.176zm0 0" fill="#c5c6d8" stroke-width=".03" stroke="#c5c6d8"/><path d="M382.836 388.527h6.172v-6.172h-6.172zm0 0" fill="#ded6d5" stroke-width=".03" stroke="#ded6d5"/><path d="M389.008 388.527h6.172v-6.172h-6.172zm0 0" fill="#eee1d2" stroke-width=".03" stroke="#eee1d2"/><path d="M395.18 388.527h6.172v-6.172h-6.172zm0 0" fill="#c5c6d8" stroke-width=".03" stroke="#c5c6d8"/><path d="M426.043 388.527h6.176v-6.172h-6.176zm0 0" fill="#93a5de" stroke-width=".03" stroke="#93a5de"/><path d="M185.3 382.355h6.173v-6.171H185.3zm0 0" fill="#f3e4d2" stroke-width=".03" stroke="#f3e4d2"/><path d="M191.473 382.355h6.175v-6.171h-6.175zm0 0" fill="#fae9d1" stroke-width=".03" stroke="#fae9d1"/><path d="M216.164 382.355h6.176v-6.171h-6.176zm0 0" fill="#f9e8d1" stroke-width=".03" stroke="#f9e8d1"/><path d="M222.34 382.355h6.172v-6.171h-6.172zm0 0" fill="#cccad7" stroke-width=".03" stroke="#cccad7"/><path d="M351.969 382.355h6.176v-6.171h-6.176zm0 0" fill="#91a3de" stroke-width=".03" stroke="#91a3de"/><path d="M370.488 382.355h6.172v-6.171h-6.172zm0 0" fill="#a0addc" stroke-width=".03" stroke="#a0addc"/><path d="M376.66 382.355h6.176v-6.171h-6.176zm0 0" fill="#fde4bf" stroke-width=".03" stroke="#fde4bf"/><path d="M382.836 382.355h6.172v-6.171h-6.172zm0 0" fill="#c5c6d8" stroke-width=".03" stroke="#c5c6d8"/><path d="M389.008 382.355h6.172v-6.171h-6.172zm0 0" fill="#d1ced6" stroke-width=".03" stroke="#d1ced6"/><path d="M419.871 382.355h6.172v-6.171h-6.172zm0 0" fill="#899edf" stroke-width=".03" stroke="#899edf"/><path d="M185.3 376.184h6.173v-6.172H185.3zm0 0" fill="#f6e6d2" stroke-width=".03" stroke="#f6e6d2"/><path d="M209.992 376.184h6.172v-6.172h-6.172zm0 0" fill="#f9e8d1" stroke-width=".03" stroke="#f9e8d1"/><path d="M216.164 376.184h6.176v-6.172h-6.176zm0 0" fill="#cccad7" stroke-width=".03" stroke="#cccad7"/><path d="M345.797 376.184h6.172v-6.172h-6.172zm0 0" fill="#7d96e1" stroke-width=".03" stroke="#7d96e1"/><path d="M364.316 376.184h6.172v-6.172h-6.172zm0 0" fill="#d5d0d6" stroke-width=".03" stroke="#d5d0d6"/><path d="M370.488 376.184h6.172v-6.172h-6.172zm0 0" fill="#fee7c6" stroke-width=".03" stroke="#fee7c6"/><path d="M376.66 376.184h6.176v-6.172h-6.176zm0 0" fill="#a0addc" stroke-width=".03" stroke="#a0addc"/><path d="M382.836 376.184h6.172v-6.172h-6.172zm0 0" fill="#f9e8d1" stroke-width=".03" stroke="#f9e8d1"/><path d="M413.7 376.184h6.171v-6.172H413.7zm0 0" fill="#7e97e1" stroke-width=".03" stroke="#7e97e1"/><path d="M179.129 370.012h6.172v-6.176h-6.172zm0 0" fill="#f9e8d1" stroke-width=".03" stroke="#f9e8d1"/><path d="M185.3 370.012h6.173v-6.176H185.3zm0 0M203.82 370.012h6.172v-6.176h-6.172zm0 0" fill="#f7e7d1" stroke-width=".03" stroke="#f7e7d1"/><path d="M209.992 370.012h6.172v-6.176h-6.172zm0 0" fill="#c9c8d7" stroke-width=".03" stroke="#c9c8d7"/><path d="M339.625 370.012h6.172v-6.176h-6.172zm0 0" fill="#97a7de" stroke-width=".03" stroke="#97a7de"/><path d="M358.145 370.012h6.171v-6.176h-6.171zm0 0" fill="#eee1d2" stroke-width=".03" stroke="#eee1d2"/><path d="M364.316 370.012h6.172v-6.176h-6.172zm0 0" fill="#fcd192" stroke-width=".03" stroke="#fcd192"/><path d="M370.488 370.012h6.172v-6.176h-6.172zm0 0" fill="#d5d0d6" stroke-width=".03" stroke="#d5d0d6"/><path d="M389.008 370.012h6.172v-6.176h-6.172zm0 0" fill="#e9ddd3" stroke-width=".03" stroke="#e9ddd3"/><path d="M407.527 370.012h6.172v-6.176h-6.172zm0 0" fill="#a2afdc" stroke-width=".03" stroke="#a2afdc"/><path d="M179.129 363.836h6.172v-6.172h-6.172zm0 0" fill="#ebdfd3" stroke-width=".03" stroke="#ebdfd3"/><path d="M197.648 363.836h6.172v-6.172h-6.172zm0 0" fill="#f7e7d1" stroke-width=".03" stroke="#f7e7d1"/><path d="M203.82 363.836h6.172v-6.172h-6.172zm0 0" fill="#bcc0d9" stroke-width=".03" stroke="#bcc0d9"/><path d="M345.797 363.836h6.172v-6.172h-6.172zm0 0" fill="#fae9d1" stroke-width=".03" stroke="#fae9d1"/><path d="M351.969 363.836h6.176v-6.172h-6.176zm0 0" fill="#d2ced6" stroke-width=".03" stroke="#d2ced6"/><path d="M358.145 363.836h6.171v-6.172h-6.171zm0 0" fill="#fde1b9" stroke-width=".03" stroke="#fde1b9"/><path d="M364.316 363.836h6.172v-6.172h-6.172zm0 0" fill="#eee1d2" stroke-width=".03" stroke="#eee1d2"/><path d="M382.836 363.836h6.172v-6.172h-6.172zm0 0" fill="#a7b2dc" stroke-width=".03" stroke="#a7b2dc"/><path d="M172.957 357.664h6.172v-6.172h-6.172zm0 0" fill="#f3e4d2" stroke-width=".03" stroke="#f3e4d2"/><path d="M179.129 357.664h6.172v-6.172h-6.172zm0 0" fill="#fae9d1" stroke-width=".03" stroke="#fae9d1"/><path d="M191.473 357.664h6.175v-6.172h-6.175zm0 0" fill="#f7e7d1" stroke-width=".03" stroke="#f7e7d1"/><path d="M197.648 357.664h6.172v-6.172h-6.172zm0 0" fill="#bcc0d9" stroke-width=".03" stroke="#bcc0d9"/><path d="M339.625 357.664h6.172v-6.172h-6.172zm0 0" fill="#e4dad4" stroke-width=".03" stroke="#e4dad4"/><path d="M345.797 357.664h6.172v-6.172h-6.172zm0 0" fill="#bbbfd9" stroke-width=".03" stroke="#bbbfd9"/><path d="M351.969 357.664h6.176v-6.172h-6.176zm0 0" fill="#fcd69e" stroke-width=".03" stroke="#fcd69e"/><path d="M358.145 357.664h6.171v-6.172h-6.171zm0 0" fill="#d2ced6" stroke-width=".03" stroke="#d2ced6"/><path d="M376.66 357.664h6.176v-6.172h-6.176zm0 0" fill="#91a3de" stroke-width=".03" stroke="#91a3de"/><path d="M172.957 351.492h6.172v-6.172h-6.172zm0 0" fill="#f6e6d2" stroke-width=".03" stroke="#f6e6d2"/><path d="M185.3 351.492h6.173v-6.172H185.3zm0 0" fill="#f7e7d1" stroke-width=".03" stroke="#f7e7d1"/><path d="M191.473 351.492h6.175v-6.172h-6.175zm0 0" fill="#bcc0d9" stroke-width=".03" stroke="#bcc0d9"/><path d="M333.45 351.492h6.175v-6.172h-6.176zm0 0" fill="#8a9edf" stroke-width=".03" stroke="#8a9edf"/><path d="M339.625 351.492h6.172v-6.172h-6.172zm0 0" fill="#ddd5d5" stroke-width=".03" stroke="#ddd5d5"/><path d="M345.797 351.492h6.172v-6.172h-6.172zm0 0" fill="#fdddaf" stroke-width=".03" stroke="#fdddaf"/><path d="M351.969 351.492h6.176v-6.172h-6.176zm0 0" fill="#bbbfd9" stroke-width=".03" stroke="#bbbfd9"/><path d="M358.145 351.492h6.171v-6.172h-6.171zm0 0" fill="#fae9d1" stroke-width=".03" stroke="#fae9d1"/><path d="M370.488 351.492h6.172v-6.172h-6.172zm0 0" fill="#7d96e1" stroke-width=".03" stroke="#7d96e1"/><path d="M166.781 345.32h6.176v-6.175h-6.176zm0 0" fill="#fae9d1" stroke-width=".03" stroke="#fae9d1"/><path d="M172.957 345.32h6.172v-6.175h-6.172zm0 0" fill="#f9e8d1" stroke-width=".03" stroke="#f9e8d1"/><path d="M179.129 345.32h6.172v-6.175h-6.172zm0 0" fill="#f6e6d2" stroke-width=".03" stroke="#f6e6d2"/><path d="M185.3 345.32h6.173v-6.175H185.3zm0 0" fill="#b8bdd9" stroke-width=".03" stroke="#b8bdd9"/><path d="M327.277 345.32h6.172v-6.175h-6.172zm0 0" fill="#9caadd" stroke-width=".03" stroke="#9caadd"/><path d="M333.45 345.32h6.175v-6.175h-6.176zm0 0" fill="#f3e4d2" stroke-width=".03" stroke="#f3e4d2"/><path d="M339.625 345.32h6.172v-6.175h-6.172zm0 0" fill="#fccd8a" stroke-width=".03" stroke="#fccd8a"/><path d="M345.797 345.32h6.172v-6.175h-6.172zm0 0" fill="#ddd5d5" stroke-width=".03" stroke="#ddd5d5"/><path d="M351.969 345.32h6.176v-6.175h-6.176zm0 0" fill="#e4dad4" stroke-width=".03" stroke="#e4dad4"/><path d="M364.316 345.32h6.172v-6.175h-6.172zm0 0" fill="#97a7de" stroke-width=".03" stroke="#97a7de"/><path d="M166.781 339.145h6.176v-6.172h-6.176zm0 0M172.957 339.145h6.172v-6.172h-6.172zm0 0" fill="#f6e6d2" stroke-width=".03" stroke="#f6e6d2"/><path d="M179.129 339.145h6.172v-6.172h-6.172zm0 0" fill="#afb7db" stroke-width=".03" stroke="#afb7db"/><path d="M327.277 339.145h6.172v-6.172h-6.172zm0 0" fill="#cdcbd7" stroke-width=".03" stroke="#cdcbd7"/><path d="M333.45 339.145h6.175v-6.172h-6.176zm0 0" fill="#fbc87d" stroke-width=".03" stroke="#fbc87d"/><path d="M339.625 339.145h6.172v-6.172h-6.172zm0 0" fill="#f3e4d2" stroke-width=".03" stroke="#f3e4d2"/><path d="M345.797 339.145h6.172v-6.172h-6.172zm0 0" fill="#8a9edf" stroke-width=".03" stroke="#8a9edf"/><path d="M166.781 332.973h6.176V326.8h-6.176zm0 0" fill="#ecdfd3" stroke-width=".03" stroke="#ecdfd3"/><path d="M172.957 332.973h6.172V326.8h-6.172zm0 0" fill="#adb6db" stroke-width=".03" stroke="#adb6db"/><path d="M321.105 332.973h6.172V326.8h-6.172zm0 0" fill="#c4c5d8" stroke-width=".03" stroke="#c4c5d8"/><path d="M327.277 332.973h6.172V326.8h-6.172zm0 0" fill="#fbc270" stroke-width=".03" stroke="#fbc270"/><path d="M333.45 332.973h6.175V326.8h-6.176zm0 0" fill="#cdcbd7" stroke-width=".03" stroke="#cdcbd7"/><path d="M339.625 332.973h6.172V326.8h-6.172zm0 0" fill="#9caadd" stroke-width=".03" stroke="#9caadd"/><path d="M160.61 326.8h6.171v-6.175h-6.172zm0 0" fill="#f0e2d2" stroke-width=".03" stroke="#f0e2d2"/><path d="M166.781 326.8h6.176v-6.175h-6.176zm0 0" fill="#92a4de" stroke-width=".03" stroke="#92a4de"/><path d="M314.934 326.8h6.171v-6.175h-6.171zm0 0" fill="#e6dbd4" stroke-width=".03" stroke="#e6dbd4"/><path d="M321.105 326.8h6.172v-6.175h-6.172zm0 0" fill="#faba5d" stroke-width=".03" stroke="#faba5d"/><path d="M327.277 326.8h6.172v-6.175h-6.172zm0 0" fill="#c4c5d8" stroke-width=".03" stroke="#c4c5d8"/><path d="M475.43 326.8h6.172v-6.175h-6.172zm0 0" fill="#f6e6d2" stroke-width=".03" stroke="#f6e6d2"/><path d="M580.367 326.8h6.172v-6.175h-6.172zm0 0" fill="#849ae0" stroke-width=".03" stroke="#849ae0"/><path d="M160.61 320.625h6.171v-6.172h-6.172zm0 0" fill="#a7b1dc" stroke-width=".03" stroke="#a7b1dc"/><path d="M296.414 320.625h6.172v-6.172h-6.172zm0 0" fill="#fae9d1" stroke-width=".03" stroke="#fae9d1"/><path d="M308.758 320.625h6.176v-6.172h-6.176zm0 0" fill="#99a9dd" stroke-width=".03" stroke="#99a9dd"/><path d="M314.934 320.625h6.171v-6.172h-6.171zm0 0" fill="#fcd499" stroke-width=".03" stroke="#fcd499"/><path d="M321.105 320.625h6.172v-6.172h-6.172zm0 0" fill="#e6dbd4" stroke-width=".03" stroke="#e6dbd4"/><path d="M469.254 320.625h6.176v-6.172h-6.176zm0 0" fill="#e4dad4" stroke-width=".03" stroke="#e4dad4"/><path d="M475.43 320.625h6.172v-6.172h-6.172zm0 0" fill="#fae9d1" stroke-width=".03" stroke="#fae9d1"/><path d="M568.02 320.625h6.175v-6.172h-6.175zm0 0" fill="#f4e5d2" stroke-width=".03" stroke="#f4e5d2"/><path d="M574.195 320.625h6.172v-6.172h-6.172zm0 0" fill="#c7c7d7" stroke-width=".03" stroke="#c7c7d7"/><path d="M154.438 314.453h6.171v-6.172h-6.172zm0 0" fill="#aab4db" stroke-width=".03" stroke="#aab4db"/><path d="M290.242 314.453h6.172v-6.172h-6.172zm0 0" fill="#d2ced6" stroke-width=".03" stroke="#d2ced6"/><path d="M302.586 314.453h6.172v-6.172h-6.172zm0 0" fill="#9facdd" stroke-width=".03" stroke="#9facdd"/><path d="M308.758 314.453h6.176v-6.172h-6.176zm0 0" fill="#fee9cc" stroke-width=".03" stroke="#fee9cc"/><path d="M314.934 314.453h6.171v-6.172h-6.171zm0 0" fill="#98a8dd" stroke-width=".03" stroke="#98a8dd"/><path d="M463.082 314.453h6.172v-6.172h-6.172zm0 0" fill="#e4dad4" stroke-width=".03" stroke="#e4dad4"/><path d="M469.254 314.453h6.176v-6.172h-6.176zm0 0" fill="#fae9d1" stroke-width=".03" stroke="#fae9d1"/><path d="M561.848 314.453h6.172v-6.172h-6.172zm0 0" fill="#f6e6d2" stroke-width=".03" stroke="#f6e6d2"/><path d="M568.02 314.453h6.175v-6.172h-6.175zm0 0" fill="#c7c7d7" stroke-width=".03" stroke="#c7c7d7"/><path d="M148.266 308.281h6.172v-6.172h-6.172zm0 0" fill="#d9d3d5" stroke-width=".03" stroke="#d9d3d5"/><path d="M154.438 308.281h6.171v-6.172h-6.172zm0 0" fill="#f6e6d2" stroke-width=".03" stroke="#f6e6d2"/><path d="M284.066 308.281h6.176v-6.172h-6.176zm0 0" fill="#b4bada" stroke-width=".03" stroke="#b4bada"/><path d="M296.414 308.281h6.172v-6.172h-6.172zm0 0" fill="#c3c4d8" stroke-width=".03" stroke="#c3c4d8"/><path d="M302.586 308.281h6.172v-6.172h-6.172zm0 0" fill="#e8ddd3" stroke-width=".03" stroke="#e8ddd3"/><path d="M308.758 308.281h6.176v-6.172h-6.176zm0 0" fill="#9facdd" stroke-width=".03" stroke="#9facdd"/><path d="M456.91 308.281h6.172v-6.172h-6.172zm0 0" fill="#e4dad4" stroke-width=".03" stroke="#e4dad4"/><path d="M463.082 308.281h6.172v-6.172h-6.172zm0 0" fill="#fae9d1" stroke-width=".03" stroke="#fae9d1"/><path d="M555.676 308.281h6.172v-6.172h-6.172zm0 0" fill="#ede0d3" stroke-width=".03" stroke="#ede0d3"/><path d="M561.848 308.281h6.172v-6.172h-6.172zm0 0" fill="#e1d8d4" stroke-width=".03" stroke="#e1d8d4"/><path d="M148.266 302.11h6.172v-6.176h-6.172zm0 0" fill="#dfd7d4" stroke-width=".03" stroke="#dfd7d4"/><path d="M253.203 302.11h6.172v-6.176h-6.172zm0 0" fill="#fae9d1" stroke-width=".03" stroke="#fae9d1"/><path d="M277.895 302.11h6.171v-6.176h-6.171zm0 0" fill="#b0b8da" stroke-width=".03" stroke="#b0b8da"/><path d="M290.242 302.11h6.172v-6.176h-6.172zm0 0" fill="#f6e6d2" stroke-width=".03" stroke="#f6e6d2"/><path d="M296.414 302.11h6.172v-6.176h-6.172zm0 0" fill="#fccc86" stroke-width=".03" stroke="#fccc86"/><path d="M302.586 302.11h6.172v-6.176h-6.172zm0 0" fill="#c3c4d8" stroke-width=".03" stroke="#c3c4d8"/><path d="M314.934 302.11h6.171v-6.176h-6.171zm0 0" fill="#fae9d1" stroke-width=".03" stroke="#fae9d1"/><path d="M450.734 302.11h6.176v-6.176h-6.176zm0 0" fill="#e4dad4" stroke-width=".03" stroke="#e4dad4"/><path d="M456.91 302.11h6.172v-6.176h-6.172zm0 0" fill="#fae9d1" stroke-width=".03" stroke="#fae9d1"/><path d="M543.328 302.11h6.176v-6.176h-6.176zm0 0" fill="#f4e5d2" stroke-width=".03" stroke="#f4e5d2"/><path d="M549.504 302.11h6.172v-6.176h-6.172zm0 0" fill="#ebdfd3" stroke-width=".03" stroke="#ebdfd3"/><path d="M555.676 302.11h6.172v-6.176h-6.172zm0 0" fill="#fae9d1" stroke-width=".03" stroke="#fae9d1"/><path d="M142.09 295.934h6.176v-6.172h-6.176zm0 0" fill="#aab4db" stroke-width=".03" stroke="#aab4db"/><path d="M247.031 295.934h6.172v-6.172h-6.172zm0 0" fill="#d7d2d5" stroke-width=".03" stroke="#d7d2d5"/><path d="M277.895 295.934h6.171v-6.172h-6.171zm0 0" fill="#f9e8d1" stroke-width=".03" stroke="#f9e8d1"/><path d="M284.066 295.934h6.176v-6.172h-6.176zm0 0" fill="#bec1d9" stroke-width=".03" stroke="#bec1d9"/><path d="M290.242 295.934h6.172v-6.172h-6.172zm0 0" fill="#feeacd" stroke-width=".03" stroke="#feeacd"/><path d="M296.414 295.934h6.172v-6.172h-6.172zm0 0" fill="#f6e6d2" stroke-width=".03" stroke="#f6e6d2"/><path d="M308.758 295.934h6.176v-6.172h-6.176zm0 0" fill="#d2ced6" stroke-width=".03" stroke="#d2ced6"/><path d="M444.563 295.934h6.171v-6.172h-6.171zm0 0" fill="#e4dad4" stroke-width=".03" stroke="#e4dad4"/><path d="M450.734 295.934h6.176v-6.172h-6.176zm0 0" fill="#fae9d1" stroke-width=".03" stroke="#fae9d1"/><path d="M537.156 295.934h6.172v-6.172h-6.172zm0 0" fill="#eee1d2" stroke-width=".03" stroke="#eee1d2"/><path d="M543.328 295.934h6.176v-6.172h-6.176zm0 0" fill="#d6d1d6" stroke-width=".03" stroke="#d6d1d6"/><path d="M135.918 289.762h6.172v-6.172h-6.172zm0 0" fill="#d9d3d5" stroke-width=".03" stroke="#d9d3d5"/><path d="M142.09 289.762h6.176v-6.172h-6.176zm0 0" fill="#f6e6d2" stroke-width=".03" stroke="#f6e6d2"/><path d="M240.855 289.762h6.176v-6.172h-6.176zm0 0" fill="#d7d2d5" stroke-width=".03" stroke="#d7d2d5"/><path d="M271.723 289.762h6.172v-6.172h-6.172zm0 0" fill="#acb5db" stroke-width=".03" stroke="#acb5db"/><path d="M277.895 289.762h6.171v-6.172h-6.171zm0 0" fill="#cfccd7" stroke-width=".03" stroke="#cfccd7"/><path d="M284.066 289.762h6.176v-6.172h-6.176zm0 0" fill="#9dabdd" stroke-width=".03" stroke="#9dabdd"/><path d="M290.242 289.762h6.172v-6.172h-6.172zm0 0" fill="#bec1d9" stroke-width=".03" stroke="#bec1d9"/><path d="M302.586 289.762h6.172v-6.172h-6.172zm0 0" fill="#b4bada" stroke-width=".03" stroke="#b4bada"/><path d="M438.39 289.762h6.173v-6.172h-6.172zm0 0" fill="#e4dad4" stroke-width=".03" stroke="#e4dad4"/><path d="M444.563 289.762h6.171v-6.172h-6.171zm0 0" fill="#fae9d1" stroke-width=".03" stroke="#fae9d1"/><path d="M530.984 289.762h6.172v-6.172h-6.172zm0 0" fill="#e1d8d4" stroke-width=".03" stroke="#e1d8d4"/><path d="M537.156 289.762h6.172v-6.172h-6.172zm0 0" fill="#ede0d3" stroke-width=".03" stroke="#ede0d3"/><path d="M135.918 283.59h6.172v-6.172h-6.172zm0 0" fill="#e5dbd4" stroke-width=".03" stroke="#e5dbd4"/><path d="M234.684 283.59h6.171v-6.172h-6.171zm0 0" fill="#d2ced6" stroke-width=".03" stroke="#d2ced6"/><path d="M265.55 283.59h6.173v-6.172h-6.172zm0 0" fill="#95a6de" stroke-width=".03" stroke="#95a6de"/><path d="M271.723 283.59h6.172v-6.172h-6.172zm0 0" fill="#f7e7d1" stroke-width=".03" stroke="#f7e7d1"/><path d="M277.895 283.59h6.171v-6.172h-6.171zm0 0" fill="#fddeb2" stroke-width=".03" stroke="#fddeb2"/><path d="M284.066 283.59h6.176v-6.172h-6.176zm0 0" fill="#cecbd7" stroke-width=".03" stroke="#cecbd7"/><path d="M290.242 283.59h6.172v-6.172h-6.172zm0 0" fill="#f9e8d1" stroke-width=".03" stroke="#f9e8d1"/><path d="M296.414 283.59h6.172v-6.172h-6.172zm0 0" fill="#b0b8da" stroke-width=".03" stroke="#b0b8da"/><path d="M432.219 283.59h6.172v-6.172h-6.172zm0 0" fill="#e4dad4" stroke-width=".03" stroke="#e4dad4"/><path d="M438.39 283.59h6.173v-6.172h-6.172zm0 0" fill="#fae9d1" stroke-width=".03" stroke="#fae9d1"/><path d="M518.637 283.59h6.176v-6.172h-6.176zm0 0" fill="#f6e6d2" stroke-width=".03" stroke="#f6e6d2"/><path d="M524.813 283.59h6.171v-6.172h-6.172zm0 0" fill="#ebdfd3" stroke-width=".03" stroke="#ebdfd3"/><path d="M530.984 283.59h6.172v-6.172h-6.172zm0 0" fill="#fae9d1" stroke-width=".03" stroke="#fae9d1"/><path d="M129.746 277.418h6.172v-6.176h-6.172zm0 0" fill="#bfc2d9" stroke-width=".03" stroke="#bfc2d9"/><path d="M228.512 277.418h6.172v-6.176h-6.172zm0 0" fill="#babfd9" stroke-width=".03" stroke="#babfd9"/><path d="M259.375 277.418h6.176v-6.176h-6.176zm0 0" fill="#f7e7d1" stroke-width=".03" stroke="#f7e7d1"/><path d="M265.55 277.418h6.173v-6.176h-6.172zm0 0" fill="#c4c5d8" stroke-width=".03" stroke="#c4c5d8"/><path d="M271.723 277.418h6.172v-6.176h-6.172zm0 0" fill="#e2d9d4" stroke-width=".03" stroke="#e2d9d4"/><path d="M277.895 277.418h6.171v-6.176h-6.171zm0 0" fill="#f7e7d1" stroke-width=".03" stroke="#f7e7d1"/><path d="M284.066 277.418h6.176v-6.176h-6.176zm0 0" fill="#acb5db" stroke-width=".03" stroke="#acb5db"/><path d="M426.043 277.418h6.176v-6.176h-6.176zm0 0" fill="#e4dad4" stroke-width=".03" stroke="#e4dad4"/><path d="M432.219 277.418h6.172v-6.176h-6.172zm0 0" fill="#fae9d1" stroke-width=".03" stroke="#fae9d1"/><path d="M512.465 277.418h6.172v-6.176h-6.172zm0 0" fill="#e1d8d4" stroke-width=".03" stroke="#e1d8d4"/><path d="M518.637 277.418h6.176v-6.176h-6.176zm0 0" fill="#ede0d3" stroke-width=".03" stroke="#ede0d3"/><path d="M123.57 271.242h6.176v-6.172h-6.176zm0 0" fill="#f6e6d2" stroke-width=".03" stroke="#f6e6d2"/><path d="M129.746 271.242h6.172v-6.172h-6.172zm0 0" fill="#f9e8d1" stroke-width=".03" stroke="#f9e8d1"/><path d="M222.34 271.242h6.172v-6.172h-6.172zm0 0" fill="#b6bcda" stroke-width=".03" stroke="#b6bcda"/><path d="M259.375 271.242h6.176v-6.172h-6.176zm0 0" fill="#859be0" stroke-width=".03" stroke="#859be0"/><path d="M265.55 271.242h6.173v-6.172h-6.172zm0 0" fill="#fde4c0" stroke-width=".03" stroke="#fde4c0"/><path d="M271.723 271.242h6.172v-6.172h-6.172zm0 0" fill="#c4c5d8" stroke-width=".03" stroke="#c4c5d8"/><path d="M277.895 271.242h6.171v-6.172h-6.171zm0 0" fill="#95a6de" stroke-width=".03" stroke="#95a6de"/><path d="M419.871 271.242h6.172v-6.172h-6.172zm0 0" fill="#e4dad4" stroke-width=".03" stroke="#e4dad4"/><path d="M426.043 271.242h6.176v-6.172h-6.176zm0 0" fill="#fae9d1" stroke-width=".03" stroke="#fae9d1"/><path d="M500.121 271.242h6.172v-6.172h-6.172zm0 0" fill="#f7e7d1" stroke-width=".03" stroke="#f7e7d1"/><path d="M506.293 271.242h6.172v-6.172h-6.172zm0 0" fill="#ebdfd3" stroke-width=".03" stroke="#ebdfd3"/><path d="M512.465 271.242h6.172v-6.172h-6.172zm0 0" fill="#fae9d1" stroke-width=".03" stroke="#fae9d1"/><path d="M123.57 265.07h6.176v-6.172h-6.176zm0 0" fill="#f0e2d2" stroke-width=".03" stroke="#f0e2d2"/><path d="M216.164 265.07h6.176v-6.172h-6.176zm0 0" fill="#a7b2dc" stroke-width=".03" stroke="#a7b2dc"/><path d="M253.203 265.07h6.172v-6.172h-6.172zm0 0" fill="#bfc2d9" stroke-width=".03" stroke="#bfc2d9"/><path d="M259.375 265.07h6.176v-6.172h-6.176zm0 0" fill="#fde5c1" stroke-width=".03" stroke="#fde5c1"/><path d="M265.55 265.07h6.173v-6.172h-6.172zm0 0" fill="#869ce0" stroke-width=".03" stroke="#869ce0"/><path d="M271.723 265.07h6.172v-6.172h-6.172zm0 0" fill="#f7e7d1" stroke-width=".03" stroke="#f7e7d1"/><path d="M413.7 265.07h6.171v-6.172H413.7zm0 0" fill="#e4dad4" stroke-width=".03" stroke="#e4dad4"/><path d="M419.871 265.07h6.172v-6.172h-6.172zm0 0" fill="#fae9d1" stroke-width=".03" stroke="#fae9d1"/><path d="M493.945 265.07h6.176v-6.172h-6.176zm0 0" fill="#ebdfd3" stroke-width=".03" stroke="#ebdfd3"/><path d="M500.121 265.07h6.172v-6.172h-6.172zm0 0" fill="#f3e4d2" stroke-width=".03" stroke="#f3e4d2"/><path d="M123.57 258.898h6.176v-6.171h-6.176zm0 0" fill="#dfd7d4" stroke-width=".03" stroke="#dfd7d4"/><path d="M166.781 258.898h6.176v-6.171h-6.176zm0 0" fill="#f9e8d1" stroke-width=".03" stroke="#f9e8d1"/><path d="M209.992 258.898h6.172v-6.171h-6.172zm0 0" fill="#adb6db" stroke-width=".03" stroke="#adb6db"/><path d="M247.031 258.898h6.172v-6.171h-6.172zm0 0" fill="#f6e6d2" stroke-width=".03" stroke="#f6e6d2"/><path d="M253.203 258.898h6.172v-6.171h-6.172zm0 0" fill="#fbc475" stroke-width=".03" stroke="#fbc475"/><path d="M259.375 258.898h6.176v-6.171h-6.176zm0 0" fill="#bfc2d9" stroke-width=".03" stroke="#bfc2d9"/><path d="M296.414 258.898h6.172v-6.171h-6.172zm0 0" fill="#fae9d1" stroke-width=".03" stroke="#fae9d1"/><path d="M407.527 258.898h6.172v-6.171h-6.172zm0 0" fill="#ddd5d5" stroke-width=".03" stroke="#ddd5d5"/><path d="M413.7 258.898h6.171v-6.171H413.7zm0 0" fill="#fae9d1" stroke-width=".03" stroke="#fae9d1"/><path d="M475.43 258.898h6.172v-6.171h-6.172zm0 0" fill="#f4e5d2" stroke-width=".03" stroke="#f4e5d2"/><path d="M481.602 258.898h6.171v-6.171h-6.171zm0 0" fill="#f6e6d2" stroke-width=".03" stroke="#f6e6d2"/><path d="M487.773 258.898h6.172v-6.171h-6.172zm0 0" fill="#f3e4d2" stroke-width=".03" stroke="#f3e4d2"/><path d="M117.398 252.727h6.172v-6.176h-6.172zm0 0" fill="#aab4db" stroke-width=".03" stroke="#aab4db"/><path d="M160.61 252.727h6.171v-6.176h-6.172zm0 0" fill="#babfd9" stroke-width=".03" stroke="#babfd9"/><path d="M234.684 252.727h6.171v-6.176h-6.171zm0 0" fill="#fae9d1" stroke-width=".03" stroke="#fae9d1"/><path d="M240.855 252.727h6.176v-6.176h-6.176zm0 0" fill="#bec1d9" stroke-width=".03" stroke="#bec1d9"/><path d="M247.031 252.727h6.172v-6.176h-6.172zm0 0" fill="#feeacd" stroke-width=".03" stroke="#feeacd"/><path d="M253.203 252.727h6.172v-6.176h-6.172zm0 0" fill="#f6e6d2" stroke-width=".03" stroke="#f6e6d2"/><path d="M290.242 252.727h6.172v-6.176h-6.172zm0 0" fill="#d7d2d5" stroke-width=".03" stroke="#d7d2d5"/><path d="M401.352 252.727h6.175v-6.176h-6.175zm0 0" fill="#cccad7" stroke-width=".03" stroke="#cccad7"/><path d="M407.527 252.727h6.172v-6.176h-6.172zm0 0" fill="#f9e8d1" stroke-width=".03" stroke="#f9e8d1"/><path d="M469.254 252.727h6.176v-6.176h-6.176zm0 0" fill="#ddd5d5" stroke-width=".03" stroke="#ddd5d5"/><path d="M475.43 252.727h6.172v-6.176h-6.172zm0 0" fill="#e7dcd3" stroke-width=".03" stroke="#e7dcd3"/><path d="M111.227 246.55h6.171v-6.171h-6.171zm0 0" fill="#d9d3d5" stroke-width=".03" stroke="#d9d3d5"/><path d="M117.398 246.55h6.172v-6.171h-6.172zm0 0" fill="#f6e6d2" stroke-width=".03" stroke="#f6e6d2"/><path d="M154.438 246.55h6.171v-6.171h-6.172zm0 0" fill="#babfd9" stroke-width=".03" stroke="#babfd9"/><path d="M228.512 246.55h6.172v-6.171h-6.172zm0 0" fill="#cbcad7" stroke-width=".03" stroke="#cbcad7"/><path d="M234.684 246.55h6.171v-6.171h-6.171zm0 0" fill="#cfccd7" stroke-width=".03" stroke="#cfccd7"/><path d="M240.855 246.55h6.176v-6.171h-6.176zm0 0" fill="#9dabdd" stroke-width=".03" stroke="#9dabdd"/><path d="M247.031 246.55h6.172v-6.171h-6.172zm0 0" fill="#bec1d9" stroke-width=".03" stroke="#bec1d9"/><path d="M284.066 246.55h6.176v-6.171h-6.176zm0 0" fill="#d7d2d5" stroke-width=".03" stroke="#d7d2d5"/><path d="M395.18 246.55h6.172v-6.171h-6.172zm0 0" fill="#cccad7" stroke-width=".03" stroke="#cccad7"/><path d="M401.352 246.55h6.175v-6.171h-6.175zm0 0" fill="#f9e8d1" stroke-width=".03" stroke="#f9e8d1"/><path d="M463.082 246.55h6.172v-6.171h-6.172zm0 0" fill="#d0cdd6" stroke-width=".03" stroke="#d0cdd6"/><path d="M469.254 246.55h6.176v-6.171h-6.176zm0 0" fill="#f7e7d1" stroke-width=".03" stroke="#f7e7d1"/><path d="M111.227 240.379h6.171v-6.172h-6.171zm0 0" fill="#e5dbd4" stroke-width=".03" stroke="#e5dbd4"/><path d="M148.266 240.379h6.172v-6.172h-6.172zm0 0" fill="#babfd9" stroke-width=".03" stroke="#babfd9"/><path d="M209.992 240.379h6.172v-6.172h-6.172zm0 0" fill="#f9e8d1" stroke-width=".03" stroke="#f9e8d1"/><path d="M222.34 240.379h6.172v-6.172h-6.172zm0 0" fill="#bec1d9" stroke-width=".03" stroke="#bec1d9"/><path d="M228.512 240.379h6.172v-6.172h-6.172zm0 0" fill="#f7e7d1" stroke-width=".03" stroke="#f7e7d1"/><path d="M234.684 240.379h6.171v-6.172h-6.171zm0 0" fill="#fde0b7" stroke-width=".03" stroke="#fde0b7"/><path d="M240.855 240.379h6.176v-6.172h-6.176zm0 0" fill="#cecbd7" stroke-width=".03" stroke="#cecbd7"/><path d="M247.031 240.379h6.172v-6.172h-6.172zm0 0" fill="#fae9d1" stroke-width=".03" stroke="#fae9d1"/><path d="M277.895 240.379h6.171v-6.172h-6.171zm0 0" fill="#d2ced6" stroke-width=".03" stroke="#d2ced6"/><path d="M389.008 240.379h6.172v-6.172h-6.172zm0 0" fill="#cccad7" stroke-width=".03" stroke="#cccad7"/><path d="M395.18 240.379h6.172v-6.172h-6.172zm0 0" fill="#f9e8d1" stroke-width=".03" stroke="#f9e8d1"/><path d="M450.734 240.379h6.176v-6.172h-6.176zm0 0" fill="#eee1d2" stroke-width=".03" stroke="#eee1d2"/><path d="M456.91 240.379h6.172v-6.172h-6.172zm0 0" fill="#ebdfd3" stroke-width=".03" stroke="#ebdfd3"/><path d="M105.055 234.207h6.172v-6.172h-6.172zm0 0" fill="#bfc2d9" stroke-width=".03" stroke="#bfc2d9"/><path d="M142.09 234.207h6.176v-6.172h-6.176zm0 0M203.82 234.207h6.172v-6.172h-6.172zm0 0" fill="#babfd9" stroke-width=".03" stroke="#babfd9"/><path d="M216.164 234.207h6.176v-6.172h-6.176zm0 0" fill="#f9e8d1" stroke-width=".03" stroke="#f9e8d1"/><path d="M222.34 234.207h6.172v-6.172h-6.172zm0 0" fill="#c9c8d7" stroke-width=".03" stroke="#c9c8d7"/><path d="M228.512 234.207h6.172v-6.172h-6.172zm0 0" fill="#9caadd" stroke-width=".03" stroke="#9caadd"/><path d="M234.684 234.207h6.171v-6.172h-6.171zm0 0" fill="#f7e7d1" stroke-width=".03" stroke="#f7e7d1"/><path d="M240.855 234.207h6.176v-6.172h-6.176zm0 0" fill="#cbcad7" stroke-width=".03" stroke="#cbcad7"/><path d="M271.723 234.207h6.172v-6.172h-6.172zm0 0" fill="#babfd9" stroke-width=".03" stroke="#babfd9"/><path d="M382.836 234.207h6.172v-6.172h-6.172zm0 0" fill="#cccad7" stroke-width=".03" stroke="#cccad7"/><path d="M389.008 234.207h6.172v-6.172h-6.172zm0 0" fill="#f9e8d1" stroke-width=".03" stroke="#f9e8d1"/><path d="M444.563 234.207h6.171v-6.172h-6.171zm0 0" fill="#d0cdd6" stroke-width=".03" stroke="#d0cdd6"/><path d="M450.734 234.207h6.176v-6.172h-6.176zm0 0" fill="#f7e7d1" stroke-width=".03" stroke="#f7e7d1"/><path d="M98.879 228.035h6.176v-6.176h-6.176zm0 0" fill="#f6e6d2" stroke-width=".03" stroke="#f6e6d2"/><path d="M105.055 228.035h6.172v-6.176h-6.172zm0 0" fill="#f9e8d1" stroke-width=".03" stroke="#f9e8d1"/><path d="M135.918 228.035h6.172v-6.176h-6.172zm0 0" fill="#babfd9" stroke-width=".03" stroke="#babfd9"/><path d="M197.648 228.035h6.172v-6.176h-6.172zm0 0" fill="#b4bbda" stroke-width=".03" stroke="#b4bbda"/><path d="M216.164 228.035h6.176v-6.176h-6.176zm0 0" fill="#9baadd" stroke-width=".03" stroke="#9baadd"/><path d="M222.34 228.035h6.172v-6.176h-6.172zm0 0" fill="#f8e7d1" stroke-width=".03" stroke="#f8e7d1"/><path d="M228.512 228.035h6.172v-6.176h-6.172zm0 0" fill="#c9c8d7" stroke-width=".03" stroke="#c9c8d7"/><path d="M234.684 228.035h6.171v-6.176h-6.171zm0 0" fill="#bec1d9" stroke-width=".03" stroke="#bec1d9"/><path d="M265.55 228.035h6.173v-6.176h-6.172zm0 0" fill="#b6bcda" stroke-width=".03" stroke="#b6bcda"/><path d="M376.66 228.035h6.176v-6.176h-6.176zm0 0" fill="#cccad7" stroke-width=".03" stroke="#cccad7"/><path d="M382.836 228.035h6.172v-6.176h-6.172zm0 0" fill="#f9e8d1" stroke-width=".03" stroke="#f9e8d1"/><path d="M432.219 228.035h6.172v-6.176h-6.172zm0 0" fill="#f1e2d2" stroke-width=".03" stroke="#f1e2d2"/><path d="M438.39 228.035h6.173v-6.176h-6.172zm0 0" fill="#ebdfd3" stroke-width=".03" stroke="#ebdfd3"/><path d="M98.879 221.86h6.176v-6.173h-6.176zm0 0" fill="#f0e2d2" stroke-width=".03" stroke="#f0e2d2"/><path d="M129.746 221.86h6.172v-6.173h-6.172zm0 0" fill="#babfd9" stroke-width=".03" stroke="#babfd9"/><path d="M191.473 221.86h6.175v-6.173h-6.175zm0 0" fill="#93a5de" stroke-width=".03" stroke="#93a5de"/><path d="M209.992 221.86h6.172v-6.173h-6.172zm0 0" fill="#cac9d7" stroke-width=".03" stroke="#cac9d7"/><path d="M216.164 221.86h6.176v-6.173h-6.176zm0 0" fill="#d0cdd6" stroke-width=".03" stroke="#d0cdd6"/><path d="M222.34 221.86h6.172v-6.173h-6.172zm0 0" fill="#9baadd" stroke-width=".03" stroke="#9baadd"/><path d="M228.512 221.86h6.172v-6.173h-6.172zm0 0" fill="#f9e8d1" stroke-width=".03" stroke="#f9e8d1"/><path d="M259.375 221.86h6.176v-6.173h-6.176zm0 0" fill="#a7b2dc" stroke-width=".03" stroke="#a7b2dc"/><path d="M370.488 221.86h6.172v-6.173h-6.172zm0 0" fill="#cccad7" stroke-width=".03" stroke="#cccad7"/><path d="M376.66 221.86h6.176v-6.173h-6.176zm0 0" fill="#f9e8d1" stroke-width=".03" stroke="#f9e8d1"/><path d="M419.871 221.86h6.172v-6.173h-6.172zm0 0" fill="#fae9d1" stroke-width=".03" stroke="#fae9d1"/><path d="M426.043 221.86h6.176v-6.173h-6.176zm0 0" fill="#ebdfd3" stroke-width=".03" stroke="#ebdfd3"/><path d="M432.219 221.86h6.172v-6.173h-6.172zm0 0" fill="#f9e8d1" stroke-width=".03" stroke="#f9e8d1"/><path d="M98.879 215.688h6.176v-6.172h-6.176zm0 0" fill="#e5dbd4" stroke-width=".03" stroke="#e5dbd4"/><path d="M123.57 215.688h6.176v-6.172h-6.176zm0 0" fill="#b4bbda" stroke-width=".03" stroke="#b4bbda"/><path d="M185.3 215.688h6.173v-6.172H185.3zm0 0" fill="#90a2df" stroke-width=".03" stroke="#90a2df"/><path d="M203.82 215.688h6.172v-6.172h-6.172zm0 0" fill="#f7e7d1" stroke-width=".03" stroke="#f7e7d1"/><path d="M209.992 215.688h6.172v-6.172h-6.172zm0 0" fill="#fdd8a4" stroke-width=".03" stroke="#fdd8a4"/><path d="M216.164 215.688h6.176v-6.172h-6.176zm0 0" fill="#cac9d7" stroke-width=".03" stroke="#cac9d7"/><path d="M234.684 215.688h6.171v-6.172h-6.171zm0 0" fill="#f9e8d1" stroke-width=".03" stroke="#f9e8d1"/><path d="M253.203 215.688h6.172v-6.172h-6.172zm0 0" fill="#adb6db" stroke-width=".03" stroke="#adb6db"/><path d="M364.316 215.688h6.172v-6.172h-6.172zm0 0" fill="#c9c8d7" stroke-width=".03" stroke="#c9c8d7"/><path d="M370.488 215.688h6.172v-6.172h-6.172zm0 0" fill="#f9e8d1" stroke-width=".03" stroke="#f9e8d1"/><path d="M407.527 215.688h6.172v-6.172h-6.172zm0 0M413.7 215.688h6.171v-6.172H413.7zm0 0" fill="#f6e6d2" stroke-width=".03" stroke="#f6e6d2"/><path d="M419.871 215.688h6.172v-6.172h-6.172zm0 0" fill="#f3e4d2" stroke-width=".03" stroke="#f3e4d2"/><path d="M92.707 209.516h6.172v-6.176h-6.172zm0 0" fill="#bfc2d9" stroke-width=".03" stroke="#bfc2d9"/><path d="M117.398 209.516h6.172v-6.176h-6.172zm0 0" fill="#93a5de" stroke-width=".03" stroke="#93a5de"/><path d="M191.473 209.516h6.175v-6.176h-6.175zm0 0" fill="#fae9d1" stroke-width=".03" stroke="#fae9d1"/><path d="M197.648 209.516h6.172v-6.176h-6.172zm0 0" fill="#d0cdd6" stroke-width=".03" stroke="#d0cdd6"/><path d="M203.82 209.516h6.172v-6.176h-6.172zm0 0" fill="#e2d9d4" stroke-width=".03" stroke="#e2d9d4"/><path d="M209.992 209.516h6.172v-6.176h-6.172zm0 0" fill="#f7e7d1" stroke-width=".03" stroke="#f7e7d1"/><path d="M228.512 209.516h6.172v-6.176h-6.172zm0 0" fill="#babfd9" stroke-width=".03" stroke="#babfd9"/><path d="M358.145 209.516h6.171v-6.176h-6.171zm0 0" fill="#bcc0d9" stroke-width=".03" stroke="#bcc0d9"/><path d="M364.316 209.516h6.172v-6.176h-6.172zm0 0" fill="#f7e7d1" stroke-width=".03" stroke="#f7e7d1"/><path d="M401.352 209.516h6.175v-6.176h-6.175zm0 0" fill="#d0cdd6" stroke-width=".03" stroke="#d0cdd6"/><path d="M407.527 209.516h6.172v-6.176h-6.172zm0 0" fill="#f7e7d1" stroke-width=".03" stroke="#f7e7d1"/><path d="M86.535 203.34h6.172v-6.172h-6.172zm0 0" fill="#f6e6d2" stroke-width=".03" stroke="#f6e6d2"/><path d="M92.707 203.34h6.172v-6.172h-6.172zm0 0" fill="#f9e8d1" stroke-width=".03" stroke="#f9e8d1"/><path d="M111.227 203.34h6.171v-6.172h-6.171zm0 0" fill="#93a5de" stroke-width=".03" stroke="#93a5de"/><path d="M185.3 203.34h6.173v-6.172H185.3zm0 0" fill="#f7e7d1" stroke-width=".03" stroke="#f7e7d1"/><path d="M191.473 203.34h6.175v-6.172h-6.175zm0 0" fill="#bbbfd9" stroke-width=".03" stroke="#bbbfd9"/><path d="M197.648 203.34h6.172v-6.172h-6.172zm0 0" fill="#fee8c8" stroke-width=".03" stroke="#fee8c8"/><path d="M203.82 203.34h6.172v-6.172h-6.172zm0 0" fill="#d0cdd6" stroke-width=".03" stroke="#d0cdd6"/><path d="M222.34 203.34h6.172v-6.172h-6.172zm0 0" fill="#b4bbda" stroke-width=".03" stroke="#b4bbda"/><path d="M351.969 203.34h6.176v-6.172h-6.176zm0 0" fill="#bcc0d9" stroke-width=".03" stroke="#bcc0d9"/><path d="M358.145 203.34h6.171v-6.172h-6.171zm0 0" fill="#f7e7d1" stroke-width=".03" stroke="#f7e7d1"/><path d="M389.008 203.34h6.172v-6.172h-6.172zm0 0" fill="#f1e2d2" stroke-width=".03" stroke="#f1e2d2"/><path d="M395.18 203.34h6.172v-6.172h-6.172zm0 0" fill="#ebdfd3" stroke-width=".03" stroke="#ebdfd3"/><path d="M86.535 197.168h6.172v-6.172h-6.172zm0 0" fill="#f0e2d2" stroke-width=".03" stroke="#f0e2d2"/><path d="M105.055 197.168h6.172v-6.172h-6.172zm0 0" fill="#93a5de" stroke-width=".03" stroke="#93a5de"/><path d="M179.129 197.168h6.172v-6.172h-6.172zm0 0" fill="#a7b2dc" stroke-width=".03" stroke="#a7b2dc"/><path d="M185.3 197.168h6.173v-6.172H185.3zm0 0" fill="#d9d3d5" stroke-width=".03" stroke="#d9d3d5"/><path d="M191.473 197.168h6.175v-6.172h-6.175zm0 0" fill="#d0cdd6" stroke-width=".03" stroke="#d0cdd6"/><path d="M197.648 197.168h6.172v-6.172h-6.172zm0 0" fill="#bbbfd9" stroke-width=".03" stroke="#bbbfd9"/><path d="M203.82 197.168h6.172v-6.172h-6.172zm0 0" fill="#fae9d1" stroke-width=".03" stroke="#fae9d1"/><path d="M216.164 197.168h6.176v-6.172h-6.176zm0 0" fill="#93a5de" stroke-width=".03" stroke="#93a5de"/><path d="M345.797 197.168h6.172v-6.172h-6.172zm0 0" fill="#bcc0d9" stroke-width=".03" stroke="#bcc0d9"/><path d="M351.969 197.168h6.176v-6.172h-6.176zm0 0" fill="#f7e7d1" stroke-width=".03" stroke="#f7e7d1"/><path d="M376.66 197.168h6.176v-6.172h-6.176zm0 0" fill="#fae9d1" stroke-width=".03" stroke="#fae9d1"/><path d="M382.836 197.168h6.172v-6.172h-6.172zm0 0" fill="#ebdfd3" stroke-width=".03" stroke="#ebdfd3"/><path d="M389.008 197.168h6.172v-6.172h-6.172zm0 0" fill="#f9e8d1" stroke-width=".03" stroke="#f9e8d1"/><path d="M86.535 190.996h6.172v-6.172h-6.172zm0 0" fill="#ebdfd3" stroke-width=".03" stroke="#ebdfd3"/><path d="M98.879 190.996h6.176v-6.172h-6.176zm0 0" fill="#8b9fdf" stroke-width=".03" stroke="#8b9fdf"/><path d="M172.957 190.996h6.172v-6.172h-6.172zm0 0" fill="#8ca0df" stroke-width=".03" stroke="#8ca0df"/><path d="M179.129 190.996h6.172v-6.172h-6.172zm0 0" fill="#f9e8d1" stroke-width=".03" stroke="#f9e8d1"/><path d="M185.3 190.996h6.173v-6.172H185.3zm0 0" fill="#fddfb4" stroke-width=".03" stroke="#fddfb4"/><path d="M191.473 190.996h6.175v-6.172h-6.175zm0 0" fill="#d9d3d5" stroke-width=".03" stroke="#d9d3d5"/><path d="M197.648 190.996h6.172v-6.172h-6.172zm0 0" fill="#f7e7d1" stroke-width=".03" stroke="#f7e7d1"/><path d="M209.992 190.996h6.172v-6.172h-6.172zm0 0" fill="#90a2df" stroke-width=".03" stroke="#90a2df"/><path d="M339.625 190.996h6.172v-6.172h-6.172zm0 0" fill="#b8bdd9" stroke-width=".03" stroke="#b8bdd9"/><path d="M345.797 190.996h6.172v-6.172h-6.172zm0 0M364.316 190.996h6.172v-6.172h-6.172zm0 0" fill="#f7e7d1" stroke-width=".03" stroke="#f7e7d1"/><path d="M370.488 190.996h6.172v-6.172h-6.172zm0 0" fill="#f6e6d2" stroke-width=".03" stroke="#f6e6d2"/><path d="M376.66 190.996h6.176v-6.172h-6.176zm0 0" fill="#f3e4d2" stroke-width=".03" stroke="#f3e4d2"/><path d="M80.363 184.824h6.172v-6.176h-6.172zm0 0" fill="#f0e2d2" stroke-width=".03" stroke="#f0e2d2"/><path d="M92.707 184.824h6.172v-6.176h-6.172zm0 0" fill="#8098e1" stroke-width=".03" stroke="#8098e1"/><path d="M172.957 184.824h6.172v-6.176h-6.172zm0 0" fill="#ebdfd3" stroke-width=".03" stroke="#ebdfd3"/><path d="M179.129 184.824h6.172v-6.176h-6.172zm0 0" fill="#fde5c1" stroke-width=".03" stroke="#fde5c1"/><path d="M185.3 184.824h6.173v-6.176H185.3zm0 0" fill="#f9e8d1" stroke-width=".03" stroke="#f9e8d1"/><path d="M191.473 184.824h6.175v-6.176h-6.175zm0 0" fill="#a7b2dc" stroke-width=".03" stroke="#a7b2dc"/><path d="M333.45 184.824h6.175v-6.176h-6.176zm0 0" fill="#afb7db" stroke-width=".03" stroke="#afb7db"/><path d="M339.625 184.824h6.172v-6.176h-6.172zm0 0" fill="#f6e6d2" stroke-width=".03" stroke="#f6e6d2"/><path d="M351.969 184.824h6.176v-6.176h-6.176zm0 0" fill="#fae9d1" stroke-width=".03" stroke="#fae9d1"/><path d="M358.145 184.824h6.171v-6.176h-6.171zm0 0" fill="#ebdfd3" stroke-width=".03" stroke="#ebdfd3"/><path d="M364.316 184.824h6.172v-6.176h-6.172zm0 0" fill="#f9e8d1" stroke-width=".03" stroke="#f9e8d1"/><path d="M80.363 178.648h6.172v-6.171h-6.172zm0 0" fill="#f0e2d2" stroke-width=".03" stroke="#f0e2d2"/><path d="M86.535 178.648h6.172v-6.171h-6.172zm0 0" fill="#7e97e1" stroke-width=".03" stroke="#7e97e1"/><path d="M166.781 178.648h6.176v-6.171h-6.176zm0 0" fill="#b2b9da" stroke-width=".03" stroke="#b2b9da"/><path d="M172.957 178.648h6.172v-6.171h-6.172zm0 0" fill="#fddcad" stroke-width=".03" stroke="#fddcad"/><path d="M179.129 178.648h6.172v-6.171h-6.172zm0 0" fill="#ebdfd3" stroke-width=".03" stroke="#ebdfd3"/><path d="M185.3 178.648h6.173v-6.171H185.3zm0 0" fill="#8ca0df" stroke-width=".03" stroke="#8ca0df"/><path d="M327.277 178.648h6.172v-6.171h-6.172zm0 0" fill="#adb6db" stroke-width=".03" stroke="#adb6db"/><path d="M333.45 178.648h6.175v-6.171h-6.176zm0 0" fill="#f6e6d2" stroke-width=".03" stroke="#f6e6d2"/><path d="M339.625 178.648h6.172v-6.171h-6.172zm0 0" fill="#f9e8d1" stroke-width=".03" stroke="#f9e8d1"/><path d="M345.797 178.648h6.172v-6.171h-6.172zm0 0" fill="#f6e6d2" stroke-width=".03" stroke="#f6e6d2"/><path d="M351.969 178.648h6.176v-6.171h-6.176zm0 0" fill="#f3e4d2" stroke-width=".03" stroke="#f3e4d2"/><path d="M80.363 172.477h6.172v-6.172h-6.172zm0 0" fill="#7993e1" stroke-width=".03" stroke="#7993e1"/><path d="M160.61 172.477h6.171v-6.172h-6.172zm0 0" fill="#f6e6d2" stroke-width=".03" stroke="#f6e6d2"/><path d="M166.781 172.477h6.176v-6.172h-6.176zm0 0" fill="#fbc373" stroke-width=".03" stroke="#fbc373"/><path d="M172.957 172.477h6.172v-6.172h-6.172zm0 0" fill="#b2b9da" stroke-width=".03" stroke="#b2b9da"/><path d="M253.203 172.477h6.172v-6.172h-6.172zm0 0" fill="#f9e8d1" stroke-width=".03" stroke="#f9e8d1"/><path d="M321.105 172.477h6.172v-6.172h-6.172zm0 0" fill="#92a4de" stroke-width=".03" stroke="#92a4de"/><path d="M327.277 172.477h6.172v-6.172h-6.172zm0 0" fill="#ecdfd3" stroke-width=".03" stroke="#ecdfd3"/><path d="M333.45 172.477h6.175v-6.172h-6.176zm0 0" fill="#f6e6d2" stroke-width=".03" stroke="#f6e6d2"/><path d="M339.625 172.477h6.172v-6.172h-6.172zm0 0" fill="#fae9d1" stroke-width=".03" stroke="#fae9d1"/><path d="M74.188 166.305h6.175v-6.172h-6.175zm0 0" fill="#8fa2df" stroke-width=".03" stroke="#8fa2df"/><path d="M148.266 166.305h6.172v-6.172h-6.172zm0 0" fill="#fae9d1" stroke-width=".03" stroke="#fae9d1"/><path d="M154.438 166.305h6.171v-6.172h-6.172zm0 0" fill="#bec1d9" stroke-width=".03" stroke="#bec1d9"/><path d="M160.61 166.305h6.171v-6.172h-6.172zm0 0" fill="#fde0b6" stroke-width=".03" stroke="#fde0b6"/><path d="M166.781 166.305h6.176v-6.172h-6.176zm0 0" fill="#f6e6d2" stroke-width=".03" stroke="#f6e6d2"/><path d="M247.031 166.305h6.172v-6.172h-6.172zm0 0" fill="#babfd9" stroke-width=".03" stroke="#babfd9"/><path d="M314.934 166.305h6.171v-6.172h-6.171zm0 0" fill="#a7b1dc" stroke-width=".03" stroke="#a7b1dc"/><path d="M321.105 166.305h6.172v-6.172h-6.172zm0 0" fill="#f0e2d2" stroke-width=".03" stroke="#f0e2d2"/><path d="M68.016 160.133h6.171v-6.176h-6.171zm0 0" fill="#cac9d7" stroke-width=".03" stroke="#cac9d7"/><path d="M74.188 160.133h6.175v-6.176h-6.175zm0 0" fill="#f3e4d2" stroke-width=".03" stroke="#f3e4d2"/><path d="M142.09 160.133h6.176v-6.176h-6.176zm0 0" fill="#cbcad7" stroke-width=".03" stroke="#cbcad7"/><path d="M148.266 160.133h6.172v-6.176h-6.172zm0 0" fill="#cfccd7" stroke-width=".03" stroke="#cfccd7"/><path d="M154.438 160.133h6.171v-6.176h-6.172zm0 0" fill="#e2d9d4" stroke-width=".03" stroke="#e2d9d4"/><path d="M160.61 160.133h6.171v-6.176h-6.172zm0 0" fill="#bec1d9" stroke-width=".03" stroke="#bec1d9"/><path d="M240.855 160.133h6.176v-6.176h-6.176zm0 0" fill="#babfd9" stroke-width=".03" stroke="#babfd9"/><path d="M302.586 160.133h6.172v-6.176h-6.172zm0 0" fill="#f6e6d2" stroke-width=".03" stroke="#f6e6d2"/><path d="M308.758 160.133h6.176v-6.176h-6.176zm0 0" fill="#aab4db" stroke-width=".03" stroke="#aab4db"/><path d="M68.016 153.957h6.171v-6.172h-6.171zm0 0" fill="#dad3d5" stroke-width=".03" stroke="#dad3d5"/><path d="M123.57 153.957h6.176v-6.172h-6.176zm0 0" fill="#fae9d1" stroke-width=".03" stroke="#fae9d1"/><path d="M135.918 153.957h6.172v-6.172h-6.172zm0 0" fill="#bec1d9" stroke-width=".03" stroke="#bec1d9"/><path d="M142.09 153.957h6.176v-6.172h-6.176zm0 0" fill="#f7e7d1" stroke-width=".03" stroke="#f7e7d1"/><path d="M148.266 153.957h6.172v-6.172h-6.172zm0 0" fill="#fcd8a3" stroke-width=".03" stroke="#fcd8a3"/><path d="M154.438 153.957h6.171v-6.172h-6.172zm0 0" fill="#cecbd7" stroke-width=".03" stroke="#cecbd7"/><path d="M160.61 153.957h6.171v-6.172h-6.172zm0 0" fill="#fae9d1" stroke-width=".03" stroke="#fae9d1"/><path d="M234.684 153.957h6.171v-6.172h-6.171zm0 0" fill="#babfd9" stroke-width=".03" stroke="#babfd9"/><path d="M296.414 153.957h6.172v-6.172h-6.172zm0 0" fill="#dfd7d4" stroke-width=".03" stroke="#dfd7d4"/><path d="M302.586 153.957h6.172v-6.172h-6.172zm0 0" fill="#d9d3d5" stroke-width=".03" stroke="#d9d3d5"/><path d="M61.844 147.785h6.172v-6.172h-6.172zm0 0" fill="#a9b3db" stroke-width=".03" stroke="#a9b3db"/><path d="M117.398 147.785h6.172v-6.172h-6.172zm0 0" fill="#d7d2d5" stroke-width=".03" stroke="#d7d2d5"/><path d="M129.746 147.785h6.172v-6.172h-6.172zm0 0" fill="#f9e8d1" stroke-width=".03" stroke="#f9e8d1"/><path d="M135.918 147.785h6.172v-6.172h-6.172zm0 0" fill="#c9c8d7" stroke-width=".03" stroke="#c9c8d7"/><path d="M142.09 147.785h6.176v-6.172h-6.176zm0 0" fill="#e2d9d4" stroke-width=".03" stroke="#e2d9d4"/><path d="M148.266 147.785h6.172v-6.172h-6.172zm0 0" fill="#f7e7d1" stroke-width=".03" stroke="#f7e7d1"/><path d="M154.438 147.785h6.171v-6.172h-6.172zm0 0" fill="#cbcad7" stroke-width=".03" stroke="#cbcad7"/><path d="M228.512 147.785h6.172v-6.172h-6.172zm0 0" fill="#babfd9" stroke-width=".03" stroke="#babfd9"/><path d="M284.066 147.785h6.176v-6.172h-6.176zm0 0" fill="#f6e6d2" stroke-width=".03" stroke="#f6e6d2"/><path d="M290.242 147.785h6.172v-6.172h-6.172zm0 0" fill="#aab4db" stroke-width=".03" stroke="#aab4db"/><path d="M55.672 141.613h6.172v-6.172h-6.172zm0 0" fill="#f3e4d2" stroke-width=".03" stroke="#f3e4d2"/><path d="M61.844 141.613h6.172v-6.172h-6.172zm0 0" fill="#f7e7d1" stroke-width=".03" stroke="#f7e7d1"/><path d="M111.227 141.613h6.171v-6.172h-6.171zm0 0" fill="#d2ced6" stroke-width=".03" stroke="#d2ced6"/><path d="M129.746 141.613h6.172v-6.172h-6.172zm0 0" fill="#9baadd" stroke-width=".03" stroke="#9baadd"/><path d="M135.918 141.613h6.172v-6.172h-6.172zm0 0" fill="#fee6c4" stroke-width=".03" stroke="#fee6c4"/><path d="M142.09 141.613h6.176v-6.172h-6.176zm0 0" fill="#c9c8d7" stroke-width=".03" stroke="#c9c8d7"/><path d="M148.266 141.613h6.172v-6.172h-6.172zm0 0" fill="#bec1d9" stroke-width=".03" stroke="#bec1d9"/><path d="M222.34 141.613h6.172v-6.172h-6.172zm0 0" fill="#babfd9" stroke-width=".03" stroke="#babfd9"/><path d="M277.895 141.613h6.171v-6.172h-6.171zm0 0" fill="#e5dbd4" stroke-width=".03" stroke="#e5dbd4"/><path d="M284.066 141.613h6.176v-6.172h-6.176zm0 0" fill="#d9d3d5" stroke-width=".03" stroke="#d9d3d5"/><path d="M55.672 135.441h6.172v-6.175h-6.172zm0 0" fill="#e9ddd3" stroke-width=".03" stroke="#e9ddd3"/><path d="M105.055 135.441h6.172v-6.175h-6.172zm0 0" fill="#babfd9" stroke-width=".03" stroke="#babfd9"/><path d="M123.57 135.441h6.176v-6.175h-6.176zm0 0" fill="#cac9d7" stroke-width=".03" stroke="#cac9d7"/><path d="M129.746 135.441h6.172v-6.175h-6.172zm0 0" fill="#fcead1" stroke-width=".03" stroke="#fcead1"/><path d="M135.918 135.441h6.172v-6.175h-6.172zm0 0" fill="#9baadd" stroke-width=".03" stroke="#9baadd"/><path d="M142.09 135.441h6.176v-6.175h-6.176zm0 0" fill="#f9e8d1" stroke-width=".03" stroke="#f9e8d1"/><path d="M216.164 135.441h6.176v-6.175h-6.176zm0 0" fill="#babfd9" stroke-width=".03" stroke="#babfd9"/><path d="M265.55 135.441h6.173v-6.175h-6.172zm0 0" fill="#f9e8d1" stroke-width=".03" stroke="#f9e8d1"/><path d="M271.723 135.441h6.172v-6.175h-6.172zm0 0" fill="#bfc2d9" stroke-width=".03" stroke="#bfc2d9"/><path d="M55.672 129.266h6.172v-6.172h-6.172zm0 0" fill="#dad3d5" stroke-width=".03" stroke="#dad3d5"/><path d="M80.363 129.266h6.172v-6.172h-6.172zm0 0" fill="#f7e7d1" stroke-width=".03" stroke="#f7e7d1"/><path d="M98.879 129.266h6.176v-6.172h-6.176zm0 0" fill="#b8bdd9" stroke-width=".03" stroke="#b8bdd9"/><path d="M117.398 129.266h6.172v-6.172h-6.172zm0 0" fill="#f7e7d1" stroke-width=".03" stroke="#f7e7d1"/><path d="M123.57 129.266h6.176v-6.172h-6.176zm0 0" fill="#fcd194" stroke-width=".03" stroke="#fcd194"/><path d="M129.746 129.266h6.172v-6.172h-6.172zm0 0" fill="#cac9d7" stroke-width=".03" stroke="#cac9d7"/><path d="M148.266 129.266h6.172v-6.172h-6.172zm0 0" fill="#fae9d1" stroke-width=".03" stroke="#fae9d1"/><path d="M209.992 129.266h6.172v-6.172h-6.172zm0 0" fill="#b4bbda" stroke-width=".03" stroke="#b4bbda"/><path d="M253.203 129.266h6.172v-6.172h-6.172zm0 0" fill="#dfd7d4" stroke-width=".03" stroke="#dfd7d4"/><path d="M259.375 129.266h6.176v-6.172h-6.176zm0 0" fill="#f0e2d2" stroke-width=".03" stroke="#f0e2d2"/><path d="M265.55 129.266h6.173v-6.172h-6.172zm0 0" fill="#f6e6d2" stroke-width=".03" stroke="#f6e6d2"/><path d="M49.496 123.094h6.176v-6.172h-6.176zm0 0" fill="#a9b3db" stroke-width=".03" stroke="#a9b3db"/><path d="M74.188 123.094h6.175v-6.172h-6.175zm0 0" fill="#a7b2dc" stroke-width=".03" stroke="#a7b2dc"/><path d="M105.055 123.094h6.172v-6.172h-6.172zm0 0" fill="#fae9d1" stroke-width=".03" stroke="#fae9d1"/><path d="M111.227 123.094h6.171v-6.172h-6.171zm0 0" fill="#d0cdd6" stroke-width=".03" stroke="#d0cdd6"/><path d="M117.398 123.094h6.172v-6.172h-6.172zm0 0" fill="#e2d9d4" stroke-width=".03" stroke="#e2d9d4"/><path d="M123.57 123.094h6.176v-6.172h-6.176zm0 0" fill="#f7e7d1" stroke-width=".03" stroke="#f7e7d1"/><path d="M142.09 123.094h6.176v-6.172h-6.176zm0 0" fill="#d7d2d5" stroke-width=".03" stroke="#d7d2d5"/><path d="M203.82 123.094h6.172v-6.172h-6.172zm0 0" fill="#93a5de" stroke-width=".03" stroke="#93a5de"/><path d="M240.855 123.094h6.176v-6.172h-6.176zm0 0" fill="#f6e6d2" stroke-width=".03" stroke="#f6e6d2"/><path d="M247.031 123.094h6.172v-6.172h-6.172zm0 0" fill="#aab4db" stroke-width=".03" stroke="#aab4db"/><path d="M43.324 116.922h6.172v-6.172h-6.172zm0 0" fill="#f3e4d2" stroke-width=".03" stroke="#f3e4d2"/><path d="M49.496 116.922h6.176v-6.172h-6.176zm0 0" fill="#f7e7d1" stroke-width=".03" stroke="#f7e7d1"/><path d="M68.016 116.922h6.171v-6.172h-6.171zm0 0" fill="#a7b2dc" stroke-width=".03" stroke="#a7b2dc"/><path d="M98.879 116.922h6.176v-6.172h-6.176zm0 0" fill="#f9e8d1" stroke-width=".03" stroke="#f9e8d1"/><path d="M105.055 116.922h6.172v-6.172h-6.172zm0 0" fill="#bbbfd9" stroke-width=".03" stroke="#bbbfd9"/><path d="M111.227 116.922h6.171v-6.172h-6.171zm0 0" fill="#fee8c8" stroke-width=".03" stroke="#fee8c8"/><path d="M117.398 116.922h6.172v-6.172h-6.172zm0 0" fill="#d0cdd6" stroke-width=".03" stroke="#d0cdd6"/><path d="M135.918 116.922h6.172v-6.172h-6.172zm0 0" fill="#d2ced6" stroke-width=".03" stroke="#d2ced6"/><path d="M197.648 116.922h6.172v-6.172h-6.172zm0 0" fill="#93a5de" stroke-width=".03" stroke="#93a5de"/><path d="M234.684 116.922h6.171v-6.172h-6.171zm0 0" fill="#e5dbd4" stroke-width=".03" stroke="#e5dbd4"/><path d="M240.855 116.922h6.176v-6.172h-6.176zm0 0" fill="#d9d3d5" stroke-width=".03" stroke="#d9d3d5"/><path d="M43.324 110.75h6.172v-6.176h-6.172zm0 0" fill="#e9ddd3" stroke-width=".03" stroke="#e9ddd3"/><path d="M61.844 110.75h6.172v-6.176h-6.172zm0 0" fill="#a7b2dc" stroke-width=".03" stroke="#a7b2dc"/><path d="M92.707 110.75h6.172v-6.176h-6.172zm0 0" fill="#babfd9" stroke-width=".03" stroke="#babfd9"/><path d="M98.879 110.75h6.176v-6.176h-6.176zm0 0" fill="#d9d3d5" stroke-width=".03" stroke="#d9d3d5"/><path d="M105.055 110.75h6.172v-6.176h-6.172zm0 0" fill="#d0cdd6" stroke-width=".03" stroke="#d0cdd6"/><path d="M111.227 110.75h6.171v-6.176h-6.171zm0 0" fill="#bbbfd9" stroke-width=".03" stroke="#bbbfd9"/><path d="M117.398 110.75h6.172v-6.176h-6.172zm0 0" fill="#fae9d1" stroke-width=".03" stroke="#fae9d1"/><path d="M129.746 110.75h6.172v-6.176h-6.172zm0 0" fill="#babfd9" stroke-width=".03" stroke="#babfd9"/><path d="M191.473 110.75h6.175v-6.176h-6.175zm0 0" fill="#93a5de" stroke-width=".03" stroke="#93a5de"/><path d="M222.34 110.75h6.172v-6.176h-6.172zm0 0" fill="#f9e8d1" stroke-width=".03" stroke="#f9e8d1"/><path d="M228.512 110.75h6.172v-6.176h-6.172zm0 0" fill="#bfc2d9" stroke-width=".03" stroke="#bfc2d9"/><path d="M43.324 104.574h6.172v-6.172h-6.172zm0 0" fill="#e0d7d4" stroke-width=".03" stroke="#e0d7d4"/><path d="M55.672 104.574h6.172v-6.172h-6.172zm0 0" fill="#9aa9dd" stroke-width=".03" stroke="#9aa9dd"/><path d="M86.535 104.574h6.172v-6.172h-6.172zm0 0" fill="#a9b3db" stroke-width=".03" stroke="#a9b3db"/><path d="M92.707 104.574h6.172v-6.172h-6.172zm0 0" fill="#f9e8d1" stroke-width=".03" stroke="#f9e8d1"/><path d="M98.879 104.574h6.176v-6.172h-6.176zm0 0" fill="#fde2bb" stroke-width=".03" stroke="#fde2bb"/><path d="M105.055 104.574h6.172v-6.172h-6.172zm0 0" fill="#d9d3d5" stroke-width=".03" stroke="#d9d3d5"/><path d="M111.227 104.574h6.171v-6.172h-6.171zm0 0" fill="#f9e8d1" stroke-width=".03" stroke="#f9e8d1"/><path d="M123.57 104.574h6.176v-6.172h-6.176zm0 0" fill="#b8bdd9" stroke-width=".03" stroke="#b8bdd9"/><path d="M185.3 104.574h6.173v-6.172H185.3zm0 0" fill="#8b9fdf" stroke-width=".03" stroke="#8b9fdf"/><path d="M209.992 104.574h6.172v-6.172h-6.172zm0 0" fill="#e5dbd4" stroke-width=".03" stroke="#e5dbd4"/><path d="M216.164 104.574h6.176v-6.172h-6.176zm0 0" fill="#f0e2d2" stroke-width=".03" stroke="#f0e2d2"/><path d="M222.34 104.574h6.172v-6.172h-6.172zm0 0" fill="#f6e6d2" stroke-width=".03" stroke="#f6e6d2"/><path d="M37.152 98.402h6.172V92.23h-6.172zm0 0" fill="#e9ddd3" stroke-width=".03" stroke="#e9ddd3"/><path d="M49.496 98.402h6.176V92.23h-6.176zm0 0" fill="#8098e1" stroke-width=".03" stroke="#8098e1"/><path d="M86.535 98.402h6.172V92.23h-6.172zm0 0" fill="#ebdfd3" stroke-width=".03" stroke="#ebdfd3"/><path d="M92.707 98.402h6.172V92.23h-6.172zm0 0" fill="#fcead1" stroke-width=".03" stroke="#fcead1"/><path d="M98.879 98.402h6.176V92.23h-6.176zm0 0" fill="#f9e8d1" stroke-width=".03" stroke="#f9e8d1"/><path d="M105.055 98.402h6.172V92.23h-6.172zm0 0" fill="#babfd9" stroke-width=".03" stroke="#babfd9"/><path d="M179.129 98.402h6.172V92.23h-6.172zm0 0" fill="#8098e1" stroke-width=".03" stroke="#8098e1"/><path d="M197.648 98.402h6.172V92.23h-6.172zm0 0" fill="#f9e8d1" stroke-width=".03" stroke="#f9e8d1"/><path d="M203.82 98.402h6.172V92.23h-6.172zm0 0" fill="#bfc2d9" stroke-width=".03" stroke="#bfc2d9"/><path d="M37.152 92.23h6.172v-6.175h-6.172zm0 0" fill="#e9ddd3" stroke-width=".03" stroke="#e9ddd3"/><path d="M43.324 92.23h6.172v-6.175h-6.172zm0 0" fill="#7d96e1" stroke-width=".03" stroke="#7d96e1"/><path d="M80.363 92.23h6.172v-6.175h-6.172zm0 0" fill="#bdc0d9" stroke-width=".03" stroke="#bdc0d9"/><path d="M86.535 92.23h6.172v-6.175h-6.172zm0 0" fill="#fee7c7" stroke-width=".03" stroke="#fee7c7"/><path d="M92.707 92.23h6.172v-6.175h-6.172zm0 0" fill="#ebdfd3" stroke-width=".03" stroke="#ebdfd3"/><path d="M98.879 92.23h6.176v-6.175h-6.176zm0 0" fill="#a9b3db" stroke-width=".03" stroke="#a9b3db"/><path d="M172.957 92.23h6.172v-6.175h-6.172zm0 0" fill="#7e97e1" stroke-width=".03" stroke="#7e97e1"/><path d="M185.3 92.23h6.173v-6.175H185.3zm0 0" fill="#ebdfd3" stroke-width=".03" stroke="#ebdfd3"/><path d="M191.473 92.23h6.175v-6.175h-6.175zm0 0" fill="#f0e2d2" stroke-width=".03" stroke="#f0e2d2"/><path d="M197.648 92.23h6.172v-6.175h-6.172zm0 0" fill="#f6e6d2" stroke-width=".03" stroke="#f6e6d2"/><path d="M37.152 86.055h6.172v-6.172h-6.172zm0 0" fill="#7792e2" stroke-width=".03" stroke="#7792e2"/><path d="M74.188 86.055h6.175v-6.172h-6.175zm0 0" fill="#f7e7d1" stroke-width=".03" stroke="#f7e7d1"/><path d="M80.363 86.055h6.172v-6.172h-6.172zm0 0" fill="#fccf8e" stroke-width=".03" stroke="#fccf8e"/><path d="M86.535 86.055h6.172v-6.172h-6.172zm0 0" fill="#bdc0d9" stroke-width=".03" stroke="#bdc0d9"/><path d="M123.57 86.055h6.176v-6.172h-6.176zm0 0" fill="#f7e7d1" stroke-width=".03" stroke="#f7e7d1"/><path d="M166.781 86.055h6.176v-6.172h-6.176zm0 0" fill="#7993e1" stroke-width=".03" stroke="#7993e1"/><path d="M172.957 86.055h6.172v-6.172h-6.172zm0 0M179.129 86.055h6.172v-6.172h-6.172zm0 0" fill="#f0e2d2" stroke-width=".03" stroke="#f0e2d2"/><path d="M30.98 79.883h6.172V73.71H30.98zm0 0" fill="#96a7de" stroke-width=".03" stroke="#96a7de"/><path d="M61.844 79.883h6.172V73.71h-6.172zm0 0" fill="#fae9d1" stroke-width=".03" stroke="#fae9d1"/><path d="M68.016 79.883h6.171V73.71h-6.171zm0 0" fill="#d0cdd6" stroke-width=".03" stroke="#d0cdd6"/><path d="M74.188 79.883h6.175V73.71h-6.175zm0 0" fill="#fde1b8" stroke-width=".03" stroke="#fde1b8"/><path d="M80.363 79.883h6.172V73.71h-6.172zm0 0" fill="#f7e7d1" stroke-width=".03" stroke="#f7e7d1"/><path d="M117.398 79.883h6.172V73.71h-6.172zm0 0" fill="#a7b2dc" stroke-width=".03" stroke="#a7b2dc"/><path d="M154.438 79.883h6.171V73.71h-6.172zm0 0" fill="#f3e4d2" stroke-width=".03" stroke="#f3e4d2"/><path d="M160.61 79.883h6.171V73.71h-6.172zm0 0" fill="#8fa2df" stroke-width=".03" stroke="#8fa2df"/><path d="M24.805 73.71h6.175v-6.17h-6.175zm0 0" fill="#f0e2d2" stroke-width=".03" stroke="#f0e2d2"/><path d="M30.98 73.71h6.172v-6.17H30.98zm0 0" fill="#f6e6d2" stroke-width=".03" stroke="#f6e6d2"/><path d="M55.672 73.71h6.172v-6.17h-6.172zm0 0" fill="#fae9d1" stroke-width=".03" stroke="#fae9d1"/><path d="M61.844 73.71h6.172v-6.17h-6.172zm0 0" fill="#bbbfd9" stroke-width=".03" stroke="#bbbfd9"/><path d="M68.016 73.71h6.171v-6.17h-6.171zm0 0" fill="#fcd69f" stroke-width=".03" stroke="#fcd69f"/><path d="M74.188 73.71h6.175v-6.17h-6.175zm0 0" fill="#d0cdd6" stroke-width=".03" stroke="#d0cdd6"/><path d="M111.227 73.71h6.171v-6.17h-6.171zm0 0" fill="#a7b2dc" stroke-width=".03" stroke="#a7b2dc"/><path d="M148.266 73.71h6.172v-6.17h-6.172zm0 0" fill="#dad3d5" stroke-width=".03" stroke="#dad3d5"/><path d="M154.438 73.71h6.171v-6.17h-6.172zm0 0" fill="#cac9d7" stroke-width=".03" stroke="#cac9d7"/><path d="M24.805 67.54h6.175v-6.177h-6.175zm0 0" fill="#e4dad4" stroke-width=".03" stroke="#e4dad4"/><path d="M49.496 67.54h6.176v-6.177h-6.176zm0 0" fill="#d7d2d5" stroke-width=".03" stroke="#d7d2d5"/><path d="M55.672 67.54h6.172v-6.177h-6.172zm0 0" fill="#d9d3d5" stroke-width=".03" stroke="#d9d3d5"/><path d="M61.844 67.54h6.172v-6.177h-6.172zm0 0" fill="#fde5c1" stroke-width=".03" stroke="#fde5c1"/><path d="M68.016 67.54h6.171v-6.177h-6.171zm0 0" fill="#bbbfd9" stroke-width=".03" stroke="#bbbfd9"/><path d="M74.188 67.54h6.175v-6.177h-6.175zm0 0" fill="#fae9d1" stroke-width=".03" stroke="#fae9d1"/><path d="M105.055 67.54h6.172v-6.177h-6.172zm0 0" fill="#a7b2dc" stroke-width=".03" stroke="#a7b2dc"/><path d="M135.918 67.54h6.172v-6.177h-6.172zm0 0" fill="#f7e7d1" stroke-width=".03" stroke="#f7e7d1"/><path d="M142.09 67.54h6.176v-6.177h-6.176zm0 0" fill="#a9b3db" stroke-width=".03" stroke="#a9b3db"/><path d="M24.805 61.363h6.175v-6.172h-6.175zm0 0" fill="#d9d3d5" stroke-width=".03" stroke="#d9d3d5"/><path d="M37.152 61.363h6.172v-6.172h-6.172zm0 0" fill="#f6e6d2" stroke-width=".03" stroke="#f6e6d2"/><path d="M43.324 61.363h6.172v-6.172h-6.172zm0 0" fill="#c9c8d7" stroke-width=".03" stroke="#c9c8d7"/><path d="M49.496 61.363h6.176v-6.172h-6.176zm0 0" fill="#f9e8d1" stroke-width=".03" stroke="#f9e8d1"/><path d="M55.672 61.363h6.172v-6.172h-6.172zm0 0" fill="#fcd296" stroke-width=".03" stroke="#fcd296"/><path d="M61.844 61.363h6.172v-6.172h-6.172zm0 0" fill="#d9d3d5" stroke-width=".03" stroke="#d9d3d5"/><path d="M68.016 61.363h6.171v-6.172h-6.171zm0 0" fill="#fae9d1" stroke-width=".03" stroke="#fae9d1"/><path d="M98.879 61.363h6.176v-6.172h-6.176zm0 0" fill="#9aa9dd" stroke-width=".03" stroke="#9aa9dd"/><path d="M123.57 61.363h6.176v-6.172h-6.176zm0 0" fill="#dad3d5" stroke-width=".03" stroke="#dad3d5"/><path d="M129.746 61.363h6.172v-6.172h-6.172zm0 0" fill="#e9ddd3" stroke-width=".03" stroke="#e9ddd3"/><path d="M135.918 61.363h6.172v-6.172h-6.172zm0 0" fill="#f3e4d2" stroke-width=".03" stroke="#f3e4d2"/><path d="M18.633 55.191h6.172V49.02h-6.172zm0 0" fill="#e4dad4" stroke-width=".03" stroke="#e4dad4"/><path d="M30.98 55.191h6.172V49.02H30.98zm0 0" fill="#93a5de" stroke-width=".03" stroke="#93a5de"/><path d="M43.324 55.191h6.172V49.02h-6.172zm0 0" fill="#ebdfd3" stroke-width=".03" stroke="#ebdfd3"/><path d="M49.496 55.191h6.176V49.02h-6.176zm0 0" fill="#fde5c1" stroke-width=".03" stroke="#fde5c1"/><path d="M55.672 55.191h6.172V49.02h-6.172zm0 0" fill="#f9e8d1" stroke-width=".03" stroke="#f9e8d1"/><path d="M61.844 55.191h6.172V49.02h-6.172zm0 0" fill="#d7d2d5" stroke-width=".03" stroke="#d7d2d5"/><path d="M92.707 55.191h6.172V49.02h-6.172zm0 0" fill="#8098e1" stroke-width=".03" stroke="#8098e1"/><path d="M111.227 55.191h6.171V49.02h-6.171zm0 0" fill="#f7e7d1" stroke-width=".03" stroke="#f7e7d1"/><path d="M117.398 55.191h6.172V49.02h-6.172zm0 0" fill="#a9b3db" stroke-width=".03" stroke="#a9b3db"/><path d="M18.633 49.02h6.172v-6.172h-6.172zm0 0" fill="#e4dad4" stroke-width=".03" stroke="#e4dad4"/><path d="M24.805 49.02h6.175v-6.172h-6.175zm0 0" fill="#8a9edf" stroke-width=".03" stroke="#8a9edf"/><path d="M37.152 49.02h6.172v-6.172h-6.172zm0 0" fill="#cbcad7" stroke-width=".03" stroke="#cbcad7"/><path d="M43.324 49.02h6.172v-6.172h-6.172zm0 0" fill="#fddeb0" stroke-width=".03" stroke="#fddeb0"/><path d="M49.496 49.02h6.176v-6.172h-6.176zm0 0" fill="#ebdfd3" stroke-width=".03" stroke="#ebdfd3"/><path d="M55.672 49.02h6.172v-6.172h-6.172zm0 0" fill="#c9c8d7" stroke-width=".03" stroke="#c9c8d7"/><path d="M86.535 49.02h6.172v-6.172h-6.172zm0 0" fill="#7d96e1" stroke-width=".03" stroke="#7d96e1"/><path d="M98.879 49.02h6.176v-6.172h-6.176zm0 0" fill="#e0d7d4" stroke-width=".03" stroke="#e0d7d4"/><path d="M105.055 49.02h6.172v-6.172h-6.172zm0 0" fill="#e9ddd3" stroke-width=".03" stroke="#e9ddd3"/><path d="M111.227 49.02h6.171v-6.172h-6.171zm0 0" fill="#f3e4d2" stroke-width=".03" stroke="#f3e4d2"/><path d="M18.633 42.848h6.172v-6.176h-6.172zm0 0" fill="#7993e1" stroke-width=".03" stroke="#7993e1"/><path d="M30.98 42.848h6.172v-6.176H30.98zm0 0" fill="#f9e8d1" stroke-width=".03" stroke="#f9e8d1"/><path d="M37.152 42.848h6.172v-6.176h-6.172zm0 0" fill="#fcce8c" stroke-width=".03" stroke="#fcce8c"/><path d="M43.324 42.848h6.172v-6.176h-6.172zm0 0" fill="#cbcad7" stroke-width=".03" stroke="#cbcad7"/><path d="M55.672 42.848h6.172v-6.176h-6.172zm0 0" fill="#f6e6d2" stroke-width=".03" stroke="#f6e6d2"/><path d="M80.363 42.848h6.172v-6.176h-6.172zm0 0" fill="#7792e2" stroke-width=".03" stroke="#7792e2"/><path d="M86.535 42.848h6.172v-6.176h-6.172zm0 0M92.707 42.848h6.172v-6.176h-6.172zm0 0" fill="#e9ddd3" stroke-width=".03" stroke="#e9ddd3"/><path d="M12.46 36.672h6.173V30.5H12.46zm0 0" fill="#dcd5d5" stroke-width=".03" stroke="#dcd5d5"/><path d="M24.805 36.672h6.175V30.5h-6.175zm0 0" fill="#ebdfd3" stroke-width=".03" stroke="#ebdfd3"/><path d="M30.98 36.672h6.172V30.5H30.98zm0 0" fill="#fccc88" stroke-width=".03" stroke="#fccc88"/><path d="M37.152 36.672h6.172V30.5h-6.172zm0 0" fill="#f9e8d1" stroke-width=".03" stroke="#f9e8d1"/><path d="M49.496 36.672h6.176V30.5h-6.176zm0 0" fill="#93a5de" stroke-width=".03" stroke="#93a5de"/><path d="M68.016 36.672h6.171V30.5h-6.171zm0 0" fill="#f6e6d2" stroke-width=".03" stroke="#f6e6d2"/><path d="M74.188 36.672h6.175V30.5h-6.175zm0 0" fill="#96a7de" stroke-width=".03" stroke="#96a7de"/><path d="M12.46 30.5h6.173v-6.172H12.46zm0 0" fill="#dcd5d5" stroke-width=".03" stroke="#dcd5d5"/><path d="M18.633 30.5h6.172v-6.172h-6.172zm0 0" fill="#c0c2d8" stroke-width=".03" stroke="#c0c2d8"/><path d="M24.805 30.5h6.175v-6.172h-6.175zm0 0" fill="#fbc87e" stroke-width=".03" stroke="#fbc87e"/><path d="M30.98 30.5h6.172v-6.172H30.98zm0 0" fill="#ebdfd3" stroke-width=".03" stroke="#ebdfd3"/><path d="M43.324 30.5h6.172v-6.172h-6.172zm0 0" fill="#8a9edf" stroke-width=".03" stroke="#8a9edf"/><path d="M55.672 30.5h6.172v-6.172h-6.172zm0 0" fill="#d9d3d5" stroke-width=".03" stroke="#d9d3d5"/><path d="M61.844 30.5h6.172v-6.172h-6.172zm0 0" fill="#e4dad4" stroke-width=".03" stroke="#e4dad4"/><path d="M68.016 30.5h6.171v-6.172h-6.171zm0 0" fill="#f0e2d2" stroke-width=".03" stroke="#f0e2d2"/><path d="M12.46 24.328h6.173v-6.172H12.46zm0 0" fill="#7c95e1" stroke-width=".03" stroke="#7c95e1"/><path d="M18.633 24.328h6.172v-6.172h-6.172zm0 0" fill="#fbc16f" stroke-width=".03" stroke="#fbc16f"/><path d="M24.805 24.328h6.175v-6.172h-6.175zm0 0" fill="#c0c2d8" stroke-width=".03" stroke="#c0c2d8"/><path d="M37.152 24.328h6.172v-6.172h-6.172zm0 0" fill="#7993e1" stroke-width=".03" stroke="#7993e1"/><path d="M43.324 24.328h6.172v-6.172h-6.172zm0 0M49.496 24.328h6.176v-6.172h-6.176zm0 0" fill="#e4dad4" stroke-width=".03" stroke="#e4dad4"/><path d="M12.46 18.156h6.173V11.98H12.46zm0 0" fill="#fab756" stroke-width=".03" stroke="#fab756"/><path d="M18.633 18.156h6.172V11.98h-6.172zm0 0" fill="#7c95e1" stroke-width=".03" stroke="#7c95e1"/><path d="M24.805 18.156h6.175V11.98h-6.175zm0 0M30.98 18.156h6.172V11.98H30.98zm0 0" fill="#dcd5d5" stroke-width=".03" stroke="#dcd5d5"/><path d="M598.5 597.543H.5M.5 597.543V.5M.5.5h598M598.5.5v597.043" fill="none" stroke-width=".5" stroke="#666"/></g></svg>