<svg xmlns="http://www.w3.org/2000/svg" width="800" height="599pt" viewBox="0 0 600 599"><g stroke-linecap="square" stroke-miterlimit="3.25"><path d="M322.281 586.063h9.114v-9.114h-9.114zm0 0" fill="#7f97e1" stroke-width=".03" stroke="#7f97e1"/><path d="M550.09 586.063h9.113v-9.114h-9.113zm0 0" fill="#f1e3d2" stroke-width=".03" stroke="#f1e3d2"/><path d="M568.316 586.063h9.11v-9.114h-9.11zm0 0" fill="#b8bdd9" stroke-width=".03" stroke="#b8bdd9"/><path d="M577.426 586.063h9.113v-9.114h-9.113zm0 0" fill="#f89c17" stroke-width=".03" stroke="#f89c17"/><path d="M313.168 576.95h9.113v-9.114h-9.113zm0 0" fill="#adb5db" stroke-width=".03" stroke="#adb5db"/><path d="M540.977 576.95h9.113v-9.114h-9.113zm0 0" fill="#e1d8d4" stroke-width=".03" stroke="#e1d8d4"/><path d="M550.09 576.95h9.113v-9.114h-9.113zm0 0" fill="#e9ddd3" stroke-width=".03" stroke="#e9ddd3"/><path d="M559.203 576.95h9.113v-9.114h-9.113zm0 0" fill="#b8bdd9" stroke-width=".03" stroke="#b8bdd9"/><path d="M568.316 576.95h9.11v-9.114h-9.11zm0 0" fill="#fddaa8" stroke-width=".03" stroke="#fddaa8"/><path d="M577.426 576.95h9.113v-9.114h-9.113zm0 0" fill="#b8bdd9" stroke-width=".03" stroke="#b8bdd9"/><path d="M304.055 567.836h9.113v-9.113h-9.113zm0 0" fill="#f1e3d2" stroke-width=".03" stroke="#f1e3d2"/><path d="M531.867 567.836h9.11v-9.113h-9.11zm0 0" fill="#cfcdd6" stroke-width=".03" stroke="#cfcdd6"/><path d="M540.977 567.836h9.113v-9.113h-9.113zm0 0" fill="#d6d1d6" stroke-width=".03" stroke="#d6d1d6"/><path d="M559.203 567.836h9.113v-9.113h-9.113zm0 0" fill="#f89c17" stroke-width=".03" stroke="#f89c17"/><path d="M568.316 567.836h9.11v-9.113h-9.11zm0 0" fill="#b8bdd9" stroke-width=".03" stroke="#b8bdd9"/><path d="M294.945 558.723h9.11v-9.11h-9.11zm0 0" fill="#e1d8d4" stroke-width=".03" stroke="#e1d8d4"/><path d="M304.055 558.723h9.113v-9.11h-9.113zm0 0" fill="#d6d1d6" stroke-width=".03" stroke="#d6d1d6"/><path d="M477.191 558.723h9.114v-9.11h-9.114zm0 0M486.305 558.723h9.113v-9.11h-9.113zm0 0" fill="#f1e3d2" stroke-width=".03" stroke="#f1e3d2"/><path d="M531.867 558.723h9.11v-9.11h-9.11zm0 0" fill="#e9ddd3" stroke-width=".03" stroke="#e9ddd3"/><path d="M540.977 558.723h9.113v-9.11h-9.113zm0 0" fill="#c5c5d8" stroke-width=".03" stroke="#c5c5d8"/><path d="M550.09 558.723h9.113v-9.11h-9.113zm0 0" fill="#fbc576" stroke-width=".03" stroke="#fbc576"/><path d="M568.316 558.723h9.11v-9.11h-9.11zm0 0" fill="#e9ddd3" stroke-width=".03" stroke="#e9ddd3"/><path d="M577.426 558.723h9.113v-9.11h-9.113zm0 0M285.832 549.613h9.113V540.5h-9.113zm0 0" fill="#f1e3d2" stroke-width=".03" stroke="#f1e3d2"/><path d="M294.945 549.613h9.11V540.5h-9.11zm0 0" fill="#e9ddd3" stroke-width=".03" stroke="#e9ddd3"/><path d="M468.078 549.613h9.113V540.5h-9.113zm0 0M477.191 549.613h9.114V540.5h-9.114zm0 0" fill="#f1e3d2" stroke-width=".03" stroke="#f1e3d2"/><path d="M522.754 549.613h9.113V540.5h-9.113zm0 0" fill="#7490e2" stroke-width=".03" stroke="#7490e2"/><path d="M531.867 549.613h9.11V540.5h-9.11zm0 0" fill="#d6d1d6" stroke-width=".03" stroke="#d6d1d6"/><path d="M540.977 549.613h9.113V540.5h-9.113zm0 0" fill="#fee9ca" stroke-width=".03" stroke="#fee9ca"/><path d="M550.09 549.613h9.113V540.5h-9.113zm0 0" fill="#c5c5d8" stroke-width=".03" stroke="#c5c5d8"/><path d="M559.203 549.613h9.113V540.5h-9.113zm0 0" fill="#d6d1d6" stroke-width=".03" stroke="#d6d1d6"/><path d="M568.316 549.613h9.11V540.5h-9.11zm0 0M285.832 540.5h9.113v-9.113h-9.113zm0 0" fill="#e1d8d4" stroke-width=".03" stroke="#e1d8d4"/><path d="M458.965 540.5h9.113v-9.113h-9.113zm0 0" fill="#e9ddd3" stroke-width=".03" stroke="#e9ddd3"/><path d="M468.078 540.5h9.113v-9.113h-9.113zm0 0" fill="#f1e3d2" stroke-width=".03" stroke="#f1e3d2"/><path d="M513.64 540.5h9.114v-9.113h-9.113zm0 0" fill="#b8bdd9" stroke-width=".03" stroke="#b8bdd9"/><path d="M522.754 540.5h9.113v-9.113h-9.113zm0 0" fill="#e1d8d4" stroke-width=".03" stroke="#e1d8d4"/><path d="M531.867 540.5h9.11v-9.113h-9.11zm0 0" fill="#f9a42b" stroke-width=".03" stroke="#f9a42b"/><path d="M540.977 540.5h9.113v-9.113h-9.113zm0 0" fill="#d6d1d6" stroke-width=".03" stroke="#d6d1d6"/><path d="M550.09 540.5h9.113v-9.113h-9.113zm0 0" fill="#e9ddd3" stroke-width=".03" stroke="#e9ddd3"/><path d="M559.203 540.5h9.113v-9.113h-9.113zm0 0" fill="#cfcdd6" stroke-width=".03" stroke="#cfcdd6"/><path d="M276.719 531.387h9.113v-9.114h-9.113zm0 0" fill="#c9c9d7" stroke-width=".03" stroke="#c9c9d7"/><path d="M449.855 531.387h9.11v-9.114h-9.11zm0 0" fill="#e9ddd3" stroke-width=".03" stroke="#e9ddd3"/><path d="M458.965 531.387h9.113v-9.114h-9.113zm0 0" fill="#e9ddd3" stroke-width=".03" stroke="#e9ddd3"/><path d="M504.527 531.387h9.114v-9.114h-9.114zm0 0" fill="#c5c5d8" stroke-width=".03" stroke="#c5c5d8"/><path d="M513.64 531.387h9.114v-9.114h-9.113zm0 0" fill="#9cabdd" stroke-width=".03" stroke="#9cabdd"/><path d="M531.867 531.387h9.11v-9.114h-9.11zm0 0" fill="#e1d8d4" stroke-width=".03" stroke="#e1d8d4"/><path d="M540.977 531.387h9.113v-9.114h-9.113zm0 0" fill="#7490e2" stroke-width=".03" stroke="#7490e2"/><path d="M267.605 522.273h9.114v-9.109h-9.114zm0 0" fill="#e9ddd3" stroke-width=".03" stroke="#e9ddd3"/><path d="M440.742 522.273h9.113v-9.109h-9.113zm0 0" fill="#e1d8d4" stroke-width=".03" stroke="#e1d8d4"/><path d="M449.855 522.273h9.11v-9.109h-9.11zm0 0" fill="#e9ddd3" stroke-width=".03" stroke="#e9ddd3"/><path d="M504.527 522.273h9.114v-9.109h-9.114zm0 0" fill="#7993e1" stroke-width=".03" stroke="#7993e1"/><path d="M513.64 522.273h9.114v-9.109h-9.113zm0 0" fill="#fab149" stroke-width=".03" stroke="#fab149"/><path d="M522.754 522.273h9.113v-9.109h-9.113zm0 0" fill="#9cabdd" stroke-width=".03" stroke="#9cabdd"/><path d="M531.867 522.273h9.11v-9.109h-9.11zm0 0" fill="#b8bdd9" stroke-width=".03" stroke="#b8bdd9"/><path d="M267.605 513.164h9.114v-9.113h-9.114zm0 0" fill="#f1e3d2" stroke-width=".03" stroke="#f1e3d2"/><path d="M431.629 513.164h9.113v-9.113h-9.113zm0 0M440.742 513.164h9.113v-9.113h-9.113zm0 0" fill="#e1d8d4" stroke-width=".03" stroke="#e1d8d4"/><path d="M495.418 513.164h9.11v-9.113h-9.11zm0 0" fill="#6d8be3" stroke-width=".03" stroke="#6d8be3"/><path d="M504.527 513.164h9.114v-9.113h-9.114zm0 0" fill="#fbca83" stroke-width=".03" stroke="#fbca83"/><path d="M513.64 513.164h9.114v-9.113h-9.113zm0 0" fill="#7993e1" stroke-width=".03" stroke="#7993e1"/><path d="M522.754 513.164h9.113v-9.113h-9.113zm0 0" fill="#c5c5d8" stroke-width=".03" stroke="#c5c5d8"/><path d="M258.496 504.05h9.11v-9.112h-9.11zm0 0" fill="#f1e3d2" stroke-width=".03" stroke="#f1e3d2"/><path d="M422.516 504.05h9.113v-9.112h-9.113zm0 0M431.629 504.05h9.113v-9.112h-9.113zm0 0" fill="#d6d1d6" stroke-width=".03" stroke="#d6d1d6"/><path d="M486.305 504.05h9.113v-9.112h-9.113zm0 0" fill="#cfcdd6" stroke-width=".03" stroke="#cfcdd6"/><path d="M495.418 504.05h9.11v-9.112h-9.11zm0 0" fill="#f9a42b" stroke-width=".03" stroke="#f9a42b"/><path d="M504.527 504.05h9.114v-9.112h-9.114zm0 0" fill="#6d8be3" stroke-width=".03" stroke="#6d8be3"/><path d="M258.496 494.938h9.11v-9.114h-9.11zm0 0" fill="#d6d1d6" stroke-width=".03" stroke="#d6d1d6"/><path d="M322.281 494.938h9.114v-9.114h-9.114zm0 0" fill="#f1e3d2" stroke-width=".03" stroke="#f1e3d2"/><path d="M422.516 494.938h9.113v-9.114h-9.113zm0 0" fill="#cfcdd6" stroke-width=".03" stroke="#cfcdd6"/><path d="M477.191 494.938h9.114v-9.114h-9.114zm0 0" fill="#d6d1d6" stroke-width=".03" stroke="#d6d1d6"/><path d="M486.305 494.938h9.113v-9.114h-9.113zm0 0" fill="#c67c10" stroke-width=".03" stroke="#c67c10"/><path d="M495.418 494.938h9.11v-9.114h-9.11zm0 0" fill="#cfcdd6" stroke-width=".03" stroke="#cfcdd6"/><path d="M550.09 494.938h9.113v-9.114h-9.113zm0 0" fill="#f1e3d2" stroke-width=".03" stroke="#f1e3d2"/><path d="M249.383 485.824h9.113v-9.11h-9.113zm0 0" fill="#adb5db" stroke-width=".03" stroke="#adb5db"/><path d="M313.168 485.824h9.113v-9.11h-9.113zm0 0M322.281 485.824h9.114v-9.11h-9.114zm0 0" fill="#f1e3d2" stroke-width=".03" stroke="#f1e3d2"/><path d="M458.965 485.824h9.113v-9.11h-9.113zm0 0" fill="#c9c9d7" stroke-width=".03" stroke="#c9c9d7"/><path d="M468.078 485.824h9.113v-9.11h-9.113zm0 0" fill="#c5c5d8" stroke-width=".03" stroke="#c5c5d8"/><path d="M477.191 485.824h9.114v-9.11h-9.114zm0 0" fill="#fee9ca" stroke-width=".03" stroke="#fee9ca"/><path d="M486.305 485.824h9.113v-9.11h-9.113zm0 0" fill="#d6d1d6" stroke-width=".03" stroke="#d6d1d6"/><path d="M540.977 485.824h9.113v-9.11h-9.113zm0 0M550.09 485.824h9.113v-9.11h-9.113zm0 0M240.27 476.715h9.113v-9.113h-9.113zm0 0M304.055 476.715h9.113v-9.113h-9.113zm0 0M313.168 476.715h9.113v-9.113h-9.113zm0 0" fill="#f1e3d2" stroke-width=".03" stroke="#f1e3d2"/><path d="M449.855 476.715h9.11v-9.113h-9.11zm0 0" fill="#96a6de" stroke-width=".03" stroke="#96a6de"/><path d="M468.078 476.715h9.113v-9.113h-9.113zm0 0" fill="#fbc576" stroke-width=".03" stroke="#fbc576"/><path d="M477.191 476.715h9.114v-9.113h-9.114zm0 0" fill="#c5c5d8" stroke-width=".03" stroke="#c5c5d8"/><path d="M531.867 476.715h9.11v-9.113h-9.11zm0 0" fill="#f1e3d2" stroke-width=".03" stroke="#f1e3d2"/><path d="M540.977 476.715h9.113v-9.113h-9.113zm0 0" fill="#f1e3d2" stroke-width=".03" stroke="#f1e3d2"/><path d="M231.156 467.602h9.114v-9.114h-9.114zm0 0" fill="#e9ddd3" stroke-width=".03" stroke="#e9ddd3"/><path d="M240.27 467.602h9.113v-9.114h-9.113zm0 0" fill="#e1d8d4" stroke-width=".03" stroke="#e1d8d4"/><path d="M294.945 467.602h9.11v-9.114h-9.11zm0 0M304.055 467.602h9.113v-9.114h-9.113zm0 0" fill="#f1e3d2" stroke-width=".03" stroke="#f1e3d2"/><path d="M413.406 467.602h9.11v-9.114h-9.11zm0 0" fill="#b8bdd9" stroke-width=".03" stroke="#b8bdd9"/><path d="M440.742 467.602h9.113v-9.114h-9.113zm0 0" fill="#e9ddd3" stroke-width=".03" stroke="#e9ddd3"/><path d="M449.855 467.602h9.11v-9.114h-9.11zm0 0" fill="#d6d1d6" stroke-width=".03" stroke="#d6d1d6"/><path d="M458.965 467.602h9.113v-9.114h-9.113zm0 0" fill="#fde3bc" stroke-width=".03" stroke="#fde3bc"/><path d="M477.191 467.602h9.114v-9.114h-9.114zm0 0" fill="#c9c9d7" stroke-width=".03" stroke="#c9c9d7"/><path d="M522.754 467.602h9.113v-9.114h-9.113zm0 0M531.867 467.602h9.11v-9.114h-9.11zm0 0" fill="#e9ddd3" stroke-width=".03" stroke="#e9ddd3"/><path d="M231.156 458.488h9.114v-9.113h-9.114zm0 0M285.832 458.488h9.113v-9.113h-9.113zm0 0M294.945 458.488h9.11v-9.113h-9.11zm0 0" fill="#f1e3d2" stroke-width=".03" stroke="#f1e3d2"/><path d="M404.293 458.488h9.113v-9.113h-9.113zm0 0" fill="#b8bdd9" stroke-width=".03" stroke="#b8bdd9"/><path d="M431.629 458.488h9.113v-9.113h-9.113zm0 0" fill="#c5c5d8" stroke-width=".03" stroke="#c5c5d8"/><path d="M440.742 458.488h9.113v-9.113h-9.113zm0 0" fill="#d6d1d6" stroke-width=".03" stroke="#d6d1d6"/><path d="M449.855 458.488h9.11v-9.113h-9.11zm0 0" fill="#fde3bc" stroke-width=".03" stroke="#fde3bc"/><path d="M458.965 458.488h9.113v-9.113h-9.113zm0 0" fill="#d6d1d6" stroke-width=".03" stroke="#d6d1d6"/><path d="M468.078 458.488h9.113v-9.113h-9.113zm0 0" fill="#96a6de" stroke-width=".03" stroke="#96a6de"/><path d="M513.64 458.488h9.114v-9.113h-9.113zm0 0" fill="#e9ddd3" stroke-width=".03" stroke="#e9ddd3"/><path d="M522.754 458.488h9.113v-9.113h-9.113zm0 0" fill="#e9ddd3" stroke-width=".03" stroke="#e9ddd3"/><path d="M222.043 449.375h9.113v-9.113h-9.113zm0 0" fill="#c9c9d7" stroke-width=".03" stroke="#c9c9d7"/><path d="M276.719 449.375h9.113v-9.113h-9.113zm0 0M285.832 449.375h9.113v-9.113h-9.113zm0 0" fill="#f1e3d2" stroke-width=".03" stroke="#f1e3d2"/><path d="M395.18 449.375h9.113v-9.113h-9.113zm0 0" fill="#8a9fdf" stroke-width=".03" stroke="#8a9fdf"/><path d="M431.629 449.375h9.113v-9.113h-9.113zm0 0" fill="#adb5db" stroke-width=".03" stroke="#adb5db"/><path d="M440.742 449.375h9.113v-9.113h-9.113zm0 0" fill="#fee6c5" stroke-width=".03" stroke="#fee6c5"/><path d="M449.855 449.375h9.11v-9.113h-9.11zm0 0" fill="#d6d1d6" stroke-width=".03" stroke="#d6d1d6"/><path d="M458.965 449.375h9.113v-9.113h-9.113zm0 0" fill="#e9ddd3" stroke-width=".03" stroke="#e9ddd3"/><path d="M504.527 449.375h9.114v-9.113h-9.114zm0 0" fill="#e1d8d4" stroke-width=".03" stroke="#e1d8d4"/><path d="M513.64 449.375h9.114v-9.113h-9.113zm0 0" fill="#e1d8d4" stroke-width=".03" stroke="#e1d8d4"/><path d="M212.934 440.262h9.109v-9.11h-9.11zm0 0M267.605 440.262h9.114v-9.11h-9.114zm0 0M276.719 440.262h9.113v-9.11h-9.113zm0 0" fill="#f1e3d2" stroke-width=".03" stroke="#f1e3d2"/><path d="M386.066 440.262h9.114v-9.11h-9.114zm0 0" fill="#7490e2" stroke-width=".03" stroke="#7490e2"/><path d="M422.516 440.262h9.113v-9.11h-9.113zm0 0" fill="#a1aedc" stroke-width=".03" stroke="#a1aedc"/><path d="M431.629 440.262h9.113v-9.11h-9.113zm0 0" fill="#fbc576" stroke-width=".03" stroke="#fbc576"/><path d="M440.742 440.262h9.113v-9.11h-9.113zm0 0" fill="#adb5db" stroke-width=".03" stroke="#adb5db"/><path d="M449.855 440.262h9.11v-9.11h-9.11zm0 0" fill="#c5c5d8" stroke-width=".03" stroke="#c5c5d8"/><path d="M495.418 440.262h9.11v-9.11h-9.11zm0 0" fill="#d6d1d6" stroke-width=".03" stroke="#d6d1d6"/><path d="M504.527 440.262h9.114v-9.11h-9.114zm0 0" fill="#e1d8d4" stroke-width=".03" stroke="#e1d8d4"/><path d="M258.496 431.152h9.11v-9.113h-9.11zm0 0" fill="#f1e3d2" stroke-width=".03" stroke="#f1e3d2"/><path d="M267.605 431.152h9.114v-9.113h-9.114zm0 0" fill="#f1e3d2" stroke-width=".03" stroke="#f1e3d2"/><path d="M376.957 431.152h9.11v-9.113h-9.11zm0 0" fill="#5b80e5" stroke-width=".03" stroke="#5b80e5"/><path d="M422.516 431.152h9.113v-9.113h-9.113zm0 0" fill="#fbc576" stroke-width=".03" stroke="#fbc576"/><path d="M431.629 431.152h9.113v-9.113h-9.113zm0 0" fill="#a1aedc" stroke-width=".03" stroke="#a1aedc"/><path d="M486.305 431.152h9.113v-9.113h-9.113zm0 0" fill="#cfcdd6" stroke-width=".03" stroke="#cfcdd6"/><path d="M495.418 431.152h9.11v-9.113h-9.11zm0 0" fill="#d6d1d6" stroke-width=".03" stroke="#d6d1d6"/><path d="M203.82 422.04h9.114v-9.114h-9.114zm0 0" fill="#e9ddd3" stroke-width=".03" stroke="#e9ddd3"/><path d="M212.934 422.04h9.109v-9.114h-9.11zm0 0" fill="#e1d8d4" stroke-width=".03" stroke="#e1d8d4"/><path d="M249.383 422.04h9.113v-9.114h-9.113zm0 0M258.496 422.04h9.11v-9.114h-9.11zm0 0" fill="#e9ddd3" stroke-width=".03" stroke="#e9ddd3"/><path d="M395.18 422.04h9.113v-9.114h-9.113zm0 0" fill="#f1e3d2" stroke-width=".03" stroke="#f1e3d2"/><path d="M404.293 422.04h9.113v-9.114h-9.113zm0 0" fill="#d6d1d6" stroke-width=".03" stroke="#d6d1d6"/><path d="M413.406 422.04h9.11v-9.114h-9.11zm0 0" fill="#fcd69e" stroke-width=".03" stroke="#fcd69e"/><path d="M458.965 422.04h9.113v-9.114h-9.113zm0 0" fill="#b8bdd9" stroke-width=".03" stroke="#b8bdd9"/><path d="M203.82 412.926h9.114v-9.113h-9.114zm0 0" fill="#f1e3d2" stroke-width=".03" stroke="#f1e3d2"/><path d="M240.27 412.926h9.113v-9.113h-9.113zm0 0" fill="#e9ddd3" stroke-width=".03" stroke="#e9ddd3"/><path d="M249.383 412.926h9.113v-9.113h-9.113zm0 0" fill="#e9ddd3" stroke-width=".03" stroke="#e9ddd3"/><path d="M386.066 412.926h9.114v-9.113h-9.114zm0 0" fill="#e1d8d4" stroke-width=".03" stroke="#e1d8d4"/><path d="M395.18 412.926h9.113v-9.113h-9.113zm0 0" fill="#e9ddd3" stroke-width=".03" stroke="#e9ddd3"/><path d="M404.293 412.926h9.113v-9.113h-9.113zm0 0" fill="#fcd69e" stroke-width=".03" stroke="#fcd69e"/><path d="M413.406 412.926h9.11v-9.113h-9.11zm0 0" fill="#d6d1d6" stroke-width=".03" stroke="#d6d1d6"/><path d="M449.855 412.926h9.11v-9.113h-9.11zm0 0" fill="#b8bdd9" stroke-width=".03" stroke="#b8bdd9"/><path d="M194.707 403.813h9.113v-9.11h-9.113zm0 0" fill="#c9c9d7" stroke-width=".03" stroke="#c9c9d7"/><path d="M231.156 403.813h9.114v-9.11h-9.114zm0 0M240.27 403.813h9.113v-9.11h-9.113zm0 0" fill="#e9ddd3" stroke-width=".03" stroke="#e9ddd3"/><path d="M367.844 403.813h9.113v-9.11h-9.113zm0 0" fill="#9cabdd" stroke-width=".03" stroke="#9cabdd"/><path d="M386.066 403.813h9.114v-9.11h-9.114zm0 0" fill="#b8bdd9" stroke-width=".03" stroke="#b8bdd9"/><path d="M395.18 403.813h9.113v-9.11h-9.113zm0 0" fill="#fee6c5" stroke-width=".03" stroke="#fee6c5"/><path d="M404.293 403.813h9.113v-9.11h-9.113zm0 0" fill="#e9ddd3" stroke-width=".03" stroke="#e9ddd3"/><path d="M413.406 403.813h9.11v-9.11h-9.11zm0 0" fill="#f1e3d2" stroke-width=".03" stroke="#f1e3d2"/><path d="M440.742 403.813h9.113v-9.11h-9.113zm0 0" fill="#8a9fdf" stroke-width=".03" stroke="#8a9fdf"/><path d="M185.594 394.703h9.113v-9.113h-9.113zm0 0" fill="#f1e3d2" stroke-width=".03" stroke="#f1e3d2"/><path d="M222.043 394.703h9.113v-9.113h-9.113zm0 0M231.156 394.703h9.114v-9.113h-9.114zm0 0" fill="#e9ddd3" stroke-width=".03" stroke="#e9ddd3"/><path d="M358.73 394.703h9.114v-9.113h-9.114zm0 0" fill="#849be0" stroke-width=".03" stroke="#849be0"/><path d="M376.957 394.703h9.11v-9.113h-9.11zm0 0" fill="#b2b9da" stroke-width=".03" stroke="#b2b9da"/><path d="M386.066 394.703h9.114v-9.113h-9.114zm0 0" fill="#fccd8a" stroke-width=".03" stroke="#fccd8a"/><path d="M395.18 394.703h9.113v-9.113h-9.113zm0 0" fill="#b8bdd9" stroke-width=".03" stroke="#b8bdd9"/><path d="M404.293 394.703h9.113v-9.113h-9.113zm0 0" fill="#e1d8d4" stroke-width=".03" stroke="#e1d8d4"/><path d="M431.629 394.703h9.113v-9.113h-9.113zm0 0" fill="#7490e2" stroke-width=".03" stroke="#7490e2"/><path d="M212.934 385.59h9.109v-9.113h-9.11zm0 0M222.043 385.59h9.113v-9.113h-9.113zm0 0" fill="#e9ddd3" stroke-width=".03" stroke="#e9ddd3"/><path d="M349.617 385.59h9.113v-9.113h-9.113zm0 0" fill="#567be2" stroke-width=".03" stroke="#567be2"/><path d="M376.957 385.59h9.11v-9.113h-9.11zm0 0" fill="#fcd69e" stroke-width=".03" stroke="#fcd69e"/><path d="M386.066 385.59h9.114v-9.113h-9.114zm0 0" fill="#b2b9da" stroke-width=".03" stroke="#b2b9da"/><path d="M422.516 385.59h9.113v-9.113h-9.113zm0 0" fill="#5b80e5" stroke-width=".03" stroke="#5b80e5"/><path d="M176.484 376.477h9.11v-9.114h-9.11zm0 0" fill="#f1e3d2" stroke-width=".03" stroke="#f1e3d2"/><path d="M185.594 376.477h9.113v-9.114h-9.113zm0 0" fill="#e9ddd3" stroke-width=".03" stroke="#e9ddd3"/><path d="M203.82 376.477h9.114v-9.114h-9.114zm0 0" fill="#e1d8d4" stroke-width=".03" stroke="#e1d8d4"/><path d="M212.934 376.477h9.109v-9.114h-9.11zm0 0" fill="#e1d8d4" stroke-width=".03" stroke="#e1d8d4"/><path d="M358.73 376.477h9.114v-9.114h-9.114zm0 0" fill="#c9c9d7" stroke-width=".03" stroke="#c9c9d7"/><path d="M367.844 376.477h9.113v-9.114h-9.113zm0 0" fill="#fbca83" stroke-width=".03" stroke="#fbca83"/><path d="M395.18 376.477h9.113v-9.114h-9.113zm0 0" fill="#9cabdd" stroke-width=".03" stroke="#9cabdd"/><path d="M176.484 367.363h9.11v-9.11h-9.11zm0 0" fill="#f1e3d2" stroke-width=".03" stroke="#f1e3d2"/><path d="M194.707 367.363h9.113v-9.11h-9.113zm0 0M203.82 367.363h9.114v-9.11h-9.114zm0 0" fill="#e1d8d4" stroke-width=".03" stroke="#e1d8d4"/><path d="M340.504 367.363h9.113v-9.11h-9.113zm0 0" fill="#d6d1d6" stroke-width=".03" stroke="#d6d1d6"/><path d="M349.617 367.363h9.113v-9.11h-9.113zm0 0" fill="#c9c9d7" stroke-width=".03" stroke="#c9c9d7"/><path d="M358.73 367.363h9.114v-9.11h-9.114zm0 0" fill="#fab858" stroke-width=".03" stroke="#fab858"/><path d="M367.844 367.363h9.113v-9.11h-9.113zm0 0" fill="#c9c9d7" stroke-width=".03" stroke="#c9c9d7"/><path d="M386.066 367.363h9.114v-9.11h-9.114zm0 0" fill="#849be0" stroke-width=".03" stroke="#849be0"/><path d="M185.594 358.254h9.113v-9.113h-9.113zm0 0M194.707 358.254h9.113v-9.113h-9.113zm0 0" fill="#e1d8d4" stroke-width=".03" stroke="#e1d8d4"/><path d="M331.395 358.254h9.109v-9.113h-9.11zm0 0" fill="#b8bdd9" stroke-width=".03" stroke="#b8bdd9"/><path d="M340.504 358.254h9.113v-9.113h-9.113zm0 0" fill="#d6d1d6" stroke-width=".03" stroke="#d6d1d6"/><path d="M349.617 358.254h9.113v-9.113h-9.113zm0 0" fill="#fbca83" stroke-width=".03" stroke="#fbca83"/><path d="M358.73 358.254h9.114v-9.113h-9.114zm0 0" fill="#c9c9d7" stroke-width=".03" stroke="#c9c9d7"/><path d="M376.957 358.254h9.11v-9.113h-9.11zm0 0" fill="#567be2" stroke-width=".03" stroke="#567be2"/><path d="M167.371 349.14h9.113v-9.113h-9.113zm0 0" fill="#f1e3d2" stroke-width=".03" stroke="#f1e3d2"/><path d="M176.484 349.14h9.11v-9.113h-9.11zm0 0M185.594 349.14h9.113v-9.113h-9.113zm0 0" fill="#d6d1d6" stroke-width=".03" stroke="#d6d1d6"/><path d="M331.395 349.14h9.109v-9.113h-9.11zm0 0" fill="#f1e3d2" stroke-width=".03" stroke="#f1e3d2"/><path d="M340.504 349.14h9.113v-9.113h-9.113zm0 0" fill="#f9a42b" stroke-width=".03" stroke="#f9a42b"/><path d="M349.617 349.14h9.113v-9.113h-9.113zm0 0M358.73 349.14h9.114v-9.113h-9.114zm0 0" fill="#d6d1d6" stroke-width=".03" stroke="#d6d1d6"/><path d="M167.371 340.027h9.113v-9.113h-9.113zm0 0" fill="#cfcdd6" stroke-width=".03" stroke="#cfcdd6"/><path d="M176.484 340.027h9.11v-9.113h-9.11zm0 0" fill="#d6d1d6" stroke-width=".03" stroke="#d6d1d6"/><path d="M331.395 340.027h9.109v-9.113h-9.11zm0 0" fill="#f89c17" stroke-width=".03" stroke="#f89c17"/><path d="M340.504 340.027h9.113v-9.113h-9.113zm0 0" fill="#f1e3d2" stroke-width=".03" stroke="#f1e3d2"/><path d="M349.617 340.027h9.113v-9.113h-9.113zm0 0" fill="#b8bdd9" stroke-width=".03" stroke="#b8bdd9"/><path d="M158.258 330.914h9.113v-9.113h-9.113zm0 0" fill="#c5c5d8" stroke-width=".03" stroke="#c5c5d8"/><path d="M167.371 330.914h9.113v-9.113h-9.113zm0 0" fill="#b8bdd9" stroke-width=".03" stroke="#b8bdd9"/><path d="M304.055 330.914h9.113v-9.113h-9.113zm0 0" fill="#f1e3d2" stroke-width=".03" stroke="#f1e3d2"/><path d="M313.168 330.914h9.113v-9.113h-9.113zm0 0" fill="#c5c5d8" stroke-width=".03" stroke="#c5c5d8"/><path d="M322.281 330.914h9.114v-9.113h-9.114zm0 0" fill="#fbc576" stroke-width=".03" stroke="#fbc576"/><path d="M477.191 330.914h9.114v-9.113h-9.114zm0 0M486.305 330.914h9.113v-9.113h-9.113zm0 0" fill="#f1e3d2" stroke-width=".03" stroke="#f1e3d2"/><path d="M577.426 330.914h9.113v-9.113h-9.113zm0 0" fill="#7f97e1" stroke-width=".03" stroke="#7f97e1"/><path d="M149.145 321.8h9.113v-9.109h-9.113zm0 0" fill="#e9ddd3" stroke-width=".03" stroke="#e9ddd3"/><path d="M158.258 321.8h9.113v-9.109h-9.113zm0 0" fill="#d6d1d6" stroke-width=".03" stroke="#d6d1d6"/><path d="M294.945 321.8h9.11v-9.109h-9.11zm0 0" fill="#adb5db" stroke-width=".03" stroke="#adb5db"/><path d="M304.055 321.8h9.113v-9.109h-9.113zm0 0" fill="#d6d1d6" stroke-width=".03" stroke="#d6d1d6"/><path d="M313.168 321.8h9.113v-9.109h-9.113zm0 0" fill="#fee9ca" stroke-width=".03" stroke="#fee9ca"/><path d="M322.281 321.8h9.114v-9.109h-9.114zm0 0" fill="#c5c5d8" stroke-width=".03" stroke="#c5c5d8"/><path d="M468.078 321.8h9.113v-9.109h-9.113zm0 0M477.191 321.8h9.114v-9.109h-9.114zm0 0" fill="#f1e3d2" stroke-width=".03" stroke="#f1e3d2"/><path d="M568.316 321.8h9.11v-9.109h-9.11zm0 0" fill="#adb5db" stroke-width=".03" stroke="#adb5db"/><path d="M149.145 312.691h9.113v-9.113h-9.113zm0 0" fill="#c5c5d8" stroke-width=".03" stroke="#c5c5d8"/><path d="M258.496 312.691h9.11v-9.113h-9.11zm0 0" fill="#f1e3d2" stroke-width=".03" stroke="#f1e3d2"/><path d="M285.832 312.691h9.113v-9.113h-9.113zm0 0" fill="#d6d1d6" stroke-width=".03" stroke="#d6d1d6"/><path d="M294.945 312.691h9.11v-9.113h-9.11zm0 0" fill="#e1d8d4" stroke-width=".03" stroke="#e1d8d4"/><path d="M304.055 312.691h9.113v-9.113h-9.113zm0 0" fill="#f9ab3a" stroke-width=".03" stroke="#f9ab3a"/><path d="M313.168 312.691h9.113v-9.113h-9.113zm0 0" fill="#d6d1d6" stroke-width=".03" stroke="#d6d1d6"/><path d="M322.281 312.691h9.114v-9.113h-9.114zm0 0M458.965 312.691h9.113v-9.113h-9.113zm0 0M468.078 312.691h9.113v-9.113h-9.113zm0 0" fill="#f1e3d2" stroke-width=".03" stroke="#f1e3d2"/><path d="M550.09 312.691h9.113v-9.113h-9.113zm0 0" fill="#d6d1d6" stroke-width=".03" stroke="#d6d1d6"/><path d="M559.203 312.691h9.113v-9.113h-9.113zm0 0" fill="#f1e3d2" stroke-width=".03" stroke="#f1e3d2"/><path d="M140.035 303.578h9.11v-9.113h-9.11zm0 0" fill="#a6b1dc" stroke-width=".03" stroke="#a6b1dc"/><path d="M249.383 303.578h9.113v-9.113h-9.113zm0 0M276.719 303.578h9.113v-9.113h-9.113zm0 0" fill="#d6d1d6" stroke-width=".03" stroke="#d6d1d6"/><path d="M285.832 303.578h9.113v-9.113h-9.113zm0 0" fill="#adb5db" stroke-width=".03" stroke="#adb5db"/><path d="M294.945 303.578h9.11v-9.113h-9.11zm0 0" fill="#d6d1d6" stroke-width=".03" stroke="#d6d1d6"/><path d="M304.055 303.578h9.113v-9.113h-9.113zm0 0" fill="#e1d8d4" stroke-width=".03" stroke="#e1d8d4"/><path d="M313.168 303.578h9.113v-9.113h-9.113zm0 0" fill="#adb5db" stroke-width=".03" stroke="#adb5db"/><path d="M449.855 303.578h9.11v-9.113h-9.11zm0 0" fill="#f1e3d2" stroke-width=".03" stroke="#f1e3d2"/><path d="M458.965 303.578h9.113v-9.113h-9.113zm0 0" fill="#f1e3d2" stroke-width=".03" stroke="#f1e3d2"/><path d="M540.977 303.578h9.113v-9.113h-9.113zm0 0" fill="#e9ddd3" stroke-width=".03" stroke="#e9ddd3"/><path d="M550.09 303.578h9.113v-9.113h-9.113zm0 0" fill="#e1d8d4" stroke-width=".03" stroke="#e1d8d4"/><path d="M130.922 294.465h9.113v-9.113h-9.113zm0 0" fill="#d6d1d6" stroke-width=".03" stroke="#d6d1d6"/><path d="M240.27 294.465h9.113v-9.113h-9.113zm0 0" fill="#c9c9d7" stroke-width=".03" stroke="#c9c9d7"/><path d="M276.719 294.465h9.113v-9.113h-9.113zm0 0" fill="#90a3df" stroke-width=".03" stroke="#90a3df"/><path d="M285.832 294.465h9.113v-9.113h-9.113zm0 0" fill="#fbc576" stroke-width=".03" stroke="#fbc576"/><path d="M294.945 294.465h9.11v-9.113h-9.11zm0 0" fill="#adb5db" stroke-width=".03" stroke="#adb5db"/><path d="M304.055 294.465h9.113v-9.113h-9.113zm0 0" fill="#d6d1d6" stroke-width=".03" stroke="#d6d1d6"/><path d="M440.742 294.465h9.113v-9.113h-9.113zm0 0M449.855 294.465h9.11v-9.113h-9.11zm0 0" fill="#f1e3d2" stroke-width=".03" stroke="#f1e3d2"/><path d="M531.867 294.465h9.11v-9.113h-9.11zm0 0" fill="#e1d8d4" stroke-width=".03" stroke="#e1d8d4"/><path d="M540.977 294.465h9.113v-9.113h-9.113zm0 0" fill="#f1e3d2" stroke-width=".03" stroke="#f1e3d2"/><path d="M130.922 285.352h9.113v-9.11h-9.113zm0 0" fill="#e9ddd3" stroke-width=".03" stroke="#e9ddd3"/><path d="M231.156 285.352h9.114v-9.11h-9.114zm0 0" fill="#b8bdd9" stroke-width=".03" stroke="#b8bdd9"/><path d="M267.605 285.352h9.114v-9.11h-9.114zm0 0" fill="#849be0" stroke-width=".03" stroke="#849be0"/><path d="M276.719 285.352h9.113v-9.11h-9.113zm0 0" fill="#fee6c5" stroke-width=".03" stroke="#fee6c5"/><path d="M285.832 285.352h9.113v-9.11h-9.113zm0 0" fill="#90a3df" stroke-width=".03" stroke="#90a3df"/><path d="M294.945 285.352h9.11v-9.11h-9.11zm0 0" fill="#d6d1d6" stroke-width=".03" stroke="#d6d1d6"/><path d="M431.629 285.352h9.113v-9.11h-9.113zm0 0M440.742 285.352h9.113v-9.11h-9.113zm0 0" fill="#f1e3d2" stroke-width=".03" stroke="#f1e3d2"/><path d="M522.754 285.352h9.113v-9.11h-9.113zm0 0" fill="#c9c9d7" stroke-width=".03" stroke="#c9c9d7"/><path d="M121.809 276.242h9.113v-9.113h-9.113zm0 0" fill="#e9ddd3" stroke-width=".03" stroke="#e9ddd3"/><path d="M222.043 276.242h9.113v-9.113h-9.113zm0 0" fill="#9cabdd" stroke-width=".03" stroke="#9cabdd"/><path d="M258.496 276.242h9.11v-9.113h-9.11zm0 0" fill="#d6d1d6" stroke-width=".03" stroke="#d6d1d6"/><path d="M267.605 276.242h9.114v-9.113h-9.114zm0 0" fill="#fccd8a" stroke-width=".03" stroke="#fccd8a"/><path d="M276.719 276.242h9.113v-9.113h-9.113zm0 0" fill="#849be0" stroke-width=".03" stroke="#849be0"/><path d="M422.516 276.242h9.113v-9.113h-9.113zm0 0M431.629 276.242h9.113v-9.113h-9.113zm0 0M504.527 276.242h9.114v-9.113h-9.114zm0 0" fill="#f1e3d2" stroke-width=".03" stroke="#f1e3d2"/><path d="M513.64 276.242h9.114v-9.113h-9.113zm0 0" fill="#e9ddd3" stroke-width=".03" stroke="#e9ddd3"/><path d="M121.809 267.129h9.113v-9.113h-9.113zm0 0" fill="#c5c5d8" stroke-width=".03" stroke="#c5c5d8"/><path d="M167.371 267.129h9.113v-9.113h-9.113zm0 0" fill="#e9ddd3" stroke-width=".03" stroke="#e9ddd3"/><path d="M212.934 267.129h9.109v-9.113h-9.11zm0 0" fill="#d6d1d6" stroke-width=".03" stroke="#d6d1d6"/><path d="M249.383 267.129h9.113v-9.113h-9.113zm0 0" fill="#e1d8d4" stroke-width=".03" stroke="#e1d8d4"/><path d="M258.496 267.129h9.11v-9.113h-9.11zm0 0" fill="#f9ab3a" stroke-width=".03" stroke="#f9ab3a"/><path d="M267.605 267.129h9.114v-9.113h-9.114zm0 0" fill="#d6d1d6" stroke-width=".03" stroke="#d6d1d6"/><path d="M304.055 267.129h9.113v-9.113h-9.113zm0 0" fill="#f1e3d2" stroke-width=".03" stroke="#f1e3d2"/><path d="M413.406 267.129h9.11v-9.113h-9.11zm0 0" fill="#e9ddd3" stroke-width=".03" stroke="#e9ddd3"/><path d="M422.516 267.129h9.113v-9.113h-9.113zm0 0" fill="#f1e3d2" stroke-width=".03" stroke="#f1e3d2"/><path d="M486.305 267.129h9.113v-9.113h-9.113zm0 0" fill="#d6d1d6" stroke-width=".03" stroke="#d6d1d6"/><path d="M495.418 267.129h9.11v-9.113h-9.11zm0 0" fill="#f1e3d2" stroke-width=".03" stroke="#f1e3d2"/><path d="M112.695 258.016h9.114v-9.114h-9.114zm0 0" fill="#a6b1dc" stroke-width=".03" stroke="#a6b1dc"/><path d="M158.258 258.016h9.113v-9.114h-9.113zm0 0" fill="#b8bdd9" stroke-width=".03" stroke="#b8bdd9"/><path d="M231.156 258.016h9.114v-9.114h-9.114zm0 0" fill="#e9ddd3" stroke-width=".03" stroke="#e9ddd3"/><path d="M240.27 258.016h9.113v-9.114h-9.113zm0 0" fill="#bec1d9" stroke-width=".03" stroke="#bec1d9"/><path d="M249.383 258.016h9.113v-9.114h-9.113zm0 0" fill="#d6d1d6" stroke-width=".03" stroke="#d6d1d6"/><path d="M258.496 258.016h9.11v-9.114h-9.11zm0 0" fill="#e1d8d4" stroke-width=".03" stroke="#e1d8d4"/><path d="M294.945 258.016h9.11v-9.114h-9.11zm0 0" fill="#d6d1d6" stroke-width=".03" stroke="#d6d1d6"/><path d="M404.293 258.016h9.113v-9.114h-9.113zm0 0M413.406 258.016h9.11v-9.114h-9.11zm0 0" fill="#e9ddd3" stroke-width=".03" stroke="#e9ddd3"/><path d="M477.191 258.016h9.114v-9.114h-9.114zm0 0" fill="#adb5db" stroke-width=".03" stroke="#adb5db"/><path d="M103.582 248.902h9.113v-9.109h-9.113zm0 0" fill="#d6d1d6" stroke-width=".03" stroke="#d6d1d6"/><path d="M149.145 248.902h9.113v-9.109h-9.113zm0 0" fill="#b8bdd9" stroke-width=".03" stroke="#b8bdd9"/><path d="M212.934 248.902h9.109v-9.109h-9.11zm0 0" fill="#e9ddd3" stroke-width=".03" stroke="#e9ddd3"/><path d="M231.156 248.902h9.114v-9.109h-9.114zm0 0" fill="#adb5db" stroke-width=".03" stroke="#adb5db"/><path d="M240.27 248.902h9.113v-9.109h-9.113zm0 0" fill="#fccd8a" stroke-width=".03" stroke="#fccd8a"/><path d="M249.383 248.902h9.113v-9.109h-9.113zm0 0" fill="#bec1d9" stroke-width=".03" stroke="#bec1d9"/><path d="M285.832 248.902h9.113v-9.109h-9.113zm0 0" fill="#c9c9d7" stroke-width=".03" stroke="#c9c9d7"/><path d="M395.18 248.902h9.113v-9.109h-9.113zm0 0M404.293 248.902h9.113v-9.109h-9.113zm0 0" fill="#e9ddd3" stroke-width=".03" stroke="#e9ddd3"/><path d="M458.965 248.902h9.113v-9.109h-9.113zm0 0" fill="#e1d8d4" stroke-width=".03" stroke="#e1d8d4"/><path d="M468.078 248.902h9.113v-9.109h-9.113zm0 0" fill="#f1e3d2" stroke-width=".03" stroke="#f1e3d2"/><path d="M103.582 239.793h9.113v-9.113h-9.113zm0 0" fill="#e9ddd3" stroke-width=".03" stroke="#e9ddd3"/><path d="M140.035 239.793h9.11v-9.113h-9.11zm0 0M203.82 239.793h9.114v-9.113h-9.114zm0 0" fill="#b8bdd9" stroke-width=".03" stroke="#b8bdd9"/><path d="M222.043 239.793h9.113v-9.113h-9.113zm0 0" fill="#a6b1dc" stroke-width=".03" stroke="#a6b1dc"/><path d="M231.156 239.793h9.114v-9.113h-9.114zm0 0" fill="#dcd5d5" stroke-width=".03" stroke="#dcd5d5"/><path d="M240.27 239.793h9.113v-9.113h-9.113zm0 0" fill="#adb5db" stroke-width=".03" stroke="#adb5db"/><path d="M249.383 239.793h9.113v-9.113h-9.113zm0 0" fill="#e9ddd3" stroke-width=".03" stroke="#e9ddd3"/><path d="M276.719 239.793h9.113v-9.113h-9.113zm0 0" fill="#b8bdd9" stroke-width=".03" stroke="#b8bdd9"/><path d="M386.066 239.793h9.114v-9.113h-9.114zm0 0M395.18 239.793h9.113v-9.113h-9.113zm0 0" fill="#e9ddd3" stroke-width=".03" stroke="#e9ddd3"/><path d="M449.855 239.793h9.11v-9.113h-9.11zm0 0" fill="#f1e3d2" stroke-width=".03" stroke="#f1e3d2"/><path d="M458.965 239.793h9.113v-9.113h-9.113zm0 0M94.473 230.68h9.109v-9.114h-9.11zm0 0" fill="#e9ddd3" stroke-width=".03" stroke="#e9ddd3"/><path d="M130.922 230.68h9.113v-9.114h-9.113zm0 0" fill="#b8bdd9" stroke-width=".03" stroke="#b8bdd9"/><path d="M194.707 230.68h9.113v-9.114h-9.113zm0 0" fill="#8a9fdf" stroke-width=".03" stroke="#8a9fdf"/><path d="M212.934 230.68h9.109v-9.114h-9.11zm0 0" fill="#e1d8d4" stroke-width=".03" stroke="#e1d8d4"/><path d="M231.156 230.68h9.114v-9.114h-9.114zm0 0" fill="#a6b1dc" stroke-width=".03" stroke="#a6b1dc"/><path d="M267.605 230.68h9.114v-9.114h-9.114zm0 0" fill="#9cabdd" stroke-width=".03" stroke="#9cabdd"/><path d="M376.957 230.68h9.11v-9.114h-9.11zm0 0" fill="#e9ddd3" stroke-width=".03" stroke="#e9ddd3"/><path d="M386.066 230.68h9.114v-9.114h-9.114zm0 0" fill="#e9ddd3" stroke-width=".03" stroke="#e9ddd3"/><path d="M440.742 230.68h9.113v-9.114h-9.113zm0 0" fill="#c9c9d7" stroke-width=".03" stroke="#c9c9d7"/><path d="M94.473 221.566h9.109v-9.113h-9.11zm0 0" fill="#d6d1d6" stroke-width=".03" stroke="#d6d1d6"/><path d="M121.809 221.566h9.113v-9.113h-9.113zm0 0" fill="#a6b1dc" stroke-width=".03" stroke="#a6b1dc"/><path d="M185.594 221.566h9.113v-9.113h-9.113zm0 0" fill="#c5c5d8" stroke-width=".03" stroke="#c5c5d8"/><path d="M203.82 221.566h9.114v-9.113h-9.114zm0 0" fill="#e9ddd3" stroke-width=".03" stroke="#e9ddd3"/><path d="M212.934 221.566h9.109v-9.113h-9.11zm0 0" fill="#fbc576" stroke-width=".03" stroke="#fbc576"/><path d="M222.043 221.566h9.113v-9.113h-9.113zm0 0" fill="#e1d8d4" stroke-width=".03" stroke="#e1d8d4"/><path d="M240.27 221.566h9.113v-9.113h-9.113zm0 0" fill="#e9ddd3" stroke-width=".03" stroke="#e9ddd3"/><path d="M258.496 221.566h9.11v-9.113h-9.11zm0 0" fill="#d6d1d6" stroke-width=".03" stroke="#d6d1d6"/><path d="M367.844 221.566h9.113v-9.113h-9.113zm0 0" fill="#e1d8d4" stroke-width=".03" stroke="#e1d8d4"/><path d="M376.957 221.566h9.11v-9.113h-9.11zm0 0" fill="#e9ddd3" stroke-width=".03" stroke="#e9ddd3"/><path d="M413.406 221.566h9.11v-9.113h-9.11zm0 0" fill="#e1d8d4" stroke-width=".03" stroke="#e1d8d4"/><path d="M431.629 221.566h9.113v-9.113h-9.113zm0 0" fill="#f1e3d2" stroke-width=".03" stroke="#f1e3d2"/><path d="M85.36 212.453h9.113v-9.113h-9.114zm0 0" fill="#e9ddd3" stroke-width=".03" stroke="#e9ddd3"/><path d="M112.695 212.453h9.114v-9.113h-9.114zm0 0" fill="#8a9fdf" stroke-width=".03" stroke="#8a9fdf"/><path d="M194.707 212.453h9.113v-9.113h-9.113zm0 0" fill="#c9c9d7" stroke-width=".03" stroke="#c9c9d7"/><path d="M203.82 212.453h9.114v-9.113h-9.114zm0 0" fill="#fee6c5" stroke-width=".03" stroke="#fee6c5"/><path d="M212.934 212.453h9.109v-9.113h-9.11zm0 0" fill="#e9ddd3" stroke-width=".03" stroke="#e9ddd3"/><path d="M231.156 212.453h9.114v-9.113h-9.114zm0 0" fill="#b8bdd9" stroke-width=".03" stroke="#b8bdd9"/><path d="M358.73 212.453h9.114v-9.113h-9.114zm0 0M367.844 212.453h9.113v-9.113h-9.113zm0 0" fill="#e1d8d4" stroke-width=".03" stroke="#e1d8d4"/><path d="M404.293 212.453h9.113v-9.113h-9.113zm0 0" fill="#f1e3d2" stroke-width=".03" stroke="#f1e3d2"/><path d="M413.406 212.453h9.11v-9.113h-9.11zm0 0M85.36 203.34h9.113v-9.11h-9.114zm0 0" fill="#e9ddd3" stroke-width=".03" stroke="#e9ddd3"/><path d="M103.582 203.34h9.113v-9.11h-9.113zm0 0" fill="#8a9fdf" stroke-width=".03" stroke="#8a9fdf"/><path d="M176.484 203.34h9.11v-9.11h-9.11zm0 0" fill="#e1d8d4" stroke-width=".03" stroke="#e1d8d4"/><path d="M185.594 203.34h9.113v-9.11h-9.113zm0 0" fill="#adb5db" stroke-width=".03" stroke="#adb5db"/><path d="M203.82 203.34h9.114v-9.11h-9.114zm0 0" fill="#c9c9d7" stroke-width=".03" stroke="#c9c9d7"/><path d="M222.043 203.34h9.113v-9.11h-9.113zm0 0" fill="#8a9fdf" stroke-width=".03" stroke="#8a9fdf"/><path d="M349.617 203.34h9.113v-9.11h-9.113zm0 0M358.73 203.34h9.114v-9.11h-9.114zm0 0" fill="#e1d8d4" stroke-width=".03" stroke="#e1d8d4"/><path d="M395.18 203.34h9.113v-9.11h-9.113zm0 0" fill="#c9c9d7" stroke-width=".03" stroke="#c9c9d7"/><path d="M76.246 194.23h9.113v-9.113h-9.113zm0 0" fill="#e9ddd3" stroke-width=".03" stroke="#e9ddd3"/><path d="M94.473 194.23h9.109v-9.113h-9.11zm0 0" fill="#7490e2" stroke-width=".03" stroke="#7490e2"/><path d="M176.484 194.23h9.11v-9.113h-9.11zm0 0" fill="#a1aedc" stroke-width=".03" stroke="#a1aedc"/><path d="M185.594 194.23h9.113v-9.113h-9.113zm0 0" fill="#fbc576" stroke-width=".03" stroke="#fbc576"/><path d="M194.707 194.23h9.113v-9.113h-9.113zm0 0" fill="#adb5db" stroke-width=".03" stroke="#adb5db"/><path d="M212.934 194.23h9.109v-9.113h-9.11zm0 0" fill="#c5c5d8" stroke-width=".03" stroke="#c5c5d8"/><path d="M340.504 194.23h9.113v-9.113h-9.113zm0 0" fill="#d6d1d6" stroke-width=".03" stroke="#d6d1d6"/><path d="M349.617 194.23h9.113v-9.113h-9.113zm0 0" fill="#e1d8d4" stroke-width=".03" stroke="#e1d8d4"/><path d="M367.844 194.23h9.113v-9.113h-9.113zm0 0" fill="#e9ddd3" stroke-width=".03" stroke="#e9ddd3"/><path d="M386.066 194.23h9.114v-9.113h-9.114zm0 0" fill="#f1e3d2" stroke-width=".03" stroke="#f1e3d2"/><path d="M85.36 185.117h9.113v-9.113h-9.114zm0 0" fill="#6788e4" stroke-width=".03" stroke="#6788e4"/><path d="M167.371 185.117h9.113v-9.113h-9.113zm0 0" fill="#d6d1d6" stroke-width=".03" stroke="#d6d1d6"/><path d="M176.484 185.117h9.11v-9.113h-9.11zm0 0" fill="#fccd8a" stroke-width=".03" stroke="#fccd8a"/><path d="M185.594 185.117h9.113v-9.113h-9.113zm0 0" fill="#a1aedc" stroke-width=".03" stroke="#a1aedc"/><path d="M194.707 185.117h9.113v-9.113h-9.113zm0 0" fill="#e1d8d4" stroke-width=".03" stroke="#e1d8d4"/><path d="M331.395 185.117h9.109v-9.113h-9.11zm0 0M340.504 185.117h9.113v-9.113h-9.113zm0 0" fill="#d6d1d6" stroke-width=".03" stroke="#d6d1d6"/><path d="M358.73 185.117h9.114v-9.113h-9.114zm0 0M367.844 185.117h9.113v-9.113h-9.113zm0 0" fill="#f1e3d2" stroke-width=".03" stroke="#f1e3d2"/><path d="M76.246 176.004h9.113v-9.113h-9.113zm0 0" fill="#5174d5" stroke-width=".03" stroke="#5174d5"/><path d="M158.258 176.004h9.113v-9.113h-9.113zm0 0" fill="#e1d8d4" stroke-width=".03" stroke="#e1d8d4"/><path d="M167.371 176.004h9.113v-9.113h-9.113zm0 0" fill="#f9a42b" stroke-width=".03" stroke="#f9a42b"/><path d="M176.484 176.004h9.11v-9.113h-9.11zm0 0" fill="#d6d1d6" stroke-width=".03" stroke="#d6d1d6"/><path d="M258.496 176.004h9.11v-9.113h-9.11zm0 0" fill="#e9ddd3" stroke-width=".03" stroke="#e9ddd3"/><path d="M322.281 176.004h9.114v-9.113h-9.114zm0 0" fill="#b8bdd9" stroke-width=".03" stroke="#b8bdd9"/><path d="M331.395 176.004h9.109v-9.113h-9.11zm0 0" fill="#cfcdd6" stroke-width=".03" stroke="#cfcdd6"/><path d="M340.504 176.004h9.113v-9.113h-9.113zm0 0" fill="#f1e3d2" stroke-width=".03" stroke="#f1e3d2"/><path d="M67.133 166.89h9.113v-9.109h-9.113zm0 0" fill="#849be0" stroke-width=".03" stroke="#849be0"/><path d="M140.035 166.89h9.11v-9.109h-9.11zm0 0" fill="#e9ddd3" stroke-width=".03" stroke="#e9ddd3"/><path d="M149.145 166.89h9.113v-9.109h-9.113zm0 0" fill="#bec1d9" stroke-width=".03" stroke="#bec1d9"/><path d="M167.371 166.89h9.113v-9.109h-9.113zm0 0" fill="#e1d8d4" stroke-width=".03" stroke="#e1d8d4"/><path d="M249.383 166.89h9.113v-9.109h-9.113zm0 0" fill="#b8bdd9" stroke-width=".03" stroke="#b8bdd9"/><path d="M313.168 166.89h9.113v-9.109h-9.113zm0 0" fill="#d6d1d6" stroke-width=".03" stroke="#d6d1d6"/><path d="M322.281 166.89h9.114v-9.109h-9.114zm0 0M58.023 157.781h9.11v-9.113h-9.11zm0 0" fill="#c5c5d8" stroke-width=".03" stroke="#c5c5d8"/><path d="M121.809 157.781h9.113v-9.113h-9.113zm0 0" fill="#f1e3d2" stroke-width=".03" stroke="#f1e3d2"/><path d="M140.035 157.781h9.11v-9.113h-9.11zm0 0" fill="#adb5db" stroke-width=".03" stroke="#adb5db"/><path d="M149.145 157.781h9.113v-9.113h-9.113zm0 0" fill="#fbbe67" stroke-width=".03" stroke="#fbbe67"/><path d="M158.258 157.781h9.113v-9.113h-9.113zm0 0" fill="#bec1d9" stroke-width=".03" stroke="#bec1d9"/><path d="M240.27 157.781h9.113v-9.113h-9.113zm0 0" fill="#b8bdd9" stroke-width=".03" stroke="#b8bdd9"/><path d="M304.055 157.781h9.113v-9.113h-9.113zm0 0" fill="#c5c5d8" stroke-width=".03" stroke="#c5c5d8"/><path d="M313.168 157.781h9.113v-9.113h-9.113zm0 0" fill="#e9ddd3" stroke-width=".03" stroke="#e9ddd3"/><path d="M58.023 148.668h9.11v-9.113h-9.11zm0 0" fill="#e1d8d4" stroke-width=".03" stroke="#e1d8d4"/><path d="M112.695 148.668h9.114v-9.113h-9.114zm0 0" fill="#d6d1d6" stroke-width=".03" stroke="#d6d1d6"/><path d="M130.922 148.668h9.113v-9.113h-9.113zm0 0" fill="#a6b1dc" stroke-width=".03" stroke="#a6b1dc"/><path d="M140.035 148.668h9.11v-9.113h-9.11zm0 0" fill="#fee6c5" stroke-width=".03" stroke="#fee6c5"/><path d="M149.145 148.668h9.113v-9.113h-9.113zm0 0" fill="#adb5db" stroke-width=".03" stroke="#adb5db"/><path d="M158.258 148.668h9.113v-9.113h-9.113zm0 0" fill="#e9ddd3" stroke-width=".03" stroke="#e9ddd3"/><path d="M231.156 148.668h9.114v-9.113h-9.114zm0 0" fill="#b8bdd9" stroke-width=".03" stroke="#b8bdd9"/><path d="M294.945 148.668h9.11v-9.113h-9.11zm0 0" fill="#a6b1dc" stroke-width=".03" stroke="#a6b1dc"/><path d="M48.91 139.555h9.113v-9.114H48.91zm0 0" fill="#e1d8d4" stroke-width=".03" stroke="#e1d8d4"/><path d="M103.582 139.555h9.113v-9.114h-9.113zm0 0" fill="#b8bdd9" stroke-width=".03" stroke="#b8bdd9"/><path d="M121.809 139.555h9.113v-9.114h-9.113zm0 0" fill="#e1d8d4" stroke-width=".03" stroke="#e1d8d4"/><path d="M130.922 139.555h9.113v-9.114h-9.113zm0 0" fill="#fddaa8" stroke-width=".03" stroke="#fddaa8"/><path d="M140.035 139.555h9.11v-9.114h-9.11zm0 0" fill="#a6b1dc" stroke-width=".03" stroke="#a6b1dc"/><path d="M222.043 139.555h9.113v-9.114h-9.113zm0 0" fill="#b8bdd9" stroke-width=".03" stroke="#b8bdd9"/><path d="M276.719 139.555h9.113v-9.114h-9.113zm0 0" fill="#e9ddd3" stroke-width=".03" stroke="#e9ddd3"/><path d="M285.832 139.555h9.113v-9.114h-9.113zm0 0" fill="#d6d1d6" stroke-width=".03" stroke="#d6d1d6"/><path d="M48.91 130.441h9.113v-9.109H48.91zm0 0" fill="#c5c5d8" stroke-width=".03" stroke="#c5c5d8"/><path d="M76.246 130.441h9.113v-9.109h-9.113zm0 0M94.473 130.441h9.109v-9.109h-9.11zm0 0" fill="#e1d8d4" stroke-width=".03" stroke="#e1d8d4"/><path d="M112.695 130.441h9.114v-9.109h-9.114zm0 0" fill="#e9ddd3" stroke-width=".03" stroke="#e9ddd3"/><path d="M121.809 130.441h9.113v-9.109h-9.113zm0 0" fill="#fbbe67" stroke-width=".03" stroke="#fbbe67"/><path d="M130.922 130.441h9.113v-9.109h-9.113zm0 0" fill="#e1d8d4" stroke-width=".03" stroke="#e1d8d4"/><path d="M149.145 130.441h9.113v-9.109h-9.113zm0 0" fill="#f1e3d2" stroke-width=".03" stroke="#f1e3d2"/><path d="M212.934 130.441h9.109v-9.109h-9.11zm0 0" fill="#a6b1dc" stroke-width=".03" stroke="#a6b1dc"/><path d="M258.496 130.441h9.11v-9.109h-9.11zm0 0" fill="#c5c5d8" stroke-width=".03" stroke="#c5c5d8"/><path d="M267.605 130.441h9.114v-9.109h-9.114zm0 0" fill="#e9ddd3" stroke-width=".03" stroke="#e9ddd3"/><path d="M39.797 121.332h9.113v-9.113h-9.113zm0 0" fill="#e1d8d4" stroke-width=".03" stroke="#e1d8d4"/><path d="M67.133 121.332h9.113v-9.113h-9.113zm0 0" fill="#9cabdd" stroke-width=".03" stroke="#9cabdd"/><path d="M103.582 121.332h9.113v-9.113h-9.113zm0 0" fill="#c9c9d7" stroke-width=".03" stroke="#c9c9d7"/><path d="M112.695 121.332h9.114v-9.113h-9.114zm0 0" fill="#fee6c5" stroke-width=".03" stroke="#fee6c5"/><path d="M121.809 121.332h9.113v-9.113h-9.113zm0 0" fill="#e9ddd3" stroke-width=".03" stroke="#e9ddd3"/><path d="M140.035 121.332h9.11v-9.113h-9.11zm0 0" fill="#d6d1d6" stroke-width=".03" stroke="#d6d1d6"/><path d="M203.82 121.332h9.114v-9.113h-9.114zm0 0" fill="#8a9fdf" stroke-width=".03" stroke="#8a9fdf"/><path d="M249.383 121.332h9.113v-9.113h-9.113zm0 0" fill="#a6b1dc" stroke-width=".03" stroke="#a6b1dc"/><path d="M39.797 112.219h9.113v-9.114h-9.113zm0 0" fill="#e1d8d4" stroke-width=".03" stroke="#e1d8d4"/><path d="M58.023 112.219h9.11v-9.114h-9.11zm0 0" fill="#9cabdd" stroke-width=".03" stroke="#9cabdd"/><path d="M85.36 112.219h9.113v-9.114h-9.114zm0 0" fill="#e9ddd3" stroke-width=".03" stroke="#e9ddd3"/><path d="M94.473 112.219h9.109v-9.114h-9.11zm0 0" fill="#b8bdd9" stroke-width=".03" stroke="#b8bdd9"/><path d="M112.695 112.219h9.114v-9.114h-9.114zm0 0" fill="#c9c9d7" stroke-width=".03" stroke="#c9c9d7"/><path d="M130.922 112.219h9.113v-9.114h-9.113zm0 0" fill="#b8bdd9" stroke-width=".03" stroke="#b8bdd9"/><path d="M194.707 112.219h9.113v-9.114h-9.113zm0 0" fill="#8a9fdf" stroke-width=".03" stroke="#8a9fdf"/><path d="M231.156 112.219h9.114v-9.114h-9.114zm0 0" fill="#e9ddd3" stroke-width=".03" stroke="#e9ddd3"/><path d="M240.27 112.219h9.113v-9.114h-9.113zm0 0" fill="#d6d1d6" stroke-width=".03" stroke="#d6d1d6"/><path d="M30.684 103.105h9.113v-9.113h-9.113zm0 0" fill="#e1d8d4" stroke-width=".03" stroke="#e1d8d4"/><path d="M48.91 103.105h9.113v-9.113H48.91zm0 0" fill="#849be0" stroke-width=".03" stroke="#849be0"/><path d="M85.36 103.105h9.113v-9.113h-9.114zm0 0" fill="#b2b9da" stroke-width=".03" stroke="#b2b9da"/><path d="M94.473 103.105h9.109v-9.113h-9.11zm0 0" fill="#fccd8a" stroke-width=".03" stroke="#fccd8a"/><path d="M103.582 103.105h9.113v-9.113h-9.113zm0 0" fill="#b8bdd9" stroke-width=".03" stroke="#b8bdd9"/><path d="M121.809 103.105h9.113v-9.113h-9.113zm0 0" fill="#e1d8d4" stroke-width=".03" stroke="#e1d8d4"/><path d="M185.594 103.105h9.113v-9.113h-9.113zm0 0" fill="#7490e2" stroke-width=".03" stroke="#7490e2"/><path d="M212.934 103.105h9.109v-9.113h-9.11zm0 0" fill="#d6d1d6" stroke-width=".03" stroke="#d6d1d6"/><path d="M222.043 103.105h9.113v-9.113h-9.113zm0 0" fill="#e9ddd3" stroke-width=".03" stroke="#e9ddd3"/><path d="M39.797 93.992h9.113V84.88h-9.113zm0 0" fill="#6788e4" stroke-width=".03" stroke="#6788e4"/><path d="M76.246 93.992h9.113V84.88h-9.113zm0 0" fill="#e1d8d4" stroke-width=".03" stroke="#e1d8d4"/><path d="M85.36 93.992h9.113V84.88h-9.114zm0 0" fill="#fddaa8" stroke-width=".03" stroke="#fddaa8"/><path d="M94.473 93.992h9.109V84.88h-9.11zm0 0" fill="#b2b9da" stroke-width=".03" stroke="#b2b9da"/><path d="M103.582 93.992h9.113V84.88h-9.113zm0 0" fill="#e9ddd3" stroke-width=".03" stroke="#e9ddd3"/><path d="M176.484 93.992h9.11V84.88h-9.11zm0 0" fill="#6788e4" stroke-width=".03" stroke="#6788e4"/><path d="M194.707 93.992h9.113V84.88h-9.113zm0 0M203.82 93.992h9.114V84.88h-9.114zm0 0" fill="#e9ddd3" stroke-width=".03" stroke="#e9ddd3"/><path d="M30.684 84.879h9.113v-9.11h-9.113zm0 0" fill="#5174d5" stroke-width=".03" stroke="#5174d5"/><path d="M67.133 84.879h9.113v-9.11h-9.113zm0 0" fill="#e9ddd3" stroke-width=".03" stroke="#e9ddd3"/><path d="M76.246 84.879h9.113v-9.11h-9.113zm0 0" fill="#fab149" stroke-width=".03" stroke="#fab149"/><path d="M85.36 84.879h9.113v-9.11h-9.114zm0 0M121.809 84.879h9.113v-9.11h-9.113zm0 0" fill="#e1d8d4" stroke-width=".03" stroke="#e1d8d4"/><path d="M167.371 84.879h9.113v-9.11h-9.113zm0 0" fill="#5174d5" stroke-width=".03" stroke="#5174d5"/><path d="M185.594 84.879h9.113v-9.11h-9.113zm0 0" fill="#e9ddd3" stroke-width=".03" stroke="#e9ddd3"/><path d="M21.574 75.77h9.11v-9.114h-9.11zm0 0" fill="#d6d1d6" stroke-width=".03" stroke="#d6d1d6"/><path d="M58.023 75.77h9.11v-9.114h-9.11zm0 0" fill="#c9c9d7" stroke-width=".03" stroke="#c9c9d7"/><path d="M67.133 75.77h9.113v-9.114h-9.113zm0 0" fill="#fbca83" stroke-width=".03" stroke="#fbca83"/><path d="M76.246 75.77h9.113v-9.114h-9.113zm0 0" fill="#e9ddd3" stroke-width=".03" stroke="#e9ddd3"/><path d="M112.695 75.77h9.114v-9.114h-9.114zm0 0" fill="#9cabdd" stroke-width=".03" stroke="#9cabdd"/><path d="M158.258 75.77h9.113v-9.114h-9.113zm0 0" fill="#849be0" stroke-width=".03" stroke="#849be0"/><path d="M21.574 66.656h9.11v-9.113h-9.11zm0 0" fill="#d6d1d6" stroke-width=".03" stroke="#d6d1d6"/><path d="M39.797 66.656h9.113v-9.113h-9.113zm0 0" fill="#f1e3d2" stroke-width=".03" stroke="#f1e3d2"/><path d="M48.91 66.656h9.113v-9.113H48.91zm0 0" fill="#c9c9d7" stroke-width=".03" stroke="#c9c9d7"/><path d="M58.023 66.656h9.11v-9.113h-9.11zm0 0" fill="#fccd8a" stroke-width=".03" stroke="#fccd8a"/><path d="M67.133 66.656h9.113v-9.113h-9.113zm0 0" fill="#c9c9d7" stroke-width=".03" stroke="#c9c9d7"/><path d="M103.582 66.656h9.113v-9.113h-9.113zm0 0" fill="#9cabdd" stroke-width=".03" stroke="#9cabdd"/><path d="M140.035 66.656h9.11v-9.113h-9.11zm0 0" fill="#e1d8d4" stroke-width=".03" stroke="#e1d8d4"/><path d="M149.145 66.656h9.113v-9.113h-9.113zm0 0" fill="#c5c5d8" stroke-width=".03" stroke="#c5c5d8"/><path d="M12.46 57.543h9.114V48.43h-9.113zm0 0M30.684 57.543h9.113V48.43h-9.113zm0 0" fill="#d6d1d6" stroke-width=".03" stroke="#d6d1d6"/><path d="M39.797 57.543h9.113V48.43h-9.113zm0 0" fill="#c9c9d7" stroke-width=".03" stroke="#c9c9d7"/><path d="M48.91 57.543h9.113V48.43H48.91zm0 0" fill="#fab858" stroke-width=".03" stroke="#fab858"/><path d="M58.023 57.543h9.11V48.43h-9.11zm0 0" fill="#c9c9d7" stroke-width=".03" stroke="#c9c9d7"/><path d="M94.473 57.543h9.109V48.43h-9.11zm0 0" fill="#849be0" stroke-width=".03" stroke="#849be0"/><path d="M121.809 57.543h9.113V48.43h-9.113zm0 0" fill="#c5c5d8" stroke-width=".03" stroke="#c5c5d8"/><path d="M130.922 57.543h9.113V48.43h-9.113zm0 0" fill="#e1d8d4" stroke-width=".03" stroke="#e1d8d4"/><path d="M21.574 48.43h9.11v-9.11h-9.11zm0 0" fill="#8a9fdf" stroke-width=".03" stroke="#8a9fdf"/><path d="M30.684 48.43h9.113v-9.11h-9.113zm0 0" fill="#e9ddd3" stroke-width=".03" stroke="#e9ddd3"/><path d="M39.797 48.43h9.113v-9.11h-9.113zm0 0" fill="#fccd8a" stroke-width=".03" stroke="#fccd8a"/><path d="M48.91 48.43h9.113v-9.11H48.91zm0 0" fill="#c9c9d7" stroke-width=".03" stroke="#c9c9d7"/><path d="M58.023 48.43h9.11v-9.11h-9.11zm0 0" fill="#f1e3d2" stroke-width=".03" stroke="#f1e3d2"/><path d="M85.36 48.43h9.113v-9.11h-9.114zm0 0" fill="#6788e4" stroke-width=".03" stroke="#6788e4"/><path d="M103.582 48.43h9.113v-9.11h-9.113zm0 0M112.695 48.43h9.114v-9.11h-9.114zm0 0" fill="#e1d8d4" stroke-width=".03" stroke="#e1d8d4"/><path d="M12.46 39.32h9.114v-9.113h-9.113zm0 0" fill="#6284e4" stroke-width=".03" stroke="#6284e4"/><path d="M21.574 39.32h9.11v-9.113h-9.11zm0 0" fill="#f1e3d2" stroke-width=".03" stroke="#f1e3d2"/><path d="M30.684 39.32h9.113v-9.113h-9.113zm0 0" fill="#f9a42b" stroke-width=".03" stroke="#f9a42b"/><path d="M39.797 39.32h9.113v-9.113h-9.113zm0 0" fill="#e9ddd3" stroke-width=".03" stroke="#e9ddd3"/><path d="M48.91 39.32h9.113v-9.113H48.91zm0 0" fill="#d6d1d6" stroke-width=".03" stroke="#d6d1d6"/><path d="M76.246 39.32h9.113v-9.113h-9.113zm0 0" fill="#5174d5" stroke-width=".03" stroke="#5174d5"/><path d="M94.473 39.32h9.109v-9.113h-9.11zm0 0" fill="#e1d8d4" stroke-width=".03" stroke="#e1d8d4"/><path d="M12.46 30.207h9.114v-9.113h-9.113zm0 0" fill="#f1e3d2" stroke-width=".03" stroke="#f1e3d2"/><path d="M21.574 30.207h9.11v-9.113h-9.11zm0 0" fill="#f9a42b" stroke-width=".03" stroke="#f9a42b"/><path d="M30.684 30.207h9.113v-9.113h-9.113zm0 0" fill="#f1e3d2" stroke-width=".03" stroke="#f1e3d2"/><path d="M39.797 30.207h9.113v-9.113h-9.113zm0 0" fill="#8a9fdf" stroke-width=".03" stroke="#8a9fdf"/><path d="M58.023 30.207h9.11v-9.113h-9.11zm0 0" fill="#d6d1d6" stroke-width=".03" stroke="#d6d1d6"/><path d="M67.133 30.207h9.113v-9.113h-9.113zm0 0" fill="#d6d1d6" stroke-width=".03" stroke="#d6d1d6"/><path d="M12.46 21.094h9.114V11.98h-9.113zm0 0" fill="#f89c17" stroke-width=".03" stroke="#f89c17"/><path d="M21.574 21.094h9.11V11.98h-9.11zm0 0" fill="#f1e3d2" stroke-width=".03" stroke="#f1e3d2"/><path d="M30.684 21.094h9.113V11.98h-9.113zm0 0" fill="#6284e4" stroke-width=".03" stroke="#6284e4"/><path d="M48.91 21.094h9.113V11.98H48.91zm0 0" fill="#d6d1d6" stroke-width=".03" stroke="#d6d1d6"/><path d="M598.5 597.543H.5M.5 597.543V.5M.5.5h598M598.5.5v597.043" fill="none" stroke-width=".5" stroke="#666"/></g></svg>