<svg xmlns="http://www.w3.org/2000/svg" width="800" height="599pt" viewBox="0 0 600 599"><g stroke-linecap="square" stroke-miterlimit="3.25"><path d="M299.5 586.063h57.406v-57.41H299.5zm0 0M471.723 586.063h57.41v-57.41h-57.41zm0 0" fill="#597ee6" stroke-width=".03" stroke="#597ee6"/><path d="M529.133 586.063h57.406v-57.41h-57.406zm0 0" fill="#e58f13" stroke-width=".03" stroke="#e58f13"/><path d="M242.094 528.652H299.5v-57.406h-57.406zm0 0" fill="#869ce0" stroke-width=".03" stroke="#869ce0"/><path d="M299.5 528.652h57.406v-57.406H299.5zm0 0" fill="#b6bcda" stroke-width=".03" stroke="#b6bcda"/><path d="M414.316 528.652h57.407v-57.406h-57.407zm0 0" fill="#3d58a1" stroke-width=".03" stroke="#3d58a1"/><path d="M471.723 528.652h57.41v-57.406h-57.41zm0 0" fill="#fbc980" stroke-width=".03" stroke="#fbc980"/><path d="M529.133 528.652h57.406v-57.406h-57.406zm0 0" fill="#597ee6" stroke-width=".03" stroke="#597ee6"/><path d="M184.684 471.246h57.41v-57.41h-57.41zm0 0" fill="#b6bcda" stroke-width=".03" stroke="#b6bcda"/><path d="M242.094 471.246H299.5v-57.41h-57.406zm0 0" fill="#869ce0" stroke-width=".03" stroke="#869ce0"/><path d="M356.906 471.246h57.41v-57.41h-57.41zm0 0" fill="#597ee6" stroke-width=".03" stroke="#597ee6"/><path d="M414.316 471.246h57.407v-57.41h-57.407zm0 0" fill="#fbc980" stroke-width=".03" stroke="#fbc980"/><path d="M471.723 471.246h57.41v-57.41h-57.41zm0 0" fill="#3d58a1" stroke-width=".03" stroke="#3d58a1"/><path d="M184.684 413.836h57.41V356.43h-57.41zm0 0" fill="#597ee6" stroke-width=".03" stroke="#597ee6"/><path d="M356.906 413.836h57.41V356.43h-57.41zm0 0" fill="#e58f13" stroke-width=".03" stroke="#e58f13"/><path d="M414.316 413.836h57.407V356.43h-57.407zm0 0" fill="#597ee6" stroke-width=".03" stroke="#597ee6"/><path d="M127.277 356.43h57.407v-57.407h-57.407zm0 0" fill="#3d58a1" stroke-width=".03" stroke="#3d58a1"/><path d="M242.094 356.43H299.5v-57.407h-57.406zm0 0" fill="#869ce0" stroke-width=".03" stroke="#869ce0"/><path d="M299.5 356.43h57.406v-57.407H299.5zm0 0" fill="#fbc980" stroke-width=".03" stroke="#fbc980"/><path d="M471.723 356.43h57.41v-57.407h-57.41zm0 0" fill="#b6bcda" stroke-width=".03" stroke="#b6bcda"/><path d="M529.133 356.43h57.406v-57.407h-57.406zm0 0" fill="#597ee6" stroke-width=".03" stroke="#597ee6"/><path d="M69.867 299.023h57.41v-57.41h-57.41zm0 0M127.277 299.023h57.407v-57.41h-57.407zm0 0M184.684 299.023h57.41v-57.41h-57.41zm0 0M299.5 299.023h57.406v-57.41H299.5zm0 0M414.316 299.023h57.407v-57.41h-57.407zm0 0M471.723 299.023h57.41v-57.41h-57.41zm0 0" fill="#869ce0" stroke-width=".03" stroke="#869ce0"/><path d="M69.867 241.613h57.41v-57.406h-57.41zm0 0" fill="#3d58a1" stroke-width=".03" stroke="#3d58a1"/><path d="M184.684 241.613h57.41v-57.406h-57.41zm0 0" fill="#fbc980" stroke-width=".03" stroke="#fbc980"/><path d="M242.094 241.613H299.5v-57.406h-57.406zm0 0" fill="#869ce0" stroke-width=".03" stroke="#869ce0"/><path d="M356.906 241.613h57.41v-57.406h-57.41zm0 0" fill="#597ee6" stroke-width=".03" stroke="#597ee6"/><path d="M414.316 241.613h57.407v-57.406h-57.407zm0 0" fill="#b6bcda" stroke-width=".03" stroke="#b6bcda"/><path d="M12.46 184.207h57.407v-57.41H12.461zm0 0" fill="#597ee6" stroke-width=".03" stroke="#597ee6"/><path d="M69.867 184.207h57.41v-57.41h-57.41zm0 0" fill="#b6bcda" stroke-width=".03" stroke="#b6bcda"/><path d="M127.277 184.207h57.407v-57.41h-57.407zm0 0" fill="#fbc980" stroke-width=".03" stroke="#fbc980"/><path d="M242.094 184.207H299.5v-57.41h-57.406zm0 0" fill="#869ce0" stroke-width=".03" stroke="#869ce0"/><path d="M299.5 184.207h57.406v-57.41H299.5zm0 0" fill="#3d58a1" stroke-width=".03" stroke="#3d58a1"/><path d="M12.46 126.797h57.407V69.39H12.461zm0 0" fill="#597ee6" stroke-width=".03" stroke="#597ee6"/><path d="M69.867 126.797h57.41V69.39h-57.41zm0 0" fill="#fbc980" stroke-width=".03" stroke="#fbc980"/><path d="M127.277 126.797h57.407V69.39h-57.407zm0 0" fill="#b6bcda" stroke-width=".03" stroke="#b6bcda"/><path d="M184.684 126.797h57.41V69.39h-57.41zm0 0" fill="#3d58a1" stroke-width=".03" stroke="#3d58a1"/><path d="M242.094 126.797H299.5V69.39h-57.406zm0 0" fill="#869ce0" stroke-width=".03" stroke="#869ce0"/><path d="M12.46 69.39h57.407V11.98H12.461zm0 0" fill="#e58f13" stroke-width=".03" stroke="#e58f13"/><path d="M69.867 69.39h57.41V11.98h-57.41zm0 0M127.277 69.39h57.407V11.98h-57.407zm0 0" fill="#597ee6" stroke-width=".03" stroke="#597ee6"/><path d="M598.5 597.543H.5M.5 597.543V.5M.5.5h598M598.5.5v597.043" fill="none" stroke-width=".5" stroke="#666"/></g></svg>