<svg xmlns="http://www.w3.org/2000/svg" xmlns:xlink="http://www.w3.org/1999/xlink" width="114.009" height="105.269" viewBox="0 0 85.507 78.952"><path stroke-width=".399" stroke-miterlimit="10" fill="none" stroke="#000" d="M12.951 11.128v56.694"/><path d="M12.951 21.9l1.346-3.572-1.346 1.175-1.346-1.175z"/><path stroke-width=".399" stroke-miterlimit="10" fill="none" stroke="#000" d="M12.951 21.9l1.346-3.572-1.346 1.175-1.346-1.175z"/><path d="M12.951 61.585l1.346-3.571-1.346 1.174-1.346-1.174z"/><path stroke-width=".399" stroke-miterlimit="10" fill="none" stroke="#000" d="M12.951 61.585l1.346-3.571-1.346 1.174-1.346-1.174z"/><path d="M12.951 21.9l1.346-3.572-1.346 1.175-1.346-1.175z"/><path stroke-width=".399" stroke-miterlimit="10" fill="none" stroke="#000" d="M12.951 21.9l1.346-3.572-1.346 1.175-1.346-1.175z"/><path d="M12.951 61.585l1.346-3.571-1.346 1.174-1.346-1.174z"/><path stroke-width=".399" stroke-miterlimit="10" fill="none" stroke="#000" d="M12.951 61.585l1.346-3.571-1.346 1.174-1.346-1.174z"/><symbol id="a"><path d="M.305.313c.006.026.029.118.099.118.005 0 .029 0 .05-.013A.058.058 0 01.406.364c0-.016.011-.035.038-.035.022 0 .054.018.054.058 0 .052-.059.066-.093.066C.347.453.312.4.3.377a.11.11 0 01-.108.076C.088.453.031.324.031.299c0-.01.01-.01.012-.01.008 0 .011.002.013.011.034.106.1.131.134.131.019 0 .054-.009.054-.067C.244.333.227.266.19.126.174.064.139.022.095.022c-.006 0-.029 0-.05.013C.07.04.092.061.092.089.092.116.07.124.055.124A.057.057 0 010 .066C0 .02.05 0 .094 0 .16 0 .196.07.199.076A.11.11 0 01.307 0c.103 0 .16.129.16.154 0 .01-.009.01-.012.01C.446.164.444.16.442.153.409.046.341.022.309.022.27.022.254.054.254.088c0 .022.006.044.017.088l.034.137z"/></symbol><use xlink:href="#a" transform="matrix(9.9626 0 0 -9.9626 10.393 7.72)"/><symbol id="b"><path d="M.09.094c.054.058.083.083.119.114 0 .001.062.054.098.09a.474.474 0 01.117.145c0 .01-.009.01-.011.01C.406.453.403.451.398.442.368.394.347.378.323.378S.287.393.272.41C.253.433.236.453.203.453.128.453.082.36.082.339c0-.005.003-.011.012-.011.009 0 .011.005.013.011.019.046.077.047.085.047.021 0 .04-.007.063-.015C.295.356.306.356.332.356A1.501 1.501 0 00.193.225L.103.141A.479.479 0 010 .01C0 0 .01 0 .012 0c.008 0 .01.002.016.013.023.035.053.062.085.062.023 0 .033-.009.058-.038C.188.016.206 0 .235 0c.099 0 .157.127.157.154 0 .005-.004.01-.012.01C.371.164.369.158.366.151a.13.13 0 00-.12-.084.185.185 0 00-.059.013.178.178 0 01-.07.017C.115.097.099.097.09.094z"/></symbol><use xlink:href="#b" transform="matrix(9.9626 0 0 -9.9626 10.844 75.74)"/><path d="M3.188 44.152h19.526v-12.84H3.188z" fill="#fff"/><path stroke-width=".399" stroke-miterlimit="10" fill="none" stroke="#000" d="M3.188 44.152h19.526v-12.84H3.188z"/><symbol id="c"><path d="M.489.573c.004.015.004.02.004.021 0 .022-.018.032-.034.032A.05.05 0 01.413.588.12.12 0 01.31.645C.185.645.054.511.054.368c0-.103.07-.164.152-.164.046 0 .09.023.125.054L.309.168C.298.126.291.099.253.065.209.028.166.028.141.028.095.028.082.031.064.035a.056.056 0 01.032.05c0 .024-.019.037-.039.037A.059.059 0 010 .061C0 .001.086 0 .142 0 .299 0 .366.08.38.137l.109.436M.351.337C.347.322.347.32.33.3.295.258.247.232.209.232.158.232.134.275.134.327c0 .044.027.156.053.2.042.07.089.09.123.09.07 0 .089-.075.089-.085L.396.517.351.337z"/></symbol><use xlink:href="#c" transform="matrix(6.9738 0 0 -6.9738 6.809 40.899)"/><symbol id="d"><path d="M.43.214a.214.214 0 01-.215.215.214.214 0 110-.429C.335 0 .43.097.43.214M.215.049a.165.165 0 100 .331.165.165 0 100-.331z"/></symbol><use xlink:href="#d" transform="matrix(6.9738 0 0 -6.9738 11.182 39.225)"/><symbol id="e"><path d="M.334.599h.098c.02 0 .033 0 .033.022 0 .014-.013.014-.031.014H.341C.364.762.372.808.38.837.385.859.407.88.431.88.432.88.459.88.478.868A.06.06 0 01.434.813c0-.022.017-.037.04-.037a.06.06 0 01.057.061c0 .046-.049.071-.1.071a.139.139 0 01-.12-.075C.291.796.283.751.262.635H.183C.163.635.15.635.15.613.15.599.163.599.181.599h.074A18.16 18.16 0 00.167.126C.162.104.145.028.097.028c-.001 0-.025 0-.044.012a.06.06 0 01.044.055c0 .022-.017.037-.04.037A.06.06 0 010 .071C0 .026.047 0 .097 0c.064 0 .108.066.12.088A.85.85 0 01.278.29l.056.309z"/></symbol><use xlink:href="#e" transform="matrix(6.9738 0 0 -6.9738 15.236 40.899)"/><symbol id="f"><path d="M.631.194c.015 0 .034 0 .034.02s-.019.02-.033.02H.033C.019.234 0 .234 0 .214s.019-.02.034-.02h.597M.632 0c.014 0 .033 0 .033.02S.646.04.631.04H.034C.019.04 0 .04 0 .02S.019 0 .033 0h.599z"/></symbol><use xlink:href="#f" transform="matrix(9.9626 0 0 -9.9626 37.98 38.151)"/><path stroke-width=".399" stroke-miterlimit="10" fill="none" stroke="#000" d="M69.645 11.128v56.694"/><path d="M69.645 40.608l1.345-3.57-1.345 1.174-1.346-1.175z"/><path stroke-width=".399" stroke-miterlimit="10" fill="none" stroke="#000" d="M69.645 40.608l1.345-3.57-1.345 1.174-1.346-1.175z"/><use xlink:href="#a" transform="matrix(9.9626 0 0 -9.9626 67.086 7.72)"/><use xlink:href="#b" transform="matrix(9.9626 0 0 -9.9626 67.536 75.74)"/><path d="M63.267 29.978h12.756v-12.84H63.267z" fill="#fff"/><path stroke-width=".399" stroke-miterlimit="10" fill="none" stroke="#000" d="M63.267 29.978h12.756v-12.84H63.267z"/><use xlink:href="#e" transform="matrix(6.9738 0 0 -6.9738 67.82 26.726)"/><path d="M63.267 59.203h12.756V46.447H63.267z" fill="#fff"/><path stroke-width=".399" stroke-miterlimit="10" fill="none" stroke="#000" d="M63.267 59.203h12.756V46.447H63.267z"/><use xlink:href="#c" transform="matrix(6.9738 0 0 -6.9738 67.876 55.072)"/><symbol id="g"><path d="M.457.586a.063.063 0 01.004.023c0 .018-.014.027-.029.027A.043.043 0 01.397.615 1.87 1.87 0 01.363.481L.318.301C.314.286.271.216.205.216.154.216.143.26.143.297c0 .046.017.108.051.196.016.041.02.052.02.072a.08.08 0 01-.082.082C.037.647 0 .502 0 .493c0-.01.01-.01.012-.01.01 0 .011.002.016.018.027.094.067.124.101.124.008 0 .025 0 .025-.032 0-.025-.01-.051-.017-.07a.66.66 0 01-.058-.21c0-.089.063-.119.122-.119.039 0 .073.017.101.045C.289.187.277.138.237.085.211.051.173.022.127.022.113.022.068.025.051.064c.016 0 .029 0 .043.012.01.009.02.022.02.041 0 .031-.027.035-.037.035C.054.152.021.136.021.087.021.037.065 0 .127 0 .23 0 .333.091.361.204l.096.382z"/></symbol><use xlink:href="#g" transform="matrix(9.9626 0 0 -9.9626 77.234 42.694)"/></svg>