<svg xmlns="http://www.w3.org/2000/svg" xmlns:xlink="http://www.w3.org/1999/xlink" width="633.4987" height="138.7093" viewBox="0 0 475.124 104.032"><path stroke-width=".3985" stroke-miterlimit="10" fill="none" stroke="#000" d="M62.8606 90.965V34.2714c0-5.6693 0-22.6775-17.0082-22.6775-17.0079 0-17.0079 17.0082-17.0079 22.6775v34.016c0 2.835 0 11.339-5.6693 11.339-5.6696 0-5.6696-8.504-5.6696-11.339V11.594"/><path d="M62.8606 66.0417L61.515 69.613l1.3457-1.1743 1.3457 1.1744z"/><path stroke-width=".3985" stroke-miterlimit="10" fill="none" stroke="#000" d="M62.8606 66.0417L61.515 69.613l1.3457-1.1743 1.3457 1.1744z"/><path d="M17.5055 25.3856l-1.3457 3.5712 1.3457-1.1744 1.3458 1.1744z"/><path stroke-width=".3985" stroke-miterlimit="10" fill="none" stroke="#000" d="M17.5055 25.3856l-1.3457 3.5712 1.3457-1.1744 1.3458 1.1744z"/><path d="M62.8606 66.0417L61.515 69.613l1.3457-1.1743 1.3457 1.1744z"/><path stroke-width=".3985" stroke-miterlimit="10" fill="none" stroke="#000" d="M62.8606 66.0417L61.515 69.613l1.3457-1.1743 1.3457 1.1744z"/><path d="M17.5055 25.3856l-1.3457 3.5712 1.3457-1.1744 1.3458 1.1744z"/><path stroke-width=".3985" stroke-miterlimit="10" fill="none" stroke="#000" d="M17.5055 25.3856l-1.3457 3.5712 1.3457-1.1744 1.3458 1.1744z"/><symbol id="a"><path d="M.305.313c.006.026.029.118.099.118.005 0 .029 0 .05-.013C.426.413.406.388.406.364c0-.016.011-.035.038-.035.022 0 .054.018.054.058 0 .052-.059.066-.093.066C.347.453.312.4.3.377.275.443.221.453.192.453.088.453.031.324.031.299c0-.01.01-.01.012-.01.008 0 .011.002.013.011.034.106.1.131.134.131.019 0 .054-.009.054-.067C.244.333.227.266.19.126.174.064.139.022.095.022c-.006 0-.029 0-.05.013C.07.04.092.061.092.089.092.116.07.124.055.124.025.124 0 .098 0 .066 0 .02.05 0 .094 0 .16 0 .196.07.199.076A.1104.1104 0 01.307 0c.103 0 .16.129.16.154 0 .01-.009.01-.012.01C.446.164.444.16.442.153.409.046.341.022.309.022.27.022.254.054.254.088c0 .022.006.044.017.088l.034.137z"/></symbol><use xlink:href="#a" transform="matrix(9.9626 0 0 -9.9626 60.302 98.8836)"/><symbol id="b"><path d="M.457.586a.063.063 0 01.004.023c0 .018-.014.027-.029.027C.422.636.406.63.397.615A.758.758 0 01.383.561a1.8693 1.8693 0 01-.02-.08L.318.301C.314.286.271.216.205.216.154.216.143.26.143.297c0 .046.017.108.051.196.016.041.02.052.02.072C.214.61.182.647.132.647.037.647 0 .502 0 .493c0-.01.01-.01.012-.01.01 0 .011.002.016.018.027.094.067.124.101.124.008 0 .025 0 .025-.032 0-.025-.01-.051-.017-.07C.097.417.079.36.079.313c0-.089.063-.119.122-.119.039 0 .073.017.101.045C.289.187.277.138.237.085.211.051.173.022.127.022.113.022.068.025.051.064c.016 0 .029 0 .043.012.01.009.02.022.02.041 0 .031-.027.035-.037.035C.054.152.021.136.021.087.021.037.065 0 .127 0 .23 0 .333.091.361.204l.096.382z"/></symbol><use xlink:href="#b" transform="matrix(9.9626 0 0 -9.9626 15.174 9.6523)"/><path stroke-width=".3985" stroke-miterlimit="10" fill="none" stroke="#000" d="M51.522 90.965V34.2714c0-2.8349 0-11.3386-5.6696-11.3386-5.6693 0-5.6693 8.5037-5.6693 11.3386v34.016c0 5.6694 0 22.6776-17.0079 22.6776C6.167 90.965 6.167 73.9568 6.167 68.2875V11.5939"/><path d="M51.522 66.0418l-1.3457 3.5712 1.3458-1.1743 1.3457 1.1743z"/><path stroke-width=".3985" stroke-miterlimit="10" fill="none" stroke="#000" d="M51.522 66.0418l-1.3457 3.5712 1.3458-1.1743 1.3457 1.1743z"/><path d="M6.167 25.3855l-1.3457 3.5712 1.3457-1.1743 1.3457 1.1743z"/><path stroke-width=".3985" stroke-miterlimit="10" fill="none" stroke="#000" d="M6.167 25.3855l-1.3457 3.5712 1.3457-1.1743 1.3457 1.1743z"/><path d="M51.522 66.0418l-1.3457 3.5712 1.3458-1.1743 1.3457 1.1743z"/><path stroke-width=".3985" stroke-miterlimit="10" fill="none" stroke="#000" d="M51.522 66.0418l-1.3457 3.5712 1.3458-1.1743 1.3457 1.1743z"/><path d="M6.167 25.3855l-1.3457 3.5712 1.3457-1.1743 1.3457 1.1743z"/><path stroke-width=".3985" stroke-miterlimit="10" fill="none" stroke="#000" d="M6.167 25.3855l-1.3457 3.5712 1.3457-1.1743 1.3457 1.1743z"/><use xlink:href="#b" transform="matrix(9.9626 0 0 -9.9626 49.19 100.8163)"/><use xlink:href="#a" transform="matrix(9.9626 0 0 -9.9626 3.61 7.7196)"/><path d="M22.5104 59.0642h24.0068V42.056H22.5104z" fill="#fff"/><path stroke-width=".3985" stroke-miterlimit="10" fill="none" stroke="#000" d="M22.5104 59.0642h24.0068V42.056H22.5104z"/><symbol id="c"><path d="M.48.384c.013 0 .049 0 .049.034C.529.442.508.442.49.442H.262C.111.442 0 .277 0 .158 0 .07.059 0 .15 0c.118 0 .251.121.251.275 0 .017 0 .065-.031.109h.11M.151.022C.102.022.062.058.062.13c0 .03.012.112.047.171.042.069.102.083.136.083.084 0 .092-.066.092-.097C.337.24.317.158.283.107.244.048.19.022.151.022z"/></symbol><use xlink:href="#c" transform="matrix(9.9626 0 0 -9.9626 26.2096 51.3896)"/><symbol id="d"><path d="M.201.116C.191.082.158.028.107.028c-.003 0-.033 0-.054.014.041.013.044.049.044.055 0 .022-.017.037-.04.037A.0592.0592 0 010 .073C0 .023.056 0 .105 0c.046 0 .087.029.112.071C.241.018.296 0 .336 0c.115 0 .176.125.176.153 0 .013-.013.013-.016.013C.482.166.481.161.477.149.456.08.396.028.34.028.3.028.279.055.279.093c0 .026.024.117.052.228.02.077.065.102.098.102.002 0 .033 0 .054-.014A.059.059 0 01.439.354c0-.022.017-.037.04-.037s.056.019.056.061c0 .056-.064.073-.104.073C.381.451.341.418.319.38.301.421.255.451.199.451.087.451.023.328.023.298.023.285.037.285.04.285c.013 0 .014.004.019.017.025.078.088.121.137.121.033 0 .06-.018.06-.066 0-.02-.012-.07-.021-.104L.201.116z"/></symbol><symbol id="e"><path d="M.099.209C.099.154.089.09.021.026.017.022.014.019.014.014.014.007.022 0 .028 0c.014 0 .099.08.099.199 0 .062-.024.109-.07.109A.0563.0563 0 010 .251C0 .219.023.193.058.193c.024 0 .04.016.041.016z"/></symbol><symbol id="f"><path d="M.509.581c.004.014.004.016.004.022 0 .02-.016.032-.033.032A.048.048 0 01.439.611C.436.605.428.573.423.553L.402.47C.396.446.365.32.362.309.361.309.317.222.239.222.171.222.171.287.171.305c0 .054.023.117.053.194.012.032.017.044.017.061C.241.608.2.645.146.645.045.645 0 .509 0 .492 0 .479.014.479.017.479c.014 0 .015.005.018.016.025.083.068.122.108.122C.16.617.168.606.168.582.168.559.159.537.154.524.106.402.096.365.096.321c0-.017 0-.064.039-.096.031-.026.073-.031.1-.031.04 0 .076.015.109.045C.331.184.32.142.278.092.251.061.211.028.158.028c-.007 0-.054 0-.075.033.054.006.054.054.054.055 0 .032-.029.038-.039.038C.073.154.04.134.04.088.04.037.088 0 .159 0 .26 0 .383.078.414.203l.095.378z"/></symbol><use xlink:href="#d" transform="matrix(6.9738 0 0 -6.9738 31.8587 52.8447)"/><use xlink:href="#e" transform="matrix(6.9738 0 0 -6.9738 36.824 54.121)"/><use xlink:href="#f" transform="matrix(6.9738 0 0 -6.9738 38.735 54.1977)"/><symbol id="g"><path d="M.631.194c.015 0 .034 0 .034.02s-.019.02-.033.02H.033C.019.234 0 .234 0 .214s.019-.02.034-.02h.597M.632 0c.014 0 .033 0 .033.02S.646.04.631.04H.034C.019.04 0 .04 0 .02S.019 0 .033 0h.599z"/></symbol><use xlink:href="#g" transform="matrix(9.9626 0 0 -9.9626 75.896 51.939)"/><path stroke-width=".3985" stroke-miterlimit="10" fill="none" stroke="#000" d="M150.9286 90.965V34.2714c0-5.6693 0-22.6775-17.0082-22.6775-17.0079 0-17.0079 17.0082-17.0079 22.6775v5.6693c0 11.339 11.3386 11.339 11.3386 22.6775v5.6693c0 5.6693 0 22.6775-17.0079 22.6775-17.0082 0-17.0082-17.0082-17.0082-22.6775V11.5939"/><path d="M150.9286 65.9997l-1.3457 3.5712 1.3457-1.1743 1.3457 1.1743z"/><path stroke-width=".3985" stroke-miterlimit="10" fill="none" stroke="#000" d="M150.9286 65.9997l-1.3457 3.5712 1.3457-1.1743 1.3457 1.1743z"/><path d="M94.235 25.6299l-1.3457 3.5712 1.3457-1.1744 1.3457 1.1744z"/><path stroke-width=".3985" stroke-miterlimit="10" fill="none" stroke="#000" d="M94.235 25.6299l-1.3457 3.5712 1.3457-1.1744 1.3457 1.1744z"/><path d="M150.9286 65.9997l-1.3457 3.5712 1.3457-1.1743 1.3457 1.1743z"/><path stroke-width=".3985" stroke-miterlimit="10" fill="none" stroke="#000" d="M150.9286 65.9997l-1.3457 3.5712 1.3457-1.1743 1.3457 1.1743z"/><path d="M94.235 25.6299l-1.3457 3.5712 1.3457-1.1744 1.3457 1.1744z"/><path stroke-width=".3985" stroke-miterlimit="10" fill="none" stroke="#000" d="M94.235 25.6299l-1.3457 3.5712 1.3457-1.1744 1.3457 1.1744z"/><use xlink:href="#a" transform="matrix(9.9626 0 0 -9.9626 148.3699 98.8836)"/><use xlink:href="#a" transform="matrix(9.9626 0 0 -9.9626 91.677 7.7196)"/><path d="M125.5706 51.2797c0-1.6508-1.338-2.9889-2.9888-2.9889-1.6507 0-2.9888 1.3381-2.9888 2.9889 0 1.6507 1.338 2.9888 2.9888 2.9888 1.6507 0 2.9888-1.3381 2.9888-2.9888zm-2.9888 0" fill="#fff"/><path stroke-width=".3985" stroke-miterlimit="10" fill="none" stroke="#fff" d="M125.5706 51.2797c0-1.6508-1.338-2.9889-2.9888-2.9889-1.6507 0-2.9888 1.3381-2.9888 2.9889 0 1.6507 1.338 2.9888 2.9888 2.9888 1.6507 0 2.9888-1.3381 2.9888-2.9888zm-2.9888 0"/><path stroke-width=".3985" stroke-miterlimit="10" fill="none" stroke="#000" d="M139.59 90.965V34.2714c0-2.8349 0-11.3386-5.6697-11.3386-5.6692 0-5.6692 8.5037-5.6692 11.3386v5.6693c0 11.339-11.3386 11.339-11.3386 22.6775v5.6693c0 2.8348 0 11.339-5.6693 11.339-5.6697 0-5.6697-8.5042-5.6697-11.339V11.5939"/><path d="M139.59 66.2284l-1.3457 3.5712 1.3458-1.1744 1.3457 1.1744z"/><path stroke-width=".3985" stroke-miterlimit="10" fill="none" stroke="#000" d="M139.59 66.2284l-1.3457 3.5712 1.3458-1.1744 1.3457 1.1744z"/><path d="M105.5735 25.6442l-1.3457 3.5712 1.3457-1.1743 1.3458 1.1743z"/><path stroke-width=".3985" stroke-miterlimit="10" fill="none" stroke="#000" d="M105.5735 25.6442l-1.3457 3.5712 1.3457-1.1743 1.3458 1.1743z"/><path d="M139.59 66.2284l-1.3457 3.5712 1.3458-1.1744 1.3457 1.1744z"/><path stroke-width=".3985" stroke-miterlimit="10" fill="none" stroke="#000" d="M139.59 66.2284l-1.3457 3.5712 1.3458-1.1744 1.3457 1.1744z"/><path d="M105.5735 25.6442l-1.3457 3.5712 1.3457-1.1743 1.3458 1.1743z"/><path stroke-width=".3985" stroke-miterlimit="10" fill="none" stroke="#000" d="M105.5735 25.6442l-1.3457 3.5712 1.3457-1.1743 1.3458 1.1743z"/><use xlink:href="#b" transform="matrix(9.9626 0 0 -9.9626 137.2579 100.8163)"/><use xlink:href="#b" transform="matrix(9.9626 0 0 -9.9626 103.241 9.6523)"/><use xlink:href="#g" transform="matrix(9.9626 0 0 -9.9626 163.9629 51.939)"/><path stroke-width=".3985" stroke-miterlimit="10" fill="none" stroke="#000" d="M238.9966 90.965V34.2714c0-5.6693 0-22.6775-17.0082-22.6775-17.0079 0-17.0079 17.0082-17.0079 22.6775 0 8.5041 11.3386 8.5041 11.3386 17.0083 0 5.6692 0 22.677-17.0079 22.677-17.0082 0-17.0082-17.0078-17.0082-22.677V11.5939"/><path d="M238.9966 66.0527l-1.3457 3.5712 1.3457-1.1744 1.3457 1.1744z"/><path stroke-width=".3985" stroke-miterlimit="10" fill="none" stroke="#000" d="M238.9966 66.0527l-1.3457 3.5712 1.3457-1.1744 1.3457 1.1744z"/><path d="M182.303 25.5203l-1.3457 3.5712 1.3457-1.1743 1.3457 1.1743z"/><path stroke-width=".3985" stroke-miterlimit="10" fill="none" stroke="#000" d="M182.303 25.5203l-1.3457 3.5712 1.3457-1.1743 1.3457 1.1743z"/><path d="M238.9966 66.0527l-1.3457 3.5712 1.3457-1.1744 1.3457 1.1744z"/><path stroke-width=".3985" stroke-miterlimit="10" fill="none" stroke="#000" d="M238.9966 66.0527l-1.3457 3.5712 1.3457-1.1744 1.3457 1.1744z"/><path d="M182.303 25.5203l-1.3457 3.5712 1.3457-1.1743 1.3457 1.1743z"/><path stroke-width=".3985" stroke-miterlimit="10" fill="none" stroke="#000" d="M182.303 25.5203l-1.3457 3.5712 1.3457-1.1743 1.3457 1.1743z"/><use xlink:href="#a" transform="matrix(9.9626 0 0 -9.9626 236.4379 98.8836)"/><use xlink:href="#a" transform="matrix(9.9626 0 0 -9.9626 179.7449 7.7196)"/><path d="M213.6386 42.7755c0-1.6507-1.338-2.9888-2.9888-2.9888-1.6507 0-2.9888 1.3381-2.9888 2.9888 0 1.6507 1.338 2.9889 2.9888 2.9889 1.6507 0 2.9888-1.3382 2.9888-2.9889zm-6.1674 30.3309c0-1.3756-1.1151-2.4907-2.4907-2.4907s-2.4907 1.1151-2.4907 2.4907 1.1151 2.4907 2.4907 2.4907 2.4907-1.1151 2.4907-2.4907zm-11.339 0c0-1.3756-1.115-2.4907-2.4906-2.4907-1.3756 0-2.4907 1.1151-2.4907 2.4907s1.115 2.4907 2.4907 2.4907c1.3755 0 2.4906-1.1151 2.4906-2.4907zm-2.4906 0" fill="#fff"/><path stroke-width=".3985" stroke-miterlimit="10" fill="none" stroke="#fff" d="M213.6386 42.7755c0-1.6507-1.338-2.9888-2.9888-2.9888-1.6507 0-2.9888 1.3381-2.9888 2.9888 0 1.6507 1.338 2.9889 2.9888 2.9889 1.6507 0 2.9888-1.3382 2.9888-2.9889zm-6.1674 30.3309c0-1.3756-1.1151-2.4907-2.4907-2.4907s-2.4907 1.1151-2.4907 2.4907 1.1151 2.4907 2.4907 2.4907 2.4907-1.1151 2.4907-2.4907zm-11.339 0c0-1.3756-1.115-2.4907-2.4906-2.4907-1.3756 0-2.4907 1.1151-2.4907 2.4907s1.115 2.4907 2.4907 2.4907c1.3755 0 2.4906-1.1151 2.4906-2.4907zm-2.4906 0"/><path stroke-width=".3985" stroke-miterlimit="10" fill="none" stroke="#000" d="M227.658 90.965V34.2714c0-2.8349 0-11.3386-5.6696-11.3386-5.6693 0-5.6693 8.5037-5.6693 11.3386 0 8.5041-11.3386 8.5041-11.3386 17.0083v28.3468c0 2.8344 0 11.3385-5.6693 11.3385-5.6697 0-5.6697-8.5041-5.6697-11.3385V11.5939"/><path d="M227.658 66.13l-1.3457 3.5713 1.3458-1.1744 1.3457 1.1744z"/><path stroke-width=".3985" stroke-miterlimit="10" fill="none" stroke="#000" d="M227.658 66.13l-1.3457 3.5713 1.3458-1.1744 1.3457 1.1744z"/><path d="M193.6415 25.555l-1.3457 3.5712 1.3457-1.1744 1.3458 1.1744z"/><path stroke-width=".3985" stroke-miterlimit="10" fill="none" stroke="#000" d="M193.6415 25.555l-1.3457 3.5712 1.3457-1.1744 1.3458 1.1744z"/><path d="M227.658 66.13l-1.3457 3.5713 1.3458-1.1744 1.3457 1.1744z"/><path stroke-width=".3985" stroke-miterlimit="10" fill="none" stroke="#000" d="M227.658 66.13l-1.3457 3.5713 1.3458-1.1744 1.3457 1.1744z"/><path d="M193.6415 25.555l-1.3457 3.5712 1.3457-1.1744 1.3458 1.1744z"/><path stroke-width=".3985" stroke-miterlimit="10" fill="none" stroke="#000" d="M193.6415 25.555l-1.3457 3.5712 1.3457-1.1744 1.3458 1.1744z"/><use xlink:href="#b" transform="matrix(9.9626 0 0 -9.9626 225.3249 100.8163)"/><use xlink:href="#b" transform="matrix(9.9626 0 0 -9.9626 191.3089 9.6523)"/><use xlink:href="#g" transform="matrix(9.9626 0 0 -9.9626 252.031 51.939)"/><path stroke-width=".3985" stroke-miterlimit="10" fill="none" stroke="#000" d="M327.0636 90.965V34.2714c0-5.6693 0-22.6775-17.0082-22.6775-17.0079 0-17.0079 17.0082-17.0079 22.6775 0 8.5041 11.3386 8.5041 11.3386 17.0083 0 8.5036-11.3386 8.5036-11.3386 17.0078 0 2.8348 0 11.339-5.6693 11.339-5.6697 0-5.6697-8.5042-5.6697-11.339v-5.6693c0-11.3385-11.3385-11.3385-11.3385-22.6775V11.5939"/><path d="M327.0636 66.2604l-1.3457 3.5712 1.3457-1.1744 1.3457 1.1744z"/><path stroke-width=".3985" stroke-miterlimit="10" fill="none" stroke="#000" d="M327.0636 66.2604l-1.3457 3.5712 1.3457-1.1744 1.3457 1.1744z"/><path d="M270.37 25.5532l-1.3457 3.5712L270.37 27.95l1.3457 1.1744z"/><path stroke-width=".3985" stroke-miterlimit="10" fill="none" stroke="#000" d="M270.37 25.5532l-1.3457 3.5712L270.37 27.95l1.3457 1.1744z"/><path d="M327.0636 66.2604l-1.3457 3.5712 1.3457-1.1744 1.3457 1.1744z"/><path stroke-width=".3985" stroke-miterlimit="10" fill="none" stroke="#000" d="M327.0636 66.2604l-1.3457 3.5712 1.3457-1.1744 1.3457 1.1744z"/><path d="M270.37 25.5532l-1.3457 3.5712L270.37 27.95l1.3457 1.1744z"/><path stroke-width=".3985" stroke-miterlimit="10" fill="none" stroke="#000" d="M270.37 25.5532l-1.3457 3.5712L270.37 27.95l1.3457 1.1744z"/><use xlink:href="#a" transform="matrix(9.9626 0 0 -9.9626 324.5049 98.8836)"/><use xlink:href="#a" transform="matrix(9.9626 0 0 -9.9626 267.812 7.7196)"/><path d="M301.7056 42.7755c0-1.6507-1.338-2.9888-2.9888-2.9888-1.6507 0-2.9888 1.3381-2.9888 2.9888 0 1.6507 1.338 2.9889 2.9888 2.9889 1.6507 0 2.9888-1.3382 2.9888-2.9889zm0 17.0078c0-1.6506-1.338-2.9888-2.9888-2.9888-1.6507 0-2.9888 1.3382-2.9888 2.9888 0 1.6508 1.338 2.9889 2.9888 2.9889 1.6507 0 2.9888-1.3381 2.9888-2.9889zm-22.6775-8.5036c0-1.6508-1.3381-2.9889-2.9888-2.9889-1.6508 0-2.9889 1.3381-2.9889 2.9889 0 1.6507 1.3381 2.9888 2.9889 2.9888 1.6507 0 2.9888-1.3381 2.9888-2.9888zm-2.9888 0" fill="#fff"/><path stroke-width=".3985" stroke-miterlimit="10" fill="none" stroke="#fff" d="M301.7056 42.7755c0-1.6507-1.338-2.9888-2.9888-2.9888-1.6507 0-2.9888 1.3381-2.9888 2.9888 0 1.6507 1.338 2.9889 2.9888 2.9889 1.6507 0 2.9888-1.3382 2.9888-2.9889zm0 17.0078c0-1.6506-1.338-2.9888-2.9888-2.9888-1.6507 0-2.9888 1.3382-2.9888 2.9888 0 1.6508 1.338 2.9889 2.9888 2.9889 1.6507 0 2.9888-1.3381 2.9888-2.9889zm-22.6775-8.5036c0-1.6508-1.3381-2.9889-2.9888-2.9889-1.6508 0-2.9889 1.3381-2.9889 2.9889 0 1.6507 1.3381 2.9888 2.9889 2.9888 1.6507 0 2.9888-1.3381 2.9888-2.9888zm-2.9888 0"/><path stroke-width=".3985" stroke-miterlimit="10" fill="none" stroke="#000" d="M315.725 90.965V34.2714c0-2.8349 0-11.3386-5.6697-11.3386-5.6692 0-5.6692 8.5037-5.6692 11.3386 0 8.5041-11.3386 8.5041-11.3386 17.0083 0 8.5036 11.3386 8.5036 11.3386 17.0078 0 5.6693 0 22.6775-17.0079 22.6775-17.0082 0-17.0082-17.0082-17.0082-22.6775v-5.6693c0-11.3385 11.3385-11.3385 11.3385-22.6775V11.5939"/><path d="M315.725 66.2604l-1.3456 3.5712 1.3457-1.1743 1.3457 1.1743z"/><path stroke-width=".3985" stroke-miterlimit="10" fill="none" stroke="#000" d="M315.725 66.2604l-1.3456 3.5712 1.3457-1.1743 1.3457 1.1743z"/><path d="M281.7086 25.5532l-1.3457 3.5712 1.3457-1.1744 1.3457 1.1744z"/><path stroke-width=".3985" stroke-miterlimit="10" fill="none" stroke="#000" d="M281.7086 25.5532l-1.3457 3.5712 1.3457-1.1744 1.3457 1.1744z"/><path d="M315.725 66.2604l-1.3456 3.5712 1.3457-1.1743 1.3457 1.1743z"/><path stroke-width=".3985" stroke-miterlimit="10" fill="none" stroke="#000" d="M315.725 66.2604l-1.3456 3.5712 1.3457-1.1743 1.3457 1.1743z"/><path d="M281.7086 25.5532l-1.3457 3.5712 1.3457-1.1744 1.3457 1.1744z"/><path stroke-width=".3985" stroke-miterlimit="10" fill="none" stroke="#000" d="M281.7086 25.5532l-1.3457 3.5712 1.3457-1.1744 1.3457 1.1744z"/><use xlink:href="#b" transform="matrix(9.9626 0 0 -9.9626 313.3929 100.8163)"/><use xlink:href="#b" transform="matrix(9.9626 0 0 -9.9626 279.3769 9.6523)"/><use xlink:href="#g" transform="matrix(9.9626 0 0 -9.9626 340.0979 51.939)"/><path stroke-width=".3985" stroke-miterlimit="10" fill="none" stroke="#000" d="M415.1316 90.965V34.2714c0-5.6693 0-22.6775-17.0082-22.6775-17.0079 0-17.0079 17.0082-17.0079 22.6775v34.016c0 2.835 0 11.339-5.6693 11.339-5.6696 0-5.6696-8.504-5.6696-11.339v-5.6692c0-11.3385-11.3386-11.3385-11.3386-22.6775V11.5939"/><path d="M415.1316 67.1314l-1.3457 3.5712 1.3457-1.1743 1.3457 1.1743z"/><path stroke-width=".3985" stroke-miterlimit="10" fill="none" stroke="#000" d="M415.1316 67.1314l-1.3457 3.5712 1.3457-1.1743 1.3457 1.1743z"/><path d="M358.438 25.0916l-1.3457 3.5712 1.3457-1.1744 1.3457 1.1744z"/><path stroke-width=".3985" stroke-miterlimit="10" fill="none" stroke="#000" d="M358.438 25.0916l-1.3457 3.5712 1.3457-1.1744 1.3457 1.1744z"/><path d="M415.1316 67.1314l-1.3457 3.5712 1.3457-1.1743 1.3457 1.1743z"/><path stroke-width=".3985" stroke-miterlimit="10" fill="none" stroke="#000" d="M415.1316 67.1314l-1.3457 3.5712 1.3457-1.1743 1.3457 1.1743z"/><path d="M358.438 25.0916l-1.3457 3.5712 1.3457-1.1744 1.3457 1.1744z"/><path stroke-width=".3985" stroke-miterlimit="10" fill="none" stroke="#000" d="M358.438 25.0916l-1.3457 3.5712 1.3457-1.1744 1.3457 1.1744z"/><use xlink:href="#a" transform="matrix(9.9626 0 0 -9.9626 412.5729 98.8836)"/><use xlink:href="#a" transform="matrix(9.9626 0 0 -9.9626 355.8799 7.7196)"/><path d="M367.0961 51.2797c0-1.6508-1.3381-2.9889-2.9888-2.9889-1.6508 0-2.9889 1.3381-2.9889 2.9889 0 1.6507 1.3381 2.9888 2.9889 2.9888 1.6507 0 2.9888-1.3381 2.9888-2.9888zm-2.9888 0" fill="#fff"/><path stroke-width=".3985" stroke-miterlimit="10" fill="none" stroke="#fff" d="M367.0961 51.2797c0-1.6508-1.3381-2.9889-2.9888-2.9889-1.6508 0-2.9889 1.3381-2.9889 2.9889 0 1.6507 1.3381 2.9888 2.9889 2.9888 1.6507 0 2.9888-1.3381 2.9888-2.9888zm-2.9888 0"/><path stroke-width=".3985" stroke-miterlimit="10" fill="none" stroke="#000" d="M403.793 90.965V34.2714c0-2.8349 0-11.3386-5.6697-11.3386-5.6692 0-5.6692 8.5037-5.6692 11.3386v34.016c0 5.6694 0 22.6776-17.0079 22.6776-17.0082 0-17.0082-17.0082-17.0082-22.6775v-5.6693c0-11.3385 11.3385-11.3385 11.3385-22.6775V11.5939"/><path d="M403.793 67.1315l-1.3457 3.5712 1.3458-1.1744 1.3457 1.1744z"/><path stroke-width=".3985" stroke-miterlimit="10" fill="none" stroke="#000" d="M403.793 67.1315l-1.3457 3.5712 1.3458-1.1744 1.3457 1.1744z"/><path d="M369.7766 25.0916l-1.3458 3.5712 1.3458-1.1744 1.3457 1.1744z"/><path stroke-width=".3985" stroke-miterlimit="10" fill="none" stroke="#000" d="M369.7766 25.0916l-1.3458 3.5712 1.3458-1.1744 1.3457 1.1744z"/><path d="M403.793 67.1315l-1.3457 3.5712 1.3458-1.1744 1.3457 1.1744z"/><path stroke-width=".3985" stroke-miterlimit="10" fill="none" stroke="#000" d="M403.793 67.1315l-1.3457 3.5712 1.3458-1.1744 1.3457 1.1744z"/><path d="M369.7766 25.0916l-1.3458 3.5712 1.3458-1.1744 1.3457 1.1744z"/><path stroke-width=".3985" stroke-miterlimit="10" fill="none" stroke="#000" d="M369.7766 25.0916l-1.3458 3.5712 1.3458-1.1744 1.3457 1.1744z"/><use xlink:href="#b" transform="matrix(9.9626 0 0 -9.9626 401.4599 100.8163)"/><use xlink:href="#b" transform="matrix(9.9626 0 0 -9.9626 367.4439 9.6523)"/><use xlink:href="#g" transform="matrix(9.9626 0 0 -9.9626 428.1659 51.939)"/><path stroke-width=".3985" stroke-miterlimit="10" fill="none" stroke="#000" d="M469.1825 90.965V73.9568c0-22.6771-22.6775-22.6771-22.6775-45.3547V11.594"/><path d="M446.505 25.1243l-1.3457 3.5712 1.3457-1.1744 1.3457 1.1744z"/><path stroke-width=".3985" stroke-miterlimit="10" fill="none" stroke="#000" d="M446.505 25.1243l-1.3457 3.5712 1.3457-1.1744 1.3457 1.1744z"/><use xlink:href="#a" transform="matrix(9.9626 0 0 -9.9626 443.947 7.7196)"/><path d="M460.8324 51.2797c0-1.6508-1.3382-2.9889-2.9889-2.9889s-2.9888 1.3381-2.9888 2.9889c0 1.6507 1.3381 2.9888 2.9889 2.9888 1.6506 0 2.9888-1.3381 2.9888-2.9888zm-2.9889 0" fill="#fff"/><path stroke-width=".3985" stroke-miterlimit="10" fill="none" stroke="#fff" d="M460.8324 51.2797c0-1.6508-1.3382-2.9889-2.9889-2.9889s-2.9888 1.3381-2.9888 2.9889c0 1.6507 1.3381 2.9888 2.9889 2.9888 1.6506 0 2.9888-1.3381 2.9888-2.9888zm-2.9889 0"/><path stroke-width=".3985" stroke-miterlimit="10" fill="none" stroke="#000" d="M446.505 90.965V73.9568c0-22.6771 22.6775-22.6771 22.6775-45.3547V11.594"/><path d="M469.1825 25.1242l-1.3457 3.5712 1.3457-1.1743 1.3458 1.1743z"/><path stroke-width=".3985" stroke-miterlimit="10" fill="none" stroke="#000" d="M469.1825 25.1242l-1.3457 3.5712 1.3457-1.1743 1.3458 1.1743z"/><use xlink:href="#b" transform="matrix(9.9626 0 0 -9.9626 466.851 9.6523)"/></svg>