<svg xmlns="http://www.w3.org/2000/svg" xmlns:xlink="http://www.w3.org/1999/xlink" width="205.58pt" height="64.76pt" viewBox="0 0 205.58 64.76"><path stroke-width=".3985" stroke-miterlimit="10" fill="none" stroke="#000" d="M28.6185 16.2164v28.3468c0 2.8349 0 17.0082-11.339 17.0082-11.3385 0-11.3385-14.1733-11.3385-17.0082V16.2164m22.6775 25.512"/><path d="M28.6185 26.9569l1.3457-3.5712-1.3457 1.1743-1.3457-1.1743z"/><path stroke-width=".3985" stroke-miterlimit="10" fill="none" stroke="#000" d="M28.6185 26.9569l1.3457-3.5712-1.3457 1.1743-1.3457-1.1743z"/><path d="M5.941 22.9516l-1.3457 3.5712 1.3457-1.1744 1.3457 1.1744z"/><path stroke-width=".3985" stroke-miterlimit="10" fill="none" stroke="#000" d="M5.941 22.9516l-1.3457 3.5712 1.3457-1.1744 1.3457 1.1744z"/><path d="M28.6185 26.9569l1.3457-3.5712-1.3457 1.1743-1.3457-1.1743z"/><path stroke-width=".3985" stroke-miterlimit="10" fill="none" stroke="#000" d="M28.6185 26.9569l1.3457-3.5712-1.3457 1.1743-1.3457-1.1743z"/><path d="M5.941 22.9516l-1.3457 3.5712 1.3457-1.1744 1.3457 1.1744z"/><path stroke-width=".3985" stroke-miterlimit="10" fill="none" stroke="#000" d="M5.941 22.9516l-1.3457 3.5712 1.3457-1.1744 1.3457 1.1744z"/><symbol id="a"><path d="M.305.313c.006.026.029.118.099.118.005 0 .029 0 .05-.013C.426.413.406.388.406.364c0-.016.011-.035.038-.035.022 0 .054.018.054.058 0 .052-.059.066-.093.066C.347.453.312.4.3.377.275.443.221.453.192.453.088.453.031.324.031.299c0-.01.01-.01.012-.01.008 0 .011.002.013.011.034.106.1.131.134.131.019 0 .054-.009.054-.067C.244.333.227.266.19.126.174.064.139.022.095.022c-.006 0-.029 0-.05.013C.07.04.092.061.092.089.092.116.07.124.055.124.025.124 0 .098 0 .066 0 .02.05 0 .094 0 .16 0 .196.07.199.076A.1104.1104 0 01.307 0c.103 0 .16.129.16.154 0 .01-.009.01-.012.01C.446.164.444.16.442.153.409.046.341.022.309.022.27.022.254.054.254.088c0 .022.006.044.017.088l.034.137z"/></symbol><use xlink:href="#a" transform="matrix(9.9626 0 0 -9.9626 26.061 12.3406)"/><symbol id="b"><path d="M.457.586a.063.063 0 01.004.023c0 .018-.014.027-.029.027C.422.636.406.63.397.615A.758.758 0 01.383.561a1.8693 1.8693 0 01-.02-.08L.318.301C.314.286.271.216.205.216.154.216.143.26.143.297c0 .046.017.108.051.196.016.041.02.052.02.072C.214.61.182.647.132.647.037.647 0 .502 0 .493c0-.01.01-.01.012-.01.01 0 .011.002.016.018.027.094.067.124.101.124.008 0 .025 0 .025-.032 0-.025-.01-.051-.017-.07C.097.417.079.36.079.313c0-.089.063-.119.122-.119.039 0 .073.017.101.045C.289.187.277.138.237.085.211.051.173.022.127.022.113.022.068.025.051.064c.016 0 .029 0 .043.012.01.009.02.022.02.041 0 .031-.027.035-.037.035C.054.152.021.136.021.087.021.037.065 0 .127 0 .23 0 .333.091.361.204l.096.382z"/></symbol><use xlink:href="#b" transform="matrix(9.9626 0 0 -9.9626 3.609 14.2733)"/><path d="M22.9646 46.405h11.3078V32.6337H22.9646z" fill="#fff"/><path stroke-width=".3985" stroke-miterlimit="10" fill="none" stroke="#000" d="M22.9646 46.405h11.3078V32.6337H22.9646z"/><symbol id="c"><path d="M.334.599h.098c.02 0 .033 0 .033.022 0 .014-.013.014-.031.014H.341C.364.762.372.808.38.837.385.859.407.88.431.88.432.88.459.88.478.868A.0596.0596 0 01.434.813c0-.022.017-.037.04-.037.027 0 .057.023.057.061 0 .046-.049.071-.1.071C.387.908.338.883.311.833.291.796.283.751.262.635H.183C.163.635.15.635.15.613.15.599.163.599.181.599h.074C.254.593.191.233.167.126.162.104.145.028.097.028c-.001 0-.025 0-.044.012.041.013.044.049.044.055 0 .022-.017.037-.04.037A.0592.0592 0 010 .071C0 .026.047 0 .097 0c.064 0 .108.066.12.088.036.067.059.19.061.202l.056.309z"/></symbol><use xlink:href="#c" transform="matrix(6.9738 0 0 -6.9738 26.794 43.1507)"/><symbol id="d"><path d="M.665.214c0 .02-.019.02-.033.02H.033C.019.234 0 .234 0 .214s.019-.02.034-.02h.597c.015 0 .034 0 .034.02m0-.194c0 .02-.019.02-.034.02H.034C.019.04 0 .04 0 .02S.019 0 .033 0h.599c.014 0 .033 0 .033.02z"/></symbol><use xlink:href="#d" transform="matrix(9.9626 0 0 -9.9626 41.979 32.1)"/><path stroke-width=".3985" stroke-miterlimit="10" fill="none" stroke="#000" d="M86.9395 16.2164v28.3468c0 2.8349 0 17.0082-11.339 17.0082-11.3385 0-11.3385-14.1733-11.3385-17.0082V16.2164m0 25.512"/><path d="M86.9395 26.9569l1.3457-3.5712-1.3457 1.1743-1.3457-1.1743z"/><path stroke-width=".3985" stroke-miterlimit="10" fill="none" stroke="#000" d="M86.9395 26.9569l1.3457-3.5712-1.3457 1.1743-1.3457-1.1743z"/><path d="M64.262 22.9516l-1.3457 3.5712 1.3457-1.1744 1.3457 1.1744z"/><path stroke-width=".3985" stroke-miterlimit="10" fill="none" stroke="#000" d="M64.262 22.9516l-1.3457 3.5712 1.3457-1.1744 1.3457 1.1744z"/><path d="M86.9395 26.9569l1.3457-3.5712-1.3457 1.1743-1.3457-1.1743z"/><path stroke-width=".3985" stroke-miterlimit="10" fill="none" stroke="#000" d="M86.9395 26.9569l1.3457-3.5712-1.3457 1.1743-1.3457-1.1743z"/><path d="M64.262 22.9516l-1.3457 3.5712 1.3457-1.1744 1.3457 1.1744z"/><path stroke-width=".3985" stroke-miterlimit="10" fill="none" stroke="#000" d="M64.262 22.9516l-1.3457 3.5712 1.3457-1.1744 1.3457 1.1744z"/><use xlink:href="#a" transform="matrix(9.9626 0 0 -9.9626 84.382 12.3406)"/><use xlink:href="#b" transform="matrix(9.9626 0 0 -9.9626 61.93 14.2733)"/><path d="M56.0067 46.405h16.5106V32.6337H56.0067z" fill="#fff"/><path stroke-width=".3985" stroke-miterlimit="10" fill="none" stroke="#000" d="M56.0067 46.405h16.5106V32.6337H56.0067z"/><use xlink:href="#c" transform="matrix(6.9738 0 0 -6.9738 59.836 43.1507)"/><symbol id="e"><path d="M.686.578C.693.591.694.596.694.6c0 .015-.013.028-.028.028C.65.628.645.618.638.606L.347.085.056.606C.049.618.044.628.028.628A.0286.0286 0 010 .6C0 .593.002.59.008.579L.319.022C.326.009.331 0 .347 0s.021.009.028.022l.311.556z"/></symbol><use xlink:href="#e" transform="matrix(4.9813 0 0 -4.9813 64.6157 38.8316)"/><path stroke-width=".3985" stroke-miterlimit="10" fill="none" stroke="#000" d="M144.9685 48.544V20.1972c0-2.8349 0-17.0083-11.339-17.0083-11.3385 0-11.3385 14.1734-11.3385 17.0083V48.544m0-21.2601"/><path d="M144.9685 38.831l-1.3457 3.5712 1.3457-1.1744 1.3457 1.1744z"/><path stroke-width=".3985" stroke-miterlimit="10" fill="none" stroke="#000" d="M144.9685 38.831l-1.3457 3.5712 1.3457-1.1744 1.3457 1.1744z"/><path d="M122.291 42.8362l1.3457-3.5711-1.3457 1.1743-1.3457-1.1743z"/><path stroke-width=".3985" stroke-miterlimit="10" fill="none" stroke="#000" d="M122.291 42.8362l1.3457-3.5711-1.3457 1.1743-1.3457-1.1743z"/><path d="M144.9685 38.831l-1.3457 3.5712 1.3457-1.1744 1.3457 1.1744z"/><path stroke-width=".3985" stroke-miterlimit="10" fill="none" stroke="#000" d="M144.9685 38.831l-1.3457 3.5712 1.3457-1.1744 1.3457 1.1744z"/><path d="M122.291 42.8362l1.3457-3.5711-1.3457 1.1743-1.3457-1.1743z"/><path stroke-width=".3985" stroke-miterlimit="10" fill="none" stroke="#000" d="M122.291 42.8362l1.3457-3.5711-1.3457 1.1743-1.3457-1.1743z"/><use xlink:href="#a" transform="matrix(9.9626 0 0 -9.9626 142.411 56.6236)"/><use xlink:href="#b" transform="matrix(9.9626 0 0 -9.9626 119.959 58.5563)"/><path d="M116.6371 31.9605h11.3078V18.1893H116.637z" fill="#fff"/><path stroke-width=".3985" stroke-miterlimit="10" fill="none" stroke="#000" d="M116.6371 31.9605h11.3078V18.1893H116.637z"/><use xlink:href="#c" transform="matrix(6.9738 0 0 -6.9738 120.467 28.7067)"/><use xlink:href="#d" transform="matrix(9.9626 0 0 -9.9626 155.011 32.1)"/><path stroke-width=".3985" stroke-miterlimit="10" fill="none" stroke="#000" d="M194.1405 48.544V20.1972c0-2.8349 0-17.0083-11.339-17.0083-11.3385 0-11.3385 14.1734-11.3385 17.0083V48.544m22.6775-21.2601"/><path d="M194.1405 38.831l-1.3457 3.5712 1.3457-1.1744 1.3457 1.1744z"/><path stroke-width=".3985" stroke-miterlimit="10" fill="none" stroke="#000" d="M194.1405 38.831l-1.3457 3.5712 1.3457-1.1744 1.3457 1.1744z"/><path d="M171.463 42.8362l1.3457-3.5711-1.3457 1.1743-1.3457-1.1743z"/><path stroke-width=".3985" stroke-miterlimit="10" fill="none" stroke="#000" d="M171.463 42.8362l1.3457-3.5711-1.3457 1.1743-1.3457-1.1743z"/><path d="M194.1405 38.831l-1.3457 3.5712 1.3457-1.1744 1.3457 1.1744z"/><path stroke-width=".3985" stroke-miterlimit="10" fill="none" stroke="#000" d="M194.1405 38.831l-1.3457 3.5712 1.3457-1.1744 1.3457 1.1744z"/><path d="M171.463 42.8362l1.3457-3.5711-1.3457 1.1743-1.3457-1.1743z"/><path stroke-width=".3985" stroke-miterlimit="10" fill="none" stroke="#000" d="M171.463 42.8362l1.3457-3.5711-1.3457 1.1743-1.3457-1.1743z"/><use xlink:href="#a" transform="matrix(9.9626 0 0 -9.9626 191.583 56.6236)"/><use xlink:href="#b" transform="matrix(9.9626 0 0 -9.9626 169.1309 58.5563)"/><path d="M185.8852 31.9605h16.5106V18.1893h-16.5106z" fill="#fff"/><path stroke-width=".3985" stroke-miterlimit="10" fill="none" stroke="#000" d="M185.8852 31.9605h16.5106V18.1893h-16.5106z"/><use xlink:href="#c" transform="matrix(6.9738 0 0 -6.9738 189.715 28.7067)"/><use xlink:href="#e" transform="matrix(4.9813 0 0 -4.9813 194.4957 24.3866)"/></svg>