<svg xmlns="http://www.w3.org/2000/svg" width="370.635" height="176.637" viewBox="0 -132.478 277.976 132.478"><path d="M13.91-119.218c.06-.26.289-1.176.986-1.176.05 0 .29 0 .498.13-.279.05-.478.299-.478.538 0 .16.11.348.379.348a.555.555 0 00.538-.577c0-.518-.588-.658-.927-.658-.578 0-.926.528-1.046.757-.249-.657-.787-.757-1.075-.757-1.037 0-1.604 1.285-1.604 1.534 0 .1.1.1.12.1.079 0 .109-.02.129-.11.338-1.056.996-1.305 1.335-1.305.189 0 .537.09.537.668 0 .308-.169.976-.537 2.37-.16.618-.509 1.036-.947 1.036-.06 0-.289 0-.498-.13.25-.049.468-.258.468-.537 0-.269-.219-.349-.368-.349-.3 0-.548.26-.548.578 0 .458.498.658.936.658.658 0 1.016-.698 1.046-.758a1.1 1.1 0 001.076.758c1.026 0 1.594-1.285 1.594-1.534 0-.1-.09-.1-.12-.1-.09 0-.11.04-.13.11-.328 1.065-1.005 1.304-1.324 1.304-.389 0-.548-.318-.548-.657 0-.22.06-.438.17-.877l.338-1.364zm11.772.518a3.322 3.322 0 00-6.644 0 3.323 3.323 0 006.644 0zm-5.3-2.142c-.02-.02-.089-.09-.089-.11 0-.04.807-.816 2.062-.816.349 0 1.265.05 2.082.816l-2.072 2.082-1.983-1.972zm-.288 4.224a3.093 3.093 0 01-.807-2.082c0-.767.289-1.494.807-2.082l2.082 2.082-2.082 2.082zm4.522-4.164a3.09 3.09 0 01.817 2.082c0 .767-.289 1.494-.807 2.082l-2.082-2.082 2.072-2.082zm-.279 4.223c.02.02.09.09.09.11 0 .04-.807.817-2.062.817-.349 0-1.265-.05-2.082-.817l2.072-2.082 1.982 1.972zm7.413 2.739c0-.03 0-.05-.17-.218-1.244-1.255-1.563-3.138-1.563-4.662 0-1.733.378-3.467 1.604-4.712.13-.12.13-.14.13-.17 0-.069-.04-.099-.1-.099-.1 0-.996.678-1.584 1.943-.508 1.095-.628 2.2-.628 3.038 0 .777.11 1.982.658 3.107.597 1.226 1.454 1.873 1.553 1.873.06 0 .1-.03.1-.1zm5.418-6.185c.04-.14.04-.16.04-.23 0-.179-.14-.268-.289-.268-.1 0-.259.06-.349.209-.02.05-.1.358-.139.538-.07.259-.14.528-.2.797l-.447 1.793c-.04.15-.469.846-1.126.846-.508 0-.618-.438-.618-.807 0-.458.17-1.075.508-1.952.16-.408.2-.518.2-.717 0-.448-.32-.817-.817-.817-.946 0-1.315 1.445-1.315 1.534 0 .1.1.1.12.1.1 0 .11-.02.159-.18.269-.936.667-1.235 1.006-1.235.08 0 .249 0 .249.319 0 .249-.1.508-.17.697-.398 1.056-.577 1.624-.577 2.092 0 .887.627 1.186 1.215 1.186.389 0 .727-.17 1.006-.449-.13.518-.249 1.006-.647 1.534-.26.339-.638.628-1.096.628-.14 0-.588-.03-.757-.418.16 0 .289 0 .428-.12.1-.09.2-.22.2-.408 0-.31-.27-.35-.369-.35-.23 0-.558.16-.558.648 0 .498.438.867 1.056.867 1.026 0 2.052-.906 2.331-2.032l.956-3.805zm9.807 1.305a3.322 3.322 0 00-6.644 0 3.323 3.323 0 006.644 0zm-5.3-2.142c-.02-.02-.089-.09-.089-.11 0-.04.807-.816 2.062-.816.349 0 1.265.05 2.082.816l-2.072 2.082-1.983-1.972zm-.288 4.224a3.093 3.093 0 01-.807-2.082c0-.767.289-1.494.807-2.082l2.082 2.082-2.082 2.082zm4.522-4.164a3.09 3.09 0 01.817 2.082c0 .767-.289 1.494-.807 2.082l-2.082-2.082 2.072-2.082zm-.279 4.223c.02.02.09.09.09.11 0 .04-.807.817-2.062.817-.349 0-1.265-.05-2.082-.817l2.072-2.082 1.982 1.972zm5.44-.478c.539-.578.828-.826 1.186-1.136 0-.01.618-.537.977-.896.946-.926 1.165-1.404 1.165-1.444 0-.1-.09-.1-.11-.1-.07 0-.1.02-.15.11-.298.478-.507.637-.746.637s-.359-.15-.508-.318c-.19-.23-.359-.429-.688-.429-.747 0-1.205.926-1.205 1.136 0 .05.03.11.12.11s.11-.05.13-.11c.188-.459.766-.468.846-.468.209 0 .398.07.627.149.399.15.509.15.767.15-.358.428-1.195 1.145-1.384 1.304l-.897.837c-.677.667-1.026 1.235-1.026 1.305 0 .1.1.1.12.1.08 0 .1-.02.16-.13.228-.348.527-.618.846-.618.23 0 .329.09.578.379.169.21.348.369.637.369.986 0 1.564-1.266 1.564-1.534 0-.05-.04-.1-.12-.1-.089 0-.109.06-.139.13-.229.647-.867.836-1.195.836-.2 0-.379-.06-.588-.13-.338-.129-.488-.169-.697-.169-.02 0-.18 0-.27.03zm6.626-1.663c0-.777-.11-1.983-.658-3.108-.597-1.225-1.454-1.873-1.554-1.873-.06 0-.1.04-.1.1 0 .03 0 .05.19.229.976.986 1.544 2.57 1.544 4.652 0 1.703-.369 3.456-1.604 4.711-.13.12-.13.14-.13.17 0 .06.04.1.1.1.1 0 .996-.678 1.584-1.943.508-1.096.628-2.201.628-3.038zm60.692 4.88c0-.03 0-.05-.17-.218-1.244-1.255-1.563-3.138-1.563-4.662 0-1.733.378-3.467 1.604-4.712.13-.12.13-.14.13-.17 0-.069-.04-.099-.1-.099-.1 0-.996.678-1.584 1.943-.508 1.095-.628 2.2-.628 3.038 0 .777.11 1.982.658 3.107.597 1.226 1.454 1.873 1.553 1.873.06 0 .1-.03.1-.1zm3.904-5.398c.06-.26.289-1.176.986-1.176.05 0 .29 0 .498.13-.278.05-.478.299-.478.538 0 .16.11.348.379.348a.555.555 0 00.538-.577c0-.518-.588-.658-.927-.658-.578 0-.926.528-1.046.757-.249-.657-.787-.757-1.075-.757-1.037 0-1.604 1.285-1.604 1.534 0 .1.1.1.12.1.079 0 .109-.02.129-.11.338-1.056.996-1.305 1.335-1.305.189 0 .537.09.537.668 0 .308-.169.976-.537 2.37-.16.618-.509 1.036-.947 1.036-.06 0-.289 0-.498-.13.25-.049.468-.258.468-.537 0-.269-.219-.349-.368-.349-.3 0-.548.26-.548.578 0 .458.498.658.936.658.658 0 1.016-.698 1.046-.758a1.1 1.1 0 001.076.758c1.026 0 1.594-1.285 1.594-1.534 0-.1-.09-.1-.12-.1-.09 0-.11.04-.13.11-.328 1.065-1.005 1.304-1.324 1.304-.389 0-.548-.318-.548-.657 0-.22.06-.438.17-.877l.338-1.364zm11.773.518a3.322 3.322 0 00-6.644 0 3.323 3.323 0 006.644 0zm-5.3-2.142c-.02-.02-.089-.09-.089-.11 0-.04.807-.816 2.062-.816.349 0 1.265.05 2.082.816l-2.072 2.082-1.983-1.972zm-.288 4.224a3.093 3.093 0 01-.807-2.082c0-.767.289-1.494.807-2.082l2.082 2.082-2.082 2.082zm4.522-4.164a3.09 3.09 0 01.817 2.082c0 .767-.289 1.494-.807 2.082l-2.082-2.082 2.072-2.082zm-.279 4.223c.02.02.09.09.09.11 0 .04-.807.817-2.062.817-.349 0-1.265-.05-2.082-.817l2.072-2.082 1.982 1.972zm8.957-3.446c.04-.14.04-.16.04-.23 0-.179-.14-.268-.289-.268-.1 0-.259.06-.349.209-.02.05-.1.358-.139.538-.07.259-.14.528-.2.797l-.447 1.793c-.04.15-.469.846-1.126.846-.508 0-.618-.438-.618-.807 0-.458.17-1.075.508-1.952.16-.408.2-.518.2-.717 0-.448-.32-.817-.817-.817-.947 0-1.315 1.445-1.315 1.534 0 .1.1.1.12.1.1 0 .11-.02.159-.18.269-.936.667-1.235 1.006-1.235.08 0 .249 0 .249.319 0 .249-.1.508-.17.697-.398 1.056-.577 1.624-.577 2.092 0 .887.627 1.186 1.215 1.186.389 0 .727-.17 1.006-.449-.13.518-.249 1.006-.647 1.534-.26.339-.638.628-1.096.628-.14 0-.588-.03-.757-.418.16 0 .289 0 .428-.12.1-.09.2-.22.2-.408 0-.31-.27-.35-.37-.35-.228 0-.557.16-.557.648 0 .498.438.867 1.056.867 1.026 0 2.052-.906 2.331-2.032l.956-3.805zm3.28 1.305c0-.777-.11-1.983-.658-3.108-.597-1.225-1.454-1.873-1.553-1.873-.06 0-.1.04-.1.1 0 .03 0 .05.19.229.975.986 1.543 2.57 1.543 4.652 0 1.703-.368 3.456-1.604 4.711-.13.12-.13.14-.13.17 0 .06.04.1.1.1.1 0 .996-.678 1.584-1.943.508-1.096.628-2.201.628-3.038zm10.401 0a3.322 3.322 0 00-6.644 0 3.323 3.323 0 006.644 0zm-5.3-2.142c-.02-.02-.089-.09-.089-.11 0-.04.807-.816 2.062-.816.349 0 1.265.05 2.082.816l-2.072 2.082-1.983-1.972zm-.288 4.224a3.093 3.093 0 01-.807-2.082c0-.767.289-1.494.807-2.082l2.082 2.082-2.082 2.082zm4.522-4.164a3.09 3.09 0 01.817 2.082c0 .767-.289 1.494-.807 2.082l-2.082-2.082 2.072-2.082zm-.279 4.223c.02.02.09.09.09.11 0 .04-.807.817-2.062.817-.349 0-1.265-.05-2.082-.817l2.072-2.082 1.982 1.972zm5.441-.478c.538-.578.827-.826 1.185-1.136 0-.01.618-.537.977-.896.946-.926 1.165-1.404 1.165-1.444 0-.1-.09-.1-.11-.1-.07 0-.1.02-.15.11-.298.478-.507.637-.746.637-.24 0-.359-.15-.508-.318-.19-.23-.359-.429-.688-.429-.747 0-1.205.926-1.205 1.136 0 .05.03.11.12.11s.11-.05.13-.11c.188-.459.766-.468.846-.468.209 0 .398.07.627.149.399.15.509.15.767.15-.358.428-1.195 1.145-1.384 1.304l-.897.837c-.677.667-1.026 1.235-1.026 1.305 0 .1.1.1.12.1.08 0 .1-.02.16-.13.228-.348.527-.618.846-.618.23 0 .329.09.578.379.169.21.348.369.637.369.986 0 1.564-1.266 1.564-1.534 0-.05-.04-.1-.12-.1-.089 0-.109.06-.139.13-.229.647-.867.836-1.195.836-.2 0-.379-.06-.588-.13-.338-.129-.488-.169-.697-.169-.02 0-.18 0-.27.03zm63.443 3.217c0-.03 0-.05-.17-.218-1.244-1.255-1.563-3.138-1.563-4.662 0-1.733.379-3.467 1.604-4.712.13-.12.13-.14.13-.17 0-.069-.04-.099-.1-.099-.1 0-.996.678-1.584 1.943-.508 1.095-.628 2.2-.628 3.038 0 .777.11 1.982.658 3.107.597 1.226 1.454 1.873 1.554 1.873.06 0 .1-.03.1-.1zm5.418-6.185c.04-.14.04-.16.04-.23 0-.179-.14-.268-.289-.268-.1 0-.259.06-.349.209-.02.05-.1.358-.139.538-.07.259-.14.528-.2.797l-.447 1.793c-.04.15-.469.846-1.126.846-.508 0-.618-.438-.618-.807 0-.458.17-1.075.508-1.952.16-.408.2-.518.2-.717 0-.448-.32-.817-.817-.817-.947 0-1.315 1.445-1.315 1.534 0 .1.1.1.12.1.1 0 .11-.02.159-.18.269-.936.667-1.235 1.006-1.235.08 0 .249 0 .249.319 0 .249-.1.508-.17.697-.398 1.056-.577 1.624-.577 2.092 0 .887.627 1.186 1.215 1.186.389 0 .727-.17 1.006-.449-.13.518-.249 1.006-.647 1.534-.26.339-.638.628-1.096.628-.14 0-.588-.03-.757-.418.16 0 .289 0 .428-.12.1-.09.2-.22.2-.408 0-.31-.27-.35-.37-.35-.228 0-.557.16-.557.648 0 .498.438.867 1.056.867 1.026 0 2.052-.906 2.331-2.032l.956-3.805zm9.807 1.305a3.322 3.322 0 00-6.644 0 3.323 3.323 0 006.644 0zm-5.3-2.142c-.02-.02-.089-.09-.089-.11 0-.04.807-.816 2.062-.816.349 0 1.265.05 2.082.816l-2.072 2.082-1.983-1.972zm-.288 4.224a3.093 3.093 0 01-.807-2.082c0-.767.289-1.494.807-2.082l2.082 2.082-2.082 2.082zm4.522-4.164a3.09 3.09 0 01.817 2.082c0 .767-.289 1.494-.807 2.082l-2.082-2.082 2.072-2.082zm-.279 4.223c.02.02.09.09.09.11 0 .04-.807.817-2.062.817-.349 0-1.265-.05-2.082-.817l2.072-2.082 1.982 1.972zm7.443-2.659c.059-.26.288-1.176.985-1.176.05 0 .29 0 .498.13-.279.05-.478.299-.478.538 0 .16.11.348.379.348a.555.555 0 00.538-.577c0-.518-.588-.658-.927-.658-.578 0-.926.528-1.046.757-.249-.657-.787-.757-1.075-.757-1.037 0-1.604 1.285-1.604 1.534 0 .1.1.1.12.1.079 0 .109-.02.129-.11.338-1.056.996-1.305 1.335-1.305.189 0 .537.09.537.668 0 .308-.169.976-.537 2.37-.16.618-.509 1.036-.947 1.036-.06 0-.289 0-.498-.13.25-.049.468-.258.468-.537 0-.269-.219-.349-.368-.349-.3 0-.548.26-.548.578 0 .458.498.658.936.658.658 0 1.016-.698 1.046-.758a1.1 1.1 0 001.076.758c1.026 0 1.594-1.285 1.594-1.534 0-.1-.09-.1-.12-.1-.09 0-.11.04-.13.11-.328 1.065-1.005 1.304-1.324 1.304-.389 0-.548-.318-.548-.657 0-.22.06-.438.17-.877l.338-1.364zm5.245.518c0-.777-.11-1.983-.658-3.108-.597-1.225-1.454-1.873-1.554-1.873-.06 0-.1.04-.1.1 0 .03 0 .05.19.229.976.986 1.544 2.57 1.544 4.652 0 1.703-.369 3.456-1.604 4.711-.13.12-.13.14-.13.17 0 .06.04.1.1.1.1 0 .996-.678 1.584-1.943.508-1.096.628-2.201.628-3.038zm10.402 0a3.322 3.322 0 00-6.644 0 3.323 3.323 0 006.644 0zm-5.3-2.142c-.02-.02-.089-.09-.089-.11 0-.04.807-.816 2.062-.816.349 0 1.265.05 2.082.816l-2.072 2.082-1.982-1.972zm-.288 4.224a3.093 3.093 0 01-.807-2.082c0-.767.289-1.494.807-2.082l2.082 2.082-2.082 2.082zm4.522-4.164a3.09 3.09 0 01.817 2.082c0 .767-.289 1.494-.807 2.082l-2.082-2.082 2.072-2.082zm-.279 4.223c.02.02.09.09.09.11 0 .04-.807.817-2.062.817-.349 0-1.265-.05-2.082-.817l2.072-2.082 1.982 1.972zm5.44-.478c.538-.578.827-.826 1.185-1.136 0-.01.618-.537.977-.896.946-.926 1.165-1.404 1.165-1.444 0-.1-.09-.1-.11-.1-.07 0-.1.02-.15.11-.298.478-.507.637-.746.637-.24 0-.359-.15-.508-.318-.19-.23-.359-.429-.688-.429-.747 0-1.205.926-1.205 1.136 0 .05.03.11.12.11s.11-.05.13-.11c.188-.459.766-.468.846-.468.209 0 .398.07.627.149.399.15.509.15.767.15-.358.428-1.195 1.145-1.384 1.304l-.897.837c-.677.667-1.026 1.235-1.026 1.305 0 .1.1.1.12.1.08 0 .1-.02.16-.13.228-.348.527-.618.846-.618.23 0 .329.09.578.379.169.21.348.369.637.369.986 0 1.564-1.266 1.564-1.534 0-.05-.04-.1-.12-.1-.089 0-.109.06-.139.13-.229.647-.867.836-1.195.836-.2 0-.379-.06-.588-.13-.339-.129-.488-.169-.697-.169-.02 0-.18 0-.27.03zM13.88-78.631c0-.03 0-.05-.17-.22-1.244-1.254-1.563-3.137-1.563-4.661 0-1.733.378-3.467 1.604-4.712.13-.12.13-.14.13-.17 0-.069-.04-.099-.1-.099-.1 0-.996.678-1.584 1.943-.508 1.095-.628 2.2-.628 3.038 0 .777.11 1.982.658 3.107.597 1.226 1.454 1.873 1.553 1.873.06 0 .1-.03.1-.1zm5.418-6.186c.04-.14.04-.16.04-.23 0-.179-.14-.268-.289-.268-.1 0-.259.06-.349.209-.02.05-.1.358-.139.538-.07.259-.14.528-.2.797l-.447 1.793c-.04.15-.469.846-1.126.846-.508 0-.618-.438-.618-.807 0-.458.17-1.075.508-1.952.16-.408.2-.518.2-.717 0-.448-.32-.817-.817-.817-.946 0-1.315 1.445-1.315 1.534 0 .1.1.1.12.1.1 0 .11-.02.159-.18.269-.936.667-1.235 1.006-1.235.08 0 .249 0 .249.319 0 .249-.1.508-.17.697-.398 1.056-.577 1.624-.577 2.092 0 .887.627 1.186 1.215 1.186.389 0 .727-.17 1.006-.449-.13.518-.249 1.006-.647 1.534-.26.339-.638.628-1.096.628-.14 0-.588-.03-.757-.418.16 0 .289 0 .428-.12.1-.09.2-.22.2-.408 0-.31-.27-.35-.37-.35-.228 0-.557.16-.557.648 0 .498.438.867 1.056.867 1.026 0 2.052-.906 2.331-2.032l.956-3.805zm9.807 1.305a3.322 3.322 0 00-6.644 0 3.323 3.323 0 006.644 0zm-5.3-2.142c-.02-.02-.089-.09-.089-.11 0-.04.807-.816 2.062-.816.349 0 1.265.05 2.082.816l-2.072 2.082-1.982-1.972zm-.288 4.224a3.093 3.093 0 01-.807-2.082c0-.767.289-1.494.807-2.082l2.082 2.082-2.082 2.082zm4.522-4.164a3.09 3.09 0 01.817 2.082c0 .767-.289 1.494-.807 2.082l-2.082-2.082 2.072-2.082zm-.279 4.223c.02.02.09.09.09.11 0 .04-.807.817-2.062.817-.349 0-1.265-.05-2.082-.817l2.072-2.082 1.982 1.972zm5.44-.478c.538-.578.827-.826 1.185-1.136 0-.01.618-.537.977-.896.946-.926 1.165-1.404 1.165-1.444 0-.1-.09-.1-.11-.1-.07 0-.1.02-.15.11-.298.478-.507.637-.746.637s-.359-.15-.508-.318c-.19-.23-.359-.429-.688-.429-.747 0-1.205.926-1.205 1.136 0 .05.03.11.12.11s.11-.05.13-.11c.188-.459.766-.468.846-.468.209 0 .398.07.627.149.399.15.509.15.767.15-.358.428-1.195 1.145-1.384 1.304l-.897.837c-.677.667-1.026 1.235-1.026 1.305 0 .1.1.1.12.1.08 0 .1-.02.16-.13.228-.348.527-.618.846-.618.23 0 .329.09.578.379.169.21.348.369.637.369.986 0 1.564-1.266 1.564-1.534 0-.05-.04-.1-.12-.1-.089 0-.109.06-.139.13-.229.647-.866.836-1.195.836-.2 0-.379-.06-.588-.13-.338-.129-.488-.169-.697-.169-.02 0-.18 0-.27.03zm6.626-1.663c0-.777-.11-1.983-.658-3.108-.597-1.225-1.454-1.873-1.554-1.873-.06 0-.1.04-.1.1 0 .03 0 .05.19.229.976.986 1.544 2.57 1.544 4.652 0 1.703-.369 3.456-1.604 4.711-.13.12-.13.14-.13.17 0 .06.04.1.1.1.1 0 .996-.678 1.584-1.943.508-1.096.628-2.201.628-3.038zm10.401 0a3.322 3.322 0 00-6.644 0 3.323 3.323 0 006.644 0zm-5.3-2.142c-.02-.02-.089-.09-.089-.11 0-.04.807-.816 2.062-.816.349 0 1.265.05 2.082.816l-2.072 2.082-1.982-1.972zm-.288 4.224a3.093 3.093 0 01-.807-2.082c0-.767.289-1.494.807-2.082l2.082 2.082-2.082 2.082zm4.522-4.164a3.09 3.09 0 01.817 2.082c0 .767-.289 1.494-.807 2.082l-2.082-2.082 2.072-2.082zm-.279 4.223c.02.02.09.09.09.11 0 .04-.807.817-2.062.817-.349 0-1.265-.05-2.082-.817l2.072-2.082 1.982 1.972zm7.443-2.659c.06-.26.289-1.176.986-1.176.05 0 .29 0 .498.13-.279.05-.478.299-.478.538 0 .16.11.348.379.348a.555.555 0 00.538-.577c0-.518-.588-.658-.927-.658-.578 0-.926.528-1.046.757-.249-.657-.787-.757-1.075-.757-1.037 0-1.604 1.285-1.604 1.534 0 .1.1.1.12.1.079 0 .109-.02.129-.11.338-1.056.996-1.305 1.335-1.305.189 0 .537.09.537.668 0 .308-.169.976-.537 2.37-.16.618-.509 1.036-.947 1.036-.06 0-.289 0-.498-.13.25-.049.468-.258.468-.537 0-.269-.219-.349-.368-.349-.3 0-.548.26-.548.578 0 .458.498.658.936.658.658 0 1.016-.698 1.046-.758a1.1 1.1 0 001.076.758c1.026 0 1.594-1.285 1.594-1.534 0-.1-.09-.1-.12-.1-.09 0-.11.04-.13.11-.328 1.065-1.005 1.304-1.324 1.304-.389 0-.548-.318-.548-.657 0-.22.06-.438.17-.877l.338-1.364zm63.607-.787c.04-.14.04-.16.04-.23 0-.179-.14-.268-.289-.268-.1 0-.259.06-.349.209-.02.05-.1.358-.139.538-.07.259-.14.528-.2.797l-.447 1.793c-.04.15-.469.846-1.126.846-.508 0-.618-.438-.618-.807 0-.458.17-1.075.508-1.952.16-.408.2-.518.2-.717 0-.448-.32-.817-.817-.817-.947 0-1.315 1.445-1.315 1.534 0 .1.1.1.12.1.1 0 .11-.02.159-.18.269-.936.667-1.235 1.006-1.235.08 0 .249 0 .249.319 0 .249-.1.508-.17.697-.398 1.056-.577 1.624-.577 2.092 0 .887.627 1.186 1.215 1.186.389 0 .727-.17 1.006-.449-.13.518-.249 1.006-.647 1.534-.26.339-.638.628-1.096.628-.14 0-.588-.03-.757-.418.16 0 .289 0 .428-.12.1-.09.2-.22.2-.408 0-.31-.27-.35-.37-.35-.228 0-.557.16-.557.648 0 .498.438.867 1.056.867 1.026 0 2.052-.906 2.331-2.032l.956-3.805zm9.807 1.305a3.322 3.322 0 00-6.644 0 3.323 3.323 0 006.644 0zm-5.3-2.142c-.02-.02-.089-.09-.089-.11 0-.04.807-.816 2.062-.816.349 0 1.265.05 2.082.816l-2.072 2.082-1.983-1.972zm-.288 4.224a3.093 3.093 0 01-.807-2.082c0-.767.289-1.494.807-2.082l2.082 2.082-2.082 2.082zm4.522-4.164a3.09 3.09 0 01.817 2.082c0 .767-.289 1.494-.807 2.082l-2.082-2.082 2.072-2.082zm-.279 4.223c.02.02.09.09.09.11 0 .04-.807.817-2.062.817-.349 0-1.265-.05-2.082-.817l2.072-2.082 1.982 1.972zm7.413 2.74c0-.03 0-.05-.17-.22-1.244-1.254-1.563-3.137-1.563-4.661 0-1.733.379-3.467 1.604-4.712.13-.12.13-.14.13-.17 0-.069-.04-.099-.1-.099-.1 0-.996.678-1.584 1.943-.508 1.095-.628 2.2-.628 3.038 0 .777.11 1.982.658 3.107.597 1.226 1.454 1.873 1.554 1.873.06 0 .1-.03.1-.1zm1.902-3.218c.538-.578.827-.826 1.185-1.136 0-.01.618-.537.977-.896.946-.926 1.165-1.404 1.165-1.444 0-.1-.09-.1-.11-.1-.07 0-.1.02-.15.11-.298.478-.507.637-.746.637-.24 0-.359-.15-.508-.318-.19-.23-.359-.429-.688-.429-.747 0-1.205.926-1.205 1.136 0 .05.03.11.12.11s.11-.05.129-.11c.19-.459.767-.468.847-.468.209 0 .398.07.627.149.399.15.509.15.767.15-.358.428-1.195 1.145-1.384 1.304l-.897.837c-.677.667-1.026 1.235-1.026 1.305 0 .1.1.1.12.1.08 0 .1-.02.16-.13.228-.348.527-.618.846-.618.23 0 .329.09.578.379.169.21.348.369.637.369.986 0 1.564-1.266 1.564-1.534 0-.05-.04-.1-.12-.1-.089 0-.109.06-.139.13-.229.647-.867.836-1.195.836-.2 0-.379-.06-.588-.13-.339-.129-.488-.169-.697-.169-.02 0-.18 0-.27.03zm13.151-1.663a3.322 3.322 0 00-6.643 0 3.323 3.323 0 006.644 0zm-5.299-2.142c-.02-.02-.089-.09-.089-.11 0-.04.807-.816 2.062-.816.349 0 1.265.05 2.082.816l-2.072 2.082-1.983-1.972zm-.288 4.224a3.093 3.093 0 01-.807-2.082c0-.767.289-1.494.807-2.082l2.082 2.082-2.082 2.082zm4.522-4.164a3.09 3.09 0 01.817 2.082c0 .767-.289 1.494-.807 2.082l-2.082-2.082 2.072-2.082zm-.279 4.223c.02.02.09.09.09.11 0 .04-.807.817-2.062.817-.349 0-1.265-.05-2.082-.817l2.072-2.082 1.982 1.972zm7.444-2.659c.059-.26.288-1.176.985-1.176.05 0 .29 0 .498.13-.278.05-.478.299-.478.538 0 .16.11.348.379.348a.555.555 0 00.538-.577c0-.518-.588-.658-.927-.658-.578 0-.926.528-1.046.757-.249-.657-.787-.757-1.075-.757-1.037 0-1.604 1.285-1.604 1.534 0 .1.1.1.12.1.079 0 .109-.02.129-.11.338-1.056.996-1.305 1.335-1.305.189 0 .537.09.537.668 0 .308-.169.976-.537 2.37-.16.618-.509 1.036-.947 1.036-.06 0-.289 0-.498-.13.25-.049.468-.258.468-.537 0-.269-.219-.349-.368-.349-.3 0-.548.26-.548.578 0 .458.498.658.936.658.658 0 1.016-.698 1.046-.758a1.1 1.1 0 001.076.758c1.026 0 1.594-1.285 1.594-1.534 0-.1-.09-.1-.12-.1-.09 0-.11.04-.13.11-.328 1.065-1.005 1.304-1.324 1.304-.389 0-.548-.318-.548-.657 0-.22.06-.438.17-.877l.338-1.364zm5.245.518c0-.777-.11-1.983-.658-3.108-.597-1.225-1.454-1.873-1.554-1.873-.06 0-.1.04-.1.1 0 .03 0 .05.19.229.976.986 1.544 2.57 1.544 4.652 0 1.703-.369 3.456-1.604 4.711-.13.12-.13.14-.13.17 0 .06.04.1.1.1.1 0 .996-.678 1.584-1.943.508-1.096.628-2.201.628-3.038zm62.236-1.305c.04-.14.04-.16.04-.23 0-.179-.14-.268-.289-.268-.1 0-.259.06-.349.209-.02.05-.1.358-.139.538-.07.259-.14.528-.2.797l-.447 1.793c-.04.15-.469.846-1.126.846-.508 0-.618-.438-.618-.807 0-.458.17-1.075.508-1.952.16-.408.2-.518.2-.717 0-.448-.32-.817-.817-.817-.946 0-1.315 1.445-1.315 1.534 0 .1.1.1.12.1.1 0 .11-.02.159-.18.269-.936.667-1.235 1.006-1.235.08 0 .249 0 .249.319 0 .249-.1.508-.17.697-.398 1.056-.577 1.624-.577 2.092 0 .887.627 1.186 1.215 1.186.389 0 .727-.17 1.006-.449-.13.518-.249 1.006-.647 1.534-.26.339-.638.628-1.096.628-.14 0-.588-.03-.757-.418.16 0 .289 0 .428-.12.1-.09.2-.22.2-.408 0-.31-.27-.35-.369-.35-.23 0-.558.16-.558.648 0 .498.438.867 1.056.867 1.026 0 2.052-.906 2.331-2.032l.956-3.805zm9.806 1.305a3.322 3.322 0 00-6.644 0 3.323 3.323 0 006.644 0zm-5.3-2.142c-.02-.02-.089-.09-.089-.11 0-.04.807-.816 2.062-.816.349 0 1.265.05 2.082.816l-2.072 2.082-1.983-1.972zm-.288 4.224a3.093 3.093 0 01-.807-2.082c0-.767.289-1.494.807-2.082l2.082 2.082-2.082 2.082zm4.522-4.164a3.09 3.09 0 01.817 2.082c0 .767-.289 1.494-.807 2.082l-2.082-2.082 2.072-2.082zm-.279 4.223c.02.02.09.09.09.11 0 .04-.807.817-2.062.817-.349 0-1.265-.05-2.082-.817l2.072-2.082 1.982 1.972zm7.413 2.74c0-.03 0-.05-.17-.22-1.244-1.254-1.563-3.137-1.563-4.661 0-1.733.379-3.467 1.604-4.712.13-.12.13-.14.13-.17 0-.069-.04-.099-.1-.099-.1 0-.996.678-1.584 1.943-.508 1.095-.628 2.2-.628 3.038 0 .777.11 1.982.658 3.107.597 1.226 1.454 1.873 1.554 1.873.06 0 .1-.03.1-.1zm3.905-5.399c.059-.26.288-1.176.985-1.176.05 0 .29 0 .498.13-.279.05-.478.299-.478.538 0 .16.11.348.379.348a.555.555 0 00.538-.577c0-.518-.588-.658-.927-.658-.578 0-.926.528-1.046.757-.249-.657-.787-.757-1.075-.757-1.037 0-1.604 1.285-1.604 1.534 0 .1.1.1.12.1.079 0 .109-.02.129-.11.338-1.056.996-1.305 1.335-1.305.189 0 .537.09.537.668 0 .308-.169.976-.537 2.37-.16.618-.509 1.036-.947 1.036-.06 0-.289 0-.498-.13.25-.049.468-.258.468-.537 0-.269-.219-.349-.368-.349-.3 0-.548.26-.548.578 0 .458.498.658.936.658.658 0 1.016-.698 1.046-.758a1.1 1.1 0 001.076.758c1.026 0 1.594-1.285 1.594-1.534 0-.1-.09-.1-.12-.1-.09 0-.11.04-.13.11-.328 1.065-1.005 1.304-1.324 1.304-.389 0-.548-.318-.548-.657 0-.22.06-.438.17-.877l.338-1.364zm11.772.518a3.322 3.322 0 00-6.644 0 3.323 3.323 0 006.644 0zm-5.3-2.142c-.02-.02-.089-.09-.089-.11 0-.04.807-.816 2.062-.816.349 0 1.265.05 2.082.816l-2.072 2.082-1.982-1.972zm-.288 4.224a3.093 3.093 0 01-.807-2.082c0-.767.289-1.494.807-2.082l2.082 2.082-2.082 2.082zm4.522-4.164a3.09 3.09 0 01.817 2.082c0 .767-.289 1.494-.807 2.082l-2.082-2.082 2.072-2.082zm-.279 4.223c.02.02.09.09.09.11 0 .04-.807.817-2.062.817-.349 0-1.265-.05-2.082-.817l2.072-2.082 1.982 1.972zm5.441-.478c.538-.578.827-.826 1.185-1.136 0-.01.618-.537.977-.896.946-.926 1.165-1.404 1.165-1.444 0-.1-.09-.1-.11-.1-.07 0-.1.02-.15.11-.298.478-.507.637-.746.637s-.359-.15-.508-.318c-.19-.23-.359-.429-.688-.429-.747 0-1.205.926-1.205 1.136 0 .05.03.11.12.11s.11-.05.129-.11c.19-.459.767-.468.847-.468.209 0 .398.07.627.149.399.15.509.15.767.15-.358.428-1.195 1.145-1.384 1.304l-.897.837c-.677.667-1.026 1.235-1.026 1.305 0 .1.1.1.12.1.08 0 .1-.02.16-.13.228-.348.527-.618.846-.618.23 0 .329.09.578.379.169.21.348.369.637.369.986 0 1.564-1.266 1.564-1.534 0-.05-.04-.1-.12-.1-.089 0-.109.06-.139.13-.229.647-.867.836-1.195.836-.2 0-.379-.06-.588-.13-.339-.129-.488-.169-.697-.169-.02 0-.18 0-.27.03zm6.625-1.663c0-.777-.11-1.983-.658-3.108-.597-1.225-1.454-1.873-1.553-1.873-.06 0-.1.04-.1.1 0 .03 0 .05.19.229.975.986 1.543 2.57 1.543 4.652 0 1.703-.368 3.456-1.604 4.711-.13.12-.13.14-.13.17 0 .06.04.1.1.1.1 0 .996-.678 1.584-1.943.508-1.096.628-2.201.628-3.038z"/><path d="M63.18-118.7h47.023" stroke="#000" fill="none" stroke-width=".398" stroke-miterlimit="10"/><path d="M108.332-121.094c.379 1.438 1.222 2.114 2.07 2.395-.848.277-1.691.953-2.07 2.39" stroke="#000" fill="none" stroke-width=".398" stroke-miterlimit="10" stroke-linecap="round" stroke-linejoin="round"/><path d="M79.896-124.988c.642-.663.9-1.59.9-1.668 0-.09-.084-.09-.118-.09-.098 0-.098.02-.147.174a3.64 3.64 0 01-.649 1.263c-.007-.105-.02-.572-.034-.635-.105-.69-.628-1.137-1.326-1.137-1.025 0-2.008.956-2.008 1.932 0 .642.467 1.214 1.276 1.214.642 0 1.22-.293 1.611-.593.16.509.516.593.726.593.404 0 .655-.342.655-.488 0-.084-.083-.084-.118-.084-.091 0-.105.028-.119.07a.433.433 0 01-.397.306c-.098 0-.217 0-.252-.857zm-.544.237c-.683.558-1.276.62-1.541.62-.46 0-.719-.306-.719-.774 0-.202.098-.962.46-1.444.322-.418.719-.537.963-.537.558 0 .719.537.774.97.042.3.028.795.063 1.165zm6.293-3.367c.08 0 .214 0 .214-.14 0-.139-.134-.139-.214-.139h-3.373c-.08 0-.214 0-.214.14s.135.14.214.14h3.373zm2.995-2.062c0-.15-.015-.15-.18-.15-.353.319-.906.319-1.006.319h-.085v.219h.085c.115 0 .439-.015.728-.14v2.492c0 .154 0 .209-.528.209h-.25v.219c.274-.02.718-.02 1.007-.02.289 0 .732 0 1.006.02v-.22h-.25c-.527 0-.527-.054-.527-.208v-2.74zm-4.285 6.214c-.23.07-.23.289-.23.294 0 .085.06.204.225.204.14 0 .309-.12.309-.338 0-.294-.329-.41-.593-.41-.324 0-.533.21-.633.34-.164-.284-.483-.34-.662-.34-.623 0-.977.589-.977.773 0 .07.08.07.105.07.045 0 .085-.005.104-.06.15-.488.558-.613.748-.613.164 0 .353.07.353.334 0 .125-.09.468-.259 1.131-.074.284-.304.453-.518.453-.035 0-.18 0-.299-.08.225-.079.225-.268.225-.288 0-.145-.11-.21-.22-.21a.32.32 0 00-.309.34c0 .303.34.408.593.408.274 0 .498-.16.618-.339.2.299.518.339.673.339.627 0 .981-.593.981-.772 0-.07-.085-.07-.105-.07-.084 0-.094.03-.11.075a.825.825 0 01-.746.597c-.15 0-.354-.054-.354-.333 0-.06 0-.095.04-.264.084-.35.219-.902.259-.992.065-.13.229-.329.483-.329.015 0 .184 0 .3.08zm2.195 1.883c0 .478-.26.753-.394.862-.05.04-.06.05-.06.085 0 .03.045.09.09.09.065 0 .533-.39.533-1.012 0-.339-.15-.563-.373-.563-.19 0-.304.15-.304.304 0 .16.114.304.304.304a.3.3 0 00.204-.07zm4.236-1.788c.02-.075.02-.11.02-.115 0-.11-.09-.174-.185-.174-.199 0-.239.174-.274.309l-.104.413-.155.623c-.02.065-.044.17-.05.2-.004.02-.274.487-.697.487-.23 0-.409-.109-.409-.428 0-.274.15-.638.294-.996.025-.06.06-.14.06-.225 0-.244-.234-.438-.543-.438-.523 0-.802.638-.802.772 0 .07.08.07.105.07.084 0 .09-.025.114-.1.105-.343.339-.573.563-.573.095 0 .15.055.15.19 0 .1-.03.169-.065.259-.244.592-.29.772-.29.971 0 .553.464.668.798.668.284 0 .493-.14.618-.244-.07.279-.125.498-.359.737-.115.115-.349.304-.657.304-.09 0-.274-.015-.39-.12a.312.312 0 00.25-.299c0-.144-.114-.204-.22-.204-.144 0-.313.12-.313.349 0 .25.254.443.673.443.567 0 1.24-.378 1.4-1.016l.468-1.863zm1.859 1.788c0 .478-.26.753-.394.862-.05.04-.06.05-.06.085 0 .03.045.09.09.09.065 0 .533-.39.533-1.012 0-.339-.15-.563-.373-.563-.19 0-.304.15-.304.304 0 .16.114.304.304.304a.3.3 0 00.204-.07zm2.079-.383a7.29 7.29 0 01.737-.573c.334-.24.548-.404.757-.603.25-.234.419-.453.419-.503 0-.07-.075-.07-.105-.07-.07 0-.075.005-.115.06-.189.264-.303.284-.388.284-.08 0-.154-.015-.31-.13-.169-.13-.278-.214-.467-.214-.454 0-.748.438-.748.593 0 .075.07.075.105.075.055 0 .08-.01.105-.06.02-.06.07-.18.468-.18.14 0 .244.015.503.055.184.03.244.03.329.03-.144.13-.299.259-.673.528-.358.254-.573.409-.802.628-.2.18-.433.448-.433.518s.074.07.104.07c.06 0 .075-.005.105-.045.145-.2.324-.299.498-.299.14 0 .21.05.389.19.14.104.254.154.398.154.583 0 .967-.593.967-.792 0-.07-.085-.07-.105-.07-.08 0-.09.02-.11.08-.114.299-.508.353-.697.353-.105 0-.234-.015-.378-.04-.28-.044-.36-.044-.43-.044-.079 0-.088 0-.123.005z"/><path d="M34.637-109.875v17.137" stroke="#000" fill="none" stroke-width=".398" stroke-miterlimit="10"/><path d="M37.027-94.61c-1.433.376-2.113 1.22-2.39 2.07-.282-.85-.957-1.694-2.391-2.07" stroke="#000" fill="none" stroke-width=".398" stroke-miterlimit="10" stroke-linecap="round" stroke-linejoin="round"/><path d="M12.202-103.12c.119 0 .182 0 .258-.056a.304.304 0 00.112-.223c0-.195-.181-.195-.3-.195h-1.786c-1.116 0-1.952 1.102-1.952 1.939 0 .649.48 1.137 1.192 1.137.88 0 1.883-.795 1.883-1.863 0-.111 0-.425-.209-.739h.802zm-2.469 2.406c-.376 0-.69-.25-.69-.746 0-.21.125-1.66 1.325-1.66.356 0 .718.133.718.663 0 .125-.062.753-.404 1.22-.293.384-.684.523-.949.523zm6.1-.831c-.23.07-.23.289-.23.294 0 .085.06.204.225.204.14 0 .309-.12.309-.338 0-.295-.329-.41-.593-.41-.324 0-.533.21-.633.34-.164-.284-.483-.34-.662-.34-.623 0-.977.589-.977.773 0 .07.08.07.105.07.044 0 .084-.005.104-.06.15-.488.558-.613.748-.613.164 0 .353.07.353.334 0 .125-.09.468-.259 1.131-.074.284-.304.453-.518.453-.035 0-.18 0-.299-.08.225-.08.225-.268.225-.288 0-.145-.11-.21-.22-.21a.32.32 0 00-.309.34c0 .303.34.408.593.408.274 0 .498-.16.618-.34.2.3.518.34.673.34.627 0 .981-.593.981-.773 0-.07-.085-.07-.105-.07-.084 0-.094.03-.11.075a.825.825 0 01-.746.598c-.15 0-.354-.054-.354-.333 0-.06 0-.095.04-.265.084-.348.219-.901.259-.99.065-.13.229-.33.483-.33.015 0 .184 0 .299.08zm2.195 1.883c0 .478-.26.752-.394.862-.05.04-.06.05-.06.085 0 .03.045.09.09.09.065 0 .533-.39.533-1.012 0-.339-.15-.563-.373-.563-.19 0-.304.15-.304.304 0 .16.114.304.304.304a.3.3 0 00.204-.07zm4.236-1.788c.02-.075.02-.11.02-.115 0-.11-.09-.174-.185-.174-.2 0-.239.174-.274.309l-.104.413-.155.623a2.24 2.24 0 00-.05.2c-.005.02-.274.487-.697.487-.23 0-.409-.11-.409-.428 0-.274.15-.638.294-.996.025-.06.06-.14.06-.225 0-.244-.234-.438-.543-.438-.523 0-.802.638-.802.772 0 .07.08.07.105.07.084 0 .09-.025.114-.1.105-.343.339-.573.563-.573.095 0 .15.055.15.19 0 .1-.03.169-.065.259-.244.592-.29.772-.29.971 0 .553.464.668.798.668.284 0 .493-.14.618-.244-.07.279-.125.498-.359.737-.115.114-.349.304-.657.304-.09 0-.275-.015-.39-.12a.312.312 0 00.25-.299c0-.144-.115-.204-.22-.204-.144 0-.313.12-.313.349 0 .25.254.443.673.443.567 0 1.24-.378 1.4-1.016l.468-1.863zm5.293.612a2.082 2.082 0 00-2.073-2.077 2.08 2.08 0 00-2.077 2.077c0 1.156.946 2.078 2.072 2.078a2.08 2.08 0 002.078-2.078zm-3.318-1.39a1.86 1.86 0 012.486-.005l-1.24 1.246-1.246-1.24zm-.15 2.636a1.889 1.889 0 01-.473-1.246c0-.552.244-.986.473-1.245l1.246 1.245-1.246 1.246zm2.785-2.491c.24.269.474.703.474 1.245 0 .553-.245.987-.474 1.246l-1.245-1.246 1.245-1.245zm-.149 2.635a1.86 1.86 0 01-2.486.005l1.24-1.245 1.246 1.24zm2.595-.597c.21-.195.46-.374.738-.573a6.69 6.69 0 00.758-.603c.249-.234.418-.454.418-.504 0-.07-.075-.07-.105-.07-.07 0-.074.006-.114.06-.19.265-.304.285-.389.285-.08 0-.154-.015-.309-.13-.17-.13-.279-.214-.468-.214-.453 0-.747.438-.747.593 0 .075.07.075.104.075.055 0 .08-.01.105-.06.02-.06.07-.18.468-.18.14 0 .244.015.503.055.185.03.245.03.33.03-.145.13-.3.259-.673.528-.359.254-.573.409-.802.628-.2.18-.434.448-.434.518s.075.07.105.07c.06 0 .074-.005.104-.045.145-.2.324-.3.499-.3.139 0 .209.05.388.19.14.105.254.155.399.155.583 0 .966-.593.966-.793 0-.07-.084-.07-.104-.07-.08 0-.09.02-.11.08-.114.3-.508.354-.698.354a2.32 2.32 0 01-.378-.04c-.279-.044-.359-.044-.429-.044-.08 0-.09 0-.124.005z"/><path d="M167.691-118.7h47.024" stroke="#000" fill="none" stroke-width=".398" stroke-miterlimit="10"/><path d="M212.84-121.094c.379 1.438 1.222 2.114 2.074 2.395-.852.277-1.695.953-2.074 2.39" stroke="#000" fill="none" stroke-width=".398" stroke-miterlimit="10" stroke-linecap="round" stroke-linejoin="round"/><path d="M179.402-125.54c.119 0 .182 0 .258-.057a.304.304 0 00.112-.223c0-.195-.181-.195-.3-.195h-1.786c-1.116 0-1.952 1.102-1.952 1.939 0 .649.48 1.137 1.192 1.137.88 0 1.883-.795 1.883-1.862 0-.112 0-.426-.209-.74h.802zm-2.469 2.405c-.376 0-.69-.25-.69-.746 0-.21.125-1.66 1.325-1.66.356 0 .718.133.718.663 0 .125-.062.753-.404 1.22-.293.384-.684.523-.949.523zm6.1-.831c-.23.07-.23.289-.23.294 0 .085.06.204.225.204.14 0 .309-.12.309-.338 0-.294-.329-.41-.593-.41-.324 0-.533.21-.633.34-.164-.284-.483-.34-.662-.34-.623 0-.977.589-.977.773 0 .07.08.07.105.07.044 0 .084-.005.104-.06.15-.488.558-.613.748-.613.164 0 .353.07.353.334 0 .125-.09.468-.259 1.131-.074.284-.304.453-.518.453-.035 0-.18 0-.299-.08.225-.079.225-.268.225-.288 0-.145-.11-.21-.22-.21a.32.32 0 00-.309.34c0 .303.34.408.593.408.274 0 .498-.16.618-.339.2.299.518.339.673.339.627 0 .981-.593.981-.772 0-.07-.085-.07-.105-.07-.084 0-.094.03-.11.075a.825.825 0 01-.746.597c-.15 0-.354-.054-.354-.333 0-.06 0-.095.04-.264.084-.35.219-.902.259-.992.065-.13.229-.329.483-.329.015 0 .184 0 .299.08zm2.195 1.883c0 .478-.26.753-.394.862-.05.04-.06.05-.06.085 0 .03.045.09.09.09.065 0 .533-.39.533-1.012 0-.339-.15-.563-.373-.563-.19 0-.304.15-.304.304 0 .16.114.304.304.304a.3.3 0 00.204-.07zm4.236-1.788c.02-.075.02-.11.02-.115 0-.11-.09-.174-.185-.174-.2 0-.239.174-.274.309l-.104.413-.155.623c-.02.065-.045.17-.05.2-.005.02-.274.487-.697.487-.23 0-.409-.109-.409-.428 0-.274.15-.638.294-.996.025-.06.06-.14.06-.225 0-.244-.234-.438-.543-.438-.523 0-.802.638-.802.772 0 .07.08.07.105.07.084 0 .09-.025.114-.1.105-.343.339-.573.563-.573.095 0 .15.055.15.19 0 .1-.03.169-.065.259-.244.592-.29.772-.29.971 0 .553.464.668.798.668.284 0 .493-.14.618-.244-.07.279-.125.498-.359.737-.115.115-.349.304-.657.304-.09 0-.275-.015-.39-.12a.312.312 0 00.25-.299c0-.144-.115-.204-.22-.204-.144 0-.313.12-.313.349 0 .25.254.443.673.443.567 0 1.24-.378 1.4-1.016l.468-1.863zm6.703-.882a2.576 2.576 0 00-2.574-2.573 2.58 2.58 0 00-2.574 2.566 2.576 2.576 0 002.574 2.574 2.58 2.58 0 002.574-2.567zm-4.137-1.737c.286-.258.824-.6 1.563-.6.74 0 1.276.342 1.562.6l-1.562 1.563-1.563-1.563zm-.167 3.293c-.384-.398-.607-.984-.607-1.556 0-.613.244-1.185.607-1.562l1.562 1.555-1.562 1.563zm3.46-3.118c.383.398.606.983.606 1.555a2.29 2.29 0 01-.606 1.563l-1.563-1.556 1.563-1.562zm-.168 3.292c-.286.258-.823.6-1.562.6-.74 0-1.277-.342-1.563-.6l1.563-1.562 1.562 1.562zm3.025-4.289a.403.403 0 00-.405-.398.397.397 0 00-.397.398.4.4 0 10.802 0zm-1.06 1.304v.25c.439 0 .502.043.502.385v1.813c0 .3-.07.3-.523.3v.251c.014 0 .502-.028.78-.028.245 0 .496.007.74.028v-.251c-.404 0-.474 0-.474-.293v-2.532l-1.025.077zm4.326-1.765v.251c.468 0 .524.049.524.39v1.445a1.377 1.377 0 00-.977-.398c-.928 0-1.709.698-1.709 1.576 0 .872.74 1.57 1.625 1.57a1.41 1.41 0 001.033-.433v.433l1.074-.07v-.251c-.468 0-.523-.049-.523-.39v-4.2l-1.047.077zm.496 4.032c-.182.327-.537.606-.99.606a.993.993 0 01-.81-.432c-.14-.21-.223-.488-.223-.934 0-.161 0-.684.286-1.012.279-.314.62-.377.823-.377.335 0 .635.154.83.405.084.112.084.119.084.251v1.493zm2.563 1.275c.21-.195.458-.374.737-.573.334-.24.548-.404.758-.603.249-.234.418-.453.418-.503 0-.07-.075-.07-.105-.07-.07 0-.074.005-.114.06-.19.264-.304.284-.389.284-.08 0-.154-.015-.309-.13-.17-.13-.279-.214-.468-.214-.453 0-.747.438-.747.593 0 .075.07.075.104.075.055 0 .08-.01.105-.06.02-.06.07-.18.468-.18.14 0 .244.015.503.055.185.03.245.03.33.03-.145.13-.3.259-.673.528-.359.254-.573.409-.802.628-.2.18-.434.448-.434.518s.075.07.105.07c.06 0 .074-.005.104-.045.145-.2.324-.299.499-.299.139 0 .209.05.388.19.14.104.254.154.399.154.583 0 .966-.593.966-.792 0-.07-.084-.07-.104-.07-.08 0-.09.02-.11.08-.114.299-.508.353-.698.353a2.32 2.32 0 01-.378-.04c-.279-.044-.359-.044-.429-.044-.08 0-.09 0-.124.005z"/><path d="M243.656-109.875v17.137" stroke="#000" fill="none" stroke-width=".398" stroke-miterlimit="10"/><path d="M246.047-94.61c-1.434.376-2.113 1.22-2.39 2.07-.282-.85-.958-1.694-2.391-2.07" stroke="#000" fill="none" stroke-width=".398" stroke-miterlimit="10" stroke-linecap="round" stroke-linejoin="round"/><path d="M249.813-101.571c.642-.663.9-1.59.9-1.668 0-.09-.084-.09-.118-.09-.098 0-.098.02-.147.174a3.64 3.64 0 01-.649 1.263c-.007-.105-.02-.572-.034-.635-.105-.69-.628-1.137-1.326-1.137-1.025 0-2.009.956-2.009 1.932 0 .642.468 1.214 1.277 1.214.642 0 1.22-.293 1.611-.593.16.509.516.593.726.593.404 0 .655-.342.655-.488 0-.084-.084-.084-.119-.084-.09 0-.104.028-.118.07a.433.433 0 01-.397.306c-.098 0-.217 0-.252-.857zm-.544.237c-.683.558-1.276.62-1.541.62-.46 0-.719-.307-.719-.774 0-.202.098-.962.46-1.444.321-.418.719-.537.963-.537.558 0 .719.537.774.97.042.3.028.795.063 1.165zm5.206-.116c.02-.075.02-.11.02-.115 0-.11-.09-.174-.184-.174-.2 0-.24.174-.274.309l-.105.413-.154.623c-.02.064-.045.17-.05.2-.005.02-.274.487-.698.487-.229 0-.408-.11-.408-.428 0-.274.15-.638.294-.996.025-.06.06-.14.06-.225 0-.244-.235-.438-.543-.438-.524 0-.803.638-.803.772 0 .07.08.07.105.07.085 0 .09-.025.114-.1.105-.343.34-.573.564-.573.094 0 .149.055.149.19 0 .1-.03.169-.065.259-.244.592-.289.772-.289.971 0 .553.464.668.797.668.284 0 .494-.14.618-.244-.07.279-.124.498-.359.737-.114.114-.348.304-.657.304-.09 0-.274-.015-.389-.12a.312.312 0 00.25-.299c0-.144-.115-.204-.22-.204-.144 0-.314.12-.314.349 0 .25.254.443.673.443.568 0 1.24-.378 1.4-1.016l.468-1.863zm1.863 1.788c0 .478-.259.752-.393.862-.05.04-.06.05-.06.085 0 .03.045.09.09.09.064 0 .533-.39.533-1.012 0-.339-.15-.563-.374-.563-.19 0-.304.15-.304.304 0 .16.115.304.304.304.075 0 .15-.02.204-.07zm4.032-1.883c-.23.07-.23.289-.23.294 0 .085.06.204.225.204.14 0 .309-.12.309-.338 0-.295-.329-.41-.593-.41-.324 0-.533.21-.633.34-.164-.284-.483-.34-.662-.34-.623 0-.977.589-.977.773 0 .07.08.07.105.07.044 0 .084-.005.104-.06.15-.488.558-.613.748-.613.164 0 .353.07.353.334 0 .125-.09.468-.259 1.131-.074.284-.304.453-.518.453-.035 0-.18 0-.299-.08.225-.08.225-.268.225-.288 0-.145-.11-.21-.22-.21a.32.32 0 00-.309.34c0 .303.34.408.593.408.274 0 .498-.16.618-.34.2.3.518.34.673.34.627 0 .981-.593.981-.773 0-.07-.085-.07-.105-.07-.084 0-.094.03-.11.075a.825.825 0 01-.746.598c-.15 0-.354-.054-.354-.333 0-.06 0-.095.04-.265.084-.348.219-.901.259-.99.065-.13.229-.33.483-.33.015 0 .184 0 .299.08zm2.195 1.883c0 .478-.26.752-.394.862-.05.04-.06.05-.06.085 0 .03.045.09.09.09.065 0 .533-.39.533-1.012 0-.339-.15-.563-.373-.563-.19 0-.304.15-.304.304 0 .16.114.304.304.304a.3.3 0 00.204-.07zm2.079-.383a7.29 7.29 0 01.737-.573c.334-.24.548-.404.757-.603.25-.234.419-.454.419-.504 0-.07-.075-.07-.105-.07-.07 0-.075.006-.115.06-.189.265-.303.285-.388.285-.08 0-.155-.015-.31-.13-.169-.13-.278-.214-.467-.214-.454 0-.748.438-.748.593 0 .075.07.075.105.075.055 0 .08-.01.105-.06.02-.06.07-.18.468-.18.14 0 .244.015.503.055.184.03.244.03.329.03-.145.13-.299.259-.673.528-.359.254-.573.409-.802.628-.2.18-.433.448-.433.518s.074.07.104.07c.06 0 .075-.005.105-.045.144-.2.324-.3.498-.3.14 0 .21.05.389.19.14.105.254.155.398.155.583 0 .967-.593.967-.793 0-.07-.085-.07-.105-.07-.08 0-.09.02-.11.08-.114.3-.508.354-.697.354-.105 0-.234-.015-.378-.04-.28-.044-.36-.044-.43-.044-.079 0-.089 0-.123.005z"/><path d="M110.602-83.512H63.578" stroke="#000" fill="none" stroke-width=".398" stroke-miterlimit="10"/><path d="M65.45-81.121c-.376-1.438-1.22-2.113-2.071-2.39.851-.282 1.695-.958 2.07-2.391" stroke="#000" fill="none" stroke-width=".398" stroke-miterlimit="10" stroke-linecap="round" stroke-linejoin="round"/><path d="M79.896-75.825c.642-.663.9-1.59.9-1.668 0-.09-.084-.09-.118-.09-.098 0-.098.02-.147.174a3.64 3.64 0 01-.649 1.263c-.007-.105-.02-.572-.034-.635-.105-.69-.628-1.137-1.326-1.137-1.025 0-2.008.956-2.008 1.932 0 .642.467 1.214 1.276 1.214.642 0 1.22-.293 1.611-.593.16.509.516.593.726.593.404 0 .655-.342.655-.488 0-.084-.083-.084-.118-.084-.091 0-.105.028-.119.07a.433.433 0 01-.397.306c-.098 0-.217 0-.252-.857zm-.544.237c-.683.558-1.276.62-1.541.62-.46 0-.719-.307-.719-.774 0-.202.098-.962.46-1.444.322-.418.719-.537.963-.537.558 0 .719.537.774.97.042.3.028.795.063 1.165zm6.293-3.366c.08 0 .214 0 .214-.14 0-.139-.134-.139-.214-.139h-3.373c-.08 0-.214 0-.214.14s.135.14.214.14h3.373zm2.995-2.063c0-.15-.015-.15-.18-.15-.353.32-.906.32-1.006.32h-.085v.219h.085c.115 0 .439-.015.728-.14v2.492c0 .154 0 .209-.528.209h-.25v.219c.274-.02.718-.02 1.007-.02.289 0 .732 0 1.006.02v-.22h-.25c-.527 0-.527-.054-.527-.208v-2.74zm-4.08 6.31c.02-.075.02-.11.02-.115 0-.11-.09-.174-.185-.174-.2 0-.24.174-.274.309l-.105.413-.154.623c-.02.065-.045.17-.05.2-.005.02-.274.487-.698.487-.229 0-.408-.109-.408-.428 0-.274.15-.638.294-.996.025-.06.06-.14.06-.225 0-.244-.235-.438-.543-.438-.523 0-.803.638-.803.772 0 .07.08.07.105.07.085 0 .09-.025.115-.1.104-.343.338-.573.563-.573.094 0 .149.055.149.19 0 .1-.03.169-.065.259-.244.592-.289.772-.289.971 0 .553.464.668.797.668a.96.96 0 00.618-.244c-.07.279-.124.498-.358.737-.115.115-.35.304-.658.304-.09 0-.274-.015-.389-.12a.312.312 0 00.25-.299c0-.144-.115-.204-.22-.204-.144 0-.314.12-.314.349 0 .25.254.443.673.443.568 0 1.24-.378 1.4-1.016l.468-1.863zm1.862 1.788c0 .478-.259.753-.393.862-.05.04-.06.05-.06.085 0 .03.045.09.09.09.064 0 .533-.39.533-1.012 0-.339-.15-.563-.374-.563-.19 0-.304.15-.304.304 0 .16.115.304.304.304.075 0 .15-.02.204-.07zm2.079-.383c.21-.195.458-.374.737-.573a6.69 6.69 0 00.758-.603c.249-.234.418-.453.418-.503 0-.07-.075-.07-.105-.07-.07 0-.074.005-.114.06-.19.264-.304.284-.389.284-.08 0-.154-.015-.309-.13-.17-.13-.279-.214-.468-.214-.453 0-.748.438-.748.593 0 .075.07.075.105.075.055 0 .08-.01.105-.06.02-.06.07-.18.468-.18.14 0 .244.015.503.055.185.03.244.03.33.03-.145.13-.3.259-.673.528-.36.254-.573.409-.803.628-.199.18-.433.448-.433.518s.075.07.105.07c.06 0 .074-.005.104-.045.145-.2.324-.299.499-.299.139 0 .209.05.388.19.14.104.254.154.399.154.583 0 .966-.593.966-.792 0-.07-.084-.07-.104-.07-.08 0-.09.02-.11.08-.114.299-.508.353-.698.353a2.32 2.32 0 01-.378-.04c-.28-.044-.359-.044-.429-.044-.08 0-.09 0-.124.005zm3.817.383c0 .478-.26.753-.394.862-.05.04-.06.05-.06.085 0 .03.045.09.09.09.065 0 .533-.39.533-1.012 0-.339-.15-.563-.374-.563-.19 0-.304.15-.304.304 0 .16.115.304.304.304a.3.3 0 00.205-.07zm4.031-1.883c-.23.07-.23.289-.23.294 0 .085.06.204.225.204.14 0 .309-.12.309-.338 0-.294-.329-.41-.593-.41-.324 0-.533.21-.633.34-.164-.284-.483-.34-.662-.34-.623 0-.977.589-.977.773 0 .07.08.07.105.07.045 0 .085-.005.104-.06.15-.488.558-.613.748-.613.164 0 .354.07.354.334 0 .125-.09.468-.26 1.131-.074.284-.303.453-.518.453-.035 0-.179 0-.299-.08.225-.079.225-.268.225-.288 0-.145-.11-.21-.22-.21a.32.32 0 00-.308.34c0 .303.338.408.592.408.274 0 .498-.16.618-.339.2.299.518.339.673.339.627 0 .981-.593.981-.772 0-.07-.084-.07-.104-.07-.085 0-.095.03-.11.075a.825.825 0 01-.747.597c-.15 0-.354-.054-.354-.333 0-.06 0-.095.04-.264.084-.35.219-.902.259-.992.065-.13.23-.329.483-.329.015 0 .184 0 .3.08z"/><path d="M215.113-83.512H168.09" stroke="#000" fill="none" stroke-width=".398" stroke-miterlimit="10"/><path d="M169.961-81.121c-.379-1.438-1.222-2.113-2.07-2.39.848-.282 1.691-.958 2.07-2.391" stroke="#000" fill="none" stroke-width=".398" stroke-miterlimit="10" stroke-linecap="round" stroke-linejoin="round"/><path d="M176.794-80.63a.403.403 0 00-.405-.397.397.397 0 00-.397.398.4.4 0 10.802 0zm-1.06 1.305v.25c.439 0 .502.043.502.385v1.813c0 .3-.07.3-.523.3v.251c.014 0 .502-.028.78-.028.245 0 .496.007.74.028v-.251c-.404 0-.474 0-.474-.293v-2.532l-1.025.077zm4.326-1.765v.251c.468 0 .524.049.524.39v1.445a1.377 1.377 0 00-.977-.398c-.928 0-1.709.698-1.709 1.576 0 .872.74 1.57 1.625 1.57a1.41 1.41 0 001.033-.433v.433l1.074-.07v-.251c-.468 0-.523-.049-.523-.39v-4.2l-1.047.077zm.496 4.032c-.182.327-.537.606-.99.606a.993.993 0 01-.81-.432c-.14-.21-.223-.488-.223-.934 0-.161 0-.684.286-1.012.279-.314.62-.377.823-.377.335 0 .635.154.83.405.084.112.084.119.084.251v1.493zm4.72-.13c.02-.075.02-.11.02-.115 0-.11-.09-.174-.184-.174-.2 0-.24.174-.274.309l-.105.413-.154.623c-.02.065-.045.17-.05.2-.005.02-.274.487-.698.487-.229 0-.408-.109-.408-.428 0-.274.15-.638.294-.996.025-.06.06-.14.06-.225 0-.244-.235-.438-.543-.438-.524 0-.803.638-.803.772 0 .07.08.07.105.07.085 0 .09-.025.114-.1.105-.343.34-.573.564-.573.094 0 .149.055.149.19 0 .1-.03.169-.065.259-.244.592-.289.772-.289.971 0 .553.464.668.797.668.284 0 .494-.14.618-.244-.07.279-.124.498-.359.737-.114.115-.348.304-.657.304-.09 0-.274-.015-.389-.12a.312.312 0 00.25-.299c0-.144-.115-.204-.22-.204-.144 0-.314.12-.314.349 0 .25.254.443.673.443.568 0 1.24-.378 1.4-1.016l.468-1.863zm6.703-.882a2.576 2.576 0 00-2.574-2.573 2.58 2.58 0 00-2.574 2.566 2.576 2.576 0 002.574 2.574 2.58 2.58 0 002.574-2.567zm-4.137-1.737c.286-.258.824-.6 1.563-.6.74 0 1.276.342 1.562.6l-1.562 1.563-1.563-1.563zm-.167 3.293c-.384-.398-.607-.984-.607-1.556 0-.613.244-1.185.607-1.562l1.562 1.555-1.562 1.563zm3.46-3.118c.383.398.606.983.606 1.555a2.29 2.29 0 01-.606 1.563l-1.563-1.556 1.563-1.562zm-.168 3.292c-.286.258-.823.6-1.562.6-.74 0-1.277-.342-1.563-.6l1.563-1.562 1.562 1.562zm5.634-2.518c.119 0 .182 0 .258-.056a.304.304 0 00.112-.223c0-.195-.181-.195-.3-.195h-1.786c-1.116 0-1.952 1.102-1.952 1.939 0 .649.48 1.137 1.192 1.137.88 0 1.883-.795 1.883-1.862 0-.112 0-.426-.209-.74h.802zm-2.469 2.406c-.376 0-.69-.25-.69-.746 0-.21.125-1.66 1.325-1.66.356 0 .718.133.718.663 0 .125-.062.753-.404 1.22-.293.384-.684.523-.949.523zm6.099-.831c-.23.07-.23.289-.23.294 0 .085.06.204.225.204.14 0 .309-.12.309-.338 0-.294-.329-.41-.593-.41-.324 0-.533.21-.633.34-.164-.284-.483-.34-.662-.34-.623 0-.977.589-.977.773 0 .07.08.07.105.07.044 0 .084-.005.104-.06.15-.488.558-.613.748-.613.164 0 .353.07.353.334 0 .125-.09.468-.259 1.131-.074.284-.304.453-.518.453-.035 0-.18 0-.299-.08.225-.079.225-.268.225-.288 0-.145-.11-.21-.22-.21a.32.32 0 00-.309.34c0 .303.34.408.593.408.274 0 .498-.16.618-.339.2.299.518.339.673.339.627 0 .981-.593.981-.772 0-.07-.085-.07-.105-.07-.084 0-.094.03-.11.075a.825.825 0 01-.746.597c-.15 0-.354-.054-.354-.333 0-.06 0-.095.04-.264.084-.35.219-.902.259-.992.065-.13.229-.329.483-.329.015 0 .184 0 .3.08zm2.195 1.883c0 .478-.26.753-.394.862-.05.04-.06.05-.06.085 0 .03.045.09.09.09.065 0 .533-.39.533-1.012 0-.339-.15-.563-.373-.563-.19 0-.304.15-.304.304 0 .16.114.304.304.304a.3.3 0 00.204-.07zm2.078-.383c.21-.195.459-.374.738-.573a6.69 6.69 0 00.757-.603c.25-.234.419-.453.419-.503 0-.07-.075-.07-.105-.07-.07 0-.075.005-.115.06-.189.264-.304.284-.388.284-.08 0-.155-.015-.31-.13-.169-.13-.278-.214-.467-.214-.454 0-.748.438-.748.593 0 .075.07.075.105.075.055 0 .08-.01.104-.06.02-.06.07-.18.469-.18.14 0 .244.015.503.055.184.03.244.03.329.03-.145.13-.299.259-.673.528-.358.254-.573.409-.802.628-.2.18-.433.448-.433.518s.074.07.104.07c.06 0 .075-.005.105-.045.144-.2.324-.299.498-.299.14 0 .21.05.389.19.14.104.254.154.398.154.583 0 .967-.593.967-.792 0-.07-.085-.07-.105-.07-.08 0-.09.02-.11.08-.114.299-.508.353-.697.353-.105 0-.234-.015-.378-.04-.28-.044-.36-.044-.43-.044-.079 0-.089 0-.124.005zM13.88-41.602c0-.03 0-.05-.17-.22-1.244-1.254-1.563-3.137-1.563-4.661 0-1.733.378-3.467 1.604-4.712.13-.12.13-.14.13-.17 0-.069-.04-.099-.1-.099-.1 0-.996.678-1.584 1.943-.508 1.095-.628 2.2-.628 3.038 0 .777.11 1.982.658 3.108.597 1.225 1.454 1.872 1.553 1.872.06 0 .1-.03.1-.1zm3.904-5.399c.06-.26.289-1.176.986-1.176.05 0 .29 0 .498.13-.279.05-.478.299-.478.538 0 .16.11.348.379.348a.555.555 0 00.538-.577c0-.518-.588-.658-.927-.658-.578 0-.926.528-1.046.757-.249-.657-.787-.757-1.075-.757-1.037 0-1.604 1.285-1.604 1.534 0 .1.1.1.12.1.079 0 .109-.02.129-.11.338-1.056.996-1.305 1.335-1.305.189 0 .537.09.537.668 0 .309-.169.976-.537 2.37-.16.618-.509 1.036-.947 1.036-.06 0-.289 0-.498-.129.25-.05.468-.26.468-.538 0-.269-.219-.349-.368-.349-.3 0-.548.26-.548.578 0 .458.498.658.936.658.658 0 1.016-.698 1.046-.757a1.1 1.1 0 001.076.757c1.026 0 1.594-1.285 1.594-1.534 0-.1-.09-.1-.12-.1-.09 0-.11.04-.13.11-.328 1.065-1.005 1.304-1.324 1.304-.389 0-.548-.318-.548-.657 0-.22.06-.438.17-.877L17.783-47zm11.773.518a3.322 3.322 0 00-6.644 0 3.323 3.323 0 006.644 0zm-5.3-2.142c-.02-.02-.089-.09-.089-.11 0-.04.807-.816 2.062-.816.349 0 1.265.05 2.082.816l-2.072 2.082-1.983-1.972zM23.97-44.4a3.093 3.093 0 01-.807-2.082c0-.767.289-1.494.807-2.082l2.082 2.082L23.97-44.4zm4.522-4.164a3.09 3.09 0 01.817 2.082c0 .767-.289 1.494-.807 2.082l-2.082-2.082 2.072-2.082zm-.279 4.223c.02.02.09.09.09.11 0 .04-.807.817-2.062.817-.349 0-1.265-.05-2.082-.817l2.072-2.082 1.982 1.972zm8.955-3.447c.04-.14.04-.16.04-.23 0-.179-.14-.268-.289-.268-.1 0-.259.06-.349.209-.02.05-.1.358-.139.538-.07.259-.14.528-.2.797l-.447 1.793c-.04.15-.469.846-1.126.846-.508 0-.618-.438-.618-.807 0-.458.17-1.075.508-1.952.16-.408.2-.518.2-.717 0-.448-.32-.817-.817-.817-.946 0-1.315 1.445-1.315 1.534 0 .1.1.1.12.1.1 0 .11-.02.159-.18.269-.936.667-1.235 1.006-1.235.08 0 .249 0 .249.319 0 .25-.1.508-.17.697-.398 1.056-.577 1.624-.577 2.092 0 .887.627 1.186 1.215 1.186.389 0 .727-.17 1.006-.449-.13.518-.249 1.007-.647 1.534-.26.34-.638.628-1.096.628-.14 0-.588-.03-.757-.418.16 0 .289 0 .428-.12.1-.09.2-.22.2-.408 0-.31-.27-.35-.369-.35-.23 0-.558.16-.558.648 0 .498.438.867 1.056.867 1.026 0 2.052-.906 2.331-2.032l.956-3.805zm3.28 1.305c0-.777-.11-1.982-.658-3.108-.597-1.225-1.454-1.873-1.553-1.873-.06 0-.1.04-.1.1 0 .03 0 .05.19.229.975.986 1.543 2.57 1.543 4.652 0 1.703-.368 3.456-1.604 4.711-.13.12-.13.14-.13.17 0 .06.04.1.1.1.1 0 .996-.678 1.584-1.943.508-1.096.628-2.201.628-3.038zm10.402 0a3.322 3.322 0 00-6.644 0 3.323 3.323 0 006.644 0zm-5.3-2.142c-.02-.02-.089-.09-.089-.11 0-.04.807-.816 2.062-.816.349 0 1.265.05 2.082.816l-2.072 2.082-1.983-1.972zm-.288 4.224a3.093 3.093 0 01-.807-2.082c0-.767.289-1.494.807-2.082l2.082 2.082-2.082 2.082zm4.522-4.164a3.09 3.09 0 01.817 2.082c0 .767-.289 1.494-.807 2.082l-2.082-2.082 2.072-2.082zm-.279 4.223c.02.02.09.09.09.11 0 .04-.807.817-2.062.817-.349 0-1.265-.05-2.082-.817l2.072-2.082 1.982 1.972zm5.44-.478c.538-.578.827-.826 1.185-1.135 0-.01.618-.538.977-.897.946-.926 1.165-1.404 1.165-1.444 0-.1-.09-.1-.11-.1-.07 0-.1.02-.15.11-.298.478-.507.637-.746.637s-.359-.15-.508-.318c-.19-.23-.359-.429-.688-.429-.747 0-1.205.926-1.205 1.136 0 .05.03.11.12.11s.11-.05.13-.11c.188-.459.766-.468.846-.468.209 0 .398.07.627.15.399.148.509.148.767.148-.358.429-1.195 1.146-1.384 1.305l-.897.837c-.677.668-1.026 1.235-1.026 1.305 0 .1.1.1.12.1.08 0 .1-.02.16-.13.228-.348.527-.617.846-.617.23 0 .329.09.578.378.169.21.348.369.637.369.986 0 1.564-1.266 1.564-1.534 0-.05-.04-.1-.12-.1-.089 0-.109.06-.139.13-.229.647-.866.836-1.195.836-.2 0-.379-.06-.588-.13-.338-.129-.488-.169-.697-.169-.02 0-.18 0-.27.03zm63.473-2.181c.06-.26.289-1.176.986-1.176.05 0 .29 0 .498.13-.279.05-.478.299-.478.538 0 .16.11.348.379.348a.555.555 0 00.538-.577c0-.518-.588-.658-.927-.658-.578 0-.926.528-1.046.757-.249-.657-.787-.757-1.075-.757-1.037 0-1.604 1.285-1.604 1.534 0 .1.1.1.12.1.079 0 .109-.02.129-.11.338-1.056.996-1.305 1.335-1.305.189 0 .537.09.537.668 0 .309-.169.976-.537 2.37-.16.618-.509 1.036-.947 1.036-.06 0-.289 0-.498-.129.25-.05.468-.26.468-.538 0-.269-.219-.349-.368-.349-.3 0-.548.26-.548.578 0 .458.498.658.936.658.658 0 1.016-.698 1.046-.757a1.1 1.1 0 001.076.757c1.026 0 1.594-1.285 1.594-1.534 0-.1-.09-.1-.12-.1-.09 0-.11.04-.13.11-.328 1.065-1.005 1.304-1.324 1.304-.389 0-.548-.318-.548-.657 0-.22.06-.438.17-.877l.338-1.364zm11.772.518a3.322 3.322 0 00-6.643 0 3.323 3.323 0 006.644 0zm-5.298-2.142c-.02-.02-.09-.09-.09-.11 0-.04.807-.816 2.062-.816.349 0 1.265.05 2.082.816l-2.072 2.082-1.982-1.972zm-.29 4.224a3.093 3.093 0 01-.806-2.082c0-.767.289-1.494.807-2.082l2.082 2.082-2.082 2.082zm4.523-4.164a3.09 3.09 0 01.817 2.082c0 .767-.289 1.494-.807 2.082l-2.082-2.082 2.072-2.082zm-.279 4.223c.02.02.09.09.09.11 0 .04-.807.817-2.062.817-.349 0-1.265-.05-2.082-.817l2.072-2.082 1.982 1.972zm7.414 2.74c0-.03 0-.05-.17-.22-1.245-1.254-1.564-3.137-1.564-4.661 0-1.733.378-3.467 1.604-4.712.13-.12.13-.14.13-.17 0-.069-.04-.099-.1-.099-.1 0-.996.678-1.584 1.943-.508 1.095-.628 2.2-.628 3.038 0 .777.11 1.982.658 3.108.597 1.225 1.454 1.872 1.553 1.872.06 0 .1-.03.1-.1zm5.417-6.186c.04-.14.04-.16.04-.23 0-.179-.14-.268-.289-.268-.1 0-.259.06-.349.209-.02.05-.1.358-.139.538-.07.259-.14.528-.2.797l-.447 1.793c-.04.15-.469.846-1.126.846-.508 0-.618-.438-.618-.807 0-.458.17-1.075.508-1.952.16-.408.2-.518.2-.717 0-.448-.32-.817-.817-.817-.947 0-1.315 1.445-1.315 1.534 0 .1.1.1.12.1.1 0 .11-.02.159-.18.269-.936.667-1.235 1.006-1.235.08 0 .249 0 .249.319 0 .25-.1.508-.17.697-.398 1.056-.577 1.624-.577 2.092 0 .887.627 1.186 1.215 1.186.389 0 .727-.17 1.006-.449-.13.518-.249 1.007-.647 1.534-.26.34-.638.628-1.096.628-.14 0-.588-.03-.757-.418.16 0 .289 0 .428-.12.1-.09.2-.22.2-.408 0-.31-.27-.35-.37-.35-.228 0-.557.16-.557.648 0 .498.438.867 1.056.867 1.026 0 2.052-.906 2.331-2.032l.956-3.805zm9.807 1.305a3.322 3.322 0 00-6.644 0 3.323 3.323 0 006.644 0zm-5.3-2.142c-.02-.02-.089-.09-.089-.11 0-.04.807-.816 2.062-.816.349 0 1.265.05 2.082.816l-2.072 2.082-1.982-1.972zm-.288 4.224a3.093 3.093 0 01-.807-2.082c0-.767.289-1.494.807-2.082l2.082 2.082-2.082 2.082zm4.522-4.164a3.09 3.09 0 01.817 2.082c0 .767-.289 1.494-.807 2.082l-2.082-2.082 2.072-2.082zm-.279 4.223c.02.02.09.09.09.11 0 .04-.807.817-2.062.817-.349 0-1.265-.05-2.082-.817l2.072-2.082 1.982 1.972zm5.44-.478c.538-.578.827-.826 1.185-1.135 0-.01.618-.538.977-.897.946-.926 1.165-1.404 1.165-1.444 0-.1-.09-.1-.11-.1-.07 0-.1.02-.15.11-.298.478-.507.637-.746.637-.24 0-.359-.15-.508-.318-.19-.23-.359-.429-.688-.429-.747 0-1.205.926-1.205 1.136 0 .05.03.11.12.11s.11-.05.13-.11c.188-.459.766-.468.846-.468.209 0 .398.07.627.15.399.148.509.148.767.148-.358.429-1.195 1.146-1.384 1.305l-.897.837c-.677.668-1.026 1.235-1.026 1.305 0 .1.1.1.12.1.08 0 .1-.02.16-.13.228-.348.527-.617.846-.617.23 0 .329.09.578.378.169.21.348.369.637.369.986 0 1.564-1.266 1.564-1.534 0-.05-.04-.1-.12-.1-.089 0-.109.06-.139.13-.229.647-.867.836-1.195.836-.2 0-.379-.06-.588-.13-.338-.129-.488-.169-.697-.169-.02 0-.18 0-.27.03zm6.626-1.663c0-.777-.11-1.982-.658-3.108-.597-1.225-1.454-1.873-1.554-1.873-.06 0-.1.04-.1.1 0 .03 0 .05.19.229.976.986 1.544 2.57 1.544 4.652 0 1.703-.369 3.456-1.604 4.711-.13.12-.13.14-.13.17 0 .06.04.1.1.1.1 0 .996-.678 1.584-1.943.508-1.096.628-2.201.628-3.038zm60.722-.518c.06-.26.289-1.176.986-1.176.05 0 .29 0 .498.13-.278.05-.478.299-.478.538 0 .16.11.348.379.348a.555.555 0 00.538-.577c0-.518-.588-.658-.927-.658-.578 0-.926.528-1.046.757-.249-.657-.787-.757-1.075-.757-1.037 0-1.604 1.285-1.604 1.534 0 .1.1.1.12.1.079 0 .109-.02.129-.11.338-1.056.996-1.305 1.335-1.305.189 0 .537.09.537.668 0 .309-.169.976-.537 2.37-.16.618-.509 1.036-.947 1.036-.06 0-.289 0-.498-.129.25-.05.468-.26.468-.538 0-.269-.219-.349-.368-.349-.3 0-.548.26-.548.578 0 .458.498.658.936.658.658 0 1.016-.698 1.046-.757a1.1 1.1 0 001.076.757c1.026 0 1.594-1.285 1.594-1.534 0-.1-.09-.1-.12-.1-.09 0-.11.04-.13.11-.328 1.065-1.005 1.304-1.324 1.304-.389 0-.548-.318-.548-.657 0-.22.06-.438.17-.877l.338-1.364zm11.772.518a3.322 3.322 0 00-6.644 0 3.323 3.323 0 006.644 0zm-5.3-2.142c-.02-.02-.089-.09-.089-.11 0-.04.807-.816 2.062-.816.349 0 1.265.05 2.082.816l-2.072 2.082-1.982-1.972zm-.288 4.224a3.093 3.093 0 01-.807-2.082c0-.767.289-1.494.807-2.082l2.082 2.082-2.082 2.082zm4.522-4.164a3.09 3.09 0 01.817 2.082c0 .767-.289 1.494-.807 2.082l-2.082-2.082 2.072-2.082zm-.279 4.223c.02.02.09.09.09.11 0 .04-.807.817-2.062.817-.349 0-1.265-.05-2.082-.817l2.072-2.082 1.982 1.972zm7.413 2.74c0-.03 0-.05-.17-.22-1.244-1.254-1.563-3.137-1.563-4.661 0-1.733.378-3.467 1.604-4.712.13-.12.13-.14.13-.17 0-.069-.04-.099-.1-.099-.1 0-.996.678-1.584 1.943-.508 1.095-.628 2.2-.628 3.038 0 .777.11 1.982.658 3.108.597 1.225 1.454 1.872 1.553 1.872.06 0 .1-.03.1-.1zm1.902-3.218c.538-.578.827-.826 1.185-1.135 0-.01.618-.538.977-.897.946-.926 1.165-1.404 1.165-1.444 0-.1-.09-.1-.11-.1-.07 0-.1.02-.15.11-.298.478-.507.637-.746.637-.24 0-.359-.15-.508-.318-.19-.23-.359-.429-.688-.429-.747 0-1.205.926-1.205 1.136 0 .05.03.11.12.11s.11-.05.13-.11c.188-.459.766-.468.846-.468.209 0 .398.07.627.15.399.148.509.148.767.148-.358.429-1.195 1.146-1.384 1.305l-.897.837c-.677.668-1.026 1.235-1.026 1.305 0 .1.1.1.12.1.08 0 .1-.02.16-.13.228-.348.527-.617.846-.617.23 0 .329.09.578.378.169.21.348.369.637.369.986 0 1.564-1.266 1.564-1.534 0-.05-.04-.1-.12-.1-.089 0-.109.06-.139.13-.229.647-.867.836-1.195.836-.2 0-.379-.06-.588-.13-.338-.129-.488-.169-.697-.169-.02 0-.18 0-.27.03zm13.153-1.663a3.322 3.322 0 00-6.644 0 3.323 3.323 0 006.644 0zm-5.3-2.142c-.02-.02-.089-.09-.089-.11 0-.04.807-.816 2.062-.816.349 0 1.265.05 2.082.816l-2.072 2.082-1.983-1.972zm-.288 4.224a3.093 3.093 0 01-.807-2.082c0-.767.289-1.494.807-2.082l2.082 2.082-2.082 2.082zm4.522-4.164a3.09 3.09 0 01.817 2.082c0 .767-.289 1.494-.807 2.082l-2.082-2.082 2.072-2.082zm-.279 4.223c.02.02.09.09.09.11 0 .04-.807.817-2.062.817-.349 0-1.265-.05-2.082-.817l2.072-2.082 1.982 1.972zm8.956-3.446c.04-.14.04-.16.04-.23 0-.179-.14-.268-.289-.268-.1 0-.259.06-.349.209-.02.05-.1.358-.139.538-.07.259-.14.528-.2.797l-.447 1.793c-.04.15-.469.846-1.126.846-.508 0-.618-.438-.618-.807 0-.458.17-1.075.508-1.952.16-.408.2-.518.2-.717 0-.448-.32-.817-.817-.817-.946 0-1.315 1.445-1.315 1.534 0 .1.1.1.12.1.1 0 .11-.02.159-.18.269-.936.667-1.235 1.006-1.235.08 0 .249 0 .249.319 0 .25-.1.508-.17.697-.398 1.056-.577 1.624-.577 2.092 0 .887.627 1.186 1.215 1.186.389 0 .727-.17 1.006-.449-.13.518-.249 1.007-.647 1.534-.26.34-.638.628-1.096.628-.14 0-.588-.03-.757-.418.16 0 .289 0 .428-.12.1-.09.2-.22.2-.408 0-.31-.27-.35-.369-.35-.23 0-.558.16-.558.648 0 .498.438.867 1.056.867 1.026 0 2.052-.906 2.331-2.032l.956-3.805zm3.28 1.305c0-.777-.11-1.982-.658-3.108-.597-1.225-1.454-1.873-1.553-1.873-.06 0-.1.04-.1.1 0 .03 0 .05.19.229.975.986 1.543 2.57 1.543 4.652 0 1.703-.368 3.456-1.604 4.711-.13.12-.13.14-.13.17 0 .06.04.1.1.1.1 0 .996-.678 1.584-1.943.508-1.096.628-2.201.628-3.038zM11.908-9.633c.538-.578.827-.826 1.185-1.135 0-.01.618-.538.977-.897.946-.926 1.165-1.404 1.165-1.444 0-.1-.09-.1-.11-.1-.07 0-.1.02-.15.11-.298.478-.507.637-.746.637s-.359-.15-.508-.318c-.19-.23-.359-.429-.688-.429-.747 0-1.205.926-1.205 1.136 0 .05.03.11.12.11s.11-.05.129-.11c.19-.459.767-.468.847-.468.209 0 .398.07.627.15.399.148.509.148.767.148-.358.429-1.195 1.146-1.384 1.305l-.897.837c-.677.668-1.026 1.235-1.026 1.305 0 .1.1.1.12.1.08 0 .1-.02.16-.13.228-.348.527-.617.846-.617.23 0 .329.09.578.378.169.21.348.369.637.369.986 0 1.564-1.266 1.564-1.534 0-.05-.04-.1-.12-.1-.089 0-.109.06-.139.13-.229.647-.867.836-1.195.836-.2 0-.379-.06-.588-.13-.339-.129-.488-.169-.697-.169-.02 0-.18 0-.27.03zm13.152-1.663a3.322 3.322 0 00-6.644 0 3.323 3.323 0 006.644 0zm-5.3-2.142c-.02-.02-.089-.09-.089-.11 0-.04.807-.816 2.062-.816.349 0 1.265.05 2.082.816l-2.072 2.082-1.983-1.972zm-.288 4.224a3.093 3.093 0 01-.807-2.082c0-.767.289-1.494.807-2.082l2.082 2.082-2.082 2.082zm4.522-4.164a3.09 3.09 0 01.817 2.082c0 .767-.289 1.494-.807 2.082l-2.082-2.082 2.072-2.082zm-.279 4.223c.02.02.09.09.09.11 0 .04-.807.817-2.062.817-.349 0-1.265-.05-2.082-.817l2.072-2.082 1.982 1.972zm7.412 2.74c0-.03 0-.05-.17-.22-1.244-1.254-1.563-3.137-1.563-4.661 0-1.733.378-3.467 1.604-4.712.13-.12.13-.14.13-.17 0-.069-.04-.099-.1-.099-.1 0-.996.678-1.584 1.943-.508 1.095-.628 2.2-.628 3.038 0 .777.11 1.982.658 3.108.597 1.225 1.454 1.872 1.553 1.872.06 0 .1-.03.1-.1zm3.905-5.399c.06-.26.289-1.176.986-1.176.05 0 .29 0 .498.13-.279.05-.478.299-.478.538 0 .16.11.348.379.348a.555.555 0 00.538-.577c0-.518-.588-.658-.927-.658-.578 0-.926.528-1.046.757-.249-.657-.787-.757-1.075-.757-1.037 0-1.604 1.285-1.604 1.534 0 .1.1.1.12.1.079 0 .109-.02.129-.11.338-1.056.996-1.305 1.335-1.305.189 0 .537.09.537.668 0 .309-.169.976-.537 2.37-.16.618-.509 1.036-.947 1.036-.06 0-.289 0-.498-.129.25-.05.468-.26.468-.538 0-.269-.219-.349-.368-.349-.3 0-.548.26-.548.578 0 .458.498.658.936.658.658 0 1.016-.698 1.046-.757a1.1 1.1 0 001.076.757c1.026 0 1.594-1.285 1.594-1.534 0-.1-.09-.1-.12-.1-.09 0-.11.04-.13.11-.328 1.065-1.005 1.304-1.324 1.304-.389 0-.548-.318-.548-.657 0-.22.06-.438.17-.877l.338-1.364zm11.773.518a3.322 3.322 0 00-6.644 0 3.323 3.323 0 006.644 0zm-5.3-2.142c-.02-.02-.089-.09-.089-.11 0-.04.807-.816 2.062-.816.349 0 1.265.05 2.082.816l-2.072 2.082-1.982-1.972zm-.288 4.224a3.093 3.093 0 01-.807-2.082c0-.767.289-1.494.807-2.082l2.082 2.082-2.082 2.082zm4.522-4.164a3.09 3.09 0 01.817 2.082c0 .767-.289 1.494-.807 2.082l-2.082-2.082 2.072-2.082zm-.279 4.223c.02.02.09.09.09.11 0 .04-.807.817-2.062.817-.349 0-1.265-.05-2.082-.817l2.072-2.082 1.982 1.972zm8.956-3.446c.04-.14.04-.16.04-.23 0-.179-.14-.268-.289-.268-.1 0-.259.06-.349.209-.02.05-.1.358-.139.538-.07.259-.14.528-.2.797l-.447 1.793c-.04.15-.469.846-1.126.846-.508 0-.618-.438-.618-.807 0-.458.17-1.075.508-1.952.16-.408.2-.518.2-.717 0-.448-.32-.817-.817-.817-.947 0-1.315 1.445-1.315 1.534 0 .1.1.1.12.1.1 0 .11-.02.159-.18.269-.936.667-1.235 1.006-1.235.08 0 .249 0 .249.319 0 .25-.1.508-.17.697-.398 1.056-.577 1.624-.577 2.092 0 .887.627 1.186 1.215 1.186.389 0 .727-.17 1.006-.449-.13.518-.249 1.007-.647 1.534-.26.34-.638.628-1.096.628-.14 0-.588-.03-.757-.418.16 0 .289 0 .428-.12.1-.09.2-.219.2-.408 0-.31-.27-.35-.37-.35-.228 0-.557.16-.557.648 0 .498.438.867 1.056.867 1.026 0 2.052-.906 2.331-2.032l.956-3.805zm3.28 1.305c0-.777-.11-1.982-.658-3.108-.597-1.225-1.454-1.873-1.554-1.873-.06 0-.1.04-.1.1 0 .03 0 .05.19.229.976.986 1.544 2.57 1.544 4.652 0 1.703-.369 3.456-1.604 4.711-.13.12-.13.14-.13.17 0 .06.04.1.1.1.1 0 .996-.678 1.584-1.943.508-1.096.628-2.201.628-3.038zm60.692 4.881c0-.03 0-.05-.17-.22-1.244-1.254-1.563-3.137-1.563-4.661 0-1.733.378-3.467 1.604-4.712.13-.12.13-.14.13-.17 0-.069-.04-.099-.1-.099-.1 0-.996.678-1.584 1.943-.508 1.095-.628 2.2-.628 3.038 0 .777.11 1.982.658 3.108.597 1.225 1.454 1.872 1.553 1.872.06 0 .1-.03.1-.1zm1.902-3.218c.538-.578.827-.826 1.185-1.135 0-.01.618-.538.977-.897.946-.926 1.165-1.404 1.165-1.444 0-.1-.09-.1-.11-.1-.07 0-.1.02-.15.11-.298.478-.507.637-.746.637-.24 0-.359-.15-.508-.318-.19-.23-.359-.429-.688-.429-.747 0-1.205.926-1.205 1.136 0 .05.03.11.12.11s.11-.05.13-.11c.188-.459.766-.468.846-.468.209 0 .398.07.627.15.399.148.509.148.767.148-.358.429-1.195 1.146-1.384 1.305l-.897.837c-.677.668-1.026 1.235-1.026 1.305 0 .1.1.1.12.1.08 0 .1-.02.16-.13.228-.348.527-.617.846-.617.23 0 .329.09.578.378.169.21.348.369.637.369.986 0 1.564-1.266 1.564-1.534 0-.05-.04-.1-.12-.1-.089 0-.109.06-.139.13-.229.647-.867.836-1.195.836-.2 0-.379-.06-.588-.13-.338-.129-.488-.169-.697-.169-.02 0-.18 0-.27.03zm13.153-1.663a3.322 3.322 0 00-6.644 0 3.323 3.323 0 006.644 0zm-5.3-2.142c-.02-.02-.089-.09-.089-.11 0-.04.807-.816 2.062-.816.349 0 1.265.05 2.082.816l-2.072 2.082-1.983-1.972zm-.288 4.224a3.093 3.093 0 01-.807-2.082c0-.767.289-1.494.807-2.082l2.082 2.082-2.082 2.082zm4.522-4.164a3.09 3.09 0 01.817 2.082c0 .767-.289 1.494-.807 2.082l-2.082-2.082 2.072-2.082zm-.279 4.223c.02.02.09.09.09.11 0 .04-.807.817-2.062.817-.349 0-1.265-.05-2.082-.817l2.072-2.082 1.982 1.972zm7.442-2.659c.06-.26.289-1.176.986-1.176.05 0 .29 0 .498.13-.278.05-.478.299-.478.538 0 .16.11.348.379.348a.555.555 0 00.538-.577c0-.518-.588-.658-.927-.658-.578 0-.926.528-1.046.757-.249-.657-.787-.757-1.075-.757-1.037 0-1.604 1.285-1.604 1.534 0 .1.1.1.12.1.079 0 .109-.02.129-.11.338-1.056.996-1.305 1.335-1.305.189 0 .537.09.537.668 0 .309-.169.976-.537 2.37-.16.618-.509 1.036-.947 1.036-.06 0-.289 0-.498-.129.25-.05.468-.26.468-.538 0-.269-.219-.349-.368-.349-.3 0-.548.26-.548.578 0 .458.498.658.936.658.658 0 1.016-.698 1.046-.757a1.1 1.1 0 001.076.757c1.026 0 1.594-1.285 1.594-1.534 0-.1-.09-.1-.12-.1-.09 0-.11.04-.13.11-.328 1.065-1.005 1.304-1.324 1.304-.389 0-.548-.318-.548-.657 0-.22.06-.438.17-.877l.338-1.364zm5.246.518c0-.777-.11-1.982-.658-3.108-.597-1.225-1.454-1.873-1.554-1.873-.06 0-.1.04-.1.1 0 .03 0 .05.19.229.976.986 1.544 2.57 1.544 4.652 0 1.703-.369 3.456-1.604 4.711-.13.12-.13.14-.13.17 0 .06.04.1.1.1.1 0 .996-.678 1.584-1.943.508-1.096.628-2.201.628-3.038zm10.401 0a3.322 3.322 0 00-6.644 0 3.323 3.323 0 006.644 0zm-5.3-2.142c-.02-.02-.089-.09-.089-.11 0-.04.807-.816 2.062-.816.349 0 1.265.05 2.082.816l-2.072 2.082-1.982-1.972zm-.288 4.224a3.093 3.093 0 01-.807-2.082c0-.767.289-1.494.807-2.082l2.082 2.082-2.082 2.082zm4.522-4.164a3.09 3.09 0 01.817 2.082c0 .767-.289 1.494-.807 2.082l-2.082-2.082 2.072-2.082zm-.279 4.223c.02.02.09.09.09.11 0 .04-.807.817-2.062.817-.349 0-1.265-.05-2.082-.817l2.072-2.082 1.982 1.972zm8.958-3.446c.039-.14.039-.16.039-.23 0-.179-.14-.268-.289-.268-.1 0-.259.06-.349.209-.02.05-.1.358-.139.538-.07.259-.14.528-.2.797l-.447 1.793c-.04.15-.469.846-1.126.846-.508 0-.618-.438-.618-.807 0-.458.17-1.075.508-1.952.16-.408.2-.518.2-.717 0-.448-.32-.817-.817-.817-.947 0-1.315 1.445-1.315 1.534 0 .1.1.1.12.1.1 0 .11-.02.159-.18.269-.936.667-1.235 1.006-1.235.08 0 .249 0 .249.319 0 .25-.1.508-.17.697-.398 1.056-.577 1.624-.577 2.092 0 .887.627 1.186 1.215 1.186.389 0 .727-.17 1.006-.449-.13.518-.249 1.007-.647 1.534-.26.34-.638.628-1.096.628-.14 0-.588-.03-.757-.418.16 0 .289 0 .428-.12.1-.09.2-.219.2-.408 0-.31-.27-.35-.37-.35-.228 0-.557.16-.557.648 0 .498.438.867 1.056.867 1.026 0 2.052-.906 2.331-2.032l.956-3.805zm60.097 6.186c0-.03 0-.05-.17-.22-1.244-1.254-1.563-3.137-1.563-4.661 0-1.733.379-3.467 1.604-4.712.13-.12.13-.14.13-.17 0-.069-.04-.099-.1-.099-.1 0-.996.678-1.584 1.943-.508 1.095-.628 2.2-.628 3.038 0 .777.11 1.982.658 3.108.597 1.225 1.454 1.872 1.554 1.872.06 0 .1-.03.1-.1zm3.904-5.399c.06-.26.289-1.176.986-1.176.05 0 .29 0 .498.13-.279.05-.478.299-.478.538 0 .16.11.348.379.348a.555.555 0 00.538-.577c0-.518-.588-.658-.927-.658-.578 0-.926.528-1.046.757-.249-.657-.787-.757-1.075-.757-1.037 0-1.604 1.285-1.604 1.534 0 .1.1.1.12.1.079 0 .109-.02.129-.11.338-1.056.996-1.305 1.335-1.305.189 0 .537.09.537.668 0 .309-.169.976-.537 2.37-.16.618-.509 1.036-.947 1.036-.06 0-.289 0-.498-.129.25-.05.468-.26.468-.538 0-.269-.219-.349-.368-.349-.3 0-.548.26-.548.578 0 .458.498.658.936.658.658 0 1.016-.698 1.046-.757a1.1 1.1 0 001.076.757c1.026 0 1.594-1.285 1.594-1.534 0-.1-.09-.1-.12-.1-.09 0-.11.04-.13.11-.328 1.065-1.005 1.304-1.324 1.304-.389 0-.548-.318-.548-.657 0-.22.06-.438.17-.877l.338-1.364zm11.773.518a3.322 3.322 0 00-6.644 0 3.323 3.323 0 006.644 0zm-5.3-2.142c-.02-.02-.089-.09-.089-.11 0-.04.807-.816 2.062-.816.349 0 1.265.05 2.082.816l-2.072 2.082-1.982-1.972zm-.288 4.224a3.093 3.093 0 01-.807-2.082c0-.767.289-1.494.807-2.082l2.082 2.082-2.082 2.082zm4.522-4.164a3.09 3.09 0 01.817 2.082c0 .767-.289 1.494-.807 2.082l-2.082-2.082 2.072-2.082zm-.279 4.223c.02.02.09.09.09.11 0 .04-.807.817-2.062.817-.349 0-1.265-.05-2.082-.817l2.072-2.082 1.982 1.972zm5.44-.478c.538-.578.827-.826 1.185-1.135 0-.01.618-.538.977-.897.946-.926 1.165-1.404 1.165-1.444 0-.1-.09-.1-.11-.1-.07 0-.1.02-.15.11-.298.478-.507.637-.746.637-.24 0-.359-.15-.508-.318-.19-.23-.359-.429-.688-.429-.747 0-1.205.926-1.205 1.136 0 .05.03.11.12.11s.11-.05.13-.11c.188-.459.766-.468.846-.468.209 0 .398.07.627.15.399.148.509.148.767.148-.358.429-1.195 1.146-1.384 1.305l-.897.837c-.677.668-1.026 1.235-1.026 1.305 0 .1.1.1.12.1.08 0 .1-.02.16-.13.228-.348.527-.617.846-.617.23 0 .329.09.578.378.169.21.348.369.637.369.986 0 1.564-1.266 1.564-1.534 0-.05-.04-.1-.12-.1-.089 0-.109.06-.139.13-.229.647-.867.836-1.195.836-.2 0-.379-.06-.588-.13-.338-.129-.488-.169-.697-.169-.02 0-.18 0-.27.03zm6.626-1.663c0-.777-.11-1.982-.658-3.108-.597-1.225-1.454-1.873-1.554-1.873-.06 0-.1.04-.1.1 0 .03 0 .05.19.229.976.986 1.544 2.57 1.544 4.652 0 1.703-.369 3.456-1.604 4.711-.13.12-.13.14-.13.17 0 .06.04.1.1.1.1 0 .996-.678 1.584-1.943.508-1.096.628-2.201.628-3.038zm10.401 0a3.322 3.322 0 00-6.644 0 3.323 3.323 0 006.644 0zm-5.3-2.142c-.02-.02-.089-.09-.089-.11 0-.04.807-.816 2.062-.816.349 0 1.265.05 2.082.816l-2.072 2.082-1.983-1.972zm-.288 4.224a3.093 3.093 0 01-.807-2.082c0-.767.289-1.494.807-2.082l2.082 2.082-2.082 2.082zm4.522-4.164a3.09 3.09 0 01.817 2.082c0 .767-.289 1.494-.807 2.082l-2.082-2.082 2.072-2.082zm-.279 4.223c.02.02.09.09.09.11 0 .04-.807.817-2.062.817-.349 0-1.265-.05-2.082-.817l2.072-2.082 1.982 1.972zm8.957-3.446c.04-.14.04-.16.04-.23 0-.179-.14-.268-.289-.268-.1 0-.259.06-.349.209-.02.05-.1.358-.139.538-.07.259-.14.528-.2.797l-.447 1.793c-.04.15-.469.846-1.126.846-.508 0-.618-.438-.618-.807 0-.458.17-1.075.508-1.952.16-.408.2-.518.2-.717 0-.448-.32-.817-.817-.817-.946 0-1.315 1.445-1.315 1.534 0 .1.1.1.12.1.1 0 .11-.02.159-.18.269-.936.667-1.235 1.006-1.235.08 0 .249 0 .249.319 0 .25-.1.508-.17.697-.398 1.056-.577 1.624-.577 2.092 0 .887.627 1.186 1.215 1.186.389 0 .727-.17 1.006-.449-.13.518-.249 1.007-.647 1.534-.26.34-.638.628-1.096.628-.14 0-.588-.03-.757-.418.16 0 .289 0 .428-.12.1-.09.2-.219.2-.408 0-.31-.27-.35-.369-.35-.23 0-.558.16-.558.648 0 .498.438.867 1.056.867 1.026 0 2.052-.906 2.331-2.032l.956-3.805z"/><path d="M63.18-46.484h47.023" stroke="#000" fill="none" stroke-width=".398" stroke-miterlimit="10"/><path d="M108.332-48.875c.379 1.434 1.222 2.113 2.07 2.39-.848.278-1.691.958-2.07 2.391" stroke="#000" fill="none" stroke-width=".398" stroke-miterlimit="10" stroke-linecap="round" stroke-linejoin="round"/><path d="M79.896-51.776c.642-.663.9-1.59.9-1.668 0-.09-.084-.09-.118-.09-.098 0-.098.02-.147.174a3.64 3.64 0 01-.649 1.263c-.007-.105-.02-.572-.034-.635-.105-.69-.628-1.137-1.326-1.137-1.025 0-2.008.956-2.008 1.932 0 .642.467 1.214 1.276 1.214.642 0 1.22-.293 1.611-.593.16.509.516.593.726.593.404 0 .655-.342.655-.488 0-.084-.083-.084-.118-.084-.091 0-.105.028-.119.07a.433.433 0 01-.397.306c-.098 0-.217 0-.252-.857zm-.544.237c-.683.558-1.276.62-1.541.62-.46 0-.719-.306-.719-.774 0-.202.098-.962.46-1.444.322-.418.719-.537.963-.537.558 0 .719.537.774.97.042.3.028.795.063 1.165zm5.003-.211c-.23.07-.23.289-.23.294 0 .085.06.204.225.204.14 0 .309-.12.309-.338 0-.294-.329-.41-.593-.41-.324 0-.533.21-.633.34-.164-.284-.483-.34-.662-.34-.623 0-.977.589-.977.773 0 .07.08.07.105.07.045 0 .085-.005.104-.06.15-.488.558-.613.748-.613.164 0 .353.07.353.334 0 .125-.09.468-.259 1.131-.074.284-.304.453-.518.453-.035 0-.18 0-.299-.08.225-.08.225-.268.225-.288 0-.145-.11-.21-.22-.21a.32.32 0 00-.309.34c0 .303.34.408.593.408.274 0 .498-.16.618-.34.2.3.518.34.673.34.627 0 .981-.593.981-.772 0-.07-.085-.07-.105-.07-.084 0-.094.03-.11.075a.825.825 0 01-.746.597c-.15 0-.354-.054-.354-.333 0-.06 0-.095.04-.264.084-.35.219-.902.259-.992.065-.13.229-.329.483-.329.015 0 .184 0 .3.08zm2.195 1.883c0 .478-.26.753-.394.862-.05.04-.06.05-.06.085 0 .03.045.09.09.09.065 0 .533-.39.533-1.012 0-.339-.15-.563-.373-.563-.19 0-.304.15-.304.304 0 .16.114.304.304.304a.3.3 0 00.204-.07zm4.236-1.788c.02-.075.02-.11.02-.115 0-.11-.09-.174-.185-.174-.199 0-.239.174-.274.309l-.104.413-.155.623c-.02.065-.044.17-.05.2-.004.02-.274.487-.697.487-.23 0-.409-.11-.409-.428 0-.274.15-.638.294-.996.025-.06.06-.14.06-.225 0-.244-.234-.438-.543-.438-.523 0-.802.638-.802.772 0 .07.08.07.105.07.084 0 .09-.025.114-.1.105-.343.339-.573.563-.573.095 0 .15.055.15.19 0 .1-.03.169-.065.259-.244.592-.29.772-.29.971 0 .553.464.668.798.668.284 0 .493-.14.618-.244-.07.279-.125.498-.359.737-.115.115-.349.304-.657.304-.09 0-.274-.015-.39-.12a.312.312 0 00.25-.299c0-.144-.114-.204-.22-.204-.144 0-.313.12-.313.349 0 .25.254.443.673.443.567 0 1.24-.378 1.4-1.016l.468-1.863zm1.859 1.788c0 .478-.26.753-.394.862-.05.04-.06.05-.06.085 0 .03.045.09.09.09.065 0 .533-.39.533-1.012 0-.339-.15-.563-.373-.563-.19 0-.304.15-.304.304 0 .16.114.304.304.304a.3.3 0 00.204-.07zm2.079-.383a7.29 7.29 0 01.737-.573c.334-.24.548-.404.757-.603.25-.234.419-.453.419-.503 0-.07-.075-.07-.105-.07-.07 0-.075.005-.115.06-.189.264-.303.284-.388.284-.08 0-.154-.015-.31-.13-.169-.13-.278-.214-.467-.214-.454 0-.748.438-.748.593 0 .075.07.075.105.075.055 0 .08-.01.105-.06.02-.06.07-.18.468-.18.14 0 .244.015.503.055.184.03.244.03.329.03-.144.13-.299.259-.673.528-.358.254-.573.409-.802.628-.2.18-.433.448-.433.518s.074.07.104.07c.06 0 .075-.005.105-.045.145-.2.324-.3.498-.3.14 0 .21.05.389.19.14.105.254.155.398.155.583 0 .967-.593.967-.792 0-.07-.085-.07-.105-.07-.08 0-.09.02-.11.08-.114.299-.508.353-.697.353-.105 0-.234-.015-.378-.04-.28-.044-.36-.044-.43-.044-.079 0-.088 0-.123.005z"/><path d="M34.637-37.656v17.136" stroke="#000" fill="none" stroke-width=".398" stroke-miterlimit="10"/><path d="M37.027-22.395c-1.433.38-2.113 1.223-2.39 2.075-.282-.852-.957-1.696-2.391-2.075" stroke="#000" fill="none" stroke-width=".398" stroke-miterlimit="10" stroke-linecap="round" stroke-linejoin="round"/><path d="M12.202-30.903c.119 0 .182 0 .258-.056a.305.305 0 00.112-.223c0-.195-.181-.195-.3-.195h-1.786c-1.116 0-1.952 1.102-1.952 1.939 0 .649.48 1.137 1.192 1.137.88 0 1.883-.795 1.883-1.863 0-.111 0-.425-.209-.739h.802zm-2.469 2.406c-.376 0-.69-.25-.69-.746 0-.21.125-1.66 1.325-1.66.356 0 .718.133.718.663 0 .125-.062.753-.404 1.22-.293.384-.684.523-.949.523zm6.1-.831c-.23.07-.23.289-.23.294 0 .085.06.204.225.204.14 0 .309-.12.309-.338 0-.294-.329-.41-.593-.41-.324 0-.533.21-.633.34-.164-.284-.483-.34-.662-.34-.623 0-.977.589-.977.773 0 .07.08.07.105.07.044 0 .084-.005.104-.06.15-.488.558-.613.748-.613.164 0 .353.07.353.334 0 .125-.09.468-.259 1.131-.074.284-.304.453-.518.453-.035 0-.18 0-.299-.08.225-.08.225-.268.225-.288 0-.145-.11-.21-.22-.21a.32.32 0 00-.309.34c0 .303.34.408.593.408.274 0 .498-.16.618-.34.2.3.518.34.673.34.627 0 .981-.593.981-.773 0-.07-.085-.07-.105-.07-.084 0-.094.03-.11.076a.825.825 0 01-.746.597c-.15 0-.354-.054-.354-.333 0-.06 0-.095.04-.264.084-.35.219-.902.259-.992.065-.13.229-.329.483-.329.015 0 .184 0 .299.08zm5.623.708a2.082 2.082 0 00-2.073-2.078 2.08 2.08 0 00-2.077 2.077c0 1.156.946 2.078 2.072 2.078a2.08 2.08 0 002.078-2.078zm-3.318-1.39a1.86 1.86 0 012.486-.006l-1.24 1.246-1.246-1.24zm-.15 2.635a1.889 1.889 0 01-.473-1.246c0-.552.244-.986.473-1.245l1.246 1.245-1.246 1.246zm2.785-2.49c.24.268.474.702.474 1.244 0 .553-.245.987-.474 1.246l-1.245-1.246 1.245-1.245zm-.149 2.634a1.86 1.86 0 01-2.486.005l1.24-1.245 1.246 1.24zm4.753-2.002c.02-.075.02-.11.02-.115 0-.11-.09-.174-.184-.174-.2 0-.24.174-.274.309l-.105.413-.154.623c-.02.064-.045.17-.05.2-.005.02-.274.487-.698.487-.229 0-.408-.11-.408-.428 0-.274.15-.638.294-.996.025-.06.06-.14.06-.225 0-.244-.235-.438-.543-.438-.524 0-.803.638-.803.772 0 .07.08.07.105.07.085 0 .09-.025.114-.1.105-.343.34-.573.564-.573.094 0 .149.055.149.19 0 .1-.03.169-.065.259-.244.592-.289.772-.289.971 0 .553.464.668.797.668.284 0 .494-.14.618-.244-.07.279-.124.498-.359.737-.114.115-.348.304-.657.304-.09 0-.274-.015-.389-.12a.312.312 0 00.25-.299c0-.144-.115-.204-.22-.204-.144 0-.314.12-.314.349 0 .25.254.443.673.443.568 0 1.24-.378 1.4-1.016l.468-1.863zm1.863 1.788c0 .478-.259.753-.393.862-.05.04-.06.05-.06.085 0 .03.045.09.09.09.064 0 .533-.39.533-1.012 0-.339-.15-.563-.374-.563-.19 0-.304.15-.304.304 0 .16.115.304.304.304.075 0 .15-.02.204-.07zm2.079-.383c.21-.195.458-.374.737-.573.334-.24.548-.404.758-.603.249-.234.418-.453.418-.503 0-.07-.075-.07-.105-.07-.07 0-.074.005-.114.06-.19.264-.304.284-.389.284-.08 0-.154-.015-.309-.13-.17-.13-.279-.214-.468-.214-.453 0-.747.438-.747.593 0 .075.07.075.104.075.055 0 .08-.01.105-.06.02-.06.07-.18.468-.18.14 0 .244.015.503.055.185.03.245.03.33.03-.145.13-.3.259-.673.528-.359.254-.573.409-.802.628-.2.18-.434.448-.434.518s.075.07.105.07c.06 0 .074-.005.104-.045.145-.2.324-.3.499-.3.139 0 .209.05.388.19.14.105.254.155.399.155.583 0 .966-.593.966-.793 0-.07-.084-.07-.104-.07-.08 0-.09.02-.11.08-.114.3-.508.354-.698.354a2.32 2.32 0 01-.378-.04c-.279-.044-.359-.044-.429-.044-.08 0-.09 0-.124.005z"/><path d="M167.691-46.484h47.024" stroke="#000" fill="none" stroke-width=".398" stroke-miterlimit="10"/><path d="M212.84-48.875c.379 1.434 1.222 2.113 2.074 2.39-.852.278-1.695.958-2.074 2.391" stroke="#000" fill="none" stroke-width=".398" stroke-miterlimit="10" stroke-linecap="round" stroke-linejoin="round"/><path d="M176.794-55.096a.403.403 0 00-.405-.398.397.397 0 00-.397.398.4.4 0 10.802 0zm-1.06 1.304v.25c.439 0 .502.043.502.385v1.813c0 .3-.07.3-.523.3v.251c.014 0 .502-.028.78-.028.245 0 .496.007.74.028v-.251c-.404 0-.474 0-.474-.293v-2.532l-1.025.077zm4.326-1.765v.251c.468 0 .524.049.524.39v1.445a1.377 1.377 0 00-.977-.398c-.928 0-1.709.698-1.709 1.576 0 .872.74 1.57 1.625 1.57a1.41 1.41 0 001.033-.433v.433l1.074-.07v-.251c-.468 0-.523-.049-.523-.39v-4.2l-1.047.077zm.496 4.032c-.182.327-.537.606-.99.606a.993.993 0 01-.81-.432c-.14-.21-.223-.488-.223-.934 0-.161 0-.684.286-1.012.279-.314.62-.377.823-.377.335 0 .635.154.83.405.084.112.084.118.084.251v1.493zm4.516-.225c-.23.07-.23.289-.23.294 0 .085.06.204.225.204.14 0 .309-.12.309-.338 0-.294-.329-.41-.593-.41-.324 0-.533.21-.633.34-.164-.284-.483-.34-.662-.34-.623 0-.977.589-.977.773 0 .07.08.07.105.07.044 0 .084-.005.104-.06.15-.488.558-.613.748-.613.164 0 .353.07.353.334 0 .125-.09.468-.259 1.131-.074.284-.304.453-.518.453-.035 0-.18 0-.299-.08.225-.08.225-.268.225-.288 0-.145-.11-.21-.22-.21a.32.32 0 00-.309.34c0 .303.34.408.593.408.274 0 .498-.16.618-.34.2.3.518.34.673.34.627 0 .981-.593.981-.772 0-.07-.085-.07-.105-.07-.084 0-.094.03-.11.075a.825.825 0 01-.746.597c-.15 0-.354-.054-.354-.333 0-.06 0-.095.04-.264.084-.35.219-.902.259-.992.065-.13.229-.329.483-.329.015 0 .184 0 .299.08zm7.033-.787a2.576 2.576 0 00-2.574-2.574 2.58 2.58 0 00-2.574 2.567 2.576 2.576 0 002.574 2.574 2.58 2.58 0 002.574-2.567zm-4.137-1.737c.286-.258.824-.6 1.563-.6.74 0 1.276.342 1.562.6l-1.562 1.563-1.563-1.563zm-.167 3.293c-.383-.398-.607-.984-.607-1.556 0-.614.244-1.185.607-1.562l1.562 1.555-1.562 1.563zm3.46-3.118c.383.398.607.983.607 1.555a2.29 2.29 0 01-.607 1.563l-1.563-1.556 1.563-1.562zm-.168 3.292c-.286.258-.823.6-1.562.6-.74 0-1.277-.342-1.563-.6l1.563-1.562 1.562 1.562zm5.633-2.518c.119 0 .182 0 .258-.056a.304.304 0 00.112-.223c0-.195-.181-.195-.3-.195h-1.786c-1.116 0-1.952 1.102-1.952 1.939 0 .649.48 1.137 1.192 1.137.88 0 1.883-.795 1.883-1.863 0-.111 0-.425-.209-.739h.802zm-2.469 2.406c-.376 0-.69-.25-.69-.746 0-.21.125-1.66 1.325-1.66.356 0 .718.133.718.663 0 .125-.062.753-.404 1.22-.293.384-.684.523-.949.523zm6.304-.736c.02-.075.02-.11.02-.115 0-.11-.09-.174-.184-.174-.2 0-.24.174-.274.309l-.105.413-.154.623c-.02.065-.045.17-.05.2-.005.02-.274.487-.698.487-.229 0-.408-.11-.408-.428 0-.274.15-.638.294-.996.025-.06.06-.14.06-.225 0-.244-.235-.438-.543-.438-.524 0-.803.638-.803.772 0 .07.08.07.105.07.085 0 .09-.025.114-.1.105-.343.34-.573.564-.573.094 0 .149.055.149.19 0 .1-.03.169-.065.259-.244.592-.289.772-.289.971 0 .553.464.668.797.668.284 0 .494-.14.618-.244-.07.279-.124.498-.359.737-.114.115-.348.304-.657.304-.09 0-.274-.015-.389-.12a.312.312 0 00.25-.299c0-.144-.115-.204-.22-.204-.144 0-.314.12-.314.349 0 .25.254.443.673.443.568 0 1.24-.378 1.4-1.016l.468-1.863zm1.863 1.788c0 .478-.259.753-.393.862-.05.04-.06.05-.06.085 0 .03.045.09.09.09.064 0 .533-.39.533-1.012 0-.339-.15-.563-.374-.563-.19 0-.304.15-.304.304 0 .16.115.304.304.304.075 0 .15-.02.204-.07zm2.079-.383c.21-.195.458-.374.737-.573.334-.24.548-.404.758-.603.249-.234.418-.453.418-.503 0-.07-.075-.07-.105-.07-.07 0-.074.005-.114.06-.19.264-.304.284-.389.284-.08 0-.154-.015-.309-.13-.17-.13-.279-.214-.468-.214-.453 0-.747.438-.747.593 0 .075.07.075.104.075.055 0 .08-.01.105-.06.02-.06.07-.18.468-.18.14 0 .244.015.503.055.185.03.245.03.33.03-.145.13-.3.259-.673.528-.359.254-.573.409-.802.628-.2.18-.434.448-.434.518s.075.07.105.07c.06 0 .074-.005.104-.045.145-.2.324-.3.499-.3.139 0 .209.05.388.19.14.105.254.155.399.155.583 0 .966-.593.966-.792 0-.07-.084-.07-.104-.07-.08 0-.09.02-.11.08-.114.299-.508.353-.698.353a2.32 2.32 0 01-.378-.04c-.279-.044-.359-.044-.429-.044-.08 0-.09 0-.124.005z"/><path d="M243.656-37.656v17.136" stroke="#000" fill="none" stroke-width=".398" stroke-miterlimit="10"/><path d="M246.047-22.395c-1.434.38-2.113 1.223-2.39 2.075-.282-.852-.958-1.696-2.391-2.075" stroke="#000" fill="none" stroke-width=".398" stroke-miterlimit="10" stroke-linecap="round" stroke-linejoin="round"/><path d="M249.813-28.19c.642-.663.9-1.59.9-1.668 0-.09-.084-.09-.118-.09-.098 0-.098.02-.147.174a3.64 3.64 0 01-.649 1.263c-.007-.105-.02-.572-.034-.635-.105-.69-.628-1.137-1.326-1.137-1.025 0-2.009.956-2.009 1.932 0 .642.468 1.214 1.277 1.214.642 0 1.22-.293 1.611-.593.16.509.516.593.726.593.404 0 .655-.342.655-.488 0-.084-.084-.084-.119-.084-.09 0-.104.028-.118.07a.433.433 0 01-.397.306c-.098 0-.217 0-.252-.857zm-.544.237c-.683.558-1.276.62-1.541.62-.46 0-.719-.307-.719-.774 0-.202.098-.962.46-1.444.321-.418.719-.537.963-.537.558 0 .719.537.774.97.042.3.028.795.063 1.165zm6.292-3.367c.08 0 .214 0 .214-.14 0-.139-.134-.139-.214-.139h-3.373c-.08 0-.214 0-.214.14s.135.14.214.14h3.373zm2.996-2.063c0-.15-.015-.15-.18-.15-.353.32-.906.32-1.006.32h-.084v.219h.084c.115 0 .439-.015.728-.14v2.492c0 .154 0 .209-.528.209h-.25v.219c.274-.02.718-.02 1.007-.02.289 0 .732 0 1.006.02v-.22h-.25c-.527 0-.527-.054-.527-.208v-2.74zm-4.286 6.215c-.23.07-.23.289-.23.294 0 .085.06.204.225.204.14 0 .309-.12.309-.338 0-.294-.329-.41-.593-.41-.324 0-.533.21-.633.34-.164-.284-.483-.34-.662-.34-.623 0-.977.589-.977.773 0 .07.08.07.105.07.044 0 .084-.005.104-.06.15-.488.558-.613.748-.613.164 0 .353.07.353.334 0 .125-.09.468-.259 1.131-.074.284-.304.453-.518.453-.035 0-.18 0-.299-.08.225-.08.225-.268.225-.288 0-.145-.11-.21-.22-.21a.32.32 0 00-.309.34c0 .303.34.408.593.408.274 0 .498-.16.618-.34.2.3.518.34.673.34.627 0 .981-.593.981-.772 0-.07-.085-.07-.105-.07-.084 0-.094.03-.11.075a.825.825 0 01-.746.597c-.15 0-.354-.054-.354-.333 0-.06 0-.095.04-.264.084-.35.219-.902.259-.992.065-.13.229-.329.483-.329.015 0 .184 0 .299.08zm2.195 1.883c0 .478-.26.753-.394.862-.05.04-.06.05-.06.085 0 .03.045.09.09.09.065 0 .533-.39.533-1.012 0-.339-.15-.563-.373-.563-.19 0-.304.15-.304.304 0 .16.114.304.304.304a.3.3 0 00.204-.07zm2.078-.383c.21-.195.459-.374.738-.573.334-.24.548-.404.757-.603.25-.234.419-.453.419-.503 0-.07-.075-.07-.105-.07-.07 0-.075.005-.115.06-.189.264-.304.284-.388.284-.08 0-.155-.015-.31-.13-.169-.13-.278-.214-.467-.214-.454 0-.748.438-.748.593 0 .075.07.075.105.075.055 0 .08-.01.104-.06.02-.06.07-.18.469-.18.14 0 .244.015.503.055.184.03.244.03.329.03-.145.13-.299.259-.673.528-.358.254-.573.409-.802.628-.2.18-.433.448-.433.518s.074.07.104.07c.06 0 .075-.005.105-.045.144-.2.324-.3.498-.3.14 0 .21.05.389.19.14.105.254.155.398.155.583 0 .967-.593.967-.792 0-.07-.085-.07-.105-.07-.08 0-.09.02-.11.08-.114.299-.508.353-.697.353-.105 0-.234-.015-.378-.04-.28-.044-.36-.044-.43-.044-.079 0-.089 0-.124.005zm3.815.383c0 .478-.26.753-.394.862-.05.04-.06.05-.06.085 0 .03.045.09.09.09.065 0 .533-.39.533-1.012 0-.339-.15-.563-.373-.563-.19 0-.304.15-.304.304 0 .16.114.304.304.304a.3.3 0 00.204-.07zm4.236-1.788c.02-.075.02-.11.02-.115 0-.11-.09-.174-.185-.174-.2 0-.239.174-.274.309l-.105.413-.154.623c-.02.065-.045.17-.05.2-.005.02-.274.487-.697.487-.23 0-.409-.11-.409-.428 0-.274.15-.638.294-.996.025-.06.06-.14.06-.225 0-.244-.234-.438-.543-.438-.523 0-.802.638-.802.772 0 .07.08.07.105.07.084 0 .09-.025.114-.1.105-.343.339-.573.563-.573.095 0 .15.055.15.19 0 .1-.03.169-.065.259-.244.592-.29.772-.29.971 0 .553.464.668.798.668a.96.96 0 00.618-.244c-.07.279-.125.498-.359.737-.115.115-.349.304-.658.304-.09 0-.274-.015-.388-.12a.312.312 0 00.249-.299c0-.144-.115-.204-.22-.204-.144 0-.313.12-.313.349 0 .25.254.443.673.443.567 0 1.24-.378 1.4-1.016l.468-1.863z"/><path d="M110.602-11.297H63.578" stroke="#000" fill="none" stroke-width=".398" stroke-miterlimit="10"/><path d="M65.45-8.906c-.376-1.434-1.22-2.11-2.071-2.39.851-.278 1.695-.958 2.07-2.392" stroke="#000" fill="none" stroke-width=".398" stroke-miterlimit="10" stroke-linecap="round" stroke-linejoin="round"/><path d="M79.896-6.933c.642-.663.9-1.59.9-1.668 0-.09-.084-.09-.118-.09-.098 0-.098.02-.147.174a3.64 3.64 0 01-.649 1.263c-.007-.105-.02-.572-.034-.635-.105-.69-.628-1.137-1.326-1.137-1.025 0-2.008.956-2.008 1.932 0 .642.467 1.214 1.276 1.214.642 0 1.22-.293 1.611-.593.16.509.516.593.726.593.404 0 .655-.342.655-.488 0-.084-.083-.084-.118-.084-.091 0-.105.028-.119.07a.433.433 0 01-.397.306c-.098 0-.217 0-.252-.857zm-.544.237c-.683.558-1.276.62-1.541.62-.46 0-.719-.306-.719-.774 0-.202.098-.962.46-1.444.322-.418.719-.537.963-.537.558 0 .719.537.774.97.042.3.028.795.063 1.165zm3.05 1.289c.21-.195.458-.374.737-.573a6.69 6.69 0 00.758-.603c.249-.234.418-.453.418-.503 0-.07-.075-.07-.105-.07-.07 0-.074.005-.114.06-.19.264-.304.284-.389.284-.08 0-.154-.015-.309-.13-.17-.13-.279-.214-.468-.214-.453 0-.747.438-.747.593 0 .075.07.075.104.075.055 0 .08-.01.105-.06.02-.06.07-.18.468-.18.14 0 .244.015.504.055.184.03.244.03.328.03-.144.13-.298.259-.672.528-.359.254-.573.409-.802.628-.2.18-.434.448-.434.518s.075.07.105.07c.06 0 .075-.005.105-.045.144-.2.323-.299.498-.299.139 0 .209.05.388.19.14.104.254.154.399.154.583 0 .966-.593.966-.792 0-.07-.084-.07-.104-.07-.08 0-.09.02-.11.08-.114.299-.508.353-.697.353a2.32 2.32 0 01-.379-.04c-.279-.044-.359-.044-.429-.044-.08 0-.09 0-.124.005zm3.818.383c0 .478-.259.753-.393.862-.05.04-.06.05-.06.085 0 .03.045.09.09.09.064 0 .533-.39.533-1.012 0-.339-.15-.563-.374-.563-.19 0-.304.15-.304.304 0 .16.115.304.304.304.075 0 .15-.02.204-.07zm4.032-1.883c-.23.07-.23.289-.23.294 0 .085.06.204.225.204.14 0 .309-.12.309-.338 0-.294-.329-.41-.593-.41-.324 0-.533.21-.633.34-.164-.284-.483-.34-.662-.34-.623 0-.977.589-.977.773 0 .07.08.07.105.07.044 0 .084-.005.104-.06.15-.488.558-.613.748-.613.164 0 .353.07.353.334 0 .125-.09.468-.259 1.131-.074.284-.304.453-.518.453-.035 0-.18 0-.299-.08.224-.079.224-.268.224-.288 0-.145-.11-.21-.219-.21a.32.32 0 00-.309.34c0 .303.34.408.593.408.274 0 .498-.16.618-.339.2.299.518.339.672.339.628 0 .982-.593.982-.772 0-.07-.085-.07-.105-.07-.084 0-.094.03-.11.075a.825.825 0 01-.747.597c-.149 0-.353-.054-.353-.333 0-.06 0-.095.04-.264.084-.35.219-.902.258-.992.065-.13.23-.329.484-.329.015 0 .184 0 .299.08zm2.195 1.883c0 .478-.26.753-.394.862-.05.04-.06.05-.06.085 0 .03.045.09.09.09.065 0 .533-.39.533-1.012 0-.339-.15-.563-.373-.563a.3.3 0 00-.305.304c0 .16.115.304.305.304a.3.3 0 00.204-.07zm4.236-1.788c.02-.075.02-.11.02-.115 0-.11-.09-.174-.185-.174-.2 0-.239.174-.274.309l-.105.413-.154.623c-.02.065-.045.17-.05.2-.005.02-.274.487-.697.487-.23 0-.409-.109-.409-.428 0-.274.15-.638.294-.996.025-.06.06-.14.06-.225 0-.244-.234-.438-.543-.438-.523 0-.802.638-.802.772 0 .07.08.07.105.07.084 0 .09-.025.114-.1.105-.343.339-.573.563-.573.095 0 .15.055.15.19 0 .1-.03.169-.065.259-.244.592-.29.772-.29.971 0 .553.464.668.798.668.284 0 .493-.14.618-.244-.07.279-.125.498-.359.737-.115.115-.349.304-.657.304-.09 0-.275-.015-.39-.12a.312.312 0 00.25-.299c0-.144-.115-.204-.22-.204-.144 0-.313.12-.313.349 0 .25.254.443.672.443.568 0 1.24-.378 1.4-1.016l.469-1.863z"/><path d="M215.113-11.297H168.09" stroke="#000" fill="none" stroke-width=".398" stroke-miterlimit="10"/><path d="M169.961-8.906c-.379-1.434-1.222-2.11-2.07-2.39.848-.278 1.691-.958 2.07-2.392" stroke="#000" fill="none" stroke-width=".398" stroke-miterlimit="10" stroke-linecap="round" stroke-linejoin="round"/><path d="M179.402-6.642c.119 0 .182 0 .258-.056a.304.304 0 00.112-.223c0-.195-.181-.195-.3-.195h-1.786c-1.116 0-1.952 1.102-1.952 1.939 0 .649.48 1.137 1.192 1.137.88 0 1.883-.795 1.883-1.862 0-.112 0-.426-.209-.74h.802zm-2.469 2.406c-.376 0-.69-.25-.69-.746 0-.21.125-1.66 1.325-1.66.356 0 .718.133.718.663 0 .125-.062.753-.404 1.22-.293.384-.684.523-.949.523zm6.1-.83c-.23.07-.23.289-.23.294 0 .085.06.204.225.204.14 0 .309-.12.309-.338 0-.295-.329-.41-.593-.41-.324 0-.533.21-.633.34-.164-.284-.483-.34-.662-.34-.623 0-.977.589-.977.773 0 .07.08.07.105.07.044 0 .084-.005.104-.06.15-.488.558-.613.748-.613.164 0 .353.07.353.334 0 .125-.09.468-.259 1.131-.074.284-.304.453-.518.453-.035 0-.18 0-.299-.08.225-.08.225-.268.225-.288 0-.145-.11-.21-.22-.21a.32.32 0 00-.309.34c0 .303.34.408.593.408.274 0 .498-.16.618-.34.2.3.518.34.673.34.627 0 .981-.593.981-.773 0-.07-.085-.07-.105-.07-.084 0-.094.03-.11.075a.825.825 0 01-.746.598c-.15 0-.354-.054-.354-.333 0-.06 0-.095.04-.265.084-.348.219-.901.259-.99.065-.13.229-.33.483-.33.015 0 .184 0 .299.08zm2.195 1.883c0 .478-.26.752-.394.862-.05.04-.06.05-.06.085 0 .03.045.09.09.09.065 0 .533-.39.533-1.012 0-.339-.15-.563-.373-.563-.19 0-.304.15-.304.304 0 .16.114.304.304.304a.3.3 0 00.204-.07zm2.078-.383c.21-.195.459-.374.738-.573a6.69 6.69 0 00.757-.603c.25-.234.419-.454.419-.504 0-.07-.075-.07-.105-.07-.07 0-.075.006-.115.06-.189.265-.304.285-.388.285-.08 0-.155-.015-.31-.13-.169-.13-.278-.214-.467-.214-.454 0-.748.438-.748.593 0 .075.07.075.105.075.055 0 .08-.01.104-.06.02-.06.07-.18.469-.18.14 0 .244.015.503.055.184.03.244.03.329.03-.145.13-.299.259-.673.528-.358.254-.573.409-.802.628-.2.18-.433.448-.433.518s.074.07.104.07c.06 0 .075-.005.105-.045.144-.2.324-.3.498-.3.14 0 .21.05.389.19.14.105.254.155.398.155.583 0 .967-.593.967-.793 0-.07-.085-.07-.105-.07-.08 0-.09.02-.11.08-.114.3-.508.354-.697.354-.105 0-.234-.015-.378-.04-.28-.044-.36-.044-.43-.044-.079 0-.089 0-.124.005zm8.658-2.288a2.576 2.576 0 00-2.574-2.573 2.58 2.58 0 00-2.574 2.566 2.576 2.576 0 002.574 2.574 2.58 2.58 0 002.574-2.567zm-4.137-1.737c.286-.258.824-.6 1.563-.6.74 0 1.276.342 1.562.6l-1.562 1.563-1.563-1.563zm-.167 3.293c-.384-.398-.607-.984-.607-1.556 0-.613.244-1.185.607-1.562l1.562 1.555-1.562 1.563zm3.46-3.118c.383.398.606.983.606 1.555a2.29 2.29 0 01-.606 1.563l-1.563-1.556 1.563-1.562zm-.168 3.292c-.286.258-.823.6-1.562.6-.74 0-1.277-.342-1.563-.6l1.563-1.562 1.562 1.562zm3.025-4.289a.403.403 0 00-.405-.398.397.397 0 00-.397.398.4.4 0 10.802 0zm-1.06 1.304v.25c.439 0 .502.043.502.385v1.813c0 .3-.07.3-.523.3v.251c.014 0 .502-.028.78-.028.245 0 .496.007.74.028v-.251c-.404 0-.474 0-.474-.293v-2.532l-1.025.077zm4.326-1.765v.251c.468 0 .524.049.524.39v1.445a1.377 1.377 0 00-.977-.398c-.928 0-1.709.698-1.709 1.576 0 .872.74 1.57 1.625 1.57a1.41 1.41 0 001.033-.433v.433l1.074-.07v-.251c-.468 0-.523-.049-.523-.39v-4.2l-1.047.077zm.496 4.032c-.182.327-.537.606-.99.606a.993.993 0 01-.81-.432c-.14-.21-.223-.488-.223-.934 0-.161 0-.684.286-1.012.279-.314.62-.377.823-.377.335 0 .635.154.83.405.084.112.084.119.084.251v1.493zm4.721-.129c.02-.075.02-.11.02-.115 0-.11-.09-.174-.185-.174-.2 0-.24.174-.274.309l-.105.413-.154.623c-.02.064-.045.17-.05.2-.005.02-.274.487-.698.487-.229 0-.408-.11-.408-.428 0-.274.15-.638.294-.996.025-.06.06-.14.06-.225 0-.244-.235-.438-.543-.438-.524 0-.803.638-.803.772 0 .07.08.07.105.07.085 0 .09-.025.114-.1.105-.343.34-.573.564-.573.094 0 .149.055.149.19 0 .1-.03.169-.065.259-.244.592-.289.772-.289.971 0 .553.464.668.797.668.284 0 .494-.14.618-.244-.07.279-.124.498-.359.737-.114.114-.348.304-.657.304-.09 0-.274-.015-.389-.12a.312.312 0 00.25-.299c0-.144-.115-.204-.22-.204-.144 0-.314.12-.314.349 0 .25.254.443.673.443.568 0 1.24-.378 1.4-1.016l.468-1.863z"/></svg>