<svg xmlns="http://www.w3.org/2000/svg" xmlns:xlink="http://www.w3.org/1999/xlink" width="362.452" height="113.777" viewBox="0 0 271.839 85.333"><path stroke-width=".399" stroke-miterlimit="10" fill="none" stroke="#000" d="M6.167 13.117c0 34.016 28.347 34.016 28.347 68.032"/><path d="M9.533 31.024l-.211-3.81-.757 1.617-1.705-.53z"/><path stroke-width=".399" stroke-miterlimit="10" fill="none" stroke="#000" d="M9.533 31.024l-.211-3.81-.757 1.617-1.705-.53z"/><symbol id="a"><path d="M.305.313c.006.026.029.118.099.118.005 0 .029 0 .05-.013A.058.058 0 01.406.364c0-.016.011-.035.038-.035.022 0 .054.018.054.058 0 .052-.059.066-.093.066C.347.453.312.4.3.377a.11.11 0 01-.108.076C.088.453.031.324.031.299c0-.01.01-.01.012-.01.008 0 .011.002.013.011.034.106.1.131.134.131.019 0 .054-.009.054-.067C.244.333.227.266.19.126.174.064.139.022.095.022c-.006 0-.029 0-.05.013C.07.04.092.061.092.089.092.116.07.124.055.124A.057.057 0 010 .066C0 .02.05 0 .094 0 .16 0 .196.07.199.076A.11.11 0 01.307 0c.103 0 .16.129.16.154 0 .01-.009.01-.012.01C.446.164.444.16.442.153.409.046.341.022.309.022.27.022.254.054.254.088c0 .022.006.044.017.088l.034.137z"/></symbol><use xlink:href="#a" transform="matrix(9.9626 0 0 -9.9626 3.609 9.242)"/><path d="M22.333 47.133a1.993 1.993 0 10-3.985 0 1.993 1.993 0 003.985 0zm-1.993 0" fill="#fff"/><path stroke-width=".399" stroke-miterlimit="10" fill="none" stroke="#fff" d="M22.333 47.133a1.993 1.993 0 10-3.985 0 1.993 1.993 0 003.985 0zm-1.993 0"/><path stroke-width=".399" stroke-miterlimit="10" fill="none" stroke="#000" d="M34.514 13.117c0 34.016-28.347 34.016-28.347 68.032"/><path d="M31.147 31.024l2.674-2.724-1.705.531-.757-1.618z"/><path stroke-width=".399" stroke-miterlimit="10" fill="none" stroke="#000" d="M31.147 31.024l2.674-2.724-1.705.531-.757-1.618z"/><symbol id="b"><path d="M.457.586a.063.063 0 01.004.023c0 .018-.014.027-.029.027A.043.043 0 01.397.615 1.87 1.87 0 01.363.481L.318.301C.314.286.271.216.205.216.154.216.143.26.143.297c0 .046.017.108.051.196.016.041.02.052.02.072a.08.08 0 01-.082.082C.037.647 0 .502 0 .493c0-.01.01-.01.012-.01.01 0 .011.002.016.018.027.094.067.124.101.124.008 0 .025 0 .025-.032 0-.025-.01-.051-.017-.07a.66.66 0 01-.058-.21c0-.089.063-.119.122-.119.039 0 .073.017.101.045C.289.187.277.138.237.085.211.051.173.022.127.022.113.022.068.025.051.064c.016 0 .029 0 .043.012.01.009.02.022.02.041 0 .031-.027.035-.037.035C.054.152.021.136.021.087.021.037.065 0 .127 0 .23 0 .333.091.361.204l.096.382z"/></symbol><use xlink:href="#b" transform="matrix(9.9626 0 0 -9.9626 23.558 11.174)"/><symbol id="c"><path d="M.667.333A.334.334 0 110 .332a.334.334 0 01.667.001M.135.548C.133.55.126.557.126.559c0 .004.081.082.207.082A.302.302 0 00.542.559L.334.35.135.548M.106.124a.31.31 0 000 .418L.315.333.106.124M.56.542A.31.31 0 00.561.124L.352.333.56.542M.532.118C.534.116.541.109.541.107A.292.292 0 00.334.025a.302.302 0 00-.209.082l.208.209.199-.198z"/></symbol><use xlink:href="#c" transform="matrix(9.9626 0 0 -9.9626 31.273 9.959)"/><symbol id="d"><path d="M.09.094c.054.058.083.083.119.114 0 .001.062.054.098.09a.474.474 0 01.117.145c0 .01-.009.01-.011.01C.406.453.403.451.398.442.368.394.347.378.323.378S.287.393.272.41C.253.433.236.453.203.453.128.453.082.36.082.339c0-.005.003-.011.012-.011.009 0 .011.005.013.011.019.046.077.047.085.047.021 0 .04-.007.063-.015C.295.356.306.356.332.356A1.501 1.501 0 00.193.225L.103.141A.479.479 0 010 .01C0 0 .01 0 .012 0c.008 0 .01.002.016.013.023.035.053.062.085.062.023 0 .033-.009.058-.038C.188.016.206 0 .235 0c.099 0 .157.127.157.154 0 .005-.004.01-.012.01C.371.164.369.158.366.151a.13.13 0 00-.12-.084.185.185 0 00-.059.013.178.178 0 01-.07.017C.115.097.099.097.09.094z"/></symbol><use xlink:href="#d" transform="matrix(9.9626 0 0 -9.9626 41.115 9.242)"/><symbol id="e"><path d="M.631.194c.015 0 .034 0 .034.02s-.019.02-.033.02H.033C.019.234 0 .234 0 .214s.019-.02.034-.02h.597M.632 0c.014 0 .033 0 .033.02S.646.04.631.04H.034C.019.04 0 .04 0 .02S.019 0 .033 0h.599z"/></symbol><use xlink:href="#e" transform="matrix(9.9626 0 0 -9.9626 49.622 46.218)"/><path stroke-width=".399" stroke-miterlimit="10" fill="none" stroke="#000" d="M74.2 13.117c0 17.008 17.007 17.008 17.007 34.016s17.009 17.008 17.009 34.016"/><path d="M91.207 46.568l1.346-3.571-1.346 1.174-1.346-1.174z"/><path stroke-width=".399" stroke-miterlimit="10" fill="none" stroke="#000" d="M91.207 46.568l1.346-3.571-1.346 1.174-1.346-1.174z"/><use xlink:href="#a" transform="matrix(9.9626 0 0 -9.9626 71.64 9.242)"/><path d="M84.696 30.125a1.993 1.993 0 10-3.985 0 1.993 1.993 0 003.985 0zm17.008 34.016a1.993 1.993 0 10-3.985 0 1.993 1.993 0 003.985 0zm-1.992 0" fill="#fff"/><path stroke-width=".399" stroke-miterlimit="10" fill="none" stroke="#fff" d="M84.696 30.125a1.993 1.993 0 10-3.985 0 1.993 1.993 0 003.985 0zm17.008 34.016a1.993 1.993 0 10-3.985 0 1.993 1.993 0 003.985 0zm-1.992 0"/><path stroke-width=".399" stroke-miterlimit="10" fill="none" stroke="#000" d="M91.207 13.117c0 17.008-17.008 17.008-17.008 34.016v34.016"/><path d="M74.2 46.854l1.345-3.571-1.346 1.174-1.346-1.174z"/><path stroke-width=".399" stroke-miterlimit="10" fill="none" stroke="#000" d="M74.2 46.854l1.345-3.571-1.346 1.174-1.346-1.174z"/><use xlink:href="#b" transform="matrix(9.9626 0 0 -9.9626 88.875 11.174)"/><path stroke-width=".399" stroke-miterlimit="10" fill="none" stroke="#000" d="M108.216 13.117v34.016c0 17.008-17.009 17.008-17.009 34.016"/><path d="M108.216 46.277l1.345-3.571-1.345 1.174-1.346-1.174z"/><path stroke-width=".399" stroke-miterlimit="10" fill="none" stroke="#000" d="M108.216 46.277l1.345-3.571-1.345 1.174-1.346-1.174z"/><use xlink:href="#d" transform="matrix(9.9626 0 0 -9.9626 106.107 9.242)"/><path stroke-width=".399" stroke-miterlimit="10" fill="none" stroke="#000" d="M163.936 13.117c0 34.016 28.347 34.016 28.347 68.032"/><path d="M167.302 31.024l-.211-3.81-.757 1.617-1.705-.53z"/><path stroke-width=".399" stroke-miterlimit="10" fill="none" stroke="#000" d="M167.302 31.024l-.211-3.81-.757 1.617-1.705-.53z"/><use xlink:href="#a" transform="matrix(9.9626 0 0 -9.9626 152.669 9.242)"/><use xlink:href="#c" transform="matrix(9.9626 0 0 -9.9626 160.835 9.959)"/><use xlink:href="#b" transform="matrix(9.9626 0 0 -9.9626 170.539 11.174)"/><path d="M180.102 47.133a1.993 1.993 0 10-3.985 0 1.993 1.993 0 003.985 0zm-1.993 0" fill="#fff"/><path stroke-width=".399" stroke-miterlimit="10" fill="none" stroke="#fff" d="M180.102 47.133a1.993 1.993 0 10-3.985 0 1.993 1.993 0 003.985 0zm-1.993 0"/><path stroke-width=".399" stroke-miterlimit="10" fill="none" stroke="#000" d="M192.283 13.117c0 34.016-28.347 34.016-28.347 68.032"/><path d="M188.916 31.024l2.674-2.724-1.705.531-.757-1.618z"/><path stroke-width=".399" stroke-miterlimit="10" fill="none" stroke="#000" d="M188.916 31.024l2.674-2.724-1.705.531-.757-1.618z"/><use xlink:href="#d" transform="matrix(9.9626 0 0 -9.9626 190.175 9.242)"/><use xlink:href="#e" transform="matrix(9.9626 0 0 -9.9626 207.39 46.218)"/><path stroke-width=".399" stroke-miterlimit="10" fill="none" stroke="#000" d="M231.968 13.117v34.016c0 17.008 17.008 17.008 17.008 34.016"/><path d="M231.968 46.277l1.346-3.571-1.346 1.174-1.346-1.174z"/><path stroke-width=".399" stroke-miterlimit="10" fill="none" stroke="#000" d="M231.968 46.277l1.346-3.571-1.346 1.174-1.346-1.174z"/><use xlink:href="#a" transform="matrix(9.9626 0 0 -9.9626 229.409 9.242)"/><path stroke-width=".399" stroke-miterlimit="10" fill="none" stroke="#000" d="M248.976 13.117c0 17.008 17.009 17.008 17.009 34.016v34.016"/><path d="M265.985 46.854l1.345-3.571-1.345 1.174-1.346-1.174z"/><path stroke-width=".399" stroke-miterlimit="10" fill="none" stroke="#000" d="M265.985 46.854l1.345-3.571-1.345 1.174-1.346-1.174z"/><use xlink:href="#b" transform="matrix(9.9626 0 0 -9.9626 246.643 11.174)"/><path d="M259.473 30.125a1.993 1.993 0 10-3.985 0 1.993 1.993 0 003.985 0zM242.465 64.14a1.993 1.993 0 10-3.985 0 1.993 1.993 0 003.985 0zm-1.993 0" fill="#fff"/><path stroke-width=".399" stroke-miterlimit="10" fill="none" stroke="#fff" d="M259.473 30.125a1.993 1.993 0 10-3.985 0 1.993 1.993 0 003.985 0zM242.465 64.14a1.993 1.993 0 10-3.985 0 1.993 1.993 0 003.985 0zm-1.993 0"/><path stroke-width=".399" stroke-miterlimit="10" fill="none" stroke="#000" d="M265.985 13.117c0 17.008-17.009 17.008-17.009 34.016s-17.008 17.008-17.008 34.016"/><path d="M248.976 46.565l1.346-3.57-1.346 1.174-1.345-1.175z"/><path stroke-width=".399" stroke-miterlimit="10" fill="none" stroke="#000" d="M248.976 46.565l1.346-3.57-1.346 1.174-1.345-1.175z"/><use xlink:href="#d" transform="matrix(9.9626 0 0 -9.9626 263.876 9.242)"/></svg>