<svg xmlns="http://www.w3.org/2000/svg" xmlns:xlink="http://www.w3.org/1999/xlink" width="99.891" height="105.269" viewBox="0 0 74.918 78.952"><path stroke-width=".399" stroke-miterlimit="10" fill="none" stroke="#000" d="M12.057 11.128v56.694"/><path d="M12.057 21.9l1.346-3.572-1.346 1.175-1.346-1.175z"/><path stroke-width=".399" stroke-miterlimit="10" fill="none" stroke="#000" d="M12.057 21.9l1.346-3.572-1.346 1.175-1.346-1.175z"/><path d="M12.057 61.585l1.346-3.571-1.346 1.174-1.346-1.174z"/><path stroke-width=".399" stroke-miterlimit="10" fill="none" stroke="#000" d="M12.057 61.585l1.346-3.571-1.346 1.174-1.346-1.174z"/><path d="M12.057 21.9l1.346-3.572-1.346 1.175-1.346-1.175z"/><path stroke-width=".399" stroke-miterlimit="10" fill="none" stroke="#000" d="M12.057 21.9l1.346-3.572-1.346 1.175-1.346-1.175z"/><path d="M12.057 61.585l1.346-3.571-1.346 1.174-1.346-1.174z"/><path stroke-width=".399" stroke-miterlimit="10" fill="none" stroke="#000" d="M12.057 61.585l1.346-3.571-1.346 1.174-1.346-1.174z"/><symbol id="a"><path d="M.305.313c.006.026.029.118.099.118.005 0 .029 0 .05-.013A.058.058 0 01.406.364c0-.016.011-.035.038-.035.022 0 .054.018.054.058 0 .052-.059.066-.093.066C.347.453.312.4.3.377a.11.11 0 01-.108.076C.088.453.031.324.031.299c0-.01.01-.01.012-.01.008 0 .011.002.013.011.034.106.1.131.134.131.019 0 .054-.009.054-.067C.244.333.227.266.19.126.174.064.139.022.095.022c-.006 0-.029 0-.05.013C.07.04.092.061.092.089.092.116.07.124.055.124A.057.057 0 010 .066C0 .02.05 0 .094 0 .16 0 .196.07.199.076A.11.11 0 01.307 0c.103 0 .16.129.16.154 0 .01-.009.01-.012.01C.446.164.444.16.442.153.409.046.341.022.309.022.27.022.254.054.254.088c0 .022.006.044.017.088l.034.137z"/></symbol><use xlink:href="#a" transform="matrix(9.9626 0 0 -9.9626 9.499 7.72)"/><use xlink:href="#a" transform="matrix(9.9626 0 0 -9.9626 9.499 75.74)"/><path d="M3.188 43.792h17.738v-12.48H3.188z" fill="#fff"/><path stroke-width=".399" stroke-miterlimit="10" fill="none" stroke="#000" d="M3.188 43.792h17.738v-12.48H3.188z"/><symbol id="b"><path d="M.155.617a.058.058 0 01-.058.057A.057.057 0 01.04.617a.057.057 0 11.115 0M.003.43V.394C.066.394.075.388.075.339v-.26C.075.036.065.036 0 .036V0c.002 0 .072.004.112.004C.147.004.183.003.218 0v.036C.16.036.15.036.15.078v.363L.003.43z"/></symbol><symbol id="c"><path d="M.31.693V.657C.377.657.385.65.385.601V.394a.197.197 0 01-.14.057C.112.451 0 .351 0 .225A.23.23 0 01.233 0c.082 0 .131.044.148.062V0l.154.01v.036C.468.046.46.053.46.102v.602L.31.693M.381.115A.164.164 0 00.239.028.142.142 0 00.123.09a.231.231 0 00-.032.134c0 .023 0 .098.041.145.04.045.089.054.118.054A.15.15 0 00.369.365C.381.349.381.348.381.329V.115z"/></symbol><use xlink:href="#b" transform="matrix(6.9738 0 0 -6.9738 6.9 39.476)"/><use xlink:href="#c" transform="matrix(6.9738 0 0 -6.9738 9.082 39.546)"/><symbol id="d"><path d="M.528.403C.482.389.482.345.482.344c0-.017.012-.041.045-.041.028 0 .062.024.062.068C.589.43.523.453.47.453A.162.162 0 01.343.385C.31.442.246.453.21.453.085.453.014.335.014.298.014.284.03.284.035.284c.009 0 .017.001.021.012.03.098.112.123.15.123.033 0 .071-.014.071-.067C.277.327.259.258.225.125.21.068.164.034.121.034c-.007 0-.036 0-.06.016.045.016.045.054.045.058C.106.137.084.15.062.15A.064.064 0 010 .082C0 .021.068 0 .119 0c.055 0 .1.032.124.068A.159.159 0 01.378 0c.126 0 .197.119.197.155 0 .014-.017.014-.021.014C.537.169.535.163.532.154a.166.166 0 00-.15-.12c-.03 0-.071.011-.071.067 0 .012 0 .019.008.053.017.07.044.181.052.199.013.026.046.066.097.066.003 0 .037 0 .06-.016z"/></symbol><use xlink:href="#d" transform="matrix(4.9813 0 0 -4.9813 13.627 40.527)"/><symbol id="e"><path d="M.631.194c.015 0 .034 0 .034.02s-.019.02-.033.02H.033C.019.234 0 .234 0 .214s.019-.02.034-.02h.597M.632 0c.014 0 .033 0 .033.02S.646.04.631.04H.034C.019.04 0 .04 0 .02S.019 0 .033 0h.599z"/></symbol><use xlink:href="#e" transform="matrix(9.9626 0 0 -9.9626 37.087 38.151)"/><path stroke-width=".399" stroke-miterlimit="10" fill="none" stroke="#000" d="M68.75 11.128v56.694"/><path d="M68.75 38.908l1.346-3.571-1.345 1.174-1.346-1.174z"/><path stroke-width=".399" stroke-miterlimit="10" fill="none" stroke="#000" d="M68.75 38.908l1.346-3.571-1.345 1.174-1.346-1.174z"/><use xlink:href="#a" transform="matrix(9.9626 0 0 -9.9626 66.192 7.72)"/><use xlink:href="#a" transform="matrix(9.9626 0 0 -9.9626 66.192 75.74)"/></svg>