<svg xmlns="http://www.w3.org/2000/svg" xmlns:xlink="http://www.w3.org/1999/xlink" width="174.8853" height="121.008" viewBox="0 0 131.164 90.756"><path stroke-width=".3985" stroke-miterlimit="10" fill="none" stroke="#000" d="M40.183 11.5938V45.61c0 2.8344 0 11.3386-8.504 11.3386-8.5038 0-8.5038-8.5042-8.5038-11.3386V11.594"/><path d="M40.183 24.1826l1.3458-3.5712-1.3457 1.1744-1.3457-1.1744z"/><path stroke-width=".3985" stroke-miterlimit="10" fill="none" stroke="#000" d="M40.183 24.1826l1.3458-3.5712-1.3457 1.1744-1.3457-1.1744z"/><path d="M23.1752 20.196l-1.3457 3.5713 1.3457-1.1744 1.3458 1.1744z"/><path stroke-width=".3985" stroke-miterlimit="10" fill="none" stroke="#000" d="M23.1752 20.196l-1.3457 3.5713 1.3457-1.1744 1.3458 1.1744z"/><path d="M40.183 24.1826l1.3458-3.5712-1.3457 1.1744-1.3457-1.1744z"/><path stroke-width=".3985" stroke-miterlimit="10" fill="none" stroke="#000" d="M40.183 24.1826l1.3458-3.5712-1.3457 1.1744-1.3457-1.1744z"/><path d="M23.1752 20.196l-1.3457 3.5713 1.3457-1.1744 1.3458 1.1744z"/><path stroke-width=".3985" stroke-miterlimit="10" fill="none" stroke="#000" d="M23.1752 20.196l-1.3457 3.5713 1.3457-1.1744 1.3458 1.1744z"/><symbol id="a"><path d="M.457.586a.063.063 0 01.004.023c0 .018-.014.027-.029.027C.422.636.406.63.397.615A.758.758 0 01.383.561a1.8693 1.8693 0 01-.02-.08L.318.301C.314.286.271.216.205.216.154.216.143.26.143.297c0 .046.017.108.051.196.016.041.02.052.02.072C.214.61.182.647.132.647.037.647 0 .502 0 .493c0-.01.01-.01.012-.01.01 0 .011.002.016.018.027.094.067.124.101.124.008 0 .025 0 .025-.032 0-.025-.01-.051-.017-.07C.097.417.079.36.079.313c0-.089.063-.119.122-.119.039 0 .073.017.101.045C.289.187.277.138.237.085.211.051.173.022.127.022.113.022.068.025.051.064c.016 0 .029 0 .043.012.01.009.02.022.02.041 0 .031-.027.035-.037.035C.054.152.021.136.021.087.021.037.065 0 .127 0 .23 0 .333.091.361.204l.096.382z"/></symbol><use xlink:href="#a" transform="matrix(9.9626 0 0 -9.9626 37.851 9.6523)"/><use xlink:href="#a" transform="matrix(9.9626 0 0 -9.9626 20.843 9.6523)"/><path d="M25.1678 31.4365c0-1.1004-.8921-1.9925-1.9926-1.9925-1.1004 0-1.9925.892-1.9925 1.9925 0 1.1005.892 1.9926 1.9925 1.9926 1.1005 0 1.9926-.8921 1.9926-1.9926zm17.0078 5.6693c0-1.1005-.892-1.9926-1.9925-1.9926-1.1005 0-1.9926.8921-1.9926 1.9926 0 1.1005.8921 1.9926 1.9926 1.9926 1.1004 0 1.9925-.8921 1.9925-1.9926zm-1.9925 0" fill="#fff"/><path stroke-width=".3985" stroke-miterlimit="10" fill="none" stroke="#fff" d="M25.1678 31.4365c0-1.1004-.8921-1.9925-1.9926-1.9925-1.1004 0-1.9925.892-1.9925 1.9925 0 1.1005.892 1.9926 1.9925 1.9926 1.1005 0 1.9926-.8921 1.9926-1.9926zm17.0078 5.6693c0-1.1005-.892-1.9926-1.9925-1.9926-1.1005 0-1.9926.8921-1.9926 1.9926 0 1.1005.8921 1.9926 1.9926 1.9926 1.1004 0 1.9925-.8921 1.9925-1.9926zm-1.9925 0"/><path stroke-width=".3985" stroke-miterlimit="10" fill="none" stroke="#000" d="M6.167 11.5938v5.6693c0 17.0078 51.0243 17.0078 51.0243 34.0161 0 14.1734-25.5124 14.1734-25.5124 28.3468"/><path d="M42.8276 66.3484l3.7692-.597-1.6863-.5886.355-1.7504z"/><path stroke-width=".3985" stroke-miterlimit="10" fill="none" stroke="#000" d="M42.8276 66.3484l3.7692-.597-1.6863-.5886.355-1.7504z"/><symbol id="b"><path d="M.305.313c.006.026.029.118.099.118.005 0 .029 0 .05-.013C.426.413.406.388.406.364c0-.016.011-.035.038-.035.022 0 .054.018.054.058 0 .052-.059.066-.093.066C.347.453.312.4.3.377.275.443.221.453.192.453.088.453.031.324.031.299c0-.01.01-.01.012-.01.008 0 .011.002.013.011.034.106.1.131.134.131.019 0 .054-.009.054-.067C.244.333.227.266.19.126.174.064.139.022.095.022c-.006 0-.029 0-.05.013C.07.04.092.061.092.089.092.116.07.124.055.124.025.124 0 .098 0 .066 0 .02.05 0 .094 0 .16 0 .196.07.199.076A.1104.1104 0 01.307 0c.103 0 .16.129.16.154 0 .01-.009.01-.012.01C.446.164.444.16.442.153.409.046.341.022.309.022.27.022.254.054.254.088c0 .022.006.044.017.088l.034.137z"/></symbol><use xlink:href="#b" transform="matrix(9.9626 0 0 -9.9626 3.609 7.7196)"/><use xlink:href="#b" transform="matrix(9.9626 0 0 -9.9626 29.121 87.5446)"/><path stroke-width=".3985" stroke-miterlimit="10" fill="none" stroke="#000" d="M125.2235 11.5938v17.0079c0 2.8348 0 11.339-8.5041 11.339-8.5037 0-8.5037-8.5042-8.5037-11.339V11.5938m-17.0083 0v17.0079c0 17.0082 17.0083 17.0082 17.0083 34.016V79.626"/><path d="M125.2235 24.1607l1.3457-3.5712-1.3457 1.1744-1.3457-1.1744z"/><path stroke-width=".3985" stroke-miterlimit="10" fill="none" stroke="#000" d="M125.2235 24.1607l1.3457-3.5712-1.3457 1.1744-1.3457-1.1744z"/><path d="M108.2157 20.1683l-1.3457 3.5712 1.3457-1.1744 1.3457 1.1744z"/><path stroke-width=".3985" stroke-miterlimit="10" fill="none" stroke="#000" d="M108.2157 20.1683l-1.3457 3.5712 1.3457-1.1744 1.3457 1.1744z"/><path d="M108.2157 67.8794l1.3457-3.5712-1.3457 1.1743-1.3457-1.1743z"/><path stroke-width=".3985" stroke-miterlimit="10" fill="none" stroke="#000" d="M108.2157 67.8794l1.3457-3.5712-1.3457 1.1743-1.3457-1.1743z"/><path d="M125.2235 24.1607l1.3457-3.5712-1.3457 1.1744-1.3457-1.1744z"/><path stroke-width=".3985" stroke-miterlimit="10" fill="none" stroke="#000" d="M125.2235 24.1607l1.3457-3.5712-1.3457 1.1744-1.3457-1.1744z"/><path d="M108.2157 20.1683l-1.3457 3.5712 1.3457-1.1744 1.3457 1.1744z"/><path stroke-width=".3985" stroke-miterlimit="10" fill="none" stroke="#000" d="M108.2157 20.1683l-1.3457 3.5712 1.3457-1.1744 1.3457 1.1744z"/><path d="M108.2157 67.8794l1.3457-3.5712-1.3457 1.1743-1.3457-1.1743z"/><path stroke-width=".3985" stroke-miterlimit="10" fill="none" stroke="#000" d="M108.2157 67.8794l1.3457-3.5712-1.3457 1.1743-1.3457-1.1743z"/><path d="M125.2235 24.1607l1.3457-3.5712-1.3457 1.1744-1.3457-1.1744z"/><path stroke-width=".3985" stroke-miterlimit="10" fill="none" stroke="#000" d="M125.2235 24.1607l1.3457-3.5712-1.3457 1.1744-1.3457-1.1744z"/><path d="M108.2157 20.1683l-1.3457 3.5712 1.3457-1.1744 1.3457 1.1744z"/><path stroke-width=".3985" stroke-miterlimit="10" fill="none" stroke="#000" d="M108.2157 20.1683l-1.3457 3.5712 1.3457-1.1744 1.3457 1.1744z"/><path d="M108.2157 67.8794l1.3457-3.5712-1.3457 1.1743-1.3457-1.1743z"/><path stroke-width=".3985" stroke-miterlimit="10" fill="none" stroke="#000" d="M108.2157 67.8794l1.3457-3.5712-1.3457 1.1743-1.3457-1.1743z"/><symbol id="c"><path d="M.631.194c.015 0 .034 0 .034.02s-.019.02-.033.02H.033C.019.234 0 .234 0 .214s.019-.02.034-.02h.597M.632 0c.014 0 .033 0 .033.02S.646.04.631.04H.034C.019.04 0 .04 0 .02S.019 0 .033 0h.599z"/></symbol><use xlink:href="#c" transform="matrix(9.9626 0 0 -9.9626 70.882 46.113)"/><use xlink:href="#a" transform="matrix(9.9626 0 0 -9.9626 122.89 9.6523)"/><use xlink:href="#a" transform="matrix(9.9626 0 0 -9.9626 105.883 9.6523)"/><use xlink:href="#b" transform="matrix(9.9626 0 0 -9.9626 88.649 7.7196)"/><use xlink:href="#b" transform="matrix(9.9626 0 0 -9.9626 105.657 87.5446)"/></svg>