<svg xmlns="http://www.w3.org/2000/svg" xmlns:xlink="http://www.w3.org/1999/xlink" width="75.8pt" height="48.4pt" viewBox="0 0 75.8 48.4"><symbol id="a"><path d="M.484.181c0 .006-.005.007-.01.007C.457.188.433.173.432.173.412.16.408.153.396.136.365.089.321.055.256.055.166.055.085.12.085.27c0 .09.036.209.089.288.044.064.098.116.201.116C.413.674.437.66.437.623.437.588.4.517.388.497.382.486.382.484.382.482c0-.007.005-.007.011-.007.02 0 .057.022.069.038.002.004.06.102.06.153 0 .055-.045.063-.081.063C.296.729.177.634.131.578.012.434 0 .279 0 .227 0 .081.074 0 .19 0c.161 0 .294.156.294.181z"/></symbol><use xlink:href="#a" transform="matrix(9.9626 0 0 -9.9626 4.4126 27.0351)"/><symbol id="b"><path d="M.183 0c.233 0 .562.178.562.451C.745.54.703.596.654.627.568.683.476.683.381.683c-.086 0-.145 0-.229-.036C.019.588 0 .505 0 .497 0 .491.004.489.01.489c.016 0 .039.014.047.019.021.014.024.02.03.039.014.04.042.075.168.081C.239.419.188.228.118.053.081.04.057.017.057.007.057.001.058 0 .08 0h.103m.005.055c.114.279.135.453.149.573.067 0 .323 0 .323-.22C.66.212.484.055.242.055H.188z"/></symbol><use xlink:href="#b" transform="matrix(9.9626 0 0 -9.9626 63.7482 26.796)"/><path stroke-width=".3985" stroke-miterlimit="10" fill="none" stroke="#000" d="M14.6135 18.091C27.7107 6.6434 45.4998 6.2845 58.737 16.9452"/><path stroke-width=".3985" stroke-linecap="round" stroke-linejoin="round" fill="none" stroke="#000" d="M58.778 13.9086c-.6049 1.3547-.3727 2.4114.1143 3.1617-.837-.3159-1.9188-.3174-3.1134.5624"/><symbol id="c"><path d="M.273.322H.38C.456.322.469.31.469.277c0-.015 0-.017-.007-.045C.46.226.459.223.459.22c0-.01.007-.015.017-.015.013 0 .014.005.019.023L.549.44C.55.443.553.458.553.46c0 .01-.007.015-.017.015C.522.475.521.469.516.451.496.373.467.358.382.358h-.1l.063.251C.353.64.354.643.396.643h.153C.682.643.707.611.707.528.707.495.703.474.703.466S.706.449.72.449c.015 0 .016.009.018.026l.018.174c.003.03-.004.03-.029.03H.193c-.019 0-.032 0-.032-.022 0-.014.012-.014.032-.014.001 0 .02 0 .038-.002C.252.639.254.637.254.627.254.62.251.61.25.605L.119.082C.109.043.108.036.03.036c-.017 0-.03 0-.03-.021C0 .005.007 0 .016 0c.029 0 .103.004.132.004L.225.003C.251.003.279 0 .304 0c.007 0 .022 0 .022.022 0 .014-.012.014-.035.014-.002 0-.027 0-.052.002C.218.04.208.041.208.055c0 .004 0 .007.003.018l.062.249z"/></symbol><use xlink:href="#c" transform="matrix(6.9738 0 0 -6.9738 34.0802 6.913)"/><path stroke-width=".3985" stroke-miterlimit="10" fill="none" stroke="#000" d="M14.6135 30.5195c13.5695 11.45 31.721 11.5009 45.0472.3808"/><path stroke-width=".3985" stroke-linecap="round" stroke-linejoin="round" fill="none" stroke="#000" d="M56.691 30.2646c1.2098.8589 2.2914.8385 3.1227.508-.4739.7588-.6876 1.8193-.0591 3.1633"/><symbol id="d"><path d="M.773.71C.773.715.77.723.76.723.753.723.751.721.742.711L.669.634C.66.646.604.723.481.723.238.723 0 .508 0 .282 0 .127.118 0 .31 0c.088 0 .181.023.233.079C.553.057.58.021.592.021c.009 0 .011.004.016.025l.019.077c.005.018.019.078.022.09.012.045.013.046.072.047.007 0 .022 0 .022.021 0 .01-.007.015-.015.015C.695.296.653.292.618.292c-.025 0-.058 0-.083.001S.481.296.456.296c-.007 0-.022 0-.022-.022C.434.26.445.26.47.26.489.26.509.26.528.258.56.255.561.251.561.239c0-.004 0-.006-.007-.032C.547.179.536.134.532.124.503.063.41.036.332.036c-.1 0-.231.048-.231.217 0 .107.05.241.124.316.103.102.21.118.266.118.116 0 .184-.084.184-.196C.675.463.672.456.672.45.672.437.685.437.69.437c.016 0 .016.003.021.022L.773.71z"/></symbol><use xlink:href="#d" transform="matrix(6.9738 0 0 -6.9738 34.6532 46.3935)"/><path stroke-width="2.3308" stroke-miterlimit="10" fill="none" stroke="#000" d="M36.7179 13.9513l.4398 18.3094"/><path stroke-width="1.5338" stroke-miterlimit="10" fill="none" stroke="#fff" d="M36.7179 13.9513l.4398 18.3094"/><path stroke-width=".3985" stroke-linecap="round" stroke-linejoin="round" fill="none" stroke="#000" d="M39.686 30.9052c-1.337.6601-2.4554 2.378-2.4805 3.345-.0715-.9646-1.271-2.627-2.6381-3.2222"/><symbol id="e"><path d="M.298.375h.186c.011 0 .053 0 .053.04 0 .028-.026.028-.043.028H.179C.15.443.118.441.066.393.037.367 0 .314 0 .306 0 .294.013.294.017.294c.011 0 .012.002.018.011.051.07.112.07.135.07h.089L.16.055C.155.039.155.038.155.032.155.005.18 0 .188 0c.038 0 .045.036.048.05l.062.325z"/></symbol><use xlink:href="#e" transform="matrix(6.9738 0 0 -6.9738 30.4518 25.7857)"/></svg>