<svg xmlns="http://www.w3.org/2000/svg" xmlns:xlink="http://www.w3.org/1999/xlink" width="125.39pt" height="61.42pt" viewBox="0 0 125.39 61.42"><symbol id="a"><path d="M.305.313c.006.026.029.118.099.118.005 0 .029 0 .05-.013C.426.413.406.388.406.364c0-.016.011-.035.038-.035.022 0 .054.018.054.058 0 .052-.059.066-.093.066C.347.453.312.4.3.377.275.443.221.453.192.453.088.453.031.324.031.299c0-.01.01-.01.012-.01.008 0 .011.002.013.011.034.106.1.131.134.131.019 0 .054-.009.054-.067C.244.333.227.266.19.126.174.064.139.022.095.022c-.006 0-.029 0-.05.013C.07.04.092.061.092.089.092.116.07.124.055.124.025.124 0 .098 0 .066 0 .02.05 0 .094 0 .16 0 .196.07.199.076A.1104.1104 0 01.307 0c.103 0 .16.129.16.154 0 .01-.009.01-.012.01C.446.164.444.16.442.153.409.046.341.022.309.022.27.022.254.054.254.088c0 .022.006.044.017.088l.034.137z"/></symbol><use xlink:href="#a" transform="matrix(9.9626 0 0 -9.9626 4.583 12.7506)"/><symbol id="b"><path d="M.457.586a.063.063 0 01.004.023c0 .018-.014.027-.029.027C.422.636.406.63.397.615A.758.758 0 01.383.561a1.8693 1.8693 0 01-.02-.08L.318.301C.314.286.271.216.205.216.154.216.143.26.143.297c0 .046.017.108.051.196.016.041.02.052.02.072C.214.61.182.647.132.647.037.647 0 .502 0 .493c0-.01.01-.01.012-.01.01 0 .011.002.016.018.027.094.067.124.101.124.008 0 .025 0 .025-.032 0-.025-.01-.051-.017-.07C.097.417.079.36.079.313c0-.089.063-.119.122-.119.039 0 .073.017.101.045C.289.187.277.138.237.085.211.051.173.022.127.022.113.022.068.025.051.064c.016 0 .029 0 .043.012.01.009.02.022.02.041 0 .031-.027.035-.037.035C.054.152.021.136.021.087.021.037.065 0 .127 0 .23 0 .333.091.361.204l.096.382z"/></symbol><use xlink:href="#b" transform="matrix(9.9626 0 0 -9.9626 4.809 53.1713)"/><path stroke-width=".3985" stroke-miterlimit="10" fill="none" stroke="#000" d="M7.141 16.489v26.1024"/><path stroke-width=".3985" stroke-linecap="round" stroke-linejoin="round" fill="none" stroke="#000" d="M9.532 40.7185c-1.4347.3786-2.112 1.2222-2.391 2.0721-.279-.85-.9563-1.6935-2.391-2.072"/><symbol id="c"><path d="M.334.599h.098c.02 0 .033 0 .033.022 0 .014-.013.014-.031.014H.341C.364.762.372.808.38.837.385.859.407.88.431.88.432.88.459.88.478.868A.0596.0596 0 01.434.813c0-.022.017-.037.04-.037.027 0 .057.023.057.061 0 .046-.049.071-.1.071C.387.908.338.883.311.833.291.796.283.751.262.635H.183C.163.635.15.635.15.613.15.599.163.599.181.599h.074C.254.593.191.233.167.126.162.104.145.028.097.028c-.001 0-.025 0-.044.012.041.013.044.049.044.055 0 .022-.017.037-.04.037A.0592.0592 0 010 .071C0 .026.047 0 .097 0c.064 0 .108.066.12.088.036.067.059.19.061.202l.056.309z"/></symbol><use xlink:href="#c" transform="matrix(6.9738 0 0 -6.9738 9.996 32.9057)"/><symbol id="d"><path d="M.265.325h.097C.437.325.445.309.445.28c0-.007 0-.019-.007-.049A.0363.0363 0 01.435.22c0-.008.006-.012.012-.012.01 0 .01.003.015.021l.055.217C.52.457.52.459.52.462.52.464.518.473.508.473S.497.468.493.452C.472.374.449.356.364.356H.273L.337.61c.009.035.01.039.054.039h.132c.123 0 .146-.033.146-.11 0-.023 0-.027-.003-.054C.664.472.664.47.664.467c0-.005.003-.012.012-.012.011 0 .012.006.014.025l.02.173C.713.68.708.68.683.68h-.49c-.02 0-.03 0-.03-.02 0-.011.009-.011.028-.011.037 0 .065 0 .065-.018 0-.004 0-.006-.005-.024L.119.078C.109.039.107.031.028.031.011.031 0 .031 0 .012 0 0 .012 0 .015 0c.029 0 .103.003.132.003C.18.003.263 0 .296 0c.009 0 .021 0 .021.019 0 .008-.006.01-.006.011C.308.031.306.031.283.031c-.022 0-.027 0-.052.002C.202.036.199.04.199.053c0 .002 0 .008.004.023l.062.249z"/></symbol><use xlink:href="#d" transform="matrix(9.9626 0 0 -9.9626 34.2516 11.118)"/><symbol id="e"><path d="M.232.01c0 .003 0 .005-.017.022C.09.158.058.347.058.5c0 .174.038.348.161.473.013.012.013.014.013.017 0 .007-.004.01-.01.01-.01 0-.1-.068-.159-.195C.012.695 0 .584 0 .5 0 .422.011.301.066.188.126.065.212 0 .222 0c.006 0 .01.003.01.01z"/></symbol><use xlink:href="#e" transform="matrix(9.9626 0 0 -9.9626 42.6493 13.6087)"/><use xlink:href="#a" transform="matrix(9.9626 0 0 -9.9626 45.827 11.2276)"/><symbol id="f"><path d="M.232.5c0 .078-.011.199-.066.312C.106.935.02 1 .01 1 .004 1 0 .996 0 .99 0 .987 0 .985.019.967.117.868.174.709.174.5.174.329.137.153.013.027 0 .015 0 .013 0 .01 0 .004.004 0 .01 0c.01 0 .1.068.159.195C.22.305.232.416.232.5z"/></symbol><use xlink:href="#f" transform="matrix(9.9626 0 0 -9.9626 51.7999 13.6087)"/><symbol id="g"><path d="M.71.717c0 .003-.002.01-.011.01C.696.727.695.726.684.715L.614.638C.605.652.559.727.448.727.225.727 0 .506 0 .274 0 .115.111 0 .273 0c.044 0 .089.009.125.024.05.02.069.041.087.061C.494.06.52.023.53.023c.005 0 .007.003.007.004.002.002.012.04.017.061l.019.077c.004.017.009.034.013.051.011.045.012.047.069.048.005 0 .016.001.016.02 0 .007-.005.011-.013.011C.635.295.576.292.553.292c-.031 0-.109.003-.14.003-.009 0-.021 0-.021-.02C.392.264.4.264.422.264c.001 0 .03 0 .053-.002C.501.259.506.256.506.243.506.234.495.189.485.152.457.042.327.031.292.031c-.096 0-.201.057-.201.21 0 .031.01.196.115.326.054.068.151.129.25.129.102 0 .161-.077.161-.193C.617.463.614.462.614.452c0-.01.011-.01.015-.01.013 0 .013.002.018.02L.71.717z"/></symbol><use xlink:href="#g" transform="matrix(9.9626 0 0 -9.9626 100.0581 11.3372)"/><use xlink:href="#e" transform="matrix(9.9626 0 0 -9.9626 108.3793 13.6087)"/><use xlink:href="#a" transform="matrix(9.9626 0 0 -9.9626 111.556 11.2276)"/><use xlink:href="#f" transform="matrix(9.9626 0 0 -9.9626 117.5289 13.6087)"/><use xlink:href="#d" transform="matrix(9.9626 0 0 -9.9626 34.4776 55.28)"/><use xlink:href="#e" transform="matrix(9.9626 0 0 -9.9626 42.8753 57.7707)"/><use xlink:href="#b" transform="matrix(9.9626 0 0 -9.9626 46.053 57.3223)"/><use xlink:href="#f" transform="matrix(9.9626 0 0 -9.9626 51.5739 57.7707)"/><use xlink:href="#g" transform="matrix(9.9626 0 0 -9.9626 100.2841 55.4992)"/><use xlink:href="#e" transform="matrix(9.9626 0 0 -9.9626 108.6053 57.7707)"/><use xlink:href="#b" transform="matrix(9.9626 0 0 -9.9626 111.782 57.3223)"/><use xlink:href="#f" transform="matrix(9.9626 0 0 -9.9626 117.3029 57.7707)"/><path stroke-width=".3985" stroke-miterlimit="10" fill="none" stroke="#000" d="M59.6008 8.627h35.069"/><path stroke-width=".3985" stroke-linecap="round" stroke-linejoin="round" fill="none" stroke="#000" d="M92.797 6.2361c.3785 1.4346 1.2221 2.112 2.072 2.391-.8499.2789-1.6935.9563-2.072 2.3908"/><symbol id="h"><path d="M.298.375h.186c.011 0 .053 0 .053.04 0 .028-.026.028-.043.028H.179C.15.443.118.441.066.393.037.367 0 .314 0 .306 0 .294.013.294.017.294c.011 0 .012.002.018.011.051.07.112.07.135.07h.089L.16.055C.155.039.155.038.155.032.155.005.18 0 .188 0c.038 0 .045.036.048.05l.062.325z"/></symbol><use xlink:href="#h" transform="matrix(6.9738 0 0 -6.9738 73.5908 5.3687)"/><symbol id="i"><path d="M.528.403C.482.389.482.345.482.344c0-.017.012-.041.045-.041.028 0 .062.024.062.068C.589.43.523.453.47.453.405.453.363.411.343.385.31.442.246.453.21.453.085.453.014.335.014.298.014.284.03.284.035.284c.009 0 .017.001.021.012.03.098.112.123.15.123.033 0 .071-.014.071-.067C.277.327.259.258.225.125.21.068.164.034.121.034c-.007 0-.036 0-.06.016.045.016.045.054.045.058C.106.137.084.15.062.15.037.15 0 .13 0 .082 0 .021.068 0 .119 0c.055 0 .1.032.124.068C.283.008.347 0 .378 0c.126 0 .197.119.197.155 0 .014-.017.014-.021.014C.537.169.535.163.532.154.503.064.426.034.382.034c-.03 0-.071.011-.071.067 0 .012 0 .019.008.053.017.07.044.181.052.199.013.026.046.066.097.066.003 0 .037 0 .06-.016z"/></symbol><use xlink:href="#i" transform="matrix(4.9813 0 0 -4.9813 77.4143 6.3358)"/><path stroke-width=".3985" stroke-miterlimit="10" fill="none" stroke="#000" d="M44.491 17.4575V43.56"/><path stroke-width=".3985" stroke-linecap="round" stroke-linejoin="round" fill="none" stroke="#000" d="M46.882 41.6871c-1.4346.3786-2.112 1.2222-2.391 2.0721-.2789-.85-.9563-1.6935-2.3909-2.0721"/><symbol id="j"><path d="M.273.322H.38C.456.322.469.31.469.277c0-.015 0-.017-.007-.045C.46.226.459.223.459.22c0-.01.007-.015.017-.015.013 0 .014.005.019.023L.549.44C.55.443.553.458.553.46c0 .01-.007.015-.017.015C.522.475.521.469.516.451.496.373.467.358.382.358h-.1l.063.251C.353.64.354.643.396.643h.153C.682.643.707.611.707.528.707.495.703.474.703.466S.706.449.72.449c.015 0 .016.009.018.026l.018.174c.003.03-.004.03-.029.03H.193c-.019 0-.032 0-.032-.022 0-.014.012-.014.032-.014.001 0 .02 0 .038-.002C.252.639.254.637.254.627.254.62.251.61.25.605L.119.082C.109.043.108.036.03.036c-.017 0-.03 0-.03-.021C0 .005.007 0 .016 0c.029 0 .103.004.132.004L.225.003C.251.003.279 0 .304 0c.007 0 .022 0 .022.022 0 .014-.012.014-.035.014-.002 0-.027 0-.052.002C.218.04.208.041.208.055c0 .004 0 .007.003.018l.062.249z"/></symbol><use xlink:href="#j" transform="matrix(6.9738 0 0 -6.9738 33.0792 32.078)"/><symbol id="k"><path d="M.356.591h.112c.021 0 .022.001.027.005C.5.6.503.613.503.619c0 .017-.015.017-.032.017H.364C.376.71.396.837.409.852.424.868.44.876.457.876c.006 0 .028 0 .049-.011C.466.848.466.812.466.808.466.783.485.767.51.767c.026 0 .062.022.062.066C.572.891.506.91.458.91.331.91.306.789.297.746.288.703.294.73.277.636H.186c-.019 0-.035 0-.035-.028 0-.017.015-.017.032-.017H.27C.251.493.209.215.181.109.175.085.151.034.112.034a.114.114 0 00-.046.01c.027.012.04.037.04.058 0 .025-.019.041-.044.041A.0643.0643 0 010 .077C0 .016.072 0 .111 0c.058 0 .102.046.125.077.04.056.063.189.064.192l.056.322z"/></symbol><use xlink:href="#k" transform="matrix(4.9813 0 0 -4.9813 38.2478 34.1562)"/><path stroke-width=".3985" stroke-miterlimit="10" fill="none" stroke="#000" d="M110.1995 17.4575V43.56"/><path stroke-width=".3985" stroke-linecap="round" stroke-linejoin="round" fill="none" stroke="#000" d="M112.5905 41.6871c-1.4346.3786-2.112 1.2222-2.391 2.0721-.2789-.85-.9563-1.6935-2.3909-2.0721"/><symbol id="l"><path d="M.773.71C.773.715.77.723.76.723.753.723.751.721.742.711L.669.634C.66.646.604.723.481.723.238.723 0 .508 0 .282 0 .127.118 0 .31 0c.088 0 .181.023.233.079C.553.057.58.021.592.021c.009 0 .011.004.016.025l.019.077c.005.018.019.078.022.09.012.045.013.046.072.047.007 0 .022 0 .022.021 0 .01-.007.015-.015.015C.695.296.653.292.618.292c-.025 0-.058 0-.083.001S.481.296.456.296c-.007 0-.022 0-.022-.022C.434.26.445.26.47.26.489.26.509.26.528.258.56.255.561.251.561.239c0-.004 0-.006-.007-.032C.547.179.536.134.532.124.503.063.41.036.332.036c-.1 0-.231.048-.231.217 0 .107.05.241.124.316.103.102.21.118.266.118.116 0 .184-.084.184-.196C.675.463.672.456.672.45.672.437.685.437.69.437c.016 0 .016.003.021.022L.773.71z"/></symbol><use xlink:href="#l" transform="matrix(6.9738 0 0 -6.9738 113.0342 32.2175)"/><use xlink:href="#k" transform="matrix(4.9813 0 0 -4.9813 119.3458 34.1562)"/><path stroke-width=".3985" stroke-miterlimit="10" fill="none" stroke="#000" d="M59.3748 52.789h35.521"/><path stroke-width=".3985" stroke-linecap="round" stroke-linejoin="round" fill="none" stroke="#000" d="M93.023 50.398c.3785 1.4347 1.2221 2.112 2.072 2.391-.8499.279-1.6935.9563-2.072 2.3909"/><use xlink:href="#h" transform="matrix(6.9738 0 0 -6.9738 73.6528 48.5617)"/><symbol id="m"><path d="M.571.578C.575.593.575.6.575.601c0 .022-.018.035-.037.035C.498.636.49.601.483.574L.462.491.431.366a.4588.4588 0 01-.01-.04C.42.322.366.228.281.228.235.228.199.25.199.314c0 .055.03.128.059.2C.263.526.27.542.27.559.27.608.223.647.161.647.056.647 0 .519 0 .492 0 .478.016.478.021.478c.017 0 .018.005.023.02.021.069.068.115.113.115.019 0 .03-.011.03-.038C.187.555.181.541.174.523.125.404.116.368.116.328c0-.111.093-.134.16-.134.057 0 .099.028.124.049C.386.187.375.143.328.095.305.072.258.034.196.034.178.034.141.037.118.058c.045.011.05.05.05.06 0 .029-.023.041-.044.041C.095.159.061.135.061.089.061.039.112 0 .196 0 .31 0 .445.076.477.204l.094.374z"/></symbol><use xlink:href="#m" transform="matrix(4.9813 0 0 -4.9813 77.4663 50.4952)"/></svg>