<svg xmlns="http://www.w3.org/2000/svg" width="184.488" height="81.879" viewBox="0 -61.409 138.366 61.409"><path d="M7.616-51.777c.06-.26.289-1.176.986-1.176.05 0 .29 0 .498.13-.278.05-.478.299-.478.538 0 .16.11.348.379.348a.555.555 0 00.538-.577c0-.518-.588-.658-.927-.658-.578 0-.926.528-1.046.757-.249-.657-.787-.757-1.075-.757-1.037 0-1.604 1.285-1.604 1.534 0 .1.1.1.12.1.079 0 .109-.02.129-.11.338-1.056.996-1.305 1.335-1.305.189 0 .537.09.537.668 0 .308-.169.976-.537 2.37-.16.618-.509 1.036-.947 1.036-.06 0-.289 0-.498-.13.25-.049.468-.258.468-.537 0-.269-.219-.349-.368-.349-.3 0-.548.26-.548.578 0 .458.498.658.936.658.658 0 1.016-.698 1.046-.758a1.1 1.1 0 001.076.758c1.026 0 1.594-1.285 1.594-1.534 0-.1-.09-.1-.12-.1-.09 0-.11.04-.13.11-.328 1.065-1.005 1.304-1.324 1.304-.389 0-.548-.318-.548-.657 0-.22.06-.438.17-.877l.338-1.364zm1.74 37.694c.04-.14.04-.16.04-.23 0-.179-.14-.268-.289-.268-.1 0-.259.06-.349.209a7.4 7.4 0 00-.139.538c-.07.259-.14.528-.2.797l-.447 1.793c-.04.15-.469.846-1.126.846-.508 0-.618-.438-.618-.807 0-.458.17-1.075.508-1.952.16-.408.2-.518.2-.717 0-.448-.32-.817-.817-.817-.946 0-1.315 1.445-1.315 1.534 0 .1.1.1.12.1.1 0 .11-.02.159-.18.269-.936.667-1.235 1.006-1.235.08 0 .249 0 .249.319 0 .249-.1.508-.17.697-.398 1.056-.577 1.624-.577 2.092 0 .887.627 1.186 1.215 1.186.389 0 .727-.17 1.006-.449-.13.518-.249 1.006-.647 1.534-.26.339-.638.628-1.096.628-.14 0-.588-.03-.757-.418.16 0 .289 0 .428-.12.1-.09.2-.22.2-.408 0-.31-.27-.35-.37-.35-.228 0-.557.16-.557.648 0 .498.438.867 1.056.867 1.026 0 2.052-.906 2.331-2.032l.956-3.805z"/><path d="M7.137-44.922v26.102" stroke="#000" fill="none" stroke-width=".398" stroke-miterlimit="10"/><path d="M9.527-20.695c-1.433.379-2.113 1.222-2.39 2.074-.282-.852-.957-1.695-2.39-2.074" stroke="#000" fill="none" stroke-width=".398" stroke-miterlimit="10" stroke-linecap="round" stroke-linejoin="round"/><path d="M12.319-32.684h.684c.139 0 .23 0 .23-.153 0-.098-.091-.098-.217-.098h-.648c.16-.886.216-1.207.272-1.41.035-.153.188-.299.355-.299.008 0 .196 0 .328.084a.416.416 0 00-.307.383c0 .154.119.258.28.258.188 0 .397-.16.397-.425 0-.32-.342-.495-.698-.495a.97.97 0 00-.837.523c-.14.258-.195.572-.341 1.38h-.551c-.14 0-.23 0-.23.154 0 .098.09.098.216.098h.516c-.007.042-.447 2.553-.614 3.299-.035.153-.153.683-.488.683-.007 0-.175 0-.307-.083a.416.416 0 00.307-.384c0-.153-.119-.258-.28-.258A.413.413 0 009.99-29c0 .314.328.495.677.495.446 0 .753-.46.837-.614.25-.467.411-1.325.425-1.409l.39-2.155zm31.165-20.844h.966c.748 0 .827.159.827.448 0 .07 0 .189-.07.488a.36.36 0 00-.03.11c0 .08.06.12.12.12.1 0 .1-.03.15-.21l.547-2.162c.03-.11.03-.13.03-.16a.117.117 0 00-.12-.109c-.099 0-.109.05-.149.21-.209.776-.438.956-1.285.956h-.906l.637-2.53c.09-.349.1-.389.538-.389h1.315c1.225 0 1.454.329 1.454 1.096 0 .229 0 .269-.03.538-.02.13-.02.15-.02.18 0 .049.03.119.12.119.11 0 .12-.06.14-.25l.199-1.723c.03-.269-.02-.269-.269-.269h-4.881c-.2 0-.299 0-.299.2 0 .11.09.11.28.11.368 0 .647 0 .647.178 0 .04 0 .06-.05.24l-1.315 5.27c-.1.388-.12.467-.907.467-.169 0-.279 0-.279.19 0 .119.12.119.15.119.289 0 1.026-.03 1.315-.03.329 0 1.155.03 1.484.03.09 0 .21 0 .21-.19 0-.079-.06-.099-.06-.109-.03-.01-.05-.01-.28-.01-.219 0-.268 0-.517-.02-.29-.03-.32-.07-.32-.199 0-.02 0-.08.04-.23l.618-2.48zm8.069 5.628c0-.03 0-.05-.17-.22-1.244-1.254-1.563-3.137-1.563-4.661 0-1.733.379-3.467 1.604-4.712.13-.12.13-.14.13-.17 0-.069-.04-.099-.1-.099-.1 0-.996.678-1.584 1.943-.508 1.095-.628 2.2-.628 3.038 0 .777.11 1.982.658 3.108.597 1.225 1.454 1.872 1.554 1.872.06 0 .1-.03.1-.1zm3.904-5.4c.06-.258.289-1.175.986-1.175.05 0 .29 0 .498.13-.279.05-.478.299-.478.538 0 .16.11.348.379.348a.555.555 0 00.538-.577c0-.518-.588-.658-.927-.658-.578 0-.926.528-1.046.757-.249-.657-.787-.757-1.075-.757-1.037 0-1.604 1.285-1.604 1.534 0 .1.1.1.12.1.079 0 .109-.02.129-.11.338-1.056.996-1.305 1.335-1.305.189 0 .537.09.537.668 0 .309-.169.976-.537 2.37-.16.618-.509 1.036-.947 1.036-.06 0-.289 0-.498-.129.25-.05.468-.26.468-.538 0-.269-.219-.349-.368-.349-.3 0-.548.26-.548.578 0 .458.498.658.936.658.658 0 1.016-.698 1.046-.757a1.1 1.1 0 001.076.757c1.026 0 1.594-1.285 1.594-1.534 0-.1-.09-.1-.12-.1-.09 0-.11.04-.13.11-.328 1.065-1.005 1.304-1.324 1.304-.389 0-.548-.318-.548-.657 0-.22.06-.438.17-.877l.338-1.364zm5.246.519c0-.777-.11-1.982-.658-3.108-.597-1.225-1.454-1.873-1.553-1.873-.06 0-.1.04-.1.1 0 .03 0 .05.19.229.975.986 1.543 2.57 1.543 4.652 0 1.703-.368 3.456-1.604 4.711-.13.12-.13.14-.13.17 0 .06.04.1.1.1.1 0 .996-.678 1.584-1.943.508-1.096.628-2.201.628-3.038zm53.011-4.433c0-.03-.02-.1-.11-.1-.03 0-.04.01-.15.12l-.697.767c-.09-.14-.548-.887-1.653-.887-2.222 0-4.463 2.202-4.463 4.513 0 1.584 1.106 2.73 2.72 2.73.438 0 .886-.09 1.245-.24.498-.199.687-.408.866-.607.09.249.349.617.449.617.05 0 .07-.03.07-.04.02-.02.119-.398.169-.607l.189-.767c.04-.17.09-.34.13-.508.109-.449.119-.469.687-.479.05 0 .16-.01.16-.199 0-.07-.05-.11-.13-.11-.23 0-.817.03-1.046.03-.31 0-1.086-.03-1.395-.03-.09 0-.21 0-.21.2 0 .11.08.11.3.11.01 0 .299 0 .528.02.259.03.308.06.308.188 0 .09-.11.539-.209.907-.279 1.096-1.574 1.205-1.922 1.205-.957 0-2.002-.567-2.002-2.092 0-.308.1-1.952 1.145-3.247.538-.677 1.504-1.285 2.49-1.285 1.017 0 1.604.767 1.604 1.923 0 .398-.03.408-.03.508 0 .1.11.1.15.1.13 0 .13-.02.18-.2l.627-2.54zm3.559 9.314c0-.03 0-.05-.17-.22-1.244-1.254-1.563-3.137-1.563-4.661 0-1.733.379-3.467 1.604-4.712.13-.12.13-.14.13-.17 0-.069-.04-.099-.1-.099-.1 0-.996.678-1.584 1.943-.508 1.095-.628 2.2-.628 3.038 0 .777.11 1.982.658 3.108.597 1.225 1.454 1.872 1.554 1.872.06 0 .1-.03.1-.1zm3.905-5.4c.06-.258.289-1.175.986-1.175.05 0 .29 0 .498.13-.278.05-.478.299-.478.538 0 .16.11.348.379.348a.555.555 0 00.538-.577c0-.518-.588-.658-.927-.658-.578 0-.926.528-1.046.757-.249-.657-.787-.757-1.075-.757-1.037 0-1.604 1.285-1.604 1.534 0 .1.1.1.12.1.079 0 .109-.02.129-.11.338-1.056.996-1.305 1.335-1.305.189 0 .537.09.537.668 0 .309-.169.976-.537 2.37-.16.618-.509 1.036-.947 1.036-.06 0-.289 0-.498-.129.25-.05.468-.26.468-.538 0-.269-.219-.349-.368-.349-.3 0-.548.26-.548.578 0 .458.498.658.936.658.658 0 1.016-.698 1.046-.757a1.1 1.1 0 001.076.757c1.026 0 1.594-1.285 1.594-1.534 0-.1-.09-.1-.12-.1-.09 0-.11.04-.13.11-.328 1.065-1.005 1.304-1.324 1.304-.389 0-.548-.318-.548-.657 0-.22.06-.438.17-.877l.338-1.364zm5.245.519c0-.777-.11-1.982-.658-3.108-.597-1.225-1.454-1.873-1.554-1.873-.06 0-.1.04-.1.1 0 .03 0 .05.19.229.976.986 1.544 2.57 1.544 4.652 0 1.703-.369 3.456-1.604 4.711-.13.12-.13.14-.13.17 0 .06.04.1.1.1.1 0 .996-.678 1.584-1.943.508-1.096.628-2.201.628-3.038zM43.71-9.374h.966c.748 0 .827.159.827.448 0 .07 0 .189-.07.488a.36.36 0 00-.03.11c0 .08.06.12.12.12.1 0 .1-.03.15-.21l.547-2.162c.03-.11.03-.13.03-.16 0-.019-.02-.109-.12-.109s-.109.05-.149.21c-.209.776-.438.956-1.285.956h-.906l.637-2.53c.09-.349.1-.389.538-.389h1.315c1.225 0 1.454.329 1.454 1.096 0 .229 0 .269-.03.538-.02.13-.02.15-.02.18 0 .049.03.119.12.119.11 0 .12-.06.14-.25l.199-1.723c.03-.269-.02-.269-.269-.269h-4.881c-.2 0-.299 0-.299.2 0 .11.09.11.28.11.368 0 .647 0 .647.178 0 .04 0 .06-.05.24l-1.315 5.27c-.1.388-.12.467-.907.467-.169 0-.279 0-.279.19 0 .119.12.119.15.119.289 0 1.026-.03 1.315-.03.329 0 1.155.03 1.484.03.09 0 .21 0 .21-.19 0-.08-.06-.099-.06-.109-.03-.01-.05-.01-.28-.01-.219 0-.268 0-.517-.02-.29-.03-.32-.07-.32-.199 0-.02 0-.08.04-.23l.618-2.48zm8.07 5.628c0-.03 0-.05-.17-.22-1.245-1.254-1.564-3.137-1.564-4.661 0-1.733.378-3.467 1.604-4.712.13-.12.13-.14.13-.17 0-.069-.04-.099-.1-.099-.1 0-.996.678-1.584 1.943-.508 1.095-.628 2.2-.628 3.038 0 .777.11 1.982.658 3.108.597 1.225 1.454 1.872 1.553 1.872.06 0 .1-.03.1-.1zm5.417-6.186c.04-.14.04-.16.04-.23 0-.179-.14-.268-.289-.268-.1 0-.259.06-.349.209-.02.05-.1.358-.139.538-.07.259-.14.528-.2.797l-.447 1.793c-.04.15-.469.846-1.126.846-.508 0-.618-.438-.618-.807 0-.458.17-1.075.508-1.952.16-.408.2-.518.2-.717 0-.448-.32-.817-.817-.817-.947 0-1.315 1.445-1.315 1.534 0 .1.1.1.12.1.1 0 .11-.02.159-.18.269-.936.667-1.235 1.006-1.235.08 0 .249 0 .249.319 0 .25-.1.508-.17.697-.398 1.056-.577 1.624-.577 2.092 0 .887.627 1.186 1.215 1.186.389 0 .727-.17 1.006-.449-.13.518-.249 1.007-.647 1.534-.26.34-.638.628-1.096.628-.14 0-.588-.03-.757-.418.16 0 .289 0 .428-.12.1-.09.2-.22.2-.408 0-.31-.27-.35-.37-.35-.228 0-.557.16-.557.648 0 .498.438.867 1.056.867 1.026 0 2.052-.906 2.331-2.032l.956-3.805zm3.28 1.305c0-.777-.11-1.982-.658-3.108-.597-1.225-1.454-1.873-1.554-1.873-.06 0-.1.04-.1.1 0 .03 0 .05.19.229.976.986 1.544 2.57 1.544 4.652 0 1.703-.369 3.456-1.604 4.711-.13.12-.13.14-.13.17 0 .06.04.1.1.1.1 0 .996-.678 1.584-1.943.508-1.096.628-2.201.628-3.038zm53.463-4.433c0-.03-.02-.1-.11-.1-.03 0-.04.01-.15.12l-.697.767c-.09-.14-.548-.887-1.653-.887-2.222 0-4.463 2.202-4.463 4.513 0 1.584 1.106 2.73 2.72 2.73.438 0 .886-.09 1.244-.24.499-.2.688-.408.867-.607.09.249.349.617.448.617.05 0 .07-.03.07-.04.02-.02.12-.398.17-.607l.189-.767c.04-.17.09-.34.13-.508.109-.449.119-.469.687-.479.05 0 .16-.01.16-.199 0-.07-.05-.11-.13-.11-.23 0-.817.03-1.046.03-.31 0-1.086-.03-1.395-.03-.09 0-.21 0-.21.2 0 .11.08.11.3.11.01 0 .299 0 .528.02.259.03.308.06.308.188 0 .09-.11.539-.209.907-.279 1.096-1.574 1.205-1.922 1.205-.957 0-2.002-.567-2.002-2.092 0-.308.099-1.952 1.145-3.247.538-.677 1.504-1.285 2.49-1.285 1.017 0 1.604.767 1.604 1.923 0 .398-.03.408-.03.508 0 .1.11.1.15.1.13 0 .13-.02.18-.2l.627-2.54zm3.56 9.314c0-.03 0-.05-.17-.22-1.245-1.254-1.564-3.137-1.564-4.661 0-1.733.379-3.467 1.604-4.712.13-.12.13-.14.13-.17 0-.069-.04-.099-.1-.099-.1 0-.996.678-1.584 1.943-.508 1.095-.628 2.2-.628 3.038 0 .777.11 1.982.658 3.108.597 1.225 1.454 1.872 1.554 1.872.06 0 .1-.03.1-.1zm5.418-6.186c.04-.14.04-.16.04-.23 0-.179-.14-.268-.289-.268-.1 0-.259.06-.349.209-.02.05-.1.358-.139.538-.07.259-.14.528-.2.797l-.447 1.793c-.04.15-.469.846-1.126.846-.508 0-.618-.438-.618-.807 0-.458.17-1.075.508-1.952.16-.408.2-.518.2-.717 0-.448-.32-.817-.817-.817-.946 0-1.315 1.445-1.315 1.534 0 .1.1.1.12.1.1 0 .11-.02.159-.18.269-.936.667-1.235 1.006-1.235.08 0 .249 0 .249.319 0 .25-.1.508-.17.697-.398 1.056-.577 1.624-.577 2.092 0 .887.627 1.186 1.215 1.186.389 0 .727-.17 1.006-.449-.13.518-.249 1.007-.647 1.534-.26.34-.638.628-1.096.628-.14 0-.588-.03-.757-.418.16 0 .289 0 .428-.12.1-.09.2-.22.2-.408 0-.31-.27-.35-.369-.35-.23 0-.558.16-.558.648 0 .498.438.867 1.056.867 1.026 0 2.052-.906 2.331-2.032l.956-3.805zm3.279 1.305c0-.777-.11-1.982-.658-3.108-.597-1.225-1.454-1.873-1.554-1.873-.06 0-.1.04-.1.1 0 .03 0 .05.19.229.976.986 1.544 2.57 1.544 4.652 0 1.703-.369 3.456-1.604 4.711-.13.12-.13.14-.13.17 0 .06.04.1.1.1.1 0 .996-.678 1.584-1.943.508-1.096.628-2.201.628-3.038z"/><path d="M66.188-52.781h35.07" stroke="#000" fill="none" stroke-width=".398" stroke-miterlimit="10"/><path d="M99.383-55.172c.379 1.434 1.222 2.113 2.074 2.39-.852.278-1.695.958-2.074 2.391" stroke="#000" fill="none" stroke-width=".398" stroke-miterlimit="10" stroke-linecap="round" stroke-linejoin="round"/><path d="M82.256-58.653h1.297c.077 0 .37 0 .37-.279 0-.195-.182-.195-.3-.195h-2.197c-.203 0-.426.014-.789.349-.202.18-.46.55-.46.606 0 .084.09.084.119.084.076 0 .083-.014.125-.077.356-.488.781-.488.942-.488h.62l-.69 2.232c-.035.112-.035.119-.035.16 0 .189.174.224.23.224.265 0 .314-.252.335-.349l.433-2.267zm4.375 1.575c-.23.07-.23.289-.23.294 0 .085.06.204.225.204.14 0 .309-.12.309-.338 0-.294-.329-.41-.593-.41-.324 0-.533.21-.633.34-.164-.284-.483-.34-.662-.34-.623 0-.977.589-.977.773 0 .07.08.07.105.07.044 0 .084-.005.104-.06.15-.488.558-.613.748-.613.164 0 .353.07.353.334 0 .125-.09.468-.259 1.131-.074.284-.304.453-.518.453-.035 0-.18 0-.299-.08.225-.08.225-.268.225-.288 0-.145-.11-.21-.22-.21a.32.32 0 00-.309.34c0 .303.34.408.593.408.274 0 .498-.16.618-.34.2.3.518.34.673.34.627 0 .981-.593.981-.773 0-.07-.085-.07-.105-.07-.084 0-.094.03-.11.075a.825.825 0 01-.746.598c-.15 0-.354-.054-.354-.333 0-.06 0-.095.04-.264.084-.35.219-.902.259-.992.065-.13.229-.329.483-.329.015 0 .184 0 .299.08z"/><path d="M51.082-43.953v26.101" stroke="#000" fill="none" stroke-width=".398" stroke-miterlimit="10"/><path d="M53.473-19.727c-1.434.38-2.114 1.223-2.391 2.075-.281-.852-.957-1.696-2.39-2.075" stroke="#000" fill="none" stroke-width=".398" stroke-miterlimit="10" stroke-linecap="round" stroke-linejoin="round"/><path d="M34.105-31.207h.747c.53 0 .62.084.62.314 0 .105 0 .119-.048.314a.28.28 0 00-.021.084c0 .07.049.104.118.104.091 0 .098-.035.133-.16l.377-1.48c.006-.02.027-.125.027-.138 0-.07-.048-.105-.118-.105-.098 0-.105.042-.14.167-.14.544-.341.649-.934.649h-.698l.44-1.75c.055-.217.062-.238.355-.238h1.068c.927 0 1.101.223 1.101.802 0 .23-.027.377-.027.433 0 .055.02.118.118.118.105 0 .112-.063.126-.181l.125-1.214c.021-.209-.027-.209-.202-.209h-3.725c-.132 0-.223 0-.223.154 0 .097.084.097.223.097.007 0 .14 0 .265.014.147.014.16.028.16.098 0 .049-.02.118-.027.153l-.914 3.648c-.07.272-.076.32-.62.32-.12 0-.21 0-.21.147 0 .07.049.105.112.105.202 0 .718-.028.92-.028l.538.007c.18 0 .376.021.55.021.05 0 .154 0 .154-.153 0-.098-.083-.098-.244-.098-.014 0-.188 0-.363-.014-.146-.014-.216-.02-.216-.119 0-.028 0-.048.021-.125l.432-1.737zm6.216-2.985c-1.325.934-1.674 2.413-1.674 3.48 0 .984.293 2.511 1.674 3.488.056 0 .14 0 .14-.084 0-.042-.021-.056-.07-.105-.928-.836-1.27-2.022-1.27-3.292 0-1.883.719-2.804 1.29-3.32.029-.028.05-.049.05-.084 0-.083-.084-.083-.14-.083zm3.476 2.476h.683c.14 0 .23 0 .23-.153 0-.098-.09-.098-.216-.098h-.649c.161-.886.217-1.207.273-1.41.035-.153.188-.299.355-.299.007 0 .196 0 .328.084a.416.416 0 00-.307.383c0 .154.119.258.28.258.188 0 .397-.16.397-.425 0-.32-.342-.495-.698-.495a.97.97 0 00-.837.523c-.14.258-.195.572-.341 1.38h-.551c-.14 0-.23 0-.23.154 0 .098.09.098.216.098h.516c-.007.042-.447 2.553-.614 3.3-.035.153-.153.683-.488.683-.007 0-.175 0-.307-.084a.416.416 0 00.307-.384c0-.153-.119-.258-.28-.258a.413.413 0 00-.397.426c0 .314.328.495.677.495.446 0 .753-.46.837-.614.25-.467.411-1.325.425-1.409l.39-2.155zm2.456-2.476c-.049 0-.133 0-.133.084 0 .034.021.055.063.104.6.551 1.27 1.493 1.27 3.292 0 1.458-.454 2.56-1.207 3.244-.119.118-.126.125-.126.16s.021.084.09.084c.085 0 .747-.46 1.207-1.332.307-.58.51-1.333.51-2.149 0-.983-.293-2.51-1.674-3.487z"/><path d="M116.781-43.953v26.101" stroke="#000" fill="none" stroke-width=".398" stroke-miterlimit="10"/><path d="M119.172-19.727c-1.434.38-2.114 1.223-2.39 2.075-.278-.852-.958-1.696-2.392-2.075" stroke="#000" fill="none" stroke-width=".398" stroke-miterlimit="10" stroke-linecap="round" stroke-linejoin="round"/><path d="M125.005-33.774c0-.035-.02-.09-.09-.09-.05 0-.063.014-.126.083l-.51.538c-.062-.084-.453-.621-1.31-.621-1.696 0-3.356 1.5-3.356 3.075 0 1.082.823 1.967 2.163 1.967.613 0 1.262-.16 1.625-.55.07.153.258.404.342.404.062 0 .076-.028.111-.174l.133-.537c.035-.126.132-.545.153-.628.084-.314.09-.32.502-.328.049 0 .154 0 .154-.147 0-.07-.05-.104-.105-.104-.23 0-.523.028-.767.028-.175 0-.405 0-.579-.007-.174-.007-.377-.021-.551-.021-.049 0-.154 0-.154.153 0 .098.077.098.252.098.132 0 .271 0 .404.014.223.02.23.049.23.133 0 .027 0 .041-.048.223-.05.195-.126.509-.154.579-.202.425-.85.613-1.395.613-.697 0-1.611-.334-1.611-1.513 0-.747.349-1.681.865-2.204.718-.712 1.464-.823 1.855-.823.81 0 1.283.585 1.283 1.367 0 .195-.02.244-.02.286 0 .09.09.09.125.09.111 0 .111-.02.147-.153l.432-1.75zm2.799-.418c-1.325.934-1.674 2.413-1.674 3.48 0 .984.293 2.511 1.674 3.488.056 0 .14 0 .14-.084 0-.042-.021-.056-.07-.105-.928-.836-1.27-2.022-1.27-3.292 0-1.883.719-2.804 1.29-3.32.029-.028.05-.049.05-.084 0-.083-.084-.083-.14-.083zm3.476 2.476h.684c.139 0 .23 0 .23-.153 0-.098-.091-.098-.217-.098h-.648c.16-.886.216-1.207.272-1.41.035-.153.188-.299.355-.299.008 0 .196 0 .328.084a.416.416 0 00-.307.383c0 .154.119.258.28.258.188 0 .397-.16.397-.425 0-.32-.342-.495-.698-.495a.97.97 0 00-.837.523c-.14.258-.195.572-.341 1.38h-.551c-.14 0-.23 0-.23.154 0 .098.09.098.216.098h.516c-.007.042-.447 2.553-.614 3.3-.035.153-.153.683-.488.683-.007 0-.175 0-.307-.084a.416.416 0 00.307-.384c0-.153-.119-.258-.28-.258a.413.413 0 00-.397.426c0 .314.328.495.677.495.446 0 .753-.46.837-.614.25-.467.411-1.325.425-1.409l.39-2.155zm2.456-2.476c-.049 0-.133 0-.133.084 0 .034.021.055.063.104.6.551 1.27 1.493 1.27 3.292 0 1.458-.454 2.56-1.207 3.244-.119.118-.126.125-.126.16s.021.084.091.084c.084 0 .746-.46 1.207-1.332a4.67 4.67 0 00.509-2.149c0-.983-.293-2.51-1.674-3.487z"/><path d="M65.96-8.625h35.52" stroke="#000" fill="none" stroke-width=".398" stroke-miterlimit="10"/><path d="M99.61-11.02c.378 1.438 1.222 2.114 2.07 2.395-.848.277-1.692.953-2.07 2.39" stroke="#000" fill="none" stroke-width=".398" stroke-miterlimit="10" stroke-linecap="round" stroke-linejoin="round"/><path d="M82.319-15.468h1.297c.077 0 .37 0 .37-.279 0-.195-.182-.195-.3-.195h-2.198c-.202 0-.425.014-.788.348-.202.182-.46.551-.46.607 0 .084.09.084.118.084.077 0 .084-.014.126-.077.356-.488.781-.488.942-.488h.62l-.69 2.232c-.035.112-.035.119-.035.16 0 .189.174.224.23.224.265 0 .314-.252.335-.349l.433-2.267zm4.579 1.67c.02-.075.02-.11.02-.115 0-.11-.09-.174-.184-.174-.2 0-.24.174-.274.309l-.105.413-.154.623c-.02.064-.045.17-.05.2-.005.02-.274.487-.698.487-.229 0-.408-.11-.408-.428 0-.274.15-.638.294-.996.025-.06.06-.14.06-.225 0-.244-.235-.438-.543-.438-.523 0-.803.638-.803.772 0 .07.08.07.105.07.085 0 .09-.025.115-.1.104-.343.338-.573.563-.573.094 0 .149.055.149.19 0 .1-.03.169-.065.259-.244.592-.289.772-.289.971 0 .553.464.668.797.668a.96.96 0 00.618-.244c-.07.279-.124.498-.358.737-.115.114-.35.304-.658.304-.09 0-.274-.015-.389-.12a.312.312 0 00.25-.299c0-.144-.115-.204-.22-.204-.144 0-.314.12-.314.349 0 .25.254.443.673.443.568 0 1.24-.378 1.4-1.016l.468-1.863z"/></svg>