<svg xmlns="http://www.w3.org/2000/svg" xmlns:xlink="http://www.w3.org/1999/xlink" width="260.84" height="90.152" viewBox="0 0 195.63 67.614"><path stroke-width=".3985" stroke-miterlimit="10" fill="none" stroke="#000" d="M38.798 11.129v31.1816c0 2.8348 0 14.1734-8.504 14.1734-8.5038 0-8.5038-11.3386-8.5038-14.1734V25.3023c0-2.8344 0-14.1734-8.504-14.1734-8.5042 0-8.5042 11.339-8.5042 14.1734V56.484"/><path d="M4.782 35.9363l1.3457-3.5712-1.3457 1.1744-1.3457-1.1744z"/><path stroke-width=".3985" stroke-miterlimit="10" fill="none" stroke="#000" d="M4.782 35.9363l1.3457-3.5712-1.3457 1.1744-1.3457-1.1744z"/><symbol id="a"><path d="M.305.313c.006.026.029.118.099.118.005 0 .029 0 .05-.013C.426.413.406.388.406.364c0-.016.011-.035.038-.035.022 0 .054.018.054.058 0 .052-.059.066-.093.066C.347.453.312.4.3.377.275.443.221.453.192.453.088.453.031.324.031.299c0-.01.01-.01.012-.01.008 0 .011.002.013.011.034.106.1.131.134.131.019 0 .054-.009.054-.067C.244.333.227.266.19.126.174.064.139.022.095.022c-.006 0-.029 0-.05.013C.07.04.092.061.092.089.092.116.07.124.055.124.025.124 0 .098 0 .066 0 .02.05 0 .094 0 .16 0 .196.07.199.076A.1104.1104 0 01.307 0c.103 0 .16.129.16.154 0 .01-.009.01-.012.01C.446.164.444.16.442.153.409.046.341.022.309.022.27.022.254.054.254.088c0 .022.006.044.017.088l.034.137z"/></symbol><use xlink:href="#a" transform="matrix(9.9626 0 0 -9.9626 36.24 7.7196)"/><symbol id="b"><path d="M.631.194c.015 0 .034 0 .034.02s-.019.02-.033.02H.033C.019.234 0 .234 0 .214s.019-.02.034-.02h.597M.632 0c.014 0 .033 0 .033.02S.646.04.631.04H.034C.019.04 0 .04 0 .02S.019 0 .033 0h.599z"/></symbol><use xlink:href="#b" transform="matrix(9.9626 0 0 -9.9626 52.489 34.31)"/><path stroke-width=".3985" stroke-miterlimit="10" fill="none" stroke="#000" d="M72.8142 11.129v45.355"/><path d="M72.8142 35.5069l1.3457-3.5712-1.3457 1.1743-1.3457-1.1743z"/><path stroke-width=".3985" stroke-miterlimit="10" fill="none" stroke="#000" d="M72.8142 35.5069l1.3457-3.5712-1.3457 1.1743-1.3457-1.1743z"/><use xlink:href="#a" transform="matrix(9.9626 0 0 -9.9626 70.255 7.7196)"/><path stroke-width=".3985" stroke-miterlimit="10" fill="none" stroke="#000" d="M155.447 56.484V25.3023c0-2.8344 0-14.1734-8.504-14.1734-8.5038 0-8.5038 11.339-8.5038 14.1734v17.0083c0 2.8348 0 14.1734-8.504 14.1734-8.5042 0-8.5042-11.3386-8.5042-14.1734V11.129"/><path d="M121.431 31.6767l-1.3457 3.5712 1.3457-1.1744 1.3457 1.1744z"/><path stroke-width=".3985" stroke-miterlimit="10" fill="none" stroke="#000" d="M121.431 31.6767l-1.3457 3.5712 1.3457-1.1744 1.3457 1.1744z"/><use xlink:href="#a" transform="matrix(9.9626 0 0 -9.9626 152.889 64.4026)"/><use xlink:href="#b" transform="matrix(9.9626 0 0 -9.9626 169.1389 34.309)"/><path stroke-width=".3985" stroke-miterlimit="10" fill="none" stroke="#000" d="M189.4632 56.484V11.129"/><path d="M189.4632 31.1988l-1.3458 3.5712 1.3458-1.1744 1.3457 1.1744z"/><path stroke-width=".3985" stroke-miterlimit="10" fill="none" stroke="#000" d="M189.4632 31.1988l-1.3458 3.5712 1.3458-1.1744 1.3457 1.1744z"/><use xlink:href="#a" transform="matrix(9.9626 0 0 -9.9626 186.9049 64.4026)"/></svg>