<svg xmlns="http://www.w3.org/2000/svg" xmlns:xlink="http://www.w3.org/1999/xlink" width="479.96" height="72.32pt" viewBox="0 0 359.97 72.32"><symbol id="a"><path d="M.333.078L.317.093C.317.092.279.045.235.045.212.045.187.06.17.07.143.086.125.093.108.093.07.093.051.071 0 .015L.016 0c0 .001.038.048.082.048.023 0 .048-.015.065-.025C.19.007.208 0 .225 0c.038 0 .057.022.108.078z"/></symbol><use xlink:href="#a" transform="matrix(9.9626 0 0 -9.9626 3.7149 36.2655)"/><symbol id="b"><path d="M.339.385C.311.384.291.362.291.34.291.326.3.311.322.311s.046.017.046.056c0 .045-.043.086-.119.086C.117.453.08.351.08.307.08.229.154.214.183.208.235.198.287.187.287.132c0-.026-.023-.11-.143-.11-.014 0-.091 0-.114.053C.068.07.093.1.093.128c0 .023-.016.035-.037.035C.03.163 0 .142 0 .097 0 .04.057 0 .143 0c.162 0 .201.121.201.166 0 .036-.019.061-.031.073-.027.028-.056.033-.1.042C.177.289.137.296.137.341c0 .029.024.09.112.09.025 0 .075-.007.09-.046z"/></symbol><use xlink:href="#b" transform="matrix(9.9626 0 0 -9.9626 3.009 42.1036)"/><symbol id="c"><path d="M.277.635c0 .016-.012.038-.04.038C.21.673.181.647.181.618.181.601.194.58.221.58.25.58.277.608.277.635M.073.127C.069.114.064.102.064.085.064.038.104 0 .159 0c.1 0 .144.138.144.153C.303.166.29.166.287.166.273.166.272.16.268.149.245.069.201.028.162.028c-.02 0-.025.013-.025.035 0 .023.007.042.016.064.01.027.021.054.032.08.009.024.045.115.049.127.003.01.006.022.006.032C.24.413.2.451.145.451.046.451 0 .315 0 .298 0 .285.014.285.017.285c.014 0 .015.005.018.016.026.086.07.122.107.122.016 0 .025-.008.025-.035C.167.365.161.35.136.288L.073.127z"/></symbol><symbol id="d"><path d="M.439.829c0 .017-.013.038-.04.038C.37.867.343.839.343.812c0-.016.012-.038.04-.038C.41.774.439.8.439.829M.227.155C.21.086.157.028.098.028.085.028.073.03.062.034.088.046.096.07.096.085c0 .024-.019.037-.039.037A.0587.0587 0 010 .063C0 .025.039 0 .099 0c.06 0 .177.036.208.158l.09.358C.4.527.402.536.402.551c0 .055-.047.094-.107.094C.184.645.12.506.12.492.12.479.134.479.137.479c.012 0 .013.003.02.018.025.058.077.12.135.12C.317.617.326.6.326.568.326.557.324.543.323.538L.227.155z"/></symbol><use xlink:href="#c" transform="matrix(6.9738 0 0 -6.9738 7.4888 43.5577)"/><use xlink:href="#d" transform="matrix(6.9738 0 0 -6.9738 9.9784 44.9107)"/><symbol id="e"><path d="M.631.194c.015 0 .034 0 .034.02s-.019.02-.033.02H.033C.019.234 0 .234 0 .214s.019-.02.034-.02h.597M.632 0c.014 0 .033 0 .033.02S.646.04.631.04H.034C.019.04 0 .04 0 .02S.019 0 .033 0h.599z"/></symbol><use xlink:href="#e" transform="matrix(9.9626 0 0 -9.9626 17.5029 40.669)"/><path stroke-width=".3985" stroke-miterlimit="10" fill="none" stroke="#000" d="M86.3106 39.1582c0-17.0083-14.1734-28.3468-28.3468-28.3468S29.617 22.1499 29.617 39.1582m34.016 0c0 17.0082 14.1735 28.3468 28.3469 28.3468s28.3468-11.3385 28.3468-28.3468"/><path d="M76.9646 16.4807c0-1.1005-.892-1.9926-1.9925-1.9926-1.1005 0-1.9926.8921-1.9926 1.9926 0 1.1004.892 1.9925 1.9926 1.9925 1.1004 0 1.9925-.892 1.9925-1.9925zm0 45.355c0-1.1004-.892-1.9925-1.9925-1.9925-1.1005 0-1.9926.892-1.9926 1.9925 0 1.1005.892 1.9926 1.9926 1.9926 1.1004 0 1.9925-.8921 1.9925-1.9926zm-1.9925 0" fill="#fff"/><path stroke-width=".3985" stroke-miterlimit="10" fill="none" stroke="#fff" d="M76.9646 16.4807c0-1.1005-.892-1.9926-1.9925-1.9926-1.1005 0-1.9926.8921-1.9926 1.9926 0 1.1004.892 1.9925 1.9926 1.9925 1.1004 0 1.9925-.892 1.9925-1.9925zm0 45.355c0-1.1004-.892-1.9925-1.9925-1.9925-1.1005 0-1.9926.892-1.9926 1.9925 0 1.1005.892 1.9926 1.9926 1.9926 1.1004 0 1.9925-.8921 1.9925-1.9926zm-1.9925 0"/><path stroke-width=".3985" stroke-miterlimit="10" fill="none" stroke="#000" d="M120.3267 39.1582c0-17.0083-14.1734-28.3468-28.3468-28.3468S63.633 22.1499 63.633 39.1582m-34.0161 0c0 17.0082 14.1734 28.3468 28.3468 28.3468s28.3468-11.3385 28.3468-28.3468"/><path d="M92.5467 10.8114l3.5712 1.3457-1.1744-1.3457 1.1744-1.3457z"/><path stroke-width=".3985" stroke-miterlimit="10" fill="none" stroke="#000" d="M92.5467 10.8114l3.5712 1.3457-1.1744-1.3457 1.1744-1.3457z"/><path d="M57.397 67.505l-3.5713-1.3457 1.1744 1.3457-1.1744 1.3457z"/><path stroke-width=".3985" stroke-miterlimit="10" fill="none" stroke="#000" d="M57.397 67.505l-3.5713-1.3457 1.1744 1.3457-1.1744 1.3457z"/><path d="M92.5467 10.8114l3.5712 1.3457-1.1744-1.3457 1.1744-1.3457z"/><path stroke-width=".3985" stroke-miterlimit="10" fill="none" stroke="#000" d="M92.5467 10.8114l3.5712 1.3457-1.1744-1.3457 1.1744-1.3457z"/><path d="M57.397 67.505l-3.5713-1.3457 1.1744 1.3457-1.1744 1.3457z"/><path stroke-width=".3985" stroke-miterlimit="10" fill="none" stroke="#000" d="M57.397 67.505l-3.5713-1.3457 1.1744 1.3457-1.1744 1.3457z"/><symbol id="f"><path d="M.305.313c.006.026.029.118.099.118.005 0 .029 0 .05-.013C.426.413.406.388.406.364c0-.016.011-.035.038-.035.022 0 .054.018.054.058 0 .052-.059.066-.093.066C.347.453.312.4.3.377.275.443.221.453.192.453.088.453.031.324.031.299c0-.01.01-.01.012-.01.008 0 .011.002.013.011.034.106.1.131.134.131.019 0 .054-.009.054-.067C.244.333.227.266.19.126.174.064.139.022.095.022c-.006 0-.029 0-.05.013C.07.04.092.061.092.089.092.116.07.124.055.124.025.124 0 .098 0 .066 0 .02.05 0 .094 0 .16 0 .196.07.199.076A.1104.1104 0 01.307 0c.103 0 .16.129.16.154 0 .01-.009.01-.012.01C.446.164.444.16.442.153.409.046.341.022.309.022.27.022.254.054.254.088c0 .022.006.044.017.088l.034.137z"/></symbol><use xlink:href="#f" transform="matrix(9.9626 0 0 -9.9626 31.07 67.6146)"/><use xlink:href="#c" transform="matrix(6.9738 0 0 -6.9738 36.8028 69.0697)"/><use xlink:href="#f" transform="matrix(9.9626 0 0 -9.9626 110 10.9206)"/><use xlink:href="#d" transform="matrix(6.9738 0 0 -6.9738 115.405 13.7287)"/><use xlink:href="#e" transform="matrix(9.9626 0 0 -9.9626 126.248 40.669)"/><path stroke-width=".3985" stroke-miterlimit="10" fill="none" stroke="#000" d="M179.324 47.6623c0 11.3386-5.6694 19.8427-17.0083 19.8427-11.3386 0-19.8427-8.5041-19.8427-28.3468s8.5041-28.3468 19.8427-28.3468c11.339 0 17.0082 8.5041 17.0082 19.8427"/><path d="M142.4868 37.6684l-1.456 3.5275 1.3815-1.132 1.3085 1.2157z"/><path stroke-width=".3985" stroke-miterlimit="10" fill="none" stroke="#000" d="M142.4868 37.6684l-1.456 3.5275 1.3815-1.132 1.3085 1.2157zm48.1757 9.9939c0 11.3386 5.6692 19.8427 17.0082 19.8427 11.3386 0 19.8427-8.5041 19.8427-28.3468s-8.5041-28.3468-19.8427-28.3468c-11.339 0-17.0082 8.5041-17.0082 19.8427"/><path d="M227.4995 37.6684l-1.234 3.6112 1.3085-1.2156 1.3815 1.132z"/><path stroke-width=".3985" stroke-miterlimit="10" fill="none" stroke="#000" d="M227.4995 37.6684l-1.234 3.6112 1.3085-1.2156 1.3815 1.132zM179.324 30.654v17.0083"/><path d="M179.324 41.1418l1.3456-3.5712-1.3457 1.1744-1.3457-1.1744z"/><path stroke-width=".3985" stroke-miterlimit="10" fill="none" stroke="#000" d="M179.324 41.1418l1.3456-3.5712-1.3457 1.1744-1.3457-1.1744zm11.3385-10.4878v17.0083"/><path d="M190.6625 41.1418l1.3457-3.5712-1.3457 1.1744-1.3458-1.1744z"/><path stroke-width=".3985" stroke-miterlimit="10" fill="none" stroke="#000" d="M190.6625 41.1418l1.3457-3.5712-1.3457 1.1744-1.3458-1.1744z"/><path d="M170.8198 30.654h28.3468V19.3156h-28.3468z" fill="#fff"/><path stroke-width=".3985" stroke-miterlimit="10" fill="none" stroke="#000" d="M170.8198 30.654h28.3468V19.3156h-28.3468z"/><symbol id="g"><path d="M.48.384c.013 0 .049 0 .049.034C.529.442.508.442.49.442H.262C.111.442 0 .277 0 .158 0 .07.059 0 .15 0c.118 0 .251.121.251.275 0 .017 0 .065-.031.109h.11M.151.022C.102.022.062.058.062.13c0 .03.012.112.047.171.042.069.102.083.136.083.084 0 .092-.066.092-.097C.337.24.317.158.283.107.244.048.19.022.151.022z"/></symbol><use xlink:href="#g" transform="matrix(6.47569 0 0 -6.47569 177.9035 25.1462)"/><symbol id="h"><path d="M.201.116C.191.082.158.028.107.028c-.003 0-.033 0-.054.014.041.013.044.049.044.055 0 .022-.017.037-.04.037A.0592.0592 0 010 .073C0 .023.056 0 .105 0c.046 0 .087.029.112.071C.241.018.296 0 .336 0c.115 0 .176.125.176.153 0 .013-.013.013-.016.013C.482.166.481.161.477.149.456.08.396.028.34.028.3.028.279.055.279.093c0 .026.024.117.052.228.02.077.065.102.098.102.002 0 .033 0 .054-.014A.059.059 0 01.439.354c0-.022.017-.037.04-.037s.056.019.056.061c0 .056-.064.073-.104.073C.381.451.341.418.319.38.301.421.255.451.199.451.087.451.023.328.023.298.023.285.037.285.04.285c.013 0 .014.004.019.017.025.078.088.121.137.121.033 0 .06-.018.06-.066 0-.02-.012-.07-.021-.104L.201.116z"/></symbol><use xlink:href="#h" transform="matrix(4.53297 0 0 -4.53297 181.5748 26.25)"/><symbol id="i"><path d="M.686.578C.693.591.694.596.694.6c0 .015-.013.028-.028.028C.65.628.645.618.638.606L.347.085.056.606C.049.618.044.628.028.628A.0286.0286 0 010 .6C0 .593.002.59.008.579L.319.022C.326.009.331 0 .347 0s.021.009.028.022l.311.556z"/></symbol><use xlink:href="#i" transform="matrix(3.23784 0 0 -3.23784 184.6987 24.7146)"/><symbol id="j"><path d="M.305.635c0 .024-.018.043-.044.043C.233.678.2.651.2.618.2.59.222.575.243.575c.033 0 .062.03.062.06m.047-.48c0 .014-.017.014-.021.014C.314.169.313.165.307.146.29.091.245.034.195.034c-.023 0-.03.016-.03.038 0 .021.005.032.013.051.008.02.016.04.021.054.004.009.043.102.057.138.008.02.014.033.014.05C.27.413.224.453.161.453.056.453 0 .325 0 .298 0 .284.016.284.021.284c.017 0 .018.005.023.02.022.071.07.115.113.115.019 0 .03-.011.03-.038 0-.004 0-.017-.006-.036C.174.327.129.22.115.186.108.169.108.167.093.133.088.119.082.105.082.088.082.036.131 0 .191 0c.105 0 .161.13.161.155z"/></symbol><use xlink:href="#j" transform="matrix(3.23784 0 0 -3.23784 184.5886 27.7177)"/><symbol id="k"><path d="M.099.209C.099.154.089.09.021.026.017.022.014.019.014.014.014.007.022 0 .028 0c.014 0 .099.08.099.199 0 .062-.024.109-.07.109A.0563.0563 0 010 .251C0 .219.023.193.058.193c.024 0 .04.016.041.016z"/></symbol><symbol id="l"><path d="M.509.581c.004.014.004.016.004.022 0 .02-.016.032-.033.032A.048.048 0 01.439.611C.436.605.428.573.423.553L.402.47C.396.446.365.32.362.309.361.309.317.222.239.222.171.222.171.287.171.305c0 .054.023.117.053.194.012.032.017.044.017.061C.241.608.2.645.146.645.045.645 0 .509 0 .492 0 .479.014.479.017.479c.014 0 .015.005.018.016.025.083.068.122.108.122C.16.617.168.606.168.582.168.559.159.537.154.524.106.402.096.365.096.321c0-.017 0-.064.039-.096.031-.026.073-.031.1-.031.04 0 .076.015.109.045C.331.184.32.142.278.092.251.061.211.028.158.028c-.007 0-.054 0-.075.033.054.006.054.054.054.055 0 .032-.029.038-.039.038C.073.154.04.134.04.088.04.037.088 0 .159 0 .26 0 .383.078.414.203l.095.378z"/></symbol><use xlink:href="#k" transform="matrix(4.53297 0 0 -4.53297 188.1836 27.0795)"/><use xlink:href="#l" transform="matrix(4.53297 0 0 -4.53297 189.4256 27.1294)"/><path d="M170.8198 59.0009h28.3468V47.6623h-28.3468z" fill="#fff"/><path stroke-width=".3985" stroke-miterlimit="10" fill="none" stroke="#000" d="M170.8198 59.0009h28.3468V47.6623h-28.3468z"/><use xlink:href="#g" transform="matrix(6.47569 0 0 -6.47569 177.9035 53.4932)"/><use xlink:href="#l" transform="matrix(4.53297 0 0 -4.53297 181.5703 55.4764)"/><use xlink:href="#k" transform="matrix(4.53297 0 0 -4.53297 184.6482 55.4265)"/><use xlink:href="#h" transform="matrix(4.53297 0 0 -4.53297 185.8948 54.597)"/><use xlink:href="#i" transform="matrix(3.23784 0 0 -3.23784 189.0257 53.0616)"/><use xlink:href="#j" transform="matrix(3.23784 0 0 -3.23784 188.9156 56.0647)"/><use xlink:href="#f" transform="matrix(9.9626 0 0 -9.9626 139.8159 10.9206)"/><symbol id="m"><path d="M.608.578c.007.013.007.015.007.018 0 .016-.013.025-.024.025C.577.621.571.613.563.597L.308.08.052.595C.043.614.039.621.024.621A.0245.0245 0 010 .596C0 .593 0 .591.007.578L.281.022C.287.011.293 0 .307 0c.014 0 .02.009.027.022l.274.556z"/></symbol><use xlink:href="#m" transform="matrix(6.9738 0 0 -6.9738 145.757 7.3355)"/><use xlink:href="#c" transform="matrix(6.9738 0 0 -6.9738 145.5478 13.4737)"/><use xlink:href="#f" transform="matrix(9.9626 0 0 -9.9626 222.8559 10.9206)"/><use xlink:href="#d" transform="matrix(6.9738 0 0 -6.9738 228.26 13.7287)"/><use xlink:href="#f" transform="matrix(9.9626 0 0 -9.9626 166.1629 42.1026)"/><use xlink:href="#d" transform="matrix(6.9738 0 0 -6.9738 171.567 44.9107)"/><use xlink:href="#f" transform="matrix(9.9626 0 0 -9.9626 196.5099 42.1026)"/><use xlink:href="#m" transform="matrix(6.9738 0 0 -6.9738 202.451 38.5175)"/><use xlink:href="#c" transform="matrix(6.9738 0 0 -6.9738 202.2418 44.6557)"/><use xlink:href="#e" transform="matrix(9.9626 0 0 -9.9626 239.104 40.669)"/><path stroke-width=".3985" stroke-miterlimit="10" fill="none" stroke="#000" d="M292.179 47.6623c0 11.3386-5.6693 19.8427-17.0083 19.8427-11.3386 0-19.8427-8.5041-19.8427-28.3468s8.5041-28.3468 19.8427-28.3468c11.339 0 17.0082 8.5041 17.0082 19.8427"/><path d="M255.3418 37.6684l-1.456 3.5275 1.3815-1.132 1.3085 1.2157z"/><path stroke-width=".3985" stroke-miterlimit="10" fill="none" stroke="#000" d="M255.3418 37.6684l-1.456 3.5275 1.3815-1.132 1.3085 1.2157zm59.5147 9.9939c0 11.3386 5.6692 19.8427 17.0078 19.8427 11.339 0 19.8427-8.5041 19.8427-28.3468s-8.5037-28.3468-19.8427-28.3468c-11.3386 0-17.0078 8.5041-17.0078 19.8427"/><path d="M351.693 37.6684l-1.234 3.6112 1.3086-1.2156 1.3815 1.132z"/><path stroke-width=".3985" stroke-miterlimit="10" fill="none" stroke="#000" d="M351.693 37.6684l-1.234 3.6112 1.3086-1.2156 1.3815 1.132zm-59.514-7.0144v17.0083"/><path d="M292.179 41.1418l1.3457-3.5712-1.3458 1.1744-1.3457-1.1744z"/><path stroke-width=".3985" stroke-miterlimit="10" fill="none" stroke="#000" d="M292.179 41.1418l1.3457-3.5712-1.3458 1.1744-1.3457-1.1744zm22.6775-10.4878v17.0083"/><path d="M314.8565 41.1418l1.3457-3.5712-1.3457 1.1744-1.3457-1.1744z"/><path stroke-width=".3985" stroke-miterlimit="10" fill="none" stroke="#000" d="M314.8565 41.1418l1.3457-3.5712-1.3457 1.1744-1.3457-1.1744z"/><path d="M283.6748 30.654h39.6854V19.3156h-39.6854z" fill="#fff"/><path stroke-width=".3985" stroke-miterlimit="10" fill="none" stroke="#000" d="M283.6748 30.654h39.6854V19.3156h-39.6854z"/><symbol id="n"><path d="M.413.511c0 .066-.018.205-.12.205C.154.716 0 .434 0 .205 0 .111.029 0 .12 0c.141 0 .293.287.293.511M.106.374c.017.064.037.144.077.215.027.049.064.105.109.105C.341.694.347.63.347.573c0-.049-.008-.1-.032-.199H.106m.2-.032C.295.296.274.211.236.139.201.071.163.022.12.022.087.022.066.051.066.144c0 .042.006.1.032.198h.208z"/></symbol><use xlink:href="#n" transform="matrix(6.47569 0 0 -6.47569 294.2472 26.0012)"/><use xlink:href="#h" transform="matrix(4.53297 0 0 -4.53297 297.2329 27.105)"/><use xlink:href="#i" transform="matrix(3.23784 0 0 -3.23784 300.3567 25.5696)"/><use xlink:href="#j" transform="matrix(3.23784 0 0 -3.23784 300.2466 28.5727)"/><symbol id="o"><path d="M.738.368c0 .205-.167.369-.369.369A.3698.3698 0 010 .369C0 .164.167 0 .369 0c.204 0 .369.167.369.368M.145.617c.041.037.118.086.224.086.106 0 .183-.049.224-.086L.369.393.145.617M.121.145C.066.202.034.286.034.368c0 .088.035.17.087.224L.345.369.121.145m.496.447C.672.535.704.451.704.369.704.281.669.199.617.145L.393.368l.224.224M.593.12A.3358.3358 0 00.369.034C.263.034.186.083.145.12l.224.224L.593.12z"/></symbol><use xlink:href="#o" transform="matrix(4.53297 0 0 -4.53297 303.6823 27.5945)"/><use xlink:href="#h" transform="matrix(4.53297 0 0 -4.53297 307.5984 27.105)"/><symbol id="p"><path d="M.473.829c0 .023-.017.043-.044.043-.031 0-.062-.03-.062-.06 0-.024.019-.043.044-.043.034 0 .062.032.062.06M.255.16C.236.084.173.034.112.034.095.034.084.037.076.039.1.053.107.079.107.092c0 .017-.012.041-.045.041C.028.133 0 .102 0 .069 0 .026.045 0 .113 0s.198.035.229.159l.09.358c.002.01.005.019.005.033 0 .057-.053.097-.123.097C.193.647.119.512.119.492.119.478.135.478.14.478c.015 0 .017.004.022.014C.208.59.276.613.31.613.35.613.352.577.352.56.352.546.351.542.349.534L.255.16z"/></symbol><use xlink:href="#p" transform="matrix(3.23784 0 0 -3.23784 310.4373 28.3708)"/><path d="M283.6748 59.0009h17.0082V47.6623h-17.0082z" fill="#fff"/><path stroke-width=".3985" stroke-miterlimit="10" fill="none" stroke="#000" d="M283.6748 59.0009h17.0082V47.6623h-17.0082z"/><use xlink:href="#n" transform="matrix(6.47569 0 0 -6.47569 287.3652 54.4272)"/><symbol id="q"><path d="M.636 0c.016 0 .04 0 .04.024 0 .025-.023.025-.04.025H.04c-.016 0-.04 0-.04-.024C0 0 .023 0 .04 0h.596z"/></symbol><use xlink:href="#q" transform="matrix(4.53297 0 0 -4.53297 290.8022 50.5612)"/><symbol id="r"><path d="M.226.636c0 .027-.002.028-.03.028C.132.601.041.6 0 .6V.564c.024 0 .09 0 .145.028v-.51c0-.033 0-.046-.1-.046H.007V0c.018.001.141.004.178.004C.216.004.342.001.364 0v.036H.326c-.1 0-.1.013-.1.046v.554z"/></symbol><use xlink:href="#r" transform="matrix(4.53297 0 0 -4.53297 294.8543 51.5856)"/><use xlink:href="#h" transform="matrix(4.53297 0 0 -4.53297 290.3508 56.567)"/><use xlink:href="#i" transform="matrix(3.23784 0 0 -3.23784 293.4747 55.0317)"/><use xlink:href="#j" transform="matrix(3.23784 0 0 -3.23784 293.3646 58.0348)"/><path d="M306.3523 59.0009h17.0083V47.6623h-17.0083z" fill="#fff"/><path stroke-width=".3985" stroke-miterlimit="10" fill="none" stroke="#000" d="M306.3523 59.0009h17.0083V47.6623h-17.0083z"/><use xlink:href="#n" transform="matrix(6.47569 0 0 -6.47569 310.0422 54.5992)"/><use xlink:href="#q" transform="matrix(4.53297 0 0 -4.53297 313.4792 51.1537)"/><use xlink:href="#r" transform="matrix(4.53297 0 0 -4.53297 317.5313 52.1782)"/><use xlink:href="#h" transform="matrix(4.53297 0 0 -4.53297 313.0278 56.1742)"/><use xlink:href="#p" transform="matrix(3.23784 0 0 -3.23784 315.8668 57.44)"/><use xlink:href="#f" transform="matrix(9.9626 0 0 -9.9626 252.671 10.9206)"/><use xlink:href="#m" transform="matrix(6.9738 0 0 -6.9738 258.613 7.3355)"/><use xlink:href="#c" transform="matrix(6.9738 0 0 -6.9738 258.4038 13.4737)"/><use xlink:href="#f" transform="matrix(9.9626 0 0 -9.9626 347.0499 10.9206)"/><use xlink:href="#d" transform="matrix(6.9738 0 0 -6.9738 352.455 13.7287)"/><use xlink:href="#f" transform="matrix(9.9626 0 0 -9.9626 275.348 42.1026)"/><use xlink:href="#m" transform="matrix(6.9738 0 0 -6.9738 281.29 38.5175)"/><use xlink:href="#c" transform="matrix(6.9738 0 0 -6.9738 281.0808 44.6557)"/><use xlink:href="#f" transform="matrix(9.9626 0 0 -9.9626 321.5379 42.1026)"/><use xlink:href="#d" transform="matrix(6.9738 0 0 -6.9738 326.943 44.9107)"/></svg>