<svg xmlns="http://www.w3.org/2000/svg" xmlns:xlink="http://www.w3.org/1999/xlink" width="313.115" height="108.473" viewBox="0 0 234.836 81.355"><path stroke-width=".399" stroke-miterlimit="10" fill="none" stroke="#000" d="M8.658 11.594v56.694"/><path d="M8.658 22.365l1.346-3.57-1.346 1.174-1.346-1.175z"/><path stroke-width=".399" stroke-miterlimit="10" fill="none" stroke="#000" d="M8.658 22.365l1.346-3.57-1.346 1.174-1.346-1.175z"/><path d="M8.658 62.05l1.346-3.57-1.346 1.174-1.346-1.174z"/><path stroke-width=".399" stroke-miterlimit="10" fill="none" stroke="#000" d="M8.658 62.05l1.346-3.57-1.346 1.174-1.346-1.174z"/><path d="M8.658 22.365l1.346-3.57-1.346 1.174-1.346-1.175z"/><path stroke-width=".399" stroke-miterlimit="10" fill="none" stroke="#000" d="M8.658 22.365l1.346-3.57-1.346 1.174-1.346-1.175z"/><path d="M8.658 62.05l1.346-3.57-1.346 1.174-1.346-1.174z"/><path stroke-width=".399" stroke-miterlimit="10" fill="none" stroke="#000" d="M8.658 62.05l1.346-3.57-1.346 1.174-1.346-1.174z"/><symbol id="a"><path d="M.305.313c.006.026.029.118.099.118.005 0 .029 0 .05-.013A.058.058 0 01.406.364c0-.016.011-.035.038-.035.022 0 .054.018.054.058 0 .052-.059.066-.093.066C.347.453.312.4.3.377a.11.11 0 01-.108.076C.088.453.031.324.031.299c0-.01.01-.01.012-.01.008 0 .011.002.013.011.034.106.1.131.134.131.019 0 .054-.009.054-.067C.244.333.227.266.19.126.174.064.139.022.095.022c-.006 0-.029 0-.05.013C.07.04.092.061.092.089.092.116.07.124.055.124A.057.057 0 010 .066C0 .02.05 0 .094 0 .16 0 .196.07.199.076A.11.11 0 01.307 0c.103 0 .16.129.16.154 0 .01-.009.01-.012.01C.446.164.444.16.442.153.409.046.341.022.309.022.27.022.254.054.254.088c0 .022.006.044.017.088l.034.137z"/></symbol><use xlink:href="#a" transform="matrix(9.9626 0 0 -9.9626 6.1 7.72)"/><symbol id="b"><path d="M.457.586a.063.063 0 01.004.023c0 .018-.014.027-.029.027A.043.043 0 01.397.615 1.87 1.87 0 01.363.481L.318.301C.314.286.271.216.205.216.154.216.143.26.143.297c0 .046.017.108.051.196.016.041.02.052.02.072a.08.08 0 01-.082.082C.037.647 0 .502 0 .493c0-.01.01-.01.012-.01.01 0 .011.002.016.018.027.094.067.124.101.124.008 0 .025 0 .025-.032 0-.025-.01-.051-.017-.07a.66.66 0 01-.058-.21c0-.089.063-.119.122-.119.039 0 .073.017.101.045C.289.187.277.138.237.085.211.051.173.022.127.022.113.022.068.025.051.064c.016 0 .029 0 .043.012.01.009.02.022.02.041 0 .031-.027.035-.037.035C.054.152.021.136.021.087.021.037.065 0 .127 0 .23 0 .333.091.361.204l.096.382z"/></symbol><use xlink:href="#b" transform="matrix(9.9626 0 0 -9.9626 6.326 78.14)"/><path stroke-width=".399" stroke-miterlimit="10" fill="none" stroke="#000" d="M31.336 11.594v56.694"/><path d="M31.336 22.365l1.345-3.57-1.345 1.174-1.346-1.175z"/><path stroke-width=".399" stroke-miterlimit="10" fill="none" stroke="#000" d="M31.336 22.365l1.345-3.57-1.345 1.174-1.346-1.175z"/><path d="M31.336 62.05l1.345-3.57-1.345 1.174-1.346-1.174z"/><path stroke-width=".399" stroke-miterlimit="10" fill="none" stroke="#000" d="M31.336 62.05l1.345-3.57-1.345 1.174-1.346-1.174z"/><path d="M31.336 22.365l1.345-3.57-1.345 1.174-1.346-1.175z"/><path stroke-width=".399" stroke-miterlimit="10" fill="none" stroke="#000" d="M31.336 22.365l1.345-3.57-1.345 1.174-1.346-1.175z"/><path d="M31.336 62.05l1.345-3.57-1.345 1.174-1.346-1.174z"/><path stroke-width=".399" stroke-miterlimit="10" fill="none" stroke="#000" d="M31.336 62.05l1.345-3.57-1.345 1.174-1.346-1.174z"/><use xlink:href="#b" transform="matrix(9.9626 0 0 -9.9626 29.003 9.652)"/><use xlink:href="#a" transform="matrix(9.9626 0 0 -9.9626 28.777 76.207)"/><path d="M2.988 49.143h34.017V29.3H2.988z" fill="#fff"/><path stroke-width=".399" stroke-miterlimit="10" fill="none" stroke="#000" d="M2.988 49.143h34.017V29.3H2.988z"/><symbol id="c"><path d="M.48.384c.013 0 .049 0 .049.034C.529.442.508.442.49.442H.262C.111.442 0 .277 0 .158 0 .07.059 0 .15 0c.118 0 .251.121.251.275 0 .017 0 .065-.031.109h.11M.151.022C.102.022.062.058.062.13c0 .03.012.112.047.171a.16.16 0 00.136.083C.329.384.337.318.337.287a.38.38 0 00-.054-.18C.244.048.19.022.151.022z"/></symbol><use xlink:href="#c" transform="matrix(9.9626 0 0 -9.9626 11.693 40.052)"/><symbol id="d"><path d="M.201.116C.191.082.158.028.107.028c-.003 0-.033 0-.054.014a.06.06 0 01.044.055c0 .022-.017.037-.04.037A.06.06 0 010 .073C0 .023.056 0 .105 0c.046 0 .087.029.112.071C.241.018.296 0 .336 0c.115 0 .176.125.176.153 0 .013-.013.013-.016.013C.482.166.481.161.477.149.456.08.396.028.34.028.3.028.279.055.279.093c0 .026.024.117.052.228.02.077.065.102.098.102.002 0 .033 0 .054-.014A.059.059 0 01.439.354c0-.022.017-.037.04-.037s.056.019.056.061c0 .056-.064.073-.104.073C.381.451.341.418.319.38a.128.128 0 01-.12.071C.087.451.023.328.023.298.023.285.037.285.04.285c.013 0 .014.004.019.017.025.078.088.121.137.121.033 0 .06-.018.06-.066 0-.02-.012-.07-.021-.104L.201.116z"/></symbol><symbol id="e"><path d="M.099.209A.231.231 0 00.021.026C.017.022.014.019.014.014.014.007.022 0 .028 0c.014 0 .099.08.099.199 0 .062-.024.109-.07.109A.056.056 0 010 .251C0 .219.023.193.058.193c.024 0 .04.016.041.016z"/></symbol><symbol id="f"><path d="M.509.581a.062.062 0 01.004.022c0 .02-.016.032-.033.032A.048.048 0 01.439.611C.436.605.428.573.423.553L.402.47.362.309C.361.309.317.222.239.222.171.222.171.287.171.305c0 .054.023.117.053.194.012.032.017.044.017.061C.241.608.2.645.146.645.045.645 0 .509 0 .492 0 .479.014.479.017.479c.014 0 .015.005.018.016.025.083.068.122.108.122C.16.617.168.606.168.582.168.559.159.537.154.524.106.402.096.365.096.321c0-.017 0-.064.039-.096a.158.158 0 01.1-.031c.04 0 .076.015.109.045A.309.309 0 00.278.092C.251.061.211.028.158.028c-.007 0-.054 0-.075.033a.056.056 0 01.054.055c0 .032-.029.038-.039.038C.073.154.04.134.04.088.04.037.088 0 .159 0 .26 0 .383.078.414.203l.095.378z"/></symbol><use xlink:href="#d" transform="matrix(6.9738 0 0 -6.9738 17.342 41.506)"/><use xlink:href="#e" transform="matrix(6.9738 0 0 -6.9738 22.307 42.782)"/><use xlink:href="#f" transform="matrix(6.9738 0 0 -6.9738 24.218 42.859)"/><symbol id="g"><path d="M.631.194c.015 0 .034 0 .034.02s-.019.02-.033.02H.033C.019.234 0 .234 0 .214s.019-.02.034-.02h.597M.632 0c.014 0 .033 0 .033.02S.646.04.631.04H.034C.019.04 0 .04 0 .02S.019 0 .033 0h.599z"/></symbol><use xlink:href="#g" transform="matrix(9.9626 0 0 -9.9626 47.86 40.444)"/><path stroke-width=".399" stroke-miterlimit="10" fill="none" stroke="#000" d="M65.352 11.594c0 28.347 22.677 28.347 22.677 56.694"/><path d="M67.975 26.349l-.145-3.813-.785 1.604-1.696-.56z"/><path stroke-width=".399" stroke-miterlimit="10" fill="none" stroke="#000" d="M67.975 26.349l-.145-3.813-.785 1.604-1.696-.56z"/><use xlink:href="#a" transform="matrix(9.9626 0 0 -9.9626 62.793 7.72)"/><path d="M78.683 39.941a1.993 1.993 0 10-3.985 0 1.993 1.993 0 003.985 0zm-1.993 0" fill="#fff"/><path stroke-width=".399" stroke-miterlimit="10" fill="none" stroke="#fff" d="M78.683 39.941a1.993 1.993 0 10-3.985 0 1.993 1.993 0 003.985 0zm-1.993 0"/><path stroke-width=".399" stroke-miterlimit="10" fill="none" stroke="#000" d="M88.03 11.594c0 28.347-22.678 28.347-22.678 56.694"/><path d="M85.405 26.349l2.626-2.769-1.695.56-.785-1.604z"/><path stroke-width=".399" stroke-miterlimit="10" fill="none" stroke="#000" d="M85.405 26.349l2.626-2.769-1.695.56-.785-1.604z"/><use xlink:href="#b" transform="matrix(9.9626 0 0 -9.9626 85.696 9.652)"/><path stroke-width=".399" stroke-miterlimit="10" fill="none" stroke="#000" d="M149.299 11.594v56.694"/><path d="M149.299 22.365l1.346-3.57-1.346 1.174-1.346-1.175z"/><path stroke-width=".399" stroke-miterlimit="10" fill="none" stroke="#000" d="M149.299 22.365l1.346-3.57-1.346 1.174-1.346-1.175z"/><path d="M149.299 62.05l1.346-3.57-1.346 1.174-1.346-1.174z"/><path stroke-width=".399" stroke-miterlimit="10" fill="none" stroke="#000" d="M149.299 62.05l1.346-3.57-1.346 1.174-1.346-1.174z"/><path d="M149.299 22.365l1.346-3.57-1.346 1.174-1.346-1.175z"/><path stroke-width=".399" stroke-miterlimit="10" fill="none" stroke="#000" d="M149.299 22.365l1.346-3.57-1.346 1.174-1.346-1.175z"/><path d="M149.299 62.05l1.346-3.57-1.346 1.174-1.346-1.174z"/><path stroke-width=".399" stroke-miterlimit="10" fill="none" stroke="#000" d="M149.299 62.05l1.346-3.57-1.346 1.174-1.346-1.174z"/><use xlink:href="#b" transform="matrix(9.9626 0 0 -9.9626 146.967 9.652)"/><use xlink:href="#a" transform="matrix(9.9626 0 0 -9.9626 146.74 76.207)"/><path stroke-width=".399" stroke-miterlimit="10" fill="none" stroke="#000" d="M171.977 11.594v56.694"/><path d="M171.977 22.365l1.345-3.57-1.345 1.174-1.346-1.175z"/><path stroke-width=".399" stroke-miterlimit="10" fill="none" stroke="#000" d="M171.977 22.365l1.345-3.57-1.345 1.174-1.346-1.175z"/><path d="M171.977 62.05l1.345-3.57-1.345 1.174-1.346-1.174z"/><path stroke-width=".399" stroke-miterlimit="10" fill="none" stroke="#000" d="M171.977 62.05l1.345-3.57-1.345 1.174-1.346-1.174z"/><path d="M171.977 22.365l1.345-3.57-1.345 1.174-1.346-1.175z"/><path stroke-width=".399" stroke-miterlimit="10" fill="none" stroke="#000" d="M171.977 22.365l1.345-3.57-1.345 1.174-1.346-1.175z"/><path d="M171.977 62.05l1.345-3.57-1.345 1.174-1.346-1.174z"/><path stroke-width=".399" stroke-miterlimit="10" fill="none" stroke="#000" d="M171.977 62.05l1.345-3.57-1.345 1.174-1.346-1.174z"/><use xlink:href="#a" transform="matrix(9.9626 0 0 -9.9626 169.418 7.72)"/><use xlink:href="#b" transform="matrix(9.9626 0 0 -9.9626 169.644 78.14)"/><path d="M143.63 47.717h34.016V27.875H143.63z" fill="#fff"/><path stroke-width=".399" stroke-miterlimit="10" fill="none" stroke="#000" d="M143.63 47.717h34.016V27.875H143.63z"/><use xlink:href="#c" transform="matrix(9.9626 0 0 -9.9626 152.333 40.052)"/><symbol id="h"><path d="M.636 0c.016 0 .04 0 .04.024 0 .025-.023.025-.04.025H.04c-.016 0-.04 0-.04-.024C0 0 .023 0 .04 0h.596z"/></symbol><use xlink:href="#h" transform="matrix(6.9738 0 0 -6.9738 158.758 34.75)"/><symbol id="i"><path d="M.226.636c0 .027-.002.028-.03.028C.132.601.041.6 0 .6V.564c.024 0 .09 0 .145.028v-.51c0-.033 0-.046-.1-.046H.007V0l.178.004L.364 0v.036H.326c-.1 0-.1.013-.1.046v.554z"/></symbol><use xlink:href="#i" transform="matrix(6.9738 0 0 -6.9738 164.991 36.326)"/><use xlink:href="#d" transform="matrix(6.9738 0 0 -6.9738 157.982 42.474)"/><use xlink:href="#e" transform="matrix(6.9738 0 0 -6.9738 162.947 43.75)"/><use xlink:href="#f" transform="matrix(6.9738 0 0 -6.9738 164.858 43.827)"/><use xlink:href="#g" transform="matrix(9.9626 0 0 -9.9626 188.502 40.444)"/><path stroke-width=".399" stroke-miterlimit="10" fill="none" stroke="#000" d="M228.67 11.594c0 28.347-22.677 28.347-22.677 56.694"/><path d="M226.047 26.349l2.625-2.769-1.695.56-.785-1.604z"/><path stroke-width=".399" stroke-miterlimit="10" fill="none" stroke="#000" d="M226.047 26.349l2.625-2.769-1.695.56-.785-1.604z"/><use xlink:href="#a" transform="matrix(9.9626 0 0 -9.9626 226.11 7.72)"/><path d="M219.324 39.941a1.993 1.993 0 10-3.985 0 1.993 1.993 0 003.985 0zm-1.993 0" fill="#fff"/><path stroke-width=".399" stroke-miterlimit="10" fill="none" stroke="#fff" d="M219.324 39.941a1.993 1.993 0 10-3.985 0 1.993 1.993 0 003.985 0zm-1.993 0"/><path stroke-width=".399" stroke-miterlimit="10" fill="none" stroke="#000" d="M205.993 11.594c0 28.347 22.677 28.347 22.677 56.694"/><path d="M208.616 26.349l-.145-3.813-.785 1.604-1.696-.56z"/><path stroke-width=".399" stroke-miterlimit="10" fill="none" stroke="#000" d="M208.616 26.349l-.145-3.813-.785 1.604-1.696-.56z"/><use xlink:href="#b" transform="matrix(9.9626 0 0 -9.9626 203.66 9.652)"/></svg>