<svg xmlns="http://www.w3.org/2000/svg" xmlns:xlink="http://www.w3.org/1999/xlink" width="268.4733" height="76.685pt" viewBox="0 0 201.355 76.685"><symbol id="a"><path d="M.154.411h.143v.031H.154v.184H.129C.128.544.098.437 0 .433V.411h.085V.135C.085.012.178 0 .214 0c.071 0 .099.071.099.135v.057H.288V.137C.288.063.258.025.221.025.154.025.154.116.154.133v.278z"/></symbol><symbol id="b"><path d="M.139.332v.11L0 .431V.4C.07.4.078.393.078.344V.076C.078.031.067.031 0 .031V0c.039.001.086.003.114.003.04 0 .087 0 .127-.003v.031H.22C.146.031.144.042.144.078v.154c0 .099.042.188.118.188.007 0 .009 0 .011-.001A.0433.0433 0 01.25.38C.25.352.271.337.293.337c.018 0 .043.012.043.044S.305.442.262.442C.189.442.153.375.139.332z"/></symbol><use xlink:href="#a" transform="matrix(9.9626 0 0 -9.9626 3.1783 38.7306)"/><use xlink:href="#b" transform="matrix(9.9626 0 0 -9.9626 7.1434 38.621)"/><symbol id="c"><path d="M.314.605H.4c.02 0 .03 0 .03.02C.43.636.42.636.403.636H.32L.341.75c.004.021.018.092.024.104.009.019.026.034.047.034.004 0 .03 0 .049-.018A.0553.0553 0 01.407.816c0-.023.018-.035.037-.035.026 0 .055.022.055.06C.499.887.453.91.412.91.378.91.315.892.285.793.279.772.276.762.252.636H.183c-.019 0-.03 0-.03-.019 0-.012.009-.012.028-.012h.066L.172.21C.154.113.137.022.085.022c-.004 0-.029 0-.048.018.046.003.055.039.055.054 0 .023-.018.035-.037.035C.029.129 0 .107 0 .069 0 .024.044 0 .085 0 .14 0 .18.059.198.097.23.16.253.281.254.288l.06.317z"/></symbol><use xlink:href="#c" transform="matrix(9.9626 0 0 -9.9626 12.954 40.6633)"/><symbol id="d"><path d="M.631.194c.015 0 .034 0 .034.02s-.019.02-.033.02H.033C.019.234 0 .234 0 .214s.019-.02.034-.02h.597M.632 0c.014 0 .033 0 .033.02S.646.04.631.04H.034C.019.04 0 .04 0 .02S.019 0 .033 0h.599z"/></symbol><use xlink:href="#d" transform="matrix(9.9626 0 0 -9.9626 21.701 37.296)"/><path stroke-width=".3985" stroke-miterlimit="10" fill="none" stroke="#000" d="M60.3642 71.22c17.0079 0 17.0079-17.0082 17.0079-22.6775V20.1957s0-17.0079-17.0079-17.0079c-17.0082 0-17.0082 17.0079-17.0082 17.0079v28.3468c0 5.6693 0 22.6775 17.0082 22.6775zM43.356 38.6214"/><path d="M77.372 34.1427l-1.3456 3.5712 1.3457-1.1744 1.3457 1.1744z"/><path stroke-width=".3985" stroke-miterlimit="10" fill="none" stroke="#000" d="M77.372 34.1427l-1.3456 3.5712 1.3457-1.1744 1.3457 1.1744z"/><symbol id="e"><path d="M.305.313c.006.026.029.118.099.118.005 0 .029 0 .05-.013C.426.413.406.388.406.364c0-.016.011-.035.038-.035.022 0 .054.018.054.058 0 .052-.059.066-.093.066C.347.453.312.4.3.377.275.443.221.453.192.453.088.453.031.324.031.299c0-.01.01-.01.012-.01.008 0 .011.002.013.011.034.106.1.131.134.131.019 0 .054-.009.054-.067C.244.333.227.266.19.126.174.064.139.022.095.022c-.006 0-.029 0-.05.013C.07.04.092.061.092.089.092.116.07.124.055.124.025.124 0 .098 0 .066 0 .02.05 0 .094 0 .16 0 .196.07.199.076A.1104.1104 0 01.307 0c.103 0 .16.129.16.154 0 .01-.009.01-.012.01C.446.164.444.16.442.153.409.046.341.022.309.022.27.022.254.054.254.088c0 .022.006.044.017.088l.034.137z"/></symbol><use xlink:href="#e" transform="matrix(9.9626 0 0 -9.9626 74.814 73.4736)"/><path d="M37.0604 43.8791h12.5912V28.3822H37.0604z" fill="#fff"/><path stroke-width=".3985" stroke-miterlimit="10" fill="none" stroke="#000" d="M37.0604 43.8791h12.5912V28.3822H37.0604z"/><use xlink:href="#c" transform="matrix(9.9626 0 0 -9.9626 40.909 40.6643)"/><symbol id="f"><path d="M.346.066V0l.147.011v.031c-.07 0-.078.007-.078.056v.607L.271.694V.663c.07 0 .078-.007.078-.056V.391a.1596.1596 0 01-.126.062C.105.453 0 .355 0 .226 0 .099.098 0 .212 0c.064 0 .109.034.134.066m0 .268V.129c0-.018 0-.02-.011-.037C.305.044.26.022.217.022.172.022.136.048.112.086.086.127.083.184.083.225c0 .037.002.097.031.142.021.031.059.064.113.064.035 0 .077-.015.108-.06C.346.354.346.352.346.334z"/></symbol><symbol id="g"><path d="M.144.442L.004.431V.4C.069.4.078.394.078.345V.076C.078.031.067.031 0 .031V0c.032.001.086.003.11.003C.145.003.18.001.214 0v.031c-.066 0-.07.005-.07.044v.367m.004.174a.052.052 0 01-.053.053.054.054 0 01-.053-.053c0-.027.022-.053.053-.053.028 0 .053.021.053.053z"/></symbol><symbol id="h"><path d="M.078.344V.076C.078.031.067.031 0 .031V0c.035.001.086.003.113.003C.139.003.191.001.225 0v.031c-.067 0-.078 0-.078.045V.26c0 .104.071.16.135.16C.345.42.356.366.356.309V.076C.356.031.345.031.278.031V0c.035.001.086.003.113.003C.417.003.469.001.503 0v.031c-.067 0-.078 0-.078.045V.26c0 .104.071.16.135.16C.623.42.634.366.634.309V.076C.634.031.623.031.556.031V0c.035.001.086.003.113.003C.695.003.747.001.781 0v.031c-.052 0-.077 0-.078.03v.191c0 .086 0 .117-.031.153C.658.422.625.442.567.442.483.442.439.382.422.344.408.431.334.442.289.442.216.442.169.399.141.337v.105L0 .431V.4C.07.4.078.393.078.344z"/></symbol><use xlink:href="#f" transform="matrix(9.9626 0 0 -9.9626 118.8667 38.7316)"/><use xlink:href="#g" transform="matrix(9.9626 0 0 -9.9626 124.396 38.622)"/><use xlink:href="#h" transform="matrix(9.9626 0 0 -9.9626 127.1556 38.622)"/><use xlink:href="#e" transform="matrix(9.9626 0 0 -9.9626 137.082 38.7316)"/><use xlink:href="#d" transform="matrix(9.9626 0 0 -9.9626 145.8119 37.297)"/><path stroke-width=".3985" stroke-miterlimit="10" fill="none" stroke="#000" d="M178.1802 71.22c17.0079 0 17.0079-17.0082 17.0079-22.6775V20.1957s0-17.0079-17.0079-17.0079c-17.0082 0-17.0082 17.0079-17.0082 17.0079v28.3468c0 5.6693 0 22.6775 17.0082 22.6775zm17.0079 0"/><path d="M195.188 34.1427l-1.3456 3.5712 1.3457-1.1744 1.3457 1.1744z"/><path stroke-width=".3985" stroke-miterlimit="10" fill="none" stroke="#000" d="M195.188 34.1427l-1.3456 3.5712 1.3457-1.1744 1.3457 1.1744z"/><use xlink:href="#e" transform="matrix(9.9626 0 0 -9.9626 192.63 73.4736)"/></svg>