<svg xmlns="http://www.w3.org/2000/svg" xmlns:xlink="http://www.w3.org/1999/xlink" width="499.76" height="71.02pt" viewBox="0 0 374.82 71.02"><symbol id="a"><path d="M.154.411h.143v.031H.154v.184H.129C.128.544.098.437 0 .433V.411h.085V.135C.085.012.178 0 .214 0c.071 0 .099.071.099.135v.057H.288V.137C.288.063.258.025.221.025.154.025.154.116.154.133v.278z"/></symbol><symbol id="b"><path d="M.139.332v.11L0 .431V.4C.07.4.078.393.078.344V.076C.078.031.067.031 0 .031V0c.039.001.086.003.114.003.04 0 .087 0 .127-.003v.031H.22C.146.031.144.042.144.078v.154c0 .099.042.188.118.188.007 0 .009 0 .011-.001A.0433.0433 0 01.25.38C.25.352.271.337.293.337c.018 0 .043.012.043.044S.305.442.262.442C.189.442.153.375.139.332z"/></symbol><use xlink:href="#a" transform="matrix(9.9626 0 0 -9.9626 3.1783 35.9006)"/><use xlink:href="#b" transform="matrix(9.9626 0 0 -9.9626 7.1334 35.791)"/><symbol id="c"><path d="M.595.263H.561C.55.165.535.036.346.036h-.1C.199.036.198.044.198.075v.526c0 .033 0 .046.094.046h.035v.036L.152.679 0 .683V.647h.024c.077 0 .079-.01.079-.045V.081C.103.047.101.036.024.036H0V0h.565l.03.263z"/></symbol><use xlink:href="#c" transform="matrix(6.9738 0 0 -6.9738 11.1555 37.286)"/><symbol id="d"><path d="M.314.605H.4c.02 0 .03 0 .03.02C.43.636.42.636.403.636H.32L.341.75c.004.021.018.092.024.104.009.019.026.034.047.034.004 0 .03 0 .049-.018A.0553.0553 0 01.407.816c0-.023.018-.035.037-.035.026 0 .055.022.055.06C.499.887.453.91.412.91.378.91.315.892.285.793.279.772.276.762.252.636H.183c-.019 0-.03 0-.03-.019 0-.012.009-.012.028-.012h.066L.172.21C.154.113.137.022.085.022c-.004 0-.029 0-.048.018.046.003.055.039.055.054 0 .023-.018.035-.037.035C.029.129 0 .107 0 .069 0 .024.044 0 .085 0 .14 0 .18.059.198.097.23.16.253.281.254.288l.06.317z"/></symbol><use xlink:href="#d" transform="matrix(9.9626 0 0 -9.9626 18.375 37.8333)"/><symbol id="e"><path d="M.631.194c.015 0 .034 0 .034.02s-.019.02-.033.02H.033C.019.234 0 .234 0 .214s.019-.02.034-.02h.597M.632 0c.014 0 .033 0 .033.02S.646.04.631.04H.034C.019.04 0 .04 0 .02S.019 0 .033 0h.599z"/></symbol><use xlink:href="#e" transform="matrix(9.9626 0 0 -9.9626 27.123 34.466)"/><path stroke-width=".3985" stroke-miterlimit="10" fill="none" stroke="#000" d="M54.2654 65.555c-14.1734 0-14.1734-14.1734-14.1734-22.6775V25.8697c0-8.5042 0-22.6776 14.1734-22.6776s14.1734 14.1734 14.1734 22.6776v17.0078c0 8.5041 0 22.6775-14.1734 22.6775zm14.1734-29.7642"/><path d="M40.092 31.808l-1.3457 3.5711 1.3457-1.1744 1.3457 1.1744z"/><path stroke-width=".3985" stroke-miterlimit="10" fill="none" stroke="#000" d="M40.092 31.808l-1.3457 3.5711 1.3457-1.1744 1.3457 1.1744z"/><symbol id="f"><path d="M.305.313c.006.026.029.118.099.118.005 0 .029 0 .05-.013C.426.413.406.388.406.364c0-.016.011-.035.038-.035.022 0 .054.018.054.058 0 .052-.059.066-.093.066C.347.453.312.4.3.377.275.443.221.453.192.453.088.453.031.324.031.299c0-.01.01-.01.012-.01.008 0 .011.002.013.011.034.106.1.131.134.131.019 0 .054-.009.054-.067C.244.333.227.266.19.126.174.064.139.022.095.022c-.006 0-.029 0-.05.013C.07.04.092.061.092.089.092.116.07.124.055.124.025.124 0 .098 0 .066 0 .02.05 0 .094 0 .16 0 .196.07.199.076A.1104.1104 0 01.307 0c.103 0 .16.129.16.154 0 .01-.009.01-.012.01C.446.164.444.16.442.153.409.046.341.022.309.022.27.022.254.054.254.088c0 .022.006.044.017.088l.034.137z"/></symbol><use xlink:href="#f" transform="matrix(9.9626 0 0 -9.9626 65.881 67.8096)"/><path d="M62.1432 41.0486h12.5912v-15.497H62.1432z" fill="#fff"/><path stroke-width=".3985" stroke-miterlimit="10" fill="none" stroke="#000" d="M62.1432 41.0486h12.5912v-15.497H62.1432z"/><use xlink:href="#d" transform="matrix(9.9626 0 0 -9.9626 65.992 37.8333)"/><use xlink:href="#a" transform="matrix(9.9626 0 0 -9.9626 91.7203 35.9006)"/><use xlink:href="#b" transform="matrix(9.9626 0 0 -9.9626 95.6754 35.791)"/><symbol id="g"><path d="M.759.111c0 .007 0 .019-.017.019C.727.13.726.121.725.111.72.053.687.028.656.028c-.057 0-.065.059-.077.15C.568.258.565.274.536.307.526.318.498.344.444.361c.09.021.18.08.18.161 0 .1-.132.181-.287.181H0V.667h.024c.077 0 .079-.01.079-.045V.101C.103.067.101.056.024.056H0V.02l.148.004L.297.02v.036H.273c-.077 0-.079.01-.079.045v.247h.133c.018 0 .07 0 .114-.041C.476.276.476.251.476.184c0-.065 0-.106.046-.144C.565.005.624 0 .652 0c.085 0 .107.081.107.111M.517.522C.517.41.43.376.324.376h-.13v.252c0 .028.001.035.027.038.008.001.042.001.063.001.096 0 .233 0 .233-.145z"/></symbol><use xlink:href="#g" transform="matrix(6.9738 0 0 -6.9738 99.7115 37.4255)"/><use xlink:href="#d" transform="matrix(9.9626 0 0 -9.9626 107.775 37.8333)"/><use xlink:href="#e" transform="matrix(9.9626 0 0 -9.9626 116.522 34.466)"/><path stroke-width=".3985" stroke-miterlimit="10" fill="none" stroke="#000" d="M148.3664 65.555c14.1734 0 14.1734-14.1734 14.1734-22.6775V25.8697c0-8.5042 0-22.6776-14.1734-22.6776S134.193 17.3655 134.193 25.8697v17.0078c0 8.5041 0 22.6775 14.1734 22.6775zM134.193 35.7908"/><path d="M162.5398 31.8078l-1.3457 3.5712 1.3457-1.1744 1.3457 1.1744z"/><path stroke-width=".3985" stroke-miterlimit="10" fill="none" stroke="#000" d="M162.5398 31.8078l-1.3457 3.5712 1.3457-1.1744 1.3457 1.1744z"/><use xlink:href="#f" transform="matrix(9.9626 0 0 -9.9626 159.9819 67.8096)"/><path d="M127.8974 41.0486h12.5912v-15.497h-12.5912z" fill="#fff"/><path stroke-width=".3985" stroke-miterlimit="10" fill="none" stroke="#000" d="M127.8974 41.0486h12.5912v-15.497h-12.5912z"/><use xlink:href="#d" transform="matrix(9.9626 0 0 -9.9626 131.746 37.8333)"/><symbol id="h"><path d="M.346.066V0l.147.011v.031c-.07 0-.078.007-.078.056v.607L.271.694V.663c.07 0 .078-.007.078-.056V.391a.1596.1596 0 01-.126.062C.105.453 0 .355 0 .226 0 .099.098 0 .212 0c.064 0 .109.034.134.066m0 .268V.129c0-.018 0-.02-.011-.037C.305.044.26.022.217.022.172.022.136.048.112.086.086.127.083.184.083.225c0 .037.002.097.031.142.021.031.059.064.113.064.035 0 .077-.015.108-.06C.346.354.346.352.346.334z"/></symbol><symbol id="i"><path d="M.144.442L.004.431V.4C.069.4.078.394.078.345V.076C.078.031.067.031 0 .031V0c.032.001.086.003.11.003C.145.003.18.001.214 0v.031c-.066 0-.07.005-.07.044v.367m.004.174a.052.052 0 01-.053.053.054.054 0 01-.053-.053c0-.027.022-.053.053-.053.028 0 .053.021.053.053z"/></symbol><symbol id="j"><path d="M.078.344V.076C.078.031.067.031 0 .031V0c.035.001.086.003.113.003C.139.003.191.001.225 0v.031c-.067 0-.078 0-.078.045V.26c0 .104.071.16.135.16C.345.42.356.366.356.309V.076C.356.031.345.031.278.031V0c.035.001.086.003.113.003C.417.003.469.001.503 0v.031c-.067 0-.078 0-.078.045V.26c0 .104.071.16.135.16C.623.42.634.366.634.309V.076C.634.031.623.031.556.031V0c.035.001.086.003.113.003C.695.003.747.001.781 0v.031c-.052 0-.077 0-.078.03v.191c0 .086 0 .117-.031.153C.658.422.625.442.567.442.483.442.439.382.422.344.408.431.334.442.289.442.216.442.169.399.141.337v.105L0 .431V.4C.07.4.078.393.078.344z"/></symbol><use xlink:href="#h" transform="matrix(9.9626 0 0 -9.9626 195.6057 35.9006)"/><use xlink:href="#i" transform="matrix(9.9626 0 0 -9.9626 201.125 35.791)"/><use xlink:href="#j" transform="matrix(9.9626 0 0 -9.9626 203.8747 35.791)"/><use xlink:href="#c" transform="matrix(6.9738 0 0 -6.9738 212.2615 37.286)"/><use xlink:href="#f" transform="matrix(9.9626 0 0 -9.9626 219.243 35.9006)"/><use xlink:href="#e" transform="matrix(9.9626 0 0 -9.9626 227.973 34.466)"/><path stroke-width=".3985" stroke-miterlimit="10" fill="none" stroke="#000" d="M255.1154 65.555c-14.1734 0-14.1734-14.1734-14.1734-22.6775V25.8697c0-8.5042 0-22.6776 14.1734-22.6776s14.1734 14.1734 14.1734 22.6776v17.0078c0 8.5041 0 22.6775-14.1734 22.6775zm14.1734 0"/><path d="M240.942 31.808l-1.3457 3.5711 1.3457-1.1744 1.3457 1.1744z"/><path stroke-width=".3985" stroke-miterlimit="10" fill="none" stroke="#000" d="M240.942 31.808l-1.3457 3.5711 1.3457-1.1744 1.3457 1.1744z"/><use xlink:href="#f" transform="matrix(9.9626 0 0 -9.9626 266.731 67.8096)"/><use xlink:href="#h" transform="matrix(9.9626 0 0 -9.9626 292.3927 35.9006)"/><use xlink:href="#i" transform="matrix(9.9626 0 0 -9.9626 297.912 35.791)"/><use xlink:href="#j" transform="matrix(9.9626 0 0 -9.9626 300.6617 35.791)"/><use xlink:href="#g" transform="matrix(6.9738 0 0 -6.9738 309.0625 37.4255)"/><use xlink:href="#f" transform="matrix(9.9626 0 0 -9.9626 316.887 35.9006)"/><use xlink:href="#e" transform="matrix(9.9626 0 0 -9.9626 325.6169 34.466)"/><path stroke-width=".3985" stroke-miterlimit="10" fill="none" stroke="#000" d="M351.1654 65.555c14.1734 0 14.1734-14.1734 14.1734-22.6775V25.8697c0-8.5042 0-22.6776-14.1734-22.6776S336.992 17.3655 336.992 25.8697v17.0078c0 8.5041 0 22.6775 14.1734 22.6775zm14.1734 0"/><path d="M365.3388 31.8078l-1.3457 3.5712 1.3457-1.1744 1.3457 1.1744z"/><path stroke-width=".3985" stroke-miterlimit="10" fill="none" stroke="#000" d="M365.3388 31.8078l-1.3457 3.5712 1.3457-1.1744 1.3457 1.1744z"/><use xlink:href="#f" transform="matrix(9.9626 0 0 -9.9626 362.7809 67.8096)"/></svg>