<svg xmlns="http://www.w3.org/2000/svg" xmlns:xlink="http://www.w3.org/1999/xlink" width="166.0213" height="120.388" viewBox="0 0 124.516 90.291"><path stroke-width=".3985" stroke-miterlimit="10" fill="none" stroke="#000" d="M51.522 11.1288v14.1735c0 19.8426-22.6775 19.8426-22.6775 39.6853 0 2.8349 0 14.1734 11.3386 14.1734"/><path d="M28.9168 67.4087l.9773-3.689-1.2199 1.3046-1.4576-1.032z"/><path stroke-width=".3985" stroke-miterlimit="10" fill="none" stroke="#000" d="M28.9168 67.4087l.9773-3.689-1.2199 1.3046-1.4576-1.032z"/><symbol id="a"><path d="M.305.313c.006.026.029.118.099.118.005 0 .029 0 .05-.013C.426.413.406.388.406.364c0-.016.011-.035.038-.035.022 0 .054.018.054.058 0 .052-.059.066-.093.066C.347.453.312.4.3.377.275.443.221.453.192.453.088.453.031.324.031.299c0-.01.01-.01.012-.01.008 0 .011.002.013.011.034.106.1.131.134.131.019 0 .054-.009.054-.067C.244.333.227.266.19.126.174.064.139.022.095.022c-.006 0-.029 0-.05.013C.07.04.092.061.092.089.092.116.07.124.055.124.025.124 0 .098 0 .066 0 .02.05 0 .094 0 .16 0 .196.07.199.076A.1104.1104 0 01.307 0c.103 0 .16.129.16.154 0 .01-.009.01-.012.01C.446.164.444.16.442.153.409.046.341.022.309.022.27.022.254.054.254.088c0 .022.006.044.017.088l.034.137z"/></symbol><use xlink:href="#a" transform="matrix(9.9626 0 0 -9.9626 48.964 7.7196)"/><path d="M42.1756 45.145c0-1.1005-.892-1.9926-1.9925-1.9926-1.1005 0-1.9926.892-1.9926 1.9925 0 1.1005.8921 1.9926 1.9926 1.9926 1.1004 0 1.9925-.8921 1.9925-1.9926zm-1.9925 0" fill="#fff"/><path stroke-width=".3985" stroke-miterlimit="10" fill="none" stroke="#fff" d="M42.1756 45.145c0-1.1005-.892-1.9926-1.9925-1.9926-1.1005 0-1.9926.892-1.9926 1.9925 0 1.1005.8921 1.9926 1.9926 1.9926 1.1004 0 1.9925-.8921 1.9925-1.9926zm-1.9925 0"/><path stroke-width=".3985" stroke-miterlimit="10" fill="none" stroke="#000" d="M40.183 79.161c11.339 0 11.339-11.3385 11.339-14.1734 0-19.8427-22.6775-19.8427-22.6775-39.6853 0-2.835 0-14.1735-11.339-14.1735-11.3385 0-11.3385 11.3386-11.3385 14.1735V79.161m68.0322-34.016"/><path d="M51.5162 64.1887l-1.1478 3.6394 1.2792-1.2463 1.408 1.0987z"/><path stroke-width=".3985" stroke-miterlimit="10" fill="none" stroke="#000" d="M51.5162 64.1887l-1.1478 3.6394 1.2792-1.2463 1.408 1.0987z"/><path d="M6.167 45.905l1.3457-3.5712-1.3457 1.1744-1.3457-1.1744z"/><path stroke-width=".3985" stroke-miterlimit="10" fill="none" stroke="#000" d="M6.167 45.905l1.3457-3.5712-1.3457 1.1744-1.3457-1.1744z"/><path d="M51.5162 64.1887l-1.1478 3.6394 1.2792-1.2463 1.408 1.0987z"/><path stroke-width=".3985" stroke-miterlimit="10" fill="none" stroke="#000" d="M51.5162 64.1887l-1.1478 3.6394 1.2792-1.2463 1.408 1.0987z"/><path d="M6.167 45.905l1.3457-3.5712-1.3457 1.1744-1.3457-1.1744z"/><path stroke-width=".3985" stroke-miterlimit="10" fill="none" stroke="#000" d="M6.167 45.905l1.3457-3.5712-1.3457 1.1744-1.3457-1.1744z"/><use xlink:href="#a" transform="matrix(9.9626 0 0 -9.9626 3.61 87.0796)"/><symbol id="b"><path d="M.631.194c.015 0 .034 0 .034.02s-.019.02-.033.02H.033C.019.234 0 .234 0 .214s.019-.02.034-.02h.597M.632 0c.014 0 .033 0 .033.02S.646.04.631.04H.034C.019.04 0 .04 0 .02S.019 0 .033 0h.599z"/></symbol><use xlink:href="#b" transform="matrix(9.9626 0 0 -9.9626 70.882 45.648)"/><path stroke-width=".3985" stroke-miterlimit="10" fill="none" stroke="#000" d="M96.8767 11.1288v17.0079c0 17.0082 5.6693 28.3468 15.5908 28.3468 5.6693 0 9.9216-4.2519 9.9216-11.3386"/><use xlink:href="#a" transform="matrix(9.9626 0 0 -9.9626 94.318 7.7196)"/><path d="M102.4166 45.145c0-1.6508-1.338-2.989-2.9888-2.989-1.6507 0-2.9888 1.3382-2.9888 2.989 0 1.6506 1.338 2.9887 2.9888 2.9887 1.6507 0 2.9888-1.338 2.9888-2.9888zm-2.9888 0" fill="#fff"/><path stroke-width=".3985" stroke-miterlimit="10" fill="none" stroke="#fff" d="M102.4166 45.145c0-1.6508-1.338-2.989-2.9888-2.989-1.6507 0-2.9888 1.3382-2.9888 2.989 0 1.6506 1.338 2.9887 2.9888 2.9887 1.6507 0 2.9888-1.338 2.9888-2.9888zm-2.9888 0"/><path stroke-width=".3985" stroke-miterlimit="10" fill="none" stroke="#000" d="M122.389 45.145c0-7.0868-4.2522-11.339-9.9215-11.339-9.9215 0-15.5908 11.339-15.5908 28.3468V79.161"/><path d="M122.3793 44.3166l-1.0434 3.6708 1.2431-1.2824 1.4389 1.058z"/><path stroke-width=".3985" stroke-miterlimit="10" fill="none" stroke="#000" d="M122.3793 44.3166l-1.0434 3.6708 1.2431-1.2824 1.4389 1.058z"/><use xlink:href="#a" transform="matrix(9.9626 0 0 -9.9626 94.318 87.0796)"/></svg>