<svg xmlns="http://www.w3.org/2000/svg" xmlns:xlink="http://www.w3.org/1999/xlink" width="175.187" height="147.811" viewBox="0 0 131.39 110.858"><path stroke-width=".399" stroke-miterlimit="10" fill="none" stroke="#000" d="M6.167 11.594c0 14.173 17.008 14.173 17.008 28.346 0 14.174 17.008 14.174 17.008 28.347v28.347"/><path d="M23.278 41.884l.765-3.739-1.143 1.372-1.514-.948z"/><path stroke-width=".399" stroke-miterlimit="10" fill="none" stroke="#000" d="M23.278 41.884l.765-3.739-1.143 1.372-1.514-.948z"/><path d="M40.183 68.858l1.346-3.571-1.346 1.174-1.346-1.174z"/><path stroke-width=".399" stroke-miterlimit="10" fill="none" stroke="#000" d="M40.183 68.858l1.346-3.571-1.346 1.174-1.346-1.174z"/><path d="M23.278 41.884l.765-3.739-1.143 1.372-1.514-.948z"/><path stroke-width=".399" stroke-miterlimit="10" fill="none" stroke="#000" d="M23.278 41.884l.765-3.739-1.143 1.372-1.514-.948z"/><path d="M40.183 68.858l1.346-3.571-1.346 1.174-1.346-1.174z"/><path stroke-width=".399" stroke-miterlimit="10" fill="none" stroke="#000" d="M40.183 68.858l1.346-3.571-1.346 1.174-1.346-1.174z"/><symbol id="a"><path d="M.305.313c.006.026.029.118.099.118.005 0 .029 0 .05-.013A.058.058 0 01.406.364c0-.016.011-.035.038-.035.022 0 .054.018.054.058 0 .052-.059.066-.093.066C.347.453.312.4.3.377a.11.11 0 01-.108.076C.088.453.031.324.031.299c0-.01.01-.01.012-.01.008 0 .011.002.013.011.034.106.1.131.134.131.019 0 .054-.009.054-.067C.244.333.227.266.19.126.174.064.139.022.095.022c-.006 0-.029 0-.05.013C.07.04.092.061.092.089.092.116.07.124.055.124A.057.057 0 010 .066C0 .02.05 0 .094 0 .16 0 .196.07.199.076A.11.11 0 01.307 0c.103 0 .16.129.16.154 0 .01-.009.01-.012.01C.446.164.444.16.442.153.409.046.341.022.309.022.27.022.254.054.254.088c0 .022.006.044.017.088l.034.137z"/></symbol><use xlink:href="#a" transform="matrix(9.9626 0 0 -9.9626 3.609 7.72)"/><use xlink:href="#a" transform="matrix(9.9626 0 0 -9.9626 37.625 105.71)"/><path d="M16.664 25.767a1.993 1.993 0 10-3.985 0 1.993 1.993 0 003.985 0zM33.67 54.114a1.993 1.993 0 10-3.985 0 1.993 1.993 0 003.985 0zm-1.992 0" fill="#fff"/><path stroke-width=".399" stroke-miterlimit="10" fill="none" stroke="#fff" d="M16.664 25.767a1.993 1.993 0 10-3.985 0 1.993 1.993 0 003.985 0zM33.67 54.114a1.993 1.993 0 10-3.985 0 1.993 1.993 0 003.985 0zm-1.992 0"/><path stroke-width=".399" stroke-miterlimit="10" fill="none" stroke="#000" d="M23.175 11.594c0 14.173-17.008 14.173-17.008 28.346v28.347c0 14.174 17.008 14.174 17.008 28.347"/><path d="M6.167 41.886l1.346-3.571-1.346 1.174-1.346-1.174z"/><path stroke-width=".399" stroke-miterlimit="10" fill="none" stroke="#000" d="M6.167 41.886l1.346-3.571-1.346 1.174-1.346-1.174z"/><path d="M6.176 69.095l1.046-3.67-1.244 1.281-1.438-1.059z"/><path stroke-width=".399" stroke-miterlimit="10" fill="none" stroke="#000" d="M6.176 69.095l1.046-3.67-1.244 1.281-1.438-1.059z"/><path d="M6.167 41.886l1.346-3.571-1.346 1.174-1.346-1.174z"/><path stroke-width=".399" stroke-miterlimit="10" fill="none" stroke="#000" d="M6.167 41.886l1.346-3.571-1.346 1.174-1.346-1.174z"/><path d="M6.176 69.095l1.046-3.67-1.244 1.281-1.438-1.059z"/><path stroke-width=".399" stroke-miterlimit="10" fill="none" stroke="#000" d="M6.176 69.095l1.046-3.67-1.244 1.281-1.438-1.059z"/><symbol id="b"><path d="M.457.586a.063.063 0 01.004.023c0 .018-.014.027-.029.027A.043.043 0 01.397.615 1.87 1.87 0 01.363.481L.318.301C.314.286.271.216.205.216.154.216.143.26.143.297c0 .046.017.108.051.196.016.041.02.052.02.072a.08.08 0 01-.082.082C.037.647 0 .502 0 .493c0-.01.01-.01.012-.01.01 0 .011.002.016.018.027.094.067.124.101.124.008 0 .025 0 .025-.032 0-.025-.01-.051-.017-.07a.66.66 0 01-.058-.21c0-.089.063-.119.122-.119.039 0 .073.017.101.045C.289.187.277.138.237.085.211.051.173.022.127.022.113.022.068.025.051.064c.016 0 .029 0 .043.012.01.009.02.022.02.041 0 .031-.027.035-.037.035C.054.152.021.136.021.087.021.037.065 0 .127 0 .23 0 .333.091.361.204l.096.382z"/></symbol><use xlink:href="#b" transform="matrix(9.9626 0 0 -9.9626 20.843 9.652)"/><use xlink:href="#b" transform="matrix(9.9626 0 0 -9.9626 20.843 107.642)"/><path d="M16.664 82.46a1.993 1.993 0 10-3.985 0 1.993 1.993 0 003.985 0zm-1.993 0" fill="#fff"/><path stroke-width=".399" stroke-miterlimit="10" fill="none" stroke="#fff" d="M16.664 82.46a1.993 1.993 0 10-3.985 0 1.993 1.993 0 003.985 0zm-1.993 0"/><path stroke-width=".399" stroke-miterlimit="10" fill="none" stroke="#000" d="M40.183 11.594V39.94c0 14.174-17.008 14.174-17.008 28.347 0 14.174-17.008 14.174-17.008 28.347"/><path d="M40.05 42.118l1.947-3.282-1.53.922-1.12-1.39z"/><path stroke-width=".399" stroke-miterlimit="10" fill="none" stroke="#000" d="M40.05 42.118l1.947-3.282-1.53.922-1.12-1.39z"/><path d="M23.166 69.095l1.636-3.448-1.438 1.06-1.244-1.282z"/><path stroke-width=".399" stroke-miterlimit="10" fill="none" stroke="#000" d="M23.166 69.095l1.636-3.448-1.438 1.06-1.244-1.282z"/><path d="M40.05 42.118l1.947-3.282-1.53.922-1.12-1.39z"/><path stroke-width=".399" stroke-miterlimit="10" fill="none" stroke="#000" d="M40.05 42.118l1.947-3.282-1.53.922-1.12-1.39z"/><path d="M23.166 69.095l1.636-3.448-1.438 1.06-1.244-1.282z"/><path stroke-width=".399" stroke-miterlimit="10" fill="none" stroke="#000" d="M23.166 69.095l1.636-3.448-1.438 1.06-1.244-1.282z"/><symbol id="c"><path d="M.09.094c.054.058.083.083.119.114 0 .001.062.054.098.09a.474.474 0 01.117.145c0 .01-.009.01-.011.01C.406.453.403.451.398.442.368.394.347.378.323.378S.287.393.272.41C.253.433.236.453.203.453.128.453.082.36.082.339c0-.005.003-.011.012-.011.009 0 .011.005.013.011.019.046.077.047.085.047.021 0 .04-.007.063-.015C.295.356.306.356.332.356A1.501 1.501 0 00.193.225L.103.141A.479.479 0 010 .01C0 0 .01 0 .012 0c.008 0 .01.002.016.013.023.035.053.062.085.062.023 0 .033-.009.058-.038C.188.016.206 0 .235 0c.099 0 .157.127.157.154 0 .005-.004.01-.012.01C.371.164.369.158.366.151a.13.13 0 00-.12-.084.185.185 0 00-.059.013.178.178 0 01-.07.017C.115.097.099.097.09.094z"/></symbol><use xlink:href="#c" transform="matrix(9.9626 0 0 -9.9626 38.075 7.72)"/><use xlink:href="#c" transform="matrix(9.9626 0 0 -9.9626 4.06 105.71)"/><symbol id="d"><path d="M.631.194c.015 0 .034 0 .034.02s-.019.02-.033.02H.033C.019.234 0 .234 0 .214s.019-.02.034-.02h.597M.632 0c.014 0 .033 0 .033.02S.646.04.631.04H.034C.019.04 0 .04 0 .02S.019 0 .033 0h.599z"/></symbol><use xlink:href="#d" transform="matrix(9.9626 0 0 -9.9626 62.379 54.617)"/><path stroke-width=".399" stroke-miterlimit="10" fill="none" stroke="#000" d="M91.207 11.594V39.94c0 14.174 17.009 14.174 17.009 28.347 0 14.174 17.008 14.174 17.008 28.347"/><path d="M91.34 42.118l.704-3.75-1.121 1.39-1.53-.922z"/><path stroke-width=".399" stroke-miterlimit="10" fill="none" stroke="#000" d="M91.34 42.118l.704-3.75-1.121 1.39-1.53-.922z"/><path d="M108.224 69.095l1.047-3.67-1.244 1.281-1.438-1.059z"/><path stroke-width=".399" stroke-miterlimit="10" fill="none" stroke="#000" d="M108.224 69.095l1.047-3.67-1.244 1.281-1.438-1.059z"/><path d="M91.34 42.118l.704-3.75-1.121 1.39-1.53-.922z"/><path stroke-width=".399" stroke-miterlimit="10" fill="none" stroke="#000" d="M91.34 42.118l.704-3.75-1.121 1.39-1.53-.922z"/><path d="M108.224 69.095l1.047-3.67-1.244 1.281-1.438-1.059z"/><path stroke-width=".399" stroke-miterlimit="10" fill="none" stroke="#000" d="M108.224 69.095l1.047-3.67-1.244 1.281-1.438-1.059z"/><use xlink:href="#a" transform="matrix(9.9626 0 0 -9.9626 88.649 7.72)"/><use xlink:href="#a" transform="matrix(9.9626 0 0 -9.9626 122.664 105.71)"/><path d="M101.704 54.114a1.993 1.993 0 10-3.985 0 1.993 1.993 0 003.985 0zm17.008 28.347a1.993 1.993 0 10-3.985 0 1.993 1.993 0 003.985 0zm-1.993 0" fill="#fff"/><path stroke-width=".399" stroke-miterlimit="10" fill="none" stroke="#fff" d="M101.704 54.114a1.993 1.993 0 10-3.985 0 1.993 1.993 0 003.985 0zm17.008 28.347a1.993 1.993 0 10-3.985 0 1.993 1.993 0 003.985 0zm-1.993 0"/><path stroke-width=".399" stroke-miterlimit="10" fill="none" stroke="#000" d="M108.216 11.594c0 14.173 17.008 14.173 17.008 28.346v28.347c0 14.174-17.008 14.174-17.008 28.347"/><path d="M125.224 41.886l1.345-3.571-1.346 1.174-1.345-1.174z"/><path stroke-width=".399" stroke-miterlimit="10" fill="none" stroke="#000" d="M125.224 41.886l1.345-3.571-1.346 1.174-1.345-1.174z"/><path d="M125.215 69.095l1.635-3.448-1.438 1.06-1.244-1.282z"/><path stroke-width=".399" stroke-miterlimit="10" fill="none" stroke="#000" d="M125.215 69.095l1.635-3.448-1.438 1.06-1.244-1.282z"/><path d="M125.224 41.886l1.345-3.571-1.346 1.174-1.345-1.174z"/><path stroke-width=".399" stroke-miterlimit="10" fill="none" stroke="#000" d="M125.224 41.886l1.345-3.571-1.346 1.174-1.345-1.174z"/><path d="M125.215 69.095l1.635-3.448-1.438 1.06-1.244-1.282z"/><path stroke-width=".399" stroke-miterlimit="10" fill="none" stroke="#000" d="M125.215 69.095l1.635-3.448-1.438 1.06-1.244-1.282z"/><use xlink:href="#b" transform="matrix(9.9626 0 0 -9.9626 105.883 9.652)"/><use xlink:href="#b" transform="matrix(9.9626 0 0 -9.9626 105.883 107.642)"/><path d="M118.712 25.767a1.993 1.993 0 10-3.985 0 1.993 1.993 0 003.985 0zm-1.993 0" fill="#fff"/><path stroke-width=".399" stroke-miterlimit="10" fill="none" stroke="#fff" d="M118.712 25.767a1.993 1.993 0 10-3.985 0 1.993 1.993 0 003.985 0zm-1.993 0"/><path stroke-width=".399" stroke-miterlimit="10" fill="none" stroke="#000" d="M125.224 11.594c0 14.173-17.008 14.173-17.008 28.346 0 14.174-17.009 14.174-17.009 28.347v28.347"/><path d="M108.113 41.884l1.892-3.315-1.514.948-1.144-1.372z"/><path stroke-width=".399" stroke-miterlimit="10" fill="none" stroke="#000" d="M108.113 41.884l1.892-3.315-1.514.948-1.144-1.372z"/><path d="M91.207 68.858l1.346-3.571-1.346 1.174-1.345-1.174z"/><path stroke-width=".399" stroke-miterlimit="10" fill="none" stroke="#000" d="M91.207 68.858l1.346-3.571-1.346 1.174-1.345-1.174z"/><path d="M108.113 41.884l1.892-3.315-1.514.948-1.144-1.372z"/><path stroke-width=".399" stroke-miterlimit="10" fill="none" stroke="#000" d="M108.113 41.884l1.892-3.315-1.514.948-1.144-1.372z"/><path d="M91.207 68.858l1.346-3.571-1.346 1.174-1.345-1.174z"/><path stroke-width=".399" stroke-miterlimit="10" fill="none" stroke="#000" d="M91.207 68.858l1.346-3.571-1.346 1.174-1.345-1.174z"/><use xlink:href="#c" transform="matrix(9.9626 0 0 -9.9626 123.115 7.72)"/><use xlink:href="#c" transform="matrix(9.9626 0 0 -9.9626 89.1 105.71)"/></svg>