<svg xmlns="http://www.w3.org/2000/svg" width="348.639" height="85.725" viewBox="0 -64.294 261.479 64.294"><path d="M18.265-52.173h-.16c-.03.15-.169.368-.368.368-.428 0-.996-.368-1.823-.368-1.574 0-2.221.936-2.221 1.743 0 .488.448 1.026.727 1.305.358.349.836.707 1.135 1.016.28.28.459.608.459.956 0 .648-.29 1.355-1.555 1.355-1.305 0-1.673-.877-1.703-1.664 0-.1-.01-.209-.01-.308h-.16l-.597 2.35h.16c.159-.268.298-.378.547-.378.758 0 1.066.379 2.003.379 1.564 0 2.43-.917 2.43-1.903 0-.867-.588-1.445-1.175-1.932-.558-.479-1.166-.897-1.166-1.584 0-.708.777-.967 1.206-.967 1.115 0 1.593.758 1.593 1.594 0 .08 0 .16-.01.24h.16l.528-2.202zm9.501 5.459v-.658h-5.867v.658h5.867zm0-1.993v-.657h-5.867v.657h5.867zm6.045 9.42c-.329 1.324-.587 2.2-1.235 2.2-.09 0-.15-.039-.15-.118.02-.12.23-.26.23-.499 0-.219-.19-.298-.379-.298-.388 0-.697.328-.697.757 0 .289.209.538.717.538 1.385 0 2.152-1.246 2.6-3.048l4.174-16.974c.319-1.296.607-2.202 1.255-2.202.09 0 .15.04.15.11-.02.139-.23.239-.23.508 0 .219.19.299.379.299.388 0 .707-.33.707-.748 0-.298-.21-.547-.727-.547-1.415 0-2.192 1.344-2.67 3.287l-4.124 16.735zM49-39.178c-1.334-1.644-2.68-4.284-2.68-8.826 0-4.562 1.346-7.49 2.68-8.866v-.328c-2.121 1.703-3.625 5.21-3.625 9.194 0 4.074 1.504 7.192 3.626 9.184v-.358zm7.602-18.225c.11-.02.2-.03.339-.03.627 0 1.245.17 1.245 1.245 0 .837-.578 1.414-1.903 1.414-.09 0-.189-.01-.318-.04l.637-2.59zm3.138 5.947c-.568-.05-.827-.468-1.016-.857l-1.146-2.281c1.066-.21 1.773-.877 1.773-1.704 0-.846-.557-1.504-2.151-1.504h-2.7l-.04.16h.2c.597 0 .767.16.767.368 0 .08-.03.17-.05.25l-1.235 4.95c-.09.339-.29.618-1.046.618h-.16l-.04.159h3.238l.04-.16h-.19c-.577 0-.757-.149-.757-.388a.9.9 0 01.03-.229l.618-2.38c.14.02.239.04.378.04.08 0 .19-.01.29-.02l1.493 3.137h1.684l.02-.16z"/><path d="M51.055-48.012h10.3" stroke="#000" fill="none" stroke-width=".657" stroke-miterlimit="10"/><path d="M55.776-39.91l-.14-.06c-.329.557-.538.667-.956.667h-2.331l1.643-1.753c.887-.937 1.276-1.684 1.276-2.47 0-.987-.718-1.754-1.843-1.754-1.225 0-1.863.817-2.072 1.982l.21.05c.398-.976.746-1.295 1.463-1.295.847 0 1.385.499 1.385 1.405 0 .847-.359 1.604-1.295 2.59l-1.773 1.882v.12h3.895l.538-1.365zm2.182-1.136l.498-1.873-1.604.269.02.15c.11-.02.2-.03.279-.03.229 0 .319.09.319.199v.09l-.937 3.695h.777l.568-2.182.897 1.524c.06.08.129.26.129.33 0 .169-.478.169-.578.169l-.01.159h2.341l.01-.16c-.607-.07-.767-.12-1.006-.518l-1.115-1.862 1.424-1.126c.1-.08.309-.209.518-.209.329 0 .299.269.598.269.298 0 .418-.18.418-.378 0-.22-.13-.409-.468-.409-.379 0-.648.09-1.255.538l-1.823 1.355zM71.1-47.71v-.658h-2.6v-2.6h-.658v2.6h-2.6v.657h2.6v2.6h.657v-2.6h2.6zm5.35 1.842c-.31.11-.658.14-1.046.14-.578 0-.867-.11-.867-.329 0-.21.478-.249.668-.249.308 0 .677.1 1.245.428v.01zm6.215-5.508c0 .677-.667 1.315-1.424 1.733-.339.19-.697.359-1.036.448.398-1.135 1.166-2.62 1.972-2.62.32 0 .488.17.488.439zm-2.809-.548c-.567-.378-1.215-.438-1.643-.438-1.425 0-2.54.786-2.54 1.823 0 1.424 1.524 1.912 2.759 1.912.17 0 .358-.01.528-.03-.648 1.205-1.504 2.212-2.032 2.55-.578-.219-1.126-.498-1.723-.498-.668 0-1.076.27-1.076.568 0 .389.438.608 1.255.608.578 0 1.076-.08 1.544-.24.398.15.876.3 1.633.3.967 0 1.923-.509 2.8-1.555l-.19-.14c-.817.917-1.683 1.386-2.64 1.386-.269 0-.637-.1-1.026-.23.857-.338 1.923-1.593 2.54-2.928 1.784-.478 3.029-1.654 3.029-2.53 0-.468-.24-.817-.827-.817-.807 0-1.773.866-2.271 1.624-.289.438-.518.946-.857 1.583a4.26 4.26 0 01-.627.05c-1.415 0-2.41-.567-2.41-1.574 0-1.026 1.165-1.563 2.21-1.563.35 0 .897 0 1.445.328l.12-.189zm9.028 8.895v-.142c-.545-.037-.657-.164-.657-.695v-3.271c0-.56.112-.688.65-.695v-.142H87.39l-1.65 3.75-1.726-3.75h-1.48v.142c.613.037.71.134.71.702v2.973c0 .837-.104.941-.724.986v.142h1.748v-.142c-.576-.03-.695-.164-.695-.986v-2.973l1.882 4.101h.105l1.905-4.273v3.354c0 .62-.082.74-.673.777v.142h2.092zm1.733-13.811c1.334 1.644 2.679 4.254 2.679 8.836 0 4.522-1.345 7.481-2.68 8.855v.33c2.122-1.704 3.627-5.2 3.627-9.185 0-4.074-1.505-7.202-3.626-9.194v.358zm16.174 2.665h-.537l-4.124 10.618h-.04l-2.032-5.339h-.19l-1.553 1.235.12.2c.218-.2.477-.31.647-.31.249 0 .448.14.617.589l2.013 5.279h.318l4.761-12.272z"/><path d="M106.445-53.848h11.727" stroke="#000" fill="none" stroke-width=".657" stroke-miterlimit="10"/><path d="M112.63-47.71v-.658h-5.548v.657h5.548zm4.115 2.878c0 .439-.359.897-1.265.897-.947 0-1.385-.498-1.385-.967 0-.268.22-.527.478-.717.08-.06.18-.11.26-.16.597.22 1.912.17 1.912.947zm-.13-4.164c0 .558-.249 1.574-.956 1.574-.438 0-.558-.348-.558-.806 0-.678.439-1.385.976-1.385.439 0 .538.249.538.617zm1.554-.637h-1.255c-.15-.15-.458-.279-.876-.279-1.056 0-1.734.787-1.734 1.574 0 .468.27.936.937 1.086v.04c-.479 0-.847.488-.847.866 0 .17.07.359.24.468-.618.2-1.166.498-1.166 1.076s.498 1.146 1.833 1.146c1.484 0 2.141-.797 2.141-1.504 0-1.246-2.32-.847-2.32-1.475 0-.249.288-.498.876-.577.876-.11 1.404-.728 1.404-1.475 0-.219-.04-.348-.169-.498h.807l.13-.448zm5.038 3.098c0 .07-.06.18-.15.279-.178.21-.428.319-.736.319-.837 0-1.375-.797-1.375-2.023 0-1.125.488-1.862 1.245-1.862.538 0 1.016.468 1.016.996v2.291zm1.504.598v-.16c-.169.01-.179.01-.229.01-.358 0-.438-.11-.438-.568v-5.647l-.05-.02c-.478.169-.827.268-1.464.438v.16c.08-.011.14-.011.22-.011.368 0 .457.1.457.508v1.554c-.378-.319-.647-.428-1.046-.428-1.145 0-2.072 1.125-2.072 2.54 0 1.275.737 2.142 1.843 2.142.558 0 .937-.2 1.275-.668v.638l.04.03 1.464-.518zm2.282-5.293H125.2l1.793-2.562v2.562zm1.352.478v-.478h-.769v-3.324h-.329l-2.345 3.324v.478h2.091v1.248h.583v-1.248h.77zm3.649 2.364l-.199-.548c-.12-.328-.309-.737-.747-.976l-1.315.329.03.179c.1-.04.249-.06.378-.06.548 0 .807.409.977.887l.328.916-.647 1.006c-.319.488-.578.588-.697.588-.25 0-.21-.2-.468-.2-.25 0-.38.21-.38.37 0 .219.16.468.519.468.558 0 .846-.429 1.165-.917l.628-.976.398 1.125c.13.36.32.768.727.768.578 0 1.027-.957 1.146-1.106l-.14-.1c-.208.429-.448.568-.607.568-.448 0-.677-1.345-.976-1.962l.548-.847c.139-.219.249-.378.547-.378.17 0 .22.09.439.09.259 0 .388-.23.388-.42 0-.208-.169-.328-.488-.328-.498 0-.847.438-1.105.837l-.449.687zm13.825.299c-1.206-.917-2.48-1.763-3.646-2.919l-.21.2c.24.278.499.557.748.816.14.15.219.21.219.409 0 .08-.08.219-.26.219h-4.88v.657h6.315c.33.19.588.429.588.668 0 .239-.259.448-.578.667h-6.325v.658h4.88c.18 0 .26.139.26.219 0 .16-.06.249-.23.418-.109.11-.497.528-.736.807l.209.2c1.165-1.156 2.42-2.003 3.646-2.92v-.099zm7.449-3.536c.11-.02.2-.03.34-.03.627 0 1.244.17 1.244 1.245 0 .837-.577 1.414-1.902 1.414-.09 0-.19-.01-.319-.04l.637-2.59zm3.138 5.947c-.567-.05-.827-.469-1.016-.857l-1.145-2.281c1.066-.21 1.773-.877 1.773-1.704 0-.846-.558-1.504-2.152-1.504h-2.7l-.039.16h.199c.598 0 .767.16.767.368 0 .08-.03.17-.05.25l-1.235 4.95c-.09.339-.289.618-1.046.618h-.16l-.04.159h3.238l.04-.16h-.189c-.578 0-.757-.149-.757-.388a.9.9 0 01.03-.229l.617-2.38c.14.02.24.04.379.04.08 0 .19-.01.289-.02l1.494 3.137h1.683l.02-.16zm4.262-.548h-.583l-.119.53c-.142.62-1.076 2.234-1.472 2.234-.299 0-.403-.135-.403-.336a.94.94 0 01.03-.202l.53-2.226h-.59l-.934 3.712c-.112.456-.231.703-.336.852h.553c.172-.194.224-.448.493-1.509.037.105.18.187.306.187.344 0 .725-.336 1.45-1.427-.143.575-.247 1.068-.247 1.277 0 .21.09.307.306.307.351 0 .867-.464.979-.792l-.112-.045c-.09.157-.254.359-.426.359-.09 0-.127-.045-.127-.105 0-.075.03-.172.06-.291l.642-2.525zm3.764-.134c-.254.91-.724 2.031-1.539 2.651l-.448-2.614c-.284.082-.426.149-.956.172v.119h.12c.179 0 .29.075.328.314l.463 2.756h.157a4.663 4.663 0 002.01-3.361l-.135-.038zm8.871-1.35v-.658h-5.548v.657h5.548zm7.973-3.587v-.15c-.747 0-.947-.179-.947-.607v-5.947l-.09-.03-1.782.907v.14l.269-.1c.18-.07.348-.12.448-.12.21 0 .299.15.299.488v4.473c0 .548-.21.757-.947.797v.149h2.75z"/><path d="M177.352-48.012h4.98" stroke="#000" fill="none" stroke-width=".657" stroke-miterlimit="10"/><path d="M182.073-39.91l-.14-.06c-.329.557-.538.667-.956.667h-2.331l1.643-1.753c.887-.937 1.276-1.684 1.276-2.47 0-.987-.718-1.754-1.843-1.754-1.225 0-1.863.817-2.072 1.982l.21.05c.398-.976.746-1.295 1.463-1.295.847 0 1.385.499 1.385 1.405 0 .847-.359 1.604-1.295 2.59l-1.773 1.882v.12h3.895l.538-1.365zm4.932-4.922c0 .439-.36.897-1.266.897-.946 0-1.384-.498-1.384-.967 0-.268.219-.527.478-.717.08-.06.18-.11.26-.16.597.22 1.912.17 1.912.947zm-.13-4.164c0 .558-.25 1.574-.956 1.574-.439 0-.558-.348-.558-.806 0-.678.438-1.385.976-1.385.438 0 .538.249.538.617zm1.554-.637h-1.255c-.15-.15-.459-.279-.877-.279-1.056 0-1.733.787-1.733 1.574 0 .468.269.936.936 1.086v.04c-.478 0-.846.488-.846.866 0 .17.07.359.239.468-.618.2-1.166.498-1.166 1.076s.498 1.146 1.833 1.146c1.484 0 2.142-.797 2.142-1.504 0-1.246-2.321-.847-2.321-1.475 0-.249.289-.498.876-.577.877-.11 1.405-.728 1.405-1.475 0-.219-.04-.348-.17-.498h.808l.129-.448zm4.101 3.407h-.583l-.119.53c-.142.62-1.076 2.234-1.472 2.234-.299 0-.403-.135-.403-.336a.94.94 0 01.03-.202l.53-2.226h-.59l-.934 3.712c-.112.456-.231.703-.336.852h.553c.172-.194.224-.448.493-1.509.037.105.18.187.306.187.344 0 .725-.336 1.45-1.427-.143.575-.247 1.068-.247 1.277 0 .21.09.307.306.307.351 0 .867-.464.979-.792l-.112-.045c-.09.157-.254.359-.426.359-.09 0-.127-.045-.127-.105 0-.075.03-.172.06-.291l.642-2.525zm3.764-.134c-.254.91-.724 2.031-1.539 2.651l-.448-2.614c-.284.082-.426.149-.956.172v.119h.12c.179 0 .29.075.328.314l.463 2.756h.157a4.663 4.663 0 002.01-3.361l-.135-.038zm4.556-5.265c.11-.02.2-.03.339-.03.627 0 1.245.17 1.245 1.245 0 .837-.578 1.414-1.903 1.414-.09 0-.19-.01-.318-.04l.637-2.59zm3.138 5.947c-.568-.05-.827-.469-1.016-.857l-1.146-2.281c1.066-.21 1.773-.877 1.773-1.704 0-.846-.557-1.504-2.151-1.504h-2.7l-.04.16h.2c.597 0 .767.16.767.368 0 .08-.03.17-.05.25l-1.235 4.95c-.09.339-.29.618-1.046.618h-.16l-.04.159h3.238l.04-.16h-.19c-.577 0-.757-.149-.757-.388a.9.9 0 01.03-.229l.618-2.38c.14.02.239.04.378.04.08 0 .19-.01.29-.02l1.493 3.137h1.684l.02-.16zm9.254-1.036v-.658h-5.867v.658h5.867zm0-1.993v-.657h-5.867v.657h5.867zm7.149-5.299c.678.458.977.856.977 1.474 0 .647-.449 1.096-1.096 1.096-.757 0-1.265-.518-1.265-1.435 0-.647.209-1.056.797-1.534l.587.399zm.837-2.6c0 .617-.259 1.036-.936 1.434-.877-.518-1.245-.976-1.245-1.594s.428-.986 1.095-.986c.678 0 1.086.458 1.086 1.146zm.897 3.765c0-.797-.319-1.335-1.544-2.152.986-.527 1.334-.866 1.334-1.613 0-.777-.687-1.425-1.673-1.425-1.106 0-1.933.598-1.933 1.554 0 .647.21 1.026 1.236 1.873-1.066.747-1.295 1.135-1.295 1.823 0 .936.787 1.623 1.912 1.623 1.196 0 1.963-.657 1.963-1.683zm5.2.18c-.13.547-.398.637-.617.637-.3 0-.429-.24-.489-.488-.06-.25-.06-.618-.06-.957 0-.597.06-1.195.1-1.474h1.186v-.837h-2.85c-1.055 0-1.493.459-1.832 1.405h.16c.348-.508.726-.568 1.294-.568-.12 2.58-.538 2.79-.946 2.919-.14.04-.23.12-.23.229 0 .349.2.637.668.637 1.056 0 .927-3.008.966-3.785h.927c-.07.698-.16 1.664-.16 2.53 0 .648.35 1.216.917 1.216.707 0 1.115-.827 1.115-1.465h-.149zm7.651-1.913h-3.118l-.04.16h.19c.607 0 .747.149.747.368 0 .07-.01.169-.03.249l-.568 2.002c-.27.17-.558.249-.966.249-1.465 0-1.803-.966-1.803-1.783 0-1.783.886-4.254 3.167-4.254 1.126 0 1.594.807 1.594 1.534 0 .11-.01.22-.02.32h.16l.448-2.222h-.16c-.03.16-.209.368-.428.368s-.408-.149-.627-.209c-.22-.07-.538-.16-1.026-.16-2.52 0-4.333 2.152-4.333 4.244 0 1.784 1.344 2.53 2.908 2.53.628 0 1.375 0 2.162-.468l.617-2.151c.1-.359.28-.618 1.126-.618v-.16z"/><path d="M217.691-48.012h17.286" stroke="#000" fill="none" stroke-width=".657" stroke-miterlimit="10"/><path d="M225.562-39.024c-.349.34-.807.668-1.414.668-.449 0-.937-.22-.937-1.086 0-.797.568-2.58 1.753-2.58.24 0 .339.09.339.21 0 .218-.289.338-.289.577 0 .17.12.379.379.379.378 0 .537-.32.537-.698 0-.488-.468-.757-.966-.757-1.414 0-2.62 1.564-2.62 2.959 0 .767.399 1.544 1.365 1.544.847 0 1.464-.488 1.972-1.086l-.12-.13zm3.198-3.36h-1.793l1.793-2.562v2.562zm1.352.479v-.479h-.769v-3.324h-.329l-2.345 3.324v.479h2.091v1.247h.583v-1.247h.77zm12.735-10.119h-5.967l-.458 1.783h.16c.179-.806.876-1.414 1.703-1.414h.906l-1.325 5.36c-.08.338-.279.617-1.056.617h-.179l-.04.159h3.278l.04-.16h-.21c-.597 0-.757-.159-.757-.368 0-.09.03-.16.05-.249l1.325-5.36h.976c.408 0 .986.05.986.708 0 .269-.03.538-.05.707h.16l.458-1.783zm2.906 5.798h-.583l-.119.53c-.142.62-1.076 2.234-1.472 2.234-.299 0-.403-.135-.403-.336a.94.94 0 01.03-.202l.53-2.226h-.59l-.934 3.712c-.112.456-.231.703-.336.852h.553c.172-.194.224-.448.493-1.509.037.105.18.187.306.187.344 0 .725-.336 1.45-1.427-.143.575-.247 1.068-.247 1.277 0 .21.09.307.306.307.351 0 .867-.464.979-.792l-.112-.045c-.09.157-.254.359-.426.359-.09 0-.127-.045-.127-.105 0-.075.03-.172.06-.291l.642-2.525zm3.764-.134c-.254.91-.724 2.031-1.539 2.651l-.448-2.614c-.284.082-.426.149-.956.172v.119h.12c.179 0 .29.075.328.314l.463 2.756h.157a4.663 4.663 0 002.01-3.361l-.135-.038zM10.998-19.59h-.22c-.06.229-.318.368-.497.368-.32 0-.887-.398-1.784-.398-1.643 0-2.36.786-2.36 1.683 0 1.136 1.305 1.813 1.932 2.44.26.26.428.718.428 1.126 0 .648-.408 1.186-1.344 1.186-1.166 0-1.793-.768-1.793-1.624v-.349h-.24l-.587 2.44h.219a.885.885 0 01.677-.388c.12 0 .35.07.409.09.438.179.916.319 1.564.319 1.623 0 2.56-.997 2.56-1.913 0-.886-.588-1.584-1.255-2.092-.578-.438-1.126-.876-1.126-1.613 0-.628.637-.837.996-.837.956 0 1.654.588 1.684 1.245.01.17.01.289.01.498h.229l.498-2.181zm9.951 5.727v-.877h-6.116v.877h6.116zm0-2.032v-.876h-6.116v.876h6.116zm6.512 9.3c-.309 1.235-.657 2.092-1.086 2.092-.15 0-.229-.08-.229-.19 0-.16.349-.259.349-.617 0-.349-.23-.578-.578-.578-.617 0-.956.508-.956.986 0 .498.359.917 1.086.917.777 0 1.374-.359 1.813-.807.537-.548.826-1.146 1.025-1.933l4.324-17.273c.308-1.225.657-2.071 1.076-2.071.149 0 .229.07.229.189 0 .16-.35.259-.35.617 0 .369.25.578.589.578.617 0 .966-.488.966-.966 0-.518-.359-.936-1.086-.936-.777 0-1.404.358-1.833.816a4.132 4.132 0 00-1.026 1.903L27.461-6.595zm16.017-.11c-1.325-1.624-2.67-4.064-2.67-8.586 0-4.523 1.345-7.222 2.67-8.577v-.608c-2.51 2.012-4.004 5.24-4.004 9.185 0 3.944 1.494 6.833 4.004 9.194v-.608zM50.695-22.2l.568-2.59h.16c.09 0 .179.01.338.04.339.079.717.318.717 1.135 0 .777-.378 1.414-1.384 1.414h-.399zm4.035 3.396c-.767 0-1.066-.378-1.295-.837l-1.146-2.3c1.066-.27 1.714-.947 1.714-1.754 0-.827-.618-1.544-2.341-1.544h-2.83l-.04.229h.37c.428 0 .587.12.587.349 0 .08-.02.17-.04.269l-1.136 4.98c-.089.389-.189.608-.836.608h-.359l-.04.229h3.586l.04-.229h-.388c-.448 0-.538-.1-.558-.369 0-.08.01-.169.02-.219l.548-2.36c.259.01.299.02.348.02l1.534 3.157h2.222l.04-.229z"/><path d="M45.629-15.29H56.19" stroke="#000" fill="none" stroke-width=".657" stroke-miterlimit="10"/><path d="M50.392-7.926h-.25c-.259.717-.488.777-1.524.777h-1.394l1.613-1.534c.787-.747 1.136-1.414 1.136-2.171 0-1.126-.737-1.823-1.813-1.823-.996 0-1.753.637-2.221 2.032h.279c.309-.618.737-.897 1.215-.897.787 0 1.185.588 1.185 1.265 0 .439-.189.986-.508 1.475-.508.776-.856 1.195-2.31 2.749v.229h4.133l.459-2.102zm2.61-.827l.359-1.673-1.953.339.03.229c.11-.02.22-.03.319-.03.14 0 .259.02.259.17 0 .069-.01.159-.04.278l-.817 3.616h1.156l.418-1.803.598 1.066c.06.1.13.269.13.359 0 .129-.12.149-.28.149h-.289l-.05.229h2.68l.05-.23c-.518 0-.777-.079-1.026-.517L53.43-8.553l1.136-.927c.17-.14.398-.289.488-.289.358 0 .2.458.717.458.478 0 .588-.338.588-.617 0-.329-.259-.498-.678-.498-.537 0-1.055.398-1.394.667l-1.285 1.006zm13.421-6.126v-.876h-2.65v-2.65h-.876v2.65h-2.65v.876h2.65v2.65h.877v-2.65h2.65zm5.747 1.554c-.3.09-.608.15-.947.15-.428 0-.638-.09-.638-.29 0-.169.31-.219.439-.219.358 0 .737.08 1.145.35v.01zm4.302-3.347c.409-1.096 1.066-2.34 1.684-2.34a.32.32 0 01.328.338c0 .946-1.085 1.703-1.992 2.012l-.02-.01zm-.438-2.58c-.677-.428-1.424-.508-1.922-.508-1.604 0-2.86.837-2.86 1.913 0 1.484 1.694 1.992 3.089 1.992h.279c-.638 1.136-1.166 1.853-1.674 2.191-.538-.279-1.086-.567-1.833-.567-.398 0-.737.07-.996.209-.269.15-.438.368-.438.618 0 .229.16.468.438.607.249.13.598.17 1.076.17.667 0 1.156-.11 1.614-.25.398.14.856.29 1.673.29 1.096 0 2.162-.529 3.098-1.624l-.359-.35c-.916 1.017-1.902 1.405-2.769 1.405-.189 0-.438-.03-.777-.13v-.02c1.056-.527 1.933-1.493 2.53-2.709 1.784-.488 3.188-1.773 3.188-2.68 0-.497-.319-.866-1.096-.866-.966 0-2.032.887-2.57 1.664-.348.518-.547.906-.826 1.474-.19.02-.32.02-.439.02-1.325 0-2.3-.508-2.3-1.405 0-.936 1.035-1.404 2.001-1.404.31 0 .937 0 1.654.398l.22-.438zm10.453 8.945v-.187c-.598-.052-.658-.209-.658-.754v-3.197c0-.56.113-.688.658-.725v-.187h-1.883l-1.501 3.526-1.487-3.526h-1.89v.187c.546.045.665.15.665.553v3.503c0 .486-.097.56-.68.62v.187h1.748v-.187c-.612-.045-.754-.209-.754-.777v-3.473l1.883 4.437h.201l1.883-4.52v3.706c0 .44-.105.575-.665.627v.187h2.48zm1.538-13.561c1.325 1.355 2.67 4.054 2.67 8.577 0 4.522-1.345 6.962-2.67 8.586v.608c2.51-2.361 4.005-5.25 4.005-9.194 0-3.945-1.494-7.173-4.005-9.185v.608zm16.882 2.525h-.867l-3.985 9.97h-.01l-1.872-4.74h-.449l-1.643 1.264.23.349c.268-.26.507-.428.686-.428.17 0 .28.14.449.567l2.022 5.021h.647l4.792-12.003z"/><path d="M104.398-21.016h12.723" stroke="#000" fill="none" stroke-width=".657" stroke-miterlimit="10"/><path d="M111.223-14.879v-.876h-6.166v.876h6.166zm4.096 2.889c0 .458-.31.856-1.046.856-.807 0-1.166-.428-1.166-.916 0-.299.22-.627.379-.757l.169-.13c.22.06.598.14.767.17.518.11.897.289.897.777zm-.12-4.403c0 .598-.249 1.654-.757 1.654-.23 0-.349-.32-.349-.797 0-.708.379-1.465.787-1.465.22 0 .32.23.32.608zm1.923-.737l-1.315.04c-.13-.12-.519-.31-.977-.31-1.185 0-1.912.897-1.912 1.754 0 .418.249.927.926 1.146-.468.09-.787.498-.787.866 0 .18.07.389.22.508-.648.23-1.186.628-1.186 1.176 0 .538.558 1.175 2.002 1.175 1.604 0 2.281-.926 2.281-1.614 0-1.205-2.3-1.015-2.3-1.544 0-.259.239-.438.736-.488 1.017-.11 1.534-.886 1.534-1.633 0-.17-.03-.329-.129-.478h.767l.14-.598zm4.998 3.217c0 .05-.09.2-.19.33-.199.248-.428.368-.657.368-.528 0-.777-.598-.777-1.863 0-1.285.269-1.873.847-1.873.328 0 .627.24.776.618v2.42zm1.972.917v-.23c-.459-.03-.588-.159-.588-.577v-5.728h-2.142v.24c.668.049.757.119.757.577v1.823c-.428-.458-.727-.618-1.185-.618-1.096 0-1.912 1.066-1.912 2.51 0 1.365.756 2.341 1.802 2.341.529 0 .857-.159 1.325-.657v.647c.459-.129.708-.169 1.325-.249l.618-.08zm2.232-5.691h-1.554l1.554-2.196v2.196zm1.554.83v-.83h-.478v-3.234h-.598l-2.338 3.22v.843h1.852v1.076h1.084v-1.076h.478zm3.846 1.733l-.06-.19a1.911 1.911 0 00-.886-1.085l-1.524.498.08.239c.378-.15.448-.15.518-.15.388 0 .587.34.797.907l.328.906-.607.967c-.28.438-.379.588-.489.588-.179 0-.02-.449-.488-.449-.398 0-.597.26-.597.578 0 .319.279.598.777.598.657 0 1.036-.498 1.295-.937l.358-.617.29.747c.139.368.328.807.916.807.617 0 .976-.638 1.185-1.445h-.239c-.21.628-.378.678-.548.678-.2 0-.259-.349-.329-.538l-.488-1.375.468-.787c.18-.299.24-.398.379-.398.14 0 .1.338.398.338.568 0 .618-.438.618-.657 0-.23-.249-.498-.717-.498-.568 0-.996.598-1.215.936l-.22.339zm14.405.757c-1.116-.717-2.52-1.843-3.775-3.108l-.24.22c.26.378.668.856.768.985.06.07.16.19.16.29 0 .189-.24.209-.46.209h-4.83v.876h6.554c.26.07.429.339.429.578s-.17.518-.429.578h-6.554v.876h4.811c.299 0 .478.06.478.21 0 .129-.1.258-.16.328-.228.259-.487.568-.776.966l.249.2c1.235-1.315 2.66-2.361 3.775-3.108v-.1zm7.221-1.056l.567-2.59h.16c.09 0 .18.01.339.04.338.08.717.319.717 1.136 0 .777-.379 1.414-1.385 1.414h-.398zm4.034 3.397c-.767 0-1.066-.378-1.295-.837l-1.146-2.3c1.066-.27 1.714-.947 1.714-1.754 0-.827-.618-1.544-2.341-1.544h-2.83l-.039.229h.369c.428 0 .587.12.587.349 0 .08-.02.17-.04.268l-1.135 4.981c-.09.389-.19.608-.837.608h-.358l-.04.229h3.586l.04-.23h-.389c-.448 0-.538-.099-.558-.368 0-.08.01-.169.02-.219l.548-2.36c.26.01.3.02.349.02l1.534 3.157h2.221l.04-.23zm4.533 2.099c-.104.157-.261.35-.396.35-.104 0-.142-.096-.142-.23 0-.105.023-.21.053-.33l.59-2.524h-.83l-.156.612c-.262 1.031-.874 2.197-1.39 2.197-.216 0-.291-.06-.299-.277a.72.72 0 01.023-.171l.553-2.361h-.844l-.912 3.855c-.12.492-.254.859-.358 1.03h.769c.18-.276.269-.732.523-1.718h.015c.09.142.194.202.41.202.36 0 .793-.411 1.01-.822l.022.008c-.053.164-.12.388-.12.582 0 .224.112.456.426.456.575 0 .926-.277 1.202-.77l-.149-.089zm4.207-2.78c-.224.487-.605 1.263-1.696 2.324h-.007l-.337-2.353c-.59.21-1.03.24-1.359.254l.015.172c.291 0 .538.045.568.254l.433 2.824h.388c.927-.994 1.845-2.07 2.174-3.422l-.18-.052zm9.544-1.172v-.876h-6.166v.876h6.166zm8.451-3.696v-.239c-.906-.02-1.066-.18-1.066-.936v-5.678h-.18l-2.5 1.086v.259l.2-.08c.279-.11.518-.16.647-.16.25 0 .359.23.359.698v3.765c0 .867-.19 1.036-1.175 1.046v.239h3.715z"/><path d="M179.727-15.29h4.98" stroke="#000" fill="none" stroke-width=".657" stroke-miterlimit="10"/><path d="M184.488-7.926h-.25c-.259.717-.488.777-1.524.777h-1.394l1.614-1.534c.786-.747 1.135-1.414 1.135-2.171 0-1.126-.737-1.823-1.813-1.823-.996 0-1.753.637-2.221 2.032h.279c.309-.618.737-.897 1.215-.897.787 0 1.185.588 1.185 1.265 0 .439-.189.986-.508 1.475-.508.776-.856 1.195-2.31 2.749v.229h4.133l.459-2.102zm4.862-4.064c0 .458-.31.856-1.046.856-.807 0-1.166-.428-1.166-.916 0-.299.22-.627.379-.757l.17-.13c.218.06.597.14.766.17.518.11.897.289.897.777zm-.12-4.403c0 .598-.249 1.654-.757 1.654-.23 0-.349-.32-.349-.797 0-.708.379-1.465.787-1.465.22 0 .32.23.32.608zm1.923-.737l-1.315.04c-.13-.12-.518-.31-.977-.31-1.185 0-1.912.897-1.912 1.754 0 .418.249.927.926 1.146-.468.09-.787.498-.787.866 0 .18.07.389.22.508-.648.23-1.186.628-1.186 1.176 0 .538.558 1.175 2.002 1.175 1.604 0 2.281-.926 2.281-1.614 0-1.205-2.3-1.015-2.3-1.544 0-.259.239-.438.736-.488 1.017-.11 1.534-.886 1.534-1.633 0-.17-.03-.329-.129-.478h.767l.14-.598zm4.355 6.203c-.104.157-.261.35-.396.35-.104 0-.142-.096-.142-.23 0-.105.023-.21.053-.33l.59-2.524h-.83l-.156.612c-.262 1.031-.874 2.197-1.39 2.197-.217 0-.291-.06-.299-.277a.72.72 0 01.023-.171l.553-2.361h-.844l-.912 3.855c-.12.492-.254.859-.358 1.03h.769c.18-.276.269-.732.523-1.718h.015c.09.142.194.202.41.202.36 0 .793-.411 1.01-.822l.022.008c-.053.164-.12.388-.12.582 0 .224.112.456.426.456.575 0 .926-.277 1.202-.77l-.149-.089zm4.207-2.78c-.224.487-.605 1.263-1.696 2.324h-.007l-.337-2.353c-.59.21-1.03.24-1.359.254l.015.172c.291 0 .538.045.568.254l.433 2.824h.388c.927-.994 1.845-2.07 2.174-3.422l-.18-.052zm4.281-2.716l.568-2.59h.16c.09 0 .179.01.338.04.339.08.717.319.717 1.136 0 .777-.378 1.414-1.384 1.414h-.399zm4.035 3.397c-.767 0-1.066-.378-1.295-.837l-1.146-2.3c1.066-.27 1.714-.947 1.714-1.754 0-.827-.618-1.544-2.341-1.544h-2.83l-.04.229h.37c.428 0 .587.12.587.349 0 .08-.02.17-.04.268l-1.136 4.981c-.089.389-.189.608-.836.608h-.359l-.04.229h3.586l.04-.23h-.388c-.448 0-.538-.099-.558-.368 0-.08.01-.169.02-.219l.548-2.36c.259.01.299.02.348.02l1.534 3.157h2.222l.04-.23zm9.969-.837v-.877h-6.116v.877H218zm0-2.032v-.876h-6.116v.876H218zm7.97-3.945c0 .707-.37 1.076-.907 1.076-.608 0-.927-.528-.927-1.415 0-.428.1-.846.508-1.444 1.086.727 1.325 1.046 1.325 1.783zm.059-4.084c0 .478-.08.707-.409 1.145-.836-.428-1.295-.976-1.295-1.534 0-.468.36-.826.827-.826.558 0 .877.537.877 1.215zm1.325 3.486c0-.836-.369-1.384-1.494-2.151.946-.29 1.354-.758 1.354-1.395 0-.797-.697-1.444-1.942-1.444-1.375 0-2.232.687-2.232 1.743 0 .757.389 1.285 1.375 1.873-.936.229-1.484.787-1.484 1.673 0 1.066.847 1.693 2.112 1.693 1.444 0 2.31-.796 2.31-1.992zm6.097.598c-.1.478-.3.707-.598.707-.368 0-.558-.538-.558-1.624 0-.647.04-1.125.11-1.414h1.165v-.996h-3.835c-.518 0-.926.11-1.215.339-.27.209-.498.607-.687 1.175h.248c.19-.349.678-.518 1.475-.518 0 .359-.08.807-.24 1.355-.218.737-.457 1.125-.706 1.175-.12.02-.23.09-.31.2a.69.69 0 00-.119.388c0 .438.26.657.787.657.777 0 1.225-.846 1.225-2.52v-.269l-.02-.986h1.335c-.03.09-.06.23-.11.409-.09.298-.149.498-.179.617-.14.528-.209.946-.209 1.265 0 .369.07.678.22.917.218.358.567.527 1.055.527.399 0 .737-.129.996-.398.28-.279.418-.618.418-1.006h-.248zm8.119-2.142h-3.437l-.05.23h.35c.447 0 .537.109.547.338a.7.7 0 01-.04.239l-.567 2.072c-.2.13-.429.2-.778.2-1.265 0-1.553-1.256-1.553-2.083 0-1.852 1.145-3.964 3.018-3.964.966 0 1.653.628 1.653 1.384 0 .13-.02.26-.06.399h.23l.528-2.231h-.23c-.06.249-.468.328-.567.328-.598 0-.768-.328-1.614-.328-1.345 0-2.51.438-3.327 1.235a3.943 3.943 0 00-1.206 2.819c0 1.514.947 2.889 3.009 2.889a5.26 5.26 0 002.33-.518l.588-2.172c.11-.418.29-.607.887-.607h.239l.05-.23z"/><path d="M222.652-15.29h18.918" stroke="#000" fill="none" stroke-width=".657" stroke-miterlimit="10"/><path d="M231.518-6.242c-.528.568-.996.787-1.504.787s-1.006-.278-1.006-1.195c0-.867.727-2.66 1.773-2.66.09 0 .15.05.15.2 0 .209-.23.169-.23.527 0 .14.08.429.518.429.548 0 .777-.379.777-.737 0-.448-.498-.817-1.215-.817-1.833 0-2.929 1.773-2.929 3.088 0 .757.359 1.614 1.614 1.614 1.006 0 1.723-.518 2.231-1.156l-.179-.08zm3.149-3.509h-1.554l1.554-2.196v2.196zm1.554.83v-.83h-.478v-3.234h-.598l-2.338 3.22v.843h1.852v1.076h1.084v-1.076h.478zm13.519-10.54h-6.266l-.428 1.863h.22c.188-.877.786-1.415 1.782-1.415h.747l-1.235 5.38c-.09.388-.229.607-.847.607h-.398l-.04.229h3.666l.03-.23h-.419c-.458 0-.558-.109-.568-.348 0-.1.03-.189.04-.249l1.225-5.389h.777c.658 0 1.106.26 1.106.877 0 .14-.01.358-.07.538h.24l.438-1.863zm3.04 8.534c-.104.157-.261.35-.396.35-.104 0-.142-.096-.142-.23 0-.105.023-.21.053-.33l.59-2.524h-.83l-.156.612c-.262 1.031-.874 2.197-1.39 2.197-.216 0-.291-.06-.299-.277a.72.72 0 01.023-.171l.553-2.361h-.844l-.912 3.855c-.12.492-.254.859-.358 1.03h.769c.18-.276.269-.732.523-1.718h.015c.09.142.194.202.41.202.36 0 .793-.411 1.01-.822l.022.008c-.053.164-.12.388-.12.582 0 .224.112.456.426.456.575 0 .926-.277 1.202-.77l-.149-.089zm4.207-2.78c-.224.487-.605 1.263-1.696 2.324h-.007l-.337-2.353c-.59.21-1.03.24-1.359.254l.015.172c.291 0 .538.045.568.254l.433 2.824h.388c.927-.994 1.845-2.07 2.174-3.422l-.18-.052z"/></svg>