<svg xmlns="http://www.w3.org/2000/svg" width="446.987" height="76.12" viewBox="0 -57.09 335.24 57.09"><path d="M10.959-41.843c2.56 0 4.582-2.022 4.582-4.632s-2.012-4.632-4.582-4.632-4.583 2.022-4.583 4.632 2.013 4.632 4.583 4.632zm0-.27c-2.391 0-4.294-1.912-4.294-4.362s1.903-4.363 4.294-4.363c2.39 0 4.293 1.902 4.293 4.363 0 2.46-1.903 4.363-4.293 4.363zm-1.246-4.462c0-1.813.618-2.39 1.246-2.39.637 0 1.255.587 1.255 2.39 0 1.793-.618 2.38-1.255 2.38-.628 0-1.246-.577-1.246-2.38zm1.246-2.68c-1.016 0-1.973.767-1.973 2.68 0 1.893.957 2.67 1.973 2.67s1.982-.777 1.982-2.67c0-1.913-.966-2.68-1.982-2.68zM23.829-47.99l.04-1.135-.12-.1-1.694.429v.288l1.076-.189v2.989c0 .428 0 .876-.01 1.315l-1.255.09v.268h3.188v-.269l-1.216-.09c0-.438-.01-.886-.01-1.314v-2.281zm-.35 5.878c-2.39 0-4.293-1.913-4.293-4.363s1.903-4.363 4.294-4.363 4.293 1.902 4.293 4.363c0 2.46-1.902 4.363-4.293 4.363zm0-8.995c-2.57 0-4.581 2.022-4.581 4.632s2.012 4.632 4.582 4.632c2.56 0 4.582-2.022 4.582-4.632s-2.012-4.632-4.582-4.632zM36.29-45.977c.857-.737 1.275-1.255 1.275-1.903 0-.797-.508-1.374-1.574-1.374-.856 0-1.574.378-1.743 1.085.06.13.18.2.309.2.16 0 .289-.07.388-.36l.21-.547c.199-.07.388-.09.607-.09.707 0 1.086.458 1.086 1.086 0 .657-.269 1.096-.936 1.783l-1.614 1.654v.408h3.566v-.588h-3.028l1.454-1.354zm-.279 3.865c-2.39 0-4.293-1.913-4.293-4.363s1.903-4.363 4.293-4.363 4.293 1.902 4.293 4.363c0 2.46-1.902 4.363-4.293 4.363zm0-8.995c-2.57 0-4.582 2.022-4.582 4.632s2.012 4.632 4.582 4.632c2.56 0 4.582-2.022 4.582-4.632s-2.012-4.632-4.582-4.632zM47.785-48.876c.21-.07.409-.09.638-.09.657 0 1.036.379 1.036 1.017 0 .746-.508 1.125-1.196 1.125h-.348v.279h.339c.886 0 1.344.388 1.344 1.156 0 .746-.478 1.195-1.305 1.195-.308 0-.498-.03-.677-.11l-.15-.538c-.07-.269-.178-.358-.358-.358-.13 0-.269.08-.299.239.14.677.747 1.056 1.674 1.056 1.105 0 1.843-.568 1.843-1.455 0-.747-.439-1.245-1.335-1.364.797-.17 1.175-.698 1.175-1.255 0-.738-.558-1.275-1.554-1.275-.757 0-1.504.298-1.624 1.066.05.089.15.159.28.159.159 0 .298-.07.368-.329l.15-.518zm.758 6.764c-2.391 0-4.294-1.913-4.294-4.363s1.903-4.363 4.293-4.363 4.294 1.902 4.294 4.363c0 2.46-1.903 4.363-4.294 4.363zm0-8.995c-2.57 0-4.583 2.022-4.583 4.632s2.012 4.632 4.582 4.632c2.56 0 4.583-2.022 4.583-4.632s-2.013-4.632-4.583-4.632zM59.231-45.987l2.032-2.56v2.56h-2.032zm2.64-3.188h-.458l-2.6 3.287v.419h2.45v1.434h.608v-1.434h1.036v-.518H61.87v-3.188zm-.797 7.063c-2.39 0-4.294-1.913-4.294-4.363s1.903-4.363 4.294-4.363c2.39 0 4.293 1.902 4.293 4.363 0 2.46-1.903 4.363-4.293 4.363zm0-8.995c-2.57 0-4.582 2.022-4.582 4.632s2.012 4.632 4.582 4.632c2.56 0 4.582-2.022 4.582-4.632s-2.012-4.632-4.582-4.632zM72.719-48.537h2.6v-.588h-2.88l-.179 2.48.18.07c.348-.19.667-.289 1.036-.289.787 0 1.285.448 1.285 1.295 0 .867-.508 1.375-1.305 1.375-.339 0-.578-.04-.807-.14l-.14-.528c-.07-.249-.169-.348-.358-.348-.14 0-.26.07-.309.219.11.687.757 1.086 1.653 1.086 1.275 0 2.013-.708 2.013-1.704 0-.936-.598-1.594-1.773-1.594-.439 0-.807.09-1.126.25l.11-1.584zm.886 6.425c-2.39 0-4.293-1.913-4.293-4.363s1.903-4.363 4.293-4.363 4.293 1.902 4.293 4.363c0 2.46-1.902 4.363-4.293 4.363zm0-8.995c-2.57 0-4.582 2.022-4.582 4.632s2.012 4.632 4.582 4.632c2.56 0 4.582-2.022 4.582-4.632s-2.012-4.632-4.582-4.632zM86.077-44.194c-.737 0-1.156-.707-1.156-1.734 0-.119.01-.229.02-.338.349-.428.727-.578 1.126-.578.647 0 1.066.478 1.066 1.305 0 .867-.489 1.345-1.056 1.345zm1.573-5.06c-2.121.229-3.466 1.673-3.466 3.267 0 1.275.707 2.082 1.873 2.082 1.016 0 1.793-.668 1.793-1.714 0-.956-.588-1.544-1.544-1.544-.538 0-.966.17-1.325.578.239-1.205 1.145-2.122 2.7-2.42l-.03-.25zm-1.514 7.142c-2.39 0-4.293-1.913-4.293-4.363s1.903-4.363 4.293-4.363 4.294 1.902 4.294 4.363c0 2.46-1.903 4.363-4.294 4.363zm0-8.995c-2.57 0-4.582 2.022-4.582 4.632s2.012 4.632 4.582 4.632c2.56 0 4.583-2.022 4.583-4.632s-2.013-4.632-4.583-4.632zM96.835-48.517h3.098l-2.311 4.432.05.05h.637l2.102-4.721v-.369h-3.576v.608zm1.833 6.405c-2.391 0-4.294-1.913-4.294-4.363s1.903-4.363 4.294-4.363c2.39 0 4.293 1.902 4.293 4.363 0 2.46-1.903 4.363-4.293 4.363zm0-8.995c-2.57 0-4.583 2.022-4.583 4.632s2.013 4.632 4.583 4.632c2.56 0 4.582-2.022 4.582-4.632s-2.012-4.632-4.582-4.632zM111.199-44.194c-.757 0-1.205-.339-1.205-.946 0-.518.259-.857.966-1.256 1.096.409 1.414.748 1.414 1.275 0 .558-.428.927-1.175.927zm-1.056-3.885c0-.548.478-.887 1.066-.887.617 0 1.006.35 1.006.887 0 .488-.239.797-.857 1.185-.916-.358-1.215-.747-1.215-1.185zm1.464 1.285c.837-.349 1.186-.777 1.186-1.295 0-.687-.558-1.165-1.564-1.165-.957 0-1.683.517-1.683 1.344 0 .598.368 1.076 1.155 1.415-.857.318-1.295.767-1.295 1.394 0 .728.598 1.196 1.733 1.196 1.186 0 1.863-.528 1.863-1.365 0-.658-.359-1.126-1.395-1.524zm-.408 4.682c-2.391 0-4.293-1.913-4.293-4.363s1.902-4.363 4.293-4.363 4.293 1.902 4.293 4.363c0 2.46-1.902 4.363-4.293 4.363zm0-8.995c-2.57 0-4.582 2.022-4.582 4.632s2.012 4.632 4.582 4.632c2.56 0 4.582-2.022 4.582-4.632s-2.012-4.632-4.582-4.632zM123.84-46.366c-.727 0-1.166-.518-1.166-1.325 0-.836.498-1.285 1.076-1.285.667 0 1.136.518 1.136 1.773 0 .15-.01.29-.03.429-.269.269-.638.408-1.016.408zm-1.415 2.46c1.963-.487 3.198-1.663 3.198-3.227 0-1.325-.697-2.121-1.883-2.121-.956 0-1.773.607-1.793 1.603 0 .967.658 1.584 1.644 1.584.508 0 .926-.16 1.215-.418-.239 1.066-1.056 1.832-2.44 2.31l.059.27zm1.305 1.794c-2.39 0-4.293-1.913-4.293-4.363s1.903-4.363 4.293-4.363c2.391 0 4.293 1.902 4.293 4.363 0 2.46-1.902 4.363-4.293 4.363zm0-8.995c-2.57 0-4.582 2.022-4.582 4.632s2.012 4.632 4.582 4.632c2.56 0 4.582-2.022 4.582-4.632s-2.012-4.632-4.582-4.632zM135.076-47.99l.03-1.135-.109-.1-1.266.379v.299l.698-.15v2.989c0 .438-.01.896-.01 1.345l-.737.06v.268h2.101v-.269l-.697-.06c0-.448-.01-.906-.01-1.344v-2.281zm2.53 3.816c-.428 0-.807-.459-.807-2.401 0-1.942.379-2.4.807-2.4.429 0 .807.458.807 2.4 0 1.932-.378 2.4-.807 2.4zm0-5.08c-.797 0-1.464.697-1.464 2.679 0 1.972.667 2.67 1.464 2.67s1.465-.698 1.465-2.67c0-1.982-.668-2.68-1.465-2.68zm-1.344 7.142c-2.391 0-4.294-1.913-4.294-4.363s1.903-4.363 4.294-4.363c2.39 0 4.293 1.902 4.293 4.363 0 2.46-1.903 4.363-4.293 4.363zm0-8.995c-2.57 0-4.583 2.022-4.583 4.632s2.013 4.632 4.583 4.632c2.56 0 4.582-2.022 4.582-4.632s-2.012-4.632-4.582-4.632zM147.707-47.99l.03-1.135-.11-.1-1.265.379v.299l.698-.15v2.989c0 .438-.01.896-.01 1.345l-.737.06v.268h2.101v-.269l-.697-.06c0-.448-.01-.906-.01-1.344v-2.281zm2.869 0l.04-1.135-.12-.1-1.265.379v.299l.707-.15v2.989c0 .438-.01.896-.02 1.345l-.737.06v.268h2.102v-.269l-.697-.06c0-.448-.01-.906-.01-1.344v-2.281zm-1.783 5.878c-2.391 0-4.294-1.913-4.294-4.363s1.903-4.363 4.294-4.363c2.39 0 4.293 1.902 4.293 4.363 0 2.46-1.903 4.363-4.293 4.363zm0-8.995c-2.57 0-4.582 2.022-4.582 4.632s2.012 4.632 4.582 4.632c2.56 0 4.582-2.022 4.582-4.632s-2.012-4.632-4.582-4.632zM160.139-47.99l.03-1.135-.11-.1-1.265.379v.299l.697-.15v2.989c0 .438-.01.896-.01 1.345l-.737.06v.268h2.102v-.269l-.697-.06c0-.448-.01-.906-.01-1.344v-2.281zm2.839 2.072c.707-.756 1.086-1.314 1.086-2.012 0-.777-.469-1.324-1.315-1.324-.708 0-1.275.408-1.395 1.085.06.13.16.2.279.2.149 0 .279-.07.369-.35l.209-.607c.119-.04.229-.05.368-.05.538 0 .847.449.847 1.056 0 .658-.229 1.136-.827 1.893l-1.275 1.584v.408h2.939v-.588h-2.441l1.156-1.295zm-1.654 3.806c-2.39 0-4.293-1.913-4.293-4.363s1.903-4.363 4.293-4.363c2.391 0 4.293 1.902 4.293 4.363 0 2.46-1.902 4.363-4.293 4.363zm0-8.995c-2.57 0-4.582 2.022-4.582 4.632s2.012 4.632 4.582 4.632c2.56 0 4.582-2.022 4.582-4.632s-2.012-4.632-4.582-4.632zM172.67-47.99l.03-1.135-.11-.1-1.265.379v.299l.698-.15v2.989c0 .438-.01.896-.01 1.345l-.738.06v.268h2.102v-.269l-.697-.06c0-.448-.01-.906-.01-1.344v-2.281zm2.002-.906c.15-.05.299-.08.468-.08.509 0 .827.399.827 1.027 0 .736-.418 1.105-1.046 1.105h-.279v.299h.309c.777 0 1.176.378 1.176 1.156 0 .766-.419 1.195-1.126 1.195-.189 0-.339-.02-.468-.06l-.15-.578c-.069-.279-.159-.358-.319-.358-.139 0-.258.08-.308.249.139.667.608 1.036 1.424 1.036.966 0 1.604-.558 1.604-1.455 0-.747-.379-1.235-1.185-1.354.707-.18 1.006-.708 1.006-1.265 0-.738-.468-1.275-1.325-1.275-.638 0-1.245.308-1.375 1.036.04.11.159.169.259.169.16 0 .279-.09.339-.29l.169-.557zm-.817 6.784c-2.39 0-4.293-1.913-4.293-4.363s1.903-4.363 4.293-4.363c2.391 0 4.294 1.902 4.294 4.363 0 2.46-1.903 4.363-4.294 4.363zm0-8.995c-2.57 0-4.582 2.022-4.582 4.632s2.012 4.632 4.582 4.632c2.56 0 4.583-2.022 4.583-4.632s-2.013-4.632-4.583-4.632zM185.201-47.99l.03-1.135-.109-.1-1.266.379v.299l.698-.15v2.989c0 .438-.01.896-.01 1.345l-.737.06v.268h2.102v-.269l-.698-.06c0-.448-.01-.906-.01-1.344v-2.281zm1.385 2.043l1.434-2.44v2.44h-1.434zm2.042-3.228h-.468l-1.963 3.327v.429h1.823v1.384h.608v-1.384h.637v-.528h-.637v-3.228zm-2.241 7.063c-2.391 0-4.294-1.913-4.294-4.363s1.903-4.363 4.294-4.363c2.39 0 4.293 1.902 4.293 4.363 0 2.46-1.903 4.363-4.293 4.363zm0-8.995c-2.57 0-4.582 2.022-4.582 4.632s2.012 4.632 4.582 4.632c2.56 0 4.582-2.022 4.582-4.632s-2.012-4.632-4.582-4.632zM197.733-47.99l.029-1.135-.109-.1-1.265.379v.299l.697-.15v2.989c0 .438-.01.896-.01 1.345l-.737.06v.268h2.102v-.269l-.697-.06c0-.448-.01-.906-.01-1.344v-2.281zm1.773-.547h2.082v-.588h-2.371l-.15 2.45.19.08c.268-.18.587-.259.886-.259.618 0 1.026.448 1.026 1.345 0 .866-.418 1.315-1.135 1.315-.18 0-.329-.02-.449-.05l-.189-.618c-.07-.259-.159-.338-.319-.338-.149 0-.269.1-.298.269.139.707.667 1.026 1.394 1.026 1.016 0 1.664-.618 1.664-1.664 0-1.036-.598-1.634-1.524-1.634-.319 0-.608.05-.897.18l.09-1.514zm-.588 6.425c-2.391 0-4.293-1.913-4.293-4.363s1.902-4.363 4.293-4.363 4.293 1.902 4.293 4.363c0 2.46-1.902 4.363-4.293 4.363zm0-8.995c-2.57 0-4.582 2.022-4.582 4.632s2.012 4.632 4.582 4.632c2.56 0 4.582-2.022 4.582-4.632s-2.012-4.632-4.582-4.632zM210.264-47.99l.03-1.135-.11-.1-1.265.379v.299l.697-.15v2.989c0 .438-.01.896-.01 1.345l-.737.06v.268h2.102v-.269l-.697-.06c0-.448-.01-.906-.01-1.344v-2.281zm1.783 1.754c.269-.438.518-.568.817-.568.458 0 .757.349.757 1.295s-.339 1.315-.727 1.315c-.538 0-.847-.668-.847-1.943v-.1zm2.022-3.018c-1.643.179-2.679 1.633-2.679 3.267 0 1.354.557 2.082 1.464 2.082.797 0 1.394-.628 1.394-1.674 0-1.016-.478-1.554-1.165-1.554-.418 0-.737.16-1.006.538.139-1.175.847-2.161 2.032-2.4l-.04-.26zm-2.62 7.142c-2.39 0-4.293-1.913-4.293-4.363s1.903-4.363 4.293-4.363c2.391 0 4.293 1.902 4.293 4.363 0 2.46-1.902 4.363-4.293 4.363zm0-8.995c-2.57 0-4.582 2.022-4.582 4.632s2.012 4.632 4.582 4.632c2.56 0 4.582-2.022 4.582-4.632s-2.012-4.632-4.582-4.632zM222.795-47.99l.03-1.135-.109-.1-1.266.379v.299l.698-.15v2.989c0 .438-.01.896-.01 1.345l-.737.06v.268h2.101v-.269l-.697-.06c0-.448-.01-.906-.01-1.344v-2.281zm1.096-.527h2.48l-1.932 4.432.05.05h.637l1.674-4.721v-.369h-2.909v.608zm.09 6.405c-2.391 0-4.294-1.913-4.294-4.363s1.903-4.363 4.294-4.363c2.39 0 4.293 1.902 4.293 4.363 0 2.46-1.903 4.363-4.293 4.363zm0-8.995c-2.57 0-4.583 2.022-4.583 4.632s2.013 4.632 4.583 4.632c2.56 0 4.582-2.022 4.582-4.632s-2.012-4.632-4.582-4.632zM235.327-47.99l.029-1.135-.109-.1-1.265.379v.299l.697-.15v2.989c0 .438-.01.896-.01 1.345l-.737.06v.268h2.102v-.269l-.697-.06c0-.448-.01-.906-.01-1.344v-2.281zm2.51 3.816c-.548 0-.907-.419-.907-.986 0-.478.209-.797.767-1.246.857.468 1.046.837 1.046 1.335 0 .548-.319.897-.906.897zm-.747-3.945c0-.518.368-.857.787-.857.488 0 .757.389.757.857 0 .498-.18.797-.668 1.225-.687-.398-.876-.777-.876-1.225zm1.075 1.335c.737-.379.987-.797.987-1.305 0-.658-.449-1.165-1.275-1.165-.748 0-1.325.537-1.325 1.275 0 .657.309 1.095.936 1.464-.727.378-1.096.787-1.096 1.394 0 .728.488 1.216 1.405 1.216.956 0 1.524-.518 1.524-1.285 0-.688-.329-1.136-1.156-1.594zm-1.653 4.672c-2.391 0-4.294-1.913-4.294-4.363s1.903-4.363 4.294-4.363c2.39 0 4.293 1.902 4.293 4.363 0 2.46-1.903 4.363-4.293 4.363zm0-8.995c-2.57 0-4.582 2.022-4.582 4.632s2.012 4.632 4.582 4.632c2.56 0 4.582-2.022 4.582-4.632s-2.012-4.632-4.582-4.632zM247.858-47.99l.03-1.135-.11-.1-1.265.379v.299l.697-.15v2.989c0 .438-.01.896-.01 1.345l-.737.06v.268h2.102v-.269l-.697-.06c0-.448-.01-.906-.01-1.344v-2.281zm2.57 1.614c-.419 0-.767-.498-.767-1.315 0-.797.308-1.285.767-1.285.488 0 .807.488.807 1.753 0 .15-.01.29-.02.429-.209.259-.458.418-.787.418zm-1.106 2.48c1.644-.388 2.57-1.663 2.57-3.217 0-1.385-.538-2.141-1.454-2.141-.797 0-1.405.637-1.405 1.603 0 1.056.508 1.584 1.215 1.584.399 0 .708-.14.927-.378-.199 1.085-.817 1.902-1.913 2.28l.06.27zm-.279 1.784c-2.391 0-4.293-1.913-4.293-4.363s1.902-4.363 4.293-4.363 4.293 1.902 4.293 4.363c0 2.46-1.902 4.363-4.293 4.363zm0-8.995c-2.57 0-4.582 2.022-4.582 4.632s2.012 4.632 4.582 4.632c2.56 0 4.582-2.022 4.582-4.632s-2.012-4.632-4.582-4.632zM260.01-45.918c.698-.756 1.086-1.314 1.086-2.012 0-.777-.478-1.324-1.325-1.324-.707 0-1.265.408-1.384 1.085.05.13.149.2.269.2.159 0 .279-.07.378-.35l.21-.607c.119-.04.239-.05.368-.05.538 0 .837.449.837 1.056 0 .658-.219 1.136-.827 1.893l-1.275 1.584v.408h2.939v-.588h-2.431l1.155-1.295zm3.338 1.744c-.429 0-.807-.459-.807-2.401 0-1.942.378-2.4.807-2.4.428 0 .806.458.806 2.4 0 1.932-.378 2.4-.806 2.4zm0-5.08c-.797 0-1.465.697-1.465 2.679 0 1.972.668 2.67 1.465 2.67.796 0 1.464-.698 1.464-2.67 0-1.982-.668-2.68-1.464-2.68zm-1.774 7.142c-2.39 0-4.293-1.913-4.293-4.363s1.903-4.363 4.293-4.363c2.391 0 4.294 1.902 4.294 4.363 0 2.46-1.903 4.363-4.294 4.363zm0-8.995c-2.57 0-4.582 2.022-4.582 4.632s2.012 4.632 4.582 4.632c2.56 0 4.583-2.022 4.583-4.632s-2.013-4.632-4.583-4.632zM272.841-45.918c.697-.756 1.085-1.314 1.085-2.012 0-.777-.478-1.324-1.324-1.324-.708 0-1.266.408-1.385 1.085.05.13.149.2.269.2.159 0 .279-.07.378-.35l.21-.607c.119-.04.239-.05.368-.05.538 0 .837.449.837 1.056 0 .658-.219 1.136-.827 1.893l-1.275 1.584v.408h2.939v-.588h-2.431l1.156-1.295zm3.177-2.071l.04-1.136-.119-.1-1.265.379v.299l.707-.15v2.989c0 .438-.01.896-.01 1.345l-.737.06v.268h2.091v-.269l-.697-.06c0-.448-.01-.906-.01-1.344v-2.281zm-1.912 5.877c-2.391 0-4.294-1.913-4.294-4.363s1.903-4.363 4.294-4.363c2.39 0 4.293 1.902 4.293 4.363 0 2.46-1.903 4.363-4.293 4.363zm0-8.995c-2.57 0-4.582 2.022-4.582 4.632s2.012 4.632 4.582 4.632c2.56 0 4.582-2.022 4.582-4.632s-2.012-4.632-4.582-4.632zM285.073-45.918c.697-.756 1.086-1.314 1.086-2.012 0-.777-.478-1.324-1.325-1.324-.707 0-1.265.408-1.384 1.085.049.13.149.2.268.2.16 0 .279-.07.379-.35l.209-.607c.12-.04.239-.05.369-.05.538 0 .836.449.836 1.056 0 .658-.219 1.136-.826 1.893l-1.275 1.584v.408h2.938v-.588h-2.43l1.155-1.295zm2.391 1.295l1.155-1.295c.707-.756 1.086-1.314 1.086-2.012 0-.777-.468-1.324-1.315-1.324-.707 0-1.265.408-1.395 1.085.06.13.16.2.28.2.149 0 .279-.07.368-.35l.209-.607a1.1 1.1 0 0 1 .369-.05c.548 0 .847.449.847 1.056 0 .658-.229 1.136-.827 1.893l-1.275 1.584v.408h2.938v-.588h-2.44zm-.827 2.51c-2.391 0-4.293-1.912-4.293-4.362s1.902-4.363 4.293-4.363 4.293 1.902 4.293 4.363c0 2.46-1.902 4.363-4.293 4.363zm0-8.994c-2.57 0-4.582 2.022-4.582 4.632s2.012 4.632 4.582 4.632c2.56 0 4.582-2.022 4.582-4.632s-2.012-4.632-4.582-4.632zM297.604-45.918c.698-.756 1.086-1.314 1.086-2.012 0-.777-.478-1.324-1.325-1.324-.707 0-1.265.408-1.384 1.085.049.13.149.2.269.2.159 0 .279-.07.378-.35l.209-.607c.12-.04.239-.05.369-.05.538 0 .837.449.837 1.056 0 .658-.219 1.136-.827 1.893l-1.275 1.584v.408h2.939v-.588h-2.431l1.155-1.295zm2.71-2.978c.149-.05.299-.08.468-.08.508 0 .827.399.827 1.027 0 .736-.419 1.105-1.036 1.105h-.289v.299h.309c.787 0 1.175.378 1.175 1.156 0 .766-.418 1.195-1.125 1.195-.19 0-.329-.02-.459-.06l-.159-.578c-.07-.279-.16-.358-.319-.358-.139 0-.259.08-.299.249.13.667.598 1.036 1.415 1.036.966 0 1.613-.558 1.613-1.455 0-.747-.388-1.235-1.195-1.354.707-.18 1.006-.708 1.006-1.265 0-.738-.468-1.275-1.325-1.275-.637 0-1.235.308-1.374 1.036.04.11.159.169.259.169.159 0 .279-.09.339-.29l.169-.557zm-1.146 6.784c-2.39 0-4.293-1.913-4.293-4.363s1.903-4.363 4.293-4.363c2.391 0 4.293 1.902 4.293 4.363 0 2.46-1.902 4.363-4.293 4.363zm0-8.995c-2.57 0-4.582 2.022-4.582 4.632s2.012 4.632 4.582 4.632c2.56 0 4.582-2.022 4.582-4.632s-2.012-4.632-4.582-4.632zM310.335-45.918c.697-.756 1.086-1.314 1.086-2.012 0-.777-.479-1.324-1.325-1.324-.707 0-1.265.408-1.385 1.085.05.13.15.2.269.2.16 0 .279-.07.379-.35l.209-.607c.119-.04.239-.05.368-.05.538 0 .837.449.837 1.056 0 .658-.219 1.136-.827 1.893l-1.275 1.584v.408h2.939v-.588h-2.431l1.156-1.295zm1.892-.03l1.435-2.44v2.44h-1.435zm2.043 0v-3.227h-.459l-1.972 3.327v.429h1.823v1.384h.608v-1.384h.637v-.528h-.637zm-2.57 3.836c-2.391 0-4.294-1.913-4.294-4.363s1.903-4.363 4.294-4.363c2.39 0 4.293 1.902 4.293 4.363 0 2.46-1.903 4.363-4.293 4.363zm0-8.995c-2.57 0-4.583 2.022-4.583 4.632s2.013 4.632 4.583 4.632c2.56 0 4.582-2.022 4.582-4.632s-2.012-4.632-4.582-4.632zM322.766-45.918c.698-.756 1.086-1.314 1.086-2.012 0-.777-.478-1.324-1.325-1.324-.707 0-1.265.408-1.384 1.085.05.13.149.2.269.2.159 0 .279-.07.378-.35l.21-.607c.119-.04.239-.05.368-.05.538 0 .837.449.837 1.056 0 .658-.219 1.136-.827 1.893l-1.275 1.584v.408h2.938v-.588h-2.43l1.155-1.295zm2.431-2.62h2.082v-.587h-2.371l-.149 2.45.189.08c.269-.18.588-.259.887-.259.617 0 1.026.448 1.026 1.345 0 .866-.409 1.315-1.136 1.315-.189 0-.329-.02-.448-.05l-.19-.618c-.069-.259-.159-.338-.318-.338-.15 0-.269.1-.299.269.139.707.667 1.026 1.395 1.026 1.016 0 1.663-.618 1.663-1.664 0-1.036-.598-1.634-1.514-1.634-.329 0-.618.05-.907.18l.09-1.514zm-.966 6.426c-2.391 0-4.294-1.913-4.294-4.363s1.903-4.363 4.294-4.363c2.39 0 4.293 1.902 4.293 4.363 0 2.46-1.903 4.363-4.293 4.363zm0-8.995c-2.57 0-4.582 2.022-4.582 4.632s2.012 4.632 4.582 4.632c2.56 0 4.582-2.022 4.582-4.632s-2.012-4.632-4.582-4.632zM9.494-33.962c.698-.757 1.086-1.315 1.086-2.013 0-.777-.478-1.324-1.325-1.324-.707 0-1.265.408-1.385 1.085.05.13.15.2.27.2.159 0 .279-.07.378-.35l.21-.607c.119-.04.238-.05.368-.05.538 0 .837.449.837 1.056 0 .658-.22 1.136-.827 1.893L7.83-32.488v.408h2.938v-.587H8.34l1.155-1.295zm2.39-.32c.27-.437.519-.567.818-.567.458 0 .757.349.757 1.295s-.339 1.315-.727 1.315c-.538 0-.847-.668-.847-1.943v-.1zm2.023-3.017c-1.643.179-2.68 1.633-2.68 3.267 0 1.355.558 2.082 1.475 2.082.787 0 1.384-.628 1.384-1.674 0-1.016-.478-1.554-1.155-1.554-.428 0-.737.17-1.016.548.14-1.185.846-2.171 2.042-2.41l-.05-.26zm-2.948 7.142c-2.391 0-4.294-1.913-4.294-4.363s1.903-4.363 4.294-4.363c2.39 0 4.293 1.902 4.293 4.363 0 2.46-1.903 4.363-4.293 4.363zm0-8.995c-2.57 0-4.583 2.022-4.583 4.632s2.013 4.632 4.583 4.632c2.56 0 4.582-2.022 4.582-4.632s-2.012-4.632-4.582-4.632zM22.015-33.962c.698-.757 1.087-1.315 1.087-2.013 0-.777-.479-1.324-1.326-1.324-.707 0-1.264.408-1.384 1.085.05.13.15.2.269.2.16 0 .279-.07.378-.35l.21-.607c.119-.04.239-.05.368-.05.538 0 .837.449.837 1.056 0 .658-.22 1.136-.827 1.893l-1.275 1.584v.408h2.939v-.587h-2.43l1.154-1.295zm1.654-3.208v.608h2.48l-1.932 4.432.05.05h.637l1.684-4.721v-.369h-2.919zm-.19 7.013c-2.39 0-4.293-1.913-4.293-4.363s1.903-4.363 4.294-4.363 4.293 1.902 4.293 4.363c0 2.46-1.902 4.363-4.293 4.363zm0-8.995c-2.57 0-4.581 2.022-4.581 4.632s2.012 4.632 4.582 4.632c2.56 0 4.582-2.022 4.582-4.632s-2.012-4.632-4.582-4.632zM34.547-33.962c.697-.757 1.086-1.315 1.086-2.013 0-.777-.478-1.324-1.325-1.324-.707 0-1.265.408-1.385 1.085.05.13.15.2.27.2.159 0 .278-.07.378-.35l.209-.607c.12-.04.24-.05.368-.05.538 0 .837.449.837 1.056 0 .658-.22 1.136-.827 1.893l-1.275 1.584v.408h2.939v-.587h-2.43l1.155-1.295zm3.118 1.743c-.548 0-.907-.418-.907-.986 0-.478.21-.797.767-1.246.857.469 1.056.837 1.056 1.335 0 .548-.329.897-.916.897zm-.747-3.945c0-.518.368-.857.787-.857.488 0 .757.389.757.857 0 .488-.18.797-.658 1.225-.687-.398-.886-.777-.886-1.225zm1.075 1.325c.738-.368.987-.787.987-1.295 0-.658-.448-1.165-1.275-1.165-.747 0-1.325.537-1.325 1.275 0 .657.309 1.095.936 1.464-.717.378-1.096.787-1.096 1.394 0 .728.488 1.216 1.405 1.216.956 0 1.524-.518 1.524-1.285 0-.687-.329-1.136-1.156-1.604zm-1.982 4.682c-2.39 0-4.293-1.913-4.293-4.363s1.903-4.363 4.293-4.363 4.293 1.902 4.293 4.363c0 2.46-1.902 4.363-4.293 4.363zm0-8.995c-2.57 0-4.582 2.022-4.582 4.632s2.012 4.632 4.582 4.632c2.56 0 4.582-2.022 4.582-4.632s-2.012-4.632-4.582-4.632zM46.978-33.962c.698-.757 1.086-1.315 1.086-2.013 0-.777-.478-1.324-1.325-1.324-.707 0-1.265.408-1.384 1.085.05.13.15.2.269.2.16 0 .279-.07.378-.35l.21-.607c.12-.04.239-.05.368-.05.538 0 .837.449.837 1.056 0 .658-.22 1.136-.827 1.893l-1.275 1.584v.408h2.939v-.587h-2.43l1.154-1.295zm3.278-.459c-.419 0-.757-.498-.757-1.315 0-.796.298-1.285.757-1.285.488 0 .807.489.807 1.754 0 .15-.01.289-.02.428-.21.259-.458.418-.787.418zm-1.096 2.48c1.634-.388 2.56-1.663 2.56-3.217 0-1.384-.538-2.141-1.454-2.141-.797 0-1.405.637-1.405 1.603 0 1.056.508 1.584 1.216 1.584.398 0 .707-.14.926-.378-.2 1.085-.817 1.902-1.913 2.28l.07.27zm-.617 1.784c-2.391 0-4.294-1.913-4.294-4.363s1.903-4.363 4.293-4.363 4.294 1.902 4.294 4.363c0 2.46-1.903 4.363-4.294 4.363zm0-8.995c-2.57 0-4.583 2.022-4.583 4.632s2.012 4.632 4.582 4.632c2.56 0 4.583-2.022 4.583-4.632s-2.013-4.632-4.583-4.632zM58.663-36.94c.15-.05.299-.08.468-.08.519 0 .837.398.837 1.026 0 .737-.428 1.105-1.046 1.105h-.289v.299h.319c.777 0 1.176.378 1.176 1.156 0 .767-.429 1.195-1.136 1.195-.19 0-.329-.02-.458-.06l-.16-.578c-.07-.279-.159-.358-.318-.358-.13 0-.25.08-.3.249.14.667.599 1.036 1.425 1.036.966 0 1.604-.558 1.604-1.455 0-.747-.379-1.235-1.185-1.364.697-.17 1.006-.698 1.006-1.255 0-.738-.468-1.275-1.325-1.275-.638 0-1.245.308-1.375 1.036.03.11.16.169.25.169.169 0 .288-.09.338-.29l.17-.557zm4.184 4.72c-.428 0-.807-.457-.807-2.4 0-1.942.379-2.4.807-2.4.428 0 .807.458.807 2.4 0 1.933-.379 2.4-.807 2.4zm0-5.08c-.797 0-1.464.698-1.464 2.68 0 1.973.667 2.67 1.464 2.67.797 0 1.464-.697 1.464-2.67 0-1.982-.667-2.68-1.464-2.68zm-1.773 7.143c-2.39 0-4.294-1.913-4.294-4.363s1.903-4.363 4.294-4.363c2.39 0 4.293 1.902 4.293 4.363 0 2.46-1.903 4.363-4.293 4.363zm0-8.995c-2.57 0-4.582 2.022-4.582 4.632s2.012 4.632 4.582 4.632c2.56 0 4.582-2.022 4.582-4.632s-2.012-4.632-4.582-4.632zM71.493-36.94c.15-.05.3-.08.468-.08.519 0 .837.398.837 1.026 0 .737-.428 1.105-1.046 1.105h-.288v.299h.318c.777 0 1.176.378 1.176 1.156 0 .767-.429 1.195-1.136 1.195-.19 0-.329-.02-.458-.06l-.16-.578c-.07-.279-.159-.358-.318-.358-.13 0-.25.08-.299.249.14.667.597 1.036 1.424 1.036.967 0 1.604-.558 1.604-1.455 0-.747-.378-1.235-1.185-1.364.697-.17 1.006-.698 1.006-1.255 0-.738-.468-1.275-1.325-1.275-.638 0-1.245.308-1.375 1.036.03.11.16.169.25.169.168 0 .288-.09.338-.29l.17-.557zm4.124.906l.04-1.136-.12-.1-1.264.38v.298l.707-.15v2.989c0 .438-.01.896-.01 1.345l-.737.06v.268h2.091v-.269l-.697-.06c0-.448-.01-.906-.01-1.344v-2.281zm-2.012 5.877c-2.39 0-4.293-1.913-4.293-4.363s1.903-4.363 4.293-4.363 4.293 1.902 4.293 4.363c0 2.46-1.902 4.363-4.293 4.363zm0-8.995c-2.57 0-4.582 2.022-4.582 4.632s2.012 4.632 4.582 4.632c2.56 0 4.582-2.022 4.582-4.632s-2.012-4.632-4.582-4.632zM83.726-36.94c.15-.05.299-.08.468-.08.518 0 .837.398.837 1.026 0 .737-.429 1.105-1.046 1.105h-.29v.299h.32c.777 0 1.175.378 1.175 1.156 0 .767-.428 1.195-1.135 1.195-.19 0-.33-.02-.459-.06l-.159-.578c-.07-.279-.16-.358-.319-.358-.13 0-.249.08-.299.249.14.667.598 1.036 1.425 1.036.966 0 1.604-.558 1.604-1.455 0-.747-.38-1.235-1.186-1.364.697-.17 1.006-.698 1.006-1.255 0-.738-.468-1.275-1.325-1.275-.637 0-1.245.308-1.374 1.036.03.11.159.169.249.169.169 0 .289-.09.338-.29l.17-.557zm3.187 4.273l1.156-1.295c.707-.757 1.085-1.315 1.085-2.013 0-.777-.468-1.324-1.314-1.324-.707 0-1.266.408-1.395 1.085.06.13.16.2.28.2.149 0 .278-.07.368-.35l.209-.607c.12-.04.23-.05.368-.05.548 0 .847.449.847 1.056 0 .658-.229 1.136-.826 1.893l-1.276 1.584v.408h2.939v-.587h-2.44zm-.777 2.51c-2.39 0-4.293-1.913-4.293-4.363s1.903-4.363 4.293-4.363 4.294 1.902 4.294 4.363c0 2.46-1.903 4.363-4.294 4.363zm0-8.995c-2.57 0-4.582 2.022-4.582 4.632s2.012 4.632 4.582 4.632c2.56 0 4.583-2.022 4.583-4.632s-2.013-4.632-4.583-4.632zM96.257-36.94c.15-.05.299-.08.468-.08.518 0 .837.398.837 1.026 0 .737-.428 1.105-1.046 1.105h-.289v.299h.319c.777 0 1.175.378 1.175 1.156 0 .767-.428 1.195-1.135 1.195-.19 0-.329-.02-.458-.06l-.16-.578c-.07-.279-.16-.358-.319-.358-.13 0-.249.08-.299.249.14.667.598 1.036 1.425 1.036.966 0 1.604-.558 1.604-1.455 0-.747-.379-1.235-1.186-1.364.698-.17 1.007-.698 1.007-1.255 0-.738-.469-1.275-1.326-1.275-.637 0-1.245.308-1.374 1.036.03.11.16.169.249.169.17 0 .289-.09.339-.29l.169-.557zm3.556 0c.15-.05.299-.08.468-.08.508 0 .827.398.827 1.026 0 .737-.418 1.105-1.036 1.105h-.289v.299h.309c.787 0 1.176.378 1.176 1.156 0 .767-.419 1.195-1.126 1.195a1.5 1.5 0 0 1-.458-.06l-.16-.578c-.07-.279-.16-.358-.319-.358-.139 0-.259.08-.298.249.13.667.597 1.036 1.414 1.036.966 0 1.614-.558 1.614-1.455 0-.747-.389-1.235-1.195-1.354.707-.18 1.006-.708 1.006-1.265 0-.738-.469-1.275-1.325-1.275-.638 0-1.236.308-1.375 1.036.04.11.16.169.26.169.159 0 .278-.09.338-.29l.17-.557zm-1.145 6.783c-2.391 0-4.294-1.913-4.294-4.363s1.903-4.363 4.294-4.363c2.39 0 4.293 1.902 4.293 4.363 0 2.46-1.903 4.363-4.293 4.363zm0-8.995c-2.57 0-4.583 2.022-4.583 4.632s2.013 4.632 4.583 4.632c2.56 0 4.582-2.022 4.582-4.632s-2.012-4.632-4.582-4.632zM108.788-36.94c.15-.05.299-.08.468-.08.519 0 .837.398.837 1.026 0 .737-.428 1.105-1.046 1.105h-.289v.299h.319c.777 0 1.176.378 1.176 1.156 0 .767-.429 1.195-1.136 1.195-.189 0-.329-.02-.458-.06l-.159-.578c-.07-.279-.16-.358-.319-.358-.13 0-.249.08-.299.249.139.667.598 1.036 1.424 1.036.966 0 1.604-.558 1.604-1.455 0-.747-.379-1.235-1.185-1.364.697-.17 1.006-.698 1.006-1.255 0-.738-.468-1.275-1.325-1.275-.638 0-1.245.308-1.375 1.036.03.11.16.169.249.169.17 0 .289-.09.339-.29l.169-.557zm3.038 2.948l1.435-2.44v2.44h-1.435zm2.043 0v-3.228h-.459l-1.972 3.327v.429h1.823v1.384h.608v-1.384h.637v-.528h-.637zm-2.67 3.835c-2.391 0-4.293-1.913-4.293-4.363s1.902-4.363 4.293-4.363 4.293 1.902 4.293 4.363c0 2.46-1.902 4.363-4.293 4.363zm0-8.995c-2.57 0-4.582 2.022-4.582 4.632s2.012 4.632 4.582 4.632c2.56 0 4.582-2.022 4.582-4.632s-2.012-4.632-4.582-4.632zM121.32-36.94c.149-.05.298-.08.468-.08.518 0 .837.398.837 1.026 0 .737-.429 1.105-1.046 1.105h-.289v.299h.318c.778 0 1.176.378 1.176 1.156 0 .767-.428 1.195-1.136 1.195a1.5 1.5 0 0 1-.458-.06l-.159-.578c-.07-.279-.16-.358-.319-.358-.13 0-.249.08-.299.249.14.667.598 1.036 1.425 1.036.966 0 1.603-.558 1.603-1.455 0-.747-.378-1.235-1.185-1.364.697-.17 1.006-.698 1.006-1.255 0-.738-.468-1.275-1.325-1.275-.637 0-1.245.308-1.375 1.036.03.11.16.169.249.169.17 0 .29-.09.339-.29l.17-.557zm3.327.358h2.082v-.588h-2.371l-.15 2.45.19.08c.268-.179.587-.259.886-.259.618 0 1.026.448 1.026 1.345 0 .867-.408 1.315-1.135 1.315-.19 0-.329-.02-.449-.05l-.189-.618c-.07-.259-.159-.338-.319-.338-.149 0-.269.1-.298.269.139.707.667 1.026 1.394 1.026 1.016 0 1.663-.618 1.663-1.664 0-1.036-.597-1.633-1.514-1.633-.328 0-.617.05-.906.179l.09-1.514zm-.917 6.425c-2.39 0-4.293-1.913-4.293-4.363s1.903-4.363 4.293-4.363c2.391 0 4.293 1.902 4.293 4.363 0 2.46-1.902 4.363-4.293 4.363zm0-8.995c-2.57 0-4.582 2.022-4.582 4.632s2.012 4.632 4.582 4.632c2.56 0 4.582-2.022 4.582-4.632s-2.012-4.632-4.582-4.632zM133.851-36.94c.149-.05.299-.08.468-.08.518 0 .837.398.837 1.026 0 .737-.429 1.105-1.046 1.105h-.289v.299h.319c.777 0 1.175.378 1.175 1.156 0 .767-.428 1.195-1.135 1.195-.19 0-.329-.02-.458-.06l-.16-.578c-.07-.279-.159-.358-.319-.358-.129 0-.249.08-.299.249.14.667.598 1.036 1.425 1.036.966 0 1.604-.558 1.604-1.455 0-.747-.379-1.235-1.186-1.364.698-.17 1.006-.698 1.006-1.255 0-.738-.468-1.275-1.325-1.275-.637 0-1.245.308-1.374 1.036.03.11.159.169.249.169.169 0 .289-.09.339-.29l.169-.557zm3.387 2.659c.269-.438.518-.568.817-.568.458 0 .757.349.757 1.295s-.339 1.315-.728 1.315c-.537 0-.846-.668-.846-1.943v-.1zm2.022-3.018c-1.644.179-2.68 1.633-2.68 3.267 0 1.355.558 2.082 1.475 2.082.787 0 1.384-.628 1.384-1.674 0-1.016-.478-1.554-1.155-1.554-.429 0-.737.17-1.016.548.139-1.185.846-2.171 2.042-2.41l-.05-.26zm-2.998 7.142c-2.391 0-4.294-1.913-4.294-4.363s1.903-4.363 4.294-4.363c2.39 0 4.293 1.902 4.293 4.363 0 2.46-1.903 4.363-4.293 4.363zm0-8.995c-2.57 0-4.583 2.022-4.583 4.632s2.013 4.632 4.583 4.632c2.56 0 4.582-2.022 4.582-4.632s-2.012-4.632-4.582-4.632zM146.482-36.94c.149-.05.299-.08.468-.08.518 0 .837.398.837 1.026 0 .737-.429 1.105-1.046 1.105h-.289v.299h.319c.777 0 1.175.378 1.175 1.156 0 .767-.428 1.195-1.135 1.195-.19 0-.329-.02-.459-.06l-.159-.578c-.07-.279-.16-.358-.319-.358-.129 0-.249.08-.299.249.14.667.598 1.036 1.425 1.036.966 0 1.603-.558 1.603-1.455 0-.747-.378-1.235-1.185-1.364.697-.17 1.006-.698 1.006-1.255 0-.738-.468-1.275-1.325-1.275-.637 0-1.245.308-1.374 1.036.03.11.159.169.249.169.169 0 .289-.09.339-.29l.169-.557zm2.45-.23v.608h2.481l-1.933 4.432.05.05h.637l1.684-4.721v-.369h-2.919zm-.139 7.013c-2.391 0-4.294-1.913-4.294-4.363s1.903-4.363 4.294-4.363c2.39 0 4.293 1.902 4.293 4.363 0 2.46-1.903 4.363-4.293 4.363zm0-8.995c-2.57 0-4.582 2.022-4.582 4.632s2.012 4.632 4.582 4.632c2.56 0 4.582-2.022 4.582-4.632s-2.012-4.632-4.582-4.632zM158.914-36.94c.149-.05.298-.08.468-.08.518 0 .837.398.837 1.026 0 .737-.429 1.105-1.046 1.105h-.289v.299h.318c.777 0 1.176.378 1.176 1.156 0 .767-.429 1.195-1.136 1.195a1.5 1.5 0 0 1-.458-.06l-.159-.578c-.07-.279-.16-.358-.319-.358-.13 0-.249.08-.299.249.14.667.598 1.036 1.425 1.036.966 0 1.603-.558 1.603-1.455 0-.747-.378-1.235-1.185-1.364.697-.17 1.006-.698 1.006-1.255 0-.738-.468-1.275-1.325-1.275-.637 0-1.245.308-1.375 1.036.03.11.16.169.249.169.17 0 .289-.09.339-.29l.17-.557zm4.114 4.72c-.548 0-.907-.417-.907-.985 0-.478.209-.797.767-1.246.857.469 1.056.837 1.056 1.335 0 .548-.329.897-.916.897zm-.748-3.944c0-.518.369-.857.787-.857.488 0 .757.389.757.857 0 .488-.179.797-.657 1.225-.687-.398-.887-.777-.887-1.225zm1.076 1.325c.737-.368.986-.787.986-1.295 0-.658-.448-1.165-1.275-1.165-.747 0-1.324.537-1.324 1.275 0 .657.308 1.095.936 1.464-.717.378-1.096.787-1.096 1.394 0 .728.488 1.216 1.405 1.216.956 0 1.524-.518 1.524-1.285 0-.687-.329-1.136-1.156-1.604zm-2.032 4.682c-2.39 0-4.293-1.913-4.293-4.363s1.903-4.363 4.293-4.363c2.391 0 4.293 1.902 4.293 4.363 0 2.46-1.902 4.363-4.293 4.363zm0-8.995c-2.57 0-4.582 2.022-4.582 4.632s2.012 4.632 4.582 4.632c2.56 0 4.582-2.022 4.582-4.632s-2.012-4.632-4.582-4.632zM171.445-36.94c.149-.05.299-.08.468-.08.518 0 .837.398.837 1.026 0 .737-.429 1.105-1.046 1.105h-.289v.299h.319c.777 0 1.175.378 1.175 1.156 0 .767-.428 1.195-1.135 1.195-.19 0-.329-.02-.459-.06l-.159-.578c-.07-.279-.159-.358-.319-.358-.129 0-.249.08-.299.249.14.667.598 1.036 1.425 1.036.966 0 1.604-.558 1.604-1.455 0-.747-.379-1.235-1.186-1.364.698-.17 1.006-.698 1.006-1.255 0-.738-.468-1.275-1.325-1.275-.637 0-1.245.308-1.374 1.036.03.11.159.169.249.169.169 0 .289-.09.338-.29l.17-.557zm4.074 2.52c-.419 0-.757-.499-.757-1.316 0-.796.299-1.285.757-1.285.488 0 .807.489.807 1.754 0 .15-.01.289-.02.428-.209.259-.458.418-.787.418zm-1.096 2.48c1.634-.389 2.56-1.664 2.56-3.218 0-1.384-.538-2.141-1.454-2.141-.797 0-1.405.637-1.405 1.603 0 1.056.508 1.584 1.215 1.584.399 0 .708-.14.927-.378-.199 1.085-.817 1.902-1.912 2.28l.069.27zm-.568 1.783c-2.39 0-4.293-1.913-4.293-4.363s1.903-4.363 4.293-4.363c2.391 0 4.294 1.902 4.294 4.363 0 2.46-1.903 4.363-4.294 4.363zm0-8.995c-2.57 0-4.582 2.022-4.582 4.632s2.012 4.632 4.582 4.632c2.56 0 4.583-2.022 4.583-4.632s-2.013-4.632-4.583-4.632zM183.369-33.992l1.434-2.46v2.46h-1.434zm2.041-3.228h-.468l-1.962 3.327v.429h1.823v1.384h.607v-1.384h.638v-.528h-.638v-3.228zm2.75 5c-.429 0-.807-.457-.807-2.4 0-1.942.378-2.4.807-2.4.428 0 .807.458.807 2.4 0 1.933-.379 2.4-.807 2.4zm0-5.08c-.797 0-1.465.698-1.465 2.68 0 1.973.668 2.67 1.465 2.67s1.464-.697 1.464-2.67c0-1.982-.667-2.68-1.464-2.68zm-1.773 7.143c-2.391 0-4.294-1.913-4.294-4.363s1.903-4.363 4.294-4.363c2.39 0 4.293 1.902 4.293 4.363 0 2.46-1.903 4.363-4.293 4.363zm0-8.995c-2.57 0-4.582 2.022-4.582 4.632s2.012 4.632 4.582 4.632c2.56 0 4.582-2.022 4.582-4.632s-2.012-4.632-4.582-4.632zM196.199-33.992l1.434-2.46v2.46h-1.434zm2.041-3.228h-.468l-1.962 3.327v.429h1.823v1.384h.607v-1.384h.638v-.528h-.638v-3.228zm2.491 1.186l.04-1.136-.12-.1-1.265.38v.298l.707-.15v2.989c0 .438-.01.896-.01 1.345l-.737.06v.268h2.092v-.269l-.697-.06c0-.448-.01-.906-.01-1.344v-2.281zm-1.813 5.877c-2.391 0-4.293-1.913-4.293-4.363s1.902-4.363 4.293-4.363 4.293 1.902 4.293 4.363c0 2.46-1.902 4.363-4.293 4.363zm0-8.995c-2.57 0-4.582 2.022-4.582 4.632s2.012 4.632 4.582 4.632c2.56 0 4.582-2.022 4.582-4.632s-2.012-4.632-4.582-4.632zM208.431-33.992l1.435-2.46v2.46h-1.435zm2.042-3.228h-.468l-1.963 3.327v.429h1.824v1.384h.607v-1.384h.638v-.528h-.638v-3.228zm1.604 4.553l1.155-1.295c.708-.757 1.086-1.315 1.086-2.013 0-.777-.468-1.324-1.315-1.324-.707 0-1.265.408-1.394 1.085.059.13.159.2.278.2.15 0 .279-.07.369-.35l.209-.607a1.1 1.1 0 0 1 .369-.05c.548 0 .847.449.847 1.056 0 .658-.23 1.136-.827 1.893l-1.275 1.584v.408h2.938v-.587h-2.44zm-.628 2.51c-2.39 0-4.293-1.913-4.293-4.363s1.903-4.363 4.293-4.363c2.391 0 4.293 1.902 4.293 4.363 0 2.46-1.902 4.363-4.293 4.363zm0-8.995c-2.57 0-4.582 2.022-4.582 4.632s2.012 4.632 4.582 4.632c2.56 0 4.582-2.022 4.582-4.632s-2.012-4.632-4.582-4.632zM220.962-33.992l1.435-2.46v2.46h-1.435zm2.042-3.228h-.468l-1.962 3.327v.429h1.823v1.384h.607v-1.384h.638v-.528h-.638v-3.228zm2.022.28c.15-.05.299-.08.469-.08.508 0 .826.398.826 1.026 0 .737-.418 1.105-1.035 1.105h-.29v.299h.309c.787 0 1.176.378 1.176 1.156 0 .767-.419 1.195-1.126 1.195-.189 0-.329-.02-.458-.06l-.159-.578c-.07-.279-.16-.358-.319-.358-.14 0-.259.08-.299.249.13.667.598 1.036 1.415 1.036.966 0 1.613-.558 1.613-1.455 0-.747-.388-1.235-1.195-1.354.707-.18 1.006-.708 1.006-1.265 0-.738-.468-1.275-1.325-1.275-.638 0-1.235.308-1.375 1.036.04.11.16.169.259.169.16 0 .279-.09.339-.29l.169-.557zm-1.045 6.783c-2.391 0-4.294-1.913-4.294-4.363s1.903-4.363 4.294-4.363c2.39 0 4.293 1.902 4.293 4.363 0 2.46-1.903 4.363-4.293 4.363zm0-8.995c-2.57 0-4.583 2.022-4.583 4.632s2.013 4.632 4.583 4.632c2.56 0 4.582-2.022 4.582-4.632s-2.012-4.632-4.582-4.632zM233.444-33.992l1.434-2.46v2.46h-1.434zm2.042-3.228h-.468l-1.963 3.327v.429h1.823v1.384h.608v-1.384h.637v-.528h-.637v-3.228zm1.454 3.228l1.435-2.44v2.44h-1.435zm2.042 0v-3.228h-.458l-1.972 3.327v.429h1.823v1.384h.607v-1.384h.638v-.528h-.638zm-2.47 3.835c-2.391 0-4.294-1.913-4.294-4.363s1.903-4.363 4.294-4.363c2.39 0 4.293 1.902 4.293 4.363 0 2.46-1.903 4.363-4.293 4.363zm0-8.995c-2.57 0-4.582 2.022-4.582 4.632s2.012 4.632 4.582 4.632c2.56 0 4.582-2.022 4.582-4.632s-2.012-4.632-4.582-4.632zM246.025-33.992l1.434-2.46v2.46h-1.434zm2.042-3.228h-.468l-1.963 3.327v.429h1.823v1.384h.608v-1.384h.637v-.528h-.637v-3.228zm1.793.638h2.082v-.588h-2.371l-.149 2.45.189.08c.269-.179.588-.259.887-.259.617 0 1.025.448 1.025 1.345 0 .867-.408 1.315-1.135 1.315-.189 0-.329-.02-.448-.05l-.19-.618c-.069-.259-.159-.338-.318-.338-.15 0-.269.1-.299.269.139.707.667 1.026 1.394 1.026 1.016 0 1.664-.618 1.664-1.664 0-1.036-.598-1.633-1.514-1.633-.329 0-.618.05-.907.179l.09-1.514zm-.817 6.425c-2.391 0-4.293-1.913-4.293-4.363s1.902-4.363 4.293-4.363 4.293 1.902 4.293 4.363c0 2.46-1.902 4.363-4.293 4.363zm0-8.995c-2.57 0-4.582 2.022-4.582 4.632s2.012 4.632 4.582 4.632c2.56 0 4.582-2.022 4.582-4.632s-2.012-4.632-4.582-4.632zM258.506-33.992l1.435-2.46v2.46h-1.435zm2.043-3.228h-.469l-1.962 3.327v.429h1.823v1.384h.608v-1.384h.637v-.528h-.637v-3.228zm1.852 2.939c.269-.438.518-.568.817-.568.458 0 .757.349.757 1.295s-.339 1.315-.727 1.315c-.538 0-.847-.668-.847-1.943v-.1zm2.022-3.018c-1.643.179-2.679 1.633-2.679 3.267 0 1.355.558 2.082 1.474 2.082.787 0 1.385-.628 1.385-1.674 0-1.016-.479-1.554-1.156-1.554-.428 0-.737.17-1.016.548.14-1.185.847-2.171 2.042-2.41l-.05-.26zm-2.849 7.142c-2.39 0-4.293-1.913-4.293-4.363s1.903-4.363 4.293-4.363c2.391 0 4.294 1.902 4.294 4.363 0 2.46-1.903 4.363-4.294 4.363zm0-8.995c-2.57 0-4.582 2.022-4.582 4.632s2.012 4.632 4.582 4.632c2.56 0 4.583-2.022 4.583-4.632s-2.013-4.632-4.583-4.632zM271.187-33.992l1.434-2.46v2.46h-1.434zm2.042-3.228h-.468l-1.962 3.327v.429h1.822v1.384h.608v-1.384h.638v-.528h-.638v-3.228zm.817.658h2.48l-1.932 4.432.05.05h.637l1.683-4.721v-.369h-2.918v.608zm.06 6.405c-2.391 0-4.294-1.913-4.294-4.363s1.903-4.363 4.294-4.363c2.39 0 4.293 1.902 4.293 4.363 0 2.46-1.903 4.363-4.293 4.363zm0-8.995c-2.57 0-4.582 2.022-4.582 4.632s2.012 4.632 4.582 4.632c2.56 0 4.582-2.022 4.582-4.632s-2.012-4.632-4.582-4.632zM283.569-33.992l1.434-2.46v2.46h-1.434zm2.042-3.228h-.468l-1.963 3.327v.429h1.823v1.384h.608v-1.384h.638v-.528h-.638v-3.228zm2.58 5c-.548 0-.906-.417-.906-.985 0-.478.209-.797.766-1.246.857.469 1.056.837 1.056 1.335 0 .548-.328.897-.916.897zm-.747-3.944c0-.518.368-.857.787-.857.488 0 .757.389.757.857 0 .488-.179.797-.658 1.225-.687-.398-.886-.777-.886-1.225zm1.076 1.325c.737-.368.986-.787.986-1.295 0-.658-.448-1.165-1.275-1.165-.747 0-1.325.537-1.325 1.275 0 .657.309 1.095.936 1.464-.717.378-1.095.787-1.095 1.394 0 .728.488 1.216 1.404 1.216.956 0 1.524-.518 1.524-1.285 0-.687-.329-1.136-1.155-1.604zm-1.883 4.682c-2.391 0-4.293-1.913-4.293-4.363s1.902-4.363 4.293-4.363 4.293 1.902 4.293 4.363c0 2.46-1.902 4.363-4.293 4.363zm0-8.995c-2.57 0-4.582 2.022-4.582 4.632s2.012 4.632 4.582 4.632c2.56 0 4.582-2.022 4.582-4.632s-2.012-4.632-4.582-4.632zM296.15-33.992l1.435-2.46v2.46h-1.435zm2.042-3.228h-.468l-1.963 3.327v.429h1.824v1.384h.607v-1.384h.638v-.528h-.638v-3.228zm2.49 2.8c-.418 0-.757-.499-.757-1.316 0-.796.299-1.285.757-1.285.488 0 .807.489.807 1.754 0 .15-.01.289-.02.428-.209.259-.458.418-.787.418zm-1.095 2.48c1.633-.389 2.56-1.664 2.56-3.218 0-1.384-.538-2.141-1.455-2.141-.797 0-1.404.637-1.404 1.603 0 1.056.508 1.584 1.215 1.584.398 0 .707-.14.927-.378-.2 1.085-.817 1.902-1.913 2.28l.07.27zm-.419 1.783c-2.39 0-4.293-1.913-4.293-4.363s1.903-4.363 4.293-4.363c2.391 0 4.293 1.902 4.293 4.363 0 2.46-1.902 4.363-4.293 4.363zm0-8.995c-2.57 0-4.582 2.022-4.582 4.632s2.012 4.632 4.582 4.632c2.56 0 4.582-2.022 4.582-4.632s-2.012-4.632-4.582-4.632zM309.07-36.582h2.072v-.588h-2.361l-.15 2.45.19.08c.259-.179.578-.259.876-.259.618 0 1.036.448 1.036 1.345 0 .867-.418 1.315-1.135 1.315-.19 0-.339-.02-.468-.06l-.18-.608c-.069-.259-.159-.338-.309-.338-.149 0-.269.1-.298.269.129.707.657 1.026 1.384 1.026 1.016 0 1.664-.618 1.664-1.664 0-1.036-.588-1.633-1.514-1.633-.319 0-.608.05-.897.179l.09-1.514zm4.502 4.363c-.428 0-.806-.458-.806-2.401 0-1.942.378-2.4.806-2.4.429 0 .807.458.807 2.4 0 1.933-.378 2.4-.807 2.4zm0-5.08c-.796 0-1.464.697-1.464 2.679 0 1.973.668 2.67 1.464 2.67.797 0 1.464-.697 1.464-2.67 0-1.982-.667-2.68-1.464-2.68zm-1.872 7.142c-2.391 0-4.294-1.913-4.294-4.363s1.903-4.363 4.294-4.363c2.39 0 4.293 1.902 4.293 4.363 0 2.46-1.903 4.363-4.293 4.363zm0-8.995c-2.57 0-4.583 2.022-4.583 4.632s2.013 4.632 4.583 4.632c2.56 0 4.582-2.022 4.582-4.632s-2.012-4.632-4.582-4.632zM11.626-21.55c-.359.37-.628.539-.936.539-.389 0-.638-.24-.638-.668 0-.398.29-.687.757-.856.24-.09.528-.18.817-.25v1.236zm.618-1.713c0-.856-.379-1.215-1.226-1.215-.836 0-1.364.349-1.464.936.04.16.16.24.319.24s.309-.11.338-.389l.06-.448c.19-.07.359-.11.558-.11.558 0 .797.22.797.986v.27c-.299.07-.618.149-.896.229-.917.278-1.275.637-1.275 1.195 0 .587.398.916.946.916.528 0 .827-.239 1.235-.677.07.418.259.657.647.657.3 0 .518-.11.658-.358l-.12-.1c-.12.11-.199.14-.289.14-.179 0-.288-.12-.288-.528v-1.744zm-1.285 5.06c-2.391 0-4.294-1.912-4.294-4.362s1.903-4.363 4.294-4.363c2.39 0 4.293 1.902 4.293 4.363 0 2.46-1.903 4.363-4.293 4.363zm0-8.994c-2.57 0-4.583 2.022-4.583 4.632s2.013 4.632 4.583 4.632c2.56 0 4.582-2.022 4.582-4.632s-2.012-4.632-4.582-4.632zM22.753-23.053c.269-.27.568-.449.916-.449.618 0 1.056.469 1.056 1.484 0 1.106-.468 1.585-1.056 1.585-.358 0-.628-.15-.916-.439v-2.181zm-.01-1.495l.02-1.065-.12-.07-1.116.18v.208l.598.02v3.517c0 .358-.01.906-.01 1.295l-.568.06v.228l1.116.07.07-.508c.328.369.697.548 1.125.548.897 0 1.554-.757 1.554-1.953 0-1.145-.597-1.872-1.474-1.872-.428 0-.846.179-1.195.577v-1.235zm.737 6.346c-2.39 0-4.294-1.913-4.294-4.363s1.903-4.363 4.294-4.363 4.293 1.902 4.293 4.363c0 2.46-1.902 4.363-4.293 4.363zm0-8.995c-2.57 0-4.582 2.022-4.582 4.632s2.012 4.632 4.582 4.632c2.56 0 4.582-2.022 4.582-4.632s-2.012-4.632-4.582-4.632zM36.858-23.711c.03.31.17.389.349.389.159 0 .259-.08.298-.24-.16-.557-.657-.916-1.285-.916-1.016 0-1.882.697-1.882 1.913 0 1.195.777 1.912 1.763 1.912.637 0 1.096-.259 1.404-.707l-.15-.15a1.456 1.456 0 0 1-1.045.449c-.757 0-1.285-.618-1.285-1.564 0-1.036.578-1.624 1.235-1.624.16 0 .31.03.458.08l.14.458zm-.847 5.509c-2.39 0-4.293-1.913-4.293-4.363s1.903-4.363 4.293-4.363 4.293 1.902 4.293 4.363c0 2.46-1.902 4.363-4.293 4.363zm0-8.995c-2.57 0-4.582 2.022-4.582 4.632s2.012 4.632 4.582 4.632c2.56 0 4.582-2.022 4.582-4.632s-2.012-4.632-4.582-4.632zM49.1-20.892c-.269.3-.547.449-.896.449-.608 0-1.076-.519-1.076-1.485 0-1.075.508-1.584 1.145-1.584.32 0 .578.14.827.389v2.231zm.628-3.676l.02-1.045-.11-.07-1.136.18v.208l.618.03v1.923c-.289-.369-.637-.548-1.046-.548-.876 0-1.623.737-1.623 1.962 0 1.146.627 1.873 1.494 1.873.428 0 .827-.16 1.155-.568l.02.498 1.235-.05v-.229l-.627-.07v-4.094zm-1.186 6.366c-2.39 0-4.293-1.913-4.293-4.363s1.903-4.363 4.293-4.363 4.294 1.902 4.294 4.363c0 2.46-1.903 4.363-4.294 4.363zm0-8.995c-2.57 0-4.582 2.022-4.582 4.632s2.012 4.632 4.582 4.632c2.56 0 4.583-2.022 4.583-4.632s-2.013-4.632-4.583-4.632zM60.078-22.824c.04-.857.448-1.425 1.035-1.425.559 0 .877.458.877 1.046 0 .28-.06.379-.259.379h-1.653zm2.33 1.325a1.432 1.432 0 0 1-1.065.438c-.628 0-1.225-.448-1.265-1.524h2.48c.03-.12.05-.25.05-.418 0-.797-.508-1.475-1.454-1.475-.897 0-1.764.687-1.764 1.893 0 1.295.837 1.932 1.773 1.932.578 0 1.086-.239 1.395-.697l-.15-.15zm-1.334 3.297c-2.39 0-4.294-1.913-4.294-4.363s1.903-4.363 4.294-4.363c2.39 0 4.293 1.902 4.293 4.363 0 2.46-1.903 4.363-4.293 4.363zm0-8.995c-2.57 0-4.582 2.022-4.582 4.632s2.012 4.632 4.582 4.632c2.56 0 4.582-2.022 4.582-4.632s-2.012-4.632-4.582-4.632zM72.27-23.571v.258h.648v1.684c0 .428-.01.867-.02 1.305l-.608.05v.239h1.993v-.24l-.708-.06c-.01-.427-.02-.866-.02-1.294v-1.684h1.046v-.308h-1.046c0-.837.12-1.255.369-1.564.09-.11.219-.21.349-.28l.129.09c.209.21.349.29.508.29.22 0 .339-.13.349-.32-.08-.198-.349-.288-.658-.288-.338 0-.747.1-1.096.448-.348.349-.547.847-.587 1.624l-.648.05zm1.335 5.369c-2.39 0-4.293-1.913-4.293-4.363s1.903-4.363 4.293-4.363 4.293 1.902 4.293 4.363c0 2.46-1.902 4.363-4.293 4.363zm0-8.995c-2.57 0-4.582 2.022-4.582 4.632s2.012 4.632 4.582 4.632c2.56 0 4.582-2.022 4.582-4.632s-2.012-4.632-4.582-4.632zM86.077-22.754c-.488 0-.807-.409-.807-1.017 0-.617.319-1.016.807-1.016s.817.399.817 1.016c0 .608-.32 1.017-.817 1.017zm.707 1.593c.528 0 .687.25.687.528 0 .458-.448.817-1.315.817-.806 0-1.215-.279-1.215-.797 0-.309.11-.478.349-.667.179.08.418.12.707.12h.787zm.269-3.556c-.24-.19-.558-.299-.976-.299-.897 0-1.395.528-1.395 1.245 0 .449.2.827.578 1.036-.349.22-.498.468-.498.757 0 .25.12.469.368.618-.358.19-.607.478-.607.857 0 .558.488.976 1.573.976 1.266 0 1.903-.588 1.903-1.265 0-.608-.368-.966-1.225-.966h-.817c-.578 0-.757-.19-.757-.479 0-.149.05-.259.22-.418.189.08.408.12.657.12.886 0 1.394-.528 1.394-1.236 0-.298-.08-.557-.249-.767h.817v-.368l-.13-.08-.856.27zm-.917 6.515c-2.39 0-4.293-1.913-4.293-4.363s1.903-4.363 4.293-4.363 4.294 1.902 4.294 4.363c0 2.46-1.903 4.363-4.294 4.363zm0-8.995c-2.57 0-4.582 2.022-4.582 4.632s2.012 4.632 4.582 4.632c2.56 0 4.583-2.022 4.583-4.632s-2.013-4.632-4.583-4.632zM100.44-22.555c0-.907-.398-1.275-.995-1.275-.449 0-.877.179-1.385.777v-1.435l.02-1.066-.12-.07-1.115.18v.209l.587.03v3.506c0 .369-.01.917-.01 1.305l-.567.05v.23h1.733v-.23l-.498-.05c-.01-.388-.02-.936-.02-1.305v-1.075c.448-.489.867-.638 1.126-.638.378 0 .607.24.607.887v.826c0 .379-.01.917-.02 1.305l-.547.05v.23h1.733v-.23l-.508-.05a56.76 56.76 0 0 1-.02-1.305v-.856zm-1.772 4.353c-2.391 0-4.294-1.913-4.294-4.363s1.903-4.363 4.294-4.363c2.39 0 4.293 1.902 4.293 4.363 0 2.46-1.903 4.363-4.293 4.363zm0-8.995c-2.57 0-4.583 2.022-4.583 4.632s2.013 4.632 4.583 4.632c2.56 0 4.582-2.022 4.582-4.632s-2.012-4.632-4.582-4.632zM111.199-24.807a.39.39 0 0 0 .398-.388c0-.23-.189-.378-.398-.378-.229 0-.408.149-.408.378s.179.388.408.388zm.349 2.013l.019-.967-.099-.05-1.186.24v.199l.608.03c.01.348.02.757.02 1.245v.359c0 .368-.01.916-.01 1.305l-.558.05v.228h1.734v-.229l-.509-.05a58.51 58.51 0 0 1-.019-1.304v-1.056zm-.349 4.592c-2.391 0-4.293-1.913-4.293-4.363s1.902-4.363 4.293-4.363 4.293 1.902 4.293 4.363c0 2.46-1.902 4.363-4.293 4.363zm0-8.995c-2.57 0-4.582 2.022-4.582 4.632s2.012 4.632 4.582 4.632c2.56 0 4.582-2.022 4.582-4.632s-2.012-4.632-4.582-4.632zM123.053-24.209v.2l.598.03c.01.348.02.756.02 1.244v1.375c0 .767-.01 1.514-.19 1.863a.778.778 0 0 1-.269.299l-.08-.09c-.189-.21-.358-.269-.527-.269-.229 0-.379.14-.399.349.08.149.279.289.677.289.309 0 .698-.1 1.017-.469.318-.378.418-.806.418-2.161v-1.883l.01-.966-.1-.05-1.175.24zm.896-2.002c-.209 0-.388.15-.388.378 0 .23.179.389.388.389.219 0 .399-.16.399-.389s-.18-.378-.399-.378zm-.219 8.009c-2.39 0-4.293-1.913-4.293-4.363s1.903-4.363 4.293-4.363c2.391 0 4.293 1.902 4.293 4.363 0 2.46-1.902 4.363-4.293 4.363zm0-8.995c-2.57 0-4.582 2.022-4.582 4.632s2.012 4.632 4.582 4.632c2.56 0 4.582-2.022 4.582-4.632s-2.012-4.632-4.582-4.632zM136.809-22.535l.917-.877.677-.06v-.219h-1.693v.22l.647.06-1.524 1.493v-2.57l.02-1.066-.11-.07-1.135.18v.209l.588.03v3.506c0 .349-.01.917-.01 1.305l-.568.05v.23h1.743v-.23l-.508-.05c-.01-.339-.02-.846-.02-1.215l.538-.508 1.106 2.002h1.106v-.23l-.598-.088-1.176-2.102zm-.547 4.333c-2.391 0-4.294-1.913-4.294-4.363s1.903-4.363 4.294-4.363c2.39 0 4.293 1.902 4.293 4.363 0 2.46-1.903 4.363-4.293 4.363zm0-8.995c-2.57 0-4.583 2.022-4.583 4.632s2.013 4.632 4.583 4.632c2.56 0 4.582-2.022 4.582-4.632s-2.012-4.632-4.582-4.632zM149.132-24.488l.019-1.066-.119-.07-1.126.18v.209l.588.03v3.506c0 .389-.01.907-.01 1.295l-.618.06v.23h1.873v-.23l-.588-.05a64.098 64.098 0 0 1-.019-1.305v-2.789zm-.339 6.286c-2.391 0-4.294-1.913-4.294-4.363s1.903-4.363 4.294-4.363c2.39 0 4.293 1.902 4.293 4.363 0 2.46-1.903 4.363-4.293 4.363zm0-8.995c-2.57 0-4.582 2.022-4.582 4.632s2.012 4.632 4.582 4.632c2.56 0 4.582-2.022 4.582-4.632s-2.012-4.632-4.582-4.632zM164.074-21.001c0-.389-.01-.927-.01-1.295v-.827c0-.926-.339-1.305-1.017-1.305-.438 0-.846.2-1.304.757-.12-.528-.449-.757-.917-.757-.458 0-.847.22-1.305.767l-.03-.657-.099-.06-1.126.239v.199l.598.03c.02.349.02.727.02 1.215v.399c0 .358-.01.906-.01 1.295l-.568.06v.228h1.723v-.229l-.488-.06a58.62 58.62 0 0 1-.02-1.294v-1.116c.408-.438.777-.608 1.066-.608.349 0 .588.26.588.917v.807c0 .368-.01.906-.02 1.295l-.548.06v.228h1.703v-.229l-.498-.06c-.01-.378-.02-.926-.02-1.294v-.857c0-.11-.01-.22-.02-.309.399-.408.757-.558 1.066-.558.359 0 .598.24.598.917v.807c0 .368-.01.906-.02 1.295l-.538.06v.228h1.703v-.229l-.507-.06zm-2.75 2.799c-2.39 0-4.293-1.913-4.293-4.363s1.903-4.363 4.293-4.363c2.391 0 4.293 1.902 4.293 4.363 0 2.46-1.902 4.363-4.293 4.363zm0-8.995c-2.57 0-4.582 2.022-4.582 4.632s2.012 4.632 4.582 4.632c2.56 0 4.582-2.022 4.582-4.632s-2.012-4.632-4.582-4.632zM175.419-23.153c0-.906-.408-1.275-.996-1.275-.438 0-.876.18-1.384.757l-.02-.647-.11-.06-1.125.239v.199l.597.03c.01.349.02.727.02 1.215v.399c0 .358-.01.906-.01 1.295l-.568.06v.228h1.734v-.229l-.498-.06c-.01-.388-.01-.936-.01-1.294v-1.126c.438-.458.856-.598 1.115-.598.379 0 .608.25.608.887v.837c0 .368 0 .906-.01 1.295l-.558.06v.228h1.733v-.229l-.508-.06c-.01-.378-.01-.926-.01-1.294v-.857zm-1.564 4.95c-2.39 0-4.293-1.912-4.293-4.362s1.903-4.363 4.293-4.363c2.391 0 4.294 1.902 4.294 4.363 0 2.46-1.903 4.363-4.294 4.363zm0-8.994c-2.57 0-4.582 2.022-4.582 4.632s2.012 4.632 4.582 4.632c2.56 0 4.583-2.022 4.583-4.632s-2.013-4.632-4.583-4.632zM186.387-20.653c.976 0 1.763-.677 1.763-1.912 0-1.245-.827-1.913-1.763-1.913-.937 0-1.763.678-1.763 1.913 0 1.225.786 1.912 1.763 1.912zm0-.239c-.668 0-1.076-.597-1.076-1.673s.408-1.674 1.076-1.674c.667 0 1.076.598 1.076 1.674s-.409 1.673-1.076 1.673zm0 2.959c2.56 0 4.582-2.022 4.582-4.632s-2.012-4.632-4.582-4.632-4.582 2.022-4.582 4.632 2.012 4.632 4.582 4.632zm0-.27c-2.391 0-4.294-1.912-4.294-4.362s1.903-4.363 4.294-4.363c2.39 0 4.293 1.902 4.293 4.363 0 2.46-1.903 4.363-4.293 4.363zM198.38-24.199c.269-.259.568-.448.916-.448.618 0 1.066.478 1.066 1.494 0 1.106-.488 1.584-1.066 1.584-.368 0-.627-.13-.916-.419v-2.21zm-.04-.727l-.09-.05-1.125.24v.198l.598.03c.02.349.02.727.02 1.215v2.132c0 .379 0 .907-.01 1.345l-.568.07v.229h1.863v-.23l-.648-.079c0-.438-.01-.956-.01-1.335v-.557c.319.368.697.517 1.126.517.886 0 1.544-.757 1.544-1.952 0-1.145-.608-1.873-1.465-1.873-.428 0-.856.18-1.215.588l-.02-.488zm.578 6.724c-2.391 0-4.293-1.913-4.293-4.363s1.902-4.363 4.293-4.363 4.293 1.902 4.293 4.363c0 2.46-1.902 4.363-4.293 4.363zm0-8.995c-2.57 0-4.582 2.022-4.582 4.632s2.012 4.632 4.582 4.632c2.56 0 4.582-2.022 4.582-4.632s-2.012-4.632-4.582-4.632zM212.087-22.018c-.269.29-.538.439-.897.439-.607 0-1.066-.518-1.066-1.494 0-1.066.488-1.584 1.136-1.584.309 0 .578.12.827.359v2.28zm.627-1.892l.03-.996-.189-.05-.419.468c-.318-.368-.667-.538-1.045-.538-.917 0-1.654.728-1.654 1.963 0 1.145.628 1.862 1.494 1.862.429 0 .827-.159 1.166-.557v.657c0 .428-.01.857-.01 1.275l-.638.08v.229h1.843v-.23l-.558-.069c-.01-.428-.02-.857-.02-1.285v-2.809zm-1.265 5.708c-2.39 0-4.293-1.913-4.293-4.363s1.903-4.363 4.293-4.363c2.391 0 4.293 1.902 4.293 4.363 0 2.46-1.902 4.363-4.293 4.363zm0-8.995c-2.57 0-4.582 2.022-4.582 4.632s2.012 4.632 4.582 4.632c2.56 0 4.582-2.022 4.582-4.632s-2.012-4.632-4.582-4.632zM223.901-24.318l-.09-.06-1.135.239v.199l.597.03c.01.349.02.727.02 1.215v.399c0 .358-.01.906-.01 1.295l-.567.06v.228h1.902v-.229l-.677-.07c-.01-.388-.01-.936-.01-1.284v-.698c.209-.528.478-.836.826-.986l.06.05c.16.13.309.2.479.2.239 0 .378-.15.388-.38-.07-.218-.269-.318-.498-.318-.528 0-1.036.379-1.255 1.066l-.03-.956zm.08 6.116c-2.391 0-4.294-1.913-4.294-4.363s1.903-4.363 4.294-4.363c2.39 0 4.293 1.902 4.293 4.363 0 2.46-1.903 4.363-4.293 4.363zm0-8.995c-2.57 0-4.583 2.022-4.583 4.632s2.013 4.632 4.583 4.632c2.56 0 4.582-2.022 4.582-4.632s-2.012-4.632-4.582-4.632zM236.512-22.934c-.508-.18-.707-.359-.707-.677 0-.359.278-.618.777-.618.239 0 .438.03.647.14l.1.647h.348l.03-.737c-.368-.2-.667-.299-1.095-.299-.867 0-1.335.429-1.335 1.046 0 .528.338.867.896 1.046l.379.12c.597.199.747.388.747.697 0 .398-.309.667-.907.667-.309 0-.528-.05-.737-.15l-.109-.716h-.349l.01.836c.369.19.737.28 1.185.28.957 0 1.465-.459 1.465-1.106 0-.509-.259-.817-.937-1.046l-.408-.13zm0 4.732c-2.391 0-4.294-1.913-4.294-4.363s1.903-4.363 4.294-4.363c2.39 0 4.293 1.902 4.293 4.363 0 2.46-1.903 4.363-4.293 4.363zm0-8.995c-2.57 0-4.582 2.022-4.582 4.632s2.012 4.632 4.582 4.632c2.56 0 4.582-2.022 4.582-4.632s-2.012-4.632-4.582-4.632zM249.182-23.82h.957v-.31h-.957l.021-1.135h-.429l-.229 1.136-.697.04v.269h.687v1.763c0 .229-.01.398-.01.588-.01.677.269 1.006.887 1.006.388 0 .657-.13.846-.379l-.099-.13c-.16.1-.299.15-.508.15-.299 0-.469-.2-.469-.647v-2.351zm-.139 5.618c-2.391 0-4.293-1.913-4.293-4.363s1.902-4.363 4.293-4.363 4.293 1.902 4.293 4.363c0 2.46-1.902 4.363-4.293 4.363zm0-8.995c-2.57 0-4.582 2.022-4.582 4.632s2.012 4.632 4.582 4.632c2.56 0 4.582-2.022 4.582-4.632s-2.012-4.632-4.582-4.632zM263.089-23.293l.02-1.055-.09-.09-1.126.13v.209l.558.06-.01 2.29c-.299.379-.677.638-1.056.638-.428 0-.677-.249-.677-.986v-1.196l.03-1.055-.09-.09-1.135.12v.219l.577.06-.03 1.942c-.01 1.046.369 1.394 1.066 1.394.548 0 .976-.318 1.315-.766v.697l1.146-.04v-.23l-.498-.059v-2.192zm-1.515 5.09c-2.39 0-4.293-1.912-4.293-4.362s1.903-4.363 4.293-4.363c2.391 0 4.294 1.902 4.294 4.363 0 2.46-1.903 4.363-4.294 4.363zm0-8.994c-2.57 0-4.582 2.022-4.582 4.632s2.012 4.632 4.582 4.632c2.56 0 4.583-2.022 4.583-4.632s-2.013-4.632-4.583-4.632zM276.008-24.388h-1.384v.229l.567.05-.916 2.62-.966-2.6.548-.07v-.23h-1.733v.23l.488.06 1.314 3.347h.329l1.265-3.357.488-.05v-.23zm-1.902 6.186c-2.391 0-4.294-1.913-4.294-4.363s1.903-4.363 4.294-4.363c2.39 0 4.293 1.902 4.293 4.363 0 2.46-1.903 4.363-4.293 4.363zm0-8.995c-2.57 0-4.582 2.022-4.582 4.632s2.012 4.632 4.582 4.632c2.56 0 4.582-2.022 4.582-4.632s-2.012-4.632-4.582-4.632zM289.536-24.388h-1.385v.229l.588.05-.817 2.58-.857-2.59.489-.04v-.23h-1.564v.23l.508.04-.907 2.62-.817-2.62.568-.04v-.23h-1.693v.23l.458.04 1.155 3.367h.319l.996-2.86 1.046 2.86h.309l1.126-3.357.478-.05v-.23zm-2.899 6.186c-2.391 0-4.293-1.913-4.293-4.363s1.902-4.363 4.293-4.363 4.293 1.902 4.293 4.363c0 2.46-1.902 4.363-4.293 4.363zm0-8.995c-2.57 0-4.582 2.022-4.582 4.632s2.012 4.632 4.582 4.632c2.56 0 4.582-2.022 4.582-4.632s-2.012-4.632-4.582-4.632zM299.487-22.695l1.006-1.384.478-.06v-.22h-1.305v.22l.499.06-.817 1.185-.827-1.195.488-.05v-.22h-1.704v.22l.479.05 1.076 1.593-1.056 1.435-.538.06v.219h1.334v-.22l-.458-.06.857-1.224.847 1.235-.488.05v.219h1.713v-.22l-.468-.06-1.116-1.633zm-.319 4.493c-2.39 0-4.293-1.913-4.293-4.363s1.903-4.363 4.293-4.363c2.391 0 4.293 1.902 4.293 4.363 0 2.46-1.902 4.363-4.293 4.363zm0-8.995c-2.57 0-4.582 2.022-4.582 4.632s2.012 4.632 4.582 4.632c2.56 0 4.582-2.022 4.582-4.632s-2.012-4.632-4.582-4.632zM313.811-24.986h-1.384v.22l.588.07-.957 2.659-.966-2.65.568-.08v-.219h-1.764v.22l.499.06 1.384 3.436-.119.338c-.189.538-.479.917-.797 1.086l-.12-.1c-.189-.159-.318-.219-.488-.219a.386.386 0 0 0-.349.24c.06.228.329.368.658.368.568 0 .976-.438 1.315-1.315l1.434-3.835.498-.06v-.219zm-2.111 6.784c-2.391 0-4.294-1.913-4.294-4.363s1.903-4.363 4.294-4.363c2.39 0 4.293 1.902 4.293 4.363 0 2.46-1.903 4.363-4.293 4.363zm0-8.995c-2.57 0-4.583 2.022-4.583 4.632s2.013 4.632 4.583 4.632c2.56 0 4.582-2.022 4.582-4.632s-2.012-4.632-4.582-4.632zM325.227-21.001h-1.713l2.141-3.148v-.21h-2.799l-.05 1.027.349.03.159-.827h1.624l-2.142 3.147v.2h2.909l.05-1.126h-.349l-.179.907zm-.996 2.799c-2.391 0-4.294-1.913-4.294-4.363s1.903-4.363 4.294-4.363c2.39 0 4.293 1.902 4.293 4.363 0 2.46-1.903 4.363-4.293 4.363zm0-8.995c-2.57 0-4.582 2.022-4.582 4.632s2.012 4.632 4.582 4.632c2.56 0 4.582-2.022 4.582-4.632s-2.012-4.632-4.582-4.632zM9.843-10.121l.887-2.47.956 2.47H9.843zm1.325-3.108H10.7L8.946-8.507l-.727.06v.288h1.753v-.289l-.707-.06.478-1.324h2.052l.518 1.335-.697.05v.288h2.112v-.289L13-8.508l-1.833-4.721zm-.21 6.983c-2.39 0-4.293-1.913-4.293-4.363s1.903-4.363 4.294-4.363c2.39 0 4.293 1.902 4.293 4.363 0 2.46-1.903 4.363-4.293 4.363zm0-8.995c-2.57 0-4.582 2.022-4.582 4.632S8.39-5.977 10.96-5.977c2.56 0 4.582-2.022 4.582-4.632s-2.012-4.632-4.582-4.632zM22.753-8.458c-.01-.717-.01-1.384-.01-2.211h.926c1.026 0 1.484.388 1.484 1.116 0 .707-.498 1.095-1.404 1.095h-.996zm.856-4.462c.997 0 1.295.368 1.295.906 0 .638-.458 1.066-1.314 1.066h-.847c0-.677 0-1.325.01-1.972h.856zm-2.28-.309v.289l.746.06c.01.677.01 1.354.01 2.032v.328c0 .678 0 1.355-.01 2.023l-.747.05v.288h2.401c1.584 0 2.092-.657 2.092-1.384 0-.698-.439-1.216-1.514-1.305.886-.17 1.225-.658 1.225-1.206 0-.687-.448-1.175-1.753-1.175h-2.45zm2.15 6.983c-2.39 0-4.293-1.913-4.293-4.363s1.903-4.363 4.294-4.363 4.293 1.902 4.293 4.363c0 2.46-1.902 4.363-4.293 4.363zm0-8.995c-2.57 0-4.581 2.022-4.581 4.632s2.012 4.632 4.582 4.632c2.56 0 4.582-2.022 4.582-4.632s-2.012-4.632-4.582-4.632zM37.515-8.597c-.328.18-.677.259-1.105.259-1.246 0-2.112-.827-2.112-2.361 0-1.514.837-2.35 2.112-2.35.418 0 .707.06 1.026.228l.169 1.006h.339l-.02-1.145a2.994 2.994 0 0 0-1.544-.399c-1.664 0-2.78 1.007-2.78 2.66 0 1.703 1.166 2.66 2.79 2.66.597 0 1.115-.13 1.603-.438l.04-1.086h-.348l-.17.966zm-1.504 2.35c-2.39 0-4.293-1.912-4.293-4.362s1.903-4.363 4.293-4.363 4.293 1.902 4.293 4.363c0 2.46-1.902 4.363-4.293 4.363zm0-8.994c-2.57 0-4.582 2.022-4.582 4.632s2.012 4.632 4.582 4.632c2.56 0 4.582-2.022 4.582-4.632s-2.012-4.632-4.582-4.632zM47.835-8.458c-.01-.677-.01-1.374-.01-2.062v-.348c0-.688 0-1.375.01-2.052h.548c1.295 0 2.002.697 2.002 2.221 0 1.464-.697 2.241-2.082 2.241h-.468zm-1.424-4.771v.289l.747.06c.01.667.01 1.344.01 2.012v.348c0 .678 0 1.355-.01 2.023l-.747.05v.288h2.032c1.654 0 2.64-.976 2.64-2.55 0-1.604-.977-2.52-2.58-2.52H46.41zm2.131 6.983c-2.39 0-4.293-1.913-4.293-4.363s1.903-4.363 4.293-4.363 4.294 1.902 4.294 4.363c0 2.46-1.903 4.363-4.294 4.363zm0-8.995c-2.57 0-4.582 2.022-4.582 4.632s2.012 4.632 4.582 4.632c2.56 0 4.583-2.022 4.583-4.632s-2.013-4.632-4.583-4.632zM62.717-8.458h-2.29c-.01-.677-.01-1.344-.01-2.131h1.663l.08.647h.269v-1.614h-.27l-.08.658h-1.663c0-.717 0-1.385.01-2.032h2.162l.13.926h.388l-.07-1.225h-3.974v.289l.687.06c.01.667.01 1.344.01 2.012v.348c0 .698 0 1.355-.01 2.023l-.687.05v.288h4.094l.07-1.215h-.379l-.13.916zm-1.643 2.212c-2.39 0-4.294-1.913-4.294-4.363s1.903-4.363 4.294-4.363c2.39 0 4.293 1.902 4.293 4.363 0 2.46-1.903 4.363-4.293 4.363zm0-8.995c-2.57 0-4.582 2.022-4.582 4.632s2.012 4.632 4.582 4.632c2.56 0 4.582-2.022 4.582-4.632s-2.012-4.632-4.582-4.632zM75.647-13.229h-4.014v.289l.687.06c.01.667.01 1.344.01 2.012v.348c0 .678 0 1.365-.01 2.023l-.687.05v.288h2.121v-.289l-.756-.06c-.01-.657-.01-1.334-.01-2.081h1.633l.08.677h.279v-1.644h-.28l-.079.658h-1.633c0-.717 0-1.385.01-2.032h2.21l.13.926h.379l-.07-1.225zm-2.042 6.983c-2.39 0-4.293-1.913-4.293-4.363s1.903-4.363 4.293-4.363 4.293 1.902 4.293 4.363c0 2.46-1.902 4.363-4.293 4.363zm0-8.995c-2.57 0-4.582 2.022-4.582 4.632s2.012 4.632 4.582 4.632c2.56 0 4.582-2.022 4.582-4.632s-2.012-4.632-4.582-4.632zM88.686-10.679h-2.131v.28l.846.069c.01.488.02.996.02 1.464v.329c-.328.149-.657.209-1.046.209-1.155 0-1.972-.857-1.972-2.371 0-1.504.817-2.36 2.002-2.36.419 0 .737.07 1.066.238l.17.996h.358l-.04-1.125c-.478-.279-.996-.409-1.633-.409-1.604 0-2.62 1.056-2.62 2.66 0 1.634 1.036 2.66 2.59 2.66.667 0 1.185-.1 1.773-.458v-.35c0-.557.01-1.045.01-1.483l.607-.07v-.279zm-2.55 4.433c-2.39 0-4.293-1.913-4.293-4.363s1.903-4.363 4.293-4.363 4.294 1.902 4.294 4.363c0 2.46-1.903 4.363-4.294 4.363zm0-8.995c-2.57 0-4.582 2.022-4.582 4.632s2.012 4.632 4.582 4.632c2.56 0 4.583-2.022 4.583-4.632s-2.013-4.632-4.583-4.632zM101.457-13.229h-2.162v.289l.747.06c.01.637.01 1.284.01 1.922h-2.769c0-.647 0-1.285.01-1.923l.747-.06v-.288H95.88v.289l.746.06c.01.667.01 1.344.01 2.012v.348c0 .678 0 1.355-.01 2.023l-.746.05v.288h2.161v-.289l-.747-.05c-.01-.667-.01-1.354-.01-2.151h2.77c0 .807 0 1.494-.01 2.152l-.748.05v.288h2.162v-.289l-.747-.05c-.01-.667-.01-1.354-.01-2.022v-.348c0-.678 0-1.345.01-2.013l.747-.06v-.288zm-2.79 6.983c-2.39 0-4.293-1.913-4.293-4.363s1.903-4.363 4.294-4.363c2.39 0 4.293 1.902 4.293 4.363 0 2.46-1.903 4.363-4.293 4.363zm0-8.995c-2.57 0-4.582 2.022-4.582 4.632s2.013 4.632 4.583 4.632c2.56 0 4.582-2.022 4.582-4.632s-2.012-4.632-4.582-4.632zM112.225-13.229h-2.042v.289l.677.06c.01.667.01 1.344.01 2.012v.348c0 .678 0 1.355-.01 2.023l-.677.05v.288h2.042v-.289l-.687-.05c-.01-.667-.01-1.354-.01-2.022v-.348c0-.678 0-1.345.01-2.013l.687-.06v-.288zm-1.026 6.983c-2.391 0-4.293-1.913-4.293-4.363s1.902-4.363 4.293-4.363 4.293 1.902 4.293 4.363c0 2.46-1.902 4.363-4.293 4.363zm0-8.995c-2.57 0-4.582 2.022-4.582 4.632s2.012 4.632 4.582 4.632c2.56 0 4.582-2.022 4.582-4.632s-2.012-4.632-4.582-4.632zM125.752-13.229h-2.48v.289l.986.07c.01 1.484.02 2.47.02 3.108 0 .966-.488 1.424-1.325 1.424-.259 0-.458-.04-.647-.12l-.16-.458c-.069-.279-.159-.368-.338-.368-.12 0-.229.08-.269.239.129.657.657 1.006 1.524 1.006 1.056 0 1.603-.508 1.763-1.156.08-.318.11-.558.11-1.006v-.687c0-.678 0-1.335.01-1.993l.806-.06v-.288zm-2.022 6.983c-2.39 0-4.293-1.913-4.293-4.363s1.903-4.363 4.293-4.363c2.391 0 4.293 1.902 4.293 4.363 0 2.46-1.902 4.363-4.293 4.363zm0-8.995c-2.57 0-4.582 2.022-4.582 4.632s2.012 4.632 4.582 4.632c2.56 0 4.582-2.022 4.582-4.632s-2.012-4.632-4.582-4.632zM136.55-11.296l1.475-1.575.777-.07v-.288h-1.803v.289l.667.07-2.411 2.57v-.568c0-.678 0-1.345.01-2.013l.688-.06v-.288h-2.112v.289l.747.06c.01.667.01 1.344.01 2.012v.348c0 .678 0 1.355-.01 2.023l-.747.05v.288h2.112v-.289l-.688-.05c-.01-.528-.01-1.045-.01-1.424l.867-.916 1.405 2.35-.608.04v.29h2.052v-.29l-.707-.05-1.714-2.799zm-.288 5.05c-2.391 0-4.294-1.913-4.294-4.363s1.903-4.363 4.294-4.363c2.39 0 4.293 1.902 4.293 4.363 0 2.46-1.903 4.363-4.293 4.363zm0-8.995c-2.57 0-4.583 2.022-4.583 4.632s2.013 4.632 4.583 4.632c2.56 0 4.582-2.022 4.582-4.632s-2.012-4.632-4.582-4.632zM150.536-8.458h-2.351c-.01-.677-.01-1.374-.01-2.062v-.348c0-.678 0-1.345.01-2.013l.817-.06v-.288h-2.231v.289l.747.06c.01.667.01 1.344.01 2.012v.348c0 .678 0 1.355-.01 2.023l-.747.05v.288h4.213l.08-1.345h-.379l-.149 1.046zm-1.743 2.212c-2.391 0-4.294-1.913-4.294-4.363s1.903-4.363 4.294-4.363c2.39 0 4.293 1.902 4.293 4.363 0 2.46-1.903 4.363-4.293 4.363zm0-8.995c-2.57 0-4.582 2.022-4.582 4.632s2.012 4.632 4.582 4.632c2.56 0 4.582-2.022 4.582-4.632s-2.012-4.632-4.582-4.632zM163.675-8.497c-.01-.668-.01-1.355-.01-2.023v-.348c0-.678 0-1.345.01-2.013l.747-.06v-.288h-1.375l-1.703 4.074-1.773-4.074h-1.335v.289l.708.06-.01 4.363-.787.07v.288h1.862v-.289l-.757-.06.01-3.824 1.753 4.173h.249l1.744-4.223v1.862c0 .678-.01 1.355-.02 2.023l-.747.05v.288h2.221v-.289l-.787-.05zm-2.351 2.25c-2.39 0-4.293-1.912-4.293-4.362s1.903-4.363 4.293-4.363c2.391 0 4.293 1.902 4.293 4.363 0 2.46-1.902 4.363-4.293 4.363zm0-8.994c-2.57 0-4.582 2.022-4.582 4.632s2.012 4.632 4.582 4.632c2.56 0 4.582-2.022 4.582-4.632s-2.012-4.632-4.582-4.632zM176.644-13.229h-1.992v.289l.887.05v3.715l-3.088-4.054h-1.325v.289l.747.05.03.05v4.343l-.777.05v.288h1.982v-.289l-.886-.06v-3.914l3.257 4.303h.369v-4.762l.796-.06v-.288zm-2.789 6.983c-2.39 0-4.293-1.913-4.293-4.363s1.903-4.363 4.293-4.363c2.391 0 4.294 1.902 4.294 4.363 0 2.46-1.903 4.363-4.294 4.363zm0-8.995c-2.57 0-4.582 2.022-4.582 4.632s2.012 4.632 4.582 4.632c2.56 0 4.583-2.022 4.583-4.632s-2.013-4.632-4.583-4.632zM184.564-10.689c0-1.365.647-2.36 1.823-2.36 1.175 0 1.823.995 1.823 2.36 0 1.365-.648 2.35-1.823 2.35-1.176 0-1.823-.985-1.823-2.35zm1.823-2.67c-1.435 0-2.511.987-2.511 2.67 0 1.673 1.066 2.65 2.511 2.65 1.444 0 2.51-.977 2.51-2.65 0-1.683-1.066-2.67-2.51-2.67zm0 7.382c2.56 0 4.582-2.022 4.582-4.632s-2.012-4.632-4.582-4.632-4.582 2.022-4.582 4.632 2.012 4.632 4.582 4.632zm0-.27c-2.391 0-4.294-1.912-4.294-4.362s1.903-4.363 4.294-4.363c2.39 0 4.293 1.902 4.293 4.363 0 2.46-1.903 4.363-4.293 4.363zM198.44-10.49v-.378c0-.688 0-1.375.01-2.052h.906c.917 0 1.345.418 1.345 1.175 0 .777-.458 1.255-1.494 1.255h-.767zm-1.415-2.739v.289l.747.06c.01.667.01 1.344.01 2.012v.348c0 .678 0 1.355-.01 2.023l-.747.05v.288h2.261v-.289l-.836-.06c-.01-.587-.01-1.175-.01-1.683h.767c1.514 0 2.132-.637 2.132-1.544 0-.926-.588-1.494-1.973-1.494h-2.341zm1.893 6.983c-2.391 0-4.293-1.913-4.293-4.363s1.902-4.363 4.293-4.363 4.293 1.902 4.293 4.363c0 2.46-1.902 4.363-4.293 4.363zm0-8.995c-2.57 0-4.582 2.022-4.582 4.632s2.012 4.632 4.582 4.632c2.56 0 4.582-2.022 4.582-4.632s-2.012-4.632-4.582-4.632zM211.449-8.876c-1.155 0-1.793-.877-1.793-2.082 0-1.205.638-2.092 1.793-2.092 1.156 0 1.793.887 1.793 2.092s-.637 2.082-1.793 2.082zm2.182 1.036c-.289.15-.528.21-.837.21-.608 0-.986-.36-1.046-.957 1.275-.12 2.192-.976 2.192-2.37 0-1.515-1.066-2.402-2.491-2.402-1.424 0-2.49.887-2.49 2.401 0 1.375.887 2.222 2.122 2.36.03.698.498 1.346 1.574 1.346.378 0 .707-.08 1.105-.33l-.129-.258zm-2.182 1.594c-2.39 0-4.293-1.913-4.293-4.363s1.903-4.363 4.293-4.363c2.391 0 4.293 1.902 4.293 4.363 0 2.46-1.902 4.363-4.293 4.363zm0-8.995c-2.57 0-4.582 2.022-4.582 4.632s2.012 4.632 4.582 4.632c2.56 0 4.582-2.022 4.582-4.632s-2.012-4.632-4.582-4.632zM223.094-10.789c0-.787 0-1.474.02-2.131h.867c.856 0 1.265.338 1.265 1.036 0 .627-.439 1.095-1.206 1.095h-.946zm2.391 1.116c-.17-.548-.309-.857-.907-.966.897-.15 1.325-.678 1.325-1.295 0-.847-.617-1.295-1.743-1.295h-2.461v.289l.737.06c.01.667.01 1.344.01 2.012v.348c0 .678 0 1.355-.01 2.023l-.737.05v.288h2.222v-.289l-.807-.05c-.02-.647-.02-1.314-.02-2.002h.817c.587 0 .707.26.896.767l.429 1.116c.089.379.289.538.816.538.279 0 .459-.03.678-.08v-.289l-.807-.06-.438-1.165zm-1.504 3.427c-2.391 0-4.294-1.913-4.294-4.363s1.903-4.363 4.294-4.363c2.39 0 4.293 1.902 4.293 4.363 0 2.46-1.903 4.363-4.293 4.363zm0-8.995c-2.57 0-4.583 2.022-4.583 4.632s2.013 4.632 4.583 4.632c2.56 0 4.582-2.022 4.582-4.632s-2.012-4.632-4.582-4.632zM236.352-11.157c-.597-.18-.906-.498-.906-.956 0-.618.528-.937 1.275-.937.349 0 .628.07.907.22l.099.856h.389l.039-.976c-.428-.269-.826-.409-1.454-.409-1.046 0-1.853.478-1.853 1.405 0 .727.439 1.215 1.305 1.464l.638.19c.717.209 1.006.518 1.006 1.006 0 .597-.538.946-1.365.946-.448 0-.827-.08-1.185-.25l-.11-.935h-.398l-.05 1.046c.498.298 1.056.448 1.743.448 1.226 0 1.972-.528 1.972-1.445 0-.637-.308-1.155-1.384-1.474l-.668-.2zm.16 4.91c-2.391 0-4.294-1.912-4.294-4.362s1.903-4.363 4.294-4.363c2.39 0 4.293 1.902 4.293 4.363 0 2.46-1.903 4.363-4.293 4.363zm0-8.994c-2.57 0-4.582 2.022-4.582 4.632s2.012 4.632 4.582 4.632c2.56 0 4.582-2.022 4.582-4.632s-2.012-4.632-4.582-4.632zM251.294-13.229h-4.492l-.05 1.325h.379l.119-1.026h1.454c.01.677.01 1.374.01 2.062v.348c0 .678 0 1.355-.01 2.013l-.876.06v.288h2.43v-.289l-.876-.05c-.01-.667-.01-1.354-.01-2.022v-.348c0-.698 0-1.385.01-2.062h1.454l.12 1.026h.378l-.04-1.325zm-2.251 6.983c-2.391 0-4.293-1.913-4.293-4.363s1.902-4.363 4.293-4.363 4.293 1.902 4.293 4.363c0 2.46-1.902 4.363-4.293 4.363zm0-8.995c-2.57 0-4.582 2.022-4.582 4.632s2.012 4.632 4.582 4.632c2.56 0 4.582-2.022 4.582-4.632s-2.012-4.632-4.582-4.632zM264.274-13.229h-1.703v.289l.707.05v2.59c0 1.304-.478 1.832-1.504 1.832-.937 0-1.495-.478-1.495-1.733v-.687c0-.678 0-1.335.01-1.993l.777-.06v-.288h-2.201v.289l.737.06c.01.657.01 1.334.01 1.992v.677c0 1.604.797 2.172 2.012 2.172 1.255 0 1.983-.718 1.983-2.202v-2.65l.667-.05v-.288zm-2.7 6.983c-2.39 0-4.293-1.913-4.293-4.363s1.903-4.363 4.293-4.363c2.391 0 4.294 1.902 4.294 4.363 0 2.46-1.903 4.363-4.294 4.363zm0-8.995c-2.57 0-4.582 2.022-4.582 4.632s2.012 4.632 4.582 4.632c2.56 0 4.583-2.022 4.583-4.632s-2.013-4.632-4.583-4.632zM276.954-13.229h-1.743v.289l.728.06-1.535 4.034-1.544-4.035.788-.06v-.288h-2.192v.289l.697.06 1.853 4.761h.448l1.793-4.762.707-.06v-.288zm-2.848 6.983c-2.391 0-4.294-1.913-4.294-4.363s1.903-4.363 4.294-4.363c2.39 0 4.293 1.902 4.293 4.363 0 2.46-1.903 4.363-4.293 4.363zm0-8.995c-2.57 0-4.582 2.022-4.582 4.632s2.012 4.632 4.582 4.632c2.56 0 4.582-2.022 4.582-4.632s-2.012-4.632-4.582-4.632zM288.52-13.229v.289l.637.06-.966 3.884-1.036-3.875.677-.07v-.288h-1.962v.289l.677.06-1.036 3.864-.976-3.865.628-.06v-.288h-1.893v.289l.558.05 1.285 4.771h.428l1.116-4.144 1.155 4.144h.419l1.235-4.762.638-.06v-.268c.517.717.826 1.613.826 2.6 0 2.46-1.902 4.363-4.293 4.363s-4.293-1.913-4.293-4.363 1.902-4.363 4.293-4.363c1.424 0 2.68.677 3.457 1.743h-1.574zm-1.883-2.012c-2.57 0-4.582 2.022-4.582 4.632s2.012 4.632 4.582 4.632c2.56 0 4.582-2.022 4.582-4.632s-2.012-4.632-4.582-4.632zM299.447-10.828l1.554-2.062.678-.05v-.289h-1.764v.289l.698.05-1.315 1.833-1.255-1.824.657-.06v-.288h-2.012v.289l.657.06 1.564 2.28-1.614 2.113-.727.04v.288h1.823v-.289l-.707-.04 1.385-1.882 1.285 1.873-.628.05v.288h2.042v-.289l-.727-.06-1.594-2.32zm-.279 4.582c-2.39 0-4.293-1.913-4.293-4.363s1.903-4.363 4.293-4.363c2.391 0 4.293 1.902 4.293 4.363 0 2.46-1.902 4.363-4.293 4.363zm0-8.995c-2.57 0-4.582 2.022-4.582 4.632s2.012 4.632 4.582 4.632c2.56 0 4.582-2.022 4.582-4.632s-2.012-4.632-4.582-4.632zM314.379-13.229h-1.833v.289l.727.06-1.314 2.36-1.305-2.36.717-.06v-.289h-2.202v.289l.727.06 1.515 2.71v.248c0 .608 0 .916-.01 1.415l-.857.06v.288h2.391v-.289l-.857-.05c-.01-.508-.01-.826-.01-1.434v-.229l1.534-2.72.777-.06v-.288zM311.7-6.246c-2.391 0-4.294-1.913-4.294-4.363s1.903-4.363 4.294-4.363c2.39 0 4.293 1.902 4.293 4.363 0 2.46-1.903 4.363-4.293 4.363zm0-8.995c-2.57 0-4.583 2.022-4.583 4.632s2.013 4.632 4.583 4.632c2.56 0 4.582-2.022 4.582-4.632s-2.012-4.632-4.582-4.632zM325.835-8.458h-2.859L326.273-13v-.229h-3.955l-.059 1.325h.348l.159-1.026h2.72l-3.297 4.542v.23h4.104l.069-1.316h-.348l-.179 1.016zm-1.604 2.212c-2.391 0-4.294-1.913-4.294-4.363s1.903-4.363 4.294-4.363c2.39 0 4.293 1.902 4.293 4.363 0 2.46-1.903 4.363-4.293 4.363zm0-8.995c-2.57 0-4.582 2.022-4.582 4.632s2.012 4.632 4.582 4.632c2.56 0 4.582-2.022 4.582-4.632s-2.012-4.632-4.582-4.632z"/></svg>