<svg xmlns="http://www.w3.org/2000/svg" width="382.56" height="28.413" viewBox="0 -21.31 286.92 21.31"><path d="M9.813-7.661h2.43v-.23c-.328-.01-.557-.06-.687-.129-.15-.09-.219-.269-.219-.558v-5.16c-.388.21-.897.34-1.524.389v.239c.349.01.568.03.647.05.17.04.26.169.26.388v4.094c0 .23-.03.389-.1.469-.1.129-.379.199-.807.219v.229zm1.116-7.491c-.937 0-1.793.289-2.61.877-1.245.926-1.863 2.131-1.863 3.606 0 .826.22 1.583.638 2.28a4.731 4.731 0 0 0 1.504 1.545 4.338 4.338 0 0 0 2.35.687c.817 0 1.574-.22 2.272-.638a4.734 4.734 0 0 0 1.544-1.504 4.347 4.347 0 0 0 .687-2.36 4.31 4.31 0 0 0-.637-2.262c-.389-.637-.877-1.155-1.504-1.544a4.389 4.389 0 0 0-2.381-.687zm.04.289c.906 0 1.743.289 2.5.866 1.126.857 1.693 1.973 1.693 3.338a4.04 4.04 0 0 1-.657 2.21 4.119 4.119 0 0 1-1.415 1.395 3.943 3.943 0 0 1-2.121.608c-.797 0-1.534-.22-2.222-.658a4.115 4.115 0 0 1-1.394-1.414 3.986 3.986 0 0 1-.608-2.141c0-.788.22-1.515.657-2.202a4.119 4.119 0 0 1 1.415-1.395 4.018 4.018 0 0 1 2.152-.607zm7.96 7.202h4.034v-1.863h-.229c-.03.438-.1.737-.2.916-.139.27-.387.399-.756.399h-2.311c.448-.508 1.056-1.086 1.803-1.714.597-.507 1.006-.916 1.225-1.225.21-.318.319-.647.319-.996 0-.578-.26-1.016-.767-1.315a2.24 2.24 0 0 0-1.136-.289c-.578 0-1.046.18-1.414.548-.3.29-.449.608-.449.966 0 .37.16.548.479.548.299 0 .448-.15.448-.458 0-.19-.09-.329-.28-.418.14-.598.539-.887 1.196-.887.419 0 .727.15.956.459.19.239.28.517.28.836 0 .498-.429 1.176-1.285 2.022-.827.817-1.465 1.514-1.913 2.072v.399zm1.962-7.491c-.936 0-1.793.289-2.61.877-1.245.926-1.862 2.131-1.862 3.606 0 .826.219 1.583.637 2.28a4.73 4.73 0 0 0 1.504 1.545 4.338 4.338 0 0 0 2.351.687c.817 0 1.574-.22 2.271-.638a4.735 4.735 0 0 0 1.545-1.504 4.347 4.347 0 0 0 .687-2.36 4.31 4.31 0 0 0-.638-2.262c-.388-.637-.876-1.155-1.504-1.544a4.389 4.389 0 0 0-2.38-.687zm.04.289c.907 0 1.743.289 2.5.866 1.126.857 1.694 1.973 1.694 3.338a4.04 4.04 0 0 1-.658 2.21 4.119 4.119 0 0 1-1.414 1.395 3.943 3.943 0 0 1-2.122.608c-.797 0-1.534-.22-2.221-.658a4.116 4.116 0 0 1-1.395-1.414 3.987 3.987 0 0 1-.608-2.141c0-.788.22-1.515.658-2.202a4.12 4.12 0 0 1 1.415-1.395 4.019 4.019 0 0 1 2.151-.607zm9.186 3.894v.38h.548c1.085 0 1.623.437 1.623 1.334 0 .458-.169.837-.528 1.106-.259.199-.568.299-.916.299-.677 0-1.106-.22-1.275-.658.17-.1.259-.229.259-.398 0-.1-.03-.2-.09-.29a.52.52 0 0 0-.398-.198c-.33 0-.488.179-.488.537 0 .389.229.718.677.977.389.209.837.318 1.345.318.588 0 1.076-.139 1.464-.428.428-.319.648-.747.648-1.275 0-.897-.598-1.404-1.793-1.534 1.045-.15 1.583-.657 1.583-1.494 0-.508-.249-.897-.727-1.166a2.314 2.314 0 0 0-1.155-.289c-.598 0-1.076.17-1.445.519-.269.239-.398.507-.398.816 0 .359.16.548.478.548.289 0 .428-.14.428-.428 0-.19-.09-.349-.279-.448.15-.469.548-.708 1.196-.708.309 0 .568.08.787.25.299.228.448.537.448.936 0 .458-.17.797-.508 1.026-.25.18-.568.268-.956.268h-.528zm.737-4.183c-.936 0-1.793.289-2.61.877-1.245.926-1.863 2.131-1.863 3.606 0 .826.22 1.583.638 2.28a4.73 4.73 0 0 0 1.504 1.545 4.338 4.338 0 0 0 2.35.687c.818 0 1.574-.22 2.272-.638a4.735 4.735 0 0 0 1.544-1.504 4.347 4.347 0 0 0 .687-2.36 4.31 4.31 0 0 0-.637-2.262c-.389-.637-.877-1.155-1.504-1.544a4.389 4.389 0 0 0-2.381-.687zm.04.289c.906 0 1.743.289 2.5.866 1.126.857 1.694 1.973 1.694 3.338a4.04 4.04 0 0 1-.658 2.21 4.119 4.119 0 0 1-1.415 1.395 3.943 3.943 0 0 1-2.121.608c-.797 0-1.534-.22-2.221-.658a4.116 4.116 0 0 1-1.395-1.414 3.987 3.987 0 0 1-.608-2.141c0-.788.22-1.515.657-2.202a4.12 4.12 0 0 1 1.415-1.395 4.019 4.019 0 0 1 2.152-.607zm10.41 1.125l-3.077 4.005v.368h2.948v.727c0 .22-.03.37-.09.449-.1.13-.368.199-.806.219v.239h2.35v-.24c-.299-.01-.508-.049-.637-.109-.15-.08-.22-.269-.22-.558v-.727h1.276v-.458h-1.275v-3.915h-.469zm-.129.748v3.167h-2.46l2.46-3.167zm-.359-2.162c-.936 0-1.793.289-2.61.877-1.245.926-1.862 2.131-1.862 3.606 0 .826.219 1.583.637 2.28a4.732 4.732 0 0 0 1.504 1.545 4.338 4.338 0 0 0 2.351.687c.817 0 1.574-.22 2.272-.638a4.734 4.734 0 0 0 1.544-1.504 4.346 4.346 0 0 0 .687-2.36c0-.817-.22-1.565-.638-2.262-.388-.637-.876-1.155-1.504-1.544a4.389 4.389 0 0 0-2.38-.687zm.04.289c.907 0 1.743.289 2.5.866 1.126.857 1.694 1.973 1.694 3.338a4.04 4.04 0 0 1-.657 2.21 4.12 4.12 0 0 1-1.415 1.395 3.943 3.943 0 0 1-2.122.608c-.797 0-1.534-.22-2.22-.658a4.115 4.115 0 0 1-1.396-1.414 3.987 3.987 0 0 1-.607-2.141c0-.788.219-1.515.657-2.202a4.119 4.119 0 0 1 1.415-1.395 4.018 4.018 0 0 1 2.151-.607zm8.409 1.225l-.19 3.138.32.13c.418-.608.906-.907 1.434-.907.528 0 .906.239 1.155.697.14.259.21.548.21.896 0 .578-.18 1.046-.558 1.425-.27.269-.578.409-.937.409-.617 0-1.016-.24-1.195-.708.2-.09.299-.229.299-.408 0-.31-.16-.468-.478-.468-.32 0-.488.179-.488.547 0 .31.15.588.448.837.388.329.876.488 1.464.488.747 0 1.325-.279 1.733-.837.27-.378.409-.806.409-1.294 0-.548-.16-.986-.478-1.335-.379-.399-.857-.588-1.445-.588-.538 0-1.006.22-1.424.647l.13-2.111h2.709l.12-.558h-3.238zm1.514-1.514c-.936 0-1.793.289-2.61.877-1.245.926-1.863 2.131-1.863 3.606 0 .826.22 1.583.638 2.28a4.731 4.731 0 0 0 1.504 1.545 4.338 4.338 0 0 0 2.35.687c.818 0 1.575-.22 2.272-.638a4.734 4.734 0 0 0 1.544-1.504 4.347 4.347 0 0 0 .687-2.36 4.31 4.31 0 0 0-.637-2.262 4.553 4.553 0 0 0-1.504-1.544 4.388 4.388 0 0 0-2.381-.687zm.04.289c.906 0 1.743.289 2.5.866 1.126.857 1.694 1.973 1.694 3.338a4.04 4.04 0 0 1-.658 2.21 4.12 4.12 0 0 1-1.414 1.395 3.943 3.943 0 0 1-2.122.608c-.797 0-1.534-.22-2.221-.658a4.114 4.114 0 0 1-1.395-1.414 3.986 3.986 0 0 1-.608-2.141c0-.788.22-1.515.658-2.202a4.118 4.118 0 0 1 1.414-1.395 4.019 4.019 0 0 1 2.152-.607zm8.588 4.213c.03-.757.17-1.364.408-1.823.329-.647.747-.976 1.265-.976.389 0 .648.14.767.419a.45.45 0 0 0-.209.398c0 .29.15.428.458.428.31 0 .449-.159.449-.488 0-.298-.15-.557-.459-.767a1.768 1.768 0 0 0-.996-.279c-.767 0-1.375.379-1.833 1.156-.348.598-.518 1.335-.518 2.201 0 .777.15 1.415.439 1.893.378.628.926.936 1.653.936.777 0 1.335-.338 1.694-1.026.159-.309.229-.647.229-1.026 0-.587-.2-1.046-.598-1.384-.319-.28-.707-.419-1.185-.419-.578 0-1.106.25-1.564.757zm0 .419c0-.03.07-.12.219-.26.14-.139.259-.238.369-.308.268-.18.537-.269.806-.269.488 0 .857.22 1.086.657.12.23.18.508.18.827 0 .508-.12.917-.37 1.255-.228.32-.517.479-.866.479-.468 0-.856-.28-1.125-.827-.21-.419-.3-.937-.3-1.554zm1.335-4.921c-.937 0-1.793.289-2.61.877-1.245.926-1.863 2.131-1.863 3.606 0 .826.219 1.583.638 2.28a4.73 4.73 0 0 0 1.504 1.545 4.338 4.338 0 0 0 2.35.687c.817 0 1.574-.22 2.272-.638a4.734 4.734 0 0 0 1.544-1.504 4.347 4.347 0 0 0 .687-2.36 4.31 4.31 0 0 0-.638-2.262c-.388-.637-.876-1.155-1.504-1.544a4.388 4.388 0 0 0-2.38-.687zm.04.289c.906 0 1.743.289 2.5.866 1.125.857 1.693 1.973 1.693 3.338a4.04 4.04 0 0 1-.657 2.21 4.118 4.118 0 0 1-1.415 1.395 3.942 3.942 0 0 1-2.121.608c-.797 0-1.535-.22-2.222-.658a4.116 4.116 0 0 1-1.395-1.414 3.987 3.987 0 0 1-.607-2.141c0-.788.22-1.515.657-2.202a4.12 4.12 0 0 1 1.415-1.395 4.019 4.019 0 0 1 2.151-.607zm8.189 1.315v2.032h.229c.05-.488.13-.837.22-1.036.139-.309.368-.458.687-.458h2.181c-1.285 2.22-1.932 3.904-1.932 5.07 0 .329.119.488.358.488.23 0 .349-.16.359-.488.07-1.753.647-3.516 1.723-5.31v-.298H68.97zm1.733-1.604c-.936 0-1.793.289-2.61.877-1.245.926-1.862 2.131-1.862 3.606 0 .826.219 1.583.637 2.28a4.73 4.73 0 0 0 1.504 1.545 4.338 4.338 0 0 0 2.351.687c.817 0 1.574-.22 2.271-.638a4.735 4.735 0 0 0 1.544-1.504 4.347 4.347 0 0 0 .688-2.36 4.31 4.31 0 0 0-.638-2.262c-.388-.637-.876-1.155-1.504-1.544a4.389 4.389 0 0 0-2.38-.687zm.04.289c.907 0 1.743.289 2.5.866 1.126.857 1.694 1.973 1.694 3.338a4.04 4.04 0 0 1-.658 2.21 4.119 4.119 0 0 1-1.414 1.395 3.943 3.943 0 0 1-2.122.608c-.797 0-1.534-.22-2.221-.658a4.116 4.116 0 0 1-1.395-1.414 3.987 3.987 0 0 1-.608-2.141c0-.788.22-1.515.658-2.202a4.12 4.12 0 0 1 1.415-1.395 4.019 4.019 0 0 1 2.151-.607zm9.425 4.104c-1.066.368-1.604.916-1.604 1.643 0 .558.279.977.847 1.275.368.19.786.29 1.245.29.578 0 1.066-.14 1.454-.41.438-.308.657-.706.657-1.194 0-.708-.547-1.295-1.653-1.744.906-.328 1.355-.826 1.355-1.484 0-.428-.2-.767-.608-1.036a2.131 2.131 0 0 0-1.145-.319c-.468 0-.867.11-1.196.33-.408.268-.608.637-.608 1.095 0 .598.419 1.125 1.256 1.554zm.637-.29c-.08-.029-.189-.089-.338-.168-.22-.11-.399-.24-.529-.359-.268-.23-.398-.498-.398-.807 0-.388.16-.667.508-.876.2-.12.429-.19.668-.19.398 0 .707.14.936.409.18.209.269.448.269.717 0 .518-.339.936-1.026 1.245-.01 0-.05.02-.09.03zm-.338.42c.01 0 .189.079.527.248.27.14.478.28.648.409.309.249.458.538.458.886 0 .379-.16.697-.498.947-.269.189-.588.289-.946.289-.488 0-.897-.17-1.206-.529a1.176 1.176 0 0 1-.308-.796c0-.598.408-1.066 1.225-1.415l.1-.04zm.199-4.523c-.937 0-1.793.289-2.61.877-1.245.926-1.863 2.131-1.863 3.606 0 .826.22 1.583.638 2.28a4.732 4.732 0 0 0 1.504 1.545 4.338 4.338 0 0 0 2.35.687c.817 0 1.574-.22 2.272-.638a4.735 4.735 0 0 0 1.544-1.504 4.347 4.347 0 0 0 .687-2.36c0-.817-.219-1.565-.637-2.262-.389-.637-.877-1.155-1.504-1.544a4.389 4.389 0 0 0-2.381-.687zm.04.289c.906 0 1.743.289 2.5.866 1.126.857 1.693 1.973 1.693 3.338a4.04 4.04 0 0 1-.657 2.21 4.12 4.12 0 0 1-1.415 1.395 3.943 3.943 0 0 1-2.121.608c-.797 0-1.534-.22-2.222-.658a4.116 4.116 0 0 1-1.394-1.414 3.987 3.987 0 0 1-.608-2.141c0-.788.22-1.515.657-2.202a4.119 4.119 0 0 1 1.415-1.395 4.018 4.018 0 0 1 2.152-.607zm11.327 4.194c-.03.876-.18 1.553-.458 2.031-.31.529-.698.788-1.146.788-.438 0-.737-.18-.886-.549.159-.099.249-.229.249-.398 0-.189-.08-.329-.24-.418a.516.516 0 0 0-.248-.07c-.32 0-.479.18-.479.538 0 .269.12.508.349.717.339.319.767.478 1.275.478.787 0 1.385-.368 1.793-1.115.309-.558.458-1.275.458-2.162 0-.837-.14-1.514-.428-1.992-.359-.618-.897-.917-1.604-.917-.727 0-1.275.3-1.644.887a1.95 1.95 0 0 0-.318 1.106c0 .587.2 1.056.598 1.404.328.289.727.428 1.215.428.627 0 1.126-.249 1.514-.756zm0-.479c-.02.04-.06.12-.13.21-.11.149-.248.279-.408.398-.269.2-.558.299-.867.299-.508 0-.876-.26-1.105-.767-.1-.23-.15-.488-.15-.767 0-.518.14-.937.419-1.255.239-.28.527-.419.866-.419.847 0 1.305.767 1.375 2.301zm-1.405-4.004c-.936 0-1.793.289-2.61.877-1.245.926-1.862 2.131-1.862 3.606 0 .826.219 1.583.637 2.28a4.732 4.732 0 0 0 1.504 1.545 4.338 4.338 0 0 0 2.351.687c.817 0 1.574-.22 2.272-.638a4.734 4.734 0 0 0 1.543-1.504 4.346 4.346 0 0 0 .688-2.36c0-.817-.22-1.565-.638-2.262-.388-.637-.876-1.155-1.504-1.544a4.389 4.389 0 0 0-2.38-.687zm.04.289c.907 0 1.743.289 2.5.866 1.126.857 1.694 1.973 1.694 3.338a4.04 4.04 0 0 1-.657 2.21 4.12 4.12 0 0 1-1.415 1.395 3.943 3.943 0 0 1-2.122.608c-.797 0-1.534-.22-2.221-.658a4.115 4.115 0 0 1-1.395-1.414 3.986 3.986 0 0 1-.608-2.141c0-.788.22-1.515.658-2.202a4.118 4.118 0 0 1 1.415-1.395 4.018 4.018 0 0 1 2.151-.607zM103.566-15.152c-.936 0-1.803.289-2.62.877-1.245.926-1.863 2.131-1.863 3.606 0 .826.22 1.583.638 2.28a4.763 4.763 0 0 0 1.514 1.545 4.28 4.28 0 0 0 2.34.687c.828 0 1.585-.22 2.282-.638a4.696 4.696 0 0 0 1.534-1.504 4.358 4.358 0 0 0 .697-2.36c0-.817-.219-1.565-.637-2.262a4.59 4.59 0 0 0-1.514-1.544 4.331 4.331 0 0 0-2.371-.687zm1.305 7.49h-2.43v-.228c.328-.01.557-.06.677-.13.15-.09.229-.269.229-.558v-4.094c0-.169-.04-.289-.11-.338-.09-.06-.358-.09-.797-.1v-.24c.648-.059 1.156-.189 1.524-.388v5.16c0 .23.03.389.1.469.1.129.378.199.807.219v.229zm8.657-7.49c-.936 0-1.802.289-2.619.877-1.246.926-1.863 2.131-1.863 3.616 0 .816.219 1.573.637 2.28a4.74 4.74 0 0 0 1.515 1.535 4.28 4.28 0 0 0 2.34.687c.827 0 1.584-.22 2.282-.638a4.715 4.715 0 0 0 1.534-1.504 4.35 4.35 0 0 0 .697-2.35c0-.817-.219-1.575-.638-2.272a4.573 4.573 0 0 0-1.514-1.544 4.33 4.33 0 0 0-2.371-.687zm2.063 5.628v1.863h-4.035v-.399a20.776 20.776 0 0 1 1.763-1.912c.957-.947 1.435-1.684 1.435-2.192 0-.348-.11-.637-.329-.886a1.185 1.185 0 0 0-.907-.399c-.667 0-1.065.3-1.195.887.19.1.279.239.279.418 0 .309-.149.458-.448.458-.319 0-.478-.179-.478-.558 0-.338.139-.647.418-.936.369-.378.857-.568 1.454-.568.558 0 1.016.15 1.365.449.359.309.528.697.528 1.165 0 .598-.468 1.295-1.394 2.092-.827.697-1.475 1.315-1.953 1.843h2.311c.299 0 .528-.09.677-.27.16-.198.25-.547.279-1.055h.23zm7.89-5.628c-.936 0-1.793.289-2.61.877-1.245.926-1.862 2.131-1.862 3.606 0 .826.219 1.583.637 2.28a4.732 4.732 0 0 0 1.504 1.545 4.338 4.338 0 0 0 2.351.687c.817 0 1.574-.22 2.271-.638a4.725 4.725 0 0 0 1.544-1.504 4.348 4.348 0 0 0 .688-2.36c0-.817-.22-1.565-.638-2.262a4.554 4.554 0 0 0-1.504-1.544 4.388 4.388 0 0 0-2.381-.687zm-.737 4.562v-.379h.528c.309 0 .568-.06.777-.169.458-.219.687-.587.687-1.116 0-.468-.189-.806-.577-1.015-.2-.11-.419-.18-.668-.18-.637 0-1.036.24-1.185.708.189.109.278.268.278.448 0 .289-.139.428-.428.428-.318 0-.478-.19-.478-.548 0-.358.16-.657.498-.916.369-.28.827-.419 1.345-.419s.946.12 1.295.369c.398.279.588.647.588 1.096 0 .827-.538 1.334-1.584 1.484 1.195.13 1.793.637 1.793 1.534 0 .598-.259 1.056-.787 1.375-.369.219-.807.328-1.325.328-.588 0-1.076-.129-1.464-.388-.379-.25-.558-.548-.558-.907 0-.358.159-.537.488-.537.149 0 .289.07.398.199.06.09.09.189.09.279 0 .189-.09.318-.259.408.169.438.598.658 1.275.658.438 0 .807-.16 1.086-.469a1.38 1.38 0 0 0 .349-.936c0-.897-.538-1.335-1.614-1.335h-.548zm11.058-2.4l-2.46 3.167h2.46v-3.167zm-.358-2.162c-.937 0-1.793.299-2.61.887-1.245.926-1.863 2.131-1.863 3.606 0 .826.219 1.583.638 2.28a4.695 4.695 0 0 0 1.504 1.535 4.348 4.348 0 0 0 2.351.697c.816 0 1.573-.22 2.271-.638a4.776 4.776 0 0 0 1.544-1.514 4.29 4.29 0 0 0 .687-2.35c0-.817-.219-1.575-.637-2.272a4.533 4.533 0 0 0-1.504-1.534 4.403 4.403 0 0 0-2.381-.697zm.488 1.414h.468v3.915h1.275v.458H134.4v.727c0 .23.04.38.1.459.099.12.348.189.757.209v.239h-2.351v-.24c.309-.01.528-.049.667-.109.16-.08.229-.269.229-.558v-.727h-2.948v-.368l3.078-4.005zm9.474-1.414c-.936 0-1.793.289-2.61.877-1.245.926-1.862 2.131-1.862 3.606 0 .826.219 1.583.637 2.28a4.742 4.742 0 0 0 1.504 1.545 4.338 4.338 0 0 0 2.351.687c.817 0 1.574-.22 2.271-.638a4.725 4.725 0 0 0 1.544-1.504 4.34 4.34 0 0 0 .688-2.36c0-.817-.219-1.565-.638-2.262a4.545 4.545 0 0 0-1.504-1.544 4.388 4.388 0 0 0-2.381-.687zm-1.514 1.514h3.238l-.12.558h-2.709l-.13 2.111c.418-.428.897-.647 1.425-.647.597 0 1.085.2 1.454.598.309.349.468.787.468 1.334 0 .748-.279 1.315-.847 1.724-.368.269-.797.398-1.295.398-.597 0-1.085-.169-1.484-.498-.289-.249-.428-.518-.428-.827 0-.368.169-.547.488-.547s.478.159.478.478c0 .189-.099.318-.299.398.17.469.568.708 1.195.708.419 0 .768-.19 1.056-.558.289-.349.429-.767.429-1.276 0-.418-.09-.766-.279-1.045-.259-.379-.628-.558-1.076-.558-.528 0-1.016.309-1.434.916l-.319-.13.189-3.137zm10.142 3.407c-.02.02-.02.239.04.647.05.349.139.638.259.907.269.548.647.827 1.125.827.369 0 .668-.19.907-.568.209-.339.329-.727.329-1.176 0-.388-.09-.707-.269-.966a1.16 1.16 0 0 0-.996-.508c-.518 0-.986.279-1.395.837zm1.335-4.921c-.937 0-1.793.289-2.61.877-1.245.926-1.863 2.131-1.863 3.606 0 .826.219 1.583.638 2.28a4.722 4.722 0 0 0 1.504 1.545 4.338 4.338 0 0 0 2.351.687c.817 0 1.573-.22 2.271-.638a4.735 4.735 0 0 0 1.544-1.504 4.347 4.347 0 0 0 .687-2.36c0-.817-.219-1.565-.637-2.262-.389-.637-.877-1.155-1.504-1.544a4.388 4.388 0 0 0-2.381-.687zm1.106 2.122c-.11-.28-.369-.419-.767-.419-.469 0-.857.28-1.176.807-.309.498-.468 1.166-.498 1.992.458-.508.986-.757 1.574-.757.558 0 1.006.18 1.335.558.299.329.438.747.438 1.255 0 .468-.119.877-.368 1.235-.379.538-.887.807-1.545.807-.737 0-1.285-.308-1.663-.936-.289-.488-.438-1.126-.438-1.893 0-.976.219-1.773.657-2.4.448-.638 1.006-.957 1.694-.957.448 0 .826.13 1.115.389.229.19.339.408.339.657 0 .33-.139.488-.449.488-.308 0-.458-.139-.458-.428 0-.17.07-.309.21-.398zm8.856-2.122c-.936 0-1.792.289-2.609.877-1.246.926-1.863 2.131-1.863 3.606 0 .826.219 1.583.637 2.28A4.742 4.742 0 0 0 161-6.844a4.34 4.34 0 0 0 2.351.687c.817 0 1.574-.22 2.272-.638a4.744 4.744 0 0 0 1.544-1.504 4.347 4.347 0 0 0 .687-2.36c0-.817-.219-1.565-.638-2.272a4.605 4.605 0 0 0-1.504-1.534 4.388 4.388 0 0 0-2.381-.687zm-1.733 1.604h3.825v.299c-1.036 1.723-1.604 3.456-1.713 5.22-.03.378-.15.577-.379.577s-.348-.16-.348-.488c0-1.166.647-2.86 1.932-5.08h-2.181c-.279 0-.468.1-.598.308-.139.21-.249.608-.309 1.186h-.229v-2.022zm11.836 2.5c.049-.01.139-.06.268-.13.16-.08.289-.159.399-.249.309-.259.458-.557.458-.906 0-.428-.189-.747-.588-.956-.189-.1-.398-.16-.617-.16-.339 0-.628.11-.847.319a.96.96 0 0 0-.339.747c0 .508.419.956 1.266 1.335zm-.339.418c-.07.01-.2.08-.389.18a2.35 2.35 0 0 0-.518.328 1.25 1.25 0 0 0-.418.947c0 .338.14.647.408.906.289.279.658.419 1.086.419.468 0 .857-.15 1.146-.449.209-.229.309-.498.309-.797 0-.528-.489-1.016-1.455-1.454-.02-.01-.04-.03-.079-.04a.493.493 0 0 0-.09-.04zm.199-4.522c-.936 0-1.793.289-2.61.877-1.245.926-1.863 2.131-1.863 3.606 0 .826.219 1.583.638 2.28a4.722 4.722 0 0 0 1.504 1.545 4.338 4.338 0 0 0 2.351.687c.817 0 1.574-.22 2.271-.638a4.725 4.725 0 0 0 1.544-1.504 4.347 4.347 0 0 0 .687-2.36c0-.817-.219-1.565-.637-2.262-.389-.637-.877-1.155-1.504-1.544a4.388 4.388 0 0 0-2.381-.687zm.448 4.253c1.106.439 1.654 1.026 1.654 1.744 0 .557-.269.986-.797 1.295-.369.209-.807.308-1.315.308-.588 0-1.076-.149-1.484-.438-.409-.299-.608-.677-.608-1.126 0-.727.538-1.275 1.604-1.643-.837-.419-1.255-.946-1.255-1.564 0-.508.249-.897.737-1.166.299-.169.657-.249 1.066-.249.508 0 .936.14 1.285.409.319.259.468.578.468.966 0 .648-.448 1.136-1.355 1.464zm10.919-.249c.02-.03.01-.239-.04-.627a3.184 3.184 0 0 0-.259-.887c-.249-.518-.607-.787-1.066-.787-.418 0-.747.21-.996.608a1.962 1.962 0 0 0-.289 1.066c0 .438.12.806.349 1.106.239.288.538.438.906.438.578 0 1.036-.31 1.395-.917zm-1.405-4.004c-.936 0-1.792.289-2.609.877-1.246.926-1.863 2.131-1.863 3.606 0 .826.219 1.583.637 2.28a4.735 4.735 0 0 0 1.505 1.545 4.337 4.337 0 0 0 2.35.687c.817 0 1.574-.22 2.272-.638a4.744 4.744 0 0 0 1.544-1.504 4.347 4.347 0 0 0 .687-2.36c0-.817-.219-1.565-.638-2.262a4.545 4.545 0 0 0-1.504-1.544 4.388 4.388 0 0 0-2.381-.687zm-1.085 6.753c.159.37.458.549.886.549.449 0 .827-.26 1.136-.768.279-.468.428-1.145.468-2.051-.388.507-.886.756-1.504.756-.608 0-1.086-.219-1.435-.637-.258-.319-.388-.717-.388-1.195 0-.678.249-1.196.727-1.574.349-.28.767-.419 1.245-.419.777 0 1.335.369 1.684 1.106.229.458.339 1.066.339 1.803 0 .976-.18 1.753-.548 2.321-.409.638-.977.956-1.704.956-.567 0-1.026-.189-1.364-.567-.17-.21-.259-.419-.259-.628 0-.359.159-.538.478-.538.199 0 .339.09.428.259.04.07.06.16.06.239 0 .16-.09.29-.249.388zM195.098-7.761h2.39v-.23c-.319-.01-.538-.039-.657-.098-.16-.08-.239-.27-.239-.558v-4.971c-.379.2-.877.329-1.494.379v.229c.388.01.607.02.677.03.139.03.209.159.209.388v3.945c0 .209-.03.368-.1.458-.099.12-.368.189-.786.199v.229zm1.095-6.923c-.906 0-1.733.299-2.48.906-1.016.817-1.524 1.863-1.524 3.119 0 .856.269 1.643.787 2.35.378.498.816.897 1.355 1.195a3.853 3.853 0 0 0 1.892.489c.847 0 1.634-.27 2.341-.787a4.306 4.306 0 0 0 1.195-1.355 3.854 3.854 0 0 0 .489-1.892c0-.847-.27-1.634-.787-2.341a4.32 4.32 0 0 0-1.355-1.196 3.85 3.85 0 0 0-1.913-.488zm.05.25c.867 0 1.654.288 2.361.876.936.767 1.404 1.733 1.404 2.908 0 .827-.259 1.564-.767 2.242-.358.468-.777.846-1.295 1.105a3.681 3.681 0 0 1-1.713.439 3.672 3.672 0 0 1-2.281-.777 4.03 4.03 0 0 1-1.096-1.295 3.58 3.58 0 0 1-.428-1.714c0-.826.259-1.584.777-2.26a3.785 3.785 0 0 1 1.295-1.097 3.588 3.588 0 0 1 1.743-.428zm-.05-.897c-1.026 0-1.952.328-2.799.986-1.235.956-1.853 2.181-1.853 3.676 0 .976.269 1.852.837 2.66a5.04 5.04 0 0 0 1.554 1.414 4.487 4.487 0 0 0 2.281.617c.966 0 1.843-.269 2.65-.836a4.99 4.99 0 0 0 1.414-1.545 4.528 4.528 0 0 0 .618-2.3c0-.967-.269-1.834-.837-2.64a4.798 4.798 0 0 0-1.554-1.415 4.542 4.542 0 0 0-2.311-.617zm.05.229c.996 0 1.893.338 2.719.986 1.136.906 1.704 2.052 1.704 3.457a4.3 4.3 0 0 1-.837 2.56 4.63 4.63 0 0 1-1.464 1.314 4.302 4.302 0 0 1-4.702-.259 4.65 4.65 0 0 1-1.315-1.464 4.294 4.294 0 0 1 .259-4.702 4.648 4.648 0 0 1 1.465-1.314 4.34 4.34 0 0 1 2.171-.578zm7.99 7.341h3.945v-1.763h-.229c-.02.398-.07.667-.15.837-.119.249-.378.388-.776.388h-2.232c.418-.468.996-1.016 1.743-1.633.528-.439.897-.797 1.096-1.056.269-.349.399-.717.399-1.126 0-.518-.23-.926-.668-1.215a2.192 2.192 0 0 0-1.185-.319c-.568 0-1.006.18-1.355.528-.289.289-.438.608-.438.976 0 .359.149.548.468.548.299 0 .448-.15.448-.458 0-.19-.08-.319-.269-.409.11-.587.478-.886 1.136-.886.408 0 .717.15.946.458.159.22.239.478.239.787 0 .508-.418 1.155-1.245 1.972-.857.827-1.484 1.494-1.873 1.973v.398zm1.923-6.923c-.907 0-1.733.299-2.481.906-1.016.817-1.524 1.863-1.524 3.119 0 .856.269 1.643.787 2.35a4.32 4.32 0 0 0 1.355 1.195 3.856 3.856 0 0 0 1.893.489c.846 0 1.633-.27 2.341-.787a4.319 4.319 0 0 0 1.195-1.355 3.853 3.853 0 0 0 .488-1.892c0-.847-.269-1.634-.787-2.341a4.32 4.32 0 0 0-1.355-1.196 3.846 3.846 0 0 0-1.912-.488zm.05.25c.866 0 1.653.288 2.36.876.937.767 1.405 1.733 1.405 2.908 0 .827-.259 1.564-.767 2.242-.359.468-.777.846-1.295 1.105a3.681 3.681 0 0 1-1.713.439 3.677 3.677 0 0 1-2.282-.777 4.027 4.027 0 0 1-1.095-1.295 3.582 3.582 0 0 1-.429-1.714c0-.826.259-1.584.778-2.26a3.782 3.782 0 0 1 1.294-1.097 3.59 3.59 0 0 1 1.744-.428zm-.05-.897c-1.026 0-1.952.328-2.799.986-1.235.956-1.853 2.181-1.853 3.676 0 .976.269 1.852.837 2.66a5.036 5.036 0 0 0 1.553 1.414 4.494 4.494 0 0 0 2.282.617c.966 0 1.843-.269 2.649-.836a5.006 5.006 0 0 0 1.415-1.545 4.538 4.538 0 0 0 .618-2.3c0-.967-.269-1.834-.837-2.64a4.818 4.818 0 0 0-1.554-1.415 4.542 4.542 0 0 0-2.311-.617zm.05.229c.996 0 1.892.338 2.719.986 1.136.906 1.704 2.052 1.704 3.457 0 .926-.28 1.782-.837 2.56a4.644 4.644 0 0 1-1.465 1.314 4.3 4.3 0 0 1-4.701-.259 4.638 4.638 0 0 1-1.315-1.464 4.296 4.296 0 0 1 .259-4.702 4.633 4.633 0 0 1 1.464-1.314 4.344 4.344 0 0 1 2.172-.578zm9.195 4.153v.36h.538c1.046 0 1.564.427 1.564 1.294 0 .468-.179.837-.548 1.096-.239.17-.518.249-.837.249-.657 0-1.075-.22-1.245-.638.16-.09.249-.219.249-.388 0-.08-.03-.17-.079-.25a.467.467 0 0 0-.409-.218c-.309 0-.458.179-.458.538 0 .358.199.657.618.906.368.22.816.339 1.334.339.598 0 1.076-.14 1.445-.419.418-.309.617-.717.617-1.225 0-.866-.567-1.364-1.733-1.484 1.026-.15 1.534-.628 1.534-1.445 0-.488-.239-.886-.727-1.155a2.376 2.376 0 0 0-1.126-.259c-.578 0-1.036.18-1.394.518-.249.22-.369.468-.369.757 0 .359.15.548.458.548.289 0 .429-.14.429-.429 0-.169-.08-.308-.269-.418.129-.448.508-.677 1.145-.677.329 0 .598.09.807.269.259.219.389.508.389.866 0 .419-.15.748-.449.977-.249.199-.567.288-.976.288h-.508zm.717-3.735c-.906 0-1.733.299-2.48.906-1.016.817-1.524 1.863-1.524 3.119 0 .856.269 1.643.787 2.35a4.32 4.32 0 0 0 1.355 1.195 3.853 3.853 0 0 0 1.892.489c.847 0 1.634-.27 2.341-.787a4.322 4.322 0 0 0 1.196-1.355 3.864 3.864 0 0 0 .488-1.892c0-.847-.269-1.634-.787-2.341a4.32 4.32 0 0 0-1.355-1.196 3.85 3.85 0 0 0-1.913-.488zm.05.25c.867 0 1.654.288 2.361.876.936.767 1.405 1.733 1.405 2.908 0 .827-.259 1.564-.768 2.242-.358.468-.776.846-1.295 1.105a3.678 3.678 0 0 1-1.713.439 3.674 3.674 0 0 1-2.281-.777 4.03 4.03 0 0 1-1.096-1.295 3.58 3.58 0 0 1-.428-1.714c0-.826.259-1.584.777-2.26a3.794 3.794 0 0 1 1.295-1.097 3.588 3.588 0 0 1 1.743-.428zm-.05-.897c-1.026 0-1.952.328-2.799.986-1.235.956-1.853 2.181-1.853 3.676 0 .976.269 1.852.837 2.66a5.05 5.05 0 0 0 1.554 1.414 4.487 4.487 0 0 0 2.281.617c.967 0 1.843-.269 2.65-.836a4.99 4.99 0 0 0 1.414-1.545 4.528 4.528 0 0 0 .618-2.3c0-.967-.269-1.834-.837-2.64a4.805 4.805 0 0 0-1.553-1.415 4.548 4.548 0 0 0-2.312-.617zm.05.229c.996 0 1.893.338 2.72.986 1.135.906 1.703 2.052 1.703 3.457a4.3 4.3 0 0 1-.837 2.56 4.63 4.63 0 0 1-1.464 1.314 4.302 4.302 0 0 1-4.702-.259 4.65 4.65 0 0 1-1.315-1.464 4.306 4.306 0 0 1-.578-2.151c0-.917.28-1.774.837-2.55a4.648 4.648 0 0 1 1.465-1.315 4.34 4.34 0 0 1 2.171-.578zm10.401 1.464l-3.028 3.855v.369h2.899v.687c0 .22-.03.378-.1.458-.1.11-.349.17-.757.19v.219h2.271v-.22c-.279-.01-.478-.06-.598-.12-.149-.069-.219-.238-.219-.527v-.687h1.215v-.449h-1.215v-3.775h-.468zm-.129.737v3.038h-2.411l2.411-3.038zm-.359-1.783c-.906 0-1.733.299-2.48.906-1.016.817-1.525 1.863-1.525 3.119 0 .856.27 1.643.787 2.35a4.32 4.32 0 0 0 1.355 1.195 3.856 3.856 0 0 0 1.893.489c.846 0 1.634-.27 2.341-.787a4.319 4.319 0 0 0 1.195-1.355 3.853 3.853 0 0 0 .488-1.892c0-.847-.269-1.634-.787-2.341a4.31 4.31 0 0 0-1.355-1.196 3.846 3.846 0 0 0-1.912-.488zm.05.25c.866 0 1.653.288 2.36.876.937.767 1.405 1.733 1.405 2.908 0 .827-.259 1.564-.767 2.242-.358.468-.777.846-1.295 1.105a3.681 3.681 0 0 1-1.713.439 3.672 3.672 0 0 1-2.281-.777 4.017 4.017 0 0 1-1.096-1.295 3.58 3.58 0 0 1-.428-1.714c0-.826.259-1.584.777-2.26a3.79 3.79 0 0 1 1.294-1.097 3.592 3.592 0 0 1 1.744-.428zm-.05-.897c-1.026 0-1.952.328-2.799.986-1.235.956-1.853 2.181-1.853 3.676 0 .976.269 1.852.837 2.66a5.028 5.028 0 0 0 1.554 1.414 4.487 4.487 0 0 0 2.281.617c.966 0 1.843-.269 2.65-.836a5.015 5.015 0 0 0 1.414-1.545 4.538 4.538 0 0 0 .618-2.3c0-.967-.269-1.834-.837-2.64a4.808 4.808 0 0 0-1.554-1.415 4.542 4.542 0 0 0-2.311-.617zm.05.229c.996 0 1.892.338 2.719.986 1.136.906 1.704 2.052 1.704 3.457a4.3 4.3 0 0 1-.837 2.56 4.644 4.644 0 0 1-1.465 1.314 4.3 4.3 0 0 1-4.701-.259 4.65 4.65 0 0 1-1.315-1.464 4.296 4.296 0 0 1 .259-4.702 4.633 4.633 0 0 1 1.464-1.314 4.344 4.344 0 0 1 2.172-.578zm8.438 1.563l-.179 3.039.319.12c.418-.579.886-.867 1.394-.867.498 0 .867.219 1.106.657.139.25.209.538.209.877 0 .568-.189 1.026-.558 1.374-.259.25-.557.379-.896.379-.598 0-.966-.23-1.136-.668.179-.08.269-.209.269-.388 0-.299-.149-.448-.458-.448-.319 0-.478.179-.478.518 0 .308.149.587.458.837.369.298.837.448 1.395.448.548 0 1.016-.17 1.404-.508.458-.389.688-.917.688-1.554 0-.528-.16-.956-.478-1.295-.369-.379-.827-.568-1.395-.568-.508 0-.956.21-1.375.617l.11-2.031h2.66l.099-.539h-3.158zm1.474-1.145c-.906 0-1.733.299-2.48.906-1.016.817-1.524 1.863-1.524 3.119 0 .856.269 1.643.787 2.35a4.32 4.32 0 0 0 1.355 1.195 3.853 3.853 0 0 0 1.892.489c.847 0 1.634-.27 2.341-.787a4.31 4.31 0 0 0 1.196-1.355 3.864 3.864 0 0 0 .488-1.892c0-.847-.269-1.634-.787-2.341a4.32 4.32 0 0 0-1.355-1.196 3.85 3.85 0 0 0-1.913-.488zm.05.25c.867 0 1.654.288 2.361.876.937.767 1.405 1.733 1.405 2.908 0 .827-.259 1.564-.767 2.242-.359.468-.777.846-1.295 1.105a3.685 3.685 0 0 1-1.714.439 3.676 3.676 0 0 1-2.281-.777 4.027 4.027 0 0 1-1.095-1.295 3.57 3.57 0 0 1-.429-1.714c0-.826.259-1.584.777-2.26a3.794 3.794 0 0 1 1.295-1.097 3.588 3.588 0 0 1 1.743-.428zm-.05-.897c-1.025 0-1.952.328-2.799.986-1.235.956-1.852 2.181-1.852 3.676 0 .976.269 1.852.836 2.66a5.05 5.05 0 0 0 1.554 1.414 4.49 4.49 0 0 0 2.281.617c.967 0 1.843-.269 2.65-.836a5.006 5.006 0 0 0 1.415-1.545 4.537 4.537 0 0 0 .617-2.3c0-.967-.269-1.834-.837-2.64a4.805 4.805 0 0 0-1.553-1.415 4.545 4.545 0 0 0-2.312-.617zm.05.229c.996 0 1.893.338 2.72.986 1.135.906 1.703 2.052 1.703 3.457a4.3 4.3 0 0 1-.837 2.56 4.63 4.63 0 0 1-1.464 1.314 4.302 4.302 0 0 1-4.702-.259 4.662 4.662 0 0 1-1.315-1.464 4.305 4.305 0 0 1-.577-2.151c0-.917.279-1.774.837-2.55a4.633 4.633 0 0 1 1.464-1.315 4.34 4.34 0 0 1 2.171-.578zm8.628 4.452c.03-.737.169-1.334.398-1.773.31-.617.718-.926 1.236-.926.368 0 .617.14.737.408a.42.42 0 0 0-.199.359c0 .289.149.428.438.428.299 0 .448-.16.448-.478 0-.219-.119-.428-.329-.627a1.546 1.546 0 0 0-1.056-.389c-.786 0-1.394.399-1.842 1.185-.329.558-.488 1.246-.488 2.052 0 .817.159 1.455.488 1.933.368.538.886.817 1.534.817.787 0 1.354-.359 1.693-1.076.13-.289.2-.598.2-.917 0-.567-.2-.996-.588-1.324-.309-.27-.687-.399-1.146-.399-.548 0-1.056.24-1.524.727zm0 .399c0-.03.07-.11.209-.24.14-.129.269-.228.369-.298.269-.17.518-.26.767-.26.398 0 .717.16.946.47.189.248.279.557.279.955 0 .479-.119.887-.358 1.216-.229.309-.509.458-.837.458-.578 0-.977-.379-1.206-1.156a3.758 3.758 0 0 1-.169-1.145zm1.285-4.433c-.906 0-1.733.299-2.48.906-1.016.817-1.524 1.863-1.524 3.119 0 .856.269 1.643.787 2.35.378.498.816.897 1.355 1.195a3.853 3.853 0 0 0 1.892.489c.847 0 1.634-.27 2.341-.787a4.306 4.306 0 0 0 1.195-1.355 3.853 3.853 0 0 0 .488-1.892c0-.847-.269-1.634-.786-2.341a4.32 4.32 0 0 0-1.355-1.196 3.85 3.85 0 0 0-1.913-.488zm.05.25c.867 0 1.653.288 2.361.876.936.767 1.404 1.733 1.404 2.908 0 .827-.259 1.564-.767 2.242-.358.468-.777.846-1.295 1.105a3.681 3.681 0 0 1-1.713.439 3.672 3.672 0 0 1-2.281-.777 4.03 4.03 0 0 1-1.096-1.295 3.58 3.58 0 0 1-.428-1.714c0-.826.259-1.584.777-2.26a3.785 3.785 0 0 1 1.295-1.097 3.588 3.588 0 0 1 1.743-.428zm-.05-.897c-1.026 0-1.952.328-2.799.986-1.235.956-1.853 2.181-1.853 3.676 0 .976.269 1.852.837 2.66a5.028 5.028 0 0 0 1.554 1.414 4.487 4.487 0 0 0 2.281.617c.966 0 1.843-.269 2.65-.836a4.99 4.99 0 0 0 1.414-1.545 4.528 4.528 0 0 0 .618-2.3c0-.967-.269-1.834-.837-2.64a4.798 4.798 0 0 0-1.554-1.415 4.542 4.542 0 0 0-2.311-.617zm.05.229c.996 0 1.893.338 2.719.986 1.136.906 1.704 2.052 1.704 3.457a4.3 4.3 0 0 1-.837 2.56 4.64 4.64 0 0 1-1.464 1.314 4.3 4.3 0 0 1-4.702-.259 4.65 4.65 0 0 1-1.315-1.464 4.294 4.294 0 0 1 .259-4.702 4.655 4.655 0 0 1 1.464-1.314 4.347 4.347 0 0 1 2.172-.578zm8.229 1.653v1.963h.22c.049-.488.129-.837.229-1.026.129-.28.338-.419.637-.419h2.142c-1.255 2.132-1.883 3.756-1.883 4.881 0 .319.11.478.339.478.219 0 .338-.159.348-.488.06-1.633.628-3.327 1.714-5.09v-.299h-3.746zm1.684-1.235c-.907 0-1.734.299-2.481.906-1.016.817-1.524 1.863-1.524 3.119 0 .856.269 1.643.787 2.35a4.32 4.32 0 0 0 1.355 1.195 3.856 3.856 0 0 0 1.893.489c.846 0 1.633-.27 2.341-.787a4.319 4.319 0 0 0 1.195-1.355 3.853 3.853 0 0 0 .488-1.892c0-.847-.269-1.634-.787-2.341a4.32 4.32 0 0 0-1.355-1.196 3.846 3.846 0 0 0-1.912-.488zm.05.25c.866 0 1.653.288 2.36.876.937.767 1.405 1.733 1.405 2.908 0 .827-.259 1.564-.767 2.242-.359.468-.777.846-1.295 1.105a3.685 3.685 0 0 1-1.713.439 3.677 3.677 0 0 1-2.282-.777 4.027 4.027 0 0 1-1.095-1.295 3.582 3.582 0 0 1-.429-1.714c0-.826.259-1.584.777-2.26a3.794 3.794 0 0 1 1.295-1.097 3.59 3.59 0 0 1 1.744-.428zm-.05-.897c-1.026 0-1.953.328-2.799.986-1.235.956-1.853 2.181-1.853 3.676 0 .976.269 1.852.837 2.66a5.036 5.036 0 0 0 1.553 1.414 4.494 4.494 0 0 0 2.282.617c.966 0 1.842-.269 2.649-.836a5.006 5.006 0 0 0 1.415-1.545 4.537 4.537 0 0 0 .617-2.3c0-.967-.269-1.834-.836-2.64a4.818 4.818 0 0 0-1.554-1.415 4.544 4.544 0 0 0-2.311-.617zm.05.229c.996 0 1.892.338 2.719.986 1.136.906 1.703 2.052 1.703 3.457 0 .926-.279 1.782-.836 2.56a4.644 4.644 0 0 1-1.465 1.314 4.297 4.297 0 0 1-4.701-.259 4.638 4.638 0 0 1-1.315-1.464 4.296 4.296 0 0 1 .259-4.702 4.633 4.633 0 0 1 1.464-1.314 4.342 4.342 0 0 1 2.172-.578zm9.424 4.353c-1.036.329-1.544.856-1.544 1.574 0 .537.269.956.817 1.245.349.179.747.269 1.205.269.598 0 1.076-.15 1.465-.438.388-.29.577-.668.577-1.136 0-.668-.537-1.225-1.623-1.664.896-.309 1.354-.787 1.354-1.414 0-.428-.199-.767-.607-1.016-.309-.21-.688-.319-1.126-.319-.468 0-.866.13-1.195.369-.359.269-.548.607-.548 1.025 0 .588.408 1.086 1.225 1.505zm.618-.28c-.07-.02-.19-.079-.349-.169-.209-.099-.368-.229-.508-.358-.249-.22-.378-.468-.378-.767 0-.309.129-.568.368-.767.209-.17.468-.26.787-.26.349 0 .638.12.867.35.199.209.288.458.288.727 0 .508-.338.916-1.015 1.215l-.06.03zm-.309.39c.06.02.239.109.518.248.249.13.448.26.608.399.288.239.428.518.428.837 0 .418-.189.747-.568.986-.229.15-.498.219-.807.219-.418 0-.767-.13-1.056-.389a1.204 1.204 0 0 1-.408-.906c0-.578.399-1.026 1.215-1.365l.07-.03zm.179-4.045c-.906 0-1.733.299-2.48.906-1.016.817-1.524 1.863-1.524 3.119 0 .856.269 1.643.787 2.35a4.31 4.31 0 0 0 1.355 1.195 3.853 3.853 0 0 0 1.892.489c.847 0 1.634-.27 2.341-.787a4.306 4.306 0 0 0 1.195-1.355 3.854 3.854 0 0 0 .489-1.892c0-.847-.27-1.634-.787-2.341a4.32 4.32 0 0 0-1.355-1.196 3.85 3.85 0 0 0-1.913-.488zm.05.25c.867 0 1.654.288 2.361.876.936.767 1.404 1.733 1.404 2.908 0 .827-.259 1.564-.767 2.242-.358.468-.777.846-1.295 1.105a3.681 3.681 0 0 1-1.713.439 3.672 3.672 0 0 1-2.281-.777 4.03 4.03 0 0 1-1.096-1.295 3.58 3.58 0 0 1-.428-1.714c0-.826.259-1.584.777-2.26a3.785 3.785 0 0 1 1.295-1.097 3.588 3.588 0 0 1 1.743-.428zm-.05-.897c-1.026 0-1.952.328-2.799.986-1.235.956-1.853 2.181-1.853 3.676 0 .976.269 1.852.837 2.66a5.04 5.04 0 0 0 1.554 1.414 4.487 4.487 0 0 0 2.281.617c.966 0 1.843-.269 2.65-.836a4.99 4.99 0 0 0 1.414-1.545 4.528 4.528 0 0 0 .618-2.3c0-.967-.269-1.834-.837-2.64a4.798 4.798 0 0 0-1.554-1.415 4.542 4.542 0 0 0-2.311-.617zm.05.229c.996 0 1.893.338 2.72.986 1.135.906 1.703 2.052 1.703 3.457a4.3 4.3 0 0 1-.837 2.56 4.63 4.63 0 0 1-1.464 1.314 4.302 4.302 0 0 1-4.702-.259 4.65 4.65 0 0 1-1.315-1.464 4.294 4.294 0 0 1 .259-4.702 4.648 4.648 0 0 1 1.465-1.314 4.34 4.34 0 0 1 2.171-.578zm11.277 4.433c-.029.836-.189 1.504-.468 1.972-.288.488-.667.737-1.105.737-.419 0-.698-.17-.837-.528.159-.09.249-.22.249-.379 0-.308-.17-.458-.488-.458-.309 0-.458.16-.458.488 0 .26.109.498.328.708.329.308.738.468 1.226.468.777 0 1.354-.389 1.773-1.166.279-.538.418-1.205.418-2.022 0-.856-.159-1.534-.488-2.022a1.706 1.706 0 0 0-1.474-.777c-.688 0-1.206.279-1.574.827a2.056 2.056 0 0 0-.309 1.125c0 .578.189 1.027.578 1.355.319.269.707.409 1.155.409.598 0 1.086-.24 1.474-.737zm0-.469c0 .03-.059.11-.169.24-.149.199-.328.348-.538.458-.219.119-.438.179-.657.179-.409 0-.717-.18-.946-.558-.16-.249-.24-.548-.24-.916 0-.499.13-.897.399-1.206.229-.269.508-.408.827-.408.468 0 .827.279 1.066.827.169.408.258.866.258 1.384zm-1.364-3.546c-.907 0-1.733.299-2.481.906-1.016.817-1.524 1.863-1.524 3.119 0 .856.269 1.643.787 2.35a4.32 4.32 0 0 0 1.355 1.195 3.856 3.856 0 0 0 1.893.489c.846 0 1.633-.27 2.341-.787a4.319 4.319 0 0 0 1.195-1.355 3.853 3.853 0 0 0 .488-1.892c0-.847-.269-1.634-.787-2.341a4.31 4.31 0 0 0-1.355-1.196 3.846 3.846 0 0 0-1.912-.488zm.05.25c.866 0 1.653.288 2.36.876.937.767 1.405 1.733 1.405 2.908 0 .827-.259 1.564-.767 2.242-.359.468-.777.846-1.295 1.105a3.681 3.681 0 0 1-1.713.439 3.677 3.677 0 0 1-2.282-.777 4.027 4.027 0 0 1-1.095-1.295 3.582 3.582 0 0 1-.429-1.714c0-.826.26-1.584.778-2.26a3.79 3.79 0 0 1 1.294-1.097 3.59 3.59 0 0 1 1.744-.428zm-.05-.897c-1.026 0-1.952.328-2.799.986-1.235.956-1.853 2.181-1.853 3.676 0 .976.269 1.852.837 2.66a5.028 5.028 0 0 0 1.554 1.414 4.487 4.487 0 0 0 2.281.617c.966 0 1.843-.269 2.649-.836a5.006 5.006 0 0 0 1.415-1.545 4.538 4.538 0 0 0 .618-2.3c0-.967-.269-1.834-.837-2.64a4.808 4.808 0 0 0-1.554-1.415 4.542 4.542 0 0 0-2.311-.617zm.05.229c.996 0 1.892.338 2.719.986 1.136.906 1.704 2.052 1.704 3.457 0 .926-.28 1.782-.837 2.56a4.644 4.644 0 0 1-1.465 1.314 4.3 4.3 0 0 1-4.701-.259 4.65 4.65 0 0 1-1.315-1.464 4.296 4.296 0 0 1 .259-4.702 4.633 4.633 0 0 1 1.464-1.314 4.344 4.344 0 0 1 2.172-.578z"/></svg>