<svg xmlns="http://www.w3.org/2000/svg" width="239.907" height="29.387" viewBox="0 -22.04 179.93 22.04"><path d="M11.091-6.701c.788-.074 1.386-.253 1.995-.61 1.008-.588 1.522-1.427 1.522-2.477 0-.798-.336-1.45-.966-1.848-.377-.242-.797-.368-1.438-.42-.074-.294-.399-.62-.63-.62-.021 0-.053 0-.094.01.22.242.294.379.294.578v.053c-.578.042-.945.105-1.491.294.01-.378.084-.966.178-1.491.882-.168 1.838-.452 2.32-.683.284-.136.357-.21.357-.325a.291.291 0 0 0-.168-.252 1.368 1.368 0 0 0-.43-.084c-.095 0-.126.01-.231.116-.315.283-.861.514-1.743.724.116-.546.19-.756.304-.924.116-.178.116-.178.116-.262 0-.158-.105-.294-.346-.42-.242-.126-.62-.242-.83-.242a.326.326 0 0 0-.262.105c.493.2.598.326.598.693 0 .116-.01.315-.031.41-.084.577-.084.577-.105.745a4.2 4.2 0 0 1-.557.042c-.567 0-.892-.157-1.239-.609l-.136.094c.378.683.787.935 1.512.935.073 0 .157 0 .357-.01-.084.714-.095.85-.126 1.427l-.01.2c-.568.283-.914.525-1.25.84-.536.525-.85 1.102-.85 1.575 0 .252.052.462.188.714.105.178.126.241.19.41.115.367.23.493.45.493.41 0 .988-.347 1.597-.945.2.525.388.808.535.808.137 0 .22-.178.22-.462 0-.2-.03-.367-.094-.451-.157-.2-.157-.2-.2-.347.504-.598.746-.924.977-1.344.305-.535.462-.955.598-1.49.42.02.725.125 1.03.325.451.304.671.798.671 1.48 0 .746-.262 1.407-.777 1.932-.514.525-1.102.861-2.047 1.155l.042.158zm-.83-4.694c.484-.21.883-.304 1.47-.357-.283.882-.64 1.491-1.333 2.268a8.93 8.93 0 0 1-.136-1.617v-.294zm-.472.588c.021.872.042 1.134.168 1.764-.052.042-.052.042-.126.105-.294.252-.294.252-.388.326-.368.241-.63.367-.82.367-.23 0-.356-.23-.356-.65 0-.39.073-.652.262-.998.284-.504.61-.84 1.26-1.281v.367zm-1.995-5.186c-1.06 1.448-1.606 3.16-1.606 4.976 0 1.806.546 3.517 1.606 4.967l.2-.116c-.263-.441-.441-.84-.672-1.491-.347-1.018-.525-2.12-.525-3.36 0-1.155.158-2.247.462-3.17.23-.714.451-1.208.735-1.68l-.2-.126zm6.678.126c.262.44.44.83.672 1.48.346 1.018.525 2.12.525 3.37 0 1.145-.158 2.247-.462 3.16-.231.714-.452 1.208-.735 1.69l.2.117c1.06-1.47 1.606-3.15 1.606-4.967s-.546-3.506-1.607-4.976l-.2.126zm5.061 9.134c.756-.504 1.522-1.386 1.953-2.268.347-.693.567-1.344.861-2.593 1.029-.556 1.365-.756 2.163-1.291.2-.137.294-.179.44-.231.263-.084.316-.137.316-.274 0-.136-.126-.335-.4-.598-.304-.315-.63-.535-.765-.546h-.011a.226.226 0 0 0-.126.042c-.22.116-.357.147-1.659.315l-1.659.252c-.945.136-1.04.147-1.27.147-.4 0-.714-.2-.882-.536a.368.368 0 0 0-.053.21c0 .463.578 1.208.935 1.208a.45.45 0 0 0 .23-.063 4.8 4.8 0 0 1 .935-.367c1.292-.379 2.625-.63 3.318-.63.262 0 .367.041.367.136 0 .084-.063.189-.273.43a13.06 13.06 0 0 1-1.606 1.512c-.105-.178-.168-.23-.41-.367-.262-.147-.577-.263-.713-.263-.105 0-.158.021-.221.105.367.168.536.378.536.672 0 .494-.21 1.428-.494 2.237-.388 1.07-.945 1.984-1.606 2.635l.094.126zm-1.239-9.26c-1.06 1.448-1.606 3.16-1.606 4.976 0 1.806.546 3.517 1.606 4.967l.2-.116c-.263-.441-.441-.84-.672-1.491-.346-1.018-.525-2.12-.525-3.36 0-1.155.157-2.247.462-3.17.23-.714.451-1.208.735-1.68l-.2-.126zm6.678.126c.262.44.44.83.672 1.48.346 1.018.525 2.12.525 3.37 0 1.145-.158 2.247-.462 3.16-.231.714-.452 1.208-.735 1.69l.2.117c1.06-1.47 1.606-3.15 1.606-4.967s-.546-3.506-1.607-4.976l-.2.126zM33.76-9.19c.904.745.904.745.925.955.02.158.094.221.252.221.346 0 .703-.21.945-.556.42-.588.776-1.87.776-2.804 0-.892-.357-1.323-1.08-1.323-.19 0-.337.022-.663.084.253-.598.4-.902.505-1.06.084-.126.115-.2.115-.252 0-.01-.01-.063-.031-.105-.032-.115-.126-.2-.357-.284a2.383 2.383 0 0 0-.777-.188c-.116 0-.147.01-.305.126.535.178.672.294.672.546 0 .272-.147.86-.336 1.333-.64.168-1.207.283-1.375.283-.326 0-.43-.084-.64-.504-.053.148-.074.2-.074.263 0 .346.41.903.661.903.074 0 .126-.021.252-.095.22-.115.515-.241 1.008-.41-.86 1.88-1.155 2.437-1.48 2.815-.168.2-.2.262-.2.493 0 .357.105.588.263.588.147 0 .22-.094.483-.672.136-.304.871-1.995 1.449-3.37.451-.137.598-.168.85-.168.41 0 .546.189.546.724 0 .62-.2 1.533-.483 2.205-.21.494-.346.672-.504.672-.178 0-.63-.2-1.291-.567l-.105.147zm3.654-3.318c.462.242.64.389.893.714.273.347.451.767.504 1.155-.242.095-.514.19-1.281.42l.052.158a9.91 9.91 0 0 1 1.05-.074c.147 0 .2.01.326.084.094.053.136.063.21.063.22 0 .357-.189.357-.472 0-.462-.263-1.008-.693-1.439-.357-.367-.777-.609-1.334-.766l-.084.157zm-1.7-3.548a5.126 5.126 0 0 0-3.37 1.291c-1.093 1.008-1.67 2.3-1.67 3.748a5.041 5.041 0 0 0 5.04 5.04 5.04 5.04 0 0 0 3.748-8.41c-.987-1.081-2.3-1.67-3.748-1.67zm0 .294c1.165 0 2.33.451 3.17 1.217 1.03.945 1.575 2.163 1.575 3.528a4.754 4.754 0 0 1-4.745 4.746 4.754 4.754 0 0 1-4.746-4.746c0-1.176.43-2.3 1.218-3.17a4.654 4.654 0 0 1 3.528-1.575zm7.539 7.822c.357-.21.808-.557 1.165-.893.882-.84 1.407-1.711 1.964-3.234.462-.094 1.312-.21 1.511-.21.137 0 .19.063.19.252 0 .504-.274 1.9-.505 2.573-.188.535-.283.672-.45.672-.169 0-.936-.22-1.513-.43l-.074.167c.158.084.169.095.21.116.799.43.883.493.946.724.042.126.125.21.23.21.305 0 .641-.178.851-.452.304-.377.483-.986.84-2.824.094-.493.094-.493.189-.64.063-.105.073-.137.073-.21 0-.105-.084-.231-.294-.41-.22-.189-.314-.241-.451-.241a.314.314 0 0 0-.178.052c-.126.063-.126.063-.526.116-.073.01-.703.094-.934.137.231-.767.294-.935.378-1.071.073-.137.084-.148.084-.21 0-.148-.063-.242-.252-.358-.273-.188-.62-.304-.892-.304-.105 0-.137.01-.294.084.241.105.262.115.357.179.168.115.241.241.241.42 0 .262-.105.776-.273 1.343-.745.116-1.417.2-1.638.2-.346 0-.514-.105-.724-.462-.053.115-.063.147-.063.2 0 .115.084.335.2.482.178.242.409.4.587.4.063 0 .105-.011.22-.064.21-.084.316-.115.851-.23.074-.022.19-.043.346-.074l.095-.021c-.598 1.648-1.449 2.94-2.572 3.853l.105.158zm2.96-8.116a5.126 5.126 0 0 0-3.37 1.291c-1.092 1.008-1.669 2.3-1.669 3.748a5.041 5.041 0 0 0 5.04 5.04 5.04 5.04 0 0 0 3.748-8.41c-.987-1.081-2.3-1.67-3.748-1.67zm0 .294c1.166 0 2.331.451 3.171 1.217 1.03.945 1.575 2.163 1.575 3.528a4.754 4.754 0 0 1-4.745 4.746 4.754 4.754 0 0 1-4.746-4.746c0-1.176.43-2.3 1.218-3.17a4.654 4.654 0 0 1 3.528-1.575zM60.21-16.056a5.126 5.126 0 0 0-3.37 1.291c-1.092 1.008-1.67 2.3-1.67 3.748a5.041 5.041 0 0 0 5.04 5.04 5.04 5.04 0 0 0 3.748-8.41c-.987-1.081-2.3-1.67-3.748-1.67zm1.102 2.152c.347.137.788.263.945.263h.137c.21 0 .346.105.346.272 0 .253-.399.494-1.648.966.494.693.871 1.302 1.113 1.754.136.252.189.42.189.64 0 .336-.073.462-.263.462-.094 0-.147-.031-.273-.147a2.157 2.157 0 0 0-.451-.346c-.42-.22-1.008-.357-1.575-.357-.934 0-1.512.367-1.512.945 0 .315.2.598.536.766.283.147.734.231 1.228.231.315 0 .494-.02.714-.063.042-.01.084-.02.116-.02.22 0 .535.272.535.482 0 .22-.158.284-.745.284-.63 0-1.208-.084-1.638-.22-.756-.253-1.208-.778-1.208-1.387 0-.819.84-1.354 2.121-1.354.609 0 1.228.073 1.659.2-.168-.515-.525-1.156-.955-1.754a5.583 5.583 0 0 1-1.67.262c-.65 0-1.102-.22-1.564-.755l.136-.116c.504.357.788.451 1.323.451.42 0 .956-.084 1.48-.23-.314-.41-.797-.851-1.123-1.03-.262-.146-.325-.22-.325-.346 0-.21.21-.336.588-.336.336 0 .556.042 1.008.178l-.053.18c-.252-.032-.304-.043-.389-.043-.146 0-.23.02-.23.063 0 .021.094.147.336.41.104.136.199.241.273.335.262.357.262.357.346.452.105-.042.105-.042.504-.21.189-.073.336-.147.556-.283-.2-.148-.2-.148-.661-.462l.094-.137zm9.398-2.152a5.126 5.126 0 0 0-3.37 1.291c-1.092 1.008-1.67 2.3-1.67 3.748a5.041 5.041 0 0 0 5.04 5.04 5.04 5.04 0 0 0 3.748-8.41c-.987-1.081-2.3-1.67-3.748-1.67zm-1.197 8.462c.556-.357 1.04-.798 1.333-1.25.483-.703.673-1.522.715-3.044-.578.031-1.313.126-1.785.241.01.074.01.074.01.252v.315c.01.504.021.756.021.756.01.305.01.315.01.4 0 .314-.083.482-.251.482-.168 0-.452-.43-.452-.703 0-.042.01-.074.042-.168.095-.22.105-.326.126-1.229a4.565 4.565 0 0 0-.934.263c-.22.105-.326.136-.41.136-.273 0-.766-.577-.766-.903a.36.36 0 0 1 .042-.136c.252.294.451.42.672.42.136 0 .535-.053.924-.126.367-.063.367-.063.462-.074-.01-.493-.074-1.008-.158-1.176-.084-.178-.157-.24-.483-.43.095-.084.116-.095.2-.095.178 0 .42.074.65.2.273.147.41.304.41.473 0 .052 0 .073-.042.178-.042.126-.073.44-.084.766a61.767 61.767 0 0 1 1.806-.21c.01-.241.01-.304.01-.42 0-.714-.031-.965-.136-1.113-.105-.136-.262-.22-.556-.293l-.074-.022c.2-.105.263-.126.41-.126.21 0 .546.085.797.2.2.084.305.2.305.336 0 .053-.01.084-.042.168-.084.21-.147.672-.147 1.207.609-.041.735-.073.955-.157a.428.428 0 0 1 .231-.063c.294 0 .777.325.777.514 0 .105-.084.179-.21.179-.031 0-.084 0-.147-.01a8.518 8.518 0 0 0-.903-.064c-.609.01-.609.01-.724.01-.053 1.723-.242 2.52-.788 3.203-.43.546-1.05.997-1.721 1.27l-.095-.157zM81.305-12.697c.346.588.65.788 1.186.788.21 0 .43-.021.735-.074-.567 1.638-.871 2.32-1.27 2.898-.179.252-.19.284-.19.43 0 .137.053.358.116.494.063.116.126.179.221.179.2 0 .304-.21.64-1.218.452-1.344.452-1.344.62-1.838.252-.766.252-.766.336-1.029.535-.147 1.07-.325 1.438-.483.357-.168.493-.283.493-.43 0-.084-.052-.136-.146-.179a1.51 1.51 0 0 0-.452-.094c-.073 0-.115.021-.252.147-.189.168-.462.315-.882.483.179-.525.368-.966.473-1.113.105-.147.105-.147.105-.22 0-.137-.137-.263-.4-.358-.251-.094-.524-.157-.724-.157-.115 0-.136.01-.325.105.525.179.63.262.63.515 0 .272-.116.86-.273 1.375a4.114 4.114 0 0 1-1.019.147c-.367 0-.556-.095-.913-.462l-.147.094zM85-11.279a4.49 4.49 0 0 1 1.523-.315c-.252.241-.273.262-.357.336-.305.283-.305.283-.41.388l.085.116c.094-.053.157-.084.189-.105.724-.473.776-.504 1.196-.525.263-.01.347-.063.347-.22 0-.221-.305-.41-.682-.41-.662 0-1.323.189-1.964.577l.073.158zm-.398 1.323c-.063.23-.084.357-.084.556 0 .557.262 1.008.714 1.229.377.167.913.262 1.564.262.672 0 .997-.095.997-.304 0-.084-.052-.168-.168-.252-.136-.116-.335-.21-.43-.21a.672.672 0 0 0-.158.031c-.273.105-.44.126-.797.126-.956 0-1.47-.399-1.47-1.134 0-.063 0-.126.01-.273l-.178-.031zm-4.588-5.754v9.386H89.4v-9.386h-9.386zm.283.284h8.82v8.819h-8.82v-8.82zM92.613-7.52c.578-.242.903-.431 1.502-.84 1.386-.977 2.456-2.258 3.454-4.105.126-.242.168-.305.262-.379s.126-.126.126-.189c0-.22-.482-.65-.724-.65a.248.248 0 0 0-.137.052c-.157.095-.22.126-.64.21-.62.136-.913.189-1.102.189-.053 0-.095 0-.179-.02.294-.38.368-.494.368-.62 0-.127-.116-.253-.358-.378-.251-.137-.566-.242-.745-.242-.084 0-.105.01-.252.073.441.21.567.315.567.494 0 .451-1.333 2.205-2.3 3.045-.083.073-.083.073-.125.105l.126.157c.493-.283.966-.661 1.533-1.228.493.378.808.714 1.123 1.218.157.23.21.294.336.325-.661.893-1.627 1.775-2.667 2.447-.178.115-.178.115-.262.167l.094.169zm1.554-4.505c.326-.346.515-.577.83-.986.189.146.346.21.493.21.074 0 .126-.011.263-.064a11.756 11.756 0 0 1 1.343-.304c-.262.745-.808 1.743-1.333 2.457-.031-.168-.084-.273-.231-.473-.23-.304-.483-.462-1.28-.798l-.085-.042zm-3.653-3.685v9.386H99.9v-9.386h-9.386zm.283.284h8.82v8.819h-8.82v-8.82zM104.51-15.71v9.386h9.386v-9.386h-9.386zm1.617 2.572c.43.389.619.483 1.039.483.2 0 .431-.031.735-.094.2-.536.284-.861.284-1.145s-.116-.409-.567-.64c.157-.073.189-.084.273-.084.147 0 .409.073.619.168.336.158.462.263.462.41a.527.527 0 0 1-.084.22 6.713 6.713 0 0 0-.294.567c-.157.325-.157.325-.189.378.536-.189.609-.231.84-.43.074-.064.105-.074.189-.074.336 0 .588.105.599.263v.02c0 .231-.504.441-1.838.756-1.501 3.402-1.501 3.402-1.722 3.402-.157 0-.283-.273-.283-.62 0-.157.021-.22.105-.314.262-.305.262-.305.367-.462.42-.61.756-1.24 1.04-1.921-.158.02-.231.02-.347.02-.609 0-1.039-.252-1.375-.808l.147-.095zm4.347.463c.461.041.787.125 1.144.293.493.22.84.578.84.84 0 .158-.105.273-.252.273a.365.365 0 0 1-.2-.073c-.22-.137-.377-.168-.787-.168-.651 0-.84.168-.84.724 0 .21.042.515.168 1.397.462.136.861.315 1.113.504.262.189.389.42.389.703 0 .19-.074.315-.19.315-.105 0-.136-.02-.325-.23a2.721 2.721 0 0 0-.945-.694c0 .368-.01.473-.095.63-.189.357-.64.567-1.238.567-.756 0-1.281-.367-1.281-.903 0-.598.64-1.018 1.564-1.018.189 0 .305.01.473.042-.011-.525-.022-.767-.022-.798 0-.336.022-.61.064-.756.084-.315.294-.557.64-.714.157-.063.305-.105.787-.22-.21-.2-.462-.337-1.039-.526l.032-.188zm-.452 3.674s-.21-.042-.304-.063c-.126-.01-.221-.02-.379-.02-.682 0-1.091.23-1.091.598 0 .283.304.451.798.451.283 0 .546-.063.713-.178.179-.116.263-.326.263-.62V-9zm4.988-6.709v9.386h9.386v-9.386h-9.386zm2.677 8.105c1.197-1.133 1.712-2.32 1.827-4.157-.745.094-1.375.241-1.869.44-.147.064-.189.074-.273.074-.304 0-.861-.556-.861-.86 0-.053.011-.085.063-.19.284.326.473.431.746.431.115 0 .304-.021.462-.042 1.092-.158 1.68-.241 1.753-.241.011-.19.011-.274.011-.568 0-.808-.032-.966-.252-1.144-.105-.084-.263-.137-.557-.19.147-.146.21-.178.399-.178.263 0 .641.074.903.19.231.094.346.199.346.325 0 .084-.01.115-.052.21-.084.2-.157.672-.179 1.28.116-.02.683-.062.977-.083.325-.032.578-.074.683-.116.146-.052.167-.063.262-.063a.84.84 0 0 1 .399.105c.304.147.451.284.451.42 0 .116-.084.2-.199.2-.032 0-.073 0-.116-.01a7.658 7.658 0 0 0-1.448-.127c-.284 0-.557.01-1.019.053-.136 1.512-.41 2.373-1.029 3.181-.346.462-.766.84-1.312 1.208l-.116-.148zM132.072-11.027c-.094.21-.462 1.081-.567 1.344-.105.252-.178.42-.21.493a3.546 3.546 0 0 1-.105-.934c0-.767.231-1.838.525-2.478.231-.473.231-.473.231-.578 0-.189-.136-.461-.378-.735-.231-.272-.336-.335-.588-.335.21.325.273.504.273.735 0 .157-.021.272-.126.755-.252 1.197-.367 2.016-.367 2.74 0 .641.094 1.26.262 1.702.105.262.231.388.389.388.136 0 .231-.126.231-.315.021-.42.021-.451.126-.86.136-.568.283-1.135.472-1.86l-.168-.062zm.851-1.323c.43.462.787.609 1.396.609.242 0 .494-.021.704-.063v1.018l.02.872v.126c-.21-.01-.325-.021-.472-.021-.955 0-1.585.378-1.585.955 0 .504.514.882 1.196.882.904 0 1.407-.346 1.407-.987v-.147c.315.147.494.294.84.64.169.169.231.21.305.21.115 0 .199-.146.199-.335 0-.494-.409-.82-1.365-1.082-.084-.693-.105-1.123-.105-2.205.872-.157 1.46-.409 1.46-.619 0-.137-.273-.283-.535-.283-.074 0-.095.01-.19.094-.136.126-.356.22-.714.326.032-.515.084-.82.168-1.061.074-.19.074-.2.074-.263 0-.22-.42-.398-.955-.398-.242 0-.284.02-.452.178.273.021.389.053.514.137.169.104.179.188.179 1.154v.368a4.345 4.345 0 0 1-.914.115c-.42 0-.64-.073-1.071-.357l-.104.137zm2.11 3.045v.02c0 .064-.01.2-.01.253a.699.699 0 0 1-.169.377c-.146.169-.441.263-.797.263-.473 0-.788-.178-.788-.451 0-.336.389-.546 1.029-.546.284 0 .525.031.735.084zm3.433-5.071c0-.82-.577-1.397-1.396-1.397h-6.73c-.83 0-1.397.567-1.397 1.386v6.73c0 .83.567 1.397 1.386 1.397h6.741c.357 0 .703-.116.945-.326.252-.21.378-.494.451-1.06v-6.73zm-1.48-1.113c.756 0 1.197.43 1.197 1.186v6.573c0 .755-.441 1.186-1.197 1.186h-6.562c-.756 0-1.197-.43-1.197-1.186v-6.573c0-.756.441-1.186 1.197-1.186h6.562zm3.507 6.457a6.173 6.173 0 0 0 1.386-.935c.515-.451.714-.661 1.355-1.512.189-.252.189-.252.336-.378.084-.073.115-.115.115-.2 0-.146-.115-.272-.409-.472-.252-.168-.546-.283-.693-.283-.074 0-.074 0-.252.052.157.116.252.19.283.21.116.116.168.2.168.295 0 .24-.367.913-.84 1.522a9.06 9.06 0 0 1-1.543 1.564l.094.137zm4.242-3.665c.504.462.662.63.966 1.008.462.599.84 1.27 1.082 1.932.115.336.167.4.304.4.189 0 .336-.274.336-.652 0-.357-.147-.65-.578-1.176-.503-.598-1.186-1.175-1.984-1.659l-.126.147zm4.231-1.68c0-.818-.577-1.396-1.396-1.396h-6.73c-.83 0-1.397.567-1.397 1.386v6.73c0 .83.567 1.397 1.386 1.397h6.741c.357 0 .703-.116.945-.326.252-.21.378-.494.451-1.06v-6.73zm-1.48-1.112c.756 0 1.197.43 1.197 1.186v6.573c0 .755-.441 1.186-1.197 1.186h-6.562c-.756 0-1.197-.43-1.197-1.186v-6.573c0-.756.441-1.186 1.197-1.186h6.562zM162.952-14.387c0-.819-.577-1.386-1.386-1.386h-6.74c-.819 0-1.386.567-1.386 1.386v6.73c0 .83.567 1.397 1.386 1.397h6.73c.367 0 .703-.116.945-.315.252-.21.378-.505.451-1.071v-6.741zm-7.37 1.144c.462.378.703.463 1.323.463.315 0 .693-.032 1.165-.105-.042-1.208-.094-1.334-.672-1.407-.021 0-.042 0-.094-.01.189-.17.22-.18.482-.18.589 0 1.009.168 1.009.41a.24.24 0 0 1-.032.116c-.157.346-.189.482-.221.997.62-.126 1.229-.305 1.397-.42.126-.084.147-.095.199-.095.084 0 .305.064.41.116.115.073.189.158.189.252 0 .116-.126.2-.451.283-.547.137-1.219.273-1.765.336-.01.21-.01.337-.01.504 0 .168 0 .242.01.714.515-.084 1.061-.241 1.229-.357.126-.094.136-.094.221-.094.105 0 .293.052.398.105s.147.115.147.2c0 .167-.105.23-.588.367a9.924 9.924 0 0 1-1.386.262c.032.903.043 1.134.064 1.323.755.147 1.48.43 1.805.725a.704.704 0 0 1 .252.567c0 .189-.084.315-.21.315-.073 0-.157-.043-.241-.126-.483-.473-.987-.788-1.565-.956.022.168.022.242.022.315 0 .294-.074.514-.232.672-.22.22-.692.367-1.186.367-.85 0-1.438-.377-1.438-.913 0-.609.777-1.04 1.89-1.04.126 0 .21 0 .388.022v-.515-.157-.357-.2c-.325.021-.472.021-.577.021-.704 0-1.061-.084-1.302-.325-.126-.116-.21-.336-.21-.536 0-.042 0-.084.01-.136 0-.021 0-.053.011-.105l.178.01c.011.252.032.326.105.42.116.168.441.242 1.008.242.231 0 .42-.01.777-.063v-.546l-.021-.672c-.346.031-.777.063-1.05.063-.787 0-1.134-.168-1.564-.756l.126-.116zm2.499 4.19s-.179-.021-.242-.032a2.95 2.95 0 0 0-.42-.031c-.294 0-.567.042-.819.126-.336.115-.504.283-.504.504 0 .273.326.44.872.44.367 0 .661-.084.871-.23.189-.147.242-.336.242-.777zm15.371-5.334c0-.819-.577-1.386-1.386-1.386h-6.74c-.819 0-1.386.567-1.386 1.386v6.74c0 .82.567 1.387 1.386 1.387h6.73c.367 0 .703-.116.945-.315.252-.21.378-.505.451-1.061v-6.751zm-6.131 3.454c.892.462.892.462 1.396.83.882-.84 1.103-1.071 1.575-1.628.336-.378.556-.672.556-.714 0-.031-.052-.042-.126-.042-.388 0-1.879.232-2.876.441-.756.168-.977.231-1.292.378a.483.483 0 0 1-.241.074c-.305 0-.872-.714-.872-1.103 0-.073.011-.126.084-.24.105.198.168.282.326.387.168.126.283.158.598.158.284 0 1.103-.084 2.058-.21 1.816-.242 2.016-.263 2.079-.305.178-.104.21-.115.325-.115.137 0 .326.137.588.41.252.252.357.41.357.535 0 .105-.063.178-.21.22-.231.074-.252.095-.577.347-.063.052-.283.21-.609.451-.179.137-.409.315-.704.536-.399.315-.556.43-.829.609.525.43.693.682.693 1.029 0 .335-.126.577-.315.577-.105 0-.199-.084-.273-.23-.178-.39-.399-.725-.724-1.145-.315-.4-.536-.63-1.092-1.103l.105-.147z"/></svg>