<svg xmlns="http://www.w3.org/2000/svg" width="396.853" height="28.56" viewBox="0 -21.42 297.64 21.42"><path d="M11.307-12.223l.04-1.136-.12-.1-1.693.429v.288l1.076-.189v2.989c0 .428 0 .876-.01 1.315l-1.255.09v.268h3.187v-.269l-1.215-.09c0-.438-.01-.886-.01-1.314v-2.281zm-.348 5.877c-2.391 0-4.294-1.913-4.294-4.363s1.903-4.363 4.294-4.363c2.39 0 4.293 1.902 4.293 4.363 0 2.46-1.903 4.363-4.293 4.363zm0-8.995c-2.57 0-4.583 2.022-4.583 4.632S8.39-6.077 10.96-6.077c2.56 0 4.582-2.022 4.582-4.632s-2.012-4.632-4.582-4.632zM23.759-10.211c.857-.737 1.275-1.255 1.275-1.903 0-.797-.508-1.374-1.574-1.374-.857 0-1.574.378-1.743 1.085.06.13.18.2.309.2.159 0 .288-.07.388-.36l.21-.547c.198-.07.388-.09.607-.09.707 0 1.086.458 1.086 1.086 0 .657-.27 1.096-.937 1.783l-1.613 1.654v.408h3.566v-.588h-3.028l1.454-1.354zm-.28 3.865c-2.39 0-4.293-1.913-4.293-4.363s1.903-4.363 4.294-4.363 4.293 1.902 4.293 4.363c0 2.46-1.902 4.363-4.293 4.363zm0-8.995c-2.57 0-4.581 2.022-4.581 4.632s2.012 4.632 4.582 4.632c2.56 0 4.582-2.022 4.582-4.632s-2.012-4.632-4.582-4.632zM35.254-13.11c.21-.07.409-.09.638-.09.657 0 1.036.379 1.036 1.017 0 .746-.508 1.125-1.196 1.125h-.348v.279h.338c.887 0 1.345.388 1.345 1.156 0 .746-.478 1.195-1.305 1.195-.309 0-.498-.03-.677-.11l-.15-.538c-.07-.269-.179-.358-.358-.358-.13 0-.27.08-.299.239.14.677.747 1.056 1.674 1.056 1.105 0 1.842-.568 1.842-1.455 0-.747-.438-1.245-1.335-1.364.797-.17 1.176-.698 1.176-1.255 0-.738-.558-1.275-1.554-1.275-.757 0-1.504.298-1.624 1.066.05.089.15.159.28.159.159 0 .298-.07.368-.329l.15-.518zm.757 6.764c-2.39 0-4.293-1.913-4.293-4.363s1.903-4.363 4.293-4.363 4.293 1.902 4.293 4.363c0 2.46-1.902 4.363-4.293 4.363zm0-8.995c-2.57 0-4.582 2.022-4.582 4.632s2.012 4.632 4.582 4.632c2.56 0 4.582-2.022 4.582-4.632s-2.012-4.632-4.582-4.632zM46.7-10.221l2.032-2.56v2.56H46.7zm2.64-3.188h-.459l-2.6 3.287v.419h2.45v1.434h.608v-1.434h1.036v-.518H49.34v-3.188zm-.798 7.063c-2.39 0-4.293-1.913-4.293-4.363s1.903-4.363 4.293-4.363 4.294 1.902 4.294 4.363c0 2.46-1.903 4.363-4.294 4.363zm0-8.995c-2.57 0-4.582 2.022-4.582 4.632s2.012 4.632 4.582 4.632c2.56 0 4.583-2.022 4.583-4.632s-2.013-4.632-4.583-4.632zM60.187-12.771h2.6v-.588h-2.879l-.179 2.48.18.07c.348-.19.667-.289 1.035-.289.787 0 1.285.448 1.285 1.295 0 .867-.508 1.375-1.304 1.375-.34 0-.578-.04-.807-.14l-.14-.528c-.07-.249-.17-.348-.358-.348-.14 0-.26.07-.31.219.11.687.758 1.086 1.654 1.086 1.275 0 2.012-.708 2.012-1.704 0-.936-.597-1.594-1.773-1.594-.438 0-.807.09-1.125.25l.11-1.584zm.887 6.425c-2.39 0-4.294-1.913-4.294-4.363s1.903-4.363 4.294-4.363c2.39 0 4.293 1.902 4.293 4.363 0 2.46-1.903 4.363-4.293 4.363zm0-8.995c-2.57 0-4.582 2.022-4.582 4.632s2.012 4.632 4.582 4.632c2.56 0 4.582-2.022 4.582-4.632s-2.012-4.632-4.582-4.632zM75.269-8.259h-3.377v-.348l1.295-.12c.01-.408.01-.817.01-1.205v-2.89l-1.066.19v-.378l1.793-.419.12.09-.03 1.126v2.28c0 .39 0 .798.01 1.206l1.245.12v.348zm-1.664 2.182c2.56 0 4.582-2.022 4.582-4.632s-2.012-4.632-4.582-4.632-4.582 2.022-4.582 4.632 2.012 4.632 4.582 4.632zM88.019-8.259h-3.636v-.448l1.554-1.584c.678-.697.966-1.146.966-1.813 0-.598-.368-1.036-1.046-1.036-.209 0-.378.02-.567.09l-.16.498c-.11.329-.259.408-.438.408a.397.397 0 0 1-.359-.219c.15-.737.897-1.125 1.793-1.125 1.116 0 1.614.587 1.614 1.374 0 .667-.458 1.196-1.344 1.962L85.07-8.916h2.949v.657zm-1.883 2.182c2.56 0 4.583-2.022 4.583-4.632s-2.013-4.632-4.583-4.632-4.582 2.022-4.582 4.632 2.012 4.632 4.582 4.632zM98.588-8.13c-.966 0-1.594-.388-1.713-1.105.05-.16.199-.249.348-.249.2 0 .319.09.389.398l.13.518c.159.06.328.09.617.09.817 0 1.275-.418 1.275-1.145 0-.738-.439-1.116-1.305-1.116h-.319v-.349h.329c.687 0 1.165-.359 1.165-1.095 0-.598-.368-.957-1.006-.957-.209 0-.388.02-.578.09l-.119.458c-.08.299-.229.369-.408.369-.14 0-.26-.07-.32-.16.1-.797.858-1.105 1.664-1.105 1.026 0 1.604.547 1.594 1.285.01.537-.339 1.075-1.085 1.245.846.13 1.255.617 1.255 1.364 0 .897-.757 1.465-1.913 1.465zm.08 2.053c2.56 0 4.582-2.022 4.582-4.632s-2.012-4.632-4.582-4.632-4.583 2.022-4.583 4.632 2.013 4.632 4.583 4.632zM111.318-10.241v-2.38l-1.872 2.38h1.872zm1.744.598h-1.026v1.384h-.718v-1.384h-2.42v-.479l2.59-3.277h.548v3.158h1.026v.598zm-1.863 3.566c2.56 0 4.582-2.022 4.582-4.632s-2.012-4.632-4.582-4.632-4.582 2.022-4.582 4.632 2.012 4.632 4.582 4.632zM123.591-8.13c-.917 0-1.574-.408-1.664-1.125.05-.16.199-.239.349-.239.209 0 .329.1.388.378l.11.499c.219.1.438.139.767.139.757 0 1.255-.478 1.255-1.305s-.468-1.275-1.245-1.275c-.319 0-.648.12-.976.299l-.209-.1.169-2.5h2.938v.667h-2.58l-.099 1.445c.319-.14.677-.21 1.126-.21 1.175 0 1.743.678 1.743 1.624 0 .996-.737 1.704-2.072 1.704zm.139 2.053c2.56 0 4.582-2.022 4.582-4.632s-2.012-4.632-4.582-4.632-4.582 2.022-4.582 4.632 2.012 4.632 4.582 4.632zM135.076-12.223l.04-1.136-.119-.1-1.266.379v.299l.698-.15v2.989c0 .438-.01.896-.01 1.345l-.737.06v.268h2.101v-.269l-.697-.06c0-.448-.01-.906-.01-1.344v-2.281zm2.53 3.815c-.428 0-.807-.459-.807-2.401 0-1.942.379-2.4.807-2.4.429 0 .807.458.807 2.4 0 1.932-.378 2.4-.807 2.4zm0-5.08c-.797 0-1.464.697-1.464 2.679 0 1.972.667 2.67 1.464 2.67s1.465-.698 1.465-2.67c0-1.982-.668-2.68-1.465-2.68zm-1.344 7.211c-2.411 0-4.383-1.992-4.383-4.432 0-2.44 1.972-4.433 4.383-4.433 2.42 0 4.382 1.992 4.382 4.433 0 2.44-1.972 4.432-4.382 4.432zm-4.433-8.915v8.965h8.865v-8.965h-8.865zM147.229-10.152c.697-.756 1.086-1.314 1.086-2.012 0-.777-.478-1.324-1.325-1.324-.707 0-1.265.408-1.385 1.085.05.13.15.2.269.2.159 0 .279-.07.379-.35l.209-.607c.12-.04.239-.05.368-.05.538 0 .837.449.837 1.056 0 .658-.219 1.136-.827 1.893l-1.275 1.584v.408h2.939v-.588h-2.431l1.156-1.295zm3.337 1.744c-.428 0-.807-.459-.807-2.401 0-1.942.379-2.4.807-2.4s.807.458.807 2.4c0 1.932-.379 2.4-.807 2.4zm0-5.08c-.797 0-1.464.697-1.464 2.679 0 1.972.667 2.67 1.464 2.67s1.464-.698 1.464-2.67c0-1.982-.667-2.68-1.464-2.68zm-1.773 7.211c-2.411 0-4.383-1.992-4.383-4.432 0-2.44 1.972-4.433 4.383-4.433 2.42 0 4.383 1.992 4.383 4.433 0 2.44-1.973 4.432-4.383 4.432zm-4.433-8.915v8.965h8.866v-8.965h-8.866zM158.924-13.13c.149-.05.288-.08.458-.08.518 0 .837.399.837 1.027 0 .736-.429 1.105-1.046 1.105h-.289v.299h.318c.777 0 1.176.378 1.176 1.156 0 .766-.429 1.195-1.136 1.195a1.5 1.5 0 0 1-.458-.06l-.159-.578c-.07-.279-.16-.358-.319-.358-.13 0-.249.08-.299.239.14.677.598 1.046 1.425 1.046.966 0 1.603-.558 1.603-1.455 0-.747-.378-1.235-1.185-1.364.697-.17 1.006-.698 1.006-1.255 0-.738-.468-1.275-1.325-1.275-.637 0-1.245.308-1.375 1.036.03.11.16.169.249.169.17 0 .289-.09.349-.29l.17-.557zm4.173 4.722c-.428 0-.807-.459-.807-2.401 0-1.942.379-2.4.807-2.4.429 0 .807.458.807 2.4 0 1.932-.378 2.4-.807 2.4zm0-5.08c-.797 0-1.464.697-1.464 2.679 0 1.972.667 2.67 1.464 2.67s1.465-.698 1.465-2.67c0-1.982-.668-2.68-1.465-2.68zm-1.773 7.211c-2.41 0-4.383-1.992-4.383-4.432 0-2.44 1.973-4.433 4.383-4.433 2.421 0 4.383 1.992 4.383 4.433 0 2.44-1.972 4.432-4.383 4.432zm-4.433-8.915v8.965h8.866v-8.965h-8.866zM170.837-10.181l1.435-2.46v2.46h-1.435zm2.042-3.228h-.468l-1.962 3.327v.429h1.823v1.384h.607v-1.384h.638v-.528h-.638v-3.228zm2.75 5c-.429 0-.807-.458-.807-2.4s.378-2.4.807-2.4c.428 0 .806.458.806 2.4 0 1.932-.378 2.4-.806 2.4zm0-5.08c-.797 0-1.465.698-1.465 2.68 0 1.972.668 2.67 1.465 2.67.796 0 1.464-.698 1.464-2.67 0-1.982-.668-2.68-1.464-2.68zm-1.774 7.212c-2.41 0-4.382-1.992-4.382-4.432 0-2.44 1.972-4.433 4.382-4.433 2.421 0 4.383 1.992 4.383 4.433 0 2.44-1.972 4.432-4.383 4.432zm-4.432-8.915v8.965h8.865v-8.965h-8.865zM183.757-12.771h2.072v-.588h-2.361l-.149 2.45.189.08c.259-.18.578-.259.877-.259.617 0 1.035.448 1.035 1.345 0 .866-.418 1.315-1.135 1.315-.19 0-.339-.02-.468-.06l-.18-.608c-.069-.269-.159-.338-.308-.338-.15 0-.269.1-.299.269.129.707.657 1.026 1.385 1.026 1.015 0 1.663-.618 1.663-1.674 0-1.026-.588-1.624-1.514-1.624-.319 0-.608.05-.897.18l.09-1.514zm4.503 4.363c-.429 0-.807-.459-.807-2.401 0-1.942.378-2.4.807-2.4.428 0 .806.458.806 2.4 0 1.932-.378 2.4-.806 2.4zm0-5.08c-.797 0-1.465.697-1.465 2.679 0 1.972.668 2.67 1.465 2.67.796 0 1.464-.698 1.464-2.67 0-1.982-.668-2.68-1.464-2.68zm-1.873 7.211c-2.411 0-4.383-1.992-4.383-4.432 0-2.44 1.972-4.433 4.383-4.433 2.42 0 4.383 1.992 4.383 4.433 0 2.44-1.973 4.432-4.383 4.432zm-4.433-8.915v8.965h8.866v-8.965h-8.866zM195.8-10.948l.09.338h5.877c.149 0 .249-.04.279-.169-.319-.299-.827-.717-.827-.717l-.428.548H195.8zm3.118-4.493a4.736 4.736 0 0 0-4.732 4.732c0 2.61 2.122 4.731 4.732 4.731s4.732-2.121 4.732-4.731a4.736 4.736 0 0 0-4.732-4.732zm0 9.164a4.43 4.43 0 0 1-4.433-4.432 4.43 4.43 0 0 1 4.433-4.433 4.43 4.43 0 0 1 4.433 4.433 4.43 4.43 0 0 1-4.433 4.432zM208.461-8.837l.08.29h5.677c.14 0 .23-.05.259-.16-.308-.289-.806-.677-.806-.677l-.449.547h-4.761zm.608-3.825l.079.29h4.433c.13 0 .229-.05.259-.16-.299-.28-.767-.638-.767-.638l-.408.508h-3.596zm2.38-2.779a4.735 4.735 0 0 0-4.731 4.732c0 2.61 2.121 4.731 4.731 4.731s4.732-2.121 4.732-4.731a4.736 4.736 0 0 0-4.732-4.732zm0 9.164a4.43 4.43 0 0 1-4.433-4.432 4.43 4.43 0 0 1 4.433-4.433 4.43 4.43 0 0 1 4.433 4.433 4.43 4.43 0 0 1-4.433 4.432zM220.912-8.587l.08.288h5.837c.14 0 .23-.05.259-.16-.318-.288-.817-.676-.817-.676l-.438.548h-4.921zm.558-4.314l.08.29h4.692c.139 0 .229-.05.259-.16-.289-.28-.757-.628-.757-.628l-.409.498h-3.865zm.439 2.012l.079.29h3.825c.14 0 .219-.05.249-.16-.269-.26-.707-.598-.707-.598l-.378.468h-3.068zm2.072-4.552a4.736 4.736 0 0 0-4.732 4.732 4.736 4.736 0 0 0 4.732 4.731 4.736 4.736 0 0 0 4.731-4.731 4.736 4.736 0 0 0-4.731-4.732zm0 9.164a4.43 4.43 0 0 1-4.433-4.432 4.43 4.43 0 0 1 4.433-4.433 4.43 4.43 0 0 1 4.432 4.433 4.43 4.43 0 0 1-4.432 4.432zM234.241-8.797v-3.915h1.245c-.02 1.176-.09 2.102-1.066 2.81l.139.159c1.305-.677 1.455-1.664 1.495-2.969h.836v1.933c0 .349.08.498.568.498h.468c.399 0 .658-.02.817-.06v1.544h-4.502zm4.502-3.915v1.913l-.03-.01-.04-.01h-.089a.46.46 0 0 1-.16.03c-.03 0-.069.01-.109.01h-.707c-.15 0-.18-.03-.18-.14v-1.793h1.315zm.229-.637l-.309.339h-4.372l-.618-.299v5.429h.1c.249 0 .468-.14.468-.21v-.418h4.502v.568h.08c.199 0 .478-.15.488-.22v-4.492a.603.603 0 0 0 .349-.16l-.688-.537zm-2.46 7.072a4.43 4.43 0 0 1-4.433-4.432 4.43 4.43 0 0 1 4.433-4.433 4.43 4.43 0 0 1 4.433 4.433 4.43 4.43 0 0 1-4.433 4.432zm0-9.164a4.736 4.736 0 0 0-4.732 4.732c0 2.61 2.122 4.731 4.732 4.731s4.731-2.121 4.731-4.731a4.735 4.735 0 0 0-4.731-4.732zM250.029-10.799v2.31h-1.912c.139-.627.299-1.473.458-2.31h1.454zm1.146 2.31h-.578v-2.19c.209-.04.369-.12.438-.2l-.747-.587-.358.378h-1.305a96.84 96.84 0 0 0 .289-1.693h2.629c.14 0 .23-.05.249-.16-.269-.259-.707-.617-.707-.617l-.378.488h-4.483l.08.289h2.032c-.08.488-.169 1.085-.279 1.693h-1.394l.089.289h1.255a65.41 65.41 0 0 1-.448 2.31h-1.634l.08.29h5.997c.129 0 .229-.05.249-.16-.259-.268-.698-.637-.698-.637l-.378.508zm-2.132 2.212a4.43 4.43 0 0 1-4.433-4.432c0-2.45 1.983-4.433 4.433-4.433s4.433 1.982 4.433 4.433a4.43 4.43 0 0 1-4.433 4.432zm0-9.164a4.735 4.735 0 0 0-4.731 4.732c0 2.61 2.121 4.731 4.731 4.731s4.732-2.121 4.732-4.731a4.736 4.736 0 0 0-4.732-4.732zM257.102-15.182v8.965h8.965v-8.965h-8.965zm8.686 8.686h-8.407v-8.407h8.407v8.407zm-7.361-4.452l.089.338h5.957c.16 0 .259-.04.289-.169-.319-.299-.827-.717-.827-.717l-.438.548h-5.07zM269.633-15.182v8.965h8.965v-8.965h-8.965zm8.686 8.686h-8.407v-8.407h8.407v8.407zm-7.451-2.231l.08.289h6.216c.139 0 .239-.05.269-.16a20.14 20.14 0 0 0-.897-.727l-.478.598h-5.19zm.588-3.985l.08.3h4.96c.15 0 .239-.05.269-.16a13.955 13.955 0 0 0-.836-.697l-.449.557h-4.024zM282.165-15.182v8.965h8.965v-8.965h-8.965zm8.685 8.686h-8.407v-8.407h8.407v8.407zm-7.4-2.062l.079.3h6.106c.14 0 .23-.05.259-.16-.319-.3-.816-.688-.816-.688l-.439.548h-5.189zm.567-4.462l.08.298h4.931c.129 0 .219-.05.249-.159a11.933 11.933 0 0 0-.747-.637l-.409.498h-4.104zm.438 2.082l.08.298h4.065c.139 0 .229-.05.248-.159-.268-.259-.707-.608-.707-.608l-.388.469h-3.298z"/></svg>