<svg xmlns="http://www.w3.org/2000/svg" xmlns:xlink="http://www.w3.org/1999/xlink" width="382.301" height="28.426" viewBox="-72 -72 286.726 21.319"><defs><path id="j" d="M3.838-.798v-.228q.647-.03.803-.22.102-.126.102-.466v-4.096q0-.326-.258-.39-.121-.034-.647-.048v-.238q.939-.078 1.523-.39v5.162q0 .433.219.564.194.107.686.122v.228H3.838zm1.119-7.491q1.29 0 2.374.695.939.584 1.513 1.538.637 1.05.637 2.267 0 1.27-.696 2.354-.608.953-1.537 1.513-1.05.637-2.276.637-1.26 0-2.345-.696-.954-.608-1.513-1.537-.637-1.05-.637-2.281 0-2.218 1.863-3.605 1.216-.885 2.617-.885zm.034.297q-1.153 0-2.145.608-.861.51-1.416 1.386Q.773-4.967.773-3.789q0 1.143.609 2.135.51.861 1.386 1.416Q3.799.418 4.99.418q1.129 0 2.121-.608.866-.51 1.416-1.386.656-1.031.656-2.213 0-2.048-1.693-3.338-1.138-.865-2.5-.865z"/><path id="k" d="M2.992-.798v-.399q.671-.841 1.911-2.067 1.285-1.27 1.285-2.024 0-.481-.278-.836-.34-.458-.958-.458-.987 0-1.197.89.283.132.283.419 0 .457-.448.457-.482 0-.482-.55 0-.53.448-.963.55-.55 1.416-.55.647 0 1.133.288.769.452.769 1.318 0 .525-.317.997-.33.462-1.225 1.226-1.124.949-1.805 1.712h2.31q.55 0 .76-.399.15-.262.199-.924h.228v1.863H2.992zm1.965-7.491q1.29 0 2.374.695.939.584 1.513 1.538.637 1.05.637 2.267 0 1.27-.696 2.354-.608.953-1.537 1.513-1.05.637-2.276.637-1.26 0-2.345-.696-.954-.608-1.513-1.537-.637-1.05-.637-2.281 0-2.218 1.863-3.605 1.216-.885 2.617-.885zm.034.297q-1.153 0-2.145.608-.861.51-1.416 1.386Q.773-4.967.773-3.789q0 1.143.609 2.135.51.861 1.386 1.416Q3.799.418 4.99.418q1.129 0 2.121-.608.866-.51 1.416-1.386.656-1.031.656-2.213 0-2.048-1.693-3.338-1.138-.865-2.5-.865z"/><path id="l" d="M4.213-4.106h.53q.574 0 .953-.262.511-.34.511-1.027 0-.593-.447-.939-.326-.248-.788-.248-.973 0-1.197.71.287.156.287.443 0 .428-.438.428-.477 0-.477-.54 0-.462.4-.817.544-.52 1.444-.52.662 0 1.163.287.72.403.72 1.167 0 1.26-1.576 1.489 1.785.194 1.785 1.542 0 .793-.647 1.274-.58.428-1.464.428-.769 0-1.348-.32-.676-.39-.676-.974 0-.54.491-.54.229 0 .4.2.087.136.087.282 0 .253-.253.399.258.656 1.27.656.525 0 .914-.296.53-.409.53-1.1 0-1.342-1.625-1.342h-.55v-.38zm.744-4.183q1.29 0 2.374.695.939.584 1.513 1.538.637 1.05.637 2.267 0 1.27-.696 2.354-.608.953-1.537 1.513-1.05.637-2.276.637-1.26 0-2.345-.696-.954-.608-1.513-1.537-.637-1.05-.637-2.281 0-2.218 1.863-3.605 1.216-.885 2.617-.885zm.034.297q-1.153 0-2.145.608-.861.51-1.416 1.386Q.773-4.967.773-3.789q0 1.143.609 2.135.51.861 1.386 1.416Q3.799.418 4.99.418q1.129 0 2.121-.608.866-.51 1.416-1.386.656-1.031.656-2.213 0-2.048-1.693-3.338-1.138-.865-2.5-.865z"/><path id="m" d="M5.439-6.874h.476v3.916H7.19v.458H5.915v.73q0 .437.22.554.189.097.636.112v.238H4.412v-.238q.662-.03.808-.22.097-.116.097-.447v-.73H2.359v-.37l3.08-4.003zm-.122.75L2.856-2.958h2.461v-3.166zm-.36-2.165q1.29 0 2.374.695.939.584 1.513 1.538.637 1.05.637 2.267 0 1.27-.696 2.354-.608.953-1.537 1.513-1.05.637-2.276.637-1.26 0-2.345-.696-.954-.608-1.513-1.537-.637-1.05-.637-2.281 0-2.218 1.863-3.605 1.216-.885 2.617-.885zm.034.297q-1.153 0-2.145.608-.861.51-1.416 1.386Q.773-4.967.773-3.789q0 1.143.609 2.135.51.861 1.386 1.416Q3.799.418 4.99.418q1.129 0 2.121-.608.866-.51 1.416-1.386.656-1.031.656-2.213 0-2.048-1.693-3.338-1.138-.865-2.5-.865z"/><path id="n" d="M3.444-6.767h3.23l-.112.55h-2.71l-.135 2.111q.617-.647 1.425-.647.885 0 1.445.589.476.52.476 1.343 0 .734-.408 1.294-.613.836-1.727.836-.886 0-1.464-.486-.448-.375-.448-.837 0-.55.482-.55.476 0 .476.467 0 .273-.292.409.268.7 1.197.7.53 0 .93-.398.559-.56.559-1.426 0-.515-.21-.905-.37-.695-1.157-.695-.798 0-1.435.905l-.312-.122.19-3.138zm1.513-1.522q1.29 0 2.374.695.939.584 1.513 1.538.637 1.05.637 2.267 0 1.27-.696 2.354-.608.953-1.537 1.513-1.05.637-2.276.637-1.26 0-2.345-.696-.954-.608-1.513-1.537-.637-1.05-.637-2.281 0-2.218 1.863-3.605 1.216-.885 2.617-.885zm.034.297q-1.153 0-2.145.608-.861.51-1.416 1.386Q.773-4.967.773-3.789q0 1.143.609 2.135.51.861 1.386 1.416Q3.799.418 4.99.418q1.129 0 2.121-.608.866-.51 1.416-1.386.656-1.031.656-2.213 0-2.048-1.693-3.338-1.138-.865-2.5-.865z"/><path id="o" d="M3.614-3.785q.696-.759 1.567-.759.715 0 1.192.419.598.51.598 1.386 0 .565-.238 1.027Q6.197-.686 5.04-.686q-1.09 0-1.654-.939-.438-.725-.438-1.892 0-1.309.525-2.199.691-1.158 1.834-1.158.56 0 .988.278.467.316.467.768 0 .496-.458.496t-.457-.437q0-.253.21-.39-.18-.418-.76-.418-.783 0-1.274.968-.36.696-.409 1.824zm0 .419q0 .924.307 1.556.408.827 1.119.827.52 0 .866-.476.37-.501.37-1.26 0-.482-.18-.827-.346-.657-1.085-.657-.404 0-.808.268-.165.107-.37.31-.219.205-.219.259zM4.957-8.29q1.29 0 2.374.695.939.584 1.513 1.538.637 1.05.637 2.267 0 1.27-.696 2.354-.608.953-1.537 1.513-1.05.637-2.276.637-1.26 0-2.345-.696-.954-.608-1.513-1.537-.637-1.05-.637-2.281 0-2.218 1.863-3.605 1.216-.885 2.617-.885zm.034.297q-1.153 0-2.145.608-.861.51-1.416 1.386Q.773-4.967.773-3.789q0 1.143.609 2.135.51.861 1.386 1.416Q3.799.418 4.99.418q1.129 0 2.121-.608.866-.51 1.416-1.386.656-1.031.656-2.213 0-2.048-1.693-3.338-1.138-.865-2.5-.865z"/><path id="p" d="M3.225-6.684H7.05v.302Q5.434-3.697 5.327-1.07q-.015.486-.365.486-.36 0-.36-.486 0-1.747 1.931-5.074H4.36q-.477 0-.686.457-.141.302-.22 1.036h-.228v-2.033zm1.732-1.605q1.29 0 2.374.695.939.584 1.513 1.538.637 1.05.637 2.267 0 1.27-.696 2.354-.608.953-1.537 1.513-1.05.637-2.276.637-1.26 0-2.345-.696-.954-.608-1.513-1.537-.637-1.05-.637-2.281 0-2.218 1.863-3.605 1.216-.885 2.617-.885zm.034.297q-1.153 0-2.145.608-.861.51-1.416 1.386Q.773-4.967.773-3.789q0 1.143.609 2.135.51.861 1.386 1.416Q3.799.418 4.99.418q1.129 0 2.121-.608.866-.51 1.416-1.386.656-1.031.656-2.213 0-2.048-1.693-3.338-1.138-.865-2.5-.865z"/><path id="q" d="M4.46-3.897q-1.264-.651-1.264-1.551 0-.696.608-1.095.491-.33 1.197-.33.652 0 1.153.32.608.4.608 1.041 0 .983-1.362 1.48 1.654.68 1.654 1.74 0 .735-.657 1.197-.579.41-1.45.41-.695 0-1.245-.288-.846-.447-.846-1.28 0-1.089 1.605-1.644zm.638-.287q.063-.019.083-.029 1.031-.467 1.031-1.245 0-.404-.267-.72-.341-.399-.94-.399-.364 0-.666.18-.515.311-.515.885 0 .467.398.808.2.185.53.35.224.122.346.17zm-.345.419l-.102.039q-1.217.525-1.217 1.415 0 .458.302.798.467.53 1.206.53.536 0 .944-.287.501-.38.501-.948 0-.52-.457-.89-.248-.2-.652-.41-.506-.257-.525-.247zm.204-4.524q1.29 0 2.374.695.939.584 1.513 1.538.637 1.05.637 2.267 0 1.27-.696 2.354-.608.953-1.537 1.513-1.05.637-2.276.637-1.26 0-2.345-.696-.954-.608-1.513-1.537-.637-1.05-.637-2.281 0-2.218 1.863-3.605 1.216-.885 2.617-.885zm.034.297q-1.153 0-2.145.608-.861.51-1.416 1.386Q.773-4.967.773-3.789q0 1.143.609 2.135.51.861 1.386 1.416Q3.799.418 4.99.418q1.129 0 2.121-.608.866-.51 1.416-1.386.656-1.031.656-2.213 0-2.048-1.693-3.338-1.138-.865-2.5-.865z"/><path id="r" d="M6.363-3.804q-.584.764-1.523.764-.73 0-1.216-.428-.589-.526-.589-1.406 0-.642.312-1.114.554-.886 1.644-.886 1.065 0 1.605.925.428.724.428 1.984 0 1.333-.457 2.165Q5.954-.686 4.772-.686q-.768 0-1.274-.477-.35-.32-.35-.72 0-.53.476-.53.141 0 .253.068.238.136.238.414 0 .248-.243.399.224.55.88.55.682 0 1.144-.789.423-.715.467-2.033zm0-.472q-.102-2.3-1.377-2.3-.506 0-.866.417-.418.477-.418 1.256 0 .423.15.763.346.769 1.105.769.457 0 .861-.297.243-.18.409-.399.102-.14.136-.209zM4.957-8.289q1.29 0 2.374.695.939.584 1.513 1.538.637 1.05.637 2.267 0 1.27-.696 2.354-.608.953-1.537 1.513-1.05.637-2.276.637-1.26 0-2.345-.696-.954-.608-1.513-1.537-.637-1.05-.637-2.281 0-2.218 1.863-3.605 1.216-.885 2.617-.885zm.034.297q-1.153 0-2.145.608-.861.51-1.416 1.386Q.773-4.967.773-3.789q0 1.143.609 2.135.51.861 1.386 1.416Q3.799.418 4.99.418q1.129 0 2.121-.608.866-.51 1.416-1.386.656-1.031.656-2.213 0-2.048-1.693-3.338-1.138-.865-2.5-.865z"/><path id="a" d="M4.962-8.29q1.289 0 2.369.696.944.584 1.518 1.538.637 1.05.637 2.267 0 1.27-.696 2.354-.608.953-1.537 1.513-1.05.637-2.281.637-1.26 0-2.34-.696-.959-.608-1.518-1.537-.637-1.05-.637-2.281 0-2.218 1.863-3.605 1.216-.885 2.622-.885zM6.266-.797v-.228q-.647-.03-.803-.22-.102-.126-.102-.466v-5.162q-.555.297-1.523.39v.238q.662.014.793.107.112.078.112.33v4.097q0 .428-.229.564-.18.107-.676.122v.228h2.428z"/><path id="b" d="M4.962-8.29q1.289 0 2.369.696.944.584 1.518 1.538.637 1.05.637 2.271 0 1.265-.696 2.35-.608.953-1.537 1.513-1.05.637-2.281.637-1.26 0-2.34-.696-.959-.608-1.518-1.532Q.477-2.568.477-3.794q0-2.223 1.863-3.61 1.216-.885 2.622-.885zm2.062 5.63h-.228q-.044.758-.282 1.06-.224.267-.677.267h-2.31q.72-.798 1.95-1.844 1.397-1.187 1.397-2.086 0-.701-.53-1.168-.521-.448-1.363-.448-.9 0-1.454.57-.419.433-.419.934 0 .56.482.56.448 0 .448-.458 0-.273-.283-.419.195-.885 1.197-.885.55 0 .905.39.33.374.33.894 0 .764-1.434 2.185-1.06 1.03-1.761 1.916v.394h4.032V-2.66z"/><path id="c" d="M4.957-8.29q1.29 0 2.374.696.939.584 1.513 1.538.637 1.05.637 2.267 0 1.27-.696 2.354-.608.953-1.537 1.513-1.05.637-2.276.637-1.26 0-2.345-.696-.954-.608-1.513-1.537-.637-1.05-.637-2.281 0-2.218 1.863-3.605 1.216-.885 2.617-.885zm-.744 4.564h.55q1.62 0 1.62 1.342 0 .535-.35.93-.424.466-1.086.466-1.016 0-1.274-.656.253-.132.253-.409 0-.136-.088-.272-.17-.2-.399-.2-.491 0-.491.54 0 .53.56.905.583.39 1.464.39.773 0 1.323-.332.788-.471.788-1.371 0-1.348-1.785-1.542 1.576-.23 1.576-1.48 0-.67-.589-1.094-.516-.37-1.294-.37-.783 0-1.338.419-.506.389-.506.92 0 .54.477.54.438 0 .438-.429 0-.272-.287-.443.224-.705 1.187-.705.374 0 .666.17.58.312.58 1.017 0 .793-.687 1.124-.32.16-.778.16h-.53v.38z"/><path id="d" d="M5.317-6.124v3.166H2.856l2.461-3.166zm-.36-2.165q1.29 0 2.374.695.939.584 1.513 1.538.637 1.05.637 2.271 0 1.27-.696 2.35-.608.958-1.537 1.518Q6.198.72 4.972.72q-1.26 0-2.345-.696-.954-.608-1.513-1.537-.637-1.05-.637-2.281 0-2.219 1.863-3.61 1.216-.885 2.617-.885zm.482 1.415L2.359-2.87v.37h2.958v.73q0 .437-.238.554-.205.097-.667.112v.238h2.36v-.238q-.609-.03-.76-.21-.097-.116-.097-.457v-.73H7.19v-.457H5.915v-3.916H5.44z"/><path id="e" d="M4.957-8.29q1.29 0 2.374.696.939.584 1.513 1.538.637 1.05.637 2.267 0 1.27-.696 2.354-.608.953-1.537 1.513-1.05.637-2.276.637-1.26 0-2.345-.696-.954-.608-1.513-1.537-.637-1.05-.637-2.281 0-2.218 1.863-3.605 1.216-.885 2.617-.885zM3.444-6.766l-.19 3.138.312.122q.637-.91 1.435-.91.68 0 1.075.56.287.423.287 1.045 0 .76-.428 1.275-.428.55-1.056.55-.944 0-1.197-.701.292-.117.292-.399 0-.477-.476-.477-.482 0-.482.55 0 .457.428.827.589.496 1.484.496.744 0 1.289-.399.846-.608.846-1.722 0-.817-.467-1.342-.554-.599-1.454-.599-.793 0-1.425.647l.136-2.11h2.71l.111-.55h-3.23z"/><path id="f" d="M3.614-3.366q.613-.837 1.397-.837.637 0 .997.506.267.39.267.968 0 .681-.32 1.182-.36.56-.915.56-.715 0-1.12-.818-.184-.399-.257-.914-.088-.608-.049-.647zM4.957-8.29q1.29 0 2.374.695.939.584 1.513 1.538.637 1.05.637 2.267 0 1.27-.696 2.354-.608.953-1.537 1.513-1.05.637-2.276.637-1.26 0-2.345-.696-.954-.608-1.513-1.537-.637-1.05-.637-2.281 0-2.218 1.863-3.605 1.216-.885 2.617-.885zm1.1 2.13q-.21.137-.21.39 0 .437.457.437t.458-.496q0-.38-.34-.656-.434-.39-1.115-.39-1.031 0-1.702.959-.657.939-.657 2.398 0 1.153.438 1.892.564.94 1.663.94.988 0 1.552-.808.37-.53.37-1.236 0-.764-.448-1.255-.496-.56-1.333-.56-.88 0-1.576.76.044-1.25.501-1.995.477-.798 1.183-.798.593 0 .758.418z"/><path id="g" d="M4.957-8.29q1.29 0 2.374.696.939.584 1.513 1.533.637 1.055.637 2.272 0 1.27-.696 2.354-.608.953-1.537 1.513-1.05.637-2.276.637-1.26 0-2.345-.696-.954-.608-1.513-1.537-.637-1.05-.637-2.281 0-2.218 1.863-3.605 1.216-.885 2.617-.885zM3.225-6.683v2.029h.229q.092-.871.301-1.187.19-.307.604-.307h2.174Q4.602-2.82 4.602-1.075q0 .486.35.486.34 0 .384-.569.166-2.641 1.713-5.23v-.296H3.225z"/><path id="h" d="M5.098-4.184q-1.274-.569-1.274-1.328 0-.447.34-.754.336-.31.847-.31.335 0 .617.15.589.316.589.958 0 .52-.457.905-.166.136-.4.258-.189.107-.262.121zm-.345.419l.087.039q.059.024.088.039 1.454.661 1.454 1.454 0 .448-.316.798-.438.447-1.138.447-.652 0-1.085-.418-.409-.394-.409-.905 0-.55.419-.939.185-.165.51-.335.283-.156.39-.18zm.204-4.524q1.29 0 2.374.695.939.584 1.513 1.538.637 1.05.637 2.267 0 1.27-.696 2.354-.608.953-1.537 1.513-1.05.637-2.276.637-1.26 0-2.345-.696-.954-.608-1.513-1.537-.637-1.05-.637-2.281 0-2.218 1.863-3.605 1.216-.885 2.617-.885zM5.4-4.033q1.362-.496 1.362-1.464 0-.579-.477-.968-.516-.409-1.284-.409-.613 0-1.066.248-.739.41-.739 1.168 0 .924 1.265 1.561-1.605.555-1.605 1.645 0 .68.608 1.128.603.438 1.483.438.764 0 1.309-.311.798-.462.798-1.294 0-1.075-1.654-1.742z"/><path id="i" d="M6.363-4.276q-.535.91-1.401.91-.545 0-.905-.438-.35-.443-.35-1.1 0-.617.287-1.075.374-.598.997-.598.69 0 1.065.778.185.385.258.896.078.578.049.627zM4.957-8.289q1.29 0 2.374.695.939.584 1.513 1.538.637 1.05.637 2.267 0 1.27-.696 2.354-.608.953-1.537 1.513-1.05.637-2.276.637-1.26 0-2.345-.696-.954-.608-1.513-1.537-.637-1.05-.637-2.281 0-2.218 1.863-3.605 1.216-.885 2.617-.885zM3.872-1.532q.243-.151.243-.39 0-.126-.058-.233-.141-.258-.433-.258-.477 0-.477.53 0 .321.258.628.511.57 1.367.57 1.09 0 1.703-.96.55-.855.55-2.32 0-1.109-.341-1.804Q6.164-6.874 5-6.874q-.725 0-1.246.419-.72.569-.72 1.58 0 .72.39 1.197.52.638 1.425.638.93 0 1.513-.764-.059 1.357-.477 2.058-.462.758-1.133.758-.642 0-.88-.544z"/><path id="K" d="M3.862-.895v-.229q.623-.014.779-.2.107-.14.107-.456v-3.946q0-.345-.21-.389-.102-.014-.676-.029v-.229q.93-.077 1.494-.379v4.972q0 .437.238.554.185.088.657.102v.229H3.862zm1.095-6.917q1.031 0 1.907.486.803.443 1.362 1.197.778 1.06.778 2.34 0 .997-.486 1.887-.443.803-1.197 1.362-1.06.778-2.34.778-.997 0-1.887-.486-.803-.443-1.362-1.197Q.953-2.505.953-3.79q0-1.892 1.523-3.118 1.119-.904 2.481-.904zm.044.243q-.94 0-1.737.428-.764.394-1.294 1.094-.778 1.017-.778 2.262 0 .9.428 1.713.399.763 1.094 1.294Q3.731 0 4.991 0q.88 0 1.712-.438.774-.394 1.304-1.104.759-1.012.759-2.243 0-1.756-1.406-2.909Q6.304-7.569 5-7.569zm-.044-.9q1.226 0 2.31.618.935.53 1.548 1.415.846 1.202.846 2.647 0 1.21-.618 2.296-.545.929-1.415 1.542-1.202.846-2.656.846-1.197 0-2.282-.618-.934-.545-1.547-1.415Q.297-2.34.297-3.8q0-2.248 1.853-3.683 1.27-.987 2.807-.987zm.044.238q-1.163 0-2.165.57-.885.51-1.464 1.322Q.535-5.17.535-3.789q0 1.143.57 2.145.51.885 1.322 1.464 1.168.837 2.554.837 1.139 0 2.14-.57.886-.51 1.465-1.323.837-1.167.837-2.553 0-2.107-1.703-3.464Q6.49-8.231 5-8.231z"/><path id="L" d="M3.035-.895v-.399q.584-.72 1.873-1.965 1.246-1.216 1.246-1.975 0-.458-.239-.788-.34-.458-.948-.458-.983 0-1.143.88.277.132.277.41 0 .457-.448.457-.476 0-.476-.54 0-.545.437-.983.516-.52 1.362-.52.686 0 1.187.316.667.433.667 1.216 0 .603-.399 1.119-.297.394-1.095 1.055-1.123.93-1.75 1.635h2.237q.598 0 .778-.38.122-.252.151-.846h.229v1.766H3.035zm1.922-6.917q1.031 0 1.907.486.803.443 1.362 1.197.778 1.06.778 2.34 0 .997-.486 1.887-.443.803-1.197 1.362-1.06.778-2.34.778-.997 0-1.887-.486-.803-.443-1.362-1.197Q.953-2.505.953-3.79q0-1.892 1.523-3.118 1.119-.904 2.481-.904zm.044.243q-.94 0-1.737.428-.764.394-1.294 1.094-.778 1.017-.778 2.262 0 .9.428 1.713.399.763 1.094 1.294Q3.731 0 4.991 0q.88 0 1.712-.438.774-.394 1.304-1.104.759-1.012.759-2.243 0-1.756-1.406-2.909Q6.304-7.569 5-7.569zm-.044-.9q1.226 0 2.31.618.935.53 1.548 1.415.846 1.202.846 2.647 0 1.21-.618 2.296-.545.929-1.415 1.542-1.202.846-2.656.846-1.197 0-2.282-.618-.934-.545-1.547-1.415Q.297-2.34.297-3.8q0-2.248 1.853-3.683 1.27-.987 2.807-.987zm.044.238q-1.163 0-2.165.57-.885.51-1.464 1.322Q.535-5.17.535-3.789q0 1.143.57 2.145.51.885 1.322 1.464 1.168.837 2.554.837 1.139 0 2.14-.57.886-.51 1.465-1.323.837-1.167.837-2.553 0-2.107-1.703-3.464Q6.49-8.231 5-8.231z"/><path id="M" d="M4.232-4.077h.516q.603 0 .978-.296.447-.346.447-.968 0-.54-.389-.871-.311-.268-.808-.268-.958 0-1.152.672.277.16.277.418 0 .428-.428.428-.467 0-.467-.54 0-.428.37-.764.535-.51 1.4-.51.643 0 1.12.257.734.41.734 1.149 0 1.216-1.542 1.444 1.741.175 1.741 1.484 0 .759-.617 1.226-.555.418-1.445.418-.783 0-1.333-.33-.618-.375-.618-.915 0-.53.457-.53.253 0 .404.219.078.126.078.248 0 .257-.243.389.257.632 1.245.632.472 0 .837-.248.55-.384.55-1.09 0-1.303-1.572-1.303h-.54v-.35zm.725-3.736q1.031 0 1.907.487.803.443 1.362 1.197.778 1.06.778 2.34 0 .997-.486 1.887-.443.803-1.197 1.362-1.06.778-2.34.778-.997 0-1.887-.486-.803-.443-1.362-1.197Q.953-2.505.953-3.79q0-1.892 1.523-3.118 1.119-.904 2.481-.904zm.044.244q-.94 0-1.737.428-.764.394-1.294 1.094-.778 1.017-.778 2.262 0 .9.428 1.713.399.763 1.094 1.294Q3.731 0 4.991 0q.88 0 1.712-.438.774-.394 1.304-1.104.759-1.012.759-2.243 0-1.756-1.406-2.909Q6.304-7.569 5-7.569zm-.044-.9q1.226 0 2.31.618.935.53 1.548 1.415.846 1.202.846 2.647 0 1.21-.618 2.296-.545.929-1.415 1.542-1.202.846-2.656.846-1.197 0-2.282-.618-.934-.545-1.547-1.415Q.297-2.34.297-3.8q0-2.248 1.853-3.683 1.27-.987 2.807-.987zm.044.238q-1.163 0-2.165.57-.885.51-1.464 1.322Q.535-5.17.535-3.789q0 1.143.57 2.145.51.885 1.322 1.464 1.168.837 2.554.837 1.139 0 2.14-.57.886-.51 1.465-1.323.837-1.167.837-2.553 0-2.107-1.703-3.464Q6.49-8.231 5-8.231z"/><path id="N" d="M5.439-6.771h.476v3.774h1.207v.448H5.915v.686q0 .433.22.535.174.097.588.112v.219H4.46v-.22q.603-.028.749-.189.107-.121.107-.457v-.686h-2.9v-.37L5.44-6.77zm-.122.734l-2.413 3.04h2.413v-3.04zm-.36-1.776q1.031 0 1.907.487.803.443 1.362 1.197.778 1.06.778 2.34 0 .997-.486 1.887-.443.803-1.197 1.362-1.06.778-2.34.778-.997 0-1.887-.486-.803-.443-1.362-1.197Q.953-2.505.953-3.79q0-1.892 1.523-3.118 1.119-.904 2.481-.904zm.044.244q-.94 0-1.737.428-.764.394-1.294 1.094-.778 1.017-.778 2.262 0 .9.428 1.713.399.763 1.094 1.294Q3.731 0 4.991 0q.88 0 1.712-.438.774-.394 1.304-1.104.759-1.012.759-2.243 0-1.756-1.406-2.909Q6.304-7.569 5-7.569zm-.044-.9q1.226 0 2.31.618.935.53 1.548 1.415.846 1.202.846 2.647 0 1.21-.618 2.296-.545.929-1.415 1.542-1.202.846-2.656.846-1.197 0-2.282-.618-.934-.545-1.547-1.415Q.297-2.34.297-3.8q0-2.248 1.853-3.683 1.27-.987 2.807-.987zm.044.238q-1.163 0-2.165.57-.885.51-1.464 1.322Q.535-5.17.535-3.789q0 1.143.57 2.145.51.885 1.322 1.464 1.168.837 2.554.837 1.139 0 2.14-.57.886-.51 1.465-1.323.837-1.167.837-2.553 0-2.107-1.703-3.464Q6.49-8.231 5-8.231z"/><path id="O" d="M3.483-6.674h3.152l-.092.54H3.882l-.117 2.028q.623-.608 1.382-.608.851 0 1.396.56.477.506.477 1.303 0 .964-.686 1.547-.584.506-1.406.506-.842 0-1.396-.447-.458-.37-.458-.837 0-.51.472-.51.458 0 .458.447 0 .272-.268.389.253.661 1.143.661.501 0 .895-.379.55-.516.55-1.367 0-.51-.21-.885-.36-.657-1.103-.657-.77 0-1.397.866l-.311-.112.18-3.045zm1.474-1.138q1.031 0 1.907.486.803.443 1.362 1.197.778 1.06.778 2.34 0 .997-.486 1.887-.443.803-1.197 1.362-1.06.778-2.34.778-.997 0-1.887-.486-.803-.443-1.362-1.197Q.953-2.505.953-3.79q0-1.892 1.523-3.118 1.119-.904 2.481-.904zm.044.243q-.94 0-1.737.428-.764.394-1.294 1.094-.778 1.017-.778 2.262 0 .9.428 1.713.399.763 1.094 1.294Q3.731 0 4.991 0q.88 0 1.712-.438.774-.394 1.304-1.104.759-1.012.759-2.243 0-1.756-1.406-2.909Q6.304-7.569 5-7.569zm-.044-.9q1.226 0 2.31.618.935.53 1.548 1.415.846 1.202.846 2.647 0 1.21-.618 2.296-.545.929-1.415 1.542-1.202.846-2.656.846-1.197 0-2.282-.618-.934-.545-1.547-1.415Q.297-2.34.297-3.8q0-2.248 1.853-3.683 1.27-.987 2.807-.987zm.044.238q-1.163 0-2.165.57-.885.51-1.464 1.322Q.535-5.17.535-3.789q0 1.143.57 2.145.51.885 1.322 1.464 1.168.837 2.554.837 1.139 0 2.14-.57.886-.51 1.465-1.323.837-1.167.837-2.553 0-2.107-1.703-3.464Q6.49-8.231 5-8.231z"/><path id="P" d="M3.673-3.785q.7-.73 1.517-.73.696 0 1.153.4.58.486.58 1.332 0 .482-.2.91Q6.213-.798 5.03-.798q-.973 0-1.528-.807-.486-.725-.486-1.941 0-1.212.486-2.053.672-1.177 1.844-1.177.633 0 1.056.38.32.291.32.627 0 .481-.447.481-.438 0-.438-.428 0-.224.2-.36-.18-.404-.73-.404-.773 0-1.235.93-.35.661-.4 1.765zm0 .4q0 .637.16 1.142.346 1.158 1.207 1.158.496 0 .836-.457.36-.491.36-1.216 0-.589-.277-.959-.35-.467-.948-.467-.37 0-.77.258-.15.107-.36.302t-.208.238zm1.284-4.428q1.031 0 1.907.487.803.443 1.362 1.197.778 1.06.778 2.34 0 .997-.486 1.887-.443.803-1.197 1.362-1.06.778-2.34.778-.997 0-1.887-.486-.803-.443-1.362-1.197Q.953-2.505.953-3.79q0-1.892 1.523-3.118 1.119-.904 2.481-.904zm.044.244q-.94 0-1.737.428-.764.394-1.294 1.094-.778 1.017-.778 2.262 0 .9.428 1.713.399.763 1.094 1.294Q3.731 0 4.991 0q.88 0 1.712-.438.774-.394 1.304-1.104.759-1.012.759-2.243 0-1.756-1.406-2.909Q6.304-7.569 5-7.569zm-.044-.9q1.226 0 2.31.618.935.53 1.548 1.415.846 1.202.846 2.647 0 1.21-.618 2.296-.545.929-1.415 1.542-1.202.846-2.656.846-1.197 0-2.282-.618-.934-.545-1.547-1.415Q.297-2.34.297-3.8q0-2.248 1.853-3.683 1.27-.987 2.807-.987zm.044.238q-1.163 0-2.165.57-.885.51-1.464 1.322Q.535-5.17.535-3.789q0 1.143.57 2.145.51.885 1.322 1.464 1.168.837 2.554.837 1.139 0 2.14-.57.886-.51 1.465-1.323.837-1.167.837-2.553 0-2.107-1.703-3.464Q6.49-8.231 5-8.231z"/><path id="Q" d="M3.274-6.577H7.02v.297Q5.395-3.63 5.302-1.187 5.288-.7 4.957-.7q-.34 0-.34-.477 0-1.683 1.882-4.884H4.36q-.443 0-.638.418-.15.287-.228 1.027h-.22v-1.96zm1.683-1.236q1.031 0 1.907.487.803.443 1.362 1.197.778 1.06.778 2.34 0 .997-.486 1.887-.443.803-1.197 1.362-1.06.778-2.34.778-.997 0-1.887-.486-.803-.443-1.362-1.197Q.953-2.505.953-3.79q0-1.892 1.523-3.118 1.119-.904 2.481-.904zm.044.244q-.94 0-1.737.428-.764.394-1.294 1.094-.778 1.017-.778 2.262 0 .9.428 1.713.399.763 1.094 1.294Q3.731 0 4.991 0q.88 0 1.712-.438.774-.394 1.304-1.104.759-1.012.759-2.243 0-1.756-1.406-2.909Q6.304-7.569 5-7.569zm-.044-.9q1.226 0 2.31.618.935.53 1.548 1.415.846 1.202.846 2.647 0 1.21-.618 2.296-.545.929-1.415 1.542-1.202.846-2.656.846-1.197 0-2.282-.618-.934-.545-1.547-1.415Q.297-2.34.297-3.8q0-2.248 1.853-3.683 1.27-.987 2.807-.987zm.044.238q-1.163 0-2.165.57-.885.51-1.464 1.322Q.535-5.17.535-3.789q0 1.143.57 2.145.51.885 1.322 1.464 1.168.837 2.554.837 1.139 0 2.14-.57.886-.51 1.465-1.323.837-1.167.837-2.553 0-2.107-1.703-3.464Q6.49-8.231 5-8.231z"/><path id="R" d="M4.47-3.877Q3.246-4.505 3.246-5.39q0-.623.54-1.026.491-.36 1.196-.36.667 0 1.124.311.608.37.608 1.017 0 .948-1.347 1.415 1.624.667 1.624 1.669 0 .7-.578 1.128-.575.438-1.465.438-.69 0-1.211-.267-.817-.433-.817-1.246 0-1.07 1.552-1.566zm.609-.287l.068-.03q1.016-.452 1.016-1.215 0-.404-.296-.72-.35-.35-.866-.35-.472 0-.788.257-.36.302-.36.769 0 .442.37.768.209.195.515.35.238.137.34.17zm-.307.39l-.063.028q-1.221.506-1.221 1.367 0 .526.409.905.432.39 1.055.39.462 0 .813-.22.559-.365.559-.987 0-.482-.428-.837-.239-.204-.608-.399-.419-.214-.516-.248zm.185-4.038q1.031 0 1.907.486.803.443 1.362 1.197.778 1.06.778 2.34 0 .997-.486 1.887-.443.803-1.197 1.362-1.06.778-2.34.778-.997 0-1.887-.486-.803-.443-1.362-1.197Q.953-2.505.953-3.79q0-1.892 1.523-3.118 1.119-.904 2.481-.904zm.044.243q-.94 0-1.737.428-.764.394-1.294 1.094-.778 1.017-.778 2.262 0 .9.428 1.713.399.763 1.094 1.294Q3.731 0 4.991 0q.88 0 1.712-.438.774-.394 1.304-1.104.759-1.012.759-2.243 0-1.756-1.406-2.909Q6.304-7.569 5-7.569zm-.044-.9q1.226 0 2.31.618.935.53 1.548 1.415.846 1.202.846 2.647 0 1.21-.618 2.296-.545.929-1.415 1.542-1.202.846-2.656.846-1.197 0-2.282-.618-.934-.545-1.547-1.415Q.297-2.34.297-3.8q0-2.248 1.853-3.683 1.27-.987 2.807-.987zm.044.238q-1.163 0-2.165.57-.885.51-1.464 1.322Q.535-5.17.535-3.789q0 1.143.57 2.145.51.885 1.322 1.464 1.168.837 2.554.837 1.139 0 2.14-.57.886-.51 1.465-1.323.837-1.167.837-2.553 0-2.107-1.703-3.464Q6.49-8.231 5-8.231z"/><path id="S" d="M6.314-3.804q-.584.744-1.474.744-.671 0-1.153-.408-.579-.487-.579-1.358 0-.637.307-1.123.545-.827 1.576-.827.949 0 1.474.768.496.74.496 2.024 0 1.22-.418 2.028-.618 1.158-1.78 1.158-.73 0-1.226-.467-.331-.316-.331-.7 0-.496.467-.496.481 0 .481.467 0 .238-.243.37.214.53.837.53.661 0 1.1-.74.422-.71.466-1.97zm0-.462q0-.779-.258-1.387-.36-.827-1.065-.827-.482 0-.827.409-.399.457-.399 1.206 0 .545.239.915.345.56.948.56.326 0 .657-.18.316-.166.545-.458.16-.19.16-.238zM4.957-7.812q1.031 0 1.907.486.803.443 1.362 1.197.778 1.06.778 2.34 0 .997-.486 1.887-.443.803-1.197 1.362-1.06.778-2.34.778-.997 0-1.887-.486-.803-.443-1.362-1.197Q.953-2.505.953-3.79q0-1.892 1.523-3.118 1.119-.904 2.481-.904zm.044.243q-.94 0-1.737.428-.764.394-1.294 1.094-.778 1.017-.778 2.262 0 .9.428 1.713.399.763 1.094 1.294Q3.731 0 4.991 0q.88 0 1.712-.438.774-.394 1.304-1.104.759-1.012.759-2.243 0-1.756-1.406-2.909Q6.304-7.569 5-7.569zm-.044-.9q1.226 0 2.31.618.935.53 1.548 1.415.846 1.202.846 2.647 0 1.21-.618 2.296-.545.929-1.415 1.542-1.202.846-2.656.846-1.197 0-2.282-.618-.934-.545-1.547-1.415Q.297-2.34.297-3.8q0-2.248 1.853-3.683 1.27-.987 2.807-.987zm.044.238q-1.163 0-2.165.57-.885.51-1.464 1.322Q.535-5.17.535-3.789q0 1.143.57 2.145.51.885 1.322 1.464 1.168.837 2.554.837 1.139 0 2.14-.57.886-.51 1.465-1.323.837-1.167.837-2.553 0-2.107-1.703-3.464Q6.49-8.231 5-8.231z"/><use id="B" xlink:href="#a"/><use id="C" xlink:href="#b"/><use id="D" xlink:href="#c"/><use id="E" xlink:href="#d"/><use id="F" xlink:href="#e"/><use id="G" xlink:href="#f"/><use id="H" xlink:href="#g"/><use id="I" xlink:href="#h"/><use id="J" xlink:href="#i"/><use id="s" xlink:href="#j"/><use id="t" xlink:href="#k"/><use id="u" xlink:href="#l"/><use id="v" xlink:href="#m"/><use id="w" xlink:href="#n"/><use id="x" xlink:href="#o"/><use id="y" xlink:href="#p"/><use id="z" xlink:href="#q"/><use id="A" xlink:href="#r"/></defs><use x="-66.022" y="-57.553" xlink:href="#s"/><use x="-56.06" y="-57.553" xlink:href="#t"/><use x="-46.097" y="-57.553" xlink:href="#u"/><use x="-36.135" y="-57.553" xlink:href="#v"/><use x="-26.172" y="-57.553" xlink:href="#w"/><use x="-16.209" y="-57.553" xlink:href="#x"/><use x="-6.247" y="-57.553" xlink:href="#y"/><use x="3.716" y="-57.553" xlink:href="#z"/><use x="13.679" y="-57.553" xlink:href="#A"/><use x="26.531" y="-57.553" xlink:href="#B"/><use x="36.494" y="-57.553" xlink:href="#C"/><use x="46.456" y="-57.553" xlink:href="#D"/><use x="56.419" y="-57.553" xlink:href="#E"/><use x="66.381" y="-57.553" xlink:href="#F"/><use x="76.344" y="-57.553" xlink:href="#G"/><use x="86.307" y="-57.553" xlink:href="#H"/><use x="96.269" y="-57.553" xlink:href="#I"/><use x="106.232" y="-57.553" xlink:href="#J"/><use x="119.084" y="-57.553" xlink:href="#K"/><use x="129.047" y="-57.553" xlink:href="#L"/><use x="139.009" y="-57.553" xlink:href="#M"/><use x="148.972" y="-57.553" xlink:href="#N"/><use x="158.935" y="-57.553" xlink:href="#O"/><use x="168.897" y="-57.553" xlink:href="#P"/><use x="178.86" y="-57.553" xlink:href="#Q"/><use x="188.823" y="-57.553" xlink:href="#R"/><use x="198.785" y="-57.553" xlink:href="#S"/></svg>