<svg xmlns="http://www.w3.org/2000/svg" width="206.337" height="27.484" viewBox="0 -20.613 154.753 20.613"><path d="M13.05-11.402c0-.797-.05-1.594-.398-2.331-.458-.957-1.275-1.116-1.694-1.116-.597 0-1.325.259-1.733 1.185-.319.687-.369 1.465-.369 2.261 0 .747.04 1.644.449 2.401a1.825 1.825 0 0 0 1.643 1.006c.538 0 1.295-.209 1.734-1.155.319-.688.368-1.465.368-2.252zm-2.102 3.187c-.388 0-.976-.25-1.155-1.205-.11-.598-.11-1.514-.11-2.102 0-.638 0-1.295.08-1.833.19-1.185.936-1.275 1.185-1.275.33 0 .987.18 1.176 1.165.1.558.1 1.315.1 1.943 0 .747 0 1.424-.11 2.062-.15.946-.717 1.245-1.166 1.245z"/><path d="M15.381-10.405c0-2.6-2.012-4.642-4.422-4.642-2.441 0-4.433 2.062-4.433 4.642 0 2.6 2.012 4.642 4.423 4.642 2.44 0 4.432-2.062 4.432-4.642zM10.96-6.162c-2.232 0-4.035-1.892-4.035-4.243 0-2.37 1.823-4.244 4.025-4.244 2.23 0 4.034 1.893 4.034 4.244 0 2.37-1.823 4.243-4.024 4.243zM24.68-14.59c0-.24 0-.26-.229-.26-.617.638-1.494.638-1.812.638v.31c.199 0 .786 0 1.305-.26v5.16c0 .359-.03.478-.927.478h-.319v.309c.349-.03 1.216-.03 1.614-.03s1.265 0 1.614.03v-.309h-.319c-.897 0-.926-.11-.926-.478v-5.588z"/><path d="M28.664-10.405c0-2.6-2.012-4.642-4.422-4.642-2.441 0-4.433 2.062-4.433 4.642 0 2.6 2.012 4.642 4.423 4.642 2.44 0 4.432-2.062 4.432-4.642zm-4.422 4.243c-2.232 0-4.035-1.892-4.035-4.243 0-2.37 1.823-4.244 4.025-4.244 2.23 0 4.034 1.893 4.034 4.244 0 2.37-1.823 4.243-4.024 4.243zM36.3-8.982l1.056-1.026c1.554-1.375 2.151-1.913 2.151-2.909 0-1.135-.896-1.932-2.111-1.932a1.84 1.84 0 0 0-1.863 1.803c0 .558.498.558.528.558.17 0 .518-.12.518-.528 0-.26-.18-.518-.528-.518-.08 0-.1 0-.13.01.23-.648.767-1.016 1.345-1.016.907 0 1.335.807 1.335 1.623 0 .797-.498 1.584-1.046 2.202l-1.912 2.132c-.11.109-.11.129-.11.368h3.696l.279-1.733h-.25c-.05.299-.119.737-.219.886-.07.08-.727.08-.946.08H36.3z"/><path d="M41.948-10.405c0-2.6-2.012-4.642-4.422-4.642-2.441 0-4.433 2.062-4.433 4.642 0 2.6 2.012 4.642 4.423 4.642 2.44 0 4.432-2.062 4.432-4.642zm-4.422 4.243c-2.232 0-4.035-1.892-4.035-4.243 0-2.37 1.823-4.244 4.025-4.244 2.23 0 4.034 1.893 4.034 4.244 0 2.37-1.823 4.243-4.024 4.243zM51.208-11.721c.817-.27 1.394-.966 1.394-1.753 0-.817-.876-1.375-1.833-1.375-1.006 0-1.763.597-1.763 1.355 0 .328.22.517.508.517.31 0 .508-.219.508-.507 0-.498-.468-.498-.617-.498.309-.489.966-.618 1.325-.618.408 0 .956.22.956 1.116 0 .119-.02.697-.279 1.135-.299.478-.638.508-.886.518-.08.01-.32.03-.39.03-.079.01-.149.02-.149.12 0 .11.07.11.24.11h.438c.817 0 1.185.676 1.185 1.653 0 1.354-.687 1.643-1.125 1.643-.429 0-1.176-.17-1.524-.757.348.05.657-.17.657-.548 0-.358-.269-.557-.558-.557-.239 0-.558.139-.558.577 0 .907.927 1.564 2.013 1.564 1.215 0 2.121-.906 2.121-1.922 0-.817-.627-1.594-1.663-1.803z"/><path d="M55.231-10.405c0-2.6-2.012-4.642-4.422-4.642-2.441 0-4.433 2.062-4.433 4.642 0 2.6 2.012 4.642 4.423 4.642 2.44 0 4.432-2.062 4.432-4.642zM50.81-6.162c-2.232 0-4.035-1.892-4.035-4.243 0-2.37 1.823-4.244 4.025-4.244 2.23 0 4.034 1.893 4.034 4.244 0 2.37-1.823 4.243-4.024 4.243zM64.53-9.859v.867c0 .359-.02.468-.756.468h-.21v.309c.409-.03.927-.03 1.345-.03s.946 0 1.355.03v-.309h-.21c-.736 0-.756-.11-.756-.468v-.867h.996v-.309h-.996V-14.7c0-.2 0-.259-.16-.259-.09 0-.12 0-.2.12l-3.057 4.671v.31h2.65zm.06-.309h-2.43l2.43-3.715v3.715z"/><path d="M68.515-10.405c0-2.6-2.012-4.642-4.422-4.642-2.441 0-4.433 2.062-4.433 4.642 0 2.6 2.012 4.642 4.423 4.642 2.44 0 4.432-2.062 4.432-4.642zm-4.422 4.243c-2.232 0-4.035-1.892-4.035-4.243 0-2.37 1.823-4.244 4.025-4.244 2.23 0 4.034 1.893 4.034 4.244 0 2.37-1.823 4.243-4.024 4.243zM79.359-10.217c0-1.185-.817-2.182-1.893-2.182-.478 0-.907.16-1.265.508v-1.942c.2.06.528.13.847.13 1.225 0 1.922-.907 1.922-1.037 0-.06-.03-.11-.1-.11-.01 0-.03 0-.08.03-.198.09-.686.29-1.354.29a3.23 3.23 0 0 1-1.325-.28c-.08-.03-.1-.03-.12-.03-.1 0-.1.08-.1.24v2.948c0 .18 0 .26.14.26.07 0 .09-.03.13-.09.11-.16.478-.698 1.285-.698.518 0 .767.459.847.638.16.369.179.757.179 1.255 0 .349 0 .946-.24 1.365-.238.388-.607.647-1.065.647-.727 0-1.295-.528-1.464-1.115.03.01.06.02.17.02.328 0 .497-.25.497-.489s-.169-.488-.498-.488c-.14 0-.488.07-.488.528 0 .857.687 1.823 1.803 1.823 1.156 0 2.172-.956 2.172-2.221z"/><path d="M81.798-10.405c0-2.6-2.012-4.642-4.422-4.642-2.441 0-4.433 2.062-4.433 4.642 0 2.6 2.012 4.642 4.423 4.642 2.44 0 4.432-2.062 4.432-4.642zm-4.422 4.243c-2.232 0-4.035-1.892-4.035-4.243 0-2.37 1.823-4.244 4.025-4.244 2.23 0 4.034 1.893 4.034 4.244 0 2.37-1.823 4.243-4.024 4.243zM89.484-11.482v-.24c0-2.52 1.235-2.878 1.743-2.878.24 0 .658.06.877.398-.15 0-.548 0-.548.449 0 .308.239.458.458.458.16 0 .458-.09.458-.478 0-.598-.438-1.076-1.265-1.076-1.275 0-2.62 1.285-2.62 3.486 0 2.66 1.156 3.367 2.082 3.367 1.106 0 2.052-.936 2.052-2.251 0-1.265-.886-2.221-1.992-2.221-.677 0-1.046.508-1.245.986zm1.185 3.207c-.627 0-.926-.597-.986-.747-.18-.468-.18-1.265-.18-1.444 0-.777.32-1.773 1.216-1.773.16 0 .618 0 .927.617.179.369.179.877.179 1.365 0 .478 0 .976-.17 1.335-.299.597-.757.647-.986.647z"/><path d="M95.082-10.405c0-2.6-2.012-4.642-4.422-4.642-2.441 0-4.433 2.062-4.433 4.642 0 2.6 2.012 4.642 4.423 4.642 2.44 0 4.432-2.062 4.432-4.642zM90.66-6.162c-2.232 0-4.035-1.892-4.035-4.243 0-2.37 1.823-4.244 4.025-4.244 2.23 0 4.034 1.893 4.034 4.244 0 2.37-1.823 4.243-4.024 4.243zM106.195-14.281c.09-.12.09-.14.09-.349h-2.421c-1.216 0-1.236-.13-1.275-.319h-.25l-.328 2.052h.249c.03-.16.12-.787.249-.906.07-.06.847-.06.976-.06h2.062c-.11.16-.897 1.245-1.116 1.574-.896 1.345-1.225 2.73-1.225 3.745 0 .1 0 .548.458.548.459 0 .459-.448.459-.548v-.508c0-.548.03-1.096.11-1.633.04-.23.178-1.086.617-1.704l1.345-1.892z"/><path d="M108.365-10.405c0-2.6-2.012-4.642-4.422-4.642-2.441 0-4.433 2.062-4.433 4.642 0 2.6 2.012 4.642 4.423 4.642 2.44 0 4.432-2.062 4.432-4.642zm-4.422 4.243c-2.232 0-4.035-1.892-4.035-4.243 0-2.37 1.823-4.244 4.025-4.244 2.23 0 4.034 1.893 4.034 4.244 0 2.37-1.823 4.243-4.024 4.243zM116.36-12.767c-.459-.3-.498-.638-.498-.807 0-.608.647-1.026 1.354-1.026.727 0 1.365.518 1.365 1.235 0 .568-.388 1.046-.986 1.395l-1.235-.797zm1.454.946c.717-.368 1.205-.886 1.205-1.544 0-.916-.886-1.484-1.793-1.484-.996 0-1.803.737-1.803 1.663 0 .18.02.628.439 1.096.11.12.478.369.727.538-.578.289-1.435.847-1.435 1.833 0 1.056 1.016 1.723 2.062 1.723 1.126 0 2.072-.826 2.072-1.892a1.8 1.8 0 0 0-.488-1.226c-.189-.209-.348-.308-.986-.707zm-.996.418l1.225.777c.279.19.747.489.747 1.096 0 .737-.747 1.255-1.564 1.255-.856 0-1.573-.617-1.573-1.444 0-.578.318-1.215 1.165-1.684z"/><path d="M121.65-10.405c0-2.6-2.013-4.642-4.423-4.642-2.441 0-4.433 2.062-4.433 4.642 0 2.6 2.012 4.642 4.423 4.642 2.44 0 4.432-2.062 4.432-4.642zm-4.423 4.243c-2.232 0-4.035-1.892-4.035-4.243 0-2.37 1.823-4.244 4.025-4.244 2.23 0 4.034 1.893 4.034 4.244 0 2.37-1.823 4.243-4.024 4.243zM131.676-11.383v.319c0 2.33-1.036 2.79-1.614 2.79-.17 0-.707-.02-.976-.36.438 0 .518-.288.518-.458 0-.308-.24-.458-.458-.458-.16 0-.459.09-.459.478 0 .668.538 1.076 1.385 1.076 1.285 0 2.5-1.355 2.5-3.496 0-2.68-1.145-3.357-2.032-3.357-.548 0-1.036.179-1.464.627-.409.449-.638.867-.638 1.614 0 1.245.877 2.221 1.993 2.221.607 0 1.016-.418 1.245-.996zm-1.235.767c-.16 0-.618 0-.927-.627-.179-.369-.179-.867-.179-1.355 0-.538 0-1.006.209-1.374.27-.499.648-.628.996-.628.458 0 .787.338.957.787.119.319.159.946.159 1.404 0 .827-.339 1.793-1.215 1.793z"/><path d="M134.932-10.405c0-2.6-2.012-4.642-4.422-4.642-2.441 0-4.433 2.062-4.433 4.642 0 2.6 2.012 4.642 4.423 4.642 2.44 0 4.432-2.062 4.432-4.642zm-4.422 4.243c-2.232 0-4.035-1.892-4.035-4.243 0-2.37 1.823-4.244 4.025-4.244 2.23 0 4.034 1.893 4.034 4.244 0 2.37-1.823 4.243-4.024 4.243zM141.742-14.59c0-.24 0-.26-.23-.26-.617.638-1.494.638-1.812.638v.31c.199 0 .786 0 1.305-.26v5.16c0 .359-.03.478-.927.478h-.319v.309c.349-.03 1.216-.03 1.614-.03s1.265 0 1.614.03v-.309h-.319c-.897 0-.926-.11-.926-.478v-5.588zm6.634 3.188c0-.797-.05-1.594-.398-2.331-.458-.957-1.275-1.116-1.693-1.116-.598 0-1.325.259-1.734 1.185-.318.687-.368 1.465-.368 2.261 0 .747.04 1.644.448 2.401a1.825 1.825 0 0 0 1.644 1.006c.537 0 1.295-.209 1.733-1.155.319-.688.368-1.465.368-2.252zm-2.101 3.187c-.389 0-.977-.25-1.156-1.205-.11-.598-.11-1.514-.11-2.102 0-.638 0-1.295.08-1.833.19-1.185.936-1.275 1.186-1.275.328 0 .986.18 1.175 1.165.1.558.1 1.315.1 1.943 0 .747 0 1.424-.11 2.062-.15.946-.717 1.245-1.165 1.245z"/><path d="M148.216-10.405c0-2.6-2.012-4.642-4.422-4.642-2.441 0-4.433 2.062-4.433 4.642 0 2.6 2.012 4.642 4.423 4.642 2.44 0 4.432-2.062 4.432-4.642zm-4.422 4.243c-2.232 0-4.035-1.892-4.035-4.243 0-2.37 1.823-4.244 4.025-4.244 2.23 0 4.034 1.893 4.034 4.244 0 2.37-1.823 4.243-4.024 4.243z"/></svg>