<svg xmlns="http://www.w3.org/2000/svg" width="163.027" height="48.653" viewBox="0 -36.49 122.27 36.49"><path d="M24.718-30.152a4.434 4.434 0 0 0-4.438 4.438 4.434 4.434 0 0 0 4.438 4.438 4.434 4.434 0 0 0 4.438-4.438 4.434 4.434 0 0 0-4.438-4.438zm0 .268c2.3 0 4.17 1.87 4.17 4.17s-1.87 4.17-4.17 4.17-4.17-1.87-4.17-4.17c0-2.282 1.85-4.17 4.17-4.17zm-.01 6.844c.489 0 .94-.163 1.294-.527.384-.432.604-1.131.604-2.214 0-1.304-.355-2.656-1.898-2.656-1.409 0-1.888 1.141-1.888 2.656 0 1.083.22 1.782.613 2.214.326.345.796.527 1.275.527zm-.01-5.128c.978 0 1.218.978 1.218 2.396 0 1.524-.25 2.444-1.208 2.444-.891 0-1.208-.824-1.208-2.444 0-1.256.211-2.396 1.198-2.396zM39.279-30.152a4.434 4.434 0 0 0-4.438 4.438 4.434 4.434 0 0 0 4.438 4.438 4.434 4.434 0 0 0 4.438-4.438 4.434 4.434 0 0 0-4.438-4.438zm1.639 7.265H37.84v-.632c.968 0 1.016-.077 1.016-.662v-2.693c0-.365-.02-.508-.192-.508-.124 0-.402.077-.68.172l-.202-.632a10.977 10.977 0 0 0 2.023-.796l.144.067v4.39c0 .585.057.662.968.662v.632zM49.536-21.401h8.627v-8.627h-8.627v8.627zm8.358-8.358v8.09h-8.09v-8.09h8.09zm-6.642 4.006c0-1.533.21-2.473.834-2.473.182 0 .374.077.517.307.173.288.336.959.336 2.166 0 1.208-.134 1.88-.297 2.167-.154.268-.326.364-.547.364-.718 0-.843-1.131-.843-2.53zm-.575 0c0 1.141.182 1.908.47 2.3.134.183.45.509.948.509.365 0 .681-.182.93-.508.307-.422.49-1.14.49-2.3 0-1.112-.183-1.899-.528-2.31a1.118 1.118 0 0 0-.892-.432c-1.236 0-1.418 1.591-1.418 2.741zm3.508 0c0 1.141.182 1.908.48 2.3.133.183.43.509.939.509.364 0 .69-.182.939-.508.307-.422.48-1.14.48-2.3 0-1.314-.24-2.742-1.42-2.742-.383 0-.68.172-.89.431-.288.336-.528 1.007-.528 2.31zm.575 0c0-1.207.163-1.878.336-2.166.115-.173.287-.307.508-.307.182 0 .374.077.517.307.173.288.326.959.326 2.166 0 1.208-.134 1.88-.297 2.167-.144.268-.326.364-.546.364-.192 0-.384-.096-.547-.364-.134-.25-.297-.863-.297-2.167zM64.097-21.401h8.627v-8.627h-8.627v8.627zm3.02-7.323v5.003c0 .45.057.48.585.48v.584H65.63v-.584c.556 0 .604-.039.604-.48v-3.652c0-.249-.02-.326-.077-.326s-.24.096-.45.23l-.154-.594c.441-.201.959-.527 1.314-.815l.249.154zm1.533 3.01c0-1.18.067-3.164 1.438-3.164 1.323 0 1.438 1.84 1.438 3.164 0 1.322-.115 3.163-1.438 3.163-1.38 0-1.438-2.003-1.438-3.163zm.93 0c0 1.37.106 2.032.22 2.3.087.201.163.278.288.278.46 0 .499-1.572.499-2.578 0-1.371-.106-2.032-.22-2.3-.087-.202-.164-.279-.279-.279-.124 0-.191.077-.287.278-.087.211-.22.757-.22 2.3zM78.668-22.417a.993.993 0 0 0 1.016 1.016h6.595a.993.993 0 0 0 1.016-1.016v-6.595a.993.993 0 0 0-1.016-1.016h-6.595a.993.993 0 0 0-1.016 1.016v6.595zm7.61-7.342c.432 0 .748.316.748.747v6.595a.725.725 0 0 1-.747.748h-6.595a.725.725 0 0 1-.748-.748v-6.595c0-.43.317-.747.748-.747h6.595zm-6.306 4.102l.21.058c.192-.317.537-.547.93-.547.806 0 .92.72.92 1.38 0 1.333-.584 1.563-.881 1.563a.714.714 0 0 1-.566-.268c-.144-.183-.153-.365-.191-.585-.02-.173-.154-.259-.307-.259-.144 0-.307.125-.307.364 0 .365.46.997 1.332.997.69 0 1.515-.45 1.515-1.869 0-.843-.383-1.639-1.38-1.639-.355 0-.671.125-.911.316h-.01l.154-1.802h1.869l.144-.556h-.211c-.038.115-.077.125-.326.125h-1.764l-.22 2.722zm3.306-.096c0 1.141.183 1.908.48 2.3.134.183.431.509.94.509.363 0 .69-.182.939-.508.306-.422.479-1.14.479-2.3 0-1.314-.24-2.742-1.419-2.742-.383 0-.68.172-.891.431-.288.336-.528 1.007-.528 2.31zm.576 0c0-1.207.163-1.878.335-2.166.115-.173.288-.307.508-.307.182 0 .374.077.518.307.172.288.326.959.326 2.166 0 1.208-.134 1.88-.297 2.167-.144.268-.326.364-.547.364-.192 0-.383-.096-.546-.364-.134-.25-.297-.863-.297-2.167zM101.866-29.04a.986.986 0 0 0-.988-.988h-6.652a.986.986 0 0 0-.987.988v6.652c0 .546.44.987.987.987h6.652c.547 0 .988-.441.988-.987v-6.652zm-5.962 3.326c0-1.496.067-3.164 1.198-3.164 1.102 0 1.188 1.544 1.188 3.164s-.086 3.163-1.188 3.163c-1.131 0-1.198-1.678-1.198-3.163zm-.576-3.01v5.003c0 .45.058.48.441.48v.584h-1.773v-.584c.422 0 .47-.039.47-.48v-3.642c0-.25-.01-.326-.067-.326-.067 0-.23.086-.307.153l-.173-.594c.297-.124.834-.46 1.17-.748l.24.154zm3.413 3.01c0-1.429.029-3.164 1.188-3.164 1.103 0 1.19 1.544 1.19 3.164s-.087 3.163-1.19 3.163c-1.16 0-1.188-1.745-1.188-3.163zm-1.936 0c0 1.37.028 2.022.086 2.3.057.201.105.288.21.288.097 0 .145-.087.202-.288.058-.278.086-.93.086-2.3 0-1.371-.028-2.023-.086-2.3-.057-.202-.105-.279-.201-.279-.106 0-.154.077-.211.278-.058.288-.086.978-.086 2.3zm2.827 0c0 1.37.029 2.022.096 2.3.048.201.096.288.201.288.106 0 .144-.087.202-.288.067-.278.086-.93.086-2.3 0-1.371-.02-2.023-.086-2.3-.058-.202-.096-.279-.202-.279-.105 0-.153.077-.2.278-.068.288-.097.959-.097 2.3zM29.175-10.77a4.455 4.455 0 0 0-4.457-4.458c-2.464 0-4.457 1.994-4.457 4.457s1.993 4.458 4.457 4.458a4.455 4.455 0 0 0 4.457-4.458zm-4.457-4.16c2.3 0 4.16 1.86 4.16 4.16s-1.86 4.16-4.16 4.16-4.16-1.86-4.16-4.16c0-2.282 1.84-4.16 4.16-4.16zm-.039 6.652c1.16 0 1.822-.93 1.822-2.579 0-1.457-.595-2.415-1.735-2.415-1.026 0-1.84.92-1.84 2.53 0 1.16.507 2.464 1.753 2.464zm.03-.508c-.681 0-1.122-.71-1.122-1.908 0-1.974.91-2.06 1.13-2.06.796 0 1.132.728 1.132 1.955 0 1.284-.365 2.013-1.14 2.013zM39.279-15.228c-2.463 0-4.457 1.994-4.457 4.457s1.994 4.458 4.457 4.458a4.455 4.455 0 0 0 4.457-4.458 4.455 4.455 0 0 0-4.457-4.457zm-.383 2.924h-.02l-.94.45-.181-.814 1.284-.604h.901v5.032h-1.044v-4.064zM49.536-6.457h8.627v-8.627h-8.627v8.627zm8.34-8.34v8.052h-8.052v-8.051h8.051zm-5.77 6.528c.775 0 1.39-.738 1.39-2.53 0-1.63-.48-2.473-1.372-2.473-.767 0-1.409.786-1.409 2.53 0 1.572.508 2.473 1.39 2.473zm0-.498c-.528 0-.816-.69-.816-2.023 0-1.275.326-1.984.825-1.984.594 0 .805.738.805 2.013 0 .882-.134 1.994-.815 1.994zm3.488.498c.776 0 1.39-.738 1.39-2.53 0-1.63-.48-2.473-1.37-2.473-.768 0-1.41.786-1.41 2.53 0 1.572.508 2.473 1.39 2.473zm0-.498c-.527 0-.815-.69-.815-2.023 0-1.275.326-1.984.825-1.984.584 0 .805.738.805 2.013s-.278 1.994-.805 1.994h-.01zM72.724-6.457v-8.627h-8.627v8.627h8.627zm-4.198-4.294c0-1.659.517-2.617 1.505-2.617 1.044 0 1.418 1.102 1.418 2.578 0 1.735-.537 2.617-1.486 2.617-.996 0-1.437-1.025-1.437-2.578zm-2.157-2.55h.815v5.061h-.92v-4.179h-.02l-.805.431-.287-.661 1.217-.652zm3.643 4.313c.354 0 .498-.584.498-1.783 0-1.15-.144-1.782-.508-1.782s-.537.575-.537 1.782c0 1.42.22 1.783.547 1.783zM78.668-8.374c0 1.208.71 1.917 1.917 1.917h4.793c1.207 0 1.917-.71 1.917-1.917v-4.793c0-1.208-.71-1.917-1.917-1.917h-4.793c-1.208 0-1.917.71-1.917 1.917v4.793zm6.71-6.422c1.045 0 1.63.585 1.63 1.63v4.792c0 1.045-.585 1.63-1.63 1.63h-4.793c-1.045 0-1.63-.576-1.63-1.63v-4.793c0-1.044.585-1.63 1.63-1.63h4.793zm-.652 6.527c.786 0 1.39-.738 1.39-2.53 0-1.63-.47-2.473-1.37-2.473-.758 0-1.4.786-1.4 2.53 0 1.563.498 2.473 1.38 2.473zm0-.498c-.517 0-.805-.69-.805-2.023 0-1.275.326-1.984.824-1.984.585 0 .796.738.796 2.013s-.269 1.994-.805 1.994h-.01zm-2.32-4.41h-1.993l-.288 2.234c.134-.02.326-.048.566-.048.795 0 1.17.431 1.178 1.131 0 .652-.43 1.112-1.006 1.112-.374 0-.67-.153-.843-.268l-.182.46c.2.144.584.287 1.016.287.939 0 1.59-.69 1.59-1.658 0-1.093-.871-1.505-1.504-1.505-.105 0-.182 0-.269.01l.173-1.256h1.562v-.498zM93.239-8.374c0 1.208.71 1.917 1.917 1.917h4.793c1.207 0 1.917-.71 1.917-1.917v-4.793c0-1.208-.71-1.917-1.917-1.917h-4.793c-1.208 0-1.917.71-1.917 1.917v4.793zm2.741-2.377c0-1.936.403-2.617 1.227-2.617.872 0 1.17.815 1.17 2.578 0 2.291-.556 2.617-1.218 2.617-.834 0-1.179-.738-1.179-2.578zm2.809 0c0-1.936.402-2.617 1.236-2.617.872 0 1.16.815 1.16 2.578 0 2.291-.537 2.617-1.208 2.617-.834 0-1.188-.738-1.188-2.578zm-4.14-2.55h.756v5.061h-.863v-4.179h-.019l-.508.297-.201-.69.834-.489zm2.54.748c-.24 0-.317.287-.317 1.782 0 1.601.076 1.783.326 1.783.22 0 .297-.297.297-1.783 0-1.428-.067-1.782-.307-1.782zm2.817 3.565c.22 0 .297-.297.297-1.783 0-1.428-.057-1.782-.306-1.782-.24 0-.317.287-.317 1.782 0 1.601.077 1.783.326 1.783z"/></svg>