<svg xmlns="http://www.w3.org/2000/svg" xmlns:xlink="http://www.w3.org/1999/xlink" width="161.248" height="93.85pt" viewBox="0 0 120.936 93.85"><path stroke-width=".399" stroke-miterlimit="10" fill="none" stroke="#000" d="M9.332 11.594V34.27c0 22.677 28.347 22.677 28.347 45.355M9.332 28.602"/><path d="M14.718 48.947l-1.337-3.574-.24 1.77-1.786.002z"/><path stroke-width=".399" stroke-miterlimit="10" fill="none" stroke="#000" d="M14.718 48.947l-1.337-3.574-.24 1.77-1.786.002z"/><symbol id="a"><path d="M.305.313c.006.026.029.118.099.118.005 0 .029 0 .05-.013A.058.058 0 01.406.364c0-.016.011-.035.038-.035.022 0 .054.018.054.058 0 .052-.059.066-.093.066C.347.453.312.4.3.377a.11.11 0 01-.108.076C.088.453.031.324.031.299c0-.01.01-.01.012-.01.008 0 .011.002.013.011.034.106.1.131.134.131.019 0 .054-.009.054-.067C.244.333.227.266.19.126.174.064.139.022.095.022c-.006 0-.029 0-.05.013C.07.04.092.061.092.089.092.116.07.124.055.124A.057.057 0 010 .066C0 .02.05 0 .094 0 .16 0 .196.07.199.076A.11.11 0 01.307 0c.103 0 .16.129.16.154 0 .01-.009.01-.012.01C.446.164.444.16.442.153.409.046.341.022.309.022.27.022.254.054.254.088c0 .022.006.044.017.088l.034.137z"/></symbol><use xlink:href="#a" transform="matrix(9.9626 0 0 -9.9626 6.774 7.72)"/><use xlink:href="#a" transform="matrix(9.9626 0 0 -9.9626 33.723 88.702)"/><symbol id="b"><path d="M.242.431a.07.07 0 01.009.032c0 .031-.028.055-.059.055C.154.518.142.487.137.471L.005.038A.142.142 0 010 .022C0 .01.031 0 .039 0c.007 0 .008.002.015.017l.188.414z"/></symbol><use xlink:href="#b" transform="matrix(6.9738 0 0 -6.9738 39.462 84.691)"/><path d="M3.678 33.278h11.308v-12.84H3.678z" fill="#fff"/><path stroke-width=".399" stroke-miterlimit="10" fill="none" stroke="#000" d="M3.678 33.278h11.308v-12.84H3.678z"/><symbol id="c"><path d="M.334.599h.098c.02 0 .033 0 .033.022 0 .014-.013.014-.031.014H.341C.364.762.372.808.38.837.385.859.407.88.431.88.432.88.459.88.478.868A.06.06 0 01.434.813c0-.022.017-.037.04-.037a.06.06 0 01.057.061c0 .046-.049.071-.1.071a.139.139 0 01-.12-.075C.291.796.283.751.262.635H.183C.163.635.15.635.15.613.15.599.163.599.181.599h.074A18.16 18.16 0 00.167.126C.162.104.145.028.097.028c-.001 0-.025 0-.044.012a.06.06 0 01.044.055c0 .022-.017.037-.04.037A.06.06 0 010 .071C0 .026.047 0 .097 0c.064 0 .108.066.12.088A.85.85 0 01.278.29l.056.309z"/></symbol><use xlink:href="#c" transform="matrix(6.9738 0 0 -6.9738 7.507 30.025)"/><path d="M25.498 56.948a1.993 1.993 0 10-3.985 0 1.993 1.993 0 003.985 0zm-1.993 0" fill="#fff"/><path stroke-width=".399" stroke-miterlimit="10" fill="none" stroke="#fff" d="M25.498 56.948a1.993 1.993 0 10-3.985 0 1.993 1.993 0 003.985 0zm-1.993 0"/><path stroke-width=".399" stroke-miterlimit="10" fill="none" stroke="#000" d="M37.679 11.594V34.27c0 22.677-28.347 22.677-28.347 45.355m28.347-51.024"/><path d="M32.292 48.947l3.364-1.802-1.786-.002-.24-1.77z"/><path stroke-width=".399" stroke-miterlimit="10" fill="none" stroke="#000" d="M32.292 48.947l3.364-1.802-1.786-.002-.24-1.77z"/><symbol id="d"><path d="M.457.586a.063.063 0 01.004.023c0 .018-.014.027-.029.027A.043.043 0 01.397.615 1.87 1.87 0 01.363.481L.318.301C.314.286.271.216.205.216.154.216.143.26.143.297c0 .046.017.108.051.196.016.041.02.052.02.072a.08.08 0 01-.082.082C.037.647 0 .502 0 .493c0-.01.01-.01.012-.01.01 0 .011.002.016.018.027.094.067.124.101.124.008 0 .025 0 .025-.032 0-.025-.01-.051-.017-.07a.66.66 0 01-.058-.21c0-.089.063-.119.122-.119.039 0 .073.017.101.045C.289.187.277.138.237.085.211.051.173.022.127.022.113.022.068.025.051.064c.016 0 .029 0 .043.012.01.009.02.022.02.041 0 .031-.027.035-.037.035C.054.152.021.136.021.087.021.037.065 0 .127 0 .23 0 .333.091.361.204l.096.382z"/></symbol><use xlink:href="#d" transform="matrix(9.9626 0 0 -9.9626 35.346 9.652)"/><use xlink:href="#d" transform="matrix(9.9626 0 0 -9.9626 5.602 90.634)"/><use xlink:href="#b" transform="matrix(6.9738 0 0 -6.9738 10.89 84.691)"/><path d="M32.29 33.278h10.778v-11H32.29z" fill="#fff"/><path stroke-width=".399" stroke-miterlimit="10" fill="none" stroke="#000" d="M32.29 33.278h10.778v-11H32.29z"/><symbol id="e"><path d="M.489.573c.004.015.004.02.004.021 0 .022-.018.032-.034.032A.05.05 0 01.413.588.12.12 0 01.31.645C.185.645.054.511.054.368c0-.103.07-.164.152-.164.046 0 .09.023.125.054L.309.168C.298.126.291.099.253.065.209.028.166.028.141.028.095.028.082.031.064.035a.056.056 0 01.032.05c0 .024-.019.037-.039.037A.059.059 0 010 .061C0 .001.086 0 .142 0 .299 0 .366.08.38.137l.109.436M.351.337C.347.322.347.32.33.3.295.258.247.232.209.232.158.232.134.275.134.327c0 .044.027.156.053.2.042.07.089.09.123.09.07 0 .089-.075.089-.085L.396.517.351.337z"/></symbol><use xlink:href="#e" transform="matrix(6.9738 0 0 -6.9738 35.91 30.025)"/><symbol id="f"><path d="M.631.194c.015 0 .034 0 .034.02s-.019.02-.033.02H.033C.019.234 0 .234 0 .214s.019-.02.034-.02h.597M.632 0c.014 0 .033 0 .033.02S.646.04.631.04H.034C.019.04 0 .04 0 .02S.019 0 .033 0h.599z"/></symbol><use xlink:href="#f" transform="matrix(9.9626 0 0 -9.9626 57.039 46.113)"/><path stroke-width=".399" stroke-miterlimit="10" fill="none" stroke="#000" d="M83.034 11.594c0 22.677 28.347 22.677 28.347 45.354v22.678m0-17.008"/><path d="M87.878 25.606l-1.234-3.611-.291 1.762-1.785-.05z"/><path stroke-width=".399" stroke-miterlimit="10" fill="none" stroke="#000" d="M87.878 25.606l-1.234-3.611-.291 1.762-1.785-.05z"/><use xlink:href="#a" transform="matrix(9.9626 0 0 -9.9626 80.475 7.72)"/><use xlink:href="#a" transform="matrix(9.9626 0 0 -9.9626 107.423 88.702)"/><use xlink:href="#b" transform="matrix(6.9738 0 0 -6.9738 113.163 84.691)"/><path d="M105.727 67.294h11.308v-12.84h-11.308z" fill="#fff"/><path stroke-width=".399" stroke-miterlimit="10" fill="none" stroke="#000" d="M105.727 67.294h11.308v-12.84h-11.308z"/><use xlink:href="#c" transform="matrix(6.9738 0 0 -6.9738 109.555 64.04)"/><path d="M99.2 34.27a1.993 1.993 0 10-3.985 0 1.993 1.993 0 003.985 0zm-1.993 0" fill="#fff"/><path stroke-width=".399" stroke-miterlimit="10" fill="none" stroke="#fff" d="M99.2 34.27a1.993 1.993 0 10-3.985 0 1.993 1.993 0 003.985 0zm-1.993 0"/><path stroke-width=".399" stroke-miterlimit="10" fill="none" stroke="#000" d="M111.38 11.594c0 22.677-28.346 22.677-28.346 45.354v22.678m0-17.008"/><path d="M106.537 25.606l3.31-1.899-1.785.05-.291-1.762z"/><path stroke-width=".399" stroke-miterlimit="10" fill="none" stroke="#000" d="M106.537 25.606l3.31-1.899-1.785.05-.291-1.762z"/><use xlink:href="#d" transform="matrix(9.9626 0 0 -9.9626 109.047 9.652)"/><use xlink:href="#d" transform="matrix(9.9626 0 0 -9.9626 79.303 90.634)"/><use xlink:href="#b" transform="matrix(6.9738 0 0 -6.9738 84.59 84.691)"/><path d="M77.645 67.294h10.778v-11H77.645z" fill="#fff"/><path stroke-width=".399" stroke-miterlimit="10" fill="none" stroke="#000" d="M77.645 67.294h10.778v-11H77.645z"/><use xlink:href="#e" transform="matrix(6.9738 0 0 -6.9738 81.264 64.04)"/></svg>