<svg xmlns="http://www.w3.org/2000/svg" xmlns:xlink="http://www.w3.org/1999/xlink" width="310.948" height="111.748" viewBox="0 0 233.211 83.811"><path stroke-width=".399" stroke-miterlimit="10" fill="none" stroke="#000" d="M6.167 11.595c0 17.008 22.678 17.008 22.678 34.016m-22.678 0c0 17.008 22.678 17.008 22.678 34.016"/><path d="M8.966 20.712l-1.053-3.668-.378 1.746-1.78-.139z"/><path stroke-width=".399" stroke-miterlimit="10" fill="none" stroke="#000" d="M8.966 20.712l-1.053-3.668-.378 1.746-1.78-.139z"/><path d="M8.966 54.729L7.913 51.06l-.378 1.746-1.78-.139z"/><path stroke-width=".399" stroke-miterlimit="10" fill="none" stroke="#000" d="M8.966 54.729L7.913 51.06l-.378 1.746-1.78-.139z"/><path d="M8.966 20.712l-1.053-3.668-.378 1.746-1.78-.139z"/><path stroke-width=".399" stroke-miterlimit="10" fill="none" stroke="#000" d="M8.966 20.712l-1.053-3.668-.378 1.746-1.78-.139z"/><path d="M8.966 54.729L7.913 51.06l-.378 1.746-1.78-.139z"/><path stroke-width=".399" stroke-miterlimit="10" fill="none" stroke="#000" d="M8.966 54.729L7.913 51.06l-.378 1.746-1.78-.139z"/><symbol id="a"><path d="M.305.313c.006.026.029.118.099.118.005 0 .029 0 .05-.013A.058.058 0 01.406.364c0-.016.011-.035.038-.035.022 0 .054.018.054.058 0 .052-.059.066-.093.066C.347.453.312.4.3.377a.11.11 0 01-.108.076C.088.453.031.324.031.299c0-.01.01-.01.012-.01.008 0 .011.002.013.011.034.106.1.131.134.131.019 0 .054-.009.054-.067C.244.333.227.266.19.126.174.064.139.022.095.022c-.006 0-.029 0-.05.013C.07.04.092.061.092.089.092.116.07.124.055.124A.057.057 0 010 .066C0 .02.05 0 .094 0 .16 0 .196.07.199.076A.11.11 0 01.307 0c.103 0 .16.129.16.154 0 .01-.009.01-.012.01C.446.164.444.16.442.153.409.046.341.022.309.022.27.022.254.054.254.088c0 .022.006.044.017.088l.034.137z"/></symbol><use xlink:href="#a" transform="matrix(9.9626 0 0 -9.9626 3.609 7.72)"/><path d="M19.498 28.603a1.993 1.993 0 10-3.985 0 1.993 1.993 0 003.985 0zm0 34.016a1.993 1.993 0 10-3.985 0 1.993 1.993 0 003.985 0zm-1.992 0" fill="#fff"/><path stroke-width=".399" stroke-miterlimit="10" fill="none" stroke="#fff" d="M19.498 28.603a1.993 1.993 0 10-3.985 0 1.993 1.993 0 003.985 0zm0 34.016a1.993 1.993 0 10-3.985 0 1.993 1.993 0 003.985 0zm-1.992 0"/><path stroke-width=".399" stroke-miterlimit="10" fill="none" stroke="#000" d="M28.845 11.595c0 17.008-22.678 17.008-22.678 34.016m22.678 0c0 17.008-22.678 17.008-22.678 34.016"/><path d="M26.046 20.712l3.211-2.061-1.78.139-.379-1.746z"/><path stroke-width=".399" stroke-miterlimit="10" fill="none" stroke="#000" d="M26.046 20.712l3.211-2.061-1.78.139-.379-1.746z"/><path d="M26.046 54.729l3.211-2.062-1.78.139-.379-1.746z"/><path stroke-width=".399" stroke-miterlimit="10" fill="none" stroke="#000" d="M26.046 54.729l3.211-2.062-1.78.139-.379-1.746z"/><path d="M26.046 20.712l3.211-2.061-1.78.139-.379-1.746z"/><path stroke-width=".399" stroke-miterlimit="10" fill="none" stroke="#000" d="M26.046 20.712l3.211-2.061-1.78.139-.379-1.746z"/><path d="M26.046 54.729l3.211-2.062-1.78.139-.379-1.746z"/><path stroke-width=".399" stroke-miterlimit="10" fill="none" stroke="#000" d="M26.046 54.729l3.211-2.062-1.78.139-.379-1.746z"/><symbol id="b"><path d="M.457.586a.063.063 0 01.004.023c0 .018-.014.027-.029.027A.043.043 0 01.397.615 1.87 1.87 0 01.363.481L.318.301C.314.286.271.216.205.216.154.216.143.26.143.297c0 .046.017.108.051.196.016.041.02.052.02.072a.08.08 0 01-.082.082C.037.647 0 .502 0 .493c0-.01.01-.01.012-.01.01 0 .011.002.016.018.027.094.067.124.101.124.008 0 .025 0 .025-.032 0-.025-.01-.051-.017-.07a.66.66 0 01-.058-.21c0-.089.063-.119.122-.119.039 0 .073.017.101.045C.289.187.277.138.237.085.211.051.173.022.127.022.113.022.068.025.051.064c.016 0 .029 0 .043.012.01.009.02.022.02.041 0 .031-.027.035-.037.035C.054.152.021.136.021.087.021.037.065 0 .127 0 .23 0 .333.091.361.204l.096.382z"/></symbol><use xlink:href="#b" transform="matrix(9.9626 0 0 -9.9626 26.513 9.652)"/><symbol id="c"><path d="M.631.194c.015 0 .034 0 .034.02s-.019.02-.033.02H.033C.019.234 0 .234 0 .214s.019-.02.034-.02h.597M.632 0c.014 0 .033 0 .033.02S.646.04.631.04H.034C.019.04 0 .04 0 .02S.019 0 .033 0h.599z"/></symbol><use xlink:href="#c" transform="matrix(9.9626 0 0 -9.9626 42.536 44.696)"/><path stroke-width=".399" stroke-miterlimit="10" fill="none" stroke="#000" d="M62.86 11.595v68.032"/><path d="M62.86 45.043l1.346-3.57-1.345 1.174-1.346-1.175z"/><path stroke-width=".399" stroke-miterlimit="10" fill="none" stroke="#000" d="M62.86 45.043l1.346-3.57-1.345 1.174-1.346-1.175z"/><use xlink:href="#a" transform="matrix(9.9626 0 0 -9.9626 60.302 7.72)"/><path stroke-width=".399" stroke-miterlimit="10" fill="none" stroke="#000" d="M85.538 11.595v68.032"/><path d="M85.538 45.043l1.346-3.57-1.346 1.174-1.346-1.175z"/><path stroke-width=".399" stroke-miterlimit="10" fill="none" stroke="#000" d="M85.538 45.043l1.346-3.57-1.346 1.174-1.346-1.175z"/><use xlink:href="#b" transform="matrix(9.9626 0 0 -9.9626 83.206 9.652)"/><symbol id="d"><path d="M.399.289C.399.384.34.453.253.453.129.453 0 .311 0 .165 0 .062.063 0 .146 0 .27 0 .399.142.399.289M.146.022C.107.022.07.053.07.125c0 .05.026.161.058.215.037.061.085.091.124.091.049 0 .077-.044.077-.103A.568.568 0 00.275.122C.246.067.195.022.146.022z"/></symbol><symbol id="e"><path d="M.175.299c.001.003.046.132.132.132.005 0 .033 0 .053-.014A.053.053 0 01.322.369c0-.013.009-.032.035-.032A.05.05 0 01.406.39c0 .052-.065.063-.098.063C.239.453.203.403.187.381.176.434.137.453.104.453.068.453.048.43.032.4A.516.516 0 010 .299c0-.01.01-.01.015-.01.013 0 .014.001.019.023.018.07.037.119.068.119.026 0 .026-.029.026-.04A.224.224 0 00.121.34L.046.04A.05.05 0 01.043.026C.043.015.051 0 .071 0c.03 0 .037.029.039.037l.065.262z"/></symbol><use xlink:href="#d" transform="matrix(9.9626 0 0 -9.9626 112.632 46.448)"/><use xlink:href="#e" transform="matrix(9.9626 0 0 -9.9626 117.454 46.448)"/><path stroke-width=".399" stroke-miterlimit="10" fill="none" stroke="#000" d="M147.901 22.933c0 22.678 22.678 22.678 22.678 45.355"/><path d="M150.674 35.034l-.537-3.778-.615 1.677-1.745-.383z"/><path stroke-width=".399" stroke-miterlimit="10" fill="none" stroke="#000" d="M150.674 35.034l-.537-3.778-.615 1.677-1.745-.383z"/><use xlink:href="#a" transform="matrix(9.9626 0 0 -9.9626 145.342 19.059)"/><path d="M161.232 45.61a1.993 1.993 0 10-3.985 0 1.993 1.993 0 003.985 0zm-1.992 0" fill="#fff"/><path stroke-width=".399" stroke-miterlimit="10" fill="none" stroke="#fff" d="M161.232 45.61a1.993 1.993 0 10-3.985 0 1.993 1.993 0 003.985 0zm-1.992 0"/><path stroke-width=".399" stroke-miterlimit="10" fill="none" stroke="#000" d="M170.579 22.933c0 22.678-22.678 22.678-22.678 45.355"/><path d="M167.805 35.034l2.897-2.484-1.744.383-.616-1.677z"/><path stroke-width=".399" stroke-miterlimit="10" fill="none" stroke="#000" d="M167.805 35.034l2.897-2.484-1.744.383-.616-1.677z"/><use xlink:href="#b" transform="matrix(9.9626 0 0 -9.9626 168.245 20.991)"/><use xlink:href="#c" transform="matrix(9.9626 0 0 -9.9626 184.268 44.696)"/><path stroke-width=".399" stroke-miterlimit="10" fill="none" stroke="#000" d="M227.272 22.933c0 22.678-22.677 22.678-22.677 45.355"/><path d="M224.499 35.034l2.897-2.484-1.745.383-.615-1.677z"/><path stroke-width=".399" stroke-miterlimit="10" fill="none" stroke="#000" d="M224.499 35.034l2.897-2.484-1.745.383-.615-1.677z"/><use xlink:href="#b" transform="matrix(9.9626 0 0 -9.9626 224.938 20.991)"/><path d="M217.926 45.61a1.993 1.993 0 10-3.985 0 1.993 1.993 0 003.985 0zm-1.993 0" fill="#fff"/><path stroke-width=".399" stroke-miterlimit="10" fill="none" stroke="#fff" d="M217.926 45.61a1.993 1.993 0 10-3.985 0 1.993 1.993 0 003.985 0zm-1.993 0"/><path stroke-width=".399" stroke-miterlimit="10" fill="none" stroke="#000" d="M204.595 22.933c0 22.678 22.677 22.678 22.677 45.355"/><path d="M207.368 35.034l-.537-3.778-.616 1.677-1.744-.383z"/><path stroke-width=".399" stroke-miterlimit="10" fill="none" stroke="#000" d="M207.368 35.034l-.537-3.778-.616 1.677-1.744-.383z"/><use xlink:href="#a" transform="matrix(9.9626 0 0 -9.9626 202.035 19.059)"/></svg>