<svg xmlns="http://www.w3.org/2000/svg" width="258.936" height="68.076" viewBox="0 -51.057 194.202 51.057"><path d="M7.586-36.72c0-.029 0-.05-.17-.218-1.244-1.255-1.563-3.138-1.563-4.662 0-1.733.378-3.467 1.604-4.712.13-.12.13-.14.13-.17 0-.069-.04-.099-.1-.099-.1 0-.996.678-1.584 1.943-.508 1.095-.628 2.2-.628 3.038 0 .777.11 1.982.658 3.108.597 1.225 1.454 1.872 1.554 1.872.06 0 .1-.03.1-.1zm3.905-5.398c.06-.26.289-1.176.986-1.176.05 0 .29 0 .498.13-.278.05-.478.299-.478.538 0 .16.11.348.379.348a.555.555 0 00.538-.577c0-.518-.588-.658-.927-.658-.578 0-.926.528-1.046.757-.249-.657-.787-.757-1.075-.757-1.037 0-1.604 1.285-1.604 1.534 0 .1.1.1.12.1.079 0 .109-.02.129-.11.338-1.056.996-1.305 1.335-1.305.189 0 .537.09.537.668 0 .309-.169.976-.537 2.37-.16.618-.509 1.036-.947 1.036-.06 0-.289 0-.498-.129.25-.05.468-.26.468-.538 0-.269-.219-.349-.368-.349-.3 0-.548.26-.548.578 0 .458.498.658.936.658.658 0 1.016-.698 1.046-.757a1.1 1.1 0 001.076.757c1.026 0 1.594-1.285 1.594-1.534 0-.1-.09-.1-.12-.1-.09 0-.11.04-.13.11-.328 1.065-1.005 1.304-1.324 1.304-.389 0-.548-.318-.548-.657 0-.22.06-.438.17-.877l.338-1.364zm11.773.518a3.322 3.322 0 00-6.644 0 3.323 3.323 0 006.644 0zm-5.3-2.142c-.02-.02-.089-.09-.089-.11 0-.04.807-.816 2.062-.816.349 0 1.265.05 2.082.816l-2.072 2.082-1.983-1.972zm-.288 4.224a3.093 3.093 0 01-.807-2.082c0-.767.289-1.494.807-2.082l2.082 2.082-2.082 2.082zm4.522-4.164a3.09 3.09 0 01.817 2.082c0 .767-.289 1.494-.807 2.082L20.126-41.6l2.072-2.082zm-.279 4.223c.02.02.09.09.09.11 0 .04-.807.817-2.062.817-.349 0-1.265-.05-2.082-.817l2.072-2.082 1.982 1.972zm7.641-5.857c0-.219 0-.319-.259-.319-.11 0-.13 0-.219.07-.767.568-1.793.568-2.002.568h-.2v.468h.2c.16 0 .707-.01 1.295-.2v5.15H26.99v.469c.439-.03 1.494-.03 1.982-.03.489 0 1.545 0 1.983.03v-.468H29.56v-5.738zm5.082 3.716c0-.777-.11-1.982-.658-3.108-.597-1.225-1.454-1.873-1.554-1.873-.06 0-.1.04-.1.1 0 .03 0 .05.19.229.976.986 1.544 2.57 1.544 4.652 0 1.703-.369 3.456-1.604 4.711-.13.12-.13.14-.13.17 0 .06.04.1.1.1.1 0 .996-.678 1.584-1.943.508-1.096.628-2.201.628-3.038zm10.401 0a3.322 3.322 0 00-6.644 0 3.323 3.323 0 006.644 0zm-5.3-2.142c-.02-.02-.089-.09-.089-.11 0-.04.807-.816 2.062-.816.349 0 1.265.05 2.082.816l-2.072 2.082-1.982-1.972zm-.288 4.224a3.093 3.093 0 01-.807-2.082c0-.767.289-1.494.807-2.082l2.082 2.082-2.082 2.082zm4.522-4.164a3.09 3.09 0 01.817 2.082c0 .767-.289 1.494-.807 2.082L41.905-41.6l2.072-2.082zm-.279 4.223c.02.02.09.09.09.11 0 .04-.807.817-2.062.817-.349 0-1.265-.05-2.082-.817l2.072-2.082 1.982 1.972zm8.957-3.446c.04-.14.04-.16.04-.23 0-.179-.14-.268-.289-.268-.1 0-.259.06-.349.209-.02.05-.1.358-.139.538-.07.259-.14.528-.2.797l-.447 1.793c-.04.15-.469.846-1.126.846-.508 0-.618-.438-.618-.807 0-.458.17-1.075.508-1.952.16-.408.2-.518.2-.717 0-.448-.32-.817-.817-.817-.947 0-1.315 1.445-1.315 1.534 0 .1.1.1.12.1.1 0 .11-.02.159-.18.269-.936.667-1.235 1.006-1.235.08 0 .249 0 .249.319 0 .25-.1.508-.17.697-.398 1.056-.577 1.624-.577 2.092 0 .887.627 1.186 1.215 1.186.389 0 .727-.17 1.006-.449-.13.518-.249 1.007-.647 1.534-.26.34-.638.628-1.096.628-.14 0-.588-.03-.757-.418.16 0 .289 0 .428-.12.1-.09.2-.219.2-.408 0-.31-.27-.35-.37-.35-.228 0-.557.16-.557.648 0 .498.438.867 1.056.867 1.026 0 2.052-.906 2.331-2.032l.956-3.805zm91.818.787c.06-.26.289-1.176.986-1.176.05 0 .29 0 .498.13-.279.05-.478.299-.478.538 0 .16.11.348.379.348a.555.555 0 00.538-.577c0-.518-.588-.658-.927-.658-.578 0-.926.528-1.046.757-.249-.657-.787-.757-1.075-.757-1.037 0-1.604 1.285-1.604 1.534 0 .1.1.1.12.1.079 0 .109-.02.129-.11.338-1.056.996-1.305 1.335-1.305.189 0 .537.09.537.668 0 .309-.169.976-.537 2.37-.16.618-.509 1.036-.947 1.036-.06 0-.289 0-.498-.129.25-.05.468-.26.468-.538 0-.269-.219-.349-.368-.349-.3 0-.548.26-.548.578 0 .458.498.658.936.658.658 0 1.016-.698 1.046-.757a1.1 1.1 0 001.076.757c1.026 0 1.594-1.285 1.594-1.534 0-.1-.09-.1-.12-.1-.09 0-.11.04-.13.11-.328 1.065-1.005 1.304-1.324 1.304-.389 0-.548-.318-.548-.657 0-.22.06-.438.17-.877l.338-1.364zm11.773.518a3.322 3.322 0 00-6.644 0 3.323 3.323 0 006.644 0zm-5.3-2.142c-.02-.02-.089-.09-.089-.11 0-.04.807-.816 2.062-.816.349 0 1.265.05 2.082.816l-2.072 2.082-1.982-1.972zm-.288 4.224a3.093 3.093 0 01-.807-2.082c0-.767.289-1.494.807-2.082l2.082 2.082-2.082 2.082zm4.522-4.164a3.09 3.09 0 01.817 2.082c0 .767-.289 1.494-.807 2.082l-2.082-2.082 2.072-2.082zm-.279 4.223c.02.02.09.09.09.11 0 .04-.807.817-2.062.817-.349 0-1.265-.05-2.082-.817l2.072-2.082 1.982 1.972zm7.413 2.739c0-.029 0-.05-.17-.218-1.244-1.255-1.563-3.138-1.563-4.662 0-1.733.378-3.467 1.604-4.712.13-.12.13-.14.13-.17 0-.069-.04-.099-.1-.099-.1 0-.996.678-1.584 1.943-.508 1.095-.628 2.2-.628 3.038 0 .777.11 1.982.658 3.108.597 1.225 1.454 1.872 1.553 1.872.06 0 .1-.03.1-.1zm4.103-8.596c0-.219 0-.319-.259-.319-.11 0-.13 0-.219.07-.767.568-1.793.568-2.002.568h-.2v.468h.2c.16 0 .707-.01 1.295-.2v5.15h-1.385v.469c.439-.03 1.494-.03 1.982-.03.489 0 1.544 0 1.983.03v-.468h-1.395v-5.738zm11.608 3.716a3.322 3.322 0 00-6.644 0 3.323 3.323 0 006.644 0zm-5.3-2.142c-.02-.02-.089-.09-.089-.11 0-.04.807-.816 2.062-.816.349 0 1.265.05 2.082.816l-2.072 2.082-1.983-1.972zm-.288 4.224a3.093 3.093 0 01-.807-2.082c0-.767.289-1.494.807-2.082l2.082 2.082-2.082 2.082zm4.522-4.164a3.09 3.09 0 01.817 2.082c0 .767-.289 1.494-.807 2.082l-2.082-2.082 2.072-2.082zm-.279 4.223c.02.02.09.09.09.11 0 .04-.807.817-2.062.817-.349 0-1.265-.05-2.082-.817l2.072-2.082 1.982 1.972zm8.957-3.446c.04-.14.04-.16.04-.23 0-.179-.14-.268-.289-.268-.1 0-.259.06-.349.209-.02.05-.1.358-.139.538-.07.259-.14.528-.2.797l-.447 1.793c-.04.15-.469.846-1.126.846-.508 0-.618-.438-.618-.807 0-.458.17-1.075.508-1.952.16-.408.2-.518.2-.717 0-.448-.32-.817-.817-.817-.946 0-1.315 1.445-1.315 1.534 0 .1.1.1.12.1.1 0 .11-.02.159-.18.269-.936.667-1.235 1.006-1.235.08 0 .249 0 .249.319 0 .25-.1.508-.17.697-.398 1.056-.577 1.624-.577 2.092 0 .887.627 1.186 1.215 1.186.389 0 .727-.17 1.006-.449-.13.518-.249 1.007-.647 1.534-.26.34-.638.628-1.096.628-.14 0-.588-.03-.757-.418.16 0 .289 0 .428-.12.1-.09.2-.219.2-.408 0-.31-.27-.35-.369-.35-.23 0-.558.16-.558.648 0 .498.438.867 1.056.867 1.026 0 2.052-.906 2.331-2.032l.956-3.805zm3.28 1.305c0-.777-.11-1.982-.658-3.108-.597-1.225-1.454-1.873-1.553-1.873-.06 0-.1.04-.1.1 0 .03 0 .05.19.229.975.986 1.543 2.57 1.543 4.652 0 1.703-.368 3.456-1.604 4.711-.13.12-.13.14-.13.17 0 .06.04.1.1.1.1 0 .996-.678 1.584-1.943.508-1.096.628-2.201.628-3.038zM88.872-8.591c.06-.26.289-1.176.986-1.176.05 0 .29 0 .498.13-.278.05-.478.299-.478.538 0 .16.11.348.379.348a.555.555 0 00.538-.577c0-.518-.588-.658-.927-.658-.578 0-.926.528-1.046.757-.249-.657-.787-.757-1.075-.757-1.037 0-1.604 1.285-1.604 1.534 0 .1.1.1.12.1.079 0 .109-.02.129-.11.338-1.056.996-1.305 1.335-1.305.189 0 .537.09.537.668 0 .309-.169.976-.537 2.37-.16.618-.509 1.036-.947 1.036-.06 0-.289 0-.498-.129.25-.05.468-.26.468-.538 0-.269-.219-.349-.368-.349-.3 0-.548.26-.548.578 0 .458.498.658.936.658.658 0 1.016-.698 1.046-.757a1.1 1.1 0 001.076.757c1.026 0 1.594-1.285 1.594-1.534 0-.1-.09-.1-.12-.1-.09 0-.11.04-.13.11-.328 1.065-1.005 1.304-1.324 1.304-.389 0-.548-.318-.548-.657 0-.22.06-.438.17-.877l.338-1.364zm11.772.518a3.322 3.322 0 00-6.644 0 3.323 3.323 0 006.644 0zm-5.3-2.142c-.02-.02-.089-.09-.089-.11 0-.04.807-.816 2.062-.816.349 0 1.265.05 2.082.816l-2.072 2.082-1.982-1.972zm-.288 4.224a3.093 3.093 0 01-.807-2.082c0-.767.289-1.494.807-2.082l2.082 2.082-2.082 2.082zm4.522-4.164a3.09 3.09 0 01.817 2.082c0 .767-.289 1.494-.807 2.082l-2.082-2.082 2.072-2.082zM99.3-5.932c.02.02.09.09.09.11 0 .04-.807.817-2.062.817-.349 0-1.265-.05-2.082-.817l2.072-2.082L99.3-5.932zm8.956-3.446c.04-.14.04-.16.04-.23 0-.179-.14-.268-.289-.268-.1 0-.259.06-.349.209a7.4 7.4 0 00-.139.538c-.07.259-.14.528-.2.797l-.447 1.793c-.04.15-.469.846-1.126.846-.508 0-.618-.438-.618-.807 0-.458.17-1.075.508-1.952.16-.408.2-.518.2-.717 0-.448-.32-.817-.817-.817-.947 0-1.315 1.445-1.315 1.534 0 .1.1.1.12.1.1 0 .11-.02.159-.18.269-.936.667-1.235 1.006-1.235.08 0 .249 0 .249.319 0 .25-.1.508-.17.697-.398 1.056-.577 1.624-.577 2.092 0 .887.627 1.186 1.215 1.186.389 0 .727-.17 1.006-.449-.13.518-.249 1.007-.647 1.534-.26.34-.638.628-1.096.628-.14 0-.588-.03-.757-.418.16 0 .289 0 .428-.12.1-.09.2-.219.2-.408 0-.31-.27-.35-.37-.35-.228 0-.557.16-.557.648 0 .498.438.867 1.056.867 1.026 0 2.052-.906 2.331-2.032l.956-3.805z"/><path d="M57.543-41.602h78.715" stroke="#000" fill="none" stroke-width=".398" stroke-miterlimit="10"/><path d="M134.387-43.992c.379 1.433 1.222 2.113 2.07 2.39-.848.282-1.691.957-2.07 2.391" stroke="#000" fill="none" stroke-width=".398" stroke-miterlimit="10" stroke-linecap="round" stroke-linejoin="round"/><path d="M90.025-46.893c.642-.663.9-1.59.9-1.668 0-.09-.084-.09-.118-.09-.098 0-.098.02-.147.174a3.64 3.64 0 01-.649 1.263c-.007-.105-.02-.572-.034-.635-.105-.69-.628-1.137-1.326-1.137-1.025 0-2.008.956-2.008 1.932 0 .642.467 1.214 1.276 1.214.642 0 1.22-.293 1.611-.593.16.509.516.593.726.593.404 0 .655-.342.655-.488 0-.084-.083-.084-.118-.084-.091 0-.105.028-.119.07a.433.433 0 01-.397.306c-.098 0-.217 0-.252-.857zm-.544.237c-.683.558-1.276.62-1.541.62-.46 0-.719-.307-.719-.774 0-.202.098-.962.46-1.444.322-.418.719-.537.963-.537.558 0 .719.537.774.97.042.3.028.795.063 1.165zm5.002-.211c-.23.07-.23.289-.23.294 0 .085.06.204.225.204.14 0 .309-.12.309-.338 0-.294-.329-.41-.593-.41-.324 0-.533.21-.633.34-.164-.284-.483-.34-.662-.34-.623 0-.977.589-.977.773 0 .07.08.07.105.07.045 0 .085-.005.104-.06.15-.488.558-.613.748-.613.164 0 .353.07.353.334 0 .125-.09.468-.259 1.131-.074.284-.304.453-.518.453-.035 0-.18 0-.299-.08.225-.08.225-.268.225-.288 0-.145-.11-.21-.22-.21a.32.32 0 00-.309.34c0 .303.34.408.593.408.274 0 .498-.16.618-.34.2.3.518.34.673.34.627 0 .981-.593.981-.773 0-.07-.085-.07-.105-.07-.084 0-.094.03-.11.075a.825.825 0 01-.746.598c-.15 0-.354-.054-.354-.333 0-.06 0-.095.04-.265.084-.348.219-.901.259-.99.065-.13.229-.33.483-.33.015 0 .184 0 .3.08zm2.195 1.883c0 .478-.26.752-.394.862-.05.04-.06.05-.06.085 0 .03.045.09.09.09.065 0 .533-.39.533-1.012 0-.339-.15-.563-.373-.563-.19 0-.304.15-.304.304 0 .16.114.304.304.304a.3.3 0 00.204-.07zm3.225-3.034c0-.154-.03-.19-.19-.19h-.104c-.424.32-1.066.32-1.18.32h-.135v.333h.134c.06 0 .444 0 .807-.124v2.431h-.901v.334c.244-.02.951-.02 1.235-.02.284 0 .991 0 1.235.02v-.334h-.901v-2.77zm2.835 3.034c0 .478-.259.752-.393.862-.05.04-.06.05-.06.085 0 .03.045.09.09.09.064 0 .533-.39.533-1.012 0-.339-.15-.563-.374-.563-.19 0-.304.15-.304.304 0 .16.115.304.304.304.075 0 .15-.02.204-.07zm4.236-1.788c.02-.075.02-.11.02-.115 0-.11-.09-.174-.184-.174-.2 0-.24.174-.274.309l-.105.413-.154.623c-.02.064-.045.17-.05.2-.005.02-.274.487-.698.487-.229 0-.408-.11-.408-.428 0-.274.15-.638.294-.996.025-.06.06-.14.06-.225 0-.244-.235-.438-.543-.438-.524 0-.803.638-.803.772 0 .07.08.07.105.07.085 0 .09-.025.114-.1.105-.343.34-.573.564-.573.094 0 .149.055.149.19 0 .1-.03.169-.065.259-.244.592-.289.772-.289.971 0 .553.464.668.797.668.284 0 .493-.14.618-.244-.07.279-.125.498-.359.737-.114.114-.348.304-.657.304-.09 0-.274-.015-.389-.12a.312.312 0 00.25-.299c0-.144-.115-.204-.22-.204-.145 0-.314.12-.314.349 0 .25.254.443.673.443.568 0 1.24-.378 1.4-1.016l.468-1.863z"/><path d="M46.684-32.773L82.12-15.414" stroke="#000" fill="none" stroke-width=".398" stroke-miterlimit="10"/><path d="M81.488-18.387c-.289 1.457.172 2.434.813 3.059-.887-.121-1.942.113-2.914 1.234" stroke="#000" fill="none" stroke-width=".398" stroke-miterlimit="10" stroke-linecap="round" stroke-linejoin="round"/><path d="M36.84-15.697c-.028.104-.028.14-.028.146 0 .154.125.223.237.223.25 0 .307-.209.356-.432.097-.363.293-1.158.362-1.423a.873.873 0 00.768.433c.892 0 1.841-.949 1.841-1.967 0-.74-.495-1.179-1.109-1.179-.684 0-1.527.6-1.772 1.583l-.655 2.616zm1.688-1.249c-.517 0-.67-.516-.67-.607 0-.013.042-.167.063-.25.209-.858.25-1.019.453-1.326.251-.37.6-.572.879-.572.286 0 .558.203.558.705 0 .32-.181 1.095-.398 1.443-.32.496-.669.607-.885.607zm5.162-.831c-.23.07-.23.289-.23.294 0 .085.06.204.225.204.14 0 .309-.12.309-.338 0-.294-.329-.41-.593-.41-.324 0-.533.21-.633.34-.164-.284-.483-.34-.662-.34-.623 0-.977.589-.977.773 0 .07.08.07.105.07.045 0 .085-.005.104-.06.15-.488.558-.613.748-.613.164 0 .353.07.353.334 0 .125-.09.468-.259 1.131-.074.284-.304.453-.518.453-.035 0-.18 0-.299-.08.225-.08.225-.268.225-.288 0-.145-.11-.21-.22-.21a.32.32 0 00-.309.34c0 .303.34.408.593.408.274 0 .498-.16.618-.34.2.3.518.34.673.34.627 0 .981-.593.981-.773 0-.07-.085-.07-.105-.07-.084 0-.094.03-.11.075a.825.825 0 01-.746.598c-.15 0-.354-.054-.354-.333 0-.06 0-.095.04-.265.084-.348.219-.901.259-.99.065-.13.229-.33.483-.33.015 0 .184 0 .3.08zm7.033-.787a2.576 2.576 0 00-2.574-2.574 2.58 2.58 0 00-2.574 2.567 2.576 2.576 0 002.574 2.574 2.58 2.58 0 002.574-2.567zM46.586-20.3c.286-.258.824-.6 1.563-.6.74 0 1.276.342 1.562.6l-1.562 1.563-1.563-1.563zm-.167 3.293c-.383-.398-.607-.984-.607-1.556 0-.614.244-1.185.607-1.562l1.562 1.555-1.562 1.563zm3.46-3.118c.383.398.607.983.607 1.555a2.29 2.29 0 01-.607 1.563l-1.563-1.556 1.563-1.562zm-.168 3.292c-.286.258-.823.6-1.562.6-.74 0-1.277-.342-1.563-.6l1.563-1.562 1.562 1.562zm3.026-4.29a.403.403 0 00-.405-.398.397.397 0 00-.397.398.4.4 0 10.802 0zm-1.06 1.304v.25c.439 0 .502.043.502.385v1.813c0 .3-.07.3-.523.3v.251c.014 0 .502-.028.78-.028.245 0 .496.007.74.028v-.251c-.404 0-.474 0-.474-.293v-2.532l-1.025.077zm4.326-1.765v.251c.468 0 .524.049.524.39v1.445a1.377 1.377 0 00-.977-.398c-.927 0-1.709.698-1.709 1.576 0 .872.74 1.57 1.625 1.57a1.41 1.41 0 001.033-.433v.433l1.074-.07v-.251c-.468 0-.523-.049-.523-.39v-4.2l-1.047.077zm.496 4.031c-.182.328-.537.607-.99.607a.994.994 0 01-.81-.432c-.14-.21-.223-.488-.223-.935 0-.16 0-.683.286-1.011.279-.314.62-.377.823-.377.335 0 .635.154.83.405.084.112.084.118.084.251v1.492zm4.719-.129c.02-.075.02-.11.02-.115 0-.11-.09-.174-.184-.174-.2 0-.24.174-.274.309l-.105.413-.154.623c-.02.064-.045.17-.05.2-.005.02-.274.487-.698.487-.229 0-.408-.11-.408-.428 0-.274.15-.638.294-.996.025-.06.06-.14.06-.225 0-.244-.235-.438-.543-.438-.523 0-.803.638-.803.772 0 .07.08.07.105.07.085 0 .09-.025.115-.1.104-.343.338-.573.563-.573.094 0 .149.055.149.19 0 .1-.03.169-.065.259-.244.592-.289.772-.289.971 0 .553.464.668.797.668a.96.96 0 00.618-.244c-.07.279-.124.498-.358.737-.115.114-.35.304-.658.304-.09 0-.274-.015-.389-.12a.312.312 0 00.25-.299c0-.144-.115-.204-.22-.204-.144 0-.314.12-.314.349 0 .25.254.443.673.443.568 0 1.24-.378 1.4-1.016l.468-1.863z"/><path d="M147.52-32.773l-35.438 17.359" stroke="#000" fill="none" stroke-width=".398" stroke-miterlimit="10"/><path d="M114.816-14.094c-.972-1.12-2.027-1.355-2.914-1.234.641-.625 1.102-1.602.809-3.059" stroke="#000" fill="none" stroke-width=".398" stroke-miterlimit="10" stroke-linecap="round" stroke-linejoin="round"/><path d="M133.437-21.123a.403.403 0 00-.405-.398.397.397 0 00-.397.398.4.4 0 10.802 0zm-1.06 1.304v.25c.439 0 .502.043.502.385v1.813c0 .3-.07.3-.523.3v.251c.014 0 .502-.028.78-.028.245 0 .496.007.74.028v-.251c-.404 0-.474 0-.474-.293v-2.532l-1.025.077zm4.326-1.765v.251c.468 0 .524.049.524.39v1.445a1.377 1.377 0 00-.977-.398c-.928 0-1.709.698-1.709 1.576 0 .872.74 1.57 1.625 1.57a1.41 1.41 0 001.033-.433v.433l1.074-.07v-.251c-.468 0-.523-.049-.523-.39v-4.2l-1.047.077zm.496 4.031c-.182.328-.537.607-.99.607a.993.993 0 01-.81-.432c-.14-.21-.223-.488-.223-.935 0-.16 0-.683.286-1.011.279-.314.62-.377.823-.377.335 0 .635.154.83.405.084.112.084.118.084.251v1.492zm4.516-.224c-.23.07-.23.289-.23.294 0 .085.06.204.225.204.14 0 .309-.12.309-.338 0-.294-.329-.41-.593-.41-.324 0-.533.21-.633.34-.164-.284-.483-.34-.662-.34-.623 0-.977.589-.977.773 0 .07.08.07.105.07.045 0 .085-.005.104-.06.15-.488.558-.613.748-.613.164 0 .353.07.353.334 0 .125-.09.468-.259 1.131-.074.284-.304.453-.518.453-.035 0-.18 0-.299-.08.225-.08.225-.268.225-.288 0-.145-.11-.21-.22-.21a.32.32 0 00-.309.34c0 .303.34.408.593.408.274 0 .498-.16.618-.34.2.3.518.34.673.34.627 0 .981-.593.981-.773 0-.07-.085-.07-.105-.07-.084 0-.094.03-.11.075a.825.825 0 01-.746.598c-.15 0-.354-.054-.354-.333 0-.06 0-.095.04-.265.084-.348.219-.901.259-.99.065-.13.229-.33.483-.33.015 0 .184 0 .3.08zm7.033-.787a2.576 2.576 0 00-2.574-2.574 2.58 2.58 0 00-2.574 2.567 2.576 2.576 0 002.574 2.574 2.58 2.58 0 002.574-2.567zM144.61-20.3c.286-.258.824-.6 1.563-.6.74 0 1.276.342 1.562.6l-1.562 1.563-1.563-1.563zm-.167 3.293c-.384-.398-.607-.984-.607-1.556 0-.614.244-1.185.607-1.562l1.562 1.555-1.562 1.563zm3.46-3.118c.383.398.606.983.606 1.555a2.29 2.29 0 01-.606 1.563l-1.563-1.556 1.563-1.562zm-.168 3.292c-.286.258-.823.6-1.562.6-.74 0-1.277-.342-1.563-.6l1.563-1.562 1.562 1.562zm4.372-1.982c.349.795.746 1.807.823 1.897.132.168.258.168.37.168h.139c.132 0 .203 0 .203-.084 0-.035-.021-.056-.035-.07-.084-.076-.154-.237-.182-.3l-1.702-4.017c-.049-.126-.188-.44-.927-.44-.084 0-.182 0-.182.098 0 .084.07.09.105.098.146.02.279.042.453.44l.83 1.952-2.057 1.855c-.084.07-.14.126-.14.245 0 .167.14.237.237.237.133 0 .216-.09.237-.112l1.828-1.967zm5.206 1.133c.02-.075.02-.11.02-.115 0-.11-.09-.174-.184-.174-.2 0-.24.174-.274.309l-.105.413-.154.623c-.02.064-.045.17-.05.2-.005.02-.274.487-.698.487-.229 0-.408-.11-.408-.428 0-.274.15-.638.294-.996.025-.06.06-.14.06-.225 0-.244-.235-.438-.543-.438-.523 0-.803.638-.803.772 0 .07.08.07.105.07.085 0 .09-.025.115-.1.104-.343.338-.573.563-.573.094 0 .149.055.149.19 0 .1-.03.169-.065.259-.244.592-.289.772-.289.971 0 .553.464.668.797.668a.96.96 0 00.618-.244c-.07.279-.124.498-.358.737-.115.114-.35.304-.658.304-.09 0-.274-.015-.389-.12a.312.312 0 00.25-.299c0-.144-.115-.204-.22-.204-.144 0-.314.12-.314.349 0 .25.254.443.673.443.568 0 1.24-.378 1.4-1.016l.468-1.863z"/></svg>