<svg xmlns="http://www.w3.org/2000/svg" width="103.612" height="24.169" viewBox="0 -18.127 77.709 18.127"><path d="M13.902-5.25a1.098 1.098 0 01-.32.784c-.218.213-.474.32-.784.32H5.09a1.09 1.09 0 01-.785-.32 1.042 1.042 0 01-.319-.784v-7.71c0-.312.106-.57.32-.784.206-.214.474-.32.784-.32h7.71c.305 0 .57.107.783.32.208.212.32.474.32.784v7.71z" fill="#dd2e44"/><path d="M6.987-9.764a.24.24 0 01.097.194.346.346 0 01-.058.174.304.304 0 01-.233.117c-.08-.002-.135-.026-.174-.078a6.33 6.33 0 00-.949-.717.201.201 0 01-.116-.193c-.003-.058.02-.11.058-.174a.306.306 0 01.232-.098.302.302 0 01.136.04c.292.152.633.4 1.007.735zm.116 1.685c-.006.011-.006.046-.019.097-.252.735-.542 1.389-.89 1.957a.255.255 0 01-.233.135.585.585 0 01-.175-.039c-.09-.057-.135-.128-.135-.232a.256.256 0 01.039-.155 8.704 8.704 0 00.871-1.86c.02-.119.103-.173.232-.173.024-.006.059.006.098.019.14.033.212.123.212.251zm.175-3.254a.325.325 0 01-.058.175.272.272 0 01-.213.097.302.302 0 01-.214-.097 7.05 7.05 0 00-.832-.678c-.07-.042-.097-.103-.097-.194-.007-.07.026-.122.077-.174a.236.236 0 01.213-.116.207.207 0 01.155.058c.309.192.607.426.892.697a.392.392 0 01.077.232zm.174 1.356c-.144-.003-.213-.08-.213-.242-.005-.164.071-.242.213-.242h1.046v-.775h-.833c-.129-.003-.193-.077-.193-.232-.003-.161.064-.233.193-.233h.833v-.523c-.004-.13.078-.193.233-.193.179-.003.27.064.27.193v.523h1.396v-.523c-.004-.13.083-.193.251-.193.167-.003.252.064.252.193v.523h.95c.127-.001.193.078.193.233-.006.149-.065.232-.194.232H10.9v.795h1.182c.136-.002.212.077.212.232-.003.15-.07.232-.212.232h-2.15v.6h1.433c.393-.003.6.194.6.582v2.285c0 .228-.055.401-.164.504-.115.103-.294.155-.552.155a3.455 3.455 0 01-.64-.058c-.13-.031-.193-.11-.193-.252-.004-.028 0-.045 0-.058.022-.145.103-.213.232-.213.012-.005.026.006.04.02.153.033.315.057.483.057a.553.553 0 00.194-.029.154.154 0 00.077-.077.673.673 0 00.02-.165v-2.111c-.006-.12-.071-.174-.213-.174H9.932v1.762h.329c.124-.006.194-.064.194-.193v-.969c-.004-.134.077-.193.232-.193.167 0 .252.064.252.193v1.085c-.005.187-.042.329-.126.407-.087.075-.216.116-.397.116H8.963c-.187-.001-.313-.039-.397-.116-.084-.08-.126-.214-.126-.407v-1.085c-.005-.134.08-.193.242-.193.156 0 .242.064.242.193v.969c-.006.127.065.193.194.193h.31V-8.91h-1.24c-.143-.005-.213.058-.213.174v2.77c-.003.136-.09.213-.271.213-.174-.004-.252-.071-.252-.213v-2.828c-.002-.391.2-.581.6-.581h1.376v-.6H7.452zm2.945-1.259H8.982v.795h1.415v-.795z" fill="#fff"/><path d="M29.178-4.495c-.751.332-1.571.39-2.469.165-.904-.232-1.546-.65-1.947-1.27-.25-.389-.397-.87-.455-1.452a5.995 5.995 0 010-1.482c.052-.41.132-.739.223-.997.045-.134.084-.3.097-.513a8.1 8.1 0 00-.01-.795c-.022-.318-.035-.561-.049-.735-.019-.179-.042-.45-.087-.824a13.957 13.957 0 01-.067-.58c-.027-.274.048-.476.222-.611a.545.545 0 01.572-.087c.2.074.33.252.368.523l.523 2.867c.178.238.377.425.59.542.207.115.404.18.572.194.164.007.365-.02.59-.098a4.18 4.18 0 00.533-.222c.125-.076.304-.171.523-.3.033-.044.1-.233.184-.581.084-.354.188-.837.31-1.463.12-.63.197-1.03.223-1.21.099-.453.352-.65.746-.591.387.054.565.32.513.784-.043.344-.113.9-.223 1.657-.113.751-.203 1.42-.28 1.995-.081.572-.11.913-.098 1.016.022.412.194.556.504.426.034-.016.236-.129.59-.348.354-.22.714-.362 1.076-.426a.94.94 0 01.688.135c.197.126.306.281.32.456.01.172-.065.332-.233.474-.07.052-.29.161-.678.33a6.199 6.199 0 00-1.095.6c-.343.229-.577.497-.707.794-.38.8-.897 1.343-1.569 1.627z" fill="#d5ab88"/><path d="M26.35-7.827a8.339 8.339 0 01-.154-.871 38.03 38.03 0 01-.117-1.036c-.041-.385-.064-.61-.077-.688-.043-.286.052-.504.271-.659a.814.814 0 01.707-.135.62.62 0 01.475.484c.205.912.348 1.86.426 2.828.022.348-.074.6-.3.755a.714.714 0 01-.737.049c-.269-.125-.429-.365-.493-.727z" fill="#b78b60"/><path d="M26.602-7.943c-.055-.22-.1-.49-.145-.813a37.79 37.79 0 01-.135-1.075c-.05-.4-.081-.656-.107-.785-.027-.223.055-.403.242-.552a.63.63 0 01.6-.136c.211.058.346.23.398.514.166 1.092.27 1.975.31 2.634.008.28-.062.504-.223.659-.166.152-.342.193-.543.116-.203-.08-.332-.265-.396-.562z" fill="#d5ab88"/><path d="M27.416-7.575c-.015-.533.02-1.485.097-2.866.012-.273.135-.462.368-.572a.833.833 0 01.697-.029c.23.09.355.258.368.503-.005.037.02.31.058.814.034.503.065.927.078 1.269.009.339.013.72 0 1.133a.894.894 0 01-.223.504.816.816 0 01-.417.242.905.905 0 01-.464-.03.792.792 0 01-.397-.328c-.114-.172-.165-.381-.165-.64z" fill="#b78b60"/><path d="M27.668-7.536c.007-.262.022-.762.029-1.511.004-.755.016-1.227.029-1.433.008-.273.116-.465.31-.581a.62.62 0 01.58-.058c.192.075.298.232.31.465.02 1.442.007 2.505-.057 3.176-.032.268-.142.458-.349.562a.55.55 0 01-.59-.04c-.195-.132-.275-.322-.262-.58z" fill="#d5ab88"/><path d="M46.858-14.064c.464 0 .858.162 1.181.485.322.32.484.71.484 1.162v1.375c-.002.541-.19 1-.571 1.375-.386.368-.836.562-1.366.562a1.84 1.84 0 01-1.355-.562 1.862 1.862 0 01-.562-1.375v-1.646a1.05 1.05 0 01.32-.775c.208-.22.474-.33.784-.33.02-.004.078.007.155.02.28-.198.594-.29.93-.29z" fill="#0b0200"/><path d="M46.916-4.611a1.017 1.017 0 00-.068-.543.68.68 0 01-.049-.465 8.27 8.27 0 00-.067-.542 3.4 3.4 0 01-.048-.33c-.003-.12.151-.183.455-.203.302-.023.455.049.455.204-.006.124-.065.42-.194.871.025.179.02.35-.02.504a1.74 1.74 0 00-.057.446c-.003.02.022.058.067.096.04.035.084.075.117.107.028.032.035.055.01.068-.052.023-.165.016-.34-.03-.174-.05-.261-.106-.261-.183zm-.659 0c0 .072-.087.139-.261.184-.181.039-.287.055-.34.029-.012-.016-.006-.036.02-.068a.816.816 0 01.107-.107c.043-.043.067-.07.067-.096a2.065 2.065 0 00-.058-.446 1.215 1.215 0 01-.02-.504c-.134-.454-.193-.742-.193-.871 0-.16.155-.223.465-.204.307.016.465.088.465.204-.004.008-.02.123-.058.33a2.587 2.587 0 00-.058.541.92.92 0 01-.058.465c-.071.164-.09.349-.078.543z" fill="#7c533e"/><path d="M46.684-6.49c-.003-.122.151-.184.455-.204.302-.023.455.049.455.204a2.056 2.056 0 01-.078.407h-.774a.66.66 0 00-.02-.136c-.015-.054-.023-.093-.03-.126-.011-.032-.008-.061-.008-.087-.003-.03 0-.045 0-.058zm-1.105 0c0-.16.152-.223.455-.204.298.016.455.088.455.204-.004.008 0 .039 0 .077-.004.034-.006.09-.019.155-.017.062-.025.123-.038.175h-.775a1.636 1.636 0 01-.078-.407z" fill="#664131"/><path d="M44.727-6.645c-.055.025-.103.006-.155-.058-.147-.143-.168-.342-.077-.6.006-.066.035-.162.067-.291.03-.133.071-.265.116-.407a5.23 5.23 0 01.146-.407c-.003-.006.026-.187.077-.561.05-.38.097-.595.136-.66.025-.07.097-.122.213-.173a.51.51 0 01.29-.058c.077.01.091.096.04.251-.002.02-.007.046-.02.058a66.562 66.562 0 00-.271 1.182c-.017.033-.09.21-.233.513-.142.3-.206.527-.193.669-.003.213-.033.329-.097.329-.016.023-.02.064-.02.116l-.019.097zm4.126-.039c-.006-.013-.003-.029-.01-.048-.009-.024-.013-.045-.02-.078a.334.334 0 01-.01-.087c-.057-.003-.086-.026-.106-.077a.706.706 0 01-.029-.252c-.013-.149-.11-.355-.29-.64a9.553 9.553 0 01-.29-.464l-.427-1.143c-.005-.017-.006-.032-.02-.058a.32.32 0 01-.048-.087c-.008-.022-.013-.042-.02-.068a.073.073 0 01.01-.068c.008-.023.04-.029.078-.029.06-.027.159-.02.281.02.118.037.204.083.242.135.033.058.11.278.213.64.1.355.155.541.155.541a8.076 8.076 0 01.223.484c.03.077.061.15.087.214.02.059.052.13.078.194.021.06.051.122.077.174.1.244.103.445 0 .6-.055.076-.11.11-.174.097z" fill="#7c533e"/><path d="M47.671-4.146h-.64c-.12-.007-.186-.046-.212-.136-.014-.027-.013-.074 0-.145a.889.889 0 01.049-.184c.015-.057.041-.078.067-.078h.33c.074-.006.17.062.28.184.107.122.165.184.165.184a.109.109 0 01.048.107c-.007.041-.035.068-.087.068zm-2.17 0c-.04-.007-.06-.023-.067-.068-.012-.05.01-.08.048-.107-.002-.002.052-.061.155-.184.103-.123.194-.184.271-.184h.33c.038-.006.07.055.097.165.02.109.032.19.02.242-.033.09-.098.136-.214.136h-.64zm5.637-9.918c.413 0 .769.149 1.066.446.294.294.445.652.445 1.065a1.586 1.586 0 01-.203.765c-.139.233-.32.423-.552.552a1.584 1.584 0 01-.756.194 1.475 1.475 0 01-1.24-.62.945.945 0 01-.319-.203.597.597 0 01-.164-.31c-.032-.126-.046-.226-.059-.31a2.324 2.324 0 01-.02-.34c0-.167.043-.322.127-.464a.96.96 0 01.339-.348.96.96 0 01.465-.156c.254-.185.548-.27.871-.27z" fill="#292f33"/><path d="M47.788-9.163c-.108.528-.155.826-.155.891-.006.008.016.097.048.252.03.153.07.326.116.513.045.18.084.39.116.61.027.217.049.4.049.542h-2.75a2.73 2.73 0 01.057-.542c.035-.223.078-.423.116-.61.036-.194.078-.358.117-.513.036-.157.058-.239.058-.252l-.174-.891-.446-.484a1.17 1.17 0 01.446-.368c.177-.094.335-.142.464-.155l.194-.04h1.104c.461.034.833.227 1.104.563l-.464.484z" fill="#e75a70"/><path d="M47.633-8.272c-.006-.005 0 .013 0 .039-.006.021.006.061.019.106.008.039.026.087.039.126H45.5a.432.432 0 01.04-.174.73.73 0 01.019-.097 4.036 4.036 0 00-.039-.29h2.15a2.14 2.14 0 00-.038.29z" fill="#da2f47"/><path d="M46.044-11.042h1.104v1.104a.562.562 0 01-.561.562.516.516 0 01-.388-.165.558.558 0 01-.155-.397v-1.104z" fill="#7c533e"/><path d="M47.148-11.042v1.104a1.34 1.34 0 01-.242.087c-.087.015-.158.033-.223.04-.067 0-.132.006-.203 0-.072-.012-.132-.017-.184-.03-.052-.015-.097-.026-.136-.039-.04-.015-.07-.026-.096-.039l-.02-.019v-1.085l1.104-.019z" fill="#664131"/><path d="M47.962-13.23v1.646a1.348 1.348 0 01-.398.968 1.32 1.32 0 01-.968.407 1.356 1.356 0 01-.978-.407 1.326 1.326 0 01-.407-.968v-1.647h2.75z" fill="#7c533e"/><path d="M47.962-13.521l.29 1.394c-.418-.006-.771-.038-1.075-.116-.304-.078-.526-.17-.668-.28a1.504 1.504 0 01-.33-.33.785.785 0 01-.135-.262v-.116c-.002.021-.003.065-.01.117-.012.047-.029.138-.067.26a1.287 1.287 0 01-.165.33 1.06 1.06 0 01-.33.271 1.13 1.13 0 01-.532.126l.271-1.394h2.75z" fill="#0b0200"/><path d="M47.148-10.751c-.004.008-.006.029-.02.048-.016.018-.025.039-.038.058-.018.019-.032.039-.058.058-.031.013-.058.036-.097.049-.045.01-.087.026-.145.039a1.17 1.17 0 01-.203.019.917.917 0 01-.378-.068c-.101-.051-.146-.094-.146-.146l-.019-.057h1.104z" fill="#df1f32"/><path d="M45.908-11.584c-.094 0-.135-.046-.135-.136-.006-.092.045-.136.135-.136.087-.003.136.046.136.136-.002.088-.045.136-.136.136zm1.376 0c-.093 0-.136-.046-.136-.136-.004-.092.045-.136.136-.136.088-.003.135.046.135.136 0 .088-.045.136-.135.136z"/><path d="M46.315-11.313h.543c-.001.176-.09.271-.271.271-.081-.001-.14-.023-.184-.068a.358.358 0 01-.088-.126v-.077z" fill="#3d2e24"/><path d="M48.834-6.684c-.071.012-.123-.02-.175-.097-.104-.156-.103-.355 0-.6l.107-.271c.042-.121.097-.242.155-.378a3.71 3.71 0 01.203-.417c.01-.019.032-.087.058-.222.024-.141.065-.3.116-.494a2.47 2.47 0 01.175-.484c.02-.058.106-.094.242-.126a.564.564 0 01.32-.01c.02.012.041.032.048.058a.16.16 0 01-.01.087c-.019.03-.026.068-.039.107-.019.034-.019.058-.019.058a6.12 6.12 0 01-.407 1.22 2.233 2.233 0 01-.31.514c-.155.197-.239.364-.252.494-.029.245-.083.361-.174.348-.005.023-.003.055-.01.087-.008.027-.012.058-.019.078a.099.099 0 00-.01.048zm4.009.039c-.002 0-.003-.01-.01-.03-.012-.022-.01-.048-.01-.086-.002-.04 0-.071 0-.097-.092-.003-.129-.116-.115-.349-.004-.135-.062-.306-.184-.532a4.126 4.126 0 01-.262-.553 7.772 7.772 0 01-.233-1.259c-.004-.005-.003-.019-.01-.058A4.45 4.45 0 0052-9.715a.22.22 0 010-.097c.005-.037.03-.048.068-.048.074-.015.181.006.31.058.129.05.2.103.213.155.034.136.074.31.107.503.031.193.051.362.058.504 0 .14.016.22.03.232.048.15.1.3.144.436.04.131.08.268.107.397.025.125.045.22.058.271.071.258.051.459-.078.6-.065.077-.122.098-.174.059z" fill="#f7dece"/><path d="M51.971-5.929c-.018.072-.02.265-.02.562-.004.291.02.614.06.95-.006.035-.066.074-.195.106a1.146 1.146 0 01-.397.02c-.137-.025-.203-.075-.203-.165.006-.159.013-.314 0-.475a8.685 8.685 0 00-.049-.465 2.127 2.127 0 01-.029-.3c0-.042-.013-.161-.039-.368a12.842 12.842 0 01-.057-.523c-.002-.006-.013 0-.04 0-.027-.006-.038 0-.038 0-.015.136-.032.317-.058.523-.03.206-.039.33-.039.368-.016.048-.029.152-.048.3a8.03 8.03 0 00-.049.465c-.017.156-.013.32 0 .475-.004.087-.064.145-.193.164-.13.015-.262.013-.398-.019-.136-.037-.196-.068-.183-.106.019-.339.038-.653.038-.95-.006-.303-.006-.484-.019-.562a6.658 6.658 0 01-.087-.794 9.125 9.125 0 01-.03-.716v-.29h2.19c.009.691-.026 1.297-.117 1.8z" fill="#aab8c2"/><path d="M52.243-4.146h-1.046a.441.441 0 01.019-.291c.045-.132.264-.161.64-.097a.981.981 0 01.31.107c.074.039.118.093.125.145a.174.174 0 01-.048.136zm-2.5 0c-.118-.097-.077-.188.117-.291l.271-.097c.37-.068.588-.032.64.097a.273.273 0 01.038.136c-.004.05 0 .09 0 .116l-.02.039h-1.045z" fill="#292f33"/><path d="M52.32-9.996a.573.573 0 01.174.165c.046.066.094.142.126.213.031.068.061.142.087.213.022.07.045.129.058.174.01.04.02.068.02.068l-.62.174-.02 1.53H49.86l-.039-1.53-.6-.174c.089-.414.245-.69.465-.833a.88.88 0 01.329-.145 3.05 3.05 0 01.31-.068h1.22c.294-.006.555.07.775.213z" fill="#4289c1"/><path d="M50.441-11.294h1.104v1.104c-.003.085-.055.171-.165.242a.758.758 0 01-.387.107.698.698 0 01-.387-.107c-.113-.077-.165-.151-.165-.242v-1.104z" fill="#f7dece"/><path d="M50.441-10.19v-.833l1.104-.019v.852c-.003.085-.055.171-.165.242a.758.758 0 01-.387.107.698.698 0 01-.387-.107c-.113-.077-.165-.151-.165-.242z" fill="#eec2ad"/><path d="M52.378-13.23v1.646c0 .374-.136.697-.407.968a1.355 1.355 0 01-.978.407 1.315 1.315 0 01-.969-.407 1.334 1.334 0 01-.396-.968v-1.647h2.75z" fill="#f7dece"/><path d="M49.628-13.366h2.75l.136.678-.136.561c-.4-.006-.739-.035-1.017-.106-.28-.076-.478-.162-.6-.271a1.002 1.002 0 01-.252-.31.615.615 0 01-.068-.281c-.066.642-.336.968-.813.968l-.136-.561.136-.678z" fill="#292f33"/><path d="M51.545-10.751c-.003.008-.003.035-.01.067-.013.032-.058.074-.155.126a.863.863 0 01-.387.078.869.869 0 01-.378-.068c-.096-.051-.142-.094-.154-.146l-.02-.057h1.104zm-.813-.562h.542c-.006.021-.003.055-.01.087a.283.283 0 01-.077.116.28.28 0 01-.184.068.458.458 0 01-.136-.02.15.15 0 01-.087-.067.363.363 0 01-.039-.087.2.2 0 01-.01-.058v-.04z" fill="#c1694f"/><path d="M50.305-11.584c-.093 0-.135-.046-.135-.136-.005-.092.045-.136.135-.136.088-.003.136.046.136.136-.002.088-.045.136-.136.136zm1.376 0c-.092 0-.136-.046-.136-.136-.003-.092.045-.136.136-.136.089-.003.135.046.135.136 0 .088-.045.136-.135.136z" fill="#662113"/><path d="M73.678-6.626a1.09 1.09 0 01-1.104 1.104h-7.709a1.07 1.07 0 01-.785-.319 1.045 1.045 0 01-.319-.785v-4.958c0-.31.106-.572.32-.785.206-.218.474-.32.784-.32h7.71a1.05 1.05 0 01.784.32c.207.208.32.475.32.785v4.958z" fill="#00785e"/><path d="M68.72-11.7c.006.023.045.135.096.329h.368c-.026.008-.058.032-.096.058-.041.021-.075.052-.107.077-.032.023-.061.046-.087.058.009.036.032.094.058.165a.69.69 0 01.039.145c-.003.007-.02.007-.058-.019-.017-.02-.032-.029-.058-.048l-.078-.059a.458.458 0 00-.077-.048c-.032.012-.071.045-.136.097a.999.999 0 01-.135.096.438.438 0 01.038-.164c.024-.075.045-.126.058-.165a2.527 2.527 0 00-.29-.193c.021-.018.087-.016.184-.01l.165.01c.05-.134.09-.24.116-.33zm-1.511.929c.023-.018.09-.058.194-.135a.284.284 0 01-.04-.098.644.644 0 00-.038-.115.73.73 0 01.106.067.623.623 0 01.088.068c.032-.026.103-.07.194-.135-.004.023-.01.064-.03.115a.367.367 0 00-.029.098.851.851 0 00.175.155c-.029-.005-.104 0-.233 0a.862.862 0 00-.077.232c-.02-.04-.033-.116-.058-.232h-.194c-.002-.018-.01-.017-.03-.01-.024.005-.028.003-.028-.01zm2.964.02h-.175c-.019.02-.026.064-.039.116-.019.048-.025.09-.038.116-.007-.015-.026-.09-.078-.232-.065-.005-.142 0-.232 0 .01-.018.042-.036.087-.068.04-.035.074-.055.087-.068a.398.398 0 00-.029-.136c-.024-.052-.036-.083-.048-.096.01.01.077.058.193.135.026-.014.062-.036.107-.068.043-.037.08-.054.106-.067-.017.01-.022.035-.029.067-.008.028-.013.061-.02.087a.148.148 0 01-.028.059c.02.019.09.07.194.135-.004.008-.01.016-.03.01-.019-.008-.028-.003-.028.01zm-3.313.406c.007.026.026.068.039.126.007.056.02.094.02.107.02-.005.067.003.125.01.057.005.094.01.107.01-.094.046-.155.09-.194.115-.005-.003.013.071.039.213-.018.013-.045-.006-.097-.058-.006-.001-.013-.013-.039-.038l-.038-.04c-.027.011-.052.027-.078.04a.31.31 0 00-.068.038c-.024.012-.042.026-.067.04a.169.169 0 00.028-.069.124.124 0 01.03-.077c.01-.026.025-.042.038-.068a.692.692 0 00-.174-.155c.035-.018.09-.013.155 0 .037.008.065.02.078.02.037-.07.07-.136.096-.214zm3.816.213c-.005-.004.03-.006.087-.019a.466.466 0 01.146-.02c-.016.008-.043.04-.088.078a.304.304 0 00-.087.097c.009.01.03.045.049.097a.31.31 0 00.048.097.337.337 0 01-.136-.058l-.077-.04c-.019.011-.039.04-.078.078-.045.037-.07.065-.096.078a.37.37 0 01.019-.107.523.523 0 00.02-.126 1.493 1.493 0 00-.194-.116c-.003-.004.077-.006.232-.02a.424.424 0 00.03-.125c.003-.06.009-.094.009-.107.032.051.077.123.116.213z" fill="#fbd116"/><path d="M69.669-7.672h.968c.163-.005.259.007.272.02h-.02c-.028.034-.052.077-.077.116-.21.01-.62.02-1.24.02a1.738 1.738 0 01-.852-.35c-.29.207-.568.323-.853.35a30.74 30.74 0 01-1.24-.02.456.456 0 01-.077-.116c-.016-.005-.019-.007-.019-.02h1.24a1.57 1.57 0 00.949-.407c.303.256.626.394.949.407zm.988.31c-.006.012-.01.026-.03.04-.021.01-.028.025-.028.038H66.86c-.019-.014-.039-.04-.077-.078h-.02c.219-.014.866-.016 1.937-.01 1.066.002 1.724.004 1.957-.01v.02zm-.233.233c-.04.02-.084.058-.135.097-1.049.008-2.092.012-3.138 0a.902.902 0 01-.136-.097c-.005-.019.026-.02.078-.02.332-.018.89-.012 1.666 0 .768.007 1.336.013 1.685 0-.001-.006-.004.003-.01.01-.01.004-.01.01-.01.01zm-.31.232c-.095.049-.174.09-.251.116a72.16 72.16 0 01-2.286 0 1.377 1.377 0 01-.252-.116c-.014-.016.026-.02.116-.02h2.673c.009-.003.013.007 0 .02zm-.445.213a2.62 2.62 0 01-.794.174c-.005-.005-.02 0-.058 0-.044-.005-.058 0-.058 0h-.078c0-.005-.02 0-.058 0a.156.156 0 00-.058 0 2.74 2.74 0 01-.794-.174h-.02c.165-.013.652-.02 1.453-.02h.465c.01 0 .02.007.02.02h-.02z" fill="#fff"/><path d="M68.137-9.473c.007.28.09.536.232.755-.132-.312-.187-.587-.174-.833.033-.418.213-.749.523-1.007.304.269.484.6.523.988a1.53 1.53 0 01-.213.89c.165-.208.258-.47.271-.793v-.078a1.586 1.586 0 00-.135-.58c-.002-.018.019-.05.057-.107.038-.06.059-.107.059-.146.116.168.18.375.193.62v.213a1.59 1.59 0 01-.251.737v.019c-.001-.017.006-.026.019-.039a.043.043 0 01.039-.02c.335-.287.71-.438 1.123-.464h.116c0-.003-.019.026-.058.077 0 .011-.006.03-.02.049-.013.015-.025.035-.038.048-.466 0-.865.162-1.2.485.308-.21.6-.323.871-.35.305-.03.6.014.872.117a1.279 1.279 0 01-.291.484.24.24 0 00-.097.097 1.533 1.533 0 01-.91.387h-.135c.008.013.05.02.115.02h.136c.334-.014.658-.149.968-.407.009-.005.04.006.078.02l.077.02a.504.504 0 00-.096.115c-.275.23-.581.355-.93.368h-.136a1.477 1.477 0 01-.949-.387c-.032-.043-.045-.059-.058-.059-.02-.004-.026.01-.039.03-.02.018-.02.029-.02.029a1.469 1.469 0 01-.948.387h-.136a1.395 1.395 0 01-.93-.387.37.37 0 01-.096-.097h-.02l.02-.02c.06-.004.116-.006.154-.019.322.253.646.394.97.407h.134c.062 0 .104-.007.117-.02h.019-.155a1.487 1.487 0 01-.91-.387.856.856 0 00-.078-.097 1.16 1.16 0 01-.31-.484c.255-.108.55-.142.872-.116.283.02.568.142.853.349l.038.019.02.02c-.018-.015-.026-.026-.04-.04-.353-.325-.748-.484-1.2-.484-.005 0-.039-.058-.117-.174h.117c.421.023.8.174 1.123.445a.9.9 0 00.078.097c-.005-.016 0-.02 0-.02-.005-.003-.007 0-.02 0-.005-.016-.006-.025-.02-.038a1.565 1.565 0 01-.232-.717v-.213c.012-.207.072-.413.175-.62a.76.76 0 00.155.233 1.346 1.346 0 00-.136.504c-.018.006-.019.025-.019.038-.006.008 0 .02 0 .02-.006-.006 0 .006 0 .02v.018c-.006-.005 0 .01 0 .03-.006.017 0 .035 0 .048zm.232.755l.04.039c-.004-.015-.014-.026-.04-.039z" fill="#fff"/></svg>