<svg xmlns="http://www.w3.org/2000/svg" width="293.24" height="90.333" viewBox="0 -67.75 219.93 67.75"><path d="M12.328-55.392v-.19c-.747-.059-.877-.188-.877-.896V-60.9c0-.718.11-.827.877-.897v-.19h-2.77v.19c.768.07.877.18.877.897v1.932H7.417V-60.9c0-.718.11-.827.876-.897v-.19H5.524v.19c.767.07.877.18.877.897v4.313c0 .836-.1.956-.877 1.006v.189h2.77v-.19c-.748-.059-.877-.188-.877-.896v-2.052h3.018v1.943c0 .836-.1.956-.877 1.006v.189h2.77zm4.423-1.564l-.159-.07c-.478.757-.906 1.046-1.544 1.046-.548 0-.966-.259-1.255-.797-.2-.388-.279-.737-.299-1.374h3.068c-.08-.648-.179-.937-.428-1.255-.299-.36-.757-.568-1.275-.568-1.235 0-2.082.996-2.082 2.45 0 1.375.717 2.232 1.863 2.232.956 0 1.693-.588 2.111-1.664zm-1.205-1.514h-2.032c.11-.787.448-1.145 1.056-1.145.608 0 .847.278.976 1.145zm3.965 3.078v-.15c-.637-.04-.747-.139-.747-.687v-5.946l-.04-.02c-.518.169-.896.268-1.583.438v.16h.06c.11-.01.229-.02.308-.02.319 0 .419.139.419.607v4.751c0 .538-.14.668-.768.718v.149h2.351zm2.77 0v-.15c-.638-.04-.747-.139-.747-.687v-5.946l-.04-.02c-.518.169-.897.268-1.584.438v.16h.06c.11-.01.229-.02.309-.02.318 0 .418.139.418.607v4.751c0 .538-.14.668-.767.718v.149h2.35zm4.891-2.33c0-1.306-.916-2.252-2.191-2.252-1.295 0-2.202.956-2.202 2.33 0 1.345.927 2.352 2.182 2.352s2.211-1.056 2.211-2.43zm-.896.348c0 1.125-.449 1.803-1.196 1.803-.388 0-.757-.24-.966-.638-.279-.518-.438-1.215-.438-1.922 0-.947.468-1.564 1.175-1.564.837 0 1.425.956 1.425 2.32zM39.242-61.797v-.19H37.27v.19c.508.05.687.16.687.428 0 .21-.06.469-.16.747l-1.244 3.377-1.315-3.397-.12-.298c-.09-.21-.149-.399-.149-.509 0-.239.23-.338.767-.348v-.19h-2.66v.19c.568.01.668.1 1.007.897l.328.816-1.066 2.81-1.434-3.746a1.42 1.42 0 0 1-.11-.458c0-.22.14-.29.648-.319v-.19h-2.44v.19c.507.05.657.23 1.025 1.165l1.923 5.35h.15l1.533-4.214 1.594 4.214h.15l2.032-5.808c.189-.518.298-.607.826-.707zM44.112-57.594c0-.657-.219-1.225-.617-1.623-.478-.478-1.106-.717-1.833-.717-1.415 0-2.44.966-2.44 2.32 0 .628.238 1.236.637 1.624.428.429 1.106.688 1.763.688 1.464 0 2.49-.927 2.49-2.292zm-.936 0c0 .39-.1.847-.24 1.196-.069.16-.189.329-.358.478-.249.22-.558.339-.926.339-.319 0-.638-.12-.877-.31-.378-.308-.617-.975-.617-1.712 0-.678.199-1.315.508-1.624.269-.279.617-.428.996-.428.329 0 .647.12.896.328.389.32.618.947.618 1.733zm6.236 2.202v-.17c-.259-.01-.398-.079-.597-.298l-1.494-1.664c.478-.09.697-.169.936-.348a.953.953 0 0 0 .378-.777c0-.29-.1-.538-.288-.727-.29-.29-.917-.459-1.624-.459H44.69v.16c.528.05.587.13.587.577v2.89c0 .527-.05.617-.587.647v.169h2.052v-.17c-.538-.03-.618-.119-.618-.577v-1.295l.329-.01 1.733 2.052h1.225zm-1.673-3.267c0 .329-.15.597-.408.727-.32.16-.558.2-1.206.22v-1.625c0-.159.07-.219.319-.219.887 0 1.295.289 1.295.897zm6.465 2.072h-.219c-.12.229-.219.388-.318.498-.25.279-.648.398-1.275.398h-.489c-.498 0-.577-.04-.577-.249v-3.158c0-.448.08-.547.637-.577v-.16h-2.082v.16c.518.04.598.13.598.577v2.959c0 .448-.09.548-.598.578v.169h3.965l.358-1.195zm5.32-1.046c0-.608-.219-1.126-.617-1.494-.508-.469-1.325-.708-2.351-.708h-1.982v.16c.547.05.597.12.597.577v2.959c0 .458-.07.548-.597.578v.169h2.091c.867 0 1.644-.219 2.112-.607.478-.39.747-.987.747-1.634zm-.896.04c0 .787-.289 1.344-.877 1.653-.368.19-.777.26-1.395.26-.268 0-.338-.06-.338-.25v-3.387c0-.179.07-.239.338-.239.608 0 1.066.11 1.415.329.568.358.857.926.857 1.633zm3.577-3.736c0-.518-.19-.797-.529-.797-.328 0-.527.299-.527.767 0 .23.09 1.046.199 1.763.09.598.15 1.126.17 1.375l.089 1.076h.13l.448-3.815c.01-.12.02-.23.02-.369zm.01 5.509a.544.544 0 0 0-.539-.548.53.53 0 0 0-.527.548c0 .299.219.518.517.518.32 0 .549-.22.549-.518zM84.656-55.392v-.309h-.239c-.767 0-.787-.11-.787-.468v-5.25c0-.358.02-.468.787-.468h.24v-.308c-.35.03-1.086.03-1.465.03s-1.126 0-1.474-.03v.308h.239c.767 0 .787.11.787.468v2.331h-2.979v-2.33c0-.359.02-.469.787-.469h.24v-.308c-.35.03-1.086.03-1.465.03s-1.126 0-1.474-.03v.308h.239c.767 0 .787.11.787.468v5.25c0 .359-.02.468-.787.468h-.24v.309c.35-.03 1.086-.03 1.465-.03s1.126 0 1.474.03v-.309h-.239c-.767 0-.787-.11-.787-.468v-2.61h2.979v2.61c0 .359-.02.468-.787.468h-.24v.309c.35-.03 1.086-.03 1.465-.03s1.125 0 1.474.03zm4.474-1.185c0-.1-.08-.12-.13-.12-.09 0-.11.06-.13.14-.348 1.026-1.244 1.026-1.344 1.026-.498 0-.896-.3-1.125-.668-.3-.478-.3-1.135-.3-1.494h2.78c.219 0 .249 0 .249-.21 0-.985-.538-1.951-1.783-1.951-1.156 0-2.072 1.025-2.072 2.27 0 1.335 1.046 2.302 2.191 2.302 1.216 0 1.664-1.106 1.664-1.295zm-.658-1.325h-2.36c.06-1.484.896-1.733 1.235-1.733 1.026 0 1.125 1.344 1.125 1.733zm3.487 2.51v-.309c-.667 0-.777 0-.777-.448v-6.156l-1.434.11v.308c.697 0 .777.07.777.558v5.18c0 .448-.11.448-.777.448v.309l1.106-.03 1.105.03zm2.77 0v-.309c-.667 0-.777 0-.777-.448v-6.156l-1.434.11v.308c.697 0 .776.07.776.558v5.18c0 .448-.109.448-.776.448v.309l1.105-.03 1.106.03zm4.921-2.132c0-1.275-.996-2.33-2.201-2.33-1.246 0-2.212 1.085-2.212 2.33a2.224 2.224 0 0 0 2.202 2.242 2.22 2.22 0 0 0 2.211-2.242zm-.827-.08c0 .36 0 .897-.219 1.335-.22.449-.657.738-1.155.738-.429 0-.867-.21-1.136-.668-.25-.438-.25-1.046-.25-1.404 0-.389 0-.927.24-1.365a1.336 1.336 0 0 1 1.136-.667c.438 0 .866.219 1.125.647.26.428.26 1.006.26 1.385zM113.936-61.887v-.308c-.298.02-.607.03-.906.03l-1.185-.03v.308c.537.01.846.24.846.528 0 .05 0 .07-.05.2l-1.593 4.661-1.704-4.94c-.01-.04-.04-.11-.04-.15 0-.299.568-.299.837-.299v-.308c-.358.03-1.046.03-1.424.03l-1.206-.03v.308c.588 0 .718.03.827.21.06.1.28.757.28.796 0 0 0 .03-.03.12l-1.465 4.263-1.683-4.91c-.05-.13-.05-.15-.05-.18 0-.299.557-.299.836-.299v-.308c-.348.03-1.046.03-1.424.03l-1.215-.03v.308c.597 0 .787 0 .916.389l2.102 6.136c.04.11.06.19.2.19.129 0 .159-.09.198-.2l1.753-5.13 1.764 5.13c.04.11.07.2.199.2.13 0 .15-.06.2-.2l2.002-5.817c.09-.26.258-.688 1.015-.698zM119.812-57.932c0-1.484-1.185-2.72-2.66-2.72-1.484 0-2.66 1.236-2.66 2.72a2.663 2.663 0 0 0 2.66 2.68 2.663 2.663 0 0 0 2.66-2.68zm-.857-.11c0 1.963-1.095 2.53-1.802 2.53-.708 0-1.804-.567-1.804-2.53 0-1.872 1.136-2.36 1.803-2.36.678 0 1.803.498 1.803 2.36zm7.273 1.973c0-.05 0-.15-.13-.15-.11 0-.119.09-.119.13-.07.607-.428.617-.498.617-.2 0-.29-.129-.349-.239-.08-.16-.14-.438-.269-1.076-.08-.348-.179-.856-.926-1.145.697-.18 1.315-.628 1.315-1.235 0-.697-.887-1.345-2.092-1.345h-2.391v.25c.667 0 .717.059.717.467v3.686c0 .408-.05.468-.717.468v.249l1.056-.03 1.066.03v-.249c-.668 0-.717-.06-.717-.468v-1.733h.896c.25 0 .508.01.817.318.21.22.21.459.21.897 0 .558 0 .737.318 1.046.18.179.578.328 1.026.328.637 0 .787-.617.787-.816zm-1.833-3.098c0 .388-.05 1.105-1.345 1.105h-.876v-1.773c0-.249.02-.348.12-.398.07-.03.338-.03.517-.03.737 0 1.584.03 1.584 1.096zm6.635 1.843h-.25c-.079.796-.178 1.683-1.573 1.683h-.627c-.35 0-.399-.03-.399-.428v-3.696c0-.498.15-.498.897-.498v-.249l-1.226.03-1.105-.03v.25c.667 0 .717.059.717.467v3.686c0 .408-.05.468-.717.468v.249h4.094l.189-1.932zm6.107-.588c0-1.375-1.026-2.6-2.46-2.6h-2.8v.25c.668 0 .717.059.717.467v3.686c0 .408-.05.468-.717.468v.249h2.8c1.404 0 2.46-1.156 2.46-2.52zm-.827 0c0 .817-.15 1.235-.358 1.554-.16.219-.588.717-1.505.717h-.767c-.348 0-.398-.03-.398-.428v-3.766c0-.398.05-.428.398-.428h.767c.857 0 1.285.468 1.425.648.219.278.438.697.438 1.703zm3.448-4.104c0-.329-.27-.508-.529-.508s-.527.18-.527.508l.388 4.532c.01.15.02.23.14.23.1 0 .13-.05.14-.22l.388-4.542zm0 6.096c0-.289-.24-.528-.529-.528a.531.531 0 0 0-.527.528c0 .289.239.528.528.528.288 0 .528-.239.528-.528zM159.94-55.392v-6.913h-.887v3.018h-3.397v-3.018h-.887v6.913h.887v-3.287h3.397v3.287h.886zm5.07-2.182c0-.338-.01-1.085-.398-1.683-.408-.617-1.016-.727-1.375-.727-1.106 0-2.002 1.056-2.002 2.34 0 1.316.956 2.362 2.152 2.362a2.78 2.78 0 0 0 1.584-.518l-.06-.648a2.4 2.4 0 0 1-1.514.558c-.797 0-1.435-.707-1.465-1.684h3.079zm-.567-.547h-2.46c.159-.758.687-1.255 1.254-1.255.518 0 1.076.338 1.206 1.255zm2.42 2.729v-6.913h-.746v6.913h.747zm2.382 0v-6.913h-.747v6.913h.747zm5.499-2.192c0-1.334-.996-2.4-2.182-2.4-1.225 0-2.191 1.096-2.191 2.4 0 1.315 1.016 2.302 2.181 2.302 1.196 0 2.192-1.007 2.192-2.302zm-.777-.099c0 1.175-.678 1.763-1.415 1.763-.687 0-1.404-.558-1.404-1.763s.757-1.693 1.404-1.693c.697 0 1.415.517 1.415 1.693z"/><path d="M189.05-61.887v-.308c-.3.02-.608.03-.907.03l-1.185-.03v.308c.537.01.846.24.846.528 0 .05 0 .07-.05.2l-1.593 4.661-1.704-4.94c-.01-.04-.04-.11-.04-.15 0-.299.568-.299.837-.299v-.308c-.358.03-1.046.03-1.424.03l-1.206-.03v.308c.588 0 .718.03.827.21.06.1.28.757.28.796 0 0 0 .03-.03.12l-1.465 4.263-1.683-4.91c-.05-.13-.05-.15-.05-.18 0-.299.557-.299.836-.299v-.308c-.348.03-1.046.03-1.424.03l-1.215-.03v.308c.597 0 .787 0 .916.389l2.102 6.136c.04.11.06.19.2.19.129 0 .159-.09.198-.2l1.753-5.13 1.764 5.13c.04.11.07.2.199.2.13 0 .15-.06.2-.2l2.001-5.817c.09-.26.26-.688 1.016-.698zM194.935-57.932c0-1.484-1.185-2.72-2.66-2.72-1.484 0-2.66 1.236-2.66 2.72a2.663 2.663 0 0 0 2.66 2.68 2.663 2.663 0 0 0 2.66-2.68zm-.857-.11c0 1.963-1.095 2.53-1.803 2.53-.707 0-1.803-.567-1.803-2.53 0-1.872 1.136-2.36 1.803-2.36.678 0 1.803.498 1.803 2.36zm7.273 1.973c0-.05 0-.15-.13-.15-.11 0-.12.09-.12.13-.07.607-.428.617-.497.617-.2 0-.29-.129-.349-.239-.08-.16-.14-.438-.269-1.076-.08-.348-.18-.856-.926-1.145.697-.18 1.315-.628 1.315-1.235 0-.697-.887-1.345-2.092-1.345h-2.391v.25c.667 0 .717.059.717.467v3.686c0 .408-.05.468-.717.468v.249l1.056-.03 1.066.03v-.249c-.668 0-.717-.06-.717-.468v-1.733h.896c.25 0 .508.01.817.318.21.22.21.459.21.897 0 .558 0 .737.318 1.046.18.179.578.328 1.026.328.637 0 .787-.617.787-.816zm-1.833-3.098c0 .388-.05 1.105-1.345 1.105h-.876v-1.773c0-.249.02-.348.119-.398.07-.03.339-.03.518-.03.737 0 1.584.03 1.584 1.096zm6.635 1.843h-.25c-.079.796-.178 1.683-1.573 1.683h-.628c-.348 0-.398-.03-.398-.428v-3.696c0-.498.15-.498.897-.498v-.249l-1.226.03-1.105-.03v.25c.667 0 .717.059.717.467v3.686c0 .408-.05.468-.717.468v.249h4.094l.189-1.932zm6.107-.588c0-1.375-1.026-2.6-2.46-2.6H207v.25c.668 0 .717.059.717.467v3.686c0 .408-.05.468-.717.468v.249h2.8c1.404 0 2.46-1.156 2.46-2.52zm-.827 0c0 .817-.15 1.235-.358 1.554-.16.219-.588.717-1.505.717h-.767c-.349 0-.398-.03-.398-.428v-3.766c0-.398.05-.428.398-.428h.767c.857 0 1.285.468 1.425.648.219.278.438.697.438 1.703zm3.448-4.104c0-.329-.27-.508-.529-.508s-.527.18-.527.508l.388 4.532c.01.15.02.23.14.23.1 0 .13-.05.14-.22l.388-4.542zm0 6.096a.531.531 0 0 0-.529-.528.531.531 0 0 0-.527.528c0 .289.239.528.527.528.29 0 .529-.239.529-.528z" fill="#bfbfbf"/><path d="M12.79-43.437v-.16c-.647-.07-.776-.139-.776-.418 0-.08.01-.16.03-.239l1.314-4.791c.17-.578.25-.638.817-.737v-.16h-2.46v.16c.578.07.697.149.697.428 0 .15-.04.349-.11.618l-.458 1.633H9.005l.538-1.942c.15-.508.409-.697 1.006-.737v-.16H7.83v.16c.627.06.767.139.767.428 0 .15-.03.349-.11.618l-1.225 4.402c-.18.578-.249.638-.807.738v.159h2.45v-.16c-.597-.08-.707-.149-.707-.438 0-.07.01-.15.03-.219l.658-2.43h2.839l-.648 2.35c-.16.519-.358.668-1.006.738v.159h2.72zm4.624-.966l-.12-.12c-.717.588-1.026.747-1.464.747-.558 0-.927-.358-.927-.906 0-.15.02-.29.1-.608l.279-.04c1.494-.209 2.55-.966 2.55-1.823 0-.418-.299-.677-.797-.677-1.434 0-2.998 1.634-2.998 3.138 0 .807.538 1.365 1.315 1.365.707 0 1.474-.399 2.062-1.076zm-.24-2.81c0 .31-.189.668-.498.967-.368.349-.746.528-1.603.737l.169-.438c.339-.887 1.076-1.654 1.584-1.654.21 0 .348.15.348.389zm3.378 2.64l-.13-.09c-.09.11-.179.23-.259.34-.328.418-.508.567-.687.567-.1 0-.15-.06-.15-.18 0-.099.05-.298.1-.487l1.504-5.768-.05-.05c-.587.13-.965.2-1.553.27v.159h.169c.309 0 .508.09.508.23 0 .029-.01.098-.04.178l-1.364 5.26a.87.87 0 0 0-.04.259c0 .368.17.558.488.558.518 0 .857-.29 1.504-1.246zm2.77 0l-.13-.09c-.09.11-.18.23-.259.34-.329.418-.508.567-.687.567-.1 0-.15-.06-.15-.18 0-.099.05-.298.1-.487l1.504-5.768-.05-.05c-.588.13-.966.2-1.554.27v.159h.17c.308 0 .508.09.508.23 0 .029-.01.098-.04.178l-1.365 5.26a.87.87 0 0 0-.04.259c0 .368.17.558.488.558.518 0 .857-.29 1.505-1.246zm5.03-1.862c0-.827-.578-1.395-1.424-1.395-.409 0-.787.1-1.176.309-1.046.558-1.793 1.723-1.793 2.799 0 .867.558 1.395 1.465 1.395.657 0 1.294-.29 1.872-.867.658-.648 1.056-1.484 1.056-2.241zm-.837-.25c0 .718-.308 1.684-.736 2.331-.38.549-.768.817-1.206.817-.468 0-.777-.358-.777-.906 0-.717.28-1.574.737-2.271.399-.598.837-.907 1.275-.907.429 0 .707.369.707.936zM40.183-49.782v-.16h-1.842v.16c.547.05.647.12.647.398 0 .17-.07.399-.21.668l-1.862 3.665-.398-4.004-.01-.14c0-.408.149-.538.677-.587v-.16h-2.37v.16c.577.02.677.09.746.577l.09.688-1.714 3.466-.438-4.044-.01-.14c0-.388.12-.478.728-.547v-.16h-2.351v.16c.318.04.408.07.508.149.12.12.16.29.279 1.225l.617 5.15h.19l2.21-4.522h.05l.499 4.522h.199l3.018-5.807c.27-.508.369-.598.747-.717zM44.137-46.166c.03-.927-.697-1.624-1.673-1.624-.568 0-1.166.229-1.714.657-.767.608-1.215 1.445-1.185 2.242.02.926.697 1.574 1.623 1.574 1.495 0 2.91-1.375 2.949-2.85zm-.817-.409c.02.678-.279 1.604-.707 2.212-.379.528-.807.787-1.315.787-.578 0-.906-.38-.926-1.076-.01-.588.299-1.524.697-2.092.379-.538.807-.797 1.335-.797.558 0 .896.378.916.966zm5.32 3.138v-.14c-.309-.02-.448-.13-.587-.458l-.698-1.564c.538-.11.767-.209 1.016-.408a.884.884 0 0 0 .349-.747c-.01-.618-.548-.956-1.534-.956h-1.773v.149c.289.03.328.04.408.08.04.03.08.11.08.169.01.08-.02.23-.07.408l-.797 2.86c-.12.368-.15.408-.548.468v.139h1.764l-.01-.14c-.419-.05-.459-.07-.469-.288 0-.06.01-.13.08-.369l.359-1.335.408.03.936 2.102h1.086zm-.727-3.327c.02.628-.418.946-1.285.946-.12 0-.18 0-.339-.03l.419-1.464c.04-.12.12-.16.328-.16.578 0 .867.23.877.708zm5.35 2.132l-.18-.05c-.239.478-.418.677-.726.817-.24.12-.529.159-1.166.159-.508 0-.677-.04-.687-.21 0-.049.03-.179.06-.318l.806-2.869c.09-.318.27-.438.688-.458l-.01-.15h-1.963v.15c.438.03.538.08.538.259.01.09-.01.22-.06.398l-.806 2.86c-.11.358-.15.398-.548.468l.01.139h3.645l.399-1.195zm5.13-1.315c-.03-1.076-.876-1.763-2.161-1.763H54.24v.149c.438.03.538.08.538.239 0 .1-.02.26-.06.418l-.807 2.86c-.11.358-.15.398-.548.468l.01.139h1.813c.817 0 1.564-.2 2.102-.548.707-.448 1.125-1.185 1.105-1.962zm-.856-.15c.02.697-.26 1.415-.727 1.853-.409.379-.977.568-1.704.568-.309 0-.438-.06-.438-.22 0-.079.03-.209.14-.607l.786-2.799c.04-.13.13-.17.399-.17.388 0 .737.08.966.22.358.23.558.637.578 1.155zm4.125-3.476c0-.339-.14-.508-.4-.508-.367 0-.557.329-.696 1.155-.23 1.415-.309 1.793-.718 3.686l.17.04c.558-1.524.817-2.172 1.265-3.148.289-.627.379-.926.379-1.225zm-1.564 5.728a.549.549 0 0 0-.538-.538c-.28 0-.518.239-.518.518 0 .308.209.538.508.538.299 0 .548-.24.548-.518zM84-43.616c0-.13-.07-.13-.27-.13-.577 0-.577-.08-.577-.17 0 0 0-.079.04-.228l1.344-5.39c.08-.318.16-.398.787-.398.21 0 .299 0 .299-.18 0-.108-.07-.128-.14-.128-.378 0-.786.03-1.175.03-.398 0-.807-.03-1.195-.03-.06 0-.19 0-.19.189 0 .12.08.12.27.12.308 0 .577 0 .577.169 0 .03 0 .05-.04.189l-.607 2.44h-2.73l.598-2.4c.08-.319.16-.399.787-.399.21 0 .299 0 .299-.18 0-.108-.07-.128-.14-.128-.378 0-.787.03-1.175.03-.398 0-.807-.03-1.195-.03-.06 0-.19 0-.19.189 0 .12.08.12.27.12.308 0 .577 0 .577.169 0 .03 0 .05-.04.189l-1.345 5.409c-.08.339-.139.418-.816.418-.16 0-.27 0-.27.19 0 .119.11.119.14.119.379 0 .787-.03 1.176-.03.398 0 .806.03 1.195.03.07 0 .19 0 .19-.18 0-.129-.07-.129-.27-.129-.578 0-.578-.08-.578-.17 0-.04 0-.059.04-.199l.668-2.709h2.729l-.657 2.66c-.08.339-.14.418-.817.418-.16 0-.27 0-.27.19 0 .119.11.119.14.119.379 0 .787-.03 1.176-.03.398 0 .807.03 1.195.03.07 0 .19 0 .19-.18zm5.2-.857c0-.05-.08-.16-.16-.16-.04 0-.049.01-.129.11-.737.937-1.623.976-1.793.976-.647 0-.757-.707-.757-1.095 0-.379.1-.827.17-1.096h.388c.299 0 .966-.03 1.444-.22.787-.318.787-.966.787-1.035 0-.458-.368-.847-1.006-.847-1.046 0-2.47 1.006-2.47 2.77 0 .896.478 1.743 1.424 1.743 1.275 0 2.102-.997 2.102-1.146zm-.428-2.54c0 1.056-1.644 1.056-1.973 1.056h-.209c.429-1.634 1.454-1.664 1.554-1.664.399 0 .628.27.628.608zm3.138 2.152c0-.1-.08-.1-.15-.1-.05 0-.11 0-.139.05l-.07.249c-.169.697-.358 1.115-.637 1.115-.259 0-.259-.268-.259-.408 0-.07 0-.22.06-.458l1.424-5.688c.01-.03.03-.13.03-.13 0-.09-.06-.12-.14-.12-.03 0-.129.01-.159.02l-.986.08c-.12.01-.229.02-.229.21 0 .11.1.11.24.11.477 0 .497.069.497.169 0 .03-.03.169-.03.169l-1.245 4.98c-.01.04-.06.24-.06.39 0 .527.359.896.837.896.378 0 .578-.27.707-.518.17-.35.309-.987.309-1.016zM95.21-44.861c0-.1-.08-.1-.15-.1-.05 0-.11 0-.14.05l-.069.249c-.17.697-.359 1.115-.637 1.115-.26 0-.26-.268-.26-.408 0-.07 0-.22.06-.458l1.425-5.688c.01-.03.03-.13.03-.13 0-.09-.06-.12-.14-.12-.03 0-.13.01-.16.02l-.985.08c-.12.01-.23.02-.23.21 0 .11.1.11.24.11.478 0 .498.069.498.169 0 .03-.03.169-.03.169l-1.245 4.98c-.01.04-.06.24-.06.39 0 .527.359.896.837.896.378 0 .577-.27.707-.518.17-.35.309-.987.309-1.016zm4.831-1.345c0-.947-.588-1.634-1.454-1.634-1.236 0-2.52 1.415-2.52 2.869 0 1.026.627 1.644 1.454 1.644 1.235 0 2.52-1.415 2.52-2.88zm-.697-.389c0 .429-.22 1.455-.538 2.052-.289.548-.797.996-1.285.996-.389 0-.757-.308-.757-1.026 0-.498.259-1.603.578-2.141.368-.608.846-.907 1.235-.907.488 0 .767.439.767 1.026zM114.324-49.932v-.308c-.298.02-.607.03-.906.03l-1.185-.03v.308c.537.01.846.24.846.528 0 .05 0 .07-.05.2l-1.593 4.661-1.704-4.94c-.01-.04-.04-.11-.04-.15 0-.299.568-.299.837-.299v-.308c-.358.03-1.046.03-1.424.03l-1.206-.03v.308c.588 0 .718.03.827.21.06.099.279.757.279.796 0 0 0 .03-.03.12l-1.464 4.263-1.683-4.91c-.05-.13-.05-.15-.05-.18 0-.299.557-.299.836-.299v-.308c-.348.03-1.046.03-1.424.03l-1.215-.03v.308c.597 0 .787 0 .916.389l2.102 6.136c.04.11.06.19.2.19.129 0 .159-.09.198-.2l1.753-5.13 1.764 5.13c.04.11.07.2.199.2.13 0 .15-.06.2-.2l2.001-5.818c.09-.259.26-.687 1.016-.697zM120.21-45.977c0-1.484-1.185-2.72-2.66-2.72-1.484 0-2.66 1.236-2.66 2.72a2.663 2.663 0 0 0 2.66 2.68 2.663 2.663 0 0 0 2.66-2.68zm-.857-.11c0 1.963-1.095 2.53-1.802 2.53-.708 0-1.804-.567-1.804-2.53 0-1.873 1.136-2.36 1.803-2.36.678 0 1.803.497 1.803 2.36zm7.273 1.972c0-.05 0-.149-.13-.149-.11 0-.119.09-.119.13-.07.607-.428.617-.498.617-.2 0-.29-.13-.349-.239-.08-.16-.14-.438-.269-1.076-.08-.348-.179-.856-.926-1.145.697-.18 1.315-.628 1.315-1.235 0-.698-.887-1.345-2.092-1.345h-2.391v.25c.668 0 .717.059.717.467v3.686c0 .408-.05.468-.717.468v.249l1.056-.03 1.066.03v-.25c-.668 0-.717-.059-.717-.467v-1.733h.896c.25 0 .508.01.817.318.21.22.21.459.21.897 0 .557 0 .737.318 1.046.18.179.578.328 1.026.328.637 0 .787-.617.787-.817zm-1.833-3.097c0 .388-.05 1.105-1.345 1.105h-.876v-1.773c0-.249.02-.348.119-.398.07-.03.339-.03.518-.03.737 0 1.584.03 1.584 1.096zm6.635 1.842h-.25c-.079.797-.178 1.684-1.573 1.684h-.627c-.35 0-.399-.03-.399-.429v-3.695c0-.498.15-.498.897-.498v-.249l-1.226.03-1.105-.03v.25c.667 0 .717.059.717.467v3.686c0 .408-.05.468-.717.468v.249h4.094l.189-1.933zm6.107-.587c0-1.375-1.026-2.6-2.46-2.6h-2.8v.25c.668 0 .717.059.717.467v3.686c0 .408-.05.468-.717.468v.249h2.8c1.404 0 2.46-1.156 2.46-2.52zm-.827 0c0 .817-.15 1.235-.358 1.554-.16.219-.588.717-1.505.717h-.767c-.348 0-.398-.03-.398-.429v-3.765c0-.398.05-.428.398-.428h.767c.857 0 1.285.468 1.425.648.219.278.438.697.438 1.703zm3.448-4.104c0-.329-.27-.508-.529-.508s-.527.18-.527.508l.388 4.532c.01.15.02.23.14.23.1 0 .13-.05.14-.22l.388-4.542zm0 6.096c0-.289-.24-.528-.529-.528a.531.531 0 0 0-.527.528c0 .289.239.528.528.528.289 0 .528-.24.528-.528zM159.94-43.437l1.474-6.913h-.887l-.647 3.018h-3.397l.647-3.018h-.886l-1.475 6.913h.887l.697-3.287h3.397l-.697 3.287h.886zm5.539-2.182c.07-.338.219-1.085-.05-1.683-.27-.618-.857-.727-1.215-.727-1.106 0-2.232 1.056-2.5 2.34-.28 1.316.458 2.362 1.653 2.362.627 0 1.245-.24 1.693-.518l.08-.648c-.747.518-1.404.558-1.634.558-.797 0-1.285-.707-1.105-1.684h3.078zm-.459-.547h-2.46c.319-.758.956-1.255 1.524-1.255.518 0 1.006.338.936 1.255zm1.844 2.729l1.474-6.913h-.747l-1.474 6.913h.747zm2.38 0l1.475-6.913h-.747l-1.474 6.913h.747zm5.968-2.192c.279-1.334-.488-2.4-1.673-2.4-1.226 0-2.421 1.096-2.7 2.4-.279 1.315.528 2.302 1.693 2.302 1.195 0 2.4-1.007 2.68-2.302zm-.757-.099c-.25 1.175-1.056 1.763-1.793 1.763-.688 0-1.285-.558-1.026-1.763.259-1.205 1.116-1.693 1.763-1.693.697 0 1.305.517 1.056 1.693z"/><path d="M189.05-49.932v-.308c-.3.02-.608.03-.907.03l-1.185-.03v.308c.537.01.846.24.846.528 0 .05 0 .07-.05.2l-1.593 4.661-1.704-4.94c-.01-.04-.04-.11-.04-.15 0-.299.568-.299.837-.299v-.308c-.358.03-1.046.03-1.424.03l-1.206-.03v.308c.588 0 .718.03.827.21.06.099.28.757.28.796 0 0 0 .03-.03.12l-1.465 4.263-1.683-4.91c-.05-.13-.05-.15-.05-.18 0-.299.557-.299.836-.299v-.308c-.348.03-1.046.03-1.424.03l-1.215-.03v.308c.597 0 .787 0 .916.389l2.102 6.136c.04.11.06.19.2.19.129 0 .159-.09.198-.2l1.753-5.13 1.764 5.13c.04.11.07.2.199.2.13 0 .15-.06.2-.2l2.001-5.818c.09-.259.26-.687 1.016-.697zM194.935-45.977c0-1.484-1.185-2.72-2.66-2.72-1.484 0-2.66 1.236-2.66 2.72a2.663 2.663 0 0 0 2.66 2.68 2.663 2.663 0 0 0 2.66-2.68zm-.857-.11c0 1.963-1.095 2.53-1.803 2.53-.707 0-1.803-.567-1.803-2.53 0-1.873 1.136-2.36 1.803-2.36.678 0 1.803.497 1.803 2.36zm7.273 1.972c0-.05 0-.149-.13-.149-.11 0-.12.09-.12.13-.07.607-.428.617-.497.617-.2 0-.29-.13-.349-.239-.08-.16-.14-.438-.269-1.076-.08-.348-.18-.856-.926-1.145.697-.18 1.315-.628 1.315-1.235 0-.698-.887-1.345-2.092-1.345h-2.391v.25c.667 0 .717.059.717.467v3.686c0 .408-.05.468-.717.468v.249l1.056-.03 1.066.03v-.25c-.668 0-.717-.059-.717-.467v-1.733h.896c.25 0 .508.01.817.318.21.22.21.459.21.897 0 .557 0 .737.318 1.046.18.179.578.328 1.026.328.637 0 .787-.617.787-.817zm-1.833-3.097c0 .388-.05 1.105-1.345 1.105h-.876v-1.773c0-.249.02-.348.119-.398.07-.03.339-.03.518-.03.737 0 1.584.03 1.584 1.096zm6.635 1.842h-.25c-.079.797-.178 1.684-1.573 1.684h-.628c-.348 0-.398-.03-.398-.429v-3.695c0-.498.15-.498.897-.498v-.249l-1.226.03-1.105-.03v.25c.667 0 .717.059.717.467v3.686c0 .408-.05.468-.717.468v.249h4.094l.189-1.933zm6.107-.587c0-1.375-1.026-2.6-2.46-2.6H207v.25c.668 0 .717.059.717.467v3.686c0 .408-.05.468-.717.468v.249h2.8c1.404 0 2.46-1.156 2.46-2.52zm-.827 0c0 .817-.15 1.235-.358 1.554-.16.219-.588.717-1.505.717h-.767c-.349 0-.398-.03-.398-.429v-3.765c0-.398.05-.428.398-.428h.767c.857 0 1.285.468 1.425.648.219.278.438.697.438 1.703zm3.448-4.104c0-.329-.27-.508-.529-.508s-.527.18-.527.508l.388 4.532c.01.15.02.23.14.23.1 0 .13-.05.14-.22l.388-4.542zm0 6.096a.531.531 0 0 0-.529-.528.531.531 0 0 0-.527.528c0 .289.239.528.527.528.29 0 .529-.24.529-.528z" fill="#bfbfbf"/><path d="M11.546-31.482v-.249c-.718-.09-.877-.22-.877-.707v-4.821c0-.499.2-.658.877-.708v-.249H8.159v.25c.697.049.896.208.896.707v2.061h-2.4v-2.061c0-.499.199-.658.896-.708v-.249H4.194v.25c.668.059.847.208.847.707v4.82c0 .489-.15.618-.847.708v.249h3.357v-.249c-.727-.08-.896-.22-.896-.707v-2.291h2.4v2.29c0 .489-.17.628-.896.708v.249h3.387zm4.433-1.106l-.239-.139c-.408.488-.707.667-1.135.667a.966.966 0 0 1-.877-.508c-.189-.319-.269-.657-.309-1.355h2.51c-.06-.826-.209-1.285-.518-1.673-.318-.388-.786-.598-1.344-.598-1.246 0-2.082.986-2.082 2.44 0 1.455.817 2.411 2.052 2.411.807 0 1.295-.308 1.942-1.245zm-1.275-1.703H13.37c.03-1.195.209-1.594.697-1.594.288 0 .468.16.548.468.05.19.07.468.09.977v.149zm3.995 2.809v-.239c-.329-.01-.488-.2-.488-.598v-5.897H16.32v.24c.348.03.508.208.508.577v5.08c0 .369-.17.568-.508.598v.239h2.38zm2.77 0v-.239c-.329-.01-.488-.2-.488-.598v-5.897h-1.893v.24c.349.03.508.208.508.577v5.08c0 .369-.17.568-.508.598v.239h2.38zm4.97-2.281c0-1.395-.955-2.43-2.24-2.43-1.265 0-2.252 1.045-2.252 2.4 0 1.424.947 2.45 2.252 2.45 1.285 0 2.24-1.036 2.24-2.42zm-1.463.06c0 1.534-.2 2.052-.777 2.052-.588 0-.787-.508-.787-1.963 0-1.753.179-2.27.797-2.27.577 0 .767.547.767 2.18zM38.939-37.967v-.249h-1.813v.25c.538.029.687.129.687.437 0 .13-.02.28-.07.419l-1.115 3.417-1.076-3.347c-.1-.32-.14-.469-.14-.558 0-.24.15-.329.589-.359 0 0 .07 0 .129-.01v-.249h-3.108v.25c.409.02.608.109.717.348l.349.956-1.176 3.068-1.195-3.626c-.05-.16-.07-.239-.07-.328 0-.29.12-.379.638-.419v-.249h-2.929v.25c.418.059.518.149.688.637l2.112 5.996h.278l1.853-4.751 1.703 4.751h.27l1.992-5.996c.13-.399.358-.608.687-.638zM44.447-33.763c0-1.405-1.155-2.41-2.67-2.41-1.583 0-2.729.985-2.729 2.41 0 1.424 1.136 2.41 2.7 2.41 1.564 0 2.7-.996 2.7-2.41zm-1.504.04c0 1.324-.379 2.072-1.195 2.072-.817 0-1.205-.748-1.205-2.052 0-1.395.398-2.172 1.225-2.172.786 0 1.175.817 1.175 2.152zm7.352 2.241v-.259c-.15.04-.239-.01-.299-.09l-1.464-1.872c.419-.12.598-.21.797-.379a.997.997 0 0 0 .349-.767c0-.797-.767-1.225-2.172-1.225h-2.39v.239c.497.03.567.15.567.578v2.958c0 .439-.04.518-.568.568v.249h2.52v-.249c-.527-.05-.557-.15-.557-.568v-1.305l1.544 2.122h1.673zm-2.082-3.337c0 .408-.1.667-.318.807-.17.09-.379.14-.817.15v-1.664c0-.04.02-.13.04-.17.04-.05.12-.07.248-.07.628 0 .847.29.847.947zm7.143 1.743h-.358c-.25.508-.379.787-.568.947-.299.249-.697.358-1.265.358-.379 0-.478-.09-.478-.328v-3.158c0-.448.07-.548.657-.568v-.25h-2.6v.24c.449.03.548.14.548.438v3.238c0 .299-.06.378-.548.428v.249h4.304l.308-1.594zm5.57-.747c0-1.414-1.076-2.251-2.83-2.251h-2.26v.239c.427.04.537.14.537.418v3.288c0 .259-.15.398-.538.398v.249h2.34c1.635 0 2.75-.917 2.75-2.34zm-1.475.1c0 .627-.15 1.195-.379 1.494-.229.279-.547.438-.986.438-.279 0-.328-.1-.328-.348v-3.437c0-.12.11-.19.328-.19.498 0 .827.22 1.066.648.19.349.3.837.3 1.395zm4.254 1.544a.855.855 0 0 0-.847-.857.848.848 0 0 0-.836.837c0 .478.358.846.827.846.478 0 .856-.368.856-.826zm-.01-5.17c0-.648-.308-1.016-.837-1.016-.537 0-.846.368-.846.996 0 .249.04.438.18.886.288.947.388 1.445.517 2.67h.29c.128-1.225.218-1.713.517-2.67.14-.438.18-.637.18-.866zM85.498-31.482v-.468h-1.076v-5.897h1.076v-.468c-.379.03-1.355.03-1.784.03-.428 0-1.404 0-1.782-.03v.468h1.075v2.58H79.81v-2.58h1.076v-.468c-.38.03-1.355.03-1.783.03-.429 0-1.405 0-1.784-.03v.468h1.076v5.897H77.32v.468c.379-.03 1.355-.03 1.784-.03.428 0 1.404 0 1.783.03v-.468H79.81v-2.85h3.197v2.85h-1.075v.468c.378-.03 1.354-.03 1.782-.03.429 0 1.405 0 1.784.03zm5.32-1.165c0-.18-.19-.18-.239-.18-.17 0-.19.05-.249.21-.21.478-.777.796-1.424.796-1.405 0-1.415-1.324-1.415-1.833H90.5c.22 0 .32 0 .32-.269 0-.308-.06-1.036-.559-1.533-.368-.36-.896-.538-1.584-.538-1.593 0-2.46 1.025-2.46 2.27 0 1.335.996 2.302 2.6 2.302 1.574 0 2.002-1.056 2.002-1.225zm-.946-1.335h-2.38c.02-.389.03-.807.238-1.136.26-.398.658-.518.946-.518 1.166 0 1.186 1.305 1.196 1.654zm4.194 2.5v-.468h-.687v-6.445l-1.763.08v.468c.617 0 .687 0 .687.388v5.509h-.687v.468l1.225-.03 1.225.03zm3.178 0v-.468h-.687v-6.445l-1.763.08v.468c.617 0 .687 0 .687.388v5.509h-.687v.468l1.225-.03 1.225.03zm5.659-2.172c0-1.334-.917-2.34-2.54-2.34-1.634 0-2.54 1.016-2.54 2.34 0 1.236.876 2.232 2.54 2.232 1.673 0 2.54-1.006 2.54-2.232zm-1.275-.11c0 .868 0 1.943-1.266 1.943-1.265 0-1.265-1.075-1.265-1.942 0-.448 0-.956.17-1.295.19-.369.607-.578 1.095-.578.419 0 .837.16 1.056.508.21.339.21.887.21 1.365z"/><path d="M118.644-37.847v-.468c-.269.01-.618.03-1.066.03-.378 0-.996 0-1.355-.03v.468c.25 0 .728 0 1.016.11l-1.713 4.452-1.763-4.562h.956v-.468c-.378.03-1.315.03-1.743.03-.389 0-1.175 0-1.524-.03v.468h.856l.409 1.056-1.355 3.506-1.763-4.562h.956v-.468c-.378.03-1.314.03-1.743.03-.388 0-1.175 0-1.524-.03v.468h.857l2.39 6.186c.06.159.1.259.349.259.25 0 .29-.1.349-.26l1.733-4.482 1.733 4.483c.06.159.1.259.349.259.249 0 .289-.1.349-.26l2.3-5.946c.06-.17.07-.19.38-.22.198-.02.408-.02.567-.02zM123.335-33.654c0-1.334-.916-2.34-2.54-2.34-1.633 0-2.54 1.016-2.54 2.34 0 1.236.877 2.232 2.54 2.232 1.674 0 2.54-1.006 2.54-2.232zm-1.275-.11c0 .868 0 1.943-1.265 1.943s-1.265-1.075-1.265-1.942c0-.448 0-.956.17-1.295.189-.369.607-.578 1.095-.578.419 0 .837.16 1.056.508.21.339.21.887.21 1.365zm6.008-1.384c0-.528-.538-.816-1.056-.816-.698 0-1.096.498-1.325 1.125v-1.125l-1.654.08v.467c.618 0 .688 0 .688.389v3.078h-.688v.468l1.256-.03c.378 0 1.016 0 1.374.03v-.468h-.867v-1.743c0-.698.25-1.913 1.246-1.913 0 0-.19.17-.19.458 0 .409.32.608.608.608.289 0 .608-.21.608-.608zm3.238 3.666v-.468h-.688v-6.445l-1.763.08v.468c.618 0 .688 0 .688.388v5.509h-.688v.468l1.226-.03 1.225.03zm6.246 0v-.468c-.618 0-.688 0-.688-.389v-6.056l-1.763.08v.468c.618 0 .688 0 .688.388v1.943a2.14 2.14 0 0 0-1.345-.448c-1.454 0-2.5.876-2.5 2.28 0 1.315.916 2.262 2.39 2.262.608 0 1.086-.24 1.395-.488v.488l1.823-.06zm-1.823-1.026c-.13.18-.538.727-1.295.727-1.215 0-1.215-1.205-1.215-1.903 0-.478 0-1.015.259-1.404.289-.418.757-.518 1.066-.518.567 0 .966.319 1.185.608v2.49zm4.732-5.29c0-.388-.358-.707-.787-.707-.428 0-.787.32-.787.708 0 .06 0 .08.02.179l.518 3.626c.03.239.04.259.25.259.189 0 .219-.02.248-.22l.518-3.715.02-.13zm-.01 5.54a.778.778 0 0 0-1.553 0 .778.778 0 0 0 1.554 0z" fill="#bfbfbf"/><path d="M162.903-31.96v-5.957c0-.319-.07-.478-.478-.478h-.508c-.379 0-.479.13-.479.478v2.371h-3.157v-2.371c0-.319-.07-.478-.478-.478h-.508c-.36 0-.478.11-.478.478v5.957c0 .358.109.478.478.478h.508c.378 0 .478-.13.478-.478v-2.65h3.157v2.65c0 .319.07.478.479.478h.508c.378 0 .478-.13.478-.478zm5.689-2.112c0-1.285-.598-2.142-2.082-2.142-1.594 0-2.381.897-2.381 2.411 0 1.634.946 2.43 2.51 2.43a3.5 3.5 0 0 0 1.604-.378c.22-.11.289-.14.289-.259 0-.07-.03-.359-.04-.438-.04-.309-.05-.319-.14-.319-.04 0-.06 0-.169.1a2.276 2.276 0 0 1-1.504.578c-1.126 0-1.245-.887-1.275-1.525h2.71c.229 0 .478-.01.478-.458zm-1.106-.07h-2.072c.03-.607.23-1.354 1.096-1.354.797 0 .946.577.976 1.354zm3.358 2.182v-5.957c0-.319-.07-.478-.478-.478h-.37c-.358 0-.477.11-.477.478v5.957c0 .358.11.478.478.478h.368c.379 0 .479-.13.479-.478zm2.55 0v-5.957c0-.319-.07-.478-.478-.478h-.369c-.358 0-.478.11-.478.478v5.957c0 .358.11.478.478.478h.369c.378 0 .478-.13.478-.478zm5.778-1.763c0-1.634-.797-2.49-2.42-2.49-1.664 0-2.431.886-2.431 2.49 0 1.624.856 2.35 2.42 2.35s2.43-.716 2.43-2.35zm-1.355-.12c0 .787 0 1.694-1.066 1.694-1.076 0-1.076-.897-1.076-1.694 0-.767 0-1.653 1.066-1.653 1.076 0 1.076.876 1.076 1.653z"/><path d="M193.249-38.106c0-.29-.27-.29-.409-.29h-.209c-.2 0-.478 0-.598.44l-1.056 3.924c-.139.508-.229.837-.318 1.275h-.01c-.05-.269-.05-.289-.29-1.166l-1.075-4.034c-.11-.388-.309-.438-.598-.438h-.657c-.21 0-.488 0-.608.438l-.876 3.268-.25.986c-.109.468-.189.787-.209.946h-.01c-.079-.518-.318-1.395-.487-2.022l-.857-3.188c-.12-.428-.409-.428-.598-.428h-.338c-.14 0-.409 0-.409.289 0 0 0 .05.04.189l1.634 6.017c.11.418.388.418.597.418h.658c.209 0 .488 0 .607-.458l1.046-3.895c.15-.538.22-.817.319-1.295h.01c.12.578.18.827.358 1.474l1.017 3.756c.11.418.388.418.587.418h.717c.21 0 .489 0 .598-.418l1.634-6.017c.04-.14.04-.189.04-.189zM198.357-33.723c0-1.634-.797-2.49-2.42-2.49-1.664 0-2.431.886-2.431 2.49 0 1.624.856 2.35 2.42 2.35s2.43-.716 2.43-2.35zm-1.355-.12c0 .787 0 1.694-1.066 1.694-1.076 0-1.076-.897-1.076-1.694 0-.767 0-1.653 1.066-1.653 1.076 0 1.076.876 1.076 1.653zM201.91-35.417v-.468c0-.2 0-.269-.179-.269-.278 0-1.006.1-1.474 1.176h-.01v-.648c0-.318-.07-.478-.478-.478h-.319c-.358 0-.478.11-.478.478v3.666c0 .358.11.478.478.478h.369c.378 0 .478-.13.478-.478v-1.813c0-.946.787-1.335 1.414-1.375.18-.01.2-.01.2-.269zm2.093 3.457v-5.957c0-.319-.07-.478-.478-.478h-.369c-.358 0-.478.11-.478.478v5.957c0 .358.11.478.478.478h.369c.378 0 .478-.13.478-.478zm5.589 0v-5.957c0-.319-.07-.478-.479-.478h-.368c-.379 0-.478.13-.478.478v2.261a1.777 1.777 0 0 0-1.255-.498c-2.023 0-2.023 1.913-2.023 2.4 0 .46 0 2.382 1.973 2.382.418 0 .846-.12 1.275-.578 0 .368.14.468.478.468h.398c.379 0 .478-.13.478-.478zm-1.355-.767c0 .17 0 .259-.289.458-.249.16-.478.18-.598.18-1.006 0-1.006-.917-1.006-1.664 0-.747 0-1.684 1.116-1.684.289 0 .558.1.777.31v2.4zm4.453-5.459c0-.21-.05-.21-.269-.21h-.767c-.219 0-.269 0-.269.21 0 .887.06 1.793.08 2.68 0 .239.04 1.922.06 1.972.03.1.09.1.269.1h.488c.259 0 .269-.01.279-.28l.07-2.23c.01-.738.06-1.505.06-2.242zm0 6.226v-.349c0-.319-.07-.478-.478-.478h-.349c-.378 0-.478.13-.478.478v.349c0 .358.11.478.478.478h.35c.377 0 .477-.13.477-.478z" fill="#bfbfbf"/><path d="M11.565-19.527v-.25c-.547-.02-.727-.118-.727-.408 0-.149.04-.348.19-.866l.06-.22 1.085-3.954c.16-.528.299-.647.807-.717v-.25h-2.968v.25l.318.05c.31.04.409.12.409.318 0 .12-.05.419-.1.608l-.468 1.723h-2.38l.537-1.982c.16-.548.359-.697 1.006-.717v-.25H6.177v.25l.308.05c.32.04.419.13.419.348 0 .12-.03.3-.11.578L5.58-20.493c-.16.518-.299.647-.797.717v.249H7.73v-.25c-.637-.049-.727-.109-.727-.428 0-.149.03-.328.13-.637l.04-.16.498-1.802h2.38l-.637 2.31c-.14.539-.339.678-1.006.718v.249h3.157zm4.653-1.245l-.288-.17c-.459.688-.748.907-1.176.907-.418 0-.637-.279-.637-.817 0-.16.02-.289.06-.488 1.036-.2 1.524-.418 2.021-.876.35-.32.538-.688.538-1.046 0-.508-.438-.867-1.045-.867-1.445 0-2.87 1.624-2.87 3.267 0 .847.638 1.464 1.505 1.464.767 0 1.295-.388 1.892-1.374zm-.398-2.69c0 .439-.17.867-.488 1.196-.27.289-.518.428-1.086.607.359-1.384.817-2.141 1.295-2.141.19 0 .279.11.279.338zm3.746 2.67l-.22-.14c-.398.588-.597.797-.776.797-.08 0-.15-.07-.15-.15 0-.139.07-.457.22-.995l1.444-5.21c-.857.16-1.335.23-2.082.299v.269c.11-.01.16-.01.21-.01.268 0 .418.1.418.279 0 .15-.13.687-.33 1.414l-.746 2.63c-.21.747-.339 1.345-.339 1.574 0 .359.269.598.677.598.608 0 .987-.31 1.674-1.355zm2.77 0l-.22-.14c-.398.588-.597.797-.777.797-.08 0-.149-.07-.149-.15 0-.139.07-.457.22-.995l1.444-5.21c-.857.16-1.335.23-2.082.299v.269c.11-.01.159-.01.209-.01.269 0 .418.1.418.279 0 .15-.13.687-.329 1.414l-.747 2.63c-.209.747-.338 1.345-.338 1.574 0 .359.268.598.677.598.608 0 .986-.31 1.673-1.355zm4.791-1.833c0-.876-.647-1.504-1.564-1.504-1.474 0-2.859 1.584-2.859 3.257 0 .847.668 1.474 1.584 1.474 1.484 0 2.84-1.543 2.84-3.227zm-1.803 2.002c-.289.638-.588.937-.946.937-.3 0-.488-.23-.488-.618 0-.757.348-2.161.687-2.79.27-.497.568-.746.897-.746.288 0 .468.219.468.578 0 .667-.289 1.922-.618 2.64zM39.566-25.952v-.24h-1.862v.25c.558.04.627.09.627.448 0 .12-.02.2-.149.459l-1.554 3.257-.329-2.939c-.06-.528-.06-.528-.06-.647 0-.439.1-.528.628-.578v-.25h-2.68v.24c.598.08.698.22.708 1.076l-1.494 3.098-.389-3.477c-.01-.05-.01-.1-.01-.16 0-.358.14-.467.608-.527v-.25h-2.76v.24c.638.11.668.13.767.837l.778 5.767h.288l2.321-4.87.588 4.87h.289l2.849-5.877c.279-.548.418-.667.837-.727zM43.83-22.565c-.03-.907-.837-1.564-1.883-1.564-.538 0-1.066.16-1.564.488-.896.578-1.524 1.664-1.494 2.61.03.986.777 1.624 1.843 1.624.568 0 1.126-.16 1.604-.488.916-.598 1.514-1.674 1.494-2.67zm-1.235-.508c.02.767-.379 2.052-.827 2.7-.299.428-.608.637-.976.637-.419 0-.658-.29-.668-.737-.02-.648.3-1.803.658-2.43.338-.608.687-.897 1.155-.897.389 0 .648.299.658.727zm6.226 3.546v-.26c-.438-.029-.488-.069-.657-.437l-.618-1.574c.349-.07.528-.13.737-.259.389-.24.608-.598.598-.976-.02-.668-.608-.987-1.823-.987h-2.022l.01.26c.03 0 .14.02.239.03.17.02.229.06.229.169 0 .07-.03.269-.06.388l-.807 2.949c-.1.309-.179.408-.508.438l.01.259h2.192l-.01-.26c-.369-.029-.458-.069-.458-.228-.01-.09.03-.26.08-.458l.378-1.315.866 2.261h1.624zm-1.215-3.616c.01.418-.16.807-.468.986-.16.09-.389.13-.747.14l.378-1.455c.05-.18.09-.239.259-.239.369 0 .568.22.578.568zm6.286 2.251l-.299-.06c-.239.37-.348.538-.597.728-.389.249-.887.388-1.495.388-.258 0-.368-.04-.378-.15 0-.05.01-.129.03-.199l.856-3.147c.09-.32.21-.409.648-.428v-.26h-2.341v.26c.07 0 .16.02.249.03.17.02.22.07.22.169 0 .07-.03.269-.06.388l-.808 2.949c-.099.309-.179.408-.507.438l.01.259h4.054l.418-1.365zm5.34-1.285c-.03-1.165-.896-1.843-2.311-1.843h-2.122l.01.26.23.03c.178.02.238.079.238.199 0 .06-.02.169-.08.378l-.796 2.929c-.09.299-.18.408-.498.438l.01.259h2.092c1.892 0 3.277-1.116 3.227-2.65zm-1.245-.398c.02.717-.19 1.484-.548 1.982-.369.498-.847.747-1.514.747-.21 0-.3-.06-.3-.18-.009-.079.01-.169.07-.348l.01-.02.837-3.117c.04-.15.12-.21.31-.21.756 0 1.115.389 1.135 1.146zm5.31-3.038c0-.439-.279-.727-.687-.727-.31 0-.549.169-.688.458-.08.18-.1.289-.12.717-.05.797-.228 1.962-.527 3.526l.289.08a32.4 32.4 0 0 1 1.424-3.168c.26-.468.309-.618.309-.886zm-1.564 5.508c0-.398-.349-.747-.727-.747a.73.73 0 0 0-.727.747c0 .409.298.707.717.707.408 0 .737-.308.737-.707zM86.464-26.181c0-.13-.11-.18-.22-.18-.487 0-.995.03-1.493.03-.508 0-1.036-.03-1.534-.03-.1 0-.289 0-.289.29 0 .179.17.179.319.179h.219c.11 0 .368.01.488.02l-.638 2.56h-2.859l.588-2.39c.04-.15.05-.16.24-.18l.617-.01c.17 0 .338 0 .338-.29 0-.128-.109-.178-.219-.178-.488 0-.996.03-1.494.03-.508 0-1.036-.03-1.534-.03-.1 0-.289 0-.289.289 0 .179.17.179.319.179h.22c.109 0 .368.01.487.02l-1.424 5.697c-.04.14-.05.15-.23.16-.119.01-.278.02-.398.02h-.219c-.17 0-.349 0-.349.289 0 .13.11.179.22.179.488 0 1.006-.03 1.504-.03.508 0 1.036.03 1.534.03.09 0 .279 0 .279-.289 0-.18-.17-.18-.309-.18h-.22c-.099 0-.428-.02-.487-.02l.707-2.828h2.859l-.667 2.67c-.04.139-.05.149-.23.159-.12.01-.279.02-.398.02h-.22c-.169 0-.348 0-.348.289 0 .13.11.179.22.179.487 0 1.005-.03 1.503-.03.508 0 1.036.03 1.534.03.09 0 .28 0 .28-.289 0-.18-.17-.18-.31-.18h-.219c-.1 0-.428-.02-.488-.02l1.415-5.687c.04-.15.05-.16.239-.18l.617-.01c.17 0 .34 0 .34-.288zm4.275 5.797c0-.08-.2-.318-.3-.318-.029 0-.069 0-.139.07-.737.826-1.743.826-1.882.826-.558 0-.847-.329-.847-.916 0-.25.07-.638.16-.977h.398c.598 0 2.57 0 2.57-1.374 0-.598-.558-.957-1.295-.957-1.723 0-2.909 1.305-2.909 2.84 0 1.075.668 1.743 1.913 1.743.309 0 .896-.03 1.404-.22.538-.209.927-.597.927-.717zm-.688-2.7c0 1.027-1.623 1.027-2.23 1.027.139-.498.238-.797.527-1.116.279-.338.717-.498 1.056-.498.418 0 .647.269.647.588zM93.997-21c0-.14-.13-.14-.28-.14-.238 0-.248.01-.318.26-.08.328-.259 1.075-.598 1.075-.12 0-.189-.08-.189-.309 0-.189.02-.269.06-.428l1.394-5.558c.01-.05.03-.11.03-.16 0-.19-.179-.18-.318-.17l-1.226.06c-.11.01-.308.01-.308.3 0 .179.179.179.268.179.12 0 .3.01.419.02l-1.285 5.17c-.04.16-.04.229-.04.288 0 .638.598.967 1.155.967.469 0 .718-.34.847-.538.26-.419.389-.976.389-1.016zM97.827-21.001c0-.14-.13-.14-.28-.14-.239 0-.248.01-.318.26-.08.328-.259 1.075-.598 1.075-.12 0-.19-.08-.19-.309 0-.189.02-.269.06-.428l1.395-5.558c.01-.05.03-.11.03-.16 0-.19-.18-.18-.319-.17l-1.225.06c-.11.01-.309.01-.309.3 0 .179.18.179.27.179.119 0 .298.01.418.02l-1.285 5.17c-.04.16-.04.229-.04.288 0 .638.597.967 1.155.967.468 0 .718-.34.847-.538.26-.419.389-.976.389-1.016zm5.588-1.355c0-1.026-.707-1.674-1.892-1.674-1.973 0-2.969 1.664-2.969 2.91 0 1.025.707 1.673 1.893 1.673 1.962 0 2.968-1.654 2.968-2.91zm-1.594 1.594c-.288.627-.846.956-1.354.956-.35 0-.827-.17-.827-.877 0-.388.259-1.504.508-2.032.289-.627.847-.956 1.355-.956.348 0 .826.17.826.877 0 .388-.259 1.504-.508 2.032z"/><path d="M119.102-25.892v-.468c-.269.01-.618.03-1.066.03-.378 0-.996 0-1.355-.03v.468c.25 0 .728 0 1.016.11l-1.713 4.452-1.763-4.562h.956v-.468c-.378.03-1.315.03-1.743.03-.389 0-1.175 0-1.524-.03v.468h.856l.409 1.056-1.355 3.506-1.763-4.562h.956v-.468c-.378.03-1.314.03-1.743.03-.388 0-1.175 0-1.524-.03v.468h.857l2.39 6.186c.06.159.1.259.349.259.25 0 .29-.1.349-.26l1.733-4.482 1.733 4.483c.06.159.1.259.349.259.249 0 .289-.1.349-.26l2.3-5.946c.06-.17.07-.19.38-.22.198-.02.408-.02.567-.02zM123.793-21.699c0-1.334-.916-2.34-2.54-2.34-1.633 0-2.54 1.016-2.54 2.34 0 1.236.877 2.232 2.54 2.232 1.674 0 2.54-1.006 2.54-2.232zm-1.275-.11c0 .868 0 1.943-1.265 1.943s-1.265-1.075-1.265-1.942c0-.448 0-.957.17-1.295.189-.369.607-.578 1.095-.578.418 0 .837.16 1.056.508.21.339.21.887.21 1.365zm6.008-1.384c0-.528-.538-.817-1.056-.817-.698 0-1.096.499-1.325 1.126v-1.126l-1.654.08v.468c.618 0 .688 0 .688.389v3.078h-.688v.468l1.255-.03c.379 0 1.017 0 1.375.03v-.468h-.867v-1.743c0-.698.25-1.913 1.246-1.913 0 0-.19.17-.19.458 0 .409.319.608.608.608s.608-.21.608-.608zm3.238 3.666v-.468h-.688v-6.445l-1.763.08v.468c.618 0 .688 0 .688.388v5.509h-.688v.468l1.226-.03 1.225.03zm6.246 0v-.468c-.618 0-.688 0-.688-.389v-6.056l-1.763.08v.468c.618 0 .688 0 .688.388v1.943a2.14 2.14 0 0 0-1.345-.449c-1.454 0-2.5.877-2.5 2.281 0 1.315.916 2.262 2.39 2.262.608 0 1.086-.24 1.395-.488v.488l1.823-.06zm-1.823-1.026c-.13.18-.538.727-1.295.727-1.215 0-1.215-1.205-1.215-1.903 0-.478 0-1.016.259-1.404.289-.418.757-.518 1.065-.518.568 0 .967.319 1.186.608v2.49zm4.732-5.29c0-.388-.358-.707-.787-.707-.428 0-.787.32-.787.708 0 .06 0 .08.02.179l.518 3.626c.03.239.04.259.25.259.189 0 .219-.02.248-.22l.518-3.715.02-.13zm-.01 5.54a.778.778 0 0 0-1.553 0 .778.778 0 0 0 1.554 0z" fill="#bfbfbf"/><path d="M163.002-20.005l1.266-5.957c.07-.319.04-.478-.37-.478h-.507c-.379 0-.508.13-.588.478l-.498 2.37h-3.157l.497-2.37c.07-.319.04-.478-.368-.478h-.508c-.359 0-.508.11-.588.478l-1.265 5.957c-.07.358.01.478.379.478h.508c.378 0 .508-.13.577-.478l.568-2.65h3.158l-.568 2.65c-.07.319-.03.478.379.478h.508c.378 0 .508-.13.577-.478zm6.138-2.112c.278-1.285-.14-2.142-1.624-2.142-1.594 0-2.57.897-2.889 2.411-.349 1.634.429 2.43 1.992 2.43.379 0 .957-.05 1.684-.378.239-.11.319-.14.339-.259.02-.07.05-.359.06-.438.02-.309.01-.319-.08-.319-.04 0-.06 0-.19.1-.697.507-1.305.577-1.623.577-1.126 0-1.056-.886-.957-1.524h2.71c.229 0 .488-.01.578-.458zm-1.086-.07h-2.072c.16-.607.518-1.354 1.385-1.354.796 0 .816.577.687 1.354zm2.89 2.182l1.264-5.957c.07-.319.04-.478-.368-.478h-.369c-.358 0-.508.11-.588.478l-1.265 5.957c-.07.358.01.478.379.478h.368c.379 0 .509-.13.578-.478zm2.55 0l1.265-5.957c.07-.319.04-.478-.369-.478h-.368c-.359 0-.509.11-.588.478l-1.265 5.957c-.07.358.01.478.378.478h.369c.378 0 .508-.13.578-.478zm6.156-1.763c.348-1.634-.27-2.49-1.893-2.49-1.663 0-2.62.886-2.958 2.49-.349 1.623.358 2.35 1.922 2.35s2.58-.717 2.929-2.35zm-1.335-.12c-.16.787-.358 1.693-1.424 1.693-1.076 0-.887-.896-.718-1.693.17-.767.36-1.653 1.425-1.653 1.076 0 .886.876.717 1.653z"/><path d="M193.249-26.151c0-.29-.27-.29-.409-.29h-.209c-.2 0-.478 0-.598.44l-1.056 3.924c-.139.508-.229.837-.318 1.275h-.01c-.05-.27-.05-.29-.29-1.166l-1.075-4.034c-.11-.388-.309-.438-.598-.438h-.657c-.21 0-.488 0-.608.438l-.876 3.267-.25.987c-.109.468-.189.787-.209.946h-.01c-.079-.518-.318-1.395-.487-2.022l-.857-3.188c-.12-.428-.409-.428-.598-.428h-.338c-.14 0-.409 0-.409.289 0 0 0 .05.04.189l1.634 6.017c.11.418.388.418.597.418h.658c.209 0 .488 0 .607-.458l1.046-3.895c.15-.538.22-.817.319-1.295h.01c.12.578.18.827.358 1.474l1.017 3.756c.11.418.388.418.587.418h.717c.21 0 .489 0 .598-.418l1.634-6.017c.04-.14.04-.19.04-.19zM198.357-21.768c0-1.634-.797-2.49-2.42-2.49-1.664 0-2.431.886-2.431 2.49 0 1.623.856 2.35 2.42 2.35s2.43-.717 2.43-2.35zm-1.355-.12c0 .787 0 1.693-1.066 1.693-1.076 0-1.076-.896-1.076-1.693 0-.767 0-1.653 1.066-1.653 1.076 0 1.076.876 1.076 1.653zM201.91-23.462v-.468c0-.2 0-.269-.179-.269-.278 0-1.006.1-1.474 1.176h-.01v-.648c0-.319-.07-.478-.478-.478h-.319c-.358 0-.478.11-.478.478v3.666c0 .358.11.478.478.478h.369c.378 0 .478-.13.478-.478v-1.813c0-.947.787-1.335 1.414-1.375.18-.01.2-.01.2-.269zm2.093 3.457v-5.957c0-.319-.07-.478-.478-.478h-.369c-.358 0-.478.11-.478.478v5.957c0 .358.11.478.478.478h.369c.378 0 .478-.13.478-.478zm5.589 0v-5.957c0-.319-.07-.478-.479-.478h-.368c-.379 0-.478.13-.478.478v2.261a1.777 1.777 0 0 0-1.255-.498c-2.023 0-2.023 1.913-2.023 2.4 0 .46 0 2.382 1.973 2.382.418 0 .846-.12 1.275-.578 0 .368.14.468.478.468h.398c.379 0 .478-.13.478-.478zm-1.355-.767c0 .17 0 .259-.289.458-.249.16-.478.18-.598.18-1.006 0-1.006-.917-1.006-1.664 0-.747 0-1.684 1.116-1.684.289 0 .558.1.777.31v2.4zm4.453-5.459c0-.21-.05-.21-.269-.21h-.767c-.219 0-.269 0-.269.21 0 .886.06 1.793.08 2.68 0 .239.04 1.922.06 1.972.03.1.09.1.269.1h.488c.259 0 .269-.01.279-.28l.07-2.23c.01-.738.06-1.505.06-2.242zm0 6.226v-.349c0-.319-.07-.478-.478-.478h-.349c-.378 0-.478.13-.478.478v.349c0 .358.11.478.478.478h.35c.377 0 .477-.13.477-.478z" fill="#bfbfbf"/><path d="M18.242-10.033v-.369c0-.17-.05-.214-.214-.214H16.09c-.155 0-.22.03-.22.214v.369c0 .094 0 .214.19.214s.19-.12.19-.214v-.254h.617v2.386h-.24c-.074 0-.219 0-.219.165 0 .164.15.164.22.164h.857c.074 0 .219 0 .219-.164 0-.165-.15-.165-.22-.165h-.238v-2.386h.617v.254c0 .094 0 .214.19.214.189 0 .189-.12.189-.214zm2.48 1.923c0-.11-.084-.154-.189-.154-.085 0-.134.005-.184.114-.1.224-.344.274-.503.274-.364 0-.728-.24-.808-.633h1.47c.095 0 .215 0 .215-.189 0-.598-.34-1.061-.982-1.061-.613 0-1.096.498-1.096 1.106 0 .593.498 1.106 1.176 1.106.682 0 .902-.438.902-.563zm-.388-.723h-1.29c.074-.348.368-.597.697-.597.448 0 .563.348.593.597zm3.183 1.097c0-.165-.15-.165-.22-.165h-.099l-.692-1.295.553-1.091h.094c.075 0 .22 0 .22-.165 0-.164-.15-.164-.22-.164h-.518c-.07 0-.219 0-.219.164 0 .165.144.165.224.165l-.319.658-.348-.658c.06 0 .209 0 .209-.165 0-.164-.15-.164-.22-.164h-.518c-.074 0-.219 0-.219.164 0 .165.15.165.22.165h.1l.582 1.091-.643 1.295h-.1c-.074 0-.214 0-.214.165 0 .164.14.164.215.164h.518c.075 0 .219 0 .219-.164 0-.165-.144-.165-.224-.165l.423-.907.459.907c-.07 0-.22 0-.22.165 0 .164.15.164.22.164h.518c.075 0 .219 0 .219-.164zM28.806-8.763c0-.164-.135-.164-.214-.164h-.608c-.08 0-.215 0-.215.164 0 .165.135.165.215.165h.2c-.05.438-.25.747-.549.747-.384 0-.758-.518-.758-1.24 0-.738.384-1.246.763-1.246.164 0 .473.11.553.638.02.144.134.144.19.144.189 0 .189-.12.189-.214v-.683c0-.074 0-.214-.165-.214-.095 0-.13.035-.214.204a.908.908 0 0 0-.573-.204c-.603 0-1.12.673-1.12 1.57 0 .916.522 1.574 1.12 1.574.274 0 .473-.14.573-.23 0 .18.13.18.19.18.189 0 .189-.12.189-.214v-.812c.11 0 .234 0 .234-.165zM31.475-9.555c0-.164-.144-.164-.229-.164h-.553c-.085 0-.23 0-.23.164 0 .015.006.11.09.15.035.015.16.015.245.015l-.254.747c-.075.23-.185.558-.215.682h-.005c-.015-.07-.045-.16-.249-.697l-.289-.732c.075 0 .19 0 .224-.015.045-.015.095-.065.095-.15 0-.164-.144-.164-.23-.164h-.552c-.085 0-.23 0-.23.164 0 .025.01.125.105.155.03.01.17.01.254.01l.698 1.753c.015.04.02.065.02.065 0 .015-.13.413-.175.503-.084.17-.214.284-.398.3l.045-.095c-.005-.16-.115-.235-.234-.235-.135 0-.235.09-.235.24 0 .199.16.418.419.418.393 0 .652-.384.767-.718l.762-2.231c.085 0 .22 0 .25-.01a.152.152 0 0 0 .104-.155zm2.585.14c0-.125-.09-.33-.478-.33-.458 0-.727.265-.852.39v-.15c0-.17-.05-.214-.214-.214h-.543c-.07 0-.22 0-.22.164 0 .165.15.165.22.165h.378v1.49h-.378c-.07 0-.22 0-.22.164s.15.164.22.164h1.285c.08 0 .215 0 .215-.164 0-.165-.135-.165-.215-.165h-.528v-.583c0-.543.389-.931.872-.931.01.194.15.234.229.234.125 0 .23-.09.23-.234zm2.53 1.305c0-.11-.084-.154-.189-.154-.084 0-.134.005-.184.114-.1.224-.344.274-.503.274-.364 0-.727-.24-.807-.633h1.47c.094 0 .214 0 .214-.189 0-.598-.339-1.061-.982-1.061-.613 0-1.096.498-1.096 1.106 0 .593.498 1.106 1.176 1.106.683 0 .902-.438.902-.563zm-.388-.723h-1.29c.075-.348.368-.597.697-.597.449 0 .563.348.593.597zM42.044-10.033v-.369c0-.17-.05-.214-.214-.214h-1.938c-.155 0-.22.03-.22.214v.369c0 .094 0 .214.19.214s.189-.12.189-.214v-.254h.618v2.386h-.24c-.074 0-.219 0-.219.165 0 .164.15.164.22.164h.857c.074 0 .219 0 .219-.164 0-.165-.15-.165-.22-.165h-.239v-2.386h.618v.254c0 .094 0 .214.19.214.189 0 .189-.12.189-.214zm2.48 1.923c0-.11-.084-.154-.189-.154-.085 0-.134.005-.184.114-.1.224-.344.274-.504.274-.363 0-.727-.24-.807-.633h1.47c.095 0 .214 0 .214-.189 0-.598-.338-1.061-.981-1.061-.613 0-1.096.498-1.096 1.106 0 .593.498 1.106 1.175 1.106.683 0 .902-.438.902-.563zm-.388-.723h-1.29c.074-.348.368-.597.697-.597.448 0 .563.348.593.597zm3.148-.582c0-.125-.09-.33-.478-.33-.459 0-.727.265-.852.39v-.15c0-.17-.05-.214-.214-.214h-.543c-.07 0-.22 0-.22.164 0 .165.15.165.22.165h.378v1.49h-.378c-.07 0-.22 0-.22.164s.15.164.22.164h1.285c.08 0 .214 0 .214-.164 0-.165-.134-.165-.214-.165h-.528v-.583c0-.543.389-.931.872-.931.01.194.149.234.229.234.124 0 .23-.09.23-.234zm2.785 1.679c0-.165-.12-.165-.28-.165v-1.17c0-.115 0-.673-.448-.673a.643.643 0 0 0-.498.244c-.095-.18-.234-.244-.379-.244-.104 0-.269.03-.423.164-.03-.14-.145-.14-.22-.14h-.159c-.075 0-.214 0-.214.165s.12.165.279.165v1.49c-.16 0-.28 0-.28.164s.14.164.215.164h.439c.074 0 .214 0 .214-.164 0-.165-.12-.165-.279-.165v-.872c0-.413.214-.642.413-.642.105 0 .155.114.155.368V-7.9c-.05 0-.195 0-.195.165 0 .164.14.164.215.164h.353c.075 0 .215 0 .215-.164 0-.165-.12-.165-.28-.165v-.872c0-.413.215-.642.414-.642.105 0 .155.114.155.368V-7.9c-.05 0-.195 0-.195.165 0 .164.14.164.215.164h.353c.075 0 .215 0 .215-.164zm2.356-.464c0-.12-.04-.299-.23-.443-.199-.15-.393-.18-.742-.24-.339-.054-.643-.104-.643-.283 0-.1.12-.264.618-.264.449 0 .464.159.469.249.01.16.134.16.189.16.189 0 .189-.12.189-.215v-.309c0-.075 0-.214-.164-.214-.115 0-.14.06-.155.09-.204-.09-.403-.09-.518-.09-.847 0-.956.418-.956.593 0 .463.523.543.961.612.27.045.653.105.653.35 0 .179-.19.328-.623.328-.309 0-.508-.104-.613-.403-.025-.08-.045-.14-.189-.14-.19 0-.19.125-.19.214v.444c0 .074 0 .214.165.214.05 0 .14-.015.19-.164.253.164.532.164.632.164.847 0 .957-.468.957-.653zM87.831-7.786v-.443c0-.105 0-.215-.19-.215-.188 0-.188.11-.188.215v.328h-1.171v-2.386h.259c.075 0 .219 0 .219-.165 0-.164-.144-.164-.219-.164h-.802c-.075 0-.22 0-.22.164 0 .165.15.165.22.165h.164v2.386h-.164c-.075 0-.22 0-.22.165 0 .164.15.164.22.164h1.878c.164 0 .214-.04.214-.214zm2.8.05c0-.165-.14-.165-.21-.165-.189 0-.234-.015-.283-.035v-1.041c0-.413-.325-.782-1.007-.782-.234 0-.747 0-.747.384 0 .134.094.244.244.244.095 0 .229-.06.239-.24 0-.04.005-.044.07-.054.055-.005.14-.005.199-.005.408 0 .623.184.623.458-.533 0-1.505.125-1.505.738 0 .368.344.687.847.687.399 0 .648-.15.712-.194.105.154.315.169.554.169.134 0 .264 0 .264-.164zm-.872-.548c0 .104 0 .219-.195.314a.987.987 0 0 1-.433.094c-.294 0-.498-.174-.498-.358 0-.265.548-.414 1.126-.42v.37zm3.163.064c0-.17-.144-.17-.19-.17-.129 0-.184.05-.189.175-.01.205-.189.339-.378.339-.369 0-.369-.274-.369-.388V-9.39h.797c.075 0 .214 0 .214-.165 0-.164-.14-.164-.214-.164h-.797v-.399c0-.095 0-.214-.19-.214-.189 0-.189.124-.189.214v.399h-.413c-.075 0-.22 0-.22.164 0 .165.14.165.215.165h.418v1.136c0 .538.379.707.728.707.448 0 .777-.314.777-.673zm2.68.484c0-.165-.15-.165-.22-.165h-.503v-1.604c0-.17-.05-.214-.214-.214h-.707c-.075 0-.22 0-.22.164 0 .165.15.165.22.165h.543v1.49h-.583c-.075 0-.22 0-.22.164s.15.164.22.164h1.464c.07 0 .22 0 .22-.164zm-.703-2.606c0-.15-.12-.269-.269-.269-.149 0-.269.12-.269.269 0 .15.12.27.27.27.149 0 .268-.12.268-.27zm3.637 2.606c0-.165-.135-.165-.214-.165h-.205v-1.12c0-.5-.249-.723-.657-.723-.369 0-.608.2-.658.249 0-.15-.015-.224-.214-.224h-.369c-.08 0-.214 0-.214.164 0 .165.134.165.214.165h.205v1.49h-.205c-.08 0-.214 0-.214.164s.134.164.214.164h.787c.08 0 .214 0 .214-.164 0-.165-.134-.165-.214-.165h-.204v-.857c0-.478.384-.657.633-.657.229 0 .303.11.303.403V-7.9h-.164c-.075 0-.214 0-.214.165 0 .164.14.164.214.164h.748c.08 0 .214 0 .214-.164zM103.794-7.736c0-.165-.135-.165-.264-.165v-2.386c.129 0 .264 0 .264-.165 0-.164-.15-.164-.22-.164h-.289c-.1 0-.224 0-.284.19l-.284.881s-.134.409-.164.563h-.005c-.03-.16-.055-.239-.115-.423l-.328-1.007c-.045-.14-.085-.204-.284-.204h-.29c-.074 0-.219 0-.219.164 0 .165.135.165.264.165v2.386c-.129 0-.264 0-.264.165 0 .164.15.164.22.164h.398c.075 0 .22 0 .22-.164 0-.165-.135-.165-.264-.165v-2.312h.004c.025.125.04.18.09.33l.354 1.1c.015.04.06.195.22.195.044 0 .138-.025.188-.12.03-.065.474-1.445.479-1.495V-7.9c-.13 0-.264 0-.264.165 0 .164.15.164.219.164h.398c.075 0 .22 0 .22-.164zm2.45-.912c0-.608-.468-1.111-1.046-1.111-.578 0-1.046.503-1.046 1.11 0 .624.478 1.102 1.046 1.102.568 0 1.046-.478 1.046-1.101zm-.378-.035c0 .454-.31.807-.668.807-.359 0-.667-.353-.667-.807 0-.433.313-.747.667-.747.354 0 .668.314.668.747zm3.242.947c0-.165-.134-.165-.214-.165h-.204v-2.501c0-.17-.05-.214-.214-.214h-.369c-.08 0-.214 0-.214.164 0 .165.134.165.214.165h.204v.747a.896.896 0 0 0-.573-.204c-.553 0-1.046.468-1.046 1.1 0 .609.454 1.097 1.002 1.097.264 0 .473-.12.617-.259 0 .14 0 .234.215.234h.368c.08 0 .214 0 .214-.164zm-.797-.818c0 .285-.229.678-.603.678-.333 0-.637-.329-.637-.767 0-.444.329-.772.692-.772.294 0 .548.254.548.528v.333zm3.198.444c0-.11-.084-.154-.19-.154-.084 0-.133.005-.183.114-.1.224-.344.274-.504.274-.363 0-.727-.24-.807-.633h1.47c.095 0 .214 0 .214-.189 0-.598-.338-1.061-.981-1.061-.613 0-1.096.498-1.096 1.106 0 .593.498 1.106 1.175 1.106.683 0 .902-.438.902-.563zm-.388-.723h-1.29c.074-.348.368-.597.697-.597.448 0 .563.348.593.597zm3.148-.582c0-.125-.09-.33-.478-.33-.459 0-.728.265-.852.39v-.15c0-.17-.05-.214-.214-.214h-.543c-.07 0-.22 0-.22.164 0 .165.15.165.22.165h.378v1.49h-.379c-.07 0-.219 0-.219.164s.15.164.22.164h1.285c.08 0 .214 0 .214-.164 0-.165-.135-.165-.214-.165h-.528v-.583c0-.543.388-.931.872-.931.01.194.149.234.229.234.124 0 .229-.09.229-.234zm2.774 1.679c0-.165-.134-.165-.214-.165h-.204v-1.12c0-.5-.25-.723-.658-.723-.368 0-.607.2-.657.249 0-.15-.015-.224-.214-.224h-.37c-.079 0-.214 0-.214.164 0 .165.135.165.215.165h.204v1.49h-.204c-.08 0-.215 0-.215.164s.135.164.215.164h.787c.08 0 .214 0 .214-.164 0-.165-.134-.165-.214-.165h-.204v-.857c0-.478.383-.657.632-.657.23 0 .304.11.304.403V-7.9h-.164c-.075 0-.214 0-.214.165 0 .164.14.164.214.164h.747c.08 0 .214 0 .214-.164zM122.376-8.055c0-.17-.15-.17-.19-.17s-.184 0-.19.16c0 .035-.01.214-.079.214-.124 0-.124-.23-.124-.468 0-.314 0-.349-.04-.459a.753.753 0 0 0-.234-.309.822.822 0 0 0 .408-.687c0-.429-.389-.842-.976-.842h-.887c-.075 0-.22 0-.22.164 0 .165.145.165.22.165h.105v2.386h-.105c-.075 0-.22 0-.22.165 0 .164.145.164.22.164h.588c.075 0 .219 0 .219-.164 0-.165-.144-.165-.22-.165h-.104v-1.031h.374c.104 0 .229 0 .378.13.115.094.115.209.115.408 0 .339 0 .513.135.688a.46.46 0 0 0 .373.184c.319 0 .454-.309.454-.533zm-.828-1.72c0 .23-.209.514-.657.514h-.344v-1.026h.344c.448 0 .657.284.657.513zm3.209 1.127c0-.608-.469-1.111-1.047-1.111s-1.046.503-1.046 1.11c0 .624.478 1.102 1.046 1.102.568 0 1.047-.478 1.047-1.101zm-.38-.035c0 .454-.308.807-.667.807-.358 0-.667-.353-.667-.807 0-.433.314-.747.667-.747.354 0 .668.314.668.747zm3.254.947c0-.165-.12-.165-.28-.165v-1.17c0-.115 0-.673-.448-.673a.643.643 0 0 0-.498.244c-.095-.18-.234-.244-.378-.244-.105 0-.27.03-.424.164-.03-.14-.144-.14-.22-.14h-.159c-.074 0-.214 0-.214.165s.12.165.28.165v1.49c-.16 0-.28 0-.28.164s.14.164.214.164h.439c.075 0 .214 0 .214-.164 0-.165-.12-.165-.279-.165v-.872c0-.413.214-.642.414-.642.104 0 .154.114.154.368V-7.9c-.05 0-.194 0-.194.165 0 .164.14.164.214.164h.354c.074 0 .214 0 .214-.164 0-.165-.12-.165-.28-.165v-.872c0-.413.215-.642.414-.642.105 0 .155.114.155.368V-7.9c-.05 0-.195 0-.195.165 0 .164.14.164.215.164h.354c.074 0 .214 0 .214-.164zm2.665 0c0-.165-.14-.165-.21-.165-.189 0-.234-.015-.284-.035v-1.041c0-.413-.323-.782-1.006-.782-.234 0-.747 0-.747.384 0 .134.094.244.244.244.094 0 .229-.06.239-.24 0-.04.005-.044.07-.054.055-.005.14-.005.199-.005.408 0 .623.184.623.458-.533 0-1.505.125-1.505.738 0 .368.344.687.847.687.399 0 .648-.15.713-.194.104.154.313.169.553.169.134 0 .264 0 .264-.164zm-.872-.548c0 .104 0 .219-.195.314a.987.987 0 0 1-.433.094c-.294 0-.498-.174-.498-.358 0-.265.548-.414 1.126-.42v.37zm3.487.548c0-.165-.135-.165-.214-.165h-.205v-1.12c0-.5-.249-.723-.657-.723-.369 0-.608.2-.658.249 0-.15-.015-.224-.214-.224h-.369c-.08 0-.214 0-.214.164 0 .165.134.165.214.165h.204v1.49h-.204c-.08 0-.214 0-.214.164s.134.164.214.164h.787c.08 0 .214 0 .214-.164 0-.165-.134-.165-.214-.165h-.204v-.857c0-.478.384-.657.633-.657.229 0 .303.11.303.403V-7.9h-.164c-.075 0-.214 0-.214.165 0 .164.14.164.214.164h.748c.08 0 .214 0 .214-.164zM164.864-7.786v-.443c0-.105 0-.215-.19-.215-.189 0-.189.11-.189.215v.328h-1.17v-2.386h.259c.075 0 .219 0 .219-.165 0-.164-.144-.164-.22-.164h-.801c-.075 0-.22 0-.22.164 0 .165.15.165.22.165h.164v2.386h-.164c-.075 0-.22 0-.22.165 0 .164.15.164.22.164h1.878c.164 0 .214-.04.214-.214zm2.8.05c0-.165-.14-.165-.21-.165-.189 0-.234-.015-.284-.035v-1.041c0-.413-.324-.782-1.006-.782-.234 0-.747 0-.747.384 0 .134.094.244.244.244.094 0 .229-.06.239-.24 0-.04.005-.044.07-.054.055-.005.14-.005.199-.005.408 0 .623.184.623.458-.533 0-1.505.125-1.505.738 0 .368.344.687.847.687.399 0 .648-.15.712-.194.105.154.314.169.554.169.134 0 .264 0 .264-.164zm-.872-.548c0 .104 0 .219-.195.314a.987.987 0 0 1-.433.094c-.294 0-.498-.174-.498-.358 0-.265.548-.414 1.126-.42v.37zm3.163.064c0-.17-.145-.17-.19-.17-.129 0-.184.05-.189.175-.01.205-.189.339-.378.339-.37 0-.37-.274-.37-.388V-9.39h.798c.075 0 .214 0 .214-.165 0-.164-.14-.164-.214-.164h-.797v-.399c0-.095 0-.214-.19-.214-.189 0-.189.124-.189.214v.399h-.413c-.075 0-.22 0-.22.164 0 .165.14.165.215.165h.418v1.136c0 .538.379.707.728.707.448 0 .777-.314.777-.673zm2.68.484c0-.165-.15-.165-.22-.165h-.503v-1.604c0-.17-.05-.214-.214-.214h-.707c-.075 0-.22 0-.22.164 0 .165.15.165.22.165h.543v1.49h-.583c-.075 0-.22 0-.22.164s.15.164.22.164h1.465c.07 0 .219 0 .219-.164zm-.703-2.606c0-.15-.12-.269-.269-.269-.15 0-.269.12-.269.269 0 .15.12.27.27.27.149 0 .268-.12.268-.27zm3.637 2.606c0-.165-.135-.165-.214-.165h-.205v-1.12c0-.5-.249-.723-.657-.723-.37 0-.608.2-.658.249 0-.15-.015-.224-.214-.224h-.369c-.08 0-.214 0-.214.164 0 .165.134.165.214.165h.204v1.49h-.204c-.08 0-.214 0-.214.164s.134.164.214.164h.787c.08 0 .214 0 .214-.164 0-.165-.134-.165-.214-.165h-.204v-.857c0-.478.384-.657.633-.657.229 0 .303.11.303.403V-7.9h-.164c-.075 0-.214 0-.214.165 0 .164.14.164.214.164h.748c.08 0 .214 0 .214-.164zM180.832-7.736c0-.165-.135-.165-.264-.165v-2.386c.129 0 .264 0 .264-.165 0-.164-.15-.164-.22-.164h-.289c-.1 0-.224 0-.284.19l-.284.881s-.134.409-.164.563h-.005c-.03-.16-.055-.239-.115-.423l-.328-1.007c-.045-.14-.085-.204-.285-.204h-.288c-.075 0-.22 0-.22.164 0 .165.135.165.264.165v2.386c-.129 0-.264 0-.264.165 0 .164.15.164.22.164h.398c.075 0 .22 0 .22-.164 0-.165-.135-.165-.264-.165v-2.312h.004c.025.125.04.18.09.33l.354 1.1c.015.04.06.195.219.195.045 0 .14-.025.19-.12.03-.065.472-1.445.477-1.495V-7.9c-.129 0-.264 0-.264.165 0 .164.15.164.22.164h.398c.075 0 .22 0 .22-.164zm2.45-.912c0-.608-.468-1.111-1.046-1.111-.578 0-1.046.503-1.046 1.11 0 .624.478 1.102 1.046 1.102.568 0 1.046-.478 1.046-1.101zm-.379-.035c0 .454-.308.807-.667.807-.359 0-.667-.353-.667-.807 0-.433.313-.747.667-.747.354 0 .668.314.668.747zm3.243.947c0-.165-.134-.165-.214-.165h-.204v-2.501c0-.17-.05-.214-.214-.214h-.369c-.08 0-.214 0-.214.164 0 .165.134.165.214.165h.204v.747a.896.896 0 0 0-.573-.204c-.553 0-1.046.468-1.046 1.1 0 .609.454 1.097 1.002 1.097.264 0 .473-.12.617-.259 0 .14 0 .234.215.234h.368c.08 0 .214 0 .214-.164zm-.797-.818c0 .285-.229.678-.603.678-.333 0-.637-.329-.637-.767 0-.444.329-.772.692-.772.294 0 .548.254.548.528v.333zm3.198.444c0-.11-.084-.154-.19-.154-.084 0-.133.005-.184.114-.099.224-.343.274-.503.274-.363 0-.727-.24-.807-.633h1.47c.095 0 .214 0 .214-.189 0-.598-.339-1.061-.981-1.061-.613 0-1.096.498-1.096 1.106 0 .593.498 1.106 1.175 1.106.683 0 .902-.438.902-.563zm-.388-.723h-1.29c.074-.348.368-.597.697-.597.448 0 .563.348.593.597zm3.148-.582c0-.125-.09-.33-.478-.33-.459 0-.728.265-.852.39v-.15c0-.17-.05-.214-.214-.214h-.543c-.07 0-.22 0-.22.164 0 .165.15.165.22.165h.378v1.49h-.379c-.07 0-.219 0-.219.164s.15.164.22.164h1.285c.08 0 .214 0 .214-.164 0-.165-.135-.165-.214-.165h-.528v-.583c0-.543.388-.931.871-.931.01.194.15.234.23.234.124 0 .229-.09.229-.234zm2.774 1.679c0-.165-.134-.165-.214-.165h-.204v-1.12c0-.5-.25-.723-.658-.723-.368 0-.607.2-.657.249 0-.15-.015-.224-.215-.224h-.368c-.08 0-.215 0-.215.164 0 .165.135.165.215.165h.204v1.49h-.204c-.08 0-.215 0-.215.164s.135.164.215.164h.787c.08 0 .214 0 .214-.164 0-.165-.134-.165-.214-.165h-.204v-.857c0-.478.383-.657.632-.657.23 0 .304.11.304.403V-7.9h-.164c-.075 0-.214 0-.214.165 0 .164.14.164.214.164h.747c.08 0 .214 0 .214-.164zM199.16-8.409c0-.21-.08-.428-.244-.603-.19-.194-.345-.229-.768-.329l-.359-.08c-.189-.054-.388-.213-.388-.448 0-.239.234-.468.578-.468.573 0 .642.443.667.598.025.134.14.134.19.134.189 0 .189-.12.189-.214v-.633c0-.074 0-.214-.165-.214-.084 0-.149.035-.194.21a1.111 1.111 0 0 0-.687-.21c-.543 0-.932.384-.932.827 0 .284.164.479.21.523.203.21.348.24.717.324l.199.05c.294.065.354.08.473.19.085.08.16.213.16.368 0 .264-.215.533-.588.533-.21 0-.762-.045-.792-.538-.005-.095-.01-.194-.19-.194-.189 0-.189.124-.189.214v.633c0 .074 0 .214.164.214.06 0 .145-.015.195-.204.234.154.563.204.807.204.588 0 .947-.443.947-.887zm2.884.673c0-.165-.14-.165-.21-.165-.189 0-.234-.015-.284-.035v-1.041c0-.413-.324-.782-1.006-.782-.234 0-.747 0-.747.384 0 .134.094.244.244.244.095 0 .229-.06.239-.24 0-.04.005-.044.07-.054.055-.005.14-.005.199-.005.408 0 .623.184.623.458-.533 0-1.505.125-1.505.738 0 .368.344.687.847.687.399 0 .648-.15.712-.194.105.154.315.169.554.169.134 0 .264 0 .264-.164zm-.872-.548c0 .104 0 .219-.195.314a.987.987 0 0 1-.433.094c-.294 0-.498-.174-.498-.358 0-.265.548-.414 1.126-.42v.37zm3.487.548c0-.165-.135-.165-.214-.165h-.205v-1.12c0-.5-.249-.723-.657-.723-.37 0-.608.2-.658.249 0-.15-.015-.224-.214-.224h-.369c-.08 0-.214 0-.214.164 0 .165.134.165.214.165h.204v1.49h-.204c-.08 0-.214 0-.214.164s.134.164.214.164h.787c.08 0 .214 0 .214-.164 0-.165-.134-.165-.214-.165h-.204v-.857c0-.478.384-.657.633-.657.229 0 .303.11.303.403V-7.9h-.164c-.075 0-.214 0-.214.165 0 .164.14.164.214.164h.748c.08 0 .214 0 .214-.164zm2.366-.464c0-.12-.04-.299-.23-.443-.199-.15-.393-.18-.742-.24-.338-.054-.642-.104-.642-.283 0-.1.12-.264.617-.264.449 0 .464.159.469.249.01.16.134.16.189.16.19 0 .19-.12.19-.215v-.309c0-.075 0-.214-.165-.214-.115 0-.14.06-.155.09-.204-.09-.403-.09-.518-.09-.847 0-.956.418-.956.593 0 .463.523.543.961.612.27.045.653.105.653.35 0 .179-.19.328-.623.328-.309 0-.508-.104-.613-.403-.025-.08-.044-.14-.189-.14-.19 0-.19.125-.19.214v.444c0 .074 0 .214.165.214.05 0 .14-.015.19-.164.254.164.533.164.632.164.847 0 .957-.468.957-.653z"/></svg>