<svg xmlns="http://www.w3.org/2000/svg" width="464.027" height="68.32" viewBox="0 -51.24 348.02 51.24"><path d="M29.817-44.861l-.06-1.693H24.14l-.06 1.693h.24c.239-1.096.468-1.275 1.583-1.275h.538v4.98c0 .847-.11.957-.936 1.007v.189h2.909v-.19c-.817-.04-.957-.169-.957-.896v-5.09h.538c1.136 0 1.355.18 1.584 1.275h.239zm5.031 4.901v-.15c-.538-.1-.597-.179-.597-.866v-1.982c0-1.046-.419-1.584-1.226-1.584-.587 0-1.006.239-1.464.837v-3.029l-.05-.03c-.339.12-.588.2-1.145.359l-.27.08v.159c.04-.01.07-.01.12-.01.429 0 .508.08.508.508v4.692c0 .697-.06.787-.637.867v.149h2.151v-.15c-.577-.06-.677-.179-.677-.866v-2.4c.418-.459.717-.628 1.106-.628.498 0 .747.358.747 1.056v1.972c0 .677-.1.807-.678.867v.149h2.112zm4.354-1.564l-.16-.07c-.478.757-.906 1.046-1.543 1.046-.548 0-.967-.259-1.256-.797-.199-.388-.278-.737-.298-1.374h3.068c-.08-.648-.18-.937-.429-1.255-.298-.36-.757-.568-1.275-.568-1.235 0-2.082.996-2.082 2.45 0 1.375.718 2.232 1.863 2.232.956 0 1.694-.588 2.112-1.664zm-1.206-1.514h-2.031c.109-.787.448-1.145 1.055-1.145.608 0 .847.278.976 1.145zM45.381-44.502v-.678h-.867v-.817c0-.348.2-.527.578-.527.07 0 .1 0 .289.01v-.688c-.19-.04-.299-.05-.468-.05-.767 0-1.225.439-1.225 1.186v.886h-.698v.678h.698v4.542h.826v-4.542h.867zM50.561-42.53c0-1.803-.866-2.8-2.37-2.8-1.465 0-2.351 1.007-2.351 2.76s.876 2.76 2.36 2.76c1.465 0 2.361-1.007 2.361-2.72zm-.866-.01c0 1.225-.578 1.962-1.495 1.962-.926 0-1.494-.727-1.494-1.992 0-1.255.568-1.992 1.494-1.992.936 0 1.495.727 1.495 2.022zm6.176 2.58v-3.945c0-.866-.647-1.424-1.654-1.424-.776 0-1.274.299-1.733 1.026v-.877h-.767v5.22h.827v-2.879c0-1.066.578-1.763 1.425-1.763.657 0 1.075.399 1.075 1.026v3.616h.827zm3.218 0v-.697c-.11.03-.239.04-.398.04-.359 0-.458-.1-.458-.469v-3.416h.856v-.678h-.856v-1.434h-.827v1.434h-.707v.678h.707v3.785c0 .528.358.827 1.006.827.199 0 .398-.02.677-.07zm4.812-1.464c0-.777-.439-1.166-1.475-1.415l-.796-.19c-.678-.159-.967-.378-.967-.746 0-.478.429-.787 1.106-.787.668 0 1.026.289 1.046.837h.877c-.01-1.026-.688-1.604-1.893-1.604-1.215 0-2.002.627-2.002 1.594 0 .817.418 1.205 1.654 1.504l.776.19c.578.138.807.308.807.686 0 .488-.488.777-1.215.777-.747 0-1.166-.179-1.275-.976h-.877c.04 1.206.718 1.743 2.082 1.743 1.315 0 2.152-.607 2.152-1.613zm5.619-1.096c0-1.753-.857-2.81-2.242-2.81-.707 0-1.275.32-1.663.937v-.787h-.757v7.392h.827v-2.8c.438.538.926.777 1.603.777 1.345 0 2.232-1.046 2.232-2.709zm-.867-.02c0 1.185-.608 1.952-1.514 1.952-.877 0-1.454-.717-1.454-1.942s.577-2.022 1.454-2.022c.916 0 1.514.767 1.514 2.012zm6.306.21c0-.758-.06-1.236-.209-1.624-.339-.857-1.136-1.375-2.112-1.375-1.454 0-2.39 1.076-2.39 2.789s.906 2.73 2.37 2.73c1.196 0 2.022-.678 2.232-1.734h-.837c-.23.687-.697.966-1.365.966-.866 0-1.514-.557-1.534-1.753h3.845zm-.886-.738s0 .04-.01.06h-2.929c.07-.926.658-1.554 1.494-1.554.817 0 1.445.677 1.445 1.494zm6.067 1.315h-.837c-.14.837-.568 1.175-1.275 1.175-.916 0-1.465-.707-1.465-1.942 0-1.305.539-2.042 1.445-2.042.697 0 1.136.408 1.235 1.135h.837c-.1-1.275-.897-1.902-2.062-1.902-1.404 0-2.321 1.076-2.321 2.809 0 1.683.897 2.71 2.31 2.71 1.246 0 2.033-.748 2.133-1.943zM88.46-42.42c0-1.236-.698-2.122-1.664-2.122-.558 0-.996.249-1.434.787v-.767l-.06-.02c-.538.209-.887.339-1.434.508v.16c.09-.01.159-.01.249-.01.338 0 .408.099.408.567v4.662c0 .518-.11.627-.697.687v.17h2.41v-.18c-.747-.01-.876-.12-.876-.747v-1.564c.348.329.588.429 1.006.429 1.175 0 2.092-1.116 2.092-2.56zm-.857.388c0 1.106-.488 1.853-1.205 1.853-.468 0-1.036-.359-1.036-.658v-2.45c0-.299.558-.657 1.016-.657.737 0 1.225.756 1.225 1.912zm5.559 1.674v-.26c-.17.14-.289.19-.438.19-.23 0-.3-.14-.3-.578v-1.942c0-.508-.049-.787-.188-1.016-.21-.379-.638-.578-1.246-.578-.507 0-.986.14-1.265.368-.249.21-.408.498-.408.747 0 .23.19.429.428.429.24 0 .449-.2.449-.419 0-.04-.01-.09-.02-.159a1.13 1.13 0 0 1-.03-.239c0-.27.319-.488.717-.488.488 0 .757.289.757.827v.607c-1.534.618-1.703.698-2.132 1.076-.219.2-.358.538-.358.867 0 .627.428 1.066 1.046 1.066.438 0 .846-.21 1.454-.728.05.528.23.728.637.728.34 0 .548-.12.897-.498zm-1.544-.827c0 .308-.05.398-.259.528-.239.14-.518.219-.727.219-.349 0-.628-.339-.628-.767v-.04c0-.588.409-.946 1.614-1.385v1.445zm5.669-.24l-.14-.09c-.478.698-.837.937-1.404.937-.917 0-1.544-.796-1.544-1.942 0-1.036.548-1.733 1.354-1.733.359 0 .488.11.588.478l.06.219c.08.289.259.458.478.458.259 0 .468-.19.468-.418 0-.558-.697-1.026-1.534-1.026-.468 0-.946.18-1.345.508-.538.448-.836 1.136-.836 1.962 0 1.285.787 2.212 1.892 2.212.429 0 .807-.14 1.146-.419.299-.239.498-.528.817-1.145zM102.443-39.96v-.15c-.438-.03-.747-.218-1.165-.727l-1.524-1.932.289-.27c.707-.656 1.325-1.115 1.613-1.194.15-.04.29-.06.459-.06h.08v-.15h-2.033v.14c.389.01.498.05.498.19 0 .079-.09.218-.229.338l-1.365 1.215v-4.183l-.04-.02-1.245.358-.298.08v.159c.13-.01.219-.02.318-.02.33 0 .429.13.429.608v4.801c0 .518-.03.548-.747.668v.149h2.33v-.15l-.198-.01c-.399-.02-.549-.159-.549-.508v-1.832l1.395 1.862.03.04c.02.03.04.06.07.09.08.1.11.16.11.21 0 .089-.09.149-.21.149h-.19v.149h2.172zm4.354-.398v-.26c-.17.14-.289.19-.438.19-.23 0-.3-.14-.3-.578v-1.942c0-.508-.049-.787-.188-1.016-.21-.379-.638-.578-1.246-.578-.507 0-.986.14-1.265.368-.249.21-.408.498-.408.747 0 .23.19.429.428.429s.449-.2.449-.419c0-.04-.01-.09-.02-.159a1.13 1.13 0 0 1-.03-.239c0-.27.319-.488.717-.488.488 0 .757.289.757.827v.607c-1.534.618-1.703.698-2.132 1.076-.219.2-.358.538-.358.867 0 .627.428 1.066 1.045 1.066.439 0 .847-.21 1.455-.728.05.528.229.728.637.728.34 0 .548-.12.897-.498zm-1.544-.827c0 .308-.05.398-.259.528-.239.14-.518.219-.727.219-.349 0-.628-.339-.628-.767v-.04c0-.588.409-.946 1.614-1.385v1.445zm6.246-2.64v-.388h-.767c-.199 0-.348-.03-.548-.1l-.219-.08c-.269-.1-.538-.15-.797-.15-.926 0-1.663.718-1.663 1.625 0 .627.269 1.005.926 1.334l-.428.399c-.329.289-.458.488-.458.687 0 .21.12.329.528.528-.708.518-.976.847-.976 1.215 0 .528.777.967 1.723.967.747 0 1.524-.26 2.042-.678.378-.309.548-.627.548-1.006 0-.617-.468-1.036-1.206-1.066l-1.285-.06c-.528-.02-.777-.11-.777-.269 0-.199.329-.547.598-.627.09.01.16.02.19.02.188.02.318.03.378.03.368 0 .767-.15 1.076-.419.328-.279.478-.627.478-1.125 0-.29-.05-.518-.19-.837h.827zm-.368 4.502c0 .578-.757.967-1.883.967-.876 0-1.454-.289-1.454-.727 0-.23.07-.359.488-.857.329.07 1.126.13 1.614.13.906 0 1.235.129 1.235.487zm-1.036-3.277c0 .558-.289.907-.748.907-.597 0-1.015-.648-1.015-1.604v-.03c0-.588.279-.936.737-.936.308 0 .568.17.727.468.18.348.299.807.299 1.195zM115.77-41.524l-.16-.07c-.477.757-.906 1.046-1.543 1.046-.548 0-.966-.259-1.255-.797-.2-.388-.28-.737-.3-1.374h3.069c-.08-.648-.18-.937-.428-1.255-.3-.36-.757-.568-1.275-.568-1.236 0-2.082.996-2.082 2.45 0 1.375.717 2.232 1.862 2.232.957 0 1.694-.588 2.112-1.664zm-1.205-1.514h-2.032c.11-.787.448-1.145 1.056-1.145.607 0 .846.278.976 1.145zM124.048-42.42c0-1.236-.698-2.122-1.664-2.122-.558 0-.996.249-1.434.787v-.767l-.06-.02c-.538.209-.887.339-1.434.508v.16c.09-.01.159-.01.248-.01.34 0 .409.099.409.567v4.662c0 .518-.11.627-.698.687v.17h2.411v-.18c-.747-.01-.876-.12-.876-.747v-1.564c.348.329.587.429 1.006.429 1.175 0 2.092-1.116 2.092-2.56zm-.857.388c0 1.106-.488 1.853-1.206 1.853-.468 0-1.035-.359-1.035-.658v-2.45c0-.299.557-.657 1.016-.657.737 0 1.225.756 1.225 1.912zm4.493-1.982c0-.329-.21-.528-.548-.528-.418 0-.707.229-1.195.936v-.916l-.05-.02c-.528.219-.886.349-1.474.538v.159c.14-.03.229-.04.349-.04.248 0 .338.16.338.598v2.49c0 .498-.07.568-.707.688v.149h2.39v-.15c-.677-.03-.846-.179-.846-.747v-2.24c0-.32.428-.818.697-.818.06 0 .15.05.259.15.16.14.27.199.398.199.24 0 .389-.17.389-.448zm4.662 1.723c0-1.305-.916-2.251-2.191-2.251-1.295 0-2.202.956-2.202 2.33 0 1.345.927 2.352 2.182 2.352s2.211-1.056 2.211-2.431zm-.896.349c0 1.125-.449 1.803-1.195 1.803-.389 0-.758-.24-.967-.638-.279-.518-.438-1.215-.438-1.922 0-.947.468-1.564 1.175-1.564.837 0 1.425.956 1.425 2.32zM137.056-44.293v-.15h-1.385v.15c.319.03.468.13.468.319 0 .1-.02.199-.06.298l-.986 2.58-1.016-2.55c-.06-.139-.09-.279-.09-.368 0-.18.11-.25.459-.28v-.149h-1.952v.15c.378.02.448.12.906 1.145l1.195 2.86c.02.059.05.129.08.208.06.18.12.26.18.26s.13-.13.279-.499l1.275-3.197c.288-.677.348-.747.647-.777zm2.75 4.333v-.15c-.657-.05-.737-.149-.737-.866v-3.536l-.04-.03-1.544.548v.149l.08-.01c.12-.02.249-.03.338-.03.24 0 .329.16.329.598v2.311c0 .717-.1.827-.787.867v.149h2.361zm-.648-5.877a.504.504 0 0 0-.508-.508.51.51 0 0 0-.508.508c0 .289.23.508.508.508.29 0 .508-.22.508-.508zm5.788 5.459v-.16c-.18.01-.199.01-.229.01-.359 0-.438-.11-.438-.568v-5.647l-.05-.02c-.478.169-.827.268-1.465.438v.159c.08-.01.14-.01.22-.01.368 0 .458.1.458.508v1.554c-.378-.319-.648-.428-1.046-.428-1.145 0-2.072 1.125-2.072 2.54 0 1.275.747 2.142 1.843 2.142.558 0 .936-.2 1.275-.668v.638l.04.03 1.464-.518zm-1.504-.598c0 .07-.07.19-.17.299a.933.933 0 0 1-.716.299c-.827 0-1.375-.797-1.375-2.023 0-1.125.488-1.862 1.245-1.862.528 0 1.016.468 1.016.996v2.291zm5.818-.548l-.16-.07c-.478.757-.906 1.046-1.543 1.046-.548 0-.966-.259-1.256-.797-.199-.388-.278-.737-.298-1.374h3.068c-.08-.648-.18-.937-.429-1.255-.298-.36-.756-.568-1.275-.568-1.235 0-2.081.996-2.081 2.45 0 1.375.717 2.232 1.862 2.232.957 0 1.694-.588 2.112-1.664zm-1.205-1.514h-2.032c.109-.787.448-1.145 1.056-1.145.607 0 .846.278.976 1.145zm4.871 1.903c0-.498-.229-.827-.837-1.186l-1.075-.637c-.28-.16-.429-.409-.429-.678 0-.408.31-.677.767-.677.568 0 .867.329 1.096 1.225h.15l-.04-1.355h-.11l-.02.02c-.09.07-.1.08-.14.08-.059 0-.159-.02-.268-.07-.21-.08-.438-.12-.677-.12-.817 0-1.375.499-1.375 1.226 0 .558.319.946 1.165 1.434l.578.33c.349.198.518.437.518.746 0 .439-.319.717-.827.717-.687 0-1.036-.378-1.265-1.394h-.16v1.554h.13c.07-.1.11-.12.23-.12.109 0 .218.02.458.08.279.06.528.1.737.1.757 0 1.394-.578 1.394-1.275zM161.132-40.358v-.26c-.17.14-.289.19-.438.19-.23 0-.3-.14-.3-.578v-1.942c0-.508-.05-.787-.188-1.016-.21-.379-.638-.578-1.246-.578-.508 0-.986.14-1.265.368-.249.21-.408.498-.408.747 0 .23.19.429.428.429.24 0 .448-.2.448-.419 0-.04-.01-.09-.02-.159a1.13 1.13 0 0 1-.03-.239c0-.27.32-.488.718-.488.488 0 .757.289.757.827v.607c-1.534.618-1.703.698-2.132 1.076-.219.2-.359.538-.359.867 0 .627.429 1.066 1.046 1.066.439 0 .847-.21 1.455-.728.05.528.229.728.637.728.339 0 .548-.12.897-.498zm-1.544-.827c0 .308-.05.398-.259.528-.24.14-.518.219-.727.219-.349 0-.628-.339-.628-.767v-.04c0-.588.408-.946 1.614-1.385v1.445zm6.396 1.225v-.15c-.489-.05-.608-.169-.608-.657v-2.281c0-.936-.438-1.494-1.175-1.494-.459 0-.767.17-1.445.807v-.787l-.07-.02c-.488.18-.826.289-1.374.448v.17a.67.67 0 0 1 .269-.04c.279 0 .368.149.368.637v2.47c0 .568-.11.708-.617.748v.149h2.111v-.15c-.508-.04-.657-.159-.657-.518v-2.799c.478-.448.697-.567 1.026-.567.488 0 .727.308.727.966v2.082c0 .627-.13.797-.627.837v.149h2.072zM174.303-40.956l-.12-.1-.279.28c-.309.318-.428.408-.518.408-.08 0-.14-.06-.14-.13 0-.2.42-1.912.887-3.616.03-.1.04-.12.06-.21l-.07-.029-.607.07-.03.03-.11.478c-.08-.369-.368-.578-.797-.578-1.325 0-2.849 1.813-2.849 3.397 0 .697.379 1.106 1.016 1.106.698 0 1.126-.33 2.003-1.564-.21.816-.23.896-.23 1.145 0 .289.12.409.399.409.398 0 .637-.19 1.385-1.096zm-1.106-2.57c0 .837-.508 2.012-1.186 2.75-.239.268-.577.438-.866.438-.359 0-.578-.28-.578-.738 0-.537.349-1.514.767-2.141.419-.608.887-.947 1.305-.917.339.02.558.26.558.608zm6.077 2.49l-.14-.09c-.528.658-.667.788-.826.788-.07 0-.11-.06-.11-.17 0-.06 0-.06.19-.777l.786-2.978h-.737c-.538 1.474-.647 1.713-1.096 2.43-.597.947-1.085 1.455-1.404 1.455-.13 0-.21-.1-.21-.25 0-.04 0-.06.01-.09l.907-3.615-.03-.02c-.568.13-.926.2-1.494.269v.14c.379 0 .399.01.488.06.06.02.11.109.11.179 0 .08-.05.338-.14.667l-.368 1.415c-.19.727-.25 1.035-.25 1.225 0 .368.18.548.529.548.707 0 1.235-.538 2.38-2.461-.299 1.096-.448 1.743-.448 1.963 0 .308.18.478.478.478.468 0 .688-.19 1.375-1.166zm2.51-.02l-.129-.07c-.488.628-.647.788-.807.788-.13 0-.199-.12-.14-.25l.877-3.317h.837l.05-.318h-.797l.28-1.026-.07-.15h-.03c-.04 0-.07.03-.12.09-.379.498-1.006 1.016-1.325 1.096-.249.08-.319.139-.319.249 0 0 0 .03.01.06h.738l-.778 2.948c-.099.328-.169.637-.169.737 0 .21.21.369.478.369.458 0 .787-.28 1.415-1.206zM186.854-42.958c0-.827-.578-1.395-1.425-1.395-.408 0-.787.1-1.175.309-1.046.558-1.793 1.723-1.793 2.799 0 .867.558 1.395 1.464 1.395.657 0 1.295-.29 1.873-.867.657-.648 1.056-1.484 1.056-2.241zm-.837-.25c0 .718-.309 1.684-.737 2.331-.379.549-.767.817-1.205.817-.469 0-.778-.358-.778-.906 0-.717.28-1.574.738-2.271.398-.598.837-.907 1.275-.907.428 0 .707.369.707.936zm8.169 2.202l-.15-.12-.209.26c-.289.368-.478.528-.647.528-.08 0-.12-.05-.12-.16 0-.04.04-.22.1-.448l.677-2.5c.01-.05.03-.21.03-.28 0-.358-.249-.627-.578-.627-.2 0-.378.06-.617.21-.488.308-.907.796-1.604 1.902.249-.767.398-1.325.398-1.514 0-.359-.229-.598-.567-.598-.608 0-1.305.658-2.222 2.102l.578-2.082-.03-.02-1.594.309v.16h.25c.268 0 .388.069.388.218 0 .12-.23 1.026-.588 2.282l-.388 1.424h.747c.478-1.574.627-1.953.966-2.47.558-.847 1.155-1.405 1.494-1.405.13 0 .2.09.2.249 0 .13-.27 1.185-.698 2.71l-.249.916h.747c.389-1.534.588-2.032 1.076-2.72.498-.697 1.006-1.155 1.305-1.155.11 0 .199.09.199.21 0 .049-.02.149-.07.348l-.578 2.291c-.099.388-.129.558-.129.658 0 .298.14.458.399.458.468 0 .906-.33 1.434-1.066l.05-.07zm4.922.05l-.12-.1-.279.28c-.309.318-.428.408-.518.408-.08 0-.14-.06-.14-.13 0-.2.42-1.912.887-3.616.03-.1.04-.12.06-.21l-.07-.029-.607.07-.03.03-.11.478c-.08-.369-.368-.578-.797-.578-1.324 0-2.849 1.813-2.849 3.397 0 .697.379 1.106 1.016 1.106.698 0 1.126-.33 2.003-1.564-.21.816-.23.896-.23 1.145 0 .289.12.409.399.409.398 0 .637-.19 1.385-1.096zm-1.106-2.57c0 .837-.508 2.012-1.186 2.75-.239.268-.577.438-.866.438-.359 0-.578-.28-.578-.738 0-.537.349-1.514.767-2.141.419-.608.887-.947 1.305-.917.339.02.558.26.558.608zm3.606 2.47l-.13-.07c-.487.628-.646.788-.806.788-.13 0-.2-.12-.14-.25l.877-3.317h.837l.05-.318h-.797l.279-1.026-.07-.15h-.03c-.04 0-.07.03-.12.09-.378.498-1.005 1.016-1.324 1.096-.25.08-.319.139-.319.249 0 0 0 .03.01.06h.737l-.777 2.948c-.1.328-.17.637-.17.737 0 .21.21.369.479.369.458 0 .787-.28 1.415-1.206zm2.85.07l-.13-.11c-.428.568-.647.777-.816.777-.08 0-.16-.07-.16-.15 0-.159.1-.457.16-.656l.876-3.208-.03-.02c-1.006.19-1.205.22-1.594.25v.159c.538.01.628.04.628.239 0 .08-.03.249-.09.438l-.478 1.763c-.16.598-.22.886-.22 1.086 0 .368.16.568.46.568.467 0 .826-.3 1.394-1.136zm.408-4.831c0-.289-.229-.548-.498-.548s-.468.219-.468.528c0 .319.189.528.478.528.26 0 .488-.23.488-.508zm3.666 4.9l-.16-.099c-.547.588-.936.807-1.424.807-.568 0-.906-.419-.906-1.136 0-.846.348-1.733.906-2.32.29-.3.688-.479 1.086-.479.23 0 .369.08.369.2 0 .05-.01.099-.06.189-.07.13-.09.189-.09.289 0 .239.15.378.389.378.279 0 .478-.19.478-.458 0-.468-.438-.807-1.046-.807-1.494 0-2.889 1.455-2.889 3.008 0 .947.538 1.495 1.464 1.495.748 0 1.275-.3 1.883-1.066zM217.123-40.358v-.26c-.17.14-.289.19-.438.19-.23 0-.3-.14-.3-.578v-1.942c0-.508-.05-.787-.188-1.016-.21-.379-.638-.578-1.246-.578-.508 0-.986.14-1.265.368-.249.21-.408.498-.408.747 0 .23.19.429.428.429.24 0 .448-.2.448-.419 0-.04-.01-.09-.02-.159a1.13 1.13 0 0 1-.03-.239c0-.27.32-.488.718-.488.488 0 .757.289.757.827v.607c-1.534.618-1.703.698-2.132 1.076-.219.2-.359.538-.359.867 0 .627.429 1.066 1.046 1.066.439 0 .847-.21 1.455-.728.05.528.229.728.637.728.339 0 .548-.12.897-.498zm-1.544-.827c0 .308-.05.398-.259.528-.24.14-.518.219-.727.219-.349 0-.628-.339-.628-.767v-.04c0-.588.408-.946 1.614-1.385v1.445zm6.396 1.225v-.15c-.489-.05-.608-.169-.608-.657v-2.281c0-.936-.438-1.494-1.176-1.494-.458 0-.766.17-1.444.807v-.787l-.07-.02c-.488.18-.826.289-1.374.448v.17a.67.67 0 0 1 .269-.04c.279 0 .368.149.368.637v2.47c0 .568-.11.708-.617.748v.149h2.111v-.15c-.508-.04-.657-.159-.657-.518v-2.799c.478-.448.697-.567 1.026-.567.488 0 .727.308.727.966v2.082c0 .627-.13.797-.627.837v.149h2.072zm5.04-.418v-.16c-.179.01-.198.01-.228.01-.36 0-.439-.11-.439-.568v-5.647l-.05-.02c-.478.169-.827.268-1.464.438v.159c.08-.01.14-.01.22-.01.368 0 .458.1.458.508v1.554c-.379-.319-.648-.428-1.047-.428-1.145 0-2.071 1.125-2.071 2.54 0 1.275.746 2.142 1.843 2.142.557 0 .936-.2 1.275-.668v.638l.04.03 1.464-.518zm-1.503-.598c0 .07-.07.19-.17.299a.933.933 0 0 1-.717.299c-.827 0-1.375-.797-1.375-2.023 0-1.125.488-1.862 1.245-1.862.528 0 1.017.468 1.017.996v2.291zM235.247-41.036l-.14-.09c-.528.658-.667.788-.827.788-.07 0-.11-.06-.11-.17 0-.06 0-.06.19-.777l.787-2.978h-.737c-.538 1.474-.647 1.713-1.096 2.43-.597.947-1.086 1.455-1.404 1.455-.13 0-.21-.1-.21-.25 0-.04 0-.06.01-.09l.907-3.615-.03-.02c-.568.13-.926.2-1.494.269v.14c.378 0 .398.01.488.06.06.02.11.109.11.179 0 .08-.05.338-.14.667l-.368 1.415c-.19.727-.25 1.035-.25 1.225 0 .368.18.548.528.548.707 0 1.236-.538 2.381-2.461-.299 1.096-.448 1.743-.448 1.963 0 .308.18.478.478.478.468 0 .687-.19 1.375-1.166zm4.97.04l-.139-.13c-.07.09-.139.18-.209.26-.289.368-.468.528-.607.528-.09 0-.16-.07-.16-.16 0-.08.04-.269.14-.627l.567-2.053c.06-.209.09-.428.09-.567 0-.359-.269-.608-.657-.608-.638 0-1.265.608-2.291 2.191l.667-2.171-.03-.02-1.614.309v.16c.509.01.638.069.638.268 0 .06-.01.12-.02.17l-.956 3.486h.747c.468-1.574.558-1.793.996-2.47.598-.927 1.106-1.415 1.474-1.415.15 0 .24.11.24.289 0 .12-.06.448-.14.757l-.439 1.644c-.129.517-.159.647-.159.747 0 .378.14.538.468.538.449 0 .698-.2 1.395-1.126zm2.601.01l-.13-.11c-.427.568-.646.777-.816.777-.08 0-.16-.07-.16-.15 0-.159.1-.457.16-.656l.877-3.208-.03-.02c-1.006.19-1.206.22-1.594.25v.159c.538.01.627.04.627.239 0 .08-.03.249-.09.438l-.477 1.763c-.16.598-.22.886-.22 1.086 0 .368.16.568.459.568.468 0 .827-.3 1.394-1.136zm.409-4.831c0-.289-.23-.548-.498-.548-.27 0-.468.219-.468.528 0 .319.189.528.478.528.259 0 .488-.23.488-.508zm4.752 4.89l-.16-.089-.12.15c-.278.328-.527.538-.657.538-.06 0-.11-.04-.11-.1 0-.08.32-1.285.718-2.74.05-.179.03-.09.07-.259l.149-.527.01-.04c.03-.11.05-.2.05-.25v-.03l-.05-.03c-.04 0-.08.01-.18.02-.268.04-.537.06-.806.06h-1.494c.289-1.025.438-1.414.637-1.733.25-.388.558-.567.966-.567.21 0 .34.06.34.159 0 .03-.01.05-.04.09-.07.07-.09.119-.09.229 0 .249.16.418.408.418.249 0 .418-.17.418-.418 0-.419-.418-.697-1.026-.697-.558 0-1.105.239-1.454.627-.418.468-.618.877-.926 1.893h-.867l-.07.318h.867c-.06.15-.269 1.136-.668 3.088-.288 1.464-.408 1.893-.577 2.212-.17.328-.359.468-.608.468-.15 0-.2-.03-.2-.13 0-.03.01-.06.04-.11.04-.069.05-.109.05-.159 0-.209-.179-.378-.388-.378s-.369.17-.369.398c0 .36.33.618.777.618.897 0 1.584-.966 2.003-2.82l.717-3.187h1.544c.11 0 .16.03.16.1 0 .04 0 .06-.12.478-.588 2.122-.738 2.72-.738 2.959 0 .288.19.488.479.488.398 0 .747-.28 1.315-1.046zm3.935 0l-.12-.119c-.717.588-1.026.747-1.464.747-.558 0-.926-.358-.926-.906 0-.15.02-.29.1-.608l.278-.04c1.494-.209 2.55-.966 2.55-1.823 0-.418-.298-.677-.796-.677-1.435 0-2.999 1.634-2.999 3.138 0 .807.538 1.365 1.315 1.365.707 0 1.474-.399 2.062-1.076zm-.24-2.808c0 .308-.189.667-.497.966-.369.349-.747.528-1.604.737l.17-.438c.338-.887 1.075-1.654 1.583-1.654.21 0 .349.15.349.389zm5.71 2.769l-.12-.1c-.548.628-.648.708-.817.708-.1 0-.18-.08-.18-.2 0-.16.31-1.325.648-2.45l.986-3.706-.05-.05c-.527.11-.886.17-1.524.23v.169c.548.02.618.05.618.259 0 .14-.01.17-.15.697l-.438 1.634c-.08-.418-.259-.578-.647-.578-1.295 0-2.909 1.873-2.909 3.367 0 .707.399 1.136 1.046 1.136.677 0 1.116-.32 1.793-1.315-.11.498-.13.657-.13.886 0 .27.16.448.419.448.418 0 .946-.408 1.454-1.135zm-1.186-2.59c0 1.514-1.036 3.228-1.953 3.228-.348 0-.577-.26-.577-.658 0-.827.498-1.982 1.155-2.68.279-.288.648-.478.927-.458.298.02.448.21.448.568zM263.831-39.96v-.15c-.657-.05-.737-.149-.737-.866v-3.536l-.04-.03-1.544.548v.149l.08-.01c.12-.02.249-.03.339-.03.239 0 .328.16.328.598v2.311c0 .717-.1.827-.787.867v.149h2.361zm-.647-5.877a.504.504 0 0 0-.508-.508.51.51 0 0 0-.508.508c0 .289.229.508.508.508.288 0 .508-.22.508-.508zm5.728 5.877v-.15c-.488-.05-.608-.169-.608-.657v-2.281c0-.936-.438-1.494-1.175-1.494-.458 0-.767.17-1.445.807v-.787l-.07-.02c-.487.18-.826.289-1.374.448v.17a.67.67 0 0 1 .269-.04c.279 0 .368.149.368.637v2.47c0 .568-.11.708-.617.748v.149h2.112v-.15c-.508-.04-.658-.159-.658-.518v-2.799c.478-.448.697-.567 1.026-.567.488 0 .727.308.727.966v2.082c0 .627-.13.797-.627.837v.149h2.072zm2.929-.658l-.13-.109c-.219.259-.378.349-.597.349-.369 0-.518-.26-.518-.897v-2.849h1.006v-.319h-1.006v-1.155c0-.1-.02-.13-.07-.13-.06.1-.13.19-.2.28-.368.547-.706.916-.965 1.065-.11.07-.17.13-.17.19 0 .03.01.05.04.07h.528v2.998c0 .836.3 1.265.877 1.265.498 0 .876-.24 1.205-.758zm4.214-.906l-.16-.07c-.478.757-.906 1.046-1.543 1.046-.548 0-.967-.259-1.256-.797-.199-.388-.278-.737-.298-1.374h3.068c-.08-.648-.18-.937-.429-1.255-.298-.36-.757-.568-1.275-.568-1.235 0-2.082.996-2.082 2.45 0 1.375.718 2.232 1.863 2.232.957 0 1.694-.588 2.112-1.664zm-1.206-1.514h-2.031c.109-.787.448-1.145 1.055-1.145.608 0 .847.278.976 1.145zm4.743-.976c0-.329-.21-.528-.548-.528-.419 0-.707.229-1.195.936v-.916l-.05-.02c-.528.219-.887.349-1.475.538v.159c.14-.03.23-.04.35-.04.248 0 .338.16.338.598v2.49c0 .498-.07.568-.708.688v.149h2.391v-.15c-.677-.03-.846-.179-.846-.747v-2.24c0-.32.428-.818.697-.818.06 0 .15.05.259.15.16.14.269.199.398.199.24 0 .389-.17.389-.448zM283.573-46.146c0-.358-.438-.617-1.036-.617-.627 0-1.145.268-1.404.717-.26.448-.339.807-.349 1.603h-.817v.32h.817v3.127c0 .727-.11.847-.827.887v.149h2.59v-.15c-.817-.03-.926-.139-.926-.886v-3.128h1.215v-.319h-1.225v-1.155c0-.588.19-.887.568-.887.219 0 .349.1.528.389.159.269.279.358.448.358.24 0 .418-.179.418-.408zM287.238-40.358v-.26c-.17.14-.288.19-.438.19-.23 0-.299-.14-.299-.578v-1.942c0-.508-.05-.787-.189-1.016-.21-.379-.637-.578-1.245-.578-.508 0-.987.14-1.265.368-.25.21-.409.498-.409.747 0 .23.19.429.429.429s.448-.2.448-.419c0-.04-.01-.09-.02-.159a1.13 1.13 0 0 1-.03-.239c0-.27.319-.488.717-.488.488 0 .757.289.757.827v.607c-1.534.618-1.703.698-2.131 1.076-.22.2-.36.538-.36.867 0 .627.43 1.066 1.047 1.066.438 0 .847-.21 1.454-.728.05.528.23.728.638.728.338 0 .548-.12.896-.498zm-1.544-.827c0 .308-.05.398-.259.528-.239.14-.518.219-.727.219-.349 0-.628-.339-.628-.767v-.04c0-.588.409-.946 1.614-1.385v1.445zm5.669-.24l-.14-.09c-.478.698-.836.937-1.404.937-.917 0-1.544-.796-1.544-1.942 0-1.036.548-1.733 1.354-1.733.36 0 .488.11.588.478l.06.219c.08.289.259.458.478.458.26 0 .469-.19.469-.418 0-.558-.698-1.026-1.535-1.026-.468 0-.946.18-1.345.508-.537.448-.836 1.136-.836 1.962 0 1.285.787 2.212 1.892 2.212.429 0 .807-.14 1.146-.419.299-.239.498-.528.817-1.145zm4.543-.1l-.16-.069c-.478.757-.906 1.046-1.544 1.046-.548 0-.966-.259-1.255-.797-.199-.388-.279-.737-.299-1.374h3.068c-.08-.648-.179-.937-.428-1.255-.299-.36-.757-.568-1.275-.568-1.235 0-2.082.996-2.082 2.45 0 1.375.717 2.232 1.863 2.232.956 0 1.693-.588 2.112-1.664zm-1.206-1.513h-2.032c.11-.787.448-1.145 1.056-1.145.608 0 .847.278.976 1.145zM303.323-46.146c0-.358-.438-.617-1.036-.617-.627 0-1.145.268-1.404.717-.26.448-.339.807-.349 1.603h-.817v.32h.817v3.127c0 .727-.11.847-.826.887v.149h2.59v-.15c-.818-.03-.927-.139-.927-.886v-3.128h1.215v-.319h-1.225v-1.155c0-.588.19-.887.568-.887.219 0 .349.1.528.389.159.269.279.358.448.358.24 0 .418-.179.418-.408z"/><path d="M307.118-42.291c0-1.305-.917-2.251-2.192-2.251-1.295 0-2.201.956-2.201 2.33 0 1.345.926 2.352 2.181 2.352 1.256 0 2.212-1.056 2.212-2.431zm-.897.349c0 1.125-.448 1.803-1.195 1.803-.388 0-.757-.24-.966-.638-.28-.518-.439-1.215-.439-1.922 0-.947.469-1.564 1.176-1.564.837 0 1.424.956 1.424 2.32zm4.533-2.072c0-.329-.209-.528-.548-.528-.418 0-.707.229-1.195.936v-.916l-.05-.02c-.528.219-.886.349-1.474.538v.159c.14-.03.23-.04.349-.04.249 0 .339.16.339.598v2.49c0 .498-.07.568-.708.688v.149h2.391v-.15c-.678-.03-.847-.179-.847-.747v-2.24c0-.32.428-.818.697-.818.06 0 .15.05.26.15.159.14.268.199.398.199.239 0 .388-.17.388-.448zM316.69-39.96v-.15c-.637-.04-.747-.139-.747-.687v-5.946l-.04-.02c-.518.169-.896.268-1.583.438v.159h.06c.109-.01.228-.02.308-.02.319 0 .418.14.418.608v4.751c0 .538-.139.668-.767.718v.149h2.351zm4.892-2.331c0-1.305-.917-2.251-2.192-2.251-1.295 0-2.202.956-2.202 2.33 0 1.345.927 2.352 2.182 2.352s2.212-1.056 2.212-2.431zm-.897.349c0 1.125-.448 1.803-1.195 1.803-.389 0-.757-.24-.966-.638-.28-.518-.439-1.215-.439-1.922 0-.947.468-1.564 1.176-1.564.836 0 1.424.956 1.424 2.32zm5.599 1.584v-.26c-.17.14-.289.19-.438.19-.23 0-.3-.14-.3-.578v-1.942c0-.508-.049-.787-.188-1.016-.21-.379-.638-.578-1.246-.578-.508 0-.986.14-1.265.368-.249.21-.408.498-.408.747 0 .23.19.429.428.429.24 0 .448-.2.448-.419 0-.04-.01-.09-.02-.159a1.13 1.13 0 0 1-.03-.239c0-.27.32-.488.718-.488.488 0 .757.289.757.827v.607c-1.534.618-1.703.698-2.132 1.076-.219.2-.358.538-.358.867 0 .627.428 1.066 1.045 1.066.439 0 .847-.21 1.455-.728.05.528.229.728.637.728.339 0 .548-.12.897-.498zm-1.544-.827c0 .308-.05.398-.259.528-.239.14-.518.219-.727.219-.349 0-.628-.339-.628-.767v-.04c0-.588.409-.946 1.614-1.385v1.445zm6.455.807v-.16c-.18.01-.199.01-.229.01-.358 0-.438-.11-.438-.568v-5.647l-.05-.02c-.478.169-.827.268-1.464.438v.159c.08-.01.14-.01.22-.01.368 0 .457.1.457.508v1.554c-.378-.319-.647-.428-1.046-.428-1.145 0-2.071 1.125-2.071 2.54 0 1.275.746 2.142 1.842 2.142.558 0 .937-.2 1.275-.668v.638l.04.03 1.464-.518zm-1.504-.598c0 .07-.07.19-.17.299a.933.933 0 0 1-.716.299c-.827 0-1.375-.797-1.375-2.023 0-1.125.488-1.862 1.245-1.862.528 0 1.016.468 1.016.996v2.291zm4.115 1.016v-.15c-.658-.05-.737-.149-.737-.866v-3.536l-.04-.03-1.544.548v.149l.08-.01c.12-.02.248-.03.338-.03.24 0 .329.16.329.598v2.311c0 .717-.1.827-.787.867v.149h2.36zm-.647-5.877a.504.504 0 0 0-.509-.508.51.51 0 0 0-.508.508c0 .289.23.508.508.508.29 0 .509-.22.509-.508zm5.727 5.877v-.15c-.488-.05-.607-.169-.607-.657v-2.281c0-.936-.438-1.494-1.176-1.494-.458 0-.767.17-1.444.807v-.787l-.07-.02c-.488.18-.827.289-1.375.448v.17a.67.67 0 0 1 .27-.04c.278 0 .368.149.368.637v2.47c0 .568-.11.708-.617.748v.149h2.111v-.15c-.508-.04-.657-.159-.657-.518v-2.799c.478-.448.697-.567 1.026-.567.488 0 .727.308.727.966v2.082c0 .627-.13.797-.627.837v.149h2.071zm4.832-3.865v-.388h-.767c-.199 0-.348-.03-.548-.1l-.219-.08c-.269-.1-.538-.15-.797-.15-.926 0-1.663.718-1.663 1.625 0 .627.269 1.005.926 1.334l-.428.399c-.329.289-.458.488-.458.687 0 .21.119.329.527.528-.707.518-.976.847-.976 1.215 0 .528.777.967 1.724.967.747 0 1.524-.26 2.042-.678.378-.309.548-.627.548-1.006 0-.617-.469-1.036-1.206-1.066l-1.285-.06c-.528-.02-.777-.11-.777-.269 0-.199.329-.547.598-.627.09.01.16.02.19.02.188.02.318.03.378.03.368 0 .767-.15 1.076-.419.328-.279.478-.627.478-1.125 0-.29-.05-.518-.19-.837h.827zm-.369 4.502c0 .578-.756.967-1.882.967-.876 0-1.454-.289-1.454-.727 0-.23.07-.359.488-.857.329.07 1.125.13 1.614.13.906 0 1.234.129 1.234.487zm-1.035-3.277c0 .558-.29.907-.748.907-.597 0-1.015-.648-1.015-1.604v-.03c0-.588.279-.936.737-.936.308 0 .567.17.727.468.18.348.299.807.299 1.195zM7.8-34.19c0-.36-.438-.618-1.036-.618-.627 0-1.145.268-1.404.717-.26.448-.34.807-.35 1.604h-.816v.318h.817v3.128c0 .727-.11.847-.827.887v.149h2.59v-.15c-.817-.03-.926-.139-.926-.886v-3.128h1.215v-.318H5.838v-1.156c0-.588.19-.887.568-.887.219 0 .348.1.527.389.16.269.28.359.449.359.239 0 .418-.18.418-.409z"/><path d="M11.595-30.336c0-1.305-.917-2.251-2.192-2.251-1.295 0-2.201.956-2.201 2.33 0 1.345.926 2.352 2.181 2.352 1.256 0 2.212-1.056 2.212-2.43zm-.897.349c0 1.125-.448 1.803-1.195 1.803-.389 0-.757-.24-.966-.638-.28-.518-.439-1.215-.439-1.922 0-.947.468-1.564 1.176-1.564.836 0 1.424.956 1.424 2.32zm6.027 1.982v-.15c-.488-.05-.607-.169-.607-.657v-2.281c0-.936-.439-1.494-1.176-1.494-.458 0-.767.17-1.444.807v-.787l-.07-.02c-.488.18-.827.289-1.374.448v.17a.67.67 0 0 1 .269-.04c.278 0 .368.149.368.637v2.47c0 .568-.11.708-.617.748v.149h2.111v-.15c-.508-.04-.657-.159-.657-.517v-2.8c.478-.448.697-.567 1.026-.567.488 0 .727.308.727.966v2.082c0 .627-.13.797-.627.837v.149h2.071zm2.93-.657l-.13-.11c-.219.259-.378.349-.598.349-.368 0-.518-.26-.518-.897v-2.849h1.006v-.318H18.41v-1.156c0-.1-.02-.13-.07-.13-.059.1-.129.19-.199.28-.368.547-.707.916-.966 1.065-.11.07-.17.13-.17.19 0 .03.01.05.04.07h.529v2.998c0 .836.299 1.265.876 1.265.498 0 .877-.24 1.205-.757zm3.457-.518c0-.498-.23-.827-.837-1.186l-1.076-.637c-.28-.16-.428-.409-.428-.678 0-.408.308-.677.766-.677.568 0 .867.329 1.096 1.225h.15l-.04-1.354h-.11l-.02.02c-.09.07-.1.08-.139.08-.06 0-.16-.02-.27-.07-.208-.08-.437-.12-.676-.12-.817 0-1.375.498-1.375 1.225 0 .558.319.946 1.165 1.435l.578.328c.349.2.518.438.518.747 0 .439-.319.717-.827.717-.687 0-1.035-.378-1.265-1.394h-.159v1.554h.13c.07-.1.11-.12.229-.12.11 0 .219.02.458.08.279.06.528.1.737.1.757 0 1.395-.578 1.395-1.275zM28.619-28.005v-.15c-.657-.05-.737-.149-.737-.866v-3.536l-.04-.03-1.544.548v.149l.08-.01c.12-.02.249-.03.338-.03.24 0 .329.16.329.598v2.311c0 .717-.1.827-.787.867v.149h2.361zm-.647-5.877a.504.504 0 0 0-.509-.508.51.51 0 0 0-.508.508c0 .289.23.508.508.508.29 0 .509-.22.509-.508zm5.727 5.877v-.15c-.488-.05-.607-.169-.607-.657v-2.281c0-.936-.438-1.494-1.176-1.494-.458 0-.767.17-1.444.807v-.787l-.07-.02c-.488.18-.827.289-1.374.448v.17c.06-.03.159-.04.269-.04.278 0 .368.149.368.637v2.47c0 .568-.11.708-.617.748v.149h2.111v-.15c-.508-.04-.657-.159-.657-.517v-2.8c.478-.448.697-.567 1.026-.567.488 0 .727.308.727.966v2.082c0 .627-.13.797-.627.837v.149h2.071zM42.406-29.738h-.25c-.159.348-.288.577-.428.737-.348.418-.896.608-1.753.608h-.667c-.727 0-.857-.06-.857-.409v-4.711c0-.708.14-.847.927-.897v-.19h-2.81v.19c.738.06.867.19.867.897v4.422c0 .708-.14.847-.866.897v.189h5.359l.478-1.733z"/><path d="M43.882-29.9v-.132c-.313-.021-.383-.091-.627-.607l-1.737-3.962h-.14l-1.45 3.424c-.447 1.019-.53 1.124-.865 1.145v.132h1.38v-.132c-.334 0-.474-.091-.474-.286 0-.084.021-.182.056-.273l.321-.816h1.828l.286.67c.083.195.132.37.132.474 0 .063-.042.14-.098.168-.084.048-.14.063-.39.063v.132h1.778zm-1.806-1.792h-1.611l.802-1.919.809 1.919z"/><path d="M48.406-32.906l-.06-1.693h-5.618l-.06 1.693h.24c.239-1.096.468-1.275 1.583-1.275h.538v4.98c0 .847-.11.957-.936 1.007v.189h2.909v-.19c-.817-.039-.957-.169-.957-.896v-5.09h.538c1.136 0 1.355.18 1.584 1.275h.239z"/><path d="M52.872-27.447h-.28c-.497 1.075-.925 1.315-2.35 1.315h-.269c-.478 0-.876-.04-.966-.11-.06-.04-.08-.13-.08-.319v-2.46h1.534c.817 0 .967.13 1.096.956h.229v-2.311h-.23c-.128.817-.288.946-1.095.946h-1.534v-2.211c0-.279.06-.339.329-.339H50.6c1.125 0 1.344.15 1.514 1.046h.249l-.03-1.424h-5.29v.189c.738.06.867.189.867.897v4.422c0 .708-.14.847-.866.897v.189h5.378l.449-1.683z"/><path d="M58.78-28.005v-.19c-.528-.059-.678-.159-1.106-.736l-1.913-2.73 1.455-1.813c.647-.777.847-.896 1.484-.936v-.19h-2.37v.19c.537.02.696.09.696.319 0 .15-.109.329-.398.687l-1.126 1.375-.418-.588c-.608-.847-.847-1.275-.847-1.494 0-.2.15-.279.478-.289l.28-.01v-.19h-3.009v.19c.648.03.827.18 1.803 1.564l1.086 1.594-1.564 1.922c-.887 1.056-.937 1.096-1.444 1.136v.189h2.32v-.19c-.577-.039-.757-.119-.757-.348 0-.15.15-.398.519-.857l1.185-1.474.946 1.395c.329.488.508.827.508.976 0 .18-.16.279-.498.289-.04 0-.15.01-.269.02v.189h2.959zm1.983-.428a.572.572 0 0 0-.558-.568.564.564 0 0 0-.548.568c0 .289.25.538.538.538.309 0 .568-.25.568-.538zM70.99-32.906l-.06-1.693h-5.618l-.06 1.693h.24c.239-1.096.468-1.275 1.583-1.275h.538v4.98c0 .847-.11.957-.936 1.007v.189h2.909v-.19c-.817-.039-.957-.169-.957-.896v-5.09h.538c1.136 0 1.355.18 1.584 1.275h.239zm5.031 4.901v-.15c-.538-.099-.597-.179-.597-.866v-1.982c0-1.046-.419-1.584-1.226-1.584-.587 0-1.006.239-1.464.837v-3.029l-.05-.03c-.338.12-.588.2-1.145.359l-.27.08v.16c.04-.01.07-.01.12-.01.429 0 .508.079.508.507v4.692c0 .697-.06.787-.637.867v.149h2.151v-.15c-.577-.059-.677-.179-.677-.866v-2.4c.418-.459.717-.628 1.106-.628.498 0 .747.358.747 1.056v1.972c0 .677-.1.807-.678.867v.149h2.112zm2.65 0v-.15c-.657-.05-.736-.149-.736-.866v-3.536l-.04-.03-1.544.548v.149l.08-.01c.119-.02.248-.03.338-.03.239 0 .329.16.329.598v2.311c0 .717-.1.827-.787.867v.149h2.36zm-.647-5.877a.504.504 0 0 0-.508-.508.51.51 0 0 0-.508.508c0 .289.23.508.508.508.289 0 .508-.22.508-.508zm4.364 4.702c0-.498-.23-.827-.837-1.186l-1.076-.637c-.279-.16-.428-.409-.428-.678 0-.408.308-.677.767-.677.567 0 .866.329 1.095 1.225h.15l-.04-1.354h-.11l-.02.02c-.09.07-.1.08-.139.08-.06 0-.16-.02-.269-.07-.21-.08-.438-.12-.677-.12-.817 0-1.375.498-1.375 1.225 0 .558.319.946 1.165 1.435l.578.328c.349.2.518.438.518.747 0 .439-.319.717-.826.717-.688 0-1.037-.378-1.266-1.394h-.159v1.554h.13c.07-.1.11-.12.228-.12.11 0 .22.02.459.08.279.06.528.1.737.1.757 0 1.395-.578 1.395-1.275zM90.076-30.465c0-1.236-.697-2.122-1.664-2.122-.557 0-.996.249-1.434.787v-.767l-.06-.02c-.538.209-.886.339-1.434.508v.16c.09-.01.16-.01.249-.01.339 0 .408.099.408.567v4.662c0 .518-.11.628-.697.687v.17h2.41v-.18c-.746-.01-.876-.12-.876-.747v-1.564c.349.329.588.429 1.006.429 1.176 0 2.092-1.116 2.092-2.56zm-.857.388c0 1.106-.488 1.853-1.205 1.853-.468 0-1.036-.359-1.036-.658v-2.45c0-.299.558-.657 1.016-.657.737 0 1.225.757 1.225 1.912zm5.56 1.674v-.26c-.17.14-.29.19-.439.19-.23 0-.299-.14-.299-.578v-1.942c0-.508-.05-.787-.189-1.016-.21-.379-.637-.578-1.245-.578-.508 0-.986.14-1.265.368-.25.21-.409.498-.409.747 0 .23.19.429.429.429s.448-.2.448-.419c0-.04-.01-.09-.02-.159a1.13 1.13 0 0 1-.03-.239c0-.269.319-.488.717-.488.489 0 .757.289.757.827v.607c-1.534.618-1.703.698-2.131 1.076-.22.2-.36.538-.36.867 0 .627.43 1.066 1.047 1.066.438 0 .847-.21 1.454-.727.05.527.23.727.638.727.338 0 .548-.12.896-.498zm-1.545-.827c0 .308-.05.398-.258.528-.24.14-.519.219-.728.219-.349 0-.627-.339-.627-.767v-.04c0-.588.408-.946 1.613-1.385v1.445zm5.669-.24l-.14-.089c-.478.697-.836.937-1.404.937-.916 0-1.544-.797-1.544-1.943 0-1.036.548-1.733 1.355-1.733.358 0 .488.11.587.478l.06.22c.08.288.259.457.478.457.26 0 .468-.19.468-.418 0-.558-.697-1.026-1.534-1.026-.468 0-.946.18-1.344.508-.538.448-.837 1.136-.837 1.962 0 1.285.787 2.212 1.892 2.212.429 0 .807-.14 1.146-.419.299-.239.498-.528.817-1.145zM104.06-28.005v-.15c-.439-.03-.747-.218-1.166-.727l-1.524-1.932.289-.27c.707-.656 1.325-1.115 1.614-1.194.149-.04.289-.06.458-.06h.08v-.15h-2.033v.14c.389.01.499.05.499.19 0 .079-.09.218-.23.338l-1.364 1.215v-4.183l-.04-.02-1.245.358-.3.08v.16c.13-.01.22-.02.32-.02.328 0 .428.129.428.607v4.801c0 .518-.03.548-.747.668v.149h2.33v-.15l-.198-.01c-.399-.02-.548-.159-.548-.507v-1.833l1.394 1.863.03.04c.02.03.04.06.07.089.08.1.11.16.11.21 0 .089-.09.149-.21.149h-.19v.149h2.172zm4.353-.398v-.26c-.17.14-.288.19-.438.19-.23 0-.299-.14-.299-.578v-1.942c0-.508-.05-.787-.189-1.016-.21-.379-.637-.578-1.245-.578-.508 0-.987.14-1.265.368-.25.21-.409.498-.409.747 0 .23.19.429.429.429s.448-.2.448-.419c0-.04-.01-.09-.02-.159a1.13 1.13 0 0 1-.03-.239c0-.269.319-.488.717-.488.488 0 .757.289.757.827v.607c-1.534.618-1.703.698-2.131 1.076-.22.2-.36.538-.36.867 0 .627.43 1.066 1.047 1.066.438 0 .847-.21 1.454-.727.05.527.23.727.638.727.338 0 .547-.12.896-.498zm-1.544-.827c0 .308-.05.398-.259.528-.239.14-.518.219-.727.219-.349 0-.628-.339-.628-.767v-.04c0-.588.409-.946 1.614-1.385v1.445zm6.247-2.64v-.388h-.767c-.2 0-.349-.03-.548-.1l-.22-.08c-.269-.1-.538-.15-.796-.15-.927 0-1.664.718-1.664 1.625 0 .627.269 1.006.927 1.334l-.429.399c-.329.289-.458.488-.458.687 0 .21.12.329.528.528-.707.518-.976.847-.976 1.215 0 .528.777.967 1.723.967.747 0 1.524-.26 2.042-.678.379-.309.548-.627.548-1.006 0-.617-.468-1.036-1.205-1.066l-1.285-.06c-.529-.02-.778-.11-.778-.269 0-.199.33-.547.598-.627.09.01.16.02.19.02.189.02.318.03.378.03.368 0 .767-.15 1.076-.418.329-.28.478-.628.478-1.126 0-.29-.05-.518-.19-.837h.828zm-.37 4.503c0 .577-.756.966-1.882.966-.876 0-1.454-.289-1.454-.727 0-.23.07-.359.488-.857.329.07 1.126.13 1.614.13.906 0 1.235.13 1.235.488zm-1.035-3.278c0 .558-.289.907-.747.907-.598 0-1.016-.648-1.016-1.604v-.03c0-.588.279-.936.737-.936.309 0 .568.17.727.468.18.348.299.807.299 1.195zM117.386-29.569l-.159-.07c-.478.757-.906 1.046-1.544 1.046-.548 0-.966-.259-1.255-.797-.2-.388-.279-.737-.299-1.374h3.068c-.08-.648-.18-.937-.428-1.255-.299-.36-.757-.568-1.275-.568-1.236 0-2.082.996-2.082 2.45 0 1.375.717 2.232 1.863 2.232.956 0 1.693-.588 2.111-1.664zm-1.205-1.514h-2.032c.11-.787.448-1.145 1.056-1.145.608 0 .847.278.976 1.145zM124.568-28.403v-.26c-.17.14-.289.19-.438.19-.23 0-.3-.14-.3-.578v-1.942c0-.508-.049-.787-.188-1.016-.21-.379-.638-.578-1.246-.578-.508 0-.986.14-1.265.368-.249.21-.408.498-.408.747 0 .23.19.429.428.429.24 0 .449-.2.449-.419 0-.04-.01-.09-.02-.159a1.13 1.13 0 0 1-.03-.239c0-.269.319-.488.717-.488.488 0 .757.289.757.827v.607c-1.534.618-1.703.698-2.132 1.076-.219.2-.358.538-.358.867 0 .627.428 1.066 1.045 1.066.439 0 .847-.21 1.455-.727.05.527.229.727.637.727.34 0 .548-.12.897-.498zm-1.544-.827c0 .308-.05.398-.259.528-.239.14-.518.219-.727.219-.349 0-.628-.339-.628-.767v-.04c0-.588.409-.946 1.614-1.385v1.445zm4.124 1.225v-.15c-.637-.04-.747-.139-.747-.687v-5.946l-.04-.02c-.517.169-.896.268-1.583.438v.16h.06c.11-.01.229-.02.308-.02.319 0 .419.139.419.607v4.751c0 .538-.14.668-.767.718v.149h2.35zm3.677-1.175c0-.498-.23-.827-.837-1.186l-1.076-.637c-.279-.16-.428-.409-.428-.678 0-.408.308-.677.766-.677.568 0 .867.329 1.096 1.225h.15l-.04-1.354h-.11l-.02.02c-.09.07-.1.08-.139.08-.06 0-.16-.02-.269-.07-.21-.08-.438-.12-.677-.12-.817 0-1.375.498-1.375 1.225 0 .558.319.946 1.165 1.435l.578.328c.349.2.518.438.518.747 0 .439-.319.717-.827.717-.687 0-1.035-.378-1.264-1.394h-.16v1.554h.13c.07-.1.11-.12.229-.12.11 0 .219.02.458.08.279.06.528.1.737.1.757 0 1.394-.578 1.394-1.275zm5.09-1.156c0-1.305-.916-2.251-2.191-2.251-1.295 0-2.202.956-2.202 2.33 0 1.345.927 2.352 2.182 2.352s2.211-1.056 2.211-2.43zm-.896.349c0 1.125-.449 1.803-1.196 1.803-.388 0-.757-.24-.966-.638-.279-.518-.438-1.215-.438-1.922 0-.947.468-1.564 1.175-1.564.837 0 1.425.956 1.425 2.32zM143.494-30.465c0-1.236-.697-2.122-1.664-2.122-.558 0-.996.249-1.434.787v-.767l-.06-.02c-.538.209-.886.339-1.434.508v.16c.09-.01.16-.01.249-.01.339 0 .408.099.408.567v4.662c0 .518-.11.628-.697.687v.17h2.41v-.18c-.746-.01-.876-.12-.876-.747v-1.564c.349.329.588.429 1.006.429 1.175 0 2.092-1.116 2.092-2.56zm-.857.388c0 1.106-.488 1.853-1.205 1.853-.468 0-1.036-.359-1.036-.658v-2.45c0-.299.558-.657 1.016-.657.737 0 1.225.757 1.225 1.912zm4.493-1.982c0-.329-.209-.528-.547-.528-.419 0-.708.229-1.196.936v-.916l-.05-.02c-.528.219-.886.349-1.474.538v.159c.14-.03.23-.04.349-.04.249 0 .339.16.339.598v2.49c0 .498-.07.568-.708.688v.149h2.391v-.15c-.677-.03-.847-.179-.847-.747v-2.24c0-.32.429-.818.697-.818.06 0 .15.05.26.15.159.14.269.2.398.2.239 0 .388-.17.388-.449zm4.663 1.723c0-1.305-.917-2.251-2.192-2.251-1.295 0-2.201.956-2.201 2.33 0 1.345.926 2.352 2.181 2.352 1.256 0 2.212-1.056 2.212-2.43zm-.897.349c0 1.125-.448 1.803-1.195 1.803-.388 0-.757-.24-.966-.638-.28-.518-.439-1.215-.439-1.922 0-.947.468-1.564 1.176-1.564.837 0 1.424.956 1.424 2.32zM156.502-32.338v-.15h-1.384v.15c.318.03.468.13.468.319 0 .1-.02.199-.06.298l-.986 2.58-1.016-2.55c-.06-.139-.09-.279-.09-.368 0-.18.11-.25.458-.28v-.148h-1.952v.149c.379.02.448.12.906 1.146l1.196 2.858c.02.06.05.13.079.21.06.179.12.258.18.258.059 0 .129-.129.279-.498l1.275-3.197c.289-.677.349-.747.647-.777zm2.75 4.333v-.15c-.657-.05-.737-.149-.737-.866v-3.536l-.04-.03-1.544.548v.149l.08-.01c.119-.02.249-.03.339-.03.239 0 .328.16.328.598v2.311c0 .717-.099.827-.787.867v.149h2.361zm-.647-5.877a.504.504 0 0 0-.508-.508.51.51 0 0 0-.508.508c0 .289.229.508.508.508.288 0 .508-.22.508-.508zm5.788 5.459v-.16c-.18.01-.2.01-.23.01-.358 0-.438-.11-.438-.568v-5.647l-.05-.02c-.478.169-.827.268-1.464.438v.16c.08-.01.14-.01.219-.01.369 0 .458.099.458.507v1.554c-.378-.318-.647-.428-1.045-.428-1.146 0-2.072 1.125-2.072 2.54 0 1.275.747 2.142 1.842 2.142.558 0 .937-.2 1.275-.668v.638l.04.03 1.465-.518zm-1.505-.598c0 .07-.069.19-.169.299a.932.932 0 0 1-.717.299c-.827 0-1.375-.797-1.375-2.023 0-1.125.488-1.862 1.245-1.862.528 0 1.016.468 1.016.996v2.291zm5.818-.548l-.159-.07c-.478.757-.906 1.046-1.544 1.046-.548 0-.966-.259-1.255-.797-.199-.388-.279-.737-.299-1.374h3.068c-.079-.648-.179-.937-.428-1.255-.299-.36-.757-.568-1.275-.568-1.236 0-2.082.996-2.082 2.45 0 1.375.717 2.232 1.863 2.232.956 0 1.693-.588 2.111-1.664zm-1.205-1.514h-2.032c.109-.787.448-1.145 1.056-1.145s.847.278.976 1.145zm4.872 1.903c0-.498-.229-.827-.837-1.186l-1.076-.637c-.279-.16-.428-.409-.428-.678 0-.408.309-.677.767-.677.568 0 .867.329 1.096 1.225h.149l-.04-1.354h-.109l-.02.02c-.09.07-.1.08-.14.08a.711.711 0 0 1-.269-.07 1.897 1.897 0 0 0-.677-.12c-.817 0-1.375.498-1.375 1.225 0 .558.319.946 1.166 1.435l.577.328c.349.2.519.438.519.747 0 .439-.319.717-.827.717-.688 0-1.036-.378-1.265-1.394h-.16v1.554h.13c.069-.1.109-.12.229-.12.109 0 .219.02.458.08.279.06.528.1.737.1.757 0 1.395-.578 1.395-1.275zM179.771-28.403v-.26c-.169.14-.288.19-.438.19-.229 0-.299-.14-.299-.578v-1.942c0-.508-.05-.787-.189-1.016-.209-.379-.637-.578-1.245-.578-.508 0-.987.14-1.265.368-.249.21-.409.498-.409.747 0 .23.19.429.429.429s.448-.2.448-.419c0-.04-.01-.09-.02-.159-.02-.09-.03-.17-.03-.239 0-.269.319-.488.717-.488.488 0 .757.289.757.827v.607c-1.534.618-1.703.698-2.131 1.076-.219.2-.359.538-.359.867 0 .627.428 1.066 1.046 1.066.438 0 .847-.21 1.454-.727.05.527.229.727.638.727.338 0 .548-.12.896-.498zm-1.544-.827c0 .308-.049.398-.259.528-.239.14-.518.219-.727.219-.348 0-.628-.339-.628-.767v-.04c0-.588.409-.946 1.614-1.385v1.445zm5.669-.24l-.139-.089c-.479.697-.837.937-1.405.937-.916 0-1.544-.797-1.544-1.943 0-1.036.548-1.733 1.354-1.733.359 0 .489.11.588.478l.06.22c.08.288.259.457.478.457.259 0 .469-.19.469-.418 0-.558-.698-1.026-1.535-1.026-.468 0-.946.18-1.345.508-.537.448-.836 1.136-.836 1.962 0 1.285.787 2.212 1.892 2.212.429 0 .807-.14 1.146-.419.299-.239.498-.528.817-1.145zm4.423 0l-.139-.089c-.478.697-.837.937-1.405.937-.916 0-1.544-.797-1.544-1.943 0-1.036.548-1.733 1.355-1.733.359 0 .488.11.588.478l.059.22c.08.288.259.457.478.457.259 0 .469-.19.469-.418 0-.558-.698-1.026-1.534-1.026-.468 0-.946.18-1.345.508-.538.448-.837 1.136-.837 1.962 0 1.285.787 2.212 1.893 2.212.428 0 .807-.14 1.145-.419.299-.239.498-.528.817-1.145zm4.543-.099l-.159-.07c-.479.757-.907 1.046-1.544 1.046-.548 0-.966-.259-1.255-.797-.2-.388-.279-.737-.299-1.374h3.068c-.08-.648-.179-.937-.429-1.255-.298-.36-.756-.568-1.275-.568-1.235 0-2.081.996-2.081 2.45 0 1.375.717 2.232 1.862 2.232.957 0 1.694-.588 2.112-1.664zm-1.205-1.514h-2.032c.109-.787.448-1.145 1.056-1.145.607 0 .846.278.976 1.145zm4.871 1.903c0-.498-.229-.827-.836-1.186l-1.076-.637c-.279-.16-.428-.409-.428-.678 0-.408.308-.677.766-.677.568 0 .867.329 1.096 1.225h.15l-.04-1.354h-.11l-.02.02c-.089.07-.099.08-.139.08a.707.707 0 0 1-.269-.07 1.897 1.897 0 0 0-.677-.12c-.817 0-1.375.498-1.375 1.225 0 .558.319.946 1.165 1.435l.578.328c.349.2.518.438.518.747 0 .439-.319.717-.827.717-.687 0-1.036-.378-1.265-1.394h-.159v1.554h.129c.07-.1.11-.12.229-.12.11 0 .22.02.459.08.279.06.528.1.737.1.757 0 1.394-.578 1.394-1.275zm3.876 0c0-.498-.229-.827-.837-1.186l-1.076-.637c-.279-.16-.428-.409-.428-.678 0-.408.309-.677.767-.677.568 0 .867.329 1.096 1.225h.149l-.04-1.354h-.109l-.02.02c-.09.07-.1.08-.14.08a.711.711 0 0 1-.269-.07 1.897 1.897 0 0 0-.677-.12c-.817 0-1.375.498-1.375 1.225 0 .558.319.946 1.166 1.435l.578.328c.348.2.518.438.518.747 0 .439-.319.717-.827.717-.688 0-1.036-.378-1.265-1.394h-.16v1.554h.13c.069-.1.109-.12.229-.12.11 0 .219.02.458.08.279.06.528.1.737.1.757 0 1.395-.578 1.395-1.275zM206.185-28.662l-.129-.11c-.219.259-.379.349-.598.349-.368 0-.518-.26-.518-.897v-2.849h1.006v-.318h-1.006v-1.156c0-.1-.02-.13-.069-.13-.06.1-.13.19-.2.28-.368.547-.707.916-.966 1.065-.109.07-.169.13-.169.19 0 .03.01.05.04.07h.527v2.998c0 .836.299 1.265.877 1.265.498 0 .877-.24 1.205-.757zm4.673-1.674c0-1.305-.917-2.251-2.192-2.251-1.295 0-2.202.956-2.202 2.33 0 1.345.927 2.352 2.182 2.352s2.212-1.056 2.212-2.43zm-.897.349c0 1.125-.448 1.803-1.195 1.803-.389 0-.757-.24-.967-.638-.279-.518-.438-1.215-.438-1.922 0-.947.468-1.564 1.176-1.564.836 0 1.424.956 1.424 2.32zM216.525-28.662l-.129-.11c-.219.259-.378.349-.598.349-.368 0-.518-.26-.518-.897v-2.849h1.006v-.318h-1.006v-1.156c0-.1-.02-.13-.069-.13-.06.1-.13.19-.2.28-.368.547-.707.916-.966 1.065-.109.07-.169.13-.169.19 0 .03.01.05.04.07h.528v2.998c0 .836.299 1.265.876 1.265.498 0 .877-.24 1.205-.757zm4.842.657v-.15c-.538-.099-.598-.179-.598-.866v-1.982c0-1.046-.418-1.584-1.225-1.584-.587 0-1.006.239-1.464.837v-3.029l-.05-.03c-.339.12-.588.2-1.146.359l-.268.08v.16c.039-.01.069-.01.119-.01.428 0 .508.079.508.507v4.692c0 .697-.06.787-.637.867v.149h2.151v-.15c-.578-.059-.677-.179-.677-.866v-2.4c.418-.459.717-.628 1.106-.628.498 0 .747.358.747 1.056v1.972c0 .677-.1.807-.678.867v.149h2.112zm4.354-1.564l-.16-.07c-.478.757-.906 1.046-1.543 1.046-.549 0-.967-.259-1.256-.797-.199-.388-.279-.737-.299-1.374h3.069c-.08-.648-.18-.937-.429-1.255-.299-.36-.757-.568-1.275-.568-1.235 0-2.082.996-2.082 2.45 0 1.375.717 2.232 1.863 2.232.956 0 1.694-.588 2.112-1.664zm-1.206-1.514h-2.032c.11-.787.449-1.145 1.056-1.145.608 0 .847.278.976 1.145zM231.079-28.005v-.15c-.638-.04-.748-.139-.748-.687v-5.946l-.039-.02c-.518.169-.897.268-1.584.438v.16h.06c.109-.01.229-.02.308-.02.319 0 .419.139.419.607v4.751c0 .538-.14.668-.767.718v.149h2.351zm4.612-.398v-.26c-.169.14-.289.19-.438.19-.23 0-.299-.14-.299-.578v-1.942c0-.508-.05-.787-.189-1.016-.21-.379-.638-.578-1.246-.578-.507 0-.986.14-1.265.368-.249.21-.408.498-.408.747 0 .23.189.429.428.429s.448-.2.448-.419c0-.04-.01-.09-.02-.159a1.172 1.172 0 0 1-.029-.239c0-.269.319-.488.717-.488.488 0 .757.289.757.827v.607c-1.534.618-1.703.698-2.132 1.076-.219.2-.359.538-.359.867 0 .627.429 1.066 1.046 1.066.439 0 .847-.21 1.455-.727.05.527.229.727.637.727.339 0 .548-.12.897-.498zm-1.544-.827c0 .308-.05.398-.259.528-.239.14-.518.219-.727.219-.349 0-.628-.339-.628-.767v-.04c0-.588.408-.946 1.614-1.385v1.445zm4.901-2.829c0-.329-.209-.528-.548-.528-.418 0-.707.229-1.195.936v-.916l-.05-.02c-.528.219-.886.349-1.474.538v.159c.139-.03.229-.04.349-.04.249 0 .339.16.339.598v2.49c0 .498-.07.568-.708.688v.149h2.391v-.15c-.677-.03-.847-.179-.847-.747v-2.24c0-.32.429-.818.697-.818.06 0 .15.05.259.15.16.14.269.2.399.2.239 0 .388-.17.388-.449zM243.569-31.87v-.388h-.767a1.52 1.52 0 0 1-.548-.1l-.219-.08c-.269-.1-.538-.15-.797-.15-.927 0-1.664.718-1.664 1.625 0 .627.269 1.006.927 1.334l-.429.399c-.329.289-.458.488-.458.687 0 .21.119.329.528.528-.707.518-.976.847-.976 1.215 0 .528.777.967 1.723.967.747 0 1.524-.26 2.042-.678.379-.309.548-.627.548-1.006 0-.617-.468-1.036-1.205-1.066l-1.285-.06c-.528-.02-.777-.11-.777-.269 0-.199.328-.547.597-.627.09.01.16.02.19.02.189.02.319.03.378.03.369 0 .767-.15 1.076-.418.329-.28.478-.628.478-1.126 0-.29-.05-.518-.189-.837h.827zm-.369 4.503c0 .577-.757.966-1.882.966-.877 0-1.455-.289-1.455-.727 0-.23.07-.359.488-.857.329.07 1.126.13 1.614.13.906 0 1.235.13 1.235.488zm-1.036-3.278c0 .558-.289.907-.747.907-.598 0-1.016-.648-1.016-1.604v-.03c0-.588.279-.936.737-.936.309 0 .568.17.727.468.18.348.299.807.299 1.195zM247.842-29.569l-.16-.07c-.478.757-.906 1.046-1.543 1.046-.549 0-.967-.259-1.256-.797-.199-.388-.278-.737-.298-1.374h3.068c-.08-.648-.18-.937-.429-1.255-.299-.36-.757-.568-1.275-.568-1.235 0-2.082.996-2.082 2.45 0 1.375.718 2.232 1.863 2.232.956 0 1.694-.588 2.112-1.664zm-1.206-1.514h-2.031c.109-.787.448-1.145 1.055-1.145.608 0 .847.278.976 1.145zM255.462-28.005v-.15c-.488-.05-.608-.169-.608-.657v-2.281c0-.936-.438-1.494-1.175-1.494-.459 0-.767.17-1.445.807v-.787l-.069-.02c-.489.18-.827.289-1.375.448v.17c.06-.03.159-.04.269-.04.279 0 .368.149.368.637v2.47c0 .568-.109.708-.617.748v.149h2.111v-.15c-.507-.04-.657-.159-.657-.517v-2.8c.478-.448.697-.567 1.026-.567.488 0 .727.308.727.966v2.082c0 .627-.129.797-.627.837v.149h2.072zm4.921-.359v-.14h-.05c-.458 0-.568-.108-.568-.567v-3.416h-1.573v.169c.617.03.737.13.737.627v2.341c0 .27-.05.419-.169.508-.28.24-.588.359-.897.359-.388 0-.707-.339-.707-.757v-3.247h-1.455v.139c.479.03.618.18.618.637v2.51c0 .788.478 1.296 1.205 1.296.369 0 .757-.16 1.026-.429l.429-.428v.827l.04.02c.497-.2.856-.309 1.364-.449zm7.93.359v-.15l-.259-.02c-.299-.02-.429-.198-.429-.587v-2.052c0-1.175-.388-1.773-1.155-1.773-.578 0-1.086.259-1.624.837-.179-.568-.518-.837-1.056-.837-.438 0-.717.14-1.544.767v-.747l-.069-.02c-.508.19-.847.299-1.395.448v.17c.13-.03.209-.04.319-.04.259 0 .349.159.349.637v2.52c0 .538-.14.688-.698.698v.149h2.212v-.15c-.528-.02-.678-.129-.678-.517v-2.81s.08-.119.15-.189c.249-.229.677-.398 1.026-.398.438 0 .657.348.657 1.046v2.161c0 .558-.109.668-.677.708v.149h2.231v-.15c-.568-.01-.717-.179-.717-.796v-2.51c.299-.429.628-.608 1.086-.608.568 0 .747.269.747 1.096v2.101c0 .568-.08.648-.658.718v.149h2.182zm4.693-2.42c0-1.226-.757-2.162-1.753-2.162-.608 0-1.186.359-1.385.847v-3.048l-.05-.02c-.418.149-.687.229-1.155.358l-.289.08v.16c.06-.01.099-.01.169-.01.399 0 .488.089.488.507v5.17c0 .309.847.638 1.644.638 1.315 0 2.331-1.096 2.331-2.52zm-.877.458c0 1.105-.478 1.743-1.295 1.743-.518 0-.966-.23-.966-.478v-2.51c0-.389.468-.748.986-.748.777 0 1.275.778 1.275 1.993zm5.42.398l-.16-.07c-.478.757-.906 1.046-1.544 1.046-.548 0-.966-.259-1.255-.797-.199-.388-.279-.737-.299-1.374h3.068c-.079-.648-.179-.937-.428-1.255-.299-.36-.757-.568-1.275-.568-1.235 0-2.082.996-2.082 2.45 0 1.375.717 2.232 1.863 2.232.956 0 1.693-.588 2.112-1.664zm-1.206-1.514h-2.032c.11-.787.448-1.145 1.056-1.145s.847.278.976 1.145zm4.742-.976c0-.329-.209-.528-.547-.528-.419 0-.708.229-1.196.936v-.916l-.049-.02c-.529.219-.887.349-1.475.538v.159c.14-.03.229-.04.349-.04.249 0 .339.16.339.598v2.49c0 .498-.07.568-.708.688v.149h2.391v-.15c-.677-.03-.847-.179-.847-.747v-2.24c0-.32.429-.818.697-.818.06 0 .15.05.259.15.16.14.27.2.399.2.239 0 .388-.17.388-.449zM288.332-30.336c0-1.305-.916-2.251-2.191-2.251-1.295 0-2.202.956-2.202 2.33 0 1.345.927 2.352 2.182 2.352s2.211-1.056 2.211-2.43zm-.896.349c0 1.125-.449 1.803-1.196 1.803-.388 0-.757-.24-.966-.638-.279-.518-.438-1.215-.438-1.922 0-.947.468-1.564 1.175-1.564.837 0 1.425.956 1.425 2.32zm5.011-4.204c0-.358-.438-.617-1.036-.617-.628 0-1.146.268-1.405.717-.259.448-.338.807-.348 1.604h-.817v.318h.817v3.128c0 .727-.11.847-.827.887v.149h2.59v-.15c-.817-.03-.927-.139-.927-.886v-3.128h1.216v-.318h-1.226v-1.156c0-.588.19-.887.568-.887.219 0 .349.1.528.389.159.269.279.359.449.359.239 0 .418-.18.418-.409zM298.363-34.19c0-.36-.439-.618-1.036-.618-.628 0-1.146.268-1.405.717-.259.448-.339.807-.349 1.604h-.816v.318h.816v3.128c0 .727-.109.847-.826.887v.149h2.59v-.15c-.817-.03-.927-.139-.927-.886v-3.128h1.216v-.318H296.4v-1.156c0-.588.19-.887.568-.887.219 0 .349.1.528.389.159.269.279.359.448.359.239 0 .419-.18.419-.409z"/><path d="M302.157-30.336c0-1.305-.916-2.251-2.191-2.251-1.295 0-2.202.956-2.202 2.33 0 1.345.927 2.352 2.182 2.352s2.211-1.056 2.211-2.43zm-.896.349c0 1.125-.449 1.803-1.196 1.803-.388 0-.757-.24-.966-.638-.279-.518-.438-1.215-.438-1.922 0-.947.468-1.564 1.175-1.564.837 0 1.425.956 1.425 2.32zm6.027 1.982v-.15c-.488-.05-.608-.169-.608-.657v-2.281c0-.936-.438-1.494-1.175-1.494-.458 0-.767.17-1.445.807v-.787l-.069-.02c-.488.18-.827.289-1.375.448v.17c.06-.03.159-.04.269-.04.279 0 .369.149.369.637v2.47c0 .568-.11.708-.618.748v.149h2.112v-.15c-.508-.04-.658-.159-.658-.517v-2.8c.479-.448.698-.567 1.026-.567.488 0 .728.308.728.966v2.082c0 .627-.13.797-.628.837v.149h2.072zm2.929-.657l-.129-.11c-.219.259-.379.349-.598.349-.369 0-.518-.26-.518-.897v-2.849h1.006v-.318h-1.006v-1.156c0-.1-.02-.13-.07-.13-.059.1-.129.19-.199.28-.369.547-.707.916-.966 1.065-.11.07-.17.13-.17.19 0 .03.01.05.04.07h.528v2.998c0 .836.299 1.265.877 1.265.498 0 .876-.24 1.205-.757zM316.611-34.19c0-.36-.438-.618-1.036-.618-.627 0-1.145.268-1.404.717-.259.448-.339.807-.349 1.604h-.817v.318h.817v3.128c0 .727-.109.847-.827.887v.149h2.59v-.15c-.817-.03-.926-.139-.926-.886v-3.128h1.215v-.318h-1.225v-1.156c0-.588.189-.887.568-.887.219 0 .348.1.528.389.159.269.279.359.448.359.239 0 .418-.18.418-.409z"/><path d="M319.997-29.569l-.159-.07c-.478.757-.906 1.046-1.544 1.046-.548 0-.966-.259-1.255-.797-.199-.388-.279-.737-.299-1.374h3.068c-.08-.648-.179-.937-.428-1.255-.299-.36-.757-.568-1.275-.568-1.236 0-2.082.996-2.082 2.45 0 1.375.717 2.232 1.863 2.232.956 0 1.693-.588 2.111-1.664zm-1.205-1.514h-2.032c.109-.787.448-1.145 1.056-1.145.607 0 .847.278.976 1.145zm5.808 2.68v-.26c-.169.14-.289.19-.438.19-.23 0-.299-.14-.299-.578v-1.942c0-.508-.05-.787-.189-1.016-.21-.379-.638-.578-1.246-.578-.507 0-.986.14-1.265.368-.249.21-.408.498-.408.747 0 .23.189.429.428.429s.449-.2.449-.419c0-.04-.011-.09-.02-.159-.02-.09-.03-.17-.03-.239 0-.269.319-.488.717-.488.488 0 .757.289.757.827v.607c-1.534.618-1.703.698-2.132 1.076-.219.2-.358.538-.358.867 0 .627.428 1.066 1.046 1.066.438 0 .846-.21 1.454-.727.05.527.229.727.637.727.339 0 .548-.12.897-.498zm-1.544-.827c0 .308-.05.398-.259.528-.239.14-.518.219-.727.219-.349 0-.628-.339-.628-.767v-.04c0-.588.409-.946 1.614-1.385v1.445zm4.344.568l-.13-.11c-.219.259-.378.349-.598.349-.368 0-.517-.26-.517-.897v-2.849h1.005v-.318h-1.005v-1.156c0-.1-.02-.13-.07-.13-.06.1-.13.19-.2.28-.368.547-.707.916-.966 1.065-.109.07-.169.13-.169.19 0 .03.01.05.04.07h.528v2.998c0 .836.299 1.265.876 1.265.498 0 .877-.24 1.206-.757zm4.762.298v-.14h-.05c-.459 0-.568-.108-.568-.567v-3.416h-1.574v.169c.618.03.737.13.737.627v2.341c0 .27-.05.419-.169.508-.279.24-.588.359-.897.359-.388 0-.707-.339-.707-.757v-3.247h-1.454v.139c.478.03.617.18.617.637v2.51c0 .788.478 1.296 1.206 1.296.368 0 .757-.16 1.025-.429l.429-.428v.827l.04.02c.498-.2.856-.309 1.365-.449zm3.546-3.695c0-.329-.209-.528-.548-.528-.418 0-.707.229-1.195.936v-.916l-.05-.02c-.528.219-.886.349-1.474.538v.159c.139-.03.229-.04.349-.04.249 0 .338.16.338.598v2.49c0 .498-.07.568-.707.688v.149h2.391v-.15c-.678-.03-.847-.179-.847-.747v-2.24c0-.32.428-.818.697-.818.06 0 .15.05.259.15.16.14.269.2.399.2.239 0 .388-.17.388-.449zm4.204 2.49l-.159-.07c-.478.757-.906 1.046-1.544 1.046-.548 0-.966-.259-1.255-.797-.199-.388-.279-.737-.299-1.374h3.068c-.08-.648-.179-.937-.428-1.255-.299-.36-.757-.568-1.275-.568-1.236 0-2.082.996-2.082 2.45 0 1.375.717 2.232 1.863 2.232.956 0 1.693-.588 2.111-1.664zm-1.205-1.514h-2.032c.109-.787.448-1.145 1.056-1.145.607 0 .847.278.976 1.145zm4.872 1.903c0-.498-.229-.827-.837-1.186l-1.076-.637c-.279-.16-.428-.409-.428-.678 0-.408.309-.677.767-.677.567 0 .866.329 1.096 1.225h.149l-.04-1.354h-.109l-.02.02c-.09.07-.1.08-.14.08a.711.711 0 0 1-.269-.07 1.897 1.897 0 0 0-.677-.12c-.817 0-1.375.498-1.375 1.225 0 .558.319.946 1.166 1.435l.577.328c.349.2.519.438.519.747 0 .439-.32.717-.827.717-.688 0-1.036-.378-1.265-1.394h-.16v1.554h.13c.069-.1.109-.12.229-.12.109 0 .219.02.458.08.279.06.528.1.737.1.757 0 1.395-.578 1.395-1.275zM8.388-16.448v-.26c-.17.14-.289.19-.438.19-.23 0-.3-.14-.3-.578v-1.942c0-.508-.05-.787-.188-1.016-.21-.379-.638-.578-1.246-.578-.508 0-.986.14-1.265.368-.249.21-.408.498-.408.747 0 .23.19.429.428.429.24 0 .448-.2.448-.419 0-.04-.01-.09-.02-.159a1.13 1.13 0 0 1-.03-.239c0-.27.32-.488.718-.488.488 0 .757.289.757.827v.607c-1.534.618-1.703.698-2.132 1.076-.219.2-.359.538-.359.867 0 .627.429 1.066 1.046 1.066.439 0 .847-.21 1.455-.728.05.528.229.728.637.728.339 0 .548-.12.897-.498zm-1.544-.827c0 .308-.05.398-.259.528-.24.14-.518.219-.727.219-.349 0-.628-.339-.628-.767v-.04c0-.588.408-.946 1.614-1.385v1.445zM12.87-20.383v-.15h-1.385v.15c.319.03.468.13.468.319 0 .1-.02.199-.06.298l-.986 2.58-1.016-2.55c-.06-.139-.09-.279-.09-.368 0-.18.11-.25.459-.28v-.149H8.307v.15c.379.02.448.12.907 1.145l1.195 2.86c.02.059.05.129.08.208.06.18.12.26.179.26.06 0 .13-.13.279-.499l1.275-3.197c.289-.677.349-.747.648-.777zM17.252-16.448v-.26c-.17.14-.289.19-.438.19-.23 0-.299-.14-.299-.578v-1.942c0-.508-.05-.787-.19-1.016-.208-.379-.637-.578-1.244-.578-.508 0-.987.14-1.265.368-.25.21-.409.498-.409.747 0 .23.19.429.429.429s.448-.2.448-.419c0-.04-.01-.09-.02-.159a1.13 1.13 0 0 1-.03-.239c0-.27.319-.488.717-.488.488 0 .757.289.757.827v.607c-1.534.618-1.703.698-2.131 1.076-.22.2-.36.538-.36.867 0 .627.43 1.066 1.047 1.066.438 0 .847-.21 1.454-.728.05.528.23.728.638.728.338 0 .547-.12.896-.498zm-1.544-.827c0 .308-.05.398-.259.528-.239.14-.518.219-.727.219-.349 0-.628-.339-.628-.767v-.04c0-.588.409-.946 1.614-1.385v1.445zm4.085 1.225v-.15c-.657-.05-.737-.149-.737-.866v-3.536l-.04-.03-1.544.548v.149l.08-.01c.12-.02.249-.03.338-.03.24 0 .329.16.329.598v2.311c0 .717-.1.827-.787.867v.149h2.361zm-.647-5.877a.504.504 0 0 0-.509-.508.51.51 0 0 0-.508.508c0 .289.23.508.508.508.29 0 .509-.22.509-.508zm3.456 5.877v-.15c-.637-.04-.747-.139-.747-.687v-5.946l-.04-.02c-.518.169-.896.268-1.583.438v.16h.06c.109-.011.228-.02.308-.02.319 0 .419.139.419.607v4.751c0 .538-.14.668-.768.718v.149h2.351zm4.613-.398v-.26c-.17.14-.29.19-.438.19-.23 0-.3-.14-.3-.578v-1.942c0-.508-.05-.787-.189-1.016-.209-.379-.637-.578-1.245-.578-.508 0-.986.14-1.265.368-.249.21-.408.498-.408.747 0 .23.189.429.428.429.24 0 .448-.2.448-.419 0-.04-.01-.09-.02-.159a1.13 1.13 0 0 1-.03-.239c0-.27.32-.488.718-.488.488 0 .757.289.757.827v.607c-1.534.618-1.704.698-2.132 1.076-.22.2-.359.538-.359.867 0 .627.429 1.066 1.046 1.066.439 0 .847-.21 1.455-.728.05.528.229.728.637.728.339 0 .548-.12.897-.498zm-1.544-.827c0 .308-.05.398-.26.528-.238.14-.517.219-.726.219-.35 0-.628-.339-.628-.767v-.04c0-.588.408-.946 1.614-1.385v1.445zm6.226-1.196c0-1.225-.757-2.161-1.753-2.161-.608 0-1.185.359-1.385.847v-3.048l-.05-.02c-.418.149-.687.229-1.155.358l-.289.08v.16c.06-.011.1-.011.17-.011.398 0 .487.09.487.508v5.17c0 .309.847.638 1.644.638 1.315 0 2.331-1.096 2.331-2.52zm-.876.458c0 1.106-.479 1.744-1.295 1.744-.519 0-.967-.23-.967-.478v-2.51c0-.389.468-.748.987-.748.776 0 1.275.777 1.275 1.992zm3.755 1.963v-.15c-.637-.04-.747-.139-.747-.687v-5.946l-.04-.02c-.518.169-.896.268-1.583.438v.16h.06c.11-.011.229-.02.308-.02.319 0 .419.139.419.607v4.751c0 .538-.14.668-.767.718v.149h2.35zm4.433-1.564l-.159-.07c-.478.757-.906 1.046-1.544 1.046-.548 0-.966-.259-1.255-.797-.2-.388-.279-.737-.299-1.374h3.068c-.08-.648-.18-.937-.428-1.255-.299-.36-.757-.568-1.275-.568-1.235 0-2.082.996-2.082 2.45 0 1.375.717 2.232 1.863 2.232.956 0 1.693-.588 2.111-1.664zm-1.205-1.514h-2.032c.11-.787.448-1.145 1.056-1.145.608 0 .847.278.976 1.145zM48.798-20.383v-.15h-1.225v.15c.338.07.438.14.438.309 0 .149-.06.388-.17.657l-.896 2.211-.837-2.23c-.17-.459-.17-.459-.17-.588 0-.22.11-.29.579-.36v-.149h-2.023v.15c.37.04.489.15.688.687l.199.558-.906 1.982-.986-2.6c-.04-.1-.06-.199-.06-.298 0-.21.12-.29.458-.33v-.149h-1.793v.15c.23.02.309.12.528.627l1.345 3.407c.12.299.199.438.259.438.05 0 .13-.129.249-.388l1.115-2.39.907 2.35c.14.369.179.428.239.428.07 0 .12-.09.279-.488l1.374-3.446c.18-.419.21-.468.409-.538zm2.8 4.333v-.15c-.657-.05-.737-.149-.737-.866v-3.536l-.04-.03-1.544.548v.149l.08-.01c.12-.02.249-.03.338-.03.24 0 .329.16.329.598v2.311c0 .717-.1.827-.787.867v.149h2.361zm-.647-5.877a.504.504 0 0 0-.509-.508.51.51 0 0 0-.508.508c0 .289.23.508.508.508.29 0 .509-.22.509-.508zm3.675 5.22l-.13-.11c-.218.259-.377.349-.597.349-.368 0-.518-.26-.518-.897v-2.849h1.006v-.319h-1.006v-1.155c0-.1-.02-.13-.07-.13-.06.1-.13.19-.199.28-.368.547-.707.916-.966 1.065-.11.07-.17.13-.17.19 0 .03.01.05.04.07h.528v2.998c0 .836.3 1.265.877 1.265.498 0 .877-.24 1.205-.758zm4.842.657v-.15c-.538-.1-.598-.179-.598-.866v-1.982c0-1.046-.418-1.584-1.225-1.584-.588 0-1.006.239-1.464.837v-3.029l-.05-.03c-.339.12-.588.2-1.146.359l-.268.08v.16c.04-.011.07-.011.119-.011.428 0 .508.08.508.508v4.692c0 .697-.06.787-.637.867v.149h2.151v-.15c-.578-.06-.677-.179-.677-.866v-2.4c.418-.459.717-.628 1.106-.628.498 0 .746.358.746 1.056v1.972c0 .677-.099.807-.677.867v.149h2.112zM68.94-19.307c0-.986-.29-1.833-.837-2.43-.628-.688-1.464-1.047-2.42-1.047-1.903 0-3.258 1.435-3.258 3.437 0 .936.319 1.843.857 2.42a3.255 3.255 0 0 0 2.34 1.016c1.963 0 3.318-1.394 3.318-3.396zm-1.136-.01c0 .587-.13 1.275-.329 1.793-.09.249-.259.498-.488.727-.348.349-.797.528-1.325.528-.458 0-.906-.18-1.255-.488-.518-.458-.846-1.465-.846-2.57 0-1.016.278-1.982.697-2.45.388-.429.876-.648 1.424-.648.458 0 .917.18 1.275.498.538.488.847 1.424.847 2.61zm5.659.05c0-.29-.1-.538-.299-.738-.299-.298-.956-.488-1.663-.488h-1.943v.16c.518.05.578.13.578.577v2.89c0 .527-.04.607-.578.647v.169h2.072v-.17c-.558-.01-.657-.11-.657-.577v-1.186c.17.01.289.02.458.02.588 0 .996-.07 1.325-.239.438-.219.707-.627.707-1.066zm-.896.04c0 .617-.409.956-1.226.956-.13 0-.219-.01-.368-.02v-1.714c0-.15.04-.209.199-.209.966 0 1.395.319 1.395.986zm5.618 2.012h-.239c-.368.717-.677.876-1.713.876h-.2c-.328 0-.607-.02-.667-.06-.04-.03-.05-.08-.05-.199v-1.634h1.076c.588 0 .698.09.787.648h.21v-1.584h-.21c-.09.548-.2.628-.787.628h-1.076v-1.455c0-.16.02-.209.19-.209h.986c.817 0 .976.1 1.096.697h.219l-.02-.986h-3.915v.16c.518.04.598.13.598.577v2.959c0 .448-.09.548-.598.578v.169h3.974l.34-1.165zm5.46-3.278H81.9v.16c.28.02.379.05.488.11.14.089.2.328.2.726v2.162l-2.76-3.158h-1.295v.16c.31 0 .409.05.698.358v2.929c0 .667-.1.797-.698.827v.169h1.744v-.17c-.558-.02-.688-.169-.688-.826v-2.53l3.188 3.596h.18v-3.517c0-.388.069-.627.198-.717.1-.07.21-.09.488-.12v-.159zm6.176-.458l-.06-1.693h-5.618l-.06 1.693h.24c.239-1.096.468-1.275 1.583-1.275h.538v4.98c0 .847-.11.957-.936 1.007v.189h2.909v-.19c-.817-.04-.956-.169-.956-.896v-5.09h.537c1.136 0 1.355.18 1.584 1.275h.24zM95.418-20.493h-1.624v.16c.368.01.488.05.488.199 0 .07-.03.14-.09.239l-1.026 1.464-1.045-1.434a.5.5 0 0 1-.12-.29c0-.099.09-.158.289-.168.03 0 .11 0 .189-.01v-.16h-2.072v.16c.349.01.429.11 1.146 1.035l.966 1.276v1.155c0 .548-.06.628-.707.648v.169h2.26v-.17c-.627-.01-.716-.09-.706-.577v-1.325l1.045-1.454c.439-.588.628-.727 1.007-.757v-.16zm4.483 1.225c0-.288-.1-.537-.299-.737-.299-.298-.956-.488-1.664-.488h-1.942v.16c.518.05.578.13.578.577v2.89c0 .527-.04.607-.578.647v.169h2.072v-.17c-.558-.01-.657-.11-.657-.577v-1.186c.169.01.288.02.458.02.588 0 .996-.07 1.325-.239.438-.219.707-.627.707-1.066zm-.897.04c0 .618-.408.957-1.225.957-.13 0-.22-.01-.368-.02v-1.714c0-.15.04-.209.199-.209.966 0 1.394.319 1.394.986zm5.619 2.013h-.239c-.369.717-.677.876-1.713.876h-.2c-.328 0-.607-.02-.667-.06-.04-.03-.05-.08-.05-.199v-1.634h1.076c.588 0 .697.09.787.648h.21v-1.584h-.21c-.09.548-.2.628-.787.628h-1.076v-1.455c0-.16.02-.209.19-.209h.986c.816 0 .976.1 1.095.697h.22l-.02-.986h-3.915v.16c.518.04.597.13.597.577v2.959c0 .448-.089.548-.597.578v.169h3.974l.339-1.165zM110.232-14.446c-.797-.628-1.076-.977-1.345-1.724-.239-.667-.348-1.424-.348-2.42 0-1.046.129-1.863.398-2.48.279-.618.578-.977 1.295-1.554l-.09-.16c-.736.478-1.036.737-1.404 1.196-.707.866-1.056 1.862-1.056 3.028 0 1.265.369 2.24 1.245 3.257.409.478.668.697 1.186 1.016l.119-.16zm4.692-2.002v-.26c-.169.14-.288.19-.438.19-.229 0-.299-.14-.299-.578v-1.942c0-.508-.05-.787-.189-1.016-.209-.379-.637-.578-1.245-.578-.508 0-.987.14-1.265.368-.249.21-.409.498-.409.747 0 .23.19.429.429.429s.448-.2.448-.419c0-.04-.01-.09-.02-.159-.02-.09-.03-.17-.03-.239 0-.27.319-.488.717-.488.488 0 .757.289.757.827v.607c-1.534.618-1.703.698-2.131 1.076-.219.2-.359.538-.359.867 0 .627.428 1.066 1.046 1.066.438 0 .847-.21 1.454-.728.05.528.229.728.638.728.338 0 .548-.12.896-.498zm-1.544-.827c0 .308-.049.398-.259.528-.239.14-.518.219-.727.219-.348 0-.628-.339-.628-.767v-.04c0-.588.409-.946 1.614-1.385v1.445zm6.396 1.225v-.15c-.488-.05-.608-.169-.608-.657v-2.281c0-.936-.438-1.494-1.175-1.494-.458 0-.767.17-1.444.807v-.787l-.07-.02c-.488.18-.827.289-1.375.448v.17c.06-.03.16-.04.269-.04.279 0 .369.149.369.637v2.47c0 .568-.11.708-.618.748v.149h2.112v-.15c-.508-.04-.657-.159-.657-.518v-2.799c.478-.448.697-.567 1.026-.567.488 0 .727.308.727.966v2.082c0 .627-.13.797-.628.837v.149h2.072zm5.041-.418v-.16c-.179.01-.199.01-.229.01-.359 0-.438-.11-.438-.568v-5.647l-.05-.02c-.478.169-.827.268-1.465.438v.16c.08-.011.14-.011.22-.011.368 0 .458.1.458.508v1.554c-.378-.319-.648-.428-1.046-.428-1.146 0-2.072 1.125-2.072 2.54 0 1.275.747 2.142 1.843 2.142.558 0 .936-.2 1.275-.668v.638l.04.03 1.464-.518zm-1.504-.598c0 .07-.07.19-.169.299a.935.935 0 0 1-.718.299c-.826 0-1.374-.797-1.374-2.023 0-1.125.488-1.862 1.245-1.862.528 0 1.016.468 1.016.996v2.291zM132.076-18.38c0-1.306-.917-2.252-2.192-2.252-1.295 0-2.201.956-2.201 2.33 0 1.345.926 2.352 2.181 2.352s2.212-1.056 2.212-2.43zm-.897.348c0 1.125-.448 1.803-1.195 1.803-.389 0-.757-.24-.966-.638-.279-.518-.439-1.215-.439-1.922 0-.947.468-1.564 1.176-1.564.836 0 1.424.956 1.424 2.32zm3.975 1.324l-.129-.109c-.219.259-.379.349-.598.349-.368 0-.518-.26-.518-.897v-2.849h1.006v-.319h-1.006v-1.155c0-.1-.02-.13-.07-.13-.059.1-.129.19-.199.28-.368.547-.707.916-.966 1.065-.11.07-.17.13-.17.19 0 .03.01.05.04.07h.528v2.998c0 .836.299 1.265.877 1.265.498 0 .876-.24 1.205-.758zm4.842.658v-.15c-.538-.1-.598-.179-.598-.866v-1.982c0-1.046-.418-1.584-1.225-1.584-.588 0-1.006.239-1.464.837v-3.029l-.05-.03c-.339.12-.588.2-1.146.359l-.269.08v.16c.04-.011.07-.011.12-.011.428 0 .508.08.508.508v4.692c0 .697-.06.787-.638.867v.149h2.152v-.15c-.578-.06-.677-.179-.677-.866v-2.4c.418-.459.717-.628 1.105-.628.498 0 .747.358.747 1.056v1.972c0 .677-.099.807-.677.867v.149h2.112zm4.353-1.564l-.159-.07c-.478.757-.906 1.046-1.544 1.046-.548 0-.966-.259-1.255-.797-.199-.388-.279-.737-.299-1.374h3.068c-.079-.648-.179-.937-.428-1.255-.299-.36-.757-.568-1.275-.568-1.236 0-2.082.996-2.082 2.45 0 1.375.717 2.232 1.863 2.232.956 0 1.693-.588 2.111-1.664zm-1.205-1.514h-2.032c.109-.787.448-1.145 1.056-1.145s.847.278.976 1.145zm4.742-.976c0-.329-.209-.528-.548-.528-.418 0-.707.229-1.195.936v-.916l-.05-.02c-.528.219-.886.349-1.474.538v.159c.139-.03.229-.04.349-.04.249 0 .338.16.338.598v2.49c0 .498-.07.568-.707.688v.149h2.391v-.15c-.678-.03-.847-.179-.847-.747v-2.24c0-.32.428-.818.697-.818.06 0 .15.05.259.15.16.14.269.199.399.199.239 0 .388-.17.388-.448zm2.82 1.594c0-1.275-.369-2.242-1.246-3.258-.408-.478-.667-.697-1.185-1.016l-.12.16c.797.627 1.066.976 1.345 1.723.24.667.349 1.424.349 2.42 0 1.036-.129 1.863-.399 2.471-.278.627-.577.986-1.295 1.564l.09.16c.737-.479 1.036-.738 1.405-1.196.707-.867 1.056-1.863 1.056-3.028zM157.485-22.236c0-.358-.439-.617-1.036-.617-.628 0-1.146.268-1.405.717-.259.448-.338.807-.348 1.603h-.817v.32h.817v3.127c0 .727-.11.847-.827.887v.149h2.59v-.15c-.817-.03-.927-.139-.927-.886v-3.128h1.216v-.319h-1.226v-1.155c0-.588.19-.887.568-.887.219 0 .349.1.528.389.159.269.279.358.448.358.24 0 .419-.179.419-.408z"/><path d="M161.279-18.38c0-1.306-.916-2.252-2.191-2.252-1.295 0-2.202.956-2.202 2.33 0 1.345.927 2.352 2.182 2.352s2.211-1.056 2.211-2.43zm-.896.348c0 1.125-.449 1.803-1.196 1.803-.388 0-.757-.24-.966-.638-.279-.518-.438-1.215-.438-1.922 0-.947.468-1.564 1.175-1.564.837 0 1.425.956 1.425 2.32zm6.027 1.982v-.15c-.488-.05-.608-.169-.608-.657v-2.281c0-.936-.438-1.494-1.175-1.494-.458 0-.767.17-1.445.807v-.787l-.069-.02c-.488.18-.827.289-1.375.448v.17c.06-.03.159-.04.269-.04.279 0 .369.149.369.637v2.47c0 .568-.11.708-.618.748v.149h2.112v-.15c-.508-.04-.658-.159-.658-.518v-2.799c.479-.448.698-.567 1.026-.567.489 0 .728.308.728.966v2.082c0 .627-.13.797-.628.837v.149h2.072zm2.929-.658l-.129-.109c-.219.259-.379.349-.598.349-.369 0-.518-.26-.518-.897v-2.849h1.006v-.319h-1.006v-1.155c0-.1-.02-.13-.07-.13-.059.1-.129.19-.199.28-.368.547-.707.916-.966 1.065-.11.07-.17.13-.17.19 0 .03.01.05.04.07h.528v2.998c0 .836.299 1.265.877 1.265.498 0 .876-.24 1.205-.758zm3.457-.517c0-.498-.229-.827-.837-1.186l-1.075-.637c-.279-.16-.429-.409-.429-.678 0-.408.309-.677.767-.677.568 0 .867.329 1.096 1.225h.149l-.04-1.355h-.109l-.02.02c-.09.07-.1.08-.139.08-.06 0-.16-.02-.269-.07-.21-.08-.439-.12-.678-.12-.817 0-1.374.499-1.374 1.226 0 .558.318.946 1.165 1.434l.578.33c.349.198.518.437.518.746 0 .439-.319.717-.827.717-.687 0-1.036-.378-1.265-1.394h-.159v1.554h.129c.07-.1.11-.12.229-.12.11 0 .219.02.458.08.279.06.528.1.737.1.758 0 1.395-.578 1.395-1.275zm2.212.747c0-.31-.259-.568-.558-.568s-.548.259-.548.568c0 .289.249.538.538.538.309 0 .568-.25.568-.538zM183.89-17.723c0-.827-.548-1.465-1.863-2.182-1.046-.568-1.464-1.006-1.464-1.554s.418-.916 1.036-.916c.448 0 .866.189 1.215.547.309.32.448.578.608 1.166h.249l-.219-2.122h-.21c-.039.22-.149.339-.318.339-.1 0-.26-.04-.439-.12a3.049 3.049 0 0 0-1.076-.219c-.388 0-.806.16-1.125.419-.389.318-.578.747-.578 1.295 0 .787.438 1.344 1.554 1.932.717.389 1.235.787 1.484 1.165.09.14.14.34.14.588 0 .657-.498 1.116-1.225 1.116-.897 0-1.515-.548-2.013-1.763h-.229l.299 2.111h.219c.01-.189.13-.328.279-.328.11 0 .279.04.468.11.379.149.777.228 1.176.228 1.155 0 2.032-.787 2.032-1.812zm4.871.109l-.159-.07c-.478.757-.906 1.046-1.544 1.046-.548 0-.966-.259-1.255-.797-.199-.388-.279-.737-.299-1.374h3.068c-.079-.648-.179-.937-.428-1.255-.299-.36-.757-.568-1.275-.568-1.235 0-2.082.996-2.082 2.45 0 1.375.717 2.232 1.863 2.232.956 0 1.693-.588 2.111-1.664zm-1.205-1.514h-2.032c.11-.787.448-1.145 1.056-1.145s.847.278.976 1.145zm5.629 1.514l-.16-.07c-.478.757-.906 1.046-1.543 1.046-.548 0-.967-.259-1.256-.797-.199-.388-.278-.737-.298-1.374h3.068c-.08-.648-.18-.937-.429-1.255-.298-.36-.757-.568-1.275-.568-1.235 0-2.082.996-2.082 2.45 0 1.375.718 2.232 1.863 2.232.956 0 1.694-.588 2.112-1.664zm-1.206-1.514h-2.031c.109-.787.448-1.145 1.056-1.145.607 0 .846.278.975 1.145zM198.651-16.708l-.129-.109c-.219.259-.378.349-.598.349-.368 0-.518-.26-.518-.897v-2.849h1.006v-.319h-1.006v-1.155c0-.1-.02-.13-.069-.13-.06.1-.13.19-.2.28-.368.547-.707.916-.966 1.065-.109.07-.169.13-.169.19 0 .03.01.05.04.07h.528v2.998c0 .836.299 1.265.876 1.265.498 0 .877-.24 1.205-.758zm4.842.658v-.15c-.538-.1-.598-.179-.598-.866v-1.982c0-1.046-.418-1.584-1.225-1.584-.588 0-1.006.239-1.464.837v-3.029l-.05-.03c-.339.12-.588.2-1.146.359l-.268.08v.16c.039-.011.069-.011.119-.011.428 0 .508.08.508.508v4.692c0 .697-.06.787-.637.867v.149h2.151v-.15c-.578-.06-.677-.179-.677-.866v-2.4c.418-.459.717-.628 1.106-.628.498 0 .746.358.746 1.056v1.972c0 .677-.099.807-.677.867v.149h2.112zm4.354-1.564l-.16-.07c-.478.757-.906 1.046-1.544 1.046-.548 0-.966-.259-1.255-.797-.199-.388-.279-.737-.299-1.374h3.068c-.079-.648-.179-.937-.428-1.255-.299-.36-.757-.568-1.275-.568-1.235 0-2.082.996-2.082 2.45 0 1.375.717 2.232 1.863 2.232.956 0 1.693-.588 2.112-1.664zm-1.206-1.514h-2.032c.11-.787.448-1.145 1.056-1.145s.847.278.976 1.145zM215.426-16.468v-.16c-.18.01-.199.01-.229.01-.359 0-.439-.11-.439-.568v-5.647l-.049-.02c-.479.169-.827.268-1.465.438v.16c.08-.011.14-.011.22-.011.368 0 .458.1.458.508v1.554c-.379-.319-.648-.428-1.046-.428-1.146 0-2.072 1.125-2.072 2.54 0 1.275.747 2.142 1.843 2.142.558 0 .936-.2 1.275-.668v.638l.039.03 1.465-.518zm-1.504-.598c0 .07-.07.19-.17.299a.932.932 0 0 1-.717.299c-.827 0-1.375-.797-1.375-2.023 0-1.125.489-1.862 1.245-1.862.529 0 1.017.468 1.017.996v2.291zm6.276-1.315c0-1.305-.917-2.251-2.192-2.251-1.295 0-2.201.956-2.201 2.33 0 1.345.926 2.352 2.181 2.352 1.256 0 2.212-1.056 2.212-2.43zm-.897.349c0 1.125-.448 1.803-1.195 1.803-.388 0-.757-.24-.966-.638-.279-.518-.439-1.215-.439-1.922 0-.947.469-1.564 1.176-1.564.837 0 1.424.956 1.424 2.32zm5.3.518l-.139-.09c-.478.697-.837.936-1.405.936-.916 0-1.544-.796-1.544-1.942 0-1.036.548-1.733 1.355-1.733.359 0 .488.11.588.478l.059.219c.08.289.26.458.479.458.259 0 .468-.19.468-.418 0-.558-.697-1.026-1.534-1.026-.468 0-.946.18-1.345.508-.538.448-.837 1.136-.837 1.962 0 1.285.787 2.212 1.893 2.212.428 0 .807-.14 1.146-.419.298-.239.498-.528.816-1.145zm5.091 1.105v-.14h-.05c-.458 0-.568-.109-.568-.567v-3.417h-1.573v.17c.617.03.737.13.737.627v2.341c0 .269-.05.419-.17.508-.279.24-.587.359-.896.359-.388 0-.707-.339-.707-.757v-3.248h-1.455v.14c.479.03.618.18.618.637v2.51c0 .788.478 1.296 1.205 1.296.369 0 .757-.16 1.026-.429l.429-.428v.827l.04.02c.497-.2.856-.31 1.364-.449zm7.93.359v-.15l-.259-.02c-.299-.02-.429-.198-.429-.587v-2.052c0-1.175-.388-1.773-1.155-1.773-.578 0-1.086.259-1.624.837-.179-.568-.518-.837-1.056-.837-.438 0-.717.14-1.544.767v-.747l-.069-.02c-.508.19-.847.299-1.395.448v.17c.13-.03.209-.04.319-.04.259 0 .348.159.348.637v2.52c0 .538-.139.688-.697.698v.149h2.212v-.15c-.528-.02-.678-.13-.678-.518v-2.809s.08-.119.15-.189c.249-.229.677-.398 1.026-.398.438 0 .657.348.657 1.046v2.161c0 .558-.11.668-.677.708v.149h2.231v-.15c-.568-.01-.717-.179-.717-.796v-2.51c.299-.429.628-.608 1.086-.608.568 0 .747.269.747 1.096v2.101c0 .568-.08.648-.658.718v.149h2.182zm4.254-1.564l-.159-.07c-.478.757-.906 1.046-1.544 1.046-.548 0-.966-.259-1.255-.797-.199-.388-.279-.737-.299-1.374h3.068c-.08-.648-.179-.937-.428-1.255-.299-.36-.757-.568-1.275-.568-1.236 0-2.082.996-2.082 2.45 0 1.375.717 2.232 1.863 2.232.956 0 1.693-.588 2.111-1.664zm-1.205-1.514h-2.032c.109-.787.448-1.145 1.056-1.145.607 0 .847.278.976 1.145zm6.236 3.078v-.15c-.488-.05-.607-.169-.607-.657v-2.281c0-.936-.439-1.494-1.176-1.494-.458 0-.767.17-1.444.807v-.787l-.07-.02c-.488.18-.827.289-1.374.448v.17a.666.666 0 0 1 .269-.04c.278 0 .368.149.368.637v2.47c0 .568-.11.708-.617.748v.149h2.111v-.15c-.508-.04-.657-.159-.657-.518v-2.799c.478-.448.697-.567 1.026-.567.488 0 .727.308.727.966v2.082c0 .627-.13.797-.627.837v.149h2.071zm2.929-.658l-.129-.109c-.219.259-.378.349-.598.349-.368 0-.518-.26-.518-.897v-2.849h1.006v-.319h-1.006v-1.155c0-.1-.02-.13-.069-.13-.06.1-.13.19-.2.28-.368.547-.707.916-.966 1.065-.109.07-.169.13-.169.19 0 .03.01.05.04.07h.528v2.998c0 .836.299 1.265.876 1.265.498 0 .877-.24 1.205-.758zm4.394.26v-.26c-.17.14-.289.19-.438.19-.23 0-.299-.14-.299-.578v-1.942c0-.508-.05-.787-.19-1.016-.209-.379-.637-.578-1.245-.578-.508 0-.986.14-1.265.368-.249.21-.408.498-.408.747 0 .23.189.429.428.429s.448-.2.448-.419c0-.04-.01-.09-.02-.159a1.172 1.172 0 0 1-.029-.239c0-.27.318-.488.717-.488.488 0 .757.289.757.827v.607c-1.534.618-1.703.698-2.132 1.076-.219.2-.359.538-.359.867 0 .627.429 1.066 1.046 1.066.439 0 .847-.21 1.455-.728.05.528.229.728.637.728.339 0 .548-.12.897-.498zm-1.544-.827c0 .308-.05.398-.259.528-.239.14-.518.219-.727.219-.349 0-.628-.339-.628-.767v-.04c0-.588.408-.946 1.614-1.385v1.445zm4.343.567l-.129-.109c-.219.259-.378.349-.598.349-.368 0-.518-.26-.518-.897v-2.849h1.006v-.319h-1.006v-1.155c0-.1-.02-.13-.069-.13-.06.1-.13.19-.2.28-.368.547-.707.916-.966 1.065-.109.07-.169.13-.169.19 0 .03.01.05.04.07h.527v2.998c0 .836.3 1.265.877 1.265.498 0 .877-.24 1.205-.758zm2.511.658v-.15c-.657-.05-.737-.149-.737-.866v-3.536l-.04-.03-1.544.548v.149l.08-.01c.119-.02.249-.03.338-.03.239 0 .329.16.329.598v2.311c0 .717-.1.827-.787.867v.149h2.361zm-.647-5.877a.504.504 0 0 0-.508-.508.51.51 0 0 0-.509.508c0 .289.229.508.509.508.288 0 .508-.22.508-.508zm5.578 3.546c0-1.305-.916-2.251-2.191-2.251-1.295 0-2.202.956-2.202 2.33 0 1.345.927 2.352 2.182 2.352s2.211-1.056 2.211-2.43zm-.896.349c0 1.125-.449 1.803-1.196 1.803-.388 0-.757-.24-.966-.638-.279-.518-.438-1.215-.438-1.922 0-.947.468-1.564 1.175-1.564.837 0 1.425.956 1.425 2.32zm6.027 1.982v-.15c-.488-.05-.608-.169-.608-.657v-2.281c0-.936-.438-1.494-1.175-1.494-.458 0-.767.17-1.445.807v-.787l-.069-.02c-.488.18-.827.289-1.375.448v.17c.06-.03.159-.04.269-.04.279 0 .368.149.368.637v2.47c0 .568-.109.708-.617.748v.149h2.112v-.15c-.508-.04-.658-.159-.658-.518v-2.799c.478-.448.698-.567 1.026-.567.488 0 .727.308.727.966v2.082c0 .627-.129.797-.627.837v.149h2.072zM277.691-21.738c0-.1-.06-.17-.18-.2a9.92 9.92 0 0 0-1.384-.129c-.896 0-1.534.528-1.534 1.255v.608h-.877c-.179 0-.268.07-.268.2 0 .139.09.209.268.209h.877v3.337h-.976c-.18 0-.27.07-.27.199 0 .14.09.209.27.209h3.157c.17 0 .27-.07.27-.21 0-.129-.09-.198-.27-.198h-1.773v-3.337h1.883c.18 0 .27-.07.27-.21 0-.13-.09-.199-.27-.199h-1.883v-.608c0-.497.449-.846 1.106-.846.22 0 .608.03.877.06.478.06.498.06.498.06.12 0 .209-.08.209-.2zm5.848 3.646c0-1.265-.996-2.251-2.271-2.251-1.265 0-2.271.996-2.271 2.221 0 1.245 1.006 2.231 2.27 2.231 1.256 0 2.272-.986 2.272-2.201zm-.408 0c0 .986-.837 1.793-1.863 1.793-1.036 0-1.863-.807-1.863-1.823 0-1.006.827-1.813 1.863-1.813 1.046 0 1.863.797 1.863 1.843zm6.515 1.833c0-.13-.09-.2-.269-.2h-.339v-2.53c0-.767-.677-1.354-1.564-1.354-.617 0-.976.189-1.554.826v-.687h-.747c-.179 0-.269.07-.269.2 0 .139.09.209.27.209h.338v3.337h-.448c-.19 0-.28.07-.28.199 0 .14.09.209.28.209h1.305c.179 0 .269-.07.269-.21 0-.129-.09-.198-.27-.198h-.448v-2.52c.449-.598.738-.957 1.514-.957.618 0 1.196.379 1.196 1.016v2.46h-.339c-.179 0-.269.07-.269.2 0 .14.09.209.27.209h1.085c.18 0 .269-.07.269-.21zm5.56-.3c0-.099-.09-.198-.19-.198-.05 0-.08.01-.16.06-.388.229-1.095.398-1.653.398-.687 0-1.116-.329-1.116-.837v-2.66h2.192c.179 0 .269-.069.269-.209 0-.13-.09-.199-.27-.199h-2.19v-1.185c0-.19-.06-.27-.2-.27s-.21.09-.21.27v1.185h-.736c-.19 0-.28.07-.28.2 0 .139.09.209.28.209h.737v2.679c0 .747.607 1.225 1.544 1.225.846 0 1.982-.378 1.982-.667zm5.957-.647c0-.707-.608-1.095-1.793-1.285-.857-.139-1.475-.099-1.475-.697 0-.428.558-.747 1.295-.747.757 0 1.275.289 1.325.737.02.16.09.23.21.23.129 0 .198-.09.198-.27v-.687c0-.19-.07-.279-.199-.279-.13 0-.209.11-.209.279v.04c-.348-.309-.797-.458-1.365-.458-.975 0-1.703.478-1.703 1.125 0 .588.339.947 1.753 1.106 1.076.12 1.514.438 1.514.897 0 .527-.657.916-1.534.916-.846 0-1.534-.369-1.534-.827v-.07c0-.129-.08-.219-.199-.219-.14 0-.21.09-.21.27v.826c0 .18.07.269.21.269.13 0 .2-.09.2-.27v-.108c.418.368.916.537 1.563.537 1.126 0 1.953-.557 1.953-1.315zm6.416-.926c0-1.185-.937-2.211-2.172-2.211-.757 0-1.255.269-1.783.956v-.817h-.946c-.18 0-.27.07-.27.2 0 .139.09.209.27.209h.537v5.19h-.537c-.18 0-.27.07-.27.199 0 .14.09.209.27.209h1.922c.18 0 .27-.07.27-.21 0-.129-.09-.199-.27-.199h-.976v-2.25c.458.657 1.016.955 1.783.955 1.225 0 2.172-1.046 2.172-2.23zm-.409.02c0 .926-.797 1.803-1.773 1.803-.986 0-1.773-.877-1.773-1.823 0-.936.787-1.803 1.773-1.803 1.006 0 1.773.857 1.773 1.823zm6.177.08c0-.459-.03-.648-.17-.976-.358-.827-1.155-1.335-2.111-1.335-1.275 0-2.271.926-2.271 2.131 0 1.295 1.065 2.321 2.41 2.321.907 0 2.102-.468 2.102-.817 0-.109-.09-.199-.19-.199-.05 0-.09.02-.159.07-.398.319-1.125.538-1.743.538-1.076 0-1.873-.687-2.012-1.733h4.144zm-.418-.409h-3.726c.18-.916.897-1.494 1.863-1.494s1.703.588 1.863 1.494zm6.545 1.514c0-.1-.09-.189-.19-.189-.07 0-.1.02-.179.1-.518.478-1.136.717-1.863.717-1.085 0-1.853-.747-1.853-1.793 0-1.096.758-1.843 1.853-1.843.837 0 1.544.418 1.584.947.02.169.08.239.21.239s.199-.09.199-.27v-.906c0-.19-.07-.279-.2-.279-.139 0-.209.09-.209.279v.13c-.408-.36-.946-.548-1.554-.548-1.334 0-2.29.946-2.29 2.26 0 1.276.936 2.192 2.24 2.192.658 0 1.315-.199 1.823-.547.28-.19.429-.37.429-.489zm4.374.369c0-.369-.3-.648-.688-.648h-.1c-.388 0-.687.28-.687.648 0 .369.299.657.687.657h.1c.388 0 .688-.278.688-.657zm7.64-1.574c0-1.185-.936-2.211-2.171-2.211-.757 0-1.255.269-1.783.956v-.817h-.946c-.18 0-.27.07-.27.2 0 .139.09.209.27.209h.537v5.19h-.537c-.18 0-.27.07-.27.199 0 .14.09.209.27.209h1.922c.18 0 .27-.07.27-.21 0-.129-.09-.199-.27-.199h-.976v-2.25c.458.657 1.016.955 1.783.955 1.225 0 2.171-1.046 2.171-2.23zm-.408.02c0 .926-.797 1.803-1.773 1.803-.986 0-1.773-.877-1.773-1.823 0-.936.787-1.803 1.773-1.803 1.006 0 1.773.857 1.773 1.823zm6.805 1.853c0-.13-.09-.2-.27-.2h-.537v-5.608h-.947c-.179 0-.269.07-.269.2 0 .14.09.209.269.209h.538v2.35c-.488-.707-1.066-1.035-1.813-1.035-1.185 0-2.151.996-2.151 2.221s.966 2.231 2.151 2.231c.747 0 1.345-.348 1.813-1.046v.887h.946c.18 0 .27-.07.27-.21zm-1.216-1.843c0 .996-.797 1.803-1.773 1.803-.996 0-1.783-.807-1.783-1.823 0-1.006.787-1.813 1.773-1.813 1.006 0 1.783.797 1.783 1.833zm6.774-3.636c0-.1-.06-.17-.179-.2a9.922 9.922 0 0 0-1.385-.129c-.896 0-1.534.528-1.534 1.255v.608h-.876c-.18 0-.269.07-.269.2 0 .139.09.209.269.209h.876v3.337h-.976c-.179 0-.269.07-.269.199 0 .14.09.209.27.209h3.157c.17 0 .269-.07.269-.21 0-.129-.09-.198-.269-.198h-1.773v-3.337h1.883c.179 0 .269-.07.269-.21 0-.13-.09-.199-.27-.199h-1.882v-.608c0-.497.448-.846 1.106-.846.219 0 .607.03.876.06.478.06.498.06.498.06.12 0 .21-.08.21-.2zM7.8-10.28c0-.36-.438-.618-1.036-.618-.627 0-1.145.268-1.404.717-.26.448-.34.807-.35 1.604h-.816v.318h.817v3.128c0 .727-.11.847-.827.887v.149h2.59v-.15c-.817-.03-.926-.139-.926-.886v-3.128h1.215v-.318H5.838v-1.156c0-.588.19-.887.568-.887.219 0 .348.1.527.389.16.269.28.359.449.359.239 0 .418-.18.418-.409z"/><path d="M11.595-6.426c0-1.305-.917-2.251-2.192-2.251-1.295 0-2.201.956-2.201 2.33 0 1.345.926 2.352 2.181 2.352 1.256 0 2.212-1.056 2.212-2.43zm-.897.349c0 1.125-.448 1.803-1.195 1.803-.389 0-.757-.24-.966-.638-.28-.518-.439-1.215-.439-1.922 0-.947.468-1.564 1.176-1.564.836 0 1.424.956 1.424 2.32zm4.533-2.072c0-.329-.21-.528-.548-.528-.418 0-.707.229-1.195.936v-.916l-.05-.02c-.528.219-.886.349-1.474.538v.159c.14-.03.229-.04.349-.04.249 0 .338.16.338.598v2.49c0 .498-.07.568-.707.688v.149h2.39v-.15c-.677-.03-.846-.179-.846-.747v-2.24c0-.32.428-.818.697-.818.06 0 .15.05.26.15.159.14.268.2.398.2.239 0 .388-.17.388-.449zM21.506-10.28c0-.36-.439-.618-1.036-.618-.628 0-1.146.268-1.405.717-.259.448-.339.807-.349 1.604H17.9v.318h.816v3.128c0 .727-.109.847-.826.887v.149h2.59v-.15c-.817-.03-.927-.139-.927-.886v-3.128h1.216v-.318h-1.226v-1.156c0-.588.19-.887.568-.887.22 0 .349.1.528.389.16.269.279.359.448.359.24 0 .419-.18.419-.409zm4.274 5.826v-.14h-.05c-.459 0-.568-.108-.568-.567v-3.416h-1.574v.169c.618.03.737.13.737.627v2.341c0 .27-.05.419-.17.508-.278.24-.587.359-.896.359-.388 0-.707-.339-.707-.757v-3.247h-1.454v.139c.478.03.617.18.617.637v2.51c0 .788.478 1.296 1.206 1.296.368 0 .757-.16 1.025-.429l.429-.428v.827l.04.02c.498-.2.856-.309 1.365-.449zm2.77.359v-.15c-.638-.04-.748-.139-.748-.687v-5.946l-.04-.02c-.518.169-.896.268-1.583.438v.16h.06c.109-.01.228-.02.308-.02.319 0 .419.139.419.607v4.751c0 .538-.14.668-.768.718v.149h2.351zm2.769 0v-.15c-.638-.04-.747-.139-.747-.687v-5.946l-.04-.02c-.518.169-.897.268-1.584.438v.16h.06c.11-.01.229-.02.309-.02.318 0 .418.139.418.607v4.751c0 .538-.14.668-.767.718v.149h2.35zM36.537-4.095v-.15c-.657-.05-.737-.149-.737-.866v-3.536l-.04-.03-1.544.548v.149l.08-.01c.12-.02.249-.03.339-.03.239 0 .328.16.328.598v2.311c0 .717-.1.827-.787.867v.149h2.361zm-.647-5.877a.504.504 0 0 0-.508-.508.51.51 0 0 0-.508.508c0 .289.229.508.508.508.289 0 .508-.22.508-.508zm5.728 5.877v-.15c-.488-.05-.608-.169-.608-.657v-2.281c0-.936-.438-1.494-1.175-1.494-.458 0-.767.17-1.445.807v-.787l-.07-.02c-.487.18-.826.289-1.374.448v.17a.67.67 0 0 1 .269-.04c.279 0 .368.149.368.637v2.47c0 .568-.11.708-.617.748v.149h2.112v-.15c-.508-.04-.658-.159-.658-.517v-2.8c.478-.448.698-.567 1.026-.567.488 0 .727.308.727.966v2.082c0 .627-.13.797-.627.837v.149h2.072zm3.965-6.186c0-.358-.438-.617-1.036-.617-.628 0-1.145.268-1.404.717-.26.448-.34.807-.35 1.604h-.816v.318h.817v3.128c0 .727-.11.847-.827.887v.149h2.59v-.15c-.817-.03-.926-.139-.926-.886v-3.128h1.215v-.318H43.62v-1.156c0-.588.189-.887.567-.887.22 0 .35.1.528.389.16.269.28.359.449.359.239 0 .418-.18.418-.409z"/><path d="M49.377-6.426c0-1.305-.917-2.251-2.192-2.251-1.295 0-2.201.956-2.201 2.33 0 1.345.926 2.352 2.181 2.352 1.256 0 2.212-1.056 2.212-2.43zm-.897.349c0 1.125-.448 1.803-1.195 1.803-.388 0-.757-.24-.966-.638-.28-.518-.439-1.215-.439-1.922 0-.947.468-1.564 1.176-1.564.836 0 1.424.956 1.424 2.32zm4.533-2.072c0-.329-.209-.528-.548-.528-.418 0-.707.229-1.195.936v-.916l-.05-.02c-.528.219-.886.349-1.474.538v.159c.14-.03.229-.04.349-.04.249 0 .338.16.338.598v2.49c0 .498-.07.568-.707.688v.149h2.39v-.15c-.677-.03-.846-.179-.846-.747v-2.24c0-.32.428-.818.697-.818.06 0 .15.05.26.15.159.14.268.2.398.2.239 0 .388-.17.388-.449zM60.901-4.095v-.15l-.259-.02c-.299-.02-.428-.198-.428-.587v-2.052c0-1.175-.389-1.773-1.156-1.773-.577 0-1.086.259-1.623.837-.18-.568-.519-.837-1.056-.837-.438 0-.718.14-1.544.767v-.747l-.07-.02a14.3 14.3 0 0 1-1.394.448v.17c.129-.03.209-.04.318-.04.259 0 .349.159.349.637v2.52c0 .538-.14.688-.697.698v.149h2.21v-.15c-.527-.02-.676-.129-.676-.517v-2.81s.08-.119.149-.189c.249-.229.677-.398 1.026-.398.438 0 .657.348.657 1.046v2.161c0 .558-.11.668-.677.708v.149h2.231v-.15c-.567-.01-.717-.179-.717-.796v-2.51c.299-.429.628-.608 1.086-.608.568 0 .747.269.747 1.096v2.101c0 .568-.08.648-.657.718v.149H60.9zm4.434-.398v-.26c-.17.14-.289.19-.438.19-.23 0-.3-.14-.3-.578v-1.942c0-.508-.05-.787-.188-1.016-.21-.379-.638-.578-1.246-.578-.508 0-.986.14-1.265.368-.249.21-.408.498-.408.747 0 .23.19.429.428.429s.448-.2.448-.419c0-.04-.01-.09-.02-.159a1.13 1.13 0 0 1-.03-.239c0-.269.32-.488.718-.488.488 0 .757.289.757.827v.607c-1.534.618-1.703.698-2.132 1.076-.219.2-.359.538-.359.867 0 .627.429 1.066 1.046 1.066.439 0 .847-.21 1.455-.727.05.527.229.727.637.727.339 0 .548-.12.897-.498zM63.79-5.32c0 .308-.05.398-.26.528-.238.14-.517.219-.726.219-.349 0-.628-.339-.628-.767v-.04c0-.588.408-.946 1.614-1.385v1.445zm4.343.568l-.129-.11c-.22.259-.378.349-.598.349-.368 0-.518-.26-.518-.897v-2.849h1.006v-.318H66.89v-1.156c0-.1-.02-.13-.07-.13-.059.1-.129.19-.199.28-.368.547-.707.916-.966 1.065-.11.07-.17.13-.17.19 0 .03.01.05.04.07h.529v2.998c0 .836.299 1.265.876 1.265.498 0 .877-.24 1.205-.757zm2.511.657v-.15c-.657-.05-.737-.149-.737-.866v-3.536l-.04-.03-1.544.548v.149l.08-.01c.12-.02.249-.03.338-.03.24 0 .33.16.33.598v2.311c0 .717-.1.827-.788.867v.149h2.361zm-.647-5.877a.504.504 0 0 0-.508-.508.51.51 0 0 0-.509.508c0 .289.23.508.509.508.288 0 .508-.22.508-.508zm5.578 3.546c0-1.305-.916-2.251-2.191-2.251-1.295 0-2.202.956-2.202 2.33 0 1.345.927 2.352 2.182 2.352s2.211-1.056 2.211-2.43zm-.896.349c0 1.125-.449 1.803-1.196 1.803-.388 0-.757-.24-.966-.638-.279-.518-.438-1.215-.438-1.922 0-.947.468-1.564 1.175-1.564.837 0 1.425.956 1.425 2.32zm6.027 1.982v-.15c-.488-.05-.608-.169-.608-.657v-2.281c0-.936-.438-1.494-1.175-1.494-.458 0-.767.17-1.445.807v-.787l-.07-.02c-.487.18-.826.289-1.374.448v.17a.67.67 0 0 1 .269-.04c.279 0 .369.149.369.637v2.47c0 .568-.11.708-.618.748v.149h2.112v-.15c-.508-.04-.658-.159-.658-.517v-2.8c.479-.448.698-.567 1.026-.567.488 0 .728.308.728.966v2.082c0 .627-.13.797-.628.837v.149h2.072zm1.953-.428a.572.572 0 0 0-.558-.568.564.564 0 0 0-.548.568c0 .289.25.538.538.538.309 0 .568-.25.568-.538z"/></svg>