<svg xmlns="http://www.w3.org/2000/svg" width="300.307" height="49.747" viewBox="0 -37.31 225.23 37.31"><path d="M7.592-24.583c-.01.807-.458 1.534-.897 1.813-.199.149-.339.348-.229.557.12.22.488.17.737-.03.399-.308.857-1.115.568-2.33l-.18-.01zm3.048-4.96v1.583H8.438v-1.584h2.202zm2.839 0v1.583h-2.202v-1.584h2.202zm-2.202 3.495v-1.623h2.202v1.623h-2.202zm-2.839 0v-1.623h2.202v1.623H8.438zm5.04.3v.497h.1c.22 0 .538-.16.548-.219v-3.945c.2-.04.359-.119.419-.199l-.797-.617-.369.398H8.5l-.708-.319v5.07h.11c.269 0 .537-.169.537-.238v-.429h5.04zm-3.167.567c.468.438.976 1.195 1.026 1.823.658.538 1.235-1.026-.916-1.903l-.11.08zm3.138 1.594h-.13c-.11.577-.229 1.036-.309 1.205-.04.11-.08.14-.239.15-.179.01-.667.01-1.304.01h-1.425c-.498 0-.548-.04-.548-.2v-2.082c.2-.03.29-.12.309-.249l-.956-.1v2.55c0 .539.19.678 1.115.678h1.475c2.002 0 2.36-.1 2.36-.428 0-.13-.07-.21-.318-.279l-.03-1.255zm.13-.966c.537.528 1.155 1.414 1.255 2.131.746.578 1.314-1.145-1.146-2.211l-.11.08zm3.367-5.728c.439.279.957.787 1.126 1.235.727.408 1.126-1.026-1.036-1.335l-.09.1zm-.627 2.28c.408.26.867.728 1.016 1.126.707.409 1.116-.995-.926-1.215l-.09.09zm2.6-.646c-1.564 3.964-1.564 3.964-1.724 4.313-.099.199-.129.209-.248.209h-.419v.219c.21.02.339.04.469.14.218.149.268.936.129 1.942.02.319.15.498.329.498.328 0 .518-.259.537-.687.04-.817-.239-1.275-.248-1.724-.01-.239.05-.558.139-.876.12-.468.837-2.77 1.205-3.985l-.169-.05zm2.162 4.273c-.29.727-.927 1.763-1.624 2.41l.12.14c.836-.538 1.603-1.385 2.022-2.032.219.03.308-.01.358-.1l-.877-.418zm2.37.2c.548.527 1.235 1.404 1.415 2.081.707.518 1.175-1.046-1.295-2.162l-.12.08zm.737-3.716v1.145H21.23v-1.145h2.958zm-2.958 2.54v-1.096h2.958v1.096H21.23zm2.988-4.324h-4.163l-.748-.318v2.65c0 1.982-.139 4.133-1.215 5.867l.14.11c1.573-1.724 1.703-4.185 1.703-5.988v-2.022h2.33c-.079.419-.159.867-.258 1.186h-.727l-.648-.29v3.886h.1c.239 0 .498-.15.498-.19v-.278h1.175v2.759c0 .13-.04.179-.209.179-.19 0-1.056-.06-1.056-.06v.15c.399.05.628.13.757.239.1.1.16.259.17.448.836-.09.966-.428.966-.936v-2.78h1.155v.389h.1c.2 0 .508-.15.518-.209v-2.899c.19-.04.349-.11.408-.19l-.767-.587-.348.369h-1.773c.219-.22.428-.478.587-.747.19-.01.31-.1.35-.2l-.888-.239h2.9c.139 0 .228-.05.258-.159-.319-.309-.857-.717-.857-.717l-.458.577zm5.939-.727c.358.31.707.867.766 1.305.688.518 1.295-.926-.657-1.374l-.11.07zm4.8 4.314c.14 0 .24-.05.27-.16a13.518 13.518 0 0 0-.877-.727l-.468.588h-2.68v-1.484c.25-.04.34-.14.36-.27l-1.007-.119v1.873H26.62l.09.299h3.487c-.738 1.683-2.112 3.247-3.925 4.263l.1.16c1.862-.837 3.276-2.073 4.183-3.577v3.905h.13c.238 0 .518-.15.518-.24v-4.511h.01c.766 1.932 2.091 3.456 3.605 4.293.1-.299.33-.488.608-.518l.02-.1c-1.554-.637-3.138-2.052-4.004-3.675h3.516zm-.288-3.238l-.448.439h-6.515c-.02-.16-.06-.34-.12-.519l-.169.01c.05.648-.339 1.216-.727 1.435-.21.13-.358.339-.269.568.11.249.488.259.747.07.29-.19.568-.618.558-1.266h6.505c-.13.379-.33.867-.489 1.156l.13.08a6.721 6.721 0 0 0 1.196-1.116c.199-.01.318-.02.388-.1l-.787-.757zm3.388 1.524c.339-.677.618-1.384.867-2.122.229 0 .349-.089.388-.209l-1.056-.318c-.438 1.902-1.235 3.835-2.022 5.07l.14.1c.408-.429.787-.957 1.145-1.535v5.499h.12c.249 0 .518-.17.528-.22v-5.936c.179-.03.279-.09.318-.18l-.428-.149zm6.963-.289c.13 0 .22-.05.25-.159-.32-.309-.848-.727-.848-.727l-.458.587h-1.733v-1.643c.24-.04.329-.14.358-.29l-1.005-.108v2.041h-2.87l.08.3h2.361c-.498 1.812-1.454 3.625-2.76 4.92l.14.14c1.395-1.126 2.421-2.6 3.049-4.264v3.626H39.86l.08.289h1.644v2.052h.129c.239 0 .518-.14.518-.23v-1.822h1.614c.13 0 .229-.05.258-.16-.288-.288-.746-.667-.746-.667l-.409.538h-.717v-4.423h.03c.538 2.142 1.484 3.905 2.68 4.951.11-.319.338-.498.607-.528l.03-.1c-1.255-.806-2.46-2.49-3.108-4.323h2.55zM49.886-25.878c0-1.156 0-2.122.03-3.078h1.026c1.185 0 1.723.538 1.723 1.484 0 .916-.627 1.594-1.793 1.594h-.986zm3.556 3.327l-.538-1.763c-.249-.787-.577-1.156-1.195-1.295 1.195-.22 1.823-.976 1.823-1.853 0-1.215-.946-1.903-2.57-1.903h-2.968v.349l1.036.11c.03.956.03 1.932.03 2.898v.548c0 .976 0 1.943-.03 2.889l-1.036.11v.358h2.958v-.359l-1.036-.11c-.03-.936-.03-1.882-.03-2.908h.668c.916 0 1.265.19 1.494 1.056l.498 1.793c.12.448.378.628 1.026.628.329 0 .588-.05.767-.1v-.359l-.897-.09zM55.754-25.101c.12-1.265.846-1.863 1.574-1.863.766 0 1.295.628 1.295 1.325 0 .319-.1.538-.538.538h-2.331zm3.546.388c.05-.15.07-.358.07-.617 0-1.245-.837-2.032-1.993-2.032-1.314 0-2.44 1.065-2.44 2.729 0 1.703 1.006 2.67 2.4 2.67.927 0 1.614-.459 2.023-1.176l-.21-.16c-.388.469-.856.778-1.563.778-1.056 0-1.834-.728-1.843-2.202l3.556.01zm3.168.548c-.717 0-1.155-.568-1.155-1.415 0-.846.458-1.424 1.185-1.424.727 0 1.156.568 1.156 1.395 0 .846-.449 1.444-1.186 1.444zm.907 2.191c.797 0 1.096.38 1.096.877 0 .657-.658 1.196-1.903 1.196-.907 0-1.494-.34-1.494-1.076 0-.409.159-.698.498-1.026.16.02.328.03.528.03h1.275zm1.833-5.269l-.17-.11-1.235.39c-.338-.26-.787-.4-1.305-.4-1.106 0-1.922.648-1.922 1.773 0 .728.319 1.246.826 1.535-.528.478-.727.826-.727 1.185 0 .408.26.677.698.797-.747.358-1.046.747-1.046 1.225 0 .807.717 1.355 2.231 1.355 1.723 0 2.59-.907 2.59-1.833 0-.857-.538-1.325-1.644-1.325H62.04c-.558 0-.727-.219-.727-.528 0-.269.12-.488.338-.767.25.09.528.14.837.14 1.096 0 1.903-.648 1.903-1.784 0-.438-.11-.796-.319-1.075l1.136.01v-.588zm5.449 4.702v-3.128l.04-1.514-.11-.11-1.474.13v.318l.817.14-.02 3.307c-.508.528-1.056.797-1.624.797-.647 0-.966-.359-.966-1.394v-1.674l.05-1.514-.1-.11-1.494.13v.318l.827.14-.03 2.77c-.01 1.464.518 1.971 1.415 1.971.697 0 1.384-.358 1.942-1.046l.08.997 1.414-.09v-.319l-.767-.12zm3.209-.01c-.01-.588-.02-1.235-.02-1.823v-4.144l.03-1.534-.15-.09-1.544.419v.308l.906.08v4.96c0 .589-.01 1.236-.02 1.824l-.926.13v.318h2.62v-.319l-.896-.13zM78.572-23.239c-.638.509-.927.688-1.345.688-.538 0-.916-.27-.916-.867 0-.398.179-.817 1.145-1.185.27-.11.707-.25 1.116-.359v1.723zm1.633.548c-.149.16-.269.24-.448.24-.269 0-.428-.18-.428-.758v-2.36c0-1.296-.538-1.793-1.644-1.793-1.055 0-1.833.487-2.042 1.304.02.24.19.38.439.38.259 0 .408-.15.488-.44l.219-.737c.259-.09.488-.109.697-.109.757 0 1.086.269 1.086 1.365v.319c-.458.099-.937.239-1.325.358-1.355.488-1.743.976-1.743 1.644 0 .856.637 1.314 1.434 1.314.648 0 1.046-.288 1.654-.906.09.548.408.887.916.887.349 0 .628-.14.867-.498l-.17-.21zM82.405-27.253l-.14-.1-1.434.528v.32l.886.069c.02.468.04.876.04 1.514v.548c0 .508-.01 1.275-.03 1.833l-.817.12v.318h2.54v-.319l-.916-.13c-.01-.557-.02-1.314-.02-1.822v-.906c.249-.688.568-1.146 1.036-1.455l.14.12c.199.169.388.289.637.289.389 0 .558-.25.558-.678-.11-.219-.439-.358-.757-.358-.628 0-1.265.537-1.624 1.414l-.1-1.305zM98.52-24.583c-.01.807-.458 1.534-.896 1.813-.2.149-.339.348-.23.557.12.22.49.17.738-.03.399-.308.857-1.115.568-2.33l-.18-.01zm3.049-4.96v1.583h-2.202v-1.584h2.202zm2.839 0v1.583h-2.202v-1.584h2.202zm-2.202 3.495v-1.623h2.202v1.623h-2.202zm-2.839 0v-1.623h2.202v1.623h-2.202zm5.04.3v.497h.1c.22 0 .538-.16.548-.219v-3.945c.2-.04.359-.119.418-.199l-.796-.617-.369.398h-4.88l-.708-.319v5.07h.11c.268 0 .537-.169.537-.238v-.429h5.04zm-3.167.567c.468.438.976 1.195 1.026 1.823.657.538 1.235-1.026-.916-1.903l-.11.08zm3.138 1.594h-.13c-.11.577-.229 1.036-.309 1.205-.04.11-.08.14-.239.15-.179.01-.667.01-1.305.01h-1.424c-.498 0-.548-.04-.548-.2v-2.082c.2-.03.29-.12.309-.249l-.957-.1v2.55c0 .539.19.678 1.116.678h1.475c2.002 0 2.36-.1 2.36-.428 0-.13-.07-.21-.318-.279l-.03-1.255zm.13-.966c.537.528 1.155 1.414 1.254 2.131.747.578 1.315-1.145-1.145-2.211l-.11.08zm3.367-5.728c.439.279.957.787 1.126 1.235.727.408 1.126-1.026-1.036-1.335l-.09.1zm-.627 2.28c.408.26.866.728 1.016 1.126.707.409 1.116-.995-.926-1.215l-.09.09zm2.6-.646c-1.564 3.964-1.564 3.964-1.724 4.313-.099.199-.129.209-.249.209h-.418v.219c.209.02.339.04.468.14.219.149.269.936.13 1.942.02.319.149.498.328.498.329 0 .519-.259.538-.687.04-.817-.239-1.275-.248-1.724-.01-.239.049-.558.139-.876.119-.468.836-2.77 1.205-3.985l-.169-.05zm2.161 4.273c-.288.727-.926 1.763-1.623 2.41l.119.14c.837-.538 1.604-1.385 2.022-2.032.22.03.309-.01.359-.1l-.877-.418zm2.371.2c.548.527 1.235 1.404 1.415 2.081.707.518 1.175-1.046-1.295-2.162l-.12.08zm.737-3.716v1.145h-2.958v-1.145h2.958zm-2.958 2.54v-1.096h2.958v1.096h-2.958zm2.988-4.324h-4.164l-.747-.318v2.65c0 1.982-.139 4.133-1.215 5.867l.139.11c1.574-1.724 1.704-4.185 1.704-5.988v-2.022h2.331c-.08.419-.16.867-.259 1.186h-.728l-.647-.29v3.886h.1c.239 0 .498-.15.498-.19v-.278h1.175v2.759c0 .13-.04.179-.209.179-.189 0-1.056-.06-1.056-.06v.15c.399.05.628.13.757.239.1.1.16.259.17.448.836-.09.966-.428.966-.936v-2.78h1.155v.389h.1c.199 0 .508-.15.518-.209v-2.899c.189-.04.348-.11.408-.19l-.767-.587-.349.369h-1.773c.22-.22.429-.478.588-.747.19-.01.309-.1.349-.2l-.887-.239h2.899c.14 0 .229-.05.259-.159a11.76 11.76 0 0 0-.857-.717l-.458.577zm5.938-.727c.359.31.708.867.767 1.305.688.518 1.295-.926-.657-1.374l-.11.07zm4.802 4.314c.139 0 .239-.05.269-.16-.339-.318-.877-.727-.877-.727l-.468.588h-2.68v-1.484c.249-.04.339-.14.359-.27l-1.006-.119v1.873h-3.935l.09.299h3.486c-.737 1.683-2.111 3.247-3.925 4.263l.1.16c1.863-.837 3.277-2.073 4.184-3.577v3.905h.129c.239 0 .518-.15.518-.24v-4.511h.01c.767 1.932 2.092 3.456 3.606 4.293.1-.299.329-.488.608-.518l.02-.1c-1.554-.637-3.138-2.052-4.005-3.675h3.517zm-.289-3.238l-.449.439h-6.514c-.02-.16-.06-.34-.12-.519l-.169.01c.05.648-.339 1.216-.727 1.435-.209.13-.359.339-.269.568.109.249.488.259.747.07.289-.19.568-.618.558-1.266h6.504a8.26 8.26 0 0 1-.488 1.156l.13.08a6.73 6.73 0 0 0 1.195-1.116c.199-.01.319-.02.389-.1l-.787-.757zm3.388 1.524c.339-.677.618-1.384.867-2.122.229 0 .348-.089.388-.209l-1.056-.318c-.438 1.902-1.235 3.835-2.022 5.07l.14.1c.408-.429.787-.957 1.145-1.535v5.499h.12c.249 0 .517-.17.527-.22v-5.936c.18-.03.28-.09.319-.18l-.428-.149zm6.963-.289c.129 0 .219-.05.249-.159-.319-.309-.847-.727-.847-.727l-.458.587h-1.733v-1.643c.239-.04.329-.14.358-.29l-1.006-.108v2.041h-2.868l.079.3h2.361c-.498 1.812-1.454 3.625-2.759 4.92l.139.14c1.395-1.126 2.421-2.6 3.048-4.264v3.626h-1.723l.08.289h1.643v2.052h.13c.239 0 .518-.14.518-.23v-1.822h1.614c.129 0 .229-.05.258-.16-.288-.288-.747-.667-.747-.667l-.408.538h-.717v-4.423h.03c.538 2.142 1.484 3.905 2.679 4.951.11-.319.339-.498.608-.528l.03-.1c-1.255-.806-2.461-2.49-3.108-4.323h2.55zM140.825-25.878c0-1.156 0-2.122.03-3.078h1.026c1.185 0 1.723.538 1.723 1.484 0 .916-.628 1.594-1.793 1.594h-.986zm3.556 3.327l-.538-1.763c-.249-.787-.577-1.156-1.195-1.295 1.195-.22 1.823-.976 1.823-1.853 0-1.215-.947-1.903-2.57-1.903h-2.969v.349l1.036.11c.03.956.03 1.932.03 2.898v.548c0 .976 0 1.943-.03 2.889l-1.036.11v.358h2.959v-.359l-1.036-.11c-.03-.936-.03-1.882-.03-2.908h.667c.917 0 1.265.19 1.494 1.056l.499 1.793c.119.448.378.628 1.026.628.328 0 .587-.05.766-.1v-.359l-.896-.09zM146.692-25.101c.12-1.265.847-1.863 1.574-1.863.767 0 1.295.628 1.295 1.325 0 .319-.099.538-.538.538h-2.331zm3.547.388c.05-.15.069-.358.069-.617 0-1.245-.836-2.032-1.992-2.032-1.315 0-2.44 1.065-2.44 2.729 0 1.703 1.006 2.67 2.4 2.67.927 0 1.614-.459 2.023-1.176l-.21-.16c-.388.469-.856.778-1.564.778-1.056 0-1.833-.728-1.842-2.202l3.556.01zm3.168.548c-.717 0-1.156-.568-1.156-1.415 0-.846.459-1.424 1.186-1.424s1.155.568 1.155 1.395c0 .846-.448 1.444-1.185 1.444zm.907 2.191c.796 0 1.095.38 1.095.877 0 .657-.657 1.196-1.902 1.196-.907 0-1.495-.34-1.495-1.076 0-.409.16-.698.498-1.026.16.02.329.03.529.03h1.275zm1.832-5.269l-.169-.11-1.235.39c-.339-.26-.787-.4-1.305-.4-1.106 0-1.922.648-1.922 1.773 0 .728.318 1.246.826 1.535-.528.478-.727.826-.727 1.185 0 .408.259.677.697.797-.747.358-1.046.747-1.046 1.225 0 .807.718 1.355 2.232 1.355 1.723 0 2.59-.907 2.59-1.833 0-.857-.538-1.325-1.644-1.325h-1.464c-.558 0-.728-.219-.728-.528 0-.269.12-.488.339-.767.249.09.528.14.837.14 1.096 0 1.903-.648 1.903-1.784 0-.438-.11-.796-.319-1.075l1.135.01v-.588zm5.45 4.702v-3.128l.04-1.514-.11-.11-1.474.13v.318l.817.14-.02 3.307c-.508.528-1.056.797-1.624.797-.647 0-.966-.359-.966-1.394v-1.674l.05-1.514-.1-.11-1.494.13v.318l.827.14-.03 2.77c-.01 1.464.518 1.971 1.414 1.971.698 0 1.385-.358 1.943-1.046l.08.997 1.414-.09v-.319l-.767-.12zm3.208-.01c-.01-.588-.02-1.235-.02-1.823v-4.144l.03-1.534-.149-.09-1.544.419v.308l.906.08v4.96c0 .589-.01 1.236-.02 1.824l-.926.13v.318h2.62v-.319l-.897-.13zM169.511-23.239c-.638.509-.927.688-1.345.688-.538 0-.917-.27-.917-.867 0-.398.18-.817 1.146-1.185.269-.11.707-.25 1.116-.359v1.723zm1.633.548c-.149.16-.269.24-.448.24-.269 0-.428-.18-.428-.758v-2.36c0-1.296-.538-1.793-1.644-1.793-1.056 0-1.833.487-2.042 1.304.02.24.189.38.438.38.259 0 .409-.15.488-.44l.22-.737c.258-.09.488-.109.697-.109.757 0 1.086.269 1.086 1.365v.319c-.459.099-.937.239-1.325.358-1.355.488-1.743.976-1.743 1.644 0 .856.637 1.314 1.434 1.314.648 0 1.046-.288 1.654-.906.089.548.408.887.916.887.349 0 .628-.14.867-.498l-.17-.21zM173.343-27.253l-.139-.1-1.435.528v.32l.887.069c.02.468.04.876.04 1.514v.548c0 .508-.01 1.275-.03 1.833l-.817.12v.318h2.54v-.319l-.916-.13c-.01-.557-.02-1.314-.02-1.822v-.906c.249-.688.568-1.146 1.036-1.455l.139.12c.199.169.389.289.638.289.388 0 .558-.25.558-.678-.11-.219-.439-.358-.758-.358-.627 0-1.265.537-1.623 1.414l-.1-1.305zM10.41-15.616v1.554H8.798v-1.554h1.614zm2.73 0v1.554h-1.604v-1.554h1.604zm-1.604 3.466v-1.633h1.604v1.633h-1.604zm-2.739 0v-1.633h1.614v1.633H8.797zm0 .29h4.343v.537h.2c.388 0 .965-.229.975-.299v-3.795c.21-.04.35-.14.409-.219l-1.136-.867-.548.598H8.877l-1.255-.498v5.26h.169c.498 0 1.006-.27 1.006-.389v-.329zm1.504.398c.389.468.747 1.195.777 1.843 1.066.856 2.162-1.295-.697-1.903l-.08.06zm-2.789.607c.04.658-.369 1.226-.747 1.445-.329.18-.578.478-.448.886.14.419.647.538 1.016.299.547-.319.906-1.285.298-2.64l-.119.01zm5.897.867h-.11c-.199.598-.358 1.006-.478 1.175-.08.11-.14.14-.308.15-.16.01-.558.01-.987.01h-1.235c-.378 0-.428-.04-.428-.19v-1.802c.199-.04.289-.12.309-.26l-1.485-.12v2.412c0 .806.27.986 1.415.986h1.295c2.002 0 2.48-.17 2.48-.678 0-.209-.08-.348-.438-.468l-.03-1.215zm-.07-.867c.538.608 1.006 1.524 1.066 2.351 1.185.976 2.281-1.534-.976-2.42l-.09.07zm3.468-5.638c.329.369.707.937.817 1.465 1.036.707 1.963-1.265-.737-1.525l-.08.06zm-.627 2.321c.308.319.657.847.747 1.315.996.678 1.892-1.195-.668-1.385l-.08.07zm2.739-.876c-1.614 4.144-1.614 4.144-1.803 4.522-.1.21-.14.21-.279.21H16.4v.198c.209.02.368.06.508.16.229.15.269 1.105.09 2.131.07.39.298.529.527.529.468 0 .777-.34.797-.837.04-.887-.358-1.255-.378-1.803-.01-.24.04-.598.12-.946.109-.559.677-2.87 1.005-4.114l-.149-.05zm2.032 4.452c-.2.777-.687 1.943-1.305 2.69l.1.11c.906-.528 1.643-1.385 2.092-2.082.229.02.319-.03.358-.14l-1.245-.578zm2.66.24c.408.577.896 1.444 1.016 2.161.956.757 1.803-1.185-.907-2.221l-.11.06zm.368-3.637v1.166h-2.181v-1.166h2.181zm-2.181 2.55v-1.095h2.181v1.095h-2.181zm2.131-4.333h-3.496l-1.265-.468v2.85c0 1.951-.07 4.193-.946 5.986l.12.07c1.832-1.674 1.922-4.234 1.922-6.057v-2.102h1.962c-.02.439-.06.887-.11 1.216h-.269l-1.075-.439v4.045h.15c.437 0 .876-.24.876-.33v-.148h.568v2.43c0 .11-.04.17-.18.17-.18 0-.996-.05-.996-.05v.129c.428.08.628.2.737.369.12.17.17.438.18.797 1.175-.1 1.354-.628 1.354-1.385v-2.46h.518v.368h.18c.348 0 .876-.2.886-.269v-2.79c.18-.039.309-.109.359-.178l-1.026-.777-.488.518h-1.385c.289-.21.578-.488.817-.747.209-.01.329-.1.368-.23l-1.026-.239h2.71c.14 0 .249-.05.269-.159-.409-.378-1.106-.927-1.106-.927l-.608.807zm5.998-.807c.379.33.658.897.668 1.405 1.175.867 2.32-1.424-.598-1.464l-.07.06zm3.995 1.893c-.07.399-.19.907-.299 1.236l.08.06a6.762 6.762 0 0 0 1.484-1.057c.2-.01.299-.03.379-.12l-1.076-1.025-.628.627h-6.086a4.02 4.02 0 0 0-.18-.597h-.129c.02.508-.408.976-.757 1.155-.329.17-.568.478-.458.887.16.428.707.548 1.046.318.368-.229.617-.737.528-1.484h6.096zm1.106 2.48c.14 0 .239-.05.269-.159a21.07 21.07 0 0 0-1.126-.936l-.618.807h-2.091v-1.574c.239-.04.318-.13.328-.269l-1.504-.14v1.983H26.57l.08.289h2.997c-.617 1.643-1.842 3.317-3.456 4.382l.09.12c1.733-.747 3.088-1.793 4.004-3.108v3.507h.22c.437 0 .956-.25.956-.369v-4.353c.647 1.902 1.693 3.337 3.147 4.203.16-.537.518-.886.957-.966l.03-.12c-1.525-.557-3.128-1.772-3.995-3.296h3.427zm3.208-1.723c.34-.617.648-1.305.907-2.032.239 0 .359-.08.398-.21l-1.643-.487c-.349 1.913-1.086 3.905-1.823 5.18l.12.08a7.927 7.927 0 0 0 1.035-1.046v5.14h.22c.448 0 .926-.25.936-.34v-5.916c.19-.04.279-.1.319-.2l-.469-.169zm6.874-.239c.14 0 .239-.05.269-.16-.399-.398-1.096-.975-1.096-.975l-.598.846H42.53v-1.733c.269-.04.349-.14.368-.289l-1.534-.15v2.172h-2.57l.08.29h1.932c-.398 1.792-1.185 3.695-2.32 5l.11.11a8.901 8.901 0 0 0 2.768-3.268v2.71H39.88l.07.278h1.414v2.072h.22c.448 0 .946-.289.946-.408V-9.34h1.395c.139 0 .239-.05.268-.159-.338-.368-.936-.906-.936-.906l-.528.787h-.2v-4.553h.02c.39 2.222 1.047 3.925 2.122 5.03.18-.547.548-.886.977-.976l.04-.1c-1.216-.736-2.351-2.2-2.96-3.954h2.382zM50.285-8.583c-.03-1.036-.03-2.092-.03-3.268h.548c1.334 0 1.942.528 1.942 1.634 0 1.066-.667 1.634-1.843 1.634h-.617zm.587-6.615c1.076 0 1.544.498 1.544 1.415 0 1.006-.548 1.554-1.693 1.554h-.468c0-1.016 0-2.003.03-2.969h.587zm-2.948-.388v.358l.946.09c.02.986.02 1.982.02 2.978v.429c0 1.046 0 2.082-.02 3.098l-.946.09v.348h3.078c2.43 0 3.168-1.046 3.168-2.032 0-.996-.678-1.684-2.331-1.883 1.434-.279 1.922-.966 1.922-1.723 0-1.016-.747-1.753-2.51-1.753h-3.327zM57.676-8.036c1.524 0 2.69-1.046 2.69-2.839s-1.246-2.809-2.69-2.809c-1.454 0-2.69 1.026-2.69 2.81 0 1.782 1.146 2.838 2.69 2.838zm0-.368c-.827 0-1.285-.807-1.285-2.46 0-1.644.458-2.451 1.285-2.451.807 0 1.285.807 1.285 2.45 0 1.654-.478 2.46-1.285 2.46zM63.182-8.583c-.02-.638-.03-1.325-.03-1.953v-4.144l.04-1.583-.14-.09-2.002.428v.28l.807.059v5.05c0 .628-.01 1.315-.03 1.943l-.767.09v.308h2.89v-.309l-.768-.08zm5.26-.489c-.309.29-.608.399-.966.399-.827 0-1.434-.608-1.434-2.192 0-1.633.667-2.19 1.454-2.19.309 0 .617.098.946.377v3.606zm1.315.509v-6.127l.03-1.573-.14-.09-2.012.428v.28l.857.069v2.59c-.409-.488-.887-.698-1.435-.698-1.364 0-2.41 1.076-2.41 2.88 0 1.712.976 2.768 2.28 2.768.639 0 1.146-.259 1.545-.717l.07.668 1.962-.11v-.309l-.747-.06zM98.105-10.675c-.01.807-.458 1.534-.897 1.812-.199.15-.339.35-.229.558.12.22.488.17.737-.03.399-.308.857-1.115.568-2.33l-.18-.01zm3.048-4.96v1.583H98.95v-1.584h2.202zm2.839 0v1.583h-2.202v-1.584h2.202zm-2.202 3.495v-1.623h2.202v1.623h-2.202zm-2.839 0v-1.623h2.202v1.623H98.95zm5.041.3v.497h.1c.219 0 .537-.16.547-.219v-3.945c.2-.04.359-.119.419-.199l-.797-.617-.369.398h-4.88l-.708-.319v5.07h.11c.269 0 .537-.169.537-.239v-.428h5.041zm-3.168.567c.468.438.976 1.195 1.026 1.823.658.538 1.235-1.026-.916-1.903l-.11.08zm3.138 1.594h-.13c-.11.577-.229 1.036-.308 1.205-.04.11-.08.14-.24.15-.179.01-.667.01-1.304.01h-1.425c-.498 0-.548-.04-.548-.2v-2.082c.2-.03.29-.12.309-.249l-.956-.1v2.55c0 .539.19.678 1.115.678h1.475c2.002 0 2.36-.1 2.36-.428 0-.13-.07-.21-.318-.28l-.03-1.254zm.13-.966c.537.527 1.155 1.414 1.255 2.131.747.578 1.314-1.145-1.146-2.211l-.11.08zm3.368-5.728c.438.279.956.787 1.125 1.235.727.408 1.126-1.026-1.036-1.335l-.09.1zm-.628 2.28c.409.26.867.728 1.016 1.126.707.409 1.116-.996-.926-1.215l-.09.09zm2.6-.646c-1.564 3.964-1.564 3.964-1.723 4.313-.1.199-.13.209-.25.209h-.418v.219c.21.02.339.04.469.14.219.149.268.936.129 1.942.02.319.15.498.329.498.328 0 .518-.259.537-.687.04-.817-.239-1.275-.248-1.724-.01-.239.05-.558.14-.876.118-.468.836-2.77 1.204-3.985l-.169-.05zm2.162 4.273c-.29.727-.927 1.763-1.624 2.41l.12.14c.836-.538 1.603-1.385 2.022-2.032.219.03.309-.01.358-.1l-.876-.418zm2.37.2c.548.527 1.236 1.403 1.415 2.081.707.518 1.175-1.046-1.295-2.162l-.12.08zm.737-3.717v1.146h-2.958v-1.146h2.958zm-2.958 2.54v-1.095h2.958v1.095h-2.958zm2.988-4.323h-4.163l-.748-.318v2.65c0 1.982-.139 4.133-1.215 5.866l.14.11c1.574-1.723 1.703-4.184 1.703-5.987v-2.022h2.33c-.079.419-.159.867-.258 1.186h-.727l-.648-.29v3.886h.1c.239 0 .498-.15.498-.19v-.278h1.175v2.759c0 .13-.04.179-.209.179-.19 0-1.056-.06-1.056-.06v.15c.399.05.628.13.757.239.1.1.16.259.17.448.836-.09.966-.428.966-.936v-2.78h1.155v.389h.1c.2 0 .508-.15.518-.21v-2.898c.19-.04.349-.11.408-.19l-.767-.587-.348.369h-1.773c.219-.22.428-.478.587-.747.19-.01.31-.1.35-.2l-.887-.239h2.898c.14 0 .23-.05.26-.159-.32-.309-.858-.717-.858-.717l-.458.577zm5.939-.727c.358.31.707.867.766 1.305.688.518 1.295-.926-.657-1.375l-.11.07zm4.8 4.314c.14 0 .24-.05.27-.16-.339-.319-.877-.727-.877-.727l-.468.588h-2.68v-1.485c.25-.04.34-.139.36-.269l-1.007-.119v1.873h-3.935l.09.299h3.487c-.738 1.683-2.112 3.247-3.925 4.263l.1.16c1.862-.837 3.276-2.073 4.183-3.577v3.905h.13c.239 0 .518-.15.518-.24v-4.511h.01c.766 1.932 2.091 3.456 3.606 4.293.1-.299.328-.488.607-.518l.02-.1c-1.554-.637-3.138-2.052-4.004-3.675h3.516zm-.288-3.238l-.448.439h-6.515c-.02-.16-.06-.34-.12-.519l-.169.01c.05.648-.339 1.216-.727 1.435-.209.13-.358.339-.269.568.11.249.488.259.747.07.29-.19.568-.618.558-1.266h6.505c-.13.379-.33.867-.488 1.156l.13.08a6.718 6.718 0 0 0 1.195-1.116c.199-.01.318-.02.388-.1l-.787-.757zm3.388 1.524c.339-.677.618-1.385.867-2.122.229 0 .349-.09.388-.209l-1.056-.319c-.438 1.903-1.235 3.835-2.022 5.07l.14.1c.408-.428.787-.956 1.145-1.534v5.499h.12c.249 0 .518-.17.528-.22v-5.936c.18-.03.279-.09.318-.18l-.428-.149zm6.963-.289c.13 0 .22-.05.25-.159-.32-.309-.848-.727-.848-.727l-.458.587h-1.733v-1.643c.24-.04.329-.14.358-.29l-1.005-.109v2.042h-2.87l.08.3h2.361c-.498 1.812-1.454 3.625-2.76 4.92l.14.14c1.395-1.126 2.421-2.6 3.049-4.264v3.626h-1.724l.08.289h1.644v2.052h.129c.239 0 .518-.14.518-.23V-9.47h1.614c.13 0 .229-.05.259-.16-.29-.288-.747-.667-.747-.667l-.409.538h-.717v-4.423h.03c.538 2.142 1.484 3.905 2.68 4.951.11-.319.338-.498.607-.528l.03-.1c-1.255-.806-2.46-2.49-3.108-4.323h2.55zM141.216-15.048c1.345 0 1.922.617 1.922 1.723 0 1.056-.557 1.793-2.022 1.793h-.717v-.568c0-1.006 0-1.992.03-2.948h.787zm-.19 3.915c2.142 0 2.99-.967 2.99-2.192 0-1.285-.877-2.132-2.64-2.132h-2.87v.349l1.037.11c.03.956.03 1.932.03 2.898v.548c0 .976 0 1.943-.03 2.889l-1.036.11v.358h2.988v-.359l-1.066-.11c-.03-.836-.03-1.643-.03-2.47h.628zM147.091-8.056c1.226 0 2.441-.876 2.441-2.679 0-1.813-1.235-2.72-2.44-2.72-1.236 0-2.45.907-2.45 2.72 0 1.803 1.215 2.68 2.45 2.68zm0-.398c-1.005 0-1.603-.787-1.603-2.281 0-1.484.598-2.32 1.603-2.32.997 0 1.604.836 1.604 2.32 0 1.494-.607 2.28-1.603 2.28zm5.918.398c1.226 0 2.44-.876 2.44-2.679 0-1.813-1.235-2.72-2.44-2.72-1.235 0-2.45.907-2.45 2.72 0 1.803 1.215 2.68 2.45 2.68zm0-.398c-1.006 0-1.603-.787-1.603-2.281 0-1.484.597-2.32 1.603-2.32.997 0 1.604.836 1.604 2.32 0 1.494-.607 2.28-1.604 2.28zm4.922-4.891l-.14-.1-1.434.528v.32l.887.069c.02.468.04.876.04 1.514v.548c0 .508-.01 1.275-.03 1.833l-.817.12v.318h2.54v-.319l-.917-.13c-.01-.557-.02-1.314-.02-1.822v-.907c.25-.687.568-1.145 1.036-1.454l.14.12c.2.169.388.289.637.289.389 0 .558-.25.558-.678-.11-.219-.438-.358-.757-.358-.627 0-1.265.537-1.624 1.414l-.099-1.305zM172.275-15.108v-.349h-1.972l-2.45 6.176-2.54-6.176h-1.853v.349l1.005.12-.01 6.315-.966.12v.358h2.401v-.359l-.966-.12v-3.535l-.05-2.272 2.61 6.286h.408l2.51-6.325-.01 2.998c-.01.946 0 1.913-.02 2.869l-.976.1v.358h2.88v-.359l-1.037-.1c-.02-.965-.02-1.932-.02-2.898v-.548c0-.986 0-1.952.02-2.898l1.036-.11zM176.178-9.33c-.638.507-.927.687-1.345.687-.538 0-.916-.27-.916-.867 0-.398.179-.817 1.145-1.185.27-.11.707-.25 1.116-.359v1.723zm1.633.547c-.149.16-.269.24-.448.24-.269 0-.428-.18-.428-.758v-2.36c0-1.296-.538-1.793-1.644-1.793-1.055 0-1.833.487-2.042 1.304.02.24.19.38.438.38.26 0 .409-.15.489-.44l.219-.737c.259-.09.488-.109.697-.109.757 0 1.086.269 1.086 1.365v.318c-.458.1-.936.24-1.325.359-1.355.488-1.743.976-1.743 1.644 0 .856.637 1.314 1.434 1.314.648 0 1.046-.288 1.654-.906.09.548.408.887.916.887.349 0 .628-.14.867-.498l-.17-.21zM183.477-8.643c-.02-.548-.03-1.305-.03-1.823v-1.036c0-1.405-.458-1.952-1.365-1.952-.667 0-1.414.388-1.992 1.026l-.08-.917-.14-.1-1.434.528v.32l.887.069c.02.468.04.886.04 1.514v.548c0 .508-.01 1.275-.03 1.833l-.837.12v.318h2.43v-.319l-.786-.13c-.01-.547-.02-1.314-.02-1.822v-1.574c.637-.588 1.146-.797 1.634-.797.637 0 .936.339.936 1.375v.996c0 .518-.01 1.285-.02 1.833l-.847.12v.318h2.441v-.319l-.787-.13zm2.132-5.26a2.062 2.062 0 0 0 1.315-1.902c0-.568-.269-.897-.707-.897-.378 0-.627.25-.627.578 0 .458.338.657.846.787-.05.359-.309.856-.986 1.185l.16.25zM191.953-11.233c-.737-.28-1.016-.488-1.016-.996 0-.489.369-.827 1.096-.827.289 0 .568.07.837.22l.179.886h.438l.04-1.076c-.478-.279-.916-.428-1.494-.428-1.176 0-1.823.677-1.823 1.454 0 .737.518 1.155 1.315 1.444l.498.19c.727.268 1.036.518 1.036 1.006 0 .537-.418.906-1.305.906-.368 0-.667-.07-.936-.19l-.22-.965h-.478l.04 1.165c.528.249.996.388 1.594.388 1.355 0 2.042-.717 2.042-1.504 0-.667-.399-1.145-1.454-1.534l-.389-.14zM199.263-8.603c-.03-.977-.03-1.993-.03-3.158h.697c1.554 0 2.232.558 2.232 1.594 0 1.006-.708 1.564-2.092 1.564h-.807zm.807-6.445c1.215 0 1.773.408 1.773 1.374 0 1.016-.628 1.514-1.982 1.514h-.628c0-.996 0-1.952.03-2.888h.807zm-2.729-.409v.349l1.036.11c.029.956.029 1.932.029 2.888v.548c0 .976 0 1.943-.029 2.899l-1.036.11v.358h2.928c1.972 0 2.779-.966 2.779-1.972 0-.907-.617-1.624-2.072-1.813 1.206-.26 1.704-.947 1.704-1.723 0-1.046-.827-1.754-2.341-1.754h-2.998zm9.165 7.401c1.225 0 2.44-.876 2.44-2.679 0-1.813-1.235-2.72-2.44-2.72-1.235 0-2.451.907-2.451 2.72 0 1.803 1.216 2.68 2.451 2.68zm0-.398c-1.006 0-1.604-.787-1.604-2.281 0-1.484.598-2.32 1.604-2.32.996 0 1.603.836 1.603 2.32 0 1.494-.607 2.28-1.603 2.28zM211.422-8.643c-.01-.588-.02-1.235-.02-1.823v-4.144l.03-1.534-.15-.09-1.544.419v.308l.906.08v4.96c0 .589-.009 1.236-.019 1.824l-.927.13v.318h2.62v-.319l-.896-.13zm5.449-.608c-.448.508-.827.697-1.335.697-.907 0-1.594-.667-1.594-2.171 0-1.574.747-2.232 1.624-2.232.398 0 .807.15 1.305.618v3.088zm.757.628v-5.997l.03-1.524-.14-.09-1.554.419v.308l.937.08v2.7c-.468-.548-.967-.727-1.455-.727-1.334 0-2.311 1.075-2.311 2.749 0 1.554.897 2.65 2.202 2.65.667 0 1.155-.29 1.554-.798l.059.758 1.634-.1v-.319l-.956-.11z"/><path d="M98.326-10.952c-.01.807-.458 1.534-.897 1.812-.199.15-.339.35-.229.558.12.22.488.17.737-.03.399-.308.857-1.115.568-2.33l-.18-.01zm3.048-4.961v1.584h-2.202v-1.584h2.202zm2.839 0v1.584h-2.202v-1.584h2.202zm-2.202 3.496v-1.623h2.202v1.623h-2.202zm-2.839 0v-1.623h2.202v1.623h-2.202zm5.04.299v.498h.1c.22 0 .538-.16.548-.219v-3.945c.2-.04.359-.119.419-.199l-.797-.617-.369.398h-4.88l-.708-.319v5.07h.11c.269 0 .537-.169.537-.239v-.428h5.04zm-3.167.568c.468.438.976 1.195 1.026 1.823.658.538 1.235-1.026-.916-1.903l-.11.08zm3.138 1.594h-.13c-.11.577-.229 1.036-.309 1.205-.04.11-.08.14-.239.15-.179.01-.667.01-1.304.01h-1.425c-.498 0-.548-.04-.548-.2v-2.082c.2-.03.29-.12.309-.249l-.956-.1v2.55c0 .539.19.678 1.115.678h1.475c2.002 0 2.36-.1 2.36-.428 0-.13-.07-.21-.318-.28l-.03-1.254zm.13-.966c.537.527 1.155 1.414 1.255 2.131.746.578 1.314-1.145-1.146-2.211l-.11.08zm3.367-5.728c.439.279.957.787 1.126 1.235.727.408 1.126-1.026-1.036-1.335l-.09.1zm-.627 2.28c.408.26.867.728 1.016 1.126.707.409 1.116-.996-.926-1.215l-.09.09zm2.6-.646c-1.564 3.964-1.564 3.964-1.723 4.313-.1.199-.13.209-.25.209h-.418v.219c.21.02.339.04.469.14.219.149.268.936.129 1.942.02.319.15.498.329.498.328 0 .518-.259.537-.687.04-.817-.239-1.275-.248-1.724-.01-.239.05-.558.14-.876.118-.468.836-2.77 1.204-3.985l-.169-.05zm2.162 4.273c-.29.727-.927 1.763-1.624 2.41l.12.14c.836-.538 1.603-1.385 2.022-2.032.219.03.308-.01.358-.1l-.876-.418zm2.37.2c.548.527 1.236 1.403 1.415 2.081.707.518 1.175-1.046-1.295-2.162l-.12.08zm.737-3.717v1.146h-2.958v-1.146h2.958zm-2.958 2.54v-1.095h2.958v1.095h-2.958zm2.988-4.323h-4.163l-.748-.318v2.65c0 1.982-.139 4.133-1.215 5.866l.14.11c1.574-1.723 1.703-4.184 1.703-5.987v-2.022h2.33c-.079.419-.158.867-.258 1.186h-.727l-.648-.29v3.886h.1c.239 0 .498-.15.498-.19v-.278h1.175v2.759c0 .13-.04.179-.209.179-.19 0-1.056-.06-1.056-.06v.15c.399.05.628.13.757.239.1.1.16.259.17.448.836-.09.966-.428.966-.936v-2.78h1.155v.389h.1c.2 0 .508-.15.518-.21v-2.898c.19-.04.349-.11.408-.19l-.767-.587-.348.369h-1.773c.219-.22.428-.478.587-.747.19-.01.31-.1.35-.2l-.887-.239h2.898c.14 0 .23-.05.26-.159-.32-.309-.858-.717-.858-.717l-.458.577zm5.939-.727c.358.31.707.867.766 1.305.688.518 1.295-.926-.657-1.375l-.11.07zm4.8 4.314c.14 0 .24-.05.27-.16a13.518 13.518 0 0 0-.877-.727l-.468.588h-2.68v-1.485c.25-.04.34-.139.36-.269l-1.007-.119v1.873h-3.935l.09.299h3.487c-.738 1.683-2.112 3.247-3.925 4.263l.1.16c1.862-.837 3.276-2.073 4.183-3.577v3.905h.13c.238 0 .517-.15.517-.24v-4.511h.01c.767 1.932 2.092 3.456 3.606 4.293.1-.299.33-.488.608-.518l.02-.1c-1.554-.637-3.138-2.052-4.004-3.675h3.516zm-.288-3.238l-.448.439h-6.515c-.02-.16-.06-.34-.12-.519l-.169.01c.05.648-.339 1.216-.727 1.435-.21.13-.358.339-.269.568.11.249.488.259.747.07.29-.19.568-.618.558-1.266h6.505c-.13.379-.33.867-.489 1.156l.13.08a6.721 6.721 0 0 0 1.196-1.116c.199-.01.318-.02.388-.1l-.787-.757zm3.388 1.524c.339-.677.618-1.385.867-2.122.229 0 .349-.09.388-.209l-1.056-.319c-.438 1.903-1.235 3.835-2.022 5.07l.14.1c.408-.428.787-.956 1.145-1.534v5.499h.12c.249 0 .518-.17.528-.22v-5.936c.179-.03.279-.09.318-.18l-.428-.149zm6.963-.289c.13 0 .22-.05.25-.159-.32-.309-.848-.727-.848-.727l-.458.587h-1.733V-16.4c.24-.04.329-.14.358-.29l-1.006-.109v2.042h-2.868l.08.3h2.36c-.498 1.812-1.454 3.625-2.76 4.92l.14.14c1.395-1.126 2.421-2.6 3.048-4.264v3.626h-1.723l.08.289h1.643v2.052h.13c.239 0 .518-.14.518-.23v-1.822h1.614c.13 0 .229-.05.258-.16-.288-.288-.746-.667-.746-.667l-.409.538h-.717v-4.423h.03c.538 2.142 1.484 3.905 2.68 4.951.11-.319.338-.498.607-.528l.03-.1c-1.255-.806-2.46-2.49-3.108-4.323h2.55zM141.437-15.325c1.345 0 1.923.617 1.923 1.723 0 1.056-.558 1.793-2.023 1.793h-.717v-.568c0-1.006 0-1.992.03-2.948h.787zm-.19 3.915c2.142 0 2.99-.967 2.99-2.192 0-1.285-.877-2.132-2.64-2.132h-2.87v.349l1.037.11c.03.956.03 1.932.03 2.898v.548c0 .976 0 1.943-.03 2.889l-1.036.11v.358h2.988v-.359l-1.066-.11c-.03-.836-.03-1.643-.03-2.47h.628zM147.312-8.333c1.226 0 2.441-.876 2.441-2.679 0-1.813-1.235-2.72-2.44-2.72-1.236 0-2.45.907-2.45 2.72 0 1.803 1.214 2.68 2.45 2.68zm0-.398c-1.006 0-1.603-.787-1.603-2.281 0-1.484.597-2.321 1.603-2.321.997 0 1.604.837 1.604 2.321 0 1.494-.607 2.28-1.604 2.28zm5.918.398c1.226 0 2.44-.876 2.44-2.679 0-1.813-1.234-2.72-2.44-2.72-1.235 0-2.45.907-2.45 2.72 0 1.803 1.215 2.68 2.45 2.68zm0-.398c-1.006 0-1.604-.787-1.604-2.281 0-1.484.598-2.321 1.604-2.321.996 0 1.604.837 1.604 2.321 0 1.494-.608 2.28-1.604 2.28zm4.922-4.891l-.14-.1-1.434.528v.32l.886.069c.02.468.04.876.04 1.514v.548c0 .508-.01 1.275-.03 1.833l-.816.12v.318h2.54v-.319l-.917-.13c-.01-.557-.02-1.314-.02-1.822v-.907c.25-.687.568-1.145 1.036-1.454l.14.12c.199.169.388.289.637.289.389 0 .558-.25.558-.678-.11-.219-.438-.358-.757-.358-.627 0-1.265.537-1.624 1.414l-.099-1.305zM172.496-15.385v-.349h-1.972l-2.45 6.176-2.54-6.176h-1.853v.349l1.005.12-.01 6.315-.966.12v.358h2.401v-.359l-.966-.12v-3.535l-.05-2.272 2.61 6.286h.408l2.51-6.325-.01 2.998c-.01.946 0 1.913-.02 2.869l-.976.1v.358h2.88v-.359l-1.037-.1c-.02-.965-.02-1.932-.02-2.898v-.548c0-.986 0-1.952.02-2.898l1.036-.11zM176.399-9.608c-.638.508-.927.688-1.345.688-.538 0-.917-.27-.917-.867 0-.398.18-.817 1.146-1.185.27-.11.707-.25 1.116-.359v1.723zm1.633.548c-.149.16-.269.24-.448.24-.269 0-.428-.18-.428-.758v-2.36c0-1.296-.538-1.793-1.644-1.793-1.055 0-1.833.487-2.042 1.304.02.24.19.379.439.379.258 0 .408-.15.488-.438l.219-.738c.259-.09.488-.109.697-.109.757 0 1.086.269 1.086 1.365v.318c-.458.1-.936.24-1.325.359-1.355.488-1.743.976-1.743 1.644 0 .856.638 1.314 1.434 1.314.648 0 1.046-.288 1.654-.906.09.548.408.887.916.887.349 0 .628-.14.867-.498l-.17-.21zM183.698-8.92c-.02-.548-.03-1.305-.03-1.823v-1.036c0-1.405-.458-1.952-1.364-1.952-.668 0-1.415.388-1.993 1.026l-.08-.917-.14-.1-1.434.528v.32l.887.069c.02.468.04.886.04 1.514v.548c0 .508-.01 1.275-.03 1.833l-.837.12v.318h2.43v-.319l-.786-.13c-.01-.547-.02-1.314-.02-1.822v-1.574c.637-.588 1.146-.797 1.634-.797.637 0 .936.339.936 1.375v.996c0 .518-.01 1.285-.02 1.833l-.847.12v.318h2.441v-.319l-.787-.13zm2.132-5.26a2.062 2.062 0 0 0 1.315-1.902c0-.568-.269-.897-.707-.897-.378 0-.627.25-.627.578 0 .458.338.657.846.787-.05.359-.309.856-.986 1.185l.16.25zM192.174-11.51c-.737-.28-1.016-.488-1.016-.996 0-.489.369-.827 1.096-.827.289 0 .567.07.837.22l.179.886h.438l.04-1.076c-.478-.279-.916-.428-1.494-.428-1.176 0-1.823.677-1.823 1.454 0 .737.518 1.155 1.315 1.444l.498.19c.727.268 1.036.518 1.036 1.006 0 .537-.418.906-1.305.906-.368 0-.668-.07-.936-.19l-.22-.965h-.478l.04 1.165c.528.249.996.388 1.594.388 1.355 0 2.042-.717 2.042-1.504 0-.667-.399-1.145-1.454-1.534l-.389-.14zM199.484-8.88c-.03-.977-.03-1.993-.03-3.158h.697c1.554 0 2.232.558 2.232 1.594 0 1.006-.708 1.564-2.092 1.564h-.807zm.807-6.445c1.215 0 1.773.408 1.773 1.374 0 1.016-.628 1.514-1.982 1.514h-.628c0-.996 0-1.952.03-2.888h.807zm-2.729-.409v.349l1.036.11c.029.956.029 1.932.029 2.888v.548c0 .976 0 1.943-.029 2.899l-1.036.11v.358h2.928c1.972 0 2.779-.966 2.779-1.972 0-.907-.617-1.624-2.072-1.813 1.206-.26 1.704-.947 1.704-1.723 0-1.046-.827-1.754-2.341-1.754h-2.998zm9.165 7.401c1.225 0 2.44-.876 2.44-2.679 0-1.813-1.235-2.72-2.44-2.72-1.235 0-2.451.907-2.451 2.72 0 1.803 1.216 2.68 2.451 2.68zm0-.398c-1.006 0-1.604-.787-1.604-2.281 0-1.484.598-2.321 1.604-2.321.996 0 1.603.837 1.603 2.321 0 1.494-.607 2.28-1.603 2.28zM211.643-8.92c-.01-.588-.02-1.235-.02-1.823v-4.144l.03-1.534-.15-.09-1.544.419v.308l.906.08v4.96c0 .589-.009 1.236-.019 1.824l-.927.13v.318h2.62v-.319l-.896-.13zm5.449-.608c-.448.508-.827.697-1.335.697-.907 0-1.594-.667-1.594-2.171 0-1.574.747-2.232 1.624-2.232.398 0 .807.15 1.305.618v3.088zm.757.628v-5.997l.03-1.524-.14-.09-1.554.419v.308l.937.08v2.7c-.468-.548-.967-.727-1.455-.727-1.334 0-2.311 1.075-2.311 2.749 0 1.554.897 2.65 2.202 2.65.667 0 1.155-.29 1.554-.798l.059.758 1.634-.1v-.319l-.956-.11z"/><path d="M98.548-10.675c-.01.807-.458 1.534-.897 1.812-.199.15-.339.35-.229.558.12.22.488.17.737-.03.399-.308.857-1.115.568-2.33l-.18-.01zm3.048-4.96v1.583h-2.202v-1.584h2.202zm2.839 0v1.583h-2.202v-1.584h2.202zm-2.202 3.495v-1.623h2.202v1.623h-2.202zm-2.839 0v-1.623h2.202v1.623h-2.202zm5.04.3v.497h.1c.22 0 .538-.16.548-.219v-3.945c.2-.04.359-.119.419-.199l-.797-.617-.369.398h-4.88l-.708-.319v5.07h.11c.269 0 .537-.169.537-.239v-.428h5.04zm-3.167.567c.468.438.976 1.195 1.026 1.823.658.538 1.235-1.026-.916-1.903l-.11.08zm3.138 1.594h-.13c-.11.577-.229 1.036-.309 1.205-.04.11-.08.14-.239.15-.179.01-.667.01-1.304.01h-1.425c-.498 0-.548-.04-.548-.2v-2.082c.2-.03.29-.12.309-.249l-.956-.1v2.55c0 .539.19.678 1.115.678h1.475c2.002 0 2.36-.1 2.36-.428 0-.13-.07-.21-.318-.28l-.03-1.254zm.13-.966c.537.527 1.155 1.414 1.255 2.131.746.578 1.314-1.145-1.146-2.211l-.11.08zm3.368-5.728c.438.279.956.787 1.125 1.235.727.408 1.126-1.026-1.036-1.335l-.09.1zm-.628 2.28c.408.26.867.728 1.016 1.126.707.409 1.116-.996-.926-1.215l-.09.09zm2.6-.646c-1.564 3.964-1.564 3.964-1.723 4.313-.1.199-.13.209-.25.209h-.418v.219c.21.02.339.04.469.14.219.149.268.936.129 1.942.02.319.15.498.329.498.328 0 .518-.259.537-.687.04-.817-.239-1.275-.248-1.724-.01-.239.05-.558.14-.876.118-.468.836-2.77 1.204-3.985l-.169-.05zm2.162 4.273c-.29.727-.927 1.763-1.624 2.41l.12.14c.836-.538 1.603-1.385 2.022-2.032.219.03.308-.01.358-.1l-.876-.418zm2.37.2c.548.527 1.236 1.403 1.415 2.081.707.518 1.175-1.046-1.295-2.162l-.12.08zm.737-3.717v1.146h-2.958v-1.146h2.958zm-2.958 2.54v-1.095h2.958v1.095h-2.958zm2.988-4.323h-4.163l-.748-.318v2.65c0 1.982-.139 4.133-1.215 5.866l.14.11c1.574-1.723 1.703-4.184 1.703-5.987v-2.022h2.33c-.079.419-.159.867-.258 1.186h-.727l-.648-.29v3.886h.1c.239 0 .498-.15.498-.19v-.278h1.175v2.759c0 .13-.04.179-.209.179-.19 0-1.056-.06-1.056-.06v.15c.399.05.628.13.757.239.1.1.16.259.17.448.836-.09.966-.428.966-.936v-2.78h1.155v.389h.1c.2 0 .508-.15.518-.21v-2.898c.19-.04.349-.11.408-.19l-.767-.587-.348.369h-1.773c.219-.22.428-.478.587-.747.19-.01.31-.1.35-.2l-.887-.239h2.898c.14 0 .23-.05.26-.159-.32-.309-.858-.717-.858-.717l-.458.577zm5.939-.727c.358.31.707.867.766 1.305.688.518 1.295-.926-.657-1.375l-.11.07zm4.8 4.314c.14 0 .24-.05.27-.16-.339-.319-.877-.727-.877-.727l-.468.588h-2.68v-1.485c.25-.04.34-.139.36-.269l-1.007-.119v1.873h-3.935l.09.299h3.487c-.738 1.683-2.112 3.247-3.925 4.263l.1.16c1.862-.837 3.276-2.073 4.183-3.577v3.905h.13c.238 0 .517-.15.517-.24v-4.511h.01c.767 1.932 2.092 3.456 3.606 4.293.1-.299.33-.488.608-.518l.02-.1c-1.554-.637-3.138-2.052-4.004-3.675h3.516zm-.288-3.238l-.448.439h-6.515c-.02-.16-.06-.34-.12-.519l-.169.01c.05.648-.339 1.216-.727 1.435-.209.13-.358.339-.269.568.11.249.488.259.747.07.29-.19.568-.618.558-1.266h6.505c-.13.379-.33.867-.489 1.156l.13.08a6.718 6.718 0 0 0 1.195-1.116c.2-.01.32-.02.389-.1l-.787-.757zm3.388 1.524c.339-.677.618-1.385.867-2.122.229 0 .349-.09.388-.209l-1.056-.319c-.438 1.903-1.235 3.835-2.022 5.07l.14.1c.408-.428.787-.956 1.145-1.534v5.499h.12c.249 0 .518-.17.528-.22v-5.936c.179-.03.279-.09.318-.18l-.428-.149zm6.963-.289c.13 0 .22-.05.25-.159-.32-.309-.848-.727-.848-.727l-.458.587h-1.733v-1.643c.24-.04.329-.14.358-.29l-1.005-.109v2.042h-2.87l.08.3h2.361c-.498 1.812-1.454 3.625-2.76 4.92l.14.14c1.395-1.126 2.421-2.6 3.048-4.264v3.626h-1.723l.08.289h1.644v2.052h.129c.239 0 .518-.14.518-.23V-9.47h1.614c.13 0 .229-.05.259-.16-.29-.288-.747-.667-.747-.667l-.409.538h-.717v-4.423h.03c.538 2.142 1.484 3.905 2.68 4.951.11-.319.338-.498.607-.528l.03-.1c-1.255-.806-2.46-2.49-3.108-4.323h2.55zM141.66-15.048c1.344 0 1.922.617 1.922 1.723 0 1.056-.558 1.793-2.023 1.793h-.717v-.568c0-1.006 0-1.992.03-2.948h.787zm-.19 3.915c2.141 0 2.988-.967 2.988-2.192 0-1.285-.876-2.132-2.64-2.132h-2.868v.349l1.036.11c.03.956.03 1.932.03 2.898v.548c0 .976 0 1.943-.03 2.889l-1.036.11v.358h2.988v-.359l-1.066-.11c-.03-.836-.03-1.643-.03-2.47h.628zM147.535-8.056c1.225 0 2.44-.876 2.44-2.679 0-1.813-1.235-2.72-2.44-2.72-1.236 0-2.45.907-2.45 2.72 0 1.803 1.214 2.68 2.45 2.68zm0-.398c-1.006 0-1.604-.787-1.604-2.281 0-1.484.597-2.32 1.603-2.32.997 0 1.604.836 1.604 2.32 0 1.494-.607 2.28-1.603 2.28zm5.917.398c1.226 0 2.44-.876 2.44-2.679 0-1.813-1.234-2.72-2.44-2.72-1.235 0-2.45.907-2.45 2.72 0 1.803 1.215 2.68 2.45 2.68zm0-.398c-1.006 0-1.604-.787-1.604-2.281 0-1.484.598-2.32 1.604-2.32.996 0 1.604.836 1.604 2.32 0 1.494-.608 2.28-1.604 2.28zm4.922-4.891l-.14-.1-1.434.528v.32l.886.069c.02.468.04.876.04 1.514v.548c0 .508-.01 1.275-.03 1.833l-.816.12v.318h2.54v-.319l-.917-.13c-.01-.557-.02-1.314-.02-1.822v-.907c.25-.687.568-1.145 1.036-1.454l.14.12c.2.169.388.289.638.289.388 0 .557-.25.557-.678-.11-.219-.438-.358-.757-.358-.627 0-1.265.537-1.624 1.414l-.099-1.305zM172.718-15.108v-.349h-1.972l-2.45 6.176-2.54-6.176h-1.853v.349l1.005.12-.01 6.315-.966.12v.358h2.401v-.359l-.966-.12v-3.535l-.05-2.272 2.61 6.286h.408l2.51-6.325-.01 2.998c-.01.946 0 1.913-.02 2.869l-.976.1v.358h2.88v-.359l-1.037-.1c-.02-.965-.02-1.932-.02-2.898v-.548c0-.986 0-1.952.02-2.898l1.036-.11zM176.62-9.33c-.637.507-.925.687-1.344.687-.538 0-.917-.27-.917-.867 0-.398.18-.817 1.146-1.185.27-.11.707-.25 1.116-.359v1.723zm1.635.547c-.15.16-.27.24-.449.24-.269 0-.428-.18-.428-.758v-2.36c0-1.296-.538-1.793-1.644-1.793-1.055 0-1.833.487-2.042 1.304.02.24.19.38.439.38.258 0 .408-.15.488-.44l.219-.737c.259-.09.488-.109.697-.109.757 0 1.086.269 1.086 1.365v.318c-.458.1-.936.24-1.325.359-1.355.488-1.743.976-1.743 1.644 0 .856.637 1.314 1.434 1.314.648 0 1.046-.288 1.654-.906.09.548.408.887.916.887.349 0 .628-.14.867-.498l-.17-.21zM183.92-8.643c-.02-.548-.03-1.305-.03-1.823v-1.036c0-1.405-.458-1.952-1.364-1.952-.668 0-1.415.388-1.993 1.026l-.08-.917-.14-.1-1.433.528v.32l.886.069c.02.468.04.886.04 1.514v.548c0 .508-.01 1.275-.03 1.833l-.837.12v.318h2.43v-.319l-.786-.13c-.01-.547-.02-1.314-.02-1.822v-1.574c.638-.588 1.146-.797 1.634-.797.637 0 .936.339.936 1.375v.996c0 .518-.01 1.285-.02 1.833l-.847.12v.318h2.441v-.319l-.787-.13zm2.132-5.26a2.062 2.062 0 0 0 1.315-1.902c0-.568-.269-.897-.707-.897-.378 0-.627.25-.627.578 0 .458.338.657.846.787-.05.359-.308.856-.986 1.185l.16.25zM192.396-11.233c-.737-.28-1.016-.488-1.016-.996 0-.489.369-.827 1.096-.827.289 0 .567.07.837.22l.179.886h.438l.04-1.076c-.478-.279-.916-.428-1.494-.428-1.176 0-1.823.677-1.823 1.454 0 .737.518 1.155 1.315 1.444l.498.19c.727.268 1.036.518 1.036 1.006 0 .537-.419.906-1.305.906-.369 0-.667-.07-.936-.19l-.22-.965h-.478l.04 1.165c.528.249.996.388 1.594.388 1.355 0 2.042-.717 2.042-1.504 0-.667-.399-1.145-1.454-1.534l-.389-.14zM199.706-8.603c-.03-.977-.03-1.993-.03-3.158h.697c1.554 0 2.232.558 2.232 1.594 0 1.006-.708 1.564-2.092 1.564h-.807zm.807-6.445c1.215 0 1.773.408 1.773 1.374 0 1.016-.628 1.514-1.982 1.514h-.628c0-.996 0-1.952.03-2.888h.807zm-2.729-.409v.349l1.036.11c.029.956.029 1.932.029 2.888v.548c0 .976 0 1.943-.029 2.899l-1.036.11v.358h2.928c1.972 0 2.779-.966 2.779-1.972 0-.907-.617-1.624-2.072-1.813 1.206-.26 1.704-.947 1.704-1.723 0-1.046-.827-1.754-2.341-1.754h-2.998zm9.165 7.401c1.225 0 2.44-.876 2.44-2.679 0-1.813-1.235-2.72-2.44-2.72-1.235 0-2.451.907-2.451 2.72 0 1.803 1.216 2.68 2.451 2.68zm0-.398c-1.006 0-1.604-.787-1.604-2.281 0-1.484.598-2.32 1.604-2.32.996 0 1.603.836 1.603 2.32 0 1.494-.607 2.28-1.603 2.28zM211.865-8.643c-.01-.588-.02-1.235-.02-1.823v-4.144l.03-1.534-.15-.09-1.544.419v.308l.906.08v4.96c0 .589-.009 1.236-.019 1.824l-.927.13v.318h2.62v-.319l-.896-.13zm5.449-.608c-.448.508-.827.697-1.335.697-.907 0-1.594-.667-1.594-2.171 0-1.574.747-2.232 1.624-2.232.398 0 .807.15 1.305.618v3.088zm.757.628v-5.997l.03-1.524-.14-.09-1.554.419v.308l.937.08v2.7c-.468-.548-.967-.727-1.455-.727-1.334 0-2.311 1.075-2.311 2.749 0 1.554.897 2.65 2.202 2.65.667 0 1.155-.29 1.554-.798l.059.758 1.634-.1v-.319l-.956-.11z"/></svg>