<svg xmlns="http://www.w3.org/2000/svg" xmlns:xlink="http://www.w3.org/1999/xlink" width="500pt" height="305pt" viewBox="0 0 500 305"><defs><clipPath id="a"><path d="M30 4h2v284h-2zm0 0"/></clipPath><clipPath id="b"><path d="M39 4h2v284h-2zm0 0"/></clipPath><clipPath id="c"><path d="M48 4h2v284h-2zm0 0"/></clipPath><clipPath id="d"><path d="M56 4h2v284h-2zm0 0"/></clipPath><clipPath id="e"><path d="M65 4h2v284h-2zm0 0"/></clipPath><clipPath id="f"><path d="M73 4h2v284h-2zm0 0"/></clipPath><clipPath id="g"><path d="M82 4h2v284h-2zm0 0"/></clipPath><clipPath id="h"><path d="M90 4h2v284h-2zm0 0"/></clipPath><clipPath id="i"><path d="M99 4h2v284h-2zm0 0"/></clipPath><clipPath id="j"><path d="M108 4h2v284h-2zm0 0"/></clipPath><clipPath id="k"><path d="M116 4h2v284h-2zm0 0"/></clipPath><clipPath id="l"><path d="M125 4h2v284h-2zm0 0"/></clipPath><clipPath id="m"><path d="M133 4h2v284h-2zm0 0"/></clipPath><clipPath id="n"><path d="M142 4h2v284h-2zm0 0"/></clipPath><clipPath id="o"><path d="M150 4h2v284h-2zm0 0"/></clipPath><clipPath id="p"><path d="M159 4h2v284h-2zm0 0"/></clipPath><clipPath id="q"><path d="M168 4h2v284h-2zm0 0"/></clipPath><clipPath id="r"><path d="M176 4h2v284h-2zm0 0"/></clipPath><clipPath id="s"><path d="M185 4h2v284h-2zm0 0"/></clipPath><clipPath id="t"><path d="M193 4h2v284h-2zm0 0"/></clipPath><clipPath id="u"><path d="M202 4h2v284h-2zm0 0"/></clipPath><clipPath id="v"><path d="M210 4h2v284h-2zm0 0"/></clipPath><clipPath id="w"><path d="M219 4h2v284h-2zm0 0"/></clipPath><clipPath id="x"><path d="M228 4h2v284h-2zm0 0"/></clipPath><clipPath id="y"><path d="M236 4h2v284h-2zm0 0"/></clipPath><clipPath id="z"><path d="M245 4h2v284h-2zm0 0"/></clipPath><clipPath id="A"><path d="M253 4h2v284h-2zm0 0"/></clipPath><clipPath id="B"><path d="M262 4h2v284h-2zm0 0"/></clipPath><clipPath id="C"><path d="M270 4h2v284h-2zm0 0"/></clipPath><clipPath id="D"><path d="M279 4h2v284h-2zm0 0"/></clipPath><clipPath id="E"><path d="M287 4h2v284h-2zm0 0"/></clipPath><clipPath id="F"><path d="M296 4h2v284h-2zm0 0"/></clipPath><clipPath id="G"><path d="M305 4h2v284h-2zm0 0"/></clipPath><clipPath id="H"><path d="M313 4h2v284h-2zm0 0"/></clipPath><clipPath id="I"><path d="M322 4h2v284h-2zm0 0"/></clipPath><clipPath id="J"><path d="M330 4h2v284h-2zm0 0"/></clipPath><clipPath id="K"><path d="M339 4h2v284h-2zm0 0"/></clipPath><clipPath id="L"><path d="M347 4h2v284h-2zm0 0"/></clipPath><clipPath id="M"><path d="M356 4h2v284h-2zm0 0"/></clipPath><clipPath id="N"><path d="M365 4h2v284h-2zm0 0"/></clipPath><clipPath id="O"><path d="M373 4h2v284h-2zm0 0"/></clipPath><clipPath id="P"><path d="M382 4h2v284h-2zm0 0"/></clipPath><clipPath id="Q"><path d="M390 4h2v284h-2zm0 0"/></clipPath><clipPath id="R"><path d="M399 4h2v284h-2zm0 0"/></clipPath><clipPath id="S"><path d="M407 4h2v284h-2zm0 0"/></clipPath><clipPath id="T"><path d="M416 4h2v284h-2zm0 0"/></clipPath><clipPath id="U"><path d="M425 4h2v284h-2zm0 0"/></clipPath><clipPath id="V"><path d="M433 4h2v284h-2zm0 0"/></clipPath><clipPath id="W"><path d="M442 4h2v284h-2zm0 0"/></clipPath><clipPath id="X"><path d="M450 4h2v284h-2zm0 0"/></clipPath><clipPath id="Y"><path d="M459 4h2v284h-2zm0 0"/></clipPath><clipPath id="Z"><path d="M467 4h2v284h-2zm0 0"/></clipPath><clipPath id="aa"><path d="M476 4h2v284h-2zm0 0"/></clipPath><clipPath id="ab"><path d="M485 4h2v284h-2zm0 0"/></clipPath><clipPath id="ac"><path d="M493 4h2v284h-2zm0 0"/></clipPath><clipPath id="ad"><path d="M22 285h473v2H22zm0 0"/></clipPath><clipPath id="ae"><path d="M22 212h473v2H22zm0 0"/></clipPath><clipPath id="af"><path d="M22 140h473v2H22zm0 0"/></clipPath><clipPath id="ag"><path d="M22 68h473v2H22zm0 0"/></clipPath><symbol overflow="visible" id="ah"><path d="M3.805-7.11h.941v5.036c0 .68-.203 1.21-.613 1.597-.406.383-.953.575-1.633.575-.707 0-1.258-.18-1.648-.543-.395-.36-.594-.867-.594-1.516h.937c0 .406.114.723.336.95.223.23.547.343.969.343.387 0 .7-.121.941-.367.239-.246.36-.586.364-1.028zm0 0"/></symbol><symbol overflow="visible" id="ai"><path d="M3.945 0c-.05-.105-.093-.29-.125-.555-.422.434-.922.653-1.507.653-.52 0-.946-.149-1.282-.442a1.438 1.438 0 01-.5-1.12c0-.552.211-.977.63-1.282.417-.305 1.007-.457 1.765-.457h.879v-.414c0-.317-.094-.567-.285-.754-.188-.188-.465-.281-.833-.281-.324 0-.593.082-.812.242-.219.164-.328.36-.328.59H.64c0-.262.093-.516.28-.762.188-.246.442-.441.763-.582.32-.145.671-.219 1.054-.219.61 0 1.086.153 1.434.457.344.305.523.727.535 1.258v2.434c0 .484.063.87.184 1.156V0zm-1.5-.688c.285 0 .555-.074.805-.218a1.35 1.35 0 00.555-.574v-1.083h-.711c-1.106 0-1.656.325-1.656.97 0 .284.093.507.28.663.188.16.43.243.727.243zm0 0"/></symbol><symbol overflow="visible" id="aj"><path d="M1.54-5.281l.026.664a1.93 1.93 0 011.582-.766c1.118 0 1.68.633 1.692 1.89V0h-.902v-3.496c-.004-.379-.094-.664-.262-.844-.172-.183-.438-.273-.801-.273-.293 0-.55.078-.77.234a1.59 1.59 0 00-.52.613V0h-.9v-5.281zm0 0"/></symbol><symbol overflow="visible" id="ak"><path d="M3.559 0h-.907v-6.02l-1.824.668v-.82l2.59-.973h.14zm0 0"/></symbol><symbol overflow="visible" id="al"><path d="M1.906-3.992h.676c.426-.008.762-.121 1.008-.34.242-.219.363-.512.363-.883 0-.832-.414-1.25-1.242-1.25-.39 0-.703.113-.938.336-.23.223-.347.516-.347.887H.523c0-.563.204-1.031.618-1.406.41-.372.933-.559 1.57-.559.672 0 1.195.176 1.578.531.379.356.57.848.57 1.48 0 .31-.101.61-.3.9a1.81 1.81 0 01-.817.648c.39.125.692.328.903.617.214.285.32.636.32 1.047 0 .64-.207 1.144-.625 1.52-.418.374-.957.562-1.625.562s-1.211-.18-1.63-.543c-.417-.36-.624-.836-.624-1.43h.906c0 .375.121.672.367.898.243.227.57.336.98.336.438 0 .77-.113 1-.34.231-.23.349-.554.349-.98 0-.414-.125-.734-.383-.953-.254-.223-.618-.336-1.098-.344h-.676zm0 0"/></symbol><symbol overflow="visible" id="am"><path d="M5.25 0H.59v-.648l2.46-2.735c.364-.414.618-.75.755-1.008.14-.257.21-.527.21-.804 0-.371-.113-.676-.34-.914-.222-.239-.523-.356-.898-.356-.449 0-.797.13-1.047.383-.25.254-.37.613-.37 1.066H.452c0-.652.211-1.183.633-1.586.422-.402.984-.605 1.691-.605.66 0 1.184.172 1.567.52.386.347.578.808.578 1.382 0 .703-.445 1.535-1.336 2.5L1.68-.738h3.57zm0 0"/></symbol><symbol overflow="visible" id="an"><path d="M5.18-6.602L2.234 0H1.29l2.934-6.367H.375v-.742H5.18zm0 0"/></symbol><symbol overflow="visible" id="ao"><path d="M4.746-3.14H1.762V0H.824v-7.11H5.23v.774H1.762v2.43h2.984zm0 0"/></symbol><symbol overflow="visible" id="ap"><path d="M2.875.098c-.715 0-1.297-.235-1.746-.707-.45-.47-.676-1.098-.676-1.887v-.164c0-.524.102-.992.3-1.406.2-.41.481-.735.84-.965.36-.235.75-.352 1.173-.352.687 0 1.218.227 1.601.68.38.453.57 1.101.57 1.945v.375H1.36c.012.52.164.942.454 1.262.292.32.664.48 1.113.48.316 0 .59-.062.808-.195.223-.129.414-.3.582-.516l.551.43c-.441.68-1.105 1.02-1.992 1.02zm-.11-4.739a1.21 1.21 0 00-.921.399c-.246.265-.399.64-.457 1.117H4.03v-.07c-.023-.457-.148-.813-.367-1.067-.223-.25-.523-.379-.898-.379zm0 0"/></symbol><symbol overflow="visible" id="aq"><path d="M5.156-2.582c0 .809-.187 1.453-.554 1.945-.372.489-.872.735-1.497.735-.667 0-1.183-.235-1.546-.707L1.516 0H.684v-7.5h.902v2.797c.367-.453.867-.68 1.508-.68.64 0 1.148.246 1.511.73.368.485.551 1.15.551 1.993zm-.902-.106c0-.613-.121-1.09-.356-1.421-.238-.336-.582-.504-1.027-.504-.598 0-1.023.277-1.285.828V-1.5c.277.555.71.832 1.297.832.43 0 .77-.168 1.008-.504.242-.336.363-.84.363-1.516zm0 0"/></symbol><symbol overflow="visible" id="ar"><path d="M5.047-3.031c0 1.058-.18 1.844-.54 2.36-.362.51-.925.769-1.694.769-.758 0-1.32-.25-1.684-.754C.766-1.16.574-1.91.562-2.91v-1.207c0-1.043.18-1.82.54-2.328.363-.508.93-.762 1.703-.762.765 0 1.328.246 1.687.734.36.489.547 1.246.555 2.27zm-.902-1.235c0-.765-.106-1.324-.32-1.675-.216-.348-.555-.524-1.02-.524-.465 0-.801.176-1.012.524-.211.347-.32.882-.328 1.605v1.445c0 .77.113 1.336.336 1.704.222.367.558.546 1.012.546.445 0 .777-.171.992-.515.218-.344.332-.89.34-1.633zm0 0"/></symbol><symbol overflow="visible" id="as"><path d="M4.406-2.387h.985v.739h-.985V0h-.91v-1.648H.258v-.536L3.44-7.109h.965zm-3.12 0h2.21v-3.488l-.105.195zm0 0"/></symbol><symbol overflow="visible" id="at"><path d="M.703-.473c0-.156.047-.289.14-.39.095-.106.231-.157.415-.157.187 0 .328.051.426.157a.567.567 0 01.144.39c0 .149-.05.274-.144.375-.098.102-.239.153-.426.153-.184 0-.324-.051-.414-.153a.532.532 0 01-.14-.375zm0 0"/></symbol><symbol overflow="visible" id="au"><path d="M3.965-2.148h.887v.664h-.887V0h-.817v-1.484H.234v-.48l2.864-4.434h.867zm-2.809 0h1.992v-3.137l-.097.176zm0 0"/></symbol></defs><g clip-path="url(#a)"><path d="M31.46 287.8V4" fill="none" stroke="#666" stroke-opacity=".5" stroke-dasharray="1,2" stroke-miterlimit="3.25"/></g><g clip-path="url(#b)"><path d="M40.027 287.8V4" fill="none" stroke="#666" stroke-opacity=".5" stroke-dasharray="1,2" stroke-miterlimit="3.25"/></g><g clip-path="url(#c)"><path d="M48.594 287.8V4" fill="none" stroke="#666" stroke-opacity=".5" stroke-dasharray="1,2" stroke-miterlimit="3.25"/></g><g clip-path="url(#d)"><path d="M57.164 287.8V4" fill="none" stroke="#666" stroke-opacity=".5" stroke-dasharray="1,2" stroke-miterlimit="3.25"/></g><g clip-path="url(#e)"><path d="M65.73 287.8V4" fill="none" stroke="#666" stroke-opacity=".5" stroke-dasharray="1,2" stroke-miterlimit="3.25"/></g><g clip-path="url(#f)"><path d="M74.297 287.8V4" fill="none" stroke="#666" stroke-opacity=".5" stroke-dasharray="1,2" stroke-miterlimit="3.25"/></g><g clip-path="url(#g)"><path d="M82.867 287.8V4" fill="none" stroke="#666" stroke-opacity=".5" stroke-dasharray="1,2" stroke-miterlimit="3.25"/></g><g clip-path="url(#h)"><path d="M91.434 287.8V4" fill="none" stroke="#666" stroke-opacity=".5" stroke-dasharray="1,2" stroke-miterlimit="3.25"/></g><g clip-path="url(#i)"><path d="M100 287.8V4" fill="none" stroke="#666" stroke-opacity=".5" stroke-dasharray="1,2" stroke-miterlimit="3.25"/></g><g clip-path="url(#j)"><path d="M108.566 287.8V4" fill="none" stroke="#666" stroke-opacity=".5" stroke-dasharray="1,2" stroke-miterlimit="3.25"/></g><g clip-path="url(#k)"><path d="M117.137 287.8V4" fill="none" stroke="#666" stroke-opacity=".5" stroke-dasharray="1,2" stroke-miterlimit="3.25"/></g><g clip-path="url(#l)"><path d="M125.703 287.8V4" fill="none" stroke="#666" stroke-opacity=".5" stroke-dasharray="1,2" stroke-miterlimit="3.25"/></g><g clip-path="url(#m)"><path d="M134.27 287.8V4" fill="none" stroke="#666" stroke-opacity=".5" stroke-dasharray="1,2" stroke-miterlimit="3.25"/></g><g clip-path="url(#n)"><path d="M142.84 287.8V4" fill="none" stroke="#666" stroke-opacity=".5" stroke-dasharray="1,2" stroke-miterlimit="3.25"/></g><g clip-path="url(#o)"><path d="M151.406 287.8V4" fill="none" stroke="#666" stroke-opacity=".5" stroke-dasharray="1,2" stroke-miterlimit="3.25"/></g><g clip-path="url(#p)"><path d="M159.973 287.8V4" fill="none" stroke="#666" stroke-opacity=".5" stroke-dasharray="1,2" stroke-miterlimit="3.25"/></g><g clip-path="url(#q)"><path d="M168.54 287.8V4" fill="none" stroke="#666" stroke-opacity=".5" stroke-dasharray="1,2" stroke-miterlimit="3.25"/></g><g clip-path="url(#r)"><path d="M177.11 287.8V4" fill="none" stroke="#666" stroke-opacity=".5" stroke-dasharray="1,2" stroke-miterlimit="3.25"/></g><g clip-path="url(#s)"><path d="M185.676 287.8V4" fill="none" stroke="#666" stroke-opacity=".5" stroke-dasharray="1,2" stroke-miterlimit="3.25"/></g><g clip-path="url(#t)"><path d="M194.242 287.8V4" fill="none" stroke="#666" stroke-opacity=".5" stroke-dasharray="1,2" stroke-miterlimit="3.25"/></g><g clip-path="url(#u)"><path d="M202.813 287.8V4" fill="none" stroke="#666" stroke-opacity=".5" stroke-dasharray="1,2" stroke-miterlimit="3.25"/></g><g clip-path="url(#v)"><path d="M211.379 287.8V4" fill="none" stroke="#666" stroke-opacity=".5" stroke-dasharray="1,2" stroke-miterlimit="3.25"/></g><g clip-path="url(#w)"><path d="M219.945 287.8V4" fill="none" stroke="#666" stroke-opacity=".5" stroke-dasharray="1,2" stroke-miterlimit="3.25"/></g><g clip-path="url(#x)"><path d="M228.512 287.8V4" fill="none" stroke="#666" stroke-opacity=".5" stroke-dasharray="1,2" stroke-miterlimit="3.25"/></g><g clip-path="url(#y)"><path d="M237.082 287.8V4" fill="none" stroke="#666" stroke-opacity=".5" stroke-dasharray="1,2" stroke-miterlimit="3.25"/></g><g clip-path="url(#z)"><path d="M245.648 287.8V4" fill="none" stroke="#666" stroke-opacity=".5" stroke-dasharray="1,2" stroke-miterlimit="3.25"/></g><g clip-path="url(#A)"><path d="M254.215 287.8V4" fill="none" stroke="#666" stroke-opacity=".5" stroke-dasharray="1,2" stroke-miterlimit="3.25"/></g><g clip-path="url(#B)"><path d="M262.785 287.8V4" fill="none" stroke="#666" stroke-opacity=".5" stroke-dasharray="1,2" stroke-miterlimit="3.25"/></g><g clip-path="url(#C)"><path d="M271.352 287.8V4" fill="none" stroke="#666" stroke-opacity=".5" stroke-dasharray="1,2" stroke-miterlimit="3.25"/></g><g clip-path="url(#D)"><path d="M279.918 287.8V4" fill="none" stroke="#666" stroke-opacity=".5" stroke-dasharray="1,2" stroke-miterlimit="3.25"/></g><g clip-path="url(#E)"><path d="M288.488 287.8V4" fill="none" stroke="#666" stroke-opacity=".5" stroke-dasharray="1,2" stroke-miterlimit="3.25"/></g><g clip-path="url(#F)"><path d="M297.055 287.8V4" fill="none" stroke="#666" stroke-opacity=".5" stroke-dasharray="1,2" stroke-miterlimit="3.25"/></g><g clip-path="url(#G)"><path d="M305.621 287.8V4" fill="none" stroke="#666" stroke-opacity=".5" stroke-dasharray="1,2" stroke-miterlimit="3.25"/></g><g clip-path="url(#H)"><path d="M314.188 287.8V4" fill="none" stroke="#666" stroke-opacity=".5" stroke-dasharray="1,2" stroke-miterlimit="3.25"/></g><g clip-path="url(#I)"><path d="M322.758 287.8V4" fill="none" stroke="#666" stroke-opacity=".5" stroke-dasharray="1,2" stroke-miterlimit="3.25"/></g><g clip-path="url(#J)"><path d="M331.324 287.8V4" fill="none" stroke="#666" stroke-opacity=".5" stroke-dasharray="1,2" stroke-miterlimit="3.25"/></g><g clip-path="url(#K)"><path d="M339.89 287.8V4" fill="none" stroke="#666" stroke-opacity=".5" stroke-dasharray="1,2" stroke-miterlimit="3.25"/></g><g clip-path="url(#L)"><path d="M348.46 287.8V4" fill="none" stroke="#666" stroke-opacity=".5" stroke-dasharray="1,2" stroke-miterlimit="3.25"/></g><g clip-path="url(#M)"><path d="M357.027 287.8V4" fill="none" stroke="#666" stroke-opacity=".5" stroke-dasharray="1,2" stroke-miterlimit="3.25"/></g><g clip-path="url(#N)"><path d="M365.594 287.8V4" fill="none" stroke="#666" stroke-opacity=".5" stroke-dasharray="1,2" stroke-miterlimit="3.25"/></g><g clip-path="url(#O)"><path d="M374.16 287.8V4" fill="none" stroke="#666" stroke-opacity=".5" stroke-dasharray="1,2" stroke-miterlimit="3.25"/></g><g clip-path="url(#P)"><path d="M382.73 287.8V4" fill="none" stroke="#666" stroke-opacity=".5" stroke-dasharray="1,2" stroke-miterlimit="3.25"/></g><g clip-path="url(#Q)"><path d="M391.297 287.8V4" fill="none" stroke="#666" stroke-opacity=".5" stroke-dasharray="1,2" stroke-miterlimit="3.25"/></g><g clip-path="url(#R)"><path d="M399.863 287.8V4" fill="none" stroke="#666" stroke-opacity=".5" stroke-dasharray="1,2" stroke-miterlimit="3.25"/></g><g clip-path="url(#S)"><path d="M408.434 287.8V4" fill="none" stroke="#666" stroke-opacity=".5" stroke-dasharray="1,2" stroke-miterlimit="3.25"/></g><g clip-path="url(#T)"><path d="M417 287.8V4" fill="none" stroke="#666" stroke-opacity=".5" stroke-dasharray="1,2" stroke-miterlimit="3.25"/></g><g clip-path="url(#U)"><path d="M425.566 287.8V4" fill="none" stroke="#666" stroke-opacity=".5" stroke-dasharray="1,2" stroke-miterlimit="3.25"/></g><g clip-path="url(#V)"><path d="M434.133 287.8V4" fill="none" stroke="#666" stroke-opacity=".5" stroke-dasharray="1,2" stroke-miterlimit="3.25"/></g><g clip-path="url(#W)"><path d="M442.703 287.8V4" fill="none" stroke="#666" stroke-opacity=".5" stroke-dasharray="1,2" stroke-miterlimit="3.25"/></g><g clip-path="url(#X)"><path d="M451.27 287.8V4" fill="none" stroke="#666" stroke-opacity=".5" stroke-dasharray="1,2" stroke-miterlimit="3.25"/></g><g clip-path="url(#Y)"><path d="M459.836 287.8V4" fill="none" stroke="#666" stroke-opacity=".5" stroke-dasharray="1,2" stroke-miterlimit="3.25"/></g><g clip-path="url(#Z)"><path d="M468.406 287.8V4" fill="none" stroke="#666" stroke-opacity=".5" stroke-dasharray="1,2" stroke-miterlimit="3.25"/></g><g clip-path="url(#aa)"><path d="M476.973 287.8V4" fill="none" stroke="#666" stroke-opacity=".5" stroke-dasharray="1,2" stroke-miterlimit="3.25"/></g><g clip-path="url(#ab)"><path d="M485.54 287.8V4" fill="none" stroke="#666" stroke-opacity=".5" stroke-dasharray="1,2" stroke-miterlimit="3.25"/></g><g clip-path="url(#ac)"><path d="M494.11 287.8V4" fill="none" stroke="#666" stroke-opacity=".5" stroke-dasharray="1,2" stroke-miterlimit="3.25"/></g><g clip-path="url(#ad)"><path d="M22 285.73h473" fill="none" stroke="#666" stroke-opacity=".5" stroke-dasharray="1,2" stroke-miterlimit="3.25"/></g><g clip-path="url(#ae)"><path d="M22 213.34h473" fill="none" stroke="#666" stroke-opacity=".5" stroke-dasharray="1,2" stroke-miterlimit="3.25"/></g><g clip-path="url(#af)"><path d="M22 140.953h473" fill="none" stroke="#666" stroke-opacity=".5" stroke-dasharray="1,2" stroke-miterlimit="3.25"/></g><g clip-path="url(#ag)"><path d="M22 68.566h473" fill="none" stroke="#666" stroke-opacity=".5" stroke-dasharray="1,2" stroke-miterlimit="3.25"/></g><path d="M442.703 81.941l8.567-13.867 8.566-4 8.57-1.66 8.567-.758 8.566-.363" fill="none" stroke-width="1.6" stroke-linecap="square" stroke="#a60000" stroke-opacity=".3" stroke-miterlimit="3.25"/><path d="M442.703 82.09l8.567-12.649 8.566-3.437 8.57-1.305 8.567-.543 8.566-.238" fill="none" stroke-width="1.6" stroke-linecap="square" stroke="#0d86a0" stroke-opacity=".3" stroke-miterlimit="3.25"/><path d="M442.703 177.148l8.567.477 8.566-.332 8.57-.328 8.567-.32 8.566-.313" fill="none" stroke-width="1.6" stroke-linecap="square" stroke="#c05c20" stroke-opacity=".3" stroke-miterlimit="3.25"/><path d="M442.703 177.148l8.567 3.997 8.566-1.586 8.57-.098 8.567-.445 8.566-.348" fill="none" stroke-width="1.6" stroke-linecap="square" stroke="#a8364d" stroke-opacity=".3" stroke-miterlimit="3.25"/><path d="M451.27 203.664h34.27" fill="none" stroke-width="1.6" stroke-linecap="square" stroke="#3664cc" stroke-opacity=".3" stroke-miterlimit="3.25"/><path d="M451.27 134.137h34.27" fill="none" stroke-width="1.6" stroke-linecap="square" stroke="#833987" stroke-opacity=".3" stroke-miterlimit="3.25"/><path d="M451.27 268.695h34.27" fill="none" stroke-width="1.6" stroke-linecap="square" stroke="#a54f05" stroke-opacity=".3" stroke-miterlimit="3.25"/><path d="M442.703 155.355l8.567-.324 8.566-.316 8.57-.313 8.567-.304 8.566-.301" fill="none" stroke-width="1.6" stroke-linecap="square" stroke="#6846c7" stroke-opacity=".3" stroke-miterlimit="3.25"/><path d="M74.297 155.355l8.57-22.742 8.567-19.558 8.566-4.39 8.566-2.595 8.57-7.578 8.567 2.024L134.27 89.8l8.57-8.473 8.566-6.887 8.567-1.746 8.566-13.113 8.57 3.047 8.567-2.742 8.566-2.075 8.57-.925 8.567-3.282 8.566-1.386 8.567-2.11 8.57-2.886 8.566.8 8.567 2.54 8.57-1.231 8.567 3.879 8.566-2.238 8.57 3.289 8.567 3.289 8.566-30.59 8.567 16.023 8.57 10.317 8.566 4.297 8.567-.301 8.57 1.297 8.566 1.183 8.567 11.907 8.566-1.27 8.57 12.672 8.567-7.7 8.566 7.231 8.57-3.406L417 82.734l8.566-1.011 8.567 4.414 8.57-4.196" fill="none" stroke-width="1.6" stroke-linecap="square" stroke="#a60000" stroke-miterlimit="3.25"/><path d="M74.297 155.355l8.57-22.742 8.567-19.558 8.566-4.188 8.566 1.055 8.57-5.93 8.567 6.598 8.567-6.598 8.57-8.472 8.566-9.192 8.567-2.176 8.566-19.601 8.57 6.754 8.567-3.235 8.566-2.632 8.57-1.555 8.567-5.578 8.566-1.426 8.567-1.711 8.57-4.668 8.566.863 8.567 3.137 8.57-2.348 8.567 4.403 8.566-3.117 8.57 3.488 8.567 3.883 8.566-33.496 8.567 16.519 8.57 10.84 8.566 4.281 8.567-.75 8.57 1.063 8.566 1.023 8.567 12.281 8.566 3.23 8.57 8.563 8.567-8.535 8.566 7.219 8.57-3.555L417 82.93l8.566-.313 8.567 3.957 8.57-4.484" fill="none" stroke-width="1.6" stroke-linecap="square" stroke="#0d86a0" stroke-miterlimit="3.25"/><path d="M100 177.148l8.566-40.32 8.57 1.258 8.567 10.898 8.567-19.695 8.57-2.738 8.566 3.508 8.567-13.762 8.566 2.098 8.57-3.657 8.567-4.37 8.566-2.49 8.57-6.874 8.567 6.496 8.566.965 8.567-5.766 8.57 7.008 8.566-.215h8.567l8.57 4.102 8.567 3.719 8.566 5.855 8.57 2.766 8.567-7.54 8.566 10.165 8.567 1.5 8.57-7.871 8.566 6.37 8.567 20.426h8.57l8.566 10.895 8.567 17.27h8.566l8.57-28.165 8.567 10.895h8.566l8.57 6.371m25.7 10.898h8.57" fill="none" stroke-width="1.6" stroke-linecap="square" stroke="#c05c20" stroke-miterlimit="3.25"/><path d="M117.137 177.148l8.566-21.793h8.567l8.57-27.496 8.566-12.515 8.567 1.969 8.566 1.851 8.57.805 8.567-10.047 8.566-.43 8.57.875 8.567-.222 8.566-.438 8.567-6.3 8.57 3.183 8.566.36 8.567 5.073 8.57-.968 8.567 3.683 8.566 4.426 8.57 3.504 8.567 1.016 8.566-1.97 8.567 12.864 8.57-9.808 8.566 6.093 8.567 3.715 8.57 4.875 8.566 12.395 8.567 3.507 8.566 10.895 8.57-6.371h8.567l8.566 17.27" fill="none" stroke-width="1.6" stroke-linecap="square" stroke="#6f42b5" stroke-miterlimit="3.25"/><path d="M117.137 151.848h8.566l8.567-29.66 8.57 8.675 8.566-12.468 8.567 8.796 8.566-9.879 8.57-15.808 8.567-1.11 8.566 3.012 8.57 8.867h8.567l8.566-.25 8.567-8.03 8.57 7.296 8.566 1.766 8.567 1.984 8.57 3.356 8.567 6.945 8.566-1.121 8.57 2.332 8.567 9.113h8.566l8.567 5.29 8.57 5.605 8.566 5.289 8.567 3.507 8.57 21.793h8.566l8.567-10.898 8.566-41.48 8.57 41.48" fill="none" stroke-width="1.6" stroke-linecap="square" stroke="#769003" stroke-miterlimit="3.25"/><path d="M117.137 177.148l8.566-32.687 8.567-9.883 8.57-3.715 8.566-4.93 8.567-2.765 8.566-5.145 8.57-9.359 8.567 5.211 8.566.281 8.57-.562 8.567-4.102 8.566 3.828 8.567-3.398 8.57.898 8.566 4.836 8.567-3.129 8.57 10.641 8.567-1.906 8.566-2.489 8.57 3.415 8.567-.473 8.566 6.844 8.567 1.5 8.57 6.77 8.566 23.05 8.567 6.371 8.57 10.898h8.566l8.567-10.898 8.566 10.898 8.57-10.898 8.567-6.371" fill="none" stroke-width="1.6" stroke-linecap="square" stroke="#a8364d" stroke-miterlimit="3.25"/><path d="M125.703 177.148l8.567-41.484 8.57-8.473 8.566 2.098 8.567 11.664 8.566-20.137 8.57-3.851 8.567-.668 8.566 4.09 8.57-7.598 8.567 5.234 8.566-7.203 8.567-.898 8.57 5.734 8.566-3.129 8.567-3.035 8.57 1.328 8.567 6.145 8.566-1.621 8.57 8.34 8.567.535 8.566 5.07 8.567-2.098 8.57 6.375 8.566 4.52 8.567 1.367 8.57 3.156 8.566 12.746 8.567 21.793h17.136" fill="none" stroke-width="1.6" stroke-linecap="square" stroke="#3664cc" stroke-miterlimit="3.25"/><path d="M117.137 166.25l8.566 10.898 8.567-21.793 8.57-15.902 8.566-7.738 8.567 6.37 8.566-10.894 8.57-6.804 8.567-5.649 8.566-5.87 8.57 7.76h8.567l8.566-3.573 8.567-5.743 8.57 2.61 8.566 5.117 8.567-2.512 8.57 7.86 8.567-1.992 8.566 4.273h8.57l8.567-3.504 8.566 5.606h8.567l8.57 12.058 8.566 1.258 8.567 13.762 8.57 8.03 8.566 17.27h8.567" fill="none" stroke-width="1.6" stroke-linecap="square" stroke="#c8860a" stroke-miterlimit="3.25"/><path d="M117.137 177.148l8.566-25.3 8.567 8.03 8.57-21.792 8.566-6.371 8.567-4.524h8.566l8.57-5.476 8.567 5.476 8.566-5.004 8.57 5.004 8.567.668 8.566 1.43 8.567-2.098 8.57-2.421 8.566-7.457 8.567 3.503 8.57 3.954h8.567l8.566 2.421 8.57-1.851 8.567 14.113 8.566 3.156 8.567-5.78 8.57 2.624 8.566 7.106 8.567 8.796 8.57 10.895 8.566 10.898 8.567-10.898 8.566-72.543 8.57 72.543 8.567-10.895 8.566 21.793" fill="none" stroke-width="1.6" stroke-linecap="square" stroke="#833987" stroke-miterlimit="3.25"/><path d="M125.703 177.148l8.567-32.687 8.57-1.852 8.566-5.78 8.567-3.263 8.566-5.707 8.57-3.64 8.567-.535 8.566-4.125 8.57 2.156h8.567l8.566-.453 8.567-.875 8.57 1.8 8.566.481 8.567-1.406 8.57 1.906 8.567 1.05 8.566 2.973 8.57.668 8.567-3.09 8.566.57 8.567 2.52 8.57 11.594 8.566-2.625 8.567 5.781 8.57 17.27 8.566 6.371" fill="none" stroke-width="1.6" stroke-linecap="square" stroke="#1c8f6b" stroke-miterlimit="3.25"/><path d="M117.137 151.848l8.566 3.507 8.567-23.64 8.57-8.031 8.566 8.03 8.567-10.452 8.566 7.297 8.57 6.02 8.567-2.864 8.566-12.942 8.57 3.895 8.567 4.523 8.566-7.222 8.567.418 8.57 3.832 8.566 3.64 8.567.7 8.57 6.02 8.567-4.52 8.566-1.5 8.57 3.156 8.567-.852 8.566 5.965 8.567 2.625 8.57 5.008 8.566 2.098h8.567l8.57 19.691h8.566l8.567-14.402 8.566-5.29 8.57 5.29 8.567 25.3 8.566-10.898 8.57 10.898" fill="none" stroke-width="1.6" stroke-linecap="square" stroke="#a54f05" stroke-miterlimit="3.25"/><path d="M100 177.148l8.566-47.09 8.57-12.394 8.567-7.297 8.567-15.191 8.57-6.145 8.566-4.054 8.567-2.625 8.566-1.547 8.57-4.29 8.567-2.456 8.566-1.118 8.57.02 8.567 1.992 8.566-1.355 8.567-3.043 8.57 2.808 8.566.63 8.567.636 8.57 2.633 8.567 2.011 8.566 2.125 8.57 2.336 8.567.121 8.566 3.223 8.567 2.125 8.57 3.234 8.566 4.45 8.567 5.539 8.57 5.84 8.566 5.609 8.567 3.438 8.566-27.454 8.57 33.309 8.567 6.89 8.566 8.028 8.57 4.523 8.567 9.239 8.566-24.657 8.567 15.418 8.57 12.746" fill="none" stroke-width="1.6" stroke-linecap="square" stroke="#6846c7" stroke-miterlimit="3.25"/><path d="M444.734 82a1.736 1.736 0 10-3.47 0 1.736 1.736 0 003.47 0zm8-14a1.736 1.736 0 10-3.47 0 1.736 1.736 0 003.47 0zm9-4a1.736 1.736 0 10-3.47 0 1.736 1.736 0 003.47 0zm8-2a1.736 1.736 0 10-3.47 0 1.736 1.736 0 003.47 0zm9 0a1.736 1.736 0 10-3.47 0 1.736 1.736 0 003.47 0zm9-1a1.736 1.736 0 10-3.47 0 1.736 1.736 0 003.47 0zm0 0" fill-rule="evenodd" fill="#a60000" fill-opacity=".3"/><path d="M444.734 82a1.736 1.736 0 10-3.47 0 1.736 1.736 0 003.47 0zm8-13a1.736 1.736 0 10-3.47 0 1.736 1.736 0 003.47 0zm9-3a1.736 1.736 0 10-3.47 0 1.736 1.736 0 003.47 0zm8-1a1.736 1.736 0 10-3.47 0 1.736 1.736 0 003.47 0zm9-1a1.736 1.736 0 10-3.47 0 1.736 1.736 0 003.47 0zm9 0a1.736 1.736 0 10-3.47 0 1.736 1.736 0 003.47 0zm0 0" fill-rule="evenodd" fill="#0d86a0" fill-opacity=".3"/><path d="M444.734 177a1.736 1.736 0 10-3.47 0 1.736 1.736 0 003.47 0zm8 1a1.736 1.736 0 10-3.47 0 1.736 1.736 0 003.47 0zm9-1a1.736 1.736 0 10-3.47 0 1.736 1.736 0 003.47 0zm8 0a1.736 1.736 0 10-3.47 0 1.736 1.736 0 003.47 0zm9 0a1.736 1.736 0 10-3.47 0 1.736 1.736 0 003.47 0zm9-1a1.736 1.736 0 10-3.47 0 1.736 1.736 0 003.47 0zm0 0" fill-rule="evenodd" fill="#c05c20" fill-opacity=".3"/><path d="M444.734 177a1.736 1.736 0 10-3.47 0 1.736 1.736 0 003.47 0zm8 4a1.736 1.736 0 10-3.47 0 1.736 1.736 0 003.47 0zm9-1a1.736 1.736 0 10-3.47 0 1.736 1.736 0 003.47 0zm8-1a1.736 1.736 0 10-3.47 0 1.736 1.736 0 003.47 0zm9 0a1.736 1.736 0 10-3.47 0 1.736 1.736 0 003.47 0zm9 0a1.736 1.736 0 10-3.47 0 1.736 1.736 0 003.47 0zm0 0" fill-rule="evenodd" fill="#a8364d" fill-opacity=".3"/><path d="M452.734 204a1.736 1.736 0 10-3.47 0 1.736 1.736 0 003.47 0zm9 0a1.736 1.736 0 10-3.47 0 1.736 1.736 0 003.47 0zm8 0a1.736 1.736 0 10-3.47 0 1.736 1.736 0 003.47 0zm9 0a1.736 1.736 0 10-3.47 0 1.736 1.736 0 003.47 0zm9 0a1.736 1.736 0 10-3.47 0 1.736 1.736 0 003.47 0zm0 0" fill-rule="evenodd" fill="#3664cc" fill-opacity=".3"/><path d="M452.734 134a1.736 1.736 0 10-3.47 0 1.736 1.736 0 003.47 0zm9 0a1.736 1.736 0 10-3.47 0 1.736 1.736 0 003.47 0zm8 0a1.736 1.736 0 10-3.47 0 1.736 1.736 0 003.47 0zm9 0a1.736 1.736 0 10-3.47 0 1.736 1.736 0 003.47 0zm9 0a1.736 1.736 0 10-3.47 0 1.736 1.736 0 003.47 0zm0 0" fill-rule="evenodd" fill="#833987" fill-opacity=".3"/><path d="M452.734 269a1.736 1.736 0 10-3.47 0 1.736 1.736 0 003.47 0zm9 0a1.736 1.736 0 10-3.47 0 1.736 1.736 0 003.47 0zm8 0a1.736 1.736 0 10-3.47 0 1.736 1.736 0 003.47 0zm9 0a1.736 1.736 0 10-3.47 0 1.736 1.736 0 003.47 0zm9 0a1.736 1.736 0 10-3.47 0 1.736 1.736 0 003.47 0zm0 0" fill-rule="evenodd" fill="#a54f05" fill-opacity=".3"/><path d="M444.734 155a1.736 1.736 0 10-3.47 0 1.736 1.736 0 003.47 0zm8 0a1.736 1.736 0 10-3.47 0 1.736 1.736 0 003.47 0zm9 0a1.736 1.736 0 10-3.47 0 1.736 1.736 0 003.47 0zm8-1a1.736 1.736 0 10-3.47 0 1.736 1.736 0 003.47 0zm9 0a1.736 1.736 0 10-3.47 0 1.736 1.736 0 003.47 0zm9 0a1.736 1.736 0 10-3.47 0 1.736 1.736 0 003.47 0zm0 0" fill-rule="evenodd" fill="#6846c7" fill-opacity=".3"/><path d="M32.734 119a1.736 1.736 0 10-3.47 0 1.736 1.736 0 003.47 0zm43 36a1.736 1.736 0 10-3.47 0 1.736 1.736 0 003.47 0zm9-22a1.736 1.736 0 10-3.47 0 1.736 1.736 0 003.47 0zm8-20a1.736 1.736 0 10-3.47 0 1.736 1.736 0 003.47 0zm9-4a1.736 1.736 0 10-3.47 0 1.736 1.736 0 003.47 0zm9-3a1.736 1.736 0 10-3.47 0 1.736 1.736 0 003.47 0zm8-8a1.736 1.736 0 10-3.47 0 1.736 1.736 0 003.47 0zm9 3a1.736 1.736 0 10-3.47 0 1.736 1.736 0 003.47 0zm8-11a1.736 1.736 0 10-3.47 0 1.736 1.736 0 003.47 0zm9-9a1.736 1.736 0 10-3.47 0 1.736 1.736 0 003.47 0zm8-7a1.736 1.736 0 10-3.47 0 1.736 1.736 0 003.47 0zm9-1a1.736 1.736 0 10-3.47 0 1.736 1.736 0 003.47 0zm9-13a1.736 1.736 0 10-3.47 0 1.736 1.736 0 003.47 0zm8 3a1.736 1.736 0 10-3.47 0 1.736 1.736 0 003.47 0zm9-3a1.736 1.736 0 10-3.47 0 1.736 1.736 0 003.47 0zm8-2a1.736 1.736 0 10-3.47 0 1.736 1.736 0 003.47 0zm9-1a1.736 1.736 0 10-3.47 0 1.736 1.736 0 003.47 0zm8-3a1.736 1.736 0 10-3.47 0 1.736 1.736 0 003.47 0zm9-2a1.736 1.736 0 10-3.47 0 1.736 1.736 0 003.47 0zm9-2a1.736 1.736 0 10-3.47 0 1.736 1.736 0 003.47 0zm8-3a1.736 1.736 0 10-3.47 0 1.736 1.736 0 003.47 0zm9 1a1.736 1.736 0 10-3.47 0 1.736 1.736 0 003.47 0zm8 3a1.736 1.736 0 10-3.47 0 1.736 1.736 0 003.47 0zm9-2a1.736 1.736 0 10-3.47 0 1.736 1.736 0 003.47 0zm8 4a1.736 1.736 0 10-3.47 0 1.736 1.736 0 003.47 0zm9-2a1.736 1.736 0 10-3.47 0 1.736 1.736 0 003.47 0zm8 3a1.736 1.736 0 10-3.47 0 1.736 1.736 0 003.47 0zm9 4a1.736 1.736 0 10-3.47 0 1.736 1.736 0 003.47 0zm9-31a1.736 1.736 0 10-3.47 0 1.736 1.736 0 003.47 0zm8 16a1.736 1.736 0 10-3.47 0 1.736 1.736 0 003.47 0zm9 10a1.736 1.736 0 10-3.47 0 1.736 1.736 0 003.47 0zm8 5a1.736 1.736 0 10-3.47 0 1.736 1.736 0 003.47 0zm9-1a1.736 1.736 0 10-3.47 0 1.736 1.736 0 003.47 0zm8 2a1.736 1.736 0 10-3.47 0 1.736 1.736 0 003.47 0zm9 1a1.736 1.736 0 10-3.47 0 1.736 1.736 0 003.47 0zm9 12a1.736 1.736 0 10-3.47 0 1.736 1.736 0 003.47 0zm8-2a1.736 1.736 0 10-3.47 0 1.736 1.736 0 003.47 0zm9 13a1.736 1.736 0 10-3.47 0 1.736 1.736 0 003.47 0zm8-8a1.736 1.736 0 10-3.47 0 1.736 1.736 0 003.47 0zm9 8a1.736 1.736 0 10-3.47 0 1.736 1.736 0 003.47 0zm8-4a1.736 1.736 0 10-3.47 0 1.736 1.736 0 003.47 0zm9 4a1.736 1.736 0 10-3.47 0 1.736 1.736 0 003.47 0zm9-1a1.736 1.736 0 10-3.47 0 1.736 1.736 0 003.47 0zm8 4a1.736 1.736 0 10-3.47 0 1.736 1.736 0 003.47 0zm9-4a1.736 1.736 0 10-3.47 0 1.736 1.736 0 003.47 0zm0 0" fill-rule="evenodd" fill="#a60000"/><path d="M32.734 119a1.736 1.736 0 10-3.47 0 1.736 1.736 0 003.47 0zm43 36a1.736 1.736 0 10-3.47 0 1.736 1.736 0 003.47 0zm9-22a1.736 1.736 0 10-3.47 0 1.736 1.736 0 003.47 0zm8-20a1.736 1.736 0 10-3.47 0 1.736 1.736 0 003.47 0zm9-4a1.736 1.736 0 10-3.47 0 1.736 1.736 0 003.47 0zm9 1a1.736 1.736 0 10-3.47 0 1.736 1.736 0 003.47 0zm8-6a1.736 1.736 0 10-3.47 0 1.736 1.736 0 003.47 0zm9 7a1.736 1.736 0 10-3.47 0 1.736 1.736 0 003.47 0zm8-7a1.736 1.736 0 10-3.47 0 1.736 1.736 0 003.47 0zm9-8a1.736 1.736 0 10-3.47 0 1.736 1.736 0 003.47 0zm8-10a1.736 1.736 0 10-3.47 0 1.736 1.736 0 003.47 0zm9-2a1.736 1.736 0 10-3.47 0 1.736 1.736 0 003.47 0zm9-19a1.736 1.736 0 10-3.47 0 1.736 1.736 0 003.47 0zm8 6a1.736 1.736 0 10-3.47 0 1.736 1.736 0 003.47 0zm9-3a1.736 1.736 0 10-3.47 0 1.736 1.736 0 003.47 0zm8-3a1.736 1.736 0 10-3.47 0 1.736 1.736 0 003.47 0zm9-1a1.736 1.736 0 10-3.47 0 1.736 1.736 0 003.47 0zm8-6a1.736 1.736 0 10-3.47 0 1.736 1.736 0 003.47 0zm9-1a1.736 1.736 0 10-3.47 0 1.736 1.736 0 003.47 0zm9-2a1.736 1.736 0 10-3.47 0 1.736 1.736 0 003.47 0zm8-5a1.736 1.736 0 10-3.47 0 1.736 1.736 0 003.47 0zm9 1a1.736 1.736 0 10-3.47 0 1.736 1.736 0 003.47 0zm8 3a1.736 1.736 0 10-3.47 0 1.736 1.736 0 003.47 0zm9-2a1.736 1.736 0 10-3.47 0 1.736 1.736 0 003.47 0zm8 5a1.736 1.736 0 10-3.47 0 1.736 1.736 0 003.47 0zm9-4a1.736 1.736 0 10-3.47 0 1.736 1.736 0 003.47 0zm8 4a1.736 1.736 0 10-3.47 0 1.736 1.736 0 003.47 0zm9 4a1.736 1.736 0 10-3.47 0 1.736 1.736 0 003.47 0zm9-34a1.736 1.736 0 10-3.47 0 1.736 1.736 0 003.47 0zm8 17a1.736 1.736 0 10-3.47 0 1.736 1.736 0 003.47 0zm9 11a1.736 1.736 0 10-3.47 0 1.736 1.736 0 003.47 0zm8 4a1.736 1.736 0 10-3.47 0 1.736 1.736 0 003.47 0zm9-1a1.736 1.736 0 10-3.47 0 1.736 1.736 0 003.47 0zm8 1a1.736 1.736 0 10-3.47 0 1.736 1.736 0 003.47 0zm9 1a1.736 1.736 0 10-3.47 0 1.736 1.736 0 003.47 0zm9 13a1.736 1.736 0 10-3.47 0 1.736 1.736 0 003.47 0zm8 3a1.736 1.736 0 10-3.47 0 1.736 1.736 0 003.47 0zm9 8a1.736 1.736 0 10-3.47 0 1.736 1.736 0 003.47 0zm8-8a1.736 1.736 0 10-3.47 0 1.736 1.736 0 003.47 0zm9 7a1.736 1.736 0 10-3.47 0 1.736 1.736 0 003.47 0zm8-4a1.736 1.736 0 10-3.47 0 1.736 1.736 0 003.47 0zm9 4a1.736 1.736 0 10-3.47 0 1.736 1.736 0 003.47 0zm9 0a1.736 1.736 0 10-3.47 0 1.736 1.736 0 003.47 0zm8 4a1.736 1.736 0 10-3.47 0 1.736 1.736 0 003.47 0zm9-5a1.736 1.736 0 10-3.47 0 1.736 1.736 0 003.47 0zm0 0" fill-rule="evenodd" fill="#0d86a0"/><path d="M101.734 177a1.736 1.736 0 10-3.47 0 1.736 1.736 0 003.47 0zm9-40a1.736 1.736 0 10-3.47 0 1.736 1.736 0 003.47 0zm8 1a1.736 1.736 0 10-3.47 0 1.736 1.736 0 003.47 0zm9 11a1.736 1.736 0 10-3.47 0 1.736 1.736 0 003.47 0zm8-20a1.736 1.736 0 10-3.47 0 1.736 1.736 0 003.47 0zm9-2a1.736 1.736 0 10-3.47 0 1.736 1.736 0 003.47 0zm8 3a1.736 1.736 0 10-3.47 0 1.736 1.736 0 003.47 0zm9-14a1.736 1.736 0 10-3.47 0 1.736 1.736 0 003.47 0zm9 2a1.736 1.736 0 10-3.47 0 1.736 1.736 0 003.47 0zm8-3a1.736 1.736 0 10-3.47 0 1.736 1.736 0 003.47 0zm9-5a1.736 1.736 0 10-3.47 0 1.736 1.736 0 003.47 0zm8-2a1.736 1.736 0 10-3.47 0 1.736 1.736 0 003.47 0zm9-7a1.736 1.736 0 10-3.47 0 1.736 1.736 0 003.47 0zm8 6a1.736 1.736 0 10-3.47 0 1.736 1.736 0 003.47 0zm9 1a1.736 1.736 0 10-3.47 0 1.736 1.736 0 003.47 0zm9-5a1.736 1.736 0 10-3.47 0 1.736 1.736 0 003.47 0zm8 7a1.736 1.736 0 10-3.47 0 1.736 1.736 0 003.47 0zm9-1a1.736 1.736 0 10-3.47 0 1.736 1.736 0 003.47 0zm8 0a1.736 1.736 0 10-3.47 0 1.736 1.736 0 003.47 0zm9 5a1.736 1.736 0 10-3.47 0 1.736 1.736 0 003.47 0zm8 3a1.736 1.736 0 10-3.47 0 1.736 1.736 0 003.47 0zm9 6a1.736 1.736 0 10-3.47 0 1.736 1.736 0 003.47 0zm8 3a1.736 1.736 0 10-3.47 0 1.736 1.736 0 003.47 0zm9-8a1.736 1.736 0 10-3.47 0 1.736 1.736 0 003.47 0zm9 11a1.736 1.736 0 10-3.47 0 1.736 1.736 0 003.47 0zm8 1a1.736 1.736 0 10-3.47 0 1.736 1.736 0 003.47 0zm9-8a1.736 1.736 0 10-3.47 0 1.736 1.736 0 003.47 0zm8 7a1.736 1.736 0 10-3.47 0 1.736 1.736 0 003.47 0zm9 20a1.736 1.736 0 10-3.47 0 1.736 1.736 0 003.47 0zm8 0a1.736 1.736 0 10-3.47 0 1.736 1.736 0 003.47 0zm9 11a1.736 1.736 0 10-3.47 0 1.736 1.736 0 003.47 0zm9 17a1.736 1.736 0 10-3.47 0 1.736 1.736 0 003.47 0zm8 0a1.736 1.736 0 10-3.47 0 1.736 1.736 0 003.47 0zm9-28a1.736 1.736 0 10-3.47 0 1.736 1.736 0 003.47 0zm8 11a1.736 1.736 0 10-3.47 0 1.736 1.736 0 003.47 0zm9 0a1.736 1.736 0 10-3.47 0 1.736 1.736 0 003.47 0zm8 6a1.736 1.736 0 10-3.47 0 1.736 1.736 0 003.47 0zm26 11a1.736 1.736 0 10-3.47 0 1.736 1.736 0 003.47 0zm9 0a1.736 1.736 0 10-3.47 0 1.736 1.736 0 003.47 0zm0 0" fill-rule="evenodd" fill="#c05c20"/><path d="M118.734 177a1.736 1.736 0 10-3.47 0 1.736 1.736 0 003.47 0zm9-22a1.736 1.736 0 10-3.47 0 1.736 1.736 0 003.47 0zm8 0a1.736 1.736 0 10-3.47 0 1.736 1.736 0 003.47 0zm9-27a1.736 1.736 0 10-3.47 0 1.736 1.736 0 003.47 0zm8-13a1.736 1.736 0 10-3.47 0 1.736 1.736 0 003.47 0zm9 2a1.736 1.736 0 10-3.47 0 1.736 1.736 0 003.47 0zm9 2a1.736 1.736 0 10-3.47 0 1.736 1.736 0 003.47 0zm8 1a1.736 1.736 0 10-3.47 0 1.736 1.736 0 003.47 0zm9-10a1.736 1.736 0 10-3.47 0 1.736 1.736 0 003.47 0zm8-1a1.736 1.736 0 10-3.47 0 1.736 1.736 0 003.47 0zm9 1a1.736 1.736 0 10-3.47 0 1.736 1.736 0 003.47 0zm8 0a1.736 1.736 0 10-3.47 0 1.736 1.736 0 003.47 0zm9 0a1.736 1.736 0 10-3.47 0 1.736 1.736 0 003.47 0zm9-7a1.736 1.736 0 10-3.47 0 1.736 1.736 0 003.47 0zm8 4a1.736 1.736 0 10-3.47 0 1.736 1.736 0 003.47 0zm9 0a1.736 1.736 0 10-3.47 0 1.736 1.736 0 003.47 0zm8 5a1.736 1.736 0 10-3.47 0 1.736 1.736 0 003.47 0zm9-1a1.736 1.736 0 10-3.47 0 1.736 1.736 0 003.47 0zm8 4a1.736 1.736 0 10-3.47 0 1.736 1.736 0 003.47 0zm9 4a1.736 1.736 0 10-3.47 0 1.736 1.736 0 003.47 0zm8 4a1.736 1.736 0 10-3.47 0 1.736 1.736 0 003.47 0zm9 1a1.736 1.736 0 10-3.47 0 1.736 1.736 0 003.47 0zm9-2a1.736 1.736 0 10-3.47 0 1.736 1.736 0 003.47 0zm8 13a1.736 1.736 0 10-3.47 0 1.736 1.736 0 003.47 0zm9-10a1.736 1.736 0 10-3.47 0 1.736 1.736 0 003.47 0zm8 6a1.736 1.736 0 10-3.47 0 1.736 1.736 0 003.47 0zm9 4a1.736 1.736 0 10-3.47 0 1.736 1.736 0 003.47 0zm8 4a1.736 1.736 0 10-3.47 0 1.736 1.736 0 003.47 0zm9 13a1.736 1.736 0 10-3.47 0 1.736 1.736 0 003.47 0zm9 3a1.736 1.736 0 10-3.47 0 1.736 1.736 0 003.47 0zm8 11a1.736 1.736 0 10-3.47 0 1.736 1.736 0 003.47 0zm9-6a1.736 1.736 0 10-3.47 0 1.736 1.736 0 003.47 0zm8 0a1.736 1.736 0 10-3.47 0 1.736 1.736 0 003.47 0zm9 17a1.736 1.736 0 10-3.47 0 1.736 1.736 0 003.47 0zm26 0a1.736 1.736 0 10-3.47 0 1.736 1.736 0 003.47 0zm0 0" fill-rule="evenodd" fill="#6f42b5"/><path d="M118.734 152a1.736 1.736 0 10-3.47 0 1.736 1.736 0 003.47 0zm9 0a1.736 1.736 0 10-3.47 0 1.736 1.736 0 003.47 0zm8-30a1.736 1.736 0 10-3.47 0 1.736 1.736 0 003.47 0zm9 9a1.736 1.736 0 10-3.47 0 1.736 1.736 0 003.47 0zm8-13a1.736 1.736 0 10-3.47 0 1.736 1.736 0 003.47 0zm9 9a1.736 1.736 0 10-3.47 0 1.736 1.736 0 003.47 0zm9-10a1.736 1.736 0 10-3.47 0 1.736 1.736 0 003.47 0zm8-15a1.736 1.736 0 10-3.47 0 1.736 1.736 0 003.47 0zm9-2a1.736 1.736 0 10-3.47 0 1.736 1.736 0 003.47 0zm8 3a1.736 1.736 0 10-3.47 0 1.736 1.736 0 003.47 0zm9 9a1.736 1.736 0 10-3.47 0 1.736 1.736 0 003.47 0zm8 0a1.736 1.736 0 10-3.47 0 1.736 1.736 0 003.47 0zm9 0a1.736 1.736 0 10-3.47 0 1.736 1.736 0 003.47 0zm9-8a1.736 1.736 0 10-3.47 0 1.736 1.736 0 003.47 0zm8 7a1.736 1.736 0 10-3.47 0 1.736 1.736 0 003.47 0zm9 2a1.736 1.736 0 10-3.47 0 1.736 1.736 0 003.47 0zm8 2a1.736 1.736 0 10-3.47 0 1.736 1.736 0 003.47 0zm9 3a1.736 1.736 0 10-3.47 0 1.736 1.736 0 003.47 0zm8 7a1.736 1.736 0 10-3.47 0 1.736 1.736 0 003.47 0zm9-1a1.736 1.736 0 10-3.47 0 1.736 1.736 0 003.47 0zm8 3a1.736 1.736 0 10-3.47 0 1.736 1.736 0 003.47 0zm9 9a1.736 1.736 0 10-3.47 0 1.736 1.736 0 003.47 0zm9 0a1.736 1.736 0 10-3.47 0 1.736 1.736 0 003.47 0zm8 5a1.736 1.736 0 10-3.47 0 1.736 1.736 0 003.47 0zm9 6a1.736 1.736 0 10-3.47 0 1.736 1.736 0 003.47 0zm8 5a1.736 1.736 0 10-3.47 0 1.736 1.736 0 003.47 0zm9 3a1.736 1.736 0 10-3.47 0 1.736 1.736 0 003.47 0zm8 22a1.736 1.736 0 10-3.47 0 1.736 1.736 0 003.47 0zm9 0a1.736 1.736 0 10-3.47 0 1.736 1.736 0 003.47 0zm9-11a1.736 1.736 0 10-3.47 0 1.736 1.736 0 003.47 0zm8-41a1.736 1.736 0 10-3.47 0 1.736 1.736 0 003.47 0zm9 41a1.736 1.736 0 10-3.47 0 1.736 1.736 0 003.47 0zm0 0" fill-rule="evenodd" fill="#769003"/><path d="M118.734 177a1.736 1.736 0 10-3.47 0 1.736 1.736 0 003.47 0zm9-33a1.736 1.736 0 10-3.47 0 1.736 1.736 0 003.47 0zm8-9a1.736 1.736 0 10-3.47 0 1.736 1.736 0 003.47 0zm9-4a1.736 1.736 0 10-3.47 0 1.736 1.736 0 003.47 0zm8-5a1.736 1.736 0 10-3.47 0 1.736 1.736 0 003.47 0zm9-3a1.736 1.736 0 10-3.47 0 1.736 1.736 0 003.47 0zm9-5a1.736 1.736 0 10-3.47 0 1.736 1.736 0 003.47 0zm8-9a1.736 1.736 0 10-3.47 0 1.736 1.736 0 003.47 0zm9 5a1.736 1.736 0 10-3.47 0 1.736 1.736 0 003.47 0zm8 0a1.736 1.736 0 10-3.47 0 1.736 1.736 0 003.47 0zm9 0a1.736 1.736 0 10-3.47 0 1.736 1.736 0 003.47 0zm8-5a1.736 1.736 0 10-3.47 0 1.736 1.736 0 003.47 0zm9 4a1.736 1.736 0 10-3.47 0 1.736 1.736 0 003.47 0zm9-3a1.736 1.736 0 10-3.47 0 1.736 1.736 0 003.47 0zm8 1a1.736 1.736 0 10-3.47 0 1.736 1.736 0 003.47 0zm9 5a1.736 1.736 0 10-3.47 0 1.736 1.736 0 003.47 0zm8-3a1.736 1.736 0 10-3.47 0 1.736 1.736 0 003.47 0zm9 10a1.736 1.736 0 10-3.47 0 1.736 1.736 0 003.47 0zm8-2a1.736 1.736 0 10-3.47 0 1.736 1.736 0 003.47 0zm9-2a1.736 1.736 0 10-3.47 0 1.736 1.736 0 003.47 0zm8 3a1.736 1.736 0 10-3.47 0 1.736 1.736 0 003.47 0zm9 0a1.736 1.736 0 10-3.47 0 1.736 1.736 0 003.47 0zm9 7a1.736 1.736 0 10-3.47 0 1.736 1.736 0 003.47 0zm8 1a1.736 1.736 0 10-3.47 0 1.736 1.736 0 003.47 0zm9 7a1.736 1.736 0 10-3.47 0 1.736 1.736 0 003.47 0zm8 23a1.736 1.736 0 10-3.47 0 1.736 1.736 0 003.47 0zm9 6a1.736 1.736 0 10-3.47 0 1.736 1.736 0 003.47 0zm8 11a1.736 1.736 0 10-3.47 0 1.736 1.736 0 003.47 0zm9 0a1.736 1.736 0 10-3.47 0 1.736 1.736 0 003.47 0zm9-11a1.736 1.736 0 10-3.47 0 1.736 1.736 0 003.47 0zm8 11a1.736 1.736 0 10-3.47 0 1.736 1.736 0 003.47 0zm9-11a1.736 1.736 0 10-3.47 0 1.736 1.736 0 003.47 0zm8-6a1.736 1.736 0 10-3.47 0 1.736 1.736 0 003.47 0zm35 17a1.736 1.736 0 10-3.47 0 1.736 1.736 0 003.47 0zm17 0a1.736 1.736 0 10-3.47 0 1.736 1.736 0 003.47 0zm0 0" fill-rule="evenodd" fill="#a8364d"/><path d="M127.734 177a1.736 1.736 0 10-3.47 0 1.736 1.736 0 003.47 0zm8-41a1.736 1.736 0 10-3.47 0 1.736 1.736 0 003.47 0zm9-9a1.736 1.736 0 10-3.47 0 1.736 1.736 0 003.47 0zm8 2a1.736 1.736 0 10-3.47 0 1.736 1.736 0 003.47 0zm9 12a1.736 1.736 0 10-3.47 0 1.736 1.736 0 003.47 0zm9-20a1.736 1.736 0 10-3.47 0 1.736 1.736 0 003.47 0zm8-4a1.736 1.736 0 10-3.47 0 1.736 1.736 0 003.47 0zm9-1a1.736 1.736 0 10-3.47 0 1.736 1.736 0 003.47 0zm8 4a1.736 1.736 0 10-3.47 0 1.736 1.736 0 003.47 0zm9-7a1.736 1.736 0 10-3.47 0 1.736 1.736 0 003.47 0zm8 5a1.736 1.736 0 10-3.47 0 1.736 1.736 0 003.47 0zm9-7a1.736 1.736 0 10-3.47 0 1.736 1.736 0 003.47 0zm9-1a1.736 1.736 0 10-3.47 0 1.736 1.736 0 003.47 0zm8 6a1.736 1.736 0 10-3.47 0 1.736 1.736 0 003.47 0zm9-3a1.736 1.736 0 10-3.47 0 1.736 1.736 0 003.47 0zm8-4a1.736 1.736 0 10-3.47 0 1.736 1.736 0 003.47 0zm9 2a1.736 1.736 0 10-3.47 0 1.736 1.736 0 003.47 0zm8 6a1.736 1.736 0 10-3.47 0 1.736 1.736 0 003.47 0zm9-2a1.736 1.736 0 10-3.47 0 1.736 1.736 0 003.47 0zm8 9a1.736 1.736 0 10-3.47 0 1.736 1.736 0 003.47 0zm9 0a1.736 1.736 0 10-3.47 0 1.736 1.736 0 003.47 0zm9 5a1.736 1.736 0 10-3.47 0 1.736 1.736 0 003.47 0zm8-2a1.736 1.736 0 10-3.47 0 1.736 1.736 0 003.47 0zm9 7a1.736 1.736 0 10-3.47 0 1.736 1.736 0 003.47 0zm8 4a1.736 1.736 0 10-3.47 0 1.736 1.736 0 003.47 0zm9 1a1.736 1.736 0 10-3.47 0 1.736 1.736 0 003.47 0zm8 4a1.736 1.736 0 10-3.47 0 1.736 1.736 0 003.47 0zm9 12a1.736 1.736 0 10-3.47 0 1.736 1.736 0 003.47 0zm9 22a1.736 1.736 0 10-3.47 0 1.736 1.736 0 003.47 0zm8 0a1.736 1.736 0 10-3.47 0 1.736 1.736 0 003.47 0zm9 0a1.736 1.736 0 10-3.47 0 1.736 1.736 0 003.47 0zm51 0a1.736 1.736 0 10-3.47 0 1.736 1.736 0 003.47 0zm0 0" fill-rule="evenodd" fill="#3664cc"/><path d="M118.734 166a1.736 1.736 0 10-3.47 0 1.736 1.736 0 003.47 0zm9 11a1.736 1.736 0 10-3.47 0 1.736 1.736 0 003.47 0zm8-22a1.736 1.736 0 10-3.47 0 1.736 1.736 0 003.47 0zm9-16a1.736 1.736 0 10-3.47 0 1.736 1.736 0 003.47 0zm8-7a1.736 1.736 0 10-3.47 0 1.736 1.736 0 003.47 0zm9 6a1.736 1.736 0 10-3.47 0 1.736 1.736 0 003.47 0zm9-11a1.736 1.736 0 10-3.47 0 1.736 1.736 0 003.47 0zm8-7a1.736 1.736 0 10-3.47 0 1.736 1.736 0 003.47 0zm9-5a1.736 1.736 0 10-3.47 0 1.736 1.736 0 003.47 0zm8-6a1.736 1.736 0 10-3.47 0 1.736 1.736 0 003.47 0zm9 8a1.736 1.736 0 10-3.47 0 1.736 1.736 0 003.47 0zm8 0a1.736 1.736 0 10-3.47 0 1.736 1.736 0 003.47 0zm9-4a1.736 1.736 0 10-3.47 0 1.736 1.736 0 003.47 0zm9-6a1.736 1.736 0 10-3.47 0 1.736 1.736 0 003.47 0zm8 3a1.736 1.736 0 10-3.47 0 1.736 1.736 0 003.47 0zm9 5a1.736 1.736 0 10-3.47 0 1.736 1.736 0 003.47 0zm8-2a1.736 1.736 0 10-3.47 0 1.736 1.736 0 003.47 0zm9 7a1.736 1.736 0 10-3.47 0 1.736 1.736 0 003.47 0zm8-2a1.736 1.736 0 10-3.47 0 1.736 1.736 0 003.47 0zm9 5a1.736 1.736 0 10-3.47 0 1.736 1.736 0 003.47 0zm8 0a1.736 1.736 0 10-3.47 0 1.736 1.736 0 003.47 0zm9-4a1.736 1.736 0 10-3.47 0 1.736 1.736 0 003.47 0zm9 6a1.736 1.736 0 10-3.47 0 1.736 1.736 0 003.47 0zm8 0a1.736 1.736 0 10-3.47 0 1.736 1.736 0 003.47 0zm9 12a1.736 1.736 0 10-3.47 0 1.736 1.736 0 003.47 0zm8 1a1.736 1.736 0 10-3.47 0 1.736 1.736 0 003.47 0zm9 14a1.736 1.736 0 10-3.47 0 1.736 1.736 0 003.47 0zm8 8a1.736 1.736 0 10-3.47 0 1.736 1.736 0 003.47 0zm9 17a1.736 1.736 0 10-3.47 0 1.736 1.736 0 003.47 0zm9 0a1.736 1.736 0 10-3.47 0 1.736 1.736 0 003.47 0zm68 0a1.736 1.736 0 10-3.47 0 1.736 1.736 0 003.47 0zm0 0" fill-rule="evenodd" fill="#c8860a"/><path d="M118.734 177a1.736 1.736 0 10-3.47 0 1.736 1.736 0 003.47 0zm9-25a1.736 1.736 0 10-3.47 0 1.736 1.736 0 003.47 0zm8 8a1.736 1.736 0 10-3.47 0 1.736 1.736 0 003.47 0zm9-22a1.736 1.736 0 10-3.47 0 1.736 1.736 0 003.47 0zm8-6a1.736 1.736 0 10-3.47 0 1.736 1.736 0 003.47 0zm9-5a1.736 1.736 0 10-3.47 0 1.736 1.736 0 003.47 0zm9 0a1.736 1.736 0 10-3.47 0 1.736 1.736 0 003.47 0zm8-5a1.736 1.736 0 10-3.47 0 1.736 1.736 0 003.47 0zm9 5a1.736 1.736 0 10-3.47 0 1.736 1.736 0 003.47 0zm8-5a1.736 1.736 0 10-3.47 0 1.736 1.736 0 003.47 0zm9 5a1.736 1.736 0 10-3.47 0 1.736 1.736 0 003.47 0zm8 1a1.736 1.736 0 10-3.47 0 1.736 1.736 0 003.47 0zm9 1a1.736 1.736 0 10-3.47 0 1.736 1.736 0 003.47 0zm9-2a1.736 1.736 0 10-3.47 0 1.736 1.736 0 003.47 0zm8-2a1.736 1.736 0 10-3.47 0 1.736 1.736 0 003.47 0zm9-8a1.736 1.736 0 10-3.47 0 1.736 1.736 0 003.47 0zm8 4a1.736 1.736 0 10-3.47 0 1.736 1.736 0 003.47 0zm9 4a1.736 1.736 0 10-3.47 0 1.736 1.736 0 003.47 0zm8 0a1.736 1.736 0 10-3.47 0 1.736 1.736 0 003.47 0zm9 2a1.736 1.736 0 10-3.47 0 1.736 1.736 0 003.47 0zm8-2a1.736 1.736 0 10-3.47 0 1.736 1.736 0 003.47 0zm9 14a1.736 1.736 0 10-3.47 0 1.736 1.736 0 003.47 0zm9 4a1.736 1.736 0 10-3.47 0 1.736 1.736 0 003.47 0zm8-6a1.736 1.736 0 10-3.47 0 1.736 1.736 0 003.47 0zm9 2a1.736 1.736 0 10-3.47 0 1.736 1.736 0 003.47 0zm8 8a1.736 1.736 0 10-3.47 0 1.736 1.736 0 003.47 0zm9 8a1.736 1.736 0 10-3.47 0 1.736 1.736 0 003.47 0zm8 11a1.736 1.736 0 10-3.47 0 1.736 1.736 0 003.47 0zm9 11a1.736 1.736 0 10-3.47 0 1.736 1.736 0 003.47 0zm9-11a1.736 1.736 0 10-3.47 0 1.736 1.736 0 003.47 0zm8-72a1.736 1.736 0 10-3.47 0 1.736 1.736 0 003.47 0zm9 72a1.736 1.736 0 10-3.47 0 1.736 1.736 0 003.47 0zm8-11a1.736 1.736 0 10-3.47 0 1.736 1.736 0 003.47 0zm9 22a1.736 1.736 0 10-3.47 0 1.736 1.736 0 003.47 0zm17 0a1.736 1.736 0 10-3.47 0 1.736 1.736 0 003.47 0zm0 0" fill-rule="evenodd" fill="#833987"/><path d="M127.734 177a1.736 1.736 0 10-3.47 0 1.736 1.736 0 003.47 0zm8-33a1.736 1.736 0 10-3.47 0 1.736 1.736 0 003.47 0zm9-1a1.736 1.736 0 10-3.47 0 1.736 1.736 0 003.47 0zm8-6a1.736 1.736 0 10-3.47 0 1.736 1.736 0 003.47 0zm9-3a1.736 1.736 0 10-3.47 0 1.736 1.736 0 003.47 0zm9-6a1.736 1.736 0 10-3.47 0 1.736 1.736 0 003.47 0zm8-4a1.736 1.736 0 10-3.47 0 1.736 1.736 0 003.47 0zm9 0a1.736 1.736 0 10-3.47 0 1.736 1.736 0 003.47 0zm8-4a1.736 1.736 0 10-3.47 0 1.736 1.736 0 003.47 0zm9 2a1.736 1.736 0 10-3.47 0 1.736 1.736 0 003.47 0zm8 0a1.736 1.736 0 10-3.47 0 1.736 1.736 0 003.47 0zm9-1a1.736 1.736 0 10-3.47 0 1.736 1.736 0 003.47 0zm9-1a1.736 1.736 0 10-3.47 0 1.736 1.736 0 003.47 0zm8 2a1.736 1.736 0 10-3.47 0 1.736 1.736 0 003.47 0zm9 1a1.736 1.736 0 10-3.47 0 1.736 1.736 0 003.47 0zm8-2a1.736 1.736 0 10-3.47 0 1.736 1.736 0 003.47 0zm9 2a1.736 1.736 0 10-3.47 0 1.736 1.736 0 003.47 0zm8 1a1.736 1.736 0 10-3.47 0 1.736 1.736 0 003.47 0zm9 3a1.736 1.736 0 10-3.47 0 1.736 1.736 0 003.47 0zm8 1a1.736 1.736 0 10-3.47 0 1.736 1.736 0 003.47 0zm9-3a1.736 1.736 0 10-3.47 0 1.736 1.736 0 003.47 0zm9 0a1.736 1.736 0 10-3.47 0 1.736 1.736 0 003.47 0zm8 3a1.736 1.736 0 10-3.47 0 1.736 1.736 0 003.47 0zm9 11a1.736 1.736 0 10-3.47 0 1.736 1.736 0 003.47 0zm8-2a1.736 1.736 0 10-3.47 0 1.736 1.736 0 003.47 0zm9 6a1.736 1.736 0 10-3.47 0 1.736 1.736 0 003.47 0zm8 17a1.736 1.736 0 10-3.47 0 1.736 1.736 0 003.47 0zm9 6a1.736 1.736 0 10-3.47 0 1.736 1.736 0 003.47 0zm0 0" fill-rule="evenodd" fill="#1c8f6b"/><path d="M118.734 152a1.736 1.736 0 10-3.47 0 1.736 1.736 0 003.47 0zm9 3a1.736 1.736 0 10-3.47 0 1.736 1.736 0 003.47 0zm8-23a1.736 1.736 0 10-3.47 0 1.736 1.736 0 003.47 0zm9-8a1.736 1.736 0 10-3.47 0 1.736 1.736 0 003.47 0zm8 8a1.736 1.736 0 10-3.47 0 1.736 1.736 0 003.47 0zm9-11a1.736 1.736 0 10-3.47 0 1.736 1.736 0 003.47 0zm9 8a1.736 1.736 0 10-3.47 0 1.736 1.736 0 003.47 0zm8 6a1.736 1.736 0 10-3.47 0 1.736 1.736 0 003.47 0zm9-3a1.736 1.736 0 10-3.47 0 1.736 1.736 0 003.47 0zm8-13a1.736 1.736 0 10-3.47 0 1.736 1.736 0 003.47 0zm9 4a1.736 1.736 0 10-3.47 0 1.736 1.736 0 003.47 0zm8 4a1.736 1.736 0 10-3.47 0 1.736 1.736 0 003.47 0zm9-7a1.736 1.736 0 10-3.47 0 1.736 1.736 0 003.47 0zm9 0a1.736 1.736 0 10-3.47 0 1.736 1.736 0 003.47 0zm8 4a1.736 1.736 0 10-3.47 0 1.736 1.736 0 003.47 0zm9 4a1.736 1.736 0 10-3.47 0 1.736 1.736 0 003.47 0zm8 1a1.736 1.736 0 10-3.47 0 1.736 1.736 0 003.47 0zm9 6a1.736 1.736 0 10-3.47 0 1.736 1.736 0 003.47 0zm8-5a1.736 1.736 0 10-3.47 0 1.736 1.736 0 003.47 0zm9-1a1.736 1.736 0 10-3.47 0 1.736 1.736 0 003.47 0zm8 3a1.736 1.736 0 10-3.47 0 1.736 1.736 0 003.47 0zm9-1a1.736 1.736 0 10-3.47 0 1.736 1.736 0 003.47 0zm9 6a1.736 1.736 0 10-3.47 0 1.736 1.736 0 003.47 0zm8 2a1.736 1.736 0 10-3.47 0 1.736 1.736 0 003.47 0zm9 5a1.736 1.736 0 10-3.47 0 1.736 1.736 0 003.47 0zm8 3a1.736 1.736 0 10-3.47 0 1.736 1.736 0 003.47 0zm9 0a1.736 1.736 0 10-3.47 0 1.736 1.736 0 003.47 0zm8 19a1.736 1.736 0 10-3.47 0 1.736 1.736 0 003.47 0zm9 0a1.736 1.736 0 10-3.47 0 1.736 1.736 0 003.47 0zm9-14a1.736 1.736 0 10-3.47 0 1.736 1.736 0 003.47 0zm8-5a1.736 1.736 0 10-3.47 0 1.736 1.736 0 003.47 0zm9 5a1.736 1.736 0 10-3.47 0 1.736 1.736 0 003.47 0zm8 25a1.736 1.736 0 10-3.47 0 1.736 1.736 0 003.47 0zm9-11a1.736 1.736 0 10-3.47 0 1.736 1.736 0 003.47 0zm8 11a1.736 1.736 0 10-3.47 0 1.736 1.736 0 003.47 0zm0 0" fill-rule="evenodd" fill="#a54f05"/><path d="M101.734 177a1.736 1.736 0 10-3.47 0 1.736 1.736 0 003.47 0zm9-47a1.736 1.736 0 10-3.47 0 1.736 1.736 0 003.47 0zm8-12a1.736 1.736 0 10-3.47 0 1.736 1.736 0 003.47 0zm9-8a1.736 1.736 0 10-3.47 0 1.736 1.736 0 003.47 0zm8-15a1.736 1.736 0 10-3.47 0 1.736 1.736 0 003.47 0zm9-6a1.736 1.736 0 10-3.47 0 1.736 1.736 0 003.47 0zm8-4a1.736 1.736 0 10-3.47 0 1.736 1.736 0 003.47 0zm9-3a1.736 1.736 0 10-3.47 0 1.736 1.736 0 003.47 0zm9-1a1.736 1.736 0 10-3.47 0 1.736 1.736 0 003.47 0zm8-4a1.736 1.736 0 10-3.47 0 1.736 1.736 0 003.47 0zm9-3a1.736 1.736 0 10-3.47 0 1.736 1.736 0 003.47 0zm8-1a1.736 1.736 0 10-3.47 0 1.736 1.736 0 003.47 0zm9 0a1.736 1.736 0 10-3.47 0 1.736 1.736 0 003.47 0zm8 2a1.736 1.736 0 10-3.47 0 1.736 1.736 0 003.47 0zm9-1a1.736 1.736 0 10-3.47 0 1.736 1.736 0 003.47 0zm9-3a1.736 1.736 0 10-3.47 0 1.736 1.736 0 003.47 0zm8 2a1.736 1.736 0 10-3.47 0 1.736 1.736 0 003.47 0zm9 1a1.736 1.736 0 10-3.47 0 1.736 1.736 0 003.47 0zm8 1a1.736 1.736 0 10-3.47 0 1.736 1.736 0 003.47 0zm9 2a1.736 1.736 0 10-3.47 0 1.736 1.736 0 003.47 0zm8 2a1.736 1.736 0 10-3.47 0 1.736 1.736 0 003.47 0zm9 2a1.736 1.736 0 10-3.47 0 1.736 1.736 0 003.47 0zm8 3a1.736 1.736 0 10-3.47 0 1.736 1.736 0 003.47 0zm9 0a1.736 1.736 0 10-3.47 0 1.736 1.736 0 003.47 0zm9 3a1.736 1.736 0 10-3.47 0 1.736 1.736 0 003.47 0zm8 2a1.736 1.736 0 10-3.47 0 1.736 1.736 0 003.47 0zm9 3a1.736 1.736 0 10-3.47 0 1.736 1.736 0 003.47 0zm8 5a1.736 1.736 0 10-3.47 0 1.736 1.736 0 003.47 0zm9 5a1.736 1.736 0 10-3.47 0 1.736 1.736 0 003.47 0zm8 6a1.736 1.736 0 10-3.47 0 1.736 1.736 0 003.47 0zm9 6a1.736 1.736 0 10-3.47 0 1.736 1.736 0 003.47 0zm9 3a1.736 1.736 0 10-3.47 0 1.736 1.736 0 003.47 0zm8-27a1.736 1.736 0 10-3.47 0 1.736 1.736 0 003.47 0zm9 33a1.736 1.736 0 10-3.47 0 1.736 1.736 0 003.47 0zm8 7a1.736 1.736 0 10-3.47 0 1.736 1.736 0 003.47 0zm9 8a1.736 1.736 0 10-3.47 0 1.736 1.736 0 003.47 0zm8 5a1.736 1.736 0 10-3.47 0 1.736 1.736 0 003.47 0zm9 9a1.736 1.736 0 10-3.47 0 1.736 1.736 0 003.47 0zm9-25a1.736 1.736 0 10-3.47 0 1.736 1.736 0 003.47 0zm8 16a1.736 1.736 0 10-3.47 0 1.736 1.736 0 003.47 0zm9 12a1.736 1.736 0 10-3.47 0 1.736 1.736 0 003.47 0zm0 0" fill-rule="evenodd" fill="#6846c7"/><path d="M495 287.8H22m0 0V4m0 0h473m0 0v283.8" fill="none" stroke-width=".5" stroke-linecap="square" stroke="#666" stroke-miterlimit="3.25"/><path d="M48.594 287.8v-6.57" fill="none" stroke-width=".5" stroke="#666" stroke-miterlimit="3.25"/><g fill="#666"><use xlink:href="#ah" x="34.095" y="299.8"/><use xlink:href="#ai" x="39.613" y="299.8"/><use xlink:href="#aj" x="45.052" y="299.8"/></g><g fill="#666"><use xlink:href="#ak" x="52.095" y="299.8"/><use xlink:href="#al" x="57.71" y="299.8"/></g><path d="M168.54 287.8v-6.57" fill="none" stroke-width=".5" stroke="#666" stroke-miterlimit="3.25"/><g fill="#666"><use xlink:href="#ah" x="154.041" y="299.8"/><use xlink:href="#ai" x="159.558" y="299.8"/><use xlink:href="#aj" x="164.998" y="299.8"/></g><g fill="#666"><use xlink:href="#am" x="172.041" y="299.8"/><use xlink:href="#an" x="177.656" y="299.8"/></g><path d="M288.488 287.8v-6.57" fill="none" stroke-width=".5" stroke="#666" stroke-miterlimit="3.25"/><g fill="#666"><use xlink:href="#ao" x="273.986" y="299.8"/><use xlink:href="#ap" x="279.514" y="299.8"/><use xlink:href="#aq" x="284.812" y="299.8"/></g><g fill="#666"><use xlink:href="#ak" x="291.986" y="299.8"/><use xlink:href="#ar" x="297.602" y="299.8"/></g><path d="M408.434 287.8v-6.57" fill="none" stroke-width=".5" stroke="#666" stroke-miterlimit="3.25"/><g fill="#666"><use xlink:href="#ao" x="393.932" y="299.8"/><use xlink:href="#ap" x="399.459" y="299.8"/><use xlink:href="#aq" x="404.757" y="299.8"/></g><g fill="#666"><use xlink:href="#am" x="411.932" y="299.8"/><use xlink:href="#as" x="417.547" y="299.8"/></g><path d="M22 249.535h4.73" fill="none" stroke-width=".1" stroke="#666" stroke-miterlimit="3.25"/><g fill="#666"><use xlink:href="#ar" y="252.036"/><use xlink:href="#at" x="5.615" y="252.036"/><use xlink:href="#ar" x="8.247" y="252.036"/><use xlink:href="#ak" x="13.862" y="252.036"/></g><path d="M22 177.148h4.73" fill="none" stroke-width=".1" stroke="#666" stroke-miterlimit="3.25"/><use xlink:href="#ak" x="13" y="179.647" fill="#666"/><path d="M22 104.758h4.73" fill="none" stroke-width=".1" stroke="#666" stroke-miterlimit="3.25"/><g fill="#666"><use xlink:href="#ak" x="2" y="107.259"/><use xlink:href="#ar" x="7.615" y="107.259"/><use xlink:href="#ar" x="13.23" y="107.259"/></g><path d="M22 32.371h4.73" fill="none" stroke-width=".1" stroke="#666" stroke-miterlimit="3.25"/><g fill="#666"><use xlink:href="#ak" x="2" y="36.371"/><use xlink:href="#ar" x="7.615" y="36.371"/></g><use xlink:href="#au" x="13" y="32.371" fill="#666"/><path d="M22 285.73h2.398M22 213.34h2.398M22 140.953h2.398M22 68.566h2.398" fill="none" stroke-width=".1" stroke="#666" stroke-miterlimit="3.25"/><path d="M48.594 4v6.57M168.54 4v6.57M288.488 4v6.57M408.434 4v6.57" fill="none" stroke-width=".5" stroke="#666" stroke-miterlimit="3.25"/><path d="M495 249.535h-4.73m4.73-72.387h-4.73m4.73-72.39h-4.73M495 32.371h-4.73M495 285.73h-2.398M495 213.34h-2.398M495 140.953h-2.398M495 68.566h-2.398" fill="none" stroke-width=".1" stroke="#666" stroke-miterlimit="3.25"/></svg>