<svg xmlns="http://www.w3.org/2000/svg" width="284.272" height="97.777" viewBox="0 -73.333 213.204 73.333"><path d="M7.332-57.555H5.569l-.967 6.863h.937l.348-2.52h.887c2.192 0 2.949-1.255 2.949-2.53 0-1.236-.897-1.813-2.391-1.813zm-.538 3.596h-.797l.399-2.86h.866c.897 0 1.465.27 1.465 1.077 0 .886-.379 1.783-1.933 1.783zm6.693-.1h3.746v-.757h-3.746v.757zm0 1.913h3.746v-.757h-3.746v.757zm7.679 8.426c.608.38 1.135.569 1.813.569 1.793 0 2.71-1.335 3.307-6.107l1.046-8.297c.578-4.572 1.384-5.31 2.36-5.31.459 0 .877.13 1.326.389l.468-.767c-.608-.379-1.136-.568-1.813-.568-1.793 0-2.71 1.335-3.307 6.107l-1.046 8.297c-.578 4.572-1.385 5.31-2.361 5.31-.458 0-.877-.13-1.325-.389l-.468.767zm15.831-20c-.646 0-1.076.358-1.4.91-.315-.552-.824-.91-1.398-.91-.961 0-1.42.688-1.42 1.484 0 .79.452 1.492 1.413 1.492.66 0 1.09-.373 1.399-.91.315.545.825.91 1.399.91.96 0 1.42-.688 1.42-1.485 0-.789-.452-1.491-1.413-1.491zm-2.798 2.431c-.445 0-.753-.344-.753-.947 0-.61.315-.947.753-.947.61 0 .947.574 1.119.912-.272.552-.574.982-1.119.982zm2.79.008c-.617 0-.954-.582-1.126-.919.294-.56.588-.975 1.127-.975.444 0 .753.344.753.946 0 .61-.316.948-.753.948zm-8.375 15.592c-1.076 0-1.607.883-1.607 2.554 0 1.672.53 2.56 1.607 2.56 1.076 0 1.607-.888 1.607-2.56 0-1.664-.531-2.554-1.607-2.554zm0 .524c.595 0 .918.545.918 2.03 0 1.492-.323 2.037-.918 2.037-.603 0-.919-.545-.919-2.037 0-1.485.316-2.03.919-2.03zm18.012-12.998v2.75c-.349-.37-.797-.648-1.414-.648-1.285 0-2.063 1.165-2.063 2.769 0 1.634.708 2.72 1.983 2.72.647 0 1.175-.32 1.514-.847l.09.727h.807v-7.361l-.917-.11zm-1.295 6.864c-.757 0-1.195-.628-1.195-2.013 0-1.364.488-2.022 1.275-2.022.518 0 .886.269 1.215.687v2.57c-.349.488-.707.778-1.295.778zm4.324-4.732l-.877.289c.578.767.817 2.35 1.116 5.05h1.116l2.49-5.17-.886-.189-2.042 4.572c-.17-2.52-.489-3.905-.917-4.552zm6.274 12.311c.608.38 1.135.569 1.813.569 1.793 0 2.71-1.335 3.307-6.107l1.046-8.297c.578-4.572 1.384-5.31 2.36-5.31.459 0 .877.13 1.326.389l.468-.767c-.608-.379-1.136-.568-1.813-.568-1.793 0-2.71 1.335-3.307 6.107l-1.046 8.297c-.578 4.572-1.385 5.31-2.361 5.31-.458 0-.877-.13-1.325-.389l-.468.767zm8.172-.807c-.524 0-.932.323-1.248.797l.33-2.296-.66.072-.746 5.294h.653l.308-2.267c.302-.538.725-1.047 1.227-1.047.272 0 .452.143.38.674l-.373 2.64h.653l.38-2.676c.1-.732-.244-1.19-.904-1.19zm9.259-13.636v2.75c-.35-.37-.798-.648-1.415-.648-1.285 0-2.062 1.165-2.062 2.769 0 1.634.707 2.72 1.982 2.72.648 0 1.175-.32 1.514-.847l.09.727h.807v-7.361l-.917-.11zm-1.296 6.864c-.757 0-1.195-.628-1.195-2.013 0-1.364.488-2.022 1.275-2.022.518 0 .886.269 1.215.687v2.57c-.349.488-.707.778-1.295.778zm7.153-6.376c-2.51 0-3.387 2.55-3.387 4.274 0 .956.27 1.524.927 1.912H75.72l-.11.797h2.122l.09-.787c-.648-.249-1.007-.727-1.007-1.763 0-1.534.519-3.656 2.371-3.656.957 0 1.524.548 1.524 1.803 0 1.275-.328 3.118-1.813 3.596l-.1.807h2.123l.11-.797h-1.027c1.425-.707 1.683-2.261 1.683-3.466 0-1.724-.936-2.72-2.47-2.72zm8.585 3.357c.817-.17 1.534-.737 1.534-1.703 0-1.056-.907-1.534-2.152-1.534h-1.892l-.967 6.863h1.893c2.251 0 2.969-.986 2.969-2.192 0-.966-.678-1.304-1.385-1.434zm-.588-2.49c.618 0 1.166.15 1.166.817 0 .946-.727 1.344-1.554 1.344H85.82l.299-2.161h1.095zm-.956 5.359h-.887l.349-2.47h1.136c.747 0 1.354.229 1.354 1.016 0 .826-.408 1.454-1.952 1.454zm4.296.398l-.63.208c.415.552.587 1.693.803 3.637h.803l1.793-3.723-.638-.136-1.47 3.292c-.123-1.815-.352-2.812-.66-3.278zm7.503-5.01c-1.425 0-2.291 1.116-2.291 2.789 0 1.693.876 2.7 2.29 2.7.609 0 1.136-.2 1.605-.578l-.419-.598c-.398.26-.707.399-1.145.399-.827 0-1.345-.568-1.345-1.943 0-1.365.518-2.012 1.345-2.012.438 0 .767.13 1.125.389l.439-.578c-.489-.409-.986-.568-1.604-.568zm4.822 0c-1.494 0-2.351 1.126-2.351 2.75 0 1.663.847 2.739 2.34 2.739 1.485 0 2.342-1.126 2.342-2.75 0-1.663-.837-2.739-2.331-2.739zm0 .737c.866 0 1.345.638 1.345 2.002 0 1.375-.479 2.013-1.355 2.013-.877 0-1.355-.638-1.355-2.003 0-1.374.488-2.012 1.365-2.012zm5.27-.737c-1.086 0-1.893.607-1.893 1.444 0 .738.448 1.226 1.584 1.524 1.016.27 1.275.469 1.275.987 0 .497-.438.797-1.125.797a2.38 2.38 0 01-1.475-.509l-.488.558c.458.399 1.096.688 1.983.688 1.065 0 2.071-.498 2.071-1.594 0-.917-.637-1.355-1.743-1.634-.846-.22-1.125-.418-1.125-.847 0-.418.368-.687.966-.687.488 0 .896.15 1.365.448l.388-.578a2.788 2.788 0 00-1.783-.597zm7.43-2.102c-1.963 0-2.85 2.49-2.85 4.921 0 1.673.628 2.67 1.854 2.67 1.952 0 2.858-2.41 2.858-4.951 0-1.674-.617-2.64-1.862-2.64zm-.06.737c.687 0 1.026.468 1.026 1.783 0 .31-.02.578-.05.897h-2.73c.32-1.893.907-2.68 1.754-2.68zm.886 3.377c-.269 1.873-.886 2.73-1.763 2.73-.667 0-1.016-.429-1.016-1.784 0-.328.02-.607.05-.946h2.73zm4.971-.01h3.745v-.757h-3.745v.757zm0 1.913h3.745v-.757h-3.745v.757zm9.662 1.574c2.042 0 2.69-2.003 2.69-3.168 0-.697-.25-1.235-.578-1.544l1.156.08.07-.738c-.678-.03-1.604-.06-2.401-.06-2.341 0-2.949 1.943-2.949 3.258 0 1.285.708 2.172 2.012 2.172zm.03-.737c-.697 0-1.075-.469-1.075-1.325 0-1.186.328-2.68 1.982-2.68h.299c.298.259.508.717.508 1.395 0 .966-.35 2.61-1.714 2.61zm9.222-6.246h-4.86l-.12.806h1.932l-.847 6.057h.937l.847-6.057h1.892l.22-.806zm4.064 1.171h-.624v-1.378h-.574l-.058 1.378h-1.363l1.299-3.092-.553-.23-1.441 3.372v.473h2.051v1.184h.639v-1.184h.624v-.523zm1.946 4.427a.682.682 0 00-.688.687c0 .24.11.449.279.578l-.399 1.653h.658l.667-1.524c.13-.288.18-.488.18-.707 0-.378-.3-.687-.698-.687zm15.351 1.385c2.042 0 2.69-2.003 2.69-3.168 0-.697-.25-1.235-.578-1.544l1.156.08.07-.738c-.678-.03-1.605-.06-2.401-.06-2.341 0-2.949 1.943-2.949 3.258 0 1.285.707 2.172 2.012 2.172zm.03-.737c-.697 0-1.076-.469-1.076-1.325 0-1.186.329-2.68 1.983-2.68h.298c.3.259.508.717.508 1.395 0 .966-.348 2.61-1.713 2.61zm7.011-2.75h3.745v-.757h-3.745v.757zm0 1.913h3.745v-.757h-3.745v.757zm19.184-11.696v-.747h-4.413c-.488 0-.707.02-1.066.15l.16.717c.328-.09.458-.11.886-.11v4.493h.917v-4.493l1.813-.01v3.218c0 .837.269 1.205 1.086 1.405l.288-.688c-.328-.15-.458-.309-.458-.827v-3.108h.787zm2.151-4.51c-.682 0-1.14.244-1.528.725l.444.344c.309-.366.575-.523 1.048-.523.538 0 .86.33.86.867 0 .782-.415 1.328-2.252 3.092v.524h2.977l.08-.553h-2.303c1.614-1.47 2.187-2.195 2.187-3.091 0-.782-.559-1.385-1.513-1.385zm5.094 1.542l-.916.11-1.036 7.361h.906l.439-3.148c.448-1.026 1.145-1.494 1.703-1.494.358 0 .568.2.568.568 0 .727-.508 1.165-1.743 1.514l1.255 2.56h1.016l-1.186-2.321c1.096-.349 1.624-1.026 1.624-1.853 0-.697-.528-1.195-1.275-1.195-.657 0-1.295.329-1.793 1.036l.438-3.138zm6.725 1.78h-.624v-1.378h-.574l-.058 1.378h-1.363l1.299-3.092-.553-.23-1.441 3.372v.473h2.051v1.184h.639v-1.184h.624v-.523zm-.916 6.567c.48-.1.924-.474.924-1.083 0-.861-.717-1.249-1.936-1.249h-1.17v4.943h1.363c1.148 0 1.959-.359 1.959-1.406 0-.84-.567-1.105-1.14-1.205zm-.94-1.794c.731 0 1.169.15 1.169.76 0 .524-.43.797-.983.797h-.746v-1.557h.56zm.121 3.86h-.681v-1.78h.81c.596 0 1.113.223 1.113.92 0 .716-.524.86-1.242.86z"/><path d="M177.027-53.48h30.996" stroke="#000" fill="none" stroke-width=".757" stroke-miterlimit="10"/><path d="M180.184-47.876c-.628 0-1.166.27-1.604.887.04-1.624.638-2.66 1.634-2.66.368 0 .717.1 1.026.29l.358-.608a2.408 2.408 0 00-1.374-.409c-1.604 0-2.57 1.475-2.57 3.755 0 2.013.627 3.348 2.28 3.348 1.196 0 2.162-.927 2.162-2.431 0-1.464-.886-2.172-1.912-2.172zm-.25 3.875c-.916 0-1.314-.697-1.344-2.221.339-.558.837-.926 1.434-.926.668 0 1.136.368 1.136 1.474 0 1.026-.418 1.673-1.225 1.673zm5.46-6.375c-1.494 0-2.231 1.225-2.231 3.546 0 2.321.737 3.557 2.231 3.557 1.495 0 2.231-1.236 2.231-3.557 0-2.31-.736-3.546-2.23-3.546zm0 .727c.827 0 1.275.758 1.275 2.82 0 2.071-.448 2.828-1.275 2.828-.836 0-1.275-.757-1.275-2.829 0-2.061.439-2.819 1.275-2.819zm6.585.887c-.727 0-1.294.448-1.733 1.106l.18-1.226 1.753-1.006-.3-.598-1.334.768.16-1.126-.917.1-.22 1.583-.955.548.298.598.538-.309-.697 4.931h.906l.429-3.148c.418-.747 1.006-1.454 1.703-1.454.379 0 .628.2.528.936l-.518 3.666h.907l.528-3.716c.139-1.016-.34-1.653-1.256-1.653zm3.993-2.348c-.524 0-1.012.179-1.435.58l.359.395c.323-.301.617-.452 1.04-.452.51 0 .91.287.91.81 0 .574-.444.84-.917.84h-.295l-.079.51h.417c.58 0 1.004.229 1.004.917 0 .603-.402.976-1.07.976-.4 0-.802-.158-1.104-.48l-.416.351c.38.46.969.667 1.543.667 1.04 0 1.735-.653 1.735-1.506 0-.754-.552-1.184-1.14-1.22.552-.122.983-.53.983-1.148 0-.674-.588-1.24-1.535-1.24zm5.803 2.348c-1.943 0-2.66 1.972-2.66 3.347 0 1.344.717 2.142 1.962 2.142.578 0 1.126-.18 1.644-.548l-.369-.638c-.418.26-.757.408-1.215.408-.667 0-1.066-.378-1.066-1.295 0-1.085.389-2.66 1.714-2.66.408 0 .707.11 1.026.39l.488-.568c-.429-.409-.937-.578-1.524-.578zm3.674-2.348c-.682 0-1.14.243-1.528.724l.444.344c.309-.366.575-.523 1.048-.523.538 0 .86.33.86.867 0 .782-.415 1.328-2.252 3.092v.524h2.977l.08-.553h-2.303c1.614-1.47 2.187-2.195 2.187-3.091 0-.782-.559-1.385-1.513-1.385zM8.906-20.967H7.143l-.967 6.863h.937l.348-2.52h.887c2.192 0 2.949-1.255 2.949-2.53 0-1.236-.897-1.813-2.391-1.813zm-.538 3.596h-.797l.399-2.86h.866c.897 0 1.465.27 1.465 1.077 0 .886-.379 1.783-1.933 1.783zm6.693-.099h3.746v-.758H15.06v.757zm0 1.912h3.746v-.757H15.06v.757zM26.924-9.7v-14.185c0-1.982.767-2.44 1.713-2.44.458 0 .877.179 1.325.438l.468-.767c-.608-.379-1.135-.568-1.813-.568-1.245 0-2.63.688-2.63 3.138v14.185c0 1.982-.767 2.44-1.713 2.44-.458 0-.877-.179-1.325-.438l-.468.767c.608.379 1.135.568 1.813.568 1.245 0 2.63-.687 2.63-3.138zm8.678-17.431c-.646 0-1.076.358-1.4.91-.315-.552-.824-.91-1.398-.91-.961 0-1.42.688-1.42 1.484 0 .79.452 1.492 1.413 1.492.66 0 1.09-.373 1.399-.91.315.545.825.91 1.399.91.96 0 1.42-.688 1.42-1.485 0-.789-.452-1.491-1.413-1.491zM32.804-24.7c-.445 0-.753-.344-.753-.947 0-.61.315-.947.753-.947.61 0 .947.574 1.12.912-.273.552-.575.982-1.12.982zm2.79.008c-.617 0-.954-.582-1.126-.919.294-.56.588-.975 1.127-.975.444 0 .753.344.753.946 0 .61-.316.948-.753.948zM30.208-9.1c-1.076 0-1.607.883-1.607 2.554 0 1.672.53 2.561 1.607 2.561 1.076 0 1.607-.89 1.607-2.561 0-1.664-.531-2.554-1.607-2.554zm0 .524c.595 0 .918.545.918 2.03 0 1.492-.323 2.038-.918 2.038-.603 0-.919-.546-.919-2.038 0-1.485.316-2.03.919-2.03zm15.024-12.999v2.75c-.349-.37-.797-.648-1.414-.648-1.285 0-2.063 1.165-2.063 2.769 0 1.634.708 2.72 1.983 2.72.647 0 1.175-.32 1.514-.847l.09.727h.807v-7.361l-.917-.11zm-1.295 6.863c-.757 0-1.195-.627-1.195-2.012 0-1.364.488-2.022 1.275-2.022.518 0 .886.269 1.215.687v2.57c-.349.488-.707.777-1.295.777zm4.324-4.731l-.877.289c.578.767.817 2.35 1.116 5.05h1.116l2.49-5.17-.886-.19-2.042 4.573c-.17-2.52-.489-3.905-.917-4.552zM58.718-9.7v-14.185c0-1.982.767-2.44 1.713-2.44.458 0 .877.179 1.325.438l.468-.767c-.608-.379-1.135-.568-1.813-.568-1.245 0-2.63.688-2.63 3.138v14.185c0 1.982-.767 2.44-1.713 2.44-.458 0-.877-.179-1.325-.438l-.468.767c.608.379 1.135.568 1.813.568 1.245 0 2.63-.687 2.63-3.138zm4.008 1.762c-.524 0-.932.323-1.248.797l.33-2.296-.66.072-.746 5.294h.653l.308-2.267c.302-.538.725-1.047 1.227-1.047.272 0 .452.143.38.674l-.373 2.64h.653l.38-2.676c.1-.731-.244-1.19-.904-1.19zm9.258-13.637v2.75c-.349-.37-.797-.648-1.414-.648-1.285 0-2.062 1.165-2.062 2.769 0 1.634.707 2.72 1.982 2.72.648 0 1.175-.32 1.514-.847l.09.727h.807v-7.361l-.917-.11zm-1.295 6.863c-.757 0-1.195-.627-1.195-2.012 0-1.364.488-2.022 1.275-2.022.518 0 .886.269 1.215.687v2.57c-.349.488-.707.777-1.295.777zm7.153-6.375c-2.51 0-3.387 2.55-3.387 4.274 0 .956.27 1.524.927 1.912h-1.036l-.11.797h2.122l.09-.787c-.648-.249-1.007-.727-1.007-1.763 0-1.534.519-3.656 2.371-3.656.957 0 1.524.548 1.524 1.803 0 1.275-.328 3.118-1.813 3.596l-.1.807h2.123l.11-.797h-1.027c1.425-.707 1.683-2.261 1.683-3.466 0-1.724-.936-2.72-2.47-2.72zm8.585 3.357c.817-.17 1.534-.737 1.534-1.703 0-1.056-.907-1.534-2.152-1.534h-1.892l-.967 6.863h1.893c2.251 0 2.969-.986 2.969-2.192 0-.966-.678-1.304-1.385-1.434zm-.588-2.49c.618 0 1.166.15 1.166.817 0 .946-.727 1.344-1.554 1.344h-1.006l.299-2.161h1.095zm-.956 5.359h-.887l.349-2.47h1.136c.747 0 1.354.229 1.354 1.016 0 .826-.408 1.454-1.952 1.454zm4.297.399l-.632.208c.416.552.588 1.693.804 3.637h.803l1.793-3.723-.638-.136-1.47 3.292c-.123-1.815-.352-2.812-.66-3.278zm7.502-5.011c-1.425 0-2.291 1.116-2.291 2.789 0 1.693.876 2.7 2.29 2.7.609 0 1.136-.2 1.605-.578l-.419-.598c-.398.26-.707.398-1.145.398-.827 0-1.345-.567-1.345-1.942 0-1.365.518-2.012 1.345-2.012.438 0 .767.13 1.125.389l.439-.578c-.489-.409-.986-.568-1.604-.568zm4.822 0c-1.494 0-2.351 1.126-2.351 2.75 0 1.663.847 2.739 2.34 2.739 1.485 0 2.342-1.126 2.342-2.75 0-1.663-.837-2.74-2.331-2.74zm0 .737c.866 0 1.345.638 1.345 2.002 0 1.375-.479 2.012-1.355 2.012-.877 0-1.355-.637-1.355-2.002 0-1.374.488-2.012 1.365-2.012zm5.27-.737c-1.086 0-1.893.607-1.893 1.444 0 .737.448 1.226 1.584 1.524 1.016.27 1.275.468 1.275.987 0 .497-.438.796-1.125.796a2.38 2.38 0 01-1.475-.508l-.488.558c.458.399 1.096.688 1.983.688 1.065 0 2.071-.498 2.071-1.594 0-.917-.637-1.355-1.743-1.634-.846-.22-1.125-.418-1.125-.847 0-.418.368-.687.966-.687.488 0 .896.15 1.365.448l.388-.578a2.788 2.788 0 00-1.783-.597zm7.43-2.102c-1.963 0-2.85 2.49-2.85 4.921 0 1.673.628 2.67 1.854 2.67 1.952 0 2.858-2.411 2.858-4.951 0-1.674-.617-2.64-1.862-2.64zm-.06.737c.687 0 1.026.468 1.026 1.783 0 .31-.02.578-.05.897h-2.73c.32-1.893.907-2.68 1.754-2.68zm.886 3.377c-.269 1.873-.886 2.73-1.763 2.73-.667 0-1.016-.429-1.016-1.784 0-.328.02-.607.05-.946h2.73zm4.97-.009h3.746v-.758h-3.745v.757zm0 1.912h3.746v-.757h-3.745v.757zm9.663 1.574c2.042 0 2.69-2.003 2.69-3.168 0-.697-.25-1.235-.578-1.544l1.156.08.07-.738c-.678-.03-1.604-.06-2.401-.06-2.341 0-2.949 1.943-2.949 3.258 0 1.285.708 2.172 2.012 2.172zm.03-.738c-.697 0-1.075-.468-1.075-1.325 0-1.185.328-2.679 1.982-2.679h.299c.298.259.508.717.508 1.394 0 .967-.35 2.61-1.714 2.61zm9.222-6.245h-4.86l-.12.806h1.932l-.847 6.057h.937l.847-6.057h1.892l.22-.806zm4.065 1.172h-.624v-1.378h-.574l-.058 1.378h-1.363l1.299-3.092-.553-.23-1.441 3.372v.473h2.051v1.184h.639v-1.184h.624v-.523zm1.944 4.426a.682.682 0 00-.687.687c0 .24.11.449.279.578l-.399 1.653h.658l.667-1.524c.13-.288.18-.488.18-.707 0-.378-.3-.687-.698-.687zm15.352 1.385c2.042 0 2.69-2.003 2.69-3.168 0-.697-.25-1.235-.578-1.544l1.156.08.07-.738c-.678-.03-1.605-.06-2.401-.06-2.341 0-2.949 1.943-2.949 3.258 0 1.285.707 2.172 2.012 2.172zm.03-.738c-.697 0-1.076-.468-1.076-1.325 0-1.185.329-2.679 1.983-2.679h.298c.3.259.508.717.508 1.394 0 .967-.348 2.61-1.713 2.61zm7.011-2.748h3.745v-.758h-3.745v.757zm0 1.912h3.745v-.757h-3.745v.757zm19.085-11.695V-28h-4.413c-.488 0-.707.02-1.066.15l.16.717c.328-.09.458-.11.886-.11v4.493h.917v-4.492l1.813-.01v3.217c0 .837.269 1.205 1.086 1.405l.288-.688c-.328-.15-.458-.309-.458-.827v-3.108h.787zm2.151-4.511c-.682 0-1.14.244-1.528.725l.445.344c.308-.366.574-.523 1.047-.523.538 0 .86.33.86.867 0 .782-.415 1.328-2.252 3.092v.524h2.977l.08-.552h-2.303c1.614-1.471 2.187-2.195 2.187-3.092 0-.782-.559-1.385-1.513-1.385zm5.094 1.544l-.916.109-1.036 7.361h.906l.439-3.148c.448-1.026 1.145-1.494 1.703-1.494.358 0 .568.2.568.568 0 .727-.508 1.165-1.743 1.514l1.255 2.56h1.016l-1.186-2.32c1.096-.35 1.624-1.027 1.624-1.854 0-.697-.528-1.195-1.275-1.195-.657 0-1.295.329-1.793 1.036l.438-3.138zm6.725 1.778h-.624v-1.378h-.574l-.058 1.378h-1.362l1.298-3.092-.553-.23-1.441 3.372v.473h2.051v1.184h.639v-1.184h.624v-.523zm-.917 6.567c.48-.1.925-.474.925-1.083 0-.861-.717-1.249-1.936-1.249h-1.17v4.943h1.363c1.148 0 1.959-.359 1.959-1.406 0-.84-.567-1.105-1.14-1.205zm-.94-1.794c.732 0 1.17.15 1.17.76 0 .524-.43.797-.983.797h-.746v-1.557h.56zm.122 3.86h-.681v-1.78h.81c.596 0 1.113.223 1.113.919 0 .717-.524.86-1.242.86z"/><path d="M175.652-16.895h30.797" stroke="#000" fill="none" stroke-width=".757" stroke-miterlimit="10"/><path d="M178.809-11.287c-.628 0-1.166.27-1.604.887.04-1.624.638-2.66 1.634-2.66.368 0 .717.1 1.026.29l.358-.608a2.408 2.408 0 00-1.374-.409c-1.604 0-2.57 1.475-2.57 3.755 0 2.013.627 3.348 2.28 3.348 1.196 0 2.162-.927 2.162-2.431 0-1.464-.886-2.172-1.912-2.172zm-.25 3.875c-.916 0-1.314-.697-1.344-2.221.339-.558.837-.926 1.434-.926.668 0 1.136.368 1.136 1.474 0 1.026-.418 1.673-1.225 1.673zm5.46-6.375c-1.494 0-2.231 1.225-2.231 3.546 0 2.321.737 3.557 2.231 3.557 1.495 0 2.231-1.236 2.231-3.557 0-2.31-.736-3.546-2.23-3.546zm0 .727c.827 0 1.275.758 1.275 2.82 0 2.071-.448 2.828-1.275 2.828-.836 0-1.275-.757-1.275-2.829 0-2.061.439-2.819 1.275-2.819zm6.635.887c-.727 0-1.295.448-1.733 1.106l.259-1.774h1.454l.19-.697h-1.544l.1-.717-.917.1-.09.617h-.747l-.1.697h.748l-.847 6.037h.906l.429-3.148c.418-.747 1.006-1.454 1.703-1.454.379 0 .628.2.528.936l-.518 3.666h.906l.528-3.716c.14-1.016-.338-1.653-1.255-1.653zm3.744-2.35c-.524 0-1.012.18-1.435.581l.359.395c.323-.301.617-.452 1.04-.452.51 0 .91.287.91.81 0 .574-.444.84-.917.84h-.295l-.079.51h.417c.58 0 1.004.229 1.004.918 0 .602-.402.975-1.069.975-.402 0-.803-.158-1.105-.48l-.416.351c.38.46.969.667 1.543.667 1.04 0 1.735-.653 1.735-1.506 0-.754-.552-1.184-1.14-1.22.552-.122.983-.53.983-1.148 0-.674-.588-1.24-1.535-1.24zm5.802 2.35c-1.942 0-2.659 1.972-2.659 3.347 0 1.344.717 2.142 1.962 2.142.578 0 1.126-.18 1.644-.548l-.369-.638c-.418.26-.757.408-1.215.408-.667 0-1.066-.378-1.066-1.295 0-1.085.389-2.66 1.714-2.66.408 0 .707.11 1.026.39l.488-.568c-.429-.409-.937-.578-1.524-.578zm3.675-2.35c-.682 0-1.14.244-1.528.725l.444.344c.309-.366.575-.523 1.048-.523.538 0 .86.33.86.867 0 .782-.415 1.328-2.252 3.092v.524h2.977l.08-.552H203.2c1.614-1.471 2.187-2.195 2.187-3.092 0-.782-.559-1.385-1.513-1.385z"/></svg>