<svg xmlns="http://www.w3.org/2000/svg" width="230.527" height="119.02" viewBox="0 -89.265 172.895 89.265"><path d="M24.678-77.3h-.587v6.166h.587v-2.789h5.18v-.587h-5.18v-2.79zm14.872-.976h-1.116l-1.076 2.949h-1.913l-1.076-2.95h-.458l2.67 7.093h.18l2.788-7.092zm-2.352 3.367l-.797 2.132-.797-2.132h1.594zm4.095 3.566c.15.08.309.12.428.12.329 0 .717-.29 1.026-.757l.757-1.166.11.687c.13.847.358 1.236.717 1.236.219 0 .538-.17.856-.459l.489-.438-.09-.19c-.358.3-.608.45-.767.45-.15 0-.279-.1-.378-.3-.09-.189-.2-.558-.25-.846l-.179-1.007.349-.488c.468-.647.737-.876 1.046-.876.16 0 .279.08.329.229l.139-.04.15-.847a.584.584 0 00-.3-.1c-.398 0-.796.36-1.414 1.276l-.368.548-.06-.479c-.12-.986-.389-1.344-.977-1.344-.258 0-.478.08-.567.209l-.578.827.17.1c.298-.34.497-.479.687-.479.328 0 .548.409.717 1.385l.11.617-.4.618c-.428.667-.766.986-1.045.986-.15 0-.26-.04-.279-.09l-.11-.279-.199.03c0 .35-.08.608-.12.867zM47.05-69.5l.936-.01.996.01.06-.06v-.259l-.04-.05h-.378c-.269 0-.488-.06-.608-.159-.09-.09-.12-.229-.12-.558v-6.883c0-.329.03-.478.12-.568.12-.1.339-.16.608-.16h.379l.04-.05v-.258l-.06-.06-.937.03-.996-.03c-.04.09-.05.2-.05.349 0 .259.04.627.04 1.126v6.195c0 .678-.02.957-.08 1.265l.09.13zm3.885-4.483c0-2.59.967-3.646 1.544-4.323l-.189-.259c-.568.508-2.211 1.833-2.211 4.582 0 1.066.249 2.072.727 2.969.348.667.667 1.056 1.484 1.823l.19-.21c-.459-.567-1.545-1.783-1.545-4.582zm4.703-3.785l1.055-.04c.618 0 1.017.09 1.026.24l.08.886h.24c.029-.628.099-1.136.208-1.514a8.36 8.36 0 00-.667-.03l-.409.01-1.643.02h-.29c-.248 0-.646-.01-1.025-.02l-.488-.01-.03.279.558.02c.239.01.348.1.348.269 0 .14-.04.458-.089.757l-.747 4.323c-.17.916-.17.926-.578.966l-.358.03-.04.279.338-.01c.399-.01.718-.02.927-.02.179 0 .468.01.856.02l.518.01.03-.279-.637-.03c-.27-.01-.359-.09-.359-.289 0-.06.01-.17.02-.209l.359-2.221h1.165c.27 0 .578.01 1.056.03l.26.01.188-.449-.04-.07c-.806.04-1.404.06-2.181.06h-.369l.459-2.7c.03-.159.04-.208.09-.318h.169zm2.86 6.425c.15.08.309.12.428.12.329 0 .718-.29 1.026-.757l.757-1.166.11.687c.13.847.359 1.236.717 1.236.22 0 .538-.17.857-.459l.488-.438-.09-.19c-.358.3-.607.45-.767.45-.15 0-.279-.1-.378-.3-.09-.189-.2-.558-.25-.846l-.179-1.007.349-.488c.468-.647.737-.876 1.046-.876.16 0 .279.08.329.229l.14-.04.148-.847a.583.583 0 00-.298-.1c-.399 0-.797.36-1.415 1.276l-.368.548-.06-.479c-.12-.986-.389-1.344-.976-1.344-.26 0-.479.08-.568.209l-.578.827.17.1c.298-.34.497-.479.687-.479.328 0 .548.409.717 1.385l.11.617-.399.618c-.428.667-.767.986-1.046.986-.15 0-.259-.04-.279-.09l-.11-.279-.199.03c0 .35-.08.608-.12.867zm13.307-5.817h-.598l-2.172 4.781-2.191-4.781h-.598l2.7 5.827h.179l2.68-5.827zm7.172-.678c.767 0 1.305.14 1.863.498v.837h.269c.05-.568.13-.996.269-1.454-.827-.3-1.395-.408-2.082-.408-.916 0-1.644.229-2.36.736-1.166.837-1.784 2.073-1.784 3.567 0 1.862 1.086 2.908 3.038 2.908.568.03 2.032-.239 2.52-.547.2-1.554.24-1.784.25-1.814.02-.09.139-.189.268-.209l.32-.06.02-.278c-.39.04-.738.05-1.246.05s-.867-.01-1.285-.05l-.05.279.339.02c.747.04.837.08.837.318 0 .15-.2 1.275-.25 1.514-.448.24-.836.329-1.374.329-1.654 0-2.51-.926-2.51-2.69 0-1.454.588-3.546 2.948-3.546zm2.95 6.495c.15.08.308.12.428.12.329 0 .717-.29 1.026-.757l.757-1.166.11.687c.13.847.358 1.236.717 1.236.219 0 .538-.17.856-.459l.489-.438-.09-.19c-.358.3-.608.45-.767.45-.15 0-.279-.1-.378-.3-.09-.189-.2-.558-.25-.846l-.179-1.007.349-.488c.468-.647.737-.876 1.046-.876.16 0 .279.08.329.229l.139-.04.15-.847a.583.583 0 00-.3-.1c-.398 0-.796.36-1.414 1.276l-.368.548-.06-.479c-.12-.986-.389-1.344-.977-1.344-.259 0-.478.08-.567.209l-.578.827.17.1c.298-.34.497-.479.686-.479.33 0 .549.409.718 1.385l.11.617-.4.618c-.428.667-.766.986-1.045.986-.15 0-.26-.04-.279-.09l-.11-.279-.199.03c0 .35-.08.608-.12.867zm5.39-7.222l-.19.26c.548.637 1.544 1.732 1.544 4.322 0 2.75-1.036 3.955-1.544 4.583l.19.209c.527-.498 2.21-1.913 2.21-4.782 0-2.759-1.643-4.084-2.21-4.592zm15.003 4.523l-2.052-2.132-.319.339 1.245 1.514h-7.68v.587h7.68L99.95-72.22l.32.34 2.051-2.162zm9.483-.718l-.2-.1c-.179.608-.498 1.136-1.195 1.136-.817 0-1.514-1.145-2.45-1.145-.917 0-1.415.548-1.654 1.384l.22.09c.238-.538.617-.926 1.234-.926.817 0 1.415 1.135 2.43 1.135 1.017 0 1.475-.647 1.615-1.574zm2.78-.408l.418-2.271c.07-.389.14-.448.508-.478l.419-.03.03-.28h-.24l-.896.03c-.16 0-.339 0-.767-.01l-.638-.02-.03.28.469.02c.239.01.348.09.348.269 0 .14-.04.448-.09.757l-.736 4.323c-.17.916-.18.926-.578.966l-.409.03-.04.279.419-.01c.478-.01.707-.02.896-.02l.967.03h.259l.03-.279-.489-.03c-.269-.02-.358-.09-.358-.299 0-.09.01-.16.04-.348l.418-2.46.608-.01c.617-.01 1.036-.02 1.225-.02.19 0 .597.01 1.225.02l.608.01-.399 2.141c-.09.488-.16.767-.209.827-.04.08-.15.12-.368.139l-.499.03-.04.279.558-.01c.439-.01.737-.02.847-.02.16 0 .468.01.897.02l.418.01.03-.279-.578-.03c-.259-.01-.358-.09-.358-.299 0-.09.01-.18.04-.348l.916-5.18c.07-.389.13-.438.508-.478l.358-.03.03-.28h-.159l-.907.03c-.149 0-.358 0-.796-.01l-.628-.02-.03.28.478.02c.24.01.349.09.349.269 0 .14-.04.458-.09.757l-.298 1.733h-3.686zm6.082 3.825c.15.08.309.12.428.12.329 0 .718-.29 1.026-.757l.757-1.166.11.687c.13.847.359 1.236.717 1.236.219 0 .538-.17.857-.459l.488-.438-.09-.19c-.358.3-.607.45-.767.45-.149 0-.279-.1-.378-.3a3.84 3.84 0 01-.249-.846l-.18-1.007.349-.488c.468-.647.737-.876 1.046-.876.159 0 .279.08.329.229l.139-.04.149-.847a.581.581 0 00-.298-.1c-.399 0-.797.36-1.415 1.276l-.368.548-.06-.479c-.12-.986-.389-1.344-.976-1.344-.26 0-.478.08-.568.209l-.578.827.17.1c.298-.34.498-.479.687-.479.328 0 .548.409.717 1.385l.11.617-.399.618c-.428.667-.767.986-1.046.986-.15 0-.259-.04-.279-.09l-.11-.279-.199.03c0 .35-.08.608-.12.867zm7.322 1.843l.09-.13c-.06-.308-.08-.587-.08-1.265v-6.195c0-.499.04-.867.04-1.126 0-.15-.01-.26-.05-.349h-1.932l-.06.06v.259l.04.05h.378c.269 0 .488.06.608.16.09.089.119.238.119.567v6.883c0 .329-.029.468-.119.558-.12.1-.339.16-.608.16h-.378l-.04.05v.258l.06.06h1.932zM27.477-57.734v-.588H24.48v-1.534h2.998v-.587H24.48v-1.335h-.588v5.389h.588v-1.345h2.998zm9.463.468v-2.709h-5.41v.608h4.841v2.101h.568zm6.375.877v-6.943h-5.13v.389h3.626c.269 0 .468.159.468.418v2.311h-3.307v.388h3.307v2.52c0 .37-.15.529-.339.529h-3.864v.388h5.24zm1.273 1.793c-.01.07-.01.13-.01.18 0 .428.368.776.816.776 1.056 0 2.152-1.235 2.74-3.078l1.404-4.383-.11-.09c-.288.11-.517.17-.736.19l-.35 1.315c-.118.468-.467 1.195-.796 1.683-.349.508-.837.946-1.056.946-.12 0-.209-.229-.199-.478l.16-2.062c.02-.308.04-.687.04-.966 0-.448-.07-.627-.24-.627-.13 0-.269.07-.747.398l-.817.558.11.18.498-.3c.05-.03.16-.12.249-.12.14 0 .219.19.219.519 0 .01 0 .07-.01.15l-.17 2.42-.01.398c0 .419.18.708.429.708.369 0 1.205-.847 1.953-1.973l-.489 1.704c-.508 1.763-1.006 2.49-1.703 2.49a.608.608 0 01-.618-.618c0-.05.01-.13.02-.219l-.1-.04-.477.34zm11.137-8.736h-1.116l-1.076 2.949h-1.912l-1.076-2.95h-.458l2.67 7.093h.179l2.789-7.092zm-2.351 3.367l-.797 2.132-.797-2.132h1.594zm4.092 3.566c.15.08.309.12.428.12.329 0 .718-.29 1.026-.758l.757-1.165.11.687c.13.847.359 1.236.717 1.236.22 0 .538-.17.857-.459l.488-.438-.09-.19c-.358.3-.607.45-.767.45-.15 0-.279-.1-.378-.3-.09-.189-.2-.558-.25-.846l-.179-1.007.35-.488c.467-.647.736-.876 1.045-.876.16 0 .279.08.329.229l.14-.04.149-.847a.584.584 0 00-.3-.1c-.398 0-.796.36-1.414 1.276l-.368.548-.06-.479c-.12-.986-.389-1.344-.976-1.344-.26 0-.478.08-.568.209l-.578.827.17.1c.298-.34.498-.479.687-.479.328 0 .548.409.717 1.385l.11.617-.399.618c-.428.667-.767.986-1.046.986-.15 0-.259-.04-.279-.09l-.11-.279-.199.03c0 .35-.08.608-.119.867zm5.758 1.843l.936-.01.997.01.06-.06v-.259l-.04-.05h-.38c-.268 0-.487-.06-.607-.159-.09-.09-.119-.23-.119-.558v-6.883c0-.329.03-.478.12-.568.12-.1.338-.16.607-.16h.379l.04-.05v-.258l-.06-.06-.937.03-.996-.03c-.04.09-.05.2-.05.349 0 .259.04.627.04 1.125v6.196c0 .678-.02.957-.08 1.265l.09.13zm2.52-1.843c.15.08.31.12.43.12.328 0 .716-.29 1.025-.758l.757-1.165.11.687c.13.847.359 1.236.717 1.236.22 0 .538-.17.857-.459l.488-.438-.09-.19c-.358.3-.608.45-.767.45-.15 0-.279-.1-.378-.3a3.89 3.89 0 01-.25-.846l-.179-1.007.349-.488c.468-.647.737-.876 1.046-.876.16 0 .279.08.329.229l.14-.04.148-.847a.584.584 0 00-.298-.1c-.399 0-.797.36-1.415 1.276l-.368.548-.06-.479c-.12-.986-.389-1.344-.976-1.344-.26 0-.478.08-.568.209l-.578.827.17.1c.298-.34.498-.479.687-.479.328 0 .548.409.717 1.385l.11.617-.399.618c-.428.667-.767.986-1.046.986-.15 0-.259-.04-.279-.09l-.11-.279-.199.03c0 .35-.08.608-.12.867zm12.714-.07v-.528h-1.992c-.936 0-1.863-.777-1.992-1.823h3.815v-.527h-3.815c.12-.997.946-1.823 1.992-1.823h1.992v-.528h-1.942c-1.465 0-2.58 1.215-2.58 2.61 0 1.394 1.115 2.62 2.58 2.62h1.942zm3.236 1.873c-.01.07-.01.13-.01.18 0 .428.368.776.816.776 1.056 0 2.152-1.235 2.74-3.078l1.404-4.383-.11-.09a2.77 2.77 0 01-.736.19l-.35 1.315c-.119.468-.467 1.195-.796 1.683-.349.508-.837.946-1.056.946-.12 0-.21-.229-.2-.478l.16-2.062c.02-.308.04-.687.04-.966 0-.448-.07-.627-.24-.627-.128 0-.268.07-.746.398l-.817.558.11.18.498-.3c.05-.03.16-.12.249-.12.14 0 .219.19.219.519 0 .01 0 .07-.01.15l-.17 2.42-.01.398c0 .419.18.708.429.708.369 0 1.205-.847 1.952-1.973l-.488 1.704c-.508 1.763-1.006 2.49-1.703 2.49a.608.608 0 01-.618-.618c0-.05.01-.13.02-.219l-.1-.04-.478.34zm17.261-4.502l-2.052-2.132-.319.348 1.235 1.505h-6.534l1.245-1.515-.32-.338-2.061 2.161 2.062 2.132.319-.339-1.245-1.514h6.534l-1.235 1.524.319.33 2.052-2.162zm3.485 2.699c.15.08.31.12.43.12.328 0 .716-.29 1.025-.758l.757-1.165.11.687c.129.847.358 1.236.717 1.236.219 0 .538-.17.856-.459l.489-.438-.09-.19c-.359.3-.608.45-.767.45-.15 0-.28-.1-.379-.3a3.901 3.901 0 01-.249-.846l-.179-1.007.349-.488c.468-.647.737-.876 1.046-.876.16 0 .278.08.328.229l.14-.04.15-.847a.583.583 0 00-.3-.1c-.398 0-.796.36-1.414 1.276l-.369.548-.06-.479c-.119-.986-.388-1.344-.976-1.344-.259 0-.478.08-.567.209l-.578.827.17.1c.298-.34.497-.479.686-.479.33 0 .549.409.718 1.385l.11.617-.4.618c-.428.667-.766.986-1.045.986-.15 0-.26-.04-.279-.09l-.11-.279-.199.03c0 .35-.08.608-.12.867zm12.72-.07v-.528h-1.992c-.15 0-.32-.02-.479-.06l.708-1.763h1.593v-.527h-1.384l.717-1.823h.837v-.528h-.628l.468-1.146h-.567l-.469 1.146h-.747c-1.464 0-2.58 1.215-2.58 2.61 0 .976.538 1.872 1.375 2.31l-.578 1.455h.568l.498-1.255c.219.07.458.11.717.11h1.943zm-1.405-4.701l-.717 1.823h-1.863c.12-.997.947-1.823 1.993-1.823h.587zm-.926 2.35l-.618 1.554a2.158 2.158 0 01-1.036-1.554h1.654zm5.725 2.421c.15.08.309.12.429.12.328 0 .717-.29 1.025-.758l.757-1.165.11.687c.13.847.359 1.236.717 1.236.22 0 .538-.17.857-.459l.488-.438-.09-.19c-.358.3-.607.45-.767.45-.149 0-.279-.1-.378-.3-.09-.189-.2-.558-.25-.846l-.178-1.007.348-.488c.468-.647.737-.876 1.046-.876.16 0 .279.08.329.229l.14-.04.149-.847a.585.585 0 00-.3-.1c-.398 0-.796.36-1.414 1.276l-.368.548-.06-.479c-.12-.986-.389-1.344-.976-1.344-.26 0-.478.08-.568.209l-.578.827.17.1c.298-.34.498-.479.687-.479.329 0 .548.409.717 1.385l.11.617-.399.618c-.428.667-.767.986-1.046.986-.15 0-.259-.04-.278-.09l-.11-.279-.2.03c0 .35-.08.608-.119.867zm7.322 1.843l.09-.13c-.06-.308-.08-.587-.08-1.265v-6.196c0-.498.04-.866.04-1.125 0-.15-.01-.26-.05-.349h-1.932l-.06.06v.259l.04.05h.378c.269 0 .488.06.608.16.09.089.12.238.12.567v6.883c0 .329-.03.468-.12.558-.12.1-.339.16-.608.16h-.378l-.04.049v.26l.06.059h1.932zm-97.353 9.644l-1.534 1.534v-1.534h1.534zM26.99-42.67l.14-.13 2.859.01v-.588l-2.282-.01 1.515-1.524h.767v-.587l-.19.01 1.176-1.176v-.677L29.121-45.5H26.99v-1.335h-.587v4.044l-1.126 1.146v.697l1.136-1.146-.01.648h.587v-1.225zm3.982 1.215c.15.08.309.12.429.12.328 0 .717-.29 1.026-.758l.757-1.165.11.687c.129.847.358 1.236.716 1.236.22 0 .538-.17.857-.459l.488-.438-.09-.19c-.358.3-.607.45-.767.45-.149 0-.279-.1-.378-.3-.09-.189-.2-.558-.249-.846l-.18-1.007.35-.488c.468-.647.736-.876 1.045-.876.16 0 .28.08.33.229l.138-.04.15-.847a.584.584 0 00-.299-.1c-.398 0-.797.36-1.415 1.276l-.368.548-.06-.479c-.12-.986-.389-1.344-.976-1.344-.26 0-.478.08-.568.209l-.578.827.17.1c.299-.34.498-.479.687-.479.329 0 .548.409.717 1.385l.11.617-.399.618c-.428.667-.767.986-1.046.986-.149 0-.259-.04-.278-.09l-.11-.279-.2.03c0 .35-.08.608-.119.867zm13.307.01v-3.238a2.77 2.77 0 00-2.77-2.769c-1.484 0-2.789 1.206-2.789 2.77v3.237h.538v-3.277c0-1.256 1.036-2.192 2.241-2.192 1.276 0 2.242 1.076 2.242 2.192v3.277h.538zm4.304-2.65c0-2.59.966-3.646 1.544-4.323l-.19-.259c-.567.508-2.21 1.833-2.21 4.582 0 1.066.248 2.072.726 2.969.349.667.668 1.056 1.484 1.823l.19-.21c-.459-.567-1.544-1.783-1.544-4.582zm1.783 4.443c-.01.07-.01.13-.01.18 0 .428.369.776.817.776 1.056 0 2.152-1.235 2.74-3.078l1.404-4.383-.11-.09c-.288.11-.518.17-.737.19l-.348 1.315c-.12.468-.468 1.195-.797 1.683-.349.508-.837.946-1.056.946-.12 0-.21-.229-.2-.478l.16-2.062c.02-.308.04-.687.04-.966 0-.448-.07-.627-.24-.627-.129 0-.268.07-.746.398l-.817.558.11.18.498-.3c.05-.03.159-.12.249-.12.139 0 .219.19.219.519 0 .01 0 .07-.01.15l-.17 2.42-.01.398c0 .419.18.708.429.708.368 0 1.205-.847 1.952-1.973l-.488 1.704c-.508 1.763-1.006 2.49-1.703 2.49a.608.608 0 01-.618-.618c0-.05.01-.13.02-.219l-.1-.04-.478.34zm13.454-4.562v-3.238h-.539v3.278c0 1.115-.966 2.191-2.24 2.191-1.206 0-2.242-.936-2.242-2.191v-3.278h-.538v3.238c0 1.564 1.305 2.769 2.79 2.769a2.77 2.77 0 002.768-2.77zm6.056 2.879c.12 0 .21-.02.499-.1.109-.618.189-.956.298-1.424h-.219l-.219.597c-.06.18-.18.25-.388.25-.12 0-.28-.02-.489-.07l-.179-.04c-.328-.07-.667-.12-.856-.12-.32 0-.588.06-.947.21l3.377-3.806.06-.319-.09-.09-.229.23c-.1.1-.199.14-.338.14-.34 0-.857-.08-1.335-.21l-.18-.05c-.279-.07-.478-.11-.617-.11-.17 0-.369.03-.608.1l-.319 1.215h.21l.298-.577c.17-.04.26-.05.389-.05.408 0 .727.15 1.255.15.359 0 .598-.06.926-.23l-3.516 3.985.09.269c.288-.23.558-.32.906-.32.628 0 1.534.37 2.221.37zm1.715-7.342l-.19.26c.548.637 1.544 1.732 1.544 4.322 0 2.75-1.036 3.955-1.544 4.582l.19.21c.527-.498 2.21-1.913 2.21-4.782 0-2.76-1.643-4.084-2.21-4.592zM83.17-42.79v-.588h-2.7l.608-1.534h2.092v-.587h-1.853l.747-1.883h-.567l-.748 1.893h-2.948v.587h2.71l-.608 1.534H77.8v.588h1.863l-.747 1.883h.567l.738-1.893h2.948zm4.86-1.305c0-2.59.966-3.646 1.544-4.323l-.19-.259c-.567.508-2.21 1.833-2.21 4.582 0 1.066.248 2.072.726 2.969.349.667.668 1.056 1.484 1.823l.19-.21c-.459-.567-1.544-1.783-1.544-4.582zm1.943 2.64c.15.08.308.12.428.12.329 0 .717-.29 1.026-.758l.757-1.165.11.687c.129.847.358 1.236.717 1.236.219 0 .538-.17.856-.459l.489-.438-.09-.19c-.359.3-.608.45-.767.45-.15 0-.28-.1-.378-.3-.09-.189-.2-.558-.25-.846l-.179-1.007.349-.488c.468-.647.737-.876 1.046-.876.16 0 .278.08.328.229l.14-.04.15-.847a.584.584 0 00-.3-.1c-.398 0-.796.36-1.414 1.276l-.369.548-.06-.479c-.119-.986-.388-1.344-.975-1.344-.26 0-.479.08-.568.209l-.578.827.17.1c.298-.34.497-.479.686-.479.33 0 .549.409.718 1.385l.11.617-.4.618c-.428.667-.766.986-1.045.986-.15 0-.26-.04-.279-.09l-.11-.279-.199.03c0 .35-.08.608-.12.867zm13.293.01v-3.238a2.77 2.77 0 00-2.769-2.769c-1.484 0-2.789 1.206-2.789 2.77v3.237h.538v-3.277c0-1.256 1.036-2.192 2.241-2.192 1.275 0 2.241 1.076 2.241 2.192v3.277h.538zm2.78 1.793c-.01.07-.01.13-.01.18 0 .428.369.776.817.776 1.056 0 2.152-1.235 2.74-3.078l1.404-4.383-.11-.09c-.288.11-.517.17-.737.19l-.348 1.315c-.12.468-.468 1.195-.797 1.683-.349.508-.837.946-1.056.946-.12 0-.21-.229-.2-.478l.16-2.062c.02-.308.04-.687.04-.966 0-.448-.07-.627-.24-.627-.129 0-.268.07-.746.398l-.817.558.11.18.498-.3c.05-.03.159-.12.249-.12.139 0 .219.19.219.519 0 .01 0 .07-.01.15l-.17 2.42-.01.398c0 .419.18.708.429.708.368 0 1.205-.847 1.952-1.973l-.488 1.704c-.508 1.763-1.006 2.49-1.703 2.49a.608.608 0 01-.618-.618c0-.05.01-.13.02-.219l-.1-.04-.478.34zm5.55-9.025l-.19.26c.548.637 1.544 1.732 1.544 4.322 0 2.75-1.036 3.955-1.544 4.582l.19.21c.527-.498 2.21-1.913 2.21-4.782 0-2.76-1.643-4.084-2.21-4.592zm11.211 4.463v-3.238h-.538v3.278c0 1.115-.966 2.191-2.241 2.191-1.206 0-2.242-.936-2.242-2.191v-3.278h-.537v3.238c0 1.564 1.305 2.769 2.789 2.769a2.77 2.77 0 002.77-2.77zm4.304.119c0-2.59.966-3.646 1.544-4.323l-.189-.259c-.568.508-2.212 1.833-2.212 4.582 0 1.066.249 2.072.727 2.969.349.667.668 1.056 1.485 1.823l.189-.21c-.458-.567-1.544-1.783-1.544-4.582zm1.943 2.64c.149.08.309.12.428.12.329 0 .718-.29 1.026-.758l.757-1.165.11.687c.129.847.359 1.236.717 1.236.219 0 .538-.17.857-.459l.488-.438-.09-.19c-.358.3-.607.45-.767.45-.149 0-.279-.1-.378-.3a3.84 3.84 0 01-.249-.846l-.18-1.007.349-.488c.468-.647.737-.876 1.046-.876.159 0 .279.08.329.229l.139-.04.149-.847a.581.581 0 00-.298-.1c-.399 0-.797.36-1.415 1.276l-.368.548-.06-.479c-.12-.986-.389-1.344-.976-1.344-.259 0-.478.08-.568.209l-.578.827.169.1c.299-.34.499-.479.688-.479.328 0 .548.409.717 1.385l.109.617-.398.618c-.428.667-.767.986-1.046.986-.149 0-.259-.04-.279-.09l-.109-.279-.2.03c0 .35-.079.608-.119.867zm13.304.01v-3.238a2.77 2.77 0 00-2.77-2.769c-1.484 0-2.789 1.206-2.789 2.77v3.237h.538v-3.277c0-1.256 1.036-2.192 2.241-2.192 1.275 0 2.242 1.076 2.242 2.192v3.277h.538zm6.057.11c.119 0 .209-.02.498-.1.109-.618.189-.956.299-1.424h-.219l-.22.597c-.06.18-.179.25-.388.25-.12 0-.279-.02-.488-.07l-.179-.04c-.329-.07-.668-.12-.857-.12-.319 0-.588.06-.947.21l3.377-3.806.06-.319-.09-.09-.229.23a.435.435 0 01-.338.14c-.339 0-.857-.08-1.335-.21l-.18-.05c-.278-.07-.478-.11-.617-.11-.169 0-.369.03-.608.1l-.318 1.215h.209l.298-.577c.17-.04.26-.05.389-.05.408 0 .727.15 1.255.15.359 0 .598-.06.926-.23l-3.516 3.985.09.269c.289-.23.558-.32.906-.32.628 0 1.535.37 2.222.37zm1.714-7.342l-.19.26c.548.637 1.545 1.732 1.545 4.322 0 2.75-1.036 3.955-1.545 4.582l.19.21c.528-.498 2.211-1.913 2.211-4.782 0-2.76-1.643-4.084-2.211-4.592zM24.678-32.468h-.587v6.166h.587v-2.789h5.18v-.587h-5.18v-2.79zm11.584-1.265l-.21.03-.209-.03s0 .02-.547.02c-.32 0-.638-.01-.967-.02l-.09.13c.09.338.09 1.245.09 1.843v5.12c0 .597 0 1.504-.09 1.842l.09.13c.33-.01.648-.02.967-.02.328 0 .528 0 .547.02l.21-.01.209.01s0-.02.548-.02c.328 0 .647.01.966.02l.06-.06v-.259l-.04-.05h-.378c-.38 0-.678-.11-.698-.348a17.93 17.93 0 01-.04-1.255v-5.12c0-.35.01-.887.04-1.256.02-.239.319-.348.698-.348h.378l.04-.05v-.26l-.06-.059c-.319.01-.638.02-.966.02-.329 0-.528 0-.548-.02zm-.419 7.093c0 .488 0 1.175-.05 1.603-.328-.02-.567-.13-.587-.348a17.93 17.93 0 01-.04-1.255v-5.12c0-.35.01-.887.04-1.256.02-.219.26-.328.588-.348.05.428.05 1.116.05 1.604v5.12zm6.416.298c.459 0 1.126-.697 1.444-.996v-.13h-.129c-.19.18-.428.42-.697.42-.449 0-.379-1.286-.379-1.605.498-.617.956-1.265 1.335-1.962-.07-.15-.14-.309-.22-.458h-.109c-.139.677-.687 1.434-1.045 2.012.02-.787.249-2.142-.877-2.152-1.674 0-3.038 2.291-3.068 3.786-.01.597.19 1.085.866 1.085.917 0 1.853-.796 2.451-1.464 0 .349-.09 1.454.428 1.464zm-1.155-4.512c.866 0 .737 2.122.727 2.72-.428.507-1.235 1.354-1.943 1.354-.528 0-.637-.418-.627-.867.01-.866.757-3.207 1.843-3.207zm5.53-2.879l-.21.05-.21-.05s0 .02-.547.02c-.329 0-.648-.01-.966-.02l-.06.06v.259l.04.05h.378c.379 0 .678.11.698.348.03.37.04.907.04 1.256v5.12c0 .348-.01.886-.04 1.255-.02.239-.32.348-.698.348h-.378l-.04.05v.26l.06.059c.318-.01.637-.02.966-.02.329 0 .528 0 .548.02l.209-.01.21.01s0-.02.547-.02c.319 0 .637.01.966.02l.09-.13c-.09-.338-.09-1.245-.09-1.842v-5.12c0-.598 0-1.505.09-1.843l-.09-.13c-.329.01-.647.02-.966.02-.329 0-.528 0-.548-.02zm.676 7.093c0 .348-.01.886-.04 1.255-.02.219-.259.328-.587.348-.05-.428-.05-1.115-.05-1.603v-5.12c0-.488 0-1.176.05-1.604.328.02.568.13.588.348.03.37.04.907.04 1.256v5.12zm10.484-3.318v-.587h-5.37v.587h5.37zm0 2.122v-.587h-5.37v.587h5.37zm9.79-4.244c0-.756-1.225-.856-1.225-1.683-.299.26-.468.439-.468.857s.418.598.418.837c0 .259-.787 1.275-1.056 1.275-.448 0-1.504-1.096-1.783-1.335-.318-.289-.906-.757-.906-1.225 0-.17 0-.339.07-.498l-.13-.08c-.388.418-.837.916-.837 1.524 0 .737.757 1.255 1.246 1.703-.678.429-1.315 1.345-1.315 2.162 0 .578.527.976.527 1.464 0 .329-.368.429-.607.548l.02.06c.309.02.617.03.926.03.598 0 .797-.269.797-.847 0-.866-.887-1.115-.887-2.241 0-.389.39-.867.738-1.016l2.191 1.862c.468.399 1.315 1.176 1.315 1.833 0 .11-.09.339-.15.429l.11.05c.468-.528.757-1.007.757-1.734 0-1.424-1.663-1.833-1.663-2.43 0-.21.757-1.196.966-1.196.249 0 .418.2.568.37.2-.2.378-.43.378-.718zm2.238 2.661c-1.128 0-1.702.894-1.702 2.654 0 .85.152 1.585.407 1.942.255.356.662.56 1.113.56 1.098 0 1.65-.946 1.65-2.807 0-1.593-.473-2.349-1.468-2.349zm-.131.312c.705 0 .988.655.988 2.4 0 1.549-.276 2.13-.945 2.13-.705 0-1.003-.675-1.003-2.45 0-1.534.269-2.08.96-2.08zm14.476-.103l-2.052-2.132-.318.339 1.245 1.514h-7.68v.587h7.68l-1.245 1.514.318.34 2.052-2.162zm7.381 2.868c.458 0 1.126-.697 1.444-.996v-.13h-.13c-.188.18-.428.42-.696.42-.449 0-.38-1.286-.38-1.605a13.11 13.11 0 001.336-1.962c-.07-.15-.14-.309-.22-.458h-.109c-.14.677-.687 1.434-1.046 2.012.02-.787.25-2.142-.876-2.152-1.674 0-3.038 2.291-3.069 3.786-.01.597.19 1.085.867 1.085.917 0 1.853-.796 2.45-1.464 0 .349-.089 1.454.429 1.464zm-1.156-4.512c.867 0 .738 2.122.728 2.72-.429.507-1.236 1.354-1.943 1.354-.528 0-.637-.418-.627-.867.01-.866.757-3.207 1.843-3.207zm11.872 3.736v-.588h-2.999l.488-1.196h2.51v-.587h-2.28l.278-.728c.15.06.29.08.429.08 1.006 0 1.424-.657 1.574-1.574l-.21-.1c-.169.598-.458 1.136-1.155 1.136a.988.988 0 01-.408-.1l.667-1.663h-.568l-.558 1.395c-.448-.31-.936-.777-1.524-.777-.906 0-1.384.557-1.613 1.384l.209.09c.229-.538.588-.927 1.205-.927.528 0 1.066.568 1.484.827l-.378.957h-2.52v.587h2.29l-.487 1.196h-1.803v.588h1.573l-.458 1.165h.568l.458-1.165h3.228zm9.551-2.64c0-.757-.478-1.763-1.345-1.763-1.145 0-2.64 2.31-3.167 3.247-.2-.299-.359-.608-.359-.986 0-.787.658-1.345 1.385-1.445l-.02-.17c-1.076.16-2.052.798-2.052 1.983 0 .518.239 1.136.568 1.524-.3.469-.578 1.196-.578 1.744 0 .557.289 1.145.926 1.145.707 0 1.136-.518 1.136-1.205 0-.688-.538-1.763-.897-2.361.399-.707 1.773-2.988 2.61-2.988.697 0 .837 1.055.837 1.574 0 .996-.588 2.63-1.723 2.809-.03 0-.05.01-.08.01-.329 0-.478-.24-.478-.538 0-.27.17-.608.478-.608h.03c0-.06.01-.1.01-.15 0-.218-.15-.388-.379-.388-.349 0-.538.379-.538.687 0 .538.3 1.176.907 1.176 1.454 0 2.729-1.982 2.729-3.297zm-4.064 4.403c0 .388-.16.717-.598.717-.478 0-.707-.558-.707-.986 0-.489.259-1.136.498-1.554.369.468.807 1.215.807 1.823zm5.908-3.796c0-2.59.966-3.646 1.544-4.323l-.19-.259c-.567.508-2.21 1.833-2.21 4.582 0 1.066.248 2.072.726 2.969.349.667.668 1.056 1.485 1.823l.189-.21c-.458-.567-1.544-1.783-1.544-4.582zm5.837 2.81c.459 0 1.126-.698 1.445-.997v-.13h-.13c-.189.18-.428.42-.697.42-.448 0-.378-1.286-.378-1.605.498-.617.956-1.265 1.335-1.962-.07-.15-.14-.309-.22-.458h-.11c-.138.677-.687 1.434-1.045 2.012.02-.787.249-2.142-.877-2.152-1.673 0-3.038 2.291-3.068 3.786-.01.597.19 1.085.867 1.085.916 0 1.853-.796 2.45-1.464 0 .349-.09 1.454.428 1.464zm-1.155-4.513c.867 0 .737 2.122.727 2.72-.428.507-1.235 1.354-1.942 1.354-.528 0-.638-.418-.628-.867.01-.866.757-3.207 1.843-3.207zm3.597-2.879l-.19.26c.548.637 1.545 1.732 1.545 4.322 0 2.75-1.036 3.955-1.544 4.583l.189.209c.528-.498 2.211-1.913 2.211-4.782 0-2.759-1.643-4.084-2.211-4.592zm-97.26 16.209h-.587v6.166h.587v-2.789h5.18v-.588h-5.18v-2.789zm10.229 3.317c0-2.59.967-3.646 1.544-4.323l-.19-.259c-.567.508-2.21 1.833-2.21 4.582 0 1.066.248 2.072.727 2.969.348.667.667 1.056 1.484 1.823l.19-.21c-.46-.567-1.545-1.783-1.545-4.582zm2.9-3.964l.547.02c.24.01.349.09.349.269l-.827 5.08c-.17.906-.18.936-.578.966l-.408.03-.04.279.419-.01c.408-.01.717-.02.896-.02.17 0 .458.01.857.02l.528.01.03-.28-.648-.03c-.26-.009-.359-.088-.359-.298 0-.09.01-.16.04-.348l.977-5.529c.358-.06.517-.08.707-.08 1.016 0 1.504.439 1.504 1.365 0 1.076-.717 1.952-1.594 1.952-.22 0-.418-.05-.787-.189l.02.31c.369.178.568.228.857.228 1.285 0 2.38-1.165 2.38-2.52 0-1.006-.627-1.534-1.813-1.504h-3.028l-.03.279zm15.156 5.538c0-.807-.548-1.335-1.245-1.623.697-.28 1.245-.807 1.245-1.614 0-.777-.648-1.425-1.425-1.425-.747 0-1.265.479-1.554 1.116l.439.259c.199-.458.597-.787 1.115-.787.458 0 .837.378.837.837 0 1.016-1.345 1.325-2.142 1.325H46.25v.587h3.984c.797 0 2.142.3 2.142 1.325a.842.842 0 01-.837.837c-.518 0-.916-.329-1.115-.787l-.439.26c.29.637.807 1.115 1.554 1.115.777 0 1.425-.658 1.425-1.425zm4.908 2.789c0-.767.24-1.125.767-1.125.29 0 .568.08.957.289l1.444.757c.597.308.777.368 1.175.368.748 0 1.106-.428 1.206-1.395h-.25c-.06.539-.278.788-.677.788-.169 0-.358-.05-.617-.15l-2.351-.956c-.25-.1-.428-.14-.658-.14-.737 0-1.245.508-1.245 1.265 0 .02 0 .09.01.17l.24.13zm5.947-5.946c0-1.774-1.036-2.8-2.829-2.8-2.36 0-4.094 1.823-4.094 4.324 0 1.882.936 2.888 2.69 2.888 2.709 0 4.233-2.24 4.233-4.412zm-.877.159c0 1.872-.886 3.835-2.988 3.835-1.434 0-2.181-.857-2.181-2.52 0-1.474.577-3.855 2.908-3.855 1.156 0 2.261.538 2.261 2.54zm1.675-3.158l-.19.26c.549.637 1.545 1.732 1.545 4.322 0 2.75-1.036 3.955-1.544 4.582l.19.21c.527-.498 2.21-1.913 2.21-4.782 0-2.76-1.643-4.084-2.21-4.592zm12.924 6.156c0-.807-.547-1.335-1.244-1.623.697-.28 1.245-.807 1.245-1.614 0-.777-.648-1.425-1.424-1.425-.748 0-1.266.479-1.555 1.116l.439.259c.199-.458.597-.787 1.115-.787.459 0 .837.378.837.837 0 1.016-1.345 1.325-2.142 1.325h-3.984v.587h3.984c.797 0 2.142.3 2.142 1.325a.842.842 0 01-.837.837c-.518 0-.916-.329-1.115-.787l-.439.26c.29.637.807 1.115 1.555 1.115.776 0 1.424-.658 1.424-1.425zm4.85-1.574c0-2.59.966-3.646 1.544-4.323l-.19-.259c-.567.508-2.21 1.833-2.21 4.582 0 1.066.248 2.072.726 2.969.349.667.668 1.056 1.484 1.823l.19-.21c-.459-.567-1.544-1.783-1.544-4.582zm8.059-2.928h-5.558v5.578h5.558v-5.578zm-.538.558v4.482h-4.483v-4.482h4.483zm2.232-1.594l.548.02c.24.01.349.09.349.269l-.827 5.08c-.17.906-.18.936-.578.966l-.408.03-.04.279.418-.01c.409-.01.718-.02.897-.02.169 0 .458.01.857.02l.527.01.03-.28-.647-.03c-.26-.009-.359-.088-.359-.298 0-.09.01-.16.04-.348l.976-5.529c.359-.06.518-.08.707-.08 1.016 0 1.505.439 1.505 1.365 0 1.076-.718 1.952-1.594 1.952-.22 0-.419-.05-.787-.189l.02.31c.368.178.568.228.856.228 1.285 0 2.381-1.165 2.381-2.52 0-1.006-.627-1.534-1.813-1.504h-3.028l-.03.279zm15.154 5.538c0-.807-.548-1.335-1.245-1.623.697-.28 1.245-.807 1.245-1.614 0-.777-.648-1.425-1.425-1.425-.747 0-1.265.479-1.554 1.116l.439.259c.199-.458.597-.787 1.115-.787.459 0 .837.378.837.837 0 1.016-1.345 1.325-2.142 1.325h-3.984v.587h3.984c.797 0 2.142.3 2.142 1.325a.842.842 0 01-.837.837c-.518 0-.916-.329-1.115-.787l-.439.26c.29.637.807 1.115 1.554 1.115.777 0 1.425-.658 1.425-1.425zm10.526-1.793l-3.326-3.576-3.328 3.576 3.328 3.586 3.326-3.586zm-.786 0l-2.54 2.73-2.53-2.73 2.53-2.73 2.54 2.73zm2.76 4.582c0-.767.239-1.125.767-1.125.289 0 .568.08.956.289l1.445.757c.597.308.776.368 1.175.368.747 0 1.106-.428 1.205-1.395h-.249c-.06.539-.279.788-.677.788-.169 0-.359-.05-.618-.15l-2.35-.956c-.25-.1-.429-.14-.658-.14-.737 0-1.245.508-1.245 1.265 0 .02 0 .09.01.17l.239.13zm5.947-5.946c0-1.774-1.036-2.8-2.83-2.8-2.36 0-4.094 1.823-4.094 4.324 0 1.882.937 2.888 2.69 2.888 2.71 0 4.234-2.24 4.234-4.412zm-.877.159c0 1.872-.886 3.835-2.988 3.835-1.435 0-2.182-.857-2.182-2.52 0-1.474.578-3.855 2.909-3.855 1.155 0 2.261.538 2.261 2.54zm1.675-3.158l-.19.26c.548.637 1.544 1.732 1.544 4.322 0 2.75-1.035 3.955-1.544 4.582l.19.21c.528-.498 2.211-1.913 2.211-4.782 0-2.76-1.643-4.084-2.211-4.592z"/></svg>