<svg xmlns="http://www.w3.org/2000/svg" width="230.688" height="44.724" viewBox="0 -33.543 173.016 33.543"><path d="M8.876-28.052v-.438h-2.65v24.505h2.64v-.438H7.172v-23.629h1.704zm6.356 12.112v-.658H9.684v.657h5.548zm8.204-4.751c-.488.577-.707.667-.876.667-.09 0-.13-.07-.13-.17 0-.139.06-.378.11-.547l.508-1.783a2.5 2.5 0 00.11-.708c0-.577-.28-.876-.877-.876-.588 0-1.345.508-2.182 2.132h-.01l.698-2.57 1.434-.518.12-.439-1.435.528.13-.458c.09-.329.17-.608.259-.876l-.08-.02c-.379.139-.727.268-1.564.438v.149c.299 0 .568.02.568.22 0 .07 0 .169-.04.288l-.19.598-.965.348-.09.429.936-.339-1.265 4.672h.837c.438-1.554.657-2.072 1.096-2.72.547-.806 1.076-1.324 1.394-1.324.29 0 .369.179.369.438 0 .19-.05.468-.09.618l-.398 1.434c-.1.369-.24.896-.24 1.096 0 .368.2.558.529.558.368 0 .886-.28 1.484-1.166l-.15-.1zm4.01-3.843l-.105-.045c-.246.418-.403.5-.717.5h-1.748l1.233-1.315c.664-.702.956-1.262.956-1.852 0-.74-.538-1.315-1.382-1.315-.919 0-1.397.613-1.554 1.487l.157.037c.299-.732.56-.97 1.098-.97.635 0 1.039.373 1.039 1.052 0 .635-.27 1.203-.972 1.942l-1.33 1.412v.09h2.922l.403-1.023z"/><path d="M17.066-16.238h12.055" stroke="#000" fill="none" stroke-width=".657" stroke-miterlimit="10"/><path d="M21.788-8.14l-.14-.06c-.329.557-.538.667-.956.667H18.36l1.643-1.753c.887-.937 1.276-1.684 1.276-2.47 0-.987-.718-1.754-1.843-1.754-1.225 0-1.863.817-2.072 1.982l.21.05c.398-.976.746-1.295 1.463-1.295.847 0 1.385.499 1.385 1.405 0 .847-.359 1.604-1.295 2.59l-1.773 1.882v.12h3.895l.538-1.365zm6.903.298c-.189.369-.448.528-.617.528-.09 0-.15-.04-.15-.12 0-.03.01-.09.02-.119l.608-2.301c.06-.24.07-.428.07-.608 0-.448-.18-.707-.538-.707-.2 0-.389.07-.608.22-.488.328-1.006.945-1.295 1.464h-.05l.1-.36a1.7 1.7 0 00.09-.517c0-.438-.18-.807-.548-.807-.379 0-.976.26-1.913 1.684h-.06l.439-1.684-1.564.24.02.139c.08-.01.19-.02.269-.02.269 0 .328.13.328.308l-.946 3.726h.777l.349-1.345c.159-.608 1.255-2.41 1.773-2.41.18 0 .229.179.229.378 0 .15-.03.309-.05.399l-.767 2.978h.787l.339-1.345c.15-.608 1.245-2.41 1.783-2.41.18 0 .239.179.239.378 0 .17-.02.26-.06.399l-.558 2.201c-.05.2-.06.299-.06.369 0 .388.17.488.389.488.468 0 .986-.498 1.305-1.036l-.13-.11zm7.642-12.093l-2.092 4.921-2.072-4.921h4.164zm.627-.408h-6.016l2.948 6.714h.2l2.868-6.714zm4.18 1.587l-.105-.045c-.246.418-.403.5-.717.5H38.57l1.233-1.315c.664-.702.956-1.262.956-1.852 0-.74-.538-1.315-1.382-1.315-.919 0-1.397.613-1.554 1.487l.157.037c.299-.732.56-.97 1.098-.97.635 0 1.038.373 1.038 1.052 0 .635-.269 1.203-.97 1.942l-1.33 1.412v.09h2.92l.404-1.023zm9.152 2.816v-.658h-2.6v-2.6h-.657v2.6h-2.6v.657h2.6v2.6h.657v-2.6h2.6zm10.272-4.314h-2.401l-.04.16h.2c.378 0 .517.07.517.219 0 .21-.189.498-.378.737l-2.79 3.646-.04-.01v-3.895c0-.329.05-.697.698-.697h.19l.04-.16h-2.93l-.04.16c.608 0 .987.239.987.817v5.687h.239l4.393-5.737c.259-.339.667-.727 1.315-.767l.04-.16zm3.426 8.109c-1.395-1.166-1.694-2.291-1.694-4.144 0-1.923.309-2.85 1.693-4.034l-.09-.16c-1.593.946-2.46 2.38-2.46 4.224 0 1.693.857 3.377 2.43 4.273l.12-.16zm2.465-6.196h-1.893v.239c.428.06.548.17.548.637v2.88c0 .408-.1.517-.538.597v.239h2.64v-.24c-.608-.04-.718-.178-.718-.816v-1.763c0-.588.26-1.036.608-1.036.08 0 .17.05.279.229.17.28.339.378.598.378.368 0 .627-.278.627-.677 0-.458-.339-.787-.807-.787-.498 0-.876.26-1.344.937v-.817zm3.078 5.997c.687-.33 1.116-.957 1.116-1.554 0-.519-.35-.867-.797-.867-.36 0-.598.23-.598.568 0 .338.21.508.578.508.11 0 .209-.04.288-.04.08 0 .14.06.14.13 0 .328-.279.697-.827 1.065l.1.19zm6.134-5.768h-.697l.309-1.285h-.13c-.408.867-1.016 1.235-1.763 1.375l-.05.289h.767l-.807 3.187c-.03.11-.05.24-.05.369 0 .269.08.518.389.518.588 0 1.086-.758 1.325-1.066l-.13-.11c-.368.498-.597.518-.597.518-.13 0-.16-.06-.16-.12 0-.03.01-.079.02-.109l.777-3.187h.697l.1-.38zm.588-2.211c1.444 1.135 1.694 2.28 1.694 4.143 0 1.933-.28 2.87-1.694 4.035l.09.16c1.584-.967 2.46-2.382 2.46-4.224a5.034 5.034 0 00-2.43-4.274l-.12.16zm5.857 16.338V-28.49h-2.65v.438h1.704v23.629h-1.704v.438h2.65zm11.114-16.637c-1.165 0-1.544.747-1.544 1.803 0 .946-.13 2.012-1.335 2.012h-.11v-2.54c0-.727.399-.807 1.027-.807v-.19h-3.048v.19c.607 0 1.006.11 1.006.807v2.54h-.11c-1.205 0-1.335-1.066-1.335-2.012 0-1.056-.378-1.803-1.544-1.803v.189c.389.08.468.717.468 1.036 0 .299-.04.598-.04.896 0 1.485 1.246 2.063 2.56 2.063v1.454c0 .867-.149 1.006-1.005 1.046v.189h3.048v-.19c-.737-.02-1.027-.099-1.027-.916v-1.583c1.315 0 2.56-.578 2.56-2.063 0-.298-.04-.597-.04-.896 0-.319.08-.956.469-1.036v-.19zm3.248 8.477c-1.394-1.166-1.693-2.291-1.693-4.144 0-1.923.309-2.85 1.693-4.034l-.09-.16c-1.593.946-2.46 2.38-2.46 4.224 0 1.693.857 3.377 2.43 4.273l.12-.16zm2.462-6.196h-1.893v.239c.428.06.548.17.548.637v2.88c0 .408-.1.517-.538.597v.239h2.64v-.24c-.608-.04-.718-.178-.718-.816v-1.763c0-.588.26-1.036.608-1.036.08 0 .17.05.279.229.17.28.339.378.598.378.368 0 .627-.278.627-.677 0-.458-.339-.787-.807-.787-.498 0-.876.26-1.344.937v-.817zm3.078 5.997c.687-.33 1.116-.957 1.116-1.554 0-.519-.35-.867-.797-.867-.36 0-.598.23-.598.568 0 .338.21.508.578.508.11 0 .209-.04.288-.04.08 0 .14.06.14.13 0 .328-.279.697-.827 1.065l.1.19zm6.134-5.768h-.697l.309-1.285h-.13c-.408.867-1.016 1.235-1.763 1.375l-.05.289h.767l-.807 3.187c-.03.11-.05.24-.05.369 0 .269.08.518.389.518.588 0 1.086-.758 1.325-1.066l-.13-.11c-.368.498-.597.518-.597.518-.13 0-.16-.06-.16-.12 0-.03.01-.079.02-.109l.777-3.187h.697l.1-.38zm.588-2.211c1.444 1.135 1.694 2.28 1.694 4.143 0 1.933-.28 2.87-1.694 4.035l.09.16c1.584-.967 2.46-2.382 2.46-4.224a5.034 5.034 0 00-2.43-4.274l-.12.16zm12.142 5.379v-.658h-5.868v.658h5.868zm0-1.993v-.657h-5.868v.657h5.868zm5.775 3.188v-.15c-.657-.05-.737-.159-.737-.896v-3.496l-.04-.04-1.544.548v.159c.18-.05.329-.05.418-.05.25 0 .33.16.33.628v2.261c0 .757-.1.847-.788.887v.149h2.361zm-.727-6.296a.504.504 0 00-.508-.507.51.51 0 00-.508.507c0 .29.22.508.498.508a.5.5 0 00.518-.508zm6.276 5.131c-.488.577-.707.667-.876.667-.09 0-.13-.07-.13-.17 0-.139.06-.378.11-.547l.508-1.783a2.5 2.5 0 00.11-.708c0-.577-.28-.876-.877-.876-.588 0-1.345.508-2.182 2.132h-.01l.698-2.57 1.434-.518.12-.439-1.435.528.13-.458c.09-.329.17-.608.259-.876l-.08-.02c-.379.139-.727.268-1.564.438v.149c.299 0 .568.02.568.22 0 .07 0 .169-.04.288l-.19.598-.965.348-.09.429.936-.339-1.265 4.672h.837c.438-1.554.657-2.072 1.096-2.72.547-.806 1.076-1.324 1.394-1.324.29 0 .369.179.369.438 0 .19-.05.468-.09.618l-.398 1.434c-.1.369-.24.896-.24 1.096 0 .368.2.558.529.558.368 0 .886-.28 1.484-1.166l-.15-.1zm7.078-7.79c0 .31-.06.648-.149.976-.279 1.017-.866 2.013-1.633 2.013-.628 0-.668-.598-.668-.976 0-1.385.857-2.87 1.843-2.87.27 0 .608.21.608.857zm-1.713-3.048c.25-.08.469-.13.738-.13 1.016 0 1.304.927 1.304 1.804 0 .239-.03.478-.07.697-.208-.368-.637-.478-.956-.478-1.454 0-2.56 1.424-2.56 2.829 0 .846.379 1.614 1.355 1.614 2.331 0 2.939-2.7 2.939-4.174 0-1.694-.618-2.59-1.873-2.59-.339 0-.697.06-.976.229l.1.2z"/><path d="M133.867-16.238h8.207" stroke="#000" fill="none" stroke-width=".657" stroke-miterlimit="10"/><path d="M137.522-9.954c0 .31-.06.648-.15.976-.278 1.017-.866 2.013-1.633 2.013-.628 0-.668-.598-.668-.976 0-1.385.857-2.87 1.843-2.87.27 0 .608.21.608.857zm-1.713-3.048c.249-.08.468-.13.737-.13 1.016 0 1.304.927 1.304 1.804 0 .239-.03.478-.07.697-.208-.368-.637-.478-.956-.478-1.454 0-2.56 1.424-2.56 2.829 0 .846.379 1.614 1.355 1.614 2.331 0 2.939-2.7 2.939-4.174 0-1.694-.618-2.59-1.873-2.59-.339 0-.697.06-.976.229l.1.2zm5.966 1.862h-.697l.309-1.284h-.13c-.409.867-1.016 1.235-1.763 1.375l-.05.289h.767l-.807 3.187c-.03.11-.05.24-.05.369 0 .269.08.518.389.518.588 0 1.086-.758 1.325-1.066l-.13-.11c-.368.498-.597.518-.597.518-.13 0-.16-.06-.16-.12 0-.03.01-.079.02-.109l.777-3.187h.697l.1-.38zm8.708-9.482c-1.165 0-1.544.747-1.544 1.803 0 .946-.13 2.012-1.335 2.012h-.11v-2.54c0-.727.399-.807 1.027-.807v-.19h-3.048v.19c.607 0 1.005.11 1.005.807v2.54h-.11c-1.205 0-1.334-1.066-1.334-2.012 0-1.056-.378-1.803-1.544-1.803v.189c.388.08.468.717.468 1.036 0 .299-.04.598-.04.896 0 1.485 1.245 2.063 2.56 2.063v1.454c0 .867-.149 1.006-1.005 1.046v.189h3.048v-.19c-.738-.02-1.027-.099-1.027-.916v-1.583c1.315 0 2.56-.578 2.56-2.063 0-.298-.04-.597-.04-.896 0-.319.08-.956.469-1.036v-.19zm3.248 8.477c-1.394-1.166-1.693-2.291-1.693-4.144 0-1.923.309-2.85 1.693-4.034l-.09-.16c-1.593.946-2.46 2.38-2.46 4.224 0 1.693.857 3.377 2.43 4.273l.12-.16zm2.462-6.196H154.3v.239c.428.06.548.17.548.637v2.88c0 .408-.1.517-.538.597v.239h2.64v-.24c-.608-.04-.718-.178-.718-.816v-1.763c0-.588.26-1.036.608-1.036.08 0 .17.05.279.229.17.28.339.378.598.378.368 0 .627-.278.627-.677 0-.458-.339-.787-.807-.787-.498 0-.876.26-1.344.937v-.817zm3.077 5.997c.688-.33 1.117-.957 1.117-1.554 0-.519-.35-.867-.797-.867-.36 0-.598.23-.598.568 0 .338.21.508.578.508.11 0 .209-.04.288-.04s.14.06.14.13c0 .328-.279.697-.827 1.065l.1.19zm6.135-5.768h-.697l.309-1.285h-.13c-.408.867-1.016 1.235-1.763 1.375l-.05.289h.767l-.807 3.187c-.03.11-.05.24-.05.369 0 .269.08.518.389.518.588 0 1.086-.758 1.325-1.066l-.13-.11c-.368.498-.597.518-.597.518-.13 0-.16-.06-.16-.12 0-.03.01-.079.02-.109l.777-3.187h.697l.1-.38zm.588-2.211c1.444 1.135 1.694 2.28 1.694 4.143 0 1.933-.28 2.87-1.694 4.035l.09.16c1.584-.967 2.46-2.382 2.46-4.224a5.034 5.034 0 00-2.43-4.274l-.12.16z"/></svg>