<svg xmlns="http://www.w3.org/2000/svg" xmlns:xlink="http://www.w3.org/1999/xlink" width="103.78pt" height="118.28" viewBox="0 0 103.78 88.71"><path stroke-width=".3985" stroke-miterlimit="10" fill="none" stroke="#000" d="M9.156 11.1271V73.49m0-32.5986"/><path d="M9.156 24.2795l1.3457-3.5712-1.3457 1.1744-1.3457-1.1744z"/><path stroke-width=".3985" stroke-miterlimit="10" fill="none" stroke="#000" d="M9.156 24.2795l1.3457-3.5712-1.3457 1.1744-1.3457-1.1744z"/><path d="M9.156 60.4501l1.3457-3.5712-1.3457 1.1744-1.3457-1.1744z"/><path stroke-width=".3985" stroke-miterlimit="10" fill="none" stroke="#000" d="M9.156 60.4501l1.3457-3.5712-1.3457 1.1744-1.3457-1.1744z"/><path d="M9.156 24.2795l1.3457-3.5712-1.3457 1.1744-1.3457-1.1744z"/><path stroke-width=".3985" stroke-miterlimit="10" fill="none" stroke="#000" d="M9.156 24.2795l1.3457-3.5712-1.3457 1.1744-1.3457-1.1744z"/><path d="M9.156 60.4501l1.3457-3.5712-1.3457 1.1744-1.3457-1.1744z"/><path stroke-width=".3985" stroke-miterlimit="10" fill="none" stroke="#000" d="M9.156 60.4501l1.3457-3.5712-1.3457 1.1744-1.3457-1.1744z"/><symbol id="a"><path d="M.305.313c.006.026.029.118.099.118.005 0 .029 0 .05-.013C.426.413.406.388.406.364c0-.016.011-.035.038-.035.022 0 .054.018.054.058 0 .052-.059.066-.093.066C.347.453.312.4.3.377.275.443.221.453.192.453.088.453.031.324.031.299c0-.01.01-.01.012-.01.008 0 .011.002.013.011.034.106.1.131.134.131.019 0 .054-.009.054-.067C.244.333.227.266.19.126.174.064.139.022.095.022c-.006 0-.029 0-.05.013C.07.04.092.061.092.089.092.116.07.124.055.124.025.124 0 .098 0 .066 0 .02.05 0 .094 0 .16 0 .196.07.199.076A.1104.1104 0 01.307 0c.103 0 .16.129.16.154 0 .01-.009.01-.012.01C.446.164.444.16.442.153.409.046.341.022.309.022.27.022.254.054.254.088c0 .022.006.044.017.088l.034.137z"/></symbol><use xlink:href="#a" transform="matrix(9.9626 0 0 -9.9626 6.598 7.7166)"/><symbol id="b"><path d="M.457.586a.063.063 0 01.004.023c0 .018-.014.027-.029.027C.422.636.406.63.397.615A.758.758 0 01.383.561a1.8693 1.8693 0 01-.02-.08L.318.301C.314.286.271.216.205.216.154.216.143.26.143.297c0 .046.017.108.051.196.016.041.02.052.02.072C.214.61.182.647.132.647.037.647 0 .502 0 .493c0-.01.01-.01.012-.01.01 0 .011.002.016.018.027.094.067.124.101.124.008 0 .025 0 .025-.032 0-.025-.01-.051-.017-.07C.097.417.079.36.079.313c0-.089.063-.119.122-.119.039 0 .073.017.101.045C.289.187.277.138.237.085.211.051.173.022.127.022.113.022.068.025.051.064c.016 0 .029 0 .043.012.01.009.02.022.02.041 0 .031-.027.035-.037.035C.054.152.021.136.021.087.021.037.065 0 .127 0 .23 0 .333.091.361.204l.096.382z"/></symbol><use xlink:href="#b" transform="matrix(9.9626 0 0 -9.9626 6.824 85.4953)"/><path d="M3.5021 45.568H14.81V32.7278H3.502z" fill="#fff"/><path stroke-width=".3985" stroke-miterlimit="10" fill="none" stroke="#000" d="M3.5021 45.568H14.81V32.7278H3.502z"/><symbol id="c"><path d="M.334.599h.098c.02 0 .033 0 .033.022 0 .014-.013.014-.031.014H.341C.364.762.372.808.38.837.385.859.407.88.431.88.432.88.459.88.478.868A.0596.0596 0 01.434.813c0-.022.017-.037.04-.037.027 0 .057.023.057.061 0 .046-.049.071-.1.071C.387.908.338.883.311.833.291.796.283.751.262.635H.183C.163.635.15.635.15.613.15.599.163.599.181.599h.074C.254.593.191.233.167.126.162.104.145.028.097.028c-.001 0-.025 0-.044.012.041.013.044.049.044.055 0 .022-.017.037-.04.037A.0592.0592 0 010 .071C0 .026.047 0 .097 0c.064 0 .108.066.12.088.036.067.059.19.061.202l.056.309z"/></symbol><use xlink:href="#c" transform="matrix(6.9738 0 0 -6.9738 7.332 42.3137)"/><symbol id="d"><path d="M.667.396C.667.418.66.427.653.427.649.427.64.423.639.4.635.317.565.27.5.27.44.27.392.305.34.345.287.387.234.428.167.428.069.428 0 .34 0 .246 0 .216.013.215.014.215c.011 0 .014.02.014.023.005.098.085.134.139.134.06 0 .108-.035.16-.075C.38.255.433.214.5.214c.098 0 .167.088.167.182M.036.04C.02.04 0 .04 0 .02S.018 0 .035 0h.597c.017 0 .035 0 .035.02S.648.04.631.04H.036z"/></symbol><use xlink:href="#d" transform="matrix(9.9626 0 0 -9.9626 29.152 41.9503)"/><path stroke-width=".3985" stroke-miterlimit="10" fill="none" stroke="#000" d="M52.483 11.1271v31.1812c0 14.1735 0 31.1817 17.0082 31.1817 17.0079 0 17.0079-19.8427 17.0079-31.1817 0-11.3385 0-19.8426-5.6693-19.8426s-5.6693 5.6692-5.6693 19.8426c0 14.1735 0 19.8431-5.6693 19.8431-5.6697 0-5.6697-8.504-5.6697-19.843 0-11.3386 0-31.1813 17.0083-31.1813s17.0083 14.1734 17.0083 31.1812V73.49M75.1605 40.8914"/><path d="M52.483 42.0626l1.3454-3.5713-1.3456 1.1745-1.3458-1.1743z"/><path stroke-width=".3985" stroke-miterlimit="10" fill="none" stroke="#000" d="M52.483 42.0626l1.3454-3.5713-1.3456 1.1745-1.3458-1.1743z"/><path d="M86.4848 37.7674l-1.2972 3.589 1.3297-1.1925 1.3614 1.156z"/><path stroke-width=".3985" stroke-miterlimit="10" fill="none" stroke="#000" d="M86.4848 37.7674l-1.2972 3.589 1.3297-1.1925 1.3614 1.156z"/><path d="M63.8455 38.1354l-1.4223 3.5412 1.3707-1.145 1.32 1.203z"/><path stroke-width=".3985" stroke-miterlimit="10" fill="none" stroke="#000" d="M63.8455 38.1354l-1.4223 3.5412 1.3707-1.145 1.32 1.203z"/><path d="M97.838 42.0498l1.3458-3.5712-1.3457 1.1743-1.3458-1.1743z"/><path stroke-width=".3985" stroke-miterlimit="10" fill="none" stroke="#000" d="M97.838 42.0498l1.3458-3.5712-1.3457 1.1743-1.3458-1.1743z"/><path d="M52.483 42.0626l1.3454-3.5713-1.3456 1.1745-1.3458-1.1743z"/><path stroke-width=".3985" stroke-miterlimit="10" fill="none" stroke="#000" d="M52.483 42.0626l1.3454-3.5713-1.3456 1.1745-1.3458-1.1743z"/><path d="M86.4848 37.7674l-1.2972 3.589 1.3297-1.1925 1.3614 1.156z"/><path stroke-width=".3985" stroke-miterlimit="10" fill="none" stroke="#000" d="M86.4848 37.7674l-1.2972 3.589 1.3297-1.1925 1.3614 1.156z"/><path d="M63.8455 38.1354l-1.4223 3.5412 1.3707-1.145 1.32 1.203z"/><path stroke-width=".3985" stroke-miterlimit="10" fill="none" stroke="#000" d="M63.8455 38.1354l-1.4223 3.5412 1.3707-1.145 1.32 1.203z"/><path d="M97.838 42.0498l1.3458-3.5712-1.3457 1.1743-1.3458-1.1743z"/><path stroke-width=".3985" stroke-miterlimit="10" fill="none" stroke="#000" d="M97.838 42.0498l1.3458-3.5712-1.3457 1.1743-1.3458-1.1743z"/><path d="M52.483 42.0626l1.3454-3.5713-1.3456 1.1745-1.3458-1.1743z"/><path stroke-width=".3985" stroke-miterlimit="10" fill="none" stroke="#000" d="M52.483 42.0626l1.3454-3.5713-1.3456 1.1745-1.3458-1.1743z"/><path d="M86.4848 37.7674l-1.2972 3.589 1.3297-1.1925 1.3614 1.156z"/><path stroke-width=".3985" stroke-miterlimit="10" fill="none" stroke="#000" d="M86.4848 37.7674l-1.2972 3.589 1.3297-1.1925 1.3614 1.156z"/><path d="M63.8455 38.1354l-1.4223 3.5412 1.3707-1.145 1.32 1.203z"/><path stroke-width=".3985" stroke-miterlimit="10" fill="none" stroke="#000" d="M63.8455 38.1354l-1.4223 3.5412 1.3707-1.145 1.32 1.203z"/><path d="M97.838 42.0498l1.3458-3.5712-1.3457 1.1743-1.3458-1.1743z"/><path stroke-width=".3985" stroke-miterlimit="10" fill="none" stroke="#000" d="M97.838 42.0498l1.3458-3.5712-1.3457 1.1743-1.3458-1.1743z"/><path d="M52.483 42.0626l1.3454-3.5713-1.3456 1.1745-1.3458-1.1743z"/><path stroke-width=".3985" stroke-miterlimit="10" fill="none" stroke="#000" d="M52.483 42.0626l1.3454-3.5713-1.3456 1.1745-1.3458-1.1743z"/><path d="M86.4848 37.7674l-1.2972 3.589 1.3297-1.1925 1.3614 1.156z"/><path stroke-width=".3985" stroke-miterlimit="10" fill="none" stroke="#000" d="M86.4848 37.7674l-1.2972 3.589 1.3297-1.1925 1.3614 1.156z"/><path d="M63.8455 38.1354l-1.4223 3.5412 1.3707-1.145 1.32 1.203z"/><path stroke-width=".3985" stroke-miterlimit="10" fill="none" stroke="#000" d="M63.8455 38.1354l-1.4223 3.5412 1.3707-1.145 1.32 1.203z"/><path d="M97.838 42.0498l1.3458-3.5712-1.3457 1.1743-1.3458-1.1743z"/><path stroke-width=".3985" stroke-miterlimit="10" fill="none" stroke="#000" d="M97.838 42.0498l1.3458-3.5712-1.3457 1.1743-1.3458-1.1743z"/><use xlink:href="#a" transform="matrix(9.9626 0 0 -9.9626 49.925 7.7166)"/><use xlink:href="#b" transform="matrix(9.9626 0 0 -9.9626 95.506 85.4953)"/><path d="M69.5066 45.568h11.3078V32.7278H69.5066z" fill="#fff"/><path stroke-width=".3985" stroke-miterlimit="10" fill="none" stroke="#000" d="M69.5066 45.568h11.3078V32.7278H69.5066z"/><use xlink:href="#c" transform="matrix(6.9738 0 0 -6.9738 73.336 42.3137)"/></svg>