<svg xmlns="http://www.w3.org/2000/svg" xmlns:xlink="http://www.w3.org/1999/xlink" width="438.7307" height="84.749pt" viewBox="0 0 329.048 84.749"><path stroke-width=".3985" stroke-miterlimit="10" fill="none" stroke="#000" d="M9.101 14.7944v28.3468m22.6775-28.3468v28.3468m-11.339 0V71.488"/><path d="M9.101 26.3751l1.3457-3.5712-1.3457 1.1744-1.3457-1.1744z"/><path stroke-width=".3985" stroke-miterlimit="10" fill="none" stroke="#000" d="M9.101 26.3751l1.3457-3.5712-1.3457 1.1744-1.3457-1.1744z"/><path d="M31.7785 26.3747l1.3457-3.5712-1.3457 1.1744-1.3457-1.1744z"/><path stroke-width=".3985" stroke-miterlimit="10" fill="none" stroke="#000" d="M31.7785 26.3747l1.3457-3.5712-1.3457 1.1744-1.3457-1.1744z"/><path d="M20.4395 62.416l1.3458-3.5712-1.3458 1.1743-1.3457-1.1743z"/><path stroke-width=".3985" stroke-miterlimit="10" fill="none" stroke="#000" d="M20.4395 62.416l1.3458-3.5712-1.3458 1.1743-1.3457-1.1743z"/><path d="M9.101 26.3751l1.3457-3.5712-1.3457 1.1744-1.3457-1.1744z"/><path stroke-width=".3985" stroke-miterlimit="10" fill="none" stroke="#000" d="M9.101 26.3751l1.3457-3.5712-1.3457 1.1744-1.3457-1.1744z"/><path d="M31.7785 26.3747l1.3457-3.5712-1.3457 1.1744-1.3457-1.1744z"/><path stroke-width=".3985" stroke-miterlimit="10" fill="none" stroke="#000" d="M31.7785 26.3747l1.3457-3.5712-1.3457 1.1744-1.3457-1.1744z"/><path d="M20.4395 62.416l1.3458-3.5712-1.3458 1.1743-1.3457-1.1743z"/><path stroke-width=".3985" stroke-miterlimit="10" fill="none" stroke="#000" d="M20.4395 62.416l1.3458-3.5712-1.3458 1.1743-1.3457-1.1743z"/><path d="M9.101 26.3751l1.3457-3.5712-1.3457 1.1744-1.3457-1.1744z"/><path stroke-width=".3985" stroke-miterlimit="10" fill="none" stroke="#000" d="M9.101 26.3751l1.3457-3.5712-1.3457 1.1744-1.3457-1.1744z"/><path d="M31.7785 26.3747l1.3457-3.5712-1.3457 1.1744-1.3457-1.1744z"/><path stroke-width=".3985" stroke-miterlimit="10" fill="none" stroke="#000" d="M31.7785 26.3747l1.3457-3.5712-1.3457 1.1744-1.3457-1.1744z"/><path d="M20.4395 62.416l1.3458-3.5712-1.3458 1.1743-1.3457-1.1743z"/><path stroke-width=".3985" stroke-miterlimit="10" fill="none" stroke="#000" d="M20.4395 62.416l1.3458-3.5712-1.3458 1.1743-1.3457-1.1743z"/><symbol id="a"><path d="M.305.313c.006.026.029.118.099.118.005 0 .029 0 .05-.013C.426.413.406.388.406.364c0-.016.011-.035.038-.035.022 0 .054.018.054.058 0 .052-.059.066-.093.066C.347.453.312.4.3.377.275.443.221.453.192.453.088.453.031.324.031.299c0-.01.01-.01.012-.01.008 0 .011.002.013.011.034.106.1.131.134.131.019 0 .054-.009.054-.067C.244.333.227.266.19.126.174.064.139.022.095.022c-.006 0-.029 0-.05.013C.07.04.092.061.092.089.092.116.07.124.055.124.025.124 0 .098 0 .066 0 .02.05 0 .094 0 .16 0 .196.07.199.076A.1104.1104 0 01.307 0c.103 0 .16.129.16.154 0 .01-.009.01-.012.01C.446.164.444.16.442.153.409.046.341.022.309.022.27.022.254.054.254.088c0 .022.006.044.017.088l.034.137z"/></symbol><use xlink:href="#a" transform="matrix(9.9626 0 0 -9.9626 3.61 10.9196)"/><symbol id="b"><path d="M.608.578c.007.013.007.015.007.018 0 .016-.013.025-.024.025C.577.621.571.613.563.597L.308.08.052.595C.043.614.039.621.024.621A.0245.0245 0 010 .596C0 .593 0 .591.007.578L.281.022C.287.011.293 0 .307 0c.014 0 .02.009.027.022l.274.556z"/></symbol><use xlink:href="#b" transform="matrix(6.9738 0 0 -6.9738 9.551 7.3345)"/><use xlink:href="#a" transform="matrix(9.9626 0 0 -9.9626 29.22 10.9196)"/><symbol id="c"><path d="M.269.623c0 .022 0 .032-.026.032-.011 0-.013 0-.022-.007C.144.591.041.591.02.591H0V.544h.02c.016 0 .071.001.13.02V.047H.011V0c.044.003.15.003.199.003.049 0 .155 0 .199-.003v.047h-.14v.576z"/></symbol><use xlink:href="#c" transform="matrix(9.9626 0 0 -9.9626 18.4218 81.428)"/><path d="M3.4315 48.8303h34.0161V34.657H3.4315z" fill="#fff"/><path stroke-width=".3985" stroke-miterlimit="10" fill="none" stroke="#000" d="M3.4315 48.8303h34.0161V34.657H3.4315z"/><symbol id="d"><path d="M.141.242c.029 0 .103.002.153.023.07.03.075.089.075.103 0 .044-.038.085-.107.085C.151.453 0 .356 0 .181 0 .079.059 0 .157 0 .3 0 .384.106.384.118c0 .006-.006.013-.012.013C.367.131.365.129.359.121.28.022.171.022.159.022.081.022.072.106.072.138c0 .012.001.043.016.104h.053M.094.264c.039.152.142.167.168.167.047 0 .074-.029.074-.063C.336.264.176.264.135.264H.094z"/></symbol><use xlink:href="#d" transform="matrix(9.9626 0 0 -9.9626 16.0703 43.2516)"/><symbol id="e"><path d="M.201.116C.191.082.158.028.107.028c-.003 0-.033 0-.054.014.041.013.044.049.044.055 0 .022-.017.037-.04.037A.0592.0592 0 010 .073C0 .023.056 0 .105 0c.046 0 .087.029.112.071C.241.018.296 0 .336 0c.115 0 .176.125.176.153 0 .013-.013.013-.016.013C.482.166.481.161.477.149.456.08.396.028.34.028.3.028.279.055.279.093c0 .026.024.117.052.228.02.077.065.102.098.102.002 0 .033 0 .054-.014A.059.059 0 01.439.354c0-.022.017-.037.04-.037s.056.019.056.061c0 .056-.064.073-.104.073C.381.451.341.418.319.38.301.421.255.451.199.451.087.451.023.328.023.298.023.285.037.285.04.285c.013 0 .014.004.019.017.025.078.088.121.137.121.033 0 .06-.018.06-.066 0-.02-.012-.07-.021-.104L.201.116z"/></symbol><use xlink:href="#e" transform="matrix(6.9738 0 0 -6.9738 20.5857 44.7057)"/><symbol id="f"><path d="M.631.194c.015 0 .034 0 .034.02s-.019.02-.033.02H.033C.019.234 0 .234 0 .214s.019-.02.034-.02h.597M.632 0c.014 0 .033 0 .033.02S.646.04.631.04H.034C.019.04 0 .04 0 .02S.019 0 .033 0h.599z"/></symbol><use xlink:href="#f" transform="matrix(9.9626 0 0 -9.9626 45.469 42.794)"/><path stroke-width=".3985" stroke-miterlimit="10" fill="none" stroke="#000" d="M65.7946 43.1412V14.7944"/><path d="M65.7946 22.7319l-1.3457 3.5712 1.3457-1.1744 1.3457 1.1744z"/><path stroke-width=".3985" stroke-miterlimit="10" fill="none" stroke="#000" d="M65.7946 22.7319l-1.3457 3.5712 1.3457-1.1744 1.3457 1.1744z"/><use xlink:href="#a" transform="matrix(9.9626 0 0 -9.9626 63.236 10.9196)"/><path stroke-width=".3985" stroke-miterlimit="10" fill="none" stroke="#000" d="M88.4721 14.7944v28.3468"/><path d="M88.4721 26.6996l1.3458-3.5712-1.3458 1.1743-1.3457-1.1743z"/><path stroke-width=".3985" stroke-miterlimit="10" fill="none" stroke="#000" d="M88.4721 26.6996l1.3458-3.5712-1.3458 1.1743-1.3457-1.1743z"/><use xlink:href="#a" transform="matrix(9.9626 0 0 -9.9626 85.913 10.9196)"/><path d="M60.1251 48.8303h34.0161V34.657h-34.016z" fill="#fff"/><path stroke-width=".3985" stroke-miterlimit="10" fill="none" stroke="#000" d="M60.1251 48.8303h34.0161V34.657h-34.016z"/><use xlink:href="#d" transform="matrix(9.9626 0 0 -9.9626 72.7633 43.2516)"/><use xlink:href="#e" transform="matrix(6.9738 0 0 -6.9738 77.2787 44.7057)"/><use xlink:href="#f" transform="matrix(9.9626 0 0 -9.9626 102.1619 42.794)"/><path stroke-width=".3985" stroke-miterlimit="10" fill="none" stroke="#000" d="M142.3309 14.7944v28.3468c0 2.8349 0 17.0083-11.3385 17.0083-11.339 0-11.339-14.1734-11.339-17.0083V14.7944"/><path d="M119.6534 23.586l-1.3458 3.5712 1.3458-1.1744 1.3457 1.1744z"/><path stroke-width=".3985" stroke-miterlimit="10" fill="none" stroke="#000" d="M119.6534 23.586l-1.3458 3.5712 1.3458-1.1744 1.3457 1.1744z"/><use xlink:href="#a" transform="matrix(9.9626 0 0 -9.9626 139.7709 10.9196)"/><path stroke-width=".3985" stroke-miterlimit="10" fill="none" stroke="#000" d="M200.9905 14.7724v28.3468m-11.3385 0V71.466m22.6775-28.3468V71.466"/><path d="M200.9905 26.3531l1.3458-3.5712-1.3458 1.1744-1.3457-1.1744z"/><path stroke-width=".3985" stroke-miterlimit="10" fill="none" stroke="#000" d="M200.9905 26.3531l1.3458-3.5712-1.3458 1.1744-1.3457-1.1744z"/><path d="M189.652 62.423l1.3457-3.5713-1.3457 1.1744-1.3457-1.1744z"/><path stroke-width=".3985" stroke-miterlimit="10" fill="none" stroke="#000" d="M189.652 62.423l1.3457-3.5713-1.3457 1.1744-1.3457-1.1744z"/><path d="M212.3295 62.394l1.3457-3.5712-1.3457 1.1743-1.3457-1.1743z"/><path stroke-width=".3985" stroke-miterlimit="10" fill="none" stroke="#000" d="M212.3295 62.394l1.3457-3.5712-1.3457 1.1743-1.3457-1.1743z"/><path d="M200.9905 26.3531l1.3458-3.5712-1.3458 1.1744-1.3457-1.1744z"/><path stroke-width=".3985" stroke-miterlimit="10" fill="none" stroke="#000" d="M200.9905 26.3531l1.3458-3.5712-1.3458 1.1744-1.3457-1.1744z"/><path d="M189.652 62.423l1.3457-3.5713-1.3457 1.1744-1.3457-1.1744z"/><path stroke-width=".3985" stroke-miterlimit="10" fill="none" stroke="#000" d="M189.652 62.423l1.3457-3.5713-1.3457 1.1744-1.3457-1.1744z"/><path d="M212.3295 62.394l1.3457-3.5712-1.3457 1.1743-1.3457-1.1743z"/><path stroke-width=".3985" stroke-miterlimit="10" fill="none" stroke="#000" d="M212.3295 62.394l1.3457-3.5712-1.3457 1.1743-1.3457-1.1743z"/><path d="M200.9905 26.3531l1.3458-3.5712-1.3458 1.1744-1.3457-1.1744z"/><path stroke-width=".3985" stroke-miterlimit="10" fill="none" stroke="#000" d="M200.9905 26.3531l1.3458-3.5712-1.3458 1.1744-1.3457-1.1744z"/><path d="M189.652 62.423l1.3457-3.5713-1.3457 1.1744-1.3457-1.1744z"/><path stroke-width=".3985" stroke-miterlimit="10" fill="none" stroke="#000" d="M189.652 62.423l1.3457-3.5713-1.3457 1.1744-1.3457-1.1744z"/><path d="M212.3295 62.394l1.3457-3.5712-1.3457 1.1743-1.3457-1.1743z"/><path stroke-width=".3985" stroke-miterlimit="10" fill="none" stroke="#000" d="M212.3295 62.394l1.3457-3.5712-1.3457 1.1743-1.3457-1.1743z"/><use xlink:href="#c" transform="matrix(9.9626 0 0 -9.9626 198.9728 10.788)"/><use xlink:href="#a" transform="matrix(9.9626 0 0 -9.9626 187.0939 81.5376)"/><use xlink:href="#a" transform="matrix(9.9626 0 0 -9.9626 206.8379 81.5376)"/><use xlink:href="#b" transform="matrix(6.9738 0 0 -6.9738 212.78 77.9525)"/><path d="M183.9825 47.9341h34.0161V33.228h-34.0161z" fill="#fff"/><path stroke-width=".3985" stroke-miterlimit="10" fill="none" stroke="#000" d="M183.9825 47.9341h34.0161V33.228h-34.0161z"/><symbol id="g"><path d="M.255.636c0 .02-.014.036-.037.036C.191.672.164.646.164.619.164.6.178.583.202.583c.023 0 .053.023.053.053M.179.26c.012.029.012.031.022.058.008.02.013.034.013.053 0 .045-.032.082-.082.082C.038.453 0 .308 0 .299c0-.01.01-.01.012-.01.01 0 .011.002.016.018.027.094.067.124.101.124.008 0 .025 0 .025-.032C.154.378.147.357.143.347.135.321.09.205.074.162.064.136.051.103.051.082.051.035.085 0 .133 0c.094 0 .131.145.131.154 0 .01-.009.01-.012.01-.01 0-.01-.003-.015-.018C.219.083.186.022.135.022c-.017 0-.024.01-.024.033 0 .025.006.039.029.1L.179.26z"/></symbol><use xlink:href="#g" transform="matrix(9.9626 0 0 -9.9626 197.056 43.2286)"/><use xlink:href="#e" transform="matrix(6.9738 0 0 -6.9738 200.5338 44.6837)"/><use xlink:href="#f" transform="matrix(9.9626 0 0 -9.9626 226.0209 42.772)"/><path stroke-width=".3985" stroke-miterlimit="10" fill="none" stroke="#000" d="M246.3456 43.1192V71.466"/><path d="M246.3456 62.9614l1.3457-3.5712-1.3457 1.1744L245 59.3902z"/><path stroke-width=".3985" stroke-miterlimit="10" fill="none" stroke="#000" d="M246.3456 62.9614l1.3457-3.5712-1.3457 1.1744L245 59.3902z"/><use xlink:href="#a" transform="matrix(9.9626 0 0 -9.9626 243.7869 81.5376)"/><path stroke-width=".3985" stroke-miterlimit="10" fill="none" stroke="#000" d="M269.0231 71.466V43.1192"/><path d="M269.0231 58.9938l-1.3457 3.5712 1.3457-1.1744 1.3458 1.1744z"/><path stroke-width=".3985" stroke-miterlimit="10" fill="none" stroke="#000" d="M269.0231 58.9938l-1.3457 3.5712 1.3457-1.1744 1.3458 1.1744z"/><use xlink:href="#a" transform="matrix(9.9626 0 0 -9.9626 266.4639 81.5376)"/><path d="M240.6761 47.9341h34.0161V33.228h-34.016z" fill="#fff"/><path stroke-width=".3985" stroke-miterlimit="10" fill="none" stroke="#000" d="M240.6761 47.9341h34.0161V33.228h-34.016z"/><use xlink:href="#g" transform="matrix(9.9626 0 0 -9.9626 253.7479 43.2286)"/><use xlink:href="#e" transform="matrix(6.9738 0 0 -6.9738 257.2267 44.6837)"/><use xlink:href="#f" transform="matrix(9.9626 0 0 -9.9626 282.7139 42.772)"/><path stroke-width=".3985" stroke-miterlimit="10" fill="none" stroke="#000" d="M322.8819 71.466V43.1192c0-2.8349 0-17.0083-11.3385-17.0083-11.339 0-11.339 14.1734-11.339 17.0083V71.466"/><path d="M300.2044 62.6744l1.3457-3.5712-1.3457 1.1744-1.3458-1.1744z"/><path stroke-width=".3985" stroke-miterlimit="10" fill="none" stroke="#000" d="M300.2044 62.6744l1.3457-3.5712-1.3457 1.1744-1.3458-1.1744z"/><use xlink:href="#a" transform="matrix(9.9626 0 0 -9.9626 320.3219 81.5376)"/></svg>