<svg xmlns="http://www.w3.org/2000/svg" xmlns:xlink="http://www.w3.org/1999/xlink" width="194.056" height="98.6587" viewBox="0 0 145.542 73.994"><path stroke-width=".3985" stroke-miterlimit="10" fill="none" stroke="#000" d="M48.893 13.1164v34.016c0 5.6694 0 22.6776-17.0078 22.6776-17.0082 0-17.0082-17.0082-17.0082-22.6775V13.1164"/><path d="M14.877 30.9555l-1.3457 3.5712 1.3457-1.1744 1.3457 1.1744z"/><path stroke-width=".3985" stroke-miterlimit="10" fill="none" stroke="#000" d="M14.877 30.9555l-1.3457 3.5712 1.3457-1.1744 1.3457 1.1744z"/><symbol id="a"><path d="M.305.313c.006.026.029.118.099.118.005 0 .029 0 .05-.013C.426.413.406.388.406.364c0-.016.011-.035.038-.035.022 0 .054.018.054.058 0 .052-.059.066-.093.066C.347.453.312.4.3.377.275.443.221.453.192.453.088.453.031.324.031.299c0-.01.01-.01.012-.01.008 0 .011.002.013.011.034.106.1.131.134.131.019 0 .054-.009.054-.067C.244.333.227.266.19.126.174.064.139.022.095.022c-.006 0-.029 0-.05.013C.07.04.092.061.092.089.092.116.07.124.055.124.025.124 0 .098 0 .066 0 .02.05 0 .094 0 .16 0 .196.07.199.076A.1104.1104 0 01.307 0c.103 0 .16.129.16.154 0 .01-.009.01-.012.01C.446.164.444.16.442.153.409.046.341.022.309.022.27.022.254.054.254.088c0 .022.006.044.017.088l.034.137z"/></symbol><use xlink:href="#a" transform="matrix(9.9626 0 0 -9.9626 37.625 9.2416)"/><symbol id="b"><path d="M.667.333a.3335.3335 0 01-.667 0 .3335.3335 0 01.667 0M.135.548C.133.55.126.557.126.559c0 .004.081.082.207.082C.368.641.46.636.542.559L.334.35.135.548M.106.124a.3104.3104 0 00-.081.209c0 .077.029.15.081.209L.315.333.106.124M.56.542A.3101.3101 0 00.642.333C.642.256.613.183.561.124L.352.333.56.542M.532.118C.534.116.541.109.541.107.541.103.46.025.334.025.299.025.207.03.125.107l.208.209.199-.198z"/></symbol><use xlink:href="#b" transform="matrix(9.9626 0 0 -9.9626 45.792 9.9589)"/><symbol id="c"><path d="M.457.586a.063.063 0 01.004.023c0 .018-.014.027-.029.027C.422.636.406.63.397.615A.758.758 0 01.383.561a1.8693 1.8693 0 01-.02-.08L.318.301C.314.286.271.216.205.216.154.216.143.26.143.297c0 .046.017.108.051.196.016.041.02.052.02.072C.214.61.182.647.132.647.037.647 0 .502 0 .493c0-.01.01-.01.012-.01.01 0 .011.002.016.018.027.094.067.124.101.124.008 0 .025 0 .025-.032 0-.025-.01-.051-.017-.07C.097.417.079.36.079.313c0-.089.063-.119.122-.119.039 0 .073.017.101.045C.289.187.277.138.237.085.211.051.173.022.127.022.113.022.068.025.051.064c.016 0 .029 0 .043.012.01.009.02.022.02.041 0 .031-.027.035-.037.035C.054.152.021.136.021.087.021.037.065 0 .127 0 .23 0 .333.091.361.204l.096.382z"/></symbol><use xlink:href="#c" transform="matrix(9.9626 0 0 -9.9626 55.496 11.1743)"/><use xlink:href="#a" transform="matrix(9.9626 0 0 -9.9626 3.61 9.2416)"/><use xlink:href="#b" transform="matrix(9.9626 0 0 -9.9626 11.776 9.9589)"/><use xlink:href="#c" transform="matrix(9.9626 0 0 -9.9626 21.48 11.1743)"/><symbol id="d"><path d="M.631.194c.015 0 .034 0 .034.02s-.019.02-.033.02H.033C.019.234 0 .234 0 .214s.019-.02.034-.02h.597M.632 0c.014 0 .033 0 .033.02S.646.04.631.04H.034C.019.04 0 .04 0 .02S.019 0 .033 0h.599z"/></symbol><use xlink:href="#d" transform="matrix(9.9626 0 0 -9.9626 65.418 40.548)"/><path stroke-width=".3985" stroke-miterlimit="10" fill="none" stroke="#000" d="M139.6028 13.1164v28.3468c0 5.6693 0 28.3468-25.512 28.3468s-25.512-22.6775-25.512-28.3468V13.1164m34.0161 0v28.3468c0 2.8349 0 11.3386-8.504 11.3386-8.5042 0-8.5042-8.5037-8.5042-11.3386V13.1164"/><path d="M88.5789 30.3827L87.233 33.954l1.3458-1.1743 1.3457 1.1743z"/><path stroke-width=".3985" stroke-miterlimit="10" fill="none" stroke="#000" d="M88.5789 30.3827L87.233 33.954l1.3458-1.1743 1.3457 1.1743z"/><path d="M105.5867 29.9975l-1.3457 3.5712 1.3457-1.1744 1.3457 1.1744z"/><path stroke-width=".3985" stroke-miterlimit="10" fill="none" stroke="#000" d="M105.5867 29.9975l-1.3457 3.5712 1.3457-1.1744 1.3457 1.1744z"/><path d="M88.5789 30.3827L87.233 33.954l1.3458-1.1743 1.3457 1.1743z"/><path stroke-width=".3985" stroke-miterlimit="10" fill="none" stroke="#000" d="M88.5789 30.3827L87.233 33.954l1.3458-1.1743 1.3457 1.1743z"/><path d="M105.5867 29.9975l-1.3457 3.5712 1.3457-1.1744 1.3457 1.1744z"/><path stroke-width=".3985" stroke-miterlimit="10" fill="none" stroke="#000" d="M105.5867 29.9975l-1.3457 3.5712 1.3457-1.1744 1.3457 1.1744z"/><use xlink:href="#c" transform="matrix(9.9626 0 0 -9.9626 137.2689 11.1743)"/><use xlink:href="#c" transform="matrix(9.9626 0 0 -9.9626 86.246 11.1743)"/><use xlink:href="#a" transform="matrix(9.9626 0 0 -9.9626 120.035 9.2416)"/><use xlink:href="#a" transform="matrix(9.9626 0 0 -9.9626 103.027 9.2416)"/></svg>