<svg xmlns="http://www.w3.org/2000/svg" xmlns:xlink="http://www.w3.org/1999/xlink" width="362.452" height="85.333pt" viewBox="0 0 271.839 85.333"><path stroke-width=".3985" stroke-miterlimit="10" fill="none" stroke="#000" d="M6.167 13.1168c0 34.0161 28.3468 34.0161 28.3468 68.0322"/><path d="M9.5333 31.0235l-.2116-3.8103-.7566 1.6178-1.7054-.5306z"/><path stroke-width=".3985" stroke-miterlimit="10" fill="none" stroke="#000" d="M9.5333 31.0235l-.2116-3.8103-.7566 1.6178-1.7054-.5306z"/><symbol id="a"><path d="M.305.313c.006.026.029.118.099.118.005 0 .029 0 .05-.013C.426.413.406.388.406.364c0-.016.011-.035.038-.035.022 0 .054.018.054.058 0 .052-.059.066-.093.066C.347.453.312.4.3.377.275.443.221.453.192.453.088.453.031.324.031.299c0-.01.01-.01.012-.01.008 0 .011.002.013.011.034.106.1.131.134.131.019 0 .054-.009.054-.067C.244.333.227.266.19.126.174.064.139.022.095.022c-.006 0-.029 0-.05.013C.07.04.092.061.092.089.092.116.07.124.055.124.025.124 0 .098 0 .066 0 .02.05 0 .094 0 .16 0 .196.07.199.076A.1104.1104 0 01.307 0c.103 0 .16.129.16.154 0 .01-.009.01-.012.01C.446.164.444.16.442.153.409.046.341.022.309.022.27.022.254.054.254.088c0 .022.006.044.017.088l.034.137z"/></symbol><use xlink:href="#a" transform="matrix(9.9626 0 0 -9.9626 3.609 9.2416)"/><path d="M22.333 47.133c0-1.1005-.8921-1.9926-1.9926-1.9926-1.1005 0-1.9926.892-1.9926 1.9925 0 1.1005.8921 1.9926 1.9926 1.9926 1.1005 0 1.9925-.8921 1.9925-1.9926zm-1.9926 0" fill="#fff"/><path stroke-width=".3985" stroke-miterlimit="10" fill="none" stroke="#fff" d="M22.333 47.133c0-1.1005-.8921-1.9926-1.9926-1.9926-1.1005 0-1.9926.892-1.9926 1.9925 0 1.1005.8921 1.9926 1.9926 1.9926 1.1005 0 1.9925-.8921 1.9925-1.9926zm-1.9926 0"/><path stroke-width=".3985" stroke-miterlimit="10" fill="none" stroke="#000" d="M34.5138 13.1168C34.5138 47.133 6.167 47.133 6.167 81.149"/><path d="M31.1474 31.0235l2.6736-2.7231-1.7054.5306-.7566-1.6178z"/><path stroke-width=".3985" stroke-miterlimit="10" fill="none" stroke="#000" d="M31.1474 31.0235l2.6736-2.7231-1.7054.5306-.7566-1.6178z"/><symbol id="b"><path d="M.457.586a.063.063 0 01.004.023c0 .018-.014.027-.029.027C.422.636.406.63.397.615A.758.758 0 01.383.561a1.8693 1.8693 0 01-.02-.08L.318.301C.314.286.271.216.205.216.154.216.143.26.143.297c0 .046.017.108.051.196.016.041.02.052.02.072C.214.61.182.647.132.647.037.647 0 .502 0 .493c0-.01.01-.01.012-.01.01 0 .011.002.016.018.027.094.067.124.101.124.008 0 .025 0 .025-.032 0-.025-.01-.051-.017-.07C.097.417.079.36.079.313c0-.089.063-.119.122-.119.039 0 .073.017.101.045C.289.187.277.138.237.085.211.051.173.022.127.022.113.022.068.025.051.064c.016 0 .029 0 .043.012.01.009.02.022.02.041 0 .031-.027.035-.037.035C.054.152.021.136.021.087.021.037.065 0 .127 0 .23 0 .333.091.361.204l.096.382z"/></symbol><use xlink:href="#b" transform="matrix(9.9626 0 0 -9.9626 23.558 11.1743)"/><symbol id="c"><path d="M.667.333a.3335.3335 0 01-.667 0 .3335.3335 0 01.667 0M.135.548C.133.55.126.557.126.559c0 .004.081.082.207.082C.368.641.46.636.542.559L.334.35.135.548M.106.124a.3104.3104 0 00-.081.209c0 .077.029.15.081.209L.315.333.106.124M.56.542A.3101.3101 0 00.642.333C.642.256.613.183.561.124L.352.333.56.542M.532.118C.534.116.541.109.541.107.541.103.46.025.334.025.299.025.207.03.125.107l.208.209.199-.198z"/></symbol><use xlink:href="#c" transform="matrix(9.9626 0 0 -9.9626 31.273 9.9589)"/><symbol id="d"><path d="M.09.094c.054.058.083.083.119.114 0 .001.062.054.098.09.095.093.117.141.117.145 0 .01-.009.01-.011.01C.406.453.403.451.398.442.368.394.347.378.323.378S.287.393.272.41C.253.433.236.453.203.453.128.453.082.36.082.339c0-.005.003-.011.012-.011.009 0 .011.005.013.011.019.046.077.047.085.047.021 0 .04-.007.063-.015C.295.356.306.356.332.356.296.313.212.241.193.225L.103.141C.035.074 0 .017 0 .01 0 0 .01 0 .012 0c.008 0 .01.002.016.013.023.035.053.062.085.062.023 0 .033-.009.058-.038C.188.016.206 0 .235 0c.099 0 .157.127.157.154 0 .005-.004.01-.012.01C.371.164.369.158.366.151.343.086.279.067.246.067.226.067.208.073.187.08.153.093.138.097.117.097.115.097.099.097.09.094z"/></symbol><use xlink:href="#d" transform="matrix(9.9626 0 0 -9.9626 41.1154 9.2416)"/><symbol id="e"><path d="M.631.194c.015 0 .034 0 .034.02s-.019.02-.033.02H.033C.019.234 0 .234 0 .214s.019-.02.034-.02h.597M.632 0c.014 0 .033 0 .033.02S.646.04.631.04H.034C.019.04 0 .04 0 .02S.019 0 .033 0h.599z"/></symbol><use xlink:href="#e" transform="matrix(9.9626 0 0 -9.9626 49.622 46.218)"/><path stroke-width=".3985" stroke-miterlimit="10" fill="none" stroke="#000" d="M74.1992 13.1168c0 17.0079 17.0082 17.0079 17.0082 34.0161 0 17.0079 17.0083 17.0079 17.0083 34.0161"/><path d="M91.2074 46.5678l1.3454-3.5712-1.3456 1.1744-1.3458-1.1742z"/><path stroke-width=".3985" stroke-miterlimit="10" fill="none" stroke="#000" d="M91.2074 46.5678l1.3454-3.5712-1.3456 1.1744-1.3458-1.1742z"/><use xlink:href="#a" transform="matrix(9.9626 0 0 -9.9626 71.641 9.2416)"/><path d="M84.6958 30.1247c0-1.1005-.892-1.9926-1.9925-1.9926-1.1005 0-1.9926.8921-1.9926 1.9926 0 1.1004.8921 1.9925 1.9926 1.9925 1.1005 0 1.9925-.892 1.9925-1.9925zm17.0083 34.016c0-1.1004-.892-1.9925-1.9926-1.9925-1.1004 0-1.9925.8921-1.9925 1.9926 0 1.1004.892 1.9925 1.9925 1.9925 1.1005 0 1.9926-.892 1.9926-1.9925zm-1.9926 0" fill="#fff"/><path stroke-width=".3985" stroke-miterlimit="10" fill="none" stroke="#fff" d="M84.6958 30.1247c0-1.1005-.892-1.9926-1.9925-1.9926-1.1005 0-1.9926.8921-1.9926 1.9926 0 1.1004.8921 1.9925 1.9926 1.9925 1.1005 0 1.9925-.892 1.9925-1.9925zm17.0083 34.016c0-1.1004-.892-1.9925-1.9926-1.9925-1.1004 0-1.9925.8921-1.9925 1.9926 0 1.1004.892 1.9925 1.9925 1.9925 1.1005 0 1.9926-.892 1.9926-1.9925zm-1.9926 0"/><path stroke-width=".3985" stroke-miterlimit="10" fill="none" stroke="#000" d="M91.2074 13.1168c0 17.0079-17.0082 17.0079-17.0082 34.0161V81.149"/><path d="M74.1992 46.854l1.3457-3.5712-1.3457 1.1744-1.3458-1.1744z"/><path stroke-width=".3985" stroke-miterlimit="10" fill="none" stroke="#000" d="M74.1992 46.854l1.3457-3.5712-1.3457 1.1744-1.3458-1.1744z"/><use xlink:href="#b" transform="matrix(9.9626 0 0 -9.9626 88.875 11.1743)"/><path stroke-width=".3985" stroke-miterlimit="10" fill="none" stroke="#000" d="M108.2157 13.1168V47.133c0 17.0079-17.0083 17.0079-17.0083 34.0161"/><path d="M108.2157 46.2768l1.3457-3.5712-1.3457 1.1744-1.3457-1.1744z"/><path stroke-width=".3985" stroke-miterlimit="10" fill="none" stroke="#000" d="M108.2157 46.2768l1.3457-3.5712-1.3457 1.1744-1.3457-1.1744z"/><use xlink:href="#d" transform="matrix(9.9626 0 0 -9.9626 106.1074 9.2416)"/><path stroke-width=".3985" stroke-miterlimit="10" fill="none" stroke="#000" d="M163.936 13.1168c0 34.0161 28.3468 34.0161 28.3468 68.0322"/><path d="M167.3023 31.0235l-.2116-3.8103-.7566 1.6178-1.7054-.5306z"/><path stroke-width=".3985" stroke-miterlimit="10" fill="none" stroke="#000" d="M167.3023 31.0235l-.2116-3.8103-.7566 1.6178-1.7054-.5306z"/><use xlink:href="#a" transform="matrix(9.9626 0 0 -9.9626 152.669 9.2416)"/><use xlink:href="#c" transform="matrix(9.9626 0 0 -9.9626 160.835 9.9589)"/><use xlink:href="#b" transform="matrix(9.9626 0 0 -9.9626 170.539 11.1743)"/><path d="M180.102 47.133c0-1.1005-.8921-1.9926-1.9926-1.9926-1.1005 0-1.9926.892-1.9926 1.9925 0 1.1005.8921 1.9926 1.9926 1.9926 1.1005 0 1.9925-.8921 1.9925-1.9926zm-1.9926 0" fill="#fff"/><path stroke-width=".3985" stroke-miterlimit="10" fill="none" stroke="#fff" d="M180.102 47.133c0-1.1005-.8921-1.9926-1.9926-1.9926-1.1005 0-1.9926.892-1.9926 1.9925 0 1.1005.8921 1.9926 1.9926 1.9926 1.1005 0 1.9925-.8921 1.9925-1.9926zm-1.9926 0"/><path stroke-width=".3985" stroke-miterlimit="10" fill="none" stroke="#000" d="M192.2828 13.1168c0 34.0161-28.3468 34.0161-28.3468 68.0322"/><path d="M188.9164 31.0235l2.6736-2.7231-1.7054.5306-.7566-1.6178z"/><path stroke-width=".3985" stroke-miterlimit="10" fill="none" stroke="#000" d="M188.9164 31.0235l2.6736-2.7231-1.7054.5306-.7566-1.6178z"/><use xlink:href="#d" transform="matrix(9.9626 0 0 -9.9626 190.1754 9.2416)"/><use xlink:href="#e" transform="matrix(9.9626 0 0 -9.9626 207.391 46.218)"/><path stroke-width=".3985" stroke-miterlimit="10" fill="none" stroke="#000" d="M231.9682 13.1168V47.133c0 17.0079 17.0082 17.0079 17.0082 34.0161"/><path d="M231.9682 46.2768l1.3457-3.5712-1.3457 1.1744-1.3458-1.1744z"/><path stroke-width=".3985" stroke-miterlimit="10" fill="none" stroke="#000" d="M231.9682 46.2768l1.3457-3.5712-1.3457 1.1744-1.3458-1.1744z"/><use xlink:href="#a" transform="matrix(9.9626 0 0 -9.9626 229.4089 9.2416)"/><path stroke-width=".3985" stroke-miterlimit="10" fill="none" stroke="#000" d="M248.9764 13.1168c0 17.0079 17.0083 17.0079 17.0083 34.0161V81.149"/><path d="M265.9847 46.854l1.3457-3.5712-1.3457 1.1744-1.3457-1.1744z"/><path stroke-width=".3985" stroke-miterlimit="10" fill="none" stroke="#000" d="M265.9847 46.854l1.3457-3.5712-1.3457 1.1744-1.3457-1.1744z"/><use xlink:href="#b" transform="matrix(9.9626 0 0 -9.9626 246.643 11.1743)"/><path d="M259.4731 30.1247c0-1.1005-.892-1.9926-1.9926-1.9926-1.1004 0-1.9925.8921-1.9925 1.9926 0 1.1004.892 1.9925 1.9925 1.9925 1.1005 0 1.9926-.892 1.9926-1.9925zm-17.0083 34.016c0-1.1004-.892-1.9925-1.9925-1.9925-1.1005 0-1.9926.8921-1.9926 1.9926 0 1.1004.8921 1.9925 1.9926 1.9925 1.1005 0 1.9925-.892 1.9925-1.9925zm-1.9925 0" fill="#fff"/><path stroke-width=".3985" stroke-miterlimit="10" fill="none" stroke="#fff" d="M259.4731 30.1247c0-1.1005-.892-1.9926-1.9926-1.9926-1.1004 0-1.9925.8921-1.9925 1.9926 0 1.1004.892 1.9925 1.9925 1.9925 1.1005 0 1.9926-.892 1.9926-1.9925zm-17.0083 34.016c0-1.1004-.892-1.9925-1.9925-1.9925-1.1005 0-1.9926.8921-1.9926 1.9926 0 1.1004.8921 1.9925 1.9926 1.9925 1.1005 0 1.9925-.892 1.9925-1.9925zm-1.9925 0"/><path stroke-width=".3985" stroke-miterlimit="10" fill="none" stroke="#000" d="M265.9847 13.1168c0 17.0079-17.0083 17.0079-17.0083 34.0161 0 17.0079-17.0082 17.0079-17.0082 34.0161"/><path d="M248.9764 46.5655l1.3457-3.5712-1.3457 1.1743-1.3457-1.1743z"/><path stroke-width=".3985" stroke-miterlimit="10" fill="none" stroke="#000" d="M248.9764 46.5655l1.3457-3.5712-1.3457 1.1743-1.3457-1.1743z"/><use xlink:href="#d" transform="matrix(9.9626 0 0 -9.9626 263.8764 9.2416)"/></svg>