<svg xmlns="http://www.w3.org/2000/svg" xmlns:xlink="http://www.w3.org/1999/xlink" width="134.036" height="80.89pt" viewBox="0 0 100.527 80.89"><path stroke-width=".399" stroke-miterlimit="10" fill="none" stroke="#000" d="M91.37 11.13v56.693"/><path d="M91.37 21.9l1.346-3.57-1.346 1.174-1.346-1.175z"/><path stroke-width=".399" stroke-miterlimit="10" fill="none" stroke="#000" d="M91.37 21.9l1.346-3.57-1.346 1.174-1.346-1.175z"/><path d="M91.37 61.586l1.346-3.571-1.346 1.174-1.346-1.174z"/><path stroke-width=".399" stroke-miterlimit="10" fill="none" stroke="#000" d="M91.37 61.586l1.346-3.571-1.346 1.174-1.346-1.174z"/><path d="M91.37 21.9l1.346-3.57-1.346 1.174-1.346-1.175z"/><path stroke-width=".399" stroke-miterlimit="10" fill="none" stroke="#000" d="M91.37 21.9l1.346-3.57-1.346 1.174-1.346-1.175z"/><path d="M91.37 61.586l1.346-3.571-1.346 1.174-1.346-1.174z"/><path stroke-width=".399" stroke-miterlimit="10" fill="none" stroke="#000" d="M91.37 61.586l1.346-3.571-1.346 1.174-1.346-1.174z"/><symbol id="a"><path d="M.305.313c.006.026.029.118.099.118.005 0 .029 0 .05-.013A.058.058 0 01.406.364c0-.016.011-.035.038-.035.022 0 .054.018.054.058 0 .052-.059.066-.093.066C.347.453.312.4.3.377a.11.11 0 01-.108.076C.088.453.031.324.031.299c0-.01.01-.01.012-.01.008 0 .011.002.013.011.034.106.1.131.134.131.019 0 .054-.009.054-.067C.244.333.227.266.19.126.174.064.139.022.095.022c-.006 0-.029 0-.05.013C.07.04.092.061.092.089.092.116.07.124.055.124A.057.057 0 010 .066C0 .02.05 0 .094 0 .16 0 .196.07.199.076A.11.11 0 01.307 0c.103 0 .16.129.16.154 0 .01-.009.01-.012.01C.446.164.444.16.442.153.409.046.341.022.309.022.27.022.254.054.254.088c0 .022.006.044.017.088l.034.137z"/></symbol><use xlink:href="#a" transform="matrix(9.9626 0 0 -9.9626 88.812 7.72)"/><symbol id="b"><path d="M.457.586a.063.063 0 01.004.023c0 .018-.014.027-.029.027A.043.043 0 01.397.615 1.87 1.87 0 01.363.481L.318.301C.314.286.271.216.205.216.154.216.143.26.143.297c0 .046.017.108.051.196.016.041.02.052.02.072a.08.08 0 01-.082.082C.037.647 0 .502 0 .493c0-.01.01-.01.012-.01.01 0 .011.002.016.018.027.094.067.124.101.124.008 0 .025 0 .025-.032 0-.025-.01-.051-.017-.07a.66.66 0 01-.058-.21c0-.089.063-.119.122-.119.039 0 .073.017.101.045C.289.187.277.138.237.085.211.051.173.022.127.022.113.022.068.025.051.064c.016 0 .029 0 .043.012.01.009.02.022.02.041 0 .031-.027.035-.037.035C.054.152.021.136.021.087.021.037.065 0 .127 0 .23 0 .333.091.361.204l.096.382z"/></symbol><use xlink:href="#b" transform="matrix(9.9626 0 0 -9.9626 89.038 77.674)"/><path d="M85.716 44.153h11.308v-12.84H85.716z" fill="#fff"/><path stroke-width=".399" stroke-miterlimit="10" fill="none" stroke="#000" d="M85.716 44.153h11.308v-12.84H85.716z"/><symbol id="c"><path d="M.334.599h.098c.02 0 .033 0 .033.022 0 .014-.013.014-.031.014H.341C.364.762.372.808.38.837.385.859.407.88.431.88.432.88.459.88.478.868A.06.06 0 01.434.813c0-.022.017-.037.04-.037a.06.06 0 01.057.061c0 .046-.049.071-.1.071a.139.139 0 01-.12-.075C.291.796.283.751.262.635H.183C.163.635.15.635.15.613.15.599.163.599.181.599h.074A18.16 18.16 0 00.167.126C.162.104.145.028.097.028c-.001 0-.025 0-.044.012a.06.06 0 01.044.055c0 .022-.017.037-.04.037A.06.06 0 010 .071C0 .026.047 0 .097 0c.064 0 .108.066.12.088A.85.85 0 01.278.29l.056.309z"/></symbol><use xlink:href="#c" transform="matrix(6.9738 0 0 -6.9738 89.546 40.9)"/><symbol id="d"><path d="M.314.605H.4c.02 0 .03 0 .03.02C.43.636.42.636.403.636H.32L.341.75a.953.953 0 00.024.104c.009.019.026.034.047.034.004 0 .03 0 .049-.018A.055.055 0 01.407.816c0-.023.018-.035.037-.035.026 0 .055.022.055.06C.499.887.453.91.412.91.378.91.315.892.285.793.279.772.276.762.252.636H.183c-.019 0-.03 0-.03-.019 0-.012.009-.012.028-.012h.066L.172.21C.154.113.137.022.085.022c-.004 0-.029 0-.048.018a.054.054 0 01.055.054c0 .023-.018.035-.037.035C.029.129 0 .107 0 .069 0 .024.044 0 .085 0 .14 0 .18.059.198.097a.894.894 0 01.056.191l.06.317z"/></symbol><use xlink:href="#d" transform="matrix(9.9626 0 0 -9.9626 3.848 41.52)"/><symbol id="e"><path d="M.106.378a.053.053 0 01-.053.053A.053.053 0 010 .378C0 .349.024.325.053.325c.029 0 .053.024.053.053m0-.325a.053.053 0 01-.053.053A.053.053 0 010 .053C0 .024.024 0 .053 0c.029 0 .053.024.053.053z"/></symbol><use xlink:href="#e" transform="matrix(9.9626 0 0 -9.9626 11.234 39.477)"/><use xlink:href="#a" transform="matrix(9.9626 0 0 -9.9626 16.755 39.587)"/><symbol id="f"><path d="M.779.241A.366.366 0 01.636.012C.636 0 .648 0 .656 0c.017 0 .018.002.022.02a.312.312 0 00.195.228c.012.004.015.006.015.013 0 .007-.006.01-.008.011a.311.311 0 00-.203.235C.674.519.673.522.656.522c-.008 0-.02 0-.02-.012A.36.36 0 01.779.281H.036C.018.281 0 .281 0 .261s.018-.02.036-.02h.743z"/></symbol><use xlink:href="#f" transform="matrix(9.9626 0 0 -9.9626 25.475 39.587)"/><use xlink:href="#b" transform="matrix(9.9626 0 0 -9.9626 37.946 41.52)"/><symbol id="g"><path d="M.631.194c.015 0 .034 0 .034.02s-.019.02-.033.02H.033C.019.234 0 .234 0 .214s.019-.02.034-.02h.597M.632 0c.014 0 .033 0 .033.02S.646.04.631.04H.034C.019.04 0 .04 0 .02S.019 0 .033 0h.599z"/></symbol><use xlink:href="#e" transform="matrix(9.9626 0 0 -9.9626 57.039 39.131)"/><use xlink:href="#g" transform="matrix(9.9626 0 0 -9.9626 58.844 38.152)"/></svg>