<svg xmlns="http://www.w3.org/2000/svg" xmlns:xlink="http://www.w3.org/1999/xlink" width="197.563" height="111.748" viewBox="0 0 148.172 83.811"><path stroke-width=".399" stroke-miterlimit="10" fill="none" stroke="#000" d="M6.167 11.595c0 17.008 22.678 17.008 22.678 34.016S6.167 62.619 6.167 79.627"/><path d="M8.966 20.712l-1.053-3.668-.378 1.746-1.78-.139z"/><path stroke-width=".399" stroke-miterlimit="10" fill="none" stroke="#000" d="M8.966 20.712l-1.053-3.668-.378 1.746-1.78-.139z"/><path d="M26.046 54.729l3.211-2.062-1.78.139-.379-1.746z"/><path stroke-width=".399" stroke-miterlimit="10" fill="none" stroke="#000" d="M26.046 54.729l3.211-2.062-1.78.139-.379-1.746z"/><path d="M8.966 20.712l-1.053-3.668-.378 1.746-1.78-.139z"/><path stroke-width=".399" stroke-miterlimit="10" fill="none" stroke="#000" d="M8.966 20.712l-1.053-3.668-.378 1.746-1.78-.139z"/><path d="M26.046 54.729l3.211-2.062-1.78.139-.379-1.746z"/><path stroke-width=".399" stroke-miterlimit="10" fill="none" stroke="#000" d="M26.046 54.729l3.211-2.062-1.78.139-.379-1.746z"/><symbol id="a"><path d="M.305.313c.006.026.029.118.099.118.005 0 .029 0 .05-.013A.058.058 0 01.406.364c0-.016.011-.035.038-.035.022 0 .054.018.054.058 0 .052-.059.066-.093.066C.347.453.312.4.3.377a.11.11 0 01-.108.076C.088.453.031.324.031.299c0-.01.01-.01.012-.01.008 0 .011.002.013.011.034.106.1.131.134.131.019 0 .054-.009.054-.067C.244.333.227.266.19.126.174.064.139.022.095.022c-.006 0-.029 0-.05.013C.07.04.092.061.092.089.092.116.07.124.055.124A.057.057 0 010 .066C0 .02.05 0 .094 0 .16 0 .196.07.199.076A.11.11 0 01.307 0c.103 0 .16.129.16.154 0 .01-.009.01-.012.01C.446.164.444.16.442.153.409.046.341.022.309.022.27.022.254.054.254.088c0 .022.006.044.017.088l.034.137z"/></symbol><use xlink:href="#a" transform="matrix(9.9626 0 0 -9.9626 3.609 7.72)"/><path d="M19.498 28.603a1.993 1.993 0 10-3.985 0 1.993 1.993 0 003.985 0zm0 34.016a1.993 1.993 0 10-3.985 0 1.993 1.993 0 003.985 0zm-1.992 0" fill="#fff"/><path stroke-width=".399" stroke-miterlimit="10" fill="none" stroke="#fff" d="M19.498 28.603a1.993 1.993 0 10-3.985 0 1.993 1.993 0 003.985 0zm0 34.016a1.993 1.993 0 10-3.985 0 1.993 1.993 0 003.985 0zm-1.992 0"/><path stroke-width=".399" stroke-miterlimit="10" fill="none" stroke="#000" d="M28.845 11.595c0 17.008-22.678 17.008-22.678 34.016s22.678 17.008 22.678 34.016"/><path d="M26.046 20.712l3.211-2.061-1.78.139-.379-1.746z"/><path stroke-width=".399" stroke-miterlimit="10" fill="none" stroke="#000" d="M26.046 20.712l3.211-2.061-1.78.139-.379-1.746z"/><path d="M8.966 54.729L7.913 51.06l-.378 1.746-1.78-.139z"/><path stroke-width=".399" stroke-miterlimit="10" fill="none" stroke="#000" d="M8.966 54.729L7.913 51.06l-.378 1.746-1.78-.139z"/><path d="M26.046 20.712l3.211-2.061-1.78.139-.379-1.746z"/><path stroke-width=".399" stroke-miterlimit="10" fill="none" stroke="#000" d="M26.046 20.712l3.211-2.061-1.78.139-.379-1.746z"/><path d="M8.966 54.729L7.913 51.06l-.378 1.746-1.78-.139z"/><path stroke-width=".399" stroke-miterlimit="10" fill="none" stroke="#000" d="M8.966 54.729L7.913 51.06l-.378 1.746-1.78-.139z"/><symbol id="b"><path d="M.457.586a.063.063 0 01.004.023c0 .018-.014.027-.029.027A.043.043 0 01.397.615 1.87 1.87 0 01.363.481L.318.301C.314.286.271.216.205.216.154.216.143.26.143.297c0 .046.017.108.051.196.016.041.02.052.02.072a.08.08 0 01-.082.082C.037.647 0 .502 0 .493c0-.01.01-.01.012-.01.01 0 .011.002.016.018.027.094.067.124.101.124.008 0 .025 0 .025-.032 0-.025-.01-.051-.017-.07a.66.66 0 01-.058-.21c0-.089.063-.119.122-.119.039 0 .073.017.101.045C.289.187.277.138.237.085.211.051.173.022.127.022.113.022.068.025.051.064c.016 0 .029 0 .043.012.01.009.02.022.02.041 0 .031-.027.035-.037.035C.054.152.021.136.021.087.021.037.065 0 .127 0 .23 0 .333.091.361.204l.096.382z"/></symbol><use xlink:href="#b" transform="matrix(9.9626 0 0 -9.9626 26.513 9.652)"/><symbol id="c"><path d="M.631.194c.015 0 .034 0 .034.02s-.019.02-.033.02H.033C.019.234 0 .234 0 .214s.019-.02.034-.02h.597M.632 0c.014 0 .033 0 .033.02S.646.04.631.04H.034C.019.04 0 .04 0 .02S.019 0 .033 0h.599z"/></symbol><use xlink:href="#c" transform="matrix(9.9626 0 0 -9.9626 42.536 44.696)"/><path stroke-width=".399" stroke-miterlimit="10" fill="none" stroke="#000" d="M85.538 11.595c0 17.008-22.677 17.008-22.677 34.016s22.677 17.008 22.677 34.016"/><path d="M82.74 20.712l3.21-2.061-1.78.139-.378-1.746z"/><path stroke-width=".399" stroke-miterlimit="10" fill="none" stroke="#000" d="M82.74 20.712l3.21-2.061-1.78.139-.378-1.746z"/><path d="M65.66 54.729l-1.053-3.669-.379 1.746-1.78-.139z"/><path stroke-width=".399" stroke-miterlimit="10" fill="none" stroke="#000" d="M65.66 54.729l-1.053-3.669-.379 1.746-1.78-.139z"/><path d="M82.74 20.712l3.21-2.061-1.78.139-.378-1.746z"/><path stroke-width=".399" stroke-miterlimit="10" fill="none" stroke="#000" d="M82.74 20.712l3.21-2.061-1.78.139-.378-1.746z"/><path d="M65.66 54.729l-1.053-3.669-.379 1.746-1.78-.139z"/><path stroke-width=".399" stroke-miterlimit="10" fill="none" stroke="#000" d="M65.66 54.729l-1.053-3.669-.379 1.746-1.78-.139z"/><use xlink:href="#b" transform="matrix(9.9626 0 0 -9.9626 83.206 9.652)"/><path d="M76.192 28.603a1.993 1.993 0 10-3.985 0 1.993 1.993 0 003.985 0zm0 34.016a1.993 1.993 0 10-3.985 0 1.993 1.993 0 003.985 0zm-1.993 0" fill="#fff"/><path stroke-width=".399" stroke-miterlimit="10" fill="none" stroke="#fff" d="M76.192 28.603a1.993 1.993 0 10-3.985 0 1.993 1.993 0 003.985 0zm0 34.016a1.993 1.993 0 10-3.985 0 1.993 1.993 0 003.985 0zm-1.993 0"/><path stroke-width=".399" stroke-miterlimit="10" fill="none" stroke="#000" d="M62.86 11.595c0 17.008 22.678 17.008 22.678 34.016S62.861 62.619 62.861 79.627"/><path d="M65.66 20.712l-1.053-3.668-.379 1.746-1.78-.139z"/><path stroke-width=".399" stroke-miterlimit="10" fill="none" stroke="#000" d="M65.66 20.712l-1.053-3.668-.379 1.746-1.78-.139z"/><path d="M82.74 54.729l3.21-2.062-1.78.139-.378-1.746z"/><path stroke-width=".399" stroke-miterlimit="10" fill="none" stroke="#000" d="M82.74 54.729l3.21-2.062-1.78.139-.378-1.746z"/><path d="M65.66 20.712l-1.053-3.668-.379 1.746-1.78-.139z"/><path stroke-width=".399" stroke-miterlimit="10" fill="none" stroke="#000" d="M65.66 20.712l-1.053-3.668-.379 1.746-1.78-.139z"/><path d="M82.74 54.729l3.21-2.062-1.78.139-.378-1.746z"/><path stroke-width=".399" stroke-miterlimit="10" fill="none" stroke="#000" d="M82.74 54.729l3.21-2.062-1.78.139-.378-1.746z"/><use xlink:href="#a" transform="matrix(9.9626 0 0 -9.9626 60.302 7.72)"/><use xlink:href="#c" transform="matrix(9.9626 0 0 -9.9626 99.229 44.696)"/><path stroke-width=".399" stroke-miterlimit="10" fill="none" stroke="#000" d="M119.554 11.595v68.032"/><path d="M119.554 45.043l1.346-3.57-1.346 1.174-1.345-1.175z"/><path stroke-width=".399" stroke-miterlimit="10" fill="none" stroke="#000" d="M119.554 45.043l1.346-3.57-1.346 1.174-1.345-1.175z"/><use xlink:href="#a" transform="matrix(9.9626 0 0 -9.9626 116.995 7.72)"/><path stroke-width=".399" stroke-miterlimit="10" fill="none" stroke="#000" d="M142.232 11.595v68.032"/><path d="M142.232 45.043l1.345-3.57-1.345 1.174-1.346-1.175z"/><path stroke-width=".399" stroke-miterlimit="10" fill="none" stroke="#000" d="M142.232 45.043l1.345-3.57-1.345 1.174-1.346-1.175z"/><use xlink:href="#b" transform="matrix(9.9626 0 0 -9.9626 139.898 9.652)"/></svg>