<svg xmlns="http://www.w3.org/2000/svg" width="265.297" height="46.129" viewBox="0 -34.597 198.973 34.597"><path d="M11.436-21.13c.03-.269-.02-.269-.269-.269H6.286c-.2 0-.299 0-.299.2 0 .11.09.11.28.11.368 0 .647 0 .647.178 0 .04 0 .06-.05.24l-1.315 5.27c-.1.388-.12.467-.907.467-.169 0-.279 0-.279.19 0 .119.12.119.15.119l1.315-.03 1.484.03c.09 0 .21 0 .21-.19a.12.12 0 00-.06-.109c-.03-.01-.05-.01-.28-.01-.219 0-.268 0-.517-.02-.29-.03-.32-.07-.32-.199 0 0 0-.08.04-.23l.618-2.48h.966c.748 0 .827.16.827.449 0 .07 0 .189-.07.488-.02.05-.03.11-.03.11 0 .08.06.12.12.12.1 0 .1-.03.15-.21l.547-2.162c.03-.11.03-.13.03-.16 0 0-.02-.109-.12-.109-.099 0-.109.05-.149.21-.209.776-.438.956-1.285.956h-.906l.637-2.53c.09-.349.1-.389.538-.389h1.315c1.225 0 1.454.329 1.454 1.096 0 .229 0 .269-.03.538-.02.13-.02.15-.02.18 0 .049.03.119.12.119.11 0 .12-.06.14-.25l.199-1.723zm3.594 8.876c0-.03-.02-.06-.04-.08-1.036-.777-1.724-2.77-1.724-4.363v-.837c0-1.594.688-3.586 1.723-4.363.02-.02.04-.05.04-.08 0-.05-.05-.099-.1-.099-.02 0-.039.01-.059.02-1.096.827-2.142 2.819-2.142 4.522v.837c0 1.704 1.046 3.696 2.142 4.522.02.01.04.02.06.02.05 0 .1-.05.1-.1zm5.817-6.116c0-.518-.587-.658-.926-.658-.578 0-.926.528-1.046.757-.25-.657-.787-.757-1.076-.757-1.036 0-1.604 1.285-1.604 1.534 0 .1.12.1.12.1.08 0 .11-.02.13-.11.338-1.056.995-1.305 1.334-1.305.19 0 .538.09.538.668 0 .308-.17.976-.538 2.37-.16.618-.508 1.036-.946 1.036-.06 0-.289 0-.498-.13.249-.049.468-.258.468-.537 0-.269-.219-.349-.368-.349-.3 0-.548.26-.548.578 0 .458.498.658.936.658.657 0 1.016-.698 1.046-.758a1.1 1.1 0 001.076.758c1.026 0 1.593-1.285 1.593-1.534 0-.1-.089-.1-.119-.1-.09 0-.11.04-.13.11-.328 1.065-1.006 1.304-1.324 1.304-.389 0-.548-.318-.548-.657 0-.22.06-.438.17-.877l.338-1.364c.06-.26.289-1.176.986-1.176.05 0 .289 0 .498.13-.279.05-.478.299-.478.538 0 .16.11.348.378.348.22 0 .538-.179.538-.577zm2.362-.02a.532.532 0 00-.528-.528c-.29 0-.528.239-.528.528s.239.527.528.527a.531.531 0 00.528-.527zm.03 3.735c0-.289-.02-1.026-.558-1.026-.349 0-.528.27-.528.528 0 .259.17.528.528.528.05 0 .08-.01.08-.01a.5.5 0 00.259-.1c0 .28 0 1.056-.638 1.793-.07.08-.07.1-.07.13 0 .07.05.11.1.11.11 0 .827-.797.827-1.953zm9.839-1.395c0-.1-.09-.1-.12-.1-.1 0-.11.04-.14.18-.169.648-.348 1.235-.756 1.235-.27 0-.3-.258-.3-.458 0-.219.12-.687.2-1.036l.279-1.076c.03-.15.13-.527.17-.677.05-.229.148-.608.148-.667 0-.18-.139-.27-.288-.27-.05 0-.31.01-.389.35l-.468 1.862-.259 1.016c-.01.05-.488.956-1.295.956-.498 0-.737-.328-.737-.866 0-.289.07-.568.14-.847l.418-1.673c.05-.21.15-.588.15-.638 0-.17-.12-.269-.29-.269-.03 0-.308.01-.398.359l-1.434 5.767c-.03.12-.03.16-.03.16 0 .15.11.269.279.269.209 0 .328-.18.348-.21.04-.09.17-.607.548-2.141.319.269.767.309.966.309.698 0 1.086-.449 1.325-.727a.89.89 0 00.897.727c.348 0 .577-.23.737-.548.17-.359.299-.986.299-.986zm2.331 1.415c0-.658-.249-1.046-.637-1.046a.513.513 0 00-.528.528c0 .269.2.528.528.528.12 0 .249-.04.348-.13.03-.02.05-.03.05-.03s.02.01.02.15c0 .737-.348 1.335-.677 1.663-.11.11-.11.13-.11.16 0 .07.05.11.1.11.11 0 .906-.767.906-1.933zm9.71-4.045c0-.238-.21-.238-.389-.238h-2.27c-1.505 0-2.61 1.643-2.61 2.829 0 .876.587 1.574 1.494 1.574 1.175 0 2.5-1.206 2.5-2.74 0-.17 0-.647-.31-1.086h1.097c.13 0 .488 0 .488-.338zm-1.913 1.306c0 .468-.199 1.285-.538 1.793-.388.588-.926.846-1.314.846-.489 0-.887-.358-.887-1.075 0-.3.12-1.116.468-1.704.419-.687 1.016-.827 1.355-.827.836 0 .916.658.916.967zm5.06.677v-.837c0-1.703-1.046-3.695-2.142-4.522a.142.142 0 00-.06-.02c-.05 0-.099.05-.099.1 0 .03.02.06.04.08 1.036.776 1.723 2.768 1.723 4.362v.837c0 1.594-.687 3.586-1.723 4.363-.02.02-.04.05-.04.08 0 .05.05.1.1.1.02 0 .04-.01.06-.02 1.095-.827 2.141-2.82 2.141-4.523zm10.968-1.385a.2.2 0 00-.2-.199H52.8a.2.2 0 000 .399h6.236a.2.2 0 00.199-.2zm0 1.933a.2.2 0 00-.2-.2H52.8a.2.2 0 000 .4h6.236a.2.2 0 00.199-.2zm18.545-5.22v-.309h-.319c-.897 0-.926-.11-.926-.478v-5.588c0-.24 0-.259-.23-.259-.617.637-1.494.637-1.812.637v.31c.199 0 .786 0 1.305-.26v5.16c0 .359-.03.478-.927.478h-.319v.309c.349-.03 1.216-.03 1.614-.03s1.265 0 1.614.03z"/><path d="M63.773-17.117h24.649" stroke="#000" fill="none" stroke-width=".398" stroke-miterlimit="10"/><path d="M69.42-10.684c0-.24-.21-.24-.389-.24h-2.27c-1.505 0-2.61 1.644-2.61 2.83 0 .876.587 1.574 1.494 1.574 1.175 0 2.5-1.206 2.5-2.74 0-.169 0-.647-.309-1.086h1.096c.13 0 .488 0 .488-.338zm-1.913 1.305c0 .468-.199 1.285-.537 1.793-.389.588-.927.846-1.315.846-.488 0-.887-.358-.887-1.075 0-.3.12-1.116.468-1.704.419-.687 1.016-.827 1.355-.827.837 0 .916.658.916.967zm10.45-5.744c0-.11-.08-.2-.2-.2-.119 0-.149.07-.209.19l-4.213 8.726-1.773-3.905c-.04-.08-.06-.14-.13-.14-.03 0-.05 0-.14.08l-.985.747c-.11.09-.12.1-.12.14 0 .07.04.11.1.11.03 0 .05 0 .14-.08l.517-.389 1.973 4.333c.06.14.08.15.189.15.16 0 .179-.04.249-.19l4.542-9.403c.05-.11.06-.12.06-.17z"/><path d="M77.758-15.121h10.66" stroke="#000" fill="none" stroke-width=".398" stroke-miterlimit="10"/><path d="M82.231-8.363h-.249c-.05.299-.119.737-.219.886-.07.08-.727.08-.946.08h-1.793l1.056-1.026c1.554-1.375 2.151-1.913 2.151-2.909 0-1.135-.896-1.932-2.111-1.932a1.84 1.84 0 00-1.863 1.803c0 .558.498.558.528.558.17 0 .518-.12.518-.528 0-.26-.18-.518-.528-.518-.08 0-.1 0-.13.01.23-.648.767-1.016 1.345-1.016.907 0 1.335.807 1.335 1.623 0 .797-.498 1.584-1.046 2.202l-1.913 2.132c-.109.109-.109.129-.109.368h3.696l.278-1.733zm6.157-2.321c0-.24-.209-.24-.398-.24h-3.337c-.22 0-.598 0-1.036.469-.349.388-.608.847-.608.896 0 0 0 .1.12.1.08 0 .1-.04.159-.12.488-.767 1.066-.767 1.265-.767h.568c-.319 1.206-.857 2.411-1.275 3.318-.08.149-.08.169-.08.239 0 .189.16.269.29.269.298 0 .378-.28.497-.648.14-.458.14-.478.27-.976l.557-2.202h1.126c-.33 1.475-.419 1.903-.419 2.57 0 .15 0 .419.08.758.1.438.21.498.359.498.199 0 .408-.18.408-.379 0-.06 0-.08-.06-.22-.289-.716-.289-1.364-.289-1.643a7.7 7.7 0 01.18-1.584H87.9c.13 0 .488 0 .488-.338zm12.28-16.572c0-.538-.537-.926-1.085-.926-.757 0-1.315 1.085-1.863 3.118-.03.11-1.385 5.11-2.48 11.624-.26 1.524-.548 3.188-.877 4.572-.18.728-.638 2.6-1.444 2.6-.359 0-.608-.229-.608-.229.319-.02.488-.239.488-.488a.467.467 0 00-.478-.488c-.24 0-.488.15-.488.498 0 .508.498.927 1.105.927 1.514 0 2.082-2.331 2.79-5.22a134.432 134.432 0 001.952-9.523c.369-2.122.737-4.114 1.076-5.399.12-.488.458-1.773.846-1.773.31 0 .558.19.598.229-.328.02-.498.239-.498.488 0 .329.25.488.478.488.24 0 .488-.15.488-.498zm4.627-1.004c0-.392-.447-.51-.726-.51-.349 0-.628.23-.781.495-.126-.286-.447-.495-.837-.495-.781 0-1.228.858-1.228 1.067 0 .09.098.09.119.09.09 0 .098-.027.132-.118.175-.544.614-.844.956-.844.23 0 .418.126.418.46 0 .14-.083.489-.146.726l-.237.956c-.07.237-.3.613-.656.613-.02 0-.23 0-.377-.097a.416.416 0 00.307-.384c0-.153-.118-.258-.279-.258a.413.413 0 00-.397.426c0 .348.39.509.732.509.321 0 .607-.203.781-.496.168.37.551.496.83.496.803 0 1.228-.872 1.228-1.068 0-.09-.09-.09-.112-.09-.097 0-.104.035-.132.119-.147.48-.565.843-.956.843-.279 0-.425-.188-.425-.453 0-.181.167-.816.362-1.59.14-.537.454-.712.684-.712 0 0 .23 0 .377.098a.411.411 0 00-.307.384c0 .153.118.258.279.258.16 0 .39-.133.39-.426zm-4.919 22.461a.14.14 0 00-.14-.14H95.87a.14.14 0 000 .28h4.367a.14.14 0 00.139-.14zm7.783.237c0-.816-.6-1.569-1.465-1.569-.997 0-1.618.795-1.904 1.165-.342-.419-.955-1.165-1.988-1.165-.879 0-1.492.74-1.492 1.576 0 .817.6 1.57 1.464 1.57.998 0 1.618-.795 1.905-1.165.341.418.955 1.165 1.988 1.165.878 0 1.492-.74 1.492-1.577zm-.195 0c0 .698-.572 1.193-1.179 1.193-.656 0-1.116-.558-1.765-1.34.426-.676 1.047-1.157 1.73-1.157.718 0 1.214.628 1.214 1.304zm-3.516.154c-.425.676-1.046 1.158-1.73 1.158-.718 0-1.213-.628-1.213-1.305 0-.697.572-1.192 1.179-1.192.655 0 1.116.558 1.764 1.339zM115.06-15.81c0-.1-.079-.12-.129-.12-.09 0-.11.06-.129.14-.349 1.026-1.245 1.026-1.345 1.026-.498 0-.896-.3-1.125-.668-.3-.478-.3-1.135-.3-1.494h2.78c.219 0 .249 0 .249-.21 0-.985-.538-1.951-1.783-1.951-1.156 0-2.072 1.025-2.072 2.27 0 1.335 1.046 2.302 2.191 2.302 1.216 0 1.664-1.106 1.664-1.295zm-.656-1.325h-2.361c.06-1.484.896-1.733 1.235-1.733 1.026 0 1.126 1.344 1.126 1.733zm6.086 2.51v-.309c-.537 0-.717-.02-.946-.309l-1.335-1.723c.3-.378.678-.866.917-1.126.308-.358.717-.507 1.185-.517v-.31c-.26.02-.558.03-.817.03a19.6 19.6 0 01-.956-.03v.31c.21.02.289.149.289.308 0 .16-.1.29-.15.349l-.617.777-.777-1.006c-.09-.1-.09-.12-.09-.18 0-.149.15-.238.349-.248v-.31l-1.076.03c-.21 0-.677-.01-.946-.03v.31c.697 0 .707.01 1.175.607l.986 1.285c-.468.598-.468.618-.936 1.185a1.594 1.594 0 01-1.275.598v.309c.259-.02.568-.03.827-.03l.946.03v-.309c-.22-.03-.289-.16-.289-.309 0-.219.289-.547.897-1.265l.757.996c.08.11.209.27.209.33 0 .089-.09.238-.359.248v.309l1.076-.03c.27 0 .658.01.956.03zm5.31-2.152c0-1.265-.966-2.25-2.082-2.25-.776 0-1.195.437-1.394.657v-.658l-1.434.11v.309c.707 0 .776.06.776.497v4.662c0 .449-.11.449-.776.449v.308l1.115-.03 1.126.03V-13c-.668 0-.777 0-.777-.449v-1.764c.05.16.468.698 1.225.698 1.185 0 2.221-.977 2.221-2.262zm-.826 0c0 1.206-.698 2.042-1.435 2.042-.398 0-.777-.199-1.046-.607-.14-.21-.14-.22-.14-.419v-2.22c.29-.509.778-.798 1.286-.798.727 0 1.335.877 1.335 2.002zM132.88-5.45a.29.29 0 00-.289-.29h-1.882v-22.75h1.882a.29.29 0 000-.579h-2.46v23.907h2.46c.16 0 .29-.13.29-.289zm7.382-11.665a.2.2 0 00-.199-.2h-6.236a.2.2 0 000 .4h6.236a.2.2 0 00.2-.2zm5.062-1.883c0-.03-.02-.06-.04-.08-1.036-.777-1.723-2.77-1.723-4.363v-.837c0-1.593.687-3.586 1.723-4.363.02-.02.04-.05.04-.08 0-.05-.05-.099-.1-.099-.02 0-.04.01-.06.02-1.095.827-2.141 2.819-2.141 4.522v.837c0 1.704 1.046 3.696 2.142 4.522.02.01.04.02.06.02.05 0 .1-.05.1-.1zm3.856-6.555c0-.11-.1-.11-.28-.11h-.876c.359-1.414.408-1.613.408-1.673 0-.17-.119-.269-.288-.269-.03 0-.31.01-.399.359l-.388 1.584h-.937c-.199 0-.299 0-.299.189 0 .12.08.12.28.12h.876c-.717 2.828-.757 2.998-.757 3.177 0 .538.378.917.916.917 1.016 0 1.584-1.455 1.584-1.534 0-.1-.08-.1-.12-.1-.089 0-.099.03-.149.14-.428 1.035-.956 1.274-1.295 1.274-.209 0-.309-.129-.309-.458 0-.239.02-.309.06-.478l.737-2.938h.937c.199 0 .299 0 .299-.2zm9.71 1.693a.2.2 0 00-.2-.198h-6.235a.2.2 0 000 .398h6.235a.2.2 0 00.2-.2zm8.467 1.067c0-.1-.09-.1-.12-.1-.1 0-.11.04-.14.18-.168.647-.347 1.234-.756 1.234-.269 0-.299-.258-.299-.458 0-.219.12-.687.2-1.036l.278-1.076c.03-.149.13-.527.17-.677.05-.229.149-.608.149-.667 0-.18-.14-.27-.289-.27-.05 0-.309.01-.388.35l-.469 1.862-.258 1.016c-.01.05-.489.956-1.296.956-.498 0-.737-.328-.737-.866 0-.289.07-.568.14-.847l.418-1.673c.05-.21.15-.588.15-.638 0-.17-.12-.269-.29-.269-.03 0-.308.01-.398.359l-1.434 5.767c-.03.12-.03.16-.03.16 0 .15.11.269.279.269.209 0 .329-.18.348-.21.04-.09.17-.607.548-2.141.32.269.767.309.967.309.697 0 1.085-.449 1.325-.727.09.448.458.727.896.727.349 0 .578-.23.737-.548.17-.359.299-.986.299-.986zm3.178-.648v-.837c0-1.703-1.046-3.695-2.141-4.522-.02-.01-.04-.02-.06-.02-.05 0-.1.05-.1.1 0 .03.02.06.04.08 1.036.776 1.724 2.769 1.724 4.362v.837c0 1.594-.688 3.586-1.724 4.363-.02.02-.04.05-.04.08 0 .05.05.1.1.1.02 0 .04-.01.06-.02 1.095-.827 2.141-2.82 2.141-4.523zm4.538-2.813h-.238c-.02.153-.09.565-.181.634-.056.042-.593.042-.69.042h-1.284c.732-.649.977-.844 1.395-1.172.516-.411.998-.844.998-1.506 0-.844-.74-1.36-1.633-1.36-.865 0-1.45.606-1.45 1.248 0 .356.3.39.37.39.167 0 .369-.118.369-.369 0-.125-.049-.37-.412-.37.216-.495.69-.648 1.019-.648.697 0 1.06.544 1.06 1.109 0 .607-.433 1.088-.656 1.339l-1.68 1.66c-.07.063-.07.077-.07.272h2.873l.21-1.27z"/><path d="M142.016-17.117h34.058" stroke="#000" fill="none" stroke-width=".398" stroke-miterlimit="10"/><path d="M155.801-9.525h-.249c-.05.299-.119.737-.219.886-.07.08-.727.08-.946.08h-1.793l1.056-1.026c1.554-1.375 2.151-1.913 2.151-2.909 0-1.135-.896-1.932-2.111-1.932a1.84 1.84 0 00-1.863 1.803c0 .558.498.558.528.558.17 0 .518-.12.518-.528 0-.26-.18-.518-.528-.518-.08 0-.1 0-.13.01.23-.648.767-1.016 1.345-1.016.907 0 1.335.807 1.335 1.623 0 .797-.498 1.584-1.046 2.202l-1.913 2.132c-.109.109-.109.129-.109.368h3.696l.278-1.733zm6.157-2.321c0-.24-.209-.24-.388-.24h-2.271c-1.504 0-2.61 1.644-2.61 2.83 0 .876.587 1.574 1.494 1.574 1.175 0 2.5-1.206 2.5-2.74 0-.17 0-.647-.309-1.086h1.096c.13 0 .488 0 .488-.338zm-1.912 1.305c0 .468-.2 1.285-.538 1.793-.389.588-.927.846-1.315.846-.488 0-.887-.358-.887-1.075 0-.3.12-1.116.469-1.704.418-.687 1.016-.827 1.354-.827.837 0 .917.658.917.967zm5.714-1.399h-.237c-.02.154-.09.566-.181.635-.056.042-.593.042-.69.042h-1.284a24.34 24.34 0 011.395-1.172c.516-.411.998-.844.998-1.506 0-.844-.74-1.36-1.633-1.36-.865 0-1.45.606-1.45 1.248 0 .356.3.39.37.39.167 0 .369-.118.369-.369 0-.126-.049-.37-.412-.37.216-.495.69-.648 1.019-.648.697 0 1.06.544 1.06 1.109 0 .607-.433 1.088-.656 1.339l-1.68 1.66c-.07.063-.07.077-.07.272h2.873l.21-1.27zm14.45-17.129h-2.46a.289.289 0 000 .578h1.882V-5.74h-1.883a.29.29 0 000 .578h2.46v-23.907zm10.892 14.444v-.309c-.698 0-.778-.07-.778-.558v-6.046l-1.434.11v.308c.697 0 .777.07.777.558v2.152a1.59 1.59 0 00-1.255-.618c-1.175 0-2.221.976-2.221 2.261 0 1.265.976 2.252 2.111 2.252.638 0 1.086-.34 1.335-.658v.658l1.465-.11zm-1.465-1.175c0 .179 0 .199-.11.368-.298.478-.746.697-1.175.697-.448 0-.807-.258-1.046-.637-.259-.409-.289-.976-.289-1.385 0-.368.02-.966.31-1.414.208-.309.587-.638 1.125-.638.348 0 .767.15 1.076.598.11.17.11.19.11.368v2.043zm5.041-3.009c0-.11-.1-.11-.279-.11h-.876c.358-1.414.408-1.613.408-1.673 0-.17-.12-.269-.289-.269-.03 0-.309.01-.398.359l-.389 1.584h-.936c-.2 0-.299 0-.299.189 0 .12.08.12.28.12h.876c-.718 2.828-.758 2.998-.758 3.177 0 .538.379.917.917.917 1.016 0 1.584-1.455 1.584-1.534 0-.1-.08-.1-.12-.1-.09 0-.1.03-.15.14-.427 1.035-.956 1.274-1.294 1.274-.21 0-.309-.13-.309-.458 0-.239.02-.309.06-.478l.737-2.938h.936c.2 0 .3 0 .3-.2z"/></svg>