<svg xmlns="http://www.w3.org/2000/svg" xmlns:xlink="http://www.w3.org/1999/xlink" width="375.48" height="65.24pt" viewBox="0 0 281.61 65.24"><path d="M34.9311 22.41c0-3.1128-2.5233-5.6362-5.6361-5.6362s-5.6362 2.5234-5.6362 5.6362c0 3.1128 2.5234 5.6362 5.6362 5.6362 3.1128 0 5.6361-2.5234 5.6361-5.6362zm-5.6361 0" fill="#f44336"/><path stroke-width=".797" stroke-miterlimit="10" fill="none" stroke="#000" d="M34.9311 22.41c0-3.1128-2.5233-5.6362-5.6361-5.6362s-5.6362 2.5234-5.6362 5.6362c0 3.1128 2.5234 5.6362 5.6362 5.6362 3.1128 0 5.6361-2.5234 5.6361-5.6362zm-5.6361 0"/><path d="M63.278 22.41c0-3.1128-2.5234-5.6362-5.6362-5.6362-3.1128 0-5.6362 2.5234-5.6362 5.6362 0 3.1128 2.5234 5.6362 5.6362 5.6362 3.1128 0 5.6362-2.5234 5.6362-5.6362zm-5.6362 0" fill="#4caf50"/><path stroke-width=".797" stroke-miterlimit="10" fill="none" stroke="#000" d="M63.278 22.41c0-3.1128-2.5234-5.6362-5.6362-5.6362-3.1128 0-5.6362 2.5234-5.6362 5.6362 0 3.1128 2.5234 5.6362 5.6362 5.6362 3.1128 0 5.6362-2.5234 5.6362-5.6362zm-5.6362 0"/><symbol id="a"><path d="M.333.389C.315.426.286.453.241.453.124.453 0 .306 0 .16 0 .066.055 0 .133 0c.02 0 .07.004.13.075A.091.091 0 0 1 .354 0c.035 0 .058.023.074.055.017.036.03.097.03.099 0 .01-.009.01-.012.01C.436.164.435.16.432.146.415.081.397.022.356.022c-.027 0-.03.026-.03.046 0 .022.002.03.013.074.011.042.013.052.022.09l.036.14C.404.4.404.402.404.406c0 .017-.012.027-.029.027C.351.433.336.411.333.389M.268.13C.263.112.263.11.248.093.204.038.163.022.135.022c-.05 0-.064.055-.064.094 0 .05.032.173.055.219.031.059.076.096.116.096.065 0 .079-.082.079-.088C.321.337.319.331.318.326L.268.13z"/></symbol><use xlink:href="#a" transform="matrix(9.9626 0 0 -9.9626 4.3825 10.4906)"/><symbol id="b"><path d="M.192.694c0 .001 0 .011-.013.011C.156.705.083.697.057.695.049.694.038.693.038.675c0-.012.009-.012.024-.012.048 0 .05-.007.05-.017C.112.639.103.605.098.584L.016.258C.004.208 0 .192 0 .157 0 .062.053 0 .127 0c.118 0 .241.149.241.293 0 .091-.053.16-.133.16C.189.453.148.424.118.393l.074.301M.098.316C.104.338.104.34.113.351c.049.065.094.08.12.08.036 0 .063-.03.063-.094C.296.278.263.163.245.125.212.058.166.022.127.022.093.022.06.049.06.123c0 .019 0 .038.016.101l.022.092z"/></symbol><use xlink:href="#b" transform="matrix(9.9626 0 0 -9.9626 4.9482 40.1526)"/><symbol id="c"><path d="M.355.391c-.016 0-.03 0-.044-.014A.0541.0541 0 0 1 .293.338C.293.314.311.303.33.303c.029 0 .056.024.056.064 0 .049-.047.086-.118.086C.133.453 0 .31 0 .169 0 .079.058 0 .162 0c.143 0 .227.106.227.118 0 .006-.006.013-.012.013C.372.131.37.129.364.121.285.022.176.022.164.022c-.063 0-.09.049-.09.109 0 .041.02.138.054.2.031.057.086.1.141.1.034 0 .072-.013.086-.04z"/></symbol><use xlink:href="#c" transform="matrix(9.9626 0 0 -9.9626 78.5725 24.6646)"/><path d="M148.3184 22.41c0-3.1128-2.5234-5.6362-5.6362-5.6362-3.1128 0-5.6361 2.5234-5.6361 5.6362 0 3.1128 2.5233 5.6362 5.6361 5.6362s5.6362-2.5234 5.6362-5.6362zm-5.6362 0" fill="#f44336"/><path stroke-width=".797" stroke-miterlimit="10" fill="none" stroke="#000" d="M148.3184 22.41c0-3.1128-2.5234-5.6362-5.6362-5.6362-3.1128 0-5.6361 2.5234-5.6361 5.6362 0 3.1128 2.5233 5.6362 5.6361 5.6362s5.6362-2.5234 5.6362-5.6362zm-5.6362 0"/><path d="M176.6652 22.41c0-3.1128-2.5234-5.6362-5.6362-5.6362-3.1128 0-5.6361 2.5234-5.6361 5.6362 0 3.1128 2.5233 5.6362 5.6361 5.6362s5.6362-2.5234 5.6362-5.6362zm-5.6362 0" fill="#4caf50"/><path stroke-width=".797" stroke-miterlimit="10" fill="none" stroke="#000" d="M176.6652 22.41c0-3.1128-2.5234-5.6362-5.6362-5.6362-3.1128 0-5.6361 2.5234-5.6361 5.6362 0 3.1128 2.5233 5.6362 5.6361 5.6362s5.6362-2.5234 5.6362-5.6362zm-5.6362 0"/><use xlink:href="#a" transform="matrix(9.9626 0 0 -9.9626 117.7705 10.4906)"/><use xlink:href="#b" transform="matrix(9.9626 0 0 -9.9626 118.3352 40.1526)"/><use xlink:href="#c" transform="matrix(9.9626 0 0 -9.9626 191.9595 24.6646)"/><path d="M261.7056 22.41c0-3.1128-2.5233-5.6362-5.6361-5.6362s-5.6362 2.5234-5.6362 5.6362c0 3.1128 2.5234 5.6362 5.6362 5.6362 3.1128 0 5.6361-2.5234 5.6361-5.6362zm-5.6361 0" fill="#2196f3"/><path stroke-width=".797" stroke-miterlimit="10" fill="none" stroke="#000" d="M261.7056 22.41c0-3.1128-2.5233-5.6362-5.6361-5.6362s-5.6362 2.5234-5.6362 5.6362c0 3.1128 2.5234 5.6362 5.6362 5.6362 3.1128 0 5.6361-2.5234 5.6361-5.6362zm-5.6361 0"/><symbol id="d"><path d="M.144.115C.104.048.065.034.021.031.009.03 0 .03 0 .011 0 .005.005 0 .013 0 .04 0 .071.003.099.003.132.003.167 0 .199 0c.006 0 .019 0 .019.019C.218.03.209.031.202.031.179.033.155.041.155.066c0 .012.006.023.014.037l.076.128h.251C.498.21.512.074.512.064.512.034.46.031.44.031c-.014 0-.024 0-.024-.02C.416 0 .428 0 .43 0c.041 0 .084.003.125.003C.58.003.643 0 .668 0c.006 0 .018 0 .018.02 0 .011-.01.011-.023.011-.062 0-.062.007-.065.036L.537.692C.535.712.535.716.518.716.502.716.498.709.492.699L.144.115m.12.147.197.33.032-.33H.264z"/></symbol><use xlink:href="#d" transform="matrix(9.9626 0 0 -9.9626 25.7077 59.083)"/><symbol id="e"><path d="M.361.392C.34.425.306.451.258.451.13.451 0 .31 0 .166 0 .069.065 0 .151 0c.054 0 .102.031.142.07C.312.01.37 0 .396 0c.036 0 .061.022.079.053.022.039.035.096.035.1C.51.166.497.166.494.166.48.166.479.162.472.135.46.087.441.028.399.028.373.028.366.05.366.077c0 .017.008.053.015.079.007.027.017.068.022.09l.02.076C.429.348.441.395.441.4c0 .022-.018.032-.034.032C.39.432.367.42.361.392M.297.135C.29.107.268.087.246.068.237.06.197.028.154.028.117.028.081.054.081.125c0 .053.029.163.052.203.046.08.097.095.125.095.07 0 .089-.076.089-.087C.347.332.345.325.344.322L.297.135z"/></symbol><symbol id="f"><path d="M.198.674C.199.676.202.689.202.69c0 .005-.004.014-.016.014-.02 0-.103-.008-.128-.01C.05.693.036.692.036.671.036.657.05.657.062.657.11.657.11.65.11.642.11.635.1.595.094.572L.071.48C.062.446.007.227.005.214 0 .19 0 .177 0 .165 0 .064.064 0 .147 0c.125 0 .258.136.258.284 0 .117-.081.167-.15.167C.203.451.159.422.129.396l.069.278M.148.028C.099.028.071.071.071.13c0 .037.009.071.037.184.006.019.006.021.025.043.038.044.083.066.119.066.039 0 .073-.029.073-.097C.325.285.303.183.273.125.249.076.199.028.148.028z"/></symbol><symbol id="g"><path d="M.238.674C.239.676.242.689.242.69c0 .005-.004.014-.016.014-.02 0-.103-.008-.128-.01C.09.693.076.692.076.671.076.657.09.657.102.657.15.657.15.65.15.642.15.635.148.629.146.62L.005.054C0 .036 0 .034 0 .032 0 .017.012 0 .034 0c.027 0 .04.02.046.042.002.004.045.18.049.194C.2.229.257.206.257.154c0-.005 0-.01-.002-.02C.251.119.251.114.251.103.251.032.309 0 .357 0c.097 0 .127.152.127.153 0 .013-.013.013-.016.013C.454.166.453.161.448.142.436.099.409.028.36.028.333.028.325.053.325.08c0 .017 0 .019.006.045.001.003.005.02.005.031 0 .089-.12.103-.162.106C.203.28.24.313.257.328c.051.048.101.095.157.095C.426.423.439.42.447.41A.0575.0575 0 0 1 .395.354c0-.022.017-.037.04-.037.027 0 .057.022.057.064 0 .033-.024.07-.077.07C.358.451.306.41.255.363.213.323.18.292.139.275l.099.399z"/></symbol><use xlink:href="#e" transform="matrix(6.9738 0 0 -6.9738 33.2564 60.6477)"/><use xlink:href="#f" transform="matrix(6.9738 0 0 -6.9738 37.608 60.6477)"/><use xlink:href="#g" transform="matrix(6.9738 0 0 -6.9738 41.1717 60.6477)"/><symbol id="h"><path d="M.118.078C.108.039.106.031.027.031.01.031 0 .031 0 .011 0 0 .009 0 .027 0h.357C.542 0 .66.118.66.216c0 .072-.058.13-.155.141.104.019.209.093.209.188 0 .074-.066.138-.186.138H.192c-.019 0-.029 0-.029-.02 0-.011.009-.011.028-.011.002 0 .021 0 .038-.002C.247.648.256.647.256.634.256.63.255.627.252.615L.118.078m.151.288.062.248C.34.649.342.652.385.652h.129C.602.652.623.593.623.549.623.461.537.366.415.366H.269M.224.031c-.014 0-.016 0-.022.001-.01.001-.013.002-.013.01 0 .003 0 .005.005.023l.069.279h.189C.548.344.567.27.567.227.567.128.478.031.36.031H.224z"/></symbol><use xlink:href="#h" transform="matrix(9.9626 0 0 -9.9626 45.9764 59.083)"/><symbol id="i"><path d="M.376.393C.34.387.325.359.325.337.325.31.346.3.364.3.386.3.421.316.421.364c0 .068-.078.087-.132.087C.139.451 0 .313 0 .174 0 .088.06 0 .185 0c.169 0 .248.099.248.113C.433.119.424.13.416.13.41.13.408.128.4.12.322.028.205.028.187.028.115.028.083.077.083.139c0 .029.014.138.066.207.038.049.09.077.14.077.014 0 .062-.002.087-.03z"/></symbol><use xlink:href="#g" transform="matrix(6.9738 0 0 -6.9738 53.638 60.6477)"/><use xlink:href="#i" transform="matrix(6.9738 0 0 -6.9738 57.9479 60.6477)"/><use xlink:href="#d" transform="matrix(9.9626 0 0 -9.9626 136.9807 58.405)"/><symbol id="j"><path d="M.277.635c0 .016-.012.038-.04.038C.21.673.181.647.181.618.181.601.194.58.221.58.25.58.277.608.277.635M.073.127C.069.114.064.102.064.085.064.038.104 0 .159 0c.1 0 .144.138.144.153C.303.166.29.166.287.166.273.166.272.16.268.149.245.069.201.028.162.028c-.02 0-.025.013-.025.035 0 .023.007.042.016.064.01.027.021.054.032.08.009.024.045.115.049.127.003.01.006.022.006.032C.24.413.2.451.145.451.046.451 0 .315 0 .298 0 .285.014.285.017.285c.014 0 .015.005.018.016.026.086.07.122.107.122.016 0 .025-.008.025-.035C.167.365.161.35.136.288L.073.127z"/></symbol><symbol id="k"><path d="M.439.829c0 .017-.013.038-.04.038C.37.867.343.839.343.812c0-.016.012-.038.04-.038C.41.774.439.8.439.829M.227.155C.21.086.157.028.098.028.085.028.073.03.062.034.088.046.096.07.096.085c0 .024-.019.037-.039.037A.0587.0587 0 0 1 0 .063C0 .025.039 0 .099 0c.06 0 .177.036.208.158l.09.358C.4.527.402.536.402.551c0 .055-.047.094-.107.094C.184.645.12.506.12.492.12.479.134.479.137.479c.012 0 .013.003.02.018.025.058.077.12.135.12C.317.617.326.6.326.568.326.557.324.543.323.538L.227.155z"/></symbol><use xlink:href="#e" transform="matrix(6.9738 0 0 -6.9738 144.5294 59.9697)"/><use xlink:href="#f" transform="matrix(6.9738 0 0 -6.9738 148.881 59.9697)"/><use xlink:href="#j" transform="matrix(6.9738 0 0 -6.9738 152.2494 59.9697)"/><use xlink:href="#k" transform="matrix(6.9738 0 0 -6.9738 154.739 61.3227)"/><use xlink:href="#h" transform="matrix(9.9626 0 0 -9.9626 159.3644 58.405)"/><use xlink:href="#j" transform="matrix(6.9738 0 0 -6.9738 166.8308 59.9697)"/><use xlink:href="#k" transform="matrix(6.9738 0 0 -6.9738 169.3204 61.3227)"/><use xlink:href="#i" transform="matrix(6.9738 0 0 -6.9738 173.442 59.9697)"/><symbol id="l"><path d="M.884.606C.893.642.895.652.97.652c.023 0 .032 0 .032.02 0 .011-.01.011-.027.011H.843c-.026 0-.027 0-.039-.019L.439.094.361.66C.358.683.356.683.33.683H.193c-.019 0-.03 0-.03-.019 0-.012.009-.012.029-.012A.591.591 0 0 0 .235.65C.251.648.257.645.257.634.257.63.256.627.253.615L.126.106C.116.066.099.034.018.031.013.031 0 .03 0 .012 0 .003.006 0 .014 0c.032 0 .067.003.1.003C.148.003.184 0 .217 0c.005 0 .018 0 .018.02 0 .011-.011.011-.018.011C.16.032.149.052.149.075c0 .007.001.012.004.023l.136.545H.29l.086-.62C.378.011.379 0 .391 0c.011 0 .017.011.022.018l.404.633h.001L.675.078C.665.039.663.031.584.031c-.017 0-.028 0-.028-.019C.556 0 .568 0 .571 0c.028 0 .096.003.124.003C.736.003.779 0 .82 0c.006 0 .019 0 .019.02C.839.031.83.031.811.031c-.037 0-.065 0-.065.018 0 .004 0 .006.005.024l.133.533z"/></symbol><use xlink:href="#l" transform="matrix(9.9626 0 0 -9.9626 248.5874 59.083)"/><use xlink:href="#j" transform="matrix(6.9738 0 0 -6.9738 258.1628 60.6477)"/><use xlink:href="#j" transform="matrix(6.9738 0 0 -6.9738 260.9802 60.6477)"/><path stroke-width=".797" stroke-miterlimit="10" fill="none" stroke="#000" d="m24.1778 19.2116-10.5436-6.5899m10.5436 12.9867-11.0389 6.8994M63.6765 22.41H73.78m73.5249-3.879c5.7062-4.788 13.3953-4.788 19.1015 0m-19.1015 7.758c5.7062 4.788 13.3953 4.788 19.1015 0m-28.8414-7.0774-10.5436-6.5899m10.5436 12.9867-11.0389 6.8994M177.0637 22.41h10.1035m63.5051-2.6985c-11.6111-5.8056-11.6111-14.3097 5.3972-14.3097 17.0082 0 17.0082 8.504 5.3971 14.3097M35.3297 22.41H51.607"/><symbol id="m"><path d="M.232.694c0 .001 0 .011-.013.011C.196.705.123.697.097.695.089.694.078.693.078.675c0-.012.009-.012.024-.012.048 0 .05-.007.05-.017L.149.626.004.05C0 .036 0 .034 0 .028 0 .005.02 0 .029 0c.013 0 .028.009.034.021.005.009.05.194.056.219C.153.237.235.221.235.155c0-.007 0-.011-.003-.021C.23.122.228.11.228.099.228.04.268 0 .32 0c.03 0 .057.016.079.053.025.044.036.099.036.101 0 .01-.009.01-.012.01C.413.164.412.16.409.146.389.073.366.022.322.022.303.022.29.033.29.069c0 .017.004.04.008.056.004.017.004.021.004.031C.302.221.239.25.154.261c.031.018.063.05.086.074.048.053.094.096.143.096.006 0 .007 0 .009-.001C.404.428.405.428.413.422.415.421.415.42.417.418A.0565.0565 0 0 1 .36.364C.36.348.371.329.398.329c.026 0 .055.022.055.061C.453.42.43.453.385.453.357.453.311.445.239.365.205.327.166.287.128.272l.104.422z"/></symbol><use xlink:href="#m" transform="matrix(9.9626 0 0 -9.9626 41.266 18.1356)"/><symbol id="n"><path d="M.255.636c0 .02-.014.036-.037.036C.191.672.164.646.164.619.164.6.178.583.202.583c.023 0 .053.023.053.053M.179.26c.012.029.012.031.022.058.008.02.013.034.013.053 0 .045-.032.082-.082.082C.038.453 0 .308 0 .299c0-.01.01-.01.012-.01.01 0 .011.002.016.018.027.094.067.124.101.124.008 0 .025 0 .025-.032C.154.378.147.357.143.347.135.321.09.205.074.162.064.136.051.103.051.082.051.035.085 0 .133 0c.094 0 .131.145.131.154 0 .01-.009.01-.012.01-.01 0-.01-.003-.015-.018C.219.083.186.022.135.022c-.017 0-.024.01-.024.033 0 .025.006.039.029.1L.179.26z"/></symbol><use xlink:href="#n" transform="matrix(9.9626 0 0 -9.9626 155.4279 10.6656)"/><symbol id="o"><path d="M.41.83C.41.849.396.866.372.866.349.866.319.843.319.813c0-.02.014-.036.037-.036C.383.777.41.803.41.83M.209.155C.19.079.142.022.086.022c-.006 0-.021 0-.039.009.03.007.045.033.045.053C.092.1.081.119.054.119A.0557.0557 0 0 1 0 .062C0 .022.04 0 .088 0c.07 0 .163.053.188.152l.092.366c.005.02.005.034.005.037 0 .057-.042.092-.092.092C.179.647.122.502.122.493c0-.01.01-.01.012-.01.009 0 .01.001.018.02.025.061.071.122.126.122C.292.625.31.621.31.579.31.556.307.545.303.528L.209.155z"/></symbol><use xlink:href="#o" transform="matrix(9.9626 0 0 -9.9626 154.3895 42.8763)"/><use xlink:href="#n" transform="matrix(9.9626 0 0 -9.9626 274.4849 20.1356)"/></svg>