<svg xmlns="http://www.w3.org/2000/svg" xmlns:xlink="http://www.w3.org/1999/xlink" width="124.96pt" height="43.06pt" viewBox="0 0 124.96 43.06"><path d="M34.9311 20.303c0-3.1128-2.5233-5.6361-5.6361-5.6361s-5.6362 2.5233-5.6362 5.6361 2.5234 5.6362 5.6362 5.6362c3.1128 0 5.6361-2.5234 5.6361-5.6362zm-5.6361 0" fill="#f44336"/><path stroke-width=".797" stroke-miterlimit="10" fill="none" stroke="#000" d="M34.9311 20.303c0-3.1128-2.5233-5.6361-5.6361-5.6361s-5.6362 2.5233-5.6362 5.6361 2.5234 5.6362 5.6362 5.6362c3.1128 0 5.6361-2.5234 5.6361-5.6362zm-5.6361 0"/><path d="M63.278 20.303c0-3.1128-2.5234-5.6361-5.6362-5.6361-3.1128 0-5.6362 2.5233-5.6362 5.6361s2.5234 5.6362 5.6362 5.6362c3.1128 0 5.6362-2.5234 5.6362-5.6362zm-5.6362 0" fill="#4caf50"/><path stroke-width=".797" stroke-miterlimit="10" fill="none" stroke="#000" d="M63.278 20.303c0-3.1128-2.5234-5.6361-5.6362-5.6361-3.1128 0-5.6362 2.5233-5.6362 5.6361s2.5234 5.6362 5.6362 5.6362c3.1128 0 5.6362-2.5234 5.6362-5.6362zm-5.6362 0"/><symbol id="a"><path d="M.333.389C.315.426.286.453.241.453.124.453 0 .306 0 .16 0 .066.055 0 .133 0c.02 0 .07.004.13.075A.091.091 0 0 1 .354 0c.035 0 .058.023.074.055.017.036.03.097.03.099 0 .01-.009.01-.012.01C.436.164.435.16.432.146.415.081.397.022.356.022c-.027 0-.03.026-.03.046 0 .022.002.03.013.074.011.042.013.052.022.09l.036.14C.404.4.404.402.404.406c0 .017-.012.027-.029.027C.351.433.336.411.333.389M.268.13C.263.112.263.11.248.093.204.038.163.022.135.022c-.05 0-.064.055-.064.094 0 .05.032.173.055.219.031.059.076.096.116.096.065 0 .079-.082.079-.088C.321.337.319.331.318.326L.268.13z"/></symbol><use xlink:href="#a" transform="matrix(9.9626 0 0 -9.9626 4.3825 8.3836)"/><symbol id="b"><path d="M.192.694c0 .001 0 .011-.013.011C.156.705.083.697.057.695.049.694.038.693.038.675c0-.012.009-.012.024-.012.048 0 .05-.007.05-.017C.112.639.103.605.098.584L.016.258C.004.208 0 .192 0 .157 0 .062.053 0 .127 0c.118 0 .241.149.241.293 0 .091-.053.16-.133.16C.189.453.148.424.118.393l.074.301M.098.316C.104.338.104.34.113.351c.049.065.094.08.12.08.036 0 .063-.03.063-.094C.296.278.263.163.245.125.212.058.166.022.127.022.093.022.06.049.06.123c0 .019 0 .038.016.101l.022.092z"/></symbol><use xlink:href="#b" transform="matrix(9.9626 0 0 -9.9626 4.9482 38.0456)"/><path stroke-width=".797" stroke-miterlimit="10" fill="none" stroke="#000" d="M33.9177 16.424c5.7062-4.788 13.3952-4.788 19.1014 0m-19.1014 7.758c5.7062 4.788 13.3952 4.788 19.1014 0m-28.8413-7.0773-10.5436-6.59m10.5436 12.9867-11.0389 6.8994"/><symbol id="c"><path d="M.355.391c-.016 0-.03 0-.044-.014A.0541.0541 0 0 1 .293.338C.293.314.311.303.33.303c.029 0 .056.024.056.064 0 .049-.047.086-.118.086C.133.453 0 .31 0 .169 0 .079.058 0 .162 0c.143 0 .227.106.227.118 0 .006-.006.013-.012.013C.372.131.37.129.364.121.285.022.176.022.164.022c-.063 0-.09.049-.09.109 0 .041.02.138.054.2.031.057.086.1.141.1.034 0 .072-.013.086-.04z"/></symbol><use xlink:href="#c" transform="matrix(9.9626 0 0 -9.9626 41.7215 8.5586)"/><symbol id="d"><path d="M.476.694c0 .001 0 .011-.013.011C.448.705.353.696.336.694.328.693.322.688.322.675c0-.012.009-.012.024-.012.048 0 .05-.007.05-.017L.393.626.333.389C.315.426.286.453.241.453.124.453 0 .306 0 .16 0 .066.055 0 .133 0c.02 0 .07.004.13.075A.091.091 0 0 1 .354 0c.035 0 .058.023.074.055.017.036.03.097.03.099 0 .01-.009.01-.012.01C.436.164.435.16.432.146.415.081.397.022.356.022c-.027 0-.03.026-.03.046 0 .024.002.031.006.048l.144.578M.268.13C.263.112.263.11.248.093.204.038.163.022.135.022c-.05 0-.064.055-.064.094 0 .05.032.173.055.219.031.059.076.096.116.096.065 0 .079-.082.079-.088C.321.337.319.331.318.326L.268.13z"/></symbol><use xlink:href="#d" transform="matrix(9.9626 0 0 -9.9626 41.2745 39.1846)"/><symbol id="e"><path d="M.631.194c.015 0 .034 0 .034.02s-.019.02-.033.02H.033C.019.234 0 .234 0 .214s.019-.02.034-.02h.597M.632 0c.014 0 .033 0 .033.02S.646.04.631.04H.034C.019.04 0 .04 0 .02S.019 0 .033 0h.599z"/></symbol><use xlink:href="#e" transform="matrix(9.9626 0 0 -9.9626 70.8699 21.813)"/><symbol id="f"><path d="M.304.305C.345.2.393.047.409.024.425.002.435.002.462.002h.022c.01.001.011.007.011.01S.493.017.49.021C.48.032.474.047.467.067L.263.636C.242.694.188.707.141.707c-.005 0-.018 0-.018-.011 0-.008.008-.01.009-.01C.165.68.172.674.197.606L.294.334.018.06C.006.048 0 .042 0 .029 0 .012.014 0 .03 0s.025.011.033.021l.241.284z"/></symbol><use xlink:href="#f" transform="matrix(9.9626 0 0 -9.9626 81.356 23.2675)"/><path d="M121.5712 20.303c0-3.1128-2.5234-5.6361-5.6362-5.6361-3.1128 0-5.6362 2.5233-5.6362 5.6361s2.5234 5.6362 5.6362 5.6362c3.1128 0 5.6362-2.5234 5.6362-5.6362zm-5.6362 0" fill="#4caf50"/><path stroke-width=".797" stroke-miterlimit="10" fill="none" stroke="#000" d="M121.5712 20.303c0-3.1128-2.5234-5.6361-5.6362-5.6361-3.1128 0-5.6362 2.5233-5.6362 5.6361s2.5234 5.6362 5.6362 5.6362c3.1128 0 5.6362-2.5234 5.6362-5.6362zm-5.6362 0"/><use xlink:href="#a" transform="matrix(9.9626 0 0 -9.9626 91.0225 8.3836)"/><use xlink:href="#b" transform="matrix(9.9626 0 0 -9.9626 91.5882 38.0456)"/><path stroke-width=".797" stroke-miterlimit="10" fill="none" stroke="#000" d="m110.8178 17.1047-10.5436-6.59m10.5436 12.9867-11.0389 6.8994"/></svg>