<svg xmlns="http://www.w3.org/2000/svg" xmlns:xlink="http://www.w3.org/1999/xlink" width="213.77pt" height="67.28pt" viewBox="0 0 213.77 67.28"><path d="M14.6591 35.789c0-3.1128-2.5233-5.6362-5.6361-5.6362s-5.6362 2.5234-5.6362 5.6362c0 3.1128 2.5234 5.6362 5.6362 5.6362 3.1128 0 5.6361-2.5234 5.6361-5.6362zm-5.6361 0" fill="#f44336"/><path stroke-width=".797" stroke-miterlimit="10" fill="none" stroke="#000" d="M14.6591 35.789c0-3.1128-2.5233-5.6362-5.6361-5.6362s-5.6362 2.5234-5.6362 5.6362c0 3.1128 2.5234 5.6362 5.6362 5.6362 3.1128 0 5.6361-2.5234 5.6361-5.6362zm-5.6361 0"/><symbol id="a"><path d="M.255.636c0 .02-.014.036-.037.036C.191.672.164.646.164.619.164.6.178.583.202.583c.023 0 .053.023.053.053M.179.26c.012.029.012.031.022.058.008.02.013.034.013.053 0 .045-.032.082-.082.082C.038.453 0 .308 0 .299c0-.01.01-.01.012-.01.01 0 .011.002.016.018.027.094.067.124.101.124.008 0 .025 0 .025-.032C.154.378.147.357.143.347.135.321.09.205.074.162.064.136.051.103.051.082.051.035.085 0 .133 0c.094 0 .131.145.131.154 0 .01-.009.01-.012.01-.01 0-.01-.003-.015-.018C.219.083.186.022.135.022c-.017 0-.024.01-.024.033 0 .025.006.039.029.1L.179.26z"/></symbol><use xlink:href="#a" transform="matrix(9.9626 0 0 -9.9626 35.943 39.1836)"/><path d="M99.6996 35.789c0-3.1128-2.5234-5.6362-5.6362-5.6362-3.1128 0-5.6362 2.5234-5.6362 5.6362 0 3.1128 2.5234 5.6362 5.6362 5.6362 3.1128 0 5.6362-2.5234 5.6362-5.6362zm-5.6362 0" fill="#4caf50"/><path stroke-width=".797" stroke-miterlimit="10" fill="none" stroke="#000" d="M99.6996 35.789c0-3.1128-2.5234-5.6362-5.6362-5.6362-3.1128 0-5.6362 2.5234-5.6362 5.6362 0 3.1128 2.5234 5.6362 5.6362 5.6362 3.1128 0 5.6362-2.5234 5.6362-5.6362zm-5.6362 0"/><use xlink:href="#a" transform="matrix(9.9626 0 0 -9.9626 64.289 39.1836)"/><symbol id="b"><path d="M.41.83C.41.849.396.866.372.866.349.866.319.843.319.813c0-.02.014-.036.037-.036C.383.777.41.803.41.83M.209.155C.19.079.142.022.086.022c-.006 0-.021 0-.039.009.03.007.045.033.045.053C.092.1.081.119.054.119A.0557.0557 0 0 1 0 .062C0 .022.04 0 .088 0c.07 0 .163.053.188.152l.092.366c.005.02.005.034.005.037 0 .057-.042.092-.092.092C.179.647.122.502.122.493c0-.01.01-.01.012-.01.009 0 .01.001.018.02.025.061.071.122.126.122C.292.625.31.621.31.579.31.556.307.545.303.528L.209.155z"/></symbol><use xlink:href="#b" transform="matrix(9.9626 0 0 -9.9626 119.9445 40.1483)"/><path d="M184.74 35.789c0-3.1128-2.5234-5.6362-5.6361-5.6362-3.1129 0-5.6362 2.5234-5.6362 5.6362 0 3.1128 2.5233 5.6362 5.6362 5.6362 3.1127 0 5.6361-2.5234 5.6361-5.6362zm-5.6361 0" fill="#2196f3"/><path stroke-width=".797" stroke-miterlimit="10" fill="none" stroke="#000" d="M184.74 35.789c0-3.1128-2.5234-5.6362-5.6361-5.6362-3.1129 0-5.6362 2.5234-5.6362 5.6362 0 3.1128 2.5233 5.6362 5.6362 5.6362 3.1127 0 5.6361-2.5234 5.6361-5.6362zm-5.6361 0"/><use xlink:href="#a" transform="matrix(9.9626 0 0 -9.9626 149.33 39.1836)"/><use xlink:href="#b" transform="matrix(9.9626 0 0 -9.9626 204.9845 40.1483)"/><symbol id="c"><path d="M.232.694c0 .001 0 .011-.013.011C.196.705.123.697.097.695.089.694.078.693.078.675c0-.012.009-.012.024-.012.048 0 .05-.007.05-.017L.149.626.004.05C0 .036 0 .034 0 .028 0 .005.02 0 .029 0c.013 0 .028.009.034.021.005.009.05.194.056.219C.153.237.235.221.235.155c0-.007 0-.011-.003-.021C.23.122.228.11.228.099.228.04.268 0 .32 0c.03 0 .057.016.079.053.025.044.036.099.036.101 0 .01-.009.01-.012.01C.413.164.412.16.409.146.389.073.366.022.322.022.303.022.29.033.29.069c0 .017.004.04.008.056.004.017.004.021.004.031C.302.221.239.25.154.261c.031.018.063.05.086.074.048.053.094.096.143.096.006 0 .007 0 .009-.001C.404.428.405.428.413.422.415.421.415.42.417.418A.0565.0565 0 0 1 .36.364C.36.348.371.329.398.329c.026 0 .055.022.055.061C.453.42.43.453.385.453.357.453.311.445.239.365.205.327.166.287.128.272l.104.422z"/></symbol><use xlink:href="#c" transform="matrix(9.9626 0 0 -9.9626 176.902 11.0106)"/><symbol id="d"><path d="M.572.591C.621.669.663.672.7.674c.012.001.013.018.013.019C.713.701.708.705.7.705.674.705.645.702.618.702.585.702.551.705.519.705.513.705.5.705.5.686.5.675.509.674.516.674.543.672.562.662.562.641.562.626.547.604.547.603L.24.115.172.644c0 .017.023.03.069.03.014 0 .025 0 .025.02 0 .009-.008.011-.014.011C.212.705.169.702.128.702.11.702.091.703.073.703.055.703.036.705.019.705.012.705 0 .705 0 .686 0 .674.009.674.025.674.081.674.082.665.085.64L.164.023C.167.003.171 0 .184 0 .2 0 .204.005.212.018l.36.573z"/></symbol><use xlink:href="#d" transform="matrix(9.9626 0 0 -9.9626 16.355 61.3422)"/><symbol id="e"><path d="M.277.635c0 .016-.012.038-.04.038C.21.673.181.647.181.618.181.601.194.58.221.58.25.58.277.608.277.635M.073.127C.069.114.064.102.064.085.064.038.104 0 .159 0c.1 0 .144.138.144.153C.303.166.29.166.287.166.273.166.272.16.268.149.245.069.201.028.162.028c-.02 0-.025.013-.025.035 0 .023.007.042.016.064.01.027.021.054.032.08.009.024.045.115.049.127.003.01.006.022.006.032C.24.413.2.451.145.451.046.451 0 .315 0 .298 0 .285.014.285.017.285c.014 0 .015.005.018.016.026.086.07.122.107.122.016 0 .025-.008.025-.035C.167.365.161.35.136.288L.073.127z"/></symbol><use xlink:href="#e" transform="matrix(6.9738 0 0 -6.9738 21.9368 62.6867)"/><symbol id="f"><path d="M.884.606C.893.642.895.652.97.652c.023 0 .032 0 .032.02 0 .011-.01.011-.027.011H.843c-.026 0-.027 0-.039-.019L.439.094.361.66C.358.683.356.683.33.683H.193c-.019 0-.03 0-.03-.019 0-.012.009-.012.029-.012A.591.591 0 0 0 .235.65C.251.648.257.645.257.634.257.63.256.627.253.615L.126.106C.116.066.099.034.018.031.013.031 0 .03 0 .012 0 .003.006 0 .014 0c.032 0 .067.003.1.003C.148.003.184 0 .217 0c.005 0 .018 0 .018.02 0 .011-.011.011-.018.011C.16.032.149.052.149.075c0 .007.001.012.004.023l.136.545H.29l.086-.62C.378.011.379 0 .391 0c.011 0 .017.011.022.018l.404.633h.001L.675.078C.665.039.663.031.584.031c-.017 0-.028 0-.028-.019C.556 0 .568 0 .571 0c.028 0 .096.003.124.003C.736.003.779 0 .82 0c.006 0 .019 0 .019.02C.839.031.83.031.811.031c-.037 0-.065 0-.065.018 0 .004 0 .006.005.024l.133.533z"/></symbol><use xlink:href="#f" transform="matrix(9.9626 0 0 -9.9626 86.1404 60.445)"/><symbol id="g"><path d="M.439.829c0 .017-.013.038-.04.038C.37.867.343.839.343.812c0-.016.012-.038.04-.038C.41.774.439.8.439.829M.227.155C.21.086.157.028.098.028.085.028.073.03.062.034.088.046.096.07.096.085c0 .024-.019.037-.039.037A.0587.0587 0 0 1 0 .063C0 .025.039 0 .099 0c.06 0 .177.036.208.158l.09.358C.4.527.402.536.402.551c0 .055-.047.094-.107.094C.184.645.12.506.12.492.12.479.134.479.137.479c.012 0 .013.003.02.018.025.058.077.12.135.12C.317.617.326.6.326.568.326.557.324.543.323.538L.227.155z"/></symbol><use xlink:href="#e" transform="matrix(6.9738 0 0 -6.9738 95.7158 62.0087)"/><use xlink:href="#g" transform="matrix(6.9738 0 0 -6.9738 98.2054 63.3617)"/><symbol id="h"><path d="M.403.607C.41.635.414.641.426.644c.009.002.042.002.063.002C.59.646.635.642.635.564.635.549.631.51.627.484A.1481.1481 0 0 1 .624.465c0-.006.003-.013.012-.013.011 0 .013.008.015.023l.027.174C.679.653.68.663.68.666.68.677.67.677.653.677H.098C.074.677.073.676.066.657L.006.481A.1266.1266 0 0 1 0 .463C0 .457.005.452.012.452c.01 0 .011.005.017.021.054.155.08.173.228.173h.039C.324.646.324.642.324.634A.098.098 0 0 0 .32.613L.186.079C.177.042.174.031.067.031c-.036 0-.042 0-.042-.019C.025 0 .036 0 .042 0c.027 0 .055.002.082.002.028 0 .057.001.085.001.028 0 .056-.001.083-.001C.321.002.351 0 .379 0c.01 0 .022 0 .022.02 0 .011-.008.011-.034.011-.025 0-.038 0-.064.002C.274.036.266.039.266.055c0 .001 0 .006.004.021l.133.531z"/></symbol><use xlink:href="#h" transform="matrix(9.9626 0 0 -9.9626 170.7221 60.445)"/><symbol id="i"><path d="M.238.674C.239.676.242.689.242.69c0 .005-.004.014-.016.014-.02 0-.103-.008-.128-.01C.09.693.076.692.076.671.076.657.09.657.102.657.15.657.15.65.15.642.15.635.148.629.146.62L.005.054C0 .036 0 .034 0 .032 0 .017.012 0 .034 0c.027 0 .04.02.046.042.002.004.045.18.049.194C.2.229.257.206.257.154c0-.005 0-.01-.002-.02C.251.119.251.114.251.103.251.032.309 0 .357 0c.097 0 .127.152.127.153 0 .013-.013.013-.016.013C.454.166.453.161.448.142.436.099.409.028.36.028.333.028.325.053.325.08c0 .017 0 .019.006.045.001.003.005.02.005.031 0 .089-.12.103-.162.106C.203.28.24.313.257.328c.051.048.101.095.157.095C.426.423.439.42.447.41A.0575.0575 0 0 1 .395.354c0-.022.017-.037.04-.037.027 0 .057.022.057.064 0 .033-.024.07-.077.07C.358.451.306.41.255.363.213.323.18.292.139.275l.099.399z"/></symbol><use xlink:href="#e" transform="matrix(6.9738 0 0 -6.9738 176.6328 62.0087)"/><use xlink:href="#g" transform="matrix(6.9738 0 0 -6.9738 179.1224 63.3617)"/><use xlink:href="#i" transform="matrix(6.9738 0 0 -6.9738 183.3346 62.0087)"/><path stroke-width=".797" stroke-miterlimit="10" fill="none" stroke="#000" d="M15.0577 35.789H31.27m56.7587 0H71.8164m28.2817 0h15.592m57.379 0h-16.2123m28.2817 0h15.592m-21.6266-6.0347V15.2851"/></svg>