<svg xmlns="http://www.w3.org/2000/svg" width="450.855" height="84.644" viewBox="0 -63.483 338.141 63.483"><path d="M16.03-43.348c-.627-.458-1.005-1.105-1.005-1.863 0-1.125.836-2.022 2.061-2.42l-1.056 4.283zm2.9.737c-.13.02-.27.02-.41.02-.597 0-1.155-.1-1.643-.289l1.215-4.95c.14-.01.28-.02.429-.02.588 0 1.145.1 1.634.289l-1.226 4.95zM21-47.103c.638.468 1.026 1.126 1.026 1.892 0 1.126-.847 2.013-2.082 2.401L21-47.103zm-.727-.946a5.1 5.1 0 00-1.753-.3c-.1 0-.2 0-.299.01l1.375-5.587c.318-1.295.607-2.202 1.255-2.202.09 0 .15.04.15.11-.02.139-.23.239-.23.508 0 .219.19.298.378.298.39 0 .708-.328.708-.747 0-.298-.21-.547-.727-.547-1.415 0-2.192 1.344-2.67 3.287l-1.235 5.03c-1.524.399-2.7 1.474-2.7 2.978 0 1.027.548 1.844 1.375 2.381l-1.564 6.346c-.329 1.324-.587 2.2-1.235 2.2-.09 0-.15-.039-.15-.118.02-.12.23-.26.23-.499 0-.219-.19-.298-.379-.298-.388 0-.697.328-.697.757 0 .289.209.538.717.538 1.385 0 2.162-1.246 2.6-3.048l1.335-5.45a5.1 5.1 0 001.763.31c.09 0 .19 0 .289-.01l-1.385 5.618c-.329 1.324-.588 2.2-1.235 2.2-.09 0-.15-.039-.15-.118.02-.12.23-.26.23-.499 0-.219-.19-.298-.379-.298-.388 0-.697.328-.697.757 0 .289.209.538.717.538 1.384 0 2.152-1.246 2.6-3.048l1.305-5.3c1.524-.389 2.71-1.454 2.71-2.959 0-1.026-.559-1.862-1.395-2.41l1.553-6.305c.32-1.295.608-2.202 1.256-2.202.09 0 .15.04.15.11-.02.139-.23.239-.23.508 0 .219.19.298.379.298.388 0 .707-.328.707-.747 0-.298-.21-.547-.727-.547-1.415 0-2.192 1.344-2.67 3.287l-1.275 5.17zm2.933 12.259c0 .233-.045.486-.113.733-.209.762-.65 1.51-1.225 1.51-.47 0-.5-.449-.5-.733 0-1.039.642-2.151 1.382-2.151.202 0 .456.157.456.642zm-1.285-2.285c.186-.06.35-.097.552-.097.763 0 .98.695.98 1.352 0 .18-.023.359-.053.523-.157-.276-.478-.358-.717-.358-1.09 0-1.92 1.068-1.92 2.12 0 .636.284 1.211 1.016 1.211 1.748 0 2.203-2.024 2.203-3.13 0-1.27-.463-1.942-1.404-1.942-.254 0-.523.045-.732.172l.075.15zm4.449 3.967h-.978c-.307 0-.464-.112-.464-.329 0-.082.008-.172.03-.269l-.127-.037-.313 1.337h2.024l.18-1.24c-.195-.06-.344-.202-.456-.41-.113-.218-.172-.487-.172-.815 0-.568.239-1.106.724-1.614.419-.433.897-.65 1.435-.65.694 0 1.045.456 1.045 1.352 0 .456-.127.882-.38 1.278-.307.47-.695.754-1.159.859l-.298 1.24h2.092l.418-1.3-.135-.037c-.09.239-.216.403-.366.493-.104.06-.306.112-.59.142h-.956l.052-.276c.598-.12 1.098-.374 1.48-.77.417-.433.627-.941.627-1.509 0-.486-.12-.881-.359-1.173-.299-.366-.77-.545-1.39-.545-.82 0-1.5.217-2.039.665a3.016 3.016 0 00-.68.777c-.201.343-.306.687-.306 1.038 0 .777.366 1.278 1.099 1.517l-.038.276zM39.84-49.38h-5.6l-.04.229h.37c.418 0 .587.15.587.418 0 .05-.01.1-.02.16l-1.146 5.02c-.09.389-.258.608-.846.608h-.359l-.04.229h5.977l.608-2.052h-.22c-.418 1.185-1.155 1.604-2.61 1.604h-.647c-.309 0-.418-.06-.418-.2 0-.04.01-.11.02-.169l.578-2.57h.687c.289 0 .847.03.847.458 0 .18-.03.528-.06.648h.23l.537-2.5h-.22c-.209.856-.806.946-1.364.946h-.548l.548-2.38h1.345c.458 0 1.195.119 1.205.846 0 .1 0 .209-.03.378h.23l.398-1.673zm4.63 4.144a.604.604 0 00-.588-.598.629.629 0 00-.608.598.63.63 0 00.608.598c.319 0 .588-.28.588-.598zm6.424 1.504c0 .07-.06.18-.15.279-.18.21-.428.319-.737.319-.837 0-1.375-.797-1.375-2.023 0-1.125.489-1.862 1.245-1.862.538 0 1.017.468 1.017.996v2.291zm1.504.598v-.16c-.17.01-.18.01-.23.01-.358 0-.438-.11-.438-.568v-5.647l-.05-.02c-.478.169-.826.268-1.464.438v.16c.08-.01.14-.01.22-.01.368 0 .458.099.458.507v1.554c-.379-.318-.648-.428-1.046-.428-1.146 0-2.072 1.125-2.072 2.54 0 1.275.737 2.142 1.843 2.142.557 0 .936-.2 1.275-.668v.638l.04.03 1.464-.518zM59.5-49.51h-.22c-.06.229-.318.368-.497.368-.32 0-.887-.398-1.783-.398-1.644 0-2.361.786-2.361 1.683 0 1.136 1.305 1.813 1.932 2.44.26.26.428.718.428 1.126 0 .648-.408 1.186-1.344 1.186-1.166 0-1.793-.768-1.793-1.624v-.349h-.24l-.587 2.44h.219a.885.885 0 01.677-.388c.12 0 .35.07.409.09.438.179.916.319 1.564.319 1.623 0 2.56-.997 2.56-1.913 0-.886-.588-1.584-1.255-2.092-.578-.438-1.126-.876-1.126-1.613 0-.628.637-.837.996-.837.956 0 1.654.588 1.684 1.245.01.17.01.289.01.498h.229l.498-2.181zm8.786 5.599v-.658h-5.867v.658h5.867zm0-1.992v-.658h-5.867v.658h5.867zm10.099-2.591v-.15c-.747 0-.947-.179-.947-.607v-5.947l-.09-.03-1.782.907v.14l.269-.1c.18-.07.348-.12.448-.12.21 0 .299.15.299.488v4.473c0 .548-.21.757-.947.797v.149h2.75z"/><path d="M72.734-45.207h8.43" stroke="#000" fill="none" stroke-width=".657" stroke-miterlimit="10"/><path d="M77.02-40.136h-.15c-.04.09-.11.2-.23.2-.278 0-.338-.2-.826-.2-1.544 0-2.68 1.574-2.68 2.988 0 .827.459 1.515 1.395 1.515.827 0 1.404-.488 1.933-1.086l-.12-.14c-.349.34-.857.678-1.434.678-.548 0-.917-.369-.917-1.006 0-.25 0-.458.07-.658h1.843l.05-.358H74.15c.22-.698.788-1.664 1.604-1.664.688 0 .857.588.927 1.046h.149l.19-1.315zm2.839 4.456c0 1.478-.337 2.337-.972 2.337-.642 0-.97-.851-.97-2.368 0-1.516.335-2.398.955-2.398.658 0 .987.874.987 2.428zm.717-.038c0-1.532-.68-2.585-1.659-2.585-1.202 0-1.718 1.218-1.718 2.54 0 1.225.411 2.615 1.688 2.615 1.218 0 1.689-1.285 1.689-2.57zm6.233-.766c-.329 1.324-.587 2.2-1.235 2.2-.09 0-.15-.039-.15-.118.02-.12.23-.26.23-.499 0-.219-.19-.298-.379-.298-.388 0-.697.328-.697.757 0 .289.209.538.717.538 1.385 0 2.152-1.246 2.6-3.048l4.174-16.974c.318-1.295.607-2.202 1.255-2.202.09 0 .15.04.15.11-.02.139-.23.239-.23.508 0 .219.19.298.378.298.39 0 .708-.328.708-.747 0-.298-.21-.547-.727-.547-1.415 0-2.192 1.344-2.67 3.287L86.81-36.484zm3.088 0c-.329 1.324-.588 2.2-1.235 2.2-.09 0-.15-.039-.15-.118.02-.12.23-.26.23-.499 0-.219-.19-.298-.379-.298-.388 0-.697.328-.697.757 0 .289.209.538.717.538 1.384 0 2.152-1.246 2.6-3.048l4.174-16.974c.318-1.295.607-2.202 1.255-2.202.09 0 .15.04.15.11-.02.139-.23.239-.23.508 0 .219.19.298.379.298.388 0 .707-.328.707-.747 0-.298-.21-.547-.727-.547-1.415 0-2.192 1.344-2.67 3.287l-4.124 16.735zm3.088 0c-.329 1.324-.588 2.2-1.235 2.2-.09 0-.15-.039-.15-.118.02-.12.23-.26.23-.499 0-.219-.19-.298-.38-.298-.388 0-.696.328-.696.757 0 .289.21.538.717.538 1.385 0 2.151-1.246 2.6-3.048l4.174-16.974c.318-1.295.607-2.202 1.255-2.202.09 0 .15.04.15.11-.02.139-.23.239-.23.508 0 .219.19.298.378.298.39 0 .708-.328.708-.747 0-.298-.21-.547-.727-.547-1.415 0-2.192 1.344-2.67 3.287l-4.124 16.735zm5.132 2.376h-.979c-.306 0-.463-.112-.463-.329 0-.082.007-.172.03-.269l-.127-.037-.314 1.337h2.024l.18-1.24c-.195-.06-.344-.202-.456-.41-.112-.218-.172-.487-.172-.815 0-.568.24-1.106.725-1.614.418-.433.896-.65 1.434-.65.695 0 1.046.456 1.046 1.352 0 .456-.127.882-.381 1.278-.306.47-.695.754-1.158.859l-.299 1.24h2.092l.418-1.3-.134-.037c-.09.239-.217.403-.366.493-.105.06-.306.112-.59.142h-.957l.053-.276c.597-.12 1.098-.374 1.479-.77.418-.433.627-.941.627-1.509 0-.486-.12-.881-.358-1.173-.3-.366-.77-.545-1.39-.545-.821 0-1.501.217-2.04.665a3.016 3.016 0 00-.679.777 2.026 2.026 0 00-.306 1.038c0 .777.366 1.278 1.098 1.517l-.037.276zm8.067-10.979c.219-.936.717-1.464 1.245-1.464.229 0 .508.2.508.827 0 1.116-.747 2.839-1.753 2.839a.636.636 0 01-.459-.21l.459-1.992zm-1.813 4.194h.827l.438-1.883c.19.14.368.18.608.18 1.434 0 2.53-1.684 2.53-2.969 0-1.006-.329-1.544-.937-1.544-.358 0-.657.13-.976.289-.667.329-1.265 1.016-1.653 2.58l-.837 3.347zm9.742-2.839c0 .07-.06.18-.15.279-.18.21-.428.319-.737.319-.837 0-1.375-.797-1.375-2.023 0-1.125.489-1.862 1.245-1.862.539 0 1.017.468 1.017.996v2.291zm1.504.598v-.16c-.17.01-.18.01-.23.01-.358 0-.438-.11-.438-.568v-5.647l-.05-.02c-.478.169-.826.268-1.464.438v.16c.08-.01.14-.01.22-.01.368 0 .458.099.458.507v1.554c-.379-.318-.648-.428-1.046-.428-1.146 0-2.072 1.125-2.072 2.54 0 1.275.737 2.142 1.843 2.142.557 0 .936-.2 1.275-.668v.638l.04.03 1.464-.518zm7.66-6.087h-2.4l-.04.16h.2c.378 0 .517.07.517.219 0 .21-.189.498-.378.737l-2.79 3.646-.04-.01v-3.895c0-.329.05-.697.698-.697h.19l.04-.16h-2.93l-.04.16c.608 0 .987.239.987.817v5.687h.239l4.393-5.737c.259-.339.667-.727 1.315-.767l.04-.16zm26.905 1.441l-1.235 5.02a2.634 2.634 0 01-1.544-2.39 2.617 2.617 0 012.61-2.63h.17zm-.318 5.24l1.235-5.021a2.66 2.66 0 011.564 2.41c0 1.474-1.236 2.61-2.68 2.61h-.12zm.438-5.719c-.1-.01-.19-.01-.289-.01a3.114 3.114 0 00-3.108 3.118c0 1.285.797 2.411 1.923 2.88l-1.425 5.787c-.329 1.324-.587 2.2-1.235 2.2-.09 0-.15-.039-.15-.118.02-.12.23-.26.23-.499 0-.219-.19-.298-.379-.298-.388 0-.697.328-.697.757 0 .289.209.538.717.538 1.385 0 2.162-1.246 2.6-3.048l1.245-5.09c.11.01.23.01.349.01 1.663 0 3.078-1.405 3.078-3.119 0-1.335-.817-2.43-1.943-2.888l1.445-5.887c.318-1.295.607-2.202 1.255-2.202.09 0 .15.04.15.11-.02.139-.23.239-.23.508 0 .219.19.298.378.298.39 0 .708-.328.708-.747 0-.298-.21-.547-.727-.547-1.415 0-2.192 1.344-2.67 3.287l-1.225 4.96zm2.882 12.469c0 .233-.045.486-.113.733-.209.762-.65 1.51-1.225 1.51-.47 0-.5-.449-.5-.733 0-1.039.642-2.151 1.382-2.151.201 0 .456.157.456.642zm-1.285-2.285c.186-.06.35-.097.552-.097.763 0 .98.695.98 1.352 0 .18-.023.359-.053.523-.157-.276-.478-.358-.717-.358-1.09 0-1.92 1.068-1.92 2.12 0 .636.284 1.211 1.016 1.211 1.748 0 2.203-2.024 2.203-3.13 0-1.27-.463-1.942-1.404-1.942-.254 0-.523.045-.732.172l.075.15zm8.035-.209h-3.99l1.57 2.435-2.824 2.443h4.228l.62-1.427h-.12c-.269.56-.612.814-1.187.814h-2.354l2.369-2.084-1.203-1.905h1.531c.478 0 .964.015.964.695 0 .075 0 .164-.022.217h.119l.299-1.188zm9.398-11.096h-5.599l-.04.229h.37c.418 0 .587.15.587.418 0 .05-.01.1-.02.16l-1.146 5.02c-.09.389-.258.608-.846.608h-.359l-.04.229h5.977l.608-2.052h-.22c-.418 1.185-1.155 1.604-2.61 1.604h-.647c-.309 0-.418-.06-.418-.2 0-.04.01-.11.02-.169l.578-2.57h.687c.289 0 .847.03.847.458 0 .18-.03.528-.06.648h.23l.537-2.5h-.22c-.209.856-.806.946-1.364.946h-.548l.548-2.38h1.345c.458 0 1.195.119 1.205.846 0 .1 0 .209-.03.378h.23l.398-1.673zm4.63 4.144a.604.604 0 00-.588-.598.629.629 0 00-.608.598.63.63 0 00.608.598c.319 0 .588-.28.588-.598zm6.424 1.504c0 .07-.06.18-.15.279-.18.21-.428.319-.737.319-.837 0-1.375-.797-1.375-2.023 0-1.125.489-1.862 1.245-1.862.538 0 1.017.468 1.017.996v2.291zm1.504.598v-.16c-.17.01-.18.01-.23.01-.358 0-.438-.11-.438-.568v-5.647l-.05-.02c-.478.169-.826.268-1.464.438v.16c.08-.01.14-.01.22-.01.368 0 .458.099.458.507v1.554c-.379-.318-.648-.428-1.046-.428-1.146 0-2.072 1.125-2.072 2.54 0 1.275.737 2.142 1.843 2.142.558 0 .936-.2 1.275-.668v.638l.04.03 1.464-.518zm3.178-6.405l-1.932.368.05.28c.169-.05.348-.1.438-.1.07 0 .11.03.11.149 0 .05-.01.1-.02.16l-1.176 5.13c-.05.209-.06.358-.06.468 0 .298.279.458.598.458.677 0 1.285-.588 1.524-.967l-.19-.149c-.199.26-.338.369-.517.369-.11 0-.17-.08-.18-.14 0-.09.01-.2.04-.309l1.315-5.717zm9.472 5.628v-.658h-5.868v.658h5.868zm0-1.992v-.658h-5.868v.658h5.868zm9.424.995v-.657h-5.548v.657h5.548zm6.796-4.602c0 .07-.059.18-.148.279-.18.21-.429.319-.738.319-.837 0-1.374-.797-1.374-2.023 0-1.125.488-1.862 1.245-1.862.538 0 1.016.468 1.016.996v2.291zm1.505.598v-.16c-.17.01-.18.01-.23.01-.358 0-.438-.11-.438-.568v-5.647l-.05-.02c-.477.169-.826.268-1.464.438v.16c.08-.01.14-.01.22-.01.368 0 .458.099.458.507v1.554c-.379-.318-.648-.428-1.046-.428-1.146 0-2.072 1.125-2.072 2.54 0 1.275.737 2.142 1.843 2.142.558 0 .936-.2 1.275-.668v.638l.04.03 1.464-.518z"/><path d="M205.813-45.207h8.101" stroke="#000" fill="none" stroke-width=".657" stroke-miterlimit="10"/><path d="M209.2-36.759c0 .07-.059.18-.149.279-.179.21-.428.319-.737.319-.837 0-1.374-.797-1.374-2.023 0-1.125.488-1.862 1.245-1.862.538 0 1.016.468 1.016.996v2.291zm1.505.598v-.16c-.17.01-.18.01-.23.01-.358 0-.438-.11-.438-.568v-5.647l-.05-.02c-.477.169-.826.268-1.464.438v.16c.08-.01.14-.01.22-.01.368 0 .458.099.458.507v1.554c-.379-.318-.648-.428-1.046-.428-1.146 0-2.072 1.125-2.072 2.54 0 1.275.737 2.142 1.843 2.142.558 0 .936-.2 1.275-.668v.638l.04.03 1.464-.518zm2.91-3.945h-.698l.309-1.285h-.13c-.408.867-1.016 1.235-1.763 1.375l-.05.289h.767l-.807 3.187c-.03.11-.05.24-.05.369 0 .269.08.518.39.518.587 0 1.085-.757 1.324-1.066l-.13-.11c-.368.498-.597.518-.597.518-.13 0-.16-.06-.16-.12 0-.03.01-.079.02-.109l.777-3.187h.698l.1-.38zm5.945 3.622c-.33 1.324-.588 2.2-1.236 2.2-.09 0-.15-.039-.15-.118.02-.12.23-.26.23-.499 0-.219-.19-.298-.379-.298-.388 0-.697.328-.697.757 0 .289.209.538.717.538 1.385 0 2.152-1.246 2.6-3.048l4.174-16.974c.318-1.295.607-2.202 1.255-2.202.09 0 .15.04.15.11-.02.139-.23.239-.23.508 0 .219.19.298.378.298.39 0 .708-.328.708-.747 0-.298-.21-.547-.727-.547-1.415 0-2.192 1.344-2.67 3.287l-4.124 16.735zm3.087 0c-.329 1.324-.588 2.2-1.235 2.2-.09 0-.15-.039-.15-.118.02-.12.23-.26.23-.499 0-.219-.19-.298-.379-.298-.388 0-.697.328-.697.757 0 .289.209.538.717.538 1.384 0 2.152-1.246 2.6-3.048l4.174-16.974c.318-1.295.607-2.202 1.255-2.202.09 0 .15.04.15.11-.02.139-.23.239-.23.508 0 .219.19.298.379.298.388 0 .707-.328.707-.747 0-.298-.21-.547-.727-.547-1.415 0-2.192 1.344-2.67 3.287l-4.124 16.735zm8.716-1.8h-3.989l1.569 2.435-2.824 2.443h4.228l.62-1.427h-.12c-.268.56-.612.814-1.187.814h-2.353l2.368-2.084-1.203-1.905h1.532c.478 0 .963.015.963.695 0 .075 0 .164-.022.217h.12l.298-1.188zm5.6-7.659h.308c.688 0 1.216.269 1.216 1.025 0 1.076-.778 1.754-1.644 1.754-.18 0-.329-.01-.518-.05l.638-2.73zm.667-2.989h.488c.637 0 .737.638.737.986 0 .738-.349 1.335-1.086 1.495-.12.03-.259.04-.398.04-.11 0-.2 0-.319-.02l.578-2.5zm-2.42-.448l-.03.229h.368c.448 0 .538.13.558.369 0 .06 0 .14-.02.219l-1.156 5c-.09.389-.229.618-.826.618h-.399l-.04.229h3.387c2.092 0 2.978-.867 2.978-2.122 0-.727-.717-1.215-1.294-1.325a4 4 0 00.637-.239c.568-.269.996-.727.996-1.464 0-1.295-1.285-1.514-2.52-1.514h-2.64zm9.9 4.144a.604.604 0 00-.588-.598.629.629 0 00-.607.598c0 .299.278.598.607.598.319 0 .588-.28.588-.598zm6.424 1.504c0 .07-.06.18-.15.279-.179.21-.428.319-.737.319-.837 0-1.374-.797-1.374-2.023 0-1.125.488-1.862 1.245-1.862.538 0 1.016.468 1.016.996v2.291zm1.504.598v-.16c-.17.01-.18.01-.23.01-.358 0-.438-.11-.438-.568v-5.647l-.05-.02c-.477.169-.826.268-1.464.438v.16c.08-.01.14-.01.22-.01.368 0 .458.099.458.507v1.554c-.379-.318-.648-.428-1.046-.428-1.146 0-2.072 1.125-2.072 2.54 0 1.275.737 2.142 1.843 2.142.558 0 .936-.2 1.275-.668v.638l.04.03 1.464-.518zm7.103-6.375h-.22c-.059.229-.318.368-.497.368-.319 0-.887-.398-1.783-.398-1.644 0-2.361.786-2.361 1.683 0 1.136 1.305 1.813 1.932 2.44.26.26.429.718.429 1.126 0 .648-.409 1.186-1.345 1.186-1.165 0-1.793-.768-1.793-1.624v-.349h-.24l-.587 2.44h.22a.885.885 0 01.677-.388c.12 0 .348.07.408.09.438.179.917.319 1.564.319 1.624 0 2.56-.997 2.56-1.913 0-.886-.588-1.584-1.255-2.092-.578-.438-1.126-.876-1.126-1.613 0-.628.638-.837.997-.837.956 0 1.653.588 1.683 1.245.01.17.01.289.01.498h.229l.498-2.181zM16.31-16.002c-.628-.458-1.006-1.105-1.006-1.863 0-1.125.836-2.021 2.061-2.42l-1.055 4.283zm2.898.737c-.13.02-.269.02-.408.02-.598 0-1.155-.1-1.644-.289l1.215-4.95c.14-.01.28-.02.429-.02.588 0 1.145.1 1.634.289l-1.226 4.95zm2.072-4.492c.638.468 1.026 1.126 1.026 1.892 0 1.126-.846 2.013-2.082 2.401l1.056-4.293zm-.727-.946a5.098 5.098 0 00-1.753-.3c-.1 0-.2 0-.299.01l1.375-5.588c.319-1.294.607-2.201 1.255-2.201.09 0 .15.04.15.11-.02.139-.23.239-.23.508 0 .219.19.299.379.299.388 0 .707-.33.707-.748 0-.298-.21-.547-.727-.547-1.415 0-2.192 1.344-2.67 3.287l-1.235 5.03c-1.524.399-2.7 1.474-2.7 2.978 0 1.027.548 1.844 1.375 2.381l-1.564 6.346c-.329 1.324-.587 2.2-1.235 2.2-.09 0-.15-.039-.15-.118.02-.12.23-.26.23-.499 0-.219-.19-.298-.379-.298-.388 0-.697.328-.697.757 0 .289.209.538.717.538 1.385 0 2.162-1.246 2.6-3.048l1.335-5.45c.538.2 1.145.31 1.763.31.09 0 .19 0 .289-.01l-1.385 5.618c-.329 1.324-.588 2.2-1.235 2.2-.09 0-.15-.039-.15-.118.02-.12.23-.26.23-.499 0-.219-.19-.298-.379-.298-.388 0-.697.328-.697.757 0 .289.209.538.717.538 1.385 0 2.152-1.246 2.6-3.048l1.305-5.3c1.524-.389 2.71-1.454 2.71-2.959 0-1.026-.559-1.862-1.395-2.41l1.554-6.306c.318-1.294.607-2.201 1.255-2.201.09 0 .15.04.15.11-.02.139-.23.239-.23.508 0 .219.19.299.379.299.388 0 .707-.33.707-.748 0-.298-.21-.547-.727-.547-1.415 0-2.192 1.344-2.67 3.287l-1.275 5.17zm2.932 12.26c0 .232-.045.486-.113.732-.209.762-.65 1.51-1.225 1.51-.47 0-.5-.449-.5-.733 0-1.038.642-2.151 1.382-2.151.201 0 .456.157.456.642zM22.2-10.73c.186-.06.35-.097.552-.097.763 0 .98.695.98 1.352 0 .18-.023.359-.053.523-.157-.276-.478-.358-.717-.358-1.09 0-1.92 1.068-1.92 2.12 0 .636.284 1.211 1.016 1.211 1.748 0 2.203-2.024 2.203-3.13 0-1.27-.463-1.942-1.404-1.942-.254 0-.523.045-.732.172l.075.15zm4.45 3.968h-.98c-.306 0-.462-.112-.462-.329 0-.082.007-.172.03-.269l-.128-.037-.313 1.337h2.024L27-7.3c-.195-.06-.344-.202-.456-.41-.112-.217-.172-.487-.172-.815 0-.568.239-1.106.725-1.614.418-.433.896-.65 1.434-.65.694 0 1.046.456 1.046 1.352 0 .456-.128.882-.381 1.278-.307.47-.695.754-1.159.859l-.298 1.24h2.092l.418-1.3-.135-.037c-.09.239-.216.403-.366.493-.104.06-.306.112-.59.142h-.956l.052-.276c.598-.12 1.098-.374 1.48-.77.418-.433.627-.941.627-1.509 0-.485-.12-.881-.359-1.173-.299-.366-.77-.545-1.39-.545-.82 0-1.5.217-2.039.665a3.016 3.016 0 00-.68.777c-.201.343-.306.687-.306 1.038 0 .777.366 1.278 1.099 1.517l-.038.276zm9.674-11.836h.308c.688 0 1.216.27 1.216 1.026 0 1.076-.777 1.754-1.644 1.754-.18 0-.329-.01-.518-.05l.638-2.73zm.667-2.988h.488c.637 0 .737.638.737.986 0 .737-.349 1.335-1.085 1.495-.12.03-.26.04-.399.04-.11 0-.2 0-.319-.02l.578-2.501zm-2.42-.448l-.03.229h.368c.448 0 .538.13.558.369 0 .06 0 .14-.02.219l-1.156 5c-.09.389-.229.618-.826.618h-.399l-.04.229h3.387c2.092 0 2.978-.867 2.978-2.122 0-.727-.717-1.215-1.294-1.325a4 4 0 00.637-.239c.568-.269.996-.727.996-1.464 0-1.295-1.285-1.514-2.52-1.514h-2.64zm9.899 4.144a.604.604 0 00-.587-.598.629.629 0 00-.608.598c0 .299.28.597.608.597a.604.604 0 00.588-.597zm6.425 1.504c0 .07-.06.18-.15.279-.179.21-.428.319-.737.319-.837 0-1.374-.797-1.374-2.023 0-1.125.488-1.862 1.245-1.862.538 0 1.016.468 1.016.996v2.291zm1.504.598v-.16c-.17.01-.18.01-.23.01-.358 0-.438-.11-.438-.568v-5.647l-.05-.02c-.477.169-.826.268-1.464.438v.159c.08-.01.14-.01.22-.01.368 0 .458.1.458.508v1.554c-.379-.319-.648-.428-1.046-.428-1.146 0-2.072 1.125-2.072 2.54 0 1.275.737 2.142 1.843 2.142.558 0 .936-.2 1.275-.668v.638l.04.03 1.464-.518zm7.103-6.375h-.22c-.059.229-.318.368-.497.368-.319 0-.887-.398-1.783-.398-1.644 0-2.361.786-2.361 1.683 0 1.136 1.305 1.813 1.932 2.44.26.26.429.718.429 1.126 0 .648-.409 1.186-1.345 1.186-1.165 0-1.793-.768-1.793-1.624v-.349h-.24l-.587 2.44h.22a.885.885 0 01.677-.388c.12 0 .348.07.408.09.438.179.917.319 1.564.319 1.624 0 2.56-.997 2.56-1.913 0-.886-.588-1.584-1.255-2.092-.578-.438-1.126-.876-1.126-1.613 0-.628.638-.837.996-.837.957 0 1.654.587 1.684 1.245.01.17.01.289.01.498h.229l.498-2.181zm8.785 5.598v-.658H62.42v.658h5.867zm0-1.993v-.657H62.42v.657h5.867zm7.023-.05c0 1.973-.448 3.118-1.294 3.118-.857 0-1.295-1.135-1.295-3.157s.448-3.198 1.275-3.198c.877 0 1.315 1.166 1.315 3.237zm.957-.05c0-2.041-.906-3.446-2.211-3.446-1.604 0-2.291 1.624-2.291 3.387 0 1.634.547 3.486 2.25 3.486 1.625 0 2.252-1.713 2.252-3.426zm73.915-1.777l-1.235 5.021a2.634 2.634 0 01-1.544-2.39 2.617 2.617 0 012.61-2.63h.17zm-.318 5.24l1.235-5.02a2.66 2.66 0 011.564 2.41c0 1.474-1.236 2.61-2.68 2.61h-.12zm.438-5.718c-.1-.01-.19-.01-.289-.01a3.114 3.114 0 00-3.108 3.118c0 1.285.797 2.411 1.923 2.88l-1.425 5.787c-.329 1.324-.587 2.2-1.235 2.2-.09 0-.15-.039-.15-.118.02-.12.23-.26.23-.499 0-.219-.19-.298-.379-.298-.388 0-.697.328-.697.757 0 .289.209.538.717.538 1.385 0 2.162-1.246 2.6-3.048l1.245-5.09c.11.01.23.01.349.01 1.663 0 3.078-1.405 3.078-3.119 0-1.335-.817-2.43-1.943-2.888l1.445-5.887c.318-1.296.607-2.202 1.255-2.202.09 0 .15.04.15.11-.02.139-.23.239-.23.508 0 .219.19.299.378.299.39 0 .708-.33.708-.748 0-.298-.21-.547-.727-.547-1.415 0-2.192 1.344-2.67 3.287l-1.225 4.96zm2.882 12.47c0 .232-.045.486-.113.732-.209.762-.65 1.51-1.225 1.51-.47 0-.5-.449-.5-.733 0-1.038.642-2.151 1.382-2.151.201 0 .456.157.456.642zm-1.285-2.286c.186-.06.35-.097.552-.097.763 0 .98.695.98 1.352 0 .18-.023.359-.053.523-.157-.276-.478-.358-.717-.358-1.09 0-1.92 1.068-1.92 2.12 0 .636.284 1.211 1.016 1.211 1.748 0 2.203-2.024 2.203-3.13 0-1.27-.463-1.942-1.404-1.942-.254 0-.523.045-.732.172l.075.15zm8.035-.209h-3.99l1.57 2.435-2.824 2.443h4.228l.62-1.427h-.12c-.269.56-.612.815-1.187.815h-2.354l2.369-2.085-1.203-1.905h1.531c.478 0 .964.015.964.695 0 .075 0 .165-.022.217h.119l.299-1.188zm5.603-7.66h.308c.688 0 1.216.27 1.216 1.026 0 1.076-.778 1.754-1.644 1.754-.18 0-.329-.01-.518-.05l.638-2.73zm.667-2.988h.488c.637 0 .737.638.737.986 0 .737-.349 1.335-1.086 1.495-.12.03-.259.04-.398.04-.11 0-.2 0-.319-.02l.578-2.501zm-2.42-.448l-.03.229h.368c.448 0 .538.13.558.369 0 .06 0 .14-.02.219l-1.156 5c-.09.389-.229.618-.826.618h-.399l-.04.229h3.387c2.092 0 2.978-.867 2.978-2.122 0-.727-.717-1.215-1.294-1.325a4 4 0 00.637-.239c.568-.269.996-.727.996-1.464 0-1.295-1.285-1.514-2.52-1.514h-2.64zm9.9 4.144a.604.604 0 00-.588-.598.629.629 0 00-.607.598c0 .299.278.597.607.597a.604.604 0 00.588-.597zm6.424 1.504c0 .07-.06.18-.15.279-.179.21-.428.319-.737.319-.837 0-1.374-.797-1.374-2.023 0-1.125.488-1.862 1.245-1.862.538 0 1.016.468 1.016.996v2.291zm1.504.598v-.16c-.17.01-.18.01-.23.01-.358 0-.438-.11-.438-.568v-5.647l-.05-.02c-.477.169-.826.268-1.464.438v.159c.08-.01.14-.01.22-.01.368 0 .458.1.458.508v1.554c-.379-.319-.648-.428-1.046-.428-1.146 0-2.072 1.125-2.072 2.54 0 1.275.737 2.142 1.843 2.142.558 0 .936-.2 1.275-.668v.638l.04.03 1.464-.518zm3.178-6.405l-1.932.368.05.279c.169-.05.348-.1.438-.1.07 0 .11.03.11.15 0 .05-.01.1-.02.16l-1.176 5.13c-.05.208-.06.358-.06.468 0 .298.28.458.598.458.677 0 1.285-.588 1.524-.967l-.19-.149c-.198.26-.338.368-.517.368-.11 0-.17-.08-.18-.139 0-.09.01-.2.04-.309l1.315-5.717zm9.472 5.628v-.658h-5.867v.658h5.867zm0-1.993v-.657h-5.867v.657h5.867zm8.707-1.075h-.777l-.16.707c-.189.827-1.434 2.978-1.962 2.978-.398 0-.537-.18-.537-.448 0-.09.02-.18.04-.269l.706-2.968h-.786l-1.245 4.95c-.15.608-.31.937-.449 1.136h.737c.23-.259.299-.598.658-2.012.05.14.239.249.408.249.458 0 .966-.448 1.933-1.903-.19.767-.33 1.425-.33 1.704 0 .278.12.408.41.408.468 0 1.155-.618 1.304-1.056l-.15-.06c-.119.21-.338.479-.567.479-.12 0-.17-.06-.17-.14 0-.1.04-.23.08-.389l.857-3.366zm3.154 4.325c0 1.48-.336 2.338-.971 2.338-.643 0-.971-.851-.971-2.368 0-1.516.336-2.398.956-2.398.657 0 .986.874.986 2.428zm.717-.037c0-1.532-.68-2.585-1.658-2.585-1.203 0-1.719 1.218-1.719 2.54 0 1.225.411 2.615 1.689 2.615 1.217 0 1.688-1.285 1.688-2.57zm5.038 6.207c-.329 1.324-.587 2.2-1.235 2.2-.09 0-.15-.039-.15-.118.02-.12.23-.26.23-.499 0-.219-.19-.298-.379-.298-.388 0-.697.328-.697.757 0 .289.209.538.717.538 1.385 0 2.152-1.246 2.6-3.048l4.174-16.975c.319-1.294.607-2.201 1.255-2.201.09 0 .15.04.15.11-.02.139-.23.239-.23.508 0 .219.19.299.379.299.388 0 .707-.33.707-.748 0-.298-.21-.547-.727-.547-1.415 0-2.192 1.344-2.67 3.287l-4.124 16.735zm3.088 0c-.329 1.324-.588 2.2-1.235 2.2-.09 0-.15-.039-.15-.118.02-.12.23-.26.23-.499 0-.219-.19-.298-.379-.298-.388 0-.697.328-.697.757 0 .289.209.538.717.538 1.385 0 2.152-1.246 2.6-3.048l4.174-16.975c.318-1.294.607-2.201 1.255-2.201.09 0 .15.04.15.11-.02.139-.23.239-.23.508 0 .219.19.299.379.299.388 0 .707-.33.707-.748 0-.298-.21-.547-.727-.547-1.415 0-2.192 1.344-2.67 3.287l-4.124 16.735zm8.716-1.8h-3.989l1.569 2.435-2.824 2.443h4.228l.62-1.427h-.12c-.268.56-.612.815-1.187.815h-2.353l2.368-2.085-1.203-1.905h1.532c.478 0 .963.015.963.695 0 .075 0 .165-.022.217h.12l.298-1.188zm8.319-11.096h-3.606l-.03.229h.379c.408 0 .557.13.557.359 0 .07-.01.14-.03.219l-1.045 4.612c-.06.259-.21.926-.429.926-.04 0-.189-.02-.189-.18 0-.268.269-.258.269-.587 0-.309-.398-.577-.807-.577-.647 0-.846.438-.846.776 0 .538.647 1.007 1.434 1.007.259 0 .807-.04 1.175-.29.459-.298.787-.756.947-1.474l.956-4.183c.09-.409.279-.608.867-.608h.368l.03-.23zm4.633 4.144a.604.604 0 00-.588-.598.629.629 0 00-.608.598c0 .299.28.597.608.597a.604.604 0 00.588-.597zm10.05-4.273h-.22c-.06.229-.319.368-.498.368-.318 0-.886-.398-1.783-.398-1.643 0-2.36.786-2.36 1.683 0 1.136 1.304 1.813 1.932 2.44.259.26.428.718.428 1.126 0 .648-.408 1.186-1.344 1.186-1.166 0-1.793-.768-1.793-1.624v-.349h-.24l-.587 2.44h.219a.885.885 0 01.677-.388c.12 0 .349.07.409.09.438.179.916.319 1.563.319 1.624 0 2.56-.997 2.56-1.913 0-.886-.587-1.584-1.255-2.092-.577-.438-1.125-.876-1.125-1.613 0-.628.637-.837.996-.837.956 0 1.654.587 1.683 1.245.01.17.01.289.01.498h.23l.498-2.181zm8.945 4.601v-.657h-2.6v-2.6h-.657v2.6h-2.6v.657h2.6v2.6h.657v-2.6h2.6zm8.169-2.071h-.777l-.16.707c-.188.827-1.434 2.978-1.962 2.978-.398 0-.537-.18-.537-.448 0-.09.02-.18.04-.269l.706-2.968h-.786l-1.245 4.95c-.15.608-.31.937-.449 1.136h.737c.23-.259.3-.598.658-2.012.05.14.239.249.408.249.458 0 .966-.448 1.933-1.903-.19.767-.329 1.425-.329 1.704 0 .278.12.408.408.408.469 0 1.156-.618 1.305-1.056l-.15-.06c-.119.21-.338.479-.567.479-.12 0-.17-.06-.17-.14 0-.1.04-.23.08-.389l.857-3.366zm3.15 4.325c0 1.48-.336 2.338-.971 2.338-.643 0-.971-.851-.971-2.368 0-1.516.336-2.398.956-2.398.657 0 .986.874.986 2.428zm.717-.037c0-1.532-.68-2.585-1.658-2.585-1.203 0-1.719 1.218-1.719 2.54 0 1.225.411 2.615 1.689 2.615 1.217 0 1.688-1.285 1.688-2.57zm4.872-4.418h-.15c-.039.09-.109.2-.228.2-.28 0-.339-.2-.827-.2-1.544 0-2.68 1.574-2.68 2.988 0 .827.459 1.515 1.395 1.515.827 0 1.404-.488 1.933-1.086l-.12-.14c-.349.34-.857.678-1.434.678-.548 0-.917-.369-.917-1.006 0-.25 0-.459.07-.658h1.843l.05-.358h-1.804c.22-.698.788-1.664 1.604-1.664.688 0 .857.588.927 1.046h.15l.188-1.315zm2.84 4.455c0 1.48-.336 2.338-.971 2.338-.643 0-.971-.851-.971-2.368 0-1.516.336-2.398.956-2.398.657 0 .986.874.986 2.428zm.717-.037c0-1.532-.68-2.585-1.658-2.585-1.203 0-1.719 1.218-1.719 2.54 0 1.225.411 2.615 1.689 2.615 1.217 0 1.688-1.285 1.688-2.57zm6.73-6.819c0 .07-.06.18-.15.279-.179.21-.428.319-.737.319-.837 0-1.374-.797-1.374-2.023 0-1.125.488-1.862 1.245-1.862.538 0 1.016.468 1.016.996v2.291zm1.504.598v-.16c-.17.01-.18.01-.23.01-.358 0-.438-.11-.438-.568v-5.647l-.05-.02c-.477.169-.826.268-1.464.438v.16c.08-.01.14-.01.22-.01.368 0 .458.099.458.507v1.554c-.379-.319-.648-.428-1.046-.428-1.146 0-2.072 1.125-2.072 2.54 0 1.275.737 2.142 1.843 2.142.558 0 .936-.2 1.275-.668v.638l.04.03 1.464-.518z"/><path d="M277.879-17.86h8.098" stroke="#000" fill="none" stroke-width=".657" stroke-miterlimit="10"/><path d="M281.264-9.413c0 .07-.06.18-.15.279-.179.21-.428.319-.737.319-.837 0-1.374-.797-1.374-2.023 0-1.125.488-1.862 1.245-1.862.538 0 1.016.468 1.016.996v2.291zm1.504.598v-.16c-.17.01-.18.01-.23.01-.358 0-.438-.11-.438-.568v-5.647l-.05-.02c-.477.169-.826.268-1.464.438v.159c.08-.01.14-.01.22-.01.368 0 .458.1.458.508v1.554c-.379-.319-.648-.428-1.046-.428-1.146 0-2.072 1.125-2.072 2.54 0 1.275.737 2.142 1.843 2.142.558 0 .936-.2 1.275-.668v.638l.04.03 1.464-.518zm2.91-3.945h-.698l.309-1.285h-.13c-.408.867-1.016 1.235-1.763 1.375l-.05.289h.767l-.807 3.187c-.03.11-.05.24-.05.369 0 .269.08.518.39.518.587 0 1.085-.758 1.324-1.066l-.13-.11c-.368.498-.597.518-.597.518-.13 0-.16-.06-.16-.12 0-.03.01-.079.02-.109l.777-3.187h.698l.1-.38zm5.944 3.622c-.329 1.324-.587 2.2-1.235 2.2-.09 0-.15-.039-.15-.118.02-.12.23-.26.23-.499 0-.219-.19-.298-.379-.298-.388 0-.697.328-.697.757 0 .289.209.538.717.538 1.385 0 2.152-1.246 2.6-3.048l4.174-16.975c.318-1.294.607-2.201 1.255-2.201.09 0 .15.04.15.11-.02.139-.23.239-.23.508 0 .219.19.299.378.299.39 0 .708-.33.708-.748 0-.298-.21-.547-.727-.547-1.415 0-2.192 1.344-2.67 3.287l-4.124 16.735zm3.088 0c-.329 1.324-.588 2.2-1.235 2.2-.09 0-.15-.039-.15-.118.02-.12.23-.26.23-.499 0-.219-.19-.298-.379-.298-.388 0-.697.328-.697.757 0 .289.209.538.717.538 1.384 0 2.152-1.246 2.6-3.048l4.173-16.975c.32-1.294.608-2.201 1.256-2.201.09 0 .15.04.15.11-.02.139-.23.239-.23.508 0 .219.19.299.379.299.388 0 .707-.33.707-.748 0-.298-.21-.547-.727-.547-1.415 0-2.192 1.344-2.67 3.287L294.71-9.138zm8.716-1.8h-3.989l1.569 2.435-2.824 2.443h4.228l.62-1.427h-.12c-.268.56-.612.815-1.187.815h-2.353l2.368-2.085-1.203-1.905h1.532c.478 0 .963.015.963.695 0 .075 0 .165-.022.217h.12l.298-1.188zm9.394-11.096h-5.598l-.04.229h.37c.418 0 .587.15.587.418 0 .05-.01.1-.02.16l-1.146 5.02c-.09.389-.258.608-.846.608h-.359l-.04.229h5.977l.608-2.052h-.22c-.418 1.185-1.155 1.604-2.61 1.604h-.647c-.309 0-.418-.06-.418-.2 0-.04.01-.11.02-.169l.578-2.57h.687c.289 0 .847.03.847.458 0 .18-.03.528-.06.648h.229l.538-2.5h-.22c-.209.856-.806.946-1.364.946h-.548l.548-2.381h1.345c.458 0 1.195.12 1.205.847 0 .1 0 .209-.03.378h.23l.398-1.673zm4.63 4.144a.604.604 0 00-.587-.598.629.629 0 00-.608.598c0 .299.28.597.608.597a.604.604 0 00.588-.597zm6.425 1.504c0 .07-.06.18-.15.279-.18.21-.428.319-.737.319-.837 0-1.375-.797-1.375-2.023 0-1.125.488-1.862 1.245-1.862.538 0 1.017.468 1.017.996v2.291zm1.504.598v-.16c-.17.01-.18.01-.23.01-.358 0-.438-.11-.438-.568v-5.647l-.05-.02c-.478.169-.826.268-1.464.438v.159c.08-.01.14-.01.22-.01.368 0 .458.1.458.508v1.554c-.379-.319-.648-.428-1.046-.428-1.146 0-2.072 1.125-2.072 2.54 0 1.275.737 2.142 1.843 2.142.558 0 .936-.2 1.275-.668v.638l.04.03 1.464-.518zm7.103-6.375h-.22c-.06.229-.318.368-.497.368-.32 0-.887-.398-1.784-.398-1.643 0-2.36.786-2.36 1.683 0 1.136 1.305 1.813 1.932 2.44.26.26.428.718.428 1.126 0 .648-.408 1.186-1.344 1.186-1.166 0-1.793-.768-1.793-1.624v-.349h-.24l-.587 2.44h.219a.885.885 0 01.677-.388c.12 0 .35.07.409.09.438.179.916.319 1.564.319 1.623 0 2.56-.997 2.56-1.913 0-.886-.588-1.584-1.255-2.092-.578-.438-1.126-.876-1.126-1.613 0-.628.637-.837.996-.837.957 0 1.654.587 1.684 1.245.01.17.01.289.01.498h.229l.498-2.181z"/></svg>