<svg xmlns="http://www.w3.org/2000/svg" xmlns:xlink="http://www.w3.org/1999/xlink" width="500pt" height="348" viewBox="0 0 500 261"><defs><symbol overflow="visible" id="a"><path d="M4.738-8.14C3.578-6.88 2.121-5.82.36-4.97l.352.63C2.48-5.23 3.91-6.282 5-7.49c1.18 1.272 2.59 2.3 4.25 3.1l.36-.64a14.128 14.128 0 01-4.348-3.11zM2.211-4.98v.69h2.418v1.74H1.73v.69h2.9v1.848H.839V.7h8.333v-.71h-3.8v-1.85h2.89v-.692h-2.89V-4.29h2.417v-.691zm0 0"/></symbol><symbol overflow="visible" id="b"><path d="M2.52-6.121v.652h2.109v1.438h-1.79v.64h1.79v1.59H2.25v.66h5.512v-.66h-2.39v-1.59H7.16v-.64H5.371V-5.47H7.47v-.652zm6.59-1.59H.89V.98h.731V.55H8.38v.43h.73zM1.62-.129V-7.03h6.76v6.9zm4.93-3.05l-.57.19c.238.329.46.72.66 1.169l.558-.258A6.323 6.323 0 006.55-3.18zm0 0"/></symbol><symbol overflow="visible" id="c"><path d="M7.04-4.73h1.51v1.808H7.04zm1.51-.63H7.04v-1.78h1.51zM7.02-2.28h1.53v2.22c0 .278-.12.43-.35.43-.24 0-.49-.02-.759-.043l.168.64h.79C8.94.969 9.21.7 9.21.173V-7.8H6.379v5.082C6.359-1.422 6.07-.339 5.5.5l.52.46c.59-.839.921-1.92 1-3.241zm-5.9-5.67l-.492.46c.68.5 1.21.977 1.59 1.419l.5-.489A11.92 11.92 0 001.12-7.95zm-.2 2.34l-.491.46c.691.53 1.231 1.03 1.621 1.49l.5-.488c-.44-.48-.991-.973-1.628-1.461zm1.03 2.649A33.47 33.47 0 01.56.58l.652.28c.5-1.12.95-2.308 1.36-3.57zm3.762-.64H4.69V-5.5h1.297v-.648H4.691v-1.73H4v1.73H2.7v.648H4v1.898H2.95V.41h.66v-.59h2.1zM3.61-.801v-2.18h1.46V-.8zm0 0"/></symbol><symbol overflow="visible" id="d"><path d="M3.32-8.14v2.769H.672v.691H3.32v3.211c-.89.418-1.82.739-2.8.957L.69.2c.93-.258 1.809-.57 2.63-.949V.93h.738v-9.07zM8.22.84c.43 0 .73-.121.89-.36.16-.25.262-.96.32-2.128l-.679-.223c-.031 1.02-.09 1.61-.172 1.793C8.48.078 8.32.16 8.102.16h-1.25c-.25 0-.372-.148-.372-.43v-3.84c.93-.32 1.91-.788 2.95-1.421l-.418-.59c-.82.57-1.66 1.012-2.532 1.332v-3.352h-.73v7.98c0 .661.309 1 .941 1zm0 0"/></symbol><symbol overflow="visible" id="e"><path d="M1.23-8l-.511.488c.601.5 1.062.98 1.402 1.434l.5-.5A11.5 11.5 0 001.231-8zM.988-5.61l-.5.489c.602.5 1.082.98 1.422 1.441l.5-.5c-.379-.48-.86-.949-1.422-1.43zm.793 2.66A36.295 36.295 0 01.578.63l.672.293A42.328 42.328 0 002.41-2.71zm3.68-1.081c-.313.18-.633.351-.95.511v-2.152h.91V-6.3h-.91v-1.84H3.81v1.84H2.74v.63h1.07v2.452c-.368.14-.75.27-1.137.38l.168.69c.32-.113.64-.23.969-.363V-.16c0 .32-.11.48-.329.48C3.238.32 3 .3 2.738.281l.153.63h.808c.54 0 .813-.31.813-.911v-2.82c.316-.149.629-.309.949-.48zm3.578-3.95c-.91.36-1.93.56-3.07.583v3.847c-.047 1.7-.36 3.04-.938 4l.489.52c.699-1.13 1.07-2.64 1.12-4.52v-.71h1.282v5.28h.68v-5.28h.968v-.65H6.64v-1.91c1-.058 1.91-.25 2.731-.55zm0 0"/></symbol><symbol overflow="visible" id="f"><path d="M6.07-6.86v6.79h-3v.69h6.48v-.69H6.782v-6.79h2.43v-.68H3.559v.68zM1.25-7.987L.738-7.5c.762.5 1.364.98 1.801 1.43l.5-.5c-.48-.47-1.078-.942-1.789-1.418zM.988-5.602l-.5.493c.75.507 1.34 1 1.762 1.46l.5-.5A11.644 11.644 0 00.988-5.601zM2.27-2.949A28.672 28.672 0 01.61.6l.66.29a30.8 30.8 0 001.628-3.602zm0 0"/></symbol><symbol overflow="visible" id="g"><path d="M5.262-8.32l-.793.14c.203.32.39.68.55 1.07H1.302v2.93C1.28-2.16.98-.59.42.55l.59.528C1.662-.238 2-1.988 2.04-4.18v-2.242h7.41v-.687H5.81c-.18-.45-.36-.852-.547-1.211zm0 0"/></symbol><symbol overflow="visible" id="h"><path d="M.781-6.96v.698h2.14c-.53 1.024-1.1 1.852-1.71 2.512l.168.629h3.46v3c0 .293-.16.441-.468.441-.3 0-.61-.02-.941-.05l.148.71h1.043c.629 0 .95-.308.95-.921v-3.18h3.148v-.668H5.57v-1.48h-.73v1.48h-2.7a14.36 14.36 0 001.57-2.473h5.42v-.699h-5.1c.16-.367.32-.75.48-1.148l-.71-.16c-.18.46-.36.89-.551 1.308zM2.88-2.329A10.003 10.003 0 01.48-.102L.941.5C1.898-.18 2.72-.98 3.38-1.89zm4.33-.011l-.48.461c.95.86 1.7 1.66 2.238 2.419L9.5.02a16.925 16.925 0 00-2.29-2.36zm0 0"/></symbol><symbol overflow="visible" id="i"><path d="M1.18-7.95l-.508.5c.738.528 1.328 1.028 1.75 1.5l.52-.51c-.481-.5-1.063-.99-1.762-1.49zM1-5.5l-.512.488c.703.512 1.242 1 1.633 1.461l.508-.52C2.19-4.55 1.649-5.02 1-5.5zm1.11 2.68A30.368 30.368 0 01.59.68l.719.308A31.023 31.023 0 002.762-2.57zm1.062-4.75v.699h4.887V-.18c0 .34-.16.508-.48.508-.477 0-.99-.02-1.52-.047l.16.688h1.61c.62 0 .94-.328.94-.969v-6.871h.782v-.7zm.437 2.23v3.68H6.75v-3.68zm2.47 3.02h-1.79v-2.371h1.79zm0 0"/></symbol><symbol overflow="visible" id="j"><path d="M.55-7.23v.68h4.04c-.059.331-.13.671-.2 1.01H1.103V.989h.707v-5.847h6.4v4.68c0 .28-.14.429-.422.429L6.86.23l.192.7h.98c.59 0 .89-.32.89-.95v-5.52H5.13c.07-.32.14-.651.2-1.01h4.12v-.68H5.441c.04-.29.07-.59.098-.899l-.73-.101-.118 1zm3.33 2.69l-.64.24c.21.312.39.652.542 1.01H2.68v.63h1.968v1.05H2.36v.641h2.29V.84h.703V-.97h2.296v-.64H5.352v-1.05h2v-.63H6.21c.2-.32.39-.67.57-1.062l-.66-.238c-.18.461-.383.89-.601 1.3h-1.05a7.488 7.488 0 00-.59-1.25zm0 0"/></symbol><symbol overflow="visible" id="k"><path d="M.54-7.738v.699h2.98v1.527H1.14V.941h.72V.488h6.3v.453h.719v-6.453H6.44v-1.527h3.02v-.7zM1.86-.191v-4.637h1.66v.2C3.5-3.27 3-2.282 2.02-1.66l.558.488C3.66-1.898 4.211-3.05 4.23-4.629v-.2h1.5v2.067c0 .653.32.98.98.98h1.45v1.59zM4.23-7.04h1.5v1.527h-1.5zm2.211 2.21h1.72v2.388H6.897c-.308 0-.457-.16-.457-.47zm0 0"/></symbol><symbol overflow="visible" id="l"><path d="M9.148-7.191H5.43a9.89 9.89 0 00-.45-1.059l-.8.14c.172.282.32.579.46.919H.84v2.14h.738v-1.437H8.41v1.449h.738zM.602-4.411v.7h2.41c-.32.55-.66 1.11-1.024 1.672.934.3 1.864.648 2.801 1.05C3.73-.178 2.34.232.641.239l.418.672C2.922.852 4.399.328 5.519-.672A35.405 35.405 0 018.7.988L9.18.36a31.218 31.218 0 00-3.14-1.558c.531-.621 1-1.45 1.41-2.512h1.973v-.7H4.25c.238-.44.488-.91.75-1.41l-.738-.218a62.17 62.17 0 01-.864 1.629zm3.257.7H6.66c-.34.883-.78 1.621-1.32 2.211-.79-.328-1.559-.61-2.32-.828.261-.402.539-.863.84-1.383zm0 0"/></symbol><symbol overflow="visible" id="m"><path d="M2.27-8.2c-.4.93-1.032 1.76-1.9 2.482l.207.68c1.063-.84 1.82-1.8 2.3-2.883zm.28 2.27c-.44 1.121-1.14 2.121-2.109 3l.207.66a9.72 9.72 0 00.993-.968V.988h.68v-5.097c.327-.48.6-1 .82-1.551zm1.962-2.242v1.762h-.684V-7.8h-.566v1.972h3.09v-1.973h-.57v1.39H5.09v-1.76zM3.109-5.148v.617H6.25c-.07.133-.14.261-.21.383l.358.457c.211-.297.403-.637.57-1.02.122 1.14.36 2.191.723 3.133A5.9 5.9 0 016.641.129c-.18-.399-.38-.777-.582-1.117l-.48.226c.21.371.41.793.6 1.262L6.41.39l.36.56c.5-.49.92-1.08 1.26-1.77.31.64.701 1.23 1.17 1.76l.45-.52a7.733 7.733 0 01-1.297-2.01c.43-1.2.668-2.641.707-4.34h.39v-.65H7.59c.11-.452.2-.94.282-1.46l-.66-.121c-.18 1.45-.492 2.648-.941 3.59v-.578zm4.301-.743c0-.007 0-.02.012-.039H8.46C8.43-4.62 8.28-3.469 8-2.48c-.34-1-.531-2.141-.59-3.41zM3.46-.898A5.217 5.217 0 012.673.328l.469.344c.308-.383.578-.82.808-1.332zM5.98-2.73l-.511.171c.101.16.203.34.3.54-.597.097-1.199.18-1.789.238.801-.52 1.5-1.117 2.098-1.778l-.558-.21c-.141.16-.29.32-.45.48-.41.039-.82.07-1.218.098.418-.32.796-.68 1.136-1.09L4.441-4.5a7.02 7.02 0 01-1.41 1.352l.13.457c.46-.02.917-.059 1.39-.118-.473.399-.98.77-1.54 1.11l.13.488c.46-.039.93-.09 1.41-.148V.12c0 .16-.082.25-.223.25-.18 0-.367-.02-.558-.043l.128.594h.641c.422 0 .64-.223.64-.64v-1.743l.79-.148c.07.14.14.289.203.449l.5-.219c-.203-.48-.434-.93-.692-1.351zm0 0"/></symbol><symbol overflow="visible" id="n"><path d="M1.54-5.23v3.32h3.089v.691h-3.55v.578h3.55v.75H.579v.63h8.843v-.63h-4.07v-.75H8.93v-.578H5.352v-.691h3.097v-3.32H5.352v-.641h3.93v-.617h-3.93v-.762A73.97 73.97 0 008.46-7.5l-.223-.602c-1.988.223-4.289.372-6.886.454l.117.59c1.101-.044 2.152-.09 3.16-.153v.723H.719v.617h3.91v.64zm6.21 2.742H5.352v-.813H7.75zm-3.121 0H2.23v-.813h2.4zM2.23-3.86v-.79h2.4v.79zm3.122-.79H7.75v.79H5.352zm0 0"/></symbol><symbol overflow="visible" id="o"><path d="M2.531-4.129v.668h2.707C4.84-1.879 3.738-.57 1.961.461l.41.59C4.148-.031 5.301-1.38 5.81-3.012c.56 1.684 1.67 3.024 3.31 4l.43-.566C7.93-.5 6.84-1.801 6.289-3.461H9.25v-.668H6.102c-.024-.05-.032-.11-.043-.172.03-.46.05-1 .05-1.62h-.68c0 .28-.007.683-.007 1.202a19.6 19.6 0 01-.05.59zM5.25-8.23l-.79.14c.22.3.411.621.59.98H1.3v2.91C1.27-2.2.96-.628.36.489l.562.5C1.629-.309 2-2.039 2.039-4.199v-2.223h7.41v-.687H5.83a9.055 9.055 0 00-.58-1.121zm0 0"/></symbol><symbol overflow="visible" id="p"><path d="M8.3-3.27l-.562.348c.563.863 1.012 1.652 1.34 2.363l.55-.402c-.308-.66-.75-1.43-1.327-2.309zm-6.421.098c-.3.82-.738 1.48-1.34 1.98l.54.473c.6-.5 1.081-1.242 1.44-2.203zm2.3-2.45v.95H1.43v.703h2.712c-.082.98-.29 1.797-.653 2.48-.457.778-1.277 1.4-2.457 1.88l.399.64C2.64.551 3.512-.12 4.05-.98c.462-.782.731-1.77.829-2.989H6.94c-.05 1.719-.152 2.848-.3 3.367-.153.512-.461.774-.93.774-.402 0-.82-.012-1.262-.024l.192.68h1.418c.46-.027.793-.2 1.011-.508.2-.32.352-.898.45-1.718.082-.84.128-1.93.171-3.274H4.92v-.95zM.65-7.108v.687h2.26v.902h.73v-.902h2.622v.91h.726v-.91h2.364v-.687H6.988v-1.02h-.726v1.02H3.64v-1.02h-.73v1.02zm0 0"/></symbol><symbol overflow="visible" id="q"><path d="M8.219-6.469V-.55H5.37v-7.558h-.74V-.55H1.77V-6.5h-.718V.8h.719V.14H8.22v.67h.722v-7.28zm0 0"/></symbol><symbol overflow="visible" id="r"><path d="M3.805-7.11h.941v5.036c0 .68-.203 1.21-.613 1.597-.406.383-.953.575-1.633.575-.707 0-1.258-.18-1.648-.543-.395-.36-.594-.867-.594-1.516h.937c0 .406.114.723.336.95.223.23.547.343.969.343.387 0 .7-.121.941-.367.239-.246.36-.586.364-1.028zm0 0"/></symbol><symbol overflow="visible" id="s"><path d="M3.945 0c-.05-.105-.093-.29-.125-.555-.422.434-.922.653-1.507.653-.52 0-.946-.149-1.282-.442a1.438 1.438 0 01-.5-1.12c0-.552.211-.977.63-1.282.417-.305 1.007-.457 1.765-.457h.879v-.414c0-.317-.094-.567-.285-.754-.188-.188-.465-.281-.833-.281-.324 0-.593.082-.812.242-.219.164-.328.36-.328.59H.64c0-.262.093-.516.28-.762.188-.246.442-.441.763-.582.32-.145.671-.219 1.054-.219.61 0 1.086.153 1.434.457.344.305.523.727.535 1.258v2.434c0 .484.063.87.184 1.156V0zm-1.5-.688c.285 0 .555-.074.805-.218a1.35 1.35 0 00.555-.574v-1.083h-.711c-1.106 0-1.656.325-1.656.97 0 .284.093.507.28.663.188.16.43.243.727.243zm0 0"/></symbol><symbol overflow="visible" id="t"><path d="M1.54-5.281l.026.664a1.93 1.93 0 011.582-.766c1.118 0 1.68.633 1.692 1.89V0h-.902v-3.496c-.004-.379-.094-.664-.262-.844-.172-.183-.438-.273-.801-.273-.293 0-.55.078-.77.234a1.59 1.59 0 00-.52.613V0h-.9v-5.281zm0 0"/></symbol><symbol overflow="visible" id="u"><path d="M3.559 0h-.907v-6.02l-1.824.668v-.82l2.59-.973h.14zm0 0"/></symbol><symbol overflow="visible" id="v"><path d="M1.906-3.992h.676c.426-.008.762-.121 1.008-.34.242-.219.363-.512.363-.883 0-.832-.414-1.25-1.242-1.25-.39 0-.703.113-.938.336-.23.223-.347.516-.347.887H.523c0-.563.204-1.031.618-1.406.41-.372.933-.559 1.57-.559.672 0 1.195.176 1.578.531.379.356.57.848.57 1.48 0 .31-.101.61-.3.9a1.81 1.81 0 01-.817.648c.39.125.692.328.903.617.214.285.32.636.32 1.047 0 .64-.207 1.144-.625 1.52-.418.374-.957.562-1.625.562s-1.211-.18-1.63-.543c-.417-.36-.624-.836-.624-1.43h.906c0 .375.121.672.367.898.243.227.57.336.98.336.438 0 .77-.113 1-.34.231-.23.349-.554.349-.98 0-.414-.125-.734-.383-.953-.254-.223-.618-.336-1.098-.344h-.676zm0 0"/></symbol><symbol overflow="visible" id="w"><path d="M5.25 0H.59v-.648l2.46-2.735c.364-.414.618-.75.755-1.008.14-.257.21-.527.21-.804 0-.371-.113-.676-.34-.914-.222-.239-.523-.356-.898-.356-.449 0-.797.13-1.047.383-.25.254-.37.613-.37 1.066H.452c0-.652.211-1.183.633-1.586.422-.402.984-.605 1.691-.605.66 0 1.184.172 1.567.52.386.347.578.808.578 1.382 0 .703-.445 1.535-1.336 2.5L1.68-.738h3.57zm0 0"/></symbol><symbol overflow="visible" id="x"><path d="M5.047-3.031c0 1.058-.18 1.844-.54 2.36-.362.51-.925.769-1.694.769-.758 0-1.32-.25-1.684-.754C.766-1.16.574-1.91.562-2.91v-1.207c0-1.043.18-1.82.54-2.328.363-.508.93-.762 1.703-.762.765 0 1.328.246 1.687.734.36.489.547 1.246.555 2.27zm-.902-1.235c0-.765-.106-1.324-.32-1.675-.216-.348-.555-.524-1.02-.524-.465 0-.801.176-1.012.524-.211.347-.32.882-.328 1.605v1.445c0 .77.113 1.336.336 1.704.222.367.558.546 1.012.546.445 0 .777-.171.992-.515.218-.344.332-.89.34-1.633zm0 0"/></symbol><symbol overflow="visible" id="y"><path d="M5.18-6.602L2.234 0H1.29l2.934-6.367H.375v-.742H5.18zm0 0"/></symbol><symbol overflow="visible" id="z"><path d="M4.746-3.14H1.762V0H.824v-7.11H5.23v.774H1.762v2.43h2.984zm0 0"/></symbol><symbol overflow="visible" id="A"><path d="M2.875.098c-.715 0-1.297-.235-1.746-.707-.45-.47-.676-1.098-.676-1.887v-.164c0-.524.102-.992.3-1.406.2-.41.481-.735.84-.965.36-.235.75-.352 1.173-.352.687 0 1.218.227 1.601.68.38.453.57 1.101.57 1.945v.375H1.36c.012.52.164.942.454 1.262.292.32.664.48 1.113.48.316 0 .59-.062.808-.195.223-.129.414-.3.582-.516l.551.43c-.441.68-1.105 1.02-1.992 1.02zm-.11-4.739a1.21 1.21 0 00-.921.399c-.246.265-.399.64-.457 1.117H4.03v-.07c-.023-.457-.148-.813-.367-1.067-.223-.25-.523-.379-.898-.379zm0 0"/></symbol><symbol overflow="visible" id="B"><path d="M5.156-2.582c0 .809-.187 1.453-.554 1.945-.372.489-.872.735-1.497.735-.667 0-1.183-.235-1.546-.707L1.516 0H.684v-7.5h.902v2.797c.367-.453.867-.68 1.508-.68.64 0 1.148.246 1.511.73.368.485.551 1.15.551 1.993zm-.902-.106c0-.613-.121-1.09-.356-1.421-.238-.336-.582-.504-1.027-.504-.598 0-1.023.277-1.285.828V-1.5c.277.555.71.832 1.297.832.43 0 .77-.168 1.008-.504.242-.336.363-.84.363-1.516zm0 0"/></symbol><symbol overflow="visible" id="C"><path d="M4.406-2.387h.985v.739h-.985V0h-.91v-1.648H.258v-.536L3.44-7.109h.965zm-3.12 0h2.21v-3.488l-.105.195zm0 0"/></symbol><symbol overflow="visible" id="D"><path d="M1.008-3.563l.36-3.546h3.64v.836H2.133l-.215 1.937a2.32 2.32 0 011.187-.309c.649 0 1.16.215 1.543.645.383.426.57 1.004.57 1.734 0 .735-.195 1.309-.593 1.73-.395.423-.945.634-1.656.634-.63 0-1.14-.176-1.54-.524C1.032-.773.81-1.254.75-1.87h.855c.055.406.2.715.434.922.234.207.547.308.93.308.422 0 .75-.14.988-.43.238-.284.36-.679.36-1.187 0-.472-.13-.855-.387-1.144-.258-.285-.606-.43-1.035-.43-.395 0-.704.086-.926.258l-.242.195zm0 0"/></symbol></defs><path d="M40.984 243.52V4m12.774 239.52V4m12.773 239.52V4m12.778 239.52V4m12.773 239.52V4m12.773 239.52V4m12.774 239.52V4m12.777 239.52V4m12.774 239.52V4m12.773 239.52V4m12.774 239.52V4m12.777 239.52V4m12.773 239.52V4m12.773 239.52V4m12.774 239.52V4m12.778 239.52V4m12.773 239.52V4m12.773 239.52V4m12.774 239.52V4M283.7 243.52V4m12.773 239.52V4m12.773 239.52V4m12.774 239.52V4m12.777 239.52V4m12.773 239.52V4m12.774 239.52V4m12.773 239.52V4m12.778 239.52V4m12.773 239.52V4m12.773 239.52V4m12.774 239.52V4M33 194.863h399.2M33 150.996h399.2M33 107.133h399.2M33 63.266h399.2M33 19.398h399.2" fill="none" stroke="#666" stroke-opacity=".5" stroke-dasharray="1,2" stroke-miterlimit="3.25"/><path d="M360.344 115.828l12.773-17.18 12.778-17.796 12.773-18.485 12.773-19.156 12.774-19.832" fill="none" stroke-width="1.6" stroke-linecap="square" stroke="#a60000" stroke-opacity=".3" stroke-miterlimit="3.25"/><path d="M360.344 152.465l12.773-13.988 12.778-14.446 12.773-15.015 12.773-15.555 12.774-16.106" fill="none" stroke-width="1.6" stroke-linecap="square" stroke="#0d86a0" stroke-opacity=".3" stroke-miterlimit="3.25"/><path d="M360.344 234.543l12.773-.266 12.778-.28 12.773-.29 12.773-.305 12.774-.308" fill="none" stroke-width="1.6" stroke-linecap="square" stroke="#c05c20" stroke-opacity=".3" stroke-miterlimit="3.25"/><path d="M360.344 234.59l12.773-.344 12.778-.351 12.773-.368 12.773-.382 12.774-.395" fill="none" stroke-width="1.6" stroke-linecap="square" stroke="#6f42b5" stroke-opacity=".3" stroke-miterlimit="3.25"/><path d="M360.344 234.996l12.773-.402 12.778-.414 12.773-.434 12.773-.45 12.774-.464" fill="none" stroke-width="1.6" stroke-linecap="square" stroke="#769003" stroke-opacity=".3" stroke-miterlimit="3.25"/><path d="M360.344 235.61l12.773-.247 12.778-.254 12.773-.265 12.773-.274 12.774-.28" fill="none" stroke-width="1.6" stroke-linecap="square" stroke="#a8364d" stroke-opacity=".3" stroke-miterlimit="3.25"/><path d="M360.344 236.094l12.773-.239 12.778-.242 12.773-.258 12.773-.265 12.774-.274" fill="none" stroke-width="1.6" stroke-linecap="square" stroke="#3664cc" stroke-opacity=".3" stroke-miterlimit="3.25"/><path d="M360.344 236.137l12.773-.262 12.778-.281 12.773-.29 12.773-.304 12.774-.313" fill="none" stroke-width="1.6" stroke-linecap="square" stroke="#c8860a" stroke-opacity=".3" stroke-miterlimit="3.25"/><path d="M360.344 237.023l12.773-.113 12.778-.113 12.773-.121 12.773-.125 12.774-.13" fill="none" stroke-width="1.6" stroke-linecap="square" stroke="#833987" stroke-opacity=".3" stroke-miterlimit="3.25"/><path d="M360.344 237.094l12.773-.145 12.778-.152 12.773-.156 12.773-.164 12.774-.168" fill="none" stroke-width="1.6" stroke-linecap="square" stroke="#1c8f6b" stroke-opacity=".3" stroke-miterlimit="3.25"/><path d="M360.344 237.227l12.773-.192 12.778-.203 12.773-.21 12.773-.22 12.774-.222" fill="none" stroke-width="1.6" stroke-linecap="square" stroke="#a54f05" stroke-opacity=".3" stroke-miterlimit="3.25"/><path d="M40.984 238.55h51.098l12.773-.019 12.774-.074 12.777-.258 12.774-.344 12.773-.402 12.774-.652 12.777-.574 12.773-1.137 12.774-1.95 12.773-3.015 12.778-3.375 12.773-7.77 12.773-6.398 12.774-7.621 12.777-8.695 12.774-9.22 12.773-11.362 12.774-12.41 12.777-14.188 12.773-17.05 12.774-16.208" fill="none" stroke-width="1.6" stroke-linecap="square" stroke="#a60000" stroke-miterlimit="3.25"/><path d="M40.984 238.55h51.098l12.773-.019 12.774-.074 12.777-.258 12.774-.34 12.773-.312 12.774-.461 12.777-.305 12.773-.46 12.774-.79 12.773-1.418 12.778-1.625 12.773-5.664 12.773-3.683 12.774-4.528 12.777-5.351 12.774-5.91 12.773-8.426 12.774-9.227 12.777-10.285 12.773-13.844 12.774-13.105" fill="none" stroke-width="1.6" stroke-linecap="square" stroke="#0d86a0" stroke-miterlimit="3.25"/><path d="M40.984 238.73h114.97l12.773-.023 12.777-.02 12.773-.148 12.774-.082 12.773-.184 12.778-.105 12.773-.195 12.773-.543 12.774-.578 12.777-.477 38.32-.82 12.778-.461 12.773-.29 12.774-.261" fill="none" stroke-width="1.6" stroke-linecap="square" stroke="#c05c20" stroke-miterlimit="3.25"/><path d="M40.984 238.73h89.422l12.774-.003 12.773-.059 12.774-.05 12.777-.028 12.773-.094 12.774-.11 12.773-.085 12.778-.211 12.773-.184 12.773-.234 12.774-.305 12.777-.363 12.774-.555 12.773-.367 12.774-.348 12.777-.5 12.773-.32 12.774-.324" fill="none" stroke-width="1.6" stroke-linecap="square" stroke="#6f42b5" stroke-miterlimit="3.25"/><path d="M40.984 238.73h114.97l12.773-.003 12.777-.02 12.773-.016 12.774-.101 12.773-.223 12.778-.199 12.773-.176 12.773-.168 12.774-.312 12.777-.328 12.774-.305 12.773-.313 12.774-.32 12.777-.476 12.773-.391 12.774-.383" fill="none" stroke-width="1.6" stroke-linecap="square" stroke="#769003" stroke-miterlimit="3.25"/><path d="M40.984 238.73h114.97l12.773-.003 12.777-.036 12.773-.066 12.774-.086 12.773-.113 12.778-.137 12.773-.187 12.773-.34 12.774-.246 12.777-.243 12.774-.25 12.773-.324 12.774-.254 12.777-.316 12.773-.3 12.774-.22" fill="none" stroke-width="1.6" stroke-linecap="square" stroke="#a8364d" stroke-miterlimit="3.25"/><path d="M40.984 238.73h114.97l12.773-.007 12.777-.008 12.773-.016 12.774-.047 12.773-.082 12.778-.05 12.773-.106 12.773-.164 12.774-.23 12.777-.34 12.774-.203 12.773-.207 12.774-.258 12.777-.375 12.773-.317 12.774-.226" fill="none" stroke-width="1.6" stroke-linecap="square" stroke="#3664cc" stroke-miterlimit="3.25"/><path d="M40.984 238.73h127.743l12.777-.003 12.773-.063 12.774-.105 12.773-.094 12.778-.043 12.773-.156 12.773-.203 12.774-.211 12.777-.16 12.774-.266 12.773-.188 12.774-.297 12.777-.316 12.773-.219 12.774-.27" fill="none" stroke-width="1.6" stroke-linecap="square" stroke="#c8860a" stroke-miterlimit="3.25"/><path d="M40.984 238.73h114.97l12.773-.023 12.777-.016 12.773-.082 12.774-.129 12.773-.078 12.778-.156 12.773-.094 12.773-.066 12.774-.082 12.777-.18 12.774-.137 12.773-.105 12.774-.168 12.777-.164 12.773-.125 12.774-.102" fill="none" stroke-width="1.6" stroke-linecap="square" stroke="#833987" stroke-miterlimit="3.25"/><path d="M40.984 238.73h127.743l12.777-.003 12.773-.036 12.774-.039 12.773-.058 12.778-.07 12.773-.102 12.773-.125 12.774-.133 12.777-.172 25.547-.297 12.774-.156 12.777-.16 12.773-.145 12.774-.14" fill="none" stroke-width="1.6" stroke-linecap="square" stroke="#1c8f6b" stroke-miterlimit="3.25"/><path d="M40.984 238.73h114.97l12.773-.003 12.777-.024 12.773-.012 12.774-.054 12.773-.078 12.778-.106 12.773-.105 12.773-.149 12.774-.105 12.777-.145 12.774-.105 12.773-.102 12.774-.09 12.777-.105 12.773-.125 12.774-.195" fill="none" stroke-width="1.6" stroke-linecap="square" stroke="#a54f05" stroke-miterlimit="3.25"/><path d="M361.465 116a1.47 1.47 0 00-1.465-1.465 1.47 1.47 0 00-1.465 1.465 1.47 1.47 0 001.465 1.465 1.47 1.47 0 001.465-1.465zm13-17A1.47 1.47 0 00373 97.535 1.47 1.47 0 00371.535 99a1.47 1.47 0 001.465 1.465A1.47 1.47 0 00374.465 99zm13-18A1.47 1.47 0 00386 79.535 1.47 1.47 0 00384.535 81 1.47 1.47 0 00386 82.465 1.47 1.47 0 00387.465 81zm13-19A1.47 1.47 0 00399 60.535 1.47 1.47 0 00397.535 62 1.47 1.47 0 00399 63.465 1.47 1.47 0 00400.465 62zm12-19A1.47 1.47 0 00411 41.535 1.47 1.47 0 00409.535 43 1.47 1.47 0 00411 44.465 1.47 1.47 0 00412.465 43zm13-20A1.47 1.47 0 00424 21.535 1.47 1.47 0 00422.535 23 1.47 1.47 0 00424 24.465 1.47 1.47 0 00425.465 23zm0 0" fill-rule="evenodd" fill="#a60000" fill-opacity=".3"/><path d="M361.465 152a1.47 1.47 0 00-1.465-1.465 1.47 1.47 0 00-1.465 1.465 1.47 1.47 0 001.465 1.465 1.47 1.47 0 001.465-1.465zm13-14a1.47 1.47 0 00-1.465-1.465 1.47 1.47 0 00-1.465 1.465 1.47 1.47 0 001.465 1.465 1.47 1.47 0 001.465-1.465zm13-14a1.47 1.47 0 00-1.465-1.465 1.47 1.47 0 00-1.465 1.465 1.47 1.47 0 001.465 1.465 1.47 1.47 0 001.465-1.465zm13-15a1.47 1.47 0 00-1.465-1.465 1.47 1.47 0 00-1.465 1.465 1.47 1.47 0 001.465 1.465 1.47 1.47 0 001.465-1.465zm12-16A1.47 1.47 0 00411 91.535 1.47 1.47 0 00409.535 93 1.47 1.47 0 00411 94.465 1.47 1.47 0 00412.465 93zm13-16A1.47 1.47 0 00424 75.535 1.47 1.47 0 00422.535 77 1.47 1.47 0 00424 78.465 1.47 1.47 0 00425.465 77zm0 0" fill-rule="evenodd" fill="#0d86a0" fill-opacity=".3"/><path d="M361.465 235a1.47 1.47 0 00-1.465-1.465 1.47 1.47 0 00-1.465 1.465 1.47 1.47 0 001.465 1.465 1.47 1.47 0 001.465-1.465zm13-1a1.47 1.47 0 00-1.465-1.465 1.47 1.47 0 00-1.465 1.465 1.47 1.47 0 001.465 1.465 1.47 1.47 0 001.465-1.465zm13 0a1.47 1.47 0 00-1.465-1.465 1.47 1.47 0 00-1.465 1.465 1.47 1.47 0 001.465 1.465 1.47 1.47 0 001.465-1.465zm13 0a1.47 1.47 0 00-1.465-1.465 1.47 1.47 0 00-1.465 1.465 1.47 1.47 0 001.465 1.465 1.47 1.47 0 001.465-1.465zm12-1a1.47 1.47 0 00-1.465-1.465 1.47 1.47 0 00-1.465 1.465 1.47 1.47 0 001.465 1.465 1.47 1.47 0 001.465-1.465zm13 0a1.47 1.47 0 00-1.465-1.465 1.47 1.47 0 00-1.465 1.465 1.47 1.47 0 001.465 1.465 1.47 1.47 0 001.465-1.465zm0 0" fill-rule="evenodd" fill="#c05c20" fill-opacity=".3"/><path d="M361.465 235a1.47 1.47 0 00-1.465-1.465 1.47 1.47 0 00-1.465 1.465 1.47 1.47 0 001.465 1.465 1.47 1.47 0 001.465-1.465zm13-1a1.47 1.47 0 00-1.465-1.465 1.47 1.47 0 00-1.465 1.465 1.47 1.47 0 001.465 1.465 1.47 1.47 0 001.465-1.465zm13 0a1.47 1.47 0 00-1.465-1.465 1.47 1.47 0 00-1.465 1.465 1.47 1.47 0 001.465 1.465 1.47 1.47 0 001.465-1.465zm13 0a1.47 1.47 0 00-1.465-1.465 1.47 1.47 0 00-1.465 1.465 1.47 1.47 0 001.465 1.465 1.47 1.47 0 001.465-1.465zm12-1a1.47 1.47 0 00-1.465-1.465 1.47 1.47 0 00-1.465 1.465 1.47 1.47 0 001.465 1.465 1.47 1.47 0 001.465-1.465zm13 0a1.47 1.47 0 00-1.465-1.465 1.47 1.47 0 00-1.465 1.465 1.47 1.47 0 001.465 1.465 1.47 1.47 0 001.465-1.465zm0 0" fill-rule="evenodd" fill="#6f42b5" fill-opacity=".3"/><path d="M361.465 235a1.47 1.47 0 00-1.465-1.465 1.47 1.47 0 00-1.465 1.465 1.47 1.47 0 001.465 1.465 1.47 1.47 0 001.465-1.465zm13 0a1.47 1.47 0 00-1.465-1.465 1.47 1.47 0 00-1.465 1.465 1.47 1.47 0 001.465 1.465 1.47 1.47 0 001.465-1.465zm13-1a1.47 1.47 0 00-1.465-1.465 1.47 1.47 0 00-1.465 1.465 1.47 1.47 0 001.465 1.465 1.47 1.47 0 001.465-1.465zm13 0a1.47 1.47 0 00-1.465-1.465 1.47 1.47 0 00-1.465 1.465 1.47 1.47 0 001.465 1.465 1.47 1.47 0 001.465-1.465zm12-1a1.47 1.47 0 00-1.465-1.465 1.47 1.47 0 00-1.465 1.465 1.47 1.47 0 001.465 1.465 1.47 1.47 0 001.465-1.465zm13 0a1.47 1.47 0 00-1.465-1.465 1.47 1.47 0 00-1.465 1.465 1.47 1.47 0 001.465 1.465 1.47 1.47 0 001.465-1.465zm0 0" fill-rule="evenodd" fill="#769003" fill-opacity=".3"/><path d="M361.465 236a1.47 1.47 0 00-1.465-1.465 1.47 1.47 0 00-1.465 1.465 1.47 1.47 0 001.465 1.465 1.47 1.47 0 001.465-1.465zm13-1a1.47 1.47 0 00-1.465-1.465 1.47 1.47 0 00-1.465 1.465 1.47 1.47 0 001.465 1.465 1.47 1.47 0 001.465-1.465zm13 0a1.47 1.47 0 00-1.465-1.465 1.47 1.47 0 00-1.465 1.465 1.47 1.47 0 001.465 1.465 1.47 1.47 0 001.465-1.465zm13 0a1.47 1.47 0 00-1.465-1.465 1.47 1.47 0 00-1.465 1.465 1.47 1.47 0 001.465 1.465 1.47 1.47 0 001.465-1.465zm12 0a1.47 1.47 0 00-1.465-1.465 1.47 1.47 0 00-1.465 1.465 1.47 1.47 0 001.465 1.465 1.47 1.47 0 001.465-1.465zm13-1a1.47 1.47 0 00-1.465-1.465 1.47 1.47 0 00-1.465 1.465 1.47 1.47 0 001.465 1.465 1.47 1.47 0 001.465-1.465zm0 0" fill-rule="evenodd" fill="#a8364d" fill-opacity=".3"/><path d="M361.465 236a1.47 1.47 0 00-1.465-1.465 1.47 1.47 0 00-1.465 1.465 1.47 1.47 0 001.465 1.465 1.47 1.47 0 001.465-1.465zm13 0a1.47 1.47 0 00-1.465-1.465 1.47 1.47 0 00-1.465 1.465 1.47 1.47 0 001.465 1.465 1.47 1.47 0 001.465-1.465zm13 0a1.47 1.47 0 00-1.465-1.465 1.47 1.47 0 00-1.465 1.465 1.47 1.47 0 001.465 1.465 1.47 1.47 0 001.465-1.465zm13-1a1.47 1.47 0 00-1.465-1.465 1.47 1.47 0 00-1.465 1.465 1.47 1.47 0 001.465 1.465 1.47 1.47 0 001.465-1.465zm12 0a1.47 1.47 0 00-1.465-1.465 1.47 1.47 0 00-1.465 1.465 1.47 1.47 0 001.465 1.465 1.47 1.47 0 001.465-1.465zm13 0a1.47 1.47 0 00-1.465-1.465 1.47 1.47 0 00-1.465 1.465 1.47 1.47 0 001.465 1.465 1.47 1.47 0 001.465-1.465zm0 0" fill-rule="evenodd" fill="#3664cc" fill-opacity=".3"/><path d="M361.465 236a1.47 1.47 0 00-1.465-1.465 1.47 1.47 0 00-1.465 1.465 1.47 1.47 0 001.465 1.465 1.47 1.47 0 001.465-1.465zm13 0a1.47 1.47 0 00-1.465-1.465 1.47 1.47 0 00-1.465 1.465 1.47 1.47 0 001.465 1.465 1.47 1.47 0 001.465-1.465zm13 0a1.47 1.47 0 00-1.465-1.465 1.47 1.47 0 00-1.465 1.465 1.47 1.47 0 001.465 1.465 1.47 1.47 0 001.465-1.465zm13-1a1.47 1.47 0 00-1.465-1.465 1.47 1.47 0 00-1.465 1.465 1.47 1.47 0 001.465 1.465 1.47 1.47 0 001.465-1.465zm12 0a1.47 1.47 0 00-1.465-1.465 1.47 1.47 0 00-1.465 1.465 1.47 1.47 0 001.465 1.465 1.47 1.47 0 001.465-1.465zm13 0a1.47 1.47 0 00-1.465-1.465 1.47 1.47 0 00-1.465 1.465 1.47 1.47 0 001.465 1.465 1.47 1.47 0 001.465-1.465zm0 0" fill-rule="evenodd" fill="#c8860a" fill-opacity=".3"/><path d="M361.465 237a1.47 1.47 0 00-1.465-1.465 1.47 1.47 0 00-1.465 1.465 1.47 1.47 0 001.465 1.465 1.47 1.47 0 001.465-1.465zm13 0a1.47 1.47 0 00-1.465-1.465 1.47 1.47 0 00-1.465 1.465 1.47 1.47 0 001.465 1.465 1.47 1.47 0 001.465-1.465zm13 0a1.47 1.47 0 00-1.465-1.465 1.47 1.47 0 00-1.465 1.465 1.47 1.47 0 001.465 1.465 1.47 1.47 0 001.465-1.465zm13 0a1.47 1.47 0 00-1.465-1.465 1.47 1.47 0 00-1.465 1.465 1.47 1.47 0 001.465 1.465 1.47 1.47 0 001.465-1.465zm12 0a1.47 1.47 0 00-1.465-1.465 1.47 1.47 0 00-1.465 1.465 1.47 1.47 0 001.465 1.465 1.47 1.47 0 001.465-1.465zm13-1a1.47 1.47 0 00-1.465-1.465 1.47 1.47 0 00-1.465 1.465 1.47 1.47 0 001.465 1.465 1.47 1.47 0 001.465-1.465zm0 0" fill-rule="evenodd" fill="#833987" fill-opacity=".3"/><path d="M361.465 237a1.47 1.47 0 00-1.465-1.465 1.47 1.47 0 00-1.465 1.465 1.47 1.47 0 001.465 1.465 1.47 1.47 0 001.465-1.465zm13 0a1.47 1.47 0 00-1.465-1.465 1.47 1.47 0 00-1.465 1.465 1.47 1.47 0 001.465 1.465 1.47 1.47 0 001.465-1.465zm13 0a1.47 1.47 0 00-1.465-1.465 1.47 1.47 0 00-1.465 1.465 1.47 1.47 0 001.465 1.465 1.47 1.47 0 001.465-1.465zm13 0a1.47 1.47 0 00-1.465-1.465 1.47 1.47 0 00-1.465 1.465 1.47 1.47 0 001.465 1.465 1.47 1.47 0 001.465-1.465zm12-1a1.47 1.47 0 00-1.465-1.465 1.47 1.47 0 00-1.465 1.465 1.47 1.47 0 001.465 1.465 1.47 1.47 0 001.465-1.465zm13 0a1.47 1.47 0 00-1.465-1.465 1.47 1.47 0 00-1.465 1.465 1.47 1.47 0 001.465 1.465 1.47 1.47 0 001.465-1.465zm0 0" fill-rule="evenodd" fill="#1c8f6b" fill-opacity=".3"/><path d="M361.465 237a1.47 1.47 0 00-1.465-1.465 1.47 1.47 0 00-1.465 1.465 1.47 1.47 0 001.465 1.465 1.47 1.47 0 001.465-1.465zm13 0a1.47 1.47 0 00-1.465-1.465 1.47 1.47 0 00-1.465 1.465 1.47 1.47 0 001.465 1.465 1.47 1.47 0 001.465-1.465zm13 0a1.47 1.47 0 00-1.465-1.465 1.47 1.47 0 00-1.465 1.465 1.47 1.47 0 001.465 1.465 1.47 1.47 0 001.465-1.465zm13 0a1.47 1.47 0 00-1.465-1.465 1.47 1.47 0 00-1.465 1.465 1.47 1.47 0 001.465 1.465 1.47 1.47 0 001.465-1.465zm12-1a1.47 1.47 0 00-1.465-1.465 1.47 1.47 0 00-1.465 1.465 1.47 1.47 0 001.465 1.465 1.47 1.47 0 001.465-1.465zm13 0a1.47 1.47 0 00-1.465-1.465 1.47 1.47 0 00-1.465 1.465 1.47 1.47 0 001.465 1.465 1.47 1.47 0 001.465-1.465zm0 0" fill-rule="evenodd" fill="#a54f05" fill-opacity=".3"/><path d="M42.465 239A1.47 1.47 0 0041 237.535 1.47 1.47 0 0039.535 239 1.47 1.47 0 0041 240.465 1.47 1.47 0 0042.465 239zm13 0A1.47 1.47 0 0054 237.535 1.47 1.47 0 0052.535 239 1.47 1.47 0 0054 240.465 1.47 1.47 0 0055.465 239zm13 0A1.47 1.47 0 0067 237.535 1.47 1.47 0 0065.535 239 1.47 1.47 0 0067 240.465 1.47 1.47 0 0068.465 239zm12 0A1.47 1.47 0 0079 237.535 1.47 1.47 0 0077.535 239 1.47 1.47 0 0079 240.465 1.47 1.47 0 0080.465 239zm13 0A1.47 1.47 0 0092 237.535 1.47 1.47 0 0090.535 239 1.47 1.47 0 0092 240.465 1.47 1.47 0 0093.465 239zm13 0a1.47 1.47 0 00-1.465-1.465 1.47 1.47 0 00-1.465 1.465 1.47 1.47 0 001.465 1.465 1.47 1.47 0 001.465-1.465zm13-1a1.47 1.47 0 00-1.465-1.465 1.47 1.47 0 00-1.465 1.465 1.47 1.47 0 001.465 1.465 1.47 1.47 0 001.465-1.465zm12 0a1.47 1.47 0 00-1.465-1.465 1.47 1.47 0 00-1.465 1.465 1.47 1.47 0 001.465 1.465 1.47 1.47 0 001.465-1.465zm13 0a1.47 1.47 0 00-1.465-1.465 1.47 1.47 0 00-1.465 1.465 1.47 1.47 0 001.465 1.465 1.47 1.47 0 001.465-1.465zm13-1a1.47 1.47 0 00-1.465-1.465 1.47 1.47 0 00-1.465 1.465 1.47 1.47 0 001.465 1.465 1.47 1.47 0 001.465-1.465zm13 0a1.47 1.47 0 00-1.465-1.465 1.47 1.47 0 00-1.465 1.465 1.47 1.47 0 001.465 1.465 1.47 1.47 0 001.465-1.465zm13-1a1.47 1.47 0 00-1.465-1.465 1.47 1.47 0 00-1.465 1.465 1.47 1.47 0 001.465 1.465 1.47 1.47 0 001.465-1.465zm12-1a1.47 1.47 0 00-1.465-1.465 1.47 1.47 0 00-1.465 1.465 1.47 1.47 0 001.465 1.465 1.47 1.47 0 001.465-1.465zm13-2a1.47 1.47 0 00-1.465-1.465 1.47 1.47 0 00-1.465 1.465 1.47 1.47 0 001.465 1.465 1.47 1.47 0 001.465-1.465zm13-3a1.47 1.47 0 00-1.465-1.465 1.47 1.47 0 00-1.465 1.465 1.47 1.47 0 001.465 1.465 1.47 1.47 0 001.465-1.465zm13-3a1.47 1.47 0 00-1.465-1.465 1.47 1.47 0 00-1.465 1.465 1.47 1.47 0 001.465 1.465 1.47 1.47 0 001.465-1.465zm12-8a1.47 1.47 0 00-1.465-1.465 1.47 1.47 0 00-1.465 1.465 1.47 1.47 0 001.465 1.465 1.47 1.47 0 001.465-1.465zm13-6a1.47 1.47 0 00-1.465-1.465 1.47 1.47 0 00-1.465 1.465 1.47 1.47 0 001.465 1.465 1.47 1.47 0 001.465-1.465zm13-8a1.47 1.47 0 00-1.465-1.465 1.47 1.47 0 00-1.465 1.465 1.47 1.47 0 001.465 1.465 1.47 1.47 0 001.465-1.465zm13-9a1.47 1.47 0 00-1.465-1.465 1.47 1.47 0 00-1.465 1.465 1.47 1.47 0 001.465 1.465 1.47 1.47 0 001.465-1.465zm12-9a1.47 1.47 0 00-1.465-1.465 1.47 1.47 0 00-1.465 1.465 1.47 1.47 0 001.465 1.465 1.47 1.47 0 001.465-1.465zm13-11a1.47 1.47 0 00-1.465-1.465 1.47 1.47 0 00-1.465 1.465 1.47 1.47 0 001.465 1.465 1.47 1.47 0 001.465-1.465zm13-13a1.47 1.47 0 00-1.465-1.465 1.47 1.47 0 00-1.465 1.465 1.47 1.47 0 001.465 1.465 1.47 1.47 0 001.465-1.465zm13-14a1.47 1.47 0 00-1.465-1.465 1.47 1.47 0 00-1.465 1.465 1.47 1.47 0 001.465 1.465 1.47 1.47 0 001.465-1.465zm13-17a1.47 1.47 0 00-1.465-1.465 1.47 1.47 0 00-1.465 1.465 1.47 1.47 0 001.465 1.465 1.47 1.47 0 001.465-1.465zm12-16a1.47 1.47 0 00-1.465-1.465 1.47 1.47 0 00-1.465 1.465 1.47 1.47 0 001.465 1.465 1.47 1.47 0 001.465-1.465zm0 0" fill-rule="evenodd" fill="#a60000"/><path d="M42.465 239A1.47 1.47 0 0041 237.535 1.47 1.47 0 0039.535 239 1.47 1.47 0 0041 240.465 1.47 1.47 0 0042.465 239zm13 0A1.47 1.47 0 0054 237.535 1.47 1.47 0 0052.535 239 1.47 1.47 0 0054 240.465 1.47 1.47 0 0055.465 239zm13 0A1.47 1.47 0 0067 237.535 1.47 1.47 0 0065.535 239 1.47 1.47 0 0067 240.465 1.47 1.47 0 0068.465 239zm12 0A1.47 1.47 0 0079 237.535 1.47 1.47 0 0077.535 239 1.47 1.47 0 0079 240.465 1.47 1.47 0 0080.465 239zm13 0A1.47 1.47 0 0092 237.535 1.47 1.47 0 0090.535 239 1.47 1.47 0 0092 240.465 1.47 1.47 0 0093.465 239zm13 0a1.47 1.47 0 00-1.465-1.465 1.47 1.47 0 00-1.465 1.465 1.47 1.47 0 001.465 1.465 1.47 1.47 0 001.465-1.465zm13-1a1.47 1.47 0 00-1.465-1.465 1.47 1.47 0 00-1.465 1.465 1.47 1.47 0 001.465 1.465 1.47 1.47 0 001.465-1.465zm12 0a1.47 1.47 0 00-1.465-1.465 1.47 1.47 0 00-1.465 1.465 1.47 1.47 0 001.465 1.465 1.47 1.47 0 001.465-1.465zm13 0a1.47 1.47 0 00-1.465-1.465 1.47 1.47 0 00-1.465 1.465 1.47 1.47 0 001.465 1.465 1.47 1.47 0 001.465-1.465zm13 0a1.47 1.47 0 00-1.465-1.465 1.47 1.47 0 00-1.465 1.465 1.47 1.47 0 001.465 1.465 1.47 1.47 0 001.465-1.465zm13-1a1.47 1.47 0 00-1.465-1.465 1.47 1.47 0 00-1.465 1.465 1.47 1.47 0 001.465 1.465 1.47 1.47 0 001.465-1.465zm13 0a1.47 1.47 0 00-1.465-1.465 1.47 1.47 0 00-1.465 1.465 1.47 1.47 0 001.465 1.465 1.47 1.47 0 001.465-1.465zm12-1a1.47 1.47 0 00-1.465-1.465 1.47 1.47 0 00-1.465 1.465 1.47 1.47 0 001.465 1.465 1.47 1.47 0 001.465-1.465zm13 0a1.47 1.47 0 00-1.465-1.465 1.47 1.47 0 00-1.465 1.465 1.47 1.47 0 001.465 1.465 1.47 1.47 0 001.465-1.465zm13-2a1.47 1.47 0 00-1.465-1.465 1.47 1.47 0 00-1.465 1.465 1.47 1.47 0 001.465 1.465 1.47 1.47 0 001.465-1.465zm13-2a1.47 1.47 0 00-1.465-1.465 1.47 1.47 0 00-1.465 1.465 1.47 1.47 0 001.465 1.465 1.47 1.47 0 001.465-1.465zm12-5a1.47 1.47 0 00-1.465-1.465 1.47 1.47 0 00-1.465 1.465 1.47 1.47 0 001.465 1.465 1.47 1.47 0 001.465-1.465zm13-4a1.47 1.47 0 00-1.465-1.465 1.47 1.47 0 00-1.465 1.465 1.47 1.47 0 001.465 1.465 1.47 1.47 0 001.465-1.465zm13-4a1.47 1.47 0 00-1.465-1.465 1.47 1.47 0 00-1.465 1.465 1.47 1.47 0 001.465 1.465 1.47 1.47 0 001.465-1.465zm13-6a1.47 1.47 0 00-1.465-1.465 1.47 1.47 0 00-1.465 1.465 1.47 1.47 0 001.465 1.465 1.47 1.47 0 001.465-1.465zm12-6a1.47 1.47 0 00-1.465-1.465 1.47 1.47 0 00-1.465 1.465 1.47 1.47 0 001.465 1.465 1.47 1.47 0 001.465-1.465zm13-8a1.47 1.47 0 00-1.465-1.465 1.47 1.47 0 00-1.465 1.465 1.47 1.47 0 001.465 1.465 1.47 1.47 0 001.465-1.465zm13-9a1.47 1.47 0 00-1.465-1.465 1.47 1.47 0 00-1.465 1.465 1.47 1.47 0 001.465 1.465 1.47 1.47 0 001.465-1.465zm13-11a1.47 1.47 0 00-1.465-1.465 1.47 1.47 0 00-1.465 1.465 1.47 1.47 0 001.465 1.465 1.47 1.47 0 001.465-1.465zm13-13a1.47 1.47 0 00-1.465-1.465 1.47 1.47 0 00-1.465 1.465 1.47 1.47 0 001.465 1.465 1.47 1.47 0 001.465-1.465zm12-14a1.47 1.47 0 00-1.465-1.465 1.47 1.47 0 00-1.465 1.465 1.47 1.47 0 001.465 1.465 1.47 1.47 0 001.465-1.465zm0 0" fill-rule="evenodd" fill="#0d86a0"/><path d="M42.465 239A1.47 1.47 0 0041 237.535 1.47 1.47 0 0039.535 239 1.47 1.47 0 0041 240.465 1.47 1.47 0 0042.465 239zm13 0A1.47 1.47 0 0054 237.535 1.47 1.47 0 0052.535 239 1.47 1.47 0 0054 240.465 1.47 1.47 0 0055.465 239zm13 0A1.47 1.47 0 0067 237.535 1.47 1.47 0 0065.535 239 1.47 1.47 0 0067 240.465 1.47 1.47 0 0068.465 239zm12 0A1.47 1.47 0 0079 237.535 1.47 1.47 0 0077.535 239 1.47 1.47 0 0079 240.465 1.47 1.47 0 0080.465 239zm13 0A1.47 1.47 0 0092 237.535 1.47 1.47 0 0090.535 239 1.47 1.47 0 0092 240.465 1.47 1.47 0 0093.465 239zm13 0a1.47 1.47 0 00-1.465-1.465 1.47 1.47 0 00-1.465 1.465 1.47 1.47 0 001.465 1.465 1.47 1.47 0 001.465-1.465zm13 0a1.47 1.47 0 00-1.465-1.465 1.47 1.47 0 00-1.465 1.465 1.47 1.47 0 001.465 1.465 1.47 1.47 0 001.465-1.465zm12 0a1.47 1.47 0 00-1.465-1.465 1.47 1.47 0 00-1.465 1.465 1.47 1.47 0 001.465 1.465 1.47 1.47 0 001.465-1.465zm13 0a1.47 1.47 0 00-1.465-1.465 1.47 1.47 0 00-1.465 1.465 1.47 1.47 0 001.465 1.465 1.47 1.47 0 001.465-1.465zm13 0a1.47 1.47 0 00-1.465-1.465 1.47 1.47 0 00-1.465 1.465 1.47 1.47 0 001.465 1.465 1.47 1.47 0 001.465-1.465zm13 0a1.47 1.47 0 00-1.465-1.465 1.47 1.47 0 00-1.465 1.465 1.47 1.47 0 001.465 1.465 1.47 1.47 0 001.465-1.465zm13 0a1.47 1.47 0 00-1.465-1.465 1.47 1.47 0 00-1.465 1.465 1.47 1.47 0 001.465 1.465 1.47 1.47 0 001.465-1.465zm12 0a1.47 1.47 0 00-1.465-1.465 1.47 1.47 0 00-1.465 1.465 1.47 1.47 0 001.465 1.465 1.47 1.47 0 001.465-1.465zm13-1a1.47 1.47 0 00-1.465-1.465 1.47 1.47 0 00-1.465 1.465 1.47 1.47 0 001.465 1.465 1.47 1.47 0 001.465-1.465zm13 0a1.47 1.47 0 00-1.465-1.465 1.47 1.47 0 00-1.465 1.465 1.47 1.47 0 001.465 1.465 1.47 1.47 0 001.465-1.465zm13 0a1.47 1.47 0 00-1.465-1.465 1.47 1.47 0 00-1.465 1.465 1.47 1.47 0 001.465 1.465 1.47 1.47 0 001.465-1.465zm12 0a1.47 1.47 0 00-1.465-1.465 1.47 1.47 0 00-1.465 1.465 1.47 1.47 0 001.465 1.465 1.47 1.47 0 001.465-1.465zm13-1a1.47 1.47 0 00-1.465-1.465 1.47 1.47 0 00-1.465 1.465 1.47 1.47 0 001.465 1.465 1.47 1.47 0 001.465-1.465zm13 0a1.47 1.47 0 00-1.465-1.465 1.47 1.47 0 00-1.465 1.465 1.47 1.47 0 001.465 1.465 1.47 1.47 0 001.465-1.465zm13-1a1.47 1.47 0 00-1.465-1.465 1.47 1.47 0 00-1.465 1.465 1.47 1.47 0 001.465 1.465 1.47 1.47 0 001.465-1.465zm12 0a1.47 1.47 0 00-1.465-1.465 1.47 1.47 0 00-1.465 1.465 1.47 1.47 0 001.465 1.465 1.47 1.47 0 001.465-1.465zm13 0a1.47 1.47 0 00-1.465-1.465 1.47 1.47 0 00-1.465 1.465 1.47 1.47 0 001.465 1.465 1.47 1.47 0 001.465-1.465zm13 0a1.47 1.47 0 00-1.465-1.465 1.47 1.47 0 00-1.465 1.465 1.47 1.47 0 001.465 1.465 1.47 1.47 0 001.465-1.465zm13-1a1.47 1.47 0 00-1.465-1.465 1.47 1.47 0 00-1.465 1.465 1.47 1.47 0 001.465 1.465 1.47 1.47 0 001.465-1.465zm13 0a1.47 1.47 0 00-1.465-1.465 1.47 1.47 0 00-1.465 1.465 1.47 1.47 0 001.465 1.465 1.47 1.47 0 001.465-1.465zm12 0a1.47 1.47 0 00-1.465-1.465 1.47 1.47 0 00-1.465 1.465 1.47 1.47 0 001.465 1.465 1.47 1.47 0 001.465-1.465zm0 0" fill-rule="evenodd" fill="#c05c20"/><path d="M42.465 239A1.47 1.47 0 0041 237.535 1.47 1.47 0 0039.535 239 1.47 1.47 0 0041 240.465 1.47 1.47 0 0042.465 239zm13 0A1.47 1.47 0 0054 237.535 1.47 1.47 0 0052.535 239 1.47 1.47 0 0054 240.465 1.47 1.47 0 0055.465 239zm13 0A1.47 1.47 0 0067 237.535 1.47 1.47 0 0065.535 239 1.47 1.47 0 0067 240.465 1.47 1.47 0 0068.465 239zm12 0A1.47 1.47 0 0079 237.535 1.47 1.47 0 0077.535 239 1.47 1.47 0 0079 240.465 1.47 1.47 0 0080.465 239zm13 0A1.47 1.47 0 0092 237.535 1.47 1.47 0 0090.535 239 1.47 1.47 0 0092 240.465 1.47 1.47 0 0093.465 239zm13 0a1.47 1.47 0 00-1.465-1.465 1.47 1.47 0 00-1.465 1.465 1.47 1.47 0 001.465 1.465 1.47 1.47 0 001.465-1.465zm13 0a1.47 1.47 0 00-1.465-1.465 1.47 1.47 0 00-1.465 1.465 1.47 1.47 0 001.465 1.465 1.47 1.47 0 001.465-1.465zm12 0a1.47 1.47 0 00-1.465-1.465 1.47 1.47 0 00-1.465 1.465 1.47 1.47 0 001.465 1.465 1.47 1.47 0 001.465-1.465zm13 0a1.47 1.47 0 00-1.465-1.465 1.47 1.47 0 00-1.465 1.465 1.47 1.47 0 001.465 1.465 1.47 1.47 0 001.465-1.465zm13 0a1.47 1.47 0 00-1.465-1.465 1.47 1.47 0 00-1.465 1.465 1.47 1.47 0 001.465 1.465 1.47 1.47 0 001.465-1.465zm13 0a1.47 1.47 0 00-1.465-1.465 1.47 1.47 0 00-1.465 1.465 1.47 1.47 0 001.465 1.465 1.47 1.47 0 001.465-1.465zm13 0a1.47 1.47 0 00-1.465-1.465 1.47 1.47 0 00-1.465 1.465 1.47 1.47 0 001.465 1.465 1.47 1.47 0 001.465-1.465zm12-1a1.47 1.47 0 00-1.465-1.465 1.47 1.47 0 00-1.465 1.465 1.47 1.47 0 001.465 1.465 1.47 1.47 0 001.465-1.465zm13 0a1.47 1.47 0 00-1.465-1.465 1.47 1.47 0 00-1.465 1.465 1.47 1.47 0 001.465 1.465 1.47 1.47 0 001.465-1.465zm13 0a1.47 1.47 0 00-1.465-1.465 1.47 1.47 0 00-1.465 1.465 1.47 1.47 0 001.465 1.465 1.47 1.47 0 001.465-1.465zm13 0a1.47 1.47 0 00-1.465-1.465 1.47 1.47 0 00-1.465 1.465 1.47 1.47 0 001.465 1.465 1.47 1.47 0 001.465-1.465zm12 0a1.47 1.47 0 00-1.465-1.465 1.47 1.47 0 00-1.465 1.465 1.47 1.47 0 001.465 1.465 1.47 1.47 0 001.465-1.465zm13 0a1.47 1.47 0 00-1.465-1.465 1.47 1.47 0 00-1.465 1.465 1.47 1.47 0 001.465 1.465 1.47 1.47 0 001.465-1.465zm13-1a1.47 1.47 0 00-1.465-1.465 1.47 1.47 0 00-1.465 1.465 1.47 1.47 0 001.465 1.465 1.47 1.47 0 001.465-1.465zm13 0a1.47 1.47 0 00-1.465-1.465 1.47 1.47 0 00-1.465 1.465 1.47 1.47 0 001.465 1.465 1.47 1.47 0 001.465-1.465zm12-1a1.47 1.47 0 00-1.465-1.465 1.47 1.47 0 00-1.465 1.465 1.47 1.47 0 001.465 1.465 1.47 1.47 0 001.465-1.465zm13 0a1.47 1.47 0 00-1.465-1.465 1.47 1.47 0 00-1.465 1.465 1.47 1.47 0 001.465 1.465 1.47 1.47 0 001.465-1.465zm13 0a1.47 1.47 0 00-1.465-1.465 1.47 1.47 0 00-1.465 1.465 1.47 1.47 0 001.465 1.465 1.47 1.47 0 001.465-1.465zm13-1a1.47 1.47 0 00-1.465-1.465 1.47 1.47 0 00-1.465 1.465 1.47 1.47 0 001.465 1.465 1.47 1.47 0 001.465-1.465zm13 0a1.47 1.47 0 00-1.465-1.465 1.47 1.47 0 00-1.465 1.465 1.47 1.47 0 001.465 1.465 1.47 1.47 0 001.465-1.465zm12 0a1.47 1.47 0 00-1.465-1.465 1.47 1.47 0 00-1.465 1.465 1.47 1.47 0 001.465 1.465 1.47 1.47 0 001.465-1.465zm0 0" fill-rule="evenodd" fill="#6f42b5"/><path d="M42.465 239A1.47 1.47 0 0041 237.535 1.47 1.47 0 0039.535 239 1.47 1.47 0 0041 240.465 1.47 1.47 0 0042.465 239zm13 0A1.47 1.47 0 0054 237.535 1.47 1.47 0 0052.535 239 1.47 1.47 0 0054 240.465 1.47 1.47 0 0055.465 239zm13 0A1.47 1.47 0 0067 237.535 1.47 1.47 0 0065.535 239 1.47 1.47 0 0067 240.465 1.47 1.47 0 0068.465 239zm12 0A1.47 1.47 0 0079 237.535 1.47 1.47 0 0077.535 239 1.47 1.47 0 0079 240.465 1.47 1.47 0 0080.465 239zm13 0A1.47 1.47 0 0092 237.535 1.47 1.47 0 0090.535 239 1.47 1.47 0 0092 240.465 1.47 1.47 0 0093.465 239zm13 0a1.47 1.47 0 00-1.465-1.465 1.47 1.47 0 00-1.465 1.465 1.47 1.47 0 001.465 1.465 1.47 1.47 0 001.465-1.465zm13 0a1.47 1.47 0 00-1.465-1.465 1.47 1.47 0 00-1.465 1.465 1.47 1.47 0 001.465 1.465 1.47 1.47 0 001.465-1.465zm12 0a1.47 1.47 0 00-1.465-1.465 1.47 1.47 0 00-1.465 1.465 1.47 1.47 0 001.465 1.465 1.47 1.47 0 001.465-1.465zm13 0a1.47 1.47 0 00-1.465-1.465 1.47 1.47 0 00-1.465 1.465 1.47 1.47 0 001.465 1.465 1.47 1.47 0 001.465-1.465zm13 0a1.47 1.47 0 00-1.465-1.465 1.47 1.47 0 00-1.465 1.465 1.47 1.47 0 001.465 1.465 1.47 1.47 0 001.465-1.465zm13 0a1.47 1.47 0 00-1.465-1.465 1.47 1.47 0 00-1.465 1.465 1.47 1.47 0 001.465 1.465 1.47 1.47 0 001.465-1.465zm13 0a1.47 1.47 0 00-1.465-1.465 1.47 1.47 0 00-1.465 1.465 1.47 1.47 0 001.465 1.465 1.47 1.47 0 001.465-1.465zm12 0a1.47 1.47 0 00-1.465-1.465 1.47 1.47 0 00-1.465 1.465 1.47 1.47 0 001.465 1.465 1.47 1.47 0 001.465-1.465zm13 0a1.47 1.47 0 00-1.465-1.465 1.47 1.47 0 00-1.465 1.465 1.47 1.47 0 001.465 1.465 1.47 1.47 0 001.465-1.465zm13-1a1.47 1.47 0 00-1.465-1.465 1.47 1.47 0 00-1.465 1.465 1.47 1.47 0 001.465 1.465 1.47 1.47 0 001.465-1.465zm13 0a1.47 1.47 0 00-1.465-1.465 1.47 1.47 0 00-1.465 1.465 1.47 1.47 0 001.465 1.465 1.47 1.47 0 001.465-1.465zm12 0a1.47 1.47 0 00-1.465-1.465 1.47 1.47 0 00-1.465 1.465 1.47 1.47 0 001.465 1.465 1.47 1.47 0 001.465-1.465zm13 0a1.47 1.47 0 00-1.465-1.465 1.47 1.47 0 00-1.465 1.465 1.47 1.47 0 001.465 1.465 1.47 1.47 0 001.465-1.465zm13 0a1.47 1.47 0 00-1.465-1.465 1.47 1.47 0 00-1.465 1.465 1.47 1.47 0 001.465 1.465 1.47 1.47 0 001.465-1.465zm13-1a1.47 1.47 0 00-1.465-1.465 1.47 1.47 0 00-1.465 1.465 1.47 1.47 0 001.465 1.465 1.47 1.47 0 001.465-1.465zm12 0a1.47 1.47 0 00-1.465-1.465 1.47 1.47 0 00-1.465 1.465 1.47 1.47 0 001.465 1.465 1.47 1.47 0 001.465-1.465zm13 0a1.47 1.47 0 00-1.465-1.465 1.47 1.47 0 00-1.465 1.465 1.47 1.47 0 001.465 1.465 1.47 1.47 0 001.465-1.465zm13-1a1.47 1.47 0 00-1.465-1.465 1.47 1.47 0 00-1.465 1.465 1.47 1.47 0 001.465 1.465 1.47 1.47 0 001.465-1.465zm13 0a1.47 1.47 0 00-1.465-1.465 1.47 1.47 0 00-1.465 1.465 1.47 1.47 0 001.465 1.465 1.47 1.47 0 001.465-1.465zm13-1a1.47 1.47 0 00-1.465-1.465 1.47 1.47 0 00-1.465 1.465 1.47 1.47 0 001.465 1.465 1.47 1.47 0 001.465-1.465zm12 0a1.47 1.47 0 00-1.465-1.465 1.47 1.47 0 00-1.465 1.465 1.47 1.47 0 001.465 1.465 1.47 1.47 0 001.465-1.465zm0 0" fill-rule="evenodd" fill="#769003"/><path d="M42.465 239A1.47 1.47 0 0041 237.535 1.47 1.47 0 0039.535 239 1.47 1.47 0 0041 240.465 1.47 1.47 0 0042.465 239zm13 0A1.47 1.47 0 0054 237.535 1.47 1.47 0 0052.535 239 1.47 1.47 0 0054 240.465 1.47 1.47 0 0055.465 239zm13 0A1.47 1.47 0 0067 237.535 1.47 1.47 0 0065.535 239 1.47 1.47 0 0067 240.465 1.47 1.47 0 0068.465 239zm12 0A1.47 1.47 0 0079 237.535 1.47 1.47 0 0077.535 239 1.47 1.47 0 0079 240.465 1.47 1.47 0 0080.465 239zm13 0A1.47 1.47 0 0092 237.535 1.47 1.47 0 0090.535 239 1.47 1.47 0 0092 240.465 1.47 1.47 0 0093.465 239zm13 0a1.47 1.47 0 00-1.465-1.465 1.47 1.47 0 00-1.465 1.465 1.47 1.47 0 001.465 1.465 1.47 1.47 0 001.465-1.465zm13 0a1.47 1.47 0 00-1.465-1.465 1.47 1.47 0 00-1.465 1.465 1.47 1.47 0 001.465 1.465 1.47 1.47 0 001.465-1.465zm12 0a1.47 1.47 0 00-1.465-1.465 1.47 1.47 0 00-1.465 1.465 1.47 1.47 0 001.465 1.465 1.47 1.47 0 001.465-1.465zm13 0a1.47 1.47 0 00-1.465-1.465 1.47 1.47 0 00-1.465 1.465 1.47 1.47 0 001.465 1.465 1.47 1.47 0 001.465-1.465zm13 0a1.47 1.47 0 00-1.465-1.465 1.47 1.47 0 00-1.465 1.465 1.47 1.47 0 001.465 1.465 1.47 1.47 0 001.465-1.465zm13 0a1.47 1.47 0 00-1.465-1.465 1.47 1.47 0 00-1.465 1.465 1.47 1.47 0 001.465 1.465 1.47 1.47 0 001.465-1.465zm13 0a1.47 1.47 0 00-1.465-1.465 1.47 1.47 0 00-1.465 1.465 1.47 1.47 0 001.465 1.465 1.47 1.47 0 001.465-1.465zm12 0a1.47 1.47 0 00-1.465-1.465 1.47 1.47 0 00-1.465 1.465 1.47 1.47 0 001.465 1.465 1.47 1.47 0 001.465-1.465zm13 0a1.47 1.47 0 00-1.465-1.465 1.47 1.47 0 00-1.465 1.465 1.47 1.47 0 001.465 1.465 1.47 1.47 0 001.465-1.465zm13-1a1.47 1.47 0 00-1.465-1.465 1.47 1.47 0 00-1.465 1.465 1.47 1.47 0 001.465 1.465 1.47 1.47 0 001.465-1.465zm13 0a1.47 1.47 0 00-1.465-1.465 1.47 1.47 0 00-1.465 1.465 1.47 1.47 0 001.465 1.465 1.47 1.47 0 001.465-1.465zm12 0a1.47 1.47 0 00-1.465-1.465 1.47 1.47 0 00-1.465 1.465 1.47 1.47 0 001.465 1.465 1.47 1.47 0 001.465-1.465zm13 0a1.47 1.47 0 00-1.465-1.465 1.47 1.47 0 00-1.465 1.465 1.47 1.47 0 001.465 1.465 1.47 1.47 0 001.465-1.465zm13 0a1.47 1.47 0 00-1.465-1.465 1.47 1.47 0 00-1.465 1.465 1.47 1.47 0 001.465 1.465 1.47 1.47 0 001.465-1.465zm13-1a1.47 1.47 0 00-1.465-1.465 1.47 1.47 0 00-1.465 1.465 1.47 1.47 0 001.465 1.465 1.47 1.47 0 001.465-1.465zm12 0a1.47 1.47 0 00-1.465-1.465 1.47 1.47 0 00-1.465 1.465 1.47 1.47 0 001.465 1.465 1.47 1.47 0 001.465-1.465zm13 0a1.47 1.47 0 00-1.465-1.465 1.47 1.47 0 00-1.465 1.465 1.47 1.47 0 001.465 1.465 1.47 1.47 0 001.465-1.465zm13-1a1.47 1.47 0 00-1.465-1.465 1.47 1.47 0 00-1.465 1.465 1.47 1.47 0 001.465 1.465 1.47 1.47 0 001.465-1.465zm13 0a1.47 1.47 0 00-1.465-1.465 1.47 1.47 0 00-1.465 1.465 1.47 1.47 0 001.465 1.465 1.47 1.47 0 001.465-1.465zm13 0a1.47 1.47 0 00-1.465-1.465 1.47 1.47 0 00-1.465 1.465 1.47 1.47 0 001.465 1.465 1.47 1.47 0 001.465-1.465zm12 0a1.47 1.47 0 00-1.465-1.465 1.47 1.47 0 00-1.465 1.465 1.47 1.47 0 001.465 1.465 1.47 1.47 0 001.465-1.465zm0 0" fill-rule="evenodd" fill="#a8364d"/><path d="M42.465 239A1.47 1.47 0 0041 237.535 1.47 1.47 0 0039.535 239 1.47 1.47 0 0041 240.465 1.47 1.47 0 0042.465 239zm13 0A1.47 1.47 0 0054 237.535 1.47 1.47 0 0052.535 239 1.47 1.47 0 0054 240.465 1.47 1.47 0 0055.465 239zm13 0A1.47 1.47 0 0067 237.535 1.47 1.47 0 0065.535 239 1.47 1.47 0 0067 240.465 1.47 1.47 0 0068.465 239zm12 0A1.47 1.47 0 0079 237.535 1.47 1.47 0 0077.535 239 1.47 1.47 0 0079 240.465 1.47 1.47 0 0080.465 239zm13 0A1.47 1.47 0 0092 237.535 1.47 1.47 0 0090.535 239 1.47 1.47 0 0092 240.465 1.47 1.47 0 0093.465 239zm13 0a1.47 1.47 0 00-1.465-1.465 1.47 1.47 0 00-1.465 1.465 1.47 1.47 0 001.465 1.465 1.47 1.47 0 001.465-1.465zm13 0a1.47 1.47 0 00-1.465-1.465 1.47 1.47 0 00-1.465 1.465 1.47 1.47 0 001.465 1.465 1.47 1.47 0 001.465-1.465zm12 0a1.47 1.47 0 00-1.465-1.465 1.47 1.47 0 00-1.465 1.465 1.47 1.47 0 001.465 1.465 1.47 1.47 0 001.465-1.465zm13 0a1.47 1.47 0 00-1.465-1.465 1.47 1.47 0 00-1.465 1.465 1.47 1.47 0 001.465 1.465 1.47 1.47 0 001.465-1.465zm13 0a1.47 1.47 0 00-1.465-1.465 1.47 1.47 0 00-1.465 1.465 1.47 1.47 0 001.465 1.465 1.47 1.47 0 001.465-1.465zm13 0a1.47 1.47 0 00-1.465-1.465 1.47 1.47 0 00-1.465 1.465 1.47 1.47 0 001.465 1.465 1.47 1.47 0 001.465-1.465zm13 0a1.47 1.47 0 00-1.465-1.465 1.47 1.47 0 00-1.465 1.465 1.47 1.47 0 001.465 1.465 1.47 1.47 0 001.465-1.465zm12 0a1.47 1.47 0 00-1.465-1.465 1.47 1.47 0 00-1.465 1.465 1.47 1.47 0 001.465 1.465 1.47 1.47 0 001.465-1.465zm13 0a1.47 1.47 0 00-1.465-1.465 1.47 1.47 0 00-1.465 1.465 1.47 1.47 0 001.465 1.465 1.47 1.47 0 001.465-1.465zm13 0a1.47 1.47 0 00-1.465-1.465 1.47 1.47 0 00-1.465 1.465 1.47 1.47 0 001.465 1.465 1.47 1.47 0 001.465-1.465zm13 0a1.47 1.47 0 00-1.465-1.465 1.47 1.47 0 00-1.465 1.465 1.47 1.47 0 001.465 1.465 1.47 1.47 0 001.465-1.465zm12-1a1.47 1.47 0 00-1.465-1.465 1.47 1.47 0 00-1.465 1.465 1.47 1.47 0 001.465 1.465 1.47 1.47 0 001.465-1.465zm13 0a1.47 1.47 0 00-1.465-1.465 1.47 1.47 0 00-1.465 1.465 1.47 1.47 0 001.465 1.465 1.47 1.47 0 001.465-1.465zm13 0a1.47 1.47 0 00-1.465-1.465 1.47 1.47 0 00-1.465 1.465 1.47 1.47 0 001.465 1.465 1.47 1.47 0 001.465-1.465zm13 0a1.47 1.47 0 00-1.465-1.465 1.47 1.47 0 00-1.465 1.465 1.47 1.47 0 001.465 1.465 1.47 1.47 0 001.465-1.465zm12-1a1.47 1.47 0 00-1.465-1.465 1.47 1.47 0 00-1.465 1.465 1.47 1.47 0 001.465 1.465 1.47 1.47 0 001.465-1.465zm13 0a1.47 1.47 0 00-1.465-1.465 1.47 1.47 0 00-1.465 1.465 1.47 1.47 0 001.465 1.465 1.47 1.47 0 001.465-1.465zm13 0a1.47 1.47 0 00-1.465-1.465 1.47 1.47 0 00-1.465 1.465 1.47 1.47 0 001.465 1.465 1.47 1.47 0 001.465-1.465zm13 0a1.47 1.47 0 00-1.465-1.465 1.47 1.47 0 00-1.465 1.465 1.47 1.47 0 001.465 1.465 1.47 1.47 0 001.465-1.465zm13-1a1.47 1.47 0 00-1.465-1.465 1.47 1.47 0 00-1.465 1.465 1.47 1.47 0 001.465 1.465 1.47 1.47 0 001.465-1.465zm12 0a1.47 1.47 0 00-1.465-1.465 1.47 1.47 0 00-1.465 1.465 1.47 1.47 0 001.465 1.465 1.47 1.47 0 001.465-1.465zm0 0" fill-rule="evenodd" fill="#3664cc"/><path d="M42.465 239A1.47 1.47 0 0041 237.535 1.47 1.47 0 0039.535 239 1.47 1.47 0 0041 240.465 1.47 1.47 0 0042.465 239zm13 0A1.47 1.47 0 0054 237.535 1.47 1.47 0 0052.535 239 1.47 1.47 0 0054 240.465 1.47 1.47 0 0055.465 239zm13 0A1.47 1.47 0 0067 237.535 1.47 1.47 0 0065.535 239 1.47 1.47 0 0067 240.465 1.47 1.47 0 0068.465 239zm12 0A1.47 1.47 0 0079 237.535 1.47 1.47 0 0077.535 239 1.47 1.47 0 0079 240.465 1.47 1.47 0 0080.465 239zm13 0A1.47 1.47 0 0092 237.535 1.47 1.47 0 0090.535 239 1.47 1.47 0 0092 240.465 1.47 1.47 0 0093.465 239zm13 0a1.47 1.47 0 00-1.465-1.465 1.47 1.47 0 00-1.465 1.465 1.47 1.47 0 001.465 1.465 1.47 1.47 0 001.465-1.465zm13 0a1.47 1.47 0 00-1.465-1.465 1.47 1.47 0 00-1.465 1.465 1.47 1.47 0 001.465 1.465 1.47 1.47 0 001.465-1.465zm12 0a1.47 1.47 0 00-1.465-1.465 1.47 1.47 0 00-1.465 1.465 1.47 1.47 0 001.465 1.465 1.47 1.47 0 001.465-1.465zm13 0a1.47 1.47 0 00-1.465-1.465 1.47 1.47 0 00-1.465 1.465 1.47 1.47 0 001.465 1.465 1.47 1.47 0 001.465-1.465zm13 0a1.47 1.47 0 00-1.465-1.465 1.47 1.47 0 00-1.465 1.465 1.47 1.47 0 001.465 1.465 1.47 1.47 0 001.465-1.465zm13 0a1.47 1.47 0 00-1.465-1.465 1.47 1.47 0 00-1.465 1.465 1.47 1.47 0 001.465 1.465 1.47 1.47 0 001.465-1.465zm13 0a1.47 1.47 0 00-1.465-1.465 1.47 1.47 0 00-1.465 1.465 1.47 1.47 0 001.465 1.465 1.47 1.47 0 001.465-1.465zm12 0a1.47 1.47 0 00-1.465-1.465 1.47 1.47 0 00-1.465 1.465 1.47 1.47 0 001.465 1.465 1.47 1.47 0 001.465-1.465zm13 0a1.47 1.47 0 00-1.465-1.465 1.47 1.47 0 00-1.465 1.465 1.47 1.47 0 001.465 1.465 1.47 1.47 0 001.465-1.465zm13-1a1.47 1.47 0 00-1.465-1.465 1.47 1.47 0 00-1.465 1.465 1.47 1.47 0 001.465 1.465 1.47 1.47 0 001.465-1.465zm13 0a1.47 1.47 0 00-1.465-1.465 1.47 1.47 0 00-1.465 1.465 1.47 1.47 0 001.465 1.465 1.47 1.47 0 001.465-1.465zm12 0a1.47 1.47 0 00-1.465-1.465 1.47 1.47 0 00-1.465 1.465 1.47 1.47 0 001.465 1.465 1.47 1.47 0 001.465-1.465zm13 0a1.47 1.47 0 00-1.465-1.465 1.47 1.47 0 00-1.465 1.465 1.47 1.47 0 001.465 1.465 1.47 1.47 0 001.465-1.465zm13 0a1.47 1.47 0 00-1.465-1.465 1.47 1.47 0 00-1.465 1.465 1.47 1.47 0 001.465 1.465 1.47 1.47 0 001.465-1.465zm13 0a1.47 1.47 0 00-1.465-1.465 1.47 1.47 0 00-1.465 1.465 1.47 1.47 0 001.465 1.465 1.47 1.47 0 001.465-1.465zm12-1a1.47 1.47 0 00-1.465-1.465 1.47 1.47 0 00-1.465 1.465 1.47 1.47 0 001.465 1.465 1.47 1.47 0 001.465-1.465zm13 0a1.47 1.47 0 00-1.465-1.465 1.47 1.47 0 00-1.465 1.465 1.47 1.47 0 001.465 1.465 1.47 1.47 0 001.465-1.465zm13 0a1.47 1.47 0 00-1.465-1.465 1.47 1.47 0 00-1.465 1.465 1.47 1.47 0 001.465 1.465 1.47 1.47 0 001.465-1.465zm13 0a1.47 1.47 0 00-1.465-1.465 1.47 1.47 0 00-1.465 1.465 1.47 1.47 0 001.465 1.465 1.47 1.47 0 001.465-1.465zm13-1a1.47 1.47 0 00-1.465-1.465 1.47 1.47 0 00-1.465 1.465 1.47 1.47 0 001.465 1.465 1.47 1.47 0 001.465-1.465zm12 0a1.47 1.47 0 00-1.465-1.465 1.47 1.47 0 00-1.465 1.465 1.47 1.47 0 001.465 1.465 1.47 1.47 0 001.465-1.465zm0 0" fill-rule="evenodd" fill="#c8860a"/><path d="M42.465 239A1.47 1.47 0 0041 237.535 1.47 1.47 0 0039.535 239 1.47 1.47 0 0041 240.465 1.47 1.47 0 0042.465 239zm13 0A1.47 1.47 0 0054 237.535 1.47 1.47 0 0052.535 239 1.47 1.47 0 0054 240.465 1.47 1.47 0 0055.465 239zm13 0A1.47 1.47 0 0067 237.535 1.47 1.47 0 0065.535 239 1.47 1.47 0 0067 240.465 1.47 1.47 0 0068.465 239zm12 0A1.47 1.47 0 0079 237.535 1.47 1.47 0 0077.535 239 1.47 1.47 0 0079 240.465 1.47 1.47 0 0080.465 239zm13 0A1.47 1.47 0 0092 237.535 1.47 1.47 0 0090.535 239 1.47 1.47 0 0092 240.465 1.47 1.47 0 0093.465 239zm13 0a1.47 1.47 0 00-1.465-1.465 1.47 1.47 0 00-1.465 1.465 1.47 1.47 0 001.465 1.465 1.47 1.47 0 001.465-1.465zm13 0a1.47 1.47 0 00-1.465-1.465 1.47 1.47 0 00-1.465 1.465 1.47 1.47 0 001.465 1.465 1.47 1.47 0 001.465-1.465zm12 0a1.47 1.47 0 00-1.465-1.465 1.47 1.47 0 00-1.465 1.465 1.47 1.47 0 001.465 1.465 1.47 1.47 0 001.465-1.465zm13 0a1.47 1.47 0 00-1.465-1.465 1.47 1.47 0 00-1.465 1.465 1.47 1.47 0 001.465 1.465 1.47 1.47 0 001.465-1.465zm13 0a1.47 1.47 0 00-1.465-1.465 1.47 1.47 0 00-1.465 1.465 1.47 1.47 0 001.465 1.465 1.47 1.47 0 001.465-1.465zm13 0a1.47 1.47 0 00-1.465-1.465 1.47 1.47 0 00-1.465 1.465 1.47 1.47 0 001.465 1.465 1.47 1.47 0 001.465-1.465zm13 0a1.47 1.47 0 00-1.465-1.465 1.47 1.47 0 00-1.465 1.465 1.47 1.47 0 001.465 1.465 1.47 1.47 0 001.465-1.465zm12 0a1.47 1.47 0 00-1.465-1.465 1.47 1.47 0 00-1.465 1.465 1.47 1.47 0 001.465 1.465 1.47 1.47 0 001.465-1.465zm13-1a1.47 1.47 0 00-1.465-1.465 1.47 1.47 0 00-1.465 1.465 1.47 1.47 0 001.465 1.465 1.47 1.47 0 001.465-1.465zm13 0a1.47 1.47 0 00-1.465-1.465 1.47 1.47 0 00-1.465 1.465 1.47 1.47 0 001.465 1.465 1.47 1.47 0 001.465-1.465zm13 0a1.47 1.47 0 00-1.465-1.465 1.47 1.47 0 00-1.465 1.465 1.47 1.47 0 001.465 1.465 1.47 1.47 0 001.465-1.465zm12 0a1.47 1.47 0 00-1.465-1.465 1.47 1.47 0 00-1.465 1.465 1.47 1.47 0 001.465 1.465 1.47 1.47 0 001.465-1.465zm13 0a1.47 1.47 0 00-1.465-1.465 1.47 1.47 0 00-1.465 1.465 1.47 1.47 0 001.465 1.465 1.47 1.47 0 001.465-1.465zm13 0a1.47 1.47 0 00-1.465-1.465 1.47 1.47 0 00-1.465 1.465 1.47 1.47 0 001.465 1.465 1.47 1.47 0 001.465-1.465zm13 0a1.47 1.47 0 00-1.465-1.465 1.47 1.47 0 00-1.465 1.465 1.47 1.47 0 001.465 1.465 1.47 1.47 0 001.465-1.465zm12 0a1.47 1.47 0 00-1.465-1.465 1.47 1.47 0 00-1.465 1.465 1.47 1.47 0 001.465 1.465 1.47 1.47 0 001.465-1.465zm13 0a1.47 1.47 0 00-1.465-1.465 1.47 1.47 0 00-1.465 1.465 1.47 1.47 0 001.465 1.465 1.47 1.47 0 001.465-1.465zm13-1a1.47 1.47 0 00-1.465-1.465 1.47 1.47 0 00-1.465 1.465 1.47 1.47 0 001.465 1.465 1.47 1.47 0 001.465-1.465zm13 0a1.47 1.47 0 00-1.465-1.465 1.47 1.47 0 00-1.465 1.465 1.47 1.47 0 001.465 1.465 1.47 1.47 0 001.465-1.465zm13 0a1.47 1.47 0 00-1.465-1.465 1.47 1.47 0 00-1.465 1.465 1.47 1.47 0 001.465 1.465 1.47 1.47 0 001.465-1.465zm12 0a1.47 1.47 0 00-1.465-1.465 1.47 1.47 0 00-1.465 1.465 1.47 1.47 0 001.465 1.465 1.47 1.47 0 001.465-1.465zm0 0" fill-rule="evenodd" fill="#833987"/><path d="M42.465 239A1.47 1.47 0 0041 237.535 1.47 1.47 0 0039.535 239 1.47 1.47 0 0041 240.465 1.47 1.47 0 0042.465 239zm13 0A1.47 1.47 0 0054 237.535 1.47 1.47 0 0052.535 239 1.47 1.47 0 0054 240.465 1.47 1.47 0 0055.465 239zm13 0A1.47 1.47 0 0067 237.535 1.47 1.47 0 0065.535 239 1.47 1.47 0 0067 240.465 1.47 1.47 0 0068.465 239zm12 0A1.47 1.47 0 0079 237.535 1.47 1.47 0 0077.535 239 1.47 1.47 0 0079 240.465 1.47 1.47 0 0080.465 239zm13 0A1.47 1.47 0 0092 237.535 1.47 1.47 0 0090.535 239 1.47 1.47 0 0092 240.465 1.47 1.47 0 0093.465 239zm13 0a1.47 1.47 0 00-1.465-1.465 1.47 1.47 0 00-1.465 1.465 1.47 1.47 0 001.465 1.465 1.47 1.47 0 001.465-1.465zm13 0a1.47 1.47 0 00-1.465-1.465 1.47 1.47 0 00-1.465 1.465 1.47 1.47 0 001.465 1.465 1.47 1.47 0 001.465-1.465zm12 0a1.47 1.47 0 00-1.465-1.465 1.47 1.47 0 00-1.465 1.465 1.47 1.47 0 001.465 1.465 1.47 1.47 0 001.465-1.465zm13 0a1.47 1.47 0 00-1.465-1.465 1.47 1.47 0 00-1.465 1.465 1.47 1.47 0 001.465 1.465 1.47 1.47 0 001.465-1.465zm13 0a1.47 1.47 0 00-1.465-1.465 1.47 1.47 0 00-1.465 1.465 1.47 1.47 0 001.465 1.465 1.47 1.47 0 001.465-1.465zm13 0a1.47 1.47 0 00-1.465-1.465 1.47 1.47 0 00-1.465 1.465 1.47 1.47 0 001.465 1.465 1.47 1.47 0 001.465-1.465zm13 0a1.47 1.47 0 00-1.465-1.465 1.47 1.47 0 00-1.465 1.465 1.47 1.47 0 001.465 1.465 1.47 1.47 0 001.465-1.465zm12 0a1.47 1.47 0 00-1.465-1.465 1.47 1.47 0 00-1.465 1.465 1.47 1.47 0 001.465 1.465 1.47 1.47 0 001.465-1.465zm13 0a1.47 1.47 0 00-1.465-1.465 1.47 1.47 0 00-1.465 1.465 1.47 1.47 0 001.465 1.465 1.47 1.47 0 001.465-1.465zm13 0a1.47 1.47 0 00-1.465-1.465 1.47 1.47 0 00-1.465 1.465 1.47 1.47 0 001.465 1.465 1.47 1.47 0 001.465-1.465zm13 0a1.47 1.47 0 00-1.465-1.465 1.47 1.47 0 00-1.465 1.465 1.47 1.47 0 001.465 1.465 1.47 1.47 0 001.465-1.465zm12-1a1.47 1.47 0 00-1.465-1.465 1.47 1.47 0 00-1.465 1.465 1.47 1.47 0 001.465 1.465 1.47 1.47 0 001.465-1.465zm13 0a1.47 1.47 0 00-1.465-1.465 1.47 1.47 0 00-1.465 1.465 1.47 1.47 0 001.465 1.465 1.47 1.47 0 001.465-1.465zm13 0a1.47 1.47 0 00-1.465-1.465 1.47 1.47 0 00-1.465 1.465 1.47 1.47 0 001.465 1.465 1.47 1.47 0 001.465-1.465zm13 0a1.47 1.47 0 00-1.465-1.465 1.47 1.47 0 00-1.465 1.465 1.47 1.47 0 001.465 1.465 1.47 1.47 0 001.465-1.465zm12 0a1.47 1.47 0 00-1.465-1.465 1.47 1.47 0 00-1.465 1.465 1.47 1.47 0 001.465 1.465 1.47 1.47 0 001.465-1.465zm13 0a1.47 1.47 0 00-1.465-1.465 1.47 1.47 0 00-1.465 1.465 1.47 1.47 0 001.465 1.465 1.47 1.47 0 001.465-1.465zm13 0a1.47 1.47 0 00-1.465-1.465 1.47 1.47 0 00-1.465 1.465 1.47 1.47 0 001.465 1.465 1.47 1.47 0 001.465-1.465zm13-1a1.47 1.47 0 00-1.465-1.465 1.47 1.47 0 00-1.465 1.465 1.47 1.47 0 001.465 1.465 1.47 1.47 0 001.465-1.465zm13 0a1.47 1.47 0 00-1.465-1.465 1.47 1.47 0 00-1.465 1.465 1.47 1.47 0 001.465 1.465 1.47 1.47 0 001.465-1.465zm12 0a1.47 1.47 0 00-1.465-1.465 1.47 1.47 0 00-1.465 1.465 1.47 1.47 0 001.465 1.465 1.47 1.47 0 001.465-1.465zm0 0" fill-rule="evenodd" fill="#1c8f6b"/><path d="M42.465 239A1.47 1.47 0 0041 237.535 1.47 1.47 0 0039.535 239 1.47 1.47 0 0041 240.465 1.47 1.47 0 0042.465 239zm13 0A1.47 1.47 0 0054 237.535 1.47 1.47 0 0052.535 239 1.47 1.47 0 0054 240.465 1.47 1.47 0 0055.465 239zm13 0A1.47 1.47 0 0067 237.535 1.47 1.47 0 0065.535 239 1.47 1.47 0 0067 240.465 1.47 1.47 0 0068.465 239zm12 0A1.47 1.47 0 0079 237.535 1.47 1.47 0 0077.535 239 1.47 1.47 0 0079 240.465 1.47 1.47 0 0080.465 239zm13 0A1.47 1.47 0 0092 237.535 1.47 1.47 0 0090.535 239 1.47 1.47 0 0092 240.465 1.47 1.47 0 0093.465 239zm13 0a1.47 1.47 0 00-1.465-1.465 1.47 1.47 0 00-1.465 1.465 1.47 1.47 0 001.465 1.465 1.47 1.47 0 001.465-1.465zm13 0a1.47 1.47 0 00-1.465-1.465 1.47 1.47 0 00-1.465 1.465 1.47 1.47 0 001.465 1.465 1.47 1.47 0 001.465-1.465zm12 0a1.47 1.47 0 00-1.465-1.465 1.47 1.47 0 00-1.465 1.465 1.47 1.47 0 001.465 1.465 1.47 1.47 0 001.465-1.465zm13 0a1.47 1.47 0 00-1.465-1.465 1.47 1.47 0 00-1.465 1.465 1.47 1.47 0 001.465 1.465 1.47 1.47 0 001.465-1.465zm13 0a1.47 1.47 0 00-1.465-1.465 1.47 1.47 0 00-1.465 1.465 1.47 1.47 0 001.465 1.465 1.47 1.47 0 001.465-1.465zm13 0a1.47 1.47 0 00-1.465-1.465 1.47 1.47 0 00-1.465 1.465 1.47 1.47 0 001.465 1.465 1.47 1.47 0 001.465-1.465zm13 0a1.47 1.47 0 00-1.465-1.465 1.47 1.47 0 00-1.465 1.465 1.47 1.47 0 001.465 1.465 1.47 1.47 0 001.465-1.465zm12 0a1.47 1.47 0 00-1.465-1.465 1.47 1.47 0 00-1.465 1.465 1.47 1.47 0 001.465 1.465 1.47 1.47 0 001.465-1.465zm13 0a1.47 1.47 0 00-1.465-1.465 1.47 1.47 0 00-1.465 1.465 1.47 1.47 0 001.465 1.465 1.47 1.47 0 001.465-1.465zm13 0a1.47 1.47 0 00-1.465-1.465 1.47 1.47 0 00-1.465 1.465 1.47 1.47 0 001.465 1.465 1.47 1.47 0 001.465-1.465zm13-1a1.47 1.47 0 00-1.465-1.465 1.47 1.47 0 00-1.465 1.465 1.47 1.47 0 001.465 1.465 1.47 1.47 0 001.465-1.465zm12 0a1.47 1.47 0 00-1.465-1.465 1.47 1.47 0 00-1.465 1.465 1.47 1.47 0 001.465 1.465 1.47 1.47 0 001.465-1.465zm13 0a1.47 1.47 0 00-1.465-1.465 1.47 1.47 0 00-1.465 1.465 1.47 1.47 0 001.465 1.465 1.47 1.47 0 001.465-1.465zm13 0a1.47 1.47 0 00-1.465-1.465 1.47 1.47 0 00-1.465 1.465 1.47 1.47 0 001.465 1.465 1.47 1.47 0 001.465-1.465zm13 0a1.47 1.47 0 00-1.465-1.465 1.47 1.47 0 00-1.465 1.465 1.47 1.47 0 001.465 1.465 1.47 1.47 0 001.465-1.465zm12 0a1.47 1.47 0 00-1.465-1.465 1.47 1.47 0 00-1.465 1.465 1.47 1.47 0 001.465 1.465 1.47 1.47 0 001.465-1.465zm13 0a1.47 1.47 0 00-1.465-1.465 1.47 1.47 0 00-1.465 1.465 1.47 1.47 0 001.465 1.465 1.47 1.47 0 001.465-1.465zm13 0a1.47 1.47 0 00-1.465-1.465 1.47 1.47 0 00-1.465 1.465 1.47 1.47 0 001.465 1.465 1.47 1.47 0 001.465-1.465zm13 0a1.47 1.47 0 00-1.465-1.465 1.47 1.47 0 00-1.465 1.465 1.47 1.47 0 001.465 1.465 1.47 1.47 0 001.465-1.465zm13-1a1.47 1.47 0 00-1.465-1.465 1.47 1.47 0 00-1.465 1.465 1.47 1.47 0 001.465 1.465 1.47 1.47 0 001.465-1.465zm12 0a1.47 1.47 0 00-1.465-1.465 1.47 1.47 0 00-1.465 1.465 1.47 1.47 0 001.465 1.465 1.47 1.47 0 001.465-1.465zm0 0" fill-rule="evenodd" fill="#a54f05"/><path d="M432.2 23.379h4.593l.215-.004.265-.016.325-.027.394-.047.48-.074.571-.106.672-.144.793-.184.914-.23 1.055-.29 1.199-.343 1.344-.398 1.453-.446 1.539-.48 1.601-.504 1.637-.516 1.64-.515 1.622-.504 1.578-.485 1.5-.453 1.402-.406 1.278-.355 1.14-.297 1.012-.239.906-.191.809-.152.726-.11.664-.078.614-.055.574-.027.555-.015.543-.008h5.046" fill="none" stroke-width="4" stroke-linejoin="round" stroke="#fff" stroke-opacity=".667" stroke-miterlimit="3.25"/><path d="M432.2 23.379h4.593l.215-.004.265-.016.325-.027.394-.047.48-.074.571-.106.672-.144.793-.184.914-.23 1.055-.29 1.199-.343 1.344-.398 1.453-.446 1.539-.48 1.601-.504 1.637-.516 1.64-.515 1.622-.504 1.578-.485 1.5-.453 1.402-.406 1.278-.355 1.14-.297 1.012-.239.906-.191.809-.152.726-.11.664-.078.614-.055.574-.027.555-.015.543-.008h5.046" fill="none" stroke-width="1.25" stroke-linecap="square" stroke="#aaa" stroke-miterlimit="3.25"/><path d="M497.86 8.18v15h-25v-15zm0 0" fill="#fff" fill-opacity=".667"/><use xlink:href="#a" x="475.359" y="18.18"/><use xlink:href="#b" x="485.359" y="18.18"/><path d="M432.2 77.355h4.51l.138-.003.156-.016.18-.04.207-.07.242-.113.273-.164.317-.226.359-.297.406-.38.461-.464.512-.566.574-.676.633-.797.703-.926.774-1.062.847-1.211.918-1.352.98-1.476 1.036-1.582 1.078-1.664 1.11-1.735 1.136-1.781 1.152-1.805 1.16-1.816 1.157-1.801 1.14-1.773 1.121-1.723 1.09-1.656 1.051-1.563 1-1.457.942-1.332.87-1.183.805-1.04.739-.902.683-.777.63-.656.585-.551.54-.45.5-.363.472-.285.441-.215.422-.156.406-.105.39-.067.388-.035.386-.012.39-.004h4.65" fill="none" stroke-width="4" stroke-linejoin="round" stroke="#fff" stroke-opacity=".667" stroke-miterlimit="3.25"/><path d="M432.2 77.355h4.51l.138-.003.156-.016.18-.04.207-.07.242-.113.273-.164.317-.226.359-.297.406-.38.461-.464.512-.566.574-.676.633-.797.703-.926.774-1.062.847-1.211.918-1.352.98-1.476 1.036-1.582 1.078-1.664 1.11-1.735 1.136-1.781 1.152-1.805 1.16-1.816 1.157-1.801 1.14-1.773 1.121-1.723 1.09-1.656 1.051-1.563 1-1.457.942-1.332.87-1.183.805-1.04.739-.902.683-.777.63-.656.585-.551.54-.45.5-.363.472-.285.441-.215.422-.156.406-.105.39-.067.388-.035.386-.012.39-.004h4.65" fill="none" stroke-width="1.25" stroke-linecap="square" stroke="#aaa" stroke-miterlimit="3.25"/><path d="M497.86 31.527v15h-25v-15zm0 0" fill="#fff" fill-opacity=".667"/><use xlink:href="#c" x="475.359" y="41.528"/><use xlink:href="#d" x="485.359" y="41.528"/><path d="M432.2 233.094h4.472l.07-.004.078-.008.086-.02.094-.035.098-.062.109-.094.117-.129.13-.176.14-.222.148-.278.164-.34.18-.406.187-.48.207-.563.22-.644.238-.742.253-.836.27-.942.293-1.054.308-1.172.329-1.293.347-1.422.371-1.559.391-1.699.418-1.844.437-2.004.461-2.16.489-2.324.511-2.488.536-2.64.554-2.778.578-2.906.59-3.02.61-3.117.62-3.211.634-3.285.64-3.352.652-3.402.66-3.442.665-3.472.664-3.485.668-3.488.668-3.48.664-3.457.66-3.426.652-3.38.649-3.32.636-3.245.625-3.168.614-3.07.597-2.962.582-2.843.563-2.711.543-2.567.52-2.41.495-2.242.477-2.078.453-1.926.43-1.77.414-1.629.39-1.488.376-1.36.359-1.23.344-1.109.328-.996.312-.89.301-.79.29-.691.276-.602.266-.523.258-.442.254-.37.242-.31.238-.25.23-.198.231-.149.223-.113.223-.074.222-.051.223-.028.223-.011.222-.004h4.7" fill="none" stroke-width="4" stroke-linejoin="round" stroke="#fff" stroke-opacity=".667" stroke-miterlimit="3.25"/><path d="M432.2 233.094h4.472l.07-.004.078-.008.086-.02.094-.035.098-.062.109-.094.117-.129.13-.176.14-.222.148-.278.164-.34.18-.406.187-.48.207-.563.22-.644.238-.742.253-.836.27-.942.293-1.054.308-1.172.329-1.293.347-1.422.371-1.559.391-1.699.418-1.844.437-2.004.461-2.16.489-2.324.511-2.488.536-2.64.554-2.778.578-2.906.59-3.02.61-3.117.62-3.211.634-3.285.64-3.352.652-3.402.66-3.442.665-3.472.664-3.485.668-3.488.668-3.48.664-3.457.66-3.426.652-3.38.649-3.32.636-3.245.625-3.168.614-3.07.597-2.962.582-2.843.563-2.711.543-2.567.52-2.41.495-2.242.477-2.078.453-1.926.43-1.77.414-1.629.39-1.488.376-1.36.359-1.23.344-1.109.328-.996.312-.89.301-.79.29-.691.276-.602.266-.523.258-.442.254-.37.242-.31.238-.25.23-.198.231-.149.223-.113.223-.074.222-.051.223-.028.223-.011.222-.004h4.7" fill="none" stroke-width="1.25" stroke-linecap="square" stroke="#aaa" stroke-miterlimit="3.25"/><path d="M497.86 97.633v15h-25v-15zm0 0" fill="#fff" fill-opacity=".667"/><use xlink:href="#e" x="475.359" y="107.632"/><use xlink:href="#f" x="485.359" y="107.632"/><path d="M432.2 232.75h4.534l.067-.008.074-.015.074-.036.086-.054.09-.082.094-.118.105-.152.11-.2.12-.245.13-.3.136-.36.149-.426.156-.496.168-.574.18-.657.191-.742.203-.832.219-.933.226-1.04.247-1.144.253-1.262.274-1.379.289-1.504.3-1.636.321-1.774.336-1.914.352-2.062.37-2.211.387-2.375.407-2.535.425-2.704.446-2.87.46-3.024.481-3.172.492-3.3.508-3.43.52-3.536.53-3.64.544-3.727.55-3.808.56-3.875.566-3.934.574-3.98.574-4.016.582-4.04.582-4.05.582-4.058.582-4.047.578-4.028.579-4 .574-3.957.57-3.906.563-3.844.554-3.77.547-3.683.54-3.59.526-3.484.512-3.363.5-3.239.488-3.101.47-2.95.452-2.788.438-2.618.414-2.453.402-2.293.387-2.136.367-1.989.356-1.844.34-1.703.328-1.57.312-1.441.3-1.317.294-1.203.277-1.09.27-.984.258-.883.25-.789.242-.7.234-.612.23-.536.22-.46.214-.391.211-.332.207-.27.203-.222.2-.176.195-.133.195-.098.195-.07.192-.043.195-.023.195-.012.196-.004h4.683" fill="none" stroke-width="4" stroke-linejoin="round" stroke="#fff" stroke-opacity=".667" stroke-miterlimit="3.25"/><path d="M432.2 232.75h4.534l.067-.008.074-.015.074-.036.086-.054.09-.082.094-.118.105-.152.11-.2.12-.245.13-.3.136-.36.149-.426.156-.496.168-.574.18-.657.191-.742.203-.832.219-.933.226-1.04.247-1.144.253-1.262.274-1.379.289-1.504.3-1.636.321-1.774.336-1.914.352-2.062.37-2.211.387-2.375.407-2.535.425-2.704.446-2.87.46-3.024.481-3.172.492-3.3.508-3.43.52-3.536.53-3.64.544-3.727.55-3.808.56-3.875.566-3.934.574-3.98.574-4.016.582-4.04.582-4.05.582-4.058.582-4.047.578-4.028.579-4 .574-3.957.57-3.906.563-3.844.554-3.77.547-3.683.54-3.59.526-3.484.512-3.363.5-3.239.488-3.101.47-2.95.452-2.788.438-2.618.414-2.453.402-2.293.387-2.136.367-1.989.356-1.844.34-1.703.328-1.57.312-1.441.3-1.317.294-1.203.277-1.09.27-.984.258-.883.25-.789.242-.7.234-.612.23-.536.22-.46.214-.391.211-.332.207-.27.203-.222.2-.176.195-.133.195-.098.195-.07.192-.043.195-.023.195-.012.196-.004h4.683" fill="none" stroke-width="1.25" stroke-linecap="square" stroke="#aaa" stroke-miterlimit="3.25"/><path d="M497.86 54.875v15h-25v-15zm0 0" fill="#fff" fill-opacity=".667"/><use xlink:href="#g" x="475.359" y="64.875"/><use xlink:href="#h" x="485.359" y="64.875"/><path d="M432.2 232.832h4.562l.07-.012.082-.02.082-.042.094-.067.098-.093.109-.133.113-.172.125-.219.137-.273.144-.328.157-.395.164-.46.18-.54.19-.617.208-.703.219-.797.23-.895.25-.996.262-1.101.281-1.219.293-1.34.313-1.465.332-1.593.351-1.73.367-1.876.387-2.02.406-2.175.43-2.336.45-2.496.472-2.66.488-2.813.508-2.95.523-3.077.54-3.196.554-3.3.567-3.395.578-3.476.586-3.551.593-3.613.602-3.66.61-3.7.609-3.726.613-3.743.617-3.75.613-3.738.614-3.723.609-3.695.606-3.652.601-3.602.594-3.539.586-3.469.574-3.379.562-3.285.551-3.175.535-3.059.52-2.926.504-2.785.488-2.637.465-2.468.445-2.309.43-2.148.406-1.997.395-1.847.375-1.711.36-1.57.343-1.446.328-1.316.316-1.2.305-1.085.29-.977.28-.879.27-.777.262-.692.25-.605.242-.523.238-.45.23-.382.223-.32.219-.263.215-.21.207-.165.21-.125.204-.093.207-.059.203-.039.207-.02.203-.007.211-.004h4.617" fill="none" stroke-width="4" stroke-linejoin="round" stroke="#fff" stroke-opacity=".667" stroke-miterlimit="3.25"/><path d="M432.2 232.832h4.562l.07-.012.082-.02.082-.042.094-.067.098-.093.109-.133.113-.172.125-.219.137-.273.144-.328.157-.395.164-.46.18-.54.19-.617.208-.703.219-.797.23-.895.25-.996.262-1.101.281-1.219.293-1.34.313-1.465.332-1.593.351-1.73.367-1.876.387-2.02.406-2.175.43-2.336.45-2.496.472-2.66.488-2.813.508-2.95.523-3.077.54-3.196.554-3.3.567-3.395.578-3.476.586-3.551.593-3.613.602-3.66.61-3.7.609-3.726.613-3.743.617-3.75.613-3.738.614-3.723.609-3.695.606-3.652.601-3.602.594-3.539.586-3.469.574-3.379.562-3.285.551-3.175.535-3.059.52-2.926.504-2.785.488-2.637.465-2.468.445-2.309.43-2.148.406-1.997.395-1.847.375-1.711.36-1.57.343-1.446.328-1.316.316-1.2.305-1.085.29-.977.28-.879.27-.777.262-.692.25-.605.242-.523.238-.45.23-.382.223-.32.219-.263.215-.21.207-.165.21-.125.204-.093.207-.059.203-.039.207-.02.203-.007.211-.004h4.617" fill="none" stroke-width="1.25" stroke-linecap="square" stroke="#aaa" stroke-miterlimit="3.25"/><path d="M497.86 76.258v15h-25v-15zm0 0" fill="#fff" fill-opacity=".667"/><use xlink:href="#i" x="475.359" y="86.259"/><use xlink:href="#j" x="485.359" y="86.259"/><path d="M432.2 234.29h4.495l.086-.005.09-.012.098-.027.11-.05.116-.083.133-.12.14-.165.157-.219.172-.273.187-.34.204-.414.222-.492.238-.578.258-.672.281-.778.301-.878.325-1 .343-1.118.375-1.246.395-1.382.426-1.528.449-1.676.48-1.836.512-1.996.539-2.168.57-2.336.598-2.492.621-2.625.645-2.754.664-2.867.683-2.96.7-3.048.71-3.117.723-3.168.727-3.21.738-3.239 1.476-6.5.735-3.238.734-3.203.727-3.165.719-3.101.707-3.035.691-2.946.676-2.847.656-2.735.637-2.605.613-2.465.59-2.308.558-2.141.528-1.969.504-1.808.48-1.653.453-1.5.43-1.36.41-1.226.387-1.097.371-.977.352-.863.34-.758.32-.656.308-.567.293-.476.285-.403.274-.328.27-.265.257-.207.254-.157.254-.113.246-.078.246-.047.246-.023.246-.012h4.875" fill="none" stroke-width="4" stroke-linejoin="round" stroke="#fff" stroke-opacity=".667" stroke-miterlimit="3.25"/><path d="M432.2 234.29h4.495l.086-.005.09-.012.098-.027.11-.05.116-.083.133-.12.14-.165.157-.219.172-.273.187-.34.204-.414.222-.492.238-.578.258-.672.281-.778.301-.878.325-1 .343-1.118.375-1.246.395-1.382.426-1.528.449-1.676.48-1.836.512-1.996.539-2.168.57-2.336.598-2.492.621-2.625.645-2.754.664-2.867.683-2.96.7-3.048.71-3.117.723-3.168.727-3.21.738-3.239 1.476-6.5.735-3.238.734-3.203.727-3.165.719-3.101.707-3.035.691-2.946.676-2.847.656-2.735.637-2.605.613-2.465.59-2.308.558-2.141.528-1.969.504-1.808.48-1.653.453-1.5.43-1.36.41-1.226.387-1.097.371-.977.352-.863.34-.758.32-.656.308-.567.293-.476.285-.403.274-.328.27-.265.257-.207.254-.157.254-.113.246-.078.246-.047.246-.023.246-.012h4.875" fill="none" stroke-width="1.25" stroke-linecap="square" stroke="#aaa" stroke-miterlimit="3.25"/><path d="M497.86 119.086v15h-25v-15zm0 0" fill="#fff" fill-opacity=".667"/><use xlink:href="#c" x="475.359" y="129.085"/><use xlink:href="#j" x="485.359" y="129.085"/><path d="M432.2 234.816h4.538l.106-.004.12-.019.134-.043.152-.07.168-.106.187-.156.211-.207.235-.27.262-.336.285-.417.316-.504.348-.598.383-.7.418-.808.453-.926.488-1.054.535-1.192.574-1.328.617-1.48.668-1.641.707-1.793.75-1.934.786-2.054.82-2.16.844-2.25.863-2.325.887-2.379.894-2.425.906-2.45.91-2.457.91-2.453.903-2.43.895-2.386.882-2.336.86-2.266.84-2.175.812-2.075.778-1.953.742-1.816.703-1.664.656-1.508.617-1.356.578-1.21.543-1.079.512-.945.477-.828.453-.719.422-.613.402-.52.379-.43.363-.35.344-.282.332-.215.32-.164.313-.113.308-.078.305-.043.3-.024.306-.008h4.84" fill="none" stroke-width="4" stroke-linejoin="round" stroke="#fff" stroke-opacity=".667" stroke-miterlimit="3.25"/><path d="M432.2 234.816h4.538l.106-.004.12-.019.134-.043.152-.07.168-.106.187-.156.211-.207.235-.27.262-.336.285-.417.316-.504.348-.598.383-.7.418-.808.453-.926.488-1.054.535-1.192.574-1.328.617-1.48.668-1.641.707-1.793.75-1.934.786-2.054.82-2.16.844-2.25.863-2.325.887-2.379.894-2.425.906-2.45.91-2.457.91-2.453.903-2.43.895-2.386.882-2.336.86-2.266.84-2.175.812-2.075.778-1.953.742-1.816.703-1.664.656-1.508.617-1.356.578-1.21.543-1.079.512-.945.477-.828.453-.719.422-.613.402-.52.379-.43.363-.35.344-.282.332-.215.32-.164.313-.113.308-.078.305-.043.3-.024.306-.008h4.84" fill="none" stroke-width="1.25" stroke-linecap="square" stroke="#aaa" stroke-miterlimit="3.25"/><path d="M497.86 161.691v14h-25v-14zm0 0" fill="#fff" fill-opacity=".667"/><use xlink:href="#f" x="475.359" y="171.191"/><use xlink:href="#k" x="485.359" y="171.191"/><path d="M432.2 234.688h4.562l.097-.008.106-.024.12-.047.134-.078.148-.117.164-.16.18-.215.195-.273.219-.344.238-.422.262-.504.285-.594.309-.695.34-.8.363-.915.394-1.039.422-1.164.457-1.305.489-1.445.523-1.601.559-1.758.593-1.93.633-2.09.668-2.238.692-2.371.722-2.488.746-2.594.762-2.68.781-2.754.797-2.808.805-2.852.808-2.879.817-2.89.816-2.883.813-2.868.804-2.832.797-2.785.785-2.718.766-2.637.75-2.543.727-2.434.699-2.308.672-2.164.64-2.012.606-1.844.57-1.676.54-1.523.507-1.375.48-1.234.454-1.102.43-.973.406-.86.386-.745.364-.64.351-.552.332-.46.317-.38.308-.308.293-.246.29-.188.28-.136.274-.094.273-.063.27-.035.273-.015.274-.004h4.722" fill="none" stroke-width="4" stroke-linejoin="round" stroke="#fff" stroke-opacity=".667" stroke-miterlimit="3.25"/><path d="M432.2 234.688h4.562l.097-.008.106-.024.12-.047.134-.078.148-.117.164-.16.18-.215.195-.273.219-.344.238-.422.262-.504.285-.594.309-.695.34-.8.363-.915.394-1.039.422-1.164.457-1.305.489-1.445.523-1.601.559-1.758.593-1.93.633-2.09.668-2.238.692-2.371.722-2.488.746-2.594.762-2.68.781-2.754.797-2.808.805-2.852.808-2.879.817-2.89.816-2.883.813-2.868.804-2.832.797-2.785.785-2.718.766-2.637.75-2.543.727-2.434.699-2.308.672-2.164.64-2.012.606-1.844.57-1.676.54-1.523.507-1.375.48-1.234.454-1.102.43-.973.406-.86.386-.745.364-.64.351-.552.332-.46.317-.38.308-.308.293-.246.29-.188.28-.136.274-.094.273-.063.27-.035.273-.015.274-.004h4.722" fill="none" stroke-width="1.25" stroke-linecap="square" stroke="#aaa" stroke-miterlimit="3.25"/><path d="M497.86 140.469v15h-25v-15zm0 0" fill="#fff" fill-opacity=".667"/><use xlink:href="#l" x="475.359" y="150.469"/><use xlink:href="#m" x="485.359" y="150.469"/><path d="M432.2 236.422h4.605l.242-.004.305-.008.378-.023.473-.04.574-.058.696-.082.828-.113.98-.145 1.14-.183 1.321-.227 1.485-.262 1.617-.297 1.715-.32 1.777-.332 1.8-.336 1.798-.336 1.746-.32 1.672-.3 1.554-.274 1.403-.23 1.238-.192 1.094-.153.96-.117.856-.086.762-.062.695-.043.64-.024.614-.011.602-.004h5.09" fill="none" stroke-width="4" stroke-linejoin="round" stroke="#fff" stroke-opacity=".667" stroke-miterlimit="3.25"/><path d="M432.2 236.422h4.605l.242-.004.305-.008.378-.023.473-.04.574-.058.696-.082.828-.113.98-.145 1.14-.183 1.321-.227 1.485-.262 1.617-.297 1.715-.32 1.777-.332 1.8-.336 1.798-.336 1.746-.32 1.672-.3 1.554-.274 1.403-.23 1.238-.192 1.094-.153.96-.117.856-.086.762-.062.695-.043.64-.024.614-.011.602-.004h5.09" fill="none" stroke-width="1.25" stroke-linecap="square" stroke="#aaa" stroke-miterlimit="3.25"/><path d="M497.86 224.34v15h-25v-15zm0 0" fill="#fff" fill-opacity=".667"/><use xlink:href="#n" x="475.359" y="234.34"/><use xlink:href="#o" x="485.359" y="234.34"/><path d="M432.2 236.309h4.472l.152-.004.18-.012.215-.031.254-.067.3-.101.352-.16.41-.22.477-.288.547-.375.62-.465.708-.57.797-.684.89-.809.992-.941 1.094-1.07 1.172-1.18 1.238-1.266 1.293-1.332 1.332-1.382 1.352-1.407 1.36-1.41 1.35-1.394 1.325-1.36 1.29-1.304 1.237-1.223 1.168-1.129 1.082-1.008.989-.875.898-.742.817-.625.742-.52.68-.417.617-.333.574-.253.531-.184.496-.133.477-.082.46-.047.45-.02.457-.007h4.812" fill="none" stroke-width="4" stroke-linejoin="round" stroke="#fff" stroke-opacity=".667" stroke-miterlimit="3.25"/><path d="M432.2 236.309h4.472l.152-.004.18-.012.215-.031.254-.067.3-.101.352-.16.41-.22.477-.288.547-.375.62-.465.708-.57.797-.684.89-.809.992-.941 1.094-1.07 1.172-1.18 1.238-1.266 1.293-1.332 1.332-1.382 1.352-1.407 1.36-1.41 1.35-1.394 1.325-1.36 1.29-1.304 1.237-1.223 1.168-1.129 1.082-1.008.989-.875.898-.742.817-.625.742-.52.68-.417.617-.333.574-.253.531-.184.496-.133.477-.082.46-.047.45-.02.457-.007h4.812" fill="none" stroke-width="1.25" stroke-linecap="square" stroke="#aaa" stroke-miterlimit="3.25"/><path d="M497.86 203.379v15h-25v-15zm0 0" fill="#fff" fill-opacity=".667"/><use xlink:href="#f" x="475.359" y="213.38"/><use xlink:href="#p" x="485.359" y="213.38"/><path d="M432.2 236.18h4.51l.126-.004.144-.02.165-.039.19-.07.216-.117.25-.164.281-.23.316-.302.36-.382.402-.473.45-.574.5-.684.55-.809.61-.933.668-1.078.73-1.227.797-1.387.86-1.539.917-1.675.965-1.79 1.004-1.89 1.035-1.961 1.063-2.023 1.078-2.059 2.18-4.148 1.081-2.055 1.07-2.012 1.048-1.953 1.015-1.871.98-1.774.938-1.656.88-1.515.82-1.36.761-1.199.703-1.055.653-.914.605-.785.563-.664.52-.559.487-.457.457-.367.43-.289.406-.215.391-.16.379-.105.367-.067.363-.035.364-.015h5.011" fill="none" stroke-width="4" stroke-linejoin="round" stroke="#fff" stroke-opacity=".667" stroke-miterlimit="3.25"/><path d="M432.2 236.18h4.51l.126-.004.144-.02.165-.039.19-.07.216-.117.25-.164.281-.23.316-.302.36-.382.402-.473.45-.574.5-.684.55-.809.61-.933.668-1.078.73-1.227.797-1.387.86-1.539.917-1.675.965-1.79 1.004-1.89 1.035-1.961 1.063-2.023 1.078-2.059 2.18-4.148 1.081-2.055 1.07-2.012 1.048-1.953 1.015-1.871.98-1.774.938-1.656.88-1.515.82-1.36.761-1.199.703-1.055.653-.914.605-.785.563-.664.52-.559.487-.457.457-.367.43-.289.406-.215.391-.16.379-.105.367-.067.363-.035.364-.015h5.011" fill="none" stroke-width="1.25" stroke-linecap="square" stroke="#aaa" stroke-miterlimit="3.25"/><path d="M497.86 182.02v15h-25v-15zm0 0" fill="#fff" fill-opacity=".667"/><use xlink:href="#q" x="475.359" y="192.019"/><use xlink:href="#h" x="485.359" y="192.019"/><path d="M360.344 115.828l12.773-14.918 12.778-16.117 12.773-16.828 12.773-17.516 12.774-18.191V14.5L411.44 35.973 398.668 56.77l-12.773 20.136-12.778 19.48zm0 36.637l12.773-11.653 12.778-12.687 12.773-13.281 12.773-13.832 12.774-14.383V68.086L411.44 85.91l-12.773 17.278-12.773 16.746-12.778 16.207zm0 82.078l12.773-.059 12.778-.125 12.773-.136 12.773-.153 12.774-.164v-1.629l-12.774.461-12.773.453-12.773.442-12.778.433zm0 0" fill="gray" fill-opacity=".05"/><path d="M360.344 234.59l12.773-.192 12.778-.242 12.773-.25 12.773-.27 12.774-.28v-1.211l-12.774.507-12.773.496-12.773.48-12.778.47zm0 0" fill="gray" fill-opacity=".05"/><path d="M360.344 234.996l12.773-.293 12.778-.34 12.773-.355 12.773-.371 12.774-.387v-.832l-12.774.539-12.773.527-12.773.508-12.778.496zm0 .614l12.773-.153 12.778-.184 12.773-.195 12.773-.207 12.774-.21v-.743l-12.774.352-12.773.34-12.773.335-12.778.325zm0 0" fill="gray" fill-opacity=".05"/><path d="M360.344 236.094l12.773-.133 12.778-.172 12.773-.18 12.773-.191 12.774-.2v-.8l-12.774.348-12.773.336-12.773.332-12.778.32zm0 0" fill="gray" fill-opacity=".05"/><path d="M360.344 236.137l12.773-.172 12.778-.211 12.773-.219 12.773-.23 12.774-.243v-.746l-12.774.383-12.773.371-12.773.36-12.778.351zm0 .886l12.773-.039 12.778-.058 12.773-.063 25.547-.14v-.598l-12.774.184-12.773.18-12.773.175-12.778.172zm0 0" fill="gray" fill-opacity=".05"/><path d="M360.344 237.094l12.773-.117 12.778-.133 12.773-.137 12.773-.144 12.774-.149v-.215l-12.774.192-25.546.359-12.778.172zm0 0" fill="gray" fill-opacity=".05"/><path d="M360.344 237.227l12.773-.145 12.778-.168 12.773-.176 12.773-.18 12.774-.195v-.37l-12.774.257-12.773.254-12.773.246-12.778.238zm0 0" fill="gray" fill-opacity=".05"/><path d="M432.2 243.52H33m0 0V4m0 0h399.2m0 0v239.52" fill="none" stroke-width=".5" stroke-linecap="square" stroke="#666" stroke-miterlimit="3.25"/><path d="M66.531 243.52v-5.543" fill="none" stroke-width=".5" stroke="#666" stroke-miterlimit="3.25"/><g fill="#666"><use xlink:href="#r" x="52.033" y="255.52"/><use xlink:href="#s" x="57.55" y="255.52"/><use xlink:href="#t" x="62.99" y="255.52"/></g><g fill="#666"><use xlink:href="#u" x="70.033" y="255.52"/><use xlink:href="#v" x="75.648" y="255.52"/></g><path d="M155.953 243.52v-5.543" fill="none" stroke-width=".5" stroke="#666" stroke-miterlimit="3.25"/><g fill="#666"><use xlink:href="#r" x="141.454" y="255.52"/><use xlink:href="#s" x="146.971" y="255.52"/><use xlink:href="#t" x="152.411" y="255.52"/></g><g fill="#666"><use xlink:href="#w" x="159.454" y="255.52"/><use xlink:href="#x" x="165.069" y="255.52"/></g><path d="M245.375 243.52v-5.543" fill="none" stroke-width=".5" stroke="#666" stroke-miterlimit="3.25"/><g fill="#666"><use xlink:href="#r" x="230.874" y="255.52"/><use xlink:href="#s" x="236.392" y="255.52"/><use xlink:href="#t" x="241.831" y="255.52"/></g><g fill="#666"><use xlink:href="#w" x="248.874" y="255.52"/><use xlink:href="#y" x="254.49" y="255.52"/></g><path d="M334.797 243.52v-5.543" fill="none" stroke-width=".5" stroke="#666" stroke-miterlimit="3.25"/><g fill="#666"><use xlink:href="#z" x="320.295" y="255.52"/><use xlink:href="#A" x="325.823" y="255.52"/><use xlink:href="#B" x="331.12" y="255.52"/></g><g fill="#666"><use xlink:href="#x" x="338.295" y="255.52"/><use xlink:href="#v" x="343.91" y="255.52"/></g><path d="M424.215 243.52v-5.543" fill="none" stroke-width=".5" stroke="#666" stroke-miterlimit="3.25"/><g fill="#666"><use xlink:href="#z" x="409.716" y="255.52"/><use xlink:href="#A" x="415.243" y="255.52"/><use xlink:href="#B" x="420.541" y="255.52"/></g><g fill="#666"><use xlink:href="#u" x="427.716" y="255.52"/><use xlink:href="#x" x="433.331" y="255.52"/></g><path d="M33 238.73h4" fill="none" stroke-width=".5" stroke="#666" stroke-miterlimit="3.25"/><use xlink:href="#x" x="24" y="241.23" fill="#666"/><path d="M33 229.957h2.398M33 221.184h2.398M33 212.41h2.398M33 203.637h2.398M33 194.863h4" fill="none" stroke-width=".5" stroke="#666" stroke-miterlimit="3.25"/><g fill="#666"><use xlink:href="#u" y="197.363"/><use xlink:href="#x" x="5.615" y="197.363"/></g><g fill="#666"><use xlink:href="#x" x="12.686" y="197.363"/><use xlink:href="#x" x="18.301" y="197.363"/><use xlink:href="#x" x="23.916" y="197.363"/></g><path d="M33 186.09h2.398M33 177.316h2.398M33 168.543h2.398M33 159.77h2.398M33 150.996h4" fill="none" stroke-width=".5" stroke="#666" stroke-miterlimit="3.25"/><g fill="#666"><use xlink:href="#w" y="153.497"/><use xlink:href="#x" x="5.615" y="153.497"/></g><g fill="#666"><use xlink:href="#x" x="12.686" y="153.497"/><use xlink:href="#x" x="18.301" y="153.497"/><use xlink:href="#x" x="23.916" y="153.497"/></g><path d="M33 142.223h2.398M33 133.45h2.398M33 124.676h2.398M33 115.902h2.398M33 107.133h4" fill="none" stroke-width=".5" stroke="#666" stroke-miterlimit="3.25"/><g fill="#666"><use xlink:href="#v" y="109.631"/><use xlink:href="#x" x="5.615" y="109.631"/></g><g fill="#666"><use xlink:href="#x" x="12.686" y="109.631"/><use xlink:href="#x" x="18.301" y="109.631"/><use xlink:href="#x" x="23.916" y="109.631"/></g><path d="M33 98.36h2.398M33 89.586h2.398M33 80.813h2.398M33 72.04h2.398M33 63.266h4" fill="none" stroke-width=".5" stroke="#666" stroke-miterlimit="3.25"/><g fill="#666"><use xlink:href="#C" y="65.765"/><use xlink:href="#x" x="5.615" y="65.765"/></g><g fill="#666"><use xlink:href="#x" x="12.686" y="65.765"/><use xlink:href="#x" x="18.301" y="65.765"/><use xlink:href="#x" x="23.916" y="65.765"/></g><path d="M33 54.492h2.398M33 45.719h2.398M33 36.945h2.398M33 28.172h2.398M33 19.398h4" fill="none" stroke-width=".5" stroke="#666" stroke-miterlimit="3.25"/><g fill="#666"><use xlink:href="#D" y="21.899"/><use xlink:href="#x" x="5.615" y="21.899"/></g><g fill="#666"><use xlink:href="#x" x="12.686" y="21.899"/><use xlink:href="#x" x="18.301" y="21.899"/><use xlink:href="#x" x="23.916" y="21.899"/></g><path d="M33 10.625h2.398M66.531 4v5.543M155.953 4v5.543M245.375 4v5.543M334.797 4v5.543M424.215 4v5.543M432.2 238.73h-4m4-8.773h-2.4m2.4-8.773h-2.4m2.4-8.774h-2.4m2.4-8.773h-2.4m2.4-8.774h-4m4-8.773h-2.4m2.4-8.774h-2.4m2.4-8.773h-2.4m2.4-8.773h-2.4m2.4-8.774h-4m4-8.773h-2.4m2.4-8.773h-2.4m2.4-8.774h-2.4m2.4-8.774h-2.4m2.4-8.769h-4m4-8.773h-2.4m2.4-8.774h-2.4m2.4-8.773h-2.4m2.4-8.773h-2.4m2.4-8.774h-4m4-8.774h-2.4m2.4-8.773h-2.4m2.4-8.774h-2.4m2.4-8.773h-2.4m2.4-8.774h-4m4-8.773h-2.4" fill="none" stroke-width=".5" stroke="#666" stroke-miterlimit="3.25"/></svg>