<svg xmlns="http://www.w3.org/2000/svg" xmlns:xlink="http://www.w3.org/1999/xlink" width="500pt" height="265pt" viewBox="0 0 500 265"><defs><symbol overflow="visible" id="a"><path d="M4.738-8.14C3.578-6.88 2.121-5.82.36-4.97l.352.63C2.48-5.23 3.91-6.282 5-7.49c1.18 1.272 2.59 2.3 4.25 3.1l.36-.64a14.128 14.128 0 01-4.348-3.11zM2.211-4.98v.69h2.418v1.74H1.73v.69h2.9v1.848H.839V.7h8.333v-.71h-3.8v-1.85h2.89v-.692h-2.89V-4.29h2.417v-.691zm0 0"/></symbol><symbol overflow="visible" id="b"><path d="M2.52-6.121v.652h2.109v1.438h-1.79v.64h1.79v1.59H2.25v.66h5.512v-.66h-2.39v-1.59H7.16v-.64H5.371V-5.47H7.47v-.652zm6.59-1.59H.89V.98h.731V.55H8.38v.43h.73zM1.62-.129V-7.03h6.76v6.9zm4.93-3.05l-.57.19c.238.329.46.72.66 1.169l.558-.258A6.323 6.323 0 006.55-3.18zm0 0"/></symbol><symbol overflow="visible" id="c"><path d="M7.04-4.73h1.51v1.808H7.04zm1.51-.63H7.04v-1.78h1.51zM7.02-2.28h1.53v2.22c0 .278-.12.43-.35.43-.24 0-.49-.02-.759-.043l.168.64h.79C8.94.969 9.21.7 9.21.173V-7.8H6.379v5.082C6.359-1.422 6.07-.339 5.5.5l.52.46c.59-.839.921-1.92 1-3.241zm-5.9-5.67l-.492.46c.68.5 1.21.977 1.59 1.419l.5-.489A11.92 11.92 0 001.12-7.95zm-.2 2.34l-.491.46c.691.53 1.231 1.03 1.621 1.49l.5-.488c-.44-.48-.991-.973-1.628-1.461zm1.03 2.649A33.47 33.47 0 01.56.58l.652.28c.5-1.12.95-2.308 1.36-3.57zm3.762-.64H4.69V-5.5h1.297v-.648H4.691v-1.73H4v1.73H2.7v.648H4v1.898H2.95V.41h.66v-.59h2.1zM3.61-.801v-2.18h1.46V-.8zm0 0"/></symbol><symbol overflow="visible" id="d"><path d="M3.32-8.14v2.769H.672v.691H3.32v3.211c-.89.418-1.82.739-2.8.957L.69.2c.93-.258 1.809-.57 2.63-.949V.93h.738v-9.07zM8.22.84c.43 0 .73-.121.89-.36.16-.25.262-.96.32-2.128l-.679-.223c-.031 1.02-.09 1.61-.172 1.793C8.48.078 8.32.16 8.102.16h-1.25c-.25 0-.372-.148-.372-.43v-3.84c.93-.32 1.91-.788 2.95-1.421l-.418-.59c-.82.57-1.66 1.012-2.532 1.332v-3.352h-.73v7.98c0 .661.309 1 .941 1zm0 0"/></symbol><symbol overflow="visible" id="e"><path d="M1.18-7.95l-.508.5c.738.528 1.328 1.028 1.75 1.5l.52-.51c-.481-.5-1.063-.99-1.762-1.49zM1-5.5l-.512.488c.703.512 1.242 1 1.633 1.461l.508-.52C2.19-4.55 1.649-5.02 1-5.5zm1.11 2.68A30.368 30.368 0 01.59.68l.719.308A31.023 31.023 0 002.762-2.57zm1.062-4.75v.699h4.887V-.18c0 .34-.16.508-.48.508-.477 0-.99-.02-1.52-.047l.16.688h1.61c.62 0 .94-.328.94-.969v-6.871h.782v-.7zm.437 2.23v3.68H6.75v-3.68zm2.47 3.02h-1.79v-2.371h1.79zm0 0"/></symbol><symbol overflow="visible" id="f"><path d="M.55-7.23v.68h4.04c-.059.331-.13.671-.2 1.01H1.103V.989h.707v-5.847h6.4v4.68c0 .28-.14.429-.422.429L6.86.23l.192.7h.98c.59 0 .89-.32.89-.95v-5.52H5.13c.07-.32.14-.651.2-1.01h4.12v-.68H5.441c.04-.29.07-.59.098-.899l-.73-.101-.118 1zm3.33 2.69l-.64.24c.21.312.39.652.542 1.01H2.68v.63h1.968v1.05H2.36v.641h2.29V.84h.703V-.97h2.296v-.64H5.352v-1.05h2v-.63H6.21c.2-.32.39-.67.57-1.062l-.66-.238c-.18.461-.383.89-.601 1.3h-1.05a7.488 7.488 0 00-.59-1.25zm0 0"/></symbol><symbol overflow="visible" id="g"><path d="M9.148-7.191H5.43a9.89 9.89 0 00-.45-1.059l-.8.14c.172.282.32.579.46.919H.84v2.14h.738v-1.437H8.41v1.449h.738zM.602-4.411v.7h2.41c-.32.55-.66 1.11-1.024 1.672.934.3 1.864.648 2.801 1.05C3.73-.178 2.34.232.641.239l.418.672C2.922.852 4.399.328 5.519-.672A35.405 35.405 0 018.7.988L9.18.36a31.218 31.218 0 00-3.14-1.558c.531-.621 1-1.45 1.41-2.512h1.973v-.7H4.25c.238-.44.488-.91.75-1.41l-.738-.218a62.17 62.17 0 01-.864 1.629zm3.257.7H6.66c-.34.883-.78 1.621-1.32 2.211-.79-.328-1.559-.61-2.32-.828.261-.402.539-.863.84-1.383zm0 0"/></symbol><symbol overflow="visible" id="h"><path d="M2.27-8.2c-.4.93-1.032 1.76-1.9 2.482l.207.68c1.063-.84 1.82-1.8 2.3-2.883zm.28 2.27c-.44 1.121-1.14 2.121-2.109 3l.207.66a9.72 9.72 0 00.993-.968V.988h.68v-5.097c.327-.48.6-1 .82-1.551zm1.962-2.242v1.762h-.684V-7.8h-.566v1.972h3.09v-1.973h-.57v1.39H5.09v-1.76zM3.109-5.148v.617H6.25c-.07.133-.14.261-.21.383l.358.457c.211-.297.403-.637.57-1.02.122 1.14.36 2.191.723 3.133A5.9 5.9 0 016.641.129c-.18-.399-.38-.777-.582-1.117l-.48.226c.21.371.41.793.6 1.262L6.41.39l.36.56c.5-.49.92-1.08 1.26-1.77.31.64.701 1.23 1.17 1.76l.45-.52a7.733 7.733 0 01-1.297-2.01c.43-1.2.668-2.641.707-4.34h.39v-.65H7.59c.11-.452.2-.94.282-1.46l-.66-.121c-.18 1.45-.492 2.648-.941 3.59v-.578zm4.301-.743c0-.007 0-.02.012-.039H8.46C8.43-4.62 8.28-3.469 8-2.48c-.34-1-.531-2.141-.59-3.41zM3.46-.898A5.217 5.217 0 012.673.328l.469.344c.308-.383.578-.82.808-1.332zM5.98-2.73l-.511.171c.101.16.203.34.3.54-.597.097-1.199.18-1.789.238.801-.52 1.5-1.117 2.098-1.778l-.558-.21c-.141.16-.29.32-.45.48-.41.039-.82.07-1.218.098.418-.32.796-.68 1.136-1.09L4.441-4.5a7.02 7.02 0 01-1.41 1.352l.13.457c.46-.02.917-.059 1.39-.118-.473.399-.98.77-1.54 1.11l.13.488c.46-.039.93-.09 1.41-.148V.12c0 .16-.082.25-.223.25-.18 0-.367-.02-.558-.043l.128.594h.641c.422 0 .64-.223.64-.64v-1.743l.79-.148c.07.14.14.289.203.449l.5-.219c-.203-.48-.434-.93-.692-1.351zm0 0"/></symbol><symbol overflow="visible" id="i"><path d="M6.07-6.86v6.79h-3v.69h6.48v-.69H6.782v-6.79h2.43v-.68H3.559v.68zM1.25-7.987L.738-7.5c.762.5 1.364.98 1.801 1.43l.5-.5c-.48-.47-1.078-.942-1.789-1.418zM.988-5.602l-.5.493c.75.507 1.34 1 1.762 1.46l.5-.5A11.644 11.644 0 00.988-5.601zM2.27-2.949A28.672 28.672 0 01.61.6l.66.29a30.8 30.8 0 001.628-3.602zm0 0"/></symbol><symbol overflow="visible" id="j"><path d="M8.3-3.27l-.562.348c.563.863 1.012 1.652 1.34 2.363l.55-.402c-.308-.66-.75-1.43-1.327-2.309zm-6.421.098c-.3.82-.738 1.48-1.34 1.98l.54.473c.6-.5 1.081-1.242 1.44-2.203zm2.3-2.45v.95H1.43v.703h2.712c-.082.98-.29 1.797-.653 2.48-.457.778-1.277 1.4-2.457 1.88l.399.64C2.64.551 3.512-.12 4.05-.98c.462-.782.731-1.77.829-2.989H6.94c-.05 1.719-.152 2.848-.3 3.367-.153.512-.461.774-.93.774-.402 0-.82-.012-1.262-.024l.192.68h1.418c.46-.027.793-.2 1.011-.508.2-.32.352-.898.45-1.718.082-.84.128-1.93.171-3.274H4.92v-.95zM.65-7.108v.687h2.26v.902h.73v-.902h2.622v.91h.726v-.91h2.364v-.687H6.988v-1.02h-.726v1.02H3.64v-1.02h-.73v1.02zm0 0"/></symbol><symbol overflow="visible" id="k"><path d="M8.219-6.469V-.55H5.37v-7.558h-.74V-.55H1.77V-6.5h-.718V.8h.719V.14H8.22v.67h.722v-7.28zm0 0"/></symbol><symbol overflow="visible" id="l"><path d="M.781-6.96v.698h2.14c-.53 1.024-1.1 1.852-1.71 2.512l.168.629h3.46v3c0 .293-.16.441-.468.441-.3 0-.61-.02-.941-.05l.148.71h1.043c.629 0 .95-.308.95-.921v-3.18h3.148v-.668H5.57v-1.48h-.73v1.48h-2.7a14.36 14.36 0 001.57-2.473h5.42v-.699h-5.1c.16-.367.32-.75.48-1.148l-.71-.16c-.18.46-.36.89-.551 1.308zM2.88-2.329A10.003 10.003 0 01.48-.102L.941.5C1.898-.18 2.72-.98 3.38-1.89zm4.33-.011l-.48.461c.95.86 1.7 1.66 2.238 2.419L9.5.02a16.925 16.925 0 00-2.29-2.36zm0 0"/></symbol><symbol overflow="visible" id="m"><path d="M1.23-8l-.511.488c.601.5 1.062.98 1.402 1.434l.5-.5A11.5 11.5 0 001.231-8zM.988-5.61l-.5.489c.602.5 1.082.98 1.422 1.441l.5-.5c-.379-.48-.86-.949-1.422-1.43zm.793 2.66A36.295 36.295 0 01.578.63l.672.293A42.328 42.328 0 002.41-2.71zm3.68-1.081c-.313.18-.633.351-.95.511v-2.152h.91V-6.3h-.91v-1.84H3.81v1.84H2.74v.63h1.07v2.452c-.368.14-.75.27-1.137.38l.168.69c.32-.113.64-.23.969-.363V-.16c0 .32-.11.48-.329.48C3.238.32 3 .3 2.738.281l.153.63h.808c.54 0 .813-.31.813-.911v-2.82c.316-.149.629-.309.949-.48zm3.578-3.95c-.91.36-1.93.56-3.07.583v3.847c-.047 1.7-.36 3.04-.938 4l.489.52c.699-1.13 1.07-2.64 1.12-4.52v-.71h1.282v5.28h.68v-5.28h.968v-.65H6.64v-1.91c1-.058 1.91-.25 2.731-.55zm0 0"/></symbol><symbol overflow="visible" id="n"><path d="M5.262-8.32l-.793.14c.203.32.39.68.55 1.07H1.302v2.93C1.28-2.16.98-.59.42.55l.59.528C1.662-.238 2-1.988 2.04-4.18v-2.242h7.41v-.687H5.81c-.18-.45-.36-.852-.547-1.211zm0 0"/></symbol><symbol overflow="visible" id="o"><path d="M.54-7.738v.699h2.98v1.527H1.14V.941h.72V.488h6.3v.453h.719v-6.453H6.44v-1.527h3.02v-.7zM1.86-.191v-4.637h1.66v.2C3.5-3.27 3-2.282 2.02-1.66l.558.488C3.66-1.898 4.211-3.05 4.23-4.629v-.2h1.5v2.067c0 .653.32.98.98.98h1.45v1.59zM4.23-7.04h1.5v1.527h-1.5zm2.211 2.21h1.72v2.388H6.897c-.308 0-.457-.16-.457-.47zm0 0"/></symbol><symbol overflow="visible" id="p"><path d="M1.54-5.23v3.32h3.089v.691h-3.55v.578h3.55v.75H.579v.63h8.843v-.63h-4.07v-.75H8.93v-.578H5.352v-.691h3.097v-3.32H5.352v-.641h3.93v-.617h-3.93v-.762A73.97 73.97 0 008.46-7.5l-.223-.602c-1.988.223-4.289.372-6.886.454l.117.59c1.101-.044 2.152-.09 3.16-.153v.723H.719v.617h3.91v.64zm6.21 2.742H5.352v-.813H7.75zm-3.121 0H2.23v-.813h2.4zM2.23-3.86v-.79h2.4v.79zm3.122-.79H7.75v.79H5.352zm0 0"/></symbol><symbol overflow="visible" id="q"><path d="M2.531-4.129v.668h2.707C4.84-1.879 3.738-.57 1.961.461l.41.59C4.148-.031 5.301-1.38 5.81-3.012c.56 1.684 1.67 3.024 3.31 4l.43-.566C7.93-.5 6.84-1.801 6.289-3.461H9.25v-.668H6.102c-.024-.05-.032-.11-.043-.172.03-.46.05-1 .05-1.62h-.68c0 .28-.007.683-.007 1.202a19.6 19.6 0 01-.05.59zM5.25-8.23l-.79.14c.22.3.411.621.59.98H1.3v2.91C1.27-2.2.96-.628.36.489l.562.5C1.629-.309 2-2.039 2.039-4.199v-2.223h7.41v-.687H5.83a9.055 9.055 0 00-.58-1.121zm0 0"/></symbol><symbol overflow="visible" id="r"><path d="M3.805-7.11h.941v5.036c0 .68-.203 1.21-.613 1.597-.406.383-.953.575-1.633.575-.707 0-1.258-.18-1.648-.543-.395-.36-.594-.867-.594-1.516h.937c0 .406.114.723.336.95.223.23.547.343.969.343.387 0 .7-.121.941-.367.239-.246.36-.586.364-1.028zm0 0"/></symbol><symbol overflow="visible" id="s"><path d="M3.945 0c-.05-.105-.093-.29-.125-.555-.422.434-.922.653-1.507.653-.52 0-.946-.149-1.282-.442a1.438 1.438 0 01-.5-1.12c0-.552.211-.977.63-1.282.417-.305 1.007-.457 1.765-.457h.879v-.414c0-.317-.094-.567-.285-.754-.188-.188-.465-.281-.833-.281-.324 0-.593.082-.812.242-.219.164-.328.36-.328.59H.64c0-.262.093-.516.28-.762.188-.246.442-.441.763-.582.32-.145.671-.219 1.054-.219.61 0 1.086.153 1.434.457.344.305.523.727.535 1.258v2.434c0 .484.063.87.184 1.156V0zm-1.5-.688c.285 0 .555-.074.805-.218a1.35 1.35 0 00.555-.574v-1.083h-.711c-1.106 0-1.656.325-1.656.97 0 .284.093.507.28.663.188.16.43.243.727.243zm0 0"/></symbol><symbol overflow="visible" id="t"><path d="M1.54-5.281l.026.664a1.93 1.93 0 011.582-.766c1.118 0 1.68.633 1.692 1.89V0h-.902v-3.496c-.004-.379-.094-.664-.262-.844-.172-.183-.438-.273-.801-.273-.293 0-.55.078-.77.234a1.59 1.59 0 00-.52.613V0h-.9v-5.281zm0 0"/></symbol><symbol overflow="visible" id="u"><path d="M3.559 0h-.907v-6.02l-1.824.668v-.82l2.59-.973h.14zm0 0"/></symbol><symbol overflow="visible" id="v"><path d="M1.906-3.992h.676c.426-.008.762-.121 1.008-.34.242-.219.363-.512.363-.883 0-.832-.414-1.25-1.242-1.25-.39 0-.703.113-.938.336-.23.223-.347.516-.347.887H.523c0-.563.204-1.031.618-1.406.41-.372.933-.559 1.57-.559.672 0 1.195.176 1.578.531.379.356.57.848.57 1.48 0 .31-.101.61-.3.9a1.81 1.81 0 01-.817.648c.39.125.692.328.903.617.214.285.32.636.32 1.047 0 .64-.207 1.144-.625 1.52-.418.374-.957.562-1.625.562s-1.211-.18-1.63-.543c-.417-.36-.624-.836-.624-1.43h.906c0 .375.121.672.367.898.243.227.57.336.98.336.438 0 .77-.113 1-.34.231-.23.349-.554.349-.98 0-.414-.125-.734-.383-.953-.254-.223-.618-.336-1.098-.344h-.676zm0 0"/></symbol><symbol overflow="visible" id="w"><path d="M5.25 0H.59v-.648l2.46-2.735c.364-.414.618-.75.755-1.008.14-.257.21-.527.21-.804 0-.371-.113-.676-.34-.914-.222-.239-.523-.356-.898-.356-.449 0-.797.13-1.047.383-.25.254-.37.613-.37 1.066H.452c0-.652.211-1.183.633-1.586.422-.402.984-.605 1.691-.605.66 0 1.184.172 1.567.52.386.347.578.808.578 1.382 0 .703-.445 1.535-1.336 2.5L1.68-.738h3.57zm0 0"/></symbol><symbol overflow="visible" id="x"><path d="M5.047-3.031c0 1.058-.18 1.844-.54 2.36-.362.51-.925.769-1.694.769-.758 0-1.32-.25-1.684-.754C.766-1.16.574-1.91.562-2.91v-1.207c0-1.043.18-1.82.54-2.328.363-.508.93-.762 1.703-.762.765 0 1.328.246 1.687.734.36.489.547 1.246.555 2.27zm-.902-1.235c0-.765-.106-1.324-.32-1.675-.216-.348-.555-.524-1.02-.524-.465 0-.801.176-1.012.524-.211.347-.32.882-.328 1.605v1.445c0 .77.113 1.336.336 1.704.222.367.558.546 1.012.546.445 0 .777-.171.992-.515.218-.344.332-.89.34-1.633zm0 0"/></symbol><symbol overflow="visible" id="y"><path d="M5.18-6.602L2.234 0H1.29l2.934-6.367H.375v-.742H5.18zm0 0"/></symbol><symbol overflow="visible" id="z"><path d="M4.746-3.14H1.762V0H.824v-7.11H5.23v.774H1.762v2.43h2.984zm0 0"/></symbol><symbol overflow="visible" id="A"><path d="M2.875.098c-.715 0-1.297-.235-1.746-.707-.45-.47-.676-1.098-.676-1.887v-.164c0-.524.102-.992.3-1.406.2-.41.481-.735.84-.965.36-.235.75-.352 1.173-.352.687 0 1.218.227 1.601.68.38.453.57 1.101.57 1.945v.375H1.36c.012.52.164.942.454 1.262.292.32.664.48 1.113.48.316 0 .59-.062.808-.195.223-.129.414-.3.582-.516l.551.43c-.441.68-1.105 1.02-1.992 1.02zm-.11-4.739a1.21 1.21 0 00-.921.399c-.246.265-.399.64-.457 1.117H4.03v-.07c-.023-.457-.148-.813-.367-1.067-.223-.25-.523-.379-.898-.379zm0 0"/></symbol><symbol overflow="visible" id="B"><path d="M5.156-2.582c0 .809-.187 1.453-.554 1.945-.372.489-.872.735-1.497.735-.667 0-1.183-.235-1.546-.707L1.516 0H.684v-7.5h.902v2.797c.367-.453.867-.68 1.508-.68.64 0 1.148.246 1.511.73.368.485.551 1.15.551 1.993zm-.902-.106c0-.613-.121-1.09-.356-1.421-.238-.336-.582-.504-1.027-.504-.598 0-1.023.277-1.285.828V-1.5c.277.555.71.832 1.297.832.43 0 .77-.168 1.008-.504.242-.336.363-.84.363-1.516zm0 0"/></symbol></defs><path d="M33.145 248.32V4m13.031 244.32V4m13.027 244.32V4m13.031 244.32V4m13.032 244.32V4m13.031 244.32V4m13.031 244.32V4m13.027 244.32V4m13.032 244.32V4m13.031 244.32V4m13.032 244.32V4m13.027 244.32V4m13.031 244.32V4m13.032 244.32V4m13.03 244.32V4m13.032 244.32V4m13.027 244.32V4m13.031 244.32V4m13.031 244.32V4m13.032 244.32V4m13.031 244.32V4m13.027 244.32V4m13.032 244.32V4m13.031 244.32V4m13.031 244.32V4m13.027 244.32V4m13.032 244.32V4m13.031 244.32V4m13.031 244.32V4m13.031 244.32V4m13.028 244.32V4M25 230.785h407.2M25 173.941h407.2M25 117.098h407.2M25 60.254h407.2" fill="none" stroke="#666" stroke-opacity=".5" stroke-dasharray="1,2" stroke-miterlimit="3.25"/><path d="M358.902 27.996l13.032-2.086 13.03.059 13.032-1.145 13.031-.32 13.028-.738" fill="none" stroke-width="1.6" stroke-linecap="square" stroke="#a60000" stroke-opacity=".3" stroke-miterlimit="3.25"/><path d="M358.902 33.238l13.032-3.297 13.03-.363 13.032-1.883 13.031-.828 13.028-1.3" fill="none" stroke-width="1.6" stroke-linecap="square" stroke="#0d86a0" stroke-opacity=".3" stroke-miterlimit="3.25"/><path d="M358.902 130.121l13.032 10.652 13.03 12.707 13.032 38.098" fill="none" stroke-width="1.6" stroke-linecap="square" stroke="#c05c20" stroke-opacity=".3" stroke-miterlimit="3.25"/><path d="M358.902 124.531l13.032 9.36 13.03 4.906 13.032 13.332 13.031 17.937" fill="none" stroke-width="1.6" stroke-linecap="square" stroke="#6f42b5" stroke-opacity=".3" stroke-miterlimit="3.25"/><path d="M358.902 120.535l13.032 3.156 13.03 2.246 13.032 3.215 13.031 3.352 13.028 4.129" fill="none" stroke-width="1.6" stroke-linecap="square" stroke="#769003" stroke-opacity=".3" stroke-miterlimit="3.25"/><path d="M358.902 134.21l13.032 6.24 13.03 13.39 13.032 25.445" fill="none" stroke-width="1.6" stroke-linecap="square" stroke="#a8364d" stroke-opacity=".3" stroke-miterlimit="3.25"/><path d="M358.902 133.242l13.032 11.137 13.03 23.5" fill="none" stroke-width="1.6" stroke-linecap="square" stroke="#3664cc" stroke-opacity=".3" stroke-miterlimit="3.25"/><path d="M358.902 129.3l13.032 3.204 13.03-1.774 13.032.833 13.031-.973 13.028-.235" fill="none" stroke-width="1.6" stroke-linecap="square" stroke="#c8860a" stroke-opacity=".3" stroke-miterlimit="3.25"/><path d="M358.902 153.379l13.032 9.555 13.03 14.859 13.032 54.078" fill="none" stroke-width="1.6" stroke-linecap="square" stroke="#833987" stroke-opacity=".3" stroke-miterlimit="3.25"/><path d="M358.902 145.227l13.032 2.43 13.03 1.566 13.032 2.511 13.031 2.262 13.028 2.957" fill="none" stroke-width="1.6" stroke-linecap="square" stroke="#1c8f6b" stroke-opacity=".3" stroke-miterlimit="3.25"/><path d="M358.902 136.809l13.032-4.25 13.03-6.508 13.032-3.805 13.031-4.504 13.028-3.312" fill="none" stroke-width="1.6" stroke-linecap="square" stroke="#a54f05" stroke-opacity=".3" stroke-miterlimit="3.25"/><path d="M98.297 196.563l13.031-35.723 13.027-30.719 13.032-6.89 13.031-4.075 13.031-11.902 13.028 3.176 13.03-16.825 13.032-13.308 13.031-10.813 13.032-2.746 13.027-20.593 13.031 4.785 13.031-4.309 13.032-3.258 13.03-1.449 13.028-5.152 13.031-2.18 13.032-3.312 13.031-4.532 13.027 1.258" fill="none" stroke-width="1.6" stroke-linecap="square" stroke="#a60000" stroke-miterlimit="3.25"/><path d="M98.297 196.563l13.031-35.723 13.027-30.719 13.032-6.57 13.031 1.656 13.031-9.312 13.028 10.363 13.03-10.363 13.032-13.31 13.031-14.433 13.032-3.422 13.027-30.78 13.031 10.609 13.031-5.082 13.032-4.133 13.03-2.446 13.028-8.761 13.031-2.235 13.032-2.687 13.031-7.336 13.027 1.36" fill="none" stroke-width="1.6" stroke-linecap="square" stroke="#0d86a0" stroke-miterlimit="3.25"/><path d="M163.45 191.055h13.027l13.03-46.586 13.032 13.629 13.031-19.586 13.032 13.816 13.027-15.52 13.031-24.82 13.031-1.746 13.032 4.727 13.03 13.93h13.028l13.031-.395 13.032-12.61 13.031 11.461 13.027 2.766" fill="none" stroke-width="1.6" stroke-linecap="square" stroke="#c05c20" stroke-miterlimit="3.25"/><path d="M137.387 230.785l13.031-63.32 13.031 1.976 13.028 17.11 13.03-30.926 13.032-4.305 13.031 5.508 13.032-21.61 13.027 3.294 13.031-5.742 13.031-6.868 13.032-3.906 13.03-10.8 13.028 10.206 13.031 1.516 13.032-9.055 13.031 11.004 13.027-.336" fill="none" stroke-width="1.6" stroke-linecap="square" stroke="#6f42b5" stroke-miterlimit="3.25"/><path d="M163.45 230.785l13.027-34.222h13.03l13.032-43.184 13.031-19.66 13.032 3.09 13.027 2.91 13.031 1.265 13.031-15.777 13.032-.676 13.03 1.371 13.028-.351 13.031-.684 13.032-9.898 13.031 5.004 13.027.562" fill="none" stroke-width="1.6" stroke-linecap="square" stroke="#769003" stroke-miterlimit="3.25"/><path d="M163.45 230.785l13.027-51.336 13.03-15.52 13.032-5.831 13.031-7.746 13.032-4.34 13.027-8.078 13.031-14.704 13.031 8.18 13.032.445 13.03-.882 13.028-6.442 13.031 6.016 13.032-5.34 13.031 1.41 13.027 7.594" fill="none" stroke-width="1.6" stroke-linecap="square" stroke="#a8364d" stroke-miterlimit="3.25"/><path d="M163.45 213.672l13.027 17.113 13.03-34.222 13.032-24.973 13.031-12.16 13.032 10.011 13.027-17.113 13.031-10.687 13.031-8.871 13.032-9.22 13.03 12.188h13.028l13.031-5.617 13.032-9.012 13.031 4.098 13.027 8.035" fill="none" stroke-width="1.6" stroke-linecap="square" stroke="#3664cc" stroke-miterlimit="3.25"/><path d="M176.477 230.785l13.03-65.148 13.032-13.309 13.031 3.297 13.032 18.316 13.027-31.62 13.031-6.055 13.031-1.047 13.032 6.422 13.03-11.934 13.028 8.227 13.031-11.317 13.032-1.41 13.031 9.004 13.027-4.91" fill="none" stroke-width="1.6" stroke-linecap="square" stroke="#c8860a" stroke-miterlimit="3.25"/><path d="M163.45 191.055l13.027 5.507 13.03-37.132 13.032-12.61 13.031 12.61 13.032-16.414 13.027 11.46 13.031 9.454 13.031-4.5 13.032-20.32 13.03 6.117 13.028 7.101 13.031-11.344 13.032.657 13.031 6.015 13.027 5.723" fill="none" stroke-width="1.6" stroke-linecap="square" stroke="#833987" stroke-miterlimit="3.25"/><path d="M176.477 230.785l13.03-51.336 13.032-2.906 13.031-9.078 13.032-5.125 13.027-8.961 13.031-5.723 13.031-.836 13.032-6.476 13.03 3.386h13.028l13.031-.714 13.032-1.375 13.031 2.828 13.027.758" fill="none" stroke-width="1.6" stroke-linecap="square" stroke="#1c8f6b" stroke-miterlimit="3.25"/><path d="M163.45 230.785l13.027-39.73 13.03 12.61 13.032-34.224 13.031-10.011 13.032-7.102h13.027l13.031-8.598 13.031 8.598 13.032-7.86 13.03 7.86 13.028 1.05 13.031 2.247 13.032-3.297 13.031-3.805 13.027-11.714" fill="none" stroke-width="1.6" stroke-linecap="square" stroke="#a54f05" stroke-miterlimit="3.25"/><path d="M360.867 28c0-.496-.199-.969-.547-1.32a1.879 1.879 0 00-1.32-.547c-.496 0-.969.199-1.32.547a1.879 1.879 0 00-.547 1.32c0 .496.199.969.547 1.32.351.348.824.547 1.32.547.496 0 .969-.199 1.32-.547.348-.351.547-.824.547-1.32zm13-2c0-.496-.199-.969-.547-1.32a1.879 1.879 0 00-1.32-.547c-.496 0-.969.199-1.32.547a1.879 1.879 0 00-.547 1.32c0 .496.199.969.547 1.32.351.348.824.547 1.32.547.496 0 .969-.199 1.32-.547.348-.351.547-.824.547-1.32zm13 0c0-.496-.199-.969-.547-1.32a1.879 1.879 0 00-1.32-.547c-.496 0-.969.199-1.32.547a1.879 1.879 0 00-.547 1.32c0 .496.199.969.547 1.32.351.348.824.547 1.32.547.496 0 .969-.199 1.32-.547.348-.351.547-.824.547-1.32zm13-1c0-.496-.199-.969-.547-1.32a1.879 1.879 0 00-1.32-.547c-.496 0-.969.199-1.32.547a1.879 1.879 0 00-.547 1.32c0 .496.199.969.547 1.32.351.348.824.547 1.32.547.496 0 .969-.199 1.32-.547.348-.351.547-.824.547-1.32zm13 0c0-.496-.199-.969-.547-1.32a1.879 1.879 0 00-1.32-.547c-.496 0-.969.199-1.32.547a1.879 1.879 0 00-.547 1.32c0 .496.199.969.547 1.32.351.348.824.547 1.32.547.496 0 .969-.199 1.32-.547.348-.351.547-.824.547-1.32zm13-1c0-.496-.199-.969-.547-1.32a1.879 1.879 0 00-1.32-.547c-.496 0-.969.199-1.32.547a1.879 1.879 0 00-.547 1.32c0 .496.199.969.547 1.32.351.348.824.547 1.32.547.496 0 .969-.199 1.32-.547.348-.351.547-.824.547-1.32zm0 0" fill-rule="evenodd" fill="#a60000" fill-opacity=".3"/><path d="M360.867 33c0-.496-.199-.969-.547-1.32a1.879 1.879 0 00-1.32-.547c-.496 0-.969.199-1.32.547a1.879 1.879 0 00-.547 1.32c0 .496.199.969.547 1.32.351.348.824.547 1.32.547.496 0 .969-.199 1.32-.547.348-.351.547-.824.547-1.32zm13-3c0-.496-.199-.969-.547-1.32a1.879 1.879 0 00-1.32-.547c-.496 0-.969.199-1.32.547a1.879 1.879 0 00-.547 1.32c0 .496.199.969.547 1.32.351.348.824.547 1.32.547.496 0 .969-.199 1.32-.547.348-.351.547-.824.547-1.32zm13 0c0-.496-.199-.969-.547-1.32a1.879 1.879 0 00-1.32-.547c-.496 0-.969.199-1.32.547a1.879 1.879 0 00-.547 1.32c0 .496.199.969.547 1.32.351.348.824.547 1.32.547.496 0 .969-.199 1.32-.547.348-.351.547-.824.547-1.32zm13-2c0-.496-.199-.969-.547-1.32a1.879 1.879 0 00-1.32-.547c-.496 0-.969.199-1.32.547a1.879 1.879 0 00-.547 1.32c0 .496.199.969.547 1.32.351.348.824.547 1.32.547.496 0 .969-.199 1.32-.547.348-.351.547-.824.547-1.32zm13-1c0-.496-.199-.969-.547-1.32a1.879 1.879 0 00-1.32-.547c-.496 0-.969.199-1.32.547a1.879 1.879 0 00-.547 1.32c0 .496.199.969.547 1.32.351.348.824.547 1.32.547.496 0 .969-.199 1.32-.547.348-.351.547-.824.547-1.32zm13-1c0-.496-.199-.969-.547-1.32a1.879 1.879 0 00-1.32-.547c-.496 0-.969.199-1.32.547a1.879 1.879 0 00-.547 1.32c0 .496.199.969.547 1.32.351.348.824.547 1.32.547.496 0 .969-.199 1.32-.547.348-.351.547-.824.547-1.32zm0 0" fill-rule="evenodd" fill="#0d86a0" fill-opacity=".3"/><path d="M360.867 130c0-.496-.199-.969-.547-1.32a1.879 1.879 0 00-1.32-.547c-.496 0-.969.199-1.32.547a1.879 1.879 0 00-.547 1.32c0 .496.199.969.547 1.32.351.348.824.547 1.32.547.496 0 .969-.199 1.32-.547.348-.351.547-.824.547-1.32zm13 11c0-.496-.199-.969-.547-1.32a1.879 1.879 0 00-1.32-.547c-.496 0-.969.199-1.32.547a1.879 1.879 0 00-.547 1.32c0 .496.199.969.547 1.32.351.348.824.547 1.32.547.496 0 .969-.199 1.32-.547.348-.351.547-.824.547-1.32zm13 12c0-.496-.199-.969-.547-1.32a1.879 1.879 0 00-1.32-.547c-.496 0-.969.199-1.32.547a1.879 1.879 0 00-.547 1.32c0 .496.199.969.547 1.32.351.348.824.547 1.32.547.496 0 .969-.199 1.32-.547.348-.351.547-.824.547-1.32zm13 39c0-.496-.199-.969-.547-1.32a1.879 1.879 0 00-1.32-.547c-.496 0-.969.199-1.32.547a1.879 1.879 0 00-.547 1.32c0 .496.199.969.547 1.32.351.348.824.547 1.32.547.496 0 .969-.199 1.32-.547.348-.351.547-.824.547-1.32zm0 0" fill-rule="evenodd" fill="#c05c20" fill-opacity=".3"/><path d="M360.867 125c0-.496-.199-.969-.547-1.32a1.879 1.879 0 00-1.32-.547c-.496 0-.969.199-1.32.547a1.879 1.879 0 00-.547 1.32c0 .496.199.969.547 1.32.351.348.824.547 1.32.547.496 0 .969-.199 1.32-.547.348-.351.547-.824.547-1.32zm13 9c0-.496-.199-.969-.547-1.32a1.879 1.879 0 00-1.32-.547c-.496 0-.969.199-1.32.547a1.879 1.879 0 00-.547 1.32c0 .496.199.969.547 1.32.351.348.824.547 1.32.547.496 0 .969-.199 1.32-.547.348-.351.547-.824.547-1.32zm13 5c0-.496-.199-.969-.547-1.32a1.879 1.879 0 00-1.32-.547c-.496 0-.969.199-1.32.547a1.879 1.879 0 00-.547 1.32c0 .496.199.969.547 1.32.351.348.824.547 1.32.547.496 0 .969-.199 1.32-.547.348-.351.547-.824.547-1.32zm13 13c0-.496-.199-.969-.547-1.32a1.879 1.879 0 00-1.32-.547c-.496 0-.969.199-1.32.547a1.879 1.879 0 00-.547 1.32c0 .496.199.969.547 1.32.351.348.824.547 1.32.547.496 0 .969-.199 1.32-.547.348-.351.547-.824.547-1.32zm13 18c0-.496-.199-.969-.547-1.32a1.879 1.879 0 00-1.32-.547c-.496 0-.969.199-1.32.547a1.879 1.879 0 00-.547 1.32c0 .496.199.969.547 1.32.351.348.824.547 1.32.547.496 0 .969-.199 1.32-.547.348-.351.547-.824.547-1.32zm0 0" fill-rule="evenodd" fill="#6f42b5" fill-opacity=".3"/><path d="M360.867 121c0-.496-.199-.969-.547-1.32a1.879 1.879 0 00-1.32-.547c-.496 0-.969.199-1.32.547a1.879 1.879 0 00-.547 1.32c0 .496.199.969.547 1.32.351.348.824.547 1.32.547.496 0 .969-.199 1.32-.547.348-.351.547-.824.547-1.32zm13 3c0-.496-.199-.969-.547-1.32a1.879 1.879 0 00-1.32-.547c-.496 0-.969.199-1.32.547a1.879 1.879 0 00-.547 1.32c0 .496.199.969.547 1.32.351.348.824.547 1.32.547.496 0 .969-.199 1.32-.547.348-.351.547-.824.547-1.32zm13 2c0-.496-.199-.969-.547-1.32a1.879 1.879 0 00-1.32-.547c-.496 0-.969.199-1.32.547a1.879 1.879 0 00-.547 1.32c0 .496.199.969.547 1.32.351.348.824.547 1.32.547.496 0 .969-.199 1.32-.547.348-.351.547-.824.547-1.32zm13 3c0-.496-.199-.969-.547-1.32a1.879 1.879 0 00-1.32-.547c-.496 0-.969.199-1.32.547a1.879 1.879 0 00-.547 1.32c0 .496.199.969.547 1.32.351.348.824.547 1.32.547.496 0 .969-.199 1.32-.547.348-.351.547-.824.547-1.32zm13 4c0-.496-.199-.969-.547-1.32a1.879 1.879 0 00-1.32-.547c-.496 0-.969.199-1.32.547a1.879 1.879 0 00-.547 1.32c0 .496.199.969.547 1.32.351.348.824.547 1.32.547.496 0 .969-.199 1.32-.547.348-.351.547-.824.547-1.32zm13 4c0-.496-.199-.969-.547-1.32a1.879 1.879 0 00-1.32-.547c-.496 0-.969.199-1.32.547a1.879 1.879 0 00-.547 1.32c0 .496.199.969.547 1.32.351.348.824.547 1.32.547.496 0 .969-.199 1.32-.547.348-.351.547-.824.547-1.32zm0 0" fill-rule="evenodd" fill="#769003" fill-opacity=".3"/><path d="M360.867 134c0-.496-.199-.969-.547-1.32a1.879 1.879 0 00-1.32-.547c-.496 0-.969.199-1.32.547a1.879 1.879 0 00-.547 1.32c0 .496.199.969.547 1.32.351.348.824.547 1.32.547.496 0 .969-.199 1.32-.547.348-.351.547-.824.547-1.32zm13 6c0-.496-.199-.969-.547-1.32a1.879 1.879 0 00-1.32-.547c-.496 0-.969.199-1.32.547a1.879 1.879 0 00-.547 1.32c0 .496.199.969.547 1.32.351.348.824.547 1.32.547.496 0 .969-.199 1.32-.547.348-.351.547-.824.547-1.32zm13 14c0-.496-.199-.969-.547-1.32a1.879 1.879 0 00-1.32-.547c-.496 0-.969.199-1.32.547a1.879 1.879 0 00-.547 1.32c0 .496.199.969.547 1.32.351.348.824.547 1.32.547.496 0 .969-.199 1.32-.547.348-.351.547-.824.547-1.32zm13 25c0-.496-.199-.969-.547-1.32a1.879 1.879 0 00-1.32-.547c-.496 0-.969.199-1.32.547a1.879 1.879 0 00-.547 1.32c0 .496.199.969.547 1.32.351.348.824.547 1.32.547.496 0 .969-.199 1.32-.547.348-.351.547-.824.547-1.32zm0 0" fill-rule="evenodd" fill="#a8364d" fill-opacity=".3"/><path d="M360.867 133c0-.496-.199-.969-.547-1.32a1.879 1.879 0 00-1.32-.547c-.496 0-.969.199-1.32.547a1.879 1.879 0 00-.547 1.32c0 .496.199.969.547 1.32.351.348.824.547 1.32.547.496 0 .969-.199 1.32-.547.348-.351.547-.824.547-1.32zm13 11c0-.496-.199-.969-.547-1.32a1.879 1.879 0 00-1.32-.547c-.496 0-.969.199-1.32.547a1.879 1.879 0 00-.547 1.32c0 .496.199.969.547 1.32.351.348.824.547 1.32.547.496 0 .969-.199 1.32-.547.348-.351.547-.824.547-1.32zm13 24c0-.496-.199-.969-.547-1.32a1.879 1.879 0 00-1.32-.547c-.496 0-.969.199-1.32.547a1.879 1.879 0 00-.547 1.32c0 .496.199.969.547 1.32.351.348.824.547 1.32.547.496 0 .969-.199 1.32-.547.348-.351.547-.824.547-1.32zm0 0" fill-rule="evenodd" fill="#3664cc" fill-opacity=".3"/><path d="M360.867 129c0-.496-.199-.969-.547-1.32a1.879 1.879 0 00-1.32-.547c-.496 0-.969.199-1.32.547a1.879 1.879 0 00-.547 1.32c0 .496.199.969.547 1.32.351.348.824.547 1.32.547.496 0 .969-.199 1.32-.547.348-.351.547-.824.547-1.32zm13 4c0-.496-.199-.969-.547-1.32a1.879 1.879 0 00-1.32-.547c-.496 0-.969.199-1.32.547a1.879 1.879 0 00-.547 1.32c0 .496.199.969.547 1.32.351.348.824.547 1.32.547.496 0 .969-.199 1.32-.547.348-.351.547-.824.547-1.32zm13-2c0-.496-.199-.969-.547-1.32a1.879 1.879 0 00-1.32-.547c-.496 0-.969.199-1.32.547a1.879 1.879 0 00-.547 1.32c0 .496.199.969.547 1.32.351.348.824.547 1.32.547.496 0 .969-.199 1.32-.547.348-.351.547-.824.547-1.32zm13 1c0-.496-.199-.969-.547-1.32a1.879 1.879 0 00-1.32-.547c-.496 0-.969.199-1.32.547a1.879 1.879 0 00-.547 1.32c0 .496.199.969.547 1.32.351.348.824.547 1.32.547.496 0 .969-.199 1.32-.547.348-.351.547-.824.547-1.32zm13-1c0-.496-.199-.969-.547-1.32a1.879 1.879 0 00-1.32-.547c-.496 0-.969.199-1.32.547a1.879 1.879 0 00-.547 1.32c0 .496.199.969.547 1.32.351.348.824.547 1.32.547.496 0 .969-.199 1.32-.547.348-.351.547-.824.547-1.32zm13-1c0-.496-.199-.969-.547-1.32a1.879 1.879 0 00-1.32-.547c-.496 0-.969.199-1.32.547a1.879 1.879 0 00-.547 1.32c0 .496.199.969.547 1.32.351.348.824.547 1.32.547.496 0 .969-.199 1.32-.547.348-.351.547-.824.547-1.32zm0 0" fill-rule="evenodd" fill="#c8860a" fill-opacity=".3"/><path d="M360.867 153c0-.496-.199-.969-.547-1.32a1.879 1.879 0 00-1.32-.547c-.496 0-.969.199-1.32.547a1.879 1.879 0 00-.547 1.32c0 .496.199.969.547 1.32.351.348.824.547 1.32.547.496 0 .969-.199 1.32-.547.348-.351.547-.824.547-1.32zm13 10c0-.496-.199-.969-.547-1.32a1.879 1.879 0 00-1.32-.547c-.496 0-.969.199-1.32.547a1.879 1.879 0 00-.547 1.32c0 .496.199.969.547 1.32.351.348.824.547 1.32.547.496 0 .969-.199 1.32-.547.348-.351.547-.824.547-1.32zm13 15c0-.496-.199-.969-.547-1.32a1.879 1.879 0 00-1.32-.547c-.496 0-.969.199-1.32.547a1.879 1.879 0 00-.547 1.32c0 .496.199.969.547 1.32.351.348.824.547 1.32.547.496 0 .969-.199 1.32-.547.348-.351.547-.824.547-1.32zm13 54c0-.496-.199-.969-.547-1.32a1.879 1.879 0 00-1.32-.547c-.496 0-.969.199-1.32.547a1.879 1.879 0 00-.547 1.32c0 .496.199.969.547 1.32.351.348.824.547 1.32.547.496 0 .969-.199 1.32-.547.348-.351.547-.824.547-1.32zm0 0" fill-rule="evenodd" fill="#833987" fill-opacity=".3"/><path d="M360.867 145c0-.496-.199-.969-.547-1.32a1.879 1.879 0 00-1.32-.547c-.496 0-.969.199-1.32.547a1.879 1.879 0 00-.547 1.32c0 .496.199.969.547 1.32.351.348.824.547 1.32.547.496 0 .969-.199 1.32-.547.348-.351.547-.824.547-1.32zm13 3c0-.496-.199-.969-.547-1.32a1.879 1.879 0 00-1.32-.547c-.496 0-.969.199-1.32.547a1.879 1.879 0 00-.547 1.32c0 .496.199.969.547 1.32.351.348.824.547 1.32.547.496 0 .969-.199 1.32-.547.348-.351.547-.824.547-1.32zm13 1c0-.496-.199-.969-.547-1.32a1.879 1.879 0 00-1.32-.547c-.496 0-.969.199-1.32.547a1.879 1.879 0 00-.547 1.32c0 .496.199.969.547 1.32.351.348.824.547 1.32.547.496 0 .969-.199 1.32-.547.348-.351.547-.824.547-1.32zm13 3c0-.496-.199-.969-.547-1.32a1.879 1.879 0 00-1.32-.547c-.496 0-.969.199-1.32.547a1.879 1.879 0 00-.547 1.32c0 .496.199.969.547 1.32.351.348.824.547 1.32.547.496 0 .969-.199 1.32-.547.348-.351.547-.824.547-1.32zm13 2c0-.496-.199-.969-.547-1.32a1.879 1.879 0 00-1.32-.547c-.496 0-.969.199-1.32.547a1.879 1.879 0 00-.547 1.32c0 .496.199.969.547 1.32.351.348.824.547 1.32.547.496 0 .969-.199 1.32-.547.348-.351.547-.824.547-1.32zm13 3c0-.496-.199-.969-.547-1.32a1.879 1.879 0 00-1.32-.547c-.496 0-.969.199-1.32.547a1.879 1.879 0 00-.547 1.32c0 .496.199.969.547 1.32.351.348.824.547 1.32.547.496 0 .969-.199 1.32-.547.348-.351.547-.824.547-1.32zm0 0" fill-rule="evenodd" fill="#1c8f6b" fill-opacity=".3"/><path d="M360.867 137c0-.496-.199-.969-.547-1.32a1.879 1.879 0 00-1.32-.547c-.496 0-.969.199-1.32.547a1.879 1.879 0 00-.547 1.32c0 .496.199.969.547 1.32.351.348.824.547 1.32.547.496 0 .969-.199 1.32-.547.348-.351.547-.824.547-1.32zm13-4c0-.496-.199-.969-.547-1.32a1.879 1.879 0 00-1.32-.547c-.496 0-.969.199-1.32.547a1.879 1.879 0 00-.547 1.32c0 .496.199.969.547 1.32.351.348.824.547 1.32.547.496 0 .969-.199 1.32-.547.348-.351.547-.824.547-1.32zm13-7c0-.496-.199-.969-.547-1.32a1.879 1.879 0 00-1.32-.547c-.496 0-.969.199-1.32.547a1.879 1.879 0 00-.547 1.32c0 .496.199.969.547 1.32.351.348.824.547 1.32.547.496 0 .969-.199 1.32-.547.348-.351.547-.824.547-1.32zm13-4c0-.496-.199-.969-.547-1.32a1.879 1.879 0 00-1.32-.547c-.496 0-.969.199-1.32.547a1.879 1.879 0 00-.547 1.32c0 .496.199.969.547 1.32.351.348.824.547 1.32.547.496 0 .969-.199 1.32-.547.348-.351.547-.824.547-1.32zm13-4c0-.496-.199-.969-.547-1.32a1.879 1.879 0 00-1.32-.547c-.496 0-.969.199-1.32.547a1.879 1.879 0 00-.547 1.32c0 .496.199.969.547 1.32.351.348.824.547 1.32.547.496 0 .969-.199 1.32-.547.348-.351.547-.824.547-1.32zm13-4c0-.496-.199-.969-.547-1.32a1.879 1.879 0 00-1.32-.547c-.496 0-.969.199-1.32.547a1.879 1.879 0 00-.547 1.32c0 .496.199.969.547 1.32.351.348.824.547 1.32.547.496 0 .969-.199 1.32-.547.348-.351.547-.824.547-1.32zm0 0" fill-rule="evenodd" fill="#a54f05" fill-opacity=".3"/><path d="M34.867 139c0-.496-.199-.969-.547-1.32a1.879 1.879 0 00-1.32-.547c-.496 0-.969.199-1.32.547a1.879 1.879 0 00-.547 1.32c0 .496.199.969.547 1.32.351.348.824.547 1.32.547.496 0 .969-.199 1.32-.547.348-.351.547-.824.547-1.32zm65 58c0-.496-.199-.969-.547-1.32a1.879 1.879 0 00-1.32-.547c-.496 0-.969.199-1.32.547a1.879 1.879 0 00-.547 1.32c0 .496.199.969.547 1.32.351.348.824.547 1.32.547.496 0 .969-.199 1.32-.547.348-.351.547-.824.547-1.32zm13-36c0-.496-.199-.969-.547-1.32a1.879 1.879 0 00-1.32-.547c-.496 0-.969.199-1.32.547a1.879 1.879 0 00-.547 1.32c0 .496.199.969.547 1.32.351.348.824.547 1.32.547.496 0 .969-.199 1.32-.547.348-.351.547-.824.547-1.32zm13-31c0-.496-.199-.969-.547-1.32a1.879 1.879 0 00-1.32-.547c-.496 0-.969.199-1.32.547a1.879 1.879 0 00-.547 1.32c0 .496.199.969.547 1.32.351.348.824.547 1.32.547.496 0 .969-.199 1.32-.547.348-.351.547-.824.547-1.32zm13-7c0-.496-.199-.969-.547-1.32a1.879 1.879 0 00-1.32-.547c-.496 0-.969.199-1.32.547a1.879 1.879 0 00-.547 1.32c0 .496.199.969.547 1.32.351.348.824.547 1.32.547.496 0 .969-.199 1.32-.547.348-.351.547-.824.547-1.32zm13-4c0-.496-.199-.969-.547-1.32a1.879 1.879 0 00-1.32-.547c-.496 0-.969.199-1.32.547a1.879 1.879 0 00-.547 1.32c0 .496.199.969.547 1.32.351.348.824.547 1.32.547.496 0 .969-.199 1.32-.547.348-.351.547-.824.547-1.32zm13-12c0-.496-.199-.969-.547-1.32a1.879 1.879 0 00-1.32-.547c-.496 0-.969.199-1.32.547a1.879 1.879 0 00-.547 1.32c0 .496.199.969.547 1.32.351.348.824.547 1.32.547.496 0 .969-.199 1.32-.547.348-.351.547-.824.547-1.32zm13 3c0-.496-.199-.969-.547-1.32a1.879 1.879 0 00-1.32-.547c-.496 0-.969.199-1.32.547a1.879 1.879 0 00-.547 1.32c0 .496.199.969.547 1.32.351.348.824.547 1.32.547.496 0 .969-.199 1.32-.547.348-.351.547-.824.547-1.32zm14-16c0-.496-.199-.969-.547-1.32a1.879 1.879 0 00-1.32-.547c-.496 0-.969.199-1.32.547a1.879 1.879 0 00-.547 1.32c0 .496.199.969.547 1.32.351.348.824.547 1.32.547.496 0 .969-.199 1.32-.547.348-.351.547-.824.547-1.32zm13-14c0-.496-.199-.969-.547-1.32a1.879 1.879 0 00-1.32-.547c-.496 0-.969.199-1.32.547a1.879 1.879 0 00-.547 1.32c0 .496.199.969.547 1.32.351.348.824.547 1.32.547.496 0 .969-.199 1.32-.547.348-.351.547-.824.547-1.32zm13-11c0-.496-.199-.969-.547-1.32a1.879 1.879 0 00-1.32-.547c-.496 0-.969.199-1.32.547a1.879 1.879 0 00-.547 1.32c0 .496.199.969.547 1.32.351.348.824.547 1.32.547.496 0 .969-.199 1.32-.547.348-.351.547-.824.547-1.32zm13-2c0-.496-.199-.969-.547-1.32a1.879 1.879 0 00-1.32-.547c-.496 0-.969.199-1.32.547a1.879 1.879 0 00-.547 1.32c0 .496.199.969.547 1.32.351.348.824.547 1.32.547.496 0 .969-.199 1.32-.547.348-.351.547-.824.547-1.32zm13-21c0-.496-.199-.969-.547-1.32a1.879 1.879 0 00-1.32-.547c-.496 0-.969.199-1.32.547a1.879 1.879 0 00-.547 1.32c0 .496.199.969.547 1.32.351.348.824.547 1.32.547.496 0 .969-.199 1.32-.547.348-.351.547-.824.547-1.32zm13 5c0-.496-.199-.969-.547-1.32a1.879 1.879 0 00-1.32-.547c-.496 0-.969.199-1.32.547a1.879 1.879 0 00-.547 1.32c0 .496.199.969.547 1.32.351.348.824.547 1.32.547.496 0 .969-.199 1.32-.547.348-.351.547-.824.547-1.32zm13-4c0-.496-.199-.969-.547-1.32a1.879 1.879 0 00-1.32-.547c-.496 0-.969.199-1.32.547a1.879 1.879 0 00-.547 1.32c0 .496.199.969.547 1.32.351.348.824.547 1.32.547.496 0 .969-.199 1.32-.547.348-.351.547-.824.547-1.32zm13-4c0-.496-.199-.969-.547-1.32a1.879 1.879 0 00-1.32-.547c-.496 0-.969.199-1.32.547a1.879 1.879 0 00-.547 1.32c0 .496.199.969.547 1.32.351.348.824.547 1.32.547.496 0 .969-.199 1.32-.547.348-.351.547-.824.547-1.32zm13-1c0-.496-.199-.969-.547-1.32a1.879 1.879 0 00-1.32-.547c-.496 0-.969.199-1.32.547a1.879 1.879 0 00-.547 1.32c0 .496.199.969.547 1.32.351.348.824.547 1.32.547.496 0 .969-.199 1.32-.547.348-.351.547-.824.547-1.32zm13-5c0-.496-.199-.969-.547-1.32a1.879 1.879 0 00-1.32-.547c-.496 0-.969.199-1.32.547a1.879 1.879 0 00-.547 1.32c0 .496.199.969.547 1.32.351.348.824.547 1.32.547.496 0 .969-.199 1.32-.547.348-.351.547-.824.547-1.32zm13-2c0-.496-.199-.969-.547-1.32a1.879 1.879 0 00-1.32-.547c-.496 0-.969.199-1.32.547a1.879 1.879 0 00-.547 1.32c0 .496.199.969.547 1.32.351.348.824.547 1.32.547.496 0 .969-.199 1.32-.547.348-.351.547-.824.547-1.32zm13-4c0-.496-.199-.969-.547-1.32a1.879 1.879 0 00-1.32-.547c-.496 0-.969.199-1.32.547a1.879 1.879 0 00-.547 1.32c0 .496.199.969.547 1.32.351.348.824.547 1.32.547.496 0 .969-.199 1.32-.547.348-.351.547-.824.547-1.32zm13-4c0-.496-.199-.969-.547-1.32a1.879 1.879 0 00-1.32-.547c-.496 0-.969.199-1.32.547a1.879 1.879 0 00-.547 1.32c0 .496.199.969.547 1.32.351.348.824.547 1.32.547.496 0 .969-.199 1.32-.547.348-.351.547-.824.547-1.32zm13 1c0-.496-.199-.969-.547-1.32a1.879 1.879 0 00-1.32-.547c-.496 0-.969.199-1.32.547a1.879 1.879 0 00-.547 1.32c0 .496.199.969.547 1.32.351.348.824.547 1.32.547.496 0 .969-.199 1.32-.547.348-.351.547-.824.547-1.32zm0 0" fill-rule="evenodd" fill="#a60000"/><path d="M34.867 139c0-.496-.199-.969-.547-1.32a1.879 1.879 0 00-1.32-.547c-.496 0-.969.199-1.32.547a1.879 1.879 0 00-.547 1.32c0 .496.199.969.547 1.32.351.348.824.547 1.32.547.496 0 .969-.199 1.32-.547.348-.351.547-.824.547-1.32zm65 58c0-.496-.199-.969-.547-1.32a1.879 1.879 0 00-1.32-.547c-.496 0-.969.199-1.32.547a1.879 1.879 0 00-.547 1.32c0 .496.199.969.547 1.32.351.348.824.547 1.32.547.496 0 .969-.199 1.32-.547.348-.351.547-.824.547-1.32zm13-36c0-.496-.199-.969-.547-1.32a1.879 1.879 0 00-1.32-.547c-.496 0-.969.199-1.32.547a1.879 1.879 0 00-.547 1.32c0 .496.199.969.547 1.32.351.348.824.547 1.32.547.496 0 .969-.199 1.32-.547.348-.351.547-.824.547-1.32zm13-31c0-.496-.199-.969-.547-1.32a1.879 1.879 0 00-1.32-.547c-.496 0-.969.199-1.32.547a1.879 1.879 0 00-.547 1.32c0 .496.199.969.547 1.32.351.348.824.547 1.32.547.496 0 .969-.199 1.32-.547.348-.351.547-.824.547-1.32zm13-6c0-.496-.199-.969-.547-1.32a1.879 1.879 0 00-1.32-.547c-.496 0-.969.199-1.32.547a1.879 1.879 0 00-.547 1.32c0 .496.199.969.547 1.32.351.348.824.547 1.32.547.496 0 .969-.199 1.32-.547.348-.351.547-.824.547-1.32zm13 1c0-.496-.199-.969-.547-1.32a1.879 1.879 0 00-1.32-.547c-.496 0-.969.199-1.32.547a1.879 1.879 0 00-.547 1.32c0 .496.199.969.547 1.32.351.348.824.547 1.32.547.496 0 .969-.199 1.32-.547.348-.351.547-.824.547-1.32zm13-9c0-.496-.199-.969-.547-1.32a1.879 1.879 0 00-1.32-.547c-.496 0-.969.199-1.32.547a1.879 1.879 0 00-.547 1.32c0 .496.199.969.547 1.32.351.348.824.547 1.32.547.496 0 .969-.199 1.32-.547.348-.351.547-.824.547-1.32zm13 10c0-.496-.199-.969-.547-1.32a1.879 1.879 0 00-1.32-.547c-.496 0-.969.199-1.32.547a1.879 1.879 0 00-.547 1.32c0 .496.199.969.547 1.32.351.348.824.547 1.32.547.496 0 .969-.199 1.32-.547.348-.351.547-.824.547-1.32zm14-10c0-.496-.199-.969-.547-1.32a1.879 1.879 0 00-1.32-.547c-.496 0-.969.199-1.32.547a1.879 1.879 0 00-.547 1.32c0 .496.199.969.547 1.32.351.348.824.547 1.32.547.496 0 .969-.199 1.32-.547.348-.351.547-.824.547-1.32zm13-13c0-.496-.199-.969-.547-1.32a1.879 1.879 0 00-1.32-.547c-.496 0-.969.199-1.32.547a1.879 1.879 0 00-.547 1.32c0 .496.199.969.547 1.32.351.348.824.547 1.32.547.496 0 .969-.199 1.32-.547.348-.351.547-.824.547-1.32zm13-15c0-.496-.199-.969-.547-1.32a1.879 1.879 0 00-1.32-.547c-.496 0-.969.199-1.32.547a1.879 1.879 0 00-.547 1.32c0 .496.199.969.547 1.32.351.348.824.547 1.32.547.496 0 .969-.199 1.32-.547.348-.351.547-.824.547-1.32zm13-3c0-.496-.199-.969-.547-1.32a1.879 1.879 0 00-1.32-.547c-.496 0-.969.199-1.32.547a1.879 1.879 0 00-.547 1.32c0 .496.199.969.547 1.32.351.348.824.547 1.32.547.496 0 .969-.199 1.32-.547.348-.351.547-.824.547-1.32zm13-31c0-.496-.199-.969-.547-1.32a1.879 1.879 0 00-1.32-.547c-.496 0-.969.199-1.32.547a1.879 1.879 0 00-.547 1.32c0 .496.199.969.547 1.32.351.348.824.547 1.32.547.496 0 .969-.199 1.32-.547.348-.351.547-.824.547-1.32zm13 11c0-.496-.199-.969-.547-1.32a1.879 1.879 0 00-1.32-.547c-.496 0-.969.199-1.32.547a1.879 1.879 0 00-.547 1.32c0 .496.199.969.547 1.32.351.348.824.547 1.32.547.496 0 .969-.199 1.32-.547.348-.351.547-.824.547-1.32zm13-6c0-.496-.199-.969-.547-1.32a1.879 1.879 0 00-1.32-.547c-.496 0-.969.199-1.32.547a1.879 1.879 0 00-.547 1.32c0 .496.199.969.547 1.32.351.348.824.547 1.32.547.496 0 .969-.199 1.32-.547.348-.351.547-.824.547-1.32zm13-4c0-.496-.199-.969-.547-1.32a1.879 1.879 0 00-1.32-.547c-.496 0-.969.199-1.32.547a1.879 1.879 0 00-.547 1.32c0 .496.199.969.547 1.32.351.348.824.547 1.32.547.496 0 .969-.199 1.32-.547.348-.351.547-.824.547-1.32zm13-2c0-.496-.199-.969-.547-1.32a1.879 1.879 0 00-1.32-.547c-.496 0-.969.199-1.32.547a1.879 1.879 0 00-.547 1.32c0 .496.199.969.547 1.32.351.348.824.547 1.32.547.496 0 .969-.199 1.32-.547.348-.351.547-.824.547-1.32zm13-9c0-.496-.199-.969-.547-1.32a1.879 1.879 0 00-1.32-.547c-.496 0-.969.199-1.32.547a1.879 1.879 0 00-.547 1.32c0 .496.199.969.547 1.32.351.348.824.547 1.32.547.496 0 .969-.199 1.32-.547.348-.351.547-.824.547-1.32zm13-2c0-.496-.199-.969-.547-1.32a1.879 1.879 0 00-1.32-.547c-.496 0-.969.199-1.32.547a1.879 1.879 0 00-.547 1.32c0 .496.199.969.547 1.32.351.348.824.547 1.32.547.496 0 .969-.199 1.32-.547.348-.351.547-.824.547-1.32zm13-3c0-.496-.199-.969-.547-1.32a1.879 1.879 0 00-1.32-.547c-.496 0-.969.199-1.32.547a1.879 1.879 0 00-.547 1.32c0 .496.199.969.547 1.32.351.348.824.547 1.32.547.496 0 .969-.199 1.32-.547.348-.351.547-.824.547-1.32zm13-7c0-.496-.199-.969-.547-1.32a1.879 1.879 0 00-1.32-.547c-.496 0-.969.199-1.32.547a1.879 1.879 0 00-.547 1.32c0 .496.199.969.547 1.32.351.348.824.547 1.32.547.496 0 .969-.199 1.32-.547.348-.351.547-.824.547-1.32zm13 1c0-.496-.199-.969-.547-1.32a1.879 1.879 0 00-1.32-.547c-.496 0-.969.199-1.32.547a1.879 1.879 0 00-.547 1.32c0 .496.199.969.547 1.32.351.348.824.547 1.32.547.496 0 .969-.199 1.32-.547.348-.351.547-.824.547-1.32zm0 0" fill-rule="evenodd" fill="#0d86a0"/><path d="M164.867 191c0-.496-.199-.969-.547-1.32a1.879 1.879 0 00-1.32-.547c-.496 0-.969.199-1.32.547a1.879 1.879 0 00-.547 1.32c0 .496.199.969.547 1.32.351.348.824.547 1.32.547.496 0 .969-.199 1.32-.547.348-.351.547-.824.547-1.32zm13 0c0-.496-.199-.969-.547-1.32a1.879 1.879 0 00-1.32-.547c-.496 0-.969.199-1.32.547a1.879 1.879 0 00-.547 1.32c0 .496.199.969.547 1.32.351.348.824.547 1.32.547.496 0 .969-.199 1.32-.547.348-.351.547-.824.547-1.32zm14-47c0-.496-.199-.969-.547-1.32a1.879 1.879 0 00-1.32-.547c-.496 0-.969.199-1.32.547a1.879 1.879 0 00-.547 1.32c0 .496.199.969.547 1.32.351.348.824.547 1.32.547.496 0 .969-.199 1.32-.547.348-.351.547-.824.547-1.32zm13 14c0-.496-.199-.969-.547-1.32a1.879 1.879 0 00-1.32-.547c-.496 0-.969.199-1.32.547a1.879 1.879 0 00-.547 1.32c0 .496.199.969.547 1.32.351.348.824.547 1.32.547.496 0 .969-.199 1.32-.547.348-.351.547-.824.547-1.32zm13-19c0-.496-.199-.969-.547-1.32a1.879 1.879 0 00-1.32-.547c-.496 0-.969.199-1.32.547a1.879 1.879 0 00-.547 1.32c0 .496.199.969.547 1.32.351.348.824.547 1.32.547.496 0 .969-.199 1.32-.547.348-.351.547-.824.547-1.32zm13 13c0-.496-.199-.969-.547-1.32a1.879 1.879 0 00-1.32-.547c-.496 0-.969.199-1.32.547a1.879 1.879 0 00-.547 1.32c0 .496.199.969.547 1.32.351.348.824.547 1.32.547.496 0 .969-.199 1.32-.547.348-.351.547-.824.547-1.32zm13-15c0-.496-.199-.969-.547-1.32a1.879 1.879 0 00-1.32-.547c-.496 0-.969.199-1.32.547a1.879 1.879 0 00-.547 1.32c0 .496.199.969.547 1.32.351.348.824.547 1.32.547.496 0 .969-.199 1.32-.547.348-.351.547-.824.547-1.32zm13-25c0-.496-.199-.969-.547-1.32a1.879 1.879 0 00-1.32-.547c-.496 0-.969.199-1.32.547a1.879 1.879 0 00-.547 1.32c0 .496.199.969.547 1.32.351.348.824.547 1.32.547.496 0 .969-.199 1.32-.547.348-.351.547-.824.547-1.32zm13-2c0-.496-.199-.969-.547-1.32a1.879 1.879 0 00-1.32-.547c-.496 0-.969.199-1.32.547a1.879 1.879 0 00-.547 1.32c0 .496.199.969.547 1.32.351.348.824.547 1.32.547.496 0 .969-.199 1.32-.547.348-.351.547-.824.547-1.32zm13 5c0-.496-.199-.969-.547-1.32a1.879 1.879 0 00-1.32-.547c-.496 0-.969.199-1.32.547a1.879 1.879 0 00-.547 1.32c0 .496.199.969.547 1.32.351.348.824.547 1.32.547.496 0 .969-.199 1.32-.547.348-.351.547-.824.547-1.32zm13 14c0-.496-.199-.969-.547-1.32a1.879 1.879 0 00-1.32-.547c-.496 0-.969.199-1.32.547a1.879 1.879 0 00-.547 1.32c0 .496.199.969.547 1.32.351.348.824.547 1.32.547.496 0 .969-.199 1.32-.547.348-.351.547-.824.547-1.32zm13 0c0-.496-.199-.969-.547-1.32a1.879 1.879 0 00-1.32-.547c-.496 0-.969.199-1.32.547a1.879 1.879 0 00-.547 1.32c0 .496.199.969.547 1.32.351.348.824.547 1.32.547.496 0 .969-.199 1.32-.547.348-.351.547-.824.547-1.32zm13 0c0-.496-.199-.969-.547-1.32a1.879 1.879 0 00-1.32-.547c-.496 0-.969.199-1.32.547a1.879 1.879 0 00-.547 1.32c0 .496.199.969.547 1.32.351.348.824.547 1.32.547.496 0 .969-.199 1.32-.547.348-.351.547-.824.547-1.32zm13-13c0-.496-.199-.969-.547-1.32a1.879 1.879 0 00-1.32-.547c-.496 0-.969.199-1.32.547a1.879 1.879 0 00-.547 1.32c0 .496.199.969.547 1.32.351.348.824.547 1.32.547.496 0 .969-.199 1.32-.547.348-.351.547-.824.547-1.32zm13 11c0-.496-.199-.969-.547-1.32a1.879 1.879 0 00-1.32-.547c-.496 0-.969.199-1.32.547a1.879 1.879 0 00-.547 1.32c0 .496.199.969.547 1.32.351.348.824.547 1.32.547.496 0 .969-.199 1.32-.547.348-.351.547-.824.547-1.32zm13 3c0-.496-.199-.969-.547-1.32a1.879 1.879 0 00-1.32-.547c-.496 0-.969.199-1.32.547a1.879 1.879 0 00-.547 1.32c0 .496.199.969.547 1.32.351.348.824.547 1.32.547.496 0 .969-.199 1.32-.547.348-.351.547-.824.547-1.32zm0 0" fill-rule="evenodd" fill="#c05c20"/><path d="M138.867 231c0-.496-.199-.969-.547-1.32a1.879 1.879 0 00-1.32-.547c-.496 0-.969.199-1.32.547a1.879 1.879 0 00-.547 1.32c0 .496.199.969.547 1.32.351.348.824.547 1.32.547.496 0 .969-.199 1.32-.547.348-.351.547-.824.547-1.32zm13-64c0-.496-.199-.969-.547-1.32a1.879 1.879 0 00-1.32-.547c-.496 0-.969.199-1.32.547a1.879 1.879 0 00-.547 1.32c0 .496.199.969.547 1.32.351.348.824.547 1.32.547.496 0 .969-.199 1.32-.547.348-.351.547-.824.547-1.32zm13 2c0-.496-.199-.969-.547-1.32a1.879 1.879 0 00-1.32-.547c-.496 0-.969.199-1.32.547a1.879 1.879 0 00-.547 1.32c0 .496.199.969.547 1.32.351.348.824.547 1.32.547.496 0 .969-.199 1.32-.547.348-.351.547-.824.547-1.32zm13 18c0-.496-.199-.969-.547-1.32a1.879 1.879 0 00-1.32-.547c-.496 0-.969.199-1.32.547a1.879 1.879 0 00-.547 1.32c0 .496.199.969.547 1.32.351.348.824.547 1.32.547.496 0 .969-.199 1.32-.547.348-.351.547-.824.547-1.32zm14-31c0-.496-.199-.969-.547-1.32a1.879 1.879 0 00-1.32-.547c-.496 0-.969.199-1.32.547a1.879 1.879 0 00-.547 1.32c0 .496.199.969.547 1.32.351.348.824.547 1.32.547.496 0 .969-.199 1.32-.547.348-.351.547-.824.547-1.32zm13-5c0-.496-.199-.969-.547-1.32a1.879 1.879 0 00-1.32-.547c-.496 0-.969.199-1.32.547a1.879 1.879 0 00-.547 1.32c0 .496.199.969.547 1.32.351.348.824.547 1.32.547.496 0 .969-.199 1.32-.547.348-.351.547-.824.547-1.32zm13 6c0-.496-.199-.969-.547-1.32a1.879 1.879 0 00-1.32-.547c-.496 0-.969.199-1.32.547a1.879 1.879 0 00-.547 1.32c0 .496.199.969.547 1.32.351.348.824.547 1.32.547.496 0 .969-.199 1.32-.547.348-.351.547-.824.547-1.32zm13-22c0-.496-.199-.969-.547-1.32a1.879 1.879 0 00-1.32-.547c-.496 0-.969.199-1.32.547a1.879 1.879 0 00-.547 1.32c0 .496.199.969.547 1.32.351.348.824.547 1.32.547.496 0 .969-.199 1.32-.547.348-.351.547-.824.547-1.32zm13 4c0-.496-.199-.969-.547-1.32a1.879 1.879 0 00-1.32-.547c-.496 0-.969.199-1.32.547a1.879 1.879 0 00-.547 1.32c0 .496.199.969.547 1.32.351.348.824.547 1.32.547.496 0 .969-.199 1.32-.547.348-.351.547-.824.547-1.32zm13-6c0-.496-.199-.969-.547-1.32a1.879 1.879 0 00-1.32-.547c-.496 0-.969.199-1.32.547a1.879 1.879 0 00-.547 1.32c0 .496.199.969.547 1.32.351.348.824.547 1.32.547.496 0 .969-.199 1.32-.547.348-.351.547-.824.547-1.32zm13-7c0-.496-.199-.969-.547-1.32a1.879 1.879 0 00-1.32-.547c-.496 0-.969.199-1.32.547a1.879 1.879 0 00-.547 1.32c0 .496.199.969.547 1.32.351.348.824.547 1.32.547.496 0 .969-.199 1.32-.547.348-.351.547-.824.547-1.32zm13-4c0-.496-.199-.969-.547-1.32a1.879 1.879 0 00-1.32-.547c-.496 0-.969.199-1.32.547a1.879 1.879 0 00-.547 1.32c0 .496.199.969.547 1.32.351.348.824.547 1.32.547.496 0 .969-.199 1.32-.547.348-.351.547-.824.547-1.32zm13-11c0-.496-.199-.969-.547-1.32a1.879 1.879 0 00-1.32-.547c-.496 0-.969.199-1.32.547a1.879 1.879 0 00-.547 1.32c0 .496.199.969.547 1.32.351.348.824.547 1.32.547.496 0 .969-.199 1.32-.547.348-.351.547-.824.547-1.32zm13 10c0-.496-.199-.969-.547-1.32a1.879 1.879 0 00-1.32-.547c-.496 0-.969.199-1.32.547a1.879 1.879 0 00-.547 1.32c0 .496.199.969.547 1.32.351.348.824.547 1.32.547.496 0 .969-.199 1.32-.547.348-.351.547-.824.547-1.32zm13 2c0-.496-.199-.969-.547-1.32a1.879 1.879 0 00-1.32-.547c-.496 0-.969.199-1.32.547a1.879 1.879 0 00-.547 1.32c0 .496.199.969.547 1.32.351.348.824.547 1.32.547.496 0 .969-.199 1.32-.547.348-.351.547-.824.547-1.32zm13-9c0-.496-.199-.969-.547-1.32a1.879 1.879 0 00-1.32-.547c-.496 0-.969.199-1.32.547a1.879 1.879 0 00-.547 1.32c0 .496.199.969.547 1.32.351.348.824.547 1.32.547.496 0 .969-.199 1.32-.547.348-.351.547-.824.547-1.32zm13 11c0-.496-.199-.969-.547-1.32a1.879 1.879 0 00-1.32-.547c-.496 0-.969.199-1.32.547a1.879 1.879 0 00-.547 1.32c0 .496.199.969.547 1.32.351.348.824.547 1.32.547.496 0 .969-.199 1.32-.547.348-.351.547-.824.547-1.32zm13 0c0-.496-.199-.969-.547-1.32a1.879 1.879 0 00-1.32-.547c-.496 0-.969.199-1.32.547a1.879 1.879 0 00-.547 1.32c0 .496.199.969.547 1.32.351.348.824.547 1.32.547.496 0 .969-.199 1.32-.547.348-.351.547-.824.547-1.32zm0 0" fill-rule="evenodd" fill="#6f42b5"/><path d="M164.867 231c0-.496-.199-.969-.547-1.32a1.879 1.879 0 00-1.32-.547c-.496 0-.969.199-1.32.547a1.879 1.879 0 00-.547 1.32c0 .496.199.969.547 1.32.351.348.824.547 1.32.547.496 0 .969-.199 1.32-.547.348-.351.547-.824.547-1.32zm13-34c0-.496-.199-.969-.547-1.32a1.879 1.879 0 00-1.32-.547c-.496 0-.969.199-1.32.547a1.879 1.879 0 00-.547 1.32c0 .496.199.969.547 1.32.351.348.824.547 1.32.547.496 0 .969-.199 1.32-.547.348-.351.547-.824.547-1.32zm14 0c0-.496-.199-.969-.547-1.32a1.879 1.879 0 00-1.32-.547c-.496 0-.969.199-1.32.547a1.879 1.879 0 00-.547 1.32c0 .496.199.969.547 1.32.351.348.824.547 1.32.547.496 0 .969-.199 1.32-.547.348-.351.547-.824.547-1.32zm13-44c0-.496-.199-.969-.547-1.32a1.879 1.879 0 00-1.32-.547c-.496 0-.969.199-1.32.547a1.879 1.879 0 00-.547 1.32c0 .496.199.969.547 1.32.351.348.824.547 1.32.547.496 0 .969-.199 1.32-.547.348-.351.547-.824.547-1.32zm13-19c0-.496-.199-.969-.547-1.32a1.879 1.879 0 00-1.32-.547c-.496 0-.969.199-1.32.547a1.879 1.879 0 00-.547 1.32c0 .496.199.969.547 1.32.351.348.824.547 1.32.547.496 0 .969-.199 1.32-.547.348-.351.547-.824.547-1.32zm13 3c0-.496-.199-.969-.547-1.32a1.879 1.879 0 00-1.32-.547c-.496 0-.969.199-1.32.547a1.879 1.879 0 00-.547 1.32c0 .496.199.969.547 1.32.351.348.824.547 1.32.547.496 0 .969-.199 1.32-.547.348-.351.547-.824.547-1.32zm13 3c0-.496-.199-.969-.547-1.32a1.879 1.879 0 00-1.32-.547c-.496 0-.969.199-1.32.547a1.879 1.879 0 00-.547 1.32c0 .496.199.969.547 1.32.351.348.824.547 1.32.547.496 0 .969-.199 1.32-.547.348-.351.547-.824.547-1.32zm13 1c0-.496-.199-.969-.547-1.32a1.879 1.879 0 00-1.32-.547c-.496 0-.969.199-1.32.547a1.879 1.879 0 00-.547 1.32c0 .496.199.969.547 1.32.351.348.824.547 1.32.547.496 0 .969-.199 1.32-.547.348-.351.547-.824.547-1.32zm13-16c0-.496-.199-.969-.547-1.32a1.879 1.879 0 00-1.32-.547c-.496 0-.969.199-1.32.547a1.879 1.879 0 00-.547 1.32c0 .496.199.969.547 1.32.351.348.824.547 1.32.547.496 0 .969-.199 1.32-.547.348-.351.547-.824.547-1.32zm13 0c0-.496-.199-.969-.547-1.32a1.879 1.879 0 00-1.32-.547c-.496 0-.969.199-1.32.547a1.879 1.879 0 00-.547 1.32c0 .496.199.969.547 1.32.351.348.824.547 1.32.547.496 0 .969-.199 1.32-.547.348-.351.547-.824.547-1.32zm13 1c0-.496-.199-.969-.547-1.32a1.879 1.879 0 00-1.32-.547c-.496 0-.969.199-1.32.547a1.879 1.879 0 00-.547 1.32c0 .496.199.969.547 1.32.351.348.824.547 1.32.547.496 0 .969-.199 1.32-.547.348-.351.547-.824.547-1.32zm13 0c0-.496-.199-.969-.547-1.32a1.879 1.879 0 00-1.32-.547c-.496 0-.969.199-1.32.547a1.879 1.879 0 00-.547 1.32c0 .496.199.969.547 1.32.351.348.824.547 1.32.547.496 0 .969-.199 1.32-.547.348-.351.547-.824.547-1.32zm13-1c0-.496-.199-.969-.547-1.32a1.879 1.879 0 00-1.32-.547c-.496 0-.969.199-1.32.547a1.879 1.879 0 00-.547 1.32c0 .496.199.969.547 1.32.351.348.824.547 1.32.547.496 0 .969-.199 1.32-.547.348-.351.547-.824.547-1.32zm13-10c0-.496-.199-.969-.547-1.32a1.879 1.879 0 00-1.32-.547c-.496 0-.969.199-1.32.547a1.879 1.879 0 00-.547 1.32c0 .496.199.969.547 1.32.351.348.824.547 1.32.547.496 0 .969-.199 1.32-.547.348-.351.547-.824.547-1.32zm13 5c0-.496-.199-.969-.547-1.32a1.879 1.879 0 00-1.32-.547c-.496 0-.969.199-1.32.547a1.879 1.879 0 00-.547 1.32c0 .496.199.969.547 1.32.351.348.824.547 1.32.547.496 0 .969-.199 1.32-.547.348-.351.547-.824.547-1.32zm13 1c0-.496-.199-.969-.547-1.32a1.879 1.879 0 00-1.32-.547c-.496 0-.969.199-1.32.547a1.879 1.879 0 00-.547 1.32c0 .496.199.969.547 1.32.351.348.824.547 1.32.547.496 0 .969-.199 1.32-.547.348-.351.547-.824.547-1.32zm0 0" fill-rule="evenodd" fill="#769003"/><path d="M164.867 231c0-.496-.199-.969-.547-1.32a1.879 1.879 0 00-1.32-.547c-.496 0-.969.199-1.32.547a1.879 1.879 0 00-.547 1.32c0 .496.199.969.547 1.32.351.348.824.547 1.32.547.496 0 .969-.199 1.32-.547.348-.351.547-.824.547-1.32zm13-52c0-.496-.199-.969-.547-1.32a1.879 1.879 0 00-1.32-.547c-.496 0-.969.199-1.32.547a1.879 1.879 0 00-.547 1.32c0 .496.199.969.547 1.32.351.348.824.547 1.32.547.496 0 .969-.199 1.32-.547.348-.351.547-.824.547-1.32zm14-15c0-.496-.199-.969-.547-1.32a1.879 1.879 0 00-1.32-.547c-.496 0-.969.199-1.32.547a1.879 1.879 0 00-.547 1.32c0 .496.199.969.547 1.32.351.348.824.547 1.32.547.496 0 .969-.199 1.32-.547.348-.351.547-.824.547-1.32zm13-6c0-.496-.199-.969-.547-1.32a1.879 1.879 0 00-1.32-.547c-.496 0-.969.199-1.32.547a1.879 1.879 0 00-.547 1.32c0 .496.199.969.547 1.32.351.348.824.547 1.32.547.496 0 .969-.199 1.32-.547.348-.351.547-.824.547-1.32zm13-8c0-.496-.199-.969-.547-1.32a1.879 1.879 0 00-1.32-.547c-.496 0-.969.199-1.32.547a1.879 1.879 0 00-.547 1.32c0 .496.199.969.547 1.32.351.348.824.547 1.32.547.496 0 .969-.199 1.32-.547.348-.351.547-.824.547-1.32zm13-4c0-.496-.199-.969-.547-1.32a1.879 1.879 0 00-1.32-.547c-.496 0-.969.199-1.32.547a1.879 1.879 0 00-.547 1.32c0 .496.199.969.547 1.32.351.348.824.547 1.32.547.496 0 .969-.199 1.32-.547.348-.351.547-.824.547-1.32zm13-8c0-.496-.199-.969-.547-1.32a1.879 1.879 0 00-1.32-.547c-.496 0-.969.199-1.32.547a1.879 1.879 0 00-.547 1.32c0 .496.199.969.547 1.32.351.348.824.547 1.32.547.496 0 .969-.199 1.32-.547.348-.351.547-.824.547-1.32zm13-15c0-.496-.199-.969-.547-1.32a1.879 1.879 0 00-1.32-.547c-.496 0-.969.199-1.32.547a1.879 1.879 0 00-.547 1.32c0 .496.199.969.547 1.32.351.348.824.547 1.32.547.496 0 .969-.199 1.32-.547.348-.351.547-.824.547-1.32zm13 8c0-.496-.199-.969-.547-1.32a1.879 1.879 0 00-1.32-.547c-.496 0-.969.199-1.32.547a1.879 1.879 0 00-.547 1.32c0 .496.199.969.547 1.32.351.348.824.547 1.32.547.496 0 .969-.199 1.32-.547.348-.351.547-.824.547-1.32zm13 1c0-.496-.199-.969-.547-1.32a1.879 1.879 0 00-1.32-.547c-.496 0-.969.199-1.32.547a1.879 1.879 0 00-.547 1.32c0 .496.199.969.547 1.32.351.348.824.547 1.32.547.496 0 .969-.199 1.32-.547.348-.351.547-.824.547-1.32zm13-1c0-.496-.199-.969-.547-1.32a1.879 1.879 0 00-1.32-.547c-.496 0-.969.199-1.32.547a1.879 1.879 0 00-.547 1.32c0 .496.199.969.547 1.32.351.348.824.547 1.32.547.496 0 .969-.199 1.32-.547.348-.351.547-.824.547-1.32zm13-6c0-.496-.199-.969-.547-1.32a1.879 1.879 0 00-1.32-.547c-.496 0-.969.199-1.32.547a1.879 1.879 0 00-.547 1.32c0 .496.199.969.547 1.32.351.348.824.547 1.32.547.496 0 .969-.199 1.32-.547.348-.351.547-.824.547-1.32zm13 6c0-.496-.199-.969-.547-1.32a1.879 1.879 0 00-1.32-.547c-.496 0-.969.199-1.32.547a1.879 1.879 0 00-.547 1.32c0 .496.199.969.547 1.32.351.348.824.547 1.32.547.496 0 .969-.199 1.32-.547.348-.351.547-.824.547-1.32zm13-6c0-.496-.199-.969-.547-1.32a1.879 1.879 0 00-1.32-.547c-.496 0-.969.199-1.32.547a1.879 1.879 0 00-.547 1.32c0 .496.199.969.547 1.32.351.348.824.547 1.32.547.496 0 .969-.199 1.32-.547.348-.351.547-.824.547-1.32zm13 2c0-.496-.199-.969-.547-1.32a1.879 1.879 0 00-1.32-.547c-.496 0-.969.199-1.32.547a1.879 1.879 0 00-.547 1.32c0 .496.199.969.547 1.32.351.348.824.547 1.32.547.496 0 .969-.199 1.32-.547.348-.351.547-.824.547-1.32zm13 7c0-.496-.199-.969-.547-1.32a1.879 1.879 0 00-1.32-.547c-.496 0-.969.199-1.32.547a1.879 1.879 0 00-.547 1.32c0 .496.199.969.547 1.32.351.348.824.547 1.32.547.496 0 .969-.199 1.32-.547.348-.351.547-.824.547-1.32zm0 0" fill-rule="evenodd" fill="#a8364d"/><path d="M164.867 214c0-.496-.199-.969-.547-1.32a1.879 1.879 0 00-1.32-.547c-.496 0-.969.199-1.32.547a1.879 1.879 0 00-.547 1.32c0 .496.199.969.547 1.32.351.348.824.547 1.32.547.496 0 .969-.199 1.32-.547.348-.351.547-.824.547-1.32zm13 17c0-.496-.199-.969-.547-1.32a1.879 1.879 0 00-1.32-.547c-.496 0-.969.199-1.32.547a1.879 1.879 0 00-.547 1.32c0 .496.199.969.547 1.32.351.348.824.547 1.32.547.496 0 .969-.199 1.32-.547.348-.351.547-.824.547-1.32zm14-34c0-.496-.199-.969-.547-1.32a1.879 1.879 0 00-1.32-.547c-.496 0-.969.199-1.32.547a1.879 1.879 0 00-.547 1.32c0 .496.199.969.547 1.32.351.348.824.547 1.32.547.496 0 .969-.199 1.32-.547.348-.351.547-.824.547-1.32zm13-25c0-.496-.199-.969-.547-1.32a1.879 1.879 0 00-1.32-.547c-.496 0-.969.199-1.32.547a1.879 1.879 0 00-.547 1.32c0 .496.199.969.547 1.32.351.348.824.547 1.32.547.496 0 .969-.199 1.32-.547.348-.351.547-.824.547-1.32zm13-13c0-.496-.199-.969-.547-1.32a1.879 1.879 0 00-1.32-.547c-.496 0-.969.199-1.32.547a1.879 1.879 0 00-.547 1.32c0 .496.199.969.547 1.32.351.348.824.547 1.32.547.496 0 .969-.199 1.32-.547.348-.351.547-.824.547-1.32zm13 10c0-.496-.199-.969-.547-1.32a1.879 1.879 0 00-1.32-.547c-.496 0-.969.199-1.32.547a1.879 1.879 0 00-.547 1.32c0 .496.199.969.547 1.32.351.348.824.547 1.32.547.496 0 .969-.199 1.32-.547.348-.351.547-.824.547-1.32zm13-17c0-.496-.199-.969-.547-1.32a1.879 1.879 0 00-1.32-.547c-.496 0-.969.199-1.32.547a1.879 1.879 0 00-.547 1.32c0 .496.199.969.547 1.32.351.348.824.547 1.32.547.496 0 .969-.199 1.32-.547.348-.351.547-.824.547-1.32zm13-10c0-.496-.199-.969-.547-1.32a1.879 1.879 0 00-1.32-.547c-.496 0-.969.199-1.32.547a1.879 1.879 0 00-.547 1.32c0 .496.199.969.547 1.32.351.348.824.547 1.32.547.496 0 .969-.199 1.32-.547.348-.351.547-.824.547-1.32zm13-9c0-.496-.199-.969-.547-1.32a1.879 1.879 0 00-1.32-.547c-.496 0-.969.199-1.32.547a1.879 1.879 0 00-.547 1.32c0 .496.199.969.547 1.32.351.348.824.547 1.32.547.496 0 .969-.199 1.32-.547.348-.351.547-.824.547-1.32zm13-9c0-.496-.199-.969-.547-1.32a1.879 1.879 0 00-1.32-.547c-.496 0-.969.199-1.32.547a1.879 1.879 0 00-.547 1.32c0 .496.199.969.547 1.32.351.348.824.547 1.32.547.496 0 .969-.199 1.32-.547.348-.351.547-.824.547-1.32zm13 12c0-.496-.199-.969-.547-1.32a1.879 1.879 0 00-1.32-.547c-.496 0-.969.199-1.32.547a1.879 1.879 0 00-.547 1.32c0 .496.199.969.547 1.32.351.348.824.547 1.32.547.496 0 .969-.199 1.32-.547.348-.351.547-.824.547-1.32zm13 0c0-.496-.199-.969-.547-1.32a1.879 1.879 0 00-1.32-.547c-.496 0-.969.199-1.32.547a1.879 1.879 0 00-.547 1.32c0 .496.199.969.547 1.32.351.348.824.547 1.32.547.496 0 .969-.199 1.32-.547.348-.351.547-.824.547-1.32zm13-6c0-.496-.199-.969-.547-1.32a1.879 1.879 0 00-1.32-.547c-.496 0-.969.199-1.32.547a1.879 1.879 0 00-.547 1.32c0 .496.199.969.547 1.32.351.348.824.547 1.32.547.496 0 .969-.199 1.32-.547.348-.351.547-.824.547-1.32zm13-9c0-.496-.199-.969-.547-1.32a1.879 1.879 0 00-1.32-.547c-.496 0-.969.199-1.32.547a1.879 1.879 0 00-.547 1.32c0 .496.199.969.547 1.32.351.348.824.547 1.32.547.496 0 .969-.199 1.32-.547.348-.351.547-.824.547-1.32zm13 4c0-.496-.199-.969-.547-1.32a1.879 1.879 0 00-1.32-.547c-.496 0-.969.199-1.32.547a1.879 1.879 0 00-.547 1.32c0 .496.199.969.547 1.32.351.348.824.547 1.32.547.496 0 .969-.199 1.32-.547.348-.351.547-.824.547-1.32zm13 8c0-.496-.199-.969-.547-1.32a1.879 1.879 0 00-1.32-.547c-.496 0-.969.199-1.32.547a1.879 1.879 0 00-.547 1.32c0 .496.199.969.547 1.32.351.348.824.547 1.32.547.496 0 .969-.199 1.32-.547.348-.351.547-.824.547-1.32zm0 0" fill-rule="evenodd" fill="#3664cc"/><path d="M177.867 231c0-.496-.199-.969-.547-1.32a1.879 1.879 0 00-1.32-.547c-.496 0-.969.199-1.32.547a1.879 1.879 0 00-.547 1.32c0 .496.199.969.547 1.32.351.348.824.547 1.32.547.496 0 .969-.199 1.32-.547.348-.351.547-.824.547-1.32zm14-65c0-.496-.199-.969-.547-1.32a1.879 1.879 0 00-1.32-.547c-.496 0-.969.199-1.32.547a1.879 1.879 0 00-.547 1.32c0 .496.199.969.547 1.32.351.348.824.547 1.32.547.496 0 .969-.199 1.32-.547.348-.351.547-.824.547-1.32zm13-14c0-.496-.199-.969-.547-1.32a1.879 1.879 0 00-1.32-.547c-.496 0-.969.199-1.32.547a1.879 1.879 0 00-.547 1.32c0 .496.199.969.547 1.32.351.348.824.547 1.32.547.496 0 .969-.199 1.32-.547.348-.351.547-.824.547-1.32zm13 4c0-.496-.199-.969-.547-1.32a1.879 1.879 0 00-1.32-.547c-.496 0-.969.199-1.32.547a1.879 1.879 0 00-.547 1.32c0 .496.199.969.547 1.32.351.348.824.547 1.32.547.496 0 .969-.199 1.32-.547.348-.351.547-.824.547-1.32zm13 18c0-.496-.199-.969-.547-1.32a1.879 1.879 0 00-1.32-.547c-.496 0-.969.199-1.32.547a1.879 1.879 0 00-.547 1.32c0 .496.199.969.547 1.32.351.348.824.547 1.32.547.496 0 .969-.199 1.32-.547.348-.351.547-.824.547-1.32zm13-32c0-.496-.199-.969-.547-1.32a1.879 1.879 0 00-1.32-.547c-.496 0-.969.199-1.32.547a1.879 1.879 0 00-.547 1.32c0 .496.199.969.547 1.32.351.348.824.547 1.32.547.496 0 .969-.199 1.32-.547.348-.351.547-.824.547-1.32zm13-6c0-.496-.199-.969-.547-1.32a1.879 1.879 0 00-1.32-.547c-.496 0-.969.199-1.32.547a1.879 1.879 0 00-.547 1.32c0 .496.199.969.547 1.32.351.348.824.547 1.32.547.496 0 .969-.199 1.32-.547.348-.351.547-.824.547-1.32zm13-1c0-.496-.199-.969-.547-1.32a1.879 1.879 0 00-1.32-.547c-.496 0-.969.199-1.32.547a1.879 1.879 0 00-.547 1.32c0 .496.199.969.547 1.32.351.348.824.547 1.32.547.496 0 .969-.199 1.32-.547.348-.351.547-.824.547-1.32zm13 7c0-.496-.199-.969-.547-1.32a1.879 1.879 0 00-1.32-.547c-.496 0-.969.199-1.32.547a1.879 1.879 0 00-.547 1.32c0 .496.199.969.547 1.32.351.348.824.547 1.32.547.496 0 .969-.199 1.32-.547.348-.351.547-.824.547-1.32zm13-12c0-.496-.199-.969-.547-1.32a1.879 1.879 0 00-1.32-.547c-.496 0-.969.199-1.32.547a1.879 1.879 0 00-.547 1.32c0 .496.199.969.547 1.32.351.348.824.547 1.32.547.496 0 .969-.199 1.32-.547.348-.351.547-.824.547-1.32zm13 8c0-.496-.199-.969-.547-1.32a1.879 1.879 0 00-1.32-.547c-.496 0-.969.199-1.32.547a1.879 1.879 0 00-.547 1.32c0 .496.199.969.547 1.32.351.348.824.547 1.32.547.496 0 .969-.199 1.32-.547.348-.351.547-.824.547-1.32zm13-11c0-.496-.199-.969-.547-1.32a1.879 1.879 0 00-1.32-.547c-.496 0-.969.199-1.32.547a1.879 1.879 0 00-.547 1.32c0 .496.199.969.547 1.32.351.348.824.547 1.32.547.496 0 .969-.199 1.32-.547.348-.351.547-.824.547-1.32zm13-2c0-.496-.199-.969-.547-1.32a1.879 1.879 0 00-1.32-.547c-.496 0-.969.199-1.32.547a1.879 1.879 0 00-.547 1.32c0 .496.199.969.547 1.32.351.348.824.547 1.32.547.496 0 .969-.199 1.32-.547.348-.351.547-.824.547-1.32zm13 9c0-.496-.199-.969-.547-1.32a1.879 1.879 0 00-1.32-.547c-.496 0-.969.199-1.32.547a1.879 1.879 0 00-.547 1.32c0 .496.199.969.547 1.32.351.348.824.547 1.32.547.496 0 .969-.199 1.32-.547.348-.351.547-.824.547-1.32zm13-5c0-.496-.199-.969-.547-1.32a1.879 1.879 0 00-1.32-.547c-.496 0-.969.199-1.32.547a1.879 1.879 0 00-.547 1.32c0 .496.199.969.547 1.32.351.348.824.547 1.32.547.496 0 .969-.199 1.32-.547.348-.351.547-.824.547-1.32zm0 0" fill-rule="evenodd" fill="#c8860a"/><path d="M164.867 191c0-.496-.199-.969-.547-1.32a1.879 1.879 0 00-1.32-.547c-.496 0-.969.199-1.32.547a1.879 1.879 0 00-.547 1.32c0 .496.199.969.547 1.32.351.348.824.547 1.32.547.496 0 .969-.199 1.32-.547.348-.351.547-.824.547-1.32zm13 6c0-.496-.199-.969-.547-1.32a1.879 1.879 0 00-1.32-.547c-.496 0-.969.199-1.32.547a1.879 1.879 0 00-.547 1.32c0 .496.199.969.547 1.32.351.348.824.547 1.32.547.496 0 .969-.199 1.32-.547.348-.351.547-.824.547-1.32zm14-38c0-.496-.199-.969-.547-1.32a1.879 1.879 0 00-1.32-.547c-.496 0-.969.199-1.32.547a1.879 1.879 0 00-.547 1.32c0 .496.199.969.547 1.32.351.348.824.547 1.32.547.496 0 .969-.199 1.32-.547.348-.351.547-.824.547-1.32zm13-12c0-.496-.199-.969-.547-1.32a1.879 1.879 0 00-1.32-.547c-.496 0-.969.199-1.32.547a1.879 1.879 0 00-.547 1.32c0 .496.199.969.547 1.32.351.348.824.547 1.32.547.496 0 .969-.199 1.32-.547.348-.351.547-.824.547-1.32zm13 12c0-.496-.199-.969-.547-1.32a1.879 1.879 0 00-1.32-.547c-.496 0-.969.199-1.32.547a1.879 1.879 0 00-.547 1.32c0 .496.199.969.547 1.32.351.348.824.547 1.32.547.496 0 .969-.199 1.32-.547.348-.351.547-.824.547-1.32zm13-16c0-.496-.199-.969-.547-1.32a1.879 1.879 0 00-1.32-.547c-.496 0-.969.199-1.32.547a1.879 1.879 0 00-.547 1.32c0 .496.199.969.547 1.32.351.348.824.547 1.32.547.496 0 .969-.199 1.32-.547.348-.351.547-.824.547-1.32zm13 11c0-.496-.199-.969-.547-1.32a1.879 1.879 0 00-1.32-.547c-.496 0-.969.199-1.32.547a1.879 1.879 0 00-.547 1.32c0 .496.199.969.547 1.32.351.348.824.547 1.32.547.496 0 .969-.199 1.32-.547.348-.351.547-.824.547-1.32zm13 10c0-.496-.199-.969-.547-1.32a1.879 1.879 0 00-1.32-.547c-.496 0-.969.199-1.32.547a1.879 1.879 0 00-.547 1.32c0 .496.199.969.547 1.32.351.348.824.547 1.32.547.496 0 .969-.199 1.32-.547.348-.351.547-.824.547-1.32zm13-5c0-.496-.199-.969-.547-1.32a1.879 1.879 0 00-1.32-.547c-.496 0-.969.199-1.32.547a1.879 1.879 0 00-.547 1.32c0 .496.199.969.547 1.32.351.348.824.547 1.32.547.496 0 .969-.199 1.32-.547.348-.351.547-.824.547-1.32zm13-20c0-.496-.199-.969-.547-1.32a1.879 1.879 0 00-1.32-.547c-.496 0-.969.199-1.32.547a1.879 1.879 0 00-.547 1.32c0 .496.199.969.547 1.32.351.348.824.547 1.32.547.496 0 .969-.199 1.32-.547.348-.351.547-.824.547-1.32zm13 6c0-.496-.199-.969-.547-1.32a1.879 1.879 0 00-1.32-.547c-.496 0-.969.199-1.32.547a1.879 1.879 0 00-.547 1.32c0 .496.199.969.547 1.32.351.348.824.547 1.32.547.496 0 .969-.199 1.32-.547.348-.351.547-.824.547-1.32zm13 7c0-.496-.199-.969-.547-1.32a1.879 1.879 0 00-1.32-.547c-.496 0-.969.199-1.32.547a1.879 1.879 0 00-.547 1.32c0 .496.199.969.547 1.32.351.348.824.547 1.32.547.496 0 .969-.199 1.32-.547.348-.351.547-.824.547-1.32zm13-11c0-.496-.199-.969-.547-1.32a1.879 1.879 0 00-1.32-.547c-.496 0-.969.199-1.32.547a1.879 1.879 0 00-.547 1.32c0 .496.199.969.547 1.32.351.348.824.547 1.32.547.496 0 .969-.199 1.32-.547.348-.351.547-.824.547-1.32zm13 1c0-.496-.199-.969-.547-1.32a1.879 1.879 0 00-1.32-.547c-.496 0-.969.199-1.32.547a1.879 1.879 0 00-.547 1.32c0 .496.199.969.547 1.32.351.348.824.547 1.32.547.496 0 .969-.199 1.32-.547.348-.351.547-.824.547-1.32zm13 6c0-.496-.199-.969-.547-1.32a1.879 1.879 0 00-1.32-.547c-.496 0-.969.199-1.32.547a1.879 1.879 0 00-.547 1.32c0 .496.199.969.547 1.32.351.348.824.547 1.32.547.496 0 .969-.199 1.32-.547.348-.351.547-.824.547-1.32zm13 5c0-.496-.199-.969-.547-1.32a1.879 1.879 0 00-1.32-.547c-.496 0-.969.199-1.32.547a1.879 1.879 0 00-.547 1.32c0 .496.199.969.547 1.32.351.348.824.547 1.32.547.496 0 .969-.199 1.32-.547.348-.351.547-.824.547-1.32zm0 0" fill-rule="evenodd" fill="#833987"/><path d="M177.867 231c0-.496-.199-.969-.547-1.32a1.879 1.879 0 00-1.32-.547c-.496 0-.969.199-1.32.547a1.879 1.879 0 00-.547 1.32c0 .496.199.969.547 1.32.351.348.824.547 1.32.547.496 0 .969-.199 1.32-.547.348-.351.547-.824.547-1.32zm14-52c0-.496-.199-.969-.547-1.32a1.879 1.879 0 00-1.32-.547c-.496 0-.969.199-1.32.547a1.879 1.879 0 00-.547 1.32c0 .496.199.969.547 1.32.351.348.824.547 1.32.547.496 0 .969-.199 1.32-.547.348-.351.547-.824.547-1.32zm13-2c0-.496-.199-.969-.547-1.32a1.879 1.879 0 00-1.32-.547c-.496 0-.969.199-1.32.547a1.879 1.879 0 00-.547 1.32c0 .496.199.969.547 1.32.351.348.824.547 1.32.547.496 0 .969-.199 1.32-.547.348-.351.547-.824.547-1.32zm13-10c0-.496-.199-.969-.547-1.32a1.879 1.879 0 00-1.32-.547c-.496 0-.969.199-1.32.547a1.879 1.879 0 00-.547 1.32c0 .496.199.969.547 1.32.351.348.824.547 1.32.547.496 0 .969-.199 1.32-.547.348-.351.547-.824.547-1.32zm13-5c0-.496-.199-.969-.547-1.32a1.879 1.879 0 00-1.32-.547c-.496 0-.969.199-1.32.547a1.879 1.879 0 00-.547 1.32c0 .496.199.969.547 1.32.351.348.824.547 1.32.547.496 0 .969-.199 1.32-.547.348-.351.547-.824.547-1.32zm13-9c0-.496-.199-.969-.547-1.32a1.879 1.879 0 00-1.32-.547c-.496 0-.969.199-1.32.547a1.879 1.879 0 00-.547 1.32c0 .496.199.969.547 1.32.351.348.824.547 1.32.547.496 0 .969-.199 1.32-.547.348-.351.547-.824.547-1.32zm13-5c0-.496-.199-.969-.547-1.32a1.879 1.879 0 00-1.32-.547c-.496 0-.969.199-1.32.547a1.879 1.879 0 00-.547 1.32c0 .496.199.969.547 1.32.351.348.824.547 1.32.547.496 0 .969-.199 1.32-.547.348-.351.547-.824.547-1.32zm13-1c0-.496-.199-.969-.547-1.32a1.879 1.879 0 00-1.32-.547c-.496 0-.969.199-1.32.547a1.879 1.879 0 00-.547 1.32c0 .496.199.969.547 1.32.351.348.824.547 1.32.547.496 0 .969-.199 1.32-.547.348-.351.547-.824.547-1.32zm13-7c0-.496-.199-.969-.547-1.32a1.879 1.879 0 00-1.32-.547c-.496 0-.969.199-1.32.547a1.879 1.879 0 00-.547 1.32c0 .496.199.969.547 1.32.351.348.824.547 1.32.547.496 0 .969-.199 1.32-.547.348-.351.547-.824.547-1.32zm13 4c0-.496-.199-.969-.547-1.32a1.879 1.879 0 00-1.32-.547c-.496 0-.969.199-1.32.547a1.879 1.879 0 00-.547 1.32c0 .496.199.969.547 1.32.351.348.824.547 1.32.547.496 0 .969-.199 1.32-.547.348-.351.547-.824.547-1.32zm13 0c0-.496-.199-.969-.547-1.32a1.879 1.879 0 00-1.32-.547c-.496 0-.969.199-1.32.547a1.879 1.879 0 00-.547 1.32c0 .496.199.969.547 1.32.351.348.824.547 1.32.547.496 0 .969-.199 1.32-.547.348-.351.547-.824.547-1.32zm13-1c0-.496-.199-.969-.547-1.32a1.879 1.879 0 00-1.32-.547c-.496 0-.969.199-1.32.547a1.879 1.879 0 00-.547 1.32c0 .496.199.969.547 1.32.351.348.824.547 1.32.547.496 0 .969-.199 1.32-.547.348-.351.547-.824.547-1.32zm13-1c0-.496-.199-.969-.547-1.32a1.879 1.879 0 00-1.32-.547c-.496 0-.969.199-1.32.547a1.879 1.879 0 00-.547 1.32c0 .496.199.969.547 1.32.351.348.824.547 1.32.547.496 0 .969-.199 1.32-.547.348-.351.547-.824.547-1.32zm13 2c0-.496-.199-.969-.547-1.32a1.879 1.879 0 00-1.32-.547c-.496 0-.969.199-1.32.547a1.879 1.879 0 00-.547 1.32c0 .496.199.969.547 1.32.351.348.824.547 1.32.547.496 0 .969-.199 1.32-.547.348-.351.547-.824.547-1.32zm13 1c0-.496-.199-.969-.547-1.32a1.879 1.879 0 00-1.32-.547c-.496 0-.969.199-1.32.547a1.879 1.879 0 00-.547 1.32c0 .496.199.969.547 1.32.351.348.824.547 1.32.547.496 0 .969-.199 1.32-.547.348-.351.547-.824.547-1.32zm0 0" fill-rule="evenodd" fill="#1c8f6b"/><path d="M164.867 231c0-.496-.199-.969-.547-1.32a1.879 1.879 0 00-1.32-.547c-.496 0-.969.199-1.32.547a1.879 1.879 0 00-.547 1.32c0 .496.199.969.547 1.32.351.348.824.547 1.32.547.496 0 .969-.199 1.32-.547.348-.351.547-.824.547-1.32zm13-40c0-.496-.199-.969-.547-1.32a1.879 1.879 0 00-1.32-.547c-.496 0-.969.199-1.32.547a1.879 1.879 0 00-.547 1.32c0 .496.199.969.547 1.32.351.348.824.547 1.32.547.496 0 .969-.199 1.32-.547.348-.351.547-.824.547-1.32zm14 13c0-.496-.199-.969-.547-1.32a1.879 1.879 0 00-1.32-.547c-.496 0-.969.199-1.32.547a1.879 1.879 0 00-.547 1.32c0 .496.199.969.547 1.32.351.348.824.547 1.32.547.496 0 .969-.199 1.32-.547.348-.351.547-.824.547-1.32zm13-35c0-.496-.199-.969-.547-1.32a1.879 1.879 0 00-1.32-.547c-.496 0-.969.199-1.32.547a1.879 1.879 0 00-.547 1.32c0 .496.199.969.547 1.32.351.348.824.547 1.32.547.496 0 .969-.199 1.32-.547.348-.351.547-.824.547-1.32zm13-10c0-.496-.199-.969-.547-1.32a1.879 1.879 0 00-1.32-.547c-.496 0-.969.199-1.32.547a1.879 1.879 0 00-.547 1.32c0 .496.199.969.547 1.32.351.348.824.547 1.32.547.496 0 .969-.199 1.32-.547.348-.351.547-.824.547-1.32zm13-7c0-.496-.199-.969-.547-1.32a1.879 1.879 0 00-1.32-.547c-.496 0-.969.199-1.32.547a1.879 1.879 0 00-.547 1.32c0 .496.199.969.547 1.32.351.348.824.547 1.32.547.496 0 .969-.199 1.32-.547.348-.351.547-.824.547-1.32zm13 0c0-.496-.199-.969-.547-1.32a1.879 1.879 0 00-1.32-.547c-.496 0-.969.199-1.32.547a1.879 1.879 0 00-.547 1.32c0 .496.199.969.547 1.32.351.348.824.547 1.32.547.496 0 .969-.199 1.32-.547.348-.351.547-.824.547-1.32zm13-8c0-.496-.199-.969-.547-1.32a1.879 1.879 0 00-1.32-.547c-.496 0-.969.199-1.32.547a1.879 1.879 0 00-.547 1.32c0 .496.199.969.547 1.32.351.348.824.547 1.32.547.496 0 .969-.199 1.32-.547.348-.351.547-.824.547-1.32zm13 8c0-.496-.199-.969-.547-1.32a1.879 1.879 0 00-1.32-.547c-.496 0-.969.199-1.32.547a1.879 1.879 0 00-.547 1.32c0 .496.199.969.547 1.32.351.348.824.547 1.32.547.496 0 .969-.199 1.32-.547.348-.351.547-.824.547-1.32zm13-8c0-.496-.199-.969-.547-1.32a1.879 1.879 0 00-1.32-.547c-.496 0-.969.199-1.32.547a1.879 1.879 0 00-.547 1.32c0 .496.199.969.547 1.32.351.348.824.547 1.32.547.496 0 .969-.199 1.32-.547.348-.351.547-.824.547-1.32zm13 8c0-.496-.199-.969-.547-1.32a1.879 1.879 0 00-1.32-.547c-.496 0-.969.199-1.32.547a1.879 1.879 0 00-.547 1.32c0 .496.199.969.547 1.32.351.348.824.547 1.32.547.496 0 .969-.199 1.32-.547.348-.351.547-.824.547-1.32zm13 1c0-.496-.199-.969-.547-1.32a1.879 1.879 0 00-1.32-.547c-.496 0-.969.199-1.32.547a1.879 1.879 0 00-.547 1.32c0 .496.199.969.547 1.32.351.348.824.547 1.32.547.496 0 .969-.199 1.32-.547.348-.351.547-.824.547-1.32zm13 3c0-.496-.199-.969-.547-1.32a1.879 1.879 0 00-1.32-.547c-.496 0-.969.199-1.32.547a1.879 1.879 0 00-.547 1.32c0 .496.199.969.547 1.32.351.348.824.547 1.32.547.496 0 .969-.199 1.32-.547.348-.351.547-.824.547-1.32zm13-4c0-.496-.199-.969-.547-1.32a1.879 1.879 0 00-1.32-.547c-.496 0-.969.199-1.32.547a1.879 1.879 0 00-.547 1.32c0 .496.199.969.547 1.32.351.348.824.547 1.32.547.496 0 .969-.199 1.32-.547.348-.351.547-.824.547-1.32zm13-3c0-.496-.199-.969-.547-1.32a1.879 1.879 0 00-1.32-.547c-.496 0-.969.199-1.32.547a1.879 1.879 0 00-.547 1.32c0 .496.199.969.547 1.32.351.348.824.547 1.32.547.496 0 .969-.199 1.32-.547.348-.351.547-.824.547-1.32zm13-12c0-.496-.199-.969-.547-1.32a1.879 1.879 0 00-1.32-.547c-.496 0-.969.199-1.32.547a1.879 1.879 0 00-.547 1.32c0 .496.199.969.547 1.32.351.348.824.547 1.32.547.496 0 .969-.199 1.32-.547.348-.351.547-.824.547-1.32zm0 0" fill-rule="evenodd" fill="#a54f05"/><path d="M432.2 23.766h4.687l.218-.004.27-.012.332-.031.402-.047.489-.078.582-.106.687-.144.805-.192.937-.234 1.075-.293 1.222-.352 1.367-.406 1.485-.457 1.57-.488 1.633-.512 1.668-.527 1.672-.524 1.652-.515 1.606-.496 1.53-.461 1.427-.414 1.296-.364 1.157-.3 1.031-.247.914-.195.82-.152.735-.113.668-.082.613-.051.578-.031.555-.016.547-.008h5.043" fill="none" stroke-width="4" stroke-linejoin="round" stroke="#fff" stroke-opacity=".667" stroke-miterlimit="3.25"/><path d="M432.2 23.766h4.687l.218-.004.27-.012.332-.031.402-.047.489-.078.582-.106.687-.144.805-.192.937-.234 1.075-.293 1.222-.352 1.367-.406 1.485-.457 1.57-.488 1.633-.512 1.668-.527 1.672-.524 1.652-.515 1.606-.496 1.53-.461 1.427-.414 1.296-.364 1.157-.3 1.031-.247.914-.195.82-.152.735-.113.668-.082.613-.051.578-.031.555-.016.547-.008h5.043" fill="none" stroke-width="1.25" stroke-linecap="square" stroke="#aaa" stroke-miterlimit="3.25"/><path d="M498.473 8.414v15h-25v-15zm0 0" fill="#fff" fill-opacity=".667"/><use xlink:href="#a" x="475.973" y="18.414"/><use xlink:href="#b" x="485.973" y="18.414"/><path d="M432.2 25.566h4.687l.218.008.27.02.332.047.402.078.489.117.582.172.687.226.805.297.937.375 1.075.461 1.222.559 1.367.644 1.485.72 1.57.773 1.633.808 1.668.832 1.672.828 1.652.817 1.606.78 1.53.727 1.427.66 1.296.57 1.157.477 1.031.391.914.309.82.242.735.176.668.129.613.086.578.046.555.028.547.008h5.043" fill="none" stroke-width="4" stroke-linejoin="round" stroke="#fff" stroke-opacity=".667" stroke-miterlimit="3.25"/><path d="M432.2 25.566h4.687l.218.008.27.02.332.047.402.078.489.117.582.172.687.226.805.297.937.375 1.075.461 1.222.559 1.367.644 1.485.72 1.57.773 1.633.808 1.668.832 1.672.828 1.652.817 1.606.78 1.53.727 1.427.66 1.296.57 1.157.477 1.031.391.914.309.82.242.735.176.668.129.613.086.578.046.555.028.547.008h5.043" fill="none" stroke-width="1.25" stroke-linecap="square" stroke="#aaa" stroke-miterlimit="3.25"/><path d="M498.473 30.477v15h-25v-15zm0 0" fill="#fff" fill-opacity=".667"/><use xlink:href="#c" x="475.973" y="40.476"/><use xlink:href="#d" x="485.973" y="40.476"/><path d="M432.2 136.633h4.562l.144-.004.168-.012.2-.031.23-.066.27-.106.316-.156.363-.223.418-.293.48-.379.544-.468.613-.579.687-.687.766-.816.855-.95.942-1.097 1.031-1.235 1.106-1.355 1.164-1.457 1.214-1.531 1.254-1.594 1.274-1.625 1.289-1.645 1.289-1.636 1.273-1.614 1.25-1.562 1.211-1.496 1.164-1.41 1.098-1.297 1.023-1.168.938-1.024.855-.883.786-.75.714-.632.657-.52.605-.426.555-.332.515-.258.485-.187.457-.129.441-.086.426-.047.422-.02.422-.007h4.797" fill="none" stroke-width="4" stroke-linejoin="round" stroke="#fff" stroke-opacity=".667" stroke-miterlimit="3.25"/><path d="M432.2 136.633h4.562l.144-.004.168-.012.2-.031.23-.066.27-.106.316-.156.363-.223.418-.293.48-.379.544-.468.613-.579.687-.687.766-.816.855-.95.942-1.097 1.031-1.235 1.106-1.355 1.164-1.457 1.214-1.531 1.254-1.594 1.274-1.625 1.289-1.645 1.289-1.636 1.273-1.614 1.25-1.562 1.211-1.496 1.164-1.41 1.098-1.297 1.023-1.168.938-1.024.855-.883.786-.75.714-.632.657-.52.605-.426.555-.332.515-.258.485-.187.457-.129.441-.086.426-.047.422-.02.422-.007h4.797" fill="none" stroke-width="1.25" stroke-linecap="square" stroke="#aaa" stroke-miterlimit="3.25"/><path d="M498.473 97.34v15h-25v-15zm0 0" fill="#fff" fill-opacity=".667"/><use xlink:href="#e" x="475.973" y="107.341"/><use xlink:href="#f" x="485.973" y="107.341"/><path d="M432.2 130.355h4.6l.13-.003.144-.02.172-.039.192-.074.222-.117.25-.168.29-.235.323-.304.368-.387.41-.485.457-.582.508-.699.566-.816.617-.953.684-1.098.746-1.246.812-1.41.875-1.567.938-1.703.98-1.82 1.028-1.922 1.058-1.996 1.082-2.055 1.098-2.094 1.11-2.113 1.113-2.11 1.101-2.089 1.09-2.047 1.066-1.984 1.036-1.906 1-1.805.949-1.68.898-1.543.832-1.383.774-1.218.715-1.07.66-.93.613-.801.566-.676.528-.566.492-.465.46-.375.435-.293.41-.223.39-.16.38-.11.366-.066.364-.035.363-.016h5.012" fill="none" stroke-width="4" stroke-linejoin="round" stroke="#fff" stroke-opacity=".667" stroke-miterlimit="3.25"/><path d="M432.2 130.355h4.6l.13-.003.144-.02.172-.039.192-.074.222-.117.25-.168.29-.235.323-.304.368-.387.41-.485.457-.582.508-.699.566-.816.617-.953.684-1.098.746-1.246.812-1.41.875-1.567.938-1.703.98-1.82 1.028-1.922 1.058-1.996 1.082-2.055 1.098-2.094 1.11-2.113 1.113-2.11 1.101-2.089 1.09-2.047 1.066-1.984 1.036-1.906 1-1.805.949-1.68.898-1.543.832-1.383.774-1.218.715-1.07.66-.93.613-.801.566-.676.528-.566.492-.465.46-.375.435-.293.41-.223.39-.16.38-.11.366-.066.364-.035.363-.016h5.012" fill="none" stroke-width="1.25" stroke-linecap="square" stroke="#aaa" stroke-miterlimit="3.25"/><path d="M498.473 75.398v15h-25v-15zm0 0" fill="#fff" fill-opacity=".667"/><use xlink:href="#g" x="475.973" y="85.397"/><use xlink:href="#h" x="485.973" y="85.397"/><path d="M432.2 156.953h4.562l.144-.004.168-.012.2-.03.23-.06.27-.1.316-.15.363-.21.418-.278.48-.355.544-.45.613-.542.687-.653.766-.773.855-.899.942-1.039 1.031-1.171 1.106-1.286 1.164-1.375 1.214-1.453 1.254-1.508 1.274-1.539 1.289-1.558 1.289-1.551 1.273-1.523 1.25-1.485 1.211-1.418 1.164-1.332 1.098-1.23 1.023-1.106.938-.968.855-.836.786-.711.714-.598.657-.492.605-.403.555-.316.515-.242.485-.18.457-.12.441-.083.426-.043.422-.02.422-.007h4.797" fill="none" stroke-width="4" stroke-linejoin="round" stroke="#fff" stroke-opacity=".667" stroke-miterlimit="3.25"/><path d="M432.2 156.953h4.562l.144-.004.168-.012.2-.03.23-.06.27-.1.316-.15.363-.21.418-.278.48-.355.544-.45.613-.542.687-.653.766-.773.855-.899.942-1.039 1.031-1.171 1.106-1.286 1.164-1.375 1.214-1.453 1.254-1.508 1.274-1.539 1.289-1.558 1.289-1.551 1.273-1.523 1.25-1.485 1.211-1.418 1.164-1.332 1.098-1.23 1.023-1.106.938-.968.855-.836.786-.711.714-.598.657-.492.605-.403.555-.316.515-.242.485-.18.457-.12.441-.083.426-.043.422-.02.422-.007h4.797" fill="none" stroke-width="1.25" stroke-linecap="square" stroke="#aaa" stroke-miterlimit="3.25"/><path d="M498.473 119.344v15h-25v-15zm0 0" fill="#fff" fill-opacity=".667"/><use xlink:href="#i" x="475.973" y="129.345"/><use xlink:href="#j" x="485.973" y="129.345"/><path d="M432.2 114.43h4.562l.11-.004.128-.008.14-.027.16-.051.184-.086.204-.129.234-.18.262-.238.289-.305.328-.382.36-.465.401-.559.442-.664.484-.77.532-.89.578-1.016.632-1.148.684-1.297.738-1.445.793-1.594.844-1.727.883-1.84.918-1.933.95-2.02.976-2.078.992-2.129 1.004-2.156 1.008-2.168 1.011-2.164 1.004-2.144.992-2.106.977-2.05.95-1.977.921-1.89.883-1.786.844-1.66.796-1.524.743-1.37.691-1.223.645-1.082.601-.95.559-.832.523-.715.488-.605.457-.512.43-.426.406-.343.387-.27.367-.207.356-.152.344-.106.332-.07.332-.035.332-.02.332-.004h4.75" fill="none" stroke-width="4" stroke-linejoin="round" stroke="#fff" stroke-opacity=".667" stroke-miterlimit="3.25"/><path d="M432.2 114.43h4.562l.11-.004.128-.008.14-.027.16-.051.184-.086.204-.129.234-.18.262-.238.289-.305.328-.382.36-.465.401-.559.442-.664.484-.77.532-.89.578-1.016.632-1.148.684-1.297.738-1.445.793-1.594.844-1.727.883-1.84.918-1.933.95-2.02.976-2.078.992-2.129 1.004-2.156 1.008-2.168 1.011-2.164 1.004-2.144.992-2.106.977-2.05.95-1.977.921-1.89.883-1.786.844-1.66.796-1.524.743-1.37.691-1.223.645-1.082.601-.95.559-.832.523-.715.488-.605.457-.512.43-.426.406-.343.387-.27.367-.207.356-.152.344-.106.332-.07.332-.035.332-.02.332-.004h4.75" fill="none" stroke-width="1.25" stroke-linecap="square" stroke="#aaa" stroke-miterlimit="3.25"/><path d="M498.473 53.398v15h-25v-15zm0 0" fill="#fff" fill-opacity=".667"/><use xlink:href="#k" x="475.973" y="63.398"/><use xlink:href="#l" x="485.973" y="63.398"/><path d="M405.813 191.578l.007.004.059.023.074.028.11.043.156.058.21.086.274.106.344.133.422.168.511.199.606.234.71.278.825.32.942.367 1.07.418 1.207.473 1.351.527 1.504.586 1.653.644 1.785.696 1.906.742 2.004.781 2.094.813 2.164.836 2.215.859 2.257.871 2.286.879 2.289.879 2.28.875 2.259.863 2.218.84 2.168.82 2.094.786 2.012.746 1.906.707 1.79.652 1.66.598 1.515.535 1.387.48 1.261.426 1.141.375 1.035.328.93.285.84.243.754.207.672.171.605.137.543.113.484.086.442.063.402.047.371.027.348.02.332.007.324.004h4.852" fill="none" stroke-width="4" stroke-linejoin="round" stroke="#fff" stroke-opacity=".667" stroke-miterlimit="3.25"/><path d="M405.813 191.578l.007.004.059.023.074.028.11.043.156.058.21.086.274.106.344.133.422.168.511.199.606.234.71.278.825.32.942.367 1.07.418 1.207.473 1.351.527 1.504.586 1.653.644 1.785.696 1.906.742 2.004.781 2.094.813 2.164.836 2.215.859 2.257.871 2.286.879 2.289.879 2.28.875 2.259.863 2.218.84 2.168.82 2.094.786 2.012.746 1.906.707 1.79.652 1.66.598 1.515.535 1.387.48 1.261.426 1.141.375 1.035.328.93.285.84.243.754.207.672.171.605.137.543.113.484.086.442.063.402.047.371.027.348.02.332.007.324.004h4.852" fill="none" stroke-width="1.25" stroke-linecap="square" stroke="#aaa" stroke-miterlimit="3.25"/><path d="M498.473 206.57v15h-25v-15zm0 0" fill="#fff" fill-opacity=".667"/><use xlink:href="#m" x="475.973" y="216.571"/><use xlink:href="#i" x="485.973" y="216.571"/><path d="M418.844 170.066h.07l.082-.004h.133l.191-.003.262-.008.348-.008.437-.008.543-.012.66-.011.79-.02.925-.02 1.078-.019 1.235-.027 1.41-.028 1.578-.035 1.719-.035 1.847-.039 1.953-.039 2.032-.043 2.093-.043 2.137-.043 4.305-.086 2.125-.043 2.082-.043 2.02-.039 1.925-.039 1.82-.035 1.692-.031 1.543-.028 1.39-.027 1.25-.02 1.122-.02 1-.015.89-.015.797-.008.707-.012.63-.004.565-.008.508-.003h.465l.43-.004h5.84" fill="none" stroke-width="4" stroke-linejoin="round" stroke="#fff" stroke-opacity=".667" stroke-miterlimit="3.25"/><path d="M418.844 170.066h.07l.082-.004h.133l.191-.003.262-.008.348-.008.437-.008.543-.012.66-.011.79-.02.925-.02 1.078-.019 1.235-.027 1.41-.028 1.578-.035 1.719-.035 1.847-.039 1.953-.039 2.032-.043 2.093-.043 2.137-.043 4.305-.086 2.125-.043 2.082-.043 2.02-.039 1.925-.039 1.82-.035 1.692-.031 1.543-.028 1.39-.027 1.25-.02 1.122-.02 1-.015.89-.015.797-.008.707-.012.63-.004.565-.008.508-.003h.465l.43-.004h5.84" fill="none" stroke-width="1.25" stroke-linecap="square" stroke="#aaa" stroke-miterlimit="3.25"/><path d="M498.473 161.64v15h-25v-15zm0 0" fill="#fff" fill-opacity=".667"/><use xlink:href="#n" x="475.973" y="171.64"/><use xlink:href="#l" x="485.973" y="171.64"/><path d="M405.813 179.285h.003l.008.004.031.004.055.012.094.02.586.116.328.067.414.082.5.101.606.125.71.141.829.168.96.195 1.094.22 1.239.25 1.394.28 1.559.317 1.718.347 1.86.371 1.984.403 2.094.422 2.18.437 2.253.453 2.313.461 2.348.469 2.367.473 2.37.468 2.356.465 2.329.457 2.273.446 2.21.433 2.122.41 2.023.387 1.907.36 1.765.331 1.618.297 1.476.266 1.336.238 1.207.207 1.09.18.98.152.875.133.786.113.703.09.625.074.558.06.5.046.453.035.41.02.38.015.355.008.34.004.336.004h4.75" fill="none" stroke-width="4" stroke-linejoin="round" stroke="#fff" stroke-opacity=".667" stroke-miterlimit="3.25"/><path d="M405.813 179.285h.003l.008.004.031.004.055.012.094.02.586.116.328.067.414.082.5.101.606.125.71.141.829.168.96.195 1.094.22 1.239.25 1.394.28 1.559.317 1.718.347 1.86.371 1.984.403 2.094.422 2.18.437 2.253.453 2.313.461 2.348.469 2.367.473 2.37.468 2.356.465 2.329.457 2.273.446 2.21.433 2.122.41 2.023.387 1.907.36 1.765.331 1.618.297 1.476.266 1.336.238 1.207.207 1.09.18.98.152.875.133.786.113.703.09.625.074.558.06.5.046.453.035.41.02.38.015.355.008.34.004.336.004h4.75" fill="none" stroke-width="1.25" stroke-linecap="square" stroke="#aaa" stroke-miterlimit="3.25"/><path d="M498.473 183.422v15h-25v-15zm0 0" fill="#fff" fill-opacity=".667"/><use xlink:href="#c" x="475.973" y="193.42"/><use xlink:href="#f" x="485.973" y="193.42"/><path d="M392.781 167.879l.004-.004.047-.012.059-.015.09-.028.132-.035.184-.05.238-.07.309-.087.375-.105.46-.13.548-.152.644-.183.75-.207.86-.242.98-.278 1.11-.308 1.241-.352 1.387-.39 1.54-.43 1.695-.477 1.851-.52 1.992-.562 2.114-.594 2.23-.62 2.32-.653 2.403-.672 2.465-.687 2.515-.703 2.551-.711 2.57-.715 2.578-.715 2.563-.707 2.539-.703 2.496-.684 2.445-.672 2.372-.644 2.285-.621 2.183-.586 2.067-.555 1.937-.512 1.793-.468 1.645-.426 1.507-.383 1.375-.344 1.25-.304 1.137-.27 1.028-.238.925-.203.832-.176.746-.153.668-.125.598-.101.531-.082.48-.067.43-.046.387-.036.356-.023.332-.016.312-.007.301-.004h4.93" fill="none" stroke-width="4" stroke-linejoin="round" stroke="#fff" stroke-opacity=".667" stroke-miterlimit="3.25"/><path d="M392.781 167.879l.004-.004.047-.012.059-.015.09-.028.132-.035.184-.05.238-.07.309-.087.375-.105.46-.13.548-.152.644-.183.75-.207.86-.242.98-.278 1.11-.308 1.241-.352 1.387-.39 1.54-.43 1.695-.477 1.851-.52 1.992-.562 2.114-.594 2.23-.62 2.32-.653 2.403-.672 2.465-.687 2.515-.703 2.551-.711 2.57-.715 2.578-.715 2.563-.707 2.539-.703 2.496-.684 2.445-.672 2.372-.644 2.285-.621 2.183-.586 2.067-.555 1.937-.512 1.793-.468 1.645-.426 1.507-.383 1.375-.344 1.25-.304 1.137-.27 1.028-.238.925-.203.832-.176.746-.153.668-.125.598-.101.531-.082.48-.067.43-.046.387-.036.356-.023.332-.016.312-.007.301-.004h4.93" fill="none" stroke-width="1.25" stroke-linecap="square" stroke="#aaa" stroke-miterlimit="3.25"/><path d="M498.473 141.016v14h-25v-14zm0 0" fill="#fff" fill-opacity=".667"/><use xlink:href="#i" x="475.973" y="150.516"/><use xlink:href="#o" x="485.973" y="150.516"/><path d="M405.813 231.871h.003l.008.004h.031l.055.004.094.008.137.011.195.016.254.02.328.027.414.031.5.04.606.046.71.055.829.066.96.074 1.094.086 1.239.098 1.394.11 1.559.124 1.718.133 1.86.149 1.984.156 2.094.164 2.18.168 2.253.176 2.313.183 2.348.18 2.367.184 2.37.183 2.356.184 2.329.176 2.273.175 2.21.168 2.122.16 2.023.149 1.907.14 1.765.13 1.618.117 1.476.105 1.336.09 1.207.082 1.09.07.98.059.875.05.786.044.703.039.625.027.558.023.5.016.453.016.41.008.38.007h.355l.34.004h5.086" fill="none" stroke-width="4" stroke-linejoin="round" stroke="#fff" stroke-opacity=".667" stroke-miterlimit="3.25"/><path d="M405.813 231.871h.003l.008.004h.031l.055.004.094.008.137.011.195.016.254.02.328.027.414.031.5.04.606.046.71.055.829.066.96.074 1.094.086 1.239.098 1.394.11 1.559.124 1.718.133 1.86.149 1.984.156 2.094.164 2.18.168 2.253.176 2.313.183 2.348.18 2.367.184 2.37.183 2.356.184 2.329.176 2.273.175 2.21.168 2.122.16 2.023.149 1.907.14 1.765.13 1.618.117 1.476.105 1.336.09 1.207.082 1.09.07.98.059.875.05.786.044.703.039.625.027.558.023.5.016.453.016.41.008.38.007h.355l.34.004h5.086" fill="none" stroke-width="1.25" stroke-linecap="square" stroke="#aaa" stroke-miterlimit="3.25"/><path d="M498.473 228.906v15h-25v-15zm0 0" fill="#fff" fill-opacity=".667"/><use xlink:href="#p" x="475.973" y="238.906"/><use xlink:href="#q" x="485.973" y="238.906"/><path d="M358.902 27.996l13.032 2.082 13.03 4.23 13.032 3.227 13.031 5.422 13.028 5.863V11.59l-13.028 2.473-13.03 2.414-13.032 3.265-13.031 2.602zm0 0" fill="gray" fill-opacity=".05"/><path d="M358.902 33.238l13.032 2.23 13.03 5.255 13.032 3.808 13.031 7.074 13.028 8.047V11.77l-13.028 2.992-13.03 3.02-13.032 4.144-13.031 3.504zm0 91.293l13.032 99.547v-106.98zm0 0" fill="gray" fill-opacity=".05"/><path d="M358.902 120.535l13.032 17.043 13.03 34.352v-61.11l-13.03 4.035zm0 0" fill="gray" fill-opacity=".05"/><path d="M358.902 134.21l13.032 36.77v-43.773zm0 0" fill="gray" fill-opacity=".05"/><path d="M358.902 133.242l13.032 70.906v-75.757zm0 0" fill="gray" fill-opacity=".05"/><path d="M358.902 129.3l13.032 24.38 13.03 72.41V113.879l-13.03 7.398zm0 0" fill="gray" fill-opacity=".05"/><path d="M358.902 145.227l13.032 8.742 13.03 9.754 13.032 19.867v-45.313l-13.031 1.868-13.031 2.488zm0-8.418l13.032 1.254 13.03-3.563 13.032-.746 13.031-2.645 13.028-1.367v-24.691l-13.028 4.066-13.03 5.309-13.032 5.34-13.031 8.296zm0 0" fill="gray" fill-opacity=".05"/><path d="M432.2 248.32H25m0 0V4m0 0h407.2m0 0v244.32" fill="none" stroke-width=".5" stroke-linecap="square" stroke="#666" stroke-miterlimit="3.25"/><path d="M59.203 248.32v-5.656" fill="none" stroke-width=".5" stroke="#666" stroke-miterlimit="3.25"/><g fill="#666"><use xlink:href="#r" x="44.705" y="260.32"/><use xlink:href="#s" x="50.222" y="260.32"/><use xlink:href="#t" x="55.662" y="260.32"/></g><g fill="#666"><use xlink:href="#u" x="62.705" y="260.32"/><use xlink:href="#v" x="68.32" y="260.32"/></g><path d="M150.418 248.32v-5.656" fill="none" stroke-width=".5" stroke="#666" stroke-miterlimit="3.25"/><g fill="#666"><use xlink:href="#r" x="135.918" y="260.32"/><use xlink:href="#s" x="141.435" y="260.32"/><use xlink:href="#t" x="146.875" y="260.32"/></g><g fill="#666"><use xlink:href="#w" x="153.918" y="260.32"/><use xlink:href="#x" x="159.533" y="260.32"/></g><path d="M241.629 248.32v-5.656" fill="none" stroke-width=".5" stroke="#666" stroke-miterlimit="3.25"/><g fill="#666"><use xlink:href="#r" x="227.13" y="260.32"/><use xlink:href="#s" x="232.648" y="260.32"/><use xlink:href="#t" x="238.087" y="260.32"/></g><g fill="#666"><use xlink:href="#w" x="245.13" y="260.32"/><use xlink:href="#y" x="250.746" y="260.32"/></g><path d="M332.844 248.32v-5.656" fill="none" stroke-width=".5" stroke="#666" stroke-miterlimit="3.25"/><g fill="#666"><use xlink:href="#z" x="318.343" y="260.32"/><use xlink:href="#A" x="323.871" y="260.32"/><use xlink:href="#B" x="329.168" y="260.32"/></g><g fill="#666"><use xlink:href="#x" x="336.343" y="260.32"/><use xlink:href="#v" x="341.958" y="260.32"/></g><path d="M424.055 248.32v-5.656" fill="none" stroke-width=".5" stroke="#666" stroke-miterlimit="3.25"/><g fill="#666"><use xlink:href="#z" x="409.556" y="260.32"/><use xlink:href="#A" x="415.083" y="260.32"/><use xlink:href="#B" x="420.381" y="260.32"/></g><g fill="#666"><use xlink:href="#u" x="427.556" y="260.32"/><use xlink:href="#x" x="433.171" y="260.32"/></g><path d="M25 230.785h4.07" fill="none" stroke-width=".1" stroke="#666" stroke-miterlimit="3.25"/><use xlink:href="#u" x="16" y="233.285" fill="#666"/><path d="M25 173.941h4.07" fill="none" stroke-width=".1" stroke="#666" stroke-miterlimit="3.25"/><g fill="#666"><use xlink:href="#u" x="11" y="176.441"/><use xlink:href="#x" x="16.615" y="176.441"/></g><path d="M25 117.098h4.07" fill="none" stroke-width=".1" stroke="#666" stroke-miterlimit="3.25"/><g fill="#666"><use xlink:href="#u" x="5" y="119.597"/><use xlink:href="#x" x="10.615" y="119.597"/><use xlink:href="#x" x="16.23" y="119.597"/></g><path d="M25 60.254h4.07" fill="none" stroke-width=".1" stroke="#666" stroke-miterlimit="3.25"/><g fill="#666"><use xlink:href="#u" y="62.753"/><use xlink:href="#x" x="5.615" y="62.753"/><use xlink:href="#x" x="11.23" y="62.753"/><use xlink:href="#x" x="16.846" y="62.753"/></g><path d="M25 247.898h2.398M25 243.395h2.398M25 239.59h2.398M25 236.293h2.398M25 233.387h2.398M25 213.672h2.398M25 203.664h2.398M25 196.563h2.398M25 191.055h2.398M25 186.55h2.398M25 182.746h2.398M25 179.45h2.398M25 176.543h2.398M25 156.828h2.398M25 146.82h2.398M25 139.719h2.398M25 134.21h2.398M25 129.707h2.398M25 125.902h2.398M25 122.605h2.398M25 119.7h2.398M25 99.984h2.398M25 89.977h2.398M25 82.875h2.398M25 77.363h2.398M25 72.863h2.398M25 69.059h2.398M25 65.762h2.398M25 62.855h2.398M25 43.14h2.398M25 33.133h2.398M25 26.031h2.398M25 20.52h2.398M25 16.02h2.398M25 12.215h2.398M25 8.918h2.398M25 6.012h2.398" fill="none" stroke-width=".1" stroke="#666" stroke-miterlimit="3.25"/><path d="M59.203 4v5.656M150.418 4v5.656M241.629 4v5.656M332.844 4v5.656M424.055 4v5.656" fill="none" stroke-width=".5" stroke="#666" stroke-miterlimit="3.25"/><path d="M432.2 230.785h-4.071m4.071-56.844h-4.071m4.071-56.843h-4.071m4.071-56.844h-4.071m4.071 187.644h-2.4m2.4-4.503h-2.4m2.4-3.805h-2.4m2.4-3.297h-2.4m2.4-2.906h-2.4m2.4-19.715h-2.4m2.4-10.008h-2.4m2.4-7.101h-2.4m2.4-5.508h-2.4m2.4-4.505h-2.4m2.4-3.804h-2.4m2.4-3.296h-2.4m2.4-2.907h-2.4m2.4-19.715h-2.4m2.4-10.008h-2.4m2.4-7.101h-2.4m2.4-5.509h-2.4m2.4-4.503h-2.4m2.4-3.805h-2.4m2.4-3.297h-2.4m2.4-2.905h-2.4m2.4-19.716h-2.4m2.4-10.007h-2.4m2.4-7.102h-2.4m2.4-5.512h-2.4m2.4-4.5h-2.4m2.4-3.804h-2.4m2.4-3.297h-2.4m2.4-2.907h-2.4m2.4-19.715h-2.4m2.4-10.007h-2.4m2.4-7.102h-2.4m2.4-5.511h-2.4m2.4-4.5h-2.4m2.4-3.805h-2.4m2.4-3.297h-2.4m2.4-2.906h-2.4" fill="none" stroke-width=".1" stroke="#666" stroke-miterlimit="3.25"/></svg>