<svg xmlns="http://www.w3.org/2000/svg" xmlns:xlink="http://www.w3.org/1999/xlink" width="500pt" height="274pt" viewBox="0 0 500 274"><defs><symbol overflow="visible" id="a"><path d="M2.469-5.809v.59h3.293v-.59zm.27 1.23v2.04H5.53v-2.04zm2.12 1.477H3.422v-.918h1.437zM9.141-7.27h-.672a7.745 7.745 0 00-.32-.89l-.637.11c.117.241.226.5.328.78H6.75c-.02-.3-.02-.609-.02-.94h-.69c0 .32 0 .64.019.94h-4.75v1.97C1.28-4.14 1-3.239.46-2.59l.54.488c.64-.808.98-1.878 1.012-3.199v-1.308H6.09c.05.828.148 1.52.308 2.078.122.41.262.781.422 1.101-.32.36-.68.66-1.07.89l.371.56c.36-.22.707-.5 1.04-.848.038.058.1.129.16.2.37.398.75.608 1.148.608.422 0 .781-.53 1.082-1.582l-.582-.34c-.2.833-.39 1.25-.57 1.25-.22 0-.458-.18-.72-.527l-.09-.14c.462-.641.84-1.442 1.15-2.422l-.56-.29a8.622 8.622 0 01-.91 2.032 5.96 5.96 0 01-.25-.84c-.12-.45-.199-1.031-.238-1.73h2.36zM1.62-1.91A6.86 6.86 0 01.511.28l.61.39c.5-.69.879-1.5 1.16-2.44zM6.31.84c.37 0 .64-.07.82-.211.2-.18.332-.649.39-1.43l-.68-.23c-.038.582-.12.922-.218 1.043-.09.097-.242.148-.441.148H4.05c-.25 0-.37-.14-.37-.422V-2.02h-.73v1.91c0 .63.288.95.878.95zM8.2-1.7l-.578.36A13.69 13.69 0 018.988.45l.57-.41C9.25-.46 8.802-1.04 8.2-1.7zM5-2.19l-.54.332c.462.5.821.96 1.08 1.379l.538-.38C5.828-1.237 5.468-1.69 5-2.19zm0 0"/></symbol><symbol overflow="visible" id="b"><path d="M3.89-1.96C3.29-1.16 2.14-.45.46.18l.411.68c1.79-.801 3-1.739 3.629-2.82h.148V.98h.743v-2.94h.14C6.25-.84 7.481.07 9.238.75L9.57.059c-1.55-.489-2.69-1.16-3.422-2.02H9.34v-.66H5.39v-.848h-.742v.848H.691v.66zm1.231-6.2v1.058H3.7v.672h1.38c-.06.54-.188 1.008-.388 1.39-.3.509-.812.919-1.55 1.231l.39.61c.797-.332 1.38-.79 1.739-1.371.28-.48.468-1.102.55-1.86h1.301L7.11-4.14c0 .492.262.742.801.742h.59c.36 0 .602-.114.719-.32.12-.223.222-.743.3-1.583l-.64-.21c-.05.722-.11 1.14-.168 1.261a.381.381 0 01-.32.191h-.34c-.16 0-.23-.082-.23-.23v-2.813H5.858V-8.16zm-3.473.18l-.359.539a7.48 7.48 0 011.672.921l.36-.55a7.87 7.87 0 00-1.673-.91zm-.636 1.34l-.364.538a7.235 7.235 0 011.524.82l.36-.546a7.631 7.631 0 00-1.52-.813zM2.89-5.41c-.64.719-1.36 1.36-2.171 1.898l.5.551c.761-.539 1.5-1.23 2.203-2.05zm0 0"/></symbol><symbol overflow="visible" id="c"><path d="M2.23-3.52l-.48.45c.55.422 1.012.82 1.371 1.218C2.481-.91 1.621-.172.54.36L.9 1C3.13-.102 4.49-2.02 4.981-4.762v-.617H2.72c.172-.48.312-1.012.422-1.57H5.72V-.16c0 .629.293.95.89.95H8.2c.41 0 .711-.099.903-.302.207-.238.359-.886.437-1.957l-.66-.21c-.04.87-.129 1.39-.27 1.57-.109.14-.289.218-.53.218H6.83c-.278 0-.419-.14-.419-.418v-2.73c.95-.34 1.942-.84 2.98-1.52l-.421-.59A10.19 10.19 0 016.41-3.73v-3.22h3.012v-.698H.578v.699h1.844C2.102-5.25 1.43-3.97.39-3.11l.34.62c.71-.542 1.28-1.28 1.718-2.222h1.84c-.18.84-.46 1.602-.82 2.281-.348-.36-.758-.73-1.239-1.09zm0 0"/></symbol><symbol overflow="visible" id="d"><path d="M.57-6.422v.723h1.328V.559H9v-.707H2.64V-5.7h6.782v-.723H5.648a8.407 8.407 0 00-1-1.687l-.707.27c.368.44.68.917.93 1.417zm0 0"/></symbol><symbol overflow="visible" id="e"><path d="M1.32-8.012l-.5.492c.782.54 1.4 1.04 1.84 1.52l.52-.52c-.5-.5-1.121-.992-1.86-1.492zm-.289 2.34l-.5.48C1.25-4.647 1.81-4.14 2.22-3.66l.52-.531c-.458-.489-1.028-.98-1.708-1.48zm1.34 2.781A29.022 29.022 0 01.7.59l.71.31a30.79 30.79 0 001.602-3.53zM8.7-3.25H3.82V.988h.7V.41H8v.578h.7zM4.52-.27v-2.32H8v2.32zM7.66-7l-.629.3c.34.462.66.962.98 1.5-1.152.169-2.37.29-3.66.36.688-.781 1.368-1.808 2.047-3.11l-.718-.24C4.719-6.23 3.922-5.1 3.27-4.8l.12.653c1.82-.102 3.481-.25 4.97-.454.14.25.28.524.421.801l.668-.328A23.587 23.587 0 007.66-7zm0 0"/></symbol><symbol overflow="visible" id="f"><path d="M2.172-3.95H4.34v.528H2.172zm2.168-.46H2.172v-.54H4.34zM2.172-2.96H4.34v.288c0 .262-.121.39-.34.39l-.66-.027.148.547h.703c.54 0 .82-.258.82-.758v-2.949h-3.5v3.739h.66zm-.703 1.64C1.269-.72.969-.18.55.3l.578.372c.422-.524.75-1.14.992-1.852zM6.53.86c.328 0 .57-.07.73-.188.169-.16.29-.602.348-1.32L6.95-.86c-.039.52-.097.84-.187.949-.082.082-.203.12-.364.12H3.852C3.66.21 3.57.122 3.57-.05v-1.31h-.699V.09c0 .512.258.77.777.77zm1.207-2.622c.551 0 .832-.277.832-.816V-5.54H7.88v2.789c0 .238-.129.371-.379.371-.309 0-.64-.02-.98-.05l.16.667zM5-1.762l-.531.332c.43.442.77.852 1.031 1.23l.531-.378C5.79-.922 5.45-1.308 5-1.762zm3.23.274l-.55.34c.52.609.93 1.16 1.23 1.66l.57-.39c-.289-.462-.71-1-1.25-1.61zM6.04-5.371v2.512h.679v-2.512zm-3.188-1.04v.38h4.25v-.43c.66.27 1.367.52 2.148.742l.32-.562c-1.64-.457-3.082-1.078-4.34-1.86h-.46C3.629-7.379 2.19-6.75.46-6.238l.31.566c.75-.226 1.44-.476 2.082-.738zm3.91-.198H3.309A11.7 11.7 0 005-7.531c.52.332 1.11.64 1.762.922zm0 0"/></symbol><symbol overflow="visible" id="g"><path d="M3.805-7.11h.941v5.036c0 .68-.203 1.21-.613 1.597-.406.383-.953.575-1.633.575-.707 0-1.258-.18-1.648-.543-.395-.36-.594-.867-.594-1.516h.937c0 .406.114.723.336.95.223.23.547.343.969.343.387 0 .7-.121.941-.367.239-.246.36-.586.364-1.028zm0 0"/></symbol><symbol overflow="visible" id="h"><path d="M3.945 0c-.05-.105-.093-.29-.125-.555-.422.434-.922.653-1.507.653-.52 0-.946-.149-1.282-.442a1.438 1.438 0 01-.5-1.12c0-.552.211-.977.63-1.282.417-.305 1.007-.457 1.765-.457h.879v-.414c0-.317-.094-.567-.285-.754-.188-.188-.465-.281-.833-.281-.324 0-.593.082-.812.242-.219.164-.328.36-.328.59H.64c0-.262.093-.516.28-.762.188-.246.442-.441.763-.582.32-.145.671-.219 1.054-.219.61 0 1.086.153 1.434.457.344.305.523.727.535 1.258v2.434c0 .484.063.87.184 1.156V0zm-1.5-.688c.285 0 .555-.074.805-.218a1.35 1.35 0 00.555-.574v-1.083h-.711c-1.106 0-1.656.325-1.656.97 0 .284.093.507.28.663.188.16.43.243.727.243zm0 0"/></symbol><symbol overflow="visible" id="i"><path d="M1.54-5.281l.026.664a1.93 1.93 0 011.582-.766c1.118 0 1.68.633 1.692 1.89V0h-.902v-3.496c-.004-.379-.094-.664-.262-.844-.172-.183-.438-.273-.801-.273-.293 0-.55.078-.77.234a1.59 1.59 0 00-.52.613V0h-.9v-5.281zm0 0"/></symbol><symbol overflow="visible" id="j"><path d="M3.559 0h-.907v-6.02l-1.824.668v-.82l2.59-.973h.14zm0 0"/></symbol><symbol overflow="visible" id="k"><path d="M1.906-3.992h.676c.426-.008.762-.121 1.008-.34.242-.219.363-.512.363-.883 0-.832-.414-1.25-1.242-1.25-.39 0-.703.113-.938.336-.23.223-.347.516-.347.887H.523c0-.563.204-1.031.618-1.406.41-.372.933-.559 1.57-.559.672 0 1.195.176 1.578.531.379.356.57.848.57 1.48 0 .31-.101.61-.3.9a1.81 1.81 0 01-.817.648c.39.125.692.328.903.617.214.285.32.636.32 1.047 0 .64-.207 1.144-.625 1.52-.418.374-.957.562-1.625.562s-1.211-.18-1.63-.543c-.417-.36-.624-.836-.624-1.43h.906c0 .375.121.672.367.898.243.227.57.336.98.336.438 0 .77-.113 1-.34.231-.23.349-.554.349-.98 0-.414-.125-.734-.383-.953-.254-.223-.618-.336-1.098-.344h-.676zm0 0"/></symbol><symbol overflow="visible" id="l"><path d="M5.25 0H.59v-.648l2.46-2.735c.364-.414.618-.75.755-1.008.14-.257.21-.527.21-.804 0-.371-.113-.676-.34-.914-.222-.239-.523-.356-.898-.356-.449 0-.797.13-1.047.383-.25.254-.37.613-.37 1.066H.452c0-.652.211-1.183.633-1.586.422-.402.984-.605 1.691-.605.66 0 1.184.172 1.567.52.386.347.578.808.578 1.382 0 .703-.445 1.535-1.336 2.5L1.68-.738h3.57zm0 0"/></symbol><symbol overflow="visible" id="m"><path d="M5.047-3.031c0 1.058-.18 1.844-.54 2.36-.362.51-.925.769-1.694.769-.758 0-1.32-.25-1.684-.754C.766-1.16.574-1.91.562-2.91v-1.207c0-1.043.18-1.82.54-2.328.363-.508.93-.762 1.703-.762.765 0 1.328.246 1.687.734.36.489.547 1.246.555 2.27zm-.902-1.235c0-.765-.106-1.324-.32-1.675-.216-.348-.555-.524-1.02-.524-.465 0-.801.176-1.012.524-.211.347-.32.882-.328 1.605v1.445c0 .77.113 1.336.336 1.704.222.367.558.546 1.012.546.445 0 .777-.171.992-.515.218-.344.332-.89.34-1.633zm0 0"/></symbol><symbol overflow="visible" id="n"><path d="M5.18-6.602L2.234 0H1.29l2.934-6.367H.375v-.742H5.18zm0 0"/></symbol><symbol overflow="visible" id="o"><path d="M4.746-3.14H1.762V0H.824v-7.11H5.23v.774H1.762v2.43h2.984zm0 0"/></symbol><symbol overflow="visible" id="p"><path d="M2.875.098c-.715 0-1.297-.235-1.746-.707-.45-.47-.676-1.098-.676-1.887v-.164c0-.524.102-.992.3-1.406.2-.41.481-.735.84-.965.36-.235.75-.352 1.173-.352.687 0 1.218.227 1.601.68.38.453.57 1.101.57 1.945v.375H1.36c.012.52.164.942.454 1.262.292.32.664.48 1.113.48.316 0 .59-.062.808-.195.223-.129.414-.3.582-.516l.551.43c-.441.68-1.105 1.02-1.992 1.02zm-.11-4.739a1.21 1.21 0 00-.921.399c-.246.265-.399.64-.457 1.117H4.03v-.07c-.023-.457-.148-.813-.367-1.067-.223-.25-.523-.379-.898-.379zm0 0"/></symbol><symbol overflow="visible" id="q"><path d="M5.156-2.582c0 .809-.187 1.453-.554 1.945-.372.489-.872.735-1.497.735-.667 0-1.183-.235-1.546-.707L1.516 0H.684v-7.5h.902v2.797c.367-.453.867-.68 1.508-.68.64 0 1.148.246 1.511.73.368.485.551 1.15.551 1.993zm-.902-.106c0-.613-.121-1.09-.356-1.421-.238-.336-.582-.504-1.027-.504-.598 0-1.023.277-1.285.828V-1.5c.277.555.71.832 1.297.832.43 0 .77-.168 1.008-.504.242-.336.363-.84.363-1.516zm0 0"/></symbol><symbol overflow="visible" id="r"><path d="M4.406-2.387h.985v.739h-.985V0h-.91v-1.648H.258v-.536L3.44-7.109h.965zm-3.12 0h2.21v-3.488l-.105.195zm0 0"/></symbol></defs><path d="M33.434 256.96V4m11.902 252.96V4m11.902 252.96V4m11.907 252.96V4m11.902 252.96V4m11.906 252.96V4m11.902 252.96V4m11.907 252.96V4m11.902 252.96V4m11.902 252.96V4m11.907 252.96V4m11.902 252.96V4m11.906 252.96V4m11.903 252.96V4m11.906 252.96V4m11.902 252.96V4m11.903 252.96V4M235.8 256.96V4m11.903 252.96V4m11.907 252.96V4m11.902 252.96V4m11.902 252.96V4m11.906 252.96V4m11.903 252.96V4m11.906 252.96V4m11.902 252.96V4m11.907 252.96V4m11.902 252.96V4m11.902 252.96V4m11.906 252.96V4m11.902 252.96V4m11.907 252.96V4m11.903 252.96V4m11.906 252.96V4m11.902 252.96V4M25 193.39h421.602M25 134.875h421.602M25 76.363h421.602" fill="none" stroke="#666" stroke-opacity=".5" stroke-dasharray="1,2" stroke-miterlimit="3.25"/><path d="M378.648 72.738l11.903 16.782 11.906-10.098 11.902 5.2 11.907-5.888 11.902-.468" fill="none" stroke-width="1.6" stroke-linecap="square" stroke="#a60000" stroke-opacity=".3" stroke-miterlimit="3.25"/><path d="M378.648 246.227l11.903-.297 11.906-.45 11.902-.37 11.907-.458 11.902-.433" fill="none" stroke-width="1.6" stroke-linecap="square" stroke="#0d86a0" stroke-opacity=".3" stroke-miterlimit="3.25"/><path d="M378.648 214.922l11.903-4.188 11.906-2.78 11.902-3.802 11.907-3.242 11.902-3.71" fill="none" stroke-width="1.6" stroke-linecap="square" stroke="#c05c20" stroke-opacity=".3" stroke-miterlimit="3.25"/><path d="M33.434 249.5l11.902 2.402h35.71l11.907-.234 11.902-.762 11.907-2.457 11.902-1.113 11.902-.816 11.907-3.336 11.902 1.05 11.906-7.488 11.903-10.824 11.906-14.277 11.902-4.739 11.903-58.629 11.906 18.254 11.902-16.265 11.906-14.336 11.903-7.02 11.902-28.555 11.906-13.984 11.903-23.758 11.906-38.148 11.902 11.293 11.906 32.238L354.84 53.02l11.902 43.472 11.906-23.754" fill="none" stroke-width="1.6" stroke-linecap="square" stroke="#a60000" stroke-miterlimit="3.25"/><path d="M33.434 251.844l11.902.058h23.809l11.902-.058h11.906l11.902.058h11.907l23.804-.117 11.907-.058 11.902-.293h11.906l11.903-.47 11.906.06 11.902-.528 11.903-.117H235.8l11.902-.703 11.906-.29 11.903-.175 11.902.059 11.906-.704 11.903-.41 11.906-.058 11.902-.47h11.906l11.903-.76 11.902-.177 11.906-.464" fill="none" stroke-width="1.6" stroke-linecap="square" stroke="#0d86a0" stroke-miterlimit="3.25"/><path d="M33.434 251.785l11.902-.117 11.902.176 11.907.058 11.902-.293 11.906.293 11.902-.234 11.907-.059 11.902.059 11.902.234 11.907-.175 11.902.175 11.906-.351 11.903.176 11.906-.47 11.902.528 11.903-.41 11.906-1.988 11.902 1.285 11.906-1.52 11.903-1.464 11.902-.762 11.906-3.625 11.903-.586 11.906-6.145 11.902.059 11.906-7.371 11.903-7.2 11.902-5.265 11.906-1.871" fill="none" stroke-width="1.6" stroke-linecap="square" stroke="#c05c20" stroke-miterlimit="3.25"/><path d="M380.934 73a1.934 1.934 0 10-3.868 0 1.934 1.934 0 003.868 0zm12 17a1.934 1.934 0 10-3.868 0 1.934 1.934 0 003.868 0zm11-11a1.934 1.934 0 10-3.868 0 1.934 1.934 0 003.868 0zm12 6a1.934 1.934 0 10-3.868 0 1.934 1.934 0 003.868 0zm12-6a1.934 1.934 0 10-3.868 0 1.934 1.934 0 003.868 0zm12-1a1.934 1.934 0 10-3.868 0 1.934 1.934 0 003.868 0zm0 0" fill-rule="evenodd" fill="#a60000" fill-opacity=".3"/><path d="M380.934 246a1.934 1.934 0 10-3.868 0 1.934 1.934 0 003.868 0zm12 0a1.934 1.934 0 10-3.868 0 1.934 1.934 0 003.868 0zm11-1a1.934 1.934 0 10-3.868 0 1.934 1.934 0 003.868 0zm12 0a1.934 1.934 0 10-3.868 0 1.934 1.934 0 003.868 0zm12 0a1.934 1.934 0 10-3.868 0 1.934 1.934 0 003.868 0zm12-1a1.934 1.934 0 10-3.868 0 1.934 1.934 0 003.868 0zm0 0" fill-rule="evenodd" fill="#0d86a0" fill-opacity=".3"/><path d="M380.934 215a1.934 1.934 0 10-3.868 0 1.934 1.934 0 003.868 0zm12-4a1.934 1.934 0 10-3.868 0 1.934 1.934 0 003.868 0zm11-3a1.934 1.934 0 10-3.868 0 1.934 1.934 0 003.868 0zm12-4a1.934 1.934 0 10-3.868 0 1.934 1.934 0 003.868 0zm12-3a1.934 1.934 0 10-3.868 0 1.934 1.934 0 003.868 0zm12-4a1.934 1.934 0 10-3.868 0 1.934 1.934 0 003.868 0zm0 0" fill-rule="evenodd" fill="#c05c20" fill-opacity=".3"/><path d="M34.934 250a1.934 1.934 0 10-3.868 0 1.934 1.934 0 003.868 0zm12 2a1.934 1.934 0 10-3.868 0 1.934 1.934 0 003.868 0zm12 0a1.934 1.934 0 10-3.868 0 1.934 1.934 0 003.868 0zm12 0a1.934 1.934 0 10-3.868 0 1.934 1.934 0 003.868 0zm12 0a1.934 1.934 0 10-3.868 0 1.934 1.934 0 003.868 0zm12 0a1.934 1.934 0 10-3.868 0 1.934 1.934 0 003.868 0zm12-1a1.934 1.934 0 10-3.868 0 1.934 1.934 0 003.868 0zm12-3a1.934 1.934 0 10-3.868 0 1.934 1.934 0 003.868 0zm12-1a1.934 1.934 0 10-3.868 0 1.934 1.934 0 003.868 0zm12 0a1.934 1.934 0 10-3.868 0 1.934 1.934 0 003.868 0zm11-4a1.934 1.934 0 10-3.868 0 1.934 1.934 0 003.868 0zm12 1a1.934 1.934 0 10-3.868 0 1.934 1.934 0 003.868 0zm12-7a1.934 1.934 0 10-3.868 0 1.934 1.934 0 003.868 0zm12-11a1.934 1.934 0 10-3.868 0 1.934 1.934 0 003.868 0zm12-14a1.934 1.934 0 10-3.868 0 1.934 1.934 0 003.868 0zm12-5a1.934 1.934 0 10-3.868 0 1.934 1.934 0 003.868 0zm12-59a1.934 1.934 0 10-3.868 0 1.934 1.934 0 003.868 0zm12 19a1.934 1.934 0 10-3.868 0 1.934 1.934 0 003.868 0zm12-17a1.934 1.934 0 10-3.868 0 1.934 1.934 0 003.868 0zm12-14a1.934 1.934 0 10-3.868 0 1.934 1.934 0 003.868 0zm12-7a1.934 1.934 0 10-3.868 0 1.934 1.934 0 003.868 0zm11-29a1.934 1.934 0 10-3.868 0 1.934 1.934 0 003.868 0zm12-14a1.934 1.934 0 10-3.868 0 1.934 1.934 0 003.868 0zm12-23a1.934 1.934 0 10-3.868 0 1.934 1.934 0 003.868 0zm12-39a1.934 1.934 0 10-3.868 0 1.934 1.934 0 003.868 0zm12 12a1.934 1.934 0 10-3.868 0 1.934 1.934 0 003.868 0zm12 32a1.934 1.934 0 10-3.868 0 1.934 1.934 0 003.868 0zm12-15a1.934 1.934 0 10-3.868 0 1.934 1.934 0 003.868 0zm12 43a1.934 1.934 0 10-3.868 0 1.934 1.934 0 003.868 0zm12-23a1.934 1.934 0 10-3.868 0 1.934 1.934 0 003.868 0zm0 0" fill-rule="evenodd" fill="#a60000"/><path d="M34.934 252a1.934 1.934 0 10-3.868 0 1.934 1.934 0 003.868 0zm12 0a1.934 1.934 0 10-3.868 0 1.934 1.934 0 003.868 0zm12 0a1.934 1.934 0 10-3.868 0 1.934 1.934 0 003.868 0zm12 0a1.934 1.934 0 10-3.868 0 1.934 1.934 0 003.868 0zm12 0a1.934 1.934 0 10-3.868 0 1.934 1.934 0 003.868 0zm12 0a1.934 1.934 0 10-3.868 0 1.934 1.934 0 003.868 0zm12 0a1.934 1.934 0 10-3.868 0 1.934 1.934 0 003.868 0zm12 0a1.934 1.934 0 10-3.868 0 1.934 1.934 0 003.868 0zm12 0a1.934 1.934 0 10-3.868 0 1.934 1.934 0 003.868 0zm12 0a1.934 1.934 0 10-3.868 0 1.934 1.934 0 003.868 0zm11 0a1.934 1.934 0 10-3.868 0 1.934 1.934 0 003.868 0zm12-1a1.934 1.934 0 10-3.868 0 1.934 1.934 0 003.868 0zm12 0a1.934 1.934 0 10-3.868 0 1.934 1.934 0 003.868 0zm12 0a1.934 1.934 0 10-3.868 0 1.934 1.934 0 003.868 0zm12 0a1.934 1.934 0 10-3.868 0 1.934 1.934 0 003.868 0zm12-1a1.934 1.934 0 10-3.868 0 1.934 1.934 0 003.868 0zm12 0a1.934 1.934 0 10-3.868 0 1.934 1.934 0 003.868 0zm12 0a1.934 1.934 0 10-3.868 0 1.934 1.934 0 003.868 0zm12 0a1.934 1.934 0 10-3.868 0 1.934 1.934 0 003.868 0zm12-1a1.934 1.934 0 10-3.868 0 1.934 1.934 0 003.868 0zm12 0a1.934 1.934 0 10-3.868 0 1.934 1.934 0 003.868 0zm11 0a1.934 1.934 0 10-3.868 0 1.934 1.934 0 003.868 0zm12 0a1.934 1.934 0 10-3.868 0 1.934 1.934 0 003.868 0zm12-1a1.934 1.934 0 10-3.868 0 1.934 1.934 0 003.868 0zm12 0a1.934 1.934 0 10-3.868 0 1.934 1.934 0 003.868 0zm12 0a1.934 1.934 0 10-3.868 0 1.934 1.934 0 003.868 0zm12 0a1.934 1.934 0 10-3.868 0 1.934 1.934 0 003.868 0zm12-1a1.934 1.934 0 10-3.868 0 1.934 1.934 0 003.868 0zm12 0a1.934 1.934 0 10-3.868 0 1.934 1.934 0 003.868 0zm12-1a1.934 1.934 0 10-3.868 0 1.934 1.934 0 003.868 0zm0 0" fill-rule="evenodd" fill="#0d86a0"/><path d="M34.934 252a1.934 1.934 0 10-3.868 0 1.934 1.934 0 003.868 0zm12 0a1.934 1.934 0 10-3.868 0 1.934 1.934 0 003.868 0zm12 0a1.934 1.934 0 10-3.868 0 1.934 1.934 0 003.868 0zm12 0a1.934 1.934 0 10-3.868 0 1.934 1.934 0 003.868 0zm12 0a1.934 1.934 0 10-3.868 0 1.934 1.934 0 003.868 0zm12 0a1.934 1.934 0 10-3.868 0 1.934 1.934 0 003.868 0zm12 0a1.934 1.934 0 10-3.868 0 1.934 1.934 0 003.868 0zm12 0a1.934 1.934 0 10-3.868 0 1.934 1.934 0 003.868 0zm12 0a1.934 1.934 0 10-3.868 0 1.934 1.934 0 003.868 0zm12 0a1.934 1.934 0 10-3.868 0 1.934 1.934 0 003.868 0zm11 0a1.934 1.934 0 10-3.868 0 1.934 1.934 0 003.868 0zm12 0a1.934 1.934 0 10-3.868 0 1.934 1.934 0 003.868 0zm12 0a1.934 1.934 0 10-3.868 0 1.934 1.934 0 003.868 0zm12 0a1.934 1.934 0 10-3.868 0 1.934 1.934 0 003.868 0zm12-1a1.934 1.934 0 10-3.868 0 1.934 1.934 0 003.868 0zm12 1a1.934 1.934 0 10-3.868 0 1.934 1.934 0 003.868 0zm12-1a1.934 1.934 0 10-3.868 0 1.934 1.934 0 003.868 0zm12-2a1.934 1.934 0 10-3.868 0 1.934 1.934 0 003.868 0zm12 2a1.934 1.934 0 10-3.868 0 1.934 1.934 0 003.868 0zm12-2a1.934 1.934 0 10-3.868 0 1.934 1.934 0 003.868 0zm12-1a1.934 1.934 0 10-3.868 0 1.934 1.934 0 003.868 0zm11-1a1.934 1.934 0 10-3.868 0 1.934 1.934 0 003.868 0zm12-4a1.934 1.934 0 10-3.868 0 1.934 1.934 0 003.868 0zm12 0a1.934 1.934 0 10-3.868 0 1.934 1.934 0 003.868 0zm12-6a1.934 1.934 0 10-3.868 0 1.934 1.934 0 003.868 0zm12 0a1.934 1.934 0 10-3.868 0 1.934 1.934 0 003.868 0zm12-8a1.934 1.934 0 10-3.868 0 1.934 1.934 0 003.868 0zm12-7a1.934 1.934 0 10-3.868 0 1.934 1.934 0 003.868 0zm12-5a1.934 1.934 0 10-3.868 0 1.934 1.934 0 003.868 0zm12-2a1.934 1.934 0 10-3.868 0 1.934 1.934 0 003.868 0zm0 0" fill-rule="evenodd" fill="#c05c20"/><path d="M446.602 78.266h26.187" fill="none" stroke-width="4" stroke-linejoin="round" stroke="#fff" stroke-opacity=".667" stroke-miterlimit="3.25"/><path d="M446.602 78.266h26.187" fill="none" stroke-width="1.25" stroke-linecap="square" stroke="#aaa" stroke-miterlimit="3.25"/><path d="M497.79 70.766v15h-25v-15zm0 0" fill="#fff" fill-opacity=".667"/><use xlink:href="#a" x="475.289" y="80.764"/><use xlink:href="#b" x="485.289" y="80.764"/><path d="M446.602 244.219h26.187" fill="none" stroke-width="4" stroke-linejoin="round" stroke="#fff" stroke-opacity=".667" stroke-miterlimit="3.25"/><path d="M446.602 244.219h26.187" fill="none" stroke-width="1.25" stroke-linecap="square" stroke="#aaa" stroke-miterlimit="3.25"/><path d="M497.79 236.719v15h-25v-15zm0 0" fill="#fff" fill-opacity=".667"/><use xlink:href="#c" x="475.289" y="246.72"/><use xlink:href="#d" x="485.289" y="246.72"/><path d="M446.602 197.2h26.187" fill="none" stroke-width="4" stroke-linejoin="round" stroke="#fff" stroke-opacity=".667" stroke-miterlimit="3.25"/><path d="M446.602 197.2h26.187" fill="none" stroke-width="1.25" stroke-linecap="square" stroke="#aaa" stroke-miterlimit="3.25"/><path d="M497.79 189.7v15h-25v-15zm0 0" fill="#fff" fill-opacity=".667"/><use xlink:href="#e" x="475.289" y="199.701"/><use xlink:href="#f" x="485.289" y="199.701"/><path d="M378.648 72.738l11.903 61.82 11.906 27.81 11.902 44.171 11.907 33.758 11.902 39.57v-403.203l-11.902 40.508-11.907 45.531L402.457-3.52l-11.906 47.997zm0 0" fill="gray" fill-opacity=".05"/><path d="M378.648 246.227l11.903.238 11.906.015 11.902.114 11.907.043 11.902.078v-4.988l-11.902.941-11.907.957-11.902.86-11.906.91zm0-31.305l11.903-.387 11.906.45 11.902-.458 11.907.172 11.902-.254v-34.488l-11.902 7.164-11.907 6.656-11.902 7.141-11.906 6.016zm0 0" fill="gray" fill-opacity=".05"/><path d="M446.602 256.96H25m0 0V4m0 0h421.602m0 0v252.96" fill="none" stroke-width=".5" stroke-linecap="square" stroke="#666" stroke-miterlimit="3.25"/><path d="M57.238 256.96v-5.855" fill="none" stroke-width=".5" stroke="#666" stroke-miterlimit="3.25"/><g fill="#666"><use xlink:href="#g" x="42.74" y="268.96"/><use xlink:href="#h" x="48.258" y="268.96"/><use xlink:href="#i" x="53.697" y="268.96"/></g><g fill="#666"><use xlink:href="#j" x="60.74" y="268.96"/><use xlink:href="#k" x="66.355" y="268.96"/></g><path d="M140.566 256.96v-5.855" fill="none" stroke-width=".5" stroke="#666" stroke-miterlimit="3.25"/><g fill="#666"><use xlink:href="#g" x="126.068" y="268.96"/><use xlink:href="#h" x="131.586" y="268.96"/><use xlink:href="#i" x="137.025" y="268.96"/></g><g fill="#666"><use xlink:href="#l" x="144.068" y="268.96"/><use xlink:href="#m" x="149.683" y="268.96"/></g><path d="M223.895 256.96v-5.855" fill="none" stroke-width=".5" stroke="#666" stroke-miterlimit="3.25"/><g fill="#666"><use xlink:href="#g" x="209.396" y="268.96"/><use xlink:href="#h" x="214.914" y="268.96"/><use xlink:href="#i" x="220.353" y="268.96"/></g><g fill="#666"><use xlink:href="#l" x="227.396" y="268.96"/><use xlink:href="#n" x="233.011" y="268.96"/></g><path d="M307.223 256.96v-5.855" fill="none" stroke-width=".5" stroke="#666" stroke-miterlimit="3.25"/><g fill="#666"><use xlink:href="#o" x="292.724" y="268.96"/><use xlink:href="#p" x="298.251" y="268.96"/><use xlink:href="#q" x="303.549" y="268.96"/></g><g fill="#666"><use xlink:href="#m" x="310.724" y="268.96"/><use xlink:href="#k" x="316.339" y="268.96"/></g><path d="M390.55 256.96v-5.855" fill="none" stroke-width=".5" stroke="#666" stroke-miterlimit="3.25"/><g fill="#666"><use xlink:href="#o" x="376.052" y="268.96"/><use xlink:href="#p" x="381.579" y="268.96"/><use xlink:href="#q" x="386.877" y="268.96"/></g><g fill="#666"><use xlink:href="#j" x="394.052" y="268.96"/><use xlink:href="#m" x="399.667" y="268.96"/></g><path d="M25 251.902h4" fill="none" stroke-width=".5" stroke="#666" stroke-miterlimit="3.25"/><use xlink:href="#m" x="16" y="254.401" fill="#666"/><path d="M25 240.2h2.398M25 228.496h2.398M25 216.793h2.398M25 205.09h2.398M25 193.39h4" fill="none" stroke-width=".5" stroke="#666" stroke-miterlimit="3.25"/><g fill="#666"><use xlink:href="#j" y="195.889"/><use xlink:href="#m" x="5.615" y="195.889"/><use xlink:href="#m" x="11.23" y="195.889"/><use xlink:href="#m" x="16.846" y="195.889"/></g><path d="M25 181.688h2.398M25 169.984h2.398M25 158.281h2.398M25 146.578h2.398M25 134.875h4" fill="none" stroke-width=".5" stroke="#666" stroke-miterlimit="3.25"/><g fill="#666"><use xlink:href="#l" y="137.377"/><use xlink:href="#m" x="5.615" y="137.377"/><use xlink:href="#m" x="11.23" y="137.377"/><use xlink:href="#m" x="16.846" y="137.377"/></g><path d="M25 123.176h2.398M25 111.473h2.398M25 99.77h2.398M25 88.066h2.398M25 76.363h4" fill="none" stroke-width=".5" stroke="#666" stroke-miterlimit="3.25"/><g fill="#666"><use xlink:href="#k" y="78.865"/><use xlink:href="#m" x="5.615" y="78.865"/><use xlink:href="#m" x="11.23" y="78.865"/><use xlink:href="#m" x="16.846" y="78.865"/></g><path d="M25 64.664h2.398M25 52.96h2.398M25 41.258h2.398M25 29.555h2.398M25 17.852h4" fill="none" stroke-width=".5" stroke="#666" stroke-miterlimit="3.25"/><g fill="#666"><use xlink:href="#r" y="20.353"/><use xlink:href="#m" x="5.615" y="20.353"/><use xlink:href="#m" x="11.23" y="20.353"/><use xlink:href="#m" x="16.846" y="20.353"/></g><path d="M25 6.152h2.398M57.238 4v5.855M140.566 4v5.855M223.895 4v5.855M307.223 4v5.855M390.55 4v5.855m56.052 242.047h-4m4-11.702h-2.403m2.403-11.704h-2.403m2.403-11.703h-2.403m2.403-11.703h-2.403m2.403-11.7h-4m4-11.702h-2.403m2.403-11.704h-2.403m2.403-11.703h-2.403m2.403-11.703h-2.403m2.403-11.703h-4m4-11.699h-2.403m2.403-11.703h-2.403m2.403-11.703h-2.403m2.403-11.704h-2.403m2.403-11.703h-4m4-11.699h-2.403m2.403-11.704h-2.403m2.403-11.702h-2.403m2.403-11.703h-2.403m2.403-11.703h-4m4-11.7h-2.403" fill="none" stroke-width=".5" stroke="#666" stroke-miterlimit="3.25"/></svg>