<svg xmlns="http://www.w3.org/2000/svg" xmlns:xlink="http://www.w3.org/1999/xlink" width="500pt" height="265pt" viewBox="0 0 500 265"><defs><symbol overflow="visible" id="a"><path d="M4.738-8.14C3.578-6.88 2.121-5.82.36-4.97l.352.63C2.48-5.23 3.91-6.282 5-7.49c1.18 1.272 2.59 2.3 4.25 3.1l.36-.64a14.128 14.128 0 01-4.348-3.11zM2.211-4.98v.69h2.418v1.74H1.73v.69h2.9v1.848H.839V.7h8.333v-.71h-3.8v-1.85h2.89v-.692h-2.89V-4.29h2.417v-.691zm0 0"/></symbol><symbol overflow="visible" id="b"><path d="M2.52-6.121v.652h2.109v1.438h-1.79v.64h1.79v1.59H2.25v.66h5.512v-.66h-2.39v-1.59H7.16v-.64H5.371V-5.47H7.47v-.652zm6.59-1.59H.89V.98h.731V.55H8.38v.43h.73zM1.62-.129V-7.03h6.76v6.9zm4.93-3.05l-.57.19c.238.329.46.72.66 1.169l.558-.258A6.323 6.323 0 006.55-3.18zm0 0"/></symbol><symbol overflow="visible" id="c"><path d="M7.04-4.73h1.51v1.808H7.04zm1.51-.63H7.04v-1.78h1.51zM7.02-2.28h1.53v2.22c0 .278-.12.43-.35.43-.24 0-.49-.02-.759-.043l.168.64h.79C8.94.969 9.21.7 9.21.173V-7.8H6.379v5.082C6.359-1.422 6.07-.339 5.5.5l.52.46c.59-.839.921-1.92 1-3.241zm-5.9-5.67l-.492.46c.68.5 1.21.977 1.59 1.419l.5-.489A11.92 11.92 0 001.12-7.95zm-.2 2.34l-.491.46c.691.53 1.231 1.03 1.621 1.49l.5-.488c-.44-.48-.991-.973-1.628-1.461zm1.03 2.649A33.47 33.47 0 01.56.58l.652.28c.5-1.12.95-2.308 1.36-3.57zm3.762-.64H4.69V-5.5h1.297v-.648H4.691v-1.73H4v1.73H2.7v.648H4v1.898H2.95V.41h.66v-.59h2.1zM3.61-.801v-2.18h1.46V-.8zm0 0"/></symbol><symbol overflow="visible" id="d"><path d="M3.32-8.14v2.769H.672v.691H3.32v3.211c-.89.418-1.82.739-2.8.957L.69.2c.93-.258 1.809-.57 2.63-.949V.93h.738v-9.07zM8.22.84c.43 0 .73-.121.89-.36.16-.25.262-.96.32-2.128l-.679-.223c-.031 1.02-.09 1.61-.172 1.793C8.48.078 8.32.16 8.102.16h-1.25c-.25 0-.372-.148-.372-.43v-3.84c.93-.32 1.91-.788 2.95-1.421l-.418-.59c-.82.57-1.66 1.012-2.532 1.332v-3.352h-.73v7.98c0 .661.309 1 .941 1zm0 0"/></symbol><symbol overflow="visible" id="e"><path d="M5.262-8.32l-.793.14c.203.32.39.68.55 1.07H1.302v2.93C1.28-2.16.98-.59.42.55l.59.528C1.662-.238 2-1.988 2.04-4.18v-2.242h7.41v-.687H5.81c-.18-.45-.36-.852-.547-1.211zm0 0"/></symbol><symbol overflow="visible" id="f"><path d="M.781-6.96v.698h2.14c-.53 1.024-1.1 1.852-1.71 2.512l.168.629h3.46v3c0 .293-.16.441-.468.441-.3 0-.61-.02-.941-.05l.148.71h1.043c.629 0 .95-.308.95-.921v-3.18h3.148v-.668H5.57v-1.48h-.73v1.48h-2.7a14.36 14.36 0 001.57-2.473h5.42v-.699h-5.1c.16-.367.32-.75.48-1.148l-.71-.16c-.18.46-.36.89-.551 1.308zM2.88-2.329A10.003 10.003 0 01.48-.102L.941.5C1.898-.18 2.72-.98 3.38-1.89zm4.33-.011l-.48.461c.95.86 1.7 1.66 2.238 2.419L9.5.02a16.925 16.925 0 00-2.29-2.36zm0 0"/></symbol><symbol overflow="visible" id="g"><path d="M1.23-8l-.511.488c.601.5 1.062.98 1.402 1.434l.5-.5A11.5 11.5 0 001.231-8zM.988-5.61l-.5.489c.602.5 1.082.98 1.422 1.441l.5-.5c-.379-.48-.86-.949-1.422-1.43zm.793 2.66A36.295 36.295 0 01.578.63l.672.293A42.328 42.328 0 002.41-2.71zm3.68-1.081c-.313.18-.633.351-.95.511v-2.152h.91V-6.3h-.91v-1.84H3.81v1.84H2.74v.63h1.07v2.452c-.368.14-.75.27-1.137.38l.168.69c.32-.113.64-.23.969-.363V-.16c0 .32-.11.48-.329.48C3.238.32 3 .3 2.738.281l.153.63h.808c.54 0 .813-.31.813-.911v-2.82c.316-.149.629-.309.949-.48zm3.578-3.95c-.91.36-1.93.56-3.07.583v3.847c-.047 1.7-.36 3.04-.938 4l.489.52c.699-1.13 1.07-2.64 1.12-4.52v-.71h1.282v5.28h.68v-5.28h.968v-.65H6.64v-1.91c1-.058 1.91-.25 2.731-.55zm0 0"/></symbol><symbol overflow="visible" id="h"><path d="M6.07-6.86v6.79h-3v.69h6.48v-.69H6.782v-6.79h2.43v-.68H3.559v.68zM1.25-7.987L.738-7.5c.762.5 1.364.98 1.801 1.43l.5-.5c-.48-.47-1.078-.942-1.789-1.418zM.988-5.602l-.5.493c.75.507 1.34 1 1.762 1.46l.5-.5A11.644 11.644 0 00.988-5.601zM2.27-2.949A28.672 28.672 0 01.61.6l.66.29a30.8 30.8 0 001.628-3.602zm0 0"/></symbol><symbol overflow="visible" id="i"><path d="M1.18-7.95l-.508.5c.738.528 1.328 1.028 1.75 1.5l.52-.51c-.481-.5-1.063-.99-1.762-1.49zM1-5.5l-.512.488c.703.512 1.242 1 1.633 1.461l.508-.52C2.19-4.55 1.649-5.02 1-5.5zm1.11 2.68A30.368 30.368 0 01.59.68l.719.308A31.023 31.023 0 002.762-2.57zm1.062-4.75v.699h4.887V-.18c0 .34-.16.508-.48.508-.477 0-.99-.02-1.52-.047l.16.688h1.61c.62 0 .94-.328.94-.969v-6.871h.782v-.7zm.437 2.23v3.68H6.75v-3.68zm2.47 3.02h-1.79v-2.371h1.79zm0 0"/></symbol><symbol overflow="visible" id="j"><path d="M.55-7.23v.68h4.04c-.059.331-.13.671-.2 1.01H1.103V.989h.707v-5.847h6.4v4.68c0 .28-.14.429-.422.429L6.86.23l.192.7h.98c.59 0 .89-.32.89-.95v-5.52H5.13c.07-.32.14-.651.2-1.01h4.12v-.68H5.441c.04-.29.07-.59.098-.899l-.73-.101-.118 1zm3.33 2.69l-.64.24c.21.312.39.652.542 1.01H2.68v.63h1.968v1.05H2.36v.641h2.29V.84h.703V-.97h2.296v-.64H5.352v-1.05h2v-.63H6.21c.2-.32.39-.67.57-1.062l-.66-.238c-.18.461-.383.89-.601 1.3h-1.05a7.488 7.488 0 00-.59-1.25zm0 0"/></symbol><symbol overflow="visible" id="k"><path d="M9.148-7.191H5.43a9.89 9.89 0 00-.45-1.059l-.8.14c.172.282.32.579.46.919H.84v2.14h.738v-1.437H8.41v1.449h.738zM.602-4.411v.7h2.41c-.32.55-.66 1.11-1.024 1.672.934.3 1.864.648 2.801 1.05C3.73-.178 2.34.232.641.239l.418.672C2.922.852 4.399.328 5.519-.672A35.405 35.405 0 018.7.988L9.18.36a31.218 31.218 0 00-3.14-1.558c.531-.621 1-1.45 1.41-2.512h1.973v-.7H4.25c.238-.44.488-.91.75-1.41l-.738-.218a62.17 62.17 0 01-.864 1.629zm3.257.7H6.66c-.34.883-.78 1.621-1.32 2.211-.79-.328-1.559-.61-2.32-.828.261-.402.539-.863.84-1.383zm0 0"/></symbol><symbol overflow="visible" id="l"><path d="M2.27-8.2c-.4.93-1.032 1.76-1.9 2.482l.207.68c1.063-.84 1.82-1.8 2.3-2.883zm.28 2.27c-.44 1.121-1.14 2.121-2.109 3l.207.66a9.72 9.72 0 00.993-.968V.988h.68v-5.097c.327-.48.6-1 .82-1.551zm1.962-2.242v1.762h-.684V-7.8h-.566v1.972h3.09v-1.973h-.57v1.39H5.09v-1.76zM3.109-5.148v.617H6.25c-.07.133-.14.261-.21.383l.358.457c.211-.297.403-.637.57-1.02.122 1.14.36 2.191.723 3.133A5.9 5.9 0 016.641.129c-.18-.399-.38-.777-.582-1.117l-.48.226c.21.371.41.793.6 1.262L6.41.39l.36.56c.5-.49.92-1.08 1.26-1.77.31.64.701 1.23 1.17 1.76l.45-.52a7.733 7.733 0 01-1.297-2.01c.43-1.2.668-2.641.707-4.34h.39v-.65H7.59c.11-.452.2-.94.282-1.46l-.66-.121c-.18 1.45-.492 2.648-.941 3.59v-.578zm4.301-.743c0-.007 0-.02.012-.039H8.46C8.43-4.62 8.28-3.469 8-2.48c-.34-1-.531-2.141-.59-3.41zM3.46-.898A5.217 5.217 0 012.673.328l.469.344c.308-.383.578-.82.808-1.332zM5.98-2.73l-.511.171c.101.16.203.34.3.54-.597.097-1.199.18-1.789.238.801-.52 1.5-1.117 2.098-1.778l-.558-.21c-.141.16-.29.32-.45.48-.41.039-.82.07-1.218.098.418-.32.796-.68 1.136-1.09L4.441-4.5a7.02 7.02 0 01-1.41 1.352l.13.457c.46-.02.917-.059 1.39-.118-.473.399-.98.77-1.54 1.11l.13.488c.46-.039.93-.09 1.41-.148V.12c0 .16-.082.25-.223.25-.18 0-.367-.02-.558-.043l.128.594h.641c.422 0 .64-.223.64-.64v-1.743l.79-.148c.07.14.14.289.203.449l.5-.219c-.203-.48-.434-.93-.692-1.351zm0 0"/></symbol><symbol overflow="visible" id="m"><path d="M.54-7.738v.699h2.98v1.527H1.14V.941h.72V.488h6.3v.453h.719v-6.453H6.44v-1.527h3.02v-.7zM1.86-.191v-4.637h1.66v.2C3.5-3.27 3-2.282 2.02-1.66l.558.488C3.66-1.898 4.211-3.05 4.23-4.629v-.2h1.5v2.067c0 .653.32.98.98.98h1.45v1.59zM4.23-7.04h1.5v1.527h-1.5zm2.211 2.21h1.72v2.388H6.897c-.308 0-.457-.16-.457-.47zm0 0"/></symbol><symbol overflow="visible" id="n"><path d="M1.54-5.23v3.32h3.089v.691h-3.55v.578h3.55v.75H.579v.63h8.843v-.63h-4.07v-.75H8.93v-.578H5.352v-.691h3.097v-3.32H5.352v-.641h3.93v-.617h-3.93v-.762A73.97 73.97 0 008.46-7.5l-.223-.602c-1.988.223-4.289.372-6.886.454l.117.59c1.101-.044 2.152-.09 3.16-.153v.723H.719v.617h3.91v.64zm6.21 2.742H5.352v-.813H7.75zm-3.121 0H2.23v-.813h2.4zM2.23-3.86v-.79h2.4v.79zm3.122-.79H7.75v.79H5.352zm0 0"/></symbol><symbol overflow="visible" id="o"><path d="M2.531-4.129v.668h2.707C4.84-1.879 3.738-.57 1.961.461l.41.59C4.148-.031 5.301-1.38 5.81-3.012c.56 1.684 1.67 3.024 3.31 4l.43-.566C7.93-.5 6.84-1.801 6.289-3.461H9.25v-.668H6.102c-.024-.05-.032-.11-.043-.172.03-.46.05-1 .05-1.62h-.68c0 .28-.007.683-.007 1.202a19.6 19.6 0 01-.05.59zM5.25-8.23l-.79.14c.22.3.411.621.59.98H1.3v2.91C1.27-2.2.96-.628.36.489l.562.5C1.629-.309 2-2.039 2.039-4.199v-2.223h7.41v-.687H5.83a9.055 9.055 0 00-.58-1.121zm0 0"/></symbol><symbol overflow="visible" id="p"><path d="M8.3-3.27l-.562.348c.563.863 1.012 1.652 1.34 2.363l.55-.402c-.308-.66-.75-1.43-1.327-2.309zm-6.421.098c-.3.82-.738 1.48-1.34 1.98l.54.473c.6-.5 1.081-1.242 1.44-2.203zm2.3-2.45v.95H1.43v.703h2.712c-.082.98-.29 1.797-.653 2.48-.457.778-1.277 1.4-2.457 1.88l.399.64C2.64.551 3.512-.12 4.05-.98c.462-.782.731-1.77.829-2.989H6.94c-.05 1.719-.152 2.848-.3 3.367-.153.512-.461.774-.93.774-.402 0-.82-.012-1.262-.024l.192.68h1.418c.46-.027.793-.2 1.011-.508.2-.32.352-.898.45-1.718.082-.84.128-1.93.171-3.274H4.92v-.95zM.65-7.108v.687h2.26v.902h.73v-.902h2.622v.91h.726v-.91h2.364v-.687H6.988v-1.02h-.726v1.02H3.64v-1.02h-.73v1.02zm0 0"/></symbol><symbol overflow="visible" id="q"><path d="M8.219-6.469V-.55H5.37v-7.558h-.74V-.55H1.77V-6.5h-.718V.8h.719V.14H8.22v.67h.722v-7.28zm0 0"/></symbol><symbol overflow="visible" id="r"><path d="M3.805-7.11h.941v5.036c0 .68-.203 1.21-.613 1.597-.406.383-.953.575-1.633.575-.707 0-1.258-.18-1.648-.543-.395-.36-.594-.867-.594-1.516h.937c0 .406.114.723.336.95.223.23.547.343.969.343.387 0 .7-.121.941-.367.239-.246.36-.586.364-1.028zm0 0"/></symbol><symbol overflow="visible" id="s"><path d="M3.945 0c-.05-.105-.093-.29-.125-.555-.422.434-.922.653-1.507.653-.52 0-.946-.149-1.282-.442a1.438 1.438 0 01-.5-1.12c0-.552.211-.977.63-1.282.417-.305 1.007-.457 1.765-.457h.879v-.414c0-.317-.094-.567-.285-.754-.188-.188-.465-.281-.833-.281-.324 0-.593.082-.812.242-.219.164-.328.36-.328.59H.64c0-.262.093-.516.28-.762.188-.246.442-.441.763-.582.32-.145.671-.219 1.054-.219.61 0 1.086.153 1.434.457.344.305.523.727.535 1.258v2.434c0 .484.063.87.184 1.156V0zm-1.5-.688c.285 0 .555-.074.805-.218a1.35 1.35 0 00.555-.574v-1.083h-.711c-1.106 0-1.656.325-1.656.97 0 .284.093.507.28.663.188.16.43.243.727.243zm0 0"/></symbol><symbol overflow="visible" id="t"><path d="M1.54-5.281l.026.664a1.93 1.93 0 011.582-.766c1.118 0 1.68.633 1.692 1.89V0h-.902v-3.496c-.004-.379-.094-.664-.262-.844-.172-.183-.438-.273-.801-.273-.293 0-.55.078-.77.234a1.59 1.59 0 00-.52.613V0h-.9v-5.281zm0 0"/></symbol><symbol overflow="visible" id="u"><path d="M3.559 0h-.907v-6.02l-1.824.668v-.82l2.59-.973h.14zm0 0"/></symbol><symbol overflow="visible" id="v"><path d="M1.906-3.992h.676c.426-.008.762-.121 1.008-.34.242-.219.363-.512.363-.883 0-.832-.414-1.25-1.242-1.25-.39 0-.703.113-.938.336-.23.223-.347.516-.347.887H.523c0-.563.204-1.031.618-1.406.41-.372.933-.559 1.57-.559.672 0 1.195.176 1.578.531.379.356.57.848.57 1.48 0 .31-.101.61-.3.9a1.81 1.81 0 01-.817.648c.39.125.692.328.903.617.214.285.32.636.32 1.047 0 .64-.207 1.144-.625 1.52-.418.374-.957.562-1.625.562s-1.211-.18-1.63-.543c-.417-.36-.624-.836-.624-1.43h.906c0 .375.121.672.367.898.243.227.57.336.98.336.438 0 .77-.113 1-.34.231-.23.349-.554.349-.98 0-.414-.125-.734-.383-.953-.254-.223-.618-.336-1.098-.344h-.676zm0 0"/></symbol><symbol overflow="visible" id="w"><path d="M5.25 0H.59v-.648l2.46-2.735c.364-.414.618-.75.755-1.008.14-.257.21-.527.21-.804 0-.371-.113-.676-.34-.914-.222-.239-.523-.356-.898-.356-.449 0-.797.13-1.047.383-.25.254-.37.613-.37 1.066H.452c0-.652.211-1.183.633-1.586.422-.402.984-.605 1.691-.605.66 0 1.184.172 1.567.52.386.347.578.808.578 1.382 0 .703-.445 1.535-1.336 2.5L1.68-.738h3.57zm0 0"/></symbol><symbol overflow="visible" id="x"><path d="M5.047-3.031c0 1.058-.18 1.844-.54 2.36-.362.51-.925.769-1.694.769-.758 0-1.32-.25-1.684-.754C.766-1.16.574-1.91.562-2.91v-1.207c0-1.043.18-1.82.54-2.328.363-.508.93-.762 1.703-.762.765 0 1.328.246 1.687.734.36.489.547 1.246.555 2.27zm-.902-1.235c0-.765-.106-1.324-.32-1.675-.216-.348-.555-.524-1.02-.524-.465 0-.801.176-1.012.524-.211.347-.32.882-.328 1.605v1.445c0 .77.113 1.336.336 1.704.222.367.558.546 1.012.546.445 0 .777-.171.992-.515.218-.344.332-.89.34-1.633zm0 0"/></symbol><symbol overflow="visible" id="y"><path d="M5.18-6.602L2.234 0H1.29l2.934-6.367H.375v-.742H5.18zm0 0"/></symbol><symbol overflow="visible" id="z"><path d="M4.746-3.14H1.762V0H.824v-7.11H5.23v.774H1.762v2.43h2.984zm0 0"/></symbol><symbol overflow="visible" id="A"><path d="M2.875.098c-.715 0-1.297-.235-1.746-.707-.45-.47-.676-1.098-.676-1.887v-.164c0-.524.102-.992.3-1.406.2-.41.481-.735.84-.965.36-.235.75-.352 1.173-.352.687 0 1.218.227 1.601.68.38.453.57 1.101.57 1.945v.375H1.36c.012.52.164.942.454 1.262.292.32.664.48 1.113.48.316 0 .59-.062.808-.195.223-.129.414-.3.582-.516l.551.43c-.441.68-1.105 1.02-1.992 1.02zm-.11-4.739a1.21 1.21 0 00-.921.399c-.246.265-.399.64-.457 1.117H4.03v-.07c-.023-.457-.148-.813-.367-1.067-.223-.25-.523-.379-.898-.379zm0 0"/></symbol><symbol overflow="visible" id="B"><path d="M5.156-2.582c0 .809-.187 1.453-.554 1.945-.372.489-.872.735-1.497.735-.667 0-1.183-.235-1.546-.707L1.516 0H.684v-7.5h.902v2.797c.367-.453.867-.68 1.508-.68.64 0 1.148.246 1.511.73.368.485.551 1.15.551 1.993zm-.902-.106c0-.613-.121-1.09-.356-1.421-.238-.336-.582-.504-1.027-.504-.598 0-1.023.277-1.285.828V-1.5c.277.555.71.832 1.297.832.43 0 .77-.168 1.008-.504.242-.336.363-.84.363-1.516zm0 0"/></symbol><symbol overflow="visible" id="C"><path d="M3.965-2.148h.887v.664h-.887V0h-.817v-1.484H.234v-.48l2.864-4.434h.867zm-2.809 0h1.992v-3.137l-.097.176zm0 0"/></symbol><symbol overflow="visible" id="D"><path d="M.906-3.207l.324-3.191h3.278v.75H1.922l-.195 1.746a2.081 2.081 0 011.07-.278c.582 0 1.043.192 1.387.578.343.387.515.907.515 1.563 0 .66-.18 1.18-.535 1.559-.355.378-.851.566-1.492.566-.567 0-1.027-.156-1.383-.469-.36-.312-.562-.746-.613-1.3h.77c.05.367.179.644.39.828.21.187.492.28.836.28.379 0 .676-.128.89-.386.215-.258.32-.617.32-1.07 0-.426-.112-.77-.347-1.031-.234-.258-.543-.387-.93-.387-.355 0-.632.078-.835.23l-.215.18zm0 0"/></symbol></defs><path d="M33.145 248.32V4m12.609 244.32V4m12.609 244.32V4m12.61 244.32V4m12.613 244.32V4m12.609 244.32V4m12.61 244.32V4m12.609 244.32V4m12.609 244.32V4m12.61 244.32V4m12.613 244.32V4m12.609 244.32V4m12.61 244.32V4m12.609 244.32V4m12.61 244.32V4m12.613 244.32V4m12.609 244.32V4m12.61 244.32V4m12.609 244.32V4m12.609 244.32V4m12.61 244.32V4m12.613 244.32V4m12.609 244.32V4m12.61 244.32V4m12.609 244.32V4m12.61 244.32V4m12.609 244.32V4m12.613 244.32V4m12.61 244.32V4m12.609 244.32V4m12.609 244.32V4m12.61 244.32V4M25 231.871h407.2M25 187.5h407.2M25 143.125h407.2M25 98.75h407.2M25 54.375h407.2" fill="none" stroke="#666" stroke-opacity=".5" stroke-dasharray="1,2" stroke-miterlimit="3.25"/><path d="M361.004 32.469l12.613-1.946 12.61-1.828 12.609-1.726 12.61-1.64 12.609-1.563" fill="none" stroke-width="1.6" stroke-linecap="square" stroke="#a60000" stroke-opacity=".3" stroke-miterlimit="3.25"/><path d="M361.004 39.082l12.613-2.164 12.61-2.008 12.609-1.879 12.61-1.773 12.609-1.672" fill="none" stroke-width="1.6" stroke-linecap="square" stroke="#0d86a0" stroke-opacity=".3" stroke-miterlimit="3.25"/><path d="M361.004 98.406l12.613-1.422 12.61-1.367 12.609-1.328 12.61-1.277 12.609-1.242" fill="none" stroke-width="1.6" stroke-linecap="square" stroke="#c05c20" stroke-opacity=".3" stroke-miterlimit="3.25"/><path d="M361.004 98.637l12.613-1.008 12.61-.992 12.609-.977 12.61-.96 12.609-.95" fill="none" stroke-width="1.6" stroke-linecap="square" stroke="#6f42b5" stroke-opacity=".3" stroke-miterlimit="3.25"/><path d="M361.004 100.484l12.613-1.379 12.61-1.332 12.609-1.285 12.61-1.246 12.609-1.21" fill="none" stroke-width="1.6" stroke-linecap="square" stroke="#769003" stroke-opacity=".3" stroke-miterlimit="3.25"/><path d="M361.004 103.738l12.613-1.465 12.61-1.43 12.609-1.374 12.61-1.332 12.609-1.285" fill="none" stroke-width="1.6" stroke-linecap="square" stroke="#a8364d" stroke-opacity=".3" stroke-miterlimit="3.25"/><path d="M361.004 106.613l12.613-2.015 12.61-1.926 12.609-1.8 12.61-1.712 12.609-1.625" fill="none" stroke-width="1.6" stroke-linecap="square" stroke="#3664cc" stroke-opacity=".3" stroke-miterlimit="3.25"/><path d="M361.004 106.7l12.613-1.759 12.61-1.671 12.609-1.594 12.61-1.52 12.609-1.457" fill="none" stroke-width="1.6" stroke-linecap="square" stroke="#c8860a" stroke-opacity=".3" stroke-miterlimit="3.25"/><path d="M361.004 115.887l12.613-1.067 12.61-1.043 12.609-1.023 12.61-1.004 12.609-.988" fill="none" stroke-width="1.6" stroke-linecap="square" stroke="#833987" stroke-opacity=".3" stroke-miterlimit="3.25"/><path d="M361.004 116.027l12.613-1.652 12.61-1.574 12.609-1.508 12.61-1.45 12.609-1.39" fill="none" stroke-width="1.6" stroke-linecap="square" stroke="#1c8f6b" stroke-opacity=".3" stroke-miterlimit="3.25"/><path d="M361.004 117.45l12.613-2 12.61-1.81 12.609-1.73 12.61-1.629 12.609-1.55" fill="none" stroke-width="1.6" stroke-linecap="square" stroke="#a54f05" stroke-opacity=".3" stroke-miterlimit="3.25"/><path d="M33.145 160.305h50.44l12.61-1.793 12.61-6.176 12.61-12.887 12.608-9.586 12.61-7.324 12.613-7.969 12.61-5.02 12.609-7.21 12.61-8.258 12.609-8.32 12.613-6.371 12.61-9.633 12.609-5.41 12.609-4.93 12.61-4.414 12.609-3.79 12.613-3.827 12.61-3.461 12.609-3.324 12.61-3.356 12.609-2.723 12.609-2.054" fill="none" stroke-width="1.6" stroke-linecap="square" stroke="#a60000" stroke-miterlimit="3.25"/><path d="M33.145 160.305h50.44l12.61-1.793 12.61-6.176 12.61-12.887 12.608-9.488 12.61-5.977 12.613-6.332 12.61-3.254 12.609-4.093 12.61-5.465 12.609-7.067 12.613-5.82 12.61-12.445 12.609-5.195 12.609-4.915 12.61-4.543 12.609-4.023 12.613-4.582 12.61-4.02 12.609-3.667 12.61-4.043 12.609-3.176 12.609-2.262" fill="none" stroke-width="1.6" stroke-linecap="square" stroke="#0d86a0" stroke-miterlimit="3.25"/><path d="M134.023 231.871l12.61-50.855 12.613-11.93 12.61-4.004 12.609-9.723 12.61-7.445 12.609-4.402 12.613-7.68 12.61-4.875 12.609-4.785 12.609-4.914 12.61-4.508 12.609-5.398 12.613-2.887 12.61-2.367 12.609-2.977 12.61-1.687 12.609-1.575 12.609-1.453" fill="none" stroke-width="1.6" stroke-linecap="square" stroke="#c05c20" stroke-miterlimit="3.25"/><path d="M159.246 200.855l12.61-13.355 12.609-28.11 12.61-7.054 12.609-9.969 12.613-4 12.61-5.804 12.609-10.352 12.609-7.106 12.61-4.375 12.609-2.105 12.613-1.895 12.61-1.757 12.609-2.61 12.61-1.476 12.609-1.23 12.609-1.02" fill="none" stroke-width="1.6" stroke-linecap="square" stroke="#6f42b5" stroke-miterlimit="3.25"/><path d="M159.246 231.871l12.61-31.016 12.609-11.328 12.61-24.445 12.609-18.367 12.613-8.348 12.61-5.242 12.609-3.93 12.609-5.773 12.61-4.55 12.609-3.497 12.613-2.996 12.61-2.66 12.609-3.395 12.61-2.386 12.609-2.079 12.609-1.375" fill="none" stroke-width="1.6" stroke-linecap="square" stroke="#769003" stroke-miterlimit="3.25"/><path d="M159.246 231.871l12.61-42.344 12.609-18.902 12.61-11.234 12.609-9.118 12.613-7.148 12.61-6.895 12.609-8.386 12.609-4.356 12.61-3.488 12.609-3.055 12.613-3.355 12.61-2.274 12.609-2.496 12.61-2.09 12.609-1.406 12.609-1.586" fill="none" stroke-width="1.6" stroke-linecap="square" stroke="#a8364d" stroke-miterlimit="3.25"/><path d="M171.855 231.871l12.61-52.187 12.61-18.414 12.609-8.301 12.613-2.973 12.61-7.996 12.609-6.945 12.609-5.29 12.61-3.269 12.609-4.351 12.613-2.606 12.61-3.512 12.609-3.132 12.61-1.91 12.609-2.098 12.609-2.274" fill="none" stroke-width="1.6" stroke-linecap="square" stroke="#3664cc" stroke-miterlimit="3.25"/><path d="M159.246 218.516l12.61-7.817 12.609-16.328 12.61-18.2 12.609-13.358 12.613-5.543 12.61-7.817 12.609-7.988 12.609-7.637 12.61-7.496 12.609-3.457 12.613-2.934 12.61-3.144 12.609-3.781 12.61-2.711 12.609-1.743 12.609-1.863" fill="none" stroke-width="1.6" stroke-linecap="square" stroke="#c8860a" stroke-miterlimit="3.25"/><path d="M159.246 200.855l12.61-11.328 12.609-21.172 12.61-14.398 12.609-5.289 12.613-7.379 12.61-3.516 12.609-2.074 12.609-2.226 12.61-4.278 12.609-2.78 12.613-1.853 12.61-2.609 12.609-2.242 12.61-1.59 12.609-1.176 12.609-1.058" fill="none" stroke-width="1.6" stroke-linecap="square" stroke="#833987" stroke-miterlimit="3.25"/><path d="M171.855 231.871l12.61-42.344 12.61-13.355 12.609-10.477 12.613-8.02 12.61-7.679 12.609-6.68 12.609-5.097 12.61-5.094 12.609-3.55 12.613-2.997 12.61-2.668 12.609-2.465 12.61-1.96 12.609-1.731 12.609-1.727" fill="none" stroke-width="1.6" stroke-linecap="square" stroke="#1c8f6b" stroke-miterlimit="3.25"/><path d="M159.246 231.871l12.61-34.527 12.609-7.817 12.61-16.328 12.609-11.93 12.613-9.242 12.61-6.218 12.609-6.36 12.609-3.484 12.61-3.953 12.609-2.438 12.613-2.078 12.61-1.719 12.609-1.793 12.61-1.902 12.609-2.71 12.609-1.923" fill="none" stroke-width="1.6" stroke-linecap="square" stroke="#a54f05" stroke-miterlimit="3.25"/><path d="M362.492 32c0-.395-.156-.777-.437-1.055a1.483 1.483 0 00-1.055-.437 1.49 1.49 0 00-1.055 2.547 1.49 1.49 0 002.11 0c.28-.278.437-.66.437-1.055zm13-1c0-.395-.156-.777-.437-1.055a1.483 1.483 0 00-1.055-.437 1.49 1.49 0 00-1.055 2.547 1.49 1.49 0 002.11 0c.28-.278.437-.66.437-1.055zm12-2c0-.395-.156-.777-.437-1.055a1.483 1.483 0 00-1.055-.437 1.49 1.49 0 00-1.055 2.547 1.49 1.49 0 002.11 0c.28-.278.437-.66.437-1.055zm13-2c0-.395-.156-.777-.437-1.055a1.483 1.483 0 00-1.055-.437 1.49 1.49 0 00-1.055 2.547 1.49 1.49 0 002.11 0c.28-.278.437-.66.437-1.055zm12-2c0-.395-.156-.777-.437-1.055a1.483 1.483 0 00-1.055-.437 1.49 1.49 0 00-1.055 2.547 1.49 1.49 0 002.11 0c.28-.278.437-.66.437-1.055zm13-1c0-.395-.156-.777-.437-1.055a1.483 1.483 0 00-1.055-.437 1.49 1.49 0 00-1.055 2.547 1.49 1.49 0 002.11 0c.28-.278.437-.66.437-1.055zm0 0" fill-rule="evenodd" fill="#a60000" fill-opacity=".3"/><path d="M362.492 39c0-.395-.156-.777-.437-1.055a1.483 1.483 0 00-1.055-.437 1.49 1.49 0 00-1.055 2.547 1.49 1.49 0 002.11 0c.28-.278.437-.66.437-1.055zm13-2c0-.395-.156-.777-.437-1.055a1.483 1.483 0 00-1.055-.437 1.49 1.49 0 00-1.055 2.547 1.49 1.49 0 002.11 0c.28-.278.437-.66.437-1.055zm12-2c0-.395-.156-.777-.437-1.055a1.483 1.483 0 00-1.055-.437 1.49 1.49 0 00-1.055 2.547 1.49 1.49 0 002.11 0c.28-.278.437-.66.437-1.055zm13-2c0-.395-.156-.777-.437-1.055a1.483 1.483 0 00-1.055-.437 1.49 1.49 0 00-1.055 2.547 1.49 1.49 0 002.11 0c.28-.278.437-.66.437-1.055zm12-2c0-.395-.156-.777-.437-1.055a1.483 1.483 0 00-1.055-.437 1.49 1.49 0 00-1.055 2.547 1.49 1.49 0 002.11 0c.28-.278.437-.66.437-1.055zm13-1c0-.395-.156-.777-.437-1.055a1.483 1.483 0 00-1.055-.437 1.49 1.49 0 00-1.055 2.547 1.49 1.49 0 002.11 0c.28-.278.437-.66.437-1.055zm0 0" fill-rule="evenodd" fill="#0d86a0" fill-opacity=".3"/><path d="M362.492 98c0-.395-.156-.777-.437-1.055a1.483 1.483 0 00-1.055-.437 1.49 1.49 0 00-1.055 2.547 1.49 1.49 0 002.11 0c.28-.278.437-.66.437-1.055zm13-1c0-.395-.156-.777-.437-1.055a1.483 1.483 0 00-1.055-.437 1.49 1.49 0 00-1.055 2.547 1.49 1.49 0 002.11 0c.28-.278.437-.66.437-1.055zm12-1c0-.395-.156-.777-.437-1.055a1.483 1.483 0 00-1.055-.437 1.49 1.49 0 00-1.055 2.547 1.49 1.49 0 002.11 0c.28-.278.437-.66.437-1.055zm13-2c0-.395-.156-.777-.437-1.055a1.483 1.483 0 00-1.055-.437 1.49 1.49 0 00-1.055 2.547 1.49 1.49 0 002.11 0c.28-.278.437-.66.437-1.055zm12-1c0-.395-.156-.777-.437-1.055a1.483 1.483 0 00-1.055-.437 1.49 1.49 0 00-1.055 2.547 1.49 1.49 0 002.11 0c.28-.278.437-.66.437-1.055zm13-1c0-.395-.156-.777-.437-1.055a1.483 1.483 0 00-1.055-.437 1.49 1.49 0 00-1.055 2.547 1.49 1.49 0 002.11 0c.28-.278.437-.66.437-1.055zm0 0" fill-rule="evenodd" fill="#c05c20" fill-opacity=".3"/><path d="M362.492 99c0-.395-.156-.777-.437-1.055a1.483 1.483 0 00-1.055-.437 1.49 1.49 0 00-1.055 2.547 1.49 1.49 0 002.11 0c.28-.278.437-.66.437-1.055zm13-1c0-.395-.156-.777-.437-1.055a1.483 1.483 0 00-1.055-.437 1.49 1.49 0 00-1.055 2.547 1.49 1.49 0 002.11 0c.28-.278.437-.66.437-1.055zm12-1c0-.395-.156-.777-.437-1.055a1.483 1.483 0 00-1.055-.437 1.49 1.49 0 00-1.055 2.547 1.49 1.49 0 002.11 0c.28-.278.437-.66.437-1.055zm13-1c0-.395-.156-.777-.437-1.055a1.483 1.483 0 00-1.055-.437 1.49 1.49 0 00-1.055 2.547 1.49 1.49 0 002.11 0c.28-.278.437-.66.437-1.055zm12-1c0-.395-.156-.777-.437-1.055a1.483 1.483 0 00-1.055-.437 1.49 1.49 0 00-1.055 2.547 1.49 1.49 0 002.11 0c.28-.278.437-.66.437-1.055zm13-1c0-.395-.156-.777-.437-1.055a1.483 1.483 0 00-1.055-.437 1.49 1.49 0 00-1.055 2.547 1.49 1.49 0 002.11 0c.28-.278.437-.66.437-1.055zm0 0" fill-rule="evenodd" fill="#6f42b5" fill-opacity=".3"/><path d="M362.492 100c0-.395-.156-.777-.437-1.055a1.483 1.483 0 00-1.055-.437 1.49 1.49 0 00-1.055 2.547 1.49 1.49 0 002.11 0c.28-.278.437-.66.437-1.055zm13-1c0-.395-.156-.777-.437-1.055a1.483 1.483 0 00-1.055-.437 1.49 1.49 0 00-1.055 2.547 1.49 1.49 0 002.11 0c.28-.278.437-.66.437-1.055zm12-1c0-.395-.156-.777-.437-1.055a1.483 1.483 0 00-1.055-.437 1.49 1.49 0 00-1.055 2.547 1.49 1.49 0 002.11 0c.28-.278.437-.66.437-1.055zm13-2c0-.395-.156-.777-.437-1.055a1.483 1.483 0 00-1.055-.437 1.49 1.49 0 00-1.055 2.547 1.49 1.49 0 002.11 0c.28-.278.437-.66.437-1.055zm12-1c0-.395-.156-.777-.437-1.055a1.483 1.483 0 00-1.055-.437 1.49 1.49 0 00-1.055 2.547 1.49 1.49 0 002.11 0c.28-.278.437-.66.437-1.055zm13-1c0-.395-.156-.777-.437-1.055a1.483 1.483 0 00-1.055-.437 1.49 1.49 0 00-1.055 2.547 1.49 1.49 0 002.11 0c.28-.278.437-.66.437-1.055zm0 0" fill-rule="evenodd" fill="#769003" fill-opacity=".3"/><path d="M362.492 104c0-.395-.156-.777-.437-1.055a1.483 1.483 0 00-1.055-.437 1.49 1.49 0 00-1.055 2.547 1.49 1.49 0 002.11 0c.28-.278.437-.66.437-1.055zm13-2c0-.395-.156-.777-.437-1.055a1.483 1.483 0 00-1.055-.437 1.49 1.49 0 00-1.055 2.547 1.49 1.49 0 002.11 0c.28-.278.437-.66.437-1.055zm12-1c0-.395-.156-.777-.437-1.055a1.483 1.483 0 00-1.055-.437 1.49 1.49 0 00-1.055 2.547 1.49 1.49 0 002.11 0c.28-.278.437-.66.437-1.055zm13-2c0-.395-.156-.777-.437-1.055a1.483 1.483 0 00-1.055-.437 1.49 1.49 0 00-1.055 2.547 1.49 1.49 0 002.11 0c.28-.278.437-.66.437-1.055zm12-1c0-.395-.156-.777-.437-1.055a1.483 1.483 0 00-1.055-.437 1.49 1.49 0 00-1.055 2.547 1.49 1.49 0 002.11 0c.28-.278.437-.66.437-1.055zm13-1c0-.395-.156-.777-.437-1.055a1.483 1.483 0 00-1.055-.437 1.49 1.49 0 00-1.055 2.547 1.49 1.49 0 002.11 0c.28-.278.437-.66.437-1.055zm0 0" fill-rule="evenodd" fill="#a8364d" fill-opacity=".3"/><path d="M362.492 107c0-.395-.156-.777-.437-1.055a1.483 1.483 0 00-1.055-.437 1.49 1.49 0 00-1.055 2.547 1.49 1.49 0 002.11 0c.28-.278.437-.66.437-1.055zm13-2c0-.395-.156-.777-.437-1.055a1.483 1.483 0 00-1.055-.437 1.49 1.49 0 00-1.055 2.547 1.49 1.49 0 002.11 0c.28-.278.437-.66.437-1.055zm12-2c0-.395-.156-.777-.437-1.055a1.483 1.483 0 00-1.055-.437 1.49 1.49 0 00-1.055 2.547 1.49 1.49 0 002.11 0c.28-.278.437-.66.437-1.055zm13-2c0-.395-.156-.777-.437-1.055a1.483 1.483 0 00-1.055-.437 1.49 1.49 0 00-1.055 2.547 1.49 1.49 0 002.11 0c.28-.278.437-.66.437-1.055zm12-2c0-.395-.156-.777-.437-1.055a1.483 1.483 0 00-1.055-.437 1.49 1.49 0 00-1.055 2.547 1.49 1.49 0 002.11 0c.28-.278.437-.66.437-1.055zm13-1c0-.395-.156-.777-.437-1.055a1.483 1.483 0 00-1.055-.437 1.49 1.49 0 00-1.055 2.547 1.49 1.49 0 002.11 0c.28-.278.437-.66.437-1.055zm0 0" fill-rule="evenodd" fill="#3664cc" fill-opacity=".3"/><path d="M362.492 107c0-.395-.156-.777-.437-1.055a1.483 1.483 0 00-1.055-.437 1.49 1.49 0 00-1.055 2.547 1.49 1.49 0 002.11 0c.28-.278.437-.66.437-1.055zm13-2c0-.395-.156-.777-.437-1.055a1.483 1.483 0 00-1.055-.437 1.49 1.49 0 00-1.055 2.547 1.49 1.49 0 002.11 0c.28-.278.437-.66.437-1.055zm12-2c0-.395-.156-.777-.437-1.055a1.483 1.483 0 00-1.055-.437 1.49 1.49 0 00-1.055 2.547 1.49 1.49 0 002.11 0c.28-.278.437-.66.437-1.055zm13-1c0-.395-.156-.777-.437-1.055a1.483 1.483 0 00-1.055-.437 1.49 1.49 0 00-1.055 2.547 1.49 1.49 0 002.11 0c.28-.278.437-.66.437-1.055zm12-2c0-.395-.156-.777-.437-1.055a1.483 1.483 0 00-1.055-.437 1.49 1.49 0 00-1.055 2.547 1.49 1.49 0 002.11 0c.28-.278.437-.66.437-1.055zm13-1c0-.395-.156-.777-.437-1.055a1.483 1.483 0 00-1.055-.437 1.49 1.49 0 00-1.055 2.547 1.49 1.49 0 002.11 0c.28-.278.437-.66.437-1.055zm0 0" fill-rule="evenodd" fill="#c8860a" fill-opacity=".3"/><path d="M362.492 116c0-.395-.156-.777-.437-1.055a1.483 1.483 0 00-1.055-.437 1.49 1.49 0 00-1.055 2.547 1.49 1.49 0 002.11 0c.28-.278.437-.66.437-1.055zm13-1c0-.395-.156-.777-.437-1.055a1.483 1.483 0 00-1.055-.437 1.49 1.49 0 00-1.055 2.547 1.49 1.49 0 002.11 0c.28-.278.437-.66.437-1.055zm12-1c0-.395-.156-.777-.437-1.055a1.483 1.483 0 00-1.055-.437 1.49 1.49 0 00-1.055 2.547 1.49 1.49 0 002.11 0c.28-.278.437-.66.437-1.055zm13-1c0-.395-.156-.777-.437-1.055a1.483 1.483 0 00-1.055-.437 1.49 1.49 0 00-1.055 2.547 1.49 1.49 0 002.11 0c.28-.278.437-.66.437-1.055zm12-1c0-.395-.156-.777-.437-1.055a1.483 1.483 0 00-1.055-.437 1.49 1.49 0 00-1.055 2.547 1.49 1.49 0 002.11 0c.28-.278.437-.66.437-1.055zm13-1c0-.395-.156-.777-.437-1.055a1.483 1.483 0 00-1.055-.437 1.49 1.49 0 00-1.055 2.547 1.49 1.49 0 002.11 0c.28-.278.437-.66.437-1.055zm0 0" fill-rule="evenodd" fill="#833987" fill-opacity=".3"/><path d="M362.492 116c0-.395-.156-.777-.437-1.055a1.483 1.483 0 00-1.055-.437 1.49 1.49 0 00-1.055 2.547 1.49 1.49 0 002.11 0c.28-.278.437-.66.437-1.055zm13-2c0-.395-.156-.777-.437-1.055a1.483 1.483 0 00-1.055-.437 1.49 1.49 0 00-1.055 2.547 1.49 1.49 0 002.11 0c.28-.278.437-.66.437-1.055zm12-1c0-.395-.156-.777-.437-1.055a1.483 1.483 0 00-1.055-.437 1.49 1.49 0 00-1.055 2.547 1.49 1.49 0 002.11 0c.28-.278.437-.66.437-1.055zm13-2c0-.395-.156-.777-.437-1.055a1.483 1.483 0 00-1.055-.437 1.49 1.49 0 00-1.055 2.547 1.49 1.49 0 002.11 0c.28-.278.437-.66.437-1.055zm12-1c0-.395-.156-.777-.437-1.055a1.483 1.483 0 00-1.055-.437 1.49 1.49 0 00-1.055 2.547 1.49 1.49 0 002.11 0c.28-.278.437-.66.437-1.055zm13-2c0-.395-.156-.777-.437-1.055a1.483 1.483 0 00-1.055-.437 1.49 1.49 0 00-1.055 2.547 1.49 1.49 0 002.11 0c.28-.278.437-.66.437-1.055zm0 0" fill-rule="evenodd" fill="#1c8f6b" fill-opacity=".3"/><path d="M362.492 117c0-.395-.156-.777-.437-1.055a1.483 1.483 0 00-1.055-.437 1.49 1.49 0 00-1.055 2.547 1.49 1.49 0 002.11 0c.28-.278.437-.66.437-1.055zm13-2c0-.395-.156-.777-.437-1.055a1.483 1.483 0 00-1.055-.437 1.49 1.49 0 00-1.055 2.547 1.49 1.49 0 002.11 0c.28-.278.437-.66.437-1.055zm12-1c0-.395-.156-.777-.437-1.055a1.483 1.483 0 00-1.055-.437 1.49 1.49 0 00-1.055 2.547 1.49 1.49 0 002.11 0c.28-.278.437-.66.437-1.055zm13-2c0-.395-.156-.777-.437-1.055a1.483 1.483 0 00-1.055-.437 1.49 1.49 0 00-1.055 2.547 1.49 1.49 0 002.11 0c.28-.278.437-.66.437-1.055zm12-2c0-.395-.156-.777-.437-1.055a1.483 1.483 0 00-1.055-.437 1.49 1.49 0 00-1.055 2.547 1.49 1.49 0 002.11 0c.28-.278.437-.66.437-1.055zm13-1c0-.395-.156-.777-.437-1.055a1.483 1.483 0 00-1.055-.437 1.49 1.49 0 00-1.055 2.547 1.49 1.49 0 002.11 0c.28-.278.437-.66.437-1.055zm0 0" fill-rule="evenodd" fill="#a54f05" fill-opacity=".3"/><path d="M34.492 160c0-.395-.156-.777-.437-1.055a1.483 1.483 0 00-1.055-.437 1.49 1.49 0 00-1.055 2.547 1.49 1.49 0 002.11 0c.28-.278.437-.66.437-1.055zm13 0c0-.395-.156-.777-.437-1.055a1.483 1.483 0 00-1.055-.437 1.49 1.49 0 00-1.055 2.547 1.49 1.49 0 002.11 0c.28-.278.437-.66.437-1.055zm12 0c0-.395-.156-.777-.437-1.055a1.483 1.483 0 00-1.055-.437 1.49 1.49 0 00-1.055 2.547 1.49 1.49 0 002.11 0c.28-.278.437-.66.437-1.055zm13 0c0-.395-.156-.777-.437-1.055a1.483 1.483 0 00-1.055-.437 1.49 1.49 0 00-1.055 2.547 1.49 1.49 0 002.11 0c.28-.278.437-.66.437-1.055zm13 0c0-.395-.156-.777-.437-1.055a1.483 1.483 0 00-1.055-.437 1.49 1.49 0 00-1.055 2.547 1.49 1.49 0 002.11 0c.28-.278.437-.66.437-1.055zm12-1c0-.395-.156-.777-.437-1.055a1.483 1.483 0 00-1.055-.437 1.49 1.49 0 00-1.055 2.547 1.49 1.49 0 002.11 0c.28-.278.437-.66.437-1.055zm13-7c0-.395-.156-.777-.437-1.055a1.483 1.483 0 00-1.055-.437 1.49 1.49 0 00-1.055 2.547 1.49 1.49 0 002.11 0c.28-.278.437-.66.437-1.055zm12-13c0-.395-.156-.777-.437-1.055a1.483 1.483 0 00-1.055-.437 1.49 1.49 0 00-1.055 2.547 1.49 1.49 0 002.11 0c.28-.278.437-.66.437-1.055zm13-9c0-.395-.156-.777-.437-1.055a1.483 1.483 0 00-1.055-.437 1.49 1.49 0 00-1.055 2.547 1.49 1.49 0 002.11 0c.28-.278.437-.66.437-1.055zm13-7c0-.395-.156-.777-.437-1.055a1.483 1.483 0 00-1.055-.437 1.49 1.49 0 00-1.055 2.547 1.49 1.49 0 002.11 0c.28-.278.437-.66.437-1.055zm12-8c0-.395-.156-.777-.437-1.055a1.483 1.483 0 00-1.055-.437 1.49 1.49 0 00-1.055 2.547 1.49 1.49 0 002.11 0c.28-.278.437-.66.437-1.055zm13-5c0-.395-.156-.777-.437-1.055a1.483 1.483 0 00-1.055-.437 1.49 1.49 0 00-1.055 2.547 1.49 1.49 0 002.11 0c.28-.278.437-.66.437-1.055zm12-8c0-.395-.156-.777-.437-1.055a1.483 1.483 0 00-1.055-.437 1.49 1.49 0 00-1.055 2.547 1.49 1.49 0 002.11 0c.28-.278.437-.66.437-1.055zm13-8c0-.395-.156-.777-.437-1.055a1.483 1.483 0 00-1.055-.437 1.49 1.49 0 00-1.055 2.547 1.49 1.49 0 002.11 0c.28-.278.437-.66.437-1.055zm13-8c0-.395-.156-.777-.437-1.055a1.483 1.483 0 00-1.055-.437 1.49 1.49 0 00-1.055 2.547 1.49 1.49 0 002.11 0c.28-.278.437-.66.437-1.055zm12-7c0-.395-.156-.777-.437-1.055a1.483 1.483 0 00-1.055-.437 1.49 1.49 0 00-1.055 2.547 1.49 1.49 0 002.11 0c.28-.278.437-.66.437-1.055zm13-9c0-.395-.156-.777-.437-1.055a1.483 1.483 0 00-1.055-.437 1.49 1.49 0 00-1.055 2.547 1.49 1.49 0 002.11 0c.28-.278.437-.66.437-1.055zm13-6c0-.395-.156-.777-.437-1.055a1.483 1.483 0 00-1.055-.437 1.49 1.49 0 00-1.055 2.547 1.49 1.49 0 002.11 0c.28-.278.437-.66.437-1.055zm12-5c0-.395-.156-.777-.437-1.055a1.483 1.483 0 00-1.055-.437 1.49 1.49 0 00-1.055 2.547 1.49 1.49 0 002.11 0c.28-.278.437-.66.437-1.055zm13-4c0-.395-.156-.777-.437-1.055a1.483 1.483 0 00-1.055-.437 1.49 1.49 0 00-1.055 2.547 1.49 1.49 0 002.11 0c.28-.278.437-.66.437-1.055zm12-4c0-.395-.156-.777-.437-1.055a1.483 1.483 0 00-1.055-.437 1.49 1.49 0 00-1.055 2.547 1.49 1.49 0 002.11 0c.28-.278.437-.66.437-1.055zm13-4c0-.395-.156-.777-.437-1.055a1.483 1.483 0 00-1.055-.437 1.49 1.49 0 00-1.055 2.547 1.49 1.49 0 002.11 0c.28-.278.437-.66.437-1.055zm13-3c0-.395-.156-.777-.437-1.055a1.483 1.483 0 00-1.055-.437 1.49 1.49 0 00-1.055 2.547 1.49 1.49 0 002.11 0c.28-.278.437-.66.437-1.055zm12-3c0-.395-.156-.777-.437-1.055a1.483 1.483 0 00-1.055-.437 1.49 1.49 0 00-1.055 2.547 1.49 1.49 0 002.11 0c.28-.278.437-.66.437-1.055zm13-4c0-.395-.156-.777-.437-1.055a1.483 1.483 0 00-1.055-.437 1.49 1.49 0 00-1.055 2.547 1.49 1.49 0 002.11 0c.28-.278.437-.66.437-1.055zm12-2c0-.395-.156-.777-.437-1.055a1.483 1.483 0 00-1.055-.437 1.49 1.49 0 00-1.055 2.547 1.49 1.49 0 002.11 0c.28-.278.437-.66.437-1.055zm13-3c0-.395-.156-.777-.437-1.055a1.483 1.483 0 00-1.055-.437 1.49 1.49 0 00-1.055 2.547 1.49 1.49 0 002.11 0c.28-.278.437-.66.437-1.055zm0 0" fill-rule="evenodd" fill="#a60000"/><path d="M34.492 160c0-.395-.156-.777-.437-1.055a1.483 1.483 0 00-1.055-.437 1.49 1.49 0 00-1.055 2.547 1.49 1.49 0 002.11 0c.28-.278.437-.66.437-1.055zm13 0c0-.395-.156-.777-.437-1.055a1.483 1.483 0 00-1.055-.437 1.49 1.49 0 00-1.055 2.547 1.49 1.49 0 002.11 0c.28-.278.437-.66.437-1.055zm12 0c0-.395-.156-.777-.437-1.055a1.483 1.483 0 00-1.055-.437 1.49 1.49 0 00-1.055 2.547 1.49 1.49 0 002.11 0c.28-.278.437-.66.437-1.055zm13 0c0-.395-.156-.777-.437-1.055a1.483 1.483 0 00-1.055-.437 1.49 1.49 0 00-1.055 2.547 1.49 1.49 0 002.11 0c.28-.278.437-.66.437-1.055zm13 0c0-.395-.156-.777-.437-1.055a1.483 1.483 0 00-1.055-.437 1.49 1.49 0 00-1.055 2.547 1.49 1.49 0 002.11 0c.28-.278.437-.66.437-1.055zm12-1c0-.395-.156-.777-.437-1.055a1.483 1.483 0 00-1.055-.437 1.49 1.49 0 00-1.055 2.547 1.49 1.49 0 002.11 0c.28-.278.437-.66.437-1.055zm13-7c0-.395-.156-.777-.437-1.055a1.483 1.483 0 00-1.055-.437 1.49 1.49 0 00-1.055 2.547 1.49 1.49 0 002.11 0c.28-.278.437-.66.437-1.055zm12-13c0-.395-.156-.777-.437-1.055a1.483 1.483 0 00-1.055-.437 1.49 1.49 0 00-1.055 2.547 1.49 1.49 0 002.11 0c.28-.278.437-.66.437-1.055zm13-9c0-.395-.156-.777-.437-1.055a1.483 1.483 0 00-1.055-.437 1.49 1.49 0 00-1.055 2.547 1.49 1.49 0 002.11 0c.28-.278.437-.66.437-1.055zm13-6c0-.395-.156-.777-.437-1.055a1.483 1.483 0 00-1.055-.437 1.49 1.49 0 00-1.055 2.547 1.49 1.49 0 002.11 0c.28-.278.437-.66.437-1.055zm12-6c0-.395-.156-.777-.437-1.055a1.483 1.483 0 00-1.055-.437 1.49 1.49 0 00-1.055 2.547 1.49 1.49 0 002.11 0c.28-.278.437-.66.437-1.055zm13-4c0-.395-.156-.777-.437-1.055a1.483 1.483 0 00-1.055-.437 1.49 1.49 0 00-1.055 2.547 1.49 1.49 0 002.11 0c.28-.278.437-.66.437-1.055zm12-4c0-.395-.156-.777-.437-1.055a1.483 1.483 0 00-1.055-.437 1.49 1.49 0 00-1.055 2.547 1.49 1.49 0 002.11 0c.28-.278.437-.66.437-1.055zm13-5c0-.395-.156-.777-.437-1.055a1.483 1.483 0 00-1.055-.437 1.49 1.49 0 00-1.055 2.547 1.49 1.49 0 002.11 0c.28-.278.437-.66.437-1.055zm13-7c0-.395-.156-.777-.437-1.055a1.483 1.483 0 00-1.055-.437 1.49 1.49 0 00-1.055 2.547 1.49 1.49 0 002.11 0c.28-.278.437-.66.437-1.055zm12-6c0-.395-.156-.777-.437-1.055a1.483 1.483 0 00-1.055-.437 1.49 1.49 0 00-1.055 2.547 1.49 1.49 0 002.11 0c.28-.278.437-.66.437-1.055zm13-12c0-.395-.156-.777-.437-1.055a1.483 1.483 0 00-1.055-.437 1.49 1.49 0 00-1.055 2.547 1.49 1.49 0 002.11 0c.28-.278.437-.66.437-1.055zm13-6c0-.395-.156-.777-.437-1.055a1.483 1.483 0 00-1.055-.437 1.49 1.49 0 00-1.055 2.547 1.49 1.49 0 002.11 0c.28-.278.437-.66.437-1.055zm12-5c0-.395-.156-.777-.437-1.055a1.483 1.483 0 00-1.055-.437 1.49 1.49 0 00-1.055 2.547 1.49 1.49 0 002.11 0c.28-.278.437-.66.437-1.055zm13-4c0-.395-.156-.777-.437-1.055a1.483 1.483 0 00-1.055-.437 1.49 1.49 0 00-1.055 2.547 1.49 1.49 0 002.11 0c.28-.278.437-.66.437-1.055zm12-4c0-.395-.156-.777-.437-1.055a1.483 1.483 0 00-1.055-.437 1.49 1.49 0 00-1.055 2.547 1.49 1.49 0 002.11 0c.28-.278.437-.66.437-1.055zm13-5c0-.395-.156-.777-.437-1.055a1.483 1.483 0 00-1.055-.437 1.49 1.49 0 00-1.055 2.547 1.49 1.49 0 002.11 0c.28-.278.437-.66.437-1.055zm13-4c0-.395-.156-.777-.437-1.055a1.483 1.483 0 00-1.055-.437 1.49 1.49 0 00-1.055 2.547 1.49 1.49 0 002.11 0c.28-.278.437-.66.437-1.055zm12-3c0-.395-.156-.777-.437-1.055a1.483 1.483 0 00-1.055-.437 1.49 1.49 0 00-1.055 2.547 1.49 1.49 0 002.11 0c.28-.278.437-.66.437-1.055zm13-4c0-.395-.156-.777-.437-1.055a1.483 1.483 0 00-1.055-.437 1.49 1.49 0 00-1.055 2.547 1.49 1.49 0 002.11 0c.28-.278.437-.66.437-1.055zm12-4c0-.395-.156-.777-.437-1.055a1.483 1.483 0 00-1.055-.437 1.49 1.49 0 00-1.055 2.547 1.49 1.49 0 002.11 0c.28-.278.437-.66.437-1.055zm13-2c0-.395-.156-.777-.437-1.055a1.483 1.483 0 00-1.055-.437 1.49 1.49 0 00-1.055 2.547 1.49 1.49 0 002.11 0c.28-.278.437-.66.437-1.055zm0 0" fill-rule="evenodd" fill="#0d86a0"/><path d="M135.492 232c0-.395-.156-.777-.437-1.055a1.483 1.483 0 00-1.055-.437 1.49 1.49 0 00-1.055 2.547 1.49 1.49 0 002.11 0c.28-.278.437-.66.437-1.055zm13-51c0-.395-.156-.777-.437-1.055a1.483 1.483 0 00-1.055-.437 1.49 1.49 0 00-1.055 2.547 1.49 1.49 0 002.11 0c.28-.278.437-.66.437-1.055zm12-12c0-.395-.156-.777-.437-1.055a1.483 1.483 0 00-1.055-.437 1.49 1.49 0 00-1.055 2.547 1.49 1.49 0 002.11 0c.28-.278.437-.66.437-1.055zm13-4c0-.395-.156-.777-.437-1.055a1.483 1.483 0 00-1.055-.437 1.49 1.49 0 00-1.055 2.547 1.49 1.49 0 002.11 0c.28-.278.437-.66.437-1.055zm12-10c0-.395-.156-.777-.437-1.055a1.483 1.483 0 00-1.055-.437 1.49 1.49 0 00-1.055 2.547 1.49 1.49 0 002.11 0c.28-.278.437-.66.437-1.055zm13-7c0-.395-.156-.777-.437-1.055a1.483 1.483 0 00-1.055-.437 1.49 1.49 0 00-1.055 2.547 1.49 1.49 0 002.11 0c.28-.278.437-.66.437-1.055zm13-4c0-.395-.156-.777-.437-1.055a1.483 1.483 0 00-1.055-.437 1.49 1.49 0 00-1.055 2.547 1.49 1.49 0 002.11 0c.28-.278.437-.66.437-1.055zm12-8c0-.395-.156-.777-.437-1.055a1.483 1.483 0 00-1.055-.437 1.49 1.49 0 00-1.055 2.547 1.49 1.49 0 002.11 0c.28-.278.437-.66.437-1.055zm13-5c0-.395-.156-.777-.437-1.055a1.483 1.483 0 00-1.055-.437 1.49 1.49 0 00-1.055 2.547 1.49 1.49 0 002.11 0c.28-.278.437-.66.437-1.055zm13-5c0-.395-.156-.777-.437-1.055a1.483 1.483 0 00-1.055-.437 1.49 1.49 0 00-1.055 2.547 1.49 1.49 0 002.11 0c.28-.278.437-.66.437-1.055zm12-5c0-.395-.156-.777-.437-1.055a1.483 1.483 0 00-1.055-.437 1.49 1.49 0 00-1.055 2.547 1.49 1.49 0 002.11 0c.28-.278.437-.66.437-1.055zm13-4c0-.395-.156-.777-.437-1.055a1.483 1.483 0 00-1.055-.437 1.49 1.49 0 00-1.055 2.547 1.49 1.49 0 002.11 0c.28-.278.437-.66.437-1.055zm12-6c0-.395-.156-.777-.437-1.055a1.483 1.483 0 00-1.055-.437 1.49 1.49 0 00-1.055 2.547 1.49 1.49 0 002.11 0c.28-.278.437-.66.437-1.055zm13-3c0-.395-.156-.777-.437-1.055a1.483 1.483 0 00-1.055-.437 1.49 1.49 0 00-1.055 2.547 1.49 1.49 0 002.11 0c.28-.278.437-.66.437-1.055zm13-2c0-.395-.156-.777-.437-1.055a1.483 1.483 0 00-1.055-.437 1.49 1.49 0 00-1.055 2.547 1.49 1.49 0 002.11 0c.28-.278.437-.66.437-1.055zm12-3c0-.395-.156-.777-.437-1.055a1.483 1.483 0 00-1.055-.437 1.49 1.49 0 00-1.055 2.547 1.49 1.49 0 002.11 0c.28-.278.437-.66.437-1.055zm13-2c0-.395-.156-.777-.437-1.055a1.483 1.483 0 00-1.055-.437 1.49 1.49 0 00-1.055 2.547 1.49 1.49 0 002.11 0c.28-.278.437-.66.437-1.055zm12-1c0-.395-.156-.777-.437-1.055a1.483 1.483 0 00-1.055-.437 1.49 1.49 0 00-1.055 2.547 1.49 1.49 0 002.11 0c.28-.278.437-.66.437-1.055zm13-2c0-.395-.156-.777-.437-1.055a1.483 1.483 0 00-1.055-.437 1.49 1.49 0 00-1.055 2.547 1.49 1.49 0 002.11 0c.28-.278.437-.66.437-1.055zm0 0" fill-rule="evenodd" fill="#c05c20"/><path d="M160.492 201c0-.395-.156-.777-.437-1.055a1.483 1.483 0 00-1.055-.437 1.49 1.49 0 00-1.055 2.547 1.49 1.49 0 002.11 0c.28-.278.437-.66.437-1.055zm13-14c0-.395-.156-.777-.437-1.055a1.483 1.483 0 00-1.055-.437 1.49 1.49 0 00-1.055 2.547 1.49 1.49 0 002.11 0c.28-.278.437-.66.437-1.055zm12-28c0-.395-.156-.777-.437-1.055a1.483 1.483 0 00-1.055-.437 1.49 1.49 0 00-1.055 2.547 1.49 1.49 0 002.11 0c.28-.278.437-.66.437-1.055zm13-7c0-.395-.156-.777-.437-1.055a1.483 1.483 0 00-1.055-.437 1.49 1.49 0 00-1.055 2.547 1.49 1.49 0 002.11 0c.28-.278.437-.66.437-1.055zm13-10c0-.395-.156-.777-.437-1.055a1.483 1.483 0 00-1.055-.437 1.49 1.49 0 00-1.055 2.547 1.49 1.49 0 002.11 0c.28-.278.437-.66.437-1.055zm12-4c0-.395-.156-.777-.437-1.055a1.483 1.483 0 00-1.055-.437 1.49 1.49 0 00-1.055 2.547 1.49 1.49 0 002.11 0c.28-.278.437-.66.437-1.055zm13-5c0-.395-.156-.777-.437-1.055a1.483 1.483 0 00-1.055-.437 1.49 1.49 0 00-1.055 2.547 1.49 1.49 0 002.11 0c.28-.278.437-.66.437-1.055zm13-11c0-.395-.156-.777-.437-1.055a1.483 1.483 0 00-1.055-.437 1.49 1.49 0 00-1.055 2.547 1.49 1.49 0 002.11 0c.28-.278.437-.66.437-1.055zm12-7c0-.395-.156-.777-.437-1.055a1.483 1.483 0 00-1.055-.437 1.49 1.49 0 00-1.055 2.547 1.49 1.49 0 002.11 0c.28-.278.437-.66.437-1.055zm13-4c0-.395-.156-.777-.437-1.055a1.483 1.483 0 00-1.055-.437 1.49 1.49 0 00-1.055 2.547 1.49 1.49 0 002.11 0c.28-.278.437-.66.437-1.055zm12-2c0-.395-.156-.777-.437-1.055a1.483 1.483 0 00-1.055-.437 1.49 1.49 0 00-1.055 2.547 1.49 1.49 0 002.11 0c.28-.278.437-.66.437-1.055zm13-2c0-.395-.156-.777-.437-1.055a1.483 1.483 0 00-1.055-.437 1.49 1.49 0 00-1.055 2.547 1.49 1.49 0 002.11 0c.28-.278.437-.66.437-1.055zm13-2c0-.395-.156-.777-.437-1.055a1.483 1.483 0 00-1.055-.437 1.49 1.49 0 00-1.055 2.547 1.49 1.49 0 002.11 0c.28-.278.437-.66.437-1.055zm12-3c0-.395-.156-.777-.437-1.055a1.483 1.483 0 00-1.055-.437 1.49 1.49 0 00-1.055 2.547 1.49 1.49 0 002.11 0c.28-.278.437-.66.437-1.055zm13-1c0-.395-.156-.777-.437-1.055a1.483 1.483 0 00-1.055-.437 1.49 1.49 0 00-1.055 2.547 1.49 1.49 0 002.11 0c.28-.278.437-.66.437-1.055zm12-1c0-.395-.156-.777-.437-1.055a1.483 1.483 0 00-1.055-.437 1.49 1.49 0 00-1.055 2.547 1.49 1.49 0 002.11 0c.28-.278.437-.66.437-1.055zm13-1c0-.395-.156-.777-.437-1.055a1.483 1.483 0 00-1.055-.437 1.49 1.49 0 00-1.055 2.547 1.49 1.49 0 002.11 0c.28-.278.437-.66.437-1.055zm0 0" fill-rule="evenodd" fill="#6f42b5"/><path d="M160.492 232c0-.395-.156-.777-.437-1.055a1.483 1.483 0 00-1.055-.437 1.49 1.49 0 00-1.055 2.547 1.49 1.49 0 002.11 0c.28-.278.437-.66.437-1.055zm13-31c0-.395-.156-.777-.437-1.055a1.483 1.483 0 00-1.055-.437 1.49 1.49 0 00-1.055 2.547 1.49 1.49 0 002.11 0c.28-.278.437-.66.437-1.055zm12-11c0-.395-.156-.777-.437-1.055a1.483 1.483 0 00-1.055-.437 1.49 1.49 0 00-1.055 2.547 1.49 1.49 0 002.11 0c.28-.278.437-.66.437-1.055zm13-25c0-.395-.156-.777-.437-1.055a1.483 1.483 0 00-1.055-.437 1.49 1.49 0 00-1.055 2.547 1.49 1.49 0 002.11 0c.28-.278.437-.66.437-1.055zm13-18c0-.395-.156-.777-.437-1.055a1.483 1.483 0 00-1.055-.437 1.49 1.49 0 00-1.055 2.547 1.49 1.49 0 002.11 0c.28-.278.437-.66.437-1.055zm12-9c0-.395-.156-.777-.437-1.055a1.483 1.483 0 00-1.055-.437 1.49 1.49 0 00-1.055 2.547 1.49 1.49 0 002.11 0c.28-.278.437-.66.437-1.055zm13-5c0-.395-.156-.777-.437-1.055a1.483 1.483 0 00-1.055-.437 1.49 1.49 0 00-1.055 2.547 1.49 1.49 0 002.11 0c.28-.278.437-.66.437-1.055zm13-4c0-.395-.156-.777-.437-1.055a1.483 1.483 0 00-1.055-.437 1.49 1.49 0 00-1.055 2.547 1.49 1.49 0 002.11 0c.28-.278.437-.66.437-1.055zm12-6c0-.395-.156-.777-.437-1.055a1.483 1.483 0 00-1.055-.437 1.49 1.49 0 00-1.055 2.547 1.49 1.49 0 002.11 0c.28-.278.437-.66.437-1.055zm13-4c0-.395-.156-.777-.437-1.055a1.483 1.483 0 00-1.055-.437 1.49 1.49 0 00-1.055 2.547 1.49 1.49 0 002.11 0c.28-.278.437-.66.437-1.055zm12-4c0-.395-.156-.777-.437-1.055a1.483 1.483 0 00-1.055-.437 1.49 1.49 0 00-1.055 2.547 1.49 1.49 0 002.11 0c.28-.278.437-.66.437-1.055zm13-3c0-.395-.156-.777-.437-1.055a1.483 1.483 0 00-1.055-.437 1.49 1.49 0 00-1.055 2.547 1.49 1.49 0 002.11 0c.28-.278.437-.66.437-1.055zm13-2c0-.395-.156-.777-.437-1.055a1.483 1.483 0 00-1.055-.437 1.49 1.49 0 00-1.055 2.547 1.49 1.49 0 002.11 0c.28-.278.437-.66.437-1.055zm12-4c0-.395-.156-.777-.437-1.055a1.483 1.483 0 00-1.055-.437 1.49 1.49 0 00-1.055 2.547 1.49 1.49 0 002.11 0c.28-.278.437-.66.437-1.055zm13-2c0-.395-.156-.777-.437-1.055a1.483 1.483 0 00-1.055-.437 1.49 1.49 0 00-1.055 2.547 1.49 1.49 0 002.11 0c.28-.278.437-.66.437-1.055zm12-2c0-.395-.156-.777-.437-1.055a1.483 1.483 0 00-1.055-.437 1.49 1.49 0 00-1.055 2.547 1.49 1.49 0 002.11 0c.28-.278.437-.66.437-1.055zm13-2c0-.395-.156-.777-.437-1.055a1.483 1.483 0 00-1.055-.437 1.49 1.49 0 00-1.055 2.547 1.49 1.49 0 002.11 0c.28-.278.437-.66.437-1.055zm0 0" fill-rule="evenodd" fill="#769003"/><path d="M160.492 232c0-.395-.156-.777-.437-1.055a1.483 1.483 0 00-1.055-.437 1.49 1.49 0 00-1.055 2.547 1.49 1.49 0 002.11 0c.28-.278.437-.66.437-1.055zm13-42c0-.395-.156-.777-.437-1.055a1.483 1.483 0 00-1.055-.437 1.49 1.49 0 00-1.055 2.547 1.49 1.49 0 002.11 0c.28-.278.437-.66.437-1.055zm12-19c0-.395-.156-.777-.437-1.055a1.483 1.483 0 00-1.055-.437 1.49 1.49 0 00-1.055 2.547 1.49 1.49 0 002.11 0c.28-.278.437-.66.437-1.055zm13-12c0-.395-.156-.777-.437-1.055a1.483 1.483 0 00-1.055-.437 1.49 1.49 0 00-1.055 2.547 1.49 1.49 0 002.11 0c.28-.278.437-.66.437-1.055zm13-9c0-.395-.156-.777-.437-1.055a1.483 1.483 0 00-1.055-.437 1.49 1.49 0 00-1.055 2.547 1.49 1.49 0 002.11 0c.28-.278.437-.66.437-1.055zm12-7c0-.395-.156-.777-.437-1.055a1.483 1.483 0 00-1.055-.437 1.49 1.49 0 00-1.055 2.547 1.49 1.49 0 002.11 0c.28-.278.437-.66.437-1.055zm13-7c0-.395-.156-.777-.437-1.055a1.483 1.483 0 00-1.055-.437 1.49 1.49 0 00-1.055 2.547 1.49 1.49 0 002.11 0c.28-.278.437-.66.437-1.055zm13-8c0-.395-.156-.777-.437-1.055a1.483 1.483 0 00-1.055-.437 1.49 1.49 0 00-1.055 2.547 1.49 1.49 0 002.11 0c.28-.278.437-.66.437-1.055zm12-5c0-.395-.156-.777-.437-1.055a1.483 1.483 0 00-1.055-.437 1.49 1.49 0 00-1.055 2.547 1.49 1.49 0 002.11 0c.28-.278.437-.66.437-1.055zm13-3c0-.395-.156-.777-.437-1.055a1.483 1.483 0 00-1.055-.437 1.49 1.49 0 00-1.055 2.547 1.49 1.49 0 002.11 0c.28-.278.437-.66.437-1.055zm12-3c0-.395-.156-.777-.437-1.055a1.483 1.483 0 00-1.055-.437 1.49 1.49 0 00-1.055 2.547 1.49 1.49 0 002.11 0c.28-.278.437-.66.437-1.055zm13-3c0-.395-.156-.777-.437-1.055a1.483 1.483 0 00-1.055-.437 1.49 1.49 0 00-1.055 2.547 1.49 1.49 0 002.11 0c.28-.278.437-.66.437-1.055zm13-3c0-.395-.156-.777-.437-1.055a1.483 1.483 0 00-1.055-.437 1.49 1.49 0 00-1.055 2.547 1.49 1.49 0 002.11 0c.28-.278.437-.66.437-1.055zm12-2c0-.395-.156-.777-.437-1.055a1.483 1.483 0 00-1.055-.437 1.49 1.49 0 00-1.055 2.547 1.49 1.49 0 002.11 0c.28-.278.437-.66.437-1.055zm13-2c0-.395-.156-.777-.437-1.055a1.483 1.483 0 00-1.055-.437 1.49 1.49 0 00-1.055 2.547 1.49 1.49 0 002.11 0c.28-.278.437-.66.437-1.055zm12-2c0-.395-.156-.777-.437-1.055a1.483 1.483 0 00-1.055-.437 1.49 1.49 0 00-1.055 2.547 1.49 1.49 0 002.11 0c.28-.278.437-.66.437-1.055zm13-1c0-.395-.156-.777-.437-1.055a1.483 1.483 0 00-1.055-.437 1.49 1.49 0 00-1.055 2.547 1.49 1.49 0 002.11 0c.28-.278.437-.66.437-1.055zm0 0" fill-rule="evenodd" fill="#a8364d"/><path d="M173.492 232c0-.395-.156-.777-.437-1.055a1.483 1.483 0 00-1.055-.437 1.49 1.49 0 00-1.055 2.547 1.49 1.49 0 002.11 0c.28-.278.437-.66.437-1.055zm12-52c0-.395-.156-.777-.437-1.055a1.483 1.483 0 00-1.055-.437 1.49 1.49 0 00-1.055 2.547 1.49 1.49 0 002.11 0c.28-.278.437-.66.437-1.055zm13-19c0-.395-.156-.777-.437-1.055a1.483 1.483 0 00-1.055-.437 1.49 1.49 0 00-1.055 2.547 1.49 1.49 0 002.11 0c.28-.278.437-.66.437-1.055zm13-8c0-.395-.156-.777-.437-1.055a1.483 1.483 0 00-1.055-.437 1.49 1.49 0 00-1.055 2.547 1.49 1.49 0 002.11 0c.28-.278.437-.66.437-1.055zm12-3c0-.395-.156-.777-.437-1.055a1.483 1.483 0 00-1.055-.437 1.49 1.49 0 00-1.055 2.547 1.49 1.49 0 002.11 0c.28-.278.437-.66.437-1.055zm13-8c0-.395-.156-.777-.437-1.055a1.483 1.483 0 00-1.055-.437 1.49 1.49 0 00-1.055 2.547 1.49 1.49 0 002.11 0c.28-.278.437-.66.437-1.055zm13-7c0-.395-.156-.777-.437-1.055a1.483 1.483 0 00-1.055-.437 1.49 1.49 0 00-1.055 2.547 1.49 1.49 0 002.11 0c.28-.278.437-.66.437-1.055zm12-5c0-.395-.156-.777-.437-1.055a1.483 1.483 0 00-1.055-.437 1.49 1.49 0 00-1.055 2.547 1.49 1.49 0 002.11 0c.28-.278.437-.66.437-1.055zm13-4c0-.395-.156-.777-.437-1.055a1.483 1.483 0 00-1.055-.437 1.49 1.49 0 00-1.055 2.547 1.49 1.49 0 002.11 0c.28-.278.437-.66.437-1.055zm12-4c0-.395-.156-.777-.437-1.055a1.483 1.483 0 00-1.055-.437 1.49 1.49 0 00-1.055 2.547 1.49 1.49 0 002.11 0c.28-.278.437-.66.437-1.055zm13-2c0-.395-.156-.777-.437-1.055a1.483 1.483 0 00-1.055-.437 1.49 1.49 0 00-1.055 2.547 1.49 1.49 0 002.11 0c.28-.278.437-.66.437-1.055zm13-4c0-.395-.156-.777-.437-1.055a1.483 1.483 0 00-1.055-.437 1.49 1.49 0 00-1.055 2.547 1.49 1.49 0 002.11 0c.28-.278.437-.66.437-1.055zm12-3c0-.395-.156-.777-.437-1.055a1.483 1.483 0 00-1.055-.437 1.49 1.49 0 00-1.055 2.547 1.49 1.49 0 002.11 0c.28-.278.437-.66.437-1.055zm13-2c0-.395-.156-.777-.437-1.055a1.483 1.483 0 00-1.055-.437 1.49 1.49 0 00-1.055 2.547 1.49 1.49 0 002.11 0c.28-.278.437-.66.437-1.055zm12-2c0-.395-.156-.777-.437-1.055a1.483 1.483 0 00-1.055-.437 1.49 1.49 0 00-1.055 2.547 1.49 1.49 0 002.11 0c.28-.278.437-.66.437-1.055zm13-2c0-.395-.156-.777-.437-1.055a1.483 1.483 0 00-1.055-.437 1.49 1.49 0 00-1.055 2.547 1.49 1.49 0 002.11 0c.28-.278.437-.66.437-1.055zm0 0" fill-rule="evenodd" fill="#3664cc"/><path d="M160.492 219c0-.395-.156-.777-.437-1.055a1.483 1.483 0 00-1.055-.437 1.49 1.49 0 00-1.055 2.547 1.49 1.49 0 002.11 0c.28-.278.437-.66.437-1.055zm13-8c0-.395-.156-.777-.437-1.055a1.483 1.483 0 00-1.055-.437 1.49 1.49 0 00-1.055 2.547 1.49 1.49 0 002.11 0c.28-.278.437-.66.437-1.055zm12-17c0-.395-.156-.777-.437-1.055a1.483 1.483 0 00-1.055-.437 1.49 1.49 0 00-1.055 2.547 1.49 1.49 0 002.11 0c.28-.278.437-.66.437-1.055zm13-18c0-.395-.156-.777-.437-1.055a1.483 1.483 0 00-1.055-.437 1.49 1.49 0 00-1.055 2.547 1.49 1.49 0 002.11 0c.28-.278.437-.66.437-1.055zm13-13c0-.395-.156-.777-.437-1.055a1.483 1.483 0 00-1.055-.437 1.49 1.49 0 00-1.055 2.547 1.49 1.49 0 002.11 0c.28-.278.437-.66.437-1.055zm12-6c0-.395-.156-.777-.437-1.055a1.483 1.483 0 00-1.055-.437 1.49 1.49 0 00-1.055 2.547 1.49 1.49 0 002.11 0c.28-.278.437-.66.437-1.055zm13-8c0-.395-.156-.777-.437-1.055a1.483 1.483 0 00-1.055-.437 1.49 1.49 0 00-1.055 2.547 1.49 1.49 0 002.11 0c.28-.278.437-.66.437-1.055zm13-8c0-.395-.156-.777-.437-1.055a1.483 1.483 0 00-1.055-.437 1.49 1.49 0 00-1.055 2.547 1.49 1.49 0 002.11 0c.28-.278.437-.66.437-1.055zm12-7c0-.395-.156-.777-.437-1.055a1.483 1.483 0 00-1.055-.437 1.49 1.49 0 00-1.055 2.547 1.49 1.49 0 002.11 0c.28-.278.437-.66.437-1.055zm13-8c0-.395-.156-.777-.437-1.055a1.483 1.483 0 00-1.055-.437 1.49 1.49 0 00-1.055 2.547 1.49 1.49 0 002.11 0c.28-.278.437-.66.437-1.055zm12-3c0-.395-.156-.777-.437-1.055a1.483 1.483 0 00-1.055-.437 1.49 1.49 0 00-1.055 2.547 1.49 1.49 0 002.11 0c.28-.278.437-.66.437-1.055zm13-3c0-.395-.156-.777-.437-1.055a1.483 1.483 0 00-1.055-.437 1.49 1.49 0 00-1.055 2.547 1.49 1.49 0 002.11 0c.28-.278.437-.66.437-1.055zm13-3c0-.395-.156-.777-.437-1.055a1.483 1.483 0 00-1.055-.437 1.49 1.49 0 00-1.055 2.547 1.49 1.49 0 002.11 0c.28-.278.437-.66.437-1.055zm12-4c0-.395-.156-.777-.437-1.055a1.483 1.483 0 00-1.055-.437 1.49 1.49 0 00-1.055 2.547 1.49 1.49 0 002.11 0c.28-.278.437-.66.437-1.055zm13-3c0-.395-.156-.777-.437-1.055a1.483 1.483 0 00-1.055-.437 1.49 1.49 0 00-1.055 2.547 1.49 1.49 0 002.11 0c.28-.278.437-.66.437-1.055zm12-1c0-.395-.156-.777-.437-1.055a1.483 1.483 0 00-1.055-.437 1.49 1.49 0 00-1.055 2.547 1.49 1.49 0 002.11 0c.28-.278.437-.66.437-1.055zm13-2c0-.395-.156-.777-.437-1.055a1.483 1.483 0 00-1.055-.437 1.49 1.49 0 00-1.055 2.547 1.49 1.49 0 002.11 0c.28-.278.437-.66.437-1.055zm0 0" fill-rule="evenodd" fill="#c8860a"/><path d="M160.492 201c0-.395-.156-.777-.437-1.055a1.483 1.483 0 00-1.055-.437 1.49 1.49 0 00-1.055 2.547 1.49 1.49 0 002.11 0c.28-.278.437-.66.437-1.055zm13-11c0-.395-.156-.777-.437-1.055a1.483 1.483 0 00-1.055-.437 1.49 1.49 0 00-1.055 2.547 1.49 1.49 0 002.11 0c.28-.278.437-.66.437-1.055zm12-22c0-.395-.156-.777-.437-1.055a1.483 1.483 0 00-1.055-.437 1.49 1.49 0 00-1.055 2.547 1.49 1.49 0 002.11 0c.28-.278.437-.66.437-1.055zm13-14c0-.395-.156-.777-.437-1.055a1.483 1.483 0 00-1.055-.437 1.49 1.49 0 00-1.055 2.547 1.49 1.49 0 002.11 0c.28-.278.437-.66.437-1.055zm13-5c0-.395-.156-.777-.437-1.055a1.483 1.483 0 00-1.055-.437 1.49 1.49 0 00-1.055 2.547 1.49 1.49 0 002.11 0c.28-.278.437-.66.437-1.055zm12-8c0-.395-.156-.777-.437-1.055a1.483 1.483 0 00-1.055-.437 1.49 1.49 0 00-1.055 2.547 1.49 1.49 0 002.11 0c.28-.278.437-.66.437-1.055zm13-3c0-.395-.156-.777-.437-1.055a1.483 1.483 0 00-1.055-.437 1.49 1.49 0 00-1.055 2.547 1.49 1.49 0 002.11 0c.28-.278.437-.66.437-1.055zm13-2c0-.395-.156-.777-.437-1.055a1.483 1.483 0 00-1.055-.437 1.49 1.49 0 00-1.055 2.547 1.49 1.49 0 002.11 0c.28-.278.437-.66.437-1.055zm12-3c0-.395-.156-.777-.437-1.055a1.483 1.483 0 00-1.055-.437 1.49 1.49 0 00-1.055 2.547 1.49 1.49 0 002.11 0c.28-.278.437-.66.437-1.055zm13-4c0-.395-.156-.777-.437-1.055a1.483 1.483 0 00-1.055-.437 1.49 1.49 0 00-1.055 2.547 1.49 1.49 0 002.11 0c.28-.278.437-.66.437-1.055zm12-3c0-.395-.156-.777-.437-1.055a1.483 1.483 0 00-1.055-.437 1.49 1.49 0 00-1.055 2.547 1.49 1.49 0 002.11 0c.28-.278.437-.66.437-1.055zm13-1c0-.395-.156-.777-.437-1.055a1.483 1.483 0 00-1.055-.437 1.49 1.49 0 00-1.055 2.547 1.49 1.49 0 002.11 0c.28-.278.437-.66.437-1.055zm13-3c0-.395-.156-.777-.437-1.055a1.483 1.483 0 00-1.055-.437 1.49 1.49 0 00-1.055 2.547 1.49 1.49 0 002.11 0c.28-.278.437-.66.437-1.055zm12-2c0-.395-.156-.777-.437-1.055a1.483 1.483 0 00-1.055-.437 1.49 1.49 0 00-1.055 2.547 1.49 1.49 0 002.11 0c.28-.278.437-.66.437-1.055zm13-2c0-.395-.156-.777-.437-1.055a1.483 1.483 0 00-1.055-.437 1.49 1.49 0 00-1.055 2.547 1.49 1.49 0 002.11 0c.28-.278.437-.66.437-1.055zm12-1c0-.395-.156-.777-.437-1.055a1.483 1.483 0 00-1.055-.437 1.49 1.49 0 00-1.055 2.547 1.49 1.49 0 002.11 0c.28-.278.437-.66.437-1.055zm13-1c0-.395-.156-.777-.437-1.055a1.483 1.483 0 00-1.055-.437 1.49 1.49 0 00-1.055 2.547 1.49 1.49 0 002.11 0c.28-.278.437-.66.437-1.055zm0 0" fill-rule="evenodd" fill="#833987"/><path d="M173.492 232c0-.395-.156-.777-.437-1.055a1.483 1.483 0 00-1.055-.437 1.49 1.49 0 00-1.055 2.547 1.49 1.49 0 002.11 0c.28-.278.437-.66.437-1.055zm12-42c0-.395-.156-.777-.437-1.055a1.483 1.483 0 00-1.055-.437 1.49 1.49 0 00-1.055 2.547 1.49 1.49 0 002.11 0c.28-.278.437-.66.437-1.055zm13-14c0-.395-.156-.777-.437-1.055a1.483 1.483 0 00-1.055-.437 1.49 1.49 0 00-1.055 2.547 1.49 1.49 0 002.11 0c.28-.278.437-.66.437-1.055zm13-10c0-.395-.156-.777-.437-1.055a1.483 1.483 0 00-1.055-.437 1.49 1.49 0 00-1.055 2.547 1.49 1.49 0 002.11 0c.28-.278.437-.66.437-1.055zm12-8c0-.395-.156-.777-.437-1.055a1.483 1.483 0 00-1.055-.437 1.49 1.49 0 00-1.055 2.547 1.49 1.49 0 002.11 0c.28-.278.437-.66.437-1.055zm13-8c0-.395-.156-.777-.437-1.055a1.483 1.483 0 00-1.055-.437 1.49 1.49 0 00-1.055 2.547 1.49 1.49 0 002.11 0c.28-.278.437-.66.437-1.055zm13-7c0-.395-.156-.777-.437-1.055a1.483 1.483 0 00-1.055-.437 1.49 1.49 0 00-1.055 2.547 1.49 1.49 0 002.11 0c.28-.278.437-.66.437-1.055zm12-5c0-.395-.156-.777-.437-1.055a1.483 1.483 0 00-1.055-.437 1.49 1.49 0 00-1.055 2.547 1.49 1.49 0 002.11 0c.28-.278.437-.66.437-1.055zm13-5c0-.395-.156-.777-.437-1.055a1.483 1.483 0 00-1.055-.437 1.49 1.49 0 00-1.055 2.547 1.49 1.49 0 002.11 0c.28-.278.437-.66.437-1.055zm12-3c0-.395-.156-.777-.437-1.055a1.483 1.483 0 00-1.055-.437 1.49 1.49 0 00-1.055 2.547 1.49 1.49 0 002.11 0c.28-.278.437-.66.437-1.055zm13-3c0-.395-.156-.777-.437-1.055a1.483 1.483 0 00-1.055-.437 1.49 1.49 0 00-1.055 2.547 1.49 1.49 0 002.11 0c.28-.278.437-.66.437-1.055zm13-3c0-.395-.156-.777-.437-1.055a1.483 1.483 0 00-1.055-.437 1.49 1.49 0 00-1.055 2.547 1.49 1.49 0 002.11 0c.28-.278.437-.66.437-1.055zm12-3c0-.395-.156-.777-.437-1.055a1.483 1.483 0 00-1.055-.437 1.49 1.49 0 00-1.055 2.547 1.49 1.49 0 002.11 0c.28-.278.437-.66.437-1.055zm13-2c0-.395-.156-.777-.437-1.055a1.483 1.483 0 00-1.055-.437 1.49 1.49 0 00-1.055 2.547 1.49 1.49 0 002.11 0c.28-.278.437-.66.437-1.055zm12-1c0-.395-.156-.777-.437-1.055a1.483 1.483 0 00-1.055-.437 1.49 1.49 0 00-1.055 2.547 1.49 1.49 0 002.11 0c.28-.278.437-.66.437-1.055zm13-2c0-.395-.156-.777-.437-1.055a1.483 1.483 0 00-1.055-.437 1.49 1.49 0 00-1.055 2.547 1.49 1.49 0 002.11 0c.28-.278.437-.66.437-1.055zm0 0" fill-rule="evenodd" fill="#1c8f6b"/><path d="M160.492 232c0-.395-.156-.777-.437-1.055a1.483 1.483 0 00-1.055-.437 1.49 1.49 0 00-1.055 2.547 1.49 1.49 0 002.11 0c.28-.278.437-.66.437-1.055zm13-35c0-.395-.156-.777-.437-1.055a1.483 1.483 0 00-1.055-.437 1.49 1.49 0 00-1.055 2.547 1.49 1.49 0 002.11 0c.28-.278.437-.66.437-1.055zm12-7c0-.395-.156-.777-.437-1.055a1.483 1.483 0 00-1.055-.437 1.49 1.49 0 00-1.055 2.547 1.49 1.49 0 002.11 0c.28-.278.437-.66.437-1.055zm13-17c0-.395-.156-.777-.437-1.055a1.483 1.483 0 00-1.055-.437 1.49 1.49 0 00-1.055 2.547 1.49 1.49 0 002.11 0c.28-.278.437-.66.437-1.055zm13-12c0-.395-.156-.777-.437-1.055a1.483 1.483 0 00-1.055-.437 1.49 1.49 0 00-1.055 2.547 1.49 1.49 0 002.11 0c.28-.278.437-.66.437-1.055zm12-9c0-.395-.156-.777-.437-1.055a1.483 1.483 0 00-1.055-.437 1.49 1.49 0 00-1.055 2.547 1.49 1.49 0 002.11 0c.28-.278.437-.66.437-1.055zm13-6c0-.395-.156-.777-.437-1.055a1.483 1.483 0 00-1.055-.437 1.49 1.49 0 00-1.055 2.547 1.49 1.49 0 002.11 0c.28-.278.437-.66.437-1.055zm13-7c0-.395-.156-.777-.437-1.055a1.483 1.483 0 00-1.055-.437 1.49 1.49 0 00-1.055 2.547 1.49 1.49 0 002.11 0c.28-.278.437-.66.437-1.055zm12-3c0-.395-.156-.777-.437-1.055a1.483 1.483 0 00-1.055-.437 1.49 1.49 0 00-1.055 2.547 1.49 1.49 0 002.11 0c.28-.278.437-.66.437-1.055zm13-4c0-.395-.156-.777-.437-1.055a1.483 1.483 0 00-1.055-.437 1.49 1.49 0 00-1.055 2.547 1.49 1.49 0 002.11 0c.28-.278.437-.66.437-1.055zm12-2c0-.395-.156-.777-.437-1.055a1.483 1.483 0 00-1.055-.437 1.49 1.49 0 00-1.055 2.547 1.49 1.49 0 002.11 0c.28-.278.437-.66.437-1.055zm13-3c0-.395-.156-.777-.437-1.055a1.483 1.483 0 00-1.055-.437 1.49 1.49 0 00-1.055 2.547 1.49 1.49 0 002.11 0c.28-.278.437-.66.437-1.055zm13-1c0-.395-.156-.777-.437-1.055a1.483 1.483 0 00-1.055-.437 1.49 1.49 0 00-1.055 2.547 1.49 1.49 0 002.11 0c.28-.278.437-.66.437-1.055zm12-2c0-.395-.156-.777-.437-1.055a1.483 1.483 0 00-1.055-.437 1.49 1.49 0 00-1.055 2.547 1.49 1.49 0 002.11 0c.28-.278.437-.66.437-1.055zm13-2c0-.395-.156-.777-.437-1.055a1.483 1.483 0 00-1.055-.437 1.49 1.49 0 00-1.055 2.547 1.49 1.49 0 002.11 0c.28-.278.437-.66.437-1.055zm12-3c0-.395-.156-.777-.437-1.055a1.483 1.483 0 00-1.055-.437 1.49 1.49 0 00-1.055 2.547 1.49 1.49 0 002.11 0c.28-.278.437-.66.437-1.055zm13-2c0-.395-.156-.777-.437-1.055a1.483 1.483 0 00-1.055-.437 1.49 1.49 0 00-1.055 2.547 1.49 1.49 0 002.11 0c.28-.278.437-.66.437-1.055zm0 0" fill-rule="evenodd" fill="#a54f05"/><path d="M432.2 23.766h4.687l.218-.004.27-.012.332-.031.402-.047.489-.078.582-.106.687-.144.805-.192.937-.234 1.075-.293 1.222-.352 1.367-.406 1.485-.457 1.57-.488 1.633-.512 1.668-.527 1.672-.524 1.652-.515 1.606-.496 1.53-.461 1.427-.414 1.296-.364 1.157-.3 1.031-.247.914-.195.82-.152.735-.113.668-.082.613-.051.578-.031.555-.016.547-.008h5.043" fill="none" stroke-width="4" stroke-linejoin="round" stroke="#fff" stroke-opacity=".667" stroke-miterlimit="3.25"/><path d="M432.2 23.766h4.687l.218-.004.27-.012.332-.031.402-.047.489-.078.582-.106.687-.144.805-.192.937-.234 1.075-.293 1.222-.352 1.367-.406 1.485-.457 1.57-.488 1.633-.512 1.668-.527 1.672-.524 1.652-.515 1.606-.496 1.53-.461 1.427-.414 1.296-.364 1.157-.3 1.031-.247.914-.195.82-.152.735-.113.668-.082.613-.051.578-.031.555-.016.547-.008h5.043" fill="none" stroke-width="1.25" stroke-linecap="square" stroke="#aaa" stroke-miterlimit="3.25"/><path d="M498.473 8.414v15h-25v-15zm0 0" fill="#fff" fill-opacity=".667"/><use xlink:href="#a" x="475.973" y="18.414"/><use xlink:href="#b" x="485.973" y="18.414"/><path d="M432.2 29.586h4.687l.218.004.27.015.332.032.402.054.489.086.582.118.687.16.805.21.937.262 1.075.325 1.222.39 1.367.453 1.485.504 1.57.54 1.633.57 1.668.582 1.672.582 1.652.574 1.606.547 1.53.511 1.427.461 1.296.403 1.157.332 1.031.273.914.219.82.168.735.125.668.09.613.058.578.036.555.015.547.008h5.043" fill="none" stroke-width="4" stroke-linejoin="round" stroke="#fff" stroke-opacity=".667" stroke-miterlimit="3.25"/><path d="M432.2 29.586h4.687l.218.004.27.015.332.032.402.054.489.086.582.118.687.16.805.21.937.262 1.075.325 1.222.39 1.367.453 1.485.504 1.57.54 1.633.57 1.668.582 1.672.582 1.652.574 1.606.547 1.53.511 1.427.461 1.296.403 1.157.332 1.031.273.914.219.82.168.735.125.668.09.613.058.578.036.555.015.547.008h5.043" fill="none" stroke-width="1.25" stroke-linecap="square" stroke="#aaa" stroke-miterlimit="3.25"/><path d="M498.473 30.793v15h-25v-15zm0 0" fill="#fff" fill-opacity=".667"/><use xlink:href="#c" x="475.973" y="40.793"/><use xlink:href="#d" x="485.973" y="40.793"/><path d="M432.2 91.77h4.562l.144-.004.168-.012.2-.031.23-.063.27-.101.316-.157.363-.21.418-.286.48-.367.544-.457.613-.562.687-.668.766-.793.855-.922.942-1.067 1.031-1.199 1.106-1.32 1.164-1.41 1.214-1.493 1.254-1.543 1.274-1.582 1.289-1.597 1.289-1.59 1.273-1.566 1.25-1.52 1.211-1.453 1.164-1.367 1.098-1.262 1.023-1.137.938-.992.855-.86.786-.726.714-.613.657-.508.605-.41.555-.324.515-.25.485-.184.457-.125.441-.082.426-.047.422-.02.422-.007h4.797" fill="none" stroke-width="4" stroke-linejoin="round" stroke="#fff" stroke-opacity=".667" stroke-miterlimit="3.25"/><path d="M432.2 91.77h4.562l.144-.004.168-.012.2-.031.23-.063.27-.101.316-.157.363-.21.418-.286.48-.367.544-.457.613-.562.687-.668.766-.793.855-.922.942-1.067 1.031-1.199 1.106-1.32 1.164-1.41 1.214-1.493 1.254-1.543 1.274-1.582 1.289-1.597 1.289-1.59 1.273-1.566 1.25-1.52 1.211-1.453 1.164-1.367 1.098-1.262 1.023-1.137.938-.992.855-.86.786-.726.714-.613.657-.508.605-.41.555-.324.515-.25.485-.184.457-.125.441-.082.426-.047.422-.02.422-.007h4.797" fill="none" stroke-width="1.25" stroke-linecap="square" stroke="#aaa" stroke-miterlimit="3.25"/><path d="M498.473 53.383v15h-25v-15zm0 0" fill="#fff" fill-opacity=".667"/><use xlink:href="#e" x="475.973" y="63.383"/><use xlink:href="#f" x="485.973" y="63.383"/><path d="M432.2 93.75h4.687l.218-.004.27-.02.332-.038.402-.067.489-.101.582-.145.687-.195.805-.25.937-.32 1.075-.391 1.222-.473 1.367-.55 1.485-.61 1.57-.66 1.633-.688 1.668-.707 1.672-.707 1.652-.691 1.606-.664 1.53-.621 1.427-.559 1.296-.488 1.157-.406 1.031-.329.914-.265.82-.203.735-.153.668-.11.613-.07.578-.042.555-.02.547-.008h5.043" fill="none" stroke-width="4" stroke-linejoin="round" stroke="#fff" stroke-opacity=".667" stroke-miterlimit="3.25"/><path d="M432.2 93.75h4.687l.218-.004.27-.02.332-.038.402-.067.489-.101.582-.145.687-.195.805-.25.937-.32 1.075-.391 1.222-.473 1.367-.55 1.485-.61 1.57-.66 1.633-.688 1.668-.707 1.672-.707 1.652-.691 1.606-.664 1.53-.621 1.427-.559 1.296-.488 1.157-.406 1.031-.329.914-.265.82-.203.735-.153.668-.11.613-.07.578-.042.555-.02.547-.008h5.043" fill="none" stroke-width="1.25" stroke-linecap="square" stroke="#aaa" stroke-miterlimit="3.25"/><path d="M498.473 75.695v15h-25v-15zm0 0" fill="#fff" fill-opacity=".667"/><use xlink:href="#g" x="475.973" y="85.695"/><use xlink:href="#h" x="485.973" y="85.695"/><path d="M432.2 94.031h4.687l.218.008.27.02.332.039.402.07.489.11.582.156.687.21.805.274.937.344 1.075.422 1.222.511 1.367.59 1.485.66 1.57.707 1.633.743 1.668.761 1.672.762 1.652.75 1.606.715 1.53.668 1.427.605 1.296.524 1.157.433 1.031.36.914.28.82.224.735.164.668.117.613.074.578.047.555.023.547.008h5.043" fill="none" stroke-width="4" stroke-linejoin="round" stroke="#fff" stroke-opacity=".667" stroke-miterlimit="3.25"/><path d="M432.2 94.031h4.687l.218.008.27.02.332.039.402.07.489.11.582.156.687.21.805.274.937.344 1.075.422 1.222.511 1.367.59 1.485.66 1.57.707 1.633.743 1.668.761 1.672.762 1.652.75 1.606.715 1.53.668 1.427.605 1.296.524 1.157.433 1.031.36.914.28.82.224.735.164.668.117.613.074.578.047.555.023.547.008h5.043" fill="none" stroke-width="1.25" stroke-linecap="square" stroke="#aaa" stroke-miterlimit="3.25"/><path d="M498.473 97.91v15h-25v-15zm0 0" fill="#fff" fill-opacity=".667"/><use xlink:href="#i" x="475.973" y="107.91"/><use xlink:href="#j" x="485.973" y="107.91"/><path d="M432.2 96.852h4.706l.168.011.2.032.23.062.27.106.316.152.363.21.418.286.48.363.544.457.613.555.687.664.766.79.855.917.942 1.059 1.031 1.195 1.106 1.309 1.164 1.406 1.214 1.48 1.254 1.535 1.274 1.57 1.289 1.59 1.289 1.579 1.273 1.558 1.25 1.512 1.211 1.445 1.164 1.36 1.098 1.254 1.023 1.129.938.988.855.851.786.723.714.613.657.504.605.406.555.325.515.246.485.18.457.128.441.082.426.043.422.024.422.004h4.797" fill="none" stroke-width="4" stroke-linejoin="round" stroke="#fff" stroke-opacity=".667" stroke-miterlimit="3.25"/><path d="M432.2 96.852h4.706l.168.011.2.032.23.062.27.106.316.152.363.21.418.286.48.363.544.457.613.555.687.664.766.79.855.917.942 1.059 1.031 1.195 1.106 1.309 1.164 1.406 1.214 1.48 1.254 1.535 1.274 1.57 1.289 1.59 1.289 1.579 1.273 1.558 1.25 1.512 1.211 1.445 1.164 1.36 1.098 1.254 1.023 1.129.938.988.855.851.786.723.714.613.657.504.605.406.555.325.515.246.485.18.457.128.441.082.426.043.422.024.422.004h4.797" fill="none" stroke-width="1.25" stroke-linecap="square" stroke="#aaa" stroke-miterlimit="3.25"/><path d="M498.473 120.055v15h-25v-15zm0 0" fill="#fff" fill-opacity=".667"/><use xlink:href="#c" x="475.973" y="130.055"/><use xlink:href="#j" x="485.973" y="130.055"/><path d="M432.2 97.535h4.679l.133.012.156.031.172.059.2.101.226.149.257.203.29.273.324.352.367.441.406.535.45.645.5.758.55.886.602 1.024.66 1.168.723 1.324.78 1.488.84 1.649.895 1.793.942 1.91.98 2.012 1.012 2.097 1.039 2.16 1.055 2.204 1.062 2.226 1.07 2.23 1.067 2.22 1.054 2.183 1.036 2.129 1.011 2.058.98 1.965.942 1.852.895 1.723.843 1.57.782 1.406.726 1.242.676 1.098.625.953.582.82.543.7.504.59.469.488.445.394.414.309.399.238.378.176.364.125.355.078.352.043.347.02.352.003h4.762" fill="none" stroke-width="4" stroke-linejoin="round" stroke="#fff" stroke-opacity=".667" stroke-miterlimit="3.25"/><path d="M432.2 97.535h4.679l.133.012.156.031.172.059.2.101.226.149.257.203.29.273.324.352.367.441.406.535.45.645.5.758.55.886.602 1.024.66 1.168.723 1.324.78 1.488.84 1.649.895 1.793.942 1.91.98 2.012 1.012 2.097 1.039 2.16 1.055 2.204 1.062 2.226 1.07 2.23 1.067 2.22 1.054 2.183 1.036 2.129 1.011 2.058.98 1.965.942 1.852.895 1.723.843 1.57.782 1.406.726 1.242.676 1.098.625.953.582.82.543.7.504.59.469.488.445.394.414.309.399.238.378.176.364.125.355.078.352.043.347.02.352.003h4.762" fill="none" stroke-width="1.25" stroke-linecap="square" stroke="#aaa" stroke-miterlimit="3.25"/><path d="M498.473 142.148v15h-25v-15zm0 0" fill="#fff" fill-opacity=".667"/><use xlink:href="#k" x="475.973" y="152.15"/><use xlink:href="#l" x="485.973" y="152.15"/><path d="M432.2 98.7h4.593l.102.003.113.012.125.031.14.063.16.093.176.133.196.188.218.246.239.312.265.387.293.469.325.562.351.66.383.766.418.879.453 1 .492 1.137.528 1.27.57 1.417.613 1.574.656 1.735.7 1.894.738 2.035.773 2.164.805 2.274.828 2.367.852 2.445.867 2.508.883 2.559.89 2.586.899 2.601.898 2.598.895 2.582.886 2.55.875 2.5.86 2.434.836 2.352.816 2.258.785 2.14.754 2.016.719 1.867.676 1.707.633 1.547.597 1.395.559 1.246.527 1.113.496.98.465.86.438.746.41.644.39.543.371.457.356.372.336.3.324.239.313.175.304.13.297.09.297.05.293.031.293.012h4.93" fill="none" stroke-width="4" stroke-linejoin="round" stroke="#fff" stroke-opacity=".667" stroke-miterlimit="3.25"/><path d="M432.2 98.7h4.593l.102.003.113.012.125.031.14.063.16.093.176.133.196.188.218.246.239.312.265.387.293.469.325.562.351.66.383.766.418.879.453 1 .492 1.137.528 1.27.57 1.417.613 1.574.656 1.735.7 1.894.738 2.035.773 2.164.805 2.274.828 2.367.852 2.445.867 2.508.883 2.559.89 2.586.899 2.601.898 2.598.895 2.582.886 2.55.875 2.5.86 2.434.836 2.352.816 2.258.785 2.14.754 2.016.719 1.867.676 1.707.633 1.547.597 1.395.559 1.246.527 1.113.496.98.465.86.438.746.41.644.39.543.371.457.356.372.336.3.324.239.313.175.304.13.297.09.297.05.293.031.293.012h4.93" fill="none" stroke-width="1.25" stroke-linecap="square" stroke="#aaa" stroke-miterlimit="3.25"/><path d="M498.473 164.004v14h-25v-14zm0 0" fill="#fff" fill-opacity=".667"/><use xlink:href="#h" x="475.973" y="173.505"/><use xlink:href="#m" x="485.973" y="173.505"/><path d="M432.2 110.762h4.636l.078.008.086.02.094.038.101.059.114.093.12.125.13.172.14.22.156.273.168.332.18.398.195.473.207.55.227.637.242.727.258.82.277.926.293 1.035.317 1.148.336 1.27.355 1.398.38 1.528.397 1.668.422 1.816.45 1.965.472 2.121.496 2.285.524 2.442.543 2.593.57 2.727.586 2.851.602 2.965.62 3.063.633 3.152.645 3.227.656 3.289.664 3.34.672 3.382.676 3.407.68 3.422.68 3.425.679 3.418.68 3.395.672 3.363.668 3.317.656 3.257.648 3.192.637 3.11.625 3.015.61 2.91.59 2.789.573 2.66.551 2.52.531 2.367.504 2.203.48 2.043.462 1.887.437 1.742.418 1.597.399 1.461.379 1.332.363 1.208.348 1.093.332.977.316.875.3.773.294.68.28.594.27.507.258.438.254.363.242.305.239.246.234.191.23.149.223.11.227.073.218.051.223.028.223.011.226.004h4.696" fill="none" stroke-width="4" stroke-linejoin="round" stroke="#fff" stroke-opacity=".667" stroke-miterlimit="3.25"/><path d="M432.2 110.762h4.636l.078.008.086.02.094.038.101.059.114.093.12.125.13.172.14.22.156.273.168.332.18.398.195.473.207.55.227.637.242.727.258.82.277.926.293 1.035.317 1.148.336 1.27.355 1.398.38 1.528.397 1.668.422 1.816.45 1.965.472 2.121.496 2.285.524 2.442.543 2.593.57 2.727.586 2.851.602 2.965.62 3.063.633 3.152.645 3.227.656 3.289.664 3.34.672 3.382.676 3.407.68 3.422.68 3.425.679 3.418.68 3.395.672 3.363.668 3.317.656 3.257.648 3.192.637 3.11.625 3.015.61 2.91.59 2.789.573 2.66.551 2.52.531 2.367.504 2.203.48 2.043.462 1.887.437 1.742.418 1.597.399 1.461.379 1.332.363 1.208.348 1.093.332.977.316.875.3.773.294.68.28.594.27.507.258.438.254.363.242.305.239.246.234.191.23.149.223.11.227.073.218.051.223.028.223.011.226.004h4.696" fill="none" stroke-width="1.25" stroke-linecap="square" stroke="#aaa" stroke-miterlimit="3.25"/><path d="M498.473 228.906v15h-25v-15zm0 0" fill="#fff" fill-opacity=".667"/><use xlink:href="#n" x="475.973" y="238.906"/><use xlink:href="#o" x="485.973" y="238.906"/><path d="M432.2 108.453h4.562l.09.004.101.008.11.023.12.043.137.078.149.11.168.156.183.207.203.266.223.336.242.406.266.484.293.578.316.672.34.774.371.882.403 1.004.433 1.13.465 1.261.496 1.398.535 1.547.57 1.703.61 1.864.644 2.023.676 2.164.711 2.297.735 2.406.761 2.508.778 2.594.796 2.664.81 2.715.82 2.758.828 2.785.832 2.797.832 2.789.828 2.773.82 2.742.813 2.692.796 2.629.782 2.55.765 2.461.739 2.352.71 2.234.684 2.094.652 1.945.614 1.782.578 1.625.547 1.472.52 1.332.484 1.192.46 1.066.434.942.41.828.39.722.368.621.352.532.336.445.32.371.309.297.296.234.29.184.28.133.274.09.274.062.273.031.27.016.273.004h4.723" fill="none" stroke-width="4" stroke-linejoin="round" stroke="#fff" stroke-opacity=".667" stroke-miterlimit="3.25"/><path d="M432.2 108.453h4.562l.09.004.101.008.11.023.12.043.137.078.149.11.168.156.183.207.203.266.223.336.242.406.266.484.293.578.316.672.34.774.371.882.403 1.004.433 1.13.465 1.261.496 1.398.535 1.547.57 1.703.61 1.864.644 2.023.676 2.164.711 2.297.735 2.406.761 2.508.778 2.594.796 2.664.81 2.715.82 2.758.828 2.785.832 2.797.832 2.789.828 2.773.82 2.742.813 2.692.796 2.629.782 2.55.765 2.461.739 2.352.71 2.234.684 2.094.652 1.945.614 1.782.578 1.625.547 1.472.52 1.332.484 1.192.46 1.066.434.942.41.828.39.722.368.621.352.532.336.445.32.371.309.297.296.234.29.184.28.133.274.09.274.062.273.031.27.016.273.004h4.723" fill="none" stroke-width="1.25" stroke-linecap="square" stroke="#aaa" stroke-miterlimit="3.25"/><path d="M498.473 184.84v15h-25v-15zm0 0" fill="#fff" fill-opacity=".667"/><use xlink:href="#h" x="475.973" y="194.84"/><use xlink:href="#p" x="485.973" y="194.84"/><path d="M432.2 108.73h4.671l.094.012.101.028.11.054.12.078.134.118.144.164.16.21.176.27.192.332.207.406.222.485.246.566.262.66.285.762.309.863.332.977.351 1.097.38 1.227.406 1.356.433 1.496.461 1.644.488 1.8.52 1.958.55 2.129.583 2.289.61 2.441.632 2.578.66 2.704.676 2.808.7 2.906.71 2.989.727 3.058.734 3.11.742 3.148.75 3.176 1.508 6.375.75 3.176.746 3.144.742 3.102.73 3.043.72 2.976.706 2.89.688 2.794.668 2.684.648 2.554.625 2.418.594 2.266.57 2.097.54 1.93.511 1.774.485 1.62.46 1.473.434 1.336.418 1.2.39 1.078.376.957.355.847.34.742.324.645.313.555.297.468.285.395.277.32.266.262.261.203.254.152.254.11.246.078.246.047.247.023.246.012h4.875" fill="none" stroke-width="4" stroke-linejoin="round" stroke="#fff" stroke-opacity=".667" stroke-miterlimit="3.25"/><path d="M432.2 108.73h4.671l.094.012.101.028.11.054.12.078.134.118.144.164.16.21.176.27.192.332.207.406.222.485.246.566.262.66.285.762.309.863.332.977.351 1.097.38 1.227.406 1.356.433 1.496.461 1.644.488 1.8.52 1.958.55 2.129.583 2.289.61 2.441.632 2.578.66 2.704.676 2.808.7 2.906.71 2.989.727 3.058.734 3.11.742 3.148.75 3.176 1.508 6.375.75 3.176.746 3.144.742 3.102.73 3.043.72 2.976.706 2.89.688 2.794.668 2.684.648 2.554.625 2.418.594 2.266.57 2.097.54 1.93.511 1.774.485 1.62.46 1.473.434 1.336.418 1.2.39 1.078.376.957.355.847.34.742.324.645.313.555.297.468.285.395.277.32.266.262.261.203.254.152.254.11.246.078.246.047.247.023.246.012h4.875" fill="none" stroke-width="1.25" stroke-linecap="square" stroke="#aaa" stroke-miterlimit="3.25"/><path d="M498.473 206.875v15h-25v-15zm0 0" fill="#fff" fill-opacity=".667"/><use xlink:href="#q" x="475.973" y="216.875"/><use xlink:href="#f" x="485.973" y="216.875"/><path d="M361.004 32.469l12.613-1.617 12.61-1.637 12.609-1.574 12.61-1.512 12.609-1.457v-1.774l-12.61 1.66-12.61 1.758-12.608 1.875-12.61 2.012zm0 6.613l12.613-1.695 12.61-1.739 12.609-1.664 12.61-1.597 12.609-1.528v-2.464l-12.61 1.8-12.61 1.926-12.608 2.082-12.61 2.258zm0 59.324l12.613-.828 12.61-.969 37.828-2.93v-3.648l-12.61 1.465-12.61 1.54-12.608 1.632-12.61 1.734zm0 0" fill="gray" fill-opacity=".05"/><path d="M361.004 98.637l12.613-.13 12.61-.405 12.609-.446 12.61-.476 12.609-.504V91.21l-12.61 1.289-12.61 1.352-12.608 1.425-12.61 1.512zm0 0" fill="gray" fill-opacity=".05"/><path d="M361.004 100.484l12.613-.859 12.61-.996 12.609-1.004 12.61-1 12.609-.992V92.55l-12.61 1.398-12.61 1.465-12.608 1.543-12.61 1.64zm0 0" fill="gray" fill-opacity=".05"/><path d="M361.004 103.738l12.613-.976 12.61-1.114 12.609-1.105 12.61-1.098 12.609-1.082V95.45l-12.61 1.461-12.61 1.54-12.608 1.62-12.61 1.723zm0 0" fill="gray" fill-opacity=".05"/><path d="M361.004 106.613l12.613-1.46 12.61-1.583 12.609-1.523 12.61-1.477 12.609-1.43v-3.085l-12.61 1.789-12.61 1.914-12.608 2.058-12.61 2.243zm0 0" fill="gray" fill-opacity=".05"/><path d="M361.004 106.7l12.613-1.134 12.61-1.289 12.609-1.28 12.61-1.255 12.609-1.23v-3.469l-12.61 1.648-12.61 1.75-12.608 1.871-12.61 2.02zm0 9.187l12.613-.305 12.61-.52 12.609-.558 12.61-.578 12.609-.602V108.5l-12.61 1.293-12.61 1.355-12.608 1.43-12.61 1.508zm0 0" fill="gray" fill-opacity=".05"/><path d="M361.004 116.027l12.613-1.379 12.61-1.414 12.609-1.375 12.61-1.332 12.609-1.293v-1.53l-12.61 1.48-12.61 1.554-12.608 1.637-12.61 1.734zm0 0" fill="gray" fill-opacity=".05"/><path d="M361.004 117.45l12.613-1.5 12.61-1.493 12.609-1.473 12.61-1.41 12.609-1.37v-2.845l-12.61 1.711-12.61 1.825-12.608 1.964-12.61 2.102zm0 0" fill="gray" fill-opacity=".05"/><path d="M432.2 248.32H25m0 0V4m0 0h407.2m0 0v244.32" fill="none" stroke-width=".5" stroke-linecap="square" stroke="#666" stroke-miterlimit="3.25"/><path d="M58.363 248.32v-5.656" fill="none" stroke-width=".5" stroke="#666" stroke-miterlimit="3.25"/><g fill="#666"><use xlink:href="#r" x="43.864" y="260.32"/><use xlink:href="#s" x="49.382" y="260.32"/><use xlink:href="#t" x="54.821" y="260.32"/></g><g fill="#666"><use xlink:href="#u" x="61.864" y="260.32"/><use xlink:href="#v" x="67.479" y="260.32"/></g><path d="M146.633 248.32v-5.656" fill="none" stroke-width=".5" stroke="#666" stroke-miterlimit="3.25"/><g fill="#666"><use xlink:href="#r" x="132.135" y="260.32"/><use xlink:href="#s" x="137.652" y="260.32"/><use xlink:href="#t" x="143.092" y="260.32"/></g><g fill="#666"><use xlink:href="#w" x="150.135" y="260.32"/><use xlink:href="#x" x="155.75" y="260.32"/></g><path d="M234.906 248.32v-5.656" fill="none" stroke-width=".5" stroke="#666" stroke-miterlimit="3.25"/><g fill="#666"><use xlink:href="#r" x="220.405" y="260.32"/><use xlink:href="#s" x="225.923" y="260.32"/><use xlink:href="#t" x="231.362" y="260.32"/></g><g fill="#666"><use xlink:href="#w" x="238.405" y="260.32"/><use xlink:href="#y" x="244.02" y="260.32"/></g><path d="M323.176 248.32v-5.656" fill="none" stroke-width=".5" stroke="#666" stroke-miterlimit="3.25"/><g fill="#666"><use xlink:href="#z" x="308.675" y="260.32"/><use xlink:href="#A" x="314.203" y="260.32"/><use xlink:href="#B" x="319.501" y="260.32"/></g><g fill="#666"><use xlink:href="#x" x="326.675" y="260.32"/><use xlink:href="#v" x="332.291" y="260.32"/></g><path d="M411.445 248.32v-5.656" fill="none" stroke-width=".5" stroke="#666" stroke-miterlimit="3.25"/><g fill="#666"><use xlink:href="#z" x="396.946" y="260.32"/><use xlink:href="#A" x="402.473" y="260.32"/><use xlink:href="#B" x="407.771" y="260.32"/></g><g fill="#666"><use xlink:href="#u" x="414.946" y="260.32"/><use xlink:href="#x" x="420.561" y="260.32"/></g><path d="M25 231.871h4.07" fill="none" stroke-width=".1" stroke="#666" stroke-miterlimit="3.25"/><use xlink:href="#u" x="16" y="234.372" fill="#666"/><path d="M25 187.5h4.07" fill="none" stroke-width=".1" stroke="#666" stroke-miterlimit="3.25"/><g fill="#666"><use xlink:href="#u" x="11" y="189.998"/><use xlink:href="#x" x="16.615" y="189.998"/></g><path d="M25 143.125h4.07" fill="none" stroke-width=".1" stroke="#666" stroke-miterlimit="3.25"/><g fill="#666"><use xlink:href="#u" x="5" y="145.624"/><use xlink:href="#x" x="10.615" y="145.624"/><use xlink:href="#x" x="16.23" y="145.624"/></g><path d="M25 98.75h4.07" fill="none" stroke-width=".1" stroke="#666" stroke-miterlimit="3.25"/><g fill="#666"><use xlink:href="#u" y="101.25"/><use xlink:href="#x" x="5.615" y="101.25"/><use xlink:href="#x" x="11.23" y="101.25"/><use xlink:href="#x" x="16.846" y="101.25"/></g><path d="M25 54.375h4.07" fill="none" stroke-width=".1" stroke="#666" stroke-miterlimit="3.25"/><g fill="#666"><use xlink:href="#u" x="5" y="58.376"/><use xlink:href="#x" x="10.615" y="58.376"/></g><use xlink:href="#C" x="16" y="54.376" fill="#666"/><path d="M25 10.004h4.07" fill="none" stroke-width=".1" stroke="#666" stroke-miterlimit="3.25"/><g fill="#666"><use xlink:href="#u" x="5" y="14.002"/><use xlink:href="#x" x="10.615" y="14.002"/></g><use xlink:href="#D" x="16" y="10.002" fill="#666"/><path d="M25 245.23h2.398M25 241.715h2.398M25 238.746h2.398M25 236.172h2.398M25 233.902h2.398M25 218.516h2.398M25 210.7h2.398M25 205.156h2.398M25 200.855h2.398M25 197.344h2.398M25 194.371h2.398M25 191.797h2.398M25 189.527h2.398M25 174.14h2.398M25 166.328h2.398M25 160.781h2.398M25 156.48h2.398M25 152.969h2.398M25 149.996h2.398M25 147.426h2.398M25 145.156h2.398M25 129.766h2.398M25 121.953h2.398M25 116.41h2.398M25 112.11h2.398M25 108.594h2.398M25 105.625h2.398M25 103.05h2.398M25 100.781h2.398M25 85.39h2.398M25 77.578h2.398M25 72.035h2.398M25 67.734h2.398M25 64.219h2.398M25 61.25h2.398M25 58.676h2.398M25 56.406h2.398M25 41.02h2.398M25 33.203h2.398M25 27.66h2.398M25 23.36h2.398M25 19.848h2.398M25 16.875h2.398M25 14.3h2.398M25 12.031h2.398" fill="none" stroke-width=".1" stroke="#666" stroke-miterlimit="3.25"/><path d="M58.363 4v5.656M146.633 4v5.656M234.906 4v5.656M323.176 4v5.656M411.445 4v5.656" fill="none" stroke-width=".5" stroke="#666" stroke-miterlimit="3.25"/><path d="M432.2 231.871h-4.071M432.2 187.5h-4.071m4.071-44.375h-4.071M432.2 98.75h-4.071m4.071-44.375h-4.071m4.071-44.371h-4.071M432.2 245.23h-2.4m2.4-3.515h-2.4m2.4-2.969h-2.4m2.4-2.574h-2.4m2.4-2.27h-2.4m2.4-15.386h-2.4m2.4-7.816h-2.4m2.4-5.544h-2.4m2.4-4.301h-2.4m2.4-3.511h-2.4m2.4-2.973h-2.4m2.4-2.574h-2.4m2.4-2.27h-2.4m2.4-15.387h-2.4m2.4-7.812h-2.4m2.4-5.547h-2.4m2.4-4.301h-2.4m2.4-3.511h-2.4m2.4-2.973h-2.4m2.4-2.57h-2.4m2.4-2.27h-2.4m2.4-15.39h-2.4m2.4-7.813h-2.4m2.4-5.543h-2.4m2.4-4.3h-2.4m2.4-3.516h-2.4m2.4-2.969h-2.4m2.4-2.575h-2.4m2.4-2.269h-2.4m2.4-15.391h-2.4m2.4-7.812h-2.4m2.4-5.543h-2.4m2.4-4.301h-2.4m2.4-3.515h-2.4m2.4-2.969h-2.4m2.4-2.574h-2.4m2.4-2.27h-2.4m2.4-15.386h-2.4m2.4-7.817h-2.4m2.4-5.543h-2.4m2.4-4.3h-2.4m2.4-3.512h-2.4m2.4-2.973h-2.4m2.4-2.575h-2.4m2.4-2.269h-2.4" fill="none" stroke-width=".1" stroke="#666" stroke-miterlimit="3.25"/></svg>