<svg xmlns="http://www.w3.org/2000/svg" xmlns:xlink="http://www.w3.org/1999/xlink" width="500pt" height="260pt" viewBox="0 0 500 260"><defs><symbol overflow="visible" id="a"><path d="M1.766-.766h3.37V0H.825v-7.11h.942zm0 0"/></symbol><symbol overflow="visible" id="b"><path d="M.445-2.691c0-.516.102-.98.305-1.395a2.25 2.25 0 01.848-.957c.363-.227.777-.34 1.246-.34.719 0 1.3.25 1.742.75.445.496.668 1.16.668 1.985v.066c0 .512-.098.977-.297 1.383a2.24 2.24 0 01-.844.957 2.35 2.35 0 01-1.261.34c-.715 0-1.297-.25-1.743-.746-.445-.5-.664-1.157-.664-1.977zm.907.109c0 .586.136 1.055.41 1.41.27.356.633.531 1.09.531.46 0 .824-.18 1.093-.539.27-.36.407-.863.407-1.511 0-.579-.137-1.047-.415-1.407a1.312 1.312 0 00-1.093-.543c-.446 0-.809.18-1.082.536-.274.355-.41.863-.41 1.523zm0 0"/></symbol><symbol overflow="visible" id="c"><path d="M.469-2.688c0-.82.191-1.476.57-1.964.383-.485.887-.73 1.516-.73.644 0 1.148.23 1.507.687l.043-.586h.825v5.156c0 .684-.2 1.219-.606 1.613-.406.395-.949.59-1.633.59a2.71 2.71 0 01-1.12-.242c-.364-.164-.641-.387-.833-.668l.469-.543c.387.477.86.719 1.418.719.441 0 .785-.125 1.031-.371.246-.246.367-.598.367-1.047v-.453c-.359.418-.855.625-1.48.625-.617 0-1.117-.25-1.5-.746-.383-.5-.574-1.18-.574-2.04zm.906.106c0 .594.125 1.062.367 1.402.246.34.586.512 1.028.512.57 0 .988-.262 1.253-.777V-3.86c-.277-.504-.691-.754-1.246-.754-.437 0-.78.168-1.027.511-.25.344-.375.848-.375 1.52zm0 0"/></symbol><symbol overflow="visible" id="d"><path d="M1.664 0H.762v-5.281h.902zM.688-6.684c0-.148.046-.27.136-.37.09-.102.223-.153.395-.153.176 0 .312.05.402.152.09.102.137.223.137.371 0 .145-.047.27-.137.364-.09.097-.223.148-.402.148-.176 0-.305-.047-.395-.148a.518.518 0 01-.136-.364zm0 0"/></symbol><symbol overflow="visible" id="e"><path d="M3.758-1.402a.659.659 0 00-.274-.567c-.183-.136-.504-.254-.96-.351-.458-.098-.82-.215-1.09-.352-.27-.137-.47-.297-.598-.488a1.161 1.161 0 01-.191-.672c0-.434.183-.8.55-1.098.367-.3.832-.453 1.403-.453.597 0 1.086.156 1.457.465.375.309.558.707.558 1.188h-.906c0-.247-.105-.461-.316-.641-.211-.18-.473-.27-.793-.27-.328 0-.586.075-.77.22a.666.666 0 00-.281.558c0 .218.086.383.258.496.172.11.484.215.937.316.45.102.817.219 1.094.36.281.14.488.308.625.507.133.196.203.434.203.72 0 .472-.191.85-.566 1.136-.38.285-.868.426-1.473.426-.422 0-.797-.075-1.121-.223a1.852 1.852 0 01-.766-.629 1.513 1.513 0 01-.273-.871h.902a.93.93 0 00.363.719c.227.18.528.265.895.265.344 0 .617-.066.824-.207a.635.635 0 00.309-.554zm0 0"/></symbol><symbol overflow="visible" id="f"><path d="M1.91-6.563v1.282h.985v.695H1.91v3.277c0 .211.043.371.13.477.089.105.237.16.452.16.102 0 .246-.023.43-.062V0a2.573 2.573 0 01-.695.098c-.403 0-.707-.121-.914-.368-.204-.242-.305-.59-.305-1.039v-3.277H.043v-.695h.965v-1.282zm0 0"/></symbol><symbol overflow="visible" id="g"><path d="M2.805-.64a1.3 1.3 0 00.843-.294 1.01 1.01 0 00.399-.73h.855c-.015.3-.12.59-.312.863a2.03 2.03 0 01-.77.653 2.2 2.2 0 01-1.015.246c-.72 0-1.293-.239-1.72-.72C.66-1.101.45-1.757.45-2.593v-.148c0-.516.094-.973.285-1.375.188-.399.457-.711.813-.93.351-.223.77-.336 1.25-.336.594 0 1.086.18 1.476.535.395.356.602.817.63 1.38h-.856a1.238 1.238 0 00-.387-.84 1.217 1.217 0 00-.863-.333c-.457 0-.813.168-1.067.496-.253.332-.378.81-.378 1.434v.172c0 .61.125 1.078.375 1.406.25.328.609.492 1.078.492zm0 0"/></symbol><symbol overflow="visible" id="h"><path d="M4.844-3.285H1.762v2.52h3.582V0H.824v-7.11h4.469v.774H1.762v2.281h3.082zm0 0"/></symbol><symbol overflow="visible" id="i"><path d="M2.457-3.355l1.172-1.926h1.055l-1.73 2.61L4.733 0H3.691L2.47-1.977 1.25 0H.2l1.784-2.672-1.73-2.61h1.043zm0 0"/></symbol><symbol overflow="visible" id="j"><path d="M5.148-2.582c0 .805-.187 1.45-.554 1.941-.367.493-.864.739-1.492.739-.641 0-1.149-.203-1.516-.61v2.543H.684V-5.28h.824l.047.586c.367-.457.875-.688 1.53-.688.634 0 1.138.242 1.509.719.367.48.554 1.144.554 2zm-.906-.106c0-.593-.125-1.062-.379-1.41-.254-.343-.601-.515-1.047-.515-.546 0-.957.242-1.23.726v2.524c.27.48.684.722 1.242.722.434 0 .777-.171 1.031-.515.258-.344.383-.852.383-1.532zm0 0"/></symbol><symbol overflow="visible" id="k"><path d="M5.047-3.031c0 1.058-.18 1.844-.54 2.36-.362.51-.925.769-1.694.769-.758 0-1.32-.25-1.684-.754C.766-1.16.574-1.91.562-2.91v-1.207c0-1.043.18-1.82.54-2.328.363-.508.93-.762 1.703-.762.765 0 1.328.246 1.687.734.36.489.547 1.246.555 2.27zm-.902-1.235c0-.765-.106-1.324-.32-1.675-.216-.348-.555-.524-1.02-.524-.465 0-.801.176-1.012.524-.211.347-.32.882-.328 1.605v1.445c0 .77.113 1.336.336 1.704.222.367.558.546 1.012.546.445 0 .777-.171.992-.515.218-.344.332-.89.34-1.633zm0 0"/></symbol><symbol overflow="visible" id="l"><path d="M1.008-3.563l.36-3.546h3.64v.836H2.133l-.215 1.937a2.32 2.32 0 011.187-.309c.649 0 1.16.215 1.543.645.383.426.57 1.004.57 1.734 0 .735-.195 1.309-.593 1.73-.395.423-.945.634-1.656.634-.63 0-1.14-.176-1.54-.524C1.032-.773.81-1.254.75-1.87h.855c.055.406.2.715.434.922.234.207.547.308.93.308.422 0 .75-.14.988-.43.238-.284.36-.679.36-1.187 0-.472-.13-.855-.387-1.144-.258-.285-.606-.43-1.035-.43-.395 0-.704.086-.926.258l-.242.195zm0 0"/></symbol><symbol overflow="visible" id="m"><path d="M3.559 0h-.907v-6.02l-1.824.668v-.82l2.59-.973h.14zm0 0"/></symbol><symbol overflow="visible" id="n"><path d="M5.25 0H.59v-.648l2.46-2.735c.364-.414.618-.75.755-1.008.14-.257.21-.527.21-.804 0-.371-.113-.676-.34-.914-.222-.239-.523-.356-.898-.356-.449 0-.797.13-1.047.383-.25.254-.37.613-.37 1.066H.452c0-.652.211-1.183.633-1.586.422-.402.984-.605 1.691-.605.66 0 1.184.172 1.567.52.386.347.578.808.578 1.382 0 .703-.445 1.535-1.336 2.5L1.68-.738h3.57zm0 0"/></symbol><symbol overflow="visible" id="o"><path d="M1.906-3.992h.676c.426-.008.762-.121 1.008-.34.242-.219.363-.512.363-.883 0-.832-.414-1.25-1.242-1.25-.39 0-.703.113-.938.336-.23.223-.347.516-.347.887H.523c0-.563.204-1.031.618-1.406.41-.372.933-.559 1.57-.559.672 0 1.195.176 1.578.531.379.356.57.848.57 1.48 0 .31-.101.61-.3.9a1.81 1.81 0 01-.817.648c.39.125.692.328.903.617.214.285.32.636.32 1.047 0 .64-.207 1.144-.625 1.52-.418.374-.957.562-1.625.562s-1.211-.18-1.63-.543c-.417-.36-.624-.836-.624-1.43h.906c0 .375.121.672.367.898.243.227.57.336.98.336.438 0 .77-.113 1-.34.231-.23.349-.554.349-.98 0-.414-.125-.734-.383-.953-.254-.223-.618-.336-1.098-.344h-.676zm0 0"/></symbol><symbol overflow="visible" id="p"><path d="M4.406-2.387h.985v.739h-.985V0h-.91v-1.648H.258v-.536L3.44-7.109h.965zm-3.12 0h2.21v-3.488l-.105.195zm0 0"/></symbol></defs><path d="M109.113 242.559V4m68.16 238.559V4m68.161 238.559V4m68.16 238.559V4m68.16 238.559V4M33 201.844h397.602M33 161.102h397.602M33 120.36h397.602M33 79.617h397.602M33 38.875h397.602" fill="none" stroke="#666" stroke-opacity=".5" stroke-dasharray="1,2" stroke-miterlimit="3.25"/><path d="M100.063 242.559l3.28-.149 7.473-.39 8.102-.48 7.562-.513 7.41-.57 8.048-.703 7.503-.75 8.137-.926 7.988-1.043 7.446-1.11 8.082-1.366 7.539-1.461 8.172-1.805 8.02-2.027 7.484-2.16 8.117-2.668L228 221.59l7.426-3.164 8.058-3.914 7.52-4.164 8.148-5.153 8-5.793 7.461-6.16 8.094-7.613 7.555-8.113 7.406-9.02 8.035-11.148 7.496-11.86 8.13-14.668 7.589-15.636 7.437-17.399 8.07-21.515 7.536-22.907 8.16-28.332.438-1.73" fill="none" stroke-width="1.6" stroke-linecap="square" stroke="#a60000" stroke-opacity=".3" stroke-miterlimit="3.25"/><path d="M61.195 242.559l2.957-.016h.114l.117-.004h.234l.465-.004.926-.004 1.86-.015h.464l3.254-.028h.254l.25-.004 3.527-.027 4.035-.039h.118l.117-.004h.234l.473-.008.941-.008 1.88-.02.116-.003h.121l.235-.004.468-.004 2.825-.035h.125l.129-.004h.254l.511-.008 1.02-.011 2.039-.032h.129l.125-.004.254-.003.511-.004 3.059-.047.125-.004h.125l.25-.004.5-.012 1.004-.015 2-.036 4.004-.074.234-.008.234-.004.465-.007.934-.02 1.871-.043 3.734-.09h.125l.13-.004.25-.007.507-.012 1.012-.027 2.027-.055 4.051-.125.234-.008.239-.004 1.418-.047 1.89-.066 3.781-.145.114-.004.117-.003.23-.012.465-.016.926-.039 1.852-.082 3.707-.172.129-.008.125-.004.25-.011.503-.028 1.004-.05 2.012-.11 4.024-.234.937-.063.938-.058 1.875-.125 3.753-.274.13-.011.124-.008.254-.024.508-.039 1.02-.082 2.03-.168 4.071-.37.25-.024.25-.028.496-.046 1-.102 1.996-.21 3.996-.454.114-.012.117-.015.234-.028 1.395-.175 1.863-.239 3.723-.52.129-.019.125-.02.254-.035.503-.078 1.008-.152 2.024-.32 4.039-.696.117-.023.117-.02.234-.043.473-.085.942-.18 1.886-.363 3.77-.79.129-.027.125-.027.258-.059.511-.113 1.02-.23 2.043-.481 4.086-1.035.125-.035.125-.032.25-.07.5-.133 1.004-.277 2.007-.57 4.008-1.223 7.485-2.582 8.117-3.27L228 221.06l7.426-3.864 8.058-4.625 7.52-4.656 8.148-5.316 8-5.352 7.461-4.976 8.094-5.243 7.555-4.625 7.406-4.199 8.035-4.117 7.496-3.399 8.13-3.199 7.589-2.547.113-.035.352-.105 1.394-.422 1.86-.54 3.718-1.015.13-.031.124-.031.25-.067.508-.129 1.008-.254 2.016-.492 4.035-.91.12-.027.118-.024.234-.05.47-.098.945-.195 1.882-.38 3.766-.702.125-.024.129-.02.254-.046.511-.09 1.02-.172 2.043-.336 4.078-.621.125-.016.125-.02.254-.034.5-.07 1-.137 2.004-.266 4.008-.492.117-.012.117-.016.234-.027.465-.05.934-.106 1.871-.2 3.738-.37.125-.012.13-.016.25-.023.507-.047 1.012-.09 2.027-.176 4.055-.324.234-.016.238-.02.473-.034 2.836-.2 3.785-.242.117-.004.114-.007.234-.016.46-.027.93-.055 1.856-.102 3.707-.191.125-.008.129-.008.25-.011.504-.024 1.004-.047 2.015-.09 4.024-.167.469-.016.468-.02.938-.035 1.879-.066 3.758-.125.129-.004.132-.004 1.832-.055 2.098-.058.129-.004.133-.004.261-.008.524-.012 1.047-.03h.133l.128-.005.262-.008.528-.011.128-.004.133-.004.262-.008.129-.004h.133l.129-.004.132-.004" fill="none" stroke-width="1.6" stroke-linecap="square" stroke="#0d86a0" stroke-opacity=".3" stroke-miterlimit="3.25"/><path d="M430.602 153.86h25.265" fill="none" stroke-width="4" stroke-linejoin="round" stroke="#fff" stroke-opacity=".667" stroke-miterlimit="3.25"/><path d="M430.602 153.86h25.265" fill="none" stroke-width="1.25" stroke-linecap="square" stroke="#aaa" stroke-miterlimit="3.25"/><path d="M496.867 146.36v15h-41v-15zm0 0" fill="#fff" fill-opacity=".667"/><use xlink:href="#a" x="458.868" y="156.359"/><use xlink:href="#b" x="464.249" y="156.359"/><use xlink:href="#c" x="469.952" y="156.359"/><use xlink:href="#d" x="475.562" y="156.359"/><use xlink:href="#e" x="477.989" y="156.359"/><use xlink:href="#f" x="483.145" y="156.359"/><use xlink:href="#d" x="486.412" y="156.359"/><use xlink:href="#g" x="488.839" y="156.359"/><path d="M368.191 23.3h87.676" fill="none" stroke-width="4" stroke-linejoin="round" stroke="#fff" stroke-opacity=".667" stroke-miterlimit="3.25"/><path d="M368.191 23.3h87.676" fill="none" stroke-width="1.25" stroke-linecap="square" stroke="#aaa" stroke-miterlimit="3.25"/><path d="M477.867 15.8v15h-22v-15zm0 0" fill="#fff" fill-opacity=".667"/><use xlink:href="#h" x="458.868" y="25.8"/><use xlink:href="#i" x="464.551" y="25.8"/><use xlink:href="#j" x="469.507" y="25.8"/><path d="M57.55 242c0-.676-.269-1.324-.745-1.805A2.565 2.565 0 0055 239.45c-.676 0-1.324.27-1.805.746A2.565 2.565 0 0052.45 242c0 .676.27 1.324.746 1.805.48.476 1.13.746 1.805.746.676 0 1.324-.27 1.805-.746.476-.48.746-1.13.746-1.805zm13 0c0-.676-.269-1.324-.745-1.805A2.565 2.565 0 0068 239.45c-.676 0-1.324.27-1.805.746A2.565 2.565 0 0065.45 242c0 .676.27 1.324.746 1.805.48.476 1.13.746 1.805.746.676 0 1.324-.27 1.805-.746.476-.48.746-1.13.746-1.805zm14 0c0-.676-.269-1.324-.745-1.805A2.565 2.565 0 0082 239.45c-.676 0-1.324.27-1.805.746A2.565 2.565 0 0079.45 242c0 .676.27 1.324.746 1.805.48.476 1.13.746 1.805.746.676 0 1.324-.27 1.805-.746.476-.48.746-1.13.746-1.805zm13 0c0-.676-.269-1.324-.745-1.805A2.565 2.565 0 0095 239.45c-.676 0-1.324.27-1.805.746A2.565 2.565 0 0092.45 242c0 .676.27 1.324.746 1.805.48.476 1.13.746 1.805.746.676 0 1.324-.27 1.805-.746.476-.48.746-1.13.746-1.805zm14 0c0-.676-.269-1.324-.745-1.805a2.565 2.565 0 00-1.805-.746c-.676 0-1.324.27-1.805.746a2.565 2.565 0 00-.746 1.805c0 .676.27 1.324.746 1.805.48.476 1.13.746 1.805.746.676 0 1.324-.27 1.805-.746.476-.48.746-1.13.746-1.805zm14-1c0-.676-.269-1.324-.745-1.805a2.565 2.565 0 00-1.805-.746c-.676 0-1.324.27-1.805.746a2.565 2.565 0 00-.746 1.805c0 .676.27 1.324.746 1.805.48.476 1.13.746 1.805.746.676 0 1.324-.27 1.805-.746.476-.48.746-1.13.746-1.805zm13 0c0-.676-.269-1.324-.745-1.805a2.565 2.565 0 00-1.805-.746c-.676 0-1.324.27-1.805.746a2.565 2.565 0 00-.746 1.805c0 .676.27 1.324.746 1.805.48.476 1.13.746 1.805.746.676 0 1.324-.27 1.805-.746.476-.48.746-1.13.746-1.805zm14-1c0-.676-.269-1.324-.745-1.805a2.565 2.565 0 00-1.805-.746c-.676 0-1.324.27-1.805.746a2.565 2.565 0 00-.746 1.805c0 .676.27 1.324.746 1.805.48.476 1.13.746 1.805.746.676 0 1.324-.27 1.805-.746.476-.48.746-1.13.746-1.805zm14-1c0-.676-.269-1.324-.745-1.805a2.565 2.565 0 00-1.805-.746c-.676 0-1.324.27-1.805.746a2.565 2.565 0 00-.746 1.805c0 .676.27 1.324.746 1.805.48.476 1.13.746 1.805.746.676 0 1.324-.27 1.805-.746.476-.48.746-1.13.746-1.805zm13-2c0-.676-.269-1.324-.745-1.805a2.565 2.565 0 00-1.805-.746c-.676 0-1.324.27-1.805.746a2.565 2.565 0 00-.746 1.805c0 .676.27 1.324.746 1.805.48.476 1.13.746 1.805.746.676 0 1.324-.27 1.805-.746.476-.48.746-1.13.746-1.805zm14-2c0-.676-.269-1.324-.745-1.805a2.565 2.565 0 00-1.805-.746c-.676 0-1.324.27-1.805.746a2.565 2.565 0 00-.746 1.805c0 .676.27 1.324.746 1.805.48.476 1.13.746 1.805.746.676 0 1.324-.27 1.805-.746.476-.48.746-1.13.746-1.805zm14-4c0-.676-.269-1.324-.745-1.805a2.565 2.565 0 00-1.805-.746c-.676 0-1.324.27-1.805.746a2.565 2.565 0 00-.746 1.805c0 .676.27 1.324.746 1.805.48.476 1.13.746 1.805.746.676 0 1.324-.27 1.805-.746.476-.48.746-1.13.746-1.805zm13-7c0-.676-.269-1.324-.745-1.805a2.565 2.565 0 00-1.805-.746c-.676 0-1.324.27-1.805.746a2.565 2.565 0 00-.746 1.805c0 .676.27 1.324.746 1.805.48.476 1.13.746 1.805.746.676 0 1.324-.27 1.805-.746.476-.48.746-1.13.746-1.805zm14-6c0-.676-.269-1.324-.745-1.805a2.565 2.565 0 00-1.805-.746c-.676 0-1.324.27-1.805.746a2.565 2.565 0 00-.746 1.805c0 .676.27 1.324.746 1.805.48.476 1.13.746 1.805.746.676 0 1.324-.27 1.805-.746.476-.48.746-1.13.746-1.805zm13-7c0-.676-.269-1.324-.745-1.805a2.565 2.565 0 00-1.805-.746c-.676 0-1.324.27-1.805.746a2.565 2.565 0 00-.746 1.805c0 .676.27 1.324.746 1.805.48.476 1.13.746 1.805.746.676 0 1.324-.27 1.805-.746.476-.48.746-1.13.746-1.805zm14-8c0-.676-.269-1.324-.745-1.805a2.565 2.565 0 00-1.805-.746c-.676 0-1.324.27-1.805.746a2.565 2.565 0 00-.746 1.805c0 .676.27 1.324.746 1.805.48.476 1.13.746 1.805.746.676 0 1.324-.27 1.805-.746.476-.48.746-1.13.746-1.805zm14-8c0-.676-.269-1.324-.745-1.805a2.565 2.565 0 00-1.805-.746c-.676 0-1.324.27-1.805.746a2.565 2.565 0 00-.746 1.805c0 .676.27 1.324.746 1.805.48.476 1.13.746 1.805.746.676 0 1.324-.27 1.805-.746.476-.48.746-1.13.746-1.805zm13-11c0-.676-.269-1.324-.745-1.805a2.565 2.565 0 00-1.805-.746c-.676 0-1.324.27-1.805.746a2.565 2.565 0 00-.746 1.805c0 .676.27 1.324.746 1.805.48.476 1.13.746 1.805.746.676 0 1.324-.27 1.805-.746.476-.48.746-1.13.746-1.805zm0 0" fill-rule="evenodd" fill="#c05c20"/><path d="M430.602 242.559H33m0 0V4m0 0h397.602m0 0v238.559" fill="none" stroke-width=".5" stroke-linecap="square" stroke="#666" stroke-miterlimit="3.25"/><path d="M40.953 242.559v-4" fill="none" stroke-width=".5" stroke="#666" stroke-miterlimit="3.25"/><use xlink:href="#k" x="37.952" y="254.56" fill="#666"/><path d="M54.586 242.559v-2.399m13.629 2.399v-2.399m13.633 2.399v-2.399m13.632 2.399v-2.399m13.633 2.399v-4" fill="none" stroke-width=".5" stroke="#666" stroke-miterlimit="3.25"/><use xlink:href="#l" x="106.112" y="254.56" fill="#666"/><path d="M122.742 242.559v-2.399m13.633 2.399v-2.399m13.633 2.399v-2.399m13.632 2.399v-2.399m13.633 2.399v-4" fill="none" stroke-width=".5" stroke="#666" stroke-miterlimit="3.25"/><g fill="#666"><use xlink:href="#m" x="171.772" y="254.56"/><use xlink:href="#k" x="177.387" y="254.56"/></g><path d="M190.902 242.559v-2.399m13.633 2.399v-2.399m13.633 2.399v-2.399m13.632 2.399v-2.399m13.634 2.399v-4" fill="none" stroke-width=".5" stroke="#666" stroke-miterlimit="3.25"/><g fill="#666"><use xlink:href="#m" x="239.932" y="254.56"/><use xlink:href="#l" x="245.547" y="254.56"/></g><path d="M259.063 242.559v-2.399m13.632 2.399v-2.399m13.633 2.399v-2.399m13.632 2.399v-2.399m13.634 2.399v-4" fill="none" stroke-width=".5" stroke="#666" stroke-miterlimit="3.25"/><g fill="#666"><use xlink:href="#n" x="308.092" y="254.56"/><use xlink:href="#k" x="313.707" y="254.56"/></g><path d="M327.223 242.559v-2.399m13.632 2.399v-2.399m13.633 2.399v-2.399m13.633 2.399v-2.399m13.633 2.399v-4" fill="none" stroke-width=".5" stroke="#666" stroke-miterlimit="3.25"/><g fill="#666"><use xlink:href="#n" x="376.252" y="254.56"/><use xlink:href="#l" x="381.867" y="254.56"/></g><path d="M395.383 242.559v-2.399m13.633 2.399v-2.399m13.632 2.399v-2.399M33 242.586h4" fill="none" stroke-width=".5" stroke="#666" stroke-miterlimit="3.25"/><use xlink:href="#k" x="24" y="245.084" fill="#666"/><path d="M33 234.438h2.398M33 226.29h2.398M33 218.14h2.398M33 209.992h2.398M33 201.844h4" fill="none" stroke-width=".5" stroke="#666" stroke-miterlimit="3.25"/><g fill="#666"><use xlink:href="#m" y="204.343"/><use xlink:href="#k" x="5.615" y="204.343"/></g><g fill="#666"><use xlink:href="#k" x="12.686" y="204.343"/><use xlink:href="#k" x="18.301" y="204.343"/><use xlink:href="#k" x="23.916" y="204.343"/></g><path d="M33 193.695h2.398M33 185.547h2.398M33 177.398h2.398M33 169.25h2.398M33 161.102h4" fill="none" stroke-width=".5" stroke="#666" stroke-miterlimit="3.25"/><g fill="#666"><use xlink:href="#n" y="163.601"/><use xlink:href="#k" x="5.615" y="163.601"/></g><g fill="#666"><use xlink:href="#k" x="12.686" y="163.601"/><use xlink:href="#k" x="18.301" y="163.601"/><use xlink:href="#k" x="23.916" y="163.601"/></g><path d="M33 152.953h2.398M33 144.805h2.398M33 136.656h2.398M33 128.508h2.398M33 120.36h4" fill="none" stroke-width=".5" stroke="#666" stroke-miterlimit="3.25"/><g fill="#666"><use xlink:href="#o" y="122.859"/><use xlink:href="#k" x="5.615" y="122.859"/></g><g fill="#666"><use xlink:href="#k" x="12.686" y="122.859"/><use xlink:href="#k" x="18.301" y="122.859"/><use xlink:href="#k" x="23.916" y="122.859"/></g><path d="M33 112.21h2.398M33 104.063h2.398M33 95.914h2.398M33 87.766h2.398M33 79.617h4" fill="none" stroke-width=".5" stroke="#666" stroke-miterlimit="3.25"/><g fill="#666"><use xlink:href="#p" y="82.117"/><use xlink:href="#k" x="5.615" y="82.117"/></g><g fill="#666"><use xlink:href="#k" x="12.686" y="82.117"/><use xlink:href="#k" x="18.301" y="82.117"/><use xlink:href="#k" x="23.916" y="82.117"/></g><path d="M33 71.469h2.398M33 63.32h2.398M33 55.172h2.398M33 47.023h2.398M33 38.875h4" fill="none" stroke-width=".5" stroke="#666" stroke-miterlimit="3.25"/><g fill="#666"><use xlink:href="#l" y="41.376"/><use xlink:href="#k" x="5.615" y="41.376"/></g><g fill="#666"><use xlink:href="#k" x="12.686" y="41.376"/><use xlink:href="#k" x="18.301" y="41.376"/><use xlink:href="#k" x="23.916" y="41.376"/></g><path d="M33 30.727h2.398M33 22.578h2.398M33 14.43h2.398M33 6.281h2.398" fill="none" stroke-width=".5" stroke="#666" stroke-miterlimit="3.25"/><path d="M40.953 4v3.977M109.113 4v3.977M177.273 4v3.977M245.434 4v3.977M313.594 4v3.977M381.754 4v3.977M54.586 4v2.398M68.215 4v2.398M81.848 4v2.398M95.48 4v2.398M122.742 4v2.398M136.375 4v2.398M150.008 4v2.398M163.64 4v2.398M190.902 4v2.398M204.535 4v2.398M218.168 4v2.398M231.8 4v2.398M259.063 4v2.398M272.695 4v2.398M286.328 4v2.398M299.96 4v2.398M327.223 4v2.398M340.855 4v2.398M354.488 4v2.398M368.121 4v2.398M395.383 4v2.398M409.016 4v2.398M422.648 4v2.398m7.954 195.446h-3.977m3.977-40.742h-3.977m3.977-40.742h-3.977m3.977-40.743h-3.977m3.977-40.742h-3.977m3.977 195.563h-2.403m2.403-8.148h-2.403m2.403-8.15h-2.403m2.403-8.148h-2.403m2.403-16.297h-2.403m2.403-8.148h-2.403m2.403-8.149h-2.403m2.403-8.148h-2.403m2.403-16.297h-2.403m2.403-8.148h-2.403m2.403-8.149h-2.403m2.403-8.148h-2.403m2.403-16.298h-2.403m2.403-8.147h-2.403m2.403-8.149h-2.403m2.403-8.148h-2.403m2.403-16.297h-2.403m2.403-8.149h-2.403m2.403-8.148h-2.403m2.403-8.149h-2.403m2.403-16.296h-2.403m2.403-8.149h-2.403m2.403-8.148h-2.403m2.403-8.149h-2.403" fill="none" stroke-width=".1" stroke="#666" stroke-miterlimit="3.25"/></svg>