<svg xmlns="http://www.w3.org/2000/svg" xmlns:xlink="http://www.w3.org/1999/xlink" width="500pt" height="257pt" viewBox="0 0 500 257"><defs><symbol overflow="visible" id="a"><path d="M1.766-.766h3.37V0H.825v-7.11h.942zm0 0"/></symbol><symbol overflow="visible" id="b"><path d="M.445-2.691c0-.516.102-.98.305-1.395a2.25 2.25 0 01.848-.957c.363-.227.777-.34 1.246-.34.719 0 1.3.25 1.742.75.445.496.668 1.16.668 1.985v.066c0 .512-.098.977-.297 1.383a2.24 2.24 0 01-.844.957 2.35 2.35 0 01-1.261.34c-.715 0-1.297-.25-1.743-.746-.445-.5-.664-1.157-.664-1.977zm.907.109c0 .586.136 1.055.41 1.41.27.356.633.531 1.09.531.46 0 .824-.18 1.093-.539.27-.36.407-.863.407-1.511 0-.579-.137-1.047-.415-1.407a1.312 1.312 0 00-1.093-.543c-.446 0-.809.18-1.082.536-.274.355-.41.863-.41 1.523zm0 0"/></symbol><symbol overflow="visible" id="c"><path d="M.469-2.688c0-.82.191-1.476.57-1.964.383-.485.887-.73 1.516-.73.644 0 1.148.23 1.507.687l.043-.586h.825v5.156c0 .684-.2 1.219-.606 1.613-.406.395-.949.59-1.633.59a2.71 2.71 0 01-1.12-.242c-.364-.164-.641-.387-.833-.668l.469-.543c.387.477.86.719 1.418.719.441 0 .785-.125 1.031-.371.246-.246.367-.598.367-1.047v-.453c-.359.418-.855.625-1.48.625-.617 0-1.117-.25-1.5-.746-.383-.5-.574-1.18-.574-2.04zm.906.106c0 .594.125 1.062.367 1.402.246.34.586.512 1.028.512.57 0 .988-.262 1.253-.777V-3.86c-.277-.504-.691-.754-1.246-.754-.437 0-.78.168-1.027.511-.25.344-.375.848-.375 1.52zm0 0"/></symbol><symbol overflow="visible" id="d"><path d="M1.664 0H.762v-5.281h.902zM.688-6.684c0-.148.046-.27.136-.37.09-.102.223-.153.395-.153.176 0 .312.05.402.152.09.102.137.223.137.371 0 .145-.047.27-.137.364-.09.097-.223.148-.402.148-.176 0-.305-.047-.395-.148a.518.518 0 01-.136-.364zm0 0"/></symbol><symbol overflow="visible" id="e"><path d="M3.758-1.402a.659.659 0 00-.274-.567c-.183-.136-.504-.254-.96-.351-.458-.098-.82-.215-1.09-.352-.27-.137-.47-.297-.598-.488a1.161 1.161 0 01-.191-.672c0-.434.183-.8.55-1.098.367-.3.832-.453 1.403-.453.597 0 1.086.156 1.457.465.375.309.558.707.558 1.188h-.906c0-.247-.105-.461-.316-.641-.211-.18-.473-.27-.793-.27-.328 0-.586.075-.77.22a.666.666 0 00-.281.558c0 .218.086.383.258.496.172.11.484.215.937.316.45.102.817.219 1.094.36.281.14.488.308.625.507.133.196.203.434.203.72 0 .472-.191.85-.566 1.136-.38.285-.868.426-1.473.426-.422 0-.797-.075-1.121-.223a1.852 1.852 0 01-.766-.629 1.513 1.513 0 01-.273-.871h.902a.93.93 0 00.363.719c.227.18.528.265.895.265.344 0 .617-.066.824-.207a.635.635 0 00.309-.554zm0 0"/></symbol><symbol overflow="visible" id="f"><path d="M1.91-6.563v1.282h.985v.695H1.91v3.277c0 .211.043.371.13.477.089.105.237.16.452.16.102 0 .246-.023.43-.062V0a2.573 2.573 0 01-.695.098c-.403 0-.707-.121-.914-.368-.204-.242-.305-.59-.305-1.039v-3.277H.043v-.695h.965v-1.282zm0 0"/></symbol><symbol overflow="visible" id="g"><path d="M2.805-.64a1.3 1.3 0 00.843-.294 1.01 1.01 0 00.399-.73h.855c-.015.3-.12.59-.312.863a2.03 2.03 0 01-.77.653 2.2 2.2 0 01-1.015.246c-.72 0-1.293-.239-1.72-.72C.66-1.101.45-1.757.45-2.593v-.148c0-.516.094-.973.285-1.375.188-.399.457-.711.813-.93.351-.223.77-.336 1.25-.336.594 0 1.086.18 1.476.535.395.356.602.817.63 1.38h-.856a1.238 1.238 0 00-.387-.84 1.217 1.217 0 00-.863-.333c-.457 0-.813.168-1.067.496-.253.332-.378.81-.378 1.434v.172c0 .61.125 1.078.375 1.406.25.328.609.492 1.078.492zm0 0"/></symbol><symbol overflow="visible" id="h"><path d="M4.844-3.285H1.762v2.52h3.582V0H.824v-7.11h4.469v.774H1.762v2.281h3.082zm0 0"/></symbol><symbol overflow="visible" id="i"><path d="M2.457-3.355l1.172-1.926h1.055l-1.73 2.61L4.733 0H3.691L2.47-1.977 1.25 0H.2l1.784-2.672-1.73-2.61h1.043zm0 0"/></symbol><symbol overflow="visible" id="j"><path d="M5.148-2.582c0 .805-.187 1.45-.554 1.941-.367.493-.864.739-1.492.739-.641 0-1.149-.203-1.516-.61v2.543H.684V-5.28h.824l.047.586c.367-.457.875-.688 1.53-.688.634 0 1.138.242 1.509.719.367.48.554 1.144.554 2zm-.906-.106c0-.593-.125-1.062-.379-1.41-.254-.343-.601-.515-1.047-.515-.546 0-.957.242-1.23.726v2.524c.27.48.684.722 1.242.722.434 0 .777-.171 1.031-.515.258-.344.383-.852.383-1.532zm0 0"/></symbol><symbol overflow="visible" id="k"><path d="M5.047-3.031c0 1.058-.18 1.844-.54 2.36-.362.51-.925.769-1.694.769-.758 0-1.32-.25-1.684-.754C.766-1.16.574-1.91.562-2.91v-1.207c0-1.043.18-1.82.54-2.328.363-.508.93-.762 1.703-.762.765 0 1.328.246 1.687.734.36.489.547 1.246.555 2.27zm-.902-1.235c0-.765-.106-1.324-.32-1.675-.216-.348-.555-.524-1.02-.524-.465 0-.801.176-1.012.524-.211.347-.32.882-.328 1.605v1.445c0 .77.113 1.336.336 1.704.222.367.558.546 1.012.546.445 0 .777-.171.992-.515.218-.344.332-.89.34-1.633zm0 0"/></symbol><symbol overflow="visible" id="l"><path d="M1.008-3.563l.36-3.546h3.64v.836H2.133l-.215 1.937a2.32 2.32 0 011.187-.309c.649 0 1.16.215 1.543.645.383.426.57 1.004.57 1.734 0 .735-.195 1.309-.593 1.73-.395.423-.945.634-1.656.634-.63 0-1.14-.176-1.54-.524C1.032-.773.81-1.254.75-1.87h.855c.055.406.2.715.434.922.234.207.547.308.93.308.422 0 .75-.14.988-.43.238-.284.36-.679.36-1.187 0-.472-.13-.855-.387-1.144-.258-.285-.606-.43-1.035-.43-.395 0-.704.086-.926.258l-.242.195zm0 0"/></symbol><symbol overflow="visible" id="m"><path d="M3.559 0h-.907v-6.02l-1.824.668v-.82l2.59-.973h.14zm0 0"/></symbol><symbol overflow="visible" id="n"><path d="M5.25 0H.59v-.648l2.46-2.735c.364-.414.618-.75.755-1.008.14-.257.21-.527.21-.804 0-.371-.113-.676-.34-.914-.222-.239-.523-.356-.898-.356-.449 0-.797.13-1.047.383-.25.254-.37.613-.37 1.066H.452c0-.652.211-1.183.633-1.586.422-.402.984-.605 1.691-.605.66 0 1.184.172 1.567.52.386.347.578.808.578 1.382 0 .703-.445 1.535-1.336 2.5L1.68-.738h3.57zm0 0"/></symbol><symbol overflow="visible" id="o"><path d="M1.906-3.992h.676c.426-.008.762-.121 1.008-.34.242-.219.363-.512.363-.883 0-.832-.414-1.25-1.242-1.25-.39 0-.703.113-.938.336-.23.223-.347.516-.347.887H.523c0-.563.204-1.031.618-1.406.41-.372.933-.559 1.57-.559.672 0 1.195.176 1.578.531.379.356.57.848.57 1.48 0 .31-.101.61-.3.9a1.81 1.81 0 01-.817.648c.39.125.692.328.903.617.214.285.32.636.32 1.047 0 .64-.207 1.144-.625 1.52-.418.374-.957.562-1.625.562s-1.211-.18-1.63-.543c-.417-.36-.624-.836-.624-1.43h.906c0 .375.121.672.367.898.243.227.57.336.98.336.438 0 .77-.113 1-.34.231-.23.349-.554.349-.98 0-.414-.125-.734-.383-.953-.254-.223-.618-.336-1.098-.344h-.676zm0 0"/></symbol><symbol overflow="visible" id="p"><path d="M4.406-2.387h.985v.739h-.985V0h-.91v-1.648H.258v-.536L3.44-7.109h.965zm-3.12 0h2.21v-3.488l-.105.195zm0 0"/></symbol><symbol overflow="visible" id="q"><path d="M4.137-7.113v.765h-.168c-.703.012-1.262.223-1.68.625-.414.403-.656.973-.723 1.703.375-.43.887-.644 1.536-.644.617 0 1.113.219 1.48.656.371.438.555 1 .555 1.688 0 .734-.2 1.32-.598 1.757-.398.442-.934.66-1.605.66-.68 0-1.23-.261-1.653-.784C.855-1.212.645-1.883.645-2.704v-.348c0-1.308.277-2.308.835-3 .56-.691 1.391-1.047 2.497-1.062zM2.949-3.91c-.308 0-.594.09-.855.277a1.446 1.446 0 00-.54.7v.331c0 .586.13 1.059.395 1.414.262.36.59.54.985.54.406 0 .726-.153.96-.45.231-.3.348-.691.348-1.175 0-.489-.117-.887-.351-1.188a1.14 1.14 0 00-.942-.45zm0 0"/></symbol><symbol overflow="visible" id="r"><path d="M4.902-5.254c0 .356-.093.672-.28.95a1.95 1.95 0 01-.759.648c.371.16.664.39.88.695.218.309.327.656.327 1.043 0 .613-.21 1.105-.625 1.469-.414.363-.96.547-1.636.547-.684 0-1.23-.184-1.645-.551C.754-.82.547-1.31.547-1.918c0-.387.105-.73.316-1.043.207-.309.5-.543.871-.703a1.869 1.869 0 01-.75-.648 1.693 1.693 0 01-.273-.942c0-.598.195-1.074.578-1.426.383-.351.89-.527 1.52-.527.625 0 1.128.176 1.515.527.387.352.578.828.578 1.426zm-.738 3.316c0-.398-.125-.722-.379-.972-.25-.25-.582-.375-.988-.375s-.73.12-.977.37c-.246.247-.37.571-.37.978 0 .402.12.718.359.953.238.23.574.343 1 .343.421 0 .753-.117.996-.347.242-.235.36-.551.36-.95zM2.81-6.465c-.356 0-.645.11-.864.328-.218.223-.328.52-.328.899 0 .36.106.652.324.875.215.222.504.336.868.336.359 0 .648-.114.867-.336C3.89-4.586 4-4.88 4-5.238c0-.364-.113-.657-.336-.887a1.16 1.16 0 00-.855-.34zm0 0"/></symbol></defs><path d="M103.434 239.559V4m59.484 235.559V4m59.484 235.559V4m59.485 235.559V4m59.484 235.559V4m59.489 235.559V4M38 199.008h392.602M38 158.441h392.602M38 117.875h392.602M38 77.313h392.602M38 36.746h392.602" fill="none" stroke="#666" stroke-opacity=".5" stroke-dasharray="1,2" stroke-miterlimit="3.25"/><path d="M104.48 239.559l1.7-.079 7.449-.39 8.082-.473 7.543-.496 7.394-.543 8.02-.656 7.488-.688 8.114-.836 7.968-.921 7.43-.961 8.055-1.164 7.523-1.22 8.149-1.48 8-1.636 7.464-1.707 8.094-2.07 7.555-2.169 7.41-2.37 8.035-2.876 7.5-3.008 8.129-3.648 7.98-4.027 7.442-4.207 8.07-5.102 7.535-5.336 7.387-5.832 8.016-7.082 7.476-7.39 8.106-8.977 7.57-9.395 7.422-10.27 8.047-12.472 7.515-13.031 8.141-15.828 7.992-17.473 7.457-18.238 8.086-22.145 6.613-20.304" fill="none" stroke-width="1.6" stroke-linecap="square" stroke="#a60000" stroke-opacity=".3" stroke-miterlimit="3.25"/><path d="M94.14 239.559l4.051-.086.25-.008.25-.004.5-.012.996-.023 1.997-.051 3.996-.102.117-.003.113-.004.235-.008.464-.012.934-.027 1.863-.051 3.723-.117.129-.004.125-.004.254-.008.504-.02 1.007-.03 2.024-.07 4.039-.153.234-.008.235-.012.472-.02.942-.035 1.886-.078 3.774-.168 7.394-.375 8.02-.48 7.488-.535 8.114-.692 7.968-.804 7.43-.883 8.055-1.129 7.523-1.23 8.149-1.563 8-1.79 7.464-1.92 8.094-2.384 7.555-2.523 7.41-2.774 8.035-3.34 7.5-3.43 8.129-4.03 7.98-4.25 7.442-4.172 8.07-4.692 7.535-4.468 7.387-4.395 8.016-4.707 7.476-4.27 8.106-4.421 7.57-3.88 7.422-3.538 8.047-3.52 7.515-2.965 8.141-2.87 7.992-2.485 7.457-2.035 8.086-1.918 7.547-1.551 7.399-1.313 8.027-1.218 7.492-.97.129-.015.133-.015.262-.032.523-.058 1.043-.121 2.09-.235.133-.015.128-.012.262-.031 1.57-.164.13-.016.128-.012.785-.082.133-.011.13-.016.26-.027.13-.012.133-.012.129-.015.132-.012" fill="none" stroke-width="1.6" stroke-linecap="square" stroke="#0d86a0" stroke-opacity=".3" stroke-miterlimit="3.25"/><path d="M430.602 144.008h25.703" fill="none" stroke-width="4" stroke-linejoin="round" stroke="#fff" stroke-opacity=".667" stroke-miterlimit="3.25"/><path d="M430.602 144.008h25.703" fill="none" stroke-width="1.25" stroke-linecap="square" stroke="#aaa" stroke-miterlimit="3.25"/><path d="M497.305 136.508v15h-41v-15zm0 0" fill="#fff" fill-opacity=".667"/><use xlink:href="#a" x="459.304" y="146.508"/><use xlink:href="#b" x="464.685" y="146.508"/><use xlink:href="#c" x="470.388" y="146.508"/><use xlink:href="#d" x="475.998" y="146.508"/><use xlink:href="#e" x="478.425" y="146.508"/><use xlink:href="#f" x="483.581" y="146.508"/><use xlink:href="#d" x="486.848" y="146.508"/><use xlink:href="#g" x="489.275" y="146.508"/><path d="M400.29 23.059h56.015" fill="none" stroke-width="4" stroke-linejoin="round" stroke="#fff" stroke-opacity=".667" stroke-miterlimit="3.25"/><path d="M400.29 23.059h56.015" fill="none" stroke-width="1.25" stroke-linecap="square" stroke="#aaa" stroke-miterlimit="3.25"/><path d="M478.305 15.559v15h-22v-15zm0 0" fill="#fff" fill-opacity=".667"/><use xlink:href="#h" x="459.304" y="25.557"/><use xlink:href="#i" x="464.988" y="25.557"/><use xlink:href="#j" x="469.944" y="25.557"/><path d="M58.52 239a2.52 2.52 0 10-5.039.001A2.52 2.52 0 0058.52 239zm12 0a2.52 2.52 0 10-5.039.001A2.52 2.52 0 0070.52 239zm12 0a2.52 2.52 0 10-5.039.001A2.52 2.52 0 0082.52 239zm12 0a2.52 2.52 0 10-5.039.001A2.52 2.52 0 0094.52 239zm11 0a2.52 2.52 0 10-5.039.001 2.52 2.52 0 005.039-.001zm12 0a2.52 2.52 0 10-5.039.001 2.52 2.52 0 005.039-.001zm12 0a2.52 2.52 0 10-5.039.001 2.52 2.52 0 005.039-.001zm12-1a2.52 2.52 0 10-5.039.001 2.52 2.52 0 005.039-.001zm12 0a2.52 2.52 0 10-5.039.001 2.52 2.52 0 005.039-.001zm12-1a2.52 2.52 0 10-5.039.001 2.52 2.52 0 005.039-.001zm12-1a2.52 2.52 0 10-5.039.001 2.52 2.52 0 005.039-.001zm12-2a2.52 2.52 0 10-5.039.001 2.52 2.52 0 005.039-.001zm12-4a2.52 2.52 0 10-5.039.001 2.52 2.52 0 005.039-.001zm12-3a2.52 2.52 0 10-5.039.001 2.52 2.52 0 005.039-.001zm11-3a2.52 2.52 0 10-5.039.001 2.52 2.52 0 005.039-.001zm12-4a2.52 2.52 0 10-5.039.001 2.52 2.52 0 005.039-.001zm12-4a2.52 2.52 0 10-5.039.001 2.52 2.52 0 005.039-.001zm12-6a2.52 2.52 0 10-5.039.001 2.52 2.52 0 005.039-.001zm12-5a2.52 2.52 0 10-5.039.001 2.52 2.52 0 005.039-.001zm12-7a2.52 2.52 0 10-5.039.001 2.52 2.52 0 005.039-.001zm12-8a2.52 2.52 0 10-5.039.001 2.52 2.52 0 005.039-.001zm12-7a2.52 2.52 0 10-5.039.001 2.52 2.52 0 005.039-.001zm0 0" fill-rule="evenodd" fill="#c05c20"/><path d="M430.602 239.559H38m0 0V4m0 0h392.602m0 0v235.559" fill="none" stroke-width=".5" stroke-linecap="square" stroke="#666" stroke-miterlimit="3.25"/><path d="M43.95 239.559v-4" fill="none" stroke-width=".5" stroke="#666" stroke-miterlimit="3.25"/><use xlink:href="#k" x="40.948" y="251.56" fill="#666"/><path d="M55.844 239.559v-2.399m11.898 2.399v-2.399m11.898 2.399v-2.399m11.895 2.399v-2.399m11.899 2.399v-4" fill="none" stroke-width=".5" stroke="#666" stroke-miterlimit="3.25"/><use xlink:href="#l" x="100.433" y="251.56" fill="#666"/><path d="M115.332 239.559v-2.399m11.895 2.399v-2.399m11.898 2.399v-2.399m11.895 2.399v-2.399m11.898 2.399v-4" fill="none" stroke-width=".5" stroke="#666" stroke-miterlimit="3.25"/><g fill="#666"><use xlink:href="#m" x="157.418" y="251.56"/><use xlink:href="#k" x="163.033" y="251.56"/></g><path d="M174.816 239.559v-2.399m11.894 2.399v-2.399m11.9 2.399v-2.399m11.898 2.399v-2.399m11.894 2.399v-4" fill="none" stroke-width=".5" stroke="#666" stroke-miterlimit="3.25"/><g fill="#666"><use xlink:href="#m" x="216.903" y="251.56"/><use xlink:href="#l" x="222.518" y="251.56"/></g><path d="M234.3 239.559v-2.399m11.895 2.399v-2.399m11.899 2.399v-2.399m11.898 2.399v-2.399m11.895 2.399v-4" fill="none" stroke-width=".5" stroke="#666" stroke-miterlimit="3.25"/><g fill="#666"><use xlink:href="#n" x="276.388" y="251.56"/><use xlink:href="#k" x="282.003" y="251.56"/></g><path d="M293.785 239.559v-2.399m11.899 2.399v-2.399m11.894 2.399v-2.399m11.899 2.399v-2.399m11.894 2.399v-4" fill="none" stroke-width=".5" stroke="#666" stroke-miterlimit="3.25"/><g fill="#666"><use xlink:href="#n" x="335.873" y="251.56"/><use xlink:href="#l" x="341.488" y="251.56"/></g><path d="M353.27 239.559v-2.399m11.898 2.399v-2.399m11.895 2.399v-2.399m11.897 2.399v-2.399m11.9 2.399v-4" fill="none" stroke-width=".5" stroke="#666" stroke-miterlimit="3.25"/><g fill="#666"><use xlink:href="#o" x="395.358" y="251.56"/><use xlink:href="#k" x="400.973" y="251.56"/></g><path d="M412.754 239.559v-2.399m11.898 2.399v-2.399M38 239.57h4" fill="none" stroke-width=".5" stroke="#666" stroke-miterlimit="3.25"/><use xlink:href="#k" x="29" y="242.072" fill="#666"/><path d="M38 229.43h2.398M38 219.29h2.398M38 209.148h2.398M38 199.008h4" fill="none" stroke-width=".5" stroke="#666" stroke-miterlimit="3.25"/><g fill="#666"><use xlink:href="#n" x="5" y="201.507"/><use xlink:href="#k" x="10.615" y="201.507"/></g><g fill="#666"><use xlink:href="#k" x="17.686" y="201.507"/><use xlink:href="#k" x="23.301" y="201.507"/><use xlink:href="#k" x="28.916" y="201.507"/></g><path d="M38 188.867h2.398M38 178.723h2.398M38 168.582h2.398M38 158.441h4" fill="none" stroke-width=".5" stroke="#666" stroke-miterlimit="3.25"/><g fill="#666"><use xlink:href="#p" x="5" y="160.942"/><use xlink:href="#k" x="10.615" y="160.942"/></g><g fill="#666"><use xlink:href="#k" x="17.686" y="160.942"/><use xlink:href="#k" x="23.301" y="160.942"/><use xlink:href="#k" x="28.916" y="160.942"/></g><path d="M38 148.3h2.398M38 138.16h2.398M38 128.02h2.398M38 117.875h4" fill="none" stroke-width=".5" stroke="#666" stroke-miterlimit="3.25"/><g fill="#666"><use xlink:href="#q" x="5" y="120.377"/><use xlink:href="#k" x="10.615" y="120.377"/></g><g fill="#666"><use xlink:href="#k" x="17.686" y="120.377"/><use xlink:href="#k" x="23.301" y="120.377"/><use xlink:href="#k" x="28.916" y="120.377"/></g><path d="M38 107.734h2.398M38 97.594h2.398M38 87.453h2.398M38 77.313h4" fill="none" stroke-width=".5" stroke="#666" stroke-miterlimit="3.25"/><g fill="#666"><use xlink:href="#r" x="5" y="79.811"/><use xlink:href="#k" x="10.615" y="79.811"/></g><g fill="#666"><use xlink:href="#k" x="17.686" y="79.811"/><use xlink:href="#k" x="23.301" y="79.811"/><use xlink:href="#k" x="28.916" y="79.811"/></g><path d="M38 67.172h2.398M38 57.027h2.398M38 46.887h2.398M38 36.746h4" fill="none" stroke-width=".5" stroke="#666" stroke-miterlimit="3.25"/><g fill="#666"><use xlink:href="#m" y="39.246"/><use xlink:href="#k" x="5.615" y="39.246"/><use xlink:href="#k" x="11.23" y="39.246"/></g><g fill="#666"><use xlink:href="#k" x="18.301" y="39.246"/><use xlink:href="#k" x="23.916" y="39.246"/><use xlink:href="#k" x="29.531" y="39.246"/></g><path d="M38 26.605h2.398M38 16.465h2.398M38 6.324h2.398" fill="none" stroke-width=".5" stroke="#666" stroke-miterlimit="3.25"/><path d="M43.95 4v3.926M162.918 4v3.926M281.887 4v3.926M400.86 4v3.926M67.742 4v2.398M91.535 4v2.398M115.332 4v2.398M139.125 4v2.398M186.71 4v2.398M210.508 4v2.398M234.3 4v2.398M258.094 4v2.398M305.684 4v2.398M329.477 4v2.398M353.27 4v2.398M377.063 4v2.398M424.652 4v2.398m5.95 192.61h-3.926m3.926-40.567h-3.926m3.926-40.566h-3.926m3.926-40.562h-3.926m3.926-40.567h-3.926m3.926 192.684h-2.403m2.403-10.14h-2.403m2.403-10.142h-2.403m2.403-20.281h-2.403m2.403-10.144h-2.403m2.403-10.141h-2.403m2.403-20.282h-2.403m2.403-10.14h-2.403m2.403-10.14h-2.403m2.403-20.286h-2.403m2.403-10.14h-2.403m2.403-10.141h-2.403m2.403-20.281h-2.403m2.403-10.145h-2.403m2.403-10.14h-2.403m2.403-20.282h-2.403m2.403-10.14h-2.403m2.403-10.141h-2.403" fill="none" stroke-width=".1" stroke="#666" stroke-miterlimit="3.25"/></svg>