<svg xmlns="http://www.w3.org/2000/svg" xmlns:xlink="http://www.w3.org/1999/xlink" width="500pt" height="344" viewBox="0 0 500 258"><defs><symbol overflow="visible" id="a"><path d="M4.738-8.14C3.578-6.88 2.121-5.82.36-4.97l.352.63C2.48-5.23 3.91-6.282 5-7.49c1.18 1.272 2.59 2.3 4.25 3.1l.36-.64a14.128 14.128 0 01-4.348-3.11zM2.211-4.98v.69h2.418v1.74H1.73v.69h2.9v1.848H.839V.7h8.333v-.71h-3.8v-1.85h2.89v-.692h-2.89V-4.29h2.417v-.691zm0 0"/></symbol><symbol overflow="visible" id="b"><path d="M2.52-6.121v.652h2.109v1.438h-1.79v.64h1.79v1.59H2.25v.66h5.512v-.66h-2.39v-1.59H7.16v-.64H5.371V-5.47H7.47v-.652zm6.59-1.59H.89V.98h.731V.55H8.38v.43h.73zM1.62-.129V-7.03h6.76v6.9zm4.93-3.05l-.57.19c.238.329.46.72.66 1.169l.558-.258A6.323 6.323 0 006.55-3.18zm0 0"/></symbol><symbol overflow="visible" id="f"><path d="M7.04-4.73h1.51v1.808H7.04zm1.51-.63H7.04v-1.78h1.51zM7.02-2.28h1.53v2.22c0 .278-.12.43-.35.43-.24 0-.49-.02-.759-.043l.168.64h.79C8.94.969 9.21.7 9.21.173V-7.8H6.379v5.082C6.359-1.422 6.07-.339 5.5.5l.52.46c.59-.839.921-1.92 1-3.241zm-5.9-5.67l-.492.46c.68.5 1.21.977 1.59 1.419l.5-.489A11.92 11.92 0 001.12-7.95zm-.2 2.34l-.491.46c.691.53 1.231 1.03 1.621 1.49l.5-.488c-.44-.48-.991-.973-1.628-1.461zm1.03 2.649A33.47 33.47 0 01.56.58l.652.28c.5-1.12.95-2.308 1.36-3.57zm3.762-.64H4.69V-5.5h1.297v-.648H4.691v-1.73H4v1.73H2.7v.648H4v1.898H2.95V.41h.66v-.59h2.1zM3.61-.801v-2.18h1.46V-.8zm0 0"/></symbol><symbol overflow="visible" id="g"><path d="M3.32-8.14v2.769H.672v.691H3.32v3.211c-.89.418-1.82.739-2.8.957L.69.2c.93-.258 1.809-.57 2.63-.949V.93h.738v-9.07zM8.22.84c.43 0 .73-.121.89-.36.16-.25.262-.96.32-2.128l-.679-.223c-.031 1.02-.09 1.61-.172 1.793C8.48.078 8.32.16 8.102.16h-1.25c-.25 0-.372-.148-.372-.43v-3.84c.93-.32 1.91-.788 2.95-1.421l-.418-.59c-.82.57-1.66 1.012-2.532 1.332v-3.352h-.73v7.98c0 .661.309 1 .941 1zm0 0"/></symbol><symbol overflow="visible" id="h"><path d="M3.77-7.078l-.598.367C4.05-5.68 4.738-4.75 5.25-3.91l.61-.417c-.481-.781-1.18-1.703-2.09-2.75zM7.21-2.18C7.97-1.129 8.579-.14 9.05.8l.552-.55a22.006 22.006 0 00-2.07-3.121c.058-.149.109-.3.16-.45.417-1.32.628-2.917.628-4.82h-.75c-.011 1.93-.218 3.52-.64 4.77-.551 1.48-1.68 2.7-3.38 3.68l.481.59C5.488.058 6.551-.97 7.211-2.18zM1.29-.14c1.17-.43 2.269-.938 3.288-1.532l-.2-.7c-.769.462-1.538.852-2.32 1.173v-6.68H1.32v6.508c0 .23-.09.41-.27.55zm0 0"/></symbol><symbol overflow="visible" id="i"><path d="M6.36-8.148V.988h.742v-5.316c.578.457 1.27 1.11 2.09 1.93l.437-.66c-.86-.77-1.7-1.462-2.527-2.07v-3.02zM2.32-4.18l-.379.559A7.882 7.882 0 013.52-2.56C2.82-1.48 1.84-.579.59.141l.488.609C3.68-.8 5.141-3.09 5.48-6.121v-.629H3.05c.141-.41.259-.84.36-1.29l-.719-.12c-.402 1.8-1.18 3.238-2.32 4.3l.488.61c.801-.738 1.45-1.672 1.93-2.809h1.98a9.025 9.025 0 01-.917 2.93 8.296 8.296 0 00-1.532-1.05zm0 0"/></symbol><symbol overflow="visible" id="c"><path d="M3.492 1.82l-.148.22C2.289 1.37 1.554.593 1.133-.29.777-1.04.598-2.007.598-3.194c0-.993.199-1.868.597-2.633a5.022 5.022 0 011.203-1.516c.313-.234.625-.465.938-.695l.133.203c-1.274.965-1.91 2.516-1.91 4.656 0 1.387.175 2.489.527 3.309.3.707.77 1.27 1.406 1.691zm0 0"/></symbol><symbol overflow="visible" id="e"><path d="M3.25-3.195c0 1.187-.176 2.156-.531 2.906C2.3.594 1.563 1.37.504 2.039L.359 1.82A3.776 3.776 0 001.77.13c.348-.82.52-1.926.52-3.309 0-2.136-.633-3.687-1.902-4.656l.129-.203c.312.23.625.46.937.695.512.438.914.946 1.207 1.516.395.766.59 1.64.59 2.633zm0 0"/></symbol><symbol overflow="visible" id="d"><path d="M1.832 0H.895v-7.11h.937zm0 0"/></symbol><symbol overflow="visible" id="j"><path d="M3.805-7.11h.941v5.036c0 .68-.203 1.21-.613 1.597-.406.383-.953.575-1.633.575-.707 0-1.258-.18-1.648-.543-.395-.36-.594-.867-.594-1.516h.937c0 .406.114.723.336.95.223.23.547.343.969.343.387 0 .7-.121.941-.367.239-.246.36-.586.364-1.028zm0 0"/></symbol><symbol overflow="visible" id="k"><path d="M3.945 0c-.05-.105-.093-.29-.125-.555-.422.434-.922.653-1.507.653-.52 0-.946-.149-1.282-.442a1.438 1.438 0 01-.5-1.12c0-.552.211-.977.63-1.282.417-.305 1.007-.457 1.765-.457h.879v-.414c0-.317-.094-.567-.285-.754-.188-.188-.465-.281-.833-.281-.324 0-.593.082-.812.242-.219.164-.328.36-.328.59H.64c0-.262.093-.516.28-.762.188-.246.442-.441.763-.582.32-.145.671-.219 1.054-.219.61 0 1.086.153 1.434.457.344.305.523.727.535 1.258v2.434c0 .484.063.87.184 1.156V0zm-1.5-.688c.285 0 .555-.074.805-.218a1.35 1.35 0 00.555-.574v-1.083h-.711c-1.106 0-1.656.325-1.656.97 0 .284.093.507.28.663.188.16.43.243.727.243zm0 0"/></symbol><symbol overflow="visible" id="l"><path d="M1.54-5.281l.026.664a1.93 1.93 0 011.582-.766c1.118 0 1.68.633 1.692 1.89V0h-.902v-3.496c-.004-.379-.094-.664-.262-.844-.172-.183-.438-.273-.801-.273-.293 0-.55.078-.77.234a1.59 1.59 0 00-.52.613V0h-.9v-5.281zm0 0"/></symbol><symbol overflow="visible" id="m"><path d="M3.559 0h-.907v-6.02l-1.824.668v-.82l2.59-.973h.14zm0 0"/></symbol><symbol overflow="visible" id="n"><path d="M4.137-7.113v.765h-.168c-.703.012-1.262.223-1.68.625-.414.403-.656.973-.723 1.703.375-.43.887-.644 1.536-.644.617 0 1.113.219 1.48.656.371.438.555 1 .555 1.688 0 .734-.2 1.32-.598 1.757-.398.442-.934.66-1.605.66-.68 0-1.23-.261-1.653-.784C.855-1.212.645-1.883.645-2.704v-.348c0-1.308.277-2.308.835-3 .56-.691 1.391-1.047 2.497-1.062zM2.949-3.91c-.308 0-.594.09-.855.277a1.446 1.446 0 00-.54.7v.331c0 .586.13 1.059.395 1.414.262.36.59.54.985.54.406 0 .726-.153.96-.45.231-.3.348-.691.348-1.175 0-.489-.117-.887-.351-1.188a1.14 1.14 0 00-.942-.45zm0 0"/></symbol><symbol overflow="visible" id="o"><path d="M5.25 0H.59v-.648l2.46-2.735c.364-.414.618-.75.755-1.008.14-.257.21-.527.21-.804 0-.371-.113-.676-.34-.914-.222-.239-.523-.356-.898-.356-.449 0-.797.13-1.047.383-.25.254-.37.613-.37 1.066H.452c0-.652.211-1.183.633-1.586.422-.402.984-.605 1.691-.605.66 0 1.184.172 1.567.52.386.347.578.808.578 1.382 0 .703-.445 1.535-1.336 2.5L1.68-.738h3.57zm0 0"/></symbol><symbol overflow="visible" id="p"><path d="M1.906-3.992h.676c.426-.008.762-.121 1.008-.34.242-.219.363-.512.363-.883 0-.832-.414-1.25-1.242-1.25-.39 0-.703.113-.938.336-.23.223-.347.516-.347.887H.523c0-.563.204-1.031.618-1.406.41-.372.933-.559 1.57-.559.672 0 1.195.176 1.578.531.379.356.57.848.57 1.48 0 .31-.101.61-.3.9a1.81 1.81 0 01-.817.648c.39.125.692.328.903.617.214.285.32.636.32 1.047 0 .64-.207 1.144-.625 1.52-.418.374-.957.562-1.625.562s-1.211-.18-1.63-.543c-.417-.36-.624-.836-.624-1.43h.906c0 .375.121.672.367.898.243.227.57.336.98.336.438 0 .77-.113 1-.34.231-.23.349-.554.349-.98 0-.414-.125-.734-.383-.953-.254-.223-.618-.336-1.098-.344h-.676zm0 0"/></symbol><symbol overflow="visible" id="q"><path d="M5.047-3.031c0 1.058-.18 1.844-.54 2.36-.362.51-.925.769-1.694.769-.758 0-1.32-.25-1.684-.754C.766-1.16.574-1.91.562-2.91v-1.207c0-1.043.18-1.82.54-2.328.363-.508.93-.762 1.703-.762.765 0 1.328.246 1.687.734.36.489.547 1.246.555 2.27zm-.902-1.235c0-.765-.106-1.324-.32-1.675-.216-.348-.555-.524-1.02-.524-.465 0-.801.176-1.012.524-.211.347-.32.882-.328 1.605v1.445c0 .77.113 1.336.336 1.704.222.367.558.546 1.012.546.445 0 .777-.171.992-.515.218-.344.332-.89.34-1.633zm0 0"/></symbol><symbol overflow="visible" id="r"><path d="M4.746-3.14H1.762V0H.824v-7.11H5.23v.774H1.762v2.43h2.984zm0 0"/></symbol><symbol overflow="visible" id="s"><path d="M2.875.098c-.715 0-1.297-.235-1.746-.707-.45-.47-.676-1.098-.676-1.887v-.164c0-.524.102-.992.3-1.406.2-.41.481-.735.84-.965.36-.235.75-.352 1.173-.352.687 0 1.218.227 1.601.68.38.453.57 1.101.57 1.945v.375H1.36c.012.52.164.942.454 1.262.292.32.664.48 1.113.48.316 0 .59-.062.808-.195.223-.129.414-.3.582-.516l.551.43c-.441.68-1.105 1.02-1.992 1.02zm-.11-4.739a1.21 1.21 0 00-.921.399c-.246.265-.399.64-.457 1.117H4.03v-.07c-.023-.457-.148-.813-.367-1.067-.223-.25-.523-.379-.898-.379zm0 0"/></symbol><symbol overflow="visible" id="t"><path d="M5.156-2.582c0 .809-.187 1.453-.554 1.945-.372.489-.872.735-1.497.735-.667 0-1.183-.235-1.546-.707L1.516 0H.684v-7.5h.902v2.797c.367-.453.867-.68 1.508-.68.64 0 1.148.246 1.511.73.368.485.551 1.15.551 1.993zm-.902-.106c0-.613-.121-1.09-.356-1.421-.238-.336-.582-.504-1.027-.504-.598 0-1.023.277-1.285.828V-1.5c.277.555.71.832 1.297.832.43 0 .77-.168 1.008-.504.242-.336.363-.84.363-1.516zm0 0"/></symbol><symbol overflow="visible" id="u"><path d="M5.18-6.602L2.234 0H1.29l2.934-6.367H.375v-.742H5.18zm0 0"/></symbol><symbol overflow="visible" id="v"><path d="M2.035-7.11L4.36-1.308l2.325-5.8h1.214V0h-.937v-2.77l.09-2.988L4.719 0H4L1.672-5.742l.09 2.972V0H.824v-7.11zm0 0"/></symbol><symbol overflow="visible" id="w"><path d="M3.238-4.473a2.64 2.64 0 00-.445-.035c-.594 0-.996.254-1.207.758V0H.684v-5.281h.878l.016.61c.297-.474.715-.712 1.258-.712.176 0 .309.024.402.07zm0 0"/></symbol><symbol overflow="visible" id="x"><path d="M1.008-3.563l.36-3.546h3.64v.836H2.133l-.215 1.937a2.32 2.32 0 011.187-.309c.649 0 1.16.215 1.543.645.383.426.57 1.004.57 1.734 0 .735-.195 1.309-.593 1.73-.395.423-.945.634-1.656.634-.63 0-1.14-.176-1.54-.524C1.032-.773.81-1.254.75-1.87h.855c.055.406.2.715.434.922.234.207.547.308.93.308.422 0 .75-.14.988-.43.238-.284.36-.679.36-1.187 0-.472-.13-.855-.387-1.144-.258-.285-.606-.43-1.035-.43-.395 0-.704.086-.926.258l-.242.195zm0 0"/></symbol><symbol overflow="visible" id="y"><path d="M3.965-2.148h.887v.664h-.887V0h-.817v-1.484H.234v-.48l2.864-4.434h.867zm-2.809 0h1.992v-3.137l-.097.176zm0 0"/></symbol><symbol overflow="visible" id="z"><path d="M.906-3.207l.324-3.191h3.278v.75H1.922l-.195 1.746a2.081 2.081 0 011.07-.278c.582 0 1.043.192 1.387.578.343.387.515.907.515 1.563 0 .66-.18 1.18-.535 1.559-.355.378-.851.566-1.492.566-.567 0-1.027-.156-1.383-.469-.36-.312-.562-.746-.613-1.3h.77c.05.367.179.644.39.828.21.187.492.28.836.28.379 0 .676-.128.89-.386.215-.258.32-.617.32-1.07 0-.426-.112-.77-.347-1.031-.234-.258-.543-.387-.93-.387-.355 0-.632.078-.835.23l-.215.18zm0 0"/></symbol></defs><path d="M32.723 241.46V.5m54.062 240.96V.5m54.063 240.96V.5m54.058 240.96V.5m54.063 240.96V.5m54.062 240.96V.5m54.063 240.96V.5m54.058 240.96V.5" fill="none" stroke="#666" stroke-opacity=".5" stroke-dasharray="1,2" stroke-miterlimit="3.25"/><path d="M25 220.918h401.602M25 179.918h401.602M25 138.922h401.602M25 97.922h401.602M25 56.922h401.602M25 15.926h401.602" fill="none" stroke-width=".1" stroke="#666" stroke-opacity=".5" stroke-dasharray="1,2" stroke-miterlimit="3.25"/><path d="M35.207 155c0-.586-.23-1.148-.645-1.563a2.208 2.208 0 00-1.562-.644 2.21 2.21 0 00-1.563.644 2.208 2.208 0 00-.644 1.563c0 .586.23 1.148.645 1.563.414.414.976.644 1.562.644a2.21 2.21 0 001.563-.644 2.21 2.21 0 00.644-1.563zm7-2c0-.586-.23-1.148-.645-1.563a2.208 2.208 0 00-1.562-.644 2.21 2.21 0 00-1.563.644 2.208 2.208 0 00-.644 1.563c0 .586.23 1.148.645 1.563.414.414.976.644 1.562.644a2.21 2.21 0 001.563-.644 2.21 2.21 0 00.644-1.563zm8-6c0-.586-.23-1.148-.645-1.563a2.208 2.208 0 00-1.562-.644 2.21 2.21 0 00-1.563.644 2.208 2.208 0 00-.644 1.563c0 .586.23 1.148.645 1.563.414.414.976.644 1.562.644a2.21 2.21 0 001.563-.644 2.21 2.21 0 00.644-1.563zm8-11c0-.586-.23-1.148-.645-1.563a2.208 2.208 0 00-1.562-.644 2.21 2.21 0 00-1.563.644 2.208 2.208 0 00-.644 1.563c0 .586.23 1.148.645 1.563.414.414.976.644 1.562.644a2.21 2.21 0 001.563-.644 2.21 2.21 0 00.644-1.563zm8-9a2.21 2.21 0 00-.644-1.563 2.208 2.208 0 00-1.563-.644 2.21 2.21 0 00-1.563.644 2.208 2.208 0 00-.644 1.563c0 .586.23 1.148.645 1.563.414.414.976.644 1.562.644a2.21 2.21 0 001.563-.644 2.21 2.21 0 00.644-1.563zm7-7a2.21 2.21 0 00-.644-1.563 2.208 2.208 0 00-1.563-.644 2.21 2.21 0 00-1.563.644 2.208 2.208 0 00-.644 1.563c0 .586.23 1.148.644 1.563.415.414.977.644 1.563.644s1.148-.23 1.563-.644a2.21 2.21 0 00.644-1.563zm8-7a2.21 2.21 0 00-.644-1.563 2.208 2.208 0 00-1.563-.644 2.21 2.21 0 00-1.563.644 2.208 2.208 0 00-.644 1.563c0 .586.23 1.148.644 1.563.415.414.977.644 1.563.644s1.148-.23 1.563-.644a2.21 2.21 0 00.644-1.563zm8-5a2.21 2.21 0 00-.644-1.563 2.208 2.208 0 00-1.563-.644 2.21 2.21 0 00-1.563.644 2.208 2.208 0 00-.644 1.563c0 .586.23 1.148.644 1.563.415.414.977.644 1.563.644s1.148-.23 1.563-.644a2.21 2.21 0 00.644-1.563zm8-7a2.21 2.21 0 00-.644-1.563A2.208 2.208 0 0095 98.793a2.21 2.21 0 00-1.563.644 2.208 2.208 0 00-.644 1.563c0 .586.23 1.148.644 1.563.415.414.977.644 1.563.644s1.148-.23 1.563-.644a2.21 2.21 0 00.644-1.563zm7-7a2.21 2.21 0 00-.644-1.563 2.208 2.208 0 00-1.563-.644 2.21 2.21 0 00-1.563.644A2.208 2.208 0 0099.793 94c0 .586.23 1.148.644 1.563.415.414.977.644 1.563.644s1.148-.23 1.563-.644a2.21 2.21 0 00.644-1.563zm8-8a2.21 2.21 0 00-.644-1.563 2.208 2.208 0 00-1.563-.644 2.21 2.21 0 00-1.563.644 2.208 2.208 0 00-.644 1.563c0 .586.23 1.148.644 1.563.415.414.977.644 1.563.644s1.148-.23 1.563-.644a2.21 2.21 0 00.644-1.563zm8-6a2.21 2.21 0 00-.644-1.563 2.208 2.208 0 00-1.563-.644 2.21 2.21 0 00-1.563.644 2.208 2.208 0 00-.644 1.563c0 .586.23 1.148.644 1.563.415.414.977.644 1.563.644s1.148-.23 1.563-.644a2.21 2.21 0 00.644-1.563zm7-9a2.21 2.21 0 00-.644-1.563 2.208 2.208 0 00-1.563-.644 2.21 2.21 0 00-1.563.644 2.208 2.208 0 00-.644 1.563c0 .586.23 1.148.644 1.563.415.414.977.644 1.563.644s1.148-.23 1.563-.644a2.21 2.21 0 00.644-1.563zm8-5a2.21 2.21 0 00-.644-1.563 2.208 2.208 0 00-1.563-.644c-.586 0-1.148.23-1.563.645a2.208 2.208 0 00-.644 1.562c0 .586.23 1.148.644 1.563.415.414.977.644 1.563.644s1.148-.23 1.563-.644a2.21 2.21 0 00.644-1.563zm8-4a2.21 2.21 0 00-.644-1.563 2.208 2.208 0 00-1.563-.644c-.586 0-1.148.23-1.563.645a2.208 2.208 0 00-.644 1.562c0 .586.23 1.148.644 1.563.415.414.977.644 1.563.644s1.148-.23 1.563-.644a2.21 2.21 0 00.644-1.563zm8-4a2.21 2.21 0 00-.644-1.563 2.208 2.208 0 00-1.563-.644c-.586 0-1.148.23-1.563.645a2.208 2.208 0 00-.644 1.562c0 .586.23 1.148.644 1.563.415.414.977.644 1.563.644s1.148-.23 1.563-.645c.414-.414.644-.976.644-1.562zm7-4a2.21 2.21 0 00-.644-1.563 2.208 2.208 0 00-1.563-.644c-.586 0-1.148.23-1.563.645a2.208 2.208 0 00-.644 1.562c0 .586.23 1.148.644 1.563.415.414.977.644 1.563.644s1.148-.23 1.563-.645c.414-.414.644-.976.644-1.562zm8-4a2.21 2.21 0 00-.644-1.563 2.208 2.208 0 00-1.563-.644c-.586 0-1.148.23-1.563.645a2.208 2.208 0 00-.644 1.562c0 .586.23 1.148.644 1.563.415.414.977.644 1.563.644s1.148-.23 1.563-.645c.414-.414.644-.976.644-1.562zm8-3a2.21 2.21 0 00-.644-1.563 2.208 2.208 0 00-1.563-.644c-.586 0-1.148.23-1.563.645a2.208 2.208 0 00-.644 1.562c0 .586.23 1.148.644 1.563.415.414.977.644 1.563.644s1.148-.23 1.563-.645c.414-.414.644-.976.644-1.562zm7-3a2.21 2.21 0 00-.644-1.563 2.208 2.208 0 00-1.563-.644c-.586 0-1.148.23-1.563.645a2.208 2.208 0 00-.644 1.562c0 .586.23 1.148.644 1.563.415.414.977.644 1.563.644s1.148-.23 1.563-.645c.414-.414.644-.976.644-1.562zm8-3a2.21 2.21 0 00-.644-1.563 2.208 2.208 0 00-1.563-.644c-.586 0-1.148.23-1.563.645a2.208 2.208 0 00-.644 1.562c0 .586.23 1.148.644 1.563.415.414.977.644 1.563.644s1.148-.23 1.563-.645c.414-.414.644-.976.644-1.562zm8-2a2.21 2.21 0 00-.644-1.563 2.208 2.208 0 00-1.563-.644c-.586 0-1.148.23-1.563.645a2.208 2.208 0 00-.644 1.562c0 .586.23 1.148.644 1.563.415.414.977.644 1.563.644s1.148-.23 1.563-.645c.414-.414.644-.976.644-1.562zm8-2a2.21 2.21 0 00-.644-1.563 2.208 2.208 0 00-1.563-.644c-.586 0-1.148.23-1.563.645a2.208 2.208 0 00-.644 1.562c0 .586.23 1.148.644 1.563.415.414.977.644 1.563.644s1.148-.23 1.563-.645c.414-.414.644-.976.644-1.562zm7-2a2.21 2.21 0 00-.644-1.563 2.208 2.208 0 00-1.563-.644c-.586 0-1.148.23-1.563.645a2.208 2.208 0 00-.644 1.562c0 .586.23 1.148.644 1.563.415.414.977.644 1.563.644s1.148-.23 1.563-.645c.414-.414.644-.976.644-1.562zm8-1a2.21 2.21 0 00-.644-1.563 2.208 2.208 0 00-1.563-.644c-.586 0-1.148.23-1.563.645a2.208 2.208 0 00-.644 1.562c0 .586.23 1.148.644 1.563.415.414.977.644 1.563.644s1.148-.23 1.563-.645c.414-.414.644-.976.644-1.562zm8-2a2.21 2.21 0 00-.644-1.563 2.208 2.208 0 00-1.563-.644c-.586 0-1.148.23-1.563.645a2.208 2.208 0 00-.644 1.562c0 .586.23 1.148.644 1.563.415.414.977.644 1.563.644s1.148-.23 1.563-.645c.414-.414.644-.976.644-1.562zm8-1a2.21 2.21 0 00-.644-1.563 2.208 2.208 0 00-1.563-.644c-.586 0-1.148.23-1.563.645a2.208 2.208 0 00-.644 1.562c0 .586.23 1.148.644 1.563.415.414.977.644 1.563.644s1.148-.23 1.563-.645c.414-.414.644-.976.644-1.562zm7-1a2.21 2.21 0 00-.644-1.563 2.208 2.208 0 00-1.563-.644c-.586 0-1.148.23-1.563.645a2.208 2.208 0 00-.644 1.562c0 .586.23 1.148.644 1.563.415.414.977.644 1.563.644s1.148-.23 1.563-.645c.414-.414.644-.976.644-1.562zm8-5a2.21 2.21 0 00-.644-1.563 2.208 2.208 0 00-1.563-.644c-.586 0-1.148.23-1.563.645a2.208 2.208 0 00-.644 1.562c0 .586.23 1.148.644 1.563.415.414.977.644 1.563.644s1.148-.23 1.563-.645c.414-.414.644-.976.644-1.562zm8-1a2.21 2.21 0 00-.644-1.563 2.208 2.208 0 00-1.563-.644c-.586 0-1.148.23-1.563.645a2.208 2.208 0 00-.644 1.562c0 .586.23 1.148.644 1.563.415.414.977.644 1.563.644s1.148-.23 1.563-.645c.414-.414.644-.976.644-1.562zm7-1a2.21 2.21 0 00-.644-1.563 2.208 2.208 0 00-1.563-.644c-.586 0-1.148.23-1.563.645a2.208 2.208 0 00-.644 1.562c0 .586.23 1.148.644 1.563.415.414.977.644 1.563.644s1.148-.23 1.563-.645c.414-.414.644-.976.644-1.562zm8 0a2.21 2.21 0 00-.644-1.563 2.208 2.208 0 00-1.563-.644c-.586 0-1.148.23-1.563.645a2.208 2.208 0 00-.644 1.562c0 .586.23 1.148.644 1.563.415.414.977.644 1.563.644s1.148-.23 1.563-.645c.414-.414.644-.976.644-1.562zm8-1a2.21 2.21 0 00-.644-1.563 2.208 2.208 0 00-1.563-.644c-.586 0-1.148.23-1.563.645a2.208 2.208 0 00-.644 1.562c0 .586.23 1.148.644 1.563.415.414.977.644 1.563.644s1.148-.23 1.563-.645c.414-.414.644-.976.644-1.562zm8 0a2.21 2.21 0 00-.644-1.563 2.208 2.208 0 00-1.563-.644c-.586 0-1.148.23-1.563.645a2.208 2.208 0 00-.644 1.562c0 .586.23 1.148.644 1.563.415.414.977.644 1.563.644s1.148-.23 1.563-.645c.414-.414.644-.976.644-1.562zm7-1a2.21 2.21 0 00-.644-1.563 2.208 2.208 0 00-1.563-.644c-.586 0-1.148.23-1.563.645a2.208 2.208 0 00-.644 1.562c0 .586.23 1.148.644 1.563.415.414.977.644 1.563.644s1.148-.23 1.563-.645c.414-.414.644-.976.644-1.562zm8 0a2.21 2.21 0 00-.644-1.563 2.208 2.208 0 00-1.563-.644c-.586 0-1.148.23-1.563.645a2.208 2.208 0 00-.644 1.562c0 .586.23 1.148.644 1.563.415.414.977.644 1.563.644s1.148-.23 1.563-.645c.414-.414.644-.976.644-1.562zm8 0a2.21 2.21 0 00-.644-1.563 2.208 2.208 0 00-1.563-.644c-.586 0-1.148.23-1.563.645a2.208 2.208 0 00-.644 1.562c0 .586.23 1.148.644 1.563.415.414.977.644 1.563.644s1.148-.23 1.563-.645c.414-.414.644-.976.644-1.562zm7 0a2.21 2.21 0 00-.644-1.563 2.208 2.208 0 00-1.563-.644c-.586 0-1.148.23-1.563.645a2.208 2.208 0 00-.644 1.562c0 .586.23 1.148.644 1.563.415.414.977.644 1.563.644s1.148-.23 1.563-.645c.414-.414.644-.976.644-1.562zm8 0a2.21 2.21 0 00-.644-1.563 2.208 2.208 0 00-1.563-.644c-.586 0-1.148.23-1.563.645a2.208 2.208 0 00-.644 1.562c0 .586.23 1.148.644 1.563.415.414.977.644 1.563.644s1.148-.23 1.563-.645c.414-.414.644-.976.644-1.562zm8-1a2.21 2.21 0 00-.644-1.563 2.208 2.208 0 00-1.563-.644c-.586 0-1.148.23-1.563.645a2.208 2.208 0 00-.644 1.562c0 .586.23 1.148.644 1.563.415.414.977.644 1.563.644s1.148-.23 1.563-.645c.414-.414.644-.976.644-1.562zm8 0a2.21 2.21 0 00-.644-1.563 2.208 2.208 0 00-1.563-.644c-.586 0-1.148.23-1.563.645a2.208 2.208 0 00-.644 1.562c0 .586.23 1.148.644 1.563.415.414.977.644 1.563.644s1.148-.23 1.563-.645c.414-.414.644-.976.644-1.562zm7 0a2.21 2.21 0 00-.644-1.563 2.208 2.208 0 00-1.563-.644c-.586 0-1.148.23-1.563.645a2.208 2.208 0 00-.644 1.562c0 .586.23 1.148.644 1.563.415.414.977.644 1.563.644s1.148-.23 1.563-.645c.414-.414.644-.976.644-1.562zm8 0a2.21 2.21 0 00-.644-1.563 2.208 2.208 0 00-1.563-.644c-.586 0-1.148.23-1.563.645a2.208 2.208 0 00-.644 1.562c0 .586.23 1.148.644 1.563.415.414.977.644 1.563.644s1.148-.23 1.563-.645c.414-.414.644-.976.644-1.562zm8 0a2.21 2.21 0 00-.644-1.563 2.208 2.208 0 00-1.563-.644c-.586 0-1.148.23-1.563.645a2.208 2.208 0 00-.644 1.562c0 .586.23 1.148.644 1.563.415.414.977.644 1.563.644s1.148-.23 1.563-.645c.414-.414.644-.976.644-1.562zm8 0a2.21 2.21 0 00-.644-1.563 2.208 2.208 0 00-1.563-.644c-.586 0-1.148.23-1.563.645a2.208 2.208 0 00-.644 1.562c0 .586.23 1.148.644 1.563.415.414.977.644 1.563.644s1.148-.23 1.563-.645c.414-.414.644-.976.644-1.562zm0 0" fill-rule="evenodd" fill="#a60000"/><path d="M66.207 221a2.21 2.21 0 00-.644-1.563 2.208 2.208 0 00-1.563-.644 2.21 2.21 0 00-1.563.644 2.208 2.208 0 00-.644 1.563c0 .586.23 1.148.645 1.563.414.414.976.644 1.562.644a2.21 2.21 0 001.563-.644 2.21 2.21 0 00.644-1.563zm7-54a2.21 2.21 0 00-.644-1.563 2.208 2.208 0 00-1.563-.644 2.21 2.21 0 00-1.563.644 2.208 2.208 0 00-.644 1.563c0 .586.23 1.148.644 1.563.415.414.977.644 1.563.644s1.148-.23 1.563-.644a2.21 2.21 0 00.644-1.563zm8-20a2.21 2.21 0 00-.644-1.563 2.208 2.208 0 00-1.563-.644 2.21 2.21 0 00-1.563.644 2.208 2.208 0 00-.644 1.563c0 .586.23 1.148.644 1.563.415.414.977.644 1.563.644s1.148-.23 1.563-.644a2.21 2.21 0 00.644-1.563zm8-13a2.21 2.21 0 00-.644-1.563 2.208 2.208 0 00-1.563-.644 2.21 2.21 0 00-1.563.644 2.208 2.208 0 00-.644 1.563c0 .586.23 1.148.644 1.563.415.414.977.644 1.563.644s1.148-.23 1.563-.644a2.21 2.21 0 00.644-1.563zm8-16a2.21 2.21 0 00-.644-1.563 2.208 2.208 0 00-1.563-.644 2.21 2.21 0 00-1.563.644 2.208 2.208 0 00-.644 1.563c0 .586.23 1.148.644 1.563.415.414.977.644 1.563.644s1.148-.23 1.563-.644a2.21 2.21 0 00.644-1.563zm7-11a2.21 2.21 0 00-.644-1.563 2.208 2.208 0 00-1.563-.644 2.21 2.21 0 00-1.563.644 2.208 2.208 0 00-.644 1.563c0 .586.23 1.148.644 1.563.415.414.977.644 1.563.644s1.148-.23 1.563-.644a2.21 2.21 0 00.644-1.563zm8-8a2.21 2.21 0 00-.644-1.563 2.208 2.208 0 00-1.563-.644 2.21 2.21 0 00-1.563.644 2.208 2.208 0 00-.644 1.563c0 .586.23 1.148.644 1.563.415.414.977.644 1.563.644s1.148-.23 1.563-.644a2.21 2.21 0 00.644-1.563zm8-7a2.21 2.21 0 00-.644-1.563 2.208 2.208 0 00-1.563-.644 2.21 2.21 0 00-1.563.644 2.208 2.208 0 00-.644 1.563c0 .586.23 1.148.644 1.563.415.414.977.644 1.563.644s1.148-.23 1.563-.644a2.21 2.21 0 00.644-1.563zm7-5a2.21 2.21 0 00-.644-1.563 2.208 2.208 0 00-1.563-.644 2.21 2.21 0 00-1.563.644 2.208 2.208 0 00-.644 1.563c0 .586.23 1.148.644 1.563.415.414.977.644 1.563.644s1.148-.23 1.563-.644a2.21 2.21 0 00.644-1.563zm8-5a2.21 2.21 0 00-.644-1.563 2.208 2.208 0 00-1.563-.644 2.21 2.21 0 00-1.563.644 2.208 2.208 0 00-.644 1.563c0 .586.23 1.148.644 1.563.415.414.977.644 1.563.644s1.148-.23 1.563-.644a2.21 2.21 0 00.644-1.563zm8-4a2.21 2.21 0 00-.644-1.563 2.208 2.208 0 00-1.563-.644 2.21 2.21 0 00-1.563.644 2.208 2.208 0 00-.644 1.563c0 .586.23 1.148.644 1.563.415.414.977.644 1.563.644s1.148-.23 1.563-.644a2.21 2.21 0 00.644-1.563zm8-4a2.21 2.21 0 00-.644-1.563 2.208 2.208 0 00-1.563-.644 2.21 2.21 0 00-1.563.644 2.208 2.208 0 00-.644 1.563c0 .586.23 1.148.644 1.563.415.414.977.644 1.563.644s1.148-.23 1.563-.644a2.21 2.21 0 00.644-1.563zm7-3a2.21 2.21 0 00-.644-1.563 2.208 2.208 0 00-1.563-.644 2.21 2.21 0 00-1.563.644 2.208 2.208 0 00-.644 1.563c0 .586.23 1.148.644 1.563.415.414.977.644 1.563.644s1.148-.23 1.563-.644a2.21 2.21 0 00.644-1.563zm8-3a2.21 2.21 0 00-.644-1.563 2.208 2.208 0 00-1.563-.644 2.21 2.21 0 00-1.563.644 2.208 2.208 0 00-.644 1.563c0 .586.23 1.148.644 1.563.415.414.977.644 1.563.644s1.148-.23 1.563-.644a2.21 2.21 0 00.644-1.563zm8-2a2.21 2.21 0 00-.644-1.563 2.208 2.208 0 00-1.563-.644c-.586 0-1.148.23-1.563.645a2.208 2.208 0 00-.644 1.562c0 .586.23 1.148.644 1.563.415.414.977.644 1.563.644s1.148-.23 1.563-.644a2.21 2.21 0 00.644-1.563zm7-3a2.21 2.21 0 00-.644-1.563 2.208 2.208 0 00-1.563-.644c-.586 0-1.148.23-1.563.645a2.208 2.208 0 00-.644 1.562c0 .586.23 1.148.644 1.563.415.414.977.644 1.563.644s1.148-.23 1.563-.644a2.21 2.21 0 00.644-1.563zm8-1a2.21 2.21 0 00-.644-1.563 2.208 2.208 0 00-1.563-.644c-.586 0-1.148.23-1.563.645a2.208 2.208 0 00-.644 1.562c0 .586.23 1.148.644 1.563.415.414.977.644 1.563.644s1.148-.23 1.563-.644a2.21 2.21 0 00.644-1.563zm8-2a2.21 2.21 0 00-.644-1.563 2.208 2.208 0 00-1.563-.644c-.586 0-1.148.23-1.563.645a2.208 2.208 0 00-.644 1.562c0 .586.23 1.148.644 1.563.415.414.977.644 1.563.644s1.148-.23 1.563-.645c.414-.414.644-.976.644-1.562zm8-1a2.21 2.21 0 00-.644-1.563 2.208 2.208 0 00-1.563-.644c-.586 0-1.148.23-1.563.645a2.208 2.208 0 00-.644 1.562c0 .586.23 1.148.644 1.563.415.414.977.644 1.563.644s1.148-.23 1.563-.645c.414-.414.644-.976.644-1.562zm7-1a2.21 2.21 0 00-.644-1.563 2.208 2.208 0 00-1.563-.644c-.586 0-1.148.23-1.563.645a2.208 2.208 0 00-.644 1.562c0 .586.23 1.148.644 1.563.415.414.977.644 1.563.644s1.148-.23 1.563-.645c.414-.414.644-.976.644-1.562zm8-1a2.21 2.21 0 00-.644-1.563 2.208 2.208 0 00-1.563-.644c-.586 0-1.148.23-1.563.645a2.208 2.208 0 00-.644 1.562c0 .586.23 1.148.644 1.563.415.414.977.644 1.563.644s1.148-.23 1.563-.645c.414-.414.644-.976.644-1.562zm8-1a2.21 2.21 0 00-.644-1.563 2.208 2.208 0 00-1.563-.644c-.586 0-1.148.23-1.563.645a2.208 2.208 0 00-.644 1.562c0 .586.23 1.148.644 1.563.415.414.977.644 1.563.644s1.148-.23 1.563-.645c.414-.414.644-.976.644-1.562zm8-1a2.21 2.21 0 00-.644-1.563 2.208 2.208 0 00-1.563-.644c-.586 0-1.148.23-1.563.645a2.208 2.208 0 00-.644 1.562c0 .586.23 1.148.644 1.563.415.414.977.644 1.563.644s1.148-.23 1.563-.645c.414-.414.644-.976.644-1.562zm7 0a2.21 2.21 0 00-.644-1.563 2.208 2.208 0 00-1.563-.644c-.586 0-1.148.23-1.563.645a2.208 2.208 0 00-.644 1.562c0 .586.23 1.148.644 1.563.415.414.977.644 1.563.644s1.148-.23 1.563-.645c.414-.414.644-.976.644-1.562zm8-1a2.21 2.21 0 00-.644-1.563 2.208 2.208 0 00-1.563-.644c-.586 0-1.148.23-1.563.645a2.208 2.208 0 00-.644 1.562c0 .586.23 1.148.644 1.563.415.414.977.644 1.563.644s1.148-.23 1.563-.645c.414-.414.644-.976.644-1.562zm8 0a2.21 2.21 0 00-.644-1.563 2.208 2.208 0 00-1.563-.644c-.586 0-1.148.23-1.563.645a2.208 2.208 0 00-.644 1.562c0 .586.23 1.148.644 1.563.415.414.977.644 1.563.644s1.148-.23 1.563-.645c.414-.414.644-.976.644-1.562zm7 0a2.21 2.21 0 00-.644-1.563 2.208 2.208 0 00-1.563-.644c-.586 0-1.148.23-1.563.645a2.208 2.208 0 00-.644 1.562c0 .586.23 1.148.644 1.563.415.414.977.644 1.563.644s1.148-.23 1.563-.645c.414-.414.644-.976.644-1.562zm8-1a2.21 2.21 0 00-.644-1.563 2.208 2.208 0 00-1.563-.644c-.586 0-1.148.23-1.563.645a2.208 2.208 0 00-.644 1.562c0 .586.23 1.148.644 1.563.415.414.977.644 1.563.644s1.148-.23 1.563-.645c.414-.414.644-.976.644-1.562zm8 0a2.21 2.21 0 00-.644-1.563 2.208 2.208 0 00-1.563-.644c-.586 0-1.148.23-1.563.645a2.208 2.208 0 00-.644 1.562c0 .586.23 1.148.644 1.563.415.414.977.644 1.563.644s1.148-.23 1.563-.645c.414-.414.644-.976.644-1.562zm8 0a2.21 2.21 0 00-.644-1.563 2.208 2.208 0 00-1.563-.644c-.586 0-1.148.23-1.563.645a2.208 2.208 0 00-.644 1.562c0 .586.23 1.148.644 1.563.415.414.977.644 1.563.644s1.148-.23 1.563-.645c.414-.414.644-.976.644-1.562zm7 0a2.21 2.21 0 00-.644-1.563 2.208 2.208 0 00-1.563-.644c-.586 0-1.148.23-1.563.645a2.208 2.208 0 00-.644 1.562c0 .586.23 1.148.644 1.563.415.414.977.644 1.563.644s1.148-.23 1.563-.645c.414-.414.644-.976.644-1.562zm8 0a2.21 2.21 0 00-.644-1.563 2.208 2.208 0 00-1.563-.644c-.586 0-1.148.23-1.563.645a2.208 2.208 0 00-.644 1.562c0 .586.23 1.148.644 1.563.415.414.977.644 1.563.644s1.148-.23 1.563-.645c.414-.414.644-.976.644-1.562zm8-1a2.21 2.21 0 00-.644-1.563 2.208 2.208 0 00-1.563-.644c-.586 0-1.148.23-1.563.645a2.208 2.208 0 00-.644 1.562c0 .586.23 1.148.644 1.563.415.414.977.644 1.563.644s1.148-.23 1.563-.645c.414-.414.644-.976.644-1.562zm7 0a2.21 2.21 0 00-.644-1.563 2.208 2.208 0 00-1.563-.644c-.586 0-1.148.23-1.563.645a2.208 2.208 0 00-.644 1.562c0 .586.23 1.148.644 1.563.415.414.977.644 1.563.644s1.148-.23 1.563-.645c.414-.414.644-.976.644-1.562zm8 0a2.21 2.21 0 00-.644-1.563 2.208 2.208 0 00-1.563-.644c-.586 0-1.148.23-1.563.645a2.208 2.208 0 00-.644 1.562c0 .586.23 1.148.644 1.563.415.414.977.644 1.563.644s1.148-.23 1.563-.645c.414-.414.644-.976.644-1.562zm8 0a2.21 2.21 0 00-.644-1.563 2.208 2.208 0 00-1.563-.644c-.586 0-1.148.23-1.563.645a2.208 2.208 0 00-.644 1.562c0 .586.23 1.148.644 1.563.415.414.977.644 1.563.644s1.148-.23 1.563-.645c.414-.414.644-.976.644-1.562zm8 0a2.21 2.21 0 00-.644-1.563 2.208 2.208 0 00-1.563-.644c-.586 0-1.148.23-1.563.645a2.208 2.208 0 00-.644 1.562c0 .586.23 1.148.644 1.563.415.414.977.644 1.563.644s1.148-.23 1.563-.645c.414-.414.644-.976.644-1.562zm7 0a2.21 2.21 0 00-.644-1.563 2.208 2.208 0 00-1.563-.644c-.586 0-1.148.23-1.563.645a2.208 2.208 0 00-.644 1.562c0 .586.23 1.148.644 1.563.415.414.977.644 1.563.644s1.148-.23 1.563-.645c.414-.414.644-.976.644-1.562zm8 0a2.21 2.21 0 00-.644-1.563 2.208 2.208 0 00-1.563-.644c-.586 0-1.148.23-1.563.645a2.208 2.208 0 00-.644 1.562c0 .586.23 1.148.644 1.563.415.414.977.644 1.563.644s1.148-.23 1.563-.645c.414-.414.644-.976.644-1.562zm8 0a2.21 2.21 0 00-.644-1.563 2.208 2.208 0 00-1.563-.644c-.586 0-1.148.23-1.563.645a2.208 2.208 0 00-.644 1.562c0 .586.23 1.148.644 1.563.415.414.977.644 1.563.644s1.148-.23 1.563-.645c.414-.414.644-.976.644-1.562zm8 0a2.21 2.21 0 00-.644-1.563 2.208 2.208 0 00-1.563-.644c-.586 0-1.148.23-1.563.645a2.208 2.208 0 00-.644 1.562c0 .586.23 1.148.644 1.563.415.414.977.644 1.563.644s1.148-.23 1.563-.645c.414-.414.644-.976.644-1.562zm0 0" fill-rule="evenodd" fill="#0d86a0"/><path d="M249.277 30.23h.012l.02.004h.039l.058.004h.082l.117.004.153.008.195.008.242.008.293.007.352.016.41.012.48.02.547.019.63.023.706.024.793.027.887.035.98.035 1.086.036 1.188.043 1.305.046 1.418.051 1.539.055 1.668.062 1.796.063 1.934.07 2.074.074 2.223.078 2.375.086 2.531.09 2.692.098 2.859.102 3.02.109 3.175.113 3.32.121 3.454.121 3.578.13 3.695.132 3.797.137 3.895.136 3.98.145 4.055.145 4.117.148 4.176.148 4.222.149 4.254.152 4.285.156 4.297.153 4.305.152 4.3.153 4.29.152 4.265.152 4.23.153 4.192.148 4.133.148 4.074.145 4 .14 3.918.141 3.828.133 3.723.133 3.61.125 3.492.125 3.359.117 3.215.113 3.066.11 2.903.097 2.746.098 2.586.09 2.433.082 2.29.082 2.148.07 2.011.07 1.88.063 1.753.059 1.63.054 1.51.051 1.403.047 1.297.043 1.192.035 1.093.035 1.004.031.914.028.836.027.754.02.684.02.613.019.555.011.496.012.441.012.395.008.351.008.313.003.277.004.254.004h.227l.21.004h5.184" fill="none" stroke-width="4" stroke-linejoin="round" stroke="#fff" stroke-opacity=".667" stroke-miterlimit="3.25"/><path d="M249.277 30.23h.012l.02.004h.039l.058.004h.082l.117.004.153.008.195.008.242.008.293.007.352.016.41.012.48.02.547.019.63.023.706.024.793.027.887.035.98.035 1.086.036 1.188.043 1.305.046 1.418.051 1.539.055 1.668.062 1.796.063 1.934.07 2.074.074 2.223.078 2.375.086 2.531.09 2.692.098 2.859.102 3.02.109 3.175.113 3.32.121 3.454.121 3.578.13 3.695.132 3.797.137 3.895.136 3.98.145 4.055.145 4.117.148 4.176.148 4.222.149 4.254.152 4.285.156 4.297.153 4.305.152 4.3.153 4.29.152 4.265.152 4.23.153 4.192.148 4.133.148 4.074.145 4 .14 3.918.141 3.828.133 3.723.133 3.61.125 3.492.125 3.359.117 3.215.113 3.066.11 2.903.097 2.746.098 2.586.09 2.433.082 2.29.082 2.148.07 2.011.07 1.88.063 1.753.059 1.63.054 1.51.051 1.403.047 1.297.043 1.192.035 1.093.035 1.004.031.914.028.836.027.754.02.684.02.613.019.555.011.496.012.441.012.395.008.351.008.313.003.277.004.254.004h.227l.21.004h5.184" fill="none" stroke-width="1.25" stroke-linecap="square" stroke="#aaa" stroke-miterlimit="3.25"/><path d="M490.664 29.16v16h-38v-16zm0 0" fill="#fff" fill-opacity=".667"/><use xlink:href="#a" x="455.164" y="39.66"/><use xlink:href="#b" x="465.164" y="39.66"/><use xlink:href="#c" x="477.164" y="39.66"/><use xlink:href="#d" x="481.164" y="39.66"/><use xlink:href="#e" x="484.164" y="39.66"/><path d="M380.57 19.992h.028l.047-.008.074-.007.12-.016.169-.02.226-.03.293-.036.371-.047.457-.055.551-.07.653-.082.765-.094.883-.113 1.016-.125 1.152-.144 1.3-.16 1.454-.184 1.621-.2 1.781-.222 1.922-.242 2.05-.254 2.161-.27 2.25-.277 2.332-.29 2.387-.296 2.43-.3 2.453-.302 2.464-.304 2.454-.301 2.43-.297 2.386-.289 2.324-.281 2.25-.27 2.156-.258 2.047-.242 1.922-.226 1.774-.203 1.625-.188 1.48-.164 1.344-.148 1.215-.13 1.101-.113.989-.097.882-.082.793-.07.711-.06.63-.046.566-.04.503-.03.454-.02.41-.016.375-.011.351-.008.332-.004h5.18" fill="none" stroke-width="4" stroke-linejoin="round" stroke="#fff" stroke-opacity=".667" stroke-miterlimit="3.25"/><path d="M380.57 19.992h.028l.047-.008.074-.007.12-.016.169-.02.226-.03.293-.036.371-.047.457-.055.551-.07.653-.082.765-.094.883-.113 1.016-.125 1.152-.144 1.3-.16 1.454-.184 1.621-.2 1.781-.222 1.922-.242 2.05-.254 2.161-.27 2.25-.277 2.332-.29 2.387-.296 2.43-.3 2.453-.302 2.464-.304 2.454-.301 2.43-.297 2.386-.289 2.324-.281 2.25-.27 2.156-.258 2.047-.242 1.922-.226 1.774-.203 1.625-.188 1.48-.164 1.344-.148 1.215-.13 1.101-.113.989-.097.882-.082.793-.07.711-.06.63-.046.566-.04.503-.03.454-.02.41-.016.375-.011.351-.008.332-.004h5.18" fill="none" stroke-width="1.25" stroke-linecap="square" stroke="#aaa" stroke-miterlimit="3.25"/><path d="M492.664 4.25v16h-40v-16zm0 0" fill="#fff" fill-opacity=".667"/><use xlink:href="#a" x="455.164" y="14.751"/><use xlink:href="#b" x="465.164" y="14.751"/><use xlink:href="#c" x="477.164" y="14.751"/><use xlink:href="#d" x="481.164" y="14.751"/><use xlink:href="#d" x="483.884" y="14.751"/><use xlink:href="#e" x="486.164" y="14.751"/><path d="M380.57 52.324h.008l.02.004.047.004.074.012.12.015.169.028.226.031.293.043.371.055.457.066.551.082.653.094.765.11.883.128 1.016.149 1.152.167 1.3.192 1.454.21 1.621.235 1.781.262 1.922.277 2.05.301 2.161.313 2.25.328 2.332.336 2.387.343 2.43.352 2.453.352 2.464.355 2.454.352 2.43.347 2.386.336 2.324.328 2.25.317 2.156.3 2.047.286 1.922.261 1.774.239 1.625.218 1.48.192 1.344.172 1.215.152 1.101.129.989.117.882.098.793.082.711.066.63.059.566.043.503.035.454.027.41.016.375.012.351.007.332.004h.325l.328.004h4.527" fill="none" stroke-width="4" stroke-linejoin="round" stroke="#fff" stroke-opacity=".667" stroke-miterlimit="3.25"/><path d="M380.57 52.324h.008l.02.004.047.004.074.012.12.015.169.028.226.031.293.043.371.055.457.066.551.082.653.094.765.11.883.128 1.016.149 1.152.167 1.3.192 1.454.21 1.621.235 1.781.262 1.922.277 2.05.301 2.161.313 2.25.328 2.332.336 2.387.343 2.43.352 2.453.352 2.464.355 2.454.352 2.43.347 2.386.336 2.324.328 2.25.317 2.156.3 2.047.286 1.922.261 1.774.239 1.625.218 1.48.192 1.344.172 1.215.152 1.101.129.989.117.882.098.793.082.711.066.63.059.566.043.503.035.454.027.41.016.375.012.351.007.332.004h.325l.328.004h4.527" fill="none" stroke-width="1.25" stroke-linecap="square" stroke="#aaa" stroke-miterlimit="3.25"/><path d="M497.664 53.867v15h-45v-15zm0 0" fill="#fff" fill-opacity=".667"/><use xlink:href="#f" x="455.164" y="63.865"/><use xlink:href="#g" x="465.164" y="63.865"/><use xlink:href="#h" x="475.164" y="63.865"/><use xlink:href="#i" x="485.164" y="63.865"/><path d="M241.246 30.23l7.723-4.875" fill="none" stroke-width="1.6" stroke-linecap="square" stroke="#a60000" stroke-opacity=".3" stroke-dasharray="4,4" stroke-miterlimit="3.25"/><path d="M59.484 281.906l.012-39.25.07-30.207.075-10.652.07-6.629.07-4.832.07-3.805.07-3.136.071-2.676.074-2.328.07-2.067.071-1.855.07-1.68.07-1.543.067-1.328.066-1.242.133-2.254.067-1.031.066-.977.133-1.812.066-.848.063-.805.133-1.52.265-2.714.067-.621.066-.602.133-1.152.262-2.11.066-.496.066-.48.133-.93.266-1.734.066-.41.067-.403.132-.78.262-1.477.531-2.665.067-.308.066-.305.13-.597.265-1.145.531-2.113.14-.54.145-.523.285-1.015.575-1.895.074-.226.07-.223.145-.442.285-.855.574-1.617.07-.196.075-.19.14-.384.29-.742.573-1.418 1.145-2.61.07-.144.067-.144.132-.285.27-.555.535-1.082 1.07-2.035 2.141-3.657.067-.105.066-.102.129-.207.265-.414.524-.804 1.05-1.547 2.102-2.875.14-.188.141-.183.286-.368.57-.722 1.14-1.403 2.278-2.644 4.254-4.496 4.61-4.399 4.523-3.968 4.218-3.461 4.579-3.547 4.273-3.16 4.629-3.278 4.543-3.097 4.242-2.79 4.598-2.93 4.289-2.648 4.21-2.523 4.563-2.652 4.262-2.399 4.617-2.511 4.531-2.376 4.227-2.132 4.586-2.22 4.277-1.98 4.196-1.847 4.554-1.903 4.246-1.675 4.606-1.703 4.3-1.485 4.215-1.351 4.57-1.356L201.2 37l4.625-1.145 4.54-1.02 4.234-.855 4.593-.835 4.286-.696 4.203-.61 4.562-.585 4.254-.484 1.188-.125 1.187-.122.297-.03.297-.028.594-.059.074-.008.074-.003.148-.016.297-.027.149-.016.148-.012.297-.031m7.722-5.102l.05-.007.055-.012.102-.016.21-.035.419-.066.832-.13 1.668-.25 3.613-.495 3.379-.41 3.308-.36 3.59-.348 3.352-.292 3.633-.282 3.562-.25 3.324-.207 3.61-.207 3.363-.172 3.3-.152 3.583-.148 3.34-.125 3.62-.125 3.555-.11 3.317-.094 3.598-.09 3.355-.078 3.637-.078 3.57-.066 3.332-.059 3.613-.054 3.371-.047 3.31-.043 3.585-.043 3.348-.035 3.625-.035 3.562-.032 3.32-.027 3.602-.027 3.363-.024 3.297-.02 3.578-.019 3.336-.016 3.617-.02 3.38-.01 3.312-.012 3.594-.016 3.351-.008 3.633-.012 3.57-.007 3.325-.012 3.609-.008 3.371-.004 3.3-.008 3.583-.004 3.344-.007h2.332l.468-.004h.93" fill="none" stroke-width="1.6" stroke-linecap="square" stroke="#a60000" stroke-opacity=".3" stroke-miterlimit="3.25"/><path d="M78.285 260.242l.074-49.066.13-17.73.132-8.731.133-5.852.129-4.406.133-3.543.132-2.96.13-2.548.132-2.238.133-1.992.129-1.797.133-1.637.261-2.898.133-1.293.133-1.211.262-2.211.133-1.016.128-.965.266-1.793.129-.824.129-.785.258-1.488.129-.703.129-.676.257-1.293.13-.613.128-.594.258-1.14.52-2.106.128-.492.13-.48.257-.93.516-1.743 1.035-3.101.129-.356.129-.351.258-.688.515-1.308 1.031-2.407.133-.28.13-.282.257-.547.516-1.063 1.03-1.984.243-.437.242-.43.48-.84.966-1.598 1.925-2.914.121-.172.121-.168.239-.34.484-.66.961-1.277 1.93-2.379.129-.156.132-.152.262-.305.52-.598 1.047-1.16 2.09-2.195 4.18-3.957.241-.219.246-.215.489-.426.972-.835 1.953-1.61 3.903-3.012 7.648-5.265 8.301-4.98 7.746-4.122 8.395-3.988 8.242-3.484 7.687-2.899 8.336-2.781 7.782-2.274 8.43-2.132 8.28-1.79 7.723-1.413.129-.024.133-.023.262-.043.52-.086 1.046-.172 2.094-.328 4.187-.614.121-.02.125-.015.243-.035 1.464-.2 1.957-.253 3.907-.477.12-.011.122-.016.238-.027.48-.055 2.872-.316 3.832-.387.132-.012.387-.035.52-.05 1.039-.098 2.082-.184 4.156-.34.121-.012.121-.007.242-.02.485-.035.969-.074 1.941-.14 3.879-.259.133-.011.129-.008.265-.016.524-.031 1.05-.066 2.106-.122 4.203-.226.129-.004.129-.008.258-.012.515-.027 1.032-.05 2.066-.094 4.125-.18.242-.008.242-.012.48-.015.962-.04 1.926-.07 3.851-.133.258-.007.262-.012.523-.016 1.043-.03 2.09-.063 4.172-.114.125-.004.12-.004.243-.003.488-.016.973-.023 1.95-.047 3.898-.082.12-.004.118-.004.238-.004.48-.008.954-.02 1.91-.035 3.82-.066.13-.004.132-.004.258-.004.52-.008 1.034-.015 2.075-.031 4.144-.059h.242l.727-.012.965-.011 1.933-.024h.243l.726-.012.965-.007 1.938-.024h.261l.262-.004.523-.004 1.047-.011 2.098-.02 4.195-.035.121-.004h.368l.488-.004.98-.008 1.957-.015 3.914-.028h.243l.238-.004.48-.003.961-.004 1.918-.012h.242l.239-.004h.48l.961-.008 1.918-.008h.129l.133-.004h.258l.52-.003 1.042-.004 2.082-.008 4.164-.02h.242l.243-.004h.488l.969-.004 1.945-.007h.484l.489-.004.968-.004 1.946-.004h.261l.266-.004h.523l1.055-.004 2.106-.004.132-.004h.922l1.051-.004 2.105-.003h.258l.258-.004h.52l1.03-.004 2.071-.004 4.133-.008h.965l.965-.004 1.93-.004h.96l.965-.004h2.059l.133-.004h1.828l2.093-.004 4.18-.003h.246l.242-.004h1.465l1.953-.004 3.903-.004h3.949l.121-.004h4.625l1.04-.004h2.073l4.157-.004h4.843l.97-.004h8.558l.136-.004h1.891" fill="none" stroke-width="1.6" stroke-linecap="square" stroke="#0d86a0" stroke-opacity=".3" stroke-miterlimit="3.25"/><path d="M426.602 241.46H25m0 0V.5m0 0h401.602m0 0v240.96" fill="none" stroke-width=".5" stroke-linecap="square" stroke="#666" stroke-miterlimit="3.25"/><path d="M32.723 241.46v-4" fill="none" stroke-width=".5" stroke="#666" stroke-miterlimit="3.25"/><g fill="#666"><use xlink:href="#j" x="18.223" y="253.46"/><use xlink:href="#k" x="23.741" y="253.46"/><use xlink:href="#l" x="29.18" y="253.46"/></g><g fill="#666"><use xlink:href="#m" x="36.223" y="253.46"/><use xlink:href="#n" x="41.838" y="253.46"/></g><path d="M86.785 241.46v-4" fill="none" stroke-width=".5" stroke="#666" stroke-miterlimit="3.25"/><g fill="#666"><use xlink:href="#j" x="72.285" y="253.46"/><use xlink:href="#k" x="77.802" y="253.46"/><use xlink:href="#l" x="83.242" y="253.46"/></g><g fill="#666"><use xlink:href="#o" x="90.285" y="253.46"/><use xlink:href="#p" x="95.9" y="253.46"/></g><path d="M140.848 241.46v-4" fill="none" stroke-width=".5" stroke="#666" stroke-miterlimit="3.25"/><g fill="#666"><use xlink:href="#j" x="126.346" y="253.46"/><use xlink:href="#k" x="131.864" y="253.46"/><use xlink:href="#l" x="137.303" y="253.46"/></g><g fill="#666"><use xlink:href="#p" x="144.346" y="253.46"/><use xlink:href="#q" x="149.961" y="253.46"/></g><path d="M194.906 241.46v-4" fill="none" stroke-width=".5" stroke="#666" stroke-miterlimit="3.25"/><g fill="#666"><use xlink:href="#r" x="180.408" y="253.46"/><use xlink:href="#s" x="185.935" y="253.46"/><use xlink:href="#t" x="191.233" y="253.46"/></g><g fill="#666"><use xlink:href="#q" x="198.408" y="253.46"/><use xlink:href="#n" x="204.023" y="253.46"/></g><path d="M248.969 241.46v-4" fill="none" stroke-width=".5" stroke="#666" stroke-miterlimit="3.25"/><g fill="#666"><use xlink:href="#r" x="234.469" y="253.46"/><use xlink:href="#s" x="239.997" y="253.46"/><use xlink:href="#t" x="245.294" y="253.46"/></g><g fill="#666"><use xlink:href="#m" x="252.469" y="253.46"/><use xlink:href="#p" x="258.084" y="253.46"/></g><path d="M303.031 241.46v-4" fill="none" stroke-width=".5" stroke="#666" stroke-miterlimit="3.25"/><g fill="#666"><use xlink:href="#r" x="288.531" y="253.46"/><use xlink:href="#s" x="294.058" y="253.46"/><use xlink:href="#t" x="299.356" y="253.46"/></g><g fill="#666"><use xlink:href="#o" x="306.531" y="253.46"/><use xlink:href="#q" x="312.146" y="253.46"/></g><path d="M357.094 241.46v-4" fill="none" stroke-width=".5" stroke="#666" stroke-miterlimit="3.25"/><g fill="#666"><use xlink:href="#r" x="342.592" y="253.46"/><use xlink:href="#s" x="348.12" y="253.46"/><use xlink:href="#t" x="353.418" y="253.46"/></g><g fill="#666"><use xlink:href="#o" x="360.592" y="253.46"/><use xlink:href="#u" x="366.208" y="253.46"/></g><path d="M411.152 241.46v-4" fill="none" stroke-width=".5" stroke="#666" stroke-miterlimit="3.25"/><g fill="#666"><use xlink:href="#v" x="395.654" y="253.46"/><use xlink:href="#k" x="404.384" y="253.46"/><use xlink:href="#w" x="409.824" y="253.46"/></g><g fill="#666"><use xlink:href="#q" x="415.654" y="253.46"/><use xlink:href="#x" x="421.269" y="253.46"/></g><path d="M25 220.918h4.016" fill="none" stroke-width=".1" stroke="#666" stroke-miterlimit="3.25"/><use xlink:href="#m" x="16" y="223.417" fill="#666"/><path d="M25 179.918h4.016" fill="none" stroke-width=".1" stroke="#666" stroke-miterlimit="3.25"/><g fill="#666"><use xlink:href="#m" x="11" y="182.419"/><use xlink:href="#q" x="16.615" y="182.419"/></g><path d="M25 138.922h4.016" fill="none" stroke-width=".1" stroke="#666" stroke-miterlimit="3.25"/><g fill="#666"><use xlink:href="#m" x="5" y="141.421"/><use xlink:href="#q" x="10.615" y="141.421"/><use xlink:href="#q" x="16.23" y="141.421"/></g><path d="M25 97.922h4.016" fill="none" stroke-width=".1" stroke="#666" stroke-miterlimit="3.25"/><g fill="#666"><use xlink:href="#m" y="100.422"/><use xlink:href="#q" x="5.615" y="100.422"/><use xlink:href="#q" x="11.23" y="100.422"/><use xlink:href="#q" x="16.846" y="100.422"/></g><path d="M25 56.922h4.016" fill="none" stroke-width=".1" stroke="#666" stroke-miterlimit="3.25"/><g fill="#666"><use xlink:href="#m" x="5" y="60.924"/><use xlink:href="#q" x="10.615" y="60.924"/></g><use xlink:href="#y" x="16" y="56.924" fill="#666"/><path d="M25 15.926h4.016" fill="none" stroke-width=".1" stroke="#666" stroke-miterlimit="3.25"/><g fill="#666"><use xlink:href="#m" x="5" y="19.925"/><use xlink:href="#q" x="10.615" y="19.925"/></g><use xlink:href="#z" x="16" y="15.925" fill="#666"/><path d="M25 237.23h2.398M25 233.258h2.398M25 230.012h2.398M25 227.27h2.398M25 224.89h2.398M25 222.793h2.398M25 208.574h2.398M25 201.355h2.398M25 196.234h2.398M25 192.262h2.398M25 189.016h2.398M25 186.27h2.398M25 183.89h2.398M25 181.797h2.398M25 167.578h2.398M25 160.36h2.398M25 155.234h2.398M25 151.262h2.398M25 148.016h2.398M25 145.27h2.398M25 142.895h2.398M25 140.797h2.398M25 126.578h2.398M25 119.36h2.398M25 114.238h2.398M25 110.266h2.398M25 107.02h2.398M25 104.273h2.398M25 101.895h2.398M25 99.797h2.398M25 85.582h2.398M25 78.36h2.398M25 73.238h2.398M25 69.266h2.398M25 66.02h2.398M25 63.273h2.398M25 60.898h2.398M25 58.8h2.398M25 44.582h2.398M25 37.363h2.398M25 32.242h2.398M25 28.266h2.398M25 25.02h2.398M25 22.277h2.398M25 19.898h2.398M25 17.8h2.398M25 3.582h2.398m399.204 217.336h-4.016m4.016-41h-4.016m4.016-40.996h-4.016m4.016-41h-4.016m4.016-41h-4.016m4.016-40.996h-4.016m4.016 221.304h-2.403m2.403-3.972h-2.403m2.403-3.246h-2.403m2.403-2.742h-2.403m2.403-2.38h-2.403m2.403-2.097h-2.403m2.403-14.219h-2.403m2.403-7.219h-2.403m2.403-5.121h-2.403m2.403-3.972h-2.403m2.403-3.246h-2.403m2.403-2.746h-2.403m2.403-2.38h-2.403m2.403-2.093h-2.403m2.403-14.219h-2.403m2.403-7.218h-2.403m2.403-5.126h-2.403m2.403-3.972h-2.403m2.403-3.246h-2.403m2.403-2.746h-2.403m2.403-2.375h-2.403m2.403-2.098h-2.403m2.403-14.219h-2.403m2.403-7.218h-2.403m2.403-5.122h-2.403m2.403-3.972h-2.403m2.403-3.246h-2.403m2.403-2.747h-2.403m2.403-2.378h-2.403m2.403-2.098h-2.403m2.403-14.215h-2.403m2.403-7.222h-2.403m2.403-5.122h-2.403m2.403-3.972h-2.403m2.403-3.246h-2.403m2.403-2.747h-2.403m2.403-2.375h-2.403m2.403-2.098h-2.403m2.403-14.218h-2.403m2.403-7.219h-2.403m2.403-5.121h-2.403m2.403-3.976h-2.403m2.403-3.246h-2.403m2.403-2.743h-2.403m2.403-2.379h-2.403m2.403-2.098h-2.403m2.403-14.218h-2.403" fill="none" stroke-width=".1" stroke="#666" stroke-miterlimit="3.25"/></svg>