<svg xmlns="http://www.w3.org/2000/svg" xmlns:xlink="http://www.w3.org/1999/xlink" width="500pt" height="344" viewBox="0 0 500 258"><defs><symbol overflow="visible" id="a"><path d="M4.738-8.14C3.578-6.88 2.121-5.82.36-4.97l.352.63C2.48-5.23 3.91-6.282 5-7.49c1.18 1.272 2.59 2.3 4.25 3.1l.36-.64a14.128 14.128 0 01-4.348-3.11zM2.211-4.98v.69h2.418v1.74H1.73v.69h2.9v1.848H.839V.7h8.333v-.71h-3.8v-1.85h2.89v-.692h-2.89V-4.29h2.417v-.691zm0 0"/></symbol><symbol overflow="visible" id="b"><path d="M2.52-6.121v.652h2.109v1.438h-1.79v.64h1.79v1.59H2.25v.66h5.512v-.66h-2.39v-1.59H7.16v-.64H5.371V-5.47H7.47v-.652zm6.59-1.59H.89V.98h.731V.55H8.38v.43h.73zM1.62-.129V-7.03h6.76v6.9zm4.93-3.05l-.57.19c.238.329.46.72.66 1.169l.558-.258A6.323 6.323 0 006.55-3.18zm0 0"/></symbol><symbol overflow="visible" id="f"><path d="M7.04-4.73h1.51v1.808H7.04zm1.51-.63H7.04v-1.78h1.51zM7.02-2.28h1.53v2.22c0 .278-.12.43-.35.43-.24 0-.49-.02-.759-.043l.168.64h.79C8.94.969 9.21.7 9.21.173V-7.8H6.379v5.082C6.359-1.422 6.07-.339 5.5.5l.52.46c.59-.839.921-1.92 1-3.241zm-5.9-5.67l-.492.46c.68.5 1.21.977 1.59 1.419l.5-.489A11.92 11.92 0 001.12-7.95zm-.2 2.34l-.491.46c.691.53 1.231 1.03 1.621 1.49l.5-.488c-.44-.48-.991-.973-1.628-1.461zm1.03 2.649A33.47 33.47 0 01.56.58l.652.28c.5-1.12.95-2.308 1.36-3.57zm3.762-.64H4.69V-5.5h1.297v-.648H4.691v-1.73H4v1.73H2.7v.648H4v1.898H2.95V.41h.66v-.59h2.1zM3.61-.801v-2.18h1.46V-.8zm0 0"/></symbol><symbol overflow="visible" id="g"><path d="M3.32-8.14v2.769H.672v.691H3.32v3.211c-.89.418-1.82.739-2.8.957L.69.2c.93-.258 1.809-.57 2.63-.949V.93h.738v-9.07zM8.22.84c.43 0 .73-.121.89-.36.16-.25.262-.96.32-2.128l-.679-.223c-.031 1.02-.09 1.61-.172 1.793C8.48.078 8.32.16 8.102.16h-1.25c-.25 0-.372-.148-.372-.43v-3.84c.93-.32 1.91-.788 2.95-1.421l-.418-.59c-.82.57-1.66 1.012-2.532 1.332v-3.352h-.73v7.98c0 .661.309 1 .941 1zm0 0"/></symbol><symbol overflow="visible" id="h"><path d="M3.77-7.078l-.598.367C4.05-5.68 4.738-4.75 5.25-3.91l.61-.417c-.481-.781-1.18-1.703-2.09-2.75zM7.21-2.18C7.97-1.129 8.579-.14 9.05.8l.552-.55a22.006 22.006 0 00-2.07-3.121c.058-.149.109-.3.16-.45.417-1.32.628-2.917.628-4.82h-.75c-.011 1.93-.218 3.52-.64 4.77-.551 1.48-1.68 2.7-3.38 3.68l.481.59C5.488.058 6.551-.97 7.211-2.18zM1.29-.14c1.17-.43 2.269-.938 3.288-1.532l-.2-.7c-.769.462-1.538.852-2.32 1.173v-6.68H1.32v6.508c0 .23-.09.41-.27.55zm0 0"/></symbol><symbol overflow="visible" id="i"><path d="M6.36-8.148V.988h.742v-5.316c.578.457 1.27 1.11 2.09 1.93l.437-.66c-.86-.77-1.7-1.462-2.527-2.07v-3.02zM2.32-4.18l-.379.559A7.882 7.882 0 013.52-2.56C2.82-1.48 1.84-.579.59.141l.488.609C3.68-.8 5.141-3.09 5.48-6.121v-.629H3.05c.141-.41.259-.84.36-1.29l-.719-.12c-.402 1.8-1.18 3.238-2.32 4.3l.488.61c.801-.738 1.45-1.672 1.93-2.809h1.98a9.025 9.025 0 01-.917 2.93 8.296 8.296 0 00-1.532-1.05zm0 0"/></symbol><symbol overflow="visible" id="c"><path d="M3.492 1.82l-.148.22C2.289 1.37 1.554.593 1.133-.29.777-1.04.598-2.007.598-3.194c0-.993.199-1.868.597-2.633a5.022 5.022 0 011.203-1.516c.313-.234.625-.465.938-.695l.133.203c-1.274.965-1.91 2.516-1.91 4.656 0 1.387.175 2.489.527 3.309.3.707.77 1.27 1.406 1.691zm0 0"/></symbol><symbol overflow="visible" id="e"><path d="M3.25-3.195c0 1.187-.176 2.156-.531 2.906C2.3.594 1.563 1.37.504 2.039L.359 1.82A3.776 3.776 0 001.77.13c.348-.82.52-1.926.52-3.309 0-2.136-.633-3.687-1.902-4.656l.129-.203c.312.23.625.46.937.695.512.438.914.946 1.207 1.516.395.766.59 1.64.59 2.633zm0 0"/></symbol><symbol overflow="visible" id="d"><path d="M1.832 0H.895v-7.11h.937zm0 0"/></symbol><symbol overflow="visible" id="j"><path d="M3.805-7.11h.941v5.036c0 .68-.203 1.21-.613 1.597-.406.383-.953.575-1.633.575-.707 0-1.258-.18-1.648-.543-.395-.36-.594-.867-.594-1.516h.937c0 .406.114.723.336.95.223.23.547.343.969.343.387 0 .7-.121.941-.367.239-.246.36-.586.364-1.028zm0 0"/></symbol><symbol overflow="visible" id="k"><path d="M3.945 0c-.05-.105-.093-.29-.125-.555-.422.434-.922.653-1.507.653-.52 0-.946-.149-1.282-.442a1.438 1.438 0 01-.5-1.12c0-.552.211-.977.63-1.282.417-.305 1.007-.457 1.765-.457h.879v-.414c0-.317-.094-.567-.285-.754-.188-.188-.465-.281-.833-.281-.324 0-.593.082-.812.242-.219.164-.328.36-.328.59H.64c0-.262.093-.516.28-.762.188-.246.442-.441.763-.582.32-.145.671-.219 1.054-.219.61 0 1.086.153 1.434.457.344.305.523.727.535 1.258v2.434c0 .484.063.87.184 1.156V0zm-1.5-.688c.285 0 .555-.074.805-.218a1.35 1.35 0 00.555-.574v-1.083h-.711c-1.106 0-1.656.325-1.656.97 0 .284.093.507.28.663.188.16.43.243.727.243zm0 0"/></symbol><symbol overflow="visible" id="l"><path d="M1.54-5.281l.026.664a1.93 1.93 0 011.582-.766c1.118 0 1.68.633 1.692 1.89V0h-.902v-3.496c-.004-.379-.094-.664-.262-.844-.172-.183-.438-.273-.801-.273-.293 0-.55.078-.77.234a1.59 1.59 0 00-.52.613V0h-.9v-5.281zm0 0"/></symbol><symbol overflow="visible" id="m"><path d="M3.559 0h-.907v-6.02l-1.824.668v-.82l2.59-.973h.14zm0 0"/></symbol><symbol overflow="visible" id="n"><path d="M4.137-7.113v.765h-.168c-.703.012-1.262.223-1.68.625-.414.403-.656.973-.723 1.703.375-.43.887-.644 1.536-.644.617 0 1.113.219 1.48.656.371.438.555 1 .555 1.688 0 .734-.2 1.32-.598 1.757-.398.442-.934.66-1.605.66-.68 0-1.23-.261-1.653-.784C.855-1.212.645-1.883.645-2.704v-.348c0-1.308.277-2.308.835-3 .56-.691 1.391-1.047 2.497-1.062zM2.949-3.91c-.308 0-.594.09-.855.277a1.446 1.446 0 00-.54.7v.331c0 .586.13 1.059.395 1.414.262.36.59.54.985.54.406 0 .726-.153.96-.45.231-.3.348-.691.348-1.175 0-.489-.117-.887-.351-1.188a1.14 1.14 0 00-.942-.45zm0 0"/></symbol><symbol overflow="visible" id="o"><path d="M5.25 0H.59v-.648l2.46-2.735c.364-.414.618-.75.755-1.008.14-.257.21-.527.21-.804 0-.371-.113-.676-.34-.914-.222-.239-.523-.356-.898-.356-.449 0-.797.13-1.047.383-.25.254-.37.613-.37 1.066H.452c0-.652.211-1.183.633-1.586.422-.402.984-.605 1.691-.605.66 0 1.184.172 1.567.52.386.347.578.808.578 1.382 0 .703-.445 1.535-1.336 2.5L1.68-.738h3.57zm0 0"/></symbol><symbol overflow="visible" id="p"><path d="M1.906-3.992h.676c.426-.008.762-.121 1.008-.34.242-.219.363-.512.363-.883 0-.832-.414-1.25-1.242-1.25-.39 0-.703.113-.938.336-.23.223-.347.516-.347.887H.523c0-.563.204-1.031.618-1.406.41-.372.933-.559 1.57-.559.672 0 1.195.176 1.578.531.379.356.57.848.57 1.48 0 .31-.101.61-.3.9a1.81 1.81 0 01-.817.648c.39.125.692.328.903.617.214.285.32.636.32 1.047 0 .64-.207 1.144-.625 1.52-.418.374-.957.562-1.625.562s-1.211-.18-1.63-.543c-.417-.36-.624-.836-.624-1.43h.906c0 .375.121.672.367.898.243.227.57.336.98.336.438 0 .77-.113 1-.34.231-.23.349-.554.349-.98 0-.414-.125-.734-.383-.953-.254-.223-.618-.336-1.098-.344h-.676zm0 0"/></symbol><symbol overflow="visible" id="q"><path d="M5.047-3.031c0 1.058-.18 1.844-.54 2.36-.362.51-.925.769-1.694.769-.758 0-1.32-.25-1.684-.754C.766-1.16.574-1.91.562-2.91v-1.207c0-1.043.18-1.82.54-2.328.363-.508.93-.762 1.703-.762.765 0 1.328.246 1.687.734.36.489.547 1.246.555 2.27zm-.902-1.235c0-.765-.106-1.324-.32-1.675-.216-.348-.555-.524-1.02-.524-.465 0-.801.176-1.012.524-.211.347-.32.882-.328 1.605v1.445c0 .77.113 1.336.336 1.704.222.367.558.546 1.012.546.445 0 .777-.171.992-.515.218-.344.332-.89.34-1.633zm0 0"/></symbol><symbol overflow="visible" id="r"><path d="M4.746-3.14H1.762V0H.824v-7.11H5.23v.774H1.762v2.43h2.984zm0 0"/></symbol><symbol overflow="visible" id="s"><path d="M2.875.098c-.715 0-1.297-.235-1.746-.707-.45-.47-.676-1.098-.676-1.887v-.164c0-.524.102-.992.3-1.406.2-.41.481-.735.84-.965.36-.235.75-.352 1.173-.352.687 0 1.218.227 1.601.68.38.453.57 1.101.57 1.945v.375H1.36c.012.52.164.942.454 1.262.292.32.664.48 1.113.48.316 0 .59-.062.808-.195.223-.129.414-.3.582-.516l.551.43c-.441.68-1.105 1.02-1.992 1.02zm-.11-4.739a1.21 1.21 0 00-.921.399c-.246.265-.399.64-.457 1.117H4.03v-.07c-.023-.457-.148-.813-.367-1.067-.223-.25-.523-.379-.898-.379zm0 0"/></symbol><symbol overflow="visible" id="t"><path d="M5.156-2.582c0 .809-.187 1.453-.554 1.945-.372.489-.872.735-1.497.735-.667 0-1.183-.235-1.546-.707L1.516 0H.684v-7.5h.902v2.797c.367-.453.867-.68 1.508-.68.64 0 1.148.246 1.511.73.368.485.551 1.15.551 1.993zm-.902-.106c0-.613-.121-1.09-.356-1.421-.238-.336-.582-.504-1.027-.504-.598 0-1.023.277-1.285.828V-1.5c.277.555.71.832 1.297.832.43 0 .77-.168 1.008-.504.242-.336.363-.84.363-1.516zm0 0"/></symbol><symbol overflow="visible" id="u"><path d="M5.18-6.602L2.234 0H1.29l2.934-6.367H.375v-.742H5.18zm0 0"/></symbol><symbol overflow="visible" id="v"><path d="M3.965-2.148h.887v.664h-.887V0h-.817v-1.484H.234v-.48l2.864-4.434h.867zm-2.809 0h1.992v-3.137l-.097.176zm0 0"/></symbol><symbol overflow="visible" id="w"><path d="M.906-3.207l.324-3.191h3.278v.75H1.922l-.195 1.746a2.081 2.081 0 011.07-.278c.582 0 1.043.192 1.387.578.343.387.515.907.515 1.563 0 .66-.18 1.18-.535 1.559-.355.378-.851.566-1.492.566-.567 0-1.027-.156-1.383-.469-.36-.312-.562-.746-.613-1.3h.77c.05.367.179.644.39.828.21.187.492.28.836.28.379 0 .676-.128.89-.386.215-.258.32-.617.32-1.07 0-.426-.112-.77-.347-1.031-.234-.258-.543-.387-.93-.387-.355 0-.632.078-.835.23l-.215.18zm0 0"/></symbol></defs><path d="M33.543 241.46V.5M93.36 241.46V.5m59.812 240.96V.5m59.812 240.96V.5m59.813 240.96V.5m59.813 240.96V.5m59.812 240.96V.5" fill="none" stroke="#666" stroke-opacity=".5" stroke-dasharray="1,2" stroke-miterlimit="3.25"/><path d="M25 220.918h401.602M25 179.82h401.602M25 138.727h401.602M25 97.629h401.602M25 56.535h401.602M25 15.438h401.602" fill="none" stroke-width=".1" stroke="#666" stroke-opacity=".5" stroke-dasharray="1,2" stroke-miterlimit="3.25"/><path d="M36.207 155c0-.586-.23-1.148-.645-1.563a2.208 2.208 0 00-1.562-.644 2.21 2.21 0 00-1.563.644 2.208 2.208 0 00-.644 1.563c0 .586.23 1.148.645 1.563.414.414.976.644 1.562.644a2.21 2.21 0 001.563-.644 2.21 2.21 0 00.644-1.563zm8-2c0-.586-.23-1.148-.645-1.563a2.208 2.208 0 00-1.562-.644 2.21 2.21 0 00-1.563.644 2.208 2.208 0 00-.644 1.563c0 .586.23 1.148.645 1.563.414.414.976.644 1.562.644a2.21 2.21 0 001.563-.644 2.21 2.21 0 00.644-1.563zm9-6c0-.586-.23-1.148-.645-1.563a2.208 2.208 0 00-1.562-.644 2.21 2.21 0 00-1.563.644 2.208 2.208 0 00-.644 1.563c0 .586.23 1.148.645 1.563.414.414.976.644 1.562.644a2.21 2.21 0 001.563-.644 2.21 2.21 0 00.644-1.563zm8-12c0-.586-.23-1.148-.645-1.563a2.208 2.208 0 00-1.562-.644 2.21 2.21 0 00-1.563.644 2.208 2.208 0 00-.644 1.563c0 .586.23 1.148.645 1.563.414.414.976.644 1.562.644a2.21 2.21 0 001.563-.644 2.21 2.21 0 00.644-1.563zm9-9a2.21 2.21 0 00-.644-1.563 2.208 2.208 0 00-1.563-.644 2.21 2.21 0 00-1.563.644 2.208 2.208 0 00-.644 1.563c0 .586.23 1.148.644 1.563.415.414.977.644 1.563.644s1.148-.23 1.563-.644a2.21 2.21 0 00.644-1.563zm8-6a2.21 2.21 0 00-.644-1.563 2.208 2.208 0 00-1.563-.644 2.21 2.21 0 00-1.563.644 2.208 2.208 0 00-.644 1.563c0 .586.23 1.148.644 1.563.415.414.977.644 1.563.644s1.148-.23 1.563-.644a2.21 2.21 0 00.644-1.563zm9-8a2.21 2.21 0 00-.644-1.563 2.208 2.208 0 00-1.563-.644 2.21 2.21 0 00-1.563.644 2.208 2.208 0 00-.644 1.563c0 .586.23 1.148.644 1.563.415.414.977.644 1.563.644s1.148-.23 1.563-.644a2.21 2.21 0 00.644-1.563zm8-4a2.21 2.21 0 00-.644-1.563 2.208 2.208 0 00-1.563-.644 2.21 2.21 0 00-1.563.644 2.208 2.208 0 00-.644 1.563c0 .586.23 1.148.644 1.563.415.414.977.644 1.563.644s1.148-.23 1.563-.644a2.21 2.21 0 00.644-1.563zm9-7a2.21 2.21 0 00-.644-1.563 2.208 2.208 0 00-1.563-.644 2.21 2.21 0 00-1.563.644 2.208 2.208 0 00-.644 1.563c0 .586.23 1.148.644 1.563.415.414.977.644 1.563.644s1.148-.23 1.563-.644a2.21 2.21 0 00.644-1.563zm8-8a2.21 2.21 0 00-.644-1.563 2.208 2.208 0 00-1.563-.644 2.21 2.21 0 00-1.563.644 2.208 2.208 0 00-.644 1.563c0 .586.23 1.148.644 1.563.415.414.977.644 1.563.644s1.148-.23 1.563-.644a2.21 2.21 0 00.644-1.563zm9-7a2.21 2.21 0 00-.644-1.563 2.208 2.208 0 00-1.563-.644 2.21 2.21 0 00-1.563.644 2.208 2.208 0 00-.644 1.563c0 .586.23 1.148.644 1.563.415.414.977.644 1.563.644s1.148-.23 1.563-.644a2.21 2.21 0 00.644-1.563zm9-6a2.21 2.21 0 00-.644-1.563 2.208 2.208 0 00-1.563-.644 2.21 2.21 0 00-1.563.644 2.208 2.208 0 00-.644 1.563c0 .586.23 1.148.644 1.563.415.414.977.644 1.563.644s1.148-.23 1.563-.644a2.21 2.21 0 00.644-1.563zm8-9a2.21 2.21 0 00-.644-1.563 2.208 2.208 0 00-1.563-.644 2.21 2.21 0 00-1.563.644 2.208 2.208 0 00-.644 1.563c0 .586.23 1.148.644 1.563.415.414.977.644 1.563.644s1.148-.23 1.563-.644a2.21 2.21 0 00.644-1.563zm9-5a2.21 2.21 0 00-.644-1.563 2.208 2.208 0 00-1.563-.644c-.586 0-1.148.23-1.563.645a2.208 2.208 0 00-.644 1.562c0 .586.23 1.148.644 1.563.415.414.977.644 1.563.644s1.148-.23 1.563-.644a2.21 2.21 0 00.644-1.563zm8-5a2.21 2.21 0 00-.644-1.563 2.208 2.208 0 00-1.563-.644c-.586 0-1.148.23-1.563.645a2.208 2.208 0 00-.644 1.562c0 .586.23 1.148.644 1.563.415.414.977.644 1.563.644s1.148-.23 1.563-.645c.414-.414.644-.976.644-1.562zm9-4a2.21 2.21 0 00-.644-1.563 2.208 2.208 0 00-1.563-.644c-.586 0-1.148.23-1.563.645a2.208 2.208 0 00-.644 1.562c0 .586.23 1.148.644 1.563.415.414.977.644 1.563.644s1.148-.23 1.563-.645c.414-.414.644-.976.644-1.562zm8-3a2.21 2.21 0 00-.644-1.563 2.208 2.208 0 00-1.563-.644c-.586 0-1.148.23-1.563.645a2.208 2.208 0 00-.644 1.562c0 .586.23 1.148.644 1.563.415.414.977.644 1.563.644s1.148-.23 1.563-.645c.414-.414.644-.976.644-1.562zm9-4a2.21 2.21 0 00-.644-1.563 2.208 2.208 0 00-1.563-.644c-.586 0-1.148.23-1.563.645a2.208 2.208 0 00-.644 1.562c0 .586.23 1.148.644 1.563.415.414.977.644 1.563.644s1.148-.23 1.563-.645c.414-.414.644-.976.644-1.562zm8-3a2.21 2.21 0 00-.644-1.563 2.208 2.208 0 00-1.563-.644c-.586 0-1.148.23-1.563.645a2.208 2.208 0 00-.644 1.562c0 .586.23 1.148.644 1.563.415.414.977.644 1.563.644s1.148-.23 1.563-.645c.414-.414.644-.976.644-1.562zm9-3a2.21 2.21 0 00-.644-1.563 2.208 2.208 0 00-1.563-.644c-.586 0-1.148.23-1.563.645a2.208 2.208 0 00-.644 1.562c0 .586.23 1.148.644 1.563.415.414.977.644 1.563.644s1.148-.23 1.563-.645c.414-.414.644-.976.644-1.562zm8-3a2.21 2.21 0 00-.644-1.563 2.208 2.208 0 00-1.563-.644c-.586 0-1.148.23-1.563.645a2.208 2.208 0 00-.644 1.562c0 .586.23 1.148.644 1.563.415.414.977.644 1.563.644s1.148-.23 1.563-.645c.414-.414.644-.976.644-1.562zm9-3a2.21 2.21 0 00-.644-1.563 2.208 2.208 0 00-1.563-.644c-.586 0-1.148.23-1.563.645a2.208 2.208 0 00-.644 1.562c0 .586.23 1.148.644 1.563.415.414.977.644 1.563.644s1.148-.23 1.563-.645c.414-.414.644-.976.644-1.562zm9-2a2.21 2.21 0 00-.644-1.563 2.208 2.208 0 00-1.563-.644c-.586 0-1.148.23-1.563.645a2.208 2.208 0 00-.644 1.562c0 .586.23 1.148.644 1.563.415.414.977.644 1.563.644s1.148-.23 1.563-.645c.414-.414.644-.976.644-1.562zm8-2a2.21 2.21 0 00-.644-1.563 2.208 2.208 0 00-1.563-.644c-.586 0-1.148.23-1.563.645a2.208 2.208 0 00-.644 1.562c0 .586.23 1.148.644 1.563.415.414.977.644 1.563.644s1.148-.23 1.563-.645c.414-.414.644-.976.644-1.562zm9-1a2.21 2.21 0 00-.644-1.563 2.208 2.208 0 00-1.563-.644c-.586 0-1.148.23-1.563.645a2.208 2.208 0 00-.644 1.562c0 .586.23 1.148.644 1.563.415.414.977.644 1.563.644s1.148-.23 1.563-.645c.414-.414.644-.976.644-1.562zm8-1a2.21 2.21 0 00-.644-1.563 2.208 2.208 0 00-1.563-.644c-.586 0-1.148.23-1.563.645a2.208 2.208 0 00-.644 1.562c0 .586.23 1.148.644 1.563.415.414.977.644 1.563.644s1.148-.23 1.563-.645c.414-.414.644-.976.644-1.562zm9-1a2.21 2.21 0 00-.644-1.563 2.208 2.208 0 00-1.563-.644c-.586 0-1.148.23-1.563.645a2.208 2.208 0 00-.644 1.562c0 .586.23 1.148.644 1.563.415.414.977.644 1.563.644s1.148-.23 1.563-.645c.414-.414.644-.976.644-1.562zm8-1a2.21 2.21 0 00-.644-1.563 2.208 2.208 0 00-1.563-.644c-.586 0-1.148.23-1.563.645a2.208 2.208 0 00-.644 1.562c0 .586.23 1.148.644 1.563.415.414.977.644 1.563.644s1.148-.23 1.563-.645c.414-.414.644-.976.644-1.562zm9-5a2.21 2.21 0 00-.644-1.563 2.208 2.208 0 00-1.563-.644c-.586 0-1.148.23-1.563.645a2.208 2.208 0 00-.644 1.562c0 .586.23 1.148.644 1.563.415.414.977.644 1.563.644s1.148-.23 1.563-.645c.414-.414.644-.976.644-1.562zm8-2a2.21 2.21 0 00-.644-1.563 2.208 2.208 0 00-1.563-.644c-.586 0-1.148.23-1.563.645a2.208 2.208 0 00-.644 1.562c0 .586.23 1.148.644 1.563.415.414.977.644 1.563.644s1.148-.23 1.563-.645c.414-.414.644-.976.644-1.562zm9 0a2.21 2.21 0 00-.644-1.563 2.208 2.208 0 00-1.563-.644c-.586 0-1.148.23-1.563.645a2.208 2.208 0 00-.644 1.562c0 .586.23 1.148.644 1.563.415.414.977.644 1.563.644s1.148-.23 1.563-.645c.414-.414.644-.976.644-1.562zm8-1a2.21 2.21 0 00-.644-1.563 2.208 2.208 0 00-1.563-.644c-.586 0-1.148.23-1.563.645a2.208 2.208 0 00-.644 1.562c0 .586.23 1.148.644 1.563.415.414.977.644 1.563.644s1.148-.23 1.563-.645c.414-.414.644-.976.644-1.562zm9 0a2.21 2.21 0 00-.644-1.563 2.208 2.208 0 00-1.563-.644c-.586 0-1.148.23-1.563.645a2.208 2.208 0 00-.644 1.562c0 .586.23 1.148.644 1.563.415.414.977.644 1.563.644s1.148-.23 1.563-.645c.414-.414.644-.976.644-1.562zm9-1a2.21 2.21 0 00-.644-1.563 2.208 2.208 0 00-1.563-.644c-.586 0-1.148.23-1.563.645a2.208 2.208 0 00-.644 1.562c0 .586.23 1.148.644 1.563.415.414.977.644 1.563.644s1.148-.23 1.563-.645c.414-.414.644-.976.644-1.562zm8 0a2.21 2.21 0 00-.644-1.563 2.208 2.208 0 00-1.563-.644c-.586 0-1.148.23-1.563.645a2.208 2.208 0 00-.644 1.562c0 .586.23 1.148.644 1.563.415.414.977.644 1.563.644s1.148-.23 1.563-.645c.414-.414.644-.976.644-1.562zm9 0a2.21 2.21 0 00-.644-1.563 2.208 2.208 0 00-1.563-.644c-.586 0-1.148.23-1.563.645a2.208 2.208 0 00-.644 1.562c0 .586.23 1.148.644 1.563.415.414.977.644 1.563.644s1.148-.23 1.563-.645c.414-.414.644-.976.644-1.562zm8-1a2.21 2.21 0 00-.644-1.563 2.208 2.208 0 00-1.563-.644c-.586 0-1.148.23-1.563.645a2.208 2.208 0 00-.644 1.562c0 .586.23 1.148.644 1.563.415.414.977.644 1.563.644s1.148-.23 1.563-.645c.414-.414.644-.976.644-1.562zm9 0a2.21 2.21 0 00-.644-1.563 2.208 2.208 0 00-1.563-.644c-.586 0-1.148.23-1.563.645a2.208 2.208 0 00-.644 1.562c0 .586.23 1.148.644 1.563.415.414.977.644 1.563.644s1.148-.23 1.563-.645c.414-.414.644-.976.644-1.562zm8 0a2.21 2.21 0 00-.644-1.563 2.208 2.208 0 00-1.563-.644c-.586 0-1.148.23-1.563.645a2.208 2.208 0 00-.644 1.562c0 .586.23 1.148.644 1.563.415.414.977.644 1.563.644s1.148-.23 1.563-.645c.414-.414.644-.976.644-1.562zm9 0a2.21 2.21 0 00-.644-1.563 2.208 2.208 0 00-1.563-.644c-.586 0-1.148.23-1.563.645a2.208 2.208 0 00-.644 1.562c0 .586.23 1.148.644 1.563.415.414.977.644 1.563.644s1.148-.23 1.563-.645c.414-.414.644-.976.644-1.562zm0 0" fill-rule="evenodd" fill="#a60000"/><path d="M70.207 221a2.21 2.21 0 00-.644-1.563 2.208 2.208 0 00-1.563-.644 2.21 2.21 0 00-1.563.644 2.208 2.208 0 00-.644 1.563c0 .586.23 1.148.644 1.563.415.414.977.644 1.563.644s1.148-.23 1.563-.644a2.21 2.21 0 00.644-1.563zm8-54a2.21 2.21 0 00-.644-1.563 2.208 2.208 0 00-1.563-.644 2.21 2.21 0 00-1.563.644 2.208 2.208 0 00-.644 1.563c0 .586.23 1.148.644 1.563.415.414.977.644 1.563.644s1.148-.23 1.563-.644a2.21 2.21 0 00.644-1.563zm9-21a2.21 2.21 0 00-.644-1.563 2.208 2.208 0 00-1.563-.644 2.21 2.21 0 00-1.563.644 2.208 2.208 0 00-.644 1.563c0 .586.23 1.148.644 1.563.415.414.977.644 1.563.644s1.148-.23 1.563-.644a2.21 2.21 0 00.644-1.563zm8-13a2.21 2.21 0 00-.644-1.563 2.208 2.208 0 00-1.563-.644 2.21 2.21 0 00-1.563.644 2.208 2.208 0 00-.644 1.563c0 .586.23 1.148.644 1.563.415.414.977.644 1.563.644s1.148-.23 1.563-.644a2.21 2.21 0 00.644-1.563zm9-15a2.21 2.21 0 00-.644-1.563 2.208 2.208 0 00-1.563-.644 2.21 2.21 0 00-1.563.644 2.208 2.208 0 00-.644 1.563c0 .586.23 1.148.644 1.563.415.414.977.644 1.563.644s1.148-.23 1.563-.644a2.21 2.21 0 00.644-1.563zm8-11a2.21 2.21 0 00-.644-1.563 2.208 2.208 0 00-1.563-.644 2.21 2.21 0 00-1.563.644 2.208 2.208 0 00-.644 1.563c0 .586.23 1.148.644 1.563.415.414.977.644 1.563.644s1.148-.23 1.563-.644a2.21 2.21 0 00.644-1.563zm9-8a2.21 2.21 0 00-.644-1.563 2.208 2.208 0 00-1.563-.644 2.21 2.21 0 00-1.563.644 2.208 2.208 0 00-.644 1.563c0 .586.23 1.148.644 1.563.415.414.977.644 1.563.644s1.148-.23 1.563-.644a2.21 2.21 0 00.644-1.563zm9-7a2.21 2.21 0 00-.644-1.563 2.208 2.208 0 00-1.563-.644 2.21 2.21 0 00-1.563.644 2.208 2.208 0 00-.644 1.563c0 .586.23 1.148.644 1.563.415.414.977.644 1.563.644s1.148-.23 1.563-.644a2.21 2.21 0 00.644-1.563zm8-5a2.21 2.21 0 00-.644-1.563 2.208 2.208 0 00-1.563-.644 2.21 2.21 0 00-1.563.644 2.208 2.208 0 00-.644 1.563c0 .586.23 1.148.644 1.563.415.414.977.644 1.563.644s1.148-.23 1.563-.644a2.21 2.21 0 00.644-1.563zm9-5a2.21 2.21 0 00-.644-1.563 2.208 2.208 0 00-1.563-.644 2.21 2.21 0 00-1.563.644 2.208 2.208 0 00-.644 1.563c0 .586.23 1.148.644 1.563.415.414.977.644 1.563.644s1.148-.23 1.563-.644a2.21 2.21 0 00.644-1.563zm8-5a2.21 2.21 0 00-.644-1.563 2.208 2.208 0 00-1.563-.644 2.21 2.21 0 00-1.563.644 2.208 2.208 0 00-.644 1.563c0 .586.23 1.148.644 1.563.415.414.977.644 1.563.644s1.148-.23 1.563-.644a2.21 2.21 0 00.644-1.563zm9-4a2.21 2.21 0 00-.644-1.563 2.208 2.208 0 00-1.563-.644 2.21 2.21 0 00-1.563.644 2.208 2.208 0 00-.644 1.563c0 .586.23 1.148.644 1.563.415.414.977.644 1.563.644s1.148-.23 1.563-.644a2.21 2.21 0 00.644-1.563zm8-3a2.21 2.21 0 00-.644-1.563 2.208 2.208 0 00-1.563-.644 2.21 2.21 0 00-1.563.644 2.208 2.208 0 00-.644 1.563c0 .586.23 1.148.644 1.563.415.414.977.644 1.563.644s1.148-.23 1.563-.644a2.21 2.21 0 00.644-1.563zm9-2a2.21 2.21 0 00-.644-1.563 2.208 2.208 0 00-1.563-.644 2.21 2.21 0 00-1.563.644 2.208 2.208 0 00-.644 1.563c0 .586.23 1.148.644 1.563.415.414.977.644 1.563.644s1.148-.23 1.563-.644a2.21 2.21 0 00.644-1.563zm8-2a2.21 2.21 0 00-.644-1.563 2.208 2.208 0 00-1.563-.644c-.586 0-1.148.23-1.563.645a2.208 2.208 0 00-.644 1.562c0 .586.23 1.148.644 1.563.415.414.977.644 1.563.644s1.148-.23 1.563-.644a2.21 2.21 0 00.644-1.563zm9-3a2.21 2.21 0 00-.644-1.563 2.208 2.208 0 00-1.563-.644c-.586 0-1.148.23-1.563.645a2.208 2.208 0 00-.644 1.562c0 .586.23 1.148.644 1.563.415.414.977.644 1.563.644s1.148-.23 1.563-.644a2.21 2.21 0 00.644-1.563zm8-2a2.21 2.21 0 00-.644-1.563 2.208 2.208 0 00-1.563-.644c-.586 0-1.148.23-1.563.645a2.208 2.208 0 00-.644 1.562c0 .586.23 1.148.644 1.563.415.414.977.644 1.563.644s1.148-.23 1.563-.645c.414-.414.644-.976.644-1.562zm9-1a2.21 2.21 0 00-.644-1.563 2.208 2.208 0 00-1.563-.644c-.586 0-1.148.23-1.563.645a2.208 2.208 0 00-.644 1.562c0 .586.23 1.148.644 1.563.415.414.977.644 1.563.644s1.148-.23 1.563-.645c.414-.414.644-.976.644-1.562zm9-2a2.21 2.21 0 00-.644-1.563 2.208 2.208 0 00-1.563-.644c-.586 0-1.148.23-1.563.645a2.208 2.208 0 00-.644 1.562c0 .586.23 1.148.644 1.563.415.414.977.644 1.563.644s1.148-.23 1.563-.645c.414-.414.644-.976.644-1.562zm8-1a2.21 2.21 0 00-.644-1.563 2.208 2.208 0 00-1.563-.644c-.586 0-1.148.23-1.563.645a2.208 2.208 0 00-.644 1.562c0 .586.23 1.148.644 1.563.415.414.977.644 1.563.644s1.148-.23 1.563-.645c.414-.414.644-.976.644-1.562zm9-1a2.21 2.21 0 00-.644-1.563 2.208 2.208 0 00-1.563-.644c-.586 0-1.148.23-1.563.645a2.208 2.208 0 00-.644 1.562c0 .586.23 1.148.644 1.563.415.414.977.644 1.563.644s1.148-.23 1.563-.645c.414-.414.644-.976.644-1.562zm8 0a2.21 2.21 0 00-.644-1.563 2.208 2.208 0 00-1.563-.644c-.586 0-1.148.23-1.563.645a2.208 2.208 0 00-.644 1.562c0 .586.23 1.148.644 1.563.415.414.977.644 1.563.644s1.148-.23 1.563-.645c.414-.414.644-.976.644-1.562zm9-1a2.21 2.21 0 00-.644-1.563 2.208 2.208 0 00-1.563-.644c-.586 0-1.148.23-1.563.645a2.208 2.208 0 00-.644 1.562c0 .586.23 1.148.644 1.563.415.414.977.644 1.563.644s1.148-.23 1.563-.645c.414-.414.644-.976.644-1.562zm8-1a2.21 2.21 0 00-.644-1.563 2.208 2.208 0 00-1.563-.644c-.586 0-1.148.23-1.563.645a2.208 2.208 0 00-.644 1.562c0 .586.23 1.148.644 1.563.415.414.977.644 1.563.644s1.148-.23 1.563-.645c.414-.414.644-.976.644-1.562zm9 0a2.21 2.21 0 00-.644-1.563 2.208 2.208 0 00-1.563-.644c-.586 0-1.148.23-1.563.645a2.208 2.208 0 00-.644 1.562c0 .586.23 1.148.644 1.563.415.414.977.644 1.563.644s1.148-.23 1.563-.645c.414-.414.644-.976.644-1.562zm8-1a2.21 2.21 0 00-.644-1.563 2.208 2.208 0 00-1.563-.644c-.586 0-1.148.23-1.563.645a2.208 2.208 0 00-.644 1.562c0 .586.23 1.148.644 1.563.415.414.977.644 1.563.644s1.148-.23 1.563-.645c.414-.414.644-.976.644-1.562zm9 0a2.21 2.21 0 00-.644-1.563 2.208 2.208 0 00-1.563-.644c-.586 0-1.148.23-1.563.645a2.208 2.208 0 00-.644 1.562c0 .586.23 1.148.644 1.563.415.414.977.644 1.563.644s1.148-.23 1.563-.645c.414-.414.644-.976.644-1.562zm8 0a2.21 2.21 0 00-.644-1.563 2.208 2.208 0 00-1.563-.644c-.586 0-1.148.23-1.563.645a2.208 2.208 0 00-.644 1.562c0 .586.23 1.148.644 1.563.415.414.977.644 1.563.644s1.148-.23 1.563-.645c.414-.414.644-.976.644-1.562zm9 0a2.21 2.21 0 00-.644-1.563 2.208 2.208 0 00-1.563-.644c-.586 0-1.148.23-1.563.645a2.208 2.208 0 00-.644 1.562c0 .586.23 1.148.644 1.563.415.414.977.644 1.563.644s1.148-.23 1.563-.645c.414-.414.644-.976.644-1.562zm9 0a2.21 2.21 0 00-.644-1.563 2.208 2.208 0 00-1.563-.644c-.586 0-1.148.23-1.563.645a2.208 2.208 0 00-.644 1.562c0 .586.23 1.148.644 1.563.415.414.977.644 1.563.644s1.148-.23 1.563-.645c.414-.414.644-.976.644-1.562zm8 0a2.21 2.21 0 00-.644-1.563 2.208 2.208 0 00-1.563-.644c-.586 0-1.148.23-1.563.645a2.208 2.208 0 00-.644 1.562c0 .586.23 1.148.644 1.563.415.414.977.644 1.563.644s1.148-.23 1.563-.645c.414-.414.644-.976.644-1.562zm9-1a2.21 2.21 0 00-.644-1.563 2.208 2.208 0 00-1.563-.644c-.586 0-1.148.23-1.563.645a2.208 2.208 0 00-.644 1.562c0 .586.23 1.148.644 1.563.415.414.977.644 1.563.644s1.148-.23 1.563-.645c.414-.414.644-.976.644-1.562zm8 0a2.21 2.21 0 00-.644-1.563 2.208 2.208 0 00-1.563-.644c-.586 0-1.148.23-1.563.645a2.208 2.208 0 00-.644 1.562c0 .586.23 1.148.644 1.563.415.414.977.644 1.563.644s1.148-.23 1.563-.645c.414-.414.644-.976.644-1.562zm9 0a2.21 2.21 0 00-.644-1.563 2.208 2.208 0 00-1.563-.644c-.586 0-1.148.23-1.563.645a2.208 2.208 0 00-.644 1.562c0 .586.23 1.148.644 1.563.415.414.977.644 1.563.644s1.148-.23 1.563-.645c.414-.414.644-.976.644-1.562zm8 0a2.21 2.21 0 00-.644-1.563 2.208 2.208 0 00-1.563-.644c-.586 0-1.148.23-1.563.645a2.208 2.208 0 00-.644 1.562c0 .586.23 1.148.644 1.563.415.414.977.644 1.563.644s1.148-.23 1.563-.645c.414-.414.644-.976.644-1.562zm9 0a2.21 2.21 0 00-.644-1.563 2.208 2.208 0 00-1.563-.644c-.586 0-1.148.23-1.563.645a2.208 2.208 0 00-.644 1.562c0 .586.23 1.148.644 1.563.415.414.977.644 1.563.644s1.148-.23 1.563-.645c.414-.414.644-.976.644-1.562zm0 0" fill-rule="evenodd" fill="#0d86a0"/><path d="M272.281 29.777h.008l.02.004h.03l.06.004.081.004.114.004.156.008.195.008.246.007.301.016.36.016.425.015.5.024.57.023.657.031.742.032.836.035.934.039 1.035.047 1.144.05 1.262.055 1.379.059 1.508.066 1.636.07 1.77.075 1.914.086 2.063.09 2.214.093 2.372.102 2.535.113 2.707.117 2.867.121 3.027.133 3.172.137 3.305.144 3.43.149 3.539.152 3.644.157 3.73.164 3.817.164 3.883.168 3.945.168 3.988.175 4.032.172 4.054.176 4.07.176 4.079.176 4.07.175 4.055.172 4.027.176 3.988.172 3.942.168 3.883.168 3.812.16 3.73.16 3.641.156 3.535.153 3.426.144 3.3.14 3.169.134 3.02.129 2.867.12 2.699.114 2.543.105 2.383.102 2.234.09 2.086.086 1.95.082 1.815.074 1.684.066 1.563.063 1.441.059 1.332.05 1.223.047 1.117.043 1.023.04.934.034.844.028.765.027.692.023.62.02.555.02.497.011.441.012.39.012.352.008.313.003.28.004.255.004.23.004h5.301" fill="none" stroke-width="4" stroke-linejoin="round" stroke="#fff" stroke-opacity=".667" stroke-miterlimit="3.25"/><path d="M272.281 29.777h.008l.02.004h.03l.06.004.081.004.114.004.156.008.195.008.246.007.301.016.36.016.425.015.5.024.57.023.657.031.742.032.836.035.934.039 1.035.047 1.144.05 1.262.055 1.379.059 1.508.066 1.636.07 1.77.075 1.914.086 2.063.09 2.214.093 2.372.102 2.535.113 2.707.117 2.867.121 3.027.133 3.172.137 3.305.144 3.43.149 3.539.152 3.644.157 3.73.164 3.817.164 3.883.168 3.945.168 3.988.175 4.032.172 4.054.176 4.07.176 4.079.176 4.07.175 4.055.172 4.027.176 3.988.172 3.942.168 3.883.168 3.812.16 3.73.16 3.641.156 3.535.153 3.426.144 3.3.14 3.169.134 3.02.129 2.867.12 2.699.114 2.543.105 2.383.102 2.234.09 2.086.086 1.95.082 1.815.074 1.684.066 1.563.063 1.441.059 1.332.05 1.223.047 1.117.043 1.023.04.934.034.844.028.765.027.692.023.62.02.555.02.497.011.441.012.39.012.352.008.313.003.28.004.255.004.23.004h5.301" fill="none" stroke-width="1.25" stroke-linecap="square" stroke="#aaa" stroke-miterlimit="3.25"/><path d="M490.664 29.16v16h-38v-16zm0 0" fill="#fff" fill-opacity=".667"/><use xlink:href="#a" x="455.164" y="39.66"/><use xlink:href="#b" x="465.164" y="39.66"/><use xlink:href="#c" x="477.164" y="39.66"/><use xlink:href="#d" x="481.164" y="39.66"/><use xlink:href="#e" x="484.164" y="39.66"/><path d="M374.82 19.992h.024l.043-.008.074-.007.11-.012.156-.016.214-.027.274-.031.351-.04.426-.046.516-.059.613-.07.719-.082.828-.098.953-.105 1.082-.125 1.219-.141 1.363-.156 1.52-.172 1.683-.192 1.84-.21 1.985-.227 2.109-.238 2.223-.254 2.316-.266 2.394-.27 2.457-.28 2.508-.282 2.54-.289 2.55-.285 2.55-.29 2.54-.284 2.504-.278 2.453-.273 2.39-.266 2.313-.254 2.215-.246 2.102-.226 1.976-.215 1.832-.195 1.68-.176 1.535-.156 1.402-.145 1.27-.125 1.152-.11 1.043-.097.938-.086.84-.07.75-.063.671-.047.602-.043.535-.03.48-.028.43-.02.39-.011.36-.012.332-.004.32-.004h5.15" fill="none" stroke-width="4" stroke-linejoin="round" stroke="#fff" stroke-opacity=".667" stroke-miterlimit="3.25"/><path d="M374.82 19.992h.024l.043-.008.074-.007.11-.012.156-.016.214-.027.274-.031.351-.04.426-.046.516-.059.613-.07.719-.082.828-.098.953-.105 1.082-.125 1.219-.141 1.363-.156 1.52-.172 1.683-.192 1.84-.21 1.985-.227 2.109-.238 2.223-.254 2.316-.266 2.394-.27 2.457-.28 2.508-.282 2.54-.289 2.55-.285 2.55-.29 2.54-.284 2.504-.278 2.453-.273 2.39-.266 2.313-.254 2.215-.246 2.102-.226 1.976-.215 1.832-.195 1.68-.176 1.535-.156 1.402-.145 1.27-.125 1.152-.11 1.043-.097.938-.086.84-.07.75-.063.671-.047.602-.043.535-.03.48-.028.43-.02.39-.011.36-.012.332-.004.32-.004h5.15" fill="none" stroke-width="1.25" stroke-linecap="square" stroke="#aaa" stroke-miterlimit="3.25"/><path d="M492.664 4.25v16h-40v-16zm0 0" fill="#fff" fill-opacity=".667"/><use xlink:href="#a" x="455.164" y="14.751"/><use xlink:href="#b" x="465.164" y="14.751"/><use xlink:href="#c" x="477.164" y="14.751"/><use xlink:href="#d" x="481.164" y="14.751"/><use xlink:href="#d" x="483.884" y="14.751"/><use xlink:href="#e" x="486.164" y="14.751"/><path d="M374.82 51.992h.004l.02.004.043.004.074.012.11.015.156.02.214.031.274.04.351.046.426.059.516.07.613.086.719.098.828.117.953.129 1.082.152 1.219.168 1.363.187 1.52.211 1.683.23 1.84.255 1.985.277 2.109.29 2.223.304 2.316.32 2.394.328 2.457.34 2.508.344 2.54.348 5.1.695 2.54.344 2.504.34 2.453.328 2.39.324 2.313.308 2.215.293 2.102.278 1.976.258 1.832.234 1.68.215 1.535.191 1.402.172 1.27.152 1.152.133 1.043.117.938.102.84.09.75.074.671.059.602.05.535.04.48.03.43.024.39.016.36.011.332.004.32.004h.31l.308.004h4.531" fill="none" stroke-width="4" stroke-linejoin="round" stroke="#fff" stroke-opacity=".667" stroke-miterlimit="3.25"/><path d="M374.82 51.992h.004l.02.004.043.004.074.012.11.015.156.02.214.031.274.04.351.046.426.059.516.07.613.086.719.098.828.117.953.129 1.082.152 1.219.168 1.363.187 1.52.211 1.683.23 1.84.255 1.985.277 2.109.29 2.223.304 2.316.32 2.394.328 2.457.34 2.508.344 2.54.348 5.1.695 2.54.344 2.504.34 2.453.328 2.39.324 2.313.308 2.215.293 2.102.278 1.976.258 1.832.234 1.68.215 1.535.191 1.402.172 1.27.152 1.152.133 1.043.117.938.102.84.09.75.074.671.059.602.05.535.04.48.03.43.024.39.016.36.011.332.004.32.004h.31l.308.004h4.531" fill="none" stroke-width="1.25" stroke-linecap="square" stroke="#aaa" stroke-miterlimit="3.25"/><path d="M497.664 53.867v15h-45v-15zm0 0" fill="#fff" fill-opacity=".667"/><use xlink:href="#f" x="455.164" y="63.865"/><use xlink:href="#g" x="465.164" y="63.865"/><use xlink:href="#h" x="475.164" y="63.865"/><use xlink:href="#i" x="485.164" y="63.865"/><path d="M264.25 29.777l8.547-4.886" fill="none" stroke-width="1.6" stroke-linecap="square" stroke="#a60000" stroke-opacity=".3" stroke-dasharray="4,4" stroke-miterlimit="3.25"/><path d="M63.152 282.05l.016-39.343.078-30.277.078-10.676.078-6.649.078-4.84.079-3.816.078-3.144.078-2.68.078-2.336.082-2.07.078-1.86.078-1.687.078-1.543.075-1.332.07-1.246.148-2.258.07-1.035.075-.98.148-1.817.07-.848.075-.808.148-1.524.29-2.719.074-.62.074-.606.144-1.152.293-2.118.075-.496.074-.484.144-.93.293-1.738.074-.414.075-.402.144-.782.293-1.48.586-2.668.074-.313.07-.304.15-.598.292-1.148.586-2.118.078-.273.078-.27.16-.523.317-1.016.636-1.902.079-.227.078-.222.16-.442.316-.855.633-1.625.082-.195.078-.192.16-.383.317-.746.633-1.422 1.27-2.613.148-.289.148-.285.297-.559.594-1.082 1.183-2.039 2.371-3.668.07-.101.075-.106.144-.21.293-.41.579-.806 1.164-1.55 2.324-2.887.156-.188.156-.183.317-.367.629-.727 1.261-1.402 2.52-2.653 4.707-4.507 5.098-4.41 5.007-3.973 4.668-3.473 5.063-3.555 4.726-3.168 5.125-3.285 5.028-3.101 4.691-2.797 5.086-2.938 4.746-2.656 4.656-2.527 5.051-2.66 4.715-2.403 5.106-2.52 5.015-2.378 4.676-2.14 5.074-2.223 4.735-1.985 4.64-1.855 5.04-1.907 4.698-1.68 5.094-1.706 4.758-1.485 4.664-1.359 5.059-1.355 4.718-1.164 5.118-1.149 5.023-1.02 4.688-.859 5.078-.836 4.746-.699 4.648-.61 5.047-.59 4.707-.484 1.313-.125 1.316-.12.164-.016.164-.012.328-.031.656-.059.083-.008.082-.004.164-.015.328-.028.164-.015.164-.012.328-.031m8.547-5.067l.043-.003.047-.008.086-.016.18-.027.355-.055.715-.11 1.425-.206 3.09-.418 2.887-.352 2.828-.316 3.07-.313 2.864-.262 3.105-.261 3.047-.235 2.844-.199 3.082-.195 2.879-.172 2.82-.152 3.063-.149 2.855-.133 3.098-.128 3.039-.114 2.836-.101 3.074-.098 2.867-.086 3.11-.086 3.054-.078 2.848-.066 3.09-.067 2.882-.055 2.825-.05 3.066-.055 2.863-.043 3.102-.043 3.043-.043 2.84-.035 3.082-.031 2.87-.032 2.821-.027 3.059-.027 2.851-.024 3.094-.023 2.887-.02 2.832-.02 3.074-.019 2.863-.015 3.11-.016 3.047-.016 2.847-.011 3.082-.012 2.883-.012 2.82-.008 3.067-.011 2.855-.008h.801l.797-.004h.398l.399-.004h.797" fill="none" stroke-width="1.6" stroke-linecap="square" stroke="#a60000" stroke-opacity=".3" stroke-miterlimit="3.25"/><path d="M83.766 260.805l.07-47.336.129-17.688.129-8.73.129-5.852.129-4.41.128-3.543.13-2.965.128-2.547.13-2.238.128-1.992.129-1.797.129-1.637.129-1.507.129-1.391.129-1.293.129-1.211.128-1.137.258-2.086.13-.965.128-.914.258-1.71.516-3.02.128-.688.13-.664.257-1.261.516-2.305.129-.535.129-.524.257-1.004.516-1.87.121-.415.121-.402.238-.785.48-1.488.962-2.688.121-.312.121-.31.238-.605.48-1.156.966-2.148.117-.258.12-.25.243-.496.48-.957.962-1.8 1.921-3.231.133-.207.13-.2.26-.402.52-.777 1.043-1.489 2.086-2.738.13-.164.132-.16.262-.32.52-.625 1.042-1.211 2.086-2.274.121-.125.121-.129.243-.25.488-.496.972-.969 1.95-1.843 3.89-3.387.121-.098.118-.097.242-.196.476-.386.953-.758 1.91-1.469 3.817-2.762 8.281-5.351 7.73-4.387 8.38-4.25 8.222-3.746 7.672-3.164 8.32-3.098 7.762-2.601 8.414-2.52 8.262-2.18 7.707-1.792 8.356-1.692 7.8-1.36 7.649-1.152 8.297-1.058.12-.016.122-.012.242-.027.484-.059.97-.109 1.933-.21 3.87-.4.134-.011.132-.016.262-.023 1.57-.152 2.102-.192 4.195-.36.258-.023.254-.02.516-.042 1.03-.078 2.06-.156 4.12-.293.118-.008.363-.024 1.441-.093 1.918-.122 3.844-.226.13-.008.132-.004.258-.015.523-.032 1.04-.054 2.085-.11 4.164-.199.121-.004.121-.008.247-.008.484-.023.973-.043 1.945-.082 3.89-.152.118-.004.12-.008.716-.023.953-.036 1.906-.066 3.812-.125.516-.016.52-.015 1.03-.032 2.071-.058 4.137-.11.242-.007.242-.004.48-.012 2.895-.07 3.864-.082.128-.004h.13l.261-.008.524-.008 1.046-.023 2.094-.04 4.184-.07.12-.004h.126l.242-.003 3.418-.055 3.91-.055.117-.004h.121l.239-.004.48-.004.957-.015 1.914-.024 3.832-.043h.13l.132-.003h.258l.52-.008 1.038-.012 6.235-.059h.242l.242-.003 1.453-.012 1.942-.016 3.875-.031h.265l.262-.004.524-.004 1.05-.004 2.102-.015 4.203-.024.129-.004h.387l.515-.004 1.031-.004 2.067-.011 4.125-.02h.121l.117-.004h.723l.965-.008 1.922-.007 3.851-.012.129-.004h.914l7.3-.027h.977l.973-.004 1.95-.004 3.894-.012h.48l.477-.004h.953l5.73-.011h.52l.516-.004h1.039l2.07-.004 4.144-.008h.965l.97-.004h1.933l3.867-.008h2.156l2.16-.004h1.078l1.082-.004h2.157" fill="none" stroke-width="1.6" stroke-linecap="square" stroke="#0d86a0" stroke-opacity=".3" stroke-miterlimit="3.25"/><path d="M426.602 241.46H25m0 0V.5m0 0h401.602m0 0v240.96" fill="none" stroke-width=".5" stroke-linecap="square" stroke="#666" stroke-miterlimit="3.25"/><path d="M33.543 241.46v-4" fill="none" stroke-width=".5" stroke="#666" stroke-miterlimit="3.25"/><g fill="#666"><use xlink:href="#j" x="19.045" y="253.46"/><use xlink:href="#k" x="24.562" y="253.46"/><use xlink:href="#l" x="30.002" y="253.46"/></g><g fill="#666"><use xlink:href="#m" x="37.045" y="253.46"/><use xlink:href="#n" x="42.66" y="253.46"/></g><path d="M93.36 241.46v-4" fill="none" stroke-width=".5" stroke="#666" stroke-miterlimit="3.25"/><g fill="#666"><use xlink:href="#j" x="78.857" y="253.46"/><use xlink:href="#k" x="84.375" y="253.46"/><use xlink:href="#l" x="89.814" y="253.46"/></g><g fill="#666"><use xlink:href="#o" x="96.857" y="253.46"/><use xlink:href="#p" x="102.473" y="253.46"/></g><path d="M153.172 241.46v-4" fill="none" stroke-width=".5" stroke="#666" stroke-miterlimit="3.25"/><g fill="#666"><use xlink:href="#j" x="138.67" y="253.46"/><use xlink:href="#k" x="144.188" y="253.46"/><use xlink:href="#l" x="149.627" y="253.46"/></g><g fill="#666"><use xlink:href="#p" x="156.67" y="253.46"/><use xlink:href="#q" x="162.285" y="253.46"/></g><path d="M212.984 241.46v-4" fill="none" stroke-width=".5" stroke="#666" stroke-miterlimit="3.25"/><g fill="#666"><use xlink:href="#r" x="198.483" y="253.46"/><use xlink:href="#s" x="204.01" y="253.46"/><use xlink:href="#t" x="209.308" y="253.46"/></g><g fill="#666"><use xlink:href="#q" x="216.483" y="253.46"/><use xlink:href="#n" x="222.098" y="253.46"/></g><path d="M272.797 241.46v-4" fill="none" stroke-width=".5" stroke="#666" stroke-miterlimit="3.25"/><g fill="#666"><use xlink:href="#r" x="258.296" y="253.46"/><use xlink:href="#s" x="263.823" y="253.46"/><use xlink:href="#t" x="269.121" y="253.46"/></g><g fill="#666"><use xlink:href="#m" x="276.296" y="253.46"/><use xlink:href="#p" x="281.911" y="253.46"/></g><path d="M332.61 241.46v-4" fill="none" stroke-width=".5" stroke="#666" stroke-miterlimit="3.25"/><g fill="#666"><use xlink:href="#r" x="318.109" y="253.46"/><use xlink:href="#s" x="323.636" y="253.46"/><use xlink:href="#t" x="328.934" y="253.46"/></g><g fill="#666"><use xlink:href="#o" x="336.109" y="253.46"/><use xlink:href="#q" x="341.724" y="253.46"/></g><path d="M392.422 241.46v-4" fill="none" stroke-width=".5" stroke="#666" stroke-miterlimit="3.25"/><g fill="#666"><use xlink:href="#r" x="377.921" y="253.46"/><use xlink:href="#s" x="383.449" y="253.46"/><use xlink:href="#t" x="388.746" y="253.46"/></g><g fill="#666"><use xlink:href="#o" x="395.921" y="253.46"/><use xlink:href="#u" x="401.537" y="253.46"/></g><path d="M25 220.918h4.016" fill="none" stroke-width=".1" stroke="#666" stroke-miterlimit="3.25"/><use xlink:href="#m" x="16" y="223.417" fill="#666"/><path d="M25 179.82h4.016" fill="none" stroke-width=".1" stroke="#666" stroke-miterlimit="3.25"/><g fill="#666"><use xlink:href="#m" x="11" y="182.322"/><use xlink:href="#q" x="16.615" y="182.322"/></g><path d="M25 138.727h4.016" fill="none" stroke-width=".1" stroke="#666" stroke-miterlimit="3.25"/><g fill="#666"><use xlink:href="#m" x="5" y="141.226"/><use xlink:href="#q" x="10.615" y="141.226"/><use xlink:href="#q" x="16.23" y="141.226"/></g><path d="M25 97.629h4.016" fill="none" stroke-width=".1" stroke="#666" stroke-miterlimit="3.25"/><g fill="#666"><use xlink:href="#m" y="100.13"/><use xlink:href="#q" x="5.615" y="100.13"/><use xlink:href="#q" x="11.23" y="100.13"/><use xlink:href="#q" x="16.846" y="100.13"/></g><path d="M25 56.535h4.016" fill="none" stroke-width=".1" stroke="#666" stroke-miterlimit="3.25"/><g fill="#666"><use xlink:href="#m" x="5" y="60.534"/><use xlink:href="#q" x="10.615" y="60.534"/></g><use xlink:href="#v" x="16" y="56.534" fill="#666"/><path d="M25 15.438h4.016" fill="none" stroke-width=".1" stroke="#666" stroke-miterlimit="3.25"/><g fill="#666"><use xlink:href="#m" x="5" y="19.438"/><use xlink:href="#q" x="10.615" y="19.438"/></g><use xlink:href="#w" x="16" y="15.438" fill="#666"/><path d="M25 237.27h2.398M25 233.29h2.398M25 230.035h2.398M25 227.285h2.398M25 224.898h2.398M25 222.797h2.398M25 208.547h2.398M25 201.309h2.398M25 196.176h2.398M25 192.191h2.398M25 188.938h2.398M25 186.188h2.398M25 183.805h2.398M25 181.703h2.398M25 167.45h2.398M25 160.215h2.398M25 155.078h2.398M25 151.098h2.398M25 147.844h2.398M25 145.09h2.398M25 142.707h2.398M25 140.605h2.398M25 126.355h2.398M25 119.117h2.398M25 113.984h2.398M25 110h2.398M25 106.746h2.398M25 103.996h2.398M25 101.613h2.398M25 99.512h2.398M25 85.258h2.398M25 78.023h2.398M25 72.887h2.398M25 68.906h2.398M25 65.652h2.398M25 62.898h2.398M25 60.516h2.398M25 58.414h2.398M25 44.164h2.398M25 36.926h2.398M25 31.793h2.398M25 27.809h2.398M25 24.555h2.398M25 21.805h2.398M25 19.422h2.398M25 17.32h2.398M25 3.066h2.398m399.204 217.852h-4.016m4.016-41.098h-4.016m4.016-41.093h-4.016m4.016-41.098h-4.016m4.016-41.094h-4.016m4.016-41.097h-4.016m4.016 221.832h-2.403m2.403-3.98h-2.403m2.403-3.255h-2.403m2.403-2.75h-2.403m2.403-2.387h-2.403m2.403-2.101h-2.403m2.403-14.25h-2.403m2.403-7.238h-2.403m2.403-5.133h-2.403m2.403-3.985h-2.403m2.403-3.253h-2.403m2.403-2.75h-2.403m2.403-2.383h-2.403m2.403-2.102h-2.403m2.403-14.253h-2.403m2.403-7.235h-2.403m2.403-5.137h-2.403m2.403-3.98h-2.403m2.403-3.254h-2.403m2.403-2.754h-2.403m2.403-2.383h-2.403m2.403-2.102h-2.403m2.403-14.25h-2.403m2.403-7.238h-2.403m2.403-5.133h-2.403m2.403-3.984h-2.403m2.403-3.254h-2.403m2.403-2.75h-2.403m2.403-2.383h-2.403m2.403-2.101h-2.403m2.403-14.254h-2.403m2.403-7.235h-2.403m2.403-5.136h-2.403m2.403-3.981h-2.403m2.403-3.254h-2.403m2.403-2.754h-2.403m2.403-2.382h-2.403m2.403-2.102h-2.403m2.403-14.25h-2.403m2.403-7.238h-2.403m2.403-5.133h-2.403m2.403-3.984h-2.403m2.403-3.254h-2.403m2.403-2.75h-2.403m2.403-2.383h-2.403m2.403-2.102h-2.403m2.403-14.254h-2.403" fill="none" stroke-width=".1" stroke="#666" stroke-miterlimit="3.25"/></svg>