<svg xmlns="http://www.w3.org/2000/svg" xmlns:xlink="http://www.w3.org/1999/xlink" width="500pt" height="251pt" viewBox="0 0 500 251"><defs><symbol overflow="visible" id="a"><path d="M4.738-8.14C3.578-6.88 2.121-5.82.36-4.97l.352.63C2.48-5.23 3.91-6.282 5-7.49c1.18 1.272 2.59 2.3 4.25 3.1l.36-.64a14.128 14.128 0 01-4.348-3.11zM2.211-4.98v.69h2.418v1.74H1.73v.69h2.9v1.848H.839V.7h8.333v-.71h-3.8v-1.85h2.89v-.692h-2.89V-4.29h2.417v-.691zm0 0"/></symbol><symbol overflow="visible" id="b"><path d="M2.52-6.121v.652h2.109v1.438h-1.79v.64h1.79v1.59H2.25v.66h5.512v-.66h-2.39v-1.59H7.16v-.64H5.371V-5.47H7.47v-.652zm6.59-1.59H.89V.98h.731V.55H8.38v.43h.73zM1.62-.129V-7.03h6.76v6.9zm4.93-3.05l-.57.19c.238.329.46.72.66 1.169l.558-.258A6.323 6.323 0 006.55-3.18zm0 0"/></symbol><symbol overflow="visible" id="c"><path d="M7.04-4.73h1.51v1.808H7.04zm1.51-.63H7.04v-1.78h1.51zM7.02-2.28h1.53v2.22c0 .278-.12.43-.35.43-.24 0-.49-.02-.759-.043l.168.64h.79C8.94.969 9.21.7 9.21.173V-7.8H6.379v5.082C6.359-1.422 6.07-.339 5.5.5l.52.46c.59-.839.921-1.92 1-3.241zm-5.9-5.67l-.492.46c.68.5 1.21.977 1.59 1.419l.5-.489A11.92 11.92 0 001.12-7.95zm-.2 2.34l-.491.46c.691.53 1.231 1.03 1.621 1.49l.5-.488c-.44-.48-.991-.973-1.628-1.461zm1.03 2.649A33.47 33.47 0 01.56.58l.652.28c.5-1.12.95-2.308 1.36-3.57zm3.762-.64H4.69V-5.5h1.297v-.648H4.691v-1.73H4v1.73H2.7v.648H4v1.898H2.95V.41h.66v-.59h2.1zM3.61-.801v-2.18h1.46V-.8zm0 0"/></symbol><symbol overflow="visible" id="d"><path d="M3.32-8.14v2.769H.672v.691H3.32v3.211c-.89.418-1.82.739-2.8.957L.69.2c.93-.258 1.809-.57 2.63-.949V.93h.738v-9.07zM8.22.84c.43 0 .73-.121.89-.36.16-.25.262-.96.32-2.128l-.679-.223c-.031 1.02-.09 1.61-.172 1.793C8.48.078 8.32.16 8.102.16h-1.25c-.25 0-.372-.148-.372-.43v-3.84c.93-.32 1.91-.788 2.95-1.421l-.418-.59c-.82.57-1.66 1.012-2.532 1.332v-3.352h-.73v7.98c0 .661.309 1 .941 1zm0 0"/></symbol><symbol overflow="visible" id="e"><path d="M3.77-7.078l-.598.367C4.05-5.68 4.738-4.75 5.25-3.91l.61-.417c-.481-.781-1.18-1.703-2.09-2.75zM7.21-2.18C7.97-1.129 8.579-.14 9.05.8l.552-.55a22.006 22.006 0 00-2.07-3.121c.058-.149.109-.3.16-.45.417-1.32.628-2.917.628-4.82h-.75c-.011 1.93-.218 3.52-.64 4.77-.551 1.48-1.68 2.7-3.38 3.68l.481.59C5.488.058 6.551-.97 7.211-2.18zM1.29-.14c1.17-.43 2.269-.938 3.288-1.532l-.2-.7c-.769.462-1.538.852-2.32 1.173v-6.68H1.32v6.508c0 .23-.09.41-.27.55zm0 0"/></symbol><symbol overflow="visible" id="f"><path d="M6.36-8.148V.988h.742v-5.316c.578.457 1.27 1.11 2.09 1.93l.437-.66c-.86-.77-1.7-1.462-2.527-2.07v-3.02zM2.32-4.18l-.379.559A7.882 7.882 0 013.52-2.56C2.82-1.48 1.84-.579.59.141l.488.609C3.68-.8 5.141-3.09 5.48-6.121v-.629H3.05c.141-.41.259-.84.36-1.29l-.719-.12c-.402 1.8-1.18 3.238-2.32 4.3l.488.61c.801-.738 1.45-1.672 1.93-2.809h1.98a9.025 9.025 0 01-.917 2.93 8.296 8.296 0 00-1.532-1.05zm0 0"/></symbol><symbol overflow="visible" id="g"><path d="M3.805-7.11h.941v5.036c0 .68-.203 1.21-.613 1.597-.406.383-.953.575-1.633.575-.707 0-1.258-.18-1.648-.543-.395-.36-.594-.867-.594-1.516h.937c0 .406.114.723.336.95.223.23.547.343.969.343.387 0 .7-.121.941-.367.239-.246.36-.586.364-1.028zm0 0"/></symbol><symbol overflow="visible" id="h"><path d="M3.945 0c-.05-.105-.093-.29-.125-.555-.422.434-.922.653-1.507.653-.52 0-.946-.149-1.282-.442a1.438 1.438 0 01-.5-1.12c0-.552.211-.977.63-1.282.417-.305 1.007-.457 1.765-.457h.879v-.414c0-.317-.094-.567-.285-.754-.188-.188-.465-.281-.833-.281-.324 0-.593.082-.812.242-.219.164-.328.36-.328.59H.64c0-.262.093-.516.28-.762.188-.246.442-.441.763-.582.32-.145.671-.219 1.054-.219.61 0 1.086.153 1.434.457.344.305.523.727.535 1.258v2.434c0 .484.063.87.184 1.156V0zm-1.5-.688c.285 0 .555-.074.805-.218a1.35 1.35 0 00.555-.574v-1.083h-.711c-1.106 0-1.656.325-1.656.97 0 .284.093.507.28.663.188.16.43.243.727.243zm0 0"/></symbol><symbol overflow="visible" id="i"><path d="M1.54-5.281l.026.664a1.93 1.93 0 011.582-.766c1.118 0 1.68.633 1.692 1.89V0h-.902v-3.496c-.004-.379-.094-.664-.262-.844-.172-.183-.438-.273-.801-.273-.293 0-.55.078-.77.234a1.59 1.59 0 00-.52.613V0h-.9v-5.281zm0 0"/></symbol><symbol overflow="visible" id="j"><path d="M3.559 0h-.907v-6.02l-1.824.668v-.82l2.59-.973h.14zm0 0"/></symbol><symbol overflow="visible" id="k"><path d="M4.137-7.113v.765h-.168c-.703.012-1.262.223-1.68.625-.414.403-.656.973-.723 1.703.375-.43.887-.644 1.536-.644.617 0 1.113.219 1.48.656.371.438.555 1 .555 1.688 0 .734-.2 1.32-.598 1.757-.398.442-.934.66-1.605.66-.68 0-1.23-.261-1.653-.784C.855-1.212.645-1.883.645-2.704v-.348c0-1.308.277-2.308.835-3 .56-.691 1.391-1.047 2.497-1.062zM2.949-3.91c-.308 0-.594.09-.855.277a1.446 1.446 0 00-.54.7v.331c0 .586.13 1.059.395 1.414.262.36.59.54.985.54.406 0 .726-.153.96-.45.231-.3.348-.691.348-1.175 0-.489-.117-.887-.351-1.188a1.14 1.14 0 00-.942-.45zm0 0"/></symbol><symbol overflow="visible" id="l"><path d="M5.25 0H.59v-.648l2.46-2.735c.364-.414.618-.75.755-1.008.14-.257.21-.527.21-.804 0-.371-.113-.676-.34-.914-.222-.239-.523-.356-.898-.356-.449 0-.797.13-1.047.383-.25.254-.37.613-.37 1.066H.452c0-.652.211-1.183.633-1.586.422-.402.984-.605 1.691-.605.66 0 1.184.172 1.567.52.386.347.578.808.578 1.382 0 .703-.445 1.535-1.336 2.5L1.68-.738h3.57zm0 0"/></symbol><symbol overflow="visible" id="m"><path d="M1.906-3.992h.676c.426-.008.762-.121 1.008-.34.242-.219.363-.512.363-.883 0-.832-.414-1.25-1.242-1.25-.39 0-.703.113-.938.336-.23.223-.347.516-.347.887H.523c0-.563.204-1.031.618-1.406.41-.372.933-.559 1.57-.559.672 0 1.195.176 1.578.531.379.356.57.848.57 1.48 0 .31-.101.61-.3.9a1.81 1.81 0 01-.817.648c.39.125.692.328.903.617.214.285.32.636.32 1.047 0 .64-.207 1.144-.625 1.52-.418.374-.957.562-1.625.562s-1.211-.18-1.63-.543c-.417-.36-.624-.836-.624-1.43h.906c0 .375.121.672.367.898.243.227.57.336.98.336.438 0 .77-.113 1-.34.231-.23.349-.554.349-.98 0-.414-.125-.734-.383-.953-.254-.223-.618-.336-1.098-.344h-.676zm0 0"/></symbol><symbol overflow="visible" id="n"><path d="M5.047-3.031c0 1.058-.18 1.844-.54 2.36-.362.51-.925.769-1.694.769-.758 0-1.32-.25-1.684-.754C.766-1.16.574-1.91.562-2.91v-1.207c0-1.043.18-1.82.54-2.328.363-.508.93-.762 1.703-.762.765 0 1.328.246 1.687.734.36.489.547 1.246.555 2.27zm-.902-1.235c0-.765-.106-1.324-.32-1.675-.216-.348-.555-.524-1.02-.524-.465 0-.801.176-1.012.524-.211.347-.32.882-.328 1.605v1.445c0 .77.113 1.336.336 1.704.222.367.558.546 1.012.546.445 0 .777-.171.992-.515.218-.344.332-.89.34-1.633zm0 0"/></symbol><symbol overflow="visible" id="o"><path d="M4.746-3.14H1.762V0H.824v-7.11H5.23v.774H1.762v2.43h2.984zm0 0"/></symbol><symbol overflow="visible" id="p"><path d="M2.875.098c-.715 0-1.297-.235-1.746-.707-.45-.47-.676-1.098-.676-1.887v-.164c0-.524.102-.992.3-1.406.2-.41.481-.735.84-.965.36-.235.75-.352 1.173-.352.687 0 1.218.227 1.601.68.38.453.57 1.101.57 1.945v.375H1.36c.012.52.164.942.454 1.262.292.32.664.48 1.113.48.316 0 .59-.062.808-.195.223-.129.414-.3.582-.516l.551.43c-.441.68-1.105 1.02-1.992 1.02zm-.11-4.739a1.21 1.21 0 00-.921.399c-.246.265-.399.64-.457 1.117H4.03v-.07c-.023-.457-.148-.813-.367-1.067-.223-.25-.523-.379-.898-.379zm0 0"/></symbol><symbol overflow="visible" id="q"><path d="M5.156-2.582c0 .809-.187 1.453-.554 1.945-.372.489-.872.735-1.497.735-.667 0-1.183-.235-1.546-.707L1.516 0H.684v-7.5h.902v2.797c.367-.453.867-.68 1.508-.68.64 0 1.148.246 1.511.73.368.485.551 1.15.551 1.993zm-.902-.106c0-.613-.121-1.09-.356-1.421-.238-.336-.582-.504-1.027-.504-.598 0-1.023.277-1.285.828V-1.5c.277.555.71.832 1.297.832.43 0 .77-.168 1.008-.504.242-.336.363-.84.363-1.516zm0 0"/></symbol><symbol overflow="visible" id="r"><path d="M4.406-2.387h.985v.739h-.985V0h-.91v-1.648H.258v-.536L3.44-7.109h.965zm-3.12 0h2.21v-3.488l-.105.195zm0 0"/></symbol><symbol overflow="visible" id="s"><path d="M4.902-5.254c0 .356-.093.672-.28.95a1.95 1.95 0 01-.759.648c.371.16.664.39.88.695.218.309.327.656.327 1.043 0 .613-.21 1.105-.625 1.469-.414.363-.96.547-1.636.547-.684 0-1.23-.184-1.645-.551C.754-.82.547-1.31.547-1.918c0-.387.105-.73.316-1.043.207-.309.5-.543.871-.703a1.869 1.869 0 01-.75-.648 1.693 1.693 0 01-.273-.942c0-.598.195-1.074.578-1.426.383-.351.89-.527 1.52-.527.625 0 1.128.176 1.515.527.387.352.578.828.578 1.426zm-.738 3.316c0-.398-.125-.722-.379-.972-.25-.25-.582-.375-.988-.375s-.73.12-.977.37c-.246.247-.37.571-.37.978 0 .402.12.718.359.953.238.23.574.343 1 .343.421 0 .753-.117.996-.347.242-.235.36-.551.36-.95zM2.81-6.465c-.356 0-.645.11-.864.328-.218.223-.328.52-.328.899 0 .36.106.652.324.875.215.222.504.336.868.336.359 0 .648-.114.867-.336C3.89-4.586 4-4.88 4-5.238c0-.364-.113-.657-.336-.887a1.16 1.16 0 00-.855-.34zm0 0"/></symbol></defs><path d="M51.555 233.66V.5m63.261 233.16V.5m63.262 233.16V.5m63.258 233.16V.5m63.262 233.16V.5m63.262 233.16V.5M38 191.871h388.602M38 150.07h388.602M38 108.266h388.602M38 66.465h388.602M38 24.664h388.602" fill="none" stroke="#666" stroke-opacity=".5" stroke-dasharray="1,2" stroke-miterlimit="3.25"/><path d="M93.77 233.66l2.828-.265 7.965-.852 7.43-.902 8.054-1.121 7.52-1.188 7.374-1.316 7.996-1.618 7.465-1.71 8.09-2.094 7.942-2.328 7.41-2.442 8.031-2.965 7.5-3.093 8.125-3.739 7.977-4.086 7.441-4.207 8.07-5.015 7.532-5.117 7.386-5.438 8.012-6.363 7.477-6.367 8.105-7.352 7.957-7.633 7.418-7.453 8.047-8.387 7.512-8.058 7.363-8.047 7.992-8.817 7.457-8.226 8.082-8.84 7.547-8.101 7.398-7.735 8.024-8.086 7.492-7.21 8.117-7.403 7.969-6.813 7.434-5.933 8.058-5.965 7.528-5.121 7.375-4.61 8.003-4.558 7.47-3.852.132-.062.129-.067.262-.125.52-.253 1.042-.5 2.086-.985.258-.117.262-.121.52-.242 1.042-.473.133-.059.129-.058.262-.117.52-.23.128-.06.133-.058.258-.113.132-.059.13-.058.128-.055.133-.059" fill="none" stroke-width="1.6" stroke-linecap="square" stroke="#a60000" stroke-opacity=".3" stroke-miterlimit="3.25"/><path d="M90.79 233.66l1.753-.039 4.055-.098.25-.007.25-.004.496-.016.996-.023 1.992-.055 3.98-.121.235-.008.23-.008.465-.011.93-.032 1.855-.062 3.715-.133.125-.008.125-.004.254-.008.504-.02 1.004-.038 2.016-.082 4.027-.18.117-.004.117-.008.235-.007.472-.024.938-.043 1.883-.094 3.757-.199.118-.008.113-.007.691-.036 2.766-.164 3.687-.23 7.996-.578 7.465-.633 8.09-.805 7.942-.914 7.41-.969 8.031-1.18 7.5-1.206 8.125-1.414 7.977-1.465 7.441-1.406 8.07-1.532 7.532-1.41 7.386-1.324 8.012-1.356 7.477-1.16 8.105-1.136 7.957-.985 7.418-.8 8.047-.75 7.512-.598.117-.008.113-.008.23-.015.461-.036.922-.062 1.84-.129 3.68-.234 1-.063 1-.058 1.996-.118 3.996-.214.117-.004.117-.008.23-.012.47-.023.93-.047 1.863-.09 3.73-.164.125-.008.125-.004.254-.012.504-.02 1.012-.042 2.02-.078 4.042-.149.469-.015.473-.016.945-.035 1.887-.059 3.773-.113.113-.004.117-.004.23-.008.462-.011.926-.028 1.851-.047 3.7-.093.124-.004h.125l.25-.008.504-.012 1-.023 2.008-.043 4.012-.082h.117l.117-.004.703-.012.938-.02 1.871-.03 3.746-.063h.125l.129-.004.762-.012 1.011-.015 2.032-.028 4.058-.054.125-.004h.125l.246-.004.5-.004 2.989-.035 3.984-.043h.117l.113-.004h.235l.465-.008.93-.008 1.855-.015 3.719-.035h.25l.253-.004 3.528-.028 4.027-.027h.238l.235-.004h.469l.941-.008 1.883-.012 3.762-.019.113-.004h.347l.461-.004 2.766-.012 3.688-.02h.503l.5-.003 7-.027h.934l2.8-.012 3.735-.012h1.043l3.13-.012h1.038l1.043-.003h1.043l.129-.004h.914" fill="none" stroke-width="1.6" stroke-linecap="square" stroke="#0d86a0" stroke-opacity=".3" stroke-miterlimit="3.25"/><path d="M426.602 19.363h25.543" fill="none" stroke-width="4" stroke-linejoin="round" stroke="#fff" stroke-opacity=".667" stroke-miterlimit="3.25"/><path d="M426.602 19.363h25.543" fill="none" stroke-width="1.25" stroke-linecap="square" stroke="#aaa" stroke-miterlimit="3.25"/><path d="M477.145 11.863v15h-25v-15zm0 0" fill="#fff" fill-opacity=".667"/><use xlink:href="#a" x="454.644" y="21.863"/><use xlink:href="#b" x="464.644" y="21.863"/><path d="M426.602 207.43h25.543" fill="none" stroke-width="4" stroke-linejoin="round" stroke="#fff" stroke-opacity=".667" stroke-miterlimit="3.25"/><path d="M426.602 207.43h25.543" fill="none" stroke-width="1.25" stroke-linecap="square" stroke="#aaa" stroke-miterlimit="3.25"/><path d="M497.145 199.93v15h-45v-15zm0 0" fill="#fff" fill-opacity=".667"/><use xlink:href="#c" x="454.644" y="209.929"/><use xlink:href="#d" x="464.644" y="209.929"/><use xlink:href="#e" x="474.644" y="209.929"/><use xlink:href="#f" x="484.644" y="209.929"/><path d="M54.137 234A2.134 2.134 0 0052 231.863 2.134 2.134 0 0049.863 234 2.134 2.134 0 0052 236.137 2.134 2.134 0 0054.137 234zm9 0A2.134 2.134 0 0061 231.863 2.134 2.134 0 0058.863 234 2.134 2.134 0 0061 236.137 2.134 2.134 0 0063.137 234zm9 0A2.134 2.134 0 0070 231.863 2.134 2.134 0 0067.863 234 2.134 2.134 0 0070 236.137 2.134 2.134 0 0072.137 234zm9-1A2.134 2.134 0 0079 230.863 2.134 2.134 0 0076.863 233 2.134 2.134 0 0079 235.137 2.134 2.134 0 0081.137 233zm9 0A2.134 2.134 0 0088 230.863 2.134 2.134 0 0085.863 233 2.134 2.134 0 0088 235.137 2.134 2.134 0 0090.137 233zm9 0A2.134 2.134 0 0097 230.863 2.134 2.134 0 0094.863 233 2.134 2.134 0 0097 235.137 2.134 2.134 0 0099.137 233zm9 0a2.134 2.134 0 00-2.137-2.137 2.134 2.134 0 00-2.137 2.137 2.134 2.134 0 002.137 2.137 2.134 2.134 0 002.137-2.137zm9-1a2.134 2.134 0 00-2.137-2.137 2.134 2.134 0 00-2.137 2.137 2.134 2.134 0 002.137 2.137 2.134 2.134 0 002.137-2.137zm9 0a2.134 2.134 0 00-2.137-2.137 2.134 2.134 0 00-2.137 2.137 2.134 2.134 0 002.137 2.137 2.134 2.134 0 002.137-2.137zm9-1a2.134 2.134 0 00-2.137-2.137 2.134 2.134 0 00-2.137 2.137 2.134 2.134 0 002.137 2.137 2.134 2.134 0 002.137-2.137zm9-1a2.134 2.134 0 00-2.137-2.137 2.134 2.134 0 00-2.137 2.137 2.134 2.134 0 002.137 2.137 2.134 2.134 0 002.137-2.137zm9-2a2.134 2.134 0 00-2.137-2.137 2.134 2.134 0 00-2.137 2.137 2.134 2.134 0 002.137 2.137 2.134 2.134 0 002.137-2.137zm9-4a2.134 2.134 0 00-2.137-2.137 2.134 2.134 0 00-2.137 2.137 2.134 2.134 0 002.137 2.137 2.134 2.134 0 002.137-2.137zm9-3a2.134 2.134 0 00-2.137-2.137 2.134 2.134 0 00-2.137 2.137 2.134 2.134 0 002.137 2.137 2.134 2.134 0 002.137-2.137zm9-3a2.134 2.134 0 00-2.137-2.137 2.134 2.134 0 00-2.137 2.137 2.134 2.134 0 002.137 2.137 2.134 2.134 0 002.137-2.137zm9-5a2.134 2.134 0 00-2.137-2.137 2.134 2.134 0 00-2.137 2.137 2.134 2.134 0 002.137 2.137 2.134 2.134 0 002.137-2.137zm9-4a2.134 2.134 0 00-2.137-2.137 2.134 2.134 0 00-2.137 2.137 2.134 2.134 0 002.137 2.137 2.134 2.134 0 002.137-2.137zm9-5a2.134 2.134 0 00-2.137-2.137 2.134 2.134 0 00-2.137 2.137 2.134 2.134 0 002.137 2.137 2.134 2.134 0 002.137-2.137zm9-6a2.134 2.134 0 00-2.137-2.137 2.134 2.134 0 00-2.137 2.137 2.134 2.134 0 002.137 2.137 2.134 2.134 0 002.137-2.137zm9-7a2.134 2.134 0 00-2.137-2.137 2.134 2.134 0 00-2.137 2.137 2.134 2.134 0 002.137 2.137 2.134 2.134 0 002.137-2.137zm9-8a2.134 2.134 0 00-2.137-2.137 2.134 2.134 0 00-2.137 2.137 2.134 2.134 0 002.137 2.137 2.134 2.134 0 002.137-2.137zm9-8a2.134 2.134 0 00-2.137-2.137 2.134 2.134 0 00-2.137 2.137 2.134 2.134 0 002.137 2.137 2.134 2.134 0 002.137-2.137zm9-6a2.134 2.134 0 00-2.137-2.137 2.134 2.134 0 00-2.137 2.137 2.134 2.134 0 002.137 2.137 2.134 2.134 0 002.137-2.137zm9-8a2.134 2.134 0 00-2.137-2.137 2.134 2.134 0 00-2.137 2.137 2.134 2.134 0 002.137 2.137 2.134 2.134 0 002.137-2.137zm9-5a2.134 2.134 0 00-2.137-2.137 2.134 2.134 0 00-2.137 2.137 2.134 2.134 0 002.137 2.137 2.134 2.134 0 002.137-2.137zm9-7a2.134 2.134 0 00-2.137-2.137 2.134 2.134 0 00-2.137 2.137 2.134 2.134 0 002.137 2.137 2.134 2.134 0 002.137-2.137zm10-5a2.134 2.134 0 00-2.137-2.137 2.134 2.134 0 00-2.137 2.137 2.134 2.134 0 002.137 2.137 2.134 2.134 0 002.137-2.137zm9-4a2.134 2.134 0 00-2.137-2.137 2.134 2.134 0 00-2.137 2.137 2.134 2.134 0 002.137 2.137 2.134 2.134 0 002.137-2.137zm9-29a2.134 2.134 0 00-2.137-2.137 2.134 2.134 0 00-2.137 2.137 2.134 2.134 0 002.137 2.137 2.134 2.134 0 002.137-2.137zm9-11A2.134 2.134 0 00314 97.863a2.134 2.134 0 00-2.137 2.137 2.134 2.134 0 002.137 2.137 2.134 2.134 0 002.137-2.137zm9-6A2.134 2.134 0 00323 91.863 2.134 2.134 0 00320.863 94 2.134 2.134 0 00323 96.137 2.134 2.134 0 00325.137 94zm9-4A2.134 2.134 0 00332 87.863 2.134 2.134 0 00329.863 90 2.134 2.134 0 00332 92.137 2.134 2.134 0 00334.137 90zm0 0" fill-rule="evenodd" fill="#a60000"/><path d="M54.137 234A2.134 2.134 0 0052 231.863 2.134 2.134 0 0049.863 234 2.134 2.134 0 0052 236.137 2.134 2.134 0 0054.137 234zm9 0A2.134 2.134 0 0061 231.863 2.134 2.134 0 0058.863 234 2.134 2.134 0 0061 236.137 2.134 2.134 0 0063.137 234zm9 0A2.134 2.134 0 0070 231.863 2.134 2.134 0 0067.863 234 2.134 2.134 0 0070 236.137 2.134 2.134 0 0072.137 234zm9 0A2.134 2.134 0 0079 231.863 2.134 2.134 0 0076.863 234 2.134 2.134 0 0079 236.137 2.134 2.134 0 0081.137 234zm9 0A2.134 2.134 0 0088 231.863 2.134 2.134 0 0085.863 234 2.134 2.134 0 0088 236.137 2.134 2.134 0 0090.137 234zm9 0A2.134 2.134 0 0097 231.863 2.134 2.134 0 0094.863 234 2.134 2.134 0 0097 236.137 2.134 2.134 0 0099.137 234zm9 0a2.134 2.134 0 00-2.137-2.137 2.134 2.134 0 00-2.137 2.137 2.134 2.134 0 002.137 2.137 2.134 2.134 0 002.137-2.137zm9-1a2.134 2.134 0 00-2.137-2.137 2.134 2.134 0 00-2.137 2.137 2.134 2.134 0 002.137 2.137 2.134 2.134 0 002.137-2.137zm9 0a2.134 2.134 0 00-2.137-2.137 2.134 2.134 0 00-2.137 2.137 2.134 2.134 0 002.137 2.137 2.134 2.134 0 002.137-2.137zm9-1a2.134 2.134 0 00-2.137-2.137 2.134 2.134 0 00-2.137 2.137 2.134 2.134 0 002.137 2.137 2.134 2.134 0 002.137-2.137zm9 0a2.134 2.134 0 00-2.137-2.137 2.134 2.134 0 00-2.137 2.137 2.134 2.134 0 002.137 2.137 2.134 2.134 0 002.137-2.137zm9-1a2.134 2.134 0 00-2.137-2.137 2.134 2.134 0 00-2.137 2.137 2.134 2.134 0 002.137 2.137 2.134 2.134 0 002.137-2.137zm9-1a2.134 2.134 0 00-2.137-2.137 2.134 2.134 0 00-2.137 2.137 2.134 2.134 0 002.137 2.137 2.134 2.134 0 002.137-2.137zm9-1a2.134 2.134 0 00-2.137-2.137 2.134 2.134 0 00-2.137 2.137 2.134 2.134 0 002.137 2.137 2.134 2.134 0 002.137-2.137zm9-2a2.134 2.134 0 00-2.137-2.137 2.134 2.134 0 00-2.137 2.137 2.134 2.134 0 002.137 2.137 2.134 2.134 0 002.137-2.137zm9-1a2.134 2.134 0 00-2.137-2.137 2.134 2.134 0 00-2.137 2.137 2.134 2.134 0 002.137 2.137 2.134 2.134 0 002.137-2.137zm9-2a2.134 2.134 0 00-2.137-2.137 2.134 2.134 0 00-2.137 2.137 2.134 2.134 0 002.137 2.137 2.134 2.134 0 002.137-2.137zm9-1a2.134 2.134 0 00-2.137-2.137 2.134 2.134 0 00-2.137 2.137 2.134 2.134 0 002.137 2.137 2.134 2.134 0 002.137-2.137zm9-2a2.134 2.134 0 00-2.137-2.137 2.134 2.134 0 00-2.137 2.137 2.134 2.134 0 002.137 2.137 2.134 2.134 0 002.137-2.137zm9-2a2.134 2.134 0 00-2.137-2.137 2.134 2.134 0 00-2.137 2.137 2.134 2.134 0 002.137 2.137 2.134 2.134 0 002.137-2.137zm9-1a2.134 2.134 0 00-2.137-2.137 2.134 2.134 0 00-2.137 2.137 2.134 2.134 0 002.137 2.137 2.134 2.134 0 002.137-2.137zm9-2a2.134 2.134 0 00-2.137-2.137 2.134 2.134 0 00-2.137 2.137 2.134 2.134 0 002.137 2.137 2.134 2.134 0 002.137-2.137zm9-1a2.134 2.134 0 00-2.137-2.137 2.134 2.134 0 00-2.137 2.137 2.134 2.134 0 002.137 2.137 2.134 2.134 0 002.137-2.137zm9-1a2.134 2.134 0 00-2.137-2.137 2.134 2.134 0 00-2.137 2.137 2.134 2.134 0 002.137 2.137 2.134 2.134 0 002.137-2.137zm9-1a2.134 2.134 0 00-2.137-2.137 2.134 2.134 0 00-2.137 2.137 2.134 2.134 0 002.137 2.137 2.134 2.134 0 002.137-2.137zm9-1a2.134 2.134 0 00-2.137-2.137 2.134 2.134 0 00-2.137 2.137 2.134 2.134 0 002.137 2.137 2.134 2.134 0 002.137-2.137zm10-1a2.134 2.134 0 00-2.137-2.137 2.134 2.134 0 00-2.137 2.137 2.134 2.134 0 002.137 2.137 2.134 2.134 0 002.137-2.137zm9-1a2.134 2.134 0 00-2.137-2.137 2.134 2.134 0 00-2.137 2.137 2.134 2.134 0 002.137 2.137 2.134 2.134 0 002.137-2.137zm9-1a2.134 2.134 0 00-2.137-2.137 2.134 2.134 0 00-2.137 2.137 2.134 2.134 0 002.137 2.137 2.134 2.134 0 002.137-2.137zm9 0a2.134 2.134 0 00-2.137-2.137 2.134 2.134 0 00-2.137 2.137 2.134 2.134 0 002.137 2.137 2.134 2.134 0 002.137-2.137zm9-1a2.134 2.134 0 00-2.137-2.137 2.134 2.134 0 00-2.137 2.137 2.134 2.134 0 002.137 2.137 2.134 2.134 0 002.137-2.137zm9 0a2.134 2.134 0 00-2.137-2.137 2.134 2.134 0 00-2.137 2.137 2.134 2.134 0 002.137 2.137 2.134 2.134 0 002.137-2.137zm0 0" fill-rule="evenodd" fill="#0d86a0"/><path d="M426.602 233.66H38m0 0V.5m0 0h388.602m0 0v233.16" fill="none" stroke-width=".5" stroke-linecap="square" stroke="#666" stroke-miterlimit="3.25"/><path d="M51.555 233.66v-4" fill="none" stroke-width=".5" stroke="#666" stroke-miterlimit="3.25"/><g fill="#666"><use xlink:href="#g" x="37.056" y="245.66"/><use xlink:href="#h" x="42.573" y="245.66"/><use xlink:href="#i" x="48.013" y="245.66"/></g><g fill="#666"><use xlink:href="#j" x="55.056" y="245.66"/><use xlink:href="#k" x="60.671" y="245.66"/></g><path d="M114.816 233.66v-4" fill="none" stroke-width=".5" stroke="#666" stroke-miterlimit="3.25"/><g fill="#666"><use xlink:href="#g" x="100.316" y="245.66"/><use xlink:href="#h" x="105.834" y="245.66"/><use xlink:href="#i" x="111.273" y="245.66"/></g><g fill="#666"><use xlink:href="#l" x="118.316" y="245.66"/><use xlink:href="#m" x="123.932" y="245.66"/></g><path d="M178.078 233.66v-4" fill="none" stroke-width=".5" stroke="#666" stroke-miterlimit="3.25"/><g fill="#666"><use xlink:href="#g" x="163.577" y="245.66"/><use xlink:href="#h" x="169.094" y="245.66"/><use xlink:href="#i" x="174.534" y="245.66"/></g><g fill="#666"><use xlink:href="#m" x="181.577" y="245.66"/><use xlink:href="#n" x="187.192" y="245.66"/></g><path d="M241.336 233.66v-4" fill="none" stroke-width=".5" stroke="#666" stroke-miterlimit="3.25"/><g fill="#666"><use xlink:href="#o" x="226.837" y="245.66"/><use xlink:href="#p" x="232.365" y="245.66"/><use xlink:href="#q" x="237.662" y="245.66"/></g><g fill="#666"><use xlink:href="#n" x="244.837" y="245.66"/><use xlink:href="#k" x="250.452" y="245.66"/></g><path d="M304.598 233.66v-4" fill="none" stroke-width=".5" stroke="#666" stroke-miterlimit="3.25"/><g fill="#666"><use xlink:href="#o" x="290.098" y="245.66"/><use xlink:href="#p" x="295.625" y="245.66"/><use xlink:href="#q" x="300.923" y="245.66"/></g><g fill="#666"><use xlink:href="#j" x="308.098" y="245.66"/><use xlink:href="#m" x="313.713" y="245.66"/></g><path d="M367.86 233.66v-4" fill="none" stroke-width=".5" stroke="#666" stroke-miterlimit="3.25"/><g fill="#666"><use xlink:href="#o" x="353.358" y="245.66"/><use xlink:href="#p" x="358.885" y="245.66"/><use xlink:href="#q" x="364.183" y="245.66"/></g><g fill="#666"><use xlink:href="#l" x="371.358" y="245.66"/><use xlink:href="#n" x="376.973" y="245.66"/></g><path d="M38 233.672h4" fill="none" stroke-width=".5" stroke="#666" stroke-miterlimit="3.25"/><use xlink:href="#n" x="29" y="236.173" fill="#666"/><path d="M38 223.223h2.398M38 212.773h2.398M38 202.32h2.398M38 191.871h4" fill="none" stroke-width=".5" stroke="#666" stroke-miterlimit="3.25"/><g fill="#666"><use xlink:href="#l" x="5" y="194.371"/><use xlink:href="#n" x="10.615" y="194.371"/></g><g fill="#666"><use xlink:href="#n" x="17.686" y="194.371"/><use xlink:href="#n" x="23.301" y="194.371"/><use xlink:href="#n" x="28.916" y="194.371"/></g><path d="M38 181.422h2.398M38 170.969h2.398M38 160.52h2.398M38 150.07h4" fill="none" stroke-width=".5" stroke="#666" stroke-miterlimit="3.25"/><g fill="#666"><use xlink:href="#r" x="5" y="152.569"/><use xlink:href="#n" x="10.615" y="152.569"/></g><g fill="#666"><use xlink:href="#n" x="17.686" y="152.569"/><use xlink:href="#n" x="23.301" y="152.569"/><use xlink:href="#n" x="28.916" y="152.569"/></g><path d="M38 139.617h2.398M38 129.168h2.398M38 118.719h2.398M38 108.266h4" fill="none" stroke-width=".5" stroke="#666" stroke-miterlimit="3.25"/><g fill="#666"><use xlink:href="#k" x="5" y="110.767"/><use xlink:href="#n" x="10.615" y="110.767"/></g><g fill="#666"><use xlink:href="#n" x="17.686" y="110.767"/><use xlink:href="#n" x="23.301" y="110.767"/><use xlink:href="#n" x="28.916" y="110.767"/></g><path d="M38 97.816h2.398M38 87.367h2.398M38 76.918h2.398M38 66.465h4" fill="none" stroke-width=".5" stroke="#666" stroke-miterlimit="3.25"/><g fill="#666"><use xlink:href="#s" x="5" y="68.966"/><use xlink:href="#n" x="10.615" y="68.966"/></g><g fill="#666"><use xlink:href="#n" x="17.686" y="68.966"/><use xlink:href="#n" x="23.301" y="68.966"/><use xlink:href="#n" x="28.916" y="68.966"/></g><path d="M38 56.016h2.398M38 45.566h2.398M38 35.113h2.398M38 24.664h4" fill="none" stroke-width=".5" stroke="#666" stroke-miterlimit="3.25"/><g fill="#666"><use xlink:href="#j" y="27.164"/><use xlink:href="#n" x="5.615" y="27.164"/><use xlink:href="#n" x="11.23" y="27.164"/></g><g fill="#666"><use xlink:href="#n" x="18.301" y="27.164"/><use xlink:href="#n" x="23.916" y="27.164"/><use xlink:href="#n" x="29.531" y="27.164"/></g><path d="M38 14.215h2.398M38 3.762h2.398" fill="none" stroke-width=".5" stroke="#666" stroke-miterlimit="3.25"/><path d="M426.602 191.871h-3.887m3.887-41.801h-3.887m3.887-41.804h-3.887m3.887-41.801h-3.887m3.887-41.801h-3.887m3.887 198.559h-2.403m2.403-10.45h-2.403m2.403-10.453h-2.403m2.403-20.898h-2.403m2.403-10.453h-2.403m2.403-10.449h-2.403m2.403-20.903h-2.403m2.403-10.449h-2.403m2.403-10.449h-2.403m2.403-20.903h-2.403m2.403-10.449h-2.403m2.403-10.449h-2.403m2.403-20.902h-2.403m2.403-10.45h-2.403m2.403-10.453h-2.403m2.403-20.898h-2.403m2.403-10.453h-2.403" fill="none" stroke-width=".1" stroke="#666" stroke-miterlimit="3.25"/></svg>