<svg xmlns="http://www.w3.org/2000/svg" xmlns:xlink="http://www.w3.org/1999/xlink" width="500pt" height="265pt" viewBox="0 0 500 265"><defs><symbol overflow="visible" id="a"><path d="M4.738-8.14C3.578-6.88 2.121-5.82.36-4.97l.352.63C2.48-5.23 3.91-6.282 5-7.49c1.18 1.272 2.59 2.3 4.25 3.1l.36-.64a14.128 14.128 0 01-4.348-3.11zM2.211-4.98v.69h2.418v1.74H1.73v.69h2.9v1.848H.839V.7h8.333v-.71h-3.8v-1.85h2.89v-.692h-2.89V-4.29h2.417v-.691zm0 0"/></symbol><symbol overflow="visible" id="b"><path d="M2.52-6.121v.652h2.109v1.438h-1.79v.64h1.79v1.59H2.25v.66h5.512v-.66h-2.39v-1.59H7.16v-.64H5.371V-5.47H7.47v-.652zm6.59-1.59H.89V.98h.731V.55H8.38v.43h.73zM1.62-.129V-7.03h6.76v6.9zm4.93-3.05l-.57.19c.238.329.46.72.66 1.169l.558-.258A6.323 6.323 0 006.55-3.18zm0 0"/></symbol><symbol overflow="visible" id="c"><path d="M7.04-4.73h1.51v1.808H7.04zm1.51-.63H7.04v-1.78h1.51zM7.02-2.28h1.53v2.22c0 .278-.12.43-.35.43-.24 0-.49-.02-.759-.043l.168.64h.79C8.94.969 9.21.7 9.21.173V-7.8H6.379v5.082C6.359-1.422 6.07-.339 5.5.5l.52.46c.59-.839.921-1.92 1-3.241zm-5.9-5.67l-.492.46c.68.5 1.21.977 1.59 1.419l.5-.489A11.92 11.92 0 001.12-7.95zm-.2 2.34l-.491.46c.691.53 1.231 1.03 1.621 1.49l.5-.488c-.44-.48-.991-.973-1.628-1.461zm1.03 2.649A33.47 33.47 0 01.56.58l.652.28c.5-1.12.95-2.308 1.36-3.57zm3.762-.64H4.69V-5.5h1.297v-.648H4.691v-1.73H4v1.73H2.7v.648H4v1.898H2.95V.41h.66v-.59h2.1zM3.61-.801v-2.18h1.46V-.8zm0 0"/></symbol><symbol overflow="visible" id="d"><path d="M3.32-8.14v2.769H.672v.691H3.32v3.211c-.89.418-1.82.739-2.8.957L.69.2c.93-.258 1.809-.57 2.63-.949V.93h.738v-9.07zM8.22.84c.43 0 .73-.121.89-.36.16-.25.262-.96.32-2.128l-.679-.223c-.031 1.02-.09 1.61-.172 1.793C8.48.078 8.32.16 8.102.16h-1.25c-.25 0-.372-.148-.372-.43v-3.84c.93-.32 1.91-.788 2.95-1.421l-.418-.59c-.82.57-1.66 1.012-2.532 1.332v-3.352h-.73v7.98c0 .661.309 1 .941 1zm0 0"/></symbol><symbol overflow="visible" id="e"><path d="M1.23-8l-.511.488c.601.5 1.062.98 1.402 1.434l.5-.5A11.5 11.5 0 001.231-8zM.988-5.61l-.5.489c.602.5 1.082.98 1.422 1.441l.5-.5c-.379-.48-.86-.949-1.422-1.43zm.793 2.66A36.295 36.295 0 01.578.63l.672.293A42.328 42.328 0 002.41-2.71zm3.68-1.081c-.313.18-.633.351-.95.511v-2.152h.91V-6.3h-.91v-1.84H3.81v1.84H2.74v.63h1.07v2.452c-.368.14-.75.27-1.137.38l.168.69c.32-.113.64-.23.969-.363V-.16c0 .32-.11.48-.329.48C3.238.32 3 .3 2.738.281l.153.63h.808c.54 0 .813-.31.813-.911v-2.82c.316-.149.629-.309.949-.48zm3.578-3.95c-.91.36-1.93.56-3.07.583v3.847c-.047 1.7-.36 3.04-.938 4l.489.52c.699-1.13 1.07-2.64 1.12-4.52v-.71h1.282v5.28h.68v-5.28h.968v-.65H6.64v-1.91c1-.058 1.91-.25 2.731-.55zm0 0"/></symbol><symbol overflow="visible" id="f"><path d="M6.07-6.86v6.79h-3v.69h6.48v-.69H6.782v-6.79h2.43v-.68H3.559v.68zM1.25-7.987L.738-7.5c.762.5 1.364.98 1.801 1.43l.5-.5c-.48-.47-1.078-.942-1.789-1.418zM.988-5.602l-.5.493c.75.507 1.34 1 1.762 1.46l.5-.5A11.644 11.644 0 00.988-5.601zM2.27-2.949A28.672 28.672 0 01.61.6l.66.29a30.8 30.8 0 001.628-3.602zm0 0"/></symbol><symbol overflow="visible" id="g"><path d="M5.262-8.32l-.793.14c.203.32.39.68.55 1.07H1.302v2.93C1.28-2.16.98-.59.42.55l.59.528C1.662-.238 2-1.988 2.04-4.18v-2.242h7.41v-.687H5.81c-.18-.45-.36-.852-.547-1.211zm0 0"/></symbol><symbol overflow="visible" id="h"><path d="M.781-6.96v.698h2.14c-.53 1.024-1.1 1.852-1.71 2.512l.168.629h3.46v3c0 .293-.16.441-.468.441-.3 0-.61-.02-.941-.05l.148.71h1.043c.629 0 .95-.308.95-.921v-3.18h3.148v-.668H5.57v-1.48h-.73v1.48h-2.7a14.36 14.36 0 001.57-2.473h5.42v-.699h-5.1c.16-.367.32-.75.48-1.148l-.71-.16c-.18.46-.36.89-.551 1.308zM2.88-2.329A10.003 10.003 0 01.48-.102L.941.5C1.898-.18 2.72-.98 3.38-1.89zm4.33-.011l-.48.461c.95.86 1.7 1.66 2.238 2.419L9.5.02a16.925 16.925 0 00-2.29-2.36zm0 0"/></symbol><symbol overflow="visible" id="i"><path d="M1.18-7.95l-.508.5c.738.528 1.328 1.028 1.75 1.5l.52-.51c-.481-.5-1.063-.99-1.762-1.49zM1-5.5l-.512.488c.703.512 1.242 1 1.633 1.461l.508-.52C2.19-4.55 1.649-5.02 1-5.5zm1.11 2.68A30.368 30.368 0 01.59.68l.719.308A31.023 31.023 0 002.762-2.57zm1.062-4.75v.699h4.887V-.18c0 .34-.16.508-.48.508-.477 0-.99-.02-1.52-.047l.16.688h1.61c.62 0 .94-.328.94-.969v-6.871h.782v-.7zm.437 2.23v3.68H6.75v-3.68zm2.47 3.02h-1.79v-2.371h1.79zm0 0"/></symbol><symbol overflow="visible" id="j"><path d="M.55-7.23v.68h4.04c-.059.331-.13.671-.2 1.01H1.103V.989h.707v-5.847h6.4v4.68c0 .28-.14.429-.422.429L6.86.23l.192.7h.98c.59 0 .89-.32.89-.95v-5.52H5.13c.07-.32.14-.651.2-1.01h4.12v-.68H5.441c.04-.29.07-.59.098-.899l-.73-.101-.118 1zm3.33 2.69l-.64.24c.21.312.39.652.542 1.01H2.68v.63h1.968v1.05H2.36v.641h2.29V.84h.703V-.97h2.296v-.64H5.352v-1.05h2v-.63H6.21c.2-.32.39-.67.57-1.062l-.66-.238c-.18.461-.383.89-.601 1.3h-1.05a7.488 7.488 0 00-.59-1.25zm0 0"/></symbol><symbol overflow="visible" id="k"><path d="M9.148-7.191H5.43a9.89 9.89 0 00-.45-1.059l-.8.14c.172.282.32.579.46.919H.84v2.14h.738v-1.437H8.41v1.449h.738zM.602-4.411v.7h2.41c-.32.55-.66 1.11-1.024 1.672.934.3 1.864.648 2.801 1.05C3.73-.178 2.34.232.641.239l.418.672C2.922.852 4.399.328 5.519-.672A35.405 35.405 0 018.7.988L9.18.36a31.218 31.218 0 00-3.14-1.558c.531-.621 1-1.45 1.41-2.512h1.973v-.7H4.25c.238-.44.488-.91.75-1.41l-.738-.218a62.17 62.17 0 01-.864 1.629zm3.257.7H6.66c-.34.883-.78 1.621-1.32 2.211-.79-.328-1.559-.61-2.32-.828.261-.402.539-.863.84-1.383zm0 0"/></symbol><symbol overflow="visible" id="l"><path d="M2.27-8.2c-.4.93-1.032 1.76-1.9 2.482l.207.68c1.063-.84 1.82-1.8 2.3-2.883zm.28 2.27c-.44 1.121-1.14 2.121-2.109 3l.207.66a9.72 9.72 0 00.993-.968V.988h.68v-5.097c.327-.48.6-1 .82-1.551zm1.962-2.242v1.762h-.684V-7.8h-.566v1.972h3.09v-1.973h-.57v1.39H5.09v-1.76zM3.109-5.148v.617H6.25c-.07.133-.14.261-.21.383l.358.457c.211-.297.403-.637.57-1.02.122 1.14.36 2.191.723 3.133A5.9 5.9 0 016.641.129c-.18-.399-.38-.777-.582-1.117l-.48.226c.21.371.41.793.6 1.262L6.41.39l.36.56c.5-.49.92-1.08 1.26-1.77.31.64.701 1.23 1.17 1.76l.45-.52a7.733 7.733 0 01-1.297-2.01c.43-1.2.668-2.641.707-4.34h.39v-.65H7.59c.11-.452.2-.94.282-1.46l-.66-.121c-.18 1.45-.492 2.648-.941 3.59v-.578zm4.301-.743c0-.007 0-.02.012-.039H8.46C8.43-4.62 8.28-3.469 8-2.48c-.34-1-.531-2.141-.59-3.41zM3.46-.898A5.217 5.217 0 012.673.328l.469.344c.308-.383.578-.82.808-1.332zM5.98-2.73l-.511.171c.101.16.203.34.3.54-.597.097-1.199.18-1.789.238.801-.52 1.5-1.117 2.098-1.778l-.558-.21c-.141.16-.29.32-.45.48-.41.039-.82.07-1.218.098.418-.32.796-.68 1.136-1.09L4.441-4.5a7.02 7.02 0 01-1.41 1.352l.13.457c.46-.02.917-.059 1.39-.118-.473.399-.98.77-1.54 1.11l.13.488c.46-.039.93-.09 1.41-.148V.12c0 .16-.082.25-.223.25-.18 0-.367-.02-.558-.043l.128.594h.641c.422 0 .64-.223.64-.64v-1.743l.79-.148c.07.14.14.289.203.449l.5-.219c-.203-.48-.434-.93-.692-1.351zm0 0"/></symbol><symbol overflow="visible" id="m"><path d="M.54-7.738v.699h2.98v1.527H1.14V.941h.72V.488h6.3v.453h.719v-6.453H6.44v-1.527h3.02v-.7zM1.86-.191v-4.637h1.66v.2C3.5-3.27 3-2.282 2.02-1.66l.558.488C3.66-1.898 4.211-3.05 4.23-4.629v-.2h1.5v2.067c0 .653.32.98.98.98h1.45v1.59zM4.23-7.04h1.5v1.527h-1.5zm2.211 2.21h1.72v2.388H6.897c-.308 0-.457-.16-.457-.47zm0 0"/></symbol><symbol overflow="visible" id="n"><path d="M1.54-5.23v3.32h3.089v.691h-3.55v.578h3.55v.75H.579v.63h8.843v-.63h-4.07v-.75H8.93v-.578H5.352v-.691h3.097v-3.32H5.352v-.641h3.93v-.617h-3.93v-.762A73.97 73.97 0 008.46-7.5l-.223-.602c-1.988.223-4.289.372-6.886.454l.117.59c1.101-.044 2.152-.09 3.16-.153v.723H.719v.617h3.91v.64zm6.21 2.742H5.352v-.813H7.75zm-3.121 0H2.23v-.813h2.4zM2.23-3.86v-.79h2.4v.79zm3.122-.79H7.75v.79H5.352zm0 0"/></symbol><symbol overflow="visible" id="o"><path d="M2.531-4.129v.668h2.707C4.84-1.879 3.738-.57 1.961.461l.41.59C4.148-.031 5.301-1.38 5.81-3.012c.56 1.684 1.67 3.024 3.31 4l.43-.566C7.93-.5 6.84-1.801 6.289-3.461H9.25v-.668H6.102c-.024-.05-.032-.11-.043-.172.03-.46.05-1 .05-1.62h-.68c0 .28-.007.683-.007 1.202a19.6 19.6 0 01-.05.59zM5.25-8.23l-.79.14c.22.3.411.621.59.98H1.3v2.91C1.27-2.2.96-.628.36.489l.562.5C1.629-.309 2-2.039 2.039-4.199v-2.223h7.41v-.687H5.83a9.055 9.055 0 00-.58-1.121zm0 0"/></symbol><symbol overflow="visible" id="p"><path d="M9.11-7.531H.89V.852h.731V.27H8.38v.582h.73zM1.62-.38v-6.5h1.91v2.168c-.02 1.18-.543 2.031-1.562 2.57l.55.48C3.642-2.3 4.212-3.32 4.23-4.71v-2.168h1.49v3.969c0 .539.293.82.89.82h1.422v-.66h-1.23c-.262 0-.39-.11-.39-.309v-3.82H8.38v6.5zm0 0"/></symbol><symbol overflow="visible" id="q"><path d="M4.852-7.719V.25h.726v-7.969zM7.84-8.12V.97h.73v-9.09zm-5.961.043v3.867c-.02 2.18-.52 3.75-1.5 4.73l.55.493C2.032-.09 2.59-1.828 2.61-4.211v-3.867zm0 0"/></symbol><symbol overflow="visible" id="r"><path d="M8.219-6.469V-.55H5.37v-7.558h-.74V-.55H1.77V-6.5h-.718V.8h.719V.14H8.22v.67h.722v-7.28zm0 0"/></symbol><symbol overflow="visible" id="s"><path d="M3.805-7.11h.941v5.036c0 .68-.203 1.21-.613 1.597-.406.383-.953.575-1.633.575-.707 0-1.258-.18-1.648-.543-.395-.36-.594-.867-.594-1.516h.937c0 .406.114.723.336.95.223.23.547.343.969.343.387 0 .7-.121.941-.367.239-.246.36-.586.364-1.028zm0 0"/></symbol><symbol overflow="visible" id="t"><path d="M3.945 0c-.05-.105-.093-.29-.125-.555-.422.434-.922.653-1.507.653-.52 0-.946-.149-1.282-.442a1.438 1.438 0 01-.5-1.12c0-.552.211-.977.63-1.282.417-.305 1.007-.457 1.765-.457h.879v-.414c0-.317-.094-.567-.285-.754-.188-.188-.465-.281-.833-.281-.324 0-.593.082-.812.242-.219.164-.328.36-.328.59H.64c0-.262.093-.516.28-.762.188-.246.442-.441.763-.582.32-.145.671-.219 1.054-.219.61 0 1.086.153 1.434.457.344.305.523.727.535 1.258v2.434c0 .484.063.87.184 1.156V0zm-1.5-.688c.285 0 .555-.074.805-.218a1.35 1.35 0 00.555-.574v-1.083h-.711c-1.106 0-1.656.325-1.656.97 0 .284.093.507.28.663.188.16.43.243.727.243zm0 0"/></symbol><symbol overflow="visible" id="u"><path d="M1.54-5.281l.026.664a1.93 1.93 0 011.582-.766c1.118 0 1.68.633 1.692 1.89V0h-.902v-3.496c-.004-.379-.094-.664-.262-.844-.172-.183-.438-.273-.801-.273-.293 0-.55.078-.77.234a1.59 1.59 0 00-.52.613V0h-.9v-5.281zm0 0"/></symbol><symbol overflow="visible" id="v"><path d="M3.559 0h-.907v-6.02l-1.824.668v-.82l2.59-.973h.14zm0 0"/></symbol><symbol overflow="visible" id="w"><path d="M1.906-3.992h.676c.426-.008.762-.121 1.008-.34.242-.219.363-.512.363-.883 0-.832-.414-1.25-1.242-1.25-.39 0-.703.113-.938.336-.23.223-.347.516-.347.887H.523c0-.563.204-1.031.618-1.406.41-.372.933-.559 1.57-.559.672 0 1.195.176 1.578.531.379.356.57.848.57 1.48 0 .31-.101.61-.3.9a1.81 1.81 0 01-.817.648c.39.125.692.328.903.617.214.285.32.636.32 1.047 0 .64-.207 1.144-.625 1.52-.418.374-.957.562-1.625.562s-1.211-.18-1.63-.543c-.417-.36-.624-.836-.624-1.43h.906c0 .375.121.672.367.898.243.227.57.336.98.336.438 0 .77-.113 1-.34.231-.23.349-.554.349-.98 0-.414-.125-.734-.383-.953-.254-.223-.618-.336-1.098-.344h-.676zm0 0"/></symbol><symbol overflow="visible" id="x"><path d="M5.25 0H.59v-.648l2.46-2.735c.364-.414.618-.75.755-1.008.14-.257.21-.527.21-.804 0-.371-.113-.676-.34-.914-.222-.239-.523-.356-.898-.356-.449 0-.797.13-1.047.383-.25.254-.37.613-.37 1.066H.452c0-.652.211-1.183.633-1.586.422-.402.984-.605 1.691-.605.66 0 1.184.172 1.567.52.386.347.578.808.578 1.382 0 .703-.445 1.535-1.336 2.5L1.68-.738h3.57zm0 0"/></symbol><symbol overflow="visible" id="y"><path d="M5.047-3.031c0 1.058-.18 1.844-.54 2.36-.362.51-.925.769-1.694.769-.758 0-1.32-.25-1.684-.754C.766-1.16.574-1.91.562-2.91v-1.207c0-1.043.18-1.82.54-2.328.363-.508.93-.762 1.703-.762.765 0 1.328.246 1.687.734.36.489.547 1.246.555 2.27zm-.902-1.235c0-.765-.106-1.324-.32-1.675-.216-.348-.555-.524-1.02-.524-.465 0-.801.176-1.012.524-.211.347-.32.882-.328 1.605v1.445c0 .77.113 1.336.336 1.704.222.367.558.546 1.012.546.445 0 .777-.171.992-.515.218-.344.332-.89.34-1.633zm0 0"/></symbol><symbol overflow="visible" id="z"><path d="M5.18-6.602L2.234 0H1.29l2.934-6.367H.375v-.742H5.18zm0 0"/></symbol><symbol overflow="visible" id="A"><path d="M4.746-3.14H1.762V0H.824v-7.11H5.23v.774H1.762v2.43h2.984zm0 0"/></symbol><symbol overflow="visible" id="B"><path d="M2.875.098c-.715 0-1.297-.235-1.746-.707-.45-.47-.676-1.098-.676-1.887v-.164c0-.524.102-.992.3-1.406.2-.41.481-.735.84-.965.36-.235.75-.352 1.173-.352.687 0 1.218.227 1.601.68.38.453.57 1.101.57 1.945v.375H1.36c.012.52.164.942.454 1.262.292.32.664.48 1.113.48.316 0 .59-.062.808-.195.223-.129.414-.3.582-.516l.551.43c-.441.68-1.105 1.02-1.992 1.02zm-.11-4.739a1.21 1.21 0 00-.921.399c-.246.265-.399.64-.457 1.117H4.03v-.07c-.023-.457-.148-.813-.367-1.067-.223-.25-.523-.379-.898-.379zm0 0"/></symbol><symbol overflow="visible" id="C"><path d="M5.156-2.582c0 .809-.187 1.453-.554 1.945-.372.489-.872.735-1.497.735-.667 0-1.183-.235-1.546-.707L1.516 0H.684v-7.5h.902v2.797c.367-.453.867-.68 1.508-.68.64 0 1.148.246 1.511.73.368.485.551 1.15.551 1.993zm-.902-.106c0-.613-.121-1.09-.356-1.421-.238-.336-.582-.504-1.027-.504-.598 0-1.023.277-1.285.828V-1.5c.277.555.71.832 1.297.832.43 0 .77-.168 1.008-.504.242-.336.363-.84.363-1.516zm0 0"/></symbol><symbol overflow="visible" id="D"><path d="M3.965-2.148h.887v.664h-.887V0h-.817v-1.484H.234v-.48l2.864-4.434h.867zm-2.809 0h1.992v-3.137l-.097.176zm0 0"/></symbol></defs><path d="M33.145 248.32V4m15.636 244.32V4m15.637 244.32V4m15.637 244.32V4m15.636 244.32V4m15.637 244.32V4m15.632 244.32V4m15.638 244.32V4m15.636 244.32V4m15.637 244.32V4m15.637 244.32V4m15.637 244.32V4m15.636 244.32V4m15.637 244.32V4m15.637 244.32V4m15.636 244.32V4m15.637 244.32V4m15.637 244.32V4m15.637 244.32V4m15.636 244.32V4m15.637 244.32V4m15.637 244.32V4m15.636 244.32V4m15.633 244.32V4m15.637 244.32V4m15.637 244.32V4M25 231.871h407.2M25 184.352h407.2M25 136.828h407.2M25 89.305h407.2M25 41.781h407.2" fill="none" stroke="#666" stroke-opacity=".5" stroke-dasharray="1,2" stroke-miterlimit="3.25"/><path d="M345.875 38.398l15.637-3.546 15.636-3.168 15.633-2.868 15.637-2.625 15.637-2.425" fill="none" stroke-width="1.6" stroke-linecap="square" stroke="#a60000" stroke-opacity=".3" stroke-miterlimit="3.25"/><path d="M345.875 48.7l15.637-3.677 15.636-3.285 15.633-2.953 15.637-2.695 15.637-2.485" fill="none" stroke-width="1.6" stroke-linecap="square" stroke="#0d86a0" stroke-opacity=".3" stroke-miterlimit="3.25"/><path d="M345.875 99.883l15.637-1.945 15.636-1.848 15.633-1.778 15.637-1.718 15.637-1.656" fill="none" stroke-width="1.6" stroke-linecap="square" stroke="#c05c20" stroke-opacity=".3" stroke-miterlimit="3.25"/><path d="M345.875 102.8l15.637-4.69 15.636-3.993 15.633-3.492 15.637-3.113 15.637-2.817" fill="none" stroke-width="1.6" stroke-linecap="square" stroke="#6f42b5" stroke-opacity=".3" stroke-miterlimit="3.25"/><path d="M345.875 107.11l15.637-3.305 15.636-2.98 15.633-2.72 15.637-2.507 15.637-2.325" fill="none" stroke-width="1.6" stroke-linecap="square" stroke="#769003" stroke-opacity=".3" stroke-miterlimit="3.25"/><path d="M345.875 108.793l15.637-2.969 15.636-2.715 15.633-2.507 15.637-2.329 15.637-2.18" fill="none" stroke-width="1.6" stroke-linecap="square" stroke="#a8364d" stroke-opacity=".3" stroke-miterlimit="3.25"/><path d="M345.875 114.36l15.637-3.797 15.636-3.387 15.633-3.04 15.637-2.765 15.637-2.543" fill="none" stroke-width="1.6" stroke-linecap="square" stroke="#3664cc" stroke-opacity=".3" stroke-miterlimit="3.25"/><path d="M345.875 115.066l15.637-3.523 15.636-3.113 15.633-2.82 15.637-2.583 15.637-2.379" fill="none" stroke-width="1.6" stroke-linecap="square" stroke="#c8860a" stroke-opacity=".3" stroke-miterlimit="3.25"/><path d="M345.875 118.93l15.637-3.016 15.636-2.656 15.633-2.477 15.637-2.293 15.637-2.144" fill="none" stroke-width="1.6" stroke-linecap="square" stroke="#833987" stroke-opacity=".3" stroke-miterlimit="3.25"/><path d="M345.875 121.813l15.637-3.004 15.636-2.73 15.633-2.52 15.637-2.34 15.637-2.188" fill="none" stroke-width="1.6" stroke-linecap="square" stroke="#1c8f6b" stroke-opacity=".3" stroke-miterlimit="3.25"/><path d="M345.875 122.316l15.637-2.882L377.148 117l15.633-2.352 15.637-2.156 15.637-2.039" fill="none" stroke-width="1.6" stroke-linecap="square" stroke="#a54f05" stroke-opacity=".3" stroke-miterlimit="3.25"/><path d="M33.145 155.23H95.69l15.637-1.921 15.633-6.618 15.637-13.796 15.636-10.27 15.637-7.844 15.637-8.531 15.637-5.379 15.636-7.719 15.637-8.843 15.637-8.914 15.636-6.825 15.637-10.316 15.637-5.793 15.637-5.277 15.636-4.73 15.637-4.056" fill="none" stroke-width="1.6" stroke-linecap="square" stroke="#a60000" stroke-miterlimit="3.25"/><path d="M33.145 155.23H95.69l15.637-1.921 15.633-6.618 15.637-13.796 15.636-10.165 15.637-6.402 15.637-6.781 15.637-3.484 15.636-4.383 15.637-5.852 15.637-7.57 15.636-6.235L283.328 68.7l15.637-5.566 15.637-5.262 15.636-4.867 15.637-4.305" fill="none" stroke-width="1.6" stroke-linecap="square" stroke="#0d86a0" stroke-miterlimit="3.25"/><path d="M189.508 198.656l15.637-14.304 15.636-30.106 15.637-7.555 15.637-10.671 15.636-4.286 15.637-6.218 15.637-11.086 15.637-7.61 15.636-4.683 15.637-2.254" fill="none" stroke-width="1.6" stroke-linecap="square" stroke="#c05c20" stroke-miterlimit="3.25"/><path d="M158.234 231.871l15.637-54.465 15.637-12.777 15.637-4.285 15.636-10.414 15.637-7.973 15.637-4.71 15.636-8.231 15.637-5.22 15.637-5.124 15.637-5.262 15.636-4.828 15.637-5.781" fill="none" stroke-width="1.6" stroke-linecap="square" stroke="#6f42b5" stroke-miterlimit="3.25"/><path d="M189.508 231.871l15.637-33.215 15.636-12.133 15.637-26.18 15.637-19.671 15.636-8.938 15.637-5.613 15.637-4.21 15.637-6.184 15.636-4.872 15.637-3.746" fill="none" stroke-width="1.6" stroke-linecap="square" stroke="#769003" stroke-miterlimit="3.25"/><path d="M189.508 231.871l15.637-45.348 15.636-20.242 15.637-12.035 15.637-9.762 15.636-7.656 15.637-7.383 15.637-8.984 15.637-4.66 15.636-3.739 15.637-3.269" fill="none" stroke-width="1.6" stroke-linecap="square" stroke="#a8364d" stroke-miterlimit="3.25"/><path d="M205.145 231.871l15.636-55.89 15.637-19.72 15.637-8.89 15.636-3.184 15.637-8.562 15.637-7.438 15.637-5.664 15.636-3.503 15.637-4.66" fill="none" stroke-width="1.6" stroke-linecap="square" stroke="#3664cc" stroke-miterlimit="3.25"/><path d="M189.508 217.566l15.637-8.367 15.636-17.488 15.637-19.492 15.637-14.305 15.636-5.937 15.637-8.372 15.637-8.558 15.637-8.176 15.636-8.113 15.637-3.692" fill="none" stroke-width="1.6" stroke-linecap="square" stroke="#c8860a" stroke-miterlimit="3.25"/><path d="M189.508 198.656l15.637-12.133 15.636-22.671 15.637-15.422 15.637-5.664 15.636-7.907 15.637-3.761 15.637-2.223 15.637-2.383 15.636-4.582 15.637-2.98" fill="none" stroke-width="1.6" stroke-linecap="square" stroke="#833987" stroke-miterlimit="3.25"/><path d="M189.508 217.566l15.637-18.91 15.636-22.676 15.637-12.878 15.637-9.332 15.636-9.286L283.328 139l15.637-3.762 15.637-5.648 15.636-4.547 15.637-3.23" fill="none" stroke-width="1.6" stroke-linecap="square" stroke="#1c8f6b" stroke-miterlimit="3.25"/><path d="M189.508 231.871l15.637-36.98 15.636-8.368 15.637-17.488 15.637-12.773 15.636-9.899 15.637-6.66 15.637-6.808 15.637-3.735 15.636-4.234 15.637-2.61" fill="none" stroke-width="1.6" stroke-linecap="square" stroke="#a54f05" stroke-miterlimit="3.25"/><path d="M347.867 38c0-.496-.199-.969-.547-1.32a1.879 1.879 0 00-1.32-.547c-.496 0-.969.199-1.32.547a1.879 1.879 0 00-.547 1.32c0 .496.199.969.547 1.32.351.348.824.547 1.32.547.496 0 .969-.199 1.32-.547.348-.351.547-.824.547-1.32zm16-3c0-.496-.199-.969-.547-1.32a1.879 1.879 0 00-1.32-.547c-.496 0-.969.199-1.32.547a1.879 1.879 0 00-.547 1.32c0 .496.199.969.547 1.32.351.348.824.547 1.32.547.496 0 .969-.199 1.32-.547.348-.351.547-.824.547-1.32zm15-3c0-.496-.199-.969-.547-1.32a1.879 1.879 0 00-1.32-.547c-.496 0-.969.199-1.32.547a1.879 1.879 0 00-.547 1.32c0 .496.199.969.547 1.32.351.348.824.547 1.32.547.496 0 .969-.199 1.32-.547.348-.351.547-.824.547-1.32zm16-3c0-.496-.199-.969-.547-1.32a1.879 1.879 0 00-1.32-.547c-.496 0-.969.199-1.32.547a1.879 1.879 0 00-.547 1.32c0 .496.199.969.547 1.32.351.348.824.547 1.32.547.496 0 .969-.199 1.32-.547.348-.351.547-.824.547-1.32zm15-3c0-.496-.199-.969-.547-1.32a1.879 1.879 0 00-1.32-.547c-.496 0-.969.199-1.32.547a1.879 1.879 0 00-.547 1.32c0 .496.199.969.547 1.32.351.348.824.547 1.32.547.496 0 .969-.199 1.32-.547.348-.351.547-.824.547-1.32zm16-2c0-.496-.199-.969-.547-1.32a1.879 1.879 0 00-1.32-.547c-.496 0-.969.199-1.32.547a1.879 1.879 0 00-.547 1.32c0 .496.199.969.547 1.32.351.348.824.547 1.32.547.496 0 .969-.199 1.32-.547.348-.351.547-.824.547-1.32zm0 0" fill-rule="evenodd" fill="#a60000" fill-opacity=".3"/><path d="M347.867 49c0-.496-.199-.969-.547-1.32a1.879 1.879 0 00-1.32-.547c-.496 0-.969.199-1.32.547a1.879 1.879 0 00-.547 1.32c0 .496.199.969.547 1.32.351.348.824.547 1.32.547.496 0 .969-.199 1.32-.547.348-.351.547-.824.547-1.32zm16-4c0-.496-.199-.969-.547-1.32a1.879 1.879 0 00-1.32-.547c-.496 0-.969.199-1.32.547a1.879 1.879 0 00-.547 1.32c0 .496.199.969.547 1.32.351.348.824.547 1.32.547.496 0 .969-.199 1.32-.547.348-.351.547-.824.547-1.32zm15-3c0-.496-.199-.969-.547-1.32a1.879 1.879 0 00-1.32-.547c-.496 0-.969.199-1.32.547a1.879 1.879 0 00-.547 1.32c0 .496.199.969.547 1.32.351.348.824.547 1.32.547.496 0 .969-.199 1.32-.547.348-.351.547-.824.547-1.32zm16-3c0-.496-.199-.969-.547-1.32a1.879 1.879 0 00-1.32-.547c-.496 0-.969.199-1.32.547a1.879 1.879 0 00-.547 1.32c0 .496.199.969.547 1.32.351.348.824.547 1.32.547.496 0 .969-.199 1.32-.547.348-.351.547-.824.547-1.32zm15-3c0-.496-.199-.969-.547-1.32a1.879 1.879 0 00-1.32-.547c-.496 0-.969.199-1.32.547a1.879 1.879 0 00-.547 1.32c0 .496.199.969.547 1.32.351.348.824.547 1.32.547.496 0 .969-.199 1.32-.547.348-.351.547-.824.547-1.32zm16-2c0-.496-.199-.969-.547-1.32a1.879 1.879 0 00-1.32-.547c-.496 0-.969.199-1.32.547a1.879 1.879 0 00-.547 1.32c0 .496.199.969.547 1.32.351.348.824.547 1.32.547.496 0 .969-.199 1.32-.547.348-.351.547-.824.547-1.32zm0 0" fill-rule="evenodd" fill="#0d86a0" fill-opacity=".3"/><path d="M347.867 100c0-.496-.199-.969-.547-1.32a1.879 1.879 0 00-1.32-.547c-.496 0-.969.199-1.32.547a1.879 1.879 0 00-.547 1.32c0 .496.199.969.547 1.32.351.348.824.547 1.32.547.496 0 .969-.199 1.32-.547.348-.351.547-.824.547-1.32zm16-2c0-.496-.199-.969-.547-1.32a1.879 1.879 0 00-1.32-.547c-.496 0-.969.199-1.32.547a1.879 1.879 0 00-.547 1.32c0 .496.199.969.547 1.32.351.348.824.547 1.32.547.496 0 .969-.199 1.32-.547.348-.351.547-.824.547-1.32zm15-2c0-.496-.199-.969-.547-1.32a1.879 1.879 0 00-1.32-.547c-.496 0-.969.199-1.32.547a1.879 1.879 0 00-.547 1.32c0 .496.199.969.547 1.32.351.348.824.547 1.32.547.496 0 .969-.199 1.32-.547.348-.351.547-.824.547-1.32zm16-2c0-.496-.199-.969-.547-1.32a1.879 1.879 0 00-1.32-.547c-.496 0-.969.199-1.32.547a1.879 1.879 0 00-.547 1.32c0 .496.199.969.547 1.32.351.348.824.547 1.32.547.496 0 .969-.199 1.32-.547.348-.351.547-.824.547-1.32zm15-1c0-.496-.199-.969-.547-1.32a1.879 1.879 0 00-1.32-.547c-.496 0-.969.199-1.32.547a1.879 1.879 0 00-.547 1.32c0 .496.199.969.547 1.32.351.348.824.547 1.32.547.496 0 .969-.199 1.32-.547.348-.351.547-.824.547-1.32zm16-2c0-.496-.199-.969-.547-1.32a1.879 1.879 0 00-1.32-.547c-.496 0-.969.199-1.32.547a1.879 1.879 0 00-.547 1.32c0 .496.199.969.547 1.32.351.348.824.547 1.32.547.496 0 .969-.199 1.32-.547.348-.351.547-.824.547-1.32zm0 0" fill-rule="evenodd" fill="#c05c20" fill-opacity=".3"/><path d="M347.867 103c0-.496-.199-.969-.547-1.32a1.879 1.879 0 00-1.32-.547c-.496 0-.969.199-1.32.547a1.879 1.879 0 00-.547 1.32c0 .496.199.969.547 1.32.351.348.824.547 1.32.547.496 0 .969-.199 1.32-.547.348-.351.547-.824.547-1.32zm16-5c0-.496-.199-.969-.547-1.32a1.879 1.879 0 00-1.32-.547c-.496 0-.969.199-1.32.547a1.879 1.879 0 00-.547 1.32c0 .496.199.969.547 1.32.351.348.824.547 1.32.547.496 0 .969-.199 1.32-.547.348-.351.547-.824.547-1.32zm15-4c0-.496-.199-.969-.547-1.32a1.879 1.879 0 00-1.32-.547c-.496 0-.969.199-1.32.547a1.879 1.879 0 00-.547 1.32c0 .496.199.969.547 1.32.351.348.824.547 1.32.547.496 0 .969-.199 1.32-.547.348-.351.547-.824.547-1.32zm16-3c0-.496-.199-.969-.547-1.32a1.879 1.879 0 00-1.32-.547c-.496 0-.969.199-1.32.547a1.879 1.879 0 00-.547 1.32c0 .496.199.969.547 1.32.351.348.824.547 1.32.547.496 0 .969-.199 1.32-.547.348-.351.547-.824.547-1.32zm15-3c0-.496-.199-.969-.547-1.32a1.879 1.879 0 00-1.32-.547c-.496 0-.969.199-1.32.547a1.879 1.879 0 00-.547 1.32c0 .496.199.969.547 1.32.351.348.824.547 1.32.547.496 0 .969-.199 1.32-.547.348-.351.547-.824.547-1.32zm16-3c0-.496-.199-.969-.547-1.32a1.879 1.879 0 00-1.32-.547c-.496 0-.969.199-1.32.547a1.879 1.879 0 00-.547 1.32c0 .496.199.969.547 1.32.351.348.824.547 1.32.547.496 0 .969-.199 1.32-.547.348-.351.547-.824.547-1.32zm0 0" fill-rule="evenodd" fill="#6f42b5" fill-opacity=".3"/><path d="M347.867 107c0-.496-.199-.969-.547-1.32a1.879 1.879 0 00-1.32-.547c-.496 0-.969.199-1.32.547a1.879 1.879 0 00-.547 1.32c0 .496.199.969.547 1.32.351.348.824.547 1.32.547.496 0 .969-.199 1.32-.547.348-.351.547-.824.547-1.32zm16-3c0-.496-.199-.969-.547-1.32a1.879 1.879 0 00-1.32-.547c-.496 0-.969.199-1.32.547a1.879 1.879 0 00-.547 1.32c0 .496.199.969.547 1.32.351.348.824.547 1.32.547.496 0 .969-.199 1.32-.547.348-.351.547-.824.547-1.32zm15-3c0-.496-.199-.969-.547-1.32a1.879 1.879 0 00-1.32-.547c-.496 0-.969.199-1.32.547a1.879 1.879 0 00-.547 1.32c0 .496.199.969.547 1.32.351.348.824.547 1.32.547.496 0 .969-.199 1.32-.547.348-.351.547-.824.547-1.32zm16-3c0-.496-.199-.969-.547-1.32a1.879 1.879 0 00-1.32-.547c-.496 0-.969.199-1.32.547a1.879 1.879 0 00-.547 1.32c0 .496.199.969.547 1.32.351.348.824.547 1.32.547.496 0 .969-.199 1.32-.547.348-.351.547-.824.547-1.32zm15-2c0-.496-.199-.969-.547-1.32a1.879 1.879 0 00-1.32-.547c-.496 0-.969.199-1.32.547a1.879 1.879 0 00-.547 1.32c0 .496.199.969.547 1.32.351.348.824.547 1.32.547.496 0 .969-.199 1.32-.547.348-.351.547-.824.547-1.32zm16-3c0-.496-.199-.969-.547-1.32a1.879 1.879 0 00-1.32-.547c-.496 0-.969.199-1.32.547a1.879 1.879 0 00-.547 1.32c0 .496.199.969.547 1.32.351.348.824.547 1.32.547.496 0 .969-.199 1.32-.547.348-.351.547-.824.547-1.32zm0 0" fill-rule="evenodd" fill="#769003" fill-opacity=".3"/><path d="M347.867 109c0-.496-.199-.969-.547-1.32a1.879 1.879 0 00-1.32-.547c-.496 0-.969.199-1.32.547a1.879 1.879 0 00-.547 1.32c0 .496.199.969.547 1.32.351.348.824.547 1.32.547.496 0 .969-.199 1.32-.547.348-.351.547-.824.547-1.32zm16-3c0-.496-.199-.969-.547-1.32a1.879 1.879 0 00-1.32-.547c-.496 0-.969.199-1.32.547a1.879 1.879 0 00-.547 1.32c0 .496.199.969.547 1.32.351.348.824.547 1.32.547.496 0 .969-.199 1.32-.547.348-.351.547-.824.547-1.32zm15-3c0-.496-.199-.969-.547-1.32a1.879 1.879 0 00-1.32-.547c-.496 0-.969.199-1.32.547a1.879 1.879 0 00-.547 1.32c0 .496.199.969.547 1.32.351.348.824.547 1.32.547.496 0 .969-.199 1.32-.547.348-.351.547-.824.547-1.32zm16-2c0-.496-.199-.969-.547-1.32a1.879 1.879 0 00-1.32-.547c-.496 0-.969.199-1.32.547a1.879 1.879 0 00-.547 1.32c0 .496.199.969.547 1.32.351.348.824.547 1.32.547.496 0 .969-.199 1.32-.547.348-.351.547-.824.547-1.32zm15-3c0-.496-.199-.969-.547-1.32a1.879 1.879 0 00-1.32-.547c-.496 0-.969.199-1.32.547a1.879 1.879 0 00-.547 1.32c0 .496.199.969.547 1.32.351.348.824.547 1.32.547.496 0 .969-.199 1.32-.547.348-.351.547-.824.547-1.32zm16-2c0-.496-.199-.969-.547-1.32a1.879 1.879 0 00-1.32-.547c-.496 0-.969.199-1.32.547a1.879 1.879 0 00-.547 1.32c0 .496.199.969.547 1.32.351.348.824.547 1.32.547.496 0 .969-.199 1.32-.547.348-.351.547-.824.547-1.32zm0 0" fill-rule="evenodd" fill="#a8364d" fill-opacity=".3"/><path d="M347.867 114c0-.496-.199-.969-.547-1.32a1.879 1.879 0 00-1.32-.547c-.496 0-.969.199-1.32.547a1.879 1.879 0 00-.547 1.32c0 .496.199.969.547 1.32.351.348.824.547 1.32.547.496 0 .969-.199 1.32-.547.348-.351.547-.824.547-1.32zm16-3c0-.496-.199-.969-.547-1.32a1.879 1.879 0 00-1.32-.547c-.496 0-.969.199-1.32.547a1.879 1.879 0 00-.547 1.32c0 .496.199.969.547 1.32.351.348.824.547 1.32.547.496 0 .969-.199 1.32-.547.348-.351.547-.824.547-1.32zm15-4c0-.496-.199-.969-.547-1.32a1.879 1.879 0 00-1.32-.547c-.496 0-.969.199-1.32.547a1.879 1.879 0 00-.547 1.32c0 .496.199.969.547 1.32.351.348.824.547 1.32.547.496 0 .969-.199 1.32-.547.348-.351.547-.824.547-1.32zm16-3c0-.496-.199-.969-.547-1.32a1.879 1.879 0 00-1.32-.547c-.496 0-.969.199-1.32.547a1.879 1.879 0 00-.547 1.32c0 .496.199.969.547 1.32.351.348.824.547 1.32.547.496 0 .969-.199 1.32-.547.348-.351.547-.824.547-1.32zm15-3c0-.496-.199-.969-.547-1.32a1.879 1.879 0 00-1.32-.547c-.496 0-.969.199-1.32.547a1.879 1.879 0 00-.547 1.32c0 .496.199.969.547 1.32.351.348.824.547 1.32.547.496 0 .969-.199 1.32-.547.348-.351.547-.824.547-1.32zm16-2c0-.496-.199-.969-.547-1.32a1.879 1.879 0 00-1.32-.547c-.496 0-.969.199-1.32.547a1.879 1.879 0 00-.547 1.32c0 .496.199.969.547 1.32.351.348.824.547 1.32.547.496 0 .969-.199 1.32-.547.348-.351.547-.824.547-1.32zm0 0" fill-rule="evenodd" fill="#3664cc" fill-opacity=".3"/><path d="M347.867 115c0-.496-.199-.969-.547-1.32a1.879 1.879 0 00-1.32-.547c-.496 0-.969.199-1.32.547a1.879 1.879 0 00-.547 1.32c0 .496.199.969.547 1.32.351.348.824.547 1.32.547.496 0 .969-.199 1.32-.547.348-.351.547-.824.547-1.32zm16-3c0-.496-.199-.969-.547-1.32a1.879 1.879 0 00-1.32-.547c-.496 0-.969.199-1.32.547a1.879 1.879 0 00-.547 1.32c0 .496.199.969.547 1.32.351.348.824.547 1.32.547.496 0 .969-.199 1.32-.547.348-.351.547-.824.547-1.32zm15-4c0-.496-.199-.969-.547-1.32a1.879 1.879 0 00-1.32-.547c-.496 0-.969.199-1.32.547a1.879 1.879 0 00-.547 1.32c0 .496.199.969.547 1.32.351.348.824.547 1.32.547.496 0 .969-.199 1.32-.547.348-.351.547-.824.547-1.32zm16-2c0-.496-.199-.969-.547-1.32a1.879 1.879 0 00-1.32-.547c-.496 0-.969.199-1.32.547a1.879 1.879 0 00-.547 1.32c0 .496.199.969.547 1.32.351.348.824.547 1.32.547.496 0 .969-.199 1.32-.547.348-.351.547-.824.547-1.32zm15-3c0-.496-.199-.969-.547-1.32a1.879 1.879 0 00-1.32-.547c-.496 0-.969.199-1.32.547a1.879 1.879 0 00-.547 1.32c0 .496.199.969.547 1.32.351.348.824.547 1.32.547.496 0 .969-.199 1.32-.547.348-.351.547-.824.547-1.32zm16-2c0-.496-.199-.969-.547-1.32a1.879 1.879 0 00-1.32-.547c-.496 0-.969.199-1.32.547a1.879 1.879 0 00-.547 1.32c0 .496.199.969.547 1.32.351.348.824.547 1.32.547.496 0 .969-.199 1.32-.547.348-.351.547-.824.547-1.32zm0 0" fill-rule="evenodd" fill="#c8860a" fill-opacity=".3"/><path d="M347.867 119c0-.496-.199-.969-.547-1.32a1.879 1.879 0 00-1.32-.547c-.496 0-.969.199-1.32.547a1.879 1.879 0 00-.547 1.32c0 .496.199.969.547 1.32.351.348.824.547 1.32.547.496 0 .969-.199 1.32-.547.348-.351.547-.824.547-1.32zm16-3c0-.496-.199-.969-.547-1.32a1.879 1.879 0 00-1.32-.547c-.496 0-.969.199-1.32.547a1.879 1.879 0 00-.547 1.32c0 .496.199.969.547 1.32.351.348.824.547 1.32.547.496 0 .969-.199 1.32-.547.348-.351.547-.824.547-1.32zm15-3c0-.496-.199-.969-.547-1.32a1.879 1.879 0 00-1.32-.547c-.496 0-.969.199-1.32.547a1.879 1.879 0 00-.547 1.32c0 .496.199.969.547 1.32.351.348.824.547 1.32.547.496 0 .969-.199 1.32-.547.348-.351.547-.824.547-1.32zm16-2c0-.496-.199-.969-.547-1.32a1.879 1.879 0 00-1.32-.547c-.496 0-.969.199-1.32.547a1.879 1.879 0 00-.547 1.32c0 .496.199.969.547 1.32.351.348.824.547 1.32.547.496 0 .969-.199 1.32-.547.348-.351.547-.824.547-1.32zm15-3c0-.496-.199-.969-.547-1.32a1.879 1.879 0 00-1.32-.547c-.496 0-.969.199-1.32.547a1.879 1.879 0 00-.547 1.32c0 .496.199.969.547 1.32.351.348.824.547 1.32.547.496 0 .969-.199 1.32-.547.348-.351.547-.824.547-1.32zm16-2c0-.496-.199-.969-.547-1.32a1.879 1.879 0 00-1.32-.547c-.496 0-.969.199-1.32.547a1.879 1.879 0 00-.547 1.32c0 .496.199.969.547 1.32.351.348.824.547 1.32.547.496 0 .969-.199 1.32-.547.348-.351.547-.824.547-1.32zm0 0" fill-rule="evenodd" fill="#833987" fill-opacity=".3"/><path d="M347.867 122c0-.496-.199-.969-.547-1.32a1.879 1.879 0 00-1.32-.547c-.496 0-.969.199-1.32.547a1.879 1.879 0 00-.547 1.32c0 .496.199.969.547 1.32.351.348.824.547 1.32.547.496 0 .969-.199 1.32-.547.348-.351.547-.824.547-1.32zm16-3c0-.496-.199-.969-.547-1.32a1.879 1.879 0 00-1.32-.547c-.496 0-.969.199-1.32.547a1.879 1.879 0 00-.547 1.32c0 .496.199.969.547 1.32.351.348.824.547 1.32.547.496 0 .969-.199 1.32-.547.348-.351.547-.824.547-1.32zm15-3c0-.496-.199-.969-.547-1.32a1.879 1.879 0 00-1.32-.547c-.496 0-.969.199-1.32.547a1.879 1.879 0 00-.547 1.32c0 .496.199.969.547 1.32.351.348.824.547 1.32.547.496 0 .969-.199 1.32-.547.348-.351.547-.824.547-1.32zm16-2c0-.496-.199-.969-.547-1.32a1.879 1.879 0 00-1.32-.547c-.496 0-.969.199-1.32.547a1.879 1.879 0 00-.547 1.32c0 .496.199.969.547 1.32.351.348.824.547 1.32.547.496 0 .969-.199 1.32-.547.348-.351.547-.824.547-1.32zm15-3c0-.496-.199-.969-.547-1.32a1.879 1.879 0 00-1.32-.547c-.496 0-.969.199-1.32.547a1.879 1.879 0 00-.547 1.32c0 .496.199.969.547 1.32.351.348.824.547 1.32.547.496 0 .969-.199 1.32-.547.348-.351.547-.824.547-1.32zm16-2c0-.496-.199-.969-.547-1.32a1.879 1.879 0 00-1.32-.547c-.496 0-.969.199-1.32.547a1.879 1.879 0 00-.547 1.32c0 .496.199.969.547 1.32.351.348.824.547 1.32.547.496 0 .969-.199 1.32-.547.348-.351.547-.824.547-1.32zm0 0" fill-rule="evenodd" fill="#1c8f6b" fill-opacity=".3"/><path d="M347.867 122c0-.496-.199-.969-.547-1.32a1.879 1.879 0 00-1.32-.547c-.496 0-.969.199-1.32.547a1.879 1.879 0 00-.547 1.32c0 .496.199.969.547 1.32.351.348.824.547 1.32.547.496 0 .969-.199 1.32-.547.348-.351.547-.824.547-1.32zm16-3c0-.496-.199-.969-.547-1.32a1.879 1.879 0 00-1.32-.547c-.496 0-.969.199-1.32.547a1.879 1.879 0 00-.547 1.32c0 .496.199.969.547 1.32.351.348.824.547 1.32.547.496 0 .969-.199 1.32-.547.348-.351.547-.824.547-1.32zm15-2c0-.496-.199-.969-.547-1.32a1.879 1.879 0 00-1.32-.547c-.496 0-.969.199-1.32.547a1.879 1.879 0 00-.547 1.32c0 .496.199.969.547 1.32.351.348.824.547 1.32.547.496 0 .969-.199 1.32-.547.348-.351.547-.824.547-1.32zm16-2c0-.496-.199-.969-.547-1.32a1.879 1.879 0 00-1.32-.547c-.496 0-.969.199-1.32.547a1.879 1.879 0 00-.547 1.32c0 .496.199.969.547 1.32.351.348.824.547 1.32.547.496 0 .969-.199 1.32-.547.348-.351.547-.824.547-1.32zm15-3c0-.496-.199-.969-.547-1.32a1.879 1.879 0 00-1.32-.547c-.496 0-.969.199-1.32.547a1.879 1.879 0 00-.547 1.32c0 .496.199.969.547 1.32.351.348.824.547 1.32.547.496 0 .969-.199 1.32-.547.348-.351.547-.824.547-1.32zm16-2c0-.496-.199-.969-.547-1.32a1.879 1.879 0 00-1.32-.547c-.496 0-.969.199-1.32.547a1.879 1.879 0 00-.547 1.32c0 .496.199.969.547 1.32.351.348.824.547 1.32.547.496 0 .969-.199 1.32-.547.348-.351.547-.824.547-1.32zm0 0" fill-rule="evenodd" fill="#a54f05" fill-opacity=".3"/><path d="M34.867 155c0-.496-.199-.969-.547-1.32a1.879 1.879 0 00-1.32-.547c-.496 0-.969.199-1.32.547a1.879 1.879 0 00-.547 1.32c0 .496.199.969.547 1.32.351.348.824.547 1.32.547.496 0 .969-.199 1.32-.547.348-.351.547-.824.547-1.32zm16 0c0-.496-.199-.969-.547-1.32a1.879 1.879 0 00-1.32-.547c-.496 0-.969.199-1.32.547a1.879 1.879 0 00-.547 1.32c0 .496.199.969.547 1.32.351.348.824.547 1.32.547.496 0 .969-.199 1.32-.547.348-.351.547-.824.547-1.32zm15 0c0-.496-.199-.969-.547-1.32a1.879 1.879 0 00-1.32-.547c-.496 0-.969.199-1.32.547a1.879 1.879 0 00-.547 1.32c0 .496.199.969.547 1.32.351.348.824.547 1.32.547.496 0 .969-.199 1.32-.547.348-.351.547-.824.547-1.32zm16 0c0-.496-.199-.969-.547-1.32a1.879 1.879 0 00-1.32-.547c-.496 0-.969.199-1.32.547a1.879 1.879 0 00-.547 1.32c0 .496.199.969.547 1.32.351.348.824.547 1.32.547.496 0 .969-.199 1.32-.547.348-.351.547-.824.547-1.32zm16 0c0-.496-.199-.969-.547-1.32a1.879 1.879 0 00-1.32-.547c-.496 0-.969.199-1.32.547a1.879 1.879 0 00-.547 1.32c0 .496.199.969.547 1.32.351.348.824.547 1.32.547.496 0 .969-.199 1.32-.547.348-.351.547-.824.547-1.32zm15-2c0-.496-.199-.969-.547-1.32a1.879 1.879 0 00-1.32-.547c-.496 0-.969.199-1.32.547a1.879 1.879 0 00-.547 1.32c0 .496.199.969.547 1.32.351.348.824.547 1.32.547.496 0 .969-.199 1.32-.547.348-.351.547-.824.547-1.32zm16-6c0-.496-.199-.969-.547-1.32a1.879 1.879 0 00-1.32-.547c-.496 0-.969.199-1.32.547a1.879 1.879 0 00-.547 1.32c0 .496.199.969.547 1.32.351.348.824.547 1.32.547.496 0 .969-.199 1.32-.547.348-.351.547-.824.547-1.32zm16-14c0-.496-.199-.969-.547-1.32a1.879 1.879 0 00-1.32-.547c-.496 0-.969.199-1.32.547a1.879 1.879 0 00-.547 1.32c0 .496.199.969.547 1.32.351.348.824.547 1.32.547.496 0 .969-.199 1.32-.547.348-.351.547-.824.547-1.32zm15-10c0-.496-.199-.969-.547-1.32a1.879 1.879 0 00-1.32-.547c-.496 0-.969.199-1.32.547a1.879 1.879 0 00-.547 1.32c0 .496.199.969.547 1.32.351.348.824.547 1.32.547.496 0 .969-.199 1.32-.547.348-.351.547-.824.547-1.32zm16-8c0-.496-.199-.969-.547-1.32a1.879 1.879 0 00-1.32-.547c-.496 0-.969.199-1.32.547a1.879 1.879 0 00-.547 1.32c0 .496.199.969.547 1.32.351.348.824.547 1.32.547.496 0 .969-.199 1.32-.547.348-.351.547-.824.547-1.32zm16-9c0-.496-.199-.969-.547-1.32a1.879 1.879 0 00-1.32-.547c-.496 0-.969.199-1.32.547a1.879 1.879 0 00-.547 1.32c0 .496.199.969.547 1.32.351.348.824.547 1.32.547.496 0 .969-.199 1.32-.547.348-.351.547-.824.547-1.32zm15-5c0-.496-.199-.969-.547-1.32a1.879 1.879 0 00-1.32-.547c-.496 0-.969.199-1.32.547a1.879 1.879 0 00-.547 1.32c0 .496.199.969.547 1.32.351.348.824.547 1.32.547.496 0 .969-.199 1.32-.547.348-.351.547-.824.547-1.32zm16-8c0-.496-.199-.969-.547-1.32a1.879 1.879 0 00-1.32-.547c-.496 0-.969.199-1.32.547a1.879 1.879 0 00-.547 1.32c0 .496.199.969.547 1.32.351.348.824.547 1.32.547.496 0 .969-.199 1.32-.547.348-.351.547-.824.547-1.32zm15-9c0-.496-.199-.969-.547-1.32a1.879 1.879 0 00-1.32-.547c-.496 0-.969.199-1.32.547a1.879 1.879 0 00-.547 1.32c0 .496.199.969.547 1.32.351.348.824.547 1.32.547.496 0 .969-.199 1.32-.547.348-.351.547-.824.547-1.32zm16-9c0-.496-.199-.969-.547-1.32a1.879 1.879 0 00-1.32-.547c-.496 0-.969.199-1.32.547a1.879 1.879 0 00-.547 1.32c0 .496.199.969.547 1.32.351.348.824.547 1.32.547.496 0 .969-.199 1.32-.547.348-.351.547-.824.547-1.32zm16-6c0-.496-.199-.969-.547-1.32a1.879 1.879 0 00-1.32-.547c-.496 0-.969.199-1.32.547a1.879 1.879 0 00-.547 1.32c0 .496.199.969.547 1.32.351.348.824.547 1.32.547.496 0 .969-.199 1.32-.547.348-.351.547-.824.547-1.32zm15-11c0-.496-.199-.969-.547-1.32a1.879 1.879 0 00-1.32-.547c-.496 0-.969.199-1.32.547a1.879 1.879 0 00-.547 1.32c0 .496.199.969.547 1.32.351.348.824.547 1.32.547.496 0 .969-.199 1.32-.547.348-.351.547-.824.547-1.32zm16-6c0-.496-.199-.969-.547-1.32a1.879 1.879 0 00-1.32-.547c-.496 0-.969.199-1.32.547a1.879 1.879 0 00-.547 1.32c0 .496.199.969.547 1.32.351.348.824.547 1.32.547.496 0 .969-.199 1.32-.547.348-.351.547-.824.547-1.32zm16-5c0-.496-.199-.969-.547-1.32a1.879 1.879 0 00-1.32-.547c-.496 0-.969.199-1.32.547a1.879 1.879 0 00-.547 1.32c0 .496.199.969.547 1.32.351.348.824.547 1.32.547.496 0 .969-.199 1.32-.547.348-.351.547-.824.547-1.32zm15-5c0-.496-.199-.969-.547-1.32a1.879 1.879 0 00-1.32-.547c-.496 0-.969.199-1.32.547a1.879 1.879 0 00-.547 1.32c0 .496.199.969.547 1.32.351.348.824.547 1.32.547.496 0 .969-.199 1.32-.547.348-.351.547-.824.547-1.32zm16-4c0-.496-.199-.969-.547-1.32a1.879 1.879 0 00-1.32-.547c-.496 0-.969.199-1.32.547a1.879 1.879 0 00-.547 1.32c0 .496.199.969.547 1.32.351.348.824.547 1.32.547.496 0 .969-.199 1.32-.547.348-.351.547-.824.547-1.32zm0 0" fill-rule="evenodd" fill="#a60000"/><path d="M34.867 155c0-.496-.199-.969-.547-1.32a1.879 1.879 0 00-1.32-.547c-.496 0-.969.199-1.32.547a1.879 1.879 0 00-.547 1.32c0 .496.199.969.547 1.32.351.348.824.547 1.32.547.496 0 .969-.199 1.32-.547.348-.351.547-.824.547-1.32zm16 0c0-.496-.199-.969-.547-1.32a1.879 1.879 0 00-1.32-.547c-.496 0-.969.199-1.32.547a1.879 1.879 0 00-.547 1.32c0 .496.199.969.547 1.32.351.348.824.547 1.32.547.496 0 .969-.199 1.32-.547.348-.351.547-.824.547-1.32zm15 0c0-.496-.199-.969-.547-1.32a1.879 1.879 0 00-1.32-.547c-.496 0-.969.199-1.32.547a1.879 1.879 0 00-.547 1.32c0 .496.199.969.547 1.32.351.348.824.547 1.32.547.496 0 .969-.199 1.32-.547.348-.351.547-.824.547-1.32zm16 0c0-.496-.199-.969-.547-1.32a1.879 1.879 0 00-1.32-.547c-.496 0-.969.199-1.32.547a1.879 1.879 0 00-.547 1.32c0 .496.199.969.547 1.32.351.348.824.547 1.32.547.496 0 .969-.199 1.32-.547.348-.351.547-.824.547-1.32zm16 0c0-.496-.199-.969-.547-1.32a1.879 1.879 0 00-1.32-.547c-.496 0-.969.199-1.32.547a1.879 1.879 0 00-.547 1.32c0 .496.199.969.547 1.32.351.348.824.547 1.32.547.496 0 .969-.199 1.32-.547.348-.351.547-.824.547-1.32zm15-2c0-.496-.199-.969-.547-1.32a1.879 1.879 0 00-1.32-.547c-.496 0-.969.199-1.32.547a1.879 1.879 0 00-.547 1.32c0 .496.199.969.547 1.32.351.348.824.547 1.32.547.496 0 .969-.199 1.32-.547.348-.351.547-.824.547-1.32zm16-6c0-.496-.199-.969-.547-1.32a1.879 1.879 0 00-1.32-.547c-.496 0-.969.199-1.32.547a1.879 1.879 0 00-.547 1.32c0 .496.199.969.547 1.32.351.348.824.547 1.32.547.496 0 .969-.199 1.32-.547.348-.351.547-.824.547-1.32zm16-14c0-.496-.199-.969-.547-1.32a1.879 1.879 0 00-1.32-.547c-.496 0-.969.199-1.32.547a1.879 1.879 0 00-.547 1.32c0 .496.199.969.547 1.32.351.348.824.547 1.32.547.496 0 .969-.199 1.32-.547.348-.351.547-.824.547-1.32zm15-10c0-.496-.199-.969-.547-1.32a1.879 1.879 0 00-1.32-.547c-.496 0-.969.199-1.32.547a1.879 1.879 0 00-.547 1.32c0 .496.199.969.547 1.32.351.348.824.547 1.32.547.496 0 .969-.199 1.32-.547.348-.351.547-.824.547-1.32zm16-7c0-.496-.199-.969-.547-1.32a1.879 1.879 0 00-1.32-.547c-.496 0-.969.199-1.32.547a1.879 1.879 0 00-.547 1.32c0 .496.199.969.547 1.32.351.348.824.547 1.32.547.496 0 .969-.199 1.32-.547.348-.351.547-.824.547-1.32zm16-6c0-.496-.199-.969-.547-1.32a1.879 1.879 0 00-1.32-.547c-.496 0-.969.199-1.32.547a1.879 1.879 0 00-.547 1.32c0 .496.199.969.547 1.32.351.348.824.547 1.32.547.496 0 .969-.199 1.32-.547.348-.351.547-.824.547-1.32zm15-4c0-.496-.199-.969-.547-1.32a1.879 1.879 0 00-1.32-.547c-.496 0-.969.199-1.32.547a1.879 1.879 0 00-.547 1.32c0 .496.199.969.547 1.32.351.348.824.547 1.32.547.496 0 .969-.199 1.32-.547.348-.351.547-.824.547-1.32zm16-4c0-.496-.199-.969-.547-1.32a1.879 1.879 0 00-1.32-.547c-.496 0-.969.199-1.32.547a1.879 1.879 0 00-.547 1.32c0 .496.199.969.547 1.32.351.348.824.547 1.32.547.496 0 .969-.199 1.32-.547.348-.351.547-.824.547-1.32zm15-6c0-.496-.199-.969-.547-1.32a1.879 1.879 0 00-1.32-.547c-.496 0-.969.199-1.32.547a1.879 1.879 0 00-.547 1.32c0 .496.199.969.547 1.32.351.348.824.547 1.32.547.496 0 .969-.199 1.32-.547.348-.351.547-.824.547-1.32zm16-8c0-.496-.199-.969-.547-1.32a1.879 1.879 0 00-1.32-.547c-.496 0-.969.199-1.32.547a1.879 1.879 0 00-.547 1.32c0 .496.199.969.547 1.32.351.348.824.547 1.32.547.496 0 .969-.199 1.32-.547.348-.351.547-.824.547-1.32zm16-6c0-.496-.199-.969-.547-1.32a1.879 1.879 0 00-1.32-.547c-.496 0-.969.199-1.32.547a1.879 1.879 0 00-.547 1.32c0 .496.199.969.547 1.32.351.348.824.547 1.32.547.496 0 .969-.199 1.32-.547.348-.351.547-.824.547-1.32zm15-13c0-.496-.199-.969-.547-1.32a1.879 1.879 0 00-1.32-.547c-.496 0-.969.199-1.32.547a1.879 1.879 0 00-.547 1.32c0 .496.199.969.547 1.32.351.348.824.547 1.32.547.496 0 .969-.199 1.32-.547.348-.351.547-.824.547-1.32zm16-6c0-.496-.199-.969-.547-1.32a1.879 1.879 0 00-1.32-.547c-.496 0-.969.199-1.32.547a1.879 1.879 0 00-.547 1.32c0 .496.199.969.547 1.32.351.348.824.547 1.32.547.496 0 .969-.199 1.32-.547.348-.351.547-.824.547-1.32zm16-5c0-.496-.199-.969-.547-1.32a1.879 1.879 0 00-1.32-.547c-.496 0-.969.199-1.32.547a1.879 1.879 0 00-.547 1.32c0 .496.199.969.547 1.32.351.348.824.547 1.32.547.496 0 .969-.199 1.32-.547.348-.351.547-.824.547-1.32zm15-5c0-.496-.199-.969-.547-1.32a1.879 1.879 0 00-1.32-.547c-.496 0-.969.199-1.32.547a1.879 1.879 0 00-.547 1.32c0 .496.199.969.547 1.32.351.348.824.547 1.32.547.496 0 .969-.199 1.32-.547.348-.351.547-.824.547-1.32zm16-4c0-.496-.199-.969-.547-1.32a1.879 1.879 0 00-1.32-.547c-.496 0-.969.199-1.32.547a1.879 1.879 0 00-.547 1.32c0 .496.199.969.547 1.32.351.348.824.547 1.32.547.496 0 .969-.199 1.32-.547.348-.351.547-.824.547-1.32zm0 0" fill-rule="evenodd" fill="#0d86a0"/><path d="M191.867 199c0-.496-.199-.969-.547-1.32a1.879 1.879 0 00-1.32-.547c-.496 0-.969.199-1.32.547a1.879 1.879 0 00-.547 1.32c0 .496.199.969.547 1.32.351.348.824.547 1.32.547.496 0 .969-.199 1.32-.547.348-.351.547-.824.547-1.32zm15-15c0-.496-.199-.969-.547-1.32a1.879 1.879 0 00-1.32-.547c-.496 0-.969.199-1.32.547a1.879 1.879 0 00-.547 1.32c0 .496.199.969.547 1.32.351.348.824.547 1.32.547.496 0 .969-.199 1.32-.547.348-.351.547-.824.547-1.32zm16-30c0-.496-.199-.969-.547-1.32a1.879 1.879 0 00-1.32-.547c-.496 0-.969.199-1.32.547a1.879 1.879 0 00-.547 1.32c0 .496.199.969.547 1.32.351.348.824.547 1.32.547.496 0 .969-.199 1.32-.547.348-.351.547-.824.547-1.32zm15-7c0-.496-.199-.969-.547-1.32a1.879 1.879 0 00-1.32-.547c-.496 0-.969.199-1.32.547a1.879 1.879 0 00-.547 1.32c0 .496.199.969.547 1.32.351.348.824.547 1.32.547.496 0 .969-.199 1.32-.547.348-.351.547-.824.547-1.32zm16-11c0-.496-.199-.969-.547-1.32a1.879 1.879 0 00-1.32-.547c-.496 0-.969.199-1.32.547a1.879 1.879 0 00-.547 1.32c0 .496.199.969.547 1.32.351.348.824.547 1.32.547.496 0 .969-.199 1.32-.547.348-.351.547-.824.547-1.32zm16-4c0-.496-.199-.969-.547-1.32a1.879 1.879 0 00-1.32-.547c-.496 0-.969.199-1.32.547a1.879 1.879 0 00-.547 1.32c0 .496.199.969.547 1.32.351.348.824.547 1.32.547.496 0 .969-.199 1.32-.547.348-.351.547-.824.547-1.32zm15-6c0-.496-.199-.969-.547-1.32a1.879 1.879 0 00-1.32-.547c-.496 0-.969.199-1.32.547a1.879 1.879 0 00-.547 1.32c0 .496.199.969.547 1.32.351.348.824.547 1.32.547.496 0 .969-.199 1.32-.547.348-.351.547-.824.547-1.32zm16-12c0-.496-.199-.969-.547-1.32a1.879 1.879 0 00-1.32-.547c-.496 0-.969.199-1.32.547a1.879 1.879 0 00-.547 1.32c0 .496.199.969.547 1.32.351.348.824.547 1.32.547.496 0 .969-.199 1.32-.547.348-.351.547-.824.547-1.32zm16-7c0-.496-.199-.969-.547-1.32a1.879 1.879 0 00-1.32-.547c-.496 0-.969.199-1.32.547a1.879 1.879 0 00-.547 1.32c0 .496.199.969.547 1.32.351.348.824.547 1.32.547.496 0 .969-.199 1.32-.547.348-.351.547-.824.547-1.32zm15-5c0-.496-.199-.969-.547-1.32a1.879 1.879 0 00-1.32-.547c-.496 0-.969.199-1.32.547a1.879 1.879 0 00-.547 1.32c0 .496.199.969.547 1.32.351.348.824.547 1.32.547.496 0 .969-.199 1.32-.547.348-.351.547-.824.547-1.32zm16-2c0-.496-.199-.969-.547-1.32a1.879 1.879 0 00-1.32-.547c-.496 0-.969.199-1.32.547a1.879 1.879 0 00-.547 1.32c0 .496.199.969.547 1.32.351.348.824.547 1.32.547.496 0 .969-.199 1.32-.547.348-.351.547-.824.547-1.32zm0 0" fill-rule="evenodd" fill="#c05c20"/><path d="M159.867 232c0-.496-.199-.969-.547-1.32a1.879 1.879 0 00-1.32-.547c-.496 0-.969.199-1.32.547a1.879 1.879 0 00-.547 1.32c0 .496.199.969.547 1.32.351.348.824.547 1.32.547.496 0 .969-.199 1.32-.547.348-.351.547-.824.547-1.32zm16-55c0-.496-.199-.969-.547-1.32a1.879 1.879 0 00-1.32-.547c-.496 0-.969.199-1.32.547a1.879 1.879 0 00-.547 1.32c0 .496.199.969.547 1.32.351.348.824.547 1.32.547.496 0 .969-.199 1.32-.547.348-.351.547-.824.547-1.32zm16-12c0-.496-.199-.969-.547-1.32a1.879 1.879 0 00-1.32-.547c-.496 0-.969.199-1.32.547a1.879 1.879 0 00-.547 1.32c0 .496.199.969.547 1.32.351.348.824.547 1.32.547.496 0 .969-.199 1.32-.547.348-.351.547-.824.547-1.32zm15-5c0-.496-.199-.969-.547-1.32a1.879 1.879 0 00-1.32-.547c-.496 0-.969.199-1.32.547a1.879 1.879 0 00-.547 1.32c0 .496.199.969.547 1.32.351.348.824.547 1.32.547.496 0 .969-.199 1.32-.547.348-.351.547-.824.547-1.32zm16-10c0-.496-.199-.969-.547-1.32a1.879 1.879 0 00-1.32-.547c-.496 0-.969.199-1.32.547a1.879 1.879 0 00-.547 1.32c0 .496.199.969.547 1.32.351.348.824.547 1.32.547.496 0 .969-.199 1.32-.547.348-.351.547-.824.547-1.32zm15-8c0-.496-.199-.969-.547-1.32a1.879 1.879 0 00-1.32-.547c-.496 0-.969.199-1.32.547a1.879 1.879 0 00-.547 1.32c0 .496.199.969.547 1.32.351.348.824.547 1.32.547.496 0 .969-.199 1.32-.547.348-.351.547-.824.547-1.32zm16-5c0-.496-.199-.969-.547-1.32a1.879 1.879 0 00-1.32-.547c-.496 0-.969.199-1.32.547a1.879 1.879 0 00-.547 1.32c0 .496.199.969.547 1.32.351.348.824.547 1.32.547.496 0 .969-.199 1.32-.547.348-.351.547-.824.547-1.32zm16-8c0-.496-.199-.969-.547-1.32a1.879 1.879 0 00-1.32-.547c-.496 0-.969.199-1.32.547a1.879 1.879 0 00-.547 1.32c0 .496.199.969.547 1.32.351.348.824.547 1.32.547.496 0 .969-.199 1.32-.547.348-.351.547-.824.547-1.32zm15-5c0-.496-.199-.969-.547-1.32a1.879 1.879 0 00-1.32-.547c-.496 0-.969.199-1.32.547a1.879 1.879 0 00-.547 1.32c0 .496.199.969.547 1.32.351.348.824.547 1.32.547.496 0 .969-.199 1.32-.547.348-.351.547-.824.547-1.32zm16-5c0-.496-.199-.969-.547-1.32a1.879 1.879 0 00-1.32-.547c-.496 0-.969.199-1.32.547a1.879 1.879 0 00-.547 1.32c0 .496.199.969.547 1.32.351.348.824.547 1.32.547.496 0 .969-.199 1.32-.547.348-.351.547-.824.547-1.32zm16-6c0-.496-.199-.969-.547-1.32a1.879 1.879 0 00-1.32-.547c-.496 0-.969.199-1.32.547a1.879 1.879 0 00-.547 1.32c0 .496.199.969.547 1.32.351.348.824.547 1.32.547.496 0 .969-.199 1.32-.547.348-.351.547-.824.547-1.32zm15-4c0-.496-.199-.969-.547-1.32a1.879 1.879 0 00-1.32-.547c-.496 0-.969.199-1.32.547a1.879 1.879 0 00-.547 1.32c0 .496.199.969.547 1.32.351.348.824.547 1.32.547.496 0 .969-.199 1.32-.547.348-.351.547-.824.547-1.32zm16-6c0-.496-.199-.969-.547-1.32a1.879 1.879 0 00-1.32-.547c-.496 0-.969.199-1.32.547a1.879 1.879 0 00-.547 1.32c0 .496.199.969.547 1.32.351.348.824.547 1.32.547.496 0 .969-.199 1.32-.547.348-.351.547-.824.547-1.32zm0 0" fill-rule="evenodd" fill="#6f42b5"/><path d="M191.867 232c0-.496-.199-.969-.547-1.32a1.879 1.879 0 00-1.32-.547c-.496 0-.969.199-1.32.547a1.879 1.879 0 00-.547 1.32c0 .496.199.969.547 1.32.351.348.824.547 1.32.547.496 0 .969-.199 1.32-.547.348-.351.547-.824.547-1.32zm15-33c0-.496-.199-.969-.547-1.32a1.879 1.879 0 00-1.32-.547c-.496 0-.969.199-1.32.547a1.879 1.879 0 00-.547 1.32c0 .496.199.969.547 1.32.351.348.824.547 1.32.547.496 0 .969-.199 1.32-.547.348-.351.547-.824.547-1.32zm16-12c0-.496-.199-.969-.547-1.32a1.879 1.879 0 00-1.32-.547c-.496 0-.969.199-1.32.547a1.879 1.879 0 00-.547 1.32c0 .496.199.969.547 1.32.351.348.824.547 1.32.547.496 0 .969-.199 1.32-.547.348-.351.547-.824.547-1.32zm15-27c0-.496-.199-.969-.547-1.32a1.879 1.879 0 00-1.32-.547c-.496 0-.969.199-1.32.547a1.879 1.879 0 00-.547 1.32c0 .496.199.969.547 1.32.351.348.824.547 1.32.547.496 0 .969-.199 1.32-.547.348-.351.547-.824.547-1.32zm16-19c0-.496-.199-.969-.547-1.32a1.879 1.879 0 00-1.32-.547c-.496 0-.969.199-1.32.547a1.879 1.879 0 00-.547 1.32c0 .496.199.969.547 1.32.351.348.824.547 1.32.547.496 0 .969-.199 1.32-.547.348-.351.547-.824.547-1.32zm16-9c0-.496-.199-.969-.547-1.32a1.879 1.879 0 00-1.32-.547c-.496 0-.969.199-1.32.547a1.879 1.879 0 00-.547 1.32c0 .496.199.969.547 1.32.351.348.824.547 1.32.547.496 0 .969-.199 1.32-.547.348-.351.547-.824.547-1.32zm15-6c0-.496-.199-.969-.547-1.32a1.879 1.879 0 00-1.32-.547c-.496 0-.969.199-1.32.547a1.879 1.879 0 00-.547 1.32c0 .496.199.969.547 1.32.351.348.824.547 1.32.547.496 0 .969-.199 1.32-.547.348-.351.547-.824.547-1.32zm16-4c0-.496-.199-.969-.547-1.32a1.879 1.879 0 00-1.32-.547c-.496 0-.969.199-1.32.547a1.879 1.879 0 00-.547 1.32c0 .496.199.969.547 1.32.351.348.824.547 1.32.547.496 0 .969-.199 1.32-.547.348-.351.547-.824.547-1.32zm16-6c0-.496-.199-.969-.547-1.32a1.879 1.879 0 00-1.32-.547c-.496 0-.969.199-1.32.547a1.879 1.879 0 00-.547 1.32c0 .496.199.969.547 1.32.351.348.824.547 1.32.547.496 0 .969-.199 1.32-.547.348-.351.547-.824.547-1.32zm15-5c0-.496-.199-.969-.547-1.32a1.879 1.879 0 00-1.32-.547c-.496 0-.969.199-1.32.547a1.879 1.879 0 00-.547 1.32c0 .496.199.969.547 1.32.351.348.824.547 1.32.547.496 0 .969-.199 1.32-.547.348-.351.547-.824.547-1.32zm16-4c0-.496-.199-.969-.547-1.32a1.879 1.879 0 00-1.32-.547c-.496 0-.969.199-1.32.547a1.879 1.879 0 00-.547 1.32c0 .496.199.969.547 1.32.351.348.824.547 1.32.547.496 0 .969-.199 1.32-.547.348-.351.547-.824.547-1.32zm0 0" fill-rule="evenodd" fill="#769003"/><path d="M191.867 232c0-.496-.199-.969-.547-1.32a1.879 1.879 0 00-1.32-.547c-.496 0-.969.199-1.32.547a1.879 1.879 0 00-.547 1.32c0 .496.199.969.547 1.32.351.348.824.547 1.32.547.496 0 .969-.199 1.32-.547.348-.351.547-.824.547-1.32zm15-45c0-.496-.199-.969-.547-1.32a1.879 1.879 0 00-1.32-.547c-.496 0-.969.199-1.32.547a1.879 1.879 0 00-.547 1.32c0 .496.199.969.547 1.32.351.348.824.547 1.32.547.496 0 .969-.199 1.32-.547.348-.351.547-.824.547-1.32zm16-21c0-.496-.199-.969-.547-1.32a1.879 1.879 0 00-1.32-.547c-.496 0-.969.199-1.32.547a1.879 1.879 0 00-.547 1.32c0 .496.199.969.547 1.32.351.348.824.547 1.32.547.496 0 .969-.199 1.32-.547.348-.351.547-.824.547-1.32zm15-12c0-.496-.199-.969-.547-1.32a1.879 1.879 0 00-1.32-.547c-.496 0-.969.199-1.32.547a1.879 1.879 0 00-.547 1.32c0 .496.199.969.547 1.32.351.348.824.547 1.32.547.496 0 .969-.199 1.32-.547.348-.351.547-.824.547-1.32zm16-10c0-.496-.199-.969-.547-1.32a1.879 1.879 0 00-1.32-.547c-.496 0-.969.199-1.32.547a1.879 1.879 0 00-.547 1.32c0 .496.199.969.547 1.32.351.348.824.547 1.32.547.496 0 .969-.199 1.32-.547.348-.351.547-.824.547-1.32zm16-7c0-.496-.199-.969-.547-1.32a1.879 1.879 0 00-1.32-.547c-.496 0-.969.199-1.32.547a1.879 1.879 0 00-.547 1.32c0 .496.199.969.547 1.32.351.348.824.547 1.32.547.496 0 .969-.199 1.32-.547.348-.351.547-.824.547-1.32zm15-8c0-.496-.199-.969-.547-1.32a1.879 1.879 0 00-1.32-.547c-.496 0-.969.199-1.32.547a1.879 1.879 0 00-.547 1.32c0 .496.199.969.547 1.32.351.348.824.547 1.32.547.496 0 .969-.199 1.32-.547.348-.351.547-.824.547-1.32zm16-9c0-.496-.199-.969-.547-1.32a1.879 1.879 0 00-1.32-.547c-.496 0-.969.199-1.32.547a1.879 1.879 0 00-.547 1.32c0 .496.199.969.547 1.32.351.348.824.547 1.32.547.496 0 .969-.199 1.32-.547.348-.351.547-.824.547-1.32zm16-4c0-.496-.199-.969-.547-1.32a1.879 1.879 0 00-1.32-.547c-.496 0-.969.199-1.32.547a1.879 1.879 0 00-.547 1.32c0 .496.199.969.547 1.32.351.348.824.547 1.32.547.496 0 .969-.199 1.32-.547.348-.351.547-.824.547-1.32zm15-4c0-.496-.199-.969-.547-1.32a1.879 1.879 0 00-1.32-.547c-.496 0-.969.199-1.32.547a1.879 1.879 0 00-.547 1.32c0 .496.199.969.547 1.32.351.348.824.547 1.32.547.496 0 .969-.199 1.32-.547.348-.351.547-.824.547-1.32zm16-3c0-.496-.199-.969-.547-1.32a1.879 1.879 0 00-1.32-.547c-.496 0-.969.199-1.32.547a1.879 1.879 0 00-.547 1.32c0 .496.199.969.547 1.32.351.348.824.547 1.32.547.496 0 .969-.199 1.32-.547.348-.351.547-.824.547-1.32zm0 0" fill-rule="evenodd" fill="#a8364d"/><path d="M206.867 232c0-.496-.199-.969-.547-1.32a1.879 1.879 0 00-1.32-.547c-.496 0-.969.199-1.32.547a1.879 1.879 0 00-.547 1.32c0 .496.199.969.547 1.32.351.348.824.547 1.32.547.496 0 .969-.199 1.32-.547.348-.351.547-.824.547-1.32zm16-56c0-.496-.199-.969-.547-1.32a1.879 1.879 0 00-1.32-.547c-.496 0-.969.199-1.32.547a1.879 1.879 0 00-.547 1.32c0 .496.199.969.547 1.32.351.348.824.547 1.32.547.496 0 .969-.199 1.32-.547.348-.351.547-.824.547-1.32zm15-20c0-.496-.199-.969-.547-1.32a1.879 1.879 0 00-1.32-.547c-.496 0-.969.199-1.32.547a1.879 1.879 0 00-.547 1.32c0 .496.199.969.547 1.32.351.348.824.547 1.32.547.496 0 .969-.199 1.32-.547.348-.351.547-.824.547-1.32zm16-9c0-.496-.199-.969-.547-1.32a1.879 1.879 0 00-1.32-.547c-.496 0-.969.199-1.32.547a1.879 1.879 0 00-.547 1.32c0 .496.199.969.547 1.32.351.348.824.547 1.32.547.496 0 .969-.199 1.32-.547.348-.351.547-.824.547-1.32zm16-3c0-.496-.199-.969-.547-1.32a1.879 1.879 0 00-1.32-.547c-.496 0-.969.199-1.32.547a1.879 1.879 0 00-.547 1.32c0 .496.199.969.547 1.32.351.348.824.547 1.32.547.496 0 .969-.199 1.32-.547.348-.351.547-.824.547-1.32zm15-8c0-.496-.199-.969-.547-1.32a1.879 1.879 0 00-1.32-.547c-.496 0-.969.199-1.32.547a1.879 1.879 0 00-.547 1.32c0 .496.199.969.547 1.32.351.348.824.547 1.32.547.496 0 .969-.199 1.32-.547.348-.351.547-.824.547-1.32zm16-8c0-.496-.199-.969-.547-1.32a1.879 1.879 0 00-1.32-.547c-.496 0-.969.199-1.32.547a1.879 1.879 0 00-.547 1.32c0 .496.199.969.547 1.32.351.348.824.547 1.32.547.496 0 .969-.199 1.32-.547.348-.351.547-.824.547-1.32zm16-5c0-.496-.199-.969-.547-1.32a1.879 1.879 0 00-1.32-.547c-.496 0-.969.199-1.32.547a1.879 1.879 0 00-.547 1.32c0 .496.199.969.547 1.32.351.348.824.547 1.32.547.496 0 .969-.199 1.32-.547.348-.351.547-.824.547-1.32zm15-4c0-.496-.199-.969-.547-1.32a1.879 1.879 0 00-1.32-.547c-.496 0-.969.199-1.32.547a1.879 1.879 0 00-.547 1.32c0 .496.199.969.547 1.32.351.348.824.547 1.32.547.496 0 .969-.199 1.32-.547.348-.351.547-.824.547-1.32zm16-5c0-.496-.199-.969-.547-1.32a1.879 1.879 0 00-1.32-.547c-.496 0-.969.199-1.32.547a1.879 1.879 0 00-.547 1.32c0 .496.199.969.547 1.32.351.348.824.547 1.32.547.496 0 .969-.199 1.32-.547.348-.351.547-.824.547-1.32zm0 0" fill-rule="evenodd" fill="#3664cc"/><path d="M191.867 218c0-.496-.199-.969-.547-1.32a1.879 1.879 0 00-1.32-.547c-.496 0-.969.199-1.32.547a1.879 1.879 0 00-.547 1.32c0 .496.199.969.547 1.32.351.348.824.547 1.32.547.496 0 .969-.199 1.32-.547.348-.351.547-.824.547-1.32zm15-9c0-.496-.199-.969-.547-1.32a1.879 1.879 0 00-1.32-.547c-.496 0-.969.199-1.32.547a1.879 1.879 0 00-.547 1.32c0 .496.199.969.547 1.32.351.348.824.547 1.32.547.496 0 .969-.199 1.32-.547.348-.351.547-.824.547-1.32zm16-17c0-.496-.199-.969-.547-1.32a1.879 1.879 0 00-1.32-.547c-.496 0-.969.199-1.32.547a1.879 1.879 0 00-.547 1.32c0 .496.199.969.547 1.32.351.348.824.547 1.32.547.496 0 .969-.199 1.32-.547.348-.351.547-.824.547-1.32zm15-20c0-.496-.199-.969-.547-1.32a1.879 1.879 0 00-1.32-.547c-.496 0-.969.199-1.32.547a1.879 1.879 0 00-.547 1.32c0 .496.199.969.547 1.32.351.348.824.547 1.32.547.496 0 .969-.199 1.32-.547.348-.351.547-.824.547-1.32zm16-14c0-.496-.199-.969-.547-1.32a1.879 1.879 0 00-1.32-.547c-.496 0-.969.199-1.32.547a1.879 1.879 0 00-.547 1.32c0 .496.199.969.547 1.32.351.348.824.547 1.32.547.496 0 .969-.199 1.32-.547.348-.351.547-.824.547-1.32zm16-6c0-.496-.199-.969-.547-1.32a1.879 1.879 0 00-1.32-.547c-.496 0-.969.199-1.32.547a1.879 1.879 0 00-.547 1.32c0 .496.199.969.547 1.32.351.348.824.547 1.32.547.496 0 .969-.199 1.32-.547.348-.351.547-.824.547-1.32zm15-8c0-.496-.199-.969-.547-1.32a1.879 1.879 0 00-1.32-.547c-.496 0-.969.199-1.32.547a1.879 1.879 0 00-.547 1.32c0 .496.199.969.547 1.32.351.348.824.547 1.32.547.496 0 .969-.199 1.32-.547.348-.351.547-.824.547-1.32zm16-9c0-.496-.199-.969-.547-1.32a1.879 1.879 0 00-1.32-.547c-.496 0-.969.199-1.32.547a1.879 1.879 0 00-.547 1.32c0 .496.199.969.547 1.32.351.348.824.547 1.32.547.496 0 .969-.199 1.32-.547.348-.351.547-.824.547-1.32zm16-8c0-.496-.199-.969-.547-1.32a1.879 1.879 0 00-1.32-.547c-.496 0-.969.199-1.32.547a1.879 1.879 0 00-.547 1.32c0 .496.199.969.547 1.32.351.348.824.547 1.32.547.496 0 .969-.199 1.32-.547.348-.351.547-.824.547-1.32zm15-8c0-.496-.199-.969-.547-1.32a1.879 1.879 0 00-1.32-.547c-.496 0-.969.199-1.32.547a1.879 1.879 0 00-.547 1.32c0 .496.199.969.547 1.32.351.348.824.547 1.32.547.496 0 .969-.199 1.32-.547.348-.351.547-.824.547-1.32zm16-4c0-.496-.199-.969-.547-1.32a1.879 1.879 0 00-1.32-.547c-.496 0-.969.199-1.32.547a1.879 1.879 0 00-.547 1.32c0 .496.199.969.547 1.32.351.348.824.547 1.32.547.496 0 .969-.199 1.32-.547.348-.351.547-.824.547-1.32zm0 0" fill-rule="evenodd" fill="#c8860a"/><path d="M191.867 199c0-.496-.199-.969-.547-1.32a1.879 1.879 0 00-1.32-.547c-.496 0-.969.199-1.32.547a1.879 1.879 0 00-.547 1.32c0 .496.199.969.547 1.32.351.348.824.547 1.32.547.496 0 .969-.199 1.32-.547.348-.351.547-.824.547-1.32zm15-12c0-.496-.199-.969-.547-1.32a1.879 1.879 0 00-1.32-.547c-.496 0-.969.199-1.32.547a1.879 1.879 0 00-.547 1.32c0 .496.199.969.547 1.32.351.348.824.547 1.32.547.496 0 .969-.199 1.32-.547.348-.351.547-.824.547-1.32zm16-23c0-.496-.199-.969-.547-1.32a1.879 1.879 0 00-1.32-.547c-.496 0-.969.199-1.32.547a1.879 1.879 0 00-.547 1.32c0 .496.199.969.547 1.32.351.348.824.547 1.32.547.496 0 .969-.199 1.32-.547.348-.351.547-.824.547-1.32zm15-16c0-.496-.199-.969-.547-1.32a1.879 1.879 0 00-1.32-.547c-.496 0-.969.199-1.32.547a1.879 1.879 0 00-.547 1.32c0 .496.199.969.547 1.32.351.348.824.547 1.32.547.496 0 .969-.199 1.32-.547.348-.351.547-.824.547-1.32zm16-5c0-.496-.199-.969-.547-1.32a1.879 1.879 0 00-1.32-.547c-.496 0-.969.199-1.32.547a1.879 1.879 0 00-.547 1.32c0 .496.199.969.547 1.32.351.348.824.547 1.32.547.496 0 .969-.199 1.32-.547.348-.351.547-.824.547-1.32zm16-8c0-.496-.199-.969-.547-1.32a1.879 1.879 0 00-1.32-.547c-.496 0-.969.199-1.32.547a1.879 1.879 0 00-.547 1.32c0 .496.199.969.547 1.32.351.348.824.547 1.32.547.496 0 .969-.199 1.32-.547.348-.351.547-.824.547-1.32zm15-4c0-.496-.199-.969-.547-1.32a1.879 1.879 0 00-1.32-.547c-.496 0-.969.199-1.32.547a1.879 1.879 0 00-.547 1.32c0 .496.199.969.547 1.32.351.348.824.547 1.32.547.496 0 .969-.199 1.32-.547.348-.351.547-.824.547-1.32zm16-2c0-.496-.199-.969-.547-1.32a1.879 1.879 0 00-1.32-.547c-.496 0-.969.199-1.32.547a1.879 1.879 0 00-.547 1.32c0 .496.199.969.547 1.32.351.348.824.547 1.32.547.496 0 .969-.199 1.32-.547.348-.351.547-.824.547-1.32zm16-3c0-.496-.199-.969-.547-1.32a1.879 1.879 0 00-1.32-.547c-.496 0-.969.199-1.32.547a1.879 1.879 0 00-.547 1.32c0 .496.199.969.547 1.32.351.348.824.547 1.32.547.496 0 .969-.199 1.32-.547.348-.351.547-.824.547-1.32zm15-4c0-.496-.199-.969-.547-1.32a1.879 1.879 0 00-1.32-.547c-.496 0-.969.199-1.32.547a1.879 1.879 0 00-.547 1.32c0 .496.199.969.547 1.32.351.348.824.547 1.32.547.496 0 .969-.199 1.32-.547.348-.351.547-.824.547-1.32zm16-3c0-.496-.199-.969-.547-1.32a1.879 1.879 0 00-1.32-.547c-.496 0-.969.199-1.32.547a1.879 1.879 0 00-.547 1.32c0 .496.199.969.547 1.32.351.348.824.547 1.32.547.496 0 .969-.199 1.32-.547.348-.351.547-.824.547-1.32zm0 0" fill-rule="evenodd" fill="#833987"/><path d="M191.867 218c0-.496-.199-.969-.547-1.32a1.879 1.879 0 00-1.32-.547c-.496 0-.969.199-1.32.547a1.879 1.879 0 00-.547 1.32c0 .496.199.969.547 1.32.351.348.824.547 1.32.547.496 0 .969-.199 1.32-.547.348-.351.547-.824.547-1.32zm15-19c0-.496-.199-.969-.547-1.32a1.879 1.879 0 00-1.32-.547c-.496 0-.969.199-1.32.547a1.879 1.879 0 00-.547 1.32c0 .496.199.969.547 1.32.351.348.824.547 1.32.547.496 0 .969-.199 1.32-.547.348-.351.547-.824.547-1.32zm16-23c0-.496-.199-.969-.547-1.32a1.879 1.879 0 00-1.32-.547c-.496 0-.969.199-1.32.547a1.879 1.879 0 00-.547 1.32c0 .496.199.969.547 1.32.351.348.824.547 1.32.547.496 0 .969-.199 1.32-.547.348-.351.547-.824.547-1.32zm15-13c0-.496-.199-.969-.547-1.32a1.879 1.879 0 00-1.32-.547c-.496 0-.969.199-1.32.547a1.879 1.879 0 00-.547 1.32c0 .496.199.969.547 1.32.351.348.824.547 1.32.547.496 0 .969-.199 1.32-.547.348-.351.547-.824.547-1.32zm16-9c0-.496-.199-.969-.547-1.32a1.879 1.879 0 00-1.32-.547c-.496 0-.969.199-1.32.547a1.879 1.879 0 00-.547 1.32c0 .496.199.969.547 1.32.351.348.824.547 1.32.547.496 0 .969-.199 1.32-.547.348-.351.547-.824.547-1.32zm16-10c0-.496-.199-.969-.547-1.32a1.879 1.879 0 00-1.32-.547c-.496 0-.969.199-1.32.547a1.879 1.879 0 00-.547 1.32c0 .496.199.969.547 1.32.351.348.824.547 1.32.547.496 0 .969-.199 1.32-.547.348-.351.547-.824.547-1.32zm15-5c0-.496-.199-.969-.547-1.32a1.879 1.879 0 00-1.32-.547c-.496 0-.969.199-1.32.547a1.879 1.879 0 00-.547 1.32c0 .496.199.969.547 1.32.351.348.824.547 1.32.547.496 0 .969-.199 1.32-.547.348-.351.547-.824.547-1.32zm16-4c0-.496-.199-.969-.547-1.32a1.879 1.879 0 00-1.32-.547c-.496 0-.969.199-1.32.547a1.879 1.879 0 00-.547 1.32c0 .496.199.969.547 1.32.351.348.824.547 1.32.547.496 0 .969-.199 1.32-.547.348-.351.547-.824.547-1.32zm16-5c0-.496-.199-.969-.547-1.32a1.879 1.879 0 00-1.32-.547c-.496 0-.969.199-1.32.547a1.879 1.879 0 00-.547 1.32c0 .496.199.969.547 1.32.351.348.824.547 1.32.547.496 0 .969-.199 1.32-.547.348-.351.547-.824.547-1.32zm15-5c0-.496-.199-.969-.547-1.32a1.879 1.879 0 00-1.32-.547c-.496 0-.969.199-1.32.547a1.879 1.879 0 00-.547 1.32c0 .496.199.969.547 1.32.351.348.824.547 1.32.547.496 0 .969-.199 1.32-.547.348-.351.547-.824.547-1.32zm16-3c0-.496-.199-.969-.547-1.32a1.879 1.879 0 00-1.32-.547c-.496 0-.969.199-1.32.547a1.879 1.879 0 00-.547 1.32c0 .496.199.969.547 1.32.351.348.824.547 1.32.547.496 0 .969-.199 1.32-.547.348-.351.547-.824.547-1.32zm0 0" fill-rule="evenodd" fill="#1c8f6b"/><path d="M191.867 232c0-.496-.199-.969-.547-1.32a1.879 1.879 0 00-1.32-.547c-.496 0-.969.199-1.32.547a1.879 1.879 0 00-.547 1.32c0 .496.199.969.547 1.32.351.348.824.547 1.32.547.496 0 .969-.199 1.32-.547.348-.351.547-.824.547-1.32zm15-37c0-.496-.199-.969-.547-1.32a1.879 1.879 0 00-1.32-.547c-.496 0-.969.199-1.32.547a1.879 1.879 0 00-.547 1.32c0 .496.199.969.547 1.32.351.348.824.547 1.32.547.496 0 .969-.199 1.32-.547.348-.351.547-.824.547-1.32zm16-8c0-.496-.199-.969-.547-1.32a1.879 1.879 0 00-1.32-.547c-.496 0-.969.199-1.32.547a1.879 1.879 0 00-.547 1.32c0 .496.199.969.547 1.32.351.348.824.547 1.32.547.496 0 .969-.199 1.32-.547.348-.351.547-.824.547-1.32zm15-18c0-.496-.199-.969-.547-1.32a1.879 1.879 0 00-1.32-.547c-.496 0-.969.199-1.32.547a1.879 1.879 0 00-.547 1.32c0 .496.199.969.547 1.32.351.348.824.547 1.32.547.496 0 .969-.199 1.32-.547.348-.351.547-.824.547-1.32zm16-13c0-.496-.199-.969-.547-1.32a1.879 1.879 0 00-1.32-.547c-.496 0-.969.199-1.32.547a1.879 1.879 0 00-.547 1.32c0 .496.199.969.547 1.32.351.348.824.547 1.32.547.496 0 .969-.199 1.32-.547.348-.351.547-.824.547-1.32zm16-10c0-.496-.199-.969-.547-1.32a1.879 1.879 0 00-1.32-.547c-.496 0-.969.199-1.32.547a1.879 1.879 0 00-.547 1.32c0 .496.199.969.547 1.32.351.348.824.547 1.32.547.496 0 .969-.199 1.32-.547.348-.351.547-.824.547-1.32zm15-6c0-.496-.199-.969-.547-1.32a1.879 1.879 0 00-1.32-.547c-.496 0-.969.199-1.32.547a1.879 1.879 0 00-.547 1.32c0 .496.199.969.547 1.32.351.348.824.547 1.32.547.496 0 .969-.199 1.32-.547.348-.351.547-.824.547-1.32zm16-7c0-.496-.199-.969-.547-1.32a1.879 1.879 0 00-1.32-.547c-.496 0-.969.199-1.32.547a1.879 1.879 0 00-.547 1.32c0 .496.199.969.547 1.32.351.348.824.547 1.32.547.496 0 .969-.199 1.32-.547.348-.351.547-.824.547-1.32zm16-4c0-.496-.199-.969-.547-1.32a1.879 1.879 0 00-1.32-.547c-.496 0-.969.199-1.32.547a1.879 1.879 0 00-.547 1.32c0 .496.199.969.547 1.32.351.348.824.547 1.32.547.496 0 .969-.199 1.32-.547.348-.351.547-.824.547-1.32zm15-4c0-.496-.199-.969-.547-1.32a1.879 1.879 0 00-1.32-.547c-.496 0-.969.199-1.32.547a1.879 1.879 0 00-.547 1.32c0 .496.199.969.547 1.32.351.348.824.547 1.32.547.496 0 .969-.199 1.32-.547.348-.351.547-.824.547-1.32zm16-3c0-.496-.199-.969-.547-1.32a1.879 1.879 0 00-1.32-.547c-.496 0-.969.199-1.32.547a1.879 1.879 0 00-.547 1.32c0 .496.199.969.547 1.32.351.348.824.547 1.32.547.496 0 .969-.199 1.32-.547.348-.351.547-.824.547-1.32zm0 0" fill-rule="evenodd" fill="#a54f05"/><path d="M432.2 23.766h4.687l.218-.004.27-.012.332-.031.402-.047.489-.078.582-.106.687-.144.805-.192.937-.234 1.075-.293 1.222-.352 1.367-.406 1.485-.457 1.57-.488 1.633-.512 1.668-.527 1.672-.524 1.652-.515 1.606-.496 1.53-.461 1.427-.414 1.296-.364 1.157-.3 1.031-.247.914-.195.82-.152.735-.113.668-.082.613-.051.578-.031.555-.016.547-.008h5.043" fill="none" stroke-width="4" stroke-linejoin="round" stroke="#fff" stroke-opacity=".667" stroke-miterlimit="3.25"/><path d="M432.2 23.766h4.687l.218-.004.27-.012.332-.031.402-.047.489-.078.582-.106.687-.144.805-.192.937-.234 1.075-.293 1.222-.352 1.367-.406 1.485-.457 1.57-.488 1.633-.512 1.668-.527 1.672-.524 1.652-.515 1.606-.496 1.53-.461 1.427-.414 1.296-.364 1.157-.3 1.031-.247.914-.195.82-.152.735-.113.668-.082.613-.051.578-.031.555-.016.547-.008h5.043" fill="none" stroke-width="1.25" stroke-linecap="square" stroke="#aaa" stroke-miterlimit="3.25"/><path d="M498.473 8.414v15h-25v-15zm0 0" fill="#fff" fill-opacity=".667"/><use xlink:href="#a" x="475.973" y="18.414"/><use xlink:href="#b" x="485.973" y="18.414"/><path d="M432.2 33.605h4.698l.247.004.308.012.39.024.477.039.59.058.707.086.848.117.996.149 1.164.191 1.348.23 1.515.274 1.649.309 1.75.328 1.808.344 1.84.347 1.828.344 1.782.332 1.699.309 1.582.28 1.43.24 1.257.198 1.106.157.972.12.864.09.77.063.698.043.645.027.613.012.602.004h5.09" fill="none" stroke-width="4" stroke-linejoin="round" stroke="#fff" stroke-opacity=".667" stroke-miterlimit="3.25"/><path d="M432.2 33.605h4.698l.247.004.308.012.39.024.477.039.59.058.707.086.848.117.996.149 1.164.191 1.348.23 1.515.274 1.649.309 1.75.328 1.808.344 1.84.347 1.828.344 1.782.332 1.699.309 1.582.28 1.43.24 1.257.198 1.106.157.972.12.864.09.77.063.698.043.645.027.613.012.602.004h5.09" fill="none" stroke-width="1.25" stroke-linecap="square" stroke="#aaa" stroke-miterlimit="3.25"/><path d="M498.473 30.836v15h-25v-15zm0 0" fill="#fff" fill-opacity=".667"/><use xlink:href="#c" x="475.973" y="40.836"/><use xlink:href="#d" x="485.973" y="40.836"/><path d="M432.2 90.938h4.687l.218-.004.27-.016.332-.027.402-.047.489-.074.582-.102.687-.14.805-.18.937-.23 1.075-.282 1.222-.34 1.367-.394 1.485-.438 1.57-.473 1.633-.492 1.668-.508 1.672-.507 1.652-.496 1.606-.477 1.53-.445 1.427-.403 1.296-.347 1.157-.293 1.031-.235.914-.191.82-.145.735-.109.668-.078.613-.05.578-.032.555-.016.547-.004h5.043" fill="none" stroke-width="4" stroke-linejoin="round" stroke="#fff" stroke-opacity=".667" stroke-miterlimit="3.25"/><path d="M432.2 90.938h4.687l.218-.004.27-.016.332-.027.402-.047.489-.074.582-.102.687-.14.805-.18.937-.23 1.075-.282 1.222-.34 1.367-.394 1.485-.438 1.57-.473 1.633-.492 1.668-.508 1.672-.507 1.652-.496 1.606-.477 1.53-.445 1.427-.403 1.296-.347 1.157-.293 1.031-.235.914-.191.82-.145.735-.109.668-.078.613-.05.578-.032.555-.016.547-.004h5.043" fill="none" stroke-width="1.25" stroke-linecap="square" stroke="#aaa" stroke-miterlimit="3.25"/><path d="M498.473 75.863v15h-25v-15zm0 0" fill="#fff" fill-opacity=".667"/><use xlink:href="#e" x="475.973" y="85.863"/><use xlink:href="#f" x="485.973" y="85.863"/><path d="M432.2 84.695h4.718l.184-.011.218-.032.258-.058.309-.098.36-.148.417-.203.484-.27.555-.348.637-.437.723-.528.808-.636.91-.754 1.016-.875 1.11-.996 1.198-1.098 1.266-1.18 1.317-1.242 1.355-1.285 1.379-1.308 1.387-1.313 1.375-1.3 1.351-1.266 1.313-1.211 1.261-1.141 1.188-1.05 1.101-.938 1.004-.813.91-.695.829-.582.754-.48.683-.391.625-.309.578-.234.535-.176.5-.121.477-.074.46-.047.454-.02.453-.004h4.813" fill="none" stroke-width="4" stroke-linejoin="round" stroke="#fff" stroke-opacity=".667" stroke-miterlimit="3.25"/><path d="M432.2 84.695h4.718l.184-.011.218-.032.258-.058.309-.098.36-.148.417-.203.484-.27.555-.348.637-.437.723-.528.808-.636.91-.754 1.016-.875 1.11-.996 1.198-1.098 1.266-1.18 1.317-1.242 1.355-1.285 1.379-1.308 1.387-1.313 1.375-1.3 1.351-1.266 1.313-1.211 1.261-1.141 1.188-1.05 1.101-.938 1.004-.813.91-.695.829-.582.754-.48.683-.391.625-.309.578-.234.535-.176.5-.121.477-.074.46-.047.454-.02.453-.004h4.813" fill="none" stroke-width="1.25" stroke-linecap="square" stroke="#aaa" stroke-miterlimit="3.25"/><path d="M498.473 53.523v15h-25v-15zm0 0" fill="#fff" fill-opacity=".667"/><use xlink:href="#g" x="475.973" y="63.524"/><use xlink:href="#h" x="485.973" y="63.524"/><path d="M432.2 93.273h4.687l.218.004.27.024.332.043.402.078.489.117.582.168.687.23.805.293.937.372 1.075.46 1.222.551 1.367.64 1.485.712 1.57.77 1.633.804 1.668.82 1.672.829 1.652.808 1.606.774 1.53.722 1.427.656 1.296.567 1.157.472 1.031.387.914.305.82.238.735.18.668.125.613.082.578.05.555.024.547.012h5.043" fill="none" stroke-width="4" stroke-linejoin="round" stroke="#fff" stroke-opacity=".667" stroke-miterlimit="3.25"/><path d="M432.2 93.273h4.687l.218.004.27.024.332.043.402.078.489.117.582.168.687.23.805.293.937.372 1.075.46 1.222.551 1.367.64 1.485.712 1.57.77 1.633.804 1.668.82 1.672.829 1.652.808 1.606.774 1.53.722 1.427.656 1.296.567 1.157.472 1.031.387.914.305.82.238.735.18.668.125.613.082.578.05.555.024.547.012h5.043" fill="none" stroke-width="1.25" stroke-linecap="square" stroke="#aaa" stroke-miterlimit="3.25"/><path d="M498.473 98.09v15h-25v-15zm0 0" fill="#fff" fill-opacity=".667"/><use xlink:href="#i" x="475.973" y="108.089"/><use xlink:href="#j" x="485.973" y="108.089"/><path d="M432.2 96.094h4.706l.168.011.2.036.23.062.27.106.316.16.363.219.418.292.48.375.544.47.613.57.687.687.766.813.855.945.942 1.09 1.031 1.23 1.106 1.348 1.164 1.449 1.214 1.523 1.254 1.586 1.274 1.618 1.289 1.636 1.289 1.63 1.273 1.6 1.25 1.56 1.211 1.488 1.164 1.402 1.098 1.293 1.023 1.16.938 1.02.855.875.786.746.714.629.657.52.605.421.555.332.515.254.485.188.457.128.441.086.426.047.422.02.422.008h4.797" fill="none" stroke-width="4" stroke-linejoin="round" stroke="#fff" stroke-opacity=".667" stroke-miterlimit="3.25"/><path d="M432.2 96.094h4.706l.168.011.2.036.23.062.27.106.316.16.363.219.418.292.48.375.544.47.613.57.687.687.766.813.855.945.942 1.09 1.031 1.23 1.106 1.348 1.164 1.449 1.214 1.523 1.254 1.586 1.274 1.618 1.289 1.636 1.289 1.63 1.273 1.6 1.25 1.56 1.211 1.488 1.164 1.402 1.098 1.293 1.023 1.16.938 1.02.855.875.786.746.714.629.657.52.605.421.555.332.515.254.485.188.457.128.441.086.426.047.422.02.422.008h4.797" fill="none" stroke-width="1.25" stroke-linecap="square" stroke="#aaa" stroke-miterlimit="3.25"/><path d="M498.473 120.227v15h-25v-15zm0 0" fill="#fff" fill-opacity=".667"/><use xlink:href="#c" x="475.973" y="130.226"/><use xlink:href="#j" x="485.973" y="130.226"/><path d="M432.2 98.828h4.562l.117.004.133.012.156.027.172.059.2.097.226.145.257.203.29.266.324.343.367.43.406.523.45.633.5.743.55.867.602 1 .66 1.14.723 1.297.78 1.457.84 1.61.895 1.75.942 1.87.98 1.97 1.012 2.05 1.039 2.11 1.055 2.156 1.062 2.18 1.07 2.18 1.067 2.171 1.054 2.133 1.036 2.086 1.011 2.012.98 1.918.942 1.812.895 1.684.843 1.539.782 1.375.726 1.215.676 1.07.625.933.582.805.543.684.504.578.469.472.445.387.414.305.399.234.378.172.364.117.355.078.352.043.347.02.352.004h4.762" fill="none" stroke-width="4" stroke-linejoin="round" stroke="#fff" stroke-opacity=".667" stroke-miterlimit="3.25"/><path d="M432.2 98.828h4.562l.117.004.133.012.156.027.172.059.2.097.226.145.257.203.29.266.324.343.367.43.406.523.45.633.5.743.55.867.602 1 .66 1.14.723 1.297.78 1.457.84 1.61.895 1.75.942 1.87.98 1.97 1.012 2.05 1.039 2.11 1.055 2.156 1.062 2.18 1.07 2.18 1.067 2.171 1.054 2.133 1.036 2.086 1.011 2.012.98 1.918.942 1.812.895 1.684.843 1.539.782 1.375.726 1.215.676 1.07.625.933.582.805.543.684.504.578.469.472.445.387.414.305.399.234.378.172.364.117.355.078.352.043.347.02.352.004h4.762" fill="none" stroke-width="1.25" stroke-linecap="square" stroke="#aaa" stroke-miterlimit="3.25"/><path d="M498.473 142.297v15h-25v-15zm0 0" fill="#fff" fill-opacity=".667"/><use xlink:href="#k" x="475.973" y="152.298"/><use xlink:href="#l" x="485.973" y="152.298"/><path d="M432.2 100.648h4.695l.113.016.125.031.14.059.16.09.176.133.196.183.218.238.239.305.265.379.293.457.325.543.351.645.383.746.418.855.453.98.492 1.102.528 1.242.57 1.383.613 1.531.656 1.692.7 1.847.738 1.98.773 2.11.805 2.215.828 2.309.852 2.383.867 2.445.883 2.492.89 2.52 1.797 5.07.895 2.516.886 2.484.875 2.437.86 2.371.836 2.297.816 2.196.785 2.09.754 1.96.719 1.82.676 1.669.633 1.504.597 1.359.559 1.219.527 1.082.496.957.465.836.438.73.41.625.39.531.371.442.356.367.336.293.324.23.313.172.304.125.297.086.297.051.293.031.293.008.297.004h4.633" fill="none" stroke-width="4" stroke-linejoin="round" stroke="#fff" stroke-opacity=".667" stroke-miterlimit="3.25"/><path d="M432.2 100.648h4.695l.113.016.125.031.14.059.16.09.176.133.196.183.218.238.239.305.265.379.293.457.325.543.351.645.383.746.418.855.453.98.492 1.102.528 1.242.57 1.383.613 1.531.656 1.692.7 1.847.738 1.98.773 2.11.805 2.215.828 2.309.852 2.383.867 2.445.883 2.492.89 2.52 1.797 5.07.895 2.516.886 2.484.875 2.437.86 2.371.836 2.297.816 2.196.785 2.09.754 1.96.719 1.82.676 1.669.633 1.504.597 1.359.559 1.219.527 1.082.496.957.465.836.438.73.41.625.39.531.371.442.356.367.336.293.324.23.313.172.304.125.297.086.297.051.293.031.293.008.297.004h4.633" fill="none" stroke-width="1.25" stroke-linecap="square" stroke="#aaa" stroke-miterlimit="3.25"/><path d="M498.473 164.121v14h-25v-14zm0 0" fill="#fff" fill-opacity=".667"/><use xlink:href="#f" x="475.973" y="173.621"/><use xlink:href="#m" x="485.973" y="173.621"/><path d="M432.2 106.344h4.562l.09.004.101.007.11.024.12.047.137.078.149.113.168.16.183.211.203.274.223.343.242.415.266.5.293.593.316.688.34.793.371.91.403 1.027.433 1.16.465 1.293.496 1.438.535 1.586.57 1.75.61 1.91.644 2.074.676 2.223.711 2.355.735 2.473.761 2.574.778 2.66.796 2.73.81 2.79.82 2.832.828 2.855 1.664 5.735.828 2.844.82 2.812.813 2.762.796 2.699.782 2.617.765 2.527.739 2.415.71 2.289.684 2.148.652 1.996.614 1.832.578 1.664.547 1.512.52 1.367.484 1.223.46 1.094.434.964.41.852.39.742.368.637.352.547.336.457.32.379.309.304.296.243.29.187.28.133.274.097.274.06.273.034.27.016.273.004h4.723" fill="none" stroke-width="4" stroke-linejoin="round" stroke="#fff" stroke-opacity=".667" stroke-miterlimit="3.25"/><path d="M432.2 106.344h4.562l.09.004.101.007.11.024.12.047.137.078.149.113.168.16.183.211.203.274.223.343.242.415.266.5.293.593.316.688.34.793.371.91.403 1.027.433 1.16.465 1.293.496 1.438.535 1.586.57 1.75.61 1.91.644 2.074.676 2.223.711 2.355.735 2.473.761 2.574.778 2.66.796 2.73.81 2.79.82 2.832.828 2.855 1.664 5.735.828 2.844.82 2.812.813 2.762.796 2.699.782 2.617.765 2.527.739 2.415.71 2.289.684 2.148.652 1.996.614 1.832.578 1.664.547 1.512.52 1.367.484 1.223.46 1.094.434.964.41.852.39.742.368.637.352.547.336.457.32.379.309.304.296.243.29.187.28.133.274.097.274.06.273.034.27.016.273.004h4.723" fill="none" stroke-width="1.25" stroke-linecap="square" stroke="#aaa" stroke-miterlimit="3.25"/><path d="M498.473 184.926v15h-25v-15zm0 0" fill="#fff" fill-opacity=".667"/><use xlink:href="#n" x="475.973" y="194.926"/><use xlink:href="#o" x="485.973" y="194.926"/><path d="M432.2 109.031h4.59l.081.004.094.012.101.027.11.051.12.082.134.117.144.16.16.211.176.27.192.332.207.406.222.48.246.567.262.66.285.758.309.86.332.976.351 1.094.38 1.222.406 1.352.433 1.496.461 1.64.488 1.794.52 1.953.55 2.125.583 2.285.61 2.433.632 2.575.66 2.691.676 2.805.7 2.898.71 2.98.727 3.051.734 3.102.742 3.14.75 3.169 1.508 6.359.75 3.168.746 3.137.742 3.093.73 3.036.72 2.968.706 2.883.688 2.79.668 2.671.648 2.55.625 2.415.594 2.258.57 2.093.54 1.926.511 1.77.485 1.617.46 1.469.434 1.332.418 1.199.39 1.074.376.953.355.848.34.738.324.645.313.55.297.47.285.39.277.324.266.258.261.203.254.152.254.11.246.078.246.047.247.023.246.008.25.004h4.625" fill="none" stroke-width="4" stroke-linejoin="round" stroke="#fff" stroke-opacity=".667" stroke-miterlimit="3.25"/><path d="M432.2 109.031h4.59l.081.004.094.012.101.027.11.051.12.082.134.117.144.16.16.211.176.27.192.332.207.406.222.48.246.567.262.66.285.758.309.86.332.976.351 1.094.38 1.222.406 1.352.433 1.496.461 1.64.488 1.794.52 1.953.55 2.125.583 2.285.61 2.433.632 2.575.66 2.691.676 2.805.7 2.898.71 2.98.727 3.051.734 3.102.742 3.14.75 3.169 1.508 6.359.75 3.168.746 3.137.742 3.093.73 3.036.72 2.968.706 2.883.688 2.79.668 2.671.648 2.55.625 2.415.594 2.258.57 2.093.54 1.926.511 1.77.485 1.617.46 1.469.434 1.332.418 1.199.39 1.074.376.953.355.848.34.738.324.645.313.55.297.47.285.39.277.324.266.258.261.203.254.152.254.11.246.078.246.047.247.023.246.008.25.004h4.625" fill="none" stroke-width="1.25" stroke-linecap="square" stroke="#aaa" stroke-miterlimit="3.25"/><path d="M498.473 206.918v15h-25v-15zm0 0" fill="#fff" fill-opacity=".667"/><use xlink:href="#p" x="475.973" y="216.918"/><use xlink:href="#q" x="485.973" y="216.918"/><path d="M432.2 110.453h4.562l.074.004.078.004.086.02.094.039.101.062.114.09.12.129.13.172.14.218.156.274.168.332.18.402.195.473.207.55.227.637.242.73.258.825.277.926.293 1.039.317 1.152.336 1.27.355 1.402.38 1.531.397 1.672.422 1.82.45 1.97.472 2.124.496 2.293.524 2.45.543 2.597.57 2.735.586 2.859.602 2.969.62 3.074.633 3.156.645 3.234.656 3.297.664 3.352.672 3.387.676 3.418.68 3.43.68 3.433.679 3.426.68 3.406.672 3.367.668 3.328.656 3.266.648 3.2.637 3.116.625 3.02.61 2.918.59 2.797.573 2.668.551 2.527.531 2.371.504 2.207.48 2.047.462 1.894.437 1.743.418 1.601.399 1.469.379 1.336.363 1.21.348 1.095.332.98.316.875.3.777.294.68.28.594.27.512.258.437.254.367.242.301.239.246.234.195.23.149.223.11.227.073.218.051.223.028.223.011.226.004h4.696" fill="none" stroke-width="4" stroke-linejoin="round" stroke="#fff" stroke-opacity=".667" stroke-miterlimit="3.25"/><path d="M432.2 110.453h4.562l.074.004.078.004.086.02.094.039.101.062.114.09.12.129.13.172.14.218.156.274.168.332.18.402.195.473.207.55.227.637.242.73.258.825.277.926.293 1.039.317 1.152.336 1.27.355 1.402.38 1.531.397 1.672.422 1.82.45 1.97.472 2.124.496 2.293.524 2.45.543 2.597.57 2.735.586 2.859.602 2.969.62 3.074.633 3.156.645 3.234.656 3.297.664 3.352.672 3.387.676 3.418.68 3.43.68 3.433.679 3.426.68 3.406.672 3.367.668 3.328.656 3.266.648 3.2.637 3.116.625 3.02.61 2.918.59 2.797.573 2.668.551 2.527.531 2.371.504 2.207.48 2.047.462 1.894.437 1.743.418 1.601.399 1.469.379 1.336.363 1.21.348 1.095.332.98.316.875.3.777.294.68.28.594.27.512.258.437.254.367.242.301.239.246.234.195.23.149.223.11.227.073.218.051.223.028.223.011.226.004h4.696" fill="none" stroke-width="1.25" stroke-linecap="square" stroke="#aaa" stroke-miterlimit="3.25"/><path d="M498.473 228.906v15h-25v-15zm0 0" fill="#fff" fill-opacity=".667"/><use xlink:href="#r" x="475.973" y="238.906"/><use xlink:href="#h" x="485.973" y="238.906"/><path d="M345.875 38.398l15.637-2.863 15.636-2.812 15.633-2.606 15.637-2.433 15.637-2.278v-3.16l-15.637 2.55-15.637 2.794-15.633 3.101-15.636 3.497zm0 10.302l15.637-2.638 15.636-2.718 15.633-2.535 15.637-2.387 15.637-2.246v-4.852l-15.637 2.668-15.637 2.953-15.633 3.305-15.636 3.785zm0 51.183l15.637-.422 15.636-.898 15.633-.977 15.637-1.04 15.637-1.077v-8.246l-15.637 2.054-15.637 2.211-15.633 2.395-15.636 2.637zm0 0" fill="gray" fill-opacity=".05"/><path d="M345.875 102.8l15.637-3.894 15.636-3.648 15.633-3.262 15.637-2.957 15.637-2.707V83.18l-15.637 2.906-15.637 3.254-15.633 3.695-15.636 4.313zm0 4.31l15.637-2.419 15.636-2.523 15.633-2.387 15.637-2.254 15.637-2.136v-4.04l-15.637 2.485-15.637 2.719-15.633 3.011-15.636 3.391zm0 0" fill="gray" fill-opacity=".05"/><path d="M345.875 108.793l15.637-2.066 15.636-2.223 15.633-2.137 15.637-2.043 15.637-1.957v-4.324l-15.637 2.363-15.637 2.57-15.633 2.829-15.636 3.152zm0 0" fill="gray" fill-opacity=".05"/><path d="M345.875 114.36l15.637-2.731 15.636-2.856 15.633-2.668 15.637-2.496 15.637-2.343v-4.618l-15.637 2.704-15.637 2.992-15.633 3.355-15.636 3.852zm0 0" fill="gray" fill-opacity=".05"/><path d="M345.875 115.066l15.637-2.214 15.636-2.442 15.633-2.324 15.637-2.207 15.637-2.102V97.93l-15.637 2.597-15.637 2.871-15.633 3.223-15.636 3.695zm0 0" fill="gray" fill-opacity=".05"/><path d="M345.875 118.93l15.637-1.723 15.636-1.902 15.633-1.89 15.637-1.83 15.637-1.776v-6.43l-15.637 2.418-15.637 2.652-15.633 2.95-15.636 3.3zm0 0" fill="gray" fill-opacity=".05"/><path d="M345.875 121.813l15.637-2.208 15.636-2.304 15.633-2.2 15.637-2.09 15.637-1.991v-3.801l-15.637 2.347-15.637 2.551-15.633 2.805-15.636 3.121zm0 0" fill="gray" fill-opacity=".05"/><path d="M345.875 122.316l15.637-2.082 15.636-1.941 15.633-1.957 15.637-1.84 15.637-1.781v-4.297l-15.637 2.25-15.637 2.422-15.633 2.691-15.636 2.883zm0 0" fill="gray" fill-opacity=".05"/><path d="M432.2 248.32H25m0 0V4m0 0h407.2m0 0v244.32" fill="none" stroke-width=".5" stroke-linecap="square" stroke="#666" stroke-miterlimit="3.25"/><path d="M64.418 248.32v-5.656" fill="none" stroke-width=".5" stroke="#666" stroke-miterlimit="3.25"/><g fill="#666"><use xlink:href="#s" x="49.917" y="260.32"/><use xlink:href="#t" x="55.435" y="260.32"/><use xlink:href="#u" x="60.874" y="260.32"/></g><g fill="#666"><use xlink:href="#v" x="67.917" y="260.32"/><use xlink:href="#w" x="73.532" y="260.32"/></g><path d="M173.871 248.32v-5.656" fill="none" stroke-width=".5" stroke="#666" stroke-miterlimit="3.25"/><g fill="#666"><use xlink:href="#s" x="159.372" y="260.32"/><use xlink:href="#t" x="164.89" y="260.32"/><use xlink:href="#u" x="170.329" y="260.32"/></g><g fill="#666"><use xlink:href="#x" x="177.372" y="260.32"/><use xlink:href="#y" x="182.988" y="260.32"/></g><path d="M283.328 248.32v-5.656" fill="none" stroke-width=".5" stroke="#666" stroke-miterlimit="3.25"/><g fill="#666"><use xlink:href="#s" x="268.828" y="260.32"/><use xlink:href="#t" x="274.345" y="260.32"/><use xlink:href="#u" x="279.785" y="260.32"/></g><g fill="#666"><use xlink:href="#x" x="286.828" y="260.32"/><use xlink:href="#z" x="292.443" y="260.32"/></g><path d="M392.781 248.32v-5.656" fill="none" stroke-width=".5" stroke="#666" stroke-miterlimit="3.25"/><g fill="#666"><use xlink:href="#A" x="378.283" y="260.32"/><use xlink:href="#B" x="383.81" y="260.32"/><use xlink:href="#C" x="389.108" y="260.32"/></g><g fill="#666"><use xlink:href="#y" x="396.283" y="260.32"/><use xlink:href="#w" x="401.898" y="260.32"/></g><path d="M25 231.871h4.07" fill="none" stroke-width=".1" stroke="#666" stroke-miterlimit="3.25"/><use xlink:href="#v" x="16" y="234.372" fill="#666"/><path d="M25 184.352h4.07" fill="none" stroke-width=".1" stroke="#666" stroke-miterlimit="3.25"/><g fill="#666"><use xlink:href="#v" x="11" y="186.85"/><use xlink:href="#y" x="16.615" y="186.85"/></g><path d="M25 136.828h4.07" fill="none" stroke-width=".1" stroke="#666" stroke-miterlimit="3.25"/><g fill="#666"><use xlink:href="#v" x="5" y="139.327"/><use xlink:href="#y" x="10.615" y="139.327"/><use xlink:href="#y" x="16.23" y="139.327"/></g><path d="M25 89.305h4.07" fill="none" stroke-width=".1" stroke="#666" stroke-miterlimit="3.25"/><g fill="#666"><use xlink:href="#v" y="91.805"/><use xlink:href="#y" x="5.615" y="91.805"/><use xlink:href="#y" x="11.23" y="91.805"/><use xlink:href="#y" x="16.846" y="91.805"/></g><path d="M25 41.781h4.07" fill="none" stroke-width=".1" stroke="#666" stroke-miterlimit="3.25"/><g fill="#666"><use xlink:href="#v" x="5" y="45.782"/><use xlink:href="#y" x="10.615" y="45.782"/></g><use xlink:href="#D" x="16" y="41.782" fill="#666"/><path d="M25 246.18h2.398M25 242.414h2.398M25 239.234h2.398M25 236.477h2.398M25 234.047h2.398M25 217.566h2.398M25 209.2h2.398M25 203.262h2.398M25 198.656h2.398M25 194.89h2.398M25 191.71h2.398M25 188.957h2.398M25 186.523h2.398M25 170.043h2.398M25 161.676h2.398M25 155.738h2.398M25 151.133h2.398M25 147.371h2.398M25 144.188h2.398M25 141.434h2.398M25 139h2.398M25 122.523h2.398M25 114.152h2.398M25 108.215h2.398M25 103.61h2.398M25 99.848h2.398M25 96.668h2.398M25 93.91h2.398M25 91.48h2.398M25 75h2.398M25 66.633h2.398M25 60.695h2.398M25 56.09h2.398M25 52.324h2.398M25 49.145h2.398M25 46.387h2.398M25 43.957h2.398M25 27.477h2.398M25 19.11h2.398M25 13.172h2.398M25 8.566h2.398M25 4.805h2.398" fill="none" stroke-width=".1" stroke="#666" stroke-miterlimit="3.25"/><path d="M64.418 4v5.656M173.871 4v5.656M283.328 4v5.656M392.781 4v5.656" fill="none" stroke-width=".5" stroke="#666" stroke-miterlimit="3.25"/><path d="M432.2 231.871h-4.071m4.071-47.519h-4.071m4.071-47.524h-4.071m4.071-47.523h-4.071m4.071-47.524h-4.071M432.2 246.18h-2.4m2.4-3.766h-2.4m2.4-3.18h-2.4m2.4-2.757h-2.4m2.4-2.43h-2.4m2.4-16.481h-2.4m2.4-8.366h-2.4m2.4-5.938h-2.4m2.4-4.606h-2.4m2.4-3.766h-2.4m2.4-3.18h-2.4m2.4-2.753h-2.4m2.4-2.434h-2.4m2.4-16.48h-2.4m2.4-8.367h-2.4m2.4-5.938h-2.4m2.4-4.605h-2.4m2.4-3.762h-2.4m2.4-3.183h-2.4m2.4-2.754h-2.4m2.4-2.434h-2.4m2.4-16.477h-2.4m2.4-8.371h-2.4m2.4-5.937h-2.4m2.4-4.605h-2.4m2.4-3.762h-2.4m2.4-3.18h-2.4m2.4-2.758h-2.4m2.4-2.43h-2.4M432.2 75h-2.4m2.4-8.367h-2.4m2.4-5.938h-2.4m2.4-4.605h-2.4m2.4-3.766h-2.4m2.4-3.179h-2.4m2.4-2.758h-2.4m2.4-2.43h-2.4m2.4-16.48h-2.4m2.4-8.367h-2.4m2.4-5.938h-2.4m2.4-4.606h-2.4m2.4-3.761h-2.4" fill="none" stroke-width=".1" stroke="#666" stroke-miterlimit="3.25"/></svg>