<svg xmlns="http://www.w3.org/2000/svg" xmlns:xlink="http://www.w3.org/1999/xlink" width="500pt" height="265pt" viewBox="0 0 500 265"><defs><symbol overflow="visible" id="a"><path d="M4.738-8.14C3.578-6.88 2.121-5.82.36-4.97l.352.63C2.48-5.23 3.91-6.282 5-7.49c1.18 1.272 2.59 2.3 4.25 3.1l.36-.64a14.128 14.128 0 01-4.348-3.11zM2.211-4.98v.69h2.418v1.74H1.73v.69h2.9v1.848H.839V.7h8.333v-.71h-3.8v-1.85h2.89v-.692h-2.89V-4.29h2.417v-.691zm0 0"/></symbol><symbol overflow="visible" id="b"><path d="M2.52-6.121v.652h2.109v1.438h-1.79v.64h1.79v1.59H2.25v.66h5.512v-.66h-2.39v-1.59H7.16v-.64H5.371V-5.47H7.47v-.652zm6.59-1.59H.89V.98h.731V.55H8.38v.43h.73zM1.62-.129V-7.03h6.76v6.9zm4.93-3.05l-.57.19c.238.329.46.72.66 1.169l.558-.258A6.323 6.323 0 006.55-3.18zm0 0"/></symbol><symbol overflow="visible" id="c"><path d="M7.04-4.73h1.51v1.808H7.04zm1.51-.63H7.04v-1.78h1.51zM7.02-2.28h1.53v2.22c0 .278-.12.43-.35.43-.24 0-.49-.02-.759-.043l.168.64h.79C8.94.969 9.21.7 9.21.173V-7.8H6.379v5.082C6.359-1.422 6.07-.339 5.5.5l.52.46c.59-.839.921-1.92 1-3.241zm-5.9-5.67l-.492.46c.68.5 1.21.977 1.59 1.419l.5-.489A11.92 11.92 0 001.12-7.95zm-.2 2.34l-.491.46c.691.53 1.231 1.03 1.621 1.49l.5-.488c-.44-.48-.991-.973-1.628-1.461zm1.03 2.649A33.47 33.47 0 01.56.58l.652.28c.5-1.12.95-2.308 1.36-3.57zm3.762-.64H4.69V-5.5h1.297v-.648H4.691v-1.73H4v1.73H2.7v.648H4v1.898H2.95V.41h.66v-.59h2.1zM3.61-.801v-2.18h1.46V-.8zm0 0"/></symbol><symbol overflow="visible" id="d"><path d="M3.32-8.14v2.769H.672v.691H3.32v3.211c-.89.418-1.82.739-2.8.957L.69.2c.93-.258 1.809-.57 2.63-.949V.93h.738v-9.07zM8.22.84c.43 0 .73-.121.89-.36.16-.25.262-.96.32-2.128l-.679-.223c-.031 1.02-.09 1.61-.172 1.793C8.48.078 8.32.16 8.102.16h-1.25c-.25 0-.372-.148-.372-.43v-3.84c.93-.32 1.91-.788 2.95-1.421l-.418-.59c-.82.57-1.66 1.012-2.532 1.332v-3.352h-.73v7.98c0 .661.309 1 .941 1zm0 0"/></symbol><symbol overflow="visible" id="e"><path d="M1.23-8l-.511.488c.601.5 1.062.98 1.402 1.434l.5-.5A11.5 11.5 0 001.231-8zM.988-5.61l-.5.489c.602.5 1.082.98 1.422 1.441l.5-.5c-.379-.48-.86-.949-1.422-1.43zm.793 2.66A36.295 36.295 0 01.578.63l.672.293A42.328 42.328 0 002.41-2.71zm3.68-1.081c-.313.18-.633.351-.95.511v-2.152h.91V-6.3h-.91v-1.84H3.81v1.84H2.74v.63h1.07v2.452c-.368.14-.75.27-1.137.38l.168.69c.32-.113.64-.23.969-.363V-.16c0 .32-.11.48-.329.48C3.238.32 3 .3 2.738.281l.153.63h.808c.54 0 .813-.31.813-.911v-2.82c.316-.149.629-.309.949-.48zm3.578-3.95c-.91.36-1.93.56-3.07.583v3.847c-.047 1.7-.36 3.04-.938 4l.489.52c.699-1.13 1.07-2.64 1.12-4.52v-.71h1.282v5.28h.68v-5.28h.968v-.65H6.64v-1.91c1-.058 1.91-.25 2.731-.55zm0 0"/></symbol><symbol overflow="visible" id="f"><path d="M6.07-6.86v6.79h-3v.69h6.48v-.69H6.782v-6.79h2.43v-.68H3.559v.68zM1.25-7.987L.738-7.5c.762.5 1.364.98 1.801 1.43l.5-.5c-.48-.47-1.078-.942-1.789-1.418zM.988-5.602l-.5.493c.75.507 1.34 1 1.762 1.46l.5-.5A11.644 11.644 0 00.988-5.601zM2.27-2.949A28.672 28.672 0 01.61.6l.66.29a30.8 30.8 0 001.628-3.602zm0 0"/></symbol><symbol overflow="visible" id="g"><path d="M5.262-8.32l-.793.14c.203.32.39.68.55 1.07H1.302v2.93C1.28-2.16.98-.59.42.55l.59.528C1.662-.238 2-1.988 2.04-4.18v-2.242h7.41v-.687H5.81c-.18-.45-.36-.852-.547-1.211zm0 0"/></symbol><symbol overflow="visible" id="h"><path d="M.781-6.96v.698h2.14c-.53 1.024-1.1 1.852-1.71 2.512l.168.629h3.46v3c0 .293-.16.441-.468.441-.3 0-.61-.02-.941-.05l.148.71h1.043c.629 0 .95-.308.95-.921v-3.18h3.148v-.668H5.57v-1.48h-.73v1.48h-2.7a14.36 14.36 0 001.57-2.473h5.42v-.699h-5.1c.16-.367.32-.75.48-1.148l-.71-.16c-.18.46-.36.89-.551 1.308zM2.88-2.329A10.003 10.003 0 01.48-.102L.941.5C1.898-.18 2.72-.98 3.38-1.89zm4.33-.011l-.48.461c.95.86 1.7 1.66 2.238 2.419L9.5.02a16.925 16.925 0 00-2.29-2.36zm0 0"/></symbol><symbol overflow="visible" id="i"><path d="M1.18-7.95l-.508.5c.738.528 1.328 1.028 1.75 1.5l.52-.51c-.481-.5-1.063-.99-1.762-1.49zM1-5.5l-.512.488c.703.512 1.242 1 1.633 1.461l.508-.52C2.19-4.55 1.649-5.02 1-5.5zm1.11 2.68A30.368 30.368 0 01.59.68l.719.308A31.023 31.023 0 002.762-2.57zm1.062-4.75v.699h4.887V-.18c0 .34-.16.508-.48.508-.477 0-.99-.02-1.52-.047l.16.688h1.61c.62 0 .94-.328.94-.969v-6.871h.782v-.7zm.437 2.23v3.68H6.75v-3.68zm2.47 3.02h-1.79v-2.371h1.79zm0 0"/></symbol><symbol overflow="visible" id="j"><path d="M.55-7.23v.68h4.04c-.059.331-.13.671-.2 1.01H1.103V.989h.707v-5.847h6.4v4.68c0 .28-.14.429-.422.429L6.86.23l.192.7h.98c.59 0 .89-.32.89-.95v-5.52H5.13c.07-.32.14-.651.2-1.01h4.12v-.68H5.441c.04-.29.07-.59.098-.899l-.73-.101-.118 1zm3.33 2.69l-.64.24c.21.312.39.652.542 1.01H2.68v.63h1.968v1.05H2.36v.641h2.29V.84h.703V-.97h2.296v-.64H5.352v-1.05h2v-.63H6.21c.2-.32.39-.67.57-1.062l-.66-.238c-.18.461-.383.89-.601 1.3h-1.05a7.488 7.488 0 00-.59-1.25zm0 0"/></symbol><symbol overflow="visible" id="k"><path d="M9.148-7.191H5.43a9.89 9.89 0 00-.45-1.059l-.8.14c.172.282.32.579.46.919H.84v2.14h.738v-1.437H8.41v1.449h.738zM.602-4.411v.7h2.41c-.32.55-.66 1.11-1.024 1.672.934.3 1.864.648 2.801 1.05C3.73-.178 2.34.232.641.239l.418.672C2.922.852 4.399.328 5.519-.672A35.405 35.405 0 018.7.988L9.18.36a31.218 31.218 0 00-3.14-1.558c.531-.621 1-1.45 1.41-2.512h1.973v-.7H4.25c.238-.44.488-.91.75-1.41l-.738-.218a62.17 62.17 0 01-.864 1.629zm3.257.7H6.66c-.34.883-.78 1.621-1.32 2.211-.79-.328-1.559-.61-2.32-.828.261-.402.539-.863.84-1.383zm0 0"/></symbol><symbol overflow="visible" id="l"><path d="M2.27-8.2c-.4.93-1.032 1.76-1.9 2.482l.207.68c1.063-.84 1.82-1.8 2.3-2.883zm.28 2.27c-.44 1.121-1.14 2.121-2.109 3l.207.66a9.72 9.72 0 00.993-.968V.988h.68v-5.097c.327-.48.6-1 .82-1.551zm1.962-2.242v1.762h-.684V-7.8h-.566v1.972h3.09v-1.973h-.57v1.39H5.09v-1.76zM3.109-5.148v.617H6.25c-.07.133-.14.261-.21.383l.358.457c.211-.297.403-.637.57-1.02.122 1.14.36 2.191.723 3.133A5.9 5.9 0 016.641.129c-.18-.399-.38-.777-.582-1.117l-.48.226c.21.371.41.793.6 1.262L6.41.39l.36.56c.5-.49.92-1.08 1.26-1.77.31.64.701 1.23 1.17 1.76l.45-.52a7.733 7.733 0 01-1.297-2.01c.43-1.2.668-2.641.707-4.34h.39v-.65H7.59c.11-.452.2-.94.282-1.46l-.66-.121c-.18 1.45-.492 2.648-.941 3.59v-.578zm4.301-.743c0-.007 0-.02.012-.039H8.46C8.43-4.62 8.28-3.469 8-2.48c-.34-1-.531-2.141-.59-3.41zM3.46-.898A5.217 5.217 0 012.673.328l.469.344c.308-.383.578-.82.808-1.332zM5.98-2.73l-.511.171c.101.16.203.34.3.54-.597.097-1.199.18-1.789.238.801-.52 1.5-1.117 2.098-1.778l-.558-.21c-.141.16-.29.32-.45.48-.41.039-.82.07-1.218.098.418-.32.796-.68 1.136-1.09L4.441-4.5a7.02 7.02 0 01-1.41 1.352l.13.457c.46-.02.917-.059 1.39-.118-.473.399-.98.77-1.54 1.11l.13.488c.46-.039.93-.09 1.41-.148V.12c0 .16-.082.25-.223.25-.18 0-.367-.02-.558-.043l.128.594h.641c.422 0 .64-.223.64-.64v-1.743l.79-.148c.07.14.14.289.203.449l.5-.219c-.203-.48-.434-.93-.692-1.351zm0 0"/></symbol><symbol overflow="visible" id="m"><path d="M.54-7.738v.699h2.98v1.527H1.14V.941h.72V.488h6.3v.453h.719v-6.453H6.44v-1.527h3.02v-.7zM1.86-.191v-4.637h1.66v.2C3.5-3.27 3-2.282 2.02-1.66l.558.488C3.66-1.898 4.211-3.05 4.23-4.629v-.2h1.5v2.067c0 .653.32.98.98.98h1.45v1.59zM4.23-7.04h1.5v1.527h-1.5zm2.211 2.21h1.72v2.388H6.897c-.308 0-.457-.16-.457-.47zm0 0"/></symbol><symbol overflow="visible" id="n"><path d="M1.54-5.23v3.32h3.089v.691h-3.55v.578h3.55v.75H.579v.63h8.843v-.63h-4.07v-.75H8.93v-.578H5.352v-.691h3.097v-3.32H5.352v-.641h3.93v-.617h-3.93v-.762A73.97 73.97 0 008.46-7.5l-.223-.602c-1.988.223-4.289.372-6.886.454l.117.59c1.101-.044 2.152-.09 3.16-.153v.723H.719v.617h3.91v.64zm6.21 2.742H5.352v-.813H7.75zm-3.121 0H2.23v-.813h2.4zM2.23-3.86v-.79h2.4v.79zm3.122-.79H7.75v.79H5.352zm0 0"/></symbol><symbol overflow="visible" id="o"><path d="M2.531-4.129v.668h2.707C4.84-1.879 3.738-.57 1.961.461l.41.59C4.148-.031 5.301-1.38 5.81-3.012c.56 1.684 1.67 3.024 3.31 4l.43-.566C7.93-.5 6.84-1.801 6.289-3.461H9.25v-.668H6.102c-.024-.05-.032-.11-.043-.172.03-.46.05-1 .05-1.62h-.68c0 .28-.007.683-.007 1.202a19.6 19.6 0 01-.05.59zM5.25-8.23l-.79.14c.22.3.411.621.59.98H1.3v2.91C1.27-2.2.96-.628.36.489l.562.5C1.629-.309 2-2.039 2.039-4.199v-2.223h7.41v-.687H5.83a9.055 9.055 0 00-.58-1.121zm0 0"/></symbol><symbol overflow="visible" id="p"><path d="M8.3-3.27l-.562.348c.563.863 1.012 1.652 1.34 2.363l.55-.402c-.308-.66-.75-1.43-1.327-2.309zm-6.421.098c-.3.82-.738 1.48-1.34 1.98l.54.473c.6-.5 1.081-1.242 1.44-2.203zm2.3-2.45v.95H1.43v.703h2.712c-.082.98-.29 1.797-.653 2.48-.457.778-1.277 1.4-2.457 1.88l.399.64C2.64.551 3.512-.12 4.05-.98c.462-.782.731-1.77.829-2.989H6.94c-.05 1.719-.152 2.848-.3 3.367-.153.512-.461.774-.93.774-.402 0-.82-.012-1.262-.024l.192.68h1.418c.46-.027.793-.2 1.011-.508.2-.32.352-.898.45-1.718.082-.84.128-1.93.171-3.274H4.92v-.95zM.65-7.108v.687h2.26v.902h.73v-.902h2.622v.91h.726v-.91h2.364v-.687H6.988v-1.02h-.726v1.02H3.64v-1.02h-.73v1.02zm0 0"/></symbol><symbol overflow="visible" id="q"><path d="M9.11-7.531H.89V.852h.731V.27H8.38v.582h.73zM1.62-.38v-6.5h1.91v2.168c-.02 1.18-.543 2.031-1.562 2.57l.55.48C3.642-2.3 4.212-3.32 4.23-4.71v-2.168h1.49v3.969c0 .539.293.82.89.82h1.422v-.66h-1.23c-.262 0-.39-.11-.39-.309v-3.82H8.38v6.5zm0 0"/></symbol><symbol overflow="visible" id="r"><path d="M4.852-7.719V.25h.726v-7.969zM7.84-8.12V.97h.73v-9.09zm-5.961.043v3.867c-.02 2.18-.52 3.75-1.5 4.73l.55.493C2.032-.09 2.59-1.828 2.61-4.211v-3.867zm0 0"/></symbol><symbol overflow="visible" id="s"><path d="M3.805-7.11h.941v5.036c0 .68-.203 1.21-.613 1.597-.406.383-.953.575-1.633.575-.707 0-1.258-.18-1.648-.543-.395-.36-.594-.867-.594-1.516h.937c0 .406.114.723.336.95.223.23.547.343.969.343.387 0 .7-.121.941-.367.239-.246.36-.586.364-1.028zm0 0"/></symbol><symbol overflow="visible" id="t"><path d="M3.945 0c-.05-.105-.093-.29-.125-.555-.422.434-.922.653-1.507.653-.52 0-.946-.149-1.282-.442a1.438 1.438 0 01-.5-1.12c0-.552.211-.977.63-1.282.417-.305 1.007-.457 1.765-.457h.879v-.414c0-.317-.094-.567-.285-.754-.188-.188-.465-.281-.833-.281-.324 0-.593.082-.812.242-.219.164-.328.36-.328.59H.64c0-.262.093-.516.28-.762.188-.246.442-.441.763-.582.32-.145.671-.219 1.054-.219.61 0 1.086.153 1.434.457.344.305.523.727.535 1.258v2.434c0 .484.063.87.184 1.156V0zm-1.5-.688c.285 0 .555-.074.805-.218a1.35 1.35 0 00.555-.574v-1.083h-.711c-1.106 0-1.656.325-1.656.97 0 .284.093.507.28.663.188.16.43.243.727.243zm0 0"/></symbol><symbol overflow="visible" id="u"><path d="M1.54-5.281l.026.664a1.93 1.93 0 011.582-.766c1.118 0 1.68.633 1.692 1.89V0h-.902v-3.496c-.004-.379-.094-.664-.262-.844-.172-.183-.438-.273-.801-.273-.293 0-.55.078-.77.234a1.59 1.59 0 00-.52.613V0h-.9v-5.281zm0 0"/></symbol><symbol overflow="visible" id="v"><path d="M3.559 0h-.907v-6.02l-1.824.668v-.82l2.59-.973h.14zm0 0"/></symbol><symbol overflow="visible" id="w"><path d="M1.906-3.992h.676c.426-.008.762-.121 1.008-.34.242-.219.363-.512.363-.883 0-.832-.414-1.25-1.242-1.25-.39 0-.703.113-.938.336-.23.223-.347.516-.347.887H.523c0-.563.204-1.031.618-1.406.41-.372.933-.559 1.57-.559.672 0 1.195.176 1.578.531.379.356.57.848.57 1.48 0 .31-.101.61-.3.9a1.81 1.81 0 01-.817.648c.39.125.692.328.903.617.214.285.32.636.32 1.047 0 .64-.207 1.144-.625 1.52-.418.374-.957.562-1.625.562s-1.211-.18-1.63-.543c-.417-.36-.624-.836-.624-1.43h.906c0 .375.121.672.367.898.243.227.57.336.98.336.438 0 .77-.113 1-.34.231-.23.349-.554.349-.98 0-.414-.125-.734-.383-.953-.254-.223-.618-.336-1.098-.344h-.676zm0 0"/></symbol><symbol overflow="visible" id="x"><path d="M5.25 0H.59v-.648l2.46-2.735c.364-.414.618-.75.755-1.008.14-.257.21-.527.21-.804 0-.371-.113-.676-.34-.914-.222-.239-.523-.356-.898-.356-.449 0-.797.13-1.047.383-.25.254-.37.613-.37 1.066H.452c0-.652.211-1.183.633-1.586.422-.402.984-.605 1.691-.605.66 0 1.184.172 1.567.52.386.347.578.808.578 1.382 0 .703-.445 1.535-1.336 2.5L1.68-.738h3.57zm0 0"/></symbol><symbol overflow="visible" id="y"><path d="M5.047-3.031c0 1.058-.18 1.844-.54 2.36-.362.51-.925.769-1.694.769-.758 0-1.32-.25-1.684-.754C.766-1.16.574-1.91.562-2.91v-1.207c0-1.043.18-1.82.54-2.328.363-.508.93-.762 1.703-.762.765 0 1.328.246 1.687.734.36.489.547 1.246.555 2.27zm-.902-1.235c0-.765-.106-1.324-.32-1.675-.216-.348-.555-.524-1.02-.524-.465 0-.801.176-1.012.524-.211.347-.32.882-.328 1.605v1.445c0 .77.113 1.336.336 1.704.222.367.558.546 1.012.546.445 0 .777-.171.992-.515.218-.344.332-.89.34-1.633zm0 0"/></symbol><symbol overflow="visible" id="z"><path d="M5.18-6.602L2.234 0H1.29l2.934-6.367H.375v-.742H5.18zm0 0"/></symbol><symbol overflow="visible" id="A"><path d="M4.746-3.14H1.762V0H.824v-7.11H5.23v.774H1.762v2.43h2.984zm0 0"/></symbol><symbol overflow="visible" id="B"><path d="M2.875.098c-.715 0-1.297-.235-1.746-.707-.45-.47-.676-1.098-.676-1.887v-.164c0-.524.102-.992.3-1.406.2-.41.481-.735.84-.965.36-.235.75-.352 1.173-.352.687 0 1.218.227 1.601.68.38.453.57 1.101.57 1.945v.375H1.36c.012.52.164.942.454 1.262.292.32.664.48 1.113.48.316 0 .59-.062.808-.195.223-.129.414-.3.582-.516l.551.43c-.441.68-1.105 1.02-1.992 1.02zm-.11-4.739a1.21 1.21 0 00-.921.399c-.246.265-.399.64-.457 1.117H4.03v-.07c-.023-.457-.148-.813-.367-1.067-.223-.25-.523-.379-.898-.379zm0 0"/></symbol><symbol overflow="visible" id="C"><path d="M5.156-2.582c0 .809-.187 1.453-.554 1.945-.372.489-.872.735-1.497.735-.667 0-1.183-.235-1.546-.707L1.516 0H.684v-7.5h.902v2.797c.367-.453.867-.68 1.508-.68.64 0 1.148.246 1.511.73.368.485.551 1.15.551 1.993zm-.902-.106c0-.613-.121-1.09-.356-1.421-.238-.336-.582-.504-1.027-.504-.598 0-1.023.277-1.285.828V-1.5c.277.555.71.832 1.297.832.43 0 .77-.168 1.008-.504.242-.336.363-.84.363-1.516zm0 0"/></symbol><symbol overflow="visible" id="D"><path d="M3.965-2.148h.887v.664h-.887V0h-.817v-1.484H.234v-.48l2.864-4.434h.867zm-2.809 0h1.992v-3.137l-.097.176zm0 0"/></symbol></defs><path d="M33.145 248.32V4m13.96 244.32V4m13.961 244.32V4m13.961 244.32V4m13.961 244.32V4m13.962 244.32V4m13.96 244.32V4m13.961 244.32V4m13.961 244.32V4m13.961 244.32V4m13.961 244.32V4m13.961 244.32V4m13.961 244.32V4m13.964 244.32V4m13.962 244.32V4m13.961 244.32V4m13.96 244.32V4m13.961 244.32V4m13.961 244.32V4m13.961 244.32V4m13.961 244.32V4m13.961 244.32V4m13.962 244.32V4m13.96 244.32V4m13.96 244.32V4m13.962 244.32V4m13.961 244.32V4m13.961 244.32V4m13.961 244.32V4M25 231.871h407.2M25 175.906h407.2M25 119.941h407.2M25 63.973h407.2" fill="none" stroke="#666" stroke-opacity=".5" stroke-dasharray="1,2" stroke-miterlimit="3.25"/><path d="M354.25 35.438l13.96-2.29 13.962-2.699 13.96-2.226 13.962-2.356 13.96-2.101" fill="none" stroke-width="1.6" stroke-linecap="square" stroke="#a60000" stroke-opacity=".3" stroke-miterlimit="3.25"/><path d="M354.25 43.258l13.96-2.2 13.962-2.324 13.96-2.097 13.962-2.106 13.96-1.972" fill="none" stroke-width="1.6" stroke-linecap="square" stroke="#0d86a0" stroke-opacity=".3" stroke-miterlimit="3.25"/><path d="M354.25 118.754l13.96-6.629 13.962-5.902 13.96-4.864 13.962-4.257 13.96-3.77" fill="none" stroke-width="1.6" stroke-linecap="square" stroke="#c05c20" stroke-opacity=".3" stroke-miterlimit="3.25"/><path d="M354.25 116.754l13.96-3.711 13.962-4.746 13.96-3.684 13.962-3.574 13.96-3.191" fill="none" stroke-width="1.6" stroke-linecap="square" stroke="#6f42b5" stroke-opacity=".3" stroke-miterlimit="3.25"/><path d="M354.25 117.844l13.96-6.051 13.962-5.273 13.96-4.489 13.962-3.953 13.96-3.543" fill="none" stroke-width="1.6" stroke-linecap="square" stroke="#769003" stroke-opacity=".3" stroke-miterlimit="3.25"/><path d="M354.25 127.926l13.96.73 13.962-2.66 13.96-.988 13.962-2.012 13.96-1.562" fill="none" stroke-width="1.6" stroke-linecap="square" stroke="#a8364d" stroke-opacity=".3" stroke-miterlimit="3.25"/><path d="M354.25 127.926l13.96-5.586 13.962-2.297 13.96-3.586 13.962-2.3 13.96-2.673" fill="none" stroke-width="1.6" stroke-linecap="square" stroke="#3664cc" stroke-opacity=".3" stroke-miterlimit="3.25"/><path d="M354.25 123.89l13.96-5.706 13.962-5.157 13.96-4.336 13.962-3.859 13.96-3.457" fill="none" stroke-width="1.6" stroke-linecap="square" stroke="#c8860a" stroke-opacity=".3" stroke-miterlimit="3.25"/><path d="M354.25 144.105l13.96-4.117 13.962-1.418 13.96-2.379 13.962-1.64 13.96-1.77" fill="none" stroke-width="1.6" stroke-linecap="square" stroke="#833987" stroke-opacity=".3" stroke-miterlimit="3.25"/><path d="M354.25 144.105l13.96-.96 13.962-1.22 13.96-1.062 13.962-1.164 13.96-1.097" fill="none" stroke-width="1.6" stroke-linecap="square" stroke="#1c8f6b" stroke-opacity=".3" stroke-miterlimit="3.25"/><path d="M354.25 150.879l13.96-2.934 13.962-3.09 13.96-2.796 13.962-2.657 13.96-2.496" fill="none" stroke-width="1.6" stroke-linecap="square" stroke="#a54f05" stroke-opacity=".3" stroke-miterlimit="3.25"/><path d="M102.95 198.176l13.96-35.168 13.961-30.242 13.961-6.786 13.961-4.015 13.96-11.719 13.962 3.129 13.96-16.566 13.966-13.102 13.96-10.644 13.962-2.704 13.96-20.277 13.961 4.711 13.961-4.238 13.961-3.207 13.961-1.43 13.961-5.074 13.961-2.145 13.961-3.261" fill="none" stroke-width="1.6" stroke-linecap="square" stroke="#a60000" stroke-miterlimit="3.25"/><path d="M102.95 198.176l13.96-35.168 13.961-30.242 13.961-6.473 13.961 1.633 13.96-9.172 13.962 10.203 13.96-10.203 13.966-13.102 13.96-14.21 13.962-3.368 13.96-30.308 13.961 10.445 13.961-5.004 13.961-4.066 13.961-2.407 13.961-8.629 13.961-2.199 13.961-2.648" fill="none" stroke-width="1.6" stroke-linecap="square" stroke="#0d86a0" stroke-miterlimit="3.25"/><path d="M172.754 192.754h13.96l13.962-45.867 13.965 13.418 13.96-19.282 13.962 13.606 13.96-15.281 13.961-24.442 13.961-1.715 13.961 4.653 13.961 13.715h13.961l13.961-.387 13.961-12.418" fill="none" stroke-width="1.6" stroke-linecap="square" stroke="#c05c20" stroke-miterlimit="3.25"/><path d="M144.832 231.871l13.961-62.344 13.96 1.946 13.962 16.847 13.96-30.449 13.966-4.234 13.96 5.422 13.962-21.278 13.96 3.242 13.961-5.652 13.961-6.762 13.961-3.847 13.961-10.633 13.961 10.047 13.961 1.492 13.961-8.914" fill="none" stroke-width="1.6" stroke-linecap="square" stroke="#6f42b5" stroke-miterlimit="3.25"/><path d="M172.754 231.871l13.96-33.695h13.962l13.965-42.516 13.96-19.355 13.962 3.043 13.96 2.863 13.961 1.246 13.961-15.531 13.961-.668 13.961 1.351 13.961-.343 13.961-.676 13.961-9.746" fill="none" stroke-width="1.6" stroke-linecap="square" stroke="#769003" stroke-miterlimit="3.25"/><path d="M172.754 231.871l13.96-50.543 13.962-15.277 13.965-5.746 13.96-7.625 13.962-4.274 13.96-7.953 13.961-14.473 13.961 8.051 13.961.438 13.961-.867 13.961-6.344 13.961 5.922 13.961-5.254" fill="none" stroke-width="1.6" stroke-linecap="square" stroke="#a8364d" stroke-miterlimit="3.25"/><path d="M186.715 231.871l13.96-64.144 13.966-13.098 13.96 3.242 13.962 18.035 13.96-31.133 13.961-5.96 13.961-1.032 13.961 6.324 13.961-11.75 13.961 8.098 13.961-11.14 13.961-1.387" fill="none" stroke-width="1.6" stroke-linecap="square" stroke="#3664cc" stroke-miterlimit="3.25"/><path d="M172.754 215.023l13.96 16.848 13.962-33.695 13.965-24.586 13.96-11.969 13.962 9.852 13.96-16.844 13.961-10.524 13.961-8.734 13.961-9.078 13.961 12h13.961l13.961-5.527 13.961-8.875" fill="none" stroke-width="1.6" stroke-linecap="square" stroke="#c8860a" stroke-miterlimit="3.25"/><path d="M172.754 192.754l13.96 5.422 13.962-36.555 13.965-12.418 13.96 12.418 13.962-16.164 13.96 11.285 13.961 9.309 13.961-4.43 13.961-20.012 13.961 6.024 13.961 6.996 13.961-11.172 13.961.648" fill="none" stroke-width="1.6" stroke-linecap="square" stroke="#833987" stroke-miterlimit="3.25"/><path d="M186.715 231.871l13.96-50.543 13.966-2.86 13.96-8.94 13.962-5.048 13.96-8.82 13.961-5.633 13.961-.824 13.961-6.375 13.961 3.332h13.961l13.961-.703 13.961-1.352" fill="none" stroke-width="1.6" stroke-linecap="square" stroke="#1c8f6b" stroke-miterlimit="3.25"/><path d="M172.754 215.023l13.96-9.855 13.962-29.262 13.965-6.379 13.96-5.047 13.962-10.843 13.96 4.234 13.961 3.75 13.961-15.46 13.961-.704 13.961 3.746 13.961 5.426 13.961 1.031 13.961-4.781" fill="none" stroke-width="1.6" stroke-linecap="square" stroke="#a54f05" stroke-miterlimit="3.25"/><path d="M355.867 35c0-.496-.199-.969-.547-1.32a1.879 1.879 0 00-1.32-.547c-.496 0-.969.199-1.32.547a1.879 1.879 0 00-.547 1.32c0 .496.199.969.547 1.32.351.348.824.547 1.32.547.496 0 .969-.199 1.32-.547.348-.351.547-.824.547-1.32zm14-2c0-.496-.199-.969-.547-1.32a1.879 1.879 0 00-1.32-.547c-.496 0-.969.199-1.32.547a1.879 1.879 0 00-.547 1.32c0 .496.199.969.547 1.32.351.348.824.547 1.32.547.496 0 .969-.199 1.32-.547.348-.351.547-.824.547-1.32zm14-3c0-.496-.199-.969-.547-1.32a1.879 1.879 0 00-1.32-.547c-.496 0-.969.199-1.32.547a1.879 1.879 0 00-.547 1.32c0 .496.199.969.547 1.32.351.348.824.547 1.32.547.496 0 .969-.199 1.32-.547.348-.351.547-.824.547-1.32zm14-2c0-.496-.199-.969-.547-1.32a1.879 1.879 0 00-1.32-.547c-.496 0-.969.199-1.32.547a1.879 1.879 0 00-.547 1.32c0 .496.199.969.547 1.32.351.348.824.547 1.32.547.496 0 .969-.199 1.32-.547.348-.351.547-.824.547-1.32zm14-2c0-.496-.199-.969-.547-1.32a1.879 1.879 0 00-1.32-.547c-.496 0-.969.199-1.32.547a1.879 1.879 0 00-.547 1.32c0 .496.199.969.547 1.32.351.348.824.547 1.32.547.496 0 .969-.199 1.32-.547.348-.351.547-.824.547-1.32zm14-2c0-.496-.199-.969-.547-1.32a1.879 1.879 0 00-1.32-.547c-.496 0-.969.199-1.32.547a1.879 1.879 0 00-.547 1.32c0 .496.199.969.547 1.32.351.348.824.547 1.32.547.496 0 .969-.199 1.32-.547.348-.351.547-.824.547-1.32zm0 0" fill-rule="evenodd" fill="#a60000" fill-opacity=".3"/><path d="M355.867 43c0-.496-.199-.969-.547-1.32a1.879 1.879 0 00-1.32-.547c-.496 0-.969.199-1.32.547a1.879 1.879 0 00-.547 1.32c0 .496.199.969.547 1.32.351.348.824.547 1.32.547.496 0 .969-.199 1.32-.547.348-.351.547-.824.547-1.32zm14-2c0-.496-.199-.969-.547-1.32a1.879 1.879 0 00-1.32-.547c-.496 0-.969.199-1.32.547a1.879 1.879 0 00-.547 1.32c0 .496.199.969.547 1.32.351.348.824.547 1.32.547.496 0 .969-.199 1.32-.547.348-.351.547-.824.547-1.32zm14-2c0-.496-.199-.969-.547-1.32a1.879 1.879 0 00-1.32-.547c-.496 0-.969.199-1.32.547a1.879 1.879 0 00-.547 1.32c0 .496.199.969.547 1.32.351.348.824.547 1.32.547.496 0 .969-.199 1.32-.547.348-.351.547-.824.547-1.32zm14-2c0-.496-.199-.969-.547-1.32a1.879 1.879 0 00-1.32-.547c-.496 0-.969.199-1.32.547a1.879 1.879 0 00-.547 1.32c0 .496.199.969.547 1.32.351.348.824.547 1.32.547.496 0 .969-.199 1.32-.547.348-.351.547-.824.547-1.32zm14-2c0-.496-.199-.969-.547-1.32a1.879 1.879 0 00-1.32-.547c-.496 0-.969.199-1.32.547a1.879 1.879 0 00-.547 1.32c0 .496.199.969.547 1.32.351.348.824.547 1.32.547.496 0 .969-.199 1.32-.547.348-.351.547-.824.547-1.32zm14-2c0-.496-.199-.969-.547-1.32a1.879 1.879 0 00-1.32-.547c-.496 0-.969.199-1.32.547a1.879 1.879 0 00-.547 1.32c0 .496.199.969.547 1.32.351.348.824.547 1.32.547.496 0 .969-.199 1.32-.547.348-.351.547-.824.547-1.32zm0 0" fill-rule="evenodd" fill="#0d86a0" fill-opacity=".3"/><path d="M355.867 119c0-.496-.199-.969-.547-1.32a1.879 1.879 0 00-1.32-.547c-.496 0-.969.199-1.32.547a1.879 1.879 0 00-.547 1.32c0 .496.199.969.547 1.32.351.348.824.547 1.32.547.496 0 .969-.199 1.32-.547.348-.351.547-.824.547-1.32zm14-7c0-.496-.199-.969-.547-1.32a1.879 1.879 0 00-1.32-.547c-.496 0-.969.199-1.32.547a1.879 1.879 0 00-.547 1.32c0 .496.199.969.547 1.32.351.348.824.547 1.32.547.496 0 .969-.199 1.32-.547.348-.351.547-.824.547-1.32zm14-6c0-.496-.199-.969-.547-1.32a1.879 1.879 0 00-1.32-.547c-.496 0-.969.199-1.32.547a1.879 1.879 0 00-.547 1.32c0 .496.199.969.547 1.32.351.348.824.547 1.32.547.496 0 .969-.199 1.32-.547.348-.351.547-.824.547-1.32zm14-5c0-.496-.199-.969-.547-1.32a1.879 1.879 0 00-1.32-.547c-.496 0-.969.199-1.32.547a1.879 1.879 0 00-.547 1.32c0 .496.199.969.547 1.32.351.348.824.547 1.32.547.496 0 .969-.199 1.32-.547.348-.351.547-.824.547-1.32zm14-4c0-.496-.199-.969-.547-1.32a1.879 1.879 0 00-1.32-.547c-.496 0-.969.199-1.32.547a1.879 1.879 0 00-.547 1.32c0 .496.199.969.547 1.32.351.348.824.547 1.32.547.496 0 .969-.199 1.32-.547.348-.351.547-.824.547-1.32zm14-4c0-.496-.199-.969-.547-1.32a1.879 1.879 0 00-1.32-.547c-.496 0-.969.199-1.32.547a1.879 1.879 0 00-.547 1.32c0 .496.199.969.547 1.32.351.348.824.547 1.32.547.496 0 .969-.199 1.32-.547.348-.351.547-.824.547-1.32zm0 0" fill-rule="evenodd" fill="#c05c20" fill-opacity=".3"/><path d="M355.867 117c0-.496-.199-.969-.547-1.32a1.879 1.879 0 00-1.32-.547c-.496 0-.969.199-1.32.547a1.879 1.879 0 00-.547 1.32c0 .496.199.969.547 1.32.351.348.824.547 1.32.547.496 0 .969-.199 1.32-.547.348-.351.547-.824.547-1.32zm14-4c0-.496-.199-.969-.547-1.32a1.879 1.879 0 00-1.32-.547c-.496 0-.969.199-1.32.547a1.879 1.879 0 00-.547 1.32c0 .496.199.969.547 1.32.351.348.824.547 1.32.547.496 0 .969-.199 1.32-.547.348-.351.547-.824.547-1.32zm14-5c0-.496-.199-.969-.547-1.32a1.879 1.879 0 00-1.32-.547c-.496 0-.969.199-1.32.547a1.879 1.879 0 00-.547 1.32c0 .496.199.969.547 1.32.351.348.824.547 1.32.547.496 0 .969-.199 1.32-.547.348-.351.547-.824.547-1.32zm14-3c0-.496-.199-.969-.547-1.32a1.879 1.879 0 00-1.32-.547c-.496 0-.969.199-1.32.547a1.879 1.879 0 00-.547 1.32c0 .496.199.969.547 1.32.351.348.824.547 1.32.547.496 0 .969-.199 1.32-.547.348-.351.547-.824.547-1.32zm14-4c0-.496-.199-.969-.547-1.32a1.879 1.879 0 00-1.32-.547c-.496 0-.969.199-1.32.547a1.879 1.879 0 00-.547 1.32c0 .496.199.969.547 1.32.351.348.824.547 1.32.547.496 0 .969-.199 1.32-.547.348-.351.547-.824.547-1.32zm14-3c0-.496-.199-.969-.547-1.32a1.879 1.879 0 00-1.32-.547c-.496 0-.969.199-1.32.547a1.879 1.879 0 00-.547 1.32c0 .496.199.969.547 1.32.351.348.824.547 1.32.547.496 0 .969-.199 1.32-.547.348-.351.547-.824.547-1.32zm0 0" fill-rule="evenodd" fill="#6f42b5" fill-opacity=".3"/><path d="M355.867 118c0-.496-.199-.969-.547-1.32a1.879 1.879 0 00-1.32-.547c-.496 0-.969.199-1.32.547a1.879 1.879 0 00-.547 1.32c0 .496.199.969.547 1.32.351.348.824.547 1.32.547.496 0 .969-.199 1.32-.547.348-.351.547-.824.547-1.32zm14-6c0-.496-.199-.969-.547-1.32a1.879 1.879 0 00-1.32-.547c-.496 0-.969.199-1.32.547a1.879 1.879 0 00-.547 1.32c0 .496.199.969.547 1.32.351.348.824.547 1.32.547.496 0 .969-.199 1.32-.547.348-.351.547-.824.547-1.32zm14-5c0-.496-.199-.969-.547-1.32a1.879 1.879 0 00-1.32-.547c-.496 0-.969.199-1.32.547a1.879 1.879 0 00-.547 1.32c0 .496.199.969.547 1.32.351.348.824.547 1.32.547.496 0 .969-.199 1.32-.547.348-.351.547-.824.547-1.32zm14-5c0-.496-.199-.969-.547-1.32a1.879 1.879 0 00-1.32-.547c-.496 0-.969.199-1.32.547a1.879 1.879 0 00-.547 1.32c0 .496.199.969.547 1.32.351.348.824.547 1.32.547.496 0 .969-.199 1.32-.547.348-.351.547-.824.547-1.32zm14-4c0-.496-.199-.969-.547-1.32a1.879 1.879 0 00-1.32-.547c-.496 0-.969.199-1.32.547a1.879 1.879 0 00-.547 1.32c0 .496.199.969.547 1.32.351.348.824.547 1.32.547.496 0 .969-.199 1.32-.547.348-.351.547-.824.547-1.32zm14-3c0-.496-.199-.969-.547-1.32a1.879 1.879 0 00-1.32-.547c-.496 0-.969.199-1.32.547a1.879 1.879 0 00-.547 1.32c0 .496.199.969.547 1.32.351.348.824.547 1.32.547.496 0 .969-.199 1.32-.547.348-.351.547-.824.547-1.32zm0 0" fill-rule="evenodd" fill="#769003" fill-opacity=".3"/><path d="M355.867 128c0-.496-.199-.969-.547-1.32a1.879 1.879 0 00-1.32-.547c-.496 0-.969.199-1.32.547a1.879 1.879 0 00-.547 1.32c0 .496.199.969.547 1.32.351.348.824.547 1.32.547.496 0 .969-.199 1.32-.547.348-.351.547-.824.547-1.32zm14 1c0-.496-.199-.969-.547-1.32a1.879 1.879 0 00-1.32-.547c-.496 0-.969.199-1.32.547a1.879 1.879 0 00-.547 1.32c0 .496.199.969.547 1.32.351.348.824.547 1.32.547.496 0 .969-.199 1.32-.547.348-.351.547-.824.547-1.32zm14-3c0-.496-.199-.969-.547-1.32a1.879 1.879 0 00-1.32-.547c-.496 0-.969.199-1.32.547a1.879 1.879 0 00-.547 1.32c0 .496.199.969.547 1.32.351.348.824.547 1.32.547.496 0 .969-.199 1.32-.547.348-.351.547-.824.547-1.32zm14-1c0-.496-.199-.969-.547-1.32a1.879 1.879 0 00-1.32-.547c-.496 0-.969.199-1.32.547a1.879 1.879 0 00-.547 1.32c0 .496.199.969.547 1.32.351.348.824.547 1.32.547.496 0 .969-.199 1.32-.547.348-.351.547-.824.547-1.32zm14-2c0-.496-.199-.969-.547-1.32a1.879 1.879 0 00-1.32-.547c-.496 0-.969.199-1.32.547a1.879 1.879 0 00-.547 1.32c0 .496.199.969.547 1.32.351.348.824.547 1.32.547.496 0 .969-.199 1.32-.547.348-.351.547-.824.547-1.32zm14-2c0-.496-.199-.969-.547-1.32a1.879 1.879 0 00-1.32-.547c-.496 0-.969.199-1.32.547a1.879 1.879 0 00-.547 1.32c0 .496.199.969.547 1.32.351.348.824.547 1.32.547.496 0 .969-.199 1.32-.547.348-.351.547-.824.547-1.32zm0 0" fill-rule="evenodd" fill="#a8364d" fill-opacity=".3"/><path d="M355.867 128c0-.496-.199-.969-.547-1.32a1.879 1.879 0 00-1.32-.547c-.496 0-.969.199-1.32.547a1.879 1.879 0 00-.547 1.32c0 .496.199.969.547 1.32.351.348.824.547 1.32.547.496 0 .969-.199 1.32-.547.348-.351.547-.824.547-1.32zm14-6c0-.496-.199-.969-.547-1.32a1.879 1.879 0 00-1.32-.547c-.496 0-.969.199-1.32.547a1.879 1.879 0 00-.547 1.32c0 .496.199.969.547 1.32.351.348.824.547 1.32.547.496 0 .969-.199 1.32-.547.348-.351.547-.824.547-1.32zm14-2c0-.496-.199-.969-.547-1.32a1.879 1.879 0 00-1.32-.547c-.496 0-.969.199-1.32.547a1.879 1.879 0 00-.547 1.32c0 .496.199.969.547 1.32.351.348.824.547 1.32.547.496 0 .969-.199 1.32-.547.348-.351.547-.824.547-1.32zm14-4c0-.496-.199-.969-.547-1.32a1.879 1.879 0 00-1.32-.547c-.496 0-.969.199-1.32.547a1.879 1.879 0 00-.547 1.32c0 .496.199.969.547 1.32.351.348.824.547 1.32.547.496 0 .969-.199 1.32-.547.348-.351.547-.824.547-1.32zm14-2c0-.496-.199-.969-.547-1.32a1.879 1.879 0 00-1.32-.547c-.496 0-.969.199-1.32.547a1.879 1.879 0 00-.547 1.32c0 .496.199.969.547 1.32.351.348.824.547 1.32.547.496 0 .969-.199 1.32-.547.348-.351.547-.824.547-1.32zm14-3c0-.496-.199-.969-.547-1.32a1.879 1.879 0 00-1.32-.547c-.496 0-.969.199-1.32.547a1.879 1.879 0 00-.547 1.32c0 .496.199.969.547 1.32.351.348.824.547 1.32.547.496 0 .969-.199 1.32-.547.348-.351.547-.824.547-1.32zm0 0" fill-rule="evenodd" fill="#3664cc" fill-opacity=".3"/><path d="M355.867 124c0-.496-.199-.969-.547-1.32a1.879 1.879 0 00-1.32-.547c-.496 0-.969.199-1.32.547a1.879 1.879 0 00-.547 1.32c0 .496.199.969.547 1.32.351.348.824.547 1.32.547.496 0 .969-.199 1.32-.547.348-.351.547-.824.547-1.32zm14-6c0-.496-.199-.969-.547-1.32a1.879 1.879 0 00-1.32-.547c-.496 0-.969.199-1.32.547a1.879 1.879 0 00-.547 1.32c0 .496.199.969.547 1.32.351.348.824.547 1.32.547.496 0 .969-.199 1.32-.547.348-.351.547-.824.547-1.32zm14-5c0-.496-.199-.969-.547-1.32a1.879 1.879 0 00-1.32-.547c-.496 0-.969.199-1.32.547a1.879 1.879 0 00-.547 1.32c0 .496.199.969.547 1.32.351.348.824.547 1.32.547.496 0 .969-.199 1.32-.547.348-.351.547-.824.547-1.32zm14-4c0-.496-.199-.969-.547-1.32a1.879 1.879 0 00-1.32-.547c-.496 0-.969.199-1.32.547a1.879 1.879 0 00-.547 1.32c0 .496.199.969.547 1.32.351.348.824.547 1.32.547.496 0 .969-.199 1.32-.547.348-.351.547-.824.547-1.32zm14-4c0-.496-.199-.969-.547-1.32a1.879 1.879 0 00-1.32-.547c-.496 0-.969.199-1.32.547a1.879 1.879 0 00-.547 1.32c0 .496.199.969.547 1.32.351.348.824.547 1.32.547.496 0 .969-.199 1.32-.547.348-.351.547-.824.547-1.32zm14-4c0-.496-.199-.969-.547-1.32a1.879 1.879 0 00-1.32-.547c-.496 0-.969.199-1.32.547a1.879 1.879 0 00-.547 1.32c0 .496.199.969.547 1.32.351.348.824.547 1.32.547.496 0 .969-.199 1.32-.547.348-.351.547-.824.547-1.32zm0 0" fill-rule="evenodd" fill="#c8860a" fill-opacity=".3"/><path d="M355.867 144c0-.496-.199-.969-.547-1.32a1.879 1.879 0 00-1.32-.547c-.496 0-.969.199-1.32.547a1.879 1.879 0 00-.547 1.32c0 .496.199.969.547 1.32.351.348.824.547 1.32.547.496 0 .969-.199 1.32-.547.348-.351.547-.824.547-1.32zm14-4c0-.496-.199-.969-.547-1.32a1.879 1.879 0 00-1.32-.547c-.496 0-.969.199-1.32.547a1.879 1.879 0 00-.547 1.32c0 .496.199.969.547 1.32.351.348.824.547 1.32.547.496 0 .969-.199 1.32-.547.348-.351.547-.824.547-1.32zm14-1c0-.496-.199-.969-.547-1.32a1.879 1.879 0 00-1.32-.547c-.496 0-.969.199-1.32.547a1.879 1.879 0 00-.547 1.32c0 .496.199.969.547 1.32.351.348.824.547 1.32.547.496 0 .969-.199 1.32-.547.348-.351.547-.824.547-1.32zm14-3c0-.496-.199-.969-.547-1.32a1.879 1.879 0 00-1.32-.547c-.496 0-.969.199-1.32.547a1.879 1.879 0 00-.547 1.32c0 .496.199.969.547 1.32.351.348.824.547 1.32.547.496 0 .969-.199 1.32-.547.348-.351.547-.824.547-1.32zm14-1c0-.496-.199-.969-.547-1.32a1.879 1.879 0 00-1.32-.547c-.496 0-.969.199-1.32.547a1.879 1.879 0 00-.547 1.32c0 .496.199.969.547 1.32.351.348.824.547 1.32.547.496 0 .969-.199 1.32-.547.348-.351.547-.824.547-1.32zm14-2c0-.496-.199-.969-.547-1.32a1.879 1.879 0 00-1.32-.547c-.496 0-.969.199-1.32.547a1.879 1.879 0 00-.547 1.32c0 .496.199.969.547 1.32.351.348.824.547 1.32.547.496 0 .969-.199 1.32-.547.348-.351.547-.824.547-1.32zm0 0" fill-rule="evenodd" fill="#833987" fill-opacity=".3"/><path d="M355.867 144c0-.496-.199-.969-.547-1.32a1.879 1.879 0 00-1.32-.547c-.496 0-.969.199-1.32.547a1.879 1.879 0 00-.547 1.32c0 .496.199.969.547 1.32.351.348.824.547 1.32.547.496 0 .969-.199 1.32-.547.348-.351.547-.824.547-1.32zm14-1c0-.496-.199-.969-.547-1.32a1.879 1.879 0 00-1.32-.547c-.496 0-.969.199-1.32.547a1.879 1.879 0 00-.547 1.32c0 .496.199.969.547 1.32.351.348.824.547 1.32.547.496 0 .969-.199 1.32-.547.348-.351.547-.824.547-1.32zm14-1c0-.496-.199-.969-.547-1.32a1.879 1.879 0 00-1.32-.547c-.496 0-.969.199-1.32.547a1.879 1.879 0 00-.547 1.32c0 .496.199.969.547 1.32.351.348.824.547 1.32.547.496 0 .969-.199 1.32-.547.348-.351.547-.824.547-1.32zm14-1c0-.496-.199-.969-.547-1.32a1.879 1.879 0 00-1.32-.547c-.496 0-.969.199-1.32.547a1.879 1.879 0 00-.547 1.32c0 .496.199.969.547 1.32.351.348.824.547 1.32.547.496 0 .969-.199 1.32-.547.348-.351.547-.824.547-1.32zm14-1c0-.496-.199-.969-.547-1.32a1.879 1.879 0 00-1.32-.547c-.496 0-.969.199-1.32.547a1.879 1.879 0 00-.547 1.32c0 .496.199.969.547 1.32.351.348.824.547 1.32.547.496 0 .969-.199 1.32-.547.348-.351.547-.824.547-1.32zm14-1c0-.496-.199-.969-.547-1.32a1.879 1.879 0 00-1.32-.547c-.496 0-.969.199-1.32.547a1.879 1.879 0 00-.547 1.32c0 .496.199.969.547 1.32.351.348.824.547 1.32.547.496 0 .969-.199 1.32-.547.348-.351.547-.824.547-1.32zm0 0" fill-rule="evenodd" fill="#1c8f6b" fill-opacity=".3"/><path d="M355.867 151c0-.496-.199-.969-.547-1.32a1.879 1.879 0 00-1.32-.547c-.496 0-.969.199-1.32.547a1.879 1.879 0 00-.547 1.32c0 .496.199.969.547 1.32.351.348.824.547 1.32.547.496 0 .969-.199 1.32-.547.348-.351.547-.824.547-1.32zm14-3c0-.496-.199-.969-.547-1.32a1.879 1.879 0 00-1.32-.547c-.496 0-.969.199-1.32.547a1.879 1.879 0 00-.547 1.32c0 .496.199.969.547 1.32.351.348.824.547 1.32.547.496 0 .969-.199 1.32-.547.348-.351.547-.824.547-1.32zm14-3c0-.496-.199-.969-.547-1.32a1.879 1.879 0 00-1.32-.547c-.496 0-.969.199-1.32.547a1.879 1.879 0 00-.547 1.32c0 .496.199.969.547 1.32.351.348.824.547 1.32.547.496 0 .969-.199 1.32-.547.348-.351.547-.824.547-1.32zm14-3c0-.496-.199-.969-.547-1.32a1.879 1.879 0 00-1.32-.547c-.496 0-.969.199-1.32.547a1.879 1.879 0 00-.547 1.32c0 .496.199.969.547 1.32.351.348.824.547 1.32.547.496 0 .969-.199 1.32-.547.348-.351.547-.824.547-1.32zm14-3c0-.496-.199-.969-.547-1.32a1.879 1.879 0 00-1.32-.547c-.496 0-.969.199-1.32.547a1.879 1.879 0 00-.547 1.32c0 .496.199.969.547 1.32.351.348.824.547 1.32.547.496 0 .969-.199 1.32-.547.348-.351.547-.824.547-1.32zm14-2c0-.496-.199-.969-.547-1.32a1.879 1.879 0 00-1.32-.547c-.496 0-.969.199-1.32.547a1.879 1.879 0 00-.547 1.32c0 .496.199.969.547 1.32.351.348.824.547 1.32.547.496 0 .969-.199 1.32-.547.348-.351.547-.824.547-1.32zm0 0" fill-rule="evenodd" fill="#a54f05" fill-opacity=".3"/><path d="M34.867 142c0-.496-.199-.969-.547-1.32a1.879 1.879 0 00-1.32-.547c-.496 0-.969.199-1.32.547a1.879 1.879 0 00-.547 1.32c0 .496.199.969.547 1.32.351.348.824.547 1.32.547.496 0 .969-.199 1.32-.547.348-.351.547-.824.547-1.32zm70 56c0-.496-.199-.969-.547-1.32a1.879 1.879 0 00-1.32-.547c-.496 0-.969.199-1.32.547a1.879 1.879 0 00-.547 1.32c0 .496.199.969.547 1.32.351.348.824.547 1.32.547.496 0 .969-.199 1.32-.547.348-.351.547-.824.547-1.32zm14-35c0-.496-.199-.969-.547-1.32a1.879 1.879 0 00-1.32-.547c-.496 0-.969.199-1.32.547a1.879 1.879 0 00-.547 1.32c0 .496.199.969.547 1.32.351.348.824.547 1.32.547.496 0 .969-.199 1.32-.547.348-.351.547-.824.547-1.32zm14-30c0-.496-.199-.969-.547-1.32a1.879 1.879 0 00-1.32-.547c-.496 0-.969.199-1.32.547a1.879 1.879 0 00-.547 1.32c0 .496.199.969.547 1.32.351.348.824.547 1.32.547.496 0 .969-.199 1.32-.547.348-.351.547-.824.547-1.32zm14-7c0-.496-.199-.969-.547-1.32a1.879 1.879 0 00-1.32-.547c-.496 0-.969.199-1.32.547a1.879 1.879 0 00-.547 1.32c0 .496.199.969.547 1.32.351.348.824.547 1.32.547.496 0 .969-.199 1.32-.547.348-.351.547-.824.547-1.32zm14-4c0-.496-.199-.969-.547-1.32a1.879 1.879 0 00-1.32-.547c-.496 0-.969.199-1.32.547a1.879 1.879 0 00-.547 1.32c0 .496.199.969.547 1.32.351.348.824.547 1.32.547.496 0 .969-.199 1.32-.547.348-.351.547-.824.547-1.32zm14-12c0-.496-.199-.969-.547-1.32a1.879 1.879 0 00-1.32-.547c-.496 0-.969.199-1.32.547a1.879 1.879 0 00-.547 1.32c0 .496.199.969.547 1.32.351.348.824.547 1.32.547.496 0 .969-.199 1.32-.547.348-.351.547-.824.547-1.32zm14 3c0-.496-.199-.969-.547-1.32a1.879 1.879 0 00-1.32-.547c-.496 0-.969.199-1.32.547a1.879 1.879 0 00-.547 1.32c0 .496.199.969.547 1.32.351.348.824.547 1.32.547.496 0 .969-.199 1.32-.547.348-.351.547-.824.547-1.32zm14-16c0-.496-.199-.969-.547-1.32a1.879 1.879 0 00-1.32-.547c-.496 0-.969.199-1.32.547a1.879 1.879 0 00-.547 1.32c0 .496.199.969.547 1.32.351.348.824.547 1.32.547.496 0 .969-.199 1.32-.547.348-.351.547-.824.547-1.32zm14-13c0-.496-.199-.969-.547-1.32a1.879 1.879 0 00-1.32-.547c-.496 0-.969.199-1.32.547a1.879 1.879 0 00-.547 1.32c0 .496.199.969.547 1.32.351.348.824.547 1.32.547.496 0 .969-.199 1.32-.547.348-.351.547-.824.547-1.32zm14-11c0-.496-.199-.969-.547-1.32a1.879 1.879 0 00-1.32-.547c-.496 0-.969.199-1.32.547a1.879 1.879 0 00-.547 1.32c0 .496.199.969.547 1.32.351.348.824.547 1.32.547.496 0 .969-.199 1.32-.547.348-.351.547-.824.547-1.32zm14-3c0-.496-.199-.969-.547-1.32a1.879 1.879 0 00-1.32-.547c-.496 0-.969.199-1.32.547a1.879 1.879 0 00-.547 1.32c0 .496.199.969.547 1.32.351.348.824.547 1.32.547.496 0 .969-.199 1.32-.547.348-.351.547-.824.547-1.32zm14-20c0-.496-.199-.969-.547-1.32a1.879 1.879 0 00-1.32-.547c-.496 0-.969.199-1.32.547a1.879 1.879 0 00-.547 1.32c0 .496.199.969.547 1.32.351.348.824.547 1.32.547.496 0 .969-.199 1.32-.547.348-.351.547-.824.547-1.32zm13 5c0-.496-.199-.969-.547-1.32a1.879 1.879 0 00-1.32-.547c-.496 0-.969.199-1.32.547a1.879 1.879 0 00-.547 1.32c0 .496.199.969.547 1.32.351.348.824.547 1.32.547.496 0 .969-.199 1.32-.547.348-.351.547-.824.547-1.32zm14-4c0-.496-.199-.969-.547-1.32a1.879 1.879 0 00-1.32-.547c-.496 0-.969.199-1.32.547a1.879 1.879 0 00-.547 1.32c0 .496.199.969.547 1.32.351.348.824.547 1.32.547.496 0 .969-.199 1.32-.547.348-.351.547-.824.547-1.32zm14-4c0-.496-.199-.969-.547-1.32a1.879 1.879 0 00-1.32-.547c-.496 0-.969.199-1.32.547a1.879 1.879 0 00-.547 1.32c0 .496.199.969.547 1.32.351.348.824.547 1.32.547.496 0 .969-.199 1.32-.547.348-.351.547-.824.547-1.32zm14-1c0-.496-.199-.969-.547-1.32a1.879 1.879 0 00-1.32-.547c-.496 0-.969.199-1.32.547a1.879 1.879 0 00-.547 1.32c0 .496.199.969.547 1.32.351.348.824.547 1.32.547.496 0 .969-.199 1.32-.547.348-.351.547-.824.547-1.32zm14-5c0-.496-.199-.969-.547-1.32a1.879 1.879 0 00-1.32-.547c-.496 0-.969.199-1.32.547a1.879 1.879 0 00-.547 1.32c0 .496.199.969.547 1.32.351.348.824.547 1.32.547.496 0 .969-.199 1.32-.547.348-.351.547-.824.547-1.32zm14-2c0-.496-.199-.969-.547-1.32a1.879 1.879 0 00-1.32-.547c-.496 0-.969.199-1.32.547a1.879 1.879 0 00-.547 1.32c0 .496.199.969.547 1.32.351.348.824.547 1.32.547.496 0 .969-.199 1.32-.547.348-.351.547-.824.547-1.32zm14-4c0-.496-.199-.969-.547-1.32a1.879 1.879 0 00-1.32-.547c-.496 0-.969.199-1.32.547a1.879 1.879 0 00-.547 1.32c0 .496.199.969.547 1.32.351.348.824.547 1.32.547.496 0 .969-.199 1.32-.547.348-.351.547-.824.547-1.32zm0 0" fill-rule="evenodd" fill="#a60000"/><path d="M34.867 142c0-.496-.199-.969-.547-1.32a1.879 1.879 0 00-1.32-.547c-.496 0-.969.199-1.32.547a1.879 1.879 0 00-.547 1.32c0 .496.199.969.547 1.32.351.348.824.547 1.32.547.496 0 .969-.199 1.32-.547.348-.351.547-.824.547-1.32zm70 56c0-.496-.199-.969-.547-1.32a1.879 1.879 0 00-1.32-.547c-.496 0-.969.199-1.32.547a1.879 1.879 0 00-.547 1.32c0 .496.199.969.547 1.32.351.348.824.547 1.32.547.496 0 .969-.199 1.32-.547.348-.351.547-.824.547-1.32zm14-35c0-.496-.199-.969-.547-1.32a1.879 1.879 0 00-1.32-.547c-.496 0-.969.199-1.32.547a1.879 1.879 0 00-.547 1.32c0 .496.199.969.547 1.32.351.348.824.547 1.32.547.496 0 .969-.199 1.32-.547.348-.351.547-.824.547-1.32zm14-30c0-.496-.199-.969-.547-1.32a1.879 1.879 0 00-1.32-.547c-.496 0-.969.199-1.32.547a1.879 1.879 0 00-.547 1.32c0 .496.199.969.547 1.32.351.348.824.547 1.32.547.496 0 .969-.199 1.32-.547.348-.351.547-.824.547-1.32zm14-7c0-.496-.199-.969-.547-1.32a1.879 1.879 0 00-1.32-.547c-.496 0-.969.199-1.32.547a1.879 1.879 0 00-.547 1.32c0 .496.199.969.547 1.32.351.348.824.547 1.32.547.496 0 .969-.199 1.32-.547.348-.351.547-.824.547-1.32zm14 2c0-.496-.199-.969-.547-1.32a1.879 1.879 0 00-1.32-.547c-.496 0-.969.199-1.32.547a1.879 1.879 0 00-.547 1.32c0 .496.199.969.547 1.32.351.348.824.547 1.32.547.496 0 .969-.199 1.32-.547.348-.351.547-.824.547-1.32zm14-9c0-.496-.199-.969-.547-1.32a1.879 1.879 0 00-1.32-.547c-.496 0-.969.199-1.32.547a1.879 1.879 0 00-.547 1.32c0 .496.199.969.547 1.32.351.348.824.547 1.32.547.496 0 .969-.199 1.32-.547.348-.351.547-.824.547-1.32zm14 10c0-.496-.199-.969-.547-1.32a1.879 1.879 0 00-1.32-.547c-.496 0-.969.199-1.32.547a1.879 1.879 0 00-.547 1.32c0 .496.199.969.547 1.32.351.348.824.547 1.32.547.496 0 .969-.199 1.32-.547.348-.351.547-.824.547-1.32zm14-10c0-.496-.199-.969-.547-1.32a1.879 1.879 0 00-1.32-.547c-.496 0-.969.199-1.32.547a1.879 1.879 0 00-.547 1.32c0 .496.199.969.547 1.32.351.348.824.547 1.32.547.496 0 .969-.199 1.32-.547.348-.351.547-.824.547-1.32zm14-13c0-.496-.199-.969-.547-1.32a1.879 1.879 0 00-1.32-.547c-.496 0-.969.199-1.32.547a1.879 1.879 0 00-.547 1.32c0 .496.199.969.547 1.32.351.348.824.547 1.32.547.496 0 .969-.199 1.32-.547.348-.351.547-.824.547-1.32zm14-15c0-.496-.199-.969-.547-1.32a1.879 1.879 0 00-1.32-.547c-.496 0-.969.199-1.32.547a1.879 1.879 0 00-.547 1.32c0 .496.199.969.547 1.32.351.348.824.547 1.32.547.496 0 .969-.199 1.32-.547.348-.351.547-.824.547-1.32zm14-3c0-.496-.199-.969-.547-1.32a1.879 1.879 0 00-1.32-.547c-.496 0-.969.199-1.32.547a1.879 1.879 0 00-.547 1.32c0 .496.199.969.547 1.32.351.348.824.547 1.32.547.496 0 .969-.199 1.32-.547.348-.351.547-.824.547-1.32zm14-30c0-.496-.199-.969-.547-1.32a1.879 1.879 0 00-1.32-.547c-.496 0-.969.199-1.32.547a1.879 1.879 0 00-.547 1.32c0 .496.199.969.547 1.32.351.348.824.547 1.32.547.496 0 .969-.199 1.32-.547.348-.351.547-.824.547-1.32zm13 10c0-.496-.199-.969-.547-1.32a1.879 1.879 0 00-1.32-.547c-.496 0-.969.199-1.32.547a1.879 1.879 0 00-.547 1.32c0 .496.199.969.547 1.32.351.348.824.547 1.32.547.496 0 .969-.199 1.32-.547.348-.351.547-.824.547-1.32zm14-5c0-.496-.199-.969-.547-1.32a1.879 1.879 0 00-1.32-.547c-.496 0-.969.199-1.32.547a1.879 1.879 0 00-.547 1.32c0 .496.199.969.547 1.32.351.348.824.547 1.32.547.496 0 .969-.199 1.32-.547.348-.351.547-.824.547-1.32zm14-4c0-.496-.199-.969-.547-1.32a1.879 1.879 0 00-1.32-.547c-.496 0-.969.199-1.32.547a1.879 1.879 0 00-.547 1.32c0 .496.199.969.547 1.32.351.348.824.547 1.32.547.496 0 .969-.199 1.32-.547.348-.351.547-.824.547-1.32zm14-2c0-.496-.199-.969-.547-1.32a1.879 1.879 0 00-1.32-.547c-.496 0-.969.199-1.32.547a1.879 1.879 0 00-.547 1.32c0 .496.199.969.547 1.32.351.348.824.547 1.32.547.496 0 .969-.199 1.32-.547.348-.351.547-.824.547-1.32zm14-9c0-.496-.199-.969-.547-1.32a1.879 1.879 0 00-1.32-.547c-.496 0-.969.199-1.32.547a1.879 1.879 0 00-.547 1.32c0 .496.199.969.547 1.32.351.348.824.547 1.32.547.496 0 .969-.199 1.32-.547.348-.351.547-.824.547-1.32zm14-2c0-.496-.199-.969-.547-1.32a1.879 1.879 0 00-1.32-.547c-.496 0-.969.199-1.32.547a1.879 1.879 0 00-.547 1.32c0 .496.199.969.547 1.32.351.348.824.547 1.32.547.496 0 .969-.199 1.32-.547.348-.351.547-.824.547-1.32zm14-3c0-.496-.199-.969-.547-1.32a1.879 1.879 0 00-1.32-.547c-.496 0-.969.199-1.32.547a1.879 1.879 0 00-.547 1.32c0 .496.199.969.547 1.32.351.348.824.547 1.32.547.496 0 .969-.199 1.32-.547.348-.351.547-.824.547-1.32zm0 0" fill-rule="evenodd" fill="#0d86a0"/><path d="M174.867 193c0-.496-.199-.969-.547-1.32a1.879 1.879 0 00-1.32-.547c-.496 0-.969.199-1.32.547a1.879 1.879 0 00-.547 1.32c0 .496.199.969.547 1.32.351.348.824.547 1.32.547.496 0 .969-.199 1.32-.547.348-.351.547-.824.547-1.32zm14 0c0-.496-.199-.969-.547-1.32a1.879 1.879 0 00-1.32-.547c-.496 0-.969.199-1.32.547a1.879 1.879 0 00-.547 1.32c0 .496.199.969.547 1.32.351.348.824.547 1.32.547.496 0 .969-.199 1.32-.547.348-.351.547-.824.547-1.32zm14-46c0-.496-.199-.969-.547-1.32a1.879 1.879 0 00-1.32-.547c-.496 0-.969.199-1.32.547a1.879 1.879 0 00-.547 1.32c0 .496.199.969.547 1.32.351.348.824.547 1.32.547.496 0 .969-.199 1.32-.547.348-.351.547-.824.547-1.32zm14 13c0-.496-.199-.969-.547-1.32a1.879 1.879 0 00-1.32-.547c-.496 0-.969.199-1.32.547a1.879 1.879 0 00-.547 1.32c0 .496.199.969.547 1.32.351.348.824.547 1.32.547.496 0 .969-.199 1.32-.547.348-.351.547-.824.547-1.32zm14-19c0-.496-.199-.969-.547-1.32a1.879 1.879 0 00-1.32-.547c-.496 0-.969.199-1.32.547a1.879 1.879 0 00-.547 1.32c0 .496.199.969.547 1.32.351.348.824.547 1.32.547.496 0 .969-.199 1.32-.547.348-.351.547-.824.547-1.32zm14 14c0-.496-.199-.969-.547-1.32a1.879 1.879 0 00-1.32-.547c-.496 0-.969.199-1.32.547a1.879 1.879 0 00-.547 1.32c0 .496.199.969.547 1.32.351.348.824.547 1.32.547.496 0 .969-.199 1.32-.547.348-.351.547-.824.547-1.32zm14-16c0-.496-.199-.969-.547-1.32a1.879 1.879 0 00-1.32-.547c-.496 0-.969.199-1.32.547a1.879 1.879 0 00-.547 1.32c0 .496.199.969.547 1.32.351.348.824.547 1.32.547.496 0 .969-.199 1.32-.547.348-.351.547-.824.547-1.32zm13-24c0-.496-.199-.969-.547-1.32a1.879 1.879 0 00-1.32-.547c-.496 0-.969.199-1.32.547a1.879 1.879 0 00-.547 1.32c0 .496.199.969.547 1.32.351.348.824.547 1.32.547.496 0 .969-.199 1.32-.547.348-.351.547-.824.547-1.32zm14-2c0-.496-.199-.969-.547-1.32a1.879 1.879 0 00-1.32-.547c-.496 0-.969.199-1.32.547a1.879 1.879 0 00-.547 1.32c0 .496.199.969.547 1.32.351.348.824.547 1.32.547.496 0 .969-.199 1.32-.547.348-.351.547-.824.547-1.32zm14 5c0-.496-.199-.969-.547-1.32a1.879 1.879 0 00-1.32-.547c-.496 0-.969.199-1.32.547a1.879 1.879 0 00-.547 1.32c0 .496.199.969.547 1.32.351.348.824.547 1.32.547.496 0 .969-.199 1.32-.547.348-.351.547-.824.547-1.32zm14 14c0-.496-.199-.969-.547-1.32a1.879 1.879 0 00-1.32-.547c-.496 0-.969.199-1.32.547a1.879 1.879 0 00-.547 1.32c0 .496.199.969.547 1.32.351.348.824.547 1.32.547.496 0 .969-.199 1.32-.547.348-.351.547-.824.547-1.32zm14 0c0-.496-.199-.969-.547-1.32a1.879 1.879 0 00-1.32-.547c-.496 0-.969.199-1.32.547a1.879 1.879 0 00-.547 1.32c0 .496.199.969.547 1.32.351.348.824.547 1.32.547.496 0 .969-.199 1.32-.547.348-.351.547-.824.547-1.32zm14-1c0-.496-.199-.969-.547-1.32a1.879 1.879 0 00-1.32-.547c-.496 0-.969.199-1.32.547a1.879 1.879 0 00-.547 1.32c0 .496.199.969.547 1.32.351.348.824.547 1.32.547.496 0 .969-.199 1.32-.547.348-.351.547-.824.547-1.32zm14-12c0-.496-.199-.969-.547-1.32a1.879 1.879 0 00-1.32-.547c-.496 0-.969.199-1.32.547a1.879 1.879 0 00-.547 1.32c0 .496.199.969.547 1.32.351.348.824.547 1.32.547.496 0 .969-.199 1.32-.547.348-.351.547-.824.547-1.32zm0 0" fill-rule="evenodd" fill="#c05c20"/><path d="M146.867 232c0-.496-.199-.969-.547-1.32a1.879 1.879 0 00-1.32-.547c-.496 0-.969.199-1.32.547a1.879 1.879 0 00-.547 1.32c0 .496.199.969.547 1.32.351.348.824.547 1.32.547.496 0 .969-.199 1.32-.547.348-.351.547-.824.547-1.32zm14-62c0-.496-.199-.969-.547-1.32a1.879 1.879 0 00-1.32-.547c-.496 0-.969.199-1.32.547a1.879 1.879 0 00-.547 1.32c0 .496.199.969.547 1.32.351.348.824.547 1.32.547.496 0 .969-.199 1.32-.547.348-.351.547-.824.547-1.32zm14 1c0-.496-.199-.969-.547-1.32a1.879 1.879 0 00-1.32-.547c-.496 0-.969.199-1.32.547a1.879 1.879 0 00-.547 1.32c0 .496.199.969.547 1.32.351.348.824.547 1.32.547.496 0 .969-.199 1.32-.547.348-.351.547-.824.547-1.32zm14 17c0-.496-.199-.969-.547-1.32a1.879 1.879 0 00-1.32-.547c-.496 0-.969.199-1.32.547a1.879 1.879 0 00-.547 1.32c0 .496.199.969.547 1.32.351.348.824.547 1.32.547.496 0 .969-.199 1.32-.547.348-.351.547-.824.547-1.32zm14-30c0-.496-.199-.969-.547-1.32a1.879 1.879 0 00-1.32-.547c-.496 0-.969.199-1.32.547a1.879 1.879 0 00-.547 1.32c0 .496.199.969.547 1.32.351.348.824.547 1.32.547.496 0 .969-.199 1.32-.547.348-.351.547-.824.547-1.32zm14-4c0-.496-.199-.969-.547-1.32a1.879 1.879 0 00-1.32-.547c-.496 0-.969.199-1.32.547a1.879 1.879 0 00-.547 1.32c0 .496.199.969.547 1.32.351.348.824.547 1.32.547.496 0 .969-.199 1.32-.547.348-.351.547-.824.547-1.32zm14 5c0-.496-.199-.969-.547-1.32a1.879 1.879 0 00-1.32-.547c-.496 0-.969.199-1.32.547a1.879 1.879 0 00-.547 1.32c0 .496.199.969.547 1.32.351.348.824.547 1.32.547.496 0 .969-.199 1.32-.547.348-.351.547-.824.547-1.32zm14-21c0-.496-.199-.969-.547-1.32a1.879 1.879 0 00-1.32-.547c-.496 0-.969.199-1.32.547a1.879 1.879 0 00-.547 1.32c0 .496.199.969.547 1.32.351.348.824.547 1.32.547.496 0 .969-.199 1.32-.547.348-.351.547-.824.547-1.32zm14 3c0-.496-.199-.969-.547-1.32a1.879 1.879 0 00-1.32-.547c-.496 0-.969.199-1.32.547a1.879 1.879 0 00-.547 1.32c0 .496.199.969.547 1.32.351.348.824.547 1.32.547.496 0 .969-.199 1.32-.547.348-.351.547-.824.547-1.32zm13-6c0-.496-.199-.969-.547-1.32a1.879 1.879 0 00-1.32-.547c-.496 0-.969.199-1.32.547a1.879 1.879 0 00-.547 1.32c0 .496.199.969.547 1.32.351.348.824.547 1.32.547.496 0 .969-.199 1.32-.547.348-.351.547-.824.547-1.32zm14-6c0-.496-.199-.969-.547-1.32a1.879 1.879 0 00-1.32-.547c-.496 0-.969.199-1.32.547a1.879 1.879 0 00-.547 1.32c0 .496.199.969.547 1.32.351.348.824.547 1.32.547.496 0 .969-.199 1.32-.547.348-.351.547-.824.547-1.32zm14-4c0-.496-.199-.969-.547-1.32a1.879 1.879 0 00-1.32-.547c-.496 0-.969.199-1.32.547a1.879 1.879 0 00-.547 1.32c0 .496.199.969.547 1.32.351.348.824.547 1.32.547.496 0 .969-.199 1.32-.547.348-.351.547-.824.547-1.32zm14-11c0-.496-.199-.969-.547-1.32a1.879 1.879 0 00-1.32-.547c-.496 0-.969.199-1.32.547a1.879 1.879 0 00-.547 1.32c0 .496.199.969.547 1.32.351.348.824.547 1.32.547.496 0 .969-.199 1.32-.547.348-.351.547-.824.547-1.32zm14 10c0-.496-.199-.969-.547-1.32a1.879 1.879 0 00-1.32-.547c-.496 0-.969.199-1.32.547a1.879 1.879 0 00-.547 1.32c0 .496.199.969.547 1.32.351.348.824.547 1.32.547.496 0 .969-.199 1.32-.547.348-.351.547-.824.547-1.32zm14 2c0-.496-.199-.969-.547-1.32a1.879 1.879 0 00-1.32-.547c-.496 0-.969.199-1.32.547a1.879 1.879 0 00-.547 1.32c0 .496.199.969.547 1.32.351.348.824.547 1.32.547.496 0 .969-.199 1.32-.547.348-.351.547-.824.547-1.32zm14-9c0-.496-.199-.969-.547-1.32a1.879 1.879 0 00-1.32-.547c-.496 0-.969.199-1.32.547a1.879 1.879 0 00-.547 1.32c0 .496.199.969.547 1.32.351.348.824.547 1.32.547.496 0 .969-.199 1.32-.547.348-.351.547-.824.547-1.32zm0 0" fill-rule="evenodd" fill="#6f42b5"/><path d="M174.867 232c0-.496-.199-.969-.547-1.32a1.879 1.879 0 00-1.32-.547c-.496 0-.969.199-1.32.547a1.879 1.879 0 00-.547 1.32c0 .496.199.969.547 1.32.351.348.824.547 1.32.547.496 0 .969-.199 1.32-.547.348-.351.547-.824.547-1.32zm14-34c0-.496-.199-.969-.547-1.32a1.879 1.879 0 00-1.32-.547c-.496 0-.969.199-1.32.547a1.879 1.879 0 00-.547 1.32c0 .496.199.969.547 1.32.351.348.824.547 1.32.547.496 0 .969-.199 1.32-.547.348-.351.547-.824.547-1.32zm14 0c0-.496-.199-.969-.547-1.32a1.879 1.879 0 00-1.32-.547c-.496 0-.969.199-1.32.547a1.879 1.879 0 00-.547 1.32c0 .496.199.969.547 1.32.351.348.824.547 1.32.547.496 0 .969-.199 1.32-.547.348-.351.547-.824.547-1.32zm14-42c0-.496-.199-.969-.547-1.32a1.879 1.879 0 00-1.32-.547c-.496 0-.969.199-1.32.547a1.879 1.879 0 00-.547 1.32c0 .496.199.969.547 1.32.351.348.824.547 1.32.547.496 0 .969-.199 1.32-.547.348-.351.547-.824.547-1.32zm14-20c0-.496-.199-.969-.547-1.32a1.879 1.879 0 00-1.32-.547c-.496 0-.969.199-1.32.547a1.879 1.879 0 00-.547 1.32c0 .496.199.969.547 1.32.351.348.824.547 1.32.547.496 0 .969-.199 1.32-.547.348-.351.547-.824.547-1.32zm14 3c0-.496-.199-.969-.547-1.32a1.879 1.879 0 00-1.32-.547c-.496 0-.969.199-1.32.547a1.879 1.879 0 00-.547 1.32c0 .496.199.969.547 1.32.351.348.824.547 1.32.547.496 0 .969-.199 1.32-.547.348-.351.547-.824.547-1.32zm14 3c0-.496-.199-.969-.547-1.32a1.879 1.879 0 00-1.32-.547c-.496 0-.969.199-1.32.547a1.879 1.879 0 00-.547 1.32c0 .496.199.969.547 1.32.351.348.824.547 1.32.547.496 0 .969-.199 1.32-.547.348-.351.547-.824.547-1.32zm13 1c0-.496-.199-.969-.547-1.32a1.879 1.879 0 00-1.32-.547c-.496 0-.969.199-1.32.547a1.879 1.879 0 00-.547 1.32c0 .496.199.969.547 1.32.351.348.824.547 1.32.547.496 0 .969-.199 1.32-.547.348-.351.547-.824.547-1.32zm14-15c0-.496-.199-.969-.547-1.32a1.879 1.879 0 00-1.32-.547c-.496 0-.969.199-1.32.547a1.879 1.879 0 00-.547 1.32c0 .496.199.969.547 1.32.351.348.824.547 1.32.547.496 0 .969-.199 1.32-.547.348-.351.547-.824.547-1.32zm14-1c0-.496-.199-.969-.547-1.32a1.879 1.879 0 00-1.32-.547c-.496 0-.969.199-1.32.547a1.879 1.879 0 00-.547 1.32c0 .496.199.969.547 1.32.351.348.824.547 1.32.547.496 0 .969-.199 1.32-.547.348-.351.547-.824.547-1.32zm14 2c0-.496-.199-.969-.547-1.32a1.879 1.879 0 00-1.32-.547c-.496 0-.969.199-1.32.547a1.879 1.879 0 00-.547 1.32c0 .496.199.969.547 1.32.351.348.824.547 1.32.547.496 0 .969-.199 1.32-.547.348-.351.547-.824.547-1.32zm14-1c0-.496-.199-.969-.547-1.32a1.879 1.879 0 00-1.32-.547c-.496 0-.969.199-1.32.547a1.879 1.879 0 00-.547 1.32c0 .496.199.969.547 1.32.351.348.824.547 1.32.547.496 0 .969-.199 1.32-.547.348-.351.547-.824.547-1.32zm14 0c0-.496-.199-.969-.547-1.32a1.879 1.879 0 00-1.32-.547c-.496 0-.969.199-1.32.547a1.879 1.879 0 00-.547 1.32c0 .496.199.969.547 1.32.351.348.824.547 1.32.547.496 0 .969-.199 1.32-.547.348-.351.547-.824.547-1.32zm14-10c0-.496-.199-.969-.547-1.32a1.879 1.879 0 00-1.32-.547c-.496 0-.969.199-1.32.547a1.879 1.879 0 00-.547 1.32c0 .496.199.969.547 1.32.351.348.824.547 1.32.547.496 0 .969-.199 1.32-.547.348-.351.547-.824.547-1.32zm0 0" fill-rule="evenodd" fill="#769003"/><path d="M174.867 232c0-.496-.199-.969-.547-1.32a1.879 1.879 0 00-1.32-.547c-.496 0-.969.199-1.32.547a1.879 1.879 0 00-.547 1.32c0 .496.199.969.547 1.32.351.348.824.547 1.32.547.496 0 .969-.199 1.32-.547.348-.351.547-.824.547-1.32zm14-51c0-.496-.199-.969-.547-1.32a1.879 1.879 0 00-1.32-.547c-.496 0-.969.199-1.32.547a1.879 1.879 0 00-.547 1.32c0 .496.199.969.547 1.32.351.348.824.547 1.32.547.496 0 .969-.199 1.32-.547.348-.351.547-.824.547-1.32zm14-15c0-.496-.199-.969-.547-1.32a1.879 1.879 0 00-1.32-.547c-.496 0-.969.199-1.32.547a1.879 1.879 0 00-.547 1.32c0 .496.199.969.547 1.32.351.348.824.547 1.32.547.496 0 .969-.199 1.32-.547.348-.351.547-.824.547-1.32zm14-6c0-.496-.199-.969-.547-1.32a1.879 1.879 0 00-1.32-.547c-.496 0-.969.199-1.32.547a1.879 1.879 0 00-.547 1.32c0 .496.199.969.547 1.32.351.348.824.547 1.32.547.496 0 .969-.199 1.32-.547.348-.351.547-.824.547-1.32zm14-7c0-.496-.199-.969-.547-1.32a1.879 1.879 0 00-1.32-.547c-.496 0-.969.199-1.32.547a1.879 1.879 0 00-.547 1.32c0 .496.199.969.547 1.32.351.348.824.547 1.32.547.496 0 .969-.199 1.32-.547.348-.351.547-.824.547-1.32zm14-5c0-.496-.199-.969-.547-1.32a1.879 1.879 0 00-1.32-.547c-.496 0-.969.199-1.32.547a1.879 1.879 0 00-.547 1.32c0 .496.199.969.547 1.32.351.348.824.547 1.32.547.496 0 .969-.199 1.32-.547.348-.351.547-.824.547-1.32zm14-8c0-.496-.199-.969-.547-1.32a1.879 1.879 0 00-1.32-.547c-.496 0-.969.199-1.32.547a1.879 1.879 0 00-.547 1.32c0 .496.199.969.547 1.32.351.348.824.547 1.32.547.496 0 .969-.199 1.32-.547.348-.351.547-.824.547-1.32zm13-14c0-.496-.199-.969-.547-1.32a1.879 1.879 0 00-1.32-.547c-.496 0-.969.199-1.32.547a1.879 1.879 0 00-.547 1.32c0 .496.199.969.547 1.32.351.348.824.547 1.32.547.496 0 .969-.199 1.32-.547.348-.351.547-.824.547-1.32zm14 8c0-.496-.199-.969-.547-1.32a1.879 1.879 0 00-1.32-.547c-.496 0-.969.199-1.32.547a1.879 1.879 0 00-.547 1.32c0 .496.199.969.547 1.32.351.348.824.547 1.32.547.496 0 .969-.199 1.32-.547.348-.351.547-.824.547-1.32zm14 0c0-.496-.199-.969-.547-1.32a1.879 1.879 0 00-1.32-.547c-.496 0-.969.199-1.32.547a1.879 1.879 0 00-.547 1.32c0 .496.199.969.547 1.32.351.348.824.547 1.32.547.496 0 .969-.199 1.32-.547.348-.351.547-.824.547-1.32zm14 0c0-.496-.199-.969-.547-1.32a1.879 1.879 0 00-1.32-.547c-.496 0-.969.199-1.32.547a1.879 1.879 0 00-.547 1.32c0 .496.199.969.547 1.32.351.348.824.547 1.32.547.496 0 .969-.199 1.32-.547.348-.351.547-.824.547-1.32zm14-7c0-.496-.199-.969-.547-1.32a1.879 1.879 0 00-1.32-.547c-.496 0-.969.199-1.32.547a1.879 1.879 0 00-.547 1.32c0 .496.199.969.547 1.32.351.348.824.547 1.32.547.496 0 .969-.199 1.32-.547.348-.351.547-.824.547-1.32zm14 6c0-.496-.199-.969-.547-1.32a1.879 1.879 0 00-1.32-.547c-.496 0-.969.199-1.32.547a1.879 1.879 0 00-.547 1.32c0 .496.199.969.547 1.32.351.348.824.547 1.32.547.496 0 .969-.199 1.32-.547.348-.351.547-.824.547-1.32zm14-5c0-.496-.199-.969-.547-1.32a1.879 1.879 0 00-1.32-.547c-.496 0-.969.199-1.32.547a1.879 1.879 0 00-.547 1.32c0 .496.199.969.547 1.32.351.348.824.547 1.32.547.496 0 .969-.199 1.32-.547.348-.351.547-.824.547-1.32zm0 0" fill-rule="evenodd" fill="#a8364d"/><path d="M188.867 232c0-.496-.199-.969-.547-1.32a1.879 1.879 0 00-1.32-.547c-.496 0-.969.199-1.32.547a1.879 1.879 0 00-.547 1.32c0 .496.199.969.547 1.32.351.348.824.547 1.32.547.496 0 .969-.199 1.32-.547.348-.351.547-.824.547-1.32zm14-64c0-.496-.199-.969-.547-1.32a1.879 1.879 0 00-1.32-.547c-.496 0-.969.199-1.32.547a1.879 1.879 0 00-.547 1.32c0 .496.199.969.547 1.32.351.348.824.547 1.32.547.496 0 .969-.199 1.32-.547.348-.351.547-.824.547-1.32zm14-13c0-.496-.199-.969-.547-1.32a1.879 1.879 0 00-1.32-.547c-.496 0-.969.199-1.32.547a1.879 1.879 0 00-.547 1.32c0 .496.199.969.547 1.32.351.348.824.547 1.32.547.496 0 .969-.199 1.32-.547.348-.351.547-.824.547-1.32zm14 3c0-.496-.199-.969-.547-1.32a1.879 1.879 0 00-1.32-.547c-.496 0-.969.199-1.32.547a1.879 1.879 0 00-.547 1.32c0 .496.199.969.547 1.32.351.348.824.547 1.32.547.496 0 .969-.199 1.32-.547.348-.351.547-.824.547-1.32zm14 18c0-.496-.199-.969-.547-1.32a1.879 1.879 0 00-1.32-.547c-.496 0-.969.199-1.32.547a1.879 1.879 0 00-.547 1.32c0 .496.199.969.547 1.32.351.348.824.547 1.32.547.496 0 .969-.199 1.32-.547.348-.351.547-.824.547-1.32zm14-31c0-.496-.199-.969-.547-1.32a1.879 1.879 0 00-1.32-.547c-.496 0-.969.199-1.32.547a1.879 1.879 0 00-.547 1.32c0 .496.199.969.547 1.32.351.348.824.547 1.32.547.496 0 .969-.199 1.32-.547.348-.351.547-.824.547-1.32zm13-6c0-.496-.199-.969-.547-1.32a1.879 1.879 0 00-1.32-.547c-.496 0-.969.199-1.32.547a1.879 1.879 0 00-.547 1.32c0 .496.199.969.547 1.32.351.348.824.547 1.32.547.496 0 .969-.199 1.32-.547.348-.351.547-.824.547-1.32zm14-1c0-.496-.199-.969-.547-1.32a1.879 1.879 0 00-1.32-.547c-.496 0-.969.199-1.32.547a1.879 1.879 0 00-.547 1.32c0 .496.199.969.547 1.32.351.348.824.547 1.32.547.496 0 .969-.199 1.32-.547.348-.351.547-.824.547-1.32zm14 6c0-.496-.199-.969-.547-1.32a1.879 1.879 0 00-1.32-.547c-.496 0-.969.199-1.32.547a1.879 1.879 0 00-.547 1.32c0 .496.199.969.547 1.32.351.348.824.547 1.32.547.496 0 .969-.199 1.32-.547.348-.351.547-.824.547-1.32zm14-12c0-.496-.199-.969-.547-1.32a1.879 1.879 0 00-1.32-.547c-.496 0-.969.199-1.32.547a1.879 1.879 0 00-.547 1.32c0 .496.199.969.547 1.32.351.348.824.547 1.32.547.496 0 .969-.199 1.32-.547.348-.351.547-.824.547-1.32zm14 8c0-.496-.199-.969-.547-1.32a1.879 1.879 0 00-1.32-.547c-.496 0-.969.199-1.32.547a1.879 1.879 0 00-.547 1.32c0 .496.199.969.547 1.32.351.348.824.547 1.32.547.496 0 .969-.199 1.32-.547.348-.351.547-.824.547-1.32zm14-11c0-.496-.199-.969-.547-1.32a1.879 1.879 0 00-1.32-.547c-.496 0-.969.199-1.32.547a1.879 1.879 0 00-.547 1.32c0 .496.199.969.547 1.32.351.348.824.547 1.32.547.496 0 .969-.199 1.32-.547.348-.351.547-.824.547-1.32zm14-1c0-.496-.199-.969-.547-1.32a1.879 1.879 0 00-1.32-.547c-.496 0-.969.199-1.32.547a1.879 1.879 0 00-.547 1.32c0 .496.199.969.547 1.32.351.348.824.547 1.32.547.496 0 .969-.199 1.32-.547.348-.351.547-.824.547-1.32zm0 0" fill-rule="evenodd" fill="#3664cc"/><path d="M174.867 215c0-.496-.199-.969-.547-1.32a1.879 1.879 0 00-1.32-.547c-.496 0-.969.199-1.32.547a1.879 1.879 0 00-.547 1.32c0 .496.199.969.547 1.32.351.348.824.547 1.32.547.496 0 .969-.199 1.32-.547.348-.351.547-.824.547-1.32zm14 17c0-.496-.199-.969-.547-1.32a1.879 1.879 0 00-1.32-.547c-.496 0-.969.199-1.32.547a1.879 1.879 0 00-.547 1.32c0 .496.199.969.547 1.32.351.348.824.547 1.32.547.496 0 .969-.199 1.32-.547.348-.351.547-.824.547-1.32zm14-34c0-.496-.199-.969-.547-1.32a1.879 1.879 0 00-1.32-.547c-.496 0-.969.199-1.32.547a1.879 1.879 0 00-.547 1.32c0 .496.199.969.547 1.32.351.348.824.547 1.32.547.496 0 .969-.199 1.32-.547.348-.351.547-.824.547-1.32zm14-24c0-.496-.199-.969-.547-1.32a1.879 1.879 0 00-1.32-.547c-.496 0-.969.199-1.32.547a1.879 1.879 0 00-.547 1.32c0 .496.199.969.547 1.32.351.348.824.547 1.32.547.496 0 .969-.199 1.32-.547.348-.351.547-.824.547-1.32zm14-12c0-.496-.199-.969-.547-1.32a1.879 1.879 0 00-1.32-.547c-.496 0-.969.199-1.32.547a1.879 1.879 0 00-.547 1.32c0 .496.199.969.547 1.32.351.348.824.547 1.32.547.496 0 .969-.199 1.32-.547.348-.351.547-.824.547-1.32zm14 9c0-.496-.199-.969-.547-1.32a1.879 1.879 0 00-1.32-.547c-.496 0-.969.199-1.32.547a1.879 1.879 0 00-.547 1.32c0 .496.199.969.547 1.32.351.348.824.547 1.32.547.496 0 .969-.199 1.32-.547.348-.351.547-.824.547-1.32zm14-16c0-.496-.199-.969-.547-1.32a1.879 1.879 0 00-1.32-.547c-.496 0-.969.199-1.32.547a1.879 1.879 0 00-.547 1.32c0 .496.199.969.547 1.32.351.348.824.547 1.32.547.496 0 .969-.199 1.32-.547.348-.351.547-.824.547-1.32zm13-11c0-.496-.199-.969-.547-1.32a1.879 1.879 0 00-1.32-.547c-.496 0-.969.199-1.32.547a1.879 1.879 0 00-.547 1.32c0 .496.199.969.547 1.32.351.348.824.547 1.32.547.496 0 .969-.199 1.32-.547.348-.351.547-.824.547-1.32zm14-9c0-.496-.199-.969-.547-1.32a1.879 1.879 0 00-1.32-.547c-.496 0-.969.199-1.32.547a1.879 1.879 0 00-.547 1.32c0 .496.199.969.547 1.32.351.348.824.547 1.32.547.496 0 .969-.199 1.32-.547.348-.351.547-.824.547-1.32zm14-9c0-.496-.199-.969-.547-1.32a1.879 1.879 0 00-1.32-.547c-.496 0-.969.199-1.32.547a1.879 1.879 0 00-.547 1.32c0 .496.199.969.547 1.32.351.348.824.547 1.32.547.496 0 .969-.199 1.32-.547.348-.351.547-.824.547-1.32zm14 12c0-.496-.199-.969-.547-1.32a1.879 1.879 0 00-1.32-.547c-.496 0-.969.199-1.32.547a1.879 1.879 0 00-.547 1.32c0 .496.199.969.547 1.32.351.348.824.547 1.32.547.496 0 .969-.199 1.32-.547.348-.351.547-.824.547-1.32zm14 0c0-.496-.199-.969-.547-1.32a1.879 1.879 0 00-1.32-.547c-.496 0-.969.199-1.32.547a1.879 1.879 0 00-.547 1.32c0 .496.199.969.547 1.32.351.348.824.547 1.32.547.496 0 .969-.199 1.32-.547.348-.351.547-.824.547-1.32zm14-5c0-.496-.199-.969-.547-1.32a1.879 1.879 0 00-1.32-.547c-.496 0-.969.199-1.32.547a1.879 1.879 0 00-.547 1.32c0 .496.199.969.547 1.32.351.348.824.547 1.32.547.496 0 .969-.199 1.32-.547.348-.351.547-.824.547-1.32zm14-9c0-.496-.199-.969-.547-1.32a1.879 1.879 0 00-1.32-.547c-.496 0-.969.199-1.32.547a1.879 1.879 0 00-.547 1.32c0 .496.199.969.547 1.32.351.348.824.547 1.32.547.496 0 .969-.199 1.32-.547.348-.351.547-.824.547-1.32zm0 0" fill-rule="evenodd" fill="#c8860a"/><path d="M174.867 193c0-.496-.199-.969-.547-1.32a1.879 1.879 0 00-1.32-.547c-.496 0-.969.199-1.32.547a1.879 1.879 0 00-.547 1.32c0 .496.199.969.547 1.32.351.348.824.547 1.32.547.496 0 .969-.199 1.32-.547.348-.351.547-.824.547-1.32zm14 5c0-.496-.199-.969-.547-1.32a1.879 1.879 0 00-1.32-.547c-.496 0-.969.199-1.32.547a1.879 1.879 0 00-.547 1.32c0 .496.199.969.547 1.32.351.348.824.547 1.32.547.496 0 .969-.199 1.32-.547.348-.351.547-.824.547-1.32zm14-36c0-.496-.199-.969-.547-1.32a1.879 1.879 0 00-1.32-.547c-.496 0-.969.199-1.32.547a1.879 1.879 0 00-.547 1.32c0 .496.199.969.547 1.32.351.348.824.547 1.32.547.496 0 .969-.199 1.32-.547.348-.351.547-.824.547-1.32zm14-13c0-.496-.199-.969-.547-1.32a1.879 1.879 0 00-1.32-.547c-.496 0-.969.199-1.32.547a1.879 1.879 0 00-.547 1.32c0 .496.199.969.547 1.32.351.348.824.547 1.32.547.496 0 .969-.199 1.32-.547.348-.351.547-.824.547-1.32zm14 13c0-.496-.199-.969-.547-1.32a1.879 1.879 0 00-1.32-.547c-.496 0-.969.199-1.32.547a1.879 1.879 0 00-.547 1.32c0 .496.199.969.547 1.32.351.348.824.547 1.32.547.496 0 .969-.199 1.32-.547.348-.351.547-.824.547-1.32zm14-17c0-.496-.199-.969-.547-1.32a1.879 1.879 0 00-1.32-.547c-.496 0-.969.199-1.32.547a1.879 1.879 0 00-.547 1.32c0 .496.199.969.547 1.32.351.348.824.547 1.32.547.496 0 .969-.199 1.32-.547.348-.351.547-.824.547-1.32zm14 12c0-.496-.199-.969-.547-1.32a1.879 1.879 0 00-1.32-.547c-.496 0-.969.199-1.32.547a1.879 1.879 0 00-.547 1.32c0 .496.199.969.547 1.32.351.348.824.547 1.32.547.496 0 .969-.199 1.32-.547.348-.351.547-.824.547-1.32zm13 9c0-.496-.199-.969-.547-1.32a1.879 1.879 0 00-1.32-.547c-.496 0-.969.199-1.32.547a1.879 1.879 0 00-.547 1.32c0 .496.199.969.547 1.32.351.348.824.547 1.32.547.496 0 .969-.199 1.32-.547.348-.351.547-.824.547-1.32zm14-4c0-.496-.199-.969-.547-1.32a1.879 1.879 0 00-1.32-.547c-.496 0-.969.199-1.32.547a1.879 1.879 0 00-.547 1.32c0 .496.199.969.547 1.32.351.348.824.547 1.32.547.496 0 .969-.199 1.32-.547.348-.351.547-.824.547-1.32zm14-20c0-.496-.199-.969-.547-1.32a1.879 1.879 0 00-1.32-.547c-.496 0-.969.199-1.32.547a1.879 1.879 0 00-.547 1.32c0 .496.199.969.547 1.32.351.348.824.547 1.32.547.496 0 .969-.199 1.32-.547.348-.351.547-.824.547-1.32zm14 6c0-.496-.199-.969-.547-1.32a1.879 1.879 0 00-1.32-.547c-.496 0-.969.199-1.32.547a1.879 1.879 0 00-.547 1.32c0 .496.199.969.547 1.32.351.348.824.547 1.32.547.496 0 .969-.199 1.32-.547.348-.351.547-.824.547-1.32zm14 7c0-.496-.199-.969-.547-1.32a1.879 1.879 0 00-1.32-.547c-.496 0-.969.199-1.32.547a1.879 1.879 0 00-.547 1.32c0 .496.199.969.547 1.32.351.348.824.547 1.32.547.496 0 .969-.199 1.32-.547.348-.351.547-.824.547-1.32zm14-12c0-.496-.199-.969-.547-1.32a1.879 1.879 0 00-1.32-.547c-.496 0-.969.199-1.32.547a1.879 1.879 0 00-.547 1.32c0 .496.199.969.547 1.32.351.348.824.547 1.32.547.496 0 .969-.199 1.32-.547.348-.351.547-.824.547-1.32zm14 1c0-.496-.199-.969-.547-1.32a1.879 1.879 0 00-1.32-.547c-.496 0-.969.199-1.32.547a1.879 1.879 0 00-.547 1.32c0 .496.199.969.547 1.32.351.348.824.547 1.32.547.496 0 .969-.199 1.32-.547.348-.351.547-.824.547-1.32zm0 0" fill-rule="evenodd" fill="#833987"/><path d="M188.867 232c0-.496-.199-.969-.547-1.32a1.879 1.879 0 00-1.32-.547c-.496 0-.969.199-1.32.547a1.879 1.879 0 00-.547 1.32c0 .496.199.969.547 1.32.351.348.824.547 1.32.547.496 0 .969-.199 1.32-.547.348-.351.547-.824.547-1.32zm14-51c0-.496-.199-.969-.547-1.32a1.879 1.879 0 00-1.32-.547c-.496 0-.969.199-1.32.547a1.879 1.879 0 00-.547 1.32c0 .496.199.969.547 1.32.351.348.824.547 1.32.547.496 0 .969-.199 1.32-.547.348-.351.547-.824.547-1.32zm14-3c0-.496-.199-.969-.547-1.32a1.879 1.879 0 00-1.32-.547c-.496 0-.969.199-1.32.547a1.879 1.879 0 00-.547 1.32c0 .496.199.969.547 1.32.351.348.824.547 1.32.547.496 0 .969-.199 1.32-.547.348-.351.547-.824.547-1.32zm14-8c0-.496-.199-.969-.547-1.32a1.879 1.879 0 00-1.32-.547c-.496 0-.969.199-1.32.547a1.879 1.879 0 00-.547 1.32c0 .496.199.969.547 1.32.351.348.824.547 1.32.547.496 0 .969-.199 1.32-.547.348-.351.547-.824.547-1.32zm14-6c0-.496-.199-.969-.547-1.32a1.879 1.879 0 00-1.32-.547c-.496 0-.969.199-1.32.547a1.879 1.879 0 00-.547 1.32c0 .496.199.969.547 1.32.351.348.824.547 1.32.547.496 0 .969-.199 1.32-.547.348-.351.547-.824.547-1.32zm14-8c0-.496-.199-.969-.547-1.32a1.879 1.879 0 00-1.32-.547c-.496 0-.969.199-1.32.547a1.879 1.879 0 00-.547 1.32c0 .496.199.969.547 1.32.351.348.824.547 1.32.547.496 0 .969-.199 1.32-.547.348-.351.547-.824.547-1.32zm13-6c0-.496-.199-.969-.547-1.32a1.879 1.879 0 00-1.32-.547c-.496 0-.969.199-1.32.547a1.879 1.879 0 00-.547 1.32c0 .496.199.969.547 1.32.351.348.824.547 1.32.547.496 0 .969-.199 1.32-.547.348-.351.547-.824.547-1.32zm14-1c0-.496-.199-.969-.547-1.32a1.879 1.879 0 00-1.32-.547c-.496 0-.969.199-1.32.547a1.879 1.879 0 00-.547 1.32c0 .496.199.969.547 1.32.351.348.824.547 1.32.547.496 0 .969-.199 1.32-.547.348-.351.547-.824.547-1.32zm14-6c0-.496-.199-.969-.547-1.32a1.879 1.879 0 00-1.32-.547c-.496 0-.969.199-1.32.547a1.879 1.879 0 00-.547 1.32c0 .496.199.969.547 1.32.351.348.824.547 1.32.547.496 0 .969-.199 1.32-.547.348-.351.547-.824.547-1.32zm14 3c0-.496-.199-.969-.547-1.32a1.879 1.879 0 00-1.32-.547c-.496 0-.969.199-1.32.547a1.879 1.879 0 00-.547 1.32c0 .496.199.969.547 1.32.351.348.824.547 1.32.547.496 0 .969-.199 1.32-.547.348-.351.547-.824.547-1.32zm14 0c0-.496-.199-.969-.547-1.32a1.879 1.879 0 00-1.32-.547c-.496 0-.969.199-1.32.547a1.879 1.879 0 00-.547 1.32c0 .496.199.969.547 1.32.351.348.824.547 1.32.547.496 0 .969-.199 1.32-.547.348-.351.547-.824.547-1.32zm14-1c0-.496-.199-.969-.547-1.32a1.879 1.879 0 00-1.32-.547c-.496 0-.969.199-1.32.547a1.879 1.879 0 00-.547 1.32c0 .496.199.969.547 1.32.351.348.824.547 1.32.547.496 0 .969-.199 1.32-.547.348-.351.547-.824.547-1.32zm14-1c0-.496-.199-.969-.547-1.32a1.879 1.879 0 00-1.32-.547c-.496 0-.969.199-1.32.547a1.879 1.879 0 00-.547 1.32c0 .496.199.969.547 1.32.351.348.824.547 1.32.547.496 0 .969-.199 1.32-.547.348-.351.547-.824.547-1.32zm0 0" fill-rule="evenodd" fill="#1c8f6b"/><path d="M174.867 215c0-.496-.199-.969-.547-1.32a1.879 1.879 0 00-1.32-.547c-.496 0-.969.199-1.32.547a1.879 1.879 0 00-.547 1.32c0 .496.199.969.547 1.32.351.348.824.547 1.32.547.496 0 .969-.199 1.32-.547.348-.351.547-.824.547-1.32zm14-10c0-.496-.199-.969-.547-1.32a1.879 1.879 0 00-1.32-.547c-.496 0-.969.199-1.32.547a1.879 1.879 0 00-.547 1.32c0 .496.199.969.547 1.32.351.348.824.547 1.32.547.496 0 .969-.199 1.32-.547.348-.351.547-.824.547-1.32zm14-29c0-.496-.199-.969-.547-1.32a1.879 1.879 0 00-1.32-.547c-.496 0-.969.199-1.32.547a1.879 1.879 0 00-.547 1.32c0 .496.199.969.547 1.32.351.348.824.547 1.32.547.496 0 .969-.199 1.32-.547.348-.351.547-.824.547-1.32zm14-6c0-.496-.199-.969-.547-1.32a1.879 1.879 0 00-1.32-.547c-.496 0-.969.199-1.32.547a1.879 1.879 0 00-.547 1.32c0 .496.199.969.547 1.32.351.348.824.547 1.32.547.496 0 .969-.199 1.32-.547.348-.351.547-.824.547-1.32zm14-6c0-.496-.199-.969-.547-1.32a1.879 1.879 0 00-1.32-.547c-.496 0-.969.199-1.32.547a1.879 1.879 0 00-.547 1.32c0 .496.199.969.547 1.32.351.348.824.547 1.32.547.496 0 .969-.199 1.32-.547.348-.351.547-.824.547-1.32zm14-10c0-.496-.199-.969-.547-1.32a1.879 1.879 0 00-1.32-.547c-.496 0-.969.199-1.32.547a1.879 1.879 0 00-.547 1.32c0 .496.199.969.547 1.32.351.348.824.547 1.32.547.496 0 .969-.199 1.32-.547.348-.351.547-.824.547-1.32zm14 4c0-.496-.199-.969-.547-1.32a1.879 1.879 0 00-1.32-.547c-.496 0-.969.199-1.32.547a1.879 1.879 0 00-.547 1.32c0 .496.199.969.547 1.32.351.348.824.547 1.32.547.496 0 .969-.199 1.32-.547.348-.351.547-.824.547-1.32zm13 4c0-.496-.199-.969-.547-1.32a1.879 1.879 0 00-1.32-.547c-.496 0-.969.199-1.32.547a1.879 1.879 0 00-.547 1.32c0 .496.199.969.547 1.32.351.348.824.547 1.32.547.496 0 .969-.199 1.32-.547.348-.351.547-.824.547-1.32zm14-16c0-.496-.199-.969-.547-1.32a1.879 1.879 0 00-1.32-.547c-.496 0-.969.199-1.32.547a1.879 1.879 0 00-.547 1.32c0 .496.199.969.547 1.32.351.348.824.547 1.32.547.496 0 .969-.199 1.32-.547.348-.351.547-.824.547-1.32zm14-1c0-.496-.199-.969-.547-1.32a1.879 1.879 0 00-1.32-.547c-.496 0-.969.199-1.32.547a1.879 1.879 0 00-.547 1.32c0 .496.199.969.547 1.32.351.348.824.547 1.32.547.496 0 .969-.199 1.32-.547.348-.351.547-.824.547-1.32zm14 4c0-.496-.199-.969-.547-1.32a1.879 1.879 0 00-1.32-.547c-.496 0-.969.199-1.32.547a1.879 1.879 0 00-.547 1.32c0 .496.199.969.547 1.32.351.348.824.547 1.32.547.496 0 .969-.199 1.32-.547.348-.351.547-.824.547-1.32zm14 6c0-.496-.199-.969-.547-1.32a1.879 1.879 0 00-1.32-.547c-.496 0-.969.199-1.32.547a1.879 1.879 0 00-.547 1.32c0 .496.199.969.547 1.32.351.348.824.547 1.32.547.496 0 .969-.199 1.32-.547.348-.351.547-.824.547-1.32zm14 1c0-.496-.199-.969-.547-1.32a1.879 1.879 0 00-1.32-.547c-.496 0-.969.199-1.32.547a1.879 1.879 0 00-.547 1.32c0 .496.199.969.547 1.32.351.348.824.547 1.32.547.496 0 .969-.199 1.32-.547.348-.351.547-.824.547-1.32zm14-5c0-.496-.199-.969-.547-1.32a1.879 1.879 0 00-1.32-.547c-.496 0-.969.199-1.32.547a1.879 1.879 0 00-.547 1.32c0 .496.199.969.547 1.32.351.348.824.547 1.32.547.496 0 .969-.199 1.32-.547.348-.351.547-.824.547-1.32zm0 0" fill-rule="evenodd" fill="#a54f05"/><path d="M432.2 23.766h4.687l.218-.004.27-.012.332-.031.402-.047.489-.078.582-.106.687-.144.805-.192.937-.234 1.075-.293 1.222-.352 1.367-.406 1.485-.457 1.57-.488 1.633-.512 1.668-.527 1.672-.524 1.652-.515 1.606-.496 1.53-.461 1.427-.414 1.296-.364 1.157-.3 1.031-.247.914-.195.82-.152.735-.113.668-.082.613-.051.578-.031.555-.016.547-.008h5.043" fill="none" stroke-width="4" stroke-linejoin="round" stroke="#fff" stroke-opacity=".667" stroke-miterlimit="3.25"/><path d="M432.2 23.766h4.687l.218-.004.27-.012.332-.031.402-.047.489-.078.582-.106.687-.144.805-.192.937-.234 1.075-.293 1.222-.352 1.367-.406 1.485-.457 1.57-.488 1.633-.512 1.668-.527 1.672-.524 1.652-.515 1.606-.496 1.53-.461 1.427-.414 1.296-.364 1.157-.3 1.031-.247.914-.195.82-.152.735-.113.668-.082.613-.051.578-.031.555-.016.547-.008h5.043" fill="none" stroke-width="1.25" stroke-linecap="square" stroke="#aaa" stroke-miterlimit="3.25"/><path d="M498.473 8.414v15h-25v-15zm0 0" fill="#fff" fill-opacity=".667"/><use xlink:href="#a" x="475.973" y="18.414"/><use xlink:href="#b" x="485.973" y="18.414"/><path d="M432.2 32.559h4.687l.218.004.27.007.332.024.402.035.489.055.582.082.687.105.805.14.937.173 1.075.218 1.222.258 1.367.3 1.485.337 1.57.363 1.633.375 1.668.39 1.672.388 1.652.378 1.606.368 1.53.34 1.427.308 1.296.266 1.157.222 1.031.18.914.145.82.113.735.086.668.058.613.04.578.023.555.012.547.003h5.043" fill="none" stroke-width="4" stroke-linejoin="round" stroke="#fff" stroke-opacity=".667" stroke-miterlimit="3.25"/><path d="M432.2 32.559h4.687l.218.004.27.007.332.024.402.035.489.055.582.082.687.105.805.14.937.173 1.075.218 1.222.258 1.367.3 1.485.337 1.57.363 1.633.375 1.668.39 1.672.388 1.652.378 1.606.368 1.53.34 1.427.308 1.296.266 1.157.222 1.031.18.914.145.82.113.735.086.668.058.613.04.578.023.555.012.547.003h5.043" fill="none" stroke-width="1.25" stroke-linecap="square" stroke="#aaa" stroke-miterlimit="3.25"/><path d="M498.473 30.855v15h-25v-15zm0 0" fill="#fff" fill-opacity=".667"/><use xlink:href="#c" x="475.973" y="40.855"/><use xlink:href="#d" x="485.973" y="40.855"/><path d="M432.2 93.332h4.562l.144-.004.168-.012.2-.035.23-.062.27-.11.316-.164.363-.222.418-.301.48-.387.544-.48.613-.59.687-.703.766-.836.855-.973.942-1.117 1.031-1.266 1.106-1.386 1.164-1.489 1.214-1.566 1.254-1.625 1.274-1.664 1.289-1.68 1.289-1.676 1.273-1.648 1.25-1.598 1.211-1.531 1.164-1.441 1.098-1.329 1.023-1.19.938-1.048.855-.902.786-.766.714-.648.657-.531.605-.434.555-.34.515-.262.485-.195.457-.133.441-.086.426-.047.422-.023.422-.004h4.797" fill="none" stroke-width="4" stroke-linejoin="round" stroke="#fff" stroke-opacity=".667" stroke-miterlimit="3.25"/><path d="M432.2 93.332h4.562l.144-.004.168-.012.2-.035.23-.062.27-.11.316-.164.363-.222.418-.301.48-.387.544-.48.613-.59.687-.703.766-.836.855-.973.942-1.117 1.031-1.266 1.106-1.386 1.164-1.489 1.214-1.566 1.254-1.625 1.274-1.664 1.289-1.68 1.289-1.676 1.273-1.648 1.25-1.598 1.211-1.531 1.164-1.441 1.098-1.329 1.023-1.19.938-1.048.855-.902.786-.766.714-.648.657-.531.605-.434.555-.34.515-.262.485-.195.457-.133.441-.086.426-.047.422-.023.422-.004h4.797" fill="none" stroke-width="1.25" stroke-linecap="square" stroke="#aaa" stroke-miterlimit="3.25"/><path d="M498.473 53.328v15h-25v-15zm0 0" fill="#fff" fill-opacity=".667"/><use xlink:href="#e" x="475.973" y="63.327"/><use xlink:href="#f" x="485.973" y="63.327"/><path d="M432.2 97.848h4.687l.218.004.27.011.332.028.402.046.489.075.582.105.687.137.805.183.937.227 1.075.281 1.222.34 1.367.395 1.485.437 1.57.469 1.633.496 1.668.504 1.672.508 1.652.496 1.606.476 1.53.446 1.427.402 1.296.348 1.157.289 1.031.238.914.188.82.144.735.11.668.078.613.05.578.032.555.015.547.004h5.043" fill="none" stroke-width="4" stroke-linejoin="round" stroke="#fff" stroke-opacity=".667" stroke-miterlimit="3.25"/><path d="M432.2 97.848h4.687l.218.004.27.011.332.028.402.046.489.075.582.105.687.137.805.183.937.227 1.075.281 1.222.34 1.367.395 1.485.437 1.57.469 1.633.496 1.668.504 1.672.508 1.652.496 1.606.476 1.53.446 1.427.402 1.296.348 1.157.289 1.031.238.914.188.82.144.735.11.668.078.613.05.578.032.555.015.547.004h5.043" fill="none" stroke-width="1.25" stroke-linecap="square" stroke="#aaa" stroke-miterlimit="3.25"/><path d="M498.473 97.91v15h-25v-15zm0 0" fill="#fff" fill-opacity=".667"/><use xlink:href="#g" x="475.973" y="107.912"/><use xlink:href="#h" x="485.973" y="107.912"/><path d="M432.2 94.535h4.687l.218-.004.27-.02.332-.042.402-.07.489-.11.582-.156.687-.207.805-.274.937-.343 1.075-.422 1.222-.508 1.367-.59 1.485-.656 1.57-.711 1.633-.738 1.668-.762 1.672-.762 1.652-.742 1.606-.715 1.53-.668 1.427-.601 1.296-.524 1.157-.437 1.031-.356.914-.281.82-.223.735-.164.668-.113.613-.078.578-.047.555-.023.547-.004.554-.004h4.489" fill="none" stroke-width="4" stroke-linejoin="round" stroke="#fff" stroke-opacity=".667" stroke-miterlimit="3.25"/><path d="M432.2 94.535h4.687l.218-.004.27-.02.332-.042.402-.07.489-.11.582-.156.687-.207.805-.274.937-.343 1.075-.422 1.222-.508 1.367-.59 1.485-.656 1.57-.711 1.633-.738 1.668-.762 1.672-.762 1.652-.742 1.606-.715 1.53-.668 1.427-.601 1.296-.524 1.157-.437 1.031-.356.914-.281.82-.223.735-.164.668-.113.613-.078.578-.047.555-.023.547-.004.554-.004h4.489" fill="none" stroke-width="1.25" stroke-linecap="square" stroke="#aaa" stroke-miterlimit="3.25"/><path d="M498.473 75.68v15h-25v-15zm0 0" fill="#fff" fill-opacity=".667"/><use xlink:href="#i" x="475.973" y="85.681"/><use xlink:href="#j" x="485.973" y="85.681"/><path d="M432.2 121.434h4.679l.133.011.156.028.172.058.2.09.226.14.257.192.29.258.324.332.367.41.406.504.45.606.5.71.55.832.602.961.66 1.098.723 1.242.78 1.395.84 1.55.895 1.676.942 1.797.98 1.887 1.012 1.969 1.039 2.027 1.055 2.066 1.062 2.09 1.07 2.094 1.067 2.082 1.054 2.05 1.036 1.997 1.011 1.934.98 1.843.942 1.739.895 1.613.843 1.476.782 1.32.726 1.169.676 1.027.625.895.582.77.543.655.504.555.469.457.445.371.414.29.399.226.378.164.364.113.355.074.352.043.347.016.352.008h4.762" fill="none" stroke-width="4" stroke-linejoin="round" stroke="#fff" stroke-opacity=".667" stroke-miterlimit="3.25"/><path d="M432.2 121.434h4.679l.133.011.156.028.172.058.2.09.226.14.257.192.29.258.324.332.367.41.406.504.45.606.5.71.55.832.602.961.66 1.098.723 1.242.78 1.395.84 1.55.895 1.676.942 1.797.98 1.887 1.012 1.969 1.039 2.027 1.055 2.066 1.062 2.09 1.07 2.094 1.067 2.082 1.054 2.05 1.036 1.997 1.011 1.934.98 1.843.942 1.739.895 1.613.843 1.476.782 1.32.726 1.169.676 1.027.625.895.582.77.543.655.504.555.469.457.445.371.414.29.399.226.378.164.364.113.355.074.352.043.347.016.352.008h4.762" fill="none" stroke-width="1.25" stroke-linecap="square" stroke="#aaa" stroke-miterlimit="3.25"/><path d="M498.473 162.844v15h-25v-15zm0 0" fill="#fff" fill-opacity=".667"/><use xlink:href="#c" x="475.973" y="172.842"/><use xlink:href="#j" x="485.973" y="172.842"/><path d="M432.2 111.484h4.652l.152.008.176.024.203.054.238.094.277.14.32.2.368.27.418.355.473.441.53.547.598.656.668.782.743.914.82 1.058.902 1.211.98 1.36 1.052 1.488 1.105 1.598 1.156 1.683 1.188 1.746 1.219 1.79 1.226 1.816 1.234 1.812 1.227 1.797 1.207 1.758 1.176 1.695 1.137 1.61 1.085 1.507 1.024 1.387.953 1.235.871 1.085.8.938.74.8.671.677.621.566.574.457.532.367.492.285.465.211.437.149.422.101.41.059.403.027.406.012h4.922" fill="none" stroke-width="4" stroke-linejoin="round" stroke="#fff" stroke-opacity=".667" stroke-miterlimit="3.25"/><path d="M432.2 111.484h4.652l.152.008.176.024.203.054.238.094.277.14.32.2.368.27.418.355.473.441.53.547.598.656.668.782.743.914.82 1.058.902 1.211.98 1.36 1.052 1.488 1.105 1.598 1.156 1.683 1.188 1.746 1.219 1.79 1.226 1.816 1.234 1.812 1.227 1.797 1.207 1.758 1.176 1.695 1.137 1.61 1.085 1.507 1.024 1.387.953 1.235.871 1.085.8.938.74.8.671.677.621.566.574.457.532.367.492.285.465.211.437.149.422.101.41.059.403.027.406.012h4.922" fill="none" stroke-width="1.25" stroke-linecap="square" stroke="#aaa" stroke-miterlimit="3.25"/><path d="M498.473 140.754v15h-25v-15zm0 0" fill="#fff" fill-opacity=".667"/><use xlink:href="#k" x="475.973" y="150.755"/><use xlink:href="#l" x="485.973" y="150.755"/><path d="M432.2 101.375h4.718l.184.012.218.035.258.062.309.106.36.156.417.219.484.293.555.375.637.465.723.574.808.683.91.81 1.016.944 1.11 1.07 1.198 1.18 1.266 1.27 1.317 1.336 1.355 1.383 1.379 1.41 1.387 1.414 1.375 1.398 1.351 1.364 1.313 1.304 1.261 1.227 1.188 1.129 1.101 1.008 1.004.878.91.747.829.625.754.52.683.417.625.332.578.254.535.188.5.128.477.082.46.051.454.02.453.004h4.813" fill="none" stroke-width="4" stroke-linejoin="round" stroke="#fff" stroke-opacity=".667" stroke-miterlimit="3.25"/><path d="M432.2 101.375h4.718l.184.012.218.035.258.062.309.106.36.156.417.219.484.293.555.375.637.465.723.574.808.683.91.81 1.016.944 1.11 1.07 1.198 1.18 1.266 1.27 1.317 1.336 1.355 1.383 1.379 1.41 1.387 1.414 1.375 1.398 1.351 1.364 1.313 1.304 1.261 1.227 1.188 1.129 1.101 1.008 1.004.878.91.747.829.625.754.52.683.417.625.332.578.254.535.188.5.128.477.082.46.051.454.02.453.004h4.813" fill="none" stroke-width="1.25" stroke-linecap="square" stroke="#aaa" stroke-miterlimit="3.25"/><path d="M498.473 119.848v14h-25v-14zm0 0" fill="#fff" fill-opacity=".667"/><use xlink:href="#f" x="475.973" y="129.349"/><use xlink:href="#m" x="485.973" y="129.349"/><path d="M432.2 132.781h4.632l.113.008.133.02.145.043.168.074.187.113.207.16.238.219.262.285.293.356.324.437.36.527.398.63.434.734.476.847.516.977.566 1.105.614 1.25.66 1.399.715 1.555.761 1.71.809 1.844.851 1.965.883 2.07.91 2.157.938 2.222.953 2.278.969 2.312.973 2.328.976 2.332.973 2.317.96 2.28.95 2.235.93 2.168.906 2.086.875 1.985.836 1.867.797 1.73.75 1.582.703 1.426.656 1.274.61 1.128.574.996.535.872.5.75.465.644.441.547.414.453.395.367.37.297.356.227.344.172.332.117.324.082.32.047.32.023.321.008h4.852" fill="none" stroke-width="4" stroke-linejoin="round" stroke="#fff" stroke-opacity=".667" stroke-miterlimit="3.25"/><path d="M432.2 132.781h4.632l.113.008.133.02.145.043.168.074.187.113.207.16.238.219.262.285.293.356.324.437.36.527.398.63.434.734.476.847.516.977.566 1.105.614 1.25.66 1.399.715 1.555.761 1.71.809 1.844.851 1.965.883 2.07.91 2.157.938 2.222.953 2.278.969 2.312.973 2.328.976 2.332.973 2.317.96 2.28.95 2.235.93 2.168.906 2.086.875 1.985.836 1.867.797 1.73.75 1.582.703 1.426.656 1.274.61 1.128.574.996.535.872.5.75.465.644.441.547.414.453.395.367.37.297.356.227.344.172.332.117.324.082.32.047.32.023.321.008h4.852" fill="none" stroke-width="1.25" stroke-linecap="square" stroke="#aaa" stroke-miterlimit="3.25"/><path d="M498.473 184.918v15h-25v-15zm0 0" fill="#fff" fill-opacity=".667"/><use xlink:href="#n" x="475.973" y="194.919"/><use xlink:href="#o" x="485.973" y="194.919"/><path d="M432.2 138.602h4.616l.09.003.098.02.105.035.121.059.13.094.144.132.156.176.172.234.191.29.204.359.226.434.246.511.262.602.289.695.309.797.336.906.359 1.02.383 1.144.414 1.274.441 1.41.469 1.55.504 1.704.531 1.86.567 2.023.597 2.183.63 2.332.651 2.461.68 2.582.7 2.688.718 2.777.734 2.856.75 2.921.758 2.97.766 3.003.77 3.027.773 3.036.773 3.027.774 3.008.761 2.976.758 2.93.746 2.867.735 2.793.715 2.703.695 2.598.676 2.484.652 2.356.621 2.207.594 2.05.566 1.887.531 1.73.504 1.575.48 1.434.454 1.296.43 1.164.406 1.043.387.922.367.817.351.71.332.618.32.527.305.446.293.37.286.301.273.243.27.183.261.14.254.098.254.067.254.039.254.02.254.007h4.797" fill="none" stroke-width="4" stroke-linejoin="round" stroke="#fff" stroke-opacity=".667" stroke-miterlimit="3.25"/><path d="M432.2 138.602h4.616l.09.003.098.02.105.035.121.059.13.094.144.132.156.176.172.234.191.29.204.359.226.434.246.511.262.602.289.695.309.797.336.906.359 1.02.383 1.144.414 1.274.441 1.41.469 1.55.504 1.704.531 1.86.567 2.023.597 2.183.63 2.332.651 2.461.68 2.582.7 2.688.718 2.777.734 2.856.75 2.921.758 2.97.766 3.003.77 3.027.773 3.036.773 3.027.774 3.008.761 2.976.758 2.93.746 2.867.735 2.793.715 2.703.695 2.598.676 2.484.652 2.356.621 2.207.594 2.05.566 1.887.531 1.73.504 1.575.48 1.434.454 1.296.43 1.164.406 1.043.387.922.367.817.351.71.332.618.32.527.305.446.293.37.286.301.273.243.27.183.261.14.254.098.254.067.254.039.254.02.254.007h4.797" fill="none" stroke-width="1.25" stroke-linecap="square" stroke="#aaa" stroke-miterlimit="3.25"/><path d="M498.473 228.906v15h-25v-15zm0 0" fill="#fff" fill-opacity=".667"/><use xlink:href="#f" x="475.973" y="238.906"/><use xlink:href="#p" x="485.973" y="238.906"/><path d="M432.2 136.906h4.687l.11.016.116.027.133.059.149.086.16.125.183.176.2.23.218.29.242.358.27.438.289.523.32.614.348.71.375.82.406.935.442 1.058.476 1.184.508 1.32.55 1.465.587 1.617.625 1.773.668 1.93.699 2.07.734 2.196.762 2.304.785 2.403.805 2.484.824 2.547.84 2.598.848 2.636.851 2.653.86 2.664.855 2.652.852 2.63.84 2.593.831 2.535.817 2.473.793 2.386.773 2.286.746 2.175.72 2.047.683 1.906.644 1.75.606 1.59.574 1.442.539 1.297.508 1.164.476 1.03.453.919.426.8.403.696.382.598.364.507.343.422.329.348.316.281.305.219.297.168.289.117.285.082.281.05.277.028.282.012h4.914" fill="none" stroke-width="4" stroke-linejoin="round" stroke="#fff" stroke-opacity=".667" stroke-miterlimit="3.25"/><path d="M432.2 136.906h4.687l.11.016.116.027.133.059.149.086.16.125.183.176.2.23.218.29.242.358.27.438.289.523.32.614.348.71.375.82.406.935.442 1.058.476 1.184.508 1.32.55 1.465.587 1.617.625 1.773.668 1.93.699 2.07.734 2.196.762 2.304.785 2.403.805 2.484.824 2.547.84 2.598.848 2.636.851 2.653.86 2.664.855 2.652.852 2.63.84 2.593.831 2.535.817 2.473.793 2.386.773 2.286.746 2.175.72 2.047.683 1.906.644 1.75.606 1.59.574 1.442.539 1.297.508 1.164.476 1.03.453.919.426.8.403.696.382.598.364.507.343.422.329.348.316.281.305.219.297.168.289.117.285.082.281.05.277.028.282.012h4.914" fill="none" stroke-width="1.25" stroke-linecap="square" stroke="#aaa" stroke-miterlimit="3.25"/><path d="M498.473 206.918v15h-25v-15zm0 0" fill="#fff" fill-opacity=".667"/><use xlink:href="#q" x="475.973" y="216.918"/><use xlink:href="#r" x="485.973" y="216.918"/><path d="M354.25 35.438l13.96 1.503 13.962.27 13.96.781 13.962.418 13.96.61V14.465l-13.96 3.168-13.961 3.64-13.961 3.891-13.961 4.707zm0 0" fill="gray" fill-opacity=".05"/><path d="M354.25 43.258l13.96 3.726 13.962 2.871 13.96 3.649 13.962 4.113 13.96 5.051V19.516l-13.96 3.39-13.961 3.867-13.961 4.36-13.961 5.164zm0 75.496l13.96 6.496 13.962 1.727 13.96 1.285 13.962.52 13.96-.141V79.508l-13.96 4.293-13.961 5.101-13.961 6.293-13.961 8.457zm0 0" fill="gray" fill-opacity=".05"/><path d="M354.25 116.754l13.96 6.601 13.962 2.282 13.96 3.297 13.962 2.496 13.96 2.468V83.926l-13.96 4.023-13.961 4.754-13.961 5.578-13.961 7.543zm0 0" fill="gray" fill-opacity=".05"/><path d="M354.25 117.844l13.96-.36 13.962-2.535 13.96-2.597 13.962-2.641 13.96-2.621V86.3l-13.96 3.942-13.961 4.57-13.961 5.461-13.961 6.915zm0 0" fill="gray" fill-opacity=".05"/><path d="M354.25 127.926l13.96 13.027 13.962 10.496 13.96 31.942v-74.106l-13.96 4.555-13.961 6.691zm0 0" fill="gray" fill-opacity=".05"/><path d="M354.25 127.926l13.96 2.625 13.962 5.652 13.96 3.828 13.962 8.125 13.96 8.813V96.582l-13.96 3.93-13.961 4.207-13.961 5.707-13.961 5.785zm0 0" fill="gray" fill-opacity=".05"/><path d="M354.25 123.89l13.96 1.255 13.962-1.399 13.96-1.516 13.962-1.796 13.96-1.926V91.422l-13.96 3.98-13.961 4.649-13.961 5.562-13.961 7.164zm0 0" fill="gray" fill-opacity=".05"/><path d="M354.25 144.105l13.96 16.18 13.962 60.942v-99.094l-13.961 6.953zm0 0" fill="gray" fill-opacity=".05"/><path d="M354.25 144.105l13.96 3.458 13.962 2.789 13.96 3.496 13.962 3.93 13.96 4.82v-35.832l-13.96 2.683-13.961 2.996-13.961 3.239-13.961 3.722zm0 0" fill="gray" fill-opacity=".05"/><path d="M354.25 150.879l13.96 9.086 13.962 7.344 13.96 9.976 13.962 15.676 13.96 47.566V120.23l-13.96 3.707-13.961 4.305-13.961 5.145-13.961 6.554zm0 0" fill="gray" fill-opacity=".05"/><path d="M432.2 248.32H25m0 0V4m0 0h407.2m0 0v244.32" fill="none" stroke-width=".5" stroke-linecap="square" stroke="#666" stroke-miterlimit="3.25"/><path d="M61.066 248.32v-5.656" fill="none" stroke-width=".5" stroke="#666" stroke-miterlimit="3.25"/><g fill="#666"><use xlink:href="#s" x="46.566" y="260.32"/><use xlink:href="#t" x="52.084" y="260.32"/><use xlink:href="#u" x="57.523" y="260.32"/></g><g fill="#666"><use xlink:href="#v" x="64.566" y="260.32"/><use xlink:href="#w" x="70.182" y="260.32"/></g><path d="M158.793 248.32v-5.656" fill="none" stroke-width=".5" stroke="#666" stroke-miterlimit="3.25"/><g fill="#666"><use xlink:href="#s" x="144.294" y="260.32"/><use xlink:href="#t" x="149.812" y="260.32"/><use xlink:href="#u" x="155.251" y="260.32"/></g><g fill="#666"><use xlink:href="#x" x="162.294" y="260.32"/><use xlink:href="#y" x="167.91" y="260.32"/></g><path d="M256.523 248.32v-5.656" fill="none" stroke-width=".5" stroke="#666" stroke-miterlimit="3.25"/><g fill="#666"><use xlink:href="#s" x="242.022" y="260.32"/><use xlink:href="#t" x="247.54" y="260.32"/><use xlink:href="#u" x="252.979" y="260.32"/></g><g fill="#666"><use xlink:href="#x" x="260.022" y="260.32"/><use xlink:href="#z" x="265.638" y="260.32"/></g><path d="M354.25 248.32v-5.656" fill="none" stroke-width=".5" stroke="#666" stroke-miterlimit="3.25"/><g fill="#666"><use xlink:href="#A" x="339.75" y="260.32"/><use xlink:href="#B" x="345.278" y="260.32"/><use xlink:href="#C" x="350.575" y="260.32"/></g><g fill="#666"><use xlink:href="#y" x="357.75" y="260.32"/><use xlink:href="#w" x="363.366" y="260.32"/></g><path d="M25 231.871h4.07" fill="none" stroke-width=".1" stroke="#666" stroke-miterlimit="3.25"/><use xlink:href="#v" x="16" y="234.372" fill="#666"/><path d="M25 175.906h4.07" fill="none" stroke-width=".1" stroke="#666" stroke-miterlimit="3.25"/><g fill="#666"><use xlink:href="#v" x="11" y="178.406"/><use xlink:href="#y" x="16.615" y="178.406"/></g><path d="M25 119.941h4.07" fill="none" stroke-width=".1" stroke="#666" stroke-miterlimit="3.25"/><g fill="#666"><use xlink:href="#v" x="5" y="122.44"/><use xlink:href="#y" x="10.615" y="122.44"/><use xlink:href="#y" x="16.23" y="122.44"/></g><path d="M25 63.973h4.07" fill="none" stroke-width=".1" stroke="#666" stroke-miterlimit="3.25"/><g fill="#666"><use xlink:href="#v" y="66.474"/><use xlink:href="#y" x="5.615" y="66.474"/><use xlink:href="#y" x="11.23" y="66.474"/><use xlink:href="#y" x="16.846" y="66.474"/></g><path d="M25 8.008h4.07" fill="none" stroke-width=".1" stroke="#666" stroke-miterlimit="3.25"/><g fill="#666"><use xlink:href="#v" x="5" y="12.007"/><use xlink:href="#y" x="10.615" y="12.007"/></g><use xlink:href="#D" x="16" y="8.007" fill="#666"/><path d="M25 244.29h2.398M25 240.543h2.398M25 237.297h2.398M25 234.434h2.398M25 215.023h2.398M25 205.168h2.398M25 198.176h2.398M25 192.754h2.398M25 188.32h2.398M25 184.574h2.398M25 181.328h2.398M25 178.469h2.398M25 159.059h2.398M25 149.203h2.398M25 142.21h2.398M25 136.79h2.398M25 132.355h2.398M25 128.61h2.398M25 125.363h2.398M25 122.5h2.398M25 103.094h2.398M25 93.238h2.398M25 86.246h2.398M25 80.82h2.398M25 76.39h2.398M25 72.645h2.398M25 69.398h2.398M25 66.535h2.398M25 47.125h2.398M25 37.27h2.398M25 30.277h2.398M25 24.855h2.398M25 20.422h2.398M25 16.676h2.398M25 13.43h2.398M25 10.566h2.398" fill="none" stroke-width=".1" stroke="#666" stroke-miterlimit="3.25"/><path d="M61.066 4v5.656M158.793 4v5.656M256.523 4v5.656M354.25 4v5.656" fill="none" stroke-width=".5" stroke="#666" stroke-miterlimit="3.25"/><path d="M432.2 231.871h-4.071m4.071-55.965h-4.071m4.071-55.965h-4.071m4.071-55.968h-4.071M432.2 8.008h-4.071M432.2 244.29h-2.4m2.4-3.747h-2.4m2.4-3.246h-2.4m2.4-2.863h-2.4m2.4-19.411h-2.4m2.4-9.855h-2.4m2.4-6.992h-2.4m2.4-5.422h-2.4m2.4-4.434h-2.4m2.4-3.746h-2.4m2.4-3.246h-2.4m2.4-2.859h-2.4m2.4-19.41h-2.4m2.4-9.856h-2.4m2.4-6.993h-2.4m2.4-5.42h-2.4m2.4-4.435h-2.4m2.4-3.745h-2.4m2.4-3.247h-2.4m2.4-2.863h-2.4m2.4-19.406h-2.4m2.4-9.856h-2.4m2.4-6.992h-2.4m2.4-5.426h-2.4m2.4-4.43h-2.4m2.4-3.745h-2.4m2.4-3.247h-2.4m2.4-2.863h-2.4m2.4-19.41h-2.4m2.4-9.855h-2.4m2.4-6.993h-2.4m2.4-5.422h-2.4m2.4-4.433h-2.4m2.4-3.746h-2.4m2.4-3.246h-2.4m2.4-2.864h-2.4" fill="none" stroke-width=".1" stroke="#666" stroke-miterlimit="3.25"/></svg>