<svg xmlns="http://www.w3.org/2000/svg" xmlns:xlink="http://www.w3.org/1999/xlink" width="500pt" height="344" viewBox="0 0 500 258"><defs><symbol overflow="visible" id="a"><path d="M4.738-8.14C3.578-6.88 2.121-5.82.36-4.97l.352.63C2.48-5.23 3.91-6.282 5-7.49c1.18 1.272 2.59 2.3 4.25 3.1l.36-.64a14.128 14.128 0 01-4.348-3.11zM2.211-4.98v.69h2.418v1.74H1.73v.69h2.9v1.848H.839V.7h8.333v-.71h-3.8v-1.85h2.89v-.692h-2.89V-4.29h2.417v-.691zm0 0"/></symbol><symbol overflow="visible" id="b"><path d="M2.52-6.121v.652h2.109v1.438h-1.79v.64h1.79v1.59H2.25v.66h5.512v-.66h-2.39v-1.59H7.16v-.64H5.371V-5.47H7.47v-.652zm6.59-1.59H.89V.98h.731V.55H8.38v.43h.73zM1.62-.129V-7.03h6.76v6.9zm4.93-3.05l-.57.19c.238.329.46.72.66 1.169l.558-.258A6.323 6.323 0 006.55-3.18zm0 0"/></symbol><symbol overflow="visible" id="c"><path d="M7.04-4.73h1.51v1.808H7.04zm1.51-.63H7.04v-1.78h1.51zM7.02-2.28h1.53v2.22c0 .278-.12.43-.35.43-.24 0-.49-.02-.759-.043l.168.64h.79C8.94.969 9.21.7 9.21.173V-7.8H6.379v5.082C6.359-1.422 6.07-.339 5.5.5l.52.46c.59-.839.921-1.92 1-3.241zm-5.9-5.67l-.492.46c.68.5 1.21.977 1.59 1.419l.5-.489A11.92 11.92 0 001.12-7.95zm-.2 2.34l-.491.46c.691.53 1.231 1.03 1.621 1.49l.5-.488c-.44-.48-.991-.973-1.628-1.461zm1.03 2.649A33.47 33.47 0 01.56.58l.652.28c.5-1.12.95-2.308 1.36-3.57zm3.762-.64H4.69V-5.5h1.297v-.648H4.691v-1.73H4v1.73H2.7v.648H4v1.898H2.95V.41h.66v-.59h2.1zM3.61-.801v-2.18h1.46V-.8zm0 0"/></symbol><symbol overflow="visible" id="d"><path d="M3.32-8.14v2.769H.672v.691H3.32v3.211c-.89.418-1.82.739-2.8.957L.69.2c.93-.258 1.809-.57 2.63-.949V.93h.738v-9.07zM8.22.84c.43 0 .73-.121.89-.36.16-.25.262-.96.32-2.128l-.679-.223c-.031 1.02-.09 1.61-.172 1.793C8.48.078 8.32.16 8.102.16h-1.25c-.25 0-.372-.148-.372-.43v-3.84c.93-.32 1.91-.788 2.95-1.421l-.418-.59c-.82.57-1.66 1.012-2.532 1.332v-3.352h-.73v7.98c0 .661.309 1 .941 1zm0 0"/></symbol><symbol overflow="visible" id="e"><path d="M3.77-7.078l-.598.367C4.05-5.68 4.738-4.75 5.25-3.91l.61-.417c-.481-.781-1.18-1.703-2.09-2.75zM7.21-2.18C7.97-1.129 8.579-.14 9.05.8l.552-.55a22.006 22.006 0 00-2.07-3.121c.058-.149.109-.3.16-.45.417-1.32.628-2.917.628-4.82h-.75c-.011 1.93-.218 3.52-.64 4.77-.551 1.48-1.68 2.7-3.38 3.68l.481.59C5.488.058 6.551-.97 7.211-2.18zM1.29-.14c1.17-.43 2.269-.938 3.288-1.532l-.2-.7c-.769.462-1.538.852-2.32 1.173v-6.68H1.32v6.508c0 .23-.09.41-.27.55zm0 0"/></symbol><symbol overflow="visible" id="f"><path d="M6.36-8.148V.988h.742v-5.316c.578.457 1.27 1.11 2.09 1.93l.437-.66c-.86-.77-1.7-1.462-2.527-2.07v-3.02zM2.32-4.18l-.379.559A7.882 7.882 0 013.52-2.56C2.82-1.48 1.84-.579.59.141l.488.609C3.68-.8 5.141-3.09 5.48-6.121v-.629H3.05c.141-.41.259-.84.36-1.29l-.719-.12c-.402 1.8-1.18 3.238-2.32 4.3l.488.61c.801-.738 1.45-1.672 1.93-2.809h1.98a9.025 9.025 0 01-.917 2.93 8.296 8.296 0 00-1.532-1.05zm0 0"/></symbol><symbol overflow="visible" id="g"><path d="M3.805-7.11h.941v5.036c0 .68-.203 1.21-.613 1.597-.406.383-.953.575-1.633.575-.707 0-1.258-.18-1.648-.543-.395-.36-.594-.867-.594-1.516h.937c0 .406.114.723.336.95.223.23.547.343.969.343.387 0 .7-.121.941-.367.239-.246.36-.586.364-1.028zm0 0"/></symbol><symbol overflow="visible" id="h"><path d="M3.945 0c-.05-.105-.093-.29-.125-.555-.422.434-.922.653-1.507.653-.52 0-.946-.149-1.282-.442a1.438 1.438 0 01-.5-1.12c0-.552.211-.977.63-1.282.417-.305 1.007-.457 1.765-.457h.879v-.414c0-.317-.094-.567-.285-.754-.188-.188-.465-.281-.833-.281-.324 0-.593.082-.812.242-.219.164-.328.36-.328.59H.64c0-.262.093-.516.28-.762.188-.246.442-.441.763-.582.32-.145.671-.219 1.054-.219.61 0 1.086.153 1.434.457.344.305.523.727.535 1.258v2.434c0 .484.063.87.184 1.156V0zm-1.5-.688c.285 0 .555-.074.805-.218a1.35 1.35 0 00.555-.574v-1.083h-.711c-1.106 0-1.656.325-1.656.97 0 .284.093.507.28.663.188.16.43.243.727.243zm0 0"/></symbol><symbol overflow="visible" id="i"><path d="M1.54-5.281l.026.664a1.93 1.93 0 011.582-.766c1.118 0 1.68.633 1.692 1.89V0h-.902v-3.496c-.004-.379-.094-.664-.262-.844-.172-.183-.438-.273-.801-.273-.293 0-.55.078-.77.234a1.59 1.59 0 00-.52.613V0h-.9v-5.281zm0 0"/></symbol><symbol overflow="visible" id="j"><path d="M3.559 0h-.907v-6.02l-1.824.668v-.82l2.59-.973h.14zm0 0"/></symbol><symbol overflow="visible" id="k"><path d="M4.137-7.113v.765h-.168c-.703.012-1.262.223-1.68.625-.414.403-.656.973-.723 1.703.375-.43.887-.644 1.536-.644.617 0 1.113.219 1.48.656.371.438.555 1 .555 1.688 0 .734-.2 1.32-.598 1.757-.398.442-.934.66-1.605.66-.68 0-1.23-.261-1.653-.784C.855-1.212.645-1.883.645-2.704v-.348c0-1.308.277-2.308.835-3 .56-.691 1.391-1.047 2.497-1.062zM2.949-3.91c-.308 0-.594.09-.855.277a1.446 1.446 0 00-.54.7v.331c0 .586.13 1.059.395 1.414.262.36.59.54.985.54.406 0 .726-.153.96-.45.231-.3.348-.691.348-1.175 0-.489-.117-.887-.351-1.188a1.14 1.14 0 00-.942-.45zm0 0"/></symbol><symbol overflow="visible" id="l"><path d="M5.25 0H.59v-.648l2.46-2.735c.364-.414.618-.75.755-1.008.14-.257.21-.527.21-.804 0-.371-.113-.676-.34-.914-.222-.239-.523-.356-.898-.356-.449 0-.797.13-1.047.383-.25.254-.37.613-.37 1.066H.452c0-.652.211-1.183.633-1.586.422-.402.984-.605 1.691-.605.66 0 1.184.172 1.567.52.386.347.578.808.578 1.382 0 .703-.445 1.535-1.336 2.5L1.68-.738h3.57zm0 0"/></symbol><symbol overflow="visible" id="m"><path d="M1.906-3.992h.676c.426-.008.762-.121 1.008-.34.242-.219.363-.512.363-.883 0-.832-.414-1.25-1.242-1.25-.39 0-.703.113-.938.336-.23.223-.347.516-.347.887H.523c0-.563.204-1.031.618-1.406.41-.372.933-.559 1.57-.559.672 0 1.195.176 1.578.531.379.356.57.848.57 1.48 0 .31-.101.61-.3.9a1.81 1.81 0 01-.817.648c.39.125.692.328.903.617.214.285.32.636.32 1.047 0 .64-.207 1.144-.625 1.52-.418.374-.957.562-1.625.562s-1.211-.18-1.63-.543c-.417-.36-.624-.836-.624-1.43h.906c0 .375.121.672.367.898.243.227.57.336.98.336.438 0 .77-.113 1-.34.231-.23.349-.554.349-.98 0-.414-.125-.734-.383-.953-.254-.223-.618-.336-1.098-.344h-.676zm0 0"/></symbol><symbol overflow="visible" id="n"><path d="M5.047-3.031c0 1.058-.18 1.844-.54 2.36-.362.51-.925.769-1.694.769-.758 0-1.32-.25-1.684-.754C.766-1.16.574-1.91.562-2.91v-1.207c0-1.043.18-1.82.54-2.328.363-.508.93-.762 1.703-.762.765 0 1.328.246 1.687.734.36.489.547 1.246.555 2.27zm-.902-1.235c0-.765-.106-1.324-.32-1.675-.216-.348-.555-.524-1.02-.524-.465 0-.801.176-1.012.524-.211.347-.32.882-.328 1.605v1.445c0 .77.113 1.336.336 1.704.222.367.558.546 1.012.546.445 0 .777-.171.992-.515.218-.344.332-.89.34-1.633zm0 0"/></symbol><symbol overflow="visible" id="o"><path d="M4.746-3.14H1.762V0H.824v-7.11H5.23v.774H1.762v2.43h2.984zm0 0"/></symbol><symbol overflow="visible" id="p"><path d="M2.875.098c-.715 0-1.297-.235-1.746-.707-.45-.47-.676-1.098-.676-1.887v-.164c0-.524.102-.992.3-1.406.2-.41.481-.735.84-.965.36-.235.75-.352 1.173-.352.687 0 1.218.227 1.601.68.38.453.57 1.101.57 1.945v.375H1.36c.012.52.164.942.454 1.262.292.32.664.48 1.113.48.316 0 .59-.062.808-.195.223-.129.414-.3.582-.516l.551.43c-.441.68-1.105 1.02-1.992 1.02zm-.11-4.739a1.21 1.21 0 00-.921.399c-.246.265-.399.64-.457 1.117H4.03v-.07c-.023-.457-.148-.813-.367-1.067-.223-.25-.523-.379-.898-.379zm0 0"/></symbol><symbol overflow="visible" id="q"><path d="M5.156-2.582c0 .809-.187 1.453-.554 1.945-.372.489-.872.735-1.497.735-.667 0-1.183-.235-1.546-.707L1.516 0H.684v-7.5h.902v2.797c.367-.453.867-.68 1.508-.68.64 0 1.148.246 1.511.73.368.485.551 1.15.551 1.993zm-.902-.106c0-.613-.121-1.09-.356-1.421-.238-.336-.582-.504-1.027-.504-.598 0-1.023.277-1.285.828V-1.5c.277.555.71.832 1.297.832.43 0 .77-.168 1.008-.504.242-.336.363-.84.363-1.516zm0 0"/></symbol><symbol overflow="visible" id="r"><path d="M5.18-6.602L2.234 0H1.29l2.934-6.367H.375v-.742H5.18zm0 0"/></symbol><symbol overflow="visible" id="s"><path d="M3.965-2.148h.887v.664h-.887V0h-.817v-1.484H.234v-.48l2.864-4.434h.867zm-2.809 0h1.992v-3.137l-.097.176zm0 0"/></symbol><symbol overflow="visible" id="t"><path d="M.906-3.207l.324-3.191h3.278v.75H1.922l-.195 1.746a2.081 2.081 0 011.07-.278c.582 0 1.043.192 1.387.578.343.387.515.907.515 1.563 0 .66-.18 1.18-.535 1.559-.355.378-.851.566-1.492.566-.567 0-1.027-.156-1.383-.469-.36-.312-.562-.746-.613-1.3h.77c.05.367.179.644.39.828.21.187.492.28.836.28.379 0 .676-.128.89-.386.215-.258.32-.617.32-1.07 0-.426-.112-.77-.347-1.031-.234-.258-.543-.387-.93-.387-.355 0-.632.078-.835.23l-.215.18zm0 0"/></symbol></defs><path d="M37.55 241.46V.5m58.567 240.96V.5m58.567 240.96V.5m58.566 240.96V.5m58.566 240.96V.5m58.567 240.96V.5m58.567 240.96V.5M25 229.629h401.602M25 176.3h401.602M25 122.973h401.602M25 69.645h401.602M25 16.316h401.602" fill="none" stroke="#666" stroke-opacity=".5" stroke-dasharray="1,2" stroke-miterlimit="3.25"/><path d="M69.488 241.46l.051-5.983.121-8.864.121-6.41.121-5.031.121-4.137.122-3.523.12-3.063.122-2.71.12-2.434.122-2.207.121-2.024.242-3.594.121-1.613.121-1.512.243-2.77.12-1.276.122-1.211.242-2.258.121-1.055.121-1.012.242-1.91.485-3.425.12-.79.122-.765.242-1.465.484-2.695.047-.243.075-.39.12-.617.243-1.192.484-2.234.121-.527.121-.52.243-1.012.488-1.91.969-3.457.129-.437.132-.43.262-.84.527-1.61 1.051-2.964.13-.352.132-.343.262-.68.527-1.317 1.047-2.464.265-.586.262-.575.524-1.12 1.05-2.122 2.102-3.87.129-.224.129-.218.258-.442.515-.859 1.031-1.66 2.063-3.106 4.125-5.52.242-.296.238-.297.485-.59.96-1.148 1.923-2.207 3.851-4.114 8.344-7.87 7.793-6.462 7.637-5.761 8.285-5.778 7.734-5.05 8.383-5.172 8.226-4.817 7.676-4.289 8.32-4.441 7.77-3.957 8.418-4.09 8.266-3.805 7.71-3.36 8.356-3.425 7.809-2.992 7.648-2.73 8.3-2.731 7.747-2.328 8.398-2.29 8.243-2.007 7.687-1.668 8.336-1.598 7.781-1.304 7.63-1.121 8.28-1.051 7.723-.84 8.371-.781 7.82-.617 7.665-.512 8.316-.473.121-.004.121-.008.727-.035.972-.05 1.938-.094 3.883-.176.129-.004.132-.008.262-.011.528-.02 1.05-.047 2.102-.086 4.203-.156.129-.008.387-.012.52-.02 3.093-.105 4.129-.128.12-.004.118-.004.242-.008.48-.012.966-.027 1.925-.055 3.848-.101.133-.004.129-.004.261-.004.524-.016 1.043-.023 2.086-.051 4.176-.09.12-.004h.126l.242-.008.488-.007.973-.02 1.949-.039 3.898-.07h.122l.117-.004.238-.004.48-.008.954-.016 1.91-.03 3.824-.06h.129l.129-.003.258-.004.52-.008 1.034-.016 2.075-.027 4.148-.05h.121l.117-.005h.242l.485-.007.969-.012 1.933-.02 3.867-.043h.274l.27-.004.538-.003 1.079-.012 2.16-.02h.136l.133-.004h.27l.539-.007 1.082-.008h.133l.136-.004h.27l.539-.004.137-.004h.402l.137-.004h.27l.136-.004" fill="none" stroke-width="1.6" stroke-linecap="square" stroke="#a60000" stroke-opacity=".3" stroke-miterlimit="3.25"/><path d="M74.45 241.46l.054-2.69.121-4.579.121-3.832.121-3.3.121-2.895.121-2.582.121-2.328.122-2.125.12-1.953.126-1.805.242-3.25.12-1.476.122-1.395.242-2.566.121-1.192.121-1.137.243-2.128.129-1.079.132-1.039.262-1.953.133-.926.129-.89.265-1.692.13-.808.132-.781.262-1.5.527-2.762.13-.649.132-.628.262-1.223.527-2.29 1.047-4.07.133-.468.132-.465.262-.899.524-1.722 1.05-3.164.133-.375.133-.367.262-.723.523-1.395 1.05-2.613.13-.309.129-.3.258-.598.515-1.164 1.031-2.207 2.063-4.02.258-.468.258-.465.515-.91 1.031-1.758 2.063-3.277.242-.368.238-.359.485-.715.96-1.387 1.923-2.64 3.851-4.836.13-.156.128-.153.262-.308.523-.61 1.043-1.195 2.086-2.3 4.172-4.317 7.793-7.246 7.637-6.344 8.285-6.242 7.734-5.332 8.383-5.317 8.226-4.785 7.676-4.09 8.32-4.039 7.77-3.394 8.418-3.282 8.266-2.828 7.71-2.297 8.356-2.14 7.809-1.7.117-.027.121-.023.715-.14.957-.188 1.914-.36 3.824-.675.133-.02.129-.023.258-.043.52-.086 1.038-.168 2.075-.328 4.148-.606.121-.02.363-.046 1.453-.2 1.938-.25 3.871-.468.266-.031.261-.028.524-.058 1.05-.118 2.098-.222 4.2-.414.515-.047.512-.047 1.031-.094 2.063-.176 4.12-.328.118-.008.12-.011.243-.016 1.442-.105 1.921-.133 3.844-.25.258-.016.262-.015.52-.032 3.128-.175 4.168-.215.121-.008.121-.004.242-.012.489-.023.972-.047 1.946-.086 3.89-.164.121-.004.118-.004.238-.008.476-.02.957-.034 1.907-.07 3.812-.13.13-.004.132-.003.773-.024 1.036-.031 2.07-.059 4.14-.113h.122l.117-.004.242-.008.484-.011.965-.024 1.93-.043 3.863-.082.13-.004h.132l.262-.008.523-.007 1.047-.024 2.094-.035 4.183-.07.125-.004h.121l.246-.004 1.465-.024 1.953-.027 3.91-.055h.239l.242-.003.477-.008.96-.012 1.915-.02 3.832-.043h.132l.13-.003h.257l.52-.008 1.043-.008 2.078-.02 4.156-.035h.242l.242-.004.485-.004.972-.007 1.938-.012.121-.004h.363l.489-.004.968-.008 1.942-.011h.261l.262-.004.528-.004 1.05-.004 2.102-.012.133-.004h.39l.528-.004 1.05-.004 2.102-.011h.258l.258-.004h.52l1.03-.008 2.063-.008 4.129-.015.12-.004h.84l.966-.004 1.925-.008h.48l.481-.004.965-.004 1.922-.004h.262l.261-.004h.524l1.043-.004 2.086-.004 4.176-.011h.488l.488-.004h.973l5.847-.012h.122l.117-.004h1.672l1.91-.004 3.824-.007h1.035l1.035-.004h2.075l4.148-.008h1.934l1.933-.004h1.934l1.933-.004h2.16l2.16-.004h2.7l.539-.004h1.082" fill="none" stroke-width="1.6" stroke-linecap="square" stroke="#0d86a0" stroke-opacity=".3" stroke-miterlimit="3.25"/><path d="M426.602 19.992h11.742l1.3.004h13.02" fill="none" stroke-width="4" stroke-linejoin="round" stroke="#fff" stroke-opacity=".667" stroke-miterlimit="3.25"/><path d="M426.602 19.992h11.742l1.3.004h13.02" fill="none" stroke-width="1.25" stroke-linecap="square" stroke="#aaa" stroke-miterlimit="3.25"/><path d="M477.664 12.496v15h-25v-15zm0 0" fill="#fff" fill-opacity=".667"/><use xlink:href="#a" x="455.164" y="22.494"/><use xlink:href="#b" x="465.164" y="22.494"/><path d="M426.602 63.992h26.062" fill="none" stroke-width="4" stroke-linejoin="round" stroke="#fff" stroke-opacity=".667" stroke-miterlimit="3.25"/><path d="M426.602 63.992h26.062" fill="none" stroke-width="1.25" stroke-linecap="square" stroke="#aaa" stroke-miterlimit="3.25"/><path d="M497.664 56.492v15h-45v-15zm0 0" fill="#fff" fill-opacity=".667"/><use xlink:href="#c" x="455.164" y="66.493"/><use xlink:href="#d" x="465.164" y="66.493"/><use xlink:href="#e" x="475.164" y="66.493"/><use xlink:href="#f" x="485.164" y="66.493"/><path d="M40.207 197c0-.586-.23-1.148-.645-1.563a2.208 2.208 0 00-1.562-.644 2.21 2.21 0 00-1.563.644 2.208 2.208 0 00-.644 1.563c0 .586.23 1.148.645 1.563.414.414.976.644 1.562.644a2.21 2.21 0 001.563-.644 2.21 2.21 0 00.644-1.563zm8-2c0-.586-.23-1.148-.645-1.563a2.208 2.208 0 00-1.562-.644 2.21 2.21 0 00-1.563.644 2.208 2.208 0 00-.644 1.563c0 .586.23 1.148.645 1.563.414.414.976.644 1.562.644a2.21 2.21 0 001.563-.644 2.21 2.21 0 00.644-1.563zm8-8c0-.586-.23-1.148-.645-1.563a2.208 2.208 0 00-1.562-.644 2.21 2.21 0 00-1.563.644 2.208 2.208 0 00-.644 1.563c0 .586.23 1.148.645 1.563.414.414.976.644 1.562.644a2.21 2.21 0 001.563-.644 2.21 2.21 0 00.644-1.563zm9-15a2.21 2.21 0 00-.644-1.563 2.208 2.208 0 00-1.563-.644 2.21 2.21 0 00-1.563.644 2.208 2.208 0 00-.644 1.563c0 .586.23 1.148.645 1.563.414.414.976.644 1.562.644a2.21 2.21 0 001.563-.644 2.21 2.21 0 00.644-1.563zm8-12a2.21 2.21 0 00-.644-1.563 2.208 2.208 0 00-1.563-.644 2.21 2.21 0 00-1.563.644 2.208 2.208 0 00-.644 1.563c0 .586.23 1.148.644 1.563.415.414.977.644 1.563.644s1.148-.23 1.563-.644a2.21 2.21 0 00.644-1.563zm8-8a2.21 2.21 0 00-.644-1.563 2.208 2.208 0 00-1.563-.644 2.21 2.21 0 00-1.563.644 2.208 2.208 0 00-.644 1.563c0 .586.23 1.148.644 1.563.415.414.977.644 1.563.644s1.148-.23 1.563-.644a2.21 2.21 0 00.644-1.563zm9-10a2.21 2.21 0 00-.644-1.563 2.208 2.208 0 00-1.563-.644 2.21 2.21 0 00-1.563.644 2.208 2.208 0 00-.644 1.563c0 .586.23 1.148.644 1.563.415.414.977.644 1.563.644s1.148-.23 1.563-.644a2.21 2.21 0 00.644-1.563zm8-6a2.21 2.21 0 00-.644-1.563 2.208 2.208 0 00-1.563-.644 2.21 2.21 0 00-1.563.644 2.208 2.208 0 00-.644 1.563c0 .586.23 1.148.644 1.563.415.414.977.644 1.563.644s1.148-.23 1.563-.644a2.21 2.21 0 00.644-1.563zm8-9a2.21 2.21 0 00-.644-1.563 2.208 2.208 0 00-1.563-.644 2.21 2.21 0 00-1.563.644 2.208 2.208 0 00-.644 1.563c0 .586.23 1.148.644 1.563.415.414.977.644 1.563.644s1.148-.23 1.563-.644a2.21 2.21 0 00.644-1.563zm9-10a2.21 2.21 0 00-.644-1.563 2.208 2.208 0 00-1.563-.644 2.21 2.21 0 00-1.563.644 2.208 2.208 0 00-.644 1.563c0 .586.23 1.148.644 1.563.415.414.977.644 1.563.644s1.148-.23 1.563-.644a2.21 2.21 0 00.644-1.563zm8-10a2.21 2.21 0 00-.644-1.563 2.208 2.208 0 00-1.563-.644 2.21 2.21 0 00-1.563.644 2.208 2.208 0 00-.644 1.563c0 .586.23 1.148.644 1.563.415.414.977.644 1.563.644s1.148-.23 1.563-.644a2.21 2.21 0 00.644-1.563zm9-7a2.21 2.21 0 00-.644-1.563 2.208 2.208 0 00-1.563-.644 2.21 2.21 0 00-1.563.644 2.208 2.208 0 00-.644 1.563c0 .586.23 1.148.644 1.563.415.414.977.644 1.563.644s1.148-.23 1.563-.644a2.21 2.21 0 00.644-1.563zm8-12a2.21 2.21 0 00-.644-1.563 2.208 2.208 0 00-1.563-.644 2.21 2.21 0 00-1.563.644 2.208 2.208 0 00-.644 1.563c0 .586.23 1.148.644 1.563.415.414.977.644 1.563.644s1.148-.23 1.563-.644a2.21 2.21 0 00.644-1.563zm8-6a2.21 2.21 0 00-.644-1.563 2.208 2.208 0 00-1.563-.644 2.21 2.21 0 00-1.563.644 2.208 2.208 0 00-.644 1.563c0 .586.23 1.148.644 1.563.415.414.977.644 1.563.644s1.148-.23 1.563-.644a2.21 2.21 0 00.644-1.563zm9-6a2.21 2.21 0 00-.644-1.563 2.208 2.208 0 00-1.563-.644 2.21 2.21 0 00-1.563.644 2.208 2.208 0 00-.644 1.563c0 .586.23 1.148.644 1.563.415.414.977.644 1.563.644s1.148-.23 1.563-.644a2.21 2.21 0 00.644-1.563zm8-6a2.21 2.21 0 00-.644-1.563 2.208 2.208 0 00-1.563-.644 2.21 2.21 0 00-1.563.644 2.208 2.208 0 00-.644 1.563c0 .586.23 1.148.644 1.563.415.414.977.644 1.563.644s1.148-.23 1.563-.644a2.21 2.21 0 00.644-1.563zm8-4a2.21 2.21 0 00-.644-1.563 2.208 2.208 0 00-1.563-.644c-.586 0-1.148.23-1.563.645a2.208 2.208 0 00-.644 1.562c0 .586.23 1.148.644 1.563.415.414.977.644 1.563.644s1.148-.23 1.563-.644a2.21 2.21 0 00.644-1.563zm9-5a2.21 2.21 0 00-.644-1.563 2.208 2.208 0 00-1.563-.644c-.586 0-1.148.23-1.563.645a2.208 2.208 0 00-.644 1.562c0 .586.23 1.148.644 1.563.415.414.977.644 1.563.644s1.148-.23 1.563-.645c.414-.414.644-.976.644-1.562zm8-4a2.21 2.21 0 00-.644-1.563 2.208 2.208 0 00-1.563-.644c-.586 0-1.148.23-1.563.645a2.208 2.208 0 00-.644 1.562c0 .586.23 1.148.644 1.563.415.414.977.644 1.563.644s1.148-.23 1.563-.645c.414-.414.644-.976.644-1.562zm9-4a2.21 2.21 0 00-.644-1.563 2.208 2.208 0 00-1.563-.644c-.586 0-1.148.23-1.563.645a2.208 2.208 0 00-.644 1.562c0 .586.23 1.148.644 1.563.415.414.977.644 1.563.644s1.148-.23 1.563-.645c.414-.414.644-.976.644-1.562zm8-4a2.21 2.21 0 00-.644-1.563 2.208 2.208 0 00-1.563-.644c-.586 0-1.148.23-1.563.645a2.208 2.208 0 00-.644 1.562c0 .586.23 1.148.644 1.563.415.414.977.644 1.563.644s1.148-.23 1.563-.645c.414-.414.644-.976.644-1.562zm8-3a2.21 2.21 0 00-.644-1.563 2.208 2.208 0 00-1.563-.644c-.586 0-1.148.23-1.563.645a2.208 2.208 0 00-.644 1.562c0 .586.23 1.148.644 1.563.415.414.977.644 1.563.644s1.148-.23 1.563-.645c.414-.414.644-.976.644-1.562zm9-3a2.21 2.21 0 00-.644-1.563 2.208 2.208 0 00-1.563-.644c-.586 0-1.148.23-1.563.645a2.208 2.208 0 00-.644 1.562c0 .586.23 1.148.644 1.563.415.414.977.644 1.563.644s1.148-.23 1.563-.645c.414-.414.644-.976.644-1.562zm8-2a2.21 2.21 0 00-.644-1.563 2.208 2.208 0 00-1.563-.644c-.586 0-1.148.23-1.563.645a2.208 2.208 0 00-.644 1.562c0 .586.23 1.148.644 1.563.415.414.977.644 1.563.644s1.148-.23 1.563-.645c.414-.414.644-.976.644-1.562zm8-2a2.21 2.21 0 00-.644-1.563 2.208 2.208 0 00-1.563-.644c-.586 0-1.148.23-1.563.645a2.208 2.208 0 00-.644 1.562c0 .586.23 1.148.644 1.563.415.414.977.644 1.563.644s1.148-.23 1.563-.645c.414-.414.644-.976.644-1.562zm9-2a2.21 2.21 0 00-.644-1.563 2.208 2.208 0 00-1.563-.644c-.586 0-1.148.23-1.563.645a2.208 2.208 0 00-.644 1.562c0 .586.23 1.148.644 1.563.415.414.977.644 1.563.644s1.148-.23 1.563-.645c.414-.414.644-.976.644-1.562zm8-1a2.21 2.21 0 00-.644-1.563 2.208 2.208 0 00-1.563-.644c-.586 0-1.148.23-1.563.645a2.208 2.208 0 00-.644 1.562c0 .586.23 1.148.644 1.563.415.414.977.644 1.563.644s1.148-.23 1.563-.645c.414-.414.644-.976.644-1.562zm8-1a2.21 2.21 0 00-.644-1.563 2.208 2.208 0 00-1.563-.644c-.586 0-1.148.23-1.563.645a2.208 2.208 0 00-.644 1.562c0 .586.23 1.148.644 1.563.415.414.977.644 1.563.644s1.148-.23 1.563-.645c.414-.414.644-.976.644-1.562zm9-6a2.21 2.21 0 00-.644-1.563 2.208 2.208 0 00-1.563-.644c-.586 0-1.148.23-1.563.645a2.208 2.208 0 00-.644 1.562c0 .586.23 1.148.644 1.563.415.414.977.644 1.563.644s1.148-.23 1.563-.645c.414-.414.644-.976.644-1.562zm8-2a2.21 2.21 0 00-.644-1.563 2.208 2.208 0 00-1.563-.644c-.586 0-1.148.23-1.563.645a2.208 2.208 0 00-.644 1.562c0 .586.23 1.148.644 1.563.415.414.977.644 1.563.644s1.148-.23 1.563-.645c.414-.414.644-.976.644-1.562zm9-1a2.21 2.21 0 00-.644-1.563 2.208 2.208 0 00-1.563-.644c-.586 0-1.148.23-1.563.645a2.208 2.208 0 00-.644 1.562c0 .586.23 1.148.644 1.563.415.414.977.644 1.563.644s1.148-.23 1.563-.645c.414-.414.644-.976.644-1.562zm8-1a2.21 2.21 0 00-.644-1.563 2.208 2.208 0 00-1.563-.644c-.586 0-1.148.23-1.563.645a2.208 2.208 0 00-.644 1.562c0 .586.23 1.148.644 1.563.415.414.977.644 1.563.644s1.148-.23 1.563-.645c.414-.414.644-.976.644-1.562zm8-1a2.21 2.21 0 00-.644-1.563 2.208 2.208 0 00-1.563-.644c-.586 0-1.148.23-1.563.645a2.208 2.208 0 00-.644 1.562c0 .586.23 1.148.644 1.563.415.414.977.644 1.563.644s1.148-.23 1.563-.645c.414-.414.644-.976.644-1.562zm9 0a2.21 2.21 0 00-.644-1.563 2.208 2.208 0 00-1.563-.644c-.586 0-1.148.23-1.563.645a2.208 2.208 0 00-.644 1.562c0 .586.23 1.148.644 1.563.415.414.977.644 1.563.644s1.148-.23 1.563-.645c.414-.414.644-.976.644-1.562zm8-1a2.21 2.21 0 00-.644-1.563 2.208 2.208 0 00-1.563-.644c-.586 0-1.148.23-1.563.645a2.208 2.208 0 00-.644 1.562c0 .586.23 1.148.644 1.563.415.414.977.644 1.563.644s1.148-.23 1.563-.645c.414-.414.644-.976.644-1.562zm8 0a2.21 2.21 0 00-.644-1.563 2.208 2.208 0 00-1.563-.644c-.586 0-1.148.23-1.563.645a2.208 2.208 0 00-.644 1.562c0 .586.23 1.148.644 1.563.415.414.977.644 1.563.644s1.148-.23 1.563-.645c.414-.414.644-.976.644-1.562zm9 0a2.21 2.21 0 00-.644-1.563 2.208 2.208 0 00-1.563-.644c-.586 0-1.148.23-1.563.645a2.208 2.208 0 00-.644 1.562c0 .586.23 1.148.644 1.563.415.414.977.644 1.563.644s1.148-.23 1.563-.645c.414-.414.644-.976.644-1.562zm0 0" fill-rule="evenodd" fill="#a60000"/><path d="M81.207 212a2.21 2.21 0 00-.644-1.563 2.208 2.208 0 00-1.563-.644 2.21 2.21 0 00-1.563.644 2.208 2.208 0 00-.644 1.563c0 .586.23 1.148.644 1.563.415.414.977.644 1.563.644s1.148-.23 1.563-.644a2.21 2.21 0 00.644-1.563zm9-26a2.21 2.21 0 00-.644-1.563 2.208 2.208 0 00-1.563-.644 2.21 2.21 0 00-1.563.644 2.208 2.208 0 00-.644 1.563c0 .586.23 1.148.644 1.563.415.414.977.644 1.563.644s1.148-.23 1.563-.644a2.21 2.21 0 00.644-1.563zm8-17a2.21 2.21 0 00-.644-1.563 2.208 2.208 0 00-1.563-.644 2.21 2.21 0 00-1.563.644 2.208 2.208 0 00-.644 1.563c0 .586.23 1.148.644 1.563.415.414.977.644 1.563.644s1.148-.23 1.563-.644a2.21 2.21 0 00.644-1.563zm8-20a2.21 2.21 0 00-.644-1.563 2.208 2.208 0 00-1.563-.644 2.21 2.21 0 00-1.563.644 2.208 2.208 0 00-.644 1.563c0 .586.23 1.148.644 1.563.415.414.977.644 1.563.644s1.148-.23 1.563-.644a2.21 2.21 0 00.644-1.563zm9-14a2.21 2.21 0 00-.644-1.563 2.208 2.208 0 00-1.563-.644 2.21 2.21 0 00-1.563.644 2.208 2.208 0 00-.644 1.563c0 .586.23 1.148.644 1.563.415.414.977.644 1.563.644s1.148-.23 1.563-.644a2.21 2.21 0 00.644-1.563zm8-11a2.21 2.21 0 00-.644-1.563 2.208 2.208 0 00-1.563-.644 2.21 2.21 0 00-1.563.644 2.208 2.208 0 00-.644 1.563c0 .586.23 1.148.644 1.563.415.414.977.644 1.563.644s1.148-.23 1.563-.644a2.21 2.21 0 00.644-1.563zm9-8a2.21 2.21 0 00-.644-1.563 2.208 2.208 0 00-1.563-.644 2.21 2.21 0 00-1.563.644 2.208 2.208 0 00-.644 1.563c0 .586.23 1.148.644 1.563.415.414.977.644 1.563.644s1.148-.23 1.563-.644a2.21 2.21 0 00.644-1.563zm8-7a2.21 2.21 0 00-.644-1.563 2.208 2.208 0 00-1.563-.644 2.21 2.21 0 00-1.563.644 2.208 2.208 0 00-.644 1.563c0 .586.23 1.148.644 1.563.415.414.977.644 1.563.644s1.148-.23 1.563-.644a2.21 2.21 0 00.644-1.563zm8-7a2.21 2.21 0 00-.644-1.563 2.208 2.208 0 00-1.563-.644 2.21 2.21 0 00-1.563.644 2.208 2.208 0 00-.644 1.563c0 .586.23 1.148.644 1.563.415.414.977.644 1.563.644s1.148-.23 1.563-.644a2.21 2.21 0 00.644-1.563zm9-5a2.21 2.21 0 00-.644-1.563 2.208 2.208 0 00-1.563-.644 2.21 2.21 0 00-1.563.644 2.208 2.208 0 00-.644 1.563c0 .586.23 1.148.644 1.563.415.414.977.644 1.563.644s1.148-.23 1.563-.644a2.21 2.21 0 00.644-1.563zm8-5a2.21 2.21 0 00-.644-1.563 2.208 2.208 0 00-1.563-.644 2.21 2.21 0 00-1.563.644 2.208 2.208 0 00-.644 1.563c0 .586.23 1.148.644 1.563.415.414.977.644 1.563.644s1.148-.23 1.563-.644a2.21 2.21 0 00.644-1.563zm8-5a2.21 2.21 0 00-.644-1.563 2.208 2.208 0 00-1.563-.644 2.21 2.21 0 00-1.563.644 2.208 2.208 0 00-.644 1.563c0 .586.23 1.148.644 1.563.415.414.977.644 1.563.644s1.148-.23 1.563-.644a2.21 2.21 0 00.644-1.563zm9-3a2.21 2.21 0 00-.644-1.563 2.208 2.208 0 00-1.563-.644 2.21 2.21 0 00-1.563.644 2.208 2.208 0 00-.644 1.563c0 .586.23 1.148.644 1.563.415.414.977.644 1.563.644s1.148-.23 1.563-.644a2.21 2.21 0 00.644-1.563zm8-3a2.21 2.21 0 00-.644-1.563 2.208 2.208 0 00-1.563-.644 2.21 2.21 0 00-1.563.644 2.208 2.208 0 00-.644 1.563c0 .586.23 1.148.644 1.563.415.414.977.644 1.563.644s1.148-.23 1.563-.644a2.21 2.21 0 00.644-1.563zm9-3a2.21 2.21 0 00-.644-1.563 2.208 2.208 0 00-1.563-.644 2.21 2.21 0 00-1.563.644 2.208 2.208 0 00-.644 1.563c0 .586.23 1.148.644 1.563.415.414.977.644 1.563.644s1.148-.23 1.563-.644a2.21 2.21 0 00.644-1.563zm8-2a2.21 2.21 0 00-.644-1.563 2.208 2.208 0 00-1.563-.644 2.21 2.21 0 00-1.563.644 2.208 2.208 0 00-.644 1.563c0 .586.23 1.148.644 1.563.415.414.977.644 1.563.644s1.148-.23 1.563-.644a2.21 2.21 0 00.644-1.563zm8-2a2.21 2.21 0 00-.644-1.563 2.208 2.208 0 00-1.563-.644 2.21 2.21 0 00-1.563.644 2.208 2.208 0 00-.644 1.563c0 .586.23 1.148.644 1.563.415.414.977.644 1.563.644s1.148-.23 1.563-.644a2.21 2.21 0 00.644-1.563zm9-2a2.21 2.21 0 00-.644-1.563 2.208 2.208 0 00-1.563-.644 2.21 2.21 0 00-1.563.644 2.208 2.208 0 00-.644 1.563c0 .586.23 1.148.644 1.563.415.414.977.644 1.563.644s1.148-.23 1.563-.644a2.21 2.21 0 00.644-1.563zm8-1a2.21 2.21 0 00-.644-1.563 2.208 2.208 0 00-1.563-.644 2.21 2.21 0 00-1.563.644 2.208 2.208 0 00-.644 1.563c0 .586.23 1.148.644 1.563.415.414.977.644 1.563.644s1.148-.23 1.563-.644a2.21 2.21 0 00.644-1.563zm8-2a2.21 2.21 0 00-.644-1.563 2.208 2.208 0 00-1.563-.644 2.21 2.21 0 00-1.563.644 2.208 2.208 0 00-.644 1.563c0 .586.23 1.148.644 1.563.415.414.977.644 1.563.644s1.148-.23 1.563-.644a2.21 2.21 0 00.644-1.563zm9-1a2.21 2.21 0 00-.644-1.563 2.208 2.208 0 00-1.563-.644 2.21 2.21 0 00-1.563.644 2.208 2.208 0 00-.644 1.563c0 .586.23 1.148.644 1.563.415.414.977.644 1.563.644s1.148-.23 1.563-.644a2.21 2.21 0 00.644-1.563zm8 0a2.21 2.21 0 00-.644-1.563 2.208 2.208 0 00-1.563-.644 2.21 2.21 0 00-1.563.644 2.208 2.208 0 00-.644 1.563c0 .586.23 1.148.644 1.563.415.414.977.644 1.563.644s1.148-.23 1.563-.644a2.21 2.21 0 00.644-1.563zm8-1a2.21 2.21 0 00-.644-1.563 2.208 2.208 0 00-1.563-.644 2.21 2.21 0 00-1.563.644 2.208 2.208 0 00-.644 1.563c0 .586.23 1.148.644 1.563.415.414.977.644 1.563.644s1.148-.23 1.563-.644a2.21 2.21 0 00.644-1.563zm9-1a2.21 2.21 0 00-.644-1.563 2.208 2.208 0 00-1.563-.644c-.586 0-1.148.23-1.563.645a2.208 2.208 0 00-.644 1.562c0 .586.23 1.148.644 1.563.415.414.977.644 1.563.644s1.148-.23 1.563-.644a2.21 2.21 0 00.644-1.563zm8 0a2.21 2.21 0 00-.644-1.563 2.208 2.208 0 00-1.563-.644c-.586 0-1.148.23-1.563.645a2.208 2.208 0 00-.644 1.562c0 .586.23 1.148.644 1.563.415.414.977.644 1.563.644s1.148-.23 1.563-.644a2.21 2.21 0 00.644-1.563zm9-1a2.21 2.21 0 00-.644-1.563 2.208 2.208 0 00-1.563-.644c-.586 0-1.148.23-1.563.645a2.208 2.208 0 00-.644 1.562c0 .586.23 1.148.644 1.563.415.414.977.644 1.563.644s1.148-.23 1.563-.644a2.21 2.21 0 00.644-1.563zm8 0a2.21 2.21 0 00-.644-1.563 2.208 2.208 0 00-1.563-.644c-.586 0-1.148.23-1.563.645a2.208 2.208 0 00-.644 1.562c0 .586.23 1.148.644 1.563.415.414.977.644 1.563.644s1.148-.23 1.563-.644a2.21 2.21 0 00.644-1.563zm8 0a2.21 2.21 0 00-.644-1.563 2.208 2.208 0 00-1.563-.644c-.586 0-1.148.23-1.563.645a2.208 2.208 0 00-.644 1.562c0 .586.23 1.148.644 1.563.415.414.977.644 1.563.644s1.148-.23 1.563-.644a2.21 2.21 0 00.644-1.563zm9 0a2.21 2.21 0 00-.644-1.563 2.208 2.208 0 00-1.563-.644c-.586 0-1.148.23-1.563.645a2.208 2.208 0 00-.644 1.562c0 .586.23 1.148.644 1.563.415.414.977.644 1.563.644s1.148-.23 1.563-.644a2.21 2.21 0 00.644-1.563zm8-1a2.21 2.21 0 00-.644-1.563 2.208 2.208 0 00-1.563-.644c-.586 0-1.148.23-1.563.645a2.208 2.208 0 00-.644 1.562c0 .586.23 1.148.644 1.563.415.414.977.644 1.563.644s1.148-.23 1.563-.644a2.21 2.21 0 00.644-1.563zm8 0a2.21 2.21 0 00-.644-1.563 2.208 2.208 0 00-1.563-.644c-.586 0-1.148.23-1.563.645a2.208 2.208 0 00-.644 1.562c0 .586.23 1.148.644 1.563.415.414.977.644 1.563.644s1.148-.23 1.563-.644a2.21 2.21 0 00.644-1.563zm9 0a2.21 2.21 0 00-.644-1.563 2.208 2.208 0 00-1.563-.644c-.586 0-1.148.23-1.563.645a2.208 2.208 0 00-.644 1.562c0 .586.23 1.148.644 1.563.415.414.977.644 1.563.644s1.148-.23 1.563-.644a2.21 2.21 0 00.644-1.563zm0 0" fill-rule="evenodd" fill="#0d86a0"/><path d="M426.602 241.46H25m0 0V.5m0 0h401.602m0 0v240.96" fill="none" stroke-width=".5" stroke-linecap="square" stroke="#666" stroke-miterlimit="3.25"/><path d="M37.55 241.46v-4" fill="none" stroke-width=".5" stroke="#666" stroke-miterlimit="3.25"/><g fill="#666"><use xlink:href="#g" x="23.05" y="253.46"/><use xlink:href="#h" x="28.568" y="253.46"/><use xlink:href="#i" x="34.007" y="253.46"/></g><g fill="#666"><use xlink:href="#j" x="41.05" y="253.46"/><use xlink:href="#k" x="46.665" y="253.46"/></g><path d="M96.117 241.46v-4" fill="none" stroke-width=".5" stroke="#666" stroke-miterlimit="3.25"/><g fill="#666"><use xlink:href="#g" x="81.617" y="253.46"/><use xlink:href="#h" x="87.134" y="253.46"/><use xlink:href="#i" x="92.574" y="253.46"/></g><g fill="#666"><use xlink:href="#l" x="99.617" y="253.46"/><use xlink:href="#m" x="105.232" y="253.46"/></g><path d="M154.684 241.46v-4" fill="none" stroke-width=".5" stroke="#666" stroke-miterlimit="3.25"/><g fill="#666"><use xlink:href="#g" x="140.183" y="253.46"/><use xlink:href="#h" x="145.701" y="253.46"/><use xlink:href="#i" x="151.14" y="253.46"/></g><g fill="#666"><use xlink:href="#m" x="158.183" y="253.46"/><use xlink:href="#n" x="163.799" y="253.46"/></g><path d="M213.25 241.46v-4" fill="none" stroke-width=".5" stroke="#666" stroke-miterlimit="3.25"/><g fill="#666"><use xlink:href="#o" x="198.75" y="253.46"/><use xlink:href="#p" x="204.277" y="253.46"/><use xlink:href="#q" x="209.575" y="253.46"/></g><g fill="#666"><use xlink:href="#n" x="216.75" y="253.46"/><use xlink:href="#k" x="222.365" y="253.46"/></g><path d="M271.816 241.46v-4" fill="none" stroke-width=".5" stroke="#666" stroke-miterlimit="3.25"/><g fill="#666"><use xlink:href="#o" x="257.317" y="253.46"/><use xlink:href="#p" x="262.844" y="253.46"/><use xlink:href="#q" x="268.142" y="253.46"/></g><g fill="#666"><use xlink:href="#j" x="275.317" y="253.46"/><use xlink:href="#m" x="280.932" y="253.46"/></g><path d="M330.383 241.46v-4" fill="none" stroke-width=".5" stroke="#666" stroke-miterlimit="3.25"/><g fill="#666"><use xlink:href="#o" x="315.883" y="253.46"/><use xlink:href="#p" x="321.411" y="253.46"/><use xlink:href="#q" x="326.708" y="253.46"/></g><g fill="#666"><use xlink:href="#l" x="333.883" y="253.46"/><use xlink:href="#n" x="339.499" y="253.46"/></g><path d="M388.95 241.46v-4" fill="none" stroke-width=".5" stroke="#666" stroke-miterlimit="3.25"/><g fill="#666"><use xlink:href="#o" x="374.45" y="253.46"/><use xlink:href="#p" x="379.977" y="253.46"/><use xlink:href="#q" x="385.275" y="253.46"/></g><g fill="#666"><use xlink:href="#l" x="392.45" y="253.46"/><use xlink:href="#r" x="398.065" y="253.46"/></g><path d="M25 229.629h4.016" fill="none" stroke-width=".1" stroke="#666" stroke-miterlimit="3.25"/><g fill="#666"><use xlink:href="#j" x="11" y="232.129"/><use xlink:href="#n" x="16.615" y="232.129"/></g><path d="M25 176.3h4.016" fill="none" stroke-width=".1" stroke="#666" stroke-miterlimit="3.25"/><g fill="#666"><use xlink:href="#j" x="5" y="178.801"/><use xlink:href="#n" x="10.615" y="178.801"/><use xlink:href="#n" x="16.23" y="178.801"/></g><path d="M25 122.973h4.016" fill="none" stroke-width=".1" stroke="#666" stroke-miterlimit="3.25"/><g fill="#666"><use xlink:href="#j" y="125.472"/><use xlink:href="#n" x="5.615" y="125.472"/><use xlink:href="#n" x="11.23" y="125.472"/><use xlink:href="#n" x="16.846" y="125.472"/></g><path d="M25 69.645h4.016" fill="none" stroke-width=".1" stroke="#666" stroke-miterlimit="3.25"/><g fill="#666"><use xlink:href="#j" x="5" y="73.643"/><use xlink:href="#n" x="10.615" y="73.643"/></g><use xlink:href="#s" x="16" y="69.643" fill="#666"/><path d="M25 16.316h4.016" fill="none" stroke-width=".1" stroke="#666" stroke-miterlimit="3.25"/><g fill="#666"><use xlink:href="#j" x="5" y="20.315"/><use xlink:href="#n" x="10.615" y="20.315"/></g><use xlink:href="#t" x="16" y="16.315" fill="#666"/><path d="M25 241.46h2.398M25 237.89h2.398M25 234.797h2.398M25 232.07h2.398M25 213.574h2.398M25 204.184h2.398M25 197.523h2.398M25 192.355h2.398M25 188.133h2.398M25 184.563h2.398M25 181.469h2.398M25 178.742h2.398M25 160.246h2.398M25 150.855h2.398M25 144.195h2.398M25 139.027h2.398M25 134.805h2.398M25 131.234h2.398M25 128.14h2.398M25 125.414h2.398M25 106.918h2.398M25 97.527h2.398M25 90.863h2.398M25 85.695h2.398M25 81.473h2.398M25 77.902h2.398M25 74.813h2.398M25 72.082h2.398M25 53.59h2.398M25 44.2h2.398M25 37.535h2.398M25 32.367h2.398M25 28.145h2.398M25 24.574h2.398M25 21.484h2.398M25 18.754h2.398m399.204 210.875h-4.02m4.02-53.329h-4.02m4.02-53.327h-4.02m4.02-53.328h-4.02m4.02-53.329h-4.02m4.02 225.144h-2.403m2.403-3.57h-2.403m2.403-3.093h-2.403m2.403-2.727h-2.403m2.403-18.496h-2.403m2.403-9.39h-2.403m2.403-6.661h-2.403m2.403-5.168h-2.403m2.403-4.222h-2.403m2.403-3.57h-2.403m2.403-3.094h-2.403m2.403-2.727h-2.403m2.403-18.496h-2.403m2.403-9.391h-2.403m2.403-6.66h-2.403m2.403-5.168h-2.403m2.403-4.222h-2.403m2.403-3.571h-2.403m2.403-3.094h-2.403m2.403-2.726h-2.403m2.403-18.496h-2.403m2.403-9.391h-2.403m2.403-6.664h-2.403m2.403-5.168h-2.403m2.403-4.222h-2.403m2.403-3.571h-2.403m2.403-3.089h-2.403m2.403-2.731h-2.403m2.403-18.492h-2.403m2.403-9.39h-2.403m2.403-6.665h-2.403m2.403-5.168h-2.403m2.403-4.222h-2.403m2.403-3.571h-2.403m2.403-3.09h-2.403m2.403-2.73h-2.403" fill="none" stroke-width=".1" stroke="#666" stroke-miterlimit="3.25"/></svg>