<svg xmlns="http://www.w3.org/2000/svg" xmlns:xlink="http://www.w3.org/1999/xlink" width="500pt" height="404" viewBox="0 0 500 303"><defs><clipPath id="a"><path d="M33 4h2v283h-2zm0 0"/></clipPath><clipPath id="b"><path d="M45 4h2v283h-2zm0 0"/></clipPath><clipPath id="c"><path d="M57 4h2v283h-2zm0 0"/></clipPath><clipPath id="d"><path d="M69 4h2v283h-2zm0 0"/></clipPath><clipPath id="e"><path d="M81 4h2v283h-2zm0 0"/></clipPath><clipPath id="f"><path d="M93 4h2v283h-2zm0 0"/></clipPath><clipPath id="g"><path d="M105 4h2v283h-2zm0 0"/></clipPath><clipPath id="h"><path d="M117 4h2v283h-2zm0 0"/></clipPath><clipPath id="i"><path d="M128 4h2v283h-2zm0 0"/></clipPath><clipPath id="j"><path d="M140 4h2v283h-2zm0 0"/></clipPath><clipPath id="k"><path d="M152 4h2v283h-2zm0 0"/></clipPath><clipPath id="l"><path d="M164 4h2v283h-2zm0 0"/></clipPath><clipPath id="m"><path d="M176 4h2v283h-2zm0 0"/></clipPath><clipPath id="n"><path d="M188 4h2v283h-2zm0 0"/></clipPath><clipPath id="o"><path d="M200 4h2v283h-2zm0 0"/></clipPath><clipPath id="p"><path d="M212 4h2v283h-2zm0 0"/></clipPath><clipPath id="q"><path d="M223 4h2v283h-2zm0 0"/></clipPath><clipPath id="r"><path d="M235 4h2v283h-2zm0 0"/></clipPath><clipPath id="s"><path d="M247 4h2v283h-2zm0 0"/></clipPath><clipPath id="t"><path d="M259 4h2v283h-2zm0 0"/></clipPath><clipPath id="u"><path d="M271 4h2v283h-2zm0 0"/></clipPath><clipPath id="v"><path d="M283 4h2v283h-2zm0 0"/></clipPath><clipPath id="w"><path d="M295 4h2v283h-2zm0 0"/></clipPath><clipPath id="x"><path d="M306 4h2v283h-2zm0 0"/></clipPath><clipPath id="y"><path d="M318 4h2v283h-2zm0 0"/></clipPath><clipPath id="z"><path d="M330 4h2v283h-2zm0 0"/></clipPath><clipPath id="A"><path d="M342 4h2v283h-2zm0 0"/></clipPath><clipPath id="B"><path d="M354 4h2v283h-2zm0 0"/></clipPath><clipPath id="C"><path d="M366 4h2v283h-2zm0 0"/></clipPath><clipPath id="D"><path d="M378 4h2v283h-2zm0 0"/></clipPath><clipPath id="E"><path d="M390 4h2v283h-2zm0 0"/></clipPath><clipPath id="F"><path d="M401 4h2v283h-2zm0 0"/></clipPath><clipPath id="G"><path d="M413 4h2v283h-2zm0 0"/></clipPath><clipPath id="H"><path d="M425 4h2v283h-2zm0 0"/></clipPath><clipPath id="I"><path d="M437 4h2v283h-2zm0 0"/></clipPath><clipPath id="J"><path d="M449 4h2v283h-2zm0 0"/></clipPath><clipPath id="K"><path d="M461 4h2v283h-2zm0 0"/></clipPath><clipPath id="L"><path d="M473 4h2v283h-2zm0 0"/></clipPath><clipPath id="M"><path d="M485 4h2v283h-2zm0 0"/></clipPath><clipPath id="N"><path d="M25 266h470v2H25zm0 0"/></clipPath><clipPath id="O"><path d="M25 209h470v2H25zm0 0"/></clipPath><clipPath id="P"><path d="M25 152h470v2H25zm0 0"/></clipPath><clipPath id="Q"><path d="M25 94h470v2H25zm0 0"/></clipPath><clipPath id="R"><path d="M25 37h470v2H25zm0 0"/></clipPath><symbol overflow="visible" id="S"><path d="M3.805-7.11h.941v5.036c0 .68-.203 1.21-.613 1.597-.406.383-.953.575-1.633.575-.707 0-1.258-.18-1.648-.543-.395-.36-.594-.867-.594-1.516h.937c0 .406.114.723.336.95.223.23.547.343.969.343.387 0 .7-.121.941-.367.239-.246.36-.586.364-1.028zm0 0"/></symbol><symbol overflow="visible" id="T"><path d="M3.945 0c-.05-.105-.093-.29-.125-.555-.422.434-.922.653-1.507.653-.52 0-.946-.149-1.282-.442a1.438 1.438 0 01-.5-1.12c0-.552.211-.977.63-1.282.417-.305 1.007-.457 1.765-.457h.879v-.414c0-.317-.094-.567-.285-.754-.188-.188-.465-.281-.833-.281-.324 0-.593.082-.812.242-.219.164-.328.36-.328.59H.64c0-.262.093-.516.28-.762.188-.246.442-.441.763-.582.32-.145.671-.219 1.054-.219.61 0 1.086.153 1.434.457.344.305.523.727.535 1.258v2.434c0 .484.063.87.184 1.156V0zm-1.5-.688c.285 0 .555-.074.805-.218a1.35 1.35 0 00.555-.574v-1.083h-.711c-1.106 0-1.656.325-1.656.97 0 .284.093.507.28.663.188.16.43.243.727.243zm0 0"/></symbol><symbol overflow="visible" id="U"><path d="M1.54-5.281l.026.664a1.93 1.93 0 011.582-.766c1.118 0 1.68.633 1.692 1.89V0h-.902v-3.496c-.004-.379-.094-.664-.262-.844-.172-.183-.438-.273-.801-.273-.293 0-.55.078-.77.234a1.59 1.59 0 00-.52.613V0h-.9v-5.281zm0 0"/></symbol><symbol overflow="visible" id="V"><path d="M3.559 0h-.907v-6.02l-1.824.668v-.82l2.59-.973h.14zm0 0"/></symbol><symbol overflow="visible" id="W"><path d="M1.906-3.992h.676c.426-.008.762-.121 1.008-.34.242-.219.363-.512.363-.883 0-.832-.414-1.25-1.242-1.25-.39 0-.703.113-.938.336-.23.223-.347.516-.347.887H.523c0-.563.204-1.031.618-1.406.41-.372.933-.559 1.57-.559.672 0 1.195.176 1.578.531.379.356.57.848.57 1.48 0 .31-.101.61-.3.9a1.81 1.81 0 01-.817.648c.39.125.692.328.903.617.214.285.32.636.32 1.047 0 .64-.207 1.144-.625 1.52-.418.374-.957.562-1.625.562s-1.211-.18-1.63-.543c-.417-.36-.624-.836-.624-1.43h.906c0 .375.121.672.367.898.243.227.57.336.98.336.438 0 .77-.113 1-.34.231-.23.349-.554.349-.98 0-.414-.125-.734-.383-.953-.254-.223-.618-.336-1.098-.344h-.676zm0 0"/></symbol><symbol overflow="visible" id="X"><path d="M5.25 0H.59v-.648l2.46-2.735c.364-.414.618-.75.755-1.008.14-.257.21-.527.21-.804 0-.371-.113-.676-.34-.914-.222-.239-.523-.356-.898-.356-.449 0-.797.13-1.047.383-.25.254-.37.613-.37 1.066H.452c0-.652.211-1.183.633-1.586.422-.402.984-.605 1.691-.605.66 0 1.184.172 1.567.52.386.347.578.808.578 1.382 0 .703-.445 1.535-1.336 2.5L1.68-.738h3.57zm0 0"/></symbol><symbol overflow="visible" id="Y"><path d="M5.047-3.031c0 1.058-.18 1.844-.54 2.36-.362.51-.925.769-1.694.769-.758 0-1.32-.25-1.684-.754C.766-1.16.574-1.91.562-2.91v-1.207c0-1.043.18-1.82.54-2.328.363-.508.93-.762 1.703-.762.765 0 1.328.246 1.687.734.36.489.547 1.246.555 2.27zm-.902-1.235c0-.765-.106-1.324-.32-1.675-.216-.348-.555-.524-1.02-.524-.465 0-.801.176-1.012.524-.211.347-.32.882-.328 1.605v1.445c0 .77.113 1.336.336 1.704.222.367.558.546 1.012.546.445 0 .777-.171.992-.515.218-.344.332-.89.34-1.633zm0 0"/></symbol><symbol overflow="visible" id="Z"><path d="M5.18-6.602L2.234 0H1.29l2.934-6.367H.375v-.742H5.18zm0 0"/></symbol><symbol overflow="visible" id="aa"><path d="M4.746-3.14H1.762V0H.824v-7.11H5.23v.774H1.762v2.43h2.984zm0 0"/></symbol><symbol overflow="visible" id="ab"><path d="M2.875.098c-.715 0-1.297-.235-1.746-.707-.45-.47-.676-1.098-.676-1.887v-.164c0-.524.102-.992.3-1.406.2-.41.481-.735.84-.965.36-.235.75-.352 1.173-.352.687 0 1.218.227 1.601.68.38.453.57 1.101.57 1.945v.375H1.36c.012.52.164.942.454 1.262.292.32.664.48 1.113.48.316 0 .59-.062.808-.195.223-.129.414-.3.582-.516l.551.43c-.441.68-1.105 1.02-1.992 1.02zm-.11-4.739a1.21 1.21 0 00-.921.399c-.246.265-.399.64-.457 1.117H4.03v-.07c-.023-.457-.148-.813-.367-1.067-.223-.25-.523-.379-.898-.379zm0 0"/></symbol><symbol overflow="visible" id="ac"><path d="M5.156-2.582c0 .809-.187 1.453-.554 1.945-.372.489-.872.735-1.497.735-.667 0-1.183-.235-1.546-.707L1.516 0H.684v-7.5h.902v2.797c.367-.453.867-.68 1.508-.68.64 0 1.148.246 1.511.73.368.485.551 1.15.551 1.993zm-.902-.106c0-.613-.121-1.09-.356-1.421-.238-.336-.582-.504-1.027-.504-.598 0-1.023.277-1.285.828V-1.5c.277.555.71.832 1.297.832.43 0 .77-.168 1.008-.504.242-.336.363-.84.363-1.516zm0 0"/></symbol><symbol overflow="visible" id="ad"><path d="M3.965-2.148h.887v.664h-.887V0h-.817v-1.484H.234v-.48l2.864-4.434h.867zm-2.809 0h1.992v-3.137l-.097.176zm0 0"/></symbol></defs><g clip-path="url(#a)"><path d="M34.398 286V4" fill="none" stroke="#666" stroke-opacity=".5" stroke-dasharray="1,2" stroke-miterlimit="3.25"/></g><g clip-path="url(#b)"><path d="M46.273 286V4" fill="none" stroke="#666" stroke-opacity=".5" stroke-dasharray="1,2" stroke-miterlimit="3.25"/></g><g clip-path="url(#c)"><path d="M58.148 286V4" fill="none" stroke="#666" stroke-opacity=".5" stroke-dasharray="1,2" stroke-miterlimit="3.25"/></g><g clip-path="url(#d)"><path d="M70.02 286V4" fill="none" stroke="#666" stroke-opacity=".5" stroke-dasharray="1,2" stroke-miterlimit="3.25"/></g><g clip-path="url(#e)"><path d="M81.895 286V4" fill="none" stroke="#666" stroke-opacity=".5" stroke-dasharray="1,2" stroke-miterlimit="3.25"/></g><g clip-path="url(#f)"><path d="M93.77 286V4" fill="none" stroke="#666" stroke-opacity=".5" stroke-dasharray="1,2" stroke-miterlimit="3.25"/></g><g clip-path="url(#g)"><path d="M105.64 286V4" fill="none" stroke="#666" stroke-opacity=".5" stroke-dasharray="1,2" stroke-miterlimit="3.25"/></g><g clip-path="url(#h)"><path d="M117.516 286V4" fill="none" stroke="#666" stroke-opacity=".5" stroke-dasharray="1,2" stroke-miterlimit="3.25"/></g><g clip-path="url(#i)"><path d="M129.39 286V4" fill="none" stroke="#666" stroke-opacity=".5" stroke-dasharray="1,2" stroke-miterlimit="3.25"/></g><g clip-path="url(#j)"><path d="M141.262 286V4" fill="none" stroke="#666" stroke-opacity=".5" stroke-dasharray="1,2" stroke-miterlimit="3.25"/></g><g clip-path="url(#k)"><path d="M153.137 286V4" fill="none" stroke="#666" stroke-opacity=".5" stroke-dasharray="1,2" stroke-miterlimit="3.25"/></g><g clip-path="url(#l)"><path d="M165.012 286V4" fill="none" stroke="#666" stroke-opacity=".5" stroke-dasharray="1,2" stroke-miterlimit="3.25"/></g><g clip-path="url(#m)"><path d="M176.883 286V4" fill="none" stroke="#666" stroke-opacity=".5" stroke-dasharray="1,2" stroke-miterlimit="3.25"/></g><g clip-path="url(#n)"><path d="M188.758 286V4" fill="none" stroke="#666" stroke-opacity=".5" stroke-dasharray="1,2" stroke-miterlimit="3.25"/></g><g clip-path="url(#o)"><path d="M200.633 286V4" fill="none" stroke="#666" stroke-opacity=".5" stroke-dasharray="1,2" stroke-miterlimit="3.25"/></g><g clip-path="url(#p)"><path d="M212.504 286V4" fill="none" stroke="#666" stroke-opacity=".5" stroke-dasharray="1,2" stroke-miterlimit="3.25"/></g><g clip-path="url(#q)"><path d="M224.379 286V4" fill="none" stroke="#666" stroke-opacity=".5" stroke-dasharray="1,2" stroke-miterlimit="3.25"/></g><g clip-path="url(#r)"><path d="M236.254 286V4" fill="none" stroke="#666" stroke-opacity=".5" stroke-dasharray="1,2" stroke-miterlimit="3.25"/></g><g clip-path="url(#s)"><path d="M248.125 286V4" fill="none" stroke="#666" stroke-opacity=".5" stroke-dasharray="1,2" stroke-miterlimit="3.25"/></g><g clip-path="url(#t)"><path d="M260 286V4" fill="none" stroke="#666" stroke-opacity=".5" stroke-dasharray="1,2" stroke-miterlimit="3.25"/></g><g clip-path="url(#u)"><path d="M271.875 286V4" fill="none" stroke="#666" stroke-opacity=".5" stroke-dasharray="1,2" stroke-miterlimit="3.25"/></g><g clip-path="url(#v)"><path d="M283.746 286V4" fill="none" stroke="#666" stroke-opacity=".5" stroke-dasharray="1,2" stroke-miterlimit="3.25"/></g><g clip-path="url(#w)"><path d="M295.621 286V4" fill="none" stroke="#666" stroke-opacity=".5" stroke-dasharray="1,2" stroke-miterlimit="3.25"/></g><g clip-path="url(#x)"><path d="M307.496 286V4" fill="none" stroke="#666" stroke-opacity=".5" stroke-dasharray="1,2" stroke-miterlimit="3.25"/></g><g clip-path="url(#y)"><path d="M319.367 286V4" fill="none" stroke="#666" stroke-opacity=".5" stroke-dasharray="1,2" stroke-miterlimit="3.25"/></g><g clip-path="url(#z)"><path d="M331.242 286V4" fill="none" stroke="#666" stroke-opacity=".5" stroke-dasharray="1,2" stroke-miterlimit="3.25"/></g><g clip-path="url(#A)"><path d="M343.117 286V4" fill="none" stroke="#666" stroke-opacity=".5" stroke-dasharray="1,2" stroke-miterlimit="3.25"/></g><g clip-path="url(#B)"><path d="M354.988 286V4" fill="none" stroke="#666" stroke-opacity=".5" stroke-dasharray="1,2" stroke-miterlimit="3.25"/></g><g clip-path="url(#C)"><path d="M366.863 286V4" fill="none" stroke="#666" stroke-opacity=".5" stroke-dasharray="1,2" stroke-miterlimit="3.25"/></g><g clip-path="url(#D)"><path d="M378.738 286V4" fill="none" stroke="#666" stroke-opacity=".5" stroke-dasharray="1,2" stroke-miterlimit="3.25"/></g><g clip-path="url(#E)"><path d="M390.61 286V4" fill="none" stroke="#666" stroke-opacity=".5" stroke-dasharray="1,2" stroke-miterlimit="3.25"/></g><g clip-path="url(#F)"><path d="M402.484 286V4" fill="none" stroke="#666" stroke-opacity=".5" stroke-dasharray="1,2" stroke-miterlimit="3.25"/></g><g clip-path="url(#G)"><path d="M414.36 286V4" fill="none" stroke="#666" stroke-opacity=".5" stroke-dasharray="1,2" stroke-miterlimit="3.25"/></g><g clip-path="url(#H)"><path d="M426.23 286V4" fill="none" stroke="#666" stroke-opacity=".5" stroke-dasharray="1,2" stroke-miterlimit="3.25"/></g><g clip-path="url(#I)"><path d="M438.105 286V4" fill="none" stroke="#666" stroke-opacity=".5" stroke-dasharray="1,2" stroke-miterlimit="3.25"/></g><g clip-path="url(#J)"><path d="M449.98 286V4" fill="none" stroke="#666" stroke-opacity=".5" stroke-dasharray="1,2" stroke-miterlimit="3.25"/></g><g clip-path="url(#K)"><path d="M461.852 286V4" fill="none" stroke="#666" stroke-opacity=".5" stroke-dasharray="1,2" stroke-miterlimit="3.25"/></g><g clip-path="url(#L)"><path d="M473.727 286V4" fill="none" stroke="#666" stroke-opacity=".5" stroke-dasharray="1,2" stroke-miterlimit="3.25"/></g><g clip-path="url(#M)"><path d="M485.602 286V4" fill="none" stroke="#666" stroke-opacity=".5" stroke-dasharray="1,2" stroke-miterlimit="3.25"/></g><g clip-path="url(#N)"><path d="M25 267.016h470" fill="none" stroke="#666" stroke-opacity=".5" stroke-dasharray="1,2" stroke-miterlimit="3.25"/></g><g clip-path="url(#O)"><path d="M25 209.828h470" fill="none" stroke="#666" stroke-opacity=".5" stroke-dasharray="1,2" stroke-miterlimit="3.25"/></g><g clip-path="url(#P)"><path d="M25 152.64h470" fill="none" stroke="#666" stroke-opacity=".5" stroke-dasharray="1,2" stroke-miterlimit="3.25"/></g><g clip-path="url(#Q)"><path d="M25 95.453h470" fill="none" stroke="#666" stroke-opacity=".5" stroke-dasharray="1,2" stroke-miterlimit="3.25"/></g><g clip-path="url(#R)"><path d="M25 38.266h470" fill="none" stroke="#666" stroke-opacity=".5" stroke-dasharray="1,2" stroke-miterlimit="3.25"/></g><path d="M426.23 55.035l11.875-18.012 11.875 2.407 11.872-4.586 11.875-1.88 11.875-2.976" fill="none" stroke-width="1.6" stroke-linecap="square" stroke="#a60000" stroke-opacity=".3" stroke-miterlimit="3.25"/><path d="M426.23 56.375l11.875-21.621 11.875 4.02 11.872-6.532 11.875-1.55 11.875-3.88" fill="none" stroke-width="1.6" stroke-linecap="square" stroke="#0d86a0" stroke-opacity=".3" stroke-miterlimit="3.25"/><path d="M426.23 192.613l11.875-3.136 11.875-.657 11.872-.636 11.875-.621 11.875-.61" fill="none" stroke-width="1.6" stroke-linecap="square" stroke="#c05c20" stroke-opacity=".3" stroke-miterlimit="3.25"/><path d="M426.23 201.473l11.875-.743 11.875-.722 11.872-.7 11.875-.68 11.875-.66" fill="none" stroke-width="1.6" stroke-linecap="square" stroke="#6f42b5" stroke-opacity=".3" stroke-miterlimit="3.25"/><path d="M426.23 192.613l11.875-1.62 11.875-.454 11.872-.75 11.875-.644 11.875-.653" fill="none" stroke-width="1.6" stroke-linecap="square" stroke="#a8364d" stroke-opacity=".3" stroke-miterlimit="3.25"/><path d="M426.23 188.086l11.875-.895 11.875-.714 11.872-.696 11.875-.676 11.875-.66" fill="none" stroke-width="1.6" stroke-linecap="square" stroke="#3664cc" stroke-opacity=".3" stroke-miterlimit="3.25"/><path d="M426.23 196.648l11.875-.742 11.875-.719 11.872-.699 11.875-.68 11.875-.663" fill="none" stroke-width="1.6" stroke-linecap="square" stroke="#c8860a" stroke-opacity=".3" stroke-miterlimit="3.25"/><path d="M426.23 189.14l11.875-.742 11.875-.718 11.872-.7 11.875-.68 11.875-.663" fill="none" stroke-width="1.6" stroke-linecap="square" stroke="#833987" stroke-opacity=".3" stroke-miterlimit="3.25"/><path d="M426.23 207.46l11.875-2.683 11.875-.668 11.872-.648 11.875-.633 11.875-.617" fill="none" stroke-width="1.6" stroke-linecap="square" stroke="#1c8f6b" stroke-opacity=".3" stroke-miterlimit="3.25"/><path d="M426.23 203.313l11.875-.743 11.875-.718 11.872-.7 11.875-.683 11.875-.66" fill="none" stroke-width="1.6" stroke-linecap="square" stroke="#a54f05" stroke-opacity=".3" stroke-miterlimit="3.25"/><path d="M426.23 133.742l11.875 7.047 11.875 13.75 11.872 70.703" fill="none" stroke-width="1.6" stroke-linecap="square" stroke="#6846c7" stroke-opacity=".3" stroke-miterlimit="3.25"/><path d="M93.77 232.586l11.87-35.938 11.876-30.902 11.875-6.934 11.87-4.101 11.876-11.977 11.875 3.2 11.87-16.93 11.876-13.387 11.875-10.879 11.87-2.761 11.876-20.72 11.875 4.813 11.871-4.332L260 78.461 271.875 77l11.871-5.184 11.875-2.191 11.875-3.332 11.871-4.559 11.875 1.262 11.875 4.016 11.871-1.946 11.875 6.125 11.875-3.53 11.871 5.194 11.875 5.196 11.875-50.11 11.871 27.094" fill="none" stroke-width="1.6" stroke-linecap="square" stroke="#a60000" stroke-miterlimit="3.25"/><path d="M93.77 232.586l11.87-35.938 11.876-30.902 11.875-6.613 11.87 1.664 11.876-9.367 11.875 10.425 11.87-10.425 11.876-13.387 11.875-14.523 11.87-3.442L224.38 89.11l11.875 10.672 11.871-5.113L260 90.512l11.875-2.457 11.871-8.817 11.875-2.25 11.875-2.703 11.871-7.379 11.875 1.367 11.875 4.954 11.871-3.707 11.875 6.957 11.875-4.926 11.871 5.508 11.875 6.136 11.875-54.734 11.871 27.914" fill="none" stroke-width="1.6" stroke-linecap="square" stroke="#0d86a0" stroke-miterlimit="3.25"/><path d="M129.39 267.016l11.872-63.704 11.875 1.989 11.875 17.215 11.87-31.114 11.876-4.332 11.875 5.543 11.87-21.746 11.876 3.317 11.875-5.778 11.871-6.906L260 157.57l11.875-10.867 11.871 10.266 11.875 1.527 11.875-9.11 11.871 11.071 11.875-.34h11.875l11.871 6.485 11.875 5.87 11.875 9.255 11.871 4.37 11.875-11.913 11.875 16.062 11.871 2.367" fill="none" stroke-width="1.6" stroke-linecap="square" stroke="#c05c20" stroke-miterlimit="3.25"/><path d="M153.137 267.016l11.875-34.43h11.87l11.876-43.445 11.875-19.778 11.87 3.11 11.876 2.925 11.875 1.274 11.871-15.875 11.875-.68 11.875 1.383 11.871-.355 11.875-.688 11.875-9.957 11.871 5.035 11.875.563 11.875 8.015 11.871-1.527 11.875 5.82 11.875 6.992 11.871 5.54 11.875 1.605 11.875-3.11 11.871 22.04" fill="none" stroke-width="1.6" stroke-linecap="square" stroke="#6f42b5" stroke-miterlimit="3.25"/><path d="M153.137 227.043h11.875l11.87-46.867 11.876 13.71 11.875-19.702 11.87 13.902 11.876-15.613 11.875-24.973 11.871-1.754L260 150.5l11.875 14.012h11.871l11.875-.399 11.875-12.683 11.871 11.53 11.875 2.786 11.875 3.137 11.871 5.3 11.875 10.977 11.875-1.777 11.871 3.687 11.875 14.403h11.875" fill="none" stroke-width="1.6" stroke-linecap="square" stroke="#769003" stroke-miterlimit="3.25"/><path d="M153.137 267.016l11.875-51.645 11.87-15.613 11.876-5.871 11.875-7.79 11.87-4.37 11.876-8.125 11.875-14.79 11.871 8.227 11.875.45 11.875-.887 11.871-6.485 11.875 6.051 11.875-5.371 11.871 1.422 11.875 7.636 11.875-4.937 11.871 16.809 11.875-3.012 11.875-3.93 11.871 5.39 11.875-.741 11.875 10.812 11.871 2.367" fill="none" stroke-width="1.6" stroke-linecap="square" stroke="#a8364d" stroke-miterlimit="3.25"/><path d="M165.012 267.016l11.87-65.543 11.876-13.387 11.875 3.316 11.87 18.426 11.876-31.812 11.875-6.09 11.871-1.059L260 177.332l11.875-12.004 11.871 8.274 11.875-11.383 11.875-1.422 11.871 9.058 11.875-4.937 11.875-4.8 11.871 2.1 11.875 9.708 11.875-2.563 11.871 13.18 11.875.84 11.875 8.02 11.871-3.317" fill="none" stroke-width="1.6" stroke-linecap="square" stroke="#3664cc" stroke-miterlimit="3.25"/><path d="M153.137 249.8l11.875 17.216 11.87-34.43 11.876-25.125 11.875-12.23 11.87 10.07 11.876-17.215 11.875-10.754 11.871-8.926L260 159.133l11.875 12.258h11.871l11.875-5.645 11.875-9.07 11.871 4.12 11.875 8.087 11.875-3.965 11.871 12.414 11.875-3.148 11.875 6.754h11.871l11.875-5.54 11.875 8.856 11.871 12.394" fill="none" stroke-width="1.6" stroke-linecap="square" stroke="#c8860a" stroke-miterlimit="3.25"/><path d="M165.012 267.016l11.87-51.645 11.876-2.926 11.875-9.132 11.87-5.157 11.876-9.015 11.875-5.758 11.871-.84L260 176.027l11.875 3.407h11.871l11.875-.72 11.875-1.382 11.871 2.844 11.875.762 11.875-2.223 11.871 3.012 11.875 1.656 11.875 4.703 11.871 1.055 11.875-4.887 11.875.906 11.871 3.98" fill="none" stroke-width="1.6" stroke-linecap="square" stroke="#833987" stroke-miterlimit="3.25"/><path d="M153.137 227.043l11.875 5.543 11.87-37.356 11.876-12.687 11.875 12.687 11.87-16.515 11.876 11.531 11.875 9.512 11.871-4.528L260 174.785l11.875 6.153 11.871 7.148 11.875-11.414 11.875.66 11.871 6.05 11.875 5.759 11.875 1.105 11.871 9.512 11.875-7.145 11.875-2.367 11.871 4.984 11.875-1.343 11.875 9.425 11.871 4.149" fill="none" stroke-width="1.6" stroke-linecap="square" stroke="#1c8f6b" stroke-miterlimit="3.25"/><path d="M153.137 267.016l11.875-39.973 11.87 12.687 11.876-34.43 11.875-10.07 11.87-7.144h11.876l11.875-8.652 11.871 8.652 11.875-7.91 11.875 7.91 11.871 1.055 11.875 2.261 11.875-3.316 11.871-3.832 11.875-11.781 11.875 5.543 11.871 6.238h11.875l11.875 3.832 11.871-2.926 11.875 22.3 11.875 4.985 11.871-9.132" fill="none" stroke-width="1.6" stroke-linecap="square" stroke="#a54f05" stroke-miterlimit="3.25"/><path d="M129.39 267.016l11.872-74.403 11.875-19.582 11.875-11.531 11.87-24.004 11.876-9.707 11.875-6.406 11.87-4.149 11.876-2.441 11.875-6.777 11.871-3.883L260 102.367l11.875.031 11.871 3.149 11.875-2.14 11.875-4.81 11.871 4.434 11.875.996 11.875 1.004 11.871 4.164 11.875 3.176 11.875 3.36 11.871 3.687 11.875.195 11.875 5.086 11.871 9.043" fill="none" stroke-width="1.6" stroke-linecap="square" stroke="#6846c7" stroke-miterlimit="3.25"/><path d="M427.723 55A1.72 1.72 0 00426 53.277 1.72 1.72 0 00424.277 55 1.72 1.72 0 00426 56.723 1.72 1.72 0 00427.723 55zm12-18A1.72 1.72 0 00438 35.277 1.72 1.72 0 00436.277 37 1.72 1.72 0 00438 38.723 1.72 1.72 0 00439.723 37zm12 2A1.72 1.72 0 00450 37.277 1.72 1.72 0 00448.277 39 1.72 1.72 0 00450 40.723 1.72 1.72 0 00451.723 39zm12-4A1.72 1.72 0 00462 33.277 1.72 1.72 0 00460.277 35 1.72 1.72 0 00462 36.723 1.72 1.72 0 00463.723 35zm12-2A1.72 1.72 0 00474 31.277 1.72 1.72 0 00472.277 33 1.72 1.72 0 00474 34.723 1.72 1.72 0 00475.723 33zm12-3A1.72 1.72 0 00486 28.277 1.72 1.72 0 00484.277 30 1.72 1.72 0 00486 31.723 1.72 1.72 0 00487.723 30zm0 0" fill-rule="evenodd" fill="#a60000" fill-opacity=".3"/><path d="M427.723 56A1.72 1.72 0 00426 54.277 1.72 1.72 0 00424.277 56 1.72 1.72 0 00426 57.723 1.72 1.72 0 00427.723 56zm12-21A1.72 1.72 0 00438 33.277 1.72 1.72 0 00436.277 35 1.72 1.72 0 00438 36.723 1.72 1.72 0 00439.723 35zm12 4A1.72 1.72 0 00450 37.277 1.72 1.72 0 00448.277 39 1.72 1.72 0 00450 40.723 1.72 1.72 0 00451.723 39zm12-7A1.72 1.72 0 00462 30.277 1.72 1.72 0 00460.277 32 1.72 1.72 0 00462 33.723 1.72 1.72 0 00463.723 32zm12-1A1.72 1.72 0 00474 29.277 1.72 1.72 0 00472.277 31 1.72 1.72 0 00474 32.723 1.72 1.72 0 00475.723 31zm12-4A1.72 1.72 0 00486 25.277 1.72 1.72 0 00484.277 27 1.72 1.72 0 00486 28.723 1.72 1.72 0 00487.723 27zm0 0" fill-rule="evenodd" fill="#0d86a0" fill-opacity=".3"/><path d="M427.723 193a1.72 1.72 0 00-1.723-1.723 1.72 1.72 0 00-1.723 1.723 1.72 1.72 0 001.723 1.723 1.72 1.72 0 001.723-1.723zm12-4a1.72 1.72 0 00-1.723-1.723 1.72 1.72 0 00-1.723 1.723 1.72 1.72 0 001.723 1.723 1.72 1.72 0 001.723-1.723zm12 0a1.72 1.72 0 00-1.723-1.723 1.72 1.72 0 00-1.723 1.723 1.72 1.72 0 001.723 1.723 1.72 1.72 0 001.723-1.723zm12-1a1.72 1.72 0 00-1.723-1.723 1.72 1.72 0 00-1.723 1.723 1.72 1.72 0 001.723 1.723 1.72 1.72 0 001.723-1.723zm12 0a1.72 1.72 0 00-1.723-1.723 1.72 1.72 0 00-1.723 1.723 1.72 1.72 0 001.723 1.723 1.72 1.72 0 001.723-1.723zm12-1a1.72 1.72 0 00-1.723-1.723 1.72 1.72 0 00-1.723 1.723 1.72 1.72 0 001.723 1.723 1.72 1.72 0 001.723-1.723zm0 0" fill-rule="evenodd" fill="#c05c20" fill-opacity=".3"/><path d="M427.723 201a1.72 1.72 0 00-1.723-1.723 1.72 1.72 0 00-1.723 1.723 1.72 1.72 0 001.723 1.723 1.72 1.72 0 001.723-1.723zm12 0a1.72 1.72 0 00-1.723-1.723 1.72 1.72 0 00-1.723 1.723 1.72 1.72 0 001.723 1.723 1.72 1.72 0 001.723-1.723zm12-1a1.72 1.72 0 00-1.723-1.723 1.72 1.72 0 00-1.723 1.723 1.72 1.72 0 001.723 1.723 1.72 1.72 0 001.723-1.723zm12-1a1.72 1.72 0 00-1.723-1.723 1.72 1.72 0 00-1.723 1.723 1.72 1.72 0 001.723 1.723 1.72 1.72 0 001.723-1.723zm12 0a1.72 1.72 0 00-1.723-1.723 1.72 1.72 0 00-1.723 1.723 1.72 1.72 0 001.723 1.723 1.72 1.72 0 001.723-1.723zm12-1a1.72 1.72 0 00-1.723-1.723 1.72 1.72 0 00-1.723 1.723 1.72 1.72 0 001.723 1.723 1.72 1.72 0 001.723-1.723zm0 0" fill-rule="evenodd" fill="#6f42b5" fill-opacity=".3"/><path d="M427.723 193a1.72 1.72 0 00-1.723-1.723 1.72 1.72 0 00-1.723 1.723 1.72 1.72 0 001.723 1.723 1.72 1.72 0 001.723-1.723zm12-2a1.72 1.72 0 00-1.723-1.723 1.72 1.72 0 00-1.723 1.723 1.72 1.72 0 001.723 1.723 1.72 1.72 0 001.723-1.723zm12 0a1.72 1.72 0 00-1.723-1.723 1.72 1.72 0 00-1.723 1.723 1.72 1.72 0 001.723 1.723 1.72 1.72 0 001.723-1.723zm12-1a1.72 1.72 0 00-1.723-1.723 1.72 1.72 0 00-1.723 1.723 1.72 1.72 0 001.723 1.723 1.72 1.72 0 001.723-1.723zm12-1a1.72 1.72 0 00-1.723-1.723 1.72 1.72 0 00-1.723 1.723 1.72 1.72 0 001.723 1.723 1.72 1.72 0 001.723-1.723zm12-1a1.72 1.72 0 00-1.723-1.723 1.72 1.72 0 00-1.723 1.723 1.72 1.72 0 001.723 1.723 1.72 1.72 0 001.723-1.723zm0 0" fill-rule="evenodd" fill="#a8364d" fill-opacity=".3"/><path d="M427.723 188a1.72 1.72 0 00-1.723-1.723 1.72 1.72 0 00-1.723 1.723 1.72 1.72 0 001.723 1.723 1.72 1.72 0 001.723-1.723zm12-1a1.72 1.72 0 00-1.723-1.723 1.72 1.72 0 00-1.723 1.723 1.72 1.72 0 001.723 1.723 1.72 1.72 0 001.723-1.723zm12-1a1.72 1.72 0 00-1.723-1.723 1.72 1.72 0 00-1.723 1.723 1.72 1.72 0 001.723 1.723 1.72 1.72 0 001.723-1.723zm12 0a1.72 1.72 0 00-1.723-1.723 1.72 1.72 0 00-1.723 1.723 1.72 1.72 0 001.723 1.723 1.72 1.72 0 001.723-1.723zm12-1a1.72 1.72 0 00-1.723-1.723 1.72 1.72 0 00-1.723 1.723 1.72 1.72 0 001.723 1.723 1.72 1.72 0 001.723-1.723zm12-1a1.72 1.72 0 00-1.723-1.723 1.72 1.72 0 00-1.723 1.723 1.72 1.72 0 001.723 1.723 1.72 1.72 0 001.723-1.723zm0 0" fill-rule="evenodd" fill="#3664cc" fill-opacity=".3"/><path d="M427.723 197a1.72 1.72 0 00-1.723-1.723 1.72 1.72 0 00-1.723 1.723 1.72 1.72 0 001.723 1.723 1.72 1.72 0 001.723-1.723zm12-1a1.72 1.72 0 00-1.723-1.723 1.72 1.72 0 00-1.723 1.723 1.72 1.72 0 001.723 1.723 1.72 1.72 0 001.723-1.723zm12-1a1.72 1.72 0 00-1.723-1.723 1.72 1.72 0 00-1.723 1.723 1.72 1.72 0 001.723 1.723 1.72 1.72 0 001.723-1.723zm12-1a1.72 1.72 0 00-1.723-1.723 1.72 1.72 0 00-1.723 1.723 1.72 1.72 0 001.723 1.723 1.72 1.72 0 001.723-1.723zm12 0a1.72 1.72 0 00-1.723-1.723 1.72 1.72 0 00-1.723 1.723 1.72 1.72 0 001.723 1.723 1.72 1.72 0 001.723-1.723zm12-1a1.72 1.72 0 00-1.723-1.723 1.72 1.72 0 00-1.723 1.723 1.72 1.72 0 001.723 1.723 1.72 1.72 0 001.723-1.723zm0 0" fill-rule="evenodd" fill="#c8860a" fill-opacity=".3"/><path d="M427.723 189a1.72 1.72 0 00-1.723-1.723 1.72 1.72 0 00-1.723 1.723 1.72 1.72 0 001.723 1.723 1.72 1.72 0 001.723-1.723zm12-1a1.72 1.72 0 00-1.723-1.723 1.72 1.72 0 00-1.723 1.723 1.72 1.72 0 001.723 1.723 1.72 1.72 0 001.723-1.723zm12 0a1.72 1.72 0 00-1.723-1.723 1.72 1.72 0 00-1.723 1.723 1.72 1.72 0 001.723 1.723 1.72 1.72 0 001.723-1.723zm12-1a1.72 1.72 0 00-1.723-1.723 1.72 1.72 0 00-1.723 1.723 1.72 1.72 0 001.723 1.723 1.72 1.72 0 001.723-1.723zm12-1a1.72 1.72 0 00-1.723-1.723 1.72 1.72 0 00-1.723 1.723 1.72 1.72 0 001.723 1.723 1.72 1.72 0 001.723-1.723zm12 0a1.72 1.72 0 00-1.723-1.723 1.72 1.72 0 00-1.723 1.723 1.72 1.72 0 001.723 1.723 1.72 1.72 0 001.723-1.723zm0 0" fill-rule="evenodd" fill="#833987" fill-opacity=".3"/><path d="M427.723 207a1.72 1.72 0 00-1.723-1.723 1.72 1.72 0 00-1.723 1.723 1.72 1.72 0 001.723 1.723 1.72 1.72 0 001.723-1.723zm12-2a1.72 1.72 0 00-1.723-1.723 1.72 1.72 0 00-1.723 1.723 1.72 1.72 0 001.723 1.723 1.72 1.72 0 001.723-1.723zm12-1a1.72 1.72 0 00-1.723-1.723 1.72 1.72 0 00-1.723 1.723 1.72 1.72 0 001.723 1.723 1.72 1.72 0 001.723-1.723zm12-1a1.72 1.72 0 00-1.723-1.723 1.72 1.72 0 00-1.723 1.723 1.72 1.72 0 001.723 1.723 1.72 1.72 0 001.723-1.723zm12 0a1.72 1.72 0 00-1.723-1.723 1.72 1.72 0 00-1.723 1.723 1.72 1.72 0 001.723 1.723 1.72 1.72 0 001.723-1.723zm12-1a1.72 1.72 0 00-1.723-1.723 1.72 1.72 0 00-1.723 1.723 1.72 1.72 0 001.723 1.723 1.72 1.72 0 001.723-1.723zm0 0" fill-rule="evenodd" fill="#1c8f6b" fill-opacity=".3"/><path d="M427.723 203a1.72 1.72 0 00-1.723-1.723 1.72 1.72 0 00-1.723 1.723 1.72 1.72 0 001.723 1.723 1.72 1.72 0 001.723-1.723zm12 0a1.72 1.72 0 00-1.723-1.723 1.72 1.72 0 00-1.723 1.723 1.72 1.72 0 001.723 1.723 1.72 1.72 0 001.723-1.723zm12-1a1.72 1.72 0 00-1.723-1.723 1.72 1.72 0 00-1.723 1.723 1.72 1.72 0 001.723 1.723 1.72 1.72 0 001.723-1.723zm12-1a1.72 1.72 0 00-1.723-1.723 1.72 1.72 0 00-1.723 1.723 1.72 1.72 0 001.723 1.723 1.72 1.72 0 001.723-1.723zm12-1a1.72 1.72 0 00-1.723-1.723 1.72 1.72 0 00-1.723 1.723 1.72 1.72 0 001.723 1.723 1.72 1.72 0 001.723-1.723zm12 0a1.72 1.72 0 00-1.723-1.723 1.72 1.72 0 00-1.723 1.723 1.72 1.72 0 001.723 1.723 1.72 1.72 0 001.723-1.723zm0 0" fill-rule="evenodd" fill="#a54f05" fill-opacity=".3"/><path d="M427.723 134a1.72 1.72 0 00-1.723-1.723 1.72 1.72 0 00-1.723 1.723 1.72 1.72 0 001.723 1.723 1.72 1.72 0 001.723-1.723zm12 7a1.72 1.72 0 00-1.723-1.723 1.72 1.72 0 00-1.723 1.723 1.72 1.72 0 001.723 1.723 1.72 1.72 0 001.723-1.723zm12 14a1.72 1.72 0 00-1.723-1.723 1.72 1.72 0 00-1.723 1.723 1.72 1.72 0 001.723 1.723 1.72 1.72 0 001.723-1.723zm12 70a1.72 1.72 0 00-1.723-1.723 1.72 1.72 0 00-1.723 1.723 1.72 1.72 0 001.723 1.723 1.72 1.72 0 001.723-1.723zm0 0" fill-rule="evenodd" fill="#6846c7" fill-opacity=".3"/><path d="M35.723 175A1.72 1.72 0 0034 173.277 1.72 1.72 0 0032.277 175 1.72 1.72 0 0034 176.723 1.72 1.72 0 0035.723 175zm60 58A1.72 1.72 0 0094 231.277 1.72 1.72 0 0092.277 233 1.72 1.72 0 0094 234.723 1.72 1.72 0 0095.723 233zm12-36a1.72 1.72 0 00-1.723-1.723 1.72 1.72 0 00-1.723 1.723 1.72 1.72 0 001.723 1.723 1.72 1.72 0 001.723-1.723zm12-31a1.72 1.72 0 00-1.723-1.723 1.72 1.72 0 00-1.723 1.723 1.72 1.72 0 001.723 1.723 1.72 1.72 0 001.723-1.723zm11-7a1.72 1.72 0 00-1.723-1.723 1.72 1.72 0 00-1.723 1.723 1.72 1.72 0 001.723 1.723 1.72 1.72 0 001.723-1.723zm12-4a1.72 1.72 0 00-1.723-1.723 1.72 1.72 0 00-1.723 1.723 1.72 1.72 0 001.723 1.723 1.72 1.72 0 001.723-1.723zm12-12a1.72 1.72 0 00-1.723-1.723 1.72 1.72 0 00-1.723 1.723 1.72 1.72 0 001.723 1.723 1.72 1.72 0 001.723-1.723zm12 3a1.72 1.72 0 00-1.723-1.723 1.72 1.72 0 00-1.723 1.723 1.72 1.72 0 001.723 1.723 1.72 1.72 0 001.723-1.723zm12-17a1.72 1.72 0 00-1.723-1.723 1.72 1.72 0 00-1.723 1.723 1.72 1.72 0 001.723 1.723 1.72 1.72 0 001.723-1.723zm12-13a1.72 1.72 0 00-1.723-1.723 1.72 1.72 0 00-1.723 1.723 1.72 1.72 0 001.723 1.723 1.72 1.72 0 001.723-1.723zm12-11a1.72 1.72 0 00-1.723-1.723 1.72 1.72 0 00-1.723 1.723 1.72 1.72 0 001.723 1.723 1.72 1.72 0 001.723-1.723zm12-3a1.72 1.72 0 00-1.723-1.723 1.72 1.72 0 00-1.723 1.723 1.72 1.72 0 001.723 1.723 1.72 1.72 0 001.723-1.723zm11-21A1.72 1.72 0 00224 79.277 1.72 1.72 0 00222.277 81 1.72 1.72 0 00224 82.723 1.72 1.72 0 00225.723 81zm12 5A1.72 1.72 0 00236 84.277 1.72 1.72 0 00234.277 86 1.72 1.72 0 00236 87.723 1.72 1.72 0 00237.723 86zm12-4A1.72 1.72 0 00248 80.277 1.72 1.72 0 00246.277 82 1.72 1.72 0 00248 83.723 1.72 1.72 0 00249.723 82zm12-4A1.72 1.72 0 00260 76.277 1.72 1.72 0 00258.277 78 1.72 1.72 0 00260 79.723 1.72 1.72 0 00261.723 78zm12-1A1.72 1.72 0 00272 75.277 1.72 1.72 0 00270.277 77 1.72 1.72 0 00272 78.723 1.72 1.72 0 00273.723 77zm12-5A1.72 1.72 0 00284 70.277 1.72 1.72 0 00282.277 72 1.72 1.72 0 00284 73.723 1.72 1.72 0 00285.723 72zm12-2A1.72 1.72 0 00296 68.277 1.72 1.72 0 00294.277 70 1.72 1.72 0 00296 71.723 1.72 1.72 0 00297.723 70zm11-4A1.72 1.72 0 00307 64.277 1.72 1.72 0 00305.277 66 1.72 1.72 0 00307 67.723 1.72 1.72 0 00308.723 66zm12-4A1.72 1.72 0 00319 60.277 1.72 1.72 0 00317.277 62 1.72 1.72 0 00319 63.723 1.72 1.72 0 00320.723 62zm12 1A1.72 1.72 0 00331 61.277 1.72 1.72 0 00329.277 63 1.72 1.72 0 00331 64.723 1.72 1.72 0 00332.723 63zm12 4A1.72 1.72 0 00343 65.277 1.72 1.72 0 00341.277 67 1.72 1.72 0 00343 68.723 1.72 1.72 0 00344.723 67zm12-2A1.72 1.72 0 00355 63.277 1.72 1.72 0 00353.277 65 1.72 1.72 0 00355 66.723 1.72 1.72 0 00356.723 65zm12 6A1.72 1.72 0 00367 69.277 1.72 1.72 0 00365.277 71 1.72 1.72 0 00367 72.723 1.72 1.72 0 00368.723 71zm12-3A1.72 1.72 0 00379 66.277 1.72 1.72 0 00377.277 68 1.72 1.72 0 00379 69.723 1.72 1.72 0 00380.723 68zm12 5A1.72 1.72 0 00391 71.277 1.72 1.72 0 00389.277 73 1.72 1.72 0 00391 74.723 1.72 1.72 0 00392.723 73zm11 5A1.72 1.72 0 00402 76.277 1.72 1.72 0 00400.277 78 1.72 1.72 0 00402 79.723 1.72 1.72 0 00403.723 78zm12-50A1.72 1.72 0 00414 26.277 1.72 1.72 0 00412.277 28 1.72 1.72 0 00414 29.723 1.72 1.72 0 00415.723 28zm12 27A1.72 1.72 0 00426 53.277 1.72 1.72 0 00424.277 55 1.72 1.72 0 00426 56.723 1.72 1.72 0 00427.723 55zm0 0" fill-rule="evenodd" fill="#a60000"/><path d="M35.723 175A1.72 1.72 0 0034 173.277 1.72 1.72 0 0032.277 175 1.72 1.72 0 0034 176.723 1.72 1.72 0 0035.723 175zm60 58A1.72 1.72 0 0094 231.277 1.72 1.72 0 0092.277 233 1.72 1.72 0 0094 234.723 1.72 1.72 0 0095.723 233zm12-36a1.72 1.72 0 00-1.723-1.723 1.72 1.72 0 00-1.723 1.723 1.72 1.72 0 001.723 1.723 1.72 1.72 0 001.723-1.723zm12-31a1.72 1.72 0 00-1.723-1.723 1.72 1.72 0 00-1.723 1.723 1.72 1.72 0 001.723 1.723 1.72 1.72 0 001.723-1.723zm11-7a1.72 1.72 0 00-1.723-1.723 1.72 1.72 0 00-1.723 1.723 1.72 1.72 0 001.723 1.723 1.72 1.72 0 001.723-1.723zm12 2a1.72 1.72 0 00-1.723-1.723 1.72 1.72 0 00-1.723 1.723 1.72 1.72 0 001.723 1.723 1.72 1.72 0 001.723-1.723zm12-10a1.72 1.72 0 00-1.723-1.723 1.72 1.72 0 00-1.723 1.723 1.72 1.72 0 001.723 1.723 1.72 1.72 0 001.723-1.723zm12 11a1.72 1.72 0 00-1.723-1.723 1.72 1.72 0 00-1.723 1.723 1.72 1.72 0 001.723 1.723 1.72 1.72 0 001.723-1.723zm12-11a1.72 1.72 0 00-1.723-1.723 1.72 1.72 0 00-1.723 1.723 1.72 1.72 0 001.723 1.723 1.72 1.72 0 001.723-1.723zm12-13a1.72 1.72 0 00-1.723-1.723 1.72 1.72 0 00-1.723 1.723 1.72 1.72 0 001.723 1.723 1.72 1.72 0 001.723-1.723zm12-14a1.72 1.72 0 00-1.723-1.723 1.72 1.72 0 00-1.723 1.723 1.72 1.72 0 001.723 1.723 1.72 1.72 0 001.723-1.723zm12-4a1.72 1.72 0 00-1.723-1.723 1.72 1.72 0 00-1.723 1.723 1.72 1.72 0 001.723 1.723 1.72 1.72 0 001.723-1.723zm11-31A1.72 1.72 0 00224 87.277 1.72 1.72 0 00222.277 89 1.72 1.72 0 00224 90.723 1.72 1.72 0 00225.723 89zm12 11A1.72 1.72 0 00236 98.277a1.72 1.72 0 00-1.723 1.723 1.72 1.72 0 001.723 1.723 1.72 1.72 0 001.723-1.723zm12-5A1.72 1.72 0 00248 93.277 1.72 1.72 0 00246.277 95 1.72 1.72 0 00248 96.723 1.72 1.72 0 00249.723 95zm12-4A1.72 1.72 0 00260 89.277 1.72 1.72 0 00258.277 91 1.72 1.72 0 00260 92.723 1.72 1.72 0 00261.723 91zm12-3A1.72 1.72 0 00272 86.277 1.72 1.72 0 00270.277 88 1.72 1.72 0 00272 89.723 1.72 1.72 0 00273.723 88zm12-9A1.72 1.72 0 00284 77.277 1.72 1.72 0 00282.277 79 1.72 1.72 0 00284 80.723 1.72 1.72 0 00285.723 79zm12-2A1.72 1.72 0 00296 75.277 1.72 1.72 0 00294.277 77 1.72 1.72 0 00296 78.723 1.72 1.72 0 00297.723 77zm11-3A1.72 1.72 0 00307 72.277 1.72 1.72 0 00305.277 74 1.72 1.72 0 00307 75.723 1.72 1.72 0 00308.723 74zm12-7A1.72 1.72 0 00319 65.277 1.72 1.72 0 00317.277 67 1.72 1.72 0 00319 68.723 1.72 1.72 0 00320.723 67zm12 1A1.72 1.72 0 00331 66.277 1.72 1.72 0 00329.277 68 1.72 1.72 0 00331 69.723 1.72 1.72 0 00332.723 68zm12 5A1.72 1.72 0 00343 71.277 1.72 1.72 0 00341.277 73 1.72 1.72 0 00343 74.723 1.72 1.72 0 00344.723 73zm12-3A1.72 1.72 0 00355 68.277 1.72 1.72 0 00353.277 70 1.72 1.72 0 00355 71.723 1.72 1.72 0 00356.723 70zm12 6A1.72 1.72 0 00367 74.277 1.72 1.72 0 00365.277 76 1.72 1.72 0 00367 77.723 1.72 1.72 0 00368.723 76zm12-4A1.72 1.72 0 00379 70.277 1.72 1.72 0 00377.277 72 1.72 1.72 0 00379 73.723 1.72 1.72 0 00380.723 72zm12 5A1.72 1.72 0 00391 75.277 1.72 1.72 0 00389.277 77 1.72 1.72 0 00391 78.723 1.72 1.72 0 00392.723 77zm11 6A1.72 1.72 0 00402 81.277 1.72 1.72 0 00400.277 83 1.72 1.72 0 00402 84.723 1.72 1.72 0 00403.723 83zm12-55A1.72 1.72 0 00414 26.277 1.72 1.72 0 00412.277 28 1.72 1.72 0 00414 29.723 1.72 1.72 0 00415.723 28zm12 28A1.72 1.72 0 00426 54.277 1.72 1.72 0 00424.277 56 1.72 1.72 0 00426 57.723 1.72 1.72 0 00427.723 56zm0 0" fill-rule="evenodd" fill="#0d86a0"/><path d="M130.723 267a1.72 1.72 0 00-1.723-1.723 1.72 1.72 0 00-1.723 1.723 1.72 1.72 0 001.723 1.723 1.72 1.72 0 001.723-1.723zm12-64a1.72 1.72 0 00-1.723-1.723 1.72 1.72 0 00-1.723 1.723 1.72 1.72 0 001.723 1.723 1.72 1.72 0 001.723-1.723zm12 2a1.72 1.72 0 00-1.723-1.723 1.72 1.72 0 00-1.723 1.723 1.72 1.72 0 001.723 1.723 1.72 1.72 0 001.723-1.723zm12 18a1.72 1.72 0 00-1.723-1.723 1.72 1.72 0 00-1.723 1.723 1.72 1.72 0 001.723 1.723 1.72 1.72 0 001.723-1.723zm12-32a1.72 1.72 0 00-1.723-1.723 1.72 1.72 0 00-1.723 1.723 1.72 1.72 0 001.723 1.723 1.72 1.72 0 001.723-1.723zm12-4a1.72 1.72 0 00-1.723-1.723 1.72 1.72 0 00-1.723 1.723 1.72 1.72 0 001.723 1.723 1.72 1.72 0 001.723-1.723zm12 6a1.72 1.72 0 00-1.723-1.723 1.72 1.72 0 00-1.723 1.723 1.72 1.72 0 001.723 1.723 1.72 1.72 0 001.723-1.723zm12-22a1.72 1.72 0 00-1.723-1.723 1.72 1.72 0 00-1.723 1.723 1.72 1.72 0 001.723 1.723 1.72 1.72 0 001.723-1.723zm11 3a1.72 1.72 0 00-1.723-1.723 1.72 1.72 0 00-1.723 1.723 1.72 1.72 0 001.723 1.723 1.72 1.72 0 001.723-1.723zm12-6a1.72 1.72 0 00-1.723-1.723 1.72 1.72 0 00-1.723 1.723 1.72 1.72 0 001.723 1.723 1.72 1.72 0 001.723-1.723zm12-7a1.72 1.72 0 00-1.723-1.723 1.72 1.72 0 00-1.723 1.723 1.72 1.72 0 001.723 1.723 1.72 1.72 0 001.723-1.723zm12-3a1.72 1.72 0 00-1.723-1.723 1.72 1.72 0 00-1.723 1.723 1.72 1.72 0 001.723 1.723 1.72 1.72 0 001.723-1.723zm12-11a1.72 1.72 0 00-1.723-1.723 1.72 1.72 0 00-1.723 1.723 1.72 1.72 0 001.723 1.723 1.72 1.72 0 001.723-1.723zm12 10a1.72 1.72 0 00-1.723-1.723 1.72 1.72 0 00-1.723 1.723 1.72 1.72 0 001.723 1.723 1.72 1.72 0 001.723-1.723zm12 1a1.72 1.72 0 00-1.723-1.723 1.72 1.72 0 00-1.723 1.723 1.72 1.72 0 001.723 1.723 1.72 1.72 0 001.723-1.723zm11-9a1.72 1.72 0 00-1.723-1.723 1.72 1.72 0 00-1.723 1.723 1.72 1.72 0 001.723 1.723 1.72 1.72 0 001.723-1.723zm12 11a1.72 1.72 0 00-1.723-1.723 1.72 1.72 0 00-1.723 1.723 1.72 1.72 0 001.723 1.723 1.72 1.72 0 001.723-1.723zm12 0a1.72 1.72 0 00-1.723-1.723 1.72 1.72 0 00-1.723 1.723 1.72 1.72 0 001.723 1.723 1.72 1.72 0 001.723-1.723zm12 0a1.72 1.72 0 00-1.723-1.723 1.72 1.72 0 00-1.723 1.723 1.72 1.72 0 001.723 1.723 1.72 1.72 0 001.723-1.723zm12 7a1.72 1.72 0 00-1.723-1.723 1.72 1.72 0 00-1.723 1.723 1.72 1.72 0 001.723 1.723 1.72 1.72 0 001.723-1.723zm12 5a1.72 1.72 0 00-1.723-1.723 1.72 1.72 0 00-1.723 1.723 1.72 1.72 0 001.723 1.723 1.72 1.72 0 001.723-1.723zm12 10a1.72 1.72 0 00-1.723-1.723 1.72 1.72 0 00-1.723 1.723 1.72 1.72 0 001.723 1.723 1.72 1.72 0 001.723-1.723zm12 4a1.72 1.72 0 00-1.723-1.723 1.72 1.72 0 00-1.723 1.723 1.72 1.72 0 001.723 1.723 1.72 1.72 0 001.723-1.723zm11-12a1.72 1.72 0 00-1.723-1.723 1.72 1.72 0 00-1.723 1.723 1.72 1.72 0 001.723 1.723 1.72 1.72 0 001.723-1.723zm12 16a1.72 1.72 0 00-1.723-1.723 1.72 1.72 0 00-1.723 1.723 1.72 1.72 0 001.723 1.723 1.72 1.72 0 001.723-1.723zm12 3a1.72 1.72 0 00-1.723-1.723 1.72 1.72 0 00-1.723 1.723 1.72 1.72 0 001.723 1.723 1.72 1.72 0 001.723-1.723zm0 0" fill-rule="evenodd" fill="#c05c20"/><path d="M154.723 267a1.72 1.72 0 00-1.723-1.723 1.72 1.72 0 00-1.723 1.723 1.72 1.72 0 001.723 1.723 1.72 1.72 0 001.723-1.723zm12-34a1.72 1.72 0 00-1.723-1.723 1.72 1.72 0 00-1.723 1.723 1.72 1.72 0 001.723 1.723 1.72 1.72 0 001.723-1.723zm12 0a1.72 1.72 0 00-1.723-1.723 1.72 1.72 0 00-1.723 1.723 1.72 1.72 0 001.723 1.723 1.72 1.72 0 001.723-1.723zm12-44a1.72 1.72 0 00-1.723-1.723 1.72 1.72 0 00-1.723 1.723 1.72 1.72 0 001.723 1.723 1.72 1.72 0 001.723-1.723zm12-20a1.72 1.72 0 00-1.723-1.723 1.72 1.72 0 00-1.723 1.723 1.72 1.72 0 001.723 1.723 1.72 1.72 0 001.723-1.723zm12 3a1.72 1.72 0 00-1.723-1.723 1.72 1.72 0 00-1.723 1.723 1.72 1.72 0 001.723 1.723 1.72 1.72 0 001.723-1.723zm11 3a1.72 1.72 0 00-1.723-1.723 1.72 1.72 0 00-1.723 1.723 1.72 1.72 0 001.723 1.723 1.72 1.72 0 001.723-1.723zm12 2a1.72 1.72 0 00-1.723-1.723 1.72 1.72 0 00-1.723 1.723 1.72 1.72 0 001.723 1.723 1.72 1.72 0 001.723-1.723zm12-16a1.72 1.72 0 00-1.723-1.723 1.72 1.72 0 00-1.723 1.723 1.72 1.72 0 001.723 1.723 1.72 1.72 0 001.723-1.723zm12-1a1.72 1.72 0 00-1.723-1.723 1.72 1.72 0 00-1.723 1.723 1.72 1.72 0 001.723 1.723 1.72 1.72 0 001.723-1.723zm12 1a1.72 1.72 0 00-1.723-1.723 1.72 1.72 0 00-1.723 1.723 1.72 1.72 0 001.723 1.723 1.72 1.72 0 001.723-1.723zm12 0a1.72 1.72 0 00-1.723-1.723 1.72 1.72 0 00-1.723 1.723 1.72 1.72 0 001.723 1.723 1.72 1.72 0 001.723-1.723zm12-1a1.72 1.72 0 00-1.723-1.723 1.72 1.72 0 00-1.723 1.723 1.72 1.72 0 001.723 1.723 1.72 1.72 0 001.723-1.723zm11-10a1.72 1.72 0 00-1.723-1.723 1.72 1.72 0 00-1.723 1.723 1.72 1.72 0 001.723 1.723 1.72 1.72 0 001.723-1.723zm12 6a1.72 1.72 0 00-1.723-1.723 1.72 1.72 0 00-1.723 1.723 1.72 1.72 0 001.723 1.723 1.72 1.72 0 001.723-1.723zm12 0a1.72 1.72 0 00-1.723-1.723 1.72 1.72 0 00-1.723 1.723 1.72 1.72 0 001.723 1.723 1.72 1.72 0 001.723-1.723zm12 8a1.72 1.72 0 00-1.723-1.723 1.72 1.72 0 00-1.723 1.723 1.72 1.72 0 001.723 1.723 1.72 1.72 0 001.723-1.723zm12-1a1.72 1.72 0 00-1.723-1.723 1.72 1.72 0 00-1.723 1.723 1.72 1.72 0 001.723 1.723 1.72 1.72 0 001.723-1.723zm12 5a1.72 1.72 0 00-1.723-1.723 1.72 1.72 0 00-1.723 1.723 1.72 1.72 0 001.723 1.723 1.72 1.72 0 001.723-1.723zm12 7a1.72 1.72 0 00-1.723-1.723 1.72 1.72 0 00-1.723 1.723 1.72 1.72 0 001.723 1.723 1.72 1.72 0 001.723-1.723zm12 6a1.72 1.72 0 00-1.723-1.723 1.72 1.72 0 00-1.723 1.723 1.72 1.72 0 001.723 1.723 1.72 1.72 0 001.723-1.723zm11 2a1.72 1.72 0 00-1.723-1.723 1.72 1.72 0 00-1.723 1.723 1.72 1.72 0 001.723 1.723 1.72 1.72 0 001.723-1.723zm12-4a1.72 1.72 0 00-1.723-1.723 1.72 1.72 0 00-1.723 1.723 1.72 1.72 0 001.723 1.723 1.72 1.72 0 001.723-1.723zm12 22a1.72 1.72 0 00-1.723-1.723 1.72 1.72 0 00-1.723 1.723 1.72 1.72 0 001.723 1.723 1.72 1.72 0 001.723-1.723zm0 0" fill-rule="evenodd" fill="#6f42b5"/><path d="M154.723 227a1.72 1.72 0 00-1.723-1.723 1.72 1.72 0 00-1.723 1.723 1.72 1.72 0 001.723 1.723 1.72 1.72 0 001.723-1.723zm12 0a1.72 1.72 0 00-1.723-1.723 1.72 1.72 0 00-1.723 1.723 1.72 1.72 0 001.723 1.723 1.72 1.72 0 001.723-1.723zm12-47a1.72 1.72 0 00-1.723-1.723 1.72 1.72 0 00-1.723 1.723 1.72 1.72 0 001.723 1.723 1.72 1.72 0 001.723-1.723zm12 14a1.72 1.72 0 00-1.723-1.723 1.72 1.72 0 00-1.723 1.723 1.72 1.72 0 001.723 1.723 1.72 1.72 0 001.723-1.723zm12-20a1.72 1.72 0 00-1.723-1.723 1.72 1.72 0 00-1.723 1.723 1.72 1.72 0 001.723 1.723 1.72 1.72 0 001.723-1.723zm12 14a1.72 1.72 0 00-1.723-1.723 1.72 1.72 0 00-1.723 1.723 1.72 1.72 0 001.723 1.723 1.72 1.72 0 001.723-1.723zm11-16a1.72 1.72 0 00-1.723-1.723 1.72 1.72 0 00-1.723 1.723 1.72 1.72 0 001.723 1.723 1.72 1.72 0 001.723-1.723zm12-25a1.72 1.72 0 00-1.723-1.723 1.72 1.72 0 00-1.723 1.723 1.72 1.72 0 001.723 1.723 1.72 1.72 0 001.723-1.723zm12-1a1.72 1.72 0 00-1.723-1.723 1.72 1.72 0 00-1.723 1.723 1.72 1.72 0 001.723 1.723 1.72 1.72 0 001.723-1.723zm12 4a1.72 1.72 0 00-1.723-1.723 1.72 1.72 0 00-1.723 1.723 1.72 1.72 0 001.723 1.723 1.72 1.72 0 001.723-1.723zm12 15a1.72 1.72 0 00-1.723-1.723 1.72 1.72 0 00-1.723 1.723 1.72 1.72 0 001.723 1.723 1.72 1.72 0 001.723-1.723zm12 0a1.72 1.72 0 00-1.723-1.723 1.72 1.72 0 00-1.723 1.723 1.72 1.72 0 001.723 1.723 1.72 1.72 0 001.723-1.723zm12-1a1.72 1.72 0 00-1.723-1.723 1.72 1.72 0 00-1.723 1.723 1.72 1.72 0 001.723 1.723 1.72 1.72 0 001.723-1.723zm11-13a1.72 1.72 0 00-1.723-1.723 1.72 1.72 0 00-1.723 1.723 1.72 1.72 0 001.723 1.723 1.72 1.72 0 001.723-1.723zm12 12a1.72 1.72 0 00-1.723-1.723 1.72 1.72 0 00-1.723 1.723 1.72 1.72 0 001.723 1.723 1.72 1.72 0 001.723-1.723zm12 3a1.72 1.72 0 00-1.723-1.723 1.72 1.72 0 00-1.723 1.723 1.72 1.72 0 001.723 1.723 1.72 1.72 0 001.723-1.723zm12 3a1.72 1.72 0 00-1.723-1.723 1.72 1.72 0 00-1.723 1.723 1.72 1.72 0 001.723 1.723 1.72 1.72 0 001.723-1.723zm12 5a1.72 1.72 0 00-1.723-1.723 1.72 1.72 0 00-1.723 1.723 1.72 1.72 0 001.723 1.723 1.72 1.72 0 001.723-1.723zm12 11a1.72 1.72 0 00-1.723-1.723 1.72 1.72 0 00-1.723 1.723 1.72 1.72 0 001.723 1.723 1.72 1.72 0 001.723-1.723zm12-2a1.72 1.72 0 00-1.723-1.723 1.72 1.72 0 00-1.723 1.723 1.72 1.72 0 001.723 1.723 1.72 1.72 0 001.723-1.723zm12 4a1.72 1.72 0 00-1.723-1.723 1.72 1.72 0 00-1.723 1.723 1.72 1.72 0 001.723 1.723 1.72 1.72 0 001.723-1.723zm11 14a1.72 1.72 0 00-1.723-1.723 1.72 1.72 0 00-1.723 1.723 1.72 1.72 0 001.723 1.723 1.72 1.72 0 001.723-1.723zm12 0a1.72 1.72 0 00-1.723-1.723 1.72 1.72 0 00-1.723 1.723 1.72 1.72 0 001.723 1.723 1.72 1.72 0 001.723-1.723zm0 0" fill-rule="evenodd" fill="#769003"/><path d="M154.723 267a1.72 1.72 0 00-1.723-1.723 1.72 1.72 0 00-1.723 1.723 1.72 1.72 0 001.723 1.723 1.72 1.72 0 001.723-1.723zm12-52a1.72 1.72 0 00-1.723-1.723 1.72 1.72 0 00-1.723 1.723 1.72 1.72 0 001.723 1.723 1.72 1.72 0 001.723-1.723zm12-15a1.72 1.72 0 00-1.723-1.723 1.72 1.72 0 00-1.723 1.723 1.72 1.72 0 001.723 1.723 1.72 1.72 0 001.723-1.723zm12-6a1.72 1.72 0 00-1.723-1.723 1.72 1.72 0 00-1.723 1.723 1.72 1.72 0 001.723 1.723 1.72 1.72 0 001.723-1.723zm12-8a1.72 1.72 0 00-1.723-1.723 1.72 1.72 0 00-1.723 1.723 1.72 1.72 0 001.723 1.723 1.72 1.72 0 001.723-1.723zm12-4a1.72 1.72 0 00-1.723-1.723 1.72 1.72 0 00-1.723 1.723 1.72 1.72 0 001.723 1.723 1.72 1.72 0 001.723-1.723zm11-8a1.72 1.72 0 00-1.723-1.723 1.72 1.72 0 00-1.723 1.723 1.72 1.72 0 001.723 1.723 1.72 1.72 0 001.723-1.723zm12-15a1.72 1.72 0 00-1.723-1.723 1.72 1.72 0 00-1.723 1.723 1.72 1.72 0 001.723 1.723 1.72 1.72 0 001.723-1.723zm12 8a1.72 1.72 0 00-1.723-1.723 1.72 1.72 0 00-1.723 1.723 1.72 1.72 0 001.723 1.723 1.72 1.72 0 001.723-1.723zm12 0a1.72 1.72 0 00-1.723-1.723 1.72 1.72 0 00-1.723 1.723 1.72 1.72 0 001.723 1.723 1.72 1.72 0 001.723-1.723zm12 0a1.72 1.72 0 00-1.723-1.723 1.72 1.72 0 00-1.723 1.723 1.72 1.72 0 001.723 1.723 1.72 1.72 0 001.723-1.723zm12-7a1.72 1.72 0 00-1.723-1.723 1.72 1.72 0 00-1.723 1.723 1.72 1.72 0 001.723 1.723 1.72 1.72 0 001.723-1.723zm12 6a1.72 1.72 0 00-1.723-1.723 1.72 1.72 0 00-1.723 1.723 1.72 1.72 0 001.723 1.723 1.72 1.72 0 001.723-1.723zm11-5a1.72 1.72 0 00-1.723-1.723 1.72 1.72 0 00-1.723 1.723 1.72 1.72 0 001.723 1.723 1.72 1.72 0 001.723-1.723zm12 1a1.72 1.72 0 00-1.723-1.723 1.72 1.72 0 00-1.723 1.723 1.72 1.72 0 001.723 1.723 1.72 1.72 0 001.723-1.723zm12 8a1.72 1.72 0 00-1.723-1.723 1.72 1.72 0 00-1.723 1.723 1.72 1.72 0 001.723 1.723 1.72 1.72 0 001.723-1.723zm12-5a1.72 1.72 0 00-1.723-1.723 1.72 1.72 0 00-1.723 1.723 1.72 1.72 0 001.723 1.723 1.72 1.72 0 001.723-1.723zm12 17a1.72 1.72 0 00-1.723-1.723 1.72 1.72 0 00-1.723 1.723 1.72 1.72 0 001.723 1.723 1.72 1.72 0 001.723-1.723zm12-3a1.72 1.72 0 00-1.723-1.723 1.72 1.72 0 00-1.723 1.723 1.72 1.72 0 001.723 1.723 1.72 1.72 0 001.723-1.723zm12-4a1.72 1.72 0 00-1.723-1.723 1.72 1.72 0 00-1.723 1.723 1.72 1.72 0 001.723 1.723 1.72 1.72 0 001.723-1.723zm12 5a1.72 1.72 0 00-1.723-1.723 1.72 1.72 0 00-1.723 1.723 1.72 1.72 0 001.723 1.723 1.72 1.72 0 001.723-1.723zm11-1a1.72 1.72 0 00-1.723-1.723 1.72 1.72 0 00-1.723 1.723 1.72 1.72 0 001.723 1.723 1.72 1.72 0 001.723-1.723zm12 11a1.72 1.72 0 00-1.723-1.723 1.72 1.72 0 00-1.723 1.723 1.72 1.72 0 001.723 1.723 1.72 1.72 0 001.723-1.723zm12 3a1.72 1.72 0 00-1.723-1.723 1.72 1.72 0 00-1.723 1.723 1.72 1.72 0 001.723 1.723 1.72 1.72 0 001.723-1.723zm0 0" fill-rule="evenodd" fill="#a8364d"/><path d="M166.723 267a1.72 1.72 0 00-1.723-1.723 1.72 1.72 0 00-1.723 1.723 1.72 1.72 0 001.723 1.723 1.72 1.72 0 001.723-1.723zm12-66a1.72 1.72 0 00-1.723-1.723 1.72 1.72 0 00-1.723 1.723 1.72 1.72 0 001.723 1.723 1.72 1.72 0 001.723-1.723zm12-13a1.72 1.72 0 00-1.723-1.723 1.72 1.72 0 00-1.723 1.723 1.72 1.72 0 001.723 1.723 1.72 1.72 0 001.723-1.723zm12 3a1.72 1.72 0 00-1.723-1.723 1.72 1.72 0 00-1.723 1.723 1.72 1.72 0 001.723 1.723 1.72 1.72 0 001.723-1.723zm12 19a1.72 1.72 0 00-1.723-1.723 1.72 1.72 0 00-1.723 1.723 1.72 1.72 0 001.723 1.723 1.72 1.72 0 001.723-1.723zm11-32a1.72 1.72 0 00-1.723-1.723 1.72 1.72 0 00-1.723 1.723 1.72 1.72 0 001.723 1.723 1.72 1.72 0 001.723-1.723zm12-6a1.72 1.72 0 00-1.723-1.723 1.72 1.72 0 00-1.723 1.723 1.72 1.72 0 001.723 1.723 1.72 1.72 0 001.723-1.723zm12-1a1.72 1.72 0 00-1.723-1.723 1.72 1.72 0 00-1.723 1.723 1.72 1.72 0 001.723 1.723 1.72 1.72 0 001.723-1.723zm12 6a1.72 1.72 0 00-1.723-1.723 1.72 1.72 0 00-1.723 1.723 1.72 1.72 0 001.723 1.723 1.72 1.72 0 001.723-1.723zm12-12a1.72 1.72 0 00-1.723-1.723 1.72 1.72 0 00-1.723 1.723 1.72 1.72 0 001.723 1.723 1.72 1.72 0 001.723-1.723zm12 9a1.72 1.72 0 00-1.723-1.723 1.72 1.72 0 00-1.723 1.723 1.72 1.72 0 001.723 1.723 1.72 1.72 0 001.723-1.723zm12-12a1.72 1.72 0 00-1.723-1.723 1.72 1.72 0 00-1.723 1.723 1.72 1.72 0 001.723 1.723 1.72 1.72 0 001.723-1.723zm11-1a1.72 1.72 0 00-1.723-1.723 1.72 1.72 0 00-1.723 1.723 1.72 1.72 0 001.723 1.723 1.72 1.72 0 001.723-1.723zm12 9a1.72 1.72 0 00-1.723-1.723 1.72 1.72 0 00-1.723 1.723 1.72 1.72 0 001.723 1.723 1.72 1.72 0 001.723-1.723zm12-5a1.72 1.72 0 00-1.723-1.723 1.72 1.72 0 00-1.723 1.723 1.72 1.72 0 001.723 1.723 1.72 1.72 0 001.723-1.723zm12-5a1.72 1.72 0 00-1.723-1.723 1.72 1.72 0 00-1.723 1.723 1.72 1.72 0 001.723 1.723 1.72 1.72 0 001.723-1.723zm12 2a1.72 1.72 0 00-1.723-1.723 1.72 1.72 0 00-1.723 1.723 1.72 1.72 0 001.723 1.723 1.72 1.72 0 001.723-1.723zm12 10a1.72 1.72 0 00-1.723-1.723 1.72 1.72 0 00-1.723 1.723 1.72 1.72 0 001.723 1.723 1.72 1.72 0 001.723-1.723zm12-3a1.72 1.72 0 00-1.723-1.723 1.72 1.72 0 00-1.723 1.723 1.72 1.72 0 001.723 1.723 1.72 1.72 0 001.723-1.723zm12 14a1.72 1.72 0 00-1.723-1.723 1.72 1.72 0 00-1.723 1.723 1.72 1.72 0 001.723 1.723 1.72 1.72 0 001.723-1.723zm11 0a1.72 1.72 0 00-1.723-1.723 1.72 1.72 0 00-1.723 1.723 1.72 1.72 0 001.723 1.723 1.72 1.72 0 001.723-1.723zm12 8a1.72 1.72 0 00-1.723-1.723 1.72 1.72 0 00-1.723 1.723 1.72 1.72 0 001.723 1.723 1.72 1.72 0 001.723-1.723zm12-3a1.72 1.72 0 00-1.723-1.723 1.72 1.72 0 00-1.723 1.723 1.72 1.72 0 001.723 1.723 1.72 1.72 0 001.723-1.723zm0 0" fill-rule="evenodd" fill="#3664cc"/><path d="M154.723 250a1.72 1.72 0 00-1.723-1.723 1.72 1.72 0 00-1.723 1.723 1.72 1.72 0 001.723 1.723 1.72 1.72 0 001.723-1.723zm12 17a1.72 1.72 0 00-1.723-1.723 1.72 1.72 0 00-1.723 1.723 1.72 1.72 0 001.723 1.723 1.72 1.72 0 001.723-1.723zm12-34a1.72 1.72 0 00-1.723-1.723 1.72 1.72 0 00-1.723 1.723 1.72 1.72 0 001.723 1.723 1.72 1.72 0 001.723-1.723zm12-26a1.72 1.72 0 00-1.723-1.723 1.72 1.72 0 00-1.723 1.723 1.72 1.72 0 001.723 1.723 1.72 1.72 0 001.723-1.723zm12-12a1.72 1.72 0 00-1.723-1.723 1.72 1.72 0 00-1.723 1.723 1.72 1.72 0 001.723 1.723 1.72 1.72 0 001.723-1.723zm12 10a1.72 1.72 0 00-1.723-1.723 1.72 1.72 0 00-1.723 1.723 1.72 1.72 0 001.723 1.723 1.72 1.72 0 001.723-1.723zm11-17a1.72 1.72 0 00-1.723-1.723 1.72 1.72 0 00-1.723 1.723 1.72 1.72 0 001.723 1.723 1.72 1.72 0 001.723-1.723zm12-11a1.72 1.72 0 00-1.723-1.723 1.72 1.72 0 00-1.723 1.723 1.72 1.72 0 001.723 1.723 1.72 1.72 0 001.723-1.723zm12-9a1.72 1.72 0 00-1.723-1.723 1.72 1.72 0 00-1.723 1.723 1.72 1.72 0 001.723 1.723 1.72 1.72 0 001.723-1.723zm12-9a1.72 1.72 0 00-1.723-1.723 1.72 1.72 0 00-1.723 1.723 1.72 1.72 0 001.723 1.723 1.72 1.72 0 001.723-1.723zm12 12a1.72 1.72 0 00-1.723-1.723 1.72 1.72 0 00-1.723 1.723 1.72 1.72 0 001.723 1.723 1.72 1.72 0 001.723-1.723zm12 0a1.72 1.72 0 00-1.723-1.723 1.72 1.72 0 00-1.723 1.723 1.72 1.72 0 001.723 1.723 1.72 1.72 0 001.723-1.723zm12-5a1.72 1.72 0 00-1.723-1.723 1.72 1.72 0 00-1.723 1.723 1.72 1.72 0 001.723 1.723 1.72 1.72 0 001.723-1.723zm11-9a1.72 1.72 0 00-1.723-1.723 1.72 1.72 0 00-1.723 1.723 1.72 1.72 0 001.723 1.723 1.72 1.72 0 001.723-1.723zm12 4a1.72 1.72 0 00-1.723-1.723 1.72 1.72 0 00-1.723 1.723 1.72 1.72 0 001.723 1.723 1.72 1.72 0 001.723-1.723zm12 8a1.72 1.72 0 00-1.723-1.723 1.72 1.72 0 00-1.723 1.723 1.72 1.72 0 001.723 1.723 1.72 1.72 0 001.723-1.723zm12-4a1.72 1.72 0 00-1.723-1.723 1.72 1.72 0 00-1.723 1.723 1.72 1.72 0 001.723 1.723 1.72 1.72 0 001.723-1.723zm12 12a1.72 1.72 0 00-1.723-1.723 1.72 1.72 0 00-1.723 1.723 1.72 1.72 0 001.723 1.723 1.72 1.72 0 001.723-1.723zm12-3a1.72 1.72 0 00-1.723-1.723 1.72 1.72 0 00-1.723 1.723 1.72 1.72 0 001.723 1.723 1.72 1.72 0 001.723-1.723zm12 7a1.72 1.72 0 00-1.723-1.723 1.72 1.72 0 00-1.723 1.723 1.72 1.72 0 001.723 1.723 1.72 1.72 0 001.723-1.723zm12 0a1.72 1.72 0 00-1.723-1.723 1.72 1.72 0 00-1.723 1.723 1.72 1.72 0 001.723 1.723 1.72 1.72 0 001.723-1.723zm11-6a1.72 1.72 0 00-1.723-1.723 1.72 1.72 0 00-1.723 1.723 1.72 1.72 0 001.723 1.723 1.72 1.72 0 001.723-1.723zm12 9a1.72 1.72 0 00-1.723-1.723 1.72 1.72 0 00-1.723 1.723 1.72 1.72 0 001.723 1.723 1.72 1.72 0 001.723-1.723zm12 13a1.72 1.72 0 00-1.723-1.723 1.72 1.72 0 00-1.723 1.723 1.72 1.72 0 001.723 1.723 1.72 1.72 0 001.723-1.723zm0 0" fill-rule="evenodd" fill="#c8860a"/><path d="M166.723 267a1.72 1.72 0 00-1.723-1.723 1.72 1.72 0 00-1.723 1.723 1.72 1.72 0 001.723 1.723 1.72 1.72 0 001.723-1.723zm12-52a1.72 1.72 0 00-1.723-1.723 1.72 1.72 0 00-1.723 1.723 1.72 1.72 0 001.723 1.723 1.72 1.72 0 001.723-1.723zm12-3a1.72 1.72 0 00-1.723-1.723 1.72 1.72 0 00-1.723 1.723 1.72 1.72 0 001.723 1.723 1.72 1.72 0 001.723-1.723zm12-9a1.72 1.72 0 00-1.723-1.723 1.72 1.72 0 00-1.723 1.723 1.72 1.72 0 001.723 1.723 1.72 1.72 0 001.723-1.723zm12-5a1.72 1.72 0 00-1.723-1.723 1.72 1.72 0 00-1.723 1.723 1.72 1.72 0 001.723 1.723 1.72 1.72 0 001.723-1.723zm11-9a1.72 1.72 0 00-1.723-1.723 1.72 1.72 0 00-1.723 1.723 1.72 1.72 0 001.723 1.723 1.72 1.72 0 001.723-1.723zm12-6a1.72 1.72 0 00-1.723-1.723 1.72 1.72 0 00-1.723 1.723 1.72 1.72 0 001.723 1.723 1.72 1.72 0 001.723-1.723zm12 0a1.72 1.72 0 00-1.723-1.723 1.72 1.72 0 00-1.723 1.723 1.72 1.72 0 001.723 1.723 1.72 1.72 0 001.723-1.723zm12-7a1.72 1.72 0 00-1.723-1.723 1.72 1.72 0 00-1.723 1.723 1.72 1.72 0 001.723 1.723 1.72 1.72 0 001.723-1.723zm12 3a1.72 1.72 0 00-1.723-1.723 1.72 1.72 0 00-1.723 1.723 1.72 1.72 0 001.723 1.723 1.72 1.72 0 001.723-1.723zm12 0a1.72 1.72 0 00-1.723-1.723 1.72 1.72 0 00-1.723 1.723 1.72 1.72 0 001.723 1.723 1.72 1.72 0 001.723-1.723zm12 0a1.72 1.72 0 00-1.723-1.723 1.72 1.72 0 00-1.723 1.723 1.72 1.72 0 001.723 1.723 1.72 1.72 0 001.723-1.723zm11-2a1.72 1.72 0 00-1.723-1.723 1.72 1.72 0 00-1.723 1.723 1.72 1.72 0 001.723 1.723 1.72 1.72 0 001.723-1.723zm12 3a1.72 1.72 0 00-1.723-1.723 1.72 1.72 0 00-1.723 1.723 1.72 1.72 0 001.723 1.723 1.72 1.72 0 001.723-1.723zm12 1a1.72 1.72 0 00-1.723-1.723 1.72 1.72 0 00-1.723 1.723 1.72 1.72 0 001.723 1.723 1.72 1.72 0 001.723-1.723zm12-2a1.72 1.72 0 00-1.723-1.723 1.72 1.72 0 00-1.723 1.723 1.72 1.72 0 001.723 1.723 1.72 1.72 0 001.723-1.723zm12 3a1.72 1.72 0 00-1.723-1.723 1.72 1.72 0 00-1.723 1.723 1.72 1.72 0 001.723 1.723 1.72 1.72 0 001.723-1.723zm12 1a1.72 1.72 0 00-1.723-1.723 1.72 1.72 0 00-1.723 1.723 1.72 1.72 0 001.723 1.723 1.72 1.72 0 001.723-1.723zm12 5a1.72 1.72 0 00-1.723-1.723 1.72 1.72 0 00-1.723 1.723 1.72 1.72 0 001.723 1.723 1.72 1.72 0 001.723-1.723zm12 1a1.72 1.72 0 00-1.723-1.723 1.72 1.72 0 00-1.723 1.723 1.72 1.72 0 001.723 1.723 1.72 1.72 0 001.723-1.723zm11-5a1.72 1.72 0 00-1.723-1.723 1.72 1.72 0 00-1.723 1.723 1.72 1.72 0 001.723 1.723 1.72 1.72 0 001.723-1.723zm12 1a1.72 1.72 0 00-1.723-1.723 1.72 1.72 0 00-1.723 1.723 1.72 1.72 0 001.723 1.723 1.72 1.72 0 001.723-1.723zm12 4a1.72 1.72 0 00-1.723-1.723 1.72 1.72 0 00-1.723 1.723 1.72 1.72 0 001.723 1.723 1.72 1.72 0 001.723-1.723zm0 0" fill-rule="evenodd" fill="#833987"/><path d="M154.723 227a1.72 1.72 0 00-1.723-1.723 1.72 1.72 0 00-1.723 1.723 1.72 1.72 0 001.723 1.723 1.72 1.72 0 001.723-1.723zm12 6a1.72 1.72 0 00-1.723-1.723 1.72 1.72 0 00-1.723 1.723 1.72 1.72 0 001.723 1.723 1.72 1.72 0 001.723-1.723zm12-38a1.72 1.72 0 00-1.723-1.723 1.72 1.72 0 00-1.723 1.723 1.72 1.72 0 001.723 1.723 1.72 1.72 0 001.723-1.723zm12-12a1.72 1.72 0 00-1.723-1.723 1.72 1.72 0 00-1.723 1.723 1.72 1.72 0 001.723 1.723 1.72 1.72 0 001.723-1.723zm12 12a1.72 1.72 0 00-1.723-1.723 1.72 1.72 0 00-1.723 1.723 1.72 1.72 0 001.723 1.723 1.72 1.72 0 001.723-1.723zm12-16a1.72 1.72 0 00-1.723-1.723 1.72 1.72 0 00-1.723 1.723 1.72 1.72 0 001.723 1.723 1.72 1.72 0 001.723-1.723zm11 11a1.72 1.72 0 00-1.723-1.723 1.72 1.72 0 00-1.723 1.723 1.72 1.72 0 001.723 1.723 1.72 1.72 0 001.723-1.723zm12 10a1.72 1.72 0 00-1.723-1.723 1.72 1.72 0 00-1.723 1.723 1.72 1.72 0 001.723 1.723 1.72 1.72 0 001.723-1.723zm12-5a1.72 1.72 0 00-1.723-1.723 1.72 1.72 0 00-1.723 1.723 1.72 1.72 0 001.723 1.723 1.72 1.72 0 001.723-1.723zm12-20a1.72 1.72 0 00-1.723-1.723 1.72 1.72 0 00-1.723 1.723 1.72 1.72 0 001.723 1.723 1.72 1.72 0 001.723-1.723zm12 6a1.72 1.72 0 00-1.723-1.723 1.72 1.72 0 00-1.723 1.723 1.72 1.72 0 001.723 1.723 1.72 1.72 0 001.723-1.723zm12 7a1.72 1.72 0 00-1.723-1.723 1.72 1.72 0 00-1.723 1.723 1.72 1.72 0 001.723 1.723 1.72 1.72 0 001.723-1.723zm12-11a1.72 1.72 0 00-1.723-1.723 1.72 1.72 0 00-1.723 1.723 1.72 1.72 0 001.723 1.723 1.72 1.72 0 001.723-1.723zm11 0a1.72 1.72 0 00-1.723-1.723 1.72 1.72 0 00-1.723 1.723 1.72 1.72 0 001.723 1.723 1.72 1.72 0 001.723-1.723zm12 6a1.72 1.72 0 00-1.723-1.723 1.72 1.72 0 00-1.723 1.723 1.72 1.72 0 001.723 1.723 1.72 1.72 0 001.723-1.723zm12 6a1.72 1.72 0 00-1.723-1.723 1.72 1.72 0 00-1.723 1.723 1.72 1.72 0 001.723 1.723 1.72 1.72 0 001.723-1.723zm12 1a1.72 1.72 0 00-1.723-1.723 1.72 1.72 0 00-1.723 1.723 1.72 1.72 0 001.723 1.723 1.72 1.72 0 001.723-1.723zm12 10a1.72 1.72 0 00-1.723-1.723 1.72 1.72 0 00-1.723 1.723 1.72 1.72 0 001.723 1.723 1.72 1.72 0 001.723-1.723zm12-7a1.72 1.72 0 00-1.723-1.723 1.72 1.72 0 00-1.723 1.723 1.72 1.72 0 001.723 1.723 1.72 1.72 0 001.723-1.723zm12-3a1.72 1.72 0 00-1.723-1.723 1.72 1.72 0 00-1.723 1.723 1.72 1.72 0 001.723 1.723 1.72 1.72 0 001.723-1.723zm12 5a1.72 1.72 0 00-1.723-1.723 1.72 1.72 0 00-1.723 1.723 1.72 1.72 0 001.723 1.723 1.72 1.72 0 001.723-1.723zm11-1a1.72 1.72 0 00-1.723-1.723 1.72 1.72 0 00-1.723 1.723 1.72 1.72 0 001.723 1.723 1.72 1.72 0 001.723-1.723zm12 9a1.72 1.72 0 00-1.723-1.723 1.72 1.72 0 00-1.723 1.723 1.72 1.72 0 001.723 1.723 1.72 1.72 0 001.723-1.723zm12 4a1.72 1.72 0 00-1.723-1.723 1.72 1.72 0 00-1.723 1.723 1.72 1.72 0 001.723 1.723 1.72 1.72 0 001.723-1.723zm0 0" fill-rule="evenodd" fill="#1c8f6b"/><path d="M154.723 267a1.72 1.72 0 00-1.723-1.723 1.72 1.72 0 00-1.723 1.723 1.72 1.72 0 001.723 1.723 1.72 1.72 0 001.723-1.723zm12-40a1.72 1.72 0 00-1.723-1.723 1.72 1.72 0 00-1.723 1.723 1.72 1.72 0 001.723 1.723 1.72 1.72 0 001.723-1.723zm12 13a1.72 1.72 0 00-1.723-1.723 1.72 1.72 0 00-1.723 1.723 1.72 1.72 0 001.723 1.723 1.72 1.72 0 001.723-1.723zm12-35a1.72 1.72 0 00-1.723-1.723 1.72 1.72 0 00-1.723 1.723 1.72 1.72 0 001.723 1.723 1.72 1.72 0 001.723-1.723zm12-10a1.72 1.72 0 00-1.723-1.723 1.72 1.72 0 00-1.723 1.723 1.72 1.72 0 001.723 1.723 1.72 1.72 0 001.723-1.723zm12-7a1.72 1.72 0 00-1.723-1.723 1.72 1.72 0 00-1.723 1.723 1.72 1.72 0 001.723 1.723 1.72 1.72 0 001.723-1.723zm11 0a1.72 1.72 0 00-1.723-1.723 1.72 1.72 0 00-1.723 1.723 1.72 1.72 0 001.723 1.723 1.72 1.72 0 001.723-1.723zm12-9a1.72 1.72 0 00-1.723-1.723 1.72 1.72 0 00-1.723 1.723 1.72 1.72 0 001.723 1.723 1.72 1.72 0 001.723-1.723zm12 9a1.72 1.72 0 00-1.723-1.723 1.72 1.72 0 00-1.723 1.723 1.72 1.72 0 001.723 1.723 1.72 1.72 0 001.723-1.723zm12-8a1.72 1.72 0 00-1.723-1.723 1.72 1.72 0 00-1.723 1.723 1.72 1.72 0 001.723 1.723 1.72 1.72 0 001.723-1.723zm12 8a1.72 1.72 0 00-1.723-1.723 1.72 1.72 0 00-1.723 1.723 1.72 1.72 0 001.723 1.723 1.72 1.72 0 001.723-1.723zm12 1a1.72 1.72 0 00-1.723-1.723 1.72 1.72 0 00-1.723 1.723 1.72 1.72 0 001.723 1.723 1.72 1.72 0 001.723-1.723zm12 2a1.72 1.72 0 00-1.723-1.723 1.72 1.72 0 00-1.723 1.723 1.72 1.72 0 001.723 1.723 1.72 1.72 0 001.723-1.723zm11-3a1.72 1.72 0 00-1.723-1.723 1.72 1.72 0 00-1.723 1.723 1.72 1.72 0 001.723 1.723 1.72 1.72 0 001.723-1.723zm12-4a1.72 1.72 0 00-1.723-1.723 1.72 1.72 0 00-1.723 1.723 1.72 1.72 0 001.723 1.723 1.72 1.72 0 001.723-1.723zm12-12a1.72 1.72 0 00-1.723-1.723 1.72 1.72 0 00-1.723 1.723 1.72 1.72 0 001.723 1.723 1.72 1.72 0 001.723-1.723zm12 6a1.72 1.72 0 00-1.723-1.723 1.72 1.72 0 00-1.723 1.723 1.72 1.72 0 001.723 1.723 1.72 1.72 0 001.723-1.723zm12 6a1.72 1.72 0 00-1.723-1.723 1.72 1.72 0 00-1.723 1.723 1.72 1.72 0 001.723 1.723 1.72 1.72 0 001.723-1.723zm12 0a1.72 1.72 0 00-1.723-1.723 1.72 1.72 0 00-1.723 1.723 1.72 1.72 0 001.723 1.723 1.72 1.72 0 001.723-1.723zm12 4a1.72 1.72 0 00-1.723-1.723 1.72 1.72 0 00-1.723 1.723 1.72 1.72 0 001.723 1.723 1.72 1.72 0 001.723-1.723zm12-3a1.72 1.72 0 00-1.723-1.723 1.72 1.72 0 00-1.723 1.723 1.72 1.72 0 001.723 1.723 1.72 1.72 0 001.723-1.723zm11 22a1.72 1.72 0 00-1.723-1.723 1.72 1.72 0 00-1.723 1.723 1.72 1.72 0 001.723 1.723 1.72 1.72 0 001.723-1.723zm12 5a1.72 1.72 0 00-1.723-1.723 1.72 1.72 0 00-1.723 1.723 1.72 1.72 0 001.723 1.723 1.72 1.72 0 001.723-1.723zm12-9a1.72 1.72 0 00-1.723-1.723 1.72 1.72 0 00-1.723 1.723 1.72 1.72 0 001.723 1.723 1.72 1.72 0 001.723-1.723zm0 0" fill-rule="evenodd" fill="#a54f05"/><path d="M130.723 267a1.72 1.72 0 00-1.723-1.723 1.72 1.72 0 00-1.723 1.723 1.72 1.72 0 001.723 1.723 1.72 1.72 0 001.723-1.723zm12-74a1.72 1.72 0 00-1.723-1.723 1.72 1.72 0 00-1.723 1.723 1.72 1.72 0 001.723 1.723 1.72 1.72 0 001.723-1.723zm12-20a1.72 1.72 0 00-1.723-1.723 1.72 1.72 0 00-1.723 1.723 1.72 1.72 0 001.723 1.723 1.72 1.72 0 001.723-1.723zm12-12a1.72 1.72 0 00-1.723-1.723 1.72 1.72 0 00-1.723 1.723 1.72 1.72 0 001.723 1.723 1.72 1.72 0 001.723-1.723zm12-24a1.72 1.72 0 00-1.723-1.723 1.72 1.72 0 00-1.723 1.723 1.72 1.72 0 001.723 1.723 1.72 1.72 0 001.723-1.723zm12-9a1.72 1.72 0 00-1.723-1.723 1.72 1.72 0 00-1.723 1.723 1.72 1.72 0 001.723 1.723 1.72 1.72 0 001.723-1.723zm12-7a1.72 1.72 0 00-1.723-1.723 1.72 1.72 0 00-1.723 1.723 1.72 1.72 0 001.723 1.723 1.72 1.72 0 001.723-1.723zm12-4a1.72 1.72 0 00-1.723-1.723 1.72 1.72 0 00-1.723 1.723 1.72 1.72 0 001.723 1.723 1.72 1.72 0 001.723-1.723zm11-2a1.72 1.72 0 00-1.723-1.723 1.72 1.72 0 00-1.723 1.723 1.72 1.72 0 001.723 1.723 1.72 1.72 0 001.723-1.723zm12-7a1.72 1.72 0 00-1.723-1.723 1.72 1.72 0 00-1.723 1.723 1.72 1.72 0 001.723 1.723 1.72 1.72 0 001.723-1.723zm12-4a1.72 1.72 0 00-1.723-1.723 1.72 1.72 0 00-1.723 1.723 1.72 1.72 0 001.723 1.723 1.72 1.72 0 001.723-1.723zm12-2a1.72 1.72 0 00-1.723-1.723 1.72 1.72 0 00-1.723 1.723 1.72 1.72 0 001.723 1.723 1.72 1.72 0 001.723-1.723zm12 0a1.72 1.72 0 00-1.723-1.723 1.72 1.72 0 00-1.723 1.723 1.72 1.72 0 001.723 1.723 1.72 1.72 0 001.723-1.723zm12 4a1.72 1.72 0 00-1.723-1.723 1.72 1.72 0 00-1.723 1.723 1.72 1.72 0 001.723 1.723 1.72 1.72 0 001.723-1.723zm12-3a1.72 1.72 0 00-1.723-1.723 1.72 1.72 0 00-1.723 1.723 1.72 1.72 0 001.723 1.723 1.72 1.72 0 001.723-1.723zm11-4A1.72 1.72 0 00307 97.277 1.72 1.72 0 00305.277 99a1.72 1.72 0 001.723 1.723A1.72 1.72 0 00308.723 99zm12 4a1.72 1.72 0 00-1.723-1.723 1.72 1.72 0 00-1.723 1.723 1.72 1.72 0 001.723 1.723 1.72 1.72 0 001.723-1.723zm12 1a1.72 1.72 0 00-1.723-1.723 1.72 1.72 0 00-1.723 1.723 1.72 1.72 0 001.723 1.723 1.72 1.72 0 001.723-1.723zm12 1a1.72 1.72 0 00-1.723-1.723 1.72 1.72 0 00-1.723 1.723 1.72 1.72 0 001.723 1.723 1.72 1.72 0 001.723-1.723zm12 4a1.72 1.72 0 00-1.723-1.723 1.72 1.72 0 00-1.723 1.723 1.72 1.72 0 001.723 1.723 1.72 1.72 0 001.723-1.723zm12 3a1.72 1.72 0 00-1.723-1.723 1.72 1.72 0 00-1.723 1.723 1.72 1.72 0 001.723 1.723 1.72 1.72 0 001.723-1.723zm12 4a1.72 1.72 0 00-1.723-1.723 1.72 1.72 0 00-1.723 1.723 1.72 1.72 0 001.723 1.723 1.72 1.72 0 001.723-1.723zm12 3a1.72 1.72 0 00-1.723-1.723 1.72 1.72 0 00-1.723 1.723 1.72 1.72 0 001.723 1.723 1.72 1.72 0 001.723-1.723zm11 1a1.72 1.72 0 00-1.723-1.723 1.72 1.72 0 00-1.723 1.723 1.72 1.72 0 001.723 1.723 1.72 1.72 0 001.723-1.723zm12 5a1.72 1.72 0 00-1.723-1.723 1.72 1.72 0 00-1.723 1.723 1.72 1.72 0 001.723 1.723 1.72 1.72 0 001.723-1.723zm12 9a1.72 1.72 0 00-1.723-1.723 1.72 1.72 0 00-1.723 1.723 1.72 1.72 0 001.723 1.723 1.72 1.72 0 001.723-1.723zm0 0" fill-rule="evenodd" fill="#6846c7"/><path d="M426.23 55.035l11.875-4.18 11.875 4.743 11.872-5.227 11.875-1.582 11.875-3.02V20.415l-11.875 2.961-11.875 1.984-11.872 4.36-11.875-1.524zm0 0" fill="gray" fill-opacity=".05"/><path d="M426.23 56.375l11.875-9.547 11.875 7.313 11.872-7.7 11.875-.882 11.875-4.094V17.66l-11.875 3.793-11.875 1.809-11.872 6.086-11.875-2.684zm0 131.711l11.875 54.328V171.36zm0 0" fill="gray" fill-opacity=".05"/><path d="M426.23 189.14l11.875 7.325 11.875 3.125 11.872 2.402L473.727 204l11.875 1.738v-31.062l-11.875 1.394-11.875 1.621-11.872 1.973-11.875 2.656zm0 0" fill="gray" fill-opacity=".05"/><path d="M426.23 203.313l11.875 61.07v-77.977zm0-69.571l11.875 40.656v-47.386zm0 0" fill="gray" fill-opacity=".05"/><path d="M495 286H25m0 0V4m0 0h470m0 0v282" fill="none" stroke-width=".5" stroke-linecap="square" stroke="#666" stroke-miterlimit="3.25"/><path d="M58.148 286v-6.527" fill="none" stroke-width=".5" stroke="#666" stroke-miterlimit="3.25"/><g fill="#666"><use xlink:href="#S" x="43.647" y="298"/><use xlink:href="#T" x="49.165" y="298"/><use xlink:href="#U" x="54.604" y="298"/></g><g fill="#666"><use xlink:href="#V" x="61.647" y="298"/><use xlink:href="#W" x="67.263" y="298"/></g><path d="M141.262 286v-6.527" fill="none" stroke-width=".5" stroke="#666" stroke-miterlimit="3.25"/><g fill="#666"><use xlink:href="#S" x="126.763" y="298"/><use xlink:href="#T" x="132.281" y="298"/><use xlink:href="#U" x="137.72" y="298"/></g><g fill="#666"><use xlink:href="#X" x="144.763" y="298"/><use xlink:href="#Y" x="150.378" y="298"/></g><path d="M224.379 286v-6.527" fill="none" stroke-width=".5" stroke="#666" stroke-miterlimit="3.25"/><g fill="#666"><use xlink:href="#S" x="209.879" y="298"/><use xlink:href="#T" x="215.397" y="298"/><use xlink:href="#U" x="220.836" y="298"/></g><g fill="#666"><use xlink:href="#X" x="227.879" y="298"/><use xlink:href="#Z" x="233.494" y="298"/></g><path d="M307.496 286v-6.527" fill="none" stroke-width=".5" stroke="#666" stroke-miterlimit="3.25"/><g fill="#666"><use xlink:href="#aa" x="292.995" y="298"/><use xlink:href="#ab" x="298.522" y="298"/><use xlink:href="#ac" x="303.82" y="298"/></g><g fill="#666"><use xlink:href="#Y" x="310.995" y="298"/><use xlink:href="#W" x="316.61" y="298"/></g><path d="M390.61 286v-6.527" fill="none" stroke-width=".5" stroke="#666" stroke-miterlimit="3.25"/><g fill="#666"><use xlink:href="#aa" x="376.111" y="298"/><use xlink:href="#ab" x="381.638" y="298"/><use xlink:href="#ac" x="386.936" y="298"/></g><g fill="#666"><use xlink:href="#V" x="394.111" y="298"/><use xlink:href="#Y" x="399.726" y="298"/></g><path d="M473.727 286v-6.527" fill="none" stroke-width=".5" stroke="#666" stroke-miterlimit="3.25"/><g fill="#666"><use xlink:href="#aa" x="459.226" y="298"/><use xlink:href="#ab" x="464.754" y="298"/><use xlink:href="#ac" x="470.052" y="298"/></g><g fill="#666"><use xlink:href="#V" x="477.226" y="298"/><use xlink:href="#Z" x="482.842" y="298"/></g><path d="M25 267.016h4.7" fill="none" stroke-width=".1" stroke="#666" stroke-miterlimit="3.25"/><use xlink:href="#V" x="16" y="269.515" fill="#666"/><path d="M25 209.828h4.7" fill="none" stroke-width=".1" stroke="#666" stroke-miterlimit="3.25"/><g fill="#666"><use xlink:href="#V" x="11" y="212.328"/><use xlink:href="#Y" x="16.615" y="212.328"/></g><path d="M25 152.64h4.7" fill="none" stroke-width=".1" stroke="#666" stroke-miterlimit="3.25"/><g fill="#666"><use xlink:href="#V" x="5" y="155.14"/><use xlink:href="#Y" x="10.615" y="155.14"/><use xlink:href="#Y" x="16.23" y="155.14"/></g><path d="M25 95.453h4.7" fill="none" stroke-width=".1" stroke="#666" stroke-miterlimit="3.25"/><g fill="#666"><use xlink:href="#V" y="97.952"/><use xlink:href="#Y" x="5.615" y="97.952"/><use xlink:href="#Y" x="11.23" y="97.952"/><use xlink:href="#Y" x="16.846" y="97.952"/></g><path d="M25 38.266h4.7" fill="none" stroke-width=".1" stroke="#666" stroke-miterlimit="3.25"/><g fill="#666"><use xlink:href="#V" x="5" y="42.264"/><use xlink:href="#Y" x="10.615" y="42.264"/></g><use xlink:href="#ad" x="16" y="38.264" fill="#666"/><path d="M25 284.23h2.398M25 279.703h2.398M25 275.875h2.398M25 272.559h2.398M25 269.633h2.398M25 249.8h2.398M25 239.73h2.398M25 232.586h2.398M25 227.043h2.398M25 222.516h2.398M25 218.688h2.398M25 215.371h2.398M25 212.445h2.398M25 192.613h2.398M25 182.543h2.398M25 175.398h2.398M25 169.855h2.398M25 165.328h2.398M25 161.5h2.398M25 158.184h2.398M25 155.258h2.398M25 135.426h2.398M25 125.355h2.398M25 118.21h2.398M25 112.668h2.398M25 108.14h2.398M25 104.309h2.398M25 100.992h2.398M25 98.07h2.398M25 78.238h2.398M25 68.168h2.398M25 61.02h2.398M25 55.48h2.398M25 50.95h2.398M25 47.121h2.398M25 43.805h2.398M25 40.879h2.398M25 21.047h2.398M25 10.977h2.398" fill="none" stroke-width=".1" stroke="#666" stroke-miterlimit="3.25"/><path d="M58.148 4v6.527M141.262 4v6.527M224.379 4v6.527M307.496 4v6.527M390.61 4v6.527M473.727 4v6.527" fill="none" stroke-width=".5" stroke="#666" stroke-miterlimit="3.25"/><path d="M495 267.016h-4.7m4.7-57.188h-4.7m4.7-57.188h-4.7m4.7-57.187h-4.7m4.7-57.187h-4.7M495 284.23h-2.398m2.398-4.527h-2.398m2.398-3.828h-2.398m2.398-3.316h-2.398m2.398-2.926h-2.398M495 249.8h-2.398M495 239.73h-2.398m2.398-7.144h-2.398m2.398-5.543h-2.398m2.398-4.527h-2.398m2.398-3.828h-2.398m2.398-3.317h-2.398m2.398-2.926h-2.398M495 192.613h-2.398m2.398-10.07h-2.398m2.398-7.145h-2.398m2.398-5.543h-2.398m2.398-4.527h-2.398M495 161.5h-2.398m2.398-3.316h-2.398m2.398-2.926h-2.398M495 135.426h-2.398M495 125.355h-2.398M495 118.21h-2.398m2.398-5.542h-2.398M495 108.14h-2.398m2.398-3.831h-2.398m2.398-3.317h-2.398M495 98.07h-2.398M495 78.238h-2.398M495 68.168h-2.398M495 61.02h-2.398M495 55.48h-2.398M495 50.95h-2.398M495 47.121h-2.398M495 43.805h-2.398M495 40.879h-2.398M495 21.047h-2.398M495 10.977h-2.398" fill="none" stroke-width=".1" stroke="#666" stroke-miterlimit="3.25"/></svg>