<svg xmlns="http://www.w3.org/2000/svg" xmlns:xlink="http://www.w3.org/1999/xlink" width="500pt" height="265pt" viewBox="0 0 500 265"><defs><symbol overflow="visible" id="a"><path d="M4.738-8.14C3.578-6.88 2.121-5.82.36-4.97l.352.63C2.48-5.23 3.91-6.282 5-7.49c1.18 1.272 2.59 2.3 4.25 3.1l.36-.64a14.128 14.128 0 01-4.348-3.11zM2.211-4.98v.69h2.418v1.74H1.73v.69h2.9v1.848H.839V.7h8.333v-.71h-3.8v-1.85h2.89v-.692h-2.89V-4.29h2.417v-.691zm0 0"/></symbol><symbol overflow="visible" id="b"><path d="M2.52-6.121v.652h2.109v1.438h-1.79v.64h1.79v1.59H2.25v.66h5.512v-.66h-2.39v-1.59H7.16v-.64H5.371V-5.47H7.47v-.652zm6.59-1.59H.89V.98h.731V.55H8.38v.43h.73zM1.62-.129V-7.03h6.76v6.9zm4.93-3.05l-.57.19c.238.329.46.72.66 1.169l.558-.258A6.323 6.323 0 006.55-3.18zm0 0"/></symbol><symbol overflow="visible" id="c"><path d="M7.04-4.73h1.51v1.808H7.04zm1.51-.63H7.04v-1.78h1.51zM7.02-2.28h1.53v2.22c0 .278-.12.43-.35.43-.24 0-.49-.02-.759-.043l.168.64h.79C8.94.969 9.21.7 9.21.173V-7.8H6.379v5.082C6.359-1.422 6.07-.339 5.5.5l.52.46c.59-.839.921-1.92 1-3.241zm-5.9-5.67l-.492.46c.68.5 1.21.977 1.59 1.419l.5-.489A11.92 11.92 0 001.12-7.95zm-.2 2.34l-.491.46c.691.53 1.231 1.03 1.621 1.49l.5-.488c-.44-.48-.991-.973-1.628-1.461zm1.03 2.649A33.47 33.47 0 01.56.58l.652.28c.5-1.12.95-2.308 1.36-3.57zm3.762-.64H4.69V-5.5h1.297v-.648H4.691v-1.73H4v1.73H2.7v.648H4v1.898H2.95V.41h.66v-.59h2.1zM3.61-.801v-2.18h1.46V-.8zm0 0"/></symbol><symbol overflow="visible" id="d"><path d="M3.32-8.14v2.769H.672v.691H3.32v3.211c-.89.418-1.82.739-2.8.957L.69.2c.93-.258 1.809-.57 2.63-.949V.93h.738v-9.07zM8.22.84c.43 0 .73-.121.89-.36.16-.25.262-.96.32-2.128l-.679-.223c-.031 1.02-.09 1.61-.172 1.793C8.48.078 8.32.16 8.102.16h-1.25c-.25 0-.372-.148-.372-.43v-3.84c.93-.32 1.91-.788 2.95-1.421l-.418-.59c-.82.57-1.66 1.012-2.532 1.332v-3.352h-.73v7.98c0 .661.309 1 .941 1zm0 0"/></symbol><symbol overflow="visible" id="e"><path d="M5.262-8.32l-.793.14c.203.32.39.68.55 1.07H1.302v2.93C1.28-2.16.98-.59.42.55l.59.528C1.662-.238 2-1.988 2.04-4.18v-2.242h7.41v-.687H5.81c-.18-.45-.36-.852-.547-1.211zm0 0"/></symbol><symbol overflow="visible" id="f"><path d="M.781-6.96v.698h2.14c-.53 1.024-1.1 1.852-1.71 2.512l.168.629h3.46v3c0 .293-.16.441-.468.441-.3 0-.61-.02-.941-.05l.148.71h1.043c.629 0 .95-.308.95-.921v-3.18h3.148v-.668H5.57v-1.48h-.73v1.48h-2.7a14.36 14.36 0 001.57-2.473h5.42v-.699h-5.1c.16-.367.32-.75.48-1.148l-.71-.16c-.18.46-.36.89-.551 1.308zM2.88-2.329A10.003 10.003 0 01.48-.102L.941.5C1.898-.18 2.72-.98 3.38-1.89zm4.33-.011l-.48.461c.95.86 1.7 1.66 2.238 2.419L9.5.02a16.925 16.925 0 00-2.29-2.36zm0 0"/></symbol><symbol overflow="visible" id="g"><path d="M1.23-8l-.511.488c.601.5 1.062.98 1.402 1.434l.5-.5A11.5 11.5 0 001.231-8zM.988-5.61l-.5.489c.602.5 1.082.98 1.422 1.441l.5-.5c-.379-.48-.86-.949-1.422-1.43zm.793 2.66A36.295 36.295 0 01.578.63l.672.293A42.328 42.328 0 002.41-2.71zm3.68-1.081c-.313.18-.633.351-.95.511v-2.152h.91V-6.3h-.91v-1.84H3.81v1.84H2.74v.63h1.07v2.452c-.368.14-.75.27-1.137.38l.168.69c.32-.113.64-.23.969-.363V-.16c0 .32-.11.48-.329.48C3.238.32 3 .3 2.738.281l.153.63h.808c.54 0 .813-.31.813-.911v-2.82c.316-.149.629-.309.949-.48zm3.578-3.95c-.91.36-1.93.56-3.07.583v3.847c-.047 1.7-.36 3.04-.938 4l.489.52c.699-1.13 1.07-2.64 1.12-4.52v-.71h1.282v5.28h.68v-5.28h.968v-.65H6.64v-1.91c1-.058 1.91-.25 2.731-.55zm0 0"/></symbol><symbol overflow="visible" id="h"><path d="M6.07-6.86v6.79h-3v.69h6.48v-.69H6.782v-6.79h2.43v-.68H3.559v.68zM1.25-7.987L.738-7.5c.762.5 1.364.98 1.801 1.43l.5-.5c-.48-.47-1.078-.942-1.789-1.418zM.988-5.602l-.5.493c.75.507 1.34 1 1.762 1.46l.5-.5A11.644 11.644 0 00.988-5.601zM2.27-2.949A28.672 28.672 0 01.61.6l.66.29a30.8 30.8 0 001.628-3.602zm0 0"/></symbol><symbol overflow="visible" id="i"><path d="M1.18-7.95l-.508.5c.738.528 1.328 1.028 1.75 1.5l.52-.51c-.481-.5-1.063-.99-1.762-1.49zM1-5.5l-.512.488c.703.512 1.242 1 1.633 1.461l.508-.52C2.19-4.55 1.649-5.02 1-5.5zm1.11 2.68A30.368 30.368 0 01.59.68l.719.308A31.023 31.023 0 002.762-2.57zm1.062-4.75v.699h4.887V-.18c0 .34-.16.508-.48.508-.477 0-.99-.02-1.52-.047l.16.688h1.61c.62 0 .94-.328.94-.969v-6.871h.782v-.7zm.437 2.23v3.68H6.75v-3.68zm2.47 3.02h-1.79v-2.371h1.79zm0 0"/></symbol><symbol overflow="visible" id="j"><path d="M.55-7.23v.68h4.04c-.059.331-.13.671-.2 1.01H1.103V.989h.707v-5.847h6.4v4.68c0 .28-.14.429-.422.429L6.86.23l.192.7h.98c.59 0 .89-.32.89-.95v-5.52H5.13c.07-.32.14-.651.2-1.01h4.12v-.68H5.441c.04-.29.07-.59.098-.899l-.73-.101-.118 1zm3.33 2.69l-.64.24c.21.312.39.652.542 1.01H2.68v.63h1.968v1.05H2.36v.641h2.29V.84h.703V-.97h2.296v-.64H5.352v-1.05h2v-.63H6.21c.2-.32.39-.67.57-1.062l-.66-.238c-.18.461-.383.89-.601 1.3h-1.05a7.488 7.488 0 00-.59-1.25zm0 0"/></symbol><symbol overflow="visible" id="k"><path d="M9.148-7.191H5.43a9.89 9.89 0 00-.45-1.059l-.8.14c.172.282.32.579.46.919H.84v2.14h.738v-1.437H8.41v1.449h.738zM.602-4.411v.7h2.41c-.32.55-.66 1.11-1.024 1.672.934.3 1.864.648 2.801 1.05C3.73-.178 2.34.232.641.239l.418.672C2.922.852 4.399.328 5.519-.672A35.405 35.405 0 018.7.988L9.18.36a31.218 31.218 0 00-3.14-1.558c.531-.621 1-1.45 1.41-2.512h1.973v-.7H4.25c.238-.44.488-.91.75-1.41l-.738-.218a62.17 62.17 0 01-.864 1.629zm3.257.7H6.66c-.34.883-.78 1.621-1.32 2.211-.79-.328-1.559-.61-2.32-.828.261-.402.539-.863.84-1.383zm0 0"/></symbol><symbol overflow="visible" id="l"><path d="M2.27-8.2c-.4.93-1.032 1.76-1.9 2.482l.207.68c1.063-.84 1.82-1.8 2.3-2.883zm.28 2.27c-.44 1.121-1.14 2.121-2.109 3l.207.66a9.72 9.72 0 00.993-.968V.988h.68v-5.097c.327-.48.6-1 .82-1.551zm1.962-2.242v1.762h-.684V-7.8h-.566v1.972h3.09v-1.973h-.57v1.39H5.09v-1.76zM3.109-5.148v.617H6.25c-.07.133-.14.261-.21.383l.358.457c.211-.297.403-.637.57-1.02.122 1.14.36 2.191.723 3.133A5.9 5.9 0 016.641.129c-.18-.399-.38-.777-.582-1.117l-.48.226c.21.371.41.793.6 1.262L6.41.39l.36.56c.5-.49.92-1.08 1.26-1.77.31.64.701 1.23 1.17 1.76l.45-.52a7.733 7.733 0 01-1.297-2.01c.43-1.2.668-2.641.707-4.34h.39v-.65H7.59c.11-.452.2-.94.282-1.46l-.66-.121c-.18 1.45-.492 2.648-.941 3.59v-.578zm4.301-.743c0-.007 0-.02.012-.039H8.46C8.43-4.62 8.28-3.469 8-2.48c-.34-1-.531-2.141-.59-3.41zM3.46-.898A5.217 5.217 0 012.673.328l.469.344c.308-.383.578-.82.808-1.332zM5.98-2.73l-.511.171c.101.16.203.34.3.54-.597.097-1.199.18-1.789.238.801-.52 1.5-1.117 2.098-1.778l-.558-.21c-.141.16-.29.32-.45.48-.41.039-.82.07-1.218.098.418-.32.796-.68 1.136-1.09L4.441-4.5a7.02 7.02 0 01-1.41 1.352l.13.457c.46-.02.917-.059 1.39-.118-.473.399-.98.77-1.54 1.11l.13.488c.46-.039.93-.09 1.41-.148V.12c0 .16-.082.25-.223.25-.18 0-.367-.02-.558-.043l.128.594h.641c.422 0 .64-.223.64-.64v-1.743l.79-.148c.07.14.14.289.203.449l.5-.219c-.203-.48-.434-.93-.692-1.351zm0 0"/></symbol><symbol overflow="visible" id="m"><path d="M.54-7.738v.699h2.98v1.527H1.14V.941h.72V.488h6.3v.453h.719v-6.453H6.44v-1.527h3.02v-.7zM1.86-.191v-4.637h1.66v.2C3.5-3.27 3-2.282 2.02-1.66l.558.488C3.66-1.898 4.211-3.05 4.23-4.629v-.2h1.5v2.067c0 .653.32.98.98.98h1.45v1.59zM4.23-7.04h1.5v1.527h-1.5zm2.211 2.21h1.72v2.388H6.897c-.308 0-.457-.16-.457-.47zm0 0"/></symbol><symbol overflow="visible" id="n"><path d="M8.3-3.27l-.562.348c.563.863 1.012 1.652 1.34 2.363l.55-.402c-.308-.66-.75-1.43-1.327-2.309zm-6.421.098c-.3.82-.738 1.48-1.34 1.98l.54.473c.6-.5 1.081-1.242 1.44-2.203zm2.3-2.45v.95H1.43v.703h2.712c-.082.98-.29 1.797-.653 2.48-.457.778-1.277 1.4-2.457 1.88l.399.64C2.64.551 3.512-.12 4.05-.98c.462-.782.731-1.77.829-2.989H6.94c-.05 1.719-.152 2.848-.3 3.367-.153.512-.461.774-.93.774-.402 0-.82-.012-1.262-.024l.192.68h1.418c.46-.027.793-.2 1.011-.508.2-.32.352-.898.45-1.718.082-.84.128-1.93.171-3.274H4.92v-.95zM.65-7.108v.687h2.26v.902h.73v-.902h2.622v.91h.726v-.91h2.364v-.687H6.988v-1.02h-.726v1.02H3.64v-1.02h-.73v1.02zm0 0"/></symbol><symbol overflow="visible" id="o"><path d="M1.54-5.23v3.32h3.089v.691h-3.55v.578h3.55v.75H.579v.63h8.843v-.63h-4.07v-.75H8.93v-.578H5.352v-.691h3.097v-3.32H5.352v-.641h3.93v-.617h-3.93v-.762A73.97 73.97 0 008.46-7.5l-.223-.602c-1.988.223-4.289.372-6.886.454l.117.59c1.101-.044 2.152-.09 3.16-.153v.723H.719v.617h3.91v.64zm6.21 2.742H5.352v-.813H7.75zm-3.121 0H2.23v-.813h2.4zM2.23-3.86v-.79h2.4v.79zm3.122-.79H7.75v.79H5.352zm0 0"/></symbol><symbol overflow="visible" id="p"><path d="M2.531-4.129v.668h2.707C4.84-1.879 3.738-.57 1.961.461l.41.59C4.148-.031 5.301-1.38 5.81-3.012c.56 1.684 1.67 3.024 3.31 4l.43-.566C7.93-.5 6.84-1.801 6.289-3.461H9.25v-.668H6.102c-.024-.05-.032-.11-.043-.172.03-.46.05-1 .05-1.62h-.68c0 .28-.007.683-.007 1.202a19.6 19.6 0 01-.05.59zM5.25-8.23l-.79.14c.22.3.411.621.59.98H1.3v2.91C1.27-2.2.96-.628.36.489l.562.5C1.629-.309 2-2.039 2.039-4.199v-2.223h7.41v-.687H5.83a9.055 9.055 0 00-.58-1.121zm0 0"/></symbol><symbol overflow="visible" id="q"><path d="M8.219-6.469V-.55H5.37v-7.558h-.74V-.55H1.77V-6.5h-.718V.8h.719V.14H8.22v.67h.722v-7.28zm0 0"/></symbol><symbol overflow="visible" id="r"><path d="M3.805-7.11h.941v5.036c0 .68-.203 1.21-.613 1.597-.406.383-.953.575-1.633.575-.707 0-1.258-.18-1.648-.543-.395-.36-.594-.867-.594-1.516h.937c0 .406.114.723.336.95.223.23.547.343.969.343.387 0 .7-.121.941-.367.239-.246.36-.586.364-1.028zm0 0"/></symbol><symbol overflow="visible" id="s"><path d="M3.945 0c-.05-.105-.093-.29-.125-.555-.422.434-.922.653-1.507.653-.52 0-.946-.149-1.282-.442a1.438 1.438 0 01-.5-1.12c0-.552.211-.977.63-1.282.417-.305 1.007-.457 1.765-.457h.879v-.414c0-.317-.094-.567-.285-.754-.188-.188-.465-.281-.833-.281-.324 0-.593.082-.812.242-.219.164-.328.36-.328.59H.64c0-.262.093-.516.28-.762.188-.246.442-.441.763-.582.32-.145.671-.219 1.054-.219.61 0 1.086.153 1.434.457.344.305.523.727.535 1.258v2.434c0 .484.063.87.184 1.156V0zm-1.5-.688c.285 0 .555-.074.805-.218a1.35 1.35 0 00.555-.574v-1.083h-.711c-1.106 0-1.656.325-1.656.97 0 .284.093.507.28.663.188.16.43.243.727.243zm0 0"/></symbol><symbol overflow="visible" id="t"><path d="M1.54-5.281l.026.664a1.93 1.93 0 011.582-.766c1.118 0 1.68.633 1.692 1.89V0h-.902v-3.496c-.004-.379-.094-.664-.262-.844-.172-.183-.438-.273-.801-.273-.293 0-.55.078-.77.234a1.59 1.59 0 00-.52.613V0h-.9v-5.281zm0 0"/></symbol><symbol overflow="visible" id="u"><path d="M3.559 0h-.907v-6.02l-1.824.668v-.82l2.59-.973h.14zm0 0"/></symbol><symbol overflow="visible" id="v"><path d="M1.906-3.992h.676c.426-.008.762-.121 1.008-.34.242-.219.363-.512.363-.883 0-.832-.414-1.25-1.242-1.25-.39 0-.703.113-.938.336-.23.223-.347.516-.347.887H.523c0-.563.204-1.031.618-1.406.41-.372.933-.559 1.57-.559.672 0 1.195.176 1.578.531.379.356.57.848.57 1.48 0 .31-.101.61-.3.9a1.81 1.81 0 01-.817.648c.39.125.692.328.903.617.214.285.32.636.32 1.047 0 .64-.207 1.144-.625 1.52-.418.374-.957.562-1.625.562s-1.211-.18-1.63-.543c-.417-.36-.624-.836-.624-1.43h.906c0 .375.121.672.367.898.243.227.57.336.98.336.438 0 .77-.113 1-.34.231-.23.349-.554.349-.98 0-.414-.125-.734-.383-.953-.254-.223-.618-.336-1.098-.344h-.676zm0 0"/></symbol><symbol overflow="visible" id="w"><path d="M5.25 0H.59v-.648l2.46-2.735c.364-.414.618-.75.755-1.008.14-.257.21-.527.21-.804 0-.371-.113-.676-.34-.914-.222-.239-.523-.356-.898-.356-.449 0-.797.13-1.047.383-.25.254-.37.613-.37 1.066H.452c0-.652.211-1.183.633-1.586.422-.402.984-.605 1.691-.605.66 0 1.184.172 1.567.52.386.347.578.808.578 1.382 0 .703-.445 1.535-1.336 2.5L1.68-.738h3.57zm0 0"/></symbol><symbol overflow="visible" id="x"><path d="M5.047-3.031c0 1.058-.18 1.844-.54 2.36-.362.51-.925.769-1.694.769-.758 0-1.32-.25-1.684-.754C.766-1.16.574-1.91.562-2.91v-1.207c0-1.043.18-1.82.54-2.328.363-.508.93-.762 1.703-.762.765 0 1.328.246 1.687.734.36.489.547 1.246.555 2.27zm-.902-1.235c0-.765-.106-1.324-.32-1.675-.216-.348-.555-.524-1.02-.524-.465 0-.801.176-1.012.524-.211.347-.32.882-.328 1.605v1.445c0 .77.113 1.336.336 1.704.222.367.558.546 1.012.546.445 0 .777-.171.992-.515.218-.344.332-.89.34-1.633zm0 0"/></symbol><symbol overflow="visible" id="y"><path d="M5.18-6.602L2.234 0H1.29l2.934-6.367H.375v-.742H5.18zm0 0"/></symbol><symbol overflow="visible" id="z"><path d="M4.746-3.14H1.762V0H.824v-7.11H5.23v.774H1.762v2.43h2.984zm0 0"/></symbol><symbol overflow="visible" id="A"><path d="M2.875.098c-.715 0-1.297-.235-1.746-.707-.45-.47-.676-1.098-.676-1.887v-.164c0-.524.102-.992.3-1.406.2-.41.481-.735.84-.965.36-.235.75-.352 1.173-.352.687 0 1.218.227 1.601.68.38.453.57 1.101.57 1.945v.375H1.36c.012.52.164.942.454 1.262.292.32.664.48 1.113.48.316 0 .59-.062.808-.195.223-.129.414-.3.582-.516l.551.43c-.441.68-1.105 1.02-1.992 1.02zm-.11-4.739a1.21 1.21 0 00-.921.399c-.246.265-.399.64-.457 1.117H4.03v-.07c-.023-.457-.148-.813-.367-1.067-.223-.25-.523-.379-.898-.379zm0 0"/></symbol><symbol overflow="visible" id="B"><path d="M5.156-2.582c0 .809-.187 1.453-.554 1.945-.372.489-.872.735-1.497.735-.667 0-1.183-.235-1.546-.707L1.516 0H.684v-7.5h.902v2.797c.367-.453.867-.68 1.508-.68.64 0 1.148.246 1.511.73.368.485.551 1.15.551 1.993zm-.902-.106c0-.613-.121-1.09-.356-1.421-.238-.336-.582-.504-1.027-.504-.598 0-1.023.277-1.285.828V-1.5c.277.555.71.832 1.297.832.43 0 .77-.168 1.008-.504.242-.336.363-.84.363-1.516zm0 0"/></symbol><symbol overflow="visible" id="C"><path d="M4.406-2.387h.985v.739h-.985V0h-.91v-1.648H.258v-.536L3.44-7.109h.965zm-3.12 0h2.21v-3.488l-.105.195zm0 0"/></symbol></defs><path d="M33.145 248.32V4m11.843 244.32V4m11.848 244.32V4M68.68 248.32V4m11.847 244.32V4m11.848 244.32V4m11.844 244.32V4m11.847 244.32V4m11.844 244.32V4m11.848 244.32V4m11.844 244.32V4m11.848 244.32V4m11.843 244.32V4m11.847 244.32V4m11.844 244.32V4m11.848 244.32V4m11.844 244.32V4m11.847 244.32V4m11.844 244.32V4m11.848 244.32V4m11.844 244.32V4m11.847 244.32V4m11.848 244.32V4m11.844 244.32V4m11.847 244.32V4m11.845 244.32V4m11.847 244.32V4m11.843 244.32V4m11.848 244.32V4m11.844 244.32V4m11.848 244.32V4m11.843 244.32V4m11.847 244.32V4m11.845 244.32V4M25 233.438h407.2M25 179.496h407.2M25 125.555h407.2M25 71.613h407.2M25 17.672h407.2" fill="none" stroke="#666" stroke-opacity=".5" stroke-dasharray="1,2" stroke-miterlimit="3.25"/><path d="M364.828 90.168l11.844 11.469 11.848 30.031 11.843 21.621 11.848 28.637 11.844 26.828" fill="none" stroke-width="1.6" stroke-linecap="square" stroke="#a60000" stroke-opacity=".3" stroke-miterlimit="3.25"/><path d="M364.828 117.625l11.844 6.242 11.848 25.953 11.843 16.832 11.848 24.04 11.844 22.003" fill="none" stroke-width="1.6" stroke-linecap="square" stroke="#0d86a0" stroke-opacity=".3" stroke-miterlimit="3.25"/><path d="M364.828 231.008l11.844.844 11.848.765 11.843.848 11.848.84 11.844.882" fill="none" stroke-width="1.6" stroke-linecap="square" stroke="#c05c20" stroke-opacity=".3" stroke-miterlimit="3.25"/><path d="M364.828 231.98l11.844.739 11.848.812 11.843.824 11.848.86 11.844.89" fill="none" stroke-width="1.6" stroke-linecap="square" stroke="#6f42b5" stroke-opacity=".3" stroke-miterlimit="3.25"/><path d="M364.828 230.578l11.844.274 11.848.578 11.843.457 11.848.566 11.844.547" fill="none" stroke-width="1.6" stroke-linecap="square" stroke="#769003" stroke-opacity=".3" stroke-miterlimit="3.25"/><path d="M364.828 231.547l11.844.969 11.848.183 11.843.684 11.848.344 11.844.55" fill="none" stroke-width="1.6" stroke-linecap="square" stroke="#a8364d" stroke-opacity=".3" stroke-miterlimit="3.25"/><path d="M364.828 230.957l11.844.813 11.848 1.066 11.843 1.008 11.848 1.105 11.844 1.117" fill="none" stroke-width="1.6" stroke-linecap="square" stroke="#3664cc" stroke-opacity=".3" stroke-miterlimit="3.25"/><path d="M364.828 231.172l11.844.418 11.848.097 11.843.227 11.848.152 11.844.172" fill="none" stroke-width="1.6" stroke-linecap="square" stroke="#c8860a" stroke-opacity=".3" stroke-miterlimit="3.25"/><path d="M364.828 231.871l11.844.184 11.848.14 11.843.172 11.848.16 11.844.176" fill="none" stroke-width="1.6" stroke-linecap="square" stroke="#833987" stroke-opacity=".3" stroke-miterlimit="3.25"/><path d="M364.828 232.36l11.844.038 11.848-.132 11.843-.059 11.848-.113 11.844-.098" fill="none" stroke-width="1.6" stroke-linecap="square" stroke="#1c8f6b" stroke-opacity=".3" stroke-miterlimit="3.25"/><path d="M364.828 231.926l11.844.285 11.848.098 11.843.222 11.848.14 11.844.192" fill="none" stroke-width="1.6" stroke-linecap="square" stroke="#a54f05" stroke-opacity=".3" stroke-miterlimit="3.25"/><path d="M33.145 231.227l11.843 2.21h35.54l11.847-.214 11.844-.703 11.847-2.266 11.844-1.024 11.848-.757 11.844-3.075 11.847.973 11.844-6.906 11.848-9.977 11.843-13.164 11.848-4.367 11.844-54.05 11.847 16.827 11.844-14.996 11.848-13.215 11.844-6.472 11.847-26.324 11.848-12.891 11.844-21.898 11.847-35.172 11.844 10.41 11.848 29.722L352.98 50.09l11.848 40.078" fill="none" stroke-width="1.6" stroke-linecap="square" stroke="#a60000" stroke-miterlimit="3.25"/><path d="M33.145 231.227l11.843 2.21h35.54l11.847-.214 11.844-.703 11.847-2.266 11.844-.973 11.848.274 11.844-1.782 11.847 1.942 11.844-1.942 11.848-4.046 11.843-7.715 11.848-2.586 11.844-49.63 11.847 24.329 11.844-10.355 11.848-10.141 11.844-6.852 11.847-30.96 11.848-9.82 11.844-13.052 11.847-43.75 11.844 9.117 11.848 29.13 11.843-21.254 11.848 37.437" fill="none" stroke-width="1.6" stroke-linecap="square" stroke="#0d86a0" stroke-miterlimit="3.25"/><path d="M33.145 233.438h82.921l11.844-.055 11.848-.649 11.844.055 11.847.324 11.844-.808 11.848-.215 11.843.27 11.848-1.512 11.844.324 11.847-.594 11.844-.918 11.848-.648 11.844-2.426 11.847 2.32 11.848.27 11.844-1.887 11.847 2.211 11.844-.055h11.848l11.843.918 11.848.645" fill="none" stroke-width="1.6" stroke-linecap="square" stroke="#c05c20" stroke-miterlimit="3.25"/><path d="M33.145 233.438h106.613l11.844-.27h11.847l11.844-1.512 11.848.754 11.843-1.238 11.848.969 11.844-1.133 11.847-4.207 11.844-.485 11.848 1.243 11.844 2.535h11.847l11.848-.055 11.844-2.266 11.847 2.102 11.844.379 11.848.379 11.843.539 11.848.808" fill="none" stroke-width="1.6" stroke-linecap="square" stroke="#6f42b5" stroke-miterlimit="3.25"/><path d="M33.145 233.438h106.613l11.844-.055 11.847-.16h11.844l11.848-1.028 11.843-1.507 11.848.32 11.844.27 11.847.109 11.844-1.832 11.848-.11 11.844.215 11.847-.055 11.848-.105 11.844-1.941 11.847 1.078 11.844.105 11.848 1.297 11.843-.215 11.848.754" fill="none" stroke-width="1.6" stroke-linecap="square" stroke="#769003" stroke-miterlimit="3.25"/><path d="M33.145 233.438h106.613l11.844-.055 11.847-.38 11.844-.374 11.848-.219 11.843-.375 11.848-.27 11.844-.648 11.847-1.887 11.844 1.184 11.848.055 11.844-.106 11.847-.918 11.848.864 11.844-.754 11.847.215 11.844.968 11.848-.593 11.843 1.62 11.848-.218" fill="none" stroke-width="1.6" stroke-linecap="square" stroke="#a8364d" stroke-miterlimit="3.25"/><path d="M33.145 233.438h118.457l11.847-.055 11.844-.703 11.848-.54 11.843.165 11.848.593 11.844-1.402 11.847-.539 11.844-.11 11.848.594 11.844-1.242 11.847.918 11.848-1.347 11.844-.215 11.847 1.183 11.844-.593 11.848-.7 11.843.325 11.848 1.187" fill="none" stroke-width="1.6" stroke-linecap="square" stroke="#3664cc" stroke-miterlimit="3.25"/><path d="M33.145 233.438h106.613l11.844-.11 11.847.055 11.844-.16 11.848-.38 11.843-.378 11.848.324 11.844-.648 11.847-.7 11.844-.863 11.848-1.297 11.844 1.621h11.847l11.848-.648 11.844-1.402 11.847.703 11.844 1.078 11.848-.488 11.843 1.296 11.848-.27" fill="none" stroke-width="1.6" stroke-linecap="square" stroke="#c8860a" stroke-miterlimit="3.25"/><path d="M33.145 233.438h118.457l11.847-.055 11.844-.38 11.848-.054 11.843-.215 11.848-.16 11.844-.379 11.847-.324 11.844-.055 11.848-.484 11.844.27h11.847l11.848-.055 11.844-.106 11.847.215 11.844.055 11.848-.164 11.843.219 11.848.105" fill="none" stroke-width="1.6" stroke-linecap="square" stroke="#833987" stroke-miterlimit="3.25"/><path d="M33.145 233.438h106.613l11.844-.27 11.847.055 11.844-.758 11.848-.649 11.843.649 11.848-.918 11.844.703 11.847.379 11.844-.164 11.848-1.238 11.844.484 11.847.43 11.848-.754 11.844.054 11.847.43 11.844.324 11.848.055 11.843.379 11.848-.27" fill="none" stroke-width="1.6" stroke-linecap="square" stroke="#1c8f6b" stroke-miterlimit="3.25"/><path d="M33.145 233.438h106.613l11.844-.055 11.847-.215 11.844.105 11.848-.484 11.843-.324 11.848-.324h11.844l11.847-.54 11.844.54 11.848-.485 11.844.485 11.847.054 11.848.11 11.844-.164 11.847-.215 11.844-.918 11.848.488 11.843.43h11.848" fill="none" stroke-width="1.6" stroke-linecap="square" stroke="#a54f05" stroke-miterlimit="3.25"/><path d="M366.492 90c0-.395-.156-.777-.437-1.055a1.483 1.483 0 00-1.055-.437 1.49 1.49 0 00-1.055 2.547 1.49 1.49 0 002.11 0c.28-.278.437-.66.437-1.055zm12 12c0-.395-.156-.777-.437-1.055a1.483 1.483 0 00-1.055-.437 1.49 1.49 0 00-1.055 2.547 1.49 1.49 0 002.11 0c.28-.278.437-.66.437-1.055zm12 30c0-.395-.156-.777-.437-1.055a1.483 1.483 0 00-1.055-.437 1.49 1.49 0 00-1.055 2.547 1.49 1.49 0 002.11 0c.28-.278.437-.66.437-1.055zm11 21c0-.395-.156-.777-.437-1.055a1.483 1.483 0 00-1.055-.437 1.49 1.49 0 00-1.055 2.547 1.49 1.49 0 002.11 0c.28-.278.437-.66.437-1.055zm12 29c0-.395-.156-.777-.437-1.055a1.483 1.483 0 00-1.055-.437 1.49 1.49 0 00-1.055 2.547 1.49 1.49 0 002.11 0c.28-.278.437-.66.437-1.055zm12 27c0-.395-.156-.777-.437-1.055a1.483 1.483 0 00-1.055-.437 1.49 1.49 0 00-1.055 2.547 1.49 1.49 0 002.11 0c.28-.278.437-.66.437-1.055zm0 0" fill-rule="evenodd" fill="#a60000" fill-opacity=".3"/><path d="M366.492 118c0-.395-.156-.777-.437-1.055a1.483 1.483 0 00-1.055-.437 1.49 1.49 0 00-1.055 2.547 1.49 1.49 0 002.11 0c.28-.278.437-.66.437-1.055zm12 6c0-.395-.156-.777-.437-1.055a1.483 1.483 0 00-1.055-.437 1.49 1.49 0 00-1.055 2.547 1.49 1.49 0 002.11 0c.28-.278.437-.66.437-1.055zm12 26c0-.395-.156-.777-.437-1.055a1.483 1.483 0 00-1.055-.437 1.49 1.49 0 00-1.055 2.547 1.49 1.49 0 002.11 0c.28-.278.437-.66.437-1.055zm11 17c0-.395-.156-.777-.437-1.055a1.483 1.483 0 00-1.055-.437 1.49 1.49 0 00-1.055 2.547 1.49 1.49 0 002.11 0c.28-.278.437-.66.437-1.055zm12 24c0-.395-.156-.777-.437-1.055a1.483 1.483 0 00-1.055-.437 1.49 1.49 0 00-1.055 2.547 1.49 1.49 0 002.11 0c.28-.278.437-.66.437-1.055zm12 22c0-.395-.156-.777-.437-1.055a1.483 1.483 0 00-1.055-.437 1.49 1.49 0 00-1.055 2.547 1.49 1.49 0 002.11 0c.28-.278.437-.66.437-1.055zm0 0" fill-rule="evenodd" fill="#0d86a0" fill-opacity=".3"/><path d="M366.492 231c0-.395-.156-.777-.437-1.055a1.483 1.483 0 00-1.055-.437 1.49 1.49 0 00-1.055 2.547 1.49 1.49 0 002.11 0c.28-.278.437-.66.437-1.055zm12 1c0-.395-.156-.777-.437-1.055a1.483 1.483 0 00-1.055-.437 1.49 1.49 0 00-1.055 2.547 1.49 1.49 0 002.11 0c.28-.278.437-.66.437-1.055zm12 1c0-.395-.156-.777-.437-1.055a1.483 1.483 0 00-1.055-.437 1.49 1.49 0 00-1.055 2.547 1.49 1.49 0 002.11 0c.28-.278.437-.66.437-1.055zm11 0c0-.395-.156-.777-.437-1.055a1.483 1.483 0 00-1.055-.437 1.49 1.49 0 00-1.055 2.547 1.49 1.49 0 002.11 0c.28-.278.437-.66.437-1.055zm12 1c0-.395-.156-.777-.437-1.055a1.483 1.483 0 00-1.055-.437 1.49 1.49 0 00-1.055 2.547 1.49 1.49 0 002.11 0c.28-.278.437-.66.437-1.055zm12 1c0-.395-.156-.777-.437-1.055a1.483 1.483 0 00-1.055-.437 1.49 1.49 0 00-1.055 2.547 1.49 1.49 0 002.11 0c.28-.278.437-.66.437-1.055zm0 0" fill-rule="evenodd" fill="#c05c20" fill-opacity=".3"/><path d="M366.492 232c0-.395-.156-.777-.437-1.055a1.483 1.483 0 00-1.055-.437 1.49 1.49 0 00-1.055 2.547 1.49 1.49 0 002.11 0c.28-.278.437-.66.437-1.055zm12 1c0-.395-.156-.777-.437-1.055a1.483 1.483 0 00-1.055-.437 1.49 1.49 0 00-1.055 2.547 1.49 1.49 0 002.11 0c.28-.278.437-.66.437-1.055zm12 1c0-.395-.156-.777-.437-1.055a1.483 1.483 0 00-1.055-.437 1.49 1.49 0 00-1.055 2.547 1.49 1.49 0 002.11 0c.28-.278.437-.66.437-1.055zm11 0c0-.395-.156-.777-.437-1.055a1.483 1.483 0 00-1.055-.437 1.49 1.49 0 00-1.055 2.547 1.49 1.49 0 002.11 0c.28-.278.437-.66.437-1.055zm12 1c0-.395-.156-.777-.437-1.055a1.483 1.483 0 00-1.055-.437 1.49 1.49 0 00-1.055 2.547 1.49 1.49 0 002.11 0c.28-.278.437-.66.437-1.055zm12 1c0-.395-.156-.777-.437-1.055a1.483 1.483 0 00-1.055-.437 1.49 1.49 0 00-1.055 2.547 1.49 1.49 0 002.11 0c.28-.278.437-.66.437-1.055zm0 0" fill-rule="evenodd" fill="#6f42b5" fill-opacity=".3"/><path d="M366.492 231c0-.395-.156-.777-.437-1.055a1.483 1.483 0 00-1.055-.437 1.49 1.49 0 00-1.055 2.547 1.49 1.49 0 002.11 0c.28-.278.437-.66.437-1.055zm12 0c0-.395-.156-.777-.437-1.055a1.483 1.483 0 00-1.055-.437 1.49 1.49 0 00-1.055 2.547 1.49 1.49 0 002.11 0c.28-.278.437-.66.437-1.055zm12 0c0-.395-.156-.777-.437-1.055a1.483 1.483 0 00-1.055-.437 1.49 1.49 0 00-1.055 2.547 1.49 1.49 0 002.11 0c.28-.278.437-.66.437-1.055zm11 1c0-.395-.156-.777-.437-1.055a1.483 1.483 0 00-1.055-.437 1.49 1.49 0 00-1.055 2.547 1.49 1.49 0 002.11 0c.28-.278.437-.66.437-1.055zm12 0c0-.395-.156-.777-.437-1.055a1.483 1.483 0 00-1.055-.437 1.49 1.49 0 00-1.055 2.547 1.49 1.49 0 002.11 0c.28-.278.437-.66.437-1.055zm12 1c0-.395-.156-.777-.437-1.055a1.483 1.483 0 00-1.055-.437 1.49 1.49 0 00-1.055 2.547 1.49 1.49 0 002.11 0c.28-.278.437-.66.437-1.055zm0 0" fill-rule="evenodd" fill="#769003" fill-opacity=".3"/><path d="M366.492 232c0-.395-.156-.777-.437-1.055a1.483 1.483 0 00-1.055-.437 1.49 1.49 0 00-1.055 2.547 1.49 1.49 0 002.11 0c.28-.278.437-.66.437-1.055zm12 1c0-.395-.156-.777-.437-1.055a1.483 1.483 0 00-1.055-.437 1.49 1.49 0 00-1.055 2.547 1.49 1.49 0 002.11 0c.28-.278.437-.66.437-1.055zm12 0c0-.395-.156-.777-.437-1.055a1.483 1.483 0 00-1.055-.437 1.49 1.49 0 00-1.055 2.547 1.49 1.49 0 002.11 0c.28-.278.437-.66.437-1.055zm11 0c0-.395-.156-.777-.437-1.055a1.483 1.483 0 00-1.055-.437 1.49 1.49 0 00-1.055 2.547 1.49 1.49 0 002.11 0c.28-.278.437-.66.437-1.055zm12 1c0-.395-.156-.777-.437-1.055a1.483 1.483 0 00-1.055-.437 1.49 1.49 0 00-1.055 2.547 1.49 1.49 0 002.11 0c.28-.278.437-.66.437-1.055zm12 0c0-.395-.156-.777-.437-1.055a1.483 1.483 0 00-1.055-.437 1.49 1.49 0 00-1.055 2.547 1.49 1.49 0 002.11 0c.28-.278.437-.66.437-1.055zm0 0" fill-rule="evenodd" fill="#a8364d" fill-opacity=".3"/><path d="M366.492 231c0-.395-.156-.777-.437-1.055a1.483 1.483 0 00-1.055-.437 1.49 1.49 0 00-1.055 2.547 1.49 1.49 0 002.11 0c.28-.278.437-.66.437-1.055zm12 1c0-.395-.156-.777-.437-1.055a1.483 1.483 0 00-1.055-.437 1.49 1.49 0 00-1.055 2.547 1.49 1.49 0 002.11 0c.28-.278.437-.66.437-1.055zm12 1c0-.395-.156-.777-.437-1.055a1.483 1.483 0 00-1.055-.437 1.49 1.49 0 00-1.055 2.547 1.49 1.49 0 002.11 0c.28-.278.437-.66.437-1.055zm11 1c0-.395-.156-.777-.437-1.055a1.483 1.483 0 00-1.055-.437 1.49 1.49 0 00-1.055 2.547 1.49 1.49 0 002.11 0c.28-.278.437-.66.437-1.055zm12 1c0-.395-.156-.777-.437-1.055a1.483 1.483 0 00-1.055-.437 1.49 1.49 0 00-1.055 2.547 1.49 1.49 0 002.11 0c.28-.278.437-.66.437-1.055zm12 1c0-.395-.156-.777-.437-1.055a1.483 1.483 0 00-1.055-.437 1.49 1.49 0 00-1.055 2.547 1.49 1.49 0 002.11 0c.28-.278.437-.66.437-1.055zm0 0" fill-rule="evenodd" fill="#3664cc" fill-opacity=".3"/><path d="M366.492 231c0-.395-.156-.777-.437-1.055a1.483 1.483 0 00-1.055-.437 1.49 1.49 0 00-1.055 2.547 1.49 1.49 0 002.11 0c.28-.278.437-.66.437-1.055zm12 1c0-.395-.156-.777-.437-1.055a1.483 1.483 0 00-1.055-.437 1.49 1.49 0 00-1.055 2.547 1.49 1.49 0 002.11 0c.28-.278.437-.66.437-1.055zm12 0c0-.395-.156-.777-.437-1.055a1.483 1.483 0 00-1.055-.437 1.49 1.49 0 00-1.055 2.547 1.49 1.49 0 002.11 0c.28-.278.437-.66.437-1.055zm11 0c0-.395-.156-.777-.437-1.055a1.483 1.483 0 00-1.055-.437 1.49 1.49 0 00-1.055 2.547 1.49 1.49 0 002.11 0c.28-.278.437-.66.437-1.055zm12 0c0-.395-.156-.777-.437-1.055a1.483 1.483 0 00-1.055-.437 1.49 1.49 0 00-1.055 2.547 1.49 1.49 0 002.11 0c.28-.278.437-.66.437-1.055zm12 0c0-.395-.156-.777-.437-1.055a1.483 1.483 0 00-1.055-.437 1.49 1.49 0 00-1.055 2.547 1.49 1.49 0 002.11 0c.28-.278.437-.66.437-1.055zm0 0" fill-rule="evenodd" fill="#c8860a" fill-opacity=".3"/><path d="M366.492 232c0-.395-.156-.777-.437-1.055a1.483 1.483 0 00-1.055-.437 1.49 1.49 0 00-1.055 2.547 1.49 1.49 0 002.11 0c.28-.278.437-.66.437-1.055zm12 0c0-.395-.156-.777-.437-1.055a1.483 1.483 0 00-1.055-.437 1.49 1.49 0 00-1.055 2.547 1.49 1.49 0 002.11 0c.28-.278.437-.66.437-1.055zm12 0c0-.395-.156-.777-.437-1.055a1.483 1.483 0 00-1.055-.437 1.49 1.49 0 00-1.055 2.547 1.49 1.49 0 002.11 0c.28-.278.437-.66.437-1.055zm11 0c0-.395-.156-.777-.437-1.055a1.483 1.483 0 00-1.055-.437 1.49 1.49 0 00-1.055 2.547 1.49 1.49 0 002.11 0c.28-.278.437-.66.437-1.055zm12 1c0-.395-.156-.777-.437-1.055a1.483 1.483 0 00-1.055-.437 1.49 1.49 0 00-1.055 2.547 1.49 1.49 0 002.11 0c.28-.278.437-.66.437-1.055zm12 0c0-.395-.156-.777-.437-1.055a1.483 1.483 0 00-1.055-.437 1.49 1.49 0 00-1.055 2.547 1.49 1.49 0 002.11 0c.28-.278.437-.66.437-1.055zm0 0" fill-rule="evenodd" fill="#833987" fill-opacity=".3"/><path d="M366.492 232c0-.395-.156-.777-.437-1.055a1.483 1.483 0 00-1.055-.437 1.49 1.49 0 00-1.055 2.547 1.49 1.49 0 002.11 0c.28-.278.437-.66.437-1.055zm12 0c0-.395-.156-.777-.437-1.055a1.483 1.483 0 00-1.055-.437 1.49 1.49 0 00-1.055 2.547 1.49 1.49 0 002.11 0c.28-.278.437-.66.437-1.055zm12 0c0-.395-.156-.777-.437-1.055a1.483 1.483 0 00-1.055-.437 1.49 1.49 0 00-1.055 2.547 1.49 1.49 0 002.11 0c.28-.278.437-.66.437-1.055zm11 0c0-.395-.156-.777-.437-1.055a1.483 1.483 0 00-1.055-.437 1.49 1.49 0 00-1.055 2.547 1.49 1.49 0 002.11 0c.28-.278.437-.66.437-1.055zm12 0c0-.395-.156-.777-.437-1.055a1.483 1.483 0 00-1.055-.437 1.49 1.49 0 00-1.055 2.547 1.49 1.49 0 002.11 0c.28-.278.437-.66.437-1.055zm12 0c0-.395-.156-.777-.437-1.055a1.483 1.483 0 00-1.055-.437 1.49 1.49 0 00-1.055 2.547 1.49 1.49 0 002.11 0c.28-.278.437-.66.437-1.055zm0 0" fill-rule="evenodd" fill="#1c8f6b" fill-opacity=".3"/><path d="M366.492 232c0-.395-.156-.777-.437-1.055a1.483 1.483 0 00-1.055-.437 1.49 1.49 0 00-1.055 2.547 1.49 1.49 0 002.11 0c.28-.278.437-.66.437-1.055zm12 0c0-.395-.156-.777-.437-1.055a1.483 1.483 0 00-1.055-.437 1.49 1.49 0 00-1.055 2.547 1.49 1.49 0 002.11 0c.28-.278.437-.66.437-1.055zm12 0c0-.395-.156-.777-.437-1.055a1.483 1.483 0 00-1.055-.437 1.49 1.49 0 00-1.055 2.547 1.49 1.49 0 002.11 0c.28-.278.437-.66.437-1.055zm11 1c0-.395-.156-.777-.437-1.055a1.483 1.483 0 00-1.055-.437 1.49 1.49 0 00-1.055 2.547 1.49 1.49 0 002.11 0c.28-.278.437-.66.437-1.055zm12 0c0-.395-.156-.777-.437-1.055a1.483 1.483 0 00-1.055-.437 1.49 1.49 0 00-1.055 2.547 1.49 1.49 0 002.11 0c.28-.278.437-.66.437-1.055zm12 0c0-.395-.156-.777-.437-1.055a1.483 1.483 0 00-1.055-.437 1.49 1.49 0 00-1.055 2.547 1.49 1.49 0 002.11 0c.28-.278.437-.66.437-1.055zm0 0" fill-rule="evenodd" fill="#a54f05" fill-opacity=".3"/><path d="M34.492 231c0-.395-.156-.777-.437-1.055a1.483 1.483 0 00-1.055-.437 1.49 1.49 0 00-1.055 2.547 1.49 1.49 0 002.11 0c.28-.278.437-.66.437-1.055zm12 2c0-.395-.156-.777-.437-1.055a1.483 1.483 0 00-1.055-.437 1.49 1.49 0 00-1.055 2.547 1.49 1.49 0 002.11 0c.28-.278.437-.66.437-1.055zm12 0c0-.395-.156-.777-.437-1.055a1.483 1.483 0 00-1.055-.437 1.49 1.49 0 00-1.055 2.547 1.49 1.49 0 002.11 0c.28-.278.437-.66.437-1.055zm12 0c0-.395-.156-.777-.437-1.055a1.483 1.483 0 00-1.055-.437 1.49 1.49 0 00-1.055 2.547 1.49 1.49 0 002.11 0c.28-.278.437-.66.437-1.055zm12 0c0-.395-.156-.777-.437-1.055a1.483 1.483 0 00-1.055-.437 1.49 1.49 0 00-1.055 2.547 1.49 1.49 0 002.11 0c.28-.278.437-.66.437-1.055zm11 0c0-.395-.156-.777-.437-1.055a1.483 1.483 0 00-1.055-.437 1.49 1.49 0 00-1.055 2.547 1.49 1.49 0 002.11 0c.28-.278.437-.66.437-1.055zm12 0c0-.395-.156-.777-.437-1.055a1.483 1.483 0 00-1.055-.437 1.49 1.49 0 00-1.055 2.547 1.49 1.49 0 002.11 0c.28-.278.437-.66.437-1.055zm12-3c0-.395-.156-.777-.437-1.055a1.483 1.483 0 00-1.055-.437 1.49 1.49 0 00-1.055 2.547 1.49 1.49 0 002.11 0c.28-.278.437-.66.437-1.055zm12-1c0-.395-.156-.777-.437-1.055a1.483 1.483 0 00-1.055-.437 1.49 1.49 0 00-1.055 2.547 1.49 1.49 0 002.11 0c.28-.278.437-.66.437-1.055zm12-1c0-.395-.156-.777-.437-1.055a1.483 1.483 0 00-1.055-.437 1.49 1.49 0 00-1.055 2.547 1.49 1.49 0 002.11 0c.28-.278.437-.66.437-1.055zm12-3c0-.395-.156-.777-.437-1.055a1.483 1.483 0 00-1.055-.437 1.49 1.49 0 00-1.055 2.547 1.49 1.49 0 002.11 0c.28-.278.437-.66.437-1.055zm11 1c0-.395-.156-.777-.437-1.055a1.483 1.483 0 00-1.055-.437 1.49 1.49 0 00-1.055 2.547 1.49 1.49 0 002.11 0c.28-.278.437-.66.437-1.055zm12-7c0-.395-.156-.777-.437-1.055a1.483 1.483 0 00-1.055-.437 1.49 1.49 0 00-1.055 2.547 1.49 1.49 0 002.11 0c.28-.278.437-.66.437-1.055zm12-10c0-.395-.156-.777-.437-1.055a1.483 1.483 0 00-1.055-.437 1.49 1.49 0 00-1.055 2.547 1.49 1.49 0 002.11 0c.28-.278.437-.66.437-1.055zm12-13c0-.395-.156-.777-.437-1.055a1.483 1.483 0 00-1.055-.437 1.49 1.49 0 00-1.055 2.547 1.49 1.49 0 002.11 0c.28-.278.437-.66.437-1.055zm12-4c0-.395-.156-.777-.437-1.055a1.483 1.483 0 00-1.055-.437 1.49 1.49 0 00-1.055 2.547 1.49 1.49 0 002.11 0c.28-.278.437-.66.437-1.055zm12-54c0-.395-.156-.777-.437-1.055a1.483 1.483 0 00-1.055-.437 1.49 1.49 0 00-1.055 2.547 1.49 1.49 0 002.11 0c.28-.278.437-.66.437-1.055zm12 17c0-.395-.156-.777-.437-1.055a1.483 1.483 0 00-1.055-.437 1.49 1.49 0 00-1.055 2.547 1.49 1.49 0 002.11 0c.28-.278.437-.66.437-1.055zm11-15c0-.395-.156-.777-.437-1.055a1.483 1.483 0 00-1.055-.437 1.49 1.49 0 00-1.055 2.547 1.49 1.49 0 002.11 0c.28-.278.437-.66.437-1.055zm12-13c0-.395-.156-.777-.437-1.055a1.483 1.483 0 00-1.055-.437 1.49 1.49 0 00-1.055 2.547 1.49 1.49 0 002.11 0c.28-.278.437-.66.437-1.055zm12-7c0-.395-.156-.777-.437-1.055a1.483 1.483 0 00-1.055-.437 1.49 1.49 0 00-1.055 2.547 1.49 1.49 0 002.11 0c.28-.278.437-.66.437-1.055zm12-26c0-.395-.156-.777-.437-1.055a1.483 1.483 0 00-1.055-.437 1.49 1.49 0 00-1.055 2.547 1.49 1.49 0 002.11 0c.28-.278.437-.66.437-1.055zm12-13c0-.395-.156-.777-.437-1.055a1.483 1.483 0 00-1.055-.437 1.49 1.49 0 00-1.055 2.547 1.49 1.49 0 002.11 0c.28-.278.437-.66.437-1.055zm12-22c0-.395-.156-.777-.437-1.055a1.483 1.483 0 00-1.055-.437 1.49 1.49 0 00-1.055 2.547 1.49 1.49 0 002.11 0c.28-.278.437-.66.437-1.055zm11-35c0-.395-.156-.777-.437-1.055a1.483 1.483 0 00-1.055-.437 1.49 1.49 0 00-1.055 2.547 1.49 1.49 0 002.11 0c.28-.278.437-.66.437-1.055zm12 10c0-.395-.156-.777-.437-1.055a1.483 1.483 0 00-1.055-.437 1.49 1.49 0 00-1.055 2.547 1.49 1.49 0 002.11 0c.28-.278.437-.66.437-1.055zm12 30c0-.395-.156-.777-.437-1.055a1.483 1.483 0 00-1.055-.437 1.49 1.49 0 00-1.055 2.547 1.49 1.49 0 002.11 0c.28-.278.437-.66.437-1.055zm12-14c0-.395-.156-.777-.437-1.055a1.483 1.483 0 00-1.055-.437 1.49 1.49 0 00-1.055 2.547 1.49 1.49 0 002.11 0c.28-.278.437-.66.437-1.055zm12 40c0-.395-.156-.777-.437-1.055a1.483 1.483 0 00-1.055-.437 1.49 1.49 0 00-1.055 2.547 1.49 1.49 0 002.11 0c.28-.278.437-.66.437-1.055zm0 0" fill-rule="evenodd" fill="#a60000"/><path d="M34.492 231c0-.395-.156-.777-.437-1.055a1.483 1.483 0 00-1.055-.437 1.49 1.49 0 00-1.055 2.547 1.49 1.49 0 002.11 0c.28-.278.437-.66.437-1.055zm12 2c0-.395-.156-.777-.437-1.055a1.483 1.483 0 00-1.055-.437 1.49 1.49 0 00-1.055 2.547 1.49 1.49 0 002.11 0c.28-.278.437-.66.437-1.055zm12 0c0-.395-.156-.777-.437-1.055a1.483 1.483 0 00-1.055-.437 1.49 1.49 0 00-1.055 2.547 1.49 1.49 0 002.11 0c.28-.278.437-.66.437-1.055zm12 0c0-.395-.156-.777-.437-1.055a1.483 1.483 0 00-1.055-.437 1.49 1.49 0 00-1.055 2.547 1.49 1.49 0 002.11 0c.28-.278.437-.66.437-1.055zm12 0c0-.395-.156-.777-.437-1.055a1.483 1.483 0 00-1.055-.437 1.49 1.49 0 00-1.055 2.547 1.49 1.49 0 002.11 0c.28-.278.437-.66.437-1.055zm11 0c0-.395-.156-.777-.437-1.055a1.483 1.483 0 00-1.055-.437 1.49 1.49 0 00-1.055 2.547 1.49 1.49 0 002.11 0c.28-.278.437-.66.437-1.055zm12 0c0-.395-.156-.777-.437-1.055a1.483 1.483 0 00-1.055-.437 1.49 1.49 0 00-1.055 2.547 1.49 1.49 0 002.11 0c.28-.278.437-.66.437-1.055zm12-3c0-.395-.156-.777-.437-1.055a1.483 1.483 0 00-1.055-.437 1.49 1.49 0 00-1.055 2.547 1.49 1.49 0 002.11 0c.28-.278.437-.66.437-1.055zm12-1c0-.395-.156-.777-.437-1.055a1.483 1.483 0 00-1.055-.437 1.49 1.49 0 00-1.055 2.547 1.49 1.49 0 002.11 0c.28-.278.437-.66.437-1.055zm12 1c0-.395-.156-.777-.437-1.055a1.483 1.483 0 00-1.055-.437 1.49 1.49 0 00-1.055 2.547 1.49 1.49 0 002.11 0c.28-.278.437-.66.437-1.055zm12-2c0-.395-.156-.777-.437-1.055a1.483 1.483 0 00-1.055-.437 1.49 1.49 0 00-1.055 2.547 1.49 1.49 0 002.11 0c.28-.278.437-.66.437-1.055zm11 2c0-.395-.156-.777-.437-1.055a1.483 1.483 0 00-1.055-.437 1.49 1.49 0 00-1.055 2.547 1.49 1.49 0 002.11 0c.28-.278.437-.66.437-1.055zm12-2c0-.395-.156-.777-.437-1.055a1.483 1.483 0 00-1.055-.437 1.49 1.49 0 00-1.055 2.547 1.49 1.49 0 002.11 0c.28-.278.437-.66.437-1.055zm12-4c0-.395-.156-.777-.437-1.055a1.483 1.483 0 00-1.055-.437 1.49 1.49 0 00-1.055 2.547 1.49 1.49 0 002.11 0c.28-.278.437-.66.437-1.055zm12-8c0-.395-.156-.777-.437-1.055a1.483 1.483 0 00-1.055-.437 1.49 1.49 0 00-1.055 2.547 1.49 1.49 0 002.11 0c.28-.278.437-.66.437-1.055zm12-3c0-.395-.156-.777-.437-1.055a1.483 1.483 0 00-1.055-.437 1.49 1.49 0 00-1.055 2.547 1.49 1.49 0 002.11 0c.28-.278.437-.66.437-1.055zm12-49c0-.395-.156-.777-.437-1.055a1.483 1.483 0 00-1.055-.437 1.49 1.49 0 00-1.055 2.547 1.49 1.49 0 002.11 0c.28-.278.437-.66.437-1.055zm12 24c0-.395-.156-.777-.437-1.055a1.483 1.483 0 00-1.055-.437 1.49 1.49 0 00-1.055 2.547 1.49 1.49 0 002.11 0c.28-.278.437-.66.437-1.055zm11-10c0-.395-.156-.777-.437-1.055a1.483 1.483 0 00-1.055-.437 1.49 1.49 0 00-1.055 2.547 1.49 1.49 0 002.11 0c.28-.278.437-.66.437-1.055zm12-10c0-.395-.156-.777-.437-1.055a1.483 1.483 0 00-1.055-.437 1.49 1.49 0 00-1.055 2.547 1.49 1.49 0 002.11 0c.28-.278.437-.66.437-1.055zm12-7c0-.395-.156-.777-.437-1.055a1.483 1.483 0 00-1.055-.437 1.49 1.49 0 00-1.055 2.547 1.49 1.49 0 002.11 0c.28-.278.437-.66.437-1.055zm12-31c0-.395-.156-.777-.437-1.055a1.483 1.483 0 00-1.055-.437 1.49 1.49 0 00-1.055 2.547 1.49 1.49 0 002.11 0c.28-.278.437-.66.437-1.055zm12-10c0-.395-.156-.777-.437-1.055a1.483 1.483 0 00-1.055-.437 1.49 1.49 0 00-1.055 2.547 1.49 1.49 0 002.11 0c.28-.278.437-.66.437-1.055zm12-13c0-.395-.156-.777-.437-1.055a1.483 1.483 0 00-1.055-.437 1.49 1.49 0 00-1.055 2.547 1.49 1.49 0 002.11 0c.28-.278.437-.66.437-1.055zm11-44c0-.395-.156-.777-.437-1.055a1.483 1.483 0 00-1.055-.437 1.49 1.49 0 00-1.055 2.547 1.49 1.49 0 002.11 0c.28-.278.437-.66.437-1.055zm12 9c0-.395-.156-.777-.437-1.055a1.483 1.483 0 00-1.055-.437 1.49 1.49 0 00-1.055 2.547 1.49 1.49 0 002.11 0c.28-.278.437-.66.437-1.055zm12 29c0-.395-.156-.777-.437-1.055a1.483 1.483 0 00-1.055-.437 1.49 1.49 0 00-1.055 2.547 1.49 1.49 0 002.11 0c.28-.278.437-.66.437-1.055zm12-21c0-.395-.156-.777-.437-1.055a1.483 1.483 0 00-1.055-.437 1.49 1.49 0 00-1.055 2.547 1.49 1.49 0 002.11 0c.28-.278.437-.66.437-1.055zm12 38c0-.395-.156-.777-.437-1.055a1.483 1.483 0 00-1.055-.437 1.49 1.49 0 00-1.055 2.547 1.49 1.49 0 002.11 0c.28-.278.437-.66.437-1.055zm0 0" fill-rule="evenodd" fill="#0d86a0"/><path d="M34.492 233c0-.395-.156-.777-.437-1.055a1.483 1.483 0 00-1.055-.437 1.49 1.49 0 00-1.055 2.547 1.49 1.49 0 002.11 0c.28-.278.437-.66.437-1.055zm12 0c0-.395-.156-.777-.437-1.055a1.483 1.483 0 00-1.055-.437 1.49 1.49 0 00-1.055 2.547 1.49 1.49 0 002.11 0c.28-.278.437-.66.437-1.055zm12 0c0-.395-.156-.777-.437-1.055a1.483 1.483 0 00-1.055-.437 1.49 1.49 0 00-1.055 2.547 1.49 1.49 0 002.11 0c.28-.278.437-.66.437-1.055zm12 0c0-.395-.156-.777-.437-1.055a1.483 1.483 0 00-1.055-.437 1.49 1.49 0 00-1.055 2.547 1.49 1.49 0 002.11 0c.28-.278.437-.66.437-1.055zm12 0c0-.395-.156-.777-.437-1.055a1.483 1.483 0 00-1.055-.437 1.49 1.49 0 00-1.055 2.547 1.49 1.49 0 002.11 0c.28-.278.437-.66.437-1.055zm11 0c0-.395-.156-.777-.437-1.055a1.483 1.483 0 00-1.055-.437 1.49 1.49 0 00-1.055 2.547 1.49 1.49 0 002.11 0c.28-.278.437-.66.437-1.055zm12 0c0-.395-.156-.777-.437-1.055a1.483 1.483 0 00-1.055-.437 1.49 1.49 0 00-1.055 2.547 1.49 1.49 0 002.11 0c.28-.278.437-.66.437-1.055zm12 0c0-.395-.156-.777-.437-1.055a1.483 1.483 0 00-1.055-.437 1.49 1.49 0 00-1.055 2.547 1.49 1.49 0 002.11 0c.28-.278.437-.66.437-1.055zm12 0c0-.395-.156-.777-.437-1.055a1.483 1.483 0 00-1.055-.437 1.49 1.49 0 00-1.055 2.547 1.49 1.49 0 002.11 0c.28-.278.437-.66.437-1.055zm12 0c0-.395-.156-.777-.437-1.055a1.483 1.483 0 00-1.055-.437 1.49 1.49 0 00-1.055 2.547 1.49 1.49 0 002.11 0c.28-.278.437-.66.437-1.055zm12 0c0-.395-.156-.777-.437-1.055a1.483 1.483 0 00-1.055-.437 1.49 1.49 0 00-1.055 2.547 1.49 1.49 0 002.11 0c.28-.278.437-.66.437-1.055zm11 0c0-.395-.156-.777-.437-1.055a1.483 1.483 0 00-1.055-.437 1.49 1.49 0 00-1.055 2.547 1.49 1.49 0 002.11 0c.28-.278.437-.66.437-1.055zm12-1c0-.395-.156-.777-.437-1.055a1.483 1.483 0 00-1.055-.437 1.49 1.49 0 00-1.055 2.547 1.49 1.49 0 002.11 0c.28-.278.437-.66.437-1.055zm12 0c0-.395-.156-.777-.437-1.055a1.483 1.483 0 00-1.055-.437 1.49 1.49 0 00-1.055 2.547 1.49 1.49 0 002.11 0c.28-.278.437-.66.437-1.055zm12 0c0-.395-.156-.777-.437-1.055a1.483 1.483 0 00-1.055-.437 1.49 1.49 0 00-1.055 2.547 1.49 1.49 0 002.11 0c.28-.278.437-.66.437-1.055zm12-1c0-.395-.156-.777-.437-1.055a1.483 1.483 0 00-1.055-.437 1.49 1.49 0 00-1.055 2.547 1.49 1.49 0 002.11 0c.28-.278.437-.66.437-1.055zm12 0c0-.395-.156-.777-.437-1.055a1.483 1.483 0 00-1.055-.437 1.49 1.49 0 00-1.055 2.547 1.49 1.49 0 002.11 0c.28-.278.437-.66.437-1.055zm12 0c0-.395-.156-.777-.437-1.055a1.483 1.483 0 00-1.055-.437 1.49 1.49 0 00-1.055 2.547 1.49 1.49 0 002.11 0c.28-.278.437-.66.437-1.055zm11-1c0-.395-.156-.777-.437-1.055a1.483 1.483 0 00-1.055-.437 1.49 1.49 0 00-1.055 2.547 1.49 1.49 0 002.11 0c.28-.278.437-.66.437-1.055zm12-1c0-.395-.156-.777-.437-1.055a1.483 1.483 0 00-1.055-.437 1.49 1.49 0 00-1.055 2.547 1.49 1.49 0 002.11 0c.28-.278.437-.66.437-1.055zm12-2c0-.395-.156-.777-.437-1.055a1.483 1.483 0 00-1.055-.437 1.49 1.49 0 00-1.055 2.547 1.49 1.49 0 002.11 0c.28-.278.437-.66.437-1.055zm12 2c0-.395-.156-.777-.437-1.055a1.483 1.483 0 00-1.055-.437 1.49 1.49 0 00-1.055 2.547 1.49 1.49 0 002.11 0c.28-.278.437-.66.437-1.055zm12 0c0-.395-.156-.777-.437-1.055a1.483 1.483 0 00-1.055-.437 1.49 1.49 0 00-1.055 2.547 1.49 1.49 0 002.11 0c.28-.278.437-.66.437-1.055zm12-2c0-.395-.156-.777-.437-1.055a1.483 1.483 0 00-1.055-.437 1.49 1.49 0 00-1.055 2.547 1.49 1.49 0 002.11 0c.28-.278.437-.66.437-1.055zm11 2c0-.395-.156-.777-.437-1.055a1.483 1.483 0 00-1.055-.437 1.49 1.49 0 00-1.055 2.547 1.49 1.49 0 002.11 0c.28-.278.437-.66.437-1.055zm12 0c0-.395-.156-.777-.437-1.055a1.483 1.483 0 00-1.055-.437 1.49 1.49 0 00-1.055 2.547 1.49 1.49 0 002.11 0c.28-.278.437-.66.437-1.055zm12 0c0-.395-.156-.777-.437-1.055a1.483 1.483 0 00-1.055-.437 1.49 1.49 0 00-1.055 2.547 1.49 1.49 0 002.11 0c.28-.278.437-.66.437-1.055zm12 1c0-.395-.156-.777-.437-1.055a1.483 1.483 0 00-1.055-.437 1.49 1.49 0 00-1.055 2.547 1.49 1.49 0 002.11 0c.28-.278.437-.66.437-1.055zm12 1c0-.395-.156-.777-.437-1.055a1.483 1.483 0 00-1.055-.437 1.49 1.49 0 00-1.055 2.547 1.49 1.49 0 002.11 0c.28-.278.437-.66.437-1.055zm0 0" fill-rule="evenodd" fill="#c05c20"/><path d="M34.492 233c0-.395-.156-.777-.437-1.055a1.483 1.483 0 00-1.055-.437 1.49 1.49 0 00-1.055 2.547 1.49 1.49 0 002.11 0c.28-.278.437-.66.437-1.055zm12 0c0-.395-.156-.777-.437-1.055a1.483 1.483 0 00-1.055-.437 1.49 1.49 0 00-1.055 2.547 1.49 1.49 0 002.11 0c.28-.278.437-.66.437-1.055zm12 0c0-.395-.156-.777-.437-1.055a1.483 1.483 0 00-1.055-.437 1.49 1.49 0 00-1.055 2.547 1.49 1.49 0 002.11 0c.28-.278.437-.66.437-1.055zm12 0c0-.395-.156-.777-.437-1.055a1.483 1.483 0 00-1.055-.437 1.49 1.49 0 00-1.055 2.547 1.49 1.49 0 002.11 0c.28-.278.437-.66.437-1.055zm12 0c0-.395-.156-.777-.437-1.055a1.483 1.483 0 00-1.055-.437 1.49 1.49 0 00-1.055 2.547 1.49 1.49 0 002.11 0c.28-.278.437-.66.437-1.055zm11 0c0-.395-.156-.777-.437-1.055a1.483 1.483 0 00-1.055-.437 1.49 1.49 0 00-1.055 2.547 1.49 1.49 0 002.11 0c.28-.278.437-.66.437-1.055zm12 0c0-.395-.156-.777-.437-1.055a1.483 1.483 0 00-1.055-.437 1.49 1.49 0 00-1.055 2.547 1.49 1.49 0 002.11 0c.28-.278.437-.66.437-1.055zm12 0c0-.395-.156-.777-.437-1.055a1.483 1.483 0 00-1.055-.437 1.49 1.49 0 00-1.055 2.547 1.49 1.49 0 002.11 0c.28-.278.437-.66.437-1.055zm12 0c0-.395-.156-.777-.437-1.055a1.483 1.483 0 00-1.055-.437 1.49 1.49 0 00-1.055 2.547 1.49 1.49 0 002.11 0c.28-.278.437-.66.437-1.055zm12 0c0-.395-.156-.777-.437-1.055a1.483 1.483 0 00-1.055-.437 1.49 1.49 0 00-1.055 2.547 1.49 1.49 0 002.11 0c.28-.278.437-.66.437-1.055zm12 0c0-.395-.156-.777-.437-1.055a1.483 1.483 0 00-1.055-.437 1.49 1.49 0 00-1.055 2.547 1.49 1.49 0 002.11 0c.28-.278.437-.66.437-1.055zm11 0c0-.395-.156-.777-.437-1.055a1.483 1.483 0 00-1.055-.437 1.49 1.49 0 00-1.055 2.547 1.49 1.49 0 002.11 0c.28-.278.437-.66.437-1.055zm12-1c0-.395-.156-.777-.437-1.055a1.483 1.483 0 00-1.055-.437 1.49 1.49 0 00-1.055 2.547 1.49 1.49 0 002.11 0c.28-.278.437-.66.437-1.055zm12 0c0-.395-.156-.777-.437-1.055a1.483 1.483 0 00-1.055-.437 1.49 1.49 0 00-1.055 2.547 1.49 1.49 0 002.11 0c.28-.278.437-.66.437-1.055zm12-1c0-.395-.156-.777-.437-1.055a1.483 1.483 0 00-1.055-.437 1.49 1.49 0 00-1.055 2.547 1.49 1.49 0 002.11 0c.28-.278.437-.66.437-1.055zm12 1c0-.395-.156-.777-.437-1.055a1.483 1.483 0 00-1.055-.437 1.49 1.49 0 00-1.055 2.547 1.49 1.49 0 002.11 0c.28-.278.437-.66.437-1.055zm12-1c0-.395-.156-.777-.437-1.055a1.483 1.483 0 00-1.055-.437 1.49 1.49 0 00-1.055 2.547 1.49 1.49 0 002.11 0c.28-.278.437-.66.437-1.055zm12-4c0-.395-.156-.777-.437-1.055a1.483 1.483 0 00-1.055-.437 1.49 1.49 0 00-1.055 2.547 1.49 1.49 0 002.11 0c.28-.278.437-.66.437-1.055zm11-1c0-.395-.156-.777-.437-1.055a1.483 1.483 0 00-1.055-.437 1.49 1.49 0 00-1.055 2.547 1.49 1.49 0 002.11 0c.28-.278.437-.66.437-1.055zm12 2c0-.395-.156-.777-.437-1.055a1.483 1.483 0 00-1.055-.437 1.49 1.49 0 00-1.055 2.547 1.49 1.49 0 002.11 0c.28-.278.437-.66.437-1.055zm12 2c0-.395-.156-.777-.437-1.055a1.483 1.483 0 00-1.055-.437 1.49 1.49 0 00-1.055 2.547 1.49 1.49 0 002.11 0c.28-.278.437-.66.437-1.055zm12 0c0-.395-.156-.777-.437-1.055a1.483 1.483 0 00-1.055-.437 1.49 1.49 0 00-1.055 2.547 1.49 1.49 0 002.11 0c.28-.278.437-.66.437-1.055zm12 0c0-.395-.156-.777-.437-1.055a1.483 1.483 0 00-1.055-.437 1.49 1.49 0 00-1.055 2.547 1.49 1.49 0 002.11 0c.28-.278.437-.66.437-1.055zm12-2c0-.395-.156-.777-.437-1.055a1.483 1.483 0 00-1.055-.437 1.49 1.49 0 00-1.055 2.547 1.49 1.49 0 002.11 0c.28-.278.437-.66.437-1.055zm11 2c0-.395-.156-.777-.437-1.055a1.483 1.483 0 00-1.055-.437 1.49 1.49 0 00-1.055 2.547 1.49 1.49 0 002.11 0c.28-.278.437-.66.437-1.055zm12 0c0-.395-.156-.777-.437-1.055a1.483 1.483 0 00-1.055-.437 1.49 1.49 0 00-1.055 2.547 1.49 1.49 0 002.11 0c.28-.278.437-.66.437-1.055zm12 1c0-.395-.156-.777-.437-1.055a1.483 1.483 0 00-1.055-.437 1.49 1.49 0 00-1.055 2.547 1.49 1.49 0 002.11 0c.28-.278.437-.66.437-1.055zm12 0c0-.395-.156-.777-.437-1.055a1.483 1.483 0 00-1.055-.437 1.49 1.49 0 00-1.055 2.547 1.49 1.49 0 002.11 0c.28-.278.437-.66.437-1.055zm12 1c0-.395-.156-.777-.437-1.055a1.483 1.483 0 00-1.055-.437 1.49 1.49 0 00-1.055 2.547 1.49 1.49 0 002.11 0c.28-.278.437-.66.437-1.055zm0 0" fill-rule="evenodd" fill="#6f42b5"/><path d="M34.492 233c0-.395-.156-.777-.437-1.055a1.483 1.483 0 00-1.055-.437 1.49 1.49 0 00-1.055 2.547 1.49 1.49 0 002.11 0c.28-.278.437-.66.437-1.055zm12 0c0-.395-.156-.777-.437-1.055a1.483 1.483 0 00-1.055-.437 1.49 1.49 0 00-1.055 2.547 1.49 1.49 0 002.11 0c.28-.278.437-.66.437-1.055zm12 0c0-.395-.156-.777-.437-1.055a1.483 1.483 0 00-1.055-.437 1.49 1.49 0 00-1.055 2.547 1.49 1.49 0 002.11 0c.28-.278.437-.66.437-1.055zm12 0c0-.395-.156-.777-.437-1.055a1.483 1.483 0 00-1.055-.437 1.49 1.49 0 00-1.055 2.547 1.49 1.49 0 002.11 0c.28-.278.437-.66.437-1.055zm12 0c0-.395-.156-.777-.437-1.055a1.483 1.483 0 00-1.055-.437 1.49 1.49 0 00-1.055 2.547 1.49 1.49 0 002.11 0c.28-.278.437-.66.437-1.055zm11 0c0-.395-.156-.777-.437-1.055a1.483 1.483 0 00-1.055-.437 1.49 1.49 0 00-1.055 2.547 1.49 1.49 0 002.11 0c.28-.278.437-.66.437-1.055zm12 0c0-.395-.156-.777-.437-1.055a1.483 1.483 0 00-1.055-.437 1.49 1.49 0 00-1.055 2.547 1.49 1.49 0 002.11 0c.28-.278.437-.66.437-1.055zm12 0c0-.395-.156-.777-.437-1.055a1.483 1.483 0 00-1.055-.437 1.49 1.49 0 00-1.055 2.547 1.49 1.49 0 002.11 0c.28-.278.437-.66.437-1.055zm12 0c0-.395-.156-.777-.437-1.055a1.483 1.483 0 00-1.055-.437 1.49 1.49 0 00-1.055 2.547 1.49 1.49 0 002.11 0c.28-.278.437-.66.437-1.055zm12 0c0-.395-.156-.777-.437-1.055a1.483 1.483 0 00-1.055-.437 1.49 1.49 0 00-1.055 2.547 1.49 1.49 0 002.11 0c.28-.278.437-.66.437-1.055zm12 0c0-.395-.156-.777-.437-1.055a1.483 1.483 0 00-1.055-.437 1.49 1.49 0 00-1.055 2.547 1.49 1.49 0 002.11 0c.28-.278.437-.66.437-1.055zm11 0c0-.395-.156-.777-.437-1.055a1.483 1.483 0 00-1.055-.437 1.49 1.49 0 00-1.055 2.547 1.49 1.49 0 002.11 0c.28-.278.437-.66.437-1.055zm12 0c0-.395-.156-.777-.437-1.055a1.483 1.483 0 00-1.055-.437 1.49 1.49 0 00-1.055 2.547 1.49 1.49 0 002.11 0c.28-.278.437-.66.437-1.055zm12-1c0-.395-.156-.777-.437-1.055a1.483 1.483 0 00-1.055-.437 1.49 1.49 0 00-1.055 2.547 1.49 1.49 0 002.11 0c.28-.278.437-.66.437-1.055zm12-1c0-.395-.156-.777-.437-1.055a1.483 1.483 0 00-1.055-.437 1.49 1.49 0 00-1.055 2.547 1.49 1.49 0 002.11 0c.28-.278.437-.66.437-1.055zm12 0c0-.395-.156-.777-.437-1.055a1.483 1.483 0 00-1.055-.437 1.49 1.49 0 00-1.055 2.547 1.49 1.49 0 002.11 0c.28-.278.437-.66.437-1.055zm12 0c0-.395-.156-.777-.437-1.055a1.483 1.483 0 00-1.055-.437 1.49 1.49 0 00-1.055 2.547 1.49 1.49 0 002.11 0c.28-.278.437-.66.437-1.055zm12 0c0-.395-.156-.777-.437-1.055a1.483 1.483 0 00-1.055-.437 1.49 1.49 0 00-1.055 2.547 1.49 1.49 0 002.11 0c.28-.278.437-.66.437-1.055zm11-1c0-.395-.156-.777-.437-1.055a1.483 1.483 0 00-1.055-.437 1.49 1.49 0 00-1.055 2.547 1.49 1.49 0 002.11 0c.28-.278.437-.66.437-1.055zm12-1c0-.395-.156-.777-.437-1.055a1.483 1.483 0 00-1.055-.437 1.49 1.49 0 00-1.055 2.547 1.49 1.49 0 002.11 0c.28-.278.437-.66.437-1.055zm12 1c0-.395-.156-.777-.437-1.055a1.483 1.483 0 00-1.055-.437 1.49 1.49 0 00-1.055 2.547 1.49 1.49 0 002.11 0c.28-.278.437-.66.437-1.055zm12 0c0-.395-.156-.777-.437-1.055a1.483 1.483 0 00-1.055-.437 1.49 1.49 0 00-1.055 2.547 1.49 1.49 0 002.11 0c.28-.278.437-.66.437-1.055zm12-1c0-.395-.156-.777-.437-1.055a1.483 1.483 0 00-1.055-.437 1.49 1.49 0 00-1.055 2.547 1.49 1.49 0 002.11 0c.28-.278.437-.66.437-1.055zm12-1c0-.395-.156-.777-.437-1.055a1.483 1.483 0 00-1.055-.437 1.49 1.49 0 00-1.055 2.547 1.49 1.49 0 002.11 0c.28-.278.437-.66.437-1.055zm11 1c0-.395-.156-.777-.437-1.055a1.483 1.483 0 00-1.055-.437 1.49 1.49 0 00-1.055 2.547 1.49 1.49 0 002.11 0c.28-.278.437-.66.437-1.055zm12 0c0-.395-.156-.777-.437-1.055a1.483 1.483 0 00-1.055-.437 1.49 1.49 0 00-1.055 2.547 1.49 1.49 0 002.11 0c.28-.278.437-.66.437-1.055zm12 1c0-.395-.156-.777-.437-1.055a1.483 1.483 0 00-1.055-.437 1.49 1.49 0 00-1.055 2.547 1.49 1.49 0 002.11 0c.28-.278.437-.66.437-1.055zm12 0c0-.395-.156-.777-.437-1.055a1.483 1.483 0 00-1.055-.437 1.49 1.49 0 00-1.055 2.547 1.49 1.49 0 002.11 0c.28-.278.437-.66.437-1.055zm12 1c0-.395-.156-.777-.437-1.055a1.483 1.483 0 00-1.055-.437 1.49 1.49 0 00-1.055 2.547 1.49 1.49 0 002.11 0c.28-.278.437-.66.437-1.055zm0 0" fill-rule="evenodd" fill="#769003"/><path d="M34.492 233c0-.395-.156-.777-.437-1.055a1.483 1.483 0 00-1.055-.437 1.49 1.49 0 00-1.055 2.547 1.49 1.49 0 002.11 0c.28-.278.437-.66.437-1.055zm12 0c0-.395-.156-.777-.437-1.055a1.483 1.483 0 00-1.055-.437 1.49 1.49 0 00-1.055 2.547 1.49 1.49 0 002.11 0c.28-.278.437-.66.437-1.055zm12 0c0-.395-.156-.777-.437-1.055a1.483 1.483 0 00-1.055-.437 1.49 1.49 0 00-1.055 2.547 1.49 1.49 0 002.11 0c.28-.278.437-.66.437-1.055zm12 0c0-.395-.156-.777-.437-1.055a1.483 1.483 0 00-1.055-.437 1.49 1.49 0 00-1.055 2.547 1.49 1.49 0 002.11 0c.28-.278.437-.66.437-1.055zm12 0c0-.395-.156-.777-.437-1.055a1.483 1.483 0 00-1.055-.437 1.49 1.49 0 00-1.055 2.547 1.49 1.49 0 002.11 0c.28-.278.437-.66.437-1.055zm11 0c0-.395-.156-.777-.437-1.055a1.483 1.483 0 00-1.055-.437 1.49 1.49 0 00-1.055 2.547 1.49 1.49 0 002.11 0c.28-.278.437-.66.437-1.055zm12 0c0-.395-.156-.777-.437-1.055a1.483 1.483 0 00-1.055-.437 1.49 1.49 0 00-1.055 2.547 1.49 1.49 0 002.11 0c.28-.278.437-.66.437-1.055zm12 0c0-.395-.156-.777-.437-1.055a1.483 1.483 0 00-1.055-.437 1.49 1.49 0 00-1.055 2.547 1.49 1.49 0 002.11 0c.28-.278.437-.66.437-1.055zm12 0c0-.395-.156-.777-.437-1.055a1.483 1.483 0 00-1.055-.437 1.49 1.49 0 00-1.055 2.547 1.49 1.49 0 002.11 0c.28-.278.437-.66.437-1.055zm12 0c0-.395-.156-.777-.437-1.055a1.483 1.483 0 00-1.055-.437 1.49 1.49 0 00-1.055 2.547 1.49 1.49 0 002.11 0c.28-.278.437-.66.437-1.055zm12 0c0-.395-.156-.777-.437-1.055a1.483 1.483 0 00-1.055-.437 1.49 1.49 0 00-1.055 2.547 1.49 1.49 0 002.11 0c.28-.278.437-.66.437-1.055zm11 0c0-.395-.156-.777-.437-1.055a1.483 1.483 0 00-1.055-.437 1.49 1.49 0 00-1.055 2.547 1.49 1.49 0 002.11 0c.28-.278.437-.66.437-1.055zm12 0c0-.395-.156-.777-.437-1.055a1.483 1.483 0 00-1.055-.437 1.49 1.49 0 00-1.055 2.547 1.49 1.49 0 002.11 0c.28-.278.437-.66.437-1.055zm12-1c0-.395-.156-.777-.437-1.055a1.483 1.483 0 00-1.055-.437 1.49 1.49 0 00-1.055 2.547 1.49 1.49 0 002.11 0c.28-.278.437-.66.437-1.055zm12 0c0-.395-.156-.777-.437-1.055a1.483 1.483 0 00-1.055-.437 1.49 1.49 0 00-1.055 2.547 1.49 1.49 0 002.11 0c.28-.278.437-.66.437-1.055zm12 0c0-.395-.156-.777-.437-1.055a1.483 1.483 0 00-1.055-.437 1.49 1.49 0 00-1.055 2.547 1.49 1.49 0 002.11 0c.28-.278.437-.66.437-1.055zm12-1c0-.395-.156-.777-.437-1.055a1.483 1.483 0 00-1.055-.437 1.49 1.49 0 00-1.055 2.547 1.49 1.49 0 002.11 0c.28-.278.437-.66.437-1.055zm12-2c0-.395-.156-.777-.437-1.055a1.483 1.483 0 00-1.055-.437 1.49 1.49 0 00-1.055 2.547 1.49 1.49 0 002.11 0c.28-.278.437-.66.437-1.055zm11 1c0-.395-.156-.777-.437-1.055a1.483 1.483 0 00-1.055-.437 1.49 1.49 0 00-1.055 2.547 1.49 1.49 0 002.11 0c.28-.278.437-.66.437-1.055zm12 0c0-.395-.156-.777-.437-1.055a1.483 1.483 0 00-1.055-.437 1.49 1.49 0 00-1.055 2.547 1.49 1.49 0 002.11 0c.28-.278.437-.66.437-1.055zm12 0c0-.395-.156-.777-.437-1.055a1.483 1.483 0 00-1.055-.437 1.49 1.49 0 00-1.055 2.547 1.49 1.49 0 002.11 0c.28-.278.437-.66.437-1.055zm12-1c0-.395-.156-.777-.437-1.055a1.483 1.483 0 00-1.055-.437 1.49 1.49 0 00-1.055 2.547 1.49 1.49 0 002.11 0c.28-.278.437-.66.437-1.055zm12 1c0-.395-.156-.777-.437-1.055a1.483 1.483 0 00-1.055-.437 1.49 1.49 0 00-1.055 2.547 1.49 1.49 0 002.11 0c.28-.278.437-.66.437-1.055zm12 0c0-.395-.156-.777-.437-1.055a1.483 1.483 0 00-1.055-.437 1.49 1.49 0 00-1.055 2.547 1.49 1.49 0 002.11 0c.28-.278.437-.66.437-1.055zm11 0c0-.395-.156-.777-.437-1.055a1.483 1.483 0 00-1.055-.437 1.49 1.49 0 00-1.055 2.547 1.49 1.49 0 002.11 0c.28-.278.437-.66.437-1.055zm12 1c0-.395-.156-.777-.437-1.055a1.483 1.483 0 00-1.055-.437 1.49 1.49 0 00-1.055 2.547 1.49 1.49 0 002.11 0c.28-.278.437-.66.437-1.055zm12-1c0-.395-.156-.777-.437-1.055a1.483 1.483 0 00-1.055-.437 1.49 1.49 0 00-1.055 2.547 1.49 1.49 0 002.11 0c.28-.278.437-.66.437-1.055zm12 2c0-.395-.156-.777-.437-1.055a1.483 1.483 0 00-1.055-.437 1.49 1.49 0 00-1.055 2.547 1.49 1.49 0 002.11 0c.28-.278.437-.66.437-1.055zm12 0c0-.395-.156-.777-.437-1.055a1.483 1.483 0 00-1.055-.437 1.49 1.49 0 00-1.055 2.547 1.49 1.49 0 002.11 0c.28-.278.437-.66.437-1.055zm0 0" fill-rule="evenodd" fill="#a8364d"/><path d="M34.492 233c0-.395-.156-.777-.437-1.055a1.483 1.483 0 00-1.055-.437 1.49 1.49 0 00-1.055 2.547 1.49 1.49 0 002.11 0c.28-.278.437-.66.437-1.055zm12 0c0-.395-.156-.777-.437-1.055a1.483 1.483 0 00-1.055-.437 1.49 1.49 0 00-1.055 2.547 1.49 1.49 0 002.11 0c.28-.278.437-.66.437-1.055zm12 0c0-.395-.156-.777-.437-1.055a1.483 1.483 0 00-1.055-.437 1.49 1.49 0 00-1.055 2.547 1.49 1.49 0 002.11 0c.28-.278.437-.66.437-1.055zm12 0c0-.395-.156-.777-.437-1.055a1.483 1.483 0 00-1.055-.437 1.49 1.49 0 00-1.055 2.547 1.49 1.49 0 002.11 0c.28-.278.437-.66.437-1.055zm12 0c0-.395-.156-.777-.437-1.055a1.483 1.483 0 00-1.055-.437 1.49 1.49 0 00-1.055 2.547 1.49 1.49 0 002.11 0c.28-.278.437-.66.437-1.055zm11 0c0-.395-.156-.777-.437-1.055a1.483 1.483 0 00-1.055-.437 1.49 1.49 0 00-1.055 2.547 1.49 1.49 0 002.11 0c.28-.278.437-.66.437-1.055zm12 0c0-.395-.156-.777-.437-1.055a1.483 1.483 0 00-1.055-.437 1.49 1.49 0 00-1.055 2.547 1.49 1.49 0 002.11 0c.28-.278.437-.66.437-1.055zm12 0c0-.395-.156-.777-.437-1.055a1.483 1.483 0 00-1.055-.437 1.49 1.49 0 00-1.055 2.547 1.49 1.49 0 002.11 0c.28-.278.437-.66.437-1.055zm12 0c0-.395-.156-.777-.437-1.055a1.483 1.483 0 00-1.055-.437 1.49 1.49 0 00-1.055 2.547 1.49 1.49 0 002.11 0c.28-.278.437-.66.437-1.055zm12 0c0-.395-.156-.777-.437-1.055a1.483 1.483 0 00-1.055-.437 1.49 1.49 0 00-1.055 2.547 1.49 1.49 0 002.11 0c.28-.278.437-.66.437-1.055zm12 0c0-.395-.156-.777-.437-1.055a1.483 1.483 0 00-1.055-.437 1.49 1.49 0 00-1.055 2.547 1.49 1.49 0 002.11 0c.28-.278.437-.66.437-1.055zm11 0c0-.395-.156-.777-.437-1.055a1.483 1.483 0 00-1.055-.437 1.49 1.49 0 00-1.055 2.547 1.49 1.49 0 002.11 0c.28-.278.437-.66.437-1.055zm12 0c0-.395-.156-.777-.437-1.055a1.483 1.483 0 00-1.055-.437 1.49 1.49 0 00-1.055 2.547 1.49 1.49 0 002.11 0c.28-.278.437-.66.437-1.055zm12-1c0-.395-.156-.777-.437-1.055a1.483 1.483 0 00-1.055-.437 1.49 1.49 0 00-1.055 2.547 1.49 1.49 0 002.11 0c.28-.278.437-.66.437-1.055zm12 0c0-.395-.156-.777-.437-1.055a1.483 1.483 0 00-1.055-.437 1.49 1.49 0 00-1.055 2.547 1.49 1.49 0 002.11 0c.28-.278.437-.66.437-1.055zm12 1c0-.395-.156-.777-.437-1.055a1.483 1.483 0 00-1.055-.437 1.49 1.49 0 00-1.055 2.547 1.49 1.49 0 002.11 0c.28-.278.437-.66.437-1.055zm12-2c0-.395-.156-.777-.437-1.055a1.483 1.483 0 00-1.055-.437 1.49 1.49 0 00-1.055 2.547 1.49 1.49 0 002.11 0c.28-.278.437-.66.437-1.055zm12 0c0-.395-.156-.777-.437-1.055a1.483 1.483 0 00-1.055-.437 1.49 1.49 0 00-1.055 2.547 1.49 1.49 0 002.11 0c.28-.278.437-.66.437-1.055zm11 0c0-.395-.156-.777-.437-1.055a1.483 1.483 0 00-1.055-.437 1.49 1.49 0 00-1.055 2.547 1.49 1.49 0 002.11 0c.28-.278.437-.66.437-1.055zm12 0c0-.395-.156-.777-.437-1.055a1.483 1.483 0 00-1.055-.437 1.49 1.49 0 00-1.055 2.547 1.49 1.49 0 002.11 0c.28-.278.437-.66.437-1.055zm12-1c0-.395-.156-.777-.437-1.055a1.483 1.483 0 00-1.055-.437 1.49 1.49 0 00-1.055 2.547 1.49 1.49 0 002.11 0c.28-.278.437-.66.437-1.055zm12 1c0-.395-.156-.777-.437-1.055a1.483 1.483 0 00-1.055-.437 1.49 1.49 0 00-1.055 2.547 1.49 1.49 0 002.11 0c.28-.278.437-.66.437-1.055zm12-1c0-.395-.156-.777-.437-1.055a1.483 1.483 0 00-1.055-.437 1.49 1.49 0 00-1.055 2.547 1.49 1.49 0 002.11 0c.28-.278.437-.66.437-1.055zm12 0c0-.395-.156-.777-.437-1.055a1.483 1.483 0 00-1.055-.437 1.49 1.49 0 00-1.055 2.547 1.49 1.49 0 002.11 0c.28-.278.437-.66.437-1.055zm11 1c0-.395-.156-.777-.437-1.055a1.483 1.483 0 00-1.055-.437 1.49 1.49 0 00-1.055 2.547 1.49 1.49 0 002.11 0c.28-.278.437-.66.437-1.055zm12-1c0-.395-.156-.777-.437-1.055a1.483 1.483 0 00-1.055-.437 1.49 1.49 0 00-1.055 2.547 1.49 1.49 0 002.11 0c.28-.278.437-.66.437-1.055zm12-1c0-.395-.156-.777-.437-1.055a1.483 1.483 0 00-1.055-.437 1.49 1.49 0 00-1.055 2.547 1.49 1.49 0 002.11 0c.28-.278.437-.66.437-1.055zm12 1c0-.395-.156-.777-.437-1.055a1.483 1.483 0 00-1.055-.437 1.49 1.49 0 00-1.055 2.547 1.49 1.49 0 002.11 0c.28-.278.437-.66.437-1.055zm12 1c0-.395-.156-.777-.437-1.055a1.483 1.483 0 00-1.055-.437 1.49 1.49 0 00-1.055 2.547 1.49 1.49 0 002.11 0c.28-.278.437-.66.437-1.055zm0 0" fill-rule="evenodd" fill="#3664cc"/><path d="M34.492 233c0-.395-.156-.777-.437-1.055a1.483 1.483 0 00-1.055-.437 1.49 1.49 0 00-1.055 2.547 1.49 1.49 0 002.11 0c.28-.278.437-.66.437-1.055zm12 0c0-.395-.156-.777-.437-1.055a1.483 1.483 0 00-1.055-.437 1.49 1.49 0 00-1.055 2.547 1.49 1.49 0 002.11 0c.28-.278.437-.66.437-1.055zm12 0c0-.395-.156-.777-.437-1.055a1.483 1.483 0 00-1.055-.437 1.49 1.49 0 00-1.055 2.547 1.49 1.49 0 002.11 0c.28-.278.437-.66.437-1.055zm12 0c0-.395-.156-.777-.437-1.055a1.483 1.483 0 00-1.055-.437 1.49 1.49 0 00-1.055 2.547 1.49 1.49 0 002.11 0c.28-.278.437-.66.437-1.055zm12 0c0-.395-.156-.777-.437-1.055a1.483 1.483 0 00-1.055-.437 1.49 1.49 0 00-1.055 2.547 1.49 1.49 0 002.11 0c.28-.278.437-.66.437-1.055zm11 0c0-.395-.156-.777-.437-1.055a1.483 1.483 0 00-1.055-.437 1.49 1.49 0 00-1.055 2.547 1.49 1.49 0 002.11 0c.28-.278.437-.66.437-1.055zm12 0c0-.395-.156-.777-.437-1.055a1.483 1.483 0 00-1.055-.437 1.49 1.49 0 00-1.055 2.547 1.49 1.49 0 002.11 0c.28-.278.437-.66.437-1.055zm12 0c0-.395-.156-.777-.437-1.055a1.483 1.483 0 00-1.055-.437 1.49 1.49 0 00-1.055 2.547 1.49 1.49 0 002.11 0c.28-.278.437-.66.437-1.055zm12 0c0-.395-.156-.777-.437-1.055a1.483 1.483 0 00-1.055-.437 1.49 1.49 0 00-1.055 2.547 1.49 1.49 0 002.11 0c.28-.278.437-.66.437-1.055zm12 0c0-.395-.156-.777-.437-1.055a1.483 1.483 0 00-1.055-.437 1.49 1.49 0 00-1.055 2.547 1.49 1.49 0 002.11 0c.28-.278.437-.66.437-1.055zm12 0c0-.395-.156-.777-.437-1.055a1.483 1.483 0 00-1.055-.437 1.49 1.49 0 00-1.055 2.547 1.49 1.49 0 002.11 0c.28-.278.437-.66.437-1.055zm11 0c0-.395-.156-.777-.437-1.055a1.483 1.483 0 00-1.055-.437 1.49 1.49 0 00-1.055 2.547 1.49 1.49 0 002.11 0c.28-.278.437-.66.437-1.055zm12 0c0-.395-.156-.777-.437-1.055a1.483 1.483 0 00-1.055-.437 1.49 1.49 0 00-1.055 2.547 1.49 1.49 0 002.11 0c.28-.278.437-.66.437-1.055zm12 0c0-.395-.156-.777-.437-1.055a1.483 1.483 0 00-1.055-.437 1.49 1.49 0 00-1.055 2.547 1.49 1.49 0 002.11 0c.28-.278.437-.66.437-1.055zm12-1c0-.395-.156-.777-.437-1.055a1.483 1.483 0 00-1.055-.437 1.49 1.49 0 00-1.055 2.547 1.49 1.49 0 002.11 0c.28-.278.437-.66.437-1.055zm12 1c0-.395-.156-.777-.437-1.055a1.483 1.483 0 00-1.055-.437 1.49 1.49 0 00-1.055 2.547 1.49 1.49 0 002.11 0c.28-.278.437-.66.437-1.055zm12-1c0-.395-.156-.777-.437-1.055a1.483 1.483 0 00-1.055-.437 1.49 1.49 0 00-1.055 2.547 1.49 1.49 0 002.11 0c.28-.278.437-.66.437-1.055zm12-1c0-.395-.156-.777-.437-1.055a1.483 1.483 0 00-1.055-.437 1.49 1.49 0 00-1.055 2.547 1.49 1.49 0 002.11 0c.28-.278.437-.66.437-1.055zm11 0c0-.395-.156-.777-.437-1.055a1.483 1.483 0 00-1.055-.437 1.49 1.49 0 00-1.055 2.547 1.49 1.49 0 002.11 0c.28-.278.437-.66.437-1.055zm12-2c0-.395-.156-.777-.437-1.055a1.483 1.483 0 00-1.055-.437 1.49 1.49 0 00-1.055 2.547 1.49 1.49 0 002.11 0c.28-.278.437-.66.437-1.055zm12 2c0-.395-.156-.777-.437-1.055a1.483 1.483 0 00-1.055-.437 1.49 1.49 0 00-1.055 2.547 1.49 1.49 0 002.11 0c.28-.278.437-.66.437-1.055zm12 0c0-.395-.156-.777-.437-1.055a1.483 1.483 0 00-1.055-.437 1.49 1.49 0 00-1.055 2.547 1.49 1.49 0 002.11 0c.28-.278.437-.66.437-1.055zm12-1c0-.395-.156-.777-.437-1.055a1.483 1.483 0 00-1.055-.437 1.49 1.49 0 00-1.055 2.547 1.49 1.49 0 002.11 0c.28-.278.437-.66.437-1.055zm12-1c0-.395-.156-.777-.437-1.055a1.483 1.483 0 00-1.055-.437 1.49 1.49 0 00-1.055 2.547 1.49 1.49 0 002.11 0c.28-.278.437-.66.437-1.055zm11 1c0-.395-.156-.777-.437-1.055a1.483 1.483 0 00-1.055-.437 1.49 1.49 0 00-1.055 2.547 1.49 1.49 0 002.11 0c.28-.278.437-.66.437-1.055zm12 1c0-.395-.156-.777-.437-1.055a1.483 1.483 0 00-1.055-.437 1.49 1.49 0 00-1.055 2.547 1.49 1.49 0 002.11 0c.28-.278.437-.66.437-1.055zm12-1c0-.395-.156-.777-.437-1.055a1.483 1.483 0 00-1.055-.437 1.49 1.49 0 00-1.055 2.547 1.49 1.49 0 002.11 0c.28-.278.437-.66.437-1.055zm12 1c0-.395-.156-.777-.437-1.055a1.483 1.483 0 00-1.055-.437 1.49 1.49 0 00-1.055 2.547 1.49 1.49 0 002.11 0c.28-.278.437-.66.437-1.055zm12 0c0-.395-.156-.777-.437-1.055a1.483 1.483 0 00-1.055-.437 1.49 1.49 0 00-1.055 2.547 1.49 1.49 0 002.11 0c.28-.278.437-.66.437-1.055zm0 0" fill-rule="evenodd" fill="#c8860a"/><path d="M34.492 233c0-.395-.156-.777-.437-1.055a1.483 1.483 0 00-1.055-.437 1.49 1.49 0 00-1.055 2.547 1.49 1.49 0 002.11 0c.28-.278.437-.66.437-1.055zm12 0c0-.395-.156-.777-.437-1.055a1.483 1.483 0 00-1.055-.437 1.49 1.49 0 00-1.055 2.547 1.49 1.49 0 002.11 0c.28-.278.437-.66.437-1.055zm12 0c0-.395-.156-.777-.437-1.055a1.483 1.483 0 00-1.055-.437 1.49 1.49 0 00-1.055 2.547 1.49 1.49 0 002.11 0c.28-.278.437-.66.437-1.055zm12 0c0-.395-.156-.777-.437-1.055a1.483 1.483 0 00-1.055-.437 1.49 1.49 0 00-1.055 2.547 1.49 1.49 0 002.11 0c.28-.278.437-.66.437-1.055zm12 0c0-.395-.156-.777-.437-1.055a1.483 1.483 0 00-1.055-.437 1.49 1.49 0 00-1.055 2.547 1.49 1.49 0 002.11 0c.28-.278.437-.66.437-1.055zm11 0c0-.395-.156-.777-.437-1.055a1.483 1.483 0 00-1.055-.437 1.49 1.49 0 00-1.055 2.547 1.49 1.49 0 002.11 0c.28-.278.437-.66.437-1.055zm12 0c0-.395-.156-.777-.437-1.055a1.483 1.483 0 00-1.055-.437 1.49 1.49 0 00-1.055 2.547 1.49 1.49 0 002.11 0c.28-.278.437-.66.437-1.055zm12 0c0-.395-.156-.777-.437-1.055a1.483 1.483 0 00-1.055-.437 1.49 1.49 0 00-1.055 2.547 1.49 1.49 0 002.11 0c.28-.278.437-.66.437-1.055zm12 0c0-.395-.156-.777-.437-1.055a1.483 1.483 0 00-1.055-.437 1.49 1.49 0 00-1.055 2.547 1.49 1.49 0 002.11 0c.28-.278.437-.66.437-1.055zm12 0c0-.395-.156-.777-.437-1.055a1.483 1.483 0 00-1.055-.437 1.49 1.49 0 00-1.055 2.547 1.49 1.49 0 002.11 0c.28-.278.437-.66.437-1.055zm12 0c0-.395-.156-.777-.437-1.055a1.483 1.483 0 00-1.055-.437 1.49 1.49 0 00-1.055 2.547 1.49 1.49 0 002.11 0c.28-.278.437-.66.437-1.055zm11 0c0-.395-.156-.777-.437-1.055a1.483 1.483 0 00-1.055-.437 1.49 1.49 0 00-1.055 2.547 1.49 1.49 0 002.11 0c.28-.278.437-.66.437-1.055zm12 0c0-.395-.156-.777-.437-1.055a1.483 1.483 0 00-1.055-.437 1.49 1.49 0 00-1.055 2.547 1.49 1.49 0 002.11 0c.28-.278.437-.66.437-1.055zm12 0c0-.395-.156-.777-.437-1.055a1.483 1.483 0 00-1.055-.437 1.49 1.49 0 00-1.055 2.547 1.49 1.49 0 002.11 0c.28-.278.437-.66.437-1.055zm12 0c0-.395-.156-.777-.437-1.055a1.483 1.483 0 00-1.055-.437 1.49 1.49 0 00-1.055 2.547 1.49 1.49 0 002.11 0c.28-.278.437-.66.437-1.055zm12 0c0-.395-.156-.777-.437-1.055a1.483 1.483 0 00-1.055-.437 1.49 1.49 0 00-1.055 2.547 1.49 1.49 0 002.11 0c.28-.278.437-.66.437-1.055zm12-1c0-.395-.156-.777-.437-1.055a1.483 1.483 0 00-1.055-.437 1.49 1.49 0 00-1.055 2.547 1.49 1.49 0 002.11 0c.28-.278.437-.66.437-1.055zm12 0c0-.395-.156-.777-.437-1.055a1.483 1.483 0 00-1.055-.437 1.49 1.49 0 00-1.055 2.547 1.49 1.49 0 002.11 0c.28-.278.437-.66.437-1.055zm11 0c0-.395-.156-.777-.437-1.055a1.483 1.483 0 00-1.055-.437 1.49 1.49 0 00-1.055 2.547 1.49 1.49 0 002.11 0c.28-.278.437-.66.437-1.055zm12-1c0-.395-.156-.777-.437-1.055a1.483 1.483 0 00-1.055-.437 1.49 1.49 0 00-1.055 2.547 1.49 1.49 0 002.11 0c.28-.278.437-.66.437-1.055zm12 1c0-.395-.156-.777-.437-1.055a1.483 1.483 0 00-1.055-.437 1.49 1.49 0 00-1.055 2.547 1.49 1.49 0 002.11 0c.28-.278.437-.66.437-1.055zm12 0c0-.395-.156-.777-.437-1.055a1.483 1.483 0 00-1.055-.437 1.49 1.49 0 00-1.055 2.547 1.49 1.49 0 002.11 0c.28-.278.437-.66.437-1.055zm12 0c0-.395-.156-.777-.437-1.055a1.483 1.483 0 00-1.055-.437 1.49 1.49 0 00-1.055 2.547 1.49 1.49 0 002.11 0c.28-.278.437-.66.437-1.055zm12-1c0-.395-.156-.777-.437-1.055a1.483 1.483 0 00-1.055-.437 1.49 1.49 0 00-1.055 2.547 1.49 1.49 0 002.11 0c.28-.278.437-.66.437-1.055zm11 1c0-.395-.156-.777-.437-1.055a1.483 1.483 0 00-1.055-.437 1.49 1.49 0 00-1.055 2.547 1.49 1.49 0 002.11 0c.28-.278.437-.66.437-1.055zm12 0c0-.395-.156-.777-.437-1.055a1.483 1.483 0 00-1.055-.437 1.49 1.49 0 00-1.055 2.547 1.49 1.49 0 002.11 0c.28-.278.437-.66.437-1.055zm12 0c0-.395-.156-.777-.437-1.055a1.483 1.483 0 00-1.055-.437 1.49 1.49 0 00-1.055 2.547 1.49 1.49 0 002.11 0c.28-.278.437-.66.437-1.055zm12 0c0-.395-.156-.777-.437-1.055a1.483 1.483 0 00-1.055-.437 1.49 1.49 0 00-1.055 2.547 1.49 1.49 0 002.11 0c.28-.278.437-.66.437-1.055zm12 0c0-.395-.156-.777-.437-1.055a1.483 1.483 0 00-1.055-.437 1.49 1.49 0 00-1.055 2.547 1.49 1.49 0 002.11 0c.28-.278.437-.66.437-1.055zm0 0" fill-rule="evenodd" fill="#833987"/><path d="M34.492 233c0-.395-.156-.777-.437-1.055a1.483 1.483 0 00-1.055-.437 1.49 1.49 0 00-1.055 2.547 1.49 1.49 0 002.11 0c.28-.278.437-.66.437-1.055zm12 0c0-.395-.156-.777-.437-1.055a1.483 1.483 0 00-1.055-.437 1.49 1.49 0 00-1.055 2.547 1.49 1.49 0 002.11 0c.28-.278.437-.66.437-1.055zm12 0c0-.395-.156-.777-.437-1.055a1.483 1.483 0 00-1.055-.437 1.49 1.49 0 00-1.055 2.547 1.49 1.49 0 002.11 0c.28-.278.437-.66.437-1.055zm12 0c0-.395-.156-.777-.437-1.055a1.483 1.483 0 00-1.055-.437 1.49 1.49 0 00-1.055 2.547 1.49 1.49 0 002.11 0c.28-.278.437-.66.437-1.055zm12 0c0-.395-.156-.777-.437-1.055a1.483 1.483 0 00-1.055-.437 1.49 1.49 0 00-1.055 2.547 1.49 1.49 0 002.11 0c.28-.278.437-.66.437-1.055zm11 0c0-.395-.156-.777-.437-1.055a1.483 1.483 0 00-1.055-.437 1.49 1.49 0 00-1.055 2.547 1.49 1.49 0 002.11 0c.28-.278.437-.66.437-1.055zm12 0c0-.395-.156-.777-.437-1.055a1.483 1.483 0 00-1.055-.437 1.49 1.49 0 00-1.055 2.547 1.49 1.49 0 002.11 0c.28-.278.437-.66.437-1.055zm12 0c0-.395-.156-.777-.437-1.055a1.483 1.483 0 00-1.055-.437 1.49 1.49 0 00-1.055 2.547 1.49 1.49 0 002.11 0c.28-.278.437-.66.437-1.055zm12 0c0-.395-.156-.777-.437-1.055a1.483 1.483 0 00-1.055-.437 1.49 1.49 0 00-1.055 2.547 1.49 1.49 0 002.11 0c.28-.278.437-.66.437-1.055zm12 0c0-.395-.156-.777-.437-1.055a1.483 1.483 0 00-1.055-.437 1.49 1.49 0 00-1.055 2.547 1.49 1.49 0 002.11 0c.28-.278.437-.66.437-1.055zm12 0c0-.395-.156-.777-.437-1.055a1.483 1.483 0 00-1.055-.437 1.49 1.49 0 00-1.055 2.547 1.49 1.49 0 002.11 0c.28-.278.437-.66.437-1.055zm11 0c0-.395-.156-.777-.437-1.055a1.483 1.483 0 00-1.055-.437 1.49 1.49 0 00-1.055 2.547 1.49 1.49 0 002.11 0c.28-.278.437-.66.437-1.055zm12-1c0-.395-.156-.777-.437-1.055a1.483 1.483 0 00-1.055-.437 1.49 1.49 0 00-1.055 2.547 1.49 1.49 0 002.11 0c.28-.278.437-.66.437-1.055zm12 0c0-.395-.156-.777-.437-1.055a1.483 1.483 0 00-1.055-.437 1.49 1.49 0 00-1.055 2.547 1.49 1.49 0 002.11 0c.28-.278.437-.66.437-1.055zm12 0c0-.395-.156-.777-.437-1.055a1.483 1.483 0 00-1.055-.437 1.49 1.49 0 00-1.055 2.547 1.49 1.49 0 002.11 0c.28-.278.437-.66.437-1.055zm12 0c0-.395-.156-.777-.437-1.055a1.483 1.483 0 00-1.055-.437 1.49 1.49 0 00-1.055 2.547 1.49 1.49 0 002.11 0c.28-.278.437-.66.437-1.055zm12 0c0-.395-.156-.777-.437-1.055a1.483 1.483 0 00-1.055-.437 1.49 1.49 0 00-1.055 2.547 1.49 1.49 0 002.11 0c.28-.278.437-.66.437-1.055zm12 1c0-.395-.156-.777-.437-1.055a1.483 1.483 0 00-1.055-.437 1.49 1.49 0 00-1.055 2.547 1.49 1.49 0 002.11 0c.28-.278.437-.66.437-1.055zm11-1c0-.395-.156-.777-.437-1.055a1.483 1.483 0 00-1.055-.437 1.49 1.49 0 00-1.055 2.547 1.49 1.49 0 002.11 0c.28-.278.437-.66.437-1.055zm12-1c0-.395-.156-.777-.437-1.055a1.483 1.483 0 00-1.055-.437 1.49 1.49 0 00-1.055 2.547 1.49 1.49 0 002.11 0c.28-.278.437-.66.437-1.055zm12 1c0-.395-.156-.777-.437-1.055a1.483 1.483 0 00-1.055-.437 1.49 1.49 0 00-1.055 2.547 1.49 1.49 0 002.11 0c.28-.278.437-.66.437-1.055zm12 0c0-.395-.156-.777-.437-1.055a1.483 1.483 0 00-1.055-.437 1.49 1.49 0 00-1.055 2.547 1.49 1.49 0 002.11 0c.28-.278.437-.66.437-1.055zm12-1c0-.395-.156-.777-.437-1.055a1.483 1.483 0 00-1.055-.437 1.49 1.49 0 00-1.055 2.547 1.49 1.49 0 002.11 0c.28-.278.437-.66.437-1.055zm12 0c0-.395-.156-.777-.437-1.055a1.483 1.483 0 00-1.055-.437 1.49 1.49 0 00-1.055 2.547 1.49 1.49 0 002.11 0c.28-.278.437-.66.437-1.055zm11 1c0-.395-.156-.777-.437-1.055a1.483 1.483 0 00-1.055-.437 1.49 1.49 0 00-1.055 2.547 1.49 1.49 0 002.11 0c.28-.278.437-.66.437-1.055zm12 0c0-.395-.156-.777-.437-1.055a1.483 1.483 0 00-1.055-.437 1.49 1.49 0 00-1.055 2.547 1.49 1.49 0 002.11 0c.28-.278.437-.66.437-1.055zm12 0c0-.395-.156-.777-.437-1.055a1.483 1.483 0 00-1.055-.437 1.49 1.49 0 00-1.055 2.547 1.49 1.49 0 002.11 0c.28-.278.437-.66.437-1.055zm12 1c0-.395-.156-.777-.437-1.055a1.483 1.483 0 00-1.055-.437 1.49 1.49 0 00-1.055 2.547 1.49 1.49 0 002.11 0c.28-.278.437-.66.437-1.055zm12-1c0-.395-.156-.777-.437-1.055a1.483 1.483 0 00-1.055-.437 1.49 1.49 0 00-1.055 2.547 1.49 1.49 0 002.11 0c.28-.278.437-.66.437-1.055zm0 0" fill-rule="evenodd" fill="#1c8f6b"/><path d="M34.492 233c0-.395-.156-.777-.437-1.055a1.483 1.483 0 00-1.055-.437 1.49 1.49 0 00-1.055 2.547 1.49 1.49 0 002.11 0c.28-.278.437-.66.437-1.055zm12 0c0-.395-.156-.777-.437-1.055a1.483 1.483 0 00-1.055-.437 1.49 1.49 0 00-1.055 2.547 1.49 1.49 0 002.11 0c.28-.278.437-.66.437-1.055zm12 0c0-.395-.156-.777-.437-1.055a1.483 1.483 0 00-1.055-.437 1.49 1.49 0 00-1.055 2.547 1.49 1.49 0 002.11 0c.28-.278.437-.66.437-1.055zm12 0c0-.395-.156-.777-.437-1.055a1.483 1.483 0 00-1.055-.437 1.49 1.49 0 00-1.055 2.547 1.49 1.49 0 002.11 0c.28-.278.437-.66.437-1.055zm12 0c0-.395-.156-.777-.437-1.055a1.483 1.483 0 00-1.055-.437 1.49 1.49 0 00-1.055 2.547 1.49 1.49 0 002.11 0c.28-.278.437-.66.437-1.055zm11 0c0-.395-.156-.777-.437-1.055a1.483 1.483 0 00-1.055-.437 1.49 1.49 0 00-1.055 2.547 1.49 1.49 0 002.11 0c.28-.278.437-.66.437-1.055zm12 0c0-.395-.156-.777-.437-1.055a1.483 1.483 0 00-1.055-.437 1.49 1.49 0 00-1.055 2.547 1.49 1.49 0 002.11 0c.28-.278.437-.66.437-1.055zm12 0c0-.395-.156-.777-.437-1.055a1.483 1.483 0 00-1.055-.437 1.49 1.49 0 00-1.055 2.547 1.49 1.49 0 002.11 0c.28-.278.437-.66.437-1.055zm12 0c0-.395-.156-.777-.437-1.055a1.483 1.483 0 00-1.055-.437 1.49 1.49 0 00-1.055 2.547 1.49 1.49 0 002.11 0c.28-.278.437-.66.437-1.055zm12 0c0-.395-.156-.777-.437-1.055a1.483 1.483 0 00-1.055-.437 1.49 1.49 0 00-1.055 2.547 1.49 1.49 0 002.11 0c.28-.278.437-.66.437-1.055zm12 0c0-.395-.156-.777-.437-1.055a1.483 1.483 0 00-1.055-.437 1.49 1.49 0 00-1.055 2.547 1.49 1.49 0 002.11 0c.28-.278.437-.66.437-1.055zm11 0c0-.395-.156-.777-.437-1.055a1.483 1.483 0 00-1.055-.437 1.49 1.49 0 00-1.055 2.547 1.49 1.49 0 002.11 0c.28-.278.437-.66.437-1.055zm12 0c0-.395-.156-.777-.437-1.055a1.483 1.483 0 00-1.055-.437 1.49 1.49 0 00-1.055 2.547 1.49 1.49 0 002.11 0c.28-.278.437-.66.437-1.055zm12 0c0-.395-.156-.777-.437-1.055a1.483 1.483 0 00-1.055-.437 1.49 1.49 0 00-1.055 2.547 1.49 1.49 0 002.11 0c.28-.278.437-.66.437-1.055zm12-1c0-.395-.156-.777-.437-1.055a1.483 1.483 0 00-1.055-.437 1.49 1.49 0 00-1.055 2.547 1.49 1.49 0 002.11 0c.28-.278.437-.66.437-1.055zm12 0c0-.395-.156-.777-.437-1.055a1.483 1.483 0 00-1.055-.437 1.49 1.49 0 00-1.055 2.547 1.49 1.49 0 002.11 0c.28-.278.437-.66.437-1.055zm12 0c0-.395-.156-.777-.437-1.055a1.483 1.483 0 00-1.055-.437 1.49 1.49 0 00-1.055 2.547 1.49 1.49 0 002.11 0c.28-.278.437-.66.437-1.055zm12 0c0-.395-.156-.777-.437-1.055a1.483 1.483 0 00-1.055-.437 1.49 1.49 0 00-1.055 2.547 1.49 1.49 0 002.11 0c.28-.278.437-.66.437-1.055zm11 0c0-.395-.156-.777-.437-1.055a1.483 1.483 0 00-1.055-.437 1.49 1.49 0 00-1.055 2.547 1.49 1.49 0 002.11 0c.28-.278.437-.66.437-1.055zm12 0c0-.395-.156-.777-.437-1.055a1.483 1.483 0 00-1.055-.437 1.49 1.49 0 00-1.055 2.547 1.49 1.49 0 002.11 0c.28-.278.437-.66.437-1.055zm12 0c0-.395-.156-.777-.437-1.055a1.483 1.483 0 00-1.055-.437 1.49 1.49 0 00-1.055 2.547 1.49 1.49 0 002.11 0c.28-.278.437-.66.437-1.055zm12 0c0-.395-.156-.777-.437-1.055a1.483 1.483 0 00-1.055-.437 1.49 1.49 0 00-1.055 2.547 1.49 1.49 0 002.11 0c.28-.278.437-.66.437-1.055zm12 0c0-.395-.156-.777-.437-1.055a1.483 1.483 0 00-1.055-.437 1.49 1.49 0 00-1.055 2.547 1.49 1.49 0 002.11 0c.28-.278.437-.66.437-1.055zm12 0c0-.395-.156-.777-.437-1.055a1.483 1.483 0 00-1.055-.437 1.49 1.49 0 00-1.055 2.547 1.49 1.49 0 002.11 0c.28-.278.437-.66.437-1.055zm11 0c0-.395-.156-.777-.437-1.055a1.483 1.483 0 00-1.055-.437 1.49 1.49 0 00-1.055 2.547 1.49 1.49 0 002.11 0c.28-.278.437-.66.437-1.055zm12-1c0-.395-.156-.777-.437-1.055a1.483 1.483 0 00-1.055-.437 1.49 1.49 0 00-1.055 2.547 1.49 1.49 0 002.11 0c.28-.278.437-.66.437-1.055zm12 0c0-.395-.156-.777-.437-1.055a1.483 1.483 0 00-1.055-.437 1.49 1.49 0 00-1.055 2.547 1.49 1.49 0 002.11 0c.28-.278.437-.66.437-1.055zm12 1c0-.395-.156-.777-.437-1.055a1.483 1.483 0 00-1.055-.437 1.49 1.49 0 00-1.055 2.547 1.49 1.49 0 002.11 0c.28-.278.437-.66.437-1.055zm12 0c0-.395-.156-.777-.437-1.055a1.483 1.483 0 00-1.055-.437 1.49 1.49 0 00-1.055 2.547 1.49 1.49 0 002.11 0c.28-.278.437-.66.437-1.055zm0 0" fill-rule="evenodd" fill="#a54f05"/><path d="M432.2 208.754h4.64l.066-.012.07-.02.07-.035.083-.058.082-.086.09-.117.097-.153.106-.195.11-.238.12-.293.125-.352.133-.41.145-.476.152-.547.164-.625.172-.703.184-.793.195-.883.203-.98.215-1.083.23-1.187.243-1.297.253-1.414.266-1.535.281-1.66.293-1.793.309-1.93.324-2.07.34-2.215.355-2.367.372-2.524.386-2.683.406-2.852.422-3.012.434-3.168.453-3.308.465-3.446.476-3.566.489-3.68.5-3.785.511-3.879.516-3.96.527-4.04.536-4.097.535-4.157.547-4.195.546-4.234.547-4.254.555-4.27.55-4.277.556-4.266.55-4.254.551-4.226.547-4.192.543-4.148.535-4.09.531-4.023.528-3.95.515-3.863.508-3.77.496-3.66.488-3.546.473-3.422.465-3.29.45-3.14.433-2.988.418-2.82.398-2.657.39-2.496.372-2.344.355-2.191.348-2.043.328-1.906.32-1.774.31-1.64.292-1.512.285-1.395.274-1.28.265-1.169.254-1.062.246-.965.239-.867.234-.778.223-.691.214-.613.211-.536.207-.464.2-.399.195-.34.195-.285.188-.23.187-.188.184-.148.18-.11.183-.082.18-.054.18-.032.18-.02.183-.007h4.797" fill="none" stroke-width="4" stroke-linejoin="round" stroke="#fff" stroke-opacity=".667" stroke-miterlimit="3.25"/><path d="M432.2 208.754h4.64l.066-.012.07-.02.07-.035.083-.058.082-.086.09-.117.097-.153.106-.195.11-.238.12-.293.125-.352.133-.41.145-.476.152-.547.164-.625.172-.703.184-.793.195-.883.203-.98.215-1.083.23-1.187.243-1.297.253-1.414.266-1.535.281-1.66.293-1.793.309-1.93.324-2.07.34-2.215.355-2.367.372-2.524.386-2.683.406-2.852.422-3.012.434-3.168.453-3.308.465-3.446.476-3.566.489-3.68.5-3.785.511-3.879.516-3.96.527-4.04.536-4.097.535-4.157.547-4.195.546-4.234.547-4.254.555-4.27.55-4.277.556-4.266.55-4.254.551-4.226.547-4.192.543-4.148.535-4.09.531-4.023.528-3.95.515-3.863.508-3.77.496-3.66.488-3.546.473-3.422.465-3.29.45-3.14.433-2.988.418-2.82.398-2.657.39-2.496.372-2.344.355-2.191.348-2.043.328-1.906.32-1.774.31-1.64.292-1.512.285-1.395.274-1.28.265-1.169.254-1.062.246-.965.239-.867.234-.778.223-.691.214-.613.211-.536.207-.464.2-.399.195-.34.195-.285.188-.23.187-.188.184-.148.18-.11.183-.082.18-.054.18-.032.18-.02.183-.007h4.797" fill="none" stroke-width="1.25" stroke-linecap="square" stroke="#aaa" stroke-miterlimit="3.25"/><path d="M498.473 8.414v15h-25v-15zm0 0" fill="#fff" fill-opacity=".667"/><use xlink:href="#a" x="475.973" y="18.414"/><use xlink:href="#b" x="485.973" y="18.414"/><path d="M432.2 212.695h4.6l.067-.004.07-.011.075-.028.082-.043.086-.07.093-.101.098-.137.11-.172.113-.223.125-.27.133-.327.14-.387.153-.457.16-.524.172-.605.183-.684.195-.773.207-.863.22-.965.234-1.067.246-1.172.258-1.289.273-1.406.293-1.531.3-1.66.325-1.797.336-1.934.351-2.078.372-2.23.39-2.383.406-2.547.426-2.71.442-2.876.46-3.027.477-3.172.492-3.3.508-3.423.516-3.535.531-3.637.539-3.722.55-3.805.555-3.871.567-3.934.566-3.98.575-4.016.578-4.043.582-4.062.582-4.067.582-4.062.578-4.047.578-4.023.574-3.989.57-3.937.567-3.887.559-3.816.546-3.739.543-3.648.532-3.55.52-3.446.503-3.32.492-3.192.48-3.055.462-2.898.445-2.742.43-2.57.41-2.415.394-2.254.38-2.105.363-1.957.347-1.816.336-1.684.32-1.55.309-1.43.3-1.305.286-1.195.273-1.083.266-.98.258-.879.246-.789.238-.7.23-.616.227-.54.219-.464.21-.399.208-.336.203-.28.2-.231.195-.18.195-.14.191-.106.192-.078.187-.047.192-.031.187-.012.192-.008h4.746" fill="none" stroke-width="4" stroke-linejoin="round" stroke="#fff" stroke-opacity=".667" stroke-miterlimit="3.25"/><path d="M432.2 212.695h4.6l.067-.004.07-.011.075-.028.082-.043.086-.07.093-.101.098-.137.11-.172.113-.223.125-.27.133-.327.14-.387.153-.457.16-.524.172-.605.183-.684.195-.773.207-.863.22-.965.234-1.067.246-1.172.258-1.289.273-1.406.293-1.531.3-1.66.325-1.797.336-1.934.351-2.078.372-2.23.39-2.383.406-2.547.426-2.71.442-2.876.46-3.027.477-3.172.492-3.3.508-3.423.516-3.535.531-3.637.539-3.722.55-3.805.555-3.871.567-3.934.566-3.98.575-4.016.578-4.043.582-4.062.582-4.067.582-4.062.578-4.047.578-4.023.574-3.989.57-3.937.567-3.887.559-3.816.546-3.739.543-3.648.532-3.55.52-3.446.503-3.32.492-3.192.48-3.055.462-2.898.445-2.742.43-2.57.41-2.415.394-2.254.38-2.105.363-1.957.347-1.816.336-1.684.32-1.55.309-1.43.3-1.305.286-1.195.273-1.083.266-.98.258-.879.246-.789.238-.7.23-.616.227-.54.219-.464.21-.399.208-.336.203-.28.2-.231.195-.18.195-.14.191-.106.192-.078.187-.047.192-.031.187-.012.192-.008h4.746" fill="none" stroke-width="1.25" stroke-linecap="square" stroke="#aaa" stroke-miterlimit="3.25"/><path d="M498.473 30.746v15h-25v-15zm0 0" fill="#fff" fill-opacity=".667"/><use xlink:href="#c" x="475.973" y="40.747"/><use xlink:href="#d" x="485.973" y="40.747"/><path d="M432.2 235.188h4.6l.13-.004.144-.016.172-.04.192-.065.222-.106.25-.152.29-.207.323-.278.368-.351.41-.434.457-.527.508-.625.566-.742.617-.856.684-.988.746-1.125.812-1.27.875-1.414.938-1.535.98-1.644 1.028-1.73 1.058-1.802 1.082-1.851 1.098-1.887 1.11-1.906 1.113-1.903 1.101-1.882 1.09-1.844 1.066-1.793 1.036-1.715 1-1.625.949-1.52.898-1.39.832-1.246.774-1.098.715-.969.66-.835.613-.72.566-.613.528-.507.492-.422.46-.336.435-.266.41-.199.39-.145.38-.097.366-.063.364-.03.363-.013.367-.004h4.645" fill="none" stroke-width="4" stroke-linejoin="round" stroke="#fff" stroke-opacity=".667" stroke-miterlimit="3.25"/><path d="M432.2 235.188h4.6l.13-.004.144-.016.172-.04.192-.065.222-.106.25-.152.29-.207.323-.278.368-.351.41-.434.457-.527.508-.625.566-.742.617-.856.684-.988.746-1.125.812-1.27.875-1.414.938-1.535.98-1.644 1.028-1.73 1.058-1.802 1.082-1.851 1.098-1.887 1.11-1.906 1.113-1.903 1.101-1.882 1.09-1.844 1.066-1.793 1.036-1.715 1-1.625.949-1.52.898-1.39.832-1.246.774-1.098.715-.969.66-.835.613-.72.566-.613.528-.507.492-.422.46-.336.435-.266.41-.199.39-.145.38-.097.366-.063.364-.03.363-.013.367-.004h4.645" fill="none" stroke-width="1.25" stroke-linecap="square" stroke="#aaa" stroke-miterlimit="3.25"/><path d="M498.473 184.898v15h-25v-15zm0 0" fill="#fff" fill-opacity=".667"/><use xlink:href="#e" x="475.973" y="194.9"/><use xlink:href="#f" x="485.973" y="194.9"/><path d="M432.2 236.105h5.644l.476.004.59.004.707.004.848.008.996.012 1.164.011 1.348.012 1.515.02 1.649.02 1.75.019 1.808.023 1.84.024 1.828.02 1.782.023 1.699.02 1.582.015 1.43.015 1.257.012 1.106.012.972.008.864.004.77.003.698.004.645.004h6.305" fill="none" stroke-width="4" stroke-linejoin="round" stroke="#fff" stroke-opacity=".667" stroke-miterlimit="3.25"/><path d="M432.2 236.105h5.644l.476.004.59.004.707.004.848.008.996.012 1.164.011 1.348.012 1.515.02 1.649.02 1.75.019 1.808.023 1.84.024 1.828.02 1.782.023 1.699.02 1.582.015 1.43.015 1.257.012 1.106.012.972.008.864.004.77.003.698.004.645.004h6.305" fill="none" stroke-width="1.25" stroke-linecap="square" stroke="#aaa" stroke-miterlimit="3.25"/><path d="M498.473 228.906v15h-25v-15zm0 0" fill="#fff" fill-opacity=".667"/><use xlink:href="#g" x="475.973" y="238.906"/><use xlink:href="#h" x="485.973" y="238.906"/><path d="M432.2 233h4.652l.101-.008.11-.023.12-.047.137-.074.149-.114.168-.156.183-.21.203-.27.223-.336.242-.41.266-.493.293-.582.316-.675.34-.782.371-.894.403-1.012.433-1.14.465-1.274.496-1.414.535-1.563.57-1.718.61-1.883.644-2.043.676-2.184.711-2.316.735-2.434.761-2.53.778-2.622.796-2.688.81-2.742.82-2.785.828-2.812.832-2.825.832-2.816.828-2.8.82-2.766.813-2.72.796-2.655.782-2.579.765-2.484.739-2.375.71-2.254.684-2.117.652-1.96.614-1.802.578-1.64.547-1.489.52-1.34.484-1.207.46-1.074.434-.953.41-.836.39-.73.368-.63.352-.534.336-.45.32-.37.309-.305.296-.239.29-.18.28-.136.274-.09.274-.062.273-.032.27-.015.273-.004h4.723" fill="none" stroke-width="4" stroke-linejoin="round" stroke="#fff" stroke-opacity=".667" stroke-miterlimit="3.25"/><path d="M432.2 233h4.652l.101-.008.11-.023.12-.047.137-.074.149-.114.168-.156.183-.21.203-.27.223-.336.242-.41.266-.493.293-.582.316-.675.34-.782.371-.894.403-1.012.433-1.14.465-1.274.496-1.414.535-1.563.57-1.718.61-1.883.644-2.043.676-2.184.711-2.316.735-2.434.761-2.53.778-2.622.796-2.688.81-2.742.82-2.785.828-2.812.832-2.825.832-2.816.828-2.8.82-2.766.813-2.72.796-2.655.782-2.579.765-2.484.739-2.375.71-2.254.684-2.117.652-1.96.614-1.802.578-1.64.547-1.489.52-1.34.484-1.207.46-1.074.434-.953.41-.836.39-.73.368-.63.352-.534.336-.45.32-.37.309-.305.296-.239.29-.18.28-.136.274-.09.274-.062.273-.032.27-.015.273-.004h4.723" fill="none" stroke-width="1.25" stroke-linecap="square" stroke="#aaa" stroke-miterlimit="3.25"/><path d="M498.473 140.797v15h-25v-15zm0 0" fill="#fff" fill-opacity=".667"/><use xlink:href="#i" x="475.973" y="150.795"/><use xlink:href="#j" x="485.973" y="150.795"/><path d="M432.2 234.277h4.628l.11-.007.12-.02.137-.04.157-.065.171-.106.192-.148.215-.2.238-.261.266-.328.293-.403.324-.484.355-.578.387-.676.426-.781.46-.899.505-1.02.543-1.148.586-1.285.628-1.43.68-1.585.723-1.735.765-1.867.801-1.984.836-2.09.86-2.172.882-2.246.903-2.305.914-2.344.922-2.367.93-2.375.925-2.371.922-2.348.91-2.308.899-2.258.875-2.188.855-2.101.828-2.004.79-1.887.757-1.758.71-1.609.669-1.457.629-1.312.586-1.168.55-1.043.516-.914.485-.801.457-.696.425-.59.407-.503.382-.414.364-.34.347-.274.336-.207.32-.156.313-.113.309-.074.304-.043.301-.02.305-.008h4.84" fill="none" stroke-width="4" stroke-linejoin="round" stroke="#fff" stroke-opacity=".667" stroke-miterlimit="3.25"/><path d="M432.2 234.277h4.628l.11-.007.12-.02.137-.04.157-.065.171-.106.192-.148.215-.2.238-.261.266-.328.293-.403.324-.484.355-.578.387-.676.426-.781.46-.899.505-1.02.543-1.148.586-1.285.628-1.43.68-1.585.723-1.735.765-1.867.801-1.984.836-2.09.86-2.172.882-2.246.903-2.305.914-2.344.922-2.367.93-2.375.925-2.371.922-2.348.91-2.308.899-2.258.875-2.188.855-2.101.828-2.004.79-1.887.757-1.758.71-1.609.669-1.457.629-1.312.586-1.168.55-1.043.516-.914.485-.801.457-.696.425-.59.407-.503.382-.414.364-.34.347-.274.336-.207.32-.156.313-.113.309-.074.304-.043.301-.02.305-.008h4.84" fill="none" stroke-width="1.25" stroke-linecap="square" stroke="#aaa" stroke-miterlimit="3.25"/><path d="M498.473 162.863v15h-25v-15zm0 0" fill="#fff" fill-opacity=".667"/><use xlink:href="#c" x="475.973" y="172.862"/><use xlink:href="#j" x="485.973" y="172.862"/><path d="M432.2 236.066h4.613l.175-.004.207-.015.25-.043.297-.074.356-.121.418-.176.488-.238.562-.313.653-.402.742-.496.844-.598.953-.719 1.066-.844 1.176-.96 1.266-1.067 1.34-1.14 1.394-1.204 1.438-1.246 1.453-1.261 1.453-1.258 1.441-1.239 1.406-1.195 1.352-1.133 1.285-1.047 1.195-.945 1.09-.82.985-.696.89-.585.801-.477.73-.387.66-.3.61-.227.559-.164.523-.113.5-.07.48-.036.477-.016h5.145" fill="none" stroke-width="4" stroke-linejoin="round" stroke="#fff" stroke-opacity=".667" stroke-miterlimit="3.25"/><path d="M432.2 236.066h4.613l.175-.004.207-.015.25-.043.297-.074.356-.121.418-.176.488-.238.562-.313.653-.402.742-.496.844-.598.953-.719 1.066-.844 1.176-.96 1.266-1.067 1.34-1.14 1.394-1.204 1.438-1.246 1.453-1.261 1.453-1.258 1.441-1.239 1.406-1.195 1.352-1.133 1.285-1.047 1.195-.945 1.09-.82.985-.696.89-.585.801-.477.73-.387.66-.3.61-.227.559-.164.523-.113.5-.07.48-.036.477-.016h5.145" fill="none" stroke-width="1.25" stroke-linecap="square" stroke="#aaa" stroke-miterlimit="3.25"/><path d="M498.473 206.938v15h-25v-15zm0 0" fill="#fff" fill-opacity=".667"/><use xlink:href="#k" x="475.973" y="216.936"/><use xlink:href="#l" x="485.973" y="216.936"/><path d="M432.2 232.238h4.581l.07-.004.075-.007.082-.024.086-.043.094-.062.101-.098.11-.133.117-.172.129-.218.136-.274.149-.328.156-.395.172-.464.183-.536.196-.62.207-.704.222-.797.239-.894.254-.996.265-1.106.285-1.218.305-1.344.316-1.465.34-1.594.356-1.734.375-1.875.394-2.024.418-2.18.438-2.335.457-2.5.48-2.664.5-2.813.516-2.953.535-3.082.55-3.2.567-3.304.578-3.398.586-3.485.598-3.554.61-3.618.613-3.664.617-3.703.625-3.73.625-3.746.625-3.754.629-3.742.625-3.727.62-3.7.618-3.66.613-3.605.602-3.543.598-3.469.585-3.382.57-3.29.563-3.18.543-3.062.531-2.93.512-2.788.496-2.637.473-2.473.453-2.312.434-2.149.414-2 .398-1.851.38-1.711.366-1.574.348-1.446.332-1.316.32-1.203.309-1.086.293-.98.285-.88.27-.777.265-.691.25-.606.246-.523.238-.453.231-.383.223-.32.218-.262.215-.211.211-.164.211-.13.207-.089.203-.058.203-.04.207-.02.207-.007.207-.004h4.618" fill="none" stroke-width="4" stroke-linejoin="round" stroke="#fff" stroke-opacity=".667" stroke-miterlimit="3.25"/><path d="M432.2 232.238h4.581l.07-.004.075-.007.082-.024.086-.043.094-.062.101-.098.11-.133.117-.172.129-.218.136-.274.149-.328.156-.395.172-.464.183-.536.196-.62.207-.704.222-.797.239-.894.254-.996.265-1.106.285-1.218.305-1.344.316-1.465.34-1.594.356-1.734.375-1.875.394-2.024.418-2.18.438-2.335.457-2.5.48-2.664.5-2.813.516-2.953.535-3.082.55-3.2.567-3.304.578-3.398.586-3.485.598-3.554.61-3.618.613-3.664.617-3.703.625-3.73.625-3.746.625-3.754.629-3.742.625-3.727.62-3.7.618-3.66.613-3.605.602-3.543.598-3.469.585-3.382.57-3.29.563-3.18.543-3.062.531-2.93.512-2.788.496-2.637.473-2.473.453-2.312.434-2.149.414-2 .398-1.851.38-1.711.366-1.574.348-1.446.332-1.316.32-1.203.309-1.086.293-.98.285-.88.27-.777.265-.691.25-.606.246-.523.238-.453.231-.383.223-.32.218-.262.215-.211.211-.164.211-.13.207-.089.203-.058.203-.04.207-.02.207-.007.207-.004h4.618" fill="none" stroke-width="1.25" stroke-linecap="square" stroke="#aaa" stroke-miterlimit="3.25"/><path d="M498.473 75.992v14h-25v-14zm0 0" fill="#fff" fill-opacity=".667"/><use xlink:href="#h" x="475.973" y="85.493"/><use xlink:href="#m" x="485.973" y="85.493"/><path d="M432.2 232.703h4.636l.078-.008.086-.02.094-.038.101-.063.114-.094.12-.128.13-.176.14-.223.156-.277.168-.344.18-.406.195-.485.207-.562.227-.649.242-.742.258-.84.277-.945.293-1.055.317-1.175.336-1.297.355-1.426.38-1.563.397-1.707.422-1.851.45-2.008.472-2.168.496-2.332.524-2.496.543-2.648.57-2.79.586-2.914.602-3.027.62-3.129.633-3.219.645-3.296.656-3.36.664-3.414.672-3.453.676-3.484.68-3.496.68-3.5.679-3.489.68-3.469.672-3.437.668-3.387.656-3.332.648-3.258.637-3.175.625-3.082.61-2.973.59-2.852.573-2.718.551-2.575.531-2.418.504-2.25.48-2.085.462-1.93.437-1.778.418-1.632.399-1.493.379-1.363.363-1.234.348-1.113.332-1 .316-.895.3-.789.294-.695.28-.606.27-.52.258-.445.254-.375.242-.308.239-.25.234-.196.23-.152.223-.113.227-.078.218-.047.223-.028.223-.015.226-.004h4.696" fill="none" stroke-width="4" stroke-linejoin="round" stroke="#fff" stroke-opacity=".667" stroke-miterlimit="3.25"/><path d="M432.2 232.703h4.636l.078-.008.086-.02.094-.038.101-.063.114-.094.12-.128.13-.176.14-.223.156-.277.168-.344.18-.406.195-.485.207-.562.227-.649.242-.742.258-.84.277-.945.293-1.055.317-1.175.336-1.297.355-1.426.38-1.563.397-1.707.422-1.851.45-2.008.472-2.168.496-2.332.524-2.496.543-2.648.57-2.79.586-2.914.602-3.027.62-3.129.633-3.219.645-3.296.656-3.36.664-3.414.672-3.453.676-3.484.68-3.496.68-3.5.679-3.489.68-3.469.672-3.437.668-3.387.656-3.332.648-3.258.637-3.175.625-3.082.61-2.973.59-2.852.573-2.718.551-2.575.531-2.418.504-2.25.48-2.085.462-1.93.437-1.778.418-1.632.399-1.493.379-1.363.363-1.234.348-1.113.332-1 .316-.895.3-.789.294-.695.28-.606.27-.52.258-.445.254-.375.242-.308.239-.25.234-.196.23-.152.223-.113.227-.078.218-.047.223-.028.223-.015.226-.004h4.696" fill="none" stroke-width="1.25" stroke-linecap="square" stroke="#aaa" stroke-miterlimit="3.25"/><path d="M498.473 96.836v15h-25v-15zm0 0" fill="#fff" fill-opacity=".667"/><use xlink:href="#h" x="475.973" y="106.838"/><use xlink:href="#n" x="485.973" y="106.838"/><path d="M432.2 231.996h4.562l.062-.004.07-.004.07-.02.083-.03.082-.055.094-.086.097-.113.106-.153.113-.199.121-.246.133-.3.14-.36.149-.426.164-.5.168-.57.184-.657.195-.742.21-.836.22-.933.234-1.035.246-1.145.266-1.262.277-1.379.29-1.507.312-1.637.324-1.77.34-1.914.36-2.062.378-2.215.395-2.371.418-2.535.433-2.707.453-2.871.473-3.024.484-3.172.504-3.3.52-3.43.53-3.535.544-3.641.55-3.727.563-3.808.57-3.88.579-3.933.582-3.976.59-4.016.59-4.039 1.187-8.11.594-4.05.59-4.027.59-4 .585-3.957.578-3.907.575-3.843.566-3.77.555-3.684.547-3.59.539-3.484.52-3.367.51-3.238.493-3.098.48-2.95.461-2.788.442-2.621.426-2.453.406-2.293.39-2.137.375-1.984.36-1.844.344-1.703.332-1.57.316-1.446.305-1.316.297-1.204.28-1.09.27-.984.262-.883.254-.789.242-.699.238-.613.227-.535.223-.461.218-.39.211-.333.207-.27.204-.222.199-.176.195-.133.195-.097.196-.07.195-.044.191-.023.196-.012.195-.004h4.684" fill="none" stroke-width="4" stroke-linejoin="round" stroke="#fff" stroke-opacity=".667" stroke-miterlimit="3.25"/><path d="M432.2 231.996h4.562l.062-.004.07-.004.07-.02.083-.03.082-.055.094-.086.097-.113.106-.153.113-.199.121-.246.133-.3.14-.36.149-.426.164-.5.168-.57.184-.657.195-.742.21-.836.22-.933.234-1.035.246-1.145.266-1.262.277-1.379.29-1.507.312-1.637.324-1.77.34-1.914.36-2.062.378-2.215.395-2.371.418-2.535.433-2.707.453-2.871.473-3.024.484-3.172.504-3.3.52-3.43.53-3.535.544-3.641.55-3.727.563-3.808.57-3.88.579-3.933.582-3.976.59-4.016.59-4.039 1.187-8.11.594-4.05.59-4.027.59-4 .585-3.957.578-3.907.575-3.843.566-3.77.555-3.684.547-3.59.539-3.484.52-3.367.51-3.238.493-3.098.48-2.95.461-2.788.442-2.621.426-2.453.406-2.293.39-2.137.375-1.984.36-1.844.344-1.703.332-1.57.316-1.446.305-1.316.297-1.204.28-1.09.27-.984.262-.883.254-.789.242-.699.238-.613.227-.535.223-.461.218-.39.211-.333.207-.27.204-.222.199-.176.195-.133.195-.097.196-.07.195-.044.191-.023.196-.012.195-.004h4.684" fill="none" stroke-width="1.25" stroke-linecap="square" stroke="#aaa" stroke-miterlimit="3.25"/><path d="M498.473 54.11v15h-25v-15zm0 0" fill="#fff" fill-opacity=".667"/><use xlink:href="#o" x="475.973" y="64.11"/><use xlink:href="#p" x="485.973" y="64.11"/><path d="M432.2 232.863h4.671l.094-.015.101-.028.11-.05.12-.083.134-.117.144-.164.16-.215.176-.27.192-.335.207-.41.222-.488.246-.57.262-.669.285-.765.309-.871.332-.989.351-1.105.38-1.235.406-1.367.433-1.512.461-1.656.488-1.816.52-1.977.55-2.144.583-2.309.61-2.465.632-2.597.66-2.727.676-2.832.7-2.934.71-3.011.727-3.082.734-3.137.742-3.176.75-3.203 1.508-6.43.75-3.203.746-3.168.742-3.129.73-3.07.72-3 .706-2.918.688-2.816.668-2.703.648-2.579.625-2.441.594-2.281.57-2.117.54-1.95.511-1.789.485-1.632.46-1.485.434-1.348.418-1.21.39-1.086.376-.965.355-.856.34-.75.324-.648.313-.559.297-.472.285-.399.277-.324.266-.262.261-.203.254-.156.254-.113.246-.075.246-.047.247-.027.246-.008.25-.004h4.625" fill="none" stroke-width="4" stroke-linejoin="round" stroke="#fff" stroke-opacity=".667" stroke-miterlimit="3.25"/><path d="M432.2 232.863h4.671l.094-.015.101-.028.11-.05.12-.083.134-.117.144-.164.16-.215.176-.27.192-.335.207-.41.222-.488.246-.57.262-.669.285-.765.309-.871.332-.989.351-1.105.38-1.235.406-1.367.433-1.512.461-1.656.488-1.816.52-1.977.55-2.144.583-2.309.61-2.465.632-2.597.66-2.727.676-2.832.7-2.934.71-3.011.727-3.082.734-3.137.742-3.176.75-3.203 1.508-6.43.75-3.203.746-3.168.742-3.129.73-3.07.72-3 .706-2.918.688-2.816.668-2.703.648-2.579.625-2.441.594-2.281.57-2.117.54-1.95.511-1.789.485-1.632.46-1.485.434-1.348.418-1.21.39-1.086.376-.965.355-.856.34-.75.324-.648.313-.559.297-.472.285-.399.277-.324.266-.262.261-.203.254-.156.254-.113.246-.075.246-.047.247-.027.246-.008.25-.004h4.625" fill="none" stroke-width="1.25" stroke-linecap="square" stroke="#aaa" stroke-miterlimit="3.25"/><path d="M498.473 118.816v15h-25v-15zm0 0" fill="#fff" fill-opacity=".667"/><use xlink:href="#q" x="475.973" y="128.817"/><use xlink:href="#f" x="485.973" y="128.817"/><path d="M364.828 90.168l11.844 51.539 11.848 63.055 11.843 55.215 11.848 62.593 11.844 60.989V33.949l-11.844 7.332-11.848 5.32-11.843 11.973-11.848 2.989zm0 0" fill="gray" fill-opacity=".05"/><path d="M364.828 117.625l11.844 50.316 11.848 62.188 11.843 53.664 11.848 61.25 11.844 59.418V20.93L412.21 36.344l-11.848 13.168-11.843 19.996-11.848 10.289zm0 0" fill="gray" fill-opacity=".05"/><path d="M364.828 231.008l11.844 3.375 11.848 2.86 11.843 2.976 11.848 2.996 11.844 3.05v-22.16l-11.844 1.29-11.848 1.316-11.843 1.281-11.848 1.328zm0 0" fill="gray" fill-opacity=".05"/><path d="M364.828 231.98l11.844 3.856 11.848 3.242 11.843 3.246 11.848 3.281 11.844 3.31v-25.618l-11.844 1.531-11.848 1.559-11.843 1.597-11.848 1.621zm0 0" fill="gray" fill-opacity=".05"/><path d="M364.828 230.578l11.844 2.008 11.848 1.984 11.843 1.883 11.848 2.004 11.844 1.992v-14.894l-11.844.894-11.848.871-11.843.97-11.848.831zm0 0" fill="gray" fill-opacity=".05"/><path d="M364.828 231.547l11.844 2.566 11.848 1.543 11.843 2.09 11.848 1.777 11.844 2.008v-14.508l-11.844.903-11.848 1.094-11.843.722-11.848 1.18zm0 0" fill="gray" fill-opacity=".05"/><path d="M364.828 230.957l11.844 2.523 11.848 2.45 11.843 2.394 11.848 2.5 11.844 2.52v-14.555l-11.844.281-11.848.293-11.843.383-11.848.309zm0 0" fill="gray" fill-opacity=".05"/><path d="M364.828 231.172l11.844 2.152 11.848 1.465 11.843 1.594 11.848 1.523 11.844 1.543v-14.422l-11.844 1.2-11.848 1.214-11.843 1.141-11.848 1.273zm0 0" fill="gray" fill-opacity=".05"/><path d="M364.828 231.871l11.844.55 11.848.45 11.843.488 11.848.48 11.844.5v-3.273l-11.844.149-11.848.16-11.843.145-11.848.167zm0 0" fill="gray" fill-opacity=".05"/><path d="M364.828 232.36l11.844 1.3 11.848.883 11.843.957 11.848.914 11.844.926v-10.692l-11.844 1.13-11.848 1.132-11.843 1.082-11.848 1.14zm0 0" fill="gray" fill-opacity=".05"/><path d="M364.828 231.926l11.844 1.031 11.848.734 11.843.883 11.848.817 11.844.879v-6.81l-11.844.49-11.848.538-11.843.438-11.848.543zm0 0" fill="gray" fill-opacity=".05"/><path d="M432.2 248.32H25m0 0V4m0 0h407.2m0 0v244.32" fill="none" stroke-width=".5" stroke-linecap="square" stroke="#666" stroke-miterlimit="3.25"/><path d="M56.836 248.32v-5.656" fill="none" stroke-width=".5" stroke="#666" stroke-miterlimit="3.25"/><g fill="#666"><use xlink:href="#r" x="42.336" y="260.32"/><use xlink:href="#s" x="47.853" y="260.32"/><use xlink:href="#t" x="53.293" y="260.32"/></g><g fill="#666"><use xlink:href="#u" x="60.336" y="260.32"/><use xlink:href="#v" x="65.951" y="260.32"/></g><path d="M139.758 248.32v-5.656" fill="none" stroke-width=".5" stroke="#666" stroke-miterlimit="3.25"/><g fill="#666"><use xlink:href="#r" x="125.256" y="260.32"/><use xlink:href="#s" x="130.774" y="260.32"/><use xlink:href="#t" x="136.213" y="260.32"/></g><g fill="#666"><use xlink:href="#w" x="143.256" y="260.32"/><use xlink:href="#x" x="148.872" y="260.32"/></g><path d="M222.676 248.32v-5.656" fill="none" stroke-width=".5" stroke="#666" stroke-miterlimit="3.25"/><g fill="#666"><use xlink:href="#r" x="208.177" y="260.32"/><use xlink:href="#s" x="213.695" y="260.32"/><use xlink:href="#t" x="219.134" y="260.32"/></g><g fill="#666"><use xlink:href="#w" x="226.177" y="260.32"/><use xlink:href="#y" x="231.792" y="260.32"/></g><path d="M305.598 248.32v-5.656" fill="none" stroke-width=".5" stroke="#666" stroke-miterlimit="3.25"/><g fill="#666"><use xlink:href="#z" x="291.098" y="260.32"/><use xlink:href="#A" x="296.625" y="260.32"/><use xlink:href="#B" x="301.923" y="260.32"/></g><g fill="#666"><use xlink:href="#x" x="309.098" y="260.32"/><use xlink:href="#v" x="314.713" y="260.32"/></g><path d="M388.52 248.32v-5.656" fill="none" stroke-width=".5" stroke="#666" stroke-miterlimit="3.25"/><g fill="#666"><use xlink:href="#z" x="374.019" y="260.32"/><use xlink:href="#A" x="379.546" y="260.32"/><use xlink:href="#B" x="384.844" y="260.32"/></g><g fill="#666"><use xlink:href="#u" x="392.019" y="260.32"/><use xlink:href="#x" x="397.634" y="260.32"/></g><path d="M25 244.227h2.398M25 233.438h4" fill="none" stroke-width=".5" stroke="#666" stroke-miterlimit="3.25"/><use xlink:href="#x" x="16" y="235.937" fill="#666"/><path d="M25 222.648h2.398M25 211.86h2.398M25 201.07h2.398M25 190.285h2.398M25 179.496h4" fill="none" stroke-width=".5" stroke="#666" stroke-miterlimit="3.25"/><g fill="#666"><use xlink:href="#u" y="181.995"/><use xlink:href="#x" x="5.615" y="181.995"/><use xlink:href="#x" x="11.23" y="181.995"/><use xlink:href="#x" x="16.846" y="181.995"/></g><path d="M25 168.707h2.398M25 157.918h2.398M25 147.129h2.398M25 136.344h2.398M25 125.555h4" fill="none" stroke-width=".5" stroke="#666" stroke-miterlimit="3.25"/><g fill="#666"><use xlink:href="#w" y="128.054"/><use xlink:href="#x" x="5.615" y="128.054"/><use xlink:href="#x" x="11.23" y="128.054"/><use xlink:href="#x" x="16.846" y="128.054"/></g><path d="M25 114.766h2.398M25 103.977h2.398M25 93.188h2.398M25 82.398h2.398M25 71.613h4" fill="none" stroke-width=".5" stroke="#666" stroke-miterlimit="3.25"/><g fill="#666"><use xlink:href="#v" y="74.112"/><use xlink:href="#x" x="5.615" y="74.112"/><use xlink:href="#x" x="11.23" y="74.112"/><use xlink:href="#x" x="16.846" y="74.112"/></g><path d="M25 60.824h2.398M25 50.035h2.398M25 39.246h2.398M25 28.457h2.398M25 17.672h4" fill="none" stroke-width=".5" stroke="#666" stroke-miterlimit="3.25"/><g fill="#666"><use xlink:href="#C" y="20.171"/><use xlink:href="#x" x="5.615" y="20.171"/><use xlink:href="#x" x="11.23" y="20.171"/><use xlink:href="#x" x="16.846" y="20.171"/></g><path d="M25 6.883h2.398M56.836 4v5.656M139.758 4v5.656M222.676 4v5.656M305.598 4v5.656M388.52 4v5.656m43.68 234.571h-2.4m2.4-10.789h-4m4-10.79h-2.4m2.4-10.788h-2.4m2.4-10.79h-2.4m2.4-10.785h-2.4m2.4-10.789h-4m4-10.789h-2.4m2.4-10.789h-2.4m2.4-10.789h-2.4m2.4-10.785h-2.4m2.4-10.789h-4m4-10.789h-2.4m2.4-10.789h-2.4m2.4-10.789h-2.4m2.4-10.79h-2.4m2.4-10.785h-4m4-10.789h-2.4m2.4-10.789h-2.4m2.4-10.789h-2.4m2.4-10.789h-2.4m2.4-10.785h-4m4-10.789h-2.4" fill="none" stroke-width=".5" stroke="#666" stroke-miterlimit="3.25"/></svg>