<svg xmlns="http://www.w3.org/2000/svg" xmlns:xlink="http://www.w3.org/1999/xlink" width="500pt" height="266pt" viewBox="0 0 500 266"><defs><symbol overflow="visible" id="a"><path d="M2.469-5.809v.59h3.293v-.59zm.27 1.23v2.04H5.53v-2.04zm2.12 1.477H3.422v-.918h1.437zM9.141-7.27h-.672a7.745 7.745 0 00-.32-.89l-.637.11c.117.241.226.5.328.78H6.75c-.02-.3-.02-.609-.02-.94h-.69c0 .32 0 .64.019.94h-4.75v1.97C1.28-4.14 1-3.239.46-2.59l.54.488c.64-.808.98-1.878 1.012-3.199v-1.308H6.09c.05.828.148 1.52.308 2.078.122.41.262.781.422 1.101-.32.36-.68.66-1.07.89l.371.56c.36-.22.707-.5 1.04-.848.038.058.1.129.16.2.37.398.75.608 1.148.608.422 0 .781-.53 1.082-1.582l-.582-.34c-.2.833-.39 1.25-.57 1.25-.22 0-.458-.18-.72-.527l-.09-.14c.462-.641.84-1.442 1.15-2.422l-.56-.29a8.622 8.622 0 01-.91 2.032 5.96 5.96 0 01-.25-.84c-.12-.45-.199-1.031-.238-1.73h2.36zM1.62-1.91A6.86 6.86 0 01.511.28l.61.39c.5-.69.879-1.5 1.16-2.44zM6.31.84c.37 0 .64-.07.82-.211.2-.18.332-.649.39-1.43l-.68-.23c-.038.582-.12.922-.218 1.043-.09.097-.242.148-.441.148H4.05c-.25 0-.37-.14-.37-.422V-2.02h-.73v1.91c0 .63.288.95.878.95zM8.2-1.7l-.578.36A13.69 13.69 0 018.988.45l.57-.41C9.25-.46 8.802-1.04 8.2-1.7zM5-2.19l-.54.332c.462.5.821.96 1.08 1.379l.538-.38C5.828-1.237 5.468-1.69 5-2.19zm0 0"/></symbol><symbol overflow="visible" id="b"><path d="M3.89-1.96C3.29-1.16 2.14-.45.46.18l.411.68c1.79-.801 3-1.739 3.629-2.82h.148V.98h.743v-2.94h.14C6.25-.84 7.481.07 9.238.75L9.57.059c-1.55-.489-2.69-1.16-3.422-2.02H9.34v-.66H5.39v-.848h-.742v.848H.691v.66zm1.231-6.2v1.058H3.7v.672h1.38c-.06.54-.188 1.008-.388 1.39-.3.509-.812.919-1.55 1.231l.39.61c.797-.332 1.38-.79 1.739-1.371.28-.48.468-1.102.55-1.86h1.301L7.11-4.14c0 .492.262.742.801.742h.59c.36 0 .602-.114.719-.32.12-.223.222-.743.3-1.583l-.64-.21c-.05.722-.11 1.14-.168 1.261a.381.381 0 01-.32.191h-.34c-.16 0-.23-.082-.23-.23v-2.813H5.858V-8.16zm-3.473.18l-.359.539a7.48 7.48 0 011.672.921l.36-.55a7.87 7.87 0 00-1.673-.91zm-.636 1.34l-.364.538a7.235 7.235 0 011.524.82l.36-.546a7.631 7.631 0 00-1.52-.813zM2.89-5.41c-.64.719-1.36 1.36-2.171 1.898l.5.551c.761-.539 1.5-1.23 2.203-2.05zm0 0"/></symbol><symbol overflow="visible" id="c"><path d="M2.23-3.52l-.48.45c.55.422 1.012.82 1.371 1.218C2.481-.91 1.621-.172.54.36L.9 1C3.13-.102 4.49-2.02 4.981-4.762v-.617H2.72c.172-.48.312-1.012.422-1.57H5.72V-.16c0 .629.293.95.89.95H8.2c.41 0 .711-.099.903-.302.207-.238.359-.886.437-1.957l-.66-.21c-.04.87-.129 1.39-.27 1.57-.109.14-.289.218-.53.218H6.83c-.278 0-.419-.14-.419-.418v-2.73c.95-.34 1.942-.84 2.98-1.52l-.421-.59A10.19 10.19 0 016.41-3.73v-3.22h3.012v-.698H.578v.699h1.844C2.102-5.25 1.43-3.97.39-3.11l.34.62c.71-.542 1.28-1.28 1.718-2.222h1.84c-.18.84-.46 1.602-.82 2.281-.348-.36-.758-.73-1.239-1.09zm0 0"/></symbol><symbol overflow="visible" id="d"><path d="M.57-6.422v.723h1.328V.559H9v-.707H2.64V-5.7h6.782v-.723H5.648a8.407 8.407 0 00-1-1.687l-.707.27c.368.44.68.917.93 1.417zm0 0"/></symbol><symbol overflow="visible" id="e"><path d="M1.32-8.012l-.5.492c.782.54 1.4 1.04 1.84 1.52l.52-.52c-.5-.5-1.121-.992-1.86-1.492zm-.289 2.34l-.5.48C1.25-4.647 1.81-4.14 2.22-3.66l.52-.531c-.458-.489-1.028-.98-1.708-1.48zm1.34 2.781A29.022 29.022 0 01.7.59l.71.31a30.79 30.79 0 001.602-3.53zM8.7-3.25H3.82V.988h.7V.41H8v.578h.7zM4.52-.27v-2.32H8v2.32zM7.66-7l-.629.3c.34.462.66.962.98 1.5-1.152.169-2.37.29-3.66.36.688-.781 1.368-1.808 2.047-3.11l-.718-.24C4.719-6.23 3.922-5.1 3.27-4.8l.12.653c1.82-.102 3.481-.25 4.97-.454.14.25.28.524.421.801l.668-.328A23.587 23.587 0 007.66-7zm0 0"/></symbol><symbol overflow="visible" id="f"><path d="M2.172-3.95H4.34v.528H2.172zm2.168-.46H2.172v-.54H4.34zM2.172-2.96H4.34v.288c0 .262-.121.39-.34.39l-.66-.027.148.547h.703c.54 0 .82-.258.82-.758v-2.949h-3.5v3.739h.66zm-.703 1.64C1.269-.72.969-.18.55.3l.578.372c.422-.524.75-1.14.992-1.852zM6.53.86c.328 0 .57-.07.73-.188.169-.16.29-.602.348-1.32L6.95-.86c-.039.52-.097.84-.187.949-.082.082-.203.12-.364.12H3.852C3.66.21 3.57.122 3.57-.05v-1.31h-.699V.09c0 .512.258.77.777.77zm1.207-2.622c.551 0 .832-.277.832-.816V-5.54H7.88v2.789c0 .238-.129.371-.379.371-.309 0-.64-.02-.98-.05l.16.667zM5-1.762l-.531.332c.43.442.77.852 1.031 1.23l.531-.378C5.79-.922 5.45-1.308 5-1.762zm3.23.274l-.55.34c.52.609.93 1.16 1.23 1.66l.57-.39c-.289-.462-.71-1-1.25-1.61zM6.04-5.371v2.512h.679v-2.512zm-3.188-1.04v.38h4.25v-.43c.66.27 1.367.52 2.148.742l.32-.562c-1.64-.457-3.082-1.078-4.34-1.86h-.46C3.629-7.379 2.19-6.75.46-6.238l.31.566c.75-.226 1.44-.476 2.082-.738zm3.91-.198H3.309A11.7 11.7 0 005-7.531c.52.332 1.11.64 1.762.922zm0 0"/></symbol><symbol overflow="visible" id="g"><path d="M3.805-7.11h.941v5.036c0 .68-.203 1.21-.613 1.597-.406.383-.953.575-1.633.575-.707 0-1.258-.18-1.648-.543-.395-.36-.594-.867-.594-1.516h.937c0 .406.114.723.336.95.223.23.547.343.969.343.387 0 .7-.121.941-.367.239-.246.36-.586.364-1.028zm0 0"/></symbol><symbol overflow="visible" id="h"><path d="M3.945 0c-.05-.105-.093-.29-.125-.555-.422.434-.922.653-1.507.653-.52 0-.946-.149-1.282-.442a1.438 1.438 0 01-.5-1.12c0-.552.211-.977.63-1.282.417-.305 1.007-.457 1.765-.457h.879v-.414c0-.317-.094-.567-.285-.754-.188-.188-.465-.281-.833-.281-.324 0-.593.082-.812.242-.219.164-.328.36-.328.59H.64c0-.262.093-.516.28-.762.188-.246.442-.441.763-.582.32-.145.671-.219 1.054-.219.61 0 1.086.153 1.434.457.344.305.523.727.535 1.258v2.434c0 .484.063.87.184 1.156V0zm-1.5-.688c.285 0 .555-.074.805-.218a1.35 1.35 0 00.555-.574v-1.083h-.711c-1.106 0-1.656.325-1.656.97 0 .284.093.507.28.663.188.16.43.243.727.243zm0 0"/></symbol><symbol overflow="visible" id="i"><path d="M1.54-5.281l.026.664a1.93 1.93 0 011.582-.766c1.118 0 1.68.633 1.692 1.89V0h-.902v-3.496c-.004-.379-.094-.664-.262-.844-.172-.183-.438-.273-.801-.273-.293 0-.55.078-.77.234a1.59 1.59 0 00-.52.613V0h-.9v-5.281zm0 0"/></symbol><symbol overflow="visible" id="j"><path d="M3.559 0h-.907v-6.02l-1.824.668v-.82l2.59-.973h.14zm0 0"/></symbol><symbol overflow="visible" id="k"><path d="M1.906-3.992h.676c.426-.008.762-.121 1.008-.34.242-.219.363-.512.363-.883 0-.832-.414-1.25-1.242-1.25-.39 0-.703.113-.938.336-.23.223-.347.516-.347.887H.523c0-.563.204-1.031.618-1.406.41-.372.933-.559 1.57-.559.672 0 1.195.176 1.578.531.379.356.57.848.57 1.48 0 .31-.101.61-.3.9a1.81 1.81 0 01-.817.648c.39.125.692.328.903.617.214.285.32.636.32 1.047 0 .64-.207 1.144-.625 1.52-.418.374-.957.562-1.625.562s-1.211-.18-1.63-.543c-.417-.36-.624-.836-.624-1.43h.906c0 .375.121.672.367.898.243.227.57.336.98.336.438 0 .77-.113 1-.34.231-.23.349-.554.349-.98 0-.414-.125-.734-.383-.953-.254-.223-.618-.336-1.098-.344h-.676zm0 0"/></symbol><symbol overflow="visible" id="l"><path d="M5.25 0H.59v-.648l2.46-2.735c.364-.414.618-.75.755-1.008.14-.257.21-.527.21-.804 0-.371-.113-.676-.34-.914-.222-.239-.523-.356-.898-.356-.449 0-.797.13-1.047.383-.25.254-.37.613-.37 1.066H.452c0-.652.211-1.183.633-1.586.422-.402.984-.605 1.691-.605.66 0 1.184.172 1.567.52.386.347.578.808.578 1.382 0 .703-.445 1.535-1.336 2.5L1.68-.738h3.57zm0 0"/></symbol><symbol overflow="visible" id="m"><path d="M5.18-6.602L2.234 0H1.29l2.934-6.367H.375v-.742H5.18zm0 0"/></symbol><symbol overflow="visible" id="n"><path d="M4.746-3.14H1.762V0H.824v-7.11H5.23v.774H1.762v2.43h2.984zm0 0"/></symbol><symbol overflow="visible" id="o"><path d="M2.875.098c-.715 0-1.297-.235-1.746-.707-.45-.47-.676-1.098-.676-1.887v-.164c0-.524.102-.992.3-1.406.2-.41.481-.735.84-.965.36-.235.75-.352 1.173-.352.687 0 1.218.227 1.601.68.38.453.57 1.101.57 1.945v.375H1.36c.012.52.164.942.454 1.262.292.32.664.48 1.113.48.316 0 .59-.062.808-.195.223-.129.414-.3.582-.516l.551.43c-.441.68-1.105 1.02-1.992 1.02zm-.11-4.739a1.21 1.21 0 00-.921.399c-.246.265-.399.64-.457 1.117H4.03v-.07c-.023-.457-.148-.813-.367-1.067-.223-.25-.523-.379-.898-.379zm0 0"/></symbol><symbol overflow="visible" id="p"><path d="M5.156-2.582c0 .809-.187 1.453-.554 1.945-.372.489-.872.735-1.497.735-.667 0-1.183-.235-1.546-.707L1.516 0H.684v-7.5h.902v2.797c.367-.453.867-.68 1.508-.68.64 0 1.148.246 1.511.73.368.485.551 1.15.551 1.993zm-.902-.106c0-.613-.121-1.09-.356-1.421-.238-.336-.582-.504-1.027-.504-.598 0-1.023.277-1.285.828V-1.5c.277.555.71.832 1.297.832.43 0 .77-.168 1.008-.504.242-.336.363-.84.363-1.516zm0 0"/></symbol><symbol overflow="visible" id="q"><path d="M5.047-3.031c0 1.058-.18 1.844-.54 2.36-.362.51-.925.769-1.694.769-.758 0-1.32-.25-1.684-.754C.766-1.16.574-1.91.562-2.91v-1.207c0-1.043.18-1.82.54-2.328.363-.508.93-.762 1.703-.762.765 0 1.328.246 1.687.734.36.489.547 1.246.555 2.27zm-.902-1.235c0-.765-.106-1.324-.32-1.675-.216-.348-.555-.524-1.02-.524-.465 0-.801.176-1.012.524-.211.347-.32.882-.328 1.605v1.445c0 .77.113 1.336.336 1.704.222.367.558.546 1.012.546.445 0 .777-.171.992-.515.218-.344.332-.89.34-1.633zm0 0"/></symbol><symbol overflow="visible" id="r"><path d="M4.406-2.387h.985v.739h-.985V0h-.91v-1.648H.258v-.536L3.44-7.109h.965zm-3.12 0h2.21v-3.488l-.105.195zm0 0"/></symbol><symbol overflow="visible" id="s"><path d="M4.137-7.113v.765h-.168c-.703.012-1.262.223-1.68.625-.414.403-.656.973-.723 1.703.375-.43.887-.644 1.536-.644.617 0 1.113.219 1.48.656.371.438.555 1 .555 1.688 0 .734-.2 1.32-.598 1.757-.398.442-.934.66-1.605.66-.68 0-1.23-.261-1.653-.784C.855-1.212.645-1.883.645-2.704v-.348c0-1.308.277-2.308.835-3 .56-.691 1.391-1.047 2.497-1.062zM2.949-3.91c-.308 0-.594.09-.855.277a1.446 1.446 0 00-.54.7v.331c0 .586.13 1.059.395 1.414.262.36.59.54.985.54.406 0 .726-.153.96-.45.231-.3.348-.691.348-1.175 0-.489-.117-.887-.351-1.188a1.14 1.14 0 00-.942-.45zm0 0"/></symbol><symbol overflow="visible" id="t"><path d="M4.902-5.254c0 .356-.093.672-.28.95a1.95 1.95 0 01-.759.648c.371.16.664.39.88.695.218.309.327.656.327 1.043 0 .613-.21 1.105-.625 1.469-.414.363-.96.547-1.636.547-.684 0-1.23-.184-1.645-.551C.754-.82.547-1.31.547-1.918c0-.387.105-.73.316-1.043.207-.309.5-.543.871-.703a1.869 1.869 0 01-.75-.648 1.693 1.693 0 01-.273-.942c0-.598.195-1.074.578-1.426.383-.351.89-.527 1.52-.527.625 0 1.128.176 1.515.527.387.352.578.828.578 1.426zm-.738 3.316c0-.398-.125-.722-.379-.972-.25-.25-.582-.375-.988-.375s-.73.12-.977.37c-.246.247-.37.571-.37.978 0 .402.12.718.359.953.238.23.574.343 1 .343.421 0 .753-.117.996-.347.242-.235.36-.551.36-.95zM2.81-6.465c-.356 0-.645.11-.864.328-.218.223-.328.52-.328.899 0 .36.106.652.324.875.215.222.504.336.868.336.359 0 .648-.114.867-.336C3.89-4.586 4-4.88 4-5.238c0-.364-.113-.657-.336-.887a1.16 1.16 0 00-.855-.34zm0 0"/></symbol></defs><path d="M41.168 249V4m8.711 245V4m8.711 245V4m8.71 245V4m8.712 245V4m8.711 245V4m8.711 245V4m8.711 245V4m8.71 245V4m8.711 245V4m8.711 245V4m8.711 245V4m8.712 245V4m8.71 245V4m8.711 245V4m8.711 245V4m8.711 245V4m8.711 245V4m8.711 245V4m8.711 245V4m8.711 245V4m8.711 245V4m8.711 245V4m8.714 245V4m8.711 245V4m8.711 245V4m8.711 245V4m8.711 245V4m8.711 245V4m8.712 245V4m8.71 245V4m8.71 245V4m8.712 245V4m8.711 245V4m8.711 245V4m8.711 245V4m8.711 245V4m8.711 245V4m8.711 245V4m8.71 245V4m8.712 245V4m8.71 245V4m8.711 245V4m8.711 245V4m8.711 245V4m8.711 245V4M33 212.875h408.332M33 181.648h408.332M33 150.422h408.332M33 119.2h408.332M33 87.973h408.332M33 56.746h408.332M33 25.523h408.332" fill="none" stroke="#666" stroke-opacity=".5" stroke-dasharray="1,2" stroke-miterlimit="3.25"/><path d="M389.61 230.219l8.71-7.969 8.711-3.707 8.711-1.727 8.711-.8 8.711-.375" fill="none" stroke-width="1.6" stroke-linecap="square" stroke="#a60000" stroke-opacity=".3" stroke-miterlimit="3.25"/><path d="M389.61 242.258l8.71-.082 26.133-.14 8.711-.044" fill="none" stroke-width="1.6" stroke-linecap="square" stroke="#0d86a0" stroke-opacity=".3" stroke-miterlimit="3.25"/><path d="M389.61 211.172l8.71-.879 8.711-2.816 8.711-2.985 8.711-2.402 8.711-3.16" fill="none" stroke-width="1.6" stroke-linecap="square" stroke="#c05c20" stroke-opacity=".3" stroke-miterlimit="3.25"/><path d="M41.168 243.46l8.71.638h26.134l8.71-.063 8.712-.203 8.71-.652 8.711-.297 8.711-.219 8.711-.89 8.711.28 8.711-2 8.711-2.886 8.711-3.809 8.711-1.265 8.711-15.645 8.71 4.871 8.712-4.34 8.71-3.824 8.712-1.875 8.71-7.617 8.712-3.734 8.714-6.336 8.711-10.18 8.711 3.012 8.711 8.601 8.711-3.996 8.711 11.602 8.711-6.34 8.711 9.023 8.71 7.325 8.712-188.82 8.71 140.812 8.712 38.234 8.71 9.867 8.712-.609 8.71 2.527 8.712 2.141 8.71 21.156 8.711-7.73" fill="none" stroke-width="1.6" stroke-linecap="square" stroke="#a60000" stroke-miterlimit="3.25"/><path d="M41.168 244.082l8.71.016h17.423l8.71-.016h8.712l8.71.016h8.712l26.132-.047 8.711-.078h8.711l8.711-.125 8.711.015 8.711-.14 8.711-.028h8.71l8.712-.187 8.71-.078 8.712-.047 8.71.015 8.712-.187 8.714-.11 8.711-.015 8.711-.125h8.711l8.711-.203 8.711-.047 8.711-.125 8.711-.172 8.71.172 8.712-.766 8.71.39 8.712-.343 8.71.016 8.712.578 8.71.11 8.712-.594 8.71.343 8.711-.062" fill="none" stroke-width="1.6" stroke-linecap="square" stroke="#0d86a0" stroke-miterlimit="3.25"/><path d="M41.168 244.066l8.71-.03 8.712.046 8.71.016 8.712-.078 8.71.078 8.712-.063 8.71-.015 8.711.015 8.711.063 8.711-.047 8.711.047 8.711-.094 8.711.047 8.711-.125 8.711.14 8.711-.109 8.71-.527 8.712.34 8.71-.403 8.712-.39 8.71-.204 8.712-.968 8.714-.157 8.711-1.64 8.711.015 8.711-1.964 8.711-1.922 8.711-1.407 8.711-.5 8.711-1.308 8.71-.438 8.712-6.668 8.71 1.407 8.712-4.559 8.71.781 8.712-1.593 8.71-4.309 8.712-1.922 8.71.703 8.711-5.152" fill="none" stroke-width="1.6" stroke-linecap="square" stroke="#c05c20" stroke-miterlimit="3.25"/><path d="M391.871 230a1.871 1.871 0 10-3.742 0 1.871 1.871 0 103.742 0zm8-8a1.871 1.871 0 10-3.742 0 1.871 1.871 0 103.742 0zm9-3a1.871 1.871 0 10-3.742 0 1.871 1.871 0 103.742 0zm9-2a1.871 1.871 0 10-3.742 0 1.871 1.871 0 103.742 0zm8-1a1.871 1.871 0 10-3.742 0 1.871 1.871 0 103.742 0zm9 0a1.871 1.871 0 10-3.742 0 1.871 1.871 0 103.742 0zm0 0" fill-rule="evenodd" fill="#a60000" fill-opacity=".3"/><path d="M391.871 242a1.871 1.871 0 10-3.742 0 1.871 1.871 0 103.742 0zm8 0a1.871 1.871 0 10-3.742 0 1.871 1.871 0 103.742 0zm9 0a1.871 1.871 0 10-3.742 0 1.871 1.871 0 103.742 0zm9 0a1.871 1.871 0 10-3.742 0 1.871 1.871 0 103.742 0zm8 0a1.871 1.871 0 10-3.742 0 1.871 1.871 0 103.742 0zm9 0a1.871 1.871 0 10-3.742 0 1.871 1.871 0 103.742 0zm0 0" fill-rule="evenodd" fill="#0d86a0" fill-opacity=".3"/><path d="M391.871 211a1.871 1.871 0 10-3.742 0 1.871 1.871 0 103.742 0zm8-1a1.871 1.871 0 10-3.742 0 1.871 1.871 0 103.742 0zm9-3a1.871 1.871 0 10-3.742 0 1.871 1.871 0 103.742 0zm9-3a1.871 1.871 0 10-3.742 0 1.871 1.871 0 103.742 0zm8-2a1.871 1.871 0 10-3.742 0 1.871 1.871 0 103.742 0zm9-3a1.871 1.871 0 10-3.742 0 1.871 1.871 0 103.742 0zm0 0" fill-rule="evenodd" fill="#c05c20" fill-opacity=".3"/><path d="M42.871 243a1.871 1.871 0 10-3.742 0 1.871 1.871 0 103.742 0zm9 1a1.871 1.871 0 10-3.742 0 1.871 1.871 0 103.742 0zm9 0a1.871 1.871 0 10-3.742 0 1.871 1.871 0 103.742 0zm8 0a1.871 1.871 0 10-3.742 0 1.871 1.871 0 103.742 0zm9 0a1.871 1.871 0 10-3.742 0 1.871 1.871 0 103.742 0zm9 0a1.871 1.871 0 10-3.742 0 1.871 1.871 0 103.742 0zm8 0a1.871 1.871 0 10-3.742 0 1.871 1.871 0 103.742 0zm9-1a1.871 1.871 0 10-3.742 0 1.871 1.871 0 103.742 0zm9 0a1.871 1.871 0 10-3.742 0 1.871 1.871 0 103.742 0zm9 0a1.871 1.871 0 10-3.742 0 1.871 1.871 0 103.742 0zm8-1a1.871 1.871 0 10-3.742 0 1.871 1.871 0 103.742 0zm9 0a1.871 1.871 0 10-3.742 0 1.871 1.871 0 103.742 0zm9-2a1.871 1.871 0 10-3.742 0 1.871 1.871 0 103.742 0zm8-3a1.871 1.871 0 10-3.742 0 1.871 1.871 0 103.742 0zm9-4a1.871 1.871 0 10-3.742 0 1.871 1.871 0 103.742 0zm9-1a1.871 1.871 0 10-3.742 0 1.871 1.871 0 103.742 0zm9-16a1.871 1.871 0 10-3.742 0 1.871 1.871 0 103.742 0zm8 5a1.871 1.871 0 10-3.742 0 1.871 1.871 0 103.742 0zm9-4a1.871 1.871 0 10-3.742 0 1.871 1.871 0 103.742 0zm9-4a1.871 1.871 0 10-3.742 0 1.871 1.871 0 103.742 0zm8-2a1.871 1.871 0 10-3.742 0 1.871 1.871 0 103.742 0zm9-7a1.871 1.871 0 10-3.742 0 1.871 1.871 0 103.742 0zm9-4a1.871 1.871 0 10-3.742 0 1.871 1.871 0 103.742 0zm9-6a1.871 1.871 0 10-3.742 0 1.871 1.871 0 103.742 0zm8-11a1.871 1.871 0 10-3.742 0 1.871 1.871 0 103.742 0zm9 3a1.871 1.871 0 10-3.742 0 1.871 1.871 0 103.742 0zm9 9a1.871 1.871 0 10-3.742 0 1.871 1.871 0 103.742 0zm8-4a1.871 1.871 0 10-3.742 0 1.871 1.871 0 103.742 0zm9 12a1.871 1.871 0 10-3.742 0 1.871 1.871 0 103.742 0zm9-7a1.871 1.871 0 10-3.742 0 1.871 1.871 0 103.742 0zm8 9a1.871 1.871 0 10-3.742 0 1.871 1.871 0 103.742 0zm9 8a1.871 1.871 0 10-3.742 0 1.871 1.871 0 103.742 0zm9-189a1.871 1.871 0 10-3.742 0 1.871 1.871 0 103.742 0zm9 141a1.871 1.871 0 10-3.742 0 1.871 1.871 0 103.742 0zm8 38a1.871 1.871 0 10-3.742 0 1.871 1.871 0 103.742 0zm9 10a1.871 1.871 0 10-3.742 0 1.871 1.871 0 103.742 0zm9-1a1.871 1.871 0 10-3.742 0 1.871 1.871 0 103.742 0zm8 3a1.871 1.871 0 10-3.742 0 1.871 1.871 0 103.742 0zm9 2a1.871 1.871 0 10-3.742 0 1.871 1.871 0 103.742 0zm9 21a1.871 1.871 0 10-3.742 0 1.871 1.871 0 103.742 0zm9-8a1.871 1.871 0 10-3.742 0 1.871 1.871 0 103.742 0zm0 0" fill-rule="evenodd" fill="#a60000"/><path d="M42.871 244a1.871 1.871 0 10-3.742 0 1.871 1.871 0 103.742 0zm9 0a1.871 1.871 0 10-3.742 0 1.871 1.871 0 103.742 0zm9 0a1.871 1.871 0 10-3.742 0 1.871 1.871 0 103.742 0zm8 0a1.871 1.871 0 10-3.742 0 1.871 1.871 0 103.742 0zm9 0a1.871 1.871 0 10-3.742 0 1.871 1.871 0 103.742 0zm9 0a1.871 1.871 0 10-3.742 0 1.871 1.871 0 103.742 0zm8 0a1.871 1.871 0 10-3.742 0 1.871 1.871 0 103.742 0zm9 0a1.871 1.871 0 10-3.742 0 1.871 1.871 0 103.742 0zm9 0a1.871 1.871 0 10-3.742 0 1.871 1.871 0 103.742 0zm9 0a1.871 1.871 0 10-3.742 0 1.871 1.871 0 103.742 0zm8 0a1.871 1.871 0 10-3.742 0 1.871 1.871 0 103.742 0zm9 0a1.871 1.871 0 10-3.742 0 1.871 1.871 0 103.742 0zm9 0a1.871 1.871 0 10-3.742 0 1.871 1.871 0 103.742 0zm8 0a1.871 1.871 0 10-3.742 0 1.871 1.871 0 103.742 0zm9 0a1.871 1.871 0 10-3.742 0 1.871 1.871 0 103.742 0zm9 0a1.871 1.871 0 10-3.742 0 1.871 1.871 0 103.742 0zm9 0a1.871 1.871 0 10-3.742 0 1.871 1.871 0 103.742 0zm8 0a1.871 1.871 0 10-3.742 0 1.871 1.871 0 103.742 0zm9 0a1.871 1.871 0 10-3.742 0 1.871 1.871 0 103.742 0zm9-1a1.871 1.871 0 10-3.742 0 1.871 1.871 0 103.742 0zm8 0a1.871 1.871 0 10-3.742 0 1.871 1.871 0 103.742 0zm9 0a1.871 1.871 0 10-3.742 0 1.871 1.871 0 103.742 0zm9 0a1.871 1.871 0 10-3.742 0 1.871 1.871 0 103.742 0zm9 0a1.871 1.871 0 10-3.742 0 1.871 1.871 0 103.742 0zm8 0a1.871 1.871 0 10-3.742 0 1.871 1.871 0 103.742 0zm9 0a1.871 1.871 0 10-3.742 0 1.871 1.871 0 103.742 0zm9 0a1.871 1.871 0 10-3.742 0 1.871 1.871 0 103.742 0zm8 0a1.871 1.871 0 10-3.742 0 1.871 1.871 0 103.742 0zm9 0a1.871 1.871 0 10-3.742 0 1.871 1.871 0 103.742 0zm9 0a1.871 1.871 0 10-3.742 0 1.871 1.871 0 103.742 0zm8-1a1.871 1.871 0 10-3.742 0 1.871 1.871 0 103.742 0zm9 1a1.871 1.871 0 10-3.742 0 1.871 1.871 0 103.742 0zm9-1a1.871 1.871 0 10-3.742 0 1.871 1.871 0 103.742 0zm9 0a1.871 1.871 0 10-3.742 0 1.871 1.871 0 103.742 0zm8 0a1.871 1.871 0 10-3.742 0 1.871 1.871 0 103.742 0zm9 0a1.871 1.871 0 10-3.742 0 1.871 1.871 0 103.742 0zm9 0a1.871 1.871 0 10-3.742 0 1.871 1.871 0 103.742 0zm8 1a1.871 1.871 0 10-3.742 0 1.871 1.871 0 103.742 0zm9-1a1.871 1.871 0 10-3.742 0 1.871 1.871 0 103.742 0zm9 0a1.871 1.871 0 10-3.742 0 1.871 1.871 0 103.742 0zm9 0a1.871 1.871 0 10-3.742 0 1.871 1.871 0 103.742 0zm0 0" fill-rule="evenodd" fill="#0d86a0"/><path d="M42.871 244a1.871 1.871 0 10-3.742 0 1.871 1.871 0 103.742 0zm9 0a1.871 1.871 0 10-3.742 0 1.871 1.871 0 103.742 0zm9 0a1.871 1.871 0 10-3.742 0 1.871 1.871 0 103.742 0zm8 0a1.871 1.871 0 10-3.742 0 1.871 1.871 0 103.742 0zm9 0a1.871 1.871 0 10-3.742 0 1.871 1.871 0 103.742 0zm9 0a1.871 1.871 0 10-3.742 0 1.871 1.871 0 103.742 0zm8 0a1.871 1.871 0 10-3.742 0 1.871 1.871 0 103.742 0zm9 0a1.871 1.871 0 10-3.742 0 1.871 1.871 0 103.742 0zm9 0a1.871 1.871 0 10-3.742 0 1.871 1.871 0 103.742 0zm9 0a1.871 1.871 0 10-3.742 0 1.871 1.871 0 103.742 0zm8 0a1.871 1.871 0 10-3.742 0 1.871 1.871 0 103.742 0zm9 0a1.871 1.871 0 10-3.742 0 1.871 1.871 0 103.742 0zm9 0a1.871 1.871 0 10-3.742 0 1.871 1.871 0 103.742 0zm8 0a1.871 1.871 0 10-3.742 0 1.871 1.871 0 103.742 0zm9 0a1.871 1.871 0 10-3.742 0 1.871 1.871 0 103.742 0zm9 0a1.871 1.871 0 10-3.742 0 1.871 1.871 0 103.742 0zm9 0a1.871 1.871 0 10-3.742 0 1.871 1.871 0 103.742 0zm8-1a1.871 1.871 0 10-3.742 0 1.871 1.871 0 103.742 0zm9 1a1.871 1.871 0 10-3.742 0 1.871 1.871 0 103.742 0zm9-1a1.871 1.871 0 10-3.742 0 1.871 1.871 0 103.742 0zm8 0a1.871 1.871 0 10-3.742 0 1.871 1.871 0 103.742 0zm9 0a1.871 1.871 0 10-3.742 0 1.871 1.871 0 103.742 0zm9-1a1.871 1.871 0 10-3.742 0 1.871 1.871 0 103.742 0zm9 0a1.871 1.871 0 10-3.742 0 1.871 1.871 0 103.742 0zm8-2a1.871 1.871 0 10-3.742 0 1.871 1.871 0 103.742 0zm9 0a1.871 1.871 0 10-3.742 0 1.871 1.871 0 103.742 0zm9-2a1.871 1.871 0 10-3.742 0 1.871 1.871 0 103.742 0zm8-2a1.871 1.871 0 10-3.742 0 1.871 1.871 0 103.742 0zm9-1a1.871 1.871 0 10-3.742 0 1.871 1.871 0 103.742 0zm9-1a1.871 1.871 0 10-3.742 0 1.871 1.871 0 103.742 0zm8-1a1.871 1.871 0 10-3.742 0 1.871 1.871 0 103.742 0zm9-1a1.871 1.871 0 10-3.742 0 1.871 1.871 0 103.742 0zm9-6a1.871 1.871 0 10-3.742 0 1.871 1.871 0 103.742 0zm9 1a1.871 1.871 0 10-3.742 0 1.871 1.871 0 103.742 0zm8-4a1.871 1.871 0 10-3.742 0 1.871 1.871 0 103.742 0zm9 0a1.871 1.871 0 10-3.742 0 1.871 1.871 0 103.742 0zm9-1a1.871 1.871 0 10-3.742 0 1.871 1.871 0 103.742 0zm8-4a1.871 1.871 0 10-3.742 0 1.871 1.871 0 103.742 0zm9-2a1.871 1.871 0 10-3.742 0 1.871 1.871 0 103.742 0zm9 0a1.871 1.871 0 10-3.742 0 1.871 1.871 0 103.742 0zm9-5a1.871 1.871 0 10-3.742 0 1.871 1.871 0 103.742 0zm0 0" fill-rule="evenodd" fill="#c05c20"/><path d="M441.332 215.64h4.773l.375-.007.477-.016.594-.031.726-.059.875-.093 1.043-.125 1.22-.176 1.382-.215 1.496-.242 1.559-.258 1.574-.258 1.539-.246 1.457-.219 1.32-.18 1.168-.136 1.043-.094.945-.066.875-.035.844-.02.836-.008h5.297" fill="none" stroke-width="4" stroke-linejoin="round" stroke="#fff" stroke-opacity=".667" stroke-miterlimit="3.25"/><path d="M441.332 215.64h4.773l.375-.007.477-.016.594-.031.726-.059.875-.093 1.043-.125 1.22-.176 1.382-.215 1.496-.242 1.559-.258 1.574-.258 1.539-.246 1.457-.219 1.32-.18 1.168-.136 1.043-.094.945-.066.875-.035.844-.02.836-.008h5.297" fill="none" stroke-width="1.25" stroke-linecap="square" stroke="#aaa" stroke-miterlimit="3.25"/><path d="M497.75 205.656v15h-25v-15zm0 0" fill="#fff" fill-opacity=".667"/><use xlink:href="#a" x="475.248" y="215.657"/><use xlink:href="#b" x="485.248" y="215.657"/><path d="M441.332 241.992h4.66l.309-.004.387-.02.48-.038.582-.078.7-.122.827-.175.965-.239 1.117-.316 1.254-.383 1.352-.433 1.418-.465 1.441-.473 1.43-.46 1.375-.427 1.289-.375 1.16-.3 1.04-.23.937-.165.863-.113.8-.07.774-.036.762-.015.777-.004h4.719" fill="none" stroke-width="4" stroke-linejoin="round" stroke="#fff" stroke-opacity=".667" stroke-miterlimit="3.25"/><path d="M441.332 241.992h4.66l.309-.004.387-.02.48-.038.582-.078.7-.122.827-.175.965-.239 1.117-.316 1.254-.383 1.352-.433 1.418-.465 1.441-.473 1.43-.46 1.375-.427 1.289-.375 1.16-.3 1.04-.23.937-.165.863-.113.8-.07.774-.036.762-.015.777-.004h4.719" fill="none" stroke-width="1.25" stroke-linecap="square" stroke="#aaa" stroke-miterlimit="3.25"/><path d="M497.75 229.55v15h-25v-15zm0 0" fill="#fff" fill-opacity=".667"/><use xlink:href="#c" x="475.248" y="239.552"/><use xlink:href="#d" x="485.248" y="239.552"/><path d="M441.332 198.93h4.832l.324-.02.395-.05.48-.098.567-.16.672-.239.78-.332.903-.445 1.027-.566 1.145-.688 1.238-.77 1.293-.828 1.328-.851 1.325-.844 1.296-.8 1.235-.735 1.148-.629 1.035-.508.934-.387.856-.28.789-.2.742-.125.71-.074.704-.031.71-.008h4.95" fill="none" stroke-width="4" stroke-linejoin="round" stroke="#fff" stroke-opacity=".667" stroke-miterlimit="3.25"/><path d="M441.332 198.93h4.832l.324-.02.395-.05.48-.098.567-.16.672-.239.78-.332.903-.445 1.027-.566 1.145-.688 1.238-.77 1.293-.828 1.328-.851 1.325-.844 1.296-.8 1.235-.735 1.148-.629 1.035-.508.934-.387.856-.28.789-.2.742-.125.71-.074.704-.031.71-.008h4.95" fill="none" stroke-width="1.25" stroke-linecap="square" stroke="#aaa" stroke-miterlimit="3.25"/><path d="M497.75 181.762v15h-25v-15zm0 0" fill="#fff" fill-opacity=".667"/><use xlink:href="#e" x="475.248" y="191.761"/><use xlink:href="#f" x="485.248" y="191.761"/><path d="M389.61 230.219l8.71 55.96 8.711 2.876 8.711-.38 8.711-.515 8.711-.312V143.43l-8.71.437-8.712 1.09-8.71 3.074-8.712 10.293zm0 0" fill="gray" fill-opacity=".05"/><path d="M389.61 242.258l8.71.293 8.711.133 8.711.09 8.711.066 8.711.055v-1.805l-8.71.144-8.712.157-8.71.18-8.712.226zm0-31.086l8.71 1.672 8.711.351 8.711.457 8.711 1.114 8.711.379v-32.426l-8.71 6.699-8.712 5.914-8.71 6.426-8.712 5.984zm0 0" fill="gray" fill-opacity=".05"/><path d="M441.332 249H33m0 0V4m0 0h408.332m0 0v245" fill="none" stroke-width=".5" stroke-linecap="square" stroke="#666" stroke-miterlimit="3.25"/><path d="M58.59 249v-5.672" fill="none" stroke-width=".5" stroke="#666" stroke-miterlimit="3.25"/><g fill="#666"><use xlink:href="#g" x="44.089" y="260.999"/><use xlink:href="#h" x="49.606" y="260.999"/><use xlink:href="#i" x="55.046" y="260.999"/></g><g fill="#666"><use xlink:href="#j" x="62.089" y="260.999"/><use xlink:href="#k" x="67.704" y="260.999"/></g><path d="M180.543 249v-5.672" fill="none" stroke-width=".5" stroke="#666" stroke-miterlimit="3.25"/><g fill="#666"><use xlink:href="#g" x="166.044" y="260.999"/><use xlink:href="#h" x="171.562" y="260.999"/><use xlink:href="#i" x="177.001" y="260.999"/></g><g fill="#666"><use xlink:href="#l" x="184.044" y="260.999"/><use xlink:href="#m" x="189.659" y="260.999"/></g><path d="M302.5 249v-5.672" fill="none" stroke-width=".5" stroke="#666" stroke-miterlimit="3.25"/><g fill="#666"><use xlink:href="#n" x="287.999" y="260.999"/><use xlink:href="#o" x="293.527" y="260.999"/><use xlink:href="#p" x="298.824" y="260.999"/></g><g fill="#666"><use xlink:href="#j" x="305.999" y="260.999"/><use xlink:href="#q" x="311.614" y="260.999"/></g><path d="M424.453 249v-5.672" fill="none" stroke-width=".5" stroke="#666" stroke-miterlimit="3.25"/><g fill="#666"><use xlink:href="#n" x="409.954" y="260.999"/><use xlink:href="#o" x="415.482" y="260.999"/><use xlink:href="#p" x="420.78" y="260.999"/></g><g fill="#666"><use xlink:href="#l" x="427.954" y="260.999"/><use xlink:href="#r" x="433.57" y="260.999"/></g><path d="M33 244.098h4" fill="none" stroke-width=".5" stroke="#666" stroke-miterlimit="3.25"/><use xlink:href="#q" x="24" y="246.599" fill="#666"/><path d="M33 236.293h2.398M33 228.488h2.398M33 220.68h2.398M33 212.875h4" fill="none" stroke-width=".5" stroke="#666" stroke-miterlimit="3.25"/><g fill="#666"><use xlink:href="#l" x="8" y="215.374"/><use xlink:href="#q" x="13.615" y="215.374"/><use xlink:href="#q" x="19.23" y="215.374"/><use xlink:href="#q" x="24.846" y="215.374"/></g><path d="M33 205.066h2.398M33 197.262h2.398M33 189.457h2.398M33 181.648h4" fill="none" stroke-width=".5" stroke="#666" stroke-miterlimit="3.25"/><g fill="#666"><use xlink:href="#r" x="8" y="184.149"/><use xlink:href="#q" x="13.615" y="184.149"/><use xlink:href="#q" x="19.23" y="184.149"/><use xlink:href="#q" x="24.846" y="184.149"/></g><path d="M33 173.844h2.398M33 166.035h2.398M33 158.23h2.398M33 150.422h4" fill="none" stroke-width=".5" stroke="#666" stroke-miterlimit="3.25"/><g fill="#666"><use xlink:href="#s" x="8" y="152.924"/><use xlink:href="#q" x="13.615" y="152.924"/><use xlink:href="#q" x="19.23" y="152.924"/><use xlink:href="#q" x="24.846" y="152.924"/></g><path d="M33 142.617h2.398M33 134.813h2.398M33 127.004h2.398M33 119.2h4" fill="none" stroke-width=".5" stroke="#666" stroke-miterlimit="3.25"/><g fill="#666"><use xlink:href="#t" x="8" y="121.698"/><use xlink:href="#q" x="13.615" y="121.698"/><use xlink:href="#q" x="19.23" y="121.698"/><use xlink:href="#q" x="24.846" y="121.698"/></g><path d="M33 111.39h2.398M33 103.586h2.398M33 95.781h2.398M33 87.973h4" fill="none" stroke-width=".5" stroke="#666" stroke-miterlimit="3.25"/><g fill="#666"><use xlink:href="#j" y="90.473"/><use xlink:href="#q" x="5.615" y="90.473"/></g><g fill="#666"><use xlink:href="#q" x="12.686" y="90.473"/><use xlink:href="#q" x="18.301" y="90.473"/><use xlink:href="#q" x="23.916" y="90.473"/></g><path d="M33 80.168h2.398M33 72.36h2.398M33 64.555h2.398M33 56.746h4" fill="none" stroke-width=".5" stroke="#666" stroke-miterlimit="3.25"/><g fill="#666"><use xlink:href="#j" y="59.248"/><use xlink:href="#l" x="5.615" y="59.248"/></g><g fill="#666"><use xlink:href="#q" x="12.686" y="59.248"/><use xlink:href="#q" x="18.301" y="59.248"/><use xlink:href="#q" x="23.916" y="59.248"/></g><path d="M33 48.941h2.398M33 41.137h2.398M33 33.328h2.398M33 25.523h4" fill="none" stroke-width=".5" stroke="#666" stroke-miterlimit="3.25"/><g fill="#666"><use xlink:href="#j" y="28.023"/><use xlink:href="#r" x="5.615" y="28.023"/></g><g fill="#666"><use xlink:href="#q" x="12.686" y="28.023"/><use xlink:href="#q" x="18.301" y="28.023"/><use xlink:href="#q" x="23.916" y="28.023"/></g><path d="M33 17.715h2.398M33 9.91h2.398M58.59 4v5.672M180.543 4v5.672M302.5 4v5.672M424.453 4v5.672m16.879 234.426h-4m4-7.805h-2.398m2.398-7.805h-2.398m2.398-7.808h-2.398m2.398-7.805h-4m4-7.809h-2.398m2.398-7.804h-2.398m2.398-7.805h-2.398m2.398-7.809h-4m4-7.804h-2.398m2.398-7.809h-2.398m2.398-7.805h-2.398m2.398-7.808h-4m4-7.805h-2.398m2.398-7.804h-2.398m2.398-7.809h-2.398m2.398-7.804h-4m4-7.81h-2.398m2.398-7.804h-2.398m2.398-7.805h-2.398m2.398-7.808h-4m4-7.805h-2.398m2.398-7.808h-2.398m2.398-7.805h-2.398m2.398-7.809h-4m4-7.805h-2.398m2.398-7.804h-2.398m2.398-7.809h-2.398m2.398-7.805h-4m4-7.808h-2.398m2.398-7.805h-2.398" fill="none" stroke-width=".5" stroke="#666" stroke-miterlimit="3.25"/></svg>