<svg xmlns="http://www.w3.org/2000/svg" xmlns:xlink="http://www.w3.org/1999/xlink" width="500pt" height="253pt" viewBox="0 0 500 253"><defs><symbol overflow="visible" id="a"><path d="M4.738-8.14C3.578-6.88 2.121-5.82.36-4.97l.352.63C2.48-5.23 3.91-6.282 5-7.49c1.18 1.272 2.59 2.3 4.25 3.1l.36-.64a14.128 14.128 0 01-4.348-3.11zM2.211-4.98v.69h2.418v1.74H1.73v.69h2.9v1.848H.839V.7h8.333v-.71h-3.8v-1.85h2.89v-.692h-2.89V-4.29h2.417v-.691zm0 0"/></symbol><symbol overflow="visible" id="b"><path d="M2.52-6.121v.652h2.109v1.438h-1.79v.64h1.79v1.59H2.25v.66h5.512v-.66h-2.39v-1.59H7.16v-.64H5.371V-5.47H7.47v-.652zm6.59-1.59H.89V.98h.731V.55H8.38v.43h.73zM1.62-.129V-7.03h6.76v6.9zm4.93-3.05l-.57.19c.238.329.46.72.66 1.169l.558-.258A6.323 6.323 0 006.55-3.18zm0 0"/></symbol><symbol overflow="visible" id="c"><path d="M7.04-4.73h1.51v1.808H7.04zm1.51-.63H7.04v-1.78h1.51zM7.02-2.28h1.53v2.22c0 .278-.12.43-.35.43-.24 0-.49-.02-.759-.043l.168.64h.79C8.94.969 9.21.7 9.21.173V-7.8H6.379v5.082C6.359-1.422 6.07-.339 5.5.5l.52.46c.59-.839.921-1.92 1-3.241zm-5.9-5.67l-.492.46c.68.5 1.21.977 1.59 1.419l.5-.489A11.92 11.92 0 001.12-7.95zm-.2 2.34l-.491.46c.691.53 1.231 1.03 1.621 1.49l.5-.488c-.44-.48-.991-.973-1.628-1.461zm1.03 2.649A33.47 33.47 0 01.56.58l.652.28c.5-1.12.95-2.308 1.36-3.57zm3.762-.64H4.69V-5.5h1.297v-.648H4.691v-1.73H4v1.73H2.7v.648H4v1.898H2.95V.41h.66v-.59h2.1zM3.61-.801v-2.18h1.46V-.8zm0 0"/></symbol><symbol overflow="visible" id="d"><path d="M3.32-8.14v2.769H.672v.691H3.32v3.211c-.89.418-1.82.739-2.8.957L.69.2c.93-.258 1.809-.57 2.63-.949V.93h.738v-9.07zM8.22.84c.43 0 .73-.121.89-.36.16-.25.262-.96.32-2.128l-.679-.223c-.031 1.02-.09 1.61-.172 1.793C8.48.078 8.32.16 8.102.16h-1.25c-.25 0-.372-.148-.372-.43v-3.84c.93-.32 1.91-.788 2.95-1.421l-.418-.59c-.82.57-1.66 1.012-2.532 1.332v-3.352h-.73v7.98c0 .661.309 1 .941 1zm0 0"/></symbol><symbol overflow="visible" id="e"><path d="M5.262-8.32l-.793.14c.203.32.39.68.55 1.07H1.302v2.93C1.28-2.16.98-.59.42.55l.59.528C1.662-.238 2-1.988 2.04-4.18v-2.242h7.41v-.687H5.81c-.18-.45-.36-.852-.547-1.211zm0 0"/></symbol><symbol overflow="visible" id="f"><path d="M.781-6.96v.698h2.14c-.53 1.024-1.1 1.852-1.71 2.512l.168.629h3.46v3c0 .293-.16.441-.468.441-.3 0-.61-.02-.941-.05l.148.71h1.043c.629 0 .95-.308.95-.921v-3.18h3.148v-.668H5.57v-1.48h-.73v1.48h-2.7a14.36 14.36 0 001.57-2.473h5.42v-.699h-5.1c.16-.367.32-.75.48-1.148l-.71-.16c-.18.46-.36.89-.551 1.308zM2.88-2.329A10.003 10.003 0 01.48-.102L.941.5C1.898-.18 2.72-.98 3.38-1.89zm4.33-.011l-.48.461c.95.86 1.7 1.66 2.238 2.419L9.5.02a16.925 16.925 0 00-2.29-2.36zm0 0"/></symbol><symbol overflow="visible" id="g"><path d="M1.18-7.95l-.508.5c.738.528 1.328 1.028 1.75 1.5l.52-.51c-.481-.5-1.063-.99-1.762-1.49zM1-5.5l-.512.488c.703.512 1.242 1 1.633 1.461l.508-.52C2.19-4.55 1.649-5.02 1-5.5zm1.11 2.68A30.368 30.368 0 01.59.68l.719.308A31.023 31.023 0 002.762-2.57zm1.062-4.75v.699h4.887V-.18c0 .34-.16.508-.48.508-.477 0-.99-.02-1.52-.047l.16.688h1.61c.62 0 .94-.328.94-.969v-6.871h.782v-.7zm.437 2.23v3.68H6.75v-3.68zm2.47 3.02h-1.79v-2.371h1.79zm0 0"/></symbol><symbol overflow="visible" id="h"><path d="M.55-7.23v.68h4.04c-.059.331-.13.671-.2 1.01H1.103V.989h.707v-5.847h6.4v4.68c0 .28-.14.429-.422.429L6.86.23l.192.7h.98c.59 0 .89-.32.89-.95v-5.52H5.13c.07-.32.14-.651.2-1.01h4.12v-.68H5.441c.04-.29.07-.59.098-.899l-.73-.101-.118 1zm3.33 2.69l-.64.24c.21.312.39.652.542 1.01H2.68v.63h1.968v1.05H2.36v.641h2.29V.84h.703V-.97h2.296v-.64H5.352v-1.05h2v-.63H6.21c.2-.32.39-.67.57-1.062l-.66-.238c-.18.461-.383.89-.601 1.3h-1.05a7.488 7.488 0 00-.59-1.25zm0 0"/></symbol><symbol overflow="visible" id="i"><path d="M1.23-8l-.511.488c.601.5 1.062.98 1.402 1.434l.5-.5A11.5 11.5 0 001.231-8zM.988-5.61l-.5.489c.602.5 1.082.98 1.422 1.441l.5-.5c-.379-.48-.86-.949-1.422-1.43zm.793 2.66A36.295 36.295 0 01.578.63l.672.293A42.328 42.328 0 002.41-2.71zm3.68-1.081c-.313.18-.633.351-.95.511v-2.152h.91V-6.3h-.91v-1.84H3.81v1.84H2.74v.63h1.07v2.452c-.368.14-.75.27-1.137.38l.168.69c.32-.113.64-.23.969-.363V-.16c0 .32-.11.48-.329.48C3.238.32 3 .3 2.738.281l.153.63h.808c.54 0 .813-.31.813-.911v-2.82c.316-.149.629-.309.949-.48zm3.578-3.95c-.91.36-1.93.56-3.07.583v3.847c-.047 1.7-.36 3.04-.938 4l.489.52c.699-1.13 1.07-2.64 1.12-4.52v-.71h1.282v5.28h.68v-5.28h.968v-.65H6.64v-1.91c1-.058 1.91-.25 2.731-.55zm0 0"/></symbol><symbol overflow="visible" id="j"><path d="M6.07-6.86v6.79h-3v.69h6.48v-.69H6.782v-6.79h2.43v-.68H3.559v.68zM1.25-7.987L.738-7.5c.762.5 1.364.98 1.801 1.43l.5-.5c-.48-.47-1.078-.942-1.789-1.418zM.988-5.602l-.5.493c.75.507 1.34 1 1.762 1.46l.5-.5A11.644 11.644 0 00.988-5.601zM2.27-2.949A28.672 28.672 0 01.61.6l.66.29a30.8 30.8 0 001.628-3.602zm0 0"/></symbol><symbol overflow="visible" id="k"><path d="M9.148-7.191H5.43a9.89 9.89 0 00-.45-1.059l-.8.14c.172.282.32.579.46.919H.84v2.14h.738v-1.437H8.41v1.449h.738zM.602-4.411v.7h2.41c-.32.55-.66 1.11-1.024 1.672.934.3 1.864.648 2.801 1.05C3.73-.178 2.34.232.641.239l.418.672C2.922.852 4.399.328 5.519-.672A35.405 35.405 0 018.7.988L9.18.36a31.218 31.218 0 00-3.14-1.558c.531-.621 1-1.45 1.41-2.512h1.973v-.7H4.25c.238-.44.488-.91.75-1.41l-.738-.218a62.17 62.17 0 01-.864 1.629zm3.257.7H6.66c-.34.883-.78 1.621-1.32 2.211-.79-.328-1.559-.61-2.32-.828.261-.402.539-.863.84-1.383zm0 0"/></symbol><symbol overflow="visible" id="l"><path d="M2.27-8.2c-.4.93-1.032 1.76-1.9 2.482l.207.68c1.063-.84 1.82-1.8 2.3-2.883zm.28 2.27c-.44 1.121-1.14 2.121-2.109 3l.207.66a9.72 9.72 0 00.993-.968V.988h.68v-5.097c.327-.48.6-1 .82-1.551zm1.962-2.242v1.762h-.684V-7.8h-.566v1.972h3.09v-1.973h-.57v1.39H5.09v-1.76zM3.109-5.148v.617H6.25c-.07.133-.14.261-.21.383l.358.457c.211-.297.403-.637.57-1.02.122 1.14.36 2.191.723 3.133A5.9 5.9 0 016.641.129c-.18-.399-.38-.777-.582-1.117l-.48.226c.21.371.41.793.6 1.262L6.41.39l.36.56c.5-.49.92-1.08 1.26-1.77.31.64.701 1.23 1.17 1.76l.45-.52a7.733 7.733 0 01-1.297-2.01c.43-1.2.668-2.641.707-4.34h.39v-.65H7.59c.11-.452.2-.94.282-1.46l-.66-.121c-.18 1.45-.492 2.648-.941 3.59v-.578zm4.301-.743c0-.007 0-.02.012-.039H8.46C8.43-4.62 8.28-3.469 8-2.48c-.34-1-.531-2.141-.59-3.41zM3.46-.898A5.217 5.217 0 012.673.328l.469.344c.308-.383.578-.82.808-1.332zM5.98-2.73l-.511.171c.101.16.203.34.3.54-.597.097-1.199.18-1.789.238.801-.52 1.5-1.117 2.098-1.778l-.558-.21c-.141.16-.29.32-.45.48-.41.039-.82.07-1.218.098.418-.32.796-.68 1.136-1.09L4.441-4.5a7.02 7.02 0 01-1.41 1.352l.13.457c.46-.02.917-.059 1.39-.118-.473.399-.98.77-1.54 1.11l.13.488c.46-.039.93-.09 1.41-.148V.12c0 .16-.082.25-.223.25-.18 0-.367-.02-.558-.043l.128.594h.641c.422 0 .64-.223.64-.64v-1.743l.79-.148c.07.14.14.289.203.449l.5-.219c-.203-.48-.434-.93-.692-1.351zm0 0"/></symbol><symbol overflow="visible" id="m"><path d="M8.3-3.27l-.562.348c.563.863 1.012 1.652 1.34 2.363l.55-.402c-.308-.66-.75-1.43-1.327-2.309zm-6.421.098c-.3.82-.738 1.48-1.34 1.98l.54.473c.6-.5 1.081-1.242 1.44-2.203zm2.3-2.45v.95H1.43v.703h2.712c-.082.98-.29 1.797-.653 2.48-.457.778-1.277 1.4-2.457 1.88l.399.64C2.64.551 3.512-.12 4.05-.98c.462-.782.731-1.77.829-2.989H6.94c-.05 1.719-.152 2.848-.3 3.367-.153.512-.461.774-.93.774-.402 0-.82-.012-1.262-.024l.192.68h1.418c.46-.027.793-.2 1.011-.508.2-.32.352-.898.45-1.718.082-.84.128-1.93.171-3.274H4.92v-.95zM.65-7.108v.687h2.26v.902h.73v-.902h2.622v.91h.726v-.91h2.364v-.687H6.988v-1.02h-.726v1.02H3.64v-1.02h-.73v1.02zm0 0"/></symbol><symbol overflow="visible" id="n"><path d="M3.77-7.078l-.598.367C4.05-5.68 4.738-4.75 5.25-3.91l.61-.417c-.481-.781-1.18-1.703-2.09-2.75zM7.21-2.18C7.97-1.129 8.579-.14 9.05.8l.552-.55a22.006 22.006 0 00-2.07-3.121c.058-.149.109-.3.16-.45.417-1.32.628-2.917.628-4.82h-.75c-.011 1.93-.218 3.52-.64 4.77-.551 1.48-1.68 2.7-3.38 3.68l.481.59C5.488.058 6.551-.97 7.211-2.18zM1.29-.14c1.17-.43 2.269-.938 3.288-1.532l-.2-.7c-.769.462-1.538.852-2.32 1.173v-6.68H1.32v6.508c0 .23-.09.41-.27.55zm0 0"/></symbol><symbol overflow="visible" id="o"><path d="M6.36-8.148V.988h.742v-5.316c.578.457 1.27 1.11 2.09 1.93l.437-.66c-.86-.77-1.7-1.462-2.527-2.07v-3.02zM2.32-4.18l-.379.559A7.882 7.882 0 013.52-2.56C2.82-1.48 1.84-.579.59.141l.488.609C3.68-.8 5.141-3.09 5.48-6.121v-.629H3.05c.141-.41.259-.84.36-1.29l-.719-.12c-.402 1.8-1.18 3.238-2.32 4.3l.488.61c.801-.738 1.45-1.672 1.93-2.809h1.98a9.025 9.025 0 01-.917 2.93 8.296 8.296 0 00-1.532-1.05zm0 0"/></symbol><symbol overflow="visible" id="p"><path d="M3.805-7.11h.941v5.036c0 .68-.203 1.21-.613 1.597-.406.383-.953.575-1.633.575-.707 0-1.258-.18-1.648-.543-.395-.36-.594-.867-.594-1.516h.937c0 .406.114.723.336.95.223.23.547.343.969.343.387 0 .7-.121.941-.367.239-.246.36-.586.364-1.028zm0 0"/></symbol><symbol overflow="visible" id="q"><path d="M3.945 0c-.05-.105-.093-.29-.125-.555-.422.434-.922.653-1.507.653-.52 0-.946-.149-1.282-.442a1.438 1.438 0 01-.5-1.12c0-.552.211-.977.63-1.282.417-.305 1.007-.457 1.765-.457h.879v-.414c0-.317-.094-.567-.285-.754-.188-.188-.465-.281-.833-.281-.324 0-.593.082-.812.242-.219.164-.328.36-.328.59H.64c0-.262.093-.516.28-.762.188-.246.442-.441.763-.582.32-.145.671-.219 1.054-.219.61 0 1.086.153 1.434.457.344.305.523.727.535 1.258v2.434c0 .484.063.87.184 1.156V0zm-1.5-.688c.285 0 .555-.074.805-.218a1.35 1.35 0 00.555-.574v-1.083h-.711c-1.106 0-1.656.325-1.656.97 0 .284.093.507.28.663.188.16.43.243.727.243zm0 0"/></symbol><symbol overflow="visible" id="r"><path d="M1.54-5.281l.026.664a1.93 1.93 0 011.582-.766c1.118 0 1.68.633 1.692 1.89V0h-.902v-3.496c-.004-.379-.094-.664-.262-.844-.172-.183-.438-.273-.801-.273-.293 0-.55.078-.77.234a1.59 1.59 0 00-.52.613V0h-.9v-5.281zm0 0"/></symbol><symbol overflow="visible" id="s"><path d="M3.559 0h-.907v-6.02l-1.824.668v-.82l2.59-.973h.14zm0 0"/></symbol><symbol overflow="visible" id="t"><path d="M1.906-3.992h.676c.426-.008.762-.121 1.008-.34.242-.219.363-.512.363-.883 0-.832-.414-1.25-1.242-1.25-.39 0-.703.113-.938.336-.23.223-.347.516-.347.887H.523c0-.563.204-1.031.618-1.406.41-.372.933-.559 1.57-.559.672 0 1.195.176 1.578.531.379.356.57.848.57 1.48 0 .31-.101.61-.3.9a1.81 1.81 0 01-.817.648c.39.125.692.328.903.617.214.285.32.636.32 1.047 0 .64-.207 1.144-.625 1.52-.418.374-.957.562-1.625.562s-1.211-.18-1.63-.543c-.417-.36-.624-.836-.624-1.43h.906c0 .375.121.672.367.898.243.227.57.336.98.336.438 0 .77-.113 1-.34.231-.23.349-.554.349-.98 0-.414-.125-.734-.383-.953-.254-.223-.618-.336-1.098-.344h-.676zm0 0"/></symbol><symbol overflow="visible" id="u"><path d="M5.25 0H.59v-.648l2.46-2.735c.364-.414.618-.75.755-1.008.14-.257.21-.527.21-.804 0-.371-.113-.676-.34-.914-.222-.239-.523-.356-.898-.356-.449 0-.797.13-1.047.383-.25.254-.37.613-.37 1.066H.452c0-.652.211-1.183.633-1.586.422-.402.984-.605 1.691-.605.66 0 1.184.172 1.567.52.386.347.578.808.578 1.382 0 .703-.445 1.535-1.336 2.5L1.68-.738h3.57zm0 0"/></symbol><symbol overflow="visible" id="v"><path d="M5.18-6.602L2.234 0H1.29l2.934-6.367H.375v-.742H5.18zm0 0"/></symbol><symbol overflow="visible" id="w"><path d="M4.746-3.14H1.762V0H.824v-7.11H5.23v.774H1.762v2.43h2.984zm0 0"/></symbol><symbol overflow="visible" id="x"><path d="M2.875.098c-.715 0-1.297-.235-1.746-.707-.45-.47-.676-1.098-.676-1.887v-.164c0-.524.102-.992.3-1.406.2-.41.481-.735.84-.965.36-.235.75-.352 1.173-.352.687 0 1.218.227 1.601.68.38.453.57 1.101.57 1.945v.375H1.36c.012.52.164.942.454 1.262.292.32.664.48 1.113.48.316 0 .59-.062.808-.195.223-.129.414-.3.582-.516l.551.43c-.441.68-1.105 1.02-1.992 1.02zm-.11-4.739a1.21 1.21 0 00-.921.399c-.246.265-.399.64-.457 1.117H4.03v-.07c-.023-.457-.148-.813-.367-1.067-.223-.25-.523-.379-.898-.379zm0 0"/></symbol><symbol overflow="visible" id="y"><path d="M5.156-2.582c0 .809-.187 1.453-.554 1.945-.372.489-.872.735-1.497.735-.667 0-1.183-.235-1.546-.707L1.516 0H.684v-7.5h.902v2.797c.367-.453.867-.68 1.508-.68.64 0 1.148.246 1.511.73.368.485.551 1.15.551 1.993zm-.902-.106c0-.613-.121-1.09-.356-1.421-.238-.336-.582-.504-1.027-.504-.598 0-1.023.277-1.285.828V-1.5c.277.555.71.832 1.297.832.43 0 .77-.168 1.008-.504.242-.336.363-.84.363-1.516zm0 0"/></symbol><symbol overflow="visible" id="z"><path d="M5.047-3.031c0 1.058-.18 1.844-.54 2.36-.362.51-.925.769-1.694.769-.758 0-1.32-.25-1.684-.754C.766-1.16.574-1.91.562-2.91v-1.207c0-1.043.18-1.82.54-2.328.363-.508.93-.762 1.703-.762.765 0 1.328.246 1.687.734.36.489.547 1.246.555 2.27zm-.902-1.235c0-.765-.106-1.324-.32-1.675-.216-.348-.555-.524-1.02-.524-.465 0-.801.176-1.012.524-.211.347-.32.882-.328 1.605v1.445c0 .77.113 1.336.336 1.704.222.367.558.546 1.012.546.445 0 .777-.171.992-.515.218-.344.332-.89.34-1.633zm0 0"/></symbol><symbol overflow="visible" id="A"><path d="M.703-.473c0-.156.047-.289.14-.39.095-.106.231-.157.415-.157.187 0 .328.051.426.157a.567.567 0 01.144.39c0 .149-.05.274-.144.375-.098.102-.239.153-.426.153-.184 0-.324-.051-.414-.153a.532.532 0 01-.14-.375zm0 0"/></symbol><symbol overflow="visible" id="B"><path d="M3.965-2.148h.887v.664h-.887V0h-.817v-1.484H.234v-.48l2.864-4.434h.867zm-2.809 0h1.992v-3.137l-.097.176zm0 0"/></symbol></defs><path d="M32.742 236.32V4m8.645 232.32V4m8.644 232.32V4m8.645 232.32V4m8.644 232.32V4m8.645 232.32V4m8.645 232.32V4m8.644 232.32V4m8.644 232.32V4m8.645 232.32V4m8.645 232.32V4m8.644 232.32V4m8.645 232.32V4m8.644 232.32V4m8.645 232.32V4m8.644 232.32V4m8.645 232.32V4m8.645 232.32V4m8.644 232.32V4m8.644 232.32V4m8.645 232.32V4m8.644 232.32V4m8.645 232.32V4m8.644 232.32V4m8.644 232.32V4m8.645 232.32V4m8.645 232.32V4m8.645 232.32V4m8.645 232.32V4m8.644 232.32V4m8.644 232.32V4m8.645 232.32V4m8.644 232.32V4m8.645 232.32V4m8.644 232.32V4m8.644 232.32V4m8.645 232.32V4m8.645 232.32V4m8.644 232.32V4m8.645 232.32V4m8.644 232.32V4m8.645 232.32V4m8.645 232.32V4m8.644 232.32V4M25 224.125h387.2M25 185.031h387.2M25 145.934h387.2M25 106.836h387.2M25 67.738h387.2M25 28.64h387.2" fill="none" stroke="#666" stroke-opacity=".5" stroke-dasharray="1,2" stroke-miterlimit="3.25"/><path d="M361.234 58.246l8.645 1.586 8.644 1.668 8.645 1.957 8.644 2.2 8.645 2.613" fill="none" stroke-width="1.6" stroke-linecap="square" stroke="#a60000" stroke-opacity=".3" stroke-miterlimit="3.25"/><path d="M361.234 58.797l8.645 1.297 8.644 1.367 8.645 1.55 8.644 1.708 8.645 1.949" fill="none" stroke-width="1.6" stroke-linecap="square" stroke="#0d86a0" stroke-opacity=".3" stroke-miterlimit="3.25"/><path d="M361.234 166.375l8.645 11.23" fill="none" stroke-width="1.6" stroke-linecap="square" stroke="#c05c20" stroke-opacity=".3" stroke-miterlimit="3.25"/><path d="M361.234 185.031l17.29 35.649" fill="none" stroke-width="1.6" stroke-linecap="square" stroke="#a8364d" stroke-opacity=".3" stroke-miterlimit="3.25"/><path d="M361.234 161.492l8.645 33.613" fill="none" stroke-width="1.6" stroke-linecap="square" stroke="#3664cc" stroke-opacity=".3" stroke-miterlimit="3.25"/><path d="M361.234 116.68l8.645 12.593" fill="none" stroke-width="1.6" stroke-linecap="square" stroke="#6846c7" stroke-opacity=".3" stroke-miterlimit="3.25"/><path d="M75.965 161.492l8.644-24.57 8.645-21.129 8.644-4.738 8.645-2.805 8.644-8.188 8.645 2.188 8.645-11.574 8.644-9.153 8.645-7.437 8.644-1.887 8.645-14.168 8.644 3.293 8.645-2.96 8.644-2.243 8.645-.996 8.644-3.547 8.645-1.5 8.644-2.277 8.645-3.117 8.644.867 8.645 2.742 8.645-1.328 8.644 4.187 8.645-2.418 8.644 3.555 8.645 3.55 8.644-33.042 8.645 17.308 8.644 11.141 8.645 4.645 8.644-.325 8.645 1.399 8.644 1.281" fill="none" stroke-width="1.6" stroke-linecap="square" stroke="#a60000" stroke-miterlimit="3.25"/><path d="M75.965 161.492l8.644-24.57 8.645-21.129 8.644-4.52 8.645 1.141 8.644-6.406 8.645 7.129 8.645-7.13 8.644-9.152 8.645-9.93 8.644-2.35 8.645-21.173 8.644 7.297 8.645-3.496 8.644-2.844 8.645-1.68 8.644-6.027 8.645-1.539 8.644-1.847 8.645-5.043 8.644.933 8.645 3.387 8.645-2.535 8.644 4.754 8.645-3.367 8.644 3.77 8.645 4.194 8.644-36.183 8.645 17.844 8.644 11.71 8.645 4.625 8.644-.808 8.645 1.144 8.644 1.106" fill="none" stroke-width="1.6" stroke-linecap="square" stroke="#0d86a0" stroke-miterlimit="3.25"/><path d="M101.898 185.031l8.645-43.554 8.644 1.359 8.645 11.77 8.645-21.27 8.644-2.961 8.645 3.79 8.644-14.868 8.645 2.27 8.644-3.954 8.645-4.722 8.644-2.688 8.645-7.426 8.644 7.02 8.645 1.039 8.644-6.227 8.645 7.57 8.644-.23h8.645l8.645 4.43 8.644 4.016 8.645 6.328 8.644 2.984 8.645-8.14 8.644 10.976 8.645 1.621 8.644-8.504 8.645 6.883 8.644 22.062h8.645l8.644 11.77" fill="none" stroke-width="1.6" stroke-linecap="square" stroke="#c05c20" stroke-miterlimit="3.25"/><path d="M119.188 185.031l8.644-23.539h8.645l8.644-29.703 8.645-13.52 8.644 2.126 8.645 2 8.644.87 8.645-10.85 8.644-.466 8.645.942 8.644-.243 8.645-.468 8.644-6.809 8.645 3.442 8.644.386 8.645 5.48 8.645-1.046 8.644 3.98 8.645 4.782 8.644 3.789 8.645 1.093 8.644-2.125 8.645 13.895 8.644-10.598 8.645 6.586 8.644 4.012 8.645 5.266 8.644 13.39" fill="none" stroke-width="1.6" stroke-linecap="square" stroke="#6f42b5" stroke-miterlimit="3.25"/><path d="M119.188 157.703h8.644l8.645-32.043 8.644 9.375 8.645-13.469 8.644 9.5 8.645-10.671 8.644-17.075 8.645-1.199 8.644 3.25 8.645 9.582h8.644l8.645-.273 8.644-8.672 8.645 7.883 8.644 1.902 8.645 2.144 8.645 3.63 8.644 7.5 8.645-1.215 8.644 2.523 8.645 9.844h8.644l8.645 5.715 8.644 6.054 8.645 5.715 8.644 3.79 8.645 23.538h8.644" fill="none" stroke-width="1.6" stroke-linecap="square" stroke="#769003" stroke-miterlimit="3.25"/><path d="M119.188 185.031l8.644-35.308 8.645-10.676 8.644-4.012 8.645-5.328 8.644-2.984 8.645-5.559 8.644-10.11 8.645 5.626 8.644.304 8.645-.605 8.644-4.43 8.645 4.137 8.644-3.672 8.645.969 8.644 5.222 8.645-3.378 8.645 11.496 8.644-2.063 8.645-2.687 8.644 3.687 8.645-.508 8.644 7.391 8.645 1.621 8.644 7.313 8.645 24.898 8.644 6.887 8.645 11.77h8.644" fill="none" stroke-width="1.6" stroke-linecap="square" stroke="#a8364d" stroke-miterlimit="3.25"/><path d="M127.832 185.031l8.645-44.812 8.644-9.153 8.645 2.27 8.644 12.598 8.645-21.75 8.644-4.164 8.645-.723 8.644 4.422 8.645-8.211 8.644 5.656 8.645-7.781 8.644-.969 8.645 6.191 8.644-3.378 8.645-3.278 8.645 1.434 8.644 6.637 8.645-1.75 8.644 9.007 8.645.575 8.644 5.484 8.645-2.27 8.644 6.887 8.645 4.883 8.644 1.476 8.645 3.41 8.644 13.77" fill="none" stroke-width="1.6" stroke-linecap="square" stroke="#3664cc" stroke-miterlimit="3.25"/><path d="M119.188 173.262l8.644 11.77 8.645-23.54 8.644-17.18 8.645-8.359 8.644 6.883 8.645-11.77 8.644-7.347 8.645-6.106 8.644-6.34 8.645 8.383h8.644l8.645-3.863 8.644-6.2 8.645 2.821 8.644 5.523 8.645-2.71 8.645 8.492 8.644-2.153 8.645 4.618h8.644l8.645-3.79 8.644 6.055h8.645l8.644 13.028 8.645 1.359 8.644 14.867 8.645 8.672 8.644 18.656" fill="none" stroke-width="1.6" stroke-linecap="square" stroke="#c8860a" stroke-miterlimit="3.25"/><path d="M127.832 185.031l8.645-35.308 8.644-2 8.645-6.246 8.644-3.524 8.645-6.164 8.644-3.937 8.645-.575 8.644-4.453 8.645 2.328h8.644l8.645-.492 8.644-.941 8.645 1.941 8.644.524 8.645-1.524 8.645 2.063 8.644 1.129 8.645 3.214 8.644.723 8.645-3.34 8.644.617 8.645 2.723 8.644 12.524 8.645-2.836 8.644 6.246 8.645 18.652 8.644 6.887" fill="none" stroke-width="1.6" stroke-linecap="square" stroke="#833987" stroke-miterlimit="3.25"/><path d="M119.188 157.703l8.644 3.79 8.645-25.54 8.644-8.676 8.645 8.676 8.644-11.293 8.645 7.883 8.644 6.504 8.645-3.094 8.644-13.98 8.645 4.21 8.644 4.883 8.645-7.8 8.644.453 8.645 4.133 8.644 3.937 8.645.754 8.645 6.504 8.644-4.883 8.645-1.621 8.644 3.41 8.645-.918 8.644 6.442 8.645 2.835 8.644 5.41 8.645 2.266h8.644l8.645 21.274h8.644" fill="none" stroke-width="1.6" stroke-linecap="square" stroke="#1c8f6b" stroke-miterlimit="3.25"/><path d="M119.188 185.031l8.644-27.328 8.645 8.672 8.644-23.54 8.645-6.882 8.644-4.887h8.645l8.644-5.914 8.645 5.914 8.644-5.406 8.645 5.406 8.644.723 8.645 1.547 8.644-2.27 8.645-2.617 8.644-8.054 8.645 3.789 8.645 4.265h8.644l8.645 2.617 8.644-2 8.645 15.246 8.644 3.41 8.645-6.245 8.644 2.835 8.645 7.676 8.644 9.504 17.29 23.54" fill="none" stroke-width="1.6" stroke-linecap="square" stroke="#a54f05" stroke-miterlimit="3.25"/><path d="M101.898 185.031l8.645-50.867 8.644-13.39 8.645-7.883 8.645-16.41 8.644-6.637 8.645-4.38 8.644-2.835 8.645-1.668 8.644-4.633 8.645-2.656 8.644-1.207 8.645.023 8.644 2.153 8.645-1.465 8.644-3.29 8.645 3.032 17.289 1.367 8.645 2.848 8.644 2.172 8.645 2.297 8.644 2.52 8.645.136 8.644 3.476 8.645 2.297 8.644 3.492 8.645 4.809 8.644 5.984 8.645 6.309 8.644 6.055" fill="none" stroke-width="1.6" stroke-linecap="square" stroke="#6846c7" stroke-miterlimit="3.25"/><path d="M362.418 58c0-.375-.148-.738-.414-1.004a1.422 1.422 0 00-2.008 0 1.422 1.422 0 000 2.008 1.422 1.422 0 002.008 0c.266-.266.414-.629.414-1.004zm9 2c0-.375-.148-.738-.414-1.004a1.422 1.422 0 00-2.008 0 1.422 1.422 0 000 2.008 1.422 1.422 0 002.008 0c.266-.266.414-.629.414-1.004zm9 1c0-.375-.148-.738-.414-1.004a1.422 1.422 0 00-2.008 0 1.422 1.422 0 000 2.008 1.422 1.422 0 002.008 0c.266-.266.414-.629.414-1.004zm8 2c0-.375-.148-.738-.414-1.004a1.422 1.422 0 00-2.008 0 1.422 1.422 0 000 2.008 1.422 1.422 0 002.008 0c.266-.266.414-.629.414-1.004zm9 3c0-.375-.148-.738-.414-1.004a1.422 1.422 0 00-2.008 0 1.422 1.422 0 000 2.008 1.422 1.422 0 002.008 0c.266-.266.414-.629.414-1.004zm8 2c0-.375-.148-.738-.414-1.004a1.422 1.422 0 00-2.008 0 1.422 1.422 0 000 2.008 1.422 1.422 0 002.008 0c.266-.266.414-.629.414-1.004zm0 0" fill-rule="evenodd" fill="#a60000" fill-opacity=".3"/><path d="M362.418 59c0-.375-.148-.738-.414-1.004a1.422 1.422 0 00-2.008 0 1.422 1.422 0 000 2.008 1.422 1.422 0 002.008 0c.266-.266.414-.629.414-1.004zm9 1c0-.375-.148-.738-.414-1.004a1.422 1.422 0 00-2.008 0 1.422 1.422 0 000 2.008 1.422 1.422 0 002.008 0c.266-.266.414-.629.414-1.004zm9 1c0-.375-.148-.738-.414-1.004a1.422 1.422 0 00-2.008 0 1.422 1.422 0 000 2.008 1.422 1.422 0 002.008 0c.266-.266.414-.629.414-1.004zm8 2c0-.375-.148-.738-.414-1.004a1.422 1.422 0 00-2.008 0 1.422 1.422 0 000 2.008 1.422 1.422 0 002.008 0c.266-.266.414-.629.414-1.004zm9 2c0-.375-.148-.738-.414-1.004a1.422 1.422 0 00-2.008 0 1.422 1.422 0 000 2.008 1.422 1.422 0 002.008 0c.266-.266.414-.629.414-1.004zm8 2c0-.375-.148-.738-.414-1.004a1.422 1.422 0 00-2.008 0 1.422 1.422 0 000 2.008 1.422 1.422 0 002.008 0c.266-.266.414-.629.414-1.004zm0 0" fill-rule="evenodd" fill="#0d86a0" fill-opacity=".3"/><path d="M362.418 166c0-.375-.148-.738-.414-1.004a1.422 1.422 0 00-2.008 0 1.422 1.422 0 000 2.008 1.422 1.422 0 002.008 0c.266-.266.414-.629.414-1.004zm9 12c0-.375-.148-.738-.414-1.004a1.422 1.422 0 00-2.008 0 1.422 1.422 0 000 2.008 1.422 1.422 0 002.008 0c.266-.266.414-.629.414-1.004zm0 0" fill-rule="evenodd" fill="#c05c20" fill-opacity=".3"/><path d="M362.418 158c0-.375-.148-.738-.414-1.004a1.422 1.422 0 00-2.008 0 1.422 1.422 0 000 2.008 1.422 1.422 0 002.008 0c.266-.266.414-.629.414-1.004zm0 0" fill-rule="evenodd" fill="#6f42b5" fill-opacity=".3"/><path d="M362.418 185c0-.375-.148-.738-.414-1.004a1.422 1.422 0 00-2.008 0 1.422 1.422 0 000 2.008 1.422 1.422 0 002.008 0c.266-.266.414-.629.414-1.004zm0 0" fill-rule="evenodd" fill="#769003" fill-opacity=".3"/><path d="M362.418 185c0-.375-.148-.738-.414-1.004a1.422 1.422 0 00-2.008 0 1.422 1.422 0 000 2.008 1.422 1.422 0 002.008 0c.266-.266.414-.629.414-1.004zm9 18c0-.375-.148-.738-.414-1.004a1.422 1.422 0 00-2.008 0 1.422 1.422 0 000 2.008 1.422 1.422 0 002.008 0c.266-.266.414-.629.414-1.004zm9 18c0-.375-.148-.738-.414-1.004a1.422 1.422 0 00-2.008 0 1.422 1.422 0 000 2.008 1.422 1.422 0 002.008 0c.266-.266.414-.629.414-1.004zm0 0" fill-rule="evenodd" fill="#a8364d" fill-opacity=".3"/><path d="M362.418 161c0-.375-.148-.738-.414-1.004a1.422 1.422 0 00-2.008 0 1.422 1.422 0 000 2.008 1.422 1.422 0 002.008 0c.266-.266.414-.629.414-1.004zm9 34c0-.375-.148-.738-.414-1.004a1.422 1.422 0 00-2.008 0 1.422 1.422 0 000 2.008 1.422 1.422 0 002.008 0c.266-.266.414-.629.414-1.004zm0 0" fill-rule="evenodd" fill="#3664cc" fill-opacity=".3"/><path d="M362.418 185c0-.375-.148-.738-.414-1.004a1.422 1.422 0 00-2.008 0 1.422 1.422 0 000 2.008 1.422 1.422 0 002.008 0c.266-.266.414-.629.414-1.004zm0 0" fill-rule="evenodd" fill="#c8860a" fill-opacity=".3"/><path d="M362.418 173c0-.375-.148-.738-.414-1.004a1.422 1.422 0 00-2.008 0 1.422 1.422 0 000 2.008 1.422 1.422 0 002.008 0c.266-.266.414-.629.414-1.004zm0 0" fill-rule="evenodd" fill="#833987" fill-opacity=".3"/><path d="M362.418 173c0-.375-.148-.738-.414-1.004a1.422 1.422 0 00-2.008 0 1.422 1.422 0 000 2.008 1.422 1.422 0 002.008 0c.266-.266.414-.629.414-1.004zm0 0" fill-rule="evenodd" fill="#1c8f6b" fill-opacity=".3"/><path d="M362.418 185c0-.375-.148-.738-.414-1.004a1.422 1.422 0 00-2.008 0 1.422 1.422 0 000 2.008 1.422 1.422 0 002.008 0c.266-.266.414-.629.414-1.004zm0 0" fill-rule="evenodd" fill="#a54f05" fill-opacity=".3"/><path d="M362.418 117c0-.375-.148-.738-.414-1.004a1.422 1.422 0 00-2.008 0 1.422 1.422 0 000 2.008 1.422 1.422 0 002.008 0c.266-.266.414-.629.414-1.004zm9 12c0-.375-.148-.738-.414-1.004a1.422 1.422 0 00-2.008 0 1.422 1.422 0 000 2.008 1.422 1.422 0 002.008 0c.266-.266.414-.629.414-1.004zm0 0" fill-rule="evenodd" fill="#6846c7" fill-opacity=".3"/><path d="M34.418 122c0-.375-.148-.738-.414-1.004a1.422 1.422 0 00-2.008 0 1.422 1.422 0 000 2.008 1.422 1.422 0 002.008 0c.266-.266.414-.629.414-1.004zm43 39c0-.375-.148-.738-.414-1.004a1.422 1.422 0 00-2.008 0 1.422 1.422 0 000 2.008 1.422 1.422 0 002.008 0c.266-.266.414-.629.414-1.004zm9-24c0-.375-.148-.738-.414-1.004a1.422 1.422 0 00-2.008 0 1.422 1.422 0 000 2.008 1.422 1.422 0 002.008 0c.266-.266.414-.629.414-1.004zm8-21c0-.375-.148-.738-.414-1.004a1.422 1.422 0 00-2.008 0 1.422 1.422 0 000 2.008 1.422 1.422 0 002.008 0c.266-.266.414-.629.414-1.004zm9-5c0-.375-.148-.738-.414-1.004a1.422 1.422 0 00-2.008 0 1.422 1.422 0 000 2.008 1.422 1.422 0 002.008 0c.266-.266.414-.629.414-1.004zm9-3c0-.375-.148-.738-.414-1.004a1.422 1.422 0 00-2.008 0 1.422 1.422 0 000 2.008 1.422 1.422 0 002.008 0c.266-.266.414-.629.414-1.004zm8-8c0-.375-.148-.738-.414-1.004a1.422 1.422 0 00-2.008 0 1.422 1.422 0 000 2.008 1.422 1.422 0 002.008 0c.266-.266.414-.629.414-1.004zm9 2c0-.375-.148-.738-.414-1.004a1.422 1.422 0 00-2.008 0 1.422 1.422 0 000 2.008 1.422 1.422 0 002.008 0c.266-.266.414-.629.414-1.004zm8-11c0-.375-.148-.738-.414-1.004a1.422 1.422 0 00-2.008 0 1.422 1.422 0 000 2.008 1.422 1.422 0 002.008 0c.266-.266.414-.629.414-1.004zm9-9c0-.375-.148-.738-.414-1.004a1.422 1.422 0 00-2.008 0 1.422 1.422 0 000 2.008 1.422 1.422 0 002.008 0c.266-.266.414-.629.414-1.004zm9-8c0-.375-.148-.738-.414-1.004a1.422 1.422 0 00-2.008 0 1.422 1.422 0 000 2.008 1.422 1.422 0 002.008 0c.266-.266.414-.629.414-1.004zm8-2c0-.375-.148-.738-.414-1.004a1.422 1.422 0 00-2.008 0 1.422 1.422 0 000 2.008 1.422 1.422 0 002.008 0c.266-.266.414-.629.414-1.004zm9-14c0-.375-.148-.738-.414-1.004a1.422 1.422 0 00-2.008 0 1.422 1.422 0 000 2.008 1.422 1.422 0 002.008 0c.266-.266.414-.629.414-1.004zm9 3c0-.375-.148-.738-.414-1.004a1.422 1.422 0 00-2.008 0 1.422 1.422 0 000 2.008 1.422 1.422 0 002.008 0c.266-.266.414-.629.414-1.004zm8-3c0-.375-.148-.738-.414-1.004a1.422 1.422 0 00-2.008 0 1.422 1.422 0 000 2.008 1.422 1.422 0 002.008 0c.266-.266.414-.629.414-1.004zm9-2c0-.375-.148-.738-.414-1.004a1.422 1.422 0 00-2.008 0 1.422 1.422 0 000 2.008 1.422 1.422 0 002.008 0c.266-.266.414-.629.414-1.004zm9-1c0-.375-.148-.738-.414-1.004a1.422 1.422 0 00-2.008 0 1.422 1.422 0 000 2.008 1.422 1.422 0 002.008 0c.266-.266.414-.629.414-1.004zm8-3c0-.375-.148-.738-.414-1.004a1.422 1.422 0 00-2.008 0 1.422 1.422 0 000 2.008 1.422 1.422 0 002.008 0c.266-.266.414-.629.414-1.004zm9-2c0-.375-.148-.738-.414-1.004a1.422 1.422 0 00-2.008 0 1.422 1.422 0 000 2.008 1.422 1.422 0 002.008 0c.266-.266.414-.629.414-1.004zm9-2c0-.375-.148-.738-.414-1.004a1.422 1.422 0 00-2.008 0 1.422 1.422 0 000 2.008 1.422 1.422 0 002.008 0c.266-.266.414-.629.414-1.004zm8-3c0-.375-.148-.738-.414-1.004a1.422 1.422 0 00-2.008 0 1.422 1.422 0 000 2.008 1.422 1.422 0 002.008 0c.266-.266.414-.629.414-1.004zm9 1c0-.375-.148-.738-.414-1.004a1.422 1.422 0 00-2.008 0 1.422 1.422 0 000 2.008 1.422 1.422 0 002.008 0c.266-.266.414-.629.414-1.004zm9 2c0-.375-.148-.738-.414-1.004a1.422 1.422 0 00-2.008 0 1.422 1.422 0 000 2.008 1.422 1.422 0 002.008 0c.266-.266.414-.629.414-1.004zm8-1c0-.375-.148-.738-.414-1.004a1.422 1.422 0 00-2.008 0 1.422 1.422 0 000 2.008 1.422 1.422 0 002.008 0c.266-.266.414-.629.414-1.004zm9 4c0-.375-.148-.738-.414-1.004a1.422 1.422 0 00-2.008 0 1.422 1.422 0 000 2.008 1.422 1.422 0 002.008 0c.266-.266.414-.629.414-1.004zm8-2c0-.375-.148-.738-.414-1.004a1.422 1.422 0 00-2.008 0 1.422 1.422 0 000 2.008 1.422 1.422 0 002.008 0c.266-.266.414-.629.414-1.004zm9 3c0-.375-.148-.738-.414-1.004a1.422 1.422 0 00-2.008 0 1.422 1.422 0 000 2.008 1.422 1.422 0 002.008 0c.266-.266.414-.629.414-1.004zm9 4c0-.375-.148-.738-.414-1.004a1.422 1.422 0 00-2.008 0 1.422 1.422 0 000 2.008 1.422 1.422 0 002.008 0c.266-.266.414-.629.414-1.004zm8-33c0-.375-.148-.738-.414-1.004a1.422 1.422 0 00-2.008 0 1.422 1.422 0 000 2.008 1.422 1.422 0 002.008 0c.266-.266.414-.629.414-1.004zm9 17c0-.375-.148-.738-.414-1.004a1.422 1.422 0 00-2.008 0 1.422 1.422 0 000 2.008 1.422 1.422 0 002.008 0c.266-.266.414-.629.414-1.004zm9 11c0-.375-.148-.738-.414-1.004a1.422 1.422 0 00-2.008 0 1.422 1.422 0 000 2.008 1.422 1.422 0 002.008 0c.266-.266.414-.629.414-1.004zm8 5c0-.375-.148-.738-.414-1.004a1.422 1.422 0 00-2.008 0 1.422 1.422 0 000 2.008 1.422 1.422 0 002.008 0c.266-.266.414-.629.414-1.004zm9 0c0-.375-.148-.738-.414-1.004a1.422 1.422 0 00-2.008 0 1.422 1.422 0 000 2.008 1.422 1.422 0 002.008 0c.266-.266.414-.629.414-1.004zm9 1c0-.375-.148-.738-.414-1.004a1.422 1.422 0 00-2.008 0 1.422 1.422 0 000 2.008 1.422 1.422 0 002.008 0c.266-.266.414-.629.414-1.004zm8 1c0-.375-.148-.738-.414-1.004a1.422 1.422 0 00-2.008 0 1.422 1.422 0 000 2.008 1.422 1.422 0 002.008 0c.266-.266.414-.629.414-1.004zm0 0" fill-rule="evenodd" fill="#a60000"/><path d="M34.418 122c0-.375-.148-.738-.414-1.004a1.422 1.422 0 00-2.008 0 1.422 1.422 0 000 2.008 1.422 1.422 0 002.008 0c.266-.266.414-.629.414-1.004zm43 39c0-.375-.148-.738-.414-1.004a1.422 1.422 0 00-2.008 0 1.422 1.422 0 000 2.008 1.422 1.422 0 002.008 0c.266-.266.414-.629.414-1.004zm9-24c0-.375-.148-.738-.414-1.004a1.422 1.422 0 00-2.008 0 1.422 1.422 0 000 2.008 1.422 1.422 0 002.008 0c.266-.266.414-.629.414-1.004zm8-21c0-.375-.148-.738-.414-1.004a1.422 1.422 0 00-2.008 0 1.422 1.422 0 000 2.008 1.422 1.422 0 002.008 0c.266-.266.414-.629.414-1.004zm9-5c0-.375-.148-.738-.414-1.004a1.422 1.422 0 00-2.008 0 1.422 1.422 0 000 2.008 1.422 1.422 0 002.008 0c.266-.266.414-.629.414-1.004zm9 1c0-.375-.148-.738-.414-1.004a1.422 1.422 0 00-2.008 0 1.422 1.422 0 000 2.008 1.422 1.422 0 002.008 0c.266-.266.414-.629.414-1.004zm8-6c0-.375-.148-.738-.414-1.004a1.422 1.422 0 00-2.008 0 1.422 1.422 0 000 2.008 1.422 1.422 0 002.008 0c.266-.266.414-.629.414-1.004zm9 7c0-.375-.148-.738-.414-1.004a1.422 1.422 0 00-2.008 0 1.422 1.422 0 000 2.008 1.422 1.422 0 002.008 0c.266-.266.414-.629.414-1.004zm8-7c0-.375-.148-.738-.414-1.004a1.422 1.422 0 00-2.008 0 1.422 1.422 0 000 2.008 1.422 1.422 0 002.008 0c.266-.266.414-.629.414-1.004zm9-9c0-.375-.148-.738-.414-1.004a1.422 1.422 0 00-2.008 0 1.422 1.422 0 000 2.008 1.422 1.422 0 002.008 0c.266-.266.414-.629.414-1.004zm9-10c0-.375-.148-.738-.414-1.004a1.422 1.422 0 00-2.008 0 1.422 1.422 0 000 2.008 1.422 1.422 0 002.008 0c.266-.266.414-.629.414-1.004zm8-2c0-.375-.148-.738-.414-1.004a1.422 1.422 0 00-2.008 0 1.422 1.422 0 000 2.008 1.422 1.422 0 002.008 0c.266-.266.414-.629.414-1.004zm9-22c0-.375-.148-.738-.414-1.004a1.422 1.422 0 00-2.008 0 1.422 1.422 0 000 2.008 1.422 1.422 0 002.008 0c.266-.266.414-.629.414-1.004zm9 8c0-.375-.148-.738-.414-1.004a1.422 1.422 0 00-2.008 0 1.422 1.422 0 000 2.008 1.422 1.422 0 002.008 0c.266-.266.414-.629.414-1.004zm8-4c0-.375-.148-.738-.414-1.004a1.422 1.422 0 00-2.008 0 1.422 1.422 0 000 2.008 1.422 1.422 0 002.008 0c.266-.266.414-.629.414-1.004zm9-3c0-.375-.148-.738-.414-1.004a1.422 1.422 0 00-2.008 0 1.422 1.422 0 000 2.008 1.422 1.422 0 002.008 0c.266-.266.414-.629.414-1.004zm9-1c0-.375-.148-.738-.414-1.004a1.422 1.422 0 00-2.008 0 1.422 1.422 0 000 2.008 1.422 1.422 0 002.008 0c.266-.266.414-.629.414-1.004zm8-6c0-.375-.148-.738-.414-1.004a1.422 1.422 0 00-2.008 0 1.422 1.422 0 000 2.008 1.422 1.422 0 002.008 0c.266-.266.414-.629.414-1.004zm9-2c0-.375-.148-.738-.414-1.004a1.422 1.422 0 00-2.008 0 1.422 1.422 0 000 2.008 1.422 1.422 0 002.008 0c.266-.266.414-.629.414-1.004zm9-2c0-.375-.148-.738-.414-1.004a1.422 1.422 0 00-2.008 0 1.422 1.422 0 000 2.008 1.422 1.422 0 002.008 0c.266-.266.414-.629.414-1.004zm8-5c0-.375-.148-.738-.414-1.004a1.422 1.422 0 00-2.008 0 1.422 1.422 0 000 2.008 1.422 1.422 0 002.008 0c.266-.266.414-.629.414-1.004zm9 1c0-.375-.148-.738-.414-1.004a1.422 1.422 0 00-2.008 0 1.422 1.422 0 000 2.008 1.422 1.422 0 002.008 0c.266-.266.414-.629.414-1.004zm9 4c0-.375-.148-.738-.414-1.004a1.422 1.422 0 00-2.008 0 1.422 1.422 0 000 2.008 1.422 1.422 0 002.008 0c.266-.266.414-.629.414-1.004zm8-3c0-.375-.148-.738-.414-1.004a1.422 1.422 0 00-2.008 0 1.422 1.422 0 000 2.008 1.422 1.422 0 002.008 0c.266-.266.414-.629.414-1.004zm9 5c0-.375-.148-.738-.414-1.004a1.422 1.422 0 00-2.008 0 1.422 1.422 0 000 2.008 1.422 1.422 0 002.008 0c.266-.266.414-.629.414-1.004zm8-4c0-.375-.148-.738-.414-1.004a1.422 1.422 0 00-2.008 0 1.422 1.422 0 000 2.008 1.422 1.422 0 002.008 0c.266-.266.414-.629.414-1.004zm9 4c0-.375-.148-.738-.414-1.004a1.422 1.422 0 00-2.008 0 1.422 1.422 0 000 2.008 1.422 1.422 0 002.008 0c.266-.266.414-.629.414-1.004zm9 4c0-.375-.148-.738-.414-1.004a1.422 1.422 0 00-2.008 0 1.422 1.422 0 000 2.008 1.422 1.422 0 002.008 0c.266-.266.414-.629.414-1.004zm8-36c0-.375-.148-.738-.414-1.004a1.422 1.422 0 00-2.008 0 1.422 1.422 0 000 2.008 1.422 1.422 0 002.008 0c.266-.266.414-.629.414-1.004zm9 18c0-.375-.148-.738-.414-1.004a1.422 1.422 0 00-2.008 0 1.422 1.422 0 000 2.008 1.422 1.422 0 002.008 0c.266-.266.414-.629.414-1.004zm9 12c0-.375-.148-.738-.414-1.004a1.422 1.422 0 00-2.008 0 1.422 1.422 0 000 2.008 1.422 1.422 0 002.008 0c.266-.266.414-.629.414-1.004zm8 4c0-.375-.148-.738-.414-1.004a1.422 1.422 0 00-2.008 0 1.422 1.422 0 000 2.008 1.422 1.422 0 002.008 0c.266-.266.414-.629.414-1.004zm9 0c0-.375-.148-.738-.414-1.004a1.422 1.422 0 00-2.008 0 1.422 1.422 0 000 2.008 1.422 1.422 0 002.008 0c.266-.266.414-.629.414-1.004zm9 1c0-.375-.148-.738-.414-1.004a1.422 1.422 0 00-2.008 0 1.422 1.422 0 000 2.008 1.422 1.422 0 002.008 0c.266-.266.414-.629.414-1.004zm8 1c0-.375-.148-.738-.414-1.004a1.422 1.422 0 00-2.008 0 1.422 1.422 0 000 2.008 1.422 1.422 0 002.008 0c.266-.266.414-.629.414-1.004zm0 0" fill-rule="evenodd" fill="#0d86a0"/><path d="M103.418 185c0-.375-.148-.738-.414-1.004a1.422 1.422 0 00-2.008 0 1.422 1.422 0 000 2.008 1.422 1.422 0 002.008 0c.266-.266.414-.629.414-1.004zm9-44c0-.375-.148-.738-.414-1.004a1.422 1.422 0 00-2.008 0 1.422 1.422 0 000 2.008 1.422 1.422 0 002.008 0c.266-.266.414-.629.414-1.004zm8 2c0-.375-.148-.738-.414-1.004a1.422 1.422 0 00-2.008 0 1.422 1.422 0 000 2.008 1.422 1.422 0 002.008 0c.266-.266.414-.629.414-1.004zm9 12c0-.375-.148-.738-.414-1.004a1.422 1.422 0 00-2.008 0 1.422 1.422 0 000 2.008 1.422 1.422 0 002.008 0c.266-.266.414-.629.414-1.004zm8-22c0-.375-.148-.738-.414-1.004a1.422 1.422 0 00-2.008 0 1.422 1.422 0 000 2.008 1.422 1.422 0 002.008 0c.266-.266.414-.629.414-1.004zm9-3c0-.375-.148-.738-.414-1.004a1.422 1.422 0 00-2.008 0 1.422 1.422 0 000 2.008 1.422 1.422 0 002.008 0c.266-.266.414-.629.414-1.004zm9 4c0-.375-.148-.738-.414-1.004a1.422 1.422 0 00-2.008 0 1.422 1.422 0 000 2.008 1.422 1.422 0 002.008 0c.266-.266.414-.629.414-1.004zm8-15c0-.375-.148-.738-.414-1.004a1.422 1.422 0 00-2.008 0 1.422 1.422 0 000 2.008 1.422 1.422 0 002.008 0c.266-.266.414-.629.414-1.004zm9 3c0-.375-.148-.738-.414-1.004a1.422 1.422 0 00-2.008 0 1.422 1.422 0 000 2.008 1.422 1.422 0 002.008 0c.266-.266.414-.629.414-1.004zm9-4c0-.375-.148-.738-.414-1.004a1.422 1.422 0 00-2.008 0 1.422 1.422 0 000 2.008 1.422 1.422 0 002.008 0c.266-.266.414-.629.414-1.004zm8-5c0-.375-.148-.738-.414-1.004a1.422 1.422 0 00-2.008 0 1.422 1.422 0 000 2.008 1.422 1.422 0 002.008 0c.266-.266.414-.629.414-1.004zm9-3c0-.375-.148-.738-.414-1.004a1.422 1.422 0 00-2.008 0 1.422 1.422 0 000 2.008 1.422 1.422 0 002.008 0c.266-.266.414-.629.414-1.004zm9-7c0-.375-.148-.738-.414-1.004a1.422 1.422 0 00-2.008 0 1.422 1.422 0 000 2.008 1.422 1.422 0 002.008 0c.266-.266.414-.629.414-1.004zm8 7c0-.375-.148-.738-.414-1.004a1.422 1.422 0 00-2.008 0 1.422 1.422 0 000 2.008 1.422 1.422 0 002.008 0c.266-.266.414-.629.414-1.004zm9 1c0-.375-.148-.738-.414-1.004a1.422 1.422 0 00-2.008 0 1.422 1.422 0 000 2.008 1.422 1.422 0 002.008 0c.266-.266.414-.629.414-1.004zm9-6c0-.375-.148-.738-.414-1.004a1.422 1.422 0 00-2.008 0 1.422 1.422 0 000 2.008 1.422 1.422 0 002.008 0c.266-.266.414-.629.414-1.004zm8 7c0-.375-.148-.738-.414-1.004a1.422 1.422 0 00-2.008 0 1.422 1.422 0 000 2.008 1.422 1.422 0 002.008 0c.266-.266.414-.629.414-1.004zm9 0c0-.375-.148-.738-.414-1.004a1.422 1.422 0 00-2.008 0 1.422 1.422 0 000 2.008 1.422 1.422 0 002.008 0c.266-.266.414-.629.414-1.004zm9 0c0-.375-.148-.738-.414-1.004a1.422 1.422 0 00-2.008 0 1.422 1.422 0 000 2.008 1.422 1.422 0 002.008 0c.266-.266.414-.629.414-1.004zm8 4c0-.375-.148-.738-.414-1.004a1.422 1.422 0 00-2.008 0 1.422 1.422 0 000 2.008 1.422 1.422 0 002.008 0c.266-.266.414-.629.414-1.004zm9 4c0-.375-.148-.738-.414-1.004a1.422 1.422 0 00-2.008 0 1.422 1.422 0 000 2.008 1.422 1.422 0 002.008 0c.266-.266.414-.629.414-1.004zm8 7c0-.375-.148-.738-.414-1.004a1.422 1.422 0 00-2.008 0 1.422 1.422 0 000 2.008 1.422 1.422 0 002.008 0c.266-.266.414-.629.414-1.004zm9 3c0-.375-.148-.738-.414-1.004a1.422 1.422 0 00-2.008 0 1.422 1.422 0 000 2.008 1.422 1.422 0 002.008 0c.266-.266.414-.629.414-1.004zm9-8c0-.375-.148-.738-.414-1.004a1.422 1.422 0 00-2.008 0 1.422 1.422 0 000 2.008 1.422 1.422 0 002.008 0c.266-.266.414-.629.414-1.004zm8 11c0-.375-.148-.738-.414-1.004a1.422 1.422 0 00-2.008 0 1.422 1.422 0 000 2.008 1.422 1.422 0 002.008 0c.266-.266.414-.629.414-1.004zm9 1c0-.375-.148-.738-.414-1.004a1.422 1.422 0 00-2.008 0 1.422 1.422 0 000 2.008 1.422 1.422 0 002.008 0c.266-.266.414-.629.414-1.004zm9-8c0-.375-.148-.738-.414-1.004a1.422 1.422 0 00-2.008 0 1.422 1.422 0 000 2.008 1.422 1.422 0 002.008 0c.266-.266.414-.629.414-1.004zm8 7c0-.375-.148-.738-.414-1.004a1.422 1.422 0 00-2.008 0 1.422 1.422 0 000 2.008 1.422 1.422 0 002.008 0c.266-.266.414-.629.414-1.004zm9 22c0-.375-.148-.738-.414-1.004a1.422 1.422 0 00-2.008 0 1.422 1.422 0 000 2.008 1.422 1.422 0 002.008 0c.266-.266.414-.629.414-1.004zm9 0c0-.375-.148-.738-.414-1.004a1.422 1.422 0 00-2.008 0 1.422 1.422 0 000 2.008 1.422 1.422 0 002.008 0c.266-.266.414-.629.414-1.004zm8 11c0-.375-.148-.738-.414-1.004a1.422 1.422 0 00-2.008 0 1.422 1.422 0 000 2.008 1.422 1.422 0 002.008 0c.266-.266.414-.629.414-1.004zm0 0" fill-rule="evenodd" fill="#c05c20"/><path d="M120.418 185c0-.375-.148-.738-.414-1.004a1.422 1.422 0 00-2.008 0 1.422 1.422 0 000 2.008 1.422 1.422 0 002.008 0c.266-.266.414-.629.414-1.004zm9-24c0-.375-.148-.738-.414-1.004a1.422 1.422 0 00-2.008 0 1.422 1.422 0 000 2.008 1.422 1.422 0 002.008 0c.266-.266.414-.629.414-1.004zm8 0c0-.375-.148-.738-.414-1.004a1.422 1.422 0 00-2.008 0 1.422 1.422 0 000 2.008 1.422 1.422 0 002.008 0c.266-.266.414-.629.414-1.004zm9-29c0-.375-.148-.738-.414-1.004a1.422 1.422 0 00-2.008 0 1.422 1.422 0 000 2.008 1.422 1.422 0 002.008 0c.266-.266.414-.629.414-1.004zm9-14c0-.375-.148-.738-.414-1.004a1.422 1.422 0 00-2.008 0 1.422 1.422 0 000 2.008 1.422 1.422 0 002.008 0c.266-.266.414-.629.414-1.004zm8 2c0-.375-.148-.738-.414-1.004a1.422 1.422 0 00-2.008 0 1.422 1.422 0 000 2.008 1.422 1.422 0 002.008 0c.266-.266.414-.629.414-1.004zm9 2c0-.375-.148-.738-.414-1.004a1.422 1.422 0 00-2.008 0 1.422 1.422 0 000 2.008 1.422 1.422 0 002.008 0c.266-.266.414-.629.414-1.004zm9 1c0-.375-.148-.738-.414-1.004a1.422 1.422 0 00-2.008 0 1.422 1.422 0 000 2.008 1.422 1.422 0 002.008 0c.266-.266.414-.629.414-1.004zm8-11c0-.375-.148-.738-.414-1.004a1.422 1.422 0 00-2.008 0 1.422 1.422 0 000 2.008 1.422 1.422 0 002.008 0c.266-.266.414-.629.414-1.004zm9 0c0-.375-.148-.738-.414-1.004a1.422 1.422 0 00-2.008 0 1.422 1.422 0 000 2.008 1.422 1.422 0 002.008 0c.266-.266.414-.629.414-1.004zm9 1c0-.375-.148-.738-.414-1.004a1.422 1.422 0 00-2.008 0 1.422 1.422 0 000 2.008 1.422 1.422 0 002.008 0c.266-.266.414-.629.414-1.004zm8 0c0-.375-.148-.738-.414-1.004a1.422 1.422 0 00-2.008 0 1.422 1.422 0 000 2.008 1.422 1.422 0 002.008 0c.266-.266.414-.629.414-1.004zm9-1c0-.375-.148-.738-.414-1.004a1.422 1.422 0 00-2.008 0 1.422 1.422 0 000 2.008 1.422 1.422 0 002.008 0c.266-.266.414-.629.414-1.004zm9-7c0-.375-.148-.738-.414-1.004a1.422 1.422 0 00-2.008 0 1.422 1.422 0 000 2.008 1.422 1.422 0 002.008 0c.266-.266.414-.629.414-1.004zm8 4c0-.375-.148-.738-.414-1.004a1.422 1.422 0 00-2.008 0 1.422 1.422 0 000 2.008 1.422 1.422 0 002.008 0c.266-.266.414-.629.414-1.004zm9 0c0-.375-.148-.738-.414-1.004a1.422 1.422 0 00-2.008 0 1.422 1.422 0 000 2.008 1.422 1.422 0 002.008 0c.266-.266.414-.629.414-1.004zm9 6c0-.375-.148-.738-.414-1.004a1.422 1.422 0 00-2.008 0 1.422 1.422 0 000 2.008 1.422 1.422 0 002.008 0c.266-.266.414-.629.414-1.004zm8-1c0-.375-.148-.738-.414-1.004a1.422 1.422 0 00-2.008 0 1.422 1.422 0 000 2.008 1.422 1.422 0 002.008 0c.266-.266.414-.629.414-1.004zm9 4c0-.375-.148-.738-.414-1.004a1.422 1.422 0 00-2.008 0 1.422 1.422 0 000 2.008 1.422 1.422 0 002.008 0c.266-.266.414-.629.414-1.004zm8 4c0-.375-.148-.738-.414-1.004a1.422 1.422 0 00-2.008 0 1.422 1.422 0 000 2.008 1.422 1.422 0 002.008 0c.266-.266.414-.629.414-1.004zm9 4c0-.375-.148-.738-.414-1.004a1.422 1.422 0 00-2.008 0 1.422 1.422 0 000 2.008 1.422 1.422 0 002.008 0c.266-.266.414-.629.414-1.004zm9 1c0-.375-.148-.738-.414-1.004a1.422 1.422 0 00-2.008 0 1.422 1.422 0 000 2.008 1.422 1.422 0 002.008 0c.266-.266.414-.629.414-1.004zm8-2c0-.375-.148-.738-.414-1.004a1.422 1.422 0 00-2.008 0 1.422 1.422 0 000 2.008 1.422 1.422 0 002.008 0c.266-.266.414-.629.414-1.004zm9 14c0-.375-.148-.738-.414-1.004a1.422 1.422 0 00-2.008 0 1.422 1.422 0 000 2.008 1.422 1.422 0 002.008 0c.266-.266.414-.629.414-1.004zm9-11c0-.375-.148-.738-.414-1.004a1.422 1.422 0 00-2.008 0 1.422 1.422 0 000 2.008 1.422 1.422 0 002.008 0c.266-.266.414-.629.414-1.004zm8 7c0-.375-.148-.738-.414-1.004a1.422 1.422 0 00-2.008 0 1.422 1.422 0 000 2.008 1.422 1.422 0 002.008 0c.266-.266.414-.629.414-1.004zm9 4c0-.375-.148-.738-.414-1.004a1.422 1.422 0 00-2.008 0 1.422 1.422 0 000 2.008 1.422 1.422 0 002.008 0c.266-.266.414-.629.414-1.004zm9 5c0-.375-.148-.738-.414-1.004a1.422 1.422 0 00-2.008 0 1.422 1.422 0 000 2.008 1.422 1.422 0 002.008 0c.266-.266.414-.629.414-1.004zm8 14c0-.375-.148-.738-.414-1.004a1.422 1.422 0 00-2.008 0 1.422 1.422 0 000 2.008 1.422 1.422 0 002.008 0c.266-.266.414-.629.414-1.004zm0 0" fill-rule="evenodd" fill="#6f42b5"/><path d="M120.418 158c0-.375-.148-.738-.414-1.004a1.422 1.422 0 00-2.008 0 1.422 1.422 0 000 2.008 1.422 1.422 0 002.008 0c.266-.266.414-.629.414-1.004zm9 0c0-.375-.148-.738-.414-1.004a1.422 1.422 0 00-2.008 0 1.422 1.422 0 000 2.008 1.422 1.422 0 002.008 0c.266-.266.414-.629.414-1.004zm8-32c0-.375-.148-.738-.414-1.004a1.422 1.422 0 00-2.008 0 1.422 1.422 0 000 2.008 1.422 1.422 0 002.008 0c.266-.266.414-.629.414-1.004zm9 9c0-.375-.148-.738-.414-1.004a1.422 1.422 0 00-2.008 0 1.422 1.422 0 000 2.008 1.422 1.422 0 002.008 0c.266-.266.414-.629.414-1.004zm9-13c0-.375-.148-.738-.414-1.004a1.422 1.422 0 00-2.008 0 1.422 1.422 0 000 2.008 1.422 1.422 0 002.008 0c.266-.266.414-.629.414-1.004zm8 9c0-.375-.148-.738-.414-1.004a1.422 1.422 0 00-2.008 0 1.422 1.422 0 000 2.008 1.422 1.422 0 002.008 0c.266-.266.414-.629.414-1.004zm9-11c0-.375-.148-.738-.414-1.004a1.422 1.422 0 00-2.008 0 1.422 1.422 0 000 2.008 1.422 1.422 0 002.008 0c.266-.266.414-.629.414-1.004zm9-17c0-.375-.148-.738-.414-1.004a1.422 1.422 0 00-2.008 0 1.422 1.422 0 000 2.008 1.422 1.422 0 002.008 0c.266-.266.414-.629.414-1.004zm8-1c0-.375-.148-.738-.414-1.004a1.422 1.422 0 00-2.008 0 1.422 1.422 0 000 2.008 1.422 1.422 0 002.008 0c.266-.266.414-.629.414-1.004zm9 3c0-.375-.148-.738-.414-1.004a1.422 1.422 0 00-2.008 0 1.422 1.422 0 000 2.008 1.422 1.422 0 002.008 0c.266-.266.414-.629.414-1.004zm9 10c0-.375-.148-.738-.414-1.004a1.422 1.422 0 00-2.008 0 1.422 1.422 0 000 2.008 1.422 1.422 0 002.008 0c.266-.266.414-.629.414-1.004zm8 0c0-.375-.148-.738-.414-1.004a1.422 1.422 0 00-2.008 0 1.422 1.422 0 000 2.008 1.422 1.422 0 002.008 0c.266-.266.414-.629.414-1.004zm9 0c0-.375-.148-.738-.414-1.004a1.422 1.422 0 00-2.008 0 1.422 1.422 0 000 2.008 1.422 1.422 0 002.008 0c.266-.266.414-.629.414-1.004zm9-9c0-.375-.148-.738-.414-1.004a1.422 1.422 0 00-2.008 0 1.422 1.422 0 000 2.008 1.422 1.422 0 002.008 0c.266-.266.414-.629.414-1.004zm8 8c0-.375-.148-.738-.414-1.004a1.422 1.422 0 00-2.008 0 1.422 1.422 0 000 2.008 1.422 1.422 0 002.008 0c.266-.266.414-.629.414-1.004zm9 2c0-.375-.148-.738-.414-1.004a1.422 1.422 0 00-2.008 0 1.422 1.422 0 000 2.008 1.422 1.422 0 002.008 0c.266-.266.414-.629.414-1.004zm9 2c0-.375-.148-.738-.414-1.004a1.422 1.422 0 00-2.008 0 1.422 1.422 0 000 2.008 1.422 1.422 0 002.008 0c.266-.266.414-.629.414-1.004zm8 4c0-.375-.148-.738-.414-1.004a1.422 1.422 0 00-2.008 0 1.422 1.422 0 000 2.008 1.422 1.422 0 002.008 0c.266-.266.414-.629.414-1.004zm9 7c0-.375-.148-.738-.414-1.004a1.422 1.422 0 00-2.008 0 1.422 1.422 0 000 2.008 1.422 1.422 0 002.008 0c.266-.266.414-.629.414-1.004zm8-1c0-.375-.148-.738-.414-1.004a1.422 1.422 0 00-2.008 0 1.422 1.422 0 000 2.008 1.422 1.422 0 002.008 0c.266-.266.414-.629.414-1.004zm9 2c0-.375-.148-.738-.414-1.004a1.422 1.422 0 00-2.008 0 1.422 1.422 0 000 2.008 1.422 1.422 0 002.008 0c.266-.266.414-.629.414-1.004zm9 10c0-.375-.148-.738-.414-1.004a1.422 1.422 0 00-2.008 0 1.422 1.422 0 000 2.008 1.422 1.422 0 002.008 0c.266-.266.414-.629.414-1.004zm8 0c0-.375-.148-.738-.414-1.004a1.422 1.422 0 00-2.008 0 1.422 1.422 0 000 2.008 1.422 1.422 0 002.008 0c.266-.266.414-.629.414-1.004zm9 6c0-.375-.148-.738-.414-1.004a1.422 1.422 0 00-2.008 0 1.422 1.422 0 000 2.008 1.422 1.422 0 002.008 0c.266-.266.414-.629.414-1.004zm9 6c0-.375-.148-.738-.414-1.004a1.422 1.422 0 00-2.008 0 1.422 1.422 0 000 2.008 1.422 1.422 0 002.008 0c.266-.266.414-.629.414-1.004zm8 6c0-.375-.148-.738-.414-1.004a1.422 1.422 0 00-2.008 0 1.422 1.422 0 000 2.008 1.422 1.422 0 002.008 0c.266-.266.414-.629.414-1.004zm9 3c0-.375-.148-.738-.414-1.004a1.422 1.422 0 00-2.008 0 1.422 1.422 0 000 2.008 1.422 1.422 0 002.008 0c.266-.266.414-.629.414-1.004zm9 24c0-.375-.148-.738-.414-1.004a1.422 1.422 0 00-2.008 0 1.422 1.422 0 000 2.008 1.422 1.422 0 002.008 0c.266-.266.414-.629.414-1.004zm8 0c0-.375-.148-.738-.414-1.004a1.422 1.422 0 00-2.008 0 1.422 1.422 0 000 2.008 1.422 1.422 0 002.008 0c.266-.266.414-.629.414-1.004zm0 0" fill-rule="evenodd" fill="#769003"/><path d="M120.418 185c0-.375-.148-.738-.414-1.004a1.422 1.422 0 00-2.008 0 1.422 1.422 0 000 2.008 1.422 1.422 0 002.008 0c.266-.266.414-.629.414-1.004zm9-35c0-.375-.148-.738-.414-1.004a1.422 1.422 0 00-2.008 0 1.422 1.422 0 000 2.008 1.422 1.422 0 002.008 0c.266-.266.414-.629.414-1.004zm8-11c0-.375-.148-.738-.414-1.004a1.422 1.422 0 00-2.008 0 1.422 1.422 0 000 2.008 1.422 1.422 0 002.008 0c.266-.266.414-.629.414-1.004zm9-4c0-.375-.148-.738-.414-1.004a1.422 1.422 0 00-2.008 0 1.422 1.422 0 000 2.008 1.422 1.422 0 002.008 0c.266-.266.414-.629.414-1.004zm9-5c0-.375-.148-.738-.414-1.004a1.422 1.422 0 00-2.008 0 1.422 1.422 0 000 2.008 1.422 1.422 0 002.008 0c.266-.266.414-.629.414-1.004zm8-3c0-.375-.148-.738-.414-1.004a1.422 1.422 0 00-2.008 0 1.422 1.422 0 000 2.008 1.422 1.422 0 002.008 0c.266-.266.414-.629.414-1.004zm9-6c0-.375-.148-.738-.414-1.004a1.422 1.422 0 00-2.008 0 1.422 1.422 0 000 2.008 1.422 1.422 0 002.008 0c.266-.266.414-.629.414-1.004zm9-10c0-.375-.148-.738-.414-1.004a1.422 1.422 0 00-2.008 0 1.422 1.422 0 000 2.008 1.422 1.422 0 002.008 0c.266-.266.414-.629.414-1.004zm8 6c0-.375-.148-.738-.414-1.004a1.422 1.422 0 00-2.008 0 1.422 1.422 0 000 2.008 1.422 1.422 0 002.008 0c.266-.266.414-.629.414-1.004zm9 0c0-.375-.148-.738-.414-1.004a1.422 1.422 0 00-2.008 0 1.422 1.422 0 000 2.008 1.422 1.422 0 002.008 0c.266-.266.414-.629.414-1.004zm9-1c0-.375-.148-.738-.414-1.004a1.422 1.422 0 00-2.008 0 1.422 1.422 0 000 2.008 1.422 1.422 0 002.008 0c.266-.266.414-.629.414-1.004zm8-4c0-.375-.148-.738-.414-1.004a1.422 1.422 0 00-2.008 0 1.422 1.422 0 000 2.008 1.422 1.422 0 002.008 0c.266-.266.414-.629.414-1.004zm9 4c0-.375-.148-.738-.414-1.004a1.422 1.422 0 00-2.008 0 1.422 1.422 0 000 2.008 1.422 1.422 0 002.008 0c.266-.266.414-.629.414-1.004zm9-4c0-.375-.148-.738-.414-1.004a1.422 1.422 0 00-2.008 0 1.422 1.422 0 000 2.008 1.422 1.422 0 002.008 0c.266-.266.414-.629.414-1.004zm8 1c0-.375-.148-.738-.414-1.004a1.422 1.422 0 00-2.008 0 1.422 1.422 0 000 2.008 1.422 1.422 0 002.008 0c.266-.266.414-.629.414-1.004zm9 6c0-.375-.148-.738-.414-1.004a1.422 1.422 0 00-2.008 0 1.422 1.422 0 000 2.008 1.422 1.422 0 002.008 0c.266-.266.414-.629.414-1.004zm9-4c0-.375-.148-.738-.414-1.004a1.422 1.422 0 00-2.008 0 1.422 1.422 0 000 2.008 1.422 1.422 0 002.008 0c.266-.266.414-.629.414-1.004zm8 12c0-.375-.148-.738-.414-1.004a1.422 1.422 0 00-2.008 0 1.422 1.422 0 000 2.008 1.422 1.422 0 002.008 0c.266-.266.414-.629.414-1.004zm9-2c0-.375-.148-.738-.414-1.004a1.422 1.422 0 00-2.008 0 1.422 1.422 0 000 2.008 1.422 1.422 0 002.008 0c.266-.266.414-.629.414-1.004zm8-3c0-.375-.148-.738-.414-1.004a1.422 1.422 0 00-2.008 0 1.422 1.422 0 000 2.008 1.422 1.422 0 002.008 0c.266-.266.414-.629.414-1.004zm9 4c0-.375-.148-.738-.414-1.004a1.422 1.422 0 00-2.008 0 1.422 1.422 0 000 2.008 1.422 1.422 0 002.008 0c.266-.266.414-.629.414-1.004zm9-1c0-.375-.148-.738-.414-1.004a1.422 1.422 0 00-2.008 0 1.422 1.422 0 000 2.008 1.422 1.422 0 002.008 0c.266-.266.414-.629.414-1.004zm8 8c0-.375-.148-.738-.414-1.004a1.422 1.422 0 00-2.008 0 1.422 1.422 0 000 2.008 1.422 1.422 0 002.008 0c.266-.266.414-.629.414-1.004zm9 1c0-.375-.148-.738-.414-1.004a1.422 1.422 0 00-2.008 0 1.422 1.422 0 000 2.008 1.422 1.422 0 002.008 0c.266-.266.414-.629.414-1.004zm9 7c0-.375-.148-.738-.414-1.004a1.422 1.422 0 00-2.008 0 1.422 1.422 0 000 2.008 1.422 1.422 0 002.008 0c.266-.266.414-.629.414-1.004zm8 25c0-.375-.148-.738-.414-1.004a1.422 1.422 0 00-2.008 0 1.422 1.422 0 000 2.008 1.422 1.422 0 002.008 0c.266-.266.414-.629.414-1.004zm9 7c0-.375-.148-.738-.414-1.004a1.422 1.422 0 00-2.008 0 1.422 1.422 0 000 2.008 1.422 1.422 0 002.008 0c.266-.266.414-.629.414-1.004zm9 12c0-.375-.148-.738-.414-1.004a1.422 1.422 0 00-2.008 0 1.422 1.422 0 000 2.008 1.422 1.422 0 002.008 0c.266-.266.414-.629.414-1.004zm8 0c0-.375-.148-.738-.414-1.004a1.422 1.422 0 00-2.008 0 1.422 1.422 0 000 2.008 1.422 1.422 0 002.008 0c.266-.266.414-.629.414-1.004zm0 0" fill-rule="evenodd" fill="#a8364d"/><path d="M129.418 185c0-.375-.148-.738-.414-1.004a1.422 1.422 0 00-2.008 0 1.422 1.422 0 000 2.008 1.422 1.422 0 002.008 0c.266-.266.414-.629.414-1.004zm8-45c0-.375-.148-.738-.414-1.004a1.422 1.422 0 00-2.008 0 1.422 1.422 0 000 2.008 1.422 1.422 0 002.008 0c.266-.266.414-.629.414-1.004zm9-9c0-.375-.148-.738-.414-1.004a1.422 1.422 0 00-2.008 0 1.422 1.422 0 000 2.008 1.422 1.422 0 002.008 0c.266-.266.414-.629.414-1.004zm9 2c0-.375-.148-.738-.414-1.004a1.422 1.422 0 00-2.008 0 1.422 1.422 0 000 2.008 1.422 1.422 0 002.008 0c.266-.266.414-.629.414-1.004zm8 13c0-.375-.148-.738-.414-1.004a1.422 1.422 0 00-2.008 0 1.422 1.422 0 000 2.008 1.422 1.422 0 002.008 0c.266-.266.414-.629.414-1.004zm9-22c0-.375-.148-.738-.414-1.004a1.422 1.422 0 00-2.008 0 1.422 1.422 0 000 2.008 1.422 1.422 0 002.008 0c.266-.266.414-.629.414-1.004zm9-4c0-.375-.148-.738-.414-1.004a1.422 1.422 0 00-2.008 0 1.422 1.422 0 000 2.008 1.422 1.422 0 002.008 0c.266-.266.414-.629.414-1.004zm8-1c0-.375-.148-.738-.414-1.004a1.422 1.422 0 00-2.008 0 1.422 1.422 0 000 2.008 1.422 1.422 0 002.008 0c.266-.266.414-.629.414-1.004zm9 5c0-.375-.148-.738-.414-1.004a1.422 1.422 0 00-2.008 0 1.422 1.422 0 000 2.008 1.422 1.422 0 002.008 0c.266-.266.414-.629.414-1.004zm9-8c0-.375-.148-.738-.414-1.004a1.422 1.422 0 00-2.008 0 1.422 1.422 0 000 2.008 1.422 1.422 0 002.008 0c.266-.266.414-.629.414-1.004zm8 5c0-.375-.148-.738-.414-1.004a1.422 1.422 0 00-2.008 0 1.422 1.422 0 000 2.008 1.422 1.422 0 002.008 0c.266-.266.414-.629.414-1.004zm9-8c0-.375-.148-.738-.414-1.004a1.422 1.422 0 00-2.008 0 1.422 1.422 0 000 2.008 1.422 1.422 0 002.008 0c.266-.266.414-.629.414-1.004zm9-1c0-.375-.148-.738-.414-1.004a1.422 1.422 0 00-2.008 0 1.422 1.422 0 000 2.008 1.422 1.422 0 002.008 0c.266-.266.414-.629.414-1.004zm8 7c0-.375-.148-.738-.414-1.004a1.422 1.422 0 00-2.008 0 1.422 1.422 0 000 2.008 1.422 1.422 0 002.008 0c.266-.266.414-.629.414-1.004zm9-4c0-.375-.148-.738-.414-1.004a1.422 1.422 0 00-2.008 0 1.422 1.422 0 000 2.008 1.422 1.422 0 002.008 0c.266-.266.414-.629.414-1.004zm9-3c0-.375-.148-.738-.414-1.004a1.422 1.422 0 00-2.008 0 1.422 1.422 0 000 2.008 1.422 1.422 0 002.008 0c.266-.266.414-.629.414-1.004zm8 1c0-.375-.148-.738-.414-1.004a1.422 1.422 0 00-2.008 0 1.422 1.422 0 000 2.008 1.422 1.422 0 002.008 0c.266-.266.414-.629.414-1.004zm9 7c0-.375-.148-.738-.414-1.004a1.422 1.422 0 00-2.008 0 1.422 1.422 0 000 2.008 1.422 1.422 0 002.008 0c.266-.266.414-.629.414-1.004zm8-2c0-.375-.148-.738-.414-1.004a1.422 1.422 0 00-2.008 0 1.422 1.422 0 000 2.008 1.422 1.422 0 002.008 0c.266-.266.414-.629.414-1.004zm9 9c0-.375-.148-.738-.414-1.004a1.422 1.422 0 00-2.008 0 1.422 1.422 0 000 2.008 1.422 1.422 0 002.008 0c.266-.266.414-.629.414-1.004zm9 1c0-.375-.148-.738-.414-1.004a1.422 1.422 0 00-2.008 0 1.422 1.422 0 000 2.008 1.422 1.422 0 002.008 0c.266-.266.414-.629.414-1.004zm8 5c0-.375-.148-.738-.414-1.004a1.422 1.422 0 00-2.008 0 1.422 1.422 0 000 2.008 1.422 1.422 0 002.008 0c.266-.266.414-.629.414-1.004zm9-2c0-.375-.148-.738-.414-1.004a1.422 1.422 0 00-2.008 0 1.422 1.422 0 000 2.008 1.422 1.422 0 002.008 0c.266-.266.414-.629.414-1.004zm9 7c0-.375-.148-.738-.414-1.004a1.422 1.422 0 00-2.008 0 1.422 1.422 0 000 2.008 1.422 1.422 0 002.008 0c.266-.266.414-.629.414-1.004zm8 5c0-.375-.148-.738-.414-1.004a1.422 1.422 0 00-2.008 0 1.422 1.422 0 000 2.008 1.422 1.422 0 002.008 0c.266-.266.414-.629.414-1.004zm9 1c0-.375-.148-.738-.414-1.004a1.422 1.422 0 00-2.008 0 1.422 1.422 0 000 2.008 1.422 1.422 0 002.008 0c.266-.266.414-.629.414-1.004zm9 4c0-.375-.148-.738-.414-1.004a1.422 1.422 0 00-2.008 0 1.422 1.422 0 000 2.008 1.422 1.422 0 002.008 0c.266-.266.414-.629.414-1.004zm8 13c0-.375-.148-.738-.414-1.004a1.422 1.422 0 00-2.008 0 1.422 1.422 0 000 2.008 1.422 1.422 0 002.008 0c.266-.266.414-.629.414-1.004zm0 0" fill-rule="evenodd" fill="#3664cc"/><path d="M120.418 173c0-.375-.148-.738-.414-1.004a1.422 1.422 0 00-2.008 0 1.422 1.422 0 000 2.008 1.422 1.422 0 002.008 0c.266-.266.414-.629.414-1.004zm9 12c0-.375-.148-.738-.414-1.004a1.422 1.422 0 00-2.008 0 1.422 1.422 0 000 2.008 1.422 1.422 0 002.008 0c.266-.266.414-.629.414-1.004zm8-24c0-.375-.148-.738-.414-1.004a1.422 1.422 0 00-2.008 0 1.422 1.422 0 000 2.008 1.422 1.422 0 002.008 0c.266-.266.414-.629.414-1.004zm9-17c0-.375-.148-.738-.414-1.004a1.422 1.422 0 00-2.008 0 1.422 1.422 0 000 2.008 1.422 1.422 0 002.008 0c.266-.266.414-.629.414-1.004zm9-8c0-.375-.148-.738-.414-1.004a1.422 1.422 0 00-2.008 0 1.422 1.422 0 000 2.008 1.422 1.422 0 002.008 0c.266-.266.414-.629.414-1.004zm8 7c0-.375-.148-.738-.414-1.004a1.422 1.422 0 00-2.008 0 1.422 1.422 0 000 2.008 1.422 1.422 0 002.008 0c.266-.266.414-.629.414-1.004zm9-12c0-.375-.148-.738-.414-1.004a1.422 1.422 0 00-2.008 0 1.422 1.422 0 000 2.008 1.422 1.422 0 002.008 0c.266-.266.414-.629.414-1.004zm9-7c0-.375-.148-.738-.414-1.004a1.422 1.422 0 00-2.008 0 1.422 1.422 0 000 2.008 1.422 1.422 0 002.008 0c.266-.266.414-.629.414-1.004zm8-6c0-.375-.148-.738-.414-1.004a1.422 1.422 0 00-2.008 0 1.422 1.422 0 000 2.008 1.422 1.422 0 002.008 0c.266-.266.414-.629.414-1.004zm9-7c0-.375-.148-.738-.414-1.004a1.422 1.422 0 00-2.008 0 1.422 1.422 0 000 2.008 1.422 1.422 0 002.008 0c.266-.266.414-.629.414-1.004zm9 9c0-.375-.148-.738-.414-1.004a1.422 1.422 0 00-2.008 0 1.422 1.422 0 000 2.008 1.422 1.422 0 002.008 0c.266-.266.414-.629.414-1.004zm8 0c0-.375-.148-.738-.414-1.004a1.422 1.422 0 00-2.008 0 1.422 1.422 0 000 2.008 1.422 1.422 0 002.008 0c.266-.266.414-.629.414-1.004zm9-4c0-.375-.148-.738-.414-1.004a1.422 1.422 0 00-2.008 0 1.422 1.422 0 000 2.008 1.422 1.422 0 002.008 0c.266-.266.414-.629.414-1.004zm9-6c0-.375-.148-.738-.414-1.004a1.422 1.422 0 00-2.008 0 1.422 1.422 0 000 2.008 1.422 1.422 0 002.008 0c.266-.266.414-.629.414-1.004zm8 2c0-.375-.148-.738-.414-1.004a1.422 1.422 0 00-2.008 0 1.422 1.422 0 000 2.008 1.422 1.422 0 002.008 0c.266-.266.414-.629.414-1.004zm9 6c0-.375-.148-.738-.414-1.004a1.422 1.422 0 00-2.008 0 1.422 1.422 0 000 2.008 1.422 1.422 0 002.008 0c.266-.266.414-.629.414-1.004zm9-3c0-.375-.148-.738-.414-1.004a1.422 1.422 0 00-2.008 0 1.422 1.422 0 000 2.008 1.422 1.422 0 002.008 0c.266-.266.414-.629.414-1.004zm8 9c0-.375-.148-.738-.414-1.004a1.422 1.422 0 00-2.008 0 1.422 1.422 0 000 2.008 1.422 1.422 0 002.008 0c.266-.266.414-.629.414-1.004zm9-2c0-.375-.148-.738-.414-1.004a1.422 1.422 0 00-2.008 0 1.422 1.422 0 000 2.008 1.422 1.422 0 002.008 0c.266-.266.414-.629.414-1.004zm8 4c0-.375-.148-.738-.414-1.004a1.422 1.422 0 00-2.008 0 1.422 1.422 0 000 2.008 1.422 1.422 0 002.008 0c.266-.266.414-.629.414-1.004zm9 0c0-.375-.148-.738-.414-1.004a1.422 1.422 0 00-2.008 0 1.422 1.422 0 000 2.008 1.422 1.422 0 002.008 0c.266-.266.414-.629.414-1.004zm9-4c0-.375-.148-.738-.414-1.004a1.422 1.422 0 00-2.008 0 1.422 1.422 0 000 2.008 1.422 1.422 0 002.008 0c.266-.266.414-.629.414-1.004zm8 6c0-.375-.148-.738-.414-1.004a1.422 1.422 0 00-2.008 0 1.422 1.422 0 000 2.008 1.422 1.422 0 002.008 0c.266-.266.414-.629.414-1.004zm9 0c0-.375-.148-.738-.414-1.004a1.422 1.422 0 00-2.008 0 1.422 1.422 0 000 2.008 1.422 1.422 0 002.008 0c.266-.266.414-.629.414-1.004zm9 13c0-.375-.148-.738-.414-1.004a1.422 1.422 0 00-2.008 0 1.422 1.422 0 000 2.008 1.422 1.422 0 002.008 0c.266-.266.414-.629.414-1.004zm8 2c0-.375-.148-.738-.414-1.004a1.422 1.422 0 00-2.008 0 1.422 1.422 0 000 2.008 1.422 1.422 0 002.008 0c.266-.266.414-.629.414-1.004zm9 15c0-.375-.148-.738-.414-1.004a1.422 1.422 0 00-2.008 0 1.422 1.422 0 000 2.008 1.422 1.422 0 002.008 0c.266-.266.414-.629.414-1.004zm9 8c0-.375-.148-.738-.414-1.004a1.422 1.422 0 00-2.008 0 1.422 1.422 0 000 2.008 1.422 1.422 0 002.008 0c.266-.266.414-.629.414-1.004zm8 19c0-.375-.148-.738-.414-1.004a1.422 1.422 0 00-2.008 0 1.422 1.422 0 000 2.008 1.422 1.422 0 002.008 0c.266-.266.414-.629.414-1.004zm0 0" fill-rule="evenodd" fill="#c8860a"/><path d="M129.418 185c0-.375-.148-.738-.414-1.004a1.422 1.422 0 00-2.008 0 1.422 1.422 0 000 2.008 1.422 1.422 0 002.008 0c.266-.266.414-.629.414-1.004zm8-35c0-.375-.148-.738-.414-1.004a1.422 1.422 0 00-2.008 0 1.422 1.422 0 000 2.008 1.422 1.422 0 002.008 0c.266-.266.414-.629.414-1.004zm9-2c0-.375-.148-.738-.414-1.004a1.422 1.422 0 00-2.008 0 1.422 1.422 0 000 2.008 1.422 1.422 0 002.008 0c.266-.266.414-.629.414-1.004zm9-7c0-.375-.148-.738-.414-1.004a1.422 1.422 0 00-2.008 0 1.422 1.422 0 000 2.008 1.422 1.422 0 002.008 0c.266-.266.414-.629.414-1.004zm8-3c0-.375-.148-.738-.414-1.004a1.422 1.422 0 00-2.008 0 1.422 1.422 0 000 2.008 1.422 1.422 0 002.008 0c.266-.266.414-.629.414-1.004zm9-6c0-.375-.148-.738-.414-1.004a1.422 1.422 0 00-2.008 0 1.422 1.422 0 000 2.008 1.422 1.422 0 002.008 0c.266-.266.414-.629.414-1.004zm9-4c0-.375-.148-.738-.414-1.004a1.422 1.422 0 00-2.008 0 1.422 1.422 0 000 2.008 1.422 1.422 0 002.008 0c.266-.266.414-.629.414-1.004zm8-1c0-.375-.148-.738-.414-1.004a1.422 1.422 0 00-2.008 0 1.422 1.422 0 000 2.008 1.422 1.422 0 002.008 0c.266-.266.414-.629.414-1.004zm9-4c0-.375-.148-.738-.414-1.004a1.422 1.422 0 00-2.008 0 1.422 1.422 0 000 2.008 1.422 1.422 0 002.008 0c.266-.266.414-.629.414-1.004zm9 2c0-.375-.148-.738-.414-1.004a1.422 1.422 0 00-2.008 0 1.422 1.422 0 000 2.008 1.422 1.422 0 002.008 0c.266-.266.414-.629.414-1.004zm8 0c0-.375-.148-.738-.414-1.004a1.422 1.422 0 00-2.008 0 1.422 1.422 0 000 2.008 1.422 1.422 0 002.008 0c.266-.266.414-.629.414-1.004zm9 0c0-.375-.148-.738-.414-1.004a1.422 1.422 0 00-2.008 0 1.422 1.422 0 000 2.008 1.422 1.422 0 002.008 0c.266-.266.414-.629.414-1.004zm9-1c0-.375-.148-.738-.414-1.004a1.422 1.422 0 00-2.008 0 1.422 1.422 0 000 2.008 1.422 1.422 0 002.008 0c.266-.266.414-.629.414-1.004zm8 2c0-.375-.148-.738-.414-1.004a1.422 1.422 0 00-2.008 0 1.422 1.422 0 000 2.008 1.422 1.422 0 002.008 0c.266-.266.414-.629.414-1.004zm9 0c0-.375-.148-.738-.414-1.004a1.422 1.422 0 00-2.008 0 1.422 1.422 0 000 2.008 1.422 1.422 0 002.008 0c.266-.266.414-.629.414-1.004zm9-1c0-.375-.148-.738-.414-1.004a1.422 1.422 0 00-2.008 0 1.422 1.422 0 000 2.008 1.422 1.422 0 002.008 0c.266-.266.414-.629.414-1.004zm8 2c0-.375-.148-.738-.414-1.004a1.422 1.422 0 00-2.008 0 1.422 1.422 0 000 2.008 1.422 1.422 0 002.008 0c.266-.266.414-.629.414-1.004zm9 1c0-.375-.148-.738-.414-1.004a1.422 1.422 0 00-2.008 0 1.422 1.422 0 000 2.008 1.422 1.422 0 002.008 0c.266-.266.414-.629.414-1.004zm8 3c0-.375-.148-.738-.414-1.004a1.422 1.422 0 00-2.008 0 1.422 1.422 0 000 2.008 1.422 1.422 0 002.008 0c.266-.266.414-.629.414-1.004zm9 1c0-.375-.148-.738-.414-1.004a1.422 1.422 0 00-2.008 0 1.422 1.422 0 000 2.008 1.422 1.422 0 002.008 0c.266-.266.414-.629.414-1.004zm9-4c0-.375-.148-.738-.414-1.004a1.422 1.422 0 00-2.008 0 1.422 1.422 0 000 2.008 1.422 1.422 0 002.008 0c.266-.266.414-.629.414-1.004zm8 1c0-.375-.148-.738-.414-1.004a1.422 1.422 0 00-2.008 0 1.422 1.422 0 000 2.008 1.422 1.422 0 002.008 0c.266-.266.414-.629.414-1.004zm9 3c0-.375-.148-.738-.414-1.004a1.422 1.422 0 00-2.008 0 1.422 1.422 0 000 2.008 1.422 1.422 0 002.008 0c.266-.266.414-.629.414-1.004zm9 12c0-.375-.148-.738-.414-1.004a1.422 1.422 0 00-2.008 0 1.422 1.422 0 000 2.008 1.422 1.422 0 002.008 0c.266-.266.414-.629.414-1.004zm8-3c0-.375-.148-.738-.414-1.004a1.422 1.422 0 00-2.008 0 1.422 1.422 0 000 2.008 1.422 1.422 0 002.008 0c.266-.266.414-.629.414-1.004zm9 7c0-.375-.148-.738-.414-1.004a1.422 1.422 0 00-2.008 0 1.422 1.422 0 000 2.008 1.422 1.422 0 002.008 0c.266-.266.414-.629.414-1.004zm9 18c0-.375-.148-.738-.414-1.004a1.422 1.422 0 00-2.008 0 1.422 1.422 0 000 2.008 1.422 1.422 0 002.008 0c.266-.266.414-.629.414-1.004zm8 7c0-.375-.148-.738-.414-1.004a1.422 1.422 0 00-2.008 0 1.422 1.422 0 000 2.008 1.422 1.422 0 002.008 0c.266-.266.414-.629.414-1.004zm0 0" fill-rule="evenodd" fill="#833987"/><path d="M120.418 158c0-.375-.148-.738-.414-1.004a1.422 1.422 0 00-2.008 0 1.422 1.422 0 000 2.008 1.422 1.422 0 002.008 0c.266-.266.414-.629.414-1.004zm9 3c0-.375-.148-.738-.414-1.004a1.422 1.422 0 00-2.008 0 1.422 1.422 0 000 2.008 1.422 1.422 0 002.008 0c.266-.266.414-.629.414-1.004zm8-25c0-.375-.148-.738-.414-1.004a1.422 1.422 0 00-2.008 0 1.422 1.422 0 000 2.008 1.422 1.422 0 002.008 0c.266-.266.414-.629.414-1.004zm9-9c0-.375-.148-.738-.414-1.004a1.422 1.422 0 00-2.008 0 1.422 1.422 0 000 2.008 1.422 1.422 0 002.008 0c.266-.266.414-.629.414-1.004zm9 9c0-.375-.148-.738-.414-1.004a1.422 1.422 0 00-2.008 0 1.422 1.422 0 000 2.008 1.422 1.422 0 002.008 0c.266-.266.414-.629.414-1.004zm8-11c0-.375-.148-.738-.414-1.004a1.422 1.422 0 00-2.008 0 1.422 1.422 0 000 2.008 1.422 1.422 0 002.008 0c.266-.266.414-.629.414-1.004zm9 8c0-.375-.148-.738-.414-1.004a1.422 1.422 0 00-2.008 0 1.422 1.422 0 000 2.008 1.422 1.422 0 002.008 0c.266-.266.414-.629.414-1.004zm9 6c0-.375-.148-.738-.414-1.004a1.422 1.422 0 00-2.008 0 1.422 1.422 0 000 2.008 1.422 1.422 0 002.008 0c.266-.266.414-.629.414-1.004zm8-3c0-.375-.148-.738-.414-1.004a1.422 1.422 0 00-2.008 0 1.422 1.422 0 000 2.008 1.422 1.422 0 002.008 0c.266-.266.414-.629.414-1.004zm9-14c0-.375-.148-.738-.414-1.004a1.422 1.422 0 00-2.008 0 1.422 1.422 0 000 2.008 1.422 1.422 0 002.008 0c.266-.266.414-.629.414-1.004zm9 4c0-.375-.148-.738-.414-1.004a1.422 1.422 0 00-2.008 0 1.422 1.422 0 000 2.008 1.422 1.422 0 002.008 0c.266-.266.414-.629.414-1.004zm8 5c0-.375-.148-.738-.414-1.004a1.422 1.422 0 00-2.008 0 1.422 1.422 0 000 2.008 1.422 1.422 0 002.008 0c.266-.266.414-.629.414-1.004zm9-8c0-.375-.148-.738-.414-1.004a1.422 1.422 0 00-2.008 0 1.422 1.422 0 000 2.008 1.422 1.422 0 002.008 0c.266-.266.414-.629.414-1.004zm9 1c0-.375-.148-.738-.414-1.004a1.422 1.422 0 00-2.008 0 1.422 1.422 0 000 2.008 1.422 1.422 0 002.008 0c.266-.266.414-.629.414-1.004zm8 4c0-.375-.148-.738-.414-1.004a1.422 1.422 0 00-2.008 0 1.422 1.422 0 000 2.008 1.422 1.422 0 002.008 0c.266-.266.414-.629.414-1.004zm9 4c0-.375-.148-.738-.414-1.004a1.422 1.422 0 00-2.008 0 1.422 1.422 0 000 2.008 1.422 1.422 0 002.008 0c.266-.266.414-.629.414-1.004zm9 1c0-.375-.148-.738-.414-1.004a1.422 1.422 0 00-2.008 0 1.422 1.422 0 000 2.008 1.422 1.422 0 002.008 0c.266-.266.414-.629.414-1.004zm8 6c0-.375-.148-.738-.414-1.004a1.422 1.422 0 00-2.008 0 1.422 1.422 0 000 2.008 1.422 1.422 0 002.008 0c.266-.266.414-.629.414-1.004zm9-5c0-.375-.148-.738-.414-1.004a1.422 1.422 0 00-2.008 0 1.422 1.422 0 000 2.008 1.422 1.422 0 002.008 0c.266-.266.414-.629.414-1.004zm8-1c0-.375-.148-.738-.414-1.004a1.422 1.422 0 00-2.008 0 1.422 1.422 0 000 2.008 1.422 1.422 0 002.008 0c.266-.266.414-.629.414-1.004zm9 3c0-.375-.148-.738-.414-1.004a1.422 1.422 0 00-2.008 0 1.422 1.422 0 000 2.008 1.422 1.422 0 002.008 0c.266-.266.414-.629.414-1.004zm9-1c0-.375-.148-.738-.414-1.004a1.422 1.422 0 00-2.008 0 1.422 1.422 0 000 2.008 1.422 1.422 0 002.008 0c.266-.266.414-.629.414-1.004zm8 6c0-.375-.148-.738-.414-1.004a1.422 1.422 0 00-2.008 0 1.422 1.422 0 000 2.008 1.422 1.422 0 002.008 0c.266-.266.414-.629.414-1.004zm9 3c0-.375-.148-.738-.414-1.004a1.422 1.422 0 00-2.008 0 1.422 1.422 0 000 2.008 1.422 1.422 0 002.008 0c.266-.266.414-.629.414-1.004zm9 6c0-.375-.148-.738-.414-1.004a1.422 1.422 0 00-2.008 0 1.422 1.422 0 000 2.008 1.422 1.422 0 002.008 0c.266-.266.414-.629.414-1.004zm8 2c0-.375-.148-.738-.414-1.004a1.422 1.422 0 00-2.008 0 1.422 1.422 0 000 2.008 1.422 1.422 0 002.008 0c.266-.266.414-.629.414-1.004zm9 0c0-.375-.148-.738-.414-1.004a1.422 1.422 0 00-2.008 0 1.422 1.422 0 000 2.008 1.422 1.422 0 002.008 0c.266-.266.414-.629.414-1.004zm9 21c0-.375-.148-.738-.414-1.004a1.422 1.422 0 00-2.008 0 1.422 1.422 0 000 2.008 1.422 1.422 0 002.008 0c.266-.266.414-.629.414-1.004zm8 0c0-.375-.148-.738-.414-1.004a1.422 1.422 0 00-2.008 0 1.422 1.422 0 000 2.008 1.422 1.422 0 002.008 0c.266-.266.414-.629.414-1.004zm0 0" fill-rule="evenodd" fill="#1c8f6b"/><path d="M120.418 185c0-.375-.148-.738-.414-1.004a1.422 1.422 0 00-2.008 0 1.422 1.422 0 000 2.008 1.422 1.422 0 002.008 0c.266-.266.414-.629.414-1.004zm9-27c0-.375-.148-.738-.414-1.004a1.422 1.422 0 00-2.008 0 1.422 1.422 0 000 2.008 1.422 1.422 0 002.008 0c.266-.266.414-.629.414-1.004zm8 8c0-.375-.148-.738-.414-1.004a1.422 1.422 0 00-2.008 0 1.422 1.422 0 000 2.008 1.422 1.422 0 002.008 0c.266-.266.414-.629.414-1.004zm9-23c0-.375-.148-.738-.414-1.004a1.422 1.422 0 00-2.008 0 1.422 1.422 0 000 2.008 1.422 1.422 0 002.008 0c.266-.266.414-.629.414-1.004zm9-7c0-.375-.148-.738-.414-1.004a1.422 1.422 0 00-2.008 0 1.422 1.422 0 000 2.008 1.422 1.422 0 002.008 0c.266-.266.414-.629.414-1.004zm8-5c0-.375-.148-.738-.414-1.004a1.422 1.422 0 00-2.008 0 1.422 1.422 0 000 2.008 1.422 1.422 0 002.008 0c.266-.266.414-.629.414-1.004zm9 0c0-.375-.148-.738-.414-1.004a1.422 1.422 0 00-2.008 0 1.422 1.422 0 000 2.008 1.422 1.422 0 002.008 0c.266-.266.414-.629.414-1.004zm9-6c0-.375-.148-.738-.414-1.004a1.422 1.422 0 00-2.008 0 1.422 1.422 0 000 2.008 1.422 1.422 0 002.008 0c.266-.266.414-.629.414-1.004zm8 6c0-.375-.148-.738-.414-1.004a1.422 1.422 0 00-2.008 0 1.422 1.422 0 000 2.008 1.422 1.422 0 002.008 0c.266-.266.414-.629.414-1.004zm9-5c0-.375-.148-.738-.414-1.004a1.422 1.422 0 00-2.008 0 1.422 1.422 0 000 2.008 1.422 1.422 0 002.008 0c.266-.266.414-.629.414-1.004zm9 5c0-.375-.148-.738-.414-1.004a1.422 1.422 0 00-2.008 0 1.422 1.422 0 000 2.008 1.422 1.422 0 002.008 0c.266-.266.414-.629.414-1.004zm8 1c0-.375-.148-.738-.414-1.004a1.422 1.422 0 00-2.008 0 1.422 1.422 0 000 2.008 1.422 1.422 0 002.008 0c.266-.266.414-.629.414-1.004zm9 1c0-.375-.148-.738-.414-1.004a1.422 1.422 0 00-2.008 0 1.422 1.422 0 000 2.008 1.422 1.422 0 002.008 0c.266-.266.414-.629.414-1.004zm9-2c0-.375-.148-.738-.414-1.004a1.422 1.422 0 00-2.008 0 1.422 1.422 0 000 2.008 1.422 1.422 0 002.008 0c.266-.266.414-.629.414-1.004zm8-3c0-.375-.148-.738-.414-1.004a1.422 1.422 0 00-2.008 0 1.422 1.422 0 000 2.008 1.422 1.422 0 002.008 0c.266-.266.414-.629.414-1.004zm9-8c0-.375-.148-.738-.414-1.004a1.422 1.422 0 00-2.008 0 1.422 1.422 0 000 2.008 1.422 1.422 0 002.008 0c.266-.266.414-.629.414-1.004zm9 4c0-.375-.148-.738-.414-1.004a1.422 1.422 0 00-2.008 0 1.422 1.422 0 000 2.008 1.422 1.422 0 002.008 0c.266-.266.414-.629.414-1.004zm8 4c0-.375-.148-.738-.414-1.004a1.422 1.422 0 00-2.008 0 1.422 1.422 0 000 2.008 1.422 1.422 0 002.008 0c.266-.266.414-.629.414-1.004zm9 0c0-.375-.148-.738-.414-1.004a1.422 1.422 0 00-2.008 0 1.422 1.422 0 000 2.008 1.422 1.422 0 002.008 0c.266-.266.414-.629.414-1.004zm8 3c0-.375-.148-.738-.414-1.004a1.422 1.422 0 00-2.008 0 1.422 1.422 0 000 2.008 1.422 1.422 0 002.008 0c.266-.266.414-.629.414-1.004zm9-2c0-.375-.148-.738-.414-1.004a1.422 1.422 0 00-2.008 0 1.422 1.422 0 000 2.008 1.422 1.422 0 002.008 0c.266-.266.414-.629.414-1.004zm9 15c0-.375-.148-.738-.414-1.004a1.422 1.422 0 00-2.008 0 1.422 1.422 0 000 2.008 1.422 1.422 0 002.008 0c.266-.266.414-.629.414-1.004zm8 4c0-.375-.148-.738-.414-1.004a1.422 1.422 0 00-2.008 0 1.422 1.422 0 000 2.008 1.422 1.422 0 002.008 0c.266-.266.414-.629.414-1.004zm9-7c0-.375-.148-.738-.414-1.004a1.422 1.422 0 00-2.008 0 1.422 1.422 0 000 2.008 1.422 1.422 0 002.008 0c.266-.266.414-.629.414-1.004zm9 3c0-.375-.148-.738-.414-1.004a1.422 1.422 0 00-2.008 0 1.422 1.422 0 000 2.008 1.422 1.422 0 002.008 0c.266-.266.414-.629.414-1.004zm8 8c0-.375-.148-.738-.414-1.004a1.422 1.422 0 00-2.008 0 1.422 1.422 0 000 2.008 1.422 1.422 0 002.008 0c.266-.266.414-.629.414-1.004zm9 9c0-.375-.148-.738-.414-1.004a1.422 1.422 0 00-2.008 0 1.422 1.422 0 000 2.008 1.422 1.422 0 002.008 0c.266-.266.414-.629.414-1.004zm9 12c0-.375-.148-.738-.414-1.004a1.422 1.422 0 00-2.008 0 1.422 1.422 0 000 2.008 1.422 1.422 0 002.008 0c.266-.266.414-.629.414-1.004zm8 12c0-.375-.148-.738-.414-1.004a1.422 1.422 0 00-2.008 0 1.422 1.422 0 000 2.008 1.422 1.422 0 002.008 0c.266-.266.414-.629.414-1.004zm0 0" fill-rule="evenodd" fill="#a54f05"/><path d="M103.418 185c0-.375-.148-.738-.414-1.004a1.422 1.422 0 00-2.008 0 1.422 1.422 0 000 2.008 1.422 1.422 0 002.008 0c.266-.266.414-.629.414-1.004zm9-51c0-.375-.148-.738-.414-1.004a1.422 1.422 0 00-2.008 0 1.422 1.422 0 000 2.008 1.422 1.422 0 002.008 0c.266-.266.414-.629.414-1.004zm8-13c0-.375-.148-.738-.414-1.004a1.422 1.422 0 00-2.008 0 1.422 1.422 0 000 2.008 1.422 1.422 0 002.008 0c.266-.266.414-.629.414-1.004zm9-8c0-.375-.148-.738-.414-1.004a1.422 1.422 0 00-2.008 0 1.422 1.422 0 000 2.008 1.422 1.422 0 002.008 0c.266-.266.414-.629.414-1.004zm8-17c0-.375-.148-.738-.414-1.004a1.422 1.422 0 00-2.008 0 1.422 1.422 0 000 2.008 1.422 1.422 0 002.008 0c.266-.266.414-.629.414-1.004zm9-6c0-.375-.148-.738-.414-1.004a1.422 1.422 0 00-2.008 0 1.422 1.422 0 000 2.008 1.422 1.422 0 002.008 0c.266-.266.414-.629.414-1.004zm9-5c0-.375-.148-.738-.414-1.004a1.422 1.422 0 00-2.008 0 1.422 1.422 0 000 2.008 1.422 1.422 0 002.008 0c.266-.266.414-.629.414-1.004zm8-2c0-.375-.148-.738-.414-1.004a1.422 1.422 0 00-2.008 0 1.422 1.422 0 000 2.008 1.422 1.422 0 002.008 0c.266-.266.414-.629.414-1.004zm9-2c0-.375-.148-.738-.414-1.004a1.422 1.422 0 00-2.008 0 1.422 1.422 0 000 2.008 1.422 1.422 0 002.008 0c.266-.266.414-.629.414-1.004zm9-5c0-.375-.148-.738-.414-1.004a1.422 1.422 0 00-2.008 0 1.422 1.422 0 000 2.008 1.422 1.422 0 002.008 0c.266-.266.414-.629.414-1.004zm8-2c0-.375-.148-.738-.414-1.004a1.422 1.422 0 00-2.008 0 1.422 1.422 0 000 2.008 1.422 1.422 0 002.008 0c.266-.266.414-.629.414-1.004zm9-2c0-.375-.148-.738-.414-1.004a1.422 1.422 0 00-2.008 0 1.422 1.422 0 000 2.008 1.422 1.422 0 002.008 0c.266-.266.414-.629.414-1.004zm9 0c0-.375-.148-.738-.414-1.004a1.422 1.422 0 00-2.008 0 1.422 1.422 0 000 2.008 1.422 1.422 0 002.008 0c.266-.266.414-.629.414-1.004zm8 3c0-.375-.148-.738-.414-1.004a1.422 1.422 0 00-2.008 0 1.422 1.422 0 000 2.008 1.422 1.422 0 002.008 0c.266-.266.414-.629.414-1.004zm9-2c0-.375-.148-.738-.414-1.004a1.422 1.422 0 00-2.008 0 1.422 1.422 0 000 2.008 1.422 1.422 0 002.008 0c.266-.266.414-.629.414-1.004zm9-3c0-.375-.148-.738-.414-1.004a1.422 1.422 0 00-2.008 0 1.422 1.422 0 000 2.008 1.422 1.422 0 002.008 0c.266-.266.414-.629.414-1.004zm8 3c0-.375-.148-.738-.414-1.004a1.422 1.422 0 00-2.008 0 1.422 1.422 0 000 2.008 1.422 1.422 0 002.008 0c.266-.266.414-.629.414-1.004zm9 1c0-.375-.148-.738-.414-1.004a1.422 1.422 0 00-2.008 0 1.422 1.422 0 000 2.008 1.422 1.422 0 002.008 0c.266-.266.414-.629.414-1.004zm9 0c0-.375-.148-.738-.414-1.004a1.422 1.422 0 00-2.008 0 1.422 1.422 0 000 2.008 1.422 1.422 0 002.008 0c.266-.266.414-.629.414-1.004zm8 3c0-.375-.148-.738-.414-1.004a1.422 1.422 0 00-2.008 0 1.422 1.422 0 000 2.008 1.422 1.422 0 002.008 0c.266-.266.414-.629.414-1.004zm9 2c0-.375-.148-.738-.414-1.004a1.422 1.422 0 00-2.008 0 1.422 1.422 0 000 2.008 1.422 1.422 0 002.008 0c.266-.266.414-.629.414-1.004zm8 3c0-.375-.148-.738-.414-1.004a1.422 1.422 0 00-2.008 0 1.422 1.422 0 000 2.008 1.422 1.422 0 002.008 0c.266-.266.414-.629.414-1.004zm9 2c0-.375-.148-.738-.414-1.004a1.422 1.422 0 00-2.008 0 1.422 1.422 0 000 2.008 1.422 1.422 0 002.008 0c.266-.266.414-.629.414-1.004zm9 0c0-.375-.148-.738-.414-1.004a1.422 1.422 0 00-2.008 0 1.422 1.422 0 000 2.008 1.422 1.422 0 002.008 0c.266-.266.414-.629.414-1.004zm8 4c0-.375-.148-.738-.414-1.004a1.422 1.422 0 00-2.008 0 1.422 1.422 0 000 2.008 1.422 1.422 0 002.008 0c.266-.266.414-.629.414-1.004zm9 2c0-.375-.148-.738-.414-1.004a1.422 1.422 0 00-2.008 0 1.422 1.422 0 000 2.008 1.422 1.422 0 002.008 0c.266-.266.414-.629.414-1.004zm9 4c0-.375-.148-.738-.414-1.004a1.422 1.422 0 00-2.008 0 1.422 1.422 0 000 2.008 1.422 1.422 0 002.008 0c.266-.266.414-.629.414-1.004zm8 4c0-.375-.148-.738-.414-1.004a1.422 1.422 0 00-2.008 0 1.422 1.422 0 000 2.008 1.422 1.422 0 002.008 0c.266-.266.414-.629.414-1.004zm9 6c0-.375-.148-.738-.414-1.004a1.422 1.422 0 00-2.008 0 1.422 1.422 0 000 2.008 1.422 1.422 0 002.008 0c.266-.266.414-.629.414-1.004zm9 7c0-.375-.148-.738-.414-1.004a1.422 1.422 0 00-2.008 0 1.422 1.422 0 000 2.008 1.422 1.422 0 002.008 0c.266-.266.414-.629.414-1.004zm8 6c0-.375-.148-.738-.414-1.004a1.422 1.422 0 00-2.008 0 1.422 1.422 0 000 2.008 1.422 1.422 0 002.008 0c.266-.266.414-.629.414-1.004zm0 0" fill-rule="evenodd" fill="#6846c7"/><path d="M412.2 68.27h4.421l.145-.008.168-.024.195-.047.226-.086.266-.128.3-.184.349-.246.398-.324.45-.403.507-.5.57-.601.633-.711.707-.836.777-.969.86-1.105.933-1.246.997-1.36 1.054-1.46 1.098-1.536 1.133-1.598 1.156-1.636 1.172-1.657 1.176-1.66 1.168-1.644 1.148-1.602 1.125-1.55 1.086-1.473 1.039-1.38.98-1.265.91-1.129.84-.992.774-.855.71-.735.653-.617.602-.516.558-.421.52-.332.484-.262.457-.192.438-.136.418-.094.406-.055.402-.023.403-.012h4.925" fill="none" stroke-width="4" stroke-linejoin="round" stroke="#fff" stroke-opacity=".667" stroke-miterlimit="3.25"/><path d="M412.2 68.27h4.421l.145-.008.168-.024.195-.047.226-.086.266-.128.3-.184.349-.246.398-.324.45-.403.507-.5.57-.601.633-.711.707-.836.777-.969.86-1.105.933-1.246.997-1.36 1.054-1.46 1.098-1.536 1.133-1.598 1.156-1.636 1.172-1.657 1.176-1.66 1.168-1.644 1.148-1.602 1.125-1.55 1.086-1.473 1.039-1.38.98-1.265.91-1.129.84-.992.774-.855.71-.735.653-.617.602-.516.558-.421.52-.332.484-.262.457-.192.438-.136.418-.094.406-.055.402-.023.403-.012h4.925" fill="none" stroke-width="1.25" stroke-linecap="square" stroke="#aaa" stroke-miterlimit="3.25"/><path d="M476.938 27.16v15h-25v-15zm0 0" fill="#fff" fill-opacity=".667"/><use xlink:href="#a" x="454.437" y="37.161"/><use xlink:href="#b" x="464.437" y="37.161"/><path d="M412.2 66.668h4.335l.113-.004.13-.008.144-.031.168-.059.187-.097.215-.145.242-.203.278-.27.308-.347.348-.434.387-.527.43-.633.472-.75.523-.875.575-1.008.629-1.148.683-1.305.742-1.469.801-1.62.852-1.766.894-1.883.934-1.98.965-2.067.984-2.125 1.004-2.172 1.016-2.195 1.015-2.2 1.016-2.183 1.008-2.148.988-2.102.965-2.023.937-1.938.903-1.824.855-1.695.809-1.547.75-1.387.699-1.227.652-1.078.606-.937.562-.809.528-.691.488-.582.46-.477.434-.39.41-.305.391-.234.375-.176.363-.117.356-.079.348-.043.347-.02.352-.007h4.762" fill="none" stroke-width="4" stroke-linejoin="round" stroke="#fff" stroke-opacity=".667" stroke-miterlimit="3.25"/><path d="M412.2 66.668h4.335l.113-.004.13-.008.144-.031.168-.059.187-.097.215-.145.242-.203.278-.27.308-.347.348-.434.387-.527.43-.633.472-.75.523-.875.575-1.008.629-1.148.683-1.305.742-1.469.801-1.62.852-1.766.894-1.883.934-1.98.965-2.067.984-2.125 1.004-2.172 1.016-2.195 1.015-2.2 1.016-2.183 1.008-2.148.988-2.102.965-2.023.937-1.938.903-1.824.855-1.695.809-1.547.75-1.387.699-1.227.652-1.078.606-.937.562-.809.528-.691.488-.582.46-.477.434-.39.41-.305.391-.234.375-.176.363-.117.356-.079.348-.043.347-.02.352-.007h4.762" fill="none" stroke-width="1.25" stroke-linecap="square" stroke="#aaa" stroke-miterlimit="3.25"/><path d="M476.938 7.828v15h-25v-15zm0 0" fill="#fff" fill-opacity=".667"/><use xlink:href="#c" x="454.437" y="17.829"/><use xlink:href="#d" x="464.437" y="17.829"/><path d="M377.313 177.605h.003l.008-.007.028-.02.046-.031.07-.05.106-.079.145-.102.191-.136.242-.172.301-.215.367-.258.434-.308.512-.368.593-.422.684-.488.777-.554.883-.625.985-.704 1.101-.785 1.223-.867 1.347-.96 1.48-1.056 1.61-1.144 1.727-1.227 1.832-1.304 1.926-1.368 2.007-1.425 2.079-1.473 2.136-1.516 2.184-1.543 2.215-1.562 2.238-1.574 2.246-1.582 2.25-1.575 2.23-1.562 2.208-1.54 2.171-1.503 2.122-1.465 2.058-1.418 1.985-1.36 1.902-1.288 1.8-1.219 1.696-1.129 1.574-1.039 1.453-.941 1.336-.856 1.23-.773 1.126-.688 1.027-.613.938-.543.851-.477.774-.414.699-.355.629-.3.57-.25.516-.208.464-.168.422-.129.383-.097.356-.07.324-.052.308-.027.293-.02.29-.003h4.913" fill="none" stroke-width="4" stroke-linejoin="round" stroke="#fff" stroke-opacity=".667" stroke-miterlimit="3.25"/><path d="M377.313 177.605h.003l.008-.007.028-.02.046-.031.07-.05.106-.079.145-.102.191-.136.242-.172.301-.215.367-.258.434-.308.512-.368.593-.422.684-.488.777-.554.883-.625.985-.704 1.101-.785 1.223-.867 1.347-.96 1.48-1.056 1.61-1.144 1.727-1.227 1.832-1.304 1.926-1.368 2.007-1.425 2.079-1.473 2.136-1.516 2.184-1.543 2.215-1.562 2.238-1.574 2.246-1.582 2.25-1.575 2.23-1.562 2.208-1.54 2.171-1.503 2.122-1.465 2.058-1.418 1.985-1.36 1.902-1.288 1.8-1.219 1.696-1.129 1.574-1.039 1.453-.941 1.336-.856 1.23-.773 1.126-.688 1.027-.613.938-.543.851-.477.774-.414.699-.355.629-.3.57-.25.516-.208.464-.168.422-.129.383-.097.356-.07.324-.052.308-.027.293-.02.29-.003h4.913" fill="none" stroke-width="1.25" stroke-linecap="square" stroke="#aaa" stroke-miterlimit="3.25"/><path d="M476.938 124.098v15h-25v-15zm0 0" fill="#fff" fill-opacity=".667"/><use xlink:href="#e" x="454.437" y="134.096"/><use xlink:href="#f" x="464.437" y="134.096"/><path d="M368.668 157.703v-.004l.012-.008.02-.023.034-.04.055-.062.082-.09.11-.124.148-.168.187-.207.23-.258.282-.317.336-.375.395-.441.457-.512.527-.59.598-.672.68-.757.761-.852.848-.95.941-1.05 1.04-1.164 1.14-1.273 1.246-1.399 1.36-1.52 1.476-1.648 1.59-1.781 1.691-1.895 1.79-2 1.878-2.093 1.953-2.184 2.02-2.254 2.082-2.316 2.129-2.371 2.168-2.414 2.203-2.446 2.222-2.465 2.235-2.472 2.238-2.473 2.23-2.46 2.22-2.442 2.19-2.406 2.16-2.364 2.118-2.308 2.063-2.243 2.003-2.167 1.93-2.082 1.856-1.985 1.761-1.875 1.664-1.758 1.559-1.625 1.45-1.5 1.347-1.375 1.246-1.257 1.156-1.145 1.067-1.035.98-.934.902-.832.825-.746.757-.656.688-.578.629-.5.57-.43.52-.363.472-.305.43-.25.39-.2.356-.16.328-.117.301-.085.285-.059.266-.04.258-.019.253-.004.25-.003h4.625" fill="none" stroke-width="4" stroke-linejoin="round" stroke="#fff" stroke-opacity=".667" stroke-miterlimit="3.25"/><path d="M368.668 157.703v-.004l.012-.008.02-.023.034-.04.055-.062.082-.09.11-.124.148-.168.187-.207.23-.258.282-.317.336-.375.395-.441.457-.512.527-.59.598-.672.68-.757.761-.852.848-.95.941-1.05 1.04-1.164 1.14-1.273 1.246-1.399 1.36-1.52 1.476-1.648 1.59-1.781 1.691-1.895 1.79-2 1.878-2.093 1.953-2.184 2.02-2.254 2.082-2.316 2.129-2.371 2.168-2.414 2.203-2.446 2.222-2.465 2.235-2.472 2.238-2.473 2.23-2.46 2.22-2.442 2.19-2.406 2.16-2.364 2.118-2.308 2.063-2.243 2.003-2.167 1.93-2.082 1.856-1.985 1.761-1.875 1.664-1.758 1.559-1.625 1.45-1.5 1.347-1.375 1.246-1.257 1.156-1.145 1.067-1.035.98-.934.902-.832.825-.746.757-.656.688-.578.629-.5.57-.43.52-.363.472-.305.43-.25.39-.2.356-.16.328-.117.301-.085.285-.059.266-.04.258-.019.253-.004.25-.003h4.625" fill="none" stroke-width="1.25" stroke-linecap="square" stroke="#aaa" stroke-miterlimit="3.25"/><path d="M476.938 68.227v15h-25v-15zm0 0" fill="#fff" fill-opacity=".667"/><use xlink:href="#g" x="454.437" y="78.227"/><use xlink:href="#h" x="464.437" y="78.227"/><path d="M368.668 185.031h1.965l.57.004h1.442l.89.004h1.016l1.148.004 1.29.004h1.437l1.594.004 1.761.004 1.918.004 2.063.004 2.195.003 2.309.004 2.406.004 2.488.004 2.555.008 2.61.004 2.64.004 2.664.004 2.668.007 2.656.004 2.629.004 2.59.004 2.527.008 2.453.004 2.368.004 2.261.004 2.14.004 2.005.004 1.851.003 1.7.004h1.558l1.418.004h1.293l1.168.004h1.059l.953.004h2.304l.61.004h8.098" fill="none" stroke-width="4" stroke-linejoin="round" stroke="#fff" stroke-opacity=".667" stroke-miterlimit="3.25"/><path d="M368.668 185.031h1.965l.57.004h1.442l.89.004h1.016l1.148.004 1.29.004h1.437l1.594.004 1.761.004 1.918.004 2.063.004 2.195.003 2.309.004 2.406.004 2.488.004 2.555.008 2.61.004 2.64.004 2.664.004 2.668.007 2.656.004 2.629.004 2.59.004 2.527.008 2.453.004 2.368.004 2.261.004 2.14.004 2.005.004 1.851.003 1.7.004h1.558l1.418.004h1.293l1.168.004h1.059l.953.004h2.304l.61.004h8.098" fill="none" stroke-width="1.25" stroke-linecap="square" stroke="#aaa" stroke-miterlimit="3.25"/><path d="M476.938 177.668v15h-25v-15zm0 0" fill="#fff" fill-opacity=".667"/><use xlink:href="#i" x="454.437" y="187.669"/><use xlink:href="#j" x="464.437" y="187.669"/><path d="M385.957 220.68h.016l.03.004.063.004.11.007.156.012.223.02.293.023.379.027.472.036.574.046.692.051.816.063.953.074 1.098.086 1.254.097 1.426.11 1.597.12 1.77.138 1.926.148 2.058.156 2.168.168 2.266.176 2.336.176 2.387.183 2.421.184 2.438.184 2.43.183 2.398.18 2.356.18 2.289.168 2.203.164 2.093.152 1.97.14 1.823.133 1.66.114 1.504.105 1.36.09 1.219.078 1.093.07.98.055.872.05.773.04.688.035.613.024.543.02.488.015.442.011.406.004.379.004.36.004h5.116" fill="none" stroke-width="4" stroke-linejoin="round" stroke="#fff" stroke-opacity=".667" stroke-miterlimit="3.25"/><path d="M385.957 220.68h.016l.03.004.063.004.11.007.156.012.223.02.293.023.379.027.472.036.574.046.692.051.816.063.953.074 1.098.086 1.254.097 1.426.11 1.597.12 1.77.138 1.926.148 2.058.156 2.168.168 2.266.176 2.336.176 2.387.183 2.421.184 2.438.184 2.43.183 2.398.18 2.356.18 2.289.168 2.203.164 2.093.152 1.97.14 1.823.133 1.66.114 1.504.105 1.36.09 1.219.078 1.093.07.98.055.872.05.773.04.688.035.613.024.543.02.488.015.442.011.406.004.379.004.36.004h5.116" fill="none" stroke-width="1.25" stroke-linecap="square" stroke="#aaa" stroke-miterlimit="3.25"/><path d="M476.938 217.492v15h-25v-15zm0 0" fill="#fff" fill-opacity=".667"/><use xlink:href="#c" x="454.437" y="227.491"/><use xlink:href="#h" x="464.437" y="227.491"/><path d="M377.313 195.105h.007l.02.004.047.004.082.012.12.016.177.023.234.035.309.04.386.054.473.062.574.079.68.093.797.11.918.125 1.058.144 1.2.164 1.351.184 1.516.203 1.687.23 1.852.254 2 .27 2.133.293 2.25.305 2.343.316 2.422.328 2.485.336 2.527.34 2.555.344 2.562.347 2.55.34 2.528.336 2.48.332 2.419.317 2.34.308 2.242.293 2.125.277 1.992.254 1.844.235 1.683.21 1.531.188 1.395.164 1.258.149 1.137.129 1.02.109.913.098.817.078.726.066.649.055.574.043.515.035.457.023.418.02.38.012.35.007.337.004h5.18" fill="none" stroke-width="4" stroke-linejoin="round" stroke="#fff" stroke-opacity=".667" stroke-miterlimit="3.25"/><path d="M377.313 195.105h.007l.02.004.047.004.082.012.12.016.177.023.234.035.309.04.386.054.473.062.574.079.68.093.797.11.918.125 1.058.144 1.2.164 1.351.184 1.516.203 1.687.23 1.852.254 2 .27 2.133.293 2.25.305 2.343.316 2.422.328 2.485.336 2.527.34 2.555.344 2.562.347 2.55.34 2.528.336 2.48.332 2.419.317 2.34.308 2.242.293 2.125.277 1.992.254 1.844.235 1.683.21 1.531.188 1.395.164 1.258.149 1.137.129 1.02.109.913.098.817.078.726.066.649.055.574.043.515.035.457.023.418.02.38.012.35.007.337.004h5.18" fill="none" stroke-width="1.25" stroke-linecap="square" stroke="#aaa" stroke-miterlimit="3.25"/><path d="M476.938 196.402v15h-25v-15zm0 0" fill="#fff" fill-opacity=".667"/><use xlink:href="#k" x="454.437" y="206.402"/><use xlink:href="#l" x="464.437" y="206.402"/><path d="M368.668 185.031h1.965l.57.004h1.442l.89.004h1.016l1.148.004 1.29.004h1.437l1.594.004 1.761.004 1.918.004 2.063.004 2.195.003 2.309.004 2.406.004 2.488.004 2.555.008 2.61.004 2.64.004 2.664.004 2.668.007 2.656.004 2.629.004 2.59.004 2.527.008 2.453.004 2.368.004 2.261.004 2.14.004 2.005.004 1.851.003 1.7.004h1.558l1.418.004h1.293l1.168.004h1.059l.953.004h2.304l.61.004h8.098" fill="none" stroke-width="4" stroke-linejoin="round" stroke="#fff" stroke-opacity=".667" stroke-miterlimit="3.25"/><path d="M368.668 185.031h1.965l.57.004h1.442l.89.004h1.016l1.148.004 1.29.004h1.437l1.594.004 1.761.004 1.918.004 2.063.004 2.195.003 2.309.004 2.406.004 2.488.004 2.555.008 2.61.004 2.64.004 2.664.004 2.668.007 2.656.004 2.629.004 2.59.004 2.527.008 2.453.004 2.368.004 2.261.004 2.14.004 2.005.004 1.851.003 1.7.004h1.558l1.418.004h1.293l1.168.004h1.059l.953.004h2.304l.61.004h8.098" fill="none" stroke-width="1.25" stroke-linecap="square" stroke="#aaa" stroke-miterlimit="3.25"/><path d="M476.938 177.668v15h-25v-15zm0 0" fill="#fff" fill-opacity=".667"/><use xlink:href="#i" x="454.437" y="187.669"/><use xlink:href="#j" x="464.437" y="187.669"/><path d="M368.668 173.262v-.004l.008-.004.015-.016.036-.027.058-.047.086-.07.121-.098.156-.129.207-.168.254-.21.313-.255.371-.304.441-.364.516-.418.594-.488.68-.555.765-.628.867-.707.965-.793 1.074-.88 1.188-.968 1.305-1.07 1.43-1.168 1.558-1.278 1.683-1.379 1.805-1.476 1.906-1.559 2-1.637 2.086-1.703 2.16-1.757 2.22-1.813 2.273-1.848 2.308-1.879 2.34-1.898 2.36-1.91 2.363-1.914 2.363-1.906 2.348-1.891 2.32-1.863 2.285-1.832 2.238-1.786 2.18-1.734 2.11-1.668 2.03-1.601 1.942-1.516 1.836-1.43 1.727-1.328 1.605-1.222 1.484-1.118 1.375-1.02 1.266-.925 1.164-.832 1.07-.75.977-.668.89-.594.813-.52.738-.452.668-.391.602-.332.547-.281.496-.23.445-.188.403-.149.37-.113.337-.082.312-.059.29-.035.276-.023.27-.008.266-.004h4.714" fill="none" stroke-width="4" stroke-linejoin="round" stroke="#fff" stroke-opacity=".667" stroke-miterlimit="3.25"/><path d="M368.668 173.262v-.004l.008-.004.015-.016.036-.027.058-.047.086-.07.121-.098.156-.129.207-.168.254-.21.313-.255.371-.304.441-.364.516-.418.594-.488.68-.555.765-.628.867-.707.965-.793 1.074-.88 1.188-.968 1.305-1.07 1.43-1.168 1.558-1.278 1.683-1.379 1.805-1.476 1.906-1.559 2-1.637 2.086-1.703 2.16-1.757 2.22-1.813 2.273-1.848 2.308-1.879 2.34-1.898 2.36-1.91 2.363-1.914 2.363-1.906 2.348-1.891 2.32-1.863 2.285-1.832 2.238-1.786 2.18-1.734 2.11-1.668 2.03-1.601 1.942-1.516 1.836-1.43 1.727-1.328 1.605-1.222 1.484-1.118 1.375-1.02 1.266-.925 1.164-.832 1.07-.75.977-.668.89-.594.813-.52.738-.452.668-.391.602-.332.547-.281.496-.23.445-.188.403-.149.37-.113.337-.082.312-.059.29-.035.276-.023.27-.008.266-.004h4.714" fill="none" stroke-width="1.25" stroke-linecap="square" stroke="#aaa" stroke-miterlimit="3.25"/><path d="M476.938 105.79v15h-25v-15zm0 0" fill="#fff" fill-opacity=".667"/><use xlink:href="#j" x="454.437" y="115.79"/><use xlink:href="#m" x="464.437" y="115.79"/><path d="M368.668 173.262v-.004l.008-.004.015-.016.036-.027.058-.047.086-.07.121-.098.156-.129.207-.168.254-.21.313-.255.371-.304.441-.364.516-.418.594-.488.68-.555.765-.628.867-.707.965-.793 1.074-.88 1.188-.968 1.305-1.07 1.43-1.168 1.558-1.278 1.683-1.379 1.805-1.476 1.906-1.559 2-1.637 2.086-1.703 2.16-1.757 2.22-1.813 2.273-1.848 2.308-1.879 2.34-1.898 2.36-1.91 2.363-1.914 2.363-1.906 2.348-1.891 2.32-1.863 2.285-1.832 2.238-1.786 2.18-1.734 2.11-1.668 2.03-1.601 1.942-1.516 1.836-1.43 1.727-1.328 1.605-1.222 1.484-1.118 1.375-1.02 1.266-.925 1.164-.832 1.07-.75.977-.668.89-.594.813-.52.738-.452.668-.391.602-.332.547-.281.496-.23.445-.188.403-.149.37-.113.337-.082.312-.059.29-.035.276-.023.27-.008.266-.004h4.714" fill="none" stroke-width="4" stroke-linejoin="round" stroke="#fff" stroke-opacity=".667" stroke-miterlimit="3.25"/><path d="M368.668 173.262v-.004l.008-.004.015-.016.036-.027.058-.047.086-.07.121-.098.156-.129.207-.168.254-.21.313-.255.371-.304.441-.364.516-.418.594-.488.68-.555.765-.628.867-.707.965-.793 1.074-.88 1.188-.968 1.305-1.07 1.43-1.168 1.558-1.278 1.683-1.379 1.805-1.476 1.906-1.559 2-1.637 2.086-1.703 2.16-1.757 2.22-1.813 2.273-1.848 2.308-1.879 2.34-1.898 2.36-1.91 2.363-1.914 2.363-1.906 2.348-1.891 2.32-1.863 2.285-1.832 2.238-1.786 2.18-1.734 2.11-1.668 2.03-1.601 1.942-1.516 1.836-1.43 1.727-1.328 1.605-1.222 1.484-1.118 1.375-1.02 1.266-.925 1.164-.832 1.07-.75.977-.668.89-.594.813-.52.738-.452.668-.391.602-.332.547-.281.496-.23.445-.188.403-.149.37-.113.337-.082.312-.059.29-.035.276-.023.27-.008.266-.004h4.714" fill="none" stroke-width="1.25" stroke-linecap="square" stroke="#aaa" stroke-miterlimit="3.25"/><path d="M476.938 105.79v15h-25v-15zm0 0" fill="#fff" fill-opacity=".667"/><use xlink:href="#j" x="454.437" y="115.79"/><use xlink:href="#m" x="464.437" y="115.79"/><path d="M368.668 185.031h1.965l.57.004h1.442l.89.004h1.016l1.148.004 1.29.004h1.437l1.594.004 1.761.004 1.918.004 2.063.004 2.195.003 2.309.004 2.406.004 2.488.004 2.555.008 2.61.004 2.64.004 2.664.004 2.668.007 2.656.004 2.629.004 2.59.004 2.527.008 2.453.004 2.368.004 2.261.004 2.14.004 2.005.004 1.851.003 1.7.004h1.558l1.418.004h1.293l1.168.004h1.059l.953.004h2.304l.61.004h8.098" fill="none" stroke-width="4" stroke-linejoin="round" stroke="#fff" stroke-opacity=".667" stroke-miterlimit="3.25"/><path d="M368.668 185.031h1.965l.57.004h1.442l.89.004h1.016l1.148.004 1.29.004h1.437l1.594.004 1.761.004 1.918.004 2.063.004 2.195.003 2.309.004 2.406.004 2.488.004 2.555.008 2.61.004 2.64.004 2.664.004 2.668.007 2.656.004 2.629.004 2.59.004 2.527.008 2.453.004 2.368.004 2.261.004 2.14.004 2.005.004 1.851.003 1.7.004h1.558l1.418.004h1.293l1.168.004h1.059l.953.004h2.304l.61.004h8.098" fill="none" stroke-width="1.25" stroke-linecap="square" stroke="#aaa" stroke-miterlimit="3.25"/><path d="M476.938 177.668v15h-25v-15zm0 0" fill="#fff" fill-opacity=".667"/><use xlink:href="#i" x="454.437" y="187.669"/><use xlink:href="#j" x="464.437" y="187.669"/><path d="M377.313 129.273l.015-.015.024-.028.039-.046.062-.07.086-.102.117-.133.153-.176.191-.219.238-.273.285-.328.34-.387.399-.457.457-.527.527-.602.598-.687.676-.774.757-.867.84-.965.93-1.066 1.027-1.176 1.125-1.29 1.23-1.41 1.337-1.53 1.441-1.657 1.543-1.761 1.629-1.868 1.707-1.957 1.781-2.035 1.84-2.101 1.898-2.164 1.938-2.211 1.977-2.25 2.003-2.278 2.02-2.289 2.031-2.3 2.031-2.294 2.024-2.28 2.008-2.255 1.98-2.218 1.945-2.172 1.903-2.114 1.851-2.046 1.79-1.97 1.718-1.882 1.64-1.781 1.552-1.676 1.457-1.55 1.359-1.43 1.262-1.31 1.168-1.194 1.082-1.086.996-.98.922-.884.847-.789.774-.699.71-.617.65-.54.593-.468.543-.398.492-.34.45-.278.41-.23.374-.184.348-.14.32-.106.297-.074.282-.05.27-.028.26-.016.259-.004h4.796" fill="none" stroke-width="4" stroke-linejoin="round" stroke="#fff" stroke-opacity=".667" stroke-miterlimit="3.25"/><path d="M377.313 129.273l.015-.015.024-.028.039-.046.062-.07.086-.102.117-.133.153-.176.191-.219.238-.273.285-.328.34-.387.399-.457.457-.527.527-.602.598-.687.676-.774.757-.867.84-.965.93-1.066 1.027-1.176 1.125-1.29 1.23-1.41 1.337-1.53 1.441-1.657 1.543-1.761 1.629-1.868 1.707-1.957 1.781-2.035 1.84-2.101 1.898-2.164 1.938-2.211 1.977-2.25 2.003-2.278 2.02-2.289 2.031-2.3 2.031-2.294 2.024-2.28 2.008-2.255 1.98-2.218 1.945-2.172 1.903-2.114 1.851-2.046 1.79-1.97 1.718-1.882 1.64-1.781 1.552-1.676 1.457-1.55 1.359-1.43 1.262-1.31 1.168-1.194 1.082-1.086.996-.98.922-.884.847-.789.774-.699.71-.617.65-.54.593-.468.543-.398.492-.34.45-.278.41-.23.374-.184.348-.14.32-.106.297-.074.282-.05.27-.028.26-.016.259-.004h4.796" fill="none" stroke-width="1.25" stroke-linecap="square" stroke="#aaa" stroke-miterlimit="3.25"/><path d="M496.938 47.691v15h-45v-15zm0 0" fill="#fff" fill-opacity=".667"/><use xlink:href="#c" x="454.437" y="57.69"/><use xlink:href="#d" x="464.437" y="57.69"/><use xlink:href="#n" x="474.437" y="57.69"/><use xlink:href="#o" x="484.437" y="57.69"/><path d="M412.2 236.32H25m0 0V4m0 0h387.2m0 0v232.32" fill="none" stroke-width=".5" stroke-linecap="square" stroke="#666" stroke-miterlimit="3.25"/><path d="M50.031 236.32v-5.379" fill="none" stroke-width=".5" stroke="#666" stroke-miterlimit="3.25"/><g fill="#666"><use xlink:href="#p" x="35.533" y="248.32"/><use xlink:href="#q" x="41.051" y="248.32"/><use xlink:href="#r" x="46.49" y="248.32"/></g><g fill="#666"><use xlink:href="#s" x="53.533" y="248.32"/><use xlink:href="#t" x="59.148" y="248.32"/></g><path d="M171.055 236.32v-5.379" fill="none" stroke-width=".5" stroke="#666" stroke-miterlimit="3.25"/><g fill="#666"><use xlink:href="#p" x="156.555" y="248.32"/><use xlink:href="#q" x="162.073" y="248.32"/><use xlink:href="#r" x="167.512" y="248.32"/></g><g fill="#666"><use xlink:href="#u" x="174.555" y="248.32"/><use xlink:href="#v" x="180.171" y="248.32"/></g><path d="M292.078 236.32v-5.379" fill="none" stroke-width=".5" stroke="#666" stroke-miterlimit="3.25"/><g fill="#666"><use xlink:href="#w" x="277.578" y="248.32"/><use xlink:href="#x" x="283.105" y="248.32"/><use xlink:href="#y" x="288.403" y="248.32"/></g><g fill="#666"><use xlink:href="#s" x="295.578" y="248.32"/><use xlink:href="#z" x="301.193" y="248.32"/></g><path d="M25 224.125h3.871" fill="none" stroke-width=".1" stroke="#666" stroke-miterlimit="3.25"/><g fill="#666"><use xlink:href="#z" x="8" y="226.627"/><use xlink:href="#A" x="13.615" y="226.627"/><use xlink:href="#s" x="16.247" y="226.627"/></g><path d="M25 185.031h3.871" fill="none" stroke-width=".1" stroke="#666" stroke-miterlimit="3.25"/><use xlink:href="#s" x="16" y="187.529" fill="#666"/><path d="M25 145.934h3.871" fill="none" stroke-width=".1" stroke="#666" stroke-miterlimit="3.25"/><g fill="#666"><use xlink:href="#s" x="11" y="148.432"/><use xlink:href="#z" x="16.615" y="148.432"/></g><path d="M25 106.836h3.871" fill="none" stroke-width=".1" stroke="#666" stroke-miterlimit="3.25"/><g fill="#666"><use xlink:href="#s" x="5" y="109.335"/><use xlink:href="#z" x="10.615" y="109.335"/><use xlink:href="#z" x="16.23" y="109.335"/></g><path d="M25 67.738h3.871" fill="none" stroke-width=".1" stroke="#666" stroke-miterlimit="3.25"/><g fill="#666"><use xlink:href="#s" y="70.237"/><use xlink:href="#z" x="5.615" y="70.237"/><use xlink:href="#z" x="11.23" y="70.237"/><use xlink:href="#z" x="16.846" y="70.237"/></g><path d="M25 28.64h3.871" fill="none" stroke-width=".1" stroke="#666" stroke-miterlimit="3.25"/><g fill="#666"><use xlink:href="#s" x="5" y="32.64"/><use xlink:href="#z" x="10.615" y="32.64"/></g><use xlink:href="#B" x="16" y="28.64" fill="#666"/><path d="M25 235.895h2.398M25 232.8h2.398M25 230.184h2.398M25 227.914h2.398m-2.398-2h2.398M25 212.355h2.398M25 205.473h2.398M25 200.586h2.398M25 196.8h2.398M25 193.703h2.398M25 191.086h2.398M25 188.816h2.398M25 186.82h2.398M25 173.262h2.398M25 166.375h2.398M25 161.492h2.398M25 157.703h2.398M25 154.605h2.398M25 151.988h2.398M25 149.723h2.398m-2.398-2h2.398M25 134.164h2.398M25 127.277h2.398M25 122.395h2.398M25 118.605h2.398M25 115.508h2.398M25 112.89h2.398M25 110.625h2.398m-2.398-2h2.398M25 95.066h2.398M25 88.18h2.398M25 83.297h2.398M25 79.508h2.398M25 76.41h2.398M25 73.793h2.398M25 71.527h2.398m-2.398-2h2.398M25 55.969h2.398M25 49.082h2.398M25 44.2h2.398M25 40.41h2.398M25 37.313h2.398M25 34.695h2.398M25 32.43h2.398m-2.398-2h2.398M25 16.871h2.398M25 9.984h2.398M25 5.102h2.398" fill="none" stroke-width=".1" stroke="#666" stroke-miterlimit="3.25"/><path d="M50.031 4v5.379M171.055 4v5.379M292.078 4v5.379" fill="none" stroke-width=".5" stroke="#666" stroke-miterlimit="3.25"/><path d="M412.2 224.125h-3.872m3.872-39.094h-3.872m3.872-39.097h-3.872m3.872-39.098h-3.872m3.872-39.098h-3.872M412.2 28.64h-3.872m3.872 207.255h-2.4m2.4-3.095h-2.4m2.4-2.616h-2.4m2.4-2.27h-2.4m2.4-2h-2.4m2.4-13.559h-2.4m2.4-6.882h-2.4m2.4-4.887h-2.4m2.4-3.786h-2.4m2.4-3.097h-2.4m2.4-2.617h-2.4m2.4-2.27h-2.4m2.4-1.996h-2.4m2.4-13.558h-2.4m2.4-6.887h-2.4m2.4-4.883h-2.4m2.4-3.789h-2.4m2.4-3.098h-2.4m2.4-2.617h-2.4m2.4-2.265h-2.4m2.4-2h-2.4m2.4-13.559h-2.4m2.4-6.887h-2.4m2.4-4.882h-2.4m2.4-3.79h-2.4m2.4-3.097h-2.4m2.4-2.618h-2.4m2.4-2.265h-2.4m2.4-2h-2.4m2.4-13.559h-2.4m2.4-6.886h-2.4m2.4-4.883h-2.4m2.4-3.789h-2.4m2.4-3.098h-2.4m2.4-2.617h-2.4m2.4-2.266h-2.4m2.4-2h-2.4m2.4-13.558h-2.4m2.4-6.887h-2.4m2.4-4.882h-2.4m2.4-3.79h-2.4m2.4-3.097h-2.4m2.4-2.618h-2.4m2.4-2.265h-2.4m2.4-2h-2.4m2.4-13.559h-2.4m2.4-6.887h-2.4m2.4-4.882h-2.4" fill="none" stroke-width=".1" stroke="#666" stroke-miterlimit="3.25"/></svg>