<svg xmlns="http://www.w3.org/2000/svg" xmlns:xlink="http://www.w3.org/1999/xlink" width="500pt" height="404" viewBox="0 0 500 303"><defs><clipPath id="a"><path d="M33 4h2v282h-2zm0 0"/></clipPath><clipPath id="b"><path d="M43 4h2v282h-2zm0 0"/></clipPath><clipPath id="c"><path d="M52 4h2v282h-2zm0 0"/></clipPath><clipPath id="d"><path d="M61 4h2v282h-2zm0 0"/></clipPath><clipPath id="e"><path d="M70 4h2v282h-2zm0 0"/></clipPath><clipPath id="f"><path d="M79 4h2v282h-2zm0 0"/></clipPath><clipPath id="g"><path d="M89 4h2v282h-2zm0 0"/></clipPath><clipPath id="h"><path d="M98 4h2v282h-2zm0 0"/></clipPath><clipPath id="i"><path d="M107 4h2v282h-2zm0 0"/></clipPath><clipPath id="j"><path d="M116 4h2v282h-2zm0 0"/></clipPath><clipPath id="k"><path d="M125 4h2v282h-2zm0 0"/></clipPath><clipPath id="l"><path d="M135 4h2v282h-2zm0 0"/></clipPath><clipPath id="m"><path d="M144 4h2v282h-2zm0 0"/></clipPath><clipPath id="n"><path d="M153 4h2v282h-2zm0 0"/></clipPath><clipPath id="o"><path d="M162 4h2v282h-2zm0 0"/></clipPath><clipPath id="p"><path d="M172 4h2v282h-2zm0 0"/></clipPath><clipPath id="q"><path d="M181 4h2v282h-2zm0 0"/></clipPath><clipPath id="r"><path d="M190 4h2v282h-2zm0 0"/></clipPath><clipPath id="s"><path d="M199 4h2v282h-2zm0 0"/></clipPath><clipPath id="t"><path d="M208 4h2v282h-2zm0 0"/></clipPath><clipPath id="u"><path d="M218 4h2v282h-2zm0 0"/></clipPath><clipPath id="v"><path d="M227 4h2v282h-2zm0 0"/></clipPath><clipPath id="w"><path d="M236 4h2v282h-2zm0 0"/></clipPath><clipPath id="x"><path d="M245 4h2v282h-2zm0 0"/></clipPath><clipPath id="y"><path d="M254 4h2v282h-2zm0 0"/></clipPath><clipPath id="z"><path d="M264 4h2v282h-2zm0 0"/></clipPath><clipPath id="A"><path d="M273 4h2v282h-2zm0 0"/></clipPath><clipPath id="B"><path d="M282 4h2v282h-2zm0 0"/></clipPath><clipPath id="C"><path d="M291 4h2v282h-2zm0 0"/></clipPath><clipPath id="D"><path d="M300 4h2v282h-2zm0 0"/></clipPath><clipPath id="E"><path d="M310 4h2v282h-2zm0 0"/></clipPath><clipPath id="F"><path d="M319 4h2v282h-2zm0 0"/></clipPath><clipPath id="G"><path d="M328 4h2v282h-2zm0 0"/></clipPath><clipPath id="H"><path d="M337 4h2v282h-2zm0 0"/></clipPath><clipPath id="I"><path d="M346 4h2v282h-2zm0 0"/></clipPath><clipPath id="J"><path d="M356 4h2v282h-2zm0 0"/></clipPath><clipPath id="K"><path d="M365 4h2v282h-2zm0 0"/></clipPath><clipPath id="L"><path d="M374 4h2v282h-2zm0 0"/></clipPath><clipPath id="M"><path d="M383 4h2v282h-2zm0 0"/></clipPath><clipPath id="N"><path d="M393 4h2v282h-2zm0 0"/></clipPath><clipPath id="O"><path d="M402 4h2v282h-2zm0 0"/></clipPath><clipPath id="P"><path d="M411 4h2v282h-2zm0 0"/></clipPath><clipPath id="Q"><path d="M420 4h2v282h-2zm0 0"/></clipPath><clipPath id="R"><path d="M429 4h2v282h-2zm0 0"/></clipPath><clipPath id="S"><path d="M439 4h2v282h-2zm0 0"/></clipPath><clipPath id="T"><path d="M448 4h2v282h-2zm0 0"/></clipPath><clipPath id="U"><path d="M457 4h2v282h-2zm0 0"/></clipPath><clipPath id="V"><path d="M466 4h2v282h-2zm0 0"/></clipPath><clipPath id="W"><path d="M475 4h2v282h-2zm0 0"/></clipPath><clipPath id="X"><path d="M485 4h2v282h-2zm0 0"/></clipPath><clipPath id="Y"><path d="M494 4h1v282h-1zm0 0"/></clipPath><clipPath id="Z"><path d="M25 274h470v2H25zm0 0"/></clipPath><clipPath id="aa"><path d="M25 234h470v2H25zm0 0"/></clipPath><clipPath id="ab"><path d="M25 193h470v2H25zm0 0"/></clipPath><clipPath id="ac"><path d="M25 153h470v2H25zm0 0"/></clipPath><clipPath id="ad"><path d="M25 113h470v2H25zm0 0"/></clipPath><clipPath id="ae"><path d="M25 72h470v2H25zm0 0"/></clipPath><clipPath id="af"><path d="M25 32h470v2H25zm0 0"/></clipPath><symbol overflow="visible" id="ag"><path d="M3.805-7.11h.941v5.036c0 .68-.203 1.21-.613 1.597-.406.383-.953.575-1.633.575-.707 0-1.258-.18-1.648-.543-.395-.36-.594-.867-.594-1.516h.937c0 .406.114.723.336.95.223.23.547.343.969.343.387 0 .7-.121.941-.367.239-.246.36-.586.364-1.028zm0 0"/></symbol><symbol overflow="visible" id="ah"><path d="M3.945 0c-.05-.105-.093-.29-.125-.555-.422.434-.922.653-1.507.653-.52 0-.946-.149-1.282-.442a1.438 1.438 0 01-.5-1.12c0-.552.211-.977.63-1.282.417-.305 1.007-.457 1.765-.457h.879v-.414c0-.317-.094-.567-.285-.754-.188-.188-.465-.281-.833-.281-.324 0-.593.082-.812.242-.219.164-.328.36-.328.59H.64c0-.262.093-.516.28-.762.188-.246.442-.441.763-.582.32-.145.671-.219 1.054-.219.61 0 1.086.153 1.434.457.344.305.523.727.535 1.258v2.434c0 .484.063.87.184 1.156V0zm-1.5-.688c.285 0 .555-.074.805-.218a1.35 1.35 0 00.555-.574v-1.083h-.711c-1.106 0-1.656.325-1.656.97 0 .284.093.507.28.663.188.16.43.243.727.243zm0 0"/></symbol><symbol overflow="visible" id="ai"><path d="M1.54-5.281l.026.664a1.93 1.93 0 011.582-.766c1.118 0 1.68.633 1.692 1.89V0h-.902v-3.496c-.004-.379-.094-.664-.262-.844-.172-.183-.438-.273-.801-.273-.293 0-.55.078-.77.234a1.59 1.59 0 00-.52.613V0h-.9v-5.281zm0 0"/></symbol><symbol overflow="visible" id="aj"><path d="M3.559 0h-.907v-6.02l-1.824.668v-.82l2.59-.973h.14zm0 0"/></symbol><symbol overflow="visible" id="ak"><path d="M1.906-3.992h.676c.426-.008.762-.121 1.008-.34.242-.219.363-.512.363-.883 0-.832-.414-1.25-1.242-1.25-.39 0-.703.113-.938.336-.23.223-.347.516-.347.887H.523c0-.563.204-1.031.618-1.406.41-.372.933-.559 1.57-.559.672 0 1.195.176 1.578.531.379.356.57.848.57 1.48 0 .31-.101.61-.3.9a1.81 1.81 0 01-.817.648c.39.125.692.328.903.617.214.285.32.636.32 1.047 0 .64-.207 1.144-.625 1.52-.418.374-.957.562-1.625.562s-1.211-.18-1.63-.543c-.417-.36-.624-.836-.624-1.43h.906c0 .375.121.672.367.898.243.227.57.336.98.336.438 0 .77-.113 1-.34.231-.23.349-.554.349-.98 0-.414-.125-.734-.383-.953-.254-.223-.618-.336-1.098-.344h-.676zm0 0"/></symbol><symbol overflow="visible" id="al"><path d="M5.25 0H.59v-.648l2.46-2.735c.364-.414.618-.75.755-1.008.14-.257.21-.527.21-.804 0-.371-.113-.676-.34-.914-.222-.239-.523-.356-.898-.356-.449 0-.797.13-1.047.383-.25.254-.37.613-.37 1.066H.452c0-.652.211-1.183.633-1.586.422-.402.984-.605 1.691-.605.66 0 1.184.172 1.567.52.386.347.578.808.578 1.382 0 .703-.445 1.535-1.336 2.5L1.68-.738h3.57zm0 0"/></symbol><symbol overflow="visible" id="am"><path d="M5.18-6.602L2.234 0H1.29l2.934-6.367H.375v-.742H5.18zm0 0"/></symbol><symbol overflow="visible" id="an"><path d="M4.746-3.14H1.762V0H.824v-7.11H5.23v.774H1.762v2.43h2.984zm0 0"/></symbol><symbol overflow="visible" id="ao"><path d="M2.875.098c-.715 0-1.297-.235-1.746-.707-.45-.47-.676-1.098-.676-1.887v-.164c0-.524.102-.992.3-1.406.2-.41.481-.735.84-.965.36-.235.75-.352 1.173-.352.687 0 1.218.227 1.601.68.38.453.57 1.101.57 1.945v.375H1.36c.012.52.164.942.454 1.262.292.32.664.48 1.113.48.316 0 .59-.062.808-.195.223-.129.414-.3.582-.516l.551.43c-.441.68-1.105 1.02-1.992 1.02zm-.11-4.739a1.21 1.21 0 00-.921.399c-.246.265-.399.64-.457 1.117H4.03v-.07c-.023-.457-.148-.813-.367-1.067-.223-.25-.523-.379-.898-.379zm0 0"/></symbol><symbol overflow="visible" id="ap"><path d="M5.156-2.582c0 .809-.187 1.453-.554 1.945-.372.489-.872.735-1.497.735-.667 0-1.183-.235-1.546-.707L1.516 0H.684v-7.5h.902v2.797c.367-.453.867-.68 1.508-.68.64 0 1.148.246 1.511.73.368.485.551 1.15.551 1.993zm-.902-.106c0-.613-.121-1.09-.356-1.421-.238-.336-.582-.504-1.027-.504-.598 0-1.023.277-1.285.828V-1.5c.277.555.71.832 1.297.832.43 0 .77-.168 1.008-.504.242-.336.363-.84.363-1.516zm0 0"/></symbol><symbol overflow="visible" id="aq"><path d="M5.047-3.031c0 1.058-.18 1.844-.54 2.36-.362.51-.925.769-1.694.769-.758 0-1.32-.25-1.684-.754C.766-1.16.574-1.91.562-2.91v-1.207c0-1.043.18-1.82.54-2.328.363-.508.93-.762 1.703-.762.765 0 1.328.246 1.687.734.36.489.547 1.246.555 2.27zm-.902-1.235c0-.765-.106-1.324-.32-1.675-.216-.348-.555-.524-1.02-.524-.465 0-.801.176-1.012.524-.211.347-.32.882-.328 1.605v1.445c0 .77.113 1.336.336 1.704.222.367.558.546 1.012.546.445 0 .777-.171.992-.515.218-.344.332-.89.34-1.633zm0 0"/></symbol><symbol overflow="visible" id="ar"><path d="M4.406-2.387h.985v.739h-.985V0h-.91v-1.648H.258v-.536L3.44-7.109h.965zm-3.12 0h2.21v-3.488l-.105.195zm0 0"/></symbol><symbol overflow="visible" id="as"><path d="M.703-.473c0-.156.047-.289.14-.39.095-.106.231-.157.415-.157.187 0 .328.051.426.157a.567.567 0 01.144.39c0 .149-.05.274-.144.375-.098.102-.239.153-.426.153-.184 0-.324-.051-.414-.153a.532.532 0 01-.14-.375zm0 0"/></symbol><symbol overflow="visible" id="at"><path d="M3.965-2.148h.887v.664h-.887V0h-.817v-1.484H.234v-.48l2.864-4.434h.867zm-2.809 0h1.992v-3.137l-.097.176zm0 0"/></symbol></defs><g clip-path="url(#a)"><path d="M34.398 4v282" fill="none" stroke="#666" stroke-opacity=".5" stroke-dasharray="1,2" stroke-miterlimit="3.25"/></g><g clip-path="url(#b)"><path d="M43.61 4v282" fill="none" stroke="#666" stroke-opacity=".5" stroke-dasharray="1,2" stroke-miterlimit="3.25"/></g><g clip-path="url(#c)"><path d="M52.816 4v282" fill="none" stroke="#666" stroke-opacity=".5" stroke-dasharray="1,2" stroke-miterlimit="3.25"/></g><g clip-path="url(#d)"><path d="M62.023 4v282" fill="none" stroke="#666" stroke-opacity=".5" stroke-dasharray="1,2" stroke-miterlimit="3.25"/></g><g clip-path="url(#e)"><path d="M71.234 4v282" fill="none" stroke="#666" stroke-opacity=".5" stroke-dasharray="1,2" stroke-miterlimit="3.25"/></g><g clip-path="url(#f)"><path d="M80.441 4v282" fill="none" stroke="#666" stroke-opacity=".5" stroke-dasharray="1,2" stroke-miterlimit="3.25"/></g><g clip-path="url(#g)"><path d="M89.648 4v282" fill="none" stroke="#666" stroke-opacity=".5" stroke-dasharray="1,2" stroke-miterlimit="3.25"/></g><g clip-path="url(#h)"><path d="M98.855 4v282" fill="none" stroke="#666" stroke-opacity=".5" stroke-dasharray="1,2" stroke-miterlimit="3.25"/></g><g clip-path="url(#i)"><path d="M108.066 4v282" fill="none" stroke="#666" stroke-opacity=".5" stroke-dasharray="1,2" stroke-miterlimit="3.25"/></g><g clip-path="url(#j)"><path d="M117.273 4v282" fill="none" stroke="#666" stroke-opacity=".5" stroke-dasharray="1,2" stroke-miterlimit="3.25"/></g><g clip-path="url(#k)"><path d="M126.48 4v282" fill="none" stroke="#666" stroke-opacity=".5" stroke-dasharray="1,2" stroke-miterlimit="3.25"/></g><g clip-path="url(#l)"><path d="M135.691 4v282" fill="none" stroke="#666" stroke-opacity=".5" stroke-dasharray="1,2" stroke-miterlimit="3.25"/></g><g clip-path="url(#m)"><path d="M144.898 4v282" fill="none" stroke="#666" stroke-opacity=".5" stroke-dasharray="1,2" stroke-miterlimit="3.25"/></g><g clip-path="url(#n)"><path d="M154.105 4v282" fill="none" stroke="#666" stroke-opacity=".5" stroke-dasharray="1,2" stroke-miterlimit="3.25"/></g><g clip-path="url(#o)"><path d="M163.313 4v282" fill="none" stroke="#666" stroke-opacity=".5" stroke-dasharray="1,2" stroke-miterlimit="3.25"/></g><g clip-path="url(#p)"><path d="M172.523 4v282" fill="none" stroke="#666" stroke-opacity=".5" stroke-dasharray="1,2" stroke-miterlimit="3.25"/></g><g clip-path="url(#q)"><path d="M181.73 4v282" fill="none" stroke="#666" stroke-opacity=".5" stroke-dasharray="1,2" stroke-miterlimit="3.25"/></g><g clip-path="url(#r)"><path d="M190.938 4v282" fill="none" stroke="#666" stroke-opacity=".5" stroke-dasharray="1,2" stroke-miterlimit="3.25"/></g><g clip-path="url(#s)"><path d="M200.148 4v282" fill="none" stroke="#666" stroke-opacity=".5" stroke-dasharray="1,2" stroke-miterlimit="3.25"/></g><g clip-path="url(#t)"><path d="M209.355 4v282" fill="none" stroke="#666" stroke-opacity=".5" stroke-dasharray="1,2" stroke-miterlimit="3.25"/></g><g clip-path="url(#u)"><path d="M218.563 4v282" fill="none" stroke="#666" stroke-opacity=".5" stroke-dasharray="1,2" stroke-miterlimit="3.25"/></g><g clip-path="url(#v)"><path d="M227.77 4v282" fill="none" stroke="#666" stroke-opacity=".5" stroke-dasharray="1,2" stroke-miterlimit="3.25"/></g><g clip-path="url(#w)"><path d="M236.98 4v282" fill="none" stroke="#666" stroke-opacity=".5" stroke-dasharray="1,2" stroke-miterlimit="3.25"/></g><g clip-path="url(#x)"><path d="M246.188 4v282" fill="none" stroke="#666" stroke-opacity=".5" stroke-dasharray="1,2" stroke-miterlimit="3.25"/></g><g clip-path="url(#y)"><path d="M255.395 4v282" fill="none" stroke="#666" stroke-opacity=".5" stroke-dasharray="1,2" stroke-miterlimit="3.25"/></g><g clip-path="url(#z)"><path d="M264.605 4v282" fill="none" stroke="#666" stroke-opacity=".5" stroke-dasharray="1,2" stroke-miterlimit="3.25"/></g><g clip-path="url(#A)"><path d="M273.813 4v282" fill="none" stroke="#666" stroke-opacity=".5" stroke-dasharray="1,2" stroke-miterlimit="3.25"/></g><g clip-path="url(#B)"><path d="M283.02 4v282" fill="none" stroke="#666" stroke-opacity=".5" stroke-dasharray="1,2" stroke-miterlimit="3.25"/></g><g clip-path="url(#C)"><path d="M292.23 4v282" fill="none" stroke="#666" stroke-opacity=".5" stroke-dasharray="1,2" stroke-miterlimit="3.25"/></g><g clip-path="url(#D)"><path d="M301.438 4v282" fill="none" stroke="#666" stroke-opacity=".5" stroke-dasharray="1,2" stroke-miterlimit="3.25"/></g><g clip-path="url(#E)"><path d="M310.645 4v282" fill="none" stroke="#666" stroke-opacity=".5" stroke-dasharray="1,2" stroke-miterlimit="3.25"/></g><g clip-path="url(#F)"><path d="M319.852 4v282" fill="none" stroke="#666" stroke-opacity=".5" stroke-dasharray="1,2" stroke-miterlimit="3.25"/></g><g clip-path="url(#G)"><path d="M329.063 4v282" fill="none" stroke="#666" stroke-opacity=".5" stroke-dasharray="1,2" stroke-miterlimit="3.25"/></g><g clip-path="url(#H)"><path d="M338.27 4v282" fill="none" stroke="#666" stroke-opacity=".5" stroke-dasharray="1,2" stroke-miterlimit="3.25"/></g><g clip-path="url(#I)"><path d="M347.477 4v282" fill="none" stroke="#666" stroke-opacity=".5" stroke-dasharray="1,2" stroke-miterlimit="3.25"/></g><g clip-path="url(#J)"><path d="M356.688 4v282" fill="none" stroke="#666" stroke-opacity=".5" stroke-dasharray="1,2" stroke-miterlimit="3.25"/></g><g clip-path="url(#K)"><path d="M365.895 4v282" fill="none" stroke="#666" stroke-opacity=".5" stroke-dasharray="1,2" stroke-miterlimit="3.25"/></g><g clip-path="url(#L)"><path d="M375.102 4v282" fill="none" stroke="#666" stroke-opacity=".5" stroke-dasharray="1,2" stroke-miterlimit="3.25"/></g><g clip-path="url(#M)"><path d="M384.309 4v282" fill="none" stroke="#666" stroke-opacity=".5" stroke-dasharray="1,2" stroke-miterlimit="3.25"/></g><g clip-path="url(#N)"><path d="M393.52 4v282" fill="none" stroke="#666" stroke-opacity=".5" stroke-dasharray="1,2" stroke-miterlimit="3.25"/></g><g clip-path="url(#O)"><path d="M402.727 4v282" fill="none" stroke="#666" stroke-opacity=".5" stroke-dasharray="1,2" stroke-miterlimit="3.25"/></g><g clip-path="url(#P)"><path d="M411.934 4v282" fill="none" stroke="#666" stroke-opacity=".5" stroke-dasharray="1,2" stroke-miterlimit="3.25"/></g><g clip-path="url(#Q)"><path d="M421.145 4v282" fill="none" stroke="#666" stroke-opacity=".5" stroke-dasharray="1,2" stroke-miterlimit="3.25"/></g><g clip-path="url(#R)"><path d="M430.352 4v282" fill="none" stroke="#666" stroke-opacity=".5" stroke-dasharray="1,2" stroke-miterlimit="3.25"/></g><g clip-path="url(#S)"><path d="M439.559 4v282" fill="none" stroke="#666" stroke-opacity=".5" stroke-dasharray="1,2" stroke-miterlimit="3.25"/></g><g clip-path="url(#T)"><path d="M448.766 4v282" fill="none" stroke="#666" stroke-opacity=".5" stroke-dasharray="1,2" stroke-miterlimit="3.25"/></g><g clip-path="url(#U)"><path d="M457.977 4v282" fill="none" stroke="#666" stroke-opacity=".5" stroke-dasharray="1,2" stroke-miterlimit="3.25"/></g><g clip-path="url(#V)"><path d="M467.184 4v282" fill="none" stroke="#666" stroke-opacity=".5" stroke-dasharray="1,2" stroke-miterlimit="3.25"/></g><g clip-path="url(#W)"><path d="M476.39 4v282" fill="none" stroke="#666" stroke-opacity=".5" stroke-dasharray="1,2" stroke-miterlimit="3.25"/></g><g clip-path="url(#X)"><path d="M485.602 4v282" fill="none" stroke="#666" stroke-opacity=".5" stroke-dasharray="1,2" stroke-miterlimit="3.25"/></g><g clip-path="url(#Y)"><path d="M494.809 4v282" fill="none" stroke="#666" stroke-opacity=".5" stroke-dasharray="1,2" stroke-miterlimit="3.25"/></g><g clip-path="url(#Z)"><path d="M25 274.871h470" fill="none" stroke="#666" stroke-opacity=".5" stroke-dasharray="1,2" stroke-miterlimit="3.25"/></g><g clip-path="url(#aa)"><path d="M25 234.531h470" fill="none" stroke="#666" stroke-opacity=".5" stroke-dasharray="1,2" stroke-miterlimit="3.25"/></g><g clip-path="url(#ab)"><path d="M25 194.195h470" fill="none" stroke="#666" stroke-opacity=".5" stroke-dasharray="1,2" stroke-miterlimit="3.25"/></g><g clip-path="url(#ac)"><path d="M25 153.855h470" fill="none" stroke="#666" stroke-opacity=".5" stroke-dasharray="1,2" stroke-miterlimit="3.25"/></g><g clip-path="url(#ad)"><path d="M25 113.52h470" fill="none" stroke="#666" stroke-opacity=".5" stroke-dasharray="1,2" stroke-miterlimit="3.25"/></g><g clip-path="url(#ae)"><path d="M25 73.184h470" fill="none" stroke="#666" stroke-opacity=".5" stroke-dasharray="1,2" stroke-miterlimit="3.25"/></g><g clip-path="url(#af)"><path d="M25 32.844h470" fill="none" stroke="#666" stroke-opacity=".5" stroke-dasharray="1,2" stroke-miterlimit="3.25"/></g><path d="M439.559 85.047l9.207-14.238 9.21-4.145 9.208-1.687 9.207-.758 9.21-.352" fill="none" stroke-width="1.6" stroke-linecap="square" stroke="#a60000" stroke-opacity=".3" stroke-miterlimit="3.25"/><path d="M439.559 85.36l9.207-12.837 9.21-3.535 9.208-1.328 9.207-.539 9.21-.23" fill="none" stroke-width="1.6" stroke-linecap="square" stroke="#0d86a0" stroke-opacity=".3" stroke-miterlimit="3.25"/><path d="M439.559 182.05l9.207-2.878 9.21-.336 9.208-.328 9.207-.32 9.21-.317" fill="none" stroke-width="1.6" stroke-linecap="square" stroke="#c05c20" stroke-opacity=".3" stroke-miterlimit="3.25"/><path d="M448.766 267.016h36.836" fill="none" stroke-width="1.6" stroke-linecap="square" stroke="#3664cc" stroke-opacity=".3" stroke-miterlimit="3.25"/><path d="M448.766 144.793h36.836" fill="none" stroke-width="1.6" stroke-linecap="square" stroke="#833987" stroke-opacity=".3" stroke-miterlimit="3.25"/><path d="M439.559 194.195l9.207-3.906 9.21-.316 9.208-.309 9.207-.305 9.21-.3" fill="none" stroke-width="1.6" stroke-linecap="square" stroke="#a54f05" stroke-opacity=".3" stroke-miterlimit="3.25"/><path d="M439.559 155.703l9.207-.394 9.21-.383 9.208-.38 9.207-.366 9.21-.364" fill="none" stroke-width="1.6" stroke-linecap="square" stroke="#6846c7" stroke-opacity=".3" stroke-miterlimit="3.25"/><path d="M80.441 169.91l9.207-25.347 9.207-21.801 9.211-4.89 9.207-2.892 9.207-8.445 9.211 2.254 9.207-11.941 9.207-9.442 9.208-7.672 9.21-1.949 9.207-14.617 9.208 3.395 9.21-3.055 9.207-2.309 9.208-1.031 9.207-3.656 9.21-1.547 9.208-2.352 9.207-3.215 9.21.891 9.207 2.832 9.208-1.371 9.21 4.32 9.207-2.492 9.208 3.664 9.207 3.668 9.21-34.097 9.208 17.863 9.207 11.492 9.21 4.793 9.208-.336 9.207 1.441 9.207 1.32 9.21 13.274 9.208-1.418 9.207 14.125 9.21-8.586 9.208 8.063 9.207-3.797" fill="none" stroke-width="1.6" stroke-linecap="square" stroke="#a60000" stroke-miterlimit="3.25"/><path d="M80.441 169.91l9.207-25.347 9.207-21.801 9.211-4.664 9.207 1.175 9.207-6.609 9.211 7.356 9.207-7.356 9.207-9.441 9.208-10.243 9.21-2.43 9.207-21.843 9.208 7.531 9.21-3.61 9.207-2.929 9.208-1.734 9.207-6.219 9.21-1.586 9.208-1.91 9.207-5.203 9.21.965 9.207 3.492 9.208-2.613 9.21 4.906 9.207-3.477 9.208 3.89 9.207 4.33 9.21-37.333 9.208 18.41 9.207 12.082 9.21 4.774 9.208-.836 9.207 1.18 9.207 1.14 9.21 13.691 9.208 3.602 9.207 9.54 9.21-9.513 9.208 8.043 9.207-3.96" fill="none" stroke-width="1.6" stroke-linecap="square" stroke="#0d86a0" stroke-miterlimit="3.25"/><path d="M108.066 194.195l9.207-44.933 9.207 1.402 9.211 12.14 9.207-21.945 9.207-3.054 9.208 3.91 9.21-15.336 9.207 2.336 9.208-4.074 9.21-4.871 9.207-2.774 9.208-7.664 9.207 7.242 9.21 1.074 9.208-6.425 9.207 7.808 9.21-.238h9.207l9.208 4.574 9.21 4.14 9.207 6.528 9.208 3.082 9.207-8.402 9.21 11.328 9.208 1.672 9.207-8.774 9.21 7.102 9.208 22.762h9.207l9.207 12.144 9.21 19.246h9.208l9.207-31.39 9.21 12.144h9.208l9.207 7.102" fill="none" stroke-width="1.6" stroke-linecap="square" stroke="#c05c20" stroke-miterlimit="3.25"/><path d="M126.48 194.195l9.211-24.285h9.207l9.207-30.644 9.208-13.95 9.21 2.192 9.207 2.062 9.208.899 9.21-11.196 9.207-.48 9.208.977 9.207-.25 9.21-.489 9.208-7.023 9.207 3.555 9.21.398 9.207 5.652 9.208-1.078 9.21 4.106 9.207 4.93 9.208 3.91 9.207 1.128 9.21-2.191 9.208 14.336 9.207-10.934 9.21 6.793 9.208 4.14 9.207 5.435L384.309 166l9.21 3.91 9.208 12.14 9.207-7.1h9.21l9.208 19.245" fill="none" stroke-width="1.6" stroke-linecap="square" stroke="#6f42b5" stroke-miterlimit="3.25"/><path d="M126.48 166h9.211l9.207-33.059 9.207 9.672 9.208-13.898 9.21 9.805 9.207-11.012 9.208-17.613 9.21-1.239 9.207 3.352 9.208 9.887h9.207l9.21-.282 9.208-8.949 9.207 8.133 9.21 1.965 9.207 2.215 9.208 3.738 9.21 7.742 9.207-1.254 9.208 2.602 9.207 10.156h9.21l9.208 5.894 9.207 6.25 9.21 5.895 9.208 3.91 9.207 24.285h9.207l9.21-12.144 9.208-46.23 9.207 46.23" fill="none" stroke-width="1.6" stroke-linecap="square" stroke="#769003" stroke-miterlimit="3.25"/><path d="M126.48 194.195l9.211-36.43 9.207-11.011 9.207-4.14 9.208-5.497 9.21-3.082 9.207-5.73 9.208-10.434 9.21 5.805 9.207.316 9.208-.625 9.207-4.574 9.21 4.27 9.208-3.79 9.207 1.004 9.21 5.387 9.207-3.484 9.208 11.855 9.21-2.125 9.207-2.77 9.208 3.801 9.207-.523 9.21 7.625 9.208 1.672 9.207 7.547 9.21 25.687 9.208 7.102 9.207 12.144h9.207l9.21-12.144 9.208 12.144 9.207-12.144 9.21-7.102" fill="none" stroke-width="1.6" stroke-linecap="square" stroke="#a8364d" stroke-miterlimit="3.25"/><path d="M135.691 194.195l9.207-46.234 9.207-9.441 9.208 2.34 9.21 12.995 9.207-22.437 9.208-4.297 9.21-.742 9.207 4.558 9.208-8.468 9.207 5.836 9.21-8.028 9.208-1.004 9.207 6.391 9.21-3.484 9.207-3.387 9.208 1.484 9.21 6.844 9.207-1.805 9.208 9.293 9.207.594 9.21 5.656 9.208-2.34 9.207 7.106 9.21 5.04 9.208 1.523 9.207 3.515 9.207 14.207 9.21 24.285h18.415" fill="none" stroke-width="1.6" stroke-linecap="square" stroke="#3664cc" stroke-miterlimit="3.25"/><path d="M126.48 182.05l9.211 12.145 9.207-24.285 9.207-17.722 9.208-8.63 9.21 7.106 9.207-12.144 9.208-7.583 9.21-6.296 9.207-6.543 9.208 8.648h9.207l9.21-3.984 9.208-6.395 9.207 2.906 9.21 5.704 9.207-2.797 9.208 8.757 9.21-2.222 9.207 4.765h9.208l9.207-3.91 9.21 6.25h9.208l9.207 13.442 9.21 1.402L365.896 166l9.207 8.95 9.207 19.245h9.21" fill="none" stroke-width="1.6" stroke-linecap="square" stroke="#c8860a" stroke-miterlimit="3.25"/><path d="M126.48 194.195L135.691 166l9.207 8.95 9.207-24.286 9.208-7.105 9.21-5.04h9.207l9.208-6.101 9.21 6.102 9.207-5.579 9.208 5.579 9.207.746 9.21 1.593 9.208-2.34 9.207-2.699 9.21-8.312 9.207 3.91 9.208 4.402h9.21l9.207 2.7 9.208-2.063 9.207 15.73 9.21 3.516 9.208-6.441 9.207 2.925 9.21 7.918 9.208 9.805 9.207 12.14 9.207 12.145 9.21-12.144 9.208-80.848 9.207 80.848 9.21-12.14 9.208 24.284" fill="none" stroke-width="1.6" stroke-linecap="square" stroke="#833987" stroke-miterlimit="3.25"/><path d="M135.691 194.195l9.207-36.43 9.207-2.062 9.208-6.441 9.21-3.637 9.207-6.36 9.208-4.062 9.21-.594 9.207-4.593 9.208 2.402h9.207l9.21-.508 9.208-.972 9.207 2.003 9.21.54 9.207-1.57 9.208 2.124 9.21 1.168 9.207 3.317 9.208.746 9.207-3.446 9.21.637 9.208 2.809 9.207 12.922 9.21-2.926 9.208 6.441 9.207 19.246 9.207 7.102" fill="none" stroke-width="1.6" stroke-linecap="square" stroke="#1c8f6b" stroke-miterlimit="3.25"/><path d="M126.48 166l9.211 3.91 9.207-26.351 9.207-8.95 9.208 8.95 9.21-11.649 9.207 8.133 9.208 6.71 9.21-3.194 9.207-14.418 9.208 4.34 9.207 5.039 9.21-8.051 9.208.469 9.207 4.265 9.21 4.063 9.207.777 9.208 6.71 9.21-5.038 9.207-1.672 9.208 3.516 9.207-.946 9.21 6.649 9.208 2.925 9.207 5.579 9.21 2.34h9.208l9.207 21.945h9.207l9.21-16.051 9.208-5.895 9.207 5.895 9.21 28.195 9.208-12.144 9.207 12.144" fill="none" stroke-width="1.6" stroke-linecap="square" stroke="#a54f05" stroke-miterlimit="3.25"/><path d="M108.066 194.195l9.207-52.48 9.207-13.813 9.211-8.132 9.207-16.934 9.207-6.848 9.208-4.515 9.21-2.926 9.207-1.723 9.208-4.781 9.21-2.738 9.207-1.246 9.208.023 9.207 2.219 9.21-1.508 9.208-3.39 9.207 3.124 9.21.703 9.207.707 9.208 2.938 9.21 2.242 9.207 2.367 9.208 2.602 9.207.14 9.21 3.587 9.208 2.37 9.207 3.602 9.21 4.961 9.208 6.172 9.207 6.512 9.207 6.246 9.21 3.832 9.208-30.594 9.207 37.121 9.21 7.68 9.208 8.95 9.207 5.038" fill="none" stroke-width="1.6" stroke-linecap="square" stroke="#6846c7" stroke-miterlimit="3.25"/><path d="M441.723 85A1.72 1.72 0 00440 83.277 1.72 1.72 0 00438.277 85 1.72 1.72 0 00440 86.723 1.72 1.72 0 00441.723 85zm9-14A1.72 1.72 0 00449 69.277 1.72 1.72 0 00447.277 71 1.72 1.72 0 00449 72.723 1.72 1.72 0 00450.723 71zm9-4A1.72 1.72 0 00458 65.277 1.72 1.72 0 00456.277 67 1.72 1.72 0 00458 68.723 1.72 1.72 0 00459.723 67zm9-2A1.72 1.72 0 00467 63.277 1.72 1.72 0 00465.277 65 1.72 1.72 0 00467 66.723 1.72 1.72 0 00468.723 65zm9-1A1.72 1.72 0 00476 62.277 1.72 1.72 0 00474.277 64 1.72 1.72 0 00476 65.723 1.72 1.72 0 00477.723 64zm10 0A1.72 1.72 0 00486 62.277 1.72 1.72 0 00484.277 64 1.72 1.72 0 00486 65.723 1.72 1.72 0 00487.723 64zm0 0" fill-rule="evenodd" fill="#a60000" fill-opacity=".3"/><path d="M441.723 85A1.72 1.72 0 00440 83.277 1.72 1.72 0 00438.277 85 1.72 1.72 0 00440 86.723 1.72 1.72 0 00441.723 85zm9-12A1.72 1.72 0 00449 71.277 1.72 1.72 0 00447.277 73 1.72 1.72 0 00449 74.723 1.72 1.72 0 00450.723 73zm9-4A1.72 1.72 0 00458 67.277 1.72 1.72 0 00456.277 69 1.72 1.72 0 00458 70.723 1.72 1.72 0 00459.723 69zm9-1A1.72 1.72 0 00467 66.277 1.72 1.72 0 00465.277 68 1.72 1.72 0 00467 69.723 1.72 1.72 0 00468.723 68zm9-1A1.72 1.72 0 00476 65.277 1.72 1.72 0 00474.277 67 1.72 1.72 0 00476 68.723 1.72 1.72 0 00477.723 67zm10 0A1.72 1.72 0 00486 65.277 1.72 1.72 0 00484.277 67 1.72 1.72 0 00486 68.723 1.72 1.72 0 00487.723 67zm0 0" fill-rule="evenodd" fill="#0d86a0" fill-opacity=".3"/><path d="M441.723 182a1.72 1.72 0 00-1.723-1.723 1.72 1.72 0 00-1.723 1.723 1.72 1.72 0 001.723 1.723 1.72 1.72 0 001.723-1.723zm9-3a1.72 1.72 0 00-1.723-1.723 1.72 1.72 0 00-1.723 1.723 1.72 1.72 0 001.723 1.723 1.72 1.72 0 001.723-1.723zm9 0a1.72 1.72 0 00-1.723-1.723 1.72 1.72 0 00-1.723 1.723 1.72 1.72 0 001.723 1.723 1.72 1.72 0 001.723-1.723zm9 0a1.72 1.72 0 00-1.723-1.723 1.72 1.72 0 00-1.723 1.723 1.72 1.72 0 001.723 1.723 1.72 1.72 0 001.723-1.723zm9-1a1.72 1.72 0 00-1.723-1.723 1.72 1.72 0 00-1.723 1.723 1.72 1.72 0 001.723 1.723 1.72 1.72 0 001.723-1.723zm10 0a1.72 1.72 0 00-1.723-1.723 1.72 1.72 0 00-1.723 1.723 1.72 1.72 0 001.723 1.723 1.72 1.72 0 001.723-1.723zm0 0" fill-rule="evenodd" fill="#c05c20" fill-opacity=".3"/><path d="M450.723 267a1.72 1.72 0 00-1.723-1.723 1.72 1.72 0 00-1.723 1.723 1.72 1.72 0 001.723 1.723 1.72 1.72 0 001.723-1.723zm9 0a1.72 1.72 0 00-1.723-1.723 1.72 1.72 0 00-1.723 1.723 1.72 1.72 0 001.723 1.723 1.72 1.72 0 001.723-1.723zm9 0a1.72 1.72 0 00-1.723-1.723 1.72 1.72 0 00-1.723 1.723 1.72 1.72 0 001.723 1.723 1.72 1.72 0 001.723-1.723zm9 0a1.72 1.72 0 00-1.723-1.723 1.72 1.72 0 00-1.723 1.723 1.72 1.72 0 001.723 1.723 1.72 1.72 0 001.723-1.723zm10 0a1.72 1.72 0 00-1.723-1.723 1.72 1.72 0 00-1.723 1.723 1.72 1.72 0 001.723 1.723 1.72 1.72 0 001.723-1.723zm0 0" fill-rule="evenodd" fill="#3664cc" fill-opacity=".3"/><path d="M450.723 145a1.72 1.72 0 00-1.723-1.723 1.72 1.72 0 00-1.723 1.723 1.72 1.72 0 001.723 1.723 1.72 1.72 0 001.723-1.723zm9 0a1.72 1.72 0 00-1.723-1.723 1.72 1.72 0 00-1.723 1.723 1.72 1.72 0 001.723 1.723 1.72 1.72 0 001.723-1.723zm9 0a1.72 1.72 0 00-1.723-1.723 1.72 1.72 0 00-1.723 1.723 1.72 1.72 0 001.723 1.723 1.72 1.72 0 001.723-1.723zm9 0a1.72 1.72 0 00-1.723-1.723 1.72 1.72 0 00-1.723 1.723 1.72 1.72 0 001.723 1.723 1.72 1.72 0 001.723-1.723zm10 0a1.72 1.72 0 00-1.723-1.723 1.72 1.72 0 00-1.723 1.723 1.72 1.72 0 001.723 1.723 1.72 1.72 0 001.723-1.723zm0 0" fill-rule="evenodd" fill="#833987" fill-opacity=".3"/><path d="M441.723 194a1.72 1.72 0 00-1.723-1.723 1.72 1.72 0 00-1.723 1.723 1.72 1.72 0 001.723 1.723 1.72 1.72 0 001.723-1.723zm9-4a1.72 1.72 0 00-1.723-1.723 1.72 1.72 0 00-1.723 1.723 1.72 1.72 0 001.723 1.723 1.72 1.72 0 001.723-1.723zm9 0a1.72 1.72 0 00-1.723-1.723 1.72 1.72 0 00-1.723 1.723 1.72 1.72 0 001.723 1.723 1.72 1.72 0 001.723-1.723zm9 0a1.72 1.72 0 00-1.723-1.723 1.72 1.72 0 00-1.723 1.723 1.72 1.72 0 001.723 1.723 1.72 1.72 0 001.723-1.723zm9-1a1.72 1.72 0 00-1.723-1.723 1.72 1.72 0 00-1.723 1.723 1.72 1.72 0 001.723 1.723 1.72 1.72 0 001.723-1.723zm10 0a1.72 1.72 0 00-1.723-1.723 1.72 1.72 0 00-1.723 1.723 1.72 1.72 0 001.723 1.723 1.72 1.72 0 001.723-1.723zm0 0" fill-rule="evenodd" fill="#a54f05" fill-opacity=".3"/><path d="M441.723 156a1.72 1.72 0 00-1.723-1.723 1.72 1.72 0 00-1.723 1.723 1.72 1.72 0 001.723 1.723 1.72 1.72 0 001.723-1.723zm9-1a1.72 1.72 0 00-1.723-1.723 1.72 1.72 0 00-1.723 1.723 1.72 1.72 0 001.723 1.723 1.72 1.72 0 001.723-1.723zm9 0a1.72 1.72 0 00-1.723-1.723 1.72 1.72 0 00-1.723 1.723 1.72 1.72 0 001.723 1.723 1.72 1.72 0 001.723-1.723zm9 0a1.72 1.72 0 00-1.723-1.723 1.72 1.72 0 00-1.723 1.723 1.72 1.72 0 001.723 1.723 1.72 1.72 0 001.723-1.723zm9-1a1.72 1.72 0 00-1.723-1.723 1.72 1.72 0 00-1.723 1.723 1.72 1.72 0 001.723 1.723 1.72 1.72 0 001.723-1.723zm10 0a1.72 1.72 0 00-1.723-1.723 1.72 1.72 0 00-1.723 1.723 1.72 1.72 0 001.723 1.723 1.72 1.72 0 001.723-1.723zm0 0" fill-rule="evenodd" fill="#6846c7" fill-opacity=".3"/><path d="M35.723 129A1.72 1.72 0 0034 127.277 1.72 1.72 0 0032.277 129 1.72 1.72 0 0034 130.723 1.72 1.72 0 0035.723 129zm46 41A1.72 1.72 0 0080 168.277 1.72 1.72 0 0078.277 170 1.72 1.72 0 0080 171.723 1.72 1.72 0 0081.723 170zm10-25A1.72 1.72 0 0090 143.277 1.72 1.72 0 0088.277 145 1.72 1.72 0 0090 146.723 1.72 1.72 0 0091.723 145zm9-22A1.72 1.72 0 0099 121.277 1.72 1.72 0 0097.277 123 1.72 1.72 0 0099 124.723a1.72 1.72 0 001.723-1.723zm9-5a1.72 1.72 0 00-1.723-1.723 1.72 1.72 0 00-1.723 1.723 1.72 1.72 0 001.723 1.723 1.72 1.72 0 001.723-1.723zm9-3a1.72 1.72 0 00-1.723-1.723 1.72 1.72 0 00-1.723 1.723 1.72 1.72 0 001.723 1.723 1.72 1.72 0 001.723-1.723zm9-8a1.72 1.72 0 00-1.723-1.723 1.72 1.72 0 00-1.723 1.723 1.72 1.72 0 001.723 1.723 1.72 1.72 0 001.723-1.723zm10 2a1.72 1.72 0 00-1.723-1.723 1.72 1.72 0 00-1.723 1.723 1.72 1.72 0 001.723 1.723 1.72 1.72 0 001.723-1.723zm9-12A1.72 1.72 0 00145 95.277 1.72 1.72 0 00143.277 97 1.72 1.72 0 00145 98.723 1.72 1.72 0 00146.723 97zm9-10A1.72 1.72 0 00154 85.277 1.72 1.72 0 00152.277 87 1.72 1.72 0 00154 88.723 1.72 1.72 0 00155.723 87zm9-7A1.72 1.72 0 00163 78.277 1.72 1.72 0 00161.277 80 1.72 1.72 0 00163 81.723 1.72 1.72 0 00164.723 80zm10-2A1.72 1.72 0 00173 76.277 1.72 1.72 0 00171.277 78 1.72 1.72 0 00173 79.723 1.72 1.72 0 00174.723 78zm9-15A1.72 1.72 0 00182 61.277 1.72 1.72 0 00180.277 63 1.72 1.72 0 00182 64.723 1.72 1.72 0 00183.723 63zm9 4A1.72 1.72 0 00191 65.277 1.72 1.72 0 00189.277 67 1.72 1.72 0 00191 68.723 1.72 1.72 0 00192.723 67zm9-3A1.72 1.72 0 00200 62.277 1.72 1.72 0 00198.277 64 1.72 1.72 0 00200 65.723 1.72 1.72 0 00201.723 64zm9-3A1.72 1.72 0 00209 59.277 1.72 1.72 0 00207.277 61 1.72 1.72 0 00209 62.723 1.72 1.72 0 00210.723 61zm10-1A1.72 1.72 0 00219 58.277 1.72 1.72 0 00217.277 60 1.72 1.72 0 00219 61.723 1.72 1.72 0 00220.723 60zm9-3A1.72 1.72 0 00228 55.277 1.72 1.72 0 00226.277 57 1.72 1.72 0 00228 58.723 1.72 1.72 0 00229.723 57zm9-2A1.72 1.72 0 00237 53.277 1.72 1.72 0 00235.277 55 1.72 1.72 0 00237 56.723 1.72 1.72 0 00238.723 55zm9-2A1.72 1.72 0 00246 51.277 1.72 1.72 0 00244.277 53 1.72 1.72 0 00246 54.723 1.72 1.72 0 00247.723 53zm9-4A1.72 1.72 0 00255 47.277 1.72 1.72 0 00253.277 49 1.72 1.72 0 00255 50.723 1.72 1.72 0 00256.723 49zm10 1A1.72 1.72 0 00265 48.277 1.72 1.72 0 00263.277 50 1.72 1.72 0 00265 51.723 1.72 1.72 0 00266.723 50zm9 3A1.72 1.72 0 00274 51.277 1.72 1.72 0 00272.277 53 1.72 1.72 0 00274 54.723 1.72 1.72 0 00275.723 53zm9-1A1.72 1.72 0 00283 50.277 1.72 1.72 0 00281.277 52 1.72 1.72 0 00283 53.723 1.72 1.72 0 00284.723 52zm9 4A1.72 1.72 0 00292 54.277 1.72 1.72 0 00290.277 56 1.72 1.72 0 00292 57.723 1.72 1.72 0 00293.723 56zm9-2A1.72 1.72 0 00301 52.277 1.72 1.72 0 00299.277 54 1.72 1.72 0 00301 55.723 1.72 1.72 0 00302.723 54zm10 3A1.72 1.72 0 00311 55.277 1.72 1.72 0 00309.277 57 1.72 1.72 0 00311 58.723 1.72 1.72 0 00312.723 57zm9 4A1.72 1.72 0 00320 59.277 1.72 1.72 0 00318.277 61 1.72 1.72 0 00320 62.723 1.72 1.72 0 00321.723 61zm9-34A1.72 1.72 0 00329 25.277 1.72 1.72 0 00327.277 27 1.72 1.72 0 00329 28.723 1.72 1.72 0 00330.723 27zm9 18A1.72 1.72 0 00338 43.277 1.72 1.72 0 00336.277 45 1.72 1.72 0 00338 46.723 1.72 1.72 0 00339.723 45zm9 11A1.72 1.72 0 00347 54.277 1.72 1.72 0 00345.277 56 1.72 1.72 0 00347 57.723 1.72 1.72 0 00348.723 56zm10 5A1.72 1.72 0 00357 59.277 1.72 1.72 0 00355.277 61 1.72 1.72 0 00357 62.723 1.72 1.72 0 00358.723 61zm9 0A1.72 1.72 0 00366 59.277 1.72 1.72 0 00364.277 61 1.72 1.72 0 00366 62.723 1.72 1.72 0 00367.723 61zm9 1A1.72 1.72 0 00375 60.277 1.72 1.72 0 00373.277 62 1.72 1.72 0 00375 63.723 1.72 1.72 0 00376.723 62zm9 1A1.72 1.72 0 00384 61.277 1.72 1.72 0 00382.277 63 1.72 1.72 0 00384 64.723 1.72 1.72 0 00385.723 63zm10 14A1.72 1.72 0 00394 75.277 1.72 1.72 0 00392.277 77 1.72 1.72 0 00394 78.723 1.72 1.72 0 00395.723 77zm9-2A1.72 1.72 0 00403 73.277 1.72 1.72 0 00401.277 75 1.72 1.72 0 00403 76.723 1.72 1.72 0 00404.723 75zm9 14A1.72 1.72 0 00412 87.277 1.72 1.72 0 00410.277 89 1.72 1.72 0 00412 90.723 1.72 1.72 0 00413.723 89zm9-8A1.72 1.72 0 00421 79.277 1.72 1.72 0 00419.277 81 1.72 1.72 0 00421 82.723 1.72 1.72 0 00422.723 81zm9 8A1.72 1.72 0 00430 87.277 1.72 1.72 0 00428.277 89 1.72 1.72 0 00430 90.723 1.72 1.72 0 00431.723 89zm10-4A1.72 1.72 0 00440 83.277 1.72 1.72 0 00438.277 85 1.72 1.72 0 00440 86.723 1.72 1.72 0 00441.723 85zm0 0" fill-rule="evenodd" fill="#a60000"/><path d="M35.723 129A1.72 1.72 0 0034 127.277 1.72 1.72 0 0032.277 129 1.72 1.72 0 0034 130.723 1.72 1.72 0 0035.723 129zm46 41A1.72 1.72 0 0080 168.277 1.72 1.72 0 0078.277 170 1.72 1.72 0 0080 171.723 1.72 1.72 0 0081.723 170zm10-25A1.72 1.72 0 0090 143.277 1.72 1.72 0 0088.277 145 1.72 1.72 0 0090 146.723 1.72 1.72 0 0091.723 145zm9-22A1.72 1.72 0 0099 121.277 1.72 1.72 0 0097.277 123 1.72 1.72 0 0099 124.723a1.72 1.72 0 001.723-1.723zm9-5a1.72 1.72 0 00-1.723-1.723 1.72 1.72 0 00-1.723 1.723 1.72 1.72 0 001.723 1.723 1.72 1.72 0 001.723-1.723zm9 1a1.72 1.72 0 00-1.723-1.723 1.72 1.72 0 00-1.723 1.723 1.72 1.72 0 001.723 1.723 1.72 1.72 0 001.723-1.723zm9-6a1.72 1.72 0 00-1.723-1.723 1.72 1.72 0 00-1.723 1.723 1.72 1.72 0 001.723 1.723 1.72 1.72 0 001.723-1.723zm10 7a1.72 1.72 0 00-1.723-1.723 1.72 1.72 0 00-1.723 1.723 1.72 1.72 0 001.723 1.723 1.72 1.72 0 001.723-1.723zm9-7a1.72 1.72 0 00-1.723-1.723 1.72 1.72 0 00-1.723 1.723 1.72 1.72 0 001.723 1.723 1.72 1.72 0 001.723-1.723zm9-10a1.72 1.72 0 00-1.723-1.723 1.72 1.72 0 00-1.723 1.723 1.72 1.72 0 001.723 1.723 1.72 1.72 0 001.723-1.723zm9-10A1.72 1.72 0 00163 91.277 1.72 1.72 0 00161.277 93 1.72 1.72 0 00163 94.723 1.72 1.72 0 00164.723 93zm10-2A1.72 1.72 0 00173 89.277 1.72 1.72 0 00171.277 91 1.72 1.72 0 00173 92.723 1.72 1.72 0 00174.723 91zm9-22A1.72 1.72 0 00182 67.277 1.72 1.72 0 00180.277 69 1.72 1.72 0 00182 70.723 1.72 1.72 0 00183.723 69zm9 7A1.72 1.72 0 00191 74.277 1.72 1.72 0 00189.277 76 1.72 1.72 0 00191 77.723 1.72 1.72 0 00192.723 76zm9-3A1.72 1.72 0 00200 71.277 1.72 1.72 0 00198.277 73 1.72 1.72 0 00200 74.723 1.72 1.72 0 00201.723 73zm9-3A1.72 1.72 0 00209 68.277 1.72 1.72 0 00207.277 70 1.72 1.72 0 00209 71.723 1.72 1.72 0 00210.723 70zm10-2A1.72 1.72 0 00219 66.277 1.72 1.72 0 00217.277 68 1.72 1.72 0 00219 69.723 1.72 1.72 0 00220.723 68zm9-6A1.72 1.72 0 00228 60.277 1.72 1.72 0 00226.277 62 1.72 1.72 0 00228 63.723 1.72 1.72 0 00229.723 62zm9-2A1.72 1.72 0 00237 58.277 1.72 1.72 0 00235.277 60 1.72 1.72 0 00237 61.723 1.72 1.72 0 00238.723 60zm9-2A1.72 1.72 0 00246 56.277 1.72 1.72 0 00244.277 58 1.72 1.72 0 00246 59.723 1.72 1.72 0 00247.723 58zm9-5A1.72 1.72 0 00255 51.277 1.72 1.72 0 00253.277 53 1.72 1.72 0 00255 54.723 1.72 1.72 0 00256.723 53zm10 1A1.72 1.72 0 00265 52.277 1.72 1.72 0 00263.277 54 1.72 1.72 0 00265 55.723 1.72 1.72 0 00266.723 54zm9 4A1.72 1.72 0 00274 56.277 1.72 1.72 0 00272.277 58 1.72 1.72 0 00274 59.723 1.72 1.72 0 00275.723 58zm9-3A1.72 1.72 0 00283 53.277 1.72 1.72 0 00281.277 55 1.72 1.72 0 00283 56.723 1.72 1.72 0 00284.723 55zm9 5A1.72 1.72 0 00292 58.277 1.72 1.72 0 00290.277 60 1.72 1.72 0 00292 61.723 1.72 1.72 0 00293.723 60zm9-4A1.72 1.72 0 00301 54.277 1.72 1.72 0 00299.277 56 1.72 1.72 0 00301 57.723 1.72 1.72 0 00302.723 56zm10 4A1.72 1.72 0 00311 58.277 1.72 1.72 0 00309.277 60 1.72 1.72 0 00311 61.723 1.72 1.72 0 00312.723 60zm9 5A1.72 1.72 0 00320 63.277 1.72 1.72 0 00318.277 65 1.72 1.72 0 00320 66.723 1.72 1.72 0 00321.723 65zm9-38A1.72 1.72 0 00329 25.277 1.72 1.72 0 00327.277 27 1.72 1.72 0 00329 28.723 1.72 1.72 0 00330.723 27zm9 19A1.72 1.72 0 00338 44.277 1.72 1.72 0 00336.277 46 1.72 1.72 0 00338 47.723 1.72 1.72 0 00339.723 46zm9 12A1.72 1.72 0 00347 56.277 1.72 1.72 0 00345.277 58 1.72 1.72 0 00347 59.723 1.72 1.72 0 00348.723 58zm10 4A1.72 1.72 0 00357 60.277 1.72 1.72 0 00355.277 62 1.72 1.72 0 00357 63.723 1.72 1.72 0 00358.723 62zm9 0A1.72 1.72 0 00366 60.277 1.72 1.72 0 00364.277 62 1.72 1.72 0 00366 63.723 1.72 1.72 0 00367.723 62zm9 1A1.72 1.72 0 00375 61.277 1.72 1.72 0 00373.277 63 1.72 1.72 0 00375 64.723 1.72 1.72 0 00376.723 63zm9 1A1.72 1.72 0 00384 62.277 1.72 1.72 0 00382.277 64 1.72 1.72 0 00384 65.723 1.72 1.72 0 00385.723 64zm10 14A1.72 1.72 0 00394 76.277 1.72 1.72 0 00392.277 78 1.72 1.72 0 00394 79.723 1.72 1.72 0 00395.723 78zm9 3A1.72 1.72 0 00403 79.277 1.72 1.72 0 00401.277 81 1.72 1.72 0 00403 82.723 1.72 1.72 0 00404.723 81zm9 10A1.72 1.72 0 00412 89.277 1.72 1.72 0 00410.277 91 1.72 1.72 0 00412 92.723 1.72 1.72 0 00413.723 91zm9-10A1.72 1.72 0 00421 79.277 1.72 1.72 0 00419.277 81 1.72 1.72 0 00421 82.723 1.72 1.72 0 00422.723 81zm9 8A1.72 1.72 0 00430 87.277 1.72 1.72 0 00428.277 89 1.72 1.72 0 00430 90.723 1.72 1.72 0 00431.723 89zm10-4A1.72 1.72 0 00440 83.277 1.72 1.72 0 00438.277 85 1.72 1.72 0 00440 86.723 1.72 1.72 0 00441.723 85zm0 0" fill-rule="evenodd" fill="#0d86a0"/><path d="M109.723 194a1.72 1.72 0 00-1.723-1.723 1.72 1.72 0 00-1.723 1.723 1.72 1.72 0 001.723 1.723 1.72 1.72 0 001.723-1.723zm9-45a1.72 1.72 0 00-1.723-1.723 1.72 1.72 0 00-1.723 1.723 1.72 1.72 0 001.723 1.723 1.72 1.72 0 001.723-1.723zm9 2a1.72 1.72 0 00-1.723-1.723 1.72 1.72 0 00-1.723 1.723 1.72 1.72 0 001.723 1.723 1.72 1.72 0 001.723-1.723zm10 12a1.72 1.72 0 00-1.723-1.723 1.72 1.72 0 00-1.723 1.723 1.72 1.72 0 001.723 1.723 1.72 1.72 0 001.723-1.723zm9-22a1.72 1.72 0 00-1.723-1.723 1.72 1.72 0 00-1.723 1.723 1.72 1.72 0 001.723 1.723 1.72 1.72 0 001.723-1.723zm9-3a1.72 1.72 0 00-1.723-1.723 1.72 1.72 0 00-1.723 1.723 1.72 1.72 0 001.723 1.723 1.72 1.72 0 001.723-1.723zm9 4a1.72 1.72 0 00-1.723-1.723 1.72 1.72 0 00-1.723 1.723 1.72 1.72 0 001.723 1.723 1.72 1.72 0 001.723-1.723zm10-16a1.72 1.72 0 00-1.723-1.723 1.72 1.72 0 00-1.723 1.723 1.72 1.72 0 001.723 1.723 1.72 1.72 0 001.723-1.723zm9 3a1.72 1.72 0 00-1.723-1.723 1.72 1.72 0 00-1.723 1.723 1.72 1.72 0 001.723 1.723 1.72 1.72 0 001.723-1.723zm9-4a1.72 1.72 0 00-1.723-1.723 1.72 1.72 0 00-1.723 1.723 1.72 1.72 0 001.723 1.723 1.72 1.72 0 001.723-1.723zm9-5a1.72 1.72 0 00-1.723-1.723 1.72 1.72 0 00-1.723 1.723 1.72 1.72 0 001.723 1.723 1.72 1.72 0 001.723-1.723zm9-3a1.72 1.72 0 00-1.723-1.723 1.72 1.72 0 00-1.723 1.723 1.72 1.72 0 001.723 1.723 1.72 1.72 0 001.723-1.723zm10-8a1.72 1.72 0 00-1.723-1.723 1.72 1.72 0 00-1.723 1.723 1.72 1.72 0 001.723 1.723 1.72 1.72 0 001.723-1.723zm9 8a1.72 1.72 0 00-1.723-1.723 1.72 1.72 0 00-1.723 1.723 1.72 1.72 0 001.723 1.723 1.72 1.72 0 001.723-1.723zm9 1a1.72 1.72 0 00-1.723-1.723 1.72 1.72 0 00-1.723 1.723 1.72 1.72 0 001.723 1.723 1.72 1.72 0 001.723-1.723zm9-7a1.72 1.72 0 00-1.723-1.723 1.72 1.72 0 00-1.723 1.723 1.72 1.72 0 001.723 1.723 1.72 1.72 0 001.723-1.723zm9 8a1.72 1.72 0 00-1.723-1.723 1.72 1.72 0 00-1.723 1.723 1.72 1.72 0 001.723 1.723 1.72 1.72 0 001.723-1.723zm10 0a1.72 1.72 0 00-1.723-1.723 1.72 1.72 0 00-1.723 1.723 1.72 1.72 0 001.723 1.723 1.72 1.72 0 001.723-1.723zm9 0a1.72 1.72 0 00-1.723-1.723 1.72 1.72 0 00-1.723 1.723 1.72 1.72 0 001.723 1.723 1.72 1.72 0 001.723-1.723zm9 4a1.72 1.72 0 00-1.723-1.723 1.72 1.72 0 00-1.723 1.723 1.72 1.72 0 001.723 1.723 1.72 1.72 0 001.723-1.723zm9 5a1.72 1.72 0 00-1.723-1.723 1.72 1.72 0 00-1.723 1.723 1.72 1.72 0 001.723 1.723 1.72 1.72 0 001.723-1.723zm9 6a1.72 1.72 0 00-1.723-1.723 1.72 1.72 0 00-1.723 1.723 1.72 1.72 0 001.723 1.723 1.72 1.72 0 001.723-1.723zm10 3a1.72 1.72 0 00-1.723-1.723 1.72 1.72 0 00-1.723 1.723 1.72 1.72 0 001.723 1.723 1.72 1.72 0 001.723-1.723zm9-8a1.72 1.72 0 00-1.723-1.723 1.72 1.72 0 00-1.723 1.723 1.72 1.72 0 001.723 1.723 1.72 1.72 0 001.723-1.723zm9 11a1.72 1.72 0 00-1.723-1.723 1.72 1.72 0 00-1.723 1.723 1.72 1.72 0 001.723 1.723 1.72 1.72 0 001.723-1.723zm9 2a1.72 1.72 0 00-1.723-1.723 1.72 1.72 0 00-1.723 1.723 1.72 1.72 0 001.723 1.723 1.72 1.72 0 001.723-1.723zm9-9a1.72 1.72 0 00-1.723-1.723 1.72 1.72 0 00-1.723 1.723 1.72 1.72 0 001.723 1.723 1.72 1.72 0 001.723-1.723zm10 7a1.72 1.72 0 00-1.723-1.723 1.72 1.72 0 00-1.723 1.723 1.72 1.72 0 001.723 1.723 1.72 1.72 0 001.723-1.723zm9 23a1.72 1.72 0 00-1.723-1.723 1.72 1.72 0 00-1.723 1.723 1.72 1.72 0 001.723 1.723 1.72 1.72 0 001.723-1.723zm9 0a1.72 1.72 0 00-1.723-1.723 1.72 1.72 0 00-1.723 1.723 1.72 1.72 0 001.723 1.723 1.72 1.72 0 001.723-1.723zm9 12a1.72 1.72 0 00-1.723-1.723 1.72 1.72 0 00-1.723 1.723 1.72 1.72 0 001.723 1.723 1.72 1.72 0 001.723-1.723zm10 19a1.72 1.72 0 00-1.723-1.723 1.72 1.72 0 00-1.723 1.723 1.72 1.72 0 001.723 1.723 1.72 1.72 0 001.723-1.723zm9 0a1.72 1.72 0 00-1.723-1.723 1.72 1.72 0 00-1.723 1.723 1.72 1.72 0 001.723 1.723 1.72 1.72 0 001.723-1.723zm9-31a1.72 1.72 0 00-1.723-1.723 1.72 1.72 0 00-1.723 1.723 1.72 1.72 0 001.723 1.723 1.72 1.72 0 001.723-1.723zm9 12a1.72 1.72 0 00-1.723-1.723 1.72 1.72 0 00-1.723 1.723 1.72 1.72 0 001.723 1.723 1.72 1.72 0 001.723-1.723zm9 0a1.72 1.72 0 00-1.723-1.723 1.72 1.72 0 00-1.723 1.723 1.72 1.72 0 001.723 1.723 1.72 1.72 0 001.723-1.723zm10 7a1.72 1.72 0 00-1.723-1.723 1.72 1.72 0 00-1.723 1.723 1.72 1.72 0 001.723 1.723 1.72 1.72 0 001.723-1.723zm0 0" fill-rule="evenodd" fill="#c05c20"/><path d="M127.723 194a1.72 1.72 0 00-1.723-1.723 1.72 1.72 0 00-1.723 1.723 1.72 1.72 0 001.723 1.723 1.72 1.72 0 001.723-1.723zm10-24a1.72 1.72 0 00-1.723-1.723 1.72 1.72 0 00-1.723 1.723 1.72 1.72 0 001.723 1.723 1.72 1.72 0 001.723-1.723zm9 0a1.72 1.72 0 00-1.723-1.723 1.72 1.72 0 00-1.723 1.723 1.72 1.72 0 001.723 1.723 1.72 1.72 0 001.723-1.723zm9-31a1.72 1.72 0 00-1.723-1.723 1.72 1.72 0 00-1.723 1.723 1.72 1.72 0 001.723 1.723 1.72 1.72 0 001.723-1.723zm9-14a1.72 1.72 0 00-1.723-1.723 1.72 1.72 0 00-1.723 1.723 1.72 1.72 0 001.723 1.723 1.72 1.72 0 001.723-1.723zm10 3a1.72 1.72 0 00-1.723-1.723 1.72 1.72 0 00-1.723 1.723 1.72 1.72 0 001.723 1.723 1.72 1.72 0 001.723-1.723zm9 2a1.72 1.72 0 00-1.723-1.723 1.72 1.72 0 00-1.723 1.723 1.72 1.72 0 001.723 1.723 1.72 1.72 0 001.723-1.723zm9 0a1.72 1.72 0 00-1.723-1.723 1.72 1.72 0 00-1.723 1.723 1.72 1.72 0 001.723 1.723 1.72 1.72 0 001.723-1.723zm9-11a1.72 1.72 0 00-1.723-1.723 1.72 1.72 0 00-1.723 1.723 1.72 1.72 0 001.723 1.723 1.72 1.72 0 001.723-1.723zm9 0a1.72 1.72 0 00-1.723-1.723 1.72 1.72 0 00-1.723 1.723 1.72 1.72 0 001.723 1.723 1.72 1.72 0 001.723-1.723zm10 1a1.72 1.72 0 00-1.723-1.723 1.72 1.72 0 00-1.723 1.723 1.72 1.72 0 001.723 1.723 1.72 1.72 0 001.723-1.723zm9 0a1.72 1.72 0 00-1.723-1.723 1.72 1.72 0 00-1.723 1.723 1.72 1.72 0 001.723 1.723 1.72 1.72 0 001.723-1.723zm9-1a1.72 1.72 0 00-1.723-1.723 1.72 1.72 0 00-1.723 1.723 1.72 1.72 0 001.723 1.723 1.72 1.72 0 001.723-1.723zm9-7a1.72 1.72 0 00-1.723-1.723 1.72 1.72 0 00-1.723 1.723 1.72 1.72 0 001.723 1.723 1.72 1.72 0 001.723-1.723zm9 4a1.72 1.72 0 00-1.723-1.723 1.72 1.72 0 00-1.723 1.723 1.72 1.72 0 001.723 1.723 1.72 1.72 0 001.723-1.723zm10 0a1.72 1.72 0 00-1.723-1.723 1.72 1.72 0 00-1.723 1.723 1.72 1.72 0 001.723 1.723 1.72 1.72 0 001.723-1.723zm9 6a1.72 1.72 0 00-1.723-1.723 1.72 1.72 0 00-1.723 1.723 1.72 1.72 0 001.723 1.723 1.72 1.72 0 001.723-1.723zm9-1a1.72 1.72 0 00-1.723-1.723 1.72 1.72 0 00-1.723 1.723 1.72 1.72 0 001.723 1.723 1.72 1.72 0 001.723-1.723zm9 4a1.72 1.72 0 00-1.723-1.723 1.72 1.72 0 00-1.723 1.723 1.72 1.72 0 001.723 1.723 1.72 1.72 0 001.723-1.723zm9 5a1.72 1.72 0 00-1.723-1.723 1.72 1.72 0 00-1.723 1.723 1.72 1.72 0 001.723 1.723 1.72 1.72 0 001.723-1.723zm10 3a1.72 1.72 0 00-1.723-1.723 1.72 1.72 0 00-1.723 1.723 1.72 1.72 0 001.723 1.723 1.72 1.72 0 001.723-1.723zm9 2a1.72 1.72 0 00-1.723-1.723 1.72 1.72 0 00-1.723 1.723 1.72 1.72 0 001.723 1.723 1.72 1.72 0 001.723-1.723zm9-3a1.72 1.72 0 00-1.723-1.723 1.72 1.72 0 00-1.723 1.723 1.72 1.72 0 001.723 1.723 1.72 1.72 0 001.723-1.723zm9 15a1.72 1.72 0 00-1.723-1.723 1.72 1.72 0 00-1.723 1.723 1.72 1.72 0 001.723 1.723 1.72 1.72 0 001.723-1.723zm9-11a1.72 1.72 0 00-1.723-1.723 1.72 1.72 0 00-1.723 1.723 1.72 1.72 0 001.723 1.723 1.72 1.72 0 001.723-1.723zm10 7a1.72 1.72 0 00-1.723-1.723 1.72 1.72 0 00-1.723 1.723 1.72 1.72 0 001.723 1.723 1.72 1.72 0 001.723-1.723zm9 4a1.72 1.72 0 00-1.723-1.723 1.72 1.72 0 00-1.723 1.723 1.72 1.72 0 001.723 1.723 1.72 1.72 0 001.723-1.723zm9 5a1.72 1.72 0 00-1.723-1.723 1.72 1.72 0 00-1.723 1.723 1.72 1.72 0 001.723 1.723 1.72 1.72 0 001.723-1.723zm9 14a1.72 1.72 0 00-1.723-1.723 1.72 1.72 0 00-1.723 1.723 1.72 1.72 0 001.723 1.723 1.72 1.72 0 001.723-1.723zm10 4a1.72 1.72 0 00-1.723-1.723 1.72 1.72 0 00-1.723 1.723 1.72 1.72 0 001.723 1.723 1.72 1.72 0 001.723-1.723zm9 12a1.72 1.72 0 00-1.723-1.723 1.72 1.72 0 00-1.723 1.723 1.72 1.72 0 001.723 1.723 1.72 1.72 0 001.723-1.723zm9-7a1.72 1.72 0 00-1.723-1.723 1.72 1.72 0 00-1.723 1.723 1.72 1.72 0 001.723 1.723 1.72 1.72 0 001.723-1.723zm9 0a1.72 1.72 0 00-1.723-1.723 1.72 1.72 0 00-1.723 1.723 1.72 1.72 0 001.723 1.723 1.72 1.72 0 001.723-1.723zm9 19a1.72 1.72 0 00-1.723-1.723 1.72 1.72 0 00-1.723 1.723 1.72 1.72 0 001.723 1.723 1.72 1.72 0 001.723-1.723zm0 0" fill-rule="evenodd" fill="#6f42b5"/><path d="M127.723 166a1.72 1.72 0 00-1.723-1.723 1.72 1.72 0 00-1.723 1.723 1.72 1.72 0 001.723 1.723 1.72 1.72 0 001.723-1.723zm10 0a1.72 1.72 0 00-1.723-1.723 1.72 1.72 0 00-1.723 1.723 1.72 1.72 0 001.723 1.723 1.72 1.72 0 001.723-1.723zm9-33a1.72 1.72 0 00-1.723-1.723 1.72 1.72 0 00-1.723 1.723 1.72 1.72 0 001.723 1.723 1.72 1.72 0 001.723-1.723zm9 10a1.72 1.72 0 00-1.723-1.723 1.72 1.72 0 00-1.723 1.723 1.72 1.72 0 001.723 1.723 1.72 1.72 0 001.723-1.723zm9-14a1.72 1.72 0 00-1.723-1.723 1.72 1.72 0 00-1.723 1.723 1.72 1.72 0 001.723 1.723 1.72 1.72 0 001.723-1.723zm10 10a1.72 1.72 0 00-1.723-1.723 1.72 1.72 0 00-1.723 1.723 1.72 1.72 0 001.723 1.723 1.72 1.72 0 001.723-1.723zm9-11a1.72 1.72 0 00-1.723-1.723 1.72 1.72 0 00-1.723 1.723 1.72 1.72 0 001.723 1.723 1.72 1.72 0 001.723-1.723zm9-18a1.72 1.72 0 00-1.723-1.723 1.72 1.72 0 00-1.723 1.723 1.72 1.72 0 001.723 1.723 1.72 1.72 0 001.723-1.723zm9-1a1.72 1.72 0 00-1.723-1.723 1.72 1.72 0 00-1.723 1.723 1.72 1.72 0 001.723 1.723 1.72 1.72 0 001.723-1.723zm9 3a1.72 1.72 0 00-1.723-1.723 1.72 1.72 0 00-1.723 1.723 1.72 1.72 0 001.723 1.723 1.72 1.72 0 001.723-1.723zm10 10a1.72 1.72 0 00-1.723-1.723 1.72 1.72 0 00-1.723 1.723 1.72 1.72 0 001.723 1.723 1.72 1.72 0 001.723-1.723zm9 0a1.72 1.72 0 00-1.723-1.723 1.72 1.72 0 00-1.723 1.723 1.72 1.72 0 001.723 1.723 1.72 1.72 0 001.723-1.723zm9 0a1.72 1.72 0 00-1.723-1.723 1.72 1.72 0 00-1.723 1.723 1.72 1.72 0 001.723 1.723 1.72 1.72 0 001.723-1.723zm9-9a1.72 1.72 0 00-1.723-1.723 1.72 1.72 0 00-1.723 1.723 1.72 1.72 0 001.723 1.723 1.72 1.72 0 001.723-1.723zm9 8a1.72 1.72 0 00-1.723-1.723 1.72 1.72 0 00-1.723 1.723 1.72 1.72 0 001.723 1.723 1.72 1.72 0 001.723-1.723zm10 2a1.72 1.72 0 00-1.723-1.723 1.72 1.72 0 00-1.723 1.723 1.72 1.72 0 001.723 1.723 1.72 1.72 0 001.723-1.723zm9 2a1.72 1.72 0 00-1.723-1.723 1.72 1.72 0 00-1.723 1.723 1.72 1.72 0 001.723 1.723 1.72 1.72 0 001.723-1.723zm9 4a1.72 1.72 0 00-1.723-1.723 1.72 1.72 0 00-1.723 1.723 1.72 1.72 0 001.723 1.723 1.72 1.72 0 001.723-1.723zm9 7a1.72 1.72 0 00-1.723-1.723 1.72 1.72 0 00-1.723 1.723 1.72 1.72 0 001.723 1.723 1.72 1.72 0 001.723-1.723zm9-1a1.72 1.72 0 00-1.723-1.723 1.72 1.72 0 00-1.723 1.723 1.72 1.72 0 001.723 1.723 1.72 1.72 0 001.723-1.723zm10 3a1.72 1.72 0 00-1.723-1.723 1.72 1.72 0 00-1.723 1.723 1.72 1.72 0 001.723 1.723 1.72 1.72 0 001.723-1.723zm9 10a1.72 1.72 0 00-1.723-1.723 1.72 1.72 0 00-1.723 1.723 1.72 1.72 0 001.723 1.723 1.72 1.72 0 001.723-1.723zm9 0a1.72 1.72 0 00-1.723-1.723 1.72 1.72 0 00-1.723 1.723 1.72 1.72 0 001.723 1.723 1.72 1.72 0 001.723-1.723zm9 6a1.72 1.72 0 00-1.723-1.723 1.72 1.72 0 00-1.723 1.723 1.72 1.72 0 001.723 1.723 1.72 1.72 0 001.723-1.723zm9 6a1.72 1.72 0 00-1.723-1.723 1.72 1.72 0 00-1.723 1.723 1.72 1.72 0 001.723 1.723 1.72 1.72 0 001.723-1.723zm10 6a1.72 1.72 0 00-1.723-1.723 1.72 1.72 0 00-1.723 1.723 1.72 1.72 0 001.723 1.723 1.72 1.72 0 001.723-1.723zm9 4a1.72 1.72 0 00-1.723-1.723 1.72 1.72 0 00-1.723 1.723 1.72 1.72 0 001.723 1.723 1.72 1.72 0 001.723-1.723zm9 24a1.72 1.72 0 00-1.723-1.723 1.72 1.72 0 00-1.723 1.723 1.72 1.72 0 001.723 1.723 1.72 1.72 0 001.723-1.723zm9 0a1.72 1.72 0 00-1.723-1.723 1.72 1.72 0 00-1.723 1.723 1.72 1.72 0 001.723 1.723 1.72 1.72 0 001.723-1.723zm10-12a1.72 1.72 0 00-1.723-1.723 1.72 1.72 0 00-1.723 1.723 1.72 1.72 0 001.723 1.723 1.72 1.72 0 001.723-1.723zm9-46a1.72 1.72 0 00-1.723-1.723 1.72 1.72 0 00-1.723 1.723 1.72 1.72 0 001.723 1.723 1.72 1.72 0 001.723-1.723zm9 46a1.72 1.72 0 00-1.723-1.723 1.72 1.72 0 00-1.723 1.723 1.72 1.72 0 001.723 1.723 1.72 1.72 0 001.723-1.723zm0 0" fill-rule="evenodd" fill="#769003"/><path d="M127.723 194a1.72 1.72 0 00-1.723-1.723 1.72 1.72 0 00-1.723 1.723 1.72 1.72 0 001.723 1.723 1.72 1.72 0 001.723-1.723zm10-36a1.72 1.72 0 00-1.723-1.723 1.72 1.72 0 00-1.723 1.723 1.72 1.72 0 001.723 1.723 1.72 1.72 0 001.723-1.723zm9-11a1.72 1.72 0 00-1.723-1.723 1.72 1.72 0 00-1.723 1.723 1.72 1.72 0 001.723 1.723 1.72 1.72 0 001.723-1.723zm9-4a1.72 1.72 0 00-1.723-1.723 1.72 1.72 0 00-1.723 1.723 1.72 1.72 0 001.723 1.723 1.72 1.72 0 001.723-1.723zm9-6a1.72 1.72 0 00-1.723-1.723 1.72 1.72 0 00-1.723 1.723 1.72 1.72 0 001.723 1.723 1.72 1.72 0 001.723-1.723zm10-3a1.72 1.72 0 00-1.723-1.723 1.72 1.72 0 00-1.723 1.723 1.72 1.72 0 001.723 1.723 1.72 1.72 0 001.723-1.723zm9-6a1.72 1.72 0 00-1.723-1.723 1.72 1.72 0 00-1.723 1.723 1.72 1.72 0 001.723 1.723 1.72 1.72 0 001.723-1.723zm9-10a1.72 1.72 0 00-1.723-1.723 1.72 1.72 0 00-1.723 1.723 1.72 1.72 0 001.723 1.723 1.72 1.72 0 001.723-1.723zm9 6a1.72 1.72 0 00-1.723-1.723 1.72 1.72 0 00-1.723 1.723 1.72 1.72 0 001.723 1.723 1.72 1.72 0 001.723-1.723zm9 0a1.72 1.72 0 00-1.723-1.723 1.72 1.72 0 00-1.723 1.723 1.72 1.72 0 001.723 1.723 1.72 1.72 0 001.723-1.723zm10-1a1.72 1.72 0 00-1.723-1.723 1.72 1.72 0 00-1.723 1.723 1.72 1.72 0 001.723 1.723 1.72 1.72 0 001.723-1.723zm9-4a1.72 1.72 0 00-1.723-1.723 1.72 1.72 0 00-1.723 1.723 1.72 1.72 0 001.723 1.723 1.72 1.72 0 001.723-1.723zm9 4a1.72 1.72 0 00-1.723-1.723 1.72 1.72 0 00-1.723 1.723 1.72 1.72 0 001.723 1.723 1.72 1.72 0 001.723-1.723zm9-4a1.72 1.72 0 00-1.723-1.723 1.72 1.72 0 00-1.723 1.723 1.72 1.72 0 001.723 1.723 1.72 1.72 0 001.723-1.723zm9 1a1.72 1.72 0 00-1.723-1.723 1.72 1.72 0 00-1.723 1.723 1.72 1.72 0 001.723 1.723 1.72 1.72 0 001.723-1.723zm10 6a1.72 1.72 0 00-1.723-1.723 1.72 1.72 0 00-1.723 1.723 1.72 1.72 0 001.723 1.723 1.72 1.72 0 001.723-1.723zm9-4a1.72 1.72 0 00-1.723-1.723 1.72 1.72 0 00-1.723 1.723 1.72 1.72 0 001.723 1.723 1.72 1.72 0 001.723-1.723zm9 12a1.72 1.72 0 00-1.723-1.723 1.72 1.72 0 00-1.723 1.723 1.72 1.72 0 001.723 1.723 1.72 1.72 0 001.723-1.723zm9-2a1.72 1.72 0 00-1.723-1.723 1.72 1.72 0 00-1.723 1.723 1.72 1.72 0 001.723 1.723 1.72 1.72 0 001.723-1.723zm9-3a1.72 1.72 0 00-1.723-1.723 1.72 1.72 0 00-1.723 1.723 1.72 1.72 0 001.723 1.723 1.72 1.72 0 001.723-1.723zm10 4a1.72 1.72 0 00-1.723-1.723 1.72 1.72 0 00-1.723 1.723 1.72 1.72 0 001.723 1.723 1.72 1.72 0 001.723-1.723zm9-1a1.72 1.72 0 00-1.723-1.723 1.72 1.72 0 00-1.723 1.723 1.72 1.72 0 001.723 1.723 1.72 1.72 0 001.723-1.723zm9 8a1.72 1.72 0 00-1.723-1.723 1.72 1.72 0 00-1.723 1.723 1.72 1.72 0 001.723 1.723 1.72 1.72 0 001.723-1.723zm9 2a1.72 1.72 0 00-1.723-1.723 1.72 1.72 0 00-1.723 1.723 1.72 1.72 0 001.723 1.723 1.72 1.72 0 001.723-1.723zm9 7a1.72 1.72 0 00-1.723-1.723 1.72 1.72 0 00-1.723 1.723 1.72 1.72 0 001.723 1.723 1.72 1.72 0 001.723-1.723zm10 26a1.72 1.72 0 00-1.723-1.723 1.72 1.72 0 00-1.723 1.723 1.72 1.72 0 001.723 1.723 1.72 1.72 0 001.723-1.723zm9 7a1.72 1.72 0 00-1.723-1.723 1.72 1.72 0 00-1.723 1.723 1.72 1.72 0 001.723 1.723 1.72 1.72 0 001.723-1.723zm9 12a1.72 1.72 0 00-1.723-1.723 1.72 1.72 0 00-1.723 1.723 1.72 1.72 0 001.723 1.723 1.72 1.72 0 001.723-1.723zm9 0a1.72 1.72 0 00-1.723-1.723 1.72 1.72 0 00-1.723 1.723 1.72 1.72 0 001.723 1.723 1.72 1.72 0 001.723-1.723zm10-12a1.72 1.72 0 00-1.723-1.723 1.72 1.72 0 00-1.723 1.723 1.72 1.72 0 001.723 1.723 1.72 1.72 0 001.723-1.723zm9 12a1.72 1.72 0 00-1.723-1.723 1.72 1.72 0 00-1.723 1.723 1.72 1.72 0 001.723 1.723 1.72 1.72 0 001.723-1.723zm9-12a1.72 1.72 0 00-1.723-1.723 1.72 1.72 0 00-1.723 1.723 1.72 1.72 0 001.723 1.723 1.72 1.72 0 001.723-1.723zm9-7a1.72 1.72 0 00-1.723-1.723 1.72 1.72 0 00-1.723 1.723 1.72 1.72 0 001.723 1.723 1.72 1.72 0 001.723-1.723zm0 0" fill-rule="evenodd" fill="#a8364d"/><path d="M137.723 194a1.72 1.72 0 00-1.723-1.723 1.72 1.72 0 00-1.723 1.723 1.72 1.72 0 001.723 1.723 1.72 1.72 0 001.723-1.723zm9-46a1.72 1.72 0 00-1.723-1.723 1.72 1.72 0 00-1.723 1.723 1.72 1.72 0 001.723 1.723 1.72 1.72 0 001.723-1.723zm9-9a1.72 1.72 0 00-1.723-1.723 1.72 1.72 0 00-1.723 1.723 1.72 1.72 0 001.723 1.723 1.72 1.72 0 001.723-1.723zm9 2a1.72 1.72 0 00-1.723-1.723 1.72 1.72 0 00-1.723 1.723 1.72 1.72 0 001.723 1.723 1.72 1.72 0 001.723-1.723zm10 13a1.72 1.72 0 00-1.723-1.723 1.72 1.72 0 00-1.723 1.723 1.72 1.72 0 001.723 1.723 1.72 1.72 0 001.723-1.723zm9-23a1.72 1.72 0 00-1.723-1.723 1.72 1.72 0 00-1.723 1.723 1.72 1.72 0 001.723 1.723 1.72 1.72 0 001.723-1.723zm9-4a1.72 1.72 0 00-1.723-1.723 1.72 1.72 0 00-1.723 1.723 1.72 1.72 0 001.723 1.723 1.72 1.72 0 001.723-1.723zm9-1a1.72 1.72 0 00-1.723-1.723 1.72 1.72 0 00-1.723 1.723 1.72 1.72 0 001.723 1.723 1.72 1.72 0 001.723-1.723zm9 5a1.72 1.72 0 00-1.723-1.723 1.72 1.72 0 00-1.723 1.723 1.72 1.72 0 001.723 1.723 1.72 1.72 0 001.723-1.723zm10-9a1.72 1.72 0 00-1.723-1.723 1.72 1.72 0 00-1.723 1.723 1.72 1.72 0 001.723 1.723 1.72 1.72 0 001.723-1.723zm9 6a1.72 1.72 0 00-1.723-1.723 1.72 1.72 0 00-1.723 1.723 1.72 1.72 0 001.723 1.723 1.72 1.72 0 001.723-1.723zm9-8a1.72 1.72 0 00-1.723-1.723 1.72 1.72 0 00-1.723 1.723 1.72 1.72 0 001.723 1.723 1.72 1.72 0 001.723-1.723zm9-1a1.72 1.72 0 00-1.723-1.723 1.72 1.72 0 00-1.723 1.723 1.72 1.72 0 001.723 1.723 1.72 1.72 0 001.723-1.723zm9 7a1.72 1.72 0 00-1.723-1.723 1.72 1.72 0 00-1.723 1.723 1.72 1.72 0 001.723 1.723 1.72 1.72 0 001.723-1.723zm10-4a1.72 1.72 0 00-1.723-1.723 1.72 1.72 0 00-1.723 1.723 1.72 1.72 0 001.723 1.723 1.72 1.72 0 001.723-1.723zm9-3a1.72 1.72 0 00-1.723-1.723 1.72 1.72 0 00-1.723 1.723 1.72 1.72 0 001.723 1.723 1.72 1.72 0 001.723-1.723zm9 1a1.72 1.72 0 00-1.723-1.723 1.72 1.72 0 00-1.723 1.723 1.72 1.72 0 001.723 1.723 1.72 1.72 0 001.723-1.723zm9 7a1.72 1.72 0 00-1.723-1.723 1.72 1.72 0 00-1.723 1.723 1.72 1.72 0 001.723 1.723 1.72 1.72 0 001.723-1.723zm9-2a1.72 1.72 0 00-1.723-1.723 1.72 1.72 0 00-1.723 1.723 1.72 1.72 0 001.723 1.723 1.72 1.72 0 001.723-1.723zm10 10a1.72 1.72 0 00-1.723-1.723 1.72 1.72 0 00-1.723 1.723 1.72 1.72 0 001.723 1.723 1.72 1.72 0 001.723-1.723zm9 0a1.72 1.72 0 00-1.723-1.723 1.72 1.72 0 00-1.723 1.723 1.72 1.72 0 001.723 1.723 1.72 1.72 0 001.723-1.723zm9 6a1.72 1.72 0 00-1.723-1.723 1.72 1.72 0 00-1.723 1.723 1.72 1.72 0 001.723 1.723 1.72 1.72 0 001.723-1.723zm9-2a1.72 1.72 0 00-1.723-1.723 1.72 1.72 0 00-1.723 1.723 1.72 1.72 0 001.723 1.723 1.72 1.72 0 001.723-1.723zm9 7a1.72 1.72 0 00-1.723-1.723 1.72 1.72 0 00-1.723 1.723 1.72 1.72 0 001.723 1.723 1.72 1.72 0 001.723-1.723zm10 5a1.72 1.72 0 00-1.723-1.723 1.72 1.72 0 00-1.723 1.723 1.72 1.72 0 001.723 1.723 1.72 1.72 0 001.723-1.723zm9 1a1.72 1.72 0 00-1.723-1.723 1.72 1.72 0 00-1.723 1.723 1.72 1.72 0 001.723 1.723 1.72 1.72 0 001.723-1.723zm9 4a1.72 1.72 0 00-1.723-1.723 1.72 1.72 0 00-1.723 1.723 1.72 1.72 0 001.723 1.723 1.72 1.72 0 001.723-1.723zm9 14a1.72 1.72 0 00-1.723-1.723 1.72 1.72 0 00-1.723 1.723 1.72 1.72 0 001.723 1.723 1.72 1.72 0 001.723-1.723zm10 24a1.72 1.72 0 00-1.723-1.723 1.72 1.72 0 00-1.723 1.723 1.72 1.72 0 001.723 1.723 1.72 1.72 0 001.723-1.723zm9 0a1.72 1.72 0 00-1.723-1.723 1.72 1.72 0 00-1.723 1.723 1.72 1.72 0 001.723 1.723 1.72 1.72 0 001.723-1.723zm9 0a1.72 1.72 0 00-1.723-1.723 1.72 1.72 0 00-1.723 1.723 1.72 1.72 0 001.723 1.723 1.72 1.72 0 001.723-1.723zm0 0" fill-rule="evenodd" fill="#3664cc"/><path d="M127.723 182a1.72 1.72 0 00-1.723-1.723 1.72 1.72 0 00-1.723 1.723 1.72 1.72 0 001.723 1.723 1.72 1.72 0 001.723-1.723zm10 12a1.72 1.72 0 00-1.723-1.723 1.72 1.72 0 00-1.723 1.723 1.72 1.72 0 001.723 1.723 1.72 1.72 0 001.723-1.723zm9-24a1.72 1.72 0 00-1.723-1.723 1.72 1.72 0 00-1.723 1.723 1.72 1.72 0 001.723 1.723 1.72 1.72 0 001.723-1.723zm9-18a1.72 1.72 0 00-1.723-1.723 1.72 1.72 0 00-1.723 1.723 1.72 1.72 0 001.723 1.723 1.72 1.72 0 001.723-1.723zm9-8a1.72 1.72 0 00-1.723-1.723 1.72 1.72 0 00-1.723 1.723 1.72 1.72 0 001.723 1.723 1.72 1.72 0 001.723-1.723zm10 7a1.72 1.72 0 00-1.723-1.723 1.72 1.72 0 00-1.723 1.723 1.72 1.72 0 001.723 1.723 1.72 1.72 0 001.723-1.723zm9-12a1.72 1.72 0 00-1.723-1.723 1.72 1.72 0 00-1.723 1.723 1.72 1.72 0 001.723 1.723 1.72 1.72 0 001.723-1.723zm9-8a1.72 1.72 0 00-1.723-1.723 1.72 1.72 0 00-1.723 1.723 1.72 1.72 0 001.723 1.723 1.72 1.72 0 001.723-1.723zm9-6a1.72 1.72 0 00-1.723-1.723 1.72 1.72 0 00-1.723 1.723 1.72 1.72 0 001.723 1.723 1.72 1.72 0 001.723-1.723zm9-7a1.72 1.72 0 00-1.723-1.723 1.72 1.72 0 00-1.723 1.723 1.72 1.72 0 001.723 1.723 1.72 1.72 0 001.723-1.723zm10 9a1.72 1.72 0 00-1.723-1.723 1.72 1.72 0 00-1.723 1.723 1.72 1.72 0 001.723 1.723 1.72 1.72 0 001.723-1.723zm9 0a1.72 1.72 0 00-1.723-1.723 1.72 1.72 0 00-1.723 1.723 1.72 1.72 0 001.723 1.723 1.72 1.72 0 001.723-1.723zm9-4a1.72 1.72 0 00-1.723-1.723 1.72 1.72 0 00-1.723 1.723 1.72 1.72 0 001.723 1.723 1.72 1.72 0 001.723-1.723zm9-7a1.72 1.72 0 00-1.723-1.723 1.72 1.72 0 00-1.723 1.723 1.72 1.72 0 001.723 1.723 1.72 1.72 0 001.723-1.723zm9 3a1.72 1.72 0 00-1.723-1.723 1.72 1.72 0 00-1.723 1.723 1.72 1.72 0 001.723 1.723 1.72 1.72 0 001.723-1.723zm10 6a1.72 1.72 0 00-1.723-1.723 1.72 1.72 0 00-1.723 1.723 1.72 1.72 0 001.723 1.723 1.72 1.72 0 001.723-1.723zm9-3a1.72 1.72 0 00-1.723-1.723 1.72 1.72 0 00-1.723 1.723 1.72 1.72 0 001.723 1.723 1.72 1.72 0 001.723-1.723zm9 9a1.72 1.72 0 00-1.723-1.723 1.72 1.72 0 00-1.723 1.723 1.72 1.72 0 001.723 1.723 1.72 1.72 0 001.723-1.723zm9-2a1.72 1.72 0 00-1.723-1.723 1.72 1.72 0 00-1.723 1.723 1.72 1.72 0 001.723 1.723 1.72 1.72 0 001.723-1.723zm9 4a1.72 1.72 0 00-1.723-1.723 1.72 1.72 0 00-1.723 1.723 1.72 1.72 0 001.723 1.723 1.72 1.72 0 001.723-1.723zm10 0a1.72 1.72 0 00-1.723-1.723 1.72 1.72 0 00-1.723 1.723 1.72 1.72 0 001.723 1.723 1.72 1.72 0 001.723-1.723zm9-3a1.72 1.72 0 00-1.723-1.723 1.72 1.72 0 00-1.723 1.723 1.72 1.72 0 001.723 1.723 1.72 1.72 0 001.723-1.723zm9 6a1.72 1.72 0 00-1.723-1.723 1.72 1.72 0 00-1.723 1.723 1.72 1.72 0 001.723 1.723 1.72 1.72 0 001.723-1.723zm9 0a1.72 1.72 0 00-1.723-1.723 1.72 1.72 0 00-1.723 1.723 1.72 1.72 0 001.723 1.723 1.72 1.72 0 001.723-1.723zm9 13a1.72 1.72 0 00-1.723-1.723 1.72 1.72 0 00-1.723 1.723 1.72 1.72 0 001.723 1.723 1.72 1.72 0 001.723-1.723zm10 2a1.72 1.72 0 00-1.723-1.723 1.72 1.72 0 00-1.723 1.723 1.72 1.72 0 001.723 1.723 1.72 1.72 0 001.723-1.723zm9 15a1.72 1.72 0 00-1.723-1.723 1.72 1.72 0 00-1.723 1.723 1.72 1.72 0 001.723 1.723 1.72 1.72 0 001.723-1.723zm9 9a1.72 1.72 0 00-1.723-1.723 1.72 1.72 0 00-1.723 1.723 1.72 1.72 0 001.723 1.723 1.72 1.72 0 001.723-1.723zm9 19a1.72 1.72 0 00-1.723-1.723 1.72 1.72 0 00-1.723 1.723 1.72 1.72 0 001.723 1.723 1.72 1.72 0 001.723-1.723zm10 0a1.72 1.72 0 00-1.723-1.723 1.72 1.72 0 00-1.723 1.723 1.72 1.72 0 001.723 1.723 1.72 1.72 0 001.723-1.723zm0 0" fill-rule="evenodd" fill="#c8860a"/><path d="M127.723 194a1.72 1.72 0 00-1.723-1.723 1.72 1.72 0 00-1.723 1.723 1.72 1.72 0 001.723 1.723 1.72 1.72 0 001.723-1.723zm10-28a1.72 1.72 0 00-1.723-1.723 1.72 1.72 0 00-1.723 1.723 1.72 1.72 0 001.723 1.723 1.72 1.72 0 001.723-1.723zm9 9a1.72 1.72 0 00-1.723-1.723 1.72 1.72 0 00-1.723 1.723 1.72 1.72 0 001.723 1.723 1.72 1.72 0 001.723-1.723zm9-24a1.72 1.72 0 00-1.723-1.723 1.72 1.72 0 00-1.723 1.723 1.72 1.72 0 001.723 1.723 1.72 1.72 0 001.723-1.723zm9-7a1.72 1.72 0 00-1.723-1.723 1.72 1.72 0 00-1.723 1.723 1.72 1.72 0 001.723 1.723 1.72 1.72 0 001.723-1.723zm10-5a1.72 1.72 0 00-1.723-1.723 1.72 1.72 0 00-1.723 1.723 1.72 1.72 0 001.723 1.723 1.72 1.72 0 001.723-1.723zm9 0a1.72 1.72 0 00-1.723-1.723 1.72 1.72 0 00-1.723 1.723 1.72 1.72 0 001.723 1.723 1.72 1.72 0 001.723-1.723zm9-7a1.72 1.72 0 00-1.723-1.723 1.72 1.72 0 00-1.723 1.723 1.72 1.72 0 001.723 1.723 1.72 1.72 0 001.723-1.723zm9 7a1.72 1.72 0 00-1.723-1.723 1.72 1.72 0 00-1.723 1.723 1.72 1.72 0 001.723 1.723 1.72 1.72 0 001.723-1.723zm9-6a1.72 1.72 0 00-1.723-1.723 1.72 1.72 0 00-1.723 1.723 1.72 1.72 0 001.723 1.723 1.72 1.72 0 001.723-1.723zm10 6a1.72 1.72 0 00-1.723-1.723 1.72 1.72 0 00-1.723 1.723 1.72 1.72 0 001.723 1.723 1.72 1.72 0 001.723-1.723zm9 0a1.72 1.72 0 00-1.723-1.723 1.72 1.72 0 00-1.723 1.723 1.72 1.72 0 001.723 1.723 1.72 1.72 0 001.723-1.723zm9 2a1.72 1.72 0 00-1.723-1.723 1.72 1.72 0 00-1.723 1.723 1.72 1.72 0 001.723 1.723 1.72 1.72 0 001.723-1.723zm9-2a1.72 1.72 0 00-1.723-1.723 1.72 1.72 0 00-1.723 1.723 1.72 1.72 0 001.723 1.723 1.72 1.72 0 001.723-1.723zm9-3a1.72 1.72 0 00-1.723-1.723 1.72 1.72 0 00-1.723 1.723 1.72 1.72 0 001.723 1.723 1.72 1.72 0 001.723-1.723zm10-8a1.72 1.72 0 00-1.723-1.723 1.72 1.72 0 00-1.723 1.723 1.72 1.72 0 001.723 1.723 1.72 1.72 0 001.723-1.723zm9 3a1.72 1.72 0 00-1.723-1.723 1.72 1.72 0 00-1.723 1.723 1.72 1.72 0 001.723 1.723 1.72 1.72 0 001.723-1.723zm9 5a1.72 1.72 0 00-1.723-1.723 1.72 1.72 0 00-1.723 1.723 1.72 1.72 0 001.723 1.723 1.72 1.72 0 001.723-1.723zm9 0a1.72 1.72 0 00-1.723-1.723 1.72 1.72 0 00-1.723 1.723 1.72 1.72 0 001.723 1.723 1.72 1.72 0 001.723-1.723zm9 3a1.72 1.72 0 00-1.723-1.723 1.72 1.72 0 00-1.723 1.723 1.72 1.72 0 001.723 1.723 1.72 1.72 0 001.723-1.723zm10-3a1.72 1.72 0 00-1.723-1.723 1.72 1.72 0 00-1.723 1.723 1.72 1.72 0 001.723 1.723 1.72 1.72 0 001.723-1.723zm9 16a1.72 1.72 0 00-1.723-1.723 1.72 1.72 0 00-1.723 1.723 1.72 1.72 0 001.723 1.723 1.72 1.72 0 001.723-1.723zm9 4a1.72 1.72 0 00-1.723-1.723 1.72 1.72 0 00-1.723 1.723 1.72 1.72 0 001.723 1.723 1.72 1.72 0 001.723-1.723zm9-7a1.72 1.72 0 00-1.723-1.723 1.72 1.72 0 00-1.723 1.723 1.72 1.72 0 001.723 1.723 1.72 1.72 0 001.723-1.723zm9 3a1.72 1.72 0 00-1.723-1.723 1.72 1.72 0 00-1.723 1.723 1.72 1.72 0 001.723 1.723 1.72 1.72 0 001.723-1.723zm10 8a1.72 1.72 0 00-1.723-1.723 1.72 1.72 0 00-1.723 1.723 1.72 1.72 0 001.723 1.723 1.72 1.72 0 001.723-1.723zm9 10a1.72 1.72 0 00-1.723-1.723 1.72 1.72 0 00-1.723 1.723 1.72 1.72 0 001.723 1.723 1.72 1.72 0 001.723-1.723zm9 12a1.72 1.72 0 00-1.723-1.723 1.72 1.72 0 00-1.723 1.723 1.72 1.72 0 001.723 1.723 1.72 1.72 0 001.723-1.723zm9 12a1.72 1.72 0 00-1.723-1.723 1.72 1.72 0 00-1.723 1.723 1.72 1.72 0 001.723 1.723 1.72 1.72 0 001.723-1.723zm10-12a1.72 1.72 0 00-1.723-1.723 1.72 1.72 0 00-1.723 1.723 1.72 1.72 0 001.723 1.723 1.72 1.72 0 001.723-1.723zm9-81A1.72 1.72 0 00403 99.277a1.72 1.72 0 00-1.723 1.723 1.72 1.72 0 001.723 1.723 1.72 1.72 0 001.723-1.723zm9 81a1.72 1.72 0 00-1.723-1.723 1.72 1.72 0 00-1.723 1.723 1.72 1.72 0 001.723 1.723 1.72 1.72 0 001.723-1.723zm9-12a1.72 1.72 0 00-1.723-1.723 1.72 1.72 0 00-1.723 1.723 1.72 1.72 0 001.723 1.723 1.72 1.72 0 001.723-1.723zm9 24a1.72 1.72 0 00-1.723-1.723 1.72 1.72 0 00-1.723 1.723 1.72 1.72 0 001.723 1.723 1.72 1.72 0 001.723-1.723zm0 0" fill-rule="evenodd" fill="#833987"/><path d="M137.723 194a1.72 1.72 0 00-1.723-1.723 1.72 1.72 0 00-1.723 1.723 1.72 1.72 0 001.723 1.723 1.72 1.72 0 001.723-1.723zm9-36a1.72 1.72 0 00-1.723-1.723 1.72 1.72 0 00-1.723 1.723 1.72 1.72 0 001.723 1.723 1.72 1.72 0 001.723-1.723zm9-2a1.72 1.72 0 00-1.723-1.723 1.72 1.72 0 00-1.723 1.723 1.72 1.72 0 001.723 1.723 1.72 1.72 0 001.723-1.723zm9-7a1.72 1.72 0 00-1.723-1.723 1.72 1.72 0 00-1.723 1.723 1.72 1.72 0 001.723 1.723 1.72 1.72 0 001.723-1.723zm10-3a1.72 1.72 0 00-1.723-1.723 1.72 1.72 0 00-1.723 1.723 1.72 1.72 0 001.723 1.723 1.72 1.72 0 001.723-1.723zm9-7a1.72 1.72 0 00-1.723-1.723 1.72 1.72 0 00-1.723 1.723 1.72 1.72 0 001.723 1.723 1.72 1.72 0 001.723-1.723zm9-4a1.72 1.72 0 00-1.723-1.723 1.72 1.72 0 00-1.723 1.723 1.72 1.72 0 001.723 1.723 1.72 1.72 0 001.723-1.723zm9 0a1.72 1.72 0 00-1.723-1.723 1.72 1.72 0 00-1.723 1.723 1.72 1.72 0 001.723 1.723 1.72 1.72 0 001.723-1.723zm9-5a1.72 1.72 0 00-1.723-1.723 1.72 1.72 0 00-1.723 1.723 1.72 1.72 0 001.723 1.723 1.72 1.72 0 001.723-1.723zm10 2a1.72 1.72 0 00-1.723-1.723 1.72 1.72 0 00-1.723 1.723 1.72 1.72 0 001.723 1.723 1.72 1.72 0 001.723-1.723zm9 0a1.72 1.72 0 00-1.723-1.723 1.72 1.72 0 00-1.723 1.723 1.72 1.72 0 001.723 1.723 1.72 1.72 0 001.723-1.723zm9 0a1.72 1.72 0 00-1.723-1.723 1.72 1.72 0 00-1.723 1.723 1.72 1.72 0 001.723 1.723 1.72 1.72 0 001.723-1.723zm9-1a1.72 1.72 0 00-1.723-1.723 1.72 1.72 0 00-1.723 1.723 1.72 1.72 0 001.723 1.723 1.72 1.72 0 001.723-1.723zm9 2a1.72 1.72 0 00-1.723-1.723 1.72 1.72 0 00-1.723 1.723 1.72 1.72 0 001.723 1.723 1.72 1.72 0 001.723-1.723zm10 0a1.72 1.72 0 00-1.723-1.723 1.72 1.72 0 00-1.723 1.723 1.72 1.72 0 001.723 1.723 1.72 1.72 0 001.723-1.723zm9-1a1.72 1.72 0 00-1.723-1.723 1.72 1.72 0 00-1.723 1.723 1.72 1.72 0 001.723 1.723 1.72 1.72 0 001.723-1.723zm9 2a1.72 1.72 0 00-1.723-1.723 1.72 1.72 0 00-1.723 1.723 1.72 1.72 0 001.723 1.723 1.72 1.72 0 001.723-1.723zm9 1a1.72 1.72 0 00-1.723-1.723 1.72 1.72 0 00-1.723 1.723 1.72 1.72 0 001.723 1.723 1.72 1.72 0 001.723-1.723zm9 4a1.72 1.72 0 00-1.723-1.723 1.72 1.72 0 00-1.723 1.723 1.72 1.72 0 001.723 1.723 1.72 1.72 0 001.723-1.723zm10 0a1.72 1.72 0 00-1.723-1.723 1.72 1.72 0 00-1.723 1.723 1.72 1.72 0 001.723 1.723 1.72 1.72 0 001.723-1.723zm9-3a1.72 1.72 0 00-1.723-1.723 1.72 1.72 0 00-1.723 1.723 1.72 1.72 0 001.723 1.723 1.72 1.72 0 001.723-1.723zm9 0a1.72 1.72 0 00-1.723-1.723 1.72 1.72 0 00-1.723 1.723 1.72 1.72 0 001.723 1.723 1.72 1.72 0 001.723-1.723zm9 3a1.72 1.72 0 00-1.723-1.723 1.72 1.72 0 00-1.723 1.723 1.72 1.72 0 001.723 1.723 1.72 1.72 0 001.723-1.723zm9 13a1.72 1.72 0 00-1.723-1.723 1.72 1.72 0 00-1.723 1.723 1.72 1.72 0 001.723 1.723 1.72 1.72 0 001.723-1.723zm10-3a1.72 1.72 0 00-1.723-1.723 1.72 1.72 0 00-1.723 1.723 1.72 1.72 0 001.723 1.723 1.72 1.72 0 001.723-1.723zm9 7a1.72 1.72 0 00-1.723-1.723 1.72 1.72 0 00-1.723 1.723 1.72 1.72 0 001.723 1.723 1.72 1.72 0 001.723-1.723zm9 19a1.72 1.72 0 00-1.723-1.723 1.72 1.72 0 00-1.723 1.723 1.72 1.72 0 001.723 1.723 1.72 1.72 0 001.723-1.723zm9 7a1.72 1.72 0 00-1.723-1.723 1.72 1.72 0 00-1.723 1.723 1.72 1.72 0 001.723 1.723 1.72 1.72 0 001.723-1.723zm0 0" fill-rule="evenodd" fill="#1c8f6b"/><path d="M127.723 166a1.72 1.72 0 00-1.723-1.723 1.72 1.72 0 00-1.723 1.723 1.72 1.72 0 001.723 1.723 1.72 1.72 0 001.723-1.723zm10 4a1.72 1.72 0 00-1.723-1.723 1.72 1.72 0 00-1.723 1.723 1.72 1.72 0 001.723 1.723 1.72 1.72 0 001.723-1.723zm9-26a1.72 1.72 0 00-1.723-1.723 1.72 1.72 0 00-1.723 1.723 1.72 1.72 0 001.723 1.723 1.72 1.72 0 001.723-1.723zm9-9a1.72 1.72 0 00-1.723-1.723 1.72 1.72 0 00-1.723 1.723 1.72 1.72 0 001.723 1.723 1.72 1.72 0 001.723-1.723zm9 9a1.72 1.72 0 00-1.723-1.723 1.72 1.72 0 00-1.723 1.723 1.72 1.72 0 001.723 1.723 1.72 1.72 0 001.723-1.723zm10-12a1.72 1.72 0 00-1.723-1.723 1.72 1.72 0 00-1.723 1.723 1.72 1.72 0 001.723 1.723 1.72 1.72 0 001.723-1.723zm9 8a1.72 1.72 0 00-1.723-1.723 1.72 1.72 0 00-1.723 1.723 1.72 1.72 0 001.723 1.723 1.72 1.72 0 001.723-1.723zm9 7a1.72 1.72 0 00-1.723-1.723 1.72 1.72 0 00-1.723 1.723 1.72 1.72 0 001.723 1.723 1.72 1.72 0 001.723-1.723zm9-3a1.72 1.72 0 00-1.723-1.723 1.72 1.72 0 00-1.723 1.723 1.72 1.72 0 001.723 1.723 1.72 1.72 0 001.723-1.723zm9-15a1.72 1.72 0 00-1.723-1.723 1.72 1.72 0 00-1.723 1.723 1.72 1.72 0 001.723 1.723 1.72 1.72 0 001.723-1.723zm10 4a1.72 1.72 0 00-1.723-1.723 1.72 1.72 0 00-1.723 1.723 1.72 1.72 0 001.723 1.723 1.72 1.72 0 001.723-1.723zm9 6a1.72 1.72 0 00-1.723-1.723 1.72 1.72 0 00-1.723 1.723 1.72 1.72 0 001.723 1.723 1.72 1.72 0 001.723-1.723zm9-9a1.72 1.72 0 00-1.723-1.723 1.72 1.72 0 00-1.723 1.723 1.72 1.72 0 001.723 1.723 1.72 1.72 0 001.723-1.723zm9 1a1.72 1.72 0 00-1.723-1.723 1.72 1.72 0 00-1.723 1.723 1.72 1.72 0 001.723 1.723 1.72 1.72 0 001.723-1.723zm9 4a1.72 1.72 0 00-1.723-1.723 1.72 1.72 0 00-1.723 1.723 1.72 1.72 0 001.723 1.723 1.72 1.72 0 001.723-1.723zm10 4a1.72 1.72 0 00-1.723-1.723 1.72 1.72 0 00-1.723 1.723 1.72 1.72 0 001.723 1.723 1.72 1.72 0 001.723-1.723zm9 1a1.72 1.72 0 00-1.723-1.723 1.72 1.72 0 00-1.723 1.723 1.72 1.72 0 001.723 1.723 1.72 1.72 0 001.723-1.723zm9 7a1.72 1.72 0 00-1.723-1.723 1.72 1.72 0 00-1.723 1.723 1.72 1.72 0 001.723 1.723 1.72 1.72 0 001.723-1.723zm9-5a1.72 1.72 0 00-1.723-1.723 1.72 1.72 0 00-1.723 1.723 1.72 1.72 0 001.723 1.723 1.72 1.72 0 001.723-1.723zm9-2a1.72 1.72 0 00-1.723-1.723 1.72 1.72 0 00-1.723 1.723 1.72 1.72 0 001.723 1.723 1.72 1.72 0 001.723-1.723zm10 4a1.72 1.72 0 00-1.723-1.723 1.72 1.72 0 00-1.723 1.723 1.72 1.72 0 001.723 1.723 1.72 1.72 0 001.723-1.723zm9-1a1.72 1.72 0 00-1.723-1.723 1.72 1.72 0 00-1.723 1.723 1.72 1.72 0 001.723 1.723 1.72 1.72 0 001.723-1.723zm9 6a1.72 1.72 0 00-1.723-1.723 1.72 1.72 0 00-1.723 1.723 1.72 1.72 0 001.723 1.723 1.72 1.72 0 001.723-1.723zm9 3a1.72 1.72 0 00-1.723-1.723 1.72 1.72 0 00-1.723 1.723 1.72 1.72 0 001.723 1.723 1.72 1.72 0 001.723-1.723zm9 6a1.72 1.72 0 00-1.723-1.723 1.72 1.72 0 00-1.723 1.723 1.72 1.72 0 001.723 1.723 1.72 1.72 0 001.723-1.723zm10 2a1.72 1.72 0 00-1.723-1.723 1.72 1.72 0 00-1.723 1.723 1.72 1.72 0 001.723 1.723 1.72 1.72 0 001.723-1.723zm9 0a1.72 1.72 0 00-1.723-1.723 1.72 1.72 0 00-1.723 1.723 1.72 1.72 0 001.723 1.723 1.72 1.72 0 001.723-1.723zm9 22a1.72 1.72 0 00-1.723-1.723 1.72 1.72 0 00-1.723 1.723 1.72 1.72 0 001.723 1.723 1.72 1.72 0 001.723-1.723zm9 0a1.72 1.72 0 00-1.723-1.723 1.72 1.72 0 00-1.723 1.723 1.72 1.72 0 001.723 1.723 1.72 1.72 0 001.723-1.723zm10-16a1.72 1.72 0 00-1.723-1.723 1.72 1.72 0 00-1.723 1.723 1.72 1.72 0 001.723 1.723 1.72 1.72 0 001.723-1.723zm9-6a1.72 1.72 0 00-1.723-1.723 1.72 1.72 0 00-1.723 1.723 1.72 1.72 0 001.723 1.723 1.72 1.72 0 001.723-1.723zm9 6a1.72 1.72 0 00-1.723-1.723 1.72 1.72 0 00-1.723 1.723 1.72 1.72 0 001.723 1.723 1.72 1.72 0 001.723-1.723zm9 28a1.72 1.72 0 00-1.723-1.723 1.72 1.72 0 00-1.723 1.723 1.72 1.72 0 001.723 1.723 1.72 1.72 0 001.723-1.723zm9-12a1.72 1.72 0 00-1.723-1.723 1.72 1.72 0 00-1.723 1.723 1.72 1.72 0 001.723 1.723 1.72 1.72 0 001.723-1.723zm10 12a1.72 1.72 0 00-1.723-1.723 1.72 1.72 0 00-1.723 1.723 1.72 1.72 0 001.723 1.723 1.72 1.72 0 001.723-1.723zm0 0" fill-rule="evenodd" fill="#a54f05"/><path d="M109.723 194a1.72 1.72 0 00-1.723-1.723 1.72 1.72 0 00-1.723 1.723 1.72 1.72 0 001.723 1.723 1.72 1.72 0 001.723-1.723zm9-52a1.72 1.72 0 00-1.723-1.723 1.72 1.72 0 00-1.723 1.723 1.72 1.72 0 001.723 1.723 1.72 1.72 0 001.723-1.723zm9-14a1.72 1.72 0 00-1.723-1.723 1.72 1.72 0 00-1.723 1.723 1.72 1.72 0 001.723 1.723 1.72 1.72 0 001.723-1.723zm10-8a1.72 1.72 0 00-1.723-1.723 1.72 1.72 0 00-1.723 1.723 1.72 1.72 0 001.723 1.723 1.72 1.72 0 001.723-1.723zm9-17a1.72 1.72 0 00-1.723-1.723 1.72 1.72 0 00-1.723 1.723 1.72 1.72 0 001.723 1.723 1.72 1.72 0 001.723-1.723zm9-7A1.72 1.72 0 00154 94.277 1.72 1.72 0 00152.277 96 1.72 1.72 0 00154 97.723 1.72 1.72 0 00155.723 96zm9-5A1.72 1.72 0 00163 89.277 1.72 1.72 0 00161.277 91 1.72 1.72 0 00163 92.723 1.72 1.72 0 00164.723 91zm10-2A1.72 1.72 0 00173 87.277 1.72 1.72 0 00171.277 89 1.72 1.72 0 00173 90.723 1.72 1.72 0 00174.723 89zm9-2A1.72 1.72 0 00182 85.277 1.72 1.72 0 00180.277 87 1.72 1.72 0 00182 88.723 1.72 1.72 0 00183.723 87zm9-5A1.72 1.72 0 00191 80.277 1.72 1.72 0 00189.277 82 1.72 1.72 0 00191 83.723 1.72 1.72 0 00192.723 82zm9-3A1.72 1.72 0 00200 77.277 1.72 1.72 0 00198.277 79 1.72 1.72 0 00200 80.723 1.72 1.72 0 00201.723 79zm9-1A1.72 1.72 0 00209 76.277 1.72 1.72 0 00207.277 78 1.72 1.72 0 00209 79.723 1.72 1.72 0 00210.723 78zm10 0A1.72 1.72 0 00219 76.277 1.72 1.72 0 00217.277 78 1.72 1.72 0 00219 79.723 1.72 1.72 0 00220.723 78zm9 2A1.72 1.72 0 00228 78.277 1.72 1.72 0 00226.277 80 1.72 1.72 0 00228 81.723 1.72 1.72 0 00229.723 80zm9-1A1.72 1.72 0 00237 77.277 1.72 1.72 0 00235.277 79 1.72 1.72 0 00237 80.723 1.72 1.72 0 00238.723 79zm9-4A1.72 1.72 0 00246 73.277 1.72 1.72 0 00244.277 75 1.72 1.72 0 00246 76.723 1.72 1.72 0 00247.723 75zm9 4A1.72 1.72 0 00255 77.277 1.72 1.72 0 00253.277 79 1.72 1.72 0 00255 80.723 1.72 1.72 0 00256.723 79zm10 0A1.72 1.72 0 00265 77.277 1.72 1.72 0 00263.277 79 1.72 1.72 0 00265 80.723 1.72 1.72 0 00266.723 79zm9 1A1.72 1.72 0 00274 78.277 1.72 1.72 0 00272.277 80 1.72 1.72 0 00274 81.723 1.72 1.72 0 00275.723 80zm9 3A1.72 1.72 0 00283 81.277 1.72 1.72 0 00281.277 83 1.72 1.72 0 00283 84.723 1.72 1.72 0 00284.723 83zm9 2A1.72 1.72 0 00292 83.277 1.72 1.72 0 00290.277 85 1.72 1.72 0 00292 86.723 1.72 1.72 0 00293.723 85zm9 2A1.72 1.72 0 00301 85.277 1.72 1.72 0 00299.277 87 1.72 1.72 0 00301 88.723 1.72 1.72 0 00302.723 87zm10 3A1.72 1.72 0 00311 88.277 1.72 1.72 0 00309.277 90 1.72 1.72 0 00311 91.723 1.72 1.72 0 00312.723 90zm9 0A1.72 1.72 0 00320 88.277 1.72 1.72 0 00318.277 90 1.72 1.72 0 00320 91.723 1.72 1.72 0 00321.723 90zm9 4A1.72 1.72 0 00329 92.277 1.72 1.72 0 00327.277 94 1.72 1.72 0 00329 95.723 1.72 1.72 0 00330.723 94zm9 2A1.72 1.72 0 00338 94.277 1.72 1.72 0 00336.277 96 1.72 1.72 0 00338 97.723 1.72 1.72 0 00339.723 96zm9 4A1.72 1.72 0 00347 98.277a1.72 1.72 0 00-1.723 1.723 1.72 1.72 0 001.723 1.723 1.72 1.72 0 001.723-1.723zm10 5a1.72 1.72 0 00-1.723-1.723 1.72 1.72 0 00-1.723 1.723 1.72 1.72 0 001.723 1.723 1.72 1.72 0 001.723-1.723zm9 6a1.72 1.72 0 00-1.723-1.723 1.72 1.72 0 00-1.723 1.723 1.72 1.72 0 001.723 1.723 1.72 1.72 0 001.723-1.723zm9 6a1.72 1.72 0 00-1.723-1.723 1.72 1.72 0 00-1.723 1.723 1.72 1.72 0 001.723 1.723 1.72 1.72 0 001.723-1.723zm9 7a1.72 1.72 0 00-1.723-1.723 1.72 1.72 0 00-1.723 1.723 1.72 1.72 0 001.723 1.723 1.72 1.72 0 001.723-1.723zm10 4a1.72 1.72 0 00-1.723-1.723 1.72 1.72 0 00-1.723 1.723 1.72 1.72 0 001.723 1.723 1.72 1.72 0 001.723-1.723zm9-31A1.72 1.72 0 00403 95.277 1.72 1.72 0 00401.277 97 1.72 1.72 0 00403 98.723 1.72 1.72 0 00404.723 97zm9 37a1.72 1.72 0 00-1.723-1.723 1.72 1.72 0 00-1.723 1.723 1.72 1.72 0 001.723 1.723 1.72 1.72 0 001.723-1.723zm9 8a1.72 1.72 0 00-1.723-1.723 1.72 1.72 0 00-1.723 1.723 1.72 1.72 0 001.723 1.723 1.72 1.72 0 001.723-1.723zm9 9a1.72 1.72 0 00-1.723-1.723 1.72 1.72 0 00-1.723 1.723 1.72 1.72 0 001.723 1.723 1.72 1.72 0 001.723-1.723zm10 5a1.72 1.72 0 00-1.723-1.723 1.72 1.72 0 00-1.723 1.723 1.72 1.72 0 001.723 1.723 1.72 1.72 0 001.723-1.723zm0 0" fill-rule="evenodd" fill="#6846c7"/><path d="M495 286H25m0 0V4m0 0h470m0 0v282" fill="none" stroke-width=".5" stroke-linecap="square" stroke="#666" stroke-miterlimit="3.25"/><path d="M52.816 286v-6.527" fill="none" stroke-width=".5" stroke="#666" stroke-miterlimit="3.25"/><g fill="#666"><use xlink:href="#ag" x="38.316" y="298"/><use xlink:href="#ah" x="43.834" y="298"/><use xlink:href="#ai" x="49.273" y="298"/></g><g fill="#666"><use xlink:href="#aj" x="56.316" y="298"/><use xlink:href="#ak" x="61.932" y="298"/></g><path d="M181.73 286v-6.527" fill="none" stroke-width=".5" stroke="#666" stroke-miterlimit="3.25"/><g fill="#666"><use xlink:href="#ag" x="167.231" y="298"/><use xlink:href="#ah" x="172.748" y="298"/><use xlink:href="#ai" x="178.188" y="298"/></g><g fill="#666"><use xlink:href="#al" x="185.231" y="298"/><use xlink:href="#am" x="190.846" y="298"/></g><path d="M310.645 286v-6.527" fill="none" stroke-width=".5" stroke="#666" stroke-miterlimit="3.25"/><g fill="#666"><use xlink:href="#an" x="296.145" y="298"/><use xlink:href="#ao" x="301.672" y="298"/><use xlink:href="#ap" x="306.97" y="298"/></g><g fill="#666"><use xlink:href="#aj" x="314.145" y="298"/><use xlink:href="#aq" x="319.76" y="298"/></g><path d="M439.559 286v-6.527" fill="none" stroke-width=".5" stroke="#666" stroke-miterlimit="3.25"/><g fill="#666"><use xlink:href="#an" x="425.059" y="298"/><use xlink:href="#ao" x="430.587" y="298"/><use xlink:href="#ap" x="435.884" y="298"/></g><g fill="#666"><use xlink:href="#al" x="443.059" y="298"/><use xlink:href="#ar" x="448.674" y="298"/></g><path d="M25 274.871h4.7" fill="none" stroke-width=".1" stroke="#666" stroke-miterlimit="3.25"/><g fill="#666"><use xlink:href="#aq" x="3" y="277.369"/><use xlink:href="#as" x="8.615" y="277.369"/><use xlink:href="#aq" x="11.247" y="277.369"/><use xlink:href="#aj" x="16.862" y="277.369"/></g><path d="M25 234.531h4.7" fill="none" stroke-width=".1" stroke="#666" stroke-miterlimit="3.25"/><g fill="#666"><use xlink:href="#aq" x="3" y="237.032"/><use xlink:href="#as" x="8.615" y="237.032"/><use xlink:href="#aj" x="11.247" y="237.032"/><use xlink:href="#aq" x="16.862" y="237.032"/></g><path d="M25 194.195h4.7" fill="none" stroke-width=".1" stroke="#666" stroke-miterlimit="3.25"/><use xlink:href="#aj" x="16" y="196.694" fill="#666"/><path d="M25 153.855h4.7" fill="none" stroke-width=".1" stroke="#666" stroke-miterlimit="3.25"/><g fill="#666"><use xlink:href="#aj" x="11" y="156.357"/><use xlink:href="#aq" x="16.615" y="156.357"/></g><path d="M25 113.52h4.7" fill="none" stroke-width=".1" stroke="#666" stroke-miterlimit="3.25"/><g fill="#666"><use xlink:href="#aj" x="5" y="116.019"/><use xlink:href="#aq" x="10.615" y="116.019"/><use xlink:href="#aq" x="16.23" y="116.019"/></g><path d="M25 73.184h4.7" fill="none" stroke-width=".1" stroke="#666" stroke-miterlimit="3.25"/><g fill="#666"><use xlink:href="#aj" y="75.682"/><use xlink:href="#aq" x="5.615" y="75.682"/><use xlink:href="#aq" x="11.23" y="75.682"/><use xlink:href="#aq" x="16.846" y="75.682"/></g><path d="M25 32.844h4.7" fill="none" stroke-width=".1" stroke="#666" stroke-miterlimit="3.25"/><g fill="#666"><use xlink:href="#aj" x="5" y="36.845"/><use xlink:href="#aq" x="10.615" y="36.845"/></g><use xlink:href="#at" x="16" y="32.845" fill="#666"/><path d="M25 283.816h2.398M25 281.117h2.398M25 278.777h2.398M25 276.715h2.398M25 262.727h2.398M25 255.625h2.398M25 250.582h2.398M25 246.676h2.398M25 243.48h2.398M25 240.781h2.398M25 238.441h2.398M25 236.379h2.398M25 222.39h2.398M25 215.285h2.398M25 210.246h2.398M25 206.336h2.398M25 203.145h2.398M25 200.441h2.398M25 198.102h2.398M25 196.04h2.398M25 182.05h2.398M25 174.95h2.398M25 169.91h2.398M25 166h2.398M25 162.805h2.398m-2.398-2.7h2.398M25 157.766h2.398M25 155.703h2.398M25 141.715h2.398M25 134.61h2.398M25 129.57h2.398M25 125.664h2.398M25 122.469h2.398M25 119.77h2.398M25 117.43h2.398M25 115.363h2.398M25 101.375h2.398M25 94.273h2.398M25 89.234h2.398M25 85.324h2.398M25 82.129h2.398M25 79.43h2.398M25 77.09h2.398M25 75.027h2.398M25 61.04h2.398M25 53.938h2.398M25 48.895h2.398M25 44.988h2.398M25 41.793h2.398M25 39.094h2.398M25 36.754h2.398M25 34.691h2.398M25 20.703h2.398M25 13.598h2.398M25 8.559h2.398M25 4.648h2.398" fill="none" stroke-width=".1" stroke="#666" stroke-miterlimit="3.25"/><path d="M52.816 4v6.527M181.73 4v6.527M310.645 4v6.527M439.559 4v6.527" fill="none" stroke-width=".5" stroke="#666" stroke-miterlimit="3.25"/><path d="M495 274.871h-4.7m4.7-40.34h-4.7m4.7-40.336h-4.7m4.7-40.34h-4.7m4.7-40.335h-4.7m4.7-40.336h-4.7m4.7-40.34h-4.7m4.7 250.972h-2.398m2.398-2.699h-2.398m2.398-2.34h-2.398m2.398-2.062h-2.398M495 262.727h-2.398m2.398-7.102h-2.398m2.398-5.043h-2.398m2.398-3.906h-2.398M495 243.48h-2.398m2.398-2.699h-2.398m2.398-2.34h-2.398m2.398-2.062h-2.398M495 222.39h-2.398m2.398-7.105h-2.398m2.398-5.039h-2.398m2.398-3.91h-2.398m2.398-3.191h-2.398m2.398-2.704h-2.398m2.398-2.339h-2.398M495 196.04h-2.398M495 182.05h-2.398m2.398-7.1h-2.398m2.398-5.04h-2.398M495 166h-2.398m2.398-3.195h-2.398m2.398-2.7h-2.398m2.398-2.339h-2.398m2.398-2.063h-2.398M495 141.715h-2.398M495 134.61h-2.398m2.398-5.04h-2.398m2.398-3.906h-2.398m2.398-3.195h-2.398M495 119.77h-2.398m2.398-2.34h-2.398m2.398-2.067h-2.398M495 101.375h-2.398M495 94.273h-2.398M495 89.234h-2.398m2.398-3.91h-2.398M495 82.129h-2.398M495 79.43h-2.398M495 77.09h-2.398M495 75.027h-2.398M495 61.04h-2.398M495 53.938h-2.398M495 48.895h-2.398M495 44.988h-2.398M495 41.793h-2.398M495 39.094h-2.398m2.398-2.34h-2.398M495 34.691h-2.398M495 20.703h-2.398M495 13.598h-2.398M495 8.559h-2.398M495 4.648h-2.398" fill="none" stroke-width=".1" stroke="#666" stroke-miterlimit="3.25"/></svg>