<svg xmlns="http://www.w3.org/2000/svg" xmlns:xlink="http://www.w3.org/1999/xlink" width="500pt" height="352" viewBox="0 0 500 264"><defs><symbol overflow="visible" id="a"><path d="M4.844-3.285H1.762v2.52h3.582V0H.824v-7.11h4.469v.774H1.762v2.281h3.082zm0 0"/></symbol><symbol overflow="visible" id="b"><path d="M2.457-3.355l1.172-1.926h1.055l-1.73 2.61L4.733 0H3.691L2.47-1.977 1.25 0H.2l1.784-2.672-1.73-2.61h1.043zm0 0"/></symbol><symbol overflow="visible" id="c"><path d="M5.148-2.582c0 .805-.187 1.45-.554 1.941-.367.493-.864.739-1.492.739-.641 0-1.149-.203-1.516-.61v2.543H.684V-5.28h.824l.047.586c.367-.457.875-.688 1.53-.688.634 0 1.138.242 1.509.719.367.48.554 1.144.554 2zm-.906-.106c0-.593-.125-1.062-.379-1.41-.254-.343-.601-.515-1.047-.515-.546 0-.957.242-1.23.726v2.524c.27.48.684.722 1.242.722.434 0 .777-.171 1.031-.515.258-.344.383-.852.383-1.532zm0 0"/></symbol><symbol overflow="visible" id="d"><path d="M1.766-.766h3.37V0H.825v-7.11h.942zm0 0"/></symbol><symbol overflow="visible" id="e"><path d="M.445-2.691c0-.516.102-.98.305-1.395a2.25 2.25 0 01.848-.957c.363-.227.777-.34 1.246-.34.719 0 1.3.25 1.742.75.445.496.668 1.16.668 1.985v.066c0 .512-.098.977-.297 1.383a2.24 2.24 0 01-.844.957 2.35 2.35 0 01-1.261.34c-.715 0-1.297-.25-1.743-.746-.445-.5-.664-1.157-.664-1.977zm.907.109c0 .586.136 1.055.41 1.41.27.356.633.531 1.09.531.46 0 .824-.18 1.093-.539.27-.36.407-.863.407-1.511 0-.579-.137-1.047-.415-1.407a1.312 1.312 0 00-1.093-.543c-.446 0-.809.18-1.082.536-.274.355-.41.863-.41 1.523zm0 0"/></symbol><symbol overflow="visible" id="f"><path d="M.469-2.688c0-.82.191-1.476.57-1.964.383-.485.887-.73 1.516-.73.644 0 1.148.23 1.507.687l.043-.586h.825v5.156c0 .684-.2 1.219-.606 1.613-.406.395-.949.59-1.633.59a2.71 2.71 0 01-1.12-.242c-.364-.164-.641-.387-.833-.668l.469-.543c.387.477.86.719 1.418.719.441 0 .785-.125 1.031-.371.246-.246.367-.598.367-1.047v-.453c-.359.418-.855.625-1.48.625-.617 0-1.117-.25-1.5-.746-.383-.5-.574-1.18-.574-2.04zm.906.106c0 .594.125 1.062.367 1.402.246.34.586.512 1.028.512.57 0 .988-.262 1.253-.777V-3.86c-.277-.504-.691-.754-1.246-.754-.437 0-.78.168-1.027.511-.25.344-.375.848-.375 1.52zm0 0"/></symbol><symbol overflow="visible" id="g"><path d="M1.664 0H.762v-5.281h.902zM.688-6.684c0-.148.046-.27.136-.37.09-.102.223-.153.395-.153.176 0 .312.05.402.152.09.102.137.223.137.371 0 .145-.047.27-.137.364-.09.097-.223.148-.402.148-.176 0-.305-.047-.395-.148a.518.518 0 01-.136-.364zm0 0"/></symbol><symbol overflow="visible" id="h"><path d="M3.758-1.402a.659.659 0 00-.274-.567c-.183-.136-.504-.254-.96-.351-.458-.098-.82-.215-1.09-.352-.27-.137-.47-.297-.598-.488a1.161 1.161 0 01-.191-.672c0-.434.183-.8.55-1.098.367-.3.832-.453 1.403-.453.597 0 1.086.156 1.457.465.375.309.558.707.558 1.188h-.906c0-.247-.105-.461-.316-.641-.211-.18-.473-.27-.793-.27-.328 0-.586.075-.77.22a.666.666 0 00-.281.558c0 .218.086.383.258.496.172.11.484.215.937.316.45.102.817.219 1.094.36.281.14.488.308.625.507.133.196.203.434.203.72 0 .472-.191.85-.566 1.136-.38.285-.868.426-1.473.426-.422 0-.797-.075-1.121-.223a1.852 1.852 0 01-.766-.629 1.513 1.513 0 01-.273-.871h.902a.93.93 0 00.363.719c.227.18.528.265.895.265.344 0 .617-.066.824-.207a.635.635 0 00.309-.554zm0 0"/></symbol><symbol overflow="visible" id="i"><path d="M1.91-6.563v1.282h.985v.695H1.91v3.277c0 .211.043.371.13.477.089.105.237.16.452.16.102 0 .246-.023.43-.062V0a2.573 2.573 0 01-.695.098c-.403 0-.707-.121-.914-.368-.204-.242-.305-.59-.305-1.039v-3.277H.043v-.695h.965v-1.282zm0 0"/></symbol><symbol overflow="visible" id="j"><path d="M2.805-.64a1.3 1.3 0 00.843-.294 1.01 1.01 0 00.399-.73h.855c-.015.3-.12.59-.312.863a2.03 2.03 0 01-.77.653 2.2 2.2 0 01-1.015.246c-.72 0-1.293-.239-1.72-.72C.66-1.101.45-1.757.45-2.593v-.148c0-.516.094-.973.285-1.375.188-.399.457-.711.813-.93.351-.223.77-.336 1.25-.336.594 0 1.086.18 1.476.535.395.356.602.817.63 1.38h-.856a1.238 1.238 0 00-.387-.84 1.217 1.217 0 00-.863-.333c-.457 0-.813.168-1.067.496-.253.332-.378.81-.378 1.434v.172c0 .61.125 1.078.375 1.406.25.328.609.492 1.078.492zm0 0"/></symbol><symbol overflow="visible" id="k"><path d="M5.047-3.031c0 1.058-.18 1.844-.54 2.36-.362.51-.925.769-1.694.769-.758 0-1.32-.25-1.684-.754C.766-1.16.574-1.91.562-2.91v-1.207c0-1.043.18-1.82.54-2.328.363-.508.93-.762 1.703-.762.765 0 1.328.246 1.687.734.36.489.547 1.246.555 2.27zm-.902-1.235c0-.765-.106-1.324-.32-1.675-.216-.348-.555-.524-1.02-.524-.465 0-.801.176-1.012.524-.211.347-.32.882-.328 1.605v1.445c0 .77.113 1.336.336 1.704.222.367.558.546 1.012.546.445 0 .777-.171.992-.515.218-.344.332-.89.34-1.633zm0 0"/></symbol><symbol overflow="visible" id="l"><path d="M1.008-3.563l.36-3.546h3.64v.836H2.133l-.215 1.937a2.32 2.32 0 011.187-.309c.649 0 1.16.215 1.543.645.383.426.57 1.004.57 1.734 0 .735-.195 1.309-.593 1.73-.395.423-.945.634-1.656.634-.63 0-1.14-.176-1.54-.524C1.032-.773.81-1.254.75-1.87h.855c.055.406.2.715.434.922.234.207.547.308.93.308.422 0 .75-.14.988-.43.238-.284.36-.679.36-1.187 0-.472-.13-.855-.387-1.144-.258-.285-.606-.43-1.035-.43-.395 0-.704.086-.926.258l-.242.195zm0 0"/></symbol><symbol overflow="visible" id="m"><path d="M3.559 0h-.907v-6.02l-1.824.668v-.82l2.59-.973h.14zm0 0"/></symbol><symbol overflow="visible" id="n"><path d="M5.25 0H.59v-.648l2.46-2.735c.364-.414.618-.75.755-1.008.14-.257.21-.527.21-.804 0-.371-.113-.676-.34-.914-.222-.239-.523-.356-.898-.356-.449 0-.797.13-1.047.383-.25.254-.37.613-.37 1.066H.452c0-.652.211-1.183.633-1.586.422-.402.984-.605 1.691-.605.66 0 1.184.172 1.567.52.386.347.578.808.578 1.382 0 .703-.445 1.535-1.336 2.5L1.68-.738h3.57zm0 0"/></symbol><symbol overflow="visible" id="o"><path d="M1.906-3.992h.676c.426-.008.762-.121 1.008-.34.242-.219.363-.512.363-.883 0-.832-.414-1.25-1.242-1.25-.39 0-.703.113-.938.336-.23.223-.347.516-.347.887H.523c0-.563.204-1.031.618-1.406.41-.372.933-.559 1.57-.559.672 0 1.195.176 1.578.531.379.356.57.848.57 1.48 0 .31-.101.61-.3.9a1.81 1.81 0 01-.817.648c.39.125.692.328.903.617.214.285.32.636.32 1.047 0 .64-.207 1.144-.625 1.52-.418.374-.957.562-1.625.562s-1.211-.18-1.63-.543c-.417-.36-.624-.836-.624-1.43h.906c0 .375.121.672.367.898.243.227.57.336.98.336.438 0 .77-.113 1-.34.231-.23.349-.554.349-.98 0-.414-.125-.734-.383-.953-.254-.223-.618-.336-1.098-.344h-.676zm0 0"/></symbol><symbol overflow="visible" id="p"><path d="M3.965-2.148h.887v.664h-.887V0h-.817v-1.484H.234v-.48l2.864-4.434h.867zm-2.809 0h1.992v-3.137l-.097.176zm0 0"/></symbol><symbol overflow="visible" id="q"><path d="M.906-3.207l.324-3.191h3.278v.75H1.922l-.195 1.746a2.081 2.081 0 011.07-.278c.582 0 1.043.192 1.387.578.343.387.515.907.515 1.563 0 .66-.18 1.18-.535 1.559-.355.378-.851.566-1.492.566-.567 0-1.027-.156-1.383-.469-.36-.312-.562-.746-.613-1.3h.77c.05.367.179.644.39.828.21.187.492.28.836.28.379 0 .676-.128.89-.386.215-.258.32-.617.32-1.07 0-.426-.112-.77-.347-1.031-.234-.258-.543-.387-.93-.387-.355 0-.632.078-.835.23l-.215.18zm0 0"/></symbol></defs><path d="M94.71 247.36V4m63.376 243.36V4m63.374 243.36V4m63.376 243.36V4m63.374 243.36V4m63.376 243.36V4M25 236.191h405.602M25 185.852h405.602M25 135.508h405.602M25 85.168h405.602M25 34.824h405.602" fill="none" stroke="#666" stroke-opacity=".5" stroke-dasharray="1,2" stroke-miterlimit="3.25"/><path d="M93.559 247.36l.074-5.141.129-6.266.129-4.875.129-3.988.128-3.38.13-2.929.128-2.59.13-2.316.128-2.102.129-1.918.129-1.77.129-1.636.129-1.527.129-1.43.257-2.613.121-1.121.118-1.07.242-2 .121-.934.117-.902.242-1.7.121-.804.122-.782.238-1.48.48-2.703.121-.63.121-.612.239-1.184.48-2.195.121-.516.121-.508.239-.984.48-1.852.121-.441.121-.434.239-.843.48-1.606.961-2.922.242-.68.239-.66.484-1.27.96-2.366.259-.602.261-.59.52-1.144 1.043-2.14.133-.255.129-.254.261-.5.52-.968 1.043-1.844.129-.219.132-.223.258-.433.524-.848 1.043-1.62 2.082-2.985.125-.164.12-.164.243-.325.488-.636.973-1.239 1.945-2.328 3.89-4.183.122-.121.117-.122.238-.234.48-.473.954-.918 1.906-1.765 3.817-3.278.258-.21.261-.211.516-.418 1.035-.82 2.07-1.587 4.141-2.992 7.727-5.062 8.375-4.91 8.222-4.403 7.668-3.82 8.317-3.902 7.761-3.465 8.41-3.594 8.258-3.398 7.707-3.07L216.09 94l7.797-2.957 7.648-2.84 8.293-3.027 7.738-2.781 8.391-2.977 8.234-2.883 7.684-2.66 8.328-2.86 7.777-2.648 7.625-2.578 8.27-2.777 7.719-2.578 8.367-2.782 7.812-2.586 7.66-2.523 8.31-2.73 7.753-2.54 8.402-2.746 8.25-2.687 7.696-2.5 8.344-2.707 7.789-2.524 7.636-2.468 8.285-2.676 7.735-2.496.133-.043.136-.043.27-.086.539-.176 3.234-1.043.137-.043.133-.043.27-.086.542-.176 1.078-.347.133-.043.137-.043.27-.086.539-.176.132-.043.137-.043.27-.086.136-.043.133-.047.137-.043.133-.043" fill="none" stroke-width="1.6" stroke-linecap="square" stroke="#a60000" stroke-opacity=".3" stroke-miterlimit="3.25"/><path d="M82.625 247.36l.105-2.997.13-3.207.132-2.804.13-2.493.132-2.246.133-2.039.129-1.87.132-1.731.13-1.606.132-1.5.262-2.738.133-1.254.129-1.191.265-2.211.13-1.032.132-.988.262-1.86.132-.878.13-.848.261-1.605.527-2.926.13-.676.132-.66.262-1.27.523-2.355.13-.547.128-.535.258-1.035.516-1.95.128-.464.13-.453.257-.891.516-1.691.129-.407.129-.398.257-.781.516-1.496 1.031-2.766.13-.328.128-.32.258-.633.512-1.227 1.03-2.3 2.063-4.118.121-.222.118-.22.242-.437.48-.86.961-1.644 1.922-3.054.121-.184.121-.18.239-.355.48-.707.961-1.367 1.926-2.582.129-.168.129-.164.261-.336.52-.657 1.043-1.277 2.086-2.43 4.168-4.457.246-.246.242-.246.488-.484.973-.953 1.945-1.852 3.89-3.492 7.634-6.238 8.281-6.098 7.727-5.246 8.375-5.328 8.222-4.946 7.668-4.406 8.317-4.597 7.761-4.133 8.41-4.328 8.258-4.102 7.707-3.7 8.352-3.87 7.797-3.477 7.648-3.273 8.293-3.395 7.738-3.008 8.391-3.078 8.234-2.828 7.684-2.457 8.328-2.46 7.777-2.102 7.625-1.88 8.27-1.84 7.719-1.53 8.367-1.473 7.812-1.207 7.66-1.035 8.31-.977 7.753-.785 8.402-.73 8.25-.606 7.696-.48 8.344-.442 7.789-.347 7.636-.286.258-.007.262-.012.515-.016 1.036-.035 2.074-.066 4.14-.125.485-.016.484-.012.965-.027 1.934-.055 3.867-.097.133-.004h.136l.27-.008.539-.012 1.078-.027 2.156-.047.137-.004.133-.004.27-.004.542-.011 1.078-.024.133-.004.137-.004.27-.004.539-.011.132-.004h.137l.27-.008.136-.004h.133l.137-.004.133-.004" fill="none" stroke-width="1.6" stroke-linecap="square" stroke="#0d86a0" stroke-opacity=".3" stroke-miterlimit="3.25"/><path d="M430.602 23.688h26.222" fill="none" stroke-width="4" stroke-linejoin="round" stroke="#fff" stroke-opacity=".667" stroke-miterlimit="3.25"/><path d="M430.602 23.688h26.222" fill="none" stroke-width="1.25" stroke-linecap="square" stroke="#aaa" stroke-miterlimit="3.25"/><path d="M478.824 16.188v15h-22v-15zm0 0" fill="#fff" fill-opacity=".667"/><use xlink:href="#a" x="459.824" y="26.188"/><use xlink:href="#b" x="465.508" y="26.188"/><use xlink:href="#c" x="470.464" y="26.188"/><path d="M430.602 54.113h16.851l1.074.004h8.297" fill="none" stroke-width="4" stroke-linejoin="round" stroke="#fff" stroke-opacity=".667" stroke-miterlimit="3.25"/><path d="M430.602 54.113h16.851l1.074.004h8.297" fill="none" stroke-width="1.25" stroke-linecap="square" stroke="#aaa" stroke-miterlimit="3.25"/><path d="M497.824 46.617v15h-41v-15zm0 0" fill="#fff" fill-opacity=".667"/><use xlink:href="#d" x="459.824" y="56.615"/><use xlink:href="#e" x="465.205" y="56.615"/><use xlink:href="#f" x="470.908" y="56.615"/><use xlink:href="#g" x="476.518" y="56.615"/><use xlink:href="#h" x="478.945" y="56.615"/><use xlink:href="#i" x="484.101" y="56.615"/><use xlink:href="#g" x="487.368" y="56.615"/><use xlink:href="#j" x="489.795" y="56.615"/><path d="M46.602 205A2.598 2.598 0 0044 202.398 2.598 2.598 0 0041.398 205 2.598 2.598 0 0044 207.602 2.598 2.598 0 0046.602 205zm13-2A2.598 2.598 0 0057 200.398 2.598 2.598 0 0054.398 203 2.598 2.598 0 0057 205.602 2.598 2.598 0 0059.602 203zm12-7A2.598 2.598 0 0069 193.398 2.598 2.598 0 0066.398 196 2.598 2.598 0 0069 198.602 2.598 2.598 0 0071.602 196zm13-14A2.598 2.598 0 0082 179.398 2.598 2.598 0 0079.398 182 2.598 2.598 0 0082 184.602 2.598 2.598 0 0084.602 182zm13-11A2.598 2.598 0 0095 168.398 2.598 2.598 0 0092.398 171 2.598 2.598 0 0095 173.602 2.598 2.598 0 0097.602 171zm12-9a2.598 2.598 0 00-2.602-2.602 2.598 2.598 0 00-2.602 2.602 2.598 2.598 0 002.602 2.602 2.598 2.598 0 002.602-2.602zm13-9a2.598 2.598 0 00-2.602-2.602 2.598 2.598 0 00-2.602 2.602 2.598 2.598 0 002.602 2.602 2.598 2.598 0 002.602-2.602zm13-5a2.598 2.598 0 00-2.602-2.602 2.598 2.598 0 00-2.602 2.602 2.598 2.598 0 002.602 2.602 2.598 2.598 0 002.602-2.602zm12-8a2.598 2.598 0 00-2.602-2.602 2.598 2.598 0 00-2.602 2.602 2.598 2.598 0 002.602 2.602 2.598 2.598 0 002.602-2.602zm13-10a2.598 2.598 0 00-2.602-2.602 2.598 2.598 0 00-2.602 2.602 2.598 2.598 0 002.602 2.602 2.598 2.598 0 002.602-2.602zm13-9a2.598 2.598 0 00-2.602-2.602 2.598 2.598 0 00-2.602 2.602 2.598 2.598 0 002.602 2.602 2.598 2.598 0 002.602-2.602zm12-7a2.598 2.598 0 00-2.602-2.602 2.598 2.598 0 00-2.602 2.602 2.598 2.598 0 002.602 2.602 2.598 2.598 0 002.602-2.602zm13-11a2.598 2.598 0 00-2.602-2.602 2.598 2.598 0 00-2.602 2.602 2.598 2.598 0 002.602 2.602 2.598 2.598 0 002.602-2.602zm13-7A2.598 2.598 0 00209 93.398 2.598 2.598 0 00206.398 96 2.598 2.598 0 00209 98.602 2.598 2.598 0 00211.602 96zm12-5A2.598 2.598 0 00221 88.398 2.598 2.598 0 00218.398 91 2.598 2.598 0 00221 93.602 2.598 2.598 0 00223.602 91zm13-5A2.598 2.598 0 00234 83.398 2.598 2.598 0 00231.398 86 2.598 2.598 0 00234 88.602 2.598 2.598 0 00236.602 86zm13-4A2.598 2.598 0 00247 79.398 2.598 2.598 0 00244.398 82 2.598 2.598 0 00247 84.602 2.598 2.598 0 00249.602 82zm12-5A2.598 2.598 0 00259 74.398 2.598 2.598 0 00256.398 77 2.598 2.598 0 00259 79.602 2.598 2.598 0 00261.602 77zm13-4A2.598 2.598 0 00272 70.398 2.598 2.598 0 00269.398 73 2.598 2.598 0 00272 75.602 2.598 2.598 0 00274.602 73zm13-3A2.598 2.598 0 00285 67.398 2.598 2.598 0 00282.398 70 2.598 2.598 0 00285 72.602 2.598 2.598 0 00287.602 70zm13-4A2.598 2.598 0 00298 63.398 2.598 2.598 0 00295.398 66 2.598 2.598 0 00298 68.602 2.598 2.598 0 00300.602 66zm0 0" fill-rule="evenodd" fill="#c05c20"/><path d="M430.602 247.36H25m0 0V4m0 0h405.602m0 0v243.36" fill="none" stroke-width=".5" stroke-linecap="square" stroke="#666" stroke-miterlimit="3.25"/><path d="M31.336 247.36v-4" fill="none" stroke-width=".5" stroke="#666" stroke-miterlimit="3.25"/><use xlink:href="#k" x="28.337" y="259.36" fill="#666"/><path d="M44.012 247.36v-2.4m12.676 2.4v-2.4m12.675 2.4v-2.4m12.677 2.4v-2.4m12.67 2.4v-4" fill="none" stroke-width=".5" stroke="#666" stroke-miterlimit="3.25"/><use xlink:href="#l" x="91.712" y="259.36" fill="#666"/><path d="M107.387 247.36v-2.4m12.676 2.4v-2.4m12.675 2.4v-2.4m12.676 2.4v-2.4m12.672 2.4v-4" fill="none" stroke-width=".5" stroke="#666" stroke-miterlimit="3.25"/><g fill="#666"><use xlink:href="#m" x="152.587" y="259.36"/><use xlink:href="#k" x="158.203" y="259.36"/></g><path d="M170.762 247.36v-2.4m12.676 2.4v-2.4m12.675 2.4v-2.4m12.677 2.4v-2.4m12.67 2.4v-4" fill="none" stroke-width=".5" stroke="#666" stroke-miterlimit="3.25"/><g fill="#666"><use xlink:href="#m" x="215.962" y="259.36"/><use xlink:href="#l" x="221.578" y="259.36"/></g><path d="M234.137 247.36v-2.4m12.676 2.4v-2.4m12.675 2.4v-2.4m12.676 2.4v-2.4m12.672 2.4v-4" fill="none" stroke-width=".5" stroke="#666" stroke-miterlimit="3.25"/><g fill="#666"><use xlink:href="#n" x="279.337" y="259.36"/><use xlink:href="#k" x="284.953" y="259.36"/></g><path d="M297.512 247.36v-2.4m12.676 2.4v-2.4m12.675 2.4v-2.4m12.677 2.4v-2.4m12.67 2.4v-4" fill="none" stroke-width=".5" stroke="#666" stroke-miterlimit="3.25"/><g fill="#666"><use xlink:href="#n" x="342.712" y="259.36"/><use xlink:href="#l" x="348.328" y="259.36"/></g><path d="M360.887 247.36v-2.4m12.676 2.4v-2.4m12.675 2.4v-2.4m12.676 2.4v-2.4m12.672 2.4v-4" fill="none" stroke-width=".5" stroke="#666" stroke-miterlimit="3.25"/><g fill="#666"><use xlink:href="#o" x="406.087" y="259.36"/><use xlink:href="#k" x="411.702" y="259.36"/></g><path d="M424.262 247.36v-2.4" fill="none" stroke-width=".5" stroke="#666" stroke-miterlimit="3.25"/><path d="M25 236.191h4.055" fill="none" stroke-width=".1" stroke="#666" stroke-miterlimit="3.25"/><g fill="#666"><use xlink:href="#m" x="11" y="238.692"/><use xlink:href="#k" x="16.615" y="238.692"/></g><path d="M25 185.852h4.055" fill="none" stroke-width=".1" stroke="#666" stroke-miterlimit="3.25"/><g fill="#666"><use xlink:href="#m" x="5" y="188.35"/><use xlink:href="#k" x="10.615" y="188.35"/><use xlink:href="#k" x="16.23" y="188.35"/></g><path d="M25 135.508h4.055" fill="none" stroke-width=".1" stroke="#666" stroke-miterlimit="3.25"/><g fill="#666"><use xlink:href="#m" y="138.009"/><use xlink:href="#k" x="5.615" y="138.009"/><use xlink:href="#k" x="11.23" y="138.009"/><use xlink:href="#k" x="16.846" y="138.009"/></g><path d="M25 85.168h4.055" fill="none" stroke-width=".1" stroke="#666" stroke-miterlimit="3.25"/><g fill="#666"><use xlink:href="#m" x="5" y="89.167"/><use xlink:href="#k" x="10.615" y="89.167"/></g><use xlink:href="#p" x="16" y="85.167" fill="#666"/><path d="M25 34.824h4.055" fill="none" stroke-width=".1" stroke="#666" stroke-miterlimit="3.25"/><g fill="#666"><use xlink:href="#m" x="5" y="38.826"/><use xlink:href="#k" x="10.615" y="38.826"/></g><use xlink:href="#q" x="16" y="34.826" fill="#666"/><path d="M25 247.36h2.398M25 243.988h2.398M25 241.07h2.398M25 238.496h2.398M25 221.04h2.398M25 212.172h2.398M25 205.883h2.398M25 201.004h2.398M25 197.02h2.398M25 193.648h2.398M25 190.73h2.398M25 188.152h2.398M25 170.695h2.398M25 161.832h2.398M25 155.543h2.398M25 150.664h2.398M25 146.676h2.398M25 143.309h2.398M25 140.387h2.398M25 137.813h2.398M25 120.355h2.398M25 111.488h2.398M25 105.2h2.398M25 100.32h2.398M25 96.336h2.398M25 92.965h2.398M25 90.047h2.398M25 87.473h2.398M25 70.012h2.398M25 61.148h2.398M25 54.86h2.398M25 49.98h2.398M25 45.992h2.398M25 42.625h2.398M25 39.703h2.398M25 37.129h2.398M25 19.672h2.398M25 10.809h2.398M25 4.516h2.398M31.336 4v4.055M158.086 4v4.055M284.836 4v4.055M411.586 4v4.055M56.688 4v2.398M82.04 4v2.398M107.387 4v2.398M132.738 4v2.398M183.438 4v2.398M208.79 4v2.398M234.137 4v2.398M259.488 4v2.398M310.188 4v2.398M335.54 4v2.398M360.887 4v2.398M386.238 4v2.398m44.364 229.793h-4.059m4.059-50.339h-4.059m4.059-50.344h-4.059m4.059-50.34h-4.059m4.059-50.344h-4.059m4.059 212.536h-2.403m2.403-3.372h-2.403m2.403-2.918h-2.403m2.403-2.574h-2.403m2.403-17.456h-2.403m2.403-8.868h-2.403m2.403-6.289h-2.403m2.403-4.879h-2.403m2.403-3.984h-2.403m2.403-3.372h-2.403m2.403-2.918h-2.403m2.403-2.578h-2.403m2.403-17.457h-2.403m2.403-8.863h-2.403m2.403-6.289h-2.403m2.403-4.879h-2.403m2.403-3.988h-2.403m2.403-3.367h-2.403m2.403-2.922h-2.403m2.403-2.574h-2.403m2.403-17.458h-2.403m2.403-8.867h-2.403m2.403-6.288h-2.403m2.403-4.88h-2.403m2.403-3.984h-2.403m2.403-3.371h-2.403m2.403-2.918h-2.403m2.403-2.574h-2.403m2.403-17.461h-2.403m2.403-8.864h-2.403m2.403-6.288h-2.403m2.403-4.88h-2.403m2.403-3.988h-2.403m2.403-3.367h-2.403m2.403-2.922h-2.403m2.403-2.574h-2.403m2.403-17.457h-2.403m2.403-8.863h-2.403m2.403-6.293h-2.403" fill="none" stroke-width=".1" stroke="#666" stroke-miterlimit="3.25"/></svg>