<svg xmlns="http://www.w3.org/2000/svg" xmlns:xlink="http://www.w3.org/1999/xlink" width="500pt" height="305pt" viewBox="0 0 500 305"><defs><clipPath id="a"><path d="M30 4h2v284h-2zm0 0"/></clipPath><clipPath id="b"><path d="M39 4h2v284h-2zm0 0"/></clipPath><clipPath id="c"><path d="M48 4h2v284h-2zm0 0"/></clipPath><clipPath id="d"><path d="M57 4h2v284h-2zm0 0"/></clipPath><clipPath id="e"><path d="M66 4h2v284h-2zm0 0"/></clipPath><clipPath id="f"><path d="M75 4h2v284h-2zm0 0"/></clipPath><clipPath id="g"><path d="M84 4h2v284h-2zm0 0"/></clipPath><clipPath id="h"><path d="M93 4h2v284h-2zm0 0"/></clipPath><clipPath id="i"><path d="M102 4h2v284h-2zm0 0"/></clipPath><clipPath id="j"><path d="M111 4h2v284h-2zm0 0"/></clipPath><clipPath id="k"><path d="M119 4h2v284h-2zm0 0"/></clipPath><clipPath id="l"><path d="M128 4h2v284h-2zm0 0"/></clipPath><clipPath id="m"><path d="M137 4h2v284h-2zm0 0"/></clipPath><clipPath id="n"><path d="M146 4h2v284h-2zm0 0"/></clipPath><clipPath id="o"><path d="M155 4h2v284h-2zm0 0"/></clipPath><clipPath id="p"><path d="M164 4h2v284h-2zm0 0"/></clipPath><clipPath id="q"><path d="M173 4h2v284h-2zm0 0"/></clipPath><clipPath id="r"><path d="M182 4h2v284h-2zm0 0"/></clipPath><clipPath id="s"><path d="M191 4h2v284h-2zm0 0"/></clipPath><clipPath id="t"><path d="M200 4h2v284h-2zm0 0"/></clipPath><clipPath id="u"><path d="M209 4h2v284h-2zm0 0"/></clipPath><clipPath id="v"><path d="M217 4h2v284h-2zm0 0"/></clipPath><clipPath id="w"><path d="M226 4h2v284h-2zm0 0"/></clipPath><clipPath id="x"><path d="M235 4h2v284h-2zm0 0"/></clipPath><clipPath id="y"><path d="M244 4h2v284h-2zm0 0"/></clipPath><clipPath id="z"><path d="M253 4h2v284h-2zm0 0"/></clipPath><clipPath id="A"><path d="M262 4h2v284h-2zm0 0"/></clipPath><clipPath id="B"><path d="M271 4h2v284h-2zm0 0"/></clipPath><clipPath id="C"><path d="M280 4h2v284h-2zm0 0"/></clipPath><clipPath id="D"><path d="M289 4h2v284h-2zm0 0"/></clipPath><clipPath id="E"><path d="M298 4h2v284h-2zm0 0"/></clipPath><clipPath id="F"><path d="M306 4h2v284h-2zm0 0"/></clipPath><clipPath id="G"><path d="M315 4h2v284h-2zm0 0"/></clipPath><clipPath id="H"><path d="M324 4h2v284h-2zm0 0"/></clipPath><clipPath id="I"><path d="M333 4h2v284h-2zm0 0"/></clipPath><clipPath id="J"><path d="M342 4h2v284h-2zm0 0"/></clipPath><clipPath id="K"><path d="M351 4h2v284h-2zm0 0"/></clipPath><clipPath id="L"><path d="M360 4h2v284h-2zm0 0"/></clipPath><clipPath id="M"><path d="M369 4h2v284h-2zm0 0"/></clipPath><clipPath id="N"><path d="M378 4h2v284h-2zm0 0"/></clipPath><clipPath id="O"><path d="M387 4h2v284h-2zm0 0"/></clipPath><clipPath id="P"><path d="M396 4h2v284h-2zm0 0"/></clipPath><clipPath id="Q"><path d="M404 4h2v284h-2zm0 0"/></clipPath><clipPath id="R"><path d="M413 4h2v284h-2zm0 0"/></clipPath><clipPath id="S"><path d="M422 4h2v284h-2zm0 0"/></clipPath><clipPath id="T"><path d="M431 4h2v284h-2zm0 0"/></clipPath><clipPath id="U"><path d="M440 4h2v284h-2zm0 0"/></clipPath><clipPath id="V"><path d="M449 4h2v284h-2zm0 0"/></clipPath><clipPath id="W"><path d="M458 4h2v284h-2zm0 0"/></clipPath><clipPath id="X"><path d="M467 4h2v284h-2zm0 0"/></clipPath><clipPath id="Y"><path d="M476 4h2v284h-2zm0 0"/></clipPath><clipPath id="Z"><path d="M485 4h2v284h-2zm0 0"/></clipPath><clipPath id="aa"><path d="M493 4h2v284h-2zm0 0"/></clipPath><clipPath id="ab"><path d="M22 267h474v2H22zm0 0"/></clipPath><clipPath id="ac"><path d="M22 199h474v2H22zm0 0"/></clipPath><clipPath id="ad"><path d="M22 132h474v2H22zm0 0"/></clipPath><clipPath id="ae"><path d="M22 65h474v2H22zm0 0"/></clipPath><symbol overflow="visible" id="af"><path d="M3.805-7.11h.941v5.036c0 .68-.203 1.21-.613 1.597-.406.383-.953.575-1.633.575-.707 0-1.258-.18-1.648-.543-.395-.36-.594-.867-.594-1.516h.937c0 .406.114.723.336.95.223.23.547.343.969.343.387 0 .7-.121.941-.367.239-.246.36-.586.364-1.028zm0 0"/></symbol><symbol overflow="visible" id="ag"><path d="M3.945 0c-.05-.105-.093-.29-.125-.555-.422.434-.922.653-1.507.653-.52 0-.946-.149-1.282-.442a1.438 1.438 0 01-.5-1.12c0-.552.211-.977.63-1.282.417-.305 1.007-.457 1.765-.457h.879v-.414c0-.317-.094-.567-.285-.754-.188-.188-.465-.281-.833-.281-.324 0-.593.082-.812.242-.219.164-.328.36-.328.59H.64c0-.262.093-.516.28-.762.188-.246.442-.441.763-.582.32-.145.671-.219 1.054-.219.61 0 1.086.153 1.434.457.344.305.523.727.535 1.258v2.434c0 .484.063.87.184 1.156V0zm-1.5-.688c.285 0 .555-.074.805-.218a1.35 1.35 0 00.555-.574v-1.083h-.711c-1.106 0-1.656.325-1.656.97 0 .284.093.507.28.663.188.16.43.243.727.243zm0 0"/></symbol><symbol overflow="visible" id="ah"><path d="M1.54-5.281l.026.664a1.93 1.93 0 011.582-.766c1.118 0 1.68.633 1.692 1.89V0h-.902v-3.496c-.004-.379-.094-.664-.262-.844-.172-.183-.438-.273-.801-.273-.293 0-.55.078-.77.234a1.59 1.59 0 00-.52.613V0h-.9v-5.281zm0 0"/></symbol><symbol overflow="visible" id="ai"><path d="M3.559 0h-.907v-6.02l-1.824.668v-.82l2.59-.973h.14zm0 0"/></symbol><symbol overflow="visible" id="aj"><path d="M1.906-3.992h.676c.426-.008.762-.121 1.008-.34.242-.219.363-.512.363-.883 0-.832-.414-1.25-1.242-1.25-.39 0-.703.113-.938.336-.23.223-.347.516-.347.887H.523c0-.563.204-1.031.618-1.406.41-.372.933-.559 1.57-.559.672 0 1.195.176 1.578.531.379.356.57.848.57 1.48 0 .31-.101.61-.3.9a1.81 1.81 0 01-.817.648c.39.125.692.328.903.617.214.285.32.636.32 1.047 0 .64-.207 1.144-.625 1.52-.418.374-.957.562-1.625.562s-1.211-.18-1.63-.543c-.417-.36-.624-.836-.624-1.43h.906c0 .375.121.672.367.898.243.227.57.336.98.336.438 0 .77-.113 1-.34.231-.23.349-.554.349-.98 0-.414-.125-.734-.383-.953-.254-.223-.618-.336-1.098-.344h-.676zm0 0"/></symbol><symbol overflow="visible" id="ak"><path d="M5.25 0H.59v-.648l2.46-2.735c.364-.414.618-.75.755-1.008.14-.257.21-.527.21-.804 0-.371-.113-.676-.34-.914-.222-.239-.523-.356-.898-.356-.449 0-.797.13-1.047.383-.25.254-.37.613-.37 1.066H.452c0-.652.211-1.183.633-1.586.422-.402.984-.605 1.691-.605.66 0 1.184.172 1.567.52.386.347.578.808.578 1.382 0 .703-.445 1.535-1.336 2.5L1.68-.738h3.57zm0 0"/></symbol><symbol overflow="visible" id="al"><path d="M5.18-6.602L2.234 0H1.29l2.934-6.367H.375v-.742H5.18zm0 0"/></symbol><symbol overflow="visible" id="am"><path d="M4.746-3.14H1.762V0H.824v-7.11H5.23v.774H1.762v2.43h2.984zm0 0"/></symbol><symbol overflow="visible" id="an"><path d="M2.875.098c-.715 0-1.297-.235-1.746-.707-.45-.47-.676-1.098-.676-1.887v-.164c0-.524.102-.992.3-1.406.2-.41.481-.735.84-.965.36-.235.75-.352 1.173-.352.687 0 1.218.227 1.601.68.38.453.57 1.101.57 1.945v.375H1.36c.012.52.164.942.454 1.262.292.32.664.48 1.113.48.316 0 .59-.062.808-.195.223-.129.414-.3.582-.516l.551.43c-.441.68-1.105 1.02-1.992 1.02zm-.11-4.739a1.21 1.21 0 00-.921.399c-.246.265-.399.64-.457 1.117H4.03v-.07c-.023-.457-.148-.813-.367-1.067-.223-.25-.523-.379-.898-.379zm0 0"/></symbol><symbol overflow="visible" id="ao"><path d="M5.156-2.582c0 .809-.187 1.453-.554 1.945-.372.489-.872.735-1.497.735-.667 0-1.183-.235-1.546-.707L1.516 0H.684v-7.5h.902v2.797c.367-.453.867-.68 1.508-.68.64 0 1.148.246 1.511.73.368.485.551 1.15.551 1.993zm-.902-.106c0-.613-.121-1.09-.356-1.421-.238-.336-.582-.504-1.027-.504-.598 0-1.023.277-1.285.828V-1.5c.277.555.71.832 1.297.832.43 0 .77-.168 1.008-.504.242-.336.363-.84.363-1.516zm0 0"/></symbol><symbol overflow="visible" id="ap"><path d="M5.047-3.031c0 1.058-.18 1.844-.54 2.36-.362.51-.925.769-1.694.769-.758 0-1.32-.25-1.684-.754C.766-1.16.574-1.91.562-2.91v-1.207c0-1.043.18-1.82.54-2.328.363-.508.93-.762 1.703-.762.765 0 1.328.246 1.687.734.36.489.547 1.246.555 2.27zm-.902-1.235c0-.765-.106-1.324-.32-1.675-.216-.348-.555-.524-1.02-.524-.465 0-.801.176-1.012.524-.211.347-.32.882-.328 1.605v1.445c0 .77.113 1.336.336 1.704.222.367.558.546 1.012.546.445 0 .777-.171.992-.515.218-.344.332-.89.34-1.633zm0 0"/></symbol><symbol overflow="visible" id="aq"><path d="M4.406-2.387h.985v.739h-.985V0h-.91v-1.648H.258v-.536L3.44-7.109h.965zm-3.12 0h2.21v-3.488l-.105.195zm0 0"/></symbol><symbol overflow="visible" id="ar"><path d="M.703-.473c0-.156.047-.289.14-.39.095-.106.231-.157.415-.157.187 0 .328.051.426.157a.567.567 0 01.144.39c0 .149-.05.274-.144.375-.098.102-.239.153-.426.153-.184 0-.324-.051-.414-.153a.532.532 0 01-.14-.375zm0 0"/></symbol><symbol overflow="visible" id="as"><path d="M3.965-2.148h.887v.664h-.887V0h-.817v-1.484H.234v-.48l2.864-4.434h.867zm-2.809 0h1.992v-3.137l-.097.176zm0 0"/></symbol></defs><g clip-path="url(#a)"><path d="M31.46 287.8V4" fill="none" stroke="#666" stroke-opacity=".5" stroke-dasharray="1,2" stroke-miterlimit="3.25"/></g><g clip-path="url(#b)"><path d="M40.363 287.8V4" fill="none" stroke="#666" stroke-opacity=".5" stroke-dasharray="1,2" stroke-miterlimit="3.25"/></g><g clip-path="url(#c)"><path d="M49.266 287.8V4" fill="none" stroke="#666" stroke-opacity=".5" stroke-dasharray="1,2" stroke-miterlimit="3.25"/></g><g clip-path="url(#d)"><path d="M58.172 287.8V4" fill="none" stroke="#666" stroke-opacity=".5" stroke-dasharray="1,2" stroke-miterlimit="3.25"/></g><g clip-path="url(#e)"><path d="M67.074 287.8V4" fill="none" stroke="#666" stroke-opacity=".5" stroke-dasharray="1,2" stroke-miterlimit="3.25"/></g><g clip-path="url(#f)"><path d="M75.977 287.8V4" fill="none" stroke="#666" stroke-opacity=".5" stroke-dasharray="1,2" stroke-miterlimit="3.25"/></g><g clip-path="url(#g)"><path d="M84.883 287.8V4" fill="none" stroke="#666" stroke-opacity=".5" stroke-dasharray="1,2" stroke-miterlimit="3.25"/></g><g clip-path="url(#h)"><path d="M93.785 287.8V4" fill="none" stroke="#666" stroke-opacity=".5" stroke-dasharray="1,2" stroke-miterlimit="3.25"/></g><g clip-path="url(#i)"><path d="M102.688 287.8V4" fill="none" stroke="#666" stroke-opacity=".5" stroke-dasharray="1,2" stroke-miterlimit="3.25"/></g><g clip-path="url(#j)"><path d="M111.59 287.8V4" fill="none" stroke="#666" stroke-opacity=".5" stroke-dasharray="1,2" stroke-miterlimit="3.25"/></g><g clip-path="url(#k)"><path d="M120.496 287.8V4" fill="none" stroke="#666" stroke-opacity=".5" stroke-dasharray="1,2" stroke-miterlimit="3.25"/></g><g clip-path="url(#l)"><path d="M129.398 287.8V4" fill="none" stroke="#666" stroke-opacity=".5" stroke-dasharray="1,2" stroke-miterlimit="3.25"/></g><g clip-path="url(#m)"><path d="M138.3 287.8V4" fill="none" stroke="#666" stroke-opacity=".5" stroke-dasharray="1,2" stroke-miterlimit="3.25"/></g><g clip-path="url(#n)"><path d="M147.207 287.8V4" fill="none" stroke="#666" stroke-opacity=".5" stroke-dasharray="1,2" stroke-miterlimit="3.25"/></g><g clip-path="url(#o)"><path d="M156.11 287.8V4" fill="none" stroke="#666" stroke-opacity=".5" stroke-dasharray="1,2" stroke-miterlimit="3.25"/></g><g clip-path="url(#p)"><path d="M165.012 287.8V4" fill="none" stroke="#666" stroke-opacity=".5" stroke-dasharray="1,2" stroke-miterlimit="3.25"/></g><g clip-path="url(#q)"><path d="M173.918 287.8V4" fill="none" stroke="#666" stroke-opacity=".5" stroke-dasharray="1,2" stroke-miterlimit="3.25"/></g><g clip-path="url(#r)"><path d="M182.82 287.8V4" fill="none" stroke="#666" stroke-opacity=".5" stroke-dasharray="1,2" stroke-miterlimit="3.25"/></g><g clip-path="url(#s)"><path d="M191.723 287.8V4" fill="none" stroke="#666" stroke-opacity=".5" stroke-dasharray="1,2" stroke-miterlimit="3.25"/></g><g clip-path="url(#t)"><path d="M200.629 287.8V4" fill="none" stroke="#666" stroke-opacity=".5" stroke-dasharray="1,2" stroke-miterlimit="3.25"/></g><g clip-path="url(#u)"><path d="M209.531 287.8V4" fill="none" stroke="#666" stroke-opacity=".5" stroke-dasharray="1,2" stroke-miterlimit="3.25"/></g><g clip-path="url(#v)"><path d="M218.434 287.8V4" fill="none" stroke="#666" stroke-opacity=".5" stroke-dasharray="1,2" stroke-miterlimit="3.25"/></g><g clip-path="url(#w)"><path d="M227.336 287.8V4" fill="none" stroke="#666" stroke-opacity=".5" stroke-dasharray="1,2" stroke-miterlimit="3.25"/></g><g clip-path="url(#x)"><path d="M236.242 287.8V4" fill="none" stroke="#666" stroke-opacity=".5" stroke-dasharray="1,2" stroke-miterlimit="3.25"/></g><g clip-path="url(#y)"><path d="M245.145 287.8V4" fill="none" stroke="#666" stroke-opacity=".5" stroke-dasharray="1,2" stroke-miterlimit="3.25"/></g><g clip-path="url(#z)"><path d="M254.047 287.8V4" fill="none" stroke="#666" stroke-opacity=".5" stroke-dasharray="1,2" stroke-miterlimit="3.25"/></g><g clip-path="url(#A)"><path d="M262.953 287.8V4" fill="none" stroke="#666" stroke-opacity=".5" stroke-dasharray="1,2" stroke-miterlimit="3.25"/></g><g clip-path="url(#B)"><path d="M271.855 287.8V4" fill="none" stroke="#666" stroke-opacity=".5" stroke-dasharray="1,2" stroke-miterlimit="3.25"/></g><g clip-path="url(#C)"><path d="M280.758 287.8V4" fill="none" stroke="#666" stroke-opacity=".5" stroke-dasharray="1,2" stroke-miterlimit="3.25"/></g><g clip-path="url(#D)"><path d="M289.664 287.8V4" fill="none" stroke="#666" stroke-opacity=".5" stroke-dasharray="1,2" stroke-miterlimit="3.25"/></g><g clip-path="url(#E)"><path d="M298.566 287.8V4" fill="none" stroke="#666" stroke-opacity=".5" stroke-dasharray="1,2" stroke-miterlimit="3.25"/></g><g clip-path="url(#F)"><path d="M307.469 287.8V4" fill="none" stroke="#666" stroke-opacity=".5" stroke-dasharray="1,2" stroke-miterlimit="3.25"/></g><g clip-path="url(#G)"><path d="M316.371 287.8V4" fill="none" stroke="#666" stroke-opacity=".5" stroke-dasharray="1,2" stroke-miterlimit="3.25"/></g><g clip-path="url(#H)"><path d="M325.277 287.8V4" fill="none" stroke="#666" stroke-opacity=".5" stroke-dasharray="1,2" stroke-miterlimit="3.25"/></g><g clip-path="url(#I)"><path d="M334.18 287.8V4" fill="none" stroke="#666" stroke-opacity=".5" stroke-dasharray="1,2" stroke-miterlimit="3.25"/></g><g clip-path="url(#J)"><path d="M343.082 287.8V4" fill="none" stroke="#666" stroke-opacity=".5" stroke-dasharray="1,2" stroke-miterlimit="3.25"/></g><g clip-path="url(#K)"><path d="M351.988 287.8V4" fill="none" stroke="#666" stroke-opacity=".5" stroke-dasharray="1,2" stroke-miterlimit="3.25"/></g><g clip-path="url(#L)"><path d="M360.89 287.8V4" fill="none" stroke="#666" stroke-opacity=".5" stroke-dasharray="1,2" stroke-miterlimit="3.25"/></g><g clip-path="url(#M)"><path d="M369.793 287.8V4" fill="none" stroke="#666" stroke-opacity=".5" stroke-dasharray="1,2" stroke-miterlimit="3.25"/></g><g clip-path="url(#N)"><path d="M378.7 287.8V4" fill="none" stroke="#666" stroke-opacity=".5" stroke-dasharray="1,2" stroke-miterlimit="3.25"/></g><g clip-path="url(#O)"><path d="M387.602 287.8V4" fill="none" stroke="#666" stroke-opacity=".5" stroke-dasharray="1,2" stroke-miterlimit="3.25"/></g><g clip-path="url(#P)"><path d="M396.504 287.8V4" fill="none" stroke="#666" stroke-opacity=".5" stroke-dasharray="1,2" stroke-miterlimit="3.25"/></g><g clip-path="url(#Q)"><path d="M405.41 287.8V4" fill="none" stroke="#666" stroke-opacity=".5" stroke-dasharray="1,2" stroke-miterlimit="3.25"/></g><g clip-path="url(#R)"><path d="M414.313 287.8V4" fill="none" stroke="#666" stroke-opacity=".5" stroke-dasharray="1,2" stroke-miterlimit="3.25"/></g><g clip-path="url(#S)"><path d="M423.215 287.8V4" fill="none" stroke="#666" stroke-opacity=".5" stroke-dasharray="1,2" stroke-miterlimit="3.25"/></g><g clip-path="url(#T)"><path d="M432.117 287.8V4" fill="none" stroke="#666" stroke-opacity=".5" stroke-dasharray="1,2" stroke-miterlimit="3.25"/></g><g clip-path="url(#U)"><path d="M441.023 287.8V4" fill="none" stroke="#666" stroke-opacity=".5" stroke-dasharray="1,2" stroke-miterlimit="3.25"/></g><g clip-path="url(#V)"><path d="M449.926 287.8V4" fill="none" stroke="#666" stroke-opacity=".5" stroke-dasharray="1,2" stroke-miterlimit="3.25"/></g><g clip-path="url(#W)"><path d="M458.828 287.8V4" fill="none" stroke="#666" stroke-opacity=".5" stroke-dasharray="1,2" stroke-miterlimit="3.25"/></g><g clip-path="url(#X)"><path d="M467.734 287.8V4" fill="none" stroke="#666" stroke-opacity=".5" stroke-dasharray="1,2" stroke-miterlimit="3.25"/></g><g clip-path="url(#Y)"><path d="M476.637 287.8V4" fill="none" stroke="#666" stroke-opacity=".5" stroke-dasharray="1,2" stroke-miterlimit="3.25"/></g><g clip-path="url(#Z)"><path d="M485.54 287.8V4" fill="none" stroke="#666" stroke-opacity=".5" stroke-dasharray="1,2" stroke-miterlimit="3.25"/></g><g clip-path="url(#aa)"><path d="M494.445 287.8V4" fill="none" stroke="#666" stroke-opacity=".5" stroke-dasharray="1,2" stroke-miterlimit="3.25"/></g><g clip-path="url(#ab)"><path d="M22 267.79h473" fill="none" stroke="#666" stroke-opacity=".5" stroke-dasharray="1,2" stroke-miterlimit="3.25"/></g><g clip-path="url(#ac)"><path d="M22 200.418h473" fill="none" stroke="#666" stroke-opacity=".5" stroke-dasharray="1,2" stroke-miterlimit="3.25"/></g><g clip-path="url(#ad)"><path d="M22 133.05h473" fill="none" stroke="#666" stroke-opacity=".5" stroke-dasharray="1,2" stroke-miterlimit="3.25"/></g><g clip-path="url(#ae)"><path d="M22 65.68h473" fill="none" stroke="#666" stroke-opacity=".5" stroke-dasharray="1,2" stroke-miterlimit="3.25"/></g><path d="M441.023 77.926l8.903-13.246 8.902-3.727 8.906-1.523 8.903-.688 8.902-.324" fill="none" stroke-width="1.6" stroke-linecap="square" stroke="#a60000" stroke-opacity=".3" stroke-miterlimit="3.25"/><path d="M441.023 78.758l8.903-12.617 8.902-3.286 8.906-1.23 8.903-.504 8.902-.215" fill="none" stroke-width="1.6" stroke-linecap="square" stroke="#0d86a0" stroke-opacity=".3" stroke-miterlimit="3.25"/><path d="M449.926 193.613h35.613" fill="none" stroke-width="1.6" stroke-linecap="square" stroke="#c05c20" stroke-opacity=".3" stroke-miterlimit="3.25"/><path d="M441.023 166.734l8.903-.316 8.902-.309 8.906-.3 17.805-.586" fill="none" stroke-width="1.6" stroke-linecap="square" stroke="#6f42b5" stroke-opacity=".3" stroke-miterlimit="3.25"/><path d="M441.023 166.734l8.903 3.692 8.902-1.485 8.906-.109 8.903-.426 8.902-.336" fill="none" stroke-width="1.6" stroke-linecap="square" stroke="#a8364d" stroke-opacity=".3" stroke-miterlimit="3.25"/><path d="M449.926 268.695h35.613" fill="none" stroke-width="1.6" stroke-linecap="square" stroke="#3664cc" stroke-opacity=".3" stroke-miterlimit="3.25"/><path d="M449.926 126.098h35.613" fill="none" stroke-width="1.6" stroke-linecap="square" stroke="#833987" stroke-opacity=".3" stroke-miterlimit="3.25"/><path d="M449.926 207.879h35.613" fill="none" stroke-width="1.6" stroke-linecap="square" stroke="#a54f05" stroke-opacity=".3" stroke-miterlimit="3.25"/><path d="M441.023 120.242l8.903-.316 8.902-.305 8.906-.305 8.903-.293 8.902-.289" fill="none" stroke-width="1.6" stroke-linecap="square" stroke="#6846c7" stroke-opacity=".3" stroke-miterlimit="3.25"/><path d="M75.977 146.453l8.906-21.168 8.902-18.203 8.903-4.082 8.902-2.414 8.906-7.055 8.902 1.883 8.903-9.973 8.906-7.882 8.902-6.407 8.903-1.629 8.906-12.203 8.902 2.832 8.903-2.55 8.906-1.93 8.902-.86 8.903-3.054 8.902-1.29 8.906-1.964 8.903-2.684 8.902.742 8.906 2.364 8.902-1.145 8.903 3.61 8.906-2.082 8.902 3.062 8.903 3.059 8.902-28.47 8.906 14.915 8.903 9.598 8.902 4 8.906-.282 8.903 1.207 8.902 1.102 8.906 11.082 8.903-1.18 8.902 11.793 8.906-7.168 8.902 6.73 8.903-3.167 8.902 3.277 8.906-.941" fill="none" stroke-width="1.6" stroke-linecap="square" stroke="#a60000" stroke-miterlimit="3.25"/><path d="M75.977 146.453l8.906-21.168 8.902-18.203 8.903-3.894 8.902.984 8.906-5.52 8.902 6.141 8.903-6.14 8.906-7.887 8.902-8.555 8.903-2.023 8.906-18.243 8.902 6.285 8.903-3.011 8.906-2.45 8.902-1.445 8.903-5.195 8.902-1.324 8.906-1.594 8.903-4.344 8.902.805 8.906 2.918 8.902-2.184 8.903 4.098 8.906-2.902 8.902 3.246 8.903 3.613 8.902-31.176 8.906 15.38 8.903 10.085 8.902 3.984 8.906-.695 8.903.984 8.902.954 8.906 11.433 8.903 3.008 8.902 7.965 8.906-7.945 8.902 6.718 8.903-3.308 8.902 3.199 8.906-.29" fill="none" stroke-width="1.6" stroke-linecap="square" stroke="#0d86a0" stroke-miterlimit="3.25"/><path d="M102.688 166.734l8.902-37.523 8.906 1.172 8.902 10.14 8.903-18.328 8.906-2.55 8.902 3.265 8.903-12.808 8.906 1.953 8.902-3.403 8.903-4.07 8.906-2.312 8.902-6.403 8.903 6.047 8.902.898 8.906-5.363 8.903 6.52 8.902-.2h8.906l8.902 3.82 8.903 3.458 8.906 5.45 8.902 2.573 8.903-7.015 8.902 9.46 8.906 1.395 8.903-7.328 8.902 5.934 8.906 19.007h8.903l8.902 10.141 8.906 16.07h8.903l8.902-26.21 8.906 10.14h8.902l8.903 5.93" fill="none" stroke-width="1.6" stroke-linecap="square" stroke="#c05c20" stroke-miterlimit="3.25"/><path d="M120.496 166.734l8.902-20.28h8.903l8.906-25.59 8.902-11.65 8.903 1.833 8.906 1.723 8.902.75 8.903-9.348 8.906-.402 8.902.812 8.903-.207 8.902-.406 8.906-5.864 8.903 2.965 8.902.332 8.906 4.723 8.902-.902 8.903 3.43 8.906 4.117 8.902 3.265 8.903.942 8.902-1.829 8.906 11.97 8.903-9.13 8.902 5.672 8.906 3.457 8.903 4.54 8.902 11.53 8.906 3.266 8.903 10.14 8.902-5.929h8.906l8.902 16.07" fill="none" stroke-width="1.6" stroke-linecap="square" stroke="#6f42b5" stroke-miterlimit="3.25"/><path d="M120.496 143.188h8.902l8.903-27.606 8.906 8.078 8.902-11.605 8.903 8.187 8.906-9.195 8.902-14.711 8.903-1.031 8.906 2.8 8.902 8.254h8.903l8.902-.234 8.906-7.473 8.903 6.79 8.902 1.64 8.906 1.848 8.902 3.125 8.903 6.465 8.906-1.047 8.902 2.172 8.903 8.484h8.902l8.906 4.922 8.903 5.215 8.902 4.922 8.906 3.265 8.903 20.281h8.902l8.906-10.14 8.903-38.606 8.902 38.606" fill="none" stroke-width="1.6" stroke-linecap="square" stroke="#769003" stroke-miterlimit="3.25"/><path d="M120.496 166.734l8.902-30.422 8.903-9.195 8.906-3.457 8.902-4.59 8.903-2.574 8.906-4.785L182.82 103l8.903 4.848 8.906.261 8.902-.52 8.903-3.82 8.902 3.563 8.906-3.16 8.903.836 8.902 4.496 8.906-2.906 8.902 9.898 8.903-1.773 8.906-2.317 8.902 3.176 8.903-.434 8.902 6.368 8.906 1.394 8.903 6.3 8.902 21.454 8.906 5.93 8.903 10.14h8.902l8.906-10.14 8.903 10.14 8.902-10.14 8.906-5.93" fill="none" stroke-width="1.6" stroke-linecap="square" stroke="#a8364d" stroke-miterlimit="3.25"/><path d="M129.398 166.734l8.903-38.605 8.906-7.887 8.902 1.953 8.903 10.856 8.906-18.742 8.902-3.582 8.903-.625 8.906 3.808 8.902-7.074 8.903 4.875 8.902-6.703 8.906-.836 8.903 5.332 8.902-2.906 8.906-2.828 8.902 1.238 8.903 5.719 8.906-1.512 8.902 7.762 8.903.496 8.902 4.722 8.906-1.953 8.903 5.93 8.902 4.21 8.906 1.274 8.903 2.934 8.902 11.863 8.906 20.281h17.805" fill="none" stroke-width="1.6" stroke-linecap="square" stroke="#3664cc" stroke-miterlimit="3.25"/><path d="M120.496 156.594l8.902 10.14 8.903-20.28 8.906-14.798 8.902-7.207 8.903 5.934 8.906-10.14 8.902-6.333 8.903-5.258 8.906-5.465 8.902 7.223h8.903l8.902-3.328 8.906-5.34 8.903 2.43 8.902 4.758 8.906-2.332 8.902 7.312 8.903-1.855 8.906 3.98h8.902l8.903-3.265 8.902 5.218h8.906l8.903 11.223 8.902 1.172 8.906 12.804 8.903 7.477 8.902 16.07h8.906" fill="none" stroke-width="1.6" stroke-linecap="square" stroke="#c8860a" stroke-miterlimit="3.25"/><path d="M120.496 166.734l8.902-23.547 8.903 7.477 8.906-20.281 8.902-5.934 8.903-4.207h8.906l8.902-5.094 8.903 5.094 8.906-4.66 8.902 4.66 8.903.621 8.902 1.332 8.906-1.953 8.903-2.254 8.902-6.941 8.906 3.262 8.902 3.68h8.903l8.906 2.253 8.902-1.722 8.903 13.136 8.902 2.934 8.906-5.38 8.903 2.446 8.902 6.61 8.906 8.187 17.805 20.281 8.906-10.14 8.903-67.516 8.902 67.516 8.906-10.14 8.902 20.28" fill="none" stroke-width="1.6" stroke-linecap="square" stroke="#833987" stroke-miterlimit="3.25"/><path d="M129.398 166.734l8.903-30.422 8.906-1.722 8.902-5.38 8.903-3.038 8.906-5.309 8.902-3.39 8.903-.496 8.906-3.836 8.902 2.007h8.903l8.902-.425 8.906-.813 8.903 1.672 8.902.453 8.906-1.312 8.902 1.773 8.903.977 8.906 2.77 8.902.62 8.903-2.875 8.902.532 8.906 2.343 8.903 10.793 8.902-2.445 8.906 5.379 8.903 16.074 8.902 5.93" fill="none" stroke-width="1.6" stroke-linecap="square" stroke="#1c8f6b" stroke-miterlimit="3.25"/><path d="M120.496 143.188l8.902 3.265 8.903-22.004 8.906-7.472 8.902 7.472 8.903-9.726 8.906 6.793 8.902 5.601 8.903-2.668 8.906-12.043 8.902 3.63 8.903 4.206 8.902-6.722 8.906.39 8.903 3.563 8.902 3.39 8.906.653 8.902 5.601 8.903-4.207 8.906-1.394 8.902 2.933 8.903-.789 8.902 5.55 8.906 2.446 8.903 4.656 8.902 1.954h8.906l8.903 18.328h8.902l8.906-13.406 8.903-4.922 8.902 4.922 8.906 23.546 8.902-10.14 8.903 10.14" fill="none" stroke-width="1.6" stroke-linecap="square" stroke="#a54f05" stroke-miterlimit="3.25"/><path d="M102.688 166.734l8.902-43.824 8.906-11.535 8.902-6.793 8.903-14.137 8.906-5.718 8.902-3.774 8.903-2.441 8.906-1.442 8.902-3.988 8.903-2.289 8.906-1.04 8.902.02 8.903 1.852 8.902-1.262 8.906-2.828 8.903 2.61 8.902.585 8.906.59 8.902 2.457 8.903 1.868 8.906 1.98 8.902 2.172 8.903.117 8.902 2.992 8.906 1.985 8.903 3.007 8.902 4.141 8.906 5.156 8.903 5.434 8.902 5.219 8.906 3.199 8.903-25.547 8.902 30.996 8.906 6.414 8.902 7.473 8.903 4.207 8.902 8.597 8.906-22.945" fill="none" stroke-width="1.6" stroke-linecap="square" stroke="#6846c7" stroke-miterlimit="3.25"/><path d="M442.734 78a1.736 1.736 0 10-3.47 0 1.736 1.736 0 003.47 0zm9-13a1.736 1.736 0 10-3.47 0 1.736 1.736 0 003.47 0zm9-4a1.736 1.736 0 10-3.47 0 1.736 1.736 0 003.47 0zm9-2a1.736 1.736 0 10-3.47 0 1.736 1.736 0 003.47 0zm9 0a1.736 1.736 0 10-3.47 0 1.736 1.736 0 003.47 0zm9-1a1.736 1.736 0 10-3.47 0 1.736 1.736 0 003.47 0zm0 0" fill-rule="evenodd" fill="#a60000" fill-opacity=".3"/><path d="M442.734 79a1.736 1.736 0 10-3.47 0 1.736 1.736 0 003.47 0zm9-13a1.736 1.736 0 10-3.47 0 1.736 1.736 0 003.47 0zm9-3a1.736 1.736 0 10-3.47 0 1.736 1.736 0 003.47 0zm9-1a1.736 1.736 0 10-3.47 0 1.736 1.736 0 003.47 0zm9-1a1.736 1.736 0 10-3.47 0 1.736 1.736 0 003.47 0zm9 0a1.736 1.736 0 10-3.47 0 1.736 1.736 0 003.47 0zm0 0" fill-rule="evenodd" fill="#0d86a0" fill-opacity=".3"/><path d="M451.734 194a1.736 1.736 0 10-3.47 0 1.736 1.736 0 003.47 0zm9 0a1.736 1.736 0 10-3.47 0 1.736 1.736 0 003.47 0zm9 0a1.736 1.736 0 10-3.47 0 1.736 1.736 0 003.47 0zm9 0a1.736 1.736 0 10-3.47 0 1.736 1.736 0 003.47 0zm9 0a1.736 1.736 0 10-3.47 0 1.736 1.736 0 003.47 0zm0 0" fill-rule="evenodd" fill="#c05c20" fill-opacity=".3"/><path d="M442.734 167a1.736 1.736 0 10-3.47 0 1.736 1.736 0 003.47 0zm9-1a1.736 1.736 0 10-3.47 0 1.736 1.736 0 003.47 0zm9 0a1.736 1.736 0 10-3.47 0 1.736 1.736 0 003.47 0zm9 0a1.736 1.736 0 10-3.47 0 1.736 1.736 0 003.47 0zm9 0a1.736 1.736 0 10-3.47 0 1.736 1.736 0 003.47 0zm9-1a1.736 1.736 0 10-3.47 0 1.736 1.736 0 003.47 0zm0 0" fill-rule="evenodd" fill="#6f42b5" fill-opacity=".3"/><path d="M442.734 167a1.736 1.736 0 10-3.47 0 1.736 1.736 0 003.47 0zm9 3a1.736 1.736 0 10-3.47 0 1.736 1.736 0 003.47 0zm9-1a1.736 1.736 0 10-3.47 0 1.736 1.736 0 003.47 0zm9 0a1.736 1.736 0 10-3.47 0 1.736 1.736 0 003.47 0zm9-1a1.736 1.736 0 10-3.47 0 1.736 1.736 0 003.47 0zm9 0a1.736 1.736 0 10-3.47 0 1.736 1.736 0 003.47 0zm0 0" fill-rule="evenodd" fill="#a8364d" fill-opacity=".3"/><path d="M451.734 269a1.736 1.736 0 10-3.47 0 1.736 1.736 0 003.47 0zm9 0a1.736 1.736 0 10-3.47 0 1.736 1.736 0 003.47 0zm9 0a1.736 1.736 0 10-3.47 0 1.736 1.736 0 003.47 0zm9 0a1.736 1.736 0 10-3.47 0 1.736 1.736 0 003.47 0zm9 0a1.736 1.736 0 10-3.47 0 1.736 1.736 0 003.47 0zm0 0" fill-rule="evenodd" fill="#3664cc" fill-opacity=".3"/><path d="M451.734 126a1.736 1.736 0 10-3.47 0 1.736 1.736 0 003.47 0zm9 0a1.736 1.736 0 10-3.47 0 1.736 1.736 0 003.47 0zm9 0a1.736 1.736 0 10-3.47 0 1.736 1.736 0 003.47 0zm9 0a1.736 1.736 0 10-3.47 0 1.736 1.736 0 003.47 0zm9 0a1.736 1.736 0 10-3.47 0 1.736 1.736 0 003.47 0zm0 0" fill-rule="evenodd" fill="#833987" fill-opacity=".3"/><path d="M451.734 208a1.736 1.736 0 10-3.47 0 1.736 1.736 0 003.47 0zm9 0a1.736 1.736 0 10-3.47 0 1.736 1.736 0 003.47 0zm9 0a1.736 1.736 0 10-3.47 0 1.736 1.736 0 003.47 0zm9 0a1.736 1.736 0 10-3.47 0 1.736 1.736 0 003.47 0zm9 0a1.736 1.736 0 10-3.47 0 1.736 1.736 0 003.47 0zm0 0" fill-rule="evenodd" fill="#a54f05" fill-opacity=".3"/><path d="M442.734 120a1.736 1.736 0 10-3.47 0 1.736 1.736 0 003.47 0zm9 0a1.736 1.736 0 10-3.47 0 1.736 1.736 0 003.47 0zm9 0a1.736 1.736 0 10-3.47 0 1.736 1.736 0 003.47 0zm9-1a1.736 1.736 0 10-3.47 0 1.736 1.736 0 003.47 0zm9 0a1.736 1.736 0 10-3.47 0 1.736 1.736 0 003.47 0zm9 0a1.736 1.736 0 10-3.47 0 1.736 1.736 0 003.47 0zm0 0" fill-rule="evenodd" fill="#6846c7" fill-opacity=".3"/><path d="M32.734 112a1.736 1.736 0 10-3.47 0 1.736 1.736 0 003.47 0zm45 34a1.736 1.736 0 10-3.47 0 1.736 1.736 0 003.47 0zm9-21a1.736 1.736 0 10-3.47 0 1.736 1.736 0 003.47 0zm9-18a1.736 1.736 0 10-3.47 0 1.736 1.736 0 003.47 0zm9-4a1.736 1.736 0 10-3.47 0 1.736 1.736 0 003.47 0zm9-2a1.736 1.736 0 10-3.47 0 1.736 1.736 0 003.47 0zm8-7a1.736 1.736 0 10-3.47 0 1.736 1.736 0 003.47 0zm9 1a1.736 1.736 0 10-3.47 0 1.736 1.736 0 003.47 0zm9-10a1.736 1.736 0 10-3.47 0 1.736 1.736 0 003.47 0zm9-7a1.736 1.736 0 10-3.47 0 1.736 1.736 0 003.47 0zm9-7a1.736 1.736 0 10-3.47 0 1.736 1.736 0 003.47 0zm9-1a1.736 1.736 0 10-3.47 0 1.736 1.736 0 003.47 0zm9-13a1.736 1.736 0 10-3.47 0 1.736 1.736 0 003.47 0zm9 3a1.736 1.736 0 10-3.47 0 1.736 1.736 0 003.47 0zm9-2a1.736 1.736 0 10-3.47 0 1.736 1.736 0 003.47 0zm9-2a1.736 1.736 0 10-3.47 0 1.736 1.736 0 003.47 0zm9-1a1.736 1.736 0 10-3.47 0 1.736 1.736 0 003.47 0zm8-3a1.736 1.736 0 10-3.47 0 1.736 1.736 0 003.47 0zm9-2a1.736 1.736 0 10-3.47 0 1.736 1.736 0 003.47 0zm9-1a1.736 1.736 0 10-3.47 0 1.736 1.736 0 003.47 0zm9-3a1.736 1.736 0 10-3.47 0 1.736 1.736 0 003.47 0zm9 1a1.736 1.736 0 10-3.47 0 1.736 1.736 0 003.47 0zm9 2a1.736 1.736 0 10-3.47 0 1.736 1.736 0 003.47 0zm9-1a1.736 1.736 0 10-3.47 0 1.736 1.736 0 003.47 0zm9 3a1.736 1.736 0 10-3.47 0 1.736 1.736 0 003.47 0zm9-2a1.736 1.736 0 10-3.47 0 1.736 1.736 0 003.47 0zm9 3a1.736 1.736 0 10-3.47 0 1.736 1.736 0 003.47 0zm8 3a1.736 1.736 0 10-3.47 0 1.736 1.736 0 003.47 0zm9-28a1.736 1.736 0 10-3.47 0 1.736 1.736 0 003.47 0zm9 15a1.736 1.736 0 10-3.47 0 1.736 1.736 0 003.47 0zm9 9a1.736 1.736 0 10-3.47 0 1.736 1.736 0 003.47 0zm9 4a1.736 1.736 0 10-3.47 0 1.736 1.736 0 003.47 0zm9 0a1.736 1.736 0 10-3.47 0 1.736 1.736 0 003.47 0zm9 1a1.736 1.736 0 10-3.47 0 1.736 1.736 0 003.47 0zm9 2a1.736 1.736 0 10-3.47 0 1.736 1.736 0 003.47 0zm9 11a1.736 1.736 0 10-3.47 0 1.736 1.736 0 003.47 0zm9-2a1.736 1.736 0 10-3.47 0 1.736 1.736 0 003.47 0zm9 12a1.736 1.736 0 10-3.47 0 1.736 1.736 0 003.47 0zm8-7a1.736 1.736 0 10-3.47 0 1.736 1.736 0 003.47 0zm9 7a1.736 1.736 0 10-3.47 0 1.736 1.736 0 003.47 0zm9-3a1.736 1.736 0 10-3.47 0 1.736 1.736 0 003.47 0zm9 3a1.736 1.736 0 10-3.47 0 1.736 1.736 0 003.47 0zm9-1a1.736 1.736 0 10-3.47 0 1.736 1.736 0 003.47 0zm0 0" fill-rule="evenodd" fill="#a60000"/><path d="M32.734 112a1.736 1.736 0 10-3.47 0 1.736 1.736 0 003.47 0zm45 34a1.736 1.736 0 10-3.47 0 1.736 1.736 0 003.47 0zm9-21a1.736 1.736 0 10-3.47 0 1.736 1.736 0 003.47 0zm9-18a1.736 1.736 0 10-3.47 0 1.736 1.736 0 003.47 0zm9-4a1.736 1.736 0 10-3.47 0 1.736 1.736 0 003.47 0zm9 1a1.736 1.736 0 10-3.47 0 1.736 1.736 0 003.47 0zm8-5a1.736 1.736 0 10-3.47 0 1.736 1.736 0 003.47 0zm9 6a1.736 1.736 0 10-3.47 0 1.736 1.736 0 003.47 0zm9-6a1.736 1.736 0 10-3.47 0 1.736 1.736 0 003.47 0zm9-8a1.736 1.736 0 10-3.47 0 1.736 1.736 0 003.47 0zm9-9a1.736 1.736 0 10-3.47 0 1.736 1.736 0 003.47 0zm9-2a1.736 1.736 0 10-3.47 0 1.736 1.736 0 003.47 0zm9-18a1.736 1.736 0 10-3.47 0 1.736 1.736 0 003.47 0zm9 6a1.736 1.736 0 10-3.47 0 1.736 1.736 0 003.47 0zm9-3a1.736 1.736 0 10-3.47 0 1.736 1.736 0 003.47 0zm9-2a1.736 1.736 0 10-3.47 0 1.736 1.736 0 003.47 0zm9-2a1.736 1.736 0 10-3.47 0 1.736 1.736 0 003.47 0zm8-5a1.736 1.736 0 10-3.47 0 1.736 1.736 0 003.47 0zm9-1a1.736 1.736 0 10-3.47 0 1.736 1.736 0 003.47 0zm9-2a1.736 1.736 0 10-3.47 0 1.736 1.736 0 003.47 0zm9-4a1.736 1.736 0 10-3.47 0 1.736 1.736 0 003.47 0zm9 1a1.736 1.736 0 10-3.47 0 1.736 1.736 0 003.47 0zm9 3a1.736 1.736 0 10-3.47 0 1.736 1.736 0 003.47 0zm9-3a1.736 1.736 0 10-3.47 0 1.736 1.736 0 003.47 0zm9 5a1.736 1.736 0 10-3.47 0 1.736 1.736 0 003.47 0zm9-3a1.736 1.736 0 10-3.47 0 1.736 1.736 0 003.47 0zm9 3a1.736 1.736 0 10-3.47 0 1.736 1.736 0 003.47 0zm8 3a1.736 1.736 0 10-3.47 0 1.736 1.736 0 003.47 0zm9-31a1.736 1.736 0 10-3.47 0 1.736 1.736 0 003.47 0zm9 16a1.736 1.736 0 10-3.47 0 1.736 1.736 0 003.47 0zm9 10a1.736 1.736 0 10-3.47 0 1.736 1.736 0 003.47 0zm9 4a1.736 1.736 0 10-3.47 0 1.736 1.736 0 003.47 0zm9-1a1.736 1.736 0 10-3.47 0 1.736 1.736 0 003.47 0zm9 1a1.736 1.736 0 10-3.47 0 1.736 1.736 0 003.47 0zm9 1a1.736 1.736 0 10-3.47 0 1.736 1.736 0 003.47 0zm9 11a1.736 1.736 0 10-3.47 0 1.736 1.736 0 003.47 0zm9 3a1.736 1.736 0 10-3.47 0 1.736 1.736 0 003.47 0zm9 8a1.736 1.736 0 10-3.47 0 1.736 1.736 0 003.47 0zm8-8a1.736 1.736 0 10-3.47 0 1.736 1.736 0 003.47 0zm9 7a1.736 1.736 0 10-3.47 0 1.736 1.736 0 003.47 0zm9-3a1.736 1.736 0 10-3.47 0 1.736 1.736 0 003.47 0zm9 3a1.736 1.736 0 10-3.47 0 1.736 1.736 0 003.47 0zm9 0a1.736 1.736 0 10-3.47 0 1.736 1.736 0 003.47 0zm0 0" fill-rule="evenodd" fill="#0d86a0"/><path d="M104.734 167a1.736 1.736 0 10-3.47 0 1.736 1.736 0 003.47 0zm9-38a1.736 1.736 0 10-3.47 0 1.736 1.736 0 003.47 0zm8 1a1.736 1.736 0 10-3.47 0 1.736 1.736 0 003.47 0zm9 11a1.736 1.736 0 10-3.47 0 1.736 1.736 0 003.47 0zm9-19a1.736 1.736 0 10-3.47 0 1.736 1.736 0 003.47 0zm9-2a1.736 1.736 0 10-3.47 0 1.736 1.736 0 003.47 0zm9 3a1.736 1.736 0 10-3.47 0 1.736 1.736 0 003.47 0zm9-13a1.736 1.736 0 10-3.47 0 1.736 1.736 0 003.47 0zm9 2a1.736 1.736 0 10-3.47 0 1.736 1.736 0 003.47 0zm9-3a1.736 1.736 0 10-3.47 0 1.736 1.736 0 003.47 0zm9-4a1.736 1.736 0 10-3.47 0 1.736 1.736 0 003.47 0zm9-3a1.736 1.736 0 10-3.47 0 1.736 1.736 0 003.47 0zm9-6a1.736 1.736 0 10-3.47 0 1.736 1.736 0 003.47 0zm8 6a1.736 1.736 0 10-3.47 0 1.736 1.736 0 003.47 0zm9 1a1.736 1.736 0 10-3.47 0 1.736 1.736 0 003.47 0zm9-6a1.736 1.736 0 10-3.47 0 1.736 1.736 0 003.47 0zm9 7a1.736 1.736 0 10-3.47 0 1.736 1.736 0 003.47 0zm9 0a1.736 1.736 0 10-3.47 0 1.736 1.736 0 003.47 0zm9 0a1.736 1.736 0 10-3.47 0 1.736 1.736 0 003.47 0zm9 4a1.736 1.736 0 10-3.47 0 1.736 1.736 0 003.47 0zm9 3a1.736 1.736 0 10-3.47 0 1.736 1.736 0 003.47 0zm9 5a1.736 1.736 0 10-3.47 0 1.736 1.736 0 003.47 0zm9 3a1.736 1.736 0 10-3.47 0 1.736 1.736 0 003.47 0zm8-7a1.736 1.736 0 10-3.47 0 1.736 1.736 0 003.47 0zm9 10a1.736 1.736 0 10-3.47 0 1.736 1.736 0 003.47 0zm9 1a1.736 1.736 0 10-3.47 0 1.736 1.736 0 003.47 0zm9-7a1.736 1.736 0 10-3.47 0 1.736 1.736 0 003.47 0zm9 6a1.736 1.736 0 10-3.47 0 1.736 1.736 0 003.47 0zm9 19a1.736 1.736 0 10-3.47 0 1.736 1.736 0 003.47 0zm9 0a1.736 1.736 0 10-3.47 0 1.736 1.736 0 003.47 0zm9 10a1.736 1.736 0 10-3.47 0 1.736 1.736 0 003.47 0zm9 16a1.736 1.736 0 10-3.47 0 1.736 1.736 0 003.47 0zm9 0a1.736 1.736 0 10-3.47 0 1.736 1.736 0 003.47 0zm9-26a1.736 1.736 0 10-3.47 0 1.736 1.736 0 003.47 0zm8 10a1.736 1.736 0 10-3.47 0 1.736 1.736 0 003.47 0zm9 0a1.736 1.736 0 10-3.47 0 1.736 1.736 0 003.47 0zm9 6a1.736 1.736 0 10-3.47 0 1.736 1.736 0 003.47 0zm0 0" fill-rule="evenodd" fill="#c05c20"/><path d="M121.734 167a1.736 1.736 0 10-3.47 0 1.736 1.736 0 003.47 0zm9-21a1.736 1.736 0 10-3.47 0 1.736 1.736 0 003.47 0zm9 0a1.736 1.736 0 10-3.47 0 1.736 1.736 0 003.47 0zm9-25a1.736 1.736 0 10-3.47 0 1.736 1.736 0 003.47 0zm9-12a1.736 1.736 0 10-3.47 0 1.736 1.736 0 003.47 0zm9 2a1.736 1.736 0 10-3.47 0 1.736 1.736 0 003.47 0zm9 2a1.736 1.736 0 10-3.47 0 1.736 1.736 0 003.47 0zm9 1a1.736 1.736 0 10-3.47 0 1.736 1.736 0 003.47 0zm9-10a1.736 1.736 0 10-3.47 0 1.736 1.736 0 003.47 0zm9 0a1.736 1.736 0 10-3.47 0 1.736 1.736 0 003.47 0zm9 1a1.736 1.736 0 10-3.47 0 1.736 1.736 0 003.47 0zm8-1a1.736 1.736 0 10-3.47 0 1.736 1.736 0 003.47 0zm9 0a1.736 1.736 0 10-3.47 0 1.736 1.736 0 003.47 0zm9-6a1.736 1.736 0 10-3.47 0 1.736 1.736 0 003.47 0zm9 3a1.736 1.736 0 10-3.47 0 1.736 1.736 0 003.47 0zm9 0a1.736 1.736 0 10-3.47 0 1.736 1.736 0 003.47 0zm9 5a1.736 1.736 0 10-3.47 0 1.736 1.736 0 003.47 0zm9-1a1.736 1.736 0 10-3.47 0 1.736 1.736 0 003.47 0zm9 4a1.736 1.736 0 10-3.47 0 1.736 1.736 0 003.47 0zm9 4a1.736 1.736 0 10-3.47 0 1.736 1.736 0 003.47 0zm9 3a1.736 1.736 0 10-3.47 0 1.736 1.736 0 003.47 0zm8 1a1.736 1.736 0 10-3.47 0 1.736 1.736 0 003.47 0zm9-2a1.736 1.736 0 10-3.47 0 1.736 1.736 0 003.47 0zm9 12a1.736 1.736 0 10-3.47 0 1.736 1.736 0 003.47 0zm9-9a1.736 1.736 0 10-3.47 0 1.736 1.736 0 003.47 0zm9 6a1.736 1.736 0 10-3.47 0 1.736 1.736 0 003.47 0zm9 3a1.736 1.736 0 10-3.47 0 1.736 1.736 0 003.47 0zm9 5a1.736 1.736 0 10-3.47 0 1.736 1.736 0 003.47 0zm9 11a1.736 1.736 0 10-3.47 0 1.736 1.736 0 003.47 0zm9 3a1.736 1.736 0 10-3.47 0 1.736 1.736 0 003.47 0zm9 11a1.736 1.736 0 10-3.47 0 1.736 1.736 0 003.47 0zm9-6a1.736 1.736 0 10-3.47 0 1.736 1.736 0 003.47 0zm8 0a1.736 1.736 0 10-3.47 0 1.736 1.736 0 003.47 0zm9 16a1.736 1.736 0 10-3.47 0 1.736 1.736 0 003.47 0zm27 0a1.736 1.736 0 10-3.47 0 1.736 1.736 0 003.47 0zm0 0" fill-rule="evenodd" fill="#6f42b5"/><path d="M121.734 143a1.736 1.736 0 10-3.47 0 1.736 1.736 0 003.47 0zm9 0a1.736 1.736 0 10-3.47 0 1.736 1.736 0 003.47 0zm9-27a1.736 1.736 0 10-3.47 0 1.736 1.736 0 003.47 0zm9 8a1.736 1.736 0 10-3.47 0 1.736 1.736 0 003.47 0zm9-12a1.736 1.736 0 10-3.47 0 1.736 1.736 0 003.47 0zm9 8a1.736 1.736 0 10-3.47 0 1.736 1.736 0 003.47 0zm9-9a1.736 1.736 0 10-3.47 0 1.736 1.736 0 003.47 0zm9-15a1.736 1.736 0 10-3.47 0 1.736 1.736 0 003.47 0zm9-1a1.736 1.736 0 10-3.47 0 1.736 1.736 0 003.47 0zm9 3a1.736 1.736 0 10-3.47 0 1.736 1.736 0 003.47 0zm9 8a1.736 1.736 0 10-3.47 0 1.736 1.736 0 003.47 0zm8 0a1.736 1.736 0 10-3.47 0 1.736 1.736 0 003.47 0zm9 0a1.736 1.736 0 10-3.47 0 1.736 1.736 0 003.47 0zm9-7a1.736 1.736 0 10-3.47 0 1.736 1.736 0 003.47 0zm9 6a1.736 1.736 0 10-3.47 0 1.736 1.736 0 003.47 0zm9 2a1.736 1.736 0 10-3.47 0 1.736 1.736 0 003.47 0zm9 2a1.736 1.736 0 10-3.47 0 1.736 1.736 0 003.47 0zm9 3a1.736 1.736 0 10-3.47 0 1.736 1.736 0 003.47 0zm9 7a1.736 1.736 0 10-3.47 0 1.736 1.736 0 003.47 0zm9-2a1.736 1.736 0 10-3.47 0 1.736 1.736 0 003.47 0zm9 3a1.736 1.736 0 10-3.47 0 1.736 1.736 0 003.47 0zm8 8a1.736 1.736 0 10-3.47 0 1.736 1.736 0 003.47 0zm9 0a1.736 1.736 0 10-3.47 0 1.736 1.736 0 003.47 0zm9 5a1.736 1.736 0 10-3.47 0 1.736 1.736 0 003.47 0zm9 5a1.736 1.736 0 10-3.47 0 1.736 1.736 0 003.47 0zm9 5a1.736 1.736 0 10-3.47 0 1.736 1.736 0 003.47 0zm9 3a1.736 1.736 0 10-3.47 0 1.736 1.736 0 003.47 0zm9 21a1.736 1.736 0 10-3.47 0 1.736 1.736 0 003.47 0zm9 0a1.736 1.736 0 10-3.47 0 1.736 1.736 0 003.47 0zm9-10a1.736 1.736 0 10-3.47 0 1.736 1.736 0 003.47 0zm9-39a1.736 1.736 0 10-3.47 0 1.736 1.736 0 003.47 0zm9 39a1.736 1.736 0 10-3.47 0 1.736 1.736 0 003.47 0zm0 0" fill-rule="evenodd" fill="#769003"/><path d="M121.734 167a1.736 1.736 0 10-3.47 0 1.736 1.736 0 003.47 0zm9-31a1.736 1.736 0 10-3.47 0 1.736 1.736 0 003.47 0zm9-9a1.736 1.736 0 10-3.47 0 1.736 1.736 0 003.47 0zm9-3a1.736 1.736 0 10-3.47 0 1.736 1.736 0 003.47 0zm9-5a1.736 1.736 0 10-3.47 0 1.736 1.736 0 003.47 0zm9-3a1.736 1.736 0 10-3.47 0 1.736 1.736 0 003.47 0zm9-4a1.736 1.736 0 10-3.47 0 1.736 1.736 0 003.47 0zm9-9a1.736 1.736 0 10-3.47 0 1.736 1.736 0 003.47 0zm9 5a1.736 1.736 0 10-3.47 0 1.736 1.736 0 003.47 0zm9 0a1.736 1.736 0 10-3.47 0 1.736 1.736 0 003.47 0zm9 0a1.736 1.736 0 10-3.47 0 1.736 1.736 0 003.47 0zm8-4a1.736 1.736 0 10-3.47 0 1.736 1.736 0 003.47 0zm9 3a1.736 1.736 0 10-3.47 0 1.736 1.736 0 003.47 0zm9-3a1.736 1.736 0 10-3.47 0 1.736 1.736 0 003.47 0zm9 1a1.736 1.736 0 10-3.47 0 1.736 1.736 0 003.47 0zm9 5a1.736 1.736 0 10-3.47 0 1.736 1.736 0 003.47 0zm9-3a1.736 1.736 0 10-3.47 0 1.736 1.736 0 003.47 0zm9 9a1.736 1.736 0 10-3.47 0 1.736 1.736 0 003.47 0zm9-1a1.736 1.736 0 10-3.47 0 1.736 1.736 0 003.47 0zm9-3a1.736 1.736 0 10-3.47 0 1.736 1.736 0 003.47 0zm9 4a1.736 1.736 0 10-3.47 0 1.736 1.736 0 003.47 0zm8-1a1.736 1.736 0 10-3.47 0 1.736 1.736 0 003.47 0zm9 7a1.736 1.736 0 10-3.47 0 1.736 1.736 0 003.47 0zm9 1a1.736 1.736 0 10-3.47 0 1.736 1.736 0 003.47 0zm9 6a1.736 1.736 0 10-3.47 0 1.736 1.736 0 003.47 0zm9 22a1.736 1.736 0 10-3.47 0 1.736 1.736 0 003.47 0zm9 6a1.736 1.736 0 10-3.47 0 1.736 1.736 0 003.47 0zm9 10a1.736 1.736 0 10-3.47 0 1.736 1.736 0 003.47 0zm9 0a1.736 1.736 0 10-3.47 0 1.736 1.736 0 003.47 0zm9-10a1.736 1.736 0 10-3.47 0 1.736 1.736 0 003.47 0zm9 10a1.736 1.736 0 10-3.47 0 1.736 1.736 0 003.47 0zm9-10a1.736 1.736 0 10-3.47 0 1.736 1.736 0 003.47 0zm8-6a1.736 1.736 0 10-3.47 0 1.736 1.736 0 003.47 0zm36 16a1.736 1.736 0 10-3.47 0 1.736 1.736 0 003.47 0zm0 0" fill-rule="evenodd" fill="#a8364d"/><path d="M130.734 167a1.736 1.736 0 10-3.47 0 1.736 1.736 0 003.47 0zm9-39a1.736 1.736 0 10-3.47 0 1.736 1.736 0 003.47 0zm9-8a1.736 1.736 0 10-3.47 0 1.736 1.736 0 003.47 0zm9 2a1.736 1.736 0 10-3.47 0 1.736 1.736 0 003.47 0zm9 11a1.736 1.736 0 10-3.47 0 1.736 1.736 0 003.47 0zm9-19a1.736 1.736 0 10-3.47 0 1.736 1.736 0 003.47 0zm9-3a1.736 1.736 0 10-3.47 0 1.736 1.736 0 003.47 0zm9-1a1.736 1.736 0 10-3.47 0 1.736 1.736 0 003.47 0zm9 4a1.736 1.736 0 10-3.47 0 1.736 1.736 0 003.47 0zm9-7a1.736 1.736 0 10-3.47 0 1.736 1.736 0 003.47 0zm8 5a1.736 1.736 0 10-3.47 0 1.736 1.736 0 003.47 0zm9-7a1.736 1.736 0 10-3.47 0 1.736 1.736 0 003.47 0zm9-1a1.736 1.736 0 10-3.47 0 1.736 1.736 0 003.47 0zm9 6a1.736 1.736 0 10-3.47 0 1.736 1.736 0 003.47 0zm9-3a1.736 1.736 0 10-3.47 0 1.736 1.736 0 003.47 0zm9-3a1.736 1.736 0 10-3.47 0 1.736 1.736 0 003.47 0zm9 1a1.736 1.736 0 10-3.47 0 1.736 1.736 0 003.47 0zm9 6a1.736 1.736 0 10-3.47 0 1.736 1.736 0 003.47 0zm9-2a1.736 1.736 0 10-3.47 0 1.736 1.736 0 003.47 0zm9 8a1.736 1.736 0 10-3.47 0 1.736 1.736 0 003.47 0zm8 0a1.736 1.736 0 10-3.47 0 1.736 1.736 0 003.47 0zm9 5a1.736 1.736 0 10-3.47 0 1.736 1.736 0 003.47 0zm9-2a1.736 1.736 0 10-3.47 0 1.736 1.736 0 003.47 0zm9 6a1.736 1.736 0 10-3.47 0 1.736 1.736 0 003.47 0zm9 4a1.736 1.736 0 10-3.47 0 1.736 1.736 0 003.47 0zm9 2a1.736 1.736 0 10-3.47 0 1.736 1.736 0 003.47 0zm9 3a1.736 1.736 0 10-3.47 0 1.736 1.736 0 003.47 0zm9 11a1.736 1.736 0 10-3.47 0 1.736 1.736 0 003.47 0zm9 21a1.736 1.736 0 10-3.47 0 1.736 1.736 0 003.47 0zm9 0a1.736 1.736 0 10-3.47 0 1.736 1.736 0 003.47 0zm9 0a1.736 1.736 0 10-3.47 0 1.736 1.736 0 003.47 0zm0 0" fill-rule="evenodd" fill="#3664cc"/><path d="M121.734 157a1.736 1.736 0 10-3.47 0 1.736 1.736 0 003.47 0zm9 10a1.736 1.736 0 10-3.47 0 1.736 1.736 0 003.47 0zm9-21a1.736 1.736 0 10-3.47 0 1.736 1.736 0 003.47 0zm9-14a1.736 1.736 0 10-3.47 0 1.736 1.736 0 003.47 0zm9-8a1.736 1.736 0 10-3.47 0 1.736 1.736 0 003.47 0zm9 6a1.736 1.736 0 10-3.47 0 1.736 1.736 0 003.47 0zm9-10a1.736 1.736 0 10-3.47 0 1.736 1.736 0 003.47 0zm9-6a1.736 1.736 0 10-3.47 0 1.736 1.736 0 003.47 0zm9-5a1.736 1.736 0 10-3.47 0 1.736 1.736 0 003.47 0zm9-6a1.736 1.736 0 10-3.47 0 1.736 1.736 0 003.47 0zm9 7a1.736 1.736 0 10-3.47 0 1.736 1.736 0 003.47 0zm8 0a1.736 1.736 0 10-3.47 0 1.736 1.736 0 003.47 0zm9-3a1.736 1.736 0 10-3.47 0 1.736 1.736 0 003.47 0zm9-5a1.736 1.736 0 10-3.47 0 1.736 1.736 0 003.47 0zm9 2a1.736 1.736 0 10-3.47 0 1.736 1.736 0 003.47 0zm9 5a1.736 1.736 0 10-3.47 0 1.736 1.736 0 003.47 0zm9-2a1.736 1.736 0 10-3.47 0 1.736 1.736 0 003.47 0zm9 7a1.736 1.736 0 10-3.47 0 1.736 1.736 0 003.47 0zm9-2a1.736 1.736 0 10-3.47 0 1.736 1.736 0 003.47 0zm9 4a1.736 1.736 0 10-3.47 0 1.736 1.736 0 003.47 0zm9 0a1.736 1.736 0 10-3.47 0 1.736 1.736 0 003.47 0zm8-3a1.736 1.736 0 10-3.47 0 1.736 1.736 0 003.47 0zm9 5a1.736 1.736 0 10-3.47 0 1.736 1.736 0 003.47 0zm9 0a1.736 1.736 0 10-3.47 0 1.736 1.736 0 003.47 0zm9 11a1.736 1.736 0 10-3.47 0 1.736 1.736 0 003.47 0zm9 1a1.736 1.736 0 10-3.47 0 1.736 1.736 0 003.47 0zm9 13a1.736 1.736 0 10-3.47 0 1.736 1.736 0 003.47 0zm9 8a1.736 1.736 0 10-3.47 0 1.736 1.736 0 003.47 0zm9 16a1.736 1.736 0 10-3.47 0 1.736 1.736 0 003.47 0zm9 0a1.736 1.736 0 10-3.47 0 1.736 1.736 0 003.47 0zm0 0" fill-rule="evenodd" fill="#c8860a"/><path d="M121.734 167a1.736 1.736 0 10-3.47 0 1.736 1.736 0 003.47 0zm9-24a1.736 1.736 0 10-3.47 0 1.736 1.736 0 003.47 0zm9 8a1.736 1.736 0 10-3.47 0 1.736 1.736 0 003.47 0zm9-21a1.736 1.736 0 10-3.47 0 1.736 1.736 0 003.47 0zm9-6a1.736 1.736 0 10-3.47 0 1.736 1.736 0 003.47 0zm9-4a1.736 1.736 0 10-3.47 0 1.736 1.736 0 003.47 0zm9 0a1.736 1.736 0 10-3.47 0 1.736 1.736 0 003.47 0zm9-5a1.736 1.736 0 10-3.47 0 1.736 1.736 0 003.47 0zm9 5a1.736 1.736 0 10-3.47 0 1.736 1.736 0 003.47 0zm9-4a1.736 1.736 0 10-3.47 0 1.736 1.736 0 003.47 0zm9 4a1.736 1.736 0 10-3.47 0 1.736 1.736 0 003.47 0zm8 1a1.736 1.736 0 10-3.47 0 1.736 1.736 0 003.47 0zm9 1a1.736 1.736 0 10-3.47 0 1.736 1.736 0 003.47 0zm9-2a1.736 1.736 0 10-3.47 0 1.736 1.736 0 003.47 0zm9-2a1.736 1.736 0 10-3.47 0 1.736 1.736 0 003.47 0zm9-7a1.736 1.736 0 10-3.47 0 1.736 1.736 0 003.47 0zm9 3a1.736 1.736 0 10-3.47 0 1.736 1.736 0 003.47 0zm9 4a1.736 1.736 0 10-3.47 0 1.736 1.736 0 003.47 0zm9 0a1.736 1.736 0 10-3.47 0 1.736 1.736 0 003.47 0zm9 2a1.736 1.736 0 10-3.47 0 1.736 1.736 0 003.47 0zm9-1a1.736 1.736 0 10-3.47 0 1.736 1.736 0 003.47 0zm8 13a1.736 1.736 0 10-3.47 0 1.736 1.736 0 003.47 0zm9 3a1.736 1.736 0 10-3.47 0 1.736 1.736 0 003.47 0zm9-6a1.736 1.736 0 10-3.47 0 1.736 1.736 0 003.47 0zm9 3a1.736 1.736 0 10-3.47 0 1.736 1.736 0 003.47 0zm9 6a1.736 1.736 0 10-3.47 0 1.736 1.736 0 003.47 0zm9 8a1.736 1.736 0 10-3.47 0 1.736 1.736 0 003.47 0zm9 11a1.736 1.736 0 10-3.47 0 1.736 1.736 0 003.47 0zm9 10a1.736 1.736 0 10-3.47 0 1.736 1.736 0 003.47 0zm9-10a1.736 1.736 0 10-3.47 0 1.736 1.736 0 003.47 0zm9-68a1.736 1.736 0 10-3.47 0 1.736 1.736 0 003.47 0zm9 68a1.736 1.736 0 10-3.47 0 1.736 1.736 0 003.47 0zm8-11a1.736 1.736 0 10-3.47 0 1.736 1.736 0 003.47 0zm9 21a1.736 1.736 0 10-3.47 0 1.736 1.736 0 003.47 0zm18 0a1.736 1.736 0 10-3.47 0 1.736 1.736 0 003.47 0zm0 0" fill-rule="evenodd" fill="#833987"/><path d="M130.734 167a1.736 1.736 0 10-3.47 0 1.736 1.736 0 003.47 0zm9-31a1.736 1.736 0 10-3.47 0 1.736 1.736 0 003.47 0zm9-1a1.736 1.736 0 10-3.47 0 1.736 1.736 0 003.47 0zm9-6a1.736 1.736 0 10-3.47 0 1.736 1.736 0 003.47 0zm9-3a1.736 1.736 0 10-3.47 0 1.736 1.736 0 003.47 0zm9-5a1.736 1.736 0 10-3.47 0 1.736 1.736 0 003.47 0zm9-4a1.736 1.736 0 10-3.47 0 1.736 1.736 0 003.47 0zm9 0a1.736 1.736 0 10-3.47 0 1.736 1.736 0 003.47 0zm9-4a1.736 1.736 0 10-3.47 0 1.736 1.736 0 003.47 0zm9 2a1.736 1.736 0 10-3.47 0 1.736 1.736 0 003.47 0zm8 0a1.736 1.736 0 10-3.47 0 1.736 1.736 0 003.47 0zm9 0a1.736 1.736 0 10-3.47 0 1.736 1.736 0 003.47 0zm9-1a1.736 1.736 0 10-3.47 0 1.736 1.736 0 003.47 0zm9 2a1.736 1.736 0 10-3.47 0 1.736 1.736 0 003.47 0zm9 0a1.736 1.736 0 10-3.47 0 1.736 1.736 0 003.47 0zm9-1a1.736 1.736 0 10-3.47 0 1.736 1.736 0 003.47 0zm9 1a1.736 1.736 0 10-3.47 0 1.736 1.736 0 003.47 0zm9 1a1.736 1.736 0 10-3.47 0 1.736 1.736 0 003.47 0zm9 3a1.736 1.736 0 10-3.47 0 1.736 1.736 0 003.47 0zm9 1a1.736 1.736 0 10-3.47 0 1.736 1.736 0 003.47 0zm8-3a1.736 1.736 0 10-3.47 0 1.736 1.736 0 003.47 0zm9 1a1.736 1.736 0 10-3.47 0 1.736 1.736 0 003.47 0zm9 2a1.736 1.736 0 10-3.47 0 1.736 1.736 0 003.47 0zm9 11a1.736 1.736 0 10-3.47 0 1.736 1.736 0 003.47 0zm9-3a1.736 1.736 0 10-3.47 0 1.736 1.736 0 003.47 0zm9 6a1.736 1.736 0 10-3.47 0 1.736 1.736 0 003.47 0zm9 16a1.736 1.736 0 10-3.47 0 1.736 1.736 0 003.47 0zm9 6a1.736 1.736 0 10-3.47 0 1.736 1.736 0 003.47 0zm0 0" fill-rule="evenodd" fill="#1c8f6b"/><path d="M121.734 143a1.736 1.736 0 10-3.47 0 1.736 1.736 0 003.47 0zm9 3a1.736 1.736 0 10-3.47 0 1.736 1.736 0 003.47 0zm9-22a1.736 1.736 0 10-3.47 0 1.736 1.736 0 003.47 0zm9-7a1.736 1.736 0 10-3.47 0 1.736 1.736 0 003.47 0zm9 7a1.736 1.736 0 10-3.47 0 1.736 1.736 0 003.47 0zm9-9a1.736 1.736 0 10-3.47 0 1.736 1.736 0 003.47 0zm9 7a1.736 1.736 0 10-3.47 0 1.736 1.736 0 003.47 0zm9 5a1.736 1.736 0 10-3.47 0 1.736 1.736 0 003.47 0zm9-3a1.736 1.736 0 10-3.47 0 1.736 1.736 0 003.47 0zm9-12a1.736 1.736 0 10-3.47 0 1.736 1.736 0 003.47 0zm9 4a1.736 1.736 0 10-3.47 0 1.736 1.736 0 003.47 0zm8 4a1.736 1.736 0 10-3.47 0 1.736 1.736 0 003.47 0zm9-6a1.736 1.736 0 10-3.47 0 1.736 1.736 0 003.47 0zm9 0a1.736 1.736 0 10-3.47 0 1.736 1.736 0 003.47 0zm9 3a1.736 1.736 0 10-3.47 0 1.736 1.736 0 003.47 0zm9 4a1.736 1.736 0 10-3.47 0 1.736 1.736 0 003.47 0zm9 1a1.736 1.736 0 10-3.47 0 1.736 1.736 0 003.47 0zm9 5a1.736 1.736 0 10-3.47 0 1.736 1.736 0 003.47 0zm9-4a1.736 1.736 0 10-3.47 0 1.736 1.736 0 003.47 0zm9-1a1.736 1.736 0 10-3.47 0 1.736 1.736 0 003.47 0zm9 2a1.736 1.736 0 10-3.47 0 1.736 1.736 0 003.47 0zm8 0a1.736 1.736 0 10-3.47 0 1.736 1.736 0 003.47 0zm9 5a1.736 1.736 0 10-3.47 0 1.736 1.736 0 003.47 0zm9 3a1.736 1.736 0 10-3.47 0 1.736 1.736 0 003.47 0zm9 4a1.736 1.736 0 10-3.47 0 1.736 1.736 0 003.47 0zm9 2a1.736 1.736 0 10-3.47 0 1.736 1.736 0 003.47 0zm9 0a1.736 1.736 0 10-3.47 0 1.736 1.736 0 003.47 0zm9 19a1.736 1.736 0 10-3.47 0 1.736 1.736 0 003.47 0zm9 0a1.736 1.736 0 10-3.47 0 1.736 1.736 0 003.47 0zm9-14a1.736 1.736 0 10-3.47 0 1.736 1.736 0 003.47 0zm9-5a1.736 1.736 0 10-3.47 0 1.736 1.736 0 003.47 0zm9 5a1.736 1.736 0 10-3.47 0 1.736 1.736 0 003.47 0zm8 24a1.736 1.736 0 10-3.47 0 1.736 1.736 0 003.47 0zm9-10a1.736 1.736 0 10-3.47 0 1.736 1.736 0 003.47 0zm9 10a1.736 1.736 0 10-3.47 0 1.736 1.736 0 003.47 0zm0 0" fill-rule="evenodd" fill="#a54f05"/><path d="M104.734 167a1.736 1.736 0 10-3.47 0 1.736 1.736 0 003.47 0zm9-44a1.736 1.736 0 10-3.47 0 1.736 1.736 0 003.47 0zm8-12a1.736 1.736 0 10-3.47 0 1.736 1.736 0 003.47 0zm9-6a1.736 1.736 0 10-3.47 0 1.736 1.736 0 003.47 0zm9-15a1.736 1.736 0 10-3.47 0 1.736 1.736 0 003.47 0zm9-5a1.736 1.736 0 10-3.47 0 1.736 1.736 0 003.47 0zm9-4a1.736 1.736 0 10-3.47 0 1.736 1.736 0 003.47 0zm9-2a1.736 1.736 0 10-3.47 0 1.736 1.736 0 003.47 0zm9-2a1.736 1.736 0 10-3.47 0 1.736 1.736 0 003.47 0zm9-4a1.736 1.736 0 10-3.47 0 1.736 1.736 0 003.47 0zm9-2a1.736 1.736 0 10-3.47 0 1.736 1.736 0 003.47 0zm9-1a1.736 1.736 0 10-3.47 0 1.736 1.736 0 003.47 0zm9 0a1.736 1.736 0 10-3.47 0 1.736 1.736 0 003.47 0zm8 2a1.736 1.736 0 10-3.47 0 1.736 1.736 0 003.47 0zm9-2a1.736 1.736 0 10-3.47 0 1.736 1.736 0 003.47 0zm9-2a1.736 1.736 0 10-3.47 0 1.736 1.736 0 003.47 0zm9 2a1.736 1.736 0 10-3.47 0 1.736 1.736 0 003.47 0zm9 1a1.736 1.736 0 10-3.47 0 1.736 1.736 0 003.47 0zm9 0a1.736 1.736 0 10-3.47 0 1.736 1.736 0 003.47 0zm9 3a1.736 1.736 0 10-3.47 0 1.736 1.736 0 003.47 0zm9 2a1.736 1.736 0 10-3.47 0 1.736 1.736 0 003.47 0zm9 2a1.736 1.736 0 10-3.47 0 1.736 1.736 0 003.47 0zm9 2a1.736 1.736 0 10-3.47 0 1.736 1.736 0 003.47 0zm8 0a1.736 1.736 0 10-3.47 0 1.736 1.736 0 003.47 0zm9 3a1.736 1.736 0 10-3.47 0 1.736 1.736 0 003.47 0zm9 2a1.736 1.736 0 10-3.47 0 1.736 1.736 0 003.47 0zm9 3a1.736 1.736 0 10-3.47 0 1.736 1.736 0 003.47 0zm9 4a1.736 1.736 0 10-3.47 0 1.736 1.736 0 003.47 0zm9 5a1.736 1.736 0 10-3.47 0 1.736 1.736 0 003.47 0zm9 6a1.736 1.736 0 10-3.47 0 1.736 1.736 0 003.47 0zm9 5a1.736 1.736 0 10-3.47 0 1.736 1.736 0 003.47 0zm9 3a1.736 1.736 0 10-3.47 0 1.736 1.736 0 003.47 0zm9-26a1.736 1.736 0 10-3.47 0 1.736 1.736 0 003.47 0zm9 31a1.736 1.736 0 10-3.47 0 1.736 1.736 0 003.47 0zm8 7a1.736 1.736 0 10-3.47 0 1.736 1.736 0 003.47 0zm9 7a1.736 1.736 0 10-3.47 0 1.736 1.736 0 003.47 0zm9 5a1.736 1.736 0 10-3.47 0 1.736 1.736 0 003.47 0zm9 8a1.736 1.736 0 10-3.47 0 1.736 1.736 0 003.47 0zm9-23a1.736 1.736 0 10-3.47 0 1.736 1.736 0 003.47 0zm0 0" fill-rule="evenodd" fill="#6846c7"/><path d="M495 287.8H22m0 0V4m0 0h473m0 0v283.8" fill="none" stroke-width=".5" stroke-linecap="square" stroke="#666" stroke-miterlimit="3.25"/><path d="M49.266 287.8v-6.57" fill="none" stroke-width=".5" stroke="#666" stroke-miterlimit="3.25"/><g fill="#666"><use xlink:href="#af" x="34.767" y="299.8"/><use xlink:href="#ag" x="40.285" y="299.8"/><use xlink:href="#ah" x="45.724" y="299.8"/></g><g fill="#666"><use xlink:href="#ai" x="52.767" y="299.8"/><use xlink:href="#aj" x="58.382" y="299.8"/></g><path d="M173.918 287.8v-6.57" fill="none" stroke-width=".5" stroke="#666" stroke-miterlimit="3.25"/><g fill="#666"><use xlink:href="#af" x="159.416" y="299.8"/><use xlink:href="#ag" x="164.934" y="299.8"/><use xlink:href="#ah" x="170.374" y="299.8"/></g><g fill="#666"><use xlink:href="#ak" x="177.416" y="299.8"/><use xlink:href="#al" x="183.032" y="299.8"/></g><path d="M298.566 287.8v-6.57" fill="none" stroke-width=".5" stroke="#666" stroke-miterlimit="3.25"/><g fill="#666"><use xlink:href="#am" x="284.066" y="299.8"/><use xlink:href="#an" x="289.593" y="299.8"/><use xlink:href="#ao" x="294.891" y="299.8"/></g><g fill="#666"><use xlink:href="#ai" x="302.066" y="299.8"/><use xlink:href="#ap" x="307.681" y="299.8"/></g><path d="M423.215 287.8v-6.57" fill="none" stroke-width=".5" stroke="#666" stroke-miterlimit="3.25"/><g fill="#666"><use xlink:href="#am" x="408.715" y="299.8"/><use xlink:href="#an" x="414.243" y="299.8"/><use xlink:href="#ao" x="419.54" y="299.8"/></g><g fill="#666"><use xlink:href="#ak" x="426.715" y="299.8"/><use xlink:href="#aq" x="432.331" y="299.8"/></g><path d="M22 234.102h4.73" fill="none" stroke-width=".1" stroke="#666" stroke-miterlimit="3.25"/><g fill="#666"><use xlink:href="#ap" y="236.603"/><use xlink:href="#ar" x="5.615" y="236.603"/><use xlink:href="#ap" x="8.247" y="236.603"/><use xlink:href="#ai" x="13.862" y="236.603"/></g><path d="M22 166.734h4.73" fill="none" stroke-width=".1" stroke="#666" stroke-miterlimit="3.25"/><use xlink:href="#ai" x="13" y="169.234" fill="#666"/><path d="M22 99.363h4.73" fill="none" stroke-width=".1" stroke="#666" stroke-miterlimit="3.25"/><g fill="#666"><use xlink:href="#ai" x="2" y="101.865"/><use xlink:href="#ap" x="7.615" y="101.865"/><use xlink:href="#ap" x="13.23" y="101.865"/></g><path d="M22 31.996h4.73" fill="none" stroke-width=".1" stroke="#666" stroke-miterlimit="3.25"/><g fill="#666"><use xlink:href="#ai" x="2" y="35.996"/><use xlink:href="#ap" x="7.615" y="35.996"/></g><use xlink:href="#as" x="13" y="31.996" fill="#666"/><path d="M22 267.79h2.398M22 200.418h2.398M22 133.05h2.398M22 65.68h2.398" fill="none" stroke-width=".1" stroke="#666" stroke-miterlimit="3.25"/><path d="M49.266 4v6.57M173.918 4v6.57M298.566 4v6.57M423.215 4v6.57" fill="none" stroke-width=".5" stroke="#666" stroke-miterlimit="3.25"/><path d="M495 234.102h-4.73m4.73-67.368h-4.73M495 99.363h-4.73M495 31.996h-4.73M495 267.79h-2.398M495 200.418h-2.398M495 133.05h-2.398M495 65.68h-2.398" fill="none" stroke-width=".1" stroke="#666" stroke-miterlimit="3.25"/></svg>