<svg xmlns="http://www.w3.org/2000/svg" xmlns:xlink="http://www.w3.org/1999/xlink" width="500pt" height="272pt" viewBox="0 0 500 272"><defs><symbol overflow="visible" id="a"><path d="M2.469-5.809v.59h3.293v-.59zm.27 1.23v2.04H5.53v-2.04zm2.12 1.477H3.422v-.918h1.437zM9.141-7.27h-.672a7.745 7.745 0 00-.32-.89l-.637.11c.117.241.226.5.328.78H6.75c-.02-.3-.02-.609-.02-.94h-.69c0 .32 0 .64.019.94h-4.75v1.97C1.28-4.14 1-3.239.46-2.59l.54.488c.64-.808.98-1.878 1.012-3.199v-1.308H6.09c.05.828.148 1.52.308 2.078.122.41.262.781.422 1.101-.32.36-.68.66-1.07.89l.371.56c.36-.22.707-.5 1.04-.848.038.058.1.129.16.2.37.398.75.608 1.148.608.422 0 .781-.53 1.082-1.582l-.582-.34c-.2.833-.39 1.25-.57 1.25-.22 0-.458-.18-.72-.527l-.09-.14c.462-.641.84-1.442 1.15-2.422l-.56-.29a8.622 8.622 0 01-.91 2.032 5.96 5.96 0 01-.25-.84c-.12-.45-.199-1.031-.238-1.73h2.36zM1.62-1.91A6.86 6.86 0 01.511.28l.61.39c.5-.69.879-1.5 1.16-2.44zM6.31.84c.37 0 .64-.07.82-.211.2-.18.332-.649.39-1.43l-.68-.23c-.038.582-.12.922-.218 1.043-.09.097-.242.148-.441.148H4.05c-.25 0-.37-.14-.37-.422V-2.02h-.73v1.91c0 .63.288.95.878.95zM8.2-1.7l-.578.36A13.69 13.69 0 018.988.45l.57-.41C9.25-.46 8.802-1.04 8.2-1.7zM5-2.19l-.54.332c.462.5.821.96 1.08 1.379l.538-.38C5.828-1.237 5.468-1.69 5-2.19zm0 0"/></symbol><symbol overflow="visible" id="b"><path d="M3.89-1.96C3.29-1.16 2.14-.45.46.18l.411.68c1.79-.801 3-1.739 3.629-2.82h.148V.98h.743v-2.94h.14C6.25-.84 7.481.07 9.238.75L9.57.059c-1.55-.489-2.69-1.16-3.422-2.02H9.34v-.66H5.39v-.848h-.742v.848H.691v.66zm1.231-6.2v1.058H3.7v.672h1.38c-.06.54-.188 1.008-.388 1.39-.3.509-.812.919-1.55 1.231l.39.61c.797-.332 1.38-.79 1.739-1.371.28-.48.468-1.102.55-1.86h1.301L7.11-4.14c0 .492.262.742.801.742h.59c.36 0 .602-.114.719-.32.12-.223.222-.743.3-1.583l-.64-.21c-.05.722-.11 1.14-.168 1.261a.381.381 0 01-.32.191h-.34c-.16 0-.23-.082-.23-.23v-2.813H5.858V-8.16zm-3.473.18l-.359.539a7.48 7.48 0 011.672.921l.36-.55a7.87 7.87 0 00-1.673-.91zm-.636 1.34l-.364.538a7.235 7.235 0 011.524.82l.36-.546a7.631 7.631 0 00-1.52-.813zM2.89-5.41c-.64.719-1.36 1.36-2.171 1.898l.5.551c.761-.539 1.5-1.23 2.203-2.05zm0 0"/></symbol><symbol overflow="visible" id="c"><path d="M2.23-3.52l-.48.45c.55.422 1.012.82 1.371 1.218C2.481-.91 1.621-.172.54.36L.9 1C3.13-.102 4.49-2.02 4.981-4.762v-.617H2.72c.172-.48.312-1.012.422-1.57H5.72V-.16c0 .629.293.95.89.95H8.2c.41 0 .711-.099.903-.302.207-.238.359-.886.437-1.957l-.66-.21c-.04.87-.129 1.39-.27 1.57-.109.14-.289.218-.53.218H6.83c-.278 0-.419-.14-.419-.418v-2.73c.95-.34 1.942-.84 2.98-1.52l-.421-.59A10.19 10.19 0 016.41-3.73v-3.22h3.012v-.698H.578v.699h1.844C2.102-5.25 1.43-3.97.39-3.11l.34.62c.71-.542 1.28-1.28 1.718-2.222h1.84c-.18.84-.46 1.602-.82 2.281-.348-.36-.758-.73-1.239-1.09zm0 0"/></symbol><symbol overflow="visible" id="d"><path d="M.57-6.422v.723h1.328V.559H9v-.707H2.64V-5.7h6.782v-.723H5.648a8.407 8.407 0 00-1-1.687l-.707.27c.368.44.68.917.93 1.417zm0 0"/></symbol><symbol overflow="visible" id="e"><path d="M1.32-8.012l-.5.492c.782.54 1.4 1.04 1.84 1.52l.52-.52c-.5-.5-1.121-.992-1.86-1.492zm-.289 2.34l-.5.48C1.25-4.647 1.81-4.14 2.22-3.66l.52-.531c-.458-.489-1.028-.98-1.708-1.48zm1.34 2.781A29.022 29.022 0 01.7.59l.71.31a30.79 30.79 0 001.602-3.53zM8.7-3.25H3.82V.988h.7V.41H8v.578h.7zM4.52-.27v-2.32H8v2.32zM7.66-7l-.629.3c.34.462.66.962.98 1.5-1.152.169-2.37.29-3.66.36.688-.781 1.368-1.808 2.047-3.11l-.718-.24C4.719-6.23 3.922-5.1 3.27-4.8l.12.653c1.82-.102 3.481-.25 4.97-.454.14.25.28.524.421.801l.668-.328A23.587 23.587 0 007.66-7zm0 0"/></symbol><symbol overflow="visible" id="f"><path d="M2.172-3.95H4.34v.528H2.172zm2.168-.46H2.172v-.54H4.34zM2.172-2.96H4.34v.288c0 .262-.121.39-.34.39l-.66-.027.148.547h.703c.54 0 .82-.258.82-.758v-2.949h-3.5v3.739h.66zm-.703 1.64C1.269-.72.969-.18.55.3l.578.372c.422-.524.75-1.14.992-1.852zM6.53.86c.328 0 .57-.07.73-.188.169-.16.29-.602.348-1.32L6.95-.86c-.039.52-.097.84-.187.949-.082.082-.203.12-.364.12H3.852C3.66.21 3.57.122 3.57-.05v-1.31h-.699V.09c0 .512.258.77.777.77zm1.207-2.622c.551 0 .832-.277.832-.816V-5.54H7.88v2.789c0 .238-.129.371-.379.371-.309 0-.64-.02-.98-.05l.16.667zM5-1.762l-.531.332c.43.442.77.852 1.031 1.23l.531-.378C5.79-.922 5.45-1.308 5-1.762zm3.23.274l-.55.34c.52.609.93 1.16 1.23 1.66l.57-.39c-.289-.462-.71-1-1.25-1.61zM6.04-5.371v2.512h.679v-2.512zm-3.188-1.04v.38h4.25v-.43c.66.27 1.367.52 2.148.742l.32-.562c-1.64-.457-3.082-1.078-4.34-1.86h-.46C3.629-7.379 2.19-6.75.46-6.238l.31.566c.75-.226 1.44-.476 2.082-.738zm3.91-.198H3.309A11.7 11.7 0 005-7.531c.52.332 1.11.64 1.762.922zm0 0"/></symbol><symbol overflow="visible" id="g"><path d="M3.805-7.11h.941v5.036c0 .68-.203 1.21-.613 1.597-.406.383-.953.575-1.633.575-.707 0-1.258-.18-1.648-.543-.395-.36-.594-.867-.594-1.516h.937c0 .406.114.723.336.95.223.23.547.343.969.343.387 0 .7-.121.941-.367.239-.246.36-.586.364-1.028zm0 0"/></symbol><symbol overflow="visible" id="h"><path d="M3.945 0c-.05-.105-.093-.29-.125-.555-.422.434-.922.653-1.507.653-.52 0-.946-.149-1.282-.442a1.438 1.438 0 01-.5-1.12c0-.552.211-.977.63-1.282.417-.305 1.007-.457 1.765-.457h.879v-.414c0-.317-.094-.567-.285-.754-.188-.188-.465-.281-.833-.281-.324 0-.593.082-.812.242-.219.164-.328.36-.328.59H.64c0-.262.093-.516.28-.762.188-.246.442-.441.763-.582.32-.145.671-.219 1.054-.219.61 0 1.086.153 1.434.457.344.305.523.727.535 1.258v2.434c0 .484.063.87.184 1.156V0zm-1.5-.688c.285 0 .555-.074.805-.218a1.35 1.35 0 00.555-.574v-1.083h-.711c-1.106 0-1.656.325-1.656.97 0 .284.093.507.28.663.188.16.43.243.727.243zm0 0"/></symbol><symbol overflow="visible" id="i"><path d="M1.54-5.281l.026.664a1.93 1.93 0 011.582-.766c1.118 0 1.68.633 1.692 1.89V0h-.902v-3.496c-.004-.379-.094-.664-.262-.844-.172-.183-.438-.273-.801-.273-.293 0-.55.078-.77.234a1.59 1.59 0 00-.52.613V0h-.9v-5.281zm0 0"/></symbol><symbol overflow="visible" id="j"><path d="M3.559 0h-.907v-6.02l-1.824.668v-.82l2.59-.973h.14zm0 0"/></symbol><symbol overflow="visible" id="k"><path d="M1.906-3.992h.676c.426-.008.762-.121 1.008-.34.242-.219.363-.512.363-.883 0-.832-.414-1.25-1.242-1.25-.39 0-.703.113-.938.336-.23.223-.347.516-.347.887H.523c0-.563.204-1.031.618-1.406.41-.372.933-.559 1.57-.559.672 0 1.195.176 1.578.531.379.356.57.848.57 1.48 0 .31-.101.61-.3.9a1.81 1.81 0 01-.817.648c.39.125.692.328.903.617.214.285.32.636.32 1.047 0 .64-.207 1.144-.625 1.52-.418.374-.957.562-1.625.562s-1.211-.18-1.63-.543c-.417-.36-.624-.836-.624-1.43h.906c0 .375.121.672.367.898.243.227.57.336.98.336.438 0 .77-.113 1-.34.231-.23.349-.554.349-.98 0-.414-.125-.734-.383-.953-.254-.223-.618-.336-1.098-.344h-.676zm0 0"/></symbol><symbol overflow="visible" id="l"><path d="M5.25 0H.59v-.648l2.46-2.735c.364-.414.618-.75.755-1.008.14-.257.21-.527.21-.804 0-.371-.113-.676-.34-.914-.222-.239-.523-.356-.898-.356-.449 0-.797.13-1.047.383-.25.254-.37.613-.37 1.066H.452c0-.652.211-1.183.633-1.586.422-.402.984-.605 1.691-.605.66 0 1.184.172 1.567.52.386.347.578.808.578 1.382 0 .703-.445 1.535-1.336 2.5L1.68-.738h3.57zm0 0"/></symbol><symbol overflow="visible" id="m"><path d="M5.18-6.602L2.234 0H1.29l2.934-6.367H.375v-.742H5.18zm0 0"/></symbol><symbol overflow="visible" id="n"><path d="M4.746-3.14H1.762V0H.824v-7.11H5.23v.774H1.762v2.43h2.984zm0 0"/></symbol><symbol overflow="visible" id="o"><path d="M2.875.098c-.715 0-1.297-.235-1.746-.707-.45-.47-.676-1.098-.676-1.887v-.164c0-.524.102-.992.3-1.406.2-.41.481-.735.84-.965.36-.235.75-.352 1.173-.352.687 0 1.218.227 1.601.68.38.453.57 1.101.57 1.945v.375H1.36c.012.52.164.942.454 1.262.292.32.664.48 1.113.48.316 0 .59-.062.808-.195.223-.129.414-.3.582-.516l.551.43c-.441.68-1.105 1.02-1.992 1.02zm-.11-4.739a1.21 1.21 0 00-.921.399c-.246.265-.399.64-.457 1.117H4.03v-.07c-.023-.457-.148-.813-.367-1.067-.223-.25-.523-.379-.898-.379zm0 0"/></symbol><symbol overflow="visible" id="p"><path d="M5.156-2.582c0 .809-.187 1.453-.554 1.945-.372.489-.872.735-1.497.735-.667 0-1.183-.235-1.546-.707L1.516 0H.684v-7.5h.902v2.797c.367-.453.867-.68 1.508-.68.64 0 1.148.246 1.511.73.368.485.551 1.15.551 1.993zm-.902-.106c0-.613-.121-1.09-.356-1.421-.238-.336-.582-.504-1.027-.504-.598 0-1.023.277-1.285.828V-1.5c.277.555.71.832 1.297.832.43 0 .77-.168 1.008-.504.242-.336.363-.84.363-1.516zm0 0"/></symbol><symbol overflow="visible" id="q"><path d="M5.047-3.031c0 1.058-.18 1.844-.54 2.36-.362.51-.925.769-1.694.769-.758 0-1.32-.25-1.684-.754C.766-1.16.574-1.91.562-2.91v-1.207c0-1.043.18-1.82.54-2.328.363-.508.93-.762 1.703-.762.765 0 1.328.246 1.687.734.36.489.547 1.246.555 2.27zm-.902-1.235c0-.765-.106-1.324-.32-1.675-.216-.348-.555-.524-1.02-.524-.465 0-.801.176-1.012.524-.211.347-.32.882-.328 1.605v1.445c0 .77.113 1.336.336 1.704.222.367.558.546 1.012.546.445 0 .777-.171.992-.515.218-.344.332-.89.34-1.633zm0 0"/></symbol><symbol overflow="visible" id="r"><path d="M4.406-2.387h.985v.739h-.985V0h-.91v-1.648H.258v-.536L3.44-7.109h.965zm-3.12 0h2.21v-3.488l-.105.195zm0 0"/></symbol><symbol overflow="visible" id="s"><path d="M3.965-2.148h.887v.664h-.887V0h-.817v-1.484H.234v-.48l2.864-4.434h.867zm-2.809 0h1.992v-3.137l-.097.176zm0 0"/></symbol></defs><path d="M33.36 254.77V4m8.187 250.77V4m8.187 250.77V4m8.192 250.77V4m8.187 250.77V4M74.3 254.77V4m8.188 250.77V4m8.188 250.77V4m8.191 250.77V4m8.188 250.77V4m8.187 250.77V4m8.188 250.77V4m8.187 250.77V4m8.192 250.77V4m8.187 250.77V4m8.188 250.77V4m8.187 250.77V4m8.192 250.77V4m8.187 250.77V4m8.188 250.77V4m8.187 250.77V4m8.188 250.77V4m8.191 250.77V4m8.187 250.77V4m8.188 250.77V4m8.187 250.77V4m8.188 250.77V4m8.191 250.77V4m8.188 250.77V4m8.187 250.77V4m8.188 250.77V4m8.192 250.77V4m8.187 250.77V4m8.187 250.77V4m8.188 250.77V4m8.188 250.77V4m8.19 250.77V4m8.188 250.77V4m8.188 250.77V4m8.187 250.77V4m8.187 250.77V4m8.192 250.77V4m8.188 250.77V4m8.187 250.77V4m8.188 250.77V4m8.191 250.77V4m8.187 250.77V4m8.187 250.77V4m8.188 250.77V4m8.188 250.77V4m8.191 250.77V4M25 237.887h417.945M25 186.41h417.945M25 134.934h417.945M25 83.457h417.945M25 31.984h417.945" fill="none" stroke="#666" stroke-opacity=".5" stroke-dasharray="1,2" stroke-miterlimit="3.25"/><path d="M393.645 98.602l8.19-18.172 8.188-5.29 8.188-2.152 8.187-.965 8.188-.449" fill="none" stroke-width="1.6" stroke-linecap="square" stroke="#a60000" stroke-opacity=".3" stroke-miterlimit="3.25"/><path d="M393.645 142.59l8.19-13.035 8.188 4.136 8.188-1.394 8.187-.082 8.188-.367" fill="none" stroke-width="1.6" stroke-linecap="square" stroke="#0d86a0" stroke-opacity=".3" stroke-miterlimit="3.25"/><path d="M393.645 62.191l8.19.653 8.188-.516 8.188-.508 8.187-.492 8.188-.484" fill="none" stroke-width="1.6" stroke-linecap="square" stroke="#c05c20" stroke-opacity=".3" stroke-miterlimit="3.25"/><path d="M74.3 206.895l8.188-32.348 8.188-27.817 8.191-6.242 8.188-3.691 8.187-10.777 8.188 2.878 8.187-15.238 8.192-12.05 8.187-9.79 8.188-2.488 8.187-18.652 8.191 4.336 8.188-3.903 8.188-2.949 8.187-1.312 8.188-4.668 8.19-1.973 8.188-3 8.188-4.102 8.187 1.137 8.188 3.613 8.191-1.754 8.188 5.516 8.187-3.18 8.188 4.676 8.191 4.68 8.188-43.508 8.187 22.79 8.188 14.667 8.187 6.117 8.192-.43 8.187 1.84 8.188 1.688 8.187 16.934 8.188-1.805 8.191 18.02 8.188-10.954 8.187 10.29 8.188-4.844" fill="none" stroke-width="1.6" stroke-linecap="square" stroke="#a60000" stroke-miterlimit="3.25"/><path d="M66.113 237.887h8.188m24.566 0l8.188-15.496 8.187-9.067 8.188-21.926h8.187l8.192-15.496 8.187 1.446 8.188-10.508 8.187-1.79h8.191l8.188-8.484 8.188-2.765 8.187-1.508 8.188.492 8.19-5.285 8.188-2.59 8.188-.344 8.187-2.597h8.188l8.191-3.664 8.188-.766 8.187-1.922 8.188-2.402 8.191 2.402 8.188-9.144 8.187 4.199 8.188-3.734 8.187.156 8.192 6.75 8.187 1.543 8.188-7.328 8.187 3.945 8.188-.77 8.191 1.774 8.188 2.61 8.187-9.747 8.188 16.719" fill="none" stroke-width="1.6" stroke-linecap="square" stroke="#0d86a0" stroke-miterlimit="3.25"/><path d="M33.36 222.39l8.187-15.495 8.187 30.992m32.754-30.992l8.188-4.989 8.191 4.989m32.75-9.063l8.192 15.492 8.187-29.043 8.188 38.11 8.187-33.625 8.191-34.965 8.188 16.023 8.188-18.012 8.187-9.535 8.188-3.71 8.19-12.247 8.188-1.468 8.188-11.45 8.187.086 8.188-8.808 8.191-6.168 8.188-3.633 8.187-1.16 8.188-2.793 8.191-.856 8.188-10.14 8.187 1.789 8.188-5.348 8.187.832 8.192-1.664 8.187-3.957 8.188-1.559 8.187.559 8.188-3.805 8.191-2.824 8.188 1.578 8.187 4.223 8.188-7.563" fill="none" stroke-width="1.6" stroke-linecap="square" stroke="#c05c20" stroke-miterlimit="3.25"/><path d="M395.914 99c0-.508-.2-.996-.559-1.355a1.915 1.915 0 00-1.355-.56A1.912 1.912 0 00392.085 99a1.912 1.912 0 001.915 1.915A1.912 1.912 0 00395.915 99zm8-19c0-.508-.2-.996-.559-1.355a1.915 1.915 0 00-1.355-.56A1.912 1.912 0 00400.085 80 1.912 1.912 0 00402 81.915 1.912 1.912 0 00403.915 80zm8-5c0-.508-.2-.996-.559-1.355a1.915 1.915 0 00-1.355-.56A1.912 1.912 0 00408.085 75 1.912 1.912 0 00410 76.915 1.912 1.912 0 00411.915 75zm8-2c0-.508-.2-.996-.559-1.355a1.915 1.915 0 00-1.355-.56A1.912 1.912 0 00416.085 73 1.912 1.912 0 00418 74.915 1.912 1.912 0 00419.915 73zm8-1c0-.508-.2-.996-.559-1.355a1.915 1.915 0 00-1.355-.56A1.912 1.912 0 00424.085 72 1.912 1.912 0 00426 73.915 1.912 1.912 0 00427.915 72zm9 0c0-.508-.2-.996-.559-1.355a1.915 1.915 0 00-1.355-.56A1.912 1.912 0 00433.085 72 1.912 1.912 0 00435 73.915 1.912 1.912 0 00436.915 72zm0 0" fill-rule="evenodd" fill="#a60000" fill-opacity=".3"/><path d="M395.914 143c0-.508-.2-.996-.559-1.355a1.915 1.915 0 00-1.355-.56 1.912 1.912 0 00-1.915 1.915 1.912 1.912 0 001.915 1.915 1.912 1.912 0 001.915-1.915zm8-13c0-.508-.2-.996-.559-1.355a1.915 1.915 0 00-1.355-.56 1.912 1.912 0 00-1.915 1.915 1.912 1.912 0 001.915 1.915 1.912 1.912 0 001.915-1.915zm8 4c0-.508-.2-.996-.559-1.355a1.915 1.915 0 00-1.355-.56 1.912 1.912 0 00-1.915 1.915 1.912 1.912 0 001.915 1.915 1.912 1.912 0 001.915-1.915zm8-2c0-.508-.2-.996-.559-1.355a1.915 1.915 0 00-1.355-.56 1.912 1.912 0 00-1.915 1.915 1.912 1.912 0 001.915 1.915 1.912 1.912 0 001.915-1.915zm8 0c0-.508-.2-.996-.559-1.355a1.915 1.915 0 00-1.355-.56 1.912 1.912 0 00-1.915 1.915 1.912 1.912 0 001.915 1.915 1.912 1.912 0 001.915-1.915zm9 0c0-.508-.2-.996-.559-1.355a1.915 1.915 0 00-1.355-.56 1.912 1.912 0 00-1.915 1.915 1.912 1.912 0 001.915 1.915 1.912 1.912 0 001.915-1.915zm0 0" fill-rule="evenodd" fill="#0d86a0" fill-opacity=".3"/><path d="M395.914 62c0-.508-.2-.996-.559-1.355a1.915 1.915 0 00-1.355-.56A1.912 1.912 0 00392.085 62 1.912 1.912 0 00394 63.915 1.912 1.912 0 00395.915 62zm8 1c0-.508-.2-.996-.559-1.355a1.915 1.915 0 00-1.355-.56A1.912 1.912 0 00400.085 63 1.912 1.912 0 00402 64.915 1.912 1.912 0 00403.915 63zm8-1c0-.508-.2-.996-.559-1.355a1.915 1.915 0 00-1.355-.56A1.912 1.912 0 00408.085 62 1.912 1.912 0 00410 63.915 1.912 1.912 0 00411.915 62zm8 0c0-.508-.2-.996-.559-1.355a1.915 1.915 0 00-1.355-.56A1.912 1.912 0 00416.085 62 1.912 1.912 0 00418 63.915 1.912 1.912 0 00419.915 62zm8-1c0-.508-.2-.996-.559-1.355a1.915 1.915 0 00-1.355-.56A1.912 1.912 0 00424.085 61 1.912 1.912 0 00426 62.915 1.912 1.912 0 00427.915 61zm9 0c0-.508-.2-.996-.559-1.355a1.915 1.915 0 00-1.355-.56A1.912 1.912 0 00433.085 61 1.912 1.912 0 00435 62.915 1.912 1.912 0 00436.915 61zm0 0" fill-rule="evenodd" fill="#c05c20" fill-opacity=".3"/><path d="M34.914 155c0-.508-.2-.996-.559-1.355a1.915 1.915 0 00-1.355-.56A1.912 1.912 0 0031.085 155 1.912 1.912 0 0033 156.915 1.912 1.912 0 0034.915 155zm41 52c0-.508-.2-.996-.559-1.355a1.915 1.915 0 00-1.355-.56A1.912 1.912 0 0072.085 207 1.912 1.912 0 0074 208.915 1.912 1.912 0 0075.915 207zm8-32c0-.508-.2-.996-.559-1.355a1.915 1.915 0 00-1.355-.56A1.912 1.912 0 0080.085 175 1.912 1.912 0 0082 176.915 1.912 1.912 0 0083.915 175zm9-28c0-.508-.2-.996-.559-1.355a1.915 1.915 0 00-1.355-.56A1.912 1.912 0 0089.085 147 1.912 1.912 0 0091 148.915 1.912 1.912 0 0092.915 147zm8-7c0-.508-.2-.996-.559-1.355a1.915 1.915 0 00-1.355-.56A1.912 1.912 0 0097.085 140 1.912 1.912 0 0099 141.915a1.912 1.912 0 001.915-1.915zm8-3c0-.508-.2-.996-.559-1.355a1.915 1.915 0 00-1.355-.56 1.912 1.912 0 00-1.915 1.915 1.912 1.912 0 001.915 1.915 1.912 1.912 0 001.915-1.915zm8-11c0-.508-.2-.996-.559-1.355a1.915 1.915 0 00-1.355-.56 1.912 1.912 0 00-1.915 1.915 1.912 1.912 0 001.915 1.915 1.912 1.912 0 001.915-1.915zm8 3c0-.508-.2-.996-.559-1.355a1.915 1.915 0 00-1.355-.56 1.912 1.912 0 00-1.915 1.915 1.912 1.912 0 001.915 1.915 1.912 1.912 0 001.915-1.915zm9-15c0-.508-.2-.996-.559-1.355a1.915 1.915 0 00-1.355-.56 1.912 1.912 0 00-1.915 1.915 1.912 1.912 0 001.915 1.915 1.912 1.912 0 001.915-1.915zm8-12c0-.508-.2-.996-.559-1.355a1.915 1.915 0 00-1.355-.56 1.912 1.912 0 00-1.915 1.915 1.912 1.912 0 001.915 1.915 1.912 1.912 0 001.915-1.915zm8-10c0-.508-.2-.996-.559-1.355a1.915 1.915 0 00-1.355-.56A1.912 1.912 0 00146.085 92 1.912 1.912 0 00148 93.915 1.912 1.912 0 00149.915 92zm8-3c0-.508-.2-.996-.559-1.355a1.915 1.915 0 00-1.355-.56A1.912 1.912 0 00154.085 89 1.912 1.912 0 00156 90.915 1.912 1.912 0 00157.915 89zm8-18c0-.508-.2-.996-.559-1.355a1.915 1.915 0 00-1.355-.56A1.912 1.912 0 00162.085 71 1.912 1.912 0 00164 72.915 1.912 1.912 0 00165.915 71zm9 4c0-.508-.2-.996-.559-1.355a1.915 1.915 0 00-1.355-.56A1.912 1.912 0 00171.085 75 1.912 1.912 0 00173 76.915 1.912 1.912 0 00174.915 75zm8-4c0-.508-.2-.996-.559-1.355a1.915 1.915 0 00-1.355-.56A1.912 1.912 0 00179.085 71 1.912 1.912 0 00181 72.915 1.912 1.912 0 00182.915 71zm8-3c0-.508-.2-.996-.559-1.355a1.915 1.915 0 00-1.355-.56A1.912 1.912 0 00187.085 68 1.912 1.912 0 00189 69.915 1.912 1.912 0 00190.915 68zm8-1c0-.508-.2-.996-.559-1.355a1.915 1.915 0 00-1.355-.56A1.912 1.912 0 00195.085 67 1.912 1.912 0 00197 68.915 1.912 1.912 0 00198.915 67zm8-5c0-.508-.2-.996-.559-1.355a1.915 1.915 0 00-1.355-.56A1.912 1.912 0 00203.085 62 1.912 1.912 0 00205 63.915 1.912 1.912 0 00206.915 62zm9-2c0-.508-.2-.996-.559-1.355a1.915 1.915 0 00-1.355-.56A1.912 1.912 0 00212.085 60 1.912 1.912 0 00214 61.915 1.912 1.912 0 00215.915 60zm8-3c0-.508-.2-.996-.559-1.355a1.915 1.915 0 00-1.355-.56A1.912 1.912 0 00220.085 57 1.912 1.912 0 00222 58.915 1.912 1.912 0 00223.915 57zm8-4c0-.508-.2-.996-.559-1.355a1.915 1.915 0 00-1.355-.56A1.912 1.912 0 00228.085 53 1.912 1.912 0 00230 54.915 1.912 1.912 0 00231.915 53zm8 1c0-.508-.2-.996-.559-1.355a1.915 1.915 0 00-1.355-.56A1.912 1.912 0 00236.085 54 1.912 1.912 0 00238 55.915 1.912 1.912 0 00239.915 54zm8 4c0-.508-.2-.996-.559-1.355a1.915 1.915 0 00-1.355-.56A1.912 1.912 0 00244.085 58 1.912 1.912 0 00246 59.915 1.912 1.912 0 00247.915 58zm8-2c0-.508-.2-.996-.559-1.355a1.915 1.915 0 00-1.355-.56A1.912 1.912 0 00252.085 56 1.912 1.912 0 00254 57.915 1.912 1.912 0 00255.915 56zm9 6c0-.508-.2-.996-.559-1.355a1.915 1.915 0 00-1.355-.56A1.912 1.912 0 00261.085 62 1.912 1.912 0 00263 63.915 1.912 1.912 0 00264.915 62zm8-4c0-.508-.2-.996-.559-1.355a1.915 1.915 0 00-1.355-.56A1.912 1.912 0 00269.085 58 1.912 1.912 0 00271 59.915 1.912 1.912 0 00272.915 58zm8 5c0-.508-.2-.996-.559-1.355a1.915 1.915 0 00-1.355-.56A1.912 1.912 0 00277.085 63 1.912 1.912 0 00279 64.915 1.912 1.912 0 00280.915 63zm8 5c0-.508-.2-.996-.559-1.355a1.915 1.915 0 00-1.355-.56A1.912 1.912 0 00285.085 68 1.912 1.912 0 00287 69.915 1.912 1.912 0 00288.915 68zm8-44c0-.508-.2-.996-.559-1.355a1.915 1.915 0 00-1.355-.56A1.912 1.912 0 00293.085 24 1.912 1.912 0 00295 25.915 1.912 1.912 0 00296.915 24zm9 23c0-.508-.2-.996-.559-1.355a1.915 1.915 0 00-1.355-.56A1.912 1.912 0 00302.085 47 1.912 1.912 0 00304 48.915 1.912 1.912 0 00305.915 47zm8 15c0-.508-.2-.996-.559-1.355a1.915 1.915 0 00-1.355-.56A1.912 1.912 0 00310.085 62 1.912 1.912 0 00312 63.915 1.912 1.912 0 00313.915 62zm8 6c0-.508-.2-.996-.559-1.355a1.915 1.915 0 00-1.355-.56A1.912 1.912 0 00318.085 68 1.912 1.912 0 00320 69.915 1.912 1.912 0 00321.915 68zm8-1c0-.508-.2-.996-.559-1.355a1.915 1.915 0 00-1.355-.56A1.912 1.912 0 00326.085 67 1.912 1.912 0 00328 68.915 1.912 1.912 0 00329.915 67zm8 2c0-.508-.2-.996-.559-1.355a1.915 1.915 0 00-1.355-.56A1.912 1.912 0 00334.085 69 1.912 1.912 0 00336 70.915 1.912 1.912 0 00337.915 69zm9 2c0-.508-.2-.996-.559-1.355a1.915 1.915 0 00-1.355-.56A1.912 1.912 0 00343.085 71 1.912 1.912 0 00345 72.915 1.912 1.912 0 00346.915 71zm8 17c0-.508-.2-.996-.559-1.355a1.915 1.915 0 00-1.355-.56A1.912 1.912 0 00351.085 88 1.912 1.912 0 00353 89.915 1.912 1.912 0 00354.915 88zm8-2c0-.508-.2-.996-.559-1.355a1.915 1.915 0 00-1.355-.56A1.912 1.912 0 00359.085 86 1.912 1.912 0 00361 87.915 1.912 1.912 0 00362.915 86zm8 18c0-.508-.2-.996-.559-1.355a1.915 1.915 0 00-1.355-.56 1.912 1.912 0 00-1.915 1.915 1.912 1.912 0 001.915 1.915 1.912 1.912 0 001.915-1.915zm8-11c0-.508-.2-.996-.559-1.355a1.915 1.915 0 00-1.355-.56A1.912 1.912 0 00375.085 93 1.912 1.912 0 00377 94.915 1.912 1.912 0 00378.915 93zm8 10c0-.508-.2-.996-.559-1.355a1.915 1.915 0 00-1.355-.56 1.912 1.912 0 00-1.915 1.915 1.912 1.912 0 001.915 1.915 1.912 1.912 0 001.915-1.915zm9-4c0-.508-.2-.996-.559-1.355a1.915 1.915 0 00-1.355-.56A1.912 1.912 0 00392.085 99a1.912 1.912 0 001.915 1.915A1.912 1.912 0 00395.915 99zm0 0" fill-rule="evenodd" fill="#a60000"/><path d="M34.914 238c0-.508-.2-.996-.559-1.355a1.915 1.915 0 00-1.355-.56A1.912 1.912 0 0031.085 238 1.912 1.912 0 0033 239.915 1.912 1.912 0 0034.915 238zm33 0c0-.508-.2-.996-.559-1.355a1.915 1.915 0 00-1.355-.56A1.912 1.912 0 0064.085 238 1.912 1.912 0 0066 239.915 1.912 1.912 0 0067.915 238zm8 0c0-.508-.2-.996-.559-1.355a1.915 1.915 0 00-1.355-.56A1.912 1.912 0 0072.085 238 1.912 1.912 0 0074 239.915 1.912 1.912 0 0075.915 238zm25 0c0-.508-.2-.996-.559-1.355a1.915 1.915 0 00-1.355-.56A1.912 1.912 0 0097.085 238 1.912 1.912 0 0099 239.915a1.912 1.912 0 001.915-1.915zm8-16c0-.508-.2-.996-.559-1.355a1.915 1.915 0 00-1.355-.56 1.912 1.912 0 00-1.915 1.915 1.912 1.912 0 001.915 1.915 1.912 1.912 0 001.915-1.915zm8-9c0-.508-.2-.996-.559-1.355a1.915 1.915 0 00-1.355-.56 1.912 1.912 0 00-1.915 1.915 1.912 1.912 0 001.915 1.915 1.912 1.912 0 001.915-1.915zm8-22c0-.508-.2-.996-.559-1.355a1.915 1.915 0 00-1.355-.56 1.912 1.912 0 00-1.915 1.915 1.912 1.912 0 001.915 1.915 1.912 1.912 0 001.915-1.915zm9 0c0-.508-.2-.996-.559-1.355a1.915 1.915 0 00-1.355-.56 1.912 1.912 0 00-1.915 1.915 1.912 1.912 0 001.915 1.915 1.912 1.912 0 001.915-1.915zm8-15c0-.508-.2-.996-.559-1.355a1.915 1.915 0 00-1.355-.56 1.912 1.912 0 00-1.915 1.915 1.912 1.912 0 001.915 1.915 1.912 1.912 0 001.915-1.915zm8 1c0-.508-.2-.996-.559-1.355a1.915 1.915 0 00-1.355-.56 1.912 1.912 0 00-1.915 1.915 1.912 1.912 0 001.915 1.915 1.912 1.912 0 001.915-1.915zm8-10c0-.508-.2-.996-.559-1.355a1.915 1.915 0 00-1.355-.56 1.912 1.912 0 00-1.915 1.915 1.912 1.912 0 001.915 1.915 1.912 1.912 0 001.915-1.915zm8-2c0-.508-.2-.996-.559-1.355a1.915 1.915 0 00-1.355-.56 1.912 1.912 0 00-1.915 1.915 1.912 1.912 0 001.915 1.915 1.912 1.912 0 001.915-1.915zm9 0c0-.508-.2-.996-.559-1.355a1.915 1.915 0 00-1.355-.56 1.912 1.912 0 00-1.915 1.915 1.912 1.912 0 001.915 1.915 1.912 1.912 0 001.915-1.915zm8-8c0-.508-.2-.996-.559-1.355a1.915 1.915 0 00-1.355-.56 1.912 1.912 0 00-1.915 1.915 1.912 1.912 0 001.915 1.915 1.912 1.912 0 001.915-1.915zm8-3c0-.508-.2-.996-.559-1.355a1.915 1.915 0 00-1.355-.56 1.912 1.912 0 00-1.915 1.915 1.912 1.912 0 001.915 1.915 1.912 1.912 0 001.915-1.915zm8-2c0-.508-.2-.996-.559-1.355a1.915 1.915 0 00-1.355-.56 1.912 1.912 0 00-1.915 1.915 1.912 1.912 0 001.915 1.915 1.912 1.912 0 001.915-1.915zm8 1c0-.508-.2-.996-.559-1.355a1.915 1.915 0 00-1.355-.56 1.912 1.912 0 00-1.915 1.915 1.912 1.912 0 001.915 1.915 1.912 1.912 0 001.915-1.915zm9-5c0-.508-.2-.996-.559-1.355a1.915 1.915 0 00-1.355-.56 1.912 1.912 0 00-1.915 1.915 1.912 1.912 0 001.915 1.915 1.912 1.912 0 001.915-1.915zm8-3c0-.508-.2-.996-.559-1.355a1.915 1.915 0 00-1.355-.56 1.912 1.912 0 00-1.915 1.915 1.912 1.912 0 001.915 1.915 1.912 1.912 0 001.915-1.915zm8 0c0-.508-.2-.996-.559-1.355a1.915 1.915 0 00-1.355-.56 1.912 1.912 0 00-1.915 1.915 1.912 1.912 0 001.915 1.915 1.912 1.912 0 001.915-1.915zm8-3c0-.508-.2-.996-.559-1.355a1.915 1.915 0 00-1.355-.56 1.912 1.912 0 00-1.915 1.915 1.912 1.912 0 001.915 1.915 1.912 1.912 0 001.915-1.915zm8 0c0-.508-.2-.996-.559-1.355a1.915 1.915 0 00-1.355-.56 1.912 1.912 0 00-1.915 1.915 1.912 1.912 0 001.915 1.915 1.912 1.912 0 001.915-1.915zm8-4c0-.508-.2-.996-.559-1.355a1.915 1.915 0 00-1.355-.56 1.912 1.912 0 00-1.915 1.915 1.912 1.912 0 001.915 1.915 1.912 1.912 0 001.915-1.915zm9 0c0-.508-.2-.996-.559-1.355a1.915 1.915 0 00-1.355-.56 1.912 1.912 0 00-1.915 1.915 1.912 1.912 0 001.915 1.915 1.912 1.912 0 001.915-1.915zm8-2c0-.508-.2-.996-.559-1.355a1.915 1.915 0 00-1.355-.56 1.912 1.912 0 00-1.915 1.915 1.912 1.912 0 001.915 1.915 1.912 1.912 0 001.915-1.915zm8-3c0-.508-.2-.996-.559-1.355a1.915 1.915 0 00-1.355-.56 1.912 1.912 0 00-1.915 1.915 1.912 1.912 0 001.915 1.915 1.912 1.912 0 001.915-1.915zm8 3c0-.508-.2-.996-.559-1.355a1.915 1.915 0 00-1.355-.56 1.912 1.912 0 00-1.915 1.915 1.912 1.912 0 001.915 1.915 1.912 1.912 0 001.915-1.915zm8-10c0-.508-.2-.996-.559-1.355a1.915 1.915 0 00-1.355-.56 1.912 1.912 0 00-1.915 1.915 1.912 1.912 0 001.915 1.915 1.912 1.912 0 001.915-1.915zm9 5c0-.508-.2-.996-.559-1.355a1.915 1.915 0 00-1.355-.56 1.912 1.912 0 00-1.915 1.915 1.912 1.912 0 001.915 1.915 1.912 1.912 0 001.915-1.915zm8-4c0-.508-.2-.996-.559-1.355a1.915 1.915 0 00-1.355-.56 1.912 1.912 0 00-1.915 1.915 1.912 1.912 0 001.915 1.915 1.912 1.912 0 001.915-1.915zm8 0c0-.508-.2-.996-.559-1.355a1.915 1.915 0 00-1.355-.56 1.912 1.912 0 00-1.915 1.915 1.912 1.912 0 001.915 1.915 1.912 1.912 0 001.915-1.915zm8 7c0-.508-.2-.996-.559-1.355a1.915 1.915 0 00-1.355-.56 1.912 1.912 0 00-1.915 1.915 1.912 1.912 0 001.915 1.915 1.912 1.912 0 001.915-1.915zm8 1c0-.508-.2-.996-.559-1.355a1.915 1.915 0 00-1.355-.56 1.912 1.912 0 00-1.915 1.915 1.912 1.912 0 001.915 1.915 1.912 1.912 0 001.915-1.915zm9-7c0-.508-.2-.996-.559-1.355a1.915 1.915 0 00-1.355-.56 1.912 1.912 0 00-1.915 1.915 1.912 1.912 0 001.915 1.915 1.912 1.912 0 001.915-1.915zm8 4c0-.508-.2-.996-.559-1.355a1.915 1.915 0 00-1.355-.56 1.912 1.912 0 00-1.915 1.915 1.912 1.912 0 001.915 1.915 1.912 1.912 0 001.915-1.915zm8-1c0-.508-.2-.996-.559-1.355a1.915 1.915 0 00-1.355-.56 1.912 1.912 0 00-1.915 1.915 1.912 1.912 0 001.915 1.915 1.912 1.912 0 001.915-1.915zm8 2c0-.508-.2-.996-.559-1.355a1.915 1.915 0 00-1.355-.56 1.912 1.912 0 00-1.915 1.915 1.912 1.912 0 001.915 1.915 1.912 1.912 0 001.915-1.915zm8 3c0-.508-.2-.996-.559-1.355a1.915 1.915 0 00-1.355-.56 1.912 1.912 0 00-1.915 1.915 1.912 1.912 0 001.915 1.915 1.912 1.912 0 001.915-1.915zm8-10c0-.508-.2-.996-.559-1.355a1.915 1.915 0 00-1.355-.56 1.912 1.912 0 00-1.915 1.915 1.912 1.912 0 001.915 1.915 1.912 1.912 0 001.915-1.915zm9 17c0-.508-.2-.996-.559-1.355a1.915 1.915 0 00-1.355-.56 1.912 1.912 0 00-1.915 1.915 1.912 1.912 0 001.915 1.915 1.912 1.912 0 001.915-1.915zm0 0" fill-rule="evenodd" fill="#0d86a0"/><path d="M34.914 222c0-.508-.2-.996-.559-1.355a1.915 1.915 0 00-1.355-.56A1.912 1.912 0 0031.085 222 1.912 1.912 0 0033 223.915 1.912 1.912 0 0034.915 222zm9-15c0-.508-.2-.996-.559-1.355a1.915 1.915 0 00-1.355-.56A1.912 1.912 0 0040.085 207 1.912 1.912 0 0042 208.915 1.912 1.912 0 0043.915 207zm8 31c0-.508-.2-.996-.559-1.355a1.915 1.915 0 00-1.355-.56A1.912 1.912 0 0048.085 238 1.912 1.912 0 0050 239.915 1.912 1.912 0 0051.915 238zm16-36c0-.508-.2-.996-.559-1.355a1.915 1.915 0 00-1.355-.56A1.912 1.912 0 0064.085 202 1.912 1.912 0 0066 203.915 1.912 1.912 0 0067.915 202zm16 5c0-.508-.2-.996-.559-1.355a1.915 1.915 0 00-1.355-.56A1.912 1.912 0 0080.085 207 1.912 1.912 0 0082 208.915 1.912 1.912 0 0083.915 207zm9-5c0-.508-.2-.996-.559-1.355a1.915 1.915 0 00-1.355-.56A1.912 1.912 0 0089.085 202 1.912 1.912 0 0091 203.915 1.912 1.912 0 0092.915 202zm8 5c0-.508-.2-.996-.559-1.355a1.915 1.915 0 00-1.355-.56A1.912 1.912 0 0097.085 207 1.912 1.912 0 0099 208.915a1.912 1.912 0 001.915-1.915zm16 6c0-.508-.2-.996-.559-1.355a1.915 1.915 0 00-1.355-.56 1.912 1.912 0 00-1.915 1.915 1.912 1.912 0 001.915 1.915 1.912 1.912 0 001.915-1.915zm17-15c0-.508-.2-.996-.559-1.355a1.915 1.915 0 00-1.355-.56 1.912 1.912 0 00-1.915 1.915 1.912 1.912 0 001.915 1.915 1.912 1.912 0 001.915-1.915zm8 15c0-.508-.2-.996-.559-1.355a1.915 1.915 0 00-1.355-.56 1.912 1.912 0 00-1.915 1.915 1.912 1.912 0 001.915 1.915 1.912 1.912 0 001.915-1.915zm8-29c0-.508-.2-.996-.559-1.355a1.915 1.915 0 00-1.355-.56 1.912 1.912 0 00-1.915 1.915 1.912 1.912 0 001.915 1.915 1.912 1.912 0 001.915-1.915zm8 38c0-.508-.2-.996-.559-1.355a1.915 1.915 0 00-1.355-.56 1.912 1.912 0 00-1.915 1.915 1.912 1.912 0 001.915 1.915 1.912 1.912 0 001.915-1.915zm8-33c0-.508-.2-.996-.559-1.355a1.915 1.915 0 00-1.355-.56 1.912 1.912 0 00-1.915 1.915 1.912 1.912 0 001.915 1.915 1.912 1.912 0 001.915-1.915zm9-35c0-.508-.2-.996-.559-1.355a1.915 1.915 0 00-1.355-.56 1.912 1.912 0 00-1.915 1.915 1.912 1.912 0 001.915 1.915 1.912 1.912 0 001.915-1.915zm8 16c0-.508-.2-.996-.559-1.355a1.915 1.915 0 00-1.355-.56 1.912 1.912 0 00-1.915 1.915 1.912 1.912 0 001.915 1.915 1.912 1.912 0 001.915-1.915zm8-18c0-.508-.2-.996-.559-1.355a1.915 1.915 0 00-1.355-.56 1.912 1.912 0 00-1.915 1.915 1.912 1.912 0 001.915 1.915 1.912 1.912 0 001.915-1.915zm8-10c0-.508-.2-.996-.559-1.355a1.915 1.915 0 00-1.355-.56 1.912 1.912 0 00-1.915 1.915 1.912 1.912 0 001.915 1.915 1.912 1.912 0 001.915-1.915zm8-3c0-.508-.2-.996-.559-1.355a1.915 1.915 0 00-1.355-.56 1.912 1.912 0 00-1.915 1.915 1.912 1.912 0 001.915 1.915 1.912 1.912 0 001.915-1.915zm9-13c0-.508-.2-.996-.559-1.355a1.915 1.915 0 00-1.355-.56 1.912 1.912 0 00-1.915 1.915 1.912 1.912 0 001.915 1.915 1.912 1.912 0 001.915-1.915zm8-1c0-.508-.2-.996-.559-1.355a1.915 1.915 0 00-1.355-.56 1.912 1.912 0 00-1.915 1.915 1.912 1.912 0 001.915 1.915 1.912 1.912 0 001.915-1.915zm8-12c0-.508-.2-.996-.559-1.355a1.915 1.915 0 00-1.355-.56 1.912 1.912 0 00-1.915 1.915 1.912 1.912 0 001.915 1.915 1.912 1.912 0 001.915-1.915zm8 0c0-.508-.2-.996-.559-1.355a1.915 1.915 0 00-1.355-.56 1.912 1.912 0 00-1.915 1.915 1.912 1.912 0 001.915 1.915 1.912 1.912 0 001.915-1.915zm8-8c0-.508-.2-.996-.559-1.355a1.915 1.915 0 00-1.355-.56 1.912 1.912 0 00-1.915 1.915 1.912 1.912 0 001.915 1.915 1.912 1.912 0 001.915-1.915zm8-6c0-.508-.2-.996-.559-1.355a1.915 1.915 0 00-1.355-.56A1.912 1.912 0 00252.085 99a1.912 1.912 0 001.915 1.915A1.912 1.912 0 00255.915 99zm9-4c0-.508-.2-.996-.559-1.355a1.915 1.915 0 00-1.355-.56A1.912 1.912 0 00261.085 95 1.912 1.912 0 00263 96.915 1.912 1.912 0 00264.915 95zm8-1c0-.508-.2-.996-.559-1.355a1.915 1.915 0 00-1.355-.56A1.912 1.912 0 00269.085 94 1.912 1.912 0 00271 95.915 1.912 1.912 0 00272.915 94zm8-3c0-.508-.2-.996-.559-1.355a1.915 1.915 0 00-1.355-.56A1.912 1.912 0 00277.085 91 1.912 1.912 0 00279 92.915 1.912 1.912 0 00280.915 91zm8-1c0-.508-.2-.996-.559-1.355a1.915 1.915 0 00-1.355-.56A1.912 1.912 0 00285.085 90 1.912 1.912 0 00287 91.915 1.912 1.912 0 00288.915 90zm8-10c0-.508-.2-.996-.559-1.355a1.915 1.915 0 00-1.355-.56A1.912 1.912 0 00293.085 80 1.912 1.912 0 00295 81.915 1.912 1.912 0 00296.915 80zm9 2c0-.508-.2-.996-.559-1.355a1.915 1.915 0 00-1.355-.56A1.912 1.912 0 00302.085 82 1.912 1.912 0 00304 83.915 1.912 1.912 0 00305.915 82zm8-6c0-.508-.2-.996-.559-1.355a1.915 1.915 0 00-1.355-.56A1.912 1.912 0 00310.085 76 1.912 1.912 0 00312 77.915 1.912 1.912 0 00313.915 76zm8 1c0-.508-.2-.996-.559-1.355a1.915 1.915 0 00-1.355-.56A1.912 1.912 0 00318.085 77 1.912 1.912 0 00320 78.915 1.912 1.912 0 00321.915 77zm8-1c0-.508-.2-.996-.559-1.355a1.915 1.915 0 00-1.355-.56A1.912 1.912 0 00326.085 76 1.912 1.912 0 00328 77.915 1.912 1.912 0 00329.915 76zm8-4c0-.508-.2-.996-.559-1.355a1.915 1.915 0 00-1.355-.56A1.912 1.912 0 00334.085 72 1.912 1.912 0 00336 73.915 1.912 1.912 0 00337.915 72zm9-2c0-.508-.2-.996-.559-1.355a1.915 1.915 0 00-1.355-.56A1.912 1.912 0 00343.085 70 1.912 1.912 0 00345 71.915 1.912 1.912 0 00346.915 70zm8 1c0-.508-.2-.996-.559-1.355a1.915 1.915 0 00-1.355-.56A1.912 1.912 0 00351.085 71 1.912 1.912 0 00353 72.915 1.912 1.912 0 00354.915 71zm8-4c0-.508-.2-.996-.559-1.355a1.915 1.915 0 00-1.355-.56A1.912 1.912 0 00359.085 67 1.912 1.912 0 00361 68.915 1.912 1.912 0 00362.915 67zm8-3c0-.508-.2-.996-.559-1.355a1.915 1.915 0 00-1.355-.56A1.912 1.912 0 00367.085 64 1.912 1.912 0 00369 65.915 1.912 1.912 0 00370.915 64zm8 2c0-.508-.2-.996-.559-1.355a1.915 1.915 0 00-1.355-.56A1.912 1.912 0 00375.085 66 1.912 1.912 0 00377 67.915 1.912 1.912 0 00378.915 66zm8 4c0-.508-.2-.996-.559-1.355a1.915 1.915 0 00-1.355-.56A1.912 1.912 0 00383.085 70 1.912 1.912 0 00385 71.915 1.912 1.912 0 00386.915 70zm9-8c0-.508-.2-.996-.559-1.355a1.915 1.915 0 00-1.355-.56A1.912 1.912 0 00392.085 62 1.912 1.912 0 00394 63.915 1.912 1.912 0 00395.915 62zm0 0" fill-rule="evenodd" fill="#c05c20"/><path d="M442.945 71.574h4.77l.316.004.39.027.477.055.567.11.672.164.781.246.902.332 1.028.437 1.144.535 1.227.606 1.281.644 1.3.653 1.29.64 1.25.594 1.176.52 1.07.421.973.317.886.23.828.157.782.097.761.051.758.02.778.004h4.714" fill="none" stroke-width="4" stroke-linejoin="round" stroke="#fff" stroke-opacity=".667" stroke-miterlimit="3.25"/><path d="M442.945 71.574h4.77l.316.004.39.027.477.055.567.11.672.164.781.246.902.332 1.028.437 1.144.535 1.227.606 1.281.644 1.3.653 1.29.64 1.25.594 1.176.52 1.07.421.973.317.886.23.828.157.782.097.761.051.758.02.778.004h4.714" fill="none" stroke-width="1.25" stroke-linecap="square" stroke="#aaa" stroke-miterlimit="3.25"/><path d="M498.066 70.938v15h-25v-15zm0 0" fill="#fff" fill-opacity=".667"/><use xlink:href="#a" x="475.568" y="80.938"/><use xlink:href="#b" x="485.568" y="80.938"/><path d="M442.945 131.848h30.121" fill="none" stroke-width="4" stroke-linejoin="round" stroke="#fff" stroke-opacity=".667" stroke-miterlimit="3.25"/><path d="M442.945 131.848h30.121" fill="none" stroke-width="1.25" stroke-linecap="square" stroke="#aaa" stroke-miterlimit="3.25"/><path d="M498.066 124.348v15h-25v-15zm0 0" fill="#fff" fill-opacity=".667"/><use xlink:href="#c" x="475.568" y="134.349"/><use xlink:href="#d" x="485.568" y="134.349"/><path d="M442.945 60.844h4.77l.316-.004.39-.028.477-.054.567-.106.672-.168.781-.246.902-.332 1.028-.437 1.144-.535 1.227-.606 1.281-.64 1.3-.657 1.29-.64 1.25-.594 1.176-.52 1.07-.422.973-.316.886-.23.828-.157.782-.097.761-.051.758-.02.778-.004h4.714" fill="none" stroke-width="4" stroke-linejoin="round" stroke="#fff" stroke-opacity=".667" stroke-miterlimit="3.25"/><path d="M442.945 60.844h4.77l.316-.004.39-.028.477-.054.567-.106.672-.168.781-.246.902-.332 1.028-.437 1.144-.535 1.227-.606 1.281-.64 1.3-.657 1.29-.64 1.25-.594 1.176-.52 1.07-.422.973-.316.886-.23.828-.157.782-.097.761-.051.758-.02.778-.004h4.714" fill="none" stroke-width="1.25" stroke-linecap="square" stroke="#aaa" stroke-miterlimit="3.25"/><path d="M498.066 46.48v15h-25v-15zm0 0" fill="#fff" fill-opacity=".667"/><use xlink:href="#e" x="475.568" y="56.48"/><use xlink:href="#f" x="485.568" y="56.48"/><path d="M393.645 142.59l8.19-6.985 8.188 12.875 8.188 4.278 8.187 7.422 8.188 7.707v-49.184l-8.188 1.469-8.187 1.621-8.188 3.074-8.187-.074zm0-80.399l8.19 3.606 8.188.789 8.188.465 8.187.297 8.188.187V55.703l-8.188.887-8.187.996-8.188 1.164-8.187 1.484zm0 0" fill="gray" fill-opacity=".05"/><path d="M442.945 254.77H25m0 0V4m0 0h417.945m0 0v250.77" fill="none" stroke-width=".5" stroke-linecap="square" stroke="#666" stroke-miterlimit="3.25"/><path d="M49.734 254.77v-5.805" fill="none" stroke-width=".5" stroke="#666" stroke-miterlimit="3.25"/><g fill="#666"><use xlink:href="#g" x="35.236" y="266.768"/><use xlink:href="#h" x="40.753" y="266.768"/><use xlink:href="#i" x="46.193" y="266.768"/></g><g fill="#666"><use xlink:href="#j" x="53.236" y="266.768"/><use xlink:href="#k" x="58.851" y="266.768"/></g><path d="M164.371 254.77v-5.805" fill="none" stroke-width=".5" stroke="#666" stroke-miterlimit="3.25"/><g fill="#666"><use xlink:href="#g" x="149.872" y="266.768"/><use xlink:href="#h" x="155.39" y="266.768"/><use xlink:href="#i" x="160.829" y="266.768"/></g><g fill="#666"><use xlink:href="#l" x="167.872" y="266.768"/><use xlink:href="#m" x="173.488" y="266.768"/></g><path d="M279.008 254.77v-5.805" fill="none" stroke-width=".5" stroke="#666" stroke-miterlimit="3.25"/><g fill="#666"><use xlink:href="#n" x="264.509" y="266.768"/><use xlink:href="#o" x="270.037" y="266.768"/><use xlink:href="#p" x="275.334" y="266.768"/></g><g fill="#666"><use xlink:href="#j" x="282.509" y="266.768"/><use xlink:href="#q" x="288.124" y="266.768"/></g><path d="M393.645 254.77v-5.805" fill="none" stroke-width=".5" stroke="#666" stroke-miterlimit="3.25"/><g fill="#666"><use xlink:href="#n" x="379.146" y="266.768"/><use xlink:href="#o" x="384.673" y="266.768"/><use xlink:href="#p" x="389.971" y="266.768"/></g><g fill="#666"><use xlink:href="#l" x="397.146" y="266.768"/><use xlink:href="#r" x="402.761" y="266.768"/></g><path d="M25 237.887h4.18" fill="none" stroke-width=".1" stroke="#666" stroke-miterlimit="3.25"/><use xlink:href="#j" x="16" y="240.386" fill="#666"/><path d="M25 186.41h4.18" fill="none" stroke-width=".1" stroke="#666" stroke-miterlimit="3.25"/><g fill="#666"><use xlink:href="#j" x="11" y="188.91"/><use xlink:href="#q" x="16.615" y="188.91"/></g><path d="M25 134.934h4.18" fill="none" stroke-width=".1" stroke="#666" stroke-miterlimit="3.25"/><g fill="#666"><use xlink:href="#j" x="5" y="137.434"/><use xlink:href="#q" x="10.615" y="137.434"/><use xlink:href="#q" x="16.23" y="137.434"/></g><path d="M25 83.457h4.18" fill="none" stroke-width=".1" stroke="#666" stroke-miterlimit="3.25"/><g fill="#666"><use xlink:href="#j" y="85.959"/><use xlink:href="#q" x="5.615" y="85.959"/><use xlink:href="#q" x="11.23" y="85.959"/><use xlink:href="#q" x="16.846" y="85.959"/></g><path d="M25 31.984h4.18" fill="none" stroke-width=".1" stroke="#666" stroke-miterlimit="3.25"/><g fill="#666"><use xlink:href="#j" x="5" y="35.983"/><use xlink:href="#q" x="10.615" y="35.983"/></g><use xlink:href="#s" x="16" y="31.983" fill="#666"/><path d="M25 253.383h2.398M25 249.305h2.398M25 245.86h2.398M25 242.875h2.398M25 240.242h2.398M25 222.39h2.398M25 213.324h2.398M25 206.895h2.398M25 201.906h2.398M25 197.832h2.398M25 194.383h2.398M25 191.398h2.398M25 188.766h2.398M25 170.914h2.398M25 161.852h2.398M25 155.418h2.398M25 150.43h2.398M25 146.355h2.398M25 142.906h2.398M25 139.922h2.398M25 137.29h2.398M25 119.438h2.398M25 110.375h2.398M25 103.941h2.398M25 98.953h2.398M25 94.879h2.398M25 91.434h2.398M25 88.445h2.398M25 85.813h2.398M25 67.965h2.398M25 58.898h2.398M25 52.469h2.398M25 47.48h2.398M25 43.402h2.398M25 39.957h2.398M25 36.973h2.398M25 34.34h2.398M25 16.488h2.398M25 7.422h2.398" fill="none" stroke-width=".1" stroke="#666" stroke-miterlimit="3.25"/><path d="M49.734 4v5.805M164.371 4v5.805M279.008 4v5.805M393.645 4v5.805" fill="none" stroke-width=".5" stroke="#666" stroke-miterlimit="3.25"/><path d="M442.945 237.887h-4.18m4.18-51.477h-4.18m4.18-51.476h-4.18m4.18-51.477h-4.18m4.18-51.473h-4.18m4.18 221.399h-2.398m2.398-4.078h-2.398m2.398-3.445h-2.398m2.398-2.985h-2.398m2.398-2.633h-2.398m2.398-17.852h-2.398m2.398-9.066h-2.398m2.398-6.429h-2.398m2.398-4.989h-2.398m2.398-4.074h-2.398m2.398-3.449h-2.398m2.398-2.985h-2.398m2.398-2.632h-2.398m2.398-17.852h-2.398m2.398-9.062h-2.398m2.398-6.434h-2.398m2.398-4.988h-2.398m2.398-4.075h-2.398m2.398-3.449h-2.398m2.398-2.984h-2.398m2.398-2.632h-2.398m2.398-17.852h-2.398m2.398-9.063h-2.398m2.398-6.434h-2.398m2.398-4.988h-2.398m2.398-4.074h-2.398m2.398-3.445h-2.398m2.398-2.989h-2.398m2.398-2.632h-2.398m2.398-17.848h-2.398m2.398-9.067h-2.398m2.398-6.429h-2.398m2.398-4.989h-2.398m2.398-4.078h-2.398m2.398-3.445h-2.398m2.398-2.984h-2.398m2.398-2.633h-2.398m2.398-17.852h-2.398m2.398-9.066h-2.398" fill="none" stroke-width=".1" stroke="#666" stroke-miterlimit="3.25"/></svg>