<svg xmlns="http://www.w3.org/2000/svg" xmlns:xlink="http://www.w3.org/1999/xlink" width="500pt" height="332" viewBox="0 0 500 249"><defs><symbol overflow="visible" id="a"><path d="M4.738-8.14C3.578-6.88 2.121-5.82.36-4.97l.352.63C2.48-5.23 3.91-6.282 5-7.49c1.18 1.272 2.59 2.3 4.25 3.1l.36-.64a14.128 14.128 0 01-4.348-3.11zM2.211-4.98v.69h2.418v1.74H1.73v.69h2.9v1.848H.839V.7h8.333v-.71h-3.8v-1.85h2.89v-.692h-2.89V-4.29h2.417v-.691zm0 0"/></symbol><symbol overflow="visible" id="b"><path d="M2.52-6.121v.652h2.109v1.438h-1.79v.64h1.79v1.59H2.25v.66h5.512v-.66h-2.39v-1.59H7.16v-.64H5.371V-5.47H7.47v-.652zm6.59-1.59H.89V.98h.731V.55H8.38v.43h.73zM1.62-.129V-7.03h6.76v6.9zm4.93-3.05l-.57.19c.238.329.46.72.66 1.169l.558-.258A6.323 6.323 0 006.55-3.18zm0 0"/></symbol><symbol overflow="visible" id="c"><path d="M7.04-4.73h1.51v1.808H7.04zm1.51-.63H7.04v-1.78h1.51zM7.02-2.28h1.53v2.22c0 .278-.12.43-.35.43-.24 0-.49-.02-.759-.043l.168.64h.79C8.94.969 9.21.7 9.21.173V-7.8H6.379v5.082C6.359-1.422 6.07-.339 5.5.5l.52.46c.59-.839.921-1.92 1-3.241zm-5.9-5.67l-.492.46c.68.5 1.21.977 1.59 1.419l.5-.489A11.92 11.92 0 001.12-7.95zm-.2 2.34l-.491.46c.691.53 1.231 1.03 1.621 1.49l.5-.488c-.44-.48-.991-.973-1.628-1.461zm1.03 2.649A33.47 33.47 0 01.56.58l.652.28c.5-1.12.95-2.308 1.36-3.57zm3.762-.64H4.69V-5.5h1.297v-.648H4.691v-1.73H4v1.73H2.7v.648H4v1.898H2.95V.41h.66v-.59h2.1zM3.61-.801v-2.18h1.46V-.8zm0 0"/></symbol><symbol overflow="visible" id="d"><path d="M3.32-8.14v2.769H.672v.691H3.32v3.211c-.89.418-1.82.739-2.8.957L.69.2c.93-.258 1.809-.57 2.63-.949V.93h.738v-9.07zM8.22.84c.43 0 .73-.121.89-.36.16-.25.262-.96.32-2.128l-.679-.223c-.031 1.02-.09 1.61-.172 1.793C8.48.078 8.32.16 8.102.16h-1.25c-.25 0-.372-.148-.372-.43v-3.84c.93-.32 1.91-.788 2.95-1.421l-.418-.59c-.82.57-1.66 1.012-2.532 1.332v-3.352h-.73v7.98c0 .661.309 1 .941 1zm0 0"/></symbol><symbol overflow="visible" id="e"><path d="M5.262-8.32l-.793.14c.203.32.39.68.55 1.07H1.302v2.93C1.28-2.16.98-.59.42.55l.59.528C1.662-.238 2-1.988 2.04-4.18v-2.242h7.41v-.687H5.81c-.18-.45-.36-.852-.547-1.211zm0 0"/></symbol><symbol overflow="visible" id="f"><path d="M.781-6.96v.698h2.14c-.53 1.024-1.1 1.852-1.71 2.512l.168.629h3.46v3c0 .293-.16.441-.468.441-.3 0-.61-.02-.941-.05l.148.71h1.043c.629 0 .95-.308.95-.921v-3.18h3.148v-.668H5.57v-1.48h-.73v1.48h-2.7a14.36 14.36 0 001.57-2.473h5.42v-.699h-5.1c.16-.367.32-.75.48-1.148l-.71-.16c-.18.46-.36.89-.551 1.308zM2.88-2.329A10.003 10.003 0 01.48-.102L.941.5C1.898-.18 2.72-.98 3.38-1.89zm4.33-.011l-.48.461c.95.86 1.7 1.66 2.238 2.419L9.5.02a16.925 16.925 0 00-2.29-2.36zm0 0"/></symbol><symbol overflow="visible" id="g"><path d="M1.18-7.95l-.508.5c.738.528 1.328 1.028 1.75 1.5l.52-.51c-.481-.5-1.063-.99-1.762-1.49zM1-5.5l-.512.488c.703.512 1.242 1 1.633 1.461l.508-.52C2.19-4.55 1.649-5.02 1-5.5zm1.11 2.68A30.368 30.368 0 01.59.68l.719.308A31.023 31.023 0 002.762-2.57zm1.062-4.75v.699h4.887V-.18c0 .34-.16.508-.48.508-.477 0-.99-.02-1.52-.047l.16.688h1.61c.62 0 .94-.328.94-.969v-6.871h.782v-.7zm.437 2.23v3.68H6.75v-3.68zm2.47 3.02h-1.79v-2.371h1.79zm0 0"/></symbol><symbol overflow="visible" id="h"><path d="M.55-7.23v.68h4.04c-.059.331-.13.671-.2 1.01H1.103V.989h.707v-5.847h6.4v4.68c0 .28-.14.429-.422.429L6.86.23l.192.7h.98c.59 0 .89-.32.89-.95v-5.52H5.13c.07-.32.14-.651.2-1.01h4.12v-.68H5.441c.04-.29.07-.59.098-.899l-.73-.101-.118 1zm3.33 2.69l-.64.24c.21.312.39.652.542 1.01H2.68v.63h1.968v1.05H2.36v.641h2.29V.84h.703V-.97h2.296v-.64H5.352v-1.05h2v-.63H6.21c.2-.32.39-.67.57-1.062l-.66-.238c-.18.461-.383.89-.601 1.3h-1.05a7.488 7.488 0 00-.59-1.25zm0 0"/></symbol><symbol overflow="visible" id="i"><path d="M1.23-8l-.511.488c.601.5 1.062.98 1.402 1.434l.5-.5A11.5 11.5 0 001.231-8zM.988-5.61l-.5.489c.602.5 1.082.98 1.422 1.441l.5-.5c-.379-.48-.86-.949-1.422-1.43zm.793 2.66A36.295 36.295 0 01.578.63l.672.293A42.328 42.328 0 002.41-2.71zm3.68-1.081c-.313.18-.633.351-.95.511v-2.152h.91V-6.3h-.91v-1.84H3.81v1.84H2.74v.63h1.07v2.452c-.368.14-.75.27-1.137.38l.168.69c.32-.113.64-.23.969-.363V-.16c0 .32-.11.48-.329.48C3.238.32 3 .3 2.738.281l.153.63h.808c.54 0 .813-.31.813-.911v-2.82c.316-.149.629-.309.949-.48zm3.578-3.95c-.91.36-1.93.56-3.07.583v3.847c-.047 1.7-.36 3.04-.938 4l.489.52c.699-1.13 1.07-2.64 1.12-4.52v-.71h1.282v5.28h.68v-5.28h.968v-.65H6.64v-1.91c1-.058 1.91-.25 2.731-.55zm0 0"/></symbol><symbol overflow="visible" id="j"><path d="M6.07-6.86v6.79h-3v.69h6.48v-.69H6.782v-6.79h2.43v-.68H3.559v.68zM1.25-7.987L.738-7.5c.762.5 1.364.98 1.801 1.43l.5-.5c-.48-.47-1.078-.942-1.789-1.418zM.988-5.602l-.5.493c.75.507 1.34 1 1.762 1.46l.5-.5A11.644 11.644 0 00.988-5.601zM2.27-2.949A28.672 28.672 0 01.61.6l.66.29a30.8 30.8 0 001.628-3.602zm0 0"/></symbol><symbol overflow="visible" id="k"><path d="M9.148-7.191H5.43a9.89 9.89 0 00-.45-1.059l-.8.14c.172.282.32.579.46.919H.84v2.14h.738v-1.437H8.41v1.449h.738zM.602-4.411v.7h2.41c-.32.55-.66 1.11-1.024 1.672.934.3 1.864.648 2.801 1.05C3.73-.178 2.34.232.641.239l.418.672C2.922.852 4.399.328 5.519-.672A35.405 35.405 0 018.7.988L9.18.36a31.218 31.218 0 00-3.14-1.558c.531-.621 1-1.45 1.41-2.512h1.973v-.7H4.25c.238-.44.488-.91.75-1.41l-.738-.218a62.17 62.17 0 01-.864 1.629zm3.257.7H6.66c-.34.883-.78 1.621-1.32 2.211-.79-.328-1.559-.61-2.32-.828.261-.402.539-.863.84-1.383zm0 0"/></symbol><symbol overflow="visible" id="l"><path d="M2.27-8.2c-.4.93-1.032 1.76-1.9 2.482l.207.68c1.063-.84 1.82-1.8 2.3-2.883zm.28 2.27c-.44 1.121-1.14 2.121-2.109 3l.207.66a9.72 9.72 0 00.993-.968V.988h.68v-5.097c.327-.48.6-1 .82-1.551zm1.962-2.242v1.762h-.684V-7.8h-.566v1.972h3.09v-1.973h-.57v1.39H5.09v-1.76zM3.109-5.148v.617H6.25c-.07.133-.14.261-.21.383l.358.457c.211-.297.403-.637.57-1.02.122 1.14.36 2.191.723 3.133A5.9 5.9 0 016.641.129c-.18-.399-.38-.777-.582-1.117l-.48.226c.21.371.41.793.6 1.262L6.41.39l.36.56c.5-.49.92-1.08 1.26-1.77.31.64.701 1.23 1.17 1.76l.45-.52a7.733 7.733 0 01-1.297-2.01c.43-1.2.668-2.641.707-4.34h.39v-.65H7.59c.11-.452.2-.94.282-1.46l-.66-.121c-.18 1.45-.492 2.648-.941 3.59v-.578zm4.301-.743c0-.007 0-.02.012-.039H8.46C8.43-4.62 8.28-3.469 8-2.48c-.34-1-.531-2.141-.59-3.41zM3.46-.898A5.217 5.217 0 012.673.328l.469.344c.308-.383.578-.82.808-1.332zM5.98-2.73l-.511.171c.101.16.203.34.3.54-.597.097-1.199.18-1.789.238.801-.52 1.5-1.117 2.098-1.778l-.558-.21c-.141.16-.29.32-.45.48-.41.039-.82.07-1.218.098.418-.32.796-.68 1.136-1.09L4.441-4.5a7.02 7.02 0 01-1.41 1.352l.13.457c.46-.02.917-.059 1.39-.118-.473.399-.98.77-1.54 1.11l.13.488c.46-.039.93-.09 1.41-.148V.12c0 .16-.082.25-.223.25-.18 0-.367-.02-.558-.043l.128.594h.641c.422 0 .64-.223.64-.64v-1.743l.79-.148c.07.14.14.289.203.449l.5-.219c-.203-.48-.434-.93-.692-1.351zm0 0"/></symbol><symbol overflow="visible" id="m"><path d="M.54-7.738v.699h2.98v1.527H1.14V.941h.72V.488h6.3v.453h.719v-6.453H6.44v-1.527h3.02v-.7zM1.86-.191v-4.637h1.66v.2C3.5-3.27 3-2.282 2.02-1.66l.558.488C3.66-1.898 4.211-3.05 4.23-4.629v-.2h1.5v2.067c0 .653.32.98.98.98h1.45v1.59zM4.23-7.04h1.5v1.527h-1.5zm2.211 2.21h1.72v2.388H6.897c-.308 0-.457-.16-.457-.47zm0 0"/></symbol><symbol overflow="visible" id="n"><path d="M8.3-3.27l-.562.348c.563.863 1.012 1.652 1.34 2.363l.55-.402c-.308-.66-.75-1.43-1.327-2.309zm-6.421.098c-.3.82-.738 1.48-1.34 1.98l.54.473c.6-.5 1.081-1.242 1.44-2.203zm2.3-2.45v.95H1.43v.703h2.712c-.082.98-.29 1.797-.653 2.48-.457.778-1.277 1.4-2.457 1.88l.399.64C2.64.551 3.512-.12 4.05-.98c.462-.782.731-1.77.829-2.989H6.94c-.05 1.719-.152 2.848-.3 3.367-.153.512-.461.774-.93.774-.402 0-.82-.012-1.262-.024l.192.68h1.418c.46-.027.793-.2 1.011-.508.2-.32.352-.898.45-1.718.082-.84.128-1.93.171-3.274H4.92v-.95zM.65-7.108v.687h2.26v.902h.73v-.902h2.622v.91h.726v-.91h2.364v-.687H6.988v-1.02h-.726v1.02H3.64v-1.02h-.73v1.02zm0 0"/></symbol><symbol overflow="visible" id="o"><path d="M1.54-5.23v3.32h3.089v.691h-3.55v.578h3.55v.75H.579v.63h8.843v-.63h-4.07v-.75H8.93v-.578H5.352v-.691h3.097v-3.32H5.352v-.641h3.93v-.617h-3.93v-.762A73.97 73.97 0 008.46-7.5l-.223-.602c-1.988.223-4.289.372-6.886.454l.117.59c1.101-.044 2.152-.09 3.16-.153v.723H.719v.617h3.91v.64zm6.21 2.742H5.352v-.813H7.75zm-3.121 0H2.23v-.813h2.4zM2.23-3.86v-.79h2.4v.79zm3.122-.79H7.75v.79H5.352zm0 0"/></symbol><symbol overflow="visible" id="p"><path d="M2.531-4.129v.668h2.707C4.84-1.879 3.738-.57 1.961.461l.41.59C4.148-.031 5.301-1.38 5.81-3.012c.56 1.684 1.67 3.024 3.31 4l.43-.566C7.93-.5 6.84-1.801 6.289-3.461H9.25v-.668H6.102c-.024-.05-.032-.11-.043-.172.03-.46.05-1 .05-1.62h-.68c0 .28-.007.683-.007 1.202a19.6 19.6 0 01-.05.59zM5.25-8.23l-.79.14c.22.3.411.621.59.98H1.3v2.91C1.27-2.2.96-.628.36.489l.562.5C1.629-.309 2-2.039 2.039-4.199v-2.223h7.41v-.687H5.83a9.055 9.055 0 00-.58-1.121zm0 0"/></symbol><symbol overflow="visible" id="q"><path d="M8.219-6.469V-.55H5.37v-7.558h-.74V-.55H1.77V-6.5h-.718V.8h.719V.14H8.22v.67h.722v-7.28zm0 0"/></symbol><symbol overflow="visible" id="r"><path d="M3.77-7.078l-.598.367C4.05-5.68 4.738-4.75 5.25-3.91l.61-.417c-.481-.781-1.18-1.703-2.09-2.75zM7.21-2.18C7.97-1.129 8.579-.14 9.05.8l.552-.55a22.006 22.006 0 00-2.07-3.121c.058-.149.109-.3.16-.45.417-1.32.628-2.917.628-4.82h-.75c-.011 1.93-.218 3.52-.64 4.77-.551 1.48-1.68 2.7-3.38 3.68l.481.59C5.488.058 6.551-.97 7.211-2.18zM1.29-.14c1.17-.43 2.269-.938 3.288-1.532l-.2-.7c-.769.462-1.538.852-2.32 1.173v-6.68H1.32v6.508c0 .23-.09.41-.27.55zm0 0"/></symbol><symbol overflow="visible" id="s"><path d="M6.36-8.148V.988h.742v-5.316c.578.457 1.27 1.11 2.09 1.93l.437-.66c-.86-.77-1.7-1.462-2.527-2.07v-3.02zM2.32-4.18l-.379.559A7.882 7.882 0 013.52-2.56C2.82-1.48 1.84-.579.59.141l.488.609C3.68-.8 5.141-3.09 5.48-6.121v-.629H3.05c.141-.41.259-.84.36-1.29l-.719-.12c-.402 1.8-1.18 3.238-2.32 4.3l.488.61c.801-.738 1.45-1.672 1.93-2.809h1.98a9.025 9.025 0 01-.917 2.93 8.296 8.296 0 00-1.532-1.05zm0 0"/></symbol><symbol overflow="visible" id="t"><path d="M3.805-7.11h.941v5.036c0 .68-.203 1.21-.613 1.597-.406.383-.953.575-1.633.575-.707 0-1.258-.18-1.648-.543-.395-.36-.594-.867-.594-1.516h.937c0 .406.114.723.336.95.223.23.547.343.969.343.387 0 .7-.121.941-.367.239-.246.36-.586.364-1.028zm0 0"/></symbol><symbol overflow="visible" id="u"><path d="M3.945 0c-.05-.105-.093-.29-.125-.555-.422.434-.922.653-1.507.653-.52 0-.946-.149-1.282-.442a1.438 1.438 0 01-.5-1.12c0-.552.211-.977.63-1.282.417-.305 1.007-.457 1.765-.457h.879v-.414c0-.317-.094-.567-.285-.754-.188-.188-.465-.281-.833-.281-.324 0-.593.082-.812.242-.219.164-.328.36-.328.59H.64c0-.262.093-.516.28-.762.188-.246.442-.441.763-.582.32-.145.671-.219 1.054-.219.61 0 1.086.153 1.434.457.344.305.523.727.535 1.258v2.434c0 .484.063.87.184 1.156V0zm-1.5-.688c.285 0 .555-.074.805-.218a1.35 1.35 0 00.555-.574v-1.083h-.711c-1.106 0-1.656.325-1.656.97 0 .284.093.507.28.663.188.16.43.243.727.243zm0 0"/></symbol><symbol overflow="visible" id="v"><path d="M1.54-5.281l.026.664a1.93 1.93 0 011.582-.766c1.118 0 1.68.633 1.692 1.89V0h-.902v-3.496c-.004-.379-.094-.664-.262-.844-.172-.183-.438-.273-.801-.273-.293 0-.55.078-.77.234a1.59 1.59 0 00-.52.613V0h-.9v-5.281zm0 0"/></symbol><symbol overflow="visible" id="w"><path d="M3.559 0h-.907v-6.02l-1.824.668v-.82l2.59-.973h.14zm0 0"/></symbol><symbol overflow="visible" id="x"><path d="M1.906-3.992h.676c.426-.008.762-.121 1.008-.34.242-.219.363-.512.363-.883 0-.832-.414-1.25-1.242-1.25-.39 0-.703.113-.938.336-.23.223-.347.516-.347.887H.523c0-.563.204-1.031.618-1.406.41-.372.933-.559 1.57-.559.672 0 1.195.176 1.578.531.379.356.57.848.57 1.48 0 .31-.101.61-.3.9a1.81 1.81 0 01-.817.648c.39.125.692.328.903.617.214.285.32.636.32 1.047 0 .64-.207 1.144-.625 1.52-.418.374-.957.562-1.625.562s-1.211-.18-1.63-.543c-.417-.36-.624-.836-.624-1.43h.906c0 .375.121.672.367.898.243.227.57.336.98.336.438 0 .77-.113 1-.34.231-.23.349-.554.349-.98 0-.414-.125-.734-.383-.953-.254-.223-.618-.336-1.098-.344h-.676zm0 0"/></symbol><symbol overflow="visible" id="y"><path d="M5.25 0H.59v-.648l2.46-2.735c.364-.414.618-.75.755-1.008.14-.257.21-.527.21-.804 0-.371-.113-.676-.34-.914-.222-.239-.523-.356-.898-.356-.449 0-.797.13-1.047.383-.25.254-.37.613-.37 1.066H.452c0-.652.211-1.183.633-1.586.422-.402.984-.605 1.691-.605.66 0 1.184.172 1.567.52.386.347.578.808.578 1.382 0 .703-.445 1.535-1.336 2.5L1.68-.738h3.57zm0 0"/></symbol><symbol overflow="visible" id="z"><path d="M5.18-6.602L2.234 0H1.29l2.934-6.367H.375v-.742H5.18zm0 0"/></symbol><symbol overflow="visible" id="A"><path d="M4.746-3.14H1.762V0H.824v-7.11H5.23v.774H1.762v2.43h2.984zm0 0"/></symbol><symbol overflow="visible" id="B"><path d="M2.875.098c-.715 0-1.297-.235-1.746-.707-.45-.47-.676-1.098-.676-1.887v-.164c0-.524.102-.992.3-1.406.2-.41.481-.735.84-.965.36-.235.75-.352 1.173-.352.687 0 1.218.227 1.601.68.38.453.57 1.101.57 1.945v.375H1.36c.012.52.164.942.454 1.262.292.32.664.48 1.113.48.316 0 .59-.062.808-.195.223-.129.414-.3.582-.516l.551.43c-.441.68-1.105 1.02-1.992 1.02zm-.11-4.739a1.21 1.21 0 00-.921.399c-.246.265-.399.64-.457 1.117H4.03v-.07c-.023-.457-.148-.813-.367-1.067-.223-.25-.523-.379-.898-.379zm0 0"/></symbol><symbol overflow="visible" id="C"><path d="M5.156-2.582c0 .809-.187 1.453-.554 1.945-.372.489-.872.735-1.497.735-.667 0-1.183-.235-1.546-.707L1.516 0H.684v-7.5h.902v2.797c.367-.453.867-.68 1.508-.68.64 0 1.148.246 1.511.73.368.485.551 1.15.551 1.993zm-.902-.106c0-.613-.121-1.09-.356-1.421-.238-.336-.582-.504-1.027-.504-.598 0-1.023.277-1.285.828V-1.5c.277.555.71.832 1.297.832.43 0 .77-.168 1.008-.504.242-.336.363-.84.363-1.516zm0 0"/></symbol><symbol overflow="visible" id="D"><path d="M5.047-3.031c0 1.058-.18 1.844-.54 2.36-.362.51-.925.769-1.694.769-.758 0-1.32-.25-1.684-.754C.766-1.16.574-1.91.562-2.91v-1.207c0-1.043.18-1.82.54-2.328.363-.508.93-.762 1.703-.762.765 0 1.328.246 1.687.734.36.489.547 1.246.555 2.27zm-.902-1.235c0-.765-.106-1.324-.32-1.675-.216-.348-.555-.524-1.02-.524-.465 0-.801.176-1.012.524-.211.347-.32.882-.328 1.605v1.445c0 .77.113 1.336.336 1.704.222.367.558.546 1.012.546.445 0 .777-.171.992-.515.218-.344.332-.89.34-1.633zm0 0"/></symbol><symbol overflow="visible" id="E"><path d="M1.008-3.563l.36-3.546h3.64v.836H2.133l-.215 1.937a2.32 2.32 0 011.187-.309c.649 0 1.16.215 1.543.645.383.426.57 1.004.57 1.734 0 .735-.195 1.309-.593 1.73-.395.423-.945.634-1.656.634-.63 0-1.14-.176-1.54-.524C1.032-.773.81-1.254.75-1.87h.855c.055.406.2.715.434.922.234.207.547.308.93.308.422 0 .75-.14.988-.43.238-.284.36-.679.36-1.187 0-.472-.13-.855-.387-1.144-.258-.285-.606-.43-1.035-.43-.395 0-.704.086-.926.258l-.242.195zm0 0"/></symbol></defs><path d="M40.586 231.52V4m8.464 227.52V4m8.466 227.52V4m8.464 227.52V4m8.47 227.52V4m8.464 227.52V4m8.465 227.52V4m8.465 227.52V4m8.469 227.52V4m8.464 227.52V4m8.465 227.52V4m8.465 227.52V4m8.469 227.52V4m8.464 227.52V4m8.465 227.52V4m8.465 227.52V4m8.47 227.52V4m8.464 227.52V4m8.465 227.52V4m8.465 227.52V4m8.468 227.52V4m8.465 227.52V4m8.465 227.52V4m8.465 227.52V4m8.469 227.52V4m8.464 227.52V4m8.465 227.52V4m8.469 227.52V4m8.465 227.52V4m8.465 227.52V4m8.465 227.52V4m8.468 227.52V4m8.465 227.52V4m8.465 227.52V4m8.465 227.52V4m8.468 227.52V4m8.465 227.52V4m8.465 227.52V4m8.465 227.52V4m8.469 227.52V4m8.465 227.52V4m8.465 227.52V4m8.464 227.52V4m8.469 227.52V4M33 149.246h379.2M33 79.621h379.2" fill="none" stroke="#666" stroke-opacity=".5" stroke-dasharray="1,2" stroke-miterlimit="3.25"/><path d="M362.285 194.512l8.469 2.175 8.465 2.07 8.465 2.192 8.464 2.18 8.47 2.242" fill="none" stroke-width="1.6" stroke-linecap="square" stroke="#a60000" stroke-opacity=".3" stroke-miterlimit="3.25"/><path d="M362.285 195.293l8.469 1.73 8.465 1.692 8.465 1.758 8.464 1.761 8.47 1.801" fill="none" stroke-width="1.6" stroke-linecap="square" stroke="#0d86a0" stroke-opacity=".3" stroke-miterlimit="3.25"/><path d="M362.285 218.824l8.469.02 8.465.035 8.465.027 8.464.035 8.47.032" fill="none" stroke-width="1.6" stroke-linecap="square" stroke="#c05c20" stroke-opacity=".3" stroke-miterlimit="3.25"/><path d="M362.285 218.797l8.469.07 8.465.082 8.465.078 8.464.086 8.47.086" fill="none" stroke-width="1.6" stroke-linecap="square" stroke="#6f42b5" stroke-opacity=".3" stroke-miterlimit="3.25"/><path d="M362.285 218.852l8.469.02 8.465.007 8.465.016 8.464.011 8.47.012" fill="none" stroke-width="1.6" stroke-linecap="square" stroke="#769003" stroke-opacity=".3" stroke-miterlimit="3.25"/><path d="M362.285 218.852l8.469.011h8.465l8.465.008 8.464.004 8.47.008" fill="none" stroke-width="1.6" stroke-linecap="square" stroke="#a8364d" stroke-opacity=".3" stroke-miterlimit="3.25"/><path d="M362.285 218.813l8.469.046 8.465.063 8.465.058 8.464.063 8.47.066" fill="none" stroke-width="1.6" stroke-linecap="square" stroke="#3664cc" stroke-opacity=".3" stroke-miterlimit="3.25"/><path d="M362.285 218.852l8.469.03 8.465.028 16.93.063 8.468.03" fill="none" stroke-width="1.6" stroke-linecap="square" stroke="#c8860a" stroke-opacity=".3" stroke-miterlimit="3.25"/><path d="M362.285 218.84l8.469.05 8.465.032 8.465.043 8.464.039 8.47.039" fill="none" stroke-width="1.6" stroke-linecap="square" stroke="#833987" stroke-opacity=".3" stroke-miterlimit="3.25"/><path d="M362.285 218.84l8.469.035 8.465.016 8.465.027 8.464.023 8.47.024" fill="none" stroke-width="1.6" stroke-linecap="square" stroke="#1c8f6b" stroke-opacity=".3" stroke-miterlimit="3.25"/><path d="M362.285 218.852l8.469.023 8.465.02 8.465.023 8.464.02 8.47.019" fill="none" stroke-width="1.6" stroke-linecap="square" stroke="#a54f05" stroke-opacity=".3" stroke-miterlimit="3.25"/><path d="M362.285 218.086l8.469.41 8.465.39 16.93.829 8.468.43" fill="none" stroke-width="1.6" stroke-linecap="square" stroke="#6846c7" stroke-opacity=".3" stroke-miterlimit="3.25"/><path d="M40.586 218.297l8.465.57h25.398l8.465-.054 8.465-.184 8.465-.582 8.469-.266 8.464-.195 8.465-.793 8.465.25 8.469-1.781 8.465-2.578 8.464-3.399 8.465-1.125 8.47-13.953 8.464 4.344 8.465-3.871 8.465-3.41 8.468-1.672 8.465-6.797 8.465-3.328 8.465-5.653 8.469-9.078 8.464 2.688 8.465 7.672 8.47-3.563 8.464 10.344 8.465-5.653 8.465 8.047 8.468 6.532 8.465-168.403 8.465 125.586 8.465 34.102 8.469 8.797 8.464-.543 8.465 2.257 8.465 1.907" fill="none" stroke-width="1.6" stroke-linecap="square" stroke="#a60000" stroke-miterlimit="3.25"/><path d="M40.586 218.297l8.465.57h25.398l8.465-.054 8.465-.184 8.465-.582 8.469-.254 8.464.07 8.465-.457 8.465.5 8.469-.5 8.465-1.047 8.464-1.992 8.465-.668 8.47-12.808 8.464 6.28 8.465-2.675 8.465-2.617 8.468-1.77 8.465-7.992 8.465-2.535 8.465-3.367 8.469-11.293 8.464 2.351 8.465 7.52 8.47-5.484 8.464 9.664 8.465-6.559 8.465 7.254 8.468 6.39 8.465-169.308 8.465 124.96 8.465 33.458 8.469 8.035 8.464-1.254 8.465 1.758 8.465 1.586" fill="none" stroke-width="1.6" stroke-linecap="square" stroke="#0d86a0" stroke-miterlimit="3.25"/><path d="M40.586 218.867h59.258l8.469-.015 8.464-.165 8.465.012 8.465.082 8.469-.207 8.465-.054 8.464.07 8.465-.39 8.47.081 8.464-.152 8.465-.238 8.465-.164 8.468-.63 8.465.598 8.465.07 8.465-.484 8.469.57 8.464-.015h8.465l8.47.238 8.464.164 8.465.196 8.465.07 8.468-.223 8.465.278 8.465.03 8.465-.183 8.469.153 8.464.222h8.465l8.465.043" fill="none" stroke-width="1.6" stroke-linecap="square" stroke="#c05c20" stroke-miterlimit="3.25"/><path d="M40.586 218.867h76.191l8.465-.015 8.465-.04h8.469l8.465-.265 8.464-.39 8.465.081 8.47.07 8.464.028 8.465-.473 8.465-.027 8.468.055 8.465-.012 8.465-.027 8.465-.504 8.469.28 8.464.028 8.465.332 8.47-.054 8.464.195 8.465.18 8.465.113 8.468.027 8.465-.054 8.465.261 8.465-.18 8.469.126 8.464.054 8.465.059 8.465.082" fill="none" stroke-width="1.6" stroke-linecap="square" stroke="#6f42b5" stroke-miterlimit="3.25"/><path d="M40.586 218.867h76.191l8.465-.07h8.465l8.469-.39 8.465.195 8.464-.32 8.465.25 8.47-.294 8.464-1.086 8.465-.125 8.465.32 8.468.657h8.465l8.465-.016 8.465-.582 8.469.543 16.93.196 8.468.136 8.465.211 8.465-.027 8.465.055 8.468.152h8.465l8.465.055 8.465.043 8.469.027 8.464.016 8.465.039h8.465" fill="none" stroke-width="1.6" stroke-linecap="square" stroke="#769003" stroke-miterlimit="3.25"/><path d="M40.586 218.867h76.191l8.465-.015 8.465-.098 8.469-.098 8.465-.054 8.464-.098 8.465-.07 8.47-.164 8.464-.489 8.465.305 8.465.016 8.468-.028 8.465-.238 8.465.223 8.465-.196 8.469.055 8.464.254 8.465-.156 8.47.418 8.464-.055 8.465-.082 8.465.11 8.468-.012 8.465.164 8.465.03 8.465.099 8.469.136 8.464.016 8.465.012h8.465" fill="none" stroke-width="1.6" stroke-linecap="square" stroke="#a8364d" stroke-miterlimit="3.25"/><path d="M40.586 218.867h84.656l8.465-.015 8.469-.18 8.465-.14 8.464.042 8.465.153 8.47-.36 8.464-.14 8.465-.028 8.465.153 8.468-.32 8.465.238 8.465-.352 8.465-.055 8.469.309 8.464-.156 8.465-.18 8.47.082 8.464.309 8.465-.07 8.465.292 8.468.016 8.465.11 8.465-.044 8.465.114 8.469.054 8.464.016 8.465.027 8.465.07" fill="none" stroke-width="1.6" stroke-linecap="square" stroke="#3664cc" stroke-miterlimit="3.25"/><path d="M40.586 218.867h76.191l8.465-.027 8.465.012 8.469-.04 16.93-.195 8.464.082 8.47-.168 8.464-.18 8.465-.222 8.465-.336 8.468.418h8.465l8.465-.164 8.465-.363 8.469.18 8.464.28 8.465-.128 8.47.336 8.464-.07 8.465.14h8.465l8.468-.113 8.465.168h8.465l8.465.21 8.469.012 8.464.098 16.93.055" fill="none" stroke-width="1.6" stroke-linecap="square" stroke="#c8860a" stroke-miterlimit="3.25"/><path d="M40.586 218.867h84.656l8.465-.015 8.469-.098 8.465-.012 8.464-.054 8.465-.043 8.47-.098 8.464-.082 8.465-.016 8.465-.125 8.468.07h8.465l8.465-.015 8.465-.027 8.469.054 8.464.016 8.465-.043 8.47.055 8.464.03 8.465.067 8.465.016 8.468-.07 8.465.015 8.465.055 8.465.168 8.469-.028 8.464.055 8.465.082 8.465.016" fill="none" stroke-width="1.6" stroke-linecap="square" stroke="#833987" stroke-miterlimit="3.25"/><path d="M40.586 218.867h76.191l8.465-.07 8.465.016 8.469-.196 8.465-.168 8.464.168 8.465-.238 8.47.18 8.464.097 8.465-.039 8.465-.32 8.468.125 8.465.11 8.465-.196 8.465.016 8.469.113 8.464.082 8.465.012 8.47.097 8.464-.066 8.465-.031 8.465.058 8.468-.015 8.465.085 8.465.028 8.465.039 8.469.016h8.464l8.465.07h8.465" fill="none" stroke-width="1.6" stroke-linecap="square" stroke="#1c8f6b" stroke-miterlimit="3.25"/><path d="M40.586 218.867h76.191l8.465-.015 8.465-.055 8.469.027 8.465-.125 8.464-.082 8.465-.086h8.47l8.464-.136 8.465.136 8.465-.125 8.468.125 8.465.016 8.465.027 8.465-.043 8.469-.054 8.464-.239 8.465.13 8.47.109h8.464l8.465.054 8.465-.039 8.468.223 8.465.027 8.465-.054 8.465.027 8.469.055 8.464.042 8.465.028 8.465.012" fill="none" stroke-width="1.6" stroke-linecap="square" stroke="#a54f05" stroke-miterlimit="3.25"/><path d="M40.586 218.867h59.258l8.469-.015 8.464-.262 8.465-.336 8.465-.363 8.469-1.586 8.465-1.227 8.464-1.113 8.465-.89 8.47-.598 8.464-2.008 8.465-1.418 8.465-.727 8.468.016 8.465 1.254 8.465-.836 8.465-2.16 8.469 2.007 8.464.403 8.465.39 8.47 1.461 8.464.961 8.465.89 8.465.852 8.468.04 8.465.976 8.465.543 8.465.695 8.469.754 8.464.68 8.465.504 8.465.332" fill="none" stroke-width="1.6" stroke-linecap="square" stroke="#6846c7" stroke-miterlimit="3.25"/><path d="M363.043 195a1.043 1.043 0 10-2.087-.003 1.043 1.043 0 002.087.003zm9 2a1.043 1.043 0 10-2.087-.003 1.043 1.043 0 002.087.003zm8 2a1.043 1.043 0 10-2.087-.003 1.043 1.043 0 002.087.003zm9 2a1.043 1.043 0 10-2.087-.003 1.043 1.043 0 002.087.003zm8 2a1.043 1.043 0 10-2.087-.003 1.043 1.043 0 002.087.003zm9 2a1.043 1.043 0 10-2.087-.003 1.043 1.043 0 002.087.003zm0 0" fill-rule="evenodd" fill="#a60000" fill-opacity=".3"/><path d="M363.043 195a1.043 1.043 0 10-2.087-.003 1.043 1.043 0 002.087.003zm9 2a1.043 1.043 0 10-2.087-.003 1.043 1.043 0 002.087.003zm8 2a1.043 1.043 0 10-2.087-.003 1.043 1.043 0 002.087.003zm9 1a1.043 1.043 0 10-2.087-.003 1.043 1.043 0 002.087.003zm8 2a1.043 1.043 0 10-2.087-.003 1.043 1.043 0 002.087.003zm9 2a1.043 1.043 0 10-2.087-.003 1.043 1.043 0 002.087.003zm0 0" fill-rule="evenodd" fill="#0d86a0" fill-opacity=".3"/><path d="M363.043 219a1.043 1.043 0 10-2.087-.003 1.043 1.043 0 002.087.003zm9 0a1.043 1.043 0 10-2.087-.003 1.043 1.043 0 002.087.003zm8 0a1.043 1.043 0 10-2.087-.003 1.043 1.043 0 002.087.003zm9 0a1.043 1.043 0 10-2.087-.003 1.043 1.043 0 002.087.003zm8 0a1.043 1.043 0 10-2.087-.003 1.043 1.043 0 002.087.003zm9 0a1.043 1.043 0 10-2.087-.003 1.043 1.043 0 002.087.003zm0 0" fill-rule="evenodd" fill="#c05c20" fill-opacity=".3"/><path d="M363.043 219a1.043 1.043 0 10-2.087-.003 1.043 1.043 0 002.087.003zm9 0a1.043 1.043 0 10-2.087-.003 1.043 1.043 0 002.087.003zm8 0a1.043 1.043 0 10-2.087-.003 1.043 1.043 0 002.087.003zm9 0a1.043 1.043 0 10-2.087-.003 1.043 1.043 0 002.087.003zm8 0a1.043 1.043 0 10-2.087-.003 1.043 1.043 0 002.087.003zm9 0a1.043 1.043 0 10-2.087-.003 1.043 1.043 0 002.087.003zm0 0" fill-rule="evenodd" fill="#6f42b5" fill-opacity=".3"/><path d="M363.043 219a1.043 1.043 0 10-2.087-.003 1.043 1.043 0 002.087.003zm9 0a1.043 1.043 0 10-2.087-.003 1.043 1.043 0 002.087.003zm8 0a1.043 1.043 0 10-2.087-.003 1.043 1.043 0 002.087.003zm9 0a1.043 1.043 0 10-2.087-.003 1.043 1.043 0 002.087.003zm8 0a1.043 1.043 0 10-2.087-.003 1.043 1.043 0 002.087.003zm9 0a1.043 1.043 0 10-2.087-.003 1.043 1.043 0 002.087.003zm0 0" fill-rule="evenodd" fill="#769003" fill-opacity=".3"/><path d="M363.043 219a1.043 1.043 0 10-2.087-.003 1.043 1.043 0 002.087.003zm9 0a1.043 1.043 0 10-2.087-.003 1.043 1.043 0 002.087.003zm8 0a1.043 1.043 0 10-2.087-.003 1.043 1.043 0 002.087.003zm9 0a1.043 1.043 0 10-2.087-.003 1.043 1.043 0 002.087.003zm8 0a1.043 1.043 0 10-2.087-.003 1.043 1.043 0 002.087.003zm9 0a1.043 1.043 0 10-2.087-.003 1.043 1.043 0 002.087.003zm0 0" fill-rule="evenodd" fill="#a8364d" fill-opacity=".3"/><path d="M363.043 219a1.043 1.043 0 10-2.087-.003 1.043 1.043 0 002.087.003zm9 0a1.043 1.043 0 10-2.087-.003 1.043 1.043 0 002.087.003zm8 0a1.043 1.043 0 10-2.087-.003 1.043 1.043 0 002.087.003zm9 0a1.043 1.043 0 10-2.087-.003 1.043 1.043 0 002.087.003zm8 0a1.043 1.043 0 10-2.087-.003 1.043 1.043 0 002.087.003zm9 0a1.043 1.043 0 10-2.087-.003 1.043 1.043 0 002.087.003zm0 0" fill-rule="evenodd" fill="#3664cc" fill-opacity=".3"/><path d="M363.043 219a1.043 1.043 0 10-2.087-.003 1.043 1.043 0 002.087.003zm9 0a1.043 1.043 0 10-2.087-.003 1.043 1.043 0 002.087.003zm8 0a1.043 1.043 0 10-2.087-.003 1.043 1.043 0 002.087.003zm9 0a1.043 1.043 0 10-2.087-.003 1.043 1.043 0 002.087.003zm8 0a1.043 1.043 0 10-2.087-.003 1.043 1.043 0 002.087.003zm9 0a1.043 1.043 0 10-2.087-.003 1.043 1.043 0 002.087.003zm0 0" fill-rule="evenodd" fill="#c8860a" fill-opacity=".3"/><path d="M363.043 219a1.043 1.043 0 10-2.087-.003 1.043 1.043 0 002.087.003zm9 0a1.043 1.043 0 10-2.087-.003 1.043 1.043 0 002.087.003zm8 0a1.043 1.043 0 10-2.087-.003 1.043 1.043 0 002.087.003zm9 0a1.043 1.043 0 10-2.087-.003 1.043 1.043 0 002.087.003zm8 0a1.043 1.043 0 10-2.087-.003 1.043 1.043 0 002.087.003zm9 0a1.043 1.043 0 10-2.087-.003 1.043 1.043 0 002.087.003zm0 0" fill-rule="evenodd" fill="#833987" fill-opacity=".3"/><path d="M363.043 219a1.043 1.043 0 10-2.087-.003 1.043 1.043 0 002.087.003zm9 0a1.043 1.043 0 10-2.087-.003 1.043 1.043 0 002.087.003zm8 0a1.043 1.043 0 10-2.087-.003 1.043 1.043 0 002.087.003zm9 0a1.043 1.043 0 10-2.087-.003 1.043 1.043 0 002.087.003zm8 0a1.043 1.043 0 10-2.087-.003 1.043 1.043 0 002.087.003zm9 0a1.043 1.043 0 10-2.087-.003 1.043 1.043 0 002.087.003zm0 0" fill-rule="evenodd" fill="#1c8f6b" fill-opacity=".3"/><path d="M363.043 219a1.043 1.043 0 10-2.087-.003 1.043 1.043 0 002.087.003zm9 0a1.043 1.043 0 10-2.087-.003 1.043 1.043 0 002.087.003zm8 0a1.043 1.043 0 10-2.087-.003 1.043 1.043 0 002.087.003zm9 0a1.043 1.043 0 10-2.087-.003 1.043 1.043 0 002.087.003zm8 0a1.043 1.043 0 10-2.087-.003 1.043 1.043 0 002.087.003zm9 0a1.043 1.043 0 10-2.087-.003 1.043 1.043 0 002.087.003zm0 0" fill-rule="evenodd" fill="#a54f05" fill-opacity=".3"/><path d="M363.043 218a1.043 1.043 0 10-2.087-.003 1.043 1.043 0 002.087.003zm9 0a1.043 1.043 0 10-2.087-.003 1.043 1.043 0 002.087.003zm8 1a1.043 1.043 0 10-2.087-.003 1.043 1.043 0 002.087.003zm9 0a1.043 1.043 0 10-2.087-.003 1.043 1.043 0 002.087.003zm8 1a1.043 1.043 0 10-2.087-.003 1.043 1.043 0 002.087.003zm9 0a1.043 1.043 0 10-2.087-.003 1.043 1.043 0 002.087.003zm0 0" fill-rule="evenodd" fill="#6846c7" fill-opacity=".3"/><path d="M42.043 218a1.043 1.043 0 10-2.087-.003 1.043 1.043 0 002.087.003zm8 1a1.043 1.043 0 10-2.087-.003 1.043 1.043 0 002.087.003zm9 0a1.043 1.043 0 10-2.087-.003 1.043 1.043 0 002.087.003zm8 0a1.043 1.043 0 10-2.087-.003 1.043 1.043 0 002.087.003zm8 0a1.043 1.043 0 10-2.087-.003 1.043 1.043 0 002.087.003zm9 0a1.043 1.043 0 10-2.087-.003 1.043 1.043 0 002.087.003zm8 0a1.043 1.043 0 10-2.087-.003 1.043 1.043 0 002.087.003zm9-1a1.043 1.043 0 10-2.087-.003 1.043 1.043 0 002.087.003zm8 0a1.043 1.043 0 10-2.087-.003 1.043 1.043 0 002.087.003zm9 0a1.043 1.043 0 10-2.087-.003 1.043 1.043 0 002.087.003zm8-1a1.043 1.043 0 10-2.087-.003 1.043 1.043 0 002.087.003zm9 0a1.043 1.043 0 10-2.087-.003 1.043 1.043 0 002.087.003zm8-2a1.043 1.043 0 10-2.087-.003 1.043 1.043 0 002.087.003zm9-2a1.043 1.043 0 10-2.087-.003 1.043 1.043 0 002.087.003zm8-4a1.043 1.043 0 10-2.087-.003 1.043 1.043 0 002.087.003zm9-1a1.043 1.043 0 10-2.087-.003 1.043 1.043 0 002.087.003zm8-14a1.043 1.043 0 10-2.087-.003 1.043 1.043 0 002.087.003zm9 5a1.043 1.043 0 10-2.087-.003 1.043 1.043 0 002.087.003zm8-4a1.043 1.043 0 10-2.087-.003 1.043 1.043 0 002.087.003zm8-4a1.043 1.043 0 10-2.087-.003 1.043 1.043 0 002.087.003zm9-1a1.043 1.043 0 10-2.087-.003 1.043 1.043 0 002.087.003zm8-7a1.043 1.043 0 10-2.087-.003 1.043 1.043 0 002.087.003zm9-4a1.043 1.043 0 10-2.087-.003 1.043 1.043 0 002.087.003zm8-5a1.043 1.043 0 10-2.087-.003 1.043 1.043 0 002.087.003zm9-9a1.043 1.043 0 10-2.087-.003 1.043 1.043 0 002.087.003zm8 2a1.043 1.043 0 10-2.087-.003 1.043 1.043 0 002.087.003zm9 8a1.043 1.043 0 10-2.087-.003 1.043 1.043 0 002.087.003zm8-3a1.043 1.043 0 10-2.087-.003 1.043 1.043 0 002.087.003zm9 10a1.043 1.043 0 10-2.087-.003 1.043 1.043 0 002.087.003zm8-6a1.043 1.043 0 10-2.087-.003 1.043 1.043 0 002.087.003zm9 8a1.043 1.043 0 10-2.087-.003 1.043 1.043 0 002.087.003zm8 7a1.043 1.043 0 10-2.087-.003 1.043 1.043 0 002.087.003zm8-169a1.043 1.043 0 10-2.087-.003 1.043 1.043 0 002.087.003zm9 126a1.043 1.043 0 10-2.087-.003 1.043 1.043 0 002.087.003zm8 34a1.043 1.043 0 10-2.087-.003 1.043 1.043 0 002.087.003zm9 9a1.043 1.043 0 10-2.087-.003 1.043 1.043 0 002.087.003zm8-1a1.043 1.043 0 10-2.087-.003 1.043 1.043 0 002.087.003zm9 3a1.043 1.043 0 10-2.087-.003 1.043 1.043 0 002.087.003zm8 2a1.043 1.043 0 10-2.087-.003 1.043 1.043 0 002.087.003zm0 0" fill-rule="evenodd" fill="#a60000"/><path d="M42.043 218a1.043 1.043 0 10-2.087-.003 1.043 1.043 0 002.087.003zm8 1a1.043 1.043 0 10-2.087-.003 1.043 1.043 0 002.087.003zm9 0a1.043 1.043 0 10-2.087-.003 1.043 1.043 0 002.087.003zm8 0a1.043 1.043 0 10-2.087-.003 1.043 1.043 0 002.087.003zm8 0a1.043 1.043 0 10-2.087-.003 1.043 1.043 0 002.087.003zm9 0a1.043 1.043 0 10-2.087-.003 1.043 1.043 0 002.087.003zm8 0a1.043 1.043 0 10-2.087-.003 1.043 1.043 0 002.087.003zm9-1a1.043 1.043 0 10-2.087-.003 1.043 1.043 0 002.087.003zm8 0a1.043 1.043 0 10-2.087-.003 1.043 1.043 0 002.087.003zm9 0a1.043 1.043 0 10-2.087-.003 1.043 1.043 0 002.087.003zm8-1a1.043 1.043 0 10-2.087-.003 1.043 1.043 0 002.087.003zm9 1a1.043 1.043 0 10-2.087-.003 1.043 1.043 0 002.087.003zm8-1a1.043 1.043 0 10-2.087-.003 1.043 1.043 0 002.087.003zm9-1a1.043 1.043 0 10-2.087-.003 1.043 1.043 0 002.087.003zm8-2a1.043 1.043 0 10-2.087-.003 1.043 1.043 0 002.087.003zm9 0a1.043 1.043 0 10-2.087-.003 1.043 1.043 0 002.087.003zm8-13a1.043 1.043 0 10-2.087-.003 1.043 1.043 0 002.087.003zm9 6a1.043 1.043 0 10-2.087-.003 1.043 1.043 0 002.087.003zm8-3a1.043 1.043 0 10-2.087-.003 1.043 1.043 0 002.087.003zm8-2a1.043 1.043 0 10-2.087-.003 1.043 1.043 0 002.087.003zm9-2a1.043 1.043 0 10-2.087-.003 1.043 1.043 0 002.087.003zm8-8a1.043 1.043 0 10-2.087-.003 1.043 1.043 0 002.087.003zm9-2a1.043 1.043 0 10-2.087-.003 1.043 1.043 0 002.087.003zm8-4a1.043 1.043 0 10-2.087-.003 1.043 1.043 0 002.087.003zm9-11a1.043 1.043 0 10-2.087-.003 1.043 1.043 0 002.087.003zm8 2a1.043 1.043 0 10-2.087-.003 1.043 1.043 0 002.087.003zm9 8a1.043 1.043 0 10-2.087-.003 1.043 1.043 0 002.087.003zm8-6a1.043 1.043 0 10-2.087-.003 1.043 1.043 0 002.087.003zm9 10a1.043 1.043 0 10-2.087-.003 1.043 1.043 0 002.087.003zm8-7a1.043 1.043 0 10-2.087-.003 1.043 1.043 0 002.087.003zm9 8a1.043 1.043 0 10-2.087-.003 1.043 1.043 0 002.087.003zm8 6a1.043 1.043 0 10-2.087-.003 1.043 1.043 0 002.087.003zm8-169a1.043 1.043 0 10-2.087-.003 1.043 1.043 0 002.087.003zm9 125a1.043 1.043 0 10-2.087-.003 1.043 1.043 0 002.087.003zm8 33a1.043 1.043 0 10-2.087-.003 1.043 1.043 0 002.087.003zm9 8a1.043 1.043 0 10-2.087-.003 1.043 1.043 0 002.087.003zm8-1a1.043 1.043 0 10-2.087-.003 1.043 1.043 0 002.087.003zm9 2a1.043 1.043 0 10-2.087-.003 1.043 1.043 0 002.087.003zm8 1a1.043 1.043 0 10-2.087-.003 1.043 1.043 0 002.087.003zm0 0" fill-rule="evenodd" fill="#0d86a0"/><path d="M42.043 219a1.043 1.043 0 10-2.087-.003 1.043 1.043 0 002.087.003zm8 0a1.043 1.043 0 10-2.087-.003 1.043 1.043 0 002.087.003zm9 0a1.043 1.043 0 10-2.087-.003 1.043 1.043 0 002.087.003zm8 0a1.043 1.043 0 10-2.087-.003 1.043 1.043 0 002.087.003zm8 0a1.043 1.043 0 10-2.087-.003 1.043 1.043 0 002.087.003zm9 0a1.043 1.043 0 10-2.087-.003 1.043 1.043 0 002.087.003zm8 0a1.043 1.043 0 10-2.087-.003 1.043 1.043 0 002.087.003zm9 0a1.043 1.043 0 10-2.087-.003 1.043 1.043 0 002.087.003zm8 0a1.043 1.043 0 10-2.087-.003 1.043 1.043 0 002.087.003zm9 0a1.043 1.043 0 10-2.087-.003 1.043 1.043 0 002.087.003zm8 0a1.043 1.043 0 10-2.087-.003 1.043 1.043 0 002.087.003zm9 0a1.043 1.043 0 10-2.087-.003 1.043 1.043 0 002.087.003zm8 0a1.043 1.043 0 10-2.087-.003 1.043 1.043 0 002.087.003zm9 0a1.043 1.043 0 10-2.087-.003 1.043 1.043 0 002.087.003zm8 0a1.043 1.043 0 10-2.087-.003 1.043 1.043 0 002.087.003zm9-1a1.043 1.043 0 10-2.087-.003 1.043 1.043 0 002.087.003zm8 0a1.043 1.043 0 10-2.087-.003 1.043 1.043 0 002.087.003zm9 0a1.043 1.043 0 10-2.087-.003 1.043 1.043 0 002.087.003zm8 0a1.043 1.043 0 10-2.087-.003 1.043 1.043 0 002.087.003zm8 0a1.043 1.043 0 10-2.087-.003 1.043 1.043 0 002.087.003zm9-1a1.043 1.043 0 10-2.087-.003 1.043 1.043 0 002.087.003zm8 1a1.043 1.043 0 10-2.087-.003 1.043 1.043 0 002.087.003zm9 0a1.043 1.043 0 10-2.087-.003 1.043 1.043 0 002.087.003zm8-1a1.043 1.043 0 10-2.087-.003 1.043 1.043 0 002.087.003zm9 1a1.043 1.043 0 10-2.087-.003 1.043 1.043 0 002.087.003zm8 0a1.043 1.043 0 10-2.087-.003 1.043 1.043 0 002.087.003zm9 0a1.043 1.043 0 10-2.087-.003 1.043 1.043 0 002.087.003zm8 0a1.043 1.043 0 10-2.087-.003 1.043 1.043 0 002.087.003zm9 0a1.043 1.043 0 10-2.087-.003 1.043 1.043 0 002.087.003zm8 0a1.043 1.043 0 10-2.087-.003 1.043 1.043 0 002.087.003zm9 1a1.043 1.043 0 10-2.087-.003 1.043 1.043 0 002.087.003zm8-1a1.043 1.043 0 10-2.087-.003 1.043 1.043 0 002.087.003zm8 1a1.043 1.043 0 10-2.087-.003 1.043 1.043 0 002.087.003zm9 0a1.043 1.043 0 10-2.087-.003 1.043 1.043 0 002.087.003zm8-1a1.043 1.043 0 10-2.087-.003 1.043 1.043 0 002.087.003zm9 1a1.043 1.043 0 10-2.087-.003 1.043 1.043 0 002.087.003zm8 0a1.043 1.043 0 10-2.087-.003 1.043 1.043 0 002.087.003zm9 0a1.043 1.043 0 10-2.087-.003 1.043 1.043 0 002.087.003zm8 0a1.043 1.043 0 10-2.087-.003 1.043 1.043 0 002.087.003zm0 0" fill-rule="evenodd" fill="#c05c20"/><path d="M42.043 219a1.043 1.043 0 10-2.087-.003 1.043 1.043 0 002.087.003zm8 0a1.043 1.043 0 10-2.087-.003 1.043 1.043 0 002.087.003zm9 0a1.043 1.043 0 10-2.087-.003 1.043 1.043 0 002.087.003zm8 0a1.043 1.043 0 10-2.087-.003 1.043 1.043 0 002.087.003zm8 0a1.043 1.043 0 10-2.087-.003 1.043 1.043 0 002.087.003zm9 0a1.043 1.043 0 10-2.087-.003 1.043 1.043 0 002.087.003zm8 0a1.043 1.043 0 10-2.087-.003 1.043 1.043 0 002.087.003zm9 0a1.043 1.043 0 10-2.087-.003 1.043 1.043 0 002.087.003zm8 0a1.043 1.043 0 10-2.087-.003 1.043 1.043 0 002.087.003zm9 0a1.043 1.043 0 10-2.087-.003 1.043 1.043 0 002.087.003zm8 0a1.043 1.043 0 10-2.087-.003 1.043 1.043 0 002.087.003zm9 0a1.043 1.043 0 10-2.087-.003 1.043 1.043 0 002.087.003zm8 0a1.043 1.043 0 10-2.087-.003 1.043 1.043 0 002.087.003zm9 0a1.043 1.043 0 10-2.087-.003 1.043 1.043 0 002.087.003zm8-1a1.043 1.043 0 10-2.087-.003 1.043 1.043 0 002.087.003zm9 0a1.043 1.043 0 10-2.087-.003 1.043 1.043 0 002.087.003zm8 0a1.043 1.043 0 10-2.087-.003 1.043 1.043 0 002.087.003zm9 0a1.043 1.043 0 10-2.087-.003 1.043 1.043 0 002.087.003zm8 0a1.043 1.043 0 10-2.087-.003 1.043 1.043 0 002.087.003zm8 0a1.043 1.043 0 10-2.087-.003 1.043 1.043 0 002.087.003zm9 0a1.043 1.043 0 10-2.087-.003 1.043 1.043 0 002.087.003zm8 0a1.043 1.043 0 10-2.087-.003 1.043 1.043 0 002.087.003zm9 0a1.043 1.043 0 10-2.087-.003 1.043 1.043 0 002.087.003zm8-1a1.043 1.043 0 10-2.087-.003 1.043 1.043 0 002.087.003zm9 1a1.043 1.043 0 10-2.087-.003 1.043 1.043 0 002.087.003zm8 0a1.043 1.043 0 10-2.087-.003 1.043 1.043 0 002.087.003zm9 0a1.043 1.043 0 10-2.087-.003 1.043 1.043 0 002.087.003zm8 0a1.043 1.043 0 10-2.087-.003 1.043 1.043 0 002.087.003zm9 0a1.043 1.043 0 10-2.087-.003 1.043 1.043 0 002.087.003zm8 0a1.043 1.043 0 10-2.087-.003 1.043 1.043 0 002.087.003zm9 0a1.043 1.043 0 10-2.087-.003 1.043 1.043 0 002.087.003zm8 0a1.043 1.043 0 10-2.087-.003 1.043 1.043 0 002.087.003zm8 0a1.043 1.043 0 10-2.087-.003 1.043 1.043 0 002.087.003zm9 1a1.043 1.043 0 10-2.087-.003 1.043 1.043 0 002.087.003zm8-1a1.043 1.043 0 10-2.087-.003 1.043 1.043 0 002.087.003zm9 1a1.043 1.043 0 10-2.087-.003 1.043 1.043 0 002.087.003zm8 0a1.043 1.043 0 10-2.087-.003 1.043 1.043 0 002.087.003zm9 0a1.043 1.043 0 10-2.087-.003 1.043 1.043 0 002.087.003zm8 0a1.043 1.043 0 10-2.087-.003 1.043 1.043 0 002.087.003zm0 0" fill-rule="evenodd" fill="#6f42b5"/><path d="M42.043 219a1.043 1.043 0 10-2.087-.003 1.043 1.043 0 002.087.003zm8 0a1.043 1.043 0 10-2.087-.003 1.043 1.043 0 002.087.003zm9 0a1.043 1.043 0 10-2.087-.003 1.043 1.043 0 002.087.003zm8 0a1.043 1.043 0 10-2.087-.003 1.043 1.043 0 002.087.003zm8 0a1.043 1.043 0 10-2.087-.003 1.043 1.043 0 002.087.003zm9 0a1.043 1.043 0 10-2.087-.003 1.043 1.043 0 002.087.003zm8 0a1.043 1.043 0 10-2.087-.003 1.043 1.043 0 002.087.003zm9 0a1.043 1.043 0 10-2.087-.003 1.043 1.043 0 002.087.003zm8 0a1.043 1.043 0 10-2.087-.003 1.043 1.043 0 002.087.003zm9 0a1.043 1.043 0 10-2.087-.003 1.043 1.043 0 002.087.003zm8 0a1.043 1.043 0 10-2.087-.003 1.043 1.043 0 002.087.003zm9 0a1.043 1.043 0 10-2.087-.003 1.043 1.043 0 002.087.003zm8-1a1.043 1.043 0 10-2.087-.003 1.043 1.043 0 002.087.003zm9 1a1.043 1.043 0 10-2.087-.003 1.043 1.043 0 002.087.003zm8-1a1.043 1.043 0 10-2.087-.003 1.043 1.043 0 002.087.003zm9 1a1.043 1.043 0 10-2.087-.003 1.043 1.043 0 002.087.003zm8-1a1.043 1.043 0 10-2.087-.003 1.043 1.043 0 002.087.003zm9-1a1.043 1.043 0 10-2.087-.003 1.043 1.043 0 002.087.003zm8 0a1.043 1.043 0 10-2.087-.003 1.043 1.043 0 002.087.003zm8 0a1.043 1.043 0 10-2.087-.003 1.043 1.043 0 002.087.003zm9 1a1.043 1.043 0 10-2.087-.003 1.043 1.043 0 002.087.003zm8 0a1.043 1.043 0 10-2.087-.003 1.043 1.043 0 002.087.003zm9 0a1.043 1.043 0 10-2.087-.003 1.043 1.043 0 002.087.003zm8-1a1.043 1.043 0 10-2.087-.003 1.043 1.043 0 002.087.003zm9 1a1.043 1.043 0 10-2.087-.003 1.043 1.043 0 002.087.003zm8 0a1.043 1.043 0 10-2.087-.003 1.043 1.043 0 002.087.003zm9 0a1.043 1.043 0 10-2.087-.003 1.043 1.043 0 002.087.003zm8 0a1.043 1.043 0 10-2.087-.003 1.043 1.043 0 002.087.003zm9 0a1.043 1.043 0 10-2.087-.003 1.043 1.043 0 002.087.003zm8 0a1.043 1.043 0 10-2.087-.003 1.043 1.043 0 002.087.003zm9 1a1.043 1.043 0 10-2.087-.003 1.043 1.043 0 002.087.003zm8 0a1.043 1.043 0 10-2.087-.003 1.043 1.043 0 002.087.003zm8 0a1.043 1.043 0 10-2.087-.003 1.043 1.043 0 002.087.003zm9 0a1.043 1.043 0 10-2.087-.003 1.043 1.043 0 002.087.003zm8 0a1.043 1.043 0 10-2.087-.003 1.043 1.043 0 002.087.003zm9 0a1.043 1.043 0 10-2.087-.003 1.043 1.043 0 002.087.003zm8 0a1.043 1.043 0 10-2.087-.003 1.043 1.043 0 002.087.003zm9 0a1.043 1.043 0 10-2.087-.003 1.043 1.043 0 002.087.003zm8 0a1.043 1.043 0 10-2.087-.003 1.043 1.043 0 002.087.003zm0 0" fill-rule="evenodd" fill="#769003"/><path d="M42.043 219a1.043 1.043 0 10-2.087-.003 1.043 1.043 0 002.087.003zm8 0a1.043 1.043 0 10-2.087-.003 1.043 1.043 0 002.087.003zm9 0a1.043 1.043 0 10-2.087-.003 1.043 1.043 0 002.087.003zm8 0a1.043 1.043 0 10-2.087-.003 1.043 1.043 0 002.087.003zm8 0a1.043 1.043 0 10-2.087-.003 1.043 1.043 0 002.087.003zm9 0a1.043 1.043 0 10-2.087-.003 1.043 1.043 0 002.087.003zm8 0a1.043 1.043 0 10-2.087-.003 1.043 1.043 0 002.087.003zm9 0a1.043 1.043 0 10-2.087-.003 1.043 1.043 0 002.087.003zm8 0a1.043 1.043 0 10-2.087-.003 1.043 1.043 0 002.087.003zm9 0a1.043 1.043 0 10-2.087-.003 1.043 1.043 0 002.087.003zm8 0a1.043 1.043 0 10-2.087-.003 1.043 1.043 0 002.087.003zm9 0a1.043 1.043 0 10-2.087-.003 1.043 1.043 0 002.087.003zm8 0a1.043 1.043 0 10-2.087-.003 1.043 1.043 0 002.087.003zm9 0a1.043 1.043 0 10-2.087-.003 1.043 1.043 0 002.087.003zm8 0a1.043 1.043 0 10-2.087-.003 1.043 1.043 0 002.087.003zm9-1a1.043 1.043 0 10-2.087-.003 1.043 1.043 0 002.087.003zm8 0a1.043 1.043 0 10-2.087-.003 1.043 1.043 0 002.087.003zm9 0a1.043 1.043 0 10-2.087-.003 1.043 1.043 0 002.087.003zm8 0a1.043 1.043 0 10-2.087-.003 1.043 1.043 0 002.087.003zm8 0a1.043 1.043 0 10-2.087-.003 1.043 1.043 0 002.087.003zm9 0a1.043 1.043 0 10-2.087-.003 1.043 1.043 0 002.087.003zm8 0a1.043 1.043 0 10-2.087-.003 1.043 1.043 0 002.087.003zm9 0a1.043 1.043 0 10-2.087-.003 1.043 1.043 0 002.087.003zm8 0a1.043 1.043 0 10-2.087-.003 1.043 1.043 0 002.087.003zm9 0a1.043 1.043 0 10-2.087-.003 1.043 1.043 0 002.087.003zm8 0a1.043 1.043 0 10-2.087-.003 1.043 1.043 0 002.087.003zm9 0a1.043 1.043 0 10-2.087-.003 1.043 1.043 0 002.087.003zm8 0a1.043 1.043 0 10-2.087-.003 1.043 1.043 0 002.087.003zm9 0a1.043 1.043 0 10-2.087-.003 1.043 1.043 0 002.087.003zm8 0a1.043 1.043 0 10-2.087-.003 1.043 1.043 0 002.087.003zm9 0a1.043 1.043 0 10-2.087-.003 1.043 1.043 0 002.087.003zm8 0a1.043 1.043 0 10-2.087-.003 1.043 1.043 0 002.087.003zm8 1a1.043 1.043 0 10-2.087-.003 1.043 1.043 0 002.087.003zm9 0a1.043 1.043 0 10-2.087-.003 1.043 1.043 0 002.087.003zm8 0a1.043 1.043 0 10-2.087-.003 1.043 1.043 0 002.087.003zm9 0a1.043 1.043 0 10-2.087-.003 1.043 1.043 0 002.087.003zm8 0a1.043 1.043 0 10-2.087-.003 1.043 1.043 0 002.087.003zm9 0a1.043 1.043 0 10-2.087-.003 1.043 1.043 0 002.087.003zm8 0a1.043 1.043 0 10-2.087-.003 1.043 1.043 0 002.087.003zm0 0" fill-rule="evenodd" fill="#a8364d"/><path d="M42.043 219a1.043 1.043 0 10-2.087-.003 1.043 1.043 0 002.087.003zm8 0a1.043 1.043 0 10-2.087-.003 1.043 1.043 0 002.087.003zm9 0a1.043 1.043 0 10-2.087-.003 1.043 1.043 0 002.087.003zm8 0a1.043 1.043 0 10-2.087-.003 1.043 1.043 0 002.087.003zm8 0a1.043 1.043 0 10-2.087-.003 1.043 1.043 0 002.087.003zm9 0a1.043 1.043 0 10-2.087-.003 1.043 1.043 0 002.087.003zm8 0a1.043 1.043 0 10-2.087-.003 1.043 1.043 0 002.087.003zm9 0a1.043 1.043 0 10-2.087-.003 1.043 1.043 0 002.087.003zm8 0a1.043 1.043 0 10-2.087-.003 1.043 1.043 0 002.087.003zm9 0a1.043 1.043 0 10-2.087-.003 1.043 1.043 0 002.087.003zm8 0a1.043 1.043 0 10-2.087-.003 1.043 1.043 0 002.087.003zm9 0a1.043 1.043 0 10-2.087-.003 1.043 1.043 0 002.087.003zm8 0a1.043 1.043 0 10-2.087-.003 1.043 1.043 0 002.087.003zm9 0a1.043 1.043 0 10-2.087-.003 1.043 1.043 0 002.087.003zm8 0a1.043 1.043 0 10-2.087-.003 1.043 1.043 0 002.087.003zm9 0a1.043 1.043 0 10-2.087-.003 1.043 1.043 0 002.087.003zm8-1a1.043 1.043 0 10-2.087-.003 1.043 1.043 0 002.087.003zm9 0a1.043 1.043 0 10-2.087-.003 1.043 1.043 0 002.087.003zm8 0a1.043 1.043 0 10-2.087-.003 1.043 1.043 0 002.087.003zm8 0a1.043 1.043 0 10-2.087-.003 1.043 1.043 0 002.087.003zm9 0a1.043 1.043 0 10-2.087-.003 1.043 1.043 0 002.087.003zm8 0a1.043 1.043 0 10-2.087-.003 1.043 1.043 0 002.087.003zm9 0a1.043 1.043 0 10-2.087-.003 1.043 1.043 0 002.087.003zm8 0a1.043 1.043 0 10-2.087-.003 1.043 1.043 0 002.087.003zm9 0a1.043 1.043 0 10-2.087-.003 1.043 1.043 0 002.087.003zm8 0a1.043 1.043 0 10-2.087-.003 1.043 1.043 0 002.087.003zm9 0a1.043 1.043 0 10-2.087-.003 1.043 1.043 0 002.087.003zm8 0a1.043 1.043 0 10-2.087-.003 1.043 1.043 0 002.087.003zm9 0a1.043 1.043 0 10-2.087-.003 1.043 1.043 0 002.087.003zm8 0a1.043 1.043 0 10-2.087-.003 1.043 1.043 0 002.087.003zm9 0a1.043 1.043 0 10-2.087-.003 1.043 1.043 0 002.087.003zm8 0a1.043 1.043 0 10-2.087-.003 1.043 1.043 0 002.087.003zm8 1a1.043 1.043 0 10-2.087-.003 1.043 1.043 0 002.087.003zm9 0a1.043 1.043 0 10-2.087-.003 1.043 1.043 0 002.087.003zm8 0a1.043 1.043 0 10-2.087-.003 1.043 1.043 0 002.087.003zm9 0a1.043 1.043 0 10-2.087-.003 1.043 1.043 0 002.087.003zm8 0a1.043 1.043 0 10-2.087-.003 1.043 1.043 0 002.087.003zm9 0a1.043 1.043 0 10-2.087-.003 1.043 1.043 0 002.087.003zm8 0a1.043 1.043 0 10-2.087-.003 1.043 1.043 0 002.087.003zm0 0" fill-rule="evenodd" fill="#3664cc"/><path d="M42.043 219a1.043 1.043 0 10-2.087-.003 1.043 1.043 0 002.087.003zm8 0a1.043 1.043 0 10-2.087-.003 1.043 1.043 0 002.087.003zm9 0a1.043 1.043 0 10-2.087-.003 1.043 1.043 0 002.087.003zm8 0a1.043 1.043 0 10-2.087-.003 1.043 1.043 0 002.087.003zm8 0a1.043 1.043 0 10-2.087-.003 1.043 1.043 0 002.087.003zm9 0a1.043 1.043 0 10-2.087-.003 1.043 1.043 0 002.087.003zm8 0a1.043 1.043 0 10-2.087-.003 1.043 1.043 0 002.087.003zm9 0a1.043 1.043 0 10-2.087-.003 1.043 1.043 0 002.087.003zm8 0a1.043 1.043 0 10-2.087-.003 1.043 1.043 0 002.087.003zm9 0a1.043 1.043 0 10-2.087-.003 1.043 1.043 0 002.087.003zm8 0a1.043 1.043 0 10-2.087-.003 1.043 1.043 0 002.087.003zm9 0a1.043 1.043 0 10-2.087-.003 1.043 1.043 0 002.087.003zm8 0a1.043 1.043 0 10-2.087-.003 1.043 1.043 0 002.087.003zm9 0a1.043 1.043 0 10-2.087-.003 1.043 1.043 0 002.087.003zm8 0a1.043 1.043 0 10-2.087-.003 1.043 1.043 0 002.087.003zm9 0a1.043 1.043 0 10-2.087-.003 1.043 1.043 0 002.087.003zm8 0a1.043 1.043 0 10-2.087-.003 1.043 1.043 0 002.087.003zm9-1a1.043 1.043 0 10-2.087-.003 1.043 1.043 0 002.087.003zm8 0a1.043 1.043 0 10-2.087-.003 1.043 1.043 0 002.087.003zm8 0a1.043 1.043 0 10-2.087-.003 1.043 1.043 0 002.087.003zm9 0a1.043 1.043 0 10-2.087-.003 1.043 1.043 0 002.087.003zm8 0a1.043 1.043 0 10-2.087-.003 1.043 1.043 0 002.087.003zm9 0a1.043 1.043 0 10-2.087-.003 1.043 1.043 0 002.087.003zm8 0a1.043 1.043 0 10-2.087-.003 1.043 1.043 0 002.087.003zm9 0a1.043 1.043 0 10-2.087-.003 1.043 1.043 0 002.087.003zm8 0a1.043 1.043 0 10-2.087-.003 1.043 1.043 0 002.087.003zm9 0a1.043 1.043 0 10-2.087-.003 1.043 1.043 0 002.087.003zm8 0a1.043 1.043 0 10-2.087-.003 1.043 1.043 0 002.087.003zm9 0a1.043 1.043 0 10-2.087-.003 1.043 1.043 0 002.087.003zm8 0a1.043 1.043 0 10-2.087-.003 1.043 1.043 0 002.087.003zm9 0a1.043 1.043 0 10-2.087-.003 1.043 1.043 0 002.087.003zm8 0a1.043 1.043 0 10-2.087-.003 1.043 1.043 0 002.087.003zm8 0a1.043 1.043 0 10-2.087-.003 1.043 1.043 0 002.087.003zm9 0a1.043 1.043 0 10-2.087-.003 1.043 1.043 0 002.087.003zm8 1a1.043 1.043 0 10-2.087-.003 1.043 1.043 0 002.087.003zm9 0a1.043 1.043 0 10-2.087-.003 1.043 1.043 0 002.087.003zm8 0a1.043 1.043 0 10-2.087-.003 1.043 1.043 0 002.087.003zm9 0a1.043 1.043 0 10-2.087-.003 1.043 1.043 0 002.087.003zm8 0a1.043 1.043 0 10-2.087-.003 1.043 1.043 0 002.087.003zm0 0" fill-rule="evenodd" fill="#c8860a"/><path d="M42.043 219a1.043 1.043 0 10-2.087-.003 1.043 1.043 0 002.087.003zm8 0a1.043 1.043 0 10-2.087-.003 1.043 1.043 0 002.087.003zm9 0a1.043 1.043 0 10-2.087-.003 1.043 1.043 0 002.087.003zm8 0a1.043 1.043 0 10-2.087-.003 1.043 1.043 0 002.087.003zm8 0a1.043 1.043 0 10-2.087-.003 1.043 1.043 0 002.087.003zm9 0a1.043 1.043 0 10-2.087-.003 1.043 1.043 0 002.087.003zm8 0a1.043 1.043 0 10-2.087-.003 1.043 1.043 0 002.087.003zm9 0a1.043 1.043 0 10-2.087-.003 1.043 1.043 0 002.087.003zm8 0a1.043 1.043 0 10-2.087-.003 1.043 1.043 0 002.087.003zm9 0a1.043 1.043 0 10-2.087-.003 1.043 1.043 0 002.087.003zm8 0a1.043 1.043 0 10-2.087-.003 1.043 1.043 0 002.087.003zm9 0a1.043 1.043 0 10-2.087-.003 1.043 1.043 0 002.087.003zm8 0a1.043 1.043 0 10-2.087-.003 1.043 1.043 0 002.087.003zm9 0a1.043 1.043 0 10-2.087-.003 1.043 1.043 0 002.087.003zm8 0a1.043 1.043 0 10-2.087-.003 1.043 1.043 0 002.087.003zm9 0a1.043 1.043 0 10-2.087-.003 1.043 1.043 0 002.087.003zm8 0a1.043 1.043 0 10-2.087-.003 1.043 1.043 0 002.087.003zm9-1a1.043 1.043 0 10-2.087-.003 1.043 1.043 0 002.087.003zm8 0a1.043 1.043 0 10-2.087-.003 1.043 1.043 0 002.087.003zm8 0a1.043 1.043 0 10-2.087-.003 1.043 1.043 0 002.087.003zm9 0a1.043 1.043 0 10-2.087-.003 1.043 1.043 0 002.087.003zm8 0a1.043 1.043 0 10-2.087-.003 1.043 1.043 0 002.087.003zm9 0a1.043 1.043 0 10-2.087-.003 1.043 1.043 0 002.087.003zm8 0a1.043 1.043 0 10-2.087-.003 1.043 1.043 0 002.087.003zm9 0a1.043 1.043 0 10-2.087-.003 1.043 1.043 0 002.087.003zm8 0a1.043 1.043 0 10-2.087-.003 1.043 1.043 0 002.087.003zm9 0a1.043 1.043 0 10-2.087-.003 1.043 1.043 0 002.087.003zm8 0a1.043 1.043 0 10-2.087-.003 1.043 1.043 0 002.087.003zm9 0a1.043 1.043 0 10-2.087-.003 1.043 1.043 0 002.087.003zm8 1a1.043 1.043 0 10-2.087-.003 1.043 1.043 0 002.087.003zm9 0a1.043 1.043 0 10-2.087-.003 1.043 1.043 0 002.087.003zm8-1a1.043 1.043 0 10-2.087-.003 1.043 1.043 0 002.087.003zm8 0a1.043 1.043 0 10-2.087-.003 1.043 1.043 0 002.087.003zm9 1a1.043 1.043 0 10-2.087-.003 1.043 1.043 0 002.087.003zm8 0a1.043 1.043 0 10-2.087-.003 1.043 1.043 0 002.087.003zm9 0a1.043 1.043 0 10-2.087-.003 1.043 1.043 0 002.087.003zm8 0a1.043 1.043 0 10-2.087-.003 1.043 1.043 0 002.087.003zm9 0a1.043 1.043 0 10-2.087-.003 1.043 1.043 0 002.087.003zm8 0a1.043 1.043 0 10-2.087-.003 1.043 1.043 0 002.087.003zm0 0" fill-rule="evenodd" fill="#833987"/><path d="M42.043 219a1.043 1.043 0 10-2.087-.003 1.043 1.043 0 002.087.003zm8 0a1.043 1.043 0 10-2.087-.003 1.043 1.043 0 002.087.003zm9 0a1.043 1.043 0 10-2.087-.003 1.043 1.043 0 002.087.003zm8 0a1.043 1.043 0 10-2.087-.003 1.043 1.043 0 002.087.003zm8 0a1.043 1.043 0 10-2.087-.003 1.043 1.043 0 002.087.003zm9 0a1.043 1.043 0 10-2.087-.003 1.043 1.043 0 002.087.003zm8 0a1.043 1.043 0 10-2.087-.003 1.043 1.043 0 002.087.003zm9 0a1.043 1.043 0 10-2.087-.003 1.043 1.043 0 002.087.003zm8 0a1.043 1.043 0 10-2.087-.003 1.043 1.043 0 002.087.003zm9 0a1.043 1.043 0 10-2.087-.003 1.043 1.043 0 002.087.003zm8 0a1.043 1.043 0 10-2.087-.003 1.043 1.043 0 002.087.003zm9 0a1.043 1.043 0 10-2.087-.003 1.043 1.043 0 002.087.003zm8 0a1.043 1.043 0 10-2.087-.003 1.043 1.043 0 002.087.003zm9-1a1.043 1.043 0 10-2.087-.003 1.043 1.043 0 002.087.003zm8 1a1.043 1.043 0 10-2.087-.003 1.043 1.043 0 002.087.003zm9-1a1.043 1.043 0 10-2.087-.003 1.043 1.043 0 002.087.003zm8 1a1.043 1.043 0 10-2.087-.003 1.043 1.043 0 002.087.003zm9 0a1.043 1.043 0 10-2.087-.003 1.043 1.043 0 002.087.003zm8 0a1.043 1.043 0 10-2.087-.003 1.043 1.043 0 002.087.003zm8-1a1.043 1.043 0 10-2.087-.003 1.043 1.043 0 002.087.003zm9 0a1.043 1.043 0 10-2.087-.003 1.043 1.043 0 002.087.003zm8 1a1.043 1.043 0 10-2.087-.003 1.043 1.043 0 002.087.003zm9-1a1.043 1.043 0 10-2.087-.003 1.043 1.043 0 002.087.003zm8 0a1.043 1.043 0 10-2.087-.003 1.043 1.043 0 002.087.003zm9 0a1.043 1.043 0 10-2.087-.003 1.043 1.043 0 002.087.003zm8 1a1.043 1.043 0 10-2.087-.003 1.043 1.043 0 002.087.003zm9 0a1.043 1.043 0 10-2.087-.003 1.043 1.043 0 002.087.003zm8 0a1.043 1.043 0 10-2.087-.003 1.043 1.043 0 002.087.003zm9 0a1.043 1.043 0 10-2.087-.003 1.043 1.043 0 002.087.003zm8 0a1.043 1.043 0 10-2.087-.003 1.043 1.043 0 002.087.003zm9 0a1.043 1.043 0 10-2.087-.003 1.043 1.043 0 002.087.003zm8 0a1.043 1.043 0 10-2.087-.003 1.043 1.043 0 002.087.003zm8 0a1.043 1.043 0 10-2.087-.003 1.043 1.043 0 002.087.003zm9 0a1.043 1.043 0 10-2.087-.003 1.043 1.043 0 002.087.003zm8 0a1.043 1.043 0 10-2.087-.003 1.043 1.043 0 002.087.003zm9 0a1.043 1.043 0 10-2.087-.003 1.043 1.043 0 002.087.003zm8 0a1.043 1.043 0 10-2.087-.003 1.043 1.043 0 002.087.003zm9 0a1.043 1.043 0 10-2.087-.003 1.043 1.043 0 002.087.003zm8 0a1.043 1.043 0 10-2.087-.003 1.043 1.043 0 002.087.003zm0 0" fill-rule="evenodd" fill="#1c8f6b"/><path d="M42.043 219a1.043 1.043 0 10-2.087-.003 1.043 1.043 0 002.087.003zm8 0a1.043 1.043 0 10-2.087-.003 1.043 1.043 0 002.087.003zm9 0a1.043 1.043 0 10-2.087-.003 1.043 1.043 0 002.087.003zm8 0a1.043 1.043 0 10-2.087-.003 1.043 1.043 0 002.087.003zm8 0a1.043 1.043 0 10-2.087-.003 1.043 1.043 0 002.087.003zm9 0a1.043 1.043 0 10-2.087-.003 1.043 1.043 0 002.087.003zm8 0a1.043 1.043 0 10-2.087-.003 1.043 1.043 0 002.087.003zm9 0a1.043 1.043 0 10-2.087-.003 1.043 1.043 0 002.087.003zm8 0a1.043 1.043 0 10-2.087-.003 1.043 1.043 0 002.087.003zm9 0a1.043 1.043 0 10-2.087-.003 1.043 1.043 0 002.087.003zm8 0a1.043 1.043 0 10-2.087-.003 1.043 1.043 0 002.087.003zm9 0a1.043 1.043 0 10-2.087-.003 1.043 1.043 0 002.087.003zm8 0a1.043 1.043 0 10-2.087-.003 1.043 1.043 0 002.087.003zm9 0a1.043 1.043 0 10-2.087-.003 1.043 1.043 0 002.087.003zm8 0a1.043 1.043 0 10-2.087-.003 1.043 1.043 0 002.087.003zm9 0a1.043 1.043 0 10-2.087-.003 1.043 1.043 0 002.087.003zm8 0a1.043 1.043 0 10-2.087-.003 1.043 1.043 0 002.087.003zm9-1a1.043 1.043 0 10-2.087-.003 1.043 1.043 0 002.087.003zm8 1a1.043 1.043 0 10-2.087-.003 1.043 1.043 0 002.087.003zm8-1a1.043 1.043 0 10-2.087-.003 1.043 1.043 0 002.087.003zm9 1a1.043 1.043 0 10-2.087-.003 1.043 1.043 0 002.087.003zm8 0a1.043 1.043 0 10-2.087-.003 1.043 1.043 0 002.087.003zm9 0a1.043 1.043 0 10-2.087-.003 1.043 1.043 0 002.087.003zm8 0a1.043 1.043 0 10-2.087-.003 1.043 1.043 0 002.087.003zm9-1a1.043 1.043 0 10-2.087-.003 1.043 1.043 0 002.087.003zm8 0a1.043 1.043 0 10-2.087-.003 1.043 1.043 0 002.087.003zm9 0a1.043 1.043 0 10-2.087-.003 1.043 1.043 0 002.087.003zm8 0a1.043 1.043 0 10-2.087-.003 1.043 1.043 0 002.087.003zm9 0a1.043 1.043 0 10-2.087-.003 1.043 1.043 0 002.087.003zm8 1a1.043 1.043 0 10-2.087-.003 1.043 1.043 0 002.087.003zm9-1a1.043 1.043 0 10-2.087-.003 1.043 1.043 0 002.087.003zm8 1a1.043 1.043 0 10-2.087-.003 1.043 1.043 0 002.087.003zm8 0a1.043 1.043 0 10-2.087-.003 1.043 1.043 0 002.087.003zm9 0a1.043 1.043 0 10-2.087-.003 1.043 1.043 0 002.087.003zm8 0a1.043 1.043 0 10-2.087-.003 1.043 1.043 0 002.087.003zm9 0a1.043 1.043 0 10-2.087-.003 1.043 1.043 0 002.087.003zm8 0a1.043 1.043 0 10-2.087-.003 1.043 1.043 0 002.087.003zm9 0a1.043 1.043 0 10-2.087-.003 1.043 1.043 0 002.087.003zm8 0a1.043 1.043 0 10-2.087-.003 1.043 1.043 0 002.087.003zm0 0" fill-rule="evenodd" fill="#a54f05"/><path d="M42.043 219a1.043 1.043 0 10-2.087-.003 1.043 1.043 0 002.087.003zm8 0a1.043 1.043 0 10-2.087-.003 1.043 1.043 0 002.087.003zm9 0a1.043 1.043 0 10-2.087-.003 1.043 1.043 0 002.087.003zm8 0a1.043 1.043 0 10-2.087-.003 1.043 1.043 0 002.087.003zm8 0a1.043 1.043 0 10-2.087-.003 1.043 1.043 0 002.087.003zm9 0a1.043 1.043 0 10-2.087-.003 1.043 1.043 0 002.087.003zm8 0a1.043 1.043 0 10-2.087-.003 1.043 1.043 0 002.087.003zm9 0a1.043 1.043 0 10-2.087-.003 1.043 1.043 0 002.087.003zm8 0a1.043 1.043 0 10-2.087-.003 1.043 1.043 0 002.087.003zm9 0a1.043 1.043 0 10-2.087-.003 1.043 1.043 0 002.087.003zm8-1a1.043 1.043 0 10-2.087-.003 1.043 1.043 0 002.087.003zm9 0a1.043 1.043 0 10-2.087-.003 1.043 1.043 0 002.087.003zm8-2a1.043 1.043 0 10-2.087-.003 1.043 1.043 0 002.087.003zm9-1a1.043 1.043 0 10-2.087-.003 1.043 1.043 0 002.087.003zm8-1a1.043 1.043 0 10-2.087-.003 1.043 1.043 0 002.087.003zm9-1a1.043 1.043 0 10-2.087-.003 1.043 1.043 0 002.087.003zm8-1a1.043 1.043 0 10-2.087-.003 1.043 1.043 0 002.087.003zm9-2a1.043 1.043 0 10-2.087-.003 1.043 1.043 0 002.087.003zm8-1a1.043 1.043 0 10-2.087-.003 1.043 1.043 0 002.087.003zm8-1a1.043 1.043 0 10-2.087-.003 1.043 1.043 0 002.087.003zm9 0a1.043 1.043 0 10-2.087-.003 1.043 1.043 0 002.087.003zm8 2a1.043 1.043 0 10-2.087-.003 1.043 1.043 0 002.087.003zm9-1a1.043 1.043 0 10-2.087-.003 1.043 1.043 0 002.087.003zm8-2a1.043 1.043 0 10-2.087-.003 1.043 1.043 0 002.087.003zm9 2a1.043 1.043 0 10-2.087-.003 1.043 1.043 0 002.087.003zm8 0a1.043 1.043 0 10-2.087-.003 1.043 1.043 0 002.087.003zm9 0a1.043 1.043 0 10-2.087-.003 1.043 1.043 0 002.087.003zm8 2a1.043 1.043 0 10-2.087-.003 1.043 1.043 0 002.087.003zm9 1a1.043 1.043 0 10-2.087-.003 1.043 1.043 0 002.087.003zm8 1a1.043 1.043 0 10-2.087-.003 1.043 1.043 0 002.087.003zm9 1a1.043 1.043 0 10-2.087-.003 1.043 1.043 0 002.087.003zm8 0a1.043 1.043 0 10-2.087-.003 1.043 1.043 0 002.087.003zm8 1a1.043 1.043 0 10-2.087-.003 1.043 1.043 0 002.087.003zm9 0a1.043 1.043 0 10-2.087-.003 1.043 1.043 0 002.087.003zm8 1a1.043 1.043 0 10-2.087-.003 1.043 1.043 0 002.087.003zm9 1a1.043 1.043 0 10-2.087-.003 1.043 1.043 0 002.087.003zm8 0a1.043 1.043 0 10-2.087-.003 1.043 1.043 0 002.087.003zm9 1a1.043 1.043 0 10-2.087-.003 1.043 1.043 0 002.087.003zm8 0a1.043 1.043 0 10-2.087-.003 1.043 1.043 0 002.087.003zm0 0" fill-rule="evenodd" fill="#6846c7"/><path d="M412.2 205.371h4.308l.062-.008.07-.015.07-.036.083-.054.082-.082.094-.117.097-.157.106-.195.113-.25.121-.3.133-.364.14-.43.15-.5.16-.578.171-.66.18-.746.195-.84.203-.937.219-1.043.23-1.153.247-1.27.257-1.39.274-1.516.285-1.644.305-1.785.316-1.926.336-2.074.352-2.227.37-2.39.384-2.551.406-2.723.422-2.887.437-3.046.457-3.188.469-3.324.48-3.45.496-3.562.504-3.66.516-3.754.523-3.832.532-3.898.539-3.961.543-4.004.55-4.04.551-4.066.555-4.078.555-4.082.55-4.074.555-4.055.55-4.023.548-3.985.543-3.93.535-3.866.531-3.793.52-3.711.515-3.614.5-3.504.493-3.386.48-3.262.465-3.117.449-2.969.434-2.805.418-2.636.402-2.47.383-2.308.37-2.152.356-1.996.344-1.856.328-1.714.317-1.582.304-1.45.293-1.328.281-1.21.274-1.098.262-.989.254-.89.242-.793.238-.703.23-.618.223-.535.219-.465.215-.394.207-.332.203-.278.203-.222.195-.176.196-.133.195-.097.195-.07.192-.044.195-.027.195-.012h4.88" fill="none" stroke-width="4" stroke-linejoin="round" stroke="#fff" stroke-opacity=".667" stroke-miterlimit="3.25"/><path d="M412.2 205.371h4.308l.062-.008.07-.015.07-.036.083-.054.082-.082.094-.117.097-.157.106-.195.113-.25.121-.3.133-.364.14-.43.15-.5.16-.578.171-.66.18-.746.195-.84.203-.937.219-1.043.23-1.153.247-1.27.257-1.39.274-1.516.285-1.644.305-1.785.316-1.926.336-2.074.352-2.227.37-2.39.384-2.551.406-2.723.422-2.887.437-3.046.457-3.188.469-3.324.48-3.45.496-3.562.504-3.66.516-3.754.523-3.832.532-3.898.539-3.961.543-4.004.55-4.04.551-4.066.555-4.078.555-4.082.55-4.074.555-4.055.55-4.023.548-3.985.543-3.93.535-3.866.531-3.793.52-3.711.515-3.614.5-3.504.493-3.386.48-3.262.465-3.117.449-2.969.434-2.805.418-2.636.402-2.47.383-2.308.37-2.152.356-1.996.344-1.856.328-1.714.317-1.582.304-1.45.293-1.328.281-1.21.274-1.098.262-.989.254-.89.242-.793.238-.703.23-.618.223-.535.219-.465.215-.394.207-.332.203-.278.203-.222.195-.176.196-.133.195-.097.195-.07.192-.044.195-.027.195-.012h4.88" fill="none" stroke-width="1.25" stroke-linecap="square" stroke="#aaa" stroke-miterlimit="3.25"/><path d="M476.324 26.406v15h-25v-15zm0 0" fill="#fff" fill-opacity=".667"/><use xlink:href="#a" x="453.823" y="36.405"/><use xlink:href="#b" x="463.823" y="36.405"/><path d="M412.2 204.035h4.284l.059-.004.062-.011.067-.028.074-.043.078-.07.082-.098.09-.133.094-.171.101-.22.11-.269.117-.324.125-.383.133-.449.14-.52.153-.593.16-.68.172-.762.18-.855.19-.95.204-1.054.215-1.16.226-1.274.239-1.39.25-1.512.265-1.64.278-1.774.293-1.91.304-2.055.325-2.203.335-2.355.352-2.516.367-2.68.383-2.847.402-3.016.414-3.172.43-3.316.442-3.45.457-3.578.464-3.691.477-3.797.484-3.89.496-3.977.5-4.047.508-4.11.516-4.163.515-4.207.524-4.235.523-4.262 1.055-8.539.524-4.261.527-4.243.523-4.214.52-4.168.515-4.121.508-4.06.508-3.987.496-3.907.488-3.812.48-3.711.474-3.594.46-3.476.45-3.34.433-3.196.422-3.039.406-2.878.395-2.708.375-2.542.363-2.383.352-2.227.336-2.078.324-1.937.312-1.793.301-1.665.293-1.53.278-1.41.27-1.294.26-1.18.25-1.07.247-.969.234-.867.23-.781.223-.691.215-.606.211-.535.203-.461.203-.395.196-.332.191-.277.192-.223.187-.18.188-.14.183-.105.184-.075.183-.046.184-.032.187-.011.184-.008h4.742" fill="none" stroke-width="4" stroke-linejoin="round" stroke="#fff" stroke-opacity=".667" stroke-miterlimit="3.25"/><path d="M412.2 204.035h4.284l.059-.004.062-.011.067-.028.074-.043.078-.07.082-.098.09-.133.094-.171.101-.22.11-.269.117-.324.125-.383.133-.449.14-.52.153-.593.16-.68.172-.762.18-.855.19-.95.204-1.054.215-1.16.226-1.274.239-1.39.25-1.512.265-1.64.278-1.774.293-1.91.304-2.055.325-2.203.335-2.355.352-2.516.367-2.68.383-2.847.402-3.016.414-3.172.43-3.316.442-3.45.457-3.578.464-3.691.477-3.797.484-3.89.496-3.977.5-4.047.508-4.11.516-4.163.515-4.207.524-4.235.523-4.262 1.055-8.539.524-4.261.527-4.243.523-4.214.52-4.168.515-4.121.508-4.06.508-3.987.496-3.907.488-3.812.48-3.711.474-3.594.46-3.476.45-3.34.433-3.196.422-3.039.406-2.878.395-2.708.375-2.542.363-2.383.352-2.227.336-2.078.324-1.937.312-1.793.301-1.665.293-1.53.278-1.41.27-1.294.26-1.18.25-1.07.247-.969.234-.867.23-.781.223-.691.215-.606.211-.535.203-.461.203-.395.196-.332.191-.277.192-.223.187-.18.188-.14.183-.105.184-.075.183-.046.184-.032.187-.011.184-.008h4.742" fill="none" stroke-width="1.25" stroke-linecap="square" stroke="#aaa" stroke-miterlimit="3.25"/><path d="M476.324 7.594v15h-25v-15zm0 0" fill="#fff" fill-opacity=".667"/><use xlink:href="#c" x="453.823" y="17.595"/><use xlink:href="#d" x="463.823" y="17.595"/><path d="M412.2 218.973h4.327l.09-.008.098-.024.105-.043.121-.07.13-.105.144-.149.16-.195.172-.25.191-.316.207-.383.23-.461.247-.543.27-.633.288-.734.317-.832.34-.95.363-1.066.39-1.188.419-1.324.449-1.46.48-1.61.508-1.758.543-1.922.574-2.078.602-2.219.629-2.347.652-2.461.672-2.563.691-2.648.707-2.727.72-2.781.73-2.828.738-2.856 1.484-5.757.742-2.868.739-2.847.734-2.805.723-2.754.71-2.687.7-2.61.68-2.515.66-2.407.64-2.285.614-2.148.586-2 .554-1.84.528-1.684.5-1.535.472-1.39.45-1.254.425-1.13.407-1.003.382-.89.368-.786.347-.68.336-.59.317-.5.308-.421.293-.348.285-.281.278-.223.273-.172.266-.125.261-.086.258-.054.262-.036.258-.011.261-.004h4.72" fill="none" stroke-width="4" stroke-linejoin="round" stroke="#fff" stroke-opacity=".667" stroke-miterlimit="3.25"/><path d="M412.2 218.973h4.327l.09-.008.098-.024.105-.043.121-.07.13-.105.144-.149.16-.195.172-.25.191-.316.207-.383.23-.461.247-.543.27-.633.288-.734.317-.832.34-.95.363-1.066.39-1.188.419-1.324.449-1.46.48-1.61.508-1.758.543-1.922.574-2.078.602-2.219.629-2.347.652-2.461.672-2.563.691-2.648.707-2.727.72-2.781.73-2.828.738-2.856 1.484-5.757.742-2.868.739-2.847.734-2.805.723-2.754.71-2.687.7-2.61.68-2.515.66-2.407.64-2.285.614-2.148.586-2 .554-1.84.528-1.684.5-1.535.472-1.39.45-1.254.425-1.13.407-1.003.382-.89.368-.786.347-.68.336-.59.317-.5.308-.421.293-.348.285-.281.278-.223.273-.172.266-.125.261-.086.258-.054.262-.036.258-.011.261-.004h4.72" fill="none" stroke-width="1.25" stroke-linecap="square" stroke="#aaa" stroke-miterlimit="3.25"/><path d="M476.324 121.215v15h-25v-15zm0 0" fill="#fff" fill-opacity=".667"/><use xlink:href="#e" x="453.823" y="131.214"/><use xlink:href="#f" x="463.823" y="131.214"/><path d="M412.2 219.2h4.3l.18-.005.215-.02.265-.042.317-.078.382-.121.457-.18.536-.246.628-.324.727-.414.832-.508.953-.621 1.078-.735 1.192-.851 1.297-.946 1.37-1.015 1.426-1.067 1.461-1.097 1.473-1.106 1.469-1.09 1.441-1.062 1.387-1.004 1.32-.93 1.227-.832 1.113-.719 1-.597.902-.496.813-.395.734-.308.672-.235.613-.172.575-.113.539-.07.523-.04.516-.015.52-.004h4.671" fill="none" stroke-width="4" stroke-linejoin="round" stroke="#fff" stroke-opacity=".667" stroke-miterlimit="3.25"/><path d="M412.2 219.2h4.3l.18-.005.215-.02.265-.042.317-.078.382-.121.457-.18.536-.246.628-.324.727-.414.832-.508.953-.621 1.078-.735 1.192-.851 1.297-.946 1.37-1.015 1.426-1.067 1.461-1.097 1.473-1.106 1.469-1.09 1.441-1.062 1.387-1.004 1.32-.93 1.227-.832 1.113-.719 1-.597.902-.496.813-.395.734-.308.672-.235.613-.172.575-.113.539-.07.523-.04.516-.015.52-.004h4.671" fill="none" stroke-width="1.25" stroke-linecap="square" stroke="#aaa" stroke-miterlimit="3.25"/><path d="M476.324 194.242v15h-25v-15zm0 0" fill="#fff" fill-opacity=".667"/><use xlink:href="#g" x="453.823" y="204.243"/><use xlink:href="#h" x="463.823" y="204.243"/><path d="M412.2 218.918h4.288l.07-.004.07-.016.083-.027.082-.055.094-.078.101-.11.106-.151.117-.196.129-.25.137-.3.144-.368.16-.437.168-.508.184-.59.191-.676.211-.77.223-.862.234-.973.254-1.078.27-1.196.28-1.316.306-1.445.316-1.575.34-1.718.355-1.86.375-2.011.395-2.168.414-2.332.437-2.5.457-2.664.477-2.817.496-2.96.512-3.09.527-3.208.54-3.316.55-3.41.562-3.496.575-3.563.578-3.625.586-3.676.594-3.707.593-3.734.598-3.746.601-3.746.598-3.738.594-3.715.594-3.68.59-3.633.582-3.574.574-3.508.566-3.426.555-3.332.543-3.226.531-3.11.516-2.984.5-2.844.48-2.687.465-2.528.445-2.359.422-2.195.41-2.04.39-1.886.372-1.738.36-1.602.343-1.465.328-1.336.317-1.214.3-1.098.293-.988.282-.883.27-.785.26-.692.25-.601.247-.524.238-.449.23-.375.227-.316.22-.254.218-.203.21-.16.212-.118.21-.086.212-.054.207-.032.21-.015.212-.008h4.761" fill="none" stroke-width="4" stroke-linejoin="round" stroke="#fff" stroke-opacity=".667" stroke-miterlimit="3.25"/><path d="M412.2 218.918h4.288l.07-.004.07-.016.083-.027.082-.055.094-.078.101-.11.106-.151.117-.196.129-.25.137-.3.144-.368.16-.437.168-.508.184-.59.191-.676.211-.77.223-.862.234-.973.254-1.078.27-1.196.28-1.316.306-1.445.316-1.575.34-1.718.355-1.86.375-2.011.395-2.168.414-2.332.437-2.5.457-2.664.477-2.817.496-2.96.512-3.09.527-3.208.54-3.316.55-3.41.562-3.496.575-3.563.578-3.625.586-3.676.594-3.707.593-3.734.598-3.746.601-3.746.598-3.738.594-3.715.594-3.68.59-3.633.582-3.574.574-3.508.566-3.426.555-3.332.543-3.226.531-3.11.516-2.984.5-2.844.48-2.687.465-2.528.445-2.359.422-2.195.41-2.04.39-1.886.372-1.738.36-1.602.343-1.465.328-1.336.317-1.214.3-1.098.293-.988.282-.883.27-.785.26-.692.25-.601.247-.524.238-.449.23-.375.227-.316.22-.254.218-.203.21-.16.212-.118.21-.086.212-.054.207-.032.21-.015.212-.008h4.761" fill="none" stroke-width="1.25" stroke-linecap="square" stroke="#aaa" stroke-miterlimit="3.25"/><path d="M476.324 65.629v15h-25v-15zm0 0" fill="#fff" fill-opacity=".667"/><use xlink:href="#i" x="453.823" y="75.629"/><use xlink:href="#j" x="463.823" y="75.629"/><path d="M412.2 218.883h4.308l.062-.008.07-.016.07-.03.083-.056.082-.082.094-.109.097-.148.106-.192.113-.234.121-.293.133-.348.14-.41.15-.48.16-.551.171-.633.18-.715.195-.805.203-.902.219-1 .23-1.105.247-1.215.257-1.332.274-1.45.285-1.578.305-1.71.316-1.848.336-1.988.352-2.133.37-2.29.384-2.445.406-2.609.422-2.77.437-2.918.457-3.058.469-3.184.48-3.304.496-3.414.504-3.512.516-3.594.523-3.676.532-3.738.539-3.793.543-3.84.55-3.87.551-3.895.555-3.91.555-3.915.55-3.902.555-3.887.55-3.855.548-3.82.543-3.766.535-3.707.531-3.637.52-3.555.515-3.46.5-3.364.493-3.246.48-3.121.465-2.992.449-2.844.434-2.691.418-2.524.402-2.367.383-2.21.37-2.063.356-1.918.344-1.778.328-1.64.317-1.516.304-1.39.293-1.274.281-1.16.274-1.05.262-.95.254-.852.242-.761.238-.672.23-.594.223-.512.219-.445.215-.379.207-.32.203-.262.203-.215.195-.168.196-.129.195-.093.195-.067.192-.043.195-.023.195-.012h4.88" fill="none" stroke-width="4" stroke-linejoin="round" stroke="#fff" stroke-opacity=".667" stroke-miterlimit="3.25"/><path d="M412.2 218.883h4.308l.062-.008.07-.016.07-.03.083-.056.082-.082.094-.109.097-.148.106-.192.113-.234.121-.293.133-.348.14-.41.15-.48.16-.551.171-.633.18-.715.195-.805.203-.902.219-1 .23-1.105.247-1.215.257-1.332.274-1.45.285-1.578.305-1.71.316-1.848.336-1.988.352-2.133.37-2.29.384-2.445.406-2.609.422-2.77.437-2.918.457-3.058.469-3.184.48-3.304.496-3.414.504-3.512.516-3.594.523-3.676.532-3.738.539-3.793.543-3.84.55-3.87.551-3.895.555-3.91.555-3.915.55-3.902.555-3.887.55-3.855.548-3.82.543-3.766.535-3.707.531-3.637.52-3.555.515-3.46.5-3.364.493-3.246.48-3.121.465-2.992.449-2.844.434-2.691.418-2.524.402-2.367.383-2.21.37-2.063.356-1.918.344-1.778.328-1.64.317-1.516.304-1.39.293-1.274.281-1.16.274-1.05.262-.95.254-.852.242-.761.238-.672.23-.594.223-.512.219-.445.215-.379.207-.32.203-.262.203-.215.195-.168.196-.129.195-.093.195-.067.192-.043.195-.023.195-.012h4.88" fill="none" stroke-width="1.25" stroke-linecap="square" stroke="#aaa" stroke-miterlimit="3.25"/><path d="M476.324 47.043v15h-25v-15zm0 0" fill="#fff" fill-opacity=".667"/><use xlink:href="#c" x="453.823" y="57.041"/><use xlink:href="#h" x="463.823" y="57.041"/><path d="M412.2 219.11h4.206l.125-.005.14-.007.165-.024.191-.05.223-.09.258-.137.297-.2.34-.261.39-.344.442-.433.496-.532.554-.644.625-.762.688-.89.765-1.036.84-1.183.914-1.328.977-1.454 1.031-1.558 1.074-1.645 1.114-1.703 1.132-1.75 1.149-1.77 1.148-1.773 1.145-1.754 1.129-1.714 1.101-1.657 1.067-1.574 1.02-1.473.964-1.347.895-1.211.828-1.059.762-.914.699-.781.644-.664.594-.551.555-.445.515-.36.48-.277.454-.207.434-.145.418-.097.406-.059.402-.027.402-.012h4.926" fill="none" stroke-width="4" stroke-linejoin="round" stroke="#fff" stroke-opacity=".667" stroke-miterlimit="3.25"/><path d="M412.2 219.11h4.206l.125-.005.14-.007.165-.024.191-.05.223-.09.258-.137.297-.2.34-.261.39-.344.442-.433.496-.532.554-.644.625-.762.688-.89.765-1.036.84-1.183.914-1.328.977-1.454 1.031-1.558 1.074-1.645 1.114-1.703 1.132-1.75 1.149-1.77 1.148-1.773 1.145-1.754 1.129-1.714 1.101-1.657 1.067-1.574 1.02-1.473.964-1.347.895-1.211.828-1.059.762-.914.699-.781.644-.664.594-.551.555-.445.515-.36.48-.277.454-.207.434-.145.418-.097.406-.059.402-.027.402-.012h4.926" fill="none" stroke-width="1.25" stroke-linecap="square" stroke="#aaa" stroke-miterlimit="3.25"/><path d="M476.324 175.703v15h-25v-15zm0 0" fill="#fff" fill-opacity=".667"/><use xlink:href="#k" x="453.823" y="185.703"/><use xlink:href="#l" x="463.823" y="185.703"/><path d="M412.2 219.004h4.277l.093-.004.106-.012.117-.031.133-.062.148-.094.164-.133.18-.188.203-.246.227-.312.246-.387.273-.472.297-.56.328-.66.36-.765.386-.879.426-1.004.453-1.132.496-1.27.532-1.422.57-1.57.61-1.738.652-1.891.687-2.04.719-2.16.75-2.273.773-2.367.793-2.45.809-2.507.824-2.559.832-2.586.836-2.601.84-2.598.832-2.582.832-2.55.816-2.5.805-2.434.79-2.356.76-2.254.74-2.144.71-2.012.672-1.867.64-1.71.598-1.548.567-1.394.53-1.246.505-1.114.472-.98.446-.86.422-.746.398-.644.375-.543.363-.457.344-.375.332-.297.316-.238.31-.176.304-.129.293-.09.297-.055.289-.027.297-.012h4.93" fill="none" stroke-width="4" stroke-linejoin="round" stroke="#fff" stroke-opacity=".667" stroke-miterlimit="3.25"/><path d="M412.2 219.004h4.277l.093-.004.106-.012.117-.031.133-.062.148-.094.164-.133.18-.188.203-.246.227-.312.246-.387.273-.472.297-.56.328-.66.36-.765.386-.879.426-1.004.453-1.132.496-1.27.532-1.422.57-1.57.61-1.738.652-1.891.687-2.04.719-2.16.75-2.273.773-2.367.793-2.45.809-2.507.824-2.559.832-2.586.836-2.601.84-2.598.832-2.582.832-2.55.816-2.5.805-2.434.79-2.356.76-2.254.74-2.144.71-2.012.672-1.867.64-1.71.598-1.548.567-1.394.53-1.246.505-1.114.472-.98.446-.86.422-.746.398-.644.375-.543.363-.457.344-.375.332-.297.316-.238.31-.176.304-.129.293-.09.297-.055.289-.027.297-.012h4.93" fill="none" stroke-width="1.25" stroke-linecap="square" stroke="#aaa" stroke-miterlimit="3.25"/><path d="M476.324 139.691v14h-25v-14zm0 0" fill="#fff" fill-opacity=".667"/><use xlink:href="#j" x="453.823" y="149.19"/><use xlink:href="#m" x="463.823" y="149.19"/><path d="M412.2 219.043h4.35l.118-.012.133-.027.148-.05.172-.09.192-.13.214-.18.243-.242.273-.312.305-.387.336-.472.37-.57.415-.673.449-.78.496-.903.54-1.035.585-1.168.637-1.317.687-1.468.742-1.618.782-1.754.824-1.867.855-1.968.887-2.047.906-2.114.926-2.16.938-2.191.941-2.203.945-2.2.938-2.175.93-2.14.91-2.083.89-2.012.868-1.918.828-1.812.793-1.688.75-1.547.703-1.39.652-1.242.613-1.102.57-.965.536-.844.504-.726.469-.617.44-.52.419-.43.398-.347.375-.277.364-.211.347-.153.34-.11.332-.07.332-.038.328-.016.332-.004h4.754" fill="none" stroke-width="4" stroke-linejoin="round" stroke="#fff" stroke-opacity=".667" stroke-miterlimit="3.25"/><path d="M412.2 219.043h4.35l.118-.012.133-.027.148-.05.172-.09.192-.13.214-.18.243-.242.273-.312.305-.387.336-.472.37-.57.415-.673.449-.78.496-.903.54-1.035.585-1.168.637-1.317.687-1.468.742-1.618.782-1.754.824-1.867.855-1.968.887-2.047.906-2.114.926-2.16.938-2.191.941-2.203.945-2.2.938-2.175.93-2.14.91-2.083.89-2.012.868-1.918.828-1.812.793-1.688.75-1.547.703-1.39.652-1.242.613-1.102.57-.965.536-.844.504-.726.469-.617.44-.52.419-.43.398-.347.375-.277.364-.211.347-.153.34-.11.332-.07.332-.038.328-.016.332-.004h4.754" fill="none" stroke-width="1.25" stroke-linecap="square" stroke="#aaa" stroke-miterlimit="3.25"/><path d="M476.324 157.168v15h-25v-15zm0 0" fill="#fff" fill-opacity=".667"/><use xlink:href="#j" x="453.823" y="167.167"/><use xlink:href="#n" x="463.823" y="167.167"/><path d="M412.2 218.965h4.273l.074-.004.082-.008.09-.027.097-.047.106-.074.117-.106.125-.148.14-.196.153-.246.164-.304.18-.371.195-.442.207-.52.23-.605.243-.695.262-.79.285-.894.3-1.004.325-1.117.343-1.242.368-1.371.39-1.504.414-1.645.442-1.792.465-1.946.496-2.105.52-2.262.542-2.406.567-2.535.585-2.657.602-2.761.621-2.856.633-2.937.648-3.004.657-3.063.664-3.101.668-3.137.675-3.152.676-3.157.676-3.148.672-3.133.672-3.098.664-3.05.652-2.996.645-2.922.632-2.844.618-2.742.601-2.637.582-2.516.563-2.382.539-2.239.515-2.078.493-1.918.468-1.77.446-1.62.422-1.48.406-1.349.383-1.218.367-1.102.351-.984.336-.875.32-.778.31-.68.296-.585.281-.508.278-.43.265-.359.258-.297.25-.234.246-.188.242-.14.239-.102.238-.07.234-.04.239-.023.238-.011h4.863" fill="none" stroke-width="4" stroke-linejoin="round" stroke="#fff" stroke-opacity=".667" stroke-miterlimit="3.25"/><path d="M412.2 218.965h4.273l.074-.004.082-.008.09-.027.097-.047.106-.074.117-.106.125-.148.14-.196.153-.246.164-.304.18-.371.195-.442.207-.52.23-.605.243-.695.262-.79.285-.894.3-1.004.325-1.117.343-1.242.368-1.371.39-1.504.414-1.645.442-1.792.465-1.946.496-2.105.52-2.262.542-2.406.567-2.535.585-2.657.602-2.761.621-2.856.633-2.937.648-3.004.657-3.063.664-3.101.668-3.137.675-3.152.676-3.157.676-3.148.672-3.133.672-3.098.664-3.05.652-2.996.645-2.922.632-2.844.618-2.742.601-2.637.582-2.516.563-2.382.539-2.239.515-2.078.493-1.918.468-1.77.446-1.62.422-1.48.406-1.349.383-1.218.367-1.102.351-.984.336-.875.32-.778.31-.68.296-.585.281-.508.278-.43.265-.359.258-.297.25-.234.246-.188.242-.14.239-.102.238-.07.234-.04.239-.023.238-.011h4.863" fill="none" stroke-width="1.25" stroke-linecap="square" stroke="#aaa" stroke-miterlimit="3.25"/><path d="M476.324 102.688v15h-25v-15zm0 0" fill="#fff" fill-opacity=".667"/><use xlink:href="#o" x="453.823" y="112.688"/><use xlink:href="#p" x="463.823" y="112.688"/><path d="M412.2 218.957h4.316l.074-.008.082-.02.086-.034.094-.063.105-.094.11-.129.124-.172.133-.222.14-.278.157-.335.168-.407.18-.476.195-.559.211-.644.227-.735.238-.836.258-.937.277-1.047.293-1.164.312-1.285.332-1.414.352-1.551.371-1.692.395-1.835.418-1.993.437-2.148.465-2.316.484-2.473.508-2.63.528-2.76.546-2.891.563-3.004.578-3.102.59-3.191.601-3.27.614-3.336.617-3.383.629-3.425.629-3.453.633-3.47.636-3.468.633-3.46.633-3.442.629-3.407.625-3.359.617-3.305.605-3.23.598-3.149.586-3.054.57-2.95.555-2.828.54-2.695.519-2.555.5-2.394.476-2.234.457-2.067.434-1.914.418-1.762.394-1.62.383-1.481.36-1.352.347-1.222.332-1.106.32-.992.305-.887.293-.781.285-.691.27-.598.265-.52.254-.441.246-.367.243-.309.234-.246.23-.2.227-.148.223-.109.222-.078.223-.05.223-.028.222-.012.223-.004h4.7" fill="none" stroke-width="4" stroke-linejoin="round" stroke="#fff" stroke-opacity=".667" stroke-miterlimit="3.25"/><path d="M412.2 218.957h4.316l.074-.008.082-.02.086-.034.094-.063.105-.094.11-.129.124-.172.133-.222.14-.278.157-.335.168-.407.18-.476.195-.559.211-.644.227-.735.238-.836.258-.937.277-1.047.293-1.164.312-1.285.332-1.414.352-1.551.371-1.692.395-1.835.418-1.993.437-2.148.465-2.316.484-2.473.508-2.63.528-2.76.546-2.891.563-3.004.578-3.102.59-3.191.601-3.27.614-3.336.617-3.383.629-3.425.629-3.453.633-3.47.636-3.468.633-3.46.633-3.442.629-3.407.625-3.359.617-3.305.605-3.23.598-3.149.586-3.054.57-2.95.555-2.828.54-2.695.519-2.555.5-2.394.476-2.234.457-2.067.434-1.914.418-1.762.394-1.62.383-1.481.36-1.352.347-1.222.332-1.106.32-.992.305-.887.293-.781.285-.691.27-.598.265-.52.254-.441.246-.367.243-.309.234-.246.23-.2.227-.148.223-.109.222-.078.223-.05.223-.028.222-.012.223-.004h4.7" fill="none" stroke-width="1.25" stroke-linecap="square" stroke="#aaa" stroke-miterlimit="3.25"/><path d="M476.324 84.16v15h-25v-15zm0 0" fill="#fff" fill-opacity=".667"/><use xlink:href="#q" x="453.823" y="94.161"/><use xlink:href="#f" x="463.823" y="94.161"/><path d="M412.2 220.145h5.253l.45.003.542.004.664.004.786.008.93.008 1.085.012 1.254.015 1.41.016 1.535.02 1.633.019 1.688.02 1.715.019 1.71.02 1.665.019 1.593.02 1.489.015 1.343.016 1.192.012 1.054.007.934.008.832.004.746.004.684.004h.636l.61.004h5.691" fill="none" stroke-width="4" stroke-linejoin="round" stroke="#fff" stroke-opacity=".667" stroke-miterlimit="3.25"/><path d="M412.2 220.145h5.253l.45.003.542.004.664.004.786.008.93.008 1.085.012 1.254.015 1.41.016 1.535.02 1.633.019 1.688.02 1.715.019 1.71.02 1.665.019 1.593.02 1.489.015 1.343.016 1.192.012 1.054.007.934.008.832.004.746.004.684.004h.636l.61.004h5.691" fill="none" stroke-width="1.25" stroke-linecap="square" stroke="#aaa" stroke-miterlimit="3.25"/><path d="M496.324 212.926v15h-45v-15zm0 0" fill="#fff" fill-opacity=".667"/><use xlink:href="#c" x="453.823" y="222.925"/><use xlink:href="#d" x="463.823" y="222.925"/><use xlink:href="#r" x="473.823" y="222.925"/><use xlink:href="#s" x="483.823" y="222.925"/><path d="M362.285 194.512l8.469 94.281 8.465 78.8 8.465 80.677 8.464 81.757 8.47 82.453v-814.218l-8.47 77.968-8.464 77.403-8.465 76.289-8.465 74.66zm0 0" fill="gray" fill-opacity=".05"/><path d="M362.285 195.293l8.469 93.98 8.465 78.575 8.465 80.418 8.464 81.53 8.47 82.208v-815.938l-8.47 78.606-8.464 78.008-8.465 76.898-8.465 75.195zm0 0" fill="gray" fill-opacity=".05"/><path d="M362.285 218.824l8.469.63 16.93 1.062 8.464.543 8.47.543v-5.258l-8.47.48-16.93.953-8.464.461zm0 0" fill="gray" fill-opacity=".05"/><path d="M362.285 218.797l8.469.48 8.465.418 8.465.422 8.464.43 8.47.433v-3.566l-8.47.266-8.464.261-8.465.266-8.465.254zm0 0" fill="gray" fill-opacity=".05"/><path d="M362.285 218.852l8.469.71 8.465.551 8.465.555 8.464.547 8.47.555v-5.704l-8.47.528-8.464.527-8.465.524-8.465.53zm0 0" fill="gray" fill-opacity=".05"/><path d="M362.285 218.852l8.469.375 8.465.312 16.93.656 8.468.34v-3.305l-8.469.325-8.464.324-8.465.312-8.465.305zm0 0" fill="gray" fill-opacity=".05"/><path d="M362.285 218.813l8.469.437 16.93.781 8.464.399 8.47.402v-3.45l-8.47.274-16.93.547-8.464.262zm0 0" fill="gray" fill-opacity=".05"/><path d="M362.285 218.852l8.469.421 8.465.348 16.93.703 8.468.356v-3.352l-8.469.293-8.464.29-8.465.292-8.465.285zm0 0" fill="gray" fill-opacity=".05"/><path d="M362.285 218.84l8.469.168 8.465.129 16.93.273 8.468.137v-1.008l-8.469.059-8.464.058-8.465.055-8.465.062zm0 0" fill="gray" fill-opacity=".05"/><path d="M362.285 218.84l8.469.316 8.465.246 8.465.254 8.464.25 8.47.254v-2.394l-8.47.207-8.464.207-8.465.203-8.465.21zm0 0" fill="gray" fill-opacity=".05"/><path d="M362.285 218.852l8.469.214 8.465.18 16.93.383 8.468.195v-1.73l-8.469.152-8.464.149-16.93.289zm0 0" fill="gray" fill-opacity=".05"/><path d="M362.285 218.086l8.469 2.203 8.465 1.777 16.93 3.57 8.468 1.798v-14.579l-8.469.942-8.464.953-8.465.96-8.465.99zm0 0" fill="gray" fill-opacity=".05"/><path d="M412.2 231.52H33m0 0V4m0 0h379.2m0 0v227.52" fill="none" stroke-width=".5" stroke-linecap="square" stroke="#666" stroke-miterlimit="3.25"/><path d="M57.516 231.52v-5.266" fill="none" stroke-width=".5" stroke="#666" stroke-miterlimit="3.25"/><g fill="#666"><use xlink:href="#t" x="43.016" y="243.52"/><use xlink:href="#u" x="48.533" y="243.52"/><use xlink:href="#v" x="53.973" y="243.52"/></g><g fill="#666"><use xlink:href="#w" x="61.016" y="243.52"/><use xlink:href="#x" x="66.631" y="243.52"/></g><path d="M176.04 231.52v-5.266" fill="none" stroke-width=".5" stroke="#666" stroke-miterlimit="3.25"/><g fill="#666"><use xlink:href="#t" x="161.538" y="243.52"/><use xlink:href="#u" x="167.055" y="243.52"/><use xlink:href="#v" x="172.495" y="243.52"/></g><g fill="#666"><use xlink:href="#y" x="179.538" y="243.52"/><use xlink:href="#z" x="185.153" y="243.52"/></g><path d="M294.559 231.52v-5.266" fill="none" stroke-width=".5" stroke="#666" stroke-miterlimit="3.25"/><g fill="#666"><use xlink:href="#A" x="280.06" y="243.52"/><use xlink:href="#B" x="285.587" y="243.52"/><use xlink:href="#C" x="290.885" y="243.52"/></g><g fill="#666"><use xlink:href="#w" x="298.06" y="243.52"/><use xlink:href="#D" x="303.675" y="243.52"/></g><path d="M33 218.867h4" fill="none" stroke-width=".5" stroke="#666" stroke-miterlimit="3.25"/><use xlink:href="#D" x="24" y="221.367" fill="#666"/><path d="M33 204.941h2.398M33 191.02h2.398M33 177.094h2.398M33 163.168h2.398M33 149.246h4" fill="none" stroke-width=".5" stroke="#666" stroke-miterlimit="3.25"/><g fill="#666"><use xlink:href="#E" x="8" y="151.745"/><use xlink:href="#D" x="13.615" y="151.745"/><use xlink:href="#D" x="19.23" y="151.745"/><use xlink:href="#D" x="24.846" y="151.745"/></g><path d="M33 135.32h2.398M33 121.395h2.398M33 107.473h2.398M33 93.547h2.398M33 79.621h4" fill="none" stroke-width=".5" stroke="#666" stroke-miterlimit="3.25"/><g fill="#666"><use xlink:href="#w" y="82.122"/><use xlink:href="#D" x="5.615" y="82.122"/></g><g fill="#666"><use xlink:href="#D" x="12.686" y="82.122"/><use xlink:href="#D" x="18.301" y="82.122"/><use xlink:href="#D" x="23.916" y="82.122"/></g><path d="M33 65.7h2.398M33 51.773h2.398M33 37.848h2.398M33 23.926h2.398M33 10h4" fill="none" stroke-width=".5" stroke="#666" stroke-miterlimit="3.25"/><g fill="#666"><use xlink:href="#w" y="12.5"/><use xlink:href="#E" x="5.615" y="12.5"/></g><g fill="#666"><use xlink:href="#D" x="12.686" y="12.5"/><use xlink:href="#D" x="18.301" y="12.5"/><use xlink:href="#D" x="23.916" y="12.5"/></g><path d="M57.516 4v5.266M176.04 4v5.266M294.559 4v5.266M412.2 218.867h-4m4-13.926h-2.4m2.4-13.921h-2.4m2.4-13.926h-2.4m2.4-13.926h-2.4m2.4-13.922h-4m4-13.926h-2.4m2.4-13.925h-2.4m2.4-13.922h-2.4m2.4-13.926h-2.4m2.4-13.926h-4m4-13.921h-2.4m2.4-13.927h-2.4m2.4-13.925h-2.4m2.4-13.922h-2.4M412.2 10h-4" fill="none" stroke-width=".5" stroke="#666" stroke-miterlimit="3.25"/></svg>