<svg xmlns="http://www.w3.org/2000/svg" xmlns:xlink="http://www.w3.org/1999/xlink" width="500pt" height="260pt" viewBox="0 0 500 260"><defs><symbol overflow="visible" id="a"><path d="M1.766-.766h3.37V0H.825v-7.11h.942zm0 0"/></symbol><symbol overflow="visible" id="b"><path d="M.445-2.691c0-.516.102-.98.305-1.395a2.25 2.25 0 01.848-.957c.363-.227.777-.34 1.246-.34.719 0 1.3.25 1.742.75.445.496.668 1.16.668 1.985v.066c0 .512-.098.977-.297 1.383a2.24 2.24 0 01-.844.957 2.35 2.35 0 01-1.261.34c-.715 0-1.297-.25-1.743-.746-.445-.5-.664-1.157-.664-1.977zm.907.109c0 .586.136 1.055.41 1.41.27.356.633.531 1.09.531.46 0 .824-.18 1.093-.539.27-.36.407-.863.407-1.511 0-.579-.137-1.047-.415-1.407a1.312 1.312 0 00-1.093-.543c-.446 0-.809.18-1.082.536-.274.355-.41.863-.41 1.523zm0 0"/></symbol><symbol overflow="visible" id="c"><path d="M.469-2.688c0-.82.191-1.476.57-1.964.383-.485.887-.73 1.516-.73.644 0 1.148.23 1.507.687l.043-.586h.825v5.156c0 .684-.2 1.219-.606 1.613-.406.395-.949.59-1.633.59a2.71 2.71 0 01-1.12-.242c-.364-.164-.641-.387-.833-.668l.469-.543c.387.477.86.719 1.418.719.441 0 .785-.125 1.031-.371.246-.246.367-.598.367-1.047v-.453c-.359.418-.855.625-1.48.625-.617 0-1.117-.25-1.5-.746-.383-.5-.574-1.18-.574-2.04zm.906.106c0 .594.125 1.062.367 1.402.246.34.586.512 1.028.512.57 0 .988-.262 1.253-.777V-3.86c-.277-.504-.691-.754-1.246-.754-.437 0-.78.168-1.027.511-.25.344-.375.848-.375 1.52zm0 0"/></symbol><symbol overflow="visible" id="d"><path d="M1.664 0H.762v-5.281h.902zM.688-6.684c0-.148.046-.27.136-.37.09-.102.223-.153.395-.153.176 0 .312.05.402.152.09.102.137.223.137.371 0 .145-.047.27-.137.364-.09.097-.223.148-.402.148-.176 0-.305-.047-.395-.148a.518.518 0 01-.136-.364zm0 0"/></symbol><symbol overflow="visible" id="e"><path d="M3.758-1.402a.659.659 0 00-.274-.567c-.183-.136-.504-.254-.96-.351-.458-.098-.82-.215-1.09-.352-.27-.137-.47-.297-.598-.488a1.161 1.161 0 01-.191-.672c0-.434.183-.8.55-1.098.367-.3.832-.453 1.403-.453.597 0 1.086.156 1.457.465.375.309.558.707.558 1.188h-.906c0-.247-.105-.461-.316-.641-.211-.18-.473-.27-.793-.27-.328 0-.586.075-.77.22a.666.666 0 00-.281.558c0 .218.086.383.258.496.172.11.484.215.937.316.45.102.817.219 1.094.36.281.14.488.308.625.507.133.196.203.434.203.72 0 .472-.191.85-.566 1.136-.38.285-.868.426-1.473.426-.422 0-.797-.075-1.121-.223a1.852 1.852 0 01-.766-.629 1.513 1.513 0 01-.273-.871h.902a.93.93 0 00.363.719c.227.18.528.265.895.265.344 0 .617-.066.824-.207a.635.635 0 00.309-.554zm0 0"/></symbol><symbol overflow="visible" id="f"><path d="M1.91-6.563v1.282h.985v.695H1.91v3.277c0 .211.043.371.13.477.089.105.237.16.452.16.102 0 .246-.023.43-.062V0a2.573 2.573 0 01-.695.098c-.403 0-.707-.121-.914-.368-.204-.242-.305-.59-.305-1.039v-3.277H.043v-.695h.965v-1.282zm0 0"/></symbol><symbol overflow="visible" id="g"><path d="M2.805-.64a1.3 1.3 0 00.843-.294 1.01 1.01 0 00.399-.73h.855c-.015.3-.12.59-.312.863a2.03 2.03 0 01-.77.653 2.2 2.2 0 01-1.015.246c-.72 0-1.293-.239-1.72-.72C.66-1.101.45-1.757.45-2.593v-.148c0-.516.094-.973.285-1.375.188-.399.457-.711.813-.93.351-.223.77-.336 1.25-.336.594 0 1.086.18 1.476.535.395.356.602.817.63 1.38h-.856a1.238 1.238 0 00-.387-.84 1.217 1.217 0 00-.863-.333c-.457 0-.813.168-1.067.496-.253.332-.378.81-.378 1.434v.172c0 .61.125 1.078.375 1.406.25.328.609.492 1.078.492zm0 0"/></symbol><symbol overflow="visible" id="h"><path d="M4.844-3.285H1.762v2.52h3.582V0H.824v-7.11h4.469v.774H1.762v2.281h3.082zm0 0"/></symbol><symbol overflow="visible" id="i"><path d="M2.457-3.355l1.172-1.926h1.055l-1.73 2.61L4.733 0H3.691L2.47-1.977 1.25 0H.2l1.784-2.672-1.73-2.61h1.043zm0 0"/></symbol><symbol overflow="visible" id="j"><path d="M5.148-2.582c0 .805-.187 1.45-.554 1.941-.367.493-.864.739-1.492.739-.641 0-1.149-.203-1.516-.61v2.543H.684V-5.28h.824l.047.586c.367-.457.875-.688 1.53-.688.634 0 1.138.242 1.509.719.367.48.554 1.144.554 2zm-.906-.106c0-.593-.125-1.062-.379-1.41-.254-.343-.601-.515-1.047-.515-.546 0-.957.242-1.23.726v2.524c.27.48.684.722 1.242.722.434 0 .777-.171 1.031-.515.258-.344.383-.852.383-1.532zm0 0"/></symbol><symbol overflow="visible" id="k"><path d="M5.047-3.031c0 1.058-.18 1.844-.54 2.36-.362.51-.925.769-1.694.769-.758 0-1.32-.25-1.684-.754C.766-1.16.574-1.91.562-2.91v-1.207c0-1.043.18-1.82.54-2.328.363-.508.93-.762 1.703-.762.765 0 1.328.246 1.687.734.36.489.547 1.246.555 2.27zm-.902-1.235c0-.765-.106-1.324-.32-1.675-.216-.348-.555-.524-1.02-.524-.465 0-.801.176-1.012.524-.211.347-.32.882-.328 1.605v1.445c0 .77.113 1.336.336 1.704.222.367.558.546 1.012.546.445 0 .777-.171.992-.515.218-.344.332-.89.34-1.633zm0 0"/></symbol><symbol overflow="visible" id="l"><path d="M1.008-3.563l.36-3.546h3.64v.836H2.133l-.215 1.937a2.32 2.32 0 011.187-.309c.649 0 1.16.215 1.543.645.383.426.57 1.004.57 1.734 0 .735-.195 1.309-.593 1.73-.395.423-.945.634-1.656.634-.63 0-1.14-.176-1.54-.524C1.032-.773.81-1.254.75-1.87h.855c.055.406.2.715.434.922.234.207.547.308.93.308.422 0 .75-.14.988-.43.238-.284.36-.679.36-1.187 0-.472-.13-.855-.387-1.144-.258-.285-.606-.43-1.035-.43-.395 0-.704.086-.926.258l-.242.195zm0 0"/></symbol><symbol overflow="visible" id="m"><path d="M3.559 0h-.907v-6.02l-1.824.668v-.82l2.59-.973h.14zm0 0"/></symbol><symbol overflow="visible" id="n"><path d="M5.25 0H.59v-.648l2.46-2.735c.364-.414.618-.75.755-1.008.14-.257.21-.527.21-.804 0-.371-.113-.676-.34-.914-.222-.239-.523-.356-.898-.356-.449 0-.797.13-1.047.383-.25.254-.37.613-.37 1.066H.452c0-.652.211-1.183.633-1.586.422-.402.984-.605 1.691-.605.66 0 1.184.172 1.567.52.386.347.578.808.578 1.382 0 .703-.445 1.535-1.336 2.5L1.68-.738h3.57zm0 0"/></symbol><symbol overflow="visible" id="o"><path d="M1.906-3.992h.676c.426-.008.762-.121 1.008-.34.242-.219.363-.512.363-.883 0-.832-.414-1.25-1.242-1.25-.39 0-.703.113-.938.336-.23.223-.347.516-.347.887H.523c0-.563.204-1.031.618-1.406.41-.372.933-.559 1.57-.559.672 0 1.195.176 1.578.531.379.356.57.848.57 1.48 0 .31-.101.61-.3.9a1.81 1.81 0 01-.817.648c.39.125.692.328.903.617.214.285.32.636.32 1.047 0 .64-.207 1.144-.625 1.52-.418.374-.957.562-1.625.562s-1.211-.18-1.63-.543c-.417-.36-.624-.836-.624-1.43h.906c0 .375.121.672.367.898.243.227.57.336.98.336.438 0 .77-.113 1-.34.231-.23.349-.554.349-.98 0-.414-.125-.734-.383-.953-.254-.223-.618-.336-1.098-.344h-.676zm0 0"/></symbol><symbol overflow="visible" id="p"><path d="M4.406-2.387h.985v.739h-.985V0h-.91v-1.648H.258v-.536L3.44-7.109h.965zm-3.12 0h2.21v-3.488l-.105.195zm0 0"/></symbol></defs><path d="M111.637 242.559V4m70.683 238.559V4m70.684 238.559V4m70.687 238.559V4m70.684 238.559V4M33 192.238h397.602M33 141.887h397.602M33 91.531h397.602M33 41.18h397.602" fill="none" stroke="#666" stroke-opacity=".5" stroke-dasharray="1,2" stroke-miterlimit="3.25"/><path d="M98.3 242.559l5.044-.223 7.472-.379 8.102-.477 7.562-.507 7.41-.57 8.048-.712 7.503-.765 8.137-.95 7.988-1.078 7.446-1.156 8.082-1.441 7.539-1.543 8.172-1.93 8.02-2.187 7.484-2.344 8.117-2.922 7.574-3.14 7.426-3.52 8.058-4.387 7.52-4.707 8.148-5.871 8-6.66 7.461-7.13 8.094-8.894 7.555-9.543 7.406-10.699 8.035-13.332L313.2 131.2l8.13-17.82 7.589-19.152 7.437-21.48 8.07-26.774 5.946-22.672" fill="none" stroke-width="1.6" stroke-linecap="square" stroke="#a60000" stroke-opacity=".3" stroke-miterlimit="3.25"/><path d="M40.953 242.379h.469l.465-.004h.937l1.875-.004.117-.004h.817l.937-.004 1.875-.004h.508l.508-.004 1.016-.003 2.027-.004h.129l.125-.004h.762l3.046-.012h.239l.234-.004h.477l.945-.004 1.898-.008h.235l.238-.004h.473l.949-.003 1.898-.012h.465l.465-.004.926-.004 1.86-.012h.464l.465-.004.93-.003 1.859-.012h.125l.129-.004h.25l.504-.004 1.008-.004 2.015-.016h.254l.25-.003.508-.004 3.023-.024h.235l.234-.004.473-.004.941-.007 1.88-.016h.116l.121-.004h.235l.468-.004.942-.012 1.883-.015.125-.004h.129l.254-.004.511-.004 3.059-.035h.129l.125-.004.254-.004.511-.004 1.02-.012 2.039-.027.125-.004h.125l.75-.011 1.004-.012 2-.031h.125l.125-.004.25-.004.504-.008 1-.016 2-.035h.117l.117-.004.234-.004.465-.007.934-.016 1.871-.035.113-.004h.118l.234-.004.469-.012 2.8-.058.125-.004h.13l.25-.008.507-.012 1.012-.023 2.027-.047.25-.008.254-.008.508-.011 1.012-.028 2.027-.054.234-.008.239-.008.472-.012.946-.027 1.89-.063.235-.007.238-.004.473-.016.945-.035 1.89-.067.114-.004.117-.003.23-.008.465-.016.926-.035 1.852-.074.117-.004.117-.008.23-.008.465-.02.926-.038 1.852-.082.129-.008.125-.004.25-.012.503-.023 1.004-.051 2.012-.102.125-.004.125-.007.254-.012.5-.027 1.008-.055 2.012-.117.117-.004.351-.024.469-.027.938-.059 1.875-.12.468-.032.473-.031.937-.063 1.875-.136.13-.012.124-.008.762-.058 1.02-.079 2.03-.168.13-.007.129-.012.254-.024.507-.042 1.016-.09 2.035-.188.5-.047.496-.05 1-.098 1.996-.211 3.996-.453.114-.016.117-.015.234-.028 1.395-.176 1.863-.242 3.723-.531.129-.02.125-.02.254-.038.503-.078 1.008-.16 2.024-.329 4.039-.726.117-.02.351-.07.473-.09.942-.183 1.886-.387 3.77-.836.129-.027.125-.032.258-.058.511-.121 1.02-.25 2.043-.516 4.086-1.117.25-.07.25-.075.5-.144 1.004-.301 2.007-.621 4.008-1.336.117-.043.118-.04.234-.085.469-.164.933-.336 1.871-.7 3.743-1.484 8.117-3.64 7.574-3.934 7.426-4.332 8.058-5.172 7.52-5.164 8.148-5.812 8-5.739 7.461-5.21 8.094-5.333 7.555-4.562 7.406-4.012 8.035-3.8.938-.407.937-.398 1.871-.77 3.75-1.457.13-.047.124-.047.254-.093 1.523-.551 2.032-.703 4.066-1.313.117-.035.118-.039.238-.07.476-.145.946-.281 1.898-.543 3.797-1.008.113-.031.117-.027.235-.059.465-.117.93-.227 1.859-.437 3.718-.813.13-.027.124-.024.25-.05.508-.106 1.008-.199 2.016-.387 4.035-.707.12-.02.352-.058.47-.074.945-.152 1.882-.286 3.766-.53.125-.016.129-.02.254-.031.511-.067 1.02-.132 2.043-.247.125-.015.129-.016.254-.027.512-.059 1.019-.117 2.04-.219.124-.015.125-.012.254-.027.5-.051 1-.098 2.004-.191 4.008-.352.117-.008.117-.011.234-.016.465-.039.934-.074 1.871-.14.234-.016.23-.016.47-.035.933-.067 1.871-.125.125-.007.13-.008.25-.016.507-.035 1.012-.063 2.027-.117.129-.008.125-.007.254-.016.508-.027 1.011-.055 2.028-.105.117-.008.117-.004.238-.012 1.418-.07 1.891-.09 3.785-.16.117-.004.114-.004.234-.008.46-.02.93-.035 1.856-.066.113-.004.118-.004.23-.011.465-.016.926-.031 1.855-.059.125-.004.129-.004.25-.008.504-.015 1.004-.031 2.015-.059.125-.004h.125l.25-.008.504-.015 1.008-.028 2.012-.047.234-.007.235-.004 1.406-.035 1.879-.043h.117l.117-.004.235-.004.472-.012.938-.02 1.879-.035.129-.004.132-.003.786-.012 1.046-.02 2.098-.039h.129l.133-.004 1.832-.027.133-.004h.128l.262-.004.528-.008.128-.004h.133l.262-.003.129-.004h.133l.129-.004h.132" fill="none" stroke-width="1.6" stroke-linecap="square" stroke="#0d86a0" stroke-opacity=".3" stroke-miterlimit="3.25"/><path d="M430.602 154.262h25.265" fill="none" stroke-width="4" stroke-linejoin="round" stroke="#fff" stroke-opacity=".667" stroke-miterlimit="3.25"/><path d="M430.602 154.262h25.265" fill="none" stroke-width="1.25" stroke-linecap="square" stroke="#aaa" stroke-miterlimit="3.25"/><path d="M496.867 146.762v15h-41v-15zm0 0" fill="#fff" fill-opacity=".667"/><use xlink:href="#a" x="458.868" y="156.76"/><use xlink:href="#b" x="464.249" y="156.76"/><use xlink:href="#c" x="469.952" y="156.76"/><use xlink:href="#d" x="475.562" y="156.76"/><use xlink:href="#e" x="477.989" y="156.76"/><use xlink:href="#f" x="483.145" y="156.76"/><use xlink:href="#d" x="486.412" y="156.76"/><use xlink:href="#g" x="488.839" y="156.76"/><path d="M358.008 23.3h97.86" fill="none" stroke-width="4" stroke-linejoin="round" stroke="#fff" stroke-opacity=".667" stroke-miterlimit="3.25"/><path d="M358.008 23.3h97.86" fill="none" stroke-width="1.25" stroke-linecap="square" stroke="#aaa" stroke-miterlimit="3.25"/><path d="M477.867 15.8v15h-22v-15zm0 0" fill="#fff" fill-opacity=".667"/><use xlink:href="#h" x="458.868" y="25.8"/><use xlink:href="#i" x="464.551" y="25.8"/><use xlink:href="#j" x="469.507" y="25.8"/><path d="M57.55 242c0-.676-.269-1.324-.745-1.805A2.565 2.565 0 0055 239.45c-.676 0-1.324.27-1.805.746A2.565 2.565 0 0052.45 242c0 .676.27 1.324.746 1.805.48.476 1.13.746 1.805.746.676 0 1.324-.27 1.805-.746.476-.48.746-1.13.746-1.805zm14 0c0-.676-.269-1.324-.745-1.805A2.565 2.565 0 0069 239.45c-.676 0-1.324.27-1.805.746A2.565 2.565 0 0066.45 242c0 .676.27 1.324.746 1.805.48.476 1.13.746 1.805.746.676 0 1.324-.27 1.805-.746.476-.48.746-1.13.746-1.805zm14 0c0-.676-.269-1.324-.745-1.805A2.565 2.565 0 0083 239.45c-.676 0-1.324.27-1.805.746A2.565 2.565 0 0080.45 242c0 .676.27 1.324.746 1.805.48.476 1.13.746 1.805.746.676 0 1.324-.27 1.805-.746.476-.48.746-1.13.746-1.805zm14 0c0-.676-.269-1.324-.745-1.805A2.565 2.565 0 0097 239.45c-.676 0-1.324.27-1.805.746A2.565 2.565 0 0094.45 242c0 .676.27 1.324.746 1.805.48.476 1.13.746 1.805.746.676 0 1.324-.27 1.805-.746.476-.48.746-1.13.746-1.805zm15 0c0-.676-.269-1.324-.745-1.805a2.565 2.565 0 00-1.805-.746c-.676 0-1.324.27-1.805.746a2.565 2.565 0 00-.746 1.805c0 .676.27 1.324.746 1.805.48.476 1.13.746 1.805.746.676 0 1.324-.27 1.805-.746.476-.48.746-1.13.746-1.805zm14-1c0-.676-.269-1.324-.745-1.805a2.565 2.565 0 00-1.805-.746c-.676 0-1.324.27-1.805.746a2.565 2.565 0 00-.746 1.805c0 .676.27 1.324.746 1.805.48.476 1.13.746 1.805.746.676 0 1.324-.27 1.805-.746.476-.48.746-1.13.746-1.805zm14-1c0-.676-.269-1.324-.745-1.805a2.565 2.565 0 00-1.805-.746c-.676 0-1.324.27-1.805.746a2.565 2.565 0 00-.746 1.805c0 .676.27 1.324.746 1.805.48.476 1.13.746 1.805.746.676 0 1.324-.27 1.805-.746.476-.48.746-1.13.746-1.805zm14 0c0-.676-.269-1.324-.745-1.805a2.565 2.565 0 00-1.805-.746c-.676 0-1.324.27-1.805.746a2.565 2.565 0 00-.746 1.805c0 .676.27 1.324.746 1.805.48.476 1.13.746 1.805.746.676 0 1.324-.27 1.805-.746.476-.48.746-1.13.746-1.805zm14-2c0-.676-.269-1.324-.745-1.805a2.565 2.565 0 00-1.805-.746c-.676 0-1.324.27-1.805.746a2.565 2.565 0 00-.746 1.805c0 .676.27 1.324.746 1.805.48.476 1.13.746 1.805.746.676 0 1.324-.27 1.805-.746.476-.48.746-1.13.746-1.805zm14-2c0-.676-.269-1.324-.745-1.805a2.565 2.565 0 00-1.805-.746c-.676 0-1.324.27-1.805.746a2.565 2.565 0 00-.746 1.805c0 .676.27 1.324.746 1.805.48.476 1.13.746 1.805.746.676 0 1.324-.27 1.805-.746.476-.48.746-1.13.746-1.805zm14-3c0-.676-.269-1.324-.745-1.805a2.565 2.565 0 00-1.805-.746c-.676 0-1.324.27-1.805.746a2.565 2.565 0 00-.746 1.805c0 .676.27 1.324.746 1.805.48.476 1.13.746 1.805.746.676 0 1.324-.27 1.805-.746.476-.48.746-1.13.746-1.805zm15-4c0-.676-.269-1.324-.745-1.805a2.565 2.565 0 00-1.805-.746c-.676 0-1.324.27-1.805.746a2.565 2.565 0 00-.746 1.805c0 .676.27 1.324.746 1.805.48.476 1.13.746 1.805.746.676 0 1.324-.27 1.805-.746.476-.48.746-1.13.746-1.805zm14-9c0-.676-.269-1.324-.745-1.805a2.565 2.565 0 00-1.805-.746c-.676 0-1.324.27-1.805.746a2.565 2.565 0 00-.746 1.805c0 .676.27 1.324.746 1.805.48.476 1.13.746 1.805.746.676 0 1.324-.27 1.805-.746.476-.48.746-1.13.746-1.805zm14-7c0-.676-.269-1.324-.745-1.805a2.565 2.565 0 00-1.805-.746c-.676 0-1.324.27-1.805.746a2.565 2.565 0 00-.746 1.805c0 .676.27 1.324.746 1.805.48.476 1.13.746 1.805.746.676 0 1.324-.27 1.805-.746.476-.48.746-1.13.746-1.805zm14-9c0-.676-.269-1.324-.745-1.805a2.565 2.565 0 00-1.805-.746c-.676 0-1.324.27-1.805.746a2.565 2.565 0 00-.746 1.805c0 .676.27 1.324.746 1.805.48.476 1.13.746 1.805.746.676 0 1.324-.27 1.805-.746.476-.48.746-1.13.746-1.805zm14-10c0-.676-.269-1.324-.745-1.805a2.565 2.565 0 00-1.805-.746c-.676 0-1.324.27-1.805.746a2.565 2.565 0 00-.746 1.805c0 .676.27 1.324.746 1.805.48.476 1.13.746 1.805.746.676 0 1.324-.27 1.805-.746.476-.48.746-1.13.746-1.805zm14-11c0-.676-.269-1.324-.745-1.805a2.565 2.565 0 00-1.805-.746c-.676 0-1.324.27-1.805.746a2.565 2.565 0 00-.746 1.805c0 .676.27 1.324.746 1.805.48.476 1.13.746 1.805.746.676 0 1.324-.27 1.805-.746.476-.48.746-1.13.746-1.805zm0 0" fill-rule="evenodd" fill="#c05c20"/><path d="M430.602 242.559H33m0 0V4m0 0h397.602m0 0v238.559" fill="none" stroke-width=".5" stroke-linecap="square" stroke="#666" stroke-miterlimit="3.25"/><path d="M40.953 242.559v-4" fill="none" stroke-width=".5" stroke="#666" stroke-miterlimit="3.25"/><use xlink:href="#k" x="37.952" y="254.56" fill="#666"/><path d="M55.09 242.559v-2.399m14.137 2.399v-2.399m14.136 2.399v-2.399m14.137 2.399v-2.399m14.137 2.399v-4" fill="none" stroke-width=".5" stroke="#666" stroke-miterlimit="3.25"/><use xlink:href="#l" x="108.636" y="254.56" fill="#666"/><path d="M125.773 242.559v-2.399m14.137 2.399v-2.399m14.137 2.399v-2.399m14.137 2.399v-2.399m14.136 2.399v-4" fill="none" stroke-width=".5" stroke="#666" stroke-miterlimit="3.25"/><g fill="#666"><use xlink:href="#m" x="176.821" y="254.56"/><use xlink:href="#k" x="182.436" y="254.56"/></g><path d="M196.457 242.559v-2.399m14.137 2.399v-2.399m14.136 2.399v-2.399m14.137 2.399v-2.399m14.137 2.399v-4" fill="none" stroke-width=".5" stroke="#666" stroke-miterlimit="3.25"/><g fill="#666"><use xlink:href="#m" x="247.505" y="254.56"/><use xlink:href="#l" x="253.121" y="254.56"/></g><path d="M267.14 242.559v-2.399m14.137 2.399v-2.399m14.137 2.399v-2.399m14.141 2.399v-2.399m14.136 2.399v-4" fill="none" stroke-width=".5" stroke="#666" stroke-miterlimit="3.25"/><g fill="#666"><use xlink:href="#n" x="318.19" y="254.56"/><use xlink:href="#k" x="323.805" y="254.56"/></g><path d="M337.828 242.559v-2.399m14.137 2.399v-2.399m14.137 2.399v-2.399m14.136 2.399v-2.399m14.137 2.399v-4" fill="none" stroke-width=".5" stroke="#666" stroke-miterlimit="3.25"/><g fill="#666"><use xlink:href="#n" x="388.874" y="254.56"/><use xlink:href="#l" x="394.489" y="254.56"/></g><path d="M408.512 242.559v-2.399m14.136 2.399v-2.399M33 242.59h4" fill="none" stroke-width=".5" stroke="#666" stroke-miterlimit="3.25"/><use xlink:href="#k" x="24" y="245.09" fill="#666"/><path d="M33 232.52h2.398M33 222.45h2.398M33 212.379h2.398M33 202.309h2.398M33 192.238h4" fill="none" stroke-width=".5" stroke="#666" stroke-miterlimit="3.25"/><g fill="#666"><use xlink:href="#m" y="194.738"/><use xlink:href="#k" x="5.615" y="194.738"/></g><g fill="#666"><use xlink:href="#k" x="12.686" y="194.738"/><use xlink:href="#k" x="18.301" y="194.738"/><use xlink:href="#k" x="23.916" y="194.738"/></g><path d="M33 182.168h2.398M33 172.098h2.398M33 162.027h2.398M33 151.957h2.398M33 141.887h4" fill="none" stroke-width=".5" stroke="#666" stroke-miterlimit="3.25"/><g fill="#666"><use xlink:href="#n" y="144.385"/><use xlink:href="#k" x="5.615" y="144.385"/></g><g fill="#666"><use xlink:href="#k" x="12.686" y="144.385"/><use xlink:href="#k" x="18.301" y="144.385"/><use xlink:href="#k" x="23.916" y="144.385"/></g><path d="M33 131.816h2.398M33 121.742h2.398M33 111.672h2.398M33 101.602h2.398M33 91.531h4" fill="none" stroke-width=".5" stroke="#666" stroke-miterlimit="3.25"/><g fill="#666"><use xlink:href="#o" y="94.033"/><use xlink:href="#k" x="5.615" y="94.033"/></g><g fill="#666"><use xlink:href="#k" x="12.686" y="94.033"/><use xlink:href="#k" x="18.301" y="94.033"/><use xlink:href="#k" x="23.916" y="94.033"/></g><path d="M33 81.46h2.398M33 71.39h2.398M33 61.32h2.398M33 51.25h2.398M33 41.18h4" fill="none" stroke-width=".5" stroke="#666" stroke-miterlimit="3.25"/><g fill="#666"><use xlink:href="#p" y="43.68"/><use xlink:href="#k" x="5.615" y="43.68"/></g><g fill="#666"><use xlink:href="#k" x="12.686" y="43.68"/><use xlink:href="#k" x="18.301" y="43.68"/><use xlink:href="#k" x="23.916" y="43.68"/></g><path d="M33 31.11h2.398M33 21.04h2.398M33 10.969h2.398" fill="none" stroke-width=".5" stroke="#666" stroke-miterlimit="3.25"/><path d="M40.953 4v3.977M111.637 4v3.977M182.32 4v3.977M253.004 4v3.977M323.691 4v3.977M394.375 4v3.977M55.09 4v2.398M69.227 4v2.398M83.363 4v2.398M97.5 4v2.398M125.773 4v2.398M139.91 4v2.398M154.047 4v2.398M168.184 4v2.398M196.457 4v2.398M210.594 4v2.398M224.73 4v2.398M238.867 4v2.398M267.14 4v2.398M281.277 4v2.398M295.414 4v2.398M309.555 4v2.398M337.828 4v2.398M351.965 4v2.398M366.102 4v2.398M380.238 4v2.398M408.512 4v2.398M422.648 4v2.398m7.954 185.84h-3.977m3.977-50.351h-3.977m3.977-50.356h-3.977m3.977-50.351h-3.977m3.977 191.34h-2.403m2.403-10.07h-2.403m2.403-10.071h-2.403m2.403-10.07h-2.403m2.403-20.141h-2.403m2.403-10.07h-2.403m2.403-10.071h-2.403m2.403-10.07h-2.403m2.403-20.141h-2.403m2.403-10.074h-2.403m2.403-10.07h-2.403m2.403-10.07h-2.403m2.403-20.142h-2.403m2.403-10.07h-2.403m2.403-10.07h-2.403m2.403-10.07h-2.403m2.403-20.14h-2.403m2.403-10.07h-2.403m2.403-10.071h-2.403" fill="none" stroke-width=".1" stroke="#666" stroke-miterlimit="3.25"/></svg>