<svg xmlns="http://www.w3.org/2000/svg" xmlns:xlink="http://www.w3.org/1999/xlink" width="500pt" height="253pt" viewBox="0 0 500 253"><defs><symbol overflow="visible" id="a"><path d="M4.738-8.14C3.578-6.88 2.121-5.82.36-4.97l.352.63C2.48-5.23 3.91-6.282 5-7.49c1.18 1.272 2.59 2.3 4.25 3.1l.36-.64a14.128 14.128 0 01-4.348-3.11zM2.211-4.98v.69h2.418v1.74H1.73v.69h2.9v1.848H.839V.7h8.333v-.71h-3.8v-1.85h2.89v-.692h-2.89V-4.29h2.417v-.691zm0 0"/></symbol><symbol overflow="visible" id="b"><path d="M2.52-6.121v.652h2.109v1.438h-1.79v.64h1.79v1.59H2.25v.66h5.512v-.66h-2.39v-1.59H7.16v-.64H5.371V-5.47H7.47v-.652zm6.59-1.59H.89V.98h.731V.55H8.38v.43h.73zM1.62-.129V-7.03h6.76v6.9zm4.93-3.05l-.57.19c.238.329.46.72.66 1.169l.558-.258A6.323 6.323 0 006.55-3.18zm0 0"/></symbol><symbol overflow="visible" id="c"><path d="M7.04-4.73h1.51v1.808H7.04zm1.51-.63H7.04v-1.78h1.51zM7.02-2.28h1.53v2.22c0 .278-.12.43-.35.43-.24 0-.49-.02-.759-.043l.168.64h.79C8.94.969 9.21.7 9.21.173V-7.8H6.379v5.082C6.359-1.422 6.07-.339 5.5.5l.52.46c.59-.839.921-1.92 1-3.241zm-5.9-5.67l-.492.46c.68.5 1.21.977 1.59 1.419l.5-.489A11.92 11.92 0 001.12-7.95zm-.2 2.34l-.491.46c.691.53 1.231 1.03 1.621 1.49l.5-.488c-.44-.48-.991-.973-1.628-1.461zm1.03 2.649A33.47 33.47 0 01.56.58l.652.28c.5-1.12.95-2.308 1.36-3.57zm3.762-.64H4.69V-5.5h1.297v-.648H4.691v-1.73H4v1.73H2.7v.648H4v1.898H2.95V.41h.66v-.59h2.1zM3.61-.801v-2.18h1.46V-.8zm0 0"/></symbol><symbol overflow="visible" id="d"><path d="M3.32-8.14v2.769H.672v.691H3.32v3.211c-.89.418-1.82.739-2.8.957L.69.2c.93-.258 1.809-.57 2.63-.949V.93h.738v-9.07zM8.22.84c.43 0 .73-.121.89-.36.16-.25.262-.96.32-2.128l-.679-.223c-.031 1.02-.09 1.61-.172 1.793C8.48.078 8.32.16 8.102.16h-1.25c-.25 0-.372-.148-.372-.43v-3.84c.93-.32 1.91-.788 2.95-1.421l-.418-.59c-.82.57-1.66 1.012-2.532 1.332v-3.352h-.73v7.98c0 .661.309 1 .941 1zm0 0"/></symbol><symbol overflow="visible" id="e"><path d="M5.262-8.32l-.793.14c.203.32.39.68.55 1.07H1.302v2.93C1.28-2.16.98-.59.42.55l.59.528C1.662-.238 2-1.988 2.04-4.18v-2.242h7.41v-.687H5.81c-.18-.45-.36-.852-.547-1.211zm0 0"/></symbol><symbol overflow="visible" id="f"><path d="M.781-6.96v.698h2.14c-.53 1.024-1.1 1.852-1.71 2.512l.168.629h3.46v3c0 .293-.16.441-.468.441-.3 0-.61-.02-.941-.05l.148.71h1.043c.629 0 .95-.308.95-.921v-3.18h3.148v-.668H5.57v-1.48h-.73v1.48h-2.7a14.36 14.36 0 001.57-2.473h5.42v-.699h-5.1c.16-.367.32-.75.48-1.148l-.71-.16c-.18.46-.36.89-.551 1.308zM2.88-2.329A10.003 10.003 0 01.48-.102L.941.5C1.898-.18 2.72-.98 3.38-1.89zm4.33-.011l-.48.461c.95.86 1.7 1.66 2.238 2.419L9.5.02a16.925 16.925 0 00-2.29-2.36zm0 0"/></symbol><symbol overflow="visible" id="g"><path d="M1.23-8l-.511.488c.601.5 1.062.98 1.402 1.434l.5-.5A11.5 11.5 0 001.231-8zM.988-5.61l-.5.489c.602.5 1.082.98 1.422 1.441l.5-.5c-.379-.48-.86-.949-1.422-1.43zm.793 2.66A36.295 36.295 0 01.578.63l.672.293A42.328 42.328 0 002.41-2.71zm3.68-1.081c-.313.18-.633.351-.95.511v-2.152h.91V-6.3h-.91v-1.84H3.81v1.84H2.74v.63h1.07v2.452c-.368.14-.75.27-1.137.38l.168.69c.32-.113.64-.23.969-.363V-.16c0 .32-.11.48-.329.48C3.238.32 3 .3 2.738.281l.153.63h.808c.54 0 .813-.31.813-.911v-2.82c.316-.149.629-.309.949-.48zm3.578-3.95c-.91.36-1.93.56-3.07.583v3.847c-.047 1.7-.36 3.04-.938 4l.489.52c.699-1.13 1.07-2.64 1.12-4.52v-.71h1.282v5.28h.68v-5.28h.968v-.65H6.64v-1.91c1-.058 1.91-.25 2.731-.55zm0 0"/></symbol><symbol overflow="visible" id="h"><path d="M6.07-6.86v6.79h-3v.69h6.48v-.69H6.782v-6.79h2.43v-.68H3.559v.68zM1.25-7.987L.738-7.5c.762.5 1.364.98 1.801 1.43l.5-.5c-.48-.47-1.078-.942-1.789-1.418zM.988-5.602l-.5.493c.75.507 1.34 1 1.762 1.46l.5-.5A11.644 11.644 0 00.988-5.601zM2.27-2.949A28.672 28.672 0 01.61.6l.66.29a30.8 30.8 0 001.628-3.602zm0 0"/></symbol><symbol overflow="visible" id="i"><path d="M1.18-7.95l-.508.5c.738.528 1.328 1.028 1.75 1.5l.52-.51c-.481-.5-1.063-.99-1.762-1.49zM1-5.5l-.512.488c.703.512 1.242 1 1.633 1.461l.508-.52C2.19-4.55 1.649-5.02 1-5.5zm1.11 2.68A30.368 30.368 0 01.59.68l.719.308A31.023 31.023 0 002.762-2.57zm1.062-4.75v.699h4.887V-.18c0 .34-.16.508-.48.508-.477 0-.99-.02-1.52-.047l.16.688h1.61c.62 0 .94-.328.94-.969v-6.871h.782v-.7zm.437 2.23v3.68H6.75v-3.68zm2.47 3.02h-1.79v-2.371h1.79zm0 0"/></symbol><symbol overflow="visible" id="j"><path d="M.55-7.23v.68h4.04c-.059.331-.13.671-.2 1.01H1.103V.989h.707v-5.847h6.4v4.68c0 .28-.14.429-.422.429L6.86.23l.192.7h.98c.59 0 .89-.32.89-.95v-5.52H5.13c.07-.32.14-.651.2-1.01h4.12v-.68H5.441c.04-.29.07-.59.098-.899l-.73-.101-.118 1zm3.33 2.69l-.64.24c.21.312.39.652.542 1.01H2.68v.63h1.968v1.05H2.36v.641h2.29V.84h.703V-.97h2.296v-.64H5.352v-1.05h2v-.63H6.21c.2-.32.39-.67.57-1.062l-.66-.238c-.18.461-.383.89-.601 1.3h-1.05a7.488 7.488 0 00-.59-1.25zm0 0"/></symbol><symbol overflow="visible" id="k"><path d="M9.148-7.191H5.43a9.89 9.89 0 00-.45-1.059l-.8.14c.172.282.32.579.46.919H.84v2.14h.738v-1.437H8.41v1.449h.738zM.602-4.411v.7h2.41c-.32.55-.66 1.11-1.024 1.672.934.3 1.864.648 2.801 1.05C3.73-.178 2.34.232.641.239l.418.672C2.922.852 4.399.328 5.519-.672A35.405 35.405 0 018.7.988L9.18.36a31.218 31.218 0 00-3.14-1.558c.531-.621 1-1.45 1.41-2.512h1.973v-.7H4.25c.238-.44.488-.91.75-1.41l-.738-.218a62.17 62.17 0 01-.864 1.629zm3.257.7H6.66c-.34.883-.78 1.621-1.32 2.211-.79-.328-1.559-.61-2.32-.828.261-.402.539-.863.84-1.383zm0 0"/></symbol><symbol overflow="visible" id="l"><path d="M2.27-8.2c-.4.93-1.032 1.76-1.9 2.482l.207.68c1.063-.84 1.82-1.8 2.3-2.883zm.28 2.27c-.44 1.121-1.14 2.121-2.109 3l.207.66a9.72 9.72 0 00.993-.968V.988h.68v-5.097c.327-.48.6-1 .82-1.551zm1.962-2.242v1.762h-.684V-7.8h-.566v1.972h3.09v-1.973h-.57v1.39H5.09v-1.76zM3.109-5.148v.617H6.25c-.07.133-.14.261-.21.383l.358.457c.211-.297.403-.637.57-1.02.122 1.14.36 2.191.723 3.133A5.9 5.9 0 016.641.129c-.18-.399-.38-.777-.582-1.117l-.48.226c.21.371.41.793.6 1.262L6.41.39l.36.56c.5-.49.92-1.08 1.26-1.77.31.64.701 1.23 1.17 1.76l.45-.52a7.733 7.733 0 01-1.297-2.01c.43-1.2.668-2.641.707-4.34h.39v-.65H7.59c.11-.452.2-.94.282-1.46l-.66-.121c-.18 1.45-.492 2.648-.941 3.59v-.578zm4.301-.743c0-.007 0-.02.012-.039H8.46C8.43-4.62 8.28-3.469 8-2.48c-.34-1-.531-2.141-.59-3.41zM3.46-.898A5.217 5.217 0 012.673.328l.469.344c.308-.383.578-.82.808-1.332zM5.98-2.73l-.511.171c.101.16.203.34.3.54-.597.097-1.199.18-1.789.238.801-.52 1.5-1.117 2.098-1.778l-.558-.21c-.141.16-.29.32-.45.48-.41.039-.82.07-1.218.098.418-.32.796-.68 1.136-1.09L4.441-4.5a7.02 7.02 0 01-1.41 1.352l.13.457c.46-.02.917-.059 1.39-.118-.473.399-.98.77-1.54 1.11l.13.488c.46-.039.93-.09 1.41-.148V.12c0 .16-.082.25-.223.25-.18 0-.367-.02-.558-.043l.128.594h.641c.422 0 .64-.223.64-.64v-1.743l.79-.148c.07.14.14.289.203.449l.5-.219c-.203-.48-.434-.93-.692-1.351zm0 0"/></symbol><symbol overflow="visible" id="m"><path d="M.54-7.738v.699h2.98v1.527H1.14V.941h.72V.488h6.3v.453h.719v-6.453H6.44v-1.527h3.02v-.7zM1.86-.191v-4.637h1.66v.2C3.5-3.27 3-2.282 2.02-1.66l.558.488C3.66-1.898 4.211-3.05 4.23-4.629v-.2h1.5v2.067c0 .653.32.98.98.98h1.45v1.59zM4.23-7.04h1.5v1.527h-1.5zm2.211 2.21h1.72v2.388H6.897c-.308 0-.457-.16-.457-.47zm0 0"/></symbol><symbol overflow="visible" id="n"><path d="M8.3-3.27l-.562.348c.563.863 1.012 1.652 1.34 2.363l.55-.402c-.308-.66-.75-1.43-1.327-2.309zm-6.421.098c-.3.82-.738 1.48-1.34 1.98l.54.473c.6-.5 1.081-1.242 1.44-2.203zm2.3-2.45v.95H1.43v.703h2.712c-.082.98-.29 1.797-.653 2.48-.457.778-1.277 1.4-2.457 1.88l.399.64C2.64.551 3.512-.12 4.05-.98c.462-.782.731-1.77.829-2.989H6.94c-.05 1.719-.152 2.848-.3 3.367-.153.512-.461.774-.93.774-.402 0-.82-.012-1.262-.024l.192.68h1.418c.46-.027.793-.2 1.011-.508.2-.32.352-.898.45-1.718.082-.84.128-1.93.171-3.274H4.92v-.95zM.65-7.108v.687h2.26v.902h.73v-.902h2.622v.91h.726v-.91h2.364v-.687H6.988v-1.02h-.726v1.02H3.64v-1.02h-.73v1.02zm0 0"/></symbol><symbol overflow="visible" id="o"><path d="M1.54-5.23v3.32h3.089v.691h-3.55v.578h3.55v.75H.579v.63h8.843v-.63h-4.07v-.75H8.93v-.578H5.352v-.691h3.097v-3.32H5.352v-.641h3.93v-.617h-3.93v-.762A73.97 73.97 0 008.46-7.5l-.223-.602c-1.988.223-4.289.372-6.886.454l.117.59c1.101-.044 2.152-.09 3.16-.153v.723H.719v.617h3.91v.64zm6.21 2.742H5.352v-.813H7.75zm-3.121 0H2.23v-.813h2.4zM2.23-3.86v-.79h2.4v.79zm3.122-.79H7.75v.79H5.352zm0 0"/></symbol><symbol overflow="visible" id="p"><path d="M2.531-4.129v.668h2.707C4.84-1.879 3.738-.57 1.961.461l.41.59C4.148-.031 5.301-1.38 5.81-3.012c.56 1.684 1.67 3.024 3.31 4l.43-.566C7.93-.5 6.84-1.801 6.289-3.461H9.25v-.668H6.102c-.024-.05-.032-.11-.043-.172.03-.46.05-1 .05-1.62h-.68c0 .28-.007.683-.007 1.202a19.6 19.6 0 01-.05.59zM5.25-8.23l-.79.14c.22.3.411.621.59.98H1.3v2.91C1.27-2.2.96-.628.36.489l.562.5C1.629-.309 2-2.039 2.039-4.199v-2.223h7.41v-.687H5.83a9.055 9.055 0 00-.58-1.121zm0 0"/></symbol><symbol overflow="visible" id="q"><path d="M8.219-6.469V-.55H5.37v-7.558h-.74V-.55H1.77V-6.5h-.718V.8h.719V.14H8.22v.67h.722v-7.28zm0 0"/></symbol><symbol overflow="visible" id="r"><path d="M3.77-7.078l-.598.367C4.05-5.68 4.738-4.75 5.25-3.91l.61-.417c-.481-.781-1.18-1.703-2.09-2.75zM7.21-2.18C7.97-1.129 8.579-.14 9.05.8l.552-.55a22.006 22.006 0 00-2.07-3.121c.058-.149.109-.3.16-.45.417-1.32.628-2.917.628-4.82h-.75c-.011 1.93-.218 3.52-.64 4.77-.551 1.48-1.68 2.7-3.38 3.68l.481.59C5.488.058 6.551-.97 7.211-2.18zM1.29-.14c1.17-.43 2.269-.938 3.288-1.532l-.2-.7c-.769.462-1.538.852-2.32 1.173v-6.68H1.32v6.508c0 .23-.09.41-.27.55zm0 0"/></symbol><symbol overflow="visible" id="s"><path d="M6.36-8.148V.988h.742v-5.316c.578.457 1.27 1.11 2.09 1.93l.437-.66c-.86-.77-1.7-1.462-2.527-2.07v-3.02zM2.32-4.18l-.379.559A7.882 7.882 0 013.52-2.56C2.82-1.48 1.84-.579.59.141l.488.609C3.68-.8 5.141-3.09 5.48-6.121v-.629H3.05c.141-.41.259-.84.36-1.29l-.719-.12c-.402 1.8-1.18 3.238-2.32 4.3l.488.61c.801-.738 1.45-1.672 1.93-2.809h1.98a9.025 9.025 0 01-.917 2.93 8.296 8.296 0 00-1.532-1.05zm0 0"/></symbol><symbol overflow="visible" id="t"><path d="M3.805-7.11h.941v5.036c0 .68-.203 1.21-.613 1.597-.406.383-.953.575-1.633.575-.707 0-1.258-.18-1.648-.543-.395-.36-.594-.867-.594-1.516h.937c0 .406.114.723.336.95.223.23.547.343.969.343.387 0 .7-.121.941-.367.239-.246.36-.586.364-1.028zm0 0"/></symbol><symbol overflow="visible" id="u"><path d="M3.945 0c-.05-.105-.093-.29-.125-.555-.422.434-.922.653-1.507.653-.52 0-.946-.149-1.282-.442a1.438 1.438 0 01-.5-1.12c0-.552.211-.977.63-1.282.417-.305 1.007-.457 1.765-.457h.879v-.414c0-.317-.094-.567-.285-.754-.188-.188-.465-.281-.833-.281-.324 0-.593.082-.812.242-.219.164-.328.36-.328.59H.64c0-.262.093-.516.28-.762.188-.246.442-.441.763-.582.32-.145.671-.219 1.054-.219.61 0 1.086.153 1.434.457.344.305.523.727.535 1.258v2.434c0 .484.063.87.184 1.156V0zm-1.5-.688c.285 0 .555-.074.805-.218a1.35 1.35 0 00.555-.574v-1.083h-.711c-1.106 0-1.656.325-1.656.97 0 .284.093.507.28.663.188.16.43.243.727.243zm0 0"/></symbol><symbol overflow="visible" id="v"><path d="M1.54-5.281l.026.664a1.93 1.93 0 011.582-.766c1.118 0 1.68.633 1.692 1.89V0h-.902v-3.496c-.004-.379-.094-.664-.262-.844-.172-.183-.438-.273-.801-.273-.293 0-.55.078-.77.234a1.59 1.59 0 00-.52.613V0h-.9v-5.281zm0 0"/></symbol><symbol overflow="visible" id="w"><path d="M3.559 0h-.907v-6.02l-1.824.668v-.82l2.59-.973h.14zm0 0"/></symbol><symbol overflow="visible" id="x"><path d="M1.906-3.992h.676c.426-.008.762-.121 1.008-.34.242-.219.363-.512.363-.883 0-.832-.414-1.25-1.242-1.25-.39 0-.703.113-.938.336-.23.223-.347.516-.347.887H.523c0-.563.204-1.031.618-1.406.41-.372.933-.559 1.57-.559.672 0 1.195.176 1.578.531.379.356.57.848.57 1.48 0 .31-.101.61-.3.9a1.81 1.81 0 01-.817.648c.39.125.692.328.903.617.214.285.32.636.32 1.047 0 .64-.207 1.144-.625 1.52-.418.374-.957.562-1.625.562s-1.211-.18-1.63-.543c-.417-.36-.624-.836-.624-1.43h.906c0 .375.121.672.367.898.243.227.57.336.98.336.438 0 .77-.113 1-.34.231-.23.349-.554.349-.98 0-.414-.125-.734-.383-.953-.254-.223-.618-.336-1.098-.344h-.676zm0 0"/></symbol><symbol overflow="visible" id="y"><path d="M5.25 0H.59v-.648l2.46-2.735c.364-.414.618-.75.755-1.008.14-.257.21-.527.21-.804 0-.371-.113-.676-.34-.914-.222-.239-.523-.356-.898-.356-.449 0-.797.13-1.047.383-.25.254-.37.613-.37 1.066H.452c0-.652.211-1.183.633-1.586.422-.402.984-.605 1.691-.605.66 0 1.184.172 1.567.52.386.347.578.808.578 1.382 0 .703-.445 1.535-1.336 2.5L1.68-.738h3.57zm0 0"/></symbol><symbol overflow="visible" id="z"><path d="M5.047-3.031c0 1.058-.18 1.844-.54 2.36-.362.51-.925.769-1.694.769-.758 0-1.32-.25-1.684-.754C.766-1.16.574-1.91.562-2.91v-1.207c0-1.043.18-1.82.54-2.328.363-.508.93-.762 1.703-.762.765 0 1.328.246 1.687.734.36.489.547 1.246.555 2.27zm-.902-1.235c0-.765-.106-1.324-.32-1.675-.216-.348-.555-.524-1.02-.524-.465 0-.801.176-1.012.524-.211.347-.32.882-.328 1.605v1.445c0 .77.113 1.336.336 1.704.222.367.558.546 1.012.546.445 0 .777-.171.992-.515.218-.344.332-.89.34-1.633zm0 0"/></symbol><symbol overflow="visible" id="A"><path d="M5.18-6.602L2.234 0H1.29l2.934-6.367H.375v-.742H5.18zm0 0"/></symbol><symbol overflow="visible" id="B"><path d="M4.746-3.14H1.762V0H.824v-7.11H5.23v.774H1.762v2.43h2.984zm0 0"/></symbol><symbol overflow="visible" id="C"><path d="M2.875.098c-.715 0-1.297-.235-1.746-.707-.45-.47-.676-1.098-.676-1.887v-.164c0-.524.102-.992.3-1.406.2-.41.481-.735.84-.965.36-.235.75-.352 1.173-.352.687 0 1.218.227 1.601.68.38.453.57 1.101.57 1.945v.375H1.36c.012.52.164.942.454 1.262.292.32.664.48 1.113.48.316 0 .59-.062.808-.195.223-.129.414-.3.582-.516l.551.43c-.441.68-1.105 1.02-1.992 1.02zm-.11-4.739a1.21 1.21 0 00-.921.399c-.246.265-.399.64-.457 1.117H4.03v-.07c-.023-.457-.148-.813-.367-1.067-.223-.25-.523-.379-.898-.379zm0 0"/></symbol><symbol overflow="visible" id="D"><path d="M5.156-2.582c0 .809-.187 1.453-.554 1.945-.372.489-.872.735-1.497.735-.667 0-1.183-.235-1.546-.707L1.516 0H.684v-7.5h.902v2.797c.367-.453.867-.68 1.508-.68.64 0 1.148.246 1.511.73.368.485.551 1.15.551 1.993zm-.902-.106c0-.613-.121-1.09-.356-1.421-.238-.336-.582-.504-1.027-.504-.598 0-1.023.277-1.285.828V-1.5c.277.555.71.832 1.297.832.43 0 .77-.168 1.008-.504.242-.336.363-.84.363-1.516zm0 0"/></symbol><symbol overflow="visible" id="E"><path d="M3.965-2.148h.887v.664h-.887V0h-.817v-1.484H.234v-.48l2.864-4.434h.867zm-2.809 0h1.992v-3.137l-.097.176zm0 0"/></symbol><symbol overflow="visible" id="F"><path d="M.906-3.207l.324-3.191h3.278v.75H1.922l-.195 1.746a2.081 2.081 0 011.07-.278c.582 0 1.043.192 1.387.578.343.387.515.907.515 1.563 0 .66-.18 1.18-.535 1.559-.355.378-.851.566-1.492.566-.567 0-1.027-.156-1.383-.469-.36-.312-.562-.746-.613-1.3h.77c.05.367.179.644.39.828.21.187.492.28.836.28.379 0 .676-.128.89-.386.215-.258.32-.617.32-1.07 0-.426-.112-.77-.347-1.031-.234-.258-.543-.387-.93-.387-.355 0-.632.078-.835.23l-.215.18zm0 0"/></symbol></defs><path d="M32.742 236.32V4m10.621 232.32V4m10.621 232.32V4m10.621 232.32V4m10.622 232.32V4m10.621 232.32V4m10.617 232.32V4m10.621 232.32V4m10.621 232.32V4m10.621 232.32V4m10.622 232.32V4m10.616 232.32V4m10.622 232.32V4m10.621 232.32V4m10.621 232.32V4m10.62 232.32V4m10.618 232.32V4m10.622 232.32V4m10.62 232.32V4m10.621 232.32V4m10.621 232.32V4m10.618 232.32V4m10.62 232.32V4m10.622 232.32V4m10.621 232.32V4m10.621 232.32V4m10.617 232.32V4m10.621 232.32V4m10.621 232.32V4m10.621 232.32V4m10.621 232.32V4m10.622 232.32V4m10.617 232.32V4m10.621 232.32V4m10.621 232.32V4m10.621 232.32V4M25 220.68h387.2M25 179.074h387.2M25 137.469h387.2M25 95.863h387.2M25 54.258h387.2M25 12.652h387.2" fill="none" stroke="#666" stroke-opacity=".5" stroke-dasharray="1,2" stroke-miterlimit="3.25"/><path d="M351.355 28.004l10.622-1.11 10.617-1.066 10.62-1.039 10.622-1.012 10.621-.98" fill="none" stroke-width="1.6" stroke-linecap="square" stroke="#a60000" stroke-opacity=".3" stroke-miterlimit="3.25"/><path d="M351.355 33.344l10.622-1.305 10.617-1.215 10.62-1.183 10.622-1.137 10.621-1.102" fill="none" stroke-width="1.6" stroke-linecap="square" stroke="#0d86a0" stroke-opacity=".3" stroke-miterlimit="3.25"/><path d="M351.355 92.918l10.622-.434 10.617-.425 10.62-.434 10.622-.438 10.621-.433" fill="none" stroke-width="1.6" stroke-linecap="square" stroke="#c05c20" stroke-opacity=".3" stroke-miterlimit="3.25"/><path d="M351.355 93.863l10.622-.207 10.617-.21 10.62-.216 10.622-.218 10.621-.223" fill="none" stroke-width="1.6" stroke-linecap="square" stroke="#6f42b5" stroke-opacity=".3" stroke-miterlimit="3.25"/><path d="M351.355 94.059l10.622-.52 10.617-.52 31.863-1.57" fill="none" stroke-width="1.6" stroke-linecap="square" stroke="#769003" stroke-opacity=".3" stroke-miterlimit="3.25"/><path d="M351.355 97.527l10.622-.718 10.617-.696 10.62-.691 10.622-.688 10.621-.68" fill="none" stroke-width="1.6" stroke-linecap="square" stroke="#a8364d" stroke-opacity=".3" stroke-miterlimit="3.25"/><path d="M351.355 98.586l10.622-.762 10.617-.722 10.62-.72 10.622-.71 10.621-.703" fill="none" stroke-width="1.6" stroke-linecap="square" stroke="#3664cc" stroke-opacity=".3" stroke-miterlimit="3.25"/><path d="M351.355 99.805l10.622-.711 10.617-.707 10.62-.7 10.622-.695 10.621-.687" fill="none" stroke-width="1.6" stroke-linecap="square" stroke="#c8860a" stroke-opacity=".3" stroke-miterlimit="3.25"/><path d="M351.355 107.852l10.622-.805 10.617-.797 10.62-.79 10.622-.776 10.621-.766" fill="none" stroke-width="1.6" stroke-linecap="square" stroke="#833987" stroke-opacity=".3" stroke-miterlimit="3.25"/><path d="M351.355 108.898l10.622-.718 10.617-.703 10.62-.704 10.622-.691 10.621-.687" fill="none" stroke-width="1.6" stroke-linecap="square" stroke="#1c8f6b" stroke-opacity=".3" stroke-miterlimit="3.25"/><path d="M351.355 108.898l10.622-.992 10.617-.976 10.62-.953 10.622-.934 10.621-.914" fill="none" stroke-width="1.6" stroke-linecap="square" stroke="#a54f05" stroke-opacity=".3" stroke-miterlimit="3.25"/><path d="M351.355 52.672l10.622-.54 10.617-.523 10.62-.515 21.243-1.04" fill="none" stroke-width="1.6" stroke-linecap="square" stroke="#6846c7" stroke-opacity=".3" stroke-miterlimit="3.25"/><path d="M32.742 153.578h42.485l10.62-1.68 10.618-5.793 10.62-12.082 10.622-8.988 10.621-6.867 10.621-7.473 10.617-4.707 10.621-6.758 10.622-7.742 10.62-7.804 10.622-5.977 10.617-9.031 10.621-5.07 10.621-4.622 10.621-4.14 10.621-3.551 10.618-3.59 10.62-3.246 10.622-3.113 10.62-3.149 10.622-2.554 10.617-1.922 10.621-1.871 10.621-1.336 10.621-1.43 10.621-1.078" fill="none" stroke-width="1.6" stroke-linecap="square" stroke="#a60000" stroke-miterlimit="3.25"/><path d="M32.742 153.578h42.485l10.62-1.68 10.618-5.793 10.62-12.082 10.622-8.898 10.621-5.605 10.621-5.934 10.617-3.05 10.621-3.837 10.622-5.125 10.62-6.629 10.622-5.457 10.617-11.668 10.621-4.87 10.621-4.606 10.621-4.262 10.621-3.77 10.618-4.3 10.62-3.766 10.622-3.441 10.62-3.79 10.622-2.98 10.617-2.117 10.621-2.184 10.621-1.492 10.621-1.668 10.621-1.23" fill="none" stroke-width="1.6" stroke-linecap="square" stroke="#0d86a0" stroke-miterlimit="3.25"/><path d="M117.707 220.68l10.621-47.684 10.621-11.187 10.617-3.75 10.621-9.118 10.622-6.984 10.62-4.125 10.622-7.203 10.617-4.566 10.621-4.489 10.621-4.61 10.621-4.226 10.621-5.058 10.618-2.707 10.62-2.223 10.622-2.79 10.62-1.581 10.622-1.477 10.617-1.363 10.621-.984 10.621-.739 10.621-.496 10.621-.402" fill="none" stroke-width="1.6" stroke-linecap="square" stroke="#c05c20" stroke-miterlimit="3.25"/><path d="M138.95 191.598l10.616-12.524 10.621-26.355 10.622-6.614 10.62-9.347 10.622-3.75 10.617-5.446 10.621-9.703 10.621-6.664 10.621-4.097 10.621-1.977 10.618-1.777 10.62-1.645 10.622-2.449 10.62-1.383 10.622-1.152 10.617-.961 10.621-.738 10.621-.461 10.621-.48 10.621-.212" fill="none" stroke-width="1.6" stroke-linecap="square" stroke="#6f42b5" stroke-miterlimit="3.25"/><path d="M138.95 220.68l10.616-29.082 10.621-10.621 10.622-22.918 10.62-17.223 10.622-7.828 10.617-4.914 10.621-3.684 10.621-5.418 10.621-4.262 10.621-3.277 10.618-2.812 10.62-2.493 10.622-3.183 10.62-2.238 10.622-1.95 10.617-1.289 10.621-1.281 10.621-.95 10.621-.683 10.621-.515" fill="none" stroke-width="1.6" stroke-linecap="square" stroke="#769003" stroke-miterlimit="3.25"/><path d="M138.95 220.68l10.616-39.703 10.621-17.723 10.622-10.535 10.62-8.547 10.622-6.703 10.617-6.465 10.621-7.863 10.621-4.082 10.621-3.274 10.621-2.863 10.618-3.145 10.62-2.132 10.622-2.34 10.62-1.961 10.622-1.317 10.617-1.488 10.621-.71 10.621-.774 10.621-.864 10.621-.664" fill="none" stroke-width="1.6" stroke-linecap="square" stroke="#a8364d" stroke-miterlimit="3.25"/><path d="M149.566 220.68l10.621-48.934 10.622-17.266 10.62-7.78 10.622-2.786 10.617-7.5 10.621-6.512 10.621-4.957 10.621-3.07 10.621-4.078 10.618-2.442 10.62-3.293 10.622-2.937 10.62-1.79 10.622-1.968 10.617-2.133 10.621-1.757 10.621-1.102 10.621-1.145 10.621-.644" fill="none" stroke-width="1.6" stroke-linecap="square" stroke="#3664cc" stroke-miterlimit="3.25"/><path d="M138.95 208.156l10.616-7.328 10.621-15.308 10.622-17.067 10.62-12.523 10.622-5.2 10.617-7.328 10.621-7.492 10.621-7.16 10.621-7.023 10.621-3.247 10.618-2.75 10.62-2.945 10.622-3.547 10.62-2.539 10.622-1.636 10.617-1.747 10.621-.984 10.621-1.055 10.621-.761 10.621-.711" fill="none" stroke-width="1.6" stroke-linecap="square" stroke="#c8860a" stroke-miterlimit="3.25"/><path d="M149.566 220.68l10.621-39.703 10.622-12.524 10.62-9.824 10.622-7.52 10.617-7.195 10.621-6.266 10.621-4.78 10.621-4.774 10.621-3.328 10.618-2.813 10.62-2.5 10.622-2.312 10.62-1.84 10.622-1.617 10.617-1.621 10.621-1.325 10.621-1.156 10.621-.902 10.621-.828" fill="none" stroke-width="1.6" stroke-linecap="square" stroke="#833987" stroke-miterlimit="3.25"/><path d="M138.95 191.598l10.616-10.621 10.621-19.852 10.622-13.5 10.62-4.957 10.622-6.922 10.617-3.293 10.621-1.945 10.621-2.09 10.621-4.008 10.621-2.61 10.618-1.737 10.62-2.446 10.622-2.101 10.62-1.493 10.622-1.101 10.617-.992 10.621-.649 10.621-.828 10.621-.871 10.621-.684" fill="none" stroke-width="1.6" stroke-linecap="square" stroke="#1c8f6b" stroke-miterlimit="3.25"/><path d="M138.95 220.68l10.616-32.375 10.621-7.328 10.622-15.309 10.62-11.188 10.622-8.664 10.617-5.832 10.621-5.96 10.621-3.27 10.621-3.703 10.621-2.285 10.618-1.95 10.62-1.613 10.622-1.683 10.62-1.782 10.622-2.543 10.617-1.8 10.621-1.29 10.621-1.203 10.621-.968 10.621-1.036" fill="none" stroke-width="1.6" stroke-linecap="square" stroke="#a54f05" stroke-miterlimit="3.25"/><path d="M117.707 220.68l10.621-55.012 10.621-20.414 10.617-13.207 10.621-15.54 10.622-11.14 10.62-8.445 10.622-6.602 10.617-5.257 10.621-5.176 10.621-4.617 10.621-3.922 10.621-3.211 10.618-2.426 10.62-2.316 10.622-2.465 10.62-1.832 10.622-1.598 10.617-1.414 10.621-1.113 10.621-.93 10.621-.77 10.621-.601" fill="none" stroke-width="1.6" stroke-linecap="square" stroke="#6846c7" stroke-miterlimit="3.25"/><path d="M352.418 28c0-.375-.148-.738-.414-1.004a1.422 1.422 0 00-2.008 0 1.422 1.422 0 000 2.008 1.422 1.422 0 002.008 0c.266-.266.414-.629.414-1.004zm11-1c0-.375-.148-.738-.414-1.004a1.422 1.422 0 00-2.008 0 1.422 1.422 0 000 2.008 1.422 1.422 0 002.008 0c.266-.266.414-.629.414-1.004zm11-1c0-.375-.148-.738-.414-1.004a1.422 1.422 0 00-2.008 0 1.422 1.422 0 000 2.008 1.422 1.422 0 002.008 0c.266-.266.414-.629.414-1.004zm10-1c0-.375-.148-.738-.414-1.004a1.422 1.422 0 00-2.008 0 1.422 1.422 0 000 2.008 1.422 1.422 0 002.008 0c.266-.266.414-.629.414-1.004zm11-1c0-.375-.148-.738-.414-1.004a1.422 1.422 0 00-2.008 0 1.422 1.422 0 000 2.008 1.422 1.422 0 002.008 0c.266-.266.414-.629.414-1.004zm10-1c0-.375-.148-.738-.414-1.004a1.422 1.422 0 00-2.008 0 1.422 1.422 0 000 2.008 1.422 1.422 0 002.008 0c.266-.266.414-.629.414-1.004zm0 0" fill-rule="evenodd" fill="#a60000" fill-opacity=".3"/><path d="M352.418 33c0-.375-.148-.738-.414-1.004a1.422 1.422 0 00-2.008 0 1.422 1.422 0 000 2.008 1.422 1.422 0 002.008 0c.266-.266.414-.629.414-1.004zm11-1c0-.375-.148-.738-.414-1.004a1.422 1.422 0 00-2.008 0 1.422 1.422 0 000 2.008 1.422 1.422 0 002.008 0c.266-.266.414-.629.414-1.004zm11-1c0-.375-.148-.738-.414-1.004a1.422 1.422 0 00-2.008 0 1.422 1.422 0 000 2.008 1.422 1.422 0 002.008 0c.266-.266.414-.629.414-1.004zm10-1c0-.375-.148-.738-.414-1.004a1.422 1.422 0 00-2.008 0 1.422 1.422 0 000 2.008 1.422 1.422 0 002.008 0c.266-.266.414-.629.414-1.004zm11-1c0-.375-.148-.738-.414-1.004a1.422 1.422 0 00-2.008 0 1.422 1.422 0 000 2.008 1.422 1.422 0 002.008 0c.266-.266.414-.629.414-1.004zm10-2c0-.375-.148-.738-.414-1.004a1.422 1.422 0 00-2.008 0 1.422 1.422 0 000 2.008 1.422 1.422 0 002.008 0c.266-.266.414-.629.414-1.004zm0 0" fill-rule="evenodd" fill="#0d86a0" fill-opacity=".3"/><path d="M352.418 93c0-.375-.148-.738-.414-1.004a1.422 1.422 0 00-2.008 0 1.422 1.422 0 000 2.008 1.422 1.422 0 002.008 0c.266-.266.414-.629.414-1.004zm11-1c0-.375-.148-.738-.414-1.004a1.422 1.422 0 00-2.008 0 1.422 1.422 0 000 2.008 1.422 1.422 0 002.008 0c.266-.266.414-.629.414-1.004zm11 0c0-.375-.148-.738-.414-1.004a1.422 1.422 0 00-2.008 0 1.422 1.422 0 000 2.008 1.422 1.422 0 002.008 0c.266-.266.414-.629.414-1.004zm10 0c0-.375-.148-.738-.414-1.004a1.422 1.422 0 00-2.008 0 1.422 1.422 0 000 2.008 1.422 1.422 0 002.008 0c.266-.266.414-.629.414-1.004zm11-1c0-.375-.148-.738-.414-1.004a1.422 1.422 0 00-2.008 0 1.422 1.422 0 000 2.008 1.422 1.422 0 002.008 0c.266-.266.414-.629.414-1.004zm10 0c0-.375-.148-.738-.414-1.004a1.422 1.422 0 00-2.008 0 1.422 1.422 0 000 2.008 1.422 1.422 0 002.008 0c.266-.266.414-.629.414-1.004zm0 0" fill-rule="evenodd" fill="#c05c20" fill-opacity=".3"/><path d="M352.418 94c0-.375-.148-.738-.414-1.004a1.422 1.422 0 00-2.008 0 1.422 1.422 0 000 2.008 1.422 1.422 0 002.008 0c.266-.266.414-.629.414-1.004zm11 0c0-.375-.148-.738-.414-1.004a1.422 1.422 0 00-2.008 0 1.422 1.422 0 000 2.008 1.422 1.422 0 002.008 0c.266-.266.414-.629.414-1.004zm11-1c0-.375-.148-.738-.414-1.004a1.422 1.422 0 00-2.008 0 1.422 1.422 0 000 2.008 1.422 1.422 0 002.008 0c.266-.266.414-.629.414-1.004zm10 0c0-.375-.148-.738-.414-1.004a1.422 1.422 0 00-2.008 0 1.422 1.422 0 000 2.008 1.422 1.422 0 002.008 0c.266-.266.414-.629.414-1.004zm11 0c0-.375-.148-.738-.414-1.004a1.422 1.422 0 00-2.008 0 1.422 1.422 0 000 2.008 1.422 1.422 0 002.008 0c.266-.266.414-.629.414-1.004zm10 0c0-.375-.148-.738-.414-1.004a1.422 1.422 0 00-2.008 0 1.422 1.422 0 000 2.008 1.422 1.422 0 002.008 0c.266-.266.414-.629.414-1.004zm0 0" fill-rule="evenodd" fill="#6f42b5" fill-opacity=".3"/><path d="M352.418 94c0-.375-.148-.738-.414-1.004a1.422 1.422 0 00-2.008 0 1.422 1.422 0 000 2.008 1.422 1.422 0 002.008 0c.266-.266.414-.629.414-1.004zm11 0c0-.375-.148-.738-.414-1.004a1.422 1.422 0 00-2.008 0 1.422 1.422 0 000 2.008 1.422 1.422 0 002.008 0c.266-.266.414-.629.414-1.004zm11-1c0-.375-.148-.738-.414-1.004a1.422 1.422 0 00-2.008 0 1.422 1.422 0 000 2.008 1.422 1.422 0 002.008 0c.266-.266.414-.629.414-1.004zm10-1c0-.375-.148-.738-.414-1.004a1.422 1.422 0 00-2.008 0 1.422 1.422 0 000 2.008 1.422 1.422 0 002.008 0c.266-.266.414-.629.414-1.004zm11 0c0-.375-.148-.738-.414-1.004a1.422 1.422 0 00-2.008 0 1.422 1.422 0 000 2.008 1.422 1.422 0 002.008 0c.266-.266.414-.629.414-1.004zm10-1c0-.375-.148-.738-.414-1.004a1.422 1.422 0 00-2.008 0 1.422 1.422 0 000 2.008 1.422 1.422 0 002.008 0c.266-.266.414-.629.414-1.004zm0 0" fill-rule="evenodd" fill="#769003" fill-opacity=".3"/><path d="M352.418 98c0-.375-.148-.738-.414-1.004a1.422 1.422 0 00-2.008 0 1.422 1.422 0 000 2.008 1.422 1.422 0 002.008 0c.266-.266.414-.629.414-1.004zm11-1c0-.375-.148-.738-.414-1.004a1.422 1.422 0 00-2.008 0 1.422 1.422 0 000 2.008 1.422 1.422 0 002.008 0c.266-.266.414-.629.414-1.004zm11-1c0-.375-.148-.738-.414-1.004a1.422 1.422 0 00-2.008 0 1.422 1.422 0 000 2.008 1.422 1.422 0 002.008 0c.266-.266.414-.629.414-1.004zm10-1c0-.375-.148-.738-.414-1.004a1.422 1.422 0 00-2.008 0 1.422 1.422 0 000 2.008 1.422 1.422 0 002.008 0c.266-.266.414-.629.414-1.004zm11 0c0-.375-.148-.738-.414-1.004a1.422 1.422 0 00-2.008 0 1.422 1.422 0 000 2.008 1.422 1.422 0 002.008 0c.266-.266.414-.629.414-1.004zm10-1c0-.375-.148-.738-.414-1.004a1.422 1.422 0 00-2.008 0 1.422 1.422 0 000 2.008 1.422 1.422 0 002.008 0c.266-.266.414-.629.414-1.004zm0 0" fill-rule="evenodd" fill="#a8364d" fill-opacity=".3"/><path d="M352.418 99c0-.375-.148-.738-.414-1.004a1.422 1.422 0 00-2.008 0 1.422 1.422 0 000 2.008 1.422 1.422 0 002.008 0c.266-.266.414-.629.414-1.004zm11-1c0-.375-.148-.738-.414-1.004a1.422 1.422 0 00-2.008 0 1.422 1.422 0 000 2.008 1.422 1.422 0 002.008 0c.266-.266.414-.629.414-1.004zm11-1c0-.375-.148-.738-.414-1.004a1.422 1.422 0 00-2.008 0 1.422 1.422 0 000 2.008 1.422 1.422 0 002.008 0c.266-.266.414-.629.414-1.004zm10-1c0-.375-.148-.738-.414-1.004a1.422 1.422 0 00-2.008 0 1.422 1.422 0 000 2.008 1.422 1.422 0 002.008 0c.266-.266.414-.629.414-1.004zm11 0c0-.375-.148-.738-.414-1.004a1.422 1.422 0 00-2.008 0 1.422 1.422 0 000 2.008 1.422 1.422 0 002.008 0c.266-.266.414-.629.414-1.004zm10-1c0-.375-.148-.738-.414-1.004a1.422 1.422 0 00-2.008 0 1.422 1.422 0 000 2.008 1.422 1.422 0 002.008 0c.266-.266.414-.629.414-1.004zm0 0" fill-rule="evenodd" fill="#3664cc" fill-opacity=".3"/><path d="M352.418 100c0-.375-.148-.738-.414-1.004a1.422 1.422 0 00-2.008 0 1.422 1.422 0 000 2.008 1.422 1.422 0 002.008 0c.266-.266.414-.629.414-1.004zm11-1c0-.375-.148-.738-.414-1.004a1.422 1.422 0 00-2.008 0 1.422 1.422 0 000 2.008 1.422 1.422 0 002.008 0c.266-.266.414-.629.414-1.004zm11-1c0-.375-.148-.738-.414-1.004a1.422 1.422 0 00-2.008 0 1.422 1.422 0 000 2.008 1.422 1.422 0 002.008 0c.266-.266.414-.629.414-1.004zm10 0c0-.375-.148-.738-.414-1.004a1.422 1.422 0 00-2.008 0 1.422 1.422 0 000 2.008 1.422 1.422 0 002.008 0c.266-.266.414-.629.414-1.004zm11-1c0-.375-.148-.738-.414-1.004a1.422 1.422 0 00-2.008 0 1.422 1.422 0 000 2.008 1.422 1.422 0 002.008 0c.266-.266.414-.629.414-1.004zm10-1c0-.375-.148-.738-.414-1.004a1.422 1.422 0 00-2.008 0 1.422 1.422 0 000 2.008 1.422 1.422 0 002.008 0c.266-.266.414-.629.414-1.004zm0 0" fill-rule="evenodd" fill="#c8860a" fill-opacity=".3"/><path d="M352.418 108c0-.375-.148-.738-.414-1.004a1.422 1.422 0 00-2.008 0 1.422 1.422 0 000 2.008 1.422 1.422 0 002.008 0c.266-.266.414-.629.414-1.004zm11-1c0-.375-.148-.738-.414-1.004a1.422 1.422 0 00-2.008 0 1.422 1.422 0 000 2.008 1.422 1.422 0 002.008 0c.266-.266.414-.629.414-1.004zm11-1c0-.375-.148-.738-.414-1.004a1.422 1.422 0 00-2.008 0 1.422 1.422 0 000 2.008 1.422 1.422 0 002.008 0c.266-.266.414-.629.414-1.004zm10-1c0-.375-.148-.738-.414-1.004a1.422 1.422 0 00-2.008 0 1.422 1.422 0 000 2.008 1.422 1.422 0 002.008 0c.266-.266.414-.629.414-1.004zm11 0c0-.375-.148-.738-.414-1.004a1.422 1.422 0 00-2.008 0 1.422 1.422 0 000 2.008 1.422 1.422 0 002.008 0c.266-.266.414-.629.414-1.004zm10-1c0-.375-.148-.738-.414-1.004a1.422 1.422 0 00-2.008 0 1.422 1.422 0 000 2.008 1.422 1.422 0 002.008 0c.266-.266.414-.629.414-1.004zm0 0" fill-rule="evenodd" fill="#833987" fill-opacity=".3"/><path d="M352.418 109c0-.375-.148-.738-.414-1.004a1.422 1.422 0 00-2.008 0 1.422 1.422 0 000 2.008 1.422 1.422 0 002.008 0c.266-.266.414-.629.414-1.004zm11-1c0-.375-.148-.738-.414-1.004a1.422 1.422 0 00-2.008 0 1.422 1.422 0 000 2.008 1.422 1.422 0 002.008 0c.266-.266.414-.629.414-1.004zm11-1c0-.375-.148-.738-.414-1.004a1.422 1.422 0 00-2.008 0 1.422 1.422 0 000 2.008 1.422 1.422 0 002.008 0c.266-.266.414-.629.414-1.004zm10 0c0-.375-.148-.738-.414-1.004a1.422 1.422 0 00-2.008 0 1.422 1.422 0 000 2.008 1.422 1.422 0 002.008 0c.266-.266.414-.629.414-1.004zm11-1c0-.375-.148-.738-.414-1.004a1.422 1.422 0 00-2.008 0 1.422 1.422 0 000 2.008 1.422 1.422 0 002.008 0c.266-.266.414-.629.414-1.004zm10-1c0-.375-.148-.738-.414-1.004a1.422 1.422 0 00-2.008 0 1.422 1.422 0 000 2.008 1.422 1.422 0 002.008 0c.266-.266.414-.629.414-1.004zm0 0" fill-rule="evenodd" fill="#1c8f6b" fill-opacity=".3"/><path d="M352.418 109c0-.375-.148-.738-.414-1.004a1.422 1.422 0 00-2.008 0 1.422 1.422 0 000 2.008 1.422 1.422 0 002.008 0c.266-.266.414-.629.414-1.004zm11-1c0-.375-.148-.738-.414-1.004a1.422 1.422 0 00-2.008 0 1.422 1.422 0 000 2.008 1.422 1.422 0 002.008 0c.266-.266.414-.629.414-1.004zm11-1c0-.375-.148-.738-.414-1.004a1.422 1.422 0 00-2.008 0 1.422 1.422 0 000 2.008 1.422 1.422 0 002.008 0c.266-.266.414-.629.414-1.004zm10-1c0-.375-.148-.738-.414-1.004a1.422 1.422 0 00-2.008 0 1.422 1.422 0 000 2.008 1.422 1.422 0 002.008 0c.266-.266.414-.629.414-1.004zm11-1c0-.375-.148-.738-.414-1.004a1.422 1.422 0 00-2.008 0 1.422 1.422 0 000 2.008 1.422 1.422 0 002.008 0c.266-.266.414-.629.414-1.004zm10-1c0-.375-.148-.738-.414-1.004a1.422 1.422 0 00-2.008 0 1.422 1.422 0 000 2.008 1.422 1.422 0 002.008 0c.266-.266.414-.629.414-1.004zm0 0" fill-rule="evenodd" fill="#a54f05" fill-opacity=".3"/><path d="M352.418 53c0-.375-.148-.738-.414-1.004a1.422 1.422 0 00-2.008 0 1.422 1.422 0 000 2.008 1.422 1.422 0 002.008 0c.266-.266.414-.629.414-1.004zm11-1c0-.375-.148-.738-.414-1.004a1.422 1.422 0 00-2.008 0 1.422 1.422 0 000 2.008 1.422 1.422 0 002.008 0c.266-.266.414-.629.414-1.004zm11 0c0-.375-.148-.738-.414-1.004a1.422 1.422 0 00-2.008 0 1.422 1.422 0 000 2.008 1.422 1.422 0 002.008 0c.266-.266.414-.629.414-1.004zm10-1c0-.375-.148-.738-.414-1.004a1.422 1.422 0 00-2.008 0 1.422 1.422 0 000 2.008 1.422 1.422 0 002.008 0c.266-.266.414-.629.414-1.004zm11 0c0-.375-.148-.738-.414-1.004a1.422 1.422 0 00-2.008 0 1.422 1.422 0 000 2.008 1.422 1.422 0 002.008 0c.266-.266.414-.629.414-1.004zm10-1c0-.375-.148-.738-.414-1.004a1.422 1.422 0 00-2.008 0 1.422 1.422 0 000 2.008 1.422 1.422 0 002.008 0c.266-.266.414-.629.414-1.004zm0 0" fill-rule="evenodd" fill="#6846c7" fill-opacity=".3"/><path d="M34.418 154c0-.375-.148-.738-.414-1.004a1.422 1.422 0 00-2.008 0 1.422 1.422 0 000 2.008 1.422 1.422 0 002.008 0c.266-.266.414-.629.414-1.004zm10 0c0-.375-.148-.738-.414-1.004a1.422 1.422 0 00-2.008 0 1.422 1.422 0 000 2.008 1.422 1.422 0 002.008 0c.266-.266.414-.629.414-1.004zm11 0c0-.375-.148-.738-.414-1.004a1.422 1.422 0 00-2.008 0 1.422 1.422 0 000 2.008 1.422 1.422 0 002.008 0c.266-.266.414-.629.414-1.004zm11 0c0-.375-.148-.738-.414-1.004a1.422 1.422 0 00-2.008 0 1.422 1.422 0 000 2.008 1.422 1.422 0 002.008 0c.266-.266.414-.629.414-1.004zm10 0c0-.375-.148-.738-.414-1.004a1.422 1.422 0 00-2.008 0 1.422 1.422 0 000 2.008 1.422 1.422 0 002.008 0c.266-.266.414-.629.414-1.004zm11-2c0-.375-.148-.738-.414-1.004a1.422 1.422 0 00-2.008 0 1.422 1.422 0 000 2.008 1.422 1.422 0 002.008 0c.266-.266.414-.629.414-1.004zm10-6c0-.375-.148-.738-.414-1.004a1.422 1.422 0 00-2.008 0 1.422 1.422 0 000 2.008 1.422 1.422 0 002.008 0c.266-.266.414-.629.414-1.004zm11-12c0-.375-.148-.738-.414-1.004a1.422 1.422 0 00-2.008 0 1.422 1.422 0 000 2.008 1.422 1.422 0 002.008 0c.266-.266.414-.629.414-1.004zm11-9c0-.375-.148-.738-.414-1.004a1.422 1.422 0 00-2.008 0 1.422 1.422 0 000 2.008 1.422 1.422 0 002.008 0c.266-.266.414-.629.414-1.004zm10-7c0-.375-.148-.738-.414-1.004a1.422 1.422 0 00-2.008 0 1.422 1.422 0 000 2.008 1.422 1.422 0 002.008 0c.266-.266.414-.629.414-1.004zm11-7c0-.375-.148-.738-.414-1.004a1.422 1.422 0 00-2.008 0 1.422 1.422 0 000 2.008 1.422 1.422 0 002.008 0c.266-.266.414-.629.414-1.004zm11-5c0-.375-.148-.738-.414-1.004a1.422 1.422 0 00-2.008 0 1.422 1.422 0 000 2.008 1.422 1.422 0 002.008 0c.266-.266.414-.629.414-1.004zm10-7c0-.375-.148-.738-.414-1.004a1.422 1.422 0 00-2.008 0 1.422 1.422 0 000 2.008 1.422 1.422 0 002.008 0c.266-.266.414-.629.414-1.004zm11-8c0-.375-.148-.738-.414-1.004a1.422 1.422 0 00-2.008 0 1.422 1.422 0 000 2.008 1.422 1.422 0 002.008 0c.266-.266.414-.629.414-1.004zm10-7c0-.375-.148-.738-.414-1.004a1.422 1.422 0 00-2.008 0 1.422 1.422 0 000 2.008 1.422 1.422 0 002.008 0c.266-.266.414-.629.414-1.004zm11-6c0-.375-.148-.738-.414-1.004a1.422 1.422 0 00-2.008 0 1.422 1.422 0 000 2.008 1.422 1.422 0 002.008 0c.266-.266.414-.629.414-1.004zm11-9c0-.375-.148-.738-.414-1.004a1.422 1.422 0 00-2.008 0 1.422 1.422 0 000 2.008 1.422 1.422 0 002.008 0c.266-.266.414-.629.414-1.004zm10-5c0-.375-.148-.738-.414-1.004a1.422 1.422 0 00-2.008 0 1.422 1.422 0 000 2.008 1.422 1.422 0 002.008 0c.266-.266.414-.629.414-1.004zm11-5c0-.375-.148-.738-.414-1.004a1.422 1.422 0 00-2.008 0 1.422 1.422 0 000 2.008 1.422 1.422 0 002.008 0c.266-.266.414-.629.414-1.004zm11-4c0-.375-.148-.738-.414-1.004a1.422 1.422 0 00-2.008 0 1.422 1.422 0 000 2.008 1.422 1.422 0 002.008 0c.266-.266.414-.629.414-1.004zm10-4c0-.375-.148-.738-.414-1.004a1.422 1.422 0 00-2.008 0 1.422 1.422 0 000 2.008 1.422 1.422 0 002.008 0c.266-.266.414-.629.414-1.004zm11-3c0-.375-.148-.738-.414-1.004a1.422 1.422 0 00-2.008 0 1.422 1.422 0 000 2.008 1.422 1.422 0 002.008 0c.266-.266.414-.629.414-1.004zm10-4c0-.375-.148-.738-.414-1.004a1.422 1.422 0 00-2.008 0 1.422 1.422 0 000 2.008 1.422 1.422 0 002.008 0c.266-.266.414-.629.414-1.004zm11-3c0-.375-.148-.738-.414-1.004a1.422 1.422 0 00-2.008 0 1.422 1.422 0 000 2.008 1.422 1.422 0 002.008 0c.266-.266.414-.629.414-1.004zm11-3c0-.375-.148-.738-.414-1.004a1.422 1.422 0 00-2.008 0 1.422 1.422 0 000 2.008 1.422 1.422 0 002.008 0c.266-.266.414-.629.414-1.004zm10-2c0-.375-.148-.738-.414-1.004a1.422 1.422 0 00-2.008 0 1.422 1.422 0 000 2.008 1.422 1.422 0 002.008 0c.266-.266.414-.629.414-1.004zm11-2c0-.375-.148-.738-.414-1.004a1.422 1.422 0 00-2.008 0 1.422 1.422 0 000 2.008 1.422 1.422 0 002.008 0c.266-.266.414-.629.414-1.004zm10-2c0-.375-.148-.738-.414-1.004a1.422 1.422 0 00-2.008 0 1.422 1.422 0 000 2.008 1.422 1.422 0 002.008 0c.266-.266.414-.629.414-1.004zm11-1c0-.375-.148-.738-.414-1.004a1.422 1.422 0 00-2.008 0 1.422 1.422 0 000 2.008 1.422 1.422 0 002.008 0c.266-.266.414-.629.414-1.004zm11-2c0-.375-.148-.738-.414-1.004a1.422 1.422 0 00-2.008 0 1.422 1.422 0 000 2.008 1.422 1.422 0 002.008 0c.266-.266.414-.629.414-1.004zm10-1c0-.375-.148-.738-.414-1.004a1.422 1.422 0 00-2.008 0 1.422 1.422 0 000 2.008 1.422 1.422 0 002.008 0c.266-.266.414-.629.414-1.004zm0 0" fill-rule="evenodd" fill="#a60000"/><path d="M34.418 154c0-.375-.148-.738-.414-1.004a1.422 1.422 0 00-2.008 0 1.422 1.422 0 000 2.008 1.422 1.422 0 002.008 0c.266-.266.414-.629.414-1.004zm10 0c0-.375-.148-.738-.414-1.004a1.422 1.422 0 00-2.008 0 1.422 1.422 0 000 2.008 1.422 1.422 0 002.008 0c.266-.266.414-.629.414-1.004zm11 0c0-.375-.148-.738-.414-1.004a1.422 1.422 0 00-2.008 0 1.422 1.422 0 000 2.008 1.422 1.422 0 002.008 0c.266-.266.414-.629.414-1.004zm11 0c0-.375-.148-.738-.414-1.004a1.422 1.422 0 00-2.008 0 1.422 1.422 0 000 2.008 1.422 1.422 0 002.008 0c.266-.266.414-.629.414-1.004zm10 0c0-.375-.148-.738-.414-1.004a1.422 1.422 0 00-2.008 0 1.422 1.422 0 000 2.008 1.422 1.422 0 002.008 0c.266-.266.414-.629.414-1.004zm11-2c0-.375-.148-.738-.414-1.004a1.422 1.422 0 00-2.008 0 1.422 1.422 0 000 2.008 1.422 1.422 0 002.008 0c.266-.266.414-.629.414-1.004zm10-6c0-.375-.148-.738-.414-1.004a1.422 1.422 0 00-2.008 0 1.422 1.422 0 000 2.008 1.422 1.422 0 002.008 0c.266-.266.414-.629.414-1.004zm11-12c0-.375-.148-.738-.414-1.004a1.422 1.422 0 00-2.008 0 1.422 1.422 0 000 2.008 1.422 1.422 0 002.008 0c.266-.266.414-.629.414-1.004zm11-9c0-.375-.148-.738-.414-1.004a1.422 1.422 0 00-2.008 0 1.422 1.422 0 000 2.008 1.422 1.422 0 002.008 0c.266-.266.414-.629.414-1.004zm10-5c0-.375-.148-.738-.414-1.004a1.422 1.422 0 00-2.008 0 1.422 1.422 0 000 2.008 1.422 1.422 0 002.008 0c.266-.266.414-.629.414-1.004zm11-6c0-.375-.148-.738-.414-1.004a1.422 1.422 0 00-2.008 0 1.422 1.422 0 000 2.008 1.422 1.422 0 002.008 0c.266-.266.414-.629.414-1.004zm11-3c0-.375-.148-.738-.414-1.004a1.422 1.422 0 00-2.008 0 1.422 1.422 0 000 2.008 1.422 1.422 0 002.008 0c.266-.266.414-.629.414-1.004zm10-4c0-.375-.148-.738-.414-1.004a1.422 1.422 0 00-2.008 0 1.422 1.422 0 000 2.008 1.422 1.422 0 002.008 0c.266-.266.414-.629.414-1.004zm11-5c0-.375-.148-.738-.414-1.004a1.422 1.422 0 00-2.008 0 1.422 1.422 0 000 2.008 1.422 1.422 0 002.008 0c.266-.266.414-.629.414-1.004zm10-7c0-.375-.148-.738-.414-1.004a1.422 1.422 0 00-2.008 0 1.422 1.422 0 000 2.008 1.422 1.422 0 002.008 0c.266-.266.414-.629.414-1.004zm11-6c0-.375-.148-.738-.414-1.004a1.422 1.422 0 00-2.008 0 1.422 1.422 0 000 2.008 1.422 1.422 0 002.008 0c.266-.266.414-.629.414-1.004zm11-11c0-.375-.148-.738-.414-1.004a1.422 1.422 0 00-2.008 0 1.422 1.422 0 000 2.008 1.422 1.422 0 002.008 0c.266-.266.414-.629.414-1.004zm10-5c0-.375-.148-.738-.414-1.004a1.422 1.422 0 00-2.008 0 1.422 1.422 0 000 2.008 1.422 1.422 0 002.008 0c.266-.266.414-.629.414-1.004zm11-5c0-.375-.148-.738-.414-1.004a1.422 1.422 0 00-2.008 0 1.422 1.422 0 000 2.008 1.422 1.422 0 002.008 0c.266-.266.414-.629.414-1.004zm11-4c0-.375-.148-.738-.414-1.004a1.422 1.422 0 00-2.008 0 1.422 1.422 0 000 2.008 1.422 1.422 0 002.008 0c.266-.266.414-.629.414-1.004zm10-4c0-.375-.148-.738-.414-1.004a1.422 1.422 0 00-2.008 0 1.422 1.422 0 000 2.008 1.422 1.422 0 002.008 0c.266-.266.414-.629.414-1.004zm11-4c0-.375-.148-.738-.414-1.004a1.422 1.422 0 00-2.008 0 1.422 1.422 0 000 2.008 1.422 1.422 0 002.008 0c.266-.266.414-.629.414-1.004zm10-4c0-.375-.148-.738-.414-1.004a1.422 1.422 0 00-2.008 0 1.422 1.422 0 000 2.008 1.422 1.422 0 002.008 0c.266-.266.414-.629.414-1.004zm11-3c0-.375-.148-.738-.414-1.004a1.422 1.422 0 00-2.008 0 1.422 1.422 0 000 2.008 1.422 1.422 0 002.008 0c.266-.266.414-.629.414-1.004zm11-4c0-.375-.148-.738-.414-1.004a1.422 1.422 0 00-2.008 0 1.422 1.422 0 000 2.008 1.422 1.422 0 002.008 0c.266-.266.414-.629.414-1.004zm10-3c0-.375-.148-.738-.414-1.004a1.422 1.422 0 00-2.008 0 1.422 1.422 0 000 2.008 1.422 1.422 0 002.008 0c.266-.266.414-.629.414-1.004zm11-2c0-.375-.148-.738-.414-1.004a1.422 1.422 0 00-2.008 0 1.422 1.422 0 000 2.008 1.422 1.422 0 002.008 0c.266-.266.414-.629.414-1.004zm10-2c0-.375-.148-.738-.414-1.004a1.422 1.422 0 00-2.008 0 1.422 1.422 0 000 2.008 1.422 1.422 0 002.008 0c.266-.266.414-.629.414-1.004zm11-2c0-.375-.148-.738-.414-1.004a1.422 1.422 0 00-2.008 0 1.422 1.422 0 000 2.008 1.422 1.422 0 002.008 0c.266-.266.414-.629.414-1.004zm11-1c0-.375-.148-.738-.414-1.004a1.422 1.422 0 00-2.008 0 1.422 1.422 0 000 2.008 1.422 1.422 0 002.008 0c.266-.266.414-.629.414-1.004zm10-2c0-.375-.148-.738-.414-1.004a1.422 1.422 0 00-2.008 0 1.422 1.422 0 000 2.008 1.422 1.422 0 002.008 0c.266-.266.414-.629.414-1.004zm0 0" fill-rule="evenodd" fill="#0d86a0"/><path d="M119.418 221c0-.375-.148-.738-.414-1.004a1.422 1.422 0 00-2.008 0 1.422 1.422 0 000 2.008 1.422 1.422 0 002.008 0c.266-.266.414-.629.414-1.004zm10-48c0-.375-.148-.738-.414-1.004a1.422 1.422 0 00-2.008 0 1.422 1.422 0 000 2.008 1.422 1.422 0 002.008 0c.266-.266.414-.629.414-1.004zm11-11c0-.375-.148-.738-.414-1.004a1.422 1.422 0 00-2.008 0 1.422 1.422 0 000 2.008 1.422 1.422 0 002.008 0c.266-.266.414-.629.414-1.004zm11-4c0-.375-.148-.738-.414-1.004a1.422 1.422 0 00-2.008 0 1.422 1.422 0 000 2.008 1.422 1.422 0 002.008 0c.266-.266.414-.629.414-1.004zm10-9c0-.375-.148-.738-.414-1.004a1.422 1.422 0 00-2.008 0 1.422 1.422 0 000 2.008 1.422 1.422 0 002.008 0c.266-.266.414-.629.414-1.004zm11-7c0-.375-.148-.738-.414-1.004a1.422 1.422 0 00-2.008 0 1.422 1.422 0 000 2.008 1.422 1.422 0 002.008 0c.266-.266.414-.629.414-1.004zm10-4c0-.375-.148-.738-.414-1.004a1.422 1.422 0 00-2.008 0 1.422 1.422 0 000 2.008 1.422 1.422 0 002.008 0c.266-.266.414-.629.414-1.004zm11-7c0-.375-.148-.738-.414-1.004a1.422 1.422 0 00-2.008 0 1.422 1.422 0 000 2.008 1.422 1.422 0 002.008 0c.266-.266.414-.629.414-1.004zm11-5c0-.375-.148-.738-.414-1.004a1.422 1.422 0 00-2.008 0 1.422 1.422 0 000 2.008 1.422 1.422 0 002.008 0c.266-.266.414-.629.414-1.004zm10-4c0-.375-.148-.738-.414-1.004a1.422 1.422 0 00-2.008 0 1.422 1.422 0 000 2.008 1.422 1.422 0 002.008 0c.266-.266.414-.629.414-1.004zm11-5c0-.375-.148-.738-.414-1.004a1.422 1.422 0 00-2.008 0 1.422 1.422 0 000 2.008 1.422 1.422 0 002.008 0c.266-.266.414-.629.414-1.004zm11-4c0-.375-.148-.738-.414-1.004a1.422 1.422 0 00-2.008 0 1.422 1.422 0 000 2.008 1.422 1.422 0 002.008 0c.266-.266.414-.629.414-1.004zm10-5c0-.375-.148-.738-.414-1.004a1.422 1.422 0 00-2.008 0 1.422 1.422 0 000 2.008 1.422 1.422 0 002.008 0c.266-.266.414-.629.414-1.004zm11-3c0-.375-.148-.738-.414-1.004a1.422 1.422 0 00-2.008 0 1.422 1.422 0 000 2.008 1.422 1.422 0 002.008 0c.266-.266.414-.629.414-1.004zm10-2c0-.375-.148-.738-.414-1.004a1.422 1.422 0 00-2.008 0 1.422 1.422 0 000 2.008 1.422 1.422 0 002.008 0c.266-.266.414-.629.414-1.004zm11-3c0-.375-.148-.738-.414-1.004a1.422 1.422 0 00-2.008 0 1.422 1.422 0 000 2.008 1.422 1.422 0 002.008 0c.266-.266.414-.629.414-1.004zm11-2c0-.375-.148-.738-.414-1.004a1.422 1.422 0 00-2.008 0 1.422 1.422 0 000 2.008 1.422 1.422 0 002.008 0c.266-.266.414-.629.414-1.004zm10-1c0-.375-.148-.738-.414-1.004a1.422 1.422 0 00-2.008 0 1.422 1.422 0 000 2.008 1.422 1.422 0 002.008 0c.266-.266.414-.629.414-1.004zm11-1c0-.375-.148-.738-.414-1.004a1.422 1.422 0 00-2.008 0 1.422 1.422 0 000 2.008 1.422 1.422 0 002.008 0c.266-.266.414-.629.414-1.004zm10-1c0-.375-.148-.738-.414-1.004a1.422 1.422 0 00-2.008 0 1.422 1.422 0 000 2.008 1.422 1.422 0 002.008 0c.266-.266.414-.629.414-1.004zm11-1c0-.375-.148-.738-.414-1.004a1.422 1.422 0 00-2.008 0 1.422 1.422 0 000 2.008 1.422 1.422 0 002.008 0c.266-.266.414-.629.414-1.004zm11-1c0-.375-.148-.738-.414-1.004a1.422 1.422 0 00-2.008 0 1.422 1.422 0 000 2.008 1.422 1.422 0 002.008 0c.266-.266.414-.629.414-1.004zm10 0c0-.375-.148-.738-.414-1.004a1.422 1.422 0 00-2.008 0 1.422 1.422 0 000 2.008 1.422 1.422 0 002.008 0c.266-.266.414-.629.414-1.004zm0 0" fill-rule="evenodd" fill="#c05c20"/><path d="M140.418 192c0-.375-.148-.738-.414-1.004a1.422 1.422 0 00-2.008 0 1.422 1.422 0 000 2.008 1.422 1.422 0 002.008 0c.266-.266.414-.629.414-1.004zm11-13c0-.375-.148-.738-.414-1.004a1.422 1.422 0 00-2.008 0 1.422 1.422 0 000 2.008 1.422 1.422 0 002.008 0c.266-.266.414-.629.414-1.004zm10-26c0-.375-.148-.738-.414-1.004a1.422 1.422 0 00-2.008 0 1.422 1.422 0 000 2.008 1.422 1.422 0 002.008 0c.266-.266.414-.629.414-1.004zm11-7c0-.375-.148-.738-.414-1.004a1.422 1.422 0 00-2.008 0 1.422 1.422 0 000 2.008 1.422 1.422 0 002.008 0c.266-.266.414-.629.414-1.004zm10-9c0-.375-.148-.738-.414-1.004a1.422 1.422 0 00-2.008 0 1.422 1.422 0 000 2.008 1.422 1.422 0 002.008 0c.266-.266.414-.629.414-1.004zm11-4c0-.375-.148-.738-.414-1.004a1.422 1.422 0 00-2.008 0 1.422 1.422 0 000 2.008 1.422 1.422 0 002.008 0c.266-.266.414-.629.414-1.004zm11-5c0-.375-.148-.738-.414-1.004a1.422 1.422 0 00-2.008 0 1.422 1.422 0 000 2.008 1.422 1.422 0 002.008 0c.266-.266.414-.629.414-1.004zm10-10c0-.375-.148-.738-.414-1.004a1.422 1.422 0 00-2.008 0 1.422 1.422 0 000 2.008 1.422 1.422 0 002.008 0c.266-.266.414-.629.414-1.004zm11-7c0-.375-.148-.738-.414-1.004a1.422 1.422 0 00-2.008 0 1.422 1.422 0 000 2.008 1.422 1.422 0 002.008 0c.266-.266.414-.629.414-1.004zm11-4c0-.375-.148-.738-.414-1.004a1.422 1.422 0 00-2.008 0 1.422 1.422 0 000 2.008 1.422 1.422 0 002.008 0c.266-.266.414-.629.414-1.004zm10-2c0-.375-.148-.738-.414-1.004a1.422 1.422 0 00-2.008 0 1.422 1.422 0 000 2.008 1.422 1.422 0 002.008 0c.266-.266.414-.629.414-1.004zm11-2c0-.375-.148-.738-.414-1.004a1.422 1.422 0 00-2.008 0 1.422 1.422 0 000 2.008 1.422 1.422 0 002.008 0c.266-.266.414-.629.414-1.004zm10-1c0-.375-.148-.738-.414-1.004a1.422 1.422 0 00-2.008 0 1.422 1.422 0 000 2.008 1.422 1.422 0 002.008 0c.266-.266.414-.629.414-1.004zm11-3c0-.375-.148-.738-.414-1.004a1.422 1.422 0 00-2.008 0 1.422 1.422 0 000 2.008 1.422 1.422 0 002.008 0c.266-.266.414-.629.414-1.004zm11-1c0-.375-.148-.738-.414-1.004a1.422 1.422 0 00-2.008 0 1.422 1.422 0 000 2.008 1.422 1.422 0 002.008 0c.266-.266.414-.629.414-1.004zm10-1c0-.375-.148-.738-.414-1.004a1.422 1.422 0 00-2.008 0 1.422 1.422 0 000 2.008 1.422 1.422 0 002.008 0c.266-.266.414-.629.414-1.004zm11-1c0-.375-.148-.738-.414-1.004a1.422 1.422 0 00-2.008 0 1.422 1.422 0 000 2.008 1.422 1.422 0 002.008 0c.266-.266.414-.629.414-1.004zm10-1c0-.375-.148-.738-.414-1.004a1.422 1.422 0 00-2.008 0 1.422 1.422 0 000 2.008 1.422 1.422 0 002.008 0c.266-.266.414-.629.414-1.004zm11 0c0-.375-.148-.738-.414-1.004a1.422 1.422 0 00-2.008 0 1.422 1.422 0 000 2.008 1.422 1.422 0 002.008 0c.266-.266.414-.629.414-1.004zm11-1c0-.375-.148-.738-.414-1.004a1.422 1.422 0 00-2.008 0 1.422 1.422 0 000 2.008 1.422 1.422 0 002.008 0c.266-.266.414-.629.414-1.004zm10 0c0-.375-.148-.738-.414-1.004a1.422 1.422 0 00-2.008 0 1.422 1.422 0 000 2.008 1.422 1.422 0 002.008 0c.266-.266.414-.629.414-1.004zm0 0" fill-rule="evenodd" fill="#6f42b5"/><path d="M140.418 221c0-.375-.148-.738-.414-1.004a1.422 1.422 0 00-2.008 0 1.422 1.422 0 000 2.008 1.422 1.422 0 002.008 0c.266-.266.414-.629.414-1.004zm11-29c0-.375-.148-.738-.414-1.004a1.422 1.422 0 00-2.008 0 1.422 1.422 0 000 2.008 1.422 1.422 0 002.008 0c.266-.266.414-.629.414-1.004zm10-11c0-.375-.148-.738-.414-1.004a1.422 1.422 0 00-2.008 0 1.422 1.422 0 000 2.008 1.422 1.422 0 002.008 0c.266-.266.414-.629.414-1.004zm11-23c0-.375-.148-.738-.414-1.004a1.422 1.422 0 00-2.008 0 1.422 1.422 0 000 2.008 1.422 1.422 0 002.008 0c.266-.266.414-.629.414-1.004zm10-17c0-.375-.148-.738-.414-1.004a1.422 1.422 0 00-2.008 0 1.422 1.422 0 000 2.008 1.422 1.422 0 002.008 0c.266-.266.414-.629.414-1.004zm11-8c0-.375-.148-.738-.414-1.004a1.422 1.422 0 00-2.008 0 1.422 1.422 0 000 2.008 1.422 1.422 0 002.008 0c.266-.266.414-.629.414-1.004zm11-5c0-.375-.148-.738-.414-1.004a1.422 1.422 0 00-2.008 0 1.422 1.422 0 000 2.008 1.422 1.422 0 002.008 0c.266-.266.414-.629.414-1.004zm10-4c0-.375-.148-.738-.414-1.004a1.422 1.422 0 00-2.008 0 1.422 1.422 0 000 2.008 1.422 1.422 0 002.008 0c.266-.266.414-.629.414-1.004zm11-5c0-.375-.148-.738-.414-1.004a1.422 1.422 0 00-2.008 0 1.422 1.422 0 000 2.008 1.422 1.422 0 002.008 0c.266-.266.414-.629.414-1.004zm11-4c0-.375-.148-.738-.414-1.004a1.422 1.422 0 00-2.008 0 1.422 1.422 0 000 2.008 1.422 1.422 0 002.008 0c.266-.266.414-.629.414-1.004zm10-4c0-.375-.148-.738-.414-1.004a1.422 1.422 0 00-2.008 0 1.422 1.422 0 000 2.008 1.422 1.422 0 002.008 0c.266-.266.414-.629.414-1.004zm11-2c0-.375-.148-.738-.414-1.004a1.422 1.422 0 00-2.008 0 1.422 1.422 0 000 2.008 1.422 1.422 0 002.008 0c.266-.266.414-.629.414-1.004zm10-3c0-.375-.148-.738-.414-1.004a1.422 1.422 0 00-2.008 0 1.422 1.422 0 000 2.008 1.422 1.422 0 002.008 0c.266-.266.414-.629.414-1.004zm11-3c0-.375-.148-.738-.414-1.004a1.422 1.422 0 00-2.008 0 1.422 1.422 0 000 2.008 1.422 1.422 0 002.008 0c.266-.266.414-.629.414-1.004zm11-2c0-.375-.148-.738-.414-1.004a1.422 1.422 0 00-2.008 0 1.422 1.422 0 000 2.008 1.422 1.422 0 002.008 0c.266-.266.414-.629.414-1.004zm10-2c0-.375-.148-.738-.414-1.004a1.422 1.422 0 00-2.008 0 1.422 1.422 0 000 2.008 1.422 1.422 0 002.008 0c.266-.266.414-.629.414-1.004zm11-2c0-.375-.148-.738-.414-1.004a1.422 1.422 0 00-2.008 0 1.422 1.422 0 000 2.008 1.422 1.422 0 002.008 0c.266-.266.414-.629.414-1.004zm10-1c0-.375-.148-.738-.414-1.004a1.422 1.422 0 00-2.008 0 1.422 1.422 0 000 2.008 1.422 1.422 0 002.008 0c.266-.266.414-.629.414-1.004zm11-1c0-.375-.148-.738-.414-1.004a1.422 1.422 0 00-2.008 0 1.422 1.422 0 000 2.008 1.422 1.422 0 002.008 0c.266-.266.414-.629.414-1.004zm11 0c0-.375-.148-.738-.414-1.004a1.422 1.422 0 00-2.008 0 1.422 1.422 0 000 2.008 1.422 1.422 0 002.008 0c.266-.266.414-.629.414-1.004zm10-1c0-.375-.148-.738-.414-1.004a1.422 1.422 0 00-2.008 0 1.422 1.422 0 000 2.008 1.422 1.422 0 002.008 0c.266-.266.414-.629.414-1.004zm0 0" fill-rule="evenodd" fill="#769003"/><path d="M140.418 221c0-.375-.148-.738-.414-1.004a1.422 1.422 0 00-2.008 0 1.422 1.422 0 000 2.008 1.422 1.422 0 002.008 0c.266-.266.414-.629.414-1.004zm11-40c0-.375-.148-.738-.414-1.004a1.422 1.422 0 00-2.008 0 1.422 1.422 0 000 2.008 1.422 1.422 0 002.008 0c.266-.266.414-.629.414-1.004zm10-18c0-.375-.148-.738-.414-1.004a1.422 1.422 0 00-2.008 0 1.422 1.422 0 000 2.008 1.422 1.422 0 002.008 0c.266-.266.414-.629.414-1.004zm11-10c0-.375-.148-.738-.414-1.004a1.422 1.422 0 00-2.008 0 1.422 1.422 0 000 2.008 1.422 1.422 0 002.008 0c.266-.266.414-.629.414-1.004zm10-9c0-.375-.148-.738-.414-1.004a1.422 1.422 0 00-2.008 0 1.422 1.422 0 000 2.008 1.422 1.422 0 002.008 0c.266-.266.414-.629.414-1.004zm11-7c0-.375-.148-.738-.414-1.004a1.422 1.422 0 00-2.008 0 1.422 1.422 0 000 2.008 1.422 1.422 0 002.008 0c.266-.266.414-.629.414-1.004zm11-6c0-.375-.148-.738-.414-1.004a1.422 1.422 0 00-2.008 0 1.422 1.422 0 000 2.008 1.422 1.422 0 002.008 0c.266-.266.414-.629.414-1.004zm10-8c0-.375-.148-.738-.414-1.004a1.422 1.422 0 00-2.008 0 1.422 1.422 0 000 2.008 1.422 1.422 0 002.008 0c.266-.266.414-.629.414-1.004zm11-4c0-.375-.148-.738-.414-1.004a1.422 1.422 0 00-2.008 0 1.422 1.422 0 000 2.008 1.422 1.422 0 002.008 0c.266-.266.414-.629.414-1.004zm11-3c0-.375-.148-.738-.414-1.004a1.422 1.422 0 00-2.008 0 1.422 1.422 0 000 2.008 1.422 1.422 0 002.008 0c.266-.266.414-.629.414-1.004zm10-3c0-.375-.148-.738-.414-1.004a1.422 1.422 0 00-2.008 0 1.422 1.422 0 000 2.008 1.422 1.422 0 002.008 0c.266-.266.414-.629.414-1.004zm11-3c0-.375-.148-.738-.414-1.004a1.422 1.422 0 00-2.008 0 1.422 1.422 0 000 2.008 1.422 1.422 0 002.008 0c.266-.266.414-.629.414-1.004zm10-2c0-.375-.148-.738-.414-1.004a1.422 1.422 0 00-2.008 0 1.422 1.422 0 000 2.008 1.422 1.422 0 002.008 0c.266-.266.414-.629.414-1.004zm11-3c0-.375-.148-.738-.414-1.004a1.422 1.422 0 00-2.008 0 1.422 1.422 0 000 2.008 1.422 1.422 0 002.008 0c.266-.266.414-.629.414-1.004zm11-2c0-.375-.148-.738-.414-1.004a1.422 1.422 0 00-2.008 0 1.422 1.422 0 000 2.008 1.422 1.422 0 002.008 0c.266-.266.414-.629.414-1.004zm10-1c0-.375-.148-.738-.414-1.004a1.422 1.422 0 00-2.008 0 1.422 1.422 0 000 2.008 1.422 1.422 0 002.008 0c.266-.266.414-.629.414-1.004zm11-1c0-.375-.148-.738-.414-1.004a1.422 1.422 0 00-2.008 0 1.422 1.422 0 000 2.008 1.422 1.422 0 002.008 0c.266-.266.414-.629.414-1.004zm10-1c0-.375-.148-.738-.414-1.004a1.422 1.422 0 00-2.008 0 1.422 1.422 0 000 2.008 1.422 1.422 0 002.008 0c.266-.266.414-.629.414-1.004zm11-1c0-.375-.148-.738-.414-1.004a1.422 1.422 0 00-2.008 0 1.422 1.422 0 000 2.008 1.422 1.422 0 002.008 0c.266-.266.414-.629.414-1.004zm11-1c0-.375-.148-.738-.414-1.004a1.422 1.422 0 00-2.008 0 1.422 1.422 0 000 2.008 1.422 1.422 0 002.008 0c.266-.266.414-.629.414-1.004zm10 0c0-.375-.148-.738-.414-1.004a1.422 1.422 0 00-2.008 0 1.422 1.422 0 000 2.008 1.422 1.422 0 002.008 0c.266-.266.414-.629.414-1.004zm0 0" fill-rule="evenodd" fill="#a8364d"/><path d="M151.418 221c0-.375-.148-.738-.414-1.004a1.422 1.422 0 00-2.008 0 1.422 1.422 0 000 2.008 1.422 1.422 0 002.008 0c.266-.266.414-.629.414-1.004zm10-49c0-.375-.148-.738-.414-1.004a1.422 1.422 0 00-2.008 0 1.422 1.422 0 000 2.008 1.422 1.422 0 002.008 0c.266-.266.414-.629.414-1.004zm11-18c0-.375-.148-.738-.414-1.004a1.422 1.422 0 00-2.008 0 1.422 1.422 0 000 2.008 1.422 1.422 0 002.008 0c.266-.266.414-.629.414-1.004zm10-7c0-.375-.148-.738-.414-1.004a1.422 1.422 0 00-2.008 0 1.422 1.422 0 000 2.008 1.422 1.422 0 002.008 0c.266-.266.414-.629.414-1.004zm11-3c0-.375-.148-.738-.414-1.004a1.422 1.422 0 00-2.008 0 1.422 1.422 0 000 2.008 1.422 1.422 0 002.008 0c.266-.266.414-.629.414-1.004zm11-8c0-.375-.148-.738-.414-1.004a1.422 1.422 0 00-2.008 0 1.422 1.422 0 000 2.008 1.422 1.422 0 002.008 0c.266-.266.414-.629.414-1.004zm10-6c0-.375-.148-.738-.414-1.004a1.422 1.422 0 00-2.008 0 1.422 1.422 0 000 2.008 1.422 1.422 0 002.008 0c.266-.266.414-.629.414-1.004zm11-5c0-.375-.148-.738-.414-1.004a1.422 1.422 0 00-2.008 0 1.422 1.422 0 000 2.008 1.422 1.422 0 002.008 0c.266-.266.414-.629.414-1.004zm11-3c0-.375-.148-.738-.414-1.004a1.422 1.422 0 00-2.008 0 1.422 1.422 0 000 2.008 1.422 1.422 0 002.008 0c.266-.266.414-.629.414-1.004zm10-4c0-.375-.148-.738-.414-1.004a1.422 1.422 0 00-2.008 0 1.422 1.422 0 000 2.008 1.422 1.422 0 002.008 0c.266-.266.414-.629.414-1.004zm11-3c0-.375-.148-.738-.414-1.004a1.422 1.422 0 00-2.008 0 1.422 1.422 0 000 2.008 1.422 1.422 0 002.008 0c.266-.266.414-.629.414-1.004zm10-3c0-.375-.148-.738-.414-1.004a1.422 1.422 0 00-2.008 0 1.422 1.422 0 000 2.008 1.422 1.422 0 002.008 0c.266-.266.414-.629.414-1.004zm11-3c0-.375-.148-.738-.414-1.004a1.422 1.422 0 00-2.008 0 1.422 1.422 0 000 2.008 1.422 1.422 0 002.008 0c.266-.266.414-.629.414-1.004zm11-2c0-.375-.148-.738-.414-1.004a1.422 1.422 0 00-2.008 0 1.422 1.422 0 000 2.008 1.422 1.422 0 002.008 0c.266-.266.414-.629.414-1.004zm10-2c0-.375-.148-.738-.414-1.004a1.422 1.422 0 00-2.008 0 1.422 1.422 0 000 2.008 1.422 1.422 0 002.008 0c.266-.266.414-.629.414-1.004zm11-2c0-.375-.148-.738-.414-1.004a1.422 1.422 0 00-2.008 0 1.422 1.422 0 000 2.008 1.422 1.422 0 002.008 0c.266-.266.414-.629.414-1.004zm10-2c0-.375-.148-.738-.414-1.004a1.422 1.422 0 00-2.008 0 1.422 1.422 0 000 2.008 1.422 1.422 0 002.008 0c.266-.266.414-.629.414-1.004zm11-1c0-.375-.148-.738-.414-1.004a1.422 1.422 0 00-2.008 0 1.422 1.422 0 000 2.008 1.422 1.422 0 002.008 0c.266-.266.414-.629.414-1.004zm11-1c0-.375-.148-.738-.414-1.004a1.422 1.422 0 00-2.008 0 1.422 1.422 0 000 2.008 1.422 1.422 0 002.008 0c.266-.266.414-.629.414-1.004zm10 0c0-.375-.148-.738-.414-1.004a1.422 1.422 0 00-2.008 0 1.422 1.422 0 000 2.008 1.422 1.422 0 002.008 0c.266-.266.414-.629.414-1.004zm0 0" fill-rule="evenodd" fill="#3664cc"/><path d="M140.418 208c0-.375-.148-.738-.414-1.004a1.422 1.422 0 00-2.008 0 1.422 1.422 0 000 2.008 1.422 1.422 0 002.008 0c.266-.266.414-.629.414-1.004zm11-7c0-.375-.148-.738-.414-1.004a1.422 1.422 0 00-2.008 0 1.422 1.422 0 000 2.008 1.422 1.422 0 002.008 0c.266-.266.414-.629.414-1.004zm10-15c0-.375-.148-.738-.414-1.004a1.422 1.422 0 00-2.008 0 1.422 1.422 0 000 2.008 1.422 1.422 0 002.008 0c.266-.266.414-.629.414-1.004zm11-18c0-.375-.148-.738-.414-1.004a1.422 1.422 0 00-2.008 0 1.422 1.422 0 000 2.008 1.422 1.422 0 002.008 0c.266-.266.414-.629.414-1.004zm10-12c0-.375-.148-.738-.414-1.004a1.422 1.422 0 00-2.008 0 1.422 1.422 0 000 2.008 1.422 1.422 0 002.008 0c.266-.266.414-.629.414-1.004zm11-5c0-.375-.148-.738-.414-1.004a1.422 1.422 0 00-2.008 0 1.422 1.422 0 000 2.008 1.422 1.422 0 002.008 0c.266-.266.414-.629.414-1.004zm11-8c0-.375-.148-.738-.414-1.004a1.422 1.422 0 00-2.008 0 1.422 1.422 0 000 2.008 1.422 1.422 0 002.008 0c.266-.266.414-.629.414-1.004zm10-7c0-.375-.148-.738-.414-1.004a1.422 1.422 0 00-2.008 0 1.422 1.422 0 000 2.008 1.422 1.422 0 002.008 0c.266-.266.414-.629.414-1.004zm11-7c0-.375-.148-.738-.414-1.004a1.422 1.422 0 00-2.008 0 1.422 1.422 0 000 2.008 1.422 1.422 0 002.008 0c.266-.266.414-.629.414-1.004zm11-7c0-.375-.148-.738-.414-1.004a1.422 1.422 0 00-2.008 0 1.422 1.422 0 000 2.008 1.422 1.422 0 002.008 0c.266-.266.414-.629.414-1.004zm10-4c0-.375-.148-.738-.414-1.004a1.422 1.422 0 00-2.008 0 1.422 1.422 0 000 2.008 1.422 1.422 0 002.008 0c.266-.266.414-.629.414-1.004zm11-2c0-.375-.148-.738-.414-1.004a1.422 1.422 0 00-2.008 0 1.422 1.422 0 000 2.008 1.422 1.422 0 002.008 0c.266-.266.414-.629.414-1.004zm10-3c0-.375-.148-.738-.414-1.004a1.422 1.422 0 00-2.008 0 1.422 1.422 0 000 2.008 1.422 1.422 0 002.008 0c.266-.266.414-.629.414-1.004zm11-4c0-.375-.148-.738-.414-1.004a1.422 1.422 0 00-2.008 0 1.422 1.422 0 000 2.008 1.422 1.422 0 002.008 0c.266-.266.414-.629.414-1.004zm11-2c0-.375-.148-.738-.414-1.004a1.422 1.422 0 00-2.008 0 1.422 1.422 0 000 2.008 1.422 1.422 0 002.008 0c.266-.266.414-.629.414-1.004zm10-2c0-.375-.148-.738-.414-1.004a1.422 1.422 0 00-2.008 0 1.422 1.422 0 000 2.008 1.422 1.422 0 002.008 0c.266-.266.414-.629.414-1.004zm11-2c0-.375-.148-.738-.414-1.004a1.422 1.422 0 00-2.008 0 1.422 1.422 0 000 2.008 1.422 1.422 0 002.008 0c.266-.266.414-.629.414-1.004zm10-1c0-.375-.148-.738-.414-1.004a1.422 1.422 0 00-2.008 0 1.422 1.422 0 000 2.008 1.422 1.422 0 002.008 0c.266-.266.414-.629.414-1.004zm11-1c0-.375-.148-.738-.414-1.004a1.422 1.422 0 00-2.008 0 1.422 1.422 0 000 2.008 1.422 1.422 0 002.008 0c.266-.266.414-.629.414-1.004zm11 0c0-.375-.148-.738-.414-1.004a1.422 1.422 0 00-2.008 0 1.422 1.422 0 000 2.008 1.422 1.422 0 002.008 0c.266-.266.414-.629.414-1.004zm10-1c0-.375-.148-.738-.414-1.004a1.422 1.422 0 00-2.008 0 1.422 1.422 0 000 2.008 1.422 1.422 0 002.008 0c.266-.266.414-.629.414-1.004zm0 0" fill-rule="evenodd" fill="#c8860a"/><path d="M151.418 221c0-.375-.148-.738-.414-1.004a1.422 1.422 0 00-2.008 0 1.422 1.422 0 000 2.008 1.422 1.422 0 002.008 0c.266-.266.414-.629.414-1.004zm10-40c0-.375-.148-.738-.414-1.004a1.422 1.422 0 00-2.008 0 1.422 1.422 0 000 2.008 1.422 1.422 0 002.008 0c.266-.266.414-.629.414-1.004zm11-13c0-.375-.148-.738-.414-1.004a1.422 1.422 0 00-2.008 0 1.422 1.422 0 000 2.008 1.422 1.422 0 002.008 0c.266-.266.414-.629.414-1.004zm10-9c0-.375-.148-.738-.414-1.004a1.422 1.422 0 00-2.008 0 1.422 1.422 0 000 2.008 1.422 1.422 0 002.008 0c.266-.266.414-.629.414-1.004zm11-8c0-.375-.148-.738-.414-1.004a1.422 1.422 0 00-2.008 0 1.422 1.422 0 000 2.008 1.422 1.422 0 002.008 0c.266-.266.414-.629.414-1.004zm11-7c0-.375-.148-.738-.414-1.004a1.422 1.422 0 00-2.008 0 1.422 1.422 0 000 2.008 1.422 1.422 0 002.008 0c.266-.266.414-.629.414-1.004zm10-6c0-.375-.148-.738-.414-1.004a1.422 1.422 0 00-2.008 0 1.422 1.422 0 000 2.008 1.422 1.422 0 002.008 0c.266-.266.414-.629.414-1.004zm11-5c0-.375-.148-.738-.414-1.004a1.422 1.422 0 00-2.008 0 1.422 1.422 0 000 2.008 1.422 1.422 0 002.008 0c.266-.266.414-.629.414-1.004zm11-5c0-.375-.148-.738-.414-1.004a1.422 1.422 0 00-2.008 0 1.422 1.422 0 000 2.008 1.422 1.422 0 002.008 0c.266-.266.414-.629.414-1.004zm10-3c0-.375-.148-.738-.414-1.004a1.422 1.422 0 00-2.008 0 1.422 1.422 0 000 2.008 1.422 1.422 0 002.008 0c.266-.266.414-.629.414-1.004zm11-3c0-.375-.148-.738-.414-1.004a1.422 1.422 0 00-2.008 0 1.422 1.422 0 000 2.008 1.422 1.422 0 002.008 0c.266-.266.414-.629.414-1.004zm10-3c0-.375-.148-.738-.414-1.004a1.422 1.422 0 00-2.008 0 1.422 1.422 0 000 2.008 1.422 1.422 0 002.008 0c.266-.266.414-.629.414-1.004zm11-2c0-.375-.148-.738-.414-1.004a1.422 1.422 0 00-2.008 0 1.422 1.422 0 000 2.008 1.422 1.422 0 002.008 0c.266-.266.414-.629.414-1.004zm11-2c0-.375-.148-.738-.414-1.004a1.422 1.422 0 00-2.008 0 1.422 1.422 0 000 2.008 1.422 1.422 0 002.008 0c.266-.266.414-.629.414-1.004zm10-1c0-.375-.148-.738-.414-1.004a1.422 1.422 0 00-2.008 0 1.422 1.422 0 000 2.008 1.422 1.422 0 002.008 0c.266-.266.414-.629.414-1.004zm11-2c0-.375-.148-.738-.414-1.004a1.422 1.422 0 00-2.008 0 1.422 1.422 0 000 2.008 1.422 1.422 0 002.008 0c.266-.266.414-.629.414-1.004zm10-1c0-.375-.148-.738-.414-1.004a1.422 1.422 0 00-2.008 0 1.422 1.422 0 000 2.008 1.422 1.422 0 002.008 0c.266-.266.414-.629.414-1.004zm11-1c0-.375-.148-.738-.414-1.004a1.422 1.422 0 00-2.008 0 1.422 1.422 0 000 2.008 1.422 1.422 0 002.008 0c.266-.266.414-.629.414-1.004zm11-1c0-.375-.148-.738-.414-1.004a1.422 1.422 0 00-2.008 0 1.422 1.422 0 000 2.008 1.422 1.422 0 002.008 0c.266-.266.414-.629.414-1.004zm10-1c0-.375-.148-.738-.414-1.004a1.422 1.422 0 00-2.008 0 1.422 1.422 0 000 2.008 1.422 1.422 0 002.008 0c.266-.266.414-.629.414-1.004zm0 0" fill-rule="evenodd" fill="#833987"/><path d="M140.418 192c0-.375-.148-.738-.414-1.004a1.422 1.422 0 00-2.008 0 1.422 1.422 0 000 2.008 1.422 1.422 0 002.008 0c.266-.266.414-.629.414-1.004zm11-11c0-.375-.148-.738-.414-1.004a1.422 1.422 0 00-2.008 0 1.422 1.422 0 000 2.008 1.422 1.422 0 002.008 0c.266-.266.414-.629.414-1.004zm10-20c0-.375-.148-.738-.414-1.004a1.422 1.422 0 00-2.008 0 1.422 1.422 0 000 2.008 1.422 1.422 0 002.008 0c.266-.266.414-.629.414-1.004zm11-13c0-.375-.148-.738-.414-1.004a1.422 1.422 0 00-2.008 0 1.422 1.422 0 000 2.008 1.422 1.422 0 002.008 0c.266-.266.414-.629.414-1.004zm10-5c0-.375-.148-.738-.414-1.004a1.422 1.422 0 00-2.008 0 1.422 1.422 0 000 2.008 1.422 1.422 0 002.008 0c.266-.266.414-.629.414-1.004zm11-7c0-.375-.148-.738-.414-1.004a1.422 1.422 0 00-2.008 0 1.422 1.422 0 000 2.008 1.422 1.422 0 002.008 0c.266-.266.414-.629.414-1.004zm11-4c0-.375-.148-.738-.414-1.004a1.422 1.422 0 00-2.008 0 1.422 1.422 0 000 2.008 1.422 1.422 0 002.008 0c.266-.266.414-.629.414-1.004zm10-1c0-.375-.148-.738-.414-1.004a1.422 1.422 0 00-2.008 0 1.422 1.422 0 000 2.008 1.422 1.422 0 002.008 0c.266-.266.414-.629.414-1.004zm11-3c0-.375-.148-.738-.414-1.004a1.422 1.422 0 00-2.008 0 1.422 1.422 0 000 2.008 1.422 1.422 0 002.008 0c.266-.266.414-.629.414-1.004zm11-4c0-.375-.148-.738-.414-1.004a1.422 1.422 0 00-2.008 0 1.422 1.422 0 000 2.008 1.422 1.422 0 002.008 0c.266-.266.414-.629.414-1.004zm10-2c0-.375-.148-.738-.414-1.004a1.422 1.422 0 00-2.008 0 1.422 1.422 0 000 2.008 1.422 1.422 0 002.008 0c.266-.266.414-.629.414-1.004zm11-2c0-.375-.148-.738-.414-1.004a1.422 1.422 0 00-2.008 0 1.422 1.422 0 000 2.008 1.422 1.422 0 002.008 0c.266-.266.414-.629.414-1.004zm10-2c0-.375-.148-.738-.414-1.004a1.422 1.422 0 00-2.008 0 1.422 1.422 0 000 2.008 1.422 1.422 0 002.008 0c.266-.266.414-.629.414-1.004zm11-2c0-.375-.148-.738-.414-1.004a1.422 1.422 0 00-2.008 0 1.422 1.422 0 000 2.008 1.422 1.422 0 002.008 0c.266-.266.414-.629.414-1.004zm11-2c0-.375-.148-.738-.414-1.004a1.422 1.422 0 00-2.008 0 1.422 1.422 0 000 2.008 1.422 1.422 0 002.008 0c.266-.266.414-.629.414-1.004zm10-1c0-.375-.148-.738-.414-1.004a1.422 1.422 0 00-2.008 0 1.422 1.422 0 000 2.008 1.422 1.422 0 002.008 0c.266-.266.414-.629.414-1.004zm11-1c0-.375-.148-.738-.414-1.004a1.422 1.422 0 00-2.008 0 1.422 1.422 0 000 2.008 1.422 1.422 0 002.008 0c.266-.266.414-.629.414-1.004zm10-1c0-.375-.148-.738-.414-1.004a1.422 1.422 0 00-2.008 0 1.422 1.422 0 000 2.008 1.422 1.422 0 002.008 0c.266-.266.414-.629.414-1.004zm11-1c0-.375-.148-.738-.414-1.004a1.422 1.422 0 00-2.008 0 1.422 1.422 0 000 2.008 1.422 1.422 0 002.008 0c.266-.266.414-.629.414-1.004zm11 0c0-.375-.148-.738-.414-1.004a1.422 1.422 0 00-2.008 0 1.422 1.422 0 000 2.008 1.422 1.422 0 002.008 0c.266-.266.414-.629.414-1.004zm10-1c0-.375-.148-.738-.414-1.004a1.422 1.422 0 00-2.008 0 1.422 1.422 0 000 2.008 1.422 1.422 0 002.008 0c.266-.266.414-.629.414-1.004zm0 0" fill-rule="evenodd" fill="#1c8f6b"/><path d="M140.418 221c0-.375-.148-.738-.414-1.004a1.422 1.422 0 00-2.008 0 1.422 1.422 0 000 2.008 1.422 1.422 0 002.008 0c.266-.266.414-.629.414-1.004zm11-33c0-.375-.148-.738-.414-1.004a1.422 1.422 0 00-2.008 0 1.422 1.422 0 000 2.008 1.422 1.422 0 002.008 0c.266-.266.414-.629.414-1.004zm10-7c0-.375-.148-.738-.414-1.004a1.422 1.422 0 00-2.008 0 1.422 1.422 0 000 2.008 1.422 1.422 0 002.008 0c.266-.266.414-.629.414-1.004zm11-15c0-.375-.148-.738-.414-1.004a1.422 1.422 0 00-2.008 0 1.422 1.422 0 000 2.008 1.422 1.422 0 002.008 0c.266-.266.414-.629.414-1.004zm10-12c0-.375-.148-.738-.414-1.004a1.422 1.422 0 00-2.008 0 1.422 1.422 0 000 2.008 1.422 1.422 0 002.008 0c.266-.266.414-.629.414-1.004zm11-8c0-.375-.148-.738-.414-1.004a1.422 1.422 0 00-2.008 0 1.422 1.422 0 000 2.008 1.422 1.422 0 002.008 0c.266-.266.414-.629.414-1.004zm11-6c0-.375-.148-.738-.414-1.004a1.422 1.422 0 00-2.008 0 1.422 1.422 0 000 2.008 1.422 1.422 0 002.008 0c.266-.266.414-.629.414-1.004zm10-6c0-.375-.148-.738-.414-1.004a1.422 1.422 0 00-2.008 0 1.422 1.422 0 000 2.008 1.422 1.422 0 002.008 0c.266-.266.414-.629.414-1.004zm11-3c0-.375-.148-.738-.414-1.004a1.422 1.422 0 00-2.008 0 1.422 1.422 0 000 2.008 1.422 1.422 0 002.008 0c.266-.266.414-.629.414-1.004zm11-4c0-.375-.148-.738-.414-1.004a1.422 1.422 0 00-2.008 0 1.422 1.422 0 000 2.008 1.422 1.422 0 002.008 0c.266-.266.414-.629.414-1.004zm10-2c0-.375-.148-.738-.414-1.004a1.422 1.422 0 00-2.008 0 1.422 1.422 0 000 2.008 1.422 1.422 0 002.008 0c.266-.266.414-.629.414-1.004zm11-2c0-.375-.148-.738-.414-1.004a1.422 1.422 0 00-2.008 0 1.422 1.422 0 000 2.008 1.422 1.422 0 002.008 0c.266-.266.414-.629.414-1.004zm10-2c0-.375-.148-.738-.414-1.004a1.422 1.422 0 00-2.008 0 1.422 1.422 0 000 2.008 1.422 1.422 0 002.008 0c.266-.266.414-.629.414-1.004zm11-1c0-.375-.148-.738-.414-1.004a1.422 1.422 0 00-2.008 0 1.422 1.422 0 000 2.008 1.422 1.422 0 002.008 0c.266-.266.414-.629.414-1.004zm11-2c0-.375-.148-.738-.414-1.004a1.422 1.422 0 00-2.008 0 1.422 1.422 0 000 2.008 1.422 1.422 0 002.008 0c.266-.266.414-.629.414-1.004zm10-3c0-.375-.148-.738-.414-1.004a1.422 1.422 0 00-2.008 0 1.422 1.422 0 000 2.008 1.422 1.422 0 002.008 0c.266-.266.414-.629.414-1.004zm11-2c0-.375-.148-.738-.414-1.004a1.422 1.422 0 00-2.008 0 1.422 1.422 0 000 2.008 1.422 1.422 0 002.008 0c.266-.266.414-.629.414-1.004zm10-1c0-.375-.148-.738-.414-1.004a1.422 1.422 0 00-2.008 0 1.422 1.422 0 000 2.008 1.422 1.422 0 002.008 0c.266-.266.414-.629.414-1.004zm11-1c0-.375-.148-.738-.414-1.004a1.422 1.422 0 00-2.008 0 1.422 1.422 0 000 2.008 1.422 1.422 0 002.008 0c.266-.266.414-.629.414-1.004zm11-1c0-.375-.148-.738-.414-1.004a1.422 1.422 0 00-2.008 0 1.422 1.422 0 000 2.008 1.422 1.422 0 002.008 0c.266-.266.414-.629.414-1.004zm10-1c0-.375-.148-.738-.414-1.004a1.422 1.422 0 00-2.008 0 1.422 1.422 0 000 2.008 1.422 1.422 0 002.008 0c.266-.266.414-.629.414-1.004zm0 0" fill-rule="evenodd" fill="#a54f05"/><path d="M119.418 221c0-.375-.148-.738-.414-1.004a1.422 1.422 0 00-2.008 0 1.422 1.422 0 000 2.008 1.422 1.422 0 002.008 0c.266-.266.414-.629.414-1.004zm10-55c0-.375-.148-.738-.414-1.004a1.422 1.422 0 00-2.008 0 1.422 1.422 0 000 2.008 1.422 1.422 0 002.008 0c.266-.266.414-.629.414-1.004zm11-21c0-.375-.148-.738-.414-1.004a1.422 1.422 0 00-2.008 0 1.422 1.422 0 000 2.008 1.422 1.422 0 002.008 0c.266-.266.414-.629.414-1.004zm11-13c0-.375-.148-.738-.414-1.004a1.422 1.422 0 00-2.008 0 1.422 1.422 0 000 2.008 1.422 1.422 0 002.008 0c.266-.266.414-.629.414-1.004zm10-15c0-.375-.148-.738-.414-1.004a1.422 1.422 0 00-2.008 0 1.422 1.422 0 000 2.008 1.422 1.422 0 002.008 0c.266-.266.414-.629.414-1.004zm11-12c0-.375-.148-.738-.414-1.004a1.422 1.422 0 00-2.008 0 1.422 1.422 0 000 2.008 1.422 1.422 0 002.008 0c.266-.266.414-.629.414-1.004zm10-8c0-.375-.148-.738-.414-1.004a1.422 1.422 0 00-2.008 0 1.422 1.422 0 000 2.008 1.422 1.422 0 002.008 0c.266-.266.414-.629.414-1.004zm11-7c0-.375-.148-.738-.414-1.004a1.422 1.422 0 00-2.008 0 1.422 1.422 0 000 2.008 1.422 1.422 0 002.008 0c.266-.266.414-.629.414-1.004zm11-5c0-.375-.148-.738-.414-1.004a1.422 1.422 0 00-2.008 0 1.422 1.422 0 000 2.008 1.422 1.422 0 002.008 0c.266-.266.414-.629.414-1.004zm10-5c0-.375-.148-.738-.414-1.004a1.422 1.422 0 00-2.008 0 1.422 1.422 0 000 2.008 1.422 1.422 0 002.008 0c.266-.266.414-.629.414-1.004zm11-5c0-.375-.148-.738-.414-1.004a1.422 1.422 0 00-2.008 0 1.422 1.422 0 000 2.008 1.422 1.422 0 002.008 0c.266-.266.414-.629.414-1.004zm11-4c0-.375-.148-.738-.414-1.004a1.422 1.422 0 00-2.008 0 1.422 1.422 0 000 2.008 1.422 1.422 0 002.008 0c.266-.266.414-.629.414-1.004zm10-3c0-.375-.148-.738-.414-1.004a1.422 1.422 0 00-2.008 0 1.422 1.422 0 000 2.008 1.422 1.422 0 002.008 0c.266-.266.414-.629.414-1.004zm11-2c0-.375-.148-.738-.414-1.004a1.422 1.422 0 00-2.008 0 1.422 1.422 0 000 2.008 1.422 1.422 0 002.008 0c.266-.266.414-.629.414-1.004zm10-3c0-.375-.148-.738-.414-1.004a1.422 1.422 0 00-2.008 0 1.422 1.422 0 000 2.008 1.422 1.422 0 002.008 0c.266-.266.414-.629.414-1.004zm11-2c0-.375-.148-.738-.414-1.004a1.422 1.422 0 00-2.008 0 1.422 1.422 0 000 2.008 1.422 1.422 0 002.008 0c.266-.266.414-.629.414-1.004zm11-2c0-.375-.148-.738-.414-1.004a1.422 1.422 0 00-2.008 0 1.422 1.422 0 000 2.008 1.422 1.422 0 002.008 0c.266-.266.414-.629.414-1.004zm10-2c0-.375-.148-.738-.414-1.004a1.422 1.422 0 00-2.008 0 1.422 1.422 0 000 2.008 1.422 1.422 0 002.008 0c.266-.266.414-.629.414-1.004zm11-1c0-.375-.148-.738-.414-1.004a1.422 1.422 0 00-2.008 0 1.422 1.422 0 000 2.008 1.422 1.422 0 002.008 0c.266-.266.414-.629.414-1.004zm10-1c0-.375-.148-.738-.414-1.004a1.422 1.422 0 00-2.008 0 1.422 1.422 0 000 2.008 1.422 1.422 0 002.008 0c.266-.266.414-.629.414-1.004zm11-1c0-.375-.148-.738-.414-1.004a1.422 1.422 0 00-2.008 0 1.422 1.422 0 000 2.008 1.422 1.422 0 002.008 0c.266-.266.414-.629.414-1.004zm11-1c0-.375-.148-.738-.414-1.004a1.422 1.422 0 00-2.008 0 1.422 1.422 0 000 2.008 1.422 1.422 0 002.008 0c.266-.266.414-.629.414-1.004zm10 0c0-.375-.148-.738-.414-1.004a1.422 1.422 0 00-2.008 0 1.422 1.422 0 000 2.008 1.422 1.422 0 002.008 0c.266-.266.414-.629.414-1.004zm0 0" fill-rule="evenodd" fill="#6846c7"/><path d="M412.2 22.797h4.277l.191-.004.234-.004.293-.016.371-.035.454-.062.558-.098.676-.133.805-.183.949-.239 1.105-.296 1.282-.368 1.44-.433 1.567-.48 1.664-.52 1.727-.543 1.75-.551 1.742-.543 1.7-.523 1.624-.493 1.512-.441 1.371-.375 1.211-.312 1.067-.247.945-.191.84-.145.754-.097.687-.07.64-.04.61-.02.602-.007h5.09" fill="none" stroke-width="4" stroke-linejoin="round" stroke="#fff" stroke-opacity=".667" stroke-miterlimit="3.25"/><path d="M412.2 22.797h4.277l.191-.004.234-.004.293-.016.371-.035.454-.062.558-.098.676-.133.805-.183.949-.239 1.105-.296 1.282-.368 1.44-.433 1.567-.48 1.664-.52 1.727-.543 1.75-.551 1.742-.543 1.7-.523 1.624-.493 1.512-.441 1.371-.375 1.211-.312 1.067-.247.945-.191.84-.145.754-.097.687-.07.64-.04.61-.02.602-.007h5.09" fill="none" stroke-width="1.25" stroke-linecap="square" stroke="#aaa" stroke-miterlimit="3.25"/><path d="M476.938 7.828v15h-25v-15zm0 0" fill="#fff" fill-opacity=".667"/><use xlink:href="#a" x="454.437" y="17.829"/><use xlink:href="#b" x="464.437" y="17.829"/><path d="M412.2 27.402h4.468l.234.004.293.02.371.035.454.059.558.097.676.133.805.18.949.234 1.105.297 1.282.363 1.44.43 1.567.476 1.664.516 1.727.535 1.75.547 1.742.54 1.7.519 1.624.484 1.512.438 1.371.375 1.211.304 1.067.246.945.192.84.14.754.098.687.066.64.043.61.02.602.004h5.09" fill="none" stroke-width="4" stroke-linejoin="round" stroke="#fff" stroke-opacity=".667" stroke-miterlimit="3.25"/><path d="M412.2 27.402h4.468l.234.004.293.02.371.035.454.059.558.097.676.133.805.18.949.234 1.105.297 1.282.363 1.44.43 1.567.476 1.664.516 1.727.535 1.75.547 1.742.54 1.7.519 1.624.484 1.512.438 1.371.375 1.211.304 1.067.246.945.192.84.14.754.098.687.066.64.043.61.02.602.004h5.09" fill="none" stroke-width="1.25" stroke-linecap="square" stroke="#aaa" stroke-miterlimit="3.25"/><path d="M476.938 27.297v15h-25v-15zm0 0" fill="#fff" fill-opacity=".667"/><use xlink:href="#c" x="454.437" y="37.298"/><use xlink:href="#d" x="464.437" y="37.298"/><path d="M412.2 90.754h4.284l.172-.004.207-.004.258-.023.313-.043.386-.078.461-.122.555-.168.656-.23.766-.297.887-.375 1.023-.46 1.164-.555 1.3-.645 1.411-.715 1.496-.773 1.555-.809 1.586-.832 1.593-.828 1.579-.813 1.53-.78 1.462-.731 1.363-.656 1.246-.57 1.113-.477.993-.387.886-.313.797-.238.719-.18.652-.125.61-.085.57-.047.555-.028.547-.008h5.043" fill="none" stroke-width="4" stroke-linejoin="round" stroke="#fff" stroke-opacity=".667" stroke-miterlimit="3.25"/><path d="M412.2 90.754h4.284l.172-.004.207-.004.258-.023.313-.043.386-.078.461-.122.555-.168.656-.23.766-.297.887-.375 1.023-.46 1.164-.555 1.3-.645 1.411-.715 1.496-.773 1.555-.809 1.586-.832 1.593-.828 1.579-.813 1.53-.78 1.462-.731 1.363-.656 1.246-.57 1.113-.477.993-.387.886-.313.797-.238.719-.18.652-.125.61-.085.57-.047.555-.028.547-.008h5.043" fill="none" stroke-width="1.25" stroke-linecap="square" stroke="#aaa" stroke-miterlimit="3.25"/><path d="M476.938 70.855v15h-25v-15zm0 0" fill="#fff" fill-opacity=".667"/><use xlink:href="#e" x="454.437" y="80.855"/><use xlink:href="#f" x="464.437" y="80.855"/><path d="M412.2 92.79h4.386l.168.003.195.02.238.042.286.079.336.129.394.183.465.254.539.332.617.426.707.523.805.637.902.758 1.016.894 1.117 1.02 1.203 1.125 1.278 1.21 1.328 1.278 1.363 1.317 1.387 1.335 1.386 1.332 1.372 1.313 1.34 1.266 1.292 1.199 1.227 1.11 1.144 1 1.047.87.95.735.859.617.777.508.707.41.649.316.593.242.551.176.52.117.496.075.476.039.477.015h5.144" fill="none" stroke-width="4" stroke-linejoin="round" stroke="#fff" stroke-opacity=".667" stroke-miterlimit="3.25"/><path d="M412.2 92.79h4.386l.168.003.195.02.238.042.286.079.336.129.394.183.465.254.539.332.617.426.707.523.805.637.902.758 1.016.894 1.117 1.02 1.203 1.125 1.278 1.21 1.328 1.278 1.363 1.317 1.387 1.335 1.386 1.332 1.372 1.313 1.34 1.266 1.292 1.199 1.227 1.11 1.144 1 1.047.87.95.735.859.617.777.508.707.41.649.316.593.242.551.176.52.117.496.075.476.039.477.015h5.144" fill="none" stroke-width="1.25" stroke-linecap="square" stroke="#aaa" stroke-miterlimit="3.25"/><path d="M476.938 108.195v15h-25v-15zm0 0" fill="#fff" fill-opacity=".667"/><use xlink:href="#g" x="454.437" y="118.197"/><use xlink:href="#h" x="464.437" y="118.197"/><path d="M412.2 91.45h4.468l.234.003.293.016.371.027.454.047.558.074.676.106.805.14.949.184 1.105.23 1.282.282 1.44.336 1.567.37 1.664.403 1.727.422 1.75.422 1.742.422 1.7.406 1.624.379 1.512.34 1.371.293 1.211.238 1.067.191.945.149.84.11.754.077.687.055.64.031.61.016.602.004h5.09" fill="none" stroke-width="4" stroke-linejoin="round" stroke="#fff" stroke-opacity=".667" stroke-miterlimit="3.25"/><path d="M412.2 91.45h4.468l.234.003.293.016.371.027.454.047.558.074.676.106.805.14.949.184 1.105.23 1.282.282 1.44.336 1.567.37 1.664.403 1.727.422 1.75.422 1.742.422 1.7.406 1.624.379 1.512.34 1.371.293 1.211.238 1.067.191.945.149.84.11.754.077.687.055.64.031.61.016.602.004h5.09" fill="none" stroke-width="1.25" stroke-linecap="square" stroke="#aaa" stroke-miterlimit="3.25"/><path d="M476.938 89.723v15h-25v-15zm0 0" fill="#fff" fill-opacity=".667"/><use xlink:href="#i" x="454.437" y="99.722"/><use xlink:href="#j" x="464.437" y="99.722"/><path d="M412.2 94.055h4.378l.129.004.152.015.176.043.2.074.234.118.265.171.309.235.348.308.394.395.445.488.497.59.558.703.613.828.684.965.75 1.106.82 1.261.891 1.41.953 1.54 1 1.648 1.047 1.734 1.078 1.805 1.106 1.856 1.117 1.882 1.125 1.891 1.12 1.879 1.114 1.848 1.09 1.793 1.059 1.722 1.02 1.633.976 1.52.914 1.382.851 1.239.785 1.082.723.937.672.809.617.683.57.575.536.468.492.38.469.296.437.223.418.164.402.11.395.066.383.039.386.011.391.004h4.649" fill="none" stroke-width="4" stroke-linejoin="round" stroke="#fff" stroke-opacity=".667" stroke-miterlimit="3.25"/><path d="M412.2 94.055h4.378l.129.004.152.015.176.043.2.074.234.118.265.171.309.235.348.308.394.395.445.488.497.59.558.703.613.828.684.965.75 1.106.82 1.261.891 1.41.953 1.54 1 1.648 1.047 1.734 1.078 1.805 1.106 1.856 1.117 1.882 1.125 1.891 1.12 1.879 1.114 1.848 1.09 1.793 1.059 1.722 1.02 1.633.976 1.52.914 1.382.851 1.239.785 1.082.723.937.672.809.617.683.57.575.536.468.492.38.469.296.437.223.418.164.402.11.395.066.383.039.386.011.391.004h4.649" fill="none" stroke-width="1.25" stroke-linecap="square" stroke="#aaa" stroke-miterlimit="3.25"/><path d="M476.938 126.488v15h-25v-15zm0 0" fill="#fff" fill-opacity=".667"/><use xlink:href="#c" x="454.437" y="136.489"/><use xlink:href="#j" x="464.437" y="136.489"/><path d="M412.2 94.969h4.335l.11.004.117.007.136.032.153.054.172.094.195.137.223.191.246.254.277.328.313.407.343.5.38.597.421.707.461.824.504.954.55 1.086.602 1.23.649 1.387.703 1.547.754 1.703.8 1.847.84 1.97.875 2.07.907 2.156.925 2.226.946 2.274.953 2.308.965 2.32.96 2.313.958 2.293.945 2.254.934 2.195.906 2.114.879 2.023.847 1.91.805 1.778.766 1.628.71 1.465.669 1.305.62 1.16.579 1.016.543.886.508.766.476.652.445.547.422.453.399.368.379.289.363.222.352.164.34.114.335.07.328.043.329.016.336.007h4.75" fill="none" stroke-width="4" stroke-linejoin="round" stroke="#fff" stroke-opacity=".667" stroke-miterlimit="3.25"/><path d="M412.2 94.969h4.335l.11.004.117.007.136.032.153.054.172.094.195.137.223.191.246.254.277.328.313.407.343.5.38.597.421.707.461.824.504.954.55 1.086.602 1.23.649 1.387.703 1.547.754 1.703.8 1.847.84 1.97.875 2.07.907 2.156.925 2.226.946 2.274.953 2.308.965 2.32.96 2.313.958 2.293.945 2.254.934 2.195.906 2.114.879 2.023.847 1.91.805 1.778.766 1.628.71 1.465.669 1.305.62 1.16.579 1.016.543.886.508.766.476.652.445.547.422.453.399.368.379.289.363.222.352.164.34.114.335.07.328.043.329.016.336.007h4.75" fill="none" stroke-width="1.25" stroke-linecap="square" stroke="#aaa" stroke-miterlimit="3.25"/><path d="M476.938 144.734v15h-25v-15zm0 0" fill="#fff" fill-opacity=".667"/><use xlink:href="#k" x="454.437" y="154.733"/><use xlink:href="#l" x="464.437" y="154.733"/><path d="M412.2 96.305h4.366l.098.004.11.011.117.035.136.06.149.093.168.14.183.192.207.25.23.32.255.395.277.476.305.574.336.672.367.782.394.894.434 1.024.465 1.156.504 1.297.543 1.449.582 1.601.625 1.774.664 1.93.703 2.078.734 2.203.762 2.32.79 2.414.812 2.496.824 2.559.84 2.605.851 2.641.852 2.652.855 2.653.852 2.632.848 2.602.835 2.55.82 2.481.802 2.403.777 2.3.754 2.184.719 2.055.687 1.906.648 1.742.61 1.578.574 1.422.543 1.27.508 1.136.476 1 .454.88.425.761.403.652.382.555.364.465.347.383.332.308.32.239.31.18.304.132.297.09.293.055.293.03.293.013h4.93" fill="none" stroke-width="4" stroke-linejoin="round" stroke="#fff" stroke-opacity=".667" stroke-miterlimit="3.25"/><path d="M412.2 96.305h4.366l.098.004.11.011.117.035.136.06.149.093.168.14.183.192.207.25.23.32.255.395.277.476.305.574.336.672.367.782.394.894.434 1.024.465 1.156.504 1.297.543 1.449.582 1.601.625 1.774.664 1.93.703 2.078.734 2.203.762 2.32.79 2.414.812 2.496.824 2.559.84 2.605.851 2.641.852 2.652.855 2.653.852 2.632.848 2.602.835 2.55.82 2.481.802 2.403.777 2.3.754 2.184.719 2.055.687 1.906.648 1.742.61 1.578.574 1.422.543 1.27.508 1.136.476 1 .454.88.425.761.403.652.382.555.364.465.347.383.332.308.32.239.31.18.304.132.297.09.293.055.293.03.293.013h4.93" fill="none" stroke-width="1.25" stroke-linecap="square" stroke="#aaa" stroke-miterlimit="3.25"/><path d="M476.938 163.059v14h-25v-14zm0 0" fill="#fff" fill-opacity=".667"/><use xlink:href="#h" x="454.437" y="172.559"/><use xlink:href="#m" x="464.437" y="172.559"/><path d="M412.2 103.918h4.425l.094.008.105.023.117.047.13.074.14.114.16.156.172.21.191.27.215.336.23.41.255.493.273.582.3.675.329.782.351.894.383 1.012.41 1.14.442 1.274.476 1.414.508 1.563.543 1.718.578 1.88.614 2.042.644 2.188.672 2.316.7 2.43.722 2.531.742 2.617.758 2.692.773 2.742.778 2.785.789 2.812.793 2.82.789 2.821.789 2.797.785 2.766.773 2.718.762 2.657.746 2.578.73 2.48.708 2.38.683 2.25.653 2.116.625 1.965.59 1.797.554 1.64.528 1.489.5 1.344.468 1.203.446 1.074.421.953.399.836.379.73.363.63.344.535.328.449.313.37.304.302.293.238.29.184.277.136.277.09.27.063.273.03.27.016.273.004h4.723" fill="none" stroke-width="4" stroke-linejoin="round" stroke="#fff" stroke-opacity=".667" stroke-miterlimit="3.25"/><path d="M412.2 103.918h4.425l.094.008.105.023.117.047.13.074.14.114.16.156.172.21.191.27.215.336.23.41.255.493.273.582.3.675.329.782.351.894.383 1.012.41 1.14.442 1.274.476 1.414.508 1.563.543 1.718.578 1.88.614 2.042.644 2.188.672 2.316.7 2.43.722 2.531.742 2.617.758 2.692.773 2.742.778 2.785.789 2.812.793 2.82.789 2.821.789 2.797.785 2.766.773 2.718.762 2.657.746 2.578.73 2.48.708 2.38.683 2.25.653 2.116.625 1.965.59 1.797.554 1.64.528 1.489.5 1.344.468 1.203.446 1.074.421.953.399.836.379.73.363.63.344.535.328.449.313.37.304.302.293.238.29.184.277.136.277.09.27.063.273.03.27.016.273.004h4.723" fill="none" stroke-width="1.25" stroke-linecap="square" stroke="#aaa" stroke-miterlimit="3.25"/><path d="M476.938 181.11v15h-25v-15zm0 0" fill="#fff" fill-opacity=".667"/><use xlink:href="#h" x="454.437" y="191.111"/><use xlink:href="#n" x="464.437" y="191.111"/><path d="M412.2 105.395h4.41l.077.007.086.02.094.039.102.066.113.098.121.137.133.18.144.23.157.293.168.351.183.426.2.504.214.586.23.676.25.773.266.875.286.985.304 1.097.325 1.223.347 1.352.367 1.484.395 1.629.414 1.773.437 1.93.465 2.09.492 2.258.516 2.418.54 2.57.562 2.71.582 2.833.597 2.949.618 3.047.628 3.133.641 3.207.652 3.27.657 3.316.668 3.351.668 3.371.671 3.387.672 3.379.672 3.367.668 3.332.66 3.297.657 3.238.644 3.172.637 3.09.62 3 .606 2.89.59 2.774.57 2.645.551 2.496.528 2.34.5 2.171.48 2.008.457 1.852.438 1.7.414 1.554.394 1.418.38 1.285.359 1.16.343 1.043.328.93.317.824.3.723.294.628.277.543.27.465.261.387.254.324.246.258.242.207.239.156.234.118.23.082.231.05.23.028.23.015.231.004h4.704" fill="none" stroke-width="4" stroke-linejoin="round" stroke="#fff" stroke-opacity=".667" stroke-miterlimit="3.25"/><path d="M412.2 105.395h4.41l.077.007.086.02.094.039.102.066.113.098.121.137.133.18.144.23.157.293.168.351.183.426.2.504.214.586.23.676.25.773.266.875.286.985.304 1.097.325 1.223.347 1.352.367 1.484.395 1.629.414 1.773.437 1.93.465 2.09.492 2.258.516 2.418.54 2.57.562 2.71.582 2.833.597 2.949.618 3.047.628 3.133.641 3.207.652 3.27.657 3.316.668 3.351.668 3.371.671 3.387.672 3.379.672 3.367.668 3.332.66 3.297.657 3.238.644 3.172.637 3.09.62 3 .606 2.89.59 2.774.57 2.645.551 2.496.528 2.34.5 2.171.48 2.008.457 1.852.438 1.7.414 1.554.394 1.418.38 1.285.359 1.16.343 1.043.328.93.317.824.3.723.294.628.277.543.27.465.261.387.254.324.246.258.242.207.239.156.234.118.23.082.231.05.23.028.23.015.231.004h4.704" fill="none" stroke-width="1.25" stroke-linecap="square" stroke="#aaa" stroke-miterlimit="3.25"/><path d="M476.938 217.492v15h-25v-15zm0 0" fill="#fff" fill-opacity=".667"/><use xlink:href="#o" x="454.437" y="227.491"/><use xlink:href="#p" x="464.437" y="227.491"/><path d="M412.2 104.129h4.44l.09.012.094.027.106.05.117.079.125.113.14.156.153.207.164.262.18.324.199.395.215.469.23.554.25.641.274.738.293.84.312.95.336 1.066.363 1.191.383 1.317.41 1.457.442 1.597.464 1.746.493 1.907.523 2.066.555 2.227.578 2.375.605 2.503.625 2.625.645 2.73.664 2.825.676 2.906.691 2.97.7 3.023.706 3.058.715 3.086.715 3.102.719 3.097.715 3.082.715 3.059.703 3.012.699 2.96.687 2.891.672 2.809.656 2.715.641 2.609.621 2.484.598 2.348.57 2.2.547 2.042.516 1.875.492 1.723.469 1.574.445 1.434.422 1.297.402 1.168.38 1.046.362.93.348.824.332.723.316.625.305.54.293.456.281.379.274.316.265.25.258.2.254.148.25.106.246.074.246.047.246.023.247.008.25.004h4.625" fill="none" stroke-width="4" stroke-linejoin="round" stroke="#fff" stroke-opacity=".667" stroke-miterlimit="3.25"/><path d="M412.2 104.129h4.44l.09.012.094.027.106.05.117.079.125.113.14.156.153.207.164.262.18.324.199.395.215.469.23.554.25.641.274.738.293.84.312.95.336 1.066.363 1.191.383 1.317.41 1.457.442 1.597.464 1.746.493 1.907.523 2.066.555 2.227.578 2.375.605 2.503.625 2.625.645 2.73.664 2.825.676 2.906.691 2.97.7 3.023.706 3.058.715 3.086.715 3.102.719 3.097.715 3.082.715 3.059.703 3.012.699 2.96.687 2.891.672 2.809.656 2.715.641 2.609.621 2.484.598 2.348.57 2.2.547 2.042.516 1.875.492 1.723.469 1.574.445 1.434.422 1.297.402 1.168.38 1.046.362.93.348.824.332.723.316.625.305.54.293.456.281.379.274.316.265.25.258.2.254.148.25.106.246.074.246.047.246.023.247.008.25.004h4.625" fill="none" stroke-width="1.25" stroke-linecap="square" stroke="#aaa" stroke-miterlimit="3.25"/><path d="M476.938 199.3v15h-25v-15zm0 0" fill="#fff" fill-opacity=".667"/><use xlink:href="#q" x="454.437" y="209.3"/><use xlink:href="#f" x="464.437" y="209.3"/><path d="M412.2 50.055h4.468l.234.004.293.015.371.031.454.051.558.082.676.117.805.16.949.204 1.105.258 1.282.316 1.44.375 1.567.418 1.664.445 1.727.469 1.75.477 1.742.468 1.7.453 1.624.426 1.512.38 1.371.327 1.211.266 1.067.215.945.164.84.125.754.086.687.058.64.035.61.016.602.008h5.09" fill="none" stroke-width="4" stroke-linejoin="round" stroke="#fff" stroke-opacity=".667" stroke-miterlimit="3.25"/><path d="M412.2 50.055h4.468l.234.004.293.015.371.031.454.051.558.082.676.117.805.16.949.204 1.105.258 1.282.316 1.44.375 1.567.418 1.664.445 1.727.469 1.75.477 1.742.468 1.7.453 1.624.426 1.512.38 1.371.327 1.211.266 1.067.215.945.164.84.125.754.086.687.058.64.035.61.016.602.008h5.09" fill="none" stroke-width="1.25" stroke-linecap="square" stroke="#aaa" stroke-miterlimit="3.25"/><path d="M496.938 49.004v15h-45v-15zm0 0" fill="#fff" fill-opacity=".667"/><use xlink:href="#c" x="454.437" y="59.004"/><use xlink:href="#d" x="464.437" y="59.004"/><use xlink:href="#r" x="474.437" y="59.004"/><use xlink:href="#s" x="484.437" y="59.004"/><path d="M351.355 28.004l10.622-.844 10.617-.89 10.62-.887 10.622-.875 10.621-.863v-1.66l-10.621 1.093-10.621 1.137-10.621 1.183-10.617 1.235zm0 5.34l10.622-.961 10.617-.988 10.62-.985 10.622-.965 10.621-.949v-2.125l-10.621 1.238-10.621 1.297-10.621 1.367-10.617 1.43zm0 59.574l10.622.082 10.617-.055 10.62-.074 10.622-.094 10.621-.101v-3.66l-10.621.71-10.621.735-10.621.75-10.617.777zm0 0" fill="gray" fill-opacity=".05"/><path d="M351.355 93.863l10.622.524 10.617.328 10.62.316 10.622.313 10.621.304V90.32l-10.621.63-10.621.644-10.621.664-10.617.695zm0 0" fill="gray" fill-opacity=".05"/><path d="M351.355 94.059l10.622-.102 10.617-.23 10.62-.25 10.622-.262 10.621-.281v-2.856l-10.621.734-10.621.754-10.621.77-10.617.793zm0 0" fill="gray" fill-opacity=".05"/><path d="M351.355 97.527l10.622-.285 10.617-.387 10.62-.41 10.622-.422 10.621-.433v-2.953l-10.621.894-10.621.918-10.621.953-10.617.985zm0 0" fill="gray" fill-opacity=".05"/><path d="M351.355 98.586l10.622-.285 10.617-.387 10.62-.41 10.622-.422 10.621-.434v-3.21l-10.621.925-10.621.961-10.621 1-10.617 1.031zm0 0" fill="gray" fill-opacity=".05"/><path d="M351.355 99.805l10.622-.188 10.617-.347 10.62-.372 10.622-.39 10.621-.403v-3.44l-10.621.929-10.621.96-10.621.993-10.617 1.039zm0 8.047l10.622-.586 10.617-.649 31.863-1.969v-1.433l-10.621.87-10.621.892-10.621.914-10.617.937zm0 0" fill="gray" fill-opacity=".05"/><path d="M351.355 108.898l10.622-.136 10.617-.293 10.62-.32 10.622-.34 10.621-.356v-3.91l-10.621.96-10.621.997-10.621 1.035-10.617 1.078zm0 0" fill="gray" fill-opacity=".05"/><path d="M351.355 108.898l10.622-.593 10.617-.711 10.62-.715 21.243-1.445v-2.524l-10.621 1.082-10.621 1.125-10.621 1.176-10.617 1.227zm0-56.226l10.622-.328 10.617-.367 10.62-.375 10.622-.383 10.621-.39v-1.52l-10.621.64-10.621.649-10.621.656-10.617.672zm0 0" fill="gray" fill-opacity=".05"/><path d="M412.2 236.32H25m0 0V4m0 0h387.2m0 0v232.32" fill="none" stroke-width=".5" stroke-linecap="square" stroke="#666" stroke-miterlimit="3.25"/><path d="M53.984 236.32v-5.379" fill="none" stroke-width=".5" stroke="#666" stroke-miterlimit="3.25"/><g fill="#666"><use xlink:href="#t" x="39.485" y="248.32"/><use xlink:href="#u" x="45.002" y="248.32"/><use xlink:href="#v" x="50.442" y="248.32"/></g><g fill="#666"><use xlink:href="#w" x="57.485" y="248.32"/><use xlink:href="#x" x="63.1" y="248.32"/></g><path d="M128.328 236.32v-5.379" fill="none" stroke-width=".5" stroke="#666" stroke-miterlimit="3.25"/><g fill="#666"><use xlink:href="#t" x="113.827" y="248.32"/><use xlink:href="#u" x="119.345" y="248.32"/><use xlink:href="#v" x="124.784" y="248.32"/></g><g fill="#666"><use xlink:href="#y" x="131.827" y="248.32"/><use xlink:href="#z" x="137.442" y="248.32"/></g><path d="M202.668 236.32v-5.379" fill="none" stroke-width=".5" stroke="#666" stroke-miterlimit="3.25"/><g fill="#666"><use xlink:href="#t" x="188.169" y="248.32"/><use xlink:href="#u" x="193.687" y="248.32"/><use xlink:href="#v" x="199.127" y="248.32"/></g><g fill="#666"><use xlink:href="#y" x="206.169" y="248.32"/><use xlink:href="#A" x="211.785" y="248.32"/></g><path d="M277.012 236.32v-5.379" fill="none" stroke-width=".5" stroke="#666" stroke-miterlimit="3.25"/><g fill="#666"><use xlink:href="#B" x="262.512" y="248.32"/><use xlink:href="#C" x="268.039" y="248.32"/><use xlink:href="#D" x="273.337" y="248.32"/></g><g fill="#666"><use xlink:href="#z" x="280.512" y="248.32"/><use xlink:href="#x" x="286.127" y="248.32"/></g><path d="M351.355 236.32v-5.379" fill="none" stroke-width=".5" stroke="#666" stroke-miterlimit="3.25"/><g fill="#666"><use xlink:href="#B" x="336.854" y="248.32"/><use xlink:href="#C" x="342.382" y="248.32"/><use xlink:href="#D" x="347.679" y="248.32"/></g><g fill="#666"><use xlink:href="#w" x="354.854" y="248.32"/><use xlink:href="#z" x="360.47" y="248.32"/></g><path d="M25 220.68h3.871" fill="none" stroke-width=".1" stroke="#666" stroke-miterlimit="3.25"/><use xlink:href="#w" x="16" y="223.18" fill="#666"/><path d="M25 179.074h3.871" fill="none" stroke-width=".1" stroke="#666" stroke-miterlimit="3.25"/><g fill="#666"><use xlink:href="#w" x="11" y="181.574"/><use xlink:href="#z" x="16.615" y="181.574"/></g><path d="M25 137.469h3.871" fill="none" stroke-width=".1" stroke="#666" stroke-miterlimit="3.25"/><g fill="#666"><use xlink:href="#w" x="5" y="139.968"/><use xlink:href="#z" x="10.615" y="139.968"/><use xlink:href="#z" x="16.23" y="139.968"/></g><path d="M25 95.863h3.871" fill="none" stroke-width=".1" stroke="#666" stroke-miterlimit="3.25"/><g fill="#666"><use xlink:href="#w" y="98.362"/><use xlink:href="#z" x="5.615" y="98.362"/><use xlink:href="#z" x="11.23" y="98.362"/><use xlink:href="#z" x="16.846" y="98.362"/></g><path d="M25 54.258h3.871" fill="none" stroke-width=".1" stroke="#666" stroke-miterlimit="3.25"/><g fill="#666"><use xlink:href="#w" x="5" y="58.256"/><use xlink:href="#z" x="10.615" y="58.256"/></g><use xlink:href="#E" x="16" y="54.256" fill="#666"/><path d="M25 12.652h3.871" fill="none" stroke-width=".1" stroke="#666" stroke-miterlimit="3.25"/><g fill="#666"><use xlink:href="#w" x="5" y="16.651"/><use xlink:href="#z" x="10.615" y="16.651"/></g><use xlink:href="#F" x="16" y="12.651" fill="#666"/><path d="M25 233.203h2.398M25 229.91h2.398M25 227.125h2.398M25 224.71h2.398M25 222.582h2.398M25 208.156h2.398M25 200.828h2.398M25 195.629h2.398M25 191.598h2.398M25 188.305h2.398M25 185.52h2.398M25 183.105h2.398M25 180.977h2.398M25 166.55h2.398M25 159.223h2.398m-2.398-5.2h2.398M25 149.992h2.398M25 146.7h2.398M25 143.914h2.398M25 141.5h2.398M25 139.371h2.398M25 124.945h2.398M25 117.617h2.398M25 112.418h2.398M25 108.387h2.398M25 105.094h2.398M25 102.309h2.398M25 99.895h2.398M25 97.766h2.398M25 83.336h2.398M25 76.012h2.398M25 70.813h2.398M25 66.781h2.398M25 63.488h2.398M25 60.703h2.398M25 58.29h2.398M25 56.16h2.398M25 41.73h2.398M25 34.406h2.398M25 29.207h2.398M25 25.176h2.398M25 21.879h2.398M25 19.094h2.398M25 16.684h2.398M25 14.555h2.398" fill="none" stroke-width=".1" stroke="#666" stroke-miterlimit="3.25"/><path d="M53.984 4v5.379M128.328 4v5.379M202.668 4v5.379M277.012 4v5.379M351.355 4v5.379" fill="none" stroke-width=".5" stroke="#666" stroke-miterlimit="3.25"/><path d="M412.2 220.68h-3.872m3.872-41.606h-3.872m3.872-41.605h-3.872m3.872-41.606h-3.872m3.872-41.605h-3.872m3.872-41.606h-3.872m3.872 220.551h-2.4m2.4-3.293h-2.4m2.4-2.785h-2.4m2.4-2.415h-2.4m2.4-2.128h-2.4m2.4-14.426h-2.4m2.4-7.328h-2.4m2.4-5.199h-2.4m2.4-4.031h-2.4m2.4-3.293h-2.4m2.4-2.785h-2.4m2.4-2.415h-2.4m2.4-2.128h-2.4m2.4-14.427h-2.4m2.4-7.327h-2.4m2.4-5.2h-2.4m2.4-4.031h-2.4m2.4-3.292h-2.4m2.4-2.786h-2.4m2.4-2.414h-2.4m2.4-2.129h-2.4m2.4-14.426h-2.4m2.4-7.328h-2.4m2.4-5.199h-2.4m2.4-4.031h-2.4m2.4-3.293h-2.4m2.4-2.785h-2.4m2.4-2.414h-2.4m2.4-2.129h-2.4m2.4-14.43h-2.4m2.4-7.324h-2.4m2.4-5.199h-2.4m2.4-4.032h-2.4m2.4-3.293h-2.4m2.4-2.785h-2.4m2.4-2.413h-2.4m2.4-2.13h-2.4m2.4-14.43h-2.4m2.4-7.324h-2.4m2.4-5.199h-2.4m2.4-4.031h-2.4m2.4-3.297h-2.4m2.4-2.785h-2.4m2.4-2.41h-2.4m2.4-2.129h-2.4" fill="none" stroke-width=".1" stroke="#666" stroke-miterlimit="3.25"/></svg>