<svg xmlns="http://www.w3.org/2000/svg" xmlns:xlink="http://www.w3.org/1999/xlink" width="500pt" height="404" viewBox="0 0 500 303"><defs><clipPath id="a"><path d="M33 4h2v282h-2zm0 0"/></clipPath><clipPath id="b"><path d="M42 4h2v282h-2zm0 0"/></clipPath><clipPath id="c"><path d="M51 4h2v282h-2zm0 0"/></clipPath><clipPath id="d"><path d="M60 4h2v282h-2zm0 0"/></clipPath><clipPath id="e"><path d="M69 4h2v282h-2zm0 0"/></clipPath><clipPath id="f"><path d="M79 4h2v282h-2zm0 0"/></clipPath><clipPath id="g"><path d="M88 4h2v282h-2zm0 0"/></clipPath><clipPath id="h"><path d="M97 4h2v282h-2zm0 0"/></clipPath><clipPath id="i"><path d="M106 4h2v282h-2zm0 0"/></clipPath><clipPath id="j"><path d="M115 4h2v282h-2zm0 0"/></clipPath><clipPath id="k"><path d="M124 4h2v282h-2zm0 0"/></clipPath><clipPath id="l"><path d="M133 4h2v282h-2zm0 0"/></clipPath><clipPath id="m"><path d="M142 4h2v282h-2zm0 0"/></clipPath><clipPath id="n"><path d="M151 4h2v282h-2zm0 0"/></clipPath><clipPath id="o"><path d="M160 4h2v282h-2zm0 0"/></clipPath><clipPath id="p"><path d="M169 4h2v282h-2zm0 0"/></clipPath><clipPath id="q"><path d="M178 4h2v282h-2zm0 0"/></clipPath><clipPath id="r"><path d="M187 4h2v282h-2zm0 0"/></clipPath><clipPath id="s"><path d="M196 4h2v282h-2zm0 0"/></clipPath><clipPath id="t"><path d="M205 4h2v282h-2zm0 0"/></clipPath><clipPath id="u"><path d="M214 4h2v282h-2zm0 0"/></clipPath><clipPath id="v"><path d="M223 4h2v282h-2zm0 0"/></clipPath><clipPath id="w"><path d="M232 4h2v282h-2zm0 0"/></clipPath><clipPath id="x"><path d="M241 4h2v282h-2zm0 0"/></clipPath><clipPath id="y"><path d="M250 4h2v282h-2zm0 0"/></clipPath><clipPath id="z"><path d="M259 4h2v282h-2zm0 0"/></clipPath><clipPath id="A"><path d="M268 4h2v282h-2zm0 0"/></clipPath><clipPath id="B"><path d="M277 4h2v282h-2zm0 0"/></clipPath><clipPath id="C"><path d="M286 4h2v282h-2zm0 0"/></clipPath><clipPath id="D"><path d="M295 4h2v282h-2zm0 0"/></clipPath><clipPath id="E"><path d="M304 4h2v282h-2zm0 0"/></clipPath><clipPath id="F"><path d="M313 4h2v282h-2zm0 0"/></clipPath><clipPath id="G"><path d="M322 4h2v282h-2zm0 0"/></clipPath><clipPath id="H"><path d="M331 4h2v282h-2zm0 0"/></clipPath><clipPath id="I"><path d="M340 4h2v282h-2zm0 0"/></clipPath><clipPath id="J"><path d="M349 4h2v282h-2zm0 0"/></clipPath><clipPath id="K"><path d="M358 4h2v282h-2zm0 0"/></clipPath><clipPath id="L"><path d="M367 4h2v282h-2zm0 0"/></clipPath><clipPath id="M"><path d="M376 4h2v282h-2zm0 0"/></clipPath><clipPath id="N"><path d="M385 4h2v282h-2zm0 0"/></clipPath><clipPath id="O"><path d="M394 4h2v282h-2zm0 0"/></clipPath><clipPath id="P"><path d="M403 4h2v282h-2zm0 0"/></clipPath><clipPath id="Q"><path d="M412 4h2v282h-2zm0 0"/></clipPath><clipPath id="R"><path d="M421 4h2v282h-2zm0 0"/></clipPath><clipPath id="S"><path d="M430 4h2v282h-2zm0 0"/></clipPath><clipPath id="T"><path d="M439 4h2v282h-2zm0 0"/></clipPath><clipPath id="U"><path d="M449 4h2v282h-2zm0 0"/></clipPath><clipPath id="V"><path d="M458 4h2v282h-2zm0 0"/></clipPath><clipPath id="W"><path d="M467 4h2v282h-2zm0 0"/></clipPath><clipPath id="X"><path d="M476 4h2v282h-2zm0 0"/></clipPath><clipPath id="Y"><path d="M485 4h2v282h-2zm0 0"/></clipPath><clipPath id="Z"><path d="M494 4h1v282h-1zm0 0"/></clipPath><clipPath id="aa"><path d="M25 251h470v2H25zm0 0"/></clipPath><clipPath id="ab"><path d="M25 214h470v2H25zm0 0"/></clipPath><clipPath id="ac"><path d="M25 178h470v2H25zm0 0"/></clipPath><clipPath id="ad"><path d="M25 141h470v2H25zm0 0"/></clipPath><clipPath id="ae"><path d="M25 104h470v2H25zm0 0"/></clipPath><clipPath id="af"><path d="M25 68h470v2H25zm0 0"/></clipPath><clipPath id="ag"><path d="M25 31h470v2H25zm0 0"/></clipPath><symbol overflow="visible" id="ah"><path d="M3.805-7.11h.941v5.036c0 .68-.203 1.21-.613 1.597-.406.383-.953.575-1.633.575-.707 0-1.258-.18-1.648-.543-.395-.36-.594-.867-.594-1.516h.937c0 .406.114.723.336.95.223.23.547.343.969.343.387 0 .7-.121.941-.367.239-.246.36-.586.364-1.028zm0 0"/></symbol><symbol overflow="visible" id="ai"><path d="M3.945 0c-.05-.105-.093-.29-.125-.555-.422.434-.922.653-1.507.653-.52 0-.946-.149-1.282-.442a1.438 1.438 0 01-.5-1.12c0-.552.211-.977.63-1.282.417-.305 1.007-.457 1.765-.457h.879v-.414c0-.317-.094-.567-.285-.754-.188-.188-.465-.281-.833-.281-.324 0-.593.082-.812.242-.219.164-.328.36-.328.59H.64c0-.262.093-.516.28-.762.188-.246.442-.441.763-.582.32-.145.671-.219 1.054-.219.61 0 1.086.153 1.434.457.344.305.523.727.535 1.258v2.434c0 .484.063.87.184 1.156V0zm-1.5-.688c.285 0 .555-.074.805-.218a1.35 1.35 0 00.555-.574v-1.083h-.711c-1.106 0-1.656.325-1.656.97 0 .284.093.507.28.663.188.16.43.243.727.243zm0 0"/></symbol><symbol overflow="visible" id="aj"><path d="M1.54-5.281l.026.664a1.93 1.93 0 011.582-.766c1.118 0 1.68.633 1.692 1.89V0h-.902v-3.496c-.004-.379-.094-.664-.262-.844-.172-.183-.438-.273-.801-.273-.293 0-.55.078-.77.234a1.59 1.59 0 00-.52.613V0h-.9v-5.281zm0 0"/></symbol><symbol overflow="visible" id="ak"><path d="M3.559 0h-.907v-6.02l-1.824.668v-.82l2.59-.973h.14zm0 0"/></symbol><symbol overflow="visible" id="al"><path d="M1.906-3.992h.676c.426-.008.762-.121 1.008-.34.242-.219.363-.512.363-.883 0-.832-.414-1.25-1.242-1.25-.39 0-.703.113-.938.336-.23.223-.347.516-.347.887H.523c0-.563.204-1.031.618-1.406.41-.372.933-.559 1.57-.559.672 0 1.195.176 1.578.531.379.356.57.848.57 1.48 0 .31-.101.61-.3.9a1.81 1.81 0 01-.817.648c.39.125.692.328.903.617.214.285.32.636.32 1.047 0 .64-.207 1.144-.625 1.52-.418.374-.957.562-1.625.562s-1.211-.18-1.63-.543c-.417-.36-.624-.836-.624-1.43h.906c0 .375.121.672.367.898.243.227.57.336.98.336.438 0 .77-.113 1-.34.231-.23.349-.554.349-.98 0-.414-.125-.734-.383-.953-.254-.223-.618-.336-1.098-.344h-.676zm0 0"/></symbol><symbol overflow="visible" id="am"><path d="M5.25 0H.59v-.648l2.46-2.735c.364-.414.618-.75.755-1.008.14-.257.21-.527.21-.804 0-.371-.113-.676-.34-.914-.222-.239-.523-.356-.898-.356-.449 0-.797.13-1.047.383-.25.254-.37.613-.37 1.066H.452c0-.652.211-1.183.633-1.586.422-.402.984-.605 1.691-.605.66 0 1.184.172 1.567.52.386.347.578.808.578 1.382 0 .703-.445 1.535-1.336 2.5L1.68-.738h3.57zm0 0"/></symbol><symbol overflow="visible" id="an"><path d="M5.18-6.602L2.234 0H1.29l2.934-6.367H.375v-.742H5.18zm0 0"/></symbol><symbol overflow="visible" id="ao"><path d="M4.746-3.14H1.762V0H.824v-7.11H5.23v.774H1.762v2.43h2.984zm0 0"/></symbol><symbol overflow="visible" id="ap"><path d="M2.875.098c-.715 0-1.297-.235-1.746-.707-.45-.47-.676-1.098-.676-1.887v-.164c0-.524.102-.992.3-1.406.2-.41.481-.735.84-.965.36-.235.75-.352 1.173-.352.687 0 1.218.227 1.601.68.38.453.57 1.101.57 1.945v.375H1.36c.012.52.164.942.454 1.262.292.32.664.48 1.113.48.316 0 .59-.062.808-.195.223-.129.414-.3.582-.516l.551.43c-.441.68-1.105 1.02-1.992 1.02zm-.11-4.739a1.21 1.21 0 00-.921.399c-.246.265-.399.64-.457 1.117H4.03v-.07c-.023-.457-.148-.813-.367-1.067-.223-.25-.523-.379-.898-.379zm0 0"/></symbol><symbol overflow="visible" id="aq"><path d="M5.156-2.582c0 .809-.187 1.453-.554 1.945-.372.489-.872.735-1.497.735-.667 0-1.183-.235-1.546-.707L1.516 0H.684v-7.5h.902v2.797c.367-.453.867-.68 1.508-.68.64 0 1.148.246 1.511.73.368.485.551 1.15.551 1.993zm-.902-.106c0-.613-.121-1.09-.356-1.421-.238-.336-.582-.504-1.027-.504-.598 0-1.023.277-1.285.828V-1.5c.277.555.71.832 1.297.832.43 0 .77-.168 1.008-.504.242-.336.363-.84.363-1.516zm0 0"/></symbol><symbol overflow="visible" id="ar"><path d="M5.047-3.031c0 1.058-.18 1.844-.54 2.36-.362.51-.925.769-1.694.769-.758 0-1.32-.25-1.684-.754C.766-1.16.574-1.91.562-2.91v-1.207c0-1.043.18-1.82.54-2.328.363-.508.93-.762 1.703-.762.765 0 1.328.246 1.687.734.36.489.547 1.246.555 2.27zm-.902-1.235c0-.765-.106-1.324-.32-1.675-.216-.348-.555-.524-1.02-.524-.465 0-.801.176-1.012.524-.211.347-.32.882-.328 1.605v1.445c0 .77.113 1.336.336 1.704.222.367.558.546 1.012.546.445 0 .777-.171.992-.515.218-.344.332-.89.34-1.633zm0 0"/></symbol><symbol overflow="visible" id="as"><path d="M4.406-2.387h.985v.739h-.985V0h-.91v-1.648H.258v-.536L3.44-7.109h.965zm-3.12 0h2.21v-3.488l-.105.195zm0 0"/></symbol><symbol overflow="visible" id="at"><path d="M.703-.473c0-.156.047-.289.14-.39.095-.106.231-.157.415-.157.187 0 .328.051.426.157a.567.567 0 01.144.39c0 .149-.05.274-.144.375-.098.102-.239.153-.426.153-.184 0-.324-.051-.414-.153a.532.532 0 01-.14-.375zm0 0"/></symbol><symbol overflow="visible" id="au"><path d="M3.965-2.148h.887v.664h-.887V0h-.817v-1.484H.234v-.48l2.864-4.434h.867zm-2.809 0h1.992v-3.137l-.097.176zm0 0"/></symbol></defs><g clip-path="url(#a)"><path d="M34.398 286V4" fill="none" stroke="#666" stroke-opacity=".5" stroke-dasharray="1,2" stroke-miterlimit="3.25"/></g><g clip-path="url(#b)"><path d="M43.426 286V4" fill="none" stroke="#666" stroke-opacity=".5" stroke-dasharray="1,2" stroke-miterlimit="3.25"/></g><g clip-path="url(#c)"><path d="M52.45 286V4" fill="none" stroke="#666" stroke-opacity=".5" stroke-dasharray="1,2" stroke-miterlimit="3.25"/></g><g clip-path="url(#d)"><path d="M61.473 286V4" fill="none" stroke="#666" stroke-opacity=".5" stroke-dasharray="1,2" stroke-miterlimit="3.25"/></g><g clip-path="url(#e)"><path d="M70.496 286V4" fill="none" stroke="#666" stroke-opacity=".5" stroke-dasharray="1,2" stroke-miterlimit="3.25"/></g><g clip-path="url(#f)"><path d="M79.52 286V4" fill="none" stroke="#666" stroke-opacity=".5" stroke-dasharray="1,2" stroke-miterlimit="3.25"/></g><g clip-path="url(#g)"><path d="M88.543 286V4" fill="none" stroke="#666" stroke-opacity=".5" stroke-dasharray="1,2" stroke-miterlimit="3.25"/></g><g clip-path="url(#h)"><path d="M97.566 286V4" fill="none" stroke="#666" stroke-opacity=".5" stroke-dasharray="1,2" stroke-miterlimit="3.25"/></g><g clip-path="url(#i)"><path d="M106.594 286V4" fill="none" stroke="#666" stroke-opacity=".5" stroke-dasharray="1,2" stroke-miterlimit="3.25"/></g><g clip-path="url(#j)"><path d="M115.617 286V4" fill="none" stroke="#666" stroke-opacity=".5" stroke-dasharray="1,2" stroke-miterlimit="3.25"/></g><g clip-path="url(#k)"><path d="M124.64 286V4" fill="none" stroke="#666" stroke-opacity=".5" stroke-dasharray="1,2" stroke-miterlimit="3.25"/></g><g clip-path="url(#l)"><path d="M133.664 286V4" fill="none" stroke="#666" stroke-opacity=".5" stroke-dasharray="1,2" stroke-miterlimit="3.25"/></g><g clip-path="url(#m)"><path d="M142.688 286V4" fill="none" stroke="#666" stroke-opacity=".5" stroke-dasharray="1,2" stroke-miterlimit="3.25"/></g><g clip-path="url(#n)"><path d="M151.71 286V4" fill="none" stroke="#666" stroke-opacity=".5" stroke-dasharray="1,2" stroke-miterlimit="3.25"/></g><g clip-path="url(#o)"><path d="M160.734 286V4" fill="none" stroke="#666" stroke-opacity=".5" stroke-dasharray="1,2" stroke-miterlimit="3.25"/></g><g clip-path="url(#p)"><path d="M169.762 286V4" fill="none" stroke="#666" stroke-opacity=".5" stroke-dasharray="1,2" stroke-miterlimit="3.25"/></g><g clip-path="url(#q)"><path d="M178.785 286V4" fill="none" stroke="#666" stroke-opacity=".5" stroke-dasharray="1,2" stroke-miterlimit="3.25"/></g><g clip-path="url(#r)"><path d="M187.809 286V4" fill="none" stroke="#666" stroke-opacity=".5" stroke-dasharray="1,2" stroke-miterlimit="3.25"/></g><g clip-path="url(#s)"><path d="M196.832 286V4" fill="none" stroke="#666" stroke-opacity=".5" stroke-dasharray="1,2" stroke-miterlimit="3.25"/></g><g clip-path="url(#t)"><path d="M205.855 286V4" fill="none" stroke="#666" stroke-opacity=".5" stroke-dasharray="1,2" stroke-miterlimit="3.25"/></g><g clip-path="url(#u)"><path d="M214.879 286V4" fill="none" stroke="#666" stroke-opacity=".5" stroke-dasharray="1,2" stroke-miterlimit="3.25"/></g><g clip-path="url(#v)"><path d="M223.902 286V4" fill="none" stroke="#666" stroke-opacity=".5" stroke-dasharray="1,2" stroke-miterlimit="3.25"/></g><g clip-path="url(#w)"><path d="M232.93 286V4" fill="none" stroke="#666" stroke-opacity=".5" stroke-dasharray="1,2" stroke-miterlimit="3.25"/></g><g clip-path="url(#x)"><path d="M241.953 286V4" fill="none" stroke="#666" stroke-opacity=".5" stroke-dasharray="1,2" stroke-miterlimit="3.25"/></g><g clip-path="url(#y)"><path d="M250.977 286V4" fill="none" stroke="#666" stroke-opacity=".5" stroke-dasharray="1,2" stroke-miterlimit="3.25"/></g><g clip-path="url(#z)"><path d="M260 286V4" fill="none" stroke="#666" stroke-opacity=".5" stroke-dasharray="1,2" stroke-miterlimit="3.25"/></g><g clip-path="url(#A)"><path d="M269.023 286V4" fill="none" stroke="#666" stroke-opacity=".5" stroke-dasharray="1,2" stroke-miterlimit="3.25"/></g><g clip-path="url(#B)"><path d="M278.047 286V4" fill="none" stroke="#666" stroke-opacity=".5" stroke-dasharray="1,2" stroke-miterlimit="3.25"/></g><g clip-path="url(#C)"><path d="M287.07 286V4" fill="none" stroke="#666" stroke-opacity=".5" stroke-dasharray="1,2" stroke-miterlimit="3.25"/></g><g clip-path="url(#D)"><path d="M296.098 286V4" fill="none" stroke="#666" stroke-opacity=".5" stroke-dasharray="1,2" stroke-miterlimit="3.25"/></g><g clip-path="url(#E)"><path d="M305.121 286V4" fill="none" stroke="#666" stroke-opacity=".5" stroke-dasharray="1,2" stroke-miterlimit="3.25"/></g><g clip-path="url(#F)"><path d="M314.145 286V4" fill="none" stroke="#666" stroke-opacity=".5" stroke-dasharray="1,2" stroke-miterlimit="3.25"/></g><g clip-path="url(#G)"><path d="M323.168 286V4" fill="none" stroke="#666" stroke-opacity=".5" stroke-dasharray="1,2" stroke-miterlimit="3.25"/></g><g clip-path="url(#H)"><path d="M332.191 286V4" fill="none" stroke="#666" stroke-opacity=".5" stroke-dasharray="1,2" stroke-miterlimit="3.25"/></g><g clip-path="url(#I)"><path d="M341.215 286V4" fill="none" stroke="#666" stroke-opacity=".5" stroke-dasharray="1,2" stroke-miterlimit="3.25"/></g><g clip-path="url(#J)"><path d="M350.238 286V4" fill="none" stroke="#666" stroke-opacity=".5" stroke-dasharray="1,2" stroke-miterlimit="3.25"/></g><g clip-path="url(#K)"><path d="M359.266 286V4" fill="none" stroke="#666" stroke-opacity=".5" stroke-dasharray="1,2" stroke-miterlimit="3.25"/></g><g clip-path="url(#L)"><path d="M368.29 286V4" fill="none" stroke="#666" stroke-opacity=".5" stroke-dasharray="1,2" stroke-miterlimit="3.25"/></g><g clip-path="url(#M)"><path d="M377.313 286V4" fill="none" stroke="#666" stroke-opacity=".5" stroke-dasharray="1,2" stroke-miterlimit="3.25"/></g><g clip-path="url(#N)"><path d="M386.336 286V4" fill="none" stroke="#666" stroke-opacity=".5" stroke-dasharray="1,2" stroke-miterlimit="3.25"/></g><g clip-path="url(#O)"><path d="M395.36 286V4" fill="none" stroke="#666" stroke-opacity=".5" stroke-dasharray="1,2" stroke-miterlimit="3.25"/></g><g clip-path="url(#P)"><path d="M404.383 286V4" fill="none" stroke="#666" stroke-opacity=".5" stroke-dasharray="1,2" stroke-miterlimit="3.25"/></g><g clip-path="url(#Q)"><path d="M413.406 286V4" fill="none" stroke="#666" stroke-opacity=".5" stroke-dasharray="1,2" stroke-miterlimit="3.25"/></g><g clip-path="url(#R)"><path d="M422.434 286V4" fill="none" stroke="#666" stroke-opacity=".5" stroke-dasharray="1,2" stroke-miterlimit="3.25"/></g><g clip-path="url(#S)"><path d="M431.457 286V4" fill="none" stroke="#666" stroke-opacity=".5" stroke-dasharray="1,2" stroke-miterlimit="3.25"/></g><g clip-path="url(#T)"><path d="M440.48 286V4" fill="none" stroke="#666" stroke-opacity=".5" stroke-dasharray="1,2" stroke-miterlimit="3.25"/></g><g clip-path="url(#U)"><path d="M449.504 286V4" fill="none" stroke="#666" stroke-opacity=".5" stroke-dasharray="1,2" stroke-miterlimit="3.25"/></g><g clip-path="url(#V)"><path d="M458.527 286V4" fill="none" stroke="#666" stroke-opacity=".5" stroke-dasharray="1,2" stroke-miterlimit="3.25"/></g><g clip-path="url(#W)"><path d="M467.55 286V4" fill="none" stroke="#666" stroke-opacity=".5" stroke-dasharray="1,2" stroke-miterlimit="3.25"/></g><g clip-path="url(#X)"><path d="M476.574 286V4" fill="none" stroke="#666" stroke-opacity=".5" stroke-dasharray="1,2" stroke-miterlimit="3.25"/></g><g clip-path="url(#Y)"><path d="M485.602 286V4" fill="none" stroke="#666" stroke-opacity=".5" stroke-dasharray="1,2" stroke-miterlimit="3.25"/></g><g clip-path="url(#Z)"><path d="M494.625 286V4" fill="none" stroke="#666" stroke-opacity=".5" stroke-dasharray="1,2" stroke-miterlimit="3.25"/></g><g clip-path="url(#aa)"><path d="M25 251.793h470" fill="none" stroke="#666" stroke-opacity=".5" stroke-dasharray="1,2" stroke-miterlimit="3.25"/></g><g clip-path="url(#ab)"><path d="M25 215.207h470" fill="none" stroke="#666" stroke-opacity=".5" stroke-dasharray="1,2" stroke-miterlimit="3.25"/></g><g clip-path="url(#ac)"><path d="M25 178.621h470" fill="none" stroke="#666" stroke-opacity=".5" stroke-dasharray="1,2" stroke-miterlimit="3.25"/></g><g clip-path="url(#ad)"><path d="M25 142.04h470" fill="none" stroke="#666" stroke-opacity=".5" stroke-dasharray="1,2" stroke-miterlimit="3.25"/></g><g clip-path="url(#ae)"><path d="M25 105.453h470" fill="none" stroke="#666" stroke-opacity=".5" stroke-dasharray="1,2" stroke-miterlimit="3.25"/></g><g clip-path="url(#af)"><path d="M25 68.867h470" fill="none" stroke="#666" stroke-opacity=".5" stroke-dasharray="1,2" stroke-miterlimit="3.25"/></g><g clip-path="url(#ag)"><path d="M25 32.285h470" fill="none" stroke="#666" stroke-opacity=".5" stroke-dasharray="1,2" stroke-miterlimit="3.25"/></g><path d="M440.48 83.191l9.024-15.492 9.023-4.183 9.024-1.684 9.023-.758 9.028-.351" fill="none" stroke-width="1.6" stroke-linecap="square" stroke="#a60000" stroke-opacity=".3" stroke-miterlimit="3.25"/><path d="M440.48 83.387l9.024-14.207 9.023-3.621 9.024-1.344 9.023-.547 9.028-.234" fill="none" stroke-width="1.6" stroke-linecap="square" stroke="#0d86a0" stroke-opacity=".3" stroke-miterlimit="3.25"/><path d="M449.504 186.621h36.098" fill="none" stroke-width="1.6" stroke-linecap="square" stroke="#c05c20" stroke-opacity=".3" stroke-miterlimit="3.25"/><path d="M449.504 267.016h36.098" fill="none" stroke-width="1.6" stroke-linecap="square" stroke="#3664cc" stroke-opacity=".3" stroke-miterlimit="3.25"/><path d="M440.48 178.621l9.024-44.476h36.098" fill="none" stroke-width="1.6" stroke-linecap="square" stroke="#833987" stroke-opacity=".3" stroke-miterlimit="3.25"/><path d="M449.504 199.39h36.098" fill="none" stroke-width="1.6" stroke-linecap="square" stroke="#a54f05" stroke-opacity=".3" stroke-miterlimit="3.25"/><path d="M440.48 153.05l9.024-.347 9.023-.344 9.024-.332 9.023-.328 9.028-.32" fill="none" stroke-width="1.6" stroke-linecap="square" stroke="#6846c7" stroke-opacity=".3" stroke-miterlimit="3.25"/><path d="M79.52 156.598l9.023-22.993 9.023-19.77 9.028-4.433 9.023-2.625 9.024-7.66 9.023 2.047 9.024-10.832 9.023-8.562 9.023-6.961 9.028-1.766 9.023-13.254 9.024 3.078 9.023-2.773L205.855 58l9.024-.934 9.023-3.32 9.028-1.402 9.023-2.13 9.024-2.917 9.023.808 9.023 2.567 9.024-1.242 9.023 3.918 9.028-2.258 9.023 3.32 9.024 3.328 9.023-30.925 9.023 16.199 9.024 10.425 9.023 4.348 9.028-.308 9.023 1.312 9.024 1.195 9.023 12.036 9.023-1.282 9.024 12.809 9.023-7.785 9.028 7.312 9.023-3.445 9.023 3.562" fill="none" stroke-width="1.6" stroke-linecap="square" stroke="#a60000" stroke-miterlimit="3.25"/><path d="M79.52 156.598l9.023-22.993 9.023-19.77 9.028-4.23 9.023 1.067 9.024-5.992 9.023 6.668 9.024-6.668 9.023-8.567 9.023-9.289 9.028-2.203 9.023-19.812 9.024 6.828 9.023-3.27 9.023-2.66 9.024-1.57 9.023-5.64 9.028-1.438 9.023-1.73 9.024-4.72 9.023.871 9.023 3.168 9.024-2.37 9.023 4.449 9.028-3.149 9.023 3.524 9.024 3.925 9.023-33.859 9.023 16.703 9.024 10.957 9.023 4.324 9.028-.754 9.023 1.07 9.024 1.036 9.023 12.414 9.023 3.266 9.024 8.656 9.023-8.63 9.028 7.298 9.023-3.594 9.023 3.473" fill="none" stroke-width="1.6" stroke-linecap="square" stroke="#0d86a0" stroke-miterlimit="3.25"/><path d="M106.594 178.621l9.023-40.75 9.024 1.27 9.023 11.011 9.024-19.902 9.023-2.77 9.023 3.543 9.028-13.91 9.023 2.125 9.024-3.699 9.023-4.418 9.023-2.516 9.024-6.949 9.023 6.567 9.028.976 9.023-5.828 9.024 7.082 9.023-.215h9.023l9.024 4.145 9.023 3.758 9.028 5.921 9.023 2.793 9.024-7.617 9.023 10.274 9.023 1.511 9.024-7.957 9.023 6.446 9.028 20.64h9.023l9.024 11.016 9.023 17.453h9.023l9.024-28.469 9.023 11.016h9.028l9.023 6.441" fill="none" stroke-width="1.6" stroke-linecap="square" stroke="#c05c20" stroke-miterlimit="3.25"/><path d="M124.64 178.621l9.024-22.023h9.024l9.023-27.793 9.023-12.653 9.028 1.989 9.023 1.87 9.024.817 9.023-10.156 9.023-.434 9.024.883 9.023-.226 9.028-.442 9.023-6.371 9.024 3.223 9.023.36 9.023 5.128 9.024-.977 9.023 3.723 9.028 4.473 9.023 3.547 9.024 1.023 9.023-1.988 9.023 13 9.024-9.914 9.023 6.16 9.028 3.754 9.023 4.93 9.024 12.527 9.023 3.547 9.023 11.011 9.024-6.441h9.023l9.028 17.453" fill="none" stroke-width="1.6" stroke-linecap="square" stroke="#6f42b5" stroke-miterlimit="3.25"/><path d="M124.64 153.05h9.024l9.024-29.984 9.023 8.774 9.023-12.602 9.028 8.89 9.023-9.987 9.024-15.977 9.023-1.121 9.023 3.039 9.024 8.965h9.023l9.028-.254 9.023-8.113 9.024 7.375 9.023 1.78 9.023 2.009 9.024 3.394 9.023 7.02 9.028-1.137 9.023 2.36 9.024 9.21h9.023l9.023 5.348 9.024 5.664 9.023 5.348 9.028 3.547 9.023 22.023h9.024l9.023-11.012 9.023-41.93 9.024 41.93" fill="none" stroke-width="1.6" stroke-linecap="square" stroke="#769003" stroke-miterlimit="3.25"/><path d="M124.64 178.621l9.024-33.039 9.024-9.988 9.023-3.754 9.023-4.985 9.028-2.793 9.023-5.199 9.024-9.46 9.023 5.261 9.023.29 9.024-.571 9.023-4.145 9.028 3.871 9.023-3.437 9.024.91 9.023 4.883 9.023-3.156 9.024 10.754 9.023-1.93 9.028-2.512 9.023 3.445 9.024-.472 9.023 6.918 9.023 1.511 9.024 6.848 9.023 23.297 9.028 6.441 9.023 11.012h9.024l9.023-11.012 9.023 11.012 9.024-11.012 9.023-6.441" fill="none" stroke-width="1.6" stroke-linecap="square" stroke="#a8364d" stroke-miterlimit="3.25"/><path d="M133.664 178.621l9.024-41.93 9.023-8.562 9.023 2.121 9.028 11.79 9.023-20.352 9.024-3.895 9.023-.68 9.023 4.137 9.024-7.68 9.023 5.293 9.028-7.281 9.023-.91 9.024 5.793 9.023-3.156 9.023-3.07 9.024 1.343 9.023 6.211 9.028-1.64 9.023 8.429 9.024.54 9.023 5.128 9.023-2.121 9.024 6.441 9.023 4.57 9.028 1.383 9.023 3.188 9.024 12.887 9.023 22.023h18.047" fill="none" stroke-width="1.6" stroke-linecap="square" stroke="#3664cc" stroke-miterlimit="3.25"/><path d="M124.64 167.61l9.024 11.011 9.024-22.023 9.023-16.075 9.023-7.824 9.028 6.442 9.023-11.012 9.024-6.879 9.023-5.71 9.023-5.935 9.024 7.844h9.023l9.028-3.613 9.023-5.8 9.024 2.636 9.023 5.172 9.023-2.535 9.024 7.941 9.023-2.012 9.028 4.32h9.023l9.024-3.546 9.023 5.668h9.023l9.024 12.191 9.023 1.27 9.028 13.91 9.023 8.117 9.024 17.453h9.023" fill="none" stroke-width="1.6" stroke-linecap="square" stroke="#c8860a" stroke-miterlimit="3.25"/><path d="M124.64 178.621l9.024-25.57 9.024 8.117 9.023-22.027 9.023-6.442 9.028-4.57h9.023l9.024-5.535 9.023 5.535 9.023-5.063 9.024 5.063 9.023.676 9.028 1.445 9.023-2.121 9.024-2.45 9.023-7.538 9.023 3.546 9.024 3.993h9.023l9.028 2.449 9.023-1.871 9.024 14.265 9.023 3.188 9.023-5.84 9.024 2.652 9.023 7.18 9.028 8.895 18.046 22.023 9.024-11.012 9.023-73.328 9.024 73.328 9.023-11.011 9.028 22.023" fill="none" stroke-width="1.6" stroke-linecap="square" stroke="#833987" stroke-miterlimit="3.25"/><path d="M133.664 178.621l9.024-33.039 9.023-1.871 9.023-5.84 9.028-3.3 9.023-5.766 9.024-3.684 9.023-.539 9.023-4.168 9.024 2.18h9.023l9.028-.461 9.023-.883 9.024 1.816 9.023.493 9.023-1.426 9.024 1.93 9.023 1.058 9.028 3.008 9.023.676 9.024-3.125 9.023.578 9.023 2.547 9.024 11.718 9.023-2.652 9.028 5.84 9.023 17.457 9.024 6.441" fill="none" stroke-width="1.6" stroke-linecap="square" stroke="#1c8f6b" stroke-miterlimit="3.25"/><path d="M124.64 153.05l9.024 3.548 9.024-23.899 9.023-8.117 9.023 8.117 9.028-10.566 9.023 7.379 9.024 6.082 9.023-2.895 9.023-13.078 9.024 3.938 9.023 4.57 9.028-7.3 9.023.421 9.024 3.871 9.023 3.684 9.023.707 9.024 6.082 9.023-4.57 9.028-1.512 9.023 3.187 9.024-.86 9.023 6.032 9.023 2.652 9.024 5.059 9.023 2.121h9.028l9.023 19.906h9.024l9.023-14.558 9.023-5.348 9.024 5.348 9.023 25.57 9.028-11.012 9.023 11.012" fill="none" stroke-width="1.6" stroke-linecap="square" stroke="#a54f05" stroke-miterlimit="3.25"/><path d="M106.594 178.621l9.023-47.598 9.024-12.527 9.023-7.375 9.024-15.355 9.023-6.211 9.023-4.098 9.028-2.652 9.023-1.563 9.024-4.336 9.023-2.484 9.023-1.129 9.024.02 9.023 2.015 9.028-1.371 9.023-3.074 9.024 2.836 9.023.636 9.023.641 9.024 2.664 9.023 2.031 9.028 2.149 9.023 2.36 9.024.124 9.023 3.254 9.023 2.152 9.024 3.27 9.023 4.496 9.028 5.598 9.023 5.906 9.024 5.664 9.023 3.477 9.023-27.746 9.024 33.668 9.023 6.96 9.028 8.118 9.023 4.57 9.023 9.34" fill="none" stroke-width="1.6" stroke-linecap="square" stroke="#6846c7" stroke-miterlimit="3.25"/><path d="M441.723 83A1.72 1.72 0 00440 81.277 1.72 1.72 0 00438.277 83 1.72 1.72 0 00440 84.723 1.72 1.72 0 00441.723 83zm10-15A1.72 1.72 0 00450 66.277 1.72 1.72 0 00448.277 68 1.72 1.72 0 00450 69.723 1.72 1.72 0 00451.723 68zm9-4A1.72 1.72 0 00459 62.277 1.72 1.72 0 00457.277 64 1.72 1.72 0 00459 65.723 1.72 1.72 0 00460.723 64zm9-2A1.72 1.72 0 00468 60.277 1.72 1.72 0 00466.277 62 1.72 1.72 0 00468 63.723 1.72 1.72 0 00469.723 62zm9-1A1.72 1.72 0 00477 59.277 1.72 1.72 0 00475.277 61 1.72 1.72 0 00477 62.723 1.72 1.72 0 00478.723 61zm9 0A1.72 1.72 0 00486 59.277 1.72 1.72 0 00484.277 61 1.72 1.72 0 00486 62.723 1.72 1.72 0 00487.723 61zm0 0" fill-rule="evenodd" fill="#a60000" fill-opacity=".3"/><path d="M441.723 83A1.72 1.72 0 00440 81.277 1.72 1.72 0 00438.277 83 1.72 1.72 0 00440 84.723 1.72 1.72 0 00441.723 83zm10-14A1.72 1.72 0 00450 67.277 1.72 1.72 0 00448.277 69 1.72 1.72 0 00450 70.723 1.72 1.72 0 00451.723 69zm9-3A1.72 1.72 0 00459 64.277 1.72 1.72 0 00457.277 66 1.72 1.72 0 00459 67.723 1.72 1.72 0 00460.723 66zm9-2A1.72 1.72 0 00468 62.277 1.72 1.72 0 00466.277 64 1.72 1.72 0 00468 65.723 1.72 1.72 0 00469.723 64zm9 0A1.72 1.72 0 00477 62.277 1.72 1.72 0 00475.277 64 1.72 1.72 0 00477 65.723 1.72 1.72 0 00478.723 64zm9-1A1.72 1.72 0 00486 61.277 1.72 1.72 0 00484.277 63 1.72 1.72 0 00486 64.723 1.72 1.72 0 00487.723 63zm0 0" fill-rule="evenodd" fill="#0d86a0" fill-opacity=".3"/><path d="M451.723 187a1.72 1.72 0 00-1.723-1.723 1.72 1.72 0 00-1.723 1.723 1.72 1.72 0 001.723 1.723 1.72 1.72 0 001.723-1.723zm9 0a1.72 1.72 0 00-1.723-1.723 1.72 1.72 0 00-1.723 1.723 1.72 1.72 0 001.723 1.723 1.72 1.72 0 001.723-1.723zm9 0a1.72 1.72 0 00-1.723-1.723 1.72 1.72 0 00-1.723 1.723 1.72 1.72 0 001.723 1.723 1.72 1.72 0 001.723-1.723zm9 0a1.72 1.72 0 00-1.723-1.723 1.72 1.72 0 00-1.723 1.723 1.72 1.72 0 001.723 1.723 1.72 1.72 0 001.723-1.723zm9 0a1.72 1.72 0 00-1.723-1.723 1.72 1.72 0 00-1.723 1.723 1.72 1.72 0 001.723 1.723 1.72 1.72 0 001.723-1.723zm0 0" fill-rule="evenodd" fill="#c05c20" fill-opacity=".3"/><path d="M451.723 267a1.72 1.72 0 00-1.723-1.723 1.72 1.72 0 00-1.723 1.723 1.72 1.72 0 001.723 1.723 1.72 1.72 0 001.723-1.723zm9 0a1.72 1.72 0 00-1.723-1.723 1.72 1.72 0 00-1.723 1.723 1.72 1.72 0 001.723 1.723 1.72 1.72 0 001.723-1.723zm9 0a1.72 1.72 0 00-1.723-1.723 1.72 1.72 0 00-1.723 1.723 1.72 1.72 0 001.723 1.723 1.72 1.72 0 001.723-1.723zm9 0a1.72 1.72 0 00-1.723-1.723 1.72 1.72 0 00-1.723 1.723 1.72 1.72 0 001.723 1.723 1.72 1.72 0 001.723-1.723zm9 0a1.72 1.72 0 00-1.723-1.723 1.72 1.72 0 00-1.723 1.723 1.72 1.72 0 001.723 1.723 1.72 1.72 0 001.723-1.723zm0 0" fill-rule="evenodd" fill="#3664cc" fill-opacity=".3"/><path d="M441.723 179a1.72 1.72 0 00-1.723-1.723 1.72 1.72 0 00-1.723 1.723 1.72 1.72 0 001.723 1.723 1.72 1.72 0 001.723-1.723zm10-45a1.72 1.72 0 00-1.723-1.723 1.72 1.72 0 00-1.723 1.723 1.72 1.72 0 001.723 1.723 1.72 1.72 0 001.723-1.723zm9 0a1.72 1.72 0 00-1.723-1.723 1.72 1.72 0 00-1.723 1.723 1.72 1.72 0 001.723 1.723 1.72 1.72 0 001.723-1.723zm9 0a1.72 1.72 0 00-1.723-1.723 1.72 1.72 0 00-1.723 1.723 1.72 1.72 0 001.723 1.723 1.72 1.72 0 001.723-1.723zm9 0a1.72 1.72 0 00-1.723-1.723 1.72 1.72 0 00-1.723 1.723 1.72 1.72 0 001.723 1.723 1.72 1.72 0 001.723-1.723zm9 0a1.72 1.72 0 00-1.723-1.723 1.72 1.72 0 00-1.723 1.723 1.72 1.72 0 001.723 1.723 1.72 1.72 0 001.723-1.723zm0 0" fill-rule="evenodd" fill="#833987" fill-opacity=".3"/><path d="M451.723 199a1.72 1.72 0 00-1.723-1.723 1.72 1.72 0 00-1.723 1.723 1.72 1.72 0 001.723 1.723 1.72 1.72 0 001.723-1.723zm9 0a1.72 1.72 0 00-1.723-1.723 1.72 1.72 0 00-1.723 1.723 1.72 1.72 0 001.723 1.723 1.72 1.72 0 001.723-1.723zm9 0a1.72 1.72 0 00-1.723-1.723 1.72 1.72 0 00-1.723 1.723 1.72 1.72 0 001.723 1.723 1.72 1.72 0 001.723-1.723zm9 0a1.72 1.72 0 00-1.723-1.723 1.72 1.72 0 00-1.723 1.723 1.72 1.72 0 001.723 1.723 1.72 1.72 0 001.723-1.723zm9 0a1.72 1.72 0 00-1.723-1.723 1.72 1.72 0 00-1.723 1.723 1.72 1.72 0 001.723 1.723 1.72 1.72 0 001.723-1.723zm0 0" fill-rule="evenodd" fill="#a54f05" fill-opacity=".3"/><path d="M441.723 153a1.72 1.72 0 00-1.723-1.723 1.72 1.72 0 00-1.723 1.723 1.72 1.72 0 001.723 1.723 1.72 1.72 0 001.723-1.723zm10 0a1.72 1.72 0 00-1.723-1.723 1.72 1.72 0 00-1.723 1.723 1.72 1.72 0 001.723 1.723 1.72 1.72 0 001.723-1.723zm9-1a1.72 1.72 0 00-1.723-1.723 1.72 1.72 0 00-1.723 1.723 1.72 1.72 0 001.723 1.723 1.72 1.72 0 001.723-1.723zm9 0a1.72 1.72 0 00-1.723-1.723 1.72 1.72 0 00-1.723 1.723 1.72 1.72 0 001.723 1.723 1.72 1.72 0 001.723-1.723zm9 0a1.72 1.72 0 00-1.723-1.723 1.72 1.72 0 00-1.723 1.723 1.72 1.72 0 001.723 1.723 1.72 1.72 0 001.723-1.723zm9-1a1.72 1.72 0 00-1.723-1.723 1.72 1.72 0 00-1.723 1.723 1.72 1.72 0 001.723 1.723 1.72 1.72 0 001.723-1.723zm0 0" fill-rule="evenodd" fill="#6846c7" fill-opacity=".3"/><path d="M35.723 120A1.72 1.72 0 0034 118.277 1.72 1.72 0 0032.277 120 1.72 1.72 0 0034 121.723 1.72 1.72 0 0035.723 120zm46 37A1.72 1.72 0 0080 155.277 1.72 1.72 0 0078.277 157 1.72 1.72 0 0080 158.723 1.72 1.72 0 0081.723 157zm9-23A1.72 1.72 0 0089 132.277 1.72 1.72 0 0087.277 134 1.72 1.72 0 0089 135.723 1.72 1.72 0 0090.723 134zm9-20A1.72 1.72 0 0098 112.277 1.72 1.72 0 0096.277 114 1.72 1.72 0 0098 115.723 1.72 1.72 0 0099.723 114zm9-5a1.72 1.72 0 00-1.723-1.723 1.72 1.72 0 00-1.723 1.723 1.72 1.72 0 001.723 1.723 1.72 1.72 0 001.723-1.723zm9-2a1.72 1.72 0 00-1.723-1.723 1.72 1.72 0 00-1.723 1.723 1.72 1.72 0 001.723 1.723 1.72 1.72 0 001.723-1.723zm9-8A1.72 1.72 0 00125 97.277 1.72 1.72 0 00123.277 99a1.72 1.72 0 001.723 1.723A1.72 1.72 0 00126.723 99zm9 2A1.72 1.72 0 00134 99.277a1.72 1.72 0 00-1.723 1.723 1.72 1.72 0 001.723 1.723 1.72 1.72 0 001.723-1.723zm9-11A1.72 1.72 0 00143 88.277 1.72 1.72 0 00141.277 90 1.72 1.72 0 00143 91.723 1.72 1.72 0 00144.723 90zm9-8A1.72 1.72 0 00152 80.277 1.72 1.72 0 00150.277 82 1.72 1.72 0 00152 83.723 1.72 1.72 0 00153.723 82zm9-7A1.72 1.72 0 00161 73.277 1.72 1.72 0 00159.277 75 1.72 1.72 0 00161 76.723 1.72 1.72 0 00162.723 75zm9-2A1.72 1.72 0 00170 71.277 1.72 1.72 0 00168.277 73 1.72 1.72 0 00170 74.723 1.72 1.72 0 00171.723 73zm9-13A1.72 1.72 0 00179 58.277 1.72 1.72 0 00177.277 60 1.72 1.72 0 00179 61.723 1.72 1.72 0 00180.723 60zm9 3A1.72 1.72 0 00188 61.277 1.72 1.72 0 00186.277 63 1.72 1.72 0 00188 64.723 1.72 1.72 0 00189.723 63zm9-3A1.72 1.72 0 00197 58.277 1.72 1.72 0 00195.277 60 1.72 1.72 0 00197 61.723 1.72 1.72 0 00198.723 60zm9-2A1.72 1.72 0 00206 56.277 1.72 1.72 0 00204.277 58 1.72 1.72 0 00206 59.723 1.72 1.72 0 00207.723 58zm9-1A1.72 1.72 0 00215 55.277 1.72 1.72 0 00213.277 57 1.72 1.72 0 00215 58.723 1.72 1.72 0 00216.723 57zm9-3A1.72 1.72 0 00224 52.277 1.72 1.72 0 00222.277 54 1.72 1.72 0 00224 55.723 1.72 1.72 0 00225.723 54zm9-2A1.72 1.72 0 00233 50.277 1.72 1.72 0 00231.277 52 1.72 1.72 0 00233 53.723 1.72 1.72 0 00234.723 52zm9-2A1.72 1.72 0 00242 48.277 1.72 1.72 0 00240.277 50 1.72 1.72 0 00242 51.723 1.72 1.72 0 00243.723 50zm9-3A1.72 1.72 0 00251 45.277 1.72 1.72 0 00249.277 47 1.72 1.72 0 00251 48.723 1.72 1.72 0 00252.723 47zm9 1A1.72 1.72 0 00260 46.277 1.72 1.72 0 00258.277 48 1.72 1.72 0 00260 49.723 1.72 1.72 0 00261.723 48zm9 3A1.72 1.72 0 00269 49.277 1.72 1.72 0 00267.277 51 1.72 1.72 0 00269 52.723 1.72 1.72 0 00270.723 51zm9-2A1.72 1.72 0 00278 47.277 1.72 1.72 0 00276.277 49 1.72 1.72 0 00278 50.723 1.72 1.72 0 00279.723 49zm9 4A1.72 1.72 0 00287 51.277 1.72 1.72 0 00285.277 53 1.72 1.72 0 00287 54.723 1.72 1.72 0 00288.723 53zm9-2A1.72 1.72 0 00296 49.277 1.72 1.72 0 00294.277 51 1.72 1.72 0 00296 52.723 1.72 1.72 0 00297.723 51zm9 3A1.72 1.72 0 00305 52.277 1.72 1.72 0 00303.277 54 1.72 1.72 0 00305 55.723 1.72 1.72 0 00306.723 54zm9 4A1.72 1.72 0 00314 56.277 1.72 1.72 0 00312.277 58 1.72 1.72 0 00314 59.723 1.72 1.72 0 00315.723 58zm9-31A1.72 1.72 0 00323 25.277 1.72 1.72 0 00321.277 27 1.72 1.72 0 00323 28.723 1.72 1.72 0 00324.723 27zm9 16A1.72 1.72 0 00332 41.277 1.72 1.72 0 00330.277 43 1.72 1.72 0 00332 44.723 1.72 1.72 0 00333.723 43zm9 10A1.72 1.72 0 00341 51.277 1.72 1.72 0 00339.277 53 1.72 1.72 0 00341 54.723 1.72 1.72 0 00342.723 53zm9 5A1.72 1.72 0 00350 56.277 1.72 1.72 0 00348.277 58 1.72 1.72 0 00350 59.723 1.72 1.72 0 00351.723 58zm9-1A1.72 1.72 0 00359 55.277 1.72 1.72 0 00357.277 57 1.72 1.72 0 00359 58.723 1.72 1.72 0 00360.723 57zm9 2A1.72 1.72 0 00368 57.277 1.72 1.72 0 00366.277 59 1.72 1.72 0 00368 60.723 1.72 1.72 0 00369.723 59zm9 1A1.72 1.72 0 00377 58.277 1.72 1.72 0 00375.277 60 1.72 1.72 0 00377 61.723 1.72 1.72 0 00378.723 60zm9 12A1.72 1.72 0 00386 70.277 1.72 1.72 0 00384.277 72 1.72 1.72 0 00386 73.723 1.72 1.72 0 00387.723 72zm9-1A1.72 1.72 0 00395 69.277 1.72 1.72 0 00393.277 71 1.72 1.72 0 00395 72.723 1.72 1.72 0 00396.723 71zm9 13A1.72 1.72 0 00404 82.277 1.72 1.72 0 00402.277 84 1.72 1.72 0 00404 85.723 1.72 1.72 0 00405.723 84zm9-8A1.72 1.72 0 00413 74.277 1.72 1.72 0 00411.277 76 1.72 1.72 0 00413 77.723 1.72 1.72 0 00414.723 76zm9 7A1.72 1.72 0 00422 81.277 1.72 1.72 0 00420.277 83 1.72 1.72 0 00422 84.723 1.72 1.72 0 00423.723 83zm9-3A1.72 1.72 0 00431 78.277 1.72 1.72 0 00429.277 80 1.72 1.72 0 00431 81.723 1.72 1.72 0 00432.723 80zm9 3A1.72 1.72 0 00440 81.277 1.72 1.72 0 00438.277 83 1.72 1.72 0 00440 84.723 1.72 1.72 0 00441.723 83zm0 0" fill-rule="evenodd" fill="#a60000"/><path d="M35.723 120A1.72 1.72 0 0034 118.277 1.72 1.72 0 0032.277 120 1.72 1.72 0 0034 121.723 1.72 1.72 0 0035.723 120zm46 37A1.72 1.72 0 0080 155.277 1.72 1.72 0 0078.277 157 1.72 1.72 0 0080 158.723 1.72 1.72 0 0081.723 157zm9-23A1.72 1.72 0 0089 132.277 1.72 1.72 0 0087.277 134 1.72 1.72 0 0089 135.723 1.72 1.72 0 0090.723 134zm9-20A1.72 1.72 0 0098 112.277 1.72 1.72 0 0096.277 114 1.72 1.72 0 0098 115.723 1.72 1.72 0 0099.723 114zm9-4a1.72 1.72 0 00-1.723-1.723 1.72 1.72 0 00-1.723 1.723 1.72 1.72 0 001.723 1.723 1.72 1.72 0 001.723-1.723zm9 1a1.72 1.72 0 00-1.723-1.723 1.72 1.72 0 00-1.723 1.723 1.72 1.72 0 001.723 1.723 1.72 1.72 0 001.723-1.723zm9-6a1.72 1.72 0 00-1.723-1.723 1.72 1.72 0 00-1.723 1.723 1.72 1.72 0 001.723 1.723 1.72 1.72 0 001.723-1.723zm9 6a1.72 1.72 0 00-1.723-1.723 1.72 1.72 0 00-1.723 1.723 1.72 1.72 0 001.723 1.723 1.72 1.72 0 001.723-1.723zm9-6a1.72 1.72 0 00-1.723-1.723 1.72 1.72 0 00-1.723 1.723 1.72 1.72 0 001.723 1.723 1.72 1.72 0 001.723-1.723zm9-9A1.72 1.72 0 00152 94.277 1.72 1.72 0 00150.277 96 1.72 1.72 0 00152 97.723 1.72 1.72 0 00153.723 96zm9-9A1.72 1.72 0 00161 85.277 1.72 1.72 0 00159.277 87 1.72 1.72 0 00161 88.723 1.72 1.72 0 00162.723 87zm9-2A1.72 1.72 0 00170 83.277 1.72 1.72 0 00168.277 85 1.72 1.72 0 00170 86.723 1.72 1.72 0 00171.723 85zm9-20A1.72 1.72 0 00179 63.277 1.72 1.72 0 00177.277 65 1.72 1.72 0 00179 66.723 1.72 1.72 0 00180.723 65zm9 7A1.72 1.72 0 00188 70.277 1.72 1.72 0 00186.277 72 1.72 1.72 0 00188 73.723 1.72 1.72 0 00189.723 72zm9-4A1.72 1.72 0 00197 66.277 1.72 1.72 0 00195.277 68 1.72 1.72 0 00197 69.723 1.72 1.72 0 00198.723 68zm9-2A1.72 1.72 0 00206 64.277 1.72 1.72 0 00204.277 66 1.72 1.72 0 00206 67.723 1.72 1.72 0 00207.723 66zm9-2A1.72 1.72 0 00215 62.277 1.72 1.72 0 00213.277 64 1.72 1.72 0 00215 65.723 1.72 1.72 0 00216.723 64zm9-6A1.72 1.72 0 00224 56.277 1.72 1.72 0 00222.277 58 1.72 1.72 0 00224 59.723 1.72 1.72 0 00225.723 58zm9-1A1.72 1.72 0 00233 55.277 1.72 1.72 0 00231.277 57 1.72 1.72 0 00233 58.723 1.72 1.72 0 00234.723 57zm9-2A1.72 1.72 0 00242 53.277 1.72 1.72 0 00240.277 55 1.72 1.72 0 00242 56.723 1.72 1.72 0 00243.723 55zm9-4A1.72 1.72 0 00251 49.277 1.72 1.72 0 00249.277 51 1.72 1.72 0 00251 52.723 1.72 1.72 0 00252.723 51zm9 0A1.72 1.72 0 00260 49.277 1.72 1.72 0 00258.277 51 1.72 1.72 0 00260 52.723 1.72 1.72 0 00261.723 51zm9 4A1.72 1.72 0 00269 53.277 1.72 1.72 0 00267.277 55 1.72 1.72 0 00269 56.723 1.72 1.72 0 00270.723 55zm9-3A1.72 1.72 0 00278 50.277 1.72 1.72 0 00276.277 52 1.72 1.72 0 00278 53.723 1.72 1.72 0 00279.723 52zm9 5A1.72 1.72 0 00287 55.277 1.72 1.72 0 00285.277 57 1.72 1.72 0 00287 58.723 1.72 1.72 0 00288.723 57zm9-3A1.72 1.72 0 00296 52.277 1.72 1.72 0 00294.277 54 1.72 1.72 0 00296 55.723 1.72 1.72 0 00297.723 54zm9 3A1.72 1.72 0 00305 55.277 1.72 1.72 0 00303.277 57 1.72 1.72 0 00305 58.723 1.72 1.72 0 00306.723 57zm9 4A1.72 1.72 0 00314 59.277 1.72 1.72 0 00312.277 61 1.72 1.72 0 00314 62.723 1.72 1.72 0 00315.723 61zm9-34A1.72 1.72 0 00323 25.277 1.72 1.72 0 00321.277 27 1.72 1.72 0 00323 28.723 1.72 1.72 0 00324.723 27zm9 17A1.72 1.72 0 00332 42.277 1.72 1.72 0 00330.277 44 1.72 1.72 0 00332 45.723 1.72 1.72 0 00333.723 44zm9 11A1.72 1.72 0 00341 53.277 1.72 1.72 0 00339.277 55 1.72 1.72 0 00341 56.723 1.72 1.72 0 00342.723 55zm9 4A1.72 1.72 0 00350 57.277 1.72 1.72 0 00348.277 59 1.72 1.72 0 00350 60.723 1.72 1.72 0 00351.723 59zm9-1A1.72 1.72 0 00359 56.277 1.72 1.72 0 00357.277 58 1.72 1.72 0 00359 59.723 1.72 1.72 0 00360.723 58zm9 1A1.72 1.72 0 00368 57.277 1.72 1.72 0 00366.277 59 1.72 1.72 0 00368 60.723 1.72 1.72 0 00369.723 59zm9 2A1.72 1.72 0 00377 59.277 1.72 1.72 0 00375.277 61 1.72 1.72 0 00377 62.723 1.72 1.72 0 00378.723 61zm9 12A1.72 1.72 0 00386 71.277 1.72 1.72 0 00384.277 73 1.72 1.72 0 00386 74.723 1.72 1.72 0 00387.723 73zm9 3A1.72 1.72 0 00395 74.277 1.72 1.72 0 00393.277 76 1.72 1.72 0 00395 77.723 1.72 1.72 0 00396.723 76zm9 9A1.72 1.72 0 00404 83.277 1.72 1.72 0 00402.277 85 1.72 1.72 0 00404 86.723 1.72 1.72 0 00405.723 85zm9-9A1.72 1.72 0 00413 74.277 1.72 1.72 0 00411.277 76 1.72 1.72 0 00413 77.723 1.72 1.72 0 00414.723 76zm9 8A1.72 1.72 0 00422 82.277 1.72 1.72 0 00420.277 84 1.72 1.72 0 00422 85.723 1.72 1.72 0 00423.723 84zm9-4A1.72 1.72 0 00431 78.277 1.72 1.72 0 00429.277 80 1.72 1.72 0 00431 81.723 1.72 1.72 0 00432.723 80zm9 3A1.72 1.72 0 00440 81.277 1.72 1.72 0 00438.277 83 1.72 1.72 0 00440 84.723 1.72 1.72 0 00441.723 83zm0 0" fill-rule="evenodd" fill="#0d86a0"/><path d="M108.723 179a1.72 1.72 0 00-1.723-1.723 1.72 1.72 0 00-1.723 1.723 1.72 1.72 0 001.723 1.723 1.72 1.72 0 001.723-1.723zm9-41a1.72 1.72 0 00-1.723-1.723 1.72 1.72 0 00-1.723 1.723 1.72 1.72 0 001.723 1.723 1.72 1.72 0 001.723-1.723zm9 1a1.72 1.72 0 00-1.723-1.723 1.72 1.72 0 00-1.723 1.723 1.72 1.72 0 001.723 1.723 1.72 1.72 0 001.723-1.723zm9 11a1.72 1.72 0 00-1.723-1.723 1.72 1.72 0 00-1.723 1.723 1.72 1.72 0 001.723 1.723 1.72 1.72 0 001.723-1.723zm9-20a1.72 1.72 0 00-1.723-1.723 1.72 1.72 0 00-1.723 1.723 1.72 1.72 0 001.723 1.723 1.72 1.72 0 001.723-1.723zm9-3a1.72 1.72 0 00-1.723-1.723 1.72 1.72 0 00-1.723 1.723 1.72 1.72 0 001.723 1.723 1.72 1.72 0 001.723-1.723zm9 4a1.72 1.72 0 00-1.723-1.723 1.72 1.72 0 00-1.723 1.723 1.72 1.72 0 001.723 1.723 1.72 1.72 0 001.723-1.723zm9-14a1.72 1.72 0 00-1.723-1.723 1.72 1.72 0 00-1.723 1.723 1.72 1.72 0 001.723 1.723 1.72 1.72 0 001.723-1.723zm9 2a1.72 1.72 0 00-1.723-1.723 1.72 1.72 0 00-1.723 1.723 1.72 1.72 0 001.723 1.723 1.72 1.72 0 001.723-1.723zm9-3a1.72 1.72 0 00-1.723-1.723 1.72 1.72 0 00-1.723 1.723 1.72 1.72 0 001.723 1.723 1.72 1.72 0 001.723-1.723zm9-5a1.72 1.72 0 00-1.723-1.723 1.72 1.72 0 00-1.723 1.723 1.72 1.72 0 001.723 1.723 1.72 1.72 0 001.723-1.723zm9-2a1.72 1.72 0 00-1.723-1.723 1.72 1.72 0 00-1.723 1.723 1.72 1.72 0 001.723 1.723 1.72 1.72 0 001.723-1.723zm9-7a1.72 1.72 0 00-1.723-1.723 1.72 1.72 0 00-1.723 1.723 1.72 1.72 0 001.723 1.723 1.72 1.72 0 001.723-1.723zm9 6a1.72 1.72 0 00-1.723-1.723 1.72 1.72 0 00-1.723 1.723 1.72 1.72 0 001.723 1.723 1.72 1.72 0 001.723-1.723zm9 1a1.72 1.72 0 00-1.723-1.723 1.72 1.72 0 00-1.723 1.723 1.72 1.72 0 001.723 1.723 1.72 1.72 0 001.723-1.723zm9-6a1.72 1.72 0 00-1.723-1.723 1.72 1.72 0 00-1.723 1.723 1.72 1.72 0 001.723 1.723 1.72 1.72 0 001.723-1.723zm9 7a1.72 1.72 0 00-1.723-1.723 1.72 1.72 0 00-1.723 1.723 1.72 1.72 0 001.723 1.723 1.72 1.72 0 001.723-1.723zm9 0a1.72 1.72 0 00-1.723-1.723 1.72 1.72 0 00-1.723 1.723 1.72 1.72 0 001.723 1.723 1.72 1.72 0 001.723-1.723zm9 0a1.72 1.72 0 00-1.723-1.723 1.72 1.72 0 00-1.723 1.723 1.72 1.72 0 001.723 1.723 1.72 1.72 0 001.723-1.723zm9 4a1.72 1.72 0 00-1.723-1.723 1.72 1.72 0 00-1.723 1.723 1.72 1.72 0 001.723 1.723 1.72 1.72 0 001.723-1.723zm9 4a1.72 1.72 0 00-1.723-1.723 1.72 1.72 0 00-1.723 1.723 1.72 1.72 0 001.723 1.723 1.72 1.72 0 001.723-1.723zm9 6a1.72 1.72 0 00-1.723-1.723 1.72 1.72 0 00-1.723 1.723 1.72 1.72 0 001.723 1.723 1.72 1.72 0 001.723-1.723zm9 3a1.72 1.72 0 00-1.723-1.723 1.72 1.72 0 00-1.723 1.723 1.72 1.72 0 001.723 1.723 1.72 1.72 0 001.723-1.723zm9-8a1.72 1.72 0 00-1.723-1.723 1.72 1.72 0 00-1.723 1.723 1.72 1.72 0 001.723 1.723 1.72 1.72 0 001.723-1.723zm9 11a1.72 1.72 0 00-1.723-1.723 1.72 1.72 0 00-1.723 1.723 1.72 1.72 0 001.723 1.723 1.72 1.72 0 001.723-1.723zm9 1a1.72 1.72 0 00-1.723-1.723 1.72 1.72 0 00-1.723 1.723 1.72 1.72 0 001.723 1.723 1.72 1.72 0 001.723-1.723zm9-8a1.72 1.72 0 00-1.723-1.723 1.72 1.72 0 00-1.723 1.723 1.72 1.72 0 001.723 1.723 1.72 1.72 0 001.723-1.723zm9 7a1.72 1.72 0 00-1.723-1.723 1.72 1.72 0 00-1.723 1.723 1.72 1.72 0 001.723 1.723 1.72 1.72 0 001.723-1.723zm9 20a1.72 1.72 0 00-1.723-1.723 1.72 1.72 0 00-1.723 1.723 1.72 1.72 0 001.723 1.723 1.72 1.72 0 001.723-1.723zm9 0a1.72 1.72 0 00-1.723-1.723 1.72 1.72 0 00-1.723 1.723 1.72 1.72 0 001.723 1.723 1.72 1.72 0 001.723-1.723zm9 11a1.72 1.72 0 00-1.723-1.723 1.72 1.72 0 00-1.723 1.723 1.72 1.72 0 001.723 1.723 1.72 1.72 0 001.723-1.723zm9 18a1.72 1.72 0 00-1.723-1.723 1.72 1.72 0 00-1.723 1.723 1.72 1.72 0 001.723 1.723 1.72 1.72 0 001.723-1.723zm9 0a1.72 1.72 0 00-1.723-1.723 1.72 1.72 0 00-1.723 1.723 1.72 1.72 0 001.723 1.723 1.72 1.72 0 001.723-1.723zm9-29a1.72 1.72 0 00-1.723-1.723 1.72 1.72 0 00-1.723 1.723 1.72 1.72 0 001.723 1.723 1.72 1.72 0 001.723-1.723zm9 11a1.72 1.72 0 00-1.723-1.723 1.72 1.72 0 00-1.723 1.723 1.72 1.72 0 001.723 1.723 1.72 1.72 0 001.723-1.723zm9 0a1.72 1.72 0 00-1.723-1.723 1.72 1.72 0 00-1.723 1.723 1.72 1.72 0 001.723 1.723 1.72 1.72 0 001.723-1.723zm9 7a1.72 1.72 0 00-1.723-1.723 1.72 1.72 0 00-1.723 1.723 1.72 1.72 0 001.723 1.723 1.72 1.72 0 001.723-1.723zm0 0" fill-rule="evenodd" fill="#c05c20"/><path d="M126.723 179a1.72 1.72 0 00-1.723-1.723 1.72 1.72 0 00-1.723 1.723 1.72 1.72 0 001.723 1.723 1.72 1.72 0 001.723-1.723zm9-22a1.72 1.72 0 00-1.723-1.723 1.72 1.72 0 00-1.723 1.723 1.72 1.72 0 001.723 1.723 1.72 1.72 0 001.723-1.723zm9 0a1.72 1.72 0 00-1.723-1.723 1.72 1.72 0 00-1.723 1.723 1.72 1.72 0 001.723 1.723 1.72 1.72 0 001.723-1.723zm9-28a1.72 1.72 0 00-1.723-1.723 1.72 1.72 0 00-1.723 1.723 1.72 1.72 0 001.723 1.723 1.72 1.72 0 001.723-1.723zm9-13a1.72 1.72 0 00-1.723-1.723 1.72 1.72 0 00-1.723 1.723 1.72 1.72 0 001.723 1.723 1.72 1.72 0 001.723-1.723zm9 2a1.72 1.72 0 00-1.723-1.723 1.72 1.72 0 00-1.723 1.723 1.72 1.72 0 001.723 1.723 1.72 1.72 0 001.723-1.723zm9 2a1.72 1.72 0 00-1.723-1.723 1.72 1.72 0 00-1.723 1.723 1.72 1.72 0 001.723 1.723 1.72 1.72 0 001.723-1.723zm9 1a1.72 1.72 0 00-1.723-1.723 1.72 1.72 0 00-1.723 1.723 1.72 1.72 0 001.723 1.723 1.72 1.72 0 001.723-1.723zm9-10a1.72 1.72 0 00-1.723-1.723 1.72 1.72 0 00-1.723 1.723 1.72 1.72 0 001.723 1.723 1.72 1.72 0 001.723-1.723zm9-1a1.72 1.72 0 00-1.723-1.723 1.72 1.72 0 00-1.723 1.723 1.72 1.72 0 001.723 1.723 1.72 1.72 0 001.723-1.723zm9 1a1.72 1.72 0 00-1.723-1.723 1.72 1.72 0 00-1.723 1.723 1.72 1.72 0 001.723 1.723 1.72 1.72 0 001.723-1.723zm9 0a1.72 1.72 0 00-1.723-1.723 1.72 1.72 0 00-1.723 1.723 1.72 1.72 0 001.723 1.723 1.72 1.72 0 001.723-1.723zm9-1a1.72 1.72 0 00-1.723-1.723 1.72 1.72 0 00-1.723 1.723 1.72 1.72 0 001.723 1.723 1.72 1.72 0 001.723-1.723zm9-6a1.72 1.72 0 00-1.723-1.723 1.72 1.72 0 00-1.723 1.723 1.72 1.72 0 001.723 1.723 1.72 1.72 0 001.723-1.723zm9 3a1.72 1.72 0 00-1.723-1.723 1.72 1.72 0 00-1.723 1.723 1.72 1.72 0 001.723 1.723 1.72 1.72 0 001.723-1.723zm9 1a1.72 1.72 0 00-1.723-1.723 1.72 1.72 0 00-1.723 1.723 1.72 1.72 0 001.723 1.723 1.72 1.72 0 001.723-1.723zm9 5a1.72 1.72 0 00-1.723-1.723 1.72 1.72 0 00-1.723 1.723 1.72 1.72 0 001.723 1.723 1.72 1.72 0 001.723-1.723zm9-1a1.72 1.72 0 00-1.723-1.723 1.72 1.72 0 00-1.723 1.723 1.72 1.72 0 001.723 1.723 1.72 1.72 0 001.723-1.723zm9 4a1.72 1.72 0 00-1.723-1.723 1.72 1.72 0 00-1.723 1.723 1.72 1.72 0 001.723 1.723 1.72 1.72 0 001.723-1.723zm9 4a1.72 1.72 0 00-1.723-1.723 1.72 1.72 0 00-1.723 1.723 1.72 1.72 0 001.723 1.723 1.72 1.72 0 001.723-1.723zm9 4a1.72 1.72 0 00-1.723-1.723 1.72 1.72 0 00-1.723 1.723 1.72 1.72 0 001.723 1.723 1.72 1.72 0 001.723-1.723zm9 1a1.72 1.72 0 00-1.723-1.723 1.72 1.72 0 00-1.723 1.723 1.72 1.72 0 001.723 1.723 1.72 1.72 0 001.723-1.723zm9-2a1.72 1.72 0 00-1.723-1.723 1.72 1.72 0 00-1.723 1.723 1.72 1.72 0 001.723 1.723 1.72 1.72 0 001.723-1.723zm9 13a1.72 1.72 0 00-1.723-1.723 1.72 1.72 0 00-1.723 1.723 1.72 1.72 0 001.723 1.723 1.72 1.72 0 001.723-1.723zm9-10a1.72 1.72 0 00-1.723-1.723 1.72 1.72 0 00-1.723 1.723 1.72 1.72 0 001.723 1.723 1.72 1.72 0 001.723-1.723zm9 6a1.72 1.72 0 00-1.723-1.723 1.72 1.72 0 00-1.723 1.723 1.72 1.72 0 001.723 1.723 1.72 1.72 0 001.723-1.723zm9 4a1.72 1.72 0 00-1.723-1.723 1.72 1.72 0 00-1.723 1.723 1.72 1.72 0 001.723 1.723 1.72 1.72 0 001.723-1.723zm9 5a1.72 1.72 0 00-1.723-1.723 1.72 1.72 0 00-1.723 1.723 1.72 1.72 0 001.723 1.723 1.72 1.72 0 001.723-1.723zm9 12a1.72 1.72 0 00-1.723-1.723 1.72 1.72 0 00-1.723 1.723 1.72 1.72 0 001.723 1.723 1.72 1.72 0 001.723-1.723zm9 4a1.72 1.72 0 00-1.723-1.723 1.72 1.72 0 00-1.723 1.723 1.72 1.72 0 001.723 1.723 1.72 1.72 0 001.723-1.723zm9 11a1.72 1.72 0 00-1.723-1.723 1.72 1.72 0 00-1.723 1.723 1.72 1.72 0 001.723 1.723 1.72 1.72 0 001.723-1.723zm9-7a1.72 1.72 0 00-1.723-1.723 1.72 1.72 0 00-1.723 1.723 1.72 1.72 0 001.723 1.723 1.72 1.72 0 001.723-1.723zm9 0a1.72 1.72 0 00-1.723-1.723 1.72 1.72 0 00-1.723 1.723 1.72 1.72 0 001.723 1.723 1.72 1.72 0 001.723-1.723zm9 18a1.72 1.72 0 00-1.723-1.723 1.72 1.72 0 00-1.723 1.723 1.72 1.72 0 001.723 1.723 1.72 1.72 0 001.723-1.723zm0 0" fill-rule="evenodd" fill="#6f42b5"/><path d="M126.723 153a1.72 1.72 0 00-1.723-1.723 1.72 1.72 0 00-1.723 1.723 1.72 1.72 0 001.723 1.723 1.72 1.72 0 001.723-1.723zm9 0a1.72 1.72 0 00-1.723-1.723 1.72 1.72 0 00-1.723 1.723 1.72 1.72 0 001.723 1.723 1.72 1.72 0 001.723-1.723zm9-30a1.72 1.72 0 00-1.723-1.723 1.72 1.72 0 00-1.723 1.723 1.72 1.72 0 001.723 1.723 1.72 1.72 0 001.723-1.723zm9 9a1.72 1.72 0 00-1.723-1.723 1.72 1.72 0 00-1.723 1.723 1.72 1.72 0 001.723 1.723 1.72 1.72 0 001.723-1.723zm9-13a1.72 1.72 0 00-1.723-1.723 1.72 1.72 0 00-1.723 1.723 1.72 1.72 0 001.723 1.723 1.72 1.72 0 001.723-1.723zm9 9a1.72 1.72 0 00-1.723-1.723 1.72 1.72 0 00-1.723 1.723 1.72 1.72 0 001.723 1.723 1.72 1.72 0 001.723-1.723zm9-10a1.72 1.72 0 00-1.723-1.723 1.72 1.72 0 00-1.723 1.723 1.72 1.72 0 001.723 1.723 1.72 1.72 0 001.723-1.723zm9-16a1.72 1.72 0 00-1.723-1.723 1.72 1.72 0 00-1.723 1.723 1.72 1.72 0 001.723 1.723 1.72 1.72 0 001.723-1.723zm9-1A1.72 1.72 0 00197 99.277a1.72 1.72 0 00-1.723 1.723 1.72 1.72 0 001.723 1.723 1.72 1.72 0 001.723-1.723zm9 3a1.72 1.72 0 00-1.723-1.723 1.72 1.72 0 00-1.723 1.723 1.72 1.72 0 001.723 1.723 1.72 1.72 0 001.723-1.723zm9 9a1.72 1.72 0 00-1.723-1.723 1.72 1.72 0 00-1.723 1.723 1.72 1.72 0 001.723 1.723 1.72 1.72 0 001.723-1.723zm9 0a1.72 1.72 0 00-1.723-1.723 1.72 1.72 0 00-1.723 1.723 1.72 1.72 0 001.723 1.723 1.72 1.72 0 001.723-1.723zm9 0a1.72 1.72 0 00-1.723-1.723 1.72 1.72 0 00-1.723 1.723 1.72 1.72 0 001.723 1.723 1.72 1.72 0 001.723-1.723zm9-8a1.72 1.72 0 00-1.723-1.723 1.72 1.72 0 00-1.723 1.723 1.72 1.72 0 001.723 1.723 1.72 1.72 0 001.723-1.723zm9 7a1.72 1.72 0 00-1.723-1.723 1.72 1.72 0 00-1.723 1.723 1.72 1.72 0 001.723 1.723 1.72 1.72 0 001.723-1.723zm9 2a1.72 1.72 0 00-1.723-1.723 1.72 1.72 0 00-1.723 1.723 1.72 1.72 0 001.723 1.723 1.72 1.72 0 001.723-1.723zm9 2a1.72 1.72 0 00-1.723-1.723 1.72 1.72 0 00-1.723 1.723 1.72 1.72 0 001.723 1.723 1.72 1.72 0 001.723-1.723zm9 3a1.72 1.72 0 00-1.723-1.723 1.72 1.72 0 00-1.723 1.723 1.72 1.72 0 001.723 1.723 1.72 1.72 0 001.723-1.723zm9 7a1.72 1.72 0 00-1.723-1.723 1.72 1.72 0 00-1.723 1.723 1.72 1.72 0 001.723 1.723 1.72 1.72 0 001.723-1.723zm9-1a1.72 1.72 0 00-1.723-1.723 1.72 1.72 0 00-1.723 1.723 1.72 1.72 0 001.723 1.723 1.72 1.72 0 001.723-1.723zm9 2a1.72 1.72 0 00-1.723-1.723 1.72 1.72 0 00-1.723 1.723 1.72 1.72 0 001.723 1.723 1.72 1.72 0 001.723-1.723zm9 10a1.72 1.72 0 00-1.723-1.723 1.72 1.72 0 00-1.723 1.723 1.72 1.72 0 001.723 1.723 1.72 1.72 0 001.723-1.723zm9 0a1.72 1.72 0 00-1.723-1.723 1.72 1.72 0 00-1.723 1.723 1.72 1.72 0 001.723 1.723 1.72 1.72 0 001.723-1.723zm9 5a1.72 1.72 0 00-1.723-1.723 1.72 1.72 0 00-1.723 1.723 1.72 1.72 0 001.723 1.723 1.72 1.72 0 001.723-1.723zm9 6a1.72 1.72 0 00-1.723-1.723 1.72 1.72 0 00-1.723 1.723 1.72 1.72 0 001.723 1.723 1.72 1.72 0 001.723-1.723zm9 5a1.72 1.72 0 00-1.723-1.723 1.72 1.72 0 00-1.723 1.723 1.72 1.72 0 001.723 1.723 1.72 1.72 0 001.723-1.723zm9 4a1.72 1.72 0 00-1.723-1.723 1.72 1.72 0 00-1.723 1.723 1.72 1.72 0 001.723 1.723 1.72 1.72 0 001.723-1.723zm9 22a1.72 1.72 0 00-1.723-1.723 1.72 1.72 0 00-1.723 1.723 1.72 1.72 0 001.723 1.723 1.72 1.72 0 001.723-1.723zm9 0a1.72 1.72 0 00-1.723-1.723 1.72 1.72 0 00-1.723 1.723 1.72 1.72 0 001.723 1.723 1.72 1.72 0 001.723-1.723zm9-11a1.72 1.72 0 00-1.723-1.723 1.72 1.72 0 00-1.723 1.723 1.72 1.72 0 001.723 1.723 1.72 1.72 0 001.723-1.723zm9-42a1.72 1.72 0 00-1.723-1.723 1.72 1.72 0 00-1.723 1.723 1.72 1.72 0 001.723 1.723 1.72 1.72 0 001.723-1.723zm9 42a1.72 1.72 0 00-1.723-1.723 1.72 1.72 0 00-1.723 1.723 1.72 1.72 0 001.723 1.723 1.72 1.72 0 001.723-1.723zm0 0" fill-rule="evenodd" fill="#769003"/><path d="M126.723 179a1.72 1.72 0 00-1.723-1.723 1.72 1.72 0 00-1.723 1.723 1.72 1.72 0 001.723 1.723 1.72 1.72 0 001.723-1.723zm9-33a1.72 1.72 0 00-1.723-1.723 1.72 1.72 0 00-1.723 1.723 1.72 1.72 0 001.723 1.723 1.72 1.72 0 001.723-1.723zm9-10a1.72 1.72 0 00-1.723-1.723 1.72 1.72 0 00-1.723 1.723 1.72 1.72 0 001.723 1.723 1.72 1.72 0 001.723-1.723zm9-4a1.72 1.72 0 00-1.723-1.723 1.72 1.72 0 00-1.723 1.723 1.72 1.72 0 001.723 1.723 1.72 1.72 0 001.723-1.723zm9-5a1.72 1.72 0 00-1.723-1.723 1.72 1.72 0 00-1.723 1.723 1.72 1.72 0 001.723 1.723 1.72 1.72 0 001.723-1.723zm9-3a1.72 1.72 0 00-1.723-1.723 1.72 1.72 0 00-1.723 1.723 1.72 1.72 0 001.723 1.723 1.72 1.72 0 001.723-1.723zm9-5a1.72 1.72 0 00-1.723-1.723 1.72 1.72 0 00-1.723 1.723 1.72 1.72 0 001.723 1.723 1.72 1.72 0 001.723-1.723zm9-10a1.72 1.72 0 00-1.723-1.723 1.72 1.72 0 00-1.723 1.723 1.72 1.72 0 001.723 1.723 1.72 1.72 0 001.723-1.723zm9 6a1.72 1.72 0 00-1.723-1.723 1.72 1.72 0 00-1.723 1.723 1.72 1.72 0 001.723 1.723 1.72 1.72 0 001.723-1.723zm9 0a1.72 1.72 0 00-1.723-1.723 1.72 1.72 0 00-1.723 1.723 1.72 1.72 0 001.723 1.723 1.72 1.72 0 001.723-1.723zm9-1a1.72 1.72 0 00-1.723-1.723 1.72 1.72 0 00-1.723 1.723 1.72 1.72 0 001.723 1.723 1.72 1.72 0 001.723-1.723zm9-4a1.72 1.72 0 00-1.723-1.723 1.72 1.72 0 00-1.723 1.723 1.72 1.72 0 001.723 1.723 1.72 1.72 0 001.723-1.723zm9 4a1.72 1.72 0 00-1.723-1.723 1.72 1.72 0 00-1.723 1.723 1.72 1.72 0 001.723 1.723 1.72 1.72 0 001.723-1.723zm9-3a1.72 1.72 0 00-1.723-1.723 1.72 1.72 0 00-1.723 1.723 1.72 1.72 0 001.723 1.723 1.72 1.72 0 001.723-1.723zm9 1a1.72 1.72 0 00-1.723-1.723 1.72 1.72 0 00-1.723 1.723 1.72 1.72 0 001.723 1.723 1.72 1.72 0 001.723-1.723zm9 4a1.72 1.72 0 00-1.723-1.723 1.72 1.72 0 00-1.723 1.723 1.72 1.72 0 001.723 1.723 1.72 1.72 0 001.723-1.723zm9-3a1.72 1.72 0 00-1.723-1.723 1.72 1.72 0 00-1.723 1.723 1.72 1.72 0 001.723 1.723 1.72 1.72 0 001.723-1.723zm9 11a1.72 1.72 0 00-1.723-1.723 1.72 1.72 0 00-1.723 1.723 1.72 1.72 0 001.723 1.723 1.72 1.72 0 001.723-1.723zm9-2a1.72 1.72 0 00-1.723-1.723 1.72 1.72 0 00-1.723 1.723 1.72 1.72 0 001.723 1.723 1.72 1.72 0 001.723-1.723zm9-2a1.72 1.72 0 00-1.723-1.723 1.72 1.72 0 00-1.723 1.723 1.72 1.72 0 001.723 1.723 1.72 1.72 0 001.723-1.723zm9 3a1.72 1.72 0 00-1.723-1.723 1.72 1.72 0 00-1.723 1.723 1.72 1.72 0 001.723 1.723 1.72 1.72 0 001.723-1.723zm9 0a1.72 1.72 0 00-1.723-1.723 1.72 1.72 0 00-1.723 1.723 1.72 1.72 0 001.723 1.723 1.72 1.72 0 001.723-1.723zm9 7a1.72 1.72 0 00-1.723-1.723 1.72 1.72 0 00-1.723 1.723 1.72 1.72 0 001.723 1.723 1.72 1.72 0 001.723-1.723zm9 1a1.72 1.72 0 00-1.723-1.723 1.72 1.72 0 00-1.723 1.723 1.72 1.72 0 001.723 1.723 1.72 1.72 0 001.723-1.723zm9 7a1.72 1.72 0 00-1.723-1.723 1.72 1.72 0 00-1.723 1.723 1.72 1.72 0 001.723 1.723 1.72 1.72 0 001.723-1.723zm9 23a1.72 1.72 0 00-1.723-1.723 1.72 1.72 0 00-1.723 1.723 1.72 1.72 0 001.723 1.723 1.72 1.72 0 001.723-1.723zm9 7a1.72 1.72 0 00-1.723-1.723 1.72 1.72 0 00-1.723 1.723 1.72 1.72 0 001.723 1.723 1.72 1.72 0 001.723-1.723zm9 11a1.72 1.72 0 00-1.723-1.723 1.72 1.72 0 00-1.723 1.723 1.72 1.72 0 001.723 1.723 1.72 1.72 0 001.723-1.723zm9 0a1.72 1.72 0 00-1.723-1.723 1.72 1.72 0 00-1.723 1.723 1.72 1.72 0 001.723 1.723 1.72 1.72 0 001.723-1.723zm9-11a1.72 1.72 0 00-1.723-1.723 1.72 1.72 0 00-1.723 1.723 1.72 1.72 0 001.723 1.723 1.72 1.72 0 001.723-1.723zm9 11a1.72 1.72 0 00-1.723-1.723 1.72 1.72 0 00-1.723 1.723 1.72 1.72 0 001.723 1.723 1.72 1.72 0 001.723-1.723zm9-11a1.72 1.72 0 00-1.723-1.723 1.72 1.72 0 00-1.723 1.723 1.72 1.72 0 001.723 1.723 1.72 1.72 0 001.723-1.723zm9-7a1.72 1.72 0 00-1.723-1.723 1.72 1.72 0 00-1.723 1.723 1.72 1.72 0 001.723 1.723 1.72 1.72 0 001.723-1.723zm0 0" fill-rule="evenodd" fill="#a8364d"/><path d="M135.723 179a1.72 1.72 0 00-1.723-1.723 1.72 1.72 0 00-1.723 1.723 1.72 1.72 0 001.723 1.723 1.72 1.72 0 001.723-1.723zm9-42a1.72 1.72 0 00-1.723-1.723 1.72 1.72 0 00-1.723 1.723 1.72 1.72 0 001.723 1.723 1.72 1.72 0 001.723-1.723zm9-9a1.72 1.72 0 00-1.723-1.723 1.72 1.72 0 00-1.723 1.723 1.72 1.72 0 001.723 1.723 1.72 1.72 0 001.723-1.723zm9 2a1.72 1.72 0 00-1.723-1.723 1.72 1.72 0 00-1.723 1.723 1.72 1.72 0 001.723 1.723 1.72 1.72 0 001.723-1.723zm9 12a1.72 1.72 0 00-1.723-1.723 1.72 1.72 0 00-1.723 1.723 1.72 1.72 0 001.723 1.723 1.72 1.72 0 001.723-1.723zm9-20a1.72 1.72 0 00-1.723-1.723 1.72 1.72 0 00-1.723 1.723 1.72 1.72 0 001.723 1.723 1.72 1.72 0 001.723-1.723zm9-4a1.72 1.72 0 00-1.723-1.723 1.72 1.72 0 00-1.723 1.723 1.72 1.72 0 001.723 1.723 1.72 1.72 0 001.723-1.723zm9-1a1.72 1.72 0 00-1.723-1.723 1.72 1.72 0 00-1.723 1.723 1.72 1.72 0 001.723 1.723 1.72 1.72 0 001.723-1.723zm9 4a1.72 1.72 0 00-1.723-1.723 1.72 1.72 0 00-1.723 1.723 1.72 1.72 0 001.723 1.723 1.72 1.72 0 001.723-1.723zm9-7a1.72 1.72 0 00-1.723-1.723 1.72 1.72 0 00-1.723 1.723 1.72 1.72 0 001.723 1.723 1.72 1.72 0 001.723-1.723zm9 5a1.72 1.72 0 00-1.723-1.723 1.72 1.72 0 00-1.723 1.723 1.72 1.72 0 001.723 1.723 1.72 1.72 0 001.723-1.723zm9-7a1.72 1.72 0 00-1.723-1.723 1.72 1.72 0 00-1.723 1.723 1.72 1.72 0 001.723 1.723 1.72 1.72 0 001.723-1.723zm9-1a1.72 1.72 0 00-1.723-1.723 1.72 1.72 0 00-1.723 1.723 1.72 1.72 0 001.723 1.723 1.72 1.72 0 001.723-1.723zm9 5a1.72 1.72 0 00-1.723-1.723 1.72 1.72 0 00-1.723 1.723 1.72 1.72 0 001.723 1.723 1.72 1.72 0 001.723-1.723zm9-3a1.72 1.72 0 00-1.723-1.723 1.72 1.72 0 00-1.723 1.723 1.72 1.72 0 001.723 1.723 1.72 1.72 0 001.723-1.723zm9-3a1.72 1.72 0 00-1.723-1.723 1.72 1.72 0 00-1.723 1.723 1.72 1.72 0 001.723 1.723 1.72 1.72 0 001.723-1.723zm9 2a1.72 1.72 0 00-1.723-1.723 1.72 1.72 0 00-1.723 1.723 1.72 1.72 0 001.723 1.723 1.72 1.72 0 001.723-1.723zm9 6a1.72 1.72 0 00-1.723-1.723 1.72 1.72 0 00-1.723 1.723 1.72 1.72 0 001.723 1.723 1.72 1.72 0 001.723-1.723zm9-2a1.72 1.72 0 00-1.723-1.723 1.72 1.72 0 00-1.723 1.723 1.72 1.72 0 001.723 1.723 1.72 1.72 0 001.723-1.723zm9 9a1.72 1.72 0 00-1.723-1.723 1.72 1.72 0 00-1.723 1.723 1.72 1.72 0 001.723 1.723 1.72 1.72 0 001.723-1.723zm9 0a1.72 1.72 0 00-1.723-1.723 1.72 1.72 0 00-1.723 1.723 1.72 1.72 0 001.723 1.723 1.72 1.72 0 001.723-1.723zm9 5a1.72 1.72 0 00-1.723-1.723 1.72 1.72 0 00-1.723 1.723 1.72 1.72 0 001.723 1.723 1.72 1.72 0 001.723-1.723zm9-2a1.72 1.72 0 00-1.723-1.723 1.72 1.72 0 00-1.723 1.723 1.72 1.72 0 001.723 1.723 1.72 1.72 0 001.723-1.723zm9 7a1.72 1.72 0 00-1.723-1.723 1.72 1.72 0 00-1.723 1.723 1.72 1.72 0 001.723 1.723 1.72 1.72 0 001.723-1.723zm9 4a1.72 1.72 0 00-1.723-1.723 1.72 1.72 0 00-1.723 1.723 1.72 1.72 0 001.723 1.723 1.72 1.72 0 001.723-1.723zm9 2a1.72 1.72 0 00-1.723-1.723 1.72 1.72 0 00-1.723 1.723 1.72 1.72 0 001.723 1.723 1.72 1.72 0 001.723-1.723zm9 3a1.72 1.72 0 00-1.723-1.723 1.72 1.72 0 00-1.723 1.723 1.72 1.72 0 001.723 1.723 1.72 1.72 0 001.723-1.723zm9 13a1.72 1.72 0 00-1.723-1.723 1.72 1.72 0 00-1.723 1.723 1.72 1.72 0 001.723 1.723 1.72 1.72 0 001.723-1.723zm9 22a1.72 1.72 0 00-1.723-1.723 1.72 1.72 0 00-1.723 1.723 1.72 1.72 0 001.723 1.723 1.72 1.72 0 001.723-1.723zm9 0a1.72 1.72 0 00-1.723-1.723 1.72 1.72 0 00-1.723 1.723 1.72 1.72 0 001.723 1.723 1.72 1.72 0 001.723-1.723zm9 0a1.72 1.72 0 00-1.723-1.723 1.72 1.72 0 00-1.723 1.723 1.72 1.72 0 001.723 1.723 1.72 1.72 0 001.723-1.723zm0 0" fill-rule="evenodd" fill="#3664cc"/><path d="M126.723 168a1.72 1.72 0 00-1.723-1.723 1.72 1.72 0 00-1.723 1.723 1.72 1.72 0 001.723 1.723 1.72 1.72 0 001.723-1.723zm9 11a1.72 1.72 0 00-1.723-1.723 1.72 1.72 0 00-1.723 1.723 1.72 1.72 0 001.723 1.723 1.72 1.72 0 001.723-1.723zm9-22a1.72 1.72 0 00-1.723-1.723 1.72 1.72 0 00-1.723 1.723 1.72 1.72 0 001.723 1.723 1.72 1.72 0 001.723-1.723zm9-16a1.72 1.72 0 00-1.723-1.723 1.72 1.72 0 00-1.723 1.723 1.72 1.72 0 001.723 1.723 1.72 1.72 0 001.723-1.723zm9-8a1.72 1.72 0 00-1.723-1.723 1.72 1.72 0 00-1.723 1.723 1.72 1.72 0 001.723 1.723 1.72 1.72 0 001.723-1.723zm9 6a1.72 1.72 0 00-1.723-1.723 1.72 1.72 0 00-1.723 1.723 1.72 1.72 0 001.723 1.723 1.72 1.72 0 001.723-1.723zm9-11a1.72 1.72 0 00-1.723-1.723 1.72 1.72 0 00-1.723 1.723 1.72 1.72 0 001.723 1.723 1.72 1.72 0 001.723-1.723zm9-7a1.72 1.72 0 00-1.723-1.723 1.72 1.72 0 00-1.723 1.723 1.72 1.72 0 001.723 1.723 1.72 1.72 0 001.723-1.723zm9-5a1.72 1.72 0 00-1.723-1.723 1.72 1.72 0 00-1.723 1.723 1.72 1.72 0 001.723 1.723 1.72 1.72 0 001.723-1.723zm9-6a1.72 1.72 0 00-1.723-1.723 1.72 1.72 0 00-1.723 1.723 1.72 1.72 0 001.723 1.723 1.72 1.72 0 001.723-1.723zm9 7a1.72 1.72 0 00-1.723-1.723 1.72 1.72 0 00-1.723 1.723 1.72 1.72 0 001.723 1.723 1.72 1.72 0 001.723-1.723zm9 0a1.72 1.72 0 00-1.723-1.723 1.72 1.72 0 00-1.723 1.723 1.72 1.72 0 001.723 1.723 1.72 1.72 0 001.723-1.723zm9-3a1.72 1.72 0 00-1.723-1.723 1.72 1.72 0 00-1.723 1.723 1.72 1.72 0 001.723 1.723 1.72 1.72 0 001.723-1.723zm9-6a1.72 1.72 0 00-1.723-1.723 1.72 1.72 0 00-1.723 1.723 1.72 1.72 0 001.723 1.723 1.72 1.72 0 001.723-1.723zm9 3a1.72 1.72 0 00-1.723-1.723 1.72 1.72 0 00-1.723 1.723 1.72 1.72 0 001.723 1.723 1.72 1.72 0 001.723-1.723zm9 5a1.72 1.72 0 00-1.723-1.723 1.72 1.72 0 00-1.723 1.723 1.72 1.72 0 001.723 1.723 1.72 1.72 0 001.723-1.723zm9-3a1.72 1.72 0 00-1.723-1.723 1.72 1.72 0 00-1.723 1.723 1.72 1.72 0 001.723 1.723 1.72 1.72 0 001.723-1.723zm9 8a1.72 1.72 0 00-1.723-1.723 1.72 1.72 0 00-1.723 1.723 1.72 1.72 0 001.723 1.723 1.72 1.72 0 001.723-1.723zm9-2a1.72 1.72 0 00-1.723-1.723 1.72 1.72 0 00-1.723 1.723 1.72 1.72 0 001.723 1.723 1.72 1.72 0 001.723-1.723zm9 5a1.72 1.72 0 00-1.723-1.723 1.72 1.72 0 00-1.723 1.723 1.72 1.72 0 001.723 1.723 1.72 1.72 0 001.723-1.723zm9 0a1.72 1.72 0 00-1.723-1.723 1.72 1.72 0 00-1.723 1.723 1.72 1.72 0 001.723 1.723 1.72 1.72 0 001.723-1.723zm9-4a1.72 1.72 0 00-1.723-1.723 1.72 1.72 0 00-1.723 1.723 1.72 1.72 0 001.723 1.723 1.72 1.72 0 001.723-1.723zm9 6a1.72 1.72 0 00-1.723-1.723 1.72 1.72 0 00-1.723 1.723 1.72 1.72 0 001.723 1.723 1.72 1.72 0 001.723-1.723zm9 0a1.72 1.72 0 00-1.723-1.723 1.72 1.72 0 00-1.723 1.723 1.72 1.72 0 001.723 1.723 1.72 1.72 0 001.723-1.723zm9 12a1.72 1.72 0 00-1.723-1.723 1.72 1.72 0 00-1.723 1.723 1.72 1.72 0 001.723 1.723 1.72 1.72 0 001.723-1.723zm9 1a1.72 1.72 0 00-1.723-1.723 1.72 1.72 0 00-1.723 1.723 1.72 1.72 0 001.723 1.723 1.72 1.72 0 001.723-1.723zm9 14a1.72 1.72 0 00-1.723-1.723 1.72 1.72 0 00-1.723 1.723 1.72 1.72 0 001.723 1.723 1.72 1.72 0 001.723-1.723zm9 8a1.72 1.72 0 00-1.723-1.723 1.72 1.72 0 00-1.723 1.723 1.72 1.72 0 001.723 1.723 1.72 1.72 0 001.723-1.723zm9 18a1.72 1.72 0 00-1.723-1.723 1.72 1.72 0 00-1.723 1.723 1.72 1.72 0 001.723 1.723 1.72 1.72 0 001.723-1.723zm9 0a1.72 1.72 0 00-1.723-1.723 1.72 1.72 0 00-1.723 1.723 1.72 1.72 0 001.723 1.723 1.72 1.72 0 001.723-1.723zm0 0" fill-rule="evenodd" fill="#c8860a"/><path d="M126.723 179a1.72 1.72 0 00-1.723-1.723 1.72 1.72 0 00-1.723 1.723 1.72 1.72 0 001.723 1.723 1.72 1.72 0 001.723-1.723zm9-26a1.72 1.72 0 00-1.723-1.723 1.72 1.72 0 00-1.723 1.723 1.72 1.72 0 001.723 1.723 1.72 1.72 0 001.723-1.723zm9 8a1.72 1.72 0 00-1.723-1.723 1.72 1.72 0 00-1.723 1.723 1.72 1.72 0 001.723 1.723 1.72 1.72 0 001.723-1.723zm9-22a1.72 1.72 0 00-1.723-1.723 1.72 1.72 0 00-1.723 1.723 1.72 1.72 0 001.723 1.723 1.72 1.72 0 001.723-1.723zm9-6a1.72 1.72 0 00-1.723-1.723 1.72 1.72 0 00-1.723 1.723 1.72 1.72 0 001.723 1.723 1.72 1.72 0 001.723-1.723zm9-5a1.72 1.72 0 00-1.723-1.723 1.72 1.72 0 00-1.723 1.723 1.72 1.72 0 001.723 1.723 1.72 1.72 0 001.723-1.723zm9 0a1.72 1.72 0 00-1.723-1.723 1.72 1.72 0 00-1.723 1.723 1.72 1.72 0 001.723 1.723 1.72 1.72 0 001.723-1.723zm9-5a1.72 1.72 0 00-1.723-1.723 1.72 1.72 0 00-1.723 1.723 1.72 1.72 0 001.723 1.723 1.72 1.72 0 001.723-1.723zm9 5a1.72 1.72 0 00-1.723-1.723 1.72 1.72 0 00-1.723 1.723 1.72 1.72 0 001.723 1.723 1.72 1.72 0 001.723-1.723zm9-5a1.72 1.72 0 00-1.723-1.723 1.72 1.72 0 00-1.723 1.723 1.72 1.72 0 001.723 1.723 1.72 1.72 0 001.723-1.723zm9 5a1.72 1.72 0 00-1.723-1.723 1.72 1.72 0 00-1.723 1.723 1.72 1.72 0 001.723 1.723 1.72 1.72 0 001.723-1.723zm9 1a1.72 1.72 0 00-1.723-1.723 1.72 1.72 0 00-1.723 1.723 1.72 1.72 0 001.723 1.723 1.72 1.72 0 001.723-1.723zm9 1a1.72 1.72 0 00-1.723-1.723 1.72 1.72 0 00-1.723 1.723 1.72 1.72 0 001.723 1.723 1.72 1.72 0 001.723-1.723zm9-2a1.72 1.72 0 00-1.723-1.723 1.72 1.72 0 00-1.723 1.723 1.72 1.72 0 001.723 1.723 1.72 1.72 0 001.723-1.723zm9-2a1.72 1.72 0 00-1.723-1.723 1.72 1.72 0 00-1.723 1.723 1.72 1.72 0 001.723 1.723 1.72 1.72 0 001.723-1.723zm9-8a1.72 1.72 0 00-1.723-1.723 1.72 1.72 0 00-1.723 1.723 1.72 1.72 0 001.723 1.723 1.72 1.72 0 001.723-1.723zm9 4a1.72 1.72 0 00-1.723-1.723 1.72 1.72 0 00-1.723 1.723 1.72 1.72 0 001.723 1.723 1.72 1.72 0 001.723-1.723zm9 4a1.72 1.72 0 00-1.723-1.723 1.72 1.72 0 00-1.723 1.723 1.72 1.72 0 001.723 1.723 1.72 1.72 0 001.723-1.723zm9 0a1.72 1.72 0 00-1.723-1.723 1.72 1.72 0 00-1.723 1.723 1.72 1.72 0 001.723 1.723 1.72 1.72 0 001.723-1.723zm9 2a1.72 1.72 0 00-1.723-1.723 1.72 1.72 0 00-1.723 1.723 1.72 1.72 0 001.723 1.723 1.72 1.72 0 001.723-1.723zm9-2a1.72 1.72 0 00-1.723-1.723 1.72 1.72 0 00-1.723 1.723 1.72 1.72 0 001.723 1.723 1.72 1.72 0 001.723-1.723zm9 15a1.72 1.72 0 00-1.723-1.723 1.72 1.72 0 00-1.723 1.723 1.72 1.72 0 001.723 1.723 1.72 1.72 0 001.723-1.723zm9 3a1.72 1.72 0 00-1.723-1.723 1.72 1.72 0 00-1.723 1.723 1.72 1.72 0 001.723 1.723 1.72 1.72 0 001.723-1.723zm9-6a1.72 1.72 0 00-1.723-1.723 1.72 1.72 0 00-1.723 1.723 1.72 1.72 0 001.723 1.723 1.72 1.72 0 001.723-1.723zm9 3a1.72 1.72 0 00-1.723-1.723 1.72 1.72 0 00-1.723 1.723 1.72 1.72 0 001.723 1.723 1.72 1.72 0 001.723-1.723zm9 7a1.72 1.72 0 00-1.723-1.723 1.72 1.72 0 00-1.723 1.723 1.72 1.72 0 001.723 1.723 1.72 1.72 0 001.723-1.723zm9 9a1.72 1.72 0 00-1.723-1.723 1.72 1.72 0 00-1.723 1.723 1.72 1.72 0 001.723 1.723 1.72 1.72 0 001.723-1.723zm9 11a1.72 1.72 0 00-1.723-1.723 1.72 1.72 0 00-1.723 1.723 1.72 1.72 0 001.723 1.723 1.72 1.72 0 001.723-1.723zm9 11a1.72 1.72 0 00-1.723-1.723 1.72 1.72 0 00-1.723 1.723 1.72 1.72 0 001.723 1.723 1.72 1.72 0 001.723-1.723zm9-11a1.72 1.72 0 00-1.723-1.723 1.72 1.72 0 00-1.723 1.723 1.72 1.72 0 001.723 1.723 1.72 1.72 0 001.723-1.723zm9-74A1.72 1.72 0 00395 92.277 1.72 1.72 0 00393.277 94 1.72 1.72 0 00395 95.723 1.72 1.72 0 00396.723 94zm9 74a1.72 1.72 0 00-1.723-1.723 1.72 1.72 0 00-1.723 1.723 1.72 1.72 0 001.723 1.723 1.72 1.72 0 001.723-1.723zm9-11a1.72 1.72 0 00-1.723-1.723 1.72 1.72 0 00-1.723 1.723 1.72 1.72 0 001.723 1.723 1.72 1.72 0 001.723-1.723zm9 22a1.72 1.72 0 00-1.723-1.723 1.72 1.72 0 00-1.723 1.723 1.72 1.72 0 001.723 1.723 1.72 1.72 0 001.723-1.723zm18 0a1.72 1.72 0 00-1.723-1.723 1.72 1.72 0 00-1.723 1.723 1.72 1.72 0 001.723 1.723 1.72 1.72 0 001.723-1.723zm0 0" fill-rule="evenodd" fill="#833987"/><path d="M135.723 179a1.72 1.72 0 00-1.723-1.723 1.72 1.72 0 00-1.723 1.723 1.72 1.72 0 001.723 1.723 1.72 1.72 0 001.723-1.723zm9-33a1.72 1.72 0 00-1.723-1.723 1.72 1.72 0 00-1.723 1.723 1.72 1.72 0 001.723 1.723 1.72 1.72 0 001.723-1.723zm9-2a1.72 1.72 0 00-1.723-1.723 1.72 1.72 0 00-1.723 1.723 1.72 1.72 0 001.723 1.723 1.72 1.72 0 001.723-1.723zm9-6a1.72 1.72 0 00-1.723-1.723 1.72 1.72 0 00-1.723 1.723 1.72 1.72 0 001.723 1.723 1.72 1.72 0 001.723-1.723zm9-3a1.72 1.72 0 00-1.723-1.723 1.72 1.72 0 00-1.723 1.723 1.72 1.72 0 001.723 1.723 1.72 1.72 0 001.723-1.723zm9-6a1.72 1.72 0 00-1.723-1.723 1.72 1.72 0 00-1.723 1.723 1.72 1.72 0 001.723 1.723 1.72 1.72 0 001.723-1.723zm9-4a1.72 1.72 0 00-1.723-1.723 1.72 1.72 0 00-1.723 1.723 1.72 1.72 0 001.723 1.723 1.72 1.72 0 001.723-1.723zm9 0a1.72 1.72 0 00-1.723-1.723 1.72 1.72 0 00-1.723 1.723 1.72 1.72 0 001.723 1.723 1.72 1.72 0 001.723-1.723zm9-5a1.72 1.72 0 00-1.723-1.723 1.72 1.72 0 00-1.723 1.723 1.72 1.72 0 001.723 1.723 1.72 1.72 0 001.723-1.723zm9 3a1.72 1.72 0 00-1.723-1.723 1.72 1.72 0 00-1.723 1.723 1.72 1.72 0 001.723 1.723 1.72 1.72 0 001.723-1.723zm9 0a1.72 1.72 0 00-1.723-1.723 1.72 1.72 0 00-1.723 1.723 1.72 1.72 0 001.723 1.723 1.72 1.72 0 001.723-1.723zm9-1a1.72 1.72 0 00-1.723-1.723 1.72 1.72 0 00-1.723 1.723 1.72 1.72 0 001.723 1.723 1.72 1.72 0 001.723-1.723zm9-1a1.72 1.72 0 00-1.723-1.723 1.72 1.72 0 00-1.723 1.723 1.72 1.72 0 001.723 1.723 1.72 1.72 0 001.723-1.723zm9 2a1.72 1.72 0 00-1.723-1.723 1.72 1.72 0 00-1.723 1.723 1.72 1.72 0 001.723 1.723 1.72 1.72 0 001.723-1.723zm9 1a1.72 1.72 0 00-1.723-1.723 1.72 1.72 0 00-1.723 1.723 1.72 1.72 0 001.723 1.723 1.72 1.72 0 001.723-1.723zm9-2a1.72 1.72 0 00-1.723-1.723 1.72 1.72 0 00-1.723 1.723 1.72 1.72 0 001.723 1.723 1.72 1.72 0 001.723-1.723zm9 2a1.72 1.72 0 00-1.723-1.723 1.72 1.72 0 00-1.723 1.723 1.72 1.72 0 001.723 1.723 1.72 1.72 0 001.723-1.723zm9 1a1.72 1.72 0 00-1.723-1.723 1.72 1.72 0 00-1.723 1.723 1.72 1.72 0 001.723 1.723 1.72 1.72 0 001.723-1.723zm9 3a1.72 1.72 0 00-1.723-1.723 1.72 1.72 0 00-1.723 1.723 1.72 1.72 0 001.723 1.723 1.72 1.72 0 001.723-1.723zm9 1a1.72 1.72 0 00-1.723-1.723 1.72 1.72 0 00-1.723 1.723 1.72 1.72 0 001.723 1.723 1.72 1.72 0 001.723-1.723zm9-3a1.72 1.72 0 00-1.723-1.723 1.72 1.72 0 00-1.723 1.723 1.72 1.72 0 001.723 1.723 1.72 1.72 0 001.723-1.723zm9 0a1.72 1.72 0 00-1.723-1.723 1.72 1.72 0 00-1.723 1.723 1.72 1.72 0 001.723 1.723 1.72 1.72 0 001.723-1.723zm9 3a1.72 1.72 0 00-1.723-1.723 1.72 1.72 0 00-1.723 1.723 1.72 1.72 0 001.723 1.723 1.72 1.72 0 001.723-1.723zm9 12a1.72 1.72 0 00-1.723-1.723 1.72 1.72 0 00-1.723 1.723 1.72 1.72 0 001.723 1.723 1.72 1.72 0 001.723-1.723zm9-3a1.72 1.72 0 00-1.723-1.723 1.72 1.72 0 00-1.723 1.723 1.72 1.72 0 001.723 1.723 1.72 1.72 0 001.723-1.723zm9 6a1.72 1.72 0 00-1.723-1.723 1.72 1.72 0 00-1.723 1.723 1.72 1.72 0 001.723 1.723 1.72 1.72 0 001.723-1.723zm9 17a1.72 1.72 0 00-1.723-1.723 1.72 1.72 0 00-1.723 1.723 1.72 1.72 0 001.723 1.723 1.72 1.72 0 001.723-1.723zm9 7a1.72 1.72 0 00-1.723-1.723 1.72 1.72 0 00-1.723 1.723 1.72 1.72 0 001.723 1.723 1.72 1.72 0 001.723-1.723zm0 0" fill-rule="evenodd" fill="#1c8f6b"/><path d="M126.723 153a1.72 1.72 0 00-1.723-1.723 1.72 1.72 0 00-1.723 1.723 1.72 1.72 0 001.723 1.723 1.72 1.72 0 001.723-1.723zm9 4a1.72 1.72 0 00-1.723-1.723 1.72 1.72 0 00-1.723 1.723 1.72 1.72 0 001.723 1.723 1.72 1.72 0 001.723-1.723zm9-24a1.72 1.72 0 00-1.723-1.723 1.72 1.72 0 00-1.723 1.723 1.72 1.72 0 001.723 1.723 1.72 1.72 0 001.723-1.723zm9-8a1.72 1.72 0 00-1.723-1.723 1.72 1.72 0 00-1.723 1.723 1.72 1.72 0 001.723 1.723 1.72 1.72 0 001.723-1.723zm9 8a1.72 1.72 0 00-1.723-1.723 1.72 1.72 0 00-1.723 1.723 1.72 1.72 0 001.723 1.723 1.72 1.72 0 001.723-1.723zm9-11a1.72 1.72 0 00-1.723-1.723 1.72 1.72 0 00-1.723 1.723 1.72 1.72 0 001.723 1.723 1.72 1.72 0 001.723-1.723zm9 8a1.72 1.72 0 00-1.723-1.723 1.72 1.72 0 00-1.723 1.723 1.72 1.72 0 001.723 1.723 1.72 1.72 0 001.723-1.723zm9 6a1.72 1.72 0 00-1.723-1.723 1.72 1.72 0 00-1.723 1.723 1.72 1.72 0 001.723 1.723 1.72 1.72 0 001.723-1.723zm9-3a1.72 1.72 0 00-1.723-1.723 1.72 1.72 0 00-1.723 1.723 1.72 1.72 0 001.723 1.723 1.72 1.72 0 001.723-1.723zm9-13a1.72 1.72 0 00-1.723-1.723 1.72 1.72 0 00-1.723 1.723 1.72 1.72 0 001.723 1.723 1.72 1.72 0 001.723-1.723zm9 4a1.72 1.72 0 00-1.723-1.723 1.72 1.72 0 00-1.723 1.723 1.72 1.72 0 001.723 1.723 1.72 1.72 0 001.723-1.723zm9 4a1.72 1.72 0 00-1.723-1.723 1.72 1.72 0 00-1.723 1.723 1.72 1.72 0 001.723 1.723 1.72 1.72 0 001.723-1.723zm9-7a1.72 1.72 0 00-1.723-1.723 1.72 1.72 0 00-1.723 1.723 1.72 1.72 0 001.723 1.723 1.72 1.72 0 001.723-1.723zm9 0a1.72 1.72 0 00-1.723-1.723 1.72 1.72 0 00-1.723 1.723 1.72 1.72 0 001.723 1.723 1.72 1.72 0 001.723-1.723zm9 4a1.72 1.72 0 00-1.723-1.723 1.72 1.72 0 00-1.723 1.723 1.72 1.72 0 001.723 1.723 1.72 1.72 0 001.723-1.723zm9 4a1.72 1.72 0 00-1.723-1.723 1.72 1.72 0 00-1.723 1.723 1.72 1.72 0 001.723 1.723 1.72 1.72 0 001.723-1.723zm9 1a1.72 1.72 0 00-1.723-1.723 1.72 1.72 0 00-1.723 1.723 1.72 1.72 0 001.723 1.723 1.72 1.72 0 001.723-1.723zm9 6a1.72 1.72 0 00-1.723-1.723 1.72 1.72 0 00-1.723 1.723 1.72 1.72 0 001.723 1.723 1.72 1.72 0 001.723-1.723zm9-5a1.72 1.72 0 00-1.723-1.723 1.72 1.72 0 00-1.723 1.723 1.72 1.72 0 001.723 1.723 1.72 1.72 0 001.723-1.723zm9-1a1.72 1.72 0 00-1.723-1.723 1.72 1.72 0 00-1.723 1.723 1.72 1.72 0 001.723 1.723 1.72 1.72 0 001.723-1.723zm9 3a1.72 1.72 0 00-1.723-1.723 1.72 1.72 0 00-1.723 1.723 1.72 1.72 0 001.723 1.723 1.72 1.72 0 001.723-1.723zm9-1a1.72 1.72 0 00-1.723-1.723 1.72 1.72 0 00-1.723 1.723 1.72 1.72 0 001.723 1.723 1.72 1.72 0 001.723-1.723zm9 6a1.72 1.72 0 00-1.723-1.723 1.72 1.72 0 00-1.723 1.723 1.72 1.72 0 001.723 1.723 1.72 1.72 0 001.723-1.723zm9 3a1.72 1.72 0 00-1.723-1.723 1.72 1.72 0 00-1.723 1.723 1.72 1.72 0 001.723 1.723 1.72 1.72 0 001.723-1.723zm9 5a1.72 1.72 0 00-1.723-1.723 1.72 1.72 0 00-1.723 1.723 1.72 1.72 0 001.723 1.723 1.72 1.72 0 001.723-1.723zm9 2a1.72 1.72 0 00-1.723-1.723 1.72 1.72 0 00-1.723 1.723 1.72 1.72 0 001.723 1.723 1.72 1.72 0 001.723-1.723zm9 0a1.72 1.72 0 00-1.723-1.723 1.72 1.72 0 00-1.723 1.723 1.72 1.72 0 001.723 1.723 1.72 1.72 0 001.723-1.723zm9 20a1.72 1.72 0 00-1.723-1.723 1.72 1.72 0 00-1.723 1.723 1.72 1.72 0 001.723 1.723 1.72 1.72 0 001.723-1.723zm9 0a1.72 1.72 0 00-1.723-1.723 1.72 1.72 0 00-1.723 1.723 1.72 1.72 0 001.723 1.723 1.72 1.72 0 001.723-1.723zm9-15a1.72 1.72 0 00-1.723-1.723 1.72 1.72 0 00-1.723 1.723 1.72 1.72 0 001.723 1.723 1.72 1.72 0 001.723-1.723zm9-5a1.72 1.72 0 00-1.723-1.723 1.72 1.72 0 00-1.723 1.723 1.72 1.72 0 001.723 1.723 1.72 1.72 0 001.723-1.723zm9 5a1.72 1.72 0 00-1.723-1.723 1.72 1.72 0 00-1.723 1.723 1.72 1.72 0 001.723 1.723 1.72 1.72 0 001.723-1.723zm9 26a1.72 1.72 0 00-1.723-1.723 1.72 1.72 0 00-1.723 1.723 1.72 1.72 0 001.723 1.723 1.72 1.72 0 001.723-1.723zm9-11a1.72 1.72 0 00-1.723-1.723 1.72 1.72 0 00-1.723 1.723 1.72 1.72 0 001.723 1.723 1.72 1.72 0 001.723-1.723zm9 11a1.72 1.72 0 00-1.723-1.723 1.72 1.72 0 00-1.723 1.723 1.72 1.72 0 001.723 1.723 1.72 1.72 0 001.723-1.723zm0 0" fill-rule="evenodd" fill="#a54f05"/><path d="M108.723 179a1.72 1.72 0 00-1.723-1.723 1.72 1.72 0 00-1.723 1.723 1.72 1.72 0 001.723 1.723 1.72 1.72 0 001.723-1.723zm9-48a1.72 1.72 0 00-1.723-1.723 1.72 1.72 0 00-1.723 1.723 1.72 1.72 0 001.723 1.723 1.72 1.72 0 001.723-1.723zm9-13a1.72 1.72 0 00-1.723-1.723 1.72 1.72 0 00-1.723 1.723 1.72 1.72 0 001.723 1.723 1.72 1.72 0 001.723-1.723zm9-7a1.72 1.72 0 00-1.723-1.723 1.72 1.72 0 00-1.723 1.723 1.72 1.72 0 001.723 1.723 1.72 1.72 0 001.723-1.723zm9-15A1.72 1.72 0 00143 94.277 1.72 1.72 0 00141.277 96 1.72 1.72 0 00143 97.723 1.72 1.72 0 00144.723 96zm9-6A1.72 1.72 0 00152 88.277 1.72 1.72 0 00150.277 90 1.72 1.72 0 00152 91.723 1.72 1.72 0 00153.723 90zm9-5A1.72 1.72 0 00161 83.277 1.72 1.72 0 00159.277 85 1.72 1.72 0 00161 86.723 1.72 1.72 0 00162.723 85zm9-2A1.72 1.72 0 00170 81.277 1.72 1.72 0 00168.277 83 1.72 1.72 0 00170 84.723 1.72 1.72 0 00171.723 83zm9-2A1.72 1.72 0 00179 79.277 1.72 1.72 0 00177.277 81 1.72 1.72 0 00179 82.723 1.72 1.72 0 00180.723 81zm9-4A1.72 1.72 0 00188 75.277 1.72 1.72 0 00186.277 77 1.72 1.72 0 00188 78.723 1.72 1.72 0 00189.723 77zm9-3A1.72 1.72 0 00197 72.277 1.72 1.72 0 00195.277 74 1.72 1.72 0 00197 75.723 1.72 1.72 0 00198.723 74zm9-1A1.72 1.72 0 00206 71.277 1.72 1.72 0 00204.277 73 1.72 1.72 0 00206 74.723 1.72 1.72 0 00207.723 73zm9 0A1.72 1.72 0 00215 71.277 1.72 1.72 0 00213.277 73 1.72 1.72 0 00215 74.723 1.72 1.72 0 00216.723 73zm9 2A1.72 1.72 0 00224 73.277 1.72 1.72 0 00222.277 75 1.72 1.72 0 00224 76.723 1.72 1.72 0 00225.723 75zm9-1A1.72 1.72 0 00233 72.277 1.72 1.72 0 00231.277 74 1.72 1.72 0 00233 75.723 1.72 1.72 0 00234.723 74zm9-3A1.72 1.72 0 00242 69.277 1.72 1.72 0 00240.277 71 1.72 1.72 0 00242 72.723 1.72 1.72 0 00243.723 71zm9 3A1.72 1.72 0 00251 72.277 1.72 1.72 0 00249.277 74 1.72 1.72 0 00251 75.723 1.72 1.72 0 00252.723 74zm9 0A1.72 1.72 0 00260 72.277 1.72 1.72 0 00258.277 74 1.72 1.72 0 00260 75.723 1.72 1.72 0 00261.723 74zm9 1A1.72 1.72 0 00269 73.277 1.72 1.72 0 00267.277 75 1.72 1.72 0 00269 76.723 1.72 1.72 0 00270.723 75zm9 3A1.72 1.72 0 00278 76.277 1.72 1.72 0 00276.277 78 1.72 1.72 0 00278 79.723 1.72 1.72 0 00279.723 78zm9 2A1.72 1.72 0 00287 78.277 1.72 1.72 0 00285.277 80 1.72 1.72 0 00287 81.723 1.72 1.72 0 00288.723 80zm9 2A1.72 1.72 0 00296 80.277 1.72 1.72 0 00294.277 82 1.72 1.72 0 00296 83.723 1.72 1.72 0 00297.723 82zm9 2A1.72 1.72 0 00305 82.277 1.72 1.72 0 00303.277 84 1.72 1.72 0 00305 85.723 1.72 1.72 0 00306.723 84zm9 0A1.72 1.72 0 00314 82.277 1.72 1.72 0 00312.277 84 1.72 1.72 0 00314 85.723 1.72 1.72 0 00315.723 84zm9 4A1.72 1.72 0 00323 86.277 1.72 1.72 0 00321.277 88 1.72 1.72 0 00323 89.723 1.72 1.72 0 00324.723 88zm9 2A1.72 1.72 0 00332 88.277 1.72 1.72 0 00330.277 90 1.72 1.72 0 00332 91.723 1.72 1.72 0 00333.723 90zm9 3A1.72 1.72 0 00341 91.277 1.72 1.72 0 00339.277 93 1.72 1.72 0 00341 94.723 1.72 1.72 0 00342.723 93zm9 4A1.72 1.72 0 00350 95.277 1.72 1.72 0 00348.277 97 1.72 1.72 0 00350 98.723 1.72 1.72 0 00351.723 97zm9 6a1.72 1.72 0 00-1.723-1.723 1.72 1.72 0 00-1.723 1.723 1.72 1.72 0 001.723 1.723 1.72 1.72 0 001.723-1.723zm9 6a1.72 1.72 0 00-1.723-1.723 1.72 1.72 0 00-1.723 1.723 1.72 1.72 0 001.723 1.723 1.72 1.72 0 001.723-1.723zm9 6a1.72 1.72 0 00-1.723-1.723 1.72 1.72 0 00-1.723 1.723 1.72 1.72 0 001.723 1.723 1.72 1.72 0 001.723-1.723zm9 3a1.72 1.72 0 00-1.723-1.723 1.72 1.72 0 00-1.723 1.723 1.72 1.72 0 001.723 1.723 1.72 1.72 0 001.723-1.723zm9-28A1.72 1.72 0 00395 88.277 1.72 1.72 0 00393.277 90 1.72 1.72 0 00395 91.723 1.72 1.72 0 00396.723 90zm9 34a1.72 1.72 0 00-1.723-1.723 1.72 1.72 0 00-1.723 1.723 1.72 1.72 0 001.723 1.723 1.72 1.72 0 001.723-1.723zm9 7a1.72 1.72 0 00-1.723-1.723 1.72 1.72 0 00-1.723 1.723 1.72 1.72 0 001.723 1.723 1.72 1.72 0 001.723-1.723zm9 8a1.72 1.72 0 00-1.723-1.723 1.72 1.72 0 00-1.723 1.723 1.72 1.72 0 001.723 1.723 1.72 1.72 0 001.723-1.723zm9 5a1.72 1.72 0 00-1.723-1.723 1.72 1.72 0 00-1.723 1.723 1.72 1.72 0 001.723 1.723 1.72 1.72 0 001.723-1.723zm9 9a1.72 1.72 0 00-1.723-1.723 1.72 1.72 0 00-1.723 1.723 1.72 1.72 0 001.723 1.723 1.72 1.72 0 001.723-1.723zm0 0" fill-rule="evenodd" fill="#6846c7"/><path d="M495 286H25m0 0V4m0 0h470m0 0v282" fill="none" stroke-width=".5" stroke-linecap="square" stroke="#666" stroke-miterlimit="3.25"/><path d="M52.45 286v-6.527" fill="none" stroke-width=".5" stroke="#666" stroke-miterlimit="3.25"/><g fill="#666"><use xlink:href="#ah" x="37.948" y="298"/><use xlink:href="#ai" x="43.466" y="298"/><use xlink:href="#aj" x="48.905" y="298"/></g><g fill="#666"><use xlink:href="#ak" x="55.948" y="298"/><use xlink:href="#al" x="61.563" y="298"/></g><path d="M178.785 286v-6.527" fill="none" stroke-width=".5" stroke="#666" stroke-miterlimit="3.25"/><g fill="#666"><use xlink:href="#ah" x="164.284" y="298"/><use xlink:href="#ai" x="169.802" y="298"/><use xlink:href="#aj" x="175.241" y="298"/></g><g fill="#666"><use xlink:href="#am" x="182.284" y="298"/><use xlink:href="#an" x="187.899" y="298"/></g><path d="M305.121 286v-6.527" fill="none" stroke-width=".5" stroke="#666" stroke-miterlimit="3.25"/><g fill="#666"><use xlink:href="#ao" x="290.62" y="298"/><use xlink:href="#ap" x="296.147" y="298"/><use xlink:href="#aq" x="301.445" y="298"/></g><g fill="#666"><use xlink:href="#ak" x="308.62" y="298"/><use xlink:href="#ar" x="314.235" y="298"/></g><path d="M431.457 286v-6.527" fill="none" stroke-width=".5" stroke="#666" stroke-miterlimit="3.25"/><g fill="#666"><use xlink:href="#ao" x="416.956" y="298"/><use xlink:href="#ap" x="422.483" y="298"/><use xlink:href="#aq" x="427.781" y="298"/></g><g fill="#666"><use xlink:href="#am" x="434.956" y="298"/><use xlink:href="#as" x="440.571" y="298"/></g><path d="M25 251.793h4.7" fill="none" stroke-width=".1" stroke="#666" stroke-miterlimit="3.25"/><g fill="#666"><use xlink:href="#ar" x="3" y="254.292"/><use xlink:href="#at" x="8.615" y="254.292"/><use xlink:href="#ar" x="11.247" y="254.292"/><use xlink:href="#ak" x="16.862" y="254.292"/></g><path d="M25 215.207h4.7" fill="none" stroke-width=".1" stroke="#666" stroke-miterlimit="3.25"/><g fill="#666"><use xlink:href="#ar" x="3" y="217.707"/><use xlink:href="#at" x="8.615" y="217.707"/><use xlink:href="#ak" x="11.247" y="217.707"/><use xlink:href="#ar" x="16.862" y="217.707"/></g><path d="M25 178.621h4.7" fill="none" stroke-width=".1" stroke="#666" stroke-miterlimit="3.25"/><use xlink:href="#ak" x="16" y="181.123" fill="#666"/><path d="M25 142.04h4.7" fill="none" stroke-width=".1" stroke="#666" stroke-miterlimit="3.25"/><g fill="#666"><use xlink:href="#ak" x="11" y="144.538"/><use xlink:href="#ar" x="16.615" y="144.538"/></g><path d="M25 105.453h4.7" fill="none" stroke-width=".1" stroke="#666" stroke-miterlimit="3.25"/><g fill="#666"><use xlink:href="#ak" x="5" y="107.953"/><use xlink:href="#ar" x="10.615" y="107.953"/><use xlink:href="#ar" x="16.23" y="107.953"/></g><path d="M25 68.867h4.7" fill="none" stroke-width=".1" stroke="#666" stroke-miterlimit="3.25"/><g fill="#666"><use xlink:href="#ak" y="71.368"/><use xlink:href="#ar" x="5.615" y="71.368"/><use xlink:href="#ar" x="11.23" y="71.368"/><use xlink:href="#ar" x="16.846" y="71.368"/></g><path d="M25 32.285h4.7" fill="none" stroke-width=".1" stroke="#666" stroke-miterlimit="3.25"/><g fill="#666"><use xlink:href="#ak" x="5" y="36.284"/><use xlink:href="#ar" x="10.615" y="36.284"/></g><use xlink:href="#au" x="16" y="32.284" fill="#666"/><path d="M25 277.363h2.398M25 270.922h2.398M25 266.352h2.398M25 262.805h2.398M25 259.91h2.398M25 257.46h2.398M25 255.336h2.398M25 253.465h2.398M25 240.777h2.398M25 234.336h2.398M25 229.766h2.398M25 226.219h2.398M25 223.324h2.398M25 220.875h2.398M25 218.754h2.398M25 216.883h2.398M25 204.195h2.398M25 197.754h2.398M25 193.18h2.398M25 189.637h2.398M25 186.738h2.398M25 184.29h2.398M25 182.168h2.398M25 180.297h2.398M25 167.61h2.398M25 161.168h2.398M25 156.598h2.398M25 153.05h2.398M25 150.152h2.398M25 147.703h2.398M25 145.582h2.398M25 143.71h2.398M25 131.023h2.398M25 124.582h2.398M25 120.012h2.398M25 116.465h2.398M25 113.57h2.398M25 111.121h2.398M25 109h2.398M25 107.129h2.398M25 94.441h2.398M25 87.996h2.398M25 83.426h2.398M25 79.883h2.398M25 76.984h2.398M25 74.535h2.398M25 72.414h2.398M25 70.543h2.398M25 57.855h2.398M25 51.414h2.398M25 46.844h2.398M25 43.297h2.398M25 40.398h2.398M25 37.95h2.398M25 35.828h2.398M25 33.957h2.398M25 21.27h2.398M25 14.828h2.398M25 10.258h2.398M25 6.71h2.398" fill="none" stroke-width=".1" stroke="#666" stroke-miterlimit="3.25"/><path d="M52.45 4v6.527M178.785 4v6.527M305.121 4v6.527M431.457 4v6.527" fill="none" stroke-width=".5" stroke="#666" stroke-miterlimit="3.25"/><path d="M495 251.793h-4.7m4.7-36.586h-4.7m4.7-36.586h-4.7m4.7-36.581h-4.7m4.7-36.587h-4.7m4.7-36.586h-4.7m4.7-36.582h-4.7m4.7 245.078h-2.398m2.398-6.441h-2.398m2.398-4.57h-2.398m2.398-3.547h-2.398M495 259.91h-2.398m2.398-2.45h-2.398m2.398-2.124h-2.398m2.398-1.871h-2.398M495 240.777h-2.398m2.398-6.441h-2.398m2.398-4.57h-2.398m2.398-3.547h-2.398m2.398-2.895h-2.398m2.398-2.449h-2.398m2.398-2.121h-2.398m2.398-1.871h-2.398M495 204.195h-2.398m2.398-6.441h-2.398M495 193.18h-2.398m2.398-3.543h-2.398m2.398-2.899h-2.398M495 184.29h-2.398m2.398-2.122h-2.398m2.398-1.871h-2.398M495 167.61h-2.398m2.398-6.442h-2.398m2.398-4.57h-2.398M495 153.05h-2.398m2.398-2.898h-2.398m2.398-2.449h-2.398m2.398-2.121h-2.398M495 143.71h-2.398M495 131.023h-2.398m2.398-6.441h-2.398m2.398-4.57h-2.398m2.398-3.547h-2.398M495 113.57h-2.398m2.398-2.449h-2.398M495 109h-2.398m2.398-1.871h-2.398M495 94.441h-2.398M495 87.996h-2.398m2.398-4.57h-2.398M495 79.883h-2.398M495 76.984h-2.398M495 74.535h-2.398M495 72.414h-2.398M495 70.543h-2.398M495 57.855h-2.398M495 51.414h-2.398m2.398-4.57h-2.398M495 43.297h-2.398M495 40.398h-2.398M495 37.95h-2.398M495 35.828h-2.398M495 33.957h-2.398M495 21.27h-2.398M495 14.828h-2.398m2.398-4.57h-2.398M495 6.71h-2.398" fill="none" stroke-width=".1" stroke="#666" stroke-miterlimit="3.25"/></svg>