<svg xmlns="http://www.w3.org/2000/svg" xmlns:xlink="http://www.w3.org/1999/xlink" width="500pt" height="254pt" viewBox="0 0 500 254"><defs><symbol overflow="visible" id="a"><path d="M4.738-8.14C3.578-6.88 2.121-5.82.36-4.97l.352.63C2.48-5.23 3.91-6.282 5-7.49c1.18 1.272 2.59 2.3 4.25 3.1l.36-.64a14.128 14.128 0 01-4.348-3.11zM2.211-4.98v.69h2.418v1.74H1.73v.69h2.9v1.848H.839V.7h8.333v-.71h-3.8v-1.85h2.89v-.692h-2.89V-4.29h2.417v-.691zm0 0"/></symbol><symbol overflow="visible" id="b"><path d="M2.52-6.121v.652h2.109v1.438h-1.79v.64h1.79v1.59H2.25v.66h5.512v-.66h-2.39v-1.59H7.16v-.64H5.371V-5.47H7.47v-.652zm6.59-1.59H.89V.98h.731V.55H8.38v.43h.73zM1.62-.129V-7.03h6.76v6.9zm4.93-3.05l-.57.19c.238.329.46.72.66 1.169l.558-.258A6.323 6.323 0 006.55-3.18zm0 0"/></symbol><symbol overflow="visible" id="f"><path d="M7.04-4.73h1.51v1.808H7.04zm1.51-.63H7.04v-1.78h1.51zM7.02-2.28h1.53v2.22c0 .278-.12.43-.35.43-.24 0-.49-.02-.759-.043l.168.64h.79C8.94.969 9.21.7 9.21.173V-7.8H6.379v5.082C6.359-1.422 6.07-.339 5.5.5l.52.46c.59-.839.921-1.92 1-3.241zm-5.9-5.67l-.492.46c.68.5 1.21.977 1.59 1.419l.5-.489A11.92 11.92 0 001.12-7.95zm-.2 2.34l-.491.46c.691.53 1.231 1.03 1.621 1.49l.5-.488c-.44-.48-.991-.973-1.628-1.461zm1.03 2.649A33.47 33.47 0 01.56.58l.652.28c.5-1.12.95-2.308 1.36-3.57zm3.762-.64H4.69V-5.5h1.297v-.648H4.691v-1.73H4v1.73H2.7v.648H4v1.898H2.95V.41h.66v-.59h2.1zM3.61-.801v-2.18h1.46V-.8zm0 0"/></symbol><symbol overflow="visible" id="g"><path d="M3.32-8.14v2.769H.672v.691H3.32v3.211c-.89.418-1.82.739-2.8.957L.69.2c.93-.258 1.809-.57 2.63-.949V.93h.738v-9.07zM8.22.84c.43 0 .73-.121.89-.36.16-.25.262-.96.32-2.128l-.679-.223c-.031 1.02-.09 1.61-.172 1.793C8.48.078 8.32.16 8.102.16h-1.25c-.25 0-.372-.148-.372-.43v-3.84c.93-.32 1.91-.788 2.95-1.421l-.418-.59c-.82.57-1.66 1.012-2.532 1.332v-3.352h-.73v7.98c0 .661.309 1 .941 1zm0 0"/></symbol><symbol overflow="visible" id="h"><path d="M3.77-7.078l-.598.367C4.05-5.68 4.738-4.75 5.25-3.91l.61-.417c-.481-.781-1.18-1.703-2.09-2.75zM7.21-2.18C7.97-1.129 8.579-.14 9.05.8l.552-.55a22.006 22.006 0 00-2.07-3.121c.058-.149.109-.3.16-.45.417-1.32.628-2.917.628-4.82h-.75c-.011 1.93-.218 3.52-.64 4.77-.551 1.48-1.68 2.7-3.38 3.68l.481.59C5.488.058 6.551-.97 7.211-2.18zM1.29-.14c1.17-.43 2.269-.938 3.288-1.532l-.2-.7c-.769.462-1.538.852-2.32 1.173v-6.68H1.32v6.508c0 .23-.09.41-.27.55zm0 0"/></symbol><symbol overflow="visible" id="i"><path d="M6.36-8.148V.988h.742v-5.316c.578.457 1.27 1.11 2.09 1.93l.437-.66c-.86-.77-1.7-1.462-2.527-2.07v-3.02zM2.32-4.18l-.379.559A7.882 7.882 0 013.52-2.56C2.82-1.48 1.84-.579.59.141l.488.609C3.68-.8 5.141-3.09 5.48-6.121v-.629H3.05c.141-.41.259-.84.36-1.29l-.719-.12c-.402 1.8-1.18 3.238-2.32 4.3l.488.61c.801-.738 1.45-1.672 1.93-2.809h1.98a9.025 9.025 0 01-.917 2.93 8.296 8.296 0 00-1.532-1.05zm0 0"/></symbol><symbol overflow="visible" id="c"><path d="M3.492 1.82l-.148.22C2.289 1.37 1.554.593 1.133-.29.777-1.04.598-2.007.598-3.194c0-.993.199-1.868.597-2.633a5.022 5.022 0 011.203-1.516c.313-.234.625-.465.938-.695l.133.203c-1.274.965-1.91 2.516-1.91 4.656 0 1.387.175 2.489.527 3.309.3.707.77 1.27 1.406 1.691zm0 0"/></symbol><symbol overflow="visible" id="e"><path d="M3.25-3.195c0 1.187-.176 2.156-.531 2.906C2.3.594 1.563 1.37.504 2.039L.359 1.82A3.776 3.776 0 001.77.13c.348-.82.52-1.926.52-3.309 0-2.136-.633-3.687-1.902-4.656l.129-.203c.312.23.625.46.937.695.512.438.914.946 1.207 1.516.395.766.59 1.64.59 2.633zm0 0"/></symbol><symbol overflow="visible" id="d"><path d="M1.832 0H.895v-7.11h.937zm0 0"/></symbol><symbol overflow="visible" id="j"><path d="M3.805-7.11h.941v5.036c0 .68-.203 1.21-.613 1.597-.406.383-.953.575-1.633.575-.707 0-1.258-.18-1.648-.543-.395-.36-.594-.867-.594-1.516h.937c0 .406.114.723.336.95.223.23.547.343.969.343.387 0 .7-.121.941-.367.239-.246.36-.586.364-1.028zm0 0"/></symbol><symbol overflow="visible" id="k"><path d="M3.945 0c-.05-.105-.093-.29-.125-.555-.422.434-.922.653-1.507.653-.52 0-.946-.149-1.282-.442a1.438 1.438 0 01-.5-1.12c0-.552.211-.977.63-1.282.417-.305 1.007-.457 1.765-.457h.879v-.414c0-.317-.094-.567-.285-.754-.188-.188-.465-.281-.833-.281-.324 0-.593.082-.812.242-.219.164-.328.36-.328.59H.64c0-.262.093-.516.28-.762.188-.246.442-.441.763-.582.32-.145.671-.219 1.054-.219.61 0 1.086.153 1.434.457.344.305.523.727.535 1.258v2.434c0 .484.063.87.184 1.156V0zm-1.5-.688c.285 0 .555-.074.805-.218a1.35 1.35 0 00.555-.574v-1.083h-.711c-1.106 0-1.656.325-1.656.97 0 .284.093.507.28.663.188.16.43.243.727.243zm0 0"/></symbol><symbol overflow="visible" id="l"><path d="M1.54-5.281l.026.664a1.93 1.93 0 011.582-.766c1.118 0 1.68.633 1.692 1.89V0h-.902v-3.496c-.004-.379-.094-.664-.262-.844-.172-.183-.438-.273-.801-.273-.293 0-.55.078-.77.234a1.59 1.59 0 00-.52.613V0h-.9v-5.281zm0 0"/></symbol><symbol overflow="visible" id="m"><path d="M3.559 0h-.907v-6.02l-1.824.668v-.82l2.59-.973h.14zm0 0"/></symbol><symbol overflow="visible" id="n"><path d="M4.137-7.113v.765h-.168c-.703.012-1.262.223-1.68.625-.414.403-.656.973-.723 1.703.375-.43.887-.644 1.536-.644.617 0 1.113.219 1.48.656.371.438.555 1 .555 1.688 0 .734-.2 1.32-.598 1.757-.398.442-.934.66-1.605.66-.68 0-1.23-.261-1.653-.784C.855-1.212.645-1.883.645-2.704v-.348c0-1.308.277-2.308.835-3 .56-.691 1.391-1.047 2.497-1.062zM2.949-3.91c-.308 0-.594.09-.855.277a1.446 1.446 0 00-.54.7v.331c0 .586.13 1.059.395 1.414.262.36.59.54.985.54.406 0 .726-.153.96-.45.231-.3.348-.691.348-1.175 0-.489-.117-.887-.351-1.188a1.14 1.14 0 00-.942-.45zm0 0"/></symbol><symbol overflow="visible" id="o"><path d="M5.25 0H.59v-.648l2.46-2.735c.364-.414.618-.75.755-1.008.14-.257.21-.527.21-.804 0-.371-.113-.676-.34-.914-.222-.239-.523-.356-.898-.356-.449 0-.797.13-1.047.383-.25.254-.37.613-.37 1.066H.452c0-.652.211-1.183.633-1.586.422-.402.984-.605 1.691-.605.66 0 1.184.172 1.567.52.386.347.578.808.578 1.382 0 .703-.445 1.535-1.336 2.5L1.68-.738h3.57zm0 0"/></symbol><symbol overflow="visible" id="p"><path d="M1.906-3.992h.676c.426-.008.762-.121 1.008-.34.242-.219.363-.512.363-.883 0-.832-.414-1.25-1.242-1.25-.39 0-.703.113-.938.336-.23.223-.347.516-.347.887H.523c0-.563.204-1.031.618-1.406.41-.372.933-.559 1.57-.559.672 0 1.195.176 1.578.531.379.356.57.848.57 1.48 0 .31-.101.61-.3.9a1.81 1.81 0 01-.817.648c.39.125.692.328.903.617.214.285.32.636.32 1.047 0 .64-.207 1.144-.625 1.52-.418.374-.957.562-1.625.562s-1.211-.18-1.63-.543c-.417-.36-.624-.836-.624-1.43h.906c0 .375.121.672.367.898.243.227.57.336.98.336.438 0 .77-.113 1-.34.231-.23.349-.554.349-.98 0-.414-.125-.734-.383-.953-.254-.223-.618-.336-1.098-.344h-.676zm0 0"/></symbol><symbol overflow="visible" id="q"><path d="M5.047-3.031c0 1.058-.18 1.844-.54 2.36-.362.51-.925.769-1.694.769-.758 0-1.32-.25-1.684-.754C.766-1.16.574-1.91.562-2.91v-1.207c0-1.043.18-1.82.54-2.328.363-.508.93-.762 1.703-.762.765 0 1.328.246 1.687.734.36.489.547 1.246.555 2.27zm-.902-1.235c0-.765-.106-1.324-.32-1.675-.216-.348-.555-.524-1.02-.524-.465 0-.801.176-1.012.524-.211.347-.32.882-.328 1.605v1.445c0 .77.113 1.336.336 1.704.222.367.558.546 1.012.546.445 0 .777-.171.992-.515.218-.344.332-.89.34-1.633zm0 0"/></symbol><symbol overflow="visible" id="r"><path d="M4.746-3.14H1.762V0H.824v-7.11H5.23v.774H1.762v2.43h2.984zm0 0"/></symbol><symbol overflow="visible" id="s"><path d="M2.875.098c-.715 0-1.297-.235-1.746-.707-.45-.47-.676-1.098-.676-1.887v-.164c0-.524.102-.992.3-1.406.2-.41.481-.735.84-.965.36-.235.75-.352 1.173-.352.687 0 1.218.227 1.601.68.38.453.57 1.101.57 1.945v.375H1.36c.012.52.164.942.454 1.262.292.32.664.48 1.113.48.316 0 .59-.062.808-.195.223-.129.414-.3.582-.516l.551.43c-.441.68-1.105 1.02-1.992 1.02zm-.11-4.739a1.21 1.21 0 00-.921.399c-.246.265-.399.64-.457 1.117H4.03v-.07c-.023-.457-.148-.813-.367-1.067-.223-.25-.523-.379-.898-.379zm0 0"/></symbol><symbol overflow="visible" id="t"><path d="M5.156-2.582c0 .809-.187 1.453-.554 1.945-.372.489-.872.735-1.497.735-.667 0-1.183-.235-1.546-.707L1.516 0H.684v-7.5h.902v2.797c.367-.453.867-.68 1.508-.68.64 0 1.148.246 1.511.73.368.485.551 1.15.551 1.993zm-.902-.106c0-.613-.121-1.09-.356-1.421-.238-.336-.582-.504-1.027-.504-.598 0-1.023.277-1.285.828V-1.5c.277.555.71.832 1.297.832.43 0 .77-.168 1.008-.504.242-.336.363-.84.363-1.516zm0 0"/></symbol><symbol overflow="visible" id="u"><path d="M5.18-6.602L2.234 0H1.29l2.934-6.367H.375v-.742H5.18zm0 0"/></symbol><symbol overflow="visible" id="v"><path d="M2.035-7.11L4.36-1.308l2.325-5.8h1.214V0h-.937v-2.77l.09-2.988L4.719 0H4L1.672-5.742l.09 2.972V0H.824v-7.11zm0 0"/></symbol><symbol overflow="visible" id="w"><path d="M3.238-4.473a2.64 2.64 0 00-.445-.035c-.594 0-.996.254-1.207.758V0H.684v-5.281h.878l.016.61c.297-.474.715-.712 1.258-.712.176 0 .309.024.402.07zm0 0"/></symbol><symbol overflow="visible" id="x"><path d="M1.008-3.563l.36-3.546h3.64v.836H2.133l-.215 1.937a2.32 2.32 0 011.187-.309c.649 0 1.16.215 1.543.645.383.426.57 1.004.57 1.734 0 .735-.195 1.309-.593 1.73-.395.423-.945.634-1.656.634-.63 0-1.14-.176-1.54-.524C1.032-.773.81-1.254.75-1.87h.855c.055.406.2.715.434.922.234.207.547.308.93.308.422 0 .75-.14.988-.43.238-.284.36-.679.36-1.187 0-.472-.13-.855-.387-1.144-.258-.285-.606-.43-1.035-.43-.395 0-.704.086-.926.258l-.242.195zm0 0"/></symbol><symbol overflow="visible" id="y"><path d="M4.406-2.387h.985v.739h-.985V0h-.91v-1.648H.258v-.536L3.44-7.109h.965zm-3.12 0h2.21v-3.488l-.105.195zm0 0"/></symbol><symbol overflow="visible" id="z"><path d="M4.902-5.254c0 .356-.093.672-.28.95a1.95 1.95 0 01-.759.648c.371.16.664.39.88.695.218.309.327.656.327 1.043 0 .613-.21 1.105-.625 1.469-.414.363-.96.547-1.636.547-.684 0-1.23-.184-1.645-.551C.754-.82.547-1.31.547-1.918c0-.387.105-.73.316-1.043.207-.309.5-.543.871-.703a1.869 1.869 0 01-.75-.648 1.693 1.693 0 01-.273-.942c0-.598.195-1.074.578-1.426.383-.351.89-.527 1.52-.527.625 0 1.128.176 1.515.527.387.352.578.828.578 1.426zm-.738 3.316c0-.398-.125-.722-.379-.972-.25-.25-.582-.375-.988-.375s-.73.12-.977.37c-.246.247-.37.571-.37.978 0 .402.12.718.359.953.238.23.574.343 1 .343.421 0 .753-.117.996-.347.242-.235.36-.551.36-.95zM2.81-6.465c-.356 0-.645.11-.864.328-.218.223-.328.52-.328.899 0 .36.106.652.324.875.215.222.504.336.868.336.359 0 .648-.114.867-.336C3.89-4.586 4-4.88 4-5.238c0-.364-.113-.657-.336-.887a1.16 1.16 0 00-.855-.34zm0 0"/></symbol></defs><path d="M40.719 236.66V.5m54.023 236.16V.5m54.024 236.16V.5m54.024 236.16V.5m54.023 236.16V.5m54.023 236.16V.5m54.024 236.16V.5m54.023 236.16V.5M33 178.281h393.602M33 124.625h393.602M33 70.969h393.602M33 17.313h393.602" fill="none" stroke="#666" stroke-opacity=".5" stroke-dasharray="1,2" stroke-miterlimit="3.25"/><path d="M43.164 232a2.164 2.164 0 10-4.328 0 2.164 2.164 0 104.328 0zm7 0a2.164 2.164 0 10-4.328 0 2.164 2.164 0 104.328 0zm8 0a2.164 2.164 0 10-4.328 0 2.164 2.164 0 104.328 0zm8 0a2.164 2.164 0 10-4.328 0 2.164 2.164 0 104.328 0zm8-1a2.164 2.164 0 10-4.328 0 2.164 2.164 0 104.328 0zm7 0a2.164 2.164 0 10-4.328 0 2.164 2.164 0 104.328 0zm8 0a2.164 2.164 0 10-4.328 0 2.164 2.164 0 104.328 0zm8-1a2.164 2.164 0 10-4.328 0 2.164 2.164 0 104.328 0zm7 0a2.164 2.164 0 10-4.328 0 2.164 2.164 0 104.328 0zm8-1a2.164 2.164 0 10-4.328 0 2.164 2.164 0 104.328 0zm8-2a2.164 2.164 0 10-4.328 0 2.164 2.164 0 104.328 0zm8-2a2.164 2.164 0 10-4.328 0 2.164 2.164 0 104.328 0zm7-5a2.164 2.164 0 10-4.328 0 2.164 2.164 0 104.328 0zm8-4a2.164 2.164 0 10-4.328 0 2.164 2.164 0 104.328 0zm8-5a2.164 2.164 0 10-4.328 0 2.164 2.164 0 104.328 0zm7-5a2.164 2.164 0 10-4.328 0 2.164 2.164 0 104.328 0zm8-6a2.164 2.164 0 10-4.328 0 2.164 2.164 0 104.328 0zm8-7a2.164 2.164 0 10-4.328 0 2.164 2.164 0 104.328 0zm8-7a2.164 2.164 0 10-4.328 0 2.164 2.164 0 104.328 0zm7-9a2.164 2.164 0 10-4.328 0 2.164 2.164 0 104.328 0zm8-10a2.164 2.164 0 10-4.328 0 2.164 2.164 0 104.328 0zm8-10a2.164 2.164 0 10-4.328 0 2.164 2.164 0 104.328 0zm8-9a2.164 2.164 0 10-4.328 0 2.164 2.164 0 104.328 0zm7-9a2.164 2.164 0 10-4.328 0 2.164 2.164 0 104.328 0zm8-7a2.164 2.164 0 10-4.328 0 2.164 2.164 0 104.328 0zm8-8a2.164 2.164 0 10-4.328 0 2.164 2.164 0 104.328 0zm7-7a2.164 2.164 0 10-4.328 0 2.164 2.164 0 104.328 0zm8-5a2.164 2.164 0 10-4.328 0 2.164 2.164 0 104.328 0zm8-38a2.164 2.164 0 10-4.328 0 2.164 2.164 0 104.328 0zm8-14a2.164 2.164 0 10-4.328 0 2.164 2.164 0 104.328 0zm7-7a2.164 2.164 0 10-4.328 0 2.164 2.164 0 104.328 0zm8-5a2.164 2.164 0 10-4.328 0 2.164 2.164 0 104.328 0zm8-6a2.164 2.164 0 10-4.328 0 2.164 2.164 0 104.328 0zm7-5a2.164 2.164 0 10-4.328 0 2.164 2.164 0 104.328 0zm8-4a2.164 2.164 0 10-4.328 0 2.164 2.164 0 104.328 0zm8-3a2.164 2.164 0 10-4.328 0 2.164 2.164 0 104.328 0zm8-2a2.164 2.164 0 10-4.328 0 2.164 2.164 0 104.328 0zm7-1a2.164 2.164 0 10-4.328 0 2.164 2.164 0 104.328 0zm8-2a2.164 2.164 0 10-4.328 0 2.164 2.164 0 104.328 0zm8-1a2.164 2.164 0 10-4.328 0 2.164 2.164 0 104.328 0zm7-1a2.164 2.164 0 10-4.328 0 2.164 2.164 0 104.328 0zm8-1a2.164 2.164 0 10-4.328 0 2.164 2.164 0 104.328 0zm8-2a2.164 2.164 0 10-4.328 0 2.164 2.164 0 104.328 0zm8 0a2.164 2.164 0 10-4.328 0 2.164 2.164 0 104.328 0zm0 0" fill-rule="evenodd" fill="#a60000"/><path d="M74.164 232a2.164 2.164 0 10-4.328 0 2.164 2.164 0 104.328 0zm7 0a2.164 2.164 0 10-4.328 0 2.164 2.164 0 104.328 0zm8 0a2.164 2.164 0 10-4.328 0 2.164 2.164 0 104.328 0zm8 0a2.164 2.164 0 10-4.328 0 2.164 2.164 0 104.328 0zm7-1a2.164 2.164 0 10-4.328 0 2.164 2.164 0 104.328 0zm8-1a2.164 2.164 0 10-4.328 0 2.164 2.164 0 104.328 0zm8-1a2.164 2.164 0 10-4.328 0 2.164 2.164 0 104.328 0zm8-1a2.164 2.164 0 10-4.328 0 2.164 2.164 0 104.328 0zm7-1a2.164 2.164 0 10-4.328 0 2.164 2.164 0 104.328 0zm8-2a2.164 2.164 0 10-4.328 0 2.164 2.164 0 104.328 0zm8-1a2.164 2.164 0 10-4.328 0 2.164 2.164 0 104.328 0zm7-2a2.164 2.164 0 10-4.328 0 2.164 2.164 0 104.328 0zm8-3a2.164 2.164 0 10-4.328 0 2.164 2.164 0 104.328 0zm8-1a2.164 2.164 0 10-4.328 0 2.164 2.164 0 104.328 0zm8-2a2.164 2.164 0 10-4.328 0 2.164 2.164 0 104.328 0zm7-3a2.164 2.164 0 10-4.328 0 2.164 2.164 0 104.328 0zm8-2a2.164 2.164 0 10-4.328 0 2.164 2.164 0 104.328 0zm8-1a2.164 2.164 0 10-4.328 0 2.164 2.164 0 104.328 0zm8-2a2.164 2.164 0 10-4.328 0 2.164 2.164 0 104.328 0zm7-2a2.164 2.164 0 10-4.328 0 2.164 2.164 0 104.328 0zm8-1a2.164 2.164 0 10-4.328 0 2.164 2.164 0 104.328 0zm8-1a2.164 2.164 0 10-4.328 0 2.164 2.164 0 104.328 0zm7-1a2.164 2.164 0 10-4.328 0 2.164 2.164 0 104.328 0zm8-1a2.164 2.164 0 10-4.328 0 2.164 2.164 0 104.328 0zm8-1a2.164 2.164 0 10-4.328 0 2.164 2.164 0 104.328 0zm8-1a2.164 2.164 0 10-4.328 0 2.164 2.164 0 104.328 0zm7-1a2.164 2.164 0 10-4.328 0 2.164 2.164 0 104.328 0zm8 0a2.164 2.164 0 10-4.328 0 2.164 2.164 0 104.328 0zm8 0a2.164 2.164 0 10-4.328 0 2.164 2.164 0 104.328 0zm7-1a2.164 2.164 0 10-4.328 0 2.164 2.164 0 104.328 0zm8 0a2.164 2.164 0 10-4.328 0 2.164 2.164 0 104.328 0zm8 0a2.164 2.164 0 10-4.328 0 2.164 2.164 0 104.328 0zm8 0a2.164 2.164 0 10-4.328 0 2.164 2.164 0 104.328 0zm7-1a2.164 2.164 0 10-4.328 0 2.164 2.164 0 104.328 0zm8 0a2.164 2.164 0 10-4.328 0 2.164 2.164 0 104.328 0zm8 0a2.164 2.164 0 10-4.328 0 2.164 2.164 0 104.328 0zm7 0a2.164 2.164 0 10-4.328 0 2.164 2.164 0 104.328 0zm8 0a2.164 2.164 0 10-4.328 0 2.164 2.164 0 104.328 0zm8 0a2.164 2.164 0 10-4.328 0 2.164 2.164 0 104.328 0zm8 0a2.164 2.164 0 10-4.328 0 2.164 2.164 0 104.328 0zm0 0" fill-rule="evenodd" fill="#0d86a0"/><path d="M256.965 111.813h195.379" fill="none" stroke-width="4" stroke-linejoin="round" stroke="#fff" stroke-opacity=".667" stroke-miterlimit="3.25"/><path d="M256.965 111.813h195.379" fill="none" stroke-width="1.25" stroke-linecap="square" stroke="#aaa" stroke-miterlimit="3.25"/><path d="M490.344 103.813v16h-38v-16zm0 0" fill="#fff" fill-opacity=".667"/><use xlink:href="#a" x="454.844" y="114.311"/><use xlink:href="#b" x="464.844" y="114.311"/><use xlink:href="#c" x="476.844" y="114.311"/><use xlink:href="#d" x="480.844" y="114.311"/><use xlink:href="#e" x="483.844" y="114.311"/><path d="M380.45 19.605h71.894" fill="none" stroke-width="4" stroke-linejoin="round" stroke="#fff" stroke-opacity=".667" stroke-miterlimit="3.25"/><path d="M380.45 19.605h71.894" fill="none" stroke-width="1.25" stroke-linecap="square" stroke="#aaa" stroke-miterlimit="3.25"/><path d="M492.344 11.605v16h-40v-16zm0 0" fill="#fff" fill-opacity=".667"/><use xlink:href="#a" x="454.844" y="22.106"/><use xlink:href="#b" x="464.844" y="22.106"/><use xlink:href="#c" x="476.844" y="22.106"/><use xlink:href="#d" x="480.844" y="22.106"/><use xlink:href="#d" x="483.564" y="22.106"/><use xlink:href="#e" x="485.844" y="22.106"/><path d="M380.45 197.207h71.894" fill="none" stroke-width="4" stroke-linejoin="round" stroke="#fff" stroke-opacity=".667" stroke-miterlimit="3.25"/><path d="M380.45 197.207h71.894" fill="none" stroke-width="1.25" stroke-linecap="square" stroke="#aaa" stroke-miterlimit="3.25"/><path d="M497.344 189.707v15h-45v-15zm0 0" fill="#fff" fill-opacity=".667"/><use xlink:href="#f" x="454.844" y="199.708"/><use xlink:href="#g" x="464.844" y="199.708"/><use xlink:href="#h" x="474.844" y="199.708"/><use xlink:href="#i" x="484.844" y="199.708"/><path d="M249.094 111.813l7.719-37.852" fill="none" stroke-width="1.6" stroke-linecap="square" stroke="#a60000" stroke-opacity=".3" stroke-dasharray="4,4" stroke-miterlimit="3.25"/><path d="M33 232.941l.066-.004h.2l.265-.003.528-.012 1.062-.016 2.121-.035 4.598-.086 4.293-.097 4.21-.11 4.567-.133 4.262-.148 4.617-.188 4.535-.214 4.227-.235 4.59-.293 4.28-.316 4.196-.363 4.555-.45 4.25-.488 4.605-.613 4.52-.7 4.219-.753 4.574-.938 4.27-1.004 4.624-1.254 4.543-1.414 4.235-1.504 4.593-1.855 4.29-1.961 4.207-2.16 4.558-2.625 4.258-2.735 4.613-3.285 4.531-3.566 4.223-3.637 4.582-4.27 4.278-4.288 4.19-4.461 4.552-5.102 4.242-4.96 4.601-5.548 4.297-5.281 4.215-5.219 4.567-5.637 4.265-5.18 4.621-5.464 4.54-5.149 4.23-4.574 4.59-4.672 4.285-4.066 4.2-3.695 4.554-3.68 4.254-3.121.074-.055.223-.152.296-.207.594-.406 1.188-.797.074-.051.07-.047.446-.293.593-.383.074-.05 1.114-.704m7.719-39.597l.05-.075.047-.074.102-.148.199-.293.394-.586.797-1.148 1.59-2.223 3.45-4.5 3.218-3.836 3.16-3.445 3.422-3.418 3.2-2.91 3.46-2.883 3.403-2.575 3.172-2.195 3.437-2.172 3.211-1.855 3.148-1.664 3.418-1.653 3.188-1.406 3.453-1.394 3.39-1.246 3.165-1.063 3.43-1.05 3.203-.9 3.468-.886 3.407-.793 3.175-.676 3.446-.672 3.218-.57 3.153-.512 3.422-.507 3.191-.434 3.46-.43 3.4-.383 3.167-.324 3.434-.324 3.21-.277 3.145-.246 3.41-.246 3.184-.211 3.45-.207 3.222-.176 3.16-.16 3.426-.157 3.2-.136 3.464-.133 3.406-.117 3.172-.102 3.442-.101 3.214-.086 3.149-.075 3.418-.078 3.191-.062.055-.004h.164l.223-.008 1.336-.023h.054l.059-.004h.11l.667-.012h.055l.058-.004h.11l.223-.004.054-.004h.168l.055-.004h.168" fill="none" stroke-width="1.6" stroke-linecap="square" stroke="#a60000" stroke-opacity=".3" stroke-miterlimit="3.25"/><path d="M33 233.613h.117l.121-.004h.235l.472-.007.95-.012 1.894-.031 3.785-.059.13-.004h.128l.254-.004.516-.012 1.027-.015 2.05-.04 4.106-.081.121-.004h.121l.239-.008.48-.008.957-.023 1.918-.043 3.832-.098h.117l.352-.012.473-.011.937-.028 1.879-.054 3.758-.114.129-.004.129-.007.761-.024 1.02-.035 2.039-.074 4.078-.156.117-.004.121-.008.239-.008.472-.02.953-.042 1.903-.082 3.804-.184.13-.004.128-.008.258-.011 1.547-.083 2.058-.113 4.125-.246.125-.008.13-.007.253-.016.504-.031 1.012-.067 2.023-.137 4.051-.296.117-.012.118-.008.238-.02.469-.035 2.835-.234 3.774-.336.258-.023.254-.024.511-.047 3.07-.304 4.098-.442.118-.011.12-.016.715-.082.957-.11 1.91-.23 3.825-.492 7.496-1.082 8.129-1.367 7.59-1.461 8.226-1.785 8.074-1.934 7.528-1.934 8.168-2.191 7.625-2.09 8.262-2.242 8.109-2.121 7.566-1.856 8.203-1.847 7.657-1.543 7.511-1.34 8.145-1.25.117-.02.121-.015.238-.032.473-.066.95-.133 1.902-.254 3.8-.476.258-.031.258-.028.512-.062 1.031-.121 2.059-.23 4.12-.43.126-.012.129-.012.25-.027.507-.047 1.012-.098 2.02-.187 4.047-.348.117-.008.117-.012.234-.02.473-.034.941-.074 1.887-.145 3.774-.27.128-.007.125-.008.258-.016.512-.035 1.02-.066 2.046-.13 4.09-.234.121-.004.118-.007.238-.012.48-.027.953-.051 1.91-.094 3.817-.18.117-.004.117-.007.235-.008.468-.02.934-.043 1.871-.074 3.746-.144.125-.004.13-.004.253-.008.508-.02 1.015-.035 2.032-.066 4.058-.125.121-.004.118-.004.238-.004.473-.015.949-.024 1.894-.05 3.79-.094.257-.008.254-.004.516-.012 1.027-.023 2.055-.043 4.105-.082h.121l.121-.004.239-.004.48-.008.957-.016 1.918-.035 3.836-.058h.121l.117-.004.235-.004.469-.004.94-.016 1.88-.023 3.762-.047.128-.004h.125l.258-.004.508-.004 3.059-.035 4.082-.039.117-.004h.36l.472-.004.953-.011 1.906-.016 3.805-.031h.516l1.546-.012 2.067-.016h.258l.257-.004.516-.003 1.031-.004 2.063-.012.125-.004h.379l.508-.004 1.011-.004 2.028-.012 4.05-.02h.118l.117-.003h.71l.946-.004 1.887-.012 3.781-.011h.125l.129-.004h.77l1.023-.004 2.05-.008 4.094-.012h.48l.477-.004.957-.003 1.915-.004 3.824-.008h.469l.468-.004h.938l5.625-.012h.508l.507-.004h1.02l2.035-.004 4.067-.007h1.898l1.898-.004h.95l.949-.004h2.957l1.058-.004h2.653l.527-.004h3.18" fill="none" stroke-width="1.6" stroke-linecap="square" stroke="#0d86a0" stroke-opacity=".3" stroke-miterlimit="3.25"/><path d="M426.602 236.66H33m0 0V.5m0 0h393.602m0 0v236.16" fill="none" stroke-width=".5" stroke-linecap="square" stroke="#666" stroke-miterlimit="3.25"/><path d="M40.719 236.66v-4" fill="none" stroke-width=".5" stroke="#666" stroke-miterlimit="3.25"/><g fill="#666"><use xlink:href="#j" x="26.218" y="248.66"/><use xlink:href="#k" x="31.735" y="248.66"/><use xlink:href="#l" x="37.175" y="248.66"/></g><g fill="#666"><use xlink:href="#m" x="44.218" y="248.66"/><use xlink:href="#n" x="49.833" y="248.66"/></g><path d="M94.742 236.66v-4" fill="none" stroke-width=".5" stroke="#666" stroke-miterlimit="3.25"/><g fill="#666"><use xlink:href="#j" x="80.241" y="248.66"/><use xlink:href="#k" x="85.759" y="248.66"/><use xlink:href="#l" x="91.198" y="248.66"/></g><g fill="#666"><use xlink:href="#o" x="98.241" y="248.66"/><use xlink:href="#p" x="103.856" y="248.66"/></g><path d="M148.766 236.66v-4" fill="none" stroke-width=".5" stroke="#666" stroke-miterlimit="3.25"/><g fill="#666"><use xlink:href="#j" x="134.265" y="248.66"/><use xlink:href="#k" x="139.782" y="248.66"/><use xlink:href="#l" x="145.222" y="248.66"/></g><g fill="#666"><use xlink:href="#p" x="152.265" y="248.66"/><use xlink:href="#q" x="157.88" y="248.66"/></g><path d="M202.79 236.66v-4" fill="none" stroke-width=".5" stroke="#666" stroke-miterlimit="3.25"/><g fill="#666"><use xlink:href="#r" x="188.288" y="248.66"/><use xlink:href="#s" x="193.816" y="248.66"/><use xlink:href="#t" x="199.113" y="248.66"/></g><g fill="#666"><use xlink:href="#q" x="206.288" y="248.66"/><use xlink:href="#n" x="211.903" y="248.66"/></g><path d="M256.813 236.66v-4" fill="none" stroke-width=".5" stroke="#666" stroke-miterlimit="3.25"/><g fill="#666"><use xlink:href="#r" x="242.312" y="248.66"/><use xlink:href="#s" x="247.839" y="248.66"/><use xlink:href="#t" x="253.137" y="248.66"/></g><g fill="#666"><use xlink:href="#m" x="260.312" y="248.66"/><use xlink:href="#p" x="265.927" y="248.66"/></g><path d="M310.836 236.66v-4" fill="none" stroke-width=".5" stroke="#666" stroke-miterlimit="3.25"/><g fill="#666"><use xlink:href="#r" x="296.335" y="248.66"/><use xlink:href="#s" x="301.863" y="248.66"/><use xlink:href="#t" x="307.16" y="248.66"/></g><g fill="#666"><use xlink:href="#o" x="314.335" y="248.66"/><use xlink:href="#q" x="319.951" y="248.66"/></g><path d="M364.86 236.66v-4" fill="none" stroke-width=".5" stroke="#666" stroke-miterlimit="3.25"/><g fill="#666"><use xlink:href="#r" x="350.359" y="248.66"/><use xlink:href="#s" x="355.886" y="248.66"/><use xlink:href="#t" x="361.184" y="248.66"/></g><g fill="#666"><use xlink:href="#o" x="368.359" y="248.66"/><use xlink:href="#u" x="373.974" y="248.66"/></g><path d="M418.883 236.66v-4" fill="none" stroke-width=".5" stroke="#666" stroke-miterlimit="3.25"/><g fill="#666"><use xlink:href="#v" x="403.382" y="248.66"/><use xlink:href="#k" x="412.113" y="248.66"/><use xlink:href="#w" x="417.552" y="248.66"/></g><g fill="#666"><use xlink:href="#q" x="423.382" y="248.66"/><use xlink:href="#x" x="428.998" y="248.66"/></g><path d="M33 231.938h4" fill="none" stroke-width=".5" stroke="#666" stroke-miterlimit="3.25"/><use xlink:href="#q" x="24" y="234.437" fill="#666"/><path d="M33 218.523h2.398M33 205.11h2.398M33 191.695h2.398M33 178.281h4" fill="none" stroke-width=".5" stroke="#666" stroke-miterlimit="3.25"/><g fill="#666"><use xlink:href="#o" y="180.781"/><use xlink:href="#q" x="5.615" y="180.781"/></g><g fill="#666"><use xlink:href="#q" x="12.686" y="180.781"/><use xlink:href="#q" x="18.301" y="180.781"/><use xlink:href="#q" x="23.916" y="180.781"/></g><path d="M33 164.867h2.398M33 151.453h2.398M33 138.04h2.398M33 124.625h4" fill="none" stroke-width=".5" stroke="#666" stroke-miterlimit="3.25"/><g fill="#666"><use xlink:href="#y" y="127.124"/><use xlink:href="#q" x="5.615" y="127.124"/></g><g fill="#666"><use xlink:href="#q" x="12.686" y="127.124"/><use xlink:href="#q" x="18.301" y="127.124"/><use xlink:href="#q" x="23.916" y="127.124"/></g><path d="M33 111.21h2.398M33 97.797h2.398M33 84.383h2.398M33 70.969h4" fill="none" stroke-width=".5" stroke="#666" stroke-miterlimit="3.25"/><g fill="#666"><use xlink:href="#n" y="73.468"/><use xlink:href="#q" x="5.615" y="73.468"/></g><g fill="#666"><use xlink:href="#q" x="12.686" y="73.468"/><use xlink:href="#q" x="18.301" y="73.468"/><use xlink:href="#q" x="23.916" y="73.468"/></g><path d="M33 57.555h2.398M33 44.14h2.398M33 30.727h2.398M33 17.313h4" fill="none" stroke-width=".5" stroke="#666" stroke-miterlimit="3.25"/><g fill="#666"><use xlink:href="#z" y="19.812"/><use xlink:href="#q" x="5.615" y="19.812"/></g><g fill="#666"><use xlink:href="#q" x="12.686" y="19.812"/><use xlink:href="#q" x="18.301" y="19.812"/><use xlink:href="#q" x="23.916" y="19.812"/></g><path d="M33 3.898h2.398m391.204 228.04h-4m4-13.415h-2.403m2.403-13.413h-2.403m2.403-13.415h-2.403m2.403-13.414h-4m4-13.414h-2.403m2.403-13.414h-2.403m2.403-13.413h-2.403m2.403-13.415h-4m4-13.415h-2.403m2.403-13.413h-2.403m2.403-13.414h-2.403m2.403-13.414h-4m4-13.414h-2.403m2.403-13.415h-2.403m2.403-13.413h-2.403m2.403-13.414h-4m4-13.415h-2.403" fill="none" stroke-width=".5" stroke="#666" stroke-miterlimit="3.25"/></svg>