<svg xmlns="http://www.w3.org/2000/svg" xmlns:xlink="http://www.w3.org/1999/xlink" width="500pt" height="332" viewBox="0 0 500 249"><defs><symbol overflow="visible" id="a"><path d="M4.738-8.14C3.578-6.88 2.121-5.82.36-4.97l.352.63C2.48-5.23 3.91-6.282 5-7.49c1.18 1.272 2.59 2.3 4.25 3.1l.36-.64a14.128 14.128 0 01-4.348-3.11zM2.211-4.98v.69h2.418v1.74H1.73v.69h2.9v1.848H.839V.7h8.333v-.71h-3.8v-1.85h2.89v-.692h-2.89V-4.29h2.417v-.691zm0 0"/></symbol><symbol overflow="visible" id="b"><path d="M2.52-6.121v.652h2.109v1.438h-1.79v.64h1.79v1.59H2.25v.66h5.512v-.66h-2.39v-1.59H7.16v-.64H5.371V-5.47H7.47v-.652zm6.59-1.59H.89V.98h.731V.55H8.38v.43h.73zM1.62-.129V-7.03h6.76v6.9zm4.93-3.05l-.57.19c.238.329.46.72.66 1.169l.558-.258A6.323 6.323 0 006.55-3.18zm0 0"/></symbol><symbol overflow="visible" id="c"><path d="M7.04-4.73h1.51v1.808H7.04zm1.51-.63H7.04v-1.78h1.51zM7.02-2.28h1.53v2.22c0 .278-.12.43-.35.43-.24 0-.49-.02-.759-.043l.168.64h.79C8.94.969 9.21.7 9.21.173V-7.8H6.379v5.082C6.359-1.422 6.07-.339 5.5.5l.52.46c.59-.839.921-1.92 1-3.241zm-5.9-5.67l-.492.46c.68.5 1.21.977 1.59 1.419l.5-.489A11.92 11.92 0 001.12-7.95zm-.2 2.34l-.491.46c.691.53 1.231 1.03 1.621 1.49l.5-.488c-.44-.48-.991-.973-1.628-1.461zm1.03 2.649A33.47 33.47 0 01.56.58l.652.28c.5-1.12.95-2.308 1.36-3.57zm3.762-.64H4.69V-5.5h1.297v-.648H4.691v-1.73H4v1.73H2.7v.648H4v1.898H2.95V.41h.66v-.59h2.1zM3.61-.801v-2.18h1.46V-.8zm0 0"/></symbol><symbol overflow="visible" id="d"><path d="M3.32-8.14v2.769H.672v.691H3.32v3.211c-.89.418-1.82.739-2.8.957L.69.2c.93-.258 1.809-.57 2.63-.949V.93h.738v-9.07zM8.22.84c.43 0 .73-.121.89-.36.16-.25.262-.96.32-2.128l-.679-.223c-.031 1.02-.09 1.61-.172 1.793C8.48.078 8.32.16 8.102.16h-1.25c-.25 0-.372-.148-.372-.43v-3.84c.93-.32 1.91-.788 2.95-1.421l-.418-.59c-.82.57-1.66 1.012-2.532 1.332v-3.352h-.73v7.98c0 .661.309 1 .941 1zm0 0"/></symbol><symbol overflow="visible" id="e"><path d="M5.262-8.32l-.793.14c.203.32.39.68.55 1.07H1.302v2.93C1.28-2.16.98-.59.42.55l.59.528C1.662-.238 2-1.988 2.04-4.18v-2.242h7.41v-.687H5.81c-.18-.45-.36-.852-.547-1.211zm0 0"/></symbol><symbol overflow="visible" id="f"><path d="M.781-6.96v.698h2.14c-.53 1.024-1.1 1.852-1.71 2.512l.168.629h3.46v3c0 .293-.16.441-.468.441-.3 0-.61-.02-.941-.05l.148.71h1.043c.629 0 .95-.308.95-.921v-3.18h3.148v-.668H5.57v-1.48h-.73v1.48h-2.7a14.36 14.36 0 001.57-2.473h5.42v-.699h-5.1c.16-.367.32-.75.48-1.148l-.71-.16c-.18.46-.36.89-.551 1.308zM2.88-2.329A10.003 10.003 0 01.48-.102L.941.5C1.898-.18 2.72-.98 3.38-1.89zm4.33-.011l-.48.461c.95.86 1.7 1.66 2.238 2.419L9.5.02a16.925 16.925 0 00-2.29-2.36zm0 0"/></symbol><symbol overflow="visible" id="g"><path d="M1.18-7.95l-.508.5c.738.528 1.328 1.028 1.75 1.5l.52-.51c-.481-.5-1.063-.99-1.762-1.49zM1-5.5l-.512.488c.703.512 1.242 1 1.633 1.461l.508-.52C2.19-4.55 1.649-5.02 1-5.5zm1.11 2.68A30.368 30.368 0 01.59.68l.719.308A31.023 31.023 0 002.762-2.57zm1.062-4.75v.699h4.887V-.18c0 .34-.16.508-.48.508-.477 0-.99-.02-1.52-.047l.16.688h1.61c.62 0 .94-.328.94-.969v-6.871h.782v-.7zm.437 2.23v3.68H6.75v-3.68zm2.47 3.02h-1.79v-2.371h1.79zm0 0"/></symbol><symbol overflow="visible" id="h"><path d="M.55-7.23v.68h4.04c-.059.331-.13.671-.2 1.01H1.103V.989h.707v-5.847h6.4v4.68c0 .28-.14.429-.422.429L6.86.23l.192.7h.98c.59 0 .89-.32.89-.95v-5.52H5.13c.07-.32.14-.651.2-1.01h4.12v-.68H5.441c.04-.29.07-.59.098-.899l-.73-.101-.118 1zm3.33 2.69l-.64.24c.21.312.39.652.542 1.01H2.68v.63h1.968v1.05H2.36v.641h2.29V.84h.703V-.97h2.296v-.64H5.352v-1.05h2v-.63H6.21c.2-.32.39-.67.57-1.062l-.66-.238c-.18.461-.383.89-.601 1.3h-1.05a7.488 7.488 0 00-.59-1.25zm0 0"/></symbol><symbol overflow="visible" id="i"><path d="M1.23-8l-.511.488c.601.5 1.062.98 1.402 1.434l.5-.5A11.5 11.5 0 001.231-8zM.988-5.61l-.5.489c.602.5 1.082.98 1.422 1.441l.5-.5c-.379-.48-.86-.949-1.422-1.43zm.793 2.66A36.295 36.295 0 01.578.63l.672.293A42.328 42.328 0 002.41-2.71zm3.68-1.081c-.313.18-.633.351-.95.511v-2.152h.91V-6.3h-.91v-1.84H3.81v1.84H2.74v.63h1.07v2.452c-.368.14-.75.27-1.137.38l.168.69c.32-.113.64-.23.969-.363V-.16c0 .32-.11.48-.329.48C3.238.32 3 .3 2.738.281l.153.63h.808c.54 0 .813-.31.813-.911v-2.82c.316-.149.629-.309.949-.48zm3.578-3.95c-.91.36-1.93.56-3.07.583v3.847c-.047 1.7-.36 3.04-.938 4l.489.52c.699-1.13 1.07-2.64 1.12-4.52v-.71h1.282v5.28h.68v-5.28h.968v-.65H6.64v-1.91c1-.058 1.91-.25 2.731-.55zm0 0"/></symbol><symbol overflow="visible" id="j"><path d="M6.07-6.86v6.79h-3v.69h6.48v-.69H6.782v-6.79h2.43v-.68H3.559v.68zM1.25-7.987L.738-7.5c.762.5 1.364.98 1.801 1.43l.5-.5c-.48-.47-1.078-.942-1.789-1.418zM.988-5.602l-.5.493c.75.507 1.34 1 1.762 1.46l.5-.5A11.644 11.644 0 00.988-5.601zM2.27-2.949A28.672 28.672 0 01.61.6l.66.29a30.8 30.8 0 001.628-3.602zm0 0"/></symbol><symbol overflow="visible" id="k"><path d="M9.148-7.191H5.43a9.89 9.89 0 00-.45-1.059l-.8.14c.172.282.32.579.46.919H.84v2.14h.738v-1.437H8.41v1.449h.738zM.602-4.411v.7h2.41c-.32.55-.66 1.11-1.024 1.672.934.3 1.864.648 2.801 1.05C3.73-.178 2.34.232.641.239l.418.672C2.922.852 4.399.328 5.519-.672A35.405 35.405 0 018.7.988L9.18.36a31.218 31.218 0 00-3.14-1.558c.531-.621 1-1.45 1.41-2.512h1.973v-.7H4.25c.238-.44.488-.91.75-1.41l-.738-.218a62.17 62.17 0 01-.864 1.629zm3.257.7H6.66c-.34.883-.78 1.621-1.32 2.211-.79-.328-1.559-.61-2.32-.828.261-.402.539-.863.84-1.383zm0 0"/></symbol><symbol overflow="visible" id="l"><path d="M2.27-8.2c-.4.93-1.032 1.76-1.9 2.482l.207.68c1.063-.84 1.82-1.8 2.3-2.883zm.28 2.27c-.44 1.121-1.14 2.121-2.109 3l.207.66a9.72 9.72 0 00.993-.968V.988h.68v-5.097c.327-.48.6-1 .82-1.551zm1.962-2.242v1.762h-.684V-7.8h-.566v1.972h3.09v-1.973h-.57v1.39H5.09v-1.76zM3.109-5.148v.617H6.25c-.07.133-.14.261-.21.383l.358.457c.211-.297.403-.637.57-1.02.122 1.14.36 2.191.723 3.133A5.9 5.9 0 016.641.129c-.18-.399-.38-.777-.582-1.117l-.48.226c.21.371.41.793.6 1.262L6.41.39l.36.56c.5-.49.92-1.08 1.26-1.77.31.64.701 1.23 1.17 1.76l.45-.52a7.733 7.733 0 01-1.297-2.01c.43-1.2.668-2.641.707-4.34h.39v-.65H7.59c.11-.452.2-.94.282-1.46l-.66-.121c-.18 1.45-.492 2.648-.941 3.59v-.578zm4.301-.743c0-.007 0-.02.012-.039H8.46C8.43-4.62 8.28-3.469 8-2.48c-.34-1-.531-2.141-.59-3.41zM3.46-.898A5.217 5.217 0 012.673.328l.469.344c.308-.383.578-.82.808-1.332zM5.98-2.73l-.511.171c.101.16.203.34.3.54-.597.097-1.199.18-1.789.238.801-.52 1.5-1.117 2.098-1.778l-.558-.21c-.141.16-.29.32-.45.48-.41.039-.82.07-1.218.098.418-.32.796-.68 1.136-1.09L4.441-4.5a7.02 7.02 0 01-1.41 1.352l.13.457c.46-.02.917-.059 1.39-.118-.473.399-.98.77-1.54 1.11l.13.488c.46-.039.93-.09 1.41-.148V.12c0 .16-.082.25-.223.25-.18 0-.367-.02-.558-.043l.128.594h.641c.422 0 .64-.223.64-.64v-1.743l.79-.148c.07.14.14.289.203.449l.5-.219c-.203-.48-.434-.93-.692-1.351zm0 0"/></symbol><symbol overflow="visible" id="m"><path d="M.54-7.738v.699h2.98v1.527H1.14V.941h.72V.488h6.3v.453h.719v-6.453H6.44v-1.527h3.02v-.7zM1.86-.191v-4.637h1.66v.2C3.5-3.27 3-2.282 2.02-1.66l.558.488C3.66-1.898 4.211-3.05 4.23-4.629v-.2h1.5v2.067c0 .653.32.98.98.98h1.45v1.59zM4.23-7.04h1.5v1.527h-1.5zm2.211 2.21h1.72v2.388H6.897c-.308 0-.457-.16-.457-.47zm0 0"/></symbol><symbol overflow="visible" id="n"><path d="M8.219-6.469V-.55H5.37v-7.558h-.74V-.55H1.77V-6.5h-.718V.8h.719V.14H8.22v.67h.722v-7.28zm0 0"/></symbol><symbol overflow="visible" id="o"><path d="M8.3-3.27l-.562.348c.563.863 1.012 1.652 1.34 2.363l.55-.402c-.308-.66-.75-1.43-1.327-2.309zm-6.421.098c-.3.82-.738 1.48-1.34 1.98l.54.473c.6-.5 1.081-1.242 1.44-2.203zm2.3-2.45v.95H1.43v.703h2.712c-.082.98-.29 1.797-.653 2.48-.457.778-1.277 1.4-2.457 1.88l.399.64C2.64.551 3.512-.12 4.05-.98c.462-.782.731-1.77.829-2.989H6.94c-.05 1.719-.152 2.848-.3 3.367-.153.512-.461.774-.93.774-.402 0-.82-.012-1.262-.024l.192.68h1.418c.46-.027.793-.2 1.011-.508.2-.32.352-.898.45-1.718.082-.84.128-1.93.171-3.274H4.92v-.95zM.65-7.108v.687h2.26v.902h.73v-.902h2.622v.91h.726v-.91h2.364v-.687H6.988v-1.02h-.726v1.02H3.64v-1.02h-.73v1.02zm0 0"/></symbol><symbol overflow="visible" id="p"><path d="M1.54-5.23v3.32h3.089v.691h-3.55v.578h3.55v.75H.579v.63h8.843v-.63h-4.07v-.75H8.93v-.578H5.352v-.691h3.097v-3.32H5.352v-.641h3.93v-.617h-3.93v-.762A73.97 73.97 0 008.46-7.5l-.223-.602c-1.988.223-4.289.372-6.886.454l.117.59c1.101-.044 2.152-.09 3.16-.153v.723H.719v.617h3.91v.64zm6.21 2.742H5.352v-.813H7.75zm-3.121 0H2.23v-.813h2.4zM2.23-3.86v-.79h2.4v.79zm3.122-.79H7.75v.79H5.352zm0 0"/></symbol><symbol overflow="visible" id="q"><path d="M2.531-4.129v.668h2.707C4.84-1.879 3.738-.57 1.961.461l.41.59C4.148-.031 5.301-1.38 5.81-3.012c.56 1.684 1.67 3.024 3.31 4l.43-.566C7.93-.5 6.84-1.801 6.289-3.461H9.25v-.668H6.102c-.024-.05-.032-.11-.043-.172.03-.46.05-1 .05-1.62h-.68c0 .28-.007.683-.007 1.202a19.6 19.6 0 01-.05.59zM5.25-8.23l-.79.14c.22.3.411.621.59.98H1.3v2.91C1.27-2.2.96-.628.36.489l.562.5C1.629-.309 2-2.039 2.039-4.199v-2.223h7.41v-.687H5.83a9.055 9.055 0 00-.58-1.121zm0 0"/></symbol><symbol overflow="visible" id="r"><path d="M3.77-7.078l-.598.367C4.05-5.68 4.738-4.75 5.25-3.91l.61-.417c-.481-.781-1.18-1.703-2.09-2.75zM7.21-2.18C7.97-1.129 8.579-.14 9.05.8l.552-.55a22.006 22.006 0 00-2.07-3.121c.058-.149.109-.3.16-.45.417-1.32.628-2.917.628-4.82h-.75c-.011 1.93-.218 3.52-.64 4.77-.551 1.48-1.68 2.7-3.38 3.68l.481.59C5.488.058 6.551-.97 7.211-2.18zM1.29-.14c1.17-.43 2.269-.938 3.288-1.532l-.2-.7c-.769.462-1.538.852-2.32 1.173v-6.68H1.32v6.508c0 .23-.09.41-.27.55zm0 0"/></symbol><symbol overflow="visible" id="s"><path d="M6.36-8.148V.988h.742v-5.316c.578.457 1.27 1.11 2.09 1.93l.437-.66c-.86-.77-1.7-1.462-2.527-2.07v-3.02zM2.32-4.18l-.379.559A7.882 7.882 0 013.52-2.56C2.82-1.48 1.84-.579.59.141l.488.609C3.68-.8 5.141-3.09 5.48-6.121v-.629H3.05c.141-.41.259-.84.36-1.29l-.719-.12c-.402 1.8-1.18 3.238-2.32 4.3l.488.61c.801-.738 1.45-1.672 1.93-2.809h1.98a9.025 9.025 0 01-.917 2.93 8.296 8.296 0 00-1.532-1.05zm0 0"/></symbol><symbol overflow="visible" id="t"><path d="M3.805-7.11h.941v5.036c0 .68-.203 1.21-.613 1.597-.406.383-.953.575-1.633.575-.707 0-1.258-.18-1.648-.543-.395-.36-.594-.867-.594-1.516h.937c0 .406.114.723.336.95.223.23.547.343.969.343.387 0 .7-.121.941-.367.239-.246.36-.586.364-1.028zm0 0"/></symbol><symbol overflow="visible" id="u"><path d="M3.945 0c-.05-.105-.093-.29-.125-.555-.422.434-.922.653-1.507.653-.52 0-.946-.149-1.282-.442a1.438 1.438 0 01-.5-1.12c0-.552.211-.977.63-1.282.417-.305 1.007-.457 1.765-.457h.879v-.414c0-.317-.094-.567-.285-.754-.188-.188-.465-.281-.833-.281-.324 0-.593.082-.812.242-.219.164-.328.36-.328.59H.64c0-.262.093-.516.28-.762.188-.246.442-.441.763-.582.32-.145.671-.219 1.054-.219.61 0 1.086.153 1.434.457.344.305.523.727.535 1.258v2.434c0 .484.063.87.184 1.156V0zm-1.5-.688c.285 0 .555-.074.805-.218a1.35 1.35 0 00.555-.574v-1.083h-.711c-1.106 0-1.656.325-1.656.97 0 .284.093.507.28.663.188.16.43.243.727.243zm0 0"/></symbol><symbol overflow="visible" id="v"><path d="M1.54-5.281l.026.664a1.93 1.93 0 011.582-.766c1.118 0 1.68.633 1.692 1.89V0h-.902v-3.496c-.004-.379-.094-.664-.262-.844-.172-.183-.438-.273-.801-.273-.293 0-.55.078-.77.234a1.59 1.59 0 00-.52.613V0h-.9v-5.281zm0 0"/></symbol><symbol overflow="visible" id="w"><path d="M3.559 0h-.907v-6.02l-1.824.668v-.82l2.59-.973h.14zm0 0"/></symbol><symbol overflow="visible" id="x"><path d="M1.906-3.992h.676c.426-.008.762-.121 1.008-.34.242-.219.363-.512.363-.883 0-.832-.414-1.25-1.242-1.25-.39 0-.703.113-.938.336-.23.223-.347.516-.347.887H.523c0-.563.204-1.031.618-1.406.41-.372.933-.559 1.57-.559.672 0 1.195.176 1.578.531.379.356.57.848.57 1.48 0 .31-.101.61-.3.9a1.81 1.81 0 01-.817.648c.39.125.692.328.903.617.214.285.32.636.32 1.047 0 .64-.207 1.144-.625 1.52-.418.374-.957.562-1.625.562s-1.211-.18-1.63-.543c-.417-.36-.624-.836-.624-1.43h.906c0 .375.121.672.367.898.243.227.57.336.98.336.438 0 .77-.113 1-.34.231-.23.349-.554.349-.98 0-.414-.125-.734-.383-.953-.254-.223-.618-.336-1.098-.344h-.676zm0 0"/></symbol><symbol overflow="visible" id="y"><path d="M5.25 0H.59v-.648l2.46-2.735c.364-.414.618-.75.755-1.008.14-.257.21-.527.21-.804 0-.371-.113-.676-.34-.914-.222-.239-.523-.356-.898-.356-.449 0-.797.13-1.047.383-.25.254-.37.613-.37 1.066H.452c0-.652.211-1.183.633-1.586.422-.402.984-.605 1.691-.605.66 0 1.184.172 1.567.52.386.347.578.808.578 1.382 0 .703-.445 1.535-1.336 2.5L1.68-.738h3.57zm0 0"/></symbol><symbol overflow="visible" id="z"><path d="M5.18-6.602L2.234 0H1.29l2.934-6.367H.375v-.742H5.18zm0 0"/></symbol><symbol overflow="visible" id="A"><path d="M4.746-3.14H1.762V0H.824v-7.11H5.23v.774H1.762v2.43h2.984zm0 0"/></symbol><symbol overflow="visible" id="B"><path d="M2.875.098c-.715 0-1.297-.235-1.746-.707-.45-.47-.676-1.098-.676-1.887v-.164c0-.524.102-.992.3-1.406.2-.41.481-.735.84-.965.36-.235.75-.352 1.173-.352.687 0 1.218.227 1.601.68.38.453.57 1.101.57 1.945v.375H1.36c.012.52.164.942.454 1.262.292.32.664.48 1.113.48.316 0 .59-.062.808-.195.223-.129.414-.3.582-.516l.551.43c-.441.68-1.105 1.02-1.992 1.02zm-.11-4.739a1.21 1.21 0 00-.921.399c-.246.265-.399.64-.457 1.117H4.03v-.07c-.023-.457-.148-.813-.367-1.067-.223-.25-.523-.379-.898-.379zm0 0"/></symbol><symbol overflow="visible" id="C"><path d="M5.156-2.582c0 .809-.187 1.453-.554 1.945-.372.489-.872.735-1.497.735-.667 0-1.183-.235-1.546-.707L1.516 0H.684v-7.5h.902v2.797c.367-.453.867-.68 1.508-.68.64 0 1.148.246 1.511.73.368.485.551 1.15.551 1.993zm-.902-.106c0-.613-.121-1.09-.356-1.421-.238-.336-.582-.504-1.027-.504-.598 0-1.023.277-1.285.828V-1.5c.277.555.71.832 1.297.832.43 0 .77-.168 1.008-.504.242-.336.363-.84.363-1.516zm0 0"/></symbol><symbol overflow="visible" id="D"><path d="M5.047-3.031c0 1.058-.18 1.844-.54 2.36-.362.51-.925.769-1.694.769-.758 0-1.32-.25-1.684-.754C.766-1.16.574-1.91.562-2.91v-1.207c0-1.043.18-1.82.54-2.328.363-.508.93-.762 1.703-.762.765 0 1.328.246 1.687.734.36.489.547 1.246.555 2.27zm-.902-1.235c0-.765-.106-1.324-.32-1.675-.216-.348-.555-.524-1.02-.524-.465 0-.801.176-1.012.524-.211.347-.32.882-.328 1.605v1.445c0 .77.113 1.336.336 1.704.222.367.558.546 1.012.546.445 0 .777-.171.992-.515.218-.344.332-.89.34-1.633zm0 0"/></symbol><symbol overflow="visible" id="E"><path d="M4.406-2.387h.985v.739h-.985V0h-.91v-1.648H.258v-.536L3.44-7.109h.965zm-3.12 0h2.21v-3.488l-.105.195zm0 0"/></symbol><symbol overflow="visible" id="F"><path d="M4.137-7.113v.765h-.168c-.703.012-1.262.223-1.68.625-.414.403-.656.973-.723 1.703.375-.43.887-.644 1.536-.644.617 0 1.113.219 1.48.656.371.438.555 1 .555 1.688 0 .734-.2 1.32-.598 1.757-.398.442-.934.66-1.605.66-.68 0-1.23-.261-1.653-.784C.855-1.212.645-1.883.645-2.704v-.348c0-1.308.277-2.308.835-3 .56-.691 1.391-1.047 2.497-1.062zM2.949-3.91c-.308 0-.594.09-.855.277a1.446 1.446 0 00-.54.7v.331c0 .586.13 1.059.395 1.414.262.36.59.54.985.54.406 0 .726-.153.96-.45.231-.3.348-.691.348-1.175 0-.489-.117-.887-.351-1.188a1.14 1.14 0 00-.942-.45zm0 0"/></symbol><symbol overflow="visible" id="G"><path d="M4.902-5.254c0 .356-.093.672-.28.95a1.95 1.95 0 01-.759.648c.371.16.664.39.88.695.218.309.327.656.327 1.043 0 .613-.21 1.105-.625 1.469-.414.363-.96.547-1.636.547-.684 0-1.23-.184-1.645-.551C.754-.82.547-1.31.547-1.918c0-.387.105-.73.316-1.043.207-.309.5-.543.871-.703a1.869 1.869 0 01-.75-.648 1.693 1.693 0 01-.273-.942c0-.598.195-1.074.578-1.426.383-.351.89-.527 1.52-.527.625 0 1.128.176 1.515.527.387.352.578.828.578 1.426zm-.738 3.316c0-.398-.125-.722-.379-.972-.25-.25-.582-.375-.988-.375s-.73.12-.977.37c-.246.247-.37.571-.37.978 0 .402.12.718.359.953.238.23.574.343 1 .343.421 0 .753-.117.996-.347.242-.235.36-.551.36-.95zM2.81-6.465c-.356 0-.645.11-.864.328-.218.223-.328.52-.328.899 0 .36.106.652.324.875.215.222.504.336.868.336.359 0 .648-.114.867-.336C3.89-4.586 4-4.88 4-5.238c0-.364-.113-.657-.336-.887a1.16 1.16 0 00-.855-.34zm0 0"/></symbol></defs><path d="M40.586 231.52V4m7.426 227.52V4m7.429 227.52V4m7.43 227.52V4M70.3 231.52V4m7.43 227.52V4m7.43 227.52V4m7.43 227.52V4m7.43 227.52V4m7.425 227.52V4m7.43 227.52V4m7.43 227.52V4m7.429 227.52V4m7.43 227.52V4m7.43 227.52V4m7.429 227.52V4m7.43 227.52V4m7.426 227.52V4m7.43 227.52V4m7.429 227.52V4m7.43 227.52V4m7.43 227.52V4m7.429 227.52V4m7.43 227.52V4m7.43 227.52V4m7.429 227.52V4m7.426 227.52V4m7.43 227.52V4m7.43 227.52V4m7.429 227.52V4m7.429 227.52V4m7.43 227.52V4m7.43 227.52V4m7.43 227.52V4m7.426 227.52V4m7.429 227.52V4m7.43 227.52V4m7.43 227.52V4m7.43 227.52V4m7.429 227.52V4m7.43 227.52V4m7.43 227.52V4m7.429 227.52V4m7.427 227.52V4m7.429 227.52V4m7.429 227.52V4m7.43 227.52V4m7.43 227.52V4m7.43 227.52V4m7.429 227.52V4m7.43 227.52V4M33 179.246h379.2M33 131.523h379.2M33 83.805h379.2M33 36.082h379.2" fill="none" stroke="#666" stroke-opacity=".5" stroke-dasharray="1,2" stroke-miterlimit="3.25"/><path d="M367.469 40.902l7.43-2.8 7.43-3.555 7.429-3.91 7.43-4.075 7.43-4.156" fill="none" stroke-width="1.6" stroke-linecap="square" stroke="#a60000" stroke-opacity=".3" stroke-miterlimit="3.25"/><path d="M367.469 71.71l7.43-2.534 7.43-3.106 7.429-3.347 7.43-3.453 7.43-3.493" fill="none" stroke-width="1.6" stroke-linecap="square" stroke="#0d86a0" stroke-opacity=".3" stroke-miterlimit="3.25"/><path d="M367.469 223.754l14.86-.008 14.858-.016 7.43-.003" fill="none" stroke-width="1.6" stroke-linecap="square" stroke="#c05c20" stroke-opacity=".3" stroke-miterlimit="3.25"/><path d="M367.469 223.926h37.148" fill="none" stroke-width="1.6" stroke-linecap="square" stroke="#6f42b5" stroke-opacity=".3" stroke-miterlimit="3.25"/><path d="M367.469 224.066h37.148" fill="none" stroke-width="1.6" stroke-linecap="square" stroke="#769003" stroke-opacity=".3" stroke-miterlimit="3.25"/><path d="M367.469 224.547h37.148" fill="none" stroke-width="1.6" stroke-linecap="square" stroke="#a8364d" stroke-opacity=".3" stroke-miterlimit="3.25"/><path d="M367.469 224.61h37.148" fill="none" stroke-width="1.6" stroke-linecap="square" stroke="#3664cc" stroke-opacity=".3" stroke-miterlimit="3.25"/><path d="M367.469 224.734h37.148" fill="none" stroke-width="1.6" stroke-linecap="square" stroke="#c8860a" stroke-opacity=".3" stroke-miterlimit="3.25"/><path d="M367.469 225.168l7.43-.04 7.43-.042 7.429-.04 7.43-.042 7.43-.04" fill="none" stroke-width="1.6" stroke-linecap="square" stroke="#833987" stroke-opacity=".3" stroke-miterlimit="3.25"/><path d="M367.469 225.465h37.148" fill="none" stroke-width="1.6" stroke-linecap="square" stroke="#1c8f6b" stroke-opacity=".3" stroke-miterlimit="3.25"/><path d="M367.469 225.594h7.43l29.718-.016" fill="none" stroke-width="1.6" stroke-linecap="square" stroke="#a54f05" stroke-opacity=".3" stroke-miterlimit="3.25"/><path d="M367.469 196.172l7.43-.024 7.43-.02 22.288-.07" fill="none" stroke-width="1.6" stroke-linecap="square" stroke="#6846c7" stroke-opacity=".3" stroke-miterlimit="3.25"/><path d="M40.586 226.871H70.3l7.43-.008 7.43-.043 7.429-.14 7.43-.184 7.425-.223 7.43-.355 7.43-.313 7.43-.617 7.43-1.058 7.429-1.64 7.43-1.837 7.43-4.226 7.425-3.48 7.43-4.145 7.43-4.73 7.429-5.017 7.43-6.18 7.43-6.75 7.429-7.718 7.43-9.273 7.43-8.817 7.425-7.5 7.43-8.11 7.43-6.335 7.43-7.309 7.429-5.925 7.43-4.81 7.43-33.663 7.429-12.149 7.426-6.3 7.43-4.793 7.43-4.887 7.429-4.5 7.43-4.172 7.43-1.957 7.429-2.121 7.43-.95 7.43-1.546 7.425-.977 7.43-1.21" fill="none" stroke-width="1.6" stroke-linecap="square" stroke="#a60000" stroke-miterlimit="3.25"/><path d="M40.586 226.871H70.3l7.43-.008 7.43-.043 7.429-.14 7.43-.184 7.425-.172 7.43-.25 7.43-.164 7.43-.25 7.43-.43 7.429-.77 7.43-.886 7.43-3.082 7.425-2.004 7.43-2.46 7.43-2.91 7.429-3.216 7.43-4.586 7.43-5.015 7.429-5.598 7.43-7.527 7.43-7.13 7.425-5.839 7.43-6.777 7.43-5.125 7.43-6.246 7.429-5.004 7.43-3.907 7.43-32.921 7.429-11.508 7.426-5.778 7.43-4.394 7.43-4.613 7.429-4.313 7.43-4.039 7.43-1.848 7.429-1.507 7.43-.872 7.43-1.503 7.425-.95 7.43-1.191" fill="none" stroke-width="1.6" stroke-linecap="square" stroke="#0d86a0" stroke-miterlimit="3.25"/><path d="M40.586 226.969h59.434l7.425-.031 7.43-.032 7.43-.011 7.43-.051 7.43-.059 7.429-.05 7.43-.114 7.43-.101 7.425-.125 7.43-.168 7.43-.196 7.429-.3 7.43-.204 7.43-.187 7.429-.274 7.43-.171 7.43-.176 7.425-.18 7.43-.133 7.43-.11 7.43-.073 7.429-.063 7.43-.097 7.43-.055 7.429-.047 7.426-.078 7.43-.055 7.43-.012 7.429-.015 7.43-.008h7.43l7.429-.004 7.43-.016 7.43-.007 7.425-.004 7.43-.008" fill="none" stroke-width="1.6" stroke-linecap="square" stroke="#c05c20" stroke-miterlimit="3.25"/><path d="M40.586 226.969h74.289l7.43-.012 7.43-.008 7.43-.054 7.429-.122 7.43-.109 7.43-.094 7.425-.093 7.43-.172 7.43-.176 14.859-.336 7.43-.176 7.429-.258 14.86-.422 7.425-.148 7.43-.16 7.43-.125 7.43-.098 14.859-.148 7.43-.078 7.429-.04 7.426-.066 7.43-.043 7.43-.039 7.429-.023 14.86-.024 7.429-.004 14.86-.015h14.855" fill="none" stroke-width="1.6" stroke-linecap="square" stroke="#6f42b5" stroke-miterlimit="3.25"/><path d="M40.586 226.969h66.86l14.859-.024 7.43-.078 7.43-.047 7.429-.097 7.43-.059 7.43-.105 7.425-.297 7.43-.313 7.43-.262 22.288-.445 7.43-.25 7.43-.156 7.43-.145 7.425-.12 7.43-.102 7.43-.063 7.43-.07 7.429-.059 14.86-.07 7.429-.023 7.426-.016 7.43-.012 7.43-.008 22.288-.011 7.43-.067 7.43-.004h22.285" fill="none" stroke-width="1.6" stroke-linecap="square" stroke="#769003" stroke-miterlimit="3.25"/><path d="M40.586 226.969h74.289l7.43-.02 7.43-.035 7.43-.047 7.429-.062 7.43-.075 7.43-.101 7.425-.188 22.289-.398 7.43-.18 7.43-.136 7.429-.172 7.43-.164 7.43-.118 7.425-.144 7.43-.074 7.43-.086 7.43-.098 7.429-.078 7.43-.082 7.43-.05 7.429-.048 7.426-.031 7.43-.008 29.718-.015h7.43l7.43-.008 7.43-.004h14.855" fill="none" stroke-width="1.6" stroke-linecap="square" stroke="#a8364d" stroke-miterlimit="3.25"/><path d="M40.586 226.969h81.719l7.43-.035 7.43-.059 7.429-.047 7.43-.027 7.43-.086 7.425-.11 7.43-.113 7.43-.09 7.429-.14 7.43-.102 7.43-.164 7.429-.172 7.43-.12 7.43-.145 7.425-.176 7.43-.164 7.43-.11 7.43-.12 14.859-.141 7.43-.051 7.429-.055 7.426-.039 14.86-.055 7.429-.023 7.43-.008 7.43-.004h7.429l7.43-.004h22.285" fill="none" stroke-width="1.6" stroke-linecap="square" stroke="#3664cc" stroke-miterlimit="3.25"/><path d="M40.586 226.969h66.86l14.859-.008 7.43-.008 7.43-.027 7.429-.043 7.43-.028 7.43-.058 7.425-.086 7.43-.129 7.43-.184 7.429-.109 7.43-.113 7.43-.14 7.429-.204 7.43-.172 7.43-.125 7.425-.144 7.43-.09 7.43-.098 14.859-.156 7.43-.094 14.859-.133 7.426-.03 7.43-.028 7.43-.012 7.429-.008 14.86-.008h37.144" fill="none" stroke-width="1.6" stroke-linecap="square" stroke="#c8860a" stroke-miterlimit="3.25"/><path d="M40.586 226.969h74.289l7.43-.012 7.43-.008 7.43-.031 7.429-.043 7.43-.055 7.43-.058 7.425-.082 7.43-.055 7.43-.082 14.859-.11 7.43-.05 7.429-.059 7.43-.066 7.43-.106 7.425-.086 14.86-.132 7.43-.059 7.429-.066 14.86-.047 7.429-.032 7.426-.027 7.43-.016 7.43-.007 22.288-.012 7.43-.484 7.43-.004 7.43-.008 7.425-.004h7.43" fill="none" stroke-width="1.6" stroke-linecap="square" stroke="#833987" stroke-miterlimit="3.25"/><path d="M40.586 226.969h81.719l7.43-.02 7.43-.023 7.429-.031 7.43-.036 7.43-.058 7.425-.067 7.43-.074 7.43-.09 22.288-.246 7.43-.09 14.86-.156 7.425-.082 7.43-.074 7.43-.07 14.859-.11 14.86-.133 7.429-.054 7.426-.028 7.43-.03 7.43-.02 7.429-.008 7.43-.004h44.574" fill="none" stroke-width="1.6" stroke-linecap="square" stroke="#1c8f6b" stroke-miterlimit="3.25"/><path d="M40.586 226.969h66.86l7.429-.012 7.43-.008 7.43-.043 7.43-.074 7.429-.043 7.43-.082 7.43-.05 7.425-.04 7.43-.043 7.43-.097 7.429-.075 7.43-.058 14.859-.18 7.43-.066 7.43-.055 7.425-.055 7.43-.035 7.43-.047 7.43-.054 14.859-.086 7.43-.032 7.429-.027 7.426-.02 14.86-.03 7.429-.009 7.43-.003 7.43-.012 7.429-.016 7.43-.012 7.43-.003 7.425-.004 7.43-.004" fill="none" stroke-width="1.6" stroke-linecap="square" stroke="#a54f05" stroke-miterlimit="3.25"/><path d="M40.586 226.969h59.434l7.425-.051 7.43-.102 7.43-.168 7.43-.441 7.43-.648 7.429-.84 7.43-.992 7.43-1.094 7.425-1.442 7.43-1.68 7.43-1.808 7.429-1.8 7.43-1.59 7.43-1.735 7.429-2.101 7.43-1.758 7.43-1.692 7.425-1.62 7.43-1.372 7.43-1.207 7.43-1.055 7.429-.91 7.43-.902 7.43-.734 7.429-.641 7.426-.524 7.43-.394 7.43-.277 7.429-.192 7.43-.133 7.43-.105 7.429-.617 7.43-.074 7.43-.047 7.425-.028 7.43-.023" fill="none" stroke-width="1.6" stroke-linecap="square" stroke="#6846c7" stroke-miterlimit="3.25"/><path d="M368.043 41a1.043 1.043 0 10-2.087-.003 1.043 1.043 0 002.087.003zm8-3a1.043 1.043 0 10-2.087-.003 1.043 1.043 0 002.087.003zm7-3a1.043 1.043 0 10-2.087-.003 1.043 1.043 0 002.087.003zm8-4a1.043 1.043 0 10-2.087-.003 1.043 1.043 0 002.087.003zm7-4a1.043 1.043 0 10-2.087-.003 1.043 1.043 0 002.087.003zm8-5a1.043 1.043 0 10-2.087-.003 1.043 1.043 0 002.087.003zm0 0" fill-rule="evenodd" fill="#a60000" fill-opacity=".3"/><path d="M368.043 72a1.043 1.043 0 10-2.087-.003 1.043 1.043 0 002.087.003zm8-3a1.043 1.043 0 10-2.087-.003 1.043 1.043 0 002.087.003zm7-3a1.043 1.043 0 10-2.087-.003 1.043 1.043 0 002.087.003zm8-3a1.043 1.043 0 10-2.087-.003 1.043 1.043 0 002.087.003zm7-4a1.043 1.043 0 10-2.087-.003 1.043 1.043 0 002.087.003zm8-3a1.043 1.043 0 10-2.087-.003 1.043 1.043 0 002.087.003zm0 0" fill-rule="evenodd" fill="#0d86a0" fill-opacity=".3"/><path d="M368.043 224a1.043 1.043 0 10-2.087-.003 1.043 1.043 0 002.087.003zm8 0a1.043 1.043 0 10-2.087-.003 1.043 1.043 0 002.087.003zm7 0a1.043 1.043 0 10-2.087-.003 1.043 1.043 0 002.087.003zm8 0a1.043 1.043 0 10-2.087-.003 1.043 1.043 0 002.087.003zm7 0a1.043 1.043 0 10-2.087-.003 1.043 1.043 0 002.087.003zm8 0a1.043 1.043 0 10-2.087-.003 1.043 1.043 0 002.087.003zm0 0" fill-rule="evenodd" fill="#c05c20" fill-opacity=".3"/><path d="M368.043 224a1.043 1.043 0 10-2.087-.003 1.043 1.043 0 002.087.003zm8 0a1.043 1.043 0 10-2.087-.003 1.043 1.043 0 002.087.003zm7 0a1.043 1.043 0 10-2.087-.003 1.043 1.043 0 002.087.003zm8 0a1.043 1.043 0 10-2.087-.003 1.043 1.043 0 002.087.003zm7 0a1.043 1.043 0 10-2.087-.003 1.043 1.043 0 002.087.003zm8 0a1.043 1.043 0 10-2.087-.003 1.043 1.043 0 002.087.003zm0 0" fill-rule="evenodd" fill="#6f42b5" fill-opacity=".3"/><path d="M368.043 224a1.043 1.043 0 10-2.087-.003 1.043 1.043 0 002.087.003zm8 0a1.043 1.043 0 10-2.087-.003 1.043 1.043 0 002.087.003zm7 0a1.043 1.043 0 10-2.087-.003 1.043 1.043 0 002.087.003zm8 0a1.043 1.043 0 10-2.087-.003 1.043 1.043 0 002.087.003zm7 0a1.043 1.043 0 10-2.087-.003 1.043 1.043 0 002.087.003zm8 0a1.043 1.043 0 10-2.087-.003 1.043 1.043 0 002.087.003zm0 0" fill-rule="evenodd" fill="#769003" fill-opacity=".3"/><path d="M368.043 225a1.043 1.043 0 10-2.087-.003 1.043 1.043 0 002.087.003zm8 0a1.043 1.043 0 10-2.087-.003 1.043 1.043 0 002.087.003zm7 0a1.043 1.043 0 10-2.087-.003 1.043 1.043 0 002.087.003zm8 0a1.043 1.043 0 10-2.087-.003 1.043 1.043 0 002.087.003zm7 0a1.043 1.043 0 10-2.087-.003 1.043 1.043 0 002.087.003zm8 0a1.043 1.043 0 10-2.087-.003 1.043 1.043 0 002.087.003zm0 0" fill-rule="evenodd" fill="#a8364d" fill-opacity=".3"/><path d="M368.043 225a1.043 1.043 0 10-2.087-.003 1.043 1.043 0 002.087.003zm8 0a1.043 1.043 0 10-2.087-.003 1.043 1.043 0 002.087.003zm7 0a1.043 1.043 0 10-2.087-.003 1.043 1.043 0 002.087.003zm8 0a1.043 1.043 0 10-2.087-.003 1.043 1.043 0 002.087.003zm7 0a1.043 1.043 0 10-2.087-.003 1.043 1.043 0 002.087.003zm8 0a1.043 1.043 0 10-2.087-.003 1.043 1.043 0 002.087.003zm0 0" fill-rule="evenodd" fill="#3664cc" fill-opacity=".3"/><path d="M368.043 225a1.043 1.043 0 10-2.087-.003 1.043 1.043 0 002.087.003zm8 0a1.043 1.043 0 10-2.087-.003 1.043 1.043 0 002.087.003zm7 0a1.043 1.043 0 10-2.087-.003 1.043 1.043 0 002.087.003zm8 0a1.043 1.043 0 10-2.087-.003 1.043 1.043 0 002.087.003zm7 0a1.043 1.043 0 10-2.087-.003 1.043 1.043 0 002.087.003zm8 0a1.043 1.043 0 10-2.087-.003 1.043 1.043 0 002.087.003zm0 0" fill-rule="evenodd" fill="#c8860a" fill-opacity=".3"/><path d="M368.043 225a1.043 1.043 0 10-2.087-.003 1.043 1.043 0 002.087.003zm8 0a1.043 1.043 0 10-2.087-.003 1.043 1.043 0 002.087.003zm7 0a1.043 1.043 0 10-2.087-.003 1.043 1.043 0 002.087.003zm8 0a1.043 1.043 0 10-2.087-.003 1.043 1.043 0 002.087.003zm7 0a1.043 1.043 0 10-2.087-.003 1.043 1.043 0 002.087.003zm8 0a1.043 1.043 0 10-2.087-.003 1.043 1.043 0 002.087.003zm0 0" fill-rule="evenodd" fill="#833987" fill-opacity=".3"/><path d="M368.043 225a1.043 1.043 0 10-2.087-.003 1.043 1.043 0 002.087.003zm8 0a1.043 1.043 0 10-2.087-.003 1.043 1.043 0 002.087.003zm7 0a1.043 1.043 0 10-2.087-.003 1.043 1.043 0 002.087.003zm8 0a1.043 1.043 0 10-2.087-.003 1.043 1.043 0 002.087.003zm7 0a1.043 1.043 0 10-2.087-.003 1.043 1.043 0 002.087.003zm8 0a1.043 1.043 0 10-2.087-.003 1.043 1.043 0 002.087.003zm0 0" fill-rule="evenodd" fill="#1c8f6b" fill-opacity=".3"/><path d="M368.043 226a1.043 1.043 0 10-2.087-.003 1.043 1.043 0 002.087.003zm8 0a1.043 1.043 0 10-2.087-.003 1.043 1.043 0 002.087.003zm7 0a1.043 1.043 0 10-2.087-.003 1.043 1.043 0 002.087.003zm8 0a1.043 1.043 0 10-2.087-.003 1.043 1.043 0 002.087.003zm7 0a1.043 1.043 0 10-2.087-.003 1.043 1.043 0 002.087.003zm8 0a1.043 1.043 0 10-2.087-.003 1.043 1.043 0 002.087.003zm0 0" fill-rule="evenodd" fill="#a54f05" fill-opacity=".3"/><path d="M368.043 196a1.043 1.043 0 10-2.087-.003 1.043 1.043 0 002.087.003zm8 0a1.043 1.043 0 10-2.087-.003 1.043 1.043 0 002.087.003zm7 0a1.043 1.043 0 10-2.087-.003 1.043 1.043 0 002.087.003zm8 0a1.043 1.043 0 10-2.087-.003 1.043 1.043 0 002.087.003zm7 0a1.043 1.043 0 10-2.087-.003 1.043 1.043 0 002.087.003zm8 0a1.043 1.043 0 10-2.087-.003 1.043 1.043 0 002.087.003zm0 0" fill-rule="evenodd" fill="#6846c7" fill-opacity=".3"/><path d="M42.043 227a1.043 1.043 0 10-2.087-.003 1.043 1.043 0 002.087.003zm7 0a1.043 1.043 0 10-2.087-.003 1.043 1.043 0 002.087.003zm7 0a1.043 1.043 0 10-2.087-.003 1.043 1.043 0 002.087.003zm8 0a1.043 1.043 0 10-2.087-.003 1.043 1.043 0 002.087.003zm7 0a1.043 1.043 0 10-2.087-.003 1.043 1.043 0 002.087.003zm8 0a1.043 1.043 0 10-2.087-.003 1.043 1.043 0 002.087.003zm7 0a1.043 1.043 0 10-2.087-.003 1.043 1.043 0 002.087.003zm8 0a1.043 1.043 0 10-2.087-.003 1.043 1.043 0 002.087.003zm7-1a1.043 1.043 0 10-2.087-.003 1.043 1.043 0 002.087.003zm7 0a1.043 1.043 0 10-2.087-.003 1.043 1.043 0 002.087.003zm8 0a1.043 1.043 0 10-2.087-.003 1.043 1.043 0 002.087.003zm7 0a1.043 1.043 0 10-2.087-.003 1.043 1.043 0 002.087.003zm8-1a1.043 1.043 0 10-2.087-.003 1.043 1.043 0 002.087.003zm7-1a1.043 1.043 0 10-2.087-.003 1.043 1.043 0 002.087.003zm8-2a1.043 1.043 0 10-2.087-.003 1.043 1.043 0 002.087.003zm7-2a1.043 1.043 0 10-2.087-.003 1.043 1.043 0 002.087.003zm7-4a1.043 1.043 0 10-2.087-.003 1.043 1.043 0 002.087.003zm8-3a1.043 1.043 0 10-2.087-.003 1.043 1.043 0 002.087.003zm7-4a1.043 1.043 0 10-2.087-.003 1.043 1.043 0 002.087.003zm8-5a1.043 1.043 0 10-2.087-.003 1.043 1.043 0 002.087.003zm7-5a1.043 1.043 0 10-2.087-.003 1.043 1.043 0 002.087.003zm8-6a1.043 1.043 0 10-2.087-.003 1.043 1.043 0 002.087.003zm7-7a1.043 1.043 0 10-2.087-.003 1.043 1.043 0 002.087.003zm7-8a1.043 1.043 0 10-2.087-.003 1.043 1.043 0 002.087.003zm8-9a1.043 1.043 0 10-2.087-.003 1.043 1.043 0 002.087.003zm7-9a1.043 1.043 0 10-2.087-.003 1.043 1.043 0 002.087.003zm8-7a1.043 1.043 0 10-2.087-.003 1.043 1.043 0 002.087.003zm7-8a1.043 1.043 0 10-2.087-.003 1.043 1.043 0 002.087.003zm8-7a1.043 1.043 0 10-2.087-.003 1.043 1.043 0 002.087.003zm7-7a1.043 1.043 0 10-2.087-.003 1.043 1.043 0 002.087.003zm7-6a1.043 1.043 0 10-2.087-.003 1.043 1.043 0 002.087.003zm8-5a1.043 1.043 0 10-2.087-.003 1.043 1.043 0 002.087.003zm7-34a1.043 1.043 0 10-2.087-.003 1.043 1.043 0 002.087.003zm8-12a1.043 1.043 0 10-2.087-.003 1.043 1.043 0 002.087.003zm7-6a1.043 1.043 0 10-2.087-.003 1.043 1.043 0 002.087.003zm8-5a1.043 1.043 0 10-2.087-.003 1.043 1.043 0 002.087.003zm7-5a1.043 1.043 0 10-2.087-.003 1.043 1.043 0 002.087.003zm7-4a1.043 1.043 0 10-2.087-.003 1.043 1.043 0 002.087.003zm8-4a1.043 1.043 0 10-2.087-.003 1.043 1.043 0 002.087.003zm7-2a1.043 1.043 0 10-2.087-.003 1.043 1.043 0 002.087.003zm8-2a1.043 1.043 0 10-2.087-.003 1.043 1.043 0 002.087.003zm7-1a1.043 1.043 0 10-2.087-.003 1.043 1.043 0 002.087.003zm8-2a1.043 1.043 0 10-2.087-.003 1.043 1.043 0 002.087.003zm7-1a1.043 1.043 0 10-2.087-.003 1.043 1.043 0 002.087.003zm7-1a1.043 1.043 0 10-2.087-.003 1.043 1.043 0 002.087.003zm0 0" fill-rule="evenodd" fill="#a60000"/><path d="M42.043 227a1.043 1.043 0 10-2.087-.003 1.043 1.043 0 002.087.003zm7 0a1.043 1.043 0 10-2.087-.003 1.043 1.043 0 002.087.003zm7 0a1.043 1.043 0 10-2.087-.003 1.043 1.043 0 002.087.003zm8 0a1.043 1.043 0 10-2.087-.003 1.043 1.043 0 002.087.003zm7 0a1.043 1.043 0 10-2.087-.003 1.043 1.043 0 002.087.003zm8 0a1.043 1.043 0 10-2.087-.003 1.043 1.043 0 002.087.003zm7 0a1.043 1.043 0 10-2.087-.003 1.043 1.043 0 002.087.003zm8 0a1.043 1.043 0 10-2.087-.003 1.043 1.043 0 002.087.003zm7-1a1.043 1.043 0 10-2.087-.003 1.043 1.043 0 002.087.003zm7 0a1.043 1.043 0 10-2.087-.003 1.043 1.043 0 002.087.003zm8 0a1.043 1.043 0 10-2.087-.003 1.043 1.043 0 002.087.003zm7 0a1.043 1.043 0 10-2.087-.003 1.043 1.043 0 002.087.003zm8 0a1.043 1.043 0 10-2.087-.003 1.043 1.043 0 002.087.003zm7-1a1.043 1.043 0 10-2.087-.003 1.043 1.043 0 002.087.003zm8-1a1.043 1.043 0 10-2.087-.003 1.043 1.043 0 002.087.003zm7 0a1.043 1.043 0 10-2.087-.003 1.043 1.043 0 002.087.003zm7-4a1.043 1.043 0 10-2.087-.003 1.043 1.043 0 002.087.003zm8-2a1.043 1.043 0 10-2.087-.003 1.043 1.043 0 002.087.003zm7-2a1.043 1.043 0 10-2.087-.003 1.043 1.043 0 002.087.003zm8-3a1.043 1.043 0 10-2.087-.003 1.043 1.043 0 002.087.003zm7-3a1.043 1.043 0 10-2.087-.003 1.043 1.043 0 002.087.003zm8-5a1.043 1.043 0 10-2.087-.003 1.043 1.043 0 002.087.003zm7-5a1.043 1.043 0 10-2.087-.003 1.043 1.043 0 002.087.003zm7-5a1.043 1.043 0 10-2.087-.003 1.043 1.043 0 002.087.003zm8-8a1.043 1.043 0 10-2.087-.003 1.043 1.043 0 002.087.003zm7-7a1.043 1.043 0 10-2.087-.003 1.043 1.043 0 002.087.003zm8-6a1.043 1.043 0 10-2.087-.003 1.043 1.043 0 002.087.003zm7-7a1.043 1.043 0 10-2.087-.003 1.043 1.043 0 002.087.003zm8-5a1.043 1.043 0 10-2.087-.003 1.043 1.043 0 002.087.003zm7-6a1.043 1.043 0 10-2.087-.003 1.043 1.043 0 002.087.003zm7-5a1.043 1.043 0 10-2.087-.003 1.043 1.043 0 002.087.003zm8-4a1.043 1.043 0 10-2.087-.003 1.043 1.043 0 002.087.003zm7-33a1.043 1.043 0 10-2.087-.003 1.043 1.043 0 002.087.003zm8-11a1.043 1.043 0 10-2.087-.003 1.043 1.043 0 002.087.003zm7-6a1.043 1.043 0 10-2.087-.003 1.043 1.043 0 002.087.003zm8-4a1.043 1.043 0 10-2.087-.003 1.043 1.043 0 002.087.003zm7-5a1.043 1.043 0 10-2.087-.003 1.043 1.043 0 002.087.003zm7-4a1.043 1.043 0 10-2.087-.003 1.043 1.043 0 002.087.003zm8-4a1.043 1.043 0 10-2.087-.003 1.043 1.043 0 002.087.003zm7-2a1.043 1.043 0 10-2.087-.003 1.043 1.043 0 002.087.003zm8-2a1.043 1.043 0 10-2.087-.003 1.043 1.043 0 002.087.003zm7-1a1.043 1.043 0 10-2.087-.003 1.043 1.043 0 002.087.003zm8-1a1.043 1.043 0 10-2.087-.003 1.043 1.043 0 002.087.003zm7-1a1.043 1.043 0 10-2.087-.003 1.043 1.043 0 002.087.003zm7-1a1.043 1.043 0 10-2.087-.003 1.043 1.043 0 002.087.003zm0 0" fill-rule="evenodd" fill="#0d86a0"/><path d="M42.043 227a1.043 1.043 0 10-2.087-.003 1.043 1.043 0 002.087.003zm7 0a1.043 1.043 0 10-2.087-.003 1.043 1.043 0 002.087.003zm7 0a1.043 1.043 0 10-2.087-.003 1.043 1.043 0 002.087.003zm8 0a1.043 1.043 0 10-2.087-.003 1.043 1.043 0 002.087.003zm7 0a1.043 1.043 0 10-2.087-.003 1.043 1.043 0 002.087.003zm8 0a1.043 1.043 0 10-2.087-.003 1.043 1.043 0 002.087.003zm7 0a1.043 1.043 0 10-2.087-.003 1.043 1.043 0 002.087.003zm8 0a1.043 1.043 0 10-2.087-.003 1.043 1.043 0 002.087.003zm7 0a1.043 1.043 0 10-2.087-.003 1.043 1.043 0 002.087.003zm7 0a1.043 1.043 0 10-2.087-.003 1.043 1.043 0 002.087.003zm8 0a1.043 1.043 0 10-2.087-.003 1.043 1.043 0 002.087.003zm7 0a1.043 1.043 0 10-2.087-.003 1.043 1.043 0 002.087.003zm8 0a1.043 1.043 0 10-2.087-.003 1.043 1.043 0 002.087.003zm7 0a1.043 1.043 0 10-2.087-.003 1.043 1.043 0 002.087.003zm8 0a1.043 1.043 0 10-2.087-.003 1.043 1.043 0 002.087.003zm7 0a1.043 1.043 0 10-2.087-.003 1.043 1.043 0 002.087.003zm7 0a1.043 1.043 0 10-2.087-.003 1.043 1.043 0 002.087.003zm8-1a1.043 1.043 0 10-2.087-.003 1.043 1.043 0 002.087.003zm7 0a1.043 1.043 0 10-2.087-.003 1.043 1.043 0 002.087.003zm8 0a1.043 1.043 0 10-2.087-.003 1.043 1.043 0 002.087.003zm7 0a1.043 1.043 0 10-2.087-.003 1.043 1.043 0 002.087.003zm8 0a1.043 1.043 0 10-2.087-.003 1.043 1.043 0 002.087.003zm7-1a1.043 1.043 0 10-2.087-.003 1.043 1.043 0 002.087.003zm7 0a1.043 1.043 0 10-2.087-.003 1.043 1.043 0 002.087.003zm8 0a1.043 1.043 0 10-2.087-.003 1.043 1.043 0 002.087.003zm7 0a1.043 1.043 0 10-2.087-.003 1.043 1.043 0 002.087.003zm8 0a1.043 1.043 0 10-2.087-.003 1.043 1.043 0 002.087.003zm7-1a1.043 1.043 0 10-2.087-.003 1.043 1.043 0 002.087.003zm8 0a1.043 1.043 0 10-2.087-.003 1.043 1.043 0 002.087.003zm7 0a1.043 1.043 0 10-2.087-.003 1.043 1.043 0 002.087.003zm7 0a1.043 1.043 0 10-2.087-.003 1.043 1.043 0 002.087.003zm8 0a1.043 1.043 0 10-2.087-.003 1.043 1.043 0 002.087.003zm7 0a1.043 1.043 0 10-2.087-.003 1.043 1.043 0 002.087.003zm8 0a1.043 1.043 0 10-2.087-.003 1.043 1.043 0 002.087.003zm7 0a1.043 1.043 0 10-2.087-.003 1.043 1.043 0 002.087.003zm8 0a1.043 1.043 0 10-2.087-.003 1.043 1.043 0 002.087.003zm7 0a1.043 1.043 0 10-2.087-.003 1.043 1.043 0 002.087.003zm7 0a1.043 1.043 0 10-2.087-.003 1.043 1.043 0 002.087.003zm8 0a1.043 1.043 0 10-2.087-.003 1.043 1.043 0 002.087.003zm7 0a1.043 1.043 0 10-2.087-.003 1.043 1.043 0 002.087.003zm8 0a1.043 1.043 0 10-2.087-.003 1.043 1.043 0 002.087.003zm7 0a1.043 1.043 0 10-2.087-.003 1.043 1.043 0 002.087.003zm8 0a1.043 1.043 0 10-2.087-.003 1.043 1.043 0 002.087.003zm7 0a1.043 1.043 0 10-2.087-.003 1.043 1.043 0 002.087.003zm7 0a1.043 1.043 0 10-2.087-.003 1.043 1.043 0 002.087.003zm0 0" fill-rule="evenodd" fill="#c05c20"/><path d="M42.043 227a1.043 1.043 0 10-2.087-.003 1.043 1.043 0 002.087.003zm7 0a1.043 1.043 0 10-2.087-.003 1.043 1.043 0 002.087.003zm7 0a1.043 1.043 0 10-2.087-.003 1.043 1.043 0 002.087.003zm8 0a1.043 1.043 0 10-2.087-.003 1.043 1.043 0 002.087.003zm7 0a1.043 1.043 0 10-2.087-.003 1.043 1.043 0 002.087.003zm8 0a1.043 1.043 0 10-2.087-.003 1.043 1.043 0 002.087.003zm7 0a1.043 1.043 0 10-2.087-.003 1.043 1.043 0 002.087.003zm8 0a1.043 1.043 0 10-2.087-.003 1.043 1.043 0 002.087.003zm7 0a1.043 1.043 0 10-2.087-.003 1.043 1.043 0 002.087.003zm7 0a1.043 1.043 0 10-2.087-.003 1.043 1.043 0 002.087.003zm8 0a1.043 1.043 0 10-2.087-.003 1.043 1.043 0 002.087.003zm7 0a1.043 1.043 0 10-2.087-.003 1.043 1.043 0 002.087.003zm8 0a1.043 1.043 0 10-2.087-.003 1.043 1.043 0 002.087.003zm7 0a1.043 1.043 0 10-2.087-.003 1.043 1.043 0 002.087.003zm8 0a1.043 1.043 0 10-2.087-.003 1.043 1.043 0 002.087.003zm7 0a1.043 1.043 0 10-2.087-.003 1.043 1.043 0 002.087.003zm7 0a1.043 1.043 0 10-2.087-.003 1.043 1.043 0 002.087.003zm8-1a1.043 1.043 0 10-2.087-.003 1.043 1.043 0 002.087.003zm7 0a1.043 1.043 0 10-2.087-.003 1.043 1.043 0 002.087.003zm8 0a1.043 1.043 0 10-2.087-.003 1.043 1.043 0 002.087.003zm7 0a1.043 1.043 0 10-2.087-.003 1.043 1.043 0 002.087.003zm8 0a1.043 1.043 0 10-2.087-.003 1.043 1.043 0 002.087.003zm7 0a1.043 1.043 0 10-2.087-.003 1.043 1.043 0 002.087.003zm7-1a1.043 1.043 0 10-2.087-.003 1.043 1.043 0 002.087.003zm8 0a1.043 1.043 0 10-2.087-.003 1.043 1.043 0 002.087.003zm7 0a1.043 1.043 0 10-2.087-.003 1.043 1.043 0 002.087.003zm8 0a1.043 1.043 0 10-2.087-.003 1.043 1.043 0 002.087.003zm7 0a1.043 1.043 0 10-2.087-.003 1.043 1.043 0 002.087.003zm8 0a1.043 1.043 0 10-2.087-.003 1.043 1.043 0 002.087.003zm7-1a1.043 1.043 0 10-2.087-.003 1.043 1.043 0 002.087.003zm7 0a1.043 1.043 0 10-2.087-.003 1.043 1.043 0 002.087.003zm8 0a1.043 1.043 0 10-2.087-.003 1.043 1.043 0 002.087.003zm7 0a1.043 1.043 0 10-2.087-.003 1.043 1.043 0 002.087.003zm8 0a1.043 1.043 0 10-2.087-.003 1.043 1.043 0 002.087.003zm7 0a1.043 1.043 0 10-2.087-.003 1.043 1.043 0 002.087.003zm8 0a1.043 1.043 0 10-2.087-.003 1.043 1.043 0 002.087.003zm7 0a1.043 1.043 0 10-2.087-.003 1.043 1.043 0 002.087.003zm7 0a1.043 1.043 0 10-2.087-.003 1.043 1.043 0 002.087.003zm8 0a1.043 1.043 0 10-2.087-.003 1.043 1.043 0 002.087.003zm7 0a1.043 1.043 0 10-2.087-.003 1.043 1.043 0 002.087.003zm8 0a1.043 1.043 0 10-2.087-.003 1.043 1.043 0 002.087.003zm7 0a1.043 1.043 0 10-2.087-.003 1.043 1.043 0 002.087.003zm8 0a1.043 1.043 0 10-2.087-.003 1.043 1.043 0 002.087.003zm7 0a1.043 1.043 0 10-2.087-.003 1.043 1.043 0 002.087.003zm7 0a1.043 1.043 0 10-2.087-.003 1.043 1.043 0 002.087.003zm0 0" fill-rule="evenodd" fill="#6f42b5"/><path d="M42.043 227a1.043 1.043 0 10-2.087-.003 1.043 1.043 0 002.087.003zm7 0a1.043 1.043 0 10-2.087-.003 1.043 1.043 0 002.087.003zm7 0a1.043 1.043 0 10-2.087-.003 1.043 1.043 0 002.087.003zm8 0a1.043 1.043 0 10-2.087-.003 1.043 1.043 0 002.087.003zm7 0a1.043 1.043 0 10-2.087-.003 1.043 1.043 0 002.087.003zm8 0a1.043 1.043 0 10-2.087-.003 1.043 1.043 0 002.087.003zm7 0a1.043 1.043 0 10-2.087-.003 1.043 1.043 0 002.087.003zm8 0a1.043 1.043 0 10-2.087-.003 1.043 1.043 0 002.087.003zm7 0a1.043 1.043 0 10-2.087-.003 1.043 1.043 0 002.087.003zm7 0a1.043 1.043 0 10-2.087-.003 1.043 1.043 0 002.087.003zm8 0a1.043 1.043 0 10-2.087-.003 1.043 1.043 0 002.087.003zm7 0a1.043 1.043 0 10-2.087-.003 1.043 1.043 0 002.087.003zm8 0a1.043 1.043 0 10-2.087-.003 1.043 1.043 0 002.087.003zm7 0a1.043 1.043 0 10-2.087-.003 1.043 1.043 0 002.087.003zm8 0a1.043 1.043 0 10-2.087-.003 1.043 1.043 0 002.087.003zm7 0a1.043 1.043 0 10-2.087-.003 1.043 1.043 0 002.087.003zm7 0a1.043 1.043 0 10-2.087-.003 1.043 1.043 0 002.087.003zm8-1a1.043 1.043 0 10-2.087-.003 1.043 1.043 0 002.087.003zm7 0a1.043 1.043 0 10-2.087-.003 1.043 1.043 0 002.087.003zm8 0a1.043 1.043 0 10-2.087-.003 1.043 1.043 0 002.087.003zm7 0a1.043 1.043 0 10-2.087-.003 1.043 1.043 0 002.087.003zm8-1a1.043 1.043 0 10-2.087-.003 1.043 1.043 0 002.087.003zm7 0a1.043 1.043 0 10-2.087-.003 1.043 1.043 0 002.087.003zm7 0a1.043 1.043 0 10-2.087-.003 1.043 1.043 0 002.087.003zm8 0a1.043 1.043 0 10-2.087-.003 1.043 1.043 0 002.087.003zm7 0a1.043 1.043 0 10-2.087-.003 1.043 1.043 0 002.087.003zm8 0a1.043 1.043 0 10-2.087-.003 1.043 1.043 0 002.087.003zm7-1a1.043 1.043 0 10-2.087-.003 1.043 1.043 0 002.087.003zm8 0a1.043 1.043 0 10-2.087-.003 1.043 1.043 0 002.087.003zm7 0a1.043 1.043 0 10-2.087-.003 1.043 1.043 0 002.087.003zm7 0a1.043 1.043 0 10-2.087-.003 1.043 1.043 0 002.087.003zm8 0a1.043 1.043 0 10-2.087-.003 1.043 1.043 0 002.087.003zm7 0a1.043 1.043 0 10-2.087-.003 1.043 1.043 0 002.087.003zm8 0a1.043 1.043 0 10-2.087-.003 1.043 1.043 0 002.087.003zm7 0a1.043 1.043 0 10-2.087-.003 1.043 1.043 0 002.087.003zm8 0a1.043 1.043 0 10-2.087-.003 1.043 1.043 0 002.087.003zm7 0a1.043 1.043 0 10-2.087-.003 1.043 1.043 0 002.087.003zm7 0a1.043 1.043 0 10-2.087-.003 1.043 1.043 0 002.087.003zm8 0a1.043 1.043 0 10-2.087-.003 1.043 1.043 0 002.087.003zm7 0a1.043 1.043 0 10-2.087-.003 1.043 1.043 0 002.087.003zm8 0a1.043 1.043 0 10-2.087-.003 1.043 1.043 0 002.087.003zm7 0a1.043 1.043 0 10-2.087-.003 1.043 1.043 0 002.087.003zm8 0a1.043 1.043 0 10-2.087-.003 1.043 1.043 0 002.087.003zm7 0a1.043 1.043 0 10-2.087-.003 1.043 1.043 0 002.087.003zm7 0a1.043 1.043 0 10-2.087-.003 1.043 1.043 0 002.087.003zm0 0" fill-rule="evenodd" fill="#769003"/><path d="M42.043 227a1.043 1.043 0 10-2.087-.003 1.043 1.043 0 002.087.003zm7 0a1.043 1.043 0 10-2.087-.003 1.043 1.043 0 002.087.003zm7 0a1.043 1.043 0 10-2.087-.003 1.043 1.043 0 002.087.003zm8 0a1.043 1.043 0 10-2.087-.003 1.043 1.043 0 002.087.003zm7 0a1.043 1.043 0 10-2.087-.003 1.043 1.043 0 002.087.003zm8 0a1.043 1.043 0 10-2.087-.003 1.043 1.043 0 002.087.003zm7 0a1.043 1.043 0 10-2.087-.003 1.043 1.043 0 002.087.003zm8 0a1.043 1.043 0 10-2.087-.003 1.043 1.043 0 002.087.003zm7 0a1.043 1.043 0 10-2.087-.003 1.043 1.043 0 002.087.003zm7 0a1.043 1.043 0 10-2.087-.003 1.043 1.043 0 002.087.003zm8 0a1.043 1.043 0 10-2.087-.003 1.043 1.043 0 002.087.003zm7 0a1.043 1.043 0 10-2.087-.003 1.043 1.043 0 002.087.003zm8 0a1.043 1.043 0 10-2.087-.003 1.043 1.043 0 002.087.003zm7 0a1.043 1.043 0 10-2.087-.003 1.043 1.043 0 002.087.003zm8 0a1.043 1.043 0 10-2.087-.003 1.043 1.043 0 002.087.003zm7 0a1.043 1.043 0 10-2.087-.003 1.043 1.043 0 002.087.003zm7 0a1.043 1.043 0 10-2.087-.003 1.043 1.043 0 002.087.003zm8-1a1.043 1.043 0 10-2.087-.003 1.043 1.043 0 002.087.003zm7 0a1.043 1.043 0 10-2.087-.003 1.043 1.043 0 002.087.003zm8 0a1.043 1.043 0 10-2.087-.003 1.043 1.043 0 002.087.003zm7 0a1.043 1.043 0 10-2.087-.003 1.043 1.043 0 002.087.003zm8 0a1.043 1.043 0 10-2.087-.003 1.043 1.043 0 002.087.003zm7 0a1.043 1.043 0 10-2.087-.003 1.043 1.043 0 002.087.003zm7 0a1.043 1.043 0 10-2.087-.003 1.043 1.043 0 002.087.003zm8-1a1.043 1.043 0 10-2.087-.003 1.043 1.043 0 002.087.003zm7 0a1.043 1.043 0 10-2.087-.003 1.043 1.043 0 002.087.003zm8 0a1.043 1.043 0 10-2.087-.003 1.043 1.043 0 002.087.003zm7 0a1.043 1.043 0 10-2.087-.003 1.043 1.043 0 002.087.003zm8 0a1.043 1.043 0 10-2.087-.003 1.043 1.043 0 002.087.003zm7 0a1.043 1.043 0 10-2.087-.003 1.043 1.043 0 002.087.003zm7 0a1.043 1.043 0 10-2.087-.003 1.043 1.043 0 002.087.003zm8 0a1.043 1.043 0 10-2.087-.003 1.043 1.043 0 002.087.003zm7 0a1.043 1.043 0 10-2.087-.003 1.043 1.043 0 002.087.003zm8 0a1.043 1.043 0 10-2.087-.003 1.043 1.043 0 002.087.003zm7 0a1.043 1.043 0 10-2.087-.003 1.043 1.043 0 002.087.003zm8 0a1.043 1.043 0 10-2.087-.003 1.043 1.043 0 002.087.003zm7 0a1.043 1.043 0 10-2.087-.003 1.043 1.043 0 002.087.003zm7 0a1.043 1.043 0 10-2.087-.003 1.043 1.043 0 002.087.003zm8 0a1.043 1.043 0 10-2.087-.003 1.043 1.043 0 002.087.003zm7 0a1.043 1.043 0 10-2.087-.003 1.043 1.043 0 002.087.003zm8 0a1.043 1.043 0 10-2.087-.003 1.043 1.043 0 002.087.003zm7 0a1.043 1.043 0 10-2.087-.003 1.043 1.043 0 002.087.003zm8 0a1.043 1.043 0 10-2.087-.003 1.043 1.043 0 002.087.003zm7 0a1.043 1.043 0 10-2.087-.003 1.043 1.043 0 002.087.003zm7 0a1.043 1.043 0 10-2.087-.003 1.043 1.043 0 002.087.003zm0 0" fill-rule="evenodd" fill="#a8364d"/><path d="M42.043 227a1.043 1.043 0 10-2.087-.003 1.043 1.043 0 002.087.003zm7 0a1.043 1.043 0 10-2.087-.003 1.043 1.043 0 002.087.003zm7 0a1.043 1.043 0 10-2.087-.003 1.043 1.043 0 002.087.003zm8 0a1.043 1.043 0 10-2.087-.003 1.043 1.043 0 002.087.003zm7 0a1.043 1.043 0 10-2.087-.003 1.043 1.043 0 002.087.003zm8 0a1.043 1.043 0 10-2.087-.003 1.043 1.043 0 002.087.003zm7 0a1.043 1.043 0 10-2.087-.003 1.043 1.043 0 002.087.003zm8 0a1.043 1.043 0 10-2.087-.003 1.043 1.043 0 002.087.003zm7 0a1.043 1.043 0 10-2.087-.003 1.043 1.043 0 002.087.003zm7 0a1.043 1.043 0 10-2.087-.003 1.043 1.043 0 002.087.003zm8 0a1.043 1.043 0 10-2.087-.003 1.043 1.043 0 002.087.003zm7 0a1.043 1.043 0 10-2.087-.003 1.043 1.043 0 002.087.003zm8 0a1.043 1.043 0 10-2.087-.003 1.043 1.043 0 002.087.003zm7 0a1.043 1.043 0 10-2.087-.003 1.043 1.043 0 002.087.003zm8 0a1.043 1.043 0 10-2.087-.003 1.043 1.043 0 002.087.003zm7 0a1.043 1.043 0 10-2.087-.003 1.043 1.043 0 002.087.003zm7 0a1.043 1.043 0 10-2.087-.003 1.043 1.043 0 002.087.003zm8 0a1.043 1.043 0 10-2.087-.003 1.043 1.043 0 002.087.003zm7-1a1.043 1.043 0 10-2.087-.003 1.043 1.043 0 002.087.003zm8 0a1.043 1.043 0 10-2.087-.003 1.043 1.043 0 002.087.003zm7 0a1.043 1.043 0 10-2.087-.003 1.043 1.043 0 002.087.003zm8 0a1.043 1.043 0 10-2.087-.003 1.043 1.043 0 002.087.003zm7 0a1.043 1.043 0 10-2.087-.003 1.043 1.043 0 002.087.003zm7 0a1.043 1.043 0 10-2.087-.003 1.043 1.043 0 002.087.003zm8 0a1.043 1.043 0 10-2.087-.003 1.043 1.043 0 002.087.003zm7 0a1.043 1.043 0 10-2.087-.003 1.043 1.043 0 002.087.003zm8-1a1.043 1.043 0 10-2.087-.003 1.043 1.043 0 002.087.003zm7 0a1.043 1.043 0 10-2.087-.003 1.043 1.043 0 002.087.003zm8 0a1.043 1.043 0 10-2.087-.003 1.043 1.043 0 002.087.003zm7 0a1.043 1.043 0 10-2.087-.003 1.043 1.043 0 002.087.003zm7 0a1.043 1.043 0 10-2.087-.003 1.043 1.043 0 002.087.003zm8 0a1.043 1.043 0 10-2.087-.003 1.043 1.043 0 002.087.003zm7 0a1.043 1.043 0 10-2.087-.003 1.043 1.043 0 002.087.003zm8 0a1.043 1.043 0 10-2.087-.003 1.043 1.043 0 002.087.003zm7 0a1.043 1.043 0 10-2.087-.003 1.043 1.043 0 002.087.003zm8 0a1.043 1.043 0 10-2.087-.003 1.043 1.043 0 002.087.003zm7 0a1.043 1.043 0 10-2.087-.003 1.043 1.043 0 002.087.003zm7 0a1.043 1.043 0 10-2.087-.003 1.043 1.043 0 002.087.003zm8 0a1.043 1.043 0 10-2.087-.003 1.043 1.043 0 002.087.003zm7 0a1.043 1.043 0 10-2.087-.003 1.043 1.043 0 002.087.003zm8 0a1.043 1.043 0 10-2.087-.003 1.043 1.043 0 002.087.003zm7 0a1.043 1.043 0 10-2.087-.003 1.043 1.043 0 002.087.003zm8 0a1.043 1.043 0 10-2.087-.003 1.043 1.043 0 002.087.003zm7 0a1.043 1.043 0 10-2.087-.003 1.043 1.043 0 002.087.003zm7 0a1.043 1.043 0 10-2.087-.003 1.043 1.043 0 002.087.003zm0 0" fill-rule="evenodd" fill="#3664cc"/><path d="M42.043 227a1.043 1.043 0 10-2.087-.003 1.043 1.043 0 002.087.003zm7 0a1.043 1.043 0 10-2.087-.003 1.043 1.043 0 002.087.003zm7 0a1.043 1.043 0 10-2.087-.003 1.043 1.043 0 002.087.003zm8 0a1.043 1.043 0 10-2.087-.003 1.043 1.043 0 002.087.003zm7 0a1.043 1.043 0 10-2.087-.003 1.043 1.043 0 002.087.003zm8 0a1.043 1.043 0 10-2.087-.003 1.043 1.043 0 002.087.003zm7 0a1.043 1.043 0 10-2.087-.003 1.043 1.043 0 002.087.003zm8 0a1.043 1.043 0 10-2.087-.003 1.043 1.043 0 002.087.003zm7 0a1.043 1.043 0 10-2.087-.003 1.043 1.043 0 002.087.003zm7 0a1.043 1.043 0 10-2.087-.003 1.043 1.043 0 002.087.003zm8 0a1.043 1.043 0 10-2.087-.003 1.043 1.043 0 002.087.003zm7 0a1.043 1.043 0 10-2.087-.003 1.043 1.043 0 002.087.003zm8 0a1.043 1.043 0 10-2.087-.003 1.043 1.043 0 002.087.003zm7 0a1.043 1.043 0 10-2.087-.003 1.043 1.043 0 002.087.003zm8 0a1.043 1.043 0 10-2.087-.003 1.043 1.043 0 002.087.003zm7 0a1.043 1.043 0 10-2.087-.003 1.043 1.043 0 002.087.003zm7 0a1.043 1.043 0 10-2.087-.003 1.043 1.043 0 002.087.003zm8 0a1.043 1.043 0 10-2.087-.003 1.043 1.043 0 002.087.003zm7 0a1.043 1.043 0 10-2.087-.003 1.043 1.043 0 002.087.003zm8-1a1.043 1.043 0 10-2.087-.003 1.043 1.043 0 002.087.003zm7 0a1.043 1.043 0 10-2.087-.003 1.043 1.043 0 002.087.003zm8 0a1.043 1.043 0 10-2.087-.003 1.043 1.043 0 002.087.003zm7 0a1.043 1.043 0 10-2.087-.003 1.043 1.043 0 002.087.003zm7 0a1.043 1.043 0 10-2.087-.003 1.043 1.043 0 002.087.003zm8 0a1.043 1.043 0 10-2.087-.003 1.043 1.043 0 002.087.003zm7 0a1.043 1.043 0 10-2.087-.003 1.043 1.043 0 002.087.003zm8-1a1.043 1.043 0 10-2.087-.003 1.043 1.043 0 002.087.003zm7 0a1.043 1.043 0 10-2.087-.003 1.043 1.043 0 002.087.003zm8 0a1.043 1.043 0 10-2.087-.003 1.043 1.043 0 002.087.003zm7 0a1.043 1.043 0 10-2.087-.003 1.043 1.043 0 002.087.003zm7 0a1.043 1.043 0 10-2.087-.003 1.043 1.043 0 002.087.003zm8 0a1.043 1.043 0 10-2.087-.003 1.043 1.043 0 002.087.003zm7 0a1.043 1.043 0 10-2.087-.003 1.043 1.043 0 002.087.003zm8 0a1.043 1.043 0 10-2.087-.003 1.043 1.043 0 002.087.003zm7 0a1.043 1.043 0 10-2.087-.003 1.043 1.043 0 002.087.003zm8 0a1.043 1.043 0 10-2.087-.003 1.043 1.043 0 002.087.003zm7 0a1.043 1.043 0 10-2.087-.003 1.043 1.043 0 002.087.003zm7 0a1.043 1.043 0 10-2.087-.003 1.043 1.043 0 002.087.003zm8 0a1.043 1.043 0 10-2.087-.003 1.043 1.043 0 002.087.003zm7 0a1.043 1.043 0 10-2.087-.003 1.043 1.043 0 002.087.003zm8 0a1.043 1.043 0 10-2.087-.003 1.043 1.043 0 002.087.003zm7 0a1.043 1.043 0 10-2.087-.003 1.043 1.043 0 002.087.003zm8 0a1.043 1.043 0 10-2.087-.003 1.043 1.043 0 002.087.003zm7 0a1.043 1.043 0 10-2.087-.003 1.043 1.043 0 002.087.003zm7 0a1.043 1.043 0 10-2.087-.003 1.043 1.043 0 002.087.003zm0 0" fill-rule="evenodd" fill="#c8860a"/><path d="M42.043 227a1.043 1.043 0 10-2.087-.003 1.043 1.043 0 002.087.003zm7 0a1.043 1.043 0 10-2.087-.003 1.043 1.043 0 002.087.003zm7 0a1.043 1.043 0 10-2.087-.003 1.043 1.043 0 002.087.003zm8 0a1.043 1.043 0 10-2.087-.003 1.043 1.043 0 002.087.003zm7 0a1.043 1.043 0 10-2.087-.003 1.043 1.043 0 002.087.003zm8 0a1.043 1.043 0 10-2.087-.003 1.043 1.043 0 002.087.003zm7 0a1.043 1.043 0 10-2.087-.003 1.043 1.043 0 002.087.003zm8 0a1.043 1.043 0 10-2.087-.003 1.043 1.043 0 002.087.003zm7 0a1.043 1.043 0 10-2.087-.003 1.043 1.043 0 002.087.003zm7 0a1.043 1.043 0 10-2.087-.003 1.043 1.043 0 002.087.003zm8 0a1.043 1.043 0 10-2.087-.003 1.043 1.043 0 002.087.003zm7 0a1.043 1.043 0 10-2.087-.003 1.043 1.043 0 002.087.003zm8 0a1.043 1.043 0 10-2.087-.003 1.043 1.043 0 002.087.003zm7 0a1.043 1.043 0 10-2.087-.003 1.043 1.043 0 002.087.003zm8 0a1.043 1.043 0 10-2.087-.003 1.043 1.043 0 002.087.003zm7 0a1.043 1.043 0 10-2.087-.003 1.043 1.043 0 002.087.003zm7 0a1.043 1.043 0 10-2.087-.003 1.043 1.043 0 002.087.003zm8 0a1.043 1.043 0 10-2.087-.003 1.043 1.043 0 002.087.003zm7 0a1.043 1.043 0 10-2.087-.003 1.043 1.043 0 002.087.003zm8 0a1.043 1.043 0 10-2.087-.003 1.043 1.043 0 002.087.003zm7-1a1.043 1.043 0 10-2.087-.003 1.043 1.043 0 002.087.003zm8 0a1.043 1.043 0 10-2.087-.003 1.043 1.043 0 002.087.003zm7 0a1.043 1.043 0 10-2.087-.003 1.043 1.043 0 002.087.003zm7 0a1.043 1.043 0 10-2.087-.003 1.043 1.043 0 002.087.003zm8 0a1.043 1.043 0 10-2.087-.003 1.043 1.043 0 002.087.003zm7 0a1.043 1.043 0 10-2.087-.003 1.043 1.043 0 002.087.003zm8 0a1.043 1.043 0 10-2.087-.003 1.043 1.043 0 002.087.003zm7 0a1.043 1.043 0 10-2.087-.003 1.043 1.043 0 002.087.003zm8 0a1.043 1.043 0 10-2.087-.003 1.043 1.043 0 002.087.003zm7 0a1.043 1.043 0 10-2.087-.003 1.043 1.043 0 002.087.003zm7 0a1.043 1.043 0 10-2.087-.003 1.043 1.043 0 002.087.003zm8 0a1.043 1.043 0 10-2.087-.003 1.043 1.043 0 002.087.003zm7 0a1.043 1.043 0 10-2.087-.003 1.043 1.043 0 002.087.003zm8 0a1.043 1.043 0 10-2.087-.003 1.043 1.043 0 002.087.003zm7 0a1.043 1.043 0 10-2.087-.003 1.043 1.043 0 002.087.003zm8 0a1.043 1.043 0 10-2.087-.003 1.043 1.043 0 002.087.003zm7 0a1.043 1.043 0 10-2.087-.003 1.043 1.043 0 002.087.003zm7 0a1.043 1.043 0 10-2.087-.003 1.043 1.043 0 002.087.003zm8 0a1.043 1.043 0 10-2.087-.003 1.043 1.043 0 002.087.003zm7 0a1.043 1.043 0 10-2.087-.003 1.043 1.043 0 002.087.003zm8-1a1.043 1.043 0 10-2.087-.003 1.043 1.043 0 002.087.003zm7 0a1.043 1.043 0 10-2.087-.003 1.043 1.043 0 002.087.003zm8 0a1.043 1.043 0 10-2.087-.003 1.043 1.043 0 002.087.003zm7 0a1.043 1.043 0 10-2.087-.003 1.043 1.043 0 002.087.003zm7 0a1.043 1.043 0 10-2.087-.003 1.043 1.043 0 002.087.003zm0 0" fill-rule="evenodd" fill="#833987"/><path d="M42.043 227a1.043 1.043 0 10-2.087-.003 1.043 1.043 0 002.087.003zm7 0a1.043 1.043 0 10-2.087-.003 1.043 1.043 0 002.087.003zm7 0a1.043 1.043 0 10-2.087-.003 1.043 1.043 0 002.087.003zm8 0a1.043 1.043 0 10-2.087-.003 1.043 1.043 0 002.087.003zm7 0a1.043 1.043 0 10-2.087-.003 1.043 1.043 0 002.087.003zm8 0a1.043 1.043 0 10-2.087-.003 1.043 1.043 0 002.087.003zm7 0a1.043 1.043 0 10-2.087-.003 1.043 1.043 0 002.087.003zm8 0a1.043 1.043 0 10-2.087-.003 1.043 1.043 0 002.087.003zm7 0a1.043 1.043 0 10-2.087-.003 1.043 1.043 0 002.087.003zm7 0a1.043 1.043 0 10-2.087-.003 1.043 1.043 0 002.087.003zm8 0a1.043 1.043 0 10-2.087-.003 1.043 1.043 0 002.087.003zm7 0a1.043 1.043 0 10-2.087-.003 1.043 1.043 0 002.087.003zm8 0a1.043 1.043 0 10-2.087-.003 1.043 1.043 0 002.087.003zm7 0a1.043 1.043 0 10-2.087-.003 1.043 1.043 0 002.087.003zm8 0a1.043 1.043 0 10-2.087-.003 1.043 1.043 0 002.087.003zm7 0a1.043 1.043 0 10-2.087-.003 1.043 1.043 0 002.087.003zm7 0a1.043 1.043 0 10-2.087-.003 1.043 1.043 0 002.087.003zm8 0a1.043 1.043 0 10-2.087-.003 1.043 1.043 0 002.087.003zm7 0a1.043 1.043 0 10-2.087-.003 1.043 1.043 0 002.087.003zm8 0a1.043 1.043 0 10-2.087-.003 1.043 1.043 0 002.087.003zm7-1a1.043 1.043 0 10-2.087-.003 1.043 1.043 0 002.087.003zm8 0a1.043 1.043 0 10-2.087-.003 1.043 1.043 0 002.087.003zm7 0a1.043 1.043 0 10-2.087-.003 1.043 1.043 0 002.087.003zm7 0a1.043 1.043 0 10-2.087-.003 1.043 1.043 0 002.087.003zm8 0a1.043 1.043 0 10-2.087-.003 1.043 1.043 0 002.087.003zm7 0a1.043 1.043 0 10-2.087-.003 1.043 1.043 0 002.087.003zm8 0a1.043 1.043 0 10-2.087-.003 1.043 1.043 0 002.087.003zm7 0a1.043 1.043 0 10-2.087-.003 1.043 1.043 0 002.087.003zm8 0a1.043 1.043 0 10-2.087-.003 1.043 1.043 0 002.087.003zm7 0a1.043 1.043 0 10-2.087-.003 1.043 1.043 0 002.087.003zm7 0a1.043 1.043 0 10-2.087-.003 1.043 1.043 0 002.087.003zm8 0a1.043 1.043 0 10-2.087-.003 1.043 1.043 0 002.087.003zm7 0a1.043 1.043 0 10-2.087-.003 1.043 1.043 0 002.087.003zm8 0a1.043 1.043 0 10-2.087-.003 1.043 1.043 0 002.087.003zm7 0a1.043 1.043 0 10-2.087-.003 1.043 1.043 0 002.087.003zm8-1a1.043 1.043 0 10-2.087-.003 1.043 1.043 0 002.087.003zm7 0a1.043 1.043 0 10-2.087-.003 1.043 1.043 0 002.087.003zm7 0a1.043 1.043 0 10-2.087-.003 1.043 1.043 0 002.087.003zm8 0a1.043 1.043 0 10-2.087-.003 1.043 1.043 0 002.087.003zm7 0a1.043 1.043 0 10-2.087-.003 1.043 1.043 0 002.087.003zm8 0a1.043 1.043 0 10-2.087-.003 1.043 1.043 0 002.087.003zm7 0a1.043 1.043 0 10-2.087-.003 1.043 1.043 0 002.087.003zm8 0a1.043 1.043 0 10-2.087-.003 1.043 1.043 0 002.087.003zm7 0a1.043 1.043 0 10-2.087-.003 1.043 1.043 0 002.087.003zm7 0a1.043 1.043 0 10-2.087-.003 1.043 1.043 0 002.087.003zm0 0" fill-rule="evenodd" fill="#1c8f6b"/><path d="M42.043 227a1.043 1.043 0 10-2.087-.003 1.043 1.043 0 002.087.003zm7 0a1.043 1.043 0 10-2.087-.003 1.043 1.043 0 002.087.003zm7 0a1.043 1.043 0 10-2.087-.003 1.043 1.043 0 002.087.003zm8 0a1.043 1.043 0 10-2.087-.003 1.043 1.043 0 002.087.003zm7 0a1.043 1.043 0 10-2.087-.003 1.043 1.043 0 002.087.003zm8 0a1.043 1.043 0 10-2.087-.003 1.043 1.043 0 002.087.003zm7 0a1.043 1.043 0 10-2.087-.003 1.043 1.043 0 002.087.003zm8 0a1.043 1.043 0 10-2.087-.003 1.043 1.043 0 002.087.003zm7 0a1.043 1.043 0 10-2.087-.003 1.043 1.043 0 002.087.003zm7 0a1.043 1.043 0 10-2.087-.003 1.043 1.043 0 002.087.003zm8 0a1.043 1.043 0 10-2.087-.003 1.043 1.043 0 002.087.003zm7 0a1.043 1.043 0 10-2.087-.003 1.043 1.043 0 002.087.003zm8 0a1.043 1.043 0 10-2.087-.003 1.043 1.043 0 002.087.003zm7 0a1.043 1.043 0 10-2.087-.003 1.043 1.043 0 002.087.003zm8 0a1.043 1.043 0 10-2.087-.003 1.043 1.043 0 002.087.003zm7 0a1.043 1.043 0 10-2.087-.003 1.043 1.043 0 002.087.003zm7 0a1.043 1.043 0 10-2.087-.003 1.043 1.043 0 002.087.003zm8 0a1.043 1.043 0 10-2.087-.003 1.043 1.043 0 002.087.003zm7 0a1.043 1.043 0 10-2.087-.003 1.043 1.043 0 002.087.003zm8-1a1.043 1.043 0 10-2.087-.003 1.043 1.043 0 002.087.003zm7 0a1.043 1.043 0 10-2.087-.003 1.043 1.043 0 002.087.003zm8 0a1.043 1.043 0 10-2.087-.003 1.043 1.043 0 002.087.003zm7 0a1.043 1.043 0 10-2.087-.003 1.043 1.043 0 002.087.003zm7 0a1.043 1.043 0 10-2.087-.003 1.043 1.043 0 002.087.003zm8 0a1.043 1.043 0 10-2.087-.003 1.043 1.043 0 002.087.003zm7 0a1.043 1.043 0 10-2.087-.003 1.043 1.043 0 002.087.003zm8 0a1.043 1.043 0 10-2.087-.003 1.043 1.043 0 002.087.003zm7 0a1.043 1.043 0 10-2.087-.003 1.043 1.043 0 002.087.003zm8 0a1.043 1.043 0 10-2.087-.003 1.043 1.043 0 002.087.003zm7 0a1.043 1.043 0 10-2.087-.003 1.043 1.043 0 002.087.003zm7 0a1.043 1.043 0 10-2.087-.003 1.043 1.043 0 002.087.003zm8 0a1.043 1.043 0 10-2.087-.003 1.043 1.043 0 002.087.003zm7 0a1.043 1.043 0 10-2.087-.003 1.043 1.043 0 002.087.003zm8 0a1.043 1.043 0 10-2.087-.003 1.043 1.043 0 002.087.003zm7 0a1.043 1.043 0 10-2.087-.003 1.043 1.043 0 002.087.003zm8 0a1.043 1.043 0 10-2.087-.003 1.043 1.043 0 002.087.003zm7 0a1.043 1.043 0 10-2.087-.003 1.043 1.043 0 002.087.003zm7 0a1.043 1.043 0 10-2.087-.003 1.043 1.043 0 002.087.003zm8 0a1.043 1.043 0 10-2.087-.003 1.043 1.043 0 002.087.003zm7 0a1.043 1.043 0 10-2.087-.003 1.043 1.043 0 002.087.003zm8 0a1.043 1.043 0 10-2.087-.003 1.043 1.043 0 002.087.003zm7 0a1.043 1.043 0 10-2.087-.003 1.043 1.043 0 002.087.003zm8 0a1.043 1.043 0 10-2.087-.003 1.043 1.043 0 002.087.003zm7 0a1.043 1.043 0 10-2.087-.003 1.043 1.043 0 002.087.003zm7 0a1.043 1.043 0 10-2.087-.003 1.043 1.043 0 002.087.003zm0 0" fill-rule="evenodd" fill="#a54f05"/><path d="M42.043 227a1.043 1.043 0 10-2.087-.003 1.043 1.043 0 002.087.003zm7 0a1.043 1.043 0 10-2.087-.003 1.043 1.043 0 002.087.003zm7 0a1.043 1.043 0 10-2.087-.003 1.043 1.043 0 002.087.003zm8 0a1.043 1.043 0 10-2.087-.003 1.043 1.043 0 002.087.003zm7 0a1.043 1.043 0 10-2.087-.003 1.043 1.043 0 002.087.003zm8 0a1.043 1.043 0 10-2.087-.003 1.043 1.043 0 002.087.003zm7 0a1.043 1.043 0 10-2.087-.003 1.043 1.043 0 002.087.003zm8 0a1.043 1.043 0 10-2.087-.003 1.043 1.043 0 002.087.003zm7 0a1.043 1.043 0 10-2.087-.003 1.043 1.043 0 002.087.003zm7 0a1.043 1.043 0 10-2.087-.003 1.043 1.043 0 002.087.003zm8 0a1.043 1.043 0 10-2.087-.003 1.043 1.043 0 002.087.003zm7 0a1.043 1.043 0 10-2.087-.003 1.043 1.043 0 002.087.003zm8-1a1.043 1.043 0 10-2.087-.003 1.043 1.043 0 002.087.003zm7 0a1.043 1.043 0 10-2.087-.003 1.043 1.043 0 002.087.003zm8-1a1.043 1.043 0 10-2.087-.003 1.043 1.043 0 002.087.003zm7-1a1.043 1.043 0 10-2.087-.003 1.043 1.043 0 002.087.003zm7-1a1.043 1.043 0 10-2.087-.003 1.043 1.043 0 002.087.003zm8-2a1.043 1.043 0 10-2.087-.003 1.043 1.043 0 002.087.003zm7-1a1.043 1.043 0 10-2.087-.003 1.043 1.043 0 002.087.003zm8-2a1.043 1.043 0 10-2.087-.003 1.043 1.043 0 002.087.003zm7-2a1.043 1.043 0 10-2.087-.003 1.043 1.043 0 002.087.003zm8-2a1.043 1.043 0 10-2.087-.003 1.043 1.043 0 002.087.003zm7-1a1.043 1.043 0 10-2.087-.003 1.043 1.043 0 002.087.003zm7-3a1.043 1.043 0 10-2.087-.003 1.043 1.043 0 002.087.003zm8-1a1.043 1.043 0 10-2.087-.003 1.043 1.043 0 002.087.003zm7-2a1.043 1.043 0 10-2.087-.003 1.043 1.043 0 002.087.003zm8-2a1.043 1.043 0 10-2.087-.003 1.043 1.043 0 002.087.003zm7-1a1.043 1.043 0 10-2.087-.003 1.043 1.043 0 002.087.003zm8-1a1.043 1.043 0 10-2.087-.003 1.043 1.043 0 002.087.003zm7-1a1.043 1.043 0 10-2.087-.003 1.043 1.043 0 002.087.003zm7-1a1.043 1.043 0 10-2.087-.003 1.043 1.043 0 002.087.003zm8-1a1.043 1.043 0 10-2.087-.003 1.043 1.043 0 002.087.003zm7-1a1.043 1.043 0 10-2.087-.003 1.043 1.043 0 002.087.003zm8 0a1.043 1.043 0 10-2.087-.003 1.043 1.043 0 002.087.003zm7-1a1.043 1.043 0 10-2.087-.003 1.043 1.043 0 002.087.003zm8 0a1.043 1.043 0 10-2.087-.003 1.043 1.043 0 002.087.003zm7-1a1.043 1.043 0 10-2.087-.003 1.043 1.043 0 002.087.003zm7 0a1.043 1.043 0 10-2.087-.003 1.043 1.043 0 002.087.003zm8 0a1.043 1.043 0 10-2.087-.003 1.043 1.043 0 002.087.003zm7 0a1.043 1.043 0 10-2.087-.003 1.043 1.043 0 002.087.003zm8-1a1.043 1.043 0 10-2.087-.003 1.043 1.043 0 002.087.003zm7 0a1.043 1.043 0 10-2.087-.003 1.043 1.043 0 002.087.003zm8 0a1.043 1.043 0 10-2.087-.003 1.043 1.043 0 002.087.003zm7 0a1.043 1.043 0 10-2.087-.003 1.043 1.043 0 002.087.003zm7 0a1.043 1.043 0 10-2.087-.003 1.043 1.043 0 002.087.003zm0 0" fill-rule="evenodd" fill="#6846c7"/><path d="M412.2 22.406h4.374l.23-.004.29-.02.36-.034.448-.059.543-.094.664-.133.786-.18.93-.23 1.085-.293 1.254-.359 1.41-.422 1.535-.473 1.633-.507 1.688-.532 1.715-.539 1.71-.535 1.665-.512 1.593-.48 1.489-.43 1.343-.37 1.192-.305 1.054-.243.934-.187.832-.14.746-.098.684-.067.636-.039.61-.02.601-.003.61-.004h4.48" fill="none" stroke-width="4" stroke-linejoin="round" stroke="#fff" stroke-opacity=".667" stroke-miterlimit="3.25"/><path d="M412.2 22.406h4.374l.23-.004.29-.02.36-.034.448-.059.543-.094.664-.133.786-.18.93-.23 1.085-.293 1.254-.359 1.41-.422 1.535-.473 1.633-.507 1.688-.532 1.715-.539 1.71-.535 1.665-.512 1.593-.48 1.489-.43 1.343-.37 1.192-.305 1.054-.243.934-.187.832-.14.746-.098.684-.067.636-.039.61-.02.601-.003.61-.004h4.48" fill="none" stroke-width="1.25" stroke-linecap="square" stroke="#aaa" stroke-miterlimit="3.25"/><path d="M476.324 7.594v15h-25v-15zm0 0" fill="#fff" fill-opacity=".667"/><use xlink:href="#a" x="453.823" y="17.595"/><use xlink:href="#b" x="463.823" y="17.595"/><path d="M412.2 55.777h4.3l.18-.007.215-.016.265-.047.317-.082.382-.133.457-.191.536-.258.628-.344.727-.437.832-.54.953-.656 1.078-.785 1.192-.902 1.297-1 1.37-1.078 1.426-1.13 1.461-1.163 1.473-1.172 1.469-1.16 1.441-1.125 1.387-1.067 1.32-.984 1.227-.883 1.113-.762 1-.636.902-.524.813-.418.734-.328.672-.25.613-.18.575-.12.539-.079.523-.039.516-.015.52-.004h4.671" fill="none" stroke-width="4" stroke-linejoin="round" stroke="#fff" stroke-opacity=".667" stroke-miterlimit="3.25"/><path d="M412.2 55.777h4.3l.18-.007.215-.016.265-.047.317-.082.382-.133.457-.191.536-.258.628-.344.727-.437.832-.54.953-.656 1.078-.785 1.192-.902 1.297-1 1.37-1.078 1.426-1.13 1.461-1.163 1.473-1.172 1.469-1.16 1.441-1.125 1.387-1.067 1.32-.984 1.227-.883 1.113-.762 1-.636.902-.524.813-.418.734-.328.672-.25.613-.18.575-.12.539-.079.523-.039.516-.015.52-.004h4.671" fill="none" stroke-width="1.25" stroke-linecap="square" stroke="#aaa" stroke-miterlimit="3.25"/><path d="M476.324 29.762v15h-25v-15zm0 0" fill="#fff" fill-opacity=".667"/><use xlink:href="#c" x="453.823" y="39.763"/><use xlink:href="#d" x="463.823" y="39.763"/><path d="M412.2 223.727h4.288l.07-.004.07-.016.083-.027.082-.051.094-.078.101-.106.106-.148.117-.192.129-.242.137-.297.144-.355.16-.426.168-.496.184-.574.191-.66.211-.75.223-.844.234-.945.254-1.051.27-1.164.28-1.285.306-1.407.316-1.539.34-1.672.355-1.816.375-1.96.395-2.114.414-2.274.437-2.437.457-2.594.477-2.75.496-2.887.512-3.011.527-3.13.54-3.23.55-3.324.562-3.406.575-3.477.578-3.535.586-3.578.594-3.617.593-3.64.598-3.653.601-3.653.598-3.644.594-3.621.594-3.586.59-3.543.582-3.488.574-3.418.566-3.34.555-3.246.543-3.149.531-3.03.516-2.907.5-2.774.48-2.62.465-2.466.445-2.3.422-2.14.41-1.985.39-1.84.372-1.695.36-1.56.343-1.429.328-1.304.317-1.184.3-1.07.293-.965.282-.86.27-.765.26-.672.25-.59.247-.508.238-.437.23-.367.227-.305.22-.25.218-.2.21-.156.212-.113.21-.082.212-.055.207-.03.21-.016.212-.008h4.761" fill="none" stroke-width="4" stroke-linejoin="round" stroke="#fff" stroke-opacity=".667" stroke-miterlimit="3.25"/><path d="M412.2 223.727h4.288l.07-.004.07-.016.083-.027.082-.051.094-.078.101-.106.106-.148.117-.192.129-.242.137-.297.144-.355.16-.426.168-.496.184-.574.191-.66.211-.75.223-.844.234-.945.254-1.051.27-1.164.28-1.285.306-1.407.316-1.539.34-1.672.355-1.816.375-1.96.395-2.114.414-2.274.437-2.437.457-2.594.477-2.75.496-2.887.512-3.011.527-3.13.54-3.23.55-3.324.562-3.406.575-3.477.578-3.535.586-3.578.594-3.617.593-3.64.598-3.653.601-3.653.598-3.644.594-3.621.594-3.586.59-3.543.582-3.488.574-3.418.566-3.34.555-3.246.543-3.149.531-3.03.516-2.907.5-2.774.48-2.62.465-2.466.445-2.3.422-2.14.41-1.985.39-1.84.372-1.695.36-1.56.343-1.429.328-1.304.317-1.184.3-1.07.293-.965.282-.86.27-.765.26-.672.25-.59.247-.508.238-.437.23-.367.227-.305.22-.25.218-.2.21-.156.212-.113.21-.082.212-.055.207-.03.21-.016.212-.008h4.761" fill="none" stroke-width="1.25" stroke-linecap="square" stroke="#aaa" stroke-miterlimit="3.25"/><path d="M476.324 74.094v15h-25v-15zm0 0" fill="#fff" fill-opacity=".667"/><use xlink:href="#e" x="453.823" y="84.094"/><use xlink:href="#f" x="463.823" y="84.094"/><path d="M412.2 223.926h4.316l.074-.008.082-.02.086-.039.094-.058.105-.09.11-.129.124-.168.133-.219.14-.27.157-.331.168-.395.18-.469.195-.546.211-.63.227-.722.238-.816.258-.918.277-1.024.293-1.14.312-1.262.332-1.383.352-1.52.371-1.656.395-1.797.418-1.949.437-2.105.465-2.266.484-2.426.508-2.57.528-2.707.546-2.828.563-2.942.578-3.039.59-3.125.601-3.203.614-3.261.617-3.317.629-3.351.629-3.383.633-3.395.636-3.398.633-3.39.633-3.372.629-3.332.625-3.293.617-3.234.605-3.164.598-3.086.586-2.989.57-2.886.555-2.77.54-2.64.519-2.5.5-2.348.476-2.184.457-2.027.434-1.875.418-1.723.394-1.586.383-1.453.36-1.32.347-1.2.332-1.081.32-.973.305-.867.293-.766.285-.676.27-.586.265-.507.254-.43.246-.363.243-.301.234-.242.23-.196.227-.144.223-.11.222-.074.223-.047.223-.027.222-.016h4.922" fill="none" stroke-width="4" stroke-linejoin="round" stroke="#fff" stroke-opacity=".667" stroke-miterlimit="3.25"/><path d="M412.2 223.926h4.316l.074-.008.082-.02.086-.039.094-.058.105-.09.11-.129.124-.168.133-.219.14-.27.157-.331.168-.395.18-.469.195-.546.211-.63.227-.722.238-.816.258-.918.277-1.024.293-1.14.312-1.262.332-1.383.352-1.52.371-1.656.395-1.797.418-1.949.437-2.105.465-2.266.484-2.426.508-2.57.528-2.707.546-2.828.563-2.942.578-3.039.59-3.125.601-3.203.614-3.261.617-3.317.629-3.351.629-3.383.633-3.395.636-3.398.633-3.39.633-3.372.629-3.332.625-3.293.617-3.234.605-3.164.598-3.086.586-2.989.57-2.886.555-2.77.54-2.64.519-2.5.5-2.348.476-2.184.457-2.027.434-1.875.418-1.723.394-1.586.383-1.453.36-1.32.347-1.2.332-1.081.32-.973.305-.867.293-.766.285-.676.27-.586.265-.507.254-.43.246-.363.243-.301.234-.242.23-.196.227-.144.223-.11.222-.074.223-.047.223-.027.222-.016h4.922" fill="none" stroke-width="1.25" stroke-linecap="square" stroke="#aaa" stroke-miterlimit="3.25"/><path d="M476.324 91.773v15h-25v-15zm0 0" fill="#fff" fill-opacity=".667"/><use xlink:href="#g" x="453.823" y="101.772"/><use xlink:href="#h" x="463.823" y="101.772"/><path d="M412.2 224.066h4.273l.078-.004.086-.011.093-.028.102-.05.113-.082.125-.121.137-.165.148-.214.16-.274.18-.34.192-.41.21-.488.227-.578.246-.672.266-.77.285-.879.309-.992.328-1.113.355-1.238.375-1.38.403-1.519.43-1.668.456-1.824.485-1.988.511-2.16.543-2.325.567-2.476.59-2.617.613-2.743.633-2.851.648-2.95.664-3.03.676-3.098.688-3.156.69-3.196.7-3.226 1.406-6.47.704-3.218.699-3.191.691-3.149.684-3.09.672-3.015.66-2.934.648-2.836.63-2.722.605-2.594.59-2.453.558-2.297.54-2.129.507-1.96.484-1.802.461-1.64.438-1.496.418-1.356.394-1.219.38-1.093.358-.973.34-.86.328-.75.317-.656.3-.562.29-.477.281-.398.273-.324.262-.266.258-.207.254-.152.25-.114.246-.078.246-.047.246-.023.246-.012.25-.004h4.625" fill="none" stroke-width="4" stroke-linejoin="round" stroke="#fff" stroke-opacity=".667" stroke-miterlimit="3.25"/><path d="M412.2 224.066h4.273l.078-.004.086-.011.093-.028.102-.05.113-.082.125-.121.137-.165.148-.214.16-.274.18-.34.192-.41.21-.488.227-.578.246-.672.266-.77.285-.879.309-.992.328-1.113.355-1.238.375-1.38.403-1.519.43-1.668.456-1.824.485-1.988.511-2.16.543-2.325.567-2.476.59-2.617.613-2.743.633-2.851.648-2.95.664-3.03.676-3.098.688-3.156.69-3.196.7-3.226 1.406-6.47.704-3.218.699-3.191.691-3.149.684-3.09.672-3.015.66-2.934.648-2.836.63-2.722.605-2.594.59-2.453.558-2.297.54-2.129.507-1.96.484-1.802.461-1.64.438-1.496.418-1.356.394-1.219.38-1.093.358-.973.34-.86.328-.75.317-.656.3-.562.29-.477.281-.398.273-.324.262-.266.258-.207.254-.152.25-.114.246-.078.246-.047.246-.023.246-.012.25-.004h4.625" fill="none" stroke-width="1.25" stroke-linecap="square" stroke="#aaa" stroke-miterlimit="3.25"/><path d="M476.324 109.363v15h-25v-15zm0 0" fill="#fff" fill-opacity=".667"/><use xlink:href="#i" x="453.823" y="119.365"/><use xlink:href="#j" x="463.823" y="119.365"/><path d="M412.2 224.547h4.245l.082-.004.09-.008.098-.02.105-.042.121-.07.13-.106.144-.149.16-.195.172-.25.191-.312.207-.383.23-.461.247-.543.27-.629.288-.73.317-.836.34-.942.363-1.062.39-1.188.419-1.32.449-1.457.48-1.606.508-1.754.543-1.914.574-2.07.602-2.215.629-2.34.652-2.457.672-2.554.691-2.645.707-2.715.72-2.777.73-2.816.738-2.852 1.484-5.742.742-2.86.739-2.84.734-2.796.723-2.746.71-2.684.7-2.602.68-2.507.66-2.399.64-2.277.614-2.145.586-1.996.554-1.836.528-1.675.5-1.532.472-1.386.45-1.254.425-1.121.407-1.004.382-.887.368-.781.347-.68.336-.586.317-.5.308-.422.293-.347.285-.282.278-.222.273-.168.266-.125.261-.09.258-.055.262-.031.258-.016h.261l.266-.004h4.453" fill="none" stroke-width="4" stroke-linejoin="round" stroke="#fff" stroke-opacity=".667" stroke-miterlimit="3.25"/><path d="M412.2 224.547h4.245l.082-.004.09-.008.098-.02.105-.042.121-.07.13-.106.144-.149.16-.195.172-.25.191-.312.207-.383.23-.461.247-.543.27-.629.288-.73.317-.836.34-.942.363-1.062.39-1.188.419-1.32.449-1.457.48-1.606.508-1.754.543-1.914.574-2.07.602-2.215.629-2.34.652-2.457.672-2.554.691-2.645.707-2.715.72-2.777.73-2.816.738-2.852 1.484-5.742.742-2.86.739-2.84.734-2.796.723-2.746.71-2.684.7-2.602.68-2.507.66-2.399.64-2.277.614-2.145.586-1.996.554-1.836.528-1.675.5-1.532.472-1.386.45-1.254.425-1.121.407-1.004.382-.887.368-.781.347-.68.336-.586.317-.5.308-.422.293-.347.285-.282.278-.222.273-.168.266-.125.261-.09.258-.055.262-.031.258-.016h.261l.266-.004h4.453" fill="none" stroke-width="1.25" stroke-linecap="square" stroke="#aaa" stroke-miterlimit="3.25"/><path d="M476.324 127.027v15h-25v-15zm0 0" fill="#fff" fill-opacity=".667"/><use xlink:href="#c" x="453.823" y="137.029"/><use xlink:href="#h" x="463.823" y="137.029"/><path d="M412.2 224.61h4.277l.093-.005.106-.011.117-.035.133-.059.148-.094.164-.136.18-.188.203-.246.227-.313.246-.386.273-.473.297-.562.328-.66.36-.766.386-.883.426-1.008.453-1.137.496-1.273.532-1.422.57-1.578.61-1.738.652-1.899.687-2.043.719-2.168.75-2.28.773-2.372.793-2.453.809-2.516.824-2.562.832-2.594.836-2.61.84-2.605.832-2.59.832-2.554.816-2.508.805-2.442.79-2.359.76-2.262.74-2.148.71-2.02.672-1.87.64-1.716.598-1.55.567-1.399.53-1.25.505-1.113.472-.984.446-.864.422-.75.398-.644.375-.543.363-.457.344-.375.332-.301.316-.238.31-.176.304-.129.293-.09.297-.055.289-.027.297-.012.293-.004h4.636" fill="none" stroke-width="4" stroke-linejoin="round" stroke="#fff" stroke-opacity=".667" stroke-miterlimit="3.25"/><path d="M412.2 224.61h4.277l.093-.005.106-.011.117-.035.133-.059.148-.094.164-.136.18-.188.203-.246.227-.313.246-.386.273-.473.297-.562.328-.66.36-.766.386-.883.426-1.008.453-1.137.496-1.273.532-1.422.57-1.578.61-1.738.652-1.899.687-2.043.719-2.168.75-2.28.773-2.372.793-2.453.809-2.516.824-2.562.832-2.594.836-2.61.84-2.605.832-2.59.832-2.554.816-2.508.805-2.442.79-2.359.76-2.262.74-2.148.71-2.02.672-1.87.64-1.716.598-1.55.567-1.399.53-1.25.505-1.113.472-.984.446-.864.422-.75.398-.644.375-.543.363-.457.344-.375.332-.301.316-.238.31-.176.304-.129.293-.09.297-.055.289-.027.297-.012.293-.004h4.636" fill="none" stroke-width="1.25" stroke-linecap="square" stroke="#aaa" stroke-miterlimit="3.25"/><path d="M476.324 144.605v15h-25v-15zm0 0" fill="#fff" fill-opacity=".667"/><use xlink:href="#k" x="453.823" y="154.607"/><use xlink:href="#l" x="463.823" y="154.607"/><path d="M412.2 224.734h4.35l.118-.011.133-.028.148-.05.172-.09.192-.133.214-.188.243-.246.273-.316.305-.399.336-.484.37-.582.415-.684.449-.8.496-.922.54-1.055.585-1.195.637-1.344.687-1.504.742-1.652.782-1.793.824-1.906.855-2.012.887-2.094.906-2.16.926-2.207.938-2.238.941-2.25.945-2.246.938-2.227.93-2.184.91-2.129.89-2.054.868-1.961.828-1.852.793-1.726.75-1.578.703-1.422.652-1.27.613-1.125.57-.988.536-.86.504-.742.469-.632.44-.532.419-.437.398-.356.375-.28.364-.216.347-.16.34-.11.332-.07.332-.039.328-.02.332-.003h4.754" fill="none" stroke-width="4" stroke-linejoin="round" stroke="#fff" stroke-opacity=".667" stroke-miterlimit="3.25"/><path d="M412.2 224.734h4.35l.118-.011.133-.028.148-.05.172-.09.192-.133.214-.188.243-.246.273-.316.305-.399.336-.484.37-.582.415-.684.449-.8.496-.922.54-1.055.585-1.195.637-1.344.687-1.504.742-1.652.782-1.793.824-1.906.855-2.012.887-2.094.906-2.16.926-2.207.938-2.238.941-2.25.945-2.246.938-2.227.93-2.184.91-2.129.89-2.054.868-1.961.828-1.852.793-1.726.75-1.578.703-1.422.652-1.27.613-1.125.57-.988.536-.86.504-.742.469-.632.44-.532.419-.437.398-.356.375-.28.364-.216.347-.16.34-.11.332-.07.332-.039.328-.02.332-.003h4.754" fill="none" stroke-width="1.25" stroke-linecap="square" stroke="#aaa" stroke-miterlimit="3.25"/><path d="M476.324 162.172v14h-25v-14zm0 0" fill="#fff" fill-opacity=".667"/><use xlink:href="#j" x="453.823" y="171.671"/><use xlink:href="#m" x="463.823" y="171.671"/><path d="M412.2 224.965h4.284l.13-.004.148-.02.172-.039.199-.07.226-.113.262-.168.3-.227.34-.3.387-.383.438-.47.488-.573.543-.684.602-.805.668-.933.734-1.07.805-1.223.87-1.367.934-1.493.98-1.593 1.028-1.684 1.055-1.75 1.082-1.797 1.098-1.824 1.101-1.832 1.098-1.824 1.09-1.79 1.07-1.738 1.04-1.671 1.003-1.583.953-1.468.902-1.344.836-1.2.774-1.046.71-.914.66-.781.61-.664.567-.555.527-.457.492-.367.461-.286.438-.218.418-.157.398-.105.39-.066.387-.036.387-.015h5.04" fill="none" stroke-width="4" stroke-linejoin="round" stroke="#fff" stroke-opacity=".667" stroke-miterlimit="3.25"/><path d="M412.2 224.965h4.284l.13-.004.148-.02.172-.039.199-.07.226-.113.262-.168.3-.227.34-.3.387-.383.438-.47.488-.573.543-.684.602-.805.668-.933.734-1.07.805-1.223.87-1.367.934-1.493.98-1.593 1.028-1.684 1.055-1.75 1.082-1.797 1.098-1.824 1.101-1.832 1.098-1.824 1.09-1.79 1.07-1.738 1.04-1.671 1.003-1.583.953-1.468.902-1.344.836-1.2.774-1.046.71-.914.66-.781.61-.664.567-.555.527-.457.492-.367.461-.286.438-.218.418-.157.398-.105.39-.066.387-.036.387-.015h5.04" fill="none" stroke-width="1.25" stroke-linecap="square" stroke="#aaa" stroke-miterlimit="3.25"/><path d="M476.324 178.758v15h-25v-15zm0 0" fill="#fff" fill-opacity=".667"/><use xlink:href="#n" x="453.823" y="188.756"/><use xlink:href="#f" x="463.823" y="188.756"/><path d="M412.2 225.465h4.296l.164-.004.192-.02.234-.039.277-.078.328-.117.391-.176.453-.238.527-.313.606-.398.691-.492.786-.598.886-.715.992-.84 1.094-.957 1.18-1.058 1.25-1.14 1.3-1.2 1.34-1.234 1.356-1.258 1.36-1.254 1.347-1.234 1.313-1.188 1.269-1.129 1.203-1.043 1.125-.941 1.031-.817.934-.695.844-.578.77-.477.699-.382.64-.301.59-.227.547-.164.515-.113.497-.067.476-.039.477-.015h5.144" fill="none" stroke-width="4" stroke-linejoin="round" stroke="#fff" stroke-opacity=".667" stroke-miterlimit="3.25"/><path d="M412.2 225.465h4.296l.164-.004.192-.02.234-.039.277-.078.328-.117.391-.176.453-.238.527-.313.606-.398.691-.492.786-.598.886-.715.992-.84 1.094-.957 1.18-1.058 1.25-1.14 1.3-1.2 1.34-1.234 1.356-1.258 1.36-1.254 1.347-1.234 1.313-1.188 1.269-1.129 1.203-1.043 1.125-.941 1.031-.817.934-.695.844-.578.77-.477.699-.382.64-.301.59-.227.547-.164.515-.113.497-.067.476-.039.477-.015h5.144" fill="none" stroke-width="1.25" stroke-linecap="square" stroke="#aaa" stroke-miterlimit="3.25"/><path d="M476.324 196.426v15h-25v-15zm0 0" fill="#fff" fill-opacity=".667"/><use xlink:href="#j" x="453.823" y="206.425"/><use xlink:href="#o" x="463.823" y="206.425"/><path d="M412.2 225.578h4.374l.23-.004.29-.012.36-.023.448-.043.543-.066.664-.094.786-.125.93-.164 1.085-.207 1.254-.254 1.41-.297 1.535-.332 1.633-.36 1.688-.374 1.715-.38 1.71-.374 1.665-.364 1.593-.335 1.489-.305 1.343-.262 1.192-.215 1.054-.172.934-.129.832-.101.746-.07.684-.043.636-.028.61-.015.601-.004h5.09" fill="none" stroke-width="4" stroke-linejoin="round" stroke="#fff" stroke-opacity=".667" stroke-miterlimit="3.25"/><path d="M412.2 225.578h4.374l.23-.004.29-.012.36-.023.448-.043.543-.066.664-.094.786-.125.93-.164 1.085-.207 1.254-.254 1.41-.297 1.535-.332 1.633-.36 1.688-.374 1.715-.38 1.71-.374 1.665-.364 1.593-.335 1.489-.305 1.343-.262 1.192-.215 1.054-.172.934-.129.832-.101.746-.07.684-.043.636-.028.61-.015.601-.004h5.09" fill="none" stroke-width="1.25" stroke-linecap="square" stroke="#aaa" stroke-miterlimit="3.25"/><path d="M476.324 212.926v15h-25v-15zm0 0" fill="#fff" fill-opacity=".667"/><use xlink:href="#p" x="453.823" y="222.925"/><use xlink:href="#q" x="463.823" y="222.925"/><path d="M412.2 196.059h4.292l.07-.008.075-.012.082-.031.09-.055.097-.082.106-.117.113-.156.125-.203.133-.258.144-.317.16-.382.168-.454.18-.527.195-.613.211-.703.223-.801.238-.903.258-1.007.27-1.125.293-1.243.304-1.37.328-1.5.344-1.641.367-1.79.387-1.933.406-2.094.43-2.257.453-2.426.477-2.59.492-2.746.516-2.887.53-3.016.548-3.132.562-3.239.574-3.328.586-3.414.594-3.476.606-3.536.609-3.582.613-3.609.621-3.633.618-3.636.62-3.633.618-3.614.617-3.585.61-3.543.605-3.489.597-3.425.59-3.344.578-3.254.563-3.153.55-3.035.54-2.91.515-2.77.5-2.617.48-2.453.462-2.285.437-2.12.422-1.962.403-1.808.382-1.668.368-1.524.351-1.39.336-1.266.324-1.14.309-1.028.297-.922.285-.816.277-.72.266-.624.258-.547.246-.465.242-.39.238-.329.227-.265.226-.215.223-.164.219-.121.219-.09.214-.055.22-.035.214-.016.219-.007h4.77" fill="none" stroke-width="4" stroke-linejoin="round" stroke="#fff" stroke-opacity=".667" stroke-miterlimit="3.25"/><path d="M412.2 196.059h4.292l.07-.008.075-.012.082-.031.09-.055.097-.082.106-.117.113-.156.125-.203.133-.258.144-.317.16-.382.168-.454.18-.527.195-.613.211-.703.223-.801.238-.903.258-1.007.27-1.125.293-1.243.304-1.37.328-1.5.344-1.641.367-1.79.387-1.933.406-2.094.43-2.257.453-2.426.477-2.59.492-2.746.516-2.887.53-3.016.548-3.132.562-3.239.574-3.328.586-3.414.594-3.476.606-3.536.609-3.582.613-3.609.621-3.633.618-3.636.62-3.633.618-3.614.617-3.585.61-3.543.605-3.489.597-3.425.59-3.344.578-3.254.563-3.153.55-3.035.54-2.91.515-2.77.5-2.617.48-2.453.462-2.285.437-2.12.422-1.962.403-1.808.382-1.668.368-1.524.351-1.39.336-1.266.324-1.14.309-1.028.297-.922.285-.816.277-.72.266-.624.258-.547.246-.465.242-.39.238-.329.227-.265.226-.215.223-.164.219-.121.219-.09.214-.055.22-.035.214-.016.219-.007h4.77" fill="none" stroke-width="1.25" stroke-linecap="square" stroke="#aaa" stroke-miterlimit="3.25"/><path d="M496.324 51.93v15h-45v-15zm0 0" fill="#fff" fill-opacity=".667"/><use xlink:href="#c" x="453.823" y="61.93"/><use xlink:href="#d" x="463.823" y="61.93"/><use xlink:href="#r" x="473.823" y="61.93"/><use xlink:href="#s" x="483.823" y="61.93"/><path d="M367.469 40.902l7.43 6.649 7.43 1.086 7.429-.328 7.43-1.086 7.43-1.543V-.867l-7.43 6.77-7.43 7.066-7.43 7.488-7.43 8.195zm0 0" fill="gray" fill-opacity=".05"/><path d="M367.469 71.71l7.43 6.731 7.43 1.313 7.429.035 7.43-.617 7.43-1.02V33.398l-7.43 5.973-7.43 6.281-7.43 6.735-7.43 7.52zm0 152.044l7.43.066 22.288.14 7.43.044v-.559l-29.719.235zm0 0" fill="gray" fill-opacity=".05"/><path d="M367.469 223.926l7.43.054 29.718.157v-.422l-29.719.156zm0 0" fill="gray" fill-opacity=".05"/><path d="M367.469 224.066l7.43.09 29.718.266v-.711l-7.43.066-7.43.063-14.859.133zm0 0" fill="gray" fill-opacity=".05"/><path d="M367.469 224.547l7.43.047 7.43.035 7.429.031 14.86.07v-.37l-29.72.14zm0 0" fill="gray" fill-opacity=".05"/><path d="M367.469 224.61l7.43.046 29.718.14v-.374l-29.719.14zm0 0" fill="gray" fill-opacity=".05"/><path d="M367.469 224.734l7.43.051 7.43.04 22.288.105v-.387l-22.289.105-7.43.04zm0 0" fill="gray" fill-opacity=".05"/><path d="M367.469 225.168l7.43.105 7.43.016 7.429.008 7.43-.004 7.43-.008v-.644l-7.43.074-7.43.082-7.43.086-7.43.101zm0 .297l7.43.015 7.43.012 7.429.016 14.86.023v-.133l-29.72.047zm0 0" fill="gray" fill-opacity=".05"/><path d="M367.469 225.594l7.43.031 7.43.02 7.429.023 14.86.039v-.254l-14.86.055-7.43.023-7.43.028zm0-29.422l7.43.344 7.43.246 22.288.715v-2.836l-7.43.28-14.859.571-7.43.293zm0 0" fill="gray" fill-opacity=".05"/><path d="M412.2 231.52H33m0 0V4m0 0h379.2m0 0v227.52" fill="none" stroke-width=".5" stroke-linecap="square" stroke="#666" stroke-miterlimit="3.25"/><path d="M55.441 231.52v-5.266" fill="none" stroke-width=".5" stroke="#666" stroke-miterlimit="3.25"/><g fill="#666"><use xlink:href="#t" x="40.942" y="243.52"/><use xlink:href="#u" x="46.46" y="243.52"/><use xlink:href="#v" x="51.899" y="243.52"/></g><g fill="#666"><use xlink:href="#w" x="58.942" y="243.52"/><use xlink:href="#x" x="64.558" y="243.52"/></g><path d="M159.453 231.52v-5.266" fill="none" stroke-width=".5" stroke="#666" stroke-miterlimit="3.25"/><g fill="#666"><use xlink:href="#t" x="144.952" y="243.52"/><use xlink:href="#u" x="150.469" y="243.52"/><use xlink:href="#v" x="155.909" y="243.52"/></g><g fill="#666"><use xlink:href="#y" x="162.952" y="243.52"/><use xlink:href="#z" x="168.567" y="243.52"/></g><path d="M263.46 231.52v-5.266" fill="none" stroke-width=".5" stroke="#666" stroke-miterlimit="3.25"/><g fill="#666"><use xlink:href="#A" x="248.961" y="243.52"/><use xlink:href="#B" x="254.488" y="243.52"/><use xlink:href="#C" x="259.786" y="243.52"/></g><g fill="#666"><use xlink:href="#w" x="266.961" y="243.52"/><use xlink:href="#D" x="272.576" y="243.52"/></g><path d="M367.469 231.52v-5.266" fill="none" stroke-width=".5" stroke="#666" stroke-miterlimit="3.25"/><g fill="#666"><use xlink:href="#A" x="352.97" y="243.52"/><use xlink:href="#B" x="358.497" y="243.52"/><use xlink:href="#C" x="363.795" y="243.52"/></g><g fill="#666"><use xlink:href="#y" x="370.97" y="243.52"/><use xlink:href="#E" x="376.585" y="243.52"/></g><path d="M33 226.969h4" fill="none" stroke-width=".5" stroke="#666" stroke-miterlimit="3.25"/><use xlink:href="#D" x="24" y="229.47" fill="#666"/><path d="M33 215.04h2.398M33 203.11h2.398M33 191.18h2.398M33 179.246h4" fill="none" stroke-width=".5" stroke="#666" stroke-miterlimit="3.25"/><g fill="#666"><use xlink:href="#y" y="181.747"/><use xlink:href="#D" x="5.615" y="181.747"/></g><g fill="#666"><use xlink:href="#D" x="12.686" y="181.747"/><use xlink:href="#D" x="18.301" y="181.747"/><use xlink:href="#D" x="23.916" y="181.747"/></g><path d="M33 167.316h2.398M33 155.387h2.398M33 143.457h2.398M33 131.523h4" fill="none" stroke-width=".5" stroke="#666" stroke-miterlimit="3.25"/><g fill="#666"><use xlink:href="#E" y="134.025"/><use xlink:href="#D" x="5.615" y="134.025"/></g><g fill="#666"><use xlink:href="#D" x="12.686" y="134.025"/><use xlink:href="#D" x="18.301" y="134.025"/><use xlink:href="#D" x="23.916" y="134.025"/></g><path d="M33 119.594h2.398M33 107.664h2.398M33 95.734h2.398M33 83.805h4" fill="none" stroke-width=".5" stroke="#666" stroke-miterlimit="3.25"/><g fill="#666"><use xlink:href="#F" y="86.303"/><use xlink:href="#D" x="5.615" y="86.303"/></g><g fill="#666"><use xlink:href="#D" x="12.686" y="86.303"/><use xlink:href="#D" x="18.301" y="86.303"/><use xlink:href="#D" x="23.916" y="86.303"/></g><path d="M33 71.871h2.398M33 59.941h2.398M33 48.012h2.398M33 36.082h4" fill="none" stroke-width=".5" stroke="#666" stroke-miterlimit="3.25"/><g fill="#666"><use xlink:href="#G" y="38.581"/><use xlink:href="#D" x="5.615" y="38.581"/></g><g fill="#666"><use xlink:href="#D" x="12.686" y="38.581"/><use xlink:href="#D" x="18.301" y="38.581"/><use xlink:href="#D" x="23.916" y="38.581"/></g><path d="M33 24.148h2.398M33 12.219h2.398M55.441 4v5.266M159.453 4v5.266M263.46 4v5.266M367.469 4v5.266M412.2 226.969h-4m4-11.929h-2.4m2.4-11.93h-2.4m2.4-11.93h-2.4m2.4-11.934h-4m4-11.93h-2.4m2.4-11.929h-2.4m2.4-11.93h-2.4m2.4-11.934h-4m4-11.929h-2.4m2.4-11.93h-2.4m2.4-11.93h-2.4m2.4-11.929h-4m4-11.934h-2.4m2.4-11.93h-2.4m2.4-11.929h-2.4m2.4-11.93h-4m4-11.934h-2.4m2.4-11.929h-2.4" fill="none" stroke-width=".5" stroke="#666" stroke-miterlimit="3.25"/></svg>