<svg xmlns="http://www.w3.org/2000/svg" xmlns:xlink="http://www.w3.org/1999/xlink" width="500pt" height="348" viewBox="0 0 500 261"><defs><symbol overflow="visible" id="a"><path d="M4.738-8.14C3.578-6.88 2.121-5.82.36-4.97l.352.63C2.48-5.23 3.91-6.282 5-7.49c1.18 1.272 2.59 2.3 4.25 3.1l.36-.64a14.128 14.128 0 01-4.348-3.11zM2.211-4.98v.69h2.418v1.74H1.73v.69h2.9v1.848H.839V.7h8.333v-.71h-3.8v-1.85h2.89v-.692h-2.89V-4.29h2.417v-.691zm0 0"/></symbol><symbol overflow="visible" id="b"><path d="M2.52-6.121v.652h2.109v1.438h-1.79v.64h1.79v1.59H2.25v.66h5.512v-.66h-2.39v-1.59H7.16v-.64H5.371V-5.47H7.47v-.652zm6.59-1.59H.89V.98h.731V.55H8.38v.43h.73zM1.62-.129V-7.03h6.76v6.9zm4.93-3.05l-.57.19c.238.329.46.72.66 1.169l.558-.258A6.323 6.323 0 006.55-3.18zm0 0"/></symbol><symbol overflow="visible" id="c"><path d="M7.04-4.73h1.51v1.808H7.04zm1.51-.63H7.04v-1.78h1.51zM7.02-2.28h1.53v2.22c0 .278-.12.43-.35.43-.24 0-.49-.02-.759-.043l.168.64h.79C8.94.969 9.21.7 9.21.173V-7.8H6.379v5.082C6.359-1.422 6.07-.339 5.5.5l.52.46c.59-.839.921-1.92 1-3.241zm-5.9-5.67l-.492.46c.68.5 1.21.977 1.59 1.419l.5-.489A11.92 11.92 0 001.12-7.95zm-.2 2.34l-.491.46c.691.53 1.231 1.03 1.621 1.49l.5-.488c-.44-.48-.991-.973-1.628-1.461zm1.03 2.649A33.47 33.47 0 01.56.58l.652.28c.5-1.12.95-2.308 1.36-3.57zm3.762-.64H4.69V-5.5h1.297v-.648H4.691v-1.73H4v1.73H2.7v.648H4v1.898H2.95V.41h.66v-.59h2.1zM3.61-.801v-2.18h1.46V-.8zm0 0"/></symbol><symbol overflow="visible" id="d"><path d="M3.32-8.14v2.769H.672v.691H3.32v3.211c-.89.418-1.82.739-2.8.957L.69.2c.93-.258 1.809-.57 2.63-.949V.93h.738v-9.07zM8.22.84c.43 0 .73-.121.89-.36.16-.25.262-.96.32-2.128l-.679-.223c-.031 1.02-.09 1.61-.172 1.793C8.48.078 8.32.16 8.102.16h-1.25c-.25 0-.372-.148-.372-.43v-3.84c.93-.32 1.91-.788 2.95-1.421l-.418-.59c-.82.57-1.66 1.012-2.532 1.332v-3.352h-.73v7.98c0 .661.309 1 .941 1zm0 0"/></symbol><symbol overflow="visible" id="e"><path d="M1.23-8l-.511.488c.601.5 1.062.98 1.402 1.434l.5-.5A11.5 11.5 0 001.231-8zM.988-5.61l-.5.489c.602.5 1.082.98 1.422 1.441l.5-.5c-.379-.48-.86-.949-1.422-1.43zm.793 2.66A36.295 36.295 0 01.578.63l.672.293A42.328 42.328 0 002.41-2.71zm3.68-1.081c-.313.18-.633.351-.95.511v-2.152h.91V-6.3h-.91v-1.84H3.81v1.84H2.74v.63h1.07v2.452c-.368.14-.75.27-1.137.38l.168.69c.32-.113.64-.23.969-.363V-.16c0 .32-.11.48-.329.48C3.238.32 3 .3 2.738.281l.153.63h.808c.54 0 .813-.31.813-.911v-2.82c.316-.149.629-.309.949-.48zm3.578-3.95c-.91.36-1.93.56-3.07.583v3.847c-.047 1.7-.36 3.04-.938 4l.489.52c.699-1.13 1.07-2.64 1.12-4.52v-.71h1.282v5.28h.68v-5.28h.968v-.65H6.64v-1.91c1-.058 1.91-.25 2.731-.55zm0 0"/></symbol><symbol overflow="visible" id="f"><path d="M6.07-6.86v6.79h-3v.69h6.48v-.69H6.782v-6.79h2.43v-.68H3.559v.68zM1.25-7.987L.738-7.5c.762.5 1.364.98 1.801 1.43l.5-.5c-.48-.47-1.078-.942-1.789-1.418zM.988-5.602l-.5.493c.75.507 1.34 1 1.762 1.46l.5-.5A11.644 11.644 0 00.988-5.601zM2.27-2.949A28.672 28.672 0 01.61.6l.66.29a30.8 30.8 0 001.628-3.602zm0 0"/></symbol><symbol overflow="visible" id="g"><path d="M5.262-8.32l-.793.14c.203.32.39.68.55 1.07H1.302v2.93C1.28-2.16.98-.59.42.55l.59.528C1.662-.238 2-1.988 2.04-4.18v-2.242h7.41v-.687H5.81c-.18-.45-.36-.852-.547-1.211zm0 0"/></symbol><symbol overflow="visible" id="h"><path d="M.781-6.96v.698h2.14c-.53 1.024-1.1 1.852-1.71 2.512l.168.629h3.46v3c0 .293-.16.441-.468.441-.3 0-.61-.02-.941-.05l.148.71h1.043c.629 0 .95-.308.95-.921v-3.18h3.148v-.668H5.57v-1.48h-.73v1.48h-2.7a14.36 14.36 0 001.57-2.473h5.42v-.699h-5.1c.16-.367.32-.75.48-1.148l-.71-.16c-.18.46-.36.89-.551 1.308zM2.88-2.329A10.003 10.003 0 01.48-.102L.941.5C1.898-.18 2.72-.98 3.38-1.89zm4.33-.011l-.48.461c.95.86 1.7 1.66 2.238 2.419L9.5.02a16.925 16.925 0 00-2.29-2.36zm0 0"/></symbol><symbol overflow="visible" id="i"><path d="M1.18-7.95l-.508.5c.738.528 1.328 1.028 1.75 1.5l.52-.51c-.481-.5-1.063-.99-1.762-1.49zM1-5.5l-.512.488c.703.512 1.242 1 1.633 1.461l.508-.52C2.19-4.55 1.649-5.02 1-5.5zm1.11 2.68A30.368 30.368 0 01.59.68l.719.308A31.023 31.023 0 002.762-2.57zm1.062-4.75v.699h4.887V-.18c0 .34-.16.508-.48.508-.477 0-.99-.02-1.52-.047l.16.688h1.61c.62 0 .94-.328.94-.969v-6.871h.782v-.7zm.437 2.23v3.68H6.75v-3.68zm2.47 3.02h-1.79v-2.371h1.79zm0 0"/></symbol><symbol overflow="visible" id="j"><path d="M.55-7.23v.68h4.04c-.059.331-.13.671-.2 1.01H1.103V.989h.707v-5.847h6.4v4.68c0 .28-.14.429-.422.429L6.86.23l.192.7h.98c.59 0 .89-.32.89-.95v-5.52H5.13c.07-.32.14-.651.2-1.01h4.12v-.68H5.441c.04-.29.07-.59.098-.899l-.73-.101-.118 1zm3.33 2.69l-.64.24c.21.312.39.652.542 1.01H2.68v.63h1.968v1.05H2.36v.641h2.29V.84h.703V-.97h2.296v-.64H5.352v-1.05h2v-.63H6.21c.2-.32.39-.67.57-1.062l-.66-.238c-.18.461-.383.89-.601 1.3h-1.05a7.488 7.488 0 00-.59-1.25zm0 0"/></symbol><symbol overflow="visible" id="k"><path d="M9.148-7.191H5.43a9.89 9.89 0 00-.45-1.059l-.8.14c.172.282.32.579.46.919H.84v2.14h.738v-1.437H8.41v1.449h.738zM.602-4.411v.7h2.41c-.32.55-.66 1.11-1.024 1.672.934.3 1.864.648 2.801 1.05C3.73-.178 2.34.232.641.239l.418.672C2.922.852 4.399.328 5.519-.672A35.405 35.405 0 018.7.988L9.18.36a31.218 31.218 0 00-3.14-1.558c.531-.621 1-1.45 1.41-2.512h1.973v-.7H4.25c.238-.44.488-.91.75-1.41l-.738-.218a62.17 62.17 0 01-.864 1.629zm3.257.7H6.66c-.34.883-.78 1.621-1.32 2.211-.79-.328-1.559-.61-2.32-.828.261-.402.539-.863.84-1.383zm0 0"/></symbol><symbol overflow="visible" id="l"><path d="M2.27-8.2c-.4.93-1.032 1.76-1.9 2.482l.207.68c1.063-.84 1.82-1.8 2.3-2.883zm.28 2.27c-.44 1.121-1.14 2.121-2.109 3l.207.66a9.72 9.72 0 00.993-.968V.988h.68v-5.097c.327-.48.6-1 .82-1.551zm1.962-2.242v1.762h-.684V-7.8h-.566v1.972h3.09v-1.973h-.57v1.39H5.09v-1.76zM3.109-5.148v.617H6.25c-.07.133-.14.261-.21.383l.358.457c.211-.297.403-.637.57-1.02.122 1.14.36 2.191.723 3.133A5.9 5.9 0 016.641.129c-.18-.399-.38-.777-.582-1.117l-.48.226c.21.371.41.793.6 1.262L6.41.39l.36.56c.5-.49.92-1.08 1.26-1.77.31.64.701 1.23 1.17 1.76l.45-.52a7.733 7.733 0 01-1.297-2.01c.43-1.2.668-2.641.707-4.34h.39v-.65H7.59c.11-.452.2-.94.282-1.46l-.66-.121c-.18 1.45-.492 2.648-.941 3.59v-.578zm4.301-.743c0-.007 0-.02.012-.039H8.46C8.43-4.62 8.28-3.469 8-2.48c-.34-1-.531-2.141-.59-3.41zM3.46-.898A5.217 5.217 0 012.673.328l.469.344c.308-.383.578-.82.808-1.332zM5.98-2.73l-.511.171c.101.16.203.34.3.54-.597.097-1.199.18-1.789.238.801-.52 1.5-1.117 2.098-1.778l-.558-.21c-.141.16-.29.32-.45.48-.41.039-.82.07-1.218.098.418-.32.796-.68 1.136-1.09L4.441-4.5a7.02 7.02 0 01-1.41 1.352l.13.457c.46-.02.917-.059 1.39-.118-.473.399-.98.77-1.54 1.11l.13.488c.46-.039.93-.09 1.41-.148V.12c0 .16-.082.25-.223.25-.18 0-.367-.02-.558-.043l.128.594h.641c.422 0 .64-.223.64-.64v-1.743l.79-.148c.07.14.14.289.203.449l.5-.219c-.203-.48-.434-.93-.692-1.351zm0 0"/></symbol><symbol overflow="visible" id="m"><path d="M.54-7.738v.699h2.98v1.527H1.14V.941h.72V.488h6.3v.453h.719v-6.453H6.44v-1.527h3.02v-.7zM1.86-.191v-4.637h1.66v.2C3.5-3.27 3-2.282 2.02-1.66l.558.488C3.66-1.898 4.211-3.05 4.23-4.629v-.2h1.5v2.067c0 .653.32.98.98.98h1.45v1.59zM4.23-7.04h1.5v1.527h-1.5zm2.211 2.21h1.72v2.388H6.897c-.308 0-.457-.16-.457-.47zm0 0"/></symbol><symbol overflow="visible" id="n"><path d="M1.54-5.23v3.32h3.089v.691h-3.55v.578h3.55v.75H.579v.63h8.843v-.63h-4.07v-.75H8.93v-.578H5.352v-.691h3.097v-3.32H5.352v-.641h3.93v-.617h-3.93v-.762A73.97 73.97 0 008.46-7.5l-.223-.602c-1.988.223-4.289.372-6.886.454l.117.59c1.101-.044 2.152-.09 3.16-.153v.723H.719v.617h3.91v.64zm6.21 2.742H5.352v-.813H7.75zm-3.121 0H2.23v-.813h2.4zM2.23-3.86v-.79h2.4v.79zm3.122-.79H7.75v.79H5.352zm0 0"/></symbol><symbol overflow="visible" id="o"><path d="M2.531-4.129v.668h2.707C4.84-1.879 3.738-.57 1.961.461l.41.59C4.148-.031 5.301-1.38 5.81-3.012c.56 1.684 1.67 3.024 3.31 4l.43-.566C7.93-.5 6.84-1.801 6.289-3.461H9.25v-.668H6.102c-.024-.05-.032-.11-.043-.172.03-.46.05-1 .05-1.62h-.68c0 .28-.007.683-.007 1.202a19.6 19.6 0 01-.05.59zM5.25-8.23l-.79.14c.22.3.411.621.59.98H1.3v2.91C1.27-2.2.96-.628.36.489l.562.5C1.629-.309 2-2.039 2.039-4.199v-2.223h7.41v-.687H5.83a9.055 9.055 0 00-.58-1.121zm0 0"/></symbol><symbol overflow="visible" id="p"><path d="M8.3-3.27l-.562.348c.563.863 1.012 1.652 1.34 2.363l.55-.402c-.308-.66-.75-1.43-1.327-2.309zm-6.421.098c-.3.82-.738 1.48-1.34 1.98l.54.473c.6-.5 1.081-1.242 1.44-2.203zm2.3-2.45v.95H1.43v.703h2.712c-.082.98-.29 1.797-.653 2.48-.457.778-1.277 1.4-2.457 1.88l.399.64C2.64.551 3.512-.12 4.05-.98c.462-.782.731-1.77.829-2.989H6.94c-.05 1.719-.152 2.848-.3 3.367-.153.512-.461.774-.93.774-.402 0-.82-.012-1.262-.024l.192.68h1.418c.46-.027.793-.2 1.011-.508.2-.32.352-.898.45-1.718.082-.84.128-1.93.171-3.274H4.92v-.95zM.65-7.108v.687h2.26v.902h.73v-.902h2.622v.91h.726v-.91h2.364v-.687H6.988v-1.02h-.726v1.02H3.64v-1.02h-.73v1.02zm0 0"/></symbol><symbol overflow="visible" id="q"><path d="M9.11-7.531H.89V.852h.731V.27H8.38v.582h.73zM1.62-.38v-6.5h1.91v2.168c-.02 1.18-.543 2.031-1.562 2.57l.55.48C3.642-2.3 4.212-3.32 4.23-4.71v-2.168h1.49v3.969c0 .539.293.82.89.82h1.422v-.66h-1.23c-.262 0-.39-.11-.39-.309v-3.82H8.38v6.5zm0 0"/></symbol><symbol overflow="visible" id="r"><path d="M4.852-7.719V.25h.726v-7.969zM7.84-8.12V.97h.73v-9.09zm-5.961.043v3.867c-.02 2.18-.52 3.75-1.5 4.73l.55.493C2.032-.09 2.59-1.828 2.61-4.211v-3.867zm0 0"/></symbol><symbol overflow="visible" id="s"><path d="M3.805-7.11h.941v5.036c0 .68-.203 1.21-.613 1.597-.406.383-.953.575-1.633.575-.707 0-1.258-.18-1.648-.543-.395-.36-.594-.867-.594-1.516h.937c0 .406.114.723.336.95.223.23.547.343.969.343.387 0 .7-.121.941-.367.239-.246.36-.586.364-1.028zm0 0"/></symbol><symbol overflow="visible" id="t"><path d="M3.945 0c-.05-.105-.093-.29-.125-.555-.422.434-.922.653-1.507.653-.52 0-.946-.149-1.282-.442a1.438 1.438 0 01-.5-1.12c0-.552.211-.977.63-1.282.417-.305 1.007-.457 1.765-.457h.879v-.414c0-.317-.094-.567-.285-.754-.188-.188-.465-.281-.833-.281-.324 0-.593.082-.812.242-.219.164-.328.36-.328.59H.64c0-.262.093-.516.28-.762.188-.246.442-.441.763-.582.32-.145.671-.219 1.054-.219.61 0 1.086.153 1.434.457.344.305.523.727.535 1.258v2.434c0 .484.063.87.184 1.156V0zm-1.5-.688c.285 0 .555-.074.805-.218a1.35 1.35 0 00.555-.574v-1.083h-.711c-1.106 0-1.656.325-1.656.97 0 .284.093.507.28.663.188.16.43.243.727.243zm0 0"/></symbol><symbol overflow="visible" id="u"><path d="M1.54-5.281l.026.664a1.93 1.93 0 011.582-.766c1.118 0 1.68.633 1.692 1.89V0h-.902v-3.496c-.004-.379-.094-.664-.262-.844-.172-.183-.438-.273-.801-.273-.293 0-.55.078-.77.234a1.59 1.59 0 00-.52.613V0h-.9v-5.281zm0 0"/></symbol><symbol overflow="visible" id="v"><path d="M3.559 0h-.907v-6.02l-1.824.668v-.82l2.59-.973h.14zm0 0"/></symbol><symbol overflow="visible" id="w"><path d="M1.906-3.992h.676c.426-.008.762-.121 1.008-.34.242-.219.363-.512.363-.883 0-.832-.414-1.25-1.242-1.25-.39 0-.703.113-.938.336-.23.223-.347.516-.347.887H.523c0-.563.204-1.031.618-1.406.41-.372.933-.559 1.57-.559.672 0 1.195.176 1.578.531.379.356.57.848.57 1.48 0 .31-.101.61-.3.9a1.81 1.81 0 01-.817.648c.39.125.692.328.903.617.214.285.32.636.32 1.047 0 .64-.207 1.144-.625 1.52-.418.374-.957.562-1.625.562s-1.211-.18-1.63-.543c-.417-.36-.624-.836-.624-1.43h.906c0 .375.121.672.367.898.243.227.57.336.98.336.438 0 .77-.113 1-.34.231-.23.349-.554.349-.98 0-.414-.125-.734-.383-.953-.254-.223-.618-.336-1.098-.344h-.676zm0 0"/></symbol><symbol overflow="visible" id="x"><path d="M5.25 0H.59v-.648l2.46-2.735c.364-.414.618-.75.755-1.008.14-.257.21-.527.21-.804 0-.371-.113-.676-.34-.914-.222-.239-.523-.356-.898-.356-.449 0-.797.13-1.047.383-.25.254-.37.613-.37 1.066H.452c0-.652.211-1.183.633-1.586.422-.402.984-.605 1.691-.605.66 0 1.184.172 1.567.52.386.347.578.808.578 1.382 0 .703-.445 1.535-1.336 2.5L1.68-.738h3.57zm0 0"/></symbol><symbol overflow="visible" id="y"><path d="M5.047-3.031c0 1.058-.18 1.844-.54 2.36-.362.51-.925.769-1.694.769-.758 0-1.32-.25-1.684-.754C.766-1.16.574-1.91.562-2.91v-1.207c0-1.043.18-1.82.54-2.328.363-.508.93-.762 1.703-.762.765 0 1.328.246 1.687.734.36.489.547 1.246.555 2.27zm-.902-1.235c0-.765-.106-1.324-.32-1.675-.216-.348-.555-.524-1.02-.524-.465 0-.801.176-1.012.524-.211.347-.32.882-.328 1.605v1.445c0 .77.113 1.336.336 1.704.222.367.558.546 1.012.546.445 0 .777-.171.992-.515.218-.344.332-.89.34-1.633zm0 0"/></symbol><symbol overflow="visible" id="z"><path d="M5.18-6.602L2.234 0H1.29l2.934-6.367H.375v-.742H5.18zm0 0"/></symbol><symbol overflow="visible" id="A"><path d="M4.746-3.14H1.762V0H.824v-7.11H5.23v.774H1.762v2.43h2.984zm0 0"/></symbol><symbol overflow="visible" id="B"><path d="M2.875.098c-.715 0-1.297-.235-1.746-.707-.45-.47-.676-1.098-.676-1.887v-.164c0-.524.102-.992.3-1.406.2-.41.481-.735.84-.965.36-.235.75-.352 1.173-.352.687 0 1.218.227 1.601.68.38.453.57 1.101.57 1.945v.375H1.36c.012.52.164.942.454 1.262.292.32.664.48 1.113.48.316 0 .59-.062.808-.195.223-.129.414-.3.582-.516l.551.43c-.441.68-1.105 1.02-1.992 1.02zm-.11-4.739a1.21 1.21 0 00-.921.399c-.246.265-.399.64-.457 1.117H4.03v-.07c-.023-.457-.148-.813-.367-1.067-.223-.25-.523-.379-.898-.379zm0 0"/></symbol><symbol overflow="visible" id="C"><path d="M5.156-2.582c0 .809-.187 1.453-.554 1.945-.372.489-.872.735-1.497.735-.667 0-1.183-.235-1.546-.707L1.516 0H.684v-7.5h.902v2.797c.367-.453.867-.68 1.508-.68.64 0 1.148.246 1.511.73.368.485.551 1.15.551 1.993zm-.902-.106c0-.613-.121-1.09-.356-1.421-.238-.336-.582-.504-1.027-.504-.598 0-1.023.277-1.285.828V-1.5c.277.555.71.832 1.297.832.43 0 .77-.168 1.008-.504.242-.336.363-.84.363-1.516zm0 0"/></symbol><symbol overflow="visible" id="D"><path d="M4.406-2.387h.985v.739h-.985V0h-.91v-1.648H.258v-.536L3.44-7.109h.965zm-3.12 0h2.21v-3.488l-.105.195zm0 0"/></symbol></defs><path d="M40.984 243.52V4m13.688 239.52V4M68.36 243.52V4m13.683 239.52V4M95.73 243.52V4m13.688 239.52V4m13.687 239.52V4m13.688 239.52V4m13.687 239.52V4m13.684 239.52V4m13.688 239.52V4m13.688 239.52V4m13.687 239.52V4m13.687 239.52V4m13.688 239.52V4m13.683 239.52V4m13.688 239.52V4m13.687 239.52V4m13.688 239.52V4m13.687 239.52V4m13.688 239.52V4m13.683 239.52V4m13.688 239.52V4m13.687 239.52V4m13.688 239.52V4m13.687 239.52V4m13.688 239.52V4m13.683 239.52V4m13.688 239.52V4M33 182.902h399.2M33 127.078h399.2M33 71.25h399.2" fill="none" stroke="#666" stroke-opacity=".5" stroke-dasharray="1,2" stroke-miterlimit="3.25"/><path d="M355.781 124.645l13.688-18.567 13.687-19.453 13.688-20.258 13.683-21.086 13.688-21.902" fill="none" stroke-width="1.6" stroke-linecap="square" stroke="#a60000" stroke-opacity=".3" stroke-miterlimit="3.25"/><path d="M355.781 163.242l13.688-13.465 13.687-14.125 13.688-14.703 13.683-15.3 13.688-15.895" fill="none" stroke-width="1.6" stroke-linecap="square" stroke="#0d86a0" stroke-opacity=".3" stroke-miterlimit="3.25"/><path d="M355.781 234.102l13.688-.637 13.687-.664 13.688-.696 13.683-.718 13.688-.746" fill="none" stroke-width="1.6" stroke-linecap="square" stroke="#c05c20" stroke-opacity=".3" stroke-miterlimit="3.25"/><path d="M355.781 234.281l13.688-.617 13.687-.66 13.688-.688 13.683-.714 13.688-.743" fill="none" stroke-width="1.6" stroke-linecap="square" stroke="#6f42b5" stroke-opacity=".3" stroke-miterlimit="3.25"/><path d="M355.781 234.96l13.688-.64 13.687-.668 13.688-.695 13.683-.727 13.688-.75" fill="none" stroke-width="1.6" stroke-linecap="square" stroke="#769003" stroke-opacity=".3" stroke-miterlimit="3.25"/><path d="M355.781 235.418l13.688-.402 13.687-.426 13.688-.442 13.683-.46 13.688-.477" fill="none" stroke-width="1.6" stroke-linecap="square" stroke="#a8364d" stroke-opacity=".3" stroke-miterlimit="3.25"/><path d="M355.781 236.05l13.688-.417 13.687-.438 13.688-.457 13.683-.472 13.688-.493" fill="none" stroke-width="1.6" stroke-linecap="square" stroke="#3664cc" stroke-opacity=".3" stroke-miterlimit="3.25"/><path d="M355.781 236.066l13.688-.496 13.687-.523 13.688-.54 13.683-.562 13.688-.586" fill="none" stroke-width="1.6" stroke-linecap="square" stroke="#c8860a" stroke-opacity=".3" stroke-miterlimit="3.25"/><path d="M355.781 236.848l13.688-.22 13.687-.23 13.688-.238 13.683-.246 13.688-.258" fill="none" stroke-width="1.6" stroke-linecap="square" stroke="#833987" stroke-opacity=".3" stroke-miterlimit="3.25"/><path d="M355.781 237.012l13.688-.219 13.687-.223 13.688-.234 13.683-.246 13.688-.254" fill="none" stroke-width="1.6" stroke-linecap="square" stroke="#1c8f6b" stroke-opacity=".3" stroke-miterlimit="3.25"/><path d="M355.781 237.156l13.688-.164 13.687-.172 13.688-.175 13.683-.188 13.688-.191" fill="none" stroke-width="1.6" stroke-linecap="square" stroke="#a54f05" stroke-opacity=".3" stroke-miterlimit="3.25"/><path d="M40.984 238.5H95.73l13.688-.023 13.687-.094 13.688-.328 13.687-.438 13.684-.512 13.688-.832 13.687-.73 13.688-1.445 13.687-2.48 13.688-3.84 13.683-4.294 13.688-9.886 13.687-8.145 13.688-9.7 13.687-11.062 13.688-11.734 13.683-14.46 13.688-15.794 13.687-18.058" fill="none" stroke-width="1.6" stroke-linecap="square" stroke="#a60000" stroke-miterlimit="3.25"/><path d="M40.984 238.5H95.73l13.688-.023 13.687-.094 13.688-.328 13.687-.43 13.684-.402 13.688-.586 13.687-.387 13.688-.586 13.687-1.004 13.688-1.805 13.683-2.07 13.688-7.207 13.687-4.687 13.688-5.762 13.687-6.813 13.688-7.52 13.683-10.722 13.688-11.742 13.687-13.09" fill="none" stroke-width="1.6" stroke-linecap="square" stroke="#0d86a0" stroke-miterlimit="3.25"/><path d="M40.984 238.73h123.18l13.688-.027 13.687-.031 13.688-.184 13.687-.105 13.688-.235 13.683-.132 13.688-.25 13.687-.688 13.688-.738 13.687-.61 13.688-.343 13.683-.348 13.688-.351 13.687-.586" fill="none" stroke-width="1.6" stroke-linecap="square" stroke="#c05c20" stroke-miterlimit="3.25"/><path d="M40.984 238.73h95.809l13.687-.007 13.684-.07 13.688-.067 13.687-.035 13.688-.117 13.687-.141 13.688-.11 13.683-.269 13.688-.234 13.687-.297 13.688-.39 13.687-.458 13.688-.707 13.683-.469 13.688-.441 13.687-.637" fill="none" stroke-width="1.6" stroke-linecap="square" stroke="#6f42b5" stroke-miterlimit="3.25"/><path d="M40.984 238.73h123.18l13.688-.007 13.687-.02 13.688-.023 13.687-.13 13.688-.284 13.683-.25 13.688-.223 13.687-.215 13.688-.402 13.687-.41 13.688-.391 13.683-.398 13.688-.407 13.687-.61" fill="none" stroke-width="1.6" stroke-linecap="square" stroke="#769003" stroke-miterlimit="3.25"/><path d="M40.984 238.73h123.18l13.688-.007 13.687-.043 13.688-.086 13.687-.106 13.688-.144 13.683-.172 13.688-.242 13.687-.434 13.688-.312 13.687-.309 13.688-.316 13.683-.414 13.688-.325 13.687-.402" fill="none" stroke-width="1.6" stroke-linecap="square" stroke="#a8364d" stroke-miterlimit="3.25"/><path d="M40.984 238.73h136.868l13.687-.007 13.688-.078 13.687-.133 13.688-.117 13.683-.055 13.688-.203 13.687-.254 13.688-.27 13.687-.207 13.688-.336 13.683-.238 13.688-.379 13.687-.402" fill="none" stroke-width="1.6" stroke-linecap="square" stroke="#3664cc" stroke-miterlimit="3.25"/><path d="M40.984 238.73h123.18l13.688-.011 13.687-.008 13.688-.02 13.687-.062 13.688-.102 13.683-.066 13.688-.133 13.687-.207 13.688-.297 13.687-.43 13.688-.261 13.683-.262 13.688-.328 13.687-.477" fill="none" stroke-width="1.6" stroke-linecap="square" stroke="#c8860a" stroke-miterlimit="3.25"/><path d="M40.984 238.73h123.18l13.688-.027 13.687-.023 13.688-.102 13.687-.168 13.688-.097 13.683-.196 13.688-.125 13.687-.082 13.688-.101 13.687-.23 13.688-.177 13.683-.136 13.688-.211 13.687-.207" fill="none" stroke-width="1.6" stroke-linecap="square" stroke="#833987" stroke-miterlimit="3.25"/><path d="M40.984 238.73h136.868l13.687-.007 13.688-.043 13.687-.051 13.688-.074 13.683-.086 13.688-.13 13.687-.163 13.688-.168 13.687-.215 13.688-.191 13.683-.192 13.688-.195 13.687-.203" fill="none" stroke-width="1.6" stroke-linecap="square" stroke="#1c8f6b" stroke-miterlimit="3.25"/><path d="M40.984 238.73h123.18l13.688-.011 13.687-.016 13.688-.058 13.687-.07 13.688-.09 13.683-.141 13.688-.117 13.687-.102 13.688-.188 13.687-.195 13.688-.168 13.683-.133 13.688-.129 13.687-.156" fill="none" stroke-width="1.6" stroke-linecap="square" stroke="#a54f05" stroke-miterlimit="3.25"/><path d="M357.465 125a1.47 1.47 0 00-1.465-1.465 1.47 1.47 0 00-1.465 1.465 1.47 1.47 0 001.465 1.465 1.47 1.47 0 001.465-1.465zm13-19a1.47 1.47 0 00-1.465-1.465 1.47 1.47 0 00-1.465 1.465 1.47 1.47 0 001.465 1.465 1.47 1.47 0 001.465-1.465zm14-19A1.47 1.47 0 00383 85.535 1.47 1.47 0 00381.535 87 1.47 1.47 0 00383 88.465 1.47 1.47 0 00384.465 87zm14-21A1.47 1.47 0 00397 64.535 1.47 1.47 0 00395.535 66 1.47 1.47 0 00397 67.465 1.47 1.47 0 00398.465 66zm14-21A1.47 1.47 0 00411 43.535 1.47 1.47 0 00409.535 45 1.47 1.47 0 00411 46.465 1.47 1.47 0 00412.465 45zm13-22A1.47 1.47 0 00424 21.535 1.47 1.47 0 00422.535 23 1.47 1.47 0 00424 24.465 1.47 1.47 0 00425.465 23zm0 0" fill-rule="evenodd" fill="#a60000" fill-opacity=".3"/><path d="M357.465 163a1.47 1.47 0 00-1.465-1.465 1.47 1.47 0 00-1.465 1.465 1.47 1.47 0 001.465 1.465 1.47 1.47 0 001.465-1.465zm13-13a1.47 1.47 0 00-1.465-1.465 1.47 1.47 0 00-1.465 1.465 1.47 1.47 0 001.465 1.465 1.47 1.47 0 001.465-1.465zm14-14a1.47 1.47 0 00-1.465-1.465 1.47 1.47 0 00-1.465 1.465 1.47 1.47 0 001.465 1.465 1.47 1.47 0 001.465-1.465zm14-15a1.47 1.47 0 00-1.465-1.465 1.47 1.47 0 00-1.465 1.465 1.47 1.47 0 001.465 1.465 1.47 1.47 0 001.465-1.465zm14-15a1.47 1.47 0 00-1.465-1.465 1.47 1.47 0 00-1.465 1.465 1.47 1.47 0 001.465 1.465 1.47 1.47 0 001.465-1.465zm13-16A1.47 1.47 0 00424 88.535 1.47 1.47 0 00422.535 90 1.47 1.47 0 00424 91.465 1.47 1.47 0 00425.465 90zm0 0" fill-rule="evenodd" fill="#0d86a0" fill-opacity=".3"/><path d="M357.465 234a1.47 1.47 0 00-1.465-1.465 1.47 1.47 0 00-1.465 1.465 1.47 1.47 0 001.465 1.465 1.47 1.47 0 001.465-1.465zm13-1a1.47 1.47 0 00-1.465-1.465 1.47 1.47 0 00-1.465 1.465 1.47 1.47 0 001.465 1.465 1.47 1.47 0 001.465-1.465zm14 0a1.47 1.47 0 00-1.465-1.465 1.47 1.47 0 00-1.465 1.465 1.47 1.47 0 001.465 1.465 1.47 1.47 0 001.465-1.465zm14-1a1.47 1.47 0 00-1.465-1.465 1.47 1.47 0 00-1.465 1.465 1.47 1.47 0 001.465 1.465 1.47 1.47 0 001.465-1.465zm14-1a1.47 1.47 0 00-1.465-1.465 1.47 1.47 0 00-1.465 1.465 1.47 1.47 0 001.465 1.465 1.47 1.47 0 001.465-1.465zm13 0a1.47 1.47 0 00-1.465-1.465 1.47 1.47 0 00-1.465 1.465 1.47 1.47 0 001.465 1.465 1.47 1.47 0 001.465-1.465zm0 0" fill-rule="evenodd" fill="#c05c20" fill-opacity=".3"/><path d="M357.465 234a1.47 1.47 0 00-1.465-1.465 1.47 1.47 0 00-1.465 1.465 1.47 1.47 0 001.465 1.465 1.47 1.47 0 001.465-1.465zm13 0a1.47 1.47 0 00-1.465-1.465 1.47 1.47 0 00-1.465 1.465 1.47 1.47 0 001.465 1.465 1.47 1.47 0 001.465-1.465zm14-1a1.47 1.47 0 00-1.465-1.465 1.47 1.47 0 00-1.465 1.465 1.47 1.47 0 001.465 1.465 1.47 1.47 0 001.465-1.465zm14-1a1.47 1.47 0 00-1.465-1.465 1.47 1.47 0 00-1.465 1.465 1.47 1.47 0 001.465 1.465 1.47 1.47 0 001.465-1.465zm14 0a1.47 1.47 0 00-1.465-1.465 1.47 1.47 0 00-1.465 1.465 1.47 1.47 0 001.465 1.465 1.47 1.47 0 001.465-1.465zm13-1a1.47 1.47 0 00-1.465-1.465 1.47 1.47 0 00-1.465 1.465 1.47 1.47 0 001.465 1.465 1.47 1.47 0 001.465-1.465zm0 0" fill-rule="evenodd" fill="#6f42b5" fill-opacity=".3"/><path d="M357.465 235a1.47 1.47 0 00-1.465-1.465 1.47 1.47 0 00-1.465 1.465 1.47 1.47 0 001.465 1.465 1.47 1.47 0 001.465-1.465zm13-1a1.47 1.47 0 00-1.465-1.465 1.47 1.47 0 00-1.465 1.465 1.47 1.47 0 001.465 1.465 1.47 1.47 0 001.465-1.465zm14 0a1.47 1.47 0 00-1.465-1.465 1.47 1.47 0 00-1.465 1.465 1.47 1.47 0 001.465 1.465 1.47 1.47 0 001.465-1.465zm14-1a1.47 1.47 0 00-1.465-1.465 1.47 1.47 0 00-1.465 1.465 1.47 1.47 0 001.465 1.465 1.47 1.47 0 001.465-1.465zm14-1a1.47 1.47 0 00-1.465-1.465 1.47 1.47 0 00-1.465 1.465 1.47 1.47 0 001.465 1.465 1.47 1.47 0 001.465-1.465zm13-1a1.47 1.47 0 00-1.465-1.465 1.47 1.47 0 00-1.465 1.465 1.47 1.47 0 001.465 1.465 1.47 1.47 0 001.465-1.465zm0 0" fill-rule="evenodd" fill="#769003" fill-opacity=".3"/><path d="M357.465 235a1.47 1.47 0 00-1.465-1.465 1.47 1.47 0 00-1.465 1.465 1.47 1.47 0 001.465 1.465 1.47 1.47 0 001.465-1.465zm13 0a1.47 1.47 0 00-1.465-1.465 1.47 1.47 0 00-1.465 1.465 1.47 1.47 0 001.465 1.465 1.47 1.47 0 001.465-1.465zm14 0a1.47 1.47 0 00-1.465-1.465 1.47 1.47 0 00-1.465 1.465 1.47 1.47 0 001.465 1.465 1.47 1.47 0 001.465-1.465zm14-1a1.47 1.47 0 00-1.465-1.465 1.47 1.47 0 00-1.465 1.465 1.47 1.47 0 001.465 1.465 1.47 1.47 0 001.465-1.465zm14 0a1.47 1.47 0 00-1.465-1.465 1.47 1.47 0 00-1.465 1.465 1.47 1.47 0 001.465 1.465 1.47 1.47 0 001.465-1.465zm13-1a1.47 1.47 0 00-1.465-1.465 1.47 1.47 0 00-1.465 1.465 1.47 1.47 0 001.465 1.465 1.47 1.47 0 001.465-1.465zm0 0" fill-rule="evenodd" fill="#a8364d" fill-opacity=".3"/><path d="M357.465 236a1.47 1.47 0 00-1.465-1.465 1.47 1.47 0 00-1.465 1.465 1.47 1.47 0 001.465 1.465 1.47 1.47 0 001.465-1.465zm13 0a1.47 1.47 0 00-1.465-1.465 1.47 1.47 0 00-1.465 1.465 1.47 1.47 0 001.465 1.465 1.47 1.47 0 001.465-1.465zm14-1a1.47 1.47 0 00-1.465-1.465 1.47 1.47 0 00-1.465 1.465 1.47 1.47 0 001.465 1.465 1.47 1.47 0 001.465-1.465zm14 0a1.47 1.47 0 00-1.465-1.465 1.47 1.47 0 00-1.465 1.465 1.47 1.47 0 001.465 1.465 1.47 1.47 0 001.465-1.465zm14-1a1.47 1.47 0 00-1.465-1.465 1.47 1.47 0 00-1.465 1.465 1.47 1.47 0 001.465 1.465 1.47 1.47 0 001.465-1.465zm13 0a1.47 1.47 0 00-1.465-1.465 1.47 1.47 0 00-1.465 1.465 1.47 1.47 0 001.465 1.465 1.47 1.47 0 001.465-1.465zm0 0" fill-rule="evenodd" fill="#3664cc" fill-opacity=".3"/><path d="M357.465 236a1.47 1.47 0 00-1.465-1.465 1.47 1.47 0 00-1.465 1.465 1.47 1.47 0 001.465 1.465 1.47 1.47 0 001.465-1.465zm13 0a1.47 1.47 0 00-1.465-1.465 1.47 1.47 0 00-1.465 1.465 1.47 1.47 0 001.465 1.465 1.47 1.47 0 001.465-1.465zm14-1a1.47 1.47 0 00-1.465-1.465 1.47 1.47 0 00-1.465 1.465 1.47 1.47 0 001.465 1.465 1.47 1.47 0 001.465-1.465zm14 0a1.47 1.47 0 00-1.465-1.465 1.47 1.47 0 00-1.465 1.465 1.47 1.47 0 001.465 1.465 1.47 1.47 0 001.465-1.465zm14-1a1.47 1.47 0 00-1.465-1.465 1.47 1.47 0 00-1.465 1.465 1.47 1.47 0 001.465 1.465 1.47 1.47 0 001.465-1.465zm13-1a1.47 1.47 0 00-1.465-1.465 1.47 1.47 0 00-1.465 1.465 1.47 1.47 0 001.465 1.465 1.47 1.47 0 001.465-1.465zm0 0" fill-rule="evenodd" fill="#c8860a" fill-opacity=".3"/><path d="M357.465 237a1.47 1.47 0 00-1.465-1.465 1.47 1.47 0 00-1.465 1.465 1.47 1.47 0 001.465 1.465 1.47 1.47 0 001.465-1.465zm13 0a1.47 1.47 0 00-1.465-1.465 1.47 1.47 0 00-1.465 1.465 1.47 1.47 0 001.465 1.465 1.47 1.47 0 001.465-1.465zm14-1a1.47 1.47 0 00-1.465-1.465 1.47 1.47 0 00-1.465 1.465 1.47 1.47 0 001.465 1.465 1.47 1.47 0 001.465-1.465zm14 0a1.47 1.47 0 00-1.465-1.465 1.47 1.47 0 00-1.465 1.465 1.47 1.47 0 001.465 1.465 1.47 1.47 0 001.465-1.465zm14 0a1.47 1.47 0 00-1.465-1.465 1.47 1.47 0 00-1.465 1.465 1.47 1.47 0 001.465 1.465 1.47 1.47 0 001.465-1.465zm13 0a1.47 1.47 0 00-1.465-1.465 1.47 1.47 0 00-1.465 1.465 1.47 1.47 0 001.465 1.465 1.47 1.47 0 001.465-1.465zm0 0" fill-rule="evenodd" fill="#833987" fill-opacity=".3"/><path d="M357.465 237a1.47 1.47 0 00-1.465-1.465 1.47 1.47 0 00-1.465 1.465 1.47 1.47 0 001.465 1.465 1.47 1.47 0 001.465-1.465zm13 0a1.47 1.47 0 00-1.465-1.465 1.47 1.47 0 00-1.465 1.465 1.47 1.47 0 001.465 1.465 1.47 1.47 0 001.465-1.465zm14 0a1.47 1.47 0 00-1.465-1.465 1.47 1.47 0 00-1.465 1.465 1.47 1.47 0 001.465 1.465 1.47 1.47 0 001.465-1.465zm14-1a1.47 1.47 0 00-1.465-1.465 1.47 1.47 0 00-1.465 1.465 1.47 1.47 0 001.465 1.465 1.47 1.47 0 001.465-1.465zm14 0a1.47 1.47 0 00-1.465-1.465 1.47 1.47 0 00-1.465 1.465 1.47 1.47 0 001.465 1.465 1.47 1.47 0 001.465-1.465zm13 0a1.47 1.47 0 00-1.465-1.465 1.47 1.47 0 00-1.465 1.465 1.47 1.47 0 001.465 1.465 1.47 1.47 0 001.465-1.465zm0 0" fill-rule="evenodd" fill="#1c8f6b" fill-opacity=".3"/><path d="M357.465 237a1.47 1.47 0 00-1.465-1.465 1.47 1.47 0 00-1.465 1.465 1.47 1.47 0 001.465 1.465 1.47 1.47 0 001.465-1.465zm13 0a1.47 1.47 0 00-1.465-1.465 1.47 1.47 0 00-1.465 1.465 1.47 1.47 0 001.465 1.465 1.47 1.47 0 001.465-1.465zm14 0a1.47 1.47 0 00-1.465-1.465 1.47 1.47 0 00-1.465 1.465 1.47 1.47 0 001.465 1.465 1.47 1.47 0 001.465-1.465zm14 0a1.47 1.47 0 00-1.465-1.465 1.47 1.47 0 00-1.465 1.465 1.47 1.47 0 001.465 1.465 1.47 1.47 0 001.465-1.465zm14-1a1.47 1.47 0 00-1.465-1.465 1.47 1.47 0 00-1.465 1.465 1.47 1.47 0 001.465 1.465 1.47 1.47 0 001.465-1.465zm13 0a1.47 1.47 0 00-1.465-1.465 1.47 1.47 0 00-1.465 1.465 1.47 1.47 0 001.465 1.465 1.47 1.47 0 001.465-1.465zm0 0" fill-rule="evenodd" fill="#a54f05" fill-opacity=".3"/><path d="M42.465 239A1.47 1.47 0 0041 237.535 1.47 1.47 0 0039.535 239 1.47 1.47 0 0041 240.465 1.47 1.47 0 0042.465 239zm14 0A1.47 1.47 0 0055 237.535 1.47 1.47 0 0053.535 239 1.47 1.47 0 0055 240.465 1.47 1.47 0 0056.465 239zm13 0A1.47 1.47 0 0068 237.535 1.47 1.47 0 0066.535 239 1.47 1.47 0 0068 240.465 1.47 1.47 0 0069.465 239zm14 0A1.47 1.47 0 0082 237.535 1.47 1.47 0 0080.535 239 1.47 1.47 0 0082 240.465 1.47 1.47 0 0083.465 239zm14 0A1.47 1.47 0 0096 237.535 1.47 1.47 0 0094.535 239 1.47 1.47 0 0096 240.465 1.47 1.47 0 0097.465 239zm13-1a1.47 1.47 0 00-1.465-1.465 1.47 1.47 0 00-1.465 1.465 1.47 1.47 0 001.465 1.465 1.47 1.47 0 001.465-1.465zm14 0a1.47 1.47 0 00-1.465-1.465 1.47 1.47 0 00-1.465 1.465 1.47 1.47 0 001.465 1.465 1.47 1.47 0 001.465-1.465zm14 0a1.47 1.47 0 00-1.465-1.465 1.47 1.47 0 00-1.465 1.465 1.47 1.47 0 001.465 1.465 1.47 1.47 0 001.465-1.465zm13 0a1.47 1.47 0 00-1.465-1.465 1.47 1.47 0 00-1.465 1.465 1.47 1.47 0 001.465 1.465 1.47 1.47 0 001.465-1.465zm14-1a1.47 1.47 0 00-1.465-1.465 1.47 1.47 0 00-1.465 1.465 1.47 1.47 0 001.465 1.465 1.47 1.47 0 001.465-1.465zm14-1a1.47 1.47 0 00-1.465-1.465 1.47 1.47 0 00-1.465 1.465 1.47 1.47 0 001.465 1.465 1.47 1.47 0 001.465-1.465zm14 0a1.47 1.47 0 00-1.465-1.465 1.47 1.47 0 00-1.465 1.465 1.47 1.47 0 001.465 1.465 1.47 1.47 0 001.465-1.465zm13-2a1.47 1.47 0 00-1.465-1.465 1.47 1.47 0 00-1.465 1.465 1.47 1.47 0 001.465 1.465 1.47 1.47 0 001.465-1.465zm14-2a1.47 1.47 0 00-1.465-1.465 1.47 1.47 0 00-1.465 1.465 1.47 1.47 0 001.465 1.465 1.47 1.47 0 001.465-1.465zm14-4a1.47 1.47 0 00-1.465-1.465 1.47 1.47 0 00-1.465 1.465 1.47 1.47 0 001.465 1.465 1.47 1.47 0 001.465-1.465zm13-5a1.47 1.47 0 00-1.465-1.465 1.47 1.47 0 00-1.465 1.465 1.47 1.47 0 001.465 1.465 1.47 1.47 0 001.465-1.465zm14-9a1.47 1.47 0 00-1.465-1.465 1.47 1.47 0 00-1.465 1.465 1.47 1.47 0 001.465 1.465 1.47 1.47 0 001.465-1.465zm14-9a1.47 1.47 0 00-1.465-1.465 1.47 1.47 0 00-1.465 1.465 1.47 1.47 0 001.465 1.465 1.47 1.47 0 001.465-1.465zm13-9a1.47 1.47 0 00-1.465-1.465 1.47 1.47 0 00-1.465 1.465 1.47 1.47 0 001.465 1.465 1.47 1.47 0 001.465-1.465zm14-11a1.47 1.47 0 00-1.465-1.465 1.47 1.47 0 00-1.465 1.465 1.47 1.47 0 001.465 1.465 1.47 1.47 0 001.465-1.465zm14-12a1.47 1.47 0 00-1.465-1.465 1.47 1.47 0 00-1.465 1.465 1.47 1.47 0 001.465 1.465 1.47 1.47 0 001.465-1.465zm13-15a1.47 1.47 0 00-1.465-1.465 1.47 1.47 0 00-1.465 1.465 1.47 1.47 0 001.465 1.465 1.47 1.47 0 001.465-1.465zm14-15a1.47 1.47 0 00-1.465-1.465 1.47 1.47 0 00-1.465 1.465 1.47 1.47 0 001.465 1.465 1.47 1.47 0 001.465-1.465zm14-18a1.47 1.47 0 00-1.465-1.465 1.47 1.47 0 00-1.465 1.465 1.47 1.47 0 001.465 1.465 1.47 1.47 0 001.465-1.465zm0 0" fill-rule="evenodd" fill="#a60000"/><path d="M42.465 239A1.47 1.47 0 0041 237.535 1.47 1.47 0 0039.535 239 1.47 1.47 0 0041 240.465 1.47 1.47 0 0042.465 239zm14 0A1.47 1.47 0 0055 237.535 1.47 1.47 0 0053.535 239 1.47 1.47 0 0055 240.465 1.47 1.47 0 0056.465 239zm13 0A1.47 1.47 0 0068 237.535 1.47 1.47 0 0066.535 239 1.47 1.47 0 0068 240.465 1.47 1.47 0 0069.465 239zm14 0A1.47 1.47 0 0082 237.535 1.47 1.47 0 0080.535 239 1.47 1.47 0 0082 240.465 1.47 1.47 0 0083.465 239zm14 0A1.47 1.47 0 0096 237.535 1.47 1.47 0 0094.535 239 1.47 1.47 0 0096 240.465 1.47 1.47 0 0097.465 239zm13-1a1.47 1.47 0 00-1.465-1.465 1.47 1.47 0 00-1.465 1.465 1.47 1.47 0 001.465 1.465 1.47 1.47 0 001.465-1.465zm14 0a1.47 1.47 0 00-1.465-1.465 1.47 1.47 0 00-1.465 1.465 1.47 1.47 0 001.465 1.465 1.47 1.47 0 001.465-1.465zm14 0a1.47 1.47 0 00-1.465-1.465 1.47 1.47 0 00-1.465 1.465 1.47 1.47 0 001.465 1.465 1.47 1.47 0 001.465-1.465zm13 0a1.47 1.47 0 00-1.465-1.465 1.47 1.47 0 00-1.465 1.465 1.47 1.47 0 001.465 1.465 1.47 1.47 0 001.465-1.465zm14-1a1.47 1.47 0 00-1.465-1.465 1.47 1.47 0 00-1.465 1.465 1.47 1.47 0 001.465 1.465 1.47 1.47 0 001.465-1.465zm14 0a1.47 1.47 0 00-1.465-1.465 1.47 1.47 0 00-1.465 1.465 1.47 1.47 0 001.465 1.465 1.47 1.47 0 001.465-1.465zm14-1a1.47 1.47 0 00-1.465-1.465 1.47 1.47 0 00-1.465 1.465 1.47 1.47 0 001.465 1.465 1.47 1.47 0 001.465-1.465zm13 0a1.47 1.47 0 00-1.465-1.465 1.47 1.47 0 00-1.465 1.465 1.47 1.47 0 001.465 1.465 1.47 1.47 0 001.465-1.465zm14-1a1.47 1.47 0 00-1.465-1.465 1.47 1.47 0 00-1.465 1.465 1.47 1.47 0 001.465 1.465 1.47 1.47 0 001.465-1.465zm14-2a1.47 1.47 0 00-1.465-1.465 1.47 1.47 0 00-1.465 1.465 1.47 1.47 0 001.465 1.465 1.47 1.47 0 001.465-1.465zm13-2a1.47 1.47 0 00-1.465-1.465 1.47 1.47 0 00-1.465 1.465 1.47 1.47 0 001.465 1.465 1.47 1.47 0 001.465-1.465zm14-7a1.47 1.47 0 00-1.465-1.465 1.47 1.47 0 00-1.465 1.465 1.47 1.47 0 001.465 1.465 1.47 1.47 0 001.465-1.465zm14-5a1.47 1.47 0 00-1.465-1.465 1.47 1.47 0 00-1.465 1.465 1.47 1.47 0 001.465 1.465 1.47 1.47 0 001.465-1.465zm13-6a1.47 1.47 0 00-1.465-1.465 1.47 1.47 0 00-1.465 1.465 1.47 1.47 0 001.465 1.465 1.47 1.47 0 001.465-1.465zm14-7a1.47 1.47 0 00-1.465-1.465 1.47 1.47 0 00-1.465 1.465 1.47 1.47 0 001.465 1.465 1.47 1.47 0 001.465-1.465zm14-7a1.47 1.47 0 00-1.465-1.465 1.47 1.47 0 00-1.465 1.465 1.47 1.47 0 001.465 1.465 1.47 1.47 0 001.465-1.465zm13-11a1.47 1.47 0 00-1.465-1.465 1.47 1.47 0 00-1.465 1.465 1.47 1.47 0 001.465 1.465 1.47 1.47 0 001.465-1.465zm14-12a1.47 1.47 0 00-1.465-1.465 1.47 1.47 0 00-1.465 1.465 1.47 1.47 0 001.465 1.465 1.47 1.47 0 001.465-1.465zm14-13a1.47 1.47 0 00-1.465-1.465 1.47 1.47 0 00-1.465 1.465 1.47 1.47 0 001.465 1.465 1.47 1.47 0 001.465-1.465zm0 0" fill-rule="evenodd" fill="#0d86a0"/><path d="M42.465 239A1.47 1.47 0 0041 237.535 1.47 1.47 0 0039.535 239 1.47 1.47 0 0041 240.465 1.47 1.47 0 0042.465 239zm14 0A1.47 1.47 0 0055 237.535 1.47 1.47 0 0053.535 239 1.47 1.47 0 0055 240.465 1.47 1.47 0 0056.465 239zm13 0A1.47 1.47 0 0068 237.535 1.47 1.47 0 0066.535 239 1.47 1.47 0 0068 240.465 1.47 1.47 0 0069.465 239zm14 0A1.47 1.47 0 0082 237.535 1.47 1.47 0 0080.535 239 1.47 1.47 0 0082 240.465 1.47 1.47 0 0083.465 239zm14 0A1.47 1.47 0 0096 237.535 1.47 1.47 0 0094.535 239 1.47 1.47 0 0096 240.465 1.47 1.47 0 0097.465 239zm13 0a1.47 1.47 0 00-1.465-1.465 1.47 1.47 0 00-1.465 1.465 1.47 1.47 0 001.465 1.465 1.47 1.47 0 001.465-1.465zm14 0a1.47 1.47 0 00-1.465-1.465 1.47 1.47 0 00-1.465 1.465 1.47 1.47 0 001.465 1.465 1.47 1.47 0 001.465-1.465zm14 0a1.47 1.47 0 00-1.465-1.465 1.47 1.47 0 00-1.465 1.465 1.47 1.47 0 001.465 1.465 1.47 1.47 0 001.465-1.465zm13 0a1.47 1.47 0 00-1.465-1.465 1.47 1.47 0 00-1.465 1.465 1.47 1.47 0 001.465 1.465 1.47 1.47 0 001.465-1.465zm14 0a1.47 1.47 0 00-1.465-1.465 1.47 1.47 0 00-1.465 1.465 1.47 1.47 0 001.465 1.465 1.47 1.47 0 001.465-1.465zm14 0a1.47 1.47 0 00-1.465-1.465 1.47 1.47 0 00-1.465 1.465 1.47 1.47 0 001.465 1.465 1.47 1.47 0 001.465-1.465zm14 0a1.47 1.47 0 00-1.465-1.465 1.47 1.47 0 00-1.465 1.465 1.47 1.47 0 001.465 1.465 1.47 1.47 0 001.465-1.465zm13-1a1.47 1.47 0 00-1.465-1.465 1.47 1.47 0 00-1.465 1.465 1.47 1.47 0 001.465 1.465 1.47 1.47 0 001.465-1.465zm14 0a1.47 1.47 0 00-1.465-1.465 1.47 1.47 0 00-1.465 1.465 1.47 1.47 0 001.465 1.465 1.47 1.47 0 001.465-1.465zm14 0a1.47 1.47 0 00-1.465-1.465 1.47 1.47 0 00-1.465 1.465 1.47 1.47 0 001.465 1.465 1.47 1.47 0 001.465-1.465zm13 0a1.47 1.47 0 00-1.465-1.465 1.47 1.47 0 00-1.465 1.465 1.47 1.47 0 001.465 1.465 1.47 1.47 0 001.465-1.465zm14 0a1.47 1.47 0 00-1.465-1.465 1.47 1.47 0 00-1.465 1.465 1.47 1.47 0 001.465 1.465 1.47 1.47 0 001.465-1.465zm14-1a1.47 1.47 0 00-1.465-1.465 1.47 1.47 0 00-1.465 1.465 1.47 1.47 0 001.465 1.465 1.47 1.47 0 001.465-1.465zm13-1a1.47 1.47 0 00-1.465-1.465 1.47 1.47 0 00-1.465 1.465 1.47 1.47 0 001.465 1.465 1.47 1.47 0 001.465-1.465zm14 0a1.47 1.47 0 00-1.465-1.465 1.47 1.47 0 00-1.465 1.465 1.47 1.47 0 001.465 1.465 1.47 1.47 0 001.465-1.465zm14-1a1.47 1.47 0 00-1.465-1.465 1.47 1.47 0 00-1.465 1.465 1.47 1.47 0 001.465 1.465 1.47 1.47 0 001.465-1.465zm13 0a1.47 1.47 0 00-1.465-1.465 1.47 1.47 0 00-1.465 1.465 1.47 1.47 0 001.465 1.465 1.47 1.47 0 001.465-1.465zm14 0a1.47 1.47 0 00-1.465-1.465 1.47 1.47 0 00-1.465 1.465 1.47 1.47 0 001.465 1.465 1.47 1.47 0 001.465-1.465zm14-1a1.47 1.47 0 00-1.465-1.465 1.47 1.47 0 00-1.465 1.465 1.47 1.47 0 001.465 1.465 1.47 1.47 0 001.465-1.465zm0 0" fill-rule="evenodd" fill="#c05c20"/><path d="M42.465 239A1.47 1.47 0 0041 237.535 1.47 1.47 0 0039.535 239 1.47 1.47 0 0041 240.465 1.47 1.47 0 0042.465 239zm14 0A1.47 1.47 0 0055 237.535 1.47 1.47 0 0053.535 239 1.47 1.47 0 0055 240.465 1.47 1.47 0 0056.465 239zm13 0A1.47 1.47 0 0068 237.535 1.47 1.47 0 0066.535 239 1.47 1.47 0 0068 240.465 1.47 1.47 0 0069.465 239zm14 0A1.47 1.47 0 0082 237.535 1.47 1.47 0 0080.535 239 1.47 1.47 0 0082 240.465 1.47 1.47 0 0083.465 239zm14 0A1.47 1.47 0 0096 237.535 1.47 1.47 0 0094.535 239 1.47 1.47 0 0096 240.465 1.47 1.47 0 0097.465 239zm13 0a1.47 1.47 0 00-1.465-1.465 1.47 1.47 0 00-1.465 1.465 1.47 1.47 0 001.465 1.465 1.47 1.47 0 001.465-1.465zm14 0a1.47 1.47 0 00-1.465-1.465 1.47 1.47 0 00-1.465 1.465 1.47 1.47 0 001.465 1.465 1.47 1.47 0 001.465-1.465zm14 0a1.47 1.47 0 00-1.465-1.465 1.47 1.47 0 00-1.465 1.465 1.47 1.47 0 001.465 1.465 1.47 1.47 0 001.465-1.465zm13 0a1.47 1.47 0 00-1.465-1.465 1.47 1.47 0 00-1.465 1.465 1.47 1.47 0 001.465 1.465 1.47 1.47 0 001.465-1.465zm14 0a1.47 1.47 0 00-1.465-1.465 1.47 1.47 0 00-1.465 1.465 1.47 1.47 0 001.465 1.465 1.47 1.47 0 001.465-1.465zm14 0a1.47 1.47 0 00-1.465-1.465 1.47 1.47 0 00-1.465 1.465 1.47 1.47 0 001.465 1.465 1.47 1.47 0 001.465-1.465zm14 0a1.47 1.47 0 00-1.465-1.465 1.47 1.47 0 00-1.465 1.465 1.47 1.47 0 001.465 1.465 1.47 1.47 0 001.465-1.465zm13-1a1.47 1.47 0 00-1.465-1.465 1.47 1.47 0 00-1.465 1.465 1.47 1.47 0 001.465 1.465 1.47 1.47 0 001.465-1.465zm14 0a1.47 1.47 0 00-1.465-1.465 1.47 1.47 0 00-1.465 1.465 1.47 1.47 0 001.465 1.465 1.47 1.47 0 001.465-1.465zm14 0a1.47 1.47 0 00-1.465-1.465 1.47 1.47 0 00-1.465 1.465 1.47 1.47 0 001.465 1.465 1.47 1.47 0 001.465-1.465zm13 0a1.47 1.47 0 00-1.465-1.465 1.47 1.47 0 00-1.465 1.465 1.47 1.47 0 001.465 1.465 1.47 1.47 0 001.465-1.465zm14 0a1.47 1.47 0 00-1.465-1.465 1.47 1.47 0 00-1.465 1.465 1.47 1.47 0 001.465 1.465 1.47 1.47 0 001.465-1.465zm14-1a1.47 1.47 0 00-1.465-1.465 1.47 1.47 0 00-1.465 1.465 1.47 1.47 0 001.465 1.465 1.47 1.47 0 001.465-1.465zm13 0a1.47 1.47 0 00-1.465-1.465 1.47 1.47 0 00-1.465 1.465 1.47 1.47 0 001.465 1.465 1.47 1.47 0 001.465-1.465zm14 0a1.47 1.47 0 00-1.465-1.465 1.47 1.47 0 00-1.465 1.465 1.47 1.47 0 001.465 1.465 1.47 1.47 0 001.465-1.465zm14-1a1.47 1.47 0 00-1.465-1.465 1.47 1.47 0 00-1.465 1.465 1.47 1.47 0 001.465 1.465 1.47 1.47 0 001.465-1.465zm13-1a1.47 1.47 0 00-1.465-1.465 1.47 1.47 0 00-1.465 1.465 1.47 1.47 0 001.465 1.465 1.47 1.47 0 001.465-1.465zm14 0a1.47 1.47 0 00-1.465-1.465 1.47 1.47 0 00-1.465 1.465 1.47 1.47 0 001.465 1.465 1.47 1.47 0 001.465-1.465zm14-1a1.47 1.47 0 00-1.465-1.465 1.47 1.47 0 00-1.465 1.465 1.47 1.47 0 001.465 1.465 1.47 1.47 0 001.465-1.465zm0 0" fill-rule="evenodd" fill="#6f42b5"/><path d="M42.465 239A1.47 1.47 0 0041 237.535 1.47 1.47 0 0039.535 239 1.47 1.47 0 0041 240.465 1.47 1.47 0 0042.465 239zm14 0A1.47 1.47 0 0055 237.535 1.47 1.47 0 0053.535 239 1.47 1.47 0 0055 240.465 1.47 1.47 0 0056.465 239zm13 0A1.47 1.47 0 0068 237.535 1.47 1.47 0 0066.535 239 1.47 1.47 0 0068 240.465 1.47 1.47 0 0069.465 239zm14 0A1.47 1.47 0 0082 237.535 1.47 1.47 0 0080.535 239 1.47 1.47 0 0082 240.465 1.47 1.47 0 0083.465 239zm14 0A1.47 1.47 0 0096 237.535 1.47 1.47 0 0094.535 239 1.47 1.47 0 0096 240.465 1.47 1.47 0 0097.465 239zm13 0a1.47 1.47 0 00-1.465-1.465 1.47 1.47 0 00-1.465 1.465 1.47 1.47 0 001.465 1.465 1.47 1.47 0 001.465-1.465zm14 0a1.47 1.47 0 00-1.465-1.465 1.47 1.47 0 00-1.465 1.465 1.47 1.47 0 001.465 1.465 1.47 1.47 0 001.465-1.465zm14 0a1.47 1.47 0 00-1.465-1.465 1.47 1.47 0 00-1.465 1.465 1.47 1.47 0 001.465 1.465 1.47 1.47 0 001.465-1.465zm13 0a1.47 1.47 0 00-1.465-1.465 1.47 1.47 0 00-1.465 1.465 1.47 1.47 0 001.465 1.465 1.47 1.47 0 001.465-1.465zm14 0a1.47 1.47 0 00-1.465-1.465 1.47 1.47 0 00-1.465 1.465 1.47 1.47 0 001.465 1.465 1.47 1.47 0 001.465-1.465zm14 0a1.47 1.47 0 00-1.465-1.465 1.47 1.47 0 00-1.465 1.465 1.47 1.47 0 001.465 1.465 1.47 1.47 0 001.465-1.465zm14 0a1.47 1.47 0 00-1.465-1.465 1.47 1.47 0 00-1.465 1.465 1.47 1.47 0 001.465 1.465 1.47 1.47 0 001.465-1.465zm13 0a1.47 1.47 0 00-1.465-1.465 1.47 1.47 0 00-1.465 1.465 1.47 1.47 0 001.465 1.465 1.47 1.47 0 001.465-1.465zm14 0a1.47 1.47 0 00-1.465-1.465 1.47 1.47 0 00-1.465 1.465 1.47 1.47 0 001.465 1.465 1.47 1.47 0 001.465-1.465zm14-1a1.47 1.47 0 00-1.465-1.465 1.47 1.47 0 00-1.465 1.465 1.47 1.47 0 001.465 1.465 1.47 1.47 0 001.465-1.465zm13 0a1.47 1.47 0 00-1.465-1.465 1.47 1.47 0 00-1.465 1.465 1.47 1.47 0 001.465 1.465 1.47 1.47 0 001.465-1.465zm14 0a1.47 1.47 0 00-1.465-1.465 1.47 1.47 0 00-1.465 1.465 1.47 1.47 0 001.465 1.465 1.47 1.47 0 001.465-1.465zm14 0a1.47 1.47 0 00-1.465-1.465 1.47 1.47 0 00-1.465 1.465 1.47 1.47 0 001.465 1.465 1.47 1.47 0 001.465-1.465zm13-1a1.47 1.47 0 00-1.465-1.465 1.47 1.47 0 00-1.465 1.465 1.47 1.47 0 001.465 1.465 1.47 1.47 0 001.465-1.465zm14 0a1.47 1.47 0 00-1.465-1.465 1.47 1.47 0 00-1.465 1.465 1.47 1.47 0 001.465 1.465 1.47 1.47 0 001.465-1.465zm14-1a1.47 1.47 0 00-1.465-1.465 1.47 1.47 0 00-1.465 1.465 1.47 1.47 0 001.465 1.465 1.47 1.47 0 001.465-1.465zm13 0a1.47 1.47 0 00-1.465-1.465 1.47 1.47 0 00-1.465 1.465 1.47 1.47 0 001.465 1.465 1.47 1.47 0 001.465-1.465zm14 0a1.47 1.47 0 00-1.465-1.465 1.47 1.47 0 00-1.465 1.465 1.47 1.47 0 001.465 1.465 1.47 1.47 0 001.465-1.465zm14-1a1.47 1.47 0 00-1.465-1.465 1.47 1.47 0 00-1.465 1.465 1.47 1.47 0 001.465 1.465 1.47 1.47 0 001.465-1.465zm0 0" fill-rule="evenodd" fill="#769003"/><path d="M42.465 239A1.47 1.47 0 0041 237.535 1.47 1.47 0 0039.535 239 1.47 1.47 0 0041 240.465 1.47 1.47 0 0042.465 239zm14 0A1.47 1.47 0 0055 237.535 1.47 1.47 0 0053.535 239 1.47 1.47 0 0055 240.465 1.47 1.47 0 0056.465 239zm13 0A1.47 1.47 0 0068 237.535 1.47 1.47 0 0066.535 239 1.47 1.47 0 0068 240.465 1.47 1.47 0 0069.465 239zm14 0A1.47 1.47 0 0082 237.535 1.47 1.47 0 0080.535 239 1.47 1.47 0 0082 240.465 1.47 1.47 0 0083.465 239zm14 0A1.47 1.47 0 0096 237.535 1.47 1.47 0 0094.535 239 1.47 1.47 0 0096 240.465 1.47 1.47 0 0097.465 239zm13 0a1.47 1.47 0 00-1.465-1.465 1.47 1.47 0 00-1.465 1.465 1.47 1.47 0 001.465 1.465 1.47 1.47 0 001.465-1.465zm14 0a1.47 1.47 0 00-1.465-1.465 1.47 1.47 0 00-1.465 1.465 1.47 1.47 0 001.465 1.465 1.47 1.47 0 001.465-1.465zm14 0a1.47 1.47 0 00-1.465-1.465 1.47 1.47 0 00-1.465 1.465 1.47 1.47 0 001.465 1.465 1.47 1.47 0 001.465-1.465zm13 0a1.47 1.47 0 00-1.465-1.465 1.47 1.47 0 00-1.465 1.465 1.47 1.47 0 001.465 1.465 1.47 1.47 0 001.465-1.465zm14 0a1.47 1.47 0 00-1.465-1.465 1.47 1.47 0 00-1.465 1.465 1.47 1.47 0 001.465 1.465 1.47 1.47 0 001.465-1.465zm14 0a1.47 1.47 0 00-1.465-1.465 1.47 1.47 0 00-1.465 1.465 1.47 1.47 0 001.465 1.465 1.47 1.47 0 001.465-1.465zm14 0a1.47 1.47 0 00-1.465-1.465 1.47 1.47 0 00-1.465 1.465 1.47 1.47 0 001.465 1.465 1.47 1.47 0 001.465-1.465zm13 0a1.47 1.47 0 00-1.465-1.465 1.47 1.47 0 00-1.465 1.465 1.47 1.47 0 001.465 1.465 1.47 1.47 0 001.465-1.465zm14-1a1.47 1.47 0 00-1.465-1.465 1.47 1.47 0 00-1.465 1.465 1.47 1.47 0 001.465 1.465 1.47 1.47 0 001.465-1.465zm14 0a1.47 1.47 0 00-1.465-1.465 1.47 1.47 0 00-1.465 1.465 1.47 1.47 0 001.465 1.465 1.47 1.47 0 001.465-1.465zm13 0a1.47 1.47 0 00-1.465-1.465 1.47 1.47 0 00-1.465 1.465 1.47 1.47 0 001.465 1.465 1.47 1.47 0 001.465-1.465zm14 0a1.47 1.47 0 00-1.465-1.465 1.47 1.47 0 00-1.465 1.465 1.47 1.47 0 001.465 1.465 1.47 1.47 0 001.465-1.465zm14-1a1.47 1.47 0 00-1.465-1.465 1.47 1.47 0 00-1.465 1.465 1.47 1.47 0 001.465 1.465 1.47 1.47 0 001.465-1.465zm13 0a1.47 1.47 0 00-1.465-1.465 1.47 1.47 0 00-1.465 1.465 1.47 1.47 0 001.465 1.465 1.47 1.47 0 001.465-1.465zm14 0a1.47 1.47 0 00-1.465-1.465 1.47 1.47 0 00-1.465 1.465 1.47 1.47 0 001.465 1.465 1.47 1.47 0 001.465-1.465zm14 0a1.47 1.47 0 00-1.465-1.465 1.47 1.47 0 00-1.465 1.465 1.47 1.47 0 001.465 1.465 1.47 1.47 0 001.465-1.465zm13-1a1.47 1.47 0 00-1.465-1.465 1.47 1.47 0 00-1.465 1.465 1.47 1.47 0 001.465 1.465 1.47 1.47 0 001.465-1.465zm14 0a1.47 1.47 0 00-1.465-1.465 1.47 1.47 0 00-1.465 1.465 1.47 1.47 0 001.465 1.465 1.47 1.47 0 001.465-1.465zm14-1a1.47 1.47 0 00-1.465-1.465 1.47 1.47 0 00-1.465 1.465 1.47 1.47 0 001.465 1.465 1.47 1.47 0 001.465-1.465zm0 0" fill-rule="evenodd" fill="#a8364d"/><path d="M42.465 239A1.47 1.47 0 0041 237.535 1.47 1.47 0 0039.535 239 1.47 1.47 0 0041 240.465 1.47 1.47 0 0042.465 239zm14 0A1.47 1.47 0 0055 237.535 1.47 1.47 0 0053.535 239 1.47 1.47 0 0055 240.465 1.47 1.47 0 0056.465 239zm13 0A1.47 1.47 0 0068 237.535 1.47 1.47 0 0066.535 239 1.47 1.47 0 0068 240.465 1.47 1.47 0 0069.465 239zm14 0A1.47 1.47 0 0082 237.535 1.47 1.47 0 0080.535 239 1.47 1.47 0 0082 240.465 1.47 1.47 0 0083.465 239zm14 0A1.47 1.47 0 0096 237.535 1.47 1.47 0 0094.535 239 1.47 1.47 0 0096 240.465 1.47 1.47 0 0097.465 239zm13 0a1.47 1.47 0 00-1.465-1.465 1.47 1.47 0 00-1.465 1.465 1.47 1.47 0 001.465 1.465 1.47 1.47 0 001.465-1.465zm14 0a1.47 1.47 0 00-1.465-1.465 1.47 1.47 0 00-1.465 1.465 1.47 1.47 0 001.465 1.465 1.47 1.47 0 001.465-1.465zm14 0a1.47 1.47 0 00-1.465-1.465 1.47 1.47 0 00-1.465 1.465 1.47 1.47 0 001.465 1.465 1.47 1.47 0 001.465-1.465zm13 0a1.47 1.47 0 00-1.465-1.465 1.47 1.47 0 00-1.465 1.465 1.47 1.47 0 001.465 1.465 1.47 1.47 0 001.465-1.465zm14 0a1.47 1.47 0 00-1.465-1.465 1.47 1.47 0 00-1.465 1.465 1.47 1.47 0 001.465 1.465 1.47 1.47 0 001.465-1.465zm14 0a1.47 1.47 0 00-1.465-1.465 1.47 1.47 0 00-1.465 1.465 1.47 1.47 0 001.465 1.465 1.47 1.47 0 001.465-1.465zm14 0a1.47 1.47 0 00-1.465-1.465 1.47 1.47 0 00-1.465 1.465 1.47 1.47 0 001.465 1.465 1.47 1.47 0 001.465-1.465zm13 0a1.47 1.47 0 00-1.465-1.465 1.47 1.47 0 00-1.465 1.465 1.47 1.47 0 001.465 1.465 1.47 1.47 0 001.465-1.465zm14 0a1.47 1.47 0 00-1.465-1.465 1.47 1.47 0 00-1.465 1.465 1.47 1.47 0 001.465 1.465 1.47 1.47 0 001.465-1.465zm14-1a1.47 1.47 0 00-1.465-1.465 1.47 1.47 0 00-1.465 1.465 1.47 1.47 0 001.465 1.465 1.47 1.47 0 001.465-1.465zm13 0a1.47 1.47 0 00-1.465-1.465 1.47 1.47 0 00-1.465 1.465 1.47 1.47 0 001.465 1.465 1.47 1.47 0 001.465-1.465zm14 0a1.47 1.47 0 00-1.465-1.465 1.47 1.47 0 00-1.465 1.465 1.47 1.47 0 001.465 1.465 1.47 1.47 0 001.465-1.465zm14 0a1.47 1.47 0 00-1.465-1.465 1.47 1.47 0 00-1.465 1.465 1.47 1.47 0 001.465 1.465 1.47 1.47 0 001.465-1.465zm13 0a1.47 1.47 0 00-1.465-1.465 1.47 1.47 0 00-1.465 1.465 1.47 1.47 0 001.465 1.465 1.47 1.47 0 001.465-1.465zm14-1a1.47 1.47 0 00-1.465-1.465 1.47 1.47 0 00-1.465 1.465 1.47 1.47 0 001.465 1.465 1.47 1.47 0 001.465-1.465zm14 0a1.47 1.47 0 00-1.465-1.465 1.47 1.47 0 00-1.465 1.465 1.47 1.47 0 001.465 1.465 1.47 1.47 0 001.465-1.465zm13 0a1.47 1.47 0 00-1.465-1.465 1.47 1.47 0 00-1.465 1.465 1.47 1.47 0 001.465 1.465 1.47 1.47 0 001.465-1.465zm14-1a1.47 1.47 0 00-1.465-1.465 1.47 1.47 0 00-1.465 1.465 1.47 1.47 0 001.465 1.465 1.47 1.47 0 001.465-1.465zm14 0a1.47 1.47 0 00-1.465-1.465 1.47 1.47 0 00-1.465 1.465 1.47 1.47 0 001.465 1.465 1.47 1.47 0 001.465-1.465zm0 0" fill-rule="evenodd" fill="#3664cc"/><path d="M42.465 239A1.47 1.47 0 0041 237.535 1.47 1.47 0 0039.535 239 1.47 1.47 0 0041 240.465 1.47 1.47 0 0042.465 239zm14 0A1.47 1.47 0 0055 237.535 1.47 1.47 0 0053.535 239 1.47 1.47 0 0055 240.465 1.47 1.47 0 0056.465 239zm13 0A1.47 1.47 0 0068 237.535 1.47 1.47 0 0066.535 239 1.47 1.47 0 0068 240.465 1.47 1.47 0 0069.465 239zm14 0A1.47 1.47 0 0082 237.535 1.47 1.47 0 0080.535 239 1.47 1.47 0 0082 240.465 1.47 1.47 0 0083.465 239zm14 0A1.47 1.47 0 0096 237.535 1.47 1.47 0 0094.535 239 1.47 1.47 0 0096 240.465 1.47 1.47 0 0097.465 239zm13 0a1.47 1.47 0 00-1.465-1.465 1.47 1.47 0 00-1.465 1.465 1.47 1.47 0 001.465 1.465 1.47 1.47 0 001.465-1.465zm14 0a1.47 1.47 0 00-1.465-1.465 1.47 1.47 0 00-1.465 1.465 1.47 1.47 0 001.465 1.465 1.47 1.47 0 001.465-1.465zm14 0a1.47 1.47 0 00-1.465-1.465 1.47 1.47 0 00-1.465 1.465 1.47 1.47 0 001.465 1.465 1.47 1.47 0 001.465-1.465zm13 0a1.47 1.47 0 00-1.465-1.465 1.47 1.47 0 00-1.465 1.465 1.47 1.47 0 001.465 1.465 1.47 1.47 0 001.465-1.465zm14 0a1.47 1.47 0 00-1.465-1.465 1.47 1.47 0 00-1.465 1.465 1.47 1.47 0 001.465 1.465 1.47 1.47 0 001.465-1.465zm14 0a1.47 1.47 0 00-1.465-1.465 1.47 1.47 0 00-1.465 1.465 1.47 1.47 0 001.465 1.465 1.47 1.47 0 001.465-1.465zm14 0a1.47 1.47 0 00-1.465-1.465 1.47 1.47 0 00-1.465 1.465 1.47 1.47 0 001.465 1.465 1.47 1.47 0 001.465-1.465zm13 0a1.47 1.47 0 00-1.465-1.465 1.47 1.47 0 00-1.465 1.465 1.47 1.47 0 001.465 1.465 1.47 1.47 0 001.465-1.465zm14 0a1.47 1.47 0 00-1.465-1.465 1.47 1.47 0 00-1.465 1.465 1.47 1.47 0 001.465 1.465 1.47 1.47 0 001.465-1.465zm14 0a1.47 1.47 0 00-1.465-1.465 1.47 1.47 0 00-1.465 1.465 1.47 1.47 0 001.465 1.465 1.47 1.47 0 001.465-1.465zm13-1a1.47 1.47 0 00-1.465-1.465 1.47 1.47 0 00-1.465 1.465 1.47 1.47 0 001.465 1.465 1.47 1.47 0 001.465-1.465zm14 0a1.47 1.47 0 00-1.465-1.465 1.47 1.47 0 00-1.465 1.465 1.47 1.47 0 001.465 1.465 1.47 1.47 0 001.465-1.465zm14 0a1.47 1.47 0 00-1.465-1.465 1.47 1.47 0 00-1.465 1.465 1.47 1.47 0 001.465 1.465 1.47 1.47 0 001.465-1.465zm13 0a1.47 1.47 0 00-1.465-1.465 1.47 1.47 0 00-1.465 1.465 1.47 1.47 0 001.465 1.465 1.47 1.47 0 001.465-1.465zm14-1a1.47 1.47 0 00-1.465-1.465 1.47 1.47 0 00-1.465 1.465 1.47 1.47 0 001.465 1.465 1.47 1.47 0 001.465-1.465zm14 0a1.47 1.47 0 00-1.465-1.465 1.47 1.47 0 00-1.465 1.465 1.47 1.47 0 001.465 1.465 1.47 1.47 0 001.465-1.465zm13 0a1.47 1.47 0 00-1.465-1.465 1.47 1.47 0 00-1.465 1.465 1.47 1.47 0 001.465 1.465 1.47 1.47 0 001.465-1.465zm14 0a1.47 1.47 0 00-1.465-1.465 1.47 1.47 0 00-1.465 1.465 1.47 1.47 0 001.465 1.465 1.47 1.47 0 001.465-1.465zm14-1a1.47 1.47 0 00-1.465-1.465 1.47 1.47 0 00-1.465 1.465 1.47 1.47 0 001.465 1.465 1.47 1.47 0 001.465-1.465zm0 0" fill-rule="evenodd" fill="#c8860a"/><path d="M42.465 239A1.47 1.47 0 0041 237.535 1.47 1.47 0 0039.535 239 1.47 1.47 0 0041 240.465 1.47 1.47 0 0042.465 239zm14 0A1.47 1.47 0 0055 237.535 1.47 1.47 0 0053.535 239 1.47 1.47 0 0055 240.465 1.47 1.47 0 0056.465 239zm13 0A1.47 1.47 0 0068 237.535 1.47 1.47 0 0066.535 239 1.47 1.47 0 0068 240.465 1.47 1.47 0 0069.465 239zm14 0A1.47 1.47 0 0082 237.535 1.47 1.47 0 0080.535 239 1.47 1.47 0 0082 240.465 1.47 1.47 0 0083.465 239zm14 0A1.47 1.47 0 0096 237.535 1.47 1.47 0 0094.535 239 1.47 1.47 0 0096 240.465 1.47 1.47 0 0097.465 239zm13 0a1.47 1.47 0 00-1.465-1.465 1.47 1.47 0 00-1.465 1.465 1.47 1.47 0 001.465 1.465 1.47 1.47 0 001.465-1.465zm14 0a1.47 1.47 0 00-1.465-1.465 1.47 1.47 0 00-1.465 1.465 1.47 1.47 0 001.465 1.465 1.47 1.47 0 001.465-1.465zm14 0a1.47 1.47 0 00-1.465-1.465 1.47 1.47 0 00-1.465 1.465 1.47 1.47 0 001.465 1.465 1.47 1.47 0 001.465-1.465zm13 0a1.47 1.47 0 00-1.465-1.465 1.47 1.47 0 00-1.465 1.465 1.47 1.47 0 001.465 1.465 1.47 1.47 0 001.465-1.465zm14 0a1.47 1.47 0 00-1.465-1.465 1.47 1.47 0 00-1.465 1.465 1.47 1.47 0 001.465 1.465 1.47 1.47 0 001.465-1.465zm14 0a1.47 1.47 0 00-1.465-1.465 1.47 1.47 0 00-1.465 1.465 1.47 1.47 0 001.465 1.465 1.47 1.47 0 001.465-1.465zm14 0a1.47 1.47 0 00-1.465-1.465 1.47 1.47 0 00-1.465 1.465 1.47 1.47 0 001.465 1.465 1.47 1.47 0 001.465-1.465zm13 0a1.47 1.47 0 00-1.465-1.465 1.47 1.47 0 00-1.465 1.465 1.47 1.47 0 001.465 1.465 1.47 1.47 0 001.465-1.465zm14-1a1.47 1.47 0 00-1.465-1.465 1.47 1.47 0 00-1.465 1.465 1.47 1.47 0 001.465 1.465 1.47 1.47 0 001.465-1.465zm14 0a1.47 1.47 0 00-1.465-1.465 1.47 1.47 0 00-1.465 1.465 1.47 1.47 0 001.465 1.465 1.47 1.47 0 001.465-1.465zm13 0a1.47 1.47 0 00-1.465-1.465 1.47 1.47 0 00-1.465 1.465 1.47 1.47 0 001.465 1.465 1.47 1.47 0 001.465-1.465zm14 0a1.47 1.47 0 00-1.465-1.465 1.47 1.47 0 00-1.465 1.465 1.47 1.47 0 001.465 1.465 1.47 1.47 0 001.465-1.465zm14 0a1.47 1.47 0 00-1.465-1.465 1.47 1.47 0 00-1.465 1.465 1.47 1.47 0 001.465 1.465 1.47 1.47 0 001.465-1.465zm13 0a1.47 1.47 0 00-1.465-1.465 1.47 1.47 0 00-1.465 1.465 1.47 1.47 0 001.465 1.465 1.47 1.47 0 001.465-1.465zm14 0a1.47 1.47 0 00-1.465-1.465 1.47 1.47 0 00-1.465 1.465 1.47 1.47 0 001.465 1.465 1.47 1.47 0 001.465-1.465zm14-1a1.47 1.47 0 00-1.465-1.465 1.47 1.47 0 00-1.465 1.465 1.47 1.47 0 001.465 1.465 1.47 1.47 0 001.465-1.465zm13 0a1.47 1.47 0 00-1.465-1.465 1.47 1.47 0 00-1.465 1.465 1.47 1.47 0 001.465 1.465 1.47 1.47 0 001.465-1.465zm14 0a1.47 1.47 0 00-1.465-1.465 1.47 1.47 0 00-1.465 1.465 1.47 1.47 0 001.465 1.465 1.47 1.47 0 001.465-1.465zm14 0a1.47 1.47 0 00-1.465-1.465 1.47 1.47 0 00-1.465 1.465 1.47 1.47 0 001.465 1.465 1.47 1.47 0 001.465-1.465zm0 0" fill-rule="evenodd" fill="#833987"/><path d="M42.465 239A1.47 1.47 0 0041 237.535 1.47 1.47 0 0039.535 239 1.47 1.47 0 0041 240.465 1.47 1.47 0 0042.465 239zm14 0A1.47 1.47 0 0055 237.535 1.47 1.47 0 0053.535 239 1.47 1.47 0 0055 240.465 1.47 1.47 0 0056.465 239zm13 0A1.47 1.47 0 0068 237.535 1.47 1.47 0 0066.535 239 1.47 1.47 0 0068 240.465 1.47 1.47 0 0069.465 239zm14 0A1.47 1.47 0 0082 237.535 1.47 1.47 0 0080.535 239 1.47 1.47 0 0082 240.465 1.47 1.47 0 0083.465 239zm14 0A1.47 1.47 0 0096 237.535 1.47 1.47 0 0094.535 239 1.47 1.47 0 0096 240.465 1.47 1.47 0 0097.465 239zm13 0a1.47 1.47 0 00-1.465-1.465 1.47 1.47 0 00-1.465 1.465 1.47 1.47 0 001.465 1.465 1.47 1.47 0 001.465-1.465zm14 0a1.47 1.47 0 00-1.465-1.465 1.47 1.47 0 00-1.465 1.465 1.47 1.47 0 001.465 1.465 1.47 1.47 0 001.465-1.465zm14 0a1.47 1.47 0 00-1.465-1.465 1.47 1.47 0 00-1.465 1.465 1.47 1.47 0 001.465 1.465 1.47 1.47 0 001.465-1.465zm13 0a1.47 1.47 0 00-1.465-1.465 1.47 1.47 0 00-1.465 1.465 1.47 1.47 0 001.465 1.465 1.47 1.47 0 001.465-1.465zm14 0a1.47 1.47 0 00-1.465-1.465 1.47 1.47 0 00-1.465 1.465 1.47 1.47 0 001.465 1.465 1.47 1.47 0 001.465-1.465zm14 0a1.47 1.47 0 00-1.465-1.465 1.47 1.47 0 00-1.465 1.465 1.47 1.47 0 001.465 1.465 1.47 1.47 0 001.465-1.465zm14 0a1.47 1.47 0 00-1.465-1.465 1.47 1.47 0 00-1.465 1.465 1.47 1.47 0 001.465 1.465 1.47 1.47 0 001.465-1.465zm13 0a1.47 1.47 0 00-1.465-1.465 1.47 1.47 0 00-1.465 1.465 1.47 1.47 0 001.465 1.465 1.47 1.47 0 001.465-1.465zm14 0a1.47 1.47 0 00-1.465-1.465 1.47 1.47 0 00-1.465 1.465 1.47 1.47 0 001.465 1.465 1.47 1.47 0 001.465-1.465zm14 0a1.47 1.47 0 00-1.465-1.465 1.47 1.47 0 00-1.465 1.465 1.47 1.47 0 001.465 1.465 1.47 1.47 0 001.465-1.465zm13-1a1.47 1.47 0 00-1.465-1.465 1.47 1.47 0 00-1.465 1.465 1.47 1.47 0 001.465 1.465 1.47 1.47 0 001.465-1.465zm14 0a1.47 1.47 0 00-1.465-1.465 1.47 1.47 0 00-1.465 1.465 1.47 1.47 0 001.465 1.465 1.47 1.47 0 001.465-1.465zm14 0a1.47 1.47 0 00-1.465-1.465 1.47 1.47 0 00-1.465 1.465 1.47 1.47 0 001.465 1.465 1.47 1.47 0 001.465-1.465zm13 0a1.47 1.47 0 00-1.465-1.465 1.47 1.47 0 00-1.465 1.465 1.47 1.47 0 001.465 1.465 1.47 1.47 0 001.465-1.465zm14 0a1.47 1.47 0 00-1.465-1.465 1.47 1.47 0 00-1.465 1.465 1.47 1.47 0 001.465 1.465 1.47 1.47 0 001.465-1.465zm14 0a1.47 1.47 0 00-1.465-1.465 1.47 1.47 0 00-1.465 1.465 1.47 1.47 0 001.465 1.465 1.47 1.47 0 001.465-1.465zm13-1a1.47 1.47 0 00-1.465-1.465 1.47 1.47 0 00-1.465 1.465 1.47 1.47 0 001.465 1.465 1.47 1.47 0 001.465-1.465zm14 0a1.47 1.47 0 00-1.465-1.465 1.47 1.47 0 00-1.465 1.465 1.47 1.47 0 001.465 1.465 1.47 1.47 0 001.465-1.465zm14 0a1.47 1.47 0 00-1.465-1.465 1.47 1.47 0 00-1.465 1.465 1.47 1.47 0 001.465 1.465 1.47 1.47 0 001.465-1.465zm0 0" fill-rule="evenodd" fill="#1c8f6b"/><path d="M42.465 239A1.47 1.47 0 0041 237.535 1.47 1.47 0 0039.535 239 1.47 1.47 0 0041 240.465 1.47 1.47 0 0042.465 239zm14 0A1.47 1.47 0 0055 237.535 1.47 1.47 0 0053.535 239 1.47 1.47 0 0055 240.465 1.47 1.47 0 0056.465 239zm13 0A1.47 1.47 0 0068 237.535 1.47 1.47 0 0066.535 239 1.47 1.47 0 0068 240.465 1.47 1.47 0 0069.465 239zm14 0A1.47 1.47 0 0082 237.535 1.47 1.47 0 0080.535 239 1.47 1.47 0 0082 240.465 1.47 1.47 0 0083.465 239zm14 0A1.47 1.47 0 0096 237.535 1.47 1.47 0 0094.535 239 1.47 1.47 0 0096 240.465 1.47 1.47 0 0097.465 239zm13 0a1.47 1.47 0 00-1.465-1.465 1.47 1.47 0 00-1.465 1.465 1.47 1.47 0 001.465 1.465 1.47 1.47 0 001.465-1.465zm14 0a1.47 1.47 0 00-1.465-1.465 1.47 1.47 0 00-1.465 1.465 1.47 1.47 0 001.465 1.465 1.47 1.47 0 001.465-1.465zm14 0a1.47 1.47 0 00-1.465-1.465 1.47 1.47 0 00-1.465 1.465 1.47 1.47 0 001.465 1.465 1.47 1.47 0 001.465-1.465zm13 0a1.47 1.47 0 00-1.465-1.465 1.47 1.47 0 00-1.465 1.465 1.47 1.47 0 001.465 1.465 1.47 1.47 0 001.465-1.465zm14 0a1.47 1.47 0 00-1.465-1.465 1.47 1.47 0 00-1.465 1.465 1.47 1.47 0 001.465 1.465 1.47 1.47 0 001.465-1.465zm14 0a1.47 1.47 0 00-1.465-1.465 1.47 1.47 0 00-1.465 1.465 1.47 1.47 0 001.465 1.465 1.47 1.47 0 001.465-1.465zm14 0a1.47 1.47 0 00-1.465-1.465 1.47 1.47 0 00-1.465 1.465 1.47 1.47 0 001.465 1.465 1.47 1.47 0 001.465-1.465zm13 0a1.47 1.47 0 00-1.465-1.465 1.47 1.47 0 00-1.465 1.465 1.47 1.47 0 001.465 1.465 1.47 1.47 0 001.465-1.465zm14 0a1.47 1.47 0 00-1.465-1.465 1.47 1.47 0 00-1.465 1.465 1.47 1.47 0 001.465 1.465 1.47 1.47 0 001.465-1.465zm14-1a1.47 1.47 0 00-1.465-1.465 1.47 1.47 0 00-1.465 1.465 1.47 1.47 0 001.465 1.465 1.47 1.47 0 001.465-1.465zm13 0a1.47 1.47 0 00-1.465-1.465 1.47 1.47 0 00-1.465 1.465 1.47 1.47 0 001.465 1.465 1.47 1.47 0 001.465-1.465zm14 0a1.47 1.47 0 00-1.465-1.465 1.47 1.47 0 00-1.465 1.465 1.47 1.47 0 001.465 1.465 1.47 1.47 0 001.465-1.465zm14 0a1.47 1.47 0 00-1.465-1.465 1.47 1.47 0 00-1.465 1.465 1.47 1.47 0 001.465 1.465 1.47 1.47 0 001.465-1.465zm13 0a1.47 1.47 0 00-1.465-1.465 1.47 1.47 0 00-1.465 1.465 1.47 1.47 0 001.465 1.465 1.47 1.47 0 001.465-1.465zm14 0a1.47 1.47 0 00-1.465-1.465 1.47 1.47 0 00-1.465 1.465 1.47 1.47 0 001.465 1.465 1.47 1.47 0 001.465-1.465zm14 0a1.47 1.47 0 00-1.465-1.465 1.47 1.47 0 00-1.465 1.465 1.47 1.47 0 001.465 1.465 1.47 1.47 0 001.465-1.465zm13-1a1.47 1.47 0 00-1.465-1.465 1.47 1.47 0 00-1.465 1.465 1.47 1.47 0 001.465 1.465 1.47 1.47 0 001.465-1.465zm14 0a1.47 1.47 0 00-1.465-1.465 1.47 1.47 0 00-1.465 1.465 1.47 1.47 0 001.465 1.465 1.47 1.47 0 001.465-1.465zm14 0a1.47 1.47 0 00-1.465-1.465 1.47 1.47 0 00-1.465 1.465 1.47 1.47 0 001.465 1.465 1.47 1.47 0 001.465-1.465zm0 0" fill-rule="evenodd" fill="#a54f05"/><path d="M432.2 23.379h4.593l.215-.004.265-.016.325-.027.394-.047.48-.074.571-.106.672-.144.793-.184.914-.23 1.055-.29 1.199-.343 1.344-.398 1.453-.446 1.539-.48 1.601-.504 1.637-.516 1.64-.515 1.622-.504 1.578-.485 1.5-.453 1.402-.406 1.278-.355 1.14-.297 1.012-.239.906-.191.809-.152.726-.11.664-.078.614-.055.574-.027.555-.015.543-.008h5.046" fill="none" stroke-width="4" stroke-linejoin="round" stroke="#fff" stroke-opacity=".667" stroke-miterlimit="3.25"/><path d="M432.2 23.379h4.593l.215-.004.265-.016.325-.027.394-.047.48-.074.571-.106.672-.144.793-.184.914-.23 1.055-.29 1.199-.343 1.344-.398 1.453-.446 1.539-.48 1.601-.504 1.637-.516 1.64-.515 1.622-.504 1.578-.485 1.5-.453 1.402-.406 1.278-.355 1.14-.297 1.012-.239.906-.191.809-.152.726-.11.664-.078.614-.055.574-.027.555-.015.543-.008h5.046" fill="none" stroke-width="1.25" stroke-linecap="square" stroke="#aaa" stroke-miterlimit="3.25"/><path d="M497.86 8.18v15h-25v-15zm0 0" fill="#fff" fill-opacity=".667"/><use xlink:href="#a" x="475.359" y="18.18"/><use xlink:href="#b" x="485.359" y="18.18"/><path d="M432.2 89.754h4.472l.117-.004.129-.012.152-.027.168-.059.196-.097.222-.145.25-.2.285-.265.32-.343.356-.426.399-.524.445-.625.488-.742.54-.86.593-.995.645-1.137.707-1.29.765-1.448.824-1.606.88-1.742.921-1.86.961-1.96.992-2.04 1.016-2.1 1.035-2.145 1.047-2.168 1.047-2.172 1.047-2.16 1.035-2.125 1.016-2.07.996-2.005.96-1.91.926-1.804.88-1.676.827-1.528.77-1.37.719-1.212.664-1.066.617-.926.574-.8.535-.684.5-.57.465-.473.442-.387.414-.3.394-.235.375-.172.363-.117.356-.074.351-.043.348-.02.352-.008h4.761" fill="none" stroke-width="4" stroke-linejoin="round" stroke="#fff" stroke-opacity=".667" stroke-miterlimit="3.25"/><path d="M432.2 89.754h4.472l.117-.004.129-.012.152-.027.168-.059.196-.097.222-.145.25-.2.285-.265.32-.343.356-.426.399-.524.445-.625.488-.742.54-.86.593-.995.645-1.137.707-1.29.765-1.448.824-1.606.88-1.742.921-1.86.961-1.96.992-2.04 1.016-2.1 1.035-2.145 1.047-2.168 1.047-2.172 1.047-2.16 1.035-2.125 1.016-2.07.996-2.005.96-1.91.926-1.804.88-1.676.827-1.528.77-1.37.719-1.212.664-1.066.617-.926.574-.8.535-.684.5-.57.465-.473.442-.387.414-.3.394-.235.375-.172.363-.117.356-.074.351-.043.348-.02.352-.008h4.761" fill="none" stroke-width="1.25" stroke-linecap="square" stroke="#aaa" stroke-miterlimit="3.25"/><path d="M497.86 31.527v15h-25v-15zm0 0" fill="#fff" fill-opacity=".667"/><use xlink:href="#c" x="475.359" y="41.529"/><use xlink:href="#d" x="485.359" y="41.529"/><path d="M432.2 230.64h4.534l.067-.007.074-.016.074-.035.086-.055.09-.082.094-.113.105-.152.11-.196.12-.242.13-.297.136-.355.149-.422.156-.488.168-.567.18-.648.191-.735.203-.824.219-.922.226-1.023.247-1.129.253-1.246.274-1.363.289-1.485.3-1.617.321-1.75.336-1.89.352-2.036.37-2.187.387-2.344.407-2.504.425-2.672.446-2.832.46-2.988.481-3.133.492-3.262.508-3.382.52-3.496.53-3.594.544-3.68.55-3.762.56-3.828.566-3.883.574-3.93.574-3.968.582-3.988 1.164-8.008.582-3.996.578-3.98.579-3.95.574-3.906.57-3.86.563-3.796.554-3.723.547-3.637.54-3.547.526-3.441.512-3.324.5-3.196.488-3.062.47-2.91.452-2.754.438-2.59.414-2.422.402-2.265.387-2.11.367-1.96.356-1.821.34-1.684.328-1.55.312-1.422.3-1.305.294-1.188.277-1.078.27-.968.258-.875.25-.778.242-.687.234-.606.23-.531.22-.453.214-.387.211-.328.207-.27.203-.218.2-.172.195-.133.195-.098.195-.066.192-.043.195-.023.195-.012.196-.004h4.683" fill="none" stroke-width="4" stroke-linejoin="round" stroke="#fff" stroke-opacity=".667" stroke-miterlimit="3.25"/><path d="M432.2 230.64h4.534l.067-.007.074-.016.074-.035.086-.055.09-.082.094-.113.105-.152.11-.196.12-.242.13-.297.136-.355.149-.422.156-.488.168-.567.18-.648.191-.735.203-.824.219-.922.226-1.023.247-1.129.253-1.246.274-1.363.289-1.485.3-1.617.321-1.75.336-1.89.352-2.036.37-2.187.387-2.344.407-2.504.425-2.672.446-2.832.46-2.988.481-3.133.492-3.262.508-3.382.52-3.496.53-3.594.544-3.68.55-3.762.56-3.828.566-3.883.574-3.93.574-3.968.582-3.988 1.164-8.008.582-3.996.578-3.98.579-3.95.574-3.906.57-3.86.563-3.796.554-3.723.547-3.637.54-3.547.526-3.441.512-3.324.5-3.196.488-3.062.47-2.91.452-2.754.438-2.59.414-2.422.402-2.265.387-2.11.367-1.96.356-1.821.34-1.684.328-1.55.312-1.422.3-1.305.294-1.188.277-1.078.27-.968.258-.875.25-.778.242-.687.234-.606.23-.531.22-.453.214-.387.211-.328.207-.27.203-.218.2-.172.195-.133.195-.098.195-.066.192-.043.195-.023.195-.012.196-.004h4.683" fill="none" stroke-width="1.25" stroke-linecap="square" stroke="#aaa" stroke-miterlimit="3.25"/><path d="M497.86 54.875v15h-25v-15zm0 0" fill="#fff" fill-opacity=".667"/><use xlink:href="#e" x="475.359" y="64.876"/><use xlink:href="#f" x="485.359" y="64.876"/><path d="M432.2 230.86h4.491l.07-.005.071-.007.082-.024.082-.043.094-.062.098-.094.109-.133.113-.168.125-.219.137-.265.144-.328.157-.387.164-.457.18-.531.19-.61.208-.691.219-.785.23-.883.25-.984.262-1.09.281-1.203.293-1.32.313-1.442.332-1.574.351-1.711.367-1.848L442 212l.406-2.145.43-2.304.45-2.465.472-2.625.488-2.774.508-2.91.523-3.039.54-3.152.554-3.258.567-3.351.578-3.43.586-3.504.593-3.566.602-3.614.61-3.648.609-3.68.613-3.691.617-3.7.613-3.69.614-3.673.609-3.644.606-3.606.601-3.554.594-3.493.586-3.422.574-3.335.562-3.243.551-3.132.535-3.016.52-2.89.504-2.75.488-2.598.465-2.438.445-2.277.43-2.121.406-1.969.395-1.828.375-1.684.36-1.55.343-1.426.328-1.301.316-1.184.305-1.07.29-.965.28-.867.27-.77.262-.68.25-.593.242-.52.238-.445.23-.375.223-.316.219-.258.215-.211.207-.164.21-.121.204-.09.207-.059.203-.039.207-.02.203-.007.211-.004h4.617" fill="none" stroke-width="4" stroke-linejoin="round" stroke="#fff" stroke-opacity=".667" stroke-miterlimit="3.25"/><path d="M432.2 230.86h4.491l.07-.005.071-.007.082-.024.082-.043.094-.062.098-.094.109-.133.113-.168.125-.219.137-.265.144-.328.157-.387.164-.457.18-.531.19-.61.208-.691.219-.785.23-.883.25-.984.262-1.09.281-1.203.293-1.32.313-1.442.332-1.574.351-1.711.367-1.848L442 212l.406-2.145.43-2.304.45-2.465.472-2.625.488-2.774.508-2.91.523-3.039.54-3.152.554-3.258.567-3.351.578-3.43.586-3.504.593-3.566.602-3.614.61-3.648.609-3.68.613-3.691.617-3.7.613-3.69.614-3.673.609-3.644.606-3.606.601-3.554.594-3.493.586-3.422.574-3.335.562-3.243.551-3.132.535-3.016.52-2.89.504-2.75.488-2.598.465-2.438.445-2.277.43-2.121.406-1.969.395-1.828.375-1.684.36-1.55.343-1.426.328-1.301.316-1.184.305-1.07.29-.965.28-.867.27-.77.262-.68.25-.593.242-.52.238-.445.23-.375.223-.316.219-.258.215-.211.207-.164.21-.121.204-.09.207-.059.203-.039.207-.02.203-.007.211-.004h4.617" fill="none" stroke-width="1.25" stroke-linecap="square" stroke="#aaa" stroke-miterlimit="3.25"/><path d="M497.86 76.246v15h-25v-15zm0 0" fill="#fff" fill-opacity=".667"/><use xlink:href="#g" x="475.359" y="86.248"/><use xlink:href="#h" x="485.359" y="86.248"/><path d="M432.2 231.48h4.542l.078-.007.086-.02.094-.039.098-.059.109-.093.117-.13.13-.171.14-.219.148-.273.164-.336.18-.403.187-.472.207-.555.22-.64.238-.731.253-.824.27-.934.293-1.039.308-1.156.329-1.277.347-1.403.371-1.539.391-1.676.418-1.824.437-1.976.461-2.133.489-2.297.511-2.457.536-2.61.554-2.742.578-2.867.59-2.98.61-3.082.62-3.168.634-3.246.64-3.309.652-3.36.66-3.398.665-3.426.664-3.441.668-3.445.668-3.438.664-3.414.66-3.383.652-3.336.649-3.277.636-3.207.625-3.125.614-3.035.597-2.922.582-2.809.563-2.675.543-2.536.52-2.379.495-2.214.477-2.055.453-1.898.43-1.75.414-1.606.39-1.473.376-1.34.359-1.214.344-1.098.328-.984.312-.875.301-.782.29-.683.276-.594.266-.516.258-.437.254-.367.242-.305.238-.246.23-.195.231-.149.223-.11.223-.073.222-.051.223-.027.223-.012.222-.004h4.7" fill="none" stroke-width="4" stroke-linejoin="round" stroke="#fff" stroke-opacity=".667" stroke-miterlimit="3.25"/><path d="M432.2 231.48h4.542l.078-.007.086-.02.094-.039.098-.059.109-.093.117-.13.13-.171.14-.219.148-.273.164-.336.18-.403.187-.472.207-.555.22-.64.238-.731.253-.824.27-.934.293-1.039.308-1.156.329-1.277.347-1.403.371-1.539.391-1.676.418-1.824.437-1.976.461-2.133.489-2.297.511-2.457.536-2.61.554-2.742.578-2.867.59-2.98.61-3.082.62-3.168.634-3.246.64-3.309.652-3.36.66-3.398.665-3.426.664-3.441.668-3.445.668-3.438.664-3.414.66-3.383.652-3.336.649-3.277.636-3.207.625-3.125.614-3.035.597-2.922.582-2.809.563-2.675.543-2.536.52-2.379.495-2.214.477-2.055.453-1.898.43-1.75.414-1.606.39-1.473.376-1.34.359-1.214.344-1.098.328-.984.312-.875.301-.782.29-.683.276-.594.266-.516.258-.437.254-.367.242-.305.238-.246.23-.195.231-.149.223-.11.223-.073.222-.051.223-.027.223-.012.222-.004h4.7" fill="none" stroke-width="1.25" stroke-linecap="square" stroke="#aaa" stroke-miterlimit="3.25"/><path d="M497.86 97.629v15h-25v-15zm0 0" fill="#fff" fill-opacity=".667"/><use xlink:href="#i" x="475.359" y="107.629"/><use xlink:href="#j" x="485.359" y="107.629"/><path d="M432.2 233.21h4.495l.086-.003.09-.012.098-.027.11-.055.116-.082.133-.117.14-.164.157-.21.172-.274.187-.336.204-.41.222-.489.238-.57.258-.668.281-.766.301-.875.325-.984.343-1.11.375-1.234.395-1.367.426-1.512.449-1.66.48-1.812.512-1.98.539-2.145.57-2.313.598-2.465.621-2.601.645-2.723.664-2.836.683-2.933.7-3.016.71-3.082.723-3.137.727-3.18.738-3.203 1.476-6.437.735-3.2.734-3.171.727-3.133.719-3.07.707-3.004.691-2.918.676-2.817.656-2.707.637-2.578.613-2.441.59-2.285.558-2.118.528-1.949.504-1.789.48-1.633.453-1.488.43-1.344.41-1.214.387-1.086.371-.97.352-.85.34-.75.32-.653.308-.559.293-.472.285-.399.274-.324.27-.262.257-.203.254-.156.254-.113.246-.075.246-.046.246-.028.246-.008.25-.004h4.625" fill="none" stroke-width="4" stroke-linejoin="round" stroke="#fff" stroke-opacity=".667" stroke-miterlimit="3.25"/><path d="M432.2 233.21h4.495l.086-.003.09-.012.098-.027.11-.055.116-.082.133-.117.14-.164.157-.21.172-.274.187-.336.204-.41.222-.489.238-.57.258-.668.281-.766.301-.875.325-.984.343-1.11.375-1.234.395-1.367.426-1.512.449-1.66.48-1.812.512-1.98.539-2.145.57-2.313.598-2.465.621-2.601.645-2.723.664-2.836.683-2.933.7-3.016.71-3.082.723-3.137.727-3.18.738-3.203 1.476-6.437.735-3.2.734-3.171.727-3.133.719-3.07.707-3.004.691-2.918.676-2.817.656-2.707.637-2.578.613-2.441.59-2.285.558-2.118.528-1.949.504-1.789.48-1.633.453-1.488.43-1.344.41-1.214.387-1.086.371-.97.352-.85.34-.75.32-.653.308-.559.293-.472.285-.399.274-.324.27-.262.257-.203.254-.156.254-.113.246-.075.246-.046.246-.028.246-.008.25-.004h4.625" fill="none" stroke-width="1.25" stroke-linecap="square" stroke="#aaa" stroke-miterlimit="3.25"/><path d="M497.86 119.105v15h-25v-15zm0 0" fill="#fff" fill-opacity=".667"/><use xlink:href="#c" x="475.359" y="129.107"/><use xlink:href="#j" x="485.359" y="129.107"/><path d="M432.2 233.773h4.538l.106-.007.12-.02.134-.039.152-.07.168-.106.187-.156.211-.203.235-.27.262-.336.285-.414.316-.5.348-.593.383-.696.418-.804.453-.922.488-1.051.535-1.18.574-1.324.617-1.473.668-1.629.707-1.78.75-1.923.786-2.043.82-2.144.844-2.238.863-2.313.887-2.367.894-2.41.906-2.434.91-2.445.91-2.438.903-2.414.895-2.375.882-2.32.86-2.25.84-2.164.812-2.063.778-1.941.742-1.809.703-1.656.656-1.496.617-1.348.578-1.203.543-1.07.512-.941.477-.825.453-.715.422-.609.402-.516.379-.425.363-.352.344-.277.332-.219.32-.16.313-.113.308-.075.305-.047.3-.023.306-.004.308-.004h4.531" fill="none" stroke-width="4" stroke-linejoin="round" stroke="#fff" stroke-opacity=".667" stroke-miterlimit="3.25"/><path d="M432.2 233.773h4.538l.106-.007.12-.02.134-.039.152-.07.168-.106.187-.156.211-.203.235-.27.262-.336.285-.414.316-.5.348-.593.383-.696.418-.804.453-.922.488-1.051.535-1.18.574-1.324.617-1.473.668-1.629.707-1.78.75-1.923.786-2.043.82-2.144.844-2.238.863-2.313.887-2.367.894-2.41.906-2.434.91-2.445.91-2.438.903-2.414.895-2.375.882-2.32.86-2.25.84-2.164.812-2.063.778-1.941.742-1.809.703-1.656.656-1.496.617-1.348.578-1.203.543-1.07.512-.941.477-.825.453-.715.422-.609.402-.516.379-.425.363-.352.344-.277.332-.219.32-.16.313-.113.308-.075.305-.047.3-.023.306-.004.308-.004h4.531" fill="none" stroke-width="1.25" stroke-linecap="square" stroke="#aaa" stroke-miterlimit="3.25"/><path d="M497.86 160.531v15h-25v-15zm0 0" fill="#fff" fill-opacity=".667"/><use xlink:href="#k" x="475.359" y="170.533"/><use xlink:href="#l" x="485.359" y="170.533"/><path d="M432.2 233.36h4.562l.097-.012.106-.024.12-.047.134-.074.148-.117.164-.16.18-.211.195-.274.219-.34.238-.417.262-.5.285-.59.309-.688.34-.797.363-.906.394-1.031.422-1.156.457-1.293.489-1.438.523-1.586.559-1.746.593-1.914.633-2.074.668-2.219.692-2.355.722-2.47.746-2.573.762-2.66.781-2.731.797-2.789.805-2.828.808-2.856.817-2.867.816-2.863.813-2.844.804-2.812.797-2.762.785-2.695.766-2.621.75-2.524.727-2.414.699-2.289.672-2.148.64-1.997.606-1.828.57-1.664.54-1.511.507-1.364.48-1.226.454-1.09.43-.969.406-.848.386-.742.364-.64.351-.543.332-.457.317-.38.308-.304.293-.242.29-.188.28-.132.274-.098.273-.059.27-.035.273-.016.274-.003h4.722" fill="none" stroke-width="4" stroke-linejoin="round" stroke="#fff" stroke-opacity=".667" stroke-miterlimit="3.25"/><path d="M432.2 233.36h4.562l.097-.012.106-.024.12-.047.134-.074.148-.117.164-.16.18-.211.195-.274.219-.34.238-.417.262-.5.285-.59.309-.688.34-.797.363-.906.394-1.031.422-1.156.457-1.293.489-1.438.523-1.586.559-1.746.593-1.914.633-2.074.668-2.219.692-2.355.722-2.47.746-2.573.762-2.66.781-2.731.797-2.789.805-2.828.808-2.856.817-2.867.816-2.863.813-2.844.804-2.812.797-2.762.785-2.695.766-2.621.75-2.524.727-2.414.699-2.289.672-2.148.64-1.997.606-1.828.57-1.664.54-1.511.507-1.364.48-1.226.454-1.09.43-.969.406-.848.386-.742.364-.64.351-.543.332-.457.317-.38.308-.304.293-.242.29-.188.28-.132.274-.098.273-.059.27-.035.273-.016.274-.003h4.722" fill="none" stroke-width="1.25" stroke-linecap="square" stroke="#aaa" stroke-miterlimit="3.25"/><path d="M497.86 140.309v14h-25v-14zm0 0" fill="#fff" fill-opacity=".667"/><use xlink:href="#f" x="475.359" y="149.808"/><use xlink:href="#m" x="485.359" y="149.808"/><path d="M432.2 235.656h4.51l.126-.004.144-.02.165-.038.19-.07.216-.114.25-.164.281-.226.316-.297.36-.38.402-.468.45-.566.5-.676.55-.797.61-.926.668-1.066.73-1.211.797-1.371.86-1.524.917-1.656.965-1.77 1.004-1.867 1.035-1.941 1.063-1.996 1.078-2.035 1.09-2.055 1.09-2.05 1.081-2.032 1.07-1.988 1.048-1.93 1.015-1.852.98-1.754.938-1.636.88-1.496.82-1.344.761-1.188.703-1.043.653-.902.605-.777.563-.656.52-.551.487-.453.457-.364.43-.285.406-.215.391-.156.379-.105.367-.067.363-.035.364-.012.367-.004h4.644" fill="none" stroke-width="4" stroke-linejoin="round" stroke="#fff" stroke-opacity=".667" stroke-miterlimit="3.25"/><path d="M432.2 235.656h4.51l.126-.004.144-.02.165-.038.19-.07.216-.114.25-.164.281-.226.316-.297.36-.38.402-.468.45-.566.5-.676.55-.797.61-.926.668-1.066.73-1.211.797-1.371.86-1.524.917-1.656.965-1.77 1.004-1.867 1.035-1.941 1.063-1.996 1.078-2.035 1.09-2.055 1.09-2.05 1.081-2.032 1.07-1.988 1.048-1.93 1.015-1.852.98-1.754.938-1.636.88-1.496.82-1.344.761-1.188.703-1.043.653-.902.605-.777.563-.656.52-.551.487-.453.457-.364.43-.285.406-.215.391-.156.379-.105.367-.067.363-.035.364-.012.367-.004h4.644" fill="none" stroke-width="1.25" stroke-linecap="square" stroke="#aaa" stroke-miterlimit="3.25"/><path d="M497.86 182.023v15h-25v-15zm0 0" fill="#fff" fill-opacity=".667"/><use xlink:href="#n" x="475.359" y="192.024"/><use xlink:href="#o" x="485.359" y="192.024"/><path d="M432.2 235.836h4.624l.18-.012.215-.035.254-.062.3-.102.352-.152.41-.215.477-.29.547-.366.62-.457.708-.56.797-.67.89-.794.992-.926 1.094-1.05 1.172-1.157 1.238-1.246 1.293-1.308 1.332-1.356 1.352-1.379 1.36-1.387 1.35-1.37 1.325-1.337 1.29-1.277 1.237-1.203 1.168-1.105 1.082-.993.989-.855.898-.734.817-.614.742-.508.68-.41.617-.328.574-.246.531-.184.496-.128.477-.083.46-.042.45-.024.457-.004h4.812" fill="none" stroke-width="4" stroke-linejoin="round" stroke="#fff" stroke-opacity=".667" stroke-miterlimit="3.25"/><path d="M432.2 235.836h4.624l.18-.012.215-.035.254-.062.3-.102.352-.152.41-.215.477-.29.547-.366.62-.457.708-.56.797-.67.89-.794.992-.926 1.094-1.05 1.172-1.157 1.238-1.246 1.293-1.308 1.332-1.356 1.352-1.379 1.36-1.387 1.35-1.37 1.325-1.337 1.29-1.277 1.237-1.203 1.168-1.105 1.082-.993.989-.855.898-.734.817-.614.742-.508.68-.41.617-.328.574-.246.531-.184.496-.128.477-.083.46-.042.45-.024.457-.004h4.812" fill="none" stroke-width="1.25" stroke-linecap="square" stroke="#aaa" stroke-miterlimit="3.25"/><path d="M497.86 203.367v15h-25v-15zm0 0" fill="#fff" fill-opacity=".667"/><use xlink:href="#f" x="475.359" y="213.366"/><use xlink:href="#p" x="485.359" y="213.366"/><path d="M432.2 236.266h4.605l.242-.004.305-.008.378-.024.473-.035.574-.058.696-.078.828-.11.98-.14 1.14-.176 1.321-.219 1.485-.254 1.617-.289 1.715-.309 1.777-.32 1.8-.324 1.798-.324 1.746-.309 1.672-.293 1.554-.262 1.403-.222 1.238-.184 1.094-.148.96-.113.856-.083.762-.062.695-.04.64-.023.614-.011.602-.004h5.09" fill="none" stroke-width="4" stroke-linejoin="round" stroke="#fff" stroke-opacity=".667" stroke-miterlimit="3.25"/><path d="M432.2 236.266h4.605l.242-.004.305-.008.378-.024.473-.035.574-.058.696-.078.828-.11.98-.14 1.14-.176 1.321-.219 1.485-.254 1.617-.289 1.715-.309 1.777-.32 1.8-.324 1.798-.324 1.746-.309 1.672-.293 1.554-.262 1.403-.222 1.238-.184 1.094-.148.96-.113.856-.083.762-.062.695-.04.64-.023.614-.011.602-.004h5.09" fill="none" stroke-width="1.25" stroke-linecap="square" stroke="#aaa" stroke-miterlimit="3.25"/><path d="M497.86 224.34v15h-25v-15zm0 0" fill="#fff" fill-opacity=".667"/><use xlink:href="#q" x="475.359" y="234.34"/><use xlink:href="#r" x="485.359" y="234.34"/><path d="M355.781 124.645l13.688-15.91 13.687-17.477 13.688-18.313 13.683-19.144 13.688-19.973V12.93l-13.688 23.836-13.683 23.02-13.688 22.206-13.687 21.434zm0 38.597l13.688-10.879 13.687-12.168 13.688-12.773 13.683-13.379 13.688-13.98V79.44l-13.688 17.813-13.683 17.223-13.688 16.632-13.687 16.082zm0 70.86l13.688-.38 13.687-.472 13.688-.508 13.683-.535 13.688-.559v-2.015l-13.688.933-13.683.903-13.688.883-13.687.855zm0 0" fill="gray" fill-opacity=".05"/><path d="M355.781 234.281l13.688-.441 13.687-.524 13.688-.554 13.683-.582 13.688-.614v-1.418l-13.688.875-13.683.848-13.688.816zm0 0" fill="gray" fill-opacity=".05"/><path d="M355.781 234.96l13.688-.507 13.687-.574 13.688-.602 13.683-.629 13.688-.66v-1.015l-13.688.843-13.683.82-13.688.79-13.687.765zm0 .458l13.688-.29 13.687-.339 13.688-.36 13.683-.374 13.688-.399v-.894l-13.688.562-13.683.543-13.688.528zm0 0" fill="gray" fill-opacity=".05"/><path d="M355.781 236.05l13.688-.312 13.687-.355 13.688-.371 13.683-.395 13.688-.406v-.875l-13.688.574-13.683.559-13.688.535zm0 0" fill="gray" fill-opacity=".05"/><path d="M355.781 236.066l13.688-.379 13.687-.43 13.688-.452 13.683-.48 13.688-.497v-.937l-13.688.672-13.683.648-13.688.629-13.687.61zm0 .782l13.688-.125 13.687-.157 13.688-.168 13.683-.18 13.688-.183v-.758l-13.688.328-13.683.317-13.688.312-13.687.297zm0 0" fill="gray" fill-opacity=".05"/><path d="M355.781 237.012l13.688-.184 13.687-.2 13.688-.21 13.683-.223 13.688-.226v-.262l-13.688.277-13.683.266-13.688.262zm0 .144l13.688-.113 13.687-.133 13.688-.14 13.683-.149 13.688-.156v-.399l-13.688.23-13.683.22-13.688.214-13.687.211zm0 0" fill="gray" fill-opacity=".05"/><path d="M432.2 243.52H33m0 0V4m0 0h399.2m0 0v239.52" fill="none" stroke-width=".5" stroke-linecap="square" stroke="#666" stroke-miterlimit="3.25"/><path d="M68.36 243.52v-5.543" fill="none" stroke-width=".5" stroke="#666" stroke-miterlimit="3.25"/><g fill="#666"><use xlink:href="#s" x="53.858" y="255.52"/><use xlink:href="#t" x="59.375" y="255.52"/><use xlink:href="#u" x="64.815" y="255.52"/></g><g fill="#666"><use xlink:href="#v" x="71.858" y="255.52"/><use xlink:href="#w" x="77.473" y="255.52"/></g><path d="M164.164 243.52v-5.543" fill="none" stroke-width=".5" stroke="#666" stroke-miterlimit="3.25"/><g fill="#666"><use xlink:href="#s" x="149.666" y="255.52"/><use xlink:href="#t" x="155.183" y="255.52"/><use xlink:href="#u" x="160.623" y="255.52"/></g><g fill="#666"><use xlink:href="#x" x="167.666" y="255.52"/><use xlink:href="#y" x="173.281" y="255.52"/></g><path d="M259.973 243.52v-5.543" fill="none" stroke-width=".5" stroke="#666" stroke-miterlimit="3.25"/><g fill="#666"><use xlink:href="#s" x="245.474" y="255.52"/><use xlink:href="#t" x="250.991" y="255.52"/><use xlink:href="#u" x="256.431" y="255.52"/></g><g fill="#666"><use xlink:href="#x" x="263.474" y="255.52"/><use xlink:href="#z" x="269.089" y="255.52"/></g><path d="M355.781 243.52v-5.543" fill="none" stroke-width=".5" stroke="#666" stroke-miterlimit="3.25"/><g fill="#666"><use xlink:href="#A" x="341.282" y="255.52"/><use xlink:href="#B" x="346.809" y="255.52"/><use xlink:href="#C" x="352.107" y="255.52"/></g><g fill="#666"><use xlink:href="#y" x="359.282" y="255.52"/><use xlink:href="#w" x="364.897" y="255.52"/></g><path d="M33 238.73h4" fill="none" stroke-width=".5" stroke="#666" stroke-miterlimit="3.25"/><use xlink:href="#y" x="24" y="241.23" fill="#666"/><path d="M33 227.563h2.398M33 216.398h2.398M33 205.234h2.398M33 194.07h2.398M33 182.902h4" fill="none" stroke-width=".5" stroke="#666" stroke-miterlimit="3.25"/><g fill="#666"><use xlink:href="#v" y="185.403"/><use xlink:href="#y" x="5.615" y="185.403"/></g><g fill="#666"><use xlink:href="#y" x="12.686" y="185.403"/><use xlink:href="#y" x="18.301" y="185.403"/><use xlink:href="#y" x="23.916" y="185.403"/></g><path d="M33 171.738h2.398M33 160.574h2.398M33 149.406h2.398M33 138.242h2.398M33 127.078h4" fill="none" stroke-width=".5" stroke="#666" stroke-miterlimit="3.25"/><g fill="#666"><use xlink:href="#x" y="129.577"/><use xlink:href="#y" x="5.615" y="129.577"/></g><g fill="#666"><use xlink:href="#y" x="12.686" y="129.577"/><use xlink:href="#y" x="18.301" y="129.577"/><use xlink:href="#y" x="23.916" y="129.577"/></g><path d="M33 115.91h2.398M33 104.746h2.398M33 93.582h2.398M33 82.418h2.398M33 71.25h4" fill="none" stroke-width=".5" stroke="#666" stroke-miterlimit="3.25"/><g fill="#666"><use xlink:href="#w" y="73.751"/><use xlink:href="#y" x="5.615" y="73.751"/></g><g fill="#666"><use xlink:href="#y" x="12.686" y="73.751"/><use xlink:href="#y" x="18.301" y="73.751"/><use xlink:href="#y" x="23.916" y="73.751"/></g><path d="M33 60.086h2.398M33 48.922h2.398M33 37.754h2.398M33 26.59h2.398M33 15.426h4" fill="none" stroke-width=".5" stroke="#666" stroke-miterlimit="3.25"/><g fill="#666"><use xlink:href="#D" y="17.924"/><use xlink:href="#y" x="5.615" y="17.924"/></g><g fill="#666"><use xlink:href="#y" x="12.686" y="17.924"/><use xlink:href="#y" x="18.301" y="17.924"/><use xlink:href="#y" x="23.916" y="17.924"/></g><path d="M33 4.258h2.398M68.36 4v5.543M164.164 4v5.543M259.973 4v5.543M355.781 4v5.543M432.2 238.73h-4m4-11.167h-2.4m2.4-11.165h-2.4m2.4-11.164h-2.4m2.4-11.164h-2.4m2.4-11.168h-4m4-11.164h-2.4m2.4-11.164h-2.4m2.4-11.168h-2.4m2.4-11.164h-2.4m2.4-11.164h-4m4-11.168h-2.4m2.4-11.164h-2.4m2.4-11.164h-2.4m2.4-11.164h-2.4m2.4-11.168h-4m4-11.164h-2.4m2.4-11.164h-2.4m2.4-11.168h-2.4m2.4-11.164h-2.4m2.4-11.164h-4m4-11.168h-2.4" fill="none" stroke-width=".5" stroke="#666" stroke-miterlimit="3.25"/></svg>