<svg xmlns="http://www.w3.org/2000/svg" xmlns:xlink="http://www.w3.org/1999/xlink" width="500pt" height="356" viewBox="0 0 500 267"><defs><symbol overflow="visible" id="a"><path d="M2.469-5.809v.59h3.293v-.59zm.27 1.23v2.04H5.53v-2.04zm2.12 1.477H3.422v-.918h1.437zM9.141-7.27h-.672a7.745 7.745 0 00-.32-.89l-.637.11c.117.241.226.5.328.78H6.75c-.02-.3-.02-.609-.02-.94h-.69c0 .32 0 .64.019.94h-4.75v1.97C1.28-4.14 1-3.239.46-2.59l.54.488c.64-.808.98-1.878 1.012-3.199v-1.308H6.09c.05.828.148 1.52.308 2.078.122.41.262.781.422 1.101-.32.36-.68.66-1.07.89l.371.56c.36-.22.707-.5 1.04-.848.038.058.1.129.16.2.37.398.75.608 1.148.608.422 0 .781-.53 1.082-1.582l-.582-.34c-.2.833-.39 1.25-.57 1.25-.22 0-.458-.18-.72-.527l-.09-.14c.462-.641.84-1.442 1.15-2.422l-.56-.29a8.622 8.622 0 01-.91 2.032 5.96 5.96 0 01-.25-.84c-.12-.45-.199-1.031-.238-1.73h2.36zM1.62-1.91A6.86 6.86 0 01.511.28l.61.39c.5-.69.879-1.5 1.16-2.44zM6.31.84c.37 0 .64-.07.82-.211.2-.18.332-.649.39-1.43l-.68-.23c-.038.582-.12.922-.218 1.043-.09.097-.242.148-.441.148H4.05c-.25 0-.37-.14-.37-.422V-2.02h-.73v1.91c0 .63.288.95.878.95zM8.2-1.7l-.578.36A13.69 13.69 0 018.988.45l.57-.41C9.25-.46 8.802-1.04 8.2-1.7zM5-2.19l-.54.332c.462.5.821.96 1.08 1.379l.538-.38C5.828-1.237 5.468-1.69 5-2.19zm0 0"/></symbol><symbol overflow="visible" id="b"><path d="M3.89-1.96C3.29-1.16 2.14-.45.46.18l.411.68c1.79-.801 3-1.739 3.629-2.82h.148V.98h.743v-2.94h.14C6.25-.84 7.481.07 9.238.75L9.57.059c-1.55-.489-2.69-1.16-3.422-2.02H9.34v-.66H5.39v-.848h-.742v.848H.691v.66zm1.231-6.2v1.058H3.7v.672h1.38c-.06.54-.188 1.008-.388 1.39-.3.509-.812.919-1.55 1.231l.39.61c.797-.332 1.38-.79 1.739-1.371.28-.48.468-1.102.55-1.86h1.301L7.11-4.14c0 .492.262.742.801.742h.59c.36 0 .602-.114.719-.32.12-.223.222-.743.3-1.583l-.64-.21c-.05.722-.11 1.14-.168 1.261a.381.381 0 01-.32.191h-.34c-.16 0-.23-.082-.23-.23v-2.813H5.858V-8.16zm-3.473.18l-.359.539a7.48 7.48 0 011.672.921l.36-.55a7.87 7.87 0 00-1.673-.91zm-.636 1.34l-.364.538a7.235 7.235 0 011.524.82l.36-.546a7.631 7.631 0 00-1.52-.813zM2.89-5.41c-.64.719-1.36 1.36-2.171 1.898l.5.551c.761-.539 1.5-1.23 2.203-2.05zm0 0"/></symbol><symbol overflow="visible" id="c"><path d="M2.23-3.52l-.48.45c.55.422 1.012.82 1.371 1.218C2.481-.91 1.621-.172.54.36L.9 1C3.13-.102 4.49-2.02 4.981-4.762v-.617H2.72c.172-.48.312-1.012.422-1.57H5.72V-.16c0 .629.293.95.89.95H8.2c.41 0 .711-.099.903-.302.207-.238.359-.886.437-1.957l-.66-.21c-.04.87-.129 1.39-.27 1.57-.109.14-.289.218-.53.218H6.83c-.278 0-.419-.14-.419-.418v-2.73c.95-.34 1.942-.84 2.98-1.52l-.421-.59A10.19 10.19 0 016.41-3.73v-3.22h3.012v-.698H.578v.699h1.844C2.102-5.25 1.43-3.97.39-3.11l.34.62c.71-.542 1.28-1.28 1.718-2.222h1.84c-.18.84-.46 1.602-.82 2.281-.348-.36-.758-.73-1.239-1.09zm0 0"/></symbol><symbol overflow="visible" id="d"><path d="M.57-6.422v.723h1.328V.559H9v-.707H2.64V-5.7h6.782v-.723H5.648a8.407 8.407 0 00-1-1.687l-.707.27c.368.44.68.917.93 1.417zm0 0"/></symbol><symbol overflow="visible" id="e"><path d="M1.32-8.012l-.5.492c.782.54 1.4 1.04 1.84 1.52l.52-.52c-.5-.5-1.121-.992-1.86-1.492zm-.289 2.34l-.5.48C1.25-4.647 1.81-4.14 2.22-3.66l.52-.531c-.458-.489-1.028-.98-1.708-1.48zm1.34 2.781A29.022 29.022 0 01.7.59l.71.31a30.79 30.79 0 001.602-3.53zM8.7-3.25H3.82V.988h.7V.41H8v.578h.7zM4.52-.27v-2.32H8v2.32zM7.66-7l-.629.3c.34.462.66.962.98 1.5-1.152.169-2.37.29-3.66.36.688-.781 1.368-1.808 2.047-3.11l-.718-.24C4.719-6.23 3.922-5.1 3.27-4.8l.12.653c1.82-.102 3.481-.25 4.97-.454.14.25.28.524.421.801l.668-.328A23.587 23.587 0 007.66-7zm0 0"/></symbol><symbol overflow="visible" id="f"><path d="M2.172-3.95H4.34v.528H2.172zm2.168-.46H2.172v-.54H4.34zM2.172-2.96H4.34v.288c0 .262-.121.39-.34.39l-.66-.027.148.547h.703c.54 0 .82-.258.82-.758v-2.949h-3.5v3.739h.66zm-.703 1.64C1.269-.72.969-.18.55.3l.578.372c.422-.524.75-1.14.992-1.852zM6.53.86c.328 0 .57-.07.73-.188.169-.16.29-.602.348-1.32L6.95-.86c-.039.52-.097.84-.187.949-.082.082-.203.12-.364.12H3.852C3.66.21 3.57.122 3.57-.05v-1.31h-.699V.09c0 .512.258.77.777.77zm1.207-2.622c.551 0 .832-.277.832-.816V-5.54H7.88v2.789c0 .238-.129.371-.379.371-.309 0-.64-.02-.98-.05l.16.667zM5-1.762l-.531.332c.43.442.77.852 1.031 1.23l.531-.378C5.79-.922 5.45-1.308 5-1.762zm3.23.274l-.55.34c.52.609.93 1.16 1.23 1.66l.57-.39c-.289-.462-.71-1-1.25-1.61zM6.04-5.371v2.512h.679v-2.512zm-3.188-1.04v.38h4.25v-.43c.66.27 1.367.52 2.148.742l.32-.562c-1.64-.457-3.082-1.078-4.34-1.86h-.46C3.629-7.379 2.19-6.75.46-6.238l.31.566c.75-.226 1.44-.476 2.082-.738zm3.91-.198H3.309A11.7 11.7 0 005-7.531c.52.332 1.11.64 1.762.922zm0 0"/></symbol><symbol overflow="visible" id="g"><path d="M3.805-7.11h.941v5.036c0 .68-.203 1.21-.613 1.597-.406.383-.953.575-1.633.575-.707 0-1.258-.18-1.648-.543-.395-.36-.594-.867-.594-1.516h.937c0 .406.114.723.336.95.223.23.547.343.969.343.387 0 .7-.121.941-.367.239-.246.36-.586.364-1.028zm0 0"/></symbol><symbol overflow="visible" id="h"><path d="M3.945 0c-.05-.105-.093-.29-.125-.555-.422.434-.922.653-1.507.653-.52 0-.946-.149-1.282-.442a1.438 1.438 0 01-.5-1.12c0-.552.211-.977.63-1.282.417-.305 1.007-.457 1.765-.457h.879v-.414c0-.317-.094-.567-.285-.754-.188-.188-.465-.281-.833-.281-.324 0-.593.082-.812.242-.219.164-.328.36-.328.59H.64c0-.262.093-.516.28-.762.188-.246.442-.441.763-.582.32-.145.671-.219 1.054-.219.61 0 1.086.153 1.434.457.344.305.523.727.535 1.258v2.434c0 .484.063.87.184 1.156V0zm-1.5-.688c.285 0 .555-.074.805-.218a1.35 1.35 0 00.555-.574v-1.083h-.711c-1.106 0-1.656.325-1.656.97 0 .284.093.507.28.663.188.16.43.243.727.243zm0 0"/></symbol><symbol overflow="visible" id="i"><path d="M1.54-5.281l.026.664a1.93 1.93 0 011.582-.766c1.118 0 1.68.633 1.692 1.89V0h-.902v-3.496c-.004-.379-.094-.664-.262-.844-.172-.183-.438-.273-.801-.273-.293 0-.55.078-.77.234a1.59 1.59 0 00-.52.613V0h-.9v-5.281zm0 0"/></symbol><symbol overflow="visible" id="j"><path d="M3.559 0h-.907v-6.02l-1.824.668v-.82l2.59-.973h.14zm0 0"/></symbol><symbol overflow="visible" id="k"><path d="M1.906-3.992h.676c.426-.008.762-.121 1.008-.34.242-.219.363-.512.363-.883 0-.832-.414-1.25-1.242-1.25-.39 0-.703.113-.938.336-.23.223-.347.516-.347.887H.523c0-.563.204-1.031.618-1.406.41-.372.933-.559 1.57-.559.672 0 1.195.176 1.578.531.379.356.57.848.57 1.48 0 .31-.101.61-.3.9a1.81 1.81 0 01-.817.648c.39.125.692.328.903.617.214.285.32.636.32 1.047 0 .64-.207 1.144-.625 1.52-.418.374-.957.562-1.625.562s-1.211-.18-1.63-.543c-.417-.36-.624-.836-.624-1.43h.906c0 .375.121.672.367.898.243.227.57.336.98.336.438 0 .77-.113 1-.34.231-.23.349-.554.349-.98 0-.414-.125-.734-.383-.953-.254-.223-.618-.336-1.098-.344h-.676zm0 0"/></symbol><symbol overflow="visible" id="l"><path d="M5.25 0H.59v-.648l2.46-2.735c.364-.414.618-.75.755-1.008.14-.257.21-.527.21-.804 0-.371-.113-.676-.34-.914-.222-.239-.523-.356-.898-.356-.449 0-.797.13-1.047.383-.25.254-.37.613-.37 1.066H.452c0-.652.211-1.183.633-1.586.422-.402.984-.605 1.691-.605.66 0 1.184.172 1.567.52.386.347.578.808.578 1.382 0 .703-.445 1.535-1.336 2.5L1.68-.738h3.57zm0 0"/></symbol><symbol overflow="visible" id="m"><path d="M5.18-6.602L2.234 0H1.29l2.934-6.367H.375v-.742H5.18zm0 0"/></symbol><symbol overflow="visible" id="n"><path d="M4.746-3.14H1.762V0H.824v-7.11H5.23v.774H1.762v2.43h2.984zm0 0"/></symbol><symbol overflow="visible" id="o"><path d="M2.875.098c-.715 0-1.297-.235-1.746-.707-.45-.47-.676-1.098-.676-1.887v-.164c0-.524.102-.992.3-1.406.2-.41.481-.735.84-.965.36-.235.75-.352 1.173-.352.687 0 1.218.227 1.601.68.38.453.57 1.101.57 1.945v.375H1.36c.012.52.164.942.454 1.262.292.32.664.48 1.113.48.316 0 .59-.062.808-.195.223-.129.414-.3.582-.516l.551.43c-.441.68-1.105 1.02-1.992 1.02zm-.11-4.739a1.21 1.21 0 00-.921.399c-.246.265-.399.64-.457 1.117H4.03v-.07c-.023-.457-.148-.813-.367-1.067-.223-.25-.523-.379-.898-.379zm0 0"/></symbol><symbol overflow="visible" id="p"><path d="M5.156-2.582c0 .809-.187 1.453-.554 1.945-.372.489-.872.735-1.497.735-.667 0-1.183-.235-1.546-.707L1.516 0H.684v-7.5h.902v2.797c.367-.453.867-.68 1.508-.68.64 0 1.148.246 1.511.73.368.485.551 1.15.551 1.993zm-.902-.106c0-.613-.121-1.09-.356-1.421-.238-.336-.582-.504-1.027-.504-.598 0-1.023.277-1.285.828V-1.5c.277.555.71.832 1.297.832.43 0 .77-.168 1.008-.504.242-.336.363-.84.363-1.516zm0 0"/></symbol><symbol overflow="visible" id="q"><path d="M5.047-3.031c0 1.058-.18 1.844-.54 2.36-.362.51-.925.769-1.694.769-.758 0-1.32-.25-1.684-.754C.766-1.16.574-1.91.562-2.91v-1.207c0-1.043.18-1.82.54-2.328.363-.508.93-.762 1.703-.762.765 0 1.328.246 1.687.734.36.489.547 1.246.555 2.27zm-.902-1.235c0-.765-.106-1.324-.32-1.675-.216-.348-.555-.524-1.02-.524-.465 0-.801.176-1.012.524-.211.347-.32.882-.328 1.605v1.445c0 .77.113 1.336.336 1.704.222.367.558.546 1.012.546.445 0 .777-.171.992-.515.218-.344.332-.89.34-1.633zm0 0"/></symbol><symbol overflow="visible" id="r"><path d="M4.406-2.387h.985v.739h-.985V0h-.91v-1.648H.258v-.536L3.44-7.109h.965zm-3.12 0h2.21v-3.488l-.105.195zm0 0"/></symbol><symbol overflow="visible" id="s"><path d="M4.137-7.113v.765h-.168c-.703.012-1.262.223-1.68.625-.414.403-.656.973-.723 1.703.375-.43.887-.644 1.536-.644.617 0 1.113.219 1.48.656.371.438.555 1 .555 1.688 0 .734-.2 1.32-.598 1.757-.398.442-.934.66-1.605.66-.68 0-1.23-.261-1.653-.784C.855-1.212.645-1.883.645-2.704v-.348c0-1.308.277-2.308.835-3 .56-.691 1.391-1.047 2.497-1.062zM2.949-3.91c-.308 0-.594.09-.855.277a1.446 1.446 0 00-.54.7v.331c0 .586.13 1.059.395 1.414.262.36.59.54.985.54.406 0 .726-.153.96-.45.231-.3.348-.691.348-1.175 0-.489-.117-.887-.351-1.188a1.14 1.14 0 00-.942-.45zm0 0"/></symbol><symbol overflow="visible" id="t"><path d="M4.902-5.254c0 .356-.093.672-.28.95a1.95 1.95 0 01-.759.648c.371.16.664.39.88.695.218.309.327.656.327 1.043 0 .613-.21 1.105-.625 1.469-.414.363-.96.547-1.636.547-.684 0-1.23-.184-1.645-.551C.754-.82.547-1.31.547-1.918c0-.387.105-.73.316-1.043.207-.309.5-.543.871-.703a1.869 1.869 0 01-.75-.648 1.693 1.693 0 01-.273-.942c0-.598.195-1.074.578-1.426.383-.351.89-.527 1.52-.527.625 0 1.128.176 1.515.527.387.352.578.828.578 1.426zm-.738 3.316c0-.398-.125-.722-.379-.972-.25-.25-.582-.375-.988-.375s-.73.12-.977.37c-.246.247-.37.571-.37.978 0 .402.12.718.359.953.238.23.574.343 1 .343.421 0 .753-.117.996-.347.242-.235.36-.551.36-.95zM2.81-6.465c-.356 0-.645.11-.864.328-.218.223-.328.52-.328.899 0 .36.106.652.324.875.215.222.504.336.868.336.359 0 .648-.114.867-.336C3.89-4.586 4-4.88 4-5.238c0-.364-.113-.657-.336-.887a1.16 1.16 0 00-.855-.34zm0 0"/></symbol></defs><path d="M41.203 250.117V4m7.43 246.117V4m7.43 246.117V4m7.429 246.117V4m7.434 246.117V4m7.429 246.117V4m7.43 246.117V4m7.43 246.117V4m7.43 246.117V4m7.429 246.117V4m7.43 246.117V4m7.43 246.117V4m7.429 246.117V4m7.43 246.117V4m7.43 246.117V4m7.429 246.117V4m7.43 246.117V4m7.43 246.117V4m7.433 246.117V4m7.43 246.117V4m7.43 246.117V4m7.429 246.117V4m7.43 246.117V4m7.43 246.117V4m7.429 246.117V4m7.43 246.117V4m7.43 246.117V4m7.43 246.117V4m7.429 246.117V4m7.43 246.117V4m7.43 246.117V4m7.433 246.117V4m7.43 246.117V4m7.43 246.117V4m7.429 246.117V4m7.43 246.117V4m7.43 246.117V4m7.429 246.117V4m7.43 246.117V4m7.43 246.117V4m7.429 246.117V4m7.43 246.117V4m7.43 246.117V4m7.429 246.117V4m7.434 246.117V4m7.43 246.117V4m7.429 246.117V4m7.43 246.117V4m7.43 246.117V4m7.429 246.117V4m7.43 246.117V4m7.43 246.117V4m7.43 246.117V4m7.429 246.117V4m7.43 246.117V4M33 213.828h410.195M33 182.46h410.195M33 151.094h410.195M33 119.723h410.195M33 88.355h410.195M33 56.988h410.195M33 25.621h410.195" fill="none" stroke="#666" stroke-opacity=".5" stroke-dasharray="1,2" stroke-miterlimit="3.25"/><path d="M397.844 238.5l7.43-9.484 7.43-4.692 7.429-2.324 7.43-1.148 7.43-.567" fill="none" stroke-width="1.6" stroke-linecap="square" stroke="#a60000" stroke-opacity=".3" stroke-miterlimit="3.25"/><path d="M397.844 244.457l7.43-.004 29.718-.062" fill="none" stroke-width="1.6" stroke-linecap="square" stroke="#0d86a0" stroke-opacity=".3" stroke-miterlimit="3.25"/><path d="M397.844 199.95l7.43-3.595 14.859-1.882 7.43-.946 7.43-.941" fill="none" stroke-width="1.6" stroke-linecap="square" stroke="#c05c20" stroke-opacity=".3" stroke-miterlimit="3.25"/><path d="M41.203 244.55l7.43.645h22.293l7.43-.062 7.43-.203 7.429-.66 7.43-.297 7.43-.22 7.429-.894 7.43.282 7.43-2.008 7.429-2.903 7.43-3.824 7.43-1.27 7.429-15.718 7.43 4.894 7.433-4.359 7.43-3.844 7.43-1.882 7.43-7.653 7.43-3.75 7.429-6.367 7.43-10.227 7.43 3.028 7.429 8.644 7.43-4.015 7.43 11.652 7.429-6.367 7.43 9.066 7.433 7.356 7.43-189.684 7.43 141.453 7.43 38.41 7.429 9.915 7.43-.614 7.43 2.543 7.429 2.149 7.43 14.57 7.43-1.082 7.429 7.715 7.43-3.938 7.43 3.75 7.433-1.554 7.43 1.601 7.43-.422 7.43 1.66 7.429-1.566" fill="none" stroke-width="1.6" stroke-linecap="square" stroke="#a60000" stroke-miterlimit="3.25"/><path d="M41.203 245.18l7.43.015h14.86l7.433-.015h7.43l7.43.015h7.429l22.289-.047 7.43-.078h7.43l7.429-.125 7.43.016 7.43-.14 7.429-.032h7.43l7.433-.187 7.43-.082 7.43-.047 7.43.015 7.43-.187 7.429-.11 7.43-.015 7.43-.125h7.429l7.43-.203 7.43-.047 7.429-.125 7.43-.176 7.433.176 7.43-.77 7.43.39 7.43-.343 7.429.016 7.43.582 7.43.11 7.429-.599 7.43.344 7.43-.062 7.429.14 7.43.192 7.43-.832 7.433 1.238 7.43.297 7.43.363 7.43-.238 7.429-.047" fill="none" stroke-width="1.6" stroke-linecap="square" stroke="#0d86a0" stroke-miterlimit="3.25"/><path d="M41.203 245.164l7.43-.031 7.43.047 7.43.015 7.433-.078 7.43.078 7.43-.062 7.429-.016 7.43.016 7.43.062 7.429-.047 7.43.047 7.43-.093 7.429.046 7.43-.125 7.43.141 7.429-.11 7.43-.534 7.433.347 7.43-.41 7.43-.39 7.43-.204 7.43-.972 7.429-.157 7.43-1.648 7.43.016 7.429-1.977 7.43-1.93 7.43-1.41 7.429-.5 7.43-1.32 7.433-.438 7.43-6.699 7.43 1.414 7.43-4.582 7.429.785 7.43-1.597 7.43-4.332 7.429-1.926 7.43.703 7.43-5.176 7.429-4.453 7.43 2.555 7.43 6.023 7.433-11.652 7.43 2.62 7.43-5.144 7.43-13.68 7.429 11.563" fill="none" stroke-width="1.6" stroke-linecap="square" stroke="#c05c20" stroke-miterlimit="3.25"/><path d="M399.879 238c0-.5-.195-.977-.55-1.328a1.861 1.861 0 00-1.329-.55c-.5 0-.977.194-1.328.55-.356.351-.55.828-.55 1.328 0 .5.194.977.55 1.328.351.356.828.55 1.328.55.5 0 .977-.194 1.328-.55.356-.351.55-.828.55-1.328zm7-9c0-.5-.195-.977-.55-1.328a1.861 1.861 0 00-1.329-.55c-.5 0-.977.194-1.328.55-.356.351-.55.828-.55 1.328 0 .5.194.977.55 1.328.351.356.828.55 1.328.55.5 0 .977-.194 1.328-.55.356-.351.55-.828.55-1.328zm8-5c0-.5-.195-.977-.55-1.328a1.861 1.861 0 00-1.329-.55c-.5 0-.977.194-1.328.55-.356.351-.55.828-.55 1.328 0 .5.194.977.55 1.328.351.356.828.55 1.328.55.5 0 .977-.194 1.328-.55.356-.351.55-.828.55-1.328zm7-2c0-.5-.195-.977-.55-1.328a1.861 1.861 0 00-1.329-.55c-.5 0-.977.194-1.328.55-.356.351-.55.828-.55 1.328 0 .5.194.977.55 1.328.351.356.828.55 1.328.55.5 0 .977-.194 1.328-.55.356-.351.55-.828.55-1.328zm8-1c0-.5-.195-.977-.55-1.328a1.861 1.861 0 00-1.329-.55c-.5 0-.977.194-1.328.55-.356.351-.55.828-.55 1.328 0 .5.194.977.55 1.328.351.356.828.55 1.328.55.5 0 .977-.194 1.328-.55.356-.351.55-.828.55-1.328zm7-1c0-.5-.195-.977-.55-1.328a1.861 1.861 0 00-1.329-.55c-.5 0-.977.194-1.328.55-.356.351-.55.828-.55 1.328 0 .5.194.977.55 1.328.351.356.828.55 1.328.55.5 0 .977-.194 1.328-.55.356-.351.55-.828.55-1.328zm0 0" fill-rule="evenodd" fill="#a60000" fill-opacity=".3"/><path d="M399.879 244c0-.5-.195-.977-.55-1.328a1.861 1.861 0 00-1.329-.55c-.5 0-.977.194-1.328.55-.356.351-.55.828-.55 1.328 0 .5.194.977.55 1.328.351.356.828.55 1.328.55.5 0 .977-.194 1.328-.55.356-.351.55-.828.55-1.328zm7 0c0-.5-.195-.977-.55-1.328a1.861 1.861 0 00-1.329-.55c-.5 0-.977.194-1.328.55-.356.351-.55.828-.55 1.328 0 .5.194.977.55 1.328.351.356.828.55 1.328.55.5 0 .977-.194 1.328-.55.356-.351.55-.828.55-1.328zm8 0c0-.5-.195-.977-.55-1.328a1.861 1.861 0 00-1.329-.55c-.5 0-.977.194-1.328.55-.356.351-.55.828-.55 1.328 0 .5.194.977.55 1.328.351.356.828.55 1.328.55.5 0 .977-.194 1.328-.55.356-.351.55-.828.55-1.328zm7 0c0-.5-.195-.977-.55-1.328a1.861 1.861 0 00-1.329-.55c-.5 0-.977.194-1.328.55-.356.351-.55.828-.55 1.328 0 .5.194.977.55 1.328.351.356.828.55 1.328.55.5 0 .977-.194 1.328-.55.356-.351.55-.828.55-1.328zm8 0c0-.5-.195-.977-.55-1.328a1.861 1.861 0 00-1.329-.55c-.5 0-.977.194-1.328.55-.356.351-.55.828-.55 1.328 0 .5.194.977.55 1.328.351.356.828.55 1.328.55.5 0 .977-.194 1.328-.55.356-.351.55-.828.55-1.328zm7 0c0-.5-.195-.977-.55-1.328a1.861 1.861 0 00-1.329-.55c-.5 0-.977.194-1.328.55-.356.351-.55.828-.55 1.328 0 .5.194.977.55 1.328.351.356.828.55 1.328.55.5 0 .977-.194 1.328-.55.356-.351.55-.828.55-1.328zm0 0" fill-rule="evenodd" fill="#0d86a0" fill-opacity=".3"/><path d="M399.879 200c0-.5-.195-.977-.55-1.328a1.861 1.861 0 00-1.329-.55c-.5 0-.977.194-1.328.55-.356.351-.55.828-.55 1.328 0 .5.194.977.55 1.328.351.356.828.55 1.328.55.5 0 .977-.194 1.328-.55.356-.351.55-.828.55-1.328zm7-4c0-.5-.195-.977-.55-1.328a1.861 1.861 0 00-1.329-.55c-.5 0-.977.194-1.328.55-.356.351-.55.828-.55 1.328 0 .5.194.977.55 1.328.351.356.828.55 1.328.55.5 0 .977-.194 1.328-.55.356-.351.55-.828.55-1.328zm8-1c0-.5-.195-.977-.55-1.328a1.861 1.861 0 00-1.329-.55c-.5 0-.977.194-1.328.55-.356.351-.55.828-.55 1.328 0 .5.194.977.55 1.328.351.356.828.55 1.328.55.5 0 .977-.194 1.328-.55.356-.351.55-.828.55-1.328zm7-1c0-.5-.195-.977-.55-1.328a1.861 1.861 0 00-1.329-.55c-.5 0-.977.194-1.328.55-.356.351-.55.828-.55 1.328 0 .5.194.977.55 1.328.351.356.828.55 1.328.55.5 0 .977-.194 1.328-.55.356-.351.55-.828.55-1.328zm8 0c0-.5-.195-.977-.55-1.328a1.861 1.861 0 00-1.329-.55c-.5 0-.977.194-1.328.55-.356.351-.55.828-.55 1.328 0 .5.194.977.55 1.328.351.356.828.55 1.328.55.5 0 .977-.194 1.328-.55.356-.351.55-.828.55-1.328zm7-1c0-.5-.195-.977-.55-1.328a1.861 1.861 0 00-1.329-.55c-.5 0-.977.194-1.328.55-.356.351-.55.828-.55 1.328 0 .5.194.977.55 1.328.351.356.828.55 1.328.55.5 0 .977-.194 1.328-.55.356-.351.55-.828.55-1.328zm0 0" fill-rule="evenodd" fill="#c05c20" fill-opacity=".3"/><path d="M42.879 245c0-.5-.195-.977-.55-1.328a1.861 1.861 0 00-1.329-.55c-.5 0-.977.194-1.328.55-.356.351-.55.828-.55 1.328 0 .5.194.977.55 1.328.351.356.828.55 1.328.55.5 0 .977-.194 1.328-.55.356-.351.55-.828.55-1.328zm8 0c0-.5-.195-.977-.55-1.328a1.861 1.861 0 00-1.329-.55c-.5 0-.977.194-1.328.55-.356.351-.55.828-.55 1.328 0 .5.194.977.55 1.328.351.356.828.55 1.328.55.5 0 .977-.194 1.328-.55.356-.351.55-.828.55-1.328zm7 0c0-.5-.195-.977-.55-1.328a1.861 1.861 0 00-1.329-.55c-.5 0-.977.194-1.328.55-.356.351-.55.828-.55 1.328 0 .5.194.977.55 1.328.351.356.828.55 1.328.55.5 0 .977-.194 1.328-.55.356-.351.55-.828.55-1.328zm7 0c0-.5-.195-.977-.55-1.328a1.861 1.861 0 00-1.329-.55c-.5 0-.977.194-1.328.55-.356.351-.55.828-.55 1.328 0 .5.194.977.55 1.328.351.356.828.55 1.328.55.5 0 .977-.194 1.328-.55.356-.351.55-.828.55-1.328zm8 0c0-.5-.195-.977-.55-1.328a1.861 1.861 0 00-1.329-.55c-.5 0-.977.194-1.328.55-.356.351-.55.828-.55 1.328 0 .5.194.977.55 1.328.351.356.828.55 1.328.55.5 0 .977-.194 1.328-.55.356-.351.55-.828.55-1.328zm7 0c0-.5-.195-.977-.55-1.328a1.861 1.861 0 00-1.329-.55c-.5 0-.977.194-1.328.55-.356.351-.55.828-.55 1.328 0 .5.194.977.55 1.328.351.356.828.55 1.328.55.5 0 .977-.194 1.328-.55.356-.351.55-.828.55-1.328zm8 0c0-.5-.195-.977-.55-1.328a1.861 1.861 0 00-1.329-.55c-.5 0-.977.194-1.328.55-.356.351-.55.828-.55 1.328 0 .5.194.977.55 1.328.351.356.828.55 1.328.55.5 0 .977-.194 1.328-.55.356-.351.55-.828.55-1.328zm7-1c0-.5-.195-.977-.55-1.328a1.861 1.861 0 00-1.329-.55c-.5 0-.977.194-1.328.55-.356.351-.55.828-.55 1.328 0 .5.194.977.55 1.328.351.356.828.55 1.328.55.5 0 .977-.194 1.328-.55.356-.351.55-.828.55-1.328zm8 0c0-.5-.195-.977-.55-1.328a1.861 1.861 0 00-1.329-.55c-.5 0-.977.194-1.328.55-.356.351-.55.828-.55 1.328 0 .5.194.977.55 1.328.351.356.828.55 1.328.55.5 0 .977-.194 1.328-.55.356-.351.55-.828.55-1.328zm7 0c0-.5-.195-.977-.55-1.328a1.861 1.861 0 00-1.329-.55c-.5 0-.977.194-1.328.55-.356.351-.55.828-.55 1.328 0 .5.194.977.55 1.328.351.356.828.55 1.328.55.5 0 .977-.194 1.328-.55.356-.351.55-.828.55-1.328zm8-1c0-.5-.195-.977-.55-1.328a1.861 1.861 0 00-1.329-.55c-.5 0-.977.194-1.328.55-.356.351-.55.828-.55 1.328 0 .5.194.977.55 1.328.351.356.828.55 1.328.55.5 0 .977-.194 1.328-.55.356-.351.55-.828.55-1.328zm7 0c0-.5-.195-.977-.55-1.328a1.861 1.861 0 00-1.329-.55c-.5 0-.977.194-1.328.55-.356.351-.55.828-.55 1.328 0 .5.194.977.55 1.328.351.356.828.55 1.328.55.5 0 .977-.194 1.328-.55.356-.351.55-.828.55-1.328zm7-2c0-.5-.195-.977-.55-1.328a1.861 1.861 0 00-1.329-.55c-.5 0-.977.194-1.328.55-.356.351-.55.828-.55 1.328 0 .5.194.977.55 1.328.351.356.828.55 1.328.55.5 0 .977-.194 1.328-.55.356-.351.55-.828.55-1.328zm8-3c0-.5-.195-.977-.55-1.328a1.861 1.861 0 00-1.329-.55c-.5 0-.977.194-1.328.55-.356.351-.55.828-.55 1.328 0 .5.194.977.55 1.328.351.356.828.55 1.328.55.5 0 .977-.194 1.328-.55.356-.351.55-.828.55-1.328zm7-4c0-.5-.195-.977-.55-1.328a1.861 1.861 0 00-1.329-.55c-.5 0-.977.194-1.328.55-.356.351-.55.828-.55 1.328 0 .5.194.977.55 1.328.351.356.828.55 1.328.55.5 0 .977-.194 1.328-.55.356-.351.55-.828.55-1.328zm8-1c0-.5-.195-.977-.55-1.328a1.861 1.861 0 00-1.329-.55c-.5 0-.977.194-1.328.55-.356.351-.55.828-.55 1.328 0 .5.194.977.55 1.328.351.356.828.55 1.328.55.5 0 .977-.194 1.328-.55.356-.351.55-.828.55-1.328zm7-16c0-.5-.195-.977-.55-1.328a1.861 1.861 0 00-1.329-.55c-.5 0-.977.194-1.328.55-.356.351-.55.828-.55 1.328 0 .5.194.977.55 1.328.351.356.828.55 1.328.55.5 0 .977-.194 1.328-.55.356-.351.55-.828.55-1.328zm8 5c0-.5-.195-.977-.55-1.328a1.861 1.861 0 00-1.329-.55c-.5 0-.977.194-1.328.55-.356.351-.55.828-.55 1.328 0 .5.194.977.55 1.328.351.356.828.55 1.328.55.5 0 .977-.194 1.328-.55.356-.351.55-.828.55-1.328zm7-4c0-.5-.195-.977-.55-1.328a1.861 1.861 0 00-1.329-.55c-.5 0-.977.194-1.328.55-.356.351-.55.828-.55 1.328 0 .5.194.977.55 1.328.351.356.828.55 1.328.55.5 0 .977-.194 1.328-.55.356-.351.55-.828.55-1.328zm7-4c0-.5-.195-.977-.55-1.328a1.861 1.861 0 00-1.329-.55c-.5 0-.977.194-1.328.55-.356.351-.55.828-.55 1.328 0 .5.194.977.55 1.328.351.356.828.55 1.328.55.5 0 .977-.194 1.328-.55.356-.351.55-.828.55-1.328zm8-2c0-.5-.195-.977-.55-1.328a1.861 1.861 0 00-1.329-.55c-.5 0-.977.194-1.328.55-.356.351-.55.828-.55 1.328 0 .5.194.977.55 1.328.351.356.828.55 1.328.55.5 0 .977-.194 1.328-.55.356-.351.55-.828.55-1.328zm7-7c0-.5-.195-.977-.55-1.328a1.861 1.861 0 00-1.329-.55c-.5 0-.977.194-1.328.55-.356.351-.55.828-.55 1.328 0 .5.194.977.55 1.328.351.356.828.55 1.328.55.5 0 .977-.194 1.328-.55.356-.351.55-.828.55-1.328zm8-4c0-.5-.195-.977-.55-1.328a1.861 1.861 0 00-1.329-.55c-.5 0-.977.194-1.328.55-.356.351-.55.828-.55 1.328 0 .5.194.977.55 1.328.351.356.828.55 1.328.55.5 0 .977-.194 1.328-.55.356-.351.55-.828.55-1.328zm7-7c0-.5-.195-.977-.55-1.328a1.861 1.861 0 00-1.329-.55c-.5 0-.977.194-1.328.55-.356.351-.55.828-.55 1.328 0 .5.194.977.55 1.328.351.356.828.55 1.328.55.5 0 .977-.194 1.328-.55.356-.351.55-.828.55-1.328zm8-10c0-.5-.195-.977-.55-1.328a1.861 1.861 0 00-1.329-.55c-.5 0-.977.194-1.328.55-.356.351-.55.828-.55 1.328 0 .5.194.977.55 1.328.351.356.828.55 1.328.55.5 0 .977-.194 1.328-.55.356-.351.55-.828.55-1.328zm7 3c0-.5-.195-.977-.55-1.328a1.861 1.861 0 00-1.329-.55c-.5 0-.977.194-1.328.55-.356.351-.55.828-.55 1.328 0 .5.194.977.55 1.328.351.356.828.55 1.328.55.5 0 .977-.194 1.328-.55.356-.351.55-.828.55-1.328zm7 9c0-.5-.195-.977-.55-1.328a1.861 1.861 0 00-1.329-.55c-.5 0-.977.194-1.328.55-.356.351-.55.828-.55 1.328 0 .5.194.977.55 1.328.351.356.828.55 1.328.55.5 0 .977-.194 1.328-.55.356-.351.55-.828.55-1.328zm8-4c0-.5-.195-.977-.55-1.328a1.861 1.861 0 00-1.329-.55c-.5 0-.977.194-1.328.55-.356.351-.55.828-.55 1.328 0 .5.194.977.55 1.328.351.356.828.55 1.328.55.5 0 .977-.194 1.328-.55.356-.351.55-.828.55-1.328zm7 12c0-.5-.195-.977-.55-1.328a1.861 1.861 0 00-1.329-.55c-.5 0-.977.194-1.328.55-.356.351-.55.828-.55 1.328 0 .5.194.977.55 1.328.351.356.828.55 1.328.55.5 0 .977-.194 1.328-.55.356-.351.55-.828.55-1.328zm8-7c0-.5-.195-.977-.55-1.328a1.861 1.861 0 00-1.329-.55c-.5 0-.977.194-1.328.55-.356.351-.55.828-.55 1.328 0 .5.194.977.55 1.328.351.356.828.55 1.328.55.5 0 .977-.194 1.328-.55.356-.351.55-.828.55-1.328zm7 9c0-.5-.195-.977-.55-1.328a1.861 1.861 0 00-1.329-.55c-.5 0-.977.194-1.328.55-.356.351-.55.828-.55 1.328 0 .5.194.977.55 1.328.351.356.828.55 1.328.55.5 0 .977-.194 1.328-.55.356-.351.55-.828.55-1.328zm8 8c0-.5-.195-.977-.55-1.328a1.861 1.861 0 00-1.329-.55c-.5 0-.977.194-1.328.55-.356.351-.55.828-.55 1.328 0 .5.194.977.55 1.328.351.356.828.55 1.328.55.5 0 .977-.194 1.328-.55.356-.351.55-.828.55-1.328zm7-190c0-.5-.195-.977-.55-1.328a1.861 1.861 0 00-1.329-.55c-.5 0-.977.194-1.328.55-.356.351-.55.828-.55 1.328 0 .5.194.977.55 1.328.351.356.828.55 1.328.55.5 0 .977-.194 1.328-.55.356-.351.55-.828.55-1.328zm7 141c0-.5-.195-.977-.55-1.328a1.861 1.861 0 00-1.329-.55c-.5 0-.977.194-1.328.55-.356.351-.55.828-.55 1.328 0 .5.194.977.55 1.328.351.356.828.55 1.328.55.5 0 .977-.194 1.328-.55.356-.351.55-.828.55-1.328zm8 39c0-.5-.195-.977-.55-1.328a1.861 1.861 0 00-1.329-.55c-.5 0-.977.194-1.328.55-.356.351-.55.828-.55 1.328 0 .5.194.977.55 1.328.351.356.828.55 1.328.55.5 0 .977-.194 1.328-.55.356-.351.55-.828.55-1.328zm7 10c0-.5-.195-.977-.55-1.328a1.861 1.861 0 00-1.329-.55c-.5 0-.977.194-1.328.55-.356.351-.55.828-.55 1.328 0 .5.194.977.55 1.328.351.356.828.55 1.328.55.5 0 .977-.194 1.328-.55.356-.351.55-.828.55-1.328zm8-1c0-.5-.195-.977-.55-1.328a1.861 1.861 0 00-1.329-.55c-.5 0-.977.194-1.328.55-.356.351-.55.828-.55 1.328 0 .5.194.977.55 1.328.351.356.828.55 1.328.55.5 0 .977-.194 1.328-.55.356-.351.55-.828.55-1.328zm7 3c0-.5-.195-.977-.55-1.328a1.861 1.861 0 00-1.329-.55c-.5 0-.977.194-1.328.55-.356.351-.55.828-.55 1.328 0 .5.194.977.55 1.328.351.356.828.55 1.328.55.5 0 .977-.194 1.328-.55.356-.351.55-.828.55-1.328zm8 2c0-.5-.195-.977-.55-1.328a1.861 1.861 0 00-1.329-.55c-.5 0-.977.194-1.328.55-.356.351-.55.828-.55 1.328 0 .5.194.977.55 1.328.351.356.828.55 1.328.55.5 0 .977-.194 1.328-.55.356-.351.55-.828.55-1.328zm7 14c0-.5-.195-.977-.55-1.328a1.861 1.861 0 00-1.329-.55c-.5 0-.977.194-1.328.55-.356.351-.55.828-.55 1.328 0 .5.194.977.55 1.328.351.356.828.55 1.328.55.5 0 .977-.194 1.328-.55.356-.351.55-.828.55-1.328zm7-1c0-.5-.195-.977-.55-1.328a1.861 1.861 0 00-1.329-.55c-.5 0-.977.194-1.328.55-.356.351-.55.828-.55 1.328 0 .5.194.977.55 1.328.351.356.828.55 1.328.55.5 0 .977-.194 1.328-.55.356-.351.55-.828.55-1.328zm8 8c0-.5-.195-.977-.55-1.328a1.861 1.861 0 00-1.329-.55c-.5 0-.977.194-1.328.55-.356.351-.55.828-.55 1.328 0 .5.194.977.55 1.328.351.356.828.55 1.328.55.5 0 .977-.194 1.328-.55.356-.351.55-.828.55-1.328zm7-4c0-.5-.195-.977-.55-1.328a1.861 1.861 0 00-1.329-.55c-.5 0-.977.194-1.328.55-.356.351-.55.828-.55 1.328 0 .5.194.977.55 1.328.351.356.828.55 1.328.55.5 0 .977-.194 1.328-.55.356-.351.55-.828.55-1.328zm8 4c0-.5-.195-.977-.55-1.328a1.861 1.861 0 00-1.329-.55c-.5 0-.977.194-1.328.55-.356.351-.55.828-.55 1.328 0 .5.194.977.55 1.328.351.356.828.55 1.328.55.5 0 .977-.194 1.328-.55.356-.351.55-.828.55-1.328zm7-2c0-.5-.195-.977-.55-1.328a1.861 1.861 0 00-1.329-.55c-.5 0-.977.194-1.328.55-.356.351-.55.828-.55 1.328 0 .5.194.977.55 1.328.351.356.828.55 1.328.55.5 0 .977-.194 1.328-.55.356-.351.55-.828.55-1.328zm8 2c0-.5-.195-.977-.55-1.328a1.861 1.861 0 00-1.329-.55c-.5 0-.977.194-1.328.55-.356.351-.55.828-.55 1.328 0 .5.194.977.55 1.328.351.356.828.55 1.328.55.5 0 .977-.194 1.328-.55.356-.351.55-.828.55-1.328zm7-1c0-.5-.195-.977-.55-1.328a1.861 1.861 0 00-1.329-.55c-.5 0-.977.194-1.328.55-.356.351-.55.828-.55 1.328 0 .5.194.977.55 1.328.351.356.828.55 1.328.55.5 0 .977-.194 1.328-.55.356-.351.55-.828.55-1.328zm7 2c0-.5-.195-.977-.55-1.328a1.861 1.861 0 00-1.329-.55c-.5 0-.977.194-1.328.55-.356.351-.55.828-.55 1.328 0 .5.194.977.55 1.328.351.356.828.55 1.328.55.5 0 .977-.194 1.328-.55.356-.351.55-.828.55-1.328zm8-2c0-.5-.195-.977-.55-1.328a1.861 1.861 0 00-1.329-.55c-.5 0-.977.194-1.328.55-.356.351-.55.828-.55 1.328 0 .5.194.977.55 1.328.351.356.828.55 1.328.55.5 0 .977-.194 1.328-.55.356-.351.55-.828.55-1.328zm0 0" fill-rule="evenodd" fill="#a60000"/><path d="M42.879 245c0-.5-.195-.977-.55-1.328a1.861 1.861 0 00-1.329-.55c-.5 0-.977.194-1.328.55-.356.351-.55.828-.55 1.328 0 .5.194.977.55 1.328.351.356.828.55 1.328.55.5 0 .977-.194 1.328-.55.356-.351.55-.828.55-1.328zm8 0c0-.5-.195-.977-.55-1.328a1.861 1.861 0 00-1.329-.55c-.5 0-.977.194-1.328.55-.356.351-.55.828-.55 1.328 0 .5.194.977.55 1.328.351.356.828.55 1.328.55.5 0 .977-.194 1.328-.55.356-.351.55-.828.55-1.328zm7 0c0-.5-.195-.977-.55-1.328a1.861 1.861 0 00-1.329-.55c-.5 0-.977.194-1.328.55-.356.351-.55.828-.55 1.328 0 .5.194.977.55 1.328.351.356.828.55 1.328.55.5 0 .977-.194 1.328-.55.356-.351.55-.828.55-1.328zm7 0c0-.5-.195-.977-.55-1.328a1.861 1.861 0 00-1.329-.55c-.5 0-.977.194-1.328.55-.356.351-.55.828-.55 1.328 0 .5.194.977.55 1.328.351.356.828.55 1.328.55.5 0 .977-.194 1.328-.55.356-.351.55-.828.55-1.328zm8 0c0-.5-.195-.977-.55-1.328a1.861 1.861 0 00-1.329-.55c-.5 0-.977.194-1.328.55-.356.351-.55.828-.55 1.328 0 .5.194.977.55 1.328.351.356.828.55 1.328.55.5 0 .977-.194 1.328-.55.356-.351.55-.828.55-1.328zm7 0c0-.5-.195-.977-.55-1.328a1.861 1.861 0 00-1.329-.55c-.5 0-.977.194-1.328.55-.356.351-.55.828-.55 1.328 0 .5.194.977.55 1.328.351.356.828.55 1.328.55.5 0 .977-.194 1.328-.55.356-.351.55-.828.55-1.328zm8 0c0-.5-.195-.977-.55-1.328a1.861 1.861 0 00-1.329-.55c-.5 0-.977.194-1.328.55-.356.351-.55.828-.55 1.328 0 .5.194.977.55 1.328.351.356.828.55 1.328.55.5 0 .977-.194 1.328-.55.356-.351.55-.828.55-1.328zm7 0c0-.5-.195-.977-.55-1.328a1.861 1.861 0 00-1.329-.55c-.5 0-.977.194-1.328.55-.356.351-.55.828-.55 1.328 0 .5.194.977.55 1.328.351.356.828.55 1.328.55.5 0 .977-.194 1.328-.55.356-.351.55-.828.55-1.328zm8 0c0-.5-.195-.977-.55-1.328a1.861 1.861 0 00-1.329-.55c-.5 0-.977.194-1.328.55-.356.351-.55.828-.55 1.328 0 .5.194.977.55 1.328.351.356.828.55 1.328.55.5 0 .977-.194 1.328-.55.356-.351.55-.828.55-1.328zm7 0c0-.5-.195-.977-.55-1.328a1.861 1.861 0 00-1.329-.55c-.5 0-.977.194-1.328.55-.356.351-.55.828-.55 1.328 0 .5.194.977.55 1.328.351.356.828.55 1.328.55.5 0 .977-.194 1.328-.55.356-.351.55-.828.55-1.328zm8 0c0-.5-.195-.977-.55-1.328a1.861 1.861 0 00-1.329-.55c-.5 0-.977.194-1.328.55-.356.351-.55.828-.55 1.328 0 .5.194.977.55 1.328.351.356.828.55 1.328.55.5 0 .977-.194 1.328-.55.356-.351.55-.828.55-1.328zm7 0c0-.5-.195-.977-.55-1.328a1.861 1.861 0 00-1.329-.55c-.5 0-.977.194-1.328.55-.356.351-.55.828-.55 1.328 0 .5.194.977.55 1.328.351.356.828.55 1.328.55.5 0 .977-.194 1.328-.55.356-.351.55-.828.55-1.328zm7 0c0-.5-.195-.977-.55-1.328a1.861 1.861 0 00-1.329-.55c-.5 0-.977.194-1.328.55-.356.351-.55.828-.55 1.328 0 .5.194.977.55 1.328.351.356.828.55 1.328.55.5 0 .977-.194 1.328-.55.356-.351.55-.828.55-1.328zm8 0c0-.5-.195-.977-.55-1.328a1.861 1.861 0 00-1.329-.55c-.5 0-.977.194-1.328.55-.356.351-.55.828-.55 1.328 0 .5.194.977.55 1.328.351.356.828.55 1.328.55.5 0 .977-.194 1.328-.55.356-.351.55-.828.55-1.328zm7 0c0-.5-.195-.977-.55-1.328a1.861 1.861 0 00-1.329-.55c-.5 0-.977.194-1.328.55-.356.351-.55.828-.55 1.328 0 .5.194.977.55 1.328.351.356.828.55 1.328.55.5 0 .977-.194 1.328-.55.356-.351.55-.828.55-1.328zm8 0c0-.5-.195-.977-.55-1.328a1.861 1.861 0 00-1.329-.55c-.5 0-.977.194-1.328.55-.356.351-.55.828-.55 1.328 0 .5.194.977.55 1.328.351.356.828.55 1.328.55.5 0 .977-.194 1.328-.55.356-.351.55-.828.55-1.328zm7 0c0-.5-.195-.977-.55-1.328a1.861 1.861 0 00-1.329-.55c-.5 0-.977.194-1.328.55-.356.351-.55.828-.55 1.328 0 .5.194.977.55 1.328.351.356.828.55 1.328.55.5 0 .977-.194 1.328-.55.356-.351.55-.828.55-1.328zm8 0c0-.5-.195-.977-.55-1.328a1.861 1.861 0 00-1.329-.55c-.5 0-.977.194-1.328.55-.356.351-.55.828-.55 1.328 0 .5.194.977.55 1.328.351.356.828.55 1.328.55.5 0 .977-.194 1.328-.55.356-.351.55-.828.55-1.328zm7 0c0-.5-.195-.977-.55-1.328a1.861 1.861 0 00-1.329-.55c-.5 0-.977.194-1.328.55-.356.351-.55.828-.55 1.328 0 .5.194.977.55 1.328.351.356.828.55 1.328.55.5 0 .977-.194 1.328-.55.356-.351.55-.828.55-1.328zm7 0c0-.5-.195-.977-.55-1.328a1.861 1.861 0 00-1.329-.55c-.5 0-.977.194-1.328.55-.356.351-.55.828-.55 1.328 0 .5.194.977.55 1.328.351.356.828.55 1.328.55.5 0 .977-.194 1.328-.55.356-.351.55-.828.55-1.328zm8-1c0-.5-.195-.977-.55-1.328a1.861 1.861 0 00-1.329-.55c-.5 0-.977.194-1.328.55-.356.351-.55.828-.55 1.328 0 .5.194.977.55 1.328.351.356.828.55 1.328.55.5 0 .977-.194 1.328-.55.356-.351.55-.828.55-1.328zm7 0c0-.5-.195-.977-.55-1.328a1.861 1.861 0 00-1.329-.55c-.5 0-.977.194-1.328.55-.356.351-.55.828-.55 1.328 0 .5.194.977.55 1.328.351.356.828.55 1.328.55.5 0 .977-.194 1.328-.55.356-.351.55-.828.55-1.328zm8 0c0-.5-.195-.977-.55-1.328a1.861 1.861 0 00-1.329-.55c-.5 0-.977.194-1.328.55-.356.351-.55.828-.55 1.328 0 .5.194.977.55 1.328.351.356.828.55 1.328.55.5 0 .977-.194 1.328-.55.356-.351.55-.828.55-1.328zm7 0c0-.5-.195-.977-.55-1.328a1.861 1.861 0 00-1.329-.55c-.5 0-.977.194-1.328.55-.356.351-.55.828-.55 1.328 0 .5.194.977.55 1.328.351.356.828.55 1.328.55.5 0 .977-.194 1.328-.55.356-.351.55-.828.55-1.328zm8 0c0-.5-.195-.977-.55-1.328a1.861 1.861 0 00-1.329-.55c-.5 0-.977.194-1.328.55-.356.351-.55.828-.55 1.328 0 .5.194.977.55 1.328.351.356.828.55 1.328.55.5 0 .977-.194 1.328-.55.356-.351.55-.828.55-1.328zm7 0c0-.5-.195-.977-.55-1.328a1.861 1.861 0 00-1.329-.55c-.5 0-.977.194-1.328.55-.356.351-.55.828-.55 1.328 0 .5.194.977.55 1.328.351.356.828.55 1.328.55.5 0 .977-.194 1.328-.55.356-.351.55-.828.55-1.328zm7 0c0-.5-.195-.977-.55-1.328a1.861 1.861 0 00-1.329-.55c-.5 0-.977.194-1.328.55-.356.351-.55.828-.55 1.328 0 .5.194.977.55 1.328.351.356.828.55 1.328.55.5 0 .977-.194 1.328-.55.356-.351.55-.828.55-1.328zm8 0c0-.5-.195-.977-.55-1.328a1.861 1.861 0 00-1.329-.55c-.5 0-.977.194-1.328.55-.356.351-.55.828-.55 1.328 0 .5.194.977.55 1.328.351.356.828.55 1.328.55.5 0 .977-.194 1.328-.55.356-.351.55-.828.55-1.328zm7 0c0-.5-.195-.977-.55-1.328a1.861 1.861 0 00-1.329-.55c-.5 0-.977.194-1.328.55-.356.351-.55.828-.55 1.328 0 .5.194.977.55 1.328.351.356.828.55 1.328.55.5 0 .977-.194 1.328-.55.356-.351.55-.828.55-1.328zm8 0c0-.5-.195-.977-.55-1.328a1.861 1.861 0 00-1.329-.55c-.5 0-.977.194-1.328.55-.356.351-.55.828-.55 1.328 0 .5.194.977.55 1.328.351.356.828.55 1.328.55.5 0 .977-.194 1.328-.55.356-.351.55-.828.55-1.328zm7 0c0-.5-.195-.977-.55-1.328a1.861 1.861 0 00-1.329-.55c-.5 0-.977.194-1.328.55-.356.351-.55.828-.55 1.328 0 .5.194.977.55 1.328.351.356.828.55 1.328.55.5 0 .977-.194 1.328-.55.356-.351.55-.828.55-1.328zm8 0c0-.5-.195-.977-.55-1.328a1.861 1.861 0 00-1.329-.55c-.5 0-.977.194-1.328.55-.356.351-.55.828-.55 1.328 0 .5.194.977.55 1.328.351.356.828.55 1.328.55.5 0 .977-.194 1.328-.55.356-.351.55-.828.55-1.328zm7-1c0-.5-.195-.977-.55-1.328a1.861 1.861 0 00-1.329-.55c-.5 0-.977.194-1.328.55-.356.351-.55.828-.55 1.328 0 .5.194.977.55 1.328.351.356.828.55 1.328.55.5 0 .977-.194 1.328-.55.356-.351.55-.828.55-1.328zm7 0c0-.5-.195-.977-.55-1.328a1.861 1.861 0 00-1.329-.55c-.5 0-.977.194-1.328.55-.356.351-.55.828-.55 1.328 0 .5.194.977.55 1.328.351.356.828.55 1.328.55.5 0 .977-.194 1.328-.55.356-.351.55-.828.55-1.328zm8 0c0-.5-.195-.977-.55-1.328a1.861 1.861 0 00-1.329-.55c-.5 0-.977.194-1.328.55-.356.351-.55.828-.55 1.328 0 .5.194.977.55 1.328.351.356.828.55 1.328.55.5 0 .977-.194 1.328-.55.356-.351.55-.828.55-1.328zm7 0c0-.5-.195-.977-.55-1.328a1.861 1.861 0 00-1.329-.55c-.5 0-.977.194-1.328.55-.356.351-.55.828-.55 1.328 0 .5.194.977.55 1.328.351.356.828.55 1.328.55.5 0 .977-.194 1.328-.55.356-.351.55-.828.55-1.328zm8 1c0-.5-.195-.977-.55-1.328a1.861 1.861 0 00-1.329-.55c-.5 0-.977.194-1.328.55-.356.351-.55.828-.55 1.328 0 .5.194.977.55 1.328.351.356.828.55 1.328.55.5 0 .977-.194 1.328-.55.356-.351.55-.828.55-1.328zm7 0c0-.5-.195-.977-.55-1.328a1.861 1.861 0 00-1.329-.55c-.5 0-.977.194-1.328.55-.356.351-.55.828-.55 1.328 0 .5.194.977.55 1.328.351.356.828.55 1.328.55.5 0 .977-.194 1.328-.55.356-.351.55-.828.55-1.328zm8-1c0-.5-.195-.977-.55-1.328a1.861 1.861 0 00-1.329-.55c-.5 0-.977.194-1.328.55-.356.351-.55.828-.55 1.328 0 .5.194.977.55 1.328.351.356.828.55 1.328.55.5 0 .977-.194 1.328-.55.356-.351.55-.828.55-1.328zm7 0c0-.5-.195-.977-.55-1.328a1.861 1.861 0 00-1.329-.55c-.5 0-.977.194-1.328.55-.356.351-.55.828-.55 1.328 0 .5.194.977.55 1.328.351.356.828.55 1.328.55.5 0 .977-.194 1.328-.55.356-.351.55-.828.55-1.328zm7 0c0-.5-.195-.977-.55-1.328a1.861 1.861 0 00-1.329-.55c-.5 0-.977.194-1.328.55-.356.351-.55.828-.55 1.328 0 .5.194.977.55 1.328.351.356.828.55 1.328.55.5 0 .977-.194 1.328-.55.356-.351.55-.828.55-1.328zm8 0c0-.5-.195-.977-.55-1.328a1.861 1.861 0 00-1.329-.55c-.5 0-.977.194-1.328.55-.356.351-.55.828-.55 1.328 0 .5.194.977.55 1.328.351.356.828.55 1.328.55.5 0 .977-.194 1.328-.55.356-.351.55-.828.55-1.328zm7 1c0-.5-.195-.977-.55-1.328a1.861 1.861 0 00-1.329-.55c-.5 0-.977.194-1.328.55-.356.351-.55.828-.55 1.328 0 .5.194.977.55 1.328.351.356.828.55 1.328.55.5 0 .977-.194 1.328-.55.356-.351.55-.828.55-1.328zm8-1c0-.5-.195-.977-.55-1.328a1.861 1.861 0 00-1.329-.55c-.5 0-.977.194-1.328.55-.356.351-.55.828-.55 1.328 0 .5.194.977.55 1.328.351.356.828.55 1.328.55.5 0 .977-.194 1.328-.55.356-.351.55-.828.55-1.328zm7 1c0-.5-.195-.977-.55-1.328a1.861 1.861 0 00-1.329-.55c-.5 0-.977.194-1.328.55-.356.351-.55.828-.55 1.328 0 .5.194.977.55 1.328.351.356.828.55 1.328.55.5 0 .977-.194 1.328-.55.356-.351.55-.828.55-1.328zm8 0c0-.5-.195-.977-.55-1.328a1.861 1.861 0 00-1.329-.55c-.5 0-.977.194-1.328.55-.356.351-.55.828-.55 1.328 0 .5.194.977.55 1.328.351.356.828.55 1.328.55.5 0 .977-.194 1.328-.55.356-.351.55-.828.55-1.328zm7 1c0-.5-.195-.977-.55-1.328a1.861 1.861 0 00-1.329-.55c-.5 0-.977.194-1.328.55-.356.351-.55.828-.55 1.328 0 .5.194.977.55 1.328.351.356.828.55 1.328.55.5 0 .977-.194 1.328-.55.356-.351.55-.828.55-1.328zm7 0c0-.5-.195-.977-.55-1.328a1.861 1.861 0 00-1.329-.55c-.5 0-.977.194-1.328.55-.356.351-.55.828-.55 1.328 0 .5.194.977.55 1.328.351.356.828.55 1.328.55.5 0 .977-.194 1.328-.55.356-.351.55-.828.55-1.328zm8-1c0-.5-.195-.977-.55-1.328a1.861 1.861 0 00-1.329-.55c-.5 0-.977.194-1.328.55-.356.351-.55.828-.55 1.328 0 .5.194.977.55 1.328.351.356.828.55 1.328.55.5 0 .977-.194 1.328-.55.356-.351.55-.828.55-1.328zm0 0" fill-rule="evenodd" fill="#0d86a0"/><path d="M42.879 245c0-.5-.195-.977-.55-1.328a1.861 1.861 0 00-1.329-.55c-.5 0-.977.194-1.328.55-.356.351-.55.828-.55 1.328 0 .5.194.977.55 1.328.351.356.828.55 1.328.55.5 0 .977-.194 1.328-.55.356-.351.55-.828.55-1.328zm8 0c0-.5-.195-.977-.55-1.328a1.861 1.861 0 00-1.329-.55c-.5 0-.977.194-1.328.55-.356.351-.55.828-.55 1.328 0 .5.194.977.55 1.328.351.356.828.55 1.328.55.5 0 .977-.194 1.328-.55.356-.351.55-.828.55-1.328zm7 0c0-.5-.195-.977-.55-1.328a1.861 1.861 0 00-1.329-.55c-.5 0-.977.194-1.328.55-.356.351-.55.828-.55 1.328 0 .5.194.977.55 1.328.351.356.828.55 1.328.55.5 0 .977-.194 1.328-.55.356-.351.55-.828.55-1.328zm7 0c0-.5-.195-.977-.55-1.328a1.861 1.861 0 00-1.329-.55c-.5 0-.977.194-1.328.55-.356.351-.55.828-.55 1.328 0 .5.194.977.55 1.328.351.356.828.55 1.328.55.5 0 .977-.194 1.328-.55.356-.351.55-.828.55-1.328zm8 0c0-.5-.195-.977-.55-1.328a1.861 1.861 0 00-1.329-.55c-.5 0-.977.194-1.328.55-.356.351-.55.828-.55 1.328 0 .5.194.977.55 1.328.351.356.828.55 1.328.55.5 0 .977-.194 1.328-.55.356-.351.55-.828.55-1.328zm7 0c0-.5-.195-.977-.55-1.328a1.861 1.861 0 00-1.329-.55c-.5 0-.977.194-1.328.55-.356.351-.55.828-.55 1.328 0 .5.194.977.55 1.328.351.356.828.55 1.328.55.5 0 .977-.194 1.328-.55.356-.351.55-.828.55-1.328zm8 0c0-.5-.195-.977-.55-1.328a1.861 1.861 0 00-1.329-.55c-.5 0-.977.194-1.328.55-.356.351-.55.828-.55 1.328 0 .5.194.977.55 1.328.351.356.828.55 1.328.55.5 0 .977-.194 1.328-.55.356-.351.55-.828.55-1.328zm7 0c0-.5-.195-.977-.55-1.328a1.861 1.861 0 00-1.329-.55c-.5 0-.977.194-1.328.55-.356.351-.55.828-.55 1.328 0 .5.194.977.55 1.328.351.356.828.55 1.328.55.5 0 .977-.194 1.328-.55.356-.351.55-.828.55-1.328zm8 0c0-.5-.195-.977-.55-1.328a1.861 1.861 0 00-1.329-.55c-.5 0-.977.194-1.328.55-.356.351-.55.828-.55 1.328 0 .5.194.977.55 1.328.351.356.828.55 1.328.55.5 0 .977-.194 1.328-.55.356-.351.55-.828.55-1.328zm7 0c0-.5-.195-.977-.55-1.328a1.861 1.861 0 00-1.329-.55c-.5 0-.977.194-1.328.55-.356.351-.55.828-.55 1.328 0 .5.194.977.55 1.328.351.356.828.55 1.328.55.5 0 .977-.194 1.328-.55.356-.351.55-.828.55-1.328zm8 0c0-.5-.195-.977-.55-1.328a1.861 1.861 0 00-1.329-.55c-.5 0-.977.194-1.328.55-.356.351-.55.828-.55 1.328 0 .5.194.977.55 1.328.351.356.828.55 1.328.55.5 0 .977-.194 1.328-.55.356-.351.55-.828.55-1.328zm7 0c0-.5-.195-.977-.55-1.328a1.861 1.861 0 00-1.329-.55c-.5 0-.977.194-1.328.55-.356.351-.55.828-.55 1.328 0 .5.194.977.55 1.328.351.356.828.55 1.328.55.5 0 .977-.194 1.328-.55.356-.351.55-.828.55-1.328zm7 0c0-.5-.195-.977-.55-1.328a1.861 1.861 0 00-1.329-.55c-.5 0-.977.194-1.328.55-.356.351-.55.828-.55 1.328 0 .5.194.977.55 1.328.351.356.828.55 1.328.55.5 0 .977-.194 1.328-.55.356-.351.55-.828.55-1.328zm8 0c0-.5-.195-.977-.55-1.328a1.861 1.861 0 00-1.329-.55c-.5 0-.977.194-1.328.55-.356.351-.55.828-.55 1.328 0 .5.194.977.55 1.328.351.356.828.55 1.328.55.5 0 .977-.194 1.328-.55.356-.351.55-.828.55-1.328zm7 0c0-.5-.195-.977-.55-1.328a1.861 1.861 0 00-1.329-.55c-.5 0-.977.194-1.328.55-.356.351-.55.828-.55 1.328 0 .5.194.977.55 1.328.351.356.828.55 1.328.55.5 0 .977-.194 1.328-.55.356-.351.55-.828.55-1.328zm8 0c0-.5-.195-.977-.55-1.328a1.861 1.861 0 00-1.329-.55c-.5 0-.977.194-1.328.55-.356.351-.55.828-.55 1.328 0 .5.194.977.55 1.328.351.356.828.55 1.328.55.5 0 .977-.194 1.328-.55.356-.351.55-.828.55-1.328zm7 0c0-.5-.195-.977-.55-1.328a1.861 1.861 0 00-1.329-.55c-.5 0-.977.194-1.328.55-.356.351-.55.828-.55 1.328 0 .5.194.977.55 1.328.351.356.828.55 1.328.55.5 0 .977-.194 1.328-.55.356-.351.55-.828.55-1.328zm8 0c0-.5-.195-.977-.55-1.328a1.861 1.861 0 00-1.329-.55c-.5 0-.977.194-1.328.55-.356.351-.55.828-.55 1.328 0 .5.194.977.55 1.328.351.356.828.55 1.328.55.5 0 .977-.194 1.328-.55.356-.351.55-.828.55-1.328zm7 0c0-.5-.195-.977-.55-1.328a1.861 1.861 0 00-1.329-.55c-.5 0-.977.194-1.328.55-.356.351-.55.828-.55 1.328 0 .5.194.977.55 1.328.351.356.828.55 1.328.55.5 0 .977-.194 1.328-.55.356-.351.55-.828.55-1.328zm7-1c0-.5-.195-.977-.55-1.328a1.861 1.861 0 00-1.329-.55c-.5 0-.977.194-1.328.55-.356.351-.55.828-.55 1.328 0 .5.194.977.55 1.328.351.356.828.55 1.328.55.5 0 .977-.194 1.328-.55.356-.351.55-.828.55-1.328zm8 0c0-.5-.195-.977-.55-1.328a1.861 1.861 0 00-1.329-.55c-.5 0-.977.194-1.328.55-.356.351-.55.828-.55 1.328 0 .5.194.977.55 1.328.351.356.828.55 1.328.55.5 0 .977-.194 1.328-.55.356-.351.55-.828.55-1.328zm7 0c0-.5-.195-.977-.55-1.328a1.861 1.861 0 00-1.329-.55c-.5 0-.977.194-1.328.55-.356.351-.55.828-.55 1.328 0 .5.194.977.55 1.328.351.356.828.55 1.328.55.5 0 .977-.194 1.328-.55.356-.351.55-.828.55-1.328zm8-1c0-.5-.195-.977-.55-1.328a1.861 1.861 0 00-1.329-.55c-.5 0-.977.194-1.328.55-.356.351-.55.828-.55 1.328 0 .5.194.977.55 1.328.351.356.828.55 1.328.55.5 0 .977-.194 1.328-.55.356-.351.55-.828.55-1.328zm7 0c0-.5-.195-.977-.55-1.328a1.861 1.861 0 00-1.329-.55c-.5 0-.977.194-1.328.55-.356.351-.55.828-.55 1.328 0 .5.194.977.55 1.328.351.356.828.55 1.328.55.5 0 .977-.194 1.328-.55.356-.351.55-.828.55-1.328zm8-2c0-.5-.195-.977-.55-1.328a1.861 1.861 0 00-1.329-.55c-.5 0-.977.194-1.328.55-.356.351-.55.828-.55 1.328 0 .5.194.977.55 1.328.351.356.828.55 1.328.55.5 0 .977-.194 1.328-.55.356-.351.55-.828.55-1.328zm7 0c0-.5-.195-.977-.55-1.328a1.861 1.861 0 00-1.329-.55c-.5 0-.977.194-1.328.55-.356.351-.55.828-.55 1.328 0 .5.194.977.55 1.328.351.356.828.55 1.328.55.5 0 .977-.194 1.328-.55.356-.351.55-.828.55-1.328zm7-2c0-.5-.195-.977-.55-1.328a1.861 1.861 0 00-1.329-.55c-.5 0-.977.194-1.328.55-.356.351-.55.828-.55 1.328 0 .5.194.977.55 1.328.351.356.828.55 1.328.55.5 0 .977-.194 1.328-.55.356-.351.55-.828.55-1.328zm8-2c0-.5-.195-.977-.55-1.328a1.861 1.861 0 00-1.329-.55c-.5 0-.977.194-1.328.55-.356.351-.55.828-.55 1.328 0 .5.194.977.55 1.328.351.356.828.55 1.328.55.5 0 .977-.194 1.328-.55.356-.351.55-.828.55-1.328zm7-1c0-.5-.195-.977-.55-1.328a1.861 1.861 0 00-1.329-.55c-.5 0-.977.194-1.328.55-.356.351-.55.828-.55 1.328 0 .5.194.977.55 1.328.351.356.828.55 1.328.55.5 0 .977-.194 1.328-.55.356-.351.55-.828.55-1.328zm8-1c0-.5-.195-.977-.55-1.328a1.861 1.861 0 00-1.329-.55c-.5 0-.977.194-1.328.55-.356.351-.55.828-.55 1.328 0 .5.194.977.55 1.328.351.356.828.55 1.328.55.5 0 .977-.194 1.328-.55.356-.351.55-.828.55-1.328zm7-1c0-.5-.195-.977-.55-1.328a1.861 1.861 0 00-1.329-.55c-.5 0-.977.194-1.328.55-.356.351-.55.828-.55 1.328 0 .5.194.977.55 1.328.351.356.828.55 1.328.55.5 0 .977-.194 1.328-.55.356-.351.55-.828.55-1.328zm8 0c0-.5-.195-.977-.55-1.328a1.861 1.861 0 00-1.329-.55c-.5 0-.977.194-1.328.55-.356.351-.55.828-.55 1.328 0 .5.194.977.55 1.328.351.356.828.55 1.328.55.5 0 .977-.194 1.328-.55.356-.351.55-.828.55-1.328zm7-7c0-.5-.195-.977-.55-1.328a1.861 1.861 0 00-1.329-.55c-.5 0-.977.194-1.328.55-.356.351-.55.828-.55 1.328 0 .5.194.977.55 1.328.351.356.828.55 1.328.55.5 0 .977-.194 1.328-.55.356-.351.55-.828.55-1.328zm7 1c0-.5-.195-.977-.55-1.328a1.861 1.861 0 00-1.329-.55c-.5 0-.977.194-1.328.55-.356.351-.55.828-.55 1.328 0 .5.194.977.55 1.328.351.356.828.55 1.328.55.5 0 .977-.194 1.328-.55.356-.351.55-.828.55-1.328zm8-4c0-.5-.195-.977-.55-1.328a1.861 1.861 0 00-1.329-.55c-.5 0-.977.194-1.328.55-.356.351-.55.828-.55 1.328 0 .5.194.977.55 1.328.351.356.828.55 1.328.55.5 0 .977-.194 1.328-.55.356-.351.55-.828.55-1.328zm7 0c0-.5-.195-.977-.55-1.328a1.861 1.861 0 00-1.329-.55c-.5 0-.977.194-1.328.55-.356.351-.55.828-.55 1.328 0 .5.194.977.55 1.328.351.356.828.55 1.328.55.5 0 .977-.194 1.328-.55.356-.351.55-.828.55-1.328zm8-1c0-.5-.195-.977-.55-1.328a1.861 1.861 0 00-1.329-.55c-.5 0-.977.194-1.328.55-.356.351-.55.828-.55 1.328 0 .5.194.977.55 1.328.351.356.828.55 1.328.55.5 0 .977-.194 1.328-.55.356-.351.55-.828.55-1.328zm7-4c0-.5-.195-.977-.55-1.328a1.861 1.861 0 00-1.329-.55c-.5 0-.977.194-1.328.55-.356.351-.55.828-.55 1.328 0 .5.194.977.55 1.328.351.356.828.55 1.328.55.5 0 .977-.194 1.328-.55.356-.351.55-.828.55-1.328zm8-2c0-.5-.195-.977-.55-1.328a1.861 1.861 0 00-1.329-.55c-.5 0-.977.194-1.328.55-.356.351-.55.828-.55 1.328 0 .5.194.977.55 1.328.351.356.828.55 1.328.55.5 0 .977-.194 1.328-.55.356-.351.55-.828.55-1.328zm7 0c0-.5-.195-.977-.55-1.328a1.861 1.861 0 00-1.329-.55c-.5 0-.977.194-1.328.55-.356.351-.55.828-.55 1.328 0 .5.194.977.55 1.328.351.356.828.55 1.328.55.5 0 .977-.194 1.328-.55.356-.351.55-.828.55-1.328zm7-5c0-.5-.195-.977-.55-1.328a1.861 1.861 0 00-1.329-.55c-.5 0-.977.194-1.328.55-.356.351-.55.828-.55 1.328 0 .5.194.977.55 1.328.351.356.828.55 1.328.55.5 0 .977-.194 1.328-.55.356-.351.55-.828.55-1.328zm8-4c0-.5-.195-.977-.55-1.328a1.861 1.861 0 00-1.329-.55c-.5 0-.977.194-1.328.55-.356.351-.55.828-.55 1.328 0 .5.194.977.55 1.328.351.356.828.55 1.328.55.5 0 .977-.194 1.328-.55.356-.351.55-.828.55-1.328zm7 2c0-.5-.195-.977-.55-1.328a1.861 1.861 0 00-1.329-.55c-.5 0-.977.194-1.328.55-.356.351-.55.828-.55 1.328 0 .5.194.977.55 1.328.351.356.828.55 1.328.55.5 0 .977-.194 1.328-.55.356-.351.55-.828.55-1.328zm8 6c0-.5-.195-.977-.55-1.328a1.861 1.861 0 00-1.329-.55c-.5 0-.977.194-1.328.55-.356.351-.55.828-.55 1.328 0 .5.194.977.55 1.328.351.356.828.55 1.328.55.5 0 .977-.194 1.328-.55.356-.351.55-.828.55-1.328zm7-11c0-.5-.195-.977-.55-1.328a1.861 1.861 0 00-1.329-.55c-.5 0-.977.194-1.328.55-.356.351-.55.828-.55 1.328 0 .5.194.977.55 1.328.351.356.828.55 1.328.55.5 0 .977-.194 1.328-.55.356-.351.55-.828.55-1.328zm8 2c0-.5-.195-.977-.55-1.328a1.861 1.861 0 00-1.329-.55c-.5 0-.977.194-1.328.55-.356.351-.55.828-.55 1.328 0 .5.194.977.55 1.328.351.356.828.55 1.328.55.5 0 .977-.194 1.328-.55.356-.351.55-.828.55-1.328zm7-5c0-.5-.195-.977-.55-1.328a1.861 1.861 0 00-1.329-.55c-.5 0-.977.194-1.328.55-.356.351-.55.828-.55 1.328 0 .5.194.977.55 1.328.351.356.828.55 1.328.55.5 0 .977-.194 1.328-.55.356-.351.55-.828.55-1.328zm7-14c0-.5-.195-.977-.55-1.328a1.861 1.861 0 00-1.329-.55c-.5 0-.977.194-1.328.55-.356.351-.55.828-.55 1.328 0 .5.194.977.55 1.328.351.356.828.55 1.328.55.5 0 .977-.194 1.328-.55.356-.351.55-.828.55-1.328zm8 12c0-.5-.195-.977-.55-1.328a1.861 1.861 0 00-1.329-.55c-.5 0-.977.194-1.328.55-.356.351-.55.828-.55 1.328 0 .5.194.977.55 1.328.351.356.828.55 1.328.55.5 0 .977-.194 1.328-.55.356-.351.55-.828.55-1.328zm0 0" fill-rule="evenodd" fill="#c05c20"/><path d="M443.195 220.285h4.508l.29-.004.37-.011.465-.04.57-.085.68-.145.809-.227.937-.316 1.086-.434 1.211-.53 1.305-.602 1.355-.641 1.367-.64 1.344-.61 1.281-.547 1.176-.45 1.063-.335.965-.242.894-.156.848-.094.828-.047.828-.016h5.297" fill="none" stroke-width="4" stroke-linejoin="round" stroke="#fff" stroke-opacity=".667" stroke-miterlimit="3.25"/><path d="M443.195 220.285h4.508l.29-.004.37-.011.465-.04.57-.085.68-.145.809-.227.937-.316 1.086-.434 1.211-.53 1.305-.602 1.355-.641 1.367-.64 1.344-.61 1.281-.547 1.176-.45 1.063-.335.965-.242.894-.156.848-.094.828-.047.828-.016h5.297" fill="none" stroke-width="1.25" stroke-linecap="square" stroke="#aaa" stroke-miterlimit="3.25"/><path d="M497.672 206.613v15h-25v-15zm0 0" fill="#fff" fill-opacity=".667"/><use xlink:href="#a" x="475.171" y="216.612"/><use xlink:href="#b" x="485.171" y="216.612"/><path d="M443.195 244.39h4.797l.371-.011.465-.043.57-.086.68-.148.809-.227.937-.324 1.086-.438 1.211-.543 1.305-.613 1.355-.648 1.367-.653 1.344-.62 1.281-.556 1.176-.457 1.063-.343.965-.243.894-.16.848-.097.828-.047.828-.016h5.297" fill="none" stroke-width="4" stroke-linejoin="round" stroke="#fff" stroke-opacity=".667" stroke-miterlimit="3.25"/><path d="M443.195 244.39h4.797l.371-.011.465-.043.57-.086.68-.148.809-.227.937-.324 1.086-.438 1.211-.543 1.305-.613 1.355-.648 1.367-.653 1.344-.62 1.281-.556 1.176-.457 1.063-.343.965-.243.894-.16.848-.097.828-.047.828-.016h5.297" fill="none" stroke-width="1.25" stroke-linecap="square" stroke="#aaa" stroke-miterlimit="3.25"/><path d="M497.672 230.617v15h-25v-15zm0 0" fill="#fff" fill-opacity=".667"/><use xlink:href="#c" x="475.171" y="240.616"/><use xlink:href="#d" x="485.171" y="240.616"/><path d="M443.195 192.586h4.797l.371-.004.465-.016.57-.035.68-.058.809-.09.937-.13 1.086-.171 1.211-.215 1.305-.242 1.355-.258 1.367-.258 1.344-.242 1.281-.222 1.176-.18 1.063-.133.965-.098.894-.062.848-.04.828-.019.828-.004h5.297" fill="none" stroke-width="4" stroke-linejoin="round" stroke="#fff" stroke-opacity=".667" stroke-miterlimit="3.25"/><path d="M443.195 192.586h4.797l.371-.004.465-.016.57-.035.68-.058.809-.09.937-.13 1.086-.171 1.211-.215 1.305-.242 1.355-.258 1.367-.258 1.344-.242 1.281-.222 1.176-.18 1.063-.133.965-.098.894-.062.848-.04.828-.019.828-.004h5.297" fill="none" stroke-width="1.25" stroke-linecap="square" stroke="#aaa" stroke-miterlimit="3.25"/><path d="M497.672 182.61v15h-25v-15zm0 0" fill="#fff" fill-opacity=".667"/><use xlink:href="#e" x="475.171" y="192.607"/><use xlink:href="#f" x="485.171" y="192.607"/><path d="M397.844 238.5l7.43 49.723 7.43 2.16 7.429-.75 7.43-.77 7.43-.476V152.18l-7.43.66-7.43 1.531-7.43 3.895-7.43 11.543zm0 0" fill="gray" fill-opacity=".05"/><path d="M397.844 244.457l7.43.563 7.43.238 7.429.183 7.43.149 7.43.129v-2.653l-7.43.157-7.43.18-7.43.21-7.43.278zm0-44.507l7.43 2.995 7.43 2.075 7.429 1.332 7.43.96 7.43.731v-30.91l-7.43 2.613-7.43 2.844-7.43 3.215-7.43 3.957zm0 0" fill="gray" fill-opacity=".05"/><path d="M443.195 250.117H33m0 0V4m0 0h410.195m0 0v246.117" fill="none" stroke-width=".5" stroke-linecap="square" stroke="#666" stroke-miterlimit="3.25"/><path d="M56.063 250.117v-5.695" fill="none" stroke-width=".5" stroke="#666" stroke-miterlimit="3.25"/><g fill="#666"><use xlink:href="#g" x="41.564" y="262.118"/><use xlink:href="#h" x="47.081" y="262.118"/><use xlink:href="#i" x="52.521" y="262.118"/></g><g fill="#666"><use xlink:href="#j" x="59.564" y="262.118"/><use xlink:href="#k" x="65.179" y="262.118"/></g><path d="M160.082 250.117v-5.695" fill="none" stroke-width=".5" stroke="#666" stroke-miterlimit="3.25"/><g fill="#666"><use xlink:href="#g" x="145.584" y="262.118"/><use xlink:href="#h" x="151.101" y="262.118"/><use xlink:href="#i" x="156.541" y="262.118"/></g><g fill="#666"><use xlink:href="#l" x="163.584" y="262.118"/><use xlink:href="#m" x="169.199" y="262.118"/></g><path d="M264.102 250.117v-5.695" fill="none" stroke-width=".5" stroke="#666" stroke-miterlimit="3.25"/><g fill="#666"><use xlink:href="#n" x="249.603" y="262.118"/><use xlink:href="#o" x="255.131" y="262.118"/><use xlink:href="#p" x="260.429" y="262.118"/></g><g fill="#666"><use xlink:href="#j" x="267.603" y="262.118"/><use xlink:href="#q" x="273.219" y="262.118"/></g><path d="M368.125 250.117v-5.695" fill="none" stroke-width=".5" stroke="#666" stroke-miterlimit="3.25"/><g fill="#666"><use xlink:href="#n" x="353.623" y="262.118"/><use xlink:href="#o" x="359.15" y="262.118"/><use xlink:href="#p" x="364.448" y="262.118"/></g><g fill="#666"><use xlink:href="#l" x="371.623" y="262.118"/><use xlink:href="#r" x="377.238" y="262.118"/></g><path d="M33 245.195h4" fill="none" stroke-width=".5" stroke="#666" stroke-miterlimit="3.25"/><use xlink:href="#q" x="24" y="247.696" fill="#666"/><path d="M33 237.355h2.398M33 229.512h2.398M33 221.668h2.398M33 213.828h4" fill="none" stroke-width=".5" stroke="#666" stroke-miterlimit="3.25"/><g fill="#666"><use xlink:href="#l" x="8" y="216.328"/><use xlink:href="#q" x="13.615" y="216.328"/><use xlink:href="#q" x="19.23" y="216.328"/><use xlink:href="#q" x="24.846" y="216.328"/></g><path d="M33 205.984h2.398M33 198.145h2.398M33 190.3h2.398M33 182.46h4" fill="none" stroke-width=".5" stroke="#666" stroke-miterlimit="3.25"/><g fill="#666"><use xlink:href="#r" x="8" y="184.96"/><use xlink:href="#q" x="13.615" y="184.96"/><use xlink:href="#q" x="19.23" y="184.96"/><use xlink:href="#q" x="24.846" y="184.96"/></g><path d="M33 174.617h2.398M33 166.777h2.398M33 158.934h2.398M33 151.094h4" fill="none" stroke-width=".5" stroke="#666" stroke-miterlimit="3.25"/><g fill="#666"><use xlink:href="#s" x="8" y="153.592"/><use xlink:href="#q" x="13.615" y="153.592"/><use xlink:href="#q" x="19.23" y="153.592"/><use xlink:href="#q" x="24.846" y="153.592"/></g><path d="M33 143.25h2.398M33 135.41h2.398M33 127.566h2.398M33 119.723h4" fill="none" stroke-width=".5" stroke="#666" stroke-miterlimit="3.25"/><g fill="#666"><use xlink:href="#t" x="8" y="122.224"/><use xlink:href="#q" x="13.615" y="122.224"/><use xlink:href="#q" x="19.23" y="122.224"/><use xlink:href="#q" x="24.846" y="122.224"/></g><path d="M33 111.883h2.398M33 104.04h2.398M33 96.2h2.398M33 88.355h4" fill="none" stroke-width=".5" stroke="#666" stroke-miterlimit="3.25"/><g fill="#666"><use xlink:href="#j" y="90.857"/><use xlink:href="#q" x="5.615" y="90.857"/></g><g fill="#666"><use xlink:href="#q" x="12.686" y="90.857"/><use xlink:href="#q" x="18.301" y="90.857"/><use xlink:href="#q" x="23.916" y="90.857"/></g><path d="M33 80.516h2.398M33 72.672h2.398M33 64.832h2.398M33 56.988h4" fill="none" stroke-width=".5" stroke="#666" stroke-miterlimit="3.25"/><g fill="#666"><use xlink:href="#j" y="59.489"/><use xlink:href="#l" x="5.615" y="59.489"/></g><g fill="#666"><use xlink:href="#q" x="12.686" y="59.489"/><use xlink:href="#q" x="18.301" y="59.489"/><use xlink:href="#q" x="23.916" y="59.489"/></g><path d="M33 49.148h2.398M33 41.305h2.398M33 33.46h2.398M33 25.621h4" fill="none" stroke-width=".5" stroke="#666" stroke-miterlimit="3.25"/><g fill="#666"><use xlink:href="#j" y="28.121"/><use xlink:href="#r" x="5.615" y="28.121"/></g><g fill="#666"><use xlink:href="#q" x="12.686" y="28.121"/><use xlink:href="#q" x="18.301" y="28.121"/><use xlink:href="#q" x="23.916" y="28.121"/></g><path d="M33 17.777h2.398M33 9.938h2.398M56.063 4v5.695M160.082 4v5.695M264.102 4v5.695M368.125 4v5.695m75.07 235.5h-4m4-7.84h-2.398m2.398-7.843h-2.398m2.398-7.844h-2.398m2.398-7.84h-4m4-7.844h-2.398m2.398-7.839h-2.398m2.398-7.845h-2.398m2.398-7.84h-4m4-7.843h-2.398m2.398-7.84h-2.398m2.398-7.843h-2.398m2.398-7.84h-4m4-7.844h-2.398m2.398-7.84h-2.398m2.398-7.844h-2.398m2.398-7.843h-4m4-7.84h-2.398m2.398-7.843h-2.398m2.398-7.84h-2.398m2.398-7.845h-4m4-7.839h-2.398m2.398-7.844h-2.398m2.398-7.84h-2.398m2.398-7.844h-4m4-7.84h-2.398m2.398-7.843h-2.398m2.398-7.845h-2.398m2.398-7.839h-4m4-7.844h-2.398m2.398-7.839h-2.398" fill="none" stroke-width=".5" stroke="#666" stroke-miterlimit="3.25"/></svg>