<svg xmlns="http://www.w3.org/2000/svg" xmlns:xlink="http://www.w3.org/1999/xlink" width="697pt" height="288" viewBox="0 0 697 216"><defs><symbol overflow="visible" id="a"><path d="M1.766-.766h3.37V0H.825v-7.11h.942zm0 0"/></symbol><symbol overflow="visible" id="b"><path d="M3.945 0c-.05-.105-.093-.29-.125-.555-.422.434-.922.653-1.507.653-.52 0-.946-.149-1.282-.442a1.438 1.438 0 0 1-.5-1.12c0-.552.211-.977.63-1.282.417-.305 1.007-.457 1.765-.457h.879v-.414c0-.317-.094-.567-.285-.754-.188-.188-.465-.281-.833-.281-.324 0-.593.082-.812.242-.219.164-.328.36-.328.59H.64c0-.262.093-.516.28-.762.188-.246.442-.441.763-.582.32-.145.671-.219 1.054-.219.61 0 1.086.153 1.434.457.344.305.523.727.535 1.258v2.434c0 .484.063.87.184 1.156V0zm-1.5-.688c.285 0 .555-.074.805-.218a1.35 1.35 0 0 0 .555-.574v-1.083h-.711c-1.106 0-1.656.325-1.656.97 0 .284.093.507.28.663.188.16.43.243.727.243zm0 0"/></symbol><symbol overflow="visible" id="c"><path d="M5.738-6.336H3.453V0H2.52v-6.336H.238v-.773h5.5zm0 0"/></symbol><symbol overflow="visible" id="d"><path d="M2.875.098c-.715 0-1.297-.235-1.746-.707-.45-.47-.676-1.098-.676-1.887v-.164c0-.524.102-.992.3-1.406.2-.41.481-.735.84-.965.36-.235.75-.352 1.173-.352.687 0 1.218.227 1.601.68.38.453.57 1.101.57 1.945v.375H1.36c.012.52.164.942.454 1.262.292.32.664.48 1.113.48.316 0 .59-.062.808-.195.223-.129.414-.3.582-.516l.551.43c-.441.68-1.105 1.02-1.992 1.02zm-.11-4.739c-.367 0-.671.133-.921.399-.246.265-.399.64-.457 1.117H4.03v-.07c-.023-.457-.148-.813-.367-1.067-.223-.25-.523-.379-.898-.379zm0 0"/></symbol><symbol overflow="visible" id="e"><path d="M3.145-4.383l1.703-2.726h1.105L3.707-3.586 6.007 0H4.892L3.145-2.773 1.387 0H.277l2.305-3.586-2.25-3.523H1.43zm0 0"/></symbol><symbol overflow="visible" id="f"><path d="M5.148-2.582c0 .805-.187 1.45-.554 1.941-.367.493-.864.739-1.492.739-.641 0-1.149-.203-1.516-.61v2.543H.684V-5.28h.824l.047.586c.367-.457.875-.688 1.53-.688.634 0 1.138.242 1.509.719.367.48.554 1.144.554 2zm-.906-.106c0-.593-.125-1.062-.379-1.41-.254-.343-.601-.515-1.047-.515-.546 0-.957.242-1.23.726v2.524c.27.48.684.722 1.242.722.434 0 .777-.171 1.031-.515.258-.344.383-.852.383-1.532zm0 0"/></symbol><symbol overflow="visible" id="g"><path d="M.465-2.688c0-.808.191-1.46.574-1.953.383-.492.887-.742 1.508-.742s1.11.215 1.473.637V-7.5h.902V0h-.828l-.047-.566c-.36.441-.863.664-1.508.664-.613 0-1.11-.25-1.496-.754-.387-.5-.578-1.153-.578-1.961zm.902.106c0 .598.125 1.066.371 1.406.246.34.59.508 1.028.508.57 0 .988-.258 1.254-.773v-2.426c-.27-.5-.688-.746-1.247-.746-.441 0-.789.168-1.035.511-.246.344-.37.848-.37 1.52zm0 0"/></symbol><symbol overflow="visible" id="h"><path d="M1.129 0v-4.586H.293v-.695h.836v-.543c0-.567.152-1.004.453-1.317.3-.308.73-.46 1.285-.46.207 0 .414.027.617.081l-.046.73a2.77 2.77 0 0 0-.489-.042c-.293 0-.52.086-.68.258-.16.172-.238.414-.238.734v.559h1.13v.695H2.03V0zm0 0"/></symbol><symbol overflow="visible" id="j"><path d="M3.945-.523c-.351.414-.867.62-1.547.62-.562 0-.992-.163-1.289-.492C.816-.719.668-1.203.664-1.844V-5.28h.902v3.41c0 .8.329 1.203.977 1.203.691 0 1.148-.258 1.379-.773v-3.84h.902V0h-.86zm0 0"/></symbol><symbol overflow="visible" id="k"><path d="M4.75-1.855H1.773L1.102 0H.137l2.715-7.11h.82L6.39 0H5.43zm-2.695-.77h2.418L3.262-5.953zm0 0"/></symbol><symbol overflow="visible" id="l"><path d="M5.047-3.031c0 1.058-.18 1.844-.54 2.36-.362.51-.925.769-1.694.769-.758 0-1.32-.25-1.684-.754C.766-1.16.574-1.91.562-2.91v-1.207c0-1.043.18-1.82.54-2.328.363-.508.93-.762 1.703-.762.765 0 1.328.246 1.687.734.36.489.547 1.246.555 2.27zm-.902-1.235c0-.765-.106-1.324-.32-1.675-.216-.348-.555-.524-1.02-.524-.465 0-.801.176-1.012.524-.211.347-.32.882-.328 1.605v1.445c0 .77.113 1.336.336 1.704.222.367.558.546 1.012.546.445 0 .777-.171.992-.515.218-.344.332-.89.34-1.633zm0 0"/></symbol><symbol overflow="visible" id="m"><path d="M5.25 0H.59v-.648l2.46-2.735c.364-.414.618-.75.755-1.008.14-.257.21-.527.21-.804 0-.371-.113-.676-.34-.914-.222-.239-.523-.356-.898-.356-.449 0-.797.13-1.047.383-.25.254-.37.613-.37 1.066H.452c0-.652.211-1.183.633-1.586.422-.402.984-.605 1.691-.605.66 0 1.184.172 1.567.52.386.347.578.808.578 1.382 0 .703-.445 1.535-1.336 2.5L1.68-.738h3.57zm0 0"/></symbol><symbol overflow="visible" id="n"><path d="M4.406-2.387h.985v.739h-.985V0h-.91v-1.648H.258v-.536L3.44-7.109h.965zm-3.12 0h2.21v-3.488l-.105.195zm0 0"/></symbol><symbol overflow="visible" id="o"><path d="M4.137-7.113v.765h-.168c-.703.012-1.262.223-1.68.625-.414.403-.656.973-.723 1.703.375-.43.887-.644 1.536-.644.617 0 1.113.219 1.48.656.371.438.555 1 .555 1.688 0 .734-.2 1.32-.598 1.757-.398.442-.934.66-1.605.66-.68 0-1.23-.261-1.653-.784C.855-1.212.645-1.883.645-2.704v-.348c0-1.308.277-2.308.835-3 .56-.691 1.391-1.047 2.497-1.062zM2.949-3.91c-.308 0-.594.09-.855.277a1.446 1.446 0 0 0-.54.7v.331c0 .586.13 1.059.395 1.414.262.36.59.54.985.54.406 0 .726-.153.96-.45.231-.3.348-.691.348-1.175 0-.489-.117-.887-.351-1.188a1.14 1.14 0 0 0-.942-.45zm0 0"/></symbol><symbol overflow="visible" id="p"><path d="M4.902-5.254c0 .356-.093.672-.28.95a1.95 1.95 0 0 1-.759.648c.371.16.664.39.88.695.218.309.327.656.327 1.043 0 .613-.21 1.105-.625 1.469-.414.363-.96.547-1.636.547-.684 0-1.23-.184-1.645-.551C.754-.82.547-1.31.547-1.918c0-.387.105-.73.316-1.043.207-.309.5-.543.871-.703a1.869 1.869 0 0 1-.75-.648 1.693 1.693 0 0 1-.273-.942c0-.598.195-1.074.578-1.426.383-.351.89-.527 1.52-.527.625 0 1.128.176 1.515.527.387.352.578.828.578 1.426zm-.738 3.316c0-.398-.125-.722-.379-.972-.25-.25-.582-.375-.988-.375s-.73.12-.977.37c-.246.247-.37.571-.37.978 0 .402.12.718.359.953.238.23.574.343 1 .343.421 0 .753-.117.996-.347.242-.235.36-.551.36-.95zM2.81-6.465c-.356 0-.645.11-.864.328-.218.223-.328.52-.328.899 0 .36.106.652.324.875.215.222.504.336.868.336.359 0 .648-.114.867-.336C3.89-4.586 4-4.88 4-5.238c0-.364-.113-.657-.336-.887a1.16 1.16 0 0 0-.855-.34zm0 0"/></symbol><symbol overflow="visible" id="q"><path d="M3.559 0h-.907v-6.02l-1.824.668v-.82l2.59-.973h.14zm0 0"/></symbol><symbol overflow="visible" id="i"><path d="M4.91-3.61c0 .07-.02.137-.055.196a.352.352 0 0 1-.16.14 6.44 6.44 0 0 1-.656.188 4.596 4.596 0 0 0-1.027.398c.285.172.613.31.98.415.367.105.594.18.68.222.078.04.133.086.172.145a.34.34 0 0 1 .054.187.426.426 0 0 1-.125.285.375.375 0 0 1-.285.137c-.023 0-.054 0-.097-.008a.368.368 0 0 1-.118-.047s-.152-.156-.457-.46a4.059 4.059 0 0 0-.886-.708c0 .36.047.735.136 1.125.094.391.137.598.137.63 0 .144-.031.245-.094.312-.066.062-.164.094-.289.094-.136 0-.242-.032-.312-.102-.07-.066-.106-.172-.106-.305 0 0 .055-.21.168-.625.11-.414.164-.789.164-1.129-.195.102-.464.31-.808.622-.348.312-.535.476-.574.492-.036.015-.07.031-.106.043a.422.422 0 0 1-.395-.074C.782-1.504.743-1.61.743-1.75c0-.078.02-.145.055-.2a.562.562 0 0 1 .164-.148c.043-.027.254-.09.629-.183.379-.098.73-.235 1.05-.406a5.85 5.85 0 0 0-.992-.415c-.398-.132-.62-.203-.664-.218a.41.41 0 0 1-.175-.157.347.347 0 0 1-.051-.187.41.41 0 0 1 .117-.281.38.38 0 0 1 .29-.133c.062 0 .124.016.187.047a.601.601 0 0 1 .171.129c.286.312.508.535.665.675.156.137.335.266.546.383 0-.347-.046-.71-.14-1.094-.098-.382-.145-.601-.145-.656 0-.144.031-.25.098-.312.062-.067.156-.098.281-.098a.46.46 0 0 1 .317.102c.07.07.105.172.105.308 0 0-.055.203-.164.617a4.28 4.28 0 0 0-.168 1.133c.07-.043.168-.11.285-.199.121-.094.297-.246.516-.46.125-.122.258-.235.394-.337.137-.105.235-.164.293-.18a.236.236 0 0 1 .059-.007c.023-.004.043-.004.058-.004a.33.33 0 0 1 .274.14.456.456 0 0 1 .113.282zm0 0"/></symbol><symbol overflow="visible" id="s"><path d="M1.992-6.867l.031.762c.504-.594 1.184-.891 2.04-.891.96 0 1.613.371 1.96 1.105.23-.328.528-.597.891-.8.367-.204.8-.305 1.3-.305 1.505 0 2.27.797 2.298 2.394V0H9.336v-4.531c0-.492-.11-.86-.336-1.102C8.777-5.875 8.398-6 7.871-6c-.437 0-.797.133-1.086.39-.289.262-.453.614-.5 1.051V0H5.102v-4.5c0-1-.489-1.5-1.465-1.5-.77 0-1.297.328-1.582.984V0H.883v-6.867zm0 0"/></symbol><symbol overflow="visible" id="t"><path d="M2.164 0H.992v-6.867h1.172zM.894-8.691c0-.192.06-.352.176-.48.117-.134.29-.196.516-.196.23 0 .402.062.523.195a.701.701 0 0 1 .176.48.671.671 0 0 1-.176.477c-.12.13-.293.192-.523.192-.227 0-.399-.063-.516-.192a.671.671 0 0 1-.175-.476zm0 0"/></symbol><symbol overflow="visible" id="u"><path d="M2-6.867l.04.863c.522-.66 1.206-.992 2.054-.992 1.453 0 2.183.82 2.195 2.457V0H5.117v-4.547c-.004-.492-.117-.86-.34-1.098C4.555-5.879 4.207-6 3.738-6c-.379 0-.715.102-1.004.305a2.101 2.101 0 0 0-.671.8V0H.89v-6.867zm0 0"/></symbol><symbol overflow="visible" id="v"><path d="M5.129 0c-.066-.137-.121-.375-.164-.723-.547.567-1.2.848-1.957.848-.676 0-1.23-.191-1.664-.574A1.859 1.859 0 0 1 .69-1.906c0-.715.274-1.27.817-1.664.543-.395 1.308-.594 2.293-.594h1.144v-.54c0-.41-.125-.737-.367-.98-.246-.242-.61-.367-1.086-.367-.418 0-.77.106-1.054.32-.286.211-.426.465-.426.766H.832c0-.344.121-.672.363-.992a2.45 2.45 0 0 1 .992-.758 3.317 3.317 0 0 1 1.376-.281c.789 0 1.41.2 1.859.594.45.394.68.941.695 1.636v3.16c0 .63.082 1.133.242 1.504V0zm-1.95-.895c.368 0 .72-.097 1.048-.285.332-.191.57-.437.718-.742v-1.41h-.922c-1.437 0-2.156.422-2.156 1.262 0 .367.121.656.367.863.246.207.563.312.946.312zm0 0"/></symbol><symbol overflow="visible" id="w"><path d="M2.164 0H.992v-9.75h1.172zm0 0"/></symbol><symbol overflow="visible" id="y"><path d="M2.48-8.531v1.664h1.286v.906H2.48v4.258c0 .277.06.484.172.621.114.137.309.207.586.207.137 0 .32-.027.559-.078V0c-.309.086-.61.125-.902.125-.524 0-.922-.156-1.188-.473-.266-.316-.398-.77-.398-1.355v-4.258H.059v-.906h1.25v-1.664zm0 0"/></symbol><symbol overflow="visible" id="z"><path d="M2.805-3.18l-.735.766V0H.895v-9.75H2.07v5.898l.63-.757 2.136-2.258h1.43L3.594-4l2.984 4H5.2zm0 0"/></symbol><symbol overflow="visible" id="A"><path d="M1.992-.957h4.02V0H.559v-.863l3.789-5.035H.618v-.97H5.82v.833zm0 0"/></symbol><symbol overflow="visible" id="C"><path d="M4.887-1.82c0-.32-.117-.567-.36-.742-.238-.176-.652-.325-1.25-.454-.593-.125-1.066-.277-1.414-.457-.347-.175-.61-.39-.773-.632a1.522 1.522 0 0 1-.254-.88c0-.562.238-1.038.715-1.425.476-.39 1.086-.586 1.824-.586.781 0 1.414.203 1.898.605.485.403.727.914.727 1.54H4.816c0-.32-.136-.598-.406-.829-.273-.234-.617-.351-1.035-.351-.426 0-.758.093-1 .281a.88.88 0 0 0-.363.73c0 .282.113.497.336.641.226.145.629.281 1.215.41.585.133 1.062.29 1.425.473.364.18.633.398.809.656.176.254.266.567.266.934 0 .613-.247 1.11-.739 1.476-.488.371-1.125.555-1.91.555-.55 0-1.035-.094-1.46-.29A2.391 2.391 0 0 1 .96-.98 1.969 1.969 0 0 1 .6-2.113h1.176c.02.394.18.707.473.937.293.23.684.344 1.164.344.445 0 .8-.09 1.07-.27.27-.18.403-.418.403-.718zm0 0"/></symbol><symbol overflow="visible" id="D"><path d="M.578-3.496c0-.676.133-1.281.395-1.817.265-.539.632-.953 1.105-1.246.473-.293 1.012-.437 1.617-.437.934 0 1.692.324 2.27.973.578.648.863 1.507.863 2.582v.082c0 .668-.125 1.27-.383 1.8A2.904 2.904 0 0 1 5.348-.316C4.87-.02 4.324.125 3.707.125c-.93 0-1.684-.32-2.262-.969-.578-.648-.867-1.504-.867-2.57zm1.18.137c0 .761.176 1.375.531 1.836.352.46.824.691 1.418.691.598 0 1.07-.234 1.422-.7.351-.468.527-1.124.527-1.964 0-.754-.18-1.363-.535-1.832a1.71 1.71 0 0 0-1.426-.703c-.582 0-1.047.23-1.402.691-.356.461-.535 1.121-.535 1.98zm0 0"/></symbol><symbol overflow="visible" id="E"><path d="M4.207-5.813a3.286 3.286 0 0 0-.574-.046c-.774 0-1.293.328-1.57.984V0H.89v-6.867h1.14l.02.793c.386-.614.93-.922 1.636-.922.231 0 .403.031.52.09zm0 0"/></symbol><symbol overflow="visible" id="G"><path d="M6.691-3.36c0 1.047-.238 1.891-.718 2.528-.477.64-1.125.957-1.942.957-.836 0-1.488-.262-1.968-.793v3.309H.89v-9.508h1.07l.059.762c.476-.594 1.14-.891 1.992-.891.824 0 1.476.312 1.957.934.48.62.722 1.488.722 2.597zm-1.175-.132c0-.774-.164-1.387-.496-1.832C4.69-5.774 4.238-6 3.664-6c-.71 0-1.246.316-1.602.945v3.285c.352.625.891.938 1.614.938.562 0 1.011-.223 1.344-.668.332-.445.496-1.11.496-1.992zm0 0"/></symbol><symbol overflow="visible" id="H"><path d="M5.129-.68C4.672-.14 4 .125 3.117.125c-.734 0-1.289-.21-1.672-.637C1.062-.937.867-1.566.863-2.398v-4.47H2.04v4.438c0 1.04.422 1.559 1.27 1.559.894 0 1.492-.332 1.789-1v-4.996h1.175V0H5.156zm0 0"/></symbol><symbol overflow="visible" id="J"><path d="M2.063-6.035c.519-.64 1.199-.961 2.03-.961 1.454 0 2.184.82 2.196 2.457V0H5.117v-4.547c-.004-.492-.117-.86-.34-1.098C4.555-5.879 4.207-6 3.738-6c-.379 0-.715.102-1.004.305a2.101 2.101 0 0 0-.671.8V0H.89v-9.75h1.171zm0 0"/></symbol><symbol overflow="visible" id="L"><path d="M3.645-.832a1.69 1.69 0 0 0 1.097-.379c.313-.254.485-.574.52-.953h1.113c-.023.394-.16.766-.406 1.125-.25.355-.586.637-1 .848a2.9 2.9 0 0 1-1.324.316c-.938 0-1.68-.309-2.23-.934-.556-.625-.83-1.48-.83-2.562v-.195c0-.668.122-1.266.368-1.786s.598-.925 1.055-1.21c.46-.29 1.004-.434 1.629-.434.77 0 1.41.23 1.922.691.507.461.78 1.063.816 1.797H5.262c-.035-.445-.203-.808-.504-1.094a1.577 1.577 0 0 0-1.121-.43c-.598 0-1.059.216-1.387.645-.328.43-.492 1.051-.492 1.864v.222c0 .793.164 1.403.488 1.828.328.426.793.641 1.399.641zm0 0"/></symbol><symbol overflow="visible" id="M"><path d="M3.738.125c-.93 0-1.687-.305-2.273-.914C.883-1.402.59-2.22.59-3.242v-.219c0-.68.129-1.289.39-1.824a3.069 3.069 0 0 1 1.094-1.258c.465-.3.973-.453 1.52-.453.89 0 1.586.297 2.082.883.496.59.742 1.43.742 2.527v.488H1.766c.015.676.214 1.223.593 1.641.38.418.86.625 1.442.625.414 0 .765-.086 1.054-.254.29-.168.54-.394.754-.672l.72.559C5.753-.316 4.89.125 3.738.125zm-.144-6.156c-.477 0-.871.172-1.196.52-.32.343-.52.827-.593 1.449h3.437v-.09c-.031-.598-.195-1.059-.48-1.387-.29-.328-.68-.492-1.168-.492zm0 0"/></symbol><clipPath id="r"><path d="M614 57h10v10h-10zm0 0"/></clipPath><clipPath id="x"><path d="M614 75h10v10h-10zm0 0"/></clipPath><clipPath id="B"><path d="M614 93h10v10h-10zm0 0"/></clipPath><clipPath id="F"><path d="M614 111h10v10h-10zm0 0"/></clipPath><clipPath id="I"><path d="M614 129h10v10h-10zm0 0"/></clipPath><clipPath id="K"><path d="M614 147h10v10h-10zm0 0"/></clipPath></defs><path d="M20 173h578.5M20 148.168h578.5M20 123.336h578.5M20 98.5h578.5M20 73.668h578.5M20 48.836h578.5M20 24h578.5" fill="none" stroke="#666" stroke-opacity=".5" stroke-dasharray="1,2" stroke-miterlimit="3.25"/><path d="M42.46 197.832v-8.805H53.8v8.805zm0 0" fill="#2b004d" stroke-width=".03" stroke-linecap="square" stroke="#2b004d" stroke-miterlimit="3.25"/><path d="M42.46 197.832v-8.805H53.8v8.805zm0 0" fill="none" stroke-width=".5" stroke-linecap="square" stroke="#000" stroke-opacity=".406" stroke-miterlimit="3.25"/><path d="M53.8 197.832v-32.523h11.345v32.523zm0 0" fill="#470c8a" stroke-width=".03" stroke-linecap="square" stroke="#470c8a" stroke-miterlimit="3.25"/><path d="M53.8 197.832v-32.523h11.345v32.523zm0 0" fill="none" stroke-width=".5" stroke-linecap="square" stroke="#000" stroke-opacity=".406" stroke-miterlimit="3.25"/><path d="M65.145 197.832V177.91h11.343v19.922zm0 0" fill="#4338bd" stroke-width=".03" stroke-linecap="square" stroke="#4338bd" stroke-miterlimit="3.25"/><path d="M65.145 197.832V177.91h11.343v19.922zm0 0" fill="none" stroke-width=".5" stroke-linecap="square" stroke="#000" stroke-opacity=".406" stroke-miterlimit="3.25"/><path d="M76.488 197.832v-59.277h11.344v59.277zm0 0" fill="#4176e3" stroke-width=".03" stroke-linecap="square" stroke="#4176e3" stroke-miterlimit="3.25"/><path d="M76.488 197.832v-59.277h11.344v59.277zm0 0" fill="none" stroke-width=".5" stroke-linecap="square" stroke="#000" stroke-opacity=".406" stroke-miterlimit="3.25"/><path d="M87.832 197.832v-93.879h11.344v93.879zm0 0" fill="#61b6f9" stroke-width=".03" stroke-linecap="square" stroke="#61b6f9" stroke-miterlimit="3.25"/><path d="M87.832 197.832v-93.879h11.344v93.879zm0 0" fill="none" stroke-width=".5" stroke-linecap="square" stroke="#000" stroke-opacity=".406" stroke-miterlimit="3.25"/><path d="M99.176 197.832v-31.398h11.344v31.398zm0 0" fill="#c5ecff" stroke-width=".03" stroke-linecap="square" stroke="#c5ecff" stroke-miterlimit="3.25"/><path d="M99.176 197.832v-31.398h11.344v31.398zm0 0" fill="none" stroke-width=".5" stroke-linecap="square" stroke="#000" stroke-opacity=".406" stroke-miterlimit="3.25"/><path d="M121.863 197.832v-5.605h11.34v5.605zm0 0" fill="#2b004d" stroke-width=".03" stroke-linecap="square" stroke="#2b004d" stroke-miterlimit="3.25"/><path d="M121.863 197.832v-5.605h11.34v5.605zm0 0" fill="none" stroke-width=".5" stroke-linecap="square" stroke="#000" stroke-opacity=".406" stroke-miterlimit="3.25"/><path d="M133.203 197.832v-24.621h11.344v24.621zm0 0" fill="#470c8a" stroke-width=".03" stroke-linecap="square" stroke="#470c8a" stroke-miterlimit="3.25"/><path d="M133.203 197.832v-24.621h11.344v24.621zm0 0" fill="none" stroke-width=".5" stroke-linecap="square" stroke="#000" stroke-opacity=".406" stroke-miterlimit="3.25"/><path d="M144.547 197.832v-17.648h11.344v17.648zm0 0" fill="#4338bd" stroke-width=".03" stroke-linecap="square" stroke="#4338bd" stroke-miterlimit="3.25"/><path d="M144.547 197.832v-17.648h11.344v17.648zm0 0" fill="none" stroke-width=".5" stroke-linecap="square" stroke="#000" stroke-opacity=".406" stroke-miterlimit="3.25"/><path d="M155.89 197.832v-60.394h11.344v60.394zm0 0" fill="#4176e3" stroke-width=".03" stroke-linecap="square" stroke="#4176e3" stroke-miterlimit="3.25"/><path d="M155.89 197.832v-60.394h11.344v60.394zm0 0" fill="none" stroke-width=".5" stroke-linecap="square" stroke="#000" stroke-opacity=".406" stroke-miterlimit="3.25"/><path d="M201.262 197.832V187.32h11.343v10.512zm0 0" fill="#2b004d" stroke-width=".03" stroke-linecap="square" stroke="#2b004d" stroke-miterlimit="3.25"/><path d="M201.262 197.832V187.32h11.343v10.512zm0 0" fill="none" stroke-width=".5" stroke-linecap="square" stroke="#000" stroke-opacity=".406" stroke-miterlimit="3.25"/><path d="M212.605 197.832v-27.398h11.344v27.398zm0 0" fill="#470c8a" stroke-width=".03" stroke-linecap="square" stroke="#470c8a" stroke-miterlimit="3.25"/><path d="M212.605 197.832v-27.398h11.344v27.398zm0 0" fill="none" stroke-width=".5" stroke-linecap="square" stroke="#000" stroke-opacity=".406" stroke-miterlimit="3.25"/><path d="M223.95 197.832V173.32h11.343v24.512zm0 0" fill="#4338bd" stroke-width=".03" stroke-linecap="square" stroke="#4338bd" stroke-miterlimit="3.25"/><path d="M223.95 197.832V173.32h11.343v24.512zm0 0" fill="none" stroke-width=".5" stroke-linecap="square" stroke="#000" stroke-opacity=".406" stroke-miterlimit="3.25"/><path d="M235.293 197.832V89.852h11.344v107.98zm0 0" fill="#4176e3" stroke-width=".03" stroke-linecap="square" stroke="#4176e3" stroke-miterlimit="3.25"/><path d="M235.293 197.832V89.852h11.344v107.98zm0 0" fill="none" stroke-width=".5" stroke-linecap="square" stroke="#000" stroke-opacity=".406" stroke-miterlimit="3.25"/><path d="M246.637 197.832V46.594h11.343v151.238zm0 0" fill="#61b6f9" stroke-width=".03" stroke-linecap="square" stroke="#61b6f9" stroke-miterlimit="3.25"/><path d="M246.637 197.832V46.594h11.343v151.238zm0 0" fill="none" stroke-width=".5" stroke-linecap="square" stroke="#000" stroke-opacity=".406" stroke-miterlimit="3.25"/><path d="M257.98 197.832v-41.473h11.34v41.473zm0 0" fill="#c5ecff" stroke-width=".03" stroke-linecap="square" stroke="#c5ecff" stroke-miterlimit="3.25"/><path d="M257.98 197.832v-41.473h11.34v41.473zm0 0" fill="none" stroke-width=".5" stroke-linecap="square" stroke="#000" stroke-opacity=".406" stroke-miterlimit="3.25"/><path d="M280.664 197.832v-10.406h11.344v10.406zm0 0" fill="#2b004d" stroke-width=".03" stroke-linecap="square" stroke="#2b004d" stroke-miterlimit="3.25"/><path d="M280.664 197.832v-10.406h11.344v10.406zm0 0" fill="none" stroke-width=".5" stroke-linecap="square" stroke="#000" stroke-opacity=".406" stroke-miterlimit="3.25"/><path d="M292.008 197.832v-26.914h11.344v26.914zm0 0" fill="#470c8a" stroke-width=".03" stroke-linecap="square" stroke="#470c8a" stroke-miterlimit="3.25"/><path d="M292.008 197.832v-26.914h11.344v26.914zm0 0" fill="none" stroke-width=".5" stroke-linecap="square" stroke="#000" stroke-opacity=".406" stroke-miterlimit="3.25"/><path d="M303.352 197.832v-23.508h11.343v23.508zm0 0" fill="#4338bd" stroke-width=".03" stroke-linecap="square" stroke="#4338bd" stroke-miterlimit="3.25"/><path d="M303.352 197.832v-23.508h11.343v23.508zm0 0" fill="none" stroke-width=".5" stroke-linecap="square" stroke="#000" stroke-opacity=".406" stroke-miterlimit="3.25"/><path d="M314.695 197.832V85.965h11.344v111.867zm0 0" fill="#4176e3" stroke-width=".03" stroke-linecap="square" stroke="#4176e3" stroke-miterlimit="3.25"/><path d="M314.695 197.832V85.965h11.344v111.867zm0 0" fill="none" stroke-width=".5" stroke-linecap="square" stroke="#000" stroke-opacity=".406" stroke-miterlimit="3.25"/><path d="M326.04 197.832V51.43h11.343v146.402zm0 0" fill="#61b6f9" stroke-width=".03" stroke-linecap="square" stroke="#61b6f9" stroke-miterlimit="3.25"/><path d="M326.04 197.832V51.43h11.343v146.402zm0 0" fill="none" stroke-width=".5" stroke-linecap="square" stroke="#000" stroke-opacity=".406" stroke-miterlimit="3.25"/><path d="M337.383 197.832v-41.008h11.34v41.008zm0 0" fill="#c5ecff" stroke-width=".03" stroke-linecap="square" stroke="#c5ecff" stroke-miterlimit="3.25"/><path d="M337.383 197.832v-41.008h11.34v41.008zm0 0" fill="none" stroke-width=".5" stroke-linecap="square" stroke="#000" stroke-opacity=".406" stroke-miterlimit="3.25"/><path d="M360.066 197.832v-5.715h11.344v5.715zm0 0" fill="#2b004d" stroke-width=".03" stroke-linecap="square" stroke="#2b004d" stroke-miterlimit="3.25"/><path d="M360.066 197.832v-5.715h11.344v5.715zm0 0" fill="none" stroke-width=".5" stroke-linecap="square" stroke="#000" stroke-opacity=".406" stroke-miterlimit="3.25"/><path d="M371.41 197.832v-13.473h11.344v13.473zm0 0" fill="#470c8a" stroke-width=".03" stroke-linecap="square" stroke="#470c8a" stroke-miterlimit="3.25"/><path d="M371.41 197.832v-13.473h11.344v13.473zm0 0" fill="none" stroke-width=".5" stroke-linecap="square" stroke="#000" stroke-opacity=".406" stroke-miterlimit="3.25"/><path d="M382.754 197.832v-25.559h11.344v25.559zm0 0" fill="#4338bd" stroke-width=".03" stroke-linecap="square" stroke="#4338bd" stroke-miterlimit="3.25"/><path d="M382.754 197.832v-25.559h11.344v25.559zm0 0" fill="none" stroke-width=".5" stroke-linecap="square" stroke="#000" stroke-opacity=".406" stroke-miterlimit="3.25"/><path d="M394.098 197.832v-87.195h11.343v87.195zm0 0" fill="#4176e3" stroke-width=".03" stroke-linecap="square" stroke="#4176e3" stroke-miterlimit="3.25"/><path d="M394.098 197.832v-87.195h11.343v87.195zm0 0" fill="none" stroke-width=".5" stroke-linecap="square" stroke="#000" stroke-opacity=".406" stroke-miterlimit="3.25"/><path d="M405.441 197.832v-53.66h11.34v53.66zm0 0" fill="#61b6f9" stroke-width=".03" stroke-linecap="square" stroke="#61b6f9" stroke-miterlimit="3.25"/><path d="M405.441 197.832v-53.66h11.34v53.66zm0 0" fill="none" stroke-width=".5" stroke-linecap="square" stroke="#000" stroke-opacity=".406" stroke-miterlimit="3.25"/><path d="M416.781 197.832V19.527h11.344v178.305zm0 0" fill="#c5ecff" stroke-width=".03" stroke-linecap="square" stroke="#c5ecff" stroke-miterlimit="3.25"/><path d="M416.781 197.832V19.527h11.344v178.305zm0 0" fill="none" stroke-width=".5" stroke-linecap="square" stroke="#000" stroke-opacity=".406" stroke-miterlimit="3.25"/><path d="M439.469 197.832v-8.988h11.344v8.988zm0 0" fill="#2b004d" stroke-width=".03" stroke-linecap="square" stroke="#2b004d" stroke-miterlimit="3.25"/><path d="M439.469 197.832v-8.988h11.344v8.988zm0 0" fill="none" stroke-width=".5" stroke-linecap="square" stroke="#000" stroke-opacity=".406" stroke-miterlimit="3.25"/><path d="M450.813 197.832v-37.367h11.343v37.367zm0 0" fill="#470c8a" stroke-width=".03" stroke-linecap="square" stroke="#470c8a" stroke-miterlimit="3.25"/><path d="M450.813 197.832v-37.367h11.343v37.367zm0 0" fill="none" stroke-width=".5" stroke-linecap="square" stroke="#000" stroke-opacity=".406" stroke-miterlimit="3.25"/><path d="M462.156 197.832v-21.074H473.5v21.074zm0 0" fill="#4338bd" stroke-width=".03" stroke-linecap="square" stroke="#4338bd" stroke-miterlimit="3.25"/><path d="M462.156 197.832v-21.074H473.5v21.074zm0 0" fill="none" stroke-width=".5" stroke-linecap="square" stroke="#000" stroke-opacity=".406" stroke-miterlimit="3.25"/><path d="M473.5 197.832v-65.555h11.34v65.555zm0 0" fill="#4176e3" stroke-width=".03" stroke-linecap="square" stroke="#4176e3" stroke-miterlimit="3.25"/><path d="M473.5 197.832v-65.555h11.34v65.555zm0 0" fill="none" stroke-width=".5" stroke-linecap="square" stroke="#000" stroke-opacity=".406" stroke-miterlimit="3.25"/><path d="M484.84 197.832v-19.426h11.344v19.426zm0 0" fill="#61b6f9" stroke-width=".03" stroke-linecap="square" stroke="#61b6f9" stroke-miterlimit="3.25"/><path d="M484.84 197.832v-19.426h11.344v19.426zm0 0" fill="none" stroke-width=".5" stroke-linecap="square" stroke="#000" stroke-opacity=".406" stroke-miterlimit="3.25"/><path d="M496.184 197.832v-23.066h11.343v23.066zm0 0" fill="#c5ecff" stroke-width=".03" stroke-linecap="square" stroke="#c5ecff" stroke-miterlimit="3.25"/><path d="M496.184 197.832v-23.066h11.343v23.066zm0 0" fill="none" stroke-width=".5" stroke-linecap="square" stroke="#000" stroke-opacity=".406" stroke-miterlimit="3.25"/><path d="M518.871 197.832v-8.016h11.344v8.016zm0 0" fill="#2b004d" stroke-width=".03" stroke-linecap="square" stroke="#2b004d" stroke-miterlimit="3.25"/><path d="M518.871 197.832v-8.016h11.344v8.016zm0 0" fill="none" stroke-width=".5" stroke-linecap="square" stroke="#000" stroke-opacity=".406" stroke-miterlimit="3.25"/><path d="M530.215 197.832v-31.82h11.344v31.82zm0 0" fill="#470c8a" stroke-width=".03" stroke-linecap="square" stroke="#470c8a" stroke-miterlimit="3.25"/><path d="M530.215 197.832v-31.82h11.344v31.82zm0 0" fill="none" stroke-width=".5" stroke-linecap="square" stroke="#000" stroke-opacity=".406" stroke-miterlimit="3.25"/><path d="M552.902 197.832v-63.64h11.34v63.64zm0 0" fill="#4176e3" stroke-width=".03" stroke-linecap="square" stroke="#4176e3" stroke-miterlimit="3.25"/><path d="M552.902 197.832v-63.64h11.34v63.64zm0 0" fill="none" stroke-width=".5" stroke-linecap="square" stroke="#000" stroke-opacity=".406" stroke-miterlimit="3.25"/><path d="M564.242 197.832v-16.937h11.344v16.937zm0 0" fill="#61b6f9" stroke-width=".03" stroke-linecap="square" stroke="#61b6f9" stroke-miterlimit="3.25"/><path d="M564.242 197.832v-16.937h11.344v16.937zm0 0" fill="none" stroke-width=".5" stroke-linecap="square" stroke="#000" stroke-opacity=".406" stroke-miterlimit="3.25"/><path d="M575.586 197.832v-19.32h11.344v19.32zm0 0" fill="#c5ecff" stroke-width=".03" stroke-linecap="square" stroke="#c5ecff" stroke-miterlimit="3.25"/><path d="M575.586 197.832v-19.32h11.344v19.32zm0 0" fill="none" stroke-width=".5" stroke-linecap="square" stroke="#000" stroke-opacity=".406" stroke-miterlimit="3.25"/><path d="M48.133 189.281v-.254M48.133 189.027v-.254M59.473 167.465v-2.156M59.473 165.309v-2.153M70.816 180.879v-2.969M70.816 177.91v-2.972M82.16 146.09v-7.535M82.16 138.555v-7.54M93.504 114.652v-10.699M93.504 103.953v-10.7M104.848 168.152v-1.718M104.848 166.434v-1.723M127.531 192.309v-.082M127.531 192.227v-.079M138.875 173.852v-.641M138.875 173.21v-.64M150.219 183.73v-3.546M150.219 180.184v-3.551M161.563 145.715v-8.278M161.563 137.438v-8.278M206.934 187.7v-.38M206.934 187.32v-.379M218.277 171.484v-1.05M218.277 170.434v-1.047M229.621 175.348v-2.028M229.621 173.32v-2.027M240.965 95.652v-5.8M240.965 89.852V84.05M252.309 58.898V46.594M252.309 46.594V34.285M263.652 159.723v-3.364M263.652 156.36v-3.368M286.336 187.945v-.52M286.336 187.426v-.52M297.68 171.723v-.805M297.68 170.918v-.805M309.023 175.21v-.886M309.023 174.324v-.887M320.367 94.219v-8.254M320.367 85.965V77.71M331.71 54.258V51.43M331.71 51.43v-2.825M343.05 159.227v-2.403M343.05 156.824v-2.398M365.738 192.203v-.086M365.738 192.117v-.09M377.082 185.04v-.68M377.082 184.36v-.68M388.426 173.293v-1.02M388.426 172.273v-1.023M399.77 119.64v-9.003M399.77 110.637v-9.008M411.113 145.598v-1.426M411.113 144.172v-1.426M422.453 24.41v-4.883M422.453 19.527v-4.886M445.14 189.41v-.566M445.14 188.844v-.563M456.484 161.7v-1.235M456.484 160.465v-1.238M467.828 177.77v-1.012M467.828 176.758v-1.008M479.172 135.75v-3.473M479.172 132.277v-3.468M490.512 178.652v-.246M490.512 178.406v-.246M501.855 176.371v-1.605M501.855 174.766v-1.606M524.543 190.059v-.243M524.543 189.816v-.242M535.887 167.012v-1M535.887 166.012v-.996M558.57 139.625v-5.434M558.57 134.191v-5.43M569.914 181.285v-.39M569.914 180.895v-.391M581.258 179.668v-1.156M581.258 178.512v-1.157M48.133 188.773h3M48.133 188.773h-3M48.133 189.281h3M48.133 189.281h-3M59.473 163.156h3M59.473 163.156h-3M59.473 167.465h3M59.473 167.465h-3M70.816 174.938h3M70.816 174.938h-3M70.816 180.879h3M70.816 180.879h-3M82.16 131.016h3M82.16 131.016h-3M82.16 146.09h3M82.16 146.09h-3M93.504 93.254h3M93.504 93.254h-3M93.504 114.652h3M93.504 114.652h-3M104.848 164.71h3M104.848 164.71h-3M104.848 168.152h3M104.848 168.152h-3M127.531 192.148h3M127.531 192.148h-3M127.531 192.309h3M127.531 192.309h-3M138.875 172.57h3M138.875 172.57h-3M138.875 173.852h3M138.875 173.852h-3M150.219 176.633h3M150.219 176.633h-3M150.219 183.73h3M150.219 183.73h-3M161.563 129.16h3M161.563 129.16h-3M161.563 145.715h3M161.563 145.715h-3M206.934 186.941h3M206.934 186.941h-3M206.934 187.7h3M206.934 187.7h-3M218.277 169.387h3M218.277 169.387h-3M218.277 171.484h3M218.277 171.484h-3M229.621 171.293h3M229.621 171.293h-3M229.621 175.348h3M229.621 175.348h-3M240.965 84.05h3M240.965 84.05h-3M240.965 95.652h3M240.965 95.652h-3M252.309 34.285h3M252.309 34.285h-3M252.309 58.898h3M252.309 58.898h-3M263.652 152.992h3M263.652 152.992h-3M263.652 159.723h3M263.652 159.723h-3M286.336 186.906h3M286.336 186.906h-3M286.336 187.945h3M286.336 187.945h-3M297.68 170.113h3M297.68 170.113h-3M297.68 171.723h3M297.68 171.723h-3M309.023 173.438h3M309.023 173.438h-3M309.023 175.21h3M309.023 175.21h-3M320.367 77.71h3M320.367 77.71h-3M320.367 94.219h3M320.367 94.219h-3M331.71 48.605h3M331.71 48.605h-3M331.71 54.258h3M331.71 54.258h-3M343.05 154.426h3M343.05 154.426h-3M343.05 159.227h3M343.05 159.227h-3M365.738 192.027h3M365.738 192.027h-3M365.738 192.203h3M365.738 192.203h-3M377.082 183.68h3M377.082 183.68h-3M377.082 185.04h3M377.082 185.04h-3M388.426 171.25h3M388.426 171.25h-3M388.426 173.293h3M388.426 173.293h-3M399.77 101.629h3M399.77 101.629h-3M399.77 119.64h3M399.77 119.64h-3M411.113 142.746h3M411.113 142.746h-3M411.113 145.598h3M411.113 145.598h-3M422.453 14.64h3M422.453 14.64h-3M422.453 24.41h3M422.453 24.41h-3M445.14 188.281h3M445.14 188.281h-3M445.14 189.41h3M445.14 189.41h-3M456.484 159.227h3M456.484 159.227h-3M456.484 161.7h3M456.484 161.7h-3M467.828 175.75h3M467.828 175.75h-3M467.828 177.77h3M467.828 177.77h-3M479.172 128.809h3M479.172 128.809h-3M479.172 135.75h3M479.172 135.75h-3M490.512 178.16h3M490.512 178.16h-3M490.512 178.652h3M490.512 178.652h-3M501.855 173.16h3M501.855 173.16h-3M501.855 176.371h3M501.855 176.371h-3M524.543 189.574h3M524.543 189.574h-3M524.543 190.059h3M524.543 190.059h-3M535.887 165.016h3M535.887 165.016h-3M535.887 167.012h3M535.887 167.012h-3M558.57 128.762h3M558.57 128.762h-3M558.57 139.625h3M558.57 139.625h-3M569.914 180.504h3M569.914 180.504h-3M569.914 181.285h3M569.914 181.285h-3M581.258 177.355h3M581.258 177.355h-3M581.258 179.668h3M581.258 179.668h-3" fill="none" stroke-linecap="square" stroke="#000" stroke-miterlimit="3.25"/><path d="M598.5 197.832H20M20 197.832V5M20 5h578.5M598.5 5v192.832" fill="none" stroke-width=".5" stroke-linecap="square" stroke="#666" stroke-miterlimit="3.25"/><path d="M48.133 197.832v-2.398M59.473 197.832v-2.398M70.816 197.832v-2.398M82.16 197.832v-2.398M93.504 197.832v-2.398M104.848 197.832v-2.398M116.191 197.832v-4.625" fill="none" stroke-width=".5" stroke="#666" stroke-miterlimit="3.25"/><g fill="#666"><use xlink:href="#a" x="62.489" y="209.833"/><use xlink:href="#b" x="67.87" y="209.833"/><use xlink:href="#c" x="73.309" y="209.833"/><use xlink:href="#d" x="79.276" y="209.833"/><use xlink:href="#e" x="84.574" y="209.833"/></g><path d="M127.531 197.832v-2.398M138.875 197.832v-2.398M150.219 197.832v-2.398M161.563 197.832v-2.398M172.906 197.832v-2.398M184.25 197.832v-2.398M195.59 197.832v-4.625" fill="none" stroke-width=".5" stroke="#666" stroke-miterlimit="3.25"/><g fill="#666"><use xlink:href="#f" x="134.391" y="209.833"/><use xlink:href="#g" x="140.001" y="209.833"/><use xlink:href="#h" x="145.641" y="209.833"/><use xlink:href="#a" x="149.112" y="209.833"/><use xlink:href="#b" x="154.493" y="209.833"/><use xlink:href="#c" x="159.933" y="209.833"/><use xlink:href="#d" x="165.9" y="209.833"/><use xlink:href="#e" x="171.197" y="209.833"/></g><path d="M206.934 197.832v-2.398M218.277 197.832v-2.398M229.621 197.832v-2.398M240.965 197.832v-2.398M252.309 197.832v-2.398M263.652 197.832v-2.398M274.992 197.832v-4.625" fill="none" stroke-width=".5" stroke="#666" stroke-miterlimit="3.25"/><g fill="#666"><use xlink:href="#e" x="215.293" y="209.833"/><use xlink:href="#d" x="221.562" y="209.833"/><use xlink:href="#a" x="226.86" y="209.833"/><use xlink:href="#b" x="232.241" y="209.833"/><use xlink:href="#c" x="237.68" y="209.833"/><use xlink:href="#d" x="243.647" y="209.833"/><use xlink:href="#e" x="248.945" y="209.833"/></g><path d="M286.336 197.832v-2.398M297.68 197.832v-2.398M309.023 197.832v-2.398M320.367 197.832v-2.398M331.71 197.832v-2.398M343.05 197.832v-2.398M354.395 197.832v-4.625" fill="none" stroke-width=".5" stroke="#666" stroke-miterlimit="3.25"/><g fill="#666"><use xlink:href="#e" x="291.695" y="209.833"/><use xlink:href="#d" x="297.964" y="209.833"/><use xlink:href="#a" x="303.262" y="209.833"/><use xlink:href="#b" x="308.643" y="209.833"/><use xlink:href="#c" x="314.082" y="209.833"/><use xlink:href="#d" x="320.049" y="209.833"/><use xlink:href="#e" x="325.347" y="209.833"/></g><use xlink:href="#i" x="331.695" y="209.833" fill="#666"/><path d="M365.738 197.832v-2.398M377.082 197.832v-2.398M388.426 197.832v-2.398M399.77 197.832v-2.398M411.113 197.832v-2.398M422.453 197.832v-2.398M433.797 197.832v-4.625" fill="none" stroke-width=".5" stroke="#666" stroke-miterlimit="3.25"/><g fill="#666"><use xlink:href="#a" x="371.597" y="209.833"/><use xlink:href="#j" x="376.978" y="209.833"/><use xlink:href="#b" x="382.49" y="209.833"/><use xlink:href="#a" x="387.93" y="209.833"/><use xlink:href="#b" x="393.311" y="209.833"/><use xlink:href="#c" x="398.75" y="209.833"/><use xlink:href="#d" x="404.717" y="209.833"/><use xlink:href="#e" x="410.015" y="209.833"/></g><path d="M445.14 197.832v-2.398M456.484 197.832v-2.398M467.828 197.832v-2.398M479.172 197.832v-2.398M490.512 197.832v-2.398M501.855 197.832v-2.398M513.2 197.832v-4.625" fill="none" stroke-width=".5" stroke="#666" stroke-miterlimit="3.25"/><g fill="#666"><use xlink:href="#j" x="453.999" y="209.833"/><use xlink:href="#f" x="459.511" y="209.833"/><use xlink:href="#a" x="465.122" y="209.833"/><use xlink:href="#b" x="470.503" y="209.833"/><use xlink:href="#c" x="475.942" y="209.833"/><use xlink:href="#d" x="481.909" y="209.833"/><use xlink:href="#e" x="487.207" y="209.833"/></g><path d="M524.543 197.832v-2.398M535.887 197.832v-2.398M547.23 197.832v-2.398M558.57 197.832v-2.398M569.914 197.832v-2.398M581.258 197.832v-2.398" fill="none" stroke-width=".5" stroke="#666" stroke-miterlimit="3.25"/><g fill="#666"><use xlink:href="#k" x="532.901" y="209.833"/><use xlink:href="#f" x="539.424" y="209.833"/><use xlink:href="#a" x="545.034" y="209.833"/><use xlink:href="#b" x="550.415" y="209.833"/><use xlink:href="#c" x="555.855" y="209.833"/><use xlink:href="#d" x="561.821" y="209.833"/><use xlink:href="#e" x="567.119" y="209.833"/></g><path d="M20 197.832h4" fill="none" stroke-width=".5" stroke="#666" stroke-miterlimit="3.25"/><use xlink:href="#l" x="11" y="200.333" fill="#666"/><path d="M20 191.625h2.398M20 185.418h2.398M20 179.207h2.398M20 173h4" fill="none" stroke-width=".5" stroke="#666" stroke-miterlimit="3.25"/><use xlink:href="#m" x="11" y="175.5" fill="#666"/><path d="M20 166.793h2.398M20 160.582h2.398M20 154.375h2.398M20 148.168h4" fill="none" stroke-width=".5" stroke="#666" stroke-miterlimit="3.25"/><use xlink:href="#n" x="11" y="150.667" fill="#666"/><path d="M20 141.957h2.398M20 135.75h2.398M20 129.543h2.398M20 123.336h4" fill="none" stroke-width=".5" stroke="#666" stroke-miterlimit="3.25"/><use xlink:href="#o" x="11" y="125.834" fill="#666"/><path d="M20 117.125h2.398M20 110.918h2.398M20 104.71h2.398M20 98.5h4" fill="none" stroke-width=".5" stroke="#666" stroke-miterlimit="3.25"/><use xlink:href="#p" x="11" y="101.001" fill="#666"/><path d="M20 92.293h2.398M20 86.086h2.398M20 79.875h2.398M20 73.668h4" fill="none" stroke-width=".5" stroke="#666" stroke-miterlimit="3.25"/><g fill="#666"><use xlink:href="#q" x="6" y="76.168"/><use xlink:href="#l" x="11.615" y="76.168"/></g><path d="M20 67.46h2.398M20 61.25h2.398M20 55.043h2.398M20 48.836h4" fill="none" stroke-width=".5" stroke="#666" stroke-miterlimit="3.25"/><g fill="#666"><use xlink:href="#q" x="6" y="51.335"/><use xlink:href="#m" x="11.615" y="51.335"/></g><path d="M20 42.625h2.398M20 36.418h2.398M20 30.21h2.398M20 24h4" fill="none" stroke-width=".5" stroke="#666" stroke-miterlimit="3.25"/><g fill="#666"><use xlink:href="#q" x="6" y="26.502"/><use xlink:href="#n" x="11.615" y="26.502"/></g><path d="M20 17.793h2.398M20 11.586h2.398M20 5.379h2.398M48.133 5v2.398M59.473 5v2.398M70.816 5v2.398M82.16 5v2.398M93.504 5v2.398M104.848 5v2.398M116.191 5v4.629M127.531 5v2.398M138.875 5v2.398M150.219 5v2.398M161.563 5v2.398M172.906 5v2.398M184.25 5v2.398M195.59 5v4.629M206.934 5v2.398M218.277 5v2.398M229.621 5v2.398M240.965 5v2.398M252.309 5v2.398M263.652 5v2.398M274.992 5v4.629M286.336 5v2.398M297.68 5v2.398M309.023 5v2.398M320.367 5v2.398M331.71 5v2.398M343.05 5v2.398M354.395 5v4.629M365.738 5v2.398M377.082 5v2.398M388.426 5v2.398M399.77 5v2.398M411.113 5v2.398M422.453 5v2.398M433.797 5v4.629M445.14 5v2.398M456.484 5v2.398M467.828 5v2.398M479.172 5v2.398M490.512 5v2.398M501.855 5v2.398M513.2 5v4.629M524.543 5v2.398M535.887 5v2.398M547.23 5v2.398M558.57 5v2.398M569.914 5v2.398M581.258 5v2.398M598.5 197.832h-4M598.5 191.625h-2.398M598.5 185.418h-2.398M598.5 179.207h-2.398M598.5 173h-4M598.5 166.793h-2.398M598.5 160.582h-2.398M598.5 154.375h-2.398M598.5 148.168h-4M598.5 141.957h-2.398M598.5 135.75h-2.398M598.5 129.543h-2.398M598.5 123.336h-4M598.5 117.125h-2.398M598.5 110.918h-2.398M598.5 104.71h-2.398M598.5 98.5h-4M598.5 92.293h-2.398M598.5 86.086h-2.398M598.5 79.875h-2.398M598.5 73.668h-4M598.5 67.46h-2.398M598.5 61.25h-2.398M598.5 55.043h-2.398M598.5 48.836h-4M598.5 42.625h-2.398M598.5 36.418h-2.398M598.5 30.21h-2.398M598.5 24h-4M598.5 17.793h-2.398M598.5 11.586h-2.398M598.5 5.379h-2.398" fill="none" stroke-width=".5" stroke="#666" stroke-miterlimit="3.25"/><path d="M614.25 66.25v-8.5h8.5v8.5zm0 0" fill="#2b004d" stroke-width=".03" stroke-linecap="square" stroke="#2b004d" stroke-miterlimit="3.239"/><g clip-path="url(#r)"><path d="M614.25 66.25v-8.5h8.5v8.5zm0 0" fill="none" stroke-width=".5" stroke-linecap="square" stroke="#000" stroke-opacity=".406" stroke-miterlimit="3.25"/></g><g fill="#4d4d4d"><use xlink:href="#s" x="631" y="66.5"/><use xlink:href="#t" x="642.395" y="66.5"/><use xlink:href="#u" x="645.55" y="66.5"/><use xlink:href="#t" x="652.723" y="66.5"/><use xlink:href="#s" x="655.878" y="66.5"/><use xlink:href="#v" x="667.272" y="66.5"/><use xlink:href="#w" x="674.344" y="66.5"/></g><path d="M614.25 84.25v-8.5h8.5v8.5zm0 0" fill="#470c8a" stroke-width=".03" stroke-linecap="square" stroke="#470c8a" stroke-miterlimit="3.239"/><g clip-path="url(#x)"><path d="M614.25 84.25v-8.5h8.5v8.5zm0 0" fill="none" stroke-width=".5" stroke-linecap="square" stroke="#000" stroke-opacity=".406" stroke-miterlimit="3.25"/></g><g fill="#4d4d4d"><use xlink:href="#y" x="631" y="84.5"/><use xlink:href="#t" x="635.247" y="84.5"/><use xlink:href="#z" x="638.402" y="84.5"/><use xlink:href="#A" x="644.991" y="84.5"/></g><path d="M614.25 102.25v-8.5h8.5v8.5zm0 0" fill="#4338bd" stroke-width=".03" stroke-linecap="square" stroke="#4338bd" stroke-miterlimit="3.239"/><g clip-path="url(#B)"><path d="M614.25 102.25v-8.5h8.5v8.5zm0 0" fill="none" stroke-width=".5" stroke-linecap="square" stroke="#000" stroke-opacity=".406" stroke-miterlimit="3.25"/></g><g fill="#4d4d4d"><use xlink:href="#C" x="631" y="102.5"/><use xlink:href="#D" x="637.703" y="102.5"/><use xlink:href="#E" x="645.117" y="102.5"/><use xlink:href="#y" x="649.517" y="102.5"/></g><path d="M614.25 120.25v-8.5h8.5v8.5zm0 0" fill="#4176e3" stroke-width=".03" stroke-linecap="square" stroke="#4176e3" stroke-miterlimit="3.239"/><g clip-path="url(#F)"><path d="M614.25 120.25v-8.5h8.5v8.5zm0 0" fill="none" stroke-width=".5" stroke-linecap="square" stroke="#000" stroke-opacity=".406" stroke-miterlimit="3.25"/></g><g fill="#4d4d4d"><use xlink:href="#w" x="631" y="120.5"/><use xlink:href="#t" x="634.155" y="120.5"/><use xlink:href="#G" x="637.311" y="120.5"/><use xlink:href="#C" x="644.604" y="120.5"/><use xlink:href="#H" x="651.308" y="120.5"/><use xlink:href="#s" x="658.475" y="120.5"/></g><path d="M614.25 138.25v-8.5h8.5v8.5zm0 0" fill="#61b6f9" stroke-width=".03" stroke-linecap="square" stroke="#61b6f9" stroke-miterlimit="3.239"/><g clip-path="url(#I)"><path d="M614.25 138.25v-8.5h8.5v8.5zm0 0" fill="none" stroke-width=".5" stroke-linecap="square" stroke="#000" stroke-opacity=".406" stroke-miterlimit="3.25"/></g><g fill="#4d4d4d"><use xlink:href="#A" x="631" y="138.5"/><use xlink:href="#J" x="637.443" y="138.5"/><use xlink:href="#w" x="644.604" y="138.5"/><use xlink:href="#t" x="647.759" y="138.5"/><use xlink:href="#G" x="650.914" y="138.5"/><use xlink:href="#C" x="658.208" y="138.5"/><use xlink:href="#H" x="664.911" y="138.5"/><use xlink:href="#s" x="672.078" y="138.5"/></g><path d="M614.25 156.25v-8.5h8.5v8.5zm0 0" fill="#c5ecff" stroke-width=".03" stroke-linecap="square" stroke="#c5ecff" stroke-miterlimit="3.239"/><g clip-path="url(#K)"><path d="M614.25 156.25v-8.5h8.5v8.5zm0 0" fill="none" stroke-width=".5" stroke-linecap="square" stroke="#000" stroke-opacity=".406" stroke-miterlimit="3.25"/></g><g fill="#4d4d4d"><use xlink:href="#C" x="631" y="156.5"/><use xlink:href="#D" x="637.703" y="156.5"/><use xlink:href="#H" x="645.117" y="156.5"/><use xlink:href="#E" x="652.284" y="156.5"/><use xlink:href="#L" x="656.684" y="156.5"/><use xlink:href="#M" x="663.488" y="156.5"/><use xlink:href="#J" x="670.376" y="156.5"/><use xlink:href="#v" x="677.536" y="156.5"/><use xlink:href="#u" x="684.607" y="156.5"/></g></svg>