<svg xmlns="http://www.w3.org/2000/svg" xmlns:xlink="http://www.w3.org/1999/xlink" width="784pt" height="280" viewBox="0 0 784 210"><defs><clipPath id="a"><path d="M85 1h2v191h-2zm0 0"/></clipPath><clipPath id="b"><path d="M145 1h2v191h-2zm0 0"/></clipPath><clipPath id="c"><path d="M205 1h2v191h-2zm0 0"/></clipPath><clipPath id="d"><path d="M265 1h2v191h-2zm0 0"/></clipPath><clipPath id="e"><path d="M20 187h312v2H20zm0 0"/></clipPath><clipPath id="f"><path d="M20 147h312v2H20zm0 0"/></clipPath><clipPath id="g"><path d="M20 108h312v2H20zm0 0"/></clipPath><clipPath id="h"><path d="M20 68h312v2H20zm0 0"/></clipPath><clipPath id="i"><path d="M20 28h312v2H20zm0 0"/></clipPath><clipPath id="j"><path d="M20 142h312v50H20zm0 0"/></clipPath><clipPath id="k"><path d="M20 3h312v189H20zm0 0"/></clipPath><clipPath id="l"><path d="M20 174h312v18H20zm0 0"/></clipPath><clipPath id="t"><path d="M368 155h307v2H368zm0 0"/></clipPath><clipPath id="u"><path d="M368 114h307v2H368zm0 0"/></clipPath><clipPath id="v"><path d="M368 72h307v2H368zm0 0"/></clipPath><clipPath id="w"><path d="M368 31h307v2H368zm0 0"/></clipPath><clipPath id="x"><path d="M368 34h307v98H368zm0 0"/></clipPath><clipPath id="y"><path d="M368 4h307v150H368zm0 0"/></clipPath><clipPath id="z"><path d="M368 126h307v61H368zm0 0"/></clipPath><clipPath id="A"><path d="M368 131h307v62H368zm0 0"/></clipPath><clipPath id="B"><path d="M368 130h307v62H368zm0 0"/></clipPath><symbol overflow="visible" id="m"><path d="M5.047-3.031c0 1.058-.18 1.844-.54 2.36-.362.51-.925.769-1.694.769-.758 0-1.32-.25-1.684-.754C.766-1.16.574-1.91.562-2.91v-1.207c0-1.043.18-1.82.54-2.328.363-.508.93-.762 1.703-.762.765 0 1.328.246 1.687.734.36.489.547 1.246.555 2.27zm-.902-1.235c0-.765-.106-1.324-.32-1.675-.216-.348-.555-.524-1.02-.524-.465 0-.801.176-1.012.524-.211.347-.32.882-.328 1.605v1.445c0 .77.113 1.336.336 1.704.222.367.558.546 1.012.546.445 0 .777-.171.992-.515.218-.344.332-.89.34-1.633zm0 0"/></symbol><symbol overflow="visible" id="n"><path d="M3.559 0h-.907v-6.02l-1.824.668v-.82l2.59-.973h.14zm0 0"/></symbol><symbol overflow="visible" id="o"><path d="M5.25 0H.59v-.648l2.46-2.735c.364-.414.618-.75.755-1.008.14-.257.21-.527.21-.804 0-.371-.113-.676-.34-.914-.222-.239-.523-.356-.898-.356-.449 0-.797.13-1.047.383-.25.254-.37.613-.37 1.066H.452c0-.652.211-1.183.633-1.586.422-.402.984-.605 1.691-.605.66 0 1.184.172 1.567.52.386.347.578.808.578 1.382 0 .703-.445 1.535-1.336 2.5L1.68-.738h3.57zm0 0"/></symbol><symbol overflow="visible" id="p"><path d="M1.906-3.992h.676c.426-.008.762-.121 1.008-.34.242-.219.363-.512.363-.883 0-.832-.414-1.25-1.242-1.25-.39 0-.703.113-.938.336-.23.223-.347.516-.347.887H.523c0-.563.204-1.031.618-1.406.41-.372.933-.559 1.57-.559.672 0 1.195.176 1.578.531.379.356.57.848.57 1.48 0 .31-.101.61-.3.9-.2.288-.473.507-.817.648.39.125.692.328.903.617.214.285.32.636.32 1.047 0 .64-.207 1.144-.625 1.52-.418.374-.957.562-1.625.562s-1.211-.18-1.63-.543c-.417-.36-.624-.836-.624-1.43h.906c0 .375.121.672.367.898.243.227.57.336.98.336.438 0 .77-.113 1-.34.231-.23.349-.554.349-.98 0-.414-.125-.734-.383-.953-.254-.223-.618-.336-1.098-.344h-.676zm0 0"/></symbol><symbol overflow="visible" id="q"><path d="M4.406-2.387h.985v.739h-.985V0h-.91v-1.648H.258v-.536L3.44-7.109h.965zm-3.12 0h2.21v-3.488l-.105.195zm0 0"/></symbol><symbol overflow="visible" id="r"><path d="M1.008-3.563l.36-3.546h3.64v.836H2.133l-.215 1.937a2.32 2.32 0 011.187-.309c.649 0 1.16.215 1.543.645.383.426.57 1.004.57 1.734 0 .735-.195 1.309-.593 1.73-.395.423-.945.634-1.656.634-.63 0-1.14-.176-1.54-.524C1.032-.773.81-1.254.75-1.87h.855c.055.406.2.715.434.922.234.207.547.308.93.308.422 0 .75-.14.988-.43.238-.284.36-.679.36-1.187 0-.472-.13-.855-.387-1.144-.258-.285-.606-.43-1.035-.43-.395 0-.704.086-.926.258l-.242.195zm0 0"/></symbol><symbol overflow="visible" id="s"><path d="M.703-.473c0-.156.047-.289.14-.39.095-.106.231-.157.415-.157.187 0 .328.051.426.157a.567.567 0 01.144.39c0 .149-.05.274-.144.375-.098.102-.239.153-.426.153-.184 0-.324-.051-.414-.153a.532.532 0 01-.14-.375zm0 0"/></symbol><symbol overflow="visible" id="C"><path d="M6.691-3.36c0 1.047-.238 1.891-.718 2.528-.477.64-1.125.957-1.942.957-.836 0-1.488-.262-1.968-.793v3.309H.89v-9.508h1.07l.059.762c.476-.594 1.14-.891 1.992-.891.824 0 1.476.312 1.957.934.48.62.722 1.488.722 2.597zm-1.175-.132c0-.774-.164-1.387-.496-1.832C4.69-5.774 4.238-6 3.664-6c-.71 0-1.246.316-1.602.945v3.285c.352.625.891.938 1.614.938.562 0 1.011-.223 1.344-.668.332-.445.496-1.11.496-1.992zm0 0"/></symbol><symbol overflow="visible" id="D"><path d="M.602-3.492c0-1.055.25-1.899.75-2.543.5-.64 1.152-.961 1.96-.961.805 0 1.442.277 1.91.824V-9.75h1.176V0H5.32l-.058-.734C4.793-.16 4.14.125 3.3.125c-.797 0-1.446-.324-1.946-.977-.5-.652-.753-1.5-.753-2.55zm1.175.133c0 .78.16 1.39.48 1.828.325.441.77.66 1.337.66.742 0 1.289-.332 1.629-1v-3.156C4.87-5.676 4.332-6 3.605-6c-.574 0-1.023.223-1.347.668-.32.445-.48 1.102-.48 1.973zm0 0"/></symbol><symbol overflow="visible" id="E"><path d="M1.465 0v-5.96H.383v-.907h1.082v-.707c0-.735.2-1.305.59-1.707.394-.403.953-.602 1.672-.602.27 0 .539.035.804.11l-.062.949c-.2-.04-.41-.055-.633-.055-.383 0-.676.11-.883.332-.207.223-.312.54-.312.953v.727h1.464v.906H2.641V0zm0 0"/></symbol><symbol overflow="visible" id="F"><path d="M2.297-.996H6.68V0H1.074v-9.242h1.223zm0 0"/></symbol><symbol overflow="visible" id="G"><path d="M5.129 0c-.066-.137-.121-.375-.164-.723-.547.567-1.2.848-1.957.848-.676 0-1.23-.191-1.664-.574A1.859 1.859 0 01.69-1.906c0-.715.274-1.27.817-1.664.543-.395 1.308-.594 2.293-.594h1.144v-.54c0-.41-.125-.737-.367-.98-.246-.242-.61-.367-1.086-.367-.418 0-.77.106-1.054.32-.286.211-.426.465-.426.766H.832c0-.344.121-.672.363-.992a2.45 2.45 0 01.992-.758 3.317 3.317 0 011.376-.281c.789 0 1.41.2 1.859.594.45.394.68.941.695 1.636v3.16c0 .63.082 1.133.242 1.504V0zm-1.95-.895c.368 0 .72-.097 1.048-.285.332-.191.57-.437.718-.742v-1.41h-.922c-1.437 0-2.156.422-2.156 1.262 0 .367.121.656.367.863.246.207.563.312.946.312zm0 0"/></symbol><symbol overflow="visible" id="H"><path d="M7.457-8.238H4.488V0H3.273v-8.238H.313v-1.004h7.144zm0 0"/></symbol><symbol overflow="visible" id="I"><path d="M3.738.125c-.93 0-1.687-.305-2.273-.914C.883-1.402.59-2.22.59-3.242v-.219c0-.68.129-1.289.39-1.824a3.069 3.069 0 011.094-1.258c.465-.3.973-.453 1.52-.453.89 0 1.586.297 2.082.883.496.59.742 1.43.742 2.527v.488H1.766c.015.676.214 1.223.593 1.641.38.418.86.625 1.442.625.414 0 .765-.086 1.054-.254.29-.168.54-.394.754-.672l.72.559C5.753-.316 4.89.125 3.738.125zm-.144-6.156c-.477 0-.871.172-1.196.52-.32.343-.52.827-.593 1.449h3.437v-.09c-.031-.598-.195-1.059-.48-1.387-.29-.328-.68-.492-1.168-.492zm0 0"/></symbol><symbol overflow="visible" id="J"><path d="M4.086-5.7l2.219-3.542h1.433L4.816-4.66 7.81 0h-1.45L4.086-3.605 1.805 0H.363L3.36-4.66.43-9.242h1.43zm0 0"/></symbol><symbol overflow="visible" id="K"><path d="M5.129-.68C4.672-.14 4 .125 3.117.125c-.734 0-1.289-.21-1.672-.637C1.062-.937.867-1.566.863-2.398v-4.47H2.04v4.438c0 1.04.422 1.559 1.27 1.559.894 0 1.492-.332 1.789-1v-4.996h1.175V0H5.156zm0 0"/></symbol><symbol overflow="visible" id="L"><path d="M6.176-2.414H2.305L1.434 0H.18l3.527-9.242h1.066L8.31 0h-1.25zm-3.504-1h3.14l-1.57-4.324zm0 0"/></symbol></defs><g clip-path="url(#a)"><path d="M86.145 191.82V1.5" fill="none" stroke="#666" stroke-opacity=".5" stroke-dasharray="1,2" stroke-miterlimit="3.25"/></g><g clip-path="url(#b)"><path d="M146.047 191.82V1.5" fill="none" stroke="#666" stroke-opacity=".5" stroke-dasharray="1,2" stroke-miterlimit="3.25"/></g><g clip-path="url(#c)"><path d="M205.953 191.82V1.5" fill="none" stroke="#666" stroke-opacity=".5" stroke-dasharray="1,2" stroke-miterlimit="3.25"/></g><g clip-path="url(#d)"><path d="M265.855 191.82V1.5" fill="none" stroke="#666" stroke-opacity=".5" stroke-dasharray="1,2" stroke-miterlimit="3.25"/></g><g clip-path="url(#e)"><path d="M20 188.012h312" fill="none" stroke="#666" stroke-opacity=".5" stroke-dasharray="1,2" stroke-miterlimit="3.25"/></g><g clip-path="url(#f)"><path d="M20 148.266h312" fill="none" stroke="#666" stroke-opacity=".5" stroke-dasharray="1,2" stroke-miterlimit="3.25"/></g><g clip-path="url(#g)"><path d="M20 108.52h312" fill="none" stroke="#666" stroke-opacity=".5" stroke-dasharray="1,2" stroke-miterlimit="3.25"/></g><g clip-path="url(#h)"><path d="M20 68.773h312" fill="none" stroke="#666" stroke-opacity=".5" stroke-dasharray="1,2" stroke-miterlimit="3.25"/></g><g clip-path="url(#i)"><path d="M20 29.023h312" fill="none" stroke="#666" stroke-opacity=".5" stroke-dasharray="1,2" stroke-miterlimit="3.25"/></g><g clip-path="url(#j)"><path d="M32.23 187.355l5.993-1.863 5.988-.554 5.992-1.043 5.988.628 5.993-.57 5.988-.351 5.992-.563 5.988-.883 5.993-.89 5.988-.891 5.992.168 5.988-.797 5.992-.398 5.993-.793 5.988-.559 5.992-.637 5.988-.554 5.993-1.43h5.988l5.992-.559 5.988-1.113 5.993-.316 5.988-.477 5.992-.715 5.992-1.113 5.988.078 5.993-.715 5.988-.476 5.992-.637 5.988-.637 5.993-1.27 5.988-1.195 5.992.56 5.988-.876 5.993-.476 5.992-.32 5.988-.954 5.992-1.113 5.988.32 5.993-1.035 5.988-.555 5.992-.238 5.988-.953 5.993-.559 5.988-.554 5.992-.875 5.988-.32 5.993-.876 5.992-.633" fill="none" stroke-width="3" stroke="#274e17" stroke-miterlimit="3.25"/></g><g clip-path="url(#k)"><path d="M32.23 187.82l5.993-.586 5.988-.238 5.992-.476 5.988-.723 5.993-1.004 5.988-.961 5.992-.66 5.988-1.16 5.993-1.266 5.988-1.555 5.992-1.59 5.988-1.671 5.992-1.907 5.993-2.148 5.988-2.066 5.992-2.704 5.988-1.828 5.993-3.18 5.988-2.144 5.992-2.465 5.988-2.941 5.993-3.102 5.988-2.941 5.992-3.258 5.992-3.418 5.988-4.93 5.993-3.18 5.988-3.495 5.992-4.532 5.988-4.375 5.993-4.132 5.988-4.133 5.992-5.328 5.988-3.973 5.993-4.77 5.992-5.566 5.988-4.77 5.992-4.769 5.988-5.563 5.993-5.566 5.988-5.562 5.992-6.364 5.988-6.36 5.993-4.769 5.988-6.359 5.992-6.36 5.988-6.359 5.993-7.152 5.992-6.36" fill="none" stroke-width="3" stroke="#776c43" stroke-miterlimit="3.25"/></g><g clip-path="url(#l)" fill="none" stroke-width="3" stroke-miterlimit="3.25"><path d="M32.23 187.973l5.993.007h11.98l5.988-.003h11.98l5.993-.008h5.988l5.993-.008 5.988-.004 5.992.004 5.988-.004 11.985-.008h5.988l5.992-.008h5.988l5.993-.004 5.988-.003 5.992-.004h5.988l5.993-.004 5.988-.004H176l5.992-.004 5.988-.008 5.993-.008 5.988.004 5.992-.004h5.988l5.993-.035 5.988.024h5.992l5.988-.004 5.993-.004h5.992l5.988-.004 5.992-.016 5.988.008 5.993-.016 5.988.008 5.992-.008h5.988l5.993-.007h5.988l5.992-.004 5.988-.004 5.993-.024 5.992.016" stroke="#c08960"/><path d="M32.23 187.992l5.993-.004h5.988l5.992-.02h5.988l5.993.009h5.988l5.992-.004h5.988l5.993-.004 5.988-.004h5.992l5.988-.004h11.985l5.988-.004 5.992-.004h5.988l5.993-.004 5.988-.008 5.992.004 5.988-.004h5.993l5.988-.011 5.992.007 5.992-.003 5.988-.004h5.993l5.988-.004 5.992-.004h11.98l5.989-.004 5.992-.004 5.988-.004 5.993-.004h5.992l5.988-.004h5.992l5.988-.004 5.993-.011 5.988.004 5.992-.008 5.988.004 5.993-.02 5.988.016h11.98l11.985-.008" stroke="#c4654a"/><path d="M32.23 187.973l5.993.007 5.988.008 5.992-.008 5.988-.007h11.98l5.993.007 5.988-.007 5.993-.008 5.988.008 5.992-.008h5.988l5.992-.008h23.961l5.993-.008h17.968l5.993-.008h29.953l5.988-.007h17.973l5.988-.008 5.992-.016 5.988.016 5.993-.008h5.992l5.988-.008 5.992-.008 5.988.008 5.993-.008 5.988.008h5.992l5.988-.008h5.993l5.988-.039 5.992.032 5.988.007 11.985-.015" stroke="#b2231c"/></g><path d="M332 191.82H20M20 191.82V1.5M20 1.5h312M332 1.5v190.32" fill="none" stroke-width=".5" stroke-linecap="square" stroke="#666" stroke-miterlimit="3.25"/><path d="M26.238 191.82v-3.66" fill="none" stroke-width=".5" stroke="#666" stroke-miterlimit="3.25"/><use xlink:href="#m" x="23.24" y="203.82" fill="#666"/><path d="M38.223 191.82v-2.199M50.203 191.82v-2.199M62.184 191.82v-2.199M74.164 191.82v-2.199M86.145 191.82v-3.66" fill="none" stroke-width=".5" stroke="#666" stroke-miterlimit="3.25"/><g fill="#666"><use xlink:href="#n" x="80.644" y="203.82"/><use xlink:href="#m" x="86.259" y="203.82"/></g><path d="M98.125 191.82v-2.199M110.105 191.82v-2.199M122.086 191.82v-2.199M134.066 191.82v-2.199M146.047 191.82v-3.66" fill="none" stroke-width=".5" stroke="#666" stroke-miterlimit="3.25"/><g fill="#666"><use xlink:href="#o" x="140.548" y="203.82"/><use xlink:href="#m" x="146.163" y="203.82"/></g><path d="M158.027 191.82v-2.199M170.008 191.82v-2.199M181.992 191.82v-2.199M193.973 191.82v-2.199M205.953 191.82v-3.66" fill="none" stroke-width=".5" stroke="#666" stroke-miterlimit="3.25"/><g fill="#666"><use xlink:href="#p" x="200.452" y="203.82"/><use xlink:href="#m" x="206.067" y="203.82"/></g><path d="M217.934 191.82v-2.199M229.914 191.82v-2.199M241.895 191.82v-2.199M253.875 191.82v-2.199M265.855 191.82v-3.66" fill="none" stroke-width=".5" stroke="#666" stroke-miterlimit="3.25"/><g fill="#666"><use xlink:href="#q" x="260.356" y="203.82"/><use xlink:href="#m" x="265.971" y="203.82"/></g><path d="M277.836 191.82v-2.199M289.816 191.82v-2.199M301.797 191.82v-2.199M313.777 191.82v-2.199M325.762 191.82v-3.66" fill="none" stroke-width=".5" stroke="#666" stroke-miterlimit="3.25"/><g fill="#666"><use xlink:href="#r" x="320.26" y="203.82"/><use xlink:href="#m" x="325.875" y="203.82"/></g><path d="M20 188.012h3.66" fill="none" stroke-width=".5" stroke="#666" stroke-miterlimit="3.25"/><g fill="#666"><use xlink:href="#m" x="3" y="190.514"/><use xlink:href="#s" x="8.615" y="190.514"/><use xlink:href="#m" x="11.247" y="190.514"/></g><path d="M20 180.063h2.195M20 172.113h2.195M20 164.164h2.195M20 156.215h2.195M20 148.266h3.66" fill="none" stroke-width=".5" stroke="#666" stroke-miterlimit="3.25"/><g fill="#666"><use xlink:href="#m" x="3" y="150.766"/><use xlink:href="#s" x="8.615" y="150.766"/><use xlink:href="#r" x="11.247" y="150.766"/></g><path d="M20 140.316h2.195M20 132.367h2.195M20 124.418h2.195M20 116.469h2.195M20 108.52h3.66" fill="none" stroke-width=".5" stroke="#666" stroke-miterlimit="3.25"/><g fill="#666"><use xlink:href="#n" x="3" y="111.019"/><use xlink:href="#s" x="8.615" y="111.019"/><use xlink:href="#m" x="11.247" y="111.019"/></g><path d="M20 100.57h2.195M20 92.621h2.195M20 84.672h2.195M20 76.723h2.195M20 68.773h3.66" fill="none" stroke-width=".5" stroke="#666" stroke-miterlimit="3.25"/><g fill="#666"><use xlink:href="#n" x="3" y="71.272"/><use xlink:href="#s" x="8.615" y="71.272"/><use xlink:href="#r" x="11.247" y="71.272"/></g><path d="M20 60.82h2.195M20 52.871h2.195M20 44.922h2.195M20 36.973h2.195M20 29.023h3.66" fill="none" stroke-width=".5" stroke="#666" stroke-miterlimit="3.25"/><g fill="#666"><use xlink:href="#o" x="3" y="31.524"/><use xlink:href="#s" x="8.615" y="31.524"/><use xlink:href="#m" x="11.247" y="31.524"/></g><path d="M20 21.074h2.195M20 13.125h2.195M20 5.176h2.195M26.238 1.5v3.66M38.223 1.5v2.195M50.203 1.5v2.195M62.184 1.5v2.195M74.164 1.5v2.195M86.145 1.5v3.66M98.125 1.5v2.195M110.105 1.5v2.195M122.086 1.5v2.195M134.066 1.5v2.195M146.047 1.5v3.66M158.027 1.5v2.195M170.008 1.5v2.195M181.992 1.5v2.195M193.973 1.5v2.195M205.953 1.5v3.66M217.934 1.5v2.195M229.914 1.5v2.195M241.895 1.5v2.195M253.875 1.5v2.195M265.855 1.5v3.66M277.836 1.5v2.195M289.816 1.5v2.195M301.797 1.5v2.195M313.777 1.5v2.195M325.762 1.5v3.66M332 188.012h-3.66M332 180.063h-2.195M332 172.113h-2.195M332 164.164h-2.195M332 156.215h-2.195M332 148.266h-3.66M332 140.316h-2.195M332 132.367h-2.195M332 124.418h-2.195M332 116.469h-2.195M332 108.52h-3.66M332 100.57h-2.195M332 92.621h-2.195M332 84.672h-2.195M332 76.723h-2.195M332 68.773h-3.66M332 60.82h-2.195M332 52.871h-2.195M332 44.922h-2.195M332 36.973h-2.195M332 29.023h-3.66M332 21.074h-2.195M332 13.125h-2.195M332 5.176h-2.195" fill="none" stroke-width=".5" stroke="#666" stroke-miterlimit="3.25"/><path d="M433.086 192.238V2.5M492.027 192.238V2.5M550.973 192.238V2.5M609.914 192.238V2.5" fill="none" stroke="#666" stroke-opacity=".5" stroke-dasharray="1,2" stroke-miterlimit="3.25"/><g clip-path="url(#t)"><path d="M368 156.188h307" fill="none" stroke="#666" stroke-opacity=".5" stroke-dasharray="1,2" stroke-miterlimit="3.25"/></g><g clip-path="url(#u)"><path d="M368 114.676h307" fill="none" stroke="#666" stroke-opacity=".5" stroke-dasharray="1,2" stroke-miterlimit="3.25"/></g><g clip-path="url(#v)"><path d="M368 73.164h307" fill="none" stroke="#666" stroke-opacity=".5" stroke-dasharray="1,2" stroke-miterlimit="3.25"/></g><g clip-path="url(#w)"><path d="M368 31.652h307" fill="none" stroke="#666" stroke-opacity=".5" stroke-dasharray="1,2" stroke-miterlimit="3.25"/></g><g clip-path="url(#x)"><path d="M380.035 118.102l5.895-24.227 5.894-3.598 5.895-5.254 5.894 2.98 5.895-2.737 5.894-1.489 5.895-2.168 5.894-2.945 5.895-2.55 5.89-2.235 5.895.398 5.895-1.82 5.894-.848 5.895-1.582 5.894-1.03 5.895-1.11 5.894-.918 5.895-2.168h5.894l5.895-.774 5.894-1.46 5.895-.399 5.894-.578 5.895-.832 5.895-1.227 5.894.086 5.895-.75 5.894-.484 5.895-.625 5.894-.602 5.895-1.148 5.894-1.016 5.895.465 5.894-.727 5.895-.386 5.894-.25 5.895-.739 5.894-.82 5.891.23 5.895-.742 5.894-.386 5.895-.16 5.894-.641 5.895-.36 5.894-.355 5.895-.547 5.894-.191 5.895-.524 5.894-.37" fill="none" stroke-width="3" stroke="#274e17" stroke-miterlimit="3.25"/></g><g clip-path="url(#y)"><path d="M380.035 140.18l5.895-25.102 5.894-4.851 5.895-6.934 5.894-7.117 5.895-6.719 5.894-4.71 5.895-2.642 5.894-3.875 5.895-3.445 5.89-3.504 5.895-2.988 5.895-2.68 5.894-2.64 5.895-2.575 5.894-2.171 5.895-2.497 5.894-1.511 5.895-2.36 5.894-1.437 5.895-1.516 5.894-1.66 5.895-1.598 5.894-1.394 5.895-1.426 5.895-1.387 5.894-1.828 5.895-1.09 5.894-1.125 5.895-1.359 5.894-1.223 5.895-1.086 5.894-1.023 5.895-1.234 5.894-.871 5.895-.997 5.894-1.09 5.895-.886 5.894-.848 5.891-.937 5.895-.89 5.894-.852 5.895-.926 5.894-.88 5.895-.632 5.894-.809 5.895-.777 5.894-.742 5.895-.8 5.894-.684" fill="none" stroke-width="3" stroke="#776c43" stroke-miterlimit="3.25"/></g><g clip-path="url(#z)"><path d="M380.035 168.543l5.895 4.3 5.894-.667 5.895-.645 5.894-.664 5.895-1.18 5.894-.566 5.895-2.121 5.894-.52 5.895-3.523 5.89-.77 5.895.77 5.895-1.144 5.894-.747 5.895-.695 5.894-.691 5.895-2.203 5.894.293 5.895-.583 5.894-.855 5.895-.852h5.894l5.895-1.011 5.894-.645 5.895-.465 5.895-.757 5.894-1.145 5.895-1.59 5.894 1.18 5.895-.797 5.894-.129 5.895-5.121 5.894 3.055 5.895.117 5.894-.344 5.895-.45 5.894-.327 5.895-.324 5.894-1.918 5.891.78 5.895-1.718 5.894.84 5.895-.746h5.894l5.895-1.067h5.894l5.895-.257 5.894-.668 5.895-2.086 5.894 1.523" fill="none" stroke-width="3" stroke="#c08960" stroke-miterlimit="3.25"/></g><g clip-path="url(#A)"><path d="M380.035 179.465l5.895-2.735 5.894-.878 5.895-9.372 5.894-.472 5.895 3.68 5.894.578 5.895-1.723 5.894-1.043 5.895-.5 5.89-1.453h5.895l5.895-1.34 5.894-.824 5.895-.426 5.894-.77 5.895-.765 11.789-1.414 5.894-2.531 5.895 1.558 5.894-.644 5.895-.621 5.894-2.461 5.895 1.3 5.895-.601 5.894-.528 5.895-.511 5.894-.5 5.895-.485 5.894-.625h5.895l5.894-.308 5.895-.887 5.894-.844 5.895-.808 5.894.398 5.895-1.043h5.894l5.891-.5 5.895-1.539 5.894.344 5.895-.793 5.894.45 5.895-2.829 5.894 2.05 5.895.329 5.894-.219 5.895-.433 5.894-.63" fill="none" stroke-width="3" stroke="#c4654a" stroke-miterlimit="3.25"/></g><g clip-path="url(#B)"><path d="M380.035 168.543l5.895 4.3 5.894 4.755 5.895-4.754 5.894-4.301h11.79l5.894 4.3 5.894-4.3 5.895-2.996 5.89 2.996 5.895-2.996h5.895l5.894-2.98h23.578l5.895-2.56h17.683l5.895-1.917h29.473l5.894-2.082 5.895.324 5.894-.324h5.895l5.894-1.54 5.895-3.148 5.894 3.149 5.895-1.719 5.894.3 5.895-1.593 5.894-1.336 5.891 1.2 5.895-1.071 5.894 1.207h5.895l5.894-1.336h5.895l5.894-5.41 5.895 4.168 5.894 1.242 5.895-1.363 5.894-1.043" fill="none" stroke-width="3" stroke="#b2231c" stroke-miterlimit="3.25"/></g><path d="M675 192.238H368M368 192.238V2.5M368 2.5h307M675 2.5v189.738" fill="none" stroke-width=".5" stroke-linecap="square" stroke="#666" stroke-miterlimit="3.25"/><path d="M374.14 192.238v-3.633" fill="none" stroke-width=".5" stroke="#666" stroke-miterlimit="3.25"/><use xlink:href="#m" x="371.14" y="204.236" fill="#666"/><path d="M385.93 192.238v-2.18M397.719 192.238v-2.18M409.508 192.238v-2.18M421.297 192.238v-2.18M433.086 192.238v-3.633" fill="none" stroke-width=".5" stroke="#666" stroke-miterlimit="3.25"/><g fill="#666"><use xlink:href="#n" x="427.584" y="204.236"/><use xlink:href="#m" x="433.199" y="204.236"/></g><path d="M444.871 192.238v-2.18M456.66 192.238v-2.18M468.45 192.238v-2.18M480.238 192.238v-2.18M492.027 192.238v-3.633" fill="none" stroke-width=".5" stroke="#666" stroke-miterlimit="3.25"/><g fill="#666"><use xlink:href="#o" x="486.528" y="204.236"/><use xlink:href="#m" x="492.143" y="204.236"/></g><path d="M503.816 192.238v-2.18M515.605 192.238v-2.18M527.395 192.238v-2.18M539.184 192.238v-2.18M550.973 192.238v-3.633" fill="none" stroke-width=".5" stroke="#666" stroke-miterlimit="3.25"/><g fill="#666"><use xlink:href="#p" x="545.472" y="204.236"/><use xlink:href="#m" x="551.087" y="204.236"/></g><path d="M562.762 192.238v-2.18M574.55 192.238v-2.18M586.34 192.238v-2.18M598.129 192.238v-2.18M609.914 192.238v-3.633" fill="none" stroke-width=".5" stroke="#666" stroke-miterlimit="3.25"/><g fill="#666"><use xlink:href="#q" x="604.416" y="204.236"/><use xlink:href="#m" x="610.031" y="204.236"/></g><path d="M621.703 192.238v-2.18M633.492 192.238v-2.18M645.281 192.238v-2.18M657.07 192.238v-2.18M668.86 192.238v-3.633" fill="none" stroke-width=".5" stroke="#666" stroke-miterlimit="3.25"/><g fill="#666"><use xlink:href="#r" x="663.36" y="204.236"/><use xlink:href="#m" x="668.975" y="204.236"/></g><path d="M368 156.188h3.07" fill="none" stroke-width=".1" stroke="#666" stroke-miterlimit="3.25"/><g fill="#666"><use xlink:href="#m" x="340" y="158.688"/><use xlink:href="#s" x="345.615" y="158.688"/><use xlink:href="#m" x="348.247" y="158.688"/><use xlink:href="#m" x="353.862" y="158.688"/><use xlink:href="#n" x="359.478" y="158.688"/></g><path d="M368 114.676h3.07" fill="none" stroke-width=".1" stroke="#666" stroke-miterlimit="3.25"/><g fill="#666"><use xlink:href="#m" x="340" y="117.176"/><use xlink:href="#s" x="345.615" y="117.176"/><use xlink:href="#m" x="348.247" y="117.176"/><use xlink:href="#n" x="353.862" y="117.176"/><use xlink:href="#m" x="359.478" y="117.176"/></g><path d="M368 73.164h3.07" fill="none" stroke-width=".1" stroke="#666" stroke-miterlimit="3.25"/><g fill="#666"><use xlink:href="#m" x="340" y="75.663"/><use xlink:href="#s" x="345.615" y="75.663"/><use xlink:href="#n" x="348.247" y="75.663"/><use xlink:href="#m" x="353.862" y="75.663"/><use xlink:href="#m" x="359.478" y="75.663"/></g><path d="M368 31.652h3.07" fill="none" stroke-width=".1" stroke="#666" stroke-miterlimit="3.25"/><use xlink:href="#n" x="359" y="34.15" fill="#666"/><path d="M368 185.203h2.18M368 177.895h2.18M368 172.707h2.18M368 168.684h2.18M368 165.398h2.18M368 162.617h2.18M368 160.21h2.18M368 158.09h2.18M368 143.691h2.18M368 136.383h2.18M368 131.195h2.18M368 127.172h2.18M368 123.887h2.18M368 121.105h2.18M368 118.7h2.18M368 116.574h2.18M368 102.18h2.18M368 94.871h2.18M368 89.684h2.18M368 85.66h2.18M368 82.371h2.18M368 79.594h2.18M368 77.188h2.18M368 75.063h2.18M368 60.668h2.18M368 53.355h2.18M368 48.172h2.18M368 44.148h2.18M368 40.86h2.18M368 38.082h2.18M368 35.672h2.18M368 33.55h2.18M368 19.152h2.18M368 11.844h2.18M368 6.656h2.18M368 2.633h2.18" fill="none" stroke-width=".1" stroke="#666" stroke-miterlimit="3.25"/><path d="M374.14 2.5v3.633M385.93 2.5v2.18M397.719 2.5v2.18M409.508 2.5v2.18M421.297 2.5v2.18M433.086 2.5v3.633M444.871 2.5v2.18M456.66 2.5v2.18M468.45 2.5v2.18M480.238 2.5v2.18M492.027 2.5v3.633M503.816 2.5v2.18M515.605 2.5v2.18M527.395 2.5v2.18M539.184 2.5v2.18M550.973 2.5v3.633M562.762 2.5v2.18M574.55 2.5v2.18M586.34 2.5v2.18M598.129 2.5v2.18M609.914 2.5v3.633M621.703 2.5v2.18M633.492 2.5v2.18M645.281 2.5v2.18M657.07 2.5v2.18M668.86 2.5v3.633" fill="none" stroke-width=".5" stroke="#666" stroke-miterlimit="3.25"/><path d="M675 156.188h-3.07M675 114.676h-3.07M675 73.164h-3.07M675 31.652h-3.07M675 185.203h-2.18M675 177.895h-2.18M675 172.707h-2.18M675 168.684h-2.18M675 165.398h-2.18M675 162.617h-2.18M675 160.21h-2.18M675 158.09h-2.18M675 143.691h-2.18M675 136.383h-2.18M675 131.195h-2.18M675 127.172h-2.18M675 123.887h-2.18M675 121.105h-2.18M675 118.7h-2.18M675 116.574h-2.18M675 102.18h-2.18M675 94.871h-2.18M675 89.684h-2.18M675 85.66h-2.18M675 82.371h-2.18M675 79.594h-2.18M675 77.188h-2.18M675 75.063h-2.18M675 60.668h-2.18M675 53.355h-2.18M675 48.172h-2.18M675 44.148h-2.18M675 40.86h-2.18M675 38.082h-2.18M675 35.672h-2.18M675 33.55h-2.18M675 19.152h-2.18M675 11.844h-2.18M675 6.656h-2.18M675 2.633h-2.18" fill="none" stroke-width=".1" stroke="#666" stroke-miterlimit="3.25"/><path d="M695.5 62.5h16" fill="none" stroke-width="3" stroke="#274e17" stroke-miterlimit="3.25"/><use xlink:href="#C" x="721" y="67"/><use xlink:href="#D" x="728.294" y="67"/><use xlink:href="#E" x="735.626" y="67"/><use xlink:href="#F" x="740.14" y="67"/><use xlink:href="#G" x="747.135" y="67"/><use xlink:href="#H" x="754.206" y="67"/><use xlink:href="#I" x="761.963" y="67"/><use xlink:href="#J" x="768.851" y="67"/><path d="M695.5 83.5h16" fill="none" stroke-width="3" stroke="#776c43" stroke-miterlimit="3.25"/><g><use xlink:href="#J" x="721" y="88"/><use xlink:href="#I" x="729.15" y="88"/><use xlink:href="#F" x="736.038" y="88"/><use xlink:href="#G" x="743.033" y="88"/><use xlink:href="#H" x="750.104" y="88"/><use xlink:href="#I" x="757.861" y="88"/><use xlink:href="#J" x="764.749" y="88"/></g><path d="M695.5 104.5h16" fill="none" stroke-width="3" stroke="#c08960" stroke-miterlimit="3.25"/><g><use xlink:href="#F" x="721" y="109"/><use xlink:href="#K" x="727.995" y="109"/><use xlink:href="#G" x="735.162" y="109"/><use xlink:href="#F" x="742.233" y="109"/><use xlink:href="#G" x="749.229" y="109"/><use xlink:href="#H" x="756.3" y="109"/><use xlink:href="#I" x="764.057" y="109"/><use xlink:href="#J" x="770.944" y="109"/></g><path d="M695.5 125.5h16" fill="none" stroke-width="3" stroke="#c4654a" stroke-miterlimit="3.25"/><g><use xlink:href="#K" x="721" y="130"/><use xlink:href="#C" x="728.167" y="130"/><use xlink:href="#F" x="735.461" y="130"/><use xlink:href="#G" x="742.456" y="130"/><use xlink:href="#H" x="749.527" y="130"/><use xlink:href="#I" x="757.284" y="130"/><use xlink:href="#J" x="764.172" y="130"/></g><path d="M695.5 146.5h16" fill="none" stroke-width="3" stroke="#b2231c" stroke-miterlimit="3.25"/><g><use xlink:href="#L" x="721" y="151"/><use xlink:href="#C" x="729.48" y="151"/><use xlink:href="#F" x="736.774" y="151"/><use xlink:href="#G" x="743.77" y="151"/><use xlink:href="#H" x="750.841" y="151"/><use xlink:href="#I" x="758.598" y="151"/><use xlink:href="#J" x="765.485" y="151"/></g></svg>