<svg xmlns="http://www.w3.org/2000/svg" xmlns:xlink="http://www.w3.org/1999/xlink" width="1112" height="296" viewBox="0 0 834 222"><defs><symbol overflow="visible" id="i"><path d="M5.047-3.031c0 1.058-.18 1.844-.54 2.36-.362.51-.925.769-1.694.769-.758 0-1.32-.25-1.684-.754C.766-1.16.574-1.91.562-2.91v-1.207c0-1.043.18-1.82.54-2.328.363-.508.93-.762 1.703-.762.765 0 1.328.246 1.687.734.36.489.547 1.246.555 2.27zm-.902-1.235c0-.765-.106-1.324-.32-1.675-.216-.348-.555-.524-1.02-.524-.465 0-.801.176-1.012.524-.211.347-.32.882-.328 1.605v1.445c0 .77.113 1.336.336 1.704.222.367.558.546 1.012.546.445 0 .777-.171.992-.515.218-.344.332-.89.34-1.633zm0 0"/></symbol><symbol overflow="visible" id="j"><path d="M3.559 0h-.907v-6.02l-1.824.668v-.82l2.59-.973h.14zm0 0"/></symbol><symbol overflow="visible" id="k"><path d="M5.25 0H.59v-.648l2.46-2.735c.364-.414.618-.75.755-1.008.14-.257.21-.527.21-.804 0-.371-.113-.676-.34-.914-.222-.239-.523-.356-.898-.356-.449 0-.797.13-1.047.383-.25.254-.37.613-.37 1.066H.452c0-.652.211-1.183.633-1.586.422-.402.984-.605 1.691-.605.66 0 1.184.172 1.567.52.386.347.578.808.578 1.382 0 .703-.445 1.535-1.336 2.5L1.68-.738h3.57zm0 0"/></symbol><symbol overflow="visible" id="l"><path d="M1.906-3.992h.676c.426-.008.762-.121 1.008-.34.242-.219.363-.512.363-.883 0-.832-.414-1.25-1.242-1.25-.39 0-.703.113-.938.336-.23.223-.347.516-.347.887H.523c0-.563.204-1.031.618-1.406.41-.372.933-.559 1.57-.559.672 0 1.195.176 1.578.531.379.356.57.848.57 1.48 0 .31-.101.61-.3.9-.2.288-.473.507-.817.648.39.125.692.328.903.617.214.285.32.636.32 1.047 0 .64-.207 1.144-.625 1.52-.418.374-.957.562-1.625.562s-1.211-.18-1.63-.543c-.417-.36-.624-.836-.624-1.43h.906c0 .375.121.672.367.898.243.227.57.336.98.336.438 0 .77-.113 1-.34.231-.23.349-.554.349-.98 0-.414-.125-.734-.383-.953-.254-.223-.618-.336-1.098-.344h-.676zm0 0"/></symbol><symbol overflow="visible" id="m"><path d="M4.406-2.387h.985v.739h-.985V0h-.91v-1.648H.258v-.536L3.44-7.109h.965zm-3.12 0h2.21v-3.488l-.105.195zm0 0"/></symbol><symbol overflow="visible" id="n"><path d="M1.008-3.563l.36-3.546h3.64v.836H2.133l-.215 1.937a2.32 2.32 0 0 1 1.187-.309c.649 0 1.16.215 1.543.645.383.426.57 1.004.57 1.734 0 .735-.195 1.309-.593 1.73-.395.423-.945.634-1.656.634-.63 0-1.14-.176-1.54-.524C1.032-.773.81-1.254.75-1.87h.855c.055.406.2.715.434.922.234.207.547.308.93.308.422 0 .75-.14.988-.43.238-.284.36-.679.36-1.187 0-.472-.13-.855-.387-1.144-.258-.285-.606-.43-1.035-.43-.395 0-.704.086-.926.258l-.242.195zm0 0"/></symbol><symbol overflow="visible" id="o"><path d="M.703-.473c0-.156.047-.289.14-.39.095-.106.231-.157.415-.157.187 0 .328.051.426.157a.567.567 0 0 1 .144.39c0 .149-.05.274-.144.375-.098.102-.239.153-.426.153-.184 0-.324-.051-.414-.153a.532.532 0 0 1-.14-.375zm0 0"/></symbol><symbol overflow="visible" id="B"><path d="M6.691-3.36c0 1.047-.238 1.891-.718 2.528-.477.64-1.125.957-1.942.957-.836 0-1.488-.262-1.968-.793v3.309H.89v-9.508h1.07l.059.762c.476-.594 1.14-.891 1.992-.891.824 0 1.476.312 1.957.934.48.62.722 1.488.722 2.597zm-1.175-.132c0-.774-.164-1.387-.496-1.832C4.69-5.774 4.238-6 3.664-6c-.71 0-1.246.316-1.602.945v3.285c.352.625.891.938 1.614.938.562 0 1.011-.223 1.344-.668.332-.445.496-1.11.496-1.992zm0 0"/></symbol><symbol overflow="visible" id="C"><path d="M.602-3.492c0-1.055.25-1.899.75-2.543.5-.64 1.152-.961 1.96-.961.805 0 1.442.277 1.91.824V-9.75h1.176V0H5.32l-.058-.734C4.793-.16 4.14.125 3.3.125c-.797 0-1.446-.324-1.946-.977-.5-.652-.753-1.5-.753-2.55zm1.175.133c0 .78.16 1.39.48 1.828.325.441.77.66 1.337.66.742 0 1.289-.332 1.629-1v-3.156C4.87-5.676 4.332-6 3.605-6c-.574 0-1.023.223-1.347.668-.32.445-.48 1.102-.48 1.973zm0 0"/></symbol><symbol overflow="visible" id="D"><path d="M1.465 0v-5.96H.383v-.907h1.082v-.707c0-.735.2-1.305.59-1.707.394-.403.953-.602 1.672-.602.27 0 .539.035.804.11l-.062.949c-.2-.04-.41-.055-.633-.055-.383 0-.676.11-.883.332-.207.223-.312.54-.312.953v.727h1.464v.906H2.641V0zm0 0"/></symbol><symbol overflow="visible" id="E"><path d="M2.297-.996H6.68V0H1.074v-9.242h1.223zm0 0"/></symbol><symbol overflow="visible" id="F"><path d="M5.129 0c-.066-.137-.121-.375-.164-.723-.547.567-1.2.848-1.957.848-.676 0-1.23-.191-1.664-.574A1.859 1.859 0 0 1 .69-1.906c0-.715.274-1.27.817-1.664.543-.395 1.308-.594 2.293-.594h1.144v-.54c0-.41-.125-.737-.367-.98-.246-.242-.61-.367-1.086-.367-.418 0-.77.106-1.054.32-.286.211-.426.465-.426.766H.832c0-.344.121-.672.363-.992a2.45 2.45 0 0 1 .992-.758 3.317 3.317 0 0 1 1.376-.281c.789 0 1.41.2 1.859.594.45.394.68.941.695 1.636v3.16c0 .63.082 1.133.242 1.504V0zm-1.95-.895c.368 0 .72-.097 1.048-.285.332-.191.57-.437.718-.742v-1.41h-.922c-1.437 0-2.156.422-2.156 1.262 0 .367.121.656.367.863.246.207.563.312.946.312zm0 0"/></symbol><symbol overflow="visible" id="G"><path d="M7.457-8.238H4.488V0H3.273v-8.238H.313v-1.004h7.144zm0 0"/></symbol><symbol overflow="visible" id="H"><path d="M3.738.125c-.93 0-1.687-.305-2.273-.914C.883-1.402.59-2.22.59-3.242v-.219c0-.68.129-1.289.39-1.824a3.069 3.069 0 0 1 1.094-1.258c.465-.3.973-.453 1.52-.453.89 0 1.586.297 2.082.883.496.59.742 1.43.742 2.527v.488H1.766c.015.676.214 1.223.593 1.641.38.418.86.625 1.442.625.414 0 .765-.086 1.054-.254.29-.168.54-.394.754-.672l.72.559C5.753-.316 4.89.125 3.738.125zm-.144-6.156c-.477 0-.871.172-1.196.52-.32.343-.52.827-.593 1.449h3.437v-.09c-.031-.598-.195-1.059-.48-1.387-.29-.328-.68-.492-1.168-.492zm0 0"/></symbol><symbol overflow="visible" id="I"><path d="M4.086-5.7l2.219-3.542h1.433L4.816-4.66 7.81 0h-1.45L4.086-3.605 1.805 0H.363L3.36-4.66.43-9.242h1.43zm0 0"/></symbol><symbol overflow="visible" id="J"><path d="M5.129-.68C4.672-.14 4 .125 3.117.125c-.734 0-1.289-.21-1.672-.637C1.062-.937.867-1.566.863-2.398v-4.47H2.04v4.438c0 1.04.422 1.559 1.27 1.559.894 0 1.492-.332 1.789-1v-4.996h1.175V0H5.156zm0 0"/></symbol><clipPath id="a"><path d="M20 198h339v2H20zm0 0"/></clipPath><clipPath id="b"><path d="M20 157h339v2H20zm0 0"/></clipPath><clipPath id="c"><path d="M20 115h339v2H20zm0 0"/></clipPath><clipPath id="d"><path d="M20 73h339v2H20zm0 0"/></clipPath><clipPath id="e"><path d="M20 32h339v2H20zm0 0"/></clipPath><clipPath id="f"><path d="M20 152h339v52H20zm0 0"/></clipPath><clipPath id="g"><path d="M20 6h339v198H20zm0 0"/></clipPath><clipPath id="h"><path d="M20 185h339v19H20zm0 0"/></clipPath><clipPath id="p"><path d="M466 1h2v203h-2zm0 0"/></clipPath><clipPath id="q"><path d="M529 1h2v203h-2zm0 0"/></clipPath><clipPath id="r"><path d="M592 1h2v203h-2zm0 0"/></clipPath><clipPath id="s"><path d="M655 1h2v203h-2zm0 0"/></clipPath><clipPath id="t"><path d="M397 164h328v2H397zm0 0"/></clipPath><clipPath id="u"><path d="M397 120h328v2H397zm0 0"/></clipPath><clipPath id="v"><path d="M397 76h328v2H397zm0 0"/></clipPath><clipPath id="w"><path d="M397 32h328v2H397zm0 0"/></clipPath><clipPath id="x"><path d="M397 36h328v103H397zm0 0"/></clipPath><clipPath id="y"><path d="M397 4h328v158H397zm0 0"/></clipPath><clipPath id="z"><path d="M397 134h328v63H397zm0 0"/></clipPath><clipPath id="A"><path d="M397 139h328v65H397zm0 0"/></clipPath></defs><path d="M91.762 203.215V3.5M156.754 203.215V3.5M221.746 203.215V3.5M286.738 203.215V3.5" fill="none" stroke="#666" stroke-opacity=".5" stroke-dasharray="1,2" stroke-miterlimit="3.25"/><g clip-path="url(#a)"><path d="M20 199.219h338.5" fill="none" stroke="#666" stroke-opacity=".5" stroke-dasharray="1,2" stroke-miterlimit="3.25"/></g><g clip-path="url(#b)"><path d="M20 157.64h338.5" fill="none" stroke="#666" stroke-opacity=".5" stroke-dasharray="1,2" stroke-miterlimit="3.25"/></g><g clip-path="url(#c)"><path d="M20 116.059h338.5" fill="none" stroke="#666" stroke-opacity=".5" stroke-dasharray="1,2" stroke-miterlimit="3.25"/></g><g clip-path="url(#d)"><path d="M20 74.48h338.5" fill="none" stroke="#666" stroke-opacity=".5" stroke-dasharray="1,2" stroke-miterlimit="3.25"/></g><g clip-path="url(#e)"><path d="M20 32.898h338.5" fill="none" stroke="#666" stroke-opacity=".5" stroke-dasharray="1,2" stroke-miterlimit="3.25"/></g><g clip-path="url(#f)"><path d="M33.27 198.531l6.5-1.945 6.5-.582 6.496-1.09 6.5.656 6.5-.597 6.5-.368 6.496-.59 6.5-.925 13-1.86 6.5.172 6.496-.832 6.5-.414 6.5-.832 6.5-.582 6.5-.664 6.496-.582 6.5-1.496h6.5l6.5-.586 6.5-1.164 6.496-.332 6.5-.496 6.5-.75 6.5-1.164 6.5.082 6.496-.746 6.5-.5 6.5-.664 6.5-.668 6.5-1.328 6.496-1.25 6.5.582 6.5-.914 6.5-.5 6.5-.332 6.496-.997 6.5-1.164 6.5.332 6.5-1.082 6.5-.582 6.496-.25 6.5-.996 13-1.164 6.496-.914 6.5-.336 6.5-.914 6.5-.664" fill="none" stroke-width="3" stroke="#274e17" stroke-miterlimit="3.25"/></g><g clip-path="url(#g)"><path d="M33.27 199.02l6.5-.614 6.5-.25 6.496-.5 6.5-.754 6.5-1.05 6.5-1.004 6.496-.692 6.5-1.215 6.5-1.32 6.5-1.633 6.5-1.66 6.496-1.746 6.5-1.996 6.5-2.246 6.5-2.164 6.5-2.828 6.496-1.91 6.5-3.329 6.5-2.246 6.5-2.578 6.5-3.074 6.496-3.246 6.5-3.074 6.5-3.41 6.5-3.579 6.5-5.152 6.496-3.328 6.5-3.66 6.5-4.739 6.5-4.574 6.5-4.324 6.496-4.324 6.5-5.574 6.5-4.157 6.5-4.988 6.5-5.824 6.496-4.988 6.5-4.989 6.5-5.824 13-11.64 6.496-6.653 6.5-6.652 6.5-4.992 6.5-6.653 6.496-6.652 6.5-6.653 6.5-7.484 6.5-6.652" fill="none" stroke-width="3" stroke="#977c52" stroke-miterlimit="3.25"/></g><g clip-path="url(#h)" fill="none" stroke-width="3" stroke-miterlimit="3.25"><path d="M33.27 199.18l6.5.007h6.5l6.496-.003h6.5l6.5-.004h6.5l6.496-.004 6.5-.004 6.5-.008 6.5-.004 6.5.004 6.496-.004 6.5-.004h6.5l6.5-.004 6.5-.007h6.496l19.5-.012h6.5l6.496-.004 6.5-.004h6.5l6.5-.004 6.5-.008 6.496-.011 6.5.007 6.5-.004h6.5l6.5-.039 6.496.024h13l13-.008h6.496l6.5-.02 6.5.008 6.5-.015 6.5.007 6.496-.003h6.5l6.5-.012h6.5l6.496-.004 6.5-.004 6.5-.023 6.5.015" stroke="#cb7957"/><path d="M33.27 199.2l13-.009 6.496-.02h6.5l6.5.009 6.5.004 6.496-.004 6.5-.004h6.5l6.5-.004h6.5l6.496-.004 6.5-.004h6.5l6.5-.004h6.5l6.496-.004 6.5-.004 6.5-.007 6.5.003h6.5l6.496-.003 6.5-.012 6.5.008 13-.008h6.496l13-.008h13l6.496-.004 13-.008 6.5-.008 6.5.004 6.496-.007h6.5l6.5-.004 6.5-.008h6.5l6.496-.004 6.5.004 6.5-.024 6.5.016 6.496.004 6.5-.004h6.5l6.5-.008" stroke="#b2231c"/></g><path d="M358.5 203.215H20M20 203.215V3.5M20 3.5h338.5M358.5 3.5v199.715" fill="none" stroke-width=".5" stroke-linecap="square" stroke="#666" stroke-miterlimit="3.25"/><path d="M26.77 203.215V199.3" fill="none" stroke-width=".5" stroke="#666" stroke-miterlimit="3.25"/><use xlink:href="#i" x="23.77" y="215.215" fill="#666"/><path d="M39.77 203.215v-2.348M52.766 203.215v-2.348M65.766 203.215v-2.348M78.762 203.215v-2.348M91.762 203.215V199.3" fill="none" stroke-width=".5" stroke="#666" stroke-miterlimit="3.25"/><g fill="#666"><use xlink:href="#j" x="86.262" y="215.215"/><use xlink:href="#i" x="91.877" y="215.215"/></g><path d="M104.762 203.215v-2.348M117.758 203.215v-2.348M130.758 203.215v-2.348M143.754 203.215v-2.348M156.754 203.215V199.3" fill="none" stroke-width=".5" stroke="#666" stroke-miterlimit="3.25"/><g fill="#666"><use xlink:href="#k" x="151.254" y="215.215"/><use xlink:href="#i" x="156.869" y="215.215"/></g><path d="M169.754 203.215v-2.348M182.75 203.215v-2.348M195.75 203.215v-2.348M208.746 203.215v-2.348M221.746 203.215V199.3" fill="none" stroke-width=".5" stroke="#666" stroke-miterlimit="3.25"/><g fill="#666"><use xlink:href="#l" x="216.246" y="215.215"/><use xlink:href="#i" x="221.861" y="215.215"/></g><path d="M234.746 203.215v-2.348M247.742 203.215v-2.348M260.742 203.215v-2.348M273.738 203.215v-2.348M286.738 203.215V199.3" fill="none" stroke-width=".5" stroke="#666" stroke-miterlimit="3.25"/><g fill="#666"><use xlink:href="#m" x="281.238" y="215.215"/><use xlink:href="#i" x="286.853" y="215.215"/></g><path d="M299.738 203.215v-2.348M312.734 203.215v-2.348M325.734 203.215v-2.348M338.73 203.215v-2.348M351.73 203.215V199.3" fill="none" stroke-width=".5" stroke="#666" stroke-miterlimit="3.25"/><g fill="#666"><use xlink:href="#n" x="346.23" y="215.215"/><use xlink:href="#i" x="351.845" y="215.215"/></g><path d="M20 199.219h3.914" fill="none" stroke-width=".5" stroke="#666" stroke-miterlimit="3.25"/><g fill="#666"><use xlink:href="#i" x="3" y="201.721"/><use xlink:href="#o" x="8.615" y="201.721"/><use xlink:href="#i" x="11.247" y="201.721"/></g><path d="M20 190.906h2.348M20 182.59h2.348M20 174.273h2.348M20 165.957h2.348M20 157.64h3.914" fill="none" stroke-width=".5" stroke="#666" stroke-miterlimit="3.25"/><g fill="#666"><use xlink:href="#i" x="3" y="160.14"/><use xlink:href="#o" x="8.615" y="160.14"/><use xlink:href="#n" x="11.247" y="160.14"/></g><path d="M20 149.324h2.348M20 141.008h2.348M20 132.691h2.348M20 124.375h2.348M20 116.059h3.914" fill="none" stroke-width=".5" stroke="#666" stroke-miterlimit="3.25"/><g fill="#666"><use xlink:href="#j" x="3" y="118.56"/><use xlink:href="#o" x="8.615" y="118.56"/><use xlink:href="#i" x="11.247" y="118.56"/></g><path d="M20 107.742h2.348M20 99.43h2.348M20 91.113h2.348M20 82.797h2.348M20 74.48h3.914" fill="none" stroke-width=".5" stroke="#666" stroke-miterlimit="3.25"/><g fill="#666"><use xlink:href="#j" x="3" y="76.98"/><use xlink:href="#o" x="8.615" y="76.98"/><use xlink:href="#n" x="11.247" y="76.98"/></g><path d="M20 66.164h2.348M20 57.848h2.348M20 49.531h2.348M20 41.215h2.348M20 32.898h3.914" fill="none" stroke-width=".5" stroke="#666" stroke-miterlimit="3.25"/><g fill="#666"><use xlink:href="#k" x="3" y="35.399"/><use xlink:href="#o" x="8.615" y="35.399"/><use xlink:href="#i" x="11.247" y="35.399"/></g><path d="M20 24.582h2.348M20 16.266h2.348M20 7.95h2.348M26.77 3.5v3.914M39.77 3.5v2.348M52.766 3.5v2.348M65.766 3.5v2.348M78.762 3.5v2.348M91.762 3.5v3.914M104.762 3.5v2.348M117.758 3.5v2.348M130.758 3.5v2.348M143.754 3.5v2.348M156.754 3.5v3.914M169.754 3.5v2.348M182.75 3.5v2.348M195.75 3.5v2.348M208.746 3.5v2.348M221.746 3.5v3.914M234.746 3.5v2.348M247.742 3.5v2.348M260.742 3.5v2.348M273.738 3.5v2.348M286.738 3.5v3.914M299.738 3.5v2.348M312.734 3.5v2.348M325.734 3.5v2.348M338.73 3.5v2.348M351.73 3.5v3.914M358.5 199.219h-3.914M358.5 190.906h-2.348M358.5 182.59h-2.348M358.5 174.273h-2.348M358.5 165.957h-2.348M358.5 157.64h-3.914M358.5 149.324h-2.348M358.5 141.008h-2.348M358.5 132.691h-2.348M358.5 124.375h-2.348M358.5 116.059h-3.914M358.5 107.742h-2.348M358.5 99.43h-2.348M358.5 91.113h-2.348M358.5 82.797h-2.348M358.5 74.48h-3.914M358.5 66.164h-2.348M358.5 57.848h-2.348M358.5 49.531h-2.348M358.5 41.215h-2.348M358.5 32.898h-3.914M358.5 24.582h-2.348M358.5 16.266h-2.348M358.5 7.95h-2.348" fill="none" stroke-width=".5" stroke="#666" stroke-miterlimit="3.25"/><g clip-path="url(#p)"><path d="M467.324 203.598V1.5" fill="none" stroke="#666" stroke-opacity=".5" stroke-dasharray="1,2" stroke-miterlimit="3.25"/></g><g clip-path="url(#q)"><path d="M530.11 203.598V1.5" fill="none" stroke="#666" stroke-opacity=".5" stroke-dasharray="1,2" stroke-miterlimit="3.25"/></g><g clip-path="url(#r)"><path d="M592.89 203.598V1.5" fill="none" stroke="#666" stroke-opacity=".5" stroke-dasharray="1,2" stroke-miterlimit="3.25"/></g><g clip-path="url(#s)"><path d="M655.676 203.598V1.5" fill="none" stroke="#666" stroke-opacity=".5" stroke-dasharray="1,2" stroke-miterlimit="3.25"/></g><g clip-path="url(#t)"><path d="M398 165.2h327" fill="none" stroke="#666" stroke-opacity=".5" stroke-dasharray="1,2" stroke-miterlimit="3.25"/></g><g clip-path="url(#u)"><path d="M398 120.984h327" fill="none" stroke="#666" stroke-opacity=".5" stroke-dasharray="1,2" stroke-miterlimit="3.25"/></g><g clip-path="url(#v)"><path d="M398 76.766h327" fill="none" stroke="#666" stroke-opacity=".5" stroke-dasharray="1,2" stroke-miterlimit="3.25"/></g><g clip-path="url(#w)"><path d="M398 32.55h327" fill="none" stroke="#666" stroke-opacity=".5" stroke-dasharray="1,2" stroke-miterlimit="3.25"/></g><g clip-path="url(#x)"><path d="M410.82 124.633l6.278-25.805 6.277-3.832 6.277-5.598 6.282 3.176 6.277-2.914 6.277-1.586 6.278-2.312 6.28-3.137 6.278-2.715 6.278-2.379 6.277.422 6.281-1.941 6.277-.899 6.278-1.687 6.281-1.098 6.277-1.183 6.278-.977 6.277-2.305h6.281l6.278-.828 6.277-1.555 6.277-.421 6.282-.618 6.277-.89 6.277-1.305 6.282.09 6.277-.797 6.277-.516 6.278-.664 6.28-.644 6.278-1.223 6.278-1.082 6.277.496 6.281-.773 6.278-.41 6.277-.27 6.281-.785 6.277-.875 6.278.246 6.277-.789 6.281-.41 6.278-.176 6.277-.68 6.277-.382 6.282-.38 6.277-.581 6.277-.203 6.278-.56 6.28-.394" fill="none" stroke-width="3" stroke="#274e17" stroke-miterlimit="3.25"/></g><g clip-path="url(#y)"><path d="M410.82 148.148l6.278-26.738 6.277-5.168 6.277-7.383 6.282-7.578 6.277-7.156 6.277-5.02 6.278-2.816 6.28-4.125 6.278-3.672 6.278-3.73 6.277-3.18 6.281-2.855 6.277-2.817 6.278-2.738 6.281-2.317 6.277-2.656 6.278-1.613 6.277-2.512 6.281-1.527 6.278-1.617 6.277-1.766 6.277-1.703 6.282-1.484 6.277-1.524 6.277-1.476 6.282-1.946 6.277-1.16 6.277-1.2 6.278-1.448 6.28-1.301 6.278-1.156 6.278-1.09 6.277-1.317 6.281-.93 6.278-1.054 6.277-1.164 6.281-.945 6.277-.903 6.278-1 6.277-.949 6.281-.906 6.278-.985 6.277-.937 6.277-.672 6.282-.863 6.277-.828 6.277-.79 6.278-.855 6.28-.726" fill="none" stroke-width="3" stroke="#977c52" stroke-miterlimit="3.25"/></g><g clip-path="url(#z)"><path d="M410.82 178.36l6.278 4.581 6.277-.71 6.277-.688 6.282-.707 6.277-1.258 6.277-.601 6.278-2.262 6.28-.55 6.278-3.755 6.278-.82 6.277.82 6.281-1.219 6.277-.796 6.278-.739 6.281-.738 6.277-2.344 6.278.313 6.277-.621 6.281-.91 6.278-.907h6.277l6.277-1.078 6.282-.687 6.277-.496 6.277-.805 6.282-1.219 6.277-1.695 6.277 1.254 6.278-.844 6.28-.14 6.278-5.454 6.278 3.254 6.277.121 6.281-.363 6.278-.477 6.277-.351 6.281-.344 6.277-2.047 6.278.836 6.277-1.832 6.281.895 6.278-.797h6.277l6.277-1.137h6.282l6.277-.273 6.277-.711 6.278-2.223 6.28 1.621" fill="none" stroke-width="3" stroke="#cb7957" stroke-miterlimit="3.25"/></g><g clip-path="url(#A)"><path d="M410.82 189.992l6.278-2.91 6.277-.937 6.277-9.98 6.282-.505 6.277 3.918 6.277.617 6.278-1.836 6.28-1.113 6.278-.531 6.278-1.543h6.277l6.281-1.43 6.277-.879 6.278-.453 6.281-.82 6.277-.813 6.278-.757 6.277-.75 6.281-2.696 6.278 1.656 6.277-.683 6.277-.66 6.282-2.621 6.277 1.382 6.277-.64 6.282-.559 6.277-.547 6.277-.53 6.278-.517 6.28-.667h6.278l6.278-.329 6.277-.945 6.281-.898 6.278-.86 6.277.426 6.281-1.113h6.277l6.278-.535 6.277-1.637 6.281.363 6.278-.84 6.277.477 6.277-3.012 6.282 2.184 6.277.351 6.277-.234 6.278-.461 6.28-.672" fill="none" stroke-width="3" stroke="#b2231c" stroke-miterlimit="3.25"/></g><path d="M725 203.598H398M398 203.598V1.5M398 1.5h327M725 1.5v202.098" fill="none" stroke-width=".5" stroke-linecap="square" stroke="#666" stroke-miterlimit="3.25"/><path d="M404.54 203.598v-3.871" fill="none" stroke-width=".5" stroke="#666" stroke-miterlimit="3.25"/><use xlink:href="#i" x="401.54" y="215.597" fill="#666"/><path d="M417.098 203.598v-2.325M429.652 203.598v-2.325M442.21 203.598v-2.325M454.766 203.598v-2.325M467.324 203.598v-3.871" fill="none" stroke-width=".5" stroke="#666" stroke-miterlimit="3.25"/><g fill="#666"><use xlink:href="#j" x="461.824" y="215.597"/><use xlink:href="#i" x="467.439" y="215.597"/></g><path d="M479.879 203.598v-2.325M492.438 203.598v-2.325M504.996 203.598v-2.325M517.55 203.598v-2.325M530.11 203.598v-3.871" fill="none" stroke-width=".5" stroke="#666" stroke-miterlimit="3.25"/><g fill="#666"><use xlink:href="#k" x="524.608" y="215.597"/><use xlink:href="#i" x="530.223" y="215.597"/></g><path d="M542.664 203.598v-2.325M555.223 203.598v-2.325M567.777 203.598v-2.325M580.336 203.598v-2.325M592.89 203.598v-3.871" fill="none" stroke-width=".5" stroke="#666" stroke-miterlimit="3.25"/><g fill="#666"><use xlink:href="#l" x="587.392" y="215.597"/><use xlink:href="#i" x="593.007" y="215.597"/></g><path d="M605.45 203.598v-2.325M618.004 203.598v-2.325M630.563 203.598v-2.325M643.121 203.598v-2.325M655.676 203.598v-3.871" fill="none" stroke-width=".5" stroke="#666" stroke-miterlimit="3.25"/><g fill="#666"><use xlink:href="#m" x="650.176" y="215.597"/><use xlink:href="#i" x="655.791" y="215.597"/></g><path d="M668.234 203.598v-2.325M680.79 203.598v-2.325M693.348 203.598v-2.325M705.902 203.598v-2.325M718.46 203.598v-3.871" fill="none" stroke-width=".5" stroke="#666" stroke-miterlimit="3.25"/><g fill="#666"><use xlink:href="#n" x="712.96" y="215.597"/><use xlink:href="#i" x="718.575" y="215.597"/></g><path d="M398 165.2h3.27" fill="none" stroke-width=".1" stroke="#666" stroke-miterlimit="3.25"/><g fill="#666"><use xlink:href="#i" x="370" y="167.701"/><use xlink:href="#o" x="375.615" y="167.701"/><use xlink:href="#i" x="378.247" y="167.701"/><use xlink:href="#i" x="383.862" y="167.701"/><use xlink:href="#j" x="389.478" y="167.701"/></g><path d="M398 120.984h3.27" fill="none" stroke-width=".1" stroke="#666" stroke-miterlimit="3.25"/><g fill="#666"><use xlink:href="#i" x="370" y="123.484"/><use xlink:href="#o" x="375.615" y="123.484"/><use xlink:href="#i" x="378.247" y="123.484"/><use xlink:href="#j" x="383.862" y="123.484"/><use xlink:href="#i" x="389.478" y="123.484"/></g><path d="M398 76.766h3.27" fill="none" stroke-width=".1" stroke="#666" stroke-miterlimit="3.25"/><g fill="#666"><use xlink:href="#i" x="370" y="79.267"/><use xlink:href="#o" x="375.615" y="79.267"/><use xlink:href="#j" x="378.247" y="79.267"/><use xlink:href="#i" x="383.862" y="79.267"/><use xlink:href="#i" x="389.478" y="79.267"/></g><path d="M398 32.55h3.27" fill="none" stroke-width=".1" stroke="#666" stroke-miterlimit="3.25"/><use xlink:href="#j" x="389" y="35.049" fill="#666"/><path d="M398 196.105h2.324M398 188.32h2.324M398 182.797h2.324M398 178.512h2.324M398 175.012h2.324M398 172.05h2.324M398 169.484h2.324M398 167.223h2.324M398 151.89h2.324M398 144.105h2.324M398 138.578h2.324M398 134.293h2.324M398 130.793h2.324M398 127.832h2.324M398 125.27h2.324M398 123.008h2.324M398 107.672h2.324M398 99.887h2.324M398 94.363h2.324M398 90.078h2.324M398 86.574h2.324M398 83.617h2.324M398 81.05h2.324M398 78.79h2.324M398 63.457h2.324M398 55.668h2.324M398 50.145h2.324M398 45.86h2.324M398 42.36h2.324M398 39.398h2.324M398 36.836h2.324M398 34.574h2.324M398 19.238h2.324M398 11.453h2.324M398 5.93h2.324M398 1.645h2.324" fill="none" stroke-width=".1" stroke="#666" stroke-miterlimit="3.25"/><path d="M404.54 1.5v3.871M417.098 1.5v2.324M429.652 1.5v2.324M442.21 1.5v2.324M454.766 1.5v2.324M467.324 1.5v3.871M479.879 1.5v2.324M492.438 1.5v2.324M504.996 1.5v2.324M517.55 1.5v2.324M530.11 1.5v3.871M542.664 1.5v2.324M555.223 1.5v2.324M567.777 1.5v2.324M580.336 1.5v2.324M592.89 1.5v3.871M605.45 1.5v2.324M618.004 1.5v2.324M630.563 1.5v2.324M643.121 1.5v2.324M655.676 1.5v3.871M668.234 1.5v2.324M680.79 1.5v2.324M693.348 1.5v2.324M705.902 1.5v2.324M718.46 1.5v3.871" fill="none" stroke-width=".5" stroke="#666" stroke-miterlimit="3.25"/><path d="M725 165.2h-3.27M725 120.984h-3.27M725 76.766h-3.27M725 32.55h-3.27M725 196.105h-2.324M725 188.32h-2.324M725 182.797h-2.324M725 178.512h-2.324M725 175.012h-2.324M725 172.05h-2.324M725 169.484h-2.324M725 167.223h-2.324M725 151.89h-2.324M725 144.105h-2.324M725 138.578h-2.324M725 134.293h-2.324M725 130.793h-2.324M725 127.832h-2.324M725 125.27h-2.324M725 123.008h-2.324M725 107.672h-2.324M725 99.887h-2.324M725 94.363h-2.324M725 90.078h-2.324M725 86.574h-2.324M725 83.617h-2.324M725 81.05h-2.324M725 78.79h-2.324M725 63.457h-2.324M725 55.668h-2.324M725 50.145h-2.324M725 45.86h-2.324M725 42.36h-2.324M725 39.398h-2.324M725 36.836h-2.324M725 34.574h-2.324M725 19.238h-2.324M725 11.453h-2.324M725 5.93h-2.324M725 1.645h-2.324" fill="none" stroke-width=".1" stroke="#666" stroke-miterlimit="3.25"/><path d="M745.5 78.5h16" fill="none" stroke-width="3" stroke="#274e17" stroke-miterlimit="3.25"/><use xlink:href="#B" x="771" y="83"/><use xlink:href="#C" x="778.294" y="83"/><use xlink:href="#D" x="785.626" y="83"/><use xlink:href="#E" x="790.14" y="83"/><use xlink:href="#F" x="797.135" y="83"/><use xlink:href="#G" x="804.206" y="83"/><use xlink:href="#H" x="811.963" y="83"/><use xlink:href="#I" x="818.851" y="83"/><path d="M745.5 99.5h16" fill="none" stroke-width="3" stroke="#977c52" stroke-miterlimit="3.25"/><g><use xlink:href="#I" x="771" y="104"/><use xlink:href="#H" x="779.15" y="104"/><use xlink:href="#E" x="786.038" y="104"/><use xlink:href="#F" x="793.033" y="104"/><use xlink:href="#G" x="800.104" y="104"/><use xlink:href="#H" x="807.861" y="104"/><use xlink:href="#I" x="814.749" y="104"/></g><path d="M745.5 120.5h16" fill="none" stroke-width="3" stroke="#cb7957" stroke-miterlimit="3.25"/><g><use xlink:href="#E" x="771" y="125"/><use xlink:href="#J" x="777.995" y="125"/><use xlink:href="#F" x="785.162" y="125"/><use xlink:href="#E" x="792.233" y="125"/><use xlink:href="#F" x="799.229" y="125"/><use xlink:href="#G" x="806.3" y="125"/><use xlink:href="#H" x="814.057" y="125"/><use xlink:href="#I" x="820.944" y="125"/></g><path d="M745.5 141.5h16" fill="none" stroke-width="3" stroke="#b2231c" stroke-miterlimit="3.25"/><g><use xlink:href="#J" x="771" y="146"/><use xlink:href="#B" x="778.167" y="146"/><use xlink:href="#E" x="785.461" y="146"/><use xlink:href="#F" x="792.456" y="146"/><use xlink:href="#G" x="799.527" y="146"/><use xlink:href="#H" x="807.284" y="146"/><use xlink:href="#I" x="814.172" y="146"/></g></svg>