<svg xmlns="http://www.w3.org/2000/svg" width="266.093" height="69.453" viewBox="0 -52.09 199.57 52.09"><path d="M7.592-38.54c-.01.808-.458 1.535-.897 1.814-.199.149-.339.348-.229.557.12.22.488.17.737-.03.399-.308.857-1.115.568-2.33l-.18-.01zm3.048-4.96v1.584H8.438V-43.5h2.202zm2.839 0v1.584h-2.202V-43.5h2.202zm-2.202 3.496v-1.623h2.202v1.623h-2.202zm-2.839 0v-1.623h2.202v1.623H8.438zm5.04.3v.497h.1c.22 0 .538-.16.548-.219v-3.945c.2-.04.359-.119.419-.199l-.797-.617-.369.398H8.5l-.708-.319v5.07h.11c.269 0 .537-.169.537-.238v-.429h5.04zm-3.167.567c.468.438.976 1.195 1.026 1.823.658.538 1.235-1.026-.916-1.903l-.11.08zm3.138 1.594h-.13c-.11.577-.229 1.036-.309 1.205-.04.11-.08.14-.239.15-.179.01-.667.01-1.304.01h-1.425c-.498 0-.548-.04-.548-.2v-2.082c.2-.03.29-.12.309-.249l-.956-.1v2.55c0 .539.19.678 1.115.678h1.475c2.002 0 2.36-.1 2.36-.428 0-.13-.07-.21-.318-.28l-.03-1.254zm.13-.966c.537.528 1.155 1.414 1.255 2.131.746.578 1.314-1.145-1.146-2.211l-.11.08zm3.367-5.728c.439.279.957.787 1.126 1.235.727.408 1.126-1.026-1.036-1.335l-.09.1zm-.627 2.28c.408.26.867.728 1.016 1.126.707.409 1.116-.995-.926-1.215l-.09.09zm2.6-.646c-1.564 3.964-1.564 3.964-1.724 4.313-.099.199-.129.209-.248.209h-.419v.219c.21.02.339.04.469.14.218.149.268.936.129 1.942.02.319.15.498.329.498.328 0 .518-.259.537-.687.04-.817-.239-1.275-.248-1.724-.01-.239.05-.558.139-.876.12-.468.837-2.77 1.205-3.985l-.169-.05zm2.162 4.273c-.29.727-.927 1.763-1.624 2.41l.12.14c.836-.538 1.603-1.385 2.022-2.032.219.03.308-.01.358-.1l-.877-.418zm2.37.2c.548.527 1.235 1.404 1.415 2.081.707.518 1.175-1.046-1.295-2.162l-.12.08zm.737-3.716v1.145H21.23v-1.145h2.958zm-2.958 2.54v-1.096h2.958v1.096H21.23zm2.988-4.324h-4.163l-.748-.318v2.65c0 1.982-.139 4.133-1.215 5.867l.14.11c1.573-1.724 1.703-4.185 1.703-5.988v-2.022h2.33c-.079.419-.159.867-.258 1.186h-.727l-.648-.29v3.886h.1c.239 0 .498-.15.498-.19v-.278h1.175v2.759c0 .13-.04.179-.209.179-.19 0-1.056-.06-1.056-.06v.15c.399.05.628.13.757.239.1.1.16.259.17.448.836-.09.966-.428.966-.936v-2.78h1.155v.389h.1c.2 0 .508-.15.518-.21v-2.898c.19-.04.349-.11.408-.19l-.767-.587-.348.369h-1.773c.219-.22.428-.478.587-.747.19-.01.31-.1.35-.2l-.888-.239h2.9c.139 0 .228-.05.258-.159-.319-.309-.857-.717-.857-.717l-.458.577zm5.939-.727c.358.31.707.867.766 1.305.688.518 1.295-.926-.657-1.374l-.11.07zm4.8 4.314c.14 0 .24-.05.27-.16a13.518 13.518 0 0 0-.877-.727l-.468.588h-2.68v-1.484c.25-.04.34-.14.36-.27l-1.007-.119v1.873H26.62l.09.299h3.487c-.738 1.683-2.112 3.247-3.925 4.263l.1.16c1.862-.837 3.276-2.073 4.183-3.577v3.905h.13c.238 0 .518-.15.518-.24v-4.511h.01c.766 1.932 2.091 3.456 3.605 4.293.1-.299.33-.488.608-.518l.02-.1c-1.554-.637-3.138-2.052-4.004-3.675h3.516zm-.288-3.238l-.448.439h-6.515c-.02-.16-.06-.34-.12-.519l-.169.01c.05.648-.339 1.216-.727 1.435-.21.13-.358.339-.269.568.11.249.488.259.747.07.29-.19.568-.618.558-1.266h6.505c-.13.379-.33.867-.489 1.156l.13.08a6.721 6.721 0 0 0 1.196-1.116c.199-.01.318-.02.388-.1l-.787-.757zm3.388 1.524c.339-.677.618-1.384.867-2.122.229 0 .349-.09.388-.209l-1.056-.318c-.438 1.902-1.235 3.835-2.022 5.07l.14.1c.408-.429.787-.957 1.145-1.535v5.499h.12c.249 0 .518-.17.528-.22v-5.936c.179-.03.279-.09.318-.18l-.428-.149zm6.963-.289c.13 0 .22-.05.25-.159-.32-.309-.848-.727-.848-.727l-.458.587h-1.733v-1.643c.24-.04.329-.14.358-.29l-1.005-.108v2.041h-2.87l.08.3h2.361c-.498 1.812-1.454 3.625-2.76 4.92l.14.14c1.395-1.126 2.421-2.6 3.049-4.264v3.626H39.86l.08.289h1.644v2.052h.129c.239 0 .518-.14.518-.23v-1.822h1.614c.13 0 .229-.05.258-.16-.288-.288-.746-.667-.746-.667l-.409.538h-.717v-4.423h.03c.538 2.142 1.484 3.905 2.68 4.951.11-.319.338-.498.607-.528l.03-.1c-1.255-.806-2.46-2.49-3.108-4.323h2.55zM49.886-39.834c0-1.156 0-2.122.03-3.078h1.026c1.185 0 1.723.538 1.723 1.484 0 .916-.627 1.594-1.793 1.594h-.986zm3.556 3.327l-.538-1.763c-.249-.787-.577-1.156-1.195-1.295 1.195-.22 1.823-.976 1.823-1.853 0-1.215-.946-1.903-2.57-1.903h-2.968v.349l1.036.11c.03.956.03 1.932.03 2.898v.548c0 .976 0 1.943-.03 2.889l-1.036.11v.358h2.958v-.359l-1.036-.11c-.03-.936-.03-1.882-.03-2.908h.668c.916 0 1.265.19 1.494 1.056l.498 1.793c.12.448.378.628 1.026.628.329 0 .588-.05.767-.1v-.359l-.897-.09zM55.754-39.057c.12-1.265.846-1.863 1.574-1.863.766 0 1.295.628 1.295 1.325 0 .319-.1.538-.538.538h-2.331zm3.546.388c.05-.15.07-.358.07-.617 0-1.245-.837-2.032-1.993-2.032-1.314 0-2.44 1.065-2.44 2.729 0 1.703 1.006 2.67 2.4 2.67.927 0 1.614-.459 2.023-1.176l-.21-.16c-.388.469-.856.778-1.563.778-1.056 0-1.834-.728-1.843-2.202l3.556.01zm3.168.548c-.717 0-1.155-.568-1.155-1.415 0-.846.458-1.424 1.185-1.424.727 0 1.156.568 1.156 1.395 0 .846-.449 1.444-1.186 1.444zm.907 2.191c.797 0 1.096.38 1.096.877 0 .657-.658 1.196-1.903 1.196-.907 0-1.494-.34-1.494-1.076 0-.409.159-.698.498-1.026.16.02.328.03.528.03h1.275zm1.833-5.269l-.17-.11-1.235.39c-.338-.26-.787-.4-1.305-.4-1.106 0-1.922.648-1.922 1.773 0 .728.319 1.246.826 1.535-.528.478-.727.826-.727 1.185 0 .408.26.677.698.797-.747.358-1.046.747-1.046 1.225 0 .807.717 1.355 2.231 1.355 1.723 0 2.59-.907 2.59-1.833 0-.857-.538-1.325-1.644-1.325H62.04c-.558 0-.727-.219-.727-.528 0-.269.12-.488.338-.767.25.09.528.14.837.14 1.096 0 1.903-.648 1.903-1.784 0-.438-.11-.796-.319-1.075l1.136.01v-.588zm5.449 4.702v-3.128l.04-1.514-.11-.11-1.474.13v.318l.817.14-.02 3.307c-.508.528-1.056.797-1.624.797-.647 0-.966-.359-.966-1.394v-1.674l.05-1.514-.1-.11-1.494.13v.318l.827.14-.03 2.77c-.01 1.464.518 1.971 1.415 1.971.697 0 1.384-.358 1.942-1.046l.08.997 1.414-.09v-.319l-.767-.12zm3.209-.01c-.01-.588-.02-1.235-.02-1.823v-4.144l.03-1.534-.15-.09-1.544.419v.308l.906.08v4.96c0 .589-.01 1.236-.02 1.824l-.926.13v.318h2.62v-.319l-.896-.13zM78.572-37.195c-.638.509-.927.688-1.345.688-.538 0-.916-.27-.916-.867 0-.398.179-.817 1.145-1.185.27-.11.707-.25 1.116-.359v1.723zm1.633.548c-.149.16-.269.24-.448.24-.269 0-.428-.18-.428-.758v-2.36c0-1.296-.538-1.793-1.644-1.793-1.055 0-1.833.487-2.042 1.304.02.24.19.38.439.38.259 0 .408-.15.488-.44l.219-.737c.259-.09.488-.109.697-.109.757 0 1.086.269 1.086 1.365v.319c-.458.099-.937.239-1.325.358-1.355.488-1.743.976-1.743 1.644 0 .856.637 1.314 1.434 1.314.648 0 1.046-.288 1.654-.906.09.548.408.887.916.887.349 0 .628-.14.867-.498l-.17-.21zM82.405-41.209l-.14-.1-1.434.528v.32l.886.069c.02.468.04.876.04 1.514v.548c0 .508-.01 1.275-.03 1.833l-.817.12v.318h2.54v-.319l-.916-.13c-.01-.557-.02-1.314-.02-1.822v-.906c.249-.688.568-1.146 1.036-1.455l.14.12c.199.169.388.289.637.289.389 0 .558-.25.558-.678-.11-.219-.439-.358-.757-.358-.628 0-1.265.537-1.624 1.414l-.1-1.305zM98.52-38.54c-.01.808-.458 1.535-.896 1.814-.2.149-.339.348-.23.557.12.22.49.17.738-.03.399-.308.857-1.115.568-2.33l-.18-.01zm3.049-4.96v1.584h-2.202V-43.5h2.202zm2.839 0v1.584h-2.202V-43.5h2.202zm-2.202 3.496v-1.623h2.202v1.623h-2.202zm-2.839 0v-1.623h2.202v1.623h-2.202zm5.04.3v.497h.1c.22 0 .538-.16.548-.219v-3.945c.2-.04.359-.119.418-.199l-.796-.617-.369.398h-4.88l-.708-.319v5.07h.11c.268 0 .537-.169.537-.238v-.429h5.04zm-3.167.567c.468.438.976 1.195 1.026 1.823.657.538 1.235-1.026-.916-1.903l-.11.08zm3.138 1.594h-.13c-.11.577-.229 1.036-.309 1.205-.04.11-.08.14-.239.15-.179.01-.667.01-1.305.01h-1.424c-.498 0-.548-.04-.548-.2v-2.082c.2-.03.29-.12.309-.249l-.957-.1v2.55c0 .539.19.678 1.116.678h1.475c2.002 0 2.36-.1 2.36-.428 0-.13-.07-.21-.318-.28l-.03-1.254zm.13-.966c.537.528 1.155 1.414 1.254 2.131.747.578 1.315-1.145-1.145-2.211l-.11.08zm3.367-5.728c.439.279.957.787 1.126 1.235.727.408 1.126-1.026-1.036-1.335l-.09.1zm-.627 2.28c.408.26.866.728 1.016 1.126.707.409 1.116-.995-.926-1.215l-.09.09zm2.6-.646c-1.564 3.964-1.564 3.964-1.724 4.313-.099.199-.129.209-.249.209h-.418v.219c.209.02.339.04.468.14.219.149.269.936.13 1.942.02.319.149.498.328.498.329 0 .519-.259.538-.687.04-.817-.239-1.275-.248-1.724-.01-.239.049-.558.139-.876.119-.468.836-2.77 1.205-3.985l-.169-.05zm2.161 4.273c-.288.727-.926 1.763-1.623 2.41l.119.14c.837-.538 1.604-1.385 2.022-2.032.22.03.309-.01.359-.1l-.877-.418zm2.371.2c.548.527 1.235 1.404 1.415 2.081.707.518 1.175-1.046-1.295-2.162l-.12.08zm.737-3.716v1.145h-2.958v-1.145h2.958zm-2.958 2.54v-1.096h2.958v1.096h-2.958zm2.988-4.324h-4.164l-.747-.318v2.65c0 1.982-.139 4.133-1.215 5.867l.139.11c1.574-1.724 1.704-4.185 1.704-5.988v-2.022h2.331c-.08.419-.16.867-.259 1.186h-.728l-.647-.29v3.886h.1c.239 0 .498-.15.498-.19v-.278h1.175v2.759c0 .13-.04.179-.209.179-.189 0-1.056-.06-1.056-.06v.15c.399.05.628.13.757.239.1.1.16.259.17.448.836-.09.966-.428.966-.936v-2.78h1.155v.389h.1c.199 0 .508-.15.518-.21v-2.898c.189-.04.348-.11.408-.19l-.767-.587-.349.369h-1.773c.22-.22.429-.478.588-.747.19-.01.309-.1.349-.2l-.887-.239h2.899c.14 0 .229-.05.259-.159a11.76 11.76 0 0 0-.857-.717l-.458.577zm5.938-.727c.359.31.708.867.767 1.305.688.518 1.295-.926-.657-1.374l-.11.07zm4.802 4.314c.139 0 .239-.05.269-.16-.339-.318-.877-.727-.877-.727l-.468.588h-2.68v-1.484c.249-.04.339-.14.359-.27l-1.006-.119v1.873h-3.935l.09.299h3.486c-.737 1.683-2.111 3.247-3.925 4.263l.1.16c1.863-.837 3.277-2.073 4.184-3.577v3.905h.129c.239 0 .518-.15.518-.24v-4.511h.01c.767 1.932 2.092 3.456 3.606 4.293.1-.299.329-.488.608-.518l.02-.1c-1.554-.637-3.138-2.052-4.005-3.675h3.517zm-.289-3.238l-.449.439h-6.514c-.02-.16-.06-.34-.12-.519l-.169.01c.05.648-.339 1.216-.727 1.435-.209.13-.359.339-.269.568.109.249.488.259.747.07.289-.19.568-.618.558-1.266h6.504a8.26 8.26 0 0 1-.488 1.156l.13.08a6.73 6.73 0 0 0 1.195-1.116c.199-.01.319-.02.389-.1l-.787-.757zm3.388 1.524c.339-.677.618-1.384.867-2.122.229 0 .348-.09.388-.209l-1.056-.318c-.438 1.902-1.235 3.835-2.022 5.07l.14.1c.408-.429.787-.957 1.145-1.535v5.499h.12c.249 0 .517-.17.527-.22v-5.936c.18-.03.28-.09.319-.18l-.428-.149zm6.963-.289c.129 0 .219-.05.249-.159-.319-.309-.847-.727-.847-.727l-.458.587h-1.733v-1.643c.239-.04.329-.14.358-.29l-1.006-.108v2.041h-2.868l.079.3h2.361c-.498 1.812-1.454 3.625-2.759 4.92l.139.14c1.395-1.126 2.421-2.6 3.048-4.264v3.626h-1.723l.08.289h1.643v2.052h.13c.239 0 .518-.14.518-.23v-1.822h1.614c.129 0 .229-.05.258-.16-.288-.288-.747-.667-.747-.667l-.408.538h-.717v-4.423h.03c.538 2.142 1.484 3.905 2.679 4.951.11-.319.339-.498.608-.528l.03-.1c-1.255-.806-2.461-2.49-3.108-4.323h2.55zM140.825-39.834c0-1.156 0-2.122.03-3.078h1.026c1.185 0 1.723.538 1.723 1.484 0 .916-.628 1.594-1.793 1.594h-.986zm3.556 3.327l-.538-1.763c-.249-.787-.577-1.156-1.195-1.295 1.195-.22 1.823-.976 1.823-1.853 0-1.215-.947-1.903-2.57-1.903h-2.969v.349l1.036.11c.03.956.03 1.932.03 2.898v.548c0 .976 0 1.943-.03 2.889l-1.036.11v.358h2.959v-.359l-1.036-.11c-.03-.936-.03-1.882-.03-2.908h.667c.917 0 1.265.19 1.494 1.056l.499 1.793c.119.448.378.628 1.026.628.328 0 .587-.05.766-.1v-.359l-.896-.09zM146.692-39.057c.12-1.265.847-1.863 1.574-1.863.767 0 1.295.628 1.295 1.325 0 .319-.099.538-.538.538h-2.331zm3.547.388c.05-.15.069-.358.069-.617 0-1.245-.836-2.032-1.992-2.032-1.315 0-2.44 1.065-2.44 2.729 0 1.703 1.006 2.67 2.4 2.67.927 0 1.614-.459 2.023-1.176l-.21-.16c-.388.469-.856.778-1.564.778-1.056 0-1.833-.728-1.842-2.202l3.556.01zm3.168.548c-.717 0-1.156-.568-1.156-1.415 0-.846.459-1.424 1.186-1.424s1.155.568 1.155 1.395c0 .846-.448 1.444-1.185 1.444zm.907 2.191c.796 0 1.095.38 1.095.877 0 .657-.657 1.196-1.902 1.196-.907 0-1.495-.34-1.495-1.076 0-.409.16-.698.498-1.026.16.02.329.03.529.03h1.275zm1.832-5.269l-.169-.11-1.235.39c-.339-.26-.787-.4-1.305-.4-1.106 0-1.922.648-1.922 1.773 0 .728.318 1.246.826 1.535-.528.478-.727.826-.727 1.185 0 .408.259.677.697.797-.747.358-1.046.747-1.046 1.225 0 .807.718 1.355 2.232 1.355 1.723 0 2.59-.907 2.59-1.833 0-.857-.538-1.325-1.644-1.325h-1.464c-.558 0-.728-.219-.728-.528 0-.269.12-.488.339-.767.249.09.528.14.837.14 1.096 0 1.903-.648 1.903-1.784 0-.438-.11-.796-.319-1.075l1.135.01v-.588zm5.45 4.702v-3.128l.04-1.514-.11-.11-1.474.13v.318l.817.14-.02 3.307c-.508.528-1.056.797-1.624.797-.647 0-.966-.359-.966-1.394v-1.674l.05-1.514-.1-.11-1.494.13v.318l.827.14-.03 2.77c-.01 1.464.518 1.971 1.414 1.971.698 0 1.385-.358 1.943-1.046l.08.997 1.414-.09v-.319l-.767-.12zm3.208-.01c-.01-.588-.02-1.235-.02-1.823v-4.144l.03-1.534-.149-.09-1.544.419v.308l.906.08v4.96c0 .589-.01 1.236-.02 1.824l-.926.13v.318h2.62v-.319l-.897-.13zM169.511-37.195c-.638.509-.927.688-1.345.688-.538 0-.917-.27-.917-.867 0-.398.18-.817 1.146-1.185.269-.11.707-.25 1.116-.359v1.723zm1.633.548c-.149.16-.269.24-.448.24-.269 0-.428-.18-.428-.758v-2.36c0-1.296-.538-1.793-1.644-1.793-1.056 0-1.833.487-2.042 1.304.02.24.189.38.438.38.259 0 .409-.15.488-.44l.22-.737c.258-.09.488-.109.697-.109.757 0 1.086.269 1.086 1.365v.319c-.459.099-.937.239-1.325.358-1.355.488-1.743.976-1.743 1.644 0 .856.637 1.314 1.434 1.314.648 0 1.046-.288 1.654-.906.089.548.408.887.916.887.349 0 .628-.14.867-.498l-.17-.21zM173.343-41.209l-.139-.1-1.435.528v.32l.887.069c.02.468.04.876.04 1.514v.548c0 .508-.01 1.275-.03 1.833l-.817.12v.318h2.54v-.319l-.916-.13c-.01-.557-.02-1.314-.02-1.822v-.906c.249-.688.568-1.146 1.036-1.455l.139.12c.199.169.389.289.638.289.388 0 .558-.25.558-.678-.11-.219-.439-.358-.758-.358-.627 0-1.265.537-1.623 1.414l-.1-1.305zM10.41-29.89v1.555H8.798v-1.554h1.614zm2.73 0v1.555h-1.604v-1.554h1.604zm-1.604 3.467v-1.633h1.604v1.633h-1.604zm-2.739 0v-1.633h1.614v1.633H8.797zm0 .29h4.343v.537h.2c.388 0 .965-.229.975-.299v-3.795c.21-.04.35-.14.409-.219l-1.136-.867-.548.598H8.877l-1.255-.498v5.26h.169c.498 0 1.006-.27 1.006-.389v-.329zm1.504.398c.389.468.747 1.195.777 1.843 1.066.856 2.162-1.295-.697-1.903l-.08.06zm-2.789.607c.04.658-.369 1.226-.747 1.445-.329.18-.578.478-.448.886.14.419.647.538 1.016.299.547-.319.906-1.285.298-2.64l-.119.01zm5.897.867h-.11c-.199.598-.358 1.006-.478 1.175-.08.11-.14.14-.308.15-.16.01-.558.01-.987.01h-1.235c-.378 0-.428-.04-.428-.19v-1.802c.199-.04.289-.12.309-.26l-1.485-.12v2.412c0 .806.27.986 1.415.986h1.295c2.002 0 2.48-.17 2.48-.678 0-.209-.08-.348-.438-.468l-.03-1.215zm-.07-.867c.538.608 1.006 1.524 1.066 2.351 1.185.976 2.281-1.534-.976-2.42l-.09.07zm3.468-5.638c.329.369.707.937.817 1.465 1.036.707 1.963-1.265-.737-1.525l-.08.06zm-.627 2.321c.308.319.657.847.747 1.315.996.678 1.892-1.195-.668-1.385l-.08.07zm2.739-.876c-1.614 4.144-1.614 4.144-1.803 4.522-.1.21-.14.21-.279.21H16.4v.198c.209.02.368.06.508.16.229.15.269 1.105.09 2.131.07.39.298.529.527.529.468 0 .777-.34.797-.837.04-.887-.358-1.255-.378-1.803-.01-.24.04-.598.12-.946.109-.559.677-2.87 1.005-4.114l-.149-.05zm2.032 4.452c-.2.777-.687 1.943-1.305 2.69l.1.11c.906-.528 1.643-1.385 2.092-2.082.229.02.319-.03.358-.14l-1.245-.578zm2.66.24c.408.577.896 1.444 1.016 2.161.956.757 1.803-1.185-.907-2.221l-.11.06zm.368-3.637v1.166h-2.181v-1.166h2.181zm-2.181 2.55v-1.095h2.181v1.095h-2.181zm2.131-4.333h-3.496l-1.265-.468v2.85c0 1.951-.07 4.193-.946 5.986l.12.07c1.832-1.674 1.922-4.234 1.922-6.057v-2.102h1.962c-.02.439-.06.887-.11 1.216h-.269l-1.075-.439v4.045h.15c.437 0 .876-.24.876-.33v-.148h.568v2.43c0 .11-.04.17-.18.17-.18 0-.996-.05-.996-.05v.129c.428.08.628.2.737.369.12.169.17.438.18.797 1.175-.1 1.354-.628 1.354-1.385v-2.46h.518v.368h.18c.348 0 .876-.2.886-.269v-2.79c.18-.039.309-.109.359-.178l-1.026-.777-.488.518h-1.385c.289-.21.578-.488.817-.747.209-.01.329-.1.368-.23l-1.026-.239h2.71c.14 0 .249-.05.269-.159a22.934 22.934 0 0 0-1.106-.927l-.608.807zm5.998-.807c.379.33.658.897.668 1.405 1.175.867 2.32-1.424-.598-1.464l-.07.06zm3.995 1.893c-.07.399-.19.907-.299 1.236l.08.06a6.761 6.761 0 0 0 1.484-1.057c.2-.01.299-.03.379-.12l-1.076-1.025-.628.627h-6.086a4.02 4.02 0 0 0-.18-.597h-.129c.02.508-.408.976-.757 1.155-.329.17-.568.478-.458.887.16.428.707.548 1.046.318.368-.229.617-.737.528-1.484h6.096zm1.106 2.48c.14 0 .239-.05.269-.159-.419-.388-1.126-.936-1.126-.936l-.618.807h-2.091v-1.574c.239-.04.318-.13.328-.269l-1.504-.14v1.983H26.57l.08.289h2.997c-.617 1.643-1.842 3.317-3.456 4.382l.09.12c1.733-.747 3.088-1.793 4.004-3.108v3.507h.22c.437 0 .956-.25.956-.369v-4.353c.647 1.902 1.693 3.337 3.147 4.203.16-.537.518-.886.957-.966l.03-.12c-1.525-.557-3.128-1.772-3.995-3.296h3.427zm3.208-1.723c.34-.617.648-1.305.907-2.032.239 0 .359-.08.398-.21l-1.643-.487c-.349 1.913-1.086 3.905-1.823 5.18l.12.08a7.926 7.926 0 0 0 1.035-1.046v5.14h.22c.448 0 .926-.25.936-.34v-5.916c.19-.04.279-.1.319-.2l-.469-.169zm6.874-.239c.14 0 .239-.05.269-.16-.399-.398-1.096-.975-1.096-.975l-.598.846H42.53v-1.733c.269-.04.349-.14.368-.289l-1.534-.15v2.172h-2.57l.08.29h1.932c-.398 1.792-1.185 3.695-2.32 5l.11.11a8.901 8.901 0 0 0 2.768-3.268v2.71H39.88l.07.278h1.414v2.072h.22c.448 0 .946-.289.946-.408v-1.664h1.395c.139 0 .239-.05.268-.159-.338-.368-.936-.906-.936-.906l-.528.787h-.2v-4.553h.02c.39 2.222 1.047 3.925 2.122 5.03.18-.547.548-.886.977-.976l.04-.1c-1.216-.736-2.351-2.2-2.96-3.954h2.382zM50.285-22.856c-.03-1.036-.03-2.092-.03-3.268h.548c1.334 0 1.942.528 1.942 1.634 0 1.066-.667 1.634-1.843 1.634h-.617zm.587-6.615c1.076 0 1.544.498 1.544 1.415 0 1.006-.548 1.554-1.693 1.554h-.468c0-1.016 0-2.003.03-2.969h.587zm-2.948-.388v.358l.946.09c.02.986.02 1.982.02 2.978v.429c0 1.046 0 2.082-.02 3.098l-.946.09v.348h3.078c2.43 0 3.168-1.046 3.168-2.032 0-.996-.678-1.684-2.331-1.883 1.434-.279 1.922-.966 1.922-1.723 0-1.016-.747-1.753-2.51-1.753h-3.327zM57.676-22.309c1.524 0 2.69-1.046 2.69-2.839s-1.246-2.809-2.69-2.809c-1.454 0-2.69 1.026-2.69 2.81 0 1.782 1.146 2.838 2.69 2.838zm0-.368c-.827 0-1.285-.807-1.285-2.46 0-1.644.458-2.451 1.285-2.451.807 0 1.285.807 1.285 2.45 0 1.654-.478 2.46-1.285 2.46zM63.182-22.856c-.02-.638-.03-1.325-.03-1.953v-4.144l.04-1.583-.14-.09-2.002.428v.28l.807.059v5.05c0 .628-.01 1.315-.03 1.943l-.767.09v.308h2.89v-.309l-.768-.08zm5.26-.489c-.309.29-.608.399-.966.399-.827 0-1.434-.608-1.434-2.192 0-1.633.667-2.19 1.454-2.19.309 0 .617.098.946.377v3.606zm1.315.509v-6.127l.03-1.573-.14-.09-2.012.428v.28l.857.069v2.59c-.409-.488-.887-.698-1.435-.698-1.364 0-2.41 1.076-2.41 2.88 0 1.712.976 2.768 2.28 2.768.639 0 1.146-.259 1.545-.717l.07.668 1.962-.11v-.309l-.747-.06zM98.543-24.938c-.016.797-.453 1.532-.89 1.797-.204.157-.344.36-.235.563.125.219.484.172.734-.031.407-.313.86-1.11.563-2.328h-.172zm3.047-4.953v1.578h-2.203v-1.578h2.203zm2.828 0v1.578h-2.203v-1.578h2.203zm-2.203 3.485v-1.61h2.203v1.61h-2.203zm-2.828 0v-1.61h2.203v1.61h-2.203zm5.031.297v.5h.094c.218 0 .531-.157.547-.22v-3.937c.203-.03.359-.109.421-.187l-.796-.625-.375.406h-4.86l-.703-.328v5.063h.11c.265 0 .53-.172.53-.235v-.437h5.032zm-3.156.578c.453.437.968 1.187 1.015 1.812.657.532 1.235-1.031-.906-1.906l-.11.094zm3.125 1.578h-.125c-.11.578-.235 1.031-.313 1.203-.047.11-.078.14-.234.156h-2.735c-.484 0-.546-.031-.546-.187v-2.078c.203-.032.296-.125.312-.25l-.953-.094v2.531c0 .547.187.688 1.11.688h1.468c2 0 2.36-.11 2.36-.438 0-.125-.063-.203-.313-.281l-.031-1.25zm.125-.953c.531.515 1.156 1.406 1.25 2.125.75.578 1.312-1.14-1.14-2.203l-.11.078zm3.382-5.719c.438.281.954.781 1.125 1.234.72.407 1.125-1.03-1.03-1.328l-.095.094zm-.625 2.281c.407.25.86.719 1.016 1.11.703.422 1.11-.985-.922-1.203l-.094.093zm2.594-.656c-1.562 3.953-1.562 3.953-1.719 4.313-.093.187-.125.203-.25.203h-.406v.218c.203.016.328.032.453.141.22.14.282.938.141 1.938.016.312.14.5.328.5.328 0 .516-.266.531-.688.047-.812-.234-1.281-.25-1.719-.015-.25.047-.562.141-.875.125-.468.828-2.765 1.203-3.984l-.172-.047zm2.156 4.266c-.28.718-.921 1.765-1.625 2.406l.125.14c.829-.546 1.594-1.39 2.016-2.03.219.03.313-.016.36-.095l-.876-.421zm2.36.203c.547.515 1.234 1.39 1.422 2.078.703.516 1.172-1.047-1.297-2.156l-.125.078zm.734-3.703v1.14h-2.937v-1.14h2.937zm-2.937 2.53v-1.093h2.937v1.094h-2.937zm2.968-4.312h-4.14l-.75-.328v2.657c0 1.968-.14 4.109-1.219 5.843l.14.11c1.579-1.72 1.704-4.172 1.704-5.97v-2.015h2.328c-.078.422-.156.86-.266 1.188h-.718l-.657-.297v3.875h.11c.234 0 .5-.14.5-.188v-.28h1.172v2.75c0 .14-.047.187-.22.187-.187 0-1.046-.063-1.046-.063v.14c.39.063.625.141.75.25.11.095.156.25.172.438.828-.078.969-.422.969-.922v-2.78h1.14v.39h.11c.187 0 .5-.157.515-.203v-2.891c.188-.047.344-.11.406-.188l-.765-.593-.344.375h-1.766c.22-.219.422-.485.579-.75.187-.016.312-.094.343-.203l-.875-.235h2.891c.14 0 .219-.047.25-.156-.313-.313-.844-.719-.844-.719l-.469.578zm5.946-.734c.36.313.719.875.766 1.313.687.515 1.296-.922-.657-1.375l-.11.062zm4.797 4.313c.14 0 .234-.047.265-.157-.343-.328-.875-.734-.875-.734l-.468.594h-2.672v-1.485c.25-.047.344-.14.36-.265l-1-.125v1.875h-3.923l.078.297h3.485c-.735 1.671-2.11 3.234-3.906 4.25l.093.156c1.86-.828 3.266-2.063 4.172-3.563v3.89h.125c.235 0 .516-.155.516-.233v-4.5h.015c.766 1.921 2.079 3.437 3.594 4.28a.716.716 0 0 1 .61-.515l.015-.11c-1.547-.624-3.125-2.046-4-3.655h3.516zm-.297-3.235l-.438.438h-6.5a2.244 2.244 0 0 0-.125-.516l-.156.016c.047.64-.344 1.203-.734 1.422-.203.125-.36.343-.266.562.11.25.485.266.75.078.281-.187.563-.625.547-1.265h6.484c-.125.375-.312.859-.484 1.156l.14.078a7.294 7.294 0 0 0 1.188-1.11c.203-.015.313-.03.39-.109l-.796-.75zm3.414 1.516c.328-.672.61-1.375.86-2.11.234 0 .343-.093.39-.203l-1.047-.328c-.438 1.906-1.234 3.828-2.016 5.063l.125.093c.407-.422.797-.953 1.157-1.53v5.484h.109c.25 0 .516-.172.531-.22v-5.921c.172-.031.281-.078.313-.172l-.422-.156zm6.937-.282c.141 0 .22-.046.25-.156-.312-.312-.843-.734-.843-.734l-.454.594h-1.734v-1.641c.25-.047.328-.14.36-.281l-1-.11v2.032h-2.86l.078.297h2.36c-.5 1.812-1.454 3.609-2.766 4.906l.14.14a9.957 9.957 0 0 0 3.047-4.25v3.61h-1.718l.078.297h1.64v2.047h.125c.235 0 .516-.141.516-.235v-1.812h1.61c.14 0 .234-.063.265-.172-.297-.282-.75-.657-.75-.657l-.406.532h-.719v-4.407h.031c.532 2.141 1.485 3.891 2.672 4.938.11-.313.344-.5.61-.531l.03-.094c-1.25-.813-2.452-2.484-3.093-4.313h2.531z"/><path d="M98.543-24.938c-.016.797-.453 1.532-.89 1.797-.204.157-.344.36-.235.563.125.219.484.172.734-.031.407-.313.86-1.11.563-2.328h-.172zm3.047-4.953v1.578h-2.203v-1.578h2.203zm2.828 0v1.578h-2.203v-1.578h2.203zm-2.203 3.485v-1.61h2.203v1.61h-2.203zm-2.828 0v-1.61h2.203v1.61h-2.203zm5.031.297v.5h.094c.219 0 .531-.157.547-.22v-3.937c.203-.03.359-.109.422-.187l-.797-.625-.375.406h-4.86l-.703-.328v5.063h.11c.265 0 .53-.172.53-.235v-.437h5.032zm-3.156.578c.453.437.969 1.187 1.015 1.812.657.532 1.235-1.031-.906-1.906l-.11.094zm3.125 1.578h-.125c-.11.578-.235 1.031-.313 1.203-.047.11-.078.14-.234.156h-2.734c-.485 0-.547-.031-.547-.187v-2.078c.203-.032.297-.125.312-.25l-.953-.094v2.531c0 .547.188.688 1.11.688h1.468c2 0 2.36-.11 2.36-.438 0-.125-.063-.203-.313-.281l-.031-1.25zm.125-.953c.531.515 1.156 1.406 1.25 2.125.75.578 1.312-1.14-1.14-2.203l-.11.078zm3.382-5.719c.438.281.954.781 1.125 1.234.72.407 1.125-1.03-1.03-1.328l-.095.094zm-.625 2.281c.407.25.86.719 1.016 1.11.703.422 1.11-.985-.922-1.203l-.094.093zm2.594-.656c-1.562 3.953-1.562 3.953-1.719 4.313-.093.187-.125.203-.25.203h-.406v.218c.203.016.328.032.453.141.22.14.282.938.141 1.938.016.312.14.5.328.5.328 0 .516-.266.531-.688.047-.813-.234-1.281-.25-1.719-.015-.25.047-.562.141-.875.125-.468.828-2.765 1.203-3.984l-.172-.047zm2.156 4.266c-.28.718-.921 1.765-1.625 2.406l.125.14c.829-.546 1.594-1.39 2.016-2.03.219.03.313-.016.36-.095l-.876-.421zm2.36.203c.547.515 1.234 1.39 1.422 2.078.703.515 1.172-1.047-1.297-2.156l-.125.078zm.734-3.703v1.14h-2.937v-1.14h2.937zm-2.937 2.53v-1.093h2.937v1.094h-2.937zm2.968-4.312h-4.14l-.75-.328v2.657c0 1.968-.14 4.109-1.219 5.843l.14.11c1.579-1.72 1.704-4.172 1.704-5.97v-2.015h2.328c-.078.422-.156.86-.266 1.188h-.718l-.657-.297v3.875h.11c.234 0 .5-.14.5-.188v-.28h1.172v2.75c0 .14-.047.187-.22.187-.187 0-1.046-.063-1.046-.063v.14c.39.063.625.141.75.25.11.095.156.25.172.438.828-.078.969-.422.969-.922v-2.78h1.14v.39h.11c.187 0 .5-.157.515-.203v-2.891c.188-.047.344-.11.406-.188l-.765-.593-.344.375h-1.766c.22-.219.422-.485.579-.75.187-.016.312-.094.343-.203l-.875-.235h2.891c.14 0 .219-.047.25-.156-.313-.313-.844-.719-.844-.719l-.469.578zm5.946-.734c.36.313.719.875.766 1.313.687.515 1.296-.922-.657-1.375l-.11.062zm4.797 4.313c.14 0 .234-.047.265-.157-.343-.328-.875-.734-.875-.734l-.468.594h-2.672v-1.485c.25-.047.344-.14.36-.265l-1-.125v1.875h-3.923l.078.297h3.485c-.735 1.671-2.11 3.234-3.906 4.25l.093.156c1.86-.828 3.266-2.063 4.172-3.563v3.89h.125c.235 0 .516-.155.516-.233v-4.5h.015c.766 1.921 2.079 3.437 3.594 4.28a.716.716 0 0 1 .61-.515l.015-.11c-1.547-.624-3.125-2.046-4-3.655h3.516zm-.297-3.235l-.438.438h-6.5a2.245 2.245 0 0 0-.125-.516l-.156.016c.047.64-.344 1.203-.734 1.422-.203.125-.36.343-.266.562.11.25.485.266.75.078.281-.187.563-.625.547-1.265h6.484c-.125.375-.312.859-.484 1.156l.14.078a7.291 7.291 0 0 0 1.188-1.11c.203-.015.313-.03.39-.109l-.796-.75zm3.414 1.516c.328-.672.61-1.375.86-2.11.234 0 .343-.093.39-.203l-1.047-.328c-.438 1.906-1.234 3.828-2.016 5.063l.125.093c.407-.422.797-.953 1.157-1.53v5.483h.109c.25 0 .516-.171.531-.218v-5.922c.172-.031.281-.078.313-.172l-.422-.156zm6.937-.282c.141 0 .22-.046.25-.156-.312-.312-.843-.734-.843-.734l-.454.594h-1.734v-1.641c.25-.047.328-.14.36-.281l-1-.11v2.032h-2.86l.078.297h2.36c-.5 1.812-1.454 3.609-2.766 4.906l.14.14a9.958 9.958 0 0 0 3.047-4.25v3.61h-1.718l.078.297h1.64v2.047h.125c.235 0 .516-.141.516-.235v-1.812h1.61c.14 0 .234-.063.265-.172-.297-.282-.75-.657-.75-.657l-.406.532h-.719v-4.407h.031c.532 2.141 1.485 3.891 2.672 4.938.11-.313.344-.5.61-.531l.03-.094c-1.25-.813-2.452-2.484-3.093-4.313h2.531z" stroke="#000" fill="none" stroke-width=".4" stroke-miterlimit="10"/><path d="M143.586-29.266l.25 1.422h.5l-.078-1.86h-5.313v.345l1.032.109c.03.953.03 1.922.03 2.89v.547c0 .97 0 1.938-.03 2.876l-1.032.109v.36h2.985v-.36l-1.063-.11c-.031-.953-.031-1.921-.031-3.015h1.797l.14 1.125h.422v-2.594h-.422l-.125 1.063h-1.812c0-1 0-1.985.031-2.907h2.719z"/><path d="M143.586-29.266l.25 1.422h.5l-.078-1.86h-5.313v.345l1.032.109c.03.953.03 1.922.03 2.89v.547c0 .97 0 1.938-.03 2.875l-1.032.11v.36h2.985v-.36l-1.063-.11c-.031-.953-.031-1.921-.031-3.015h1.797l.14 1.125h.422v-2.594h-.422l-.125 1.063h-1.812c0-1 0-1.985.031-2.907h2.719z" stroke="#000" fill="none" stroke-width=".4" stroke-miterlimit="10"/><path d="M147.856-23.594c-.641.5-.922.672-1.344.672-.531 0-.906-.265-.906-.86 0-.39.171-.812 1.14-1.187.266-.11.703-.234 1.11-.343v1.718zm1.625.532c-.141.171-.266.25-.438.25-.281 0-.438-.188-.438-.766v-2.344c0-1.297-.53-1.797-1.64-1.797-1.047 0-1.828.485-2.031 1.313.015.234.187.375.437.375s.406-.157.484-.438l.22-.734c.265-.094.484-.11.702-.11.75 0 1.079.266 1.079 1.36v.312c-.454.11-.938.235-1.329.36-1.343.484-1.734.968-1.734 1.64 0 .86.64 1.313 1.438 1.313.64 0 1.03-.297 1.64-.906.094.547.406.89.922.89.344 0 .625-.14.86-.5l-.172-.218zm5.433.171l-1.844-2.89 1.297-1.313 1.016-.14v-.344h-2.485v.344l.875.172-2 2.078v-3.875l.032-1.532-.157-.093-1.53.422v.296l.89.078v4.954c0 .593 0 1.234-.016 1.812l-.89.14v.313h2.546v-.312l-.859-.14c-.016-.485-.016-1.032-.016-1.548l.766-.781 1.734 2.781h1.375v-.312l-.734-.11z"/><path d="M147.856-23.594c-.641.5-.922.672-1.344.672-.531 0-.906-.265-.906-.86 0-.39.171-.812 1.14-1.187.266-.11.703-.234 1.11-.343v1.718zm1.625.532c-.141.171-.266.25-.438.25-.281 0-.438-.188-.438-.766v-2.344c0-1.297-.53-1.797-1.64-1.797-1.047 0-1.828.485-2.031 1.313.015.234.187.375.437.375s.406-.157.484-.438l.22-.734c.265-.094.484-.11.702-.11.75 0 1.079.266 1.079 1.36v.312c-.454.11-.938.235-1.329.36-1.343.484-1.734.968-1.734 1.64 0 .86.64 1.313 1.438 1.313.64 0 1.03-.297 1.64-.906.094.547.406.89.922.89.344 0 .625-.14.86-.5l-.172-.218zm5.433.171l-1.844-2.89 1.297-1.313 1.016-.14v-.344h-2.485v.344l.875.172-2 2.078v-3.875l.032-1.532-.157-.093-1.53.422v.296l.89.078v4.954c0 .593 0 1.234-.016 1.812l-.89.14v.313h2.546v-.312l-.859-.14c-.016-.485-.016-1.032-.016-1.548l.766-.781 1.734 2.781h1.375v-.312l-.734-.11z" stroke="#000" fill="none" stroke-width=".4" stroke-miterlimit="10"/><path d="M156.809-25.453c.109-1.266.843-1.86 1.562-1.86.766 0 1.297.625 1.297 1.313 0 .328-.11.547-.547.547h-2.312zm3.53.375c.048-.14.063-.344.063-.61 0-1.234-.828-2.03-1.984-2.03-1.313 0-2.438 1.062-2.438 2.734 0 1.687 1.016 2.656 2.407 2.656.922 0 1.61-.453 2.015-1.172l-.218-.156c-.375.469-.844.765-1.547.765-1.063 0-1.828-.718-1.844-2.187h3.547z"/><path d="M156.809-25.453c.109-1.266.843-1.86 1.562-1.86.766 0 1.297.625 1.297 1.313 0 .328-.11.547-.547.547h-2.312zm3.53.375c.048-.14.063-.344.063-.61 0-1.234-.828-2.03-1.984-2.03-1.313 0-2.438 1.062-2.438 2.734 0 1.687 1.016 2.656 2.407 2.656.922 0 1.61-.453 2.015-1.172l-.218-.156c-.375.468-.844.765-1.547.765-1.063 0-1.828-.718-1.844-2.187h3.547z" stroke="#000" fill="none" stroke-width=".4" stroke-miterlimit="10"/><path d="M165.945-22.875c-.03-.969-.03-1.984-.03-3.156h.687c1.562 0 2.234.562 2.234 1.593 0 1-.703 1.563-2.094 1.563h-.797zm.797-6.422c1.219 0 1.766.406 1.766 1.36 0 1.015-.625 1.515-1.969 1.515h-.625c0-1 0-1.953.031-2.875h.797zm-2.719-.406v.344l1.032.109c.03.953.03 1.922.03 2.875v.547c0 .969 0 1.937-.03 2.89l-1.032.11v.36h2.922c1.97 0 2.766-.97 2.766-1.97 0-.906-.61-1.625-2.063-1.812 1.204-.25 1.704-.938 1.704-1.719 0-1.031-.829-1.734-2.344-1.734h-2.985zm9.16 7.375c1.22 0 2.438-.875 2.438-2.672 0-1.813-1.234-2.719-2.437-2.719-1.235 0-2.453.907-2.453 2.719 0 1.797 1.218 2.672 2.453 2.672zm0-.406c-1 0-1.609-.782-1.609-2.266s.61-2.313 1.61-2.313c.984 0 1.593.829 1.593 2.313 0 1.484-.609 2.266-1.593 2.266z"/><path d="M165.945-22.875c-.03-.969-.03-1.984-.03-3.156h.687c1.562 0 2.234.562 2.234 1.593 0 1-.703 1.563-2.094 1.563h-.797zm.797-6.422c1.219 0 1.766.406 1.766 1.36 0 1.015-.625 1.515-1.969 1.515h-.625c0-1 0-1.953.031-2.875h.797zm-2.719-.406v.344l1.032.109c.03.953.03 1.922.03 2.875v.547c0 .969 0 1.937-.03 2.89l-1.032.11v.36h2.922c1.97 0 2.766-.97 2.766-1.97 0-.906-.61-1.625-2.063-1.812 1.204-.25 1.704-.938 1.704-1.719 0-1.031-.829-1.734-2.344-1.734h-2.985zm9.161 7.375c1.218 0 2.437-.875 2.437-2.672 0-1.813-1.234-2.719-2.437-2.719-1.235 0-2.453.907-2.453 2.719 0 1.797 1.218 2.672 2.453 2.672zm0-.406c-1 0-1.61-.782-1.61-2.266s.61-2.313 1.61-2.313c.984 0 1.593.829 1.593 2.313s-.609 2.266-1.593 2.266z" stroke="#000" fill="none" stroke-width=".4" stroke-miterlimit="10"/><path d="M178.102-22.922c-.016-.578-.016-1.219-.016-1.812v-4.125l.031-1.532-.156-.093-1.531.422v.296l.89.078v4.954c0 .593 0 1.234-.015 1.812l-.922.14v.313h2.61v-.312l-.891-.14zm5.445-.594c-.453.5-.828.688-1.328.688-.906 0-1.594-.656-1.594-2.156 0-1.578.75-2.235 1.625-2.235.39 0 .797.157 1.297.625v3.078zm.75.625v-5.984l.031-1.516-.14-.093-1.547.422v.296l.937.078v2.704c-.469-.547-.969-.735-1.453-.735-1.328 0-2.313 1.078-2.313 2.75 0 1.547.907 2.64 2.204 2.64.672 0 1.156-.296 1.547-.796l.062.75 1.625-.094v-.312l-.953-.11z"/><path d="M178.102-22.922c-.016-.578-.016-1.219-.016-1.812v-4.125l.031-1.532-.156-.093-1.531.422v.296l.89.078v4.954c0 .593 0 1.234-.015 1.812l-.922.14v.313h2.609v-.312l-.89-.14zm5.445-.594c-.453.5-.828.688-1.328.688-.906 0-1.594-.656-1.594-2.156 0-1.578.75-2.235 1.625-2.235.391 0 .797.157 1.297.625v3.078zm.75.625v-5.984l.031-1.516-.14-.093-1.547.422v.296l.937.078v2.704c-.469-.547-.969-.735-1.453-.735-1.328 0-2.312 1.078-2.312 2.75 0 1.547.906 2.64 2.203 2.64.672 0 1.156-.296 1.547-.796l.062.75 1.625-.094v-.312l-.953-.11z" stroke="#000" fill="none" stroke-width=".4" stroke-miterlimit="10"/><path d="M10.301-16.11v1.545H8.976v-1.544h1.325zm2.67 0v1.545h-1.305v-1.544h1.305zm-1.305 3.467v-1.643h1.305v1.643h-1.305zm-2.69 0v-1.643h1.325v1.643H8.976zm0 .28h3.995v.547h.249c.478 0 1.185-.259 1.195-.339v-3.725c.21-.04.339-.14.399-.22l-1.305-.995-.638.707H9.076l-1.544-.588v5.35h.21c.607 0 1.234-.32 1.234-.469v-.269zm1.325.298c.339.488.618 1.185.648 1.843 1.265 1.036 2.62-1.424-.578-1.893l-.07.05zm-2.829.608c.07.577-.319 1.066-.657 1.265-.419.189-.717.548-.578 1.056a.807.807 0 0 0 1.175.468c.618-.329.927-1.375.16-2.8l-.1.01zm5.917.807h-.1c-.249.607-.428.986-.567 1.155-.09.11-.16.14-.339.15-.16.01-.508.01-.827.01h-1.145c-.319 0-.369-.04-.369-.18v-1.663c.21-.04.3-.12.319-.26l-1.763-.129v2.34c0 .937.318 1.137 1.564 1.137h1.215c2.002 0 2.55-.2 2.55-.807 0-.25-.1-.409-.508-.558l-.03-1.195zm-.18-.817c.539.647.937 1.584.977 2.47 1.414 1.176 2.77-1.753-.896-2.53l-.08.06zm3.538-5.598c.27.408.568.996.648 1.564 1.205.876 2.41-1.375-.578-1.614l-.07.05zm-.617 2.33c.259.36.538.907.597 1.425 1.136.817 2.282-1.305-.527-1.474l-.07.05zm2.789-.986c-1.634 4.254-1.634 4.254-1.833 4.642-.1.21-.15.21-.299.21h-.438v.179c.209.02.378.07.518.17.239.159.279 1.195.07 2.24.1.409.378.528.627.528.538 0 .916-.368.936-.896.03-.947-.428-1.265-.448-1.853-.01-.259.04-.638.11-.996.1-.598.608-2.929.906-4.194l-.149-.03zm1.962 4.533c-.15.817-.558 2.042-1.125 2.839l.09.1c.926-.529 1.653-1.385 2.111-2.112.24.02.329-.04.369-.15l-1.445-.677zm2.81.259c.338.617.717 1.464.806 2.211 1.076.897 2.132-1.255-.707-2.261l-.1.05zm.179-3.586v1.185h-1.784v-1.185h1.784zm-1.784 2.56v-1.096h1.784v1.096h-1.784zm1.694-4.353h-3.138l-1.534-.528v2.958c0 1.923-.03 4.224-.806 6.037l.099.06c1.962-1.664 2.042-4.264 2.042-6.097v-2.152h1.783c0 .439-.02.907-.04 1.236h-.05l-1.294-.508v4.104h.179c.528 0 1.066-.28 1.066-.389v-.09h.269v2.262c0 .1-.04.16-.17.16-.18 0-.956-.04-.956-.04v.119c.438.09.617.239.727.438.12.21.16.538.17.986 1.354-.11 1.553-.747 1.553-1.633v-2.291h.19v.358h.219c.418 0 1.056-.229 1.066-.299v-2.73c.169-.039.289-.108.338-.178l-1.155-.867-.558.598h-1.175c.318-.21.647-.478.926-.757.22-.02.349-.11.389-.25l-1.056-.229h2.56c.139 0 .259-.05.278-.159a30.331 30.331 0 0 0-1.235-1.036l-.687.917zm9.972 1.105c-.04.399-.109.917-.189 1.275l.06.06a7.999 7.999 0 0 0 1.614-1.036c.209-.01.309-.04.388-.13l-1.235-1.165-.717.717h-2.321c.896-.268 1.125-1.862-1.494-1.713l-.05.05c.389.329.628.906.618 1.464.129.1.268.16.398.2h-2.998c-.05-.2-.12-.41-.22-.628h-.11c.01.428-.437.837-.756.996-.408.19-.697.558-.568 1.056.17.528.817.707 1.206.458.398-.249.627-.817.507-1.604h5.867zm1.305 2.46c.14 0 .25-.049.28-.159a30.173 30.173 0 0 0-1.266-1.036l-.697.917h-1.783v-1.624c.239-.04.309-.13.319-.259l-1.763-.16v2.043H26.55l.08.279h2.729c-.558 1.623-1.694 3.357-3.218 4.452l.08.1c1.673-.687 2.998-1.674 3.925-2.879v3.307h.269c.537 0 1.175-.298 1.175-.428v-4.224c.578 1.853 1.504 3.228 2.899 4.104.2-.657.617-1.095 1.155-1.205l.03-.12c-1.514-.517-3.128-1.623-3.994-3.107h3.376zm3.279-1.712c.349-.598.648-1.256.917-1.993.239 0 .368-.08.408-.209l-1.943-.578c-.298 1.923-1.006 3.945-1.713 5.23l.1.07c.349-.26.677-.548.986-.867v5.03h.26c.547 0 1.134-.288 1.144-.388v-5.927c.2-.04.28-.1.32-.2l-.479-.168zm6.803-.23c.14 0 .25-.05.28-.16-.439-.437-1.216-1.095-1.216-1.095l-.687.976h-.837v-1.783c.28-.04.349-.14.369-.288l-1.803-.17v2.241h-2.41l.079.28h1.703c-.328 1.782-1.046 3.745-2.092 5.05l.1.09a8.466 8.466 0 0 0 2.62-2.84v2.321H39.88l.08.28h1.285v2.081h.269c.548 0 1.165-.358 1.165-.498v-1.584h1.285c.14 0 .24-.05.27-.16-.37-.408-1.037-1.025-1.037-1.025l-.518.787v-4.503c.309 2.271.817 3.945 1.843 5.08.219-.677.648-1.095 1.166-1.205l.04-.11c-1.186-.707-2.302-2.051-2.88-3.765h2.291zM55.733-15.81v-.339h-3.446v.339l.837.08c.03 1.005.03 2.031.03 3.048h-2.68c0-1.027 0-2.053.03-3.049l.827-.08v-.338h-3.447v.339l.886.09c.01 1.015.01 2.041.01 3.077v.439c0 1.036 0 2.062-.01 3.068l-.886.09v.338h3.447v-.339l-.827-.08c-.03-1.015-.03-2.051-.03-3.177h2.68c0 1.146 0 2.182-.03 3.168l-.837.09v.338h3.446v-.339l-.876-.09c-.02-1.025-.02-2.051-.02-3.067v-.439c0-1.036 0-2.072.02-3.088l.876-.08zM57.883-11.806c.04-1.544.488-2.161 1.036-2.161.528 0 .906.458.906 1.324 0 .618-.12.847-.587.847l-1.355-.01zm3.188 1.803c-.33.458-.758.757-1.455.757-.936 0-1.683-.637-1.733-2.191h3.386c.05-.19.06-.36.06-.608 0-1.265-.806-2.271-2.3-2.271-1.425 0-2.85.996-2.85 2.869 0 1.862 1.216 2.908 2.86 2.908 1.015 0 1.812-.488 2.22-1.344l-.188-.12zm4.084.329c-.368.329-.597.458-.867.458-.468 0-.746-.279-.746-.877 0-.727.368-1.195 1.065-1.484.12-.05.319-.11.548-.17v2.073zm-2.132-4.054l.16-.06-.16.06zm4.443 4.273c-.189.299-.299.379-.448.379-.19 0-.309-.13-.309-.509v-2.68c0-1.444-.568-2.051-1.982-2.051-1.544 0-2.41.597-2.49 1.534.08.329.328.508.687.508.379 0 .717-.269.747-.946l.07-.708c.15-.03.279-.04.418-.04.757 0 .996.31.996 1.345v.608c-.348.09-.697.18-.976.259-1.604.468-2.122.956-2.122 1.863 0 .836.598 1.354 1.455 1.354.796 0 1.175-.308 1.683-.866.15.538.518.866 1.175.866.638 0 1.017-.229 1.266-.776l-.17-.14zM73.28-14.147h-1.943v.299l.777.1-1.195 3.546-1.245-3.566.717-.08v-.299h-3.058v.299l.617.08 2.003 5.08h.687l1.932-5.05.707-.11v-.299zm6.027 0h-2.052v.299l.906.1-1.225 3.745-1.355-3.765.727-.08v-.299H73.27v.299l.578.06 2.36 5.618c-.288.717-.567 1.185-.945 1.504l-.16-.21c-.249-.318-.538-.547-.936-.547-.389 0-.777.19-.857.638.02.448.548.776 1.106.776.608 0 1.484-.468 2.072-2.021l2.151-5.728.668-.09v-.299zM98.543-11.176c-.016.797-.453 1.531-.89 1.797-.204.156-.344.36-.235.563.125.218.484.171.734-.032.407-.312.86-1.109.563-2.328h-.172zm3.047-4.953v1.578h-2.203v-1.578h2.203zm2.828 0v1.578h-2.203v-1.578h2.203zm-2.203 3.484v-1.609h2.203v1.61h-2.203zm-2.828 0v-1.609h2.203v1.61h-2.203zm5.031.297v.5h.094c.218 0 .531-.156.547-.218v-3.938c.203-.031.359-.11.421-.187l-.796-.625-.375.406h-4.86l-.703-.328v5.062h.11c.265 0 .53-.172.53-.234v-.438h5.032zm-3.156.578c.453.438.968 1.188 1.015 1.813.657.531 1.235-1.031-.906-1.906l-.11.093zm3.125 1.579h-.125c-.11.578-.235 1.03-.313 1.203-.047.11-.078.14-.234.156h-2.735c-.484 0-.546-.031-.546-.188v-2.078c.203-.03.296-.125.312-.25l-.953-.093v2.53c0 .548.187.688 1.11.688h1.468c2 0 2.36-.109 2.36-.437 0-.125-.063-.203-.313-.281l-.031-1.25zm.125-.954c.531.516 1.156 1.407 1.25 2.125.75.579 1.312-1.14-1.14-2.203l-.11.078zm3.382-5.718c.438.281.954.781 1.125 1.234.72.406 1.125-1.031-1.03-1.328l-.095.094zm-.625 2.281c.407.25.86.719 1.016 1.11.703.421 1.11-.985-.922-1.204l-.094.094zm2.594-.656c-1.562 3.953-1.562 3.953-1.719 4.312-.093.188-.125.203-.25.203h-.406v.22c.203.015.328.03.453.14.22.14.282.937.141 1.937.016.313.14.5.328.5.328 0 .516-.265.531-.687.047-.813-.234-1.282-.25-1.719-.015-.25.047-.563.141-.875.125-.469.828-2.766 1.203-3.984l-.172-.047zm2.156 4.265c-.28.72-.921 1.766-1.625 2.407l.125.14c.829-.547 1.594-1.39 2.016-2.031.219.031.313-.016.36-.094l-.876-.422zm2.36.203c.547.516 1.234 1.391 1.422 2.079.703.515 1.172-1.047-1.297-2.157l-.125.078zm.734-3.703v1.141h-2.937v-1.14h2.937zm-2.937 2.532v-1.094h2.937v1.094h-2.937zm2.968-4.313h-4.14l-.75-.328v2.656c0 1.969-.14 4.11-1.219 5.844l.14.11c1.579-1.72 1.704-4.173 1.704-5.97v-2.015h2.328c-.078.422-.156.86-.266 1.187h-.718l-.657-.296v3.875h.11c.234 0 .5-.141.5-.188v-.281h1.172v2.75c0 .14-.047.187-.22.187-.187 0-1.046-.062-1.046-.062v.14c.39.063.625.141.75.25.11.094.156.25.172.438.828-.078.969-.422.969-.922v-2.781h1.14v.39h.11c.187 0 .5-.156.515-.203v-2.89c.188-.047.344-.11.406-.188l-.765-.594-.344.375h-1.766c.22-.218.422-.484.579-.75.187-.015.312-.093.343-.203l-.875-.234h2.891c.14 0 .219-.047.25-.156-.313-.313-.844-.719-.844-.719l-.469.578zm5.946-.734c.36.312.719.875.766 1.312.687.516 1.296-.922-.657-1.375l-.11.063zm4.797 4.312c.14 0 .234-.047.265-.156-.343-.328-.875-.734-.875-.734l-.468.593h-2.672v-1.484c.25-.047.344-.14.36-.266l-1-.125v1.875h-3.923l.078.297h3.485c-.735 1.672-2.11 3.235-3.906 4.25l.093.156c1.86-.828 3.266-2.062 4.172-3.562v3.89h.125c.235 0 .516-.156.516-.234v-4.5h.015c.766 1.922 2.079 3.438 3.594 4.281a.716.716 0 0 1 .61-.515l.015-.11c-1.547-.625-3.125-2.046-4-3.656h3.516zm-.297-3.234l-.438.437h-6.5a2.244 2.244 0 0 0-.125-.515l-.156.015c.047.641-.344 1.203-.734 1.422-.203.125-.36.344-.266.563.11.25.485.265.75.078.281-.188.563-.625.547-1.266h6.484c-.125.375-.312.86-.484 1.156l.14.079a7.294 7.294 0 0 0 1.188-1.11c.203-.015.313-.031.39-.11l-.796-.75zm3.414 1.515c.328-.671.61-1.375.86-2.109.234 0 .343-.094.39-.203l-1.047-.328c-.438 1.906-1.234 3.828-2.016 5.062l.125.094c.407-.422.797-.953 1.157-1.531v5.484h.109c.25 0 .516-.172.531-.219v-5.921c.172-.032.281-.079.313-.172l-.422-.157zm6.937-.28c.141 0 .22-.048.25-.157-.312-.313-.843-.734-.843-.734l-.454.593h-1.734v-1.64c.25-.047.328-.14.36-.282l-1-.109v2.031h-2.86l.078.297h2.36c-.5 1.813-1.454 3.61-2.766 4.906l.14.141a9.957 9.957 0 0 0 3.047-4.25v3.61h-1.718l.078.296h1.64v2.047h.125c.235 0 .516-.14.516-.234v-1.813h1.61c.14 0 .234-.062.265-.172-.297-.28-.75-.656-.75-.656l-.406.531h-.719v-4.406h.031c.532 2.14 1.485 3.89 2.672 4.938.11-.313.344-.5.61-.532l.03-.093c-1.25-.813-2.452-2.485-3.093-4.313h2.531z"/><path d="M98.543-11.176c-.016.797-.453 1.531-.89 1.797-.204.156-.344.36-.235.563.125.218.484.171.734-.032.407-.312.86-1.109.563-2.328h-.172zm3.047-4.953v1.578h-2.203v-1.578h2.203zm2.828 0v1.578h-2.203v-1.578h2.203zm-2.203 3.485v-1.61h2.203v1.61h-2.203zm-2.828 0v-1.61h2.203v1.61h-2.203zm5.031.296v.5h.094c.219 0 .531-.156.547-.218v-3.938c.203-.031.359-.11.422-.187l-.797-.625-.375.406h-4.86l-.703-.328v5.062h.11c.265 0 .53-.172.53-.234v-.438h5.032zm-3.156.579c.453.437.969 1.187 1.015 1.812.657.531 1.235-1.031-.906-1.906l-.11.093zm3.125 1.578h-.125c-.11.578-.235 1.03-.313 1.203-.047.11-.078.14-.234.156h-2.734c-.485 0-.547-.031-.547-.188v-2.078c.203-.03.297-.125.312-.25l-.953-.093v2.53c0 .548.188.688 1.11.688h1.468c2 0 2.36-.109 2.36-.437 0-.125-.063-.203-.313-.281l-.031-1.25zm.125-.954c.531.516 1.156 1.407 1.25 2.125.75.579 1.312-1.14-1.14-2.203l-.11.079zm3.382-5.718c.438.281.954.781 1.125 1.234.72.406 1.125-1.031-1.03-1.328l-.095.094zm-.625 2.281c.407.25.86.719 1.016 1.11.703.421 1.11-.985-.922-1.204l-.094.094zm2.594-.656c-1.562 3.953-1.562 3.953-1.719 4.312-.093.188-.125.203-.25.203h-.406v.22c.203.015.328.03.453.14.22.14.282.937.141 1.937.016.313.14.5.328.5.328 0 .516-.265.531-.687.047-.813-.234-1.282-.25-1.719-.015-.25.047-.563.141-.875.125-.469.828-2.766 1.203-3.984l-.172-.047zm2.156 4.265c-.28.72-.921 1.766-1.625 2.407l.125.14c.829-.547 1.594-1.39 2.016-2.031.219.031.313-.016.36-.094l-.876-.422zm2.36.204c.547.515 1.234 1.39 1.422 2.078.703.515 1.172-1.047-1.297-2.157l-.125.079zm.734-3.704v1.141h-2.937v-1.14h2.937zm-2.937 2.532v-1.094h2.937v1.094h-2.937zm2.968-4.313h-4.14l-.75-.328v2.656c0 1.969-.14 4.11-1.219 5.844l.14.11c1.579-1.72 1.704-4.173 1.704-5.97v-2.015h2.328c-.078.422-.156.86-.266 1.188h-.718l-.657-.297v3.875h.11c.234 0 .5-.141.5-.188v-.281h1.172v2.75c0 .14-.047.187-.22.187-.187 0-1.046-.062-1.046-.062v.14c.39.063.625.141.75.25.11.094.156.25.172.438.828-.078.969-.422.969-.922v-2.781h1.14v.39h.11c.187 0 .5-.156.515-.203v-2.89c.188-.047.344-.11.406-.188l-.765-.594-.344.375h-1.766c.22-.218.422-.484.579-.75.187-.015.312-.093.343-.203l-.875-.234h2.891c.14 0 .219-.047.25-.156-.313-.313-.844-.719-.844-.719l-.469.578zm5.946-.734c.36.312.719.875.766 1.312.687.516 1.296-.922-.657-1.375l-.11.063zm4.797 4.312c.14 0 .234-.047.265-.156-.343-.328-.875-.734-.875-.734l-.468.593h-2.672v-1.484c.25-.047.344-.14.36-.266l-1-.125v1.875h-3.923l.078.297h3.485c-.735 1.672-2.11 3.235-3.906 4.25l.093.156c1.86-.828 3.266-2.062 4.172-3.562v3.89h.125c.235 0 .516-.156.516-.234v-4.5h.015c.766 1.922 2.079 3.438 3.594 4.281a.716.716 0 0 1 .61-.515l.015-.11c-1.547-.625-3.125-2.046-4-3.656h3.516zm-.297-3.234l-.438.437h-6.5a2.245 2.245 0 0 0-.125-.515l-.156.015c.047.641-.344 1.204-.734 1.422-.203.125-.36.344-.266.563.11.25.485.265.75.078.281-.188.563-.625.547-1.266h6.484c-.125.375-.312.86-.484 1.156l.14.079a7.291 7.291 0 0 0 1.188-1.11c.203-.015.313-.031.39-.11l-.796-.75zm3.414 1.515c.328-.671.61-1.375.86-2.109.234 0 .343-.094.39-.203l-1.047-.328c-.438 1.906-1.234 3.828-2.016 5.062l.125.094c.407-.422.797-.953 1.157-1.531v5.484h.109c.25 0 .516-.172.531-.219v-5.921c.172-.032.281-.079.313-.172l-.422-.157zm6.937-.28c.141 0 .22-.048.25-.157-.312-.313-.843-.734-.843-.734l-.454.593h-1.734v-1.64c.25-.047.328-.14.36-.282l-1-.109v2.031h-2.86l.078.297h2.36c-.5 1.813-1.454 3.61-2.766 4.906l.14.141a9.958 9.958 0 0 0 3.047-4.25v3.61h-1.718l.078.296h1.64v2.047h.125c.235 0 .516-.14.516-.234v-1.813h1.61c.14 0 .234-.062.265-.171-.297-.282-.75-.657-.75-.657l-.406.531h-.719v-4.406h.031c.532 2.14 1.485 3.89 2.672 4.938.11-.313.344-.5.61-.532l.03-.093c-1.25-.813-2.452-2.485-3.093-4.313h2.531z" stroke="#000" fill="none" stroke-width=".8" stroke-miterlimit="10"/><path d="M143.586-15.504l.25 1.422h.5l-.078-1.86h-5.313v.344l1.032.11c.03.953.03 1.922.03 2.89v.547c0 .969 0 1.938-.03 2.875l-1.032.11v.359h2.985v-.36l-1.063-.109c-.031-.953-.031-1.922-.031-3.015h1.797l.14 1.125h.422v-2.594h-.422l-.125 1.062h-1.812c0-1 0-1.984.031-2.906h2.719z"/><path d="M143.586-15.504l.25 1.422h.5l-.078-1.86h-5.313v.344l1.032.11c.03.953.03 1.922.03 2.89v.547c0 .969 0 1.938-.03 2.875l-1.032.11v.359h2.985v-.36l-1.063-.109c-.031-.953-.031-1.922-.031-3.015h1.797l.14 1.125h.422v-2.594h-.422l-.125 1.062h-1.812c0-1 0-1.984.031-2.906h2.719z" stroke="#000" fill="none" stroke-width=".8" stroke-miterlimit="10"/><path d="M147.856-9.832c-.641.5-.922.672-1.344.672-.531 0-.906-.266-.906-.86 0-.39.171-.812 1.14-1.187.266-.11.703-.234 1.11-.344v1.719zm1.625.531c-.141.172-.266.25-.438.25-.281 0-.438-.187-.438-.765v-2.344c0-1.297-.53-1.797-1.64-1.797-1.047 0-1.828.484-2.031 1.312.015.235.187.375.437.375s.406-.156.484-.437l.22-.734c.265-.094.484-.11.702-.11.75 0 1.079.266 1.079 1.36v.312c-.454.11-.938.234-1.329.36-1.343.484-1.734.968-1.734 1.64 0 .86.64 1.313 1.438 1.313.64 0 1.03-.297 1.64-.907.094.547.406.891.922.891.344 0 .625-.14.86-.5l-.172-.219zm5.433.172l-1.844-2.89 1.297-1.313 1.016-.14v-.344h-2.485v.343l.875.172-2 2.078v-3.875l.032-1.53-.157-.095-1.53.422v.297l.89.078v4.953c0 .594 0 1.235-.016 1.813l-.89.14v.313h2.546v-.313l-.859-.14c-.016-.485-.016-1.031-.016-1.547l.766-.781 1.734 2.781h1.375v-.313l-.734-.109z"/><path d="M147.856-9.832c-.641.5-.922.672-1.344.672-.531 0-.906-.266-.906-.86 0-.39.171-.812 1.14-1.187.266-.11.703-.234 1.11-.344v1.719zm1.625.531c-.141.172-.266.25-.438.25-.281 0-.438-.187-.438-.765v-2.344c0-1.297-.53-1.797-1.64-1.797-1.047 0-1.828.484-2.031 1.313.015.234.187.374.437.374s.406-.156.484-.437l.22-.734c.265-.094.484-.11.702-.11.75 0 1.079.266 1.079 1.36v.312c-.454.11-.938.234-1.329.36-1.343.484-1.734.968-1.734 1.64 0 .86.64 1.313 1.438 1.313.64 0 1.03-.297 1.64-.907.094.547.406.891.922.891.344 0 .625-.14.86-.5l-.172-.219zm5.433.172l-1.844-2.89 1.297-1.313 1.016-.14v-.344h-2.485v.343l.875.172-2 2.078v-3.875l.032-1.53-.157-.095-1.53.422v.297l.89.078v4.953c0 .594 0 1.235-.016 1.813l-.89.14v.313h2.546v-.313l-.859-.14c-.016-.485-.016-1.031-.016-1.547l.766-.781 1.734 2.781h1.375v-.313l-.734-.109z" stroke="#000" fill="none" stroke-width=".8" stroke-miterlimit="10"/><path d="M156.809-11.691c.109-1.266.843-1.86 1.562-1.86.766 0 1.297.625 1.297 1.313 0 .328-.11.547-.547.547h-2.312zm3.53.375c.048-.141.063-.344.063-.61 0-1.234-.828-2.031-1.984-2.031-1.313 0-2.438 1.062-2.438 2.734 0 1.688 1.016 2.657 2.407 2.657.922 0 1.61-.454 2.015-1.172l-.218-.157c-.375.47-.844.766-1.547.766-1.063 0-1.828-.719-1.844-2.187h3.547z"/><path d="M156.809-11.691c.109-1.266.843-1.86 1.562-1.86.766 0 1.297.625 1.297 1.313 0 .328-.11.547-.547.547h-2.312zm3.53.375c.048-.141.063-.344.063-.61 0-1.234-.828-2.031-1.984-2.031-1.313 0-2.438 1.063-2.438 2.734 0 1.688 1.016 2.657 2.407 2.657.922 0 1.61-.454 2.015-1.172l-.218-.157c-.375.47-.844.766-1.547.766-1.063 0-1.828-.719-1.844-2.187h3.547z" stroke="#000" fill="none" stroke-width=".8" stroke-miterlimit="10"/><path d="M171.54-15.598v-.343h-2.97v.343l1.032.11c.03.937.03 1.89.03 2.843h-3.718c0-.968 0-1.921.031-2.843l1.032-.11v-.343h-2.954v.343l1.032.11c.03.953.03 1.922.03 2.89v.547c0 .969 0 1.938-.03 2.875l-1.032.11v.359h2.954v-.36l-1.032-.109c-.03-.937-.03-1.906-.03-3.062h3.718c0 1.172 0 2.14-.031 3.078l-1.032.094v.359h2.97v-.36l-1.048-.109c-.015-.953-.015-1.922-.015-2.875v-.547c0-.984 0-1.953.015-2.89l1.047-.11z"/><path d="M171.54-15.598v-.343h-2.97v.343l1.032.11c.03.937.03 1.89.03 2.843h-3.718c0-.968 0-1.921.031-2.843l1.032-.11v-.343h-2.954v.343l1.032.11c.03.953.03 1.922.03 2.89v.547c0 .969 0 1.938-.03 2.875l-1.032.11v.359h2.954v-.36l-1.032-.109c-.03-.937-.03-1.906-.03-3.062h3.718c0 1.172 0 2.14-.031 3.078l-1.032.094v.359h2.97v-.36l-1.048-.109c-.015-.953-.015-1.922-.015-2.875v-.547c0-.984 0-1.953.015-2.89l1.047-.11z" stroke="#000" fill="none" stroke-width=".8" stroke-miterlimit="10"/><path d="M173.152-11.691c.11-1.266.844-1.86 1.563-1.86.766 0 1.297.625 1.297 1.313 0 .328-.11.547-.547.547h-2.313zm3.532.375c.047-.141.062-.344.062-.61 0-1.234-.828-2.031-1.984-2.031-1.313 0-2.438 1.062-2.438 2.734 0 1.688 1.016 2.657 2.406 2.657.922 0 1.61-.454 2.016-1.172l-.219-.157c-.375.47-.843.766-1.546.766-1.063 0-1.829-.719-1.844-2.187h3.547z"/><path d="M173.152-11.691c.11-1.266.844-1.86 1.563-1.86.765 0 1.297.625 1.297 1.313 0 .328-.11.547-.547.547h-2.313zm3.532.375c.046-.141.062-.344.062-.61 0-1.234-.828-2.031-1.984-2.031-1.313 0-2.438 1.063-2.438 2.734 0 1.688 1.016 2.657 2.406 2.657.922 0 1.61-.454 2.016-1.172l-.219-.157c-.375.47-.843.766-1.547.766-1.062 0-1.828-.719-1.843-2.187h3.547z" stroke="#000" fill="none" stroke-width=".8" stroke-miterlimit="10"/><path d="M180.8-9.832c-.64.5-.921.672-1.343.672-.531 0-.906-.266-.906-.86 0-.39.172-.812 1.14-1.187.266-.11.703-.234 1.11-.344v1.719zm1.626.531c-.14.172-.266.25-.438.25-.281 0-.437-.187-.437-.765v-2.344c0-1.297-.531-1.797-1.64-1.797-1.048 0-1.829.484-2.032 1.312.016.235.187.375.437.375s.407-.156.485-.437l.219-.734c.265-.094.484-.11.703-.11.75 0 1.078.266 1.078 1.36v.312c-.453.11-.938.234-1.328.36-1.344.484-1.735.968-1.735 1.64 0 .86.64 1.313 1.438 1.313.64 0 1.031-.297 1.64-.907.094.547.407.891.922.891.344 0 .625-.14.86-.5l-.172-.219z"/><path d="M180.801-9.832c-.641.5-.922.672-1.344.672-.531 0-.906-.266-.906-.86 0-.39.172-.812 1.14-1.187.266-.11.704-.234 1.11-.344v1.719zm1.625.531c-.141.172-.266.25-.438.25-.281 0-.437-.187-.437-.765v-2.344c0-1.297-.531-1.797-1.641-1.797-1.047 0-1.828.484-2.031 1.313.016.234.187.374.437.374s.407-.156.485-.437l.219-.734a1.98 1.98 0 0 1 .703-.11c.75 0 1.078.266 1.078 1.36v.312c-.453.11-.938.234-1.328.36-1.344.484-1.735.968-1.735 1.64 0 .86.641 1.313 1.438 1.313.64 0 1.031-.297 1.64-.907.094.547.407.891.922.891.344 0 .625-.14.86-.5l-.172-.219z" stroke="#000" fill="none" stroke-width=".8" stroke-miterlimit="10"/><path d="M187.86-13.816h-2v.343l.906.141-1.313 3.734-1.422-3.765.953-.11v-.343H182.5v.343l.656.094 1.938 4.734h.375l1.765-4.703.625-.125v-.343z"/><path d="M187.859-13.816h-2v.343l.907.141-1.313 3.734-1.422-3.765.953-.11v-.343H182.5v.343l.656.094 1.938 4.734h.375l1.765-4.703.625-.125v-.343z" stroke="#000" fill="none" stroke-width=".8" stroke-miterlimit="10"/><path d="M193.55-13.816h-2.077v.312l.968.125-1.406 3.953-1.453-3.953.953-.11v-.327h-2.469v.312l.641.094 1.969 4.969-.094.218c-.25.688-.594 1.297-1.11 1.657l-.078-.079c-.25-.25-.468-.375-.734-.375-.297 0-.578.125-.64.407.015.375.437.625.937.625.797 0 1.469-.735 2.156-2.563l1.828-4.828.61-.125v-.312z"/><path d="M193.551-13.816h-2.078v.312l.968.125-1.406 3.953-1.453-3.953.953-.11v-.327h-2.469v.312l.641.094 1.969 4.969-.094.218c-.25.688-.594 1.297-1.109 1.657l-.078-.079c-.25-.25-.469-.375-.735-.375-.297 0-.578.125-.64.407.015.375.437.625.937.625.797 0 1.469-.735 2.156-2.563l1.828-4.828.61-.125v-.312z" stroke="#000" fill="none" stroke-width=".8" stroke-miterlimit="10"/></svg>