<svg xmlns="http://www.w3.org/2000/svg" width="306.073" height="63.761" viewBox="0 -47.821 229.555 47.821"><path d="M8.19-41.305c0-.936.587-1.892 1.792-1.892.01.239.18.438.429.438a.41.41 0 0 0 .418-.428c0-.2-.12-.618-.946-.618-.508 0-1.146.18-1.694.807v-.339c0-.309-.06-.408-.398-.408H6.695c-.15 0-.398 0-.398.299 0 .308.239.308.398.308h.807v3.078h-.807c-.15 0-.398 0-.398.3 0 .308.239.308.398.308h2.6c.15 0 .409 0 .409-.299 0-.309-.26-.309-.409-.309H8.19v-1.245zm4.104-2.141c-.02-.3-.22-.3-.399-.3h-.318c-.15 0-.409 0-.409.3 0 .308.21.308.568.308v3.078c-.358 0-.568 0-.568.31 0 .298.27.298.409.298h.876c.15 0 .409 0 .409-.299 0-.309-.21-.309-.568-.309v-1.783c0-.886.408-1.354.817-1.354.229 0 .369.169.369.816v2.321c-.19 0-.439 0-.439.31 0 .298.27.298.409.298h.747c.15 0 .408 0 .408-.299 0-.309-.21-.309-.568-.309v-1.783c0-.886.409-1.354.817-1.354.23 0 .369.169.369.816v2.321c-.19 0-.439 0-.439.31 0 .298.27.298.409.298h.747c.15 0 .408 0 .408-.299 0-.309-.209-.309-.568-.309v-2.41c0-.2 0-1.335-.886-1.335-.299 0-.707.13-.986.518-.15-.339-.428-.518-.757-.518-.319 0-.618.14-.857.359zM32.358-46.385c-.05-.13-.07-.2-.23-.2-.159 0-.189.06-.239.2l-2.062 5.957c-.179.508-.577.657-1.115.667v.309c.229-.01.657-.03 1.016-.03.309 0 .827.02 1.145.03v-.309c-.498 0-.747-.249-.747-.508 0-.03.01-.13.02-.15l.458-1.304h2.46l.529 1.524c.01.04.03.1.03.14 0 .298-.558.298-.827.298v.309c.359-.03 1.056-.03 1.434-.03.429 0 .887.01 1.305.03v-.309h-.18c-.597 0-.736-.07-.846-.398l-2.151-6.226zm-.528 1.115l1.125 3.238h-2.241l1.116-3.238zM42.965-40.06v1.783c0 .449-.11.449-.777.449v.308c.338-.01.856-.03 1.115-.03.27 0 .777.02 1.126.03v-.308c-.668 0-.777 0-.777-.449v-5.578h-.22l-.378.907c-.13-.28-.538-.907-1.335-.907-1.155 0-2.201.966-2.201 2.261 0 1.245.966 2.252 2.122 2.252.697 0 1.105-.429 1.325-.718zm.03-2.151v1.404c0 .319-.18.598-.4.837-.128.14-.447.408-.915.408-.728 0-1.335-.886-1.335-2.032 0-1.185.697-2.012 1.434-2.012.797 0 1.215.867 1.215 1.395zm5.337 1.972v.897l1.435-.11v-.309c-.698 0-.777-.07-.777-.558v-3.536l-1.464.11v.309c.697 0 .776.07.776.557v1.774c0 .866-.478 1.543-1.205 1.543-.837 0-.876-.468-.876-.986v-3.307l-1.465.11v.309c.777 0 .777.03.777.916v1.494c0 .777 0 1.684 1.514 1.684.558 0 .996-.28 1.285-.897zm3.404-3.616l-1.395.11v.309c.648 0 .737.06.737.547v2.68c0 .448-.11.448-.777.448v.309c.32-.01.857-.03 1.096-.03.349 0 .697.02 1.036.03v-.309c-.657 0-.697-.05-.697-.438v-3.656zm.04-1.733a.519.519 0 0 0-.528-.528.538.538 0 0 0-.528.528c0 .269.219.528.528.528.279 0 .528-.21.528-.528zm2.13 3.964c0-1.623.816-2.042 1.345-2.042.09 0 .717.01 1.065.369-.408.03-.468.329-.468.458 0 .26.18.458.459.458.258 0 .458-.169.458-.468 0-.677-.758-1.066-1.525-1.066-1.245 0-2.161 1.076-2.161 2.311 0 1.275.986 2.262 2.142 2.262 1.334 0 1.653-1.196 1.653-1.295 0-.1-.1-.1-.13-.1-.09 0-.11.04-.129.1-.289.926-.936 1.046-1.305 1.046-.528 0-1.404-.429-1.404-2.033zM57.95-40.21c0 .45-.11.45-.776.45v.308c.328-.01.797-.03 1.085-.03.3 0 .697.01 1.096.03v-.309c-.667 0-.777 0-.777-.448v-1.026l.638-.548c.767 1.056 1.185 1.614 1.185 1.793 0 .19-.17.23-.359.23v.308c.28-.01.867-.03 1.076-.03.29 0 .578.01.867.03v-.309c-.369 0-.588 0-.966-.528l-1.266-1.783c-.01-.02-.06-.08-.06-.11 0-.04.708-.637.808-.717.627-.508 1.046-.527 1.255-.537v-.31c-.29.03-.419.03-.698.03-.358 0-.976-.02-1.115-.03v.31c.19.01.288.119.288.249 0 .199-.139.318-.218.388l-1.405 1.215v-4.781l-1.434.11v.308c.697 0 .777.07.777.558v5.18zM67.183-43.207v-3.158l-1.434.11v.308c.697 0 .777.07.777.558v5.937h.25c.01-.01.089-.15.358-.618.149.23.567.728 1.305.728 1.185 0 2.22-.977 2.22-2.262 0-1.265-.975-2.25-2.11-2.25-.778 0-1.206.467-1.366.647zm.03 2.62v-2.053c0-.189 0-.199.11-.358a1.438 1.438 0 0 1 1.175-.638c.449 0 .807.26 1.046.638.26.408.29.976.29 1.384 0 .369-.02.967-.31 1.415-.209.309-.587.637-1.125.637-.449 0-.807-.239-1.046-.607-.14-.21-.14-.24-.14-.419zm5.456-2.172v-1.096l-1.385.11v.309c.697 0 .777.07.777.557v2.67c0 .448-.11.448-.777.448v.309c.389-.01.857-.03 1.136-.03.398 0 .867 0 1.265.03v-.309h-.21c-.737 0-.756-.11-.756-.468v-1.534c0-.986.418-1.873 1.175-1.873.07 0 .09 0 .11.01-.03.01-.23.13-.23.389 0 .279.21.428.429.428.18 0 .428-.12.428-.438 0-.32-.309-.608-.737-.608-.727 0-1.086.668-1.225 1.096zm6.93 1.175c0-1.275-.996-2.33-2.201-2.33-1.245 0-2.211 1.085-2.211 2.33a2.224 2.224 0 0 0 2.2 2.242 2.22 2.22 0 0 0 2.212-2.242zm-2.201 1.993c-.429 0-.867-.21-1.136-.668-.249-.438-.249-1.046-.249-1.404 0-.389 0-.927.24-1.365.268-.458.736-.667 1.135-.667.438 0 .866.219 1.125.647.26.428.26 1.006.26 1.385 0 .358 0 .896-.22 1.334-.219.449-.657.738-1.155.738zM85.775-42.799c.18-.498.488-.627.837-.637v-.31c-.22.02-.508.03-.727.03-.29 0-.738-.02-.927-.03v.31c.359.01.578.189.578.478 0 .06 0 .08-.05.209l-.906 2.55-.987-2.78c-.04-.119-.05-.139-.05-.189 0-.268.39-.268.588-.268v-.31c-.288.01-.796.03-1.035.03-.3 0-.588-.01-.887-.03v.31c.368 0 .528.02.627.149.05.06.16.358.23.548l-.857 2.41-.947-2.66c-.05-.119-.05-.139-.05-.179 0-.268.39-.268.589-.268v-.31c-.3.01-.857.03-1.086.03-.04 0-.568-.01-.927-.03v.31c.499 0 .618.03.738.348l1.255 3.526c.05.14.08.22.209.22.13 0 .149-.06.199-.2l1.006-2.819 1.016 2.83c.04.109.07.189.2.189.129 0 .159-.09.199-.19l1.165-3.267zm2.125-.08v2.67c0 .448-.11.448-.777.448v.309c.349-.01.856-.03 1.125-.03.26 0 .777.02 1.116.03v-.309c-.668 0-.777 0-.777-.448v-1.833c0-1.036.707-1.594 1.345-1.594.627 0 .737.538.737 1.106v2.32c0 .45-.11.45-.777.45v.308c.349-.01.857-.03 1.126-.03.258 0 .777.02 1.115.03v-.309c-.518 0-.767 0-.777-.299v-1.902c0-.857 0-1.166-.309-1.524-.139-.17-.468-.369-1.046-.369-.727 0-1.195.429-1.474 1.046v-1.046l-1.404.11v.309c.697 0 .777.07.777.557zM97.396-43.745v-1.156c0-.876.478-1.354.917-1.354.03 0 .18 0 .329.07a.436.436 0 0 0-.3.418c0 .229.16.428.429.428.29 0 .438-.2.438-.438 0-.37-.368-.698-.896-.698-.697 0-1.544.528-1.544 1.584v1.146h-.787v.309h.787v3.227c0 .448-.11.448-.777.448v.309c.388-.01.856-.03 1.136-.03.398 0 .866 0 1.265.03v-.309h-.21c-.737 0-.757-.11-.757-.468v-3.207h1.136v-.31h-1.166zm5.994 2.161c0-1.275-.997-2.33-2.202-2.33-1.245 0-2.211 1.085-2.211 2.33a2.223 2.223 0 0 0 2.201 2.242 2.22 2.22 0 0 0 2.212-2.242zm-2.202 1.993c-.428 0-.867-.21-1.136-.668-.249-.438-.249-1.046-.249-1.404 0-.389 0-.927.24-1.365.268-.458.737-.667 1.135-.667.439 0 .867.219 1.126.647.259.428.259 1.006.259 1.385 0 .358 0 .896-.22 1.334-.219.449-.657.738-1.155.738zM106.266-41.793c.3-.378.678-.867.917-1.126.309-.358.717-.507 1.185-.517v-.31c-.259.02-.558.03-.817.03-.298 0-.826-.02-.956-.03v.31c.21.02.29.149.29.308 0 .16-.1.29-.15.349l-.618.777-.777-1.006c-.09-.1-.09-.12-.09-.18 0-.149.15-.238.35-.248v-.31c-.26.01-.917.03-1.077.03-.209 0-.677-.01-.946-.03v.31c.697 0 .707.01 1.175.607l.987 1.285-.937 1.185a1.594 1.594 0 0 1-1.275.598v.309c.26-.02.568-.03.827-.03.289 0 .707.02.946.03v-.309c-.219-.03-.289-.16-.289-.309 0-.219.29-.547.897-1.265l.757.996c.08.11.21.27.21.33 0 .089-.09.238-.36.248v.309c.3-.01.857-.03 1.076-.03.27 0 .658.01.957.03v-.309c-.538 0-.718-.02-.947-.309l-1.335-1.723zM114.075-43.855l-1.514.11v.309c.767 0 .856.07.856.557v3.945c0 .448-.09 1.305-.727 1.305-.05 0-.279 0-.538-.13a.46.46 0 0 0 .35-.448.44.44 0 0 0-.46-.458.44.44 0 0 0-.457.458c0 .518.557.797 1.125.797.747 0 1.365-.637 1.365-1.544v-4.9zm0-1.733a.531.531 0 0 0-.528-.528.531.531 0 0 0-.528.528c0 .289.239.528.528.528.289 0 .528-.24.528-.528zm4.847 5.35v.896l1.435-.11v-.309c-.698 0-.777-.07-.777-.558v-3.536l-1.464.11v.309c.697 0 .776.07.776.557v1.774c0 .866-.478 1.543-1.205 1.543-.837 0-.876-.468-.876-.986v-3.307l-1.465.11v.309c.777 0 .777.03.777.916v1.494c0 .777 0 1.684 1.514 1.684.558 0 .996-.28 1.285-.897zm2.736-2.64v2.669c0 .448-.11.448-.777.448v.309c.35-.01.857-.03 1.126-.03.26 0 .777.02 1.116.03v-.309c-.668 0-.777 0-.777-.448v-1.833c0-1.036.707-1.594 1.344-1.594.628 0 .738.538.738 1.106v2.32c0 .45-.11.45-.777.45v.308c.348-.01.856-.03 1.125-.03.26 0 .777.02 1.116.03v-.309c-.667 0-.777 0-.777-.448v-1.833c0-1.036.707-1.594 1.345-1.594.627 0 .737.538.737 1.106v2.32c0 .45-.11.45-.777.45v.308c.349-.01.856-.03 1.126-.03.258 0 .776.02 1.115.03v-.309c-.518 0-.767 0-.777-.299v-1.902c0-.857 0-1.166-.309-1.524-.14-.17-.468-.369-1.046-.369-.836 0-1.275.598-1.444.976-.14-.866-.876-.976-1.325-.976-.727 0-1.195.429-1.474 1.046v-1.046l-1.405.11v.309c.698 0 .777.07.777.557zm8.92-.32v-.657l-1.435.11v.309c.708 0 .777.06.777.497v4.662c0 .449-.109.449-.777.449v.308c.339-.01.857-.03 1.116-.03.269 0 .777.02 1.126.03v-.308c-.668 0-.777 0-.777-.449V-40.04c.05.16.468.698 1.225.698 1.185 0 2.221-.977 2.221-2.262 0-1.265-.966-2.25-2.082-2.25-.777 0-1.195.437-1.394.657zm.03 2.61v-2.22c.289-.509.777-.798 1.285-.798.727 0 1.335.877 1.335 2.002 0 1.206-.698 2.042-1.435 2.042-.399 0-.777-.199-1.046-.607-.139-.21-.139-.22-.139-.419zm5.863-.797c.22.04 1.036.2 1.036.917 0 .508-.348.906-1.125.906-.837 0-1.196-.568-1.385-1.414-.03-.13-.04-.17-.139-.17-.13 0-.13.07-.13.25v1.315c0 .169 0 .239.11.239.05 0 .06-.01.249-.2.02-.02.02-.04.199-.229.438.419.887.429 1.096.429 1.145 0 1.604-.668 1.604-1.385 0-.528-.299-.827-.419-.946-.328-.319-.717-.399-1.135-.478-.558-.11-1.226-.24-1.226-.817 0-.349.26-.757 1.116-.757 1.096 0 1.146.896 1.166 1.205.009.09.099.09.119.09.129 0 .129-.05.129-.24v-1.005c0-.17 0-.24-.109-.24-.05 0-.07 0-.199.12-.03.04-.13.13-.17.16-.378-.28-.787-.28-.936-.28-1.215 0-1.594.668-1.594 1.225 0 .35.16.628.429.847.319.26.597.32 1.314.458zM146.332-41.584c0-1.275-.996-2.33-2.201-2.33-1.246 0-2.212 1.085-2.212 2.33a2.224 2.224 0 0 0 2.202 2.242 2.22 2.22 0 0 0 2.211-2.242zm-2.201 1.993c-.429 0-.867-.21-1.136-.668-.249-.438-.249-1.046-.249-1.404 0-.389 0-.927.239-1.365a1.336 1.336 0 0 1 1.136-.667c.438 0 .866.219 1.125.647.259.428.259 1.006.259 1.385 0 .358 0 .896-.219 1.334a1.285 1.285 0 0 1-1.155.738zM150.486-42.77c.089-.228.259-.656.916-.666v-.31c-.229.02-.518.03-.747.03-.239 0-.697-.02-.867-.03v.31c.369.01.479.239.479.428 0 .09-.02.13-.06.239l-1.016 2.54-1.116-2.78c-.06-.129-.06-.149-.06-.169 0-.258.389-.258.568-.258v-.31c-.299.01-.856.03-1.086.03-.269 0-.667-.01-.966-.03v.31c.628 0 .667.06.797.368l1.434 3.536c.06.14.08.19.21.19.129 0 .169-.09.209-.19l1.305-3.237zM152.446-41.962c.06-1.484.897-1.733 1.236-1.733 1.026 0 1.125 1.344 1.125 1.733h-2.361zm-.01.209h2.78c.219 0 .248 0 .248-.21 0-.985-.537-1.952-1.782-1.952-1.156 0-2.072 1.026-2.072 2.271 0 1.335 1.045 2.302 2.191 2.302 1.215 0 1.663-1.106 1.663-1.295 0-.1-.079-.12-.129-.12-.09 0-.11.06-.129.14-.349 1.026-1.246 1.026-1.345 1.026-.498 0-.897-.3-1.126-.668-.299-.478-.299-1.136-.299-1.494zm4.985-1.006v-1.096l-1.384.11v.309c.697 0 .777.07.777.557v2.67c0 .448-.11.448-.777.448v.309c.389-.01.857-.03 1.135-.03.399 0 .867 0 1.266.03v-.309h-.21c-.737 0-.757-.11-.757-.468v-1.534c0-.986.419-1.873 1.176-1.873.069 0 .089 0 .109.01a.431.431 0 0 0-.229.389c0 .279.209.428.429.428.179 0 .428-.12.428-.438 0-.32-.309-.608-.737-.608-.727 0-1.086.668-1.226 1.096zM166.294-40.21c.039.4.308.818.776.818.21 0 .817-.14.817-.947v-.557h-.249v.557c0 .578-.249.638-.358.638-.329 0-.369-.448-.369-.498v-1.992c0-.419 0-.807-.359-1.176a1.9 1.9 0 0 0-1.364-.548c-.817 0-1.504.469-1.504 1.126 0 .299.199.468.458.468a.44.44 0 0 0 .458-.458c0-.12-.05-.448-.508-.458.269-.349.757-.458 1.076-.458.488 0 1.056.388 1.056 1.275v.368c-.508.03-1.205.06-1.833.359-.747.338-.996.856-.996 1.295 0 .807.966 1.056 1.594 1.056.657 0 1.115-.399 1.305-.867zm-.07-1.633v.996c0 .947-.718 1.285-1.166 1.285-.488 0-.896-.348-.896-.846 0-.548.418-1.375 2.062-1.435zM173.037-46.365l-1.434.11v.308c.697 0 .777.07.777.558v5.18c0 .448-.109.448-.777.448v.309c.329-.01.857-.03 1.106-.03s.737.02 1.105.03v-.309c-.667 0-.777 0-.777-.448v-6.156zm4.322 6.156c.04.398.309.817.777.817.209 0 .817-.14.817-.947v-.557h-.249v.557c0 .578-.249.638-.359.638-.329 0-.368-.448-.368-.498v-1.992c0-.419 0-.807-.359-1.176a1.904 1.904 0 0 0-1.365-.548c-.816 0-1.504.469-1.504 1.126 0 .299.199.468.458.468a.44.44 0 0 0 .459-.458c0-.12-.05-.448-.508-.458.269-.349.757-.458 1.075-.458.489 0 1.056.388 1.056 1.275v.368c-.508.03-1.205.06-1.833.359-.747.338-.996.856-.996 1.295 0 .807.967 1.056 1.594 1.056.658 0 1.116-.399 1.305-.867zm-.07-1.634v.996c0 .947-.717 1.285-1.165 1.285-.488 0-.897-.348-.897-.846 0-.548.419-1.375 2.062-1.435zm5.619-1.603c.09-.11.09-.13.09-.17 0-.13-.08-.13-.259-.13h-3.188l-.109 1.605h.249c.059-1.017.249-1.385 1.344-1.385h1.136l-2.779 3.755c-.09.11-.09.13-.09.18 0 .139.07.139.259.139h3.287l.17-1.863h-.249c-.09 1.176-.299 1.614-1.455 1.614h-1.175l2.769-3.745zm4.676.647c.259-.627.767-.637.927-.637v-.31c-.229.02-.518.03-.747.03-.18 0-.648-.02-.867-.03v.31c.309.01.468.179.468.428 0 .1-.01.12-.059.239l-1.006 2.45-1.106-2.68c-.04-.099-.06-.139-.06-.179 0-.258.368-.258.558-.258v-.31c-.259.01-.917.03-1.086.03-.269 0-.667-.01-.966-.03v.31c.478 0 .667 0 .807.348l1.494 3.636c-.05.13-.19.458-.249.588-.219.548-.498 1.235-1.136 1.235-.05 0-.279 0-.468-.18.309-.04.388-.258.388-.418a.402.402 0 0 0-.418-.418c-.199 0-.418.13-.418.428 0 .448.418.807.916.807.628 0 1.036-.568 1.275-1.135l1.753-4.254zM195.817-40v.658l1.464-.11v-.309c-.697 0-.777-.07-.777-.558v-6.046l-1.434.11v.308c.697 0 .777.07.777.558v2.152a1.592 1.592 0 0 0-1.255-.618c-1.176 0-2.222.976-2.222 2.261 0 1.265.977 2.252 2.112 2.252.638 0 1.086-.34 1.335-.658zm0-2.67v2.043c0 .179 0 .199-.11.368-.298.478-.747.697-1.175.697-.448 0-.807-.258-1.046-.637-.259-.409-.289-.976-.289-1.385 0-.368.02-.966.309-1.414.209-.309.588-.638 1.126-.638.348 0 .766.15 1.075.598.11.17.11.19.11.368zm6.442 1.086c0-1.275-.997-2.33-2.202-2.33-1.245 0-2.211 1.085-2.211 2.33a2.223 2.223 0 0 0 2.201 2.242 2.22 2.22 0 0 0 2.212-2.242zm-2.202 1.993c-.428 0-.866-.21-1.136-.668-.249-.438-.249-1.046-.249-1.404 0-.389 0-.927.239-1.365.27-.458.738-.667 1.136-.667.439 0 .867.219 1.126.647.259.428.259 1.006.259 1.385 0 .358 0 .896-.219 1.334-.22.449-.658.738-1.156.738zm4.702-1.574c-.866 0-.866-.996-.866-1.225 0-.27.01-.588.159-.837.08-.12.309-.399.707-.399.867 0 .867.996.867 1.226 0 .268-.01.587-.159.836-.08.12-.309.399-.708.399zm-1.155.388c0-.04 0-.269.169-.468.389.279.797.309.986.309.927 0 1.614-.688 1.614-1.454 0-.37-.159-.738-.408-.967.358-.338.717-.388.896-.388.02 0 .07 0 .1.01-.11.04-.16.15-.16.269 0 .169.13.288.289.288.1 0 .289-.07.289-.298a.487.487 0 0 0-.508-.489c-.199 0-.637.06-1.056.469a1.659 1.659 0 0 0-1.056-.359c-.926 0-1.613.687-1.613 1.455 0 .438.219.816.468 1.025-.13.15-.309.479-.309.827 0 .31.13.688.438.887-.597.169-.916.597-.916.996 0 .717.986 1.265 2.201 1.265 1.176 0 2.212-.508 2.212-1.285 0-.349-.14-.857-.648-1.135-.528-.28-1.106-.28-1.713-.28-.249 0-.678 0-.747-.01-.319-.04-.528-.348-.528-.667zm1.434 3.148c-1.006 0-1.693-.508-1.693-1.036 0-.458.378-.827.817-.857h.588c.856 0 1.972 0 1.972.857 0 .538-.707 1.036-1.684 1.036zm4.404-2.35a.531.531 0 0 0-.528-.529.531.531 0 0 0-.528.528c0 .289.239.528.528.528.289 0 .528-.24.528-.528zM9.544-27.816c.01.319.22.319.399.319h.727c.16 0 .408 0 .408-.309 0-.298-.259-.298-.398-.298h-.449v-3.278c0-.309-.06-.408-.398-.408h-.727c-.16 0-.409 0-.409.309 0 .298.26.298.399.298h.448v2.122c0 .897-.807 1.016-1.125 1.016-.788 0-.788-.329-.788-.647v-2.69c0-.309-.06-.408-.398-.408h-.727c-.16 0-.408 0-.408.309 0 .298.258.298.398.298h.448v2.55c0 .957.687 1.196 1.415 1.196.408 0 .816-.1 1.185-.379zm4.742-3.566c0-.309-.06-.408-.398-.408h-1.415c-.15 0-.408 0-.408.299 0 .308.259.308.408.308H13.6v3.079h-1.205c-.16 0-.409 0-.409.308 0 .299.26.299.409.299h2.938c.15 0 .409 0 .409-.299 0-.308-.26-.308-.409-.308h-1.046v-3.278zm0-1.713c0-.28-.219-.498-.498-.498s-.498.219-.498.498.22.498.498.498c.279 0 .498-.22.498-.498zM32.636-34.43c-.05-.13-.07-.2-.229-.2s-.189.06-.239.2l-2.062 5.957c-.179.508-.577.657-1.115.667v.309c.229-.01.657-.03 1.016-.03.309 0 .827.02 1.145.03v-.309c-.498 0-.747-.249-.747-.508 0-.03.01-.13.02-.15l.458-1.304h2.46l.529 1.524c.01.04.03.1.03.14 0 .298-.558.298-.827.298v.309c.358-.03 1.056-.03 1.434-.03.428 0 .887.01 1.305.03v-.309h-.18c-.597 0-.736-.07-.846-.398l-2.152-6.226zm-.527 1.116l1.125 3.237h-2.241l1.116-3.237zM44.496-31.64c0-.16 0-.26-.11-.26-.12 0-.439.429-.538.677-.269-.428-.657-.677-1.086-.677-.916 0-1.773.946-1.773 2.251 0 1.345.877 2.262 1.773 2.262.459 0 .797-.27 1.046-.608v1.673c0 .449-.11.449-.777.449v.309c.339-.01.857-.03 1.116-.03.269 0 .777.02 1.126.03v-.31c-.668 0-.777 0-.777-.448v-5.319zm-.688 2.978c0 .13 0 .318-.319.697-.1.11-.358.358-.707.358-.488 0-.737-.537-.777-.637-.18-.438-.19-.897-.19-1.395 0-.448 0-.926.17-1.354.1-.25.359-.688.797-.688.349 0 .678.25.917.668.11.189.11.199.11.388v1.963zm5.38.617c.18.379.598.658 1.036.658.548 0 .687-.508.687-1.315v-.22c-.01-.099-.09-.099-.13-.099-.119 0-.119.06-.119.239v.11c0 .826-.17 1.065-.418 1.065-.448 0-.488-.707-.488-.986v-2.739c0-.13 0-.458-.34-.458-.348 0-.348.319-.348.458v2.7c0 .288 0 .308-.04.388-.1.239-.348.637-.846.637-.757 0-.907-.946-.907-1.593 0-.518.05-.877.12-1.365.02-.11.03-.23.03-.279 0-.568-.458-1.056-1.036-1.056-.907 0-.957 1.295-.957 1.455 0 .109 0 .179.13.179.11 0 .12-.07.12-.16.01-.229.05-1.255.687-1.255.328 0 .379.399.379.678 0 .05 0 .13-.05.508-.03.179-.11.856-.11 1.265 0 .289.02.816.349 1.275.308.438.846.568 1.215.568.458 0 .817-.22 1.036-.658zm4.008-5.588c0-.259-.2-.458-.458-.458-.259 0-.458.199-.458.458s.199.458.458.458.458-.2.458-.458zm1.036 4.791c0-.11 0-.179-.13-.179-.109 0-.119.07-.119.16-.02.517-.15 1.254-.677 1.254-.369 0-.379-.468-.379-.677 0-.259.19-1.673.25-2.042.049-.398.049-.448.049-.518 0-.588-.468-1.056-1.036-1.056-.887 0-.946 1.255-.946 1.455 0 .109 0 .179.129.179.11 0 .12-.07.12-.16.02-.518.15-1.255.677-1.255.369 0 .379.468.379.678 0 .259-.19 1.673-.25 2.042-.05.398-.05.448-.05.518 0 .587.469 1.056 1.037 1.056.886 0 .946-1.256.946-1.455zm3.878-2.46c-.458.01-.488.338-.488.458 0 .289.23.458.458.458a.45.45 0 0 0 .459-.478c0-.568-.588-1.036-1.375-1.036-1.126 0-2.062.996-2.062 2.251 0 1.245.907 2.262 2.082 2.262 1.405 0 1.992-1.027 1.992-1.186 0-.06-.08-.12-.13-.12-.06 0-.08.04-.109.08-.528 1.006-1.603 1.006-1.743 1.006-.608 0-.916-.478-.996-.637-.25-.418-.27-.956-.27-1.395 0-.518.04-1.006.28-1.424.13-.22.448-.618.976-.618.07 0 .598 0 .926.379zm2.73-3.108l-1.464.11v.308c.697 0 .777.07.777.558v5.598c0 .12 0 .449.339.449.348 0 .348-.319.348-.449v-1.942c.708.08 1.345.428 1.375 1.026.06 1.235.956 1.365 1.185 1.365.648 0 .797-.747.797-1.415 0-.15 0-.219-.12-.219-.129 0-.129.05-.129.229-.01.917-.219 1.185-.528 1.185-.498 0-.518-.797-.518-1.135-.02-1.046-1.444-1.205-1.783-1.245.28-.2.498-.508.698-.787.328-.468.627-.907 1.145-.907.21 0 .349.11.359.12-.25.04-.439.189-.439.468 0 .309.24.458.459.458.189 0 .458-.12.458-.468a.821.821 0 0 0-.837-.797c-.618 0-.956.488-1.355 1.056-.268.389-.468.628-.767.757v-4.323zM69.692-34.41l-1.464.11v.308c.776 0 .776.08.776.728v2.868c0 1.176 0 1.574.419 2.242.22.328.677.767 1.305.767.946 0 1.783-.967 1.783-2.252 0-1.345-.876-2.26-1.773-2.26-.458 0-.797.268-1.046.607v-3.118zm0 3.785c0-.13 0-.319.319-.697.1-.11.358-.359.707-.359.488 0 .737.538.777.638.18.438.19.896.19 1.394 0 .449 0 .927-.17 1.355-.1.25-.359.687-.797.687-.299 0-1.026-.288-1.026-1.912v-1.106zm5.53.14c0-.28.218-1.196 1.045-1.196.06 0 .368 0 .648.14a.454.454 0 0 0-.34.448c0 .309.24.458.459.458.19 0 .458-.12.458-.468 0-.568-.667-.797-1.225-.797-.488 0-.876.23-1.116.757-.259-.597-.776-.757-1.085-.757-.548 0-.688.508-.688 1.315v.22c.01.099.09.099.13.099.12 0 .12-.06.12-.24v-.109c0-.827.169-1.066.418-1.066.448 0 .488.707.488.987v2.848c0 .13 0 .459.338.459.35 0 .35-.319.35-.459v-2.64zM82.054-29.649c0-1.265-.946-2.25-2.062-2.25-1.156 0-2.072 1.015-2.072 2.25 0 1.295.966 2.262 2.062 2.262 1.135 0 2.072-.987 2.072-2.262zm-2.062 2.042c-.488 0-.837-.358-1.016-.707-.19-.378-.23-.827-.23-1.325 0-.438.02-.926.23-1.345.2-.378.568-.697 1.006-.697.488 0 .837.359 1.016.707.19.38.23.827.23 1.325 0 .439-.02.927-.23 1.345-.2.379-.568.697-1.006.697zm8.145 0c-.439 0-1.026-.308-1.026-1.573v-2.152c0-.13 0-.458-.339-.458-.349 0-.349.319-.349.458v2.122c0 .179.01.458.13.806-.11.578-.349.797-.677.797-1.116 0-1.116-1.384-1.116-1.603 0-.459.06-.907.12-1.355.02-.11.03-.23.03-.279 0-.568-.459-1.056-1.036-1.056-.907 0-.957 1.295-.957 1.455 0 .109 0 .179.13.179.11 0 .12-.07.12-.16.01-.229.049-1.255.686-1.255.33 0 .38.399.38.678 0 .05 0 .13-.05.508-.03.199-.11.866-.11 1.255 0 1.494 1.026 1.853 1.773 1.853.21 0 .638-.01.877-.678.378.588 1.055.678 1.394.678 1.156 0 1.265-1.455 1.265-2.62 0-.538 0-1.903-.687-1.903-.22 0-.419.2-.419.429 0 .199.13.298.21.348.647.488.647 1.026.647 1.325 0 1.704-.398 2.201-.996 2.201zm3.818-2.739c0-.368.329-1.335 1.285-1.335.787 0 .787 1.146.787 1.425 0 .09 0 .627-.12 1.534-.01.09-.03.229-.03.279 0 .568.459 1.056 1.036 1.056.907 0 .957-1.295.957-1.455 0-.11 0-.179-.13-.179-.11 0-.12.07-.12.16-.01.228-.05 1.254-.687 1.254-.328 0-.378-.398-.378-.677 0-.13.02-.279.05-.508.11-.847.11-1.394.11-1.434 0-.27 0-1.674-1.445-1.674-.647 0-1.076.319-1.355.857-.239-.717-.837-.857-1.116-.857-.548 0-.687.508-.687 1.315v.22c.01.099.09.099.13.099.12 0 .12-.06.12-.24v-.109c0-.827.169-1.066.418-1.066.448 0 .488.707.488.987v2.848c0 .13 0 .459.338.459.349 0 .349-.319.349-.459v-2.5zM101.813-31.481h1.016v-.31h-1.035l-.1-1.683c-.01-.1-.01-.249-.01-.348 0-.359.209-.478.368-.478.22 0 .439.1.528.169-.189.03-.418.16-.418.468s.239.458.458.458c.19 0 .459-.12.459-.468 0-.518-.519-.847-1.037-.847-.368 0-.637.21-.797.439-.209.318-.209.876-.209 1.006 0 .358.04.916.07 1.285h-.837v.309h.857l.25 3.984c.02.309.029.658.029.966 0 .22 0 .857-.399.857a.87.87 0 0 1-.517-.17c.209-.03.428-.169.428-.468 0-.308-.24-.458-.459-.458-.189 0-.458.12-.458.468 0 .498.499.847 1.006.847 1.027 0 1.027-1.743 1.027-2.152 0-.219-.01-.517-.02-.737l-.2-3.137zm6.25 1.832c0-1.265-.947-2.25-2.063-2.25-1.155 0-2.072 1.015-2.072 2.25 0 1.295.967 2.262 2.063 2.262 1.135 0 2.071-.987 2.071-2.262zM106-27.607c-.488 0-.836-.358-1.016-.707-.189-.378-.229-.827-.229-1.325 0-.438.02-.926.23-1.345.199-.378.567-.697 1.005-.697.489 0 .837.359 1.017.707.189.38.228.827.228 1.325 0 .439-.02.927-.228 1.345-.2.379-.568.697-1.007.697zm5.635-3.048c0-.647.27-1.026.668-1.026.04 0 .308 0 .547.14a.437.437 0 0 0-.368.448c0 .309.239.458.458.458.19 0 .458-.12.458-.468 0-.538-.607-.797-1.085-.797-.519 0-.768.399-.877.767a1.43 1.43 0 0 0-1.255-.767c-.887 0-1.255.936-1.255 1.474 0 .09 0 .16.13.16.109 0 .109-.06.119-.16.06-.856.538-1.255.986-1.255.578 0 .787.588.787 1.246v1.802c0 .648-.27 1.026-.668 1.026-.04 0-.308 0-.547-.139a.436.436 0 0 0 .368-.448c0-.309-.24-.459-.458-.459-.19 0-.458.12-.458.469 0 .538.607.797 1.085.797.519 0 .768-.399.877-.767.299.557.837.767 1.255.767.887 0 1.255-.937 1.255-1.475 0-.09 0-.159-.13-.159-.109 0-.109.06-.119.16-.06.856-.538 1.254-.986 1.254-.578 0-.787-.587-.787-1.245v-1.803zM120.244-33.633c0-.259-.199-.458-.458-.458s-.458.199-.458.458.199.458.458.458.458-.2.458-.458zm-.687 6.644c0 .737-.309 1.315-.857 1.315-.179 0-.348-.06-.418-.09.14-.04.339-.169.339-.448 0-.309-.24-.458-.459-.458-.189 0-.458.12-.458.468 0 .418.429.747 1.016.747.688 0 1.524-.508 1.524-1.544v-3.656c0-.886-.687-1.245-1.165-1.245-1.036 0-1.215 1.455-1.215 1.524 0 .11.09.11.129.11.1 0 .11-.04.13-.18.169-.966.577-1.235.936-1.235.438 0 .498.618.498.987v3.705zm5.382-1.056c.18.379.598.658 1.036.658.548 0 .688-.508.688-1.315v-.22c-.01-.099-.09-.099-.13-.099-.12 0-.12.06-.12.239v.11c0 .826-.169 1.065-.418 1.065-.448 0-.488-.707-.488-.986v-2.739c0-.13 0-.458-.339-.458-.348 0-.348.319-.348.458v2.7c0 .288 0 .308-.04.388-.1.239-.349.637-.847.637-.757 0-.906-.946-.906-1.593 0-.518.05-.877.12-1.365.02-.11.03-.23.03-.279 0-.568-.459-1.056-1.037-1.056-.906 0-.956 1.295-.956 1.455 0 .109 0 .179.13.179.109 0 .119-.07.119-.16.01-.229.05-1.255.687-1.255.329 0 .379.399.379.678 0 .05 0 .13-.05.508-.03.179-.11.856-.11 1.265 0 .289.02.816.349 1.275.309.438.847.568 1.215.568.459 0 .817-.22 1.036-.658zm3.899-2.291c0-.388.339-1.345 1.285-1.345.588 0 .797.638.797 1.355v2.48c0 .13 0 .459.339.459.348 0 .348-.319.348-.459v-2.44c0-.24 0-.26.08-.458.199-.528.568-.937 1.205-.937.787 0 .787 1.146.787 1.425 0 .09 0 .627-.119 1.534-.01.09-.03.229-.03.279 0 .568.458 1.056 1.036 1.056.906 0 .956-1.295.956-1.455 0-.11 0-.179-.13-.179-.109 0-.119.07-.119.16-.01.228-.05 1.254-.688 1.254-.328 0-.378-.398-.378-.677 0-.13.02-.279.05-.508.109-.847.109-1.394.109-1.434 0-.27 0-1.674-1.444-1.674-.667 0-1.116.339-1.404.956-.229-.747-.857-.956-1.365-.956-.727 0-1.146.429-1.355.867a1.19 1.19 0 0 0-1.116-.867c-.547 0-.687.508-.687 1.315v.22c.01.099.09.099.13.099.12 0 .12-.06.12-.24v-.109c0-.827.169-1.066.418-1.066.448 0 .488.707.488.987v2.848c0 .13 0 .459.338.459.349 0 .349-.319.349-.459v-2.49zm8.168 4.054c0 .35-.03.409-.577.409v.309c.298-.02.657-.03.956-.03.229 0 .777.02 1.086.03v-.31c-.668 0-.777 0-.777-.448v-1.673c.129.19.508.608 1.046.608.926 0 1.783-.947 1.783-2.252 0-1.335-.877-2.26-1.783-2.26-.509 0-.897.358-1.126.736a1.205 1.205 0 0 0-1.076-.737c-.548 0-.687.508-.687 1.315v.22c.01.099.09.099.129.099.12 0 .12-.06.12-.24v-.109c0-.827.169-1.066.418-1.066.448 0 .488.707.488.987v4.412zm.688-4.343c0-.15 0-.309.328-.687.19-.22.439-.369.698-.369.438 0 .697.439.777.628.179.408.199.817.199 1.404 0 .409 0 .917-.16 1.335-.139.349-.418.707-.816.707-.359 0-.628-.278-.688-.338-.229-.27-.338-.469-.338-.717v-1.963zm6.74-.607c-.02 0-.378.04-.378.388 0 .21.159.369.368.369.21 0 .379-.13.379-.389 0-.548-.548-1.036-1.385-1.036-1.016 0-1.354.608-1.354 1.166 0 .946.985 1.145 1.314 1.205.578.11.717.14 1.006.369.12.099.289.318.289.617 0 .936-1.066.936-1.225.936-.518 0-1.016-.169-1.265-.507.428 0 .518-.25.518-.459a.45.45 0 0 0-.458-.458c-.15 0-.459.1-.459.478 0 .678.708 1.166 1.664 1.166 1.285 0 1.634-.757 1.634-1.345 0-.458-.259-.757-.369-.867-.359-.358-.727-.428-1.195-.518-.409-.08-1.046-.199-1.046-.807 0-.637.577-.757.946-.757.379 0 .787.13 1.016.449zM154.356-29.649c0-1.265-.946-2.25-2.062-2.25-1.155 0-2.072 1.015-2.072 2.25 0 1.295.966 2.262 2.062 2.262 1.136 0 2.072-.987 2.072-2.262zm-2.062 2.042c-.488 0-.837-.358-1.016-.707-.189-.378-.229-.827-.229-1.325 0-.438.02-.926.229-1.345.199-.378.568-.697 1.006-.697.488 0 .837.359 1.016.707.19.38.229.827.229 1.325 0 .439-.02.927-.229 1.345-.199.379-.568.697-1.006.697zm7.179-2.46c0-.448 0-1.843-.687-1.843-.22 0-.419.2-.419.429 0 .199.14.308.189.348.668.488.668 1.036.668 1.255 0 .459-.08 2.271-1.126 2.271-1.036 0-1.036-1.374-1.036-1.603 0-.459.06-.907.12-1.355.02-.11.03-.23.03-.279 0-.568-.459-1.056-1.036-1.056-.907 0-.957 1.295-.957 1.455 0 .109 0 .179.13.179.109 0 .119-.07.119-.16.01-.229.05-1.255.688-1.255.328 0 .378.399.378.678 0 .05 0 .13-.05.508-.029.179-.109.856-.109 1.265 0 1.544 1.046 1.843 1.693 1.843 1.006 0 1.405-1.146 1.405-2.68zm2.62.27c1.275 0 1.983-.31 1.983-1.047 0-.637-.608-1.056-1.285-1.056-1.056 0-2.053.817-2.053 2.022 0 1.275.847 2.49 2.092 2.49 1.385 0 1.983-1.016 1.983-1.185 0-.06-.08-.12-.13-.12-.06 0-.08.04-.109.08-.528 1.006-1.604 1.006-1.734 1.006-.677 0-.986-.677-1.026-.747-.219-.488-.239-.936-.249-1.444h.528zm-.528-.22c.01-.359.05-.817.299-1.166.289-.388.658-.498.937-.498.517 0 .936.369.936.837 0 .438-.309.827-1.733.827h-.439zm5.46-.468c0-.28.219-1.196 1.046-1.196.059 0 .368 0 .647.14a.454.454 0 0 0-.339.448c0 .309.239.458.458.458.19 0 .459-.12.459-.468 0-.568-.668-.797-1.225-.797-.489 0-.877.23-1.116.757-.259-.597-.777-.757-1.086-.757-.548 0-.687.508-.687 1.315v.22c.01.099.09.099.129.099.12 0 .12-.06.12-.24v-.109c0-.827.169-1.066.418-1.066.448 0 .488.707.488.987v2.848c0 .13 0 .459.339.459.349 0 .349-.319.349-.459v-2.64zM177.673-31.242c0-.14 0-.459-.349-.459-.249 0-.349.21-.349.409-.209-.309-.578-.608-1.036-.608-.926 0-1.783.946-1.783 2.251 0 1.335.877 2.262 1.783 2.262.508 0 .897-.359 1.126-.737.229.517.707.737 1.076.737.548 0 .687-.508.687-1.315v-.22c-.01-.099-.09-.099-.129-.099-.12 0-.12.06-.12.239v.11c0 .826-.169 1.065-.419 1.065-.448 0-.487-.707-.487-.986v-2.65zm-.688 2.58c0 .15 0 .308-.329.687-.189.219-.438.368-.697.368-.438 0-.697-.438-.777-.627-.179-.409-.199-.817-.199-1.405 0-.408 0-.916.159-1.335.14-.348.419-.707.817-.707.359 0 .628.28.687.339.229.27.339.468.339.717v1.963zM184.324-34.41l-1.464.11v.308c.438 0 .717 0 .767.31.009.069.009.089.009.418v4.741c0 .538.479 1.136 1.156 1.136.548 0 .678-.518.678-1.305v-.23c-.01-.099-.09-.099-.13-.099-.12 0-.12.06-.12.239v.14c0 .826-.179 1.035-.408 1.035-.448 0-.488-.707-.488-.986v-5.817zm5.527 3.168c0-.14 0-.459-.349-.459-.249 0-.349.21-.349.409-.209-.309-.577-.608-1.036-.608-.926 0-1.783.946-1.783 2.251 0 1.335.877 2.262 1.783 2.262.509 0 .897-.359 1.126-.737.229.517.707.737 1.076.737.548 0 .687-.508.687-1.315v-.22c-.01-.099-.09-.099-.129-.099-.12 0-.12.06-.12.239v.11c0 .826-.169 1.065-.418 1.065-.448 0-.488-.707-.488-.986v-2.65zm-.688 2.58c0 .15 0 .308-.328.687-.189.219-.439.368-.698.368-.438 0-.697-.438-.776-.627-.18-.409-.2-.817-.2-1.405 0-.408 0-.916.16-1.335.139-.348.418-.707.816-.707.359 0 .628.28.688.339.229.27.338.468.338.717v1.963zm3.384.358c.289-.468.627-.846 1.016-1.275.249-.289.558-.647.717-.866.598-.778.737-1.315.737-1.365 0-.09-.089-.09-.119-.09-.09 0-.11.04-.14.14-.169.488-.368.607-.568.607-.159 0-.298-.04-.647-.378-.289-.28-.508-.369-.717-.369-.608 0-.947.638-.947 1.096 0 .08.01.15.13.15.099 0 .109-.06.12-.13.069-.389.557-.429.707-.429.219 0 .468.08.687.15.399.13.558.13.648.13.089 0 .109 0 .169-.01-.239.358-.379.547-.996 1.235l-.707.846c-.588.777-.748 1.335-.748 1.385 0 .09.09.09.12.09.09 0 .109-.04.129-.11.12-.309.339-.637.698-.637.169 0 .299.05.657.378.239.239.449.369.717.369.827 0 1.216-.897 1.216-1.465 0-.08 0-.169-.13-.169-.099 0-.109.06-.119.16-.07.567-.588.786-.977.786-.149 0-.328-.03-.647-.13-.438-.149-.578-.149-.697-.149-.06 0-.209 0-.309.05zm6.848.458v.339c0 .936-.389 1.833-1.176 1.833-.338 0-.687-.15-.866-.399.428-.01.508-.288.508-.458 0-.308-.239-.458-.458-.458-.19 0-.459.12-.459.468 0 .598.568 1.066 1.285 1.066 1.007 0 1.853-.886 1.853-2.062v-3.815c0-.13 0-.458-.339-.458-.348 0-.348.319-.348.458v2.83c0 .218-.08.427-.259.617-.1.1-.269.278-.628.278-.757 0-.906-.946-.906-1.593 0-.518.049-.877.119-1.365.02-.11.03-.23.03-.279 0-.568-.458-1.056-1.036-1.056-.906 0-.956 1.295-.956 1.455 0 .109 0 .179.129.179.11 0 .12-.07.12-.16.01-.229.05-1.255.687-1.255.329 0 .379.399.379.678 0 .05 0 .13-.05.508-.03.179-.109.856-.109 1.265 0 .289.019.816.348 1.275.309.438.847.568 1.215.568.478 0 .728-.22.917-.459zM207.479-34.3v.308c.697 0 .777.07.777.558v2.142c-.13-.19-.509-.608-1.046-.608-.927 0-1.783.946-1.783 2.251 0 1.335.876 2.262 1.783 2.262.508 0 .896-.359 1.125-.737.229.517.707.737 1.076.737.548 0 .687-.508.687-1.315v-.22c-.01-.099-.089-.099-.129-.099-.12 0-.12.06-.12.239v.11c0 .826-.169 1.065-.418 1.065-.448 0-.488-.707-.488-.986v-5.817l-1.464.11zm.777 5.638c0 .15 0 .308-.329.687-.189.219-.438.368-.697.368-.439 0-.698-.438-.777-.627-.18-.409-.2-.817-.2-1.405 0-.408 0-.916.16-1.335.139-.348.418-.707.817-.707.358 0 .627.28.687.339.229.27.339.468.339.717v1.963zm6.84-.987c0-1.265-.946-2.25-2.062-2.25-1.156 0-2.072 1.015-2.072 2.25 0 1.295.966 2.262 2.062 2.262 1.135 0 2.072-.987 2.072-2.262zm-2.062 2.042c-.488 0-.837-.358-1.016-.707-.189-.378-.229-.827-.229-1.325 0-.438.02-.926.229-1.345.199-.378.567-.697 1.006-.697.488 0 .836.359 1.016.707.189.38.229.827.229 1.325 0 .439-.02.927-.229 1.345-.2.379-.568.697-1.006.697zM219.445-31.242c0-.14 0-.459-.348-.459-.239 0-.349.2-.349.389-.259-.339-.598-.588-1.036-.588-.906 0-1.773.907-1.773 2.201 0 1.295.867 2.202 1.773 2.202.398 0 .747-.209 1.046-.588v1.166c0 .578-.279 1.245-1.126 1.245-.298 0-.627-.03-.846-.1.02-.01.299-.11.299-.438 0-.309-.24-.458-.459-.458-.189 0-.458.12-.458.468 0 .687.927.747 1.484.747.977 0 1.793-.508 1.793-1.464v-4.323zm-.687 2.5c0 .13 0 .309-.319.677-.089.09-.348.349-.707.349-.448 0-.707-.448-.797-.658-.159-.408-.169-.856-.169-1.325 0-.408 0-.866.159-1.275.12-.328.399-.707.807-.707.388 0 .658.309.687.339.249.279.339.458.339.687v1.913zm3.647.717c0-.289-.24-.528-.529-.528a.531.531 0 0 0-.527.528c0 .289.239.528.527.528.289 0 .529-.239.529-.528zM8.946-18.082c-.229-.04-.428-.07-.677-.12-.289-.04-.966-.16-.966-.548 0-.259.319-.567 1.265-.567.827 0 .966.298.996.557.01.17.03.34.339.34.348 0 .348-.21.348-.41v-.686c0-.16 0-.409-.299-.409-.239 0-.278.14-.298.21-.439-.21-.877-.21-1.066-.21-1.664 0-1.893.817-1.893 1.175 0 .917 1.046 1.086 1.963 1.226.488.08 1.285.209 1.285.737 0 .368-.37.697-1.276.697-.468 0-1.026-.11-1.275-.886-.05-.18-.09-.29-.348-.29-.349 0-.349.21-.349.409v.966c0 .16 0 .409.299.409.09 0 .249-.01.369-.379.488.359 1.016.379 1.295.379 1.573 0 1.892-.827 1.892-1.305 0-1.036-1.285-1.245-1.604-1.295zm5.22-3.138c0-.309-.059-.408-.398-.408h-1.573c-.16 0-.409 0-.409.308 0 .3.26.3.399.3h1.295v4.87h-1.285c-.16 0-.409 0-.409.31 0 .298.26.298.399.298h3.277c.15 0 .398 0 .398-.299 0-.309-.239-.309-.398-.309h-1.295v-5.07zM33.513-22.445c-.03-.19-.04-.23-.199-.23-.15 0-.19.04-.27.2l-3.047 5.947c-.22.418-.568.677-1.236.677-.02.1-.03.21-.05.309.21-.01.618-.03 1.017-.03.2 0 .857.02 1.135.03l.06-.299c-.09 0-.667-.04-.667-.458 0-.08 0-.1.13-.359.199-.388.438-.876.597-1.155h2.46l.27 1.484c.01.03.02.12.02.15 0 .328-.638.328-.887.328-.01.08-.04.22-.05.309.349-.03 1.056-.03 1.434-.03.429 0 .887.01 1.305.03.01-.09.04-.23.05-.309h-.16c-.717 0-.736-.1-.796-.438l-1.116-6.156zm-.707 1.085l.578 3.238h-2.242l1.664-3.238zM44.389-19.945c-.17 0-.19 0-.2.01-.02 0-.03 0-.099.12l-.448.786c-.22-.597-.628-.916-1.206-.916-1.285 0-2.59 1.185-2.59 2.63 0 1.195.857 1.883 1.784 1.883.846 0 1.384-.648 1.424-.698-.06.399-.309 1.903-.329 1.983-.09.229-.298.229-.806.229-.01.08-.04.219-.05.308.338-.01.856-.03 1.116-.03.258 0 .787.02 1.115.03l.06-.308c-.628 0-.727-.03-.727-.25 0-.069.02-.159.03-.238l.926-5.539zm-1.175 3.058c-.03.17-.03.19-.17.399-.478.687-1.026.836-1.364.836-.688 0-1.026-.777-1.026-1.504 0-1.384.946-2.54 1.832-2.54.887 0 .996 1.016.996 1.186 0 .05 0 .07-.03.219l-.238 1.404zm6.513-3.058l-1.285.1c-.02 0-.17.01-.18.02-.03.02-.07.269-.07.299.569 0 .708.05.708.318 0 .07-.06.409-.09.618l-.209 1.255c-.06.309-.14.827-.568 1.265-.318.319-.627.418-.936.418-.727 0-.737-.378-.737-.568 0-.05.01-.239.02-.278l.578-3.447-1.285.1c-.02 0-.17.01-.18.02-.03.02-.07.269-.07.299.569 0 .708.05.708.318 0 .1-.22 1.395-.26 1.614-.059.379-.159.936-.159 1.126 0 .607.31 1.036 1.335 1.036.887 0 1.335-.748 1.395-.847l.01.01-.14.837 1.256-.1c.02 0 .169-.01.179-.02.03-.02.07-.27.07-.299-.588 0-.708-.05-.708-.319 0-.02 0-.09.03-.269l.588-3.506zm3.085-1.803c0-.229-.17-.458-.469-.458-.279 0-.597.239-.597.598 0 .288.209.458.468.458.309 0 .598-.29.598-.598zm-1.564 1.893c-.18.01-.19.03-.2.08 0 .03-.04.229-.04.249.538 0 .668.05.668.318 0 .01 0 .08-.03.26l-.448 2.669c-.06.378-.1.428-.837.428h-.01l-.05.309c.32-.01.857-.03 1.096-.03.369 0 .747.02 1.026.03l.06-.309c-.448 0-.647 0-.647-.239 0-.05 0-.07.03-.229l.607-3.626-1.225.09zm5.726.468c-.518.02-.568.428-.568.528 0 .17.1.388.408.388.25 0 .528-.189.528-.587 0-.648-.717-.947-1.374-.947-1.365 0-2.56 1.305-2.56 2.69 0 1.135.817 1.883 1.813 1.883 1.334 0 1.842-1.206 1.842-1.295 0-.08-.07-.1-.119-.1-.08 0-.09.02-.15.14-.328.677-.896 1.006-1.474 1.006-.488 0-1.105-.35-1.105-1.425 0-1.345.717-2.65 1.753-2.65.14 0 .717.02 1.006.369zM60.202-18.142c-.01-.02-.06-.12-.06-.13 0-.03.896-.687 1.006-.766.668-.469 1.106-.478 1.265-.488l.05-.31c-.299.03-.677.03-.697.03-.27 0-.887-.02-1.106-.03l-.06.3c.14 0 .26.09.26.219 0 .199-.19.338-.479.567l-1.414 1.066.796-4.771-1.255.1c-.02 0-.169.01-.179.02-.03.02-.07.268-.07.298.568 0 .708.05.708.319 0 .01 0 .08-.03.26l-.867 5.179c-.06.378-.1.428-.837.428h-.01l-.05.309c.33-.01.857-.03 1.096-.03.22 0 .817.02 1.076.03l.06-.309c-.498 0-.727 0-.727-.249 0-.01.17-1.066.199-1.225l.727-.548c.15.25.498.897.737 1.355.1.17.15.269.15.388 0 .2-.14.28-.399.28l-.05.308c.27-.01.867-.03 1.076-.03.27 0 .588.01.857.03l.06-.309c-.468 0-.608-.06-.867-.528l-.966-1.763zM68.339-22.455l-1.255.1c-.02 0-.17.01-.18.02-.03.02-.07.268-.07.298.569 0 .708.05.708.319 0 .01 0 .08-.03.26l-.986 5.916c.23 0 .24-.01.279-.04.01-.02.06-.09.438-.588.2.389.578.738 1.196.738 1.315 0 2.61-1.196 2.61-2.63 0-1.166-.837-1.883-1.784-1.883-.727 0-1.245.429-1.444.628l.518-3.138zm-.588 3.725c.03-.179.03-.199.19-.378.288-.339.767-.618 1.274-.618.419 0 1.046.27 1.046 1.315 0 .17-.05 1.235-.468 1.903-.368.588-.926.856-1.385.856-.826 0-1.025-.797-1.025-.846 0-.04.01-.13.02-.17l.348-2.062zm5.486-.179l.169-1.036-1.216.09c-.179.01-.189.03-.198.08 0 .03-.04.229-.04.249.567 0 .707.05.707.318 0 .01 0 .08-.03.26l-.449 2.669c-.06.378-.099.428-.836.428h-.01l-.05.309c.399-.01.857-.03 1.146-.03.06 0 .936.01 1.255.03.02-.1.03-.21.05-.309h-.19c-.607 0-.727-.06-.727-.279 0-.14.319-1.902.369-2.101.17-.559.578-1.495 1.484-1.495v.01a.485.485 0 0 0-.269.448c0 .3.25.37.379.37.249 0 .488-.2.488-.499 0-.319-.27-.548-.658-.548-.637 0-1.126.528-1.365 1.046l-.01-.01zm6.75.837c0-1.106-.776-1.933-1.852-1.933-1.415 0-2.63 1.385-2.63 2.71 0 1.036.757 1.863 1.873 1.863 1.325 0 2.61-1.196 2.61-2.64zm-2.57 2.39c-.278 0-1.115-.1-1.115-1.294 0-.37.13-1.465.438-1.973.489-.797 1.186-.836 1.355-.836.319 0 1.126.149 1.126 1.265 0 .229-.08 1.305-.428 1.962-.31.568-.857.877-1.375.877zM86.333-18.889c.259-.508.588-.627.936-.637.02-.1.03-.21.05-.31-.219.02-.498.03-.717.03-.309 0-.757-.02-.917-.03l-.06.3c.03 0 .509.03.509.408 0 .02 0 .03-.01.04-.01.08-.01.1-.04.16-.01.03-.01.05-.04.089l-1.335 2.55-.508-2.7c-.01-.03-.04-.209-.04-.219 0-.318.429-.318.628-.318l.05-.31c-.27.01-.777.03-1.036.03-.06 0-.578-.01-.867-.03l-.06.31c.25 0 .488 0 .578.119.07.07.12.378.16.578l-1.256 2.41-.488-2.57c-.01-.03-.04-.199-.04-.219 0-.318.429-.318.628-.318l.05-.31c-.25.01-.917.03-1.076.03-.13 0-.618-.01-.916-.03l-.06.31c.597 0 .617.06.687.428l.648 3.427c.04.189.07.239.189.239.13 0 .169-.08.229-.2l1.474-2.819.538 2.79c.04.179.04.229.18.229.119 0 .159-.07.219-.19l1.713-3.267zm2.762-.07l.17-.986-1.425.11-.05.309c.568 0 .707.05.707.318 0 .09-.358 2.242-.408 2.54-.03.18-.09.518-.1.538-.07.28-.299.28-.817.28l-.05.308c.34-.01.867-.03 1.126-.03.26 0 .777.02 1.116.03l.05-.309c-.498 0-.727 0-.727-.249 0-.03.07-.408.1-.607.069-.439.139-.877.218-1.315.05-.33.14-.807.628-1.275.299-.27.677-.429 1.006-.429.388 0 .588.2.588.668 0 .15-.02.259-.11.836l-.339 1.993c-.06.378-.219.378-.836.378l-.05.309c.339-.01.867-.03 1.126-.03.258 0 .777.02 1.115.03l.05-.309c-.498 0-.727 0-.727-.249 0-.05.16-.996.19-1.155l.149-.887c.04-.259.1-.618.1-.787 0-.757-.489-1.016-1.176-1.016-.927 0-1.465.737-1.614.996l-.01-.01zM98.094-19.526h1.135l.05-.31h-1.165l.149-.896c.08-.478.13-.777.399-1.135.209-.26.487-.478.796-.478.09 0 .24.03.32.06a.51.51 0 0 0-.39.487c0 .16.09.369.39.369.238 0 .487-.17.487-.518 0-.418-.408-.618-.797-.618-.767 0-1.613.588-1.783 1.515-.08.438-.13.756-.199 1.215h-.787l-.05.309h.777l-.538 3.247c-.07.428-.189.428-.846.428l-.05.309c.398-.01.856-.03 1.146-.03.06 0 .936.01 1.255.03l.05-.309c-.27 0-.4 0-.579-.02-.169-.02-.338-.03-.338-.259 0-.03 0-.05.03-.189l.538-3.207zm5.684 1.454c0-1.106-.777-1.933-1.853-1.933-1.415 0-2.63 1.385-2.63 2.71 0 1.036.757 1.863 1.873 1.863 1.325 0 2.61-1.196 2.61-2.64zm-2.57 2.39c-.279 0-1.116-.1-1.116-1.294 0-.37.13-1.465.439-1.973.488-.797 1.185-.836 1.354-.836.319 0 1.126.149 1.126 1.265 0 .229-.08 1.305-.428 1.962-.31.568-.857.877-1.375.877zM106.087-17.634c-.05.06-.986 1.036-1.076 1.116-.259.269-.667.657-1.434.667-.01.08-.04.22-.05.309.28-.02.548-.03.827-.03.359 0 .827.02.946.03l.05-.299c-.07-.01-.239-.02-.239-.259 0-.16.12-.319.2-.398l.896-.927.588.976c.07.1.169.28.169.32 0 .099-.09.268-.398.278l-.05.309c.298-.01.856-.03 1.085-.03.26 0 .668.01.937.03l.06-.309c-.469 0-.678 0-.867-.259-.03-.06-.299-.498-.528-.876l-.538-.907 1.056-1.096c.528-.488 1.036-.537 1.315-.537.02-.1.03-.21.05-.31-.28.02-.548.03-.827.03-.359 0-.827-.02-.947-.03l-.05.3c.07.01.24.02.24.259 0 .209-.16.368-.439.637-.03.04-.448.468-.517.548l-.588-.976c-.09-.13-.09-.15-.09-.18 0-.109.11-.259.398-.278.01-.08.04-.22.05-.31-.259.01-.916.03-1.076.03-.318 0-.707-.02-.946-.03l-.05.31c.568 0 .718.02.937.378l.906 1.514zM115.1-21.748c0-.279-.208-.458-.467-.458a.62.62 0 0 0-.598.598c0 .239.19.458.468.458a.62.62 0 0 0 .598-.598zm-1.623 1.903c-.01 0-.17.01-.179.02-.03.02-.07.279-.07.299.598 0 .787.04.787.328 0 .08-.02.17-.03.25l-.657 3.914c-.1.588-.369 1.315-.957 1.315-.05 0-.288 0-.517-.13a.518.518 0 0 0 .448-.518c0-.189-.13-.388-.409-.388-.329 0-.528.269-.528.548 0 .428.449.707 1.026.707.757 0 1.455-.657 1.604-1.534l.817-4.91-1.335.099zm6.84-.1l-1.285.1c-.02 0-.17.01-.18.02-.03.02-.07.269-.07.299.569 0 .708.05.708.318 0 .07-.06.409-.09.618l-.209 1.255c-.06.309-.14.827-.568 1.265-.318.319-.627.418-.936.418-.727 0-.737-.378-.737-.568 0-.05.01-.239.02-.278l.578-3.447-1.285.1c-.02 0-.17.01-.18.02-.03.02-.07.269-.07.299.569 0 .708.05.708.318 0 .1-.22 1.395-.26 1.614-.059.379-.159.936-.159 1.126 0 .607.31 1.036 1.335 1.036.887 0 1.335-.748 1.395-.847l.01.01-.14.837 1.255-.1c.02 0 .17-.01.18-.02.03-.02.07-.27.07-.299-.588 0-.708-.05-.708-.319 0-.02 0-.09.03-.269l.588-3.506zm8.075 1.385c.03-.18.03-.21.03-.369 0-.757-.488-1.016-1.175-1.016-.787 0-1.325.528-1.584.966-.04-.866-.747-.966-1.186-.966-.926 0-1.464.737-1.613.996l-.01-.01.169-.986-1.225.1c-.02 0-.17.01-.18.02-.03.02-.07.269-.07.299.569 0 .708.05.708.318 0 .01 0 .08-.03.26l-.448 2.669c-.06.378-.1.428-.837.428h-.01l-.05.309c.34-.01.867-.03 1.126-.03.25 0 .787.02 1.106.03l.06-.309c-.499 0-.728 0-.728-.249 0-.03.07-.408.1-.607.07-.439.14-.877.22-1.315.049-.33.139-.807.627-1.275.299-.27.677-.429 1.006-.429.388 0 .588.2.588.668 0 .15-.02.259-.11.836l-.339 1.993c-.06.378-.22.378-.827.378h-.01l-.05.309c.34-.01.867-.03 1.126-.03.25 0 .787.02 1.106.03l.06-.309c-.498 0-.727 0-.727-.249 0-.03.07-.408.1-.607.069-.439.139-.877.218-1.315.05-.33.14-.807.628-1.275.299-.27.677-.429 1.006-.429.388 0 .587.2.587.668 0 .15-.02.259-.109.836l-.339 1.993c-.06.378-.219.378-.826.378h-.01l-.05.309c.339-.01.866-.03 1.126-.03.248 0 .786.02 1.105.03l.06-.309c-.498 0-.727 0-.727-.249 0-.04.01-.1.02-.15l.388-2.31zm2.724 4.642c-.628 0-.728-.03-.728-.25 0-.099.27-1.643.309-1.882.11.18.439.618 1.136.618 1.295 0 2.61-1.176 2.61-2.64 0-1.136-.787-1.873-1.764-1.873-.806 0-1.364.528-1.474.648l.11-.648-1.454.11-.05.309c.567 0 .717.04.717.278 0 .07-.02.16-.03.24l-.787 4.691c-.07.399-.199.399-.837.399l-.05.308c.339-.01.857-.03 1.116-.03.269 0 .777.02 1.126.03l.05-.308zm.059-4.97c.429-.609 1.017-.808 1.425-.808.598 0 1.026.598 1.026 1.494 0 1.415-.966 2.55-1.833 2.55-.558 0-.896-.388-1.026-.836l.408-2.4zm7.269-.868c.02-.09.02-.11.02-.14 0-.059-.03-.109-.11-.109-.04 0-.06 0-.209.13-.119.09-.129.09-.199.15-.329-.28-.767-.28-.897-.28-1.424 0-1.793.897-1.793 1.375 0 .339.16.568.359.737.269.23.568.29 1.036.379.438.09 1.036.209 1.036.816 0 .34-.249 1.046-1.305 1.046-.488 0-1.076-.17-1.136-1.374-.01-.16-.01-.21-.129-.21-.1 0-.11.03-.14.21l-.229 1.335c-.02.09-.02.109-.02.149 0 .07.04.11.11.11.05 0 .06-.01.269-.21.059-.05.199-.18.249-.229.259.339.637.439 1.026.439 1.454 0 1.833-1.056 1.833-1.574 0-.379-.16-.628-.339-.797-.289-.299-.548-.349-1.086-.448-.448-.09-1.006-.2-1.006-.698 0-.01 0-.866 1.265-.866.19 0 .977 0 .977.906 0 .13-.02.26-.02.289 0 .09.089.1.119.1.11 0 .12-.06.15-.23l.169-1.006zM146.721-18.072c0-1.106-.778-1.933-1.853-1.933-1.415 0-2.63 1.385-2.63 2.71 0 1.036.757 1.863 1.873 1.863 1.325 0 2.61-1.196 2.61-2.64zm-2.57 2.39c-.279 0-1.116-.1-1.116-1.294 0-.37.129-1.465.438-1.973.488-.797 1.186-.836 1.355-.836.319 0 1.126.149 1.126 1.265 0 .229-.08 1.305-.429 1.962-.309.568-.857.877-1.374.877zM151.043-18.87c.12-.218.369-.646 1.027-.656l.049-.31c-.229.02-.518.03-.747.03-.259 0-.717-.02-.856-.03l-.06.3c.03 0 .408.02.408.368 0 .13-.04.2-.119.339l-1.425 2.51-.657-2.76c0-.02-.02-.129-.02-.149 0-.298.428-.298.608-.298.02-.1.029-.21.049-.31-.288.01-.866.03-1.095.03-.319 0-.708-.02-.947-.03l-.06.31c.588 0 .668.04.748.398l.816 3.476c.04.15.05.22.19.22.099 0 .159-.04.249-.2l1.842-3.237zM155.594-17.843c.239 0 .259 0 .289-.19.03-.218.03-.378.03-.438 0-1.175-.787-1.534-1.504-1.534-1.345 0-2.471 1.345-2.471 2.65 0 1.116.817 1.923 1.863 1.923 1.225 0 1.853-1.136 1.853-1.305 0-.04-.02-.11-.11-.11-.08 0-.099.04-.149.14-.478.916-1.265 1.026-1.534 1.026-.458 0-1.126-.29-1.126-1.365 0-.3.06-.648.09-.797h2.769zm-2.729-.21c.348-1.583 1.295-1.732 1.534-1.732.866 0 .866.976.866 1.175 0 .219-.01.289-.049.558h-2.351zm5.124-.856l.17-1.036-1.216.09c-.179.01-.189.03-.199.08 0 .03-.04.229-.04.249.568 0 .707.05.707.318 0 .01 0 .08-.029.26l-.449 2.669c-.059.378-.099.428-.836.428h-.01l-.05.309c.399-.01.857-.03 1.145-.03.06 0 .937.01 1.256.03.019-.1.029-.21.049-.309h-.189c-.607 0-.727-.06-.727-.279 0-.14.319-1.902.369-2.101.169-.559.577-1.495 1.484-1.495v.01a.484.484 0 0 0-.269.448c0 .3.249.37.378.37a.49.49 0 0 0 .488-.499c0-.319-.269-.548-.657-.548-.638 0-1.126.528-1.365 1.046l-.01-.01zM167.877-16.986c-.04.259-.109.677-.139.766-.08.3-.269.429-.418.429-.22 0-.29-.22-.29-.409 0-.1.09-.587.11-.717.06-.318.289-1.613.289-1.833 0-.757-.677-1.255-1.514-1.255-1.006 0-1.684.648-1.684 1.206 0 .169.1.388.409.388a.52.52 0 0 0 .518-.518c0-.259-.179-.388-.418-.398.308-.349.846-.458 1.145-.458.568 0 .867.468.867.966 0 .1-.07.637-.11.667-.02.01-.04.01-.269.02-1.643.06-2.829.847-2.829 1.773 0 .767.966.927 1.445.927.886 0 1.354-.698 1.434-.837 0 .687.428.787.637.787.29 0 .847-.2.967-.927.03-.13.04-.209.099-.577h-.249zm-1.404-.05c-.05.299-.1.607-.478.976-.24.239-.588.408-.937.408-.428 0-.747-.278-.747-.687 0-.01 0-1.494 2.311-1.594l-.149.897zM174.193-22.455l-1.255.1a.97.97 0 0 0-.179.02c-.03.02-.07.268-.07.298.568 0 .707.05.707.319 0 .01 0 .08-.03.26l-.866 5.179c-.06.378-.1.428-.837.428h-.01l-.05.309c.329-.01.857-.03 1.106-.03.239 0 .737.02 1.095.03l.06-.309c-.498 0-.727 0-.727-.249 0-.04.01-.1.02-.15l1.036-6.205zm4.75 5.469c-.04.259-.11.677-.14.766-.079.3-.269.429-.418.429-.219 0-.289-.22-.289-.409 0-.1.09-.587.11-.717.059-.318.289-1.613.289-1.833 0-.757-.678-1.255-1.515-1.255-1.006 0-1.683.648-1.683 1.206 0 .169.1.388.408.388.289 0 .519-.239.519-.518 0-.259-.18-.388-.419-.398.309-.349.847-.458 1.146-.458.568 0 .866.468.866.966 0 .1-.069.637-.109.667-.02.01-.04.01-.269.02-1.644.06-2.829.847-2.829 1.773 0 .767.966.927 1.444.927.887 0 1.355-.698 1.435-.837 0 .687.428.787.637.787.289 0 .847-.2.966-.927.03-.13.04-.209.1-.577h-.249zm-1.405-.05c-.049.299-.099.607-.478.976a1.37 1.37 0 0 1-.936.408c-.429 0-.747-.278-.747-.687 0-.01 0-1.494 2.311-1.594l-.15.897zm6.047-2.51c.08-.09.11-.12.11-.19 0-.1-.07-.1-.259-.1h-3.168l-.378 1.605h.249c.239-1.126.588-1.385 1.604-1.385h1.145l-3.446 3.765c-.11.13-.12.13-.12.2 0 .109.05.109.259.109h3.267l.478-1.863h-.249c-.289 1.166-.538 1.614-1.753 1.614h-1.185l3.446-3.755zm4.567.657c.239-.408.528-.618 1.016-.637l.05-.31c-.309.03-.448.03-.737.03-.259 0-.717-.02-.857-.03l-.059.3c.069 0 .408.04.408.358 0 .13-.08.26-.13.349l-1.404 2.42-.658-2.67c-.01-.039-.03-.109-.03-.149 0-.298.419-.298.608-.298.01-.08.04-.22.05-.31-.299.01-.857.03-1.086.03-.299 0-.697-.01-.956-.03l-.06.31c.608 0 .658.05.737.358l.857 3.467c.02.09.03.129.03.149 0 .03-.518.946-.697 1.185-.229.319-.568.648-.977.648a.61.61 0 0 1-.448-.18.497.497 0 0 0 .468-.497c0-.26-.199-.34-.358-.34a.508.508 0 0 0-.498.539c0 .408.348.697.796.697.807 0 1.385-.996 1.445-1.096l2.49-4.293zM197.66-22.455l-1.255.1a.99.99 0 0 0-.18.02c-.03.02-.069.268-.069.298.568 0 .707.05.707.319 0 .01 0 .08-.03.26l-.359 2.14a1.329 1.329 0 0 0-1.165-.627c-1.295 0-2.61 1.175-2.61 2.63 0 1.185.847 1.883 1.783 1.883.807 0 1.345-.568 1.415-.638l-.1.638 1.285-.1a.98.98 0 0 0 .179-.02c.03-.02.07-.27.07-.299-.588 0-.707-.05-.707-.319 0-.02 0-.09.029-.269l1.007-6.016zm-1.654 5.738c-.03.189-.03.199-.199.408-.309.369-.777.657-1.275.657-.388 0-1.046-.239-1.046-1.314 0-.19.05-1.315.538-2.013.378-.518.906-.747 1.315-.747.807 0 1.036.727 1.036.787 0 .03 0 .05-.02.16l-.349 2.062zm6.641-1.355c0-1.106-.777-1.933-1.853-1.933-1.414 0-2.629 1.385-2.629 2.71 0 1.036.756 1.863 1.872 1.863 1.325 0 2.61-1.196 2.61-2.64zm-2.57 2.39c-.279 0-1.116-.1-1.116-1.294 0-.37.13-1.465.439-1.973.488-.797 1.185-.836 1.354-.836.319 0 1.126.149 1.126 1.265 0 .229-.08 1.305-.428 1.962-.309.568-.857.877-1.375.877zm7.571-4.143c-.05.02-.189.15-.189.299 0 .109.08.258.269.258.129 0 .328-.099.328-.358 0-.1-.059-.429-.448-.429-.358 0-.787.17-1.125.469-.1-.1-.439-.359-1.006-.359-.966 0-1.853.767-1.853 1.654 0 .378.149.647.309.816-.08.08-.459.479-.459 1.026 0 .34.15.568.299.688-.677.189-1.086.667-1.086 1.116 0 .647.827 1.155 2.023 1.155.946 0 2.42-.399 2.42-1.494 0-1.206-1.325-1.206-2.301-1.206h-.558c-.289-.01-.458-.259-.458-.537 0-.05.01-.35.269-.608.319.259.697.309.946.309.987 0 1.853-.797 1.853-1.654 0-.279-.09-.528-.259-.757.439-.398.897-.398 1.026-.398v.01zm-2.61 2.57c-.308 0-.707-.18-.707-.767 0-.08.05-.807.289-1.186.219-.338.558-.508.847-.508.239 0 .697.13.697.767 0 .09-.04.767-.269 1.156-.189.348-.548.538-.857.538zm-.318 3.536c-.927 0-1.514-.438-1.514-.916 0-.23.129-.558.468-.787.269-.19.378-.19 1.105-.19.877 0 1.823 0 1.823.727 0 .608-.866 1.166-1.882 1.166zm4.811-2.42c0-.32-.249-.459-.458-.459a.621.621 0 0 0-.607.598c0 .229.169.458.468.458.289 0 .597-.26.597-.598zM9.056-7.472c0-.309-.06-.408-.398-.408H7.243c-.15 0-.408 0-.408.299 0 .308.259.308.408.308h1.126v3.079H7.163c-.16 0-.408 0-.408.308 0 .299.259.299.408.299h2.939c.15 0 .408 0 .408-.299 0-.308-.259-.308-.408-.308H9.056v-3.278zm0-1.713c0-.28-.22-.498-.498-.498-.28 0-.498.219-.498.498s.219.498.498.498.498-.22.498-.498zm4.364 1.912h1.633c.15 0 .399 0 .399-.298 0-.31-.24-.31-.399-.31H13.42v-.816c0-.19 0-.408-.339-.408-.349 0-.349.209-.349.408v.817h-.866c-.16 0-.409 0-.409.309 0 .298.25.298.399.298h.876v2.431c0 .956.678 1.315 1.405 1.315.737 0 1.544-.428 1.544-1.315 0-.18 0-.389-.349-.389-.328 0-.338.21-.338.379-.01.618-.578.717-.807.717-.767 0-.767-.518-.767-.767v-2.37zM30.306-4.713c-.429.758-.857.797-1.206.817-.11.01-.12.18-.12.19 0 .03.01.119.12.119.25 0 .538-.03.797-.03.309 0 .628.03.927.03.05 0 .179 0 .179-.19 0-.109-.08-.109-.16-.119-.06-.01-.418-.03-.418-.338 0-.09.05-.21.14-.379l.717-1.255h2.271l.11 1.654c0 .199-.24.318-.668.318-.11 0-.229 0-.229.19 0 .119.12.119.15.119.368 0 .766-.03 1.145-.03.349 0 .707.03 1.046.03.06 0 .18 0 .18-.18 0-.129-.08-.129-.24-.129-.518 0-.548-.08-.568-.338l-.428-6.236c-.01-.22-.02-.25-.18-.25-.159 0-.199.07-.258.18l-3.307 5.827zm2.998-4.721l.229 3.257h-2.082l1.853-3.257zM44.283-7.74c.01-.03.03-.11.03-.13 0-.09-.08-.11-.11-.11-.11 0-.468.349-.627.628-.12-.289-.38-.638-.857-.638-1.106 0-2.281 1.514-2.281 2.969 0 .846.458 1.544 1.205 1.544.408 0 .777-.26 1.056-.528l-.389 1.564c-.109.428-.119.468-.757.478-.13 0-.239 0-.239.189 0 .09.06.12.13.12.319 0 .667-.03.996-.03.329 0 .687.03 1.006.03.06 0 .19 0 .19-.19 0-.12-.1-.12-.24-.12-.508 0-.508-.059-.508-.159 0-.07.02-.12.03-.179l1.365-5.439zm-1.385 2.938c-.08.308-.687 1.105-1.235 1.105-.468 0-.548-.587-.548-.886 0-.498.309-1.664.488-2.082.25-.608.707-1.106 1.116-1.106.08 0 .309.01.488.29.1.159.2.447.2.637 0 .03-.01.07-.03.13l-.479 1.912zm6.157-2.68a.5.5 0 0 0 .03-.14c0-.109-.08-.258-.28-.258-.298 0-.368.289-.388.368l-.727 2.91c-.05.178-.05.198-.14.328-.189.279-.477.577-.916.577-.448 0-.538-.438-.538-.767 0-.607.329-1.504.578-2.181.08-.21.13-.349.13-.538 0-.498-.33-.807-.758-.807-.926 0-1.274 1.474-1.274 1.534 0 .1.099.1.149.1.13 0 .14-.02.18-.16.079-.308.348-1.255.925-1.255.11 0 .22.03.22.29 0 .238-.1.507-.24.896-.258.697-.517 1.434-.517 1.952 0 .867.578 1.156 1.115 1.156.528 0 .867-.3 1.106-.598.18.538.608.598.797.598.369 0 .578-.25.727-.558.18-.379.299-.957.299-.976 0-.1-.08-.1-.15-.1-.119 0-.129.01-.189.229-.14.558-.328 1.185-.667 1.185-.26 0-.26-.268-.26-.408 0-.07 0-.23.07-.508l.718-2.869zm3.534 2.47c0-.099-.08-.099-.15-.099-.13 0-.13.02-.169.17-.08.288-.349 1.244-.927 1.244-.08 0-.219-.01-.219-.278 0-.26.13-.588.26-.957l.637-1.703c.1-.289.12-.369.12-.558 0-.548-.38-.797-.748-.797-.936 0-1.275 1.484-1.275 1.534 0 .1.1.1.15.1.13 0 .14-.02.18-.16.088-.328.348-1.255.925-1.255.11 0 .22.05.22.28 0 .238-.11.527-.18.717l-.299.826c-.129.329-.249.658-.368.986-.14.379-.18.488-.18.688 0 .388.24.797.758.797.936 0 1.265-1.495 1.265-1.534zm-.05-4.78c0-.25-.2-.33-.339-.33-.21 0-.478.2-.478.478 0 .25.2.33.339.33.199 0 .478-.19.478-.479zm4.141 2.45c-.498.06-.498.468-.498.488 0 .16.11.319.339.319.269 0 .508-.22.508-.598 0-.488-.429-.857-1.066-.857-1.235 0-2.52 1.415-2.52 2.869 0 .986.588 1.644 1.464 1.644 1.275 0 2.102-.997 2.102-1.146 0-.05-.08-.16-.16-.16-.04 0-.05.01-.129.11-.737.937-1.624.976-1.793.976-.538 0-.787-.448-.787-1.026 0-.527.269-1.573.528-2.051.359-.648.857-.997 1.305-.997.11 0 .558.02.707.429zm3.268-2.909a.79.79 0 0 0 .03-.13c0-.09-.06-.12-.14-.12-.03 0-.13.01-.159.02l-.986.08c-.12.01-.23.02-.23.21 0 .11.1.11.24.11.478 0 .498.069.498.169 0 .03-.03.16-.03.17l-1.474 5.876a.6.6 0 0 0-.02.13c0 .109.09.259.279.259.298 0 .368-.28.388-.369l.508-2.022c.369.05 1.007.259 1.007.837 0 .07 0 .11-.03.249-.04.17-.04.239-.04.338 0 .718.468.967.836.967.438 0 .658-.329.767-.518.22-.379.359-.987.359-1.016 0-.1-.08-.1-.15-.1-.12 0-.13.01-.189.229-.13.508-.319 1.185-.757 1.185-.269 0-.289-.229-.289-.428 0-.229.07-.508.08-.558.05-.209.05-.219.05-.348 0-.678-.698-.947-1.325-1.036.23-.14.438-.349.707-.658.518-.588.907-1.046 1.405-1.046.189 0 .259.11.269.12a.522.522 0 0 0-.468.498c0 .13.09.319.348.319.22 0 .498-.18.498-.558a.592.592 0 0 0-.627-.598c-.528 0-.957.419-1.295.817-.568.657-.727.817-1.076.986l1.016-4.064zM68.091-10.251a.79.79 0 0 0 .03-.13c0-.09-.06-.12-.14-.12-.03 0-.129.01-.158.02l-.987.08c-.12.01-.229.02-.229.21 0 .11.1.11.24.11.477 0 .497.069.497.169 0 .03-.03.16-.03.17l-.986 3.934c-.01.03-.11.438-.11.816 0 .837.42 1.515 1.146 1.515 1.116 0 2.281-1.495 2.281-2.959 0-1.066-.597-1.554-1.195-1.554-.379 0-.717.21-1.056.528l.697-2.789zm-.727 6.554c-.249 0-.578-.209-.578-.956 0-.438.09-.787.379-1.922.07-.24.07-.26.219-.459.29-.398.668-.737 1.046-.737.448 0 .548.568.548.887 0 .418-.269 1.604-.558 2.241-.12.25-.548.946-1.056.946zm4.862-2.759c.01-.03.458-1.315 1.315-1.315.05 0 .329 0 .528.14a.523.523 0 0 0-.379.478c0 .13.09.319.349.319.179 0 .488-.14.488-.528 0-.518-.648-.628-.977-.628-.687 0-1.045.498-1.205.717-.11-.528-.498-.717-.826-.717-.36 0-.558.23-.718.528-.189.398-.318.986-.318 1.006 0 .1.1.1.15.1.129 0 .139-.01.188-.23.18-.697.369-1.185.678-1.185.259 0 .259.29.259.399 0 .16-.03.348-.07.508l-.747 2.988c-.02.06-.03.11-.03.14 0 .109.08.259.279.259.299 0 .368-.29.388-.369l.648-2.61zM78.407-6.356c0-.947-.588-1.634-1.455-1.634-1.235 0-2.52 1.415-2.52 2.869 0 1.026.628 1.644 1.454 1.644 1.236 0 2.52-1.415 2.52-2.88zm-2.52 2.66c-.39 0-.758-.31-.758-1.027 0-.498.26-1.603.578-2.141.369-.608.847-.907 1.235-.907.488 0 .767.439.767 1.026 0 .429-.219 1.455-.538 2.052-.288.548-.797.996-1.285.996zm6.326-1.564c-.07.278-.08.488-.08.627 0 .11-.308.936-.836.936-.697 0-.697-.737-.697-.866 0-.538.259-1.275.568-2.092.07-.19.119-.339.119-.528 0-.498-.329-.807-.757-.807-.927 0-1.275 1.474-1.275 1.534 0 .1.1.1.15.1.129 0 .139-.02.179-.16.08-.308.348-1.255.926-1.255.11 0 .22.03.22.29 0 .238-.1.507-.24.896-.498 1.354-.498 1.613-.498 1.882 0 .34.08.678.339.917.318.279.767.309.936.309.319 0 .667-.13.967-.638.149.369.547.638 1.135.638.598 0 1.016-.409 1.315-1.116.299-.677.687-2.211.687-2.74 0-.348-.12-.657-.408-.657-.23 0-.478.23-.478.458 0 .13.07.2.13.27.238.258.268.577.268.786 0 .399-.319 1.445-.488 1.853-.22.518-.538.926-.996.926-.498 0-.658-.408-.658-.826 0-.09.01-.329.12-.767l.418-1.674c.06-.219.16-.617.16-.657 0-.11-.08-.26-.28-.26-.288 0-.358.27-.378.35l-.568 2.27zm5.125-.07c.05-.22.11-.429.16-.648.13-.508.13-.518.299-.806.14-.24.587-.987 1.344-.987.439 0 .459.449.459.658 0 .617-.439 1.803-.578 2.201-.13.339-.16.428-.16.638 0 .438.28.797.758.797.926 0 1.264-1.485 1.264-1.534 0-.1-.08-.1-.149-.1-.13 0-.13.02-.17.17-.079.268-.348 1.244-.925 1.244-.21 0-.22-.149-.22-.288 0-.25.1-.509.18-.748.199-.527.607-1.643.607-2.22 0-.818-.547-1.037-1.036-1.037-.817 0-1.295.598-1.424.787-.07-.488-.409-.787-.837-.787-.359 0-.558.23-.717.528-.19.398-.319.986-.319 1.006 0 .1.1.1.15.1.129 0 .139-.01.189-.23.179-.697.368-1.185.677-1.185.26 0 .26.29.26.399 0 .16-.03.348-.07.508l-.748 2.988c-.02.06-.03.11-.03.14 0 .109.08.259.28.259.119 0 .288-.07.358-.26l.398-1.593zM96.967-7.571h.817c.169 0 .269 0 .269-.18 0-.13-.08-.13-.25-.13h-.776c.139-.736.169-.916.318-1.613.08-.369.19-.896.548-.896.08 0 .289.02.419.179a.502.502 0 0 0-.439.488c0 .22.18.319.339.319.249 0 .498-.2.498-.548 0-.428-.408-.658-.817-.658-.976 0-1.225 1.295-1.295 1.634L96.39-7.88h-.657c-.16 0-.27 0-.27.199 0 .11.1.11.25.11h.617l-.727 3.715c-.12.618-.22 1.026-.279 1.235-.08.339-.209.857-.568.857-.1 0-.288-.03-.398-.18a.503.503 0 0 0 .438-.487c0-.22-.179-.32-.338-.32-.25 0-.498.2-.498.549 0 .448.428.657.796.657 1.036 0 1.445-2.092 1.514-2.45l.698-3.576zm5.366 1.215c0-.947-.587-1.634-1.454-1.634-1.235 0-2.52 1.415-2.52 2.869 0 1.026.628 1.644 1.454 1.644 1.235 0 2.52-1.415 2.52-2.88zm-2.52 2.66c-.388 0-.757-.31-.757-1.027 0-.498.259-1.603.578-2.141.368-.608.847-.907 1.235-.907.488 0 .767.439.767 1.026 0 .429-.22 1.455-.538 2.052-.289.548-.797.996-1.285.996zm7.263-3.935c-.398.1-.398.468-.398.478 0 .13.09.319.349.319a.5.5 0 0 0 .488-.528c0-.508-.578-.628-.867-.628-.548 0-.876.488-.976.677-.22-.597-.707-.677-.956-.677-.996 0-1.534 1.305-1.534 1.534 0 .1.1.1.15.1.129 0 .129-.01.178-.17.27-.856.787-1.245 1.186-1.245.289 0 .478.23.478.628 0 .239-.12.727-.21 1.096-.109.408-.119.448-.228.906-.16.647-.369 1.444-.967 1.444-.03 0-.269 0-.438-.139a.5.5 0 0 0 .389-.478c0-.26-.21-.319-.34-.319-.248 0-.497.21-.497.538 0 .388.418.618.877.618.478 0 .806-.379.975-.678.2.568.688.678.947.678 1.026 0 1.534-1.335 1.534-1.534 0-.1-.08-.1-.15-.1-.119 0-.129.01-.179.17-.269.856-.767 1.244-1.185 1.244-.2 0-.468-.119-.468-.637 0-.24.11-.667.189-1.006.11-.419.26-1.036.339-1.365.14-.518.408-1.066.876-1.066.03 0 .28 0 .438.14zM113.688-6.764c.01-.03.05-.19.05-.33 0-.467-.3-.896-.857-.896-.987 0-1.514 1.465-1.514 1.534 0 .1.1.1.15.1.128 0 .128-.01.188-.17.25-.627.648-1.245 1.166-1.245.249 0 .269.22.269.399 0 .16-.03.348-.07.508l-.946 3.795c-.13.528-.518 1.305-1.136 1.305-.18 0-.319-.08-.338-.09a.523.523 0 0 0 .378-.478c0-.13-.09-.319-.349-.319-.18 0-.488.14-.488.528 0 .369.369.578.807.578.757 0 1.554-.647 1.763-1.494l.927-3.725zm.408-3.019c0-.279-.22-.339-.339-.339-.249 0-.488.24-.488.478 0 .13.1.33.339.33.239 0 .488-.22.488-.469zm4.61 2.301a.5.5 0 0 0 .03-.14c0-.109-.08-.258-.28-.258-.299 0-.368.289-.388.368l-.727 2.91c-.05.178-.05.198-.14.328-.19.279-.478.577-.916.577-.448 0-.538-.438-.538-.767 0-.607.329-1.504.578-2.181.08-.21.129-.349.129-.538 0-.498-.329-.807-.757-.807-.926 0-1.275 1.474-1.275 1.534 0 .1.1.1.15.1.129 0 .139-.02.179-.16.08-.308.348-1.255.926-1.255.11 0 .22.03.22.29 0 .238-.1.507-.24.896-.259.697-.518 1.434-.518 1.952 0 .867.578 1.156 1.116 1.156.528 0 .867-.3 1.106-.598.179.538.607.598.796.598.37 0 .578-.25.728-.558.179-.379.298-.957.298-.976 0-.1-.08-.1-.149-.1-.12 0-.13.01-.189.229-.14.558-.329 1.185-.668 1.185-.259 0-.259-.268-.259-.408 0-.07 0-.23.07-.508l.717-2.869zm2.527 2.152c.05-.22.11-.429.16-.648.13-.488.13-.508.248-.717.29-.498.718-1.076 1.405-1.076.458 0 .458.508.458.658 0 .269-.07.558-.09.647l-.647 2.59c-.02.06-.03.11-.03.14 0 .109.08.259.28.259.119 0 .288-.07.358-.26l.398-1.593c.05-.22.11-.429.16-.648.13-.488.13-.508.249-.717.289-.498.717-1.076 1.404-1.076.459 0 .459.508.459.658 0 .617-.439 1.803-.578 2.201-.13.339-.16.428-.16.638 0 .438.28.797.757.797.927 0 1.266-1.485 1.266-1.534 0-.1-.08-.1-.15-.1-.13 0-.13.02-.17.17-.08.268-.348 1.244-.926 1.244-.209 0-.219-.149-.219-.288 0-.25.1-.509.18-.748.199-.527.607-1.643.607-2.22 0-.838-.578-1.037-1.046-1.037-.697 0-1.195.438-1.494.877-.08-.688-.598-.877-1.046-.877-.598 0-1.086.329-1.425.787-.07-.488-.408-.787-.836-.787-.359 0-.558.23-.717.528-.19.398-.319.986-.319 1.006 0 .1.1.1.15.1.129 0 .139-.01.189-.23.179-.697.368-1.185.677-1.185.259 0 .259.29.259.399 0 .16-.03.348-.07.508l-.747 2.988c-.02.06-.03.11-.03.14 0 .109.08.259.28.259.119 0 .288-.07.358-.26l.398-1.593zm6.753 3.018c-.08.309-.16.339-.548.349-.09 0-.21 0-.21.189 0 .07.05.12.12.12.27 0 .558-.03.837-.03.319 0 .658.03.966.03.06 0 .19 0 .19-.19 0-.12-.1-.12-.239-.12-.508 0-.508-.059-.508-.159 0-.06.069-.318.109-.478l.359-1.454c.07.17.318.578.837.578 1.085 0 2.271-1.475 2.271-2.959 0-1.066-.598-1.554-1.195-1.554-.489 0-.917.359-1.206.697-.119-.577-.568-.697-.817-.697-.358 0-.557.23-.717.528a5.13 5.13 0 0 0-.319 1.006c0 .1.1.1.15.1.13 0 .14-.01.189-.23.179-.697.369-1.185.677-1.185.259 0 .259.29.259.399 0 .06 0 .219-.069.498l-1.136 4.562zm1.723-4.333c.08-.339.698-1.126 1.246-1.126.448 0 .547.568.547.887 0 .418-.269 1.604-.557 2.241-.12.25-.548.946-1.056.946-.578 0-.678-.846-.678-.926 0-.03.01-.06.03-.14l.468-1.882zm4.933 1.096c.438.1.886.199.886.737 0 .318-.268 1.115-1.295 1.115-.219 0-.797-.05-.956-.557.508-.05.508-.469.508-.489 0-.189-.129-.318-.339-.318-.229 0-.507.169-.507.617 0 .608.577.967 1.285.967 1.494 0 1.872-1.216 1.872-1.674 0-.867-.777-1.046-1.185-1.135-.279-.06-.638-.14-.638-.568 0-.24.209-.917 1.006-.917.269 0 .638.1.747.488a.436.436 0 0 0-.398.409c0 .11.06.279.299.279.169 0 .428-.12.428-.548 0-.458-.408-.847-1.066-.847a1.512 1.512 0 0 0-1.574 1.474c0 .767.648.907.927.967zM144.88-6.356c0-.947-.588-1.634-1.454-1.634-1.236 0-2.521 1.415-2.521 2.869 0 1.026.628 1.644 1.455 1.644 1.235 0 2.52-1.415 2.52-2.88zm-2.52 2.66c-.389 0-.757-.31-.757-1.027 0-.498.258-1.603.577-2.141.369-.608.847-.907 1.236-.907.488 0 .767.439.767 1.026 0 .429-.22 1.455-.538 2.052-.289.548-.797.996-1.285.996zm7.452-3.636c0-.349-.119-.658-.408-.658-.229 0-.478.23-.478.458 0 .13.07.2.129.27.239.258.269.577.269.786 0 .28-.468 2.78-1.613 2.78-.538 0-.648-.498-.648-.827 0-.578.319-1.445.588-2.162.05-.16.109-.309.109-.498 0-.498-.329-.807-.757-.807-.926 0-1.275 1.474-1.275 1.534 0 .1.1.1.15.1.129 0 .139-.02.179-.16.08-.308.349-1.255.926-1.255.11 0 .219.03.219.29 0 .238-.099.507-.239.896-.308.846-.507 1.444-.507 1.912 0 .907.637 1.196 1.225 1.196 1.673 0 2.131-3.597 2.131-3.855zm2.053 1.444c.299 0 .966-.03 1.444-.22.787-.318.787-.966.787-1.035 0-.458-.368-.847-1.006-.847-1.046 0-2.47 1.006-2.47 2.77 0 .896.478 1.743 1.424 1.743 1.275 0 2.102-.997 2.102-1.146 0-.05-.08-.16-.159-.16-.04 0-.05.01-.13.11-.737.937-1.623.976-1.793.976-.647 0-.757-.707-.757-1.095 0-.379.1-.827.169-1.096h.389zm-.329-.22c.429-1.633 1.454-1.663 1.554-1.663.399 0 .628.27.628.608 0 1.056-1.644 1.056-1.973 1.056h-.209zm5.101-.348c.01-.03.458-1.315 1.315-1.315.05 0 .329 0 .528.14a.524.524 0 0 0-.379.478c0 .13.09.319.349.319.179 0 .488-.14.488-.528 0-.518-.648-.628-.976-.628-.688 0-1.046.498-1.206.717-.109-.528-.497-.717-.826-.717-.359 0-.558.23-.717.528-.19.398-.319.986-.319 1.006 0 .1.099.1.149.1.13 0 .14-.01.189-.23.18-.697.369-1.185.678-1.185.259 0 .259.29.259.399 0 .16-.03.348-.07.508l-.747 2.988c-.02.06-.03.11-.03.14 0 .109.08.259.279.259.299 0 .368-.29.388-.369l.648-2.61zM165.296-4.175c.109.488.478.698.826.698.369 0 .578-.25.728-.558.179-.379.299-.957.299-.976 0-.1-.08-.1-.15-.1-.119 0-.129.01-.189.229-.139.558-.329 1.185-.668 1.185-.259 0-.259-.268-.259-.408 0-.07 0-.23.07-.508l.678-2.71c.04-.139.04-.159.04-.209 0-.209-.17-.259-.269-.259-.319 0-.389.339-.399.389-.189-.428-.508-.588-.827-.588-1.105 0-2.281 1.514-2.281 2.969 0 .846.458 1.544 1.206 1.544.358 0 .796-.21 1.195-.698zm.538-2.53l-.468 1.883c-.08.318-.698 1.125-1.246 1.125-.468 0-.548-.587-.548-.886 0-.498.309-1.664.489-2.082.249-.608.707-1.106 1.115-1.106.439 0 .688.518.688.937 0 .02-.01.07-.03.13zM173.494-10.251a.79.79 0 0 0 .03-.13c0-.09-.06-.12-.139-.12-.03 0-.13.01-.16.02l-.986.08c-.119.01-.229.02-.229.21 0 .11.1.11.239.11.478 0 .498.069.498.169 0 .03-.03.16-.03.17l-1.245 4.98c-.01.04-.06.239-.06.388 0 .528.359.897.837.897.378 0 .578-.27.707-.518.169-.35.309-.987.309-1.016 0-.1-.08-.1-.15-.1-.049 0-.109 0-.139.05l-.07.249c-.169.697-.358 1.115-.637 1.115-.259 0-.259-.268-.259-.408 0-.07 0-.22.06-.458l1.424-5.688zm3.005 6.076c.109.488.478.698.826.698.369 0 .578-.25.727-.558.18-.379.3-.957.3-.976 0-.1-.08-.1-.15-.1-.12 0-.13.01-.189.229-.14.558-.329 1.185-.668 1.185-.259 0-.259-.268-.259-.408 0-.07 0-.23.07-.508l.677-2.71c.04-.139.04-.159.04-.209 0-.209-.169-.259-.269-.259-.318 0-.388.339-.398.389-.189-.428-.508-.588-.827-.588-1.106 0-2.281 1.514-2.281 2.969 0 .846.458 1.544 1.205 1.544.359 0 .797-.21 1.196-.698zm.538-2.53l-.469 1.883c-.079.318-.697 1.125-1.245 1.125-.468 0-.548-.587-.548-.886 0-.498.309-1.664.488-2.082.249-.608.708-1.106 1.116-1.106.438 0 .688.518.688.937 0 .02-.01.07-.03.13zm4.633.24c.588-.579 1.066-1.336 1.066-1.425 0-.1-.08-.1-.139-.1-.12 0-.13.01-.19.13-.328.567-.458.617-.617.617-.18 0-.279-.1-.468-.358-.12-.16-.289-.389-.608-.389-.737 0-1.166.936-1.166 1.136 0 .09.07.11.15.11.119 0 .129-.02.179-.14.08-.22.369-.468.737-.468.199 0 .379.08.598.18.329.148.438.148.588.148-.15.17-.239.28-.399.439l-1.634 1.623c-.557.548-1.035 1.285-1.035 1.385 0 .1.089.1.149.1.11 0 .12-.02.159-.09.14-.21.409-.657.787-.657.22 0 .299.11.479.358.159.2.308.389.617.389.966 0 1.504-1.295 1.504-1.534 0-.1-.119-.1-.149-.1-.12 0-.13.03-.17.16-.179.497-.657.836-1.085.836-.2 0-.359-.07-.558-.16-.299-.129-.418-.169-.618-.169-.05 0-.129 0-.179.01.07-.08.279-.328.558-.607l1.444-1.425zm4.074 2.619c-.379 1.644-1.116 2.082-1.614 2.082-.478 0-.618-.379-.618-.428 0-.01.01-.02.08-.03a.503.503 0 0 0 .429-.478c0-.21-.16-.32-.339-.32-.12 0-.508.06-.508.618 0 .518.408.857.956.857 1.036 0 1.943-1.026 2.191-2.012l.977-3.925c.01-.06.03-.11.03-.14 0-.109-.08-.258-.279-.258-.299 0-.369.289-.389.368l-.727 2.929c-.07.289-.468.886-1.056.886-.448 0-.538-.438-.538-.767 0-.607.329-1.504.578-2.181.08-.21.129-.349.129-.538 0-.498-.328-.807-.756-.807-.927 0-1.275 1.474-1.275 1.534 0 .1.099.1.149.1.129 0 .139-.02.179-.16.08-.308.349-1.255.927-1.255.109 0 .219.03.219.29 0 .238-.1.507-.239.896-.259.697-.518 1.434-.518 1.952 0 .867.578 1.156 1.115 1.156.459 0 .767-.24.897-.369zM196.13-10.251a.79.79 0 0 0 .03-.13c0-.09-.06-.12-.14-.12a.876.876 0 0 0-.159.02l-.986.08c-.12.01-.229.02-.229.21 0 .11.099.11.239.11.478 0 .498.069.498.169 0 .03-.03.16-.03.17l-.578 2.33c-.149-.309-.418-.578-.837-.578-1.105 0-2.281 1.514-2.281 2.969 0 .846.459 1.544 1.206 1.544.358 0 .797-.21 1.195-.698.109.488.478.698.827.698.368 0 .577-.25.727-.558.179-.379.299-.957.299-.976 0-.1-.08-.1-.15-.1-.119 0-.129.01-.189.229-.139.558-.329 1.185-.667 1.185-.259 0-.259-.268-.259-.408 0-.07 0-.22.06-.458l1.424-5.688zm-2.012 5.449c-.08.308-.687 1.105-1.236 1.105-.468 0-.547-.587-.547-.886 0-.498.308-1.664.488-2.082.249-.608.707-1.106 1.115-1.106.08 0 .309.01.488.29.1.159.2.447.2.637 0 .03-.01.07-.03.13l-.478 1.912zm6.626-1.554c0-.947-.588-1.634-1.455-1.634-1.235 0-2.52 1.415-2.52 2.869 0 1.026.628 1.644 1.454 1.644 1.236 0 2.521-1.415 2.521-2.88zm-2.521 2.66c-.388 0-.757-.31-.757-1.027 0-.498.259-1.603.578-2.141.369-.608.847-.907 1.235-.907.488 0 .767.439.767 1.026 0 .429-.219 1.455-.538 2.052-.288.548-.797.996-1.285.996zM203.62-4.115l-.209.837c-.12.498-.18.707-.459 1.046-.398.468-.796.468-.946.468-.129 0-.438 0-.707-.11a.524.524 0 0 0 .319-.458c0-.13-.09-.319-.349-.319a.501.501 0 0 0-.488.528c0 .399.369.578 1.205.578 1.046 0 1.803-.657 1.993-1.414l1.085-4.363c.04-.15.04-.17.04-.21 0-.209-.169-.259-.269-.259a.4.4 0 0 0-.388.369c-.14-.289-.409-.568-.837-.568-1.116 0-2.261 1.474-2.261 2.879 0 .847.468 1.524 1.215 1.524.508 0 .937-.408 1.056-.528zm.647-2.6l-.448 1.813c-.079.319-.687 1.096-1.235 1.096-.538 0-.558-.757-.558-.867 0-.478.299-1.643.508-2.111.249-.538.687-.987 1.076-.987.598 0 .687.837.687.917l-.03.14zm2.78 2.5a.421.421 0 0 0-.438-.428c-.319 0-.648.299-.648.628 0 .259.18.428.439.428.338 0 .647-.329.647-.627z"/></svg>