<svg xmlns="http://www.w3.org/2000/svg" width="317.187" height="99.65pt" viewBox="0 -99.65 237.89 99.65"><path d="M3.288-89.285h.02v-3.437h2.57v-.02h-2.57v-3.297h2.968v-.02H3.288v6.774zM7.579-96.317c-.04 0-.06.03-.06.06 0 .029.02.059.06.059.04 0 .06-.03.06-.06s-.02-.06-.06-.06zm.01 1.882h-.02v5.15h.02v-5.15zm4.134-.1c-.817 0-1.305.429-1.623 1.515v-1.415h-.02v5.15h.02v-3.666c.328-1.135.806-1.564 1.623-1.564.2 0 .329.02.458.05v-.02c-.129-.03-.258-.05-.458-.05zM16.161-90.38v-2.61c0-.957-.368-1.545-1.405-1.545-.458 0-.926.11-1.474.34l.01.02c.548-.23 1.006-.34 1.464-.34 1.027 0 1.385.588 1.385 1.524v.678h-1.235c-1.225 0-1.982.578-1.982 1.584 0 .886.528 1.534 1.494 1.534.847 0 1.365-.399 1.713-1.126.01.707.12.996.538 1.126l.01-.02c-.428-.13-.528-.438-.528-1.166h.01zm-1.753 1.165c-.956 0-1.474-.638-1.474-1.514 0-.987.747-1.564 1.962-1.564h1.235v1.932c-.348.737-.847 1.146-1.723 1.146zM23.142-96.158c-1.056 0-1.754.657-1.754 1.514 0 .906.439 1.255 1.803 1.693 1.276.409 1.883.807 1.883 1.893 0 1.086-.797 1.843-1.972 1.843-.917 0-1.445-.31-1.933-.777l-.01.02c.488.468 1.026.777 1.943.777 1.195 0 1.992-.768 1.992-1.863 0-1.096-.608-1.504-1.893-1.913-1.374-.438-1.793-.786-1.793-1.673 0-.837.688-1.494 1.733-1.494.807 0 1.296.259 1.714.637l.01-.02c-.418-.368-.897-.637-1.723-.637zm6.684 5.777v-2.61c0-.956-.368-1.544-1.404-1.544-.459 0-.927.11-1.474.34l.01.02c.547-.23 1.006-.34 1.464-.34 1.026 0 1.384.588 1.384 1.524v.678h-1.235c-1.225 0-1.982.578-1.982 1.584 0 .886.528 1.534 1.494 1.534.847 0 1.365-.399 1.713-1.126.01.707.12.996.538 1.126l.01-.02c-.428-.13-.528-.438-.528-1.166h.01zm-1.753 1.166c-.956 0-1.474-.638-1.474-1.514 0-.987.747-1.564 1.962-1.564h1.235v1.932c-.348.737-.846 1.146-1.723 1.146zm6.276-5.32c-.876 0-1.514.518-1.982 1.365v-1.265h-.02v5.15h.02v-3.855c.478-.857 1.116-1.375 1.983-1.375.936 0 1.314.588 1.314 1.564v3.666h.02v-3.666c0-.986-.388-1.584-1.334-1.584zm4.713 0c-.807 0-1.465.498-1.465 1.216 0 .677.429.996 1.524 1.305 1.116.318 1.545.587 1.545 1.434 0 .837-.678 1.365-1.574 1.365-.787 0-1.245-.28-1.654-.658l-.01.02c.409.379.877.658 1.664.658.906 0 1.594-.528 1.594-1.385 0-.847-.419-1.136-1.554-1.454-1.096-.31-1.515-.628-1.515-1.285 0-.708.658-1.196 1.445-1.196.637 0 1.056.17 1.464.518l.01-.02c-.399-.338-.827-.518-1.474-.518zM49.533-96.059H45.23v.02h2.142l-.947 6.754h.02l.946-6.754h2.142v-.02zM55.507-94.435h-.02l-2.111 5.13-.807-5.13h-.02l-2.241 5.13-.678-5.13h-.02l.688 5.15h.02l2.24-5.12.808 5.12h.02l2.121-5.15zm2.452 5.24c1.833 0 2.41-2.062 2.41-3.357 0-1.265-.607-1.983-1.653-1.983-1.813 0-2.42 2.013-2.42 3.337 0 1.265.607 2.003 1.663 2.003zm0-.02c-1.046 0-1.644-.728-1.644-1.983 0-1.315.598-3.317 2.4-3.317 1.037 0 1.634.707 1.634 1.963 0 1.285-.567 3.337-2.39 3.337zM66.092-96.059h-.02l-.946 6.774h.02l.946-6.774zm2.252 1.644h1.454v-.02h-1.454l.189-1.335h-.02l-.19 1.335h-.866v.02h.857l-.548 4.004c-.11.777.209 1.216.856 1.216.409 0 .708-.13.977-.28l-.01-.02c-.279.16-.568.28-.966.28-.638 0-.947-.438-.837-1.196l.558-4.004zM73.273-94.535c-1.952 0-2.62 2.002-2.62 3.427 0 1.106.548 1.913 1.545 1.913.647 0 1.324-.399 1.782-1.246-.05.449-.139 1.036.39 1.246l.009-.02c-.468-.19-.458-.638-.369-1.275l.508-3.646a2.11 2.11 0 0 0-1.245-.399zm0 .02c.488 0 .887.15 1.226.389l-.509 3.636c-.468.866-1.145 1.275-1.792 1.275-.987 0-1.524-.797-1.524-1.893 0-1.414.657-3.407 2.6-3.407zm3.886-2.042h-.02l-.927 6.634c-.06.449.1.728.519.728.139 0 .288-.03.418-.08v-.02c-.13.05-.28.08-.418.08-.409 0-.558-.28-.499-.708l.927-6.634zm2.74.359c.04 0 .06-.03.06-.06s-.02-.06-.06-.06c-.04 0-.06.03-.06.06s.02.06.06.06zm-.25 1.763h-.02l-.717 5.15h.02l.718-5.15zm4.065-.1c-1.584 0-2.42 1.624-2.42 3.317 0 1.315.667 2.023 1.663 2.023.608 0 1.026-.22 1.404-.528l-.01-.01c-.388.309-.806.518-1.394.518-.986 0-1.644-.698-1.644-2.002 0-1.684.827-3.298 2.4-3.298.509 0 .887.16 1.197.488l.02-.01c-.31-.328-.688-.498-1.216-.498zM125.679-89.285h.04v-3.427h2.56v-.03h-2.56v-3.277h2.958v-.04h-2.998v6.774zM129.98-96.328c-.05 0-.08.03-.08.07 0 .04.03.07.08.07s.07-.03.07-.07c0-.04-.02-.07-.07-.07zm.02 1.893h-.04v5.15h.04v-5.15zm4.134-.1c-.807 0-1.295.429-1.613 1.505v-1.405h-.04v5.15h.04v-3.636c.338-1.145.806-1.574 1.613-1.574.2 0 .329.02.458.05v-.04c-.119-.03-.258-.05-.458-.05zM138.584-90.38v-2.61c0-.957-.379-1.545-1.425-1.545-.458 0-.926.11-1.474.34l.02.04c.538-.23.996-.34 1.454-.34 1.026 0 1.385.578 1.385 1.514v.668h-1.235c-1.226 0-1.983.578-1.983 1.594 0 .886.528 1.534 1.495 1.534.846 0 1.374-.399 1.723-1.126 0 .697.12.986.548 1.126l.01-.04c-.419-.13-.518-.428-.518-1.156zm-1.763 1.155c-.937 0-1.455-.628-1.455-1.494 0-.987.737-1.554 1.953-1.554h1.225v1.902c-.359.737-.857 1.146-1.723 1.146zM145.544-96.158c-1.065 0-1.763.667-1.763 1.524 0 .906.439 1.265 1.803 1.693 1.275.409 1.873.807 1.873 1.883 0 1.086-.787 1.833-1.962 1.833-.907 0-1.435-.31-1.923-.777l-.03.03c.498.468 1.046.787 1.953.787 1.205 0 2.002-.778 2.002-1.873 0-1.096-.608-1.504-1.893-1.913-1.365-.438-1.783-.786-1.783-1.663 0-.837.677-1.484 1.723-1.484.797 0 1.275.259 1.704.637l.02-.03c-.419-.378-.897-.647-1.724-.647zm6.695 5.777v-2.61c0-.956-.378-1.544-1.424-1.544-.459 0-.927.11-1.475.34l.02.04c.538-.23.996-.34 1.455-.34 1.026 0 1.384.578 1.384 1.514v.668h-1.235c-1.225 0-1.982.578-1.982 1.594 0 .886.528 1.534 1.494 1.534.846 0 1.375-.399 1.723-1.126 0 .697.12.986.548 1.126l.01-.04c-.418-.13-.518-.428-.518-1.156zm-1.763 1.156c-.937 0-1.454-.628-1.454-1.494 0-.987.737-1.554 1.952-1.554h1.225v1.902c-.358.737-.857 1.146-1.723 1.146zm6.276-5.31c-.867 0-1.494.508-1.972 1.335v-1.235h-.04v5.15h.04v-3.845c.478-.847 1.105-1.365 1.972-1.365.916 0 1.295.578 1.295 1.554v3.656h.04v-3.666c0-.986-.388-1.584-1.335-1.584zm4.713 0c-.817 0-1.475.498-1.475 1.226 0 .677.429.996 1.524 1.305 1.116.318 1.534.587 1.534 1.424s-.667 1.355-1.554 1.355c-.787 0-1.245-.28-1.653-.658l-.02.04c.408.369.876.658 1.673.658.907 0 1.604-.538 1.604-1.395 0-.847-.428-1.136-1.564-1.454-1.086-.31-1.504-.628-1.504-1.275 0-.708.648-1.186 1.435-1.186.637 0 1.046.17 1.454.518l.03-.03c-.409-.348-.837-.528-1.484-.528zM171.705-96.059h-2.998l-.947 6.774h.04l.478-3.427h2.56v-.03h-2.56l.469-3.277h2.958v-.04zM173.586-89.185c1.832 0 2.41-2.063 2.41-3.357 0-1.275-.607-1.993-1.653-1.993-1.823 0-2.43 2.013-2.43 3.337 0 1.265.607 2.013 1.673 2.013zm0-.04c-1.036 0-1.634-.728-1.634-1.973 0-1.305.588-3.297 2.39-3.297 1.027 0 1.614.698 1.614 1.953 0 1.275-.558 3.317-2.37 3.317zm5.37.04c.856 0 1.613-.618 2.111-1.753l-.239 1.653h.03l.727-5.15h-.04l-.478 3.417c-.498 1.155-1.245 1.793-2.112 1.793-.846 0-1.285-.538-1.145-1.554l.508-3.656h-.04l-.508 3.656c-.14 1.036.319 1.594 1.185 1.594zm6.764-5.35c-.817 0-1.375.429-1.843 1.684l.22-1.584h-.04l-.718 5.15h.04l.478-3.447c.498-1.344 1.056-1.763 1.863-1.763.17 0 .328.03.448.07l.01-.04c-.12-.04-.279-.07-.458-.07zM191.03-96.059h-.039l-.946 6.774h.04l.946-6.774zm2.263 1.664h1.444l.01-.04h-1.454l.189-1.335-.03.01-.2 1.325h-.866v.04h.867l-.558 3.984c-.11.787.219 1.226.866 1.226.409 0 .708-.13.987-.29l-.02-.03c-.28.16-.568.28-.967.28-.637 0-.936-.438-.826-1.186l.558-3.984zM198.19-94.535c-1.952 0-2.62 2.002-2.62 3.427 0 1.116.548 1.923 1.544 1.923.658 0 1.325-.409 1.773-1.236-.05.468-.12 1.026.399 1.236l.02-.04c-.459-.19-.459-.628-.369-1.255l.518-3.656a2.174 2.174 0 0 0-1.265-.399zm0 .04c.488 0 .887.15 1.215.379l-.498 3.616c-.468.866-1.135 1.275-1.793 1.275-.966 0-1.504-.787-1.504-1.883 0-1.404.657-3.387 2.58-3.387zm3.916-2.062h-.04l-.927 6.624c-.06.469.11.748.528.748.14 0 .299-.04.429-.09l-.01-.03c-.13.05-.28.08-.419.08-.398 0-.548-.28-.488-.698l.927-6.634zm2.73.369c.049 0 .069-.03.069-.07 0-.04-.02-.07-.07-.07s-.07.03-.07.07c0 .04.02.07.07.07zm-.24 1.753h-.04l-.717 5.15h.04l.717-5.15zm4.064-.1c-1.603 0-2.43 1.654-2.43 3.317 0 1.315.667 2.033 1.674 2.033.607 0 1.025-.22 1.414-.528l-.03-.03c-.379.309-.807.518-1.384.518-.987 0-1.634-.698-1.634-1.993 0-1.643.807-3.277 2.39-3.277.509 0 .877.16 1.186.488l.03-.03c-.309-.328-.687-.498-1.216-.498zM3.258-77.33h.09v-3.407h2.54v-.07h-2.54v-3.217h2.938l.01-.08H3.258v6.774zM7.579-84.412a.1.1 0 0 0 0 .199c.07 0 .11-.05.11-.1s-.04-.1-.11-.1zm.04 1.932h-.08v5.15h.08v-5.15zm4.134-.1c-.807 0-1.285.429-1.604 1.475v-1.375h-.08v5.15h.08v-3.586c.34-1.136.797-1.594 1.604-1.594.19 0 .329.02.458.05l.01-.07c-.119-.03-.259-.05-.468-.05zM16.21-78.426v-2.61c0-.966-.388-1.544-1.444-1.544-.468 0-.936.11-1.484.34l.03.069c.538-.22.996-.339 1.454-.339 1.016 0 1.365.558 1.365 1.484v.658h-1.215c-1.226 0-2.003.578-2.003 1.604 0 .896.548 1.534 1.514 1.534.827 0 1.355-.389 1.714-1.096 0 .677.13.956.558 1.096l.02-.06c-.4-.13-.508-.418-.508-1.136zm-1.783 1.116c-.916 0-1.424-.598-1.424-1.454 0-.977.727-1.524 1.923-1.524h1.205v1.852c-.359.718-.857 1.126-1.704 1.126zM23.121-84.203c-1.075 0-1.783.667-1.783 1.534 0 .906.448 1.275 1.823 1.703 1.265.409 1.843.797 1.843 1.863s-.777 1.793-1.933 1.793c-.906 0-1.434-.309-1.922-.767l-.05.06c.508.468 1.066.787 1.972.787 1.206 0 2.013-.777 2.013-1.883 0-1.096-.598-1.514-1.893-1.923-1.345-.418-1.773-.766-1.773-1.633 0-.827.677-1.454 1.703-1.454.777 0 1.255.239 1.694.637l.05-.06c-.439-.388-.917-.657-1.744-.657zm6.705 5.777v-2.61c0-.966-.389-1.544-1.444-1.544-.469 0-.937.11-1.485.34l.03.069c.538-.22.996-.339 1.455-.339 1.015 0 1.364.558 1.364 1.484v.658h-1.215c-1.225 0-2.002.578-2.002 1.604 0 .896.548 1.534 1.514 1.534.827 0 1.354-.389 1.713-1.096 0 .677.13.956.558 1.096l.02-.06c-.399-.13-.508-.418-.508-1.136zm-1.783 1.116c-.917 0-1.425-.598-1.425-1.454 0-.977.728-1.524 1.923-1.524h1.205v1.852c-.359.718-.857 1.126-1.703 1.126zm6.286-5.27c-.857 0-1.484.498-1.962 1.295v-1.195h-.08v5.15h.08v-3.845c.488-.817 1.105-1.335 1.962-1.335.886 0 1.265.558 1.265 1.524v3.656h.08v-3.666c0-.996-.399-1.584-1.345-1.584zm4.712 0c-.826 0-1.494.498-1.494 1.236 0 .677.429 1.006 1.524 1.315 1.126.308 1.524.577 1.524 1.394 0 .827-.657 1.325-1.534 1.325-.777 0-1.225-.259-1.643-.637l-.05.06c.418.368.896.657 1.693.657.927 0 1.624-.548 1.624-1.405 0-.847-.428-1.145-1.574-1.464-1.076-.3-1.484-.608-1.484-1.245 0-.698.637-1.166 1.414-1.166.628 0 1.026.17 1.445.518l.05-.06c-.419-.348-.857-.528-1.495-.528zM49.325-84.104h-3.088l-.946 6.774h3.177l.01-.07H45.38l.498-3.476h2.57l.01-.08h-2.57l.428-3.068h2.989l.02-.08zm1.863-.11c.07 0 .11-.05.11-.099 0-.06-.04-.1-.1-.1-.07 0-.1.05-.1.11 0 .05.03.09.09.09zm-.21 1.734H50.9l-.727 5.15h.08l.727-5.15zm4.115-.1c-1.852 0-2.52 1.903-2.52 3.298.01 1.135.558 1.952 1.544 1.952.648 0 1.305-.408 1.753-1.235l-.2 1.335c-.198 1.354-.895 1.753-1.732 1.753-.687 0-1.216-.23-1.564-.458l-.03.07c.339.218.907.458 1.594.458.876 0 1.604-.409 1.813-1.823l.727-4.951c-.349-.24-.757-.399-1.385-.399zm0 .07c.568 0 .967.14 1.305.369l-.508 3.426c-.458.857-1.086 1.315-1.773 1.315-.936 0-1.454-.787-1.454-1.882-.01-1.365.637-3.228 2.43-3.228zm5.888-.07c-.847 0-1.574.548-2.231 1.843l.548-3.875-.08.01-1.026 7.272h.08l.458-3.227c.677-1.355 1.384-1.953 2.241-1.953.877 0 1.176.558 1.046 1.524L61.5-77.33h.08l.518-3.666c.13-.986-.2-1.584-1.116-1.584zm3.706.17h1.445l.01-.07h-1.445l.19-1.335-.06.01-.21 1.325h-.866v.07h.857l-.548 3.944c-.11.797.229 1.236.886 1.236.409 0 .718-.13.997-.29l-.03-.059c-.28.15-.578.269-.967.269-.627 0-.916-.418-.806-1.156l.547-3.944zM71.303-84.104h-.09l-.946 6.774h.08l.956-6.774zm2.26 1.694h1.445l.01-.07h-1.444l.19-1.335-.06.01-.21 1.325h-.866v.07h.856l-.548 3.944c-.109.797.23 1.236.887 1.236.408 0 .717-.13.996-.29l-.03-.059c-.279.15-.578.269-.966.269-.627 0-.916-.418-.807-1.156l.548-3.944zM78.421-82.58c-1.942 0-2.61 1.993-2.61 3.407 0 1.146.558 1.943 1.554 1.943.658 0 1.315-.409 1.754-1.196-.06.489-.08.996.418 1.196l.02-.07c-.438-.18-.438-.598-.349-1.205l.518-3.676a2.254 2.254 0 0 0-1.305-.399zm0 .07c.488 0 .887.14 1.215.369l-.497 3.566c-.469.857-1.116 1.265-1.773 1.265-.947 0-1.475-.757-1.475-1.863 0-1.374.648-3.337 2.53-3.337zm3.985-2.102l-.08.01-.925 6.605c-.07.488.119.767.547.767.15 0 .31-.04.439-.09l-.02-.07c-.13.05-.28.08-.419.08-.388 0-.528-.259-.468-.677l.926-6.625zm2.7.399c.07 0 .11-.05.11-.1 0-.06-.04-.1-.1-.1-.07 0-.1.05-.1.11 0 .05.03.09.09.09zm-.209 1.733h-.08l-.727 5.15h.08l.727-5.15zm4.045-.1c-1.644 0-2.45 1.694-2.45 3.318 0 1.315.686 2.032 1.693 2.032.607 0 1.046-.22 1.434-.528l-.05-.06c-.378.309-.806.508-1.374.508-.976 0-1.614-.677-1.614-1.952 0-1.584.767-3.248 2.36-3.248.509 0 .877.16 1.176.478l.06-.05c-.319-.328-.707-.498-1.235-.498zM125.639-77.33h.15v-3.377h2.52v-.13h-2.52v-3.137h2.918l.02-.13h-3.088v6.774zM130.002-84.462c-.09 0-.14.07-.14.14 0 .069.05.139.14.139.1 0 .15-.07.15-.14s-.05-.14-.15-.14zm.07 1.972h-.14v5.16h.14v-5.16zm4.114-.1c-.797 0-1.275.439-1.584 1.445v-1.345h-.13v5.16h.14v-3.506c.329-1.136.777-1.624 1.574-1.624.189 0 .329.02.458.05l.03-.12c-.12-.03-.27-.06-.488-.06zM138.676-78.426v-2.61c0-.986-.408-1.553-1.484-1.553-.478 0-.946.119-1.484.338l.04.12c.528-.21.986-.329 1.444-.329 1.006 0 1.345.528 1.345 1.444v.638h-1.195c-1.226 0-2.013.578-2.013 1.614 0 .906.558 1.534 1.534 1.534.797 0 1.335-.369 1.694-1.056.01.657.16.926.578 1.056l.04-.1c-.379-.13-.499-.388-.499-1.096zm-1.813 1.066c-.876 0-1.384-.568-1.384-1.404 0-.967.717-1.485 1.883-1.485h1.175v1.783c-.349.698-.847 1.106-1.674 1.106zM145.52-84.203c-1.086 0-1.804.667-1.804 1.544 0 .906.459 1.295 1.833 1.723 1.265.409 1.813.787 1.813 1.823 0 1.046-.767 1.743-1.902 1.743-.887 0-1.415-.299-1.903-.757l-.09.1c.518.478 1.096.797 1.993.797 1.215 0 2.042-.777 2.042-1.893 0-1.106-.598-1.524-1.903-1.933-1.305-.408-1.743-.756-1.743-1.603 0-.807.657-1.415 1.663-1.415.747 0 1.226.23 1.674.648l.09-.11c-.449-.398-.937-.667-1.764-.667zm6.714 5.777v-2.61c0-.986-.409-1.553-1.484-1.553-.478 0-.946.119-1.485.338l.04.12c.528-.21.986-.329 1.445-.329 1.006 0 1.344.528 1.344 1.444v.638H150.9c-1.225 0-2.012.578-2.012 1.614 0 .906.558 1.534 1.534 1.534.797 0 1.335-.369 1.693-1.056.01.657.16.926.578 1.056l.04-.1c-.379-.13-.498-.388-.498-1.096zm-1.813 1.066c-.877 0-1.385-.568-1.385-1.404 0-.967.718-1.485 1.883-1.485h1.175v1.783c-.348.698-.846 1.106-1.673 1.106zm6.306-5.23c-.847 0-1.464.479-1.933 1.236l-.01-1.136h-.129v5.16h.14v-3.835c.488-.787 1.085-1.295 1.932-1.295s1.225.518 1.225 1.474v3.656h.14v-3.666c0-1.006-.419-1.593-1.365-1.593zm4.732 0c-.856 0-1.534.508-1.534 1.256 0 .687.439 1.026 1.534 1.324 1.126.31 1.505.578 1.505 1.365 0 .807-.648 1.285-1.505 1.285-.757 0-1.195-.249-1.623-.627l-.09.1c.428.368.916.657 1.713.657.957 0 1.654-.558 1.654-1.415s-.438-1.165-1.584-1.484c-1.056-.29-1.454-.578-1.454-1.205 0-.678.607-1.126 1.384-1.126.608 0 .996.17 1.425.508l.08-.1c-.429-.358-.877-.537-1.505-.537zM167.76-77.33l.5-3.546h3.764l-.508 3.546h.15l.946-6.774h-.14l-.438 3.088h-3.755l.438-3.088h-.15l-.945 6.774h.139zm8.818-5.26c-1.923 0-2.6 1.993-2.6 3.397 0 1.176.567 1.963 1.574 1.963.667 0 1.295-.409 1.723-1.136-.07.528-.02.956.438 1.136l.04-.11c-.419-.17-.419-.558-.339-1.136l.528-3.705a2.384 2.384 0 0 0-1.364-.408zm0 .12c.498 0 .886.14 1.215.359l-.498 3.496c-.458.837-1.076 1.255-1.743 1.255-.917 0-1.435-.727-1.435-1.833 0-1.344.638-3.277 2.46-3.277zm4.015-1.713c.09 0 .15-.07.15-.15 0-.08-.05-.13-.13-.13-.1 0-.15.07-.15.15 0 .07.05.13.13.13zm-.18 1.693h-.139l-.727 5.16h.14l.726-5.16zm4.125-.1c-.827 0-1.375.488-1.813 1.624l.209-1.524h-.12l-.727 5.16h.14l.468-3.327c.498-1.265 1.026-1.803 1.843-1.803.169 0 .328.03.428.06l.04-.12c-.11-.03-.28-.07-.468-.07zM189.82-84.104h-.15l-.946 6.774h.139l.956-6.774zm2.28 1.744h1.425l.03-.13h-1.434l.189-1.325-.11.01-.219 1.315h-.866l-.01.13h.857l-.539 3.884c-.119.807.24 1.246.907 1.246.408 0 .727-.13 1.016-.29l-.05-.109c-.279.15-.578.269-.956.269-.618 0-.887-.398-.777-1.126l.538-3.874zM196.868-82.59c-1.922 0-2.6 1.993-2.6 3.397 0 1.176.568 1.963 1.574 1.963.667 0 1.295-.409 1.723-1.136-.07.528-.02.956.439 1.136l.04-.11c-.42-.17-.42-.558-.34-1.136l.529-3.705a2.383 2.383 0 0 0-1.365-.408zm0 .12c.498 0 .887.14 1.215.359l-.498 3.496c-.458.837-1.076 1.255-1.743 1.255-.917 0-1.434-.727-1.434-1.833 0-1.344.637-3.277 2.46-3.277zm4.085-2.162l-.14.02-.926 6.585c-.07.518.14.797.588.797.15 0 .319-.04.448-.09l-.03-.12c-.13.04-.279.08-.418.08-.379 0-.508-.249-.449-.657l.927-6.615zm2.68.449c.09 0 .15-.07.15-.15 0-.08-.05-.13-.13-.13-.1 0-.15.07-.15.15 0 .07.05.13.13.13zm-.18 1.693h-.139l-.727 5.16h.14l.726-5.16zm4.015-.1c-1.703 0-2.47 1.773-2.47 3.318 0 1.325.697 2.042 1.723 2.042.598 0 1.056-.21 1.454-.528l-.08-.1c-.378.299-.806.498-1.364.498-.956 0-1.584-.657-1.584-1.912 0-1.485.717-3.188 2.321-3.188.508 0 .867.16 1.166.458l.09-.09c-.32-.328-.718-.497-1.256-.497zM3.218-65.375h.23v-3.337h2.49v-.21h-2.49v-3.027h2.888l.03-.21H3.218v6.784zM7.62-72.587c-.129 0-.199.1-.199.2 0 .099.07.189.2.189s.2-.09.2-.19-.07-.199-.2-.199zm.11 2.042h-.219v5.17h.22v-5.17zm4.105-.1c-.787 0-1.266.439-1.554 1.385l-.01-1.285h-.19v5.17h.22v-3.427c.328-1.115.757-1.643 1.534-1.643.179 0 .328.02.458.05l.05-.19c-.12-.03-.28-.06-.508-.06zM16.357-66.47v-2.61c0-1.017-.439-1.564-1.534-1.564-.499 0-.967.119-1.495.338l.06.19c.518-.21.976-.33 1.435-.33.985 0 1.314.489 1.314 1.385v.618h-1.175c-1.225 0-2.022.578-2.022 1.634 0 .916.568 1.534 1.554 1.534.767 0 1.305-.35 1.673-1.007.01.618.2.877.608 1.007l.05-.16c-.339-.12-.468-.348-.468-1.036zm-1.863.985c-.827 0-1.325-.508-1.325-1.324 0-.947.697-1.435 1.833-1.435h1.135v1.694c-.338.667-.846 1.065-1.643 1.065zM23.11-72.258c-1.116 0-1.843.677-1.843 1.564 0 .906.478 1.325 1.853 1.753 1.265.398 1.773.767 1.773 1.763 0 1.026-.747 1.683-1.863 1.683-.857 0-1.385-.298-1.873-.747l-.15.15c.539.488 1.136.817 2.033.817 1.225 0 2.072-.777 2.072-1.913 0-1.106-.588-1.544-1.913-1.952-1.255-.389-1.703-.728-1.703-1.554 0-.787.627-1.355 1.614-1.355.707 0 1.175.21 1.643.647l.15-.169c-.478-.418-.967-.687-1.793-.687zm6.744 5.787v-2.61c0-1.016-.438-1.563-1.534-1.563-.498 0-.966.119-1.494.338l.06.19c.518-.21.976-.33 1.434-.33.986 0 1.315.489 1.315 1.385v.618h-1.176c-1.225 0-2.022.578-2.022 1.634 0 .916.568 1.534 1.554 1.534.767 0 1.305-.35 1.674-1.007.01.618.199.877.607 1.007l.05-.16c-.338-.12-.468-.348-.468-1.036zm-1.863.986c-.827 0-1.325-.508-1.325-1.324 0-.947.698-1.435 1.833-1.435h1.136v1.694c-.339.667-.847 1.065-1.644 1.065zm6.326-5.16c-.816 0-1.434.459-1.902 1.156l-.02-1.056h-.19v5.17h.22V-69.2c.488-.747 1.056-1.245 1.892-1.245.787 0 1.166.478 1.166 1.414v3.656h.22v-3.676c0-1.016-.44-1.593-1.386-1.593zm4.733 0c-.877 0-1.574.518-1.574 1.276 0 .697.448 1.046 1.544 1.334 1.126.31 1.474.578 1.474 1.325 0 .787-.627 1.225-1.454 1.225-.737 0-1.166-.229-1.614-.597l-.13.15c.439.368.937.657 1.744.657.986 0 1.683-.578 1.683-1.435 0-.857-.438-1.185-1.604-1.504-1.026-.279-1.414-.548-1.414-1.155 0-.658.578-1.076 1.355-1.076.577 0 .956.17 1.394.508l.13-.16c-.458-.368-.917-.547-1.534-.547zM49.464-72.158H45.01l-.02.219h2.092l-.926 6.564h.219l.926-6.564h2.092l.07-.22zm3.218 1.514c-.817 0-1.574.567-2.142 1.693l.528-3.756-.219.03-1.036 7.302h.22l.448-3.138c.627-1.215 1.314-1.942 2.171-1.942.787 0 1.086.478.956 1.424l-.518 3.656h.22l.517-3.676c.14-1.006-.229-1.593-1.145-1.593zm4.005-1.554c.13 0 .22-.1.22-.21 0-.11-.07-.179-.19-.179-.13 0-.21.1-.21.22 0 .099.07.169.18.169zm-.13 1.653h-.218l-.738 5.17h.22l.736-5.17zm4.483-.1c-.826 0-1.563.578-2.151 1.704l.2-1.604h-.18l-.737 5.17h.219l.448-3.138c.628-1.215 1.335-1.942 2.191-1.942.748 0 1.066.478.937 1.424l-.518 3.656h.219l.518-3.676c.14-1.006-.25-1.593-1.146-1.593zM68.138-72.158h-.23l-.956 6.783h.23l.956-6.783zm2.301 1.812h1.395l.06-.199h-1.435l.19-1.325-.17.02-.239 1.305h-.857l-.02.2h.847l-.528 3.805c-.12.826.269 1.265.947 1.265.408 0 .746-.13 1.045-.3l-.08-.168c-.278.149-.587.268-.945.268-.608 0-.847-.378-.748-1.075l.538-3.796zM75.098-70.644c-1.912 0-2.59 1.982-2.59 3.377 0 1.224.588 1.992 1.594 1.992.677 0 1.275-.409 1.684-1.066-.08.588.06.906.468 1.066l.07-.17c-.389-.16-.399-.498-.32-1.046l.538-3.745c-.388-.23-.816-.408-1.444-.408zm0 .189c.498 0 .887.13 1.205.328l-.488 3.407c-.458.817-1.026 1.235-1.713 1.235-.876 0-1.374-.677-1.374-1.793 0-1.284.617-3.177 2.37-3.177zm4.204-2.252l-.219.03-.926 6.555c-.08.568.16.847.627.847.16 0 .34-.05.479-.1l-.06-.19c-.12.04-.269.08-.409.08-.358 0-.478-.219-.418-.617l.926-6.605zm2.63.509c.13 0 .22-.1.22-.21 0-.11-.07-.179-.19-.179-.129 0-.209.1-.209.22 0 .099.07.169.18.169zm-.129 1.653h-.219l-.737 5.17h.219l.737-5.17zm3.995-.1c-1.783 0-2.5 1.873-2.5 3.307 0 1.335.707 2.063 1.763 2.063.587 0 1.065-.21 1.474-.528l-.12-.16c-.378.29-.806.478-1.344.478-.937 0-1.544-.617-1.544-1.853 0-1.344.637-3.107 2.26-3.107.509 0 .868.16 1.156.438l.14-.14c-.339-.338-.747-.497-1.285-.497zM125.58-65.375h.348v-3.277h2.45v-.309h-2.45v-2.889h2.84l.049-.318h-3.238v6.793zM130.051-72.687a.27.27 0 0 0-.279.27c0 .149.11.278.28.278.189 0 .288-.13.288-.279 0-.14-.1-.269-.289-.269zm.18 2.132h-.34v5.18h.34v-5.18zm4.094-.11c-.777 0-1.245.439-1.524 1.335l-.02-1.225h-.289v5.18h.339v-3.307c.309-1.116.717-1.674 1.484-1.674.17 0 .329.02.458.06l.07-.309c-.12-.03-.289-.06-.518-.06zM138.894-66.48v-2.59c0-1.047-.478-1.594-1.604-1.594-.528 0-1.006.129-1.524.348l.09.28c.507-.2.966-.32 1.414-.32.966 0 1.285.439 1.285 1.315v.578h-1.136c-1.235 0-2.052.578-2.052 1.654 0 .926.588 1.534 1.574 1.534.737 0 1.285-.32 1.664-.937.02.568.239.817.647.937l.08-.24c-.299-.12-.438-.298-.438-.966zm-1.933.896c-.757 0-1.235-.448-1.235-1.235 0-.907.667-1.355 1.763-1.355h1.066v1.574c-.339.637-.837 1.016-1.594 1.016zM145.517-72.278c-1.146 0-1.893.697-1.893 1.604 0 .916.508 1.364 1.883 1.793 1.255.388 1.713.747 1.713 1.693 0 .976-.727 1.594-1.793 1.594-.826 0-1.355-.3-1.853-.747l-.219.239c.558.498 1.186.827 2.082.827 1.255 0 2.132-.777 2.132-1.933 0-1.125-.608-1.574-1.932-1.972-1.216-.369-1.654-.707-1.654-1.494 0-.758.598-1.275 1.544-1.275.667 0 1.116.189 1.614.637l.219-.239c-.498-.448-.996-.727-1.843-.727zm6.804 5.797v-2.59c0-1.046-.478-1.593-1.604-1.593-.528 0-1.006.129-1.524.348l.09.28c.508-.2.966-.32 1.414-.32.967 0 1.285.439 1.285 1.315v.578h-1.135c-1.235 0-2.052.578-2.052 1.654 0 .926.587 1.534 1.574 1.534.737 0 1.285-.32 1.663-.937.02.568.24.817.648.937l.08-.24c-.3-.12-.439-.298-.439-.966zm-1.932.897c-.758 0-1.236-.448-1.236-1.235 0-.907.668-1.355 1.764-1.355h1.065v1.574c-.338.637-.836 1.016-1.593 1.016zm6.376-5.08c-.807 0-1.405.438-1.853 1.075l-.04-.966h-.289v5.18h.339v-3.805c.478-.697 1.016-1.186 1.813-1.186.727 0 1.086.429 1.086 1.345v3.646h.338v-3.696c0-1.006-.458-1.593-1.394-1.593zm4.742 0c-.917 0-1.634.537-1.634 1.305 0 .727.449 1.075 1.544 1.364 1.126.31 1.445.568 1.445 1.275 0 .737-.598 1.136-1.395 1.136-.697 0-1.126-.21-1.584-.568l-.199.22c.448.368.966.657 1.783.657 1.016 0 1.743-.578 1.743-1.455 0-.866-.458-1.215-1.623-1.534-.987-.259-1.365-.508-1.365-1.085 0-.618.538-1.007 1.295-1.007.548 0 .926.16 1.375.498l.189-.229c-.488-.388-.957-.577-1.574-.577zM172.552-72.168h-.349l-.657 4.671c-.15 1.096-.777 1.903-2.052 1.903-1.245 0-1.654-.747-1.494-1.883l.657-4.691h-.349l-.657 4.701c-.18 1.275.339 2.192 1.833 2.192 1.464 0 2.231-.897 2.41-2.172l.658-4.721zm2.6-.568l-.338.05-.916 6.494c-.09.638.179.917.687.917.17 0 .359-.05.508-.11l-.08-.279c-.11.04-.259.08-.398.08-.339 0-.438-.19-.389-.568l.927-6.584zm2.422 2.47h1.364l.09-.289h-1.415l.19-1.325-.26.03-.258 1.295h-.857l-.04.29h.847l-.518 3.695c-.12.846.309 1.295 1.006 1.295.408 0 .757-.12 1.086-.3l-.13-.268c-.279.15-.587.269-.916.269-.588 0-.787-.349-.707-1.006l.517-3.686zm4.871-.398c-.837 0-1.365.587-1.753 1.504l.19-1.395h-.29l-.737 5.18h.339l.438-3.108c.478-1.145.966-1.863 1.803-1.863.15 0 .309.02.398.06l.1-.309a1.89 1.89 0 0 0-.488-.07zM185.748-70.664c-1.903 0-2.59 1.982-2.59 3.367 0 1.275.607 2.022 1.613 2.022.697 0 1.265-.399 1.644-.987-.08.638.169.867.538.987l.1-.25c-.36-.149-.37-.438-.3-.946l.548-3.765c-.428-.239-.866-.428-1.553-.428zm.02.288c.487 0 .856.12 1.165.3l-.468 3.296c-.459.767-.977 1.196-1.664 1.196-.827 0-1.295-.608-1.295-1.724 0-1.225.598-3.068 2.262-3.068zm4.383-1.792h-.349l-.956 6.793h3.158l.12-.329h-2.88l.907-6.464zm4.334.03c.189 0 .308-.14.308-.31 0-.139-.099-.239-.248-.239-.19 0-.31.14-.31.3 0 .149.1.248.25.248zm-.06 1.583h-.339l-.737 5.18h.339l.737-5.18zm4.005-.11c-1.903 0-2.61 1.963-2.6 3.278.01 1.235.617 2.012 1.624 2.012.697 0 1.255-.398 1.633-.976l-.14 1.026c-.169 1.205-.876 1.643-1.673 1.643-.647 0-1.095-.199-1.534-.428l-.14.26c.429.238.987.467 1.664.467.976 0 1.803-.488 2.022-1.982l.698-4.87c-.419-.24-.837-.43-1.554-.43zm.01.29c.488 0 .876.12 1.185.298l-.458 3.218c-.458.757-.996 1.175-1.684 1.175-.816 0-1.295-.637-1.304-1.713-.01-1.165.597-2.979 2.26-2.979zm6.007-.29c-.797 0-1.554.578-2.072 1.584l.518-3.665-.338.06-1.037 7.311h.34l.438-3.088c.577-1.116 1.264-1.903 2.111-1.903.698 0 .996.419.867 1.335l-.518 3.656h.339l.517-3.676c.15-1.016-.248-1.613-1.165-1.613zm3.846.4h1.364l.09-.29h-1.414l.189-1.325-.259.03-.259 1.295h-.856l-.04.29h.846l-.518 3.695c-.12.846.309 1.295 1.006 1.295.409 0 .757-.12 1.086-.3l-.13-.268c-.278.15-.587.269-.916.269-.588 0-.787-.349-.707-1.006l.518-3.686zM214.774-72.168h-.348l-.956 6.793h.348l.956-6.793zm2.332 1.902h1.364l.09-.289h-1.415l.19-1.325-.26.03-.258 1.295h-.857l-.04.29h.847l-.518 3.695c-.12.846.309 1.295 1.006 1.295.408 0 .757-.12 1.086-.3l-.13-.268c-.279.15-.587.269-.916.269-.588 0-.787-.349-.707-1.006l.518-3.686zM221.652-70.664c-1.903 0-2.59 1.982-2.59 3.367 0 1.275.607 2.022 1.613 2.022.698 0 1.265-.399 1.644-.987-.08.638.17.867.538.987l.1-.25c-.359-.149-.369-.438-.3-.946l.548-3.765c-.428-.239-.866-.428-1.553-.428zm.02.288c.488 0 .856.12 1.165.3l-.468 3.296c-.458.767-.976 1.196-1.663 1.196-.827 0-1.295-.608-1.295-1.724 0-1.225.597-3.068 2.26-3.068zm4.353-2.36l-.338.05-.917 6.494c-.09.638.18.917.688.917.169 0 .358-.05.508-.11l-.08-.279c-.11.04-.259.08-.398.08-.34 0-.439-.19-.39-.568l.927-6.584zm2.58.597c.19 0 .31-.14.31-.309 0-.139-.1-.239-.25-.239-.189 0-.308.14-.308.3 0 .149.1.248.249.248zm-.06 1.584h-.338l-.737 5.18h.339l.737-5.18zm3.946-.11c-1.873 0-2.54 1.973-2.54 3.318 0 1.344.727 2.072 1.813 2.072.587 0 1.086-.2 1.514-.528l-.17-.25c-.388.28-.806.469-1.334.469-.897 0-1.474-.578-1.474-1.763 0-1.196.557-3.009 2.18-3.009.499 0 .848.16 1.126.419l.21-.22c-.349-.348-.777-.507-1.325-.507zM3.139-53.419h.468v-3.227h2.41v-.399h-2.41v-2.779h2.789l.06-.408H3.138v6.813zM7.71-60.83c-.22 0-.36.16-.36.349 0 .189.14.348.36.348.218 0 .358-.16.358-.348 0-.19-.14-.35-.359-.35zm.228 2.211H7.48v5.2h.458v-5.2zm4.095-.1c-.747 0-1.215.43-1.495 1.306l-.03-1.206h-.398v5.2h.458v-3.247c.29-1.086.698-1.624 1.445-1.624.17 0 .319.02.458.06l.08-.429c-.12-.04-.29-.06-.518-.06zM16.672-54.545v-2.56c0-1.046-.508-1.613-1.664-1.613-.528 0-1.026.12-1.584.338l.13.369c.508-.2.976-.309 1.414-.309.907 0 1.246.399 1.246 1.245v.548h-1.066c-1.285 0-2.112.588-2.112 1.664 0 .926.598 1.554 1.594 1.554.717 0 1.265-.31 1.643-.907.05.558.3.797.728.907l.109-.329c-.289-.11-.438-.29-.438-.907zm-1.982.847c-.728 0-1.166-.428-1.166-1.175 0-.877.627-1.295 1.693-1.295h.997v1.484c-.33.628-.807.986-1.524.986zM23.227-60.332c-1.166 0-1.943.697-1.943 1.634 0 .946.538 1.414 1.913 1.832 1.235.379 1.663.738 1.663 1.614 0 .956-.717 1.524-1.723 1.524-.817 0-1.345-.289-1.843-.737l-.279.309c.548.518 1.215.847 2.132.847 1.315 0 2.191-.797 2.191-1.953 0-1.165-.677-1.614-1.952-2.002-1.215-.369-1.624-.697-1.624-1.444 0-.728.588-1.216 1.475-1.216.647 0 1.105.19 1.613.638l.28-.309c-.519-.458-1.037-.737-1.903-.737zm6.884 5.787v-2.56c0-1.046-.509-1.613-1.664-1.613-.528 0-1.026.12-1.584.338l.13.369c.508-.2.976-.309 1.414-.309.907 0 1.245.399 1.245 1.245v.548h-1.066c-1.285 0-2.111.588-2.111 1.664 0 .926.597 1.554 1.593 1.554.718 0 1.266-.31 1.644-.907.05.558.299.797.727.907l.11-.329c-.29-.11-.438-.29-.438-.907zm-1.983.847c-.727 0-1.165-.428-1.165-1.175 0-.877.627-1.295 1.693-1.295h.996v1.484c-.328.628-.806.986-1.524.986zm6.396-5.02c-.767 0-1.365.418-1.803 1.026l-.04-.927h-.398v5.2h.458v-3.795c.448-.658.966-1.126 1.723-1.126.678 0 1.026.389 1.026 1.275v3.646h.458v-3.706c0-1.016-.478-1.593-1.424-1.593zm4.742 0c-.956 0-1.683.547-1.683 1.334 0 .718.448 1.106 1.554 1.395 1.105.299 1.404.538 1.404 1.205 0 .688-.557 1.076-1.335 1.076-.677 0-1.105-.21-1.563-.568l-.26.3c.449.378.987.667 1.823.667 1.036 0 1.813-.568 1.813-1.485 0-.886-.498-1.245-1.653-1.554-.957-.258-1.305-.498-1.305-1.036 0-.587.498-.946 1.225-.946.538 0 .917.16 1.365.488l.239-.309c-.488-.378-.986-.567-1.624-.567zM49.464-60.232h-3.367l-.966 6.813h3.437l.07-.408h-2.969l.418-2.939h2.45l.06-.408h-2.46l.369-2.65h2.839l.119-.408zm4.374 1.613H53.3l-1.644 2.132L50.6-58.62h-.498l1.245 2.401-2.23 2.799h.547l1.922-2.48 1.236 2.48h.518l-1.445-2.75 1.943-2.45zm1.823.389h1.315l.11-.389H55.72l.18-1.315-.36.04-.268 1.275h-.877l-.06.389h.877l-.508 3.576c-.13.876.309 1.345 1.056 1.345a2.1 2.1 0 0 0 1.095-.319l-.169-.339c-.279.14-.558.25-.877.25-.547 0-.737-.32-.647-.947l.498-3.566zm4.882-.488c-.788 0-1.315.537-1.704 1.434l.16-1.335H58.6l-.737 5.2h.458l.439-3.038c.458-1.126.936-1.833 1.743-1.833.15 0 .298.03.408.06l.13-.419c-.12-.04-.3-.07-.498-.07zM63.854-58.718c-1.933 0-2.64 1.982-2.64 3.387 0 1.255.608 2.022 1.633 2.022.678 0 1.236-.399 1.624-.967-.05.628.21.847.618.967l.13-.339c-.35-.14-.37-.408-.31-.887l.548-3.765c-.458-.239-.916-.418-1.603-.418zm.01.378c.458 0 .806.1 1.105.27l-.458 3.207c-.448.727-.946 1.155-1.614 1.155-.757 0-1.195-.568-1.195-1.633 0-1.216.568-2.999 2.161-2.999zm4.483-1.892h-.469l-.966 6.813h3.268l.13-.438h-2.85l.887-6.375zm4.353.1c.22 0 .379-.17.379-.39 0-.179-.12-.308-.319-.308-.229 0-.388.17-.388.388 0 .18.13.31.328.31zm-.01 1.513h-.458l-.737 5.2h.458l.737-5.2zm3.995-.1c-1.932 0-2.66 1.933-2.65 3.298.01 1.225.618 2.002 1.644 2.002.658 0 1.215-.378 1.604-.936l-.14.946c-.169 1.225-.866 1.614-1.653 1.614-.618 0-1.096-.21-1.494-.429l-.19.35c.449.258 1.026.477 1.694.477 1.026 0 1.883-.508 2.102-2.042l.707-4.86c-.458-.24-.917-.42-1.624-.42zm.01.38c.458 0 .817.099 1.116.268l-.448 3.118c-.439.717-.967 1.136-1.634 1.136-.757 0-1.205-.578-1.205-1.604-.01-1.195.577-2.919 2.171-2.919zm6.048-.38c-.778 0-1.495.548-2.003 1.475l.508-3.556-.468.06-1.036 7.321h.458l.439-3.108c.557-1.026 1.215-1.803 2.032-1.803.637 0 .916.379.797 1.255l-.518 3.656h.458l.518-3.686c.15-1.016-.27-1.613-1.185-1.613zm3.915.489h1.315l.11-.389h-1.365l.179-1.315-.359.04-.269 1.275h-.876l-.06.389h.877l-.508 3.576c-.13.876.308 1.345 1.056 1.345a2.1 2.1 0 0 0 1.095-.319l-.17-.339c-.278.14-.557.25-.876.25-.547 0-.737-.32-.647-.947l.498-3.566zM93.13-60.232h-.468l-.966 6.813h.478l.957-6.813zm2.392 2.002h1.314l.11-.389H95.58l.18-1.315-.359.04-.269 1.275h-.876l-.06.389h.876l-.508 3.576c-.13.876.309 1.345 1.056 1.345a2.1 2.1 0 0 0 1.096-.319l-.17-.339c-.278.14-.557.25-.876.25-.548 0-.737-.32-.648-.947l.499-3.566zM100.061-58.718c-1.932 0-2.64 1.982-2.64 3.387 0 1.255.608 2.022 1.634 2.022.678 0 1.235-.399 1.624-.967-.05.628.209.847.617.967l.13-.339c-.349-.14-.369-.408-.309-.887l.548-3.765c-.458-.239-.916-.418-1.604-.418zm.01.378c.459 0 .807.1 1.106.27l-.458 3.207c-.448.727-.947 1.155-1.614 1.155-.757 0-1.195-.568-1.195-1.633 0-1.216.567-2.999 2.161-2.999zm4.454-2.46l-.458.06-.907 6.434c-.1.678.2.997.737.997.19 0 .389-.05.558-.13l-.11-.358c-.11.04-.249.08-.388.08-.309 0-.399-.18-.349-.529l.917-6.554zm2.54.667c.22 0 .379-.17.379-.388 0-.18-.12-.31-.32-.31-.228 0-.388.17-.388.39 0 .179.13.308.33.308zm-.01 1.514h-.458l-.737 5.2h.458l.737-5.2zm3.915-.1c-1.882 0-2.57 1.973-2.57 3.318s.727 2.092 1.853 2.092c.578 0 1.096-.2 1.534-.538l-.209-.33c-.389.27-.797.45-1.305.45-.857 0-1.395-.529-1.395-1.654 0-1.176.528-2.949 2.082-2.949.488 0 .817.16 1.106.419l.269-.29c-.369-.358-.807-.517-1.365-.517zM125.5-53.419h.597v-3.168h2.361v-.498h-2.36v-2.66h2.739l.07-.497H125.5v6.823zM130.16-60.92a.411.411 0 0 0-.429.419c0 .229.17.418.428.418.27 0 .439-.19.439-.418 0-.23-.17-.419-.439-.419zm.298 2.291h-.578v5.21h.578v-5.21zm4.095-.11c-.718 0-1.196.42-1.465 1.276l-.05-1.166h-.498v5.21h.578v-3.187c.279-1.066.667-1.585 1.385-1.585.179 0 .319.02.458.06l.11-.547a1.84 1.84 0 0 0-.518-.06zM139.238-54.575v-2.51c0-1.066-.518-1.653-1.703-1.653-.548 0-1.066.12-1.644.348l.15.439c.518-.19.996-.3 1.414-.3.867 0 1.205.37 1.205 1.196v.508h-.996c-1.335 0-2.161.588-2.161 1.684 0 .926.607 1.554 1.613 1.554.697 0 1.245-.29 1.624-.867.08.538.349.767.807.867l.13-.409c-.28-.11-.44-.279-.44-.857zm-2.022.797c-.688 0-1.096-.398-1.096-1.115 0-.827.588-1.235 1.634-1.235h.906v1.414c-.319.608-.777.936-1.444.936zM145.713-60.352c-1.195 0-2.002.707-2.002 1.674 0 .986.587 1.454 1.942 1.872 1.215.379 1.624.717 1.624 1.544 0 .917-.708 1.445-1.664 1.445-.797 0-1.325-.29-1.833-.728l-.338.379c.557.528 1.245.857 2.181.857 1.375 0 2.261-.807 2.261-1.973 0-1.205-.747-1.643-1.972-2.022-1.225-.368-1.594-.687-1.594-1.384 0-.718.578-1.156 1.415-1.156.627 0 1.085.19 1.594.628l.348-.379c-.538-.478-1.076-.757-1.962-.757zm6.953 5.777v-2.51c0-1.066-.517-1.653-1.703-1.653-.548 0-1.066.12-1.643.348l.149.439c.518-.19.996-.3 1.414-.3.867 0 1.206.37 1.206 1.196v.508h-.996c-1.335 0-2.162.588-2.162 1.684 0 .926.607 1.554 1.614 1.554.697 0 1.245-.29 1.623-.867.08.538.349.767.807.867l.13-.409c-.28-.11-.439-.279-.439-.857zm-2.022.797c-.687 0-1.096-.398-1.096-1.115 0-.827.588-1.235 1.634-1.235h.907v1.414c-.32.608-.777.936-1.445.936zm6.416-4.96c-.747 0-1.335.398-1.753.986l-.05-.877h-.498v5.21h.578v-3.775c.418-.638.906-1.076 1.614-1.076.637 0 .976.349.976 1.205v3.646h.577v-3.726c0-1.006-.498-1.593-1.444-1.593zm4.742 0c-.986 0-1.733.567-1.733 1.364 0 .728.448 1.136 1.564 1.425 1.076.299 1.364.528 1.364 1.155 0 .638-.527.997-1.275.997-.647 0-1.095-.2-1.543-.548l-.319.368c.448.379 1.016.668 1.862.668 1.046 0 1.883-.548 1.883-1.515 0-.886-.528-1.275-1.673-1.573-.927-.25-1.265-.469-1.265-.987 0-.537.468-.876 1.155-.876.528 0 .917.16 1.375.478l.269-.379c-.488-.378-.996-.577-1.664-.577zM169.155-60.242h-.598l-.966 6.823h3.357l.16-.538h-2.84l.887-6.285zm4.344.159c.269 0 .468-.2.468-.458 0-.22-.16-.379-.398-.379-.27 0-.469.2-.469.459 0 .219.16.378.399.378zm.06 1.454h-.578l-.737 5.21h.577l.738-5.21zm3.984-.11c-1.972 0-2.709 1.903-2.709 3.328.01 1.215.628 1.992 1.654 1.992.637 0 1.195-.368 1.573-.897l-.12.867c-.179 1.245-.876 1.584-1.633 1.584-.597 0-1.095-.21-1.474-.428l-.229.448c.458.269 1.066.488 1.723.488 1.086 0 1.953-.528 2.182-2.102l.707-4.85c-.498-.26-.976-.43-1.674-.43zm0 .469c.439 0 .757.09 1.056.239l-.438 3.038c-.438.657-.936 1.086-1.584 1.086-.697 0-1.125-.518-1.125-1.504-.01-1.215.567-2.86 2.091-2.86zm6.097-.468c-.767 0-1.444.518-1.922 1.374l.488-3.456-.588.07-1.035 7.331h.577l.438-3.118c.518-.956 1.156-1.713 1.943-1.713.568 0 .837.329.727 1.175l-.518 3.656h.578l.518-3.696c.15-1.016-.29-1.623-1.206-1.623zm3.986.577h1.265l.14-.468h-1.346l.19-1.315-.458.05-.29 1.265h-.886l-.07.468h.877l-.488 3.457c-.13.907.319 1.395 1.106 1.395.408 0 .777-.12 1.115-.319l-.199-.428c-.279.149-.548.249-.847.249-.498 0-.677-.29-.597-.897l.488-3.457zM194.112-60.242h-.598l-.966 6.823h.597l.967-6.823zm2.43 2.081h1.266l.14-.468h-1.346l.19-1.315-.458.05-.29 1.265h-.886l-.07.468h.877l-.488 3.457c-.13.907.319 1.395 1.106 1.395.408 0 .776-.12 1.115-.319l-.2-.428c-.278.149-.547.249-.846.249-.498 0-.677-.29-.597-.897l.488-3.457zM201.06-58.738c-1.962 0-2.679 2.002-2.679 3.407 0 1.245.608 2.022 1.643 2.022.658 0 1.216-.379 1.604-.947-.01.618.27.847.698.947l.17-.409c-.34-.15-.37-.388-.31-.837l.548-3.755c-.498-.259-.986-.428-1.674-.428zm.02.468c.429 0 .738.09 1.036.239l-.448 3.138c-.428.677-.906 1.096-1.554 1.096-.707 0-1.115-.519-1.115-1.534 0-1.206.557-2.94 2.082-2.94zm4.553-2.56l-.577.08-.897 6.365c-.11.737.21 1.076.797 1.076.19 0 .399-.05.598-.14l-.13-.438c-.11.04-.249.08-.378.08-.289 0-.369-.16-.329-.489l.916-6.534zm2.491.747c.27 0 .468-.2.468-.458 0-.22-.159-.379-.398-.379-.27 0-.468.2-.468.459 0 .219.16.378.398.378zm.06 1.454h-.578l-.737 5.21h.578l.737-5.21zm3.875-.11c-1.902 0-2.59 1.973-2.59 3.328 0 1.345.718 2.102 1.873 2.102.578 0 1.106-.19 1.564-.538l-.249-.409c-.399.27-.787.439-1.285.439-.797 0-1.305-.489-1.305-1.564 0-1.156.488-2.87 1.982-2.87.469 0 .797.15 1.086.42l.329-.37c-.379-.378-.847-.537-1.405-.537zM3.019-41.464h.857v-3.058h2.27v-.687h-2.27v-2.41l2.63-.001.1-.697H3.018v6.853zM7.87-49.174c-.349 0-.588.249-.588.578s.24.578.588.578c.359 0 .598-.25.598-.578s-.24-.578-.598-.578zm.429 2.47h-.837v5.24h.837v-5.24zm4.114-.12c-.658 0-1.146.41-1.425 1.216l-.08-1.096h-.717v5.24h.837v-3.038c.23-1.026.618-1.504 1.285-1.504.19 0 .309.02.458.06l.16-.817a2.18 2.18 0 0 0-.518-.06zM17.22-42.67v-2.43c0-1.086-.567-1.723-1.812-1.723-.578 0-1.146.12-1.773.358l.209.618c.538-.19 1.016-.289 1.414-.289.757 0 1.126.299 1.126 1.076v.418h-.857c-1.434 0-2.27.598-2.27 1.714 0 .936.617 1.584 1.653 1.584.657 0 1.215-.25 1.573-.807.14.518.469.737.977.807l.2-.588c-.28-.1-.44-.25-.44-.737zm-2.12.688c-.628 0-.957-.349-.957-.986 0-.747.518-1.116 1.494-1.116h.747v1.255c-.309.558-.717.847-1.285.847zM23.515-48.437c-1.245 0-2.122.737-2.122 1.763 0 1.046.668 1.554 2.013 1.962 1.175.36 1.514.668 1.514 1.375 0 .847-.678 1.275-1.514 1.275-.758 0-1.295-.269-1.813-.697l-.478.538c.567.548 1.324.877 2.3.877 1.505 0 2.401-.827 2.401-2.023 0-1.285-.886-1.723-2.012-2.062-1.235-.378-1.524-.667-1.524-1.275 0-.667.548-1.016 1.275-1.016.578 0 1.056.18 1.574.598l.468-.528c-.558-.508-1.146-.787-2.082-.787zm7.133 5.768V-45.1c0-1.086-.568-1.723-1.813-1.723-.578 0-1.146.12-1.773.358l.21.618c.537-.19 1.015-.289 1.414-.289.757 0 1.125.299 1.125 1.076v.418h-.857c-1.434 0-2.27.598-2.27 1.714 0 .936.617 1.584 1.653 1.584.657 0 1.215-.25 1.574-.807.14.518.468.737.976.807l.2-.588c-.28-.1-.439-.25-.439-.737zm-2.122.687c-.627 0-.956-.349-.956-.986 0-.747.518-1.116 1.494-1.116h.747v1.255c-.308.558-.717.847-1.285.847zm6.456-4.841c-.697 0-1.265.368-1.644.916l-.07-.797h-.717v5.24h.837v-3.735c.369-.578.787-.967 1.404-.967.539 0 .857.26.857 1.066v3.636h.837v-3.755c0-.997-.538-1.604-1.504-1.604zm4.742 0c-1.056 0-1.853.597-1.853 1.424 0 .737.448 1.206 1.584 1.504 1.026.28 1.295.478 1.295 1.026 0 .528-.458.847-1.166.847-.587 0-1.065-.2-1.484-.518l-.448.508c.448.399 1.076.688 1.952.688 1.056 0 2.023-.508 2.023-1.574 0-.917-.608-1.335-1.724-1.624-.866-.23-1.155-.428-1.155-.877 0-.448.388-.737 1.006-.737.498 0 .906.15 1.365.459l.368-.529a2.752 2.752 0 0 0-1.763-.597zM48.746-45.09c.837-.16 1.534-.737 1.534-1.703 0-1.046-.886-1.524-2.131-1.524h-1.843l-.967 6.853h1.883c2.212 0 2.909-1.016 2.909-2.182 0-.966-.667-1.314-1.385-1.444zm-.567-2.54c.667 0 1.225.18 1.225.867 0 .926-.698 1.374-1.584 1.374h-1.076l.309-2.24 1.126-.001zm-.917 5.469h-.966l.358-2.56h1.206c.777 0 1.384.249 1.384 1.055 0 .827-.418 1.505-1.982 1.505zm5.928.817c2.042 0 2.68-2.053 2.68-3.328 0-1.334-.688-2.151-1.973-2.151-2.032 0-2.69 2.022-2.69 3.317 0 1.335.698 2.162 1.983 2.162zm.02-.678c-.737 0-1.136-.448-1.136-1.395 0-1.025.389-2.729 1.793-2.729.737 0 1.136.449 1.136 1.395 0 1.026-.389 2.73-1.794 2.73zm5.718.678c2.042 0 2.68-2.053 2.68-3.328 0-1.334-.688-2.151-1.973-2.151-2.032 0-2.69 2.022-2.69 3.317 0 1.335.698 2.162 1.983 2.162zm.02-.678c-.737 0-1.135-.448-1.135-1.395 0-1.025.388-2.729 1.792-2.729.738 0 1.136.449 1.136 1.395 0 1.026-.388 2.73-1.793 2.73zm5.669-6.893l-.837.1-1.036 7.351h.827l.438-3.118c.468-1.056 1.156-1.574 1.753-1.574.399 0 .608.22.608.598 0 .737-.528 1.195-1.763 1.544l1.255 2.55h.926l-1.185-2.331c1.106-.349 1.643-1.016 1.643-1.853 0-.687-.517-1.175-1.255-1.175-.667 0-1.315.348-1.832 1.126l.458-3.218zM72.605-48.317h-.847l-.966 6.853h.846l.966-6.853zm2.52 2.26h1.165l.19-.647h-1.265l.179-1.295-.647.07-.319 1.225h-.937l-.09.648h.907l-.458 3.217c-.14.957.339 1.495 1.216 1.495.398 0 .776-.11 1.145-.35l-.269-.577c-.279.14-.508.22-.777.22-.418 0-.568-.23-.488-.778l.448-3.227zM79.617-46.823c-2.022 0-2.769 2.032-2.769 3.466 0 1.215.597 2.013 1.663 2.013.628 0 1.176-.36 1.574-.897.05.578.369.817.877.897l.229-.578c-.329-.13-.369-.339-.309-.727l.538-3.726c-.578-.279-1.125-.448-1.803-.448zm.02.667c.368 0 .618.06.897.19l-.419 2.948c-.408.588-.837 1.006-1.434 1.006-.598 0-.946-.428-.946-1.345 0-1.175.517-2.799 1.902-2.799zm4.762-2.759l-.827.1-.886 6.225c-.12.837.239 1.246.906 1.246.23 0 .448-.05.698-.16l-.17-.608c-.12.04-.239.07-.368.07-.23 0-.289-.12-.26-.408l.907-6.465zm2.401.897c.359 0 .638-.27.638-.628 0-.299-.21-.528-.548-.528a.613.613 0 0 0-.628.627c0 .3.21.529.538.529zm.2 1.314h-.828l-.736 5.24h.826l.737-5.24zm3.775-.12c-1.933 0-2.64 1.973-2.64 3.348 0 1.344.718 2.132 1.943 2.132.578 0 1.115-.19 1.623-.548l-.338-.578c-.419.259-.767.408-1.236.408-.697 0-1.125-.398-1.125-1.355 0-1.105.418-2.709 1.783-2.709.418 0 .727.12 1.036.389l.448-.518c-.418-.399-.906-.568-1.494-.568zM125.39-41.464h.947v-3.018h2.24v-.747h-2.24v-2.341h2.59l.109-.757h-3.646v6.863zM130.3-49.234c-.378 0-.637.269-.637.628 0 .349.26.617.638.617.388 0 .647-.268.647-.617 0-.359-.259-.628-.647-.628zm.469 2.52h-.916v5.25h.916v-5.25zm4.114-.12c-.637 0-1.126.4-1.404 1.186l-.09-1.066h-.787v5.25h.916v-2.998c.22-1.006.598-1.475 1.256-1.475.189 0 .298.02.458.06l.17-.896c-.16-.04-.35-.06-.519-.06zM139.728-42.69v-2.4c0-1.096-.578-1.743-1.843-1.743-.588 0-1.165.12-1.813.358l.23.668c.537-.18 1.025-.279 1.414-.279.727 0 1.095.279 1.095 1.036v.388h-.806c-1.465 0-2.311.608-2.311 1.734 0 .936.627 1.584 1.673 1.584.638 0 1.195-.24 1.564-.788.16.519.498.728 1.026.788l.21-.638c-.27-.1-.439-.249-.439-.707zm-2.151.658c-.598 0-.907-.329-.907-.946 0-.717.488-1.076 1.454-1.076h.688v1.205c-.3.548-.698.817-1.236.817zM145.982-48.447c-1.265 0-2.162.737-2.162 1.793 0 1.066.698 1.574 2.033 1.982 1.165.359 1.484.658 1.484 1.325 0 .827-.667 1.225-1.474 1.225-.748 0-1.285-.268-1.803-.687l-.518.578c.567.558 1.344.887 2.33.887 1.545 0 2.45-.837 2.45-2.033 0-1.315-.935-1.743-2.031-2.081-1.235-.38-1.504-.658-1.504-1.236 0-.657.548-.976 1.235-.976.568 0 1.046.18 1.564.598l.518-.578c-.578-.518-1.175-.797-2.122-.797zm7.173 5.758v-2.401c0-1.096-.578-1.743-1.843-1.743-.588 0-1.165.12-1.813.358l.23.668c.537-.18 1.025-.279 1.414-.279.727 0 1.095.279 1.095 1.036v.388h-.806c-1.465 0-2.311.608-2.311 1.734 0 .936.627 1.584 1.673 1.584.638 0 1.195-.24 1.564-.788.16.519.498.728 1.026.788l.21-.638c-.27-.1-.439-.249-.439-.707zm-2.151.657c-.598 0-.907-.329-.907-.946 0-.717.488-1.076 1.454-1.076h.688v1.205c-.3.548-.698.817-1.236.817zm6.475-4.801c-.688 0-1.246.358-1.604.896l-.08-.777h-.786v5.25h.916v-3.726c.349-.557.747-.926 1.335-.926.508 0 .826.23.826 1.016v3.636h.917v-3.765c0-.997-.558-1.604-1.524-1.604zm4.752 0c-1.086 0-1.893.607-1.893 1.444 0 .737.448 1.226 1.584 1.524 1.016.27 1.275.468 1.275.987 0 .497-.438.796-1.126.796a2.38 2.38 0 0 1-1.474-.508l-.488.558c.458.399 1.096.688 1.982.688 1.066 0 2.072-.498 2.072-1.594 0-.917-.637-1.355-1.743-1.634-.846-.22-1.125-.418-1.125-.847 0-.418.368-.687.966-.687.488 0 .896.15 1.365.448l.388-.578a2.788 2.788 0 0 0-1.783-.597zM172.87-46.624c0-1.136-.776-1.703-2.35-1.703h-1.763l-.967 6.863h.937l.408-2.909h1.086l1.265 2.909h1.036l-1.384-3.048c1.294-.369 1.733-1.275 1.733-2.112zm-3.286-.966h.886c.976 0 1.415.269 1.415.976 0 .677-.349 1.514-1.644 1.514h-1.006l.349-2.49zM177.88-45.498c0-.698-.548-1.335-1.664-1.335-1.992 0-2.7 1.922-2.7 3.357 0 1.325.718 2.132 2.003 2.132.697 0 1.314-.23 1.882-.638l-.388-.618c-.478.34-.917.488-1.405.488-.667 0-1.116-.348-1.135-1.305 1.833-.199 3.406-.607 3.406-2.081zm-3.358 1.384c.13-.956.588-1.992 1.684-1.992.568 0 .717.389.717.638 0 .896-.897 1.185-2.4 1.354zM181.454-46.833c-2.062 0-2.849 1.833-2.849 3.397 0 1.195.628 1.972 1.684 1.972.577 0 1.105-.329 1.494-.797l-.09.668c-.18 1.285-.867 1.494-1.564 1.494-.548 0-1.096-.23-1.415-.419l-.348.698a3.617 3.617 0 0 0 1.813.508c1.235 0 2.151-.578 2.4-2.272l.728-4.801c-.598-.289-1.166-.448-1.853-.448zm0 .727c.359 0 .588.05.886.17l-.428 2.759c-.408.548-.857.986-1.434.986-.538 0-.897-.369-.897-1.236 0-1.275.538-2.679 1.873-2.679zm4.413 4.762c.728 0 1.246-.419 1.734-1.086l-.07.966h.777l.737-5.25h-.906l-.478 3.417c-.409.608-.937 1.235-1.594 1.235-.459 0-.648-.249-.548-.966l.518-3.686h-.907l-.528 3.726c-.149 1.026.34 1.644 1.265 1.644zm6.227-7.59l-.916.109-.877 6.186c-.12.866.249 1.295.946 1.295.23 0 .459-.05.728-.17l-.19-.657c-.12.04-.239.07-.358.07-.22 0-.27-.11-.24-.389l.907-6.445zM195.727-46.833c-2.042 0-2.799 2.042-2.799 3.476 0 1.206.598 2.013 1.674 2.013.617 0 1.155-.35 1.563-.877.07.568.399.807.927.877l.259-.628c-.329-.13-.369-.319-.319-.687l.538-3.726c-.598-.289-1.166-.448-1.843-.448zm.02.727c.349 0 .578.05.857.17l-.409 2.898c-.408.548-.817.966-1.404.966-.558 0-.887-.398-.887-1.275 0-1.175.508-2.759 1.843-2.759zm5.898-.727c-.578 0-1.126.378-1.524 1.195l.06-1.076h-.777l-.737 5.25h.906l.398-2.78c.369-1.065.827-1.683 1.505-1.683.169 0 .278.01.428.05l.269-.886a2.19 2.19 0 0 0-.528-.07zM206.982-48.327h-.937l-.966 6.863h.936l.967-6.863zm2.55 2.32h1.135l.2-.707h-1.235l.179-1.294-.717.08-.329 1.214h-.947l-.099.708h.906l-.438 3.137c-.14.977.339 1.525 1.245 1.525.399 0 .787-.11 1.166-.35l-.299-.637c-.279.14-.498.22-.757.22-.389 0-.528-.21-.448-.738l.438-3.157zM214.01-46.833c-2.042 0-2.798 2.042-2.798 3.476 0 1.206.597 2.013 1.673 2.013.617 0 1.156-.35 1.564-.877.07.568.398.807.926.877l.26-.628c-.33-.13-.37-.319-.32-.687l.538-3.726c-.597-.289-1.165-.448-1.842-.448zm.02.727c.349 0 .578.05.857.17l-.408 2.898c-.409.548-.817.966-1.405.966-.558 0-.886-.398-.886-1.275 0-1.175.508-2.759 1.843-2.759zm4.832-2.829l-.916.11-.877 6.186c-.12.866.25 1.295.947 1.295.229 0 .458-.05.727-.17l-.19-.657c-.12.04-.238.07-.358.07-.22 0-.269-.11-.24-.389l.907-6.445zm2.361.946a.668.668 0 0 0 .688-.677c0-.319-.23-.568-.588-.568a.668.668 0 0 0-.687.677c0 .32.229.568.587.568zm.24 1.275h-.907l-.737 5.25h.907l.737-5.25zm3.745-.12c-1.942 0-2.66 1.973-2.66 3.348 0 1.344.718 2.142 1.963 2.142.578 0 1.126-.18 1.644-.548l-.369-.638c-.418.26-.757.408-1.215.408-.667 0-1.066-.378-1.066-1.295 0-1.085.389-2.66 1.713-2.66.409 0 .708.11 1.026.39l.488-.568c-.428-.409-.936-.578-1.524-.578zM2.8-29.509h1.315v-2.869h2.121v-.976H4.115v-2.062h2.44l.14-.976H2.8v6.883zM7.92-37.448c-.468 0-.797.339-.797.777 0 .428.329.767.797.767.478 0 .807-.339.807-.767 0-.438-.329-.777-.807-.777zm.648 2.67H7.293v5.269h1.275v-5.27zm4.094-.14c-.618 0-1.126.418-1.375 1.176l-.12-1.036h-1.105v5.269h1.275v-2.809c.2-.887.528-1.355 1.165-1.355.19 0 .31.02.468.06l.22-1.235c-.17-.05-.339-.07-.528-.07zM17.62-30.904v-2.21c0-1.167-.618-1.814-2.032-1.814-.588 0-1.255.13-1.903.379l.29.866c.537-.18 1.045-.279 1.404-.279.677 0 .986.23.986.917v.299h-.668c-1.534 0-2.39.617-2.39 1.763 0 .956.647 1.623 1.693 1.623.638 0 1.206-.229 1.584-.786.2.517.578.717 1.166.766l.268-.846c-.258-.1-.398-.25-.398-.678zm-2.271.618c-.488 0-.747-.289-.747-.797 0-.618.408-.916 1.235-.916h.528v1.066c-.24.418-.578.647-1.016.647zM23.664-36.541c-1.355 0-2.34.756-2.34 1.902 0 1.046.627 1.624 2.071 2.072 1.076.329 1.365.588 1.365 1.166 0 .667-.528 1.025-1.265 1.025-.718 0-1.265-.259-1.774-.687l-.677.757c.568.558 1.385.946 2.48.946 1.644 0 2.61-.876 2.61-2.111 0-1.295-.836-1.793-2.042-2.172-1.145-.358-1.414-.578-1.414-1.076 0-.537.448-.817 1.066-.817.567 0 1.046.18 1.544.588l.647-.747c-.598-.548-1.265-.846-2.271-.846zm7.422 5.637v-2.21c0-1.167-.618-1.814-2.032-1.814-.588 0-1.255.13-1.903.379l.29.866c.537-.18 1.045-.279 1.404-.279.677 0 .986.23.986.917v.299h-.668c-1.534 0-2.39.617-2.39 1.763 0 .956.647 1.623 1.693 1.623.638 0 1.205-.229 1.584-.786.2.517.578.717 1.165.766l.27-.846c-.26-.1-.4-.25-.4-.678zm-2.271.618c-.488 0-.747-.289-.747-.797 0-.618.408-.916 1.235-.916h.528v1.066c-.24.418-.578.647-1.016.647zm6.605-4.642c-.668 0-1.196.309-1.604.837l-.1-.687h-1.105v5.269h1.275v-3.666c.308-.488.647-.796 1.105-.796.399 0 .648.189.648.846v3.616h1.275v-3.815c0-1.006-.548-1.604-1.494-1.604zm4.613 0c-1.226 0-2.032.657-2.032 1.534 0 .777.478 1.295 1.564 1.594.986.279 1.195.418 1.195.857 0 .398-.369.637-.937.637-.538 0-1.026-.209-1.434-.518l-.638.717c.489.439 1.196.747 2.102.747 1.206 0 2.221-.577 2.221-1.673 0-.936-.607-1.375-1.683-1.663-.896-.25-1.105-.409-1.105-.758 0-.318.288-.527.796-.527.468 0 .887.149 1.325.428l.498-.747a2.964 2.964 0 0 0-1.872-.628zM52.134-36.392H50.39l-1.803 4.87-.558-4.87h-1.603l-1.504 6.883h1.265l.547-2.819c.2-.976.37-1.962.429-2.919l.627 4.99h1.246l1.932-5.01c-.13.837-.23 1.843-.299 2.85l-.229 2.908h1.265l.429-6.883zm5.48 2.859c0-.748-.618-1.395-1.823-1.395-2.122 0-2.87 1.942-2.87 3.377 0 1.335.738 2.191 2.172 2.191.767 0 1.424-.269 2.002-.677l-.488-.797c-.478.339-.896.488-1.375.488-.577 0-.996-.279-1.026-1.095 1.734-.18 3.407-.608 3.407-2.092zm-3.348 1.245c.14-.847.548-1.733 1.455-1.733.468 0 .597.308.597.538 0 .677-.637 1.065-2.052 1.195zM62.212-37.01l-.379 2.66a1.61 1.61 0 0 0-1.264-.578c-1.813 0-2.5 2.052-2.5 3.457 0 1.295.567 2.111 1.663 2.111.707 0 1.225-.408 1.584-.956l-.01.807h1.105l1.036-7.371-1.235-.13zm-1.385 3.039c.389 0 .658.179.887.497l-.289 2.073c-.388.617-.787 1.075-1.325 1.075-.428 0-.717-.299-.717-1.105 0-.957.319-2.54 1.444-2.54zm4.653-1.933c.488 0 .867-.369.867-.847 0-.398-.28-.697-.717-.697a.846.846 0 0 0-.867.857c0 .388.279.687.717.687zm.438 1.126h-1.255l-.737 5.269h1.255l.737-5.27zm2.192 5.418c.698 0 1.235-.398 1.704-1.016l-.05.867h1.086l.737-5.27h-1.255l-.478 3.387c-.35.518-.777 1.016-1.285 1.016-.36 0-.519-.189-.439-.806l.508-3.596h-1.255l-.528 3.755c-.15 1.016.299 1.663 1.255 1.663zm10.53-5.568c-.627 0-1.215.379-1.663 1.026-.1-.667-.558-1.026-1.156-1.026-.677 0-1.235.418-1.683 1.076l.05-.926h-1.086l-.738 5.269h1.256l.418-3.028c.359-.737.797-1.345 1.255-1.345.259 0 .478.14.389.797l-.508 3.576h1.255l.438-3.068c.359-.717.797-1.305 1.245-1.305.269 0 .488.14.399.797l-.508 3.576h1.254l.539-3.795c.139-1.006-.34-1.624-1.156-1.624zM85.429-36.392h-1.305l-.966 6.883h1.305l.966-6.883zm2.55 2.53h1.076l.27-.916h-1.216l.18-1.315-1.056.12-.33 1.195h-.866l-.13.916h.817l-.388 2.76c-.16 1.115.349 1.742 1.365 1.742.428 0 .906-.119 1.325-.378l-.36-.847c-.248.12-.447.19-.676.19-.34 0-.478-.18-.399-.698l.389-2.77zM92.392-34.928c-2.151 0-2.928 2.022-2.928 3.507 0 1.245.597 2.061 1.693 2.061.667 0 1.186-.368 1.574-.896.12.568.528.817 1.086.876l.358-.836c-.299-.12-.328-.309-.279-.668l.508-3.536a4.278 4.278 0 0 0-2.012-.508zm-.02.937c.29 0 .478.04.707.139l-.378 2.69c-.358.497-.717.836-1.195.836-.439 0-.728-.299-.728-1.095 0-1.096.429-2.57 1.594-2.57zm5.061-3.039l-1.275.14-.856 6.086c-.13.956.288 1.444 1.085 1.444.29 0 .598-.06.877-.189l-.19-.896c-.099.03-.198.06-.298.06-.19 0-.26-.1-.23-.369l.887-6.276zm2.162 1.126c.489 0 .867-.369.867-.847 0-.398-.28-.697-.717-.697a.846.846 0 0 0-.867.857c0 .388.279.687.717.687zm.439 1.126h-1.256l-.737 5.269h1.256l.737-5.27zm3.596-.15c-2.052 0-2.83 1.972-2.83 3.347s.778 2.221 2.123 2.221c.647 0 1.215-.209 1.743-.577l-.478-.847c-.409.25-.718.388-1.126.388-.578 0-.936-.298-.936-1.115 0-.986.319-2.41 1.514-2.41.368 0 .657.099.966.378l.638-.757c-.439-.429-.987-.628-1.614-.628zM125.121-29.509h1.465v-2.809h2.071v-1.066h-2.071v-1.952h2.38l.16-1.066h-4.005v6.893zM130.34-37.508c-.509 0-.858.359-.858.827 0 .468.349.827.857.827s.867-.359.867-.827c0-.468-.359-.827-.867-.827zm.706 2.72h-1.414v5.279h1.414v-5.28zm4.095-.15c-.608 0-1.126.438-1.375 1.176l-.12-1.026h-1.234v5.279h1.414v-2.7c.18-.866.488-1.354 1.136-1.354.179 0 .308.03.478.07l.229-1.365c-.17-.05-.34-.08-.528-.08zM140.136-30.973v-2.132c0-1.195-.638-1.843-2.102-1.843-.598 0-1.295.13-1.952.389l.328.946c.528-.18 1.046-.279 1.395-.279.657 0 .936.21.936.867v.259h-.608c-1.553 0-2.43.627-2.43 1.783 0 .956.657 1.633 1.713 1.633.628 0 1.206-.219 1.584-.786.22.517.618.707 1.215.766l.3-.936c-.25-.09-.38-.239-.38-.667zm-2.321.607c-.448 0-.687-.269-.687-.737 0-.578.378-.856 1.155-.856h.458v1.006c-.209.378-.528.587-.926.587zM146.1-36.561c-1.395 0-2.41.766-2.41 1.942 0 1.046.597 1.643 2.091 2.112 1.046.318 1.315.557 1.315 1.106 0 .607-.478.946-1.185.946s-1.255-.26-1.764-.688l-.747.827c.568.558 1.405.966 2.55.966 1.674 0 2.67-.886 2.67-2.151 0-1.275-.797-1.793-2.042-2.192-1.126-.348-1.385-.548-1.385-1.026 0-.488.409-.747 1.007-.747.557 0 1.036.18 1.524.578l.697-.807c-.598-.558-1.295-.866-2.321-.866zm7.511 5.588v-2.132c0-1.195-.637-1.843-2.102-1.843-.597 0-1.294.13-1.952.389l.329.946c.528-.18 1.046-.279 1.394-.279.658 0 .937.21.937.867v.259h-.608c-1.554 0-2.43.627-2.43 1.783 0 .956.657 1.633 1.713 1.633.627 0 1.205-.219 1.584-.786.219.517.618.707 1.215.766l.299-.936c-.249-.09-.379-.239-.379-.667zm-2.32.607c-.449 0-.688-.269-.688-.737 0-.578.379-.856 1.155-.856h.459v1.006c-.21.378-.528.587-.927.587zm6.664-4.582c-.667 0-1.185.299-1.604.827l-.11-.667h-1.234v5.279h1.414v-3.646c.299-.468.618-.737 1.026-.737.349 0 .578.17.578.777v3.606h1.414v-3.845c0-.996-.558-1.594-1.484-1.594zm4.553 0c-1.275 0-2.091.677-2.091 1.574 0 .797.497 1.325 1.563 1.624.977.269 1.166.398 1.166.797 0 .358-.339.577-.867.577s-1.016-.209-1.414-.518l-.698.778c.498.458 1.235.766 2.152.766 1.255 0 2.28-.617 2.28-1.713 0-.936-.597-1.375-1.653-1.663-.926-.27-1.105-.409-1.105-.718 0-.288.259-.478.727-.478.458 0 .887.15 1.315.419l.538-.807c-.498-.399-1.146-.638-1.913-.638zM170.59-36.561c-1.763 0-2.6 1.085-2.6 2.111 0 .927.558 1.464 1.823 1.903.857.289 1.126.538 1.126 1.026 0 .637-.508 1.036-1.325 1.036-.698 0-1.205-.25-1.624-.687l-.847.836c.508.558 1.295.986 2.43.986 2.103 0 2.89-1.255 2.89-2.38 0-1.086-.698-1.594-1.773-1.943-.927-.308-1.186-.508-1.186-.936 0-.538.468-.857 1.126-.857.538 0 .986.17 1.405.578l.796-.787c-.548-.568-1.265-.886-2.24-.886zm7.362 3.038c0-.777-.637-1.425-1.883-1.425-2.171 0-2.928 1.943-2.928 3.387 0 1.335.747 2.211 2.231 2.211.787 0 1.474-.279 2.052-.697l-.518-.857c-.488.33-.896.488-1.365.488-.557 0-.946-.268-.986-1.025 1.694-.17 3.397-.598 3.397-2.082zm-3.327 1.185c.14-.797.518-1.633 1.345-1.633.438 0 .568.278.568.507 0 .588-.548 1.017-1.913 1.126zm10.161-2.61c-.618 0-1.215.379-1.653 1.006-.1-.657-.548-1.006-1.156-1.006-.667 0-1.235.409-1.673 1.056l.04-.896h-1.206l-.737 5.279h1.395l.418-2.978c.319-.738.737-1.295 1.136-1.295.239 0 .428.12.348.737l-.498 3.536h1.395l.428-3.028c.339-.707.737-1.245 1.145-1.245.24 0 .429.12.34.737l-.509 3.536h1.395l.538-3.825c.139-1.006-.33-1.614-1.146-1.614zm3.547-.906c.528 0 .937-.389.937-.917 0-.428-.299-.737-.767-.737-.528 0-.937.389-.937.917 0 .418.3.737.767.737zm.518 1.066h-1.394l-.737 5.279h1.394l.737-5.28zm4.613 1.633c.777-.179 1.524-.697 1.524-1.683 0-1.136-1.016-1.564-2.51-1.564h-1.992l-.967 6.893h2.132c2.41 0 3.187-.986 3.187-2.192 0-.985-.667-1.314-1.374-1.454zm-.966-2.191c.607 0 .996.15.996.647 0 .658-.429 1.096-1.265 1.096h-.688l.24-1.743h.717zm-.727 4.751h-.648l.279-2.012h.827c.647 0 1.115.2 1.115.807 0 .687-.308 1.205-1.573 1.205zm5.937 1.245c2.192 0 2.889-1.952 2.889-3.366.01-1.375-.777-2.232-2.162-2.232-2.181 0-2.898 1.933-2.898 3.367 0 1.385.786 2.231 2.171 2.231zm.09-1.066c-.538 0-.817-.318-.817-1.065 0-.857.249-2.41 1.365-2.41.537 0 .816.328.816 1.075-.01.857-.249 2.4-1.364 2.4zm5.848-6.634l-1.405.16-.857 6.046c-.139.976.3 1.494 1.146 1.494.319 0 .648-.07.936-.189l-.189-.996c-.09.03-.19.05-.279.05-.179 0-.249-.09-.219-.349l.867-6.216zM208.187-37.04l-.369 2.64a1.61 1.61 0 0 0-1.245-.548c-1.803 0-2.51 2.052-2.51 3.477 0 1.305.558 2.121 1.664 2.121.707 0 1.225-.418 1.574-.936l-.01.777h1.235l1.036-7.381-1.375-.15zm-1.315 3.138c.359 0 .608.16.817.438l-.289 2.033c-.358.567-.737 1.025-1.235 1.025-.388 0-.647-.259-.647-1.035 0-.927.298-2.46 1.354-2.46zM214.681-36.402h-1.454l-.967 6.893h1.455l.966-6.893zm2.55 2.62h1.066l.289-1.006h-1.215l.18-1.325-1.186.14-.329 1.185h-.837l-.14 1.006h.778l-.369 2.6c-.16 1.175.369 1.832 1.425 1.832.438 0 .956-.129 1.374-.388l-.378-.927c-.23.11-.419.18-.638.18-.318 0-.458-.17-.378-.687l.358-2.61zM221.613-34.948c-2.191 0-2.988 2.012-2.988 3.517 0 1.255.608 2.081 1.713 2.081.678 0 1.196-.368 1.574-.896.13.568.578.817 1.156.876l.398-.926c-.299-.12-.319-.299-.269-.657l.498-3.467a4.37 4.37 0 0 0-2.082-.528zm-.03 1.026c.26 0 .429.03.648.12l-.379 2.61c-.328.478-.667.786-1.095.786-.399 0-.678-.259-.678-1.025 0-1.066.399-2.49 1.504-2.49zm5.131-3.128l-1.404.16-.857 6.046c-.14.976.299 1.494 1.145 1.494.32 0 .648-.07.937-.189l-.19-.996c-.09.03-.189.05-.278.05-.18 0-.25-.09-.22-.349l.867-6.216zm2.092 1.196c.528 0 .937-.389.937-.917 0-.428-.3-.737-.767-.737-.528 0-.937.389-.937.917 0 .418.3.737.767.737zm.518 1.066h-1.394l-.737 5.279h1.394l.737-5.28zm3.537-.16c-2.102 0-2.889 1.972-2.889 3.347 0 1.385.797 2.251 2.182 2.251.677 0 1.255-.219 1.783-.587l-.528-.927c-.399.25-.687.379-1.086.379-.538 0-.886-.269-.886-1.056 0-.936.298-2.301 1.434-2.301.358 0 .647.1.946.368l.697-.826c-.438-.429-1.006-.648-1.653-.648zM2.64-17.554h1.634v-2.74h2.012v-1.165H4.274v-1.833h2.311l.17-1.165H2.64v6.903zM7.94-25.632c-.538 0-.926.388-.926.896s.388.896.926.896c.558 0 .937-.388.937-.896s-.379-.896-.937-.896zm.797 2.789H7.163v5.289h1.574v-5.29zm4.085-.15c-.608 0-1.126.438-1.365 1.176l-.14-1.026H9.953v5.289h1.574v-2.66c.179-.787.448-1.255 1.095-1.255.17 0 .309.03.478.07l.25-1.524c-.18-.05-.33-.07-.528-.07zM17.871-19.088v-2.052c0-1.225-.657-1.873-2.191-1.873-.598 0-1.325.14-1.992.389l.358 1.036c.528-.18 1.046-.28 1.385-.28.647 0 .896.19.896.818v.229h-.538c-1.593 0-2.48.627-2.48 1.783 0 .966.668 1.653 1.724 1.653.627 0 1.215-.209 1.593-.787.25.518.658.708 1.275.757l.33-1.026c-.25-.09-.36-.239-.36-.647zm-2.38.578c-.389 0-.608-.25-.608-.668 0-.528.339-.777 1.056-.777h.388v.947c-.189.308-.478.498-.836.498zM23.727-24.627c-1.434 0-2.49.777-2.49 1.993 0 1.026.568 1.663 2.112 2.142 1.006.308 1.265.537 1.265 1.045 0 .528-.418.847-1.096.847-.687 0-1.235-.249-1.743-.677l-.827.906c.568.548 1.425.986 2.62.986 1.724 0 2.74-.896 2.74-2.181 0-1.275-.748-1.813-2.052-2.231-1.076-.34-1.335-.519-1.335-.957 0-.438.358-.677.926-.677.558 0 1.036.19 1.514.578l.757-.887c-.607-.578-1.335-.887-2.39-.887zm7.632 5.539v-2.052c0-1.225-.658-1.873-2.192-1.873-.598 0-1.325.14-1.992.389l.359 1.036c.527-.18 1.045-.28 1.384-.28.648 0 .896.19.896.818v.229h-.537c-1.594 0-2.48.627-2.48 1.783 0 .966.667 1.653 1.723 1.653.627 0 1.215-.209 1.594-.787.249.518.657.708 1.275.757l.328-1.026c-.249-.09-.358-.239-.358-.647zm-2.381.578c-.389 0-.608-.25-.608-.668 0-.528.339-.777 1.056-.777h.388v.947c-.189.308-.478.498-.836.498zm6.724-4.503c-.667 0-1.175.28-1.613.807l-.12-.637h-1.365v5.289h1.574v-3.616c.27-.438.568-.687.917-.687.309 0 .498.15.498.707v3.596h1.574v-3.865c0-1.006-.548-1.594-1.465-1.594zm4.484 0c-1.335 0-2.162.707-2.162 1.614 0 .817.518 1.355 1.564 1.653.956.27 1.116.38 1.116.738 0 .318-.29.498-.767.498-.518 0-1.006-.21-1.405-.518l-.767.856c.518.469 1.295.787 2.212.787 1.314 0 2.35-.647 2.35-1.743 0-.946-.587-1.384-1.633-1.683-.946-.28-1.086-.399-1.086-.678 0-.239.21-.398.637-.398.459 0 .897.15 1.305.408l.578-.886c-.488-.399-1.175-.648-1.942-.648zM49.215-21.2c.767-.189 1.514-.687 1.514-1.683 0-1.156-1.036-1.574-2.61-1.574h-2.022l-.966 6.903h2.201c2.461 0 3.248-.996 3.248-2.202 0-.976-.668-1.314-1.365-1.444zm-1.305-.498h-.598l.22-1.604h.607c.598 0 .937.15.937.588 0 .578-.329 1.016-1.166 1.016zm-.438 2.959h-.578l.259-1.873h.737c.628 0 1.046.2 1.046.737 0 .648-.279 1.136-1.464 1.136zm5.928 1.354c2.22 0 2.938-1.922 2.948-3.377.01-1.384-.807-2.25-2.211-2.25-2.231 0-2.949 1.902-2.949 3.376 0 1.404.807 2.251 2.212 2.251zm.11-1.155c-.499 0-.738-.299-.738-.996 0-.807.21-2.321 1.255-2.321.488 0 .737.299.737.996-.01.807-.219 2.32-1.255 2.32zm5.897-6.575l-1.554.17-.847 6.006c-.15 1.017.319 1.554 1.206 1.554.338 0 .707-.07.996-.199l-.19-1.096c-.09.03-.169.05-.259.05-.159 0-.239-.09-.209-.348l.857-6.137zM63.804-25.105l-.358 2.6c-.27-.299-.678-.508-1.216-.508-1.803 0-2.53 2.052-2.53 3.496 0 1.325.558 2.132 1.664 2.132.717 0 1.235-.418 1.573-.926l-.01.757h1.375l1.036-7.391-1.534-.16zm-1.235 3.238c.319 0 .538.13.737.378l-.279 1.972c-.329.529-.697.977-1.145.977-.339 0-.578-.22-.578-.967 0-.876.279-2.36 1.265-2.36zM70.368-24.457h-1.604l-.966 6.903H69.4l.967-6.903zm2.55 2.71h1.036l.329-1.096h-1.216l.19-1.325-1.335.15-.329 1.175h-.797l-.15 1.095h.728l-.349 2.44c-.169 1.236.379 1.923 1.475 1.923.448 0 1.006-.129 1.444-.388l-.409-1.026c-.218.1-.388.169-.597.169-.299 0-.428-.169-.359-.677l.339-2.44zM77.255-23.013c-2.23 0-3.028 2.012-3.028 3.526 0 1.275.598 2.102 1.713 2.102.708 0 1.206-.378 1.574-.906.16.568.648.827 1.226.876l.448-1.016c-.289-.11-.299-.288-.26-.637l.489-3.387a4.482 4.482 0 0 0-2.162-.558zm-.04 1.116c.23 0 .39.03.588.1l-.368 2.52c-.299.458-.628.737-1.007.737-.348 0-.597-.21-.597-.957 0-1.025.358-2.4 1.385-2.4zm5.23-3.218l-1.553.17-.847 6.006c-.15 1.017.319 1.554 1.206 1.554.338 0 .707-.07.996-.199l-.19-1.096c-.09.03-.169.05-.259.05-.159 0-.239-.09-.209-.348l.857-6.137zm2.004 1.275c.577 0 1.025-.428 1.025-.996 0-.458-.328-.786-.826-.786-.578 0-1.026.418-1.026.985 0 .459.328.797.826.797zm.607.997h-1.544l-.737 5.289h1.544l.737-5.29zm3.467-.17c-2.151 0-2.958 1.972-2.958 3.347 0 1.395.826 2.281 2.25 2.281.708 0 1.296-.219 1.824-.607l-.578-1.006c-.389.239-.668.368-1.046.368-.498 0-.827-.229-.827-.976 0-.896.27-2.201 1.345-2.201.339 0 .628.1.916.368l.768-.896c-.439-.449-1.017-.678-1.694-.678zM124.932-17.554h1.843v-2.65h1.952v-1.305h-1.952v-1.663h2.221l.19-1.305h-4.254v6.923zM130.36-25.722c-.598 0-1.017.428-1.017.976s.419.976 1.017.976c.597 0 1.025-.428 1.025-.976s-.428-.976-1.025-.976zm.886 2.859h-1.773v5.309h1.773v-5.31zm4.085-.16c-.598 0-1.136.458-1.355 1.166l-.15-1.006h-1.554v5.309h1.774v-2.52c.159-.747.408-1.225 1.046-1.225.179 0 .318.03.487.08l.28-1.714a1.55 1.55 0 0 0-.528-.09zM140.425-19.188v-1.932c0-1.275-.678-1.923-2.291-1.923a5.78 5.78 0 0 0-2.042.409l.388 1.145c.528-.18 1.056-.279 1.385-.279.607 0 .826.16.826.737v.18h-.458c-1.633 0-2.52.647-2.52 1.813 0 .976.678 1.663 1.733 1.663.618 0 1.216-.199 1.604-.777.27.508.697.698 1.355.747l.359-1.145c-.24-.09-.34-.24-.34-.638zm-2.44.568c-.34 0-.529-.229-.529-.587 0-.469.3-.698.937-.698h.298v.867c-.159.249-.408.418-.707.418zM146.173-24.657c-1.484 0-2.59.798-2.59 2.063 0 1.016.518 1.683 2.132 2.19.956.29 1.195.489 1.195.947 0 .449-.349.747-.986.747-.668 0-1.215-.258-1.723-.677l-.907 1.006c.568.548 1.435 1.006 2.7 1.006 1.773 0 2.829-.916 2.829-2.221 0-1.255-.688-1.843-2.052-2.271-1.036-.339-1.295-.478-1.295-.877 0-.378.298-.588.836-.588.548 0 1.026.19 1.504.568l.827-.976c-.617-.588-1.394-.917-2.47-.917zm7.76 5.47v-1.933c0-1.275-.677-1.923-2.29-1.923a5.78 5.78 0 0 0-2.043.409l.389 1.145c.528-.18 1.056-.279 1.385-.279.607 0 .826.16.826.737v.18h-.458c-1.634 0-2.52.647-2.52 1.813 0 .976.677 1.663 1.733 1.663.618 0 1.215-.199 1.604-.777.269.508.697.698 1.355.747l.358-1.145c-.239-.09-.338-.24-.338-.638zm-2.44.567c-.339 0-.528-.229-.528-.587 0-.469.299-.698.936-.698h.3v.867c-.16.249-.409.418-.708.418zm6.794-4.423c-.647 0-1.135.25-1.603.777l-.13-.597H155v5.309h1.773v-3.586c.26-.398.518-.608.797-.608.24 0 .399.13.399.618v3.576h1.773v-3.895c0-1.016-.548-1.594-1.455-1.594zm4.424 0c-1.425 0-2.241.737-2.241 1.674 0 .827.528 1.384 1.543 1.683.937.28 1.076.349 1.076.658 0 .279-.249.418-.667.418-.498 0-.986-.219-1.375-.518l-.846.946c.528.489 1.344.807 2.27.807 1.395 0 2.431-.687 2.431-1.783 0-.956-.568-1.394-1.593-1.693-.977-.299-1.076-.399-1.076-.628 0-.19.169-.318.548-.318.438 0 .886.149 1.285.398l.637-.976c-.488-.409-1.215-.668-1.992-.668zM172.762-24.477h-4.333l-.967 6.923h4.304l.179-1.305h-2.48l.219-1.574h2.032l.17-1.275h-2.033l.21-1.464h2.32l.379-1.305zm4.991 1.614h-1.873l-.807 1.633-.388-1.633h-1.903l1.136 2.49-2.012 2.819h1.912l1.036-1.853.538 1.853h1.893l-1.235-2.8 1.703-2.51zm2.391 4.094c-.269 0-.398-.15-.329-.648l.31-2.221h1.006l.358-1.225h-1.195l.179-1.335-1.524.18-.329 1.155h-.757l-.159 1.225h.667l-.309 2.221c-.179 1.325.379 2.052 1.544 2.052a3.25 3.25 0 0 0 1.535-.408l-.449-1.146c-.199.09-.358.15-.548.15zm5.061-4.254c-.578 0-1.125.399-1.484 1.126v-.966h-1.514l-.737 5.309h1.743l.329-2.341c.268-.767.587-1.394 1.235-1.394.17 0 .288.02.458.07l.498-1.714c-.17-.06-.319-.09-.528-.09zM188.352-23.043c-2.291 0-3.108 2.002-3.108 3.536 0 1.305.607 2.142 1.733 2.142.727 0 1.215-.388 1.584-.916.18.568.707.837 1.315.876l.498-1.135c-.269-.11-.279-.289-.239-.628l.478-3.287a4.617 4.617 0 0 0-2.261-.588zm-.06 1.236c.2 0 .329.03.498.08l-.349 2.4c-.268.438-.567.667-.886.667-.28 0-.508-.149-.508-.847 0-.985.309-2.3 1.245-2.3zm6.914.597c.757-.189 1.514-.667 1.514-1.673 0-1.186-1.086-1.594-2.76-1.594H191.9l-.966 6.923h2.3c2.52 0 3.338-.996 3.338-2.202 0-.986-.668-1.314-1.365-1.454zm-1.415-.538h-.468l.2-1.444h.458c.588 0 .866.15.866.528 0 .458-.209.916-1.056.916zm-.388 2.879h-.478l.239-1.693h.608c.577 0 .936.189.936.657 0 .588-.24 1.036-1.305 1.036zm5.908 1.504c2.28 0 3.018-1.882 3.028-3.407.01-1.394-.837-2.27-2.281-2.27-2.271 0-3.018 1.862-3.018 3.396 0 1.424.836 2.281 2.27 2.281zm.14-1.295c-.43 0-.628-.259-.628-.886 0-.747.159-2.212 1.106-2.212.428 0 .637.26.627.887-.01.747-.17 2.211-1.106 2.211zm5.977-6.475l-1.763.18-.837 5.947c-.15 1.066.338 1.643 1.285 1.643.378 0 .787-.08 1.086-.209l-.19-1.235c-.08.02-.15.04-.229.04-.14 0-.229-.08-.199-.33l.847-6.036zM209.626-25.135l-.349 2.56c-.268-.278-.667-.468-1.165-.468-1.823 0-2.57 2.062-2.57 3.526 0 1.335.548 2.152 1.663 2.152.738 0 1.246-.438 1.574-.906l-.01.717h1.554l1.036-7.401-1.733-.18zm-1.126 3.367c.26 0 .448.1.618.3l-.269 1.912c-.279.458-.628.896-1.016.896-.269 0-.488-.159-.488-.857 0-.836.249-2.25 1.155-2.25zM216.277-24.477h-1.813l-.966 6.923h1.813l.966-6.923zm2.58 5.708c-.268 0-.398-.15-.328-.648l.309-2.221h1.006l.358-1.225h-1.195l.18-1.335-1.525.18-.329 1.155h-.756l-.16 1.225h.667l-.308 2.221c-.18 1.325.378 2.052 1.544 2.052a3.25 3.25 0 0 0 1.534-.408l-.449-1.146c-.199.09-.358.15-.548.15zM223.136-23.043c-2.291 0-3.108 2.002-3.108 3.536 0 1.305.608 2.142 1.733 2.142.727 0 1.215-.388 1.584-.916.18.568.707.837 1.315.876l.498-1.135c-.27-.11-.28-.289-.24-.628l.479-3.287a4.617 4.617 0 0 0-2.261-.588zm-.06 1.236c.2 0 .329.03.498.08l-.349 2.4c-.269.438-.567.667-.886.667-.28 0-.508-.149-.508-.847 0-.985.309-2.3 1.245-2.3zm5.36-3.328l-1.763.18-.837 5.947c-.15 1.066.339 1.643 1.285 1.643.379 0 .787-.08 1.086-.209l-.19-1.235c-.08.02-.149.04-.229.04-.139 0-.229-.08-.199-.33l.847-6.036zm1.883 1.365c.637 0 1.125-.468 1.125-1.096 0-.498-.348-.856-.896-.856-.628 0-1.125.468-1.125 1.095 0 .499.348.857.896.857zm.727.907h-1.743l-.737 5.309h1.743l.737-5.31zm3.387-.18c-2.211 0-3.058 1.983-3.058 3.357 0 1.405.857 2.321 2.35 2.321.738 0 1.336-.239 1.874-.627l-.638-1.126c-.378.24-.647.359-.996.359-.448 0-.757-.19-.757-.877 0-.847.23-2.062 1.235-2.062.319 0 .598.1.887.369l.847-1.006c-.449-.459-1.046-.708-1.744-.708zM2.421-5.579h2.052v-2.57h1.883v-1.424H4.473v-1.514h2.142l.21-1.425H2.42v6.933zM7.977-13.837c-.648 0-1.106.458-1.106 1.056 0 .598.458 1.056 1.106 1.056.647 0 1.105-.458 1.105-1.056 0-.598-.458-1.056-1.105-1.056zm.986 2.939H6.99v5.319h1.973v-5.32zm4.064-.17c-.587 0-1.125.469-1.345 1.166l-.159-.996H9.8v5.319h1.972v-2.42c.15-.678.359-1.156.996-1.156.17 0 .32.03.488.08l.31-1.903c-.19-.06-.33-.09-.539-.09zM18.184-7.302v-1.833c0-1.315-.697-1.962-2.39-1.962-.608 0-1.435.149-2.102.418l.428 1.255c.528-.18 1.066-.279 1.375-.279.588 0 .767.14.767.677v.13h-.379c-1.673 0-2.57.647-2.57 1.823 0 .986.688 1.693 1.753 1.693.608 0 1.216-.189 1.604-.777.3.508.747.688 1.434.737l.399-1.265c-.24-.09-.319-.239-.319-.617zm-2.51.538c-.269 0-.438-.2-.438-.498 0-.419.259-.608.817-.608h.209v.787a.734.734 0 0 1-.588.319zM23.812-12.711c-1.534 0-2.69.807-2.69 2.121 0 1.007.489 1.714 2.162 2.242.907.279 1.126.458 1.126.867 0 .358-.269.627-.867.627-.647 0-1.205-.249-1.703-.677l-1.006 1.105c.568.548 1.464 1.046 2.789 1.046 1.823 0 2.919-.936 2.919-2.27 0-1.246-.638-1.864-2.062-2.322-.986-.319-1.246-.428-1.246-.787 0-.309.25-.498.748-.498.547 0 1.026.19 1.484.558l.906-1.066c-.627-.607-1.444-.946-2.56-.946zm7.9 5.409v-1.833c0-1.315-.697-1.962-2.39-1.962a6.11 6.11 0 0 0-2.102.418l.428 1.255c.528-.18 1.066-.279 1.375-.279.588 0 .767.14.767.677v.13h-.379c-1.673 0-2.57.647-2.57 1.823 0 .986.688 1.693 1.753 1.693.608 0 1.216-.189 1.604-.777.3.508.747.688 1.434.737l.399-1.265c-.24-.09-.319-.239-.319-.617zm-2.51.538c-.269 0-.438-.2-.438-.498 0-.419.259-.608.817-.608h.209v.787a.733.733 0 0 1-.588.319zm6.874-4.333c-.638 0-1.125.229-1.614.746l-.14-.547H32.6v5.319h1.972v-3.556c.229-.359.458-.528.667-.528.18 0 .3.1.3.518v3.566h1.972v-3.925c0-1.016-.549-1.593-1.435-1.593zm4.334 0c-1.494 0-2.321.766-2.321 1.723 0 .857.548 1.424 1.544 1.723.916.279 1.026.329 1.026.588 0 .219-.21.328-.558.328-.488 0-.976-.229-1.355-.527l-.936 1.036c.548.518 1.405.846 2.34.846 1.475 0 2.521-.737 2.521-1.833 0-.966-.558-1.404-1.564-1.713-1.006-.309-1.066-.388-1.066-.568 0-.139.12-.239.449-.239.428 0 .886.15 1.265.389l.697-1.066c-.488-.419-1.255-.687-2.042-.687zM46.994-5.579l.398-2.799h1.524l-.378 2.799h2.012l.966-6.933h-2.012l-.358 2.56h-1.534l.358-2.56h-2.012l-.976 6.933h2.012zm9.793-3.994c0-.867-.747-1.524-2.132-1.524-2.36 0-3.177 1.972-3.177 3.416 0 1.355.776 2.301 2.48 2.301.896 0 1.653-.328 2.241-.757l-.667-1.125c-.498.318-.877.488-1.315.488-.428 0-.757-.17-.807-.707 1.554-.14 3.377-.608 3.377-2.092zm-3.298.986c.13-.648.409-1.265.977-1.265.289 0 .388.159.388.368 0 .24-.16.827-1.365.897zM59.944-11.097c-2.351 0-3.178 1.992-3.178 3.556 0 1.325.608 2.161 1.743 2.161.757 0 1.236-.388 1.584-.916.21.568.787.837 1.405.876l.558-1.255c-.26-.11-.26-.279-.22-.617l.459-3.178c-.738-.438-1.604-.627-2.351-.627zm-.08 1.354c.16 0 .27.02.419.06l-.34 2.291c-.238.408-.507.598-.766.598-.22 0-.429-.1-.429-.757 0-.937.27-2.192 1.116-2.192zM67.98-10.898h-2.012l-1.206 3.895-.15-3.895h-2.071l.857 5.319h2.32l2.262-5.32zm5.18 0h-2.022l-1.355 4.104-.11-4.104h-2.012l.748 5.319h.677c-.379.598-.837.827-1.853.926l.04 1.345c1.753-.05 2.968-.797 3.606-2.271l2.281-5.32zM77.719-12.512h-2.012L74.74-5.58h2.012l.966-6.933zm2.57 5.588c-.239 0-.368-.13-.299-.627l.28-2.012h.976l.398-1.335h-1.195l.189-1.345-1.713.2-.32 1.145h-.716l-.18 1.335h.628l-.289 2.012c-.19 1.404.388 2.171 1.614 2.171.478 0 1.135-.14 1.613-.418l-.478-1.255c-.179.08-.328.13-.508.13z"/><path d="M84.533-11.097c-2.351 0-3.178 1.992-3.178 3.556 0 1.325.608 2.161 1.743 2.161.757 0 1.236-.388 1.584-.916.21.568.787.837 1.405.876l.557-1.255c-.259-.11-.259-.279-.219-.617l.459-3.178c-.738-.438-1.604-.627-2.351-.627zm-.08 1.354c.16 0 .269.02.418.06l-.338 2.291c-.24.408-.508.598-.767.598-.22 0-.429-.1-.429-.757 0-.937.27-2.192 1.116-2.192zm5.48-3.446l-1.953.199-.827 5.897c-.16 1.106.359 1.713 1.365 1.713.408 0 .856-.08 1.155-.209l-.18-1.375c-.069.02-.138.04-.198.04-.13 0-.23-.07-.19-.318l.827-5.947zm1.783 1.464c.687 0 1.225-.508 1.225-1.186 0-.537-.379-.926-.966-.926-.688 0-1.225.508-1.225 1.186 0 .537.378.926.966.926zm.827.827H90.61l-.737 5.319h1.932l.737-5.32zm3.297-.2c-2.271 0-3.138 1.983-3.138 3.357 0 1.425.887 2.361 2.43 2.361.778 0 1.385-.249 1.923-.637l-.697-1.235c-.368.229-.618.348-.946.348-.399 0-.688-.15-.688-.787 0-.787.2-1.922 1.126-1.922.299 0 .578.1.857.358l.926-1.105c-.448-.469-1.066-.737-1.793-.737zM124.703-5.579h2.3v-2.47h1.804v-1.584h-1.803v-1.315h2.042l.229-1.584h-4.572v6.953z"/><path d="M130.407-13.966c-.707 0-1.215.508-1.215 1.165 0 .658.508 1.165 1.215 1.165.718 0 1.226-.507 1.226-1.165 0-.657-.508-1.165-1.226-1.165zm1.106 3.048h-2.211v5.339h2.211v-5.339zm4.055-.18c-.568 0-1.116.479-1.315 1.136l-.19-.956h-1.932v5.339h2.212v-2.3c.13-.609.318-1.077.936-1.077.16 0 .319.04.488.09l.339-2.132c-.19-.07-.329-.1-.538-.1zM140.793-7.402v-1.713c0-1.365-.727-2.012-2.51-2.012-.608 0-1.494.149-2.172.428l.468 1.394c.538-.179 1.086-.278 1.375-.278.538 0 .687.1.687.587v.07h-.269c-1.733 0-2.64.658-2.64 1.843 0 .996.698 1.723 1.774 1.723.597 0 1.215-.179 1.603-.767.34.498.817.677 1.544.717l.439-1.414c-.23-.09-.3-.23-.3-.578zm-2.59.498c-.2 0-.329-.169-.329-.398 0-.349.21-.498.678-.498h.09v.667c-.1.13-.26.23-.44.23zM146.279-12.741c-1.594 0-2.81.817-2.81 2.191 0 1.006.469 1.754 2.192 2.301.857.27 1.046.419 1.046.758 0 .259-.19.488-.727.488-.627 0-1.185-.24-1.683-.668l-1.116 1.225c.568.558 1.494 1.086 2.889 1.086 1.892 0 3.028-.966 3.028-2.33 0-1.246-.608-1.893-2.072-2.371-.946-.31-1.185-.379-1.185-.678 0-.239.189-.388.627-.388.538 0 1.016.189 1.465.547l1.006-1.185c-.648-.627-1.504-.976-2.66-.976zm8.06 5.34v-1.714c0-1.365-.728-2.012-2.51-2.012-.608 0-1.495.149-2.173.428l.469 1.394c.538-.179 1.086-.278 1.374-.278.538 0 .688.1.688.587v.07h-.27c-1.732 0-2.639.658-2.639 1.843 0 .996.697 1.723 1.773 1.723.598 0 1.216-.179 1.604-.767.339.498.817.677 1.544.717l.438-1.414c-.229-.09-.299-.23-.299-.578zm-2.59.497c-.2 0-.33-.169-.33-.398 0-.349.21-.498.678-.498h.09v.667c-.1.13-.26.23-.439.23zm6.953-4.223c-.627 0-1.086.199-1.604.707l-.15-.498h-1.932v5.339h2.212v-3.516c.199-.319.388-.439.508-.439.1 0 .18.06.18.399v3.556h2.21v-3.965c0-1.016-.548-1.583-1.424-1.583zm4.254 0c-1.584 0-2.42.796-2.42 1.783 0 .876.567 1.474 1.544 1.773.886.279.966.289.966.488 0 .15-.16.219-.438.219-.459 0-.957-.239-1.315-.528l-1.046 1.146c.567.547 1.474.886 2.42.886 1.554 0 2.63-.777 2.63-1.892 0-.977-.558-1.425-1.544-1.734-1.016-.319-1.036-.378-1.036-.498 0-.07.06-.13.329-.13.418 0 .887.15 1.245.37l.777-1.186c-.488-.418-1.305-.697-2.112-.697zM174.036-12.532h-2.251l-.628 4.493c-.11.717-.328 1.046-.836 1.046-.488 0-.598-.32-.498-1.027l.637-4.512H168.2l-.628 4.562c-.219 1.544.578 2.61 2.57 2.61 1.973 0 3.058-1.165 3.268-2.6l.627-4.572zm2.71-.687l-2.181.219-.817 5.817c-.17 1.166.379 1.823 1.454 1.823.449 0 .937-.09 1.255-.229l-.189-1.534c-.06.02-.12.04-.169.04-.1 0-.21-.06-.16-.29l.808-5.846zm2.64 6.136c-.199 0-.319-.11-.249-.588l.24-1.763h.926l.448-1.484h-1.165l.179-1.345-1.922.22-.33 1.125h-.677l-.199 1.484h.578l-.249 1.763c-.21 1.494.398 2.311 1.693 2.311.488 0 1.206-.15 1.704-.438l-.528-1.395c-.16.07-.289.11-.448.11zm5.141-4.014c-.558 0-1.106.388-1.454 1.075l-.03-.896h-1.883l-.737 5.339h2.161l.3-2.122c.209-.627.477-1.255 1.095-1.255.16 0 .289.03.468.09l.608-2.132c-.18-.07-.309-.1-.528-.1z"/><path d="M187.611-11.127c-2.41 0-3.257 1.982-3.257 3.576 0 1.345.607 2.191 1.763 2.191.777 0 1.235-.398 1.574-.916.249.558.876.836 1.524.866l.627-1.394c-.249-.11-.239-.269-.209-.588l.448-3.078c-.777-.468-1.703-.657-2.47-.657zm-.09 1.494c.11 0 .19.01.309.03l-.319 2.151c-.209.369-.438.518-.627.518-.14 0-.319-.03-.319-.627 0-.887.22-2.072.956-2.072zM195.183-12.532h-2.262l-.966 6.953h2.251l.977-6.953zm2.57 5.449c-.2 0-.32-.11-.25-.588l.24-1.763h.926l.449-1.484h-1.166l.18-1.345-1.923.22-.329 1.125h-.677l-.2 1.484h.578l-.249 1.763c-.209 1.494.399 2.311 1.694 2.311.488 0 1.205-.15 1.703-.438l-.528-1.395c-.16.07-.289.11-.448.11z"/><path d="M201.952-11.127c-2.41 0-3.257 1.982-3.257 3.576 0 1.345.608 2.191 1.763 2.191.777 0 1.236-.398 1.574-.916.25.558.877.836 1.524.866l.628-1.394c-.25-.11-.24-.269-.21-.588l.449-3.078c-.777-.468-1.704-.657-2.47-.657zm-.09 1.494c.11 0 .19.01.31.03l-.32 2.151c-.208.369-.437.518-.627.518-.139 0-.318-.03-.318-.627 0-.887.219-2.072.956-2.072zm5.63-3.586L205.31-13l-.816 5.817c-.17 1.166.378 1.823 1.454 1.823.448 0 .936-.09 1.255-.229l-.19-1.534c-.06.02-.119.04-.169.04-.1 0-.209-.06-.159-.29l.807-5.846zm1.664 1.583c.757 0 1.354-.557 1.354-1.304 0-.598-.418-1.016-1.055-1.016-.758 0-1.355.557-1.355 1.305 0 .587.418 1.015 1.056 1.015zm.956.718h-2.162l-.737 5.339h2.162l.737-5.339zm3.198-.21c-2.331 0-3.227 1.983-3.227 3.357 0 1.445.916 2.411 2.52 2.411.816 0 1.434-.269 1.982-.657l-.767-1.375c-.359.22-.588.329-.887.329-.339 0-.588-.09-.588-.658 0-.717.15-1.763.987-1.763.269 0 .537.1.817.359l1.026-1.235c-.459-.478-1.106-.767-1.863-.767z"/></svg>