<svg xmlns="http://www.w3.org/2000/svg" width="419.28" height="139.253" viewBox="0 -104.44 314.46 104.44"><path d="M96.19-97.422h-.21c-.075.578-.204 1.131-1.175 1.131h-.613c-.244 0-.244-.035-.244-.19v-2.565c0-.155 0-.21.478-.21h.214v-.219c-.279.02-.648.02-.931.02l-.843-.02v.22h.15c.404 0 .404.05.404.204v2.556c0 .154 0 .204-.404.204h-.15v.219h3.16l.164-1.35zm3.566.902v-.274h-.21v.264c0 .05 0 .269-.199.269s-.199-.22-.199-.27v-1.02c0-.48-.503-.753-1.12-.753-.305 0-.882.015-.882.439 0 .184.139.268.264.268a.256.256 0 0 0 .264-.263.27.27 0 0 0-.115-.225c.164-.054.403-.054.458-.054.424 0 .688.234.688.592v.13c-.483.025-.753.04-1.136.174-.329.115-.618.324-.618.648 0 .468.578.578.977.578.383 0 .682-.155.837-.409.02.175.134.384.388.384.035 0 .603 0 .603-.478zm-1.051-.26c0 .549-.598.598-.723.598-.294 0-.572-.154-.572-.413 0-.164.104-.623 1.295-.673v.489zm3.492.08v-.274h-.21v.26c0 .373-.219.517-.393.517-.384 0-.384-.398-.384-.503V-98h.882v-.22h-.882v-.916H101c-.004.468-.253.957-.761.972V-98h.528v1.3c0 .568.468.683.777.683.374 0 .653-.274.653-.683zm2.111.628v-.219c-.333 0-.373 0-.373-.2v-1.783l-.817.055V-98c.354 0 .394.035.394.279v1.23c0 .155 0 .2-.324.2h-.09v.219c.204-.015.414-.02.618-.02.19 0 .408.005.593.02zm-.318-2.99a.302.302 0 0 0-.304-.303.305.305 0 0 0-.304.304c0 .169.134.304.304.304a.305.305 0 0 0 .304-.304zm4.105 2.99v-.219h-.09c-.324 0-.324-.045-.324-.2v-1.086c0-.547-.373-.697-.837-.697-.533 0-.812.294-.926.488v-.488l-.818.055V-98c.37 0 .414.035.414.279v1.23c0 .155 0 .2-.324.2h-.09v.219c.215-.015.424-.02.638-.02.21 0 .424.005.633.02v-.219h-.09c-.324 0-.324-.045-.324-.2v-.866c0-.563.519-.753.827-.753.37 0 .454.21.454.528v1.092c0 .154 0 .199-.324.199h-.09v.219c.215-.015.424-.02.638-.02.21 0 .423.005.633.02zM116.24-96.072v-.219h-.15c-.404 0-.404-.05-.404-.204v-2.556c0-.155 0-.204.404-.204h.15v-.22h-.962c-.11 0-.155 0-.21.115l-1.345 2.82-1.34-2.815c-.055-.12-.11-.12-.214-.12h-.962v.22h.15c.404 0 .404.05.404.204v2.426c0 .13 0 .334-.553.334v.219a11.34 11.34 0 0 1 1.335 0v-.219c-.553 0-.553-.204-.553-.334v-2.6h.005l1.444 3.033c.04.085.085.12.155.12.094 0 .13-.07.15-.115l1.47-3.078h.004v2.77c0 .154 0 .204-.403.204h-.15v.219l.787-.02.787.02zm3.51-1.061c0-.623-.587-1.17-1.37-1.17s-1.37.547-1.37 1.17c0 .598.593 1.116 1.37 1.116.783 0 1.37-.518 1.37-1.116zm-.497-.05c0 .244 0 .986-.872.986s-.872-.742-.872-.986c0-.224 0-.956.872-.956s.872.732.872.956zM123.604-96.072v-.219c-.369 0-.414-.035-.414-.28v-2.958l-.837.054v.22c.37 0 .414.034.414.278v.972a1.218 1.218 0 0 0-.792-.27c-.747 0-1.365.504-1.365 1.132 0 .603.563 1.126 1.305 1.126.408 0 .692-.18.832-.299v.299l.857-.055zm-.857-.543a.946.946 0 0 1-.802.433c-.25 0-.498-.1-.663-.318-.16-.205-.174-.489-.174-.643 0-.135.01-.463.224-.693a.962.962 0 0 1 .678-.274c.144 0 .498.03.737.369v1.126zm3.965-.05c0-.084-.08-.084-.105-.084-.074 0-.084.02-.114.09-.14.343-.508.462-.787.462a.917.917 0 0 1-.703-.308c-.194-.24-.194-.554-.194-.688h1.754c.104 0 .15 0 .15-.12 0-.333-.18-.99-1.112-.99-.757 0-1.29.542-1.29 1.135 0 .633.607 1.15 1.365 1.15.792 0 1.036-.552 1.036-.647zm-.384-.682h-1.51c.06-.658.544-.792.778-.792.693 0 .727.647.732.792zm3.089-.583c0-.19-.18-.344-.444-.344-.249 0-.568.13-.762.548h-.005v-.548l-.797.055V-98c.368 0 .413.035.413.279v1.23c0 .155 0 .2-.323.2h-.09v.219c.21-.015.433-.02.643-.02l.712.02v-.219h-.134c-.384 0-.384-.05-.384-.204v-.693c0-.463.264-.912.737-.922 0 0-.07.07-.07.18 0 .179.14.254.25.254.124 0 .254-.085.254-.254zm3.716 1.858v-.219h-.09c-.323 0-.323-.045-.323-.2v-1.086c0-.547-.374-.697-.838-.697-.533 0-.811.294-.926.488v-.488l-.817.055V-98c.368 0 .413.035.413.279v1.23c0 .155 0 .2-.324.2h-.09v.219c.215-.015.424-.02.638-.02.21 0 .424.005.633.02v-.219h-.09c-.323 0-.323-.045-.323-.2v-.866c0-.563.518-.753.827-.753.368 0 .453.21.453.528v1.092c0 .154 0 .199-.324.199h-.09v.219c.215-.015.424-.02.638-.02.21 0 .424.005.633.02zM140.481-96.535c0-.095-.05-.105-.104-.105-.08 0-.1.03-.105.1-.02.284-.204.413-.374.413-.338 0-.383-.378-.423-.697a5.762 5.762 0 0 0-.055-.399c-.075-.294-.334-.468-.633-.548.32-.085.932-.329.932-.787 0-.518-.772-.917-1.6-.917h-1.883v.22h.15c.404 0 .404.05.404.204v2.556c0 .154 0 .204-.404.204h-.15v.219l.808-.02.807.02v-.219h-.15c-.403 0-.403-.05-.403-.204v-1.196h.767c.269 0 .503.07.658.199.184.15.184.27.184.563 0 .384 0 .578.264.777.19.145.488.19.702.19a.587.587 0 0 0 .608-.573zm-1.345-2.023c0 .573-.568.702-1.071.702h-.767v-1.21c0-.15.01-.175.16-.19h.353c.563 0 1.325 0 1.325.698zm4.568 1.425c0-.623-.588-1.17-1.37-1.17-.782 0-1.37.547-1.37 1.17 0 .598.592 1.116 1.37 1.116.782 0 1.37-.518 1.37-1.116zm-.498-.05c0 .244 0 .986-.872.986s-.872-.742-.872-.986c0-.224 0-.956.872-.956s.872.732.872.956zm5.963 1.111v-.219h-.09c-.324 0-.324-.045-.324-.2v-1.086c0-.612-.468-.697-.842-.697-.488 0-.772.244-.912.463-.124-.458-.632-.463-.817-.463-.513 0-.802.274-.926.488v-.488l-.818.055V-98c.37 0 .414.035.414.279v1.23c0 .155 0 .2-.324.2h-.09v.219c.215-.015.424-.02.638-.02.21 0 .424.005.633.02v-.219h-.09c-.324 0-.324-.045-.324-.2v-.866c0-.553.509-.753.833-.753.363 0 .453.205.453.528v1.092c0 .154 0 .199-.324.199h-.09v.219a9.06 9.06 0 0 1 .638-.02c.21 0 .424.005.633.02v-.219h-.09c-.324 0-.324-.045-.324-.2v-.866c0-.553.509-.753.832-.753.364 0 .454.205.454.528v1.092c0 .154 0 .199-.324.199h-.09v.219a9.05 9.05 0 0 1 .638-.02c.21 0 .423.005.633.02zm3.491-.448v-.274h-.21v.264c0 .05 0 .269-.198.269-.2 0-.2-.22-.2-.27v-1.02c0-.48-.503-.753-1.12-.753-.304 0-.882.015-.882.439 0 .184.139.268.264.268a.256.256 0 0 0 .264-.263.27.27 0 0 0-.115-.225c.165-.054.404-.054.459-.054.423 0 .687.234.687.592v.13c-.483.025-.752.04-1.136.174-.329.115-.618.324-.618.648 0 .468.578.578.977.578.383 0 .682-.155.837-.409.02.175.134.384.388.384.035 0 .603 0 .603-.478zm-1.051-.26c0 .549-.598.598-.722.598-.294 0-.573-.154-.573-.413 0-.164.104-.623 1.295-.673v.489zm4.683.708v-.219h-.09c-.324 0-.324-.045-.324-.2v-1.086c0-.547-.374-.697-.837-.697-.533 0-.812.294-.927.488v-.488l-.817.055V-98c.369 0 .414.035.414.279v1.23c0 .155 0 .2-.324.2h-.09v.219c.215-.015.424-.02.638-.02.21 0 .423.005.633.02v-.219h-.09c-.324 0-.324-.045-.324-.2v-.866c0-.563.519-.753.827-.753.369 0 .454.21.454.528v1.092c0 .154 0 .199-.324.199h-.09v.219c.214-.015.424-.02.638-.02.21 0 .423.005.633.02zM176.073-98.771h-.419c-.149 1.155-.408 2.26-2.35 2.26h-1.225c-.489 0-.489-.07-.489-.378v-5.13c0-.309 0-.418.957-.418h.428v-.438c-.558.04-1.295.04-1.863.04l-1.683-.04v.438h.299c.806 0 .806.1.806.408v5.11c0 .31 0 .409-.806.409h-.3v.438h6.316l.329-2.7zm7.133 1.802v-.547h-.418v.527c0 .1 0 .539-.399.539-.398 0-.398-.439-.398-.539v-2.041c0-.957-1.006-1.504-2.241-1.504-.608 0-1.763.03-1.763.876 0 .369.279.538.528.538.268 0 .528-.19.528-.528a.54.54 0 0 0-.23-.448c.33-.11.807-.11.917-.11.847 0 1.374.468 1.374 1.186v.259c-.966.05-1.504.08-2.27.348-.658.23-1.236.648-1.236 1.295 0 .936 1.156 1.156 1.953 1.156.767 0 1.364-.31 1.673-.817.04.348.27.767.777.767.07 0 1.205 0 1.205-.957zm-2.102-.517c0 1.095-1.195 1.195-1.444 1.195-.588 0-1.145-.309-1.145-.827 0-.329.209-1.245 2.59-1.345v.977zm6.984.159v-.548h-.418v.518c0 .747-.438 1.036-.787 1.036-.767 0-.767-.797-.767-1.006v-2.6h1.763v-.438h-1.763v-1.833h-.419c-.01.936-.508 1.912-1.524 1.942v.329h1.056v2.6c0 1.135.937 1.365 1.554 1.365.747 0 1.305-.548 1.305-1.365zm4.225 1.255v-.438c-.668 0-.748 0-.748-.399v-3.566l-1.633.11v.438c.707 0 .787.07.787.558v2.46c0 .31 0 .399-.648.399h-.18v.438c.41-.03.828-.04 1.236-.04.379 0 .817.01 1.185.04zm-.638-5.977a.604.604 0 0 0-.608-.607.61.61 0 0 0-.607.607c0 .339.268.608.607.608a.61.61 0 0 0 .608-.608zm8.208 5.977v-.438h-.179c-.647 0-.647-.09-.647-.399v-2.171c0-1.096-.747-1.395-1.674-1.395-1.066 0-1.623.588-1.853.976v-.976l-1.633.11v.438c.737 0 .827.07.827.558v2.46c0 .31 0 .399-.648.399h-.18v.438c.429-.03.847-.04 1.276-.04.418 0 .846.01 1.265.04v-.438h-.18c-.647 0-.647-.09-.647-.399v-1.733c0-1.126 1.036-1.504 1.654-1.504.737 0 .906.418.906 1.056v2.181c0 .31 0 .399-.647.399h-.18v.438c.429-.03.847-.04 1.275-.04.419 0 .847.01 1.265.04zM216.19-96.072v-.438h-.3c-.807 0-.807-.1-.807-.409v-5.11c0-.309 0-.408.807-.408h.3v-.438h-1.923c-.22 0-.31 0-.419.229l-2.69 5.638-2.679-5.628c-.11-.24-.219-.24-.428-.24h-1.923v.439h.3c.806 0 .806.1.806.408v4.851c0 .26 0 .668-1.106.668v.438a22.658 22.658 0 0 1 2.67 0v-.438c-1.106 0-1.106-.409-1.106-.668v-5.2h.01l2.889 6.067c.08.17.17.239.309.239.189 0 .259-.14.299-.229l2.938-6.156h.01v5.538c0 .31 0 .409-.807.409h-.298v.438l1.573-.04 1.574.04zm7.024-2.122c0-1.245-1.176-2.34-2.74-2.34-1.564 0-2.74 1.095-2.74 2.34 0 1.196 1.186 2.232 2.74 2.232 1.564 0 2.74-1.036 2.74-2.232zm-.997-.1c0 .489 0 1.973-1.743 1.973s-1.743-1.484-1.743-1.972c0-.449 0-1.913 1.743-1.913s1.743 1.464 1.743 1.913zM230.92-96.072v-.438c-.738 0-.827-.07-.827-.558v-5.917l-1.674.11v.438c.737 0 .827.07.827.558v1.942c-.22-.189-.757-.538-1.584-.538-1.494 0-2.73 1.006-2.73 2.261 0 1.206 1.126 2.252 2.61 2.252.817 0 1.385-.359 1.664-.598v.598l1.713-.11zm-1.714-1.086a1.892 1.892 0 0 1-1.604.867c-.498 0-.996-.2-1.325-.638-.318-.408-.348-.976-.348-1.285 0-.269.02-.926.448-1.384.349-.359.867-.548 1.355-.548.289 0 .996.06 1.474.737v2.251zm7.93-.1c0-.169-.16-.169-.209-.169-.15 0-.17.04-.229.18-.28.687-1.016.926-1.574.926a1.831 1.831 0 0 1-1.404-.618c-.389-.478-.389-1.105-.389-1.374h3.506c.21 0 .3 0 .3-.24 0-.667-.36-1.981-2.222-1.981-1.514 0-2.58 1.085-2.58 2.27 0 1.266 1.215 2.302 2.73 2.302 1.583 0 2.071-1.106 2.071-1.295zm-.767-1.364h-3.018c.12-1.315 1.086-1.584 1.554-1.584 1.385 0 1.454 1.295 1.464 1.584zm6.177-1.166c0-.378-.359-.687-.886-.687-.499 0-1.136.26-1.525 1.096h-.01v-1.096l-1.593.11v.438c.737 0 .826.07.826.558v2.46c0 .31 0 .399-.647.399h-.18v.438c.419-.03.867-.04 1.286-.04l1.424.04v-.438h-.269c-.767 0-.767-.1-.767-.409v-1.384c0-.927.528-1.823 1.474-1.843 0 0-.14.14-.14.358 0 .36.28.509.499.509.249 0 .508-.17.508-.509zm7.432 3.716v-.438h-.18c-.647 0-.647-.09-.647-.399v-2.171c0-1.096-.747-1.395-1.674-1.395-1.065 0-1.623.588-1.852.976v-.976l-1.634.11v.438c.737 0 .827.07.827.558v2.46c0 .31 0 .399-.648.399h-.179v.438c.428-.03.847-.04 1.275-.04.419 0 .847.01 1.265.04v-.438h-.18c-.647 0-.647-.09-.647-.399v-1.733c0-1.126 1.036-1.504 1.654-1.504.737 0 .906.418.906 1.056v2.181c0 .31 0 .399-.647.399h-.18v.438c.43-.03.847-.04 1.276-.04.418 0 .846.01 1.265.04zM264.674-96.998c0-.19-.1-.21-.21-.21-.16 0-.199.06-.209.2-.04.568-.408.826-.747.826-.677 0-.767-.757-.847-1.394-.03-.27-.08-.668-.11-.797-.149-.588-.667-.936-1.264-1.096.637-.17 1.863-.657 1.863-1.574 0-1.036-1.545-1.832-3.198-1.832h-3.766v.438h.3c.806 0 .806.1.806.408v5.11c0 .31 0 .409-.807.409h-.299v.438l1.614-.04 1.614.04v-.438h-.299c-.807 0-.807-.1-.807-.409v-2.39h1.534c.538 0 1.006.14 1.315.398.369.299.369.538.369 1.126 0 .767 0 1.155.528 1.554.378.288.976.378 1.404.378.956 0 1.216-.817 1.216-1.145zm-2.69-4.045c0 1.146-1.136 1.405-2.142 1.405h-1.534v-2.42c0-.3.02-.35.319-.38h.707c1.126 0 2.65 0 2.65 1.395zm9.136 2.85c0-1.246-1.176-2.341-2.74-2.341-1.564 0-2.739 1.095-2.739 2.34 0 1.196 1.185 2.232 2.74 2.232 1.563 0 2.739-1.036 2.739-2.232zm-.996-.1c0 .488 0 1.972-1.744 1.972-1.743 0-1.743-1.484-1.743-1.972 0-.449 0-1.913 1.743-1.913 1.744 0 1.744 1.464 1.744 1.913zm11.924 2.221v-.438h-.179c-.648 0-.648-.09-.648-.399v-2.171c0-1.225-.936-1.395-1.683-1.395-.977 0-1.544.488-1.823.926-.249-.916-1.265-.926-1.634-.926-1.026 0-1.604.548-1.853.976v-.976l-1.633.11v.438c.737 0 .827.07.827.558v2.46c0 .31 0 .399-.648.399h-.179v.438c.428-.03.846-.04 1.275-.04.418 0 .846.01 1.265.04v-.438h-.179c-.648 0-.648-.09-.648-.399v-1.733c0-1.106 1.016-1.504 1.664-1.504.727 0 .906.408.906 1.056v2.181c0 .31 0 .399-.647.399h-.18v.438c.429-.03.847-.04 1.275-.04.419 0 .847.01 1.265.04v-.438h-.179c-.647 0-.647-.09-.647-.399v-1.733c0-1.106 1.016-1.504 1.663-1.504.728 0 .907.408.907 1.056v2.181c0 .31 0 .399-.648.399h-.179v.438c.428-.03.847-.04 1.275-.04.418 0 .847.01 1.265.04zm6.984-.897v-.547h-.418v.527c0 .1 0 .539-.399.539-.398 0-.398-.439-.398-.539v-2.041c0-.957-1.006-1.504-2.241-1.504-.608 0-1.763.03-1.763.876 0 .369.279.538.528.538.268 0 .527-.19.527-.528a.538.538 0 0 0-.229-.448c.329-.11.807-.11.917-.11.847 0 1.374.468 1.374 1.186v.259c-.966.05-1.504.08-2.271.348-.657.23-1.235.648-1.235 1.295 0 .936 1.156 1.156 1.953 1.156.766 0 1.364-.31 1.673-.817.04.348.269.767.777.767.07 0 1.205 0 1.205-.957zm-2.102-.517c0 1.095-1.195 1.195-1.444 1.195-.588 0-1.145-.309-1.145-.827 0-.329.209-1.245 2.589-1.345v.977zm9.365 1.414v-.438h-.18c-.647 0-.647-.09-.647-.399v-2.171c0-1.096-.747-1.395-1.674-1.395-1.065 0-1.623.588-1.852.976v-.976l-1.634.11v.438c.737 0 .827.07.827.558v2.46c0 .31 0 .399-.647.399h-.18v.438c.428-.03.847-.04 1.275-.04.419 0 .847.01 1.265.04v-.438h-.179c-.648 0-.648-.09-.648-.399v-1.733c0-1.126 1.037-1.504 1.654-1.504.737 0 .907.418.907 1.056v2.181c0 .31 0 .399-.648.399h-.179v.438c.428-.03.846-.04 1.275-.04.418 0 .846.01 1.265.04zM307.519-98.084c0-1.126-.967-2.172-2.351-2.172-.628 0-1.136.16-1.564.488v-1.793c.528.13.976.13 1.086.13.677 0 1.175-.2 1.434-.339.239-.12.917-.548.917-.767 0-.15-.11-.169-.14-.169 0 0-.04 0-.149.05a5.39 5.39 0 0 1-1.654.269c-.568 0-1.116-.1-1.643-.28-.11-.039-.15-.039-.15-.039-.139 0-.139.12-.139.279v2.988c0 .17 0 .299.189.299.109 0 .119-.02.209-.13.378-.438.907-.657 1.584-.657.578 0 .896.339 1.036.548.229.339.279.787.279 1.265 0 .418-.04.976-.429 1.365-.448.458-1.016.488-1.235.488-.647 0-1.374-.28-1.683-.867.418-.03.558-.329.558-.558a.545.545 0 0 0-.558-.558c-.219 0-.558.13-.558.588 0 .977.956 1.803 2.261 1.803 1.484 0 2.7-.996 2.7-2.231zM85.689-82.516h-.238c-.076.683-.18 1.583-1.499 1.583h-.697c-.328 0-.335-.056-.335-.272v-3.669c0-.23 0-.32.655-.32h.245v-.252l-1.221.028-1.06-.028v.251h.167c.537 0 .551.07.551.314v3.634c0 .237-.014.314-.55.314h-.168v.251h3.94l.21-1.834zm4.177 1.206v-.383h-.237v.376c0 .07 0 .405-.258.405s-.258-.328-.258-.419v-1.22c0-.37 0-.635-.321-.893-.286-.237-.621-.349-1.033-.349-.662 0-1.13.251-1.13.677 0 .223.154.341.335.341.189 0 .328-.139.328-.327a.32.32 0 0 0-.244-.321c.251-.175.656-.175.698-.175.39 0 .815.258.815.844v.217c-.383.014-.843.034-1.353.223-.627.23-.823.614-.823.928 0 .6.726.774 1.22.774.559 0 .887-.314 1.033-.586.028.286.217.551.537.551 0 0 .69 0 .69-.663zm-1.305-.355c0 .67-.585.857-.9.857-.355 0-.69-.237-.69-.578 0-.384.335-.921 1.59-.97v.69zm4.094.104v-.384h-.237v.377c0 .474-.223.733-.495.733-.482 0-.482-.586-.482-.712v-1.89h1.088v-.251h-1.088v-1.284h-.237c-.007.628-.293 1.319-.962 1.34v.195h.648v1.883c0 .781.586.942.977.942.467 0 .788-.398.788-.949zm2.406.879v-.251c-.405 0-.474 0-.474-.293v-2.532l-1.026.077v.25c.44 0 .503.043.503.385v1.813c0 .3-.07.3-.524.3v.251s.503-.028.782-.028c.244 0 .495.007.74.028zm-.384-4.2a.397.397 0 1 0-.795-.007.397.397 0 1 0 .795.007zm4.84 4.2v-.251c-.453 0-.522 0-.522-.3v-1.562c0-.607-.3-.963-1.047-.963-.572 0-.941.314-1.137.677h-.007v-.677l-1.025.077v.25c.467 0 .523.05.523.391v1.807c0 .3-.07.3-.523.3v.251s.502-.028.795-.028c.258 0 .74.021.802.028v-.251c-.453 0-.523 0-.523-.3v-1.256c0-.732.579-1.074 1.04-1.074.488 0 .55.384.55.74v1.59c0 .3-.07.3-.523.3v.251s.503-.028.795-.028c.259 0 .74.021.803.028zM109.208-80.682v-.251h-.167c-.537 0-.551-.07-.551-.314v-3.634c0-.237.014-.314.55-.314h.168v-.251h-1.213c-.14 0-.203 0-.258.14l-1.674 3.954-1.667-3.94c-.063-.154-.119-.154-.265-.154h-1.221v.251h.168c.536 0 .55.07.55.314v3.446c0 .188 0 .502-.718.502v.251c.286-.021.565-.028.85-.028s.566.007.852.028v-.251c-.719 0-.719-.314-.719-.502v-3.676l.007-.007 1.814 4.276c.035.083.07.16.174.16.05 0 .112-.021.168-.147l1.841-4.359.007.007v3.934c0 .237-.014.314-.55.314h-.168v.251l1.01-.028 1.012.028zm4.128-1.486c0-.872-.746-1.625-1.709-1.625s-1.709.753-1.709 1.625c0 .865.768 1.556 1.71 1.556.941 0 1.708-.69 1.708-1.556zm-.635-.062c0 .334-.02.704-.223.99-.188.265-.509.405-.85.405-.259 0-.635-.084-.865-.426-.189-.286-.21-.649-.21-.97 0-.3.007-.711.251-1.01.175-.203.468-.357.823-.357.412 0 .705.196.858.412.196.272.216.62.216.956zM117.879-80.682v-.251c-.468 0-.523-.049-.523-.39v-4.2l-1.046.077v.251c.467 0 .523.049.523.39v1.445a1.377 1.377 0 0 0-.977-.398c-.927 0-1.709.698-1.709 1.576 0 .872.74 1.57 1.625 1.57.573 0 .914-.307 1.033-.433v.433l1.074-.07zm-1.074-.733c-.182.328-.537.607-.99.607-.391 0-.67-.23-.81-.432-.14-.21-.223-.488-.223-.935 0-.16 0-.683.286-1.011.28-.314.62-.377.823-.377.335 0 .635.154.83.405.084.112.084.118.084.251v1.492zm4.686-.104c0-.028-.014-.098-.118-.098-.091 0-.105.042-.126.112-.216.565-.746.67-.997.67a1.08 1.08 0 0 1-.851-.412c-.258-.328-.265-.753-.265-1.025h2.162c.146 0 .195 0 .195-.154 0-.614-.342-1.367-1.381-1.367-.914 0-1.611.726-1.611 1.583 0 .886.774 1.598 1.702 1.598.942 0 1.29-.753 1.29-.907zm-.488-.935h-1.862c.076-.983.704-1.144.969-1.144.858 0 .886.97.893 1.144zm3.605-.858c0-.237-.223-.446-.55-.446-.35 0-.733.216-.942.746h-.007v-.746l-.998.077v.25c.468 0 .523.05.523.391v1.807c0 .3-.07.3-.523.3v.251c.035 0 .51-.028.795-.028l.907.028v-.251h-.14c-.515 0-.515-.077-.515-.314v-1.025c0-.586.272-1.29.934-1.29a.321.321 0 0 0-.118.25c0 .23.18.321.314.321.167 0 .32-.111.32-.32zm4.387 2.63v-.251c-.453 0-.523 0-.523-.3v-1.562c0-.607-.3-.963-1.046-.963-.572 0-.942.314-1.137.677h-.007v-.677l-1.026.077v.25c.468 0 .523.05.523.391v1.807c0 .3-.07.3-.523.3v.251s.503-.028.796-.028c.258 0 .74.021.802.028v-.251c-.454 0-.523 0-.523-.3v-1.256c0-.732.578-1.074 1.039-1.074.488 0 .551.384.551.74v1.59c0 .3-.07.3-.523.3v.251s.502-.028.795-.028c.258 0 .74.021.802.028zM137.655-81.317c0-.048 0-.132-.118-.132-.105 0-.112.063-.119.132-.035.405-.265.579-.481.579-.398 0-.453-.411-.537-1.046-.077-.558-.098-.67-.3-.9-.07-.076-.265-.258-.642-.376.628-.147 1.256-.559 1.256-1.124 0-.697-.921-1.262-2.002-1.262h-2.35v.251h.167c.537 0 .55.07.55.314v3.634c0 .237-.013.314-.55.314h-.168v.251l1.033-.028 1.039.028v-.251h-.168c-.537 0-.55-.07-.55-.314v-1.723h.927c.126 0 .488 0 .795.286.244.216.244.39.244.858 0 .453 0 .74.321 1.005.3.244.712.278.907.278.593 0 .746-.565.746-.774zm-1.688-2.867c0 .782-.607 1.019-1.346 1.019h-.907v-1.758c0-.195.007-.244.189-.265.056-.007.293-.007.439-.007.67 0 1.625 0 1.625 1.011zm5.46 2.016c0-.872-.746-1.625-1.708-1.625s-1.71.753-1.71 1.625c0 .865.768 1.556 1.71 1.556.941 0 1.709-.69 1.709-1.556zm-.634-.062c0 .334-.021.704-.223.99-.189.265-.51.405-.851.405-.258 0-.635-.084-.865-.426-.188-.286-.21-.649-.21-.97 0-.3.008-.711.252-1.01.174-.203.467-.357.823-.357.411 0 .704.196.858.412.195.272.216.62.216.956zm7.17 1.548v-.251c-.454 0-.524 0-.524-.3v-1.562c0-.607-.3-.963-1.046-.963-.55 0-.928.3-1.116.649-.14-.496-.516-.649-1.025-.649-.572 0-.942.314-1.137.677h-.007v-.677l-1.025.077v.25c.467 0 .523.05.523.391v1.807c0 .3-.07.3-.523.3v.251s.502-.028.795-.028c.258 0 .74.021.802.028v-.251c-.453 0-.523 0-.523-.3v-1.256c0-.732.579-1.074 1.039-1.074.488 0 .551.384.551.74v1.59c0 .3-.07.3-.523.3v.251s.502-.028.795-.028c.258 0 .74.021.802.028v-.251c-.453 0-.523 0-.523-.3v-1.256c0-.732.579-1.074 1.04-1.074.488 0 .55.384.55.74v1.59c0 .3-.07.3-.523.3v.251s.502-.028.795-.028c.258 0 .74.021.803.028zm4.086-.628v-.383h-.238v.376c0 .07 0 .405-.258.405-.257 0-.257-.328-.257-.419v-1.22c0-.37 0-.635-.321-.893-.286-.237-.621-.349-1.033-.349-.662 0-1.13.251-1.13.677 0 .223.154.341.335.341.189 0 .328-.139.328-.327a.32.32 0 0 0-.244-.321c.25-.175.656-.175.697-.175.391 0 .816.258.816.844v.217c-.383.014-.843.034-1.353.223-.628.23-.823.614-.823.928 0 .6.726.774 1.22.774.559 0 .887-.314 1.033-.586.028.286.216.551.537.551 0 0 .69 0 .69-.663zm-1.305-.355c0 .67-.586.857-.9.857-.355 0-.69-.237-.69-.578 0-.384.335-.921 1.59-.97v.69zm5.594.983v-.251c-.454 0-.523 0-.523-.3v-1.562c0-.607-.3-.963-1.047-.963-.572 0-.941.314-1.137.677h-.007v-.677l-1.025.077v.25c.467 0 .523.05.523.391v1.807c0 .3-.07.3-.523.3v.251s.502-.028.795-.028c.258 0 .74.021.802.028v-.251c-.453 0-.523 0-.523-.3v-1.256c0-.732.58-1.074 1.04-1.074.488 0 .55.384.55.74v1.59c0 .3-.07.3-.523.3v.251s.503-.028.796-.028c.258 0 .739.021.802.028zM175.087-83.302h-.34c-.108.976-.258 2.261-2.14 2.261h-.997c-.468 0-.478-.08-.478-.388v-5.24c0-.328 0-.458.937-.458h.348v-.358l-1.743.04-1.514-.04v.358h.239c.767 0 .787.1.787.448v5.19c0 .339-.02.448-.787.448h-.24v.359h5.629l.299-2.62zm5.967 1.723v-.547h-.338v.537c0 .1 0 .578-.369.578-.368 0-.368-.468-.368-.597v-1.744c0-.528 0-.906-.458-1.275-.409-.338-.887-.498-1.475-.498-.946 0-1.614.359-1.614.966 0 .32.22.489.479.489.269 0 .468-.2.468-.469 0-.169-.08-.378-.349-.458.359-.249.937-.249.996-.249.558 0 1.166.369 1.166 1.206v.308c-.548.02-1.205.05-1.933.319-.896.329-1.175.877-1.175 1.325 0 .857 1.036 1.106 1.743 1.106.797 0 1.265-.449 1.474-.837.04.408.309.787.767.787 0 0 .986 0 .986-.947zm-1.862-.508c0 .957-.837 1.226-1.285 1.226-.508 0-.986-.34-.986-.827 0-.548.478-1.315 2.27-1.385v.986zm5.848.15v-.548h-.339v.538c0 .677-.319 1.046-.707 1.046-.688 0-.688-.837-.688-1.016v-2.7h1.554v-.358h-1.554v-1.833h-.338c-.01.896-.419 1.883-1.375 1.912v.28h.927v2.689c0 1.116.836 1.345 1.394 1.345.667 0 1.126-.568 1.126-1.355zm3.437 1.255v-.359c-.578 0-.678 0-.678-.418v-3.616l-1.464.11v.358c.628 0 .718.06.718.548v2.59c0 .428-.1.428-.748.428v.359s.718-.04 1.116-.04c.349 0 .707.01 1.056.04zm-.548-5.997a.567.567 0 1 0-1.136-.01.567.567 0 1 0 1.136.01zm6.914 5.997v-.359c-.648 0-.748 0-.748-.428V-83.7c0-.867-.428-1.375-1.494-1.375-.816 0-1.345.448-1.623.966h-.01v-.966l-1.465.11v.358c.668 0 .747.07.747.558v2.58c0 .428-.1.428-.747.428v.359s.717-.04 1.136-.04c.369 0 1.056.03 1.145.04v-.359c-.647 0-.747 0-.747-.428v-1.793c0-1.046.827-1.534 1.485-1.534.697 0 .787.548.787 1.056v2.271c0 .428-.1.428-.748.428v.359s.718-.04 1.136-.04c.368 0 1.056.03 1.146.04zM208.69-80.682v-.359h-.238c-.767 0-.787-.1-.787-.448v-5.19c0-.338.02-.448.787-.448h.239v-.358h-1.733c-.2 0-.29 0-.37.199l-2.39 5.648-2.38-5.628c-.09-.22-.17-.22-.379-.22h-1.743v.359h.239c.767 0 .787.1.787.448v4.921c0 .27 0 .717-1.026.717v.359c.408-.03.807-.04 1.215-.04.409 0 .807.01 1.215.04v-.359c-1.026 0-1.026-.448-1.026-.717v-5.25l.01-.01 2.59 6.107c.05.12.1.229.25.229.069 0 .159-.03.238-.21l2.63-6.225.01.01v5.618c0 .339-.02.448-.787.448h-.239v.359l1.444-.04 1.445.04zm5.9-2.122c0-1.245-1.066-2.32-2.441-2.32-1.375 0-2.44 1.075-2.44 2.32 0 1.235 1.095 2.222 2.44 2.222s2.44-.987 2.44-2.222zm-.907-.09c0 .479-.03 1.007-.319 1.415-.269.379-.727.578-1.215.578-.369 0-.907-.12-1.236-.608-.269-.408-.298-.926-.298-1.384 0-.429.01-1.017.358-1.445.25-.289.668-.508 1.176-.508.587 0 1.006.279 1.225.588.279.388.309.887.309 1.365zM221.08-80.682v-.359c-.667 0-.746-.07-.746-.558v-5.996l-1.494.11v.358c.667 0 .747.07.747.558v2.062a1.965 1.965 0 0 0-1.395-.568c-1.325 0-2.44.996-2.44 2.251 0 1.245 1.055 2.242 2.32 2.242.817 0 1.305-.439 1.475-.618v.618l1.534-.1zm-1.533-1.046c-.26.468-.767.867-1.415.867-.557 0-.956-.33-1.155-.618-.2-.299-.319-.697-.319-1.335 0-.229 0-.976.408-1.444a1.568 1.568 0 0 1 1.176-.538c.478 0 .906.22 1.185.578.12.16.12.17.12.358v2.132zm6.695-.15c0-.04-.02-.139-.17-.139-.13 0-.15.06-.18.16-.308.807-1.065.956-1.424.956-.468 0-.916-.21-1.215-.588-.368-.468-.378-1.076-.378-1.464h3.088c.209 0 .279 0 .279-.22 0-.876-.489-1.952-1.973-1.952a2.275 2.275 0 0 0-2.3 2.261c0 1.265 1.105 2.282 2.43 2.282 1.344 0 1.843-1.076 1.843-1.295zm-.698-1.334h-2.66c.11-1.405 1.007-1.634 1.385-1.634 1.225 0 1.265 1.385 1.275 1.634zm5.15-1.225c0-.34-.318-.638-.786-.638-.498 0-1.046.309-1.345 1.066h-.01v-1.066l-1.424.11v.358c.667 0 .747.07.747.558v2.58c0 .428-.1.428-.747.428v.359c.05 0 .727-.04 1.135-.04l1.295.04v-.359h-.199c-.737 0-.737-.11-.737-.448v-1.464c0-.837.388-1.843 1.335-1.843a.46.46 0 0 0-.17.359c0 .328.26.458.448.458.24 0 .459-.16.459-.458zm6.267 3.755v-.359c-.647 0-.747 0-.747-.428V-83.7c0-.867-.429-1.375-1.494-1.375-.817 0-1.345.448-1.624.966h-.01v-.966l-1.464.11v.358c.667 0 .747.07.747.558v2.58c0 .428-.1.428-.747.428v.359s.717-.04 1.135-.04c.37 0 1.056.03 1.146.04v-.359c-.648 0-.747 0-.747-.428v-1.793c0-1.046.827-1.534 1.484-1.534.697 0 .787.548.787 1.056v2.271c0 .428-.1.428-.747.428v.359s.717-.04 1.135-.04c.369 0 1.056.03 1.146.04zM249.338-81.589c0-.07 0-.189-.17-.189-.15 0-.16.09-.17.19-.05.577-.377.826-.687.826-.567 0-.647-.588-.766-1.494-.11-.797-.14-.956-.429-1.285-.1-.11-.378-.369-.916-.538.896-.209 1.793-.797 1.793-1.604 0-.996-1.315-1.802-2.86-1.802h-3.356v.358h.24c.766 0 .786.1.786.448v5.19c0 .339-.02.448-.787.448h-.239v.359l1.474-.04 1.484.04v-.359h-.239c-.767 0-.786-.1-.786-.448v-2.46h1.324c.18 0 .698 0 1.136.408.349.309.349.558.349 1.225 0 .648 0 1.056.458 1.435.428.348 1.016.398 1.295.398.846 0 1.066-.807 1.066-1.106zm-2.41-4.094c0 1.116-.868 1.455-1.923 1.455h-1.295v-2.51c0-.28.01-.349.268-.379.08-.01.419-.01.628-.01.956 0 2.321 0 2.321 1.444zm7.8 2.88c0-1.246-1.066-2.322-2.44-2.322-1.375 0-2.441 1.076-2.441 2.321 0 1.235 1.096 2.222 2.44 2.222 1.345 0 2.44-.987 2.44-2.222zm-.907-.09c0 .478-.03 1.006-.318 1.414-.27.379-.728.578-1.216.578-.368 0-.906-.12-1.235-.608-.27-.408-.299-.926-.299-1.384 0-.429.01-1.017.359-1.445.249-.289.667-.508 1.175-.508.588 0 1.006.279 1.225.588.28.388.31.887.31 1.365zm10.241 2.211v-.359c-.647 0-.747 0-.747-.428V-83.7c0-.867-.428-1.375-1.494-1.375-.787 0-1.325.428-1.594.926-.2-.707-.737-.926-1.464-.926-.817 0-1.345.448-1.624.966h-.01v-.966l-1.464.11v.358c.667 0 .747.07.747.558v2.58c0 .428-.1.428-.747.428v.359s.717-.04 1.135-.04c.37 0 1.056.03 1.146.04v-.359c-.648 0-.747 0-.747-.428v-1.793c0-1.046.827-1.534 1.484-1.534.697 0 .787.548.787 1.056v2.271c0 .428-.1.428-.747.428v.359s.717-.04 1.135-.04c.369 0 1.056.03 1.146.04v-.359c-.647 0-.747 0-.747-.428v-1.793c0-1.046.827-1.534 1.484-1.534.697 0 .787.548.787 1.056v2.271c0 .428-.1.428-.747.428v.359s.717-.04 1.136-.04c.368 0 1.056.03 1.145.04zm5.839-.897v-.547h-.339v.537c0 .1 0 .578-.369.578-.368 0-.368-.468-.368-.597v-1.744c0-.528 0-.906-.458-1.275-.409-.338-.887-.498-1.475-.498-.946 0-1.613.359-1.613.966 0 .32.219.489.478.489.269 0 .468-.2.468-.469 0-.169-.08-.378-.349-.458.359-.249.937-.249.996-.249.558 0 1.166.369 1.166 1.206v.308c-.548.02-1.205.05-1.933.319-.896.329-1.175.877-1.175 1.325 0 .857 1.036 1.106 1.743 1.106.797 0 1.265-.449 1.474-.837.04.408.31.787.768.787 0 0 .986 0 .986-.947zm-1.863-.508c0 .957-.837 1.226-1.285 1.226-.508 0-.986-.34-.986-.827 0-.548.478-1.315 2.271-1.385v.986zm7.99 1.405v-.359c-.648 0-.748 0-.748-.428V-83.7c0-.867-.428-1.375-1.494-1.375-.817 0-1.345.448-1.623.966h-.01v-.966l-1.465.11v.358c.668 0 .747.07.747.558v2.58c0 .428-.099.428-.747.428v.359s.717-.04 1.136-.04c.369 0 1.056.03 1.145.04v-.359c-.647 0-.747 0-.747-.428v-1.793c0-1.046.827-1.534 1.485-1.534.697 0 .787.548.787 1.056v2.271c0 .428-.1.428-.748.428v.359s.718-.04 1.136-.04c.368 0 1.056.03 1.146.04zM285.694-87.097h-2.61c-.398 0-.508-.01-.866-.04-.518-.04-.538-.11-.568-.279h-.339l-.349 2.132h.339c.02-.15.12-.807.279-.906.08-.06.887-.06 1.036-.06h2.172l-1.036 1.315c-1.305 1.713-1.425 3.297-1.425 3.885 0 .109 0 .567.468.567.479 0 .479-.448.479-.577v-.399c0-1.932.398-2.819.826-3.357l1.495-1.883c.099-.12.099-.139.099-.398zM80.922-67.364h-.247c-.095.829-.215 1.81-1.673 1.81h-.741c-.367 0-.383-.057-.383-.328v-4.2c0-.278 0-.39.75-.39h.254v-.263c-.358.025-.94.025-1.314.025l-1.227-.025v.264h.175c.613 0 .63.087.63.382v4.152c0 .294-.017.382-.63.382h-.175v.263h4.35l.231-2.072zm4.456 1.355v-.438h-.247v.438c0 .327-.12.454-.287.454-.295 0-.295-.366-.295-.454v-1.658c0-.78-.757-1.179-1.482-1.179-.661 0-1.251.255-1.251.78 0 .24.167.383.375.383a.36.36 0 0 0 .374-.374.362.362 0 0 0-.295-.367c.295-.199.725-.199.781-.199.446 0 .893.311.893.964v.247c-.463.024-.997.048-1.554.28-.702.302-.837.764-.837 1.027 0 .685.805.893 1.355.893.581 0 .94-.327 1.115-.646.04.303.247.606.598.606.08 0 .757-.032.757-.757zm-1.434-.406c0 .772-.654.98-.973.98-.414 0-.765-.28-.765-.662 0-.526.495-1.068 1.738-1.108v.79zm4.383.127v-.446h-.247v.43c0 .55-.247.845-.55.845-.534 0-.534-.686-.534-.813v-2.192h1.188v-.262h-1.188v-1.467h-.247c-.008.726-.334 1.483-1.075 1.507v.222h.717v2.176c0 .932.717 1.076 1.084 1.076.533 0 .852-.478.852-1.076zm2.55.996v-.263c-.517 0-.55-.04-.55-.35v-2.901l-1.163.088v.263c.51 0 .582.047.582.438v2.103c0 .36-.096.36-.605.36v.262c.31-.024.756-.024.876-.024.104 0 .582 0 .86.024zm-.454-4.797a.439.439 0 1 0-.876 0c0 .231.183.438.438.438a.442.442 0 0 0 .438-.438zm5.212 4.797v-.263c-.51 0-.606 0-.606-.359v-1.792c0-.67-.302-1.1-1.139-1.1-.789 0-1.147.574-1.243.765h-.008v-.765l-1.155.088v.263c.541 0 .605.055.605.446v2.095c0 .36-.095.36-.605.36v.262c.342-.024.693-.024.908-.024.231 0 .566 0 .908.024v-.263c-.51 0-.605 0-.605-.359v-1.442c0-.837.637-1.227 1.124-1.227.486 0 .605.343.605.845v1.824c0 .36-.095.36-.605.36v.262c.342-.024.693-.024.908-.024.23 0 .566 0 .908.024zM106.014-65.292v-.263h-.176c-.613 0-.629-.088-.629-.382v-4.152c0-.295.016-.382.63-.382h.175v-.264h-1.347c-.215 0-.23.025-.287.168l-1.849 4.518-1.848-4.502c-.064-.16-.072-.184-.295-.184h-1.339v.264h.176c.613 0 .63.087.63.382v3.944c0 .208 0 .59-.806.59v.263c.359-.024.733-.024.94-.024s.582 0 .94.024v-.263c-.804 0-.804-.382-.804-.59v-4.23l.008-.009 2.008 4.9c.048.104.08.192.191.192.104 0 .144-.096.184-.191l2.032-4.965.007.008v4.503c0 .294-.015.382-.629.382h-.175v.263l1.131-.024 1.132.024zm4.384-1.697c0-.996-.82-1.857-1.873-1.857-1.052 0-1.872.86-1.872 1.857 0 .996.852 1.777 1.872 1.777 1.028 0 1.873-.781 1.873-1.777zm-.71-.072c0 .366-.015.805-.238 1.14-.215.318-.574.462-.925.462-.43 0-.765-.207-.94-.486-.199-.327-.223-.718-.223-1.116 0-.303 0-.781.247-1.124.207-.279.542-.438.916-.438.415 0 .757.2.94.478.216.335.224.765.224 1.084zM115.297-65.292v-.263c-.542 0-.606-.056-.606-.446v-4.821l-1.187.087v.264c.542 0 .606.055.606.446v1.681a1.423 1.423 0 0 0-1.068-.462c-.996 0-1.88.773-1.88 1.8 0 .98.796 1.794 1.8 1.794.47 0 .86-.223 1.124-.502v.502l1.21-.08zm-1.211-.988c0 .143 0 .175-.12.335a1.19 1.19 0 0 1-.964.51c-.367 0-.685-.192-.876-.486-.216-.311-.255-.702-.255-1.076 0-.463.071-.79.255-1.068.19-.295.55-.518.956-.518.382 0 .765.191 1.004.606v1.697zm5.013.032c0-.032-.024-.112-.128-.112-.088 0-.103.056-.12.104a1.16 1.16 0 0 1-1.115.797c-.359 0-.725-.168-.964-.534-.24-.367-.24-.877-.24-1.116h2.344c.175 0 .223 0 .223-.183 0-.71-.39-1.554-1.514-1.554-.988 0-1.761.82-1.761 1.809 0 1.028.86 1.825 1.865 1.825 1.011 0 1.41-.853 1.41-1.036zm-.542-1.068h-2.016c.072-1.116.749-1.307 1.044-1.307.932 0 .964 1.124.972 1.307zm3.85-.988c0-.279-.255-.502-.606-.502-.518 0-.869.39-1.036.836h-.008v-.836l-1.132.088v.263c.542 0 .606.055.606.446v2.095c0 .36-.096.36-.606.36v.262c.311-.024.75-.024.94-.024.471 0 .487 0 1.005.024v-.263h-.16c-.581 0-.597-.088-.597-.375v-1.179c0-.597.247-1.458 1.012-1.474-.048.032-.128.096-.128.279 0 .247.191.359.35.359.192 0 .36-.128.36-.36zm4.717 3.012v-.263c-.51 0-.605 0-.605-.359v-1.792c0-.67-.303-1.1-1.14-1.1-.788 0-1.147.574-1.243.765h-.008v-.765l-1.155.088v.263c.542 0 .605.055.605.446v2.095c0 .36-.095.36-.605.36v.262c.343-.024.693-.024.908-.024.231 0 .566 0 .909.024v-.263c-.51 0-.606 0-.606-.359v-1.442c0-.837.638-1.227 1.124-1.227.486 0 .605.343.605.845v1.824c0 .36-.095.36-.605.36v.262c.342-.024.693-.024.908-.024.231 0 .566 0 .908.024zM136.36-66.017c0-.048 0-.152-.127-.152-.112 0-.112.088-.12.144-.04.502-.318.677-.542.677-.43 0-.478-.366-.621-1.378-.056-.454-.136-1.004-1.012-1.275.621-.16 1.386-.614 1.386-1.3 0-.788-1.012-1.434-2.199-1.434h-2.598v.264h.176c.613 0 .63.087.63.382v4.152c0 .294-.017.382-.63.382h-.176v.263l1.156-.024 1.163.024v-.263h-.175c-.614 0-.63-.088-.63-.382v-1.969h1.005c.589 0 .852.295.908.359.23.255.23.406.23.948 0 .502 0 .845.336 1.14.342.294.788.334 1.02.334.66 0 .82-.653.82-.892zm-1.865-3.283c0 .884-.637 1.171-1.474 1.171h-.98v-2.016c0-.207.008-.295.2-.319.071-.007.326-.007.486-.007.717 0 1.768 0 1.768 1.17zm5.882 2.31a1.872 1.872 0 1 0-3.745 0c0 .997.853 1.778 1.873 1.778 1.028 0 1.873-.781 1.873-1.777zm-.709-.071c0 .366-.016.805-.239 1.14-.215.318-.573.462-.924.462-.43 0-.765-.207-.94-.486-.2-.327-.224-.718-.224-1.116 0-.303 0-.781.248-1.124.207-.279.542-.438.916-.438.414 0 .757.2.94.478.215.335.223.765.223 1.084zm7.786 1.769v-.263c-.51 0-.605 0-.605-.359v-1.792c0-.646-.28-1.1-1.148-1.1-.733 0-1.1.502-1.227.733-.143-.574-.597-.733-1.115-.733-.773 0-1.14.55-1.244.765h-.007v-.765l-1.156.088v.263c.542 0 .606.055.606.446v2.095c0 .36-.096.36-.606.36v.262c.343-.024.694-.024.909-.024.23 0 .565 0 .908.024v-.263c-.51 0-.606 0-.606-.359v-1.442c0-.837.63-1.227 1.132-1.227.518 0 .606.406.606.845v1.824c0 .36-.096.36-.606.36v.262c.343-.024.693-.024.908-.024.231 0 .566 0 .909.024v-.263c-.51 0-.606 0-.606-.359v-1.442c0-.837.63-1.227 1.132-1.227.517 0 .605.406.605.845v1.824c0 .36-.095.36-.605.36v.262c.342-.024.693-.024.908-.024.231 0 .566 0 .908.024zm4.32-.717v-.438h-.246v.438c0 .327-.12.454-.287.454-.295 0-.295-.366-.295-.454v-1.658c0-.78-.757-1.179-1.482-1.179-.661 0-1.251.255-1.251.78 0 .24.167.383.375.383a.36.36 0 0 0 .374-.374.362.362 0 0 0-.295-.367c.295-.199.725-.199.781-.199.446 0 .893.311.893.964v.247c-.463.024-.997.048-1.555.28-.7.302-.836.764-.836 1.027 0 .685.805.893 1.355.893.581 0 .94-.327 1.115-.646.04.303.247.606.598.606.08 0 .757-.032.757-.757zm-1.433-.406c0 .772-.654.98-.973.98-.414 0-.765-.28-.765-.662 0-.526.494-1.068 1.738-1.108v.79zm6.048 1.123v-.263c-.51 0-.605 0-.605-.359v-1.792c0-.67-.303-1.1-1.14-1.1-.788 0-1.147.574-1.243.765h-.008v-.765l-1.155.088v.263c.542 0 .605.055.605.446v2.095c0 .36-.095.36-.605.36v.262c.343-.024.693-.024.908-.024.231 0 .566 0 .909.024v-.263c-.51 0-.606 0-.606-.359v-1.442c0-.837.637-1.227 1.124-1.227.486 0 .605.343.605.845v1.824c0 .36-.095.36-.605.36v.262c.342-.024.693-.024.908-.024.231 0 .566 0 .908.024zM174.768-67.882h-.309c-.12 1.036-.269 2.261-2.092 2.261h-.926c-.458 0-.478-.07-.478-.408v-5.25c0-.348 0-.488.936-.488h.319v-.328c-.448.03-1.175.03-1.644.03l-1.534-.03v.328h.22c.766 0 .786.11.786.478v5.19c0 .369-.02.478-.787.478h-.219v.329h5.44l.288-2.59zm5.57 1.693v-.547h-.31v.547c0 .409-.149.568-.358.568-.369 0-.369-.458-.369-.568v-2.071c0-.977-.946-1.475-1.853-1.475-.826 0-1.563.319-1.563.976 0 .3.209.479.468.479a.45.45 0 0 0 .468-.469c0-.239-.15-.408-.369-.458.369-.249.907-.249.976-.249.559 0 1.116.389 1.116 1.206v.308c-.577.03-1.245.06-1.942.349-.877.378-1.046.956-1.046 1.285 0 .857 1.006 1.116 1.693 1.116a1.54 1.54 0 0 0 1.395-.807c.05.378.308.757.747.757.1 0 .946-.04.946-.947zm-1.794-.508c0 .967-.817 1.226-1.215 1.226-.518 0-.956-.349-.956-.827 0-.657.617-1.335 2.171-1.385v.986zm5.48.16v-.558h-.31v.538c0 .687-.308 1.056-.686 1.056-.668 0-.668-.857-.668-1.016v-2.74h1.484v-.328h-1.484v-1.833h-.309c-.01.906-.418 1.853-1.344 1.883v.278h.896v2.72c0 1.165.896 1.345 1.355 1.345.667 0 1.066-.598 1.066-1.345zm3.188 1.245v-.329c-.648 0-.688-.05-.688-.438v-3.626l-1.454.11v.328c.637 0 .727.06.727.548v2.63c0 .448-.12.448-.757.448v.329c.389-.03.946-.03 1.096-.03.13 0 .727 0 1.076.03zm-.568-5.997a.548.548 0 1 0-1.096 0c0 .29.23.548.548.548.309 0 .548-.259.548-.548zm6.515 5.997v-.329c-.638 0-.757 0-.757-.448v-2.241c0-.837-.379-1.375-1.425-1.375-.986 0-1.434.717-1.554.956h-.01v-.956l-1.444.11v.328c.677 0 .757.07.757.558v2.62c0 .448-.12.448-.757.448v.329c.429-.03.867-.03 1.136-.03.288 0 .707 0 1.135.03v-.329c-.637 0-.757 0-.757-.448v-1.803c0-1.046.797-1.534 1.405-1.534.607 0 .757.428.757 1.056v2.281c0 .448-.12.448-.757.448v.329c.428-.03.866-.03 1.135-.03.29 0 .708 0 1.136.03zM206.151-65.292v-.329h-.22c-.766 0-.786-.11-.786-.478v-5.19c0-.368.02-.478.787-.478h.219v-.328h-1.684c-.268 0-.288.03-.358.209l-2.31 5.648-2.312-5.628c-.08-.2-.09-.23-.368-.23h-1.674v.33h.22c.766 0 .786.109.786.477v4.931c0 .26 0 .737-1.006.737v.329c.448-.03.917-.03 1.175-.03.26 0 .727 0 1.176.03v-.329c-1.006 0-1.006-.478-1.006-.737v-5.29l.01-.01 2.51 6.127c.06.13.1.239.24.239.129 0 .178-.12.228-.24l2.54-6.205.01.01v5.628c0 .369-.02.478-.787.478h-.219v.329l1.415-.03 1.414.03zm5.48-2.122a2.341 2.341 0 0 0-4.682 0c0 1.245 1.066 2.222 2.341 2.222 1.285 0 2.341-.977 2.341-2.222zm-.886-.09c0 .459-.02 1.007-.3 1.425-.268.399-.716.578-1.155.578-.538 0-.956-.26-1.175-.608-.25-.408-.28-.896-.28-1.394 0-.379 0-.977.31-1.405.259-.349.677-.548 1.145-.548.518 0 .946.25 1.175.598.27.418.28.956.28 1.355zM217.755-65.292v-.329c-.678 0-.757-.07-.757-.558v-6.026l-1.485.11v.328c.678 0 .758.07.758.558v2.102a1.778 1.778 0 0 0-1.335-.578c-1.245 0-2.351.966-2.351 2.251 0 1.225.996 2.242 2.251 2.242.588 0 1.076-.28 1.405-.628v.628l1.514-.1zm-1.514-1.235c0 .179 0 .219-.15.418a1.49 1.49 0 0 1-1.205.638c-.458 0-.857-.24-1.096-.608-.269-.388-.319-.876-.319-1.345 0-.577.09-.986.32-1.335a1.446 1.446 0 0 1 1.195-.647c.478 0 .956.239 1.255.757v2.122zm6.266.04c0-.04-.03-.14-.16-.14-.109 0-.129.07-.149.13a1.45 1.45 0 0 1-1.394.996c-.449 0-.907-.21-1.206-.668-.299-.458-.299-1.095-.299-1.394h2.93c.218 0 .278 0 .278-.23 0-.886-.488-1.942-1.893-1.942-1.235 0-2.201 1.026-2.201 2.261 0 1.285 1.076 2.282 2.33 2.282 1.266 0 1.764-1.066 1.764-1.295zm-.677-1.335h-2.52c.09-1.395.936-1.634 1.304-1.634 1.166 0 1.206 1.405 1.216 1.634zm4.811-1.235c0-.35-.318-.628-.756-.628-.648 0-1.086.488-1.295 1.046h-.01v-1.046l-1.415.11v.328c.677 0 .757.07.757.558v2.62c0 .448-.12.448-.757.448v.329c.389-.03.936-.03 1.175-.03.588 0 .608 0 1.255.03v-.329h-.199c-.727 0-.747-.11-.747-.468v-1.474c0-.747.309-1.823 1.265-1.843-.06.04-.16.12-.16.349a.43.43 0 0 0 .44.448c.238 0 .447-.16.447-.448zm5.898 3.765v-.329c-.637 0-.757 0-.757-.448v-2.241c0-.837-.379-1.375-1.425-1.375-.986 0-1.434.717-1.553.956h-.01v-.956l-1.445.11v.328c.678 0 .757.07.757.558v2.62c0 .448-.12.448-.757.448v.329c.429-.03.867-.03 1.136-.03.289 0 .707 0 1.136.03v-.329c-.638 0-.758 0-.758-.448v-1.803c0-1.046.797-1.534 1.405-1.534s.757.428.757 1.056v2.281c0 .448-.12.448-.757.448v.329c.428-.03.867-.03 1.135-.03.29 0 .708 0 1.136.03zM244.083-66.199c0-.06 0-.189-.16-.189-.139 0-.139.11-.149.18-.05.627-.398.846-.677.846-.538 0-.598-.458-.777-1.723-.07-.568-.17-1.255-1.265-1.594.777-.199 1.733-.767 1.733-1.624 0-.986-1.265-1.792-2.75-1.792h-3.247v.328h.22c.767 0 .787.11.787.478v5.19c0 .369-.02.478-.787.478h-.22v.329l1.445-.03 1.454.03v-.329h-.219c-.767 0-.787-.11-.787-.478v-2.46h1.255c.737 0 1.066.368 1.136.448.289.319.289.508.289 1.185 0 .628 0 1.056.418 1.425.428.368.986.418 1.275.418.827 0 1.026-.817 1.026-1.116zm-2.33-4.104c0 1.106-.798 1.465-1.844 1.465h-1.225v-2.52c0-.26.01-.369.25-.399.089-.01.408-.01.607-.01.896 0 2.211 0 2.211 1.464zm7.352 2.89c0-1.246-1.026-2.322-2.341-2.322s-2.341 1.076-2.341 2.321 1.066 2.222 2.34 2.222c1.286 0 2.342-.977 2.342-2.222zm-.887-.09c0 .458-.02 1.006-.299 1.424-.269.399-.717.578-1.155.578-.538 0-.957-.26-1.176-.608-.249-.408-.279-.896-.279-1.394 0-.379 0-.977.31-1.405.258-.349.677-.548 1.145-.548.518 0 .946.25 1.175.598.27.418.28.956.28 1.355zm9.733 2.211v-.329c-.638 0-.757 0-.757-.448v-2.241c0-.807-.349-1.375-1.435-1.375-.916 0-1.374.628-1.534.916-.179-.717-.747-.916-1.394-.916-.967 0-1.425.687-1.554.956h-.01v-.956l-1.445.11v.328c.678 0 .757.07.757.558v2.62c0 .448-.119.448-.757.448v.329c.429-.03.867-.03 1.136-.03.289 0 .707 0 1.136.03v-.329c-.638 0-.757 0-.757-.448v-1.803c0-1.046.787-1.534 1.414-1.534.648 0 .757.508.757 1.056v2.281c0 .448-.12.448-.757.448v.329c.428-.03.867-.03 1.136-.03.289 0 .707 0 1.135.03v-.329c-.637 0-.757 0-.757-.448v-1.803c0-1.046.787-1.534 1.415-1.534.647 0 .757.508.757 1.056v2.281c0 .448-.12.448-.757.448v.329c.428-.03.866-.03 1.135-.03.29 0 .707 0 1.136.03zm5.4-.897v-.547h-.309v.547c0 .409-.15.568-.358.568-.369 0-.369-.458-.369-.568v-2.071c0-.977-.946-1.475-1.853-1.475-.826 0-1.563.319-1.563.976 0 .3.209.479.468.479a.45.45 0 0 0 .468-.469c0-.239-.15-.408-.369-.458.369-.249.906-.249.976-.249.558 0 1.116.389 1.116 1.206v.308c-.578.03-1.245.06-1.942.349-.877.378-1.046.956-1.046 1.285 0 .857 1.006 1.116 1.693 1.116a1.54 1.54 0 0 0 1.395-.807c.05.378.308.757.747.757.1 0 .946-.04.946-.947zm-1.793-.508c0 .967-.817 1.226-1.215 1.226-.518 0-.956-.349-.956-.827 0-.657.617-1.335 2.171-1.385v.986zm7.561 1.405v-.329c-.637 0-.757 0-.757-.448v-2.241c0-.837-.378-1.375-1.424-1.375-.986 0-1.435.717-1.554.956h-.01v-.956l-1.445.11v.328c.678 0 .757.07.757.558v2.62c0 .448-.119.448-.756.448v.329c.428-.03.866-.03 1.135-.03.289 0 .707 0 1.136.03v-.329c-.638 0-.757 0-.757-.448v-1.803c0-1.046.796-1.534 1.404-1.534.608 0 .757.428.757 1.056v2.281c0 .448-.12.448-.757.448v.329c.428-.03.867-.03 1.136-.03.289 0 .707 0 1.135.03zM277.76-66.965a1.78 1.78 0 0 0-.498-1.216c-.17-.16-.18-.17-1.036-.707.558-.269 1.235-.767 1.235-1.544 0-.946-.966-1.484-1.893-1.484-1.056 0-1.912.727-1.912 1.663 0 .369.129.708.378.996.17.21.209.23.827.618-1.235.548-1.504 1.275-1.504 1.833 0 1.096 1.106 1.723 2.191 1.723 1.226 0 2.212-.827 2.212-1.882zm-.797-3.467c0 .578-.448 1.066-1.036 1.355l-1.245-.748c-.289-.169-.528-.458-.528-.806 0-.628.687-1.026 1.394-1.026.778 0 1.415.528 1.415 1.225zm.229 3.805c0 .767-.807 1.245-1.624 1.245-.886 0-1.643-.607-1.643-1.424 0-.747.558-1.335 1.245-1.654l1.345.827c.159.09.677.408.677 1.006zM74.174-52.215h-.251c-.099.905-.224 2.035-1.829 2.035h-.78c-.421 0-.44-.063-.44-.367v-4.76c0-.333.037-.44.852-.44h.287v-.278c-.313.027-1.13.027-1.488.027-.412 0-.968 0-1.371-.027v.278h.206c.69 0 .708.098.708.43v4.707c0 .331-.018.43-.708.43h-.206v.278h4.769l.25-2.313zm4.851 1.515v-.502h-.251v.493c0 .099 0 .547-.323.547s-.323-.43-.323-.574v-1.569c0-.51 0-.815-.403-1.183-.332-.296-.762-.43-1.21-.43-.753 0-1.38.376-1.38.95 0 .278.188.43.42.43a.4.4 0 0 0 .413-.412c0-.385-.404-.43-.404-.43.243-.234.673-.314.933-.314.457 0 .968.34.968 1.13v.295c-.484.018-1.157.063-1.757.35-.645.314-.843.78-.843 1.139 0 .735.87.977 1.47.977.744 0 1.085-.493 1.21-.744.046.376.306.699.691.699.224 0 .789-.135.789-.852zm-1.56-.466c0 .87-.672 1.138-1.067 1.138-.421 0-.815-.304-.815-.752 0-.592.51-1.22 1.882-1.274v.888zm4.779.152v-.51h-.25v.484c0 .663-.279.985-.602.985-.6 0-.6-.788-.6-.95v-2.483h1.3v-.278h-1.3v-1.65h-.251c-.01.754-.323 1.677-1.193 1.704v.224h.78v2.474c0 1.004.727 1.21 1.202 1.21.6 0 .914-.573.914-1.21zm2.789 1.112v-.278c-.583 0-.62-.045-.62-.395v-3.29l-1.29.1v.277c.574 0 .655.054.655.493v2.403c0 .412-.1.412-.69.412v.278c.403-.018.59-.027.985-.027.144 0 .52 0 .96.027zm-.502-5.406a.482.482 0 0 0-.485-.484.482.482 0 0 0-.484.484c0 .27.216.484.484.484.27 0 .484-.215.484-.484zm5.702 5.406v-.278c-.458 0-.682 0-.69-.278v-1.721c0-.744 0-1.004-.252-1.318-.206-.25-.546-.368-.995-.368-.833 0-1.219.62-1.345.87h-.008v-.87l-1.3.1v.277c.61 0 .69.063.69.502v2.394c0 .412-.099.412-.69.412v.278c.42-.018.591-.027 1.022-.027.43 0 .546.01 1.022.027v-.278c-.592 0-.69 0-.69-.412v-1.632c0-.95.672-1.416 1.237-1.416.528 0 .645.439.645.977v2.07c0 .413-.099.413-.69.413v.278c.421-.018.592-.027 1.022-.027.43 0 .547.01 1.022.027zM101.555-49.902v-.278h-.207c-.69 0-.708-.099-.708-.43v-4.707c0-.332.018-.43.709-.43h.206v-.278h-1.506c-.189 0-.251 0-.314.161l-2.008 5.084-2.008-5.048c-.072-.179-.08-.197-.323-.197H93.89v.278h.206c.69 0 .709.098.709.43v4.465c0 .242 0 .672-.915.672v.278c.493-.018.618-.027 1.058-.027.43 0 .565.01 1.049.027v-.278c-.915 0-.915-.43-.915-.672v-4.797l.01-.008 2.205 5.558c.044.116.08.197.188.197.099 0 .143-.08.18-.161l2.24-5.666.01.009v5.11c0 .331-.019.43-.709.43H99v.278c.538-.027 1.138-.027 1.273-.027.054 0 .717 0 1.282.027zm4.735-1.91c0-1.174-.933-2.106-2.035-2.106-1.139 0-2.044.96-2.044 2.107 0 1.12.932 2.008 2.035 2.008 1.138 0 2.044-.906 2.044-2.008zm-.771-.08c0 .332 0 .852-.224 1.246a1.21 1.21 0 0 1-1.04.591c-.449 0-.825-.224-1.031-.573-.233-.377-.242-.852-.242-1.264 0-.332 0-.843.224-1.21.269-.458.717-.592 1.04-.592.51 0 .878.287 1.058.592.206.376.215.833.215 1.21zM111.656-49.902v-.278c-.61 0-.69-.063-.69-.502v-5.442l-1.327.1v.277c.61 0 .69.063.69.502v1.91a1.534 1.534 0 0 0-1.147-.53c-1.103 0-2.062.88-2.062 2.035 0 1.121.897 2.027 1.963 2.027.655 0 1.058-.386 1.22-.574v.574l1.353-.099zm-1.354-1.076c0 .162 0 .188-.134.377a1.28 1.28 0 0 1-1.049.573c-.385 0-.744-.215-.977-.591-.233-.386-.251-.915-.251-1.201 0-.422.054-.897.287-1.255.197-.287.565-.565 1.04-.565.376 0 .735.188.977.529.108.143.108.152.108.322v1.811zm5.46.01c0-.064-.044-.117-.124-.117-.09 0-.117.062-.126.098a1.277 1.277 0 0 1-1.237.932c-.43 0-.798-.241-1.004-.546-.296-.44-.305-.978-.305-1.354h2.555c.197 0 .242 0 .242-.188 0-.924-.502-1.775-1.65-1.775-1.075 0-1.918.932-1.918 2.044 0 1.174.941 2.07 2.035 2.07 1.094 0 1.533-.959 1.533-1.165zm-.609-1.202h-2.178c.08-1.38.888-1.524 1.139-1.524.493 0 1.03.376 1.04 1.524zm4.223-1.139c0-.286-.268-.556-.672-.556-.538 0-.914.377-1.12.933h-.01v-.933l-1.272.1v.277c.61 0 .69.063.69.502v2.394c0 .412-.099.412-.69.412v.278c.475-.018.591-.027 1.048-.027l1.139.027v-.278h-.18c-.654 0-.68-.099-.68-.43v-1.345c0-.368.098-1.685 1.12-1.685v.009a.397.397 0 0 0-.161.331c0 .242.188.395.394.395a.388.388 0 0 0 .394-.404zm5.165 3.407v-.278c-.457 0-.681 0-.69-.278v-1.721c0-.744 0-1.004-.251-1.318-.207-.25-.547-.368-.995-.368-.834 0-1.22.62-1.345.87h-.01v-.87l-1.3.1v.277c.61 0 .691.063.691.502v2.394c0 .412-.099.412-.69.412v.278c.421-.018.591-.027 1.022-.027.43 0 .547.01 1.022.027v-.278c-.592 0-.69 0-.69-.412v-1.632c0-.95.672-1.416 1.237-1.416.529 0 .645.439.645.977v2.07c0 .413-.098.413-.69.413v.278c.421-.018.592-.027 1.022-.027.43 0 .547.01 1.022.027zM134.562-50.7c0-.054 0-.161-.126-.161-.116 0-.116.08-.125.152-.045.565-.323.78-.6.78-.287 0-.386-.18-.458-.331-.08-.198-.161-.807-.215-1.21-.072-.557-.153-1.157-1.148-1.471.852-.242 1.551-.771 1.551-1.47 0-.888-1.084-1.614-2.402-1.614h-2.86v.278h.206c.69 0 .709.098.709.43v4.707c0 .331-.018.43-.709.43h-.206v.278c.422-.027.87-.027 1.3-.027.43 0 .879 0 1.309.027v-.278h-.206c-.69 0-.709-.099-.709-.43v-2.241h1.076c.646 0 .932.34.968.376.27.332.27.466.27 1.103 0 .6 0 .995.43 1.336.421.331.959.331 1.058.331.753 0 .887-.78.887-.995zm-2.035-3.711c0 .77-.394 1.336-1.614 1.336h-1.04v-2.305c0-.233.018-.313.189-.35.08-.017.367-.017.555-.017.772 0 1.91 0 1.91 1.336zm6.411 2.6c0-1.175-.932-2.107-2.035-2.107-1.139 0-2.044.96-2.044 2.107 0 1.12.932 2.008 2.035 2.008 1.138 0 2.044-.906 2.044-2.008zm-.77-.081c0 .332 0 .852-.225 1.246a1.21 1.21 0 0 1-1.04.591c-.448 0-.825-.224-1.03-.573-.234-.377-.243-.852-.243-1.264 0-.332 0-.843.224-1.21a1.193 1.193 0 0 1 1.04-.592c.511 0 .879.287 1.058.592.206.376.215.833.215 1.21zm8.508 1.99v-.278c-.458 0-.682 0-.69-.278v-1.721c0-.78 0-1.031-.297-1.363-.188-.215-.547-.323-.96-.323-.644 0-1.084.377-1.335.852-.107-.529-.466-.852-1.219-.852-.717 0-1.156.467-1.345.88h-.009v-.88l-1.3.1v.277c.61 0 .69.063.69.502v2.394c0 .412-.098.412-.69.412v.278c.422-.018.592-.027 1.022-.027.43 0 .547.01 1.023.027v-.278c-.592 0-.69 0-.69-.412v-1.632c0-.968.698-1.416 1.236-1.416.493 0 .655.35.655.977v2.07c0 .413-.099.413-.69.413v.278c.42-.018.591-.027 1.021-.027s.547.01 1.023.027v-.278c-.592 0-.69 0-.69-.412v-1.632c0-.968.698-1.416 1.236-1.416.493 0 .655.35.655.977v2.07c0 .413-.099.413-.69.413v.278c.42-.018.591-.027 1.021-.027s.547.01 1.023.027zm4.663-.798v-.502h-.252v.493c0 .099 0 .547-.322.547-.323 0-.323-.43-.323-.574v-1.569c0-.51 0-.815-.403-1.183-.332-.296-.762-.43-1.21-.43-.754 0-1.381.376-1.381.95 0 .278.188.43.421.43a.4.4 0 0 0 .412-.412c0-.385-.403-.43-.403-.43.242-.234.673-.314.933-.314.457 0 .968.34.968 1.13v.295c-.484.018-1.157.063-1.758.35-.645.314-.842.78-.842 1.139 0 .735.87.977 1.47.977.744 0 1.085-.493 1.21-.744.045.376.305.699.69.699.225 0 .79-.135.79-.852zm-1.56-.466c0 .87-.673 1.138-1.067 1.138-.421 0-.816-.304-.816-.752 0-.592.511-1.22 1.883-1.274v.888zm6.616 1.264v-.278c-.457 0-.68 0-.69-.278v-1.721c0-.744 0-1.004-.25-1.318-.207-.25-.548-.368-.996-.368-.834 0-1.22.62-1.345.87h-.009v-.87l-1.3.1v.277c.61 0 .69.063.69.502v2.394c0 .412-.098.412-.69.412v.278c.422-.018.592-.027 1.022-.027.43 0 .547.01 1.023.027v-.278c-.592 0-.69 0-.69-.412v-1.632c0-.95.671-1.416 1.236-1.416.53 0 .646.439.646.977v2.07c0 .413-.099.413-.69.413v.278c.42-.018.591-.027 1.022-.027.43 0 .546.01 1.021.027zM174.559-52.472h-.28c-.109 1.006-.248 2.261-2.031 2.261h-.867c-.468 0-.488-.07-.488-.408v-5.29c0-.368.04-.488.946-.488h.32v-.308c-.35.03-1.256.03-1.655.03-.458 0-1.075 0-1.524-.03v.308h.23c.767 0 .787.11.787.478v5.23c0 .369-.02.478-.788.478h-.229v.309h5.3l.279-2.57zm5.39 1.683v-.557h-.28v.547c0 .11 0 .608-.358.608s-.358-.478-.358-.637v-1.744c0-.568 0-.906-.449-1.314-.368-.33-.846-.479-1.345-.479-.836 0-1.534.419-1.534 1.056 0 .31.21.478.469.478.269 0 .458-.199.458-.458 0-.428-.448-.478-.448-.478.269-.26.747-.349 1.035-.349.509 0 1.076.379 1.076 1.256v.328c-.537.02-1.285.07-1.952.389-.717.348-.936.866-.936 1.265 0 .817.966 1.086 1.633 1.086.827 0 1.206-.548 1.345-.827.05.418.339.777.767.777.25 0 .877-.15.877-.947zm-1.734-.518c0 .967-.747 1.266-1.185 1.266-.468 0-.906-.34-.906-.837 0-.658.567-1.355 2.091-1.415v.986zm5.31.17v-.568h-.279v.538c0 .737-.308 1.096-.667 1.096-.667 0-.667-.877-.667-1.056v-2.76h1.444v-.308h-1.444v-1.833h-.28c-.01.837-.358 1.863-1.324 1.893v.249h.867v2.749c0 1.115.806 1.345 1.334 1.345.668 0 1.017-.638 1.017-1.345zm3.099 1.235v-.309c-.648 0-.688-.05-.688-.438v-3.656l-1.434.11v.309c.638 0 .727.06.727.547v2.67c0 .458-.11.458-.767.458v.309c.449-.02.658-.03 1.096-.03.16 0 .578 0 1.066.03zm-.558-6.007a.536.536 0 0 0-.538-.537.536.536 0 0 0-.538.537c0 .3.24.538.538.538.3 0 .538-.239.538-.538zm6.336 6.007v-.309c-.508 0-.757 0-.767-.309v-1.912c0-.827 0-1.116-.28-1.464-.228-.28-.607-.409-1.105-.409-.926 0-1.355.687-1.494.966h-.01v-.966l-1.444.11v.309c.677 0 .767.07.767.557v2.66c0 .458-.11.458-.767.458v.309c.468-.02.657-.03 1.135-.03s.608.01 1.136.03v-.309c-.658 0-.767 0-.767-.458v-1.813c0-1.056.747-1.574 1.374-1.574.588 0 .718.488.718 1.086v2.301c0 .458-.11.458-.768.458v.309c.469-.02.658-.03 1.136-.03.478 0 .608.01 1.136.03zM204.996-49.902v-.309h-.23c-.766 0-.786-.11-.786-.478v-5.23c0-.368.02-.478.786-.478h.23v-.308h-1.674c-.21 0-.279 0-.348.179l-2.232 5.648-2.231-5.608c-.08-.2-.09-.22-.359-.22h-1.673v.31h.229c.767 0 .787.109.787.477v4.961c0 .27 0 .747-1.016.747v.309c.548-.02.687-.03 1.175-.03.478 0 .628.01 1.166.03v-.309c-1.016 0-1.016-.478-1.016-.747v-5.329l.01-.01 2.45 6.176c.05.13.09.219.21.219.109 0 .159-.09.198-.18l2.49-6.295.01.01v5.678c0 .369-.02.478-.786.478h-.23v.309c.598-.03 1.266-.03 1.415-.03.06 0 .797 0 1.425.03zm5.26-2.122c0-1.305-1.036-2.34-2.26-2.34-1.266 0-2.272 1.065-2.272 2.34 0 1.245 1.036 2.232 2.261 2.232 1.265 0 2.271-1.007 2.271-2.232zm-.856-.09c0 .37 0 .947-.25 1.385a1.344 1.344 0 0 1-1.155.658c-.498 0-.916-.25-1.145-.638-.26-.418-.27-.946-.27-1.404 0-.369 0-.937.25-1.345a1.325 1.325 0 0 1 1.155-.658c.568 0 .976.32 1.176.658.229.418.239.926.239 1.345zM216.218-49.902v-.309c-.677 0-.766-.07-.766-.558v-6.046l-1.475.11v.308c.677 0 .767.07.767.558v2.122a1.703 1.703 0 0 0-1.275-.588c-1.225 0-2.29.976-2.29 2.261 0 1.245.995 2.252 2.18 2.252.728 0 1.176-.429 1.355-.638v.638l1.504-.11zm-1.504-1.195c0 .18 0 .209-.149.418-.31.448-.767.638-1.166.638-.428 0-.827-.24-1.085-.658-.26-.428-.28-1.016-.28-1.335 0-.468.06-.996.32-1.394.218-.319.627-.628 1.155-.628.419 0 .817.21 1.086.588.12.16.12.17.12.358v2.013zm6.067.01c0-.07-.05-.13-.139-.13-.1 0-.13.07-.14.11a1.42 1.42 0 0 1-1.374 1.036c-.478 0-.887-.27-1.116-.608-.328-.488-.338-1.086-.338-1.504h2.838c.22 0 .27 0 .27-.21 0-1.025-.558-1.972-1.833-1.972-1.196 0-2.132 1.036-2.132 2.271 0 1.305 1.046 2.302 2.26 2.302s1.704-1.066 1.704-1.295zm-.677-1.335h-2.42c.089-1.534.986-1.694 1.265-1.694.547 0 1.145.419 1.155 1.694zm4.692-1.265c0-.32-.299-.618-.747-.618-.598 0-1.016.419-1.245 1.036h-.01v-1.036l-1.414.11v.309c.677 0 .767.07.767.557v2.66c0 .458-.11.458-.767.458v.309c.528-.02.657-.03 1.165-.03l1.265.03v-.309h-.2c-.726 0-.756-.11-.756-.478v-1.494c0-.408.11-1.873 1.245-1.873v.01a.441.441 0 0 0-.18.369c0 .269.21.438.439.438.21 0 .438-.15.438-.448zm5.739 3.785v-.309c-.509 0-.757 0-.767-.309v-1.912c0-.827 0-1.116-.28-1.464-.228-.28-.607-.409-1.105-.409-.927 0-1.355.687-1.494.966h-.01v-.966l-1.444.11v.309c.677 0 .766.07.766.557v2.66c0 .458-.11.458-.766.458v.309c.468-.02.657-.03 1.135-.03s.608.01 1.135.03v-.309c-.657 0-.766 0-.766-.458v-1.813c0-1.056.747-1.574 1.374-1.574.588 0 .717.488.717 1.086v2.301c0 .458-.11.458-.767.458v.309c.469-.02.658-.03 1.136-.03.478 0 .608.01 1.136.03zM241.677-50.789c0-.06 0-.179-.14-.179-.129 0-.129.09-.139.17-.05.627-.358.866-.667.866-.32 0-.428-.2-.508-.368-.09-.22-.18-.897-.24-1.345-.079-.618-.169-1.285-1.274-1.634.946-.269 1.723-.856 1.723-1.634 0-.986-1.206-1.792-2.67-1.792h-3.177v.308h.229c.767 0 .787.11.787.478v5.23c0 .369-.02.478-.787.478h-.23v.309c.469-.03.967-.03 1.445-.03.478 0 .976 0 1.454.03v-.309h-.229c-.767 0-.786-.11-.786-.478v-2.49h1.195c.717 0 1.036.378 1.075.418.3.369.3.518.3 1.225 0 .668 0 1.106.478 1.485.468.368 1.065.368 1.175.368.837 0 .986-.867.986-1.106zm-2.261-4.124c0 .857-.439 1.485-1.793 1.485h-1.155v-2.56c0-.26.02-.349.209-.389.09-.02.408-.02.617-.02.857 0 2.122 0 2.122 1.484zm7.123 2.89c0-1.306-1.036-2.342-2.261-2.342-1.265 0-2.271 1.066-2.271 2.341 0 1.245 1.036 2.232 2.26 2.232 1.266 0 2.272-1.007 2.272-2.232zm-.856-.09c0 .368 0 .946-.25 1.384-.278.459-.737.658-1.155.658-.498 0-.916-.25-1.146-.638-.258-.418-.268-.946-.268-1.404 0-.369 0-.937.249-1.345a1.326 1.326 0 0 1 1.155-.658c.568 0 .976.32 1.176.658.229.418.239.926.239 1.345zm9.453 2.211v-.309c-.508 0-.757 0-.767-.309v-1.912c0-.867 0-1.146-.328-1.514-.21-.24-.608-.359-1.066-.359-.718 0-1.205.419-1.484.946-.12-.587-.519-.946-1.355-.946-.797 0-1.285.518-1.494.976h-.01v-.976l-1.445.11v.309c.678 0 .767.07.767.557v2.66c0 .458-.11.458-.767.458v.309c.468-.02.658-.03 1.136-.03.478 0 .607.01 1.135.03v-.309c-.657 0-.767 0-.767-.458v-1.813c0-1.076.777-1.574 1.375-1.574.548 0 .727.389.727 1.086v2.301c0 .458-.11.458-.767.458v.309c.468-.02.658-.03 1.136-.03.478 0 .608.01 1.135.03v-.309c-.657 0-.767 0-.767-.458v-1.813c0-1.076.777-1.574 1.375-1.574.548 0 .727.389.727 1.086v2.301c0 .458-.11.458-.767.458v.309c.468-.02.658-.03 1.136-.03s.607.01 1.135.03zm5.181-.887v-.557h-.279v.547c0 .11 0 .608-.358.608-.359 0-.359-.478-.359-.637v-1.744c0-.568 0-.906-.448-1.314-.369-.33-.847-.479-1.345-.479-.837 0-1.534.419-1.534 1.056 0 .31.21.478.468.478.27 0 .459-.199.459-.458 0-.428-.449-.478-.449-.478.27-.26.747-.349 1.036-.349.508 0 1.076.379 1.076 1.256v.328c-.538.02-1.285.07-1.952.389-.718.348-.937.866-.937 1.265 0 .817.967 1.086 1.634 1.086.827 0 1.205-.548 1.345-.827.05.418.339.777.767.777.249 0 .876-.15.876-.947zm-1.733-.518c0 .967-.747 1.266-1.185 1.266-.468 0-.907-.34-.907-.837 0-.658.568-1.355 2.092-1.415v.986zm7.352 1.405v-.309c-.508 0-.757 0-.767-.309v-1.912c0-.827 0-1.116-.279-1.464-.229-.28-.607-.409-1.106-.409-.926 0-1.354.687-1.494.966h-.01v-.966l-1.444.11v.309c.677 0 .767.07.767.557v2.66c0 .458-.11.458-.767.458v.309c.468-.02.657-.03 1.136-.03.478 0 .607.01 1.135.03v-.309c-.657 0-.767 0-.767-.458v-1.813c0-1.056.747-1.574 1.375-1.574.587 0 .717.488.717 1.086v2.301c0 .458-.11.458-.767.458v.309c.468-.02.657-.03 1.135-.03.479 0 .608.01 1.136.03zM274.266-53.18c0-2.699-1.196-3.356-2.092-3.356-1.146 0-2.162.926-2.162 2.231 0 1.265.917 2.221 2.042 2.221.727 0 1.126-.527 1.305-.956v.22c0 2.43-1.105 2.858-1.673 2.858-.229 0-.737-.04-.997-.368h.04c.08.02.469-.06.469-.459 0-.259-.18-.458-.459-.458s-.468.18-.468.478c0 .658.528 1.086 1.425 1.086 1.285 0 2.57-1.315 2.57-3.496zm-.927-.916c0 .727-.329 1.763-1.265 1.763-.159 0-.647 0-.966-.617-.189-.379-.189-.867-.189-1.345s0-.976.209-1.355c.299-.508.687-.637 1.046-.637.677 0 .946.687.986.787.139.368.179.976.179 1.404zM67.48-37.081h-.249c-.11 1.016-.249 2.261-2.002 2.261h-.817c-.468 0-.488-.07-.488-.398v-5.31c0-.338 0-.478.947-.478h.328v-.308c-.358.03-1.265.03-1.673.03-.389 0-1.165 0-1.514-.03v.308h.239c.767 0 .787.11.787.468v5.25c0 .359-.02.468-.787.468h-.24v.309h5.19l.28-2.57zm5.24 1.683v-.557h-.248v.557c0 .578-.25.638-.359.638-.328 0-.368-.448-.368-.498v-1.992c0-.419 0-.807-.359-1.176a1.902 1.902 0 0 0-1.365-.548c-.816 0-1.504.469-1.504 1.126 0 .299.2.468.459.468a.44.44 0 0 0 .458-.458c0-.12-.05-.448-.508-.458.269-.349.757-.458 1.075-.458.489 0 1.056.388 1.056 1.275v.368c-.508.03-1.205.06-1.832.359-.748.338-.997.856-.997 1.295 0 .807.967 1.056 1.594 1.056.658 0 1.116-.399 1.305-.867.04.398.309.817.777.817.21 0 .817-.14.817-.947zm-1.663-.508c0 .947-.717 1.285-1.165 1.285-.488 0-.897-.348-.897-.846 0-.548.419-1.375 2.062-1.435v.996zm5.141.16v-.568h-.25v.548c0 .737-.298 1.116-.667 1.116-.667 0-.667-.907-.667-1.076v-2.77h1.425v-.308h-1.425v-1.833h-.249c-.01.817-.309 1.883-1.285 1.922v.22h.847v2.749c0 1.225.926 1.345 1.285 1.345.707 0 .986-.708.986-1.345zm3.029 1.235v-.309c-.658 0-.698-.05-.698-.438v-3.656l-1.394.11v.309c.647 0 .737.06.737.547v2.68c0 .448-.11.448-.777.448v.309l1.096-.03c.348 0 .697.02 1.035.03zm-.548-6.017a.533.533 0 1 0-1.066 0 .532.532 0 1 0 1.066 0zm6.186 6.017v-.309c-.518 0-.767 0-.777-.299v-1.902c0-.857 0-1.166-.309-1.524-.14-.17-.468-.369-1.046-.369-.727 0-1.195.429-1.474 1.046v-1.046l-1.404.11v.309c.697 0 .776.07.776.557v2.67c0 .448-.109.448-.776.448v.309l1.125-.03 1.116.03v-.309c-.668 0-.777 0-.777-.448v-1.833c0-1.036.707-1.594 1.345-1.594.627 0 .737.538.737 1.106v2.32c0 .45-.11.45-.777.45v.308l1.126-.03 1.115.03zM97.147-34.511v-.309h-.239c-.767 0-.787-.11-.787-.468v-5.25c0-.358.02-.468.787-.468h.24v-.308h-1.684c-.26 0-.26.01-.33.189l-2.18 5.608-2.162-5.578c-.09-.22-.12-.22-.349-.22H88.76v.31h.239c.767 0 .787.109.787.467v4.981c0 .27 0 .737-1.026.737v.309l1.165-.03 1.166.03v-.309c-1.026 0-1.026-.468-1.026-.737v-5.369h.01l2.4 6.196c.05.13.1.219.2.219.109 0 .139-.08.179-.19l2.45-6.305h.01v5.718c0 .359-.02.468-.787.468h-.239v.309c.369-.03 1.046-.03 1.435-.03.388 0 1.056 0 1.424.03zm5.072-2.132c0-1.275-.996-2.33-2.202-2.33-1.245 0-2.211 1.085-2.211 2.33a2.223 2.223 0 0 0 2.201 2.242 2.22 2.22 0 0 0 2.212-2.242zm-.827-.08c0 .36 0 .897-.22 1.335-.219.449-.657.738-1.155.738-.428 0-.866-.21-1.135-.668-.25-.438-.25-1.046-.25-1.404 0-.389 0-.927.24-1.365.269-.458.737-.667 1.135-.667.439 0 .867.219 1.126.647.259.428.259 1.006.259 1.385zM108.033-34.511v-.309c-.697 0-.777-.07-.777-.558v-6.046l-1.434.11v.308c.697 0 .776.07.776.558v2.152a1.59 1.59 0 0 0-1.255-.618c-1.175 0-2.22.976-2.22 2.261 0 1.265.975 2.252 2.11 2.252.638 0 1.087-.34 1.336-.658v.658l1.464-.11zm-1.464-1.175c0 .179 0 .199-.11.368-.299.478-.747.697-1.175.697-.449 0-.807-.258-1.046-.637-.26-.409-.29-.976-.29-1.385 0-.368.02-.966.31-1.414.209-.309.587-.638 1.125-.638.349 0 .767.15 1.076.598.11.17.11.19.11.368v2.043zm5.887-.01c0-.1-.08-.12-.13-.12-.089 0-.109.06-.128.14-.35 1.026-1.246 1.026-1.345 1.026-.498 0-.897-.3-1.126-.668-.299-.478-.299-1.136-.299-1.494h2.78c.219 0 .248 0 .248-.21 0-.985-.538-1.952-1.782-1.952-1.156 0-2.072 1.026-2.072 2.271 0 1.335 1.045 2.302 2.19 2.302 1.216 0 1.664-1.106 1.664-1.295zm-.657-1.325h-2.36c.059-1.484.896-1.733 1.235-1.733 1.025 0 1.125 1.344 1.125 1.733zm4.573-1.285c0-.32-.309-.608-.737-.608-.728 0-1.086.668-1.226 1.096v-1.096l-1.384.11v.309c.697 0 .777.07.777.557v2.67c0 .448-.11.448-.777.448v.309l1.135-.03c.399 0 .867 0 1.266.03v-.309h-.21c-.737 0-.757-.11-.757-.468v-1.534c0-.986.418-1.873 1.176-1.873.07 0 .09 0 .11.01a.431.431 0 0 0-.23.389c0 .279.21.428.428.428.18 0 .429-.12.429-.438zm5.609 3.795v-.309c-.518 0-.768 0-.778-.299v-1.902c0-.857 0-1.166-.308-1.524-.14-.17-.468-.369-1.046-.369-.728 0-1.196.429-1.474 1.046v-1.046l-1.405.11v.309c.697 0 .777.07.777.557v2.67c0 .448-.11.448-.777.448v.309l1.126-.03 1.115.03v-.309c-.667 0-.777 0-.777-.448v-1.833c0-1.036.707-1.594 1.345-1.594.627 0 .737.538.737 1.106v2.32c0 .45-.11.45-.777.45v.308l1.126-.03 1.116.03zM132.795-35.388c0-.06 0-.169-.13-.169-.11 0-.11.09-.12.16-.059.707-.408.886-.657.886-.488 0-.567-.508-.707-1.434l-.13-.797c-.179-.638-.667-.967-1.214-1.156.966-.239 1.743-.846 1.743-1.624 0-.956-1.136-1.792-2.6-1.792h-3.128v.308h.24c.766 0 .786.11.786.468v5.25c0 .359-.02.468-.787.468h-.239v.309c.358-.03 1.066-.03 1.454-.03.389 0 1.096 0 1.455.03v-.309h-.24c-.766 0-.786-.11-.786-.468v-2.52h1.145c.16 0 .578 0 .927.339.378.358.378.667.378 1.334 0 .648 0 1.046.409 1.425.408.358.956.418 1.255.418.776 0 .946-.817.946-1.096zm-2.241-4.134c0 .688-.24 1.495-1.714 1.495h-1.105v-2.58c0-.23 0-.349.219-.379.1-.02.388-.02.588-.02.896 0 2.012.04 2.012 1.484zm6.974 2.88c0-1.276-.997-2.332-2.202-2.332-1.245 0-2.211 1.086-2.211 2.331a2.223 2.223 0 0 0 2.201 2.242 2.22 2.22 0 0 0 2.212-2.242zm-.827-.08c0 .358 0 .896-.22 1.334-.219.449-.657.738-1.155.738-.428 0-.867-.21-1.136-.668-.249-.438-.249-1.046-.249-1.404 0-.389 0-.927.24-1.365.268-.458.737-.667 1.135-.667.439 0 .867.219 1.126.647.259.428.259 1.006.259 1.385zm9.214 2.211v-.309c-.517 0-.766 0-.776-.299v-1.902c0-.857 0-1.166-.31-1.524-.139-.17-.468-.369-1.045-.369-.837 0-1.275.598-1.445.976-.14-.866-.876-.976-1.325-.976-.727 0-1.195.429-1.474 1.046v-1.046l-1.404.11v.309c.697 0 .777.07.777.557v2.67c0 .448-.11.448-.777.448v.309l1.125-.03 1.116.03v-.309c-.668 0-.777 0-.777-.448v-1.833c0-1.036.707-1.594 1.345-1.594.627 0 .737.538.737 1.106v2.32c0 .45-.11.45-.777.45v.308l1.126-.03 1.115.03v-.309c-.667 0-.777 0-.777-.448v-1.833c0-1.036.707-1.594 1.345-1.594.628 0 .737.538.737 1.106v2.32c0 .45-.11.45-.777.45v.308l1.126-.03 1.115.03zm5.012-.887v-.557h-.249v.557c0 .578-.25.638-.358.638-.33 0-.37-.448-.37-.498v-1.992c0-.419 0-.807-.358-1.176a1.902 1.902 0 0 0-1.364-.548c-.817 0-1.505.469-1.505 1.126 0 .299.2.468.459.468a.44.44 0 0 0 .458-.458c0-.12-.05-.448-.508-.458.269-.349.757-.458 1.076-.458.488 0 1.056.388 1.056 1.275v.368c-.508.03-1.206.06-1.833.359-.747.338-.996.856-.996 1.295 0 .807.966 1.056 1.593 1.056.658 0 1.116-.399 1.305-.867.04.398.31.817.777.817.21 0 .817-.14.817-.947zm-1.663-.508c0 .947-.718 1.285-1.166 1.285-.488 0-.897-.348-.897-.846 0-.548.419-1.375 2.063-1.435v.996zm7.162 1.395v-.309c-.518 0-.767 0-.777-.299v-1.902c0-.857 0-1.166-.309-1.524-.139-.17-.468-.369-1.045-.369-.728 0-1.196.429-1.474 1.046v-1.046l-1.405.11v.309c.697 0 .777.07.777.557v2.67c0 .448-.11.448-.777.448v.309l1.126-.03 1.115.03v-.309c-.667 0-.777 0-.777-.448v-1.833c0-1.036.707-1.594 1.345-1.594.627 0 .737.538.737 1.106v2.32c0 .45-.11.45-.777.45v.308l1.126-.03 1.115.03zM174.385-37.081h-.249c-.11 1.016-.249 2.261-2.002 2.261h-.817c-.468 0-.488-.07-.488-.398v-5.31c0-.338 0-.478.946-.478h.329v-.308c-.359.03-1.265.03-1.674.03-.388 0-1.165 0-1.514-.03v.308h.239c.767 0 .787.11.787.468v5.25c0 .359-.02.468-.787.468h-.239v.309h5.19l.279-2.57zm5.24 1.683v-.557h-.249v.557c0 .578-.249.638-.358.638-.329 0-.369-.448-.369-.498v-1.992c0-.419 0-.807-.359-1.176a1.9 1.9 0 0 0-1.364-.548c-.817 0-1.505.469-1.505 1.126 0 .299.2.468.459.468a.44.44 0 0 0 .458-.458c0-.12-.05-.448-.508-.458.269-.349.757-.458 1.076-.458.488 0 1.056.388 1.056 1.275v.368c-.508.03-1.206.06-1.833.359-.747.338-.996.856-.996 1.295 0 .807.966 1.056 1.593 1.056.658 0 1.116-.399 1.305-.867.04.398.309.817.777.817.21 0 .817-.14.817-.947zm-1.663-.508c0 .947-.718 1.285-1.166 1.285-.488 0-.897-.348-.897-.846 0-.548.419-1.375 2.063-1.435v.996zm5.14.16v-.568h-.249v.548c0 .737-.299 1.116-.667 1.116-.667 0-.667-.907-.667-1.076v-2.77h1.424v-.308h-1.424v-1.833h-.25c-.01.817-.309 1.883-1.285 1.922v.22h.847v2.749c0 1.225.927 1.345 1.285 1.345.707 0 .986-.708.986-1.345zm3.029 1.235v-.309c-.657 0-.697-.05-.697-.438v-3.656l-1.395.11v.309c.647 0 .737.06.737.547v2.68c0 .448-.109.448-.777.448v.309l1.096-.03c.349 0 .697.02 1.036.03zm-.548-6.017a.532.532 0 1 0-1.066 0 .532.532 0 1 0 1.066 0zm6.186 6.017v-.309c-.518 0-.767 0-.777-.299v-1.902c0-.857 0-1.166-.309-1.524-.139-.17-.468-.369-1.045-.369-.728 0-1.196.429-1.475 1.046v-1.046l-1.404.11v.309c.697 0 .777.07.777.557v2.67c0 .448-.11.448-.777.448v.309l1.125-.03 1.116.03v-.309c-.667 0-.777 0-.777-.448v-1.833c0-1.036.707-1.594 1.345-1.594.627 0 .737.538.737 1.106v2.32c0 .45-.11.45-.777.45v.308l1.126-.03 1.115.03zM204.051-34.511v-.309h-.239c-.767 0-.786-.11-.786-.468v-5.25c0-.358.019-.468.786-.468h.239v-.308h-1.683c-.259 0-.259.01-.329.189l-2.181 5.608-2.162-5.578c-.09-.22-.119-.22-.349-.22h-1.683v.31h.239c.767 0 .787.109.787.467v4.981c0 .27 0 .737-1.026.737v.309l1.166-.03 1.165.03v-.309c-1.026 0-1.026-.468-1.026-.737v-5.369h.01l2.401 6.196c.049.13.099.219.199.219.109 0 .139-.08.179-.19l2.451-6.305h.01v5.718c0 .359-.02.468-.787.468h-.239v.309c.368-.03 1.046-.03 1.434-.03.389 0 1.056 0 1.424.03zm5.072-2.132c0-1.275-.996-2.33-2.201-2.33-1.246 0-2.212 1.085-2.212 2.33a2.224 2.224 0 0 0 2.202 2.242 2.22 2.22 0 0 0 2.211-2.242zm-.827-.08c0 .36 0 .897-.219 1.335a1.285 1.285 0 0 1-1.155.738c-.429 0-.867-.21-1.136-.668-.249-.438-.249-1.046-.249-1.404 0-.389 0-.927.239-1.365a1.336 1.336 0 0 1 1.136-.667c.438 0 .866.219 1.125.647.259.428.259 1.006.259 1.385zM214.937-34.511v-.309c-.697 0-.777-.07-.777-.558v-6.046l-1.434.11v.308c.697 0 .777.07.777.558v2.152a1.59 1.59 0 0 0-1.255-.618c-1.176 0-2.222.976-2.222 2.261 0 1.265.977 2.252 2.112 2.252.638 0 1.086-.34 1.335-.658v.658l1.464-.11zm-1.464-1.175c0 .179 0 .199-.11.368-.298.478-.747.697-1.175.697-.448 0-.807-.258-1.046-.637-.259-.409-.289-.976-.289-1.385 0-.368.02-.966.309-1.414.209-.309.588-.638 1.126-.638.348 0 .767.15 1.075.598.11.17.11.19.11.368v2.043zm5.888-.01c0-.1-.08-.12-.13-.12-.089 0-.109.06-.129.14-.349 1.026-1.245 1.026-1.345 1.026-.498 0-.896-.3-1.125-.668-.3-.478-.3-1.136-.3-1.494h2.78c.219 0 .249 0 .249-.21 0-.985-.538-1.952-1.783-1.952-1.156 0-2.072 1.026-2.072 2.271 0 1.335 1.046 2.302 2.191 2.302 1.215 0 1.664-1.106 1.664-1.295zm-.658-1.325h-2.361c.06-1.484.897-1.733 1.236-1.733 1.026 0 1.125 1.344 1.125 1.733zm4.573-1.285c0-.32-.309-.608-.737-.608-.727 0-1.086.668-1.225 1.096v-1.096l-1.385.11v.309c.697 0 .777.07.777.557v2.67c0 .448-.11.448-.777.448v.309l1.136-.03c.398 0 .866 0 1.265.03v-.309h-.209c-.738 0-.757-.11-.757-.468v-1.534c0-.986.418-1.873 1.175-1.873.07 0 .09 0 .11.01a.431.431 0 0 0-.229.389c0 .279.209.428.428.428.179 0 .428-.12.428-.438zm5.609 3.795v-.309c-.518 0-.767 0-.777-.299v-1.902c0-.857 0-1.166-.309-1.524-.139-.17-.468-.369-1.046-.369-.727 0-1.195.429-1.474 1.046v-1.046l-1.405.11v.309c.697 0 .777.07.777.557v2.67c0 .448-.109.448-.777.448v.309l1.126-.03 1.116.03v-.309c-.668 0-.777 0-.777-.448v-1.833c0-1.036.707-1.594 1.344-1.594.628 0 .738.538.738 1.106v2.32c0 .45-.11.45-.777.45v.308l1.125-.03 1.116.03zM239.699-35.388c0-.06 0-.169-.129-.169-.11 0-.11.09-.12.16-.06.707-.408.886-.657.886-.488 0-.568-.508-.708-1.434l-.129-.797c-.179-.638-.667-.967-1.215-1.156.966-.239 1.743-.846 1.743-1.624 0-.956-1.136-1.792-2.6-1.792h-3.128v.308h.239c.767 0 .787.11.787.468v5.25c0 .359-.02.468-.787.468h-.239v.309c.359-.03 1.066-.03 1.455-.03.388 0 1.095 0 1.454.03v-.309h-.239c-.767 0-.787-.11-.787-.468v-2.52h1.146c.159 0 .577 0 .926.339.378.358.378.667.378 1.334 0 .648 0 1.046.409 1.425.408.358.956.418 1.255.418.777 0 .946-.817.946-1.096zm-2.241-4.134c0 .688-.239 1.495-1.714 1.495h-1.105v-2.58c0-.23 0-.349.219-.379.1-.02.389-.02.588-.02.896 0 2.012.04 2.012 1.484zm6.974 2.88c0-1.276-.996-2.332-2.202-2.332-1.245 0-2.211 1.086-2.211 2.331a2.223 2.223 0 0 0 2.201 2.242 2.22 2.22 0 0 0 2.212-2.242zm-.827-.08c0 .358 0 .896-.219 1.334a1.286 1.286 0 0 1-1.156.738c-.428 0-.866-.21-1.135-.668-.249-.438-.249-1.046-.249-1.404 0-.389 0-.927.239-1.365a1.336 1.336 0 0 1 1.135-.667c.439 0 .867.219 1.126.647.259.428.259 1.006.259 1.385zm9.215 2.211v-.309c-.518 0-.767 0-.777-.299v-1.902c0-.857 0-1.166-.309-1.524-.14-.17-.468-.369-1.046-.369-.837 0-1.275.598-1.444.976-.14-.866-.877-.976-1.325-.976-.727 0-1.196.429-1.474 1.046v-1.046l-1.405.11v.309c.697 0 .777.07.777.557v2.67c0 .448-.109.448-.777.448v.309l1.126-.03 1.115.03v-.309c-.667 0-.777 0-.777-.448v-1.833c0-1.036.708-1.594 1.345-1.594.628 0 .737.538.737 1.106v2.32c0 .45-.109.45-.777.45v.308l1.126-.03 1.116.03v-.309c-.668 0-.778 0-.778-.448v-1.833c0-1.036.708-1.594 1.345-1.594.628 0 .737.538.737 1.106v2.32c0 .45-.109.45-.777.45v.308l1.126-.03 1.116.03zm5.011-.887v-.557h-.249v.557c0 .578-.249.638-.358.638-.329 0-.369-.448-.369-.498v-1.992c0-.419 0-.807-.358-1.176a1.904 1.904 0 0 0-1.365-.548c-.817 0-1.504.469-1.504 1.126 0 .299.199.468.458.468a.44.44 0 0 0 .458-.458c0-.12-.05-.448-.508-.458.269-.349.757-.458 1.076-.458.488 0 1.056.388 1.056 1.275v.368c-.508.03-1.205.06-1.833.359-.747.338-.996.856-.996 1.295 0 .807.966 1.056 1.594 1.056.657 0 1.115-.399 1.305-.867.039.398.308.817.776.817.21 0 .817-.14.817-.947zm-1.663-.508c0 .947-.717 1.285-1.166 1.285-.488 0-.896-.348-.896-.846 0-.548.418-1.375 2.062-1.435v.996zm7.163 1.395v-.309c-.518 0-.767 0-.777-.299v-1.902c0-.857 0-1.166-.309-1.524-.14-.17-.468-.369-1.046-.369-.727 0-1.195.429-1.474 1.046v-1.046l-1.405.11v.309c.697 0 .777.07.777.557v2.67c0 .448-.109.448-.777.448v.309l1.126-.03 1.115.03v-.309c-.667 0-.776 0-.776-.448v-1.833c0-1.036.707-1.594 1.344-1.594.628 0 .737.538.737 1.106v2.32c0 .45-.109.45-.777.45v.308l1.126-.03 1.116.03zM271.028-34.511v-.309h-.319c-.896 0-.926-.11-.926-.478v-5.588c0-.24 0-.26-.23-.26-.617.638-1.494.638-1.812.638v.31c.199 0 .787 0 1.305-.26v5.16c0 .359-.03.478-.927.478h-.319v.309c.349-.03 1.216-.03 1.614-.03.399 0 1.265 0 1.614.03zm5.39-3.188c0-.796-.05-1.593-.399-2.33-.458-.957-1.275-1.116-1.693-1.116-.598 0-1.325.259-1.733 1.185-.319.687-.369 1.465-.369 2.261 0 .747.04 1.644.448 2.401a1.825 1.825 0 0 0 1.644 1.006c.537 0 1.295-.209 1.733-1.155.319-.688.369-1.465.369-2.252zm-.827-.12c0 .748 0 1.425-.11 2.063-.149.946-.717 1.245-1.165 1.245-.389 0-.977-.25-1.156-1.205-.109-.598-.109-1.514-.109-2.102 0-.638 0-1.295.079-1.833.19-1.185.937-1.275 1.186-1.275.328 0 .986.18 1.175 1.165.1.558.1 1.315.1 1.943zM51.919-22.181h-.263c-.12 1.195-.275 2.713-2.367 2.713h-1.04c-.526 0-.55-.083-.55-.478v-6.42c0-.43.024-.573 1.064-.573h.359v-.347c-.347.024-1.4.024-1.817.024-.359 0-1.423 0-1.71-.024v.347h.24c.86 0 .896.12.896.562v6.348c0 .442-.036.561-.897.561h-.239v.347h6.013l.31-3.06zm6.169 1.996v-.67h-.263v.67c0 .681-.287.777-.454.777-.455 0-.455-.633-.455-.813v-2.092c0-.645 0-1.123-.526-1.59-.418-.382-.956-.55-1.482-.55-.98 0-1.733.646-1.733 1.423 0 .347.227.514.502.514a.47.47 0 0 0 .49-.49c0-.49-.43-.49-.61-.49.275-.502.849-.718 1.327-.718.55 0 1.255.455 1.255 1.53v.479c-2.402.036-3.31 1.04-3.31 1.96 0 .945 1.099 1.244 1.828 1.244a1.63 1.63 0 0 0 1.554-1.053c.048.562.418.993.932.993.251 0 .945-.168.945-1.124zm-1.949-.622c0 1.172-.872 1.566-1.386 1.566-.586 0-1.076-.43-1.076-1.004 0-1.578 2.032-1.721 2.462-1.745v1.183zm6.037.204v-.682h-.262v.658c0 .86-.347 1.363-.813 1.363-.813 0-.813-1.112-.813-1.315v-3.348h1.685v-.346h-1.685v-2.2h-.263c-.012 1.124-.442 2.271-1.53 2.307v.24h1.016v3.323c0 1.327.885 1.602 1.518 1.602.753 0 1.147-.742 1.147-1.602zm3.54 1.482v-.347c-.777 0-.825-.06-.825-.526v-4.399l-1.626.132v.347c.765 0 .873.071.873.657v3.251c0 .538-.132.538-.91.538v.347c.336-.024.91-.024 1.256-.024.132 0 .825 0 1.232.024zm-.67-7.22a.58.58 0 1 0-.586.574.576.576 0 0 0 .586-.574zm7.268 7.22v-.347c-.597 0-.896 0-.908-.358v-2.2c0-1.112 0-1.446-.275-1.829-.347-.466-.908-.538-1.315-.538-1.16 0-1.614.992-1.71 1.231h-.011v-1.23l-1.626.13v.348c.813 0 .908.083.908.669v3.24c0 .537-.131.537-.908.537v.347c.31-.024.956-.024 1.29-.024.348 0 .993 0 1.304.024v-.347c-.765 0-.909 0-.909-.538v-2.223c0-1.255.825-1.925 1.566-1.925.742 0 .909.61.909 1.34v2.808c0 .538-.132.538-.909.538v.347c.311-.024.957-.024 1.291-.024.347 0 .993 0 1.303.024zM86.664-19.121v-.347h-.24c-.86 0-.896-.12-.896-.561v-6.348c0-.442.036-.562.897-.562h.239v-.347h-1.853c-.263 0-.275.012-.37.24l-2.607 6.801-2.606-6.813c-.083-.228-.095-.228-.37-.228h-1.853v.347h.239c.86 0 .897.12.897.562v6.025c0 .323 0 .884-1.136.884v.347c.31-.024.944-.024 1.279-.024s.968 0 1.28.024v-.347c-1.137 0-1.137-.561-1.137-.884v-6.527h.012l2.881 7.53c.048.132.084.228.204.228.107 0 .131-.06.203-.24l2.905-7.578h.012v6.91c0 .442-.036.561-.897.561h-.239v.347c.275-.024 1.231-.024 1.578-.024s1.303 0 1.578.024zm6.026-2.558c0-1.542-1.172-2.774-2.558-2.774-1.435 0-2.57 1.268-2.57 2.774 0 1.53 1.195 2.678 2.558 2.678 1.41 0 2.57-1.172 2.57-2.678zm-.909-.108c0 .418 0 1.16-.31 1.722-.335.573-.885.8-1.34.8-.442 0-.98-.19-1.326-.776-.323-.538-.335-1.244-.335-1.746 0-.454 0-1.183.37-1.721.335-.514.861-.706 1.28-.706.466 0 .968.216 1.29.682.371.55.371 1.303.371 1.745zM99.536-19.121v-.347c-.813 0-.908-.083-.908-.67v-7.28l-1.662.132v.347c.813 0 .909.084.909.67v2.641a1.86 1.86 0 0 0-1.495-.765c-1.386 0-2.582 1.172-2.582 2.702 0 1.518 1.136 2.69 2.45 2.69.91 0 1.435-.598 1.603-.825v.825l1.685-.12zm-1.685-1.399c0 .216 0 .252-.168.514-.287.419-.777.765-1.374.765-.311 0-1.602-.12-1.602-2.438 0-.86.143-1.339.406-1.734.24-.37.718-.74 1.315-.74.741 0 1.16.537 1.28.729.143.203.143.227.143.442v2.462zm6.898-.024c0-.071-.06-.12-.132-.12-.095 0-.12.06-.143.12-.31 1.005-1.112 1.28-1.614 1.28s-1.71-.335-1.71-2.403v-.227h3.312c.263 0 .287 0 .287-.228 0-1.207-.646-2.33-2.092-2.33-1.363 0-2.415 1.23-2.415 2.713 0 1.578 1.22 2.738 2.546 2.738 1.423 0 1.96-1.292 1.96-1.543zm-.742-1.578h-2.845c.096-1.876 1.148-2.091 1.483-2.091 1.28 0 1.35 1.685 1.362 2.091zm5.297-1.577c0-.36-.323-.694-.837-.694-1.016 0-1.363 1.1-1.435 1.327h-.011v-1.327l-1.602.132v.347c.812 0 .908.083.908.669v3.24c0 .537-.131.537-.908.537v.347c.334-.024.992-.024 1.35-.024.323 0 1.172 0 1.447.024v-.347h-.24c-.872 0-.896-.131-.896-.561v-1.877c0-1.16.478-2.248 1.399-2.248.096 0 .12 0 .167.012-.096.048-.287.12-.287.443 0 .346.275.478.467.478.239 0 .478-.156.478-.478zm6.563 4.578v-.347c-.598 0-.897 0-.909-.358v-2.2c0-1.112 0-1.446-.275-1.829-.346-.466-.908-.538-1.315-.538-1.16 0-1.613.992-1.709 1.231h-.012v-1.23l-1.626.13v.348c.813 0 .909.083.909.669v3.24c0 .537-.132.537-.909.537v.347c.311-.024.957-.024 1.291-.024.347 0 .993 0 1.303.024v-.347c-.765 0-.908 0-.908-.538v-2.223c0-1.255.825-1.925 1.566-1.925s.908.61.908 1.34v2.808c0 .538-.131.538-.908.538v.347c.31-.024.956-.024 1.29-.024.348 0 .993 0 1.304.024zM128.602-20.161c0-.072 0-.18-.131-.18-.12 0-.12.073-.132.192-.06.717-.406 1.04-.789 1.04-.55 0-.67-.562-.765-1.195l-.12-.897c-.083-.598-.13-.98-.49-1.35-.131-.132-.442-.455-1.1-.634 1.184-.275 2.105-1.029 2.105-1.949 0-1.16-1.351-2.152-3.073-2.152h-3.574v.347h.24c.86 0 .896.12.896.562v6.348c0 .442-.036.561-.897.561h-.239v.347c.275-.024 1.255-.024 1.602-.024.347 0 1.339 0 1.614.024v-.347h-.24c-.86 0-.896-.12-.896-.561v-3.06H124c.466 0 .908.13 1.231.465.407.455.407.706.407 1.53 0 .945 0 1.256.526 1.77.18.179.68.454 1.35.454.933 0 1.088-1.04 1.088-1.291zm-2.534-4.973c0 1.04-.562 1.805-2.116 1.805h-1.339v-3.132c0-.275 0-.418.251-.466.108-.012.467-.012.706-.012.968 0 2.498 0 2.498 1.805zm8.07 3.455c0-1.542-1.172-2.774-2.558-2.774-1.435 0-2.57 1.268-2.57 2.774 0 1.53 1.195 2.678 2.558 2.678 1.41 0 2.57-1.172 2.57-2.678zm-.909-.108c0 .418 0 1.16-.31 1.722-.335.573-.885.8-1.34.8-.442 0-.98-.19-1.326-.776-.323-.538-.335-1.244-.335-1.746 0-.454 0-1.183.37-1.721.335-.514.861-.706 1.28-.706.466 0 .968.216 1.29.682.371.55.371 1.303.371 1.745zm10.76 2.666v-.347c-.598 0-.897 0-.91-.358v-2.2c0-1.112 0-1.446-.274-1.829-.347-.466-.909-.538-1.315-.538-.992 0-1.494.718-1.686 1.184-.167-.92-.812-1.184-1.565-1.184-1.16 0-1.614.992-1.71 1.231h-.012v-1.23l-1.626.13v.348c.813 0 .909.083.909.669v3.24c0 .537-.131.537-.909.537v.347c.311-.024.957-.024 1.291-.024.347 0 .993 0 1.304.024v-.347c-.766 0-.909 0-.909-.538v-2.223c0-1.255.825-1.925 1.566-1.925.741 0 .908.61.908 1.34v2.808c0 .538-.131.538-.908.538v.347c.31-.024.956-.024 1.29-.024.348 0 .993 0 1.304.024v-.347c-.765 0-.908 0-.908-.538v-2.223c0-1.255.824-1.925 1.565-1.925.742 0 .909.61.909 1.34v2.808c0 .538-.132.538-.909.538v.347c.311-.024.957-.024 1.291-.024.347 0 .993 0 1.304.024zm5.942-1.064v-.67h-.264v.67c0 .681-.286.777-.454.777-.454 0-.454-.633-.454-.813v-2.092c0-.645 0-1.123-.526-1.59-.418-.382-.956-.55-1.482-.55-.98 0-1.734.646-1.734 1.423 0 .347.228.514.503.514.286 0 .49-.203.49-.49 0-.49-.431-.49-.61-.49.275-.502.849-.718 1.327-.718.55 0 1.255.455 1.255 1.53v.479c-2.403.036-3.311 1.04-3.311 1.96 0 .945 1.1 1.244 1.829 1.244a1.63 1.63 0 0 0 1.554-1.053c.047.562.418.993.932.993.251 0 .945-.168.945-1.124zm-1.949-.622c0 1.172-.873 1.566-1.387 1.566-.585 0-1.075-.43-1.075-1.004 0-1.578 2.032-1.721 2.462-1.745v1.183zm8.368 1.686v-.347c-.597 0-.896 0-.908-.358v-2.2c0-1.112 0-1.446-.275-1.829-.347-.466-.908-.538-1.315-.538-1.16 0-1.614.992-1.709 1.231h-.012v-1.23l-1.626.13v.348c.813 0 .908.083.908.669v3.24c0 .537-.131.537-.908.537v.347c.311-.024.956-.024 1.291-.024.347 0 .992 0 1.303.024v-.347c-.765 0-.909 0-.909-.538v-2.223c0-1.255.825-1.925 1.566-1.925.742 0 .909.61.909 1.34v2.808c0 .538-.132.538-.909.538v.347c.311-.024.957-.024 1.291-.024.347 0 .993 0 1.303.024zM174.28-21.671h-.22c-.099.996-.228 2.261-1.971 2.261h-.867c-.438 0-.458-.07-.458-.398v-5.35c0-.358.02-.478.886-.478h.299v-.288c-.289.02-1.165.02-1.514.02-.299 0-1.186 0-1.425-.02v.288h.2c.717 0 .747.1.747.468v5.29c0 .369-.03.468-.748.468h-.199v.289h5.01l.26-2.55zm5.14 1.663v-.557h-.218v.557c0 .568-.24.648-.379.648-.379 0-.379-.528-.379-.678v-1.743c0-.538 0-.936-.438-1.324a1.815 1.815 0 0 0-1.235-.459c-.817 0-1.444.538-1.444 1.186 0 .289.189.428.418.428.24 0 .408-.17.408-.409 0-.408-.358-.408-.508-.408.23-.418.708-.597 1.106-.597.458 0 1.046.378 1.046 1.275v.398c-2.002.03-2.76.867-2.76 1.634 0 .787.917 1.036 1.525 1.036.657 0 1.106-.399 1.295-.877.04.468.348.827.777.827.209 0 .787-.14.787-.937zm-1.623-.518c0 .977-.727 1.305-1.155 1.305-.489 0-.897-.358-.897-.836 0-1.315 1.693-1.435 2.052-1.455v.986zm5.031.17v-.568h-.22v.548c0 .717-.288 1.135-.676 1.135-.678 0-.678-.926-.678-1.095v-2.79h1.405v-.288h-1.405v-1.833h-.219c-.01.936-.369 1.893-1.275 1.922v.2h.847v2.769c0 1.106.737 1.335 1.265 1.335.627 0 .956-.618.956-1.335zm2.95 1.235v-.289c-.648 0-.688-.05-.688-.438v-3.666l-1.355.11v.289c.638 0 .727.06.727.547v2.71c0 .448-.11.448-.757.448v.289c.279-.02.757-.02 1.046-.02.11 0 .687 0 1.026.02zm-.559-6.017a.483.483 0 1 0-.488.478.48.48 0 0 0 .488-.478zm6.057 6.017v-.289c-.498 0-.747 0-.757-.299v-1.833c0-.926 0-1.205-.229-1.524-.29-.388-.757-.448-1.096-.448-.966 0-1.345.827-1.424 1.026h-.01v-1.026l-1.355.11v.289c.678 0 .757.07.757.557v2.7c0 .448-.11.448-.757.448v.289c.259-.02.797-.02 1.076-.02.289 0 .827 0 1.085.02v-.289c-.637 0-.756 0-.756-.448v-1.853c0-1.046.687-1.604 1.304-1.604.618 0 .757.508.757 1.116v2.34c0 .45-.11.45-.757.45v.288c.26-.02.797-.02 1.076-.02.289 0 .827 0 1.086.02zM203.227-19.121v-.289h-.199c-.717 0-.747-.1-.747-.468v-5.29c0-.368.03-.468.747-.468h.2v-.288h-1.544c-.22 0-.23.01-.31.199l-2.171 5.668-2.172-5.678c-.07-.19-.08-.19-.308-.19h-1.544v.29h.199c.717 0 .747.099.747.467v5.021c0 .269 0 .737-.946.737v.289c.259-.02.787-.02 1.065-.02.28 0 .807 0 1.066.02v-.289c-.946 0-.946-.468-.946-.737v-5.439h.01l2.4 6.276c.04.11.07.189.17.189.09 0 .11-.05.17-.2l2.42-6.315h.01v5.758c0 .369-.03.468-.747.468h-.2v.289c.23-.02 1.027-.02 1.316-.02.288 0 1.085 0 1.314.02zm5.022-2.132c0-1.285-.976-2.31-2.131-2.31-1.196 0-2.142 1.055-2.142 2.31 0 1.275.996 2.232 2.131 2.232 1.176 0 2.142-.977 2.142-2.232zm-.757-.09c0 .35 0 .967-.259 1.435-.279.478-.737.667-1.115.667-.37 0-.817-.16-1.106-.647-.27-.448-.28-1.036-.28-1.454 0-.379 0-.986.31-1.435.279-.428.717-.587 1.065-.587.389 0 .807.179 1.076.567.309.459.309 1.086.309 1.455zM213.952-19.121v-.289c-.677 0-.757-.07-.757-.558v-6.066l-1.385.11v.288c.678 0 .757.07.757.558v2.202a1.55 1.55 0 0 0-1.245-.638c-1.155 0-2.151.976-2.151 2.251 0 1.265.946 2.242 2.042 2.242.757 0 1.195-.498 1.335-.688v.688l1.404-.1zm-1.404-1.165c0 .179 0 .209-.14.428-.24.349-.648.637-1.145.637-.26 0-1.335-.1-1.335-2.032 0-.717.12-1.116.338-1.444.2-.309.598-.618 1.096-.618.618 0 .966.449 1.066.608.12.17.12.19.12.369v2.052zm5.748-.02c0-.06-.05-.1-.11-.1-.08 0-.1.05-.12.1-.258.836-.926 1.065-1.344 1.065-.419 0-1.424-.278-1.424-2.002v-.189h2.758c.22 0 .24 0 .24-.19 0-1.005-.538-1.942-1.743-1.942-1.136 0-2.013 1.026-2.013 2.261 0 1.315 1.017 2.282 2.122 2.282 1.185 0 1.634-1.076 1.634-1.285zm-.618-1.315h-2.37c.08-1.564.956-1.743 1.234-1.743 1.066 0 1.126 1.404 1.136 1.743zm4.413-1.315c0-.3-.268-.578-.697-.578-.847 0-1.135.916-1.195 1.106h-.01v-1.106l-1.335.11v.289c.677 0 .757.07.757.557v2.7c0 .448-.11.448-.757.448v.289c.279-.02.827-.02 1.126-.02.269 0 .976 0 1.205.02v-.289h-.2c-.726 0-.746-.11-.746-.468v-1.564c0-.966.398-1.873 1.165-1.873.08 0 .1 0 .14.01-.08.04-.24.1-.24.369 0 .289.23.398.389.398.2 0 .398-.13.398-.398zm5.47 3.815v-.289c-.498 0-.747 0-.757-.299v-1.833c0-.926 0-1.205-.23-1.524-.288-.388-.757-.448-1.095-.448-.967 0-1.345.827-1.425 1.026h-.01v-1.026l-1.354.11v.289c.677 0 .757.07.757.557v2.7c0 .448-.11.448-.757.448v.289c.259-.02.797-.02 1.076-.02.288 0 .826 0 1.085.02v-.289c-.637 0-.757 0-.757-.448v-1.853c0-1.046.688-1.604 1.305-1.604.618 0 .757.508.757 1.116v2.34c0 .45-.11.45-.757.45v.288c.26-.02.797-.02 1.076-.02.289 0 .827 0 1.086.02zM238.173-19.988c0-.06 0-.149-.11-.149-.1 0-.1.06-.11.16-.05.597-.338.866-.657.866-.458 0-.558-.468-.637-.996l-.1-.747c-.07-.498-.11-.817-.408-1.126-.11-.11-.369-.378-.917-.528.986-.229 1.754-.856 1.754-1.624 0-.966-1.126-1.792-2.56-1.792h-2.979v.288h.2c.716 0 .746.1.746.468v5.29c0 .369-.03.468-.747.468h-.199v.289c.23-.02 1.046-.02 1.335-.02.289 0 1.115 0 1.345.02v-.289h-.2c-.717 0-.747-.1-.747-.468v-2.55h1.156c.388 0 .757.11 1.026.388.338.379.338.588.338 1.275 0 .787 0 1.046.439 1.475.149.149.567.378 1.125.378.778 0 .907-.867.907-1.076zm-2.112-4.144c0 .867-.468 1.505-1.763 1.505h-1.116v-2.61c0-.23 0-.349.21-.389.089-.01.388-.01.587-.01.807 0 2.082 0 2.082 1.504zm6.725 2.88c0-1.286-.976-2.312-2.132-2.312-1.195 0-2.142 1.056-2.142 2.311 0 1.275.997 2.232 2.132 2.232 1.176 0 2.142-.977 2.142-2.232zm-.757-.09c0 .348 0 .966-.26 1.434-.278.478-.736.667-1.115.667-.368 0-.817-.16-1.106-.647-.268-.448-.278-1.036-.278-1.454 0-.379 0-.986.308-1.435.28-.428.718-.587 1.066-.587.389 0 .807.179 1.076.567.309.459.309 1.086.309 1.455zm8.966 2.221v-.289c-.499 0-.748 0-.757-.299v-1.833c0-.926 0-1.205-.23-1.524-.289-.388-.757-.448-1.095-.448-.827 0-1.246.598-1.405.986-.14-.767-.677-.986-1.305-.986-.966 0-1.345.827-1.424 1.026h-.01v-1.026l-1.355.11v.289c.678 0 .757.07.757.557v2.7c0 .448-.11.448-.757.448v.289c.26-.02.797-.02 1.076-.02.289 0 .826 0 1.086.02v-.289c-.638 0-.757 0-.757-.448v-1.853c0-1.046.687-1.604 1.304-1.604.618 0 .758.508.758 1.116v2.34c0 .45-.11.45-.758.45v.288c.26-.02.797-.02 1.076-.02.29 0 .827 0 1.086.02v-.289c-.637 0-.757 0-.757-.448v-1.853c0-1.046.687-1.604 1.305-1.604.618 0 .757.508.757 1.116v2.34c0 .45-.11.45-.757.45v.288c.259-.02.797-.02 1.076-.02.289 0 .827 0 1.086.02zm4.951-.887v-.557h-.219v.557c0 .568-.239.648-.378.648-.379 0-.379-.528-.379-.678v-1.743c0-.538 0-.936-.438-1.324a1.815 1.815 0 0 0-1.235-.459c-.817 0-1.445.538-1.445 1.186 0 .289.19.428.419.428.239 0 .408-.17.408-.409 0-.408-.359-.408-.508-.408.229-.418.707-.597 1.106-.597.458 0 1.046.378 1.046 1.275v.398c-2.003.03-2.76.867-2.76 1.634 0 .787.917 1.036 1.525 1.036.657 0 1.105-.399 1.294-.877.04.468.349.827.777.827.21 0 .787-.14.787-.937zm-1.624-.518c0 .977-.727 1.305-1.155 1.305-.488 0-.896-.358-.896-.836 0-1.315 1.693-1.435 2.052-1.455v.986zm6.974 1.405v-.289c-.498 0-.747 0-.757-.299v-1.833c0-.926 0-1.205-.229-1.524-.289-.388-.757-.448-1.096-.448-.966 0-1.344.827-1.424 1.026h-.01v-1.026l-1.355.11v.289c.678 0 .757.07.757.557v2.7c0 .448-.11.448-.757.448v.289c.26-.02.797-.02 1.076-.02.289 0 .827 0 1.086.02v-.289c-.638 0-.757 0-.757-.448v-1.853c0-1.046.687-1.604 1.305-1.604.617 0 .757.508.757 1.116v2.34c0 .45-.11.45-.757.45v.288c.259-.02.796-.02 1.075-.02.29 0 .827 0 1.086.02zM268.847-19.121v-.289h-.309c-.876 0-.906-.12-.906-.478v-5.618c0-.23 0-.24-.2-.24-.239.27-.737.638-1.763.638v.29c.23 0 .728 0 1.275-.26v5.19c0 .359-.03.478-.906.478h-.309v.289c.27-.02 1.235-.02 1.564-.02.329 0 1.285 0 1.554.02zm5.18-1.673h-.219c-.03.169-.109.717-.209.876-.07.09-.637.09-.936.09h-1.843c.269-.23.876-.867 1.135-1.106 1.514-1.394 2.072-1.913 2.072-2.899 0-1.145-.906-1.912-2.062-1.912-1.155 0-1.832.986-1.832 1.843 0 .508.438.508.468.508a.46.46 0 0 0 .468-.469.444.444 0 0 0-.468-.468c-.09 0-.11 0-.14.01.189-.677.728-1.135 1.375-1.135.847 0 1.365.707 1.365 1.623 0 .847-.488 1.584-1.056 2.222l-2.012 2.25v.24h3.636l.258-1.673zM15.308-7.942h-.31c-.138 1.704-.361 3.908-3.305 3.908h-1.6c-.69 0-.724-.087-.724-.672v-9.4c0-.619.035-.79 1.343-.79h.379v-.448c-.706.034-1.532.034-2.238.034-.534 0-1.498 0-1.997-.034v.447c1.188 0 1.377 0 1.377.775v9.313c0 .775-.19.775-1.377.775v.447h8.04l.412-4.355zm8.315 2.823v-.964h-.31v.981c0 1.05-.464 1.188-.688 1.188-.706 0-.706-.895-.706-1.653v-2.478c0-1.137 0-1.74-.723-2.41a2.931 2.931 0 0 0-1.962-.74c-1.36 0-2.342 1.066-2.342 2.203 0 .637.517.671.62.671.224 0 .62-.138.62-.62 0-.43-.327-.62-.62-.62a.742.742 0 0 0-.206.035c.361-1.084 1.29-1.394 1.893-1.394.86 0 1.808.757 1.808 2.203v.758c-1.016.034-2.238.172-3.202.688-1.085.603-1.394 1.463-1.394 2.117 0 1.326 1.549 1.705 2.461 1.705a2.32 2.32 0 0 0 2.204-1.515c.034.757.516 1.446 1.273 1.446.362 0 1.274-.241 1.274-1.601zm-2.616-.86c0 1.497-1.068 2.254-2.015 2.254-.86 0-1.531-.637-1.531-1.429 0-.516.223-1.428 1.222-1.98.826-.464 1.773-.533 2.324-.567v1.721zm8.074.257v-.98h-.31v.963c0 1.188-.465 1.98-1.188 1.98-.5 0-1.188-.345-1.188-1.91v-4.873h2.41v-.447h-2.41v-3.185h-.31c-.034 1.773-.637 3.323-2.1 3.357v.275h1.498v4.838c0 .327 0 2.255 1.997 2.255 1.015 0 1.6-.999 1.6-2.273zm4.493 2.135v-.447c-1.016 0-1.05-.104-1.05-.724v-6.369l-1.98.19v.447c.964 0 1.102.103 1.102.93v4.785c0 .654-.07.74-1.17.74v.448c.412-.034 1.153-.034 1.583-.034.413 0 1.119 0 1.515.034zm-.844-10.398a.698.698 0 0 0-1.394 0 .698.698 0 0 0 1.394 0zM42.51-3.587v-.447c-1.102 0-1.171-.07-1.171-.74V-8.82c0-.878-.172-2.307-2.203-2.307-1.36 0-2.066 1.05-2.325 1.739h-.017v-1.739l-2.031.19v.447c1.016 0 1.17.103 1.17.93v4.785c0 .654-.068.74-1.17.74v.448c.413-.034 1.17-.034 1.618-.034.448 0 1.222 0 1.635.034v-.447c-1.101 0-1.17-.07-1.17-.74V-8.08c0-1.584.964-2.771 2.169-2.771 1.274 0 1.411 1.136 1.411 1.962v4.114c0 .654-.068.74-1.17.74v.448c.413-.034 1.17-.034 1.618-.034.448 0 1.222 0 1.636.034zM61.866-3.587v-.447c-1.188 0-1.377 0-1.377-.775v-9.313c0-.775.19-.775 1.377-.775v-.447H59.68c-.361 0-.378.017-.482.275L55.48-4.98 51.762-15.07c-.104-.258-.121-.275-.482-.275h-2.204v.447c1.188 0 1.377 0 1.377.775v8.848c0 .43 0 1.24-1.377 1.24v.447c.396-.034 1.119-.034 1.55-.034.43 0 1.153 0 1.549.034v-.447c-1.377 0-1.377-.81-1.377-1.24v-9.554h.017L54.86-3.862c.07.172.103.275.241.275s.172-.103.241-.275l4.08-11.052h.017V-4.81c0 .775-.19.775-1.377.775v.447c.465-.034 1.394-.034 1.894-.034.499 0 1.446 0 1.91.034zm8.35-3.684c0-2.203-1.6-3.925-3.477-3.925-1.877 0-3.477 1.722-3.477 3.925 0 2.169 1.6 3.822 3.477 3.822 1.876 0 3.477-1.653 3.477-3.822zm-1.101-.138c0 .672-.035 1.705-.5 2.531-.482.792-1.222 1.119-1.876 1.119-.81 0-1.498-.482-1.894-1.154-.43-.774-.482-1.738-.482-2.496 0-.723.035-1.618.482-2.392.345-.568 1.016-1.12 1.894-1.12.775 0 1.429.431 1.842 1.034.534.809.534 1.945.534 2.478zM79.388-3.587v-.447c-1.015 0-1.17-.104-1.17-.93v-10.57l-2.049.19v.447c1.016 0 1.17.104 1.17.93v4.028c-.068-.086-.774-1.188-2.168-1.188-1.756 0-3.46 1.567-3.46 3.84 0 2.254 1.6 3.838 3.288 3.838 1.463 0 2.22-1.136 2.306-1.257v1.257l2.083-.138zm-2.083-2.066c0 .517-.31.982-.705 1.326-.586.516-1.171.602-1.498.602-.5 0-2.29-.258-2.29-3.546 0-3.374 1.997-3.58 2.445-3.58.792 0 1.429.447 1.825 1.067.223.361.223.413.223.723v3.408zm9.262-2.255c0-1.756-.93-3.288-2.892-3.288-1.824 0-3.27 1.739-3.27 3.856 0 2.238 1.635 3.89 3.46 3.89 1.927 0 2.685-1.824 2.685-2.185 0-.121-.138-.121-.138-.121-.12 0-.137.034-.206.24-.38 1.172-1.326 1.757-2.221 1.757-.74 0-1.48-.413-1.945-1.17-.534-.879-.534-1.894-.534-2.703h4.992c.07-.07.07-.104.07-.276zm-.93.018h-4.114c.121-2.48 1.446-3.03 2.135-3.03 1.17 0 1.962 1.101 1.98 3.03zm7.025-2.342c0-.55-.551-.895-1.137-.895-1.308 0-1.876 1.274-2.048 1.877h-.017v-1.877l-1.997.19v.447c1.015 0 1.17.103 1.17.93v4.785c0 .654-.069.74-1.17.74v.448c.413-.034 1.205-.034 1.652-.034.5 0 1.377 0 1.842.034v-.447c-1.24 0-1.446 0-1.446-.775v-2.84c0-1.653.706-3.202 1.997-3.202.12 0 .241.017.362.068 0 0-.38.121-.38.569 0 .413.328.585.586.585.207 0 .586-.12.586-.603zm8.676 6.645v-.447c-1.102 0-1.17-.07-1.17-.74V-8.82c0-.878-.173-2.307-2.204-2.307-1.36 0-2.066 1.05-2.324 1.739h-.017v-1.739l-2.032.19v.447c1.016 0 1.171.103 1.171.93v4.785c0 .654-.07.74-1.17.74v.448c.413-.034 1.17-.034 1.618-.034.447 0 1.222 0 1.635.034v-.447c-1.102 0-1.17-.07-1.17-.74V-8.08c0-1.584.963-2.771 2.168-2.771 1.274 0 1.412 1.136 1.412 1.962v4.114c0 .654-.069.74-1.17.74v.448c.412-.034 1.17-.034 1.617-.034.448 0 1.223 0 1.636.034zM118.758-5.033c0-.103 0-.224-.155-.224-.138 0-.155.103-.155.173-.086 1.118-.586 1.497-1.119 1.497-.947 0-1.05-1.084-1.153-2.135-.052-.36-.087-.62-.121-.998-.103-.86-.241-2.117-2.289-2.737 1.635-.327 3.012-1.429 3.012-2.806 0-1.618-1.825-3.082-4.235-3.082h-4.631v.448c1.188 0 1.378 0 1.378.775v9.313c0 .775-.19.775-1.378.775v.447c.5-.034 1.395-.034 1.929-.034.533 0 1.428 0 1.928.034v-.447c-1.188 0-1.378 0-1.378-.775v-4.528h2.015c.981 0 1.532.396 1.773.62.688.672.688 1.136.688 2.307 0 1.153 0 1.739.517 2.324.654.706 1.532.774 1.91.774 1.274 0 1.464-1.428 1.464-1.72zm-3.288-7.23c0 2.22-1.825 2.651-3.116 2.651h-1.963v-4.613c0-.586.035-.672.723-.672h1.257c1.429 0 3.099.5 3.099 2.634zm10.673 4.992c0-2.203-1.601-3.925-3.477-3.925-1.877 0-3.477 1.722-3.477 3.925 0 2.169 1.6 3.822 3.477 3.822 1.876 0 3.477-1.653 3.477-3.822zm-1.101-.138c0 .672-.035 1.705-.5 2.531-.482.792-1.222 1.119-1.876 1.119-.809 0-1.498-.482-1.894-1.154-.43-.774-.482-1.738-.482-2.496 0-.723.035-1.618.482-2.392.345-.568 1.016-1.12 1.894-1.12.775 0 1.429.431 1.842 1.034.534.809.534 1.945.534 2.478zm14.391 3.822v-.447c-1.102 0-1.17-.07-1.17-.74V-8.82c0-.86-.155-2.307-2.204-2.307-1.171 0-1.98.792-2.289 1.722h-.017c-.207-1.412-1.223-1.722-2.187-1.722-1.36 0-2.066 1.05-2.324 1.739h-.017v-1.739l-2.031.19v.447c1.015 0 1.17.103 1.17.93v4.785c0 .654-.069.74-1.17.74v.448c.413-.034 1.17-.034 1.618-.034.447 0 1.222 0 1.635.034v-.447c-1.101 0-1.17-.07-1.17-.74V-8.08c0-1.584.964-2.771 2.169-2.771 1.273 0 1.411 1.136 1.411 1.962v4.114c0 .654-.069.74-1.17.74v.448c.413-.034 1.17-.034 1.618-.034s1.222 0 1.635.034v-.447c-1.102 0-1.17-.07-1.17-.74V-8.08c0-1.584.963-2.771 2.168-2.771 1.274 0 1.412 1.136 1.412 1.962v4.114c0 .654-.069.74-1.17.74v.448c.413-.034 1.17-.034 1.618-.034.447 0 1.222 0 1.635.034zm8.212-1.532v-.964h-.31v.981c0 1.05-.464 1.188-.688 1.188-.706 0-.706-.895-.706-1.653v-2.478c0-1.137 0-1.74-.723-2.41a2.931 2.931 0 0 0-1.962-.74c-1.36 0-2.342 1.066-2.342 2.203 0 .637.517.671.62.671.224 0 .62-.138.62-.62 0-.43-.327-.62-.62-.62a.745.745 0 0 0-.207.035c.362-1.084 1.291-1.394 1.894-1.394.861 0 1.808.757 1.808 2.203v.758c-1.016.034-2.238.172-3.202.688-1.085.603-1.395 1.463-1.395 2.117 0 1.326 1.549 1.705 2.462 1.705.947 0 1.825-.534 2.203-1.515.035.757.517 1.446 1.274 1.446.362 0 1.274-.241 1.274-1.601zm-2.616-.86c0 1.497-1.068 2.254-2.015 2.254-.86 0-1.532-.637-1.532-1.429 0-.516.224-1.428 1.223-1.98.826-.464 1.773-.533 2.324-.567v1.721zm11.103 2.392v-.447c-1.102 0-1.17-.07-1.17-.74V-8.82c0-.878-.172-2.307-2.204-2.307-1.36 0-2.066 1.05-2.324 1.739h-.017v-1.739l-2.031.19v.447c1.015 0 1.17.103 1.17.93v4.785c0 .654-.069.74-1.17.74v.448c.413-.034 1.17-.034 1.618-.034.447 0 1.222 0 1.635.034v-.447c-1.101 0-1.17-.07-1.17-.74V-8.08c0-1.584.964-2.771 2.169-2.771 1.273 0 1.411 1.136 1.411 1.962v4.114c0 .654-.069.74-1.17.74v.448c.413-.034 1.17-.034 1.618-.034s1.222 0 1.635.034zM174.001-6.107h-.18c-.079.986-.208 2.261-1.912 2.261h-.926c-.399 0-.419-.05-.419-.388v-5.44c0-.358.02-.457.777-.457h.22v-.26c-.409.02-.887.02-1.296.02-.308 0-.866 0-1.155-.02v.26c.687 0 .797 0 .797.448v5.389c0 .448-.11.448-.797.448v.259h4.652l.239-2.52zm4.812 1.633v-.557h-.18v.567c0 .608-.268.688-.398.688-.408 0-.408-.518-.408-.957v-1.434c0-.657 0-1.006-.418-1.394a1.697 1.697 0 0 0-1.136-.429c-.787 0-1.355.618-1.355 1.275 0 .369.299.389.359.389.13 0 .358-.08.358-.359 0-.249-.189-.359-.358-.359-.04 0-.09.01-.12.02.21-.627.747-.806 1.096-.806.498 0 1.046.438 1.046 1.275v.438c-.588.02-1.295.1-1.853.398-.627.349-.807.847-.807 1.225 0 .768.897.987 1.425.987.548 0 1.055-.309 1.275-.877.02.438.299.837.737.837.21 0 .737-.14.737-.927zm-1.514-.498c0 .867-.618 1.305-1.165 1.305-.499 0-.887-.368-.887-.827 0-.298.13-.826.707-1.145.478-.269 1.026-.309 1.345-.329v.996zm4.672.15v-.568h-.179v.558c0 .687-.27 1.145-.687 1.145-.29 0-.688-.199-.688-1.105v-2.82h1.395v-.258h-1.395v-1.843h-.18c-.019 1.026-.368 1.922-1.214 1.942v.16h.867v2.799c0 .19 0 1.305 1.155 1.305.588 0 .926-.578.926-1.315zm2.6 1.235v-.259c-.587 0-.607-.06-.607-.418V-7.95l-1.146.11v.259c.558 0 .638.06.638.537v2.77c0 .378-.04.428-.677.428v.259c.239-.02.667-.02.916-.02.239 0 .648 0 .876.02zm-.487-6.017a.404.404 0 0 0-.807 0 .404.404 0 0 0 .807 0zm5.658 6.017v-.259c-.638 0-.678-.04-.678-.428v-2.341c0-.508-.099-1.335-1.275-1.335-.786 0-1.195.608-1.344 1.006h-.01V-7.95l-1.176.11v.259c.588 0 .678.06.678.537v2.77c0 .378-.04.428-.678.428v.259c.24-.02.678-.02.937-.02s.707 0 .946.02v-.259c-.638 0-.677-.04-.677-.428v-1.913c0-.916.558-1.604 1.255-1.604.737 0 .816.658.816 1.136v2.38c0 .38-.04.429-.677.429v.259c.24-.02.677-.02.937-.02.259 0 .707 0 .946.02zM200.95-3.587v-.259c-.687 0-.797 0-.797-.448v-5.39c0-.447.11-.447.797-.447v-.26h-1.265c-.21 0-.22.01-.28.16l-2.15 5.837-2.152-5.837c-.06-.15-.07-.16-.279-.16h-1.275v.26c.687 0 .797 0 .797.448v5.12c0 .249 0 .717-.797.717v.259c.23-.02.647-.02.896-.02.25 0 .668 0 .897.02v-.259c-.797 0-.797-.468-.797-.717v-5.529h.01l2.34 6.346c.04.1.06.159.14.159s.1-.06.14-.16l2.36-6.394h.01v5.847c0 .448-.11.448-.796.448v.259c.269-.02.807-.02 1.095-.02.29 0 .837 0 1.106.02zm4.833-2.132c0-1.275-.927-2.27-2.013-2.27-1.086 0-2.012.995-2.012 2.27 0 1.255.926 2.212 2.012 2.212 1.086 0 2.012-.957 2.012-2.212zm-.638-.08c0 .39-.02.987-.289 1.465-.279.458-.707.647-1.086.647-.468 0-.867-.278-1.096-.667-.249-.448-.278-1.006-.278-1.444 0-.419.02-.937.278-1.385.2-.329.588-.647 1.096-.647.448 0 .827.249 1.066.597.309.469.309 1.126.309 1.435zM211.087-3.587v-.259c-.588 0-.678-.06-.678-.538V-10.5l-1.185.11v.259c.587 0 .677.06.677.537v2.331c-.04-.05-.448-.687-1.255-.687-1.016 0-2.002.906-2.002 2.221 0 1.305.926 2.222 1.902 2.222.847 0 1.285-.658 1.335-.727v.727l1.206-.08zm-1.206-1.195c0 .298-.18.568-.408.767-.339.299-.678.348-.867.348-.289 0-1.325-.149-1.325-2.052 0-1.952 1.156-2.072 1.415-2.072.458 0 .827.26 1.056.618.13.21.13.24.13.418v1.973zm5.36-1.305c0-1.016-.538-1.903-1.674-1.903-1.055 0-1.892 1.006-1.892 2.231 0 1.295.946 2.252 2.002 2.252 1.116 0 1.554-1.056 1.554-1.265 0-.07-.08-.07-.08-.07-.07 0-.08.02-.12.14-.218.677-.766 1.015-1.284 1.015-.429 0-.857-.239-1.126-.677-.309-.508-.309-1.096-.309-1.564h2.89c.039-.04.039-.06.039-.16zm-.538.01h-2.38c.07-1.435.836-1.753 1.234-1.753.678 0 1.136.637 1.146 1.753zm4.065-1.355c0-.319-.319-.518-.658-.518-.757 0-1.086.737-1.185 1.086h-.01V-7.95l-1.156.11v.259c.588 0 .678.06.678.537v2.77c0 .378-.04.428-.678.428v.259c.24-.02.698-.02.957-.02.289 0 .796 0 1.066.02v-.259c-.718 0-.837 0-.837-.448v-1.644c0-.956.408-1.853 1.155-1.853.07 0 .14.01.21.04 0 0-.22.07-.22.329 0 .24.19.339.34.339.118 0 .338-.07.338-.349zm5.02 3.845v-.259c-.637 0-.677-.04-.677-.428v-2.341c0-.508-.1-1.335-1.275-1.335-.787 0-1.195.608-1.345 1.006h-.01V-7.95l-1.175.11v.259c.588 0 .677.06.677.537v2.77c0 .378-.04.428-.677.428v.259c.24-.02.677-.02.936-.02.26 0 .708 0 .947.02v-.259c-.638 0-.678-.04-.678-.428v-1.913c0-.916.558-1.604 1.255-1.604.738 0 .817.658.817 1.136v2.38c0 .38-.04.429-.677.429v.259c.24-.02.677-.02.936-.02.26 0 .708 0 .947.02zM233.863-4.424c0-.06 0-.13-.09-.13-.08 0-.089.06-.089.1-.05.648-.339.867-.647.867-.548 0-.608-.627-.668-1.235-.03-.21-.05-.359-.07-.578-.06-.498-.139-1.225-1.324-1.584.946-.189 1.743-.826 1.743-1.623 0-.937-1.056-1.783-2.45-1.783h-2.68v.259c.687 0 .797 0 .797.448v5.389c0 .448-.11.448-.797.448v.259c.289-.02.807-.02 1.116-.02.308 0 .826 0 1.115.02v-.259c-.687 0-.797 0-.797-.448v-2.62h1.166c.568 0 .886.23 1.026.359.398.388.398.657.398 1.334 0 .668 0 1.007.3 1.345.378.409.886.448 1.105.448.737 0 .846-.826.846-.996zm-1.902-4.183c0 1.285-1.056 1.533-1.803 1.533h-1.136v-2.669c0-.339.02-.388.418-.388h.728c.827 0 1.793.288 1.793 1.524zm6.177 2.888c0-1.275-.927-2.27-2.012-2.27-1.086 0-2.013.995-2.013 2.27 0 1.255.927 2.212 2.013 2.212 1.085 0 2.012-.957 2.012-2.212zm-.638-.08c0 .39-.02.987-.289 1.465-.279.458-.707.647-1.085.647-.469 0-.867-.278-1.096-.667-.25-.448-.279-1.006-.279-1.444 0-.419.02-.937.279-1.385.2-.329.588-.647 1.096-.647.448 0 .826.249 1.065.597.309.469.309 1.126.309 1.435zm8.328 2.212v-.259c-.637 0-.677-.04-.677-.428v-2.341c0-.498-.09-1.335-1.275-1.335-.678 0-1.146.458-1.325.996h-.01c-.12-.817-.707-.996-1.265-.996-.787 0-1.195.608-1.345 1.006h-.01V-7.95l-1.175.11v.259c.588 0 .677.06.677.537v2.77c0 .378-.04.428-.677.428v.259c.239-.02.677-.02.936-.02.26 0 .707 0 .947.02v-.259c-.638 0-.678-.04-.678-.428v-1.913c0-.916.558-1.604 1.255-1.604.738 0 .817.658.817 1.136v2.38c0 .38-.04.429-.677.429v.259c.239-.02.677-.02.936-.02.26 0 .707 0 .946.02v-.259c-.637 0-.677-.04-.677-.428v-1.913c0-.916.558-1.604 1.255-1.604.737 0 .817.658.817 1.136v2.38c0 .38-.04.429-.677.429v.259c.239-.02.677-.02.936-.02s.707 0 .946.02zm4.753-.887v-.557h-.18v.567c0 .608-.268.688-.398.688-.408 0-.408-.518-.408-.957v-1.434c0-.657 0-1.006-.419-1.394a1.697 1.697 0 0 0-1.135-.429c-.787 0-1.355.618-1.355 1.275 0 .369.299.389.359.389.13 0 .358-.08.358-.359 0-.249-.19-.359-.358-.359-.04 0-.09.01-.12.02.21-.627.747-.806 1.096-.806.498 0 1.046.438 1.046 1.275v.438c-.588.02-1.295.1-1.853.398-.628.349-.807.847-.807 1.225 0 .768.897.987 1.425.987.548 0 1.055-.309 1.275-.877.02.438.298.837.737.837.209 0 .737-.14.737-.927zm-1.514-.498c0 .867-.618 1.305-1.166 1.305-.498 0-.886-.368-.886-.827 0-.298.13-.826.707-1.145.478-.269 1.026-.309 1.345-.329v.996zm6.425 1.385v-.259c-.637 0-.677-.04-.677-.428v-2.341c0-.508-.1-1.335-1.275-1.335-.787 0-1.195.608-1.345 1.006h-.01V-7.95l-1.175.11v.259c.588 0 .677.06.677.537v2.77c0 .378-.04.428-.677.428v.259c.239-.02.677-.02.936-.02.26 0 .707 0 .946.02v-.259c-.637 0-.677-.04-.677-.428v-1.913c0-.916.558-1.604 1.255-1.604.737 0 .817.658.817 1.136v2.38c0 .38-.04.429-.677.429v.259c.239-.02.677-.02.936-.02.26 0 .707 0 .946.02zM262.595-3.587v-.259h-.299c-.856 0-.876-.11-.876-.468v-5.638c0-.21-.01-.22-.15-.22-.388.469-.976.618-1.534.638-.03 0-.08 0-.09.02-.01.02-.01.04-.01.25.31 0 .827-.06 1.226-.3v5.25c0 .349-.02.468-.877.468h-.298v.259l1.454-.02 1.454.02zm5.24-6.206v-.219h-2.34c-1.166 0-1.186-.13-1.226-.319h-.179l-.29 1.863h.18c.03-.19.1-.697.22-.886.06-.08.796-.08.966-.08h2.191l-1.106 1.643c-.737 1.106-1.245 2.6-1.245 3.905 0 .12 0 .458.359.458.358 0 .358-.338.358-.468v-.458c0-1.634.28-2.71.738-3.397l1.374-2.042z"/></svg>