<svg xmlns="http://www.w3.org/2000/svg" width="312.573" height="79.707" viewBox="0 -59.78 234.43 59.78"><path d="M10.919-57.184c0-.31-.24-.31-.399-.31H9.465c-.16 0-.399 0-.399.31 0 .298.249.298.399.298h.248v4.732h-.01l-1.833-4.98c-.119-.33-.268-.36-.537-.36h-.678c-.15 0-.398 0-.398.3 0 .308.24.308.398.308h.25v4.872h-.25c-.15 0-.398 0-.398.298 0 .309.24.309.398.309h1.056c.15 0 .399 0 .399-.299 0-.308-.24-.308-.399-.308h-.249v-4.732h.01l1.833 4.98c.13.349.289.359.548.359.299 0 .418-.03.418-.408v-5.07h.25c.149 0 .398 0 .398-.3zm4.941 3.625c0-1.245-.926-2.23-2.042-2.23-1.116 0-2.042.985-2.042 2.23 0 1.265.946 2.212 2.042 2.212 1.096 0 2.042-.957 2.042-2.212zm-.687-.07c0 .927-.618 1.674-1.355 1.674s-1.355-.747-1.355-1.673c0-.907.648-1.554 1.355-1.554.717 0 1.355.647 1.355 1.554zm6.117-1.513c0-.2-.12-.618-.947-.618-.508 0-1.145.18-1.693.807v-.339c0-.309-.06-.408-.399-.408h-1.095c-.15 0-.399 0-.399.299 0 .308.24.308.399.308h.807v3.079h-.807c-.15 0-.399 0-.399.298 0 .309.24.309.399.309h2.6c.15 0 .408 0 .408-.299 0-.308-.259-.308-.408-.308H18.65v-1.246c0-.936.588-1.892 1.793-1.892.01.239.18.438.428.438a.41.41 0 0 0 .419-.428zm5.519 3.436c0-.308-.21-.308-.568-.308v-2.411c0-.2 0-1.335-.886-1.335-.3 0-.708.13-.987.518-.15-.339-.428-.518-.757-.518-.318 0-.617.14-.857.359-.02-.3-.219-.3-.398-.3h-.319c-.149 0-.408 0-.408.3 0 .308.21.308.568.308v3.079c-.359 0-.568 0-.568.308 0 .299.269.299.408.299h.877c.15 0 .408 0 .408-.299 0-.308-.209-.308-.567-.308v-1.784c0-.886.408-1.354.816-1.354.23 0 .37.17.37.816v2.322c-.19 0-.44 0-.44.308 0 .299.27.299.41.299h.746c.15 0 .409 0 .409-.299 0-.308-.21-.308-.568-.308v-1.784c0-.886.408-1.354.817-1.354.229 0 .368.17.368.816v2.322c-.19 0-.438 0-.438.308 0 .299.269.299.408.299h.748c.149 0 .408 0 .408-.299zm5.26-.01c0-.298-.249-.298-.398-.298-.419 0-.518-.05-.598-.08v-2.152c0-.707-.538-1.544-1.972-1.544-.429 0-1.445 0-1.445.727 0 .3.21.459.449.459.149 0 .428-.09.438-.459 0-.08.01-.09.209-.11.14-.01.27-.01.358-.01.758 0 1.276.31 1.276 1.017-1.763.03-2.989.528-2.989 1.484 0 .687.628 1.335 1.644 1.335.369 0 .986-.07 1.454-.379.22.309.698.319 1.076.319.279 0 .498 0 .498-.309zm-1.683-1.026c0 .23 0 .438-.389.618-.358.17-.807.17-.887.17-.617 0-1.026-.34-1.026-.728 0-.488.857-.857 2.302-.897v.837zm6.395 1.036c0-.308-.239-.308-.398-.308h-1.295v-5.07c0-.31-.06-.41-.398-.41h-1.574c-.16 0-.409 0-.409.31 0 .298.26.298.399.298H34.4v4.872h-1.285c-.16 0-.409 0-.409.308 0 .299.26.299.399.299h3.277c.15 0 .398 0 .398-.299zM110.903-51.258c.648 0 1.395-.09 1.883-.288.209-.07.219-.08.319-.27.12-.288.269-.806.269-.966 0-.209-.25-.199-.34-.03-.438.788-1.025 1.246-1.981 1.246-1.654 0-2.74-1.674-2.74-3.298 0-1.464 1.116-2.839 2.67-2.839.548 0 1.036.12 1.364.34.35.238.489.597.618 1.105.06.23.349.14.339-.01-.02-.518-.06-.837-.09-1.146-.02-.179-.09-.289-.289-.338-.677-.17-1.006-.26-1.773-.26-2.042 0-3.845 1.455-3.845 3.388 0 2.032 1.734 3.366 3.596 3.366zm3.408-.119c.388 0 .458-.05.807-.05s.418.05.807.05c.07 0 .199-.01.199-.09 0-.1-.12-.14-.23-.179-.198-.06-.428-.11-.428-.378v-4.981c0-.897.07-1.235.07-1.355 0-.03-.02-.07-.05-.07-.02 0-.04.01-.06.02-.318.12-.617.27-1.125.389-.04.01-.07.06-.07.12 0 .059.03.119.08.129.329.07.458.338.458.727v5.02c0 .27-.23.32-.428.379-.11.04-.23.08-.23.18 0 .079.13.089.2.089zm3.168.11c.428 0 .807-.16 1.245-.518h.03c.18.348.418.517.727.517.21 0 .478-.139.687-.348.06-.06.11-.16.11-.22a.11.11 0 0 0-.11-.109c-.02 0-.04.01-.08.05-.089.08-.199.11-.368.11-.22 0-.368-.19-.358-.469l.05-2.39c.01-.508-.34-.887-.817-.887-.399 0-1.037.299-1.485.707-.249.22-.398.479-.398.688 0 .05.04.09.11.09.199 0 .657-.25.657-.35l-.01-.179c0-.12.02-.229.1-.289.13-.11.348-.179.548-.179.378 0 .597.29.587.638l-.02.637c-.01.27-.02.29-.279.399l-1.016.418c-.488.2-.707.408-.707.827 0 .368.438.856.797.856zm.468-.479c-.239 0-.488-.18-.488-.528 0-.229.23-.508.936-.767.11-.04.17-.05.2-.05.08 0 .1.06.09.21l-.02.488c-.01.249-.06.339-.13.408a.779.779 0 0 1-.588.24zm5.987.528c.06 0 .16-.04.2-.06.288-.119.647-.268 1.165-.338.08-.01.14-.03.14-.14 0-.12-.08-.13-.15-.13-.1 0-.359.03-.458.03-.1 0-.18-.139-.18-.497v-2.301c0-.16.05-.618.07-.688.01-.04.02-.07.02-.09 0-.069-.06-.109-.13-.109-.03 0-.07.01-.1.02-.358.1-.617.15-1.224.16-.11 0-.21.03-.21.149 0 .14.09.17.21.17.199 0 .667.089.667.497v1.823c0 .408-.299.638-.448.747-.25.19-.498.2-.837.2-.428 0-.837-.429-.837-.907v-1.942c0-.3.02-.459.06-.767.01-.11-.04-.14-.1-.14-.03 0-.04 0-.08.01-.368.09-.537.13-.985.16-.08.01-.15.04-.15.159 0 .11.06.14.13.16.299.119.428.278.428.567v2.022c0 .777.488 1.185 1.136 1.185.617 0 1.125-.199 1.643-.707v.06c0 .17-.05.488-.05.618 0 .05.02.08.07.08zm5.16 0c.04 0 .05 0 .16-.06.468-.199.797-.288 1.166-.338.07 0 .139-.09.139-.18 0-.08-.05-.1-.18-.09-.168.02-.358.03-.427.03-.15 0-.21-.188-.21-.647v-4.502c0-.897.07-1.235.07-1.355-.01-.04-.03-.06-.07-.06a.39.39 0 0 0-.13.03c-.188.08-.487.22-1.075.369-.06.02-.08.07-.08.12 0 .059.03.119.09.129.319.06.498.19.498.727v1.415c0 .179-.04.239-.07.239-.03 0-.07-.01-.13-.03a2.59 2.59 0 0 0-.716-.11c-1.395 0-2.242 1.076-2.242 2.232 0 1.005.708 2.031 1.843 2.031.658 0 1.106-.398 1.305-.707v.06c0 .17-.05.468-.05.598 0 .03.08.1.11.1zm-1.005-.567c-.439 0-1.494-.24-1.494-1.744 0-1.325.767-1.653 1.225-1.653.737 0 1.225.578 1.225 1.115l-.01 1.793c-.249.29-.598.489-.946.489zm4.613.527c.527 0 1.036-.229 1.334-.617.12-.15.18-.29.18-.419 0-.06-.03-.1-.08-.1-.04 0-.06.01-.11.08-.249.29-.578.449-.976.449-.847 0-1.534-.777-1.534-1.734 0-.288.06-.368.249-.368h2.102c.209 0 .299-.1.299-.309 0-.737-.568-1.255-1.365-1.255-1.046 0-1.923.956-1.923 2.102 0 1.305.728 2.171 1.824 2.171zm-.917-3.018c-.08 0-.12-.03-.12-.1 0-.398.528-.866.987-.866.468 0 .856.319.856.697 0 .14-.02.21-.08.22-.219.04-.418.05-.736.05h-.907zM140.352-51.268c1.265 0 2.171-.637 2.37-.667.14-.02.14-.14.14-.19 0-.049-.09-.099-.13-.169-.03-.06-.06-.09-.06-.159v-.269c0-.249.01-.458.05-.747.04-.269.13-.408.42-.488.049-.01.208-.09.208-.18 0-.129-.16-.159-.209-.159-.359 0-.538.04-.886.04-.549 0-.768-.04-1.256-.04-.05 0-.199.07-.199.17s.15.169.2.169c.199 0 .806.09.976.309.04.05.05.16.05.299 0 .179-.02.408-.02.577 0 .35-.15.618-.3.767-.119.12-.448.369-1.215.369-1.325 0-2.61-1.106-2.61-2.998 0-1.574 1.046-2.999 2.59-2.999.947 0 1.455.369 1.584.528.16.19.23.319.309.528.04.12.09.27.229.27.08 0 .15-.1.15-.2 0-.26-.05-.667-.1-1.056-.01-.07-.03-.09-.09-.12-.269-.129-1.534-.328-1.992-.328-1.982 0-3.666 1.534-3.666 3.506 0 1.843 1.614 3.237 3.457 3.237zm4.523 0c.429 0 .807-.159 1.245-.517h.03c.18.348.418.517.728.517.209 0 .478-.139.687-.348.06-.06.11-.16.11-.22a.11.11 0 0 0-.11-.109c-.02 0-.04.01-.08.05-.09.08-.2.11-.368.11-.22 0-.37-.19-.36-.469l.05-2.39c.01-.508-.338-.887-.816-.887-.398 0-1.036.299-1.484.707-.25.22-.399.479-.399.688 0 .05.04.09.11.09.199 0 .657-.25.657-.35l-.01-.179c0-.12.02-.229.1-.289.13-.11.349-.179.548-.179.378 0 .597.29.587.638l-.02.637c-.01.27-.02.29-.278.399l-1.016.418c-.488.2-.708.408-.708.827 0 .368.439.856.797.856zm.469-.478c-.24 0-.489-.18-.489-.528 0-.229.23-.508.937-.767.11-.04.169-.05.199-.05.08 0 .1.06.09.21l-.02.488c-.01.249-.06.339-.13.408a.778.778 0 0 1-.588.24zm2.829.369c.398 0 .458-.05.807-.05.349 0 .468.05.866.05.14 0 .2-.03.2-.11 0-.09-.09-.12-.23-.159-.328-.1-.528-.2-.528-.378v-2.013c0-.667.369-.837.688-.837.1 0 .21.05.318.09.1.05.2.09.28.09.199 0 .388-.319.388-.518 0-.18-.2-.319-.478-.319-.389 0-.827.289-1.146.677-.01 0-.02-.01-.02-.02.02-.318.03-.677.03-.747 0-.04-.02-.07-.05-.07-.03 0-.07.02-.149.07-.21.13-.637.379-.986.488-.04.01-.09.06-.09.12s.05.12.1.13c.329.07.408.358.408.717v2.142c0 .189-.13.318-.378.378-.15.04-.23.06-.23.16 0 .079.06.109.2.109zm4.005.11c.428 0 .806-.16 1.245-.518h.03c.179.348.418.517.727.517.21 0 .478-.139.687-.348.06-.06.11-.16.11-.22a.11.11 0 0 0-.11-.109c-.02 0-.04.01-.08.05-.09.08-.199.11-.368.11-.22 0-.369-.19-.359-.469l.05-2.39c.01-.508-.338-.887-.817-.887-.398 0-1.036.299-1.484.707-.249.22-.398.479-.398.688 0 .05.04.09.11.09.198 0 .657-.25.657-.35l-.01-.179c0-.12.02-.229.1-.289.129-.11.348-.179.547-.179.379 0 .598.29.588.638l-.02.637c-.01.27-.02.29-.279.399l-1.016.418c-.488.2-.707.408-.707.827 0 .368.438.856.797.856zm.468-.479c-.24 0-.488-.18-.488-.528 0-.229.229-.508.936-.767.11-.04.17-.05.2-.05.08 0 .099.06.089.21l-.02.488c-.01.249-.06.339-.13.408a.778.778 0 0 1-.587.24zm2.78.369c.398 0 .458-.05.806-.05.349 0 .409.05.807.05.12 0 .2-.03.2-.11 0-.1-.12-.12-.23-.159-.199-.06-.428-.11-.428-.378v-2.053c0-.338.08-.577.27-.717.248-.199.527-.269.866-.269.428 0 .796.469.796.947v2.092c0 .268-.239.318-.438.378-.11.04-.229.06-.229.16 0 .079.09.109.2.109.398 0 .478-.05.826-.05.349 0 .418.05.817.05.13 0 .2-.03.2-.11 0-.09-.1-.129-.23-.159-.2-.05-.448-.11-.448-.378v-2.053c0-.348.1-.577.279-.717.249-.199.528-.269.866-.269.429 0 .797.469.797.947v2.092c0 .268-.219.328-.428.378-.13.03-.23.06-.23.16 0 .079.08.109.2.109.399 0 .478-.05.827-.05.348 0 .388.05.787.05.15 0 .199-.03.199-.11 0-.09-.1-.12-.23-.159-.198-.06-.428-.11-.428-.378v-2.122c0-.698-.348-1.385-.996-1.385-.647 0-1.195.309-1.623.687h-.03c-.21-.508-.518-.687-.996-.687-.767 0-1.255.379-1.554.667h-.02c-.01-.01-.02-.06-.02-.119 0-.19.05-.548.05-.638 0-.04-.03-.07-.06-.07-.04 0-.07.03-.09.04-.358.23-.478.389-1.016.518-.05.01-.08.04-.08.12s.03.12.09.13c.339.06.379.358.379.717v2.142c0 .268-.24.318-.429.378-.129.04-.229.07-.229.16 0 .089.09.109.2.109zm9.643.11c1.494 0 2.251-1.096 2.251-2.262 0-1.075-.896-2.002-2.052-2.002-1.225 0-2.181 1.156-2.181 2.261 0 1.166.866 2.002 1.982 2.002zm.21-.3c-.798 0-1.376-.946-1.376-1.932 0-.478.05-.986.32-1.325.239-.309.517-.398.876-.398.847 0 1.404.986 1.404 1.932 0 .389-.04.867-.199 1.176-.199.388-.577.548-1.026.548zm2.829.19c.398 0 .458-.05.807-.05.348 0 .408.05.806.05.13 0 .2-.03.2-.11s-.07-.12-.23-.159c-.199-.05-.428-.11-.428-.378v-2.401c0-.08.03-.18.08-.23.28-.229.627-.398 1.106-.398.538.01.896.359.896.937v2.092c0 .268-.229.318-.428.378-.11.04-.23.08-.23.18 0 .079.13.089.2.089.399 0 .468-.05.817-.05.348 0 .398.05.797.05.08 0 .199-.01.199-.09 0-.1-.12-.14-.23-.179-.198-.06-.427-.11-.427-.378v-2.122c0-.777-.479-1.385-1.126-1.385-.628 0-1.136.22-1.604.667-.01-.01-.02-.06-.02-.119 0-.19.05-.548.05-.638 0-.04-.02-.07-.05-.07-.04 0-.07.02-.11.05-.278.21-.537.389-.995.508-.06.01-.09.05-.09.12 0 .08.04.11.1.13.338.09.368.358.368.717v2.142c0 .268-.229.328-.428.378-.15.04-.23.06-.23.16 0 .079.08.109.2.109zm8.378.16c.04 0 .05 0 .16-.06.468-.2.796-.29 1.165-.339.07 0 .14-.09.14-.18 0-.08-.05-.1-.18-.09-.17.02-.359.03-.428.03-.15 0-.21-.188-.21-.647v-4.502c0-.897.07-1.235.07-1.355-.01-.04-.03-.06-.07-.06a.39.39 0 0 0-.13.03c-.188.08-.487.22-1.075.369-.06.02-.08.07-.08.12 0 .059.03.119.09.129.319.06.498.19.498.727v1.415c0 .179-.04.239-.07.239-.03 0-.07-.01-.129-.03-.15-.05-.448-.11-.717-.11-1.395 0-2.241 1.076-2.241 2.232 0 1.005.707 2.031 1.842 2.031.658 0 1.106-.398 1.305-.707v.06c0 .17-.05.468-.05.598 0 .03.08.1.11.1zm-1.006-.568c-.438 0-1.494-.24-1.494-1.744 0-1.325.767-1.653 1.225-1.653.737 0 1.225.578 1.225 1.115l-.01 1.793c-.249.29-.597.489-.946.489zM181.183-56.547c.288 0 .507-.22.507-.498a.498.498 0 0 0-.507-.508.495.495 0 0 0-.498.508c0 .279.219.498.498.498zm-.797 5.17c.388 0 .458-.05.806-.05.35 0 .429.05.807.05.13 0 .2-.03.2-.11 0-.1-.12-.129-.23-.159-.268-.07-.428-.15-.428-.378v-2.312c0-.448.09-1.185.09-1.344 0-.03-.02-.05-.06-.05-.04 0-.09.03-.14.07a2.53 2.53 0 0 1-1.045.498c-.06.01-.09.05-.09.12 0 .079.03.119.1.129.338.05.448.368.448.727v2.162c0 .239-.15.308-.428.378-.11.03-.23.06-.23.16 0 .079.08.109.2.109zm2.44 0c.399 0 .459-.05.807-.05.349 0 .409.05.807.05.13 0 .2-.03.2-.11s-.07-.12-.23-.159c-.2-.05-.428-.11-.428-.378v-2.401c0-.08.03-.18.08-.23.279-.229.627-.398 1.105-.398.538.01.897.359.897.937v2.092c0 .268-.23.318-.428.378-.11.04-.23.08-.23.18 0 .079.13.089.2.089.398 0 .468-.05.817-.05.348 0 .398.05.796.05.08 0 .2-.01.2-.09 0-.1-.12-.14-.23-.179-.199-.06-.428-.11-.428-.378v-2.122c0-.777-.478-1.385-1.125-1.385-.628 0-1.136.22-1.604.667-.01-.01-.02-.06-.02-.119 0-.19.05-.548.05-.638 0-.04-.02-.07-.05-.07-.04 0-.07.02-.11.05-.279.21-.538.389-.996.508-.06.01-.09.05-.09.12 0 .08.04.11.1.13.339.09.369.358.369.717v2.142c0 .268-.23.328-.429.378-.15.04-.229.06-.229.16 0 .079.08.109.2.109zM190.163-51.357c.538 0 .787-.07 1.295-.07.379 0 .438.07.976.07.17 0 .29-.03.29-.11 0-.09-.1-.14-.33-.179-.498-.09-.667-.388-.667-.867v-4.751c0-.299.26-.419.637-.419.967 0 1.664.509 1.664 1.564 0 1.176-.409 1.873-1.205 1.873-.27 0-.399-.02-.459-.02-.07 0-.159.09-.159.14 0 .08.16.189.448.189 1.524 0 2.232-1.026 2.232-2.251 0-1.116-1.006-1.773-2.52-1.773-.28 0-.708.06-1.106.06-.408 0-.438-.01-.976-.01-.17 0-.29.03-.29.109 0 .09.1.16.33.2.498.089.607.398.607.995v4.204c0 .488-.229.667-.727.757-.23.04-.329.09-.329.18 0 .079.12.109.289.109zM195.808-51.268c.429 0 .807-.159 1.246-.517h.03c.179.348.418.517.727.517.209 0 .478-.139.687-.348.06-.06.11-.16.11-.22a.11.11 0 0 0-.11-.109c-.02 0-.04.01-.08.05-.09.08-.199.11-.368.11-.22 0-.369-.19-.359-.469l.05-2.39c.01-.508-.339-.887-.817-.887-.398 0-1.036.299-1.484.707-.25.22-.398.479-.398.688 0 .05.04.09.11.09.198 0 .656-.25.656-.35l-.01-.179c0-.12.02-.229.1-.289.13-.11.349-.179.548-.179.379 0 .598.29.588.638l-.02.637c-.01.27-.02.29-.279.399l-1.016.418c-.488.2-.707.408-.707.827 0 .368.438.856.796.856zm.469-.478c-.24 0-.488-.18-.488-.528 0-.229.229-.508.936-.767.11-.04.17-.05.2-.05.08 0 .099.06.089.21l-.02.488c-.01.249-.06.339-.13.408a.779.779 0 0 1-.587.24zm2.83.369c.398 0 .457-.05.806-.05.349 0 .468.05.867.05.14 0 .2-.03.2-.11 0-.09-.09-.12-.23-.159-.329-.1-.528-.2-.528-.378v-2.013c0-.667.368-.837.687-.837.1 0 .21.05.319.09.1.05.2.09.279.09.2 0 .388-.319.388-.518 0-.18-.199-.319-.478-.319-.388 0-.827.289-1.145.677-.01 0-.02-.01-.02-.02.02-.318.03-.677.03-.747 0-.04-.02-.07-.05-.07-.03 0-.07.02-.15.07-.209.13-.637.379-.986.488-.04.01-.09.06-.09.12s.05.12.1.13c.329.07.409.358.409.717v2.142c0 .189-.13.318-.379.378-.15.04-.23.06-.23.16 0 .079.06.109.2.109zm4.074-5.17c.289 0 .508-.22.508-.498a.498.498 0 0 0-.508-.508.495.495 0 0 0-.498.508c0 .279.219.498.498.498zm-.797 5.17c.389 0 .458-.05.807-.05.348 0 .428.05.806.05.13 0 .2-.03.2-.11 0-.1-.12-.129-.23-.159-.268-.07-.428-.15-.428-.378v-2.312c0-.448.09-1.185.09-1.344 0-.03-.02-.05-.06-.05-.04 0-.09.03-.139.07a2.53 2.53 0 0 1-1.046.498c-.06.01-.09.05-.09.12 0 .079.03.119.1.129.338.05.448.368.448.727v2.162c0 .239-.15.308-.428.378-.11.03-.23.06-.23.16 0 .079.08.109.2.109zm3.437.11c.866 0 1.464-.499 1.464-1.216 0-.617-.378-.926-1.145-1.365-.538-.308-.688-.507-.688-.816 0-.379.31-.588.638-.588.378 0 .627.24.807.677.019.05.109.09.189.09.05 0 .099-.02.099-.07 0-.279-.089-.637-.189-.787-.129-.09-.398-.19-.797-.19-.896 0-1.345.51-1.345 1.147 0 .498.27.816.947 1.235.598.368.807.578.807.936 0 .389-.31.678-.697.678-.389 0-.817-.25-.987-.907-.01-.05-.07-.07-.12-.07-.069 0-.129.03-.129.09.01.23.04.657.11.797.249.229.627.358 1.036.358zM10.68-41.105a1.76 1.76 0 0 0-.479-1.186c-.408-.399-.677-.468-1.454-.648l-.807-.179c-.418-.12-.797-.468-.797-.936 0-.508.488-.986 1.196-.986 1.175 0 1.325.936 1.384 1.245.03.219.14.279.339.279.349 0 .349-.21.349-.409v-1.315c0-.159 0-.408-.3-.408-.238 0-.288.17-.368.468-.408-.348-.946-.468-1.394-.468-1.106 0-1.853.787-1.853 1.634 0 .667.458 1.324 1.285 1.564l1.145.269c.28.06 1.106.259 1.106 1.125 0 .518-.428 1.106-1.215 1.106-.279 0-.767-.04-1.166-.309-.418-.269-.458-.687-.468-.866-.01-.17-.02-.35-.338-.35-.349 0-.349.21-.349.41v1.314c0 .16 0 .409.299.409.219 0 .279-.14.368-.459.399.3 1.007.459 1.644.459 1.155 0 1.873-.877 1.873-1.763zm5.668 1.354c0-.309-.209-.309-.568-.309v-2.41c0-.2 0-1.335-.886-1.335-.299 0-.707.13-.986.518-.15-.339-.428-.518-.757-.518-.319 0-.618.14-.857.359-.02-.3-.22-.3-.399-.3h-.318c-.15 0-.409 0-.409.3 0 .308.21.308.568.308v3.078c-.358 0-.568 0-.568.31 0 .298.27.298.409.298h.876c.15 0 .409 0 .409-.299 0-.309-.21-.309-.568-.309v-1.783c0-.886.408-1.354.817-1.354.229 0 .369.169.369.816v2.321c-.19 0-.439 0-.439.31 0 .298.27.298.409.298h.747c.15 0 .408 0 .408-.299 0-.309-.21-.309-.568-.309v-1.783c0-.886.409-1.354.817-1.354.23 0 .369.169.369.816v2.321c-.19 0-.439 0-.439.31 0 .298.27.298.409.298h.747c.15 0 .408 0 .408-.299zm5.26-.01c0-.299-.248-.299-.398-.299-.418 0-.518-.05-.598-.08v-2.151c0-.707-.537-1.544-1.972-1.544-.428 0-1.444 0-1.444.727a.43.43 0 0 0 .448.458c.15 0 .428-.09.438-.458 0-.08.01-.09.21-.11.139-.01.268-.01.358-.01.757 0 1.275.31 1.275 1.017-1.763.03-2.988.528-2.988 1.484 0 .687.627 1.335 1.643 1.335.369 0 .986-.07 1.455-.379.219.309.697.319 1.075.319.28 0 .499 0 .499-.309zm-1.683-1.026c0 .23 0 .438-.389.618-.358.17-.806.17-.886.17-.618 0-1.026-.34-1.026-.728 0-.488.857-.857 2.301-.897v.837zm6.396 1.036c0-.309-.24-.309-.399-.309h-1.295v-5.07c0-.309-.06-.408-.398-.408h-1.574c-.16 0-.408 0-.408.308 0 .3.259.3.398.3h1.295v4.87h-1.285c-.16 0-.408 0-.408.31 0 .298.259.298.398.298h3.277c.15 0 .399 0 .399-.299zm5.23 0c0-.309-.239-.309-.398-.309h-1.295v-5.07c0-.309-.06-.408-.399-.408h-1.573c-.16 0-.409 0-.409.308 0 .3.26.3.398.3h1.296v4.87h-1.285c-.16 0-.409 0-.409.31 0 .298.26.298.398.298h3.278c.149 0 .398 0 .398-.299zM42.153-41.125c0-.33-.24-.33-.35-.33-.089 0-.318 0-.338.29-.07.976-.877 1.215-1.285 1.215-.906 0-1.763-1.056-1.763-2.55 0-1.485.867-2.54 1.753-2.54.598 0 1.146.458 1.285 1.265.03.17.05.329.349.329.349 0 .349-.21.349-.409v-1.385c0-.159 0-.408-.3-.408-.179 0-.228.1-.278.17-.02.04-.02.06-.15.308a2.02 2.02 0 0 0-1.295-.478c-1.285 0-2.4 1.335-2.4 3.148 0 1.823 1.115 3.158 2.41 3.158 1.156 0 2.013-.887 2.013-1.783zm5.579 1.364c0-.299-.25-.299-.399-.299-.418 0-.518-.05-.598-.08v-2.151c0-.707-.538-1.544-1.972-1.544-.428 0-1.444 0-1.444.727a.43.43 0 0 0 .448.458c.15 0 .428-.09.438-.458 0-.08.01-.09.21-.11.139-.01.268-.01.358-.01.757 0 1.275.31 1.275 1.017-1.763.03-2.988.528-2.988 1.484 0 .687.627 1.335 1.643 1.335.369 0 .986-.07 1.454-.379.22.309.698.319 1.076.319.28 0 .499 0 .499-.309zm-1.684-1.026c0 .23 0 .438-.389.618-.358.17-.806.17-.886.17-.618 0-1.026-.34-1.026-.728 0-.488.857-.857 2.301-.897v.837zm6.605-.817c0-1.225-.887-2.201-1.942-2.201-.478 0-.927.18-1.266.488 0-.289-.02-.428-.398-.428h-.727c-.16 0-.408 0-.408.309 0 .298.258.298.398.298h.448v5.29h-.438c-.16 0-.408 0-.408.308 0 .3.258.3.398.3h1.584c.14 0 .398 0 .398-.3 0-.308-.249-.308-.408-.308h-.439V-39.9c.409.418.837.508 1.156.508 1.086 0 2.052-.947 2.052-2.212zm-.687 0c0 .957-.698 1.604-1.395 1.604-.777 0-1.126-.876-1.126-1.355v-.727c0-.588.578-1.115 1.206-1.115.737 0 1.315.727 1.315 1.593zm5.628.907c0-1.036-1.285-1.245-1.603-1.295l-.678-.12c-.289-.04-.966-.16-.966-.548 0-.259.319-.567 1.265-.567.827 0 .966.298.996.557.01.17.03.34.339.34.349 0 .349-.21.349-.41v-.686c0-.16 0-.409-.3-.409-.239 0-.278.14-.298.21-.438-.21-.877-.21-1.066-.21-1.664 0-1.893.817-1.893 1.175 0 .917 1.046 1.086 1.963 1.226.488.08 1.285.209 1.285.737 0 .368-.369.697-1.275.697-.469 0-1.026-.11-1.275-.886-.05-.18-.09-.29-.349-.29-.349 0-.349.21-.349.409v.966c0 .16 0 .409.3.409.089 0 .248-.01.368-.379.488.359 1.016.379 1.295.379 1.574 0 1.892-.827 1.892-1.305zM110.903-39.303c.648 0 1.395-.09 1.883-.288.209-.07.219-.08.319-.27.12-.288.269-.806.269-.966 0-.209-.25-.199-.34-.03-.438.787-1.025 1.246-1.981 1.246-1.654 0-2.74-1.674-2.74-3.298 0-1.464 1.116-2.839 2.67-2.839.548 0 1.036.12 1.364.34.35.238.489.597.618 1.105.06.23.349.14.339-.01-.02-.518-.06-.837-.09-1.146-.02-.179-.09-.289-.289-.338-.677-.17-1.006-.26-1.773-.26-2.042 0-3.845 1.455-3.845 3.387 0 2.033 1.734 3.367 3.596 3.367zm3.518-.119c.388 0 .617-.05.976-.06.687 0 1.534.05 2.52.05.07 0 .16-.06.17-.12.059-.219.248-.737.248-.956 0-.06-.01-.16-.1-.16-.09 0-.159.11-.179.15-.239.488-.448.727-.856.727h-.977c-.298 0-.358-.09-.358-.438v-2.73c0-.408.16-.627.578-.697.12-.02.239-.09.239-.189 0-.08-.13-.12-.2-.12-.388 0-.637.05-.986.05-.358 0-.607-.05-.996-.05-.07 0-.2.04-.2.12 0 .1.12.17.24.19.418.07.578.288.578.697v2.72c0 .358-.309.467-.658.537-.11.02-.239.06-.239.16 0 .079.13.119.2.119zm7.421 0c.389 0 .578-.05.927-.05.348 0 .488.05.876.05.07 0 .2-.04.2-.12 0-.1-.12-.16-.23-.18-.398-.079-.557-.457-.687-.796l-1.345-3.457c-.02-.06-.03-.09-.07-.09-.03 0-.08.03-.159.12-.06.07-.299.32-.388.409-.03.03.02.17-.12.498l-1.156 2.67c-.239.557-.497.587-.806.657-.11.03-.23.07-.23.17 0 .079.13.119.2.119.388 0 .408-.05.757-.05.338 0 .408.05.797.05.07 0 .199-.04.199-.12 0-.1-.12-.14-.229-.18-.2-.069-.368-.118-.368-.378 0-.159.04-.269.199-.617.04-.09.08-.12.159-.12h1.494c.14 0 .17.01.19.07l.169.538c.1.319.01.409-.349.508-.11.03-.229.08-.229.18 0 .079.13.119.2.119zm-1.265-1.773c-.12 0-.169-.01-.13-.1.2-.488.489-1.155.658-1.574.06-.15.08-.15.14 0 .12.31.537 1.305.607 1.574.03.1.02.1-.08.1h-1.195zm6.426 1.882c1.444 0 1.962-1.215 1.962-2.44v-1.225c0-.339.08-.608.498-.678.12-.02.24-.09.24-.189 0-.08-.13-.12-.2-.12-.388 0-.428.05-.777.05-.358 0-.328-.05-.717-.05-.07 0-.2.04-.2.12 0 .1.12.17.24.19.418.07.478.288.478.697v1.524c0 1.225-.608 1.673-1.315 1.673-.916 0-1.345-.568-1.345-1.773v-1.424c0-.399.09-.628.508-.698.12-.02.24-.09.24-.189 0-.08-.13-.12-.2-.12-.388 0-.558.05-.906.05-.359 0-.598-.05-.986-.05-.07 0-.2.04-.2.12 0 .1.12.17.24.19.418.07.557.298.557.697v1.593c0 1.226.498 2.052 1.883 2.052zm3.497-.109c.388 0 .618-.05.976-.06.339 0 .847.06.986.06 1.574 0 2.939-.907 2.949-2.381.01-1.683-1.096-2.162-2.929-2.162-.18 0-.717.06-.976.05-.348 0-.538-.05-.926-.05-.07 0-.2.04-.2.12 0 .1.12.17.24.19.418.07.577.288.577.697v2.72c0 .358-.309.467-.657.537-.11.02-.24.06-.24.16 0 .079.13.119.2.119zm2.201-.28c-.408 0-.757-.258-.757-.627v-2.968c0-.28.3-.388.568-.388 1.255 0 2.002.687 2.002 1.992 0 1.026-.687 1.992-1.813 1.992zm3.806.28c.389 0 .618-.05.977-.06.687 0 1.534.05 2.52.05.07 0 .16-.06.17-.12.059-.219.138-.568.168-.836 0-.06-.01-.16-.1-.16-.089 0-.119.11-.139.15-.129.288-.418.578-.826.578h-.996c-.3 0-.33-.05-.33-.409v-1.136c0-.189.06-.179.25-.179.209 0 .498 0 .697.02.11.02.26.07.319.279.02.04.06.239.18.239.059 0 .109-.11.099-.17-.01-.189-.04-.368-.04-.547 0-.15.02-.389.03-.548.01-.06-.04-.15-.12-.15-.07 0-.13.1-.15.17-.079.239-.159.388-.368.388h-.787c-.06 0-.11-.169-.11-.239v-1.324c0-.13.17-.18.25-.18h.966c.349 0 .458.26.598.588.05.12.139.18.19.18.039 0 .079-.09.079-.13 0-.13-.08-.409-.1-.917 0-.05-.08-.06-.12-.06-.458 0-1.424.03-2.3.03-.349 0-.538-.05-.927-.05-.07 0-.2.04-.2.12 0 .1.12.17.24.19.418.07.578.288.578.697v2.72c0 .358-.31.467-.658.537-.11.02-.239.06-.239.16 0 .079.13.119.2.119zM146.676-39.313c1.265 0 2.172-.637 2.37-.667.14-.02.14-.14.14-.19 0-.049-.09-.099-.13-.169-.03-.06-.06-.09-.06-.159v-.269c0-.25.01-.458.05-.747.04-.269.13-.408.42-.488.049-.01.208-.09.208-.18 0-.129-.159-.159-.209-.159-.358 0-.538.04-.886.04-.548 0-.767-.04-1.256-.04-.05 0-.199.07-.199.17s.15.169.2.169c.199 0 .806.09.976.309.04.05.05.16.05.298 0 .18-.02.409-.02.578 0 .349-.15.618-.3.767-.119.12-.447.369-1.214.369-1.325 0-2.61-1.106-2.61-2.999 0-1.573 1.046-2.998 2.59-2.998.946 0 1.454.369 1.583.528.16.19.23.319.31.528.04.12.089.269.228.269.08 0 .15-.1.15-.199 0-.26-.05-.668-.1-1.056-.01-.07-.03-.09-.09-.12-.269-.129-1.534-.328-1.992-.328-1.982 0-3.666 1.534-3.666 3.506 0 1.843 1.614 3.237 3.457 3.237zm6.596-.109c.388 0 .577-.05.926-.05.349 0 .488.05.876.05.07 0 .2-.04.2-.12 0-.1-.12-.16-.23-.18-.398-.079-.557-.457-.687-.796l-1.345-3.457c-.02-.06-.03-.09-.07-.09-.03 0-.079.03-.159.12-.06.07-.299.32-.388.409-.03.03.02.17-.12.498l-1.155 2.67c-.24.557-.498.587-.807.657-.11.03-.23.07-.23.17 0 .079.13.119.2.119.389 0 .409-.05.757-.05.339 0 .408.05.797.05.07 0 .2-.04.2-.12 0-.1-.12-.14-.23-.18-.2-.069-.368-.118-.368-.378 0-.159.04-.269.199-.617.04-.09.08-.12.16-.12h1.493c.14 0 .17.01.19.07l.169.538c.1.319.01.409-.349.508-.11.03-.229.08-.229.18 0 .079.13.119.2.119zm-1.266-1.773c-.12 0-.169-.01-.13-.1.2-.488.489-1.155.658-1.574.06-.15.08-.15.14 0 .12.31.537 1.305.607 1.574.03.1.02.1-.08.1h-1.195zm8.13 1.882c.308 0 .736-.08.736-.199 0-.11-.109-.13-.179-.14-.16-.02-.677-.238-.896-.487-.309-.359-.697-1.016-.897-1.524-.02-.04.01-.08.07-.1.369-.12.827-.488.817-1.076 0-.876-.817-1.126-1.684-1.126-.408 0-.866.05-1.145.05-.349 0-.538-.05-.927-.05-.07 0-.199.04-.199.12 0 .1.12.17.24.19.417.07.577.288.577.697v2.72c0 .358-.309.467-.658.537-.109.02-.239.06-.239.16 0 .079.13.119.2.119.388 0 .657-.06 1.075-.06.36 0 .519.04.907.04.07 0 .2-.04.2-.12 0-.1-.13-.14-.24-.16-.349-.069-.498-.158-.498-.517v-1.076c0-.09.13-.16.2-.16.298 0 .587.14.667.29.219.428.677 1.135.876 1.374.26.31.598.498.996.498zm-2.49-2.44c-.16 0-.25-.01-.25-.249v-1.395c0-.229.08-.278.339-.278.607 0 1.255.308 1.255.936.01.727-.588.986-1.345.986zm6.425 2.331c.388 0 .577-.05.926-.05.349 0 .488.05.877.05.07 0 .199-.04.199-.12 0-.1-.12-.16-.229-.18-.398-.079-.558-.457-.688-.796l-1.344-3.457c-.02-.06-.03-.09-.07-.09-.03 0-.08.03-.16.12-.06.07-.298.32-.388.409-.03.03.02.17-.12.498l-1.155 2.67c-.24.557-.498.587-.807.657-.11.03-.229.07-.229.17 0 .079.13.119.2.119.388 0 .408-.05.756-.05.339 0 .409.05.798.05.07 0 .198-.04.198-.12 0-.1-.119-.14-.228-.18-.2-.069-.369-.118-.369-.378 0-.159.04-.269.2-.617.04-.09.079-.12.159-.12h1.493c.14 0 .17.01.19.07l.17.538c.099.319.01.409-.35.508-.109.03-.228.08-.228.18 0 .079.13.119.199.119zm-1.266-1.773c-.119 0-.168-.01-.129-.1.2-.488.488-1.155.658-1.574.06-.15.08-.15.139 0 .12.31.538 1.305.608 1.574.03.1.02.1-.08.1h-1.196zm6.745 1.912c.06 0 .12-.05.17-.159l1.414-3.228c.06-.129.13-.159.14 0 .03.937.03 1.594.03 2.52 0 .28-.12.38-.469.449-.11.02-.239.06-.239.16 0 .079.13.119.2.119.388 0 .607-.06.995-.06.36 0 .519.06.907.06.07 0 .199-.04.199-.12 0-.1-.13-.14-.239-.16-.348-.069-.548-.168-.568-.477a53.529 53.529 0 0 1-.08-3.138c0-.26.16-.269.578-.339.12-.02.24-.09.24-.189 0-.08-.13-.12-.2-.12-.23 0-.577.05-.926.05l-.379.01c-.05 0-.16.349-.249.578a93.116 93.116 0 0 1-1.195 2.839c-.06.13-.1.11-.16-.02l-1.474-3.427c-.01-.02-.05-.02-.12-.02-.139 0-.129.02-.428.02-.358 0-.298-.03-.687-.03-.07 0-.2.04-.2.12 0 .1.12.17.24.19.418.07.598.139.598.348 0 .299-.23 2.132-.39 3.068-.039.22-.168.468-.517.538-.11.02-.239.06-.239.16 0 .079.13.119.2.119.388 0 .438-.06.726-.06.26 0 .28.06.668.06.07 0 .2-.04.2-.12 0-.1-.13-.14-.24-.16-.349-.069-.359-.358-.359-.537.05-.936.12-1.922.17-2.48.01-.1.05-.09.09 0 .557 1.265.906 2.231 1.394 3.257.05.11.12.18.2.18zm6.755-.03c1.633 0 2.53-1.165 2.53-2.39 0-1.335-1.225-2.311-2.53-2.311-1.265 0-2.41 1.155-2.41 2.35 0 1.286 1.085 2.351 2.41 2.351zm.16-.358c-1.117 0-1.674-.976-1.674-2.142 0-.946.518-1.882 1.454-1.882 1.036 0 1.693 1.075 1.693 2.081 0 .787-.328 1.943-1.474 1.943zm7.84.358c.109 0 .159-.149.159-.348v-3.287c0-.399.09-.638.508-.708.12-.02.239-.09.239-.189 0-.08-.13-.12-.2-.12-.388 0-.408.05-.756.05-.36 0-.468-.05-.857-.05-.07 0-.2.04-.2.12 0 .1.12.17.24.19.418.07.568.308.578.707l.04 2.072c0 .1-.03.129-.05.129-.04 0-.1-.09-.13-.13l-2.42-2.898c-.06-.07-.13-.15-.21-.15-.518 0-.916-.04-1.314-.04-.07 0-.2.04-.2.12 0 .1.12.17.24.19.338.06.736.418.736.587 0 .648-.04 2.53-.07 2.83-.03.368-.228.467-.577.537-.11.02-.24.06-.24.16 0 .079.13.119.2.119.389 0 .528-.06.867-.06.319 0 .418.06.807.06.07 0 .199-.04.199-.12 0-.1-.13-.14-.24-.16-.348-.069-.477-.178-.507-.537-.04-.558-.05-1.405-.05-2.301 0-.19.02-.269.07-.269.04 0 .159.08.249.19l2.46 3.038c.13.159.299.268.428.268zm1.654-.109c.388 0 .617-.05.976-.06.339 0 .847.06.986.06 1.574 0 2.939-.907 2.949-2.381.01-1.683-1.096-2.162-2.929-2.162-.18 0-.717.06-.976.05-.349 0-.538-.05-.926-.05-.07 0-.2.04-.2.12 0 .1.12.17.24.19.418.07.577.288.577.697v2.72c0 .358-.309.467-.657.537-.11.02-.24.06-.24.16 0 .079.13.119.2.119zm2.201-.28c-.408 0-.757-.258-.757-.627v-2.968c0-.28.299-.388.568-.388 1.255 0 2.002.687 2.002 1.992 0 1.026-.687 1.992-1.813 1.992zM193.95-39.422c.388 0 .657-.06 1.075-.06.418 0 .677.06 1.066.06.07 0 .2-.04.2-.12 0-.1-.13-.14-.24-.16-.349-.069-.657-.178-.657-.537v-2.72c0-.408.16-.627.578-.697.119-.02.239-.09.239-.189 0-.08-.13-.12-.2-.12-.388 0-.637.05-.986.05-.358 0-.608-.05-.996-.05-.07 0-.2.04-.2.12 0 .1.12.17.24.19.418.07.578.288.578.697v2.72c0 .358-.31.467-.658.537-.11.02-.239.06-.239.16 0 .079.13.119.2.119zm7.51.11c.11 0 .16-.15.16-.35v-3.286c0-.399.09-.638.508-.708.12-.02.239-.09.239-.189 0-.08-.13-.12-.2-.12-.388 0-.408.05-.756.05-.36 0-.468-.05-.857-.05-.07 0-.2.04-.2.12 0 .1.12.17.24.19.418.07.568.308.578.707l.04 2.072c0 .1-.03.129-.05.129-.04 0-.1-.09-.13-.13l-2.42-2.898c-.06-.07-.13-.15-.21-.15-.518 0-.916-.04-1.314-.04-.07 0-.2.04-.2.12 0 .1.12.17.24.19.338.06.736.418.736.587 0 .648-.04 2.53-.07 2.83-.03.368-.228.467-.577.537-.11.02-.24.06-.24.16 0 .079.13.119.2.119.389 0 .528-.06.867-.06.319 0 .418.06.807.06.07 0 .199-.04.199-.12 0-.1-.13-.14-.24-.16-.348-.069-.477-.178-.507-.537-.04-.558-.05-1.405-.05-2.301 0-.19.02-.269.07-.269.04 0 .159.08.249.19l2.46 3.038c.13.159.299.268.428.268zM205.136-39.402c.538 0 .787-.07 1.295-.07.378 0 .438.07.976.07.169 0 .289-.03.289-.11 0-.09-.1-.14-.329-.18-.498-.089-.667-.388-.667-.866v-4.751c0-.299.259-.419.637-.419.966 0 1.664.508 1.664 1.564 0 1.176-.409 1.873-1.206 1.873-.268 0-.398-.02-.458-.02-.07 0-.159.09-.159.14 0 .08.159.189.448.189 1.524 0 2.231-1.026 2.231-2.251 0-1.116-1.006-1.773-2.52-1.773-.279 0-.707.06-1.105.06-.409 0-.439-.01-.977-.01-.17 0-.288.03-.288.109 0 .09.099.16.328.199.498.09.608.398.608.996v4.204c0 .488-.23.667-.727.757-.23.04-.33.09-.33.18 0 .079.12.109.29.109zm8.209-.02c.388 0 .577-.05.926-.05.349 0 .488.05.876.05.07 0 .2-.04.2-.12 0-.1-.12-.16-.229-.18-.399-.079-.558-.457-.688-.796l-1.344-3.457c-.02-.06-.03-.09-.07-.09-.03 0-.08.03-.16.12-.06.07-.299.32-.388.409-.03.03.02.17-.12.498l-1.155 2.67c-.239.557-.498.587-.807.657-.11.03-.229.07-.229.17 0 .079.129.119.199.119.389 0 .409-.05.757-.05.339 0 .408.05.797.05.07 0 .199-.04.199-.12 0-.1-.119-.14-.229-.18-.199-.069-.368-.118-.368-.378 0-.159.039-.269.199-.617.04-.09.08-.12.159-.12h1.494c.14 0 .17.01.19.07l.169.538c.1.319.01.409-.349.508-.109.03-.229.08-.229.18 0 .079.13.119.2.119zm-1.266-1.773c-.119 0-.169-.01-.129-.1.199-.488.488-1.155.657-1.574.06-.15.08-.15.14 0 .119.31.538 1.305.608 1.574.029.1.019.1-.08.1h-1.196zm8.13 1.882c.308 0 .736-.08.736-.199 0-.11-.109-.13-.179-.14-.159-.02-.677-.238-.896-.487-.309-.359-.697-1.016-.897-1.524-.02-.04.01-.08.07-.1.369-.12.827-.488.817-1.076 0-.876-.817-1.126-1.684-1.126-.408 0-.866.05-1.145.05-.349 0-.538-.05-.926-.05-.07 0-.2.04-.2.12 0 .1.12.17.239.19.419.07.578.288.578.697v2.72c0 .358-.309.467-.657.537-.11.02-.24.06-.24.16 0 .079.13.119.2.119.388 0 .657-.06 1.075-.06.359 0 .519.04.907.04.07 0 .199-.04.199-.12 0-.1-.129-.14-.239-.16-.348-.069-.498-.158-.498-.517v-1.076c0-.09.13-.16.199-.16.299 0 .588.14.668.29.219.428.677 1.135.876 1.374.259.31.598.498.997.498zm-2.491-2.44c-.159 0-.249-.01-.249-.249v-1.395c0-.229.08-.278.339-.278.607 0 1.255.308 1.255.936.01.727-.588.986-1.345.986zm3.687 2.331c.388 0 .657-.06 1.075-.06.419 0 .678.06 1.066.06.07 0 .2-.04.2-.12 0-.1-.13-.14-.24-.16-.348-.069-.657-.178-.657-.537v-2.72c0-.408.159-.627.578-.697.119-.02.239-.09.239-.189 0-.08-.13-.12-.2-.12-.388 0-.637.05-.986.05-.358 0-.607-.05-.996-.05-.069 0-.199.04-.199.12 0 .1.12.17.239.19.418.07.578.288.578.697v2.72c0 .358-.309.467-.658.537-.109.02-.239.06-.239.16 0 .079.13.119.2.119zm4.562.11c1.126 0 1.763-.738 1.763-1.286 0-.488-.278-.876-.707-1.145l-.847-.518c-.378-.23-.607-.379-.607-.817 0-.378.318-.687.787-.687.249 0 .737.18.916.807.02.1.11.199.189.199.08 0 .13-.14.13-.2-.01-.248-.02-.567-.07-.806-.01-.06-.06-.13-.129-.14-.15-.02-.469-.11-.947-.11-.767 0-1.573.41-1.573 1.176 0 .548.328.927.826 1.245l.777.498c.329.21.458.459.458.747 0 .419-.279.807-.896.807-.618 0-.946-.697-1.106-.986-.04-.08-.069-.249-.189-.249s-.1.17-.1.23c.01.248.09.786.17.946.02.03 0 .06.109.08.249.049.508.208 1.046.208zM10.859-32.448v-.727c0-.309-.06-.408-.399-.408H6.665c-.16 0-.408 0-.408.309 0 .298.259.298.408.298h.329v4.872h-.329c-.16 0-.408 0-.408.308 0 .299.259.299.408.299H8.2c.15 0 .399 0 .399-.299 0-.308-.24-.308-.399-.308h-.518v-2.132h1.355c0 .408 0 .567.349.567.338 0 .338-.219.338-.408v-.926c0-.19 0-.409-.338-.409-.349 0-.349.16-.349.568H7.681v-2.132h2.49v.528c0 .19 0 .409.34.409.348 0 .348-.21.348-.409zm5.52 4.642c0-.298-.25-.298-.4-.298-.418 0-.517-.05-.597-.08v-2.152c0-.707-.538-1.544-1.972-1.544-.429 0-1.445 0-1.445.727 0 .3.21.459.449.459.149 0 .428-.09.438-.459 0-.08.01-.09.21-.11.138-.01.268-.01.358-.01.757 0 1.275.31 1.275 1.017-1.763.03-2.989.528-2.989 1.484 0 .687.628 1.335 1.644 1.335.369 0 .986-.07 1.454-.379.22.309.698.319 1.076.319.279 0 .498 0 .498-.309zm-1.684-1.026c0 .23 0 .438-.389.618-.358.17-.807.17-.886.17-.618 0-1.026-.34-1.026-.728 0-.488.856-.857 2.3-.897v.837zm6.804 1.036c0-.308-.26-.308-.409-.308h-.308l-1.485-1.933 1.226-1.146h.348c.15 0 .409 0 .409-.298 0-.31-.26-.31-.409-.31h-1.534c-.159 0-.398 0-.398.31 0 .298.249.298.398.298h.369l-1.614 1.514v-3.506c0-.309-.06-.408-.398-.408h-.648c-.15 0-.398 0-.398.299 0 .308.239.308.398.308h.488v4.872h-.488c-.15 0-.398 0-.398.298 0 .309.239.309.398.309h1.534c.15 0 .399 0 .399-.299 0-.308-.24-.308-.399-.308h-.488v-.807l.797-.738 1.186 1.545c-.36 0-.558 0-.558.308 0 .299.249.299.398.299h1.175c.15 0 .409 0 .409-.299zm4.792-.787c0-.279-.289-.279-.349-.279-.179 0-.259.03-.328.22-.22.508-.758.597-1.036.597-.747 0-1.495-.498-1.654-1.354h2.968c.21 0 .399 0 .399-.37 0-1.135-.638-2.11-1.933-2.11-1.185 0-2.141.995-2.141 2.22 0 1.216 1.006 2.222 2.291 2.222 1.315 0 1.783-.897 1.783-1.146zm-.707-1.414h-2.65c.14-.727.727-1.275 1.424-1.275.518 0 1.136.249 1.226 1.275zm6.415 2.191c0-.298-.258-.298-.398-.298h-.448v-5.07c0-.31-.06-.41-.399-.41h-.727c-.16 0-.408 0-.408.31 0 .298.259.298.398.298h.448v1.574a1.759 1.759 0 0 0-1.165-.448c-1.086 0-2.042.946-2.042 2.211 0 1.235.896 2.202 1.952 2.202.558 0 .976-.269 1.255-.558 0 .359 0 .498.399.498h.727c.16 0 .408 0 .408-.309zm-1.534-1.623c0 .557-.448 1.384-1.215 1.384-.707 0-1.305-.707-1.305-1.594 0-.956.697-1.603 1.395-1.603.637 0 1.125.558 1.125 1.105v.708zM42.033-29.15a1.76 1.76 0 0 0-.478-1.186c-.409-.398-.678-.468-1.454-.648l-.807-.179c-.419-.12-.797-.468-.797-.936 0-.508.488-.986 1.195-.986 1.175 0 1.325.936 1.385 1.245.03.219.14.279.338.279.35 0 .35-.21.35-.408v-1.315c0-.16 0-.409-.3-.409-.24 0-.289.17-.368.468-.409-.348-.947-.468-1.395-.468-1.106 0-1.853.787-1.853 1.634 0 .667.459 1.325 1.285 1.564l1.146.269c.279.06 1.105.259 1.105 1.125 0 .518-.428 1.106-1.215 1.106-.279 0-.767-.04-1.165-.309-.419-.269-.458-.687-.468-.866-.01-.17-.02-.35-.34-.35-.348 0-.348.21-.348.41v1.314c0 .16 0 .409.3.409.218 0 .278-.14.368-.459.398.3 1.006.459 1.643.459 1.156 0 1.873-.877 1.873-1.763zm5.669 1.354c0-.308-.21-.308-.568-.308v-2.411c0-.2 0-1.335-.887-1.335-.299 0-.707.13-.986.518-.15-.339-.428-.518-.757-.518-.319 0-.618.14-.857.359-.02-.3-.219-.3-.398-.3h-.319c-.15 0-.408 0-.408.3 0 .308.209.308.567.308v3.079c-.358 0-.567 0-.567.308 0 .299.269.299.408.299h.877c.15 0 .408 0 .408-.299 0-.308-.21-.308-.568-.308v-1.784c0-.886.409-1.354.817-1.354.23 0 .369.17.369.816v2.322c-.19 0-.439 0-.439.308 0 .299.27.299.409.299h.747c.15 0 .408 0 .408-.299 0-.308-.209-.308-.567-.308v-1.784c0-.886.408-1.354.817-1.354.229 0 .368.17.368.816v2.322c-.19 0-.438 0-.438.308 0 .299.269.299.408.299h.747c.15 0 .409 0 .409-.299zm5.26-.01c0-.298-.25-.298-.399-.298-.418 0-.518-.05-.597-.08v-2.152c0-.707-.538-1.544-1.973-1.544-.428 0-1.444 0-1.444.727a.43.43 0 0 0 .448.459c.15 0 .429-.09.439-.459 0-.08.01-.09.209-.11.14-.01.269-.01.358-.01.757 0 1.275.31 1.275 1.017-1.763.03-2.988.528-2.988 1.484 0 .687.627 1.335 1.643 1.335.37 0 .987-.07 1.455-.379.219.309.697.319 1.076.319.279 0 .498 0 .498-.309zm-1.684-1.026c0 .23 0 .438-.388.618-.359.17-.807.17-.887.17-.617 0-1.026-.34-1.026-.728 0-.488.857-.857 2.301-.897v.837zm6.396 1.036c0-.308-.239-.308-.398-.308H55.98v-5.07c0-.31-.06-.41-.399-.41h-1.574c-.159 0-.408 0-.408.31 0 .298.26.298.398.298h1.295v4.872h-1.285c-.159 0-.408 0-.408.308 0 .299.26.299.398.299h3.278c.149 0 .398 0 .398-.299zm5.23 0c0-.308-.239-.308-.398-.308H61.21v-5.07c0-.31-.06-.41-.398-.41h-1.574c-.16 0-.409 0-.409.31 0 .298.26.298.399.298h1.295v4.872h-1.285c-.16 0-.409 0-.409.308 0 .299.26.299.399.299h3.277c.15 0 .398 0 .398-.299zM73.516-29.17c0-.33-.24-.33-.35-.33-.089 0-.318 0-.338.29-.07.976-.876 1.215-1.285 1.215-.906 0-1.763-1.056-1.763-2.55 0-1.484.867-2.54 1.753-2.54.598 0 1.146.458 1.285 1.265.03.17.05.329.349.329.349 0 .349-.21.349-.409v-1.384c0-.16 0-.409-.3-.409-.178 0-.228.1-.278.17-.02.04-.02.06-.15.308a2.02 2.02 0 0 0-1.295-.478c-1.285 0-2.4 1.335-2.4 3.148 0 1.823 1.115 3.158 2.41 3.158 1.156 0 2.013-.887 2.013-1.783zm5.579 1.364c0-.298-.25-.298-.399-.298-.418 0-.518-.05-.598-.08v-2.152c0-.707-.537-1.544-1.972-1.544-.428 0-1.444 0-1.444.727a.43.43 0 0 0 .448.459c.15 0 .428-.09.438-.459 0-.08.01-.09.21-.11.139-.01.269-.01.358-.01.757 0 1.275.31 1.275 1.017-1.763.03-2.988.528-2.988 1.484 0 .687.627 1.335 1.643 1.335.369 0 .986-.07 1.455-.379.219.309.697.319 1.076.319.278 0 .498 0 .498-.309zm-1.684-1.026c0 .23 0 .438-.389.618-.358.17-.806.17-.886.17-.618 0-1.026-.34-1.026-.728 0-.488.857-.857 2.301-.897v.837zm6.605-.817c0-1.225-.887-2.201-1.942-2.201-.478 0-.927.18-1.266.488 0-.289-.02-.428-.398-.428h-.727c-.16 0-.408 0-.408.309 0 .298.258.298.398.298h.448v5.29h-.438c-.16 0-.408 0-.408.309 0 .298.258.298.398.298h1.584c.14 0 .398 0 .398-.298 0-.31-.249-.31-.408-.31h-.439v-2.051c.409.418.837.508 1.156.508 1.086 0 2.052-.947 2.052-2.212zm-.687 0c0 .957-.697 1.604-1.395 1.604-.777 0-1.126-.876-1.126-1.354v-.728c0-.587.578-1.115 1.206-1.115.737 0 1.315.727 1.315 1.593zm5.629.907c0-1.036-1.285-1.245-1.604-1.295l-.678-.12c-.288-.04-.966-.159-.966-.547 0-.26.32-.568 1.265-.568.827 0 .967.298.996.558.01.169.03.338.339.338.349 0 .349-.21.349-.408v-.687c0-.16 0-.409-.3-.409-.238 0-.278.14-.298.21-.438-.21-.877-.21-1.066-.21-1.663 0-1.892.817-1.892 1.176 0 .916 1.045 1.085 1.962 1.225.488.08 1.285.209 1.285.737 0 .368-.369.697-1.275.697-.468 0-1.026-.11-1.275-.886-.05-.18-.09-.29-.349-.29-.348 0-.348.21-.348.409v.966c0 .16 0 .409.298.409.09 0 .25-.01.369-.379.488.359 1.016.379 1.295.379 1.574 0 1.892-.827 1.892-1.305zM110.903-27.348c.648 0 1.395-.09 1.883-.288.209-.07.219-.08.319-.27.12-.288.269-.806.269-.966 0-.209-.25-.199-.34-.03-.438.788-1.025 1.246-1.981 1.246-1.654 0-2.74-1.674-2.74-3.298 0-1.464 1.116-2.839 2.67-2.839.548 0 1.036.12 1.364.34.35.238.489.597.618 1.105.06.23.349.14.339-.01-.02-.518-.06-.837-.09-1.146-.02-.179-.09-.289-.289-.338-.677-.17-1.006-.26-1.773-.26-2.042 0-3.845 1.455-3.845 3.388 0 2.032 1.734 3.366 3.596 3.366zM114.272-27.462c.083 0 .634-.035.962-.035.74 0 1.66.035 2.4.035.076 0 .097-.063.104-.126.028-.306.09-.523.196-.9 0-.02.014-.055.014-.076 0-.056-.028-.133-.091-.133s-.119.119-.167.217c-.112.237-.189.355-.363.516a.825.825 0 0 1-.53.181h-.81c-.39 0-.48-.126-.48-.405v-3.229c0-.272.216-.335.571-.412.14-.027.202-.07.202-.139 0-.063-.07-.084-.174-.084-.349 0-.614.021-.935.021-.3 0-.502-.028-.857-.028-.105 0-.182.028-.182.091s.063.112.203.14c.355.07.432.118.432.446v3.215c0 .3-.174.412-.523.489-.042.014-.147.049-.147.125 0 .05.063.091.175.091zM118.796-27.462c.251 0 .53-.042.83-.042.258 0 .495.014.677.014.111 0 .188-.021.188-.084 0-.062-.07-.104-.21-.14-.285-.069-.439-.201-.41-.432.02-.146.195-.718.264-.927.035-.09.07-.119.119-.119h1.29c.112 0 .147.014.168.084.09.328.237.816.25 1.04.029.187-.11.292-.432.348-.111.02-.209.07-.209.14 0 .055.084.09.188.09.21 0 .572-.014.844-.014.314 0 .803.035 1.026.035.104 0 .181-.021.181-.077 0-.07-.07-.132-.21-.16-.278-.056-.501-.16-.662-.621-.286-.85-.809-2.386-1.234-3.746-.021-.062-.028-.118-.056-.167-.014-.035-.042-.028-.063-.014-.035.049-.09.181-.202.237-.119.063-.217.091-.335.119a1.934 1.934 0 0 1-.126.46 45.79 45.79 0 0 1-1.269 3.209.838.838 0 0 1-.593.509c-.132.042-.21.09-.21.16 0 .063.085.098.196.098zm1.653-2.016c-.083 0-.14-.007-.14-.056 0-.014.008-.035.015-.055l.607-1.66c.02-.063.035-.105.048-.105.021 0 .035.042.056.111l.516 1.654c.007.035.014.055.014.076 0 .035-.028.035-.097.035h-1.019zM126.634-27.4c1.032 0 1.828-.767 1.848-1.869.014-.634.021-1.234.063-2.001.014-.3.105-.496.377-.559.146-.034.216-.076.216-.139 0-.07-.084-.09-.195-.09-.196 0-.349.027-.586.027-.21 0-.321-.014-.579-.014-.119 0-.202.028-.202.084 0 .077.146.119.244.153.223.084.307.37.32.817.015.495.015 1.116.015 1.437 0 1.067-.426 1.715-1.34 1.715-.767 0-1.346-.474-1.346-1.534v-1.911c0-.293.16-.475.28-.516.153-.056.264-.084.264-.161 0-.063-.076-.09-.195-.09-.188 0-.46.02-.697.02-.258 0-.51-.028-.754-.028-.111 0-.195.028-.195.091s.07.112.223.154c.182.048.328.216.328.523v2.085c0 1.088.642 1.807 1.911 1.807zM132.443-27.448a2.41 2.41 0 0 0 2.448-2.42c0-1.256-.865-2.226-2.58-2.226-.245 0-.984.056-1.277.056-.32 0-.51-.02-.851-.02-.105 0-.181.034-.181.097 0 .077.062.105.202.132.356.07.467.175.467.496v3.153c0 .32-.118.432-.467.495-.14.028-.202.049-.202.125 0 .07.076.09.18.09.35 0 .545-.027.824-.027.44 0 1.179.049 1.437.049zm-.09-.286c-.51 0-.942-.105-.942-.635v-3.083c0-.362.3-.37.85-.37.956 0 1.793.789 1.793 2.1 0 1.179-.662 1.988-1.702 1.988zM136.137-27.462c.35 0 .559-.042.859-.042.746 0 1.555.042 2.217.042.056 0 .091-.049.12-.112.083-.237.215-.676.215-.837 0-.063-.02-.111-.077-.111-.048-.007-.083.028-.118.083-.132.265-.244.44-.397.545-.14.097-.329.132-.594.132h-.55c-.293 0-.426-.105-.426-.432v-1.333c0-.146.07-.18.216-.18h.649c.181 0 .265.118.328.362.035.132.097.202.167.202.049 0 .07-.056.063-.14-.007-.097-.02-.397-.02-.55 0-.133.02-.412.027-.51 0-.083-.049-.125-.09-.125-.057 0-.099.042-.133.14-.07.25-.14.369-.405.369h-.656c-.083 0-.146-.063-.146-.154v-1.422c0-.154.175-.252.293-.252h.781c.196 0 .349.063.475.196.076.083.125.244.188.425.02.056.049.084.098.084.041 0 .097-.028.097-.119 0-.202-.063-.488-.112-.781-.006-.063-.083-.084-.139-.084-.035 0-.272.021-.579.021-.342.007-.781.014-1.15.014-.426 0-.705-.028-1.166-.028-.111 0-.18.035-.18.091 0 .063.055.112.201.14.342.07.454.174.454.495v3.153c0 .32-.154.432-.489.502-.139.028-.202.07-.202.132 0 .056.07.084.181.084zM145.61-27.358c1.265 0 2.171-.637 2.37-.667.14-.02.14-.14.14-.19 0-.049-.09-.099-.13-.169-.03-.06-.06-.09-.06-.159v-.269c0-.249.01-.458.05-.747.04-.269.13-.408.419-.488.05-.01.21-.09.21-.18 0-.129-.16-.159-.21-.159-.359 0-.538.04-.887.04-.548 0-.767-.04-1.255-.04-.05 0-.199.07-.199.17s.15.169.2.169c.199 0 .806.09.975.309.04.05.05.16.05.299 0 .179-.02.408-.02.577 0 .35-.149.618-.299.767-.119.12-.448.369-1.215.369-1.325 0-2.61-1.106-2.61-2.998 0-1.574 1.046-2.999 2.59-2.999.947 0 1.455.369 1.584.528.16.19.23.319.309.528.04.12.09.27.229.27.08 0 .15-.1.15-.2 0-.259-.05-.667-.1-1.056-.01-.07-.03-.09-.09-.12-.269-.129-1.534-.328-1.992-.328-1.982 0-3.666 1.534-3.666 3.506 0 1.843 1.614 3.237 3.457 3.237zM149.141-27.462c.252 0 .53-.042.83-.042.259 0 .496.014.677.014.112 0 .188-.021.188-.084 0-.062-.07-.104-.209-.14-.286-.069-.44-.201-.412-.432.021-.146.196-.718.265-.927.035-.09.07-.119.12-.119h1.29c.111 0 .146.014.167.084.09.328.237.816.251 1.04.028.187-.112.292-.433.348-.111.02-.209.07-.209.14 0 .055.084.09.189.09.209 0 .572-.014.844-.014.314 0 .802.035 1.025.035.105 0 .181-.021.181-.077 0-.07-.07-.132-.209-.16-.279-.056-.502-.16-.662-.621-.287-.85-.81-2.386-1.235-3.746-.021-.062-.028-.118-.056-.167-.014-.035-.042-.028-.063-.014-.035.049-.09.181-.202.237-.118.063-.216.091-.335.119a1.934 1.934 0 0 1-.125.46 45.792 45.792 0 0 1-1.27 3.209.838.838 0 0 1-.593.509c-.132.042-.209.09-.209.16 0 .063.084.098.195.098zm1.654-2.016c-.084 0-.14-.007-.14-.056 0-.014.007-.035.014-.055l.607-1.66c.02-.063.035-.105.049-.105.02 0 .035.042.055.111l.516 1.654c.008.035.014.055.014.076 0 .035-.027.035-.097.035h-1.018zM158.925-27.35c.28 0 .663-.07.663-.307 0-.07-.035-.098-.105-.098-.328 0-.6-.007-.865-.251-.585-.53-.934-1.067-1.36-1.71-.02-.041-.028-.076.007-.09.39-.174.844-.509.844-1.137 0-.76-.572-1.136-1.611-1.136-.44 0-.579.041-.858.041-.314 0-.377-.02-.781-.02-.105 0-.181.034-.181.09 0 .063.062.126.209.14.376.055.418.146.418.613v3.027c0 .328-.14.44-.495.503-.132.028-.202.062-.202.132 0 .063.084.084.181.084.356 0 .614-.042.949-.042.265 0 .474.042.823.042.104 0 .181-.021.181-.084 0-.07-.07-.104-.202-.132-.363-.07-.495-.258-.495-.558v-1.263c0-.083.028-.14.097-.14.105.015.28.042.44.12.118.062.195.139.258.257.425.719.67 1.04.997 1.451.251.321.579.468 1.088.468zm-2.546-2.477c-.209 0-.334-.034-.334-.25 0-.517.007-.887.013-1.11.014-.502.077-.648.342-.648.754 0 .935.425.935 1.018 0 .537-.356.99-.956.99zM160.548-27.462c.252 0 .53-.042.83-.042.259 0 .496.014.677.014.112 0 .188-.021.188-.084 0-.062-.07-.104-.209-.14-.286-.069-.44-.201-.411-.432.02-.146.195-.718.264-.927.036-.09.07-.119.12-.119h1.29c.111 0 .146.014.167.084.09.328.237.816.251 1.04.028.187-.112.292-.433.348-.111.02-.209.07-.209.14 0 .055.084.09.189.09.209 0 .572-.014.844-.014.314 0 .802.035 1.025.035.105 0 .181-.021.181-.077 0-.07-.07-.132-.209-.16-.279-.056-.502-.16-.662-.621-.287-.85-.81-2.386-1.235-3.746-.021-.062-.028-.118-.056-.167-.014-.035-.042-.028-.063-.014-.034.049-.09.181-.202.237-.118.063-.216.091-.335.119a1.933 1.933 0 0 1-.125.46 45.794 45.794 0 0 1-1.27 3.209.838.838 0 0 1-.593.509c-.132.042-.209.09-.209.16 0 .063.084.098.195.098zm1.654-2.016c-.084 0-.14-.007-.14-.056 0-.014.007-.035.014-.055l.607-1.66c.02-.063.035-.105.049-.105.02 0 .035.042.055.111l.516 1.654c.008.035.014.055.014.076 0 .035-.027.035-.097.035h-1.018zM166.224-27.47c.265 0 .398-.027.67-.027s.3.028.676.028c.105 0 .196-.021.196-.084 0-.07-.084-.104-.224-.132-.307-.063-.474-.272-.474-.53 0-.865.056-1.626.16-2.504.007-.07.077-.077.105-.021.481 1.157.92 2.176 1.325 3.264.021.063.119.077.147 0l1.506-3.237c.05-.083.091-.09.098-.006.042.892.077 1.597.09 2.552 0 .314-.09.433-.39.482-.133.02-.202.062-.202.132 0 .063.077.084.181.084.356 0 .544-.035.823-.035.307 0 .558.035.907.035.104 0 .181-.021.181-.084 0-.07-.07-.104-.202-.132-.328-.063-.502-.21-.516-.482-.07-1.109-.147-1.89-.16-3.208-.008-.174.076-.272.23-.342a4.86 4.86 0 0 1 .334-.132c.119-.05.175-.077.175-.147 0-.07-.098-.083-.16-.083-.189 0-.587.062-.907.062h-.266c-.041 0-.07.035-.083.091-.035.14-.084.356-.132.565l-1.242 2.671c-.028.063-.105.042-.133-.014l-1.074-2.671c-.07-.181-.105-.356-.16-.53-.021-.07-.084-.119-.147-.119-.272 0-.927-.049-1.144-.049-.132 0-.223.014-.223.091 0 .063.07.119.168.14.188.042.327.076.474.195.097.07.126.153.126.258.006.084.006.174.006.23-.028.754-.146 1.897-.279 2.937-.048.313-.209.495-.432.544-.14.034-.223.055-.223.125 0 .063.077.084.195.084zM175.47-27.4c1.577 0 2.42-1.178 2.42-2.434 0-1.374-1.108-2.294-2.357-2.294-1.569 0-2.413 1.179-2.413 2.434 0 1.374 1.109 2.295 2.35 2.295zm.112-.292c-1.088 0-1.618-1.11-1.618-2.358 0-1.067.495-1.771 1.45-1.771 1.096 0 1.633 1.095 1.633 2.336 0 1.074-.488 1.793-1.465 1.793zM183.475-27.371c.091 0 .168-.05.168-.223 0-.105-.05-.433-.05-.768 0-.976.029-2.7.036-3.076.007-.244.105-.328.44-.39.146-.028.216-.077.216-.14s-.077-.09-.189-.09c-.404 0-.467.02-.788.02h-.495c-.105 0-.244.028-.244.084 0 .07.132.119.265.14.216.048.44.195.446.404.007 1.074 0 2.28 0 2.657-.007.091-.035.133-.07.133-.048 0-.118-.084-.153-.125-.342-.391-2.344-2.79-2.692-3.202-.042-.056-.077-.105-.154-.105-.502 0-.704-.027-1.179-.035-.063 0-.167.021-.167.105s.16.147.21.16c.39.133.669.293.669.789 0 1.144-.077 2.253-.133 2.776-.02.279-.132.495-.383.565-.14.042-.217.07-.217.14 0 .062.091.083.196.083.265 0 .363-.028.634-.028.265 0 .321.028.698.028.105 0 .195-.021.195-.084 0-.07-.084-.104-.216-.132-.356-.07-.488-.286-.488-.558 0-.802.007-1.876.014-2.546 0-.056.014-.147.055-.147.036 0 .077.035.126.105.377.412 2.26 2.595 2.616 3 .244.327.537.46.634.46zM187.594-27.448a2.41 2.41 0 0 0 2.448-2.42c0-1.256-.865-2.226-2.58-2.226-.245 0-.984.056-1.277.056-.32 0-.51-.02-.851-.02-.104 0-.181.034-.181.097 0 .077.063.105.202.132.356.07.467.175.467.496v3.153c0 .32-.118.432-.467.495-.14.028-.202.049-.202.125 0 .07.077.09.181.09.349 0 .544-.027.823-.027.44 0 1.179.049 1.437.049zm-.09-.286c-.51 0-.942-.105-.942-.635v-3.083c0-.362.3-.37.85-.37.956 0 1.793.789 1.793 2.1 0 1.179-.662 1.988-1.702 1.988zM192.558-27.47c.356 0 .607-.034.935-.034.306 0 .544.035.892.035.105 0 .175-.021.175-.084 0-.07-.063-.104-.202-.132-.35-.077-.524-.189-.524-.495v-3.153c0-.314.126-.419.489-.496.132-.027.202-.07.202-.139 0-.063-.077-.084-.181-.084-.35 0-.559.021-.851.021-.307 0-.523-.028-.886-.028-.098 0-.175.028-.175.091s.063.112.203.14c.349.07.46.174.46.495v3.153c0 .32-.167.432-.516.495-.14.028-.202.062-.202.132 0 .063.076.084.18.084zM199.992-27.371c.09 0 .167-.05.167-.223 0-.105-.049-.433-.049-.768 0-.976.028-2.7.035-3.076.007-.244.105-.328.44-.39.146-.028.216-.077.216-.14s-.077-.09-.188-.09c-.405 0-.468.02-.789.02h-.495c-.105 0-.244.028-.244.084 0 .07.133.119.265.14.216.048.44.195.446.404.007 1.074 0 2.28 0 2.657-.006.091-.035.133-.07.133-.048 0-.118-.084-.153-.125-.342-.391-2.344-2.79-2.692-3.202-.042-.056-.077-.105-.154-.105-.502 0-.704-.027-1.179-.035-.062 0-.167.021-.167.105s.16.147.21.16c.39.133.67.293.67.789a29.42 29.42 0 0 1-.133 2.776c-.021.279-.133.495-.384.565-.14.042-.216.07-.216.14 0 .062.09.083.195.083.265 0 .363-.028.635-.028.265 0 .32.028.697.028.105 0 .195-.021.195-.084 0-.07-.083-.104-.216-.132-.355-.07-.488-.286-.488-.558 0-.802.007-1.876.014-2.546 0-.056.014-.147.056-.147.035 0 .077.035.125.105.377.412 2.26 2.595 2.616 3 .244.327.537.46.635.46zM203.406-27.447c.538 0 .787-.07 1.295-.07.379 0 .438.07.976.07.17 0 .29-.03.29-.11 0-.09-.1-.14-.33-.179-.498-.09-.667-.388-.667-.867v-4.751c0-.299.259-.419.637-.419.967 0 1.664.509 1.664 1.564 0 1.176-.409 1.873-1.205 1.873-.27 0-.399-.02-.459-.02-.07 0-.159.09-.159.14 0 .08.16.189.448.189 1.524 0 2.232-1.026 2.232-2.251 0-1.116-1.007-1.773-2.52-1.773-.28 0-.708.06-1.106.06-.409 0-.439-.01-.976-.01-.17 0-.29.03-.29.109 0 .09.1.16.33.2.497.089.607.398.607.995v4.204c0 .488-.229.667-.727.757-.23.04-.329.09-.329.18 0 .079.12.109.289.109zM208.552-27.462c.252 0 .53-.042.83-.042.259 0 .496.014.677.014.112 0 .188-.021.188-.084 0-.062-.07-.104-.209-.14-.286-.069-.44-.201-.412-.432.021-.146.196-.718.265-.927.035-.09.07-.119.12-.119h1.29c.111 0 .146.014.167.084.09.328.237.816.251 1.04.028.187-.112.292-.433.348-.111.02-.209.07-.209.14 0 .055.084.09.189.09.209 0 .572-.014.844-.014.314 0 .802.035 1.025.035.105 0 .181-.021.181-.077 0-.07-.07-.132-.209-.16-.279-.056-.502-.16-.662-.621-.287-.85-.81-2.386-1.235-3.746-.021-.062-.028-.118-.056-.167-.014-.035-.042-.028-.063-.014-.035.049-.09.181-.202.237-.118.063-.216.091-.335.119a1.934 1.934 0 0 1-.125.46 45.783 45.783 0 0 1-1.27 3.209.838.838 0 0 1-.593.509c-.132.042-.209.09-.209.16 0 .063.084.098.195.098zm1.654-2.016c-.084 0-.14-.007-.14-.056 0-.014.007-.035.014-.055l.607-1.66c.02-.063.035-.105.049-.105.02 0 .035.042.055.111l.516 1.654c.008.035.014.055.014.076 0 .035-.027.035-.097.035h-1.018zM218.33-27.35c.278 0 .662-.07.662-.307 0-.07-.035-.098-.105-.098-.328 0-.6-.007-.865-.251-.585-.53-.934-1.067-1.36-1.71-.02-.041-.028-.076.007-.09.391-.174.844-.509.844-1.137 0-.76-.572-1.136-1.611-1.136-.44 0-.579.041-.858.041-.314 0-.377-.02-.781-.02-.105 0-.181.034-.181.09 0 .063.062.126.209.14.376.055.418.146.418.613v3.027c0 .328-.14.44-.495.503-.132.028-.202.062-.202.132 0 .063.084.084.181.084.356 0 .614-.042.949-.042.265 0 .474.042.823.042.104 0 .181-.021.181-.084 0-.07-.07-.104-.202-.132-.363-.07-.495-.258-.495-.558v-1.263c0-.083.028-.14.097-.14.105.015.28.042.44.12.118.062.195.139.258.257.425.719.67 1.04.997 1.451.251.321.579.468 1.088.468zm-2.547-2.477c-.209 0-.334-.034-.334-.25 0-.517.007-.887.013-1.11.015-.502.077-.648.342-.648.754 0 .935.425.935 1.018 0 .537-.356.99-.956.99zM219.89-27.47c.355 0 .607-.034.934-.034.307 0 .544.035.893.035.105 0 .174-.021.174-.084 0-.07-.062-.104-.202-.132-.348-.077-.523-.189-.523-.495v-3.153c0-.314.126-.419.488-.496.133-.027.203-.07.203-.139 0-.063-.077-.084-.182-.084-.349 0-.558.021-.85.021-.307 0-.524-.028-.887-.028-.097 0-.174.028-.174.091s.063.112.202.14c.35.07.46.174.46.495v3.153c0 .32-.167.432-.515.495-.14.028-.203.062-.203.132 0 .063.077.084.182.084zM224.094-27.392c.948 0 1.57-.502 1.57-1.382 0-.669-.433-1.01-1.012-1.366-.544-.328-.97-.593-.97-.977 0-.53.328-.74.754-.74.411 0 .683.28.865.796.02.056.104.097.188.097.063 0 .112-.027.112-.076 0-.265-.07-.544-.119-.74a.274.274 0 0 0-.16-.188 2.099 2.099 0 0 0-.789-.16c-.962 0-1.52.558-1.52 1.297 0 .718.607 1.04 1.165 1.374.509.307.788.488.788 1.018 0 .447-.307.789-.775.789-.446 0-.864-.35-1.053-1.054-.02-.062-.062-.083-.125-.083-.077 0-.14.034-.14.097.007.258.021.621.091.83a.286.286 0 0 0 .105.147c.286.216.634.32 1.025.32zM10.76-19.805c0-.927-.738-1.823-1.883-1.823H6.645c-.149 0-.408 0-.408.298 0 .31.26.31.408.31h.3v4.87h-.3c-.159 0-.408 0-.408.31 0 .298.26.298.408.298H7.93c.15 0 .409 0 .409-.299 0-.309-.26-.309-.409-.309h-.299v-1.833h1.246c1.155 0 1.882-.896 1.882-1.822zm-.688 0c0 .528-.428 1.215-1.385 1.215H7.631v-2.43h1.056c.957 0 1.385.687 1.385 1.215zm5.758 3.177c0-.279-.289-.279-.348-.279-.18 0-.26.03-.329.22-.22.507-.757.597-1.036.597-.747 0-1.494-.498-1.654-1.355h2.969c.21 0 .398 0 .398-.368 0-1.136-.637-2.112-1.932-2.112-1.186 0-2.142.996-2.142 2.221 0 1.216 1.006 2.222 2.291 2.222 1.315 0 1.783-.897 1.783-1.146zm-.707-1.414h-2.65c.14-.728.727-1.275 1.425-1.275.518 0 1.135.249 1.225 1.275zm5.788 1.245c0-.18 0-.389-.348-.389-.33 0-.34.21-.34.379-.01.617-.577.717-.806.717-.767 0-.767-.518-.767-.767v-2.37h1.634c.149 0 .398 0 .398-.3 0-.308-.239-.308-.398-.308H18.65v-.817c0-.19 0-.408-.339-.408-.348 0-.348.209-.348.408v.817h-.867c-.16 0-.408 0-.408.309 0 .298.249.298.398.298h.877v2.431c0 .956.677 1.315 1.404 1.315.737 0 1.544-.428 1.544-1.315zm5.29.956c0-.309-.259-.309-.408-.309h-1.046v-3.277c0-.309-.06-.408-.398-.408h-1.415c-.15 0-.408 0-.408.299 0 .308.259.308.408.308h1.126v3.078h-1.206c-.16 0-.408 0-.408.31 0 .298.259.298.408.298h2.939c.15 0 .408 0 .408-.299zm-1.414-5.23a.493.493 0 0 0-.498-.498.493.493 0 0 0-.498.499c0 .278.219.498.498.498s.498-.22.498-.498zm6.585 4.274c0-.18 0-.389-.349-.389-.328 0-.338.21-.338.379-.01.617-.578.717-.807.717-.767 0-.767-.518-.767-.767v-2.37h1.633c.15 0 .399 0 .399-.3 0-.308-.24-.308-.399-.308h-1.633v-.817c0-.19 0-.408-.339-.408-.349 0-.349.209-.349.408v.817h-.866c-.16 0-.409 0-.409.309 0 .298.25.298.399.298h.876v2.431c0 .956.678 1.315 1.405 1.315.737 0 1.544-.428 1.544-1.315zm5.38.17c0-.28-.29-.28-.349-.28-.18 0-.26.03-.329.22-.219.507-.757.597-1.036.597-.747 0-1.494-.498-1.653-1.355h2.968c.21 0 .398 0 .398-.368 0-1.136-.637-2.112-1.932-2.112-1.185 0-2.142.996-2.142 2.221 0 1.216 1.007 2.222 2.292 2.222 1.314 0 1.782-.897 1.782-1.146zm-.708-1.415h-2.65c.14-.728.728-1.275 1.425-1.275.518 0 1.136.249 1.225 1.275zM47.38-17.215c0-.33-.24-.33-.35-.33-.09 0-.318 0-.338.29-.07.976-.877 1.215-1.285 1.215-.907 0-1.764-1.056-1.764-2.55 0-1.485.867-2.54 1.754-2.54.597 0 1.145.458 1.285 1.265.03.17.05.329.348.329.35 0 .35-.21.35-.409v-1.385c0-.159 0-.408-.3-.408-.18 0-.229.1-.279.17-.02.04-.02.06-.15.308a2.02 2.02 0 0 0-1.294-.478c-1.285 0-2.4 1.335-2.4 3.148 0 1.823 1.115 3.158 2.41 3.158 1.156 0 2.012-.887 2.012-1.783zm5.578 1.364c0-.299-.249-.299-.398-.299-.419 0-.518-.05-.598-.08v-2.151c0-.707-.538-1.544-1.972-1.544-.429 0-1.445 0-1.445.727 0 .3.21.458.448.458.15 0 .429-.09.439-.458 0-.08.01-.09.209-.11.14-.01.269-.01.358-.01.758 0 1.276.31 1.276 1.017-1.763.03-2.989.528-2.989 1.484 0 .687.628 1.335 1.644 1.335.368 0 .986-.07 1.454-.379.22.309.698.319 1.076.319.279 0 .498 0 .498-.309zm-1.683-1.026c0 .23 0 .438-.39.618-.357.17-.806.17-.886.17-.617 0-1.026-.34-1.026-.728 0-.488.857-.857 2.302-.897v.837zm6.604-.817c0-1.225-.886-2.201-1.942-2.201-.478 0-.926.18-1.265.488 0-.289-.02-.428-.399-.428h-.727c-.16 0-.408 0-.408.309 0 .298.259.298.399.298h.448v5.29h-.439c-.16 0-.408 0-.408.308 0 .3.259.3.399.3h1.583c.14 0 .399 0 .399-.3 0-.308-.25-.308-.409-.308h-.438v-2.052c.408.418.837.508 1.156.508 1.085 0 2.051-.947 2.051-2.212zm-.687 0c0 .957-.697 1.604-1.394 1.604-.777 0-1.126-.876-1.126-1.355v-.727c0-.588.578-1.115 1.205-1.115.737 0 1.315.727 1.315 1.593zm5.629.907c0-1.036-1.285-1.245-1.604-1.295l-.677-.12c-.29-.04-.967-.16-.967-.548 0-.259.32-.567 1.266-.567.826 0 .966.298.996.557.01.17.03.34.338.34.35 0 .35-.21.35-.41v-.686c0-.16 0-.409-.3-.409-.239 0-.279.14-.299.21-.438-.21-.876-.21-1.066-.21-1.663 0-1.892.817-1.892 1.175 0 .917 1.046 1.086 1.962 1.226.489.08 1.285.209 1.285.737 0 .368-.368.697-1.275.697-.468 0-1.026-.11-1.275-.886-.05-.18-.09-.29-.348-.29-.35 0-.35.21-.35.409v.966c0 .16 0 .409.3.409.09 0 .249-.01.368-.379.489.359 1.016.379 1.295.379 1.574 0 1.893-.827 1.893-1.305zM110.903-15.393c.648 0 1.395-.09 1.883-.288.209-.07.219-.08.319-.27.12-.288.269-.806.269-.966 0-.209-.25-.199-.34-.03-.438.787-1.025 1.246-1.981 1.246-1.654 0-2.74-1.674-2.74-3.298 0-1.464 1.116-2.839 2.67-2.839.548 0 1.036.12 1.364.34.35.238.489.597.618 1.105.06.23.349.14.339-.01-.02-.518-.06-.837-.09-1.146-.02-.179-.09-.289-.289-.338-.677-.17-1.006-.26-1.773-.26-2.042 0-3.845 1.455-3.845 3.387 0 2.033 1.734 3.367 3.596 3.367zm3.617-.119c.399 0 .687-.05 1.046-.05.697 0 1.315.04 2.152.04.07 0 .15-.06.15-.12.029-.278.218-.946.218-1.026 0-.04 0-.119-.12-.119-.129 0-.219.169-.248.219-.13.269-.468.707-.807.707h-.688c-.458 0-.547-.219-.547-.488v-2.49c0-.27.13-.419.398-.468.12-.02.229-.08.229-.18 0-.08-.12-.09-.199-.09-.398 0-.448.05-.797.05-.349 0-.329-.05-.727-.05-.07 0-.2.01-.2.09 0 .1.11.16.23.18.249.04.368.179.368.468v2.67c0 .278-.229.328-.428.388-.11.04-.23.08-.23.18 0 .079.13.089.2.089zm4.015 0c.409 0 .488-.05.807-.05.329 0 .398.05.807.05.07 0 .199-.01.199-.09 0-.1-.12-.14-.23-.18-.258-.079-.617-.178-.467-.597l.14-.378h1.334l.18.557c.089.29.01.37-.18.419-.11.03-.23.08-.23.18 0 .079.13.089.2.089.409 0 .389-.05.707-.05.349 0 .389.05.797.05.07 0 .2-.01.2-.09 0-.1-.12-.15-.23-.18-.388-.109-.518-.418-.667-.826l-1.086-3.008c-.04-.12-.09-.09-.21.05-.059.07-.248.289-.338.308-.03.2-.05.37-.12.578l-.886 2.291c-.15.379-.229.469-.697.608-.11.04-.23.08-.23.18 0 .079.13.089.2.089zm1.395-1.634l.508-1.394c.05-.15.07-.15.12 0l.447 1.394h-1.075zm5.698 1.743c1.275 0 1.763-1.135 1.763-2.29v-.957c0-.319.07-.568.458-.637.12-.02.23-.08.23-.18 0-.07-.12-.11-.19-.11-.358 0-.398.05-.727.05-.339 0-.309-.05-.667-.05-.07 0-.19.04-.19.11 0 .1.11.16.22.18.398.07.448.268.448.657v1.235c0 1.156-.568 1.574-1.146 1.574-.866 0-1.185-.538-1.185-1.664v-1.145c0-.379.08-.588.478-.657.11-.02.22-.08.22-.18 0-.07-.12-.11-.18-.11-.369 0-.528.05-.857.05-.339 0-.558-.05-.926-.05-.06 0-.18.04-.18.11 0 .1.11.16.22.18.388.07.527.278.527.657v1.305c0 1.145.39 1.922 1.684 1.922zm3.378-.109c.338 0 .537-.04.856-.05.299 0 .747.05.877.05 1.384 0 2.59-.797 2.6-2.102.01-1.494-.966-1.912-2.58-1.912-.16 0-.638.05-.867.04-.309 0-.478-.04-.817-.04-.06 0-.18.04-.18.109 0 .08.11.15.21.16.369.069.478.258.478.617v2.41c0 .31-.239.409-.548.469-.1.02-.209.06-.209.14 0 .069.11.109.18.109zm1.942-.25c-.359 0-.667-.228-.667-.547v-2.63c0-.249.259-.338.498-.338 1.115 0 1.753.607 1.753 1.753 0 .916-.588 1.763-1.584 1.763zm3.438.25c.398 0 .687-.05 1.045-.05.698 0 1.315.04 2.152.04.07 0 .15-.06.15-.12.029-.278.218-.946.218-1.026 0-.04.01-.119-.11-.119-.099 0-.208.169-.228.219-.15.339-.439.707-.777.707h-.747c-.458 0-.548-.219-.548-.488v-.837c0-.189.06-.179.249-.179.209 0 .418 0 .617.02.11.02.26.06.32.269.02.04.06.239.178.239.06 0 .11-.11.1-.17-.01-.188-.04-.368-.04-.547 0-.15.02-.389.03-.548.01-.06-.04-.15-.12-.15-.07 0-.129.1-.149.17-.08.239-.16.368-.368.368h-.708c-.06 0-.11-.05-.11-.239v-1.026c0-.13.17-.239.25-.239h.966c.349 0 .458.2.598.528.05.12.14.18.189.18.04 0 .08-.09.08-.13 0-.13-.08-.359-.1-.867 0-.05-.08-.06-.12-.06-.457 0-1.374.03-2.25.03-.34.01-.31-.04-.708-.04-.07 0-.2.01-.2.09 0 .1.11.16.23.18.249.04.369.179.369.468v2.67c0 .278-.23.328-.429.388-.11.04-.229.08-.229.18 0 .079.13.089.2.089zM144.14-15.403c1.266 0 2.172-.637 2.372-.667.14-.02.14-.14.14-.19 0-.049-.09-.099-.13-.169-.03-.06-.06-.09-.06-.159v-.269c0-.25.01-.458.05-.747.04-.269.13-.408.418-.488.05-.01.21-.09.21-.18 0-.129-.16-.159-.21-.159-.359 0-.538.04-.886.04-.549 0-.768-.04-1.256-.04-.05 0-.199.07-.199.17s.15.169.2.169c.199 0 .806.09.976.309.04.05.05.16.05.298 0 .18-.02.409-.02.578 0 .349-.15.618-.3.767-.119.12-.448.369-1.215.369-1.325 0-2.61-1.106-2.61-2.999 0-1.573 1.046-2.998 2.59-2.998.947 0 1.455.369 1.584.528.16.19.23.319.309.528.04.12.09.269.229.269.08 0 .15-.1.15-.199 0-.26-.05-.668-.1-1.056-.01-.07-.03-.09-.09-.12-.269-.129-1.534-.328-1.992-.328-1.982 0-3.666 1.534-3.666 3.506 0 1.843 1.614 3.237 3.457 3.237zm3.608-.109c.408 0 .488-.05.807-.05.328 0 .398.05.807.05.07 0 .199-.01.199-.09 0-.1-.12-.14-.23-.18-.258-.079-.617-.178-.468-.597l.14-.378h1.335l.179.557c.09.29.01.37-.18.419-.109.03-.228.08-.228.18 0 .079.13.089.199.089.408 0 .388-.05.707-.05.349 0 .389.05.797.05.07 0 .2-.01.2-.09 0-.1-.12-.15-.23-.18-.389-.109-.518-.418-.667-.826l-1.086-3.008c-.04-.12-.09-.09-.21.05-.059.07-.248.289-.338.308-.03.2-.05.37-.12.578l-.886 2.291c-.15.379-.229.469-.697.608-.11.04-.23.08-.23.18 0 .079.13.089.2.089zm1.395-1.634l.507-1.394c.05-.15.07-.15.12 0l.448 1.394h-1.075zm7.242 1.733c.279 0 .667-.08.667-.179 0-.1-.1-.12-.17-.13-.138-.02-.607-.208-.796-.438-.28-.318-.628-.906-.807-1.364-.02-.04.01-.07.06-.09.339-.11.747-.438.737-.966 0-.787-.737-1.006-1.514-1.006-.359 0-.777.05-1.026.05-.31 0-.478-.05-.827-.05-.06 0-.18.04-.18.11 0 .089.11.149.22.169.369.06.518.259.518.627v2.43c0 .32-.28.42-.598.489-.09.01-.209.05-.209.14 0 .069.12.109.18.109.348 0 .587-.06.966-.06.318 0 .458.04.807.04.06 0 .179-.04.179-.11 0-.09-.12-.12-.21-.14-.318-.059-.448-.148-.448-.467v-.966c0-.08.11-.14.18-.14.269 0 .528.13.597.259.19.389.608 1.016.787 1.235.23.279.528.448.887.448zm-2.231-2.19c-.14 0-.22-.01-.22-.22v-1.255c0-.21.07-.25.3-.25.547 0 1.125.28 1.125.838.01.657-.528.886-1.206.886zm3.198 2.091c.408 0 .488-.05.807-.05.328 0 .398.05.806.05.07 0 .2-.01.2-.09 0-.1-.12-.14-.23-.18-.259-.079-.617-.178-.468-.597l.14-.378h1.335l.179.557c.09.29.01.37-.18.419-.109.03-.229.08-.229.18 0 .079.13.089.2.089.408 0 .388-.05.707-.05.349 0 .388.05.797.05.07 0 .2-.01.2-.09 0-.1-.12-.15-.23-.18-.389-.109-.518-.418-.667-.826l-1.086-3.008c-.04-.12-.09-.09-.21.05-.06.07-.249.289-.338.308-.03.2-.05.37-.12.578l-.886 2.291c-.15.379-.23.469-.697.608-.11.04-.23.08-.23.18 0 .079.13.089.2.089zm1.394-1.634l.508-1.394c.05-.15.07-.15.12 0l.448 1.394h-1.076zm6.167 1.773c.08 0 .12-.05.169-.159l1.295-2.948c.06-.13.12-.18.13-.02.06.936.07 1.872.07 2.33 0 .28-.2.33-.399.389-.11.04-.23.08-.23.18 0 .079.13.089.2.089.388 0 .458-.05.807-.05.349 0 .418.05.807.05.07 0 .2-.01.2-.09 0-.1-.12-.14-.23-.18-.2-.059-.428-.109-.438-.388-.04-1.075-.13-1.683-.13-2.769 0-.249.24-.319.438-.368.11-.03.23-.08.23-.18 0-.08-.13-.09-.2-.09-.05 0-.478.05-.777.05h-.329c-.05 0-.169.349-.268.578l-1.086 2.41c-.06.14-.1.11-.16-.019l-1.384-2.869c-.02-.04-.07-.12-.13-.12l-.408.01c-.1 0-.508-.04-.608-.04-.07 0-.209 0-.209.08 0 .1.13.17.239.19.27.06.478.199.448.527l-.279 2.62c-.03.27-.258.33-.458.389-.11.04-.259.07-.259.17 0 .079.13.089.2.089.388 0 .249-.05.597-.05.349 0 .339.05.727.05.07 0 .2-.01.2-.09 0-.1-.12-.14-.23-.18-.199-.059-.348-.109-.348-.378 0-.209.12-2.231.15-2.38.02-.1.05-.09.089 0l1.345 2.988c.05.11.12.18.219.18zm5.977-.03c1.485 0 2.302-1.056 2.302-2.171 0-1.206-1.116-2.092-2.302-2.092-1.145 0-2.181 1.046-2.181 2.132 0 1.165.986 2.131 2.181 2.131zm.15-.328c-1.016 0-1.514-.887-1.514-1.943 0-.856.468-1.703 1.315-1.703.936 0 1.534.976 1.534 1.892 0 .708-.3 1.754-1.335 1.754zm6.854.328c.15 0 .279-.119.279-.268v-3.218c0-.269.209-.339.408-.398.11-.04.23-.08.23-.18 0-.08-.12-.09-.2-.09-.249 0-.279.05-.627.05-.35 0-.389-.05-.638-.05-.08 0-.2.01-.2.09 0 .1.12.14.23.18.2.06.349.129.349.398.01.777.04 1.584.04 2.36 0 .1-.03.13-.05.13-.04 0-.1-.09-.13-.13l-2.022-2.868c-.05-.07-.08-.15-.16-.15-.338 0-.846-.03-1.165-.03-.07 0-.2.01-.2.09 0 .1.12.15.23.18.378.1.438.269.438.637a24.8 24.8 0 0 1-.11 2.39c-.02.25-.109.42-.318.499-.11.04-.23.08-.23.18 0 .079.12.089.2.089.389 0 .508-.05.727-.05.27 0 .27.05.658.05.08 0 .199-.01.199-.09 0-.1-.12-.14-.229-.18-.2-.059-.429-.109-.429-.388 0-.737-.04-1.524-.04-2.26 0-.05.03-.1.08-.1.04 0 .1.02.18.13l1.952 2.729c.07.099.309.268.548.268zm1.844-.109c.338 0 .537-.04.856-.05.299 0 .747.05.877.05 1.384 0 2.59-.797 2.6-2.102.01-1.494-.967-1.912-2.58-1.912-.16 0-.638.05-.867.04-.309 0-.478-.04-.817-.04-.06 0-.18.04-.18.109 0 .08.11.15.21.16.369.069.478.258.478.617v2.41c0 .31-.239.409-.548.469-.1.02-.209.06-.209.14 0 .069.11.109.18.109zm1.942-.25c-.359 0-.668-.228-.668-.547v-2.63c0-.249.26-.338.499-.338 1.115 0 1.753.607 1.753 1.753 0 .916-.588 1.763-1.584 1.763zM187.1-15.512c.398 0 .458-.05.807-.05.348 0 .408.05.806.05.07 0 .2-.01.2-.09 0-.1-.12-.14-.23-.18-.199-.059-.428-.109-.428-.388v-2.67c0-.268.13-.418.399-.467.12-.02.229-.08.229-.18 0-.08-.12-.09-.2-.09-.398 0-.448.05-.796.05-.349 0-.329-.05-.727-.05-.07 0-.2.01-.2.09 0 .1.11.16.23.18.248.04.368.179.368.468v2.67c0 .278-.23.328-.428.388-.11.04-.23.08-.23.18 0 .079.13.089.2.089zm6.465.11c.15 0 .279-.12.279-.27v-3.217c0-.269.209-.339.408-.398.11-.04.23-.08.23-.18 0-.08-.12-.09-.2-.09-.249 0-.279.05-.627.05-.35 0-.389-.05-.638-.05-.08 0-.2.01-.2.09 0 .1.12.14.23.18.2.06.349.129.349.398.01.777.04 1.584.04 2.36 0 .1-.03.13-.05.13-.04 0-.1-.09-.13-.13l-2.022-2.868c-.05-.07-.08-.15-.16-.15-.338 0-.846-.03-1.165-.03-.07 0-.2.01-.2.09 0 .1.12.15.23.18.378.1.438.269.438.637a24.8 24.8 0 0 1-.11 2.39c-.02.25-.109.42-.318.499-.11.04-.23.08-.23.18 0 .079.12.089.2.089.389 0 .508-.05.727-.05.27 0 .27.05.658.05.08 0 .199-.01.199-.09 0-.1-.12-.14-.229-.18-.2-.059-.429-.109-.429-.388 0-.737-.04-1.524-.04-2.26 0-.05.03-.1.08-.1.04 0 .1.02.18.13l1.952 2.729c.07.099.309.268.548.268zM197.347-15.492c.538 0 .787-.07 1.294-.07.38 0 .439.07.977.07.17 0 .289-.03.289-.11 0-.09-.1-.14-.329-.18-.498-.089-.667-.388-.667-.866v-4.751c0-.299.259-.419.637-.419.966 0 1.663.508 1.663 1.564 0 1.176-.408 1.873-1.205 1.873-.268 0-.398-.02-.458-.02-.07 0-.16.09-.16.14 0 .08.16.189.449.189 1.524 0 2.231-1.026 2.231-2.251 0-1.116-1.006-1.773-2.52-1.773-.279 0-.707.06-1.106.06-.408 0-.438-.01-.976-.01-.17 0-.288.03-.288.109 0 .09.099.16.328.199.498.09.608.398.608.996v4.204c0 .488-.23.667-.727.757-.23.04-.33.09-.33.18 0 .079.12.109.29.109zm5.22-.02c.409 0 .488-.05.807-.05.329 0 .398.05.807.05.07 0 .199-.01.199-.09 0-.1-.12-.14-.23-.18-.258-.079-.617-.178-.467-.597l.14-.378h1.334l.18.557c.089.29.01.37-.18.419-.11.03-.23.08-.23.18 0 .079.13.089.2.089.409 0 .388-.05.707-.05.349 0 .389.05.797.05.07 0 .2-.01.2-.09 0-.1-.12-.15-.23-.18-.388-.109-.518-.418-.667-.826l-1.086-3.008c-.04-.12-.09-.09-.209.05-.06.07-.25.289-.339.308-.03.2-.05.37-.12.578l-.886 2.291c-.15.379-.229.469-.697.608-.11.04-.23.08-.23.18 0 .079.13.089.2.089zm1.395-1.634l.508-1.394c.05-.15.07-.15.12 0l.447 1.394h-1.075zm7.242 1.733c.279 0 .667-.08.667-.179 0-.1-.099-.12-.169-.13-.139-.02-.607-.208-.797-.438-.279-.318-.627-.906-.807-1.364-.02-.04.01-.07.06-.09.339-.11.747-.438.737-.966 0-.787-.737-1.006-1.514-1.006-.359 0-.777.05-1.026.05-.309 0-.478-.05-.827-.05-.059 0-.179.04-.179.11 0 .089.11.149.219.169.369.06.518.259.518.627v2.43c0 .32-.279.42-.598.489-.089.01-.209.05-.209.14 0 .069.12.109.18.109.348 0 .587-.06.966-.06.319 0 .458.04.807.04.059 0 .179-.04.179-.11 0-.09-.12-.12-.209-.14-.319-.059-.448-.148-.448-.467v-.966c0-.08.109-.14.179-.14.269 0 .528.13.598.259.189.389.607 1.016.786 1.235.229.279.529.448.887.448zm-2.231-2.19c-.14 0-.219-.01-.219-.22v-1.255c0-.21.069-.25.298-.25.548 0 1.126.28 1.126.838.01.657-.528.886-1.205.886zm3.547 2.091c.398 0 .458-.05.807-.05.348 0 .408.05.806.05.07 0 .199-.01.199-.09 0-.1-.119-.14-.229-.18-.199-.059-.428-.109-.428-.388v-2.67c0-.268.13-.418.398-.467.12-.02.229-.08.229-.18 0-.08-.119-.09-.199-.09-.398 0-.448.05-.796.05-.349 0-.329-.05-.728-.05-.069 0-.199.01-.199.09 0 .1.11.16.229.18.249.04.369.179.369.468v2.67c0 .278-.229.328-.429.388-.109.04-.229.08-.229.18 0 .079.13.089.2.089zm3.815.1c1.016 0 1.604-.668 1.604-1.166 0-.448-.269-.777-.668-1.016l-.767-.468c-.338-.21-.528-.369-.528-.767 0-.349.309-.548.728-.548.338 0 .687.199.816.657.02.09.1.18.17.18.069 0 .119-.13.119-.18-.01-.229-.02-.518-.069-.737 0-.05-.05-.11-.11-.12-.139-.02-.428-.099-.856-.099-.698 0-1.435.369-1.435 1.066 0 .498.309.817.767 1.105l.697.449c.299.19.409.438.409.697 0 .379-.249.638-.817.638-.558 0-.857-.538-.996-.797-.04-.07-.07-.23-.18-.23-.099 0-.089.16-.089.21.01.23.089.717.159.857.02.03 0 .06.1.08.219.039.458.188.946.188zM10.859-8.538v-.727c0-.309-.06-.408-.399-.408H6.665c-.16 0-.408 0-.408.309 0 .298.259.298.408.298h.329v4.872h-.329c-.16 0-.408 0-.408.308 0 .299.259.299.408.299H8.2c.15 0 .399 0 .399-.299 0-.308-.24-.308-.399-.308h-.518v-2.132h1.355c0 .408 0 .567.349.567.338 0 .338-.219.338-.408v-.926c0-.19 0-.409-.338-.409-.349 0-.349.16-.349.568H7.681v-2.132h2.49v.528c0 .19 0 .409.34.409.348 0 .348-.21.348-.409zm5.52 4.642c0-.298-.25-.298-.4-.298-.418 0-.517-.05-.597-.08v-2.152c0-.707-.538-1.544-1.972-1.544-.429 0-1.445 0-1.445.727 0 .3.21.459.449.459.149 0 .428-.09.438-.459 0-.08.01-.09.21-.11.138-.01.268-.01.358-.01.757 0 1.275.31 1.275 1.017-1.763.03-2.989.528-2.989 1.484 0 .687.628 1.335 1.644 1.335.369 0 .986-.07 1.454-.379.22.309.698.319 1.076.319.279 0 .498 0 .498-.309zm-1.684-1.026c0 .23 0 .438-.389.618-.358.17-.807.17-.886.17-.618 0-1.026-.34-1.026-.728 0-.488.856-.857 2.3-.897v.837zm6.804 1.036c0-.308-.26-.308-.408-.308h-.31l-1.484-1.933 1.226-1.146h.348c.15 0 .409 0 .409-.298 0-.31-.26-.31-.409-.31h-1.534c-.159 0-.398 0-.398.31 0 .298.249.298.398.298h.369l-1.614 1.514v-3.506c0-.309-.06-.408-.398-.408h-.648c-.15 0-.398 0-.398.299 0 .308.239.308.398.308h.488v4.872h-.488c-.15 0-.398 0-.398.298 0 .309.239.309.398.309h1.534c.15 0 .399 0 .399-.299 0-.308-.24-.308-.399-.308h-.488v-.807l.797-.738 1.186 1.545c-.36 0-.558 0-.558.308 0 .299.249.299.398.299h1.176c.149 0 .408 0 .408-.299zm4.792-.787c0-.279-.289-.279-.349-.279-.179 0-.259.03-.328.22-.22.508-.758.597-1.036.597-.747 0-1.495-.498-1.654-1.354h2.968c.21 0 .399 0 .399-.37 0-1.135-.638-2.11-1.933-2.11-1.185 0-2.141.995-2.141 2.22 0 1.216 1.006 2.222 2.291 2.222 1.315 0 1.783-.897 1.783-1.146zm-.707-1.414h-2.65c.14-.727.727-1.275 1.424-1.275.518 0 1.136.249 1.226 1.275zm6.415 2.191c0-.298-.258-.298-.398-.298h-.448v-5.07c0-.31-.06-.41-.399-.41h-.727c-.16 0-.408 0-.408.31 0 .298.259.298.398.298h.449v1.574A1.759 1.759 0 0 0 29.3-7.94c-1.086 0-2.042.946-2.042 2.211 0 1.235.896 2.202 1.952 2.202.558 0 .976-.269 1.256-.558 0 .359 0 .498.398.498h.727c.16 0 .408 0 .408-.309zm-1.533-1.623c0 .557-.449 1.384-1.216 1.384-.707 0-1.305-.707-1.305-1.594 0-.956.697-1.603 1.395-1.603.637 0 1.126.558 1.126 1.105v.708zM42.113-7.85c0-.927-.737-1.823-1.883-1.823h-2.231c-.15 0-.409 0-.409.299 0 .308.26.308.409.308h.299v4.872h-.3c-.159 0-.408 0-.408.308 0 .299.26.299.409.299h1.285c.15 0 .408 0 .408-.299 0-.308-.259-.308-.408-.308h-.3v-1.834h1.246c1.155 0 1.883-.896 1.883-1.822zm-.688 0c0 .528-.428 1.215-1.384 1.215h-1.056v-2.43h1.056c.956 0 1.384.687 1.384 1.215zm5.758 3.177c0-.279-.288-.279-.348-.279-.18 0-.26.03-.329.22-.219.508-.757.597-1.036.597-.747 0-1.494-.498-1.653-1.354h2.968c.21 0 .398 0 .398-.37 0-1.135-.637-2.11-1.932-2.11-1.185 0-2.142.995-2.142 2.22 0 1.216 1.007 2.222 2.292 2.222 1.314 0 1.782-.897 1.782-1.146zm-.707-1.414h-2.65c.14-.727.728-1.275 1.425-1.275.518 0 1.136.249 1.225 1.275zm5.788 1.245c0-.18 0-.389-.348-.389-.329 0-.339.21-.339.379-.01.618-.578.717-.807.717-.767 0-.767-.518-.767-.767v-2.37h1.634c.15 0 .398 0 .398-.3 0-.308-.239-.308-.398-.308h-1.634v-.817c0-.19 0-.408-.338-.408-.35 0-.35.209-.35.408v.817h-.866c-.159 0-.408 0-.408.309 0 .298.249.298.398.298h.877v2.431c0 .956.677 1.315 1.405 1.315.737 0 1.543-.428 1.543-1.315zm5.29.956c0-.308-.258-.308-.408-.308H56.1v-3.278c0-.309-.06-.408-.398-.408h-1.415c-.15 0-.408 0-.408.299 0 .308.259.308.408.308h1.126v3.079h-1.205c-.16 0-.409 0-.409.308 0 .299.26.299.409.299h2.938c.15 0 .409 0 .409-.299zm-1.414-5.23c0-.278-.22-.498-.498-.498a.493.493 0 0 0-.498.499c0 .278.22.498.498.498.279 0 .498-.22.498-.498zm6.585 4.274c0-.18 0-.389-.348-.389-.33 0-.34.21-.34.379-.01.618-.577.717-.806.717-.767 0-.767-.518-.767-.767v-2.37h1.634c.149 0 .398 0 .398-.3 0-.308-.24-.308-.398-.308h-1.634v-.817c0-.19 0-.408-.339-.408-.348 0-.348.209-.348.408v.817h-.867c-.16 0-.408 0-.408.309 0 .298.249.298.398.298h.877v2.431c0 .956.677 1.315 1.404 1.315.737 0 1.544-.428 1.544-1.315zm5.38.17c0-.28-.29-.28-.349-.28-.18 0-.259.03-.328.22-.22.508-.758.597-1.036.597-.748 0-1.495-.498-1.654-1.354h2.968c.21 0 .399 0 .399-.37 0-1.135-.638-2.11-1.933-2.11-1.185 0-2.141.995-2.141 2.22 0 1.216 1.006 2.222 2.29 2.222 1.316 0 1.784-.897 1.784-1.146zm-.707-1.415h-2.65c.14-.727.727-1.275 1.424-1.275.518 0 1.136.249 1.226 1.275zM78.742-5.26c0-.33-.239-.33-.349-.33-.09 0-.318 0-.338.29-.07.976-.877 1.215-1.285 1.215-.907 0-1.763-1.056-1.763-2.55 0-1.484.866-2.54 1.753-2.54.598 0 1.145.458 1.285 1.265.03.17.05.329.348.329.35 0 .35-.21.35-.409v-1.384c0-.16 0-.409-.3-.409-.179 0-.229.1-.279.17-.02.04-.02.06-.149.308a2.02 2.02 0 0 0-1.295-.478c-1.285 0-2.4 1.335-2.4 3.148 0 1.823 1.115 3.158 2.41 3.158 1.156 0 2.012-.887 2.012-1.783zm5.58 1.364c0-.298-.25-.298-.4-.298-.418 0-.517-.05-.597-.08v-2.152c0-.707-.538-1.544-1.972-1.544-.429 0-1.445 0-1.445.727 0 .3.21.459.449.459.149 0 .428-.09.438-.459 0-.08.01-.09.21-.11.138-.01.268-.01.358-.01.757 0 1.275.31 1.275 1.017-1.763.03-2.989.528-2.989 1.484 0 .687.628 1.335 1.644 1.335.369 0 .986-.07 1.454-.379.22.309.698.319 1.076.319.279 0 .498 0 .498-.309zm-1.684-1.026c0 .23 0 .438-.389.618-.358.17-.807.17-.886.17-.618 0-1.026-.34-1.026-.728 0-.488.856-.857 2.3-.897v.837zm6.605-.817c0-1.225-.887-2.201-1.943-2.201-.478 0-.926.18-1.265.488 0-.289-.02-.428-.398-.428h-.728c-.159 0-.408 0-.408.309 0 .298.259.298.399.298h.448v5.29h-.439c-.159 0-.408 0-.408.309 0 .298.259.298.399.298h1.583c.14 0 .399 0 .399-.298 0-.31-.25-.31-.409-.31h-.438v-2.051c.408.418.837.508 1.156.508 1.085 0 2.052-.947 2.052-2.212zm-.688 0c0 .957-.697 1.604-1.394 1.604-.777 0-1.126-.876-1.126-1.354v-.728c0-.587.578-1.115 1.205-1.115.738 0 1.315.727 1.315 1.593zm5.63.907c0-1.036-1.286-1.245-1.605-1.295l-.677-.12c-.289-.04-.966-.159-.966-.547 0-.26.319-.568 1.265-.568.826 0 .966.298.996.558.01.169.03.338.339.338.348 0 .348-.21.348-.408v-.687c0-.16 0-.409-.299-.409-.239 0-.278.14-.298.21-.439-.21-.877-.21-1.066-.21-1.664 0-1.893.817-1.893 1.176 0 .916 1.046 1.085 1.963 1.225.488.08 1.285.209 1.285.737 0 .368-.37.697-1.276.697-.468 0-1.026-.11-1.275-.886-.05-.18-.09-.29-.348-.29-.349 0-.349.21-.349.409v.966c0 .16 0 .409.299.409.09 0 .249-.01.369-.379.488.359 1.016.379 1.295.379 1.573 0 1.892-.827 1.892-1.305zM110.903-3.438c.648 0 1.395-.09 1.883-.288.209-.07.219-.08.319-.27.12-.288.269-.806.269-.966 0-.209-.25-.199-.34-.03-.438.788-1.025 1.246-1.981 1.246-1.654 0-2.74-1.674-2.74-3.298 0-1.464 1.116-2.839 2.67-2.839.548 0 1.036.12 1.364.34.35.238.489.597.618 1.105.06.23.349.14.339-.01-.02-.518-.06-.837-.09-1.146-.02-.179-.09-.289-.289-.338-.677-.17-1.006-.26-1.773-.26-2.042 0-3.845 1.455-3.845 3.388 0 2.032 1.734 3.366 3.596 3.366zM114.198-3.557c.132 0 .574-.03.837-.03.67 0 1.584.03 2.063.03.065 0 .09-.054.095-.108.03-.28.078-.454.174-.795 0-.018.012-.072.012-.09 0-.047-.024-.113-.078-.113-.048 0-.096.066-.15.185-.09.198-.173.33-.316.454a.647.647 0 0 1-.437.168h-.652c-.292 0-.37-.102-.37-.335v-2.732c0-.233.137-.293.454-.37.102-.025.15-.055.15-.12 0-.054-.054-.084-.132-.084-.281 0-.586.024-.849.024-.245 0-.502-.024-.795-.024-.072 0-.138.03-.138.078 0 .065.054.107.156.125.305.066.383.12.383.389v2.75c0 .251-.132.329-.419.4-.054.013-.126.055-.126.114 0 .042.054.084.138.084zM118.274-3.557c.227 0 .448-.036.693-.036.234 0 .425.018.622.018.09 0 .144-.03.144-.078 0-.066-.054-.101-.162-.125-.293-.072-.4-.18-.358-.4.036-.162.155-.533.22-.73.019-.072.049-.108.102-.108h1.077c.083 0 .107.024.125.09.078.263.173.61.21.813.035.191-.096.275-.383.329-.09.018-.162.06-.162.125 0 .054.066.084.15.084.209 0 .568-.024.807-.024.269 0 .705.03.92.03.078 0 .138-.018.138-.072 0-.072-.06-.108-.161-.131-.24-.06-.425-.162-.532-.485-.287-.867-.7-2.098-1.053-3.228-.018-.054-.03-.102-.053-.15-.019-.035-.048-.03-.072-.011-.042.047-.12.155-.233.209-.126.054-.222.078-.341.108-.024.06-.042.185-.132.436a44.89 44.89 0 0 1-1.064 2.69.716.716 0 0 1-.508.419c-.096.035-.162.071-.162.137 0 .066.072.09.168.09zm1.423-1.734c-.06 0-.114-.012-.114-.054 0-.018.006-.035.012-.048l.502-1.386c.018-.042.03-.078.042-.078.012 0 .024.03.042.083l.418 1.381c.006.03.013.042.013.066 0 .03-.024.036-.084.036h-.831zM125.16-3.503c.885 0 1.579-.67 1.59-1.626.013-.539.013-1.035.049-1.662.011-.275.095-.437.34-.503.12-.03.18-.065.18-.125s-.072-.078-.162-.078c-.203 0-.31.018-.52.018-.185 0-.287-.012-.538-.012-.108 0-.173.024-.173.084 0 .065.137.095.221.131.209.09.28.287.293.747.012.395.012.891.012 1.19 0 .897-.365 1.387-1.118 1.387-.598 0-1.065-.388-1.065-1.249v-1.608c0-.251.126-.401.24-.449.125-.054.245-.077.245-.155 0-.054-.066-.078-.161-.078-.198 0-.485.018-.7.018-.233 0-.484-.024-.705-.024-.096 0-.168.03-.168.078 0 .06.054.101.18.131.179.048.292.228.292.467v1.745c0 .945.563 1.573 1.668 1.573zM130.347-3.545c1.28 0 2.116-.969 2.116-2.063 0-1.106-.83-1.919-2.17-1.919-.25 0-.908.054-1.154.054-.263 0-.514-.024-.795-.024-.071 0-.137.03-.137.084 0 .071.054.101.155.12.305.065.395.149.395.418v2.702c0 .263-.096.347-.395.407-.101.024-.155.047-.155.12 0 .053.066.083.137.083.287 0 .538-.024.778-.024.298 0 .908.042 1.225.042zm-.084-.275c-.43 0-.729-.114-.729-.532v-2.63c0-.264.227-.27.658-.27.819 0 1.41.694 1.41 1.782 0 .986-.49 1.65-1.339 1.65zM133.646-3.557c.275 0 .532-.03.784-.03.663 0 1.53.024 1.919.024.053 0 .095-.03.119-.084.078-.233.186-.58.186-.747 0-.048-.018-.096-.06-.102-.048 0-.078.018-.108.078-.108.203-.21.365-.34.466-.12.09-.282.12-.485.12h-.49c-.233 0-.341-.084-.341-.347v-1.136c0-.107.054-.143.167-.143h.556c.156 0 .233.113.293.334.024.102.078.168.138.168.048 0 .065-.048.06-.138a6.13 6.13 0 0 1-.018-.484c0-.131.012-.34.023-.46 0-.078-.041-.12-.077-.12-.048 0-.09.042-.114.12-.065.203-.125.334-.347.334h-.544c-.083 0-.137-.041-.137-.137v-1.172c0-.15.15-.239.287-.239h.556c.191 0 .323.072.424.18.072.071.12.215.186.394.024.054.054.084.095.084.042 0 .084-.036.084-.108 0-.191-.06-.454-.096-.723-.012-.072-.083-.09-.137-.09-.03 0-.221.024-.478.03-.33.006-.777.012-1.136.012-.323 0-.604-.024-.95-.024-.084 0-.144.03-.144.084 0 .048.042.095.155.12.293.06.383.149.383.418v2.708c0 .263-.12.341-.4.413-.103.024-.156.065-.156.113s.06.084.143.084zM142.673-3.448c1.265 0 2.171-.637 2.37-.667.14-.02.14-.14.14-.19 0-.049-.09-.099-.13-.169-.03-.06-.06-.09-.06-.159v-.269c0-.249.01-.458.05-.747.04-.269.13-.408.42-.488.049-.01.208-.09.208-.18 0-.129-.16-.159-.209-.159-.359 0-.538.04-.886.04-.549 0-.768-.04-1.256-.04-.05 0-.199.07-.199.17s.15.169.2.169c.199 0 .806.09.975.309.04.05.05.16.05.299 0 .179-.02.408-.02.577 0 .35-.149.618-.299.767-.119.12-.448.369-1.215.369-1.325 0-2.61-1.106-2.61-2.998 0-1.574 1.046-2.999 2.59-2.999.947 0 1.455.369 1.584.528.16.19.23.319.309.528.04.12.09.27.229.27.08 0 .15-.1.15-.2 0-.259-.05-.667-.1-1.056-.01-.07-.03-.09-.09-.12-.269-.129-1.534-.328-1.992-.328-1.982 0-3.666 1.534-3.666 3.506 0 1.843 1.614 3.237 3.457 3.237zM146.173-3.557c.228 0 .449-.036.694-.036.233 0 .425.018.622.018.09 0 .143-.03.143-.078 0-.066-.054-.101-.161-.125-.293-.072-.4-.18-.359-.4.036-.162.156-.533.221-.73.018-.072.048-.108.102-.108h1.076c.084 0 .108.024.126.09.077.263.173.61.209.813.036.191-.096.275-.383.329-.09.018-.161.06-.161.125 0 .054.066.084.15.084.209 0 .567-.024.806-.024.27 0 .706.03.921.03.078 0 .138-.018.138-.072 0-.072-.06-.108-.162-.131-.239-.06-.424-.162-.532-.485-.287-.867-.7-2.098-1.052-3.228-.018-.054-.03-.102-.054-.15-.018-.035-.048-.03-.072-.011-.042.047-.12.155-.233.209-.125.054-.221.078-.34.108-.024.06-.042.185-.132.436a44.896 44.896 0 0 1-1.064 2.69.716.716 0 0 1-.508.419c-.096.035-.162.071-.162.137 0 .066.072.09.167.09zm1.423-1.734c-.06 0-.113-.012-.113-.054 0-.018.006-.035.012-.048l.502-1.386c.018-.042.03-.078.042-.078.012 0 .024.03.042.083l.418 1.381c.006.03.012.042.012.066 0 .03-.024.036-.083.036h-.832zM154.794-3.461c.323 0 .633-.078.633-.317 0-.06-.03-.09-.09-.09-.28 0-.537-.006-.783-.239-.442-.407-.759-.867-1.117-1.417-.024-.024-.03-.06 0-.072.352-.137.753-.412.753-.95 0-.652-.514-.969-1.423-.969-.4 0-.52.048-.783.048-.281 0-.37-.03-.73-.03-.09 0-.143.03-.143.084 0 .048.042.101.155.12.311.053.365.13.365.478v2.642c0 .263-.114.347-.418.407-.102.024-.15.06-.15.125 0 .048.066.078.138.078.293 0 .573-.036.843-.036.233 0 .532.03.819.03.077 0 .125-.024.125-.078 0-.066-.048-.095-.15-.12-.322-.059-.436-.185-.436-.436v-1.112c0-.072.018-.125.072-.12a.8.8 0 0 1 .293.078c.09.048.143.114.197.204.311.574.526.867.795 1.22.228.292.509.472 1.035.472zm-2.135-2.147c-.161 0-.257-.041-.257-.22 0-.413 0-.712.006-.898.006-.442.066-.556.275-.556.544 0 .724.323.724.855 0 .46-.263.82-.748.82zM156.363-3.557c.227 0 .449-.036.694-.036.233 0 .424.018.622.018.09 0 .143-.03.143-.078 0-.066-.054-.101-.161-.125-.293-.072-.401-.18-.36-.4.037-.162.156-.533.222-.73.018-.072.048-.108.102-.108h1.076c.083 0 .108.024.125.09.078.263.174.61.21.813.036.191-.096.275-.383.329-.09.018-.161.06-.161.125 0 .054.065.084.149.084.21 0 .568-.024.807-.024.27 0 .706.03.92.03.079 0 .138-.018.138-.072 0-.072-.06-.108-.161-.131-.24-.06-.425-.162-.532-.485-.287-.867-.7-2.098-1.052-3.228-.018-.054-.03-.102-.054-.15-.018-.035-.048-.03-.072-.011-.042.047-.12.155-.233.209-.126.054-.221.078-.341.108-.024.06-.042.185-.131.436a44.836 44.836 0 0 1-1.065 2.69.716.716 0 0 1-.508.419c-.095.035-.161.071-.161.137 0 .066.072.09.167.09zm1.423-1.734c-.06 0-.113-.012-.113-.054 0-.018.006-.035.011-.048l.503-1.386c.018-.042.03-.078.041-.078.012 0 .024.03.042.083l.419 1.381c.006.03.012.042.012.066 0 .03-.024.036-.084.036h-.831zM161.456-3.563c.15 0 .365-.03.61-.03.233 0 .269.024.592.024.078 0 .155-.024.155-.078 0-.066-.072-.095-.173-.12-.287-.059-.424-.22-.424-.436 0-.687.017-1.423.09-2.098.005-.072.065-.09.089-.03.394.938.8 1.823 1.171 2.75.024.06.114.084.15 0l1.22-2.75c.03-.06.065-.066.071-.006.03.723.054 1.393.072 2.17.012.263-.078.353-.353.4-.101.018-.161.06-.161.126 0 .048.066.078.15.078.286 0 .531-.03.777-.03.25 0 .562.024.843.024.077 0 .143-.024.143-.078 0-.066-.06-.095-.161-.12-.27-.059-.425-.179-.437-.4-.065-.992-.113-1.537-.143-2.678-.012-.21.078-.3.245-.377.066-.03.161-.066.227-.09.096-.036.144-.06.144-.125 0-.06-.072-.078-.138-.078-.185 0-.562.048-.867.06h-.245c-.042 0-.066.024-.078.078-.03.107-.071.287-.12.514l-.962 2.14c-.018.048-.072.036-.09-.012l-.896-2.188c-.06-.161-.096-.299-.15-.448-.018-.054-.071-.102-.131-.102-.305 0-.85-.042-1.059-.042-.101 0-.173.018-.173.084s.06.107.144.125c.15.036.263.072.376.15.09.06.12.137.126.25v.204a36.356 36.356 0 0 1-.24 2.481c-.035.257-.179.413-.37.472-.102.025-.173.042-.173.108 0 .048.054.078.15.078zM169.601-3.503c1.37 0 2.1-1.01 2.1-2.087 0-1.178-.964-1.967-2.046-1.967-1.369 0-2.098 1.01-2.098 2.087 0 1.177.956 1.967 2.044 1.967zm.102-.263c-.885 0-1.291-.987-1.291-2.01 0-.902.382-1.512 1.136-1.512.879 0 1.297.975 1.297 2.003 0 .903-.383 1.519-1.142 1.519zM176.66-3.48c.089 0 .155-.053.155-.227 0-.09-.054-.442-.054-.723 0-.747.042-1.997.042-2.511.006-.221.101-.299.388-.353.114-.024.174-.06.174-.125 0-.048-.066-.078-.162-.078-.328 0-.4.018-.657.018-.168 0-.27-.006-.503-.006-.077 0-.179.024-.179.078 0 .065.096.101.197.125.228.048.407.162.413.36.012.77.006 1.727.006 2.14 0 .065-.024.101-.054.101-.036 0-.084-.06-.114-.096-.46-.514-1.811-2.116-2.271-2.636-.03-.042-.066-.078-.126-.078-.43 0-.735-.024-1.082-.03-.072 0-.15.018-.15.09s.114.12.174.137c.317.114.556.257.556.67 0 .986-.072 1.925-.114 2.373-.024.24-.12.419-.323.485-.101.03-.167.06-.167.125 0 .048.084.078.156.078.143 0 .298-.03.55-.03.233 0 .304.024.627.024.078 0 .162-.024.162-.078 0-.066-.078-.095-.18-.12-.31-.065-.448-.22-.448-.472 0-.651-.012-1.572-.006-2.134 0-.048.012-.12.048-.12.024 0 .06.03.095.072.49.532 1.794 2.02 2.266 2.541.233.293.485.4.58.4zM180.406-3.545c1.279 0 2.116-.969 2.116-2.063 0-1.106-.831-1.919-2.17-1.919-.251 0-.909.054-1.154.054-.263 0-.514-.024-.795-.024-.072 0-.138.03-.138.084 0 .071.054.101.156.12.305.065.394.149.394.418v2.702c0 .263-.095.347-.394.407-.102.024-.156.047-.156.12 0 .053.066.083.138.083.287 0 .538-.024.777-.024.299 0 .909.042 1.226.042zm-.084-.275c-.43 0-.73-.114-.73-.532v-2.63c0-.264.228-.27.658-.27.82 0 1.411.694 1.411 1.782 0 .986-.49 1.65-1.34 1.65zM184.924-3.563c.287 0 .568-.03.837-.03.251 0 .538.024.825.024.078 0 .132-.024.132-.078 0-.066-.054-.095-.156-.12-.305-.071-.424-.16-.424-.406v-2.702c0-.257.09-.341.406-.419.102-.024.15-.054.15-.12 0-.053-.054-.083-.132-.083-.28 0-.556.024-.8.024-.258 0-.521-.024-.808-.024-.072 0-.138.03-.138.078 0 .065.048.107.15.125.31.066.4.15.4.413v2.714c0 .257-.125.341-.43.4-.102.025-.15.06-.15.126 0 .048.066.078.138.078zM191.569-3.48c.09 0 .155-.053.155-.227 0-.09-.054-.442-.054-.723 0-.747.042-1.997.042-2.511.006-.221.102-.299.389-.353.113-.024.173-.06.173-.125 0-.048-.066-.078-.161-.078-.329 0-.4.018-.658.018-.167 0-.269-.006-.502-.006-.078 0-.18.024-.18.078 0 .065.096.101.198.125.227.048.407.162.412.36.012.77.006 1.727.006 2.14 0 .065-.024.101-.053.101-.036 0-.084-.06-.114-.096-.46-.514-1.812-2.116-2.272-2.636-.03-.042-.065-.078-.125-.078-.43 0-.736-.024-1.082-.03-.072 0-.15.018-.15.09s.114.12.173.137c.317.114.556.257.556.67 0 .986-.071 1.925-.113 2.373-.024.24-.12.419-.323.485-.101.03-.167.06-.167.125 0 .048.083.078.155.078.144 0 .299-.03.55-.03.233 0 .305.024.628.024.078 0 .161-.024.161-.078 0-.066-.078-.095-.18-.12-.31-.065-.448-.22-.448-.472 0-.651-.012-1.572-.006-2.134 0-.048.012-.12.048-.12.024 0 .06.03.096.072.49.532 1.794 2.02 2.266 2.541.233.293.484.4.58.4zM194.867-3.537c.538 0 .787-.07 1.295-.07.379 0 .438.07.976.07.17 0 .29-.03.29-.11 0-.09-.1-.14-.33-.179-.498-.09-.667-.388-.667-.867v-4.751c0-.299.259-.419.637-.419.967 0 1.664.509 1.664 1.564 0 1.176-.409 1.873-1.205 1.873-.27 0-.399-.02-.459-.02-.07 0-.159.09-.159.14 0 .08.16.189.448.189 1.524 0 2.232-1.026 2.232-2.251 0-1.116-1.007-1.773-2.52-1.773-.28 0-.708.06-1.106.06-.409 0-.439-.01-.976-.01-.17 0-.29.03-.29.109 0 .09.1.16.33.2.497.089.607.398.607.995v4.204c0 .488-.229.667-.727.757-.23.04-.329.09-.329.18 0 .079.12.109.289.109zM199.981-3.557c.228 0 .449-.036.694-.036.233 0 .425.018.622.018.09 0 .143-.03.143-.078 0-.066-.054-.101-.161-.125-.293-.072-.4-.18-.359-.4.036-.162.156-.533.221-.73.018-.072.048-.108.102-.108h1.076c.084 0 .108.024.126.09.077.263.173.61.209.813.036.191-.096.275-.383.329-.09.018-.161.06-.161.125 0 .054.066.084.15.084.209 0 .567-.024.806-.024.27 0 .706.03.921.03.078 0 .138-.018.138-.072 0-.072-.06-.108-.162-.131-.239-.06-.424-.162-.532-.485-.287-.867-.7-2.098-1.052-3.228-.018-.054-.03-.102-.054-.15-.018-.035-.048-.03-.072-.011-.042.047-.12.155-.233.209-.125.054-.221.078-.34.108-.024.06-.042.185-.132.436a44.897 44.897 0 0 1-1.064 2.69.716.716 0 0 1-.508.419c-.096.035-.162.071-.162.137 0 .066.072.09.167.09zm1.423-1.734c-.06 0-.113-.012-.113-.054 0-.018.006-.035.012-.048l.502-1.386c.018-.042.03-.078.042-.078.012 0 .024.03.042.083l.418 1.381c.006.03.012.042.012.066 0 .03-.024.036-.083.036h-.832zM208.602-3.461c.323 0 .633-.078.633-.317 0-.06-.03-.09-.09-.09-.28 0-.537-.006-.783-.239-.442-.407-.759-.867-1.117-1.417-.024-.024-.03-.06 0-.072.352-.137.753-.412.753-.95 0-.652-.514-.969-1.423-.969-.4 0-.52.048-.783.048-.281 0-.37-.03-.73-.03-.09 0-.143.03-.143.084 0 .048.042.101.155.12.311.053.365.13.365.478v2.642c0 .263-.114.347-.418.407-.102.024-.15.06-.15.125 0 .048.066.078.138.078.293 0 .573-.036.843-.036.233 0 .532.03.819.03.077 0 .125-.024.125-.078 0-.066-.048-.095-.15-.12-.322-.059-.436-.185-.436-.436v-1.112c0-.072.018-.125.072-.12a.8.8 0 0 1 .293.078c.09.048.143.114.197.204.311.574.526.867.795 1.22.228.292.509.472 1.035.472zm-2.135-2.147c-.161 0-.257-.041-.257-.22 0-.413 0-.712.006-.898.006-.442.066-.556.275-.556.544 0 .724.323.724.855 0 .46-.263.82-.748.82zM210.16-3.563c.286 0 .567-.03.836-.03.251 0 .538.024.825.024.078 0 .132-.024.132-.078 0-.066-.054-.095-.156-.12-.304-.071-.424-.16-.424-.406v-2.702c0-.257.09-.341.407-.419.101-.024.149-.054.149-.12 0-.053-.054-.083-.132-.083-.28 0-.556.024-.8.024-.258 0-.52-.024-.808-.024-.072 0-.137.03-.137.078 0 .065.048.107.15.125.31.066.4.15.4.413v2.714c0 .257-.126.341-.43.4-.102.025-.15.06-.15.126 0 .048.066.078.137.078zM214.042-3.497c.83 0 1.387-.407 1.387-1.196 0-.556-.311-.86-.88-1.208-.471-.28-.818-.502-.818-.813 0-.406.24-.586.604-.586s.615.251.759.706c.018.054.09.09.162.09.06 0 .101-.025.101-.072 0-.257-.042-.497-.09-.664-.03-.102-.065-.143-.149-.173a1.882 1.882 0 0 0-.718-.144c-.807 0-1.35.467-1.35 1.13 0 .652.52.933 1.01 1.22.448.257.675.412.675.831 0 .329-.22.634-.615.634-.419 0-.778-.353-.951-.95-.018-.055-.048-.073-.114-.073-.065 0-.113.024-.113.078-.006.27.012.592.078.79a.36.36 0 0 0 .113.137c.257.179.568.263.909.263z"/></svg>