<svg xmlns="http://www.w3.org/2000/svg" xmlns:xlink="http://www.w3.org/1999/xlink" width="672.04" height="435.85" viewBox="0 0 504.03 326.89"><defs><style>*{stroke-linejoin:round;stroke-linecap:butt}</style></defs><g id="figure_1"><path id="patch_1" d="M0 326.89h504.03V0H0z"/><g id="axes_1"><path id="patch_2" d="M50.43 276.48h446.4V7.2H50.43z" style="fill:#2d2d2d"/><g id="matplotlib.axis_1"><g id="xtick_1"><path id="line2d_1" d="M73.16 276.48V7.2" clip-path="url(#p80b14a2701)" style="fill:none;stroke:#525252;stroke-linecap:round"/><g id="text_1" style="fill:#fcfcfc" transform="scale(.1 -.1) rotate(30 5905.06 -614.1)"><defs><path id="Inter-31" d="M2118 4655V0h-563v4064h-28L391 3309v573l1164 773h563z" transform="scale(.01563)"/><path id="Inter-32" d="M482 0v409l1536 1682q271 295 446 514 175 220 260 414 85 195 85 408 0 246-117 425-117 180-319 277-202 98-455 98-268 0-467-110t-307-308q-108-198-108-464H500q0 410 188 719 189 309 515 481 327 173 733 173 410 0 725-173 316-172 495-466 180-293 180-652 0-257-92-501t-318-543q-226-299-626-728L1255 536v-36h2163V0H482z" transform="scale(.01563)"/><path id="Inter-2d" d="M2491 2245v-500H455v500h2036z" transform="scale(.01563)"/></defs><use xlink:href="#Inter-31"/><use xlink:href="#Inter-32" x="46.45"/><use xlink:href="#Inter-2d" x="106.96"/><use xlink:href="#Inter-32" x="152.98"/><use xlink:href="#Inter-32" x="213.49"/></g></g><g id="xtick_2"><path id="line2d_3" d="M131.72 276.48V7.2" clip-path="url(#p80b14a2701)" style="fill:none;stroke:#525252;stroke-linecap:round"/><g id="text_2" style="fill:#fcfcfc" transform="scale(.1 -.1) rotate(30 6199.4 472.72)"><defs><path id="Inter-33" d="M2055-64q-450 0-802 154-351 155-557 431-205 277-223 643h573q18-225 154-388 136-162 356-251 221-89 490-89 300 0 531 104 232 105 364 291 132 187 132 433 0 256-128 453-127 197-373 308-245 111-599 111h-373v500h373q277 0 487 100 211 100 330 282t119 427q0 237-105 412-104 175-294 272-189 98-446 98-241 0-454-88-212-87-346-252-134-164-146-396H573q13 366 220 642t542 430q336 155 738 155 432 0 741-174t475-458q166-284 166-613 0-393-206-671-206-277-558-384v-36q441-73 688-374 248-301 248-744 0-380-206-681-205-301-560-474-354-173-806-173z" transform="scale(.01563)"/></defs><use xlink:href="#Inter-31"/><use xlink:href="#Inter-32" x="46.45"/><use xlink:href="#Inter-2d" x="106.96"/><use xlink:href="#Inter-32" x="152.98"/><use xlink:href="#Inter-33" x="213.49"/></g></g><g id="xtick_3"><path id="line2d_5" d="M190.27 276.48V7.2" clip-path="url(#p80b14a2701)" style="fill:none;stroke:#525252;stroke-linecap:round"/><g id="text_3" style="fill:#fcfcfc" transform="scale(.1 -.1) rotate(30 6492.46 1564.32)"><defs><path id="Inter-34" d="M373 955v463l2045 3237h337v-719h-228L982 1491v-36h2754V955H373zM2564 0v4655h536V0h-536z" transform="scale(.01563)"/></defs><use xlink:href="#Inter-31"/><use xlink:href="#Inter-32" x="46.45"/><use xlink:href="#Inter-2d" x="106.96"/><use xlink:href="#Inter-32" x="152.98"/><use xlink:href="#Inter-34" x="213.49"/></g></g><g id="xtick_4"><path id="line2d_7" d="M248.83 276.48V7.2" clip-path="url(#p80b14a2701)" style="fill:none;stroke:#525252;stroke-linecap:round"/><g id="text_4" style="fill:#fcfcfc" transform="scale(.1 -.1) rotate(30 6783.53 2663.32)"><defs><path id="Inter-35" d="M1936-64q-400 0-720 159-320 160-514 437-193 277-211 632h545q32-316 288-522t612-206q287 0 511 134 224 135 352 370t128 533q0 304-133 544t-365 378q-231 139-529 141-214 3-439-64t-370-172l-527 64 282 2291h2418v-500H1318l-163-1373h27q143 113 359 188t450 75q427 0 762-203 336-203 528-556 192-352 192-804 0-446-199-795-199-348-547-550-347-201-791-201z" transform="scale(.01563)"/></defs><use xlink:href="#Inter-31"/><use xlink:href="#Inter-32" x="46.45"/><use xlink:href="#Inter-2d" x="106.96"/><use xlink:href="#Inter-32" x="152.98"/><use xlink:href="#Inter-35" x="213.49"/></g></g><g id="xtick_5"><path id="line2d_9" d="M307.38 276.48V7.2" clip-path="url(#p80b14a2701)" style="fill:none;stroke:#525252;stroke-linecap:round"/><g id="text_5" style="fill:#fcfcfc" transform="scale(.1 -.1) rotate(30 7077.08 3753.06)"><defs><path id="Inter-36" d="M2027-64q-286 5-573 109-286 105-522 354t-380 675q-143 426-143 1071 0 619 116 1097t336 806q221 329 533 499 313 171 706 171 391 0 696-156 306-155 499-433 194-277 251-638h-555q-77 314-300 520-223 207-591 207-541 0-851-471-310-470-313-1320h37q127 193 303 330 176 138 390 213t452 75q400 0 732-199 332-198 532-547t200-799q0-432-193-790t-542-568Q2498-68 2027-64zm0 500q287 0 515 143 229 144 361 385 133 241 133 536 0 289-128 526-128 238-352 378-224 141-510 141-216 0-403-85-186-85-326-233-140-147-220-337-79-190-79-399 0-277 131-518t359-389q228-148 519-148z" transform="scale(.01563)"/></defs><use xlink:href="#Inter-31"/><use xlink:href="#Inter-32" x="46.45"/><use xlink:href="#Inter-2d" x="106.96"/><use xlink:href="#Inter-32" x="152.98"/><use xlink:href="#Inter-36" x="213.49"/></g></g><g id="xtick_6"><path id="line2d_11" d="M365.94 276.48V7.2" clip-path="url(#p80b14a2701)" style="fill:none;stroke:#525252;stroke-linecap:round"/><g id="text_6" style="fill:#fcfcfc" transform="scale(.1 -.1) rotate(30 7367.23 4855.5)"><defs><path id="Inter-37" d="m627 0 2082 4118v37H309v500h2982v-528L1218 0H627z" transform="scale(.01563)"/></defs><use xlink:href="#Inter-31"/><use xlink:href="#Inter-32" x="46.45"/><use xlink:href="#Inter-2d" x="106.96"/><use xlink:href="#Inter-32" x="152.98"/><use xlink:href="#Inter-37" x="213.49"/></g></g><g id="xtick_7"><path id="line2d_13" d="M424.5 276.48V7.2" clip-path="url(#p80b14a2701)" style="fill:none;stroke:#525252;stroke-linecap:round"/><g id="text_7" style="fill:#fcfcfc" transform="scale(.1 -.1) rotate(30 7662.28 5939.67)"><defs><path id="Inter-38" d="M1973-64q-468 0-826 167T589 564q-200 295-198 672-2 296 116 547t323 420q206 170 461 215v27q-334 87-532 376-198 290-195 661-3 354 179 633 182 280 501 441 320 162 729 162 404 0 722-162 319-161 502-441 183-279 185-633-2-371-201-661-199-289-526-376v-27q252-45 454-215 202-169 322-420 121-251 124-547-3-377-204-672-201-294-557-461-355-167-821-167zm0 500q316 0 545 102 230 103 355 289 125 187 127 437-2 263-136 465-134 203-365 319t-526 116q-298 0-531-116t-366-319q-133-202-130-465-3-250 121-437 124-186 356-289 232-102 550-102zm0 2209q250 0 444 100t305 280q112 180 114 420-2 237-111 413t-302 272q-193 97-450 97-262 0-457-97-195-96-302-272t-105-413q-2-240 108-420t305-280q196-100 451-100z" transform="scale(.01563)"/></defs><use xlink:href="#Inter-31"/><use xlink:href="#Inter-32" x="46.45"/><use xlink:href="#Inter-2d" x="106.96"/><use xlink:href="#Inter-32" x="152.98"/><use xlink:href="#Inter-38" x="213.49"/></g></g><g id="xtick_8"><path id="line2d_15" d="M483.05 276.48V7.2" clip-path="url(#p80b14a2701)" style="fill:none;stroke:#525252;stroke-linecap:round"/><g id="text_8" style="fill:#fcfcfc" transform="scale(.1 -.1) rotate(30 7955.4 7031)"><defs><path id="Inter-39" d="M1964 4718q286-2 572-109 287-107 523-354 237-246 380-671t143-1066q0-620-117-1101t-337-811q-219-329-532-500-312-170-705-170-391 0-697 156-305 156-500 434-194 279-248 647h554q75-321 299-529t592-208q539 0 851 470 313 471 313 1330h-37q-127-191-302-330-175-138-389-213-213-75-454-75-400 0-733 199t-532 548q-199 349-199 799 0 427 192 782 192 356 541 567 349 212 822 205zm0-500q-287 0-515-142t-361-382q-133-239-133-530t128-529q128-237 352-377t511-140q215 0 401 85 187 86 327 234 140 149 219 339 80 190 80 397 0 272-131 511t-359 386q-228 148-519 148z" transform="scale(.01563)"/></defs><use xlink:href="#Inter-31"/><use xlink:href="#Inter-32" x="46.45"/><use xlink:href="#Inter-2d" x="106.96"/><use xlink:href="#Inter-32" x="152.98"/><use xlink:href="#Inter-39" x="213.49"/></g></g><g id="text_9" style="fill:#fcfcfc" transform="matrix(.11 0 0 -.11 261.37 317.44)"><defs><path id="Inter-44" d="M2000 0H564v4655h1500q677 0 1159-279 482-278 738-798 257-519 257-1242 0-727-259-1251t-755-805Q2709 0 2000 0zm-873 500h837q577 0 956 222 380 223 566 634 187 412 187 980 0 564-184 972t-550 627q-366 220-912 220h-900V500z" transform="scale(.01563)"/><path id="Inter-61" d="M1518-82q-332 0-602 126T486 410Q327 650 327 991q0 300 118 487 119 188 316 295 198 107 438 160t483 85q318 41 517 62 199 22 291 74 92 53 92 182v19q0 336-183 522-183 187-553 187-385 0-603-169-218-168-307-359l-509 182q137 318 365 496 229 179 500 250 272 72 535 72 169 0 388-40 219-39 425-162t342-371q136-247 136-663V0h-536v473h-27q-55-114-182-244-127-129-339-220-211-91-516-91zm82 482q318 0 537 125 220 125 332 322 113 198 113 417v491q-34-41-149-74t-264-57q-148-24-288-41t-226-28q-209-28-390-88t-291-180q-110-119-110-323 0-280 208-422t528-142z" transform="scale(.01563)"/><path id="Inter-74" d="M2009 3491v-455H200v455h1809zM727 4327h537V1000q0-227 67-340 67-112 172-150 106-37 224-37 89 0 146 10t91 17l109-482q-55-20-153-41-97-22-247-22-227 0-445 97-217 98-359 298T727 855v3472z" transform="scale(.01563)"/><path id="Inter-65" d="M1955-73q-505 0-870 224-364 224-561 627-197 404-197 940 0 537 197 947t550 640q353 231 826 231 273 0 539-91 266-90 484-294 218-203 347-537 130-334 130-823v-227H709v463h2146q0 296-117 527-117 232-332 366-215 135-506 135-320 0-553-158t-358-411q-125-252-125-541v-309q0-395 137-669 138-274 383-416 246-142 571-142 211 0 382 60 172 61 297 182 125 122 193 304l519-146q-82-264-276-463-193-198-477-309-284-110-638-110z" transform="scale(.01563)"/></defs><use xlink:href="#Inter-44"/><use xlink:href="#Inter-61" x="71.88"/><use xlink:href="#Inter-74" x="128.27"/><use xlink:href="#Inter-65" x="164.63"/></g></g><g id="matplotlib.axis_2"><g id="ytick_1"><path id="line2d_17" d="M50.43 254.82h446.4" clip-path="url(#p80b14a2701)" style="fill:none;stroke:#525252;stroke-linecap:round"/><g id="text_10" style="fill:#fcfcfc" transform="matrix(.1 0 0 -.1 22 258.46)"><defs><path id="Inter-2e" d="M882-36Q714-36 593 84 473 205 473 373t120 288q121 121 289 121t288-121q121-120 121-288 0-112-56-205-55-93-147-149-92-55-206-55z" transform="scale(.01563)"/></defs><use xlink:href="#Inter-33"/><use xlink:href="#Inter-36" x="63.64"/><use xlink:href="#Inter-2e" x="125.99"/><use xlink:href="#Inter-35" x="153.55"/></g></g><g id="ytick_2"><path id="line2d_19" d="M50.43 207.75h446.4" clip-path="url(#p80b14a2701)" style="fill:none;stroke:#525252;stroke-linecap:round"/><g id="text_11" style="fill:#fcfcfc" transform="matrix(.1 0 0 -.1 22.35 211.38)"><defs><path id="Inter-30" d="M2000-64q-514 0-875 281t-552 816q-191 535-191 1294 0 755 192 1290t554 818q363 283 872 283t871-283q363-283 555-818t192-1290q0-759-191-1294t-552-816Q2514-64 2000-64zm0 500q509 0 791 491t282 1400q0 605-129 1030-128 425-368 647-240 223-576 223-504 0-789-497-284-496-284-1403 0-604 127-1027 128-423 367-644 240-220 579-220z" transform="scale(.01563)"/></defs><use xlink:href="#Inter-33"/><use xlink:href="#Inter-37" x="63.64"/><use xlink:href="#Inter-2e" x="120.74"/><use xlink:href="#Inter-30" x="148.3"/></g></g><g id="ytick_3"><path id="line2d_21" d="M50.43 160.67h446.4" clip-path="url(#p80b14a2701)" style="fill:none;stroke:#525252;stroke-linecap:round"/><g id="text_12" style="fill:#fcfcfc" transform="matrix(.1 0 0 -.1 22.52 164.3)"><use xlink:href="#Inter-33"/><use xlink:href="#Inter-37" x="63.64"/><use xlink:href="#Inter-2e" x="120.74"/><use xlink:href="#Inter-35" x="148.3"/></g></g><g id="ytick_4"><path id="line2d_23" d="M50.43 113.6h446.4" clip-path="url(#p80b14a2701)" style="fill:none;stroke:#525252;stroke-linecap:round"/><g id="text_13" style="fill:#fcfcfc" transform="matrix(.1 0 0 -.1 21.9 117.23)"><use xlink:href="#Inter-33"/><use xlink:href="#Inter-38" x="63.64"/><use xlink:href="#Inter-2e" x="125.28"/><use xlink:href="#Inter-30" x="152.84"/></g></g><g id="ytick_5"><path id="line2d_25" d="M50.43 66.52h446.4" clip-path="url(#p80b14a2701)" style="fill:none;stroke:#525252;stroke-linecap:round"/><g id="text_14" style="fill:#fcfcfc" transform="matrix(.1 0 0 -.1 22.07 70.15)"><use xlink:href="#Inter-33"/><use xlink:href="#Inter-38" x="63.64"/><use xlink:href="#Inter-2e" x="125.28"/><use xlink:href="#Inter-35" x="152.84"/></g></g><g id="ytick_6"><path id="line2d_27" d="M50.43 19.44h446.4" clip-path="url(#p80b14a2701)" style="fill:none;stroke:#525252;stroke-linecap:round"/><g id="text_15" style="fill:#fcfcfc" transform="matrix(.1 0 0 -.1 21.83 23.08)"><use xlink:href="#Inter-33"/><use xlink:href="#Inter-39" x="63.64"/><use xlink:href="#Inter-2e" x="125.99"/><use xlink:href="#Inter-30" x="153.55"/></g></g><g id="text_16" style="fill:#fcfcfc" transform="matrix(0 -.11 -.11 0 15.58 187.06)"><defs><path id="Inter-54" d="M309 4155v500h3491v-500H2336V0h-563v4155H309z" transform="scale(.01563)"/><path id="Inter-6d" d="M491 0v3491h518v-546h46q109 280 352 435 243 156 584 156 345 0 576-156 231-155 360-435h37q134 271 402 431t643 160q468 0 766-292t298-908V0h-537v2336q0 387-211 553t-498 166q-368 0-570-222t-202-560V0h-546v2391q0 298-193 481t-498 183q-209 0-390-112-180-111-291-308-110-196-110-453V0H491z" transform="scale(.01563)"/><path id="Inter-70" d="M491-1309v4800h518v-555h64q59 91 164 233 106 142 305 254 199 113 540 113 441 0 777-221 337-220 525-625 189-404 189-954 0-554-189-960-188-406-523-628-334-221-770-221-336 0-539 112-202 113-311 257-109 145-168 240h-46v-1845H491zm527 3054q0-395 116-696t339-471q223-169 545-169 337 0 563 178 226 179 340 482 115 304 115 676 0 369-113 665-112 297-338 471t-567 174q-327 0-550-165-222-165-336-460-114-294-114-685z" transform="scale(.01563)"/><path id="Inter-72" d="M491 0v3491h518v-527h37q95 259 345 420t564 161q59 0 147-2 89-2 134-7v-545q-27 7-124 21-96 15-203 15-254 0-453-106-199-105-314-291-115-185-115-421V0H491z" transform="scale(.01563)"/><path id="Inter-75" d="M2691 1427v2064h536V0h-536v591h-36q-123-266-382-451T1618-45q-327 0-582 144-254 144-400 436-145 292-145 738v2218h536V1309q0-382 215-609t549-227q200 0 408 102t350 313q142 212 142 539z" transform="scale(.01563)"/><path id="Inter-2f" d="M2136 4873 636-700H146l1500 5573h490z" transform="scale(.01563)"/><path id="Inter-b0" d="M1455 2600q-289 0-527 141-237 141-378 378-141 238-141 526 0 289 141 526 141 238 378 379 238 141 527 141 288 0 525-141 238-141 379-379 141-237 141-526 0-288-141-526-141-237-379-378-237-141-525-141zm0 455q163 0 297 79 134 80 214 214t80 297q0 164-80 298t-214 213q-134 80-297 80-164 0-298-80-134-79-214-213-79-134-79-298 0-163 79-297 80-134 214-214 134-79 298-79z" transform="scale(.01563)"/><path id="Inter-43" d="M4309 3200h-563q-50 243-174 427t-300 310q-176 127-390 190-214 64-446 64-422 0-764-214-342-213-544-629-201-416-201-1021 0-604 201-1020 202-416 544-630 342-213 764-213 232 0 446 63 214 64 390 190t300 311q124 186 174 427h563q-63-357-232-639-168-282-418-479-250-196-560-299-310-102-663-102-595 0-1059 291-463 291-729 827-266 537-266 1273 0 737 266 1273t729 827q464 291 1059 291 353 0 663-102t560-299q250-197 418-478 169-280 232-639z" transform="scale(.01563)"/></defs><use xlink:href="#Inter-54"/><use xlink:href="#Inter-65" x="64.2"/><use xlink:href="#Inter-6d" x="122.44"/><use xlink:href="#Inter-70" x="209.38"/><use xlink:href="#Inter-65" x="270.31"/><use xlink:href="#Inter-72" x="328.55"/><use xlink:href="#Inter-61" x="365.77"/><use xlink:href="#Inter-74" x="422.16"/><use xlink:href="#Inter-75" x="458.52"/><use xlink:href="#Inter-72" x="516.62"/><use xlink:href="#Inter-65" x="553.84"/><use xlink:href="#Inter-20" x="612.07"/><use xlink:href="#Inter-2f" x="640.2"/><use xlink:href="#Inter-20" x="675.85"/><use xlink:href="#Inter-b0" x="703.98"/><use xlink:href="#Inter-43" x="749.43"/></g></g><g id="line2d_29"><path d="m70.72 217.16 26.84 47.08 13.01-47.08 2.44-37.66 4.07 9.42 2.03-18.83 2.85-9.42 2.44-9.41h1.22l1.22-18.84 2.44-18.83 1.22 18.83 2.03-56.49 10.17 28.25 8.54 84.74 7.92-37.66 5.09-65.91 1.62-9.42h4.88l2.44-28.24 2.44 18.83 2.44-9.42 2.44-37.66 2.44 28.25 2.44 47.07 23.18-18.83 8.54 18.83 3.66 75.33 1.22-9.42h8.94l6.51-28.25h2.85l2.84 37.67 3.26-9.42L272 188.92l8.53 18.83 10.37-28.25 5.09 18.83h0l4.67-37.66h2.44l2.44 28.25 31.52-9.42 6.9 18.83h9.76l3.67-18.83 4.06 28.25 4.48-28.25 20.13 56.5 17.48-47.08 4.68 18.83 9.35 18.83 4.07 18.83 38.63-28.25 16.26-9.41" clip-path="url(#p80b14a2701)" style="fill:none;stroke:#0ea5e9;stroke-width:1.75;stroke-linecap:round"/><defs><path id="m12dd66afda" d="M0 3.5a3.5 3.5 0 1 0 0-7 3.5 3.5 0 0 0 0 7z"/></defs><g clip-path="url(#p80b14a2701)"><use xlink:href="#m12dd66afda" x="70.72" y="217.16" style="fill:#0ea5e9"/><use xlink:href="#m12dd66afda" x="97.56" y="264.24" style="fill:#0ea5e9"/><use xlink:href="#m12dd66afda" x="110.57" y="217.16" style="fill:#0ea5e9"/><use xlink:href="#m12dd66afda" x="113.01" y="179.5" style="fill:#0ea5e9"/><use xlink:href="#m12dd66afda" x="117.08" y="188.92" style="fill:#0ea5e9"/><use xlink:href="#m12dd66afda" x="119.11" y="170.09" style="fill:#0ea5e9"/><use xlink:href="#m12dd66afda" x="121.96" y="160.67" style="fill:#0ea5e9"/><use xlink:href="#m12dd66afda" x="124.4" y="151.26" style="fill:#0ea5e9"/><use xlink:href="#m12dd66afda" x="125.62" y="151.26" style="fill:#0ea5e9"/><use xlink:href="#m12dd66afda" x="126.84" y="132.42" style="fill:#0ea5e9"/><use xlink:href="#m12dd66afda" x="129.28" y="113.59" style="fill:#0ea5e9"/><use xlink:href="#m12dd66afda" x="130.5" y="132.42" style="fill:#0ea5e9"/><use xlink:href="#m12dd66afda" x="132.53" y="75.93" style="fill:#0ea5e9"/><use xlink:href="#m12dd66afda" x="142.7" y="104.18" style="fill:#0ea5e9"/><use xlink:href="#m12dd66afda" x="151.24" y="188.92" style="fill:#0ea5e9"/><use xlink:href="#m12dd66afda" x="159.16" y="151.26" style="fill:#0ea5e9"/><use xlink:href="#m12dd66afda" x="164.25" y="85.35" style="fill:#0ea5e9"/><use xlink:href="#m12dd66afda" x="165.87" y="75.93" style="fill:#0ea5e9"/><use xlink:href="#m12dd66afda" x="170.75" y="75.93" style="fill:#0ea5e9"/><use xlink:href="#m12dd66afda" x="173.19" y="47.69" style="fill:#0ea5e9"/><use xlink:href="#m12dd66afda" x="175.63" y="66.52" style="fill:#0ea5e9"/><use xlink:href="#m12dd66afda" x="178.07" y="57.1" style="fill:#0ea5e9"/><use xlink:href="#m12dd66afda" x="180.51" y="19.44" style="fill:#0ea5e9"/><use xlink:href="#m12dd66afda" x="182.95" y="47.69" style="fill:#0ea5e9"/><use xlink:href="#m12dd66afda" x="185.39" y="94.76" style="fill:#0ea5e9"/><use xlink:href="#m12dd66afda" x="208.57" y="75.93" style="fill:#0ea5e9"/><use xlink:href="#m12dd66afda" x="217.11" y="94.76" style="fill:#0ea5e9"/><use xlink:href="#m12dd66afda" x="220.77" y="170.09" style="fill:#0ea5e9"/><use xlink:href="#m12dd66afda" x="221.99" y="160.67" style="fill:#0ea5e9"/><use xlink:href="#m12dd66afda" x="224.43" y="160.67" style="fill:#0ea5e9"/><use xlink:href="#m12dd66afda" x="230.94" y="160.67" style="fill:#0ea5e9"/><use xlink:href="#m12dd66afda" x="237.44" y="132.42" style="fill:#0ea5e9"/><use xlink:href="#m12dd66afda" x="240.29" y="132.42" style="fill:#0ea5e9"/><use xlink:href="#m12dd66afda" x="243.13" y="170.09" style="fill:#0ea5e9"/><use xlink:href="#m12dd66afda" x="246.39" y="160.67" style="fill:#0ea5e9"/><use xlink:href="#m12dd66afda" x="272.01" y="188.92" style="fill:#0ea5e9"/><use xlink:href="#m12dd66afda" x="280.54" y="207.75" style="fill:#0ea5e9"/><use xlink:href="#m12dd66afda" x="290.91" y="179.5" style="fill:#0ea5e9"/><use xlink:href="#m12dd66afda" x="296" y="198.33" style="fill:#0ea5e9"/><use xlink:href="#m12dd66afda" x="296" y="198.33" style="fill:#0ea5e9"/><use xlink:href="#m12dd66afda" x="300.67" y="160.67" style="fill:#0ea5e9"/><use xlink:href="#m12dd66afda" x="303.11" y="160.67" style="fill:#0ea5e9"/><use xlink:href="#m12dd66afda" x="305.55" y="188.92" style="fill:#0ea5e9"/><use xlink:href="#m12dd66afda" x="337.07" y="179.5" style="fill:#0ea5e9"/><use xlink:href="#m12dd66afda" x="343.98" y="198.33" style="fill:#0ea5e9"/><use xlink:href="#m12dd66afda" x="346.83" y="198.33" style="fill:#0ea5e9"/><use xlink:href="#m12dd66afda" x="353.74" y="198.33" style="fill:#0ea5e9"/><use xlink:href="#m12dd66afda" x="357.4" y="179.5" style="fill:#0ea5e9"/><use xlink:href="#m12dd66afda" x="361.46" y="207.75" style="fill:#0ea5e9"/><use xlink:href="#m12dd66afda" x="365.94" y="179.5" style="fill:#0ea5e9"/><use xlink:href="#m12dd66afda" x="386.07" y="235.99" style="fill:#0ea5e9"/><use xlink:href="#m12dd66afda" x="403.55" y="188.92" style="fill:#0ea5e9"/><use xlink:href="#m12dd66afda" x="408.23" y="207.75" style="fill:#0ea5e9"/><use xlink:href="#m12dd66afda" x="417.58" y="226.58" style="fill:#0ea5e9"/><use xlink:href="#m12dd66afda" x="421.65" y="245.41" style="fill:#0ea5e9"/><use xlink:href="#m12dd66afda" x="460.28" y="217.16" style="fill:#0ea5e9"/><use xlink:href="#m12dd66afda" x="476.54" y="207.75" style="fill:#0ea5e9"/></g></g><path id="patch_3" d="M50.43 276.48V7.2" style="fill:none"/><path id="patch_4" d="M496.83 276.48V7.2" style="fill:none"/><path id="patch_5" d="M50.43 276.48h446.4" style="fill:none"/><path id="patch_6" d="M50.43 7.2h446.4" style="fill:none"/><path id="patch_7" d="M145 55.35v18h3.5l-6 12-6-12h3.5v-18h5z" style="fill:#10b981;stroke:#10b981;stroke-width:.3;stroke-linecap:round"/><path id="patch_8" d="M179.23 134.18v-18h-3.5l6-12 6 12h-3.5v18h-5z" style="fill:#10b981;stroke:#10b981;stroke-width:.3;stroke-linecap:round"/></g></g><defs><clipPath id="p80b14a2701"><path d="M50.43 7.2h446.4v269.28H50.43z"/></clipPath></defs></svg>