<svg xmlns="http://www.w3.org/2000/svg" width="445.267" height="134.72" viewBox="0 -101.04 333.95 101.04"><path d="M4.832-96.617v4.104c0 2.032.637 2.969 2.52 2.969s2.58-.937 2.58-2.97v-4.103h-.966v4.293c0 1.265-.409 1.913-1.584 1.913-1.176 0-1.584-.648-1.584-1.913v-4.293h-.966zm9.006 6.953v-.787h-1.026v-3.586h1.105v-.787h-1.105v-1.424h-.837v.946c0 .349-.11.478-.458.478h-.458v.787h.826v3.397c0 .598.339.976.976.976h.977zM19.921-89.544c.966 0 1.714-.449 2.072-1.116l-.597-.508c-.28.528-.748.836-1.395.836-.926 0-1.454-.617-1.454-1.474v-.209h3.636v-.388c0-1.445-.817-2.54-2.262-2.54-1.434 0-2.34 1.065-2.34 2.699s.906 2.7 2.34 2.7zm0-4.653c.777 0 1.275.578 1.275 1.435v.1h-2.65v-.07c0-.847.568-1.465 1.375-1.465zm4.454 4.533V-93.2c0-.628.587-.936 1.195-.936.727 0 1.086.448 1.086 1.314v3.158h.926v-3.297c0-1.255-.647-1.982-1.703-1.982-.777 0-1.215.398-1.454.966h-.05v-.847h-.927v5.16h.927zm5.25-6.236c.388 0 .558-.209.558-.508v-.14c0-.298-.17-.507-.558-.507s-.558.209-.558.508v.14c0 .298.17.507.558.507zm-.468 6.236h.926v-5.16h-.926v5.16zm3.486 0V-93.2c0-.628.568-.936 1.156-.936.707 0 1.036.448 1.036 1.314v3.158h.926V-93.2c0-.628.548-.936 1.146-.936.717 0 1.046.448 1.046 1.314v3.158h.926v-3.297c0-1.255-.617-1.982-1.653-1.982-.867 0-1.385.488-1.574 1.046h-.02c-.27-.728-.877-1.046-1.564-1.046s-1.155.438-1.375.966h-.05v-.847h-.926v5.16h.926zM47.538-89.664v-.787h-.578v-2.72c0-1.115-.737-1.772-2.022-1.772-.956 0-1.564.448-1.873 1.006l.558.508c.27-.439.658-.737 1.265-.737.777 0 1.146.388 1.146 1.075v.469h-.977c-1.474 0-2.2.537-2.2 1.534 0 .946.627 1.544 1.703 1.544.736 0 1.285-.34 1.494-.977h.05c.069.498.338.857.906.857h.528zm-2.77-.628c-.577 0-.946-.269-.946-.747v-.199c0-.478.379-.737 1.225-.737h.987v.797c0 .518-.538.886-1.265.886zm7.144.628h.926v-7.371h-.926v3.058h-.04c-.24-.638-.777-.966-1.484-.966-1.295 0-2.072 1.026-2.072 2.699 0 1.673.776 2.7 2.072 2.7.707 0 1.245-.33 1.484-.967h.04v.847zm-1.255-.687c-.827 0-1.355-.588-1.355-1.455v-.876c0-.867.528-1.454 1.355-1.454.697 0 1.255.398 1.255.946v1.892c0 .548-.558.947-1.255.947zM58.191-89.664V-93.2c0-.628.568-.936 1.156-.936.707 0 1.036.448 1.036 1.314v3.158h.926V-93.2c0-.628.548-.936 1.146-.936.717 0 1.046.448 1.046 1.314v3.158h.926v-3.297c0-1.255-.618-1.982-1.654-1.982-.866 0-1.384.488-1.573 1.046h-.02c-.27-.728-.877-1.046-1.564-1.046-.688 0-1.156.438-1.375.966h-.05v-.847h-.926v5.16h.926zm8.28-6.236c.388 0 .557-.209.557-.508v-.14c0-.298-.17-.507-.558-.507s-.558.209-.558.508v.14c0 .298.17.507.558.507zm-.469 6.236h.926v-5.16h-.926v5.16zm3.487 0V-93.2c0-.628.588-.936 1.195-.936.727 0 1.086.448 1.086 1.314v3.158h.926v-3.297c0-1.255-.647-1.982-1.703-1.982-.777 0-1.215.398-1.454.966h-.05v-.847h-.927v5.16h.927zm5.25-6.236c.389 0 .558-.209.558-.508v-.14c0-.298-.17-.507-.558-.507s-.558.209-.558.508v.14c0 .298.17.507.558.507zm-.468 6.236h.926v-5.16h-.926v5.16zm3.487 0V-93.2c0-.628.567-.936 1.155-.936.707 0 1.036.448 1.036 1.314v3.158h.926V-93.2c0-.628.549-.936 1.146-.936.717 0 1.046.448 1.046 1.314v3.158h.927v-3.297c0-1.255-.618-1.982-1.654-1.982-.867 0-1.385.488-1.574 1.046h-.02c-.27-.728-.877-1.046-1.564-1.046s-1.155.438-1.374.966h-.05v-.847h-.927v5.16h.927zM90.579-89.664l1.793-5.16h-.887l-.856 2.47-.549 1.783h-.06l-.537-1.782-.847-2.471h-.926l1.783 5.16h1.086zM95.25-89.544c.967 0 1.714-.449 2.072-1.116l-.597-.508c-.28.528-.747.836-1.395.836-.926 0-1.454-.617-1.454-1.474v-.209h3.636v-.388c0-1.445-.817-2.54-2.262-2.54-1.434 0-2.34 1.065-2.34 2.699s.906 2.7 2.34 2.7zm0-4.653c.778 0 1.275.578 1.275 1.435v.1h-2.65v-.07c0-.847.568-1.465 1.375-1.465zm4.454 4.533V-93.2c0-.628.588-.936 1.195-.936.727 0 1.086.448 1.086 1.314v3.158h.926v-3.297c0-1.255-.647-1.982-1.703-1.982-.777 0-1.215.398-1.454.966h-.05v-.847h-.927v5.16h.927zm5.25-6.236c.388 0 .558-.209.558-.508v-.14c0-.298-.17-.507-.558-.507s-.558.209-.558.508v.14c0 .298.17.507.558.507zm-.468 6.236h.926v-5.16h-.926v5.16zm6.843 0v-.787h-.577v-2.72c0-1.115-.737-1.772-2.022-1.772-.957 0-1.564.448-1.873 1.006l.558.508c.269-.439.657-.737 1.265-.737.777 0 1.145.388 1.145 1.075v.469h-.976c-1.474 0-2.201.537-2.201 1.534 0 .946.627 1.544 1.703 1.544.737 0 1.285-.34 1.494-.977h.05c.07.498.339.857.907.857h.527zm-2.769-.628c-.578 0-.946-.269-.946-.747v-.199c0-.478.378-.737 1.225-.737h.986v.797c0 .518-.538.886-1.265.886zm4.802.628V-93.2c0-.628.568-.936 1.156-.936.707 0 1.036.448 1.036 1.314v3.158h.926V-93.2c0-.628.548-.936 1.146-.936.717 0 1.046.448 1.046 1.314v3.158h.926v-3.297c0-1.255-.618-1.982-1.654-1.982-.866 0-1.384.488-1.573 1.046h-.02c-.269-.728-.877-1.046-1.564-1.046-.688 0-1.156.438-1.375.966h-.05v-.847h-.926v5.16h.926zm8.389-1.265c-.458 0-.657.26-.657.627v.15c0 .299.139.518.438.578-.12.468-.379.827-.787 1.245h.727c.588-.488.936-1.235.936-1.823v-.15c0-.368-.199-.627-.657-.627zM130.115-87.672h.926v-7.152h-.926v.847h-.04c-.239-.638-.777-.966-1.484-.966-1.295 0-2.072 1.026-2.072 2.699 0 1.673.777 2.7 2.072 2.7.707 0 1.245-.33 1.484-.967h.04v2.84zm-1.255-2.68c-.827 0-1.355-.587-1.355-1.454v-.876c0-.867.528-1.454 1.355-1.454.697 0 1.255.398 1.255.946v1.892c0 .548-.558.947-1.255.947zm6.973.688h.927v-5.16h-.927v3.526c0 .648-.598.947-1.185.947-.728 0-1.096-.449-1.096-1.315v-3.158h-.927v3.297c0 1.255.658 1.983 1.714 1.983.856 0 1.255-.469 1.444-.967h.05v.847zm3.029-6.236c.389 0 .558-.209.558-.508v-.14c0-.298-.169-.507-.558-.507-.388 0-.558.209-.558.508v.14c0 .298.17.507.558.507zm-.468 6.236h.926v-5.16h-.926v5.16zm4.144.12c1.215 0 1.973-.628 1.973-1.634 0-.797-.469-1.295-1.604-1.464l-.439-.07c-.597-.09-.896-.28-.896-.737 0-.438.319-.728.946-.728.618 0 1.056.29 1.305.618l.588-.558c-.439-.518-.986-.826-1.863-.826-1.086 0-1.873.537-1.873 1.553 0 .957.688 1.365 1.674 1.505l.438.07c.628.09.827.358.827.737 0 .478-.359.766-1.016.766-.628 0-1.106-.278-1.494-.766l-.628.537c.478.608 1.106.997 2.062.997zM149.56-89.664V-93.2c0-.628.587-.936 1.195-.936.727 0 1.086.448 1.086 1.314v3.158h.926v-3.297c0-1.255-.647-1.982-1.703-1.982-.777 0-1.215.398-1.454.966h-.05v-.847h-.927v5.16h.927zm6.764.12c1.405 0 2.351-1.056 2.351-2.7 0-1.643-.946-2.7-2.351-2.7-1.404 0-2.351 1.057-2.351 2.7 0 1.644.947 2.7 2.351 2.7zm0-.798c-.807 0-1.365-.507-1.365-1.514v-.776c0-1.006.558-1.514 1.365-1.514s1.365.508 1.365 1.514v.776c0 1.007-.558 1.514-1.365 1.514zm5.201.798c1.215 0 1.972-.628 1.972-1.634 0-.797-.468-1.295-1.604-1.464l-.438-.07c-.598-.09-.897-.28-.897-.737 0-.438.319-.728.947-.728.617 0 1.056.29 1.305.618l.587-.558c-.438-.518-.986-.826-1.862-.826-1.086 0-1.873.537-1.873 1.553 0 .957.687 1.365 1.673 1.505l.439.07c.627.09.827.358.827.737 0 .478-.359.766-1.017.766-.627 0-1.105-.278-1.494-.766l-.627.537c.478.608 1.105.997 2.062.997zM166.999-89.664v-.787h-1.026v-3.586h1.105v-.787h-1.105v-1.424h-.837v.946c0 .349-.11.478-.458.478h-.459v.787h.827v3.397c0 .598.339.976.976.976h.977zm2.241 0v-3.387c0-.508.498-.846 1.355-.846h.458v-.927h-.308c-.827 0-1.285.478-1.455.986h-.05v-.986h-.926v5.16h.926zm5.967 0h.927v-5.16h-.927v3.526c0 .648-.597.947-1.185.947-.727 0-1.096-.449-1.096-1.315v-3.158H172v3.297c0 1.255.657 1.983 1.713 1.983.857 0 1.255-.469 1.445-.967h.049v.847zm5.829 0h.926v-7.371h-.926v3.058h-.04c-.239-.638-.777-.966-1.485-.966-1.295 0-2.071 1.026-2.071 2.699 0 1.673.776 2.7 2.071 2.7.708 0 1.246-.33 1.485-.967h.04v.847zm-1.255-.687c-.827 0-1.355-.588-1.355-1.455v-.876c0-.867.528-1.454 1.355-1.454.697 0 1.255.398 1.255.946v1.892c0 .548-.558.947-1.255.947zM188.347-89.544c.966 0 1.714-.449 2.072-1.116l-.598-.508c-.279.528-.747.836-1.394.836-.926 0-1.455-.617-1.455-1.474v-.209h3.636v-.388c0-1.445-.817-2.54-2.261-2.54-1.434 0-2.341 1.065-2.341 2.699s.907 2.7 2.341 2.7zm0-4.653c.777 0 1.275.578 1.275 1.435v.1h-2.65v-.07c0-.847.568-1.465 1.375-1.465zM191.144-89.664h1.016l1.345-1.953h.03l1.275 1.953h1.075l-1.833-2.64 1.803-2.52h-1.016l-1.275 1.863h-.029l-1.246-1.863h-1.075l1.802 2.56-1.872 2.6zM198.754-89.544c.967 0 1.714-.449 2.072-1.116l-.597-.508c-.279.528-.748.836-1.395.836-.926 0-1.454-.617-1.454-1.474v-.209h3.636v-.388c0-1.445-.817-2.54-2.262-2.54-1.434 0-2.341 1.065-2.341 2.699s.907 2.7 2.341 2.7zm0-4.653c.777 0 1.275.578 1.275 1.435v.1h-2.649v-.07c0-.847.567-1.465 1.374-1.465zm4.454 4.533v-3.387c0-.508.498-.846 1.354-.846h.459v-.927h-.309c-.827 0-1.285.478-1.454.986h-.05v-.986h-.927v5.16h.927zM207.915-89.544c.986 0 1.664-.479 1.992-1.256l-.677-.418c-.259.558-.687.876-1.315.876-.886 0-1.335-.607-1.335-1.454v-.896c0-.847.449-1.455 1.335-1.455.598 0 1.016.31 1.186.817l.766-.378c-.298-.737-.936-1.235-1.952-1.235-1.474 0-2.321 1.046-2.321 2.699 0 1.654.847 2.7 2.321 2.7zm3.547-6.356c.388 0 .558-.209.558-.508v-.14c0-.298-.17-.507-.558-.507s-.558.209-.558.508v.14c0 .298.17.507.558.507zm-.468 6.236h.926v-5.16h-.926v5.16zm4.801 0v-.787h-1.026v-3.586h1.106v-.787h-1.106v-1.424h-.836v.946c0 .349-.11.478-.459.478h-.458v.787h.827v3.397c0 .598.339.976.976.976h.976zm5.599 0v-.787h-.578v-2.72c0-1.115-.737-1.772-2.022-1.772-.956 0-1.564.448-1.873 1.006l.558.508c.269-.439.658-.737 1.265-.737.777 0 1.146.388 1.146 1.075v.469h-.976c-1.474 0-2.202.537-2.202 1.534 0 .946.628 1.544 1.704 1.544.737 0 1.285-.34 1.494-.977h.05c.069.498.338.857.906.857h.528zm-2.769-.628c-.578 0-.946-.269-.946-.747v-.199c0-.478.378-.737 1.225-.737h.986v.797c0 .518-.538.886-1.265.886zM224.721-89.664v-.787h-1.026v-3.586h1.106v-.787h-1.106v-1.424h-.836v.946c0 .349-.11.478-.459.478h-.458v.787h.827v3.397c0 .598.339.976.976.976h.976zm1.784-6.236c.388 0 .558-.209.558-.508v-.14c0-.298-.17-.507-.558-.507-.389 0-.558.209-.558.508v.14c0 .298.169.507.558.507zm-.468 6.236h.926v-5.16h-.926v5.16zm4.542.12c1.405 0 2.351-1.056 2.351-2.7 0-1.643-.946-2.7-2.351-2.7-1.404 0-2.351 1.057-2.351 2.7 0 1.644.947 2.7 2.351 2.7zm0-.798c-.807 0-1.364-.507-1.364-1.514v-.776c0-1.006.557-1.514 1.364-1.514s1.365.508 1.365 1.514v.776c0 1.007-.558 1.514-1.365 1.514zm4.543.678V-93.2c0-.628.588-.936 1.196-.936.727 0 1.086.448 1.086 1.314v3.158h.926v-3.297c0-1.255-.648-1.982-1.703-1.982-.778 0-1.216.398-1.455.966h-.05v-.847h-.926v5.16h.926zM245.855-89.664h.927v-5.16h-.927v3.526c0 .648-.597.947-1.185.947-.727 0-1.096-.449-1.096-1.315v-3.158h-.926v3.297c0 1.255.657 1.983 1.713 1.983.857 0 1.255-.469 1.444-.967h.05v.847zm4.225 0v-.787h-.738v-6.584h-.926v6.425c0 .568.329.946.966.946h.698zM252.796-89.664v-.787h-.738v-6.584h-.926v6.425c0 .568.329.946.966.946h.698zm5.389 0v-.787h-.578v-2.72c0-1.115-.737-1.772-2.022-1.772-.956 0-1.564.448-1.873 1.006l.558.508c.269-.439.658-.737 1.265-.737.777 0 1.146.388 1.146 1.075v.469h-.976c-1.475 0-2.202.537-2.202 1.534 0 .946.628 1.544 1.704 1.544.737 0 1.285-.34 1.494-.977h.049c.07.498.339.857.907.857h.528zm-2.769-.628c-.578 0-.946-.269-.946-.747v-.199c0-.478.378-.737 1.225-.737h.986v.797c0 .518-.538.886-1.265.886zm4.802.628V-93.2c0-.628.568-.936 1.155-.936.708 0 1.036.448 1.036 1.314v3.158h.927V-93.2c0-.628.548-.936 1.145-.936.717 0 1.046.448 1.046 1.314v3.158h.927v-3.297c0-1.255-.618-1.982-1.654-1.982-.867 0-1.385.488-1.574 1.046h-.02c-.269-.728-.876-1.046-1.564-1.046-.687 0-1.155.438-1.374.966h-.05v-.847h-.927v5.16h.927zm9.763.12c.986 0 1.664-.479 1.992-1.256l-.677-.418c-.259.558-.687.876-1.315.876-.886 0-1.335-.607-1.335-1.454v-.896c0-.847.449-1.455 1.335-1.455.598 0 1.016.31 1.185.817l.767-.378c-.298-.737-.936-1.235-1.952-1.235-1.474 0-2.321 1.046-2.321 2.699 0 1.654.847 2.7 2.321 2.7zM274.972-89.544c1.405 0 2.351-1.056 2.351-2.7 0-1.643-.946-2.7-2.351-2.7-1.404 0-2.35 1.057-2.35 2.7 0 1.644.946 2.7 2.35 2.7zm0-.798c-.806 0-1.364-.507-1.364-1.514v-.776c0-1.006.558-1.514 1.364-1.514.807 0 1.365.508 1.365 1.514v.776c0 1.007-.558 1.514-1.365 1.514zM283.051-89.664v-.787h-.737v-6.584h-.927v6.425c0 .568.329.946.967.946h.697zm5.389 0v-.787h-.577v-2.72c0-1.115-.738-1.772-2.023-1.772-.956 0-1.564.448-1.872 1.006l.557.508c.27-.439.658-.737 1.265-.737.778 0 1.146.388 1.146 1.075v.469h-.976c-1.474 0-2.201.537-2.201 1.534 0 .946.627 1.544 1.703 1.544.737 0 1.285-.34 1.494-.977h.05c.069.498.339.857.906.857h.528zm-2.769-.628c-.578 0-.946-.269-.946-.747v-.199c0-.478.378-.737 1.225-.737h.986v.797c0 .518-.538.886-1.265.886zm3.876.628h.926v-.847h.04c.239.638.777.967 1.484.967 1.295 0 2.072-1.027 2.072-2.7 0-1.673-.777-2.7-2.072-2.7-.707 0-1.245.33-1.484.967h-.04v-3.058h-.926v7.371zm2.181-.687c-.697 0-1.255-.399-1.255-.947v-1.892c0-.548.558-.947 1.255-.947.827 0 1.355.588 1.355 1.455v.876c0 .867-.528 1.455-1.355 1.455zm5.629.807c1.405 0 2.351-1.056 2.351-2.7 0-1.643-.946-2.7-2.351-2.7-1.404 0-2.351 1.057-2.351 2.7 0 1.644.947 2.7 2.351 2.7zm0-.798c-.807 0-1.365-.507-1.365-1.514v-.776c0-1.006.558-1.514 1.365-1.514.807 0 1.365.508 1.365 1.514v.776c0 1.007-.558 1.514-1.365 1.514zm4.543.678v-3.387c0-.508.498-.846 1.355-.846h.458v-.927h-.309c-.827 0-1.285.478-1.454.986h-.05v-.986h-.926v5.16h.926zm3.278-6.236c.388 0 .558-.209.558-.508v-.14c0-.298-.17-.507-.558-.507-.389 0-.558.209-.558.508v.14c0 .298.169.507.558.507zm-.468 6.236h.926v-5.16h-.926v5.16zm4.144.12c1.215 0 1.972-.628 1.972-1.634 0-.797-.468-1.295-1.604-1.464l-.438-.07c-.598-.09-.897-.28-.897-.737 0-.438.319-.728.947-.728.618 0 1.056.29 1.305.618l.588-.558c-.439-.518-.987-.826-1.863-.826-1.086 0-1.873.537-1.873 1.553 0 .957.687 1.365 1.673 1.505l.439.07c.627.09.827.358.827.737 0 .478-.359.766-1.017.766-.627 0-1.105-.278-1.494-.766l-.627.537c.478.608 1.105.997 2.062.997zM315.863-89.664V-93.2c0-.628.588-.936 1.196-.936.727 0 1.085.448 1.085 1.314v3.158h.927v-3.297c0-1.255-.648-1.982-1.703-1.982-.778 0-1.216.398-1.455.966h-.05v-.847h-.926v5.16h.926zm5.251-6.236c.388 0 .557-.209.557-.508v-.14c0-.298-.169-.507-.557-.507-.389 0-.558.209-.558.508v.14c0 .298.169.507.558.507zm-.469 6.236h.927v-5.16h-.927v5.16zm4.145.12c1.215 0 1.972-.628 1.972-1.634 0-.797-.468-1.295-1.604-1.464l-.438-.07c-.598-.09-.897-.28-.897-.737 0-.438.319-.728.947-.728.617 0 1.055.29 1.305.618l.587-.558c-.438-.518-.986-.826-1.862-.826-1.086 0-1.873.537-1.873 1.553 0 .957.687 1.365 1.673 1.505l.439.07c.627.09.826.358.826.737 0 .478-.358.766-1.016.766-.627 0-1.105-.278-1.494-.766l-.627.537c.478.608 1.105.997 2.062.997zm3.766-6.356c.388 0 .557-.209.557-.508v-.14c0-.298-.169-.507-.557-.507-.389 0-.558.209-.558.508v.14c0 .298.169.507.558.507zm-.469 6.236h.927v-5.16h-.927v5.16zM7.96-77.708h.926v-5.16h-.927v3.526c0 .648-.597.947-1.185.947-.727 0-1.096-.449-1.096-1.315v-3.158h-.926v3.297c0 1.256.657 1.983 1.713 1.983.857 0 1.255-.469 1.445-.967h.05v.847zm4.802 0v-.787h-1.026v-3.586h1.105v-.787h-1.105v-1.424h-.837v.946c0 .349-.11.478-.458.478h-.458v.787h.826v3.397c0 .598.339.976.976.976h.977zM20.706-77.708v-.787h-.578v-2.72c0-1.115-.737-1.772-2.022-1.772-.956 0-1.564.448-1.873 1.006l.558.508c.27-.439.657-.737 1.265-.737.777 0 1.146.388 1.146 1.075v.469h-.977c-1.474 0-2.2.537-2.2 1.534 0 .946.627 1.544 1.703 1.544.736 0 1.285-.339 1.494-.977h.05c.069.498.338.857.906.857h.528zm-2.77-.627c-.577 0-.946-.27-.946-.748v-.199c0-.478.379-.737 1.225-.737h.987v.797c0 .518-.538.887-1.265.887zm5.54.627v-.787h-.737v-6.584h-.927v6.425c0 .568.33.946.967.946h.697zm1.574-6.236c.388 0 .558-.209.558-.508v-.14c0-.298-.17-.507-.558-.507-.389 0-.558.209-.558.508v.14c0 .298.17.507.558.507zm-.468 6.236h.926v-5.16h-.926v5.16zm5.827 1.992h.927v-7.152h-.927v.847h-.04c-.238-.638-.776-.966-1.484-.966-1.295 0-2.072 1.026-2.072 2.699 0 1.673.777 2.7 2.072 2.7.707 0 1.246-.329 1.485-.967h.04v2.84zm-1.255-2.68c-.826 0-1.354-.587-1.354-1.454v-.876c0-.867.527-1.454 1.354-1.454.698 0 1.255.398 1.255.946v1.892c0 .548-.557.947-1.255.947zm6.974.688h.926v-5.16h-.926v3.526c0 .648-.598.947-1.186.947-.727 0-1.095-.449-1.095-1.315v-3.158h-.927v3.297c0 1.256.658 1.983 1.714 1.983.856 0 1.255-.469 1.444-.967h.05v.847zm3.029-6.236c.388 0 .558-.209.558-.508v-.14c0-.298-.17-.507-.558-.507-.389 0-.558.209-.558.508v.14c0 .298.17.507.558.507zm-.468 6.236h.926v-5.16h-.926v5.16zm2.56 1.992h.926v-2.839h.04c.24.638.777.967 1.484.967 1.295 0 2.072-1.027 2.072-2.7 0-1.673-.777-2.7-2.072-2.7-.707 0-1.245.33-1.484.967h-.04v-.847h-.926v7.152zm2.182-2.68c-.698 0-1.256-.398-1.256-.946v-1.892c0-.548.558-.946 1.256-.946.826 0 1.354.587 1.354 1.454v.876c0 .867-.528 1.455-1.354 1.455zM51.383-77.588c.966 0 1.713-.449 2.072-1.116l-.598-.508c-.279.528-.747.837-1.395.837-.926 0-1.454-.618-1.454-1.475v-.209h3.636v-.388c0-1.445-.817-2.54-2.261-2.54-1.435 0-2.341 1.065-2.341 2.699s.906 2.7 2.34 2.7zm0-4.652c.777 0 1.275.577 1.275 1.434v.1h-2.65v-.07c0-.847.568-1.464 1.375-1.464zM54.18-77.708h1.016l1.344-1.952h.03l1.275 1.952h1.076l-1.833-2.64 1.803-2.52h-1.016L56.6-81.005h-.03l-1.245-1.863h-1.076l1.803 2.56-1.873 2.6zM64.26-77.588c.967 0 1.714-.449 2.072-1.116l-.597-.508c-.28.528-.747.837-1.395.837-.926 0-1.454-.618-1.454-1.475v-.209h3.636v-.388c0-1.445-.817-2.54-2.261-2.54-1.435 0-2.341 1.065-2.341 2.699s.906 2.7 2.34 2.7zm0-4.652c.778 0 1.276.577 1.276 1.434v.1h-2.65v-.07c0-.847.568-1.464 1.375-1.464zm7.81 4.532v-.787h-.577v-2.72c0-1.115-.737-1.772-2.022-1.772-.956 0-1.564.448-1.873 1.006l.558.508c.27-.439.658-.737 1.265-.737.777 0 1.146.388 1.146 1.075v.469h-.976c-1.474 0-2.202.537-2.202 1.534 0 .946.628 1.544 1.704 1.544.737 0 1.285-.339 1.494-.977h.05c.07.498.338.857.906.857h.528zm-2.768-.627c-.578 0-.947-.27-.947-.748v-.199c0-.478.379-.737 1.225-.737h.987v.797c0 .518-.538.887-1.265.887zM77.475-77.588c.986 0 1.663-.479 1.992-1.256l-.677-.418c-.26.558-.688.877-1.315.877-.887 0-1.335-.608-1.335-1.455v-.896c0-.847.448-1.454 1.335-1.454.597 0 1.016.308 1.185.816l.767-.378c-.299-.737-.936-1.235-1.952-1.235-1.474 0-2.321 1.046-2.321 2.699 0 1.654.847 2.7 2.32 2.7zM82.482-77.588c1.405 0 2.351-1.056 2.351-2.7 0-1.643-.946-2.7-2.35-2.7-1.405 0-2.352 1.057-2.352 2.7 0 1.644.947 2.7 2.351 2.7zm0-.797c-.807 0-1.365-.508-1.365-1.515v-.776c0-1.006.558-1.514 1.365-1.514s1.365.508 1.365 1.514v.776c0 1.007-.558 1.515-1.365 1.515zm4.543.677v-3.536c0-.628.568-.936 1.156-.936.707 0 1.036.448 1.036 1.314v3.158h.926v-3.536c0-.628.548-.936 1.145-.936.718 0 1.046.448 1.046 1.314v3.158h.927v-3.297c0-1.255-.618-1.982-1.654-1.982-.866 0-1.384.488-1.573 1.046h-.02c-.27-.728-.877-1.046-1.564-1.046-.688 0-1.156.438-1.375.966h-.05v-.847H86.1v5.16h.926zm8.737 0v-3.536c0-.628.568-.936 1.156-.936.707 0 1.036.448 1.036 1.314v3.158h.926v-3.536c0-.628.548-.936 1.146-.936.717 0 1.046.448 1.046 1.314v3.158h.926v-3.297c0-1.255-.618-1.982-1.654-1.982-.866 0-1.384.488-1.573 1.046h-.02c-.27-.728-.877-1.046-1.564-1.046-.688 0-1.156.438-1.375.966h-.05v-.847h-.926v5.16h.926zm9.793.12c1.405 0 2.351-1.056 2.351-2.7 0-1.643-.946-2.7-2.351-2.7-1.404 0-2.35 1.057-2.35 2.7 0 1.644.946 2.7 2.35 2.7zm0-.797c-.806 0-1.364-.508-1.364-1.515v-.776c0-1.006.558-1.514 1.364-1.514.807 0 1.365.508 1.365 1.514v.776c0 1.007-.558 1.515-1.365 1.515zm6.884.677h.927v-7.371h-.927v3.058h-.039c-.239-.638-.778-.966-1.485-.966-1.295 0-2.072 1.026-2.072 2.699 0 1.673.777 2.7 2.072 2.7.707 0 1.246-.329 1.485-.967h.039v.847zm-1.255-.687c-.827 0-1.354-.588-1.354-1.455v-.876c0-.867.527-1.454 1.354-1.454.697 0 1.255.398 1.255.946v1.892c0 .548-.558.947-1.255.947zm5.798.807c1.405 0 2.351-1.056 2.351-2.7 0-1.643-.946-2.7-2.351-2.7-1.404 0-2.351 1.057-2.351 2.7 0 1.644.947 2.7 2.351 2.7zm0-.797c-.807 0-1.364-.508-1.364-1.515v-.776c0-1.006.557-1.514 1.364-1.514s1.365.508 1.365 1.514v.776c0 1.007-.558 1.515-1.365 1.515zM124.88-77.588c.985 0 1.663-.479 1.992-1.256l-.678-.418c-.259.558-.687.877-1.314.877-.887 0-1.335-.608-1.335-1.455v-.896c0-.847.448-1.454 1.335-1.454.597 0 1.015.308 1.185.816l.767-.378c-.299-.737-.937-1.235-1.952-1.235-1.475 0-2.322 1.046-2.322 2.699 0 1.654.847 2.7 2.322 2.7zM129.887-77.588c1.404 0 2.351-1.056 2.351-2.7 0-1.643-.947-2.7-2.351-2.7-1.405 0-2.351 1.057-2.351 2.7 0 1.644.946 2.7 2.351 2.7zm0-.797c-.807 0-1.365-.508-1.365-1.515v-.776c0-1.006.558-1.514 1.365-1.514.807 0 1.364.508 1.364 1.514v.776c0 1.007-.557 1.515-1.364 1.515zm4.543.677v-3.536c0-.628.588-.936 1.195-.936.727 0 1.086.448 1.086 1.314v3.158h.926v-3.297c0-1.255-.647-1.982-1.703-1.982-.777 0-1.215.398-1.454.966h-.05v-.847h-.926v5.16h.926zm6.366.12c1.215 0 1.972-.628 1.972-1.634 0-.797-.468-1.295-1.603-1.464l-.439-.07c-.598-.09-.896-.28-.896-.737 0-.438.318-.727.946-.727.618 0 1.056.289 1.305.617l.588-.558c-.439-.518-.987-.826-1.863-.826-1.086 0-1.873.537-1.873 1.553 0 .957.687 1.365 1.673 1.505l.439.07c.627.09.827.358.827.737 0 .478-.359.767-1.017.767-.627 0-1.105-.28-1.494-.767l-.627.537c.478.608 1.106.997 2.062.997zm5.27 0c.966 0 1.713-.449 2.072-1.116l-.598-.508c-.279.528-.747.837-1.394.837-.927 0-1.455-.618-1.455-1.475v-.209h3.636v-.388c0-1.445-.817-2.54-2.261-2.54-1.435 0-2.341 1.065-2.341 2.699s.906 2.7 2.341 2.7zm0-4.652c.777 0 1.275.577 1.275 1.434v.1h-2.65v-.07c0-.847.568-1.464 1.375-1.464zm6.794 6.524h.927v-7.152h-.927v.847h-.04c-.239-.638-.777-.966-1.484-.966-1.295 0-2.072 1.026-2.072 2.699 0 1.673.777 2.7 2.072 2.7.707 0 1.245-.329 1.484-.967h.04v2.84zm-1.255-2.68c-.827 0-1.355-.587-1.355-1.454v-.876c0-.867.528-1.454 1.355-1.454.697 0 1.255.398 1.255.946v1.892c0 .548-.558.947-1.255.947zm6.974.688h.926v-5.16h-.926v3.526c0 .648-.598.947-1.186.947-.727 0-1.095-.449-1.095-1.315v-3.158h-.927v3.297c0 1.256.658 1.983 1.713 1.983.857 0 1.255-.469 1.445-.967h.05v.847zm6.844 0v-.787h-.578v-2.72c0-1.115-.737-1.772-2.022-1.772-.956 0-1.564.448-1.873 1.006l.558.508c.269-.439.657-.737 1.265-.737.777 0 1.146.388 1.146 1.075v.469h-.977c-1.474 0-2.201.537-2.201 1.534 0 .946.628 1.544 1.704 1.544.736 0 1.285-.339 1.494-.977h.049c.07.498.339.857.907.857h.528zm-2.769-.627c-.578 0-.947-.27-.947-.748v-.199c0-.478.379-.737 1.225-.737h.987v.797c0 .518-.538.887-1.265.887zM168.741-77.708v-.787h-1.026v-3.586h1.106v-.787h-1.106v-1.424h-.836v.946c0 .349-.11.478-.459.478h-.458v.787h.827v3.397c0 .598.339.976.976.976h.976zm1.884.12c.458 0 .657-.26.657-.618v-.15c0-.358-.199-.617-.657-.617-.459 0-.658.26-.658.618v.149c0 .359.199.618.658.618zM7.003-65.633c1.734 0 2.71-.927 2.71-2.262 0-1.195-.688-1.832-2.112-2.062l-.687-.11c-.578-.089-.827-.268-.827-.746 0-.419.329-.678 1.006-.678.717 0 1.165.27 1.494.658l1.006-1.016c-.568-.628-1.365-.977-2.41-.977-1.634 0-2.61.867-2.61 2.112 0 1.166.667 1.883 2.131 2.072l.688.09c.647.09.807.368.807.747 0 .508-.359.837-1.096.837-.677 0-1.275-.27-1.743-.797l-.997 1.006c.598.657 1.425 1.126 2.64 1.126zm6.755-.12l1.713-5.23h-1.394l-.628 2.112-.488 1.893h-.08l-.488-1.893-.647-2.112H10.29l1.714 5.23h1.753zM18.299-65.633c1.534 0 2.45-1.056 2.45-2.74 0-1.683-.916-2.73-2.45-2.73-1.534 0-2.45 1.047-2.45 2.73 0 1.684.916 2.74 2.45 2.74zm0-1.166c-.578 0-.917-.378-.917-1.036V-68.9c0-.657.339-1.036.917-1.036s.916.379.916 1.036v1.066c0 .658-.339 1.036-.916 1.036zM24.852-65.753h1.475v-3.387c0-.518.468-.767.946-.767.538 0 .727.329.727.996v3.158h1.475v-3.277c0-1.315-.568-2.072-1.634-2.072-.827 0-1.265.458-1.454 1.006h-.06v-3.028h-1.475v7.371zm6.954-5.977c.598 0 .797-.279.797-.627v-.25c0-.348-.2-.627-.797-.627-.598 0-.797.28-.797.628v.249c0 .348.2.627.797.627zm2.192 0c.597 0 .797-.279.797-.627v-.25c0-.348-.2-.627-.797-.627-.598 0-.797.28-.797.628v.249c0 .348.2.627.797.627zm-1.086 6.097c1.534 0 2.45-1.056 2.45-2.74 0-1.683-.916-2.73-2.45-2.73-1.534 0-2.45 1.047-2.45 2.73 0 1.684.916 2.74 2.45 2.74zm0-1.166c-.578 0-.917-.378-.917-1.036V-68.9c0-.657.34-1.036.917-1.036.578 0 .916.379.916 1.036v1.066c0 .658-.338 1.036-.916 1.036zm5.629 1.046v-1.146h-.658v-6.225H36.41v5.937c0 .926.458 1.434 1.464 1.434h.668zM42.093-65.753v-1.146h-.957v-2.938h1.036v-1.146h-1.036v-1.414h-1.325v.856c0 .36-.12.558-.518.558h-.368v1.146h.737v2.56c0 .996.538 1.524 1.554 1.524h.877zm1.982-1.683c-.598 0-.877.338-.877.796v.2c0 .388.21.697.668.777-.17.527-.508.936-.976 1.374h.996c.637-.488 1.066-1.344 1.066-2.151v-.2c0-.458-.28-.796-.877-.796zM51.95-68.542l-.389 1.514h-.06l-.378-1.514-.767-2.44h-1.464l1.832 5.498-.179.578h-.986v1.145h.917c.896 0 1.334-.378 1.603-1.185l2.012-6.037h-1.374l-.767 2.44zm3.915 2.789l.967-1.703h.04l1.006 1.703h1.673l-1.743-2.61 1.733-2.62h-1.554l-.946 1.644H57l-.976-1.644H54.35l1.703 2.57-1.723 2.66h1.534zm6.027 0v-3.387c0-.518.469-.767.947-.767.538 0 .727.329.727.996v3.158h1.474v-3.277c0-1.315-.568-2.072-1.633-2.072-.827 0-1.265.458-1.455 1.006h-.06v-.887h-1.474v5.23h1.474zm9.146 0v-1.146h-.489v-2.29c0-1.236-.756-1.913-2.23-1.913-1.096 0-1.694.378-2.113.996l.877.777c.23-.319.538-.618 1.126-.618.617 0 .867.319.867.827v.329h-.827c-1.385 0-2.242.528-2.242 1.633 0 .907.578 1.525 1.624 1.525.797 0 1.374-.36 1.534-1.037h.06c.09.558.468.917.996.917h.817zm-2.86-.907c-.438 0-.687-.179-.687-.557v-.15c0-.378.3-.588.867-.588h.718v.618c0 .478-.409.677-.897.677zM75.088-65.753h1.474v-1.474l.657-.737 1.176 2.211h1.753l-1.942-3.228 1.743-2.002h-1.634l-1.046 1.246-.647.966h-.06v-4.353h-1.474v7.371zM84.3-73.274l-1.225-.607-.986 1.932.876.428 1.335-1.753zm-1.076 4.732l-.388 1.514h-.06l-.378-1.514-.767-2.44h-1.465L82-65.485l-.179.578h-.986v1.145h.916c.897 0 1.335-.378 1.604-1.185l2.012-6.037h-1.374l-.768 2.44zm4.364 2.789v-3.058c0-.608.419-.797 1.275-.797h.369v-1.375h-.26c-.816 0-1.214.558-1.334 1.136h-.05v-1.136h-1.474v5.23h1.474zM93.192-63.76h1.475v-2.87h.05c.149.568.726.997 1.404.997 1.325 0 2.012-.967 2.012-2.74 0-1.773-.687-2.73-2.012-2.73-.678 0-1.255.419-1.405.997h-.05v-3.018h-1.474v9.363zm2.44-3.069c-.557 0-.966-.289-.966-.767v-1.544c0-.478.409-.767.967-.767s.966.428.966 1.086v.906c0 .658-.408 1.086-.966 1.086zm5.799 1.196c.956 0 1.723-.33 2.192-.867l-.738-.916c-.329.338-.667.627-1.285.627-.787 0-1.155-.438-1.155-1.126v-.08h3.357v-.438c0-1.414-.698-2.67-2.43-2.67-1.575 0-2.451 1.077-2.451 2.73 0 1.674.906 2.74 2.51 2.74zm-.03-4.383c.588 0 .877.428.877 1.065v.09h-1.833v-.08c0-.647.368-1.075.956-1.075zm8.289 4.641c0-.966-.548-1.524-1.823-1.524h-1.514c-.449 0-.628-.149-.628-.398 0-.18.09-.329.229-.419.269.07.578.11.926.11 1.515 0 2.242-.687 2.242-1.733 0-.667-.289-1.205-.897-1.494v-.06h1.156v-1.096h-.827c-.498 0-.787.24-.787.787v.2c-.259-.07-.558-.1-.887-.1-1.504 0-2.241.707-2.241 1.763 0 .677.309 1.205.936 1.494v.04c-.488.1-.975.379-.975.926 0 .448.258.827.756.917v.11c-.607.079-.976.418-.976.996 0 .756.668 1.215 2.48 1.215 2.132 0 2.83-.628 2.83-1.734zm-1.385.2c0 .378-.299.558-1.096.558h-.598c-.796 0-1.095-.18-1.095-.558 0-.16.059-.339.189-.468h1.793c.588 0 .807.169.807.468zm-1.425-3.397c-.577 0-.866-.26-.866-.717v-.12c0-.458.289-.717.866-.717.578 0 .867.259.867.717v.12c0 .458-.289.717-.867.717zM113.877-73.254l-.827.488c-.159-.12-.319-.249-.488-.358h-2.251a9.886 9.886 0 0 1 1.584 1.046l-.797.468.508.598.886-.529c.538.538.937 1.126 1.116 1.754l-.07.03c-.318-.598-.817-.977-1.554-.977-1.185 0-1.972.977-1.972 2.46 0 1.634.966 2.64 2.59 2.64 1.504 0 2.53-.866 2.53-2.888 0-1.435-.528-2.7-1.484-3.696l.727-.438-.498-.598zm-1.305 6.525c-.637 0-1.036-.419-1.036-1.176v-.537c0-.758.399-1.176 1.036-1.176.638 0 1.036.418 1.036 1.176v.537c0 .757-.398 1.176-1.036 1.176zm4.463-4.812c.598 0 .857-.308.857-.727v-.219c0-.418-.259-.727-.857-.727-.597 0-.856.309-.856.727v.22c0 .418.259.726.856.726zm-.737 5.788h1.475v-5.23h-1.475v5.23zM122.201-64.906h-.777v1.145h.777c1.026 0 1.474-.508 1.474-1.434v-5.788h-1.474v6.077zm.737-6.635c.598 0 .857-.308.857-.727v-.219c0-.418-.259-.727-.857-.727-.597 0-.856.309-.856.727v.22c0 .418.259.726.856.726zm5.858-1.733l-1.225-.607-.987 1.932.877.428 1.335-1.753zm-.658 7.521h1.475v-5.23h-1.475v3.397c0 .498-.468.757-.926.757-.538 0-.747-.358-.747-.996v-3.158h-1.474v3.287c0 1.315.567 2.063 1.633 2.063.857 0 1.285-.469 1.465-.997h.049v.877zM137.153-65.753h1.474v-5.23h-1.474v3.397c0 .498-.468.757-.927.757-.538 0-.747-.358-.747-.996v-3.158h-1.474v3.287c0 1.315.568 2.063 1.634 2.063.856 0 1.285-.469 1.464-.997h.05v.877zm4.324 0v-3.387c0-.518.438-.767.866-.767.478 0 .717.319.717.996v3.158h1.475v-3.387c0-.518.428-.767.866-.767.488 0 .717.319.717.996v3.158h1.475v-3.277c0-1.315-.558-2.072-1.564-2.072-.797 0-1.405.468-1.594 1.056h-.03c-.229-.688-.747-1.056-1.464-1.056-.777 0-1.215.448-1.405 1.006h-.059v-.887h-1.475v5.23h1.475zM155.184-65.753h1.475v-7.371h-1.475v3.018h-.049c-.15-.578-.728-.996-1.405-.996-1.325 0-2.012.956-2.012 2.73 0 1.772.687 2.739 2.012 2.739.677 0 1.255-.429 1.405-.997h.049v.877zm-.966-1.076c-.558 0-.966-.428-.966-1.086v-.906c0-.658.408-1.086.966-1.086s.966.289.966.767v1.544c0 .478-.408.767-.966.767zm7.422-6.445l-1.225-.607-.986 1.932.876.428 1.335-1.753zm-1.484 7.64c1.534 0 2.45-1.055 2.45-2.739 0-1.683-.916-2.73-2.45-2.73-1.534 0-2.451 1.047-2.451 2.73 0 1.684.917 2.74 2.451 2.74zm0-1.165c-.578 0-.917-.378-.917-1.036V-68.9c0-.657.339-1.036.917-1.036s.916.379.916 1.036v1.066c0 .658-.338 1.036-.916 1.036zm3.497 3.038h1.474v-2.869h.05c.15.568.727.997 1.405.997 1.324 0 2.012-.967 2.012-2.74 0-1.773-.688-2.73-2.012-2.73-.678 0-1.255.419-1.405.997h-.05v-.877h-1.474v7.222zm2.44-3.068c-.557 0-.966-.289-.966-.767v-1.544c0-.478.409-.767.966-.767.558 0 .967.428.967 1.086v.906c0 .658-.409 1.086-.967 1.086zM175.003-73.274l-1.225-.607-.986 1.932.876.428 1.335-1.753zm-.757 7.521v-5.23h-1.474v5.23h1.474zM178.947-65.753h1.474v-4.084h1.046v-1.146h-1.046v-.996h1.046v-1.145h-.956c-1.016 0-1.564.518-1.564 1.524v.617h-.737v1.146h.737v4.084zM185.918-73.274l-1.226-.607-.986 1.932.877.428 1.335-1.753zm-1.485 7.64c.957 0 1.724-.328 2.192-.866l-.737-.916c-.329.338-.668.627-1.285.627-.787 0-1.156-.438-1.156-1.126v-.08h3.357v-.438c0-1.414-.697-2.67-2.43-2.67-1.574 0-2.451 1.077-2.451 2.73 0 1.674.907 2.74 2.51 2.74zm-.029-4.382c.587 0 .876.428.876 1.065v.09h-1.833v-.08c0-.647.369-1.075.957-1.075zM194.385-73.274l-1.226-.607-.986 1.932.877.428 1.335-1.753zm1.205 7.521v-1.146h-.488v-2.29c0-1.236-.757-1.913-2.232-1.913-1.095 0-1.693.378-2.111.996l.876.777c.23-.319.538-.618 1.126-.618.618 0 .867.319.867.827v.329h-.827c-1.385 0-2.241.528-2.241 1.633 0 .907.577 1.525 1.623 1.525.797 0 1.375-.36 1.534-1.037h.06c.09.558.468.917.996.917h.817zm-2.859-.907c-.438 0-.687-.179-.687-.557v-.15c0-.378.299-.588.866-.588h.718v.618c0 .478-.409.677-.897.677zM199.644-65.753h1.475v-.877h.05c.149.568.727.997 1.404.997 1.325 0 2.012-.967 2.012-2.74 0-1.773-.687-2.73-2.012-2.73-.677 0-1.255.419-1.404.997h-.05v-3.018h-1.475v7.371zm2.441-1.076c-.558 0-.966-.289-.966-.767v-1.544c0-.478.408-.767.966-.767s.966.428.966 1.086v.906c0 .658-.408 1.086-.966 1.086zm6.336-1.165v.657c0 .478-.418.677-.877.677-.478 0-.707-.219-.707-.607v-.14c0-.378.339-.587.867-.587h.717zm1.484-.867v-.08c0-.647.369-1.075.957-1.075.587 0 .876.428.876 1.065v.09h-1.833zm1.186 2.052c-.757 0-1.196-.428-1.196-1.106v-.08h3.367v-.438c0-1.414-.657-2.67-2.39-2.67-.748 0-1.355.24-1.674.738h-.059c-.329-.518-.837-.737-1.475-.737-1.096 0-1.693.378-2.112.996l.877.777c.229-.319.538-.618 1.125-.618.618 0 .867.319.867.827v.26h-.827c-1.305 0-2.241.547-2.241 1.673 0 .896.578 1.554 1.634 1.554 1.096 0 1.623-.459 1.842-1.027h.06c.279.578 1.046 1.027 2.032 1.027.957 0 1.724-.33 2.192-.867l-.737-.916c-.289.298-.677.607-1.285.607zM215.022-65.643c.598 0 .877-.34.877-.797v-.2c0-.458-.279-.796-.877-.796s-.877.338-.877.796v.2c0 .458.279.797.877.797zM227.821-65.753h1.424v-6.953h-1.614l-1.683 3.257h-.02l-1.703-3.257h-1.604v6.953h1.425v-4.632h.029l.528 1.096 1.325 2.45 1.355-2.46.508-1.016h.03v4.562zm5.968 0h1.474v-5.23h-1.474v3.397c0 .498-.469.757-.927.757-.538 0-.747-.358-.747-.996v-3.158h-1.474v3.287c0 1.315.568 2.063 1.634 2.063.856 0 1.285-.469 1.464-.997h.05v.877zm6.933 0v-1.146h-2.679l2.609-2.928v-1.156h-4.223v1.146h2.51l-2.6 2.919v1.165h4.383zm1.814-5.788c.598 0 .857-.308.857-.727v-.219c0-.418-.259-.727-.857-.727s-.857.309-.857.727v.22c0 .418.259.726.857.726zm-.737 5.788h1.474v-5.23h-1.474v5.23zm4.961.12c1.026 0 1.773-.449 2.122-1.445l-1.146-.498c-.149.418-.388.777-.976.777-.598 0-.907-.418-.907-1.076v-.976c0-.657.309-1.086.907-1.086.518 0 .807.319.896.717l1.196-.517c-.309-.857-1.036-1.365-2.092-1.365-1.574 0-2.44 1.056-2.44 2.73 0 1.673.866 2.739 2.44 2.739zM251.873-65.633c1.534 0 2.451-1.056 2.451-2.74 0-1.683-.917-2.73-2.451-2.73s-2.45 1.047-2.45 2.73c0 1.684.916 2.74 2.45 2.74zm0-1.166c-.578 0-.916-.378-.916-1.036V-68.9c0-.657.338-1.036.916-1.036s.917.379.917 1.036v1.066c0 .658-.339 1.036-.917 1.036zm5.629 1.046v-1.146h-.657v-6.225h-1.475v5.937c0 .926.459 1.434 1.465 1.434h.667zm3.009.12c1.534 0 2.45-1.056 2.45-2.74 0-1.683-.916-2.73-2.45-2.73-1.534 0-2.451 1.047-2.451 2.73 0 1.684.917 2.74 2.451 2.74zm0-1.166c-.578 0-.917-.378-.917-1.036V-68.9c0-.657.339-1.036.917-1.036.578 0 .916.379.916 1.036v1.066c0 .658-.338 1.036-.916 1.036zm8.338 1.424c0-.966-.548-1.524-1.823-1.524h-1.514c-.448 0-.627-.149-.627-.398 0-.18.089-.329.229-.419.268.07.577.11.926.11 1.514 0 2.241-.687 2.241-1.733 0-.667-.289-1.205-.896-1.494v-.06h1.155v-1.096h-.827c-.498 0-.787.24-.787.787v.2c-.259-.07-.557-.1-.886-.1-1.504 0-2.241.707-2.241 1.763 0 .677.308 1.205.936 1.494v.04c-.488.1-.976.379-.976.926 0 .448.259.827.757.917v.11c-.608.079-.976.418-.976.996 0 .756.667 1.215 2.48 1.215 2.132 0 2.829-.628 2.829-1.734zm-1.385.2c0 .378-.298.558-1.095.558h-.598c-.797 0-1.096-.18-1.096-.558 0-.16.06-.339.19-.468h1.792c.588 0 .807.169.807.468zm-1.424-3.397c-.578 0-.867-.26-.867-.717v-.12c0-.458.289-.717.867-.717.578 0 .866.259.866.717v.12c0 .458-.288.717-.866.717zM271.46-71.52c1.126 0 1.643-.977 1.892-1.694l-.796-.418-.199.328c-.29.478-.549.758-.897.758-.349 0-.598-.28-.887-.758l-.199-.328-.807.418c.249.717.717 1.693 1.893 1.693zm2.699 5.767v-1.146h-.488v-2.29c0-1.236-.757-1.913-2.231-1.913-1.096 0-1.693.378-2.112.996l.877.777c.229-.319.538-.618 1.125-.618.618 0 .867.319.867.827v.329h-.827c-1.384 0-2.241.528-2.241 1.633 0 .907.578 1.525 1.624 1.525.797 0 1.374-.36 1.534-1.037h.06c.089.558.468.917.995.917h.817zm-2.858-.907c-.439 0-.688-.179-.688-.557v-.15c0-.378.299-.588.867-.588h.717v.618c0 .478-.408.677-.896.677zM278.324-73.672l-1.315 1.584.727.577 1.205-1.145 1.205 1.145.728-.577-1.315-1.584h-1.235zm1.354 7.919v-5.23h-1.474v5.23h1.474zm2.85 0v-3.387c0-.518.468-.767.946-.767.538 0 .727.329.727.996v3.158h1.474v-3.277c0-1.315-.567-2.072-1.633-2.072-.827 0-1.265.458-1.455 1.006h-.059v-.887h-1.475v5.23h1.475zM290.058-65.753h1.474v-.877h.05c.149.568.727.997 1.404.997 1.325 0 2.013-.967 2.013-2.74 0-1.773-.688-2.73-2.013-2.73-.677 0-1.255.419-1.404.997h-.05v-3.018h-1.474v7.371zm2.44-1.076c-.558 0-.966-.289-.966-.767v-1.544c0-.478.408-.767.966-.767s.967.428.967 1.086v.906c0 .658-.409 1.086-.967 1.086zm5.798 1.196c.957 0 1.724-.33 2.192-.867l-.737-.916c-.329.338-.668.627-1.285.627-.787 0-1.156-.438-1.156-1.126v-.08h3.357v-.438c0-1.414-.697-2.67-2.43-2.67-1.574 0-2.451 1.077-2.451 2.73 0 1.674.907 2.74 2.51 2.74zm-.029-4.383c.587 0 .876.428.876 1.065v.09h-1.833v-.08c0-.647.369-1.075.957-1.075zm3.447 5.11h-.777v1.145h.777c1.026 0 1.474-.508 1.474-1.434v-5.788h-1.474v6.077zm.737-6.635c.598 0 .857-.308.857-.727v-.219c0-.418-.259-.727-.857-.727s-.857.309-.857.727v.22c0 .418.259.726.857.726zM310.495-65.753l1.713-5.23h-1.394l-.628 2.112-.488 1.893h-.079l-.489-1.893-.647-2.112h-1.454l1.713 5.23h1.753zM314.27-73.672l-1.314 1.584.727.577 1.205-1.145 1.206 1.145.727-.577-1.315-1.584h-1.236zm3.318 7.919v-1.146h-.488v-2.29c0-1.236-.757-1.913-2.232-1.913-1.095 0-1.693.378-2.112.996l.877.777c.229-.319.538-.618 1.126-.618.617 0 .866.319.866.827v.329h-.826c-1.385 0-2.242.528-2.242 1.633 0 .907.578 1.525 1.624 1.525.797 0 1.374-.36 1.534-1.037h.06c.09.558.468.917.996.917h.817zm-2.859-.907c-.439 0-.688-.179-.688-.557v-.15c0-.378.299-.588.867-.588h.717v.618c0 .478-.408.677-.896.677zm5.32.907v-3.387c0-.518.468-.767.946-.767.538 0 .727.329.727.996v3.158h1.475v-3.277c0-1.315-.568-2.072-1.634-2.072-.827 0-1.265.458-1.454 1.006h-.06v-.887h-1.475v5.23h1.475zm7.671 0h1.474v-7.371h-1.474v3.018h-.05c-.149-.578-.727-.996-1.404-.996-1.325 0-2.013.956-2.013 2.73 0 1.772.688 2.739 2.013 2.739.677 0 1.255-.429 1.404-.997h.05v.877zm-.966-1.076c-.558 0-.967-.428-.967-1.086v-.906c0-.658.409-1.086.967-1.086.557 0 .966.289.966.767v1.544c0 .478-.409.767-.966.767zM5.638-53.798h1.515l.637-2.211.359-1.355h.03l.368 1.355.638 2.211h1.544l1.444-5.23h-1.365l-.508 2.112-.358 1.594h-.04l-.428-1.594-.608-2.112H7.52l-.598 2.112-.418 1.594h-.04l-.358-1.594-.508-2.112H4.174l1.464 5.23zm7.413 0h1.474v-3.387c0-.518.468-.767.946-.767.538 0 .727.329.727.996v3.158h1.475v-3.277c0-1.315-.568-2.072-1.634-2.072-.826 0-1.265.458-1.454 1.006h-.06v-3.028h-1.474v7.371zm6.675-5.787c.597 0 .856-.31.856-.728v-.219c0-.418-.259-.727-.857-.727-.597 0-.856.309-.856.727v.22c0 .418.259.727.857.727zm-.738 5.787h1.475v-5.23h-1.475v5.23zm4.623.12c1.345 0 2.241-.737 2.241-1.744 0-.906-.587-1.424-1.723-1.573l-.588-.08c-.428-.06-.548-.21-.548-.488 0-.26.2-.439.698-.439.438 0 .876.21 1.205.538l.847-.866c-.528-.518-1.036-.817-2.132-.817-1.245 0-2.032.697-2.032 1.703 0 .947.577 1.464 1.763 1.614l.568.07c.368.05.528.179.528.438 0 .309-.2.498-.777.498-.568 0-1.017-.259-1.385-.667l-.866.876c.537.598 1.195.937 2.2.937zm3.248-.12h1.474v-1.474l.658-.737 1.175 2.211h1.753l-1.942-3.227 1.743-2.003h-1.634l-1.046 1.246-.647.966h-.06v-4.353H26.86v7.371zM34.989-56.587l-.389 1.514h-.06l-.378-1.514-.767-2.44h-1.464l1.832 5.498-.179.578h-.986v1.145h.917c.896 0 1.334-.378 1.603-1.185l2.012-6.037h-1.374l-.767 2.441zM41.999-53.38c-.438 0-.697.22-.697.618v.11c0 .288.12.577.498.607a1.78 1.78 0 0 1-.618.986h.847c.378-.328.667-.956.667-1.564v-.139c0-.398-.259-.618-.697-.618zm-.01-.298c1.345 0 2.241-.737 2.241-1.744 0-.906-.587-1.424-1.723-1.573l-.588-.08c-.428-.06-.548-.21-.548-.488 0-.26.2-.439.698-.439.438 0 .876.21 1.205.538l.847-.866c-.528-.518-1.036-.817-2.132-.817-1.245 0-2.032.697-2.032 1.703 0 .947.578 1.464 1.763 1.614l.568.07c.368.05.528.179.528.438 0 .309-.2.498-.777.498-.568 0-1.016-.259-1.385-.667l-.866.876c.538.598 1.195.937 2.2.937zm3.985-5.907c.598 0 .857-.31.857-.728v-.219c0-.418-.26-.727-.857-.727s-.856.309-.856.727v.22c0 .418.258.727.856.727zm-.737 5.787h1.474v-5.23h-1.474v5.23zM53.144-53.798v-1.146h-.956v-2.938h1.035v-1.146h-1.035v-1.414h-1.325v.857c0 .358-.12.557-.518.557h-.369v1.146h.737v2.56c0 .996.538 1.524 1.554 1.524h.877zM56.398-53.678c.956 0 1.724-.329 2.192-.867l-.737-.916c-.33.338-.668.627-1.285.627-.787 0-1.156-.438-1.156-1.126v-.08h3.357v-.438c0-1.414-.697-2.669-2.43-2.669-1.574 0-2.45 1.076-2.45 2.73 0 1.673.905 2.739 2.51 2.739zm-.03-4.383c.588 0 .877.428.877 1.066v.09h-1.833v-.08c0-.648.369-1.076.957-1.076zm6.655 6.255h1.474v-7.222h-1.474v.877h-.05c-.149-.578-.727-.996-1.404-.996-1.325 0-2.012.956-2.012 2.73 0 1.772.687 2.739 2.012 2.739.677 0 1.255-.429 1.404-.997h.05v2.87zm-.966-3.068c-.558 0-.966-.428-.966-1.086v-.906c0-.658.408-1.086.966-1.086s.966.289.966.767v1.544c0 .478-.408.767-.966.767zm6.904 1.076h1.474v-5.23h-1.474v3.397c0 .498-.468.757-.926.757-.538 0-.748-.358-.748-.996v-3.158h-1.474v3.288c0 1.315.568 2.062 1.634 2.062.856 0 1.285-.469 1.464-.997h.05v.877zm3.587-5.787c.597 0 .856-.31.856-.728v-.219c0-.418-.258-.727-.856-.727s-.857.309-.857.727v.22c0 .418.26.727.857.727zm-.737 5.787h1.474v-5.23H71.81v5.23zm4.98 0v-1.146h-.657v-6.225H74.66v5.937c0 .926.458 1.434 1.464 1.434h.668zm5.57 0v-1.146h-.489v-2.29c0-1.236-.757-1.913-2.231-1.913-1.096 0-1.694.378-2.112.996l.877.777c.229-.319.538-.618 1.125-.618.618 0 .867.319.867.827v.329h-.827c-1.385 0-2.241.528-2.241 1.633 0 .907.578 1.525 1.624 1.525.797 0 1.374-.359 1.533-1.037h.06c.09.558.469.917.996.917h.817zm-2.86-.907c-.438 0-.687-.179-.687-.557v-.15c0-.378.299-.588.867-.588h.717v.618c0 .478-.408.677-.897.677zM84.304-55.481c-.597 0-.877.338-.877.796v.2c0 .388.21.697.668.777-.17.528-.508.936-.976 1.374h.996c.638-.488 1.066-1.344 1.066-2.151v-.2c0-.458-.28-.796-.877-.796zM88.865-51.806h1.474v-2.869h.05c.15.568.727.997 1.404.997 1.325 0 2.012-.967 2.012-2.74 0-1.773-.687-2.729-2.012-2.729-.677 0-1.255.418-1.404.996h-.05v-.877h-1.474v7.222zm2.44-3.068c-.558 0-.966-.289-.966-.767v-1.544c0-.478.408-.767.966-.767s.966.428.966 1.086v.906c0 .658-.408 1.086-.966 1.086zm5.091 1.076v-3.058c0-.608.419-.797 1.275-.797h.369v-1.375h-.26c-.816 0-1.215.558-1.334 1.136h-.05v-1.136h-1.474v5.23h1.474zM101.084-53.678c.957 0 1.724-.329 2.192-.867l-.737-.916c-.329.338-.668.627-1.285.627-.787 0-1.156-.438-1.156-1.126v-.08h3.357v-.438c0-1.414-.697-2.669-2.43-2.669-1.574 0-2.45 1.076-2.45 2.73 0 1.673.906 2.739 2.51 2.739zm-.03-4.383c.588 0 .877.428.877 1.066v.09H100.1v-.08c0-.648.368-1.076.956-1.076zm5.032 4.681c-.439 0-.698.22-.698.618v.11c0 .288.12.577.498.607a1.774 1.774 0 0 1-.617.986h.847c.378-.328.667-.956.667-1.564v-.139c0-.398-.259-.618-.697-.618zm1.125-.418v-1.146h-.956v-2.938h1.036v-1.146h-1.036v-1.414h-1.325v.857c0 .358-.119.557-.518.557h-.368v1.146h.737v2.56c0 .996.538 1.524 1.554 1.524h.876zM110.913-53.798h1.475v-4.084h1.862v4.084h1.475v-5.23h-3.337v-.996h1.046v-1.145h-.957c-1.016 0-1.564.518-1.564 1.524v.617h-.737v1.146h.737v4.084zm4.074-5.787c.598 0 .857-.31.857-.728v-.219c0-.418-.259-.727-.857-.727-.597 0-.856.309-.856.727v.22c0 .418.259.727.856.727zm3.139 5.787l.966-1.703h.04l1.006 1.703h1.674l-1.744-2.61 1.734-2.62h-1.554l-.946 1.644h-.04l-.976-1.644h-1.674l1.703 2.57-1.723 2.66h1.534zm5.41.11c.597 0 .876-.339.876-.797v-.2c0-.458-.279-.796-.876-.796-.598 0-.877.338-.877.796v.2c0 .458.279.797.877.797zM4.344-41.843h.936l1.225-6.126h3.078l-1.235 6.126h.936l1.395-6.953h-4.94l-1.395 6.953zm8.687.12c1.573 0 2.66-1.515 2.66-3.278 0-1.384-.788-2.121-1.893-2.121-1.574 0-2.66 1.514-2.66 3.277 0 1.384.787 2.122 1.893 2.122zm.09-.778c-.718 0-1.106-.458-1.106-1.135 0-.15.02-.289.05-.438l.149-.747c.199-.996.797-1.525 1.494-1.525.717 0 1.106.459 1.106 1.136 0 .15-.02.289-.05.438l-.15.747c-.199.997-.796 1.524-1.494 1.524zm5.2-4.502h-.887l-.518 2.62a4.61 4.61 0 0 0-.12.946c0 1.026.648 1.714 1.724 1.714 1.245 0 2.012-.718 2.36-2.431l.569-2.849h-.887l-.558 2.8c-.269 1.354-.687 1.712-1.394 1.712-.618 0-.937-.278-.937-.896 0-.309.04-.578.11-.897l.538-2.719zM28.538-49.473l-.837-.21-.648 1.873.588.15.897-1.813zm-.419 6.265c-.508.548-1.036.717-1.723.717-.727 0-1.066-.249-1.066-.657 0-.11.01-.17.03-.26.09-.457.508-.736 1.185-.736h1.176l.15-.707h-1.077c-.607 0-.886-.22-.886-.548 0-.1.01-.17.02-.24.08-.418.478-.717 1.265-.717.647 0 1.026.17 1.345.539l.587-.539c-.458-.517-.986-.766-1.872-.766-1.455 0-2.212.816-2.212 1.623 0 .488.3.847.877.957l-.01.04c-.947.119-1.445.687-1.445 1.424 0 .777.628 1.355 1.863 1.355.966 0 1.664-.25 2.33-.977l-.537-.508zM32.381-41.843l.15-.757h-1.096l.727-3.646h1.654l.15-.757H29.87l-.15.757h1.555l-.668 3.347c-.02.11-.04.24-.04.349 0 .428.24.707.797.707h1.016zM39.344-46.246l.14-.757h-2.71c-1.593 0-2.68 1.464-2.68 3.158 0 1.384.778 2.122 1.894 2.122 1.573 0 2.64-1.525 2.64-3.108 0-.598-.18-1.046-.529-1.345l.02-.07h1.225zm-1.912 0c.24.27.319.578.319 1.096 0 .16-.02.319-.05.478l-.14.657c-.189.997-.786 1.524-1.484 1.524-.717 0-1.106-.458-1.106-1.135 0-.15.02-.289.04-.419l.14-.697c.2-.976.797-1.504 1.603-1.504h.678zm4.234 3.646h-.986l.877-4.403h-.887l-.817 4.104c-.02.11-.04.24-.04.349 0 .428.24.707.797.707h.917l.14-.757zM48.066-41.843h1.016l-1.534-2.879 1.663-1.514h.578l.16-.767h-.529c-.348 0-.557.08-.796.3L47.319-45.5l-.986.937h-.04l.488-2.441h-.887l-1.036 5.16h.887l.339-1.673.776-.708 1.206 2.381zM52.208-42.6h-.986l.877-4.403h-.887l-.817 4.104c-.02.11-.04.24-.04.349 0 .428.24.707.797.707h.916l.14-.757zM60.782-42.6h-.578l-.269-1.823 1.584-2.58h-.986l-.369.717-.498 1.046h-.04c-.06-1.335-.577-1.882-1.573-1.882-1.574 0-2.5 1.693-2.5 3.466 0 1.255.557 1.933 1.583 1.933.797 0 1.425-.39 2.172-1.883h.04l-.02.976c0 .528.269.787.757.787h.548l.149-.757zm-3.486.09c-.518 0-.837-.3-.837-1.066 0-.18.01-.339.05-.538l.149-.737c.2-.966.747-1.485 1.405-1.485.468 0 .727.23.876 1.106l.14.807-.498.807c-.558.906-.907 1.105-1.286 1.105zM63.999-47.003l-3.009 5.16h.947l1.424-2.49.797-1.664h.06l.09 1.664.219 1.852c.04.419.279.638.737.638h.578l.149-.757h-.627l-.698-5.977c-.05-.418-.279-.637-.747-.637h-.936l-.15.757h.996l.17 1.454zM69.166-47.003l-3.008 5.16h.946l1.425-2.49.797-1.664h.06l.09 1.664.218 1.852c.04.419.28.638.737.638h.578l.15-.757h-.628l-.697-5.977c-.05-.418-.28-.637-.747-.637h-.937l-.15.757h.997l.17 1.454zM73.766-42.6h-.986l.876-4.403h-.886l-.817 4.104c-.02.11-.04.24-.04.349 0 .428.24.707.797.707h.916l.14-.757zm5.937-6.873l-.836-.21-.648 1.873.588.15.896-1.813zm-1.145 4.114h-.887l-.299 1.484c-.189.966-.577 1.384-1.105 1.384-.409 0-.648-.259-.648-.786 0-.17.03-.479.08-.728l.11-.527c.199-.997.607-1.594 1.354-1.943l-.418-.647c-1.275.577-2.002 1.982-2.002 3.685 0 1.186.528 1.714 1.404 1.714.668 0 1.196-.4 1.474-1.285h.04c.03.856.399 1.285 1.225 1.285 1.415 0 2.162-1.773 2.162-3.427 0-.907-.279-1.484-.886-1.972l-.598.577c.418.349.608.747.608 1.355 0 .16-.02.379-.06.558l-.12.568c-.239 1.225-.657 1.573-1.125 1.573-.429 0-.668-.259-.668-.786 0-.16.03-.449.08-.708l.279-1.374zm5.17 4.89l.758.31.528-1.156c.11-.23.15-.389.15-.558 0-.338-.17-.548-.569-.667l-.677-.2c-.737-.209-1.036-.527-1.036-1.205 0-.209.09-.627.16-.966.189-.926.687-1.435 1.454-1.435.558 0 .866.27 1.026.777l.747-.318c-.19-.718-.817-1.235-1.743-1.235-1.594 0-2.53 1.494-2.53 3.117 0 1.176.508 1.754 1.673 2.112l.628.18-.568 1.245zM94.092-48.457l.16-.757h-3.596l-.19.996 1.226 1.225-.01.08c-1.335 0-2.55 1.325-2.55 3.068 0 1.384.777 2.122 1.892 2.122 1.574 0 2.64-1.515 2.64-3.188 0-.986-.299-1.644-1.434-2.69l-.947-.866.01-.04.857.05h1.942zm-1.304 3.347c0 .17-.02.329-.06.508l-.12.587c-.19.997-.787 1.514-1.494 1.514-.717 0-1.106-.448-1.106-1.125 0-.15.02-.289.04-.419l.13-.617c.209-1.076.976-1.833 1.912-1.923.568.638.698 1.007.698 1.475zm5.35 1.902c-.509.548-1.037.717-1.724.717-.727 0-1.066-.249-1.066-.657 0-.11.01-.17.03-.26.09-.457.508-.736 1.186-.736h1.175l.15-.707h-1.077c-.607 0-.886-.22-.886-.548 0-.1.01-.17.02-.24.08-.418.478-.717 1.265-.717.647 0 1.026.17 1.345.539l.587-.539c-.458-.517-.986-.766-1.872-.766-1.454 0-2.212.816-2.212 1.623 0 .488.3.847.877.957l-.01.04c-.946.119-1.444.687-1.444 1.424 0 .777.627 1.355 1.862 1.355.967 0 1.664-.25 2.331-.977l-.538-.508zm3.616 1.365c1.504-2.052 2.331-3.716 2.769-5.16h-.916c-.409 1.395-1.146 2.819-2.142 4.303h-.06l-.12-1.872-.218-1.794c-.04-.428-.27-.637-.728-.637h-.497l-.15.757h.538l.538 4.403h.986zM111.613-48.457l.149-.757h-3.725l-.15.757h1.265l-.02.08c-.707.288-1.085.856-1.085 1.553 0 .548.309.967.916 1.116l-.01.04c-1.245.12-1.872 1.026-1.872 1.962 0 .887.478 1.475 1.603 1.813l.608.18-.568 1.245.757.308.528-1.155c.1-.23.15-.389.15-.558 0-.338-.18-.548-.568-.667l-.668-.19c-.697-.209-.956-.527-.956-.996 0-.13.01-.229.04-.378.139-.747.647-1.176 1.574-1.176h.836l.16-.757h-.787c-.548 0-.857-.249-.857-.767 0-.139.01-.269.04-.408.149-.807.747-1.245 1.524-1.245h1.116zM115.247-49.473l-.837-.21-.647 1.873.588.15.896-1.813zm-.418 6.265c-.508.548-1.036.717-1.724.717-.726 0-1.065-.249-1.065-.657 0-.11.01-.17.029-.26.09-.457.509-.736 1.186-.736h1.175l.15-.707h-1.076c-.608 0-.886-.22-.886-.548 0-.1.009-.17.019-.24.08-.418.478-.717 1.266-.717.647 0 1.026.17 1.344.539l.588-.539c-.458-.517-.986-.766-1.873-.766-1.454 0-2.211.816-2.211 1.623 0 .488.299.847.876.957l-.009.04c-.947.119-1.445.687-1.445 1.424 0 .777.628 1.355 1.863 1.355.966 0 1.663-.25 2.331-.977l-.538-.508zM115.675-39.85h.886l.568-2.84h.04c.129.628.697.967 1.344.967 1.624 0 2.461-1.813 2.461-3.328 0-1.354-.707-2.071-1.883-2.071-1.305 0-2.141.916-2.46 2.47l-.956 4.801zm2.709-2.65c-.867 0-1.195-.538-1.066-1.166l.239-1.165c.199-.986.777-1.515 1.444-1.515.688 0 1.096.469 1.096 1.106 0 .22-.03.379-.06.528l-.149.737c-.189.947-.717 1.474-1.504 1.474zm7.073-.708c-.508.548-1.036.717-1.723.717-.727 0-1.066-.249-1.066-.657 0-.11.01-.17.03-.26.089-.457.508-.736 1.185-.736h1.176l.149-.707h-1.076c-.607 0-.886-.22-.886-.548 0-.1.01-.17.02-.24.079-.418.478-.717 1.265-.717.647 0 1.026.17 1.345.539l.587-.539c-.458-.517-.986-.766-1.872-.766-1.455 0-2.212.816-2.212 1.623 0 .488.299.847.877.957l-.01.04c-.947.119-1.445.687-1.445 1.424 0 .777.628 1.355 1.863 1.355.966 0 1.664-.25 2.331-.977l-.538-.508zM128.91-42.6h-.986l.876-4.403h-.886l-.817 4.104c-.02.11-.04.24-.04.349 0 .428.239.707.797.707h.916l.14-.757zM137.484-42.6h-.578l-.269-1.823 1.584-2.58h-.986l-.369.717-.498 1.046h-.04c-.059-1.335-.577-1.882-1.573-1.882-1.574 0-2.501 1.693-2.501 3.466 0 1.255.558 1.933 1.584 1.933.797 0 1.425-.39 2.172-1.883h.04l-.02.976c0 .528.269.787.757.787h.548l.149-.757zm-3.487.09c-.517 0-.836-.3-.836-1.066 0-.18.01-.339.05-.538l.149-.737c.199-.966.747-1.485 1.405-1.485.468 0 .727.23.876 1.106l.14.807-.499.807c-.557.906-.906 1.105-1.285 1.105zm9.056.667l.149-.757h-.717l.737-3.646h1.046l.16-.757h-5.598l-.15.757h.916l-.886 4.403h.886l.887-4.403h1.843l-.687 3.427c-.02.11-.03.21-.03.279 0 .428.259.697.777.697h.667zM148.547-49.473l-.836-.21-.648 1.873.588.15.896-1.813zm-2.032 7.75c1.574 0 2.66-1.515 2.66-3.278 0-1.384-.787-2.121-1.893-2.121-1.574 0-2.66 1.514-2.66 3.277 0 1.384.787 2.122 1.893 2.122zm.09-.778c-.717 0-1.106-.458-1.106-1.135 0-.15.02-.289.05-.438l.149-.747c.199-.996.797-1.525 1.494-1.525.718 0 1.106.459 1.106 1.136 0 .15-.02.289-.05.438l-.149.747c-.199.997-.797 1.524-1.494 1.524zM152.652-47.003l-.15.757h.678l.557 2.67-2.5 3.725h.996l1.873-2.978h.05l.448 2.42c.07.389.319.558.727.558h.628l.149-.757h-.677l-.608-2.879 2.381-3.516h-.996l-1.753 2.76h-.05l-.399-2.202c-.069-.389-.319-.558-.727-.558h-.627zM159.156-42.6h-.986l.877-4.403h-.887l-.817 4.104c-.019.11-.039.24-.039.349 0 .428.239.707.797.707h.916l.139-.757zm4.872-6.873l-.837-.21-.647 1.873.587.15.897-1.813zm-2.032 7.75c1.574 0 2.659-1.515 2.659-3.278 0-1.384-.787-2.121-1.892-2.121-1.574 0-2.66 1.514-2.66 3.277 0 1.384.787 2.122 1.893 2.122zm.089-.778c-.717 0-1.105-.458-1.105-1.135 0-.15.02-.289.05-.438l.149-.747c.199-.996.797-1.525 1.494-1.525.717 0 1.106.459 1.106 1.136 0 .15-.02.289-.05.438l-.149.747c-.2.997-.797 1.524-1.495 1.524zM167.441-41.843c1.504-2.052 2.331-3.716 2.769-5.16h-.916c-.408 1.395-1.146 2.819-2.142 4.303h-.06l-.119-1.872-.219-1.794c-.04-.428-.269-.637-.728-.637h-.497l-.15.757h.538l.538 4.403h.986zm4.872-.757h-.986l.876-4.403h-.886l-.817 4.104c-.02.11-.04.24-.04.349 0 .428.239.707.797.707h.916l.14-.757zm6.186 0h-.578l-.269-1.823 1.584-2.58h-.986l-.368.717-.499 1.046h-.04c-.059-1.335-.577-1.882-1.573-1.882-1.574 0-2.501 1.693-2.501 3.466 0 1.255.558 1.933 1.584 1.933.797 0 1.425-.39 2.172-1.883h.04l-.02.976c0 .528.269.787.757.787h.548l.149-.757zm-3.487.09c-.517 0-.836-.3-.836-1.066 0-.18.01-.339.05-.538l.149-.737c.199-.966.747-1.485 1.405-1.485.468 0 .727.23.876 1.106l.14.807-.499.807c-.557.906-.906 1.105-1.285 1.105zm4.982.787c.478 0 .658-.29.717-.588.03-.17.04-.28.04-.369 0-.269-.189-.428-.558-.428-.478 0-.657.289-.717.587-.03.17-.04.28-.04.37 0 .268.19.428.558.428zM187.658-49.473l-.837-.21-.647 1.873.587.15.897-1.813zm3.028 7.63l-.906-6.953h-1.215l-3.686 6.953h.986l1.026-1.963h2.61l.239 1.963h.946zm-1.275-2.79h-2.112l1.674-3.296h.05l.388 3.297zM192.28-39.85h.886l.399-1.993c1.494-2.032 2.341-3.716 2.769-5.16h-.906c-.419 1.395-1.166 2.849-2.062 4.164h-.06l-.15-1.654-.239-1.873c-.039-.428-.268-.637-.727-.637h-.498l-.149.757h.538l.597 4.403-.398 1.992zm6.157-2.75h-.986l.876-4.403h-.886l-.817 4.104c-.02.11-.04.24-.04.349 0 .428.239.707.797.707h.916l.14-.757zm2.839.877c1.574 0 2.66-1.515 2.66-3.278 0-1.384-.787-2.121-1.893-2.121-1.574 0-2.66 1.514-2.66 3.277 0 1.384.787 2.122 1.893 2.122zm.09-.778c-.717 0-1.106-.458-1.106-1.135 0-.15.02-.289.05-.438l.149-.747c.199-.996.797-1.525 1.494-1.525.717 0 1.106.459 1.106 1.136 0 .15-.02.289-.05.438l-.149.747c-.2.997-.797 1.524-1.494 1.524zM211.323-41.843l.169-.827h-3.506l2.809-2.64-1.783-2.66h3.407l.169-.826h-4.433l-.179.877 1.714 2.55-2.82 2.65-.179.876h4.632zM215.335-41.843l.149-.757h-1.095l.727-3.646h1.653l.15-.757h-4.094l-.15.757h1.554l-.667 3.347c-.02.11-.04.24-.04.349 0 .428.239.707.797.707h1.016zM221.063-49.473l-.837-.21-.647 1.873.587.15.897-1.813zm-.418 6.265c-.509.548-1.036.717-1.724.717-.727 0-1.066-.249-1.066-.657 0-.11.01-.17.03-.26.09-.457.508-.736 1.186-.736h1.175l.149-.707h-1.075c-.608 0-.887-.22-.887-.548 0-.1.01-.17.02-.24.08-.418.478-.717 1.265-.717.647 0 1.026.17 1.345.539l.587-.539c-.458-.517-.985-.766-1.872-.766-1.454 0-2.212.816-2.212 1.623 0 .488.299.847.877.957l-.01.04c-.946.119-1.444.687-1.444 1.424 0 .777.627 1.355 1.862 1.355.967 0 1.664-.25 2.331-.977l-.537-.508zM223.841-39.85h.887l.378-1.873c2.172 0 3.277-1.465 3.277-3.686 0-1.186-.528-1.713-1.404-1.713-1.166 0-1.833.727-2.172 2.46l-.438 2.171c-.946 0-1.285-.368-1.285-1.065 0-.12.02-.27.079-.548l.09-.428c.2-.997.608-1.594 1.355-1.943l-.419-.647c-1.275.577-1.982 1.982-1.982 3.516 0 1.125.717 1.883 2.012 1.883l-.378 1.872zm1.414-2.64l.499-2.48c.189-.967.567-1.386 1.105-1.386.409 0 .648.26.648.787 0 .17-.03.478-.08.728l-.129.657c-.23 1.106-.887 1.693-2.043 1.693zm9.295-.11h-.578l-.268-1.823 1.583-2.58h-.986l-.368.717-.498 1.046h-.04c-.06-1.335-.578-1.882-1.574-1.882-1.574 0-2.5 1.693-2.5 3.466 0 1.255.557 1.933 1.583 1.933.797 0 1.425-.39 2.172-1.883h.04l-.02.976c0 .528.269.787.757.787h.548l.149-.757zm-3.486.09c-.518 0-.837-.3-.837-1.066 0-.18.01-.339.05-.538l.149-.737c.2-.966.747-1.485 1.405-1.485.468 0 .727.23.876 1.106l.14.807-.498.807c-.558.906-.907 1.105-1.285 1.105zm6.595.667c1.504-2.052 2.331-3.716 2.769-5.16h-.916c-.409 1.395-1.146 2.819-2.142 4.303h-.06l-.119-1.872-.22-1.794c-.039-.428-.268-.637-.727-.637h-.498l-.149.757h.538l.538 4.403h.986zm4.872.12c1.573 0 2.659-1.515 2.659-3.278 0-1.384-.787-2.121-1.892-2.121-1.574 0-2.66 1.514-2.66 3.277 0 1.384.787 2.122 1.893 2.122zm.089-.778c-.717 0-1.106-.458-1.106-1.135 0-.15.02-.289.05-.438l.15-.747c.199-.996.797-1.525 1.494-1.525.717 0 1.106.459 1.106 1.136 0 .15-.02.289-.05.438l-.15.747c-.199.997-.796 1.524-1.494 1.524zM246.522-43.108c-.468 0-.637.279-.707.578-.02.11-.05.249-.05.348 0 .21.129.349.368.399-.219.458-.527.847-1.026 1.275h.718c.697-.498 1.076-1.265 1.205-1.813.02-.11.05-.26.05-.339 0-.279-.199-.448-.558-.448zM255.178-41.843l.17-.827h-3.506l2.809-2.64-1.784-2.66h3.407l.17-.826h-4.433l-.179.877 1.713 2.55-2.819 2.65-.179.876h4.631zM259.19-41.843l.15-.757h-1.096l.727-3.646h1.654l.149-.757h-4.094l-.149.757h1.554l-.668 3.347c-.02.11-.039.24-.039.349 0 .428.239.707.796.707h1.016zM266.144-42.6h-.578l-.269-1.823 1.584-2.58h-.987l-.368.717-.498 1.046h-.04c-.06-1.335-.578-1.882-1.574-1.882-1.574 0-2.5 1.693-2.5 3.466 0 1.255.558 1.933 1.584 1.933.797 0 1.424-.39 2.171-1.883h.04l-.02.976c0 .528.269.787.757.787h.548l.15-.757zm-3.487.09c-.518 0-.837-.3-.837-1.066 0-.18.01-.339.05-.538l.149-.737c.2-.966.748-1.485 1.405-1.485.468 0 .727.23.877 1.106l.139.807-.498.807c-.558.906-.906 1.105-1.285 1.105zM269.062-39.85h.886l.568-2.84h.04c.13.628.697.967 1.355.967 1.355 0 2.281-1.027 2.281-2.391 0-.996-.429-1.534-1.245-1.694l.009-.04c.887-.169 1.585-.776 1.585-1.922 0-.986-.618-1.564-1.664-1.564-1.275 0-2.092.877-2.391 2.361l-1.424 7.122zm2.689-5.579h.379c.777 0 1.165.358 1.165 1.116 0 .219-.02.378-.059.577-.16.887-.708 1.235-1.455 1.235-.866 0-1.205-.507-1.066-1.185l.678-3.377c.219-1.056.747-1.494 1.384-1.494.608 0 .867.309.867.777 0 .15-.03.339-.07.548-.149.647-.468 1.046-1.305 1.046h-.358l-.16.757zm7.322-4.044l-.836-.21-.648 1.873.588.15.896-1.813zm-2.031 7.75c1.573 0 2.659-1.515 2.659-3.278 0-1.384-.787-2.121-1.893-2.121-1.573 0-2.659 1.514-2.659 3.277 0 1.384.787 2.122 1.893 2.122zm.089-.778c-.717 0-1.106-.458-1.106-1.135 0-.15.02-.289.05-.438l.15-.747c.199-.996.797-1.525 1.494-1.525.717 0 1.105.459 1.105 1.136 0 .15-.019.289-.049.438l-.15.747c-.199.997-.797 1.524-1.494 1.524zm2.72 2.65h.887l.568-2.839h.039c.13.628.698.967 1.345.967 1.624 0 2.461-1.813 2.461-3.328 0-1.354-.708-2.071-1.883-2.071-1.305 0-2.142.916-2.46 2.47l-.957 4.801zm2.71-2.65c-.867 0-1.196-.537-1.066-1.165l.239-1.165c.199-.986.777-1.515 1.444-1.515.688 0 1.096.469 1.096 1.106 0 .22-.03.379-.06.528l-.149.737c-.189.947-.717 1.474-1.504 1.474zm7.073-.707c-.508.548-1.036.717-1.724.717-.726 0-1.065-.249-1.065-.657 0-.11.01-.17.03-.26.089-.457.508-.736 1.185-.736h1.175l.15-.707h-1.076c-.608 0-.886-.22-.886-.548 0-.1.009-.17.019-.24.08-.418.478-.717 1.266-.717.647 0 1.026.17 1.344.539l.588-.539c-.458-.517-.986-.766-1.873-.766-1.454 0-2.211.816-2.211 1.623 0 .488.299.847.876.957l-.009.04c-.947.119-1.445.687-1.445 1.424 0 .777.628 1.355 1.863 1.355.966 0 1.664-.25 2.331-.977l-.538-.508zM293.084-42.6h-.986l.876-4.403h-.886l-.817 4.104c-.02.11-.04.24-.04.349 0 .428.239.707.797.707h.916l.14-.757zm6.186 0h-.578l-.268-1.823 1.583-2.58h-.986l-.368.717-.498 1.046h-.04c-.06-1.335-.578-1.882-1.574-1.882-1.574 0-2.501 1.693-2.501 3.466 0 1.255.558 1.933 1.584 1.933.797 0 1.425-.39 2.172-1.883h.04l-.02.976c0 .528.269.787.757.787h.548l.149-.757zm-3.486.09c-.518 0-.837-.3-.837-1.066 0-.18.01-.339.05-.538l.149-.737c.199-.966.747-1.485 1.405-1.485.468 0 .727.23.876 1.106l.14.807-.498.807c-.558.906-.907 1.105-1.285 1.105zM304.556-45.877l-.169.806h.736c.768 0 1.166.399 1.166.967 0 .12-.02.249-.04.348-.159.807-.577 1.206-1.464 1.206-.867 0-1.245-.359-1.464-.927l-.728.508c.27.648.947 1.246 2.122 1.246 1.564 0 2.52-.967 2.52-2.292 0-.806-.478-1.324-1.145-1.444l.01-.05c.886-.189 1.583-.857 1.583-1.832 0-.937-.756-1.575-1.862-1.575-1.066 0-1.744.469-2.232 1.106l.608.548c.389-.598.857-.837 1.494-.837.628 0 .986.31.986.857 0 .08-.01.17-.03.269-.149.757-.627 1.096-1.394 1.096h-.697zM311.459-39.85l.259-1.425.06-1.475h.05c.069.638.338 1.027.956 1.027.598 0 .996-.35 1.385-1.176h.049l-.019.11c-.03.12-.041.219-.041.288 0 .399.25.658.708.658h.737l.149-.757h-.697l.877-4.403h-.887l-.568 2.84a2.35 2.35 0 0 1-.647 1.224c-.269.27-.548.428-.906.428-.509 0-.708-.278-.708-.806 0-.12.01-.33.05-.528l.628-3.158h-.887l-1.434 7.152h.886zm8.906-3.358c-.508.548-1.036.717-1.723.717-.727 0-1.066-.249-1.066-.657 0-.11.01-.17.03-.26.089-.457.508-.736 1.185-.736h1.176l.149-.707h-1.076c-.607 0-.886-.22-.886-.548 0-.1.01-.17.02-.24.079-.418.478-.717 1.265-.717.647 0 1.026.17 1.345.539l.587-.539c-.458-.517-.986-.766-1.872-.766-1.455 0-2.212.816-2.212 1.623 0 .488.299.847.877.957l-.01.04c-.947.119-1.444.687-1.444 1.424 0 .777.627 1.355 1.862 1.355.966 0 1.664-.25 2.331-.977l-.538-.508zM329.607-48.796h-3.676l-.966 3.905.767.12c.329-.37.757-.638 1.315-.638.757 0 1.106.398 1.106 1.026 0 .16-.03.309-.06.458-.18.897-.678 1.375-1.514 1.375-.857 0-1.236-.379-1.455-.927l-.757.508c.269.648.927 1.246 2.112 1.246 1.654 0 2.64-1.206 2.64-2.69 0-1.126-.727-1.813-1.724-1.813-.746 0-1.115.299-1.474.896h-.079l.657-2.64h2.939l.169-.826zM3.905-27.896h.887l.568-2.839h.04c.129.628.697.967 1.354.967 1.355 0 2.281-1.027 2.281-2.391 0-.996-.428-1.534-1.245-1.694l.01-.04c.887-.169 1.584-.776 1.584-1.922 0-.986-.618-1.564-1.664-1.564-1.275 0-2.091.877-2.39 2.361l-1.425 7.122zm2.69-5.578h.378c.777 0 1.166.359 1.166 1.116 0 .219-.02.378-.06.578-.16.886-.707 1.235-1.454 1.235-.867 0-1.206-.508-1.066-1.186l.677-3.377c.22-1.056.747-1.494 1.385-1.494.607 0 .866.309.866.777 0 .15-.03.339-.07.548-.149.647-.467 1.046-1.304 1.046h-.359l-.16.757zm8.637 2.829h-.578l-.269-1.823 1.584-2.58h-.986l-.369.717-.498 1.046h-.04c-.06-1.335-.577-1.882-1.573-1.882-1.574 0-2.5 1.693-2.5 3.466 0 1.255.557 1.933 1.583 1.933.797 0 1.425-.389 2.172-1.883h.04l-.02.976c0 .528.269.787.757.787h.548l.149-.757zm-3.487.09c-.517 0-.836-.3-.836-1.066 0-.18.01-.339.05-.538l.149-.737c.2-.966.747-1.484 1.405-1.484.468 0 .727.229.876 1.105l.14.807-.499.807c-.557.906-.906 1.106-1.285 1.106zM16.275-33.803l-.15.767h.628l-.11.548c-.09.458-.12.668-.12.887 0 1.086.599 1.833 1.724 1.833.667 0 1.146-.18 1.604-.638.857-.847 1.434-3.526 1.434-5.04 0-1.186-.607-1.933-1.733-1.933-.667 0-1.165.2-1.564.598-.418.418-.647 1.076-.647 1.584 0 .847.448 1.603 1.862 1.603h.917l-.2 1.007c-.288 1.474-.767 2.052-1.583 2.052-.628 0-.937-.35-.937-.997 0-.199.02-.448.08-.727l.12-.607c.02-.12.04-.21.04-.28 0-.388-.25-.657-.708-.657h-.657zm1.942-1.344c0-.14.02-.25.06-.479.12-.587.518-.986 1.186-.986.627 0 .946.349.946.996 0 .409-.03.737-.09 1.056l-.04.2h-.956c-.857 0-1.106-.25-1.106-.787zM22.28-27.896l.259-1.424.06-1.475h.05c.069.638.338 1.027.956 1.027.597 0 .996-.349 1.384-1.176h.05l-.02.11c-.03.12-.04.219-.04.289 0 .398.25.657.707.657h.738l.149-.757h-.697l.876-4.403h-.886l-.568 2.84c-.1.497-.329.906-.647 1.224-.27.27-.548.429-.907.429-.508 0-.707-.28-.707-.807 0-.12.01-.33.05-.528l.627-3.158h-.886l-1.435 7.152h.887zm7.242-1.872c1.574 0 2.66-1.515 2.66-3.278 0-1.384-.787-2.121-1.893-2.121-1.574 0-2.66 1.514-2.66 3.277 0 1.385.787 2.122 1.893 2.122zm.09-.777c-.717 0-1.106-.459-1.106-1.136 0-.15.02-.289.05-.438l.15-.747c.199-.996.796-1.524 1.494-1.524.717 0 1.105.458 1.105 1.135 0 .15-.02.289-.05.438l-.149.747c-.2.997-.797 1.525-1.494 1.525zm7.571-6.973l-.837-.21-.647 1.873.588.15.896-1.813zm-2.37 2.47h-.887l-.518 2.62a4.61 4.61 0 0 0-.12.946c0 1.026.648 1.714 1.724 1.714 1.245 0 2.012-.718 2.36-2.43l.568-2.85h-.886l-.558 2.8c-.27 1.354-.687 1.713-1.395 1.713-.617 0-.936-.28-.936-.897 0-.309.04-.578.11-.897l.538-2.719zm5.579 6.535l.756.308.529-1.155c.109-.23.149-.389.149-.558 0-.338-.17-.548-.568-.667l-.677-.2c-.737-.209-1.036-.527-1.036-1.205 0-.209.09-.627.16-.966.188-.926.687-1.434 1.453-1.434.558 0 .867.269 1.026.776l.748-.318c-.19-.718-.817-1.235-1.744-1.235-1.593 0-2.53 1.494-2.53 3.117 0 1.176.508 1.754 1.673 2.112l.628.18-.567 1.245zM45.916-35.048l-.15.757h.678l.558 2.67-2.5 3.725h.996l1.872-2.978h.05l.448 2.42c.07.389.32.558.728.558h.627l.15-.757h-.678l-.607-2.879 2.38-3.516h-.996l-1.753 2.76h-.05l-.398-2.202c-.07-.389-.32-.558-.727-.558h-.628zM55.608-30.645h-.577l-.27-1.823 1.584-2.58h-.986l-.368.717-.498 1.046h-.04c-.06-1.335-.578-1.882-1.574-1.882-1.574 0-2.5 1.693-2.5 3.466 0 1.255.558 1.933 1.583 1.933.798 0 1.425-.389 2.172-1.883h.04l-.02.976c0 .528.269.787.757.787h.548l.15-.757zm-3.486.09c-.518 0-.837-.3-.837-1.066 0-.18.01-.339.05-.538l.15-.737c.199-.966.746-1.484 1.404-1.484.468 0 .727.229.877 1.105l.139.807-.498.807c-.558.906-.906 1.106-1.285 1.106zm4.912 2.66l.259-1.425.06-1.475h.05c.069.638.338 1.027.955 1.027.598 0 .997-.349 1.385-1.176h.05l-.02.11c-.03.12-.04.219-.04.289 0 .398.25.657.707.657h.737l.15-.757h-.697l.876-4.403h-.886l-.568 2.84c-.1.497-.329.906-.648 1.224-.269.27-.548.429-.906.429-.508 0-.707-.28-.707-.807 0-.12.01-.33.05-.528l.627-3.158h-.887l-1.434 7.152h.887zm6.216-1.993l.568-2.839a2.62 2.62 0 0 1 .647-1.225c.27-.28.568-.428.927-.428.518 0 .737.278.737.806 0 .13-.01.33-.05.528l-1.026 5.15h.887l1.036-5.18c.05-.249.07-.478.07-.677 0-.877-.439-1.414-1.315-1.414-.748 0-1.236.398-1.604 1.175h-.05l.02-.11c.03-.12.04-.209.04-.288 0-.389-.25-.658-.698-.658h-.747l-.14.767h.698l-.886 4.393h.886zM70.17-35.048l-3.008 5.16h.946l1.425-2.49.797-1.664h.06l.09 1.664.218 1.853c.04.418.28.637.738.637h.577l.15-.757h-.628l-.697-5.977c-.05-.418-.28-.637-.747-.637h-.937l-.15.757h.997l.17 1.454zM76.692-37.518l-.836-.21-.648 1.873.588.15.896-1.813zm-2.031 7.75c1.573 0 2.66-1.515 2.66-3.278 0-1.384-.788-2.121-1.894-2.121-1.573 0-2.66 1.514-2.66 3.277 0 1.385.788 2.122 1.894 2.122zm.09-.777c-.718 0-1.107-.459-1.107-1.136 0-.15.02-.289.05-.438l.15-.747c.199-.996.797-1.524 1.494-1.524.717 0 1.105.458 1.105 1.135 0 .15-.02.289-.05.438l-.149.747c-.199.997-.796 1.525-1.494 1.525zM80.827-29.888l.149-.757H79.88l.728-3.646h1.653l.15-.757h-4.095l-.15.757h1.555l-.668 3.347c-.02.11-.04.24-.04.349 0 .428.24.707.798.707h1.016zM86.136-31.253c-.508.548-1.036.718-1.723.718-.727 0-1.066-.25-1.066-.658 0-.11.01-.17.03-.259.09-.458.508-.737 1.185-.737h1.176l.15-.707H84.81c-.607 0-.886-.22-.886-.548 0-.1.01-.17.02-.24.08-.418.478-.716 1.265-.716.647 0 1.026.169 1.345.538l.587-.538c-.458-.518-.986-.767-1.872-.767-1.455 0-2.212.817-2.212 1.623 0 .488.3.847.877.957l-.01.04c-.947.119-1.444.687-1.444 1.424 0 .777.627 1.355 1.862 1.355.966 0 1.664-.25 2.331-.977l-.538-.508zM86.982-27.896h.886l.568-2.839h.04c.13.628.697.967 1.344.967 1.624 0 2.461-1.813 2.461-3.327 0-1.355-.707-2.072-1.883-2.072-1.304 0-2.141.916-2.46 2.47l-.956 4.801zm2.71-2.65c-.867 0-1.196-.537-1.067-1.165l.24-1.165c.199-.986.776-1.514 1.444-1.514.687 0 1.096.468 1.096 1.105 0 .22-.03.379-.06.528l-.15.737c-.189.947-.717 1.475-1.504 1.475zm4.383.658l.567-2.839a2.62 2.62 0 0 1 .648-1.225c.27-.28.568-.428.927-.428.517 0 .737.278.737.806 0 .13-.01.33-.05.528l-1.026 5.15h.886l1.036-5.18c.05-.249.07-.478.07-.677 0-.877-.438-1.414-1.315-1.414-.747 0-1.235.398-1.603 1.175h-.05l.02-.11c.03-.12.04-.209.04-.288 0-.389-.25-.658-.698-.658h-.747l-.14.767h.698l-.887 4.393h.887zM99.322-29.768c.478 0 .658-.29.717-.588.03-.17.04-.28.04-.369 0-.269-.189-.428-.558-.428-.478 0-.657.289-.717.588-.03.169-.04.279-.04.368 0 .269.19.429.558.429zM9.982-23.61l.259-1.276H5.13l-.26 1.275h1.833L5.57-17.933h1.444l1.136-5.678h1.833zM14.225-17.933l.22-1.116h-.588l.826-4.114H13.29l-.18.907h-.05c-.07-.568-.577-1.026-1.304-1.026-1.335 0-2.43 1.434-2.43 3.656 0 1.045.418 1.813 1.394 1.813.817 0 1.295-.488 1.703-1.335h.06l-.03.149c-.01.05-.03.19-.03.3 0 .487.379.766.877.766h.926zm-2.819-1.026c-.408 0-.658-.279-.658-.747 0-.16.03-.429.06-.568l.14-.697c.16-.787.528-1.166 1.146-1.166.577 0 .916.379.816.867l-.16.797c-.079.388-.258.767-.477 1.036-.21.259-.508.478-.867.478zm3.637 1.026h1.394l.419-2.102h.747l.488 1.315c.19.518.518.787 1.026.787h.587l.23-1.116h-.518l-.389-1.046c-.11-.298-.269-.428-.488-.488l.01-.06c.259-.04.448-.14.648-.418l.697-.986h.498l.23-1.116h-.648c-.568 0-.827.15-1.136.578l-1.016 1.434h-.747l.408-2.012H16.09l-1.046 5.23zm5.44 0h.806c.976 0 1.614-.608 1.992-2.122h.708l-.429 2.122h1.335l.428-2.122h.728c-.02.17-.02.359-.02.548 0 1.116.408 1.574 1.315 1.574h.627l.23-1.116h-.927c-.06-.12-.08-.289-.08-.498 0-.239.03-.617.14-1.155.159-.797.328-1.166.508-1.345h.826l.23-1.116h-.668c-.966 0-1.594.588-1.972 2.032h-.718l.409-2.032h-1.335l-.408 2.032h-.737c.01-.139.02-.289.02-.458 0-1.116-.409-1.574-1.315-1.574h-.508l-.23 1.116h.807c.06.12.08.289.08.498 0 .24-.03.618-.14 1.156-.159.797-.328 1.165-.508 1.344h-.965l-.23 1.116zM31.267-17.813c.896 0 1.583-.32 2.23-1.176l-.856-.677c-.468.587-.817.727-1.275.727-.687 0-.926-.339-.926-.837 0-.05 0-.11.02-.229 2.34-.07 3.306-.747 3.306-1.823 0-1.135-1.085-1.454-1.872-1.454-1.733 0-2.84 1.544-2.84 3.217 0 1.385.728 2.252 2.213 2.252zm.547-4.403c.25 0 .598.08.598.528 0 .418-.309.707-1.803.797l.04-.23c.12-.677.578-1.095 1.165-1.095zM38.188-17.813c1.575 0 2.7-1.395 2.7-3.387 0-1.106-.628-1.813-1.464-1.813-.668 0-1.106.269-1.465 1.026h-.06c.3-1.295.837-1.853 1.814-1.933l1.544-.13.279-1.374-1.455.13c-1.155.1-1.853.398-2.41.956-1.066 1.066-1.544 3.367-1.544 4.343 0 1.335.786 2.182 2.061 2.182zm.07-1.126c-.488 0-.767-.279-.767-.827 0-.14.02-.319.06-.518l.09-.458c.15-.777.558-1.146 1.135-1.146.528 0 .727.25.727.678 0 .239-.02.418-.05.568l-.109.557c-.15.777-.558 1.146-1.086 1.146zm3.079 1.006h2.56c1.046 0 2.181-.588 2.181-2.202 0-.906-.527-1.474-1.454-1.474H43.46l.319-1.554h-1.395l-1.046 5.23zm1.594-1.016l.328-1.644h.827c.389 0 .608.24.608.558 0 .13-.01.22-.03.319-.09.448-.478.767-.896.767h-.837zm3.357 1.016h1.394l1.046-5.23h-1.394l-1.046 5.23zm2.192.06h.468c.598 0 1.066-.13 1.485-.548.428-.429.787-1.126 1.185-3.118l.1-.508h1.314l-.826 4.114H53.6l1.046-5.23h-4.034l-.329 1.644c-.279 1.394-.558 2.072-.896 2.47h-.668l-.239 1.176zm8.697.06c1.554 0 2.7-1.395 2.7-3.288 0-1.374-.807-2.181-2.082-2.181-1.554 0-2.7 1.394-2.7 3.287 0 1.375.807 2.182 2.082 2.182zm.05-1.126c-.488 0-.747-.329-.747-.827 0-.13.02-.249.03-.309l.189-.936c.15-.747.518-1.145 1.046-1.145.488 0 .747.328.747.826 0 .13-.02.25-.03.309l-.189.936c-.15.747-.518 1.146-1.046 1.146zM65.247-21.19l-.876 1.952h-.06l-.16-1.952-.199-1.973h-1.384l.737 5.529-.279.578h-.966l-.23 1.115h.778c.996 0 1.444-.378 1.852-1.145l3.208-6.077h-1.484l-.937 1.973zM69.5-17.813c.997 0 1.764-.488 2.222-1.455l-1.066-.498c-.288.498-.498.827-1.036.827-.547 0-.787-.329-.787-.817 0-.14.02-.279.05-.418l.18-.887c.149-.737.498-1.095 1.085-1.095.508 0 .658.268.777.677l1.176-.448c-.13-.817-.877-1.355-1.873-1.355-1.584 0-2.78 1.345-2.78 3.207 0 1.624.917 2.262 2.053 2.262zm3.717-.12h1.395l.816-4.114h1.465l.219-1.116h-4.303l-.22 1.116h1.445l-.817 4.114zm8.806 0l.22-1.116h-.588l.826-4.114h-1.394l-.18.907h-.049c-.07-.568-.578-1.026-1.305-1.026-1.335 0-2.43 1.434-2.43 3.656 0 1.045.418 1.813 1.394 1.813.817 0 1.295-.488 1.704-1.335h.06l-.03.149c-.01.05-.03.19-.03.3 0 .487.378.766.876.766h.926zm-2.819-1.026c-.408 0-.657-.279-.657-.747 0-.16.03-.429.06-.568l.14-.697c.159-.787.527-1.166 1.145-1.166.577 0 .916.379.816.867l-.16.797c-.079.388-.258.767-.477 1.036-.21.259-.508.478-.867.478zm3.637 1.026h1.395l.418-2.102h1.693l-.418 2.102h1.394l1.046-5.23h-1.394l-.408 2.012h-1.694l.408-2.012h-1.394l-1.046 5.23zm8.06.12c1.553 0 2.699-1.395 2.699-3.288 0-1.374-.807-2.181-2.082-2.181-1.554 0-2.7 1.394-2.7 3.287 0 1.375.807 2.182 2.082 2.182zm.05-1.126c-.489 0-.748-.329-.748-.827 0-.13.02-.249.03-.309l.19-.936c.148-.747.517-1.145 1.045-1.145.488 0 .747.328.747.826 0 .13-.02.25-.03.309l-.189.936c-.15.747-.518 1.146-1.046 1.146zm3.098 1.006h2.968c1.086 0 1.793-.678 1.793-1.683 0-.469-.209-.867-.886-.987l.01-.05c.717-.11 1.185-.657 1.185-1.314 0-.738-.518-1.196-1.365-1.196h-2.66l-1.045 5.23zm1.564-1.016l.239-1.195h1.095c.31 0 .498.11.498.388 0 .08-.03.259-.06.389-.06.278-.298.418-.667.418h-1.105zm.408-2.032l.23-1.166h1.005c.309 0 .498.11.498.389 0 .08-.03.23-.05.319-.07.308-.308.458-.677.458h-1.006zm3.01 3.108h.467c.598 0 1.066-.13 1.485-.548.428-.429.786-1.126 1.185-3.118l.1-.508h1.314l-.826 4.114h1.394l1.046-5.23h-4.034l-.329 1.644c-.279 1.394-.558 2.072-.896 2.47h-.668l-.239 1.176zm8.826.06c.896 0 1.583-.32 2.231-1.176l-.857-.677c-.468.587-.817.727-1.275.727-.687 0-.926-.339-.926-.837 0-.05 0-.11.02-.229 2.34-.07 3.307-.747 3.307-1.823 0-1.135-1.086-1.454-1.873-1.454-1.733 0-2.839 1.544-2.839 3.217 0 1.385.727 2.252 2.212 2.252zm.547-4.403c.25 0 .598.08.598.528 0 .418-.309.707-1.803.797l.04-.23c.12-.677.578-1.095 1.165-1.095zm2.202 4.283h1.395l.419-2.102h1.693l-.418 2.102h1.394l1.046-5.23h-1.395l-.408 2.012h-1.693l.408-2.012h-1.395l-1.046 5.23zm8.06.12c1.554 0 2.699-1.395 2.699-3.288 0-1.374-.806-2.181-2.081-2.181-1.554 0-2.7 1.394-2.7 3.287 0 1.375.807 2.182 2.082 2.182zm.05-1.126c-.488 0-.747-.329-.747-.827 0-.13.02-.249.03-.309l.189-.936c.149-.747.518-1.145 1.046-1.145.488 0 .747.328.747.826 0 .13-.02.25-.03.309l-.189.936c-.15.747-.518 1.146-1.046 1.146zM122.777-19.616c-.538 0-.856.288-.946.737-.03.15-.07.348-.07.458 0 .239.14.488.508.568-.269.527-.687.946-1.245 1.384h1.056c.747-.528 1.265-1.354 1.405-2.052.029-.15.059-.329.059-.438 0-.339-.199-.657-.767-.657zM128.103-20.105h1.604c-.129.787-.478 1.166-1.165 1.166-.518 0-.757-.18-.956-.697l-1.126.518c.259.817.886 1.305 2.002 1.305 1.684 0 2.849-1.345 2.849-3.208 0-1.624-.916-2.261-2.142-2.261-1.085 0-1.683.398-2.261 1.255l1.066.598c.259-.498.578-.737 1.076-.737.637 0 .876.318.876.786 0 .12-.01.21-.02.3h-1.603l-.2.975zM132.544-17.933h1.394l.817-4.114h1.464l.219-1.116h-4.303l-.219 1.116h1.444l-.816 4.114zm8.806 0l.219-1.116h-.588l.827-4.114h-1.394l-.18.907h-.049c-.07-.568-.578-1.026-1.305-1.026-1.335 0-2.431 1.434-2.431 3.656 0 1.045.418 1.813 1.395 1.813.817 0 1.295-.488 1.703-1.335h.06l-.03.149c-.01.05-.03.19-.03.3 0 .487.379.766.877.766h.926zm-2.819-1.026c-.409 0-.658-.279-.658-.747 0-.16.03-.429.06-.568l.14-.697c.159-.787.528-1.166 1.145-1.166.578 0 .917.379.817.867l-.159.797c-.08.388-.259.767-.479 1.036-.209.259-.507.478-.866.478zM143.689-15.94h1.394l.578-2.9h.05c.069.568.578 1.027 1.305 1.027 1.334 0 2.43-1.435 2.43-3.656 0-1.046-.418-1.813-1.394-1.813-.817 0-1.295.488-1.704 1.335h-.059l.239-1.216h-1.395l-1.444 7.222zm2.988-3.019c-.578 0-.926-.339-.817-.867l.16-.796a2.48 2.48 0 0 1 .478-1.037c.209-.258.508-.478.866-.478.409 0 .658.28.658.747 0 .16-.03.429-.06.568l-.139.697c-.16.787-.528 1.166-1.146 1.166zm8.288 1.026l.22-1.116h-.588l.827-4.114h-1.395l-.179.907h-.05c-.07-.568-.578-1.026-1.305-1.026-1.335 0-2.43 1.434-2.43 3.656 0 1.045.418 1.813 1.394 1.813.817 0 1.295-.488 1.704-1.335h.059l-.03.149c-.01.05-.029.19-.029.3 0 .487.378.766.876.766h.926zm-2.819-1.026c-.408 0-.657-.279-.657-.747 0-.16.03-.429.06-.568l.139-.697c.16-.787.528-1.166 1.146-1.166.577 0 .916.379.816.867l-.159.797c-.08.388-.259.767-.478 1.036-.209.259-.508.478-.867.478zm5.47 1.146c1.345 0 2.45-.688 2.45-1.793 0-.548-.338-.887-.856-.987l.01-.05c.757-.12 1.185-.597 1.185-1.304 0-.758-.618-1.335-1.972-1.335-1.006 0-1.684.309-2.281.966l.797.767a1.598 1.598 0 0 1 1.304-.617c.548 0 .788.199.788.468 0 .07-.01.14-.03.209-.09.308-.349.408-.678.408h-.976l-.199.976h1.016c.378 0 .528.15.528.369 0 .08-.01.18-.03.259-.09.359-.438.538-1.026.538-.558 0-.966-.22-1.225-.578l-.877.817c.458.578 1.136.887 2.072.887zm3.198-.12h1.395l.418-2.102h1.694l-.419 2.102h1.395l1.046-5.23h-1.395l-.408 2.012h-1.694l.409-2.012h-1.395l-1.046 5.23zm6.804-5.23l-.647 3.238c-.05.269-.09.498-.09.757 0 .857.448 1.355 1.236 1.355.796 0 1.295-.518 1.683-1.335h.06l-.03.149c-.01.05-.03.19-.03.3 0 .487.378.766.877.766h.926l.219-1.116h-.588l.827-4.114h-1.394l-.538 2.69c-.08.398-.249.737-.478 1.016-.23.279-.498.478-.837.478s-.488-.209-.488-.548c0-.15.03-.339.069-.528l.618-3.108h-1.395zm8.568 6.625h1.235l.508-2.51h-.896l.827-4.115h-1.395l-.538 2.69c-.08.398-.249.737-.478 1.016-.229.279-.498.478-.837.478s-.488-.209-.488-.548c0-.15.03-.339.07-.528l.617-3.108h-1.394l-.648 3.238a4.084 4.084 0 0 0-.089.757c0 .857.448 1.355 1.235 1.355.797 0 1.295-.518 1.683-1.335h.06l-.03.149c-.01.05-.03.19-.03.3 0 .507.409.766.847.766h.02l-.279 1.395zM183.562-17.933l.219-1.116h-.588l.827-4.114h-1.394l-.18.907h-.05c-.07-.568-.577-1.026-1.305-1.026-1.334 0-2.43 1.434-2.43 3.656 0 1.045.418 1.813 1.395 1.813.816 0 1.295-.488 1.703-1.335h.06l-.03.149c-.01.05-.03.19-.03.3 0 .487.378.766.877.766h.926zm-2.819-1.026c-.409 0-.658-.279-.658-.747 0-.16.03-.429.06-.568l.14-.697c.159-.787.527-1.166 1.145-1.166.578 0 .916.379.817.867l-.16.797a2.468 2.468 0 0 1-.478 1.036c-.209.259-.508.478-.866.478zM186.311-17.933h2.968c1.086 0 1.793-.678 1.793-1.683 0-.469-.209-.867-.886-.987l.01-.05c.717-.11 1.185-.657 1.185-1.314 0-.738-.518-1.196-1.364-1.196h-2.66l-1.046 5.23zm1.564-1.016l.239-1.195h1.096c.308 0 .498.11.498.388 0 .08-.03.259-.06.389-.06.278-.299.418-.667.418h-1.106zm.408-2.032l.229-1.166h1.006c.309 0 .499.11.499.389 0 .08-.03.23-.05.319-.07.308-.309.458-.678.458h-1.006zM198.812-17.933l.229-1.175h-1.435l1.156-5.778h-2.251l-2.062 2.191.847.748 1.743-1.853h.089l-.926 4.692h-1.793l-.229 1.175h4.632zm3.387.12c2.032 0 3.158-2.282 3.158-4.643 0-1.155-.388-2.55-2.141-2.55-2.033 0-3.158 2.282-3.158 4.642 0 1.156.388 2.55 2.141 2.55zm.13-1.176c-.628 0-.867-.408-.867-1.086 0-.229.03-.448.08-.717l.249-1.235c.209-1.066.518-1.803 1.295-1.803.628 0 .867.408.867 1.086 0 .229-.03.448-.08.717l-.249 1.235c-.209 1.066-.518 1.803-1.295 1.803zM207.249-15.94h1.395l.577-2.9h.05c.07.568.578 1.027 1.305 1.027 1.335 0 2.43-1.435 2.43-3.656 0-1.046-.418-1.813-1.394-1.813-.817 0-1.295.488-1.703 1.335h-.06l.239-1.216h-1.395l-1.444 7.222zm2.988-3.019c-.577 0-.926-.339-.817-.867l.16-.796c.08-.39.259-.768.478-1.037.209-.258.508-.478.867-.478.408 0 .657.28.657.747 0 .16-.03.429-.06.568l-.139.697c-.159.787-.528 1.166-1.146 1.166zm8.289 1.026l.219-1.116h-.588l.827-4.114h-1.394l-.18.907h-.05c-.07-.568-.577-1.026-1.305-1.026-1.334 0-2.43 1.434-2.43 3.656 0 1.045.418 1.813 1.395 1.813.816 0 1.295-.488 1.703-1.335h.06l-.03.149c-.01.05-.03.19-.03.3 0 .487.378.766.877.766h.926zm-2.819-1.026c-.409 0-.658-.279-.658-.747 0-.16.03-.429.06-.568l.14-.697c.159-.787.527-1.166 1.145-1.166.578 0 .916.379.817.867l-.16.797a2.468 2.468 0 0 1-.478 1.036c-.209.259-.508.478-.866.478zm5.469 1.146c1.345 0 2.451-.688 2.451-1.793 0-.548-.339-.887-.857-.987l.01-.05c.757-.12 1.186-.597 1.186-1.304 0-.758-.618-1.335-1.973-1.335-1.006 0-1.683.309-2.281.966l.797.767a1.6 1.6 0 0 1 1.305-.617c.548 0 .787.199.787.468 0 .07-.01.14-.03.209-.09.308-.349.408-.678.408h-.976l-.199.976h1.016c.379 0 .528.15.528.369 0 .08-.01.18-.03.259-.09.359-.438.538-1.026.538-.558 0-.966-.22-1.225-.578l-.877.817c.459.578 1.136.887 2.072.887zM226.309-17.933h1.354l.698-3.487h.05l.269.768.667 1.783 1.395-1.803.557-.748h.05l-.697 3.487h1.355l1.045-5.23h-1.603l-1.733 2.242h-.02l-.837-2.242h-1.504l-1.046 5.23zm9.404.12c.897 0 1.584-.32 2.232-1.176l-.857-.677c-.468.587-.817.727-1.275.727-.688 0-.927-.339-.927-.837 0-.05 0-.11.02-.229 2.341-.07 3.307-.747 3.307-1.823 0-1.135-1.085-1.454-1.872-1.454-1.734 0-2.839 1.544-2.839 3.217 0 1.385.727 2.252 2.211 2.252zm.548-4.403c.249 0 .598.08.598.528 0 .418-.309.707-1.803.797l.039-.23c.12-.677.578-1.095 1.166-1.095zm2.202 4.283h1.395l.418-2.102h1.694l-.419 2.102h1.395l1.045-5.23h-1.394l-.408 2.012h-1.694l.409-2.012h-1.395l-1.046 5.23zm5.808 0h2.67c1.046 0 2.181-.588 2.181-2.202 0-.906-.528-1.474-1.454-1.474h-1.275l.319-1.554h-1.395l-1.046 5.23zm1.594-1.016l.329-1.644h.936c.389 0 .608.24.608.558 0 .13-.01.22-.03.319-.09.448-.478.767-.897.767h-.946zm5.27 1.136c.767 0 1.315-.558 1.704-1.335h.049c0 .827.409 1.335 1.116 1.335.757 0 1.275-.538 1.663-1.335h.06l-.03.149c-.01.05-.03.19-.03.3 0 .487.379.766.877.766h.927l.219-1.116h-.588l.827-4.114h-1.395l-.538 2.69a2.49 2.49 0 0 1-.478 1.026c-.219.269-.508.468-.777.468-.289 0-.418-.209-.418-.488 0-.21.04-.399.079-.588l.618-3.108h-1.384l-.539 2.69a2.478 2.478 0 0 1-.478 1.026c-.219.269-.507.468-.777.468-.288 0-.418-.209-.418-.488 0-.21.04-.399.08-.588l.617-3.108h-1.394l-.618 3.118c-.06.309-.119.598-.119.947 0 .777.418 1.285 1.145 1.285zm9.534 0c.897 0 1.584-.32 2.232-1.176l-.857-.677c-.468.587-.817.727-1.275.727-.687 0-.927-.339-.927-.837 0-.05 0-.11.02-.229 2.341-.07 3.307-.747 3.307-1.823 0-1.135-1.085-1.454-1.872-1.454-1.734 0-2.839 1.544-2.839 3.217 0 1.385.727 2.252 2.211 2.252zm.548-4.403c.249 0 .598.08.598.528 0 .418-.309.707-1.803.797l.04-.23c.119-.677.577-1.095 1.165-1.095zm3.387 2.6c-.537 0-.856.288-.946.737-.03.15-.069.348-.069.458 0 .239.139.488.508.568-.269.527-.688.946-1.246 1.384h1.056c.747-.528 1.265-1.354 1.405-2.052.03-.15.06-.329.06-.438 0-.339-.2-.657-.768-.657zM268.484-17.933h2.968c1.086 0 1.793-.678 1.793-1.683 0-.469-.209-.867-.886-.987l.01-.05c.717-.11 1.185-.657 1.185-1.314 0-.738-.518-1.196-1.365-1.196h-2.66l-1.045 5.23zm1.564-1.016l.239-1.195h1.095c.309 0 .498.11.498.388 0 .08-.03.259-.059.389-.06.278-.299.418-.668.418h-1.105zm.408-2.032l.229-1.166h1.006c.309 0 .498.11.498.389 0 .08-.03.23-.05.319-.069.308-.308.458-.677.458h-1.006zM277.319-17.933l.538-2.69a2.21 2.21 0 0 1 .498-1.016c.229-.268.508-.478.846-.478.379 0 .528.22.528.518 0 .2-.03.369-.069.558l-.409 2.072c-.01.05-.03.16-.03.279 0 .468.309.757.837.757h.906l.22-1.116h-.528l.428-2.141a3.9 3.9 0 0 0 .09-.737c0-.857-.449-1.355-1.256-1.355-.816 0-1.334.498-1.733 1.335h-.059l.239-1.216h-1.395l-1.046 5.23h1.395zm4.065 1.992h1.394l.578-2.899h.05c.069.568.578 1.027 1.305 1.027 1.334 0 2.43-1.435 2.43-3.656 0-1.046-.418-1.813-1.394-1.813-.817 0-1.295.488-1.704 1.335h-.059l.239-1.216h-1.395l-1.444 7.222zm2.988-3.018c-.578 0-.926-.339-.817-.867l.16-.796a2.48 2.48 0 0 1 .478-1.037c.209-.258.508-.478.866-.478.409 0 .658.28.658.747 0 .16-.03.429-.06.568l-.139.697c-.16.787-.528 1.166-1.146 1.166zm5.599 1.146c.896 0 1.584-.32 2.231-1.176l-.857-.677c-.468.587-.816.727-1.275.727-.687 0-.926-.339-.926-.837 0-.05 0-.11.02-.229 2.341-.07 3.307-.747 3.307-1.823 0-1.135-1.086-1.454-1.872-1.454-1.734 0-2.839 1.544-2.839 3.217 0 1.385.727 2.252 2.211 2.252zm.548-4.403c.249 0 .597.08.597.528 0 .418-.308.707-1.802.797l.039-.23c.12-.677.578-1.095 1.166-1.095zm4.383 4.403c1.544 0 2.879-1.335 2.879-4.643 0-1.035-.279-1.842-.757-2.32-.438-.439-1.016-.648-1.853-.648-.358 0-.587.02-.806.08l-.259 1.275c.239-.08.518-.12.876-.12.419 0 .777.14 1.016.379.279.279.389.717.389 1.275v.259h-.06c-.179-.598-.538-.887-1.176-.887-1.185 0-2.261 1.275-2.261 3.168 0 1.375.807 2.182 2.012 2.182zm.03-1.126c-.398 0-.657-.329-.657-.827 0-.13.02-.249.03-.309l.159-.787c.16-.777.508-1.175 1.026-1.175.478 0 .717.269.717.717 0 .16-.03.299-.05.409l-.119.577c-.209.987-.488 1.395-1.106 1.395zm3.298 1.006h1.395l.827-4.114h2.022l.219-1.116h-3.417l-1.046 5.23zm6.555.12c1.554 0 2.7-1.395 2.7-3.288 0-1.374-.807-2.181-2.082-2.181-1.554 0-2.7 1.394-2.7 3.287 0 1.375.807 2.182 2.082 2.182zm.05-1.126c-.488 0-.747-.329-.747-.827 0-.13.02-.249.03-.309l.189-.936c.149-.747.518-1.145 1.046-1.145.488 0 .747.328.747.826 0 .13-.02.25-.03.309l-.189.936c-.15.747-.518 1.146-1.046 1.146zm2.7 2.998h1.395l.578-2.899h.049c.07.568.578 1.027 1.305 1.027 1.335 0 2.431-1.435 2.431-3.656 0-1.046-.418-1.813-1.395-1.813-.817 0-1.295.488-1.703 1.335h-.06l.239-1.216h-1.394l-1.445 7.222zm2.989-3.018c-.578 0-.927-.339-.817-.867l.159-.796c.08-.39.259-.768.478-1.037.21-.258.508-.478.867-.478.408 0 .657.28.657.747 0 .16-.029.429-.059.568l-.14.697c-.159.787-.528 1.166-1.145 1.166zm3.218 1.026h2.669c1.046 0 2.182-.588 2.182-2.202 0-.906-.528-1.474-1.454-1.474h-1.275l.318-1.554h-1.394l-1.046 5.23zm1.594-1.016l.328-1.644h.937c.388 0 .607.24.607.558 0 .13-.01.22-.03.319-.089.448-.478.767-.896.767h-.946zm3.626 1.016h.807c.528 0 .857-.19 1.225-.747l.708-1.076h.786l-.368 1.823h1.395l1.045-5.23h-2.669c-1.255 0-2.172.767-2.172 1.873 0 .757.379 1.155.977 1.275l-.01.06a.837.837 0 0 0-.628.388l-.339.518h-.537l-.22 1.116zm4.005-4.214l-.269 1.365h-.986c-.389 0-.608-.24-.608-.528 0-.07.01-.14.02-.19.089-.417.438-.647.896-.647h.947zm2.75 4.214l1.295-1.713h.059l.638 1.713h1.504l-1.145-2.51 2.281-2.72h-1.524l-1.295 1.743h-.06l-.618-1.743h-1.504l1.116 2.5-2.271 2.73h1.524zM5.12-11.207l-.647 3.238c-.05.269-.09.498-.09.757 0 .857.449 1.355 1.236 1.355.797 0 1.295-.518 1.683-1.335h.06l-.03.15c-.01.05-.03.188-.03.298 0 .488.379.767.877.767h.926l.219-1.116h-.587l.826-4.114H8.17l-.538 2.69c-.08.398-.25.737-.478 1.016-.23.279-.498.478-.837.478-.339 0-.488-.209-.488-.548 0-.15.03-.338.07-.528l.617-3.108H5.121zM12.272-5.977h1.395l.827-4.114h2.022l.22-1.116h-3.418l-1.046 5.23zm6.556.12c1.553 0 2.7-1.395 2.7-3.288 0-1.374-.808-2.181-2.083-2.181-1.554 0-2.7 1.394-2.7 3.287 0 1.375.807 2.182 2.082 2.182zm.05-1.126c-.489 0-.748-.329-.748-.827 0-.13.02-.249.03-.309l.19-.936c.149-.747.517-1.145 1.045-1.145.488 0 .747.328.747.826 0 .13-.02.25-.03.309l-.189.936c-.15.747-.518 1.146-1.045 1.146zm2.7 2.998h1.394l.578-2.899h.05c.07.568.577 1.027 1.305 1.027 1.334 0 2.43-1.435 2.43-3.656 0-1.046-.418-1.813-1.394-1.813-.817 0-1.295.488-1.704 1.335h-.06l.24-1.216h-1.395l-1.444 7.222zm2.988-3.018c-.578 0-.926-.339-.817-.866l.16-.797c.08-.39.259-.768.478-1.037.209-.258.508-.478.866-.478.409 0 .658.28.658.747 0 .16-.03.429-.06.568l-.14.697c-.159.787-.528 1.166-1.145 1.166zm8.288 1.026l.22-1.116h-.588l.827-4.114h-1.395l-.18.907h-.049c-.07-.568-.578-1.026-1.305-1.026-1.335 0-2.43 1.434-2.43 3.656 0 1.046.418 1.813 1.394 1.813.817 0 1.295-.488 1.704-1.335h.06l-.03.15c-.01.05-.03.188-.03.298 0 .488.378.767.876.767h.926zm-2.819-1.026c-.408 0-.657-.279-.657-.747 0-.16.03-.429.06-.568l.14-.697c.159-.787.527-1.166 1.145-1.166.577 0 .916.379.816.867l-.159.797c-.08.388-.259.767-.478 1.036-.21.259-.508.478-.867.478zm4.513 1.026l1.295-1.713h.06l.638 1.713h1.504L36.9-8.487l2.282-2.72h-1.524l-1.295 1.743h-.06l-.618-1.743H34.18l1.116 2.5-2.272 2.73h1.524zm5.161.11c.558 0 .887-.3.966-.737.03-.14.07-.35.07-.459 0-.289-.199-.597-.757-.597s-.886.298-.966.737c-.03.14-.07.348-.07.458 0 .289.2.598.757.598z"/></svg>