<svg xmlns="http://www.w3.org/2000/svg" xmlns:xlink="http://www.w3.org/1999/xlink" width="694pt" height="288" viewBox="0 0 694 216"><defs><symbol overflow="visible" id="a"><path d="M1.531-5.281l.028.586c.386-.457.91-.688 1.566-.688.738 0 1.242.285 1.508.852.176-.254.406-.461.687-.617.282-.157.614-.235 1-.235 1.157 0 1.746.617 1.766 1.844V0h-.902v-3.484c0-.38-.086-.66-.262-.848-.172-.188-.461-.281-.867-.281-.336 0-.614.097-.836.3-.219.2-.348.47-.383.805V0h-.91v-3.46c0-.77-.375-1.153-1.13-1.153-.593 0-.995.25-1.214.754V0H.68v-5.281zm0 0"/></symbol><symbol overflow="visible" id="b"><path d="M1.664 0H.762v-5.281h.902zM.688-6.684c0-.148.046-.27.136-.37.09-.102.223-.153.395-.153.176 0 .312.05.402.152.09.102.137.223.137.371 0 .145-.047.27-.137.364-.09.097-.223.148-.402.148-.176 0-.305-.047-.395-.148a.518.518 0 0 1-.136-.364zm0 0"/></symbol><symbol overflow="visible" id="c"><path d="M1.54-5.281l.026.664a1.93 1.93 0 0 1 1.582-.766c1.118 0 1.68.633 1.692 1.89V0h-.902v-3.496c-.004-.379-.094-.664-.262-.844-.172-.183-.438-.273-.801-.273-.293 0-.55.078-.77.234a1.59 1.59 0 0 0-.52.613V0H.685v-5.281zm0 0"/></symbol><symbol overflow="visible" id="d"><path d="M3.945 0c-.05-.105-.093-.29-.125-.555-.422.434-.922.653-1.507.653-.52 0-.946-.149-1.282-.442a1.438 1.438 0 0 1-.5-1.12c0-.552.211-.977.63-1.282.417-.305 1.007-.457 1.765-.457h.879v-.414c0-.317-.094-.567-.285-.754-.188-.188-.465-.281-.833-.281-.324 0-.593.082-.812.242-.219.164-.328.36-.328.59H.64c0-.262.093-.516.28-.762.188-.246.442-.441.763-.582.32-.145.671-.219 1.054-.219.61 0 1.086.153 1.434.457.344.305.523.727.535 1.258v2.434c0 .484.063.87.184 1.156V0zm-1.5-.688c.285 0 .555-.074.805-.218a1.35 1.35 0 0 0 .555-.574v-1.083h-.711c-1.106 0-1.656.325-1.656.97 0 .284.093.507.28.663.188.16.43.243.727.243zm0 0"/></symbol><symbol overflow="visible" id="e"><path d="M1.664 0H.762v-7.5h.902zm0 0"/></symbol><symbol overflow="visible" id="f"><path d="M1.91-6.563v1.282h.985v.695H1.91v3.277c0 .211.043.371.13.477.089.105.237.16.452.16.102 0 .246-.023.43-.062V0a2.573 2.573 0 0 1-.695.098c-.403 0-.707-.121-.914-.368-.204-.242-.305-.59-.305-1.039v-3.277H.043v-.695h.965v-1.282zm0 0"/></symbol><symbol overflow="visible" id="g"><path d="M2.156-2.445l-.562.59V0H.687v-7.5h.907v4.535l.48-.582L3.72-5.28H4.82L2.766-3.078 5.059 0H4zm0 0"/></symbol><symbol overflow="visible" id="h"><path d="M1.531-.738h3.094V0H.43v-.664l2.914-3.871H.473v-.746h4.004v.636zm0 0"/></symbol><symbol overflow="visible" id="i"><path d="M3.758-1.402a.659.659 0 0 0-.274-.567c-.183-.136-.504-.254-.96-.351-.458-.098-.82-.215-1.09-.352-.27-.137-.47-.297-.598-.488a1.161 1.161 0 0 1-.191-.672c0-.434.183-.8.55-1.098.367-.3.832-.453 1.403-.453.597 0 1.086.156 1.457.465.375.309.558.707.558 1.188h-.906c0-.247-.105-.461-.316-.641-.211-.18-.473-.27-.793-.27-.328 0-.586.075-.77.22a.666.666 0 0 0-.281.558c0 .218.086.383.258.496.172.11.484.215.937.316.45.102.817.219 1.094.36.281.14.488.308.625.507.133.196.203.434.203.72 0 .472-.191.85-.566 1.136-.38.285-.868.426-1.473.426-.422 0-.797-.075-1.121-.223a1.852 1.852 0 0 1-.766-.629 1.513 1.513 0 0 1-.273-.871h.902a.93.93 0 0 0 .363.719c.227.18.528.265.895.265.344 0 .617-.066.824-.207a.635.635 0 0 0 .309-.554zm0 0"/></symbol><symbol overflow="visible" id="j"><path d="M.445-2.691c0-.516.102-.98.305-1.395.203-.414.484-.734.848-.957.363-.227.777-.34 1.246-.34.719 0 1.3.25 1.742.75.445.496.668 1.16.668 1.985v.066c0 .512-.098.977-.297 1.383-.195.41-.477.726-.844.957-.367.226-.785.34-1.261.34-.715 0-1.297-.25-1.743-.746-.445-.5-.664-1.157-.664-1.977zm.907.109c0 .586.136 1.055.41 1.41.27.356.633.531 1.09.531.46 0 .824-.18 1.093-.539.27-.36.407-.863.407-1.511 0-.579-.137-1.047-.415-1.407a1.312 1.312 0 0 0-1.093-.543c-.446 0-.809.18-1.082.536-.274.355-.41.863-.41 1.523zm0 0"/></symbol><symbol overflow="visible" id="k"><path d="M3.238-4.473a2.64 2.64 0 0 0-.445-.035c-.594 0-.996.254-1.207.758V0H.684v-5.281h.878l.016.61c.297-.474.715-.712 1.258-.712.176 0 .309.024.402.07zm0 0"/></symbol><symbol overflow="visible" id="l"><path d="M5.148-2.582c0 .805-.187 1.45-.554 1.941-.367.493-.864.739-1.492.739-.641 0-1.149-.203-1.516-.61v2.543H.684V-5.28h.824l.047.586c.367-.457.875-.688 1.53-.688.634 0 1.138.242 1.509.719.367.48.554 1.144.554 2zm-.906-.106c0-.593-.125-1.062-.379-1.41-.254-.343-.601-.515-1.047-.515-.546 0-.957.242-1.23.726v2.524c.27.48.684.722 1.242.722.434 0 .777-.171 1.031-.515.258-.344.383-.852.383-1.532zm0 0"/></symbol><symbol overflow="visible" id="m"><path d="M3.945-.523c-.351.414-.867.62-1.547.62-.562 0-.992-.163-1.289-.492C.816-.719.668-1.203.664-1.844V-5.28h.902v3.41c0 .8.329 1.203.977 1.203.691 0 1.148-.258 1.379-.773v-3.84h.902V0h-.86zm0 0"/></symbol><symbol overflow="visible" id="n"><path d="M1.586-4.645a1.923 1.923 0 0 1 1.562-.738c1.118 0 1.68.633 1.692 1.89V0h-.902v-3.496c-.004-.379-.094-.664-.262-.844-.172-.183-.438-.273-.801-.273-.293 0-.55.078-.77.234a1.59 1.59 0 0 0-.52.613V0H.685v-7.5h.902zm0 0"/></symbol><symbol overflow="visible" id="o"><path d="M2.805-.64c.32 0 .601-.098.843-.294a1.01 1.01 0 0 0 .399-.73h.855c-.015.3-.12.59-.312.863a2.03 2.03 0 0 1-.77.653c-.32.164-.66.246-1.015.246-.72 0-1.293-.239-1.72-.72C.66-1.101.45-1.757.45-2.593v-.148c0-.516.094-.973.285-1.375.188-.399.457-.711.813-.93.351-.223.77-.336 1.25-.336.594 0 1.086.18 1.476.535.395.356.602.817.63 1.38h-.856a1.238 1.238 0 0 0-.387-.84 1.217 1.217 0 0 0-.863-.333c-.457 0-.813.168-1.067.496-.253.332-.378.81-.378 1.434v.172c0 .61.125 1.078.375 1.406.25.328.609.492 1.078.492zm0 0"/></symbol><symbol overflow="visible" id="p"><path d="M2.875.098c-.715 0-1.297-.235-1.746-.707-.45-.47-.676-1.098-.676-1.887v-.164c0-.524.102-.992.3-1.406.2-.41.481-.735.84-.965.36-.235.75-.352 1.173-.352.687 0 1.218.227 1.601.68.38.453.57 1.101.57 1.945v.375H1.36c.012.52.164.942.454 1.262.292.32.664.48 1.113.48.316 0 .59-.062.808-.195.223-.129.414-.3.582-.516l.551.43c-.441.68-1.105 1.02-1.992 1.02zm-.11-4.739c-.367 0-.671.133-.921.399-.246.265-.399.64-.457 1.117H4.03v-.07c-.023-.457-.148-.813-.367-1.067-.223-.25-.523-.379-.898-.379zm0 0"/></symbol><symbol overflow="visible" id="q"><path d="M5.047-3.031c0 1.058-.18 1.844-.54 2.36-.362.51-.925.769-1.694.769-.758 0-1.32-.25-1.684-.754C.766-1.16.574-1.91.562-2.91v-1.207c0-1.043.18-1.82.54-2.328.363-.508.93-.762 1.703-.762.765 0 1.328.246 1.687.734.36.489.547 1.246.555 2.27zm-.902-1.235c0-.765-.106-1.324-.32-1.675-.216-.348-.555-.524-1.02-.524-.465 0-.801.176-1.012.524-.211.347-.32.882-.328 1.605v1.445c0 .77.113 1.336.336 1.704.222.367.558.546 1.012.546.445 0 .777-.171.992-.515.218-.344.332-.89.34-1.633zm0 0"/></symbol><symbol overflow="visible" id="r"><path d="M5.25 0H.59v-.648l2.46-2.735c.364-.414.618-.75.755-1.008.14-.257.21-.527.21-.804 0-.371-.113-.676-.34-.914-.222-.239-.523-.356-.898-.356-.449 0-.797.13-1.047.383-.25.254-.37.613-.37 1.066H.452c0-.652.211-1.183.633-1.586.422-.402.984-.605 1.691-.605.66 0 1.184.172 1.567.52.386.347.578.808.578 1.382 0 .703-.445 1.535-1.336 2.5L1.68-.738h3.57zm0 0"/></symbol><symbol overflow="visible" id="s"><path d="M4.406-2.387h.985v.739h-.985V0h-.91v-1.648H.258v-.536L3.44-7.109h.965zm-3.12 0h2.21v-3.488l-.105.195zm0 0"/></symbol><symbol overflow="visible" id="t"><path d="M4.137-7.113v.765h-.168c-.703.012-1.262.223-1.68.625-.414.403-.656.973-.723 1.703.375-.43.887-.644 1.536-.644.617 0 1.113.219 1.48.656.371.438.555 1 .555 1.688 0 .734-.2 1.32-.598 1.757-.398.442-.934.66-1.605.66-.68 0-1.23-.261-1.653-.784C.855-1.212.645-1.883.645-2.704v-.348c0-1.308.277-2.308.835-3 .56-.691 1.391-1.047 2.497-1.062zM2.949-3.91c-.308 0-.594.09-.855.277a1.446 1.446 0 0 0-.54.7v.331c0 .586.13 1.059.395 1.414.262.36.59.54.985.54.406 0 .726-.153.96-.45.231-.3.348-.691.348-1.175 0-.489-.117-.887-.351-1.188a1.14 1.14 0 0 0-.942-.45zm0 0"/></symbol><symbol overflow="visible" id="u"><path d="M4.902-5.254c0 .356-.093.672-.28.95a1.95 1.95 0 0 1-.759.648c.371.16.664.39.88.695.218.309.327.656.327 1.043 0 .613-.21 1.105-.625 1.469-.414.363-.96.547-1.636.547-.684 0-1.23-.184-1.645-.551C.754-.82.547-1.31.547-1.918c0-.387.105-.73.316-1.043.207-.309.5-.543.871-.703a1.869 1.869 0 0 1-.75-.648 1.693 1.693 0 0 1-.273-.942c0-.598.195-1.074.578-1.426.383-.351.89-.527 1.52-.527.625 0 1.128.176 1.515.527.387.352.578.828.578 1.426zm-.738 3.316c0-.398-.125-.722-.379-.972-.25-.25-.582-.375-.988-.375s-.73.12-.977.37c-.246.247-.37.571-.37.978 0 .402.12.718.359.953.238.23.574.343 1 .343.421 0 .753-.117.996-.347.242-.235.36-.551.36-.95zM2.81-6.465c-.356 0-.645.11-.864.328-.218.223-.328.52-.328.899 0 .36.106.652.324.875.215.222.504.336.868.336.359 0 .648-.114.867-.336C3.89-4.586 4-4.88 4-5.238c0-.364-.113-.657-.336-.887a1.16 1.16 0 0 0-.855-.34zm0 0"/></symbol><symbol overflow="visible" id="v"><path d="M3.559 0h-.907v-6.02l-1.824.668v-.82l2.59-.973h.14zm0 0"/></symbol><symbol overflow="visible" id="x"><path d="M2.297-.996H6.68V0H1.074v-9.242h1.223zm0 0"/></symbol><symbol overflow="visible" id="y"><path d="M5.129 0c-.066-.137-.121-.375-.164-.723-.547.567-1.2.848-1.957.848-.676 0-1.23-.191-1.664-.574A1.859 1.859 0 0 1 .69-1.906c0-.715.274-1.27.817-1.664.543-.395 1.308-.594 2.293-.594h1.144v-.54c0-.41-.125-.737-.367-.98-.246-.242-.61-.367-1.086-.367-.418 0-.77.106-1.054.32-.286.211-.426.465-.426.766H.832c0-.344.121-.672.363-.992a2.45 2.45 0 0 1 .992-.758 3.317 3.317 0 0 1 1.376-.281c.789 0 1.41.2 1.859.594.45.394.68.941.695 1.636v3.16c0 .63.082 1.133.242 1.504V0zm-1.95-.895c.368 0 .72-.097 1.048-.285.332-.191.57-.437.718-.742v-1.41h-.922c-1.437 0-2.156.422-2.156 1.262 0 .367.121.656.367.863.246.207.563.312.946.312zm0 0"/></symbol><symbol overflow="visible" id="z"><path d="M7.457-8.238H4.488V0H3.273v-8.238H.313v-1.004h7.144zm0 0"/></symbol><symbol overflow="visible" id="A"><path d="M3.738.125c-.93 0-1.687-.305-2.273-.914C.883-1.402.59-2.22.59-3.242v-.219c0-.68.129-1.289.39-1.824a3.069 3.069 0 0 1 1.094-1.258c.465-.3.973-.453 1.52-.453.89 0 1.586.297 2.082.883.496.59.742 1.43.742 2.527v.488H1.766c.015.676.214 1.223.593 1.641.38.418.86.625 1.442.625.414 0 .765-.086 1.054-.254.29-.168.54-.394.754-.672l.72.559C5.753-.316 4.89.125 3.738.125zm-.144-6.156c-.477 0-.871.172-1.196.52-.32.343-.52.827-.593 1.449h3.437v-.09c-.031-.598-.195-1.059-.48-1.387-.29-.328-.68-.492-1.168-.492zm0 0"/></symbol><symbol overflow="visible" id="B"><path d="M4.086-5.7l2.219-3.542h1.433L4.816-4.66 7.81 0h-1.45L4.086-3.605 1.805 0H.363L3.36-4.66.43-9.242h1.43zm0 0"/></symbol><symbol overflow="visible" id="D"><path d="M6.691-3.36c0 1.047-.238 1.891-.718 2.528-.477.64-1.125.957-1.942.957-.836 0-1.488-.262-1.968-.793v3.309H.89v-9.508h1.07l.059.762c.476-.594 1.14-.891 1.992-.891.824 0 1.476.312 1.957.934.48.62.722 1.488.722 2.597zm-1.175-.132c0-.774-.164-1.387-.496-1.832C4.69-5.774 4.238-6 3.664-6c-.71 0-1.246.316-1.602.945v3.285c.352.625.891.938 1.614.938.562 0 1.011-.223 1.344-.668.332-.445.496-1.11.496-1.992zm0 0"/></symbol><symbol overflow="visible" id="E"><path d="M.602-3.492c0-1.055.25-1.899.75-2.543.5-.64 1.152-.961 1.96-.961.805 0 1.442.277 1.91.824V-9.75h1.176V0H5.32l-.058-.734C4.793-.16 4.14.125 3.3.125c-.797 0-1.446-.324-1.946-.977-.5-.652-.753-1.5-.753-2.55zm1.175.133c0 .78.16 1.39.48 1.828.325.441.77.66 1.337.66.742 0 1.289-.332 1.629-1v-3.156C4.87-5.676 4.332-6 3.605-6c-.574 0-1.023.223-1.347.668-.32.445-.48 1.102-.48 1.973zm0 0"/></symbol><symbol overflow="visible" id="F"><path d="M1.465 0v-5.96H.383v-.907h1.082v-.707c0-.735.2-1.305.59-1.707.394-.403.953-.602 1.672-.602.27 0 .539.035.804.11l-.062.949c-.2-.04-.41-.055-.633-.055-.383 0-.676.11-.883.332-.207.223-.312.54-.312.953v.727h1.464v.906H2.641V0zm0 0"/></symbol><symbol overflow="visible" id="I"><path d="M5.129-.68C4.672-.14 4 .125 3.117.125c-.734 0-1.289-.21-1.672-.637C1.062-.937.867-1.566.863-2.398v-4.47H2.04v4.438c0 1.04.422 1.559 1.27 1.559.894 0 1.492-.332 1.789-1v-4.996h1.175V0H5.156zm0 0"/></symbol><clipPath id="w"><path d="M614 66h10v10h-10zm0 0"/></clipPath><clipPath id="C"><path d="M614 84h10v10h-10zm0 0"/></clipPath><clipPath id="G"><path d="M614 102h10v10h-10zm0 0"/></clipPath><clipPath id="H"><path d="M614 120h10v10h-10zm0 0"/></clipPath><clipPath id="J"><path d="M614 138h10v10h-10zm0 0"/></clipPath></defs><path d="M20 173.496h578.5M20 149.16h578.5M20 124.82h578.5M20 100.484h578.5M20 76.148h578.5M20 51.809h578.5M20 27.473h578.5" fill="none" stroke="#666" stroke-opacity=".5" stroke-dasharray="1,2" stroke-miterlimit="3.25"/><path d="M42.46 197.832v-2.113h15.556v2.113zm0 0" fill="#841c33" stroke-width=".03" stroke-linecap="square" stroke="#841c33" stroke-miterlimit="3.25"/><path d="M42.46 197.832v-2.113h15.556v2.113zm0 0" fill="none" stroke-width=".5" stroke-linecap="square" stroke="#000" stroke-opacity=".49" stroke-miterlimit="3.25"/><path d="M58.016 197.832v-2.191H73.57v2.191zm0 0" fill="#a3314b" stroke-width=".03" stroke-linecap="square" stroke="#a3314b" stroke-miterlimit="3.25"/><path d="M58.016 197.832v-2.191H73.57v2.191zm0 0" fill="none" stroke-width=".5" stroke-linecap="square" stroke="#000" stroke-opacity=".49" stroke-miterlimit="3.25"/><path d="M73.57 197.832v-3.785H89.13v3.785zm0 0" fill="#c25f77" stroke-width=".03" stroke-linecap="square" stroke="#c25f77" stroke-miterlimit="3.25"/><path d="M73.57 197.832v-3.785H89.13v3.785zm0 0" fill="none" stroke-width=".5" stroke-linecap="square" stroke="#000" stroke-opacity=".49" stroke-miterlimit="3.25"/><path d="M89.129 197.832v-4.441h15.555v4.441zm0 0" fill="#e59db2" stroke-width=".03" stroke-linecap="square" stroke="#e59db2" stroke-miterlimit="3.25"/><path d="M89.129 197.832v-4.441h15.555v4.441zm0 0" fill="none" stroke-width=".5" stroke-linecap="square" stroke="#000" stroke-opacity=".49" stroke-miterlimit="3.25"/><path d="M104.684 197.832v-2.09h15.558v2.09zm0 0" fill="#f5d5df" stroke-width=".03" stroke-linecap="square" stroke="#f5d5df" stroke-miterlimit="3.25"/><path d="M104.684 197.832v-2.09h15.558v2.09zm0 0" fill="none" stroke-width=".5" stroke-linecap="square" stroke="#000" stroke-opacity=".49" stroke-miterlimit="3.25"/><path d="M135.797 197.832v-22.73h15.558v22.73zm0 0" fill="#841c33" stroke-width=".03" stroke-linecap="square" stroke="#841c33" stroke-miterlimit="3.25"/><path d="M135.797 197.832v-22.73h15.558v22.73zm0 0" fill="none" stroke-width=".5" stroke-linecap="square" stroke="#000" stroke-opacity=".49" stroke-miterlimit="3.25"/><path d="M151.355 197.832v-19.527h15.555v19.527zm0 0" fill="#a3314b" stroke-width=".03" stroke-linecap="square" stroke="#a3314b" stroke-miterlimit="3.25"/><path d="M151.355 197.832v-19.527h15.555v19.527zm0 0" fill="none" stroke-width=".5" stroke-linecap="square" stroke="#000" stroke-opacity=".49" stroke-miterlimit="3.25"/><path d="M166.91 197.832v-21.008h15.555v21.008zm0 0" fill="#c25f77" stroke-width=".03" stroke-linecap="square" stroke="#c25f77" stroke-miterlimit="3.25"/><path d="M166.91 197.832v-21.008h15.555v21.008zm0 0" fill="none" stroke-width=".5" stroke-linecap="square" stroke="#000" stroke-opacity=".49" stroke-miterlimit="3.25"/><path d="M182.465 197.832v-12.129h15.558v12.129zm0 0" fill="#e59db2" stroke-width=".03" stroke-linecap="square" stroke="#e59db2" stroke-miterlimit="3.25"/><path d="M182.465 197.832v-12.129h15.558v12.129zm0 0" fill="none" stroke-width=".5" stroke-linecap="square" stroke="#000" stroke-opacity=".49" stroke-miterlimit="3.25"/><path d="M198.023 197.832v-26.465h15.555v26.465zm0 0" fill="#f5d5df" stroke-width=".03" stroke-linecap="square" stroke="#f5d5df" stroke-miterlimit="3.25"/><path d="M198.023 197.832v-26.465h15.555v26.465zm0 0" fill="none" stroke-width=".5" stroke-linecap="square" stroke="#000" stroke-opacity=".49" stroke-miterlimit="3.25"/><path d="M229.137 197.832v-10.559h15.554v10.559zm0 0" fill="#841c33" stroke-width=".03" stroke-linecap="square" stroke="#841c33" stroke-miterlimit="3.25"/><path d="M229.137 197.832v-10.559h15.554v10.559zm0 0" fill="none" stroke-width=".5" stroke-linecap="square" stroke="#000" stroke-opacity=".49" stroke-miterlimit="3.25"/><path d="M244.691 197.832v-10.387h15.555v10.387zm0 0" fill="#a3314b" stroke-width=".03" stroke-linecap="square" stroke="#a3314b" stroke-miterlimit="3.25"/><path d="M244.691 197.832v-10.387h15.555v10.387zm0 0" fill="none" stroke-width=".5" stroke-linecap="square" stroke="#000" stroke-opacity=".49" stroke-miterlimit="3.25"/><path d="M260.246 197.832v-15.555h15.559v15.555zm0 0" fill="#c25f77" stroke-width=".03" stroke-linecap="square" stroke="#c25f77" stroke-miterlimit="3.25"/><path d="M260.246 197.832v-15.555h15.559v15.555zm0 0" fill="none" stroke-width=".5" stroke-linecap="square" stroke="#000" stroke-opacity=".49" stroke-miterlimit="3.25"/><path d="M275.805 197.832v-21.957h15.554v21.957zm0 0" fill="#e59db2" stroke-width=".03" stroke-linecap="square" stroke="#e59db2" stroke-miterlimit="3.25"/><path d="M275.805 197.832v-21.957h15.554v21.957zm0 0" fill="none" stroke-width=".5" stroke-linecap="square" stroke="#000" stroke-opacity=".49" stroke-miterlimit="3.25"/><path d="M291.36 197.832v-13.137h15.558v13.137zm0 0" fill="#f5d5df" stroke-width=".03" stroke-linecap="square" stroke="#f5d5df" stroke-miterlimit="3.25"/><path d="M291.36 197.832v-13.137h15.558v13.137zm0 0" fill="none" stroke-width=".5" stroke-linecap="square" stroke="#000" stroke-opacity=".49" stroke-miterlimit="3.25"/><path d="M322.473 197.832V149.82h15.554v48.012zm0 0" fill="#841c33" stroke-width=".03" stroke-linecap="square" stroke="#841c33" stroke-miterlimit="3.25"/><path d="M322.473 197.832V149.82h15.554v48.012zm0 0" fill="none" stroke-width=".5" stroke-linecap="square" stroke="#000" stroke-opacity=".49" stroke-miterlimit="3.25"/><path d="M338.027 197.832v-50.137h15.559v50.137zm0 0" fill="#a3314b" stroke-width=".03" stroke-linecap="square" stroke="#a3314b" stroke-miterlimit="3.25"/><path d="M338.027 197.832v-50.137h15.559v50.137zm0 0" fill="none" stroke-width=".5" stroke-linecap="square" stroke="#000" stroke-opacity=".49" stroke-miterlimit="3.25"/><path d="M353.586 197.832V97.016h15.555v100.816zm0 0" fill="#c25f77" stroke-width=".03" stroke-linecap="square" stroke="#c25f77" stroke-miterlimit="3.25"/><path d="M353.586 197.832V97.016h15.555v100.816zm0 0" fill="none" stroke-width=".5" stroke-linecap="square" stroke="#000" stroke-opacity=".49" stroke-miterlimit="3.25"/><path d="M369.14 197.832v-71.871h15.56v71.871zm0 0" fill="#e59db2" stroke-width=".03" stroke-linecap="square" stroke="#e59db2" stroke-miterlimit="3.25"/><path d="M369.14 197.832v-71.871h15.56v71.871zm0 0" fill="none" stroke-width=".5" stroke-linecap="square" stroke="#000" stroke-opacity=".49" stroke-miterlimit="3.25"/><path d="M384.7 197.832v-52.437h15.554v52.437zm0 0" fill="#f5d5df" stroke-width=".03" stroke-linecap="square" stroke="#f5d5df" stroke-miterlimit="3.25"/><path d="M384.7 197.832v-52.437h15.554v52.437zm0 0" fill="none" stroke-width=".5" stroke-linecap="square" stroke="#000" stroke-opacity=".49" stroke-miterlimit="3.25"/><path d="M415.813 197.832v-62.055h15.554v62.055zm0 0" fill="#841c33" stroke-width=".03" stroke-linecap="square" stroke="#841c33" stroke-miterlimit="3.25"/><path d="M415.813 197.832v-62.055h15.554v62.055zm0 0" fill="none" stroke-width=".5" stroke-linecap="square" stroke="#000" stroke-opacity=".49" stroke-miterlimit="3.25"/><path d="M431.367 197.832v-85.187h15.555v85.187zm0 0" fill="#a3314b" stroke-width=".03" stroke-linecap="square" stroke="#a3314b" stroke-miterlimit="3.25"/><path d="M431.367 197.832v-85.187h15.555v85.187zm0 0" fill="none" stroke-width=".5" stroke-linecap="square" stroke="#000" stroke-opacity=".49" stroke-miterlimit="3.25"/><path d="M446.922 197.832V28.824h15.558v169.008zm0 0" fill="#c25f77" stroke-width=".03" stroke-linecap="square" stroke="#c25f77" stroke-miterlimit="3.25"/><path d="M446.922 197.832V28.824h15.558v169.008zm0 0" fill="none" stroke-width=".5" stroke-linecap="square" stroke="#000" stroke-opacity=".49" stroke-miterlimit="3.25"/><path d="M462.48 197.832v-53.14h15.555v53.14zm0 0" fill="#e59db2" stroke-width=".03" stroke-linecap="square" stroke="#e59db2" stroke-miterlimit="3.25"/><path d="M462.48 197.832v-53.14h15.555v53.14zm0 0" fill="none" stroke-width=".5" stroke-linecap="square" stroke="#000" stroke-opacity=".49" stroke-miterlimit="3.25"/><path d="M478.035 197.832v-10.977h15.559v10.977zm0 0" fill="#f5d5df" stroke-width=".03" stroke-linecap="square" stroke="#f5d5df" stroke-miterlimit="3.25"/><path d="M478.035 197.832v-10.977h15.559v10.977zm0 0" fill="none" stroke-width=".5" stroke-linecap="square" stroke="#000" stroke-opacity=".49" stroke-miterlimit="3.25"/><path d="M509.148 197.832v-10.555h15.555v10.555zm0 0" fill="#841c33" stroke-width=".03" stroke-linecap="square" stroke="#841c33" stroke-miterlimit="3.25"/><path d="M509.148 197.832v-10.555h15.555v10.555zm0 0" fill="none" stroke-width=".5" stroke-linecap="square" stroke="#000" stroke-opacity=".49" stroke-miterlimit="3.25"/><path d="M524.703 197.832v-9.066h15.559v9.066zm0 0" fill="#a3314b" stroke-width=".03" stroke-linecap="square" stroke="#a3314b" stroke-miterlimit="3.25"/><path d="M524.703 197.832v-9.066h15.559v9.066zm0 0" fill="none" stroke-width=".5" stroke-linecap="square" stroke="#000" stroke-opacity=".49" stroke-miterlimit="3.25"/><path d="M540.262 197.832v-26.3h15.554v26.3zm0 0" fill="#c25f77" stroke-width=".03" stroke-linecap="square" stroke="#c25f77" stroke-miterlimit="3.25"/><path d="M540.262 197.832v-26.3h15.554v26.3zm0 0" fill="none" stroke-width=".5" stroke-linecap="square" stroke="#000" stroke-opacity=".49" stroke-miterlimit="3.25"/><path d="M555.816 197.832v-94.824h15.559v94.824zm0 0" fill="#e59db2" stroke-width=".03" stroke-linecap="square" stroke="#e59db2" stroke-miterlimit="3.25"/><path d="M555.816 197.832v-94.824h15.559v94.824zm0 0" fill="none" stroke-width=".5" stroke-linecap="square" stroke="#000" stroke-opacity=".49" stroke-miterlimit="3.25"/><path d="M571.375 197.832v-10.516h15.555v10.516zm0 0" fill="#f5d5df" stroke-width=".03" stroke-linecap="square" stroke="#f5d5df" stroke-miterlimit="3.25"/><path d="M571.375 197.832v-10.516h15.555v10.516zm0 0" fill="none" stroke-width=".5" stroke-linecap="square" stroke="#000" stroke-opacity=".49" stroke-miterlimit="3.25"/><path d="M50.238 195.914v-.195M50.238 195.719v-.192M65.793 195.86v-.22M65.793 195.64v-.222M81.352 194.254v-.207M81.352 194.047v-.207M96.906 193.445v-.054M96.906 193.39v-.058M112.46 195.914v-.172M112.46 195.742v-.172M143.574 179.371v-4.27M143.574 175.102v-4.27M159.133 179.762v-1.457M159.133 178.305v-1.457M174.688 178.93v-2.106M174.688 176.824v-2.11M190.246 186.52v-.817M190.246 185.703v-.812M205.8 172.824v-1.457M205.8 171.367v-1.453M236.914 187.43v-.157M236.914 187.273v-.16M252.469 187.535v-.09M252.469 187.445v-.093M268.027 182.406v-.129M268.027 182.277v-.132M283.582 176.031v-.156M283.582 175.875v-.156M299.137 186.133v-1.438M299.137 184.695v-1.441M330.25 155.285v-5.465M330.25 149.82v-5.46M345.809 150.938v-3.243M345.809 147.695v-3.246M361.363 102.945v-5.93M361.363 97.016v-5.934M376.918 128.27v-2.31M376.918 125.96v-2.312M392.477 147.828v-2.433M392.477 145.395v-2.43M423.59 141.75v-5.973M423.59 135.777v-5.972M439.145 122.129v-9.484M439.145 112.645v-9.48M454.703 43.004v-14.18M454.703 28.824V14.641M470.258 148.102v-3.41M470.258 144.691v-3.406M485.813 187.25v-.395M485.813 186.855v-.394M516.926 188.836v-1.559M516.926 187.277v-1.554M532.484 189.117v-.351M532.484 188.766v-.348M548.04 172.219v-.688M548.04 171.531v-.687M563.594 107.379v-4.371M563.594 103.008v-4.371M579.152 190.496v-3.18M579.152 187.316v-3.18M50.238 195.527h3M50.238 195.527h-3M50.238 195.914h3M50.238 195.914h-3M65.793 195.418h3M65.793 195.418h-3M65.793 195.86h3M65.793 195.86h-3M81.352 193.84h3M81.352 193.84h-3M81.352 194.254h3M81.352 194.254h-3M96.906 193.332h3M96.906 193.332h-3M96.906 193.445h3M96.906 193.445h-3M112.46 195.57h3M112.46 195.57h-3M112.46 195.914h3M112.46 195.914h-3M143.574 170.832h3M143.574 170.832h-3M143.574 179.371h3M143.574 179.371h-3M159.133 176.848h3M159.133 176.848h-3M159.133 179.762h3M159.133 179.762h-3M174.688 174.715h3M174.688 174.715h-3M174.688 178.93h3M174.688 178.93h-3M190.246 184.89h3M190.246 184.89h-3M190.246 186.52h3M190.246 186.52h-3M205.8 169.914h3M205.8 169.914h-3M205.8 172.824h3M205.8 172.824h-3M236.914 187.113h3M236.914 187.113h-3M236.914 187.43h3M236.914 187.43h-3M252.469 187.352h3M252.469 187.352h-3M252.469 187.535h3M252.469 187.535h-3M268.027 182.145h3M268.027 182.145h-3M268.027 182.406h3M268.027 182.406h-3M283.582 175.719h3M283.582 175.719h-3M283.582 176.031h3M283.582 176.031h-3M299.137 183.254h3M299.137 183.254h-3M299.137 186.133h3M299.137 186.133h-3M330.25 144.36h3M330.25 144.36h-3M330.25 155.285h3M330.25 155.285h-3M345.809 144.45h3M345.809 144.45h-3M345.809 150.938h3M345.809 150.938h-3M361.363 91.082h3M361.363 91.082h-3M361.363 102.945h3M361.363 102.945h-3M376.918 123.648h3M376.918 123.648h-3M376.918 128.27h3M376.918 128.27h-3M392.477 142.965h3M392.477 142.965h-3M392.477 147.828h3M392.477 147.828h-3M423.59 129.805h3M423.59 129.805h-3M423.59 141.75h3M423.59 141.75h-3M439.145 103.164h3M439.145 103.164h-3M439.145 122.129h3M439.145 122.129h-3M454.703 14.64h3M454.703 14.64h-3M454.703 43.004h3M454.703 43.004h-3M470.258 141.285h3M470.258 141.285h-3M470.258 148.102h3M470.258 148.102h-3M485.813 186.46h3M485.813 186.46h-3M485.813 187.25h3M485.813 187.25h-3M516.926 185.723h3M516.926 185.723h-3M516.926 188.836h3M516.926 188.836h-3M532.484 188.418h3M532.484 188.418h-3M532.484 189.117h3M532.484 189.117h-3M548.04 170.844h3M548.04 170.844h-3M548.04 172.219h3M548.04 172.219h-3M563.594 98.637h3M563.594 98.637h-3M563.594 107.379h3M563.594 107.379h-3M579.152 184.137h3M579.152 184.137h-3M579.152 190.496h3M579.152 190.496h-3" fill="none" stroke-linecap="square" stroke="#000" stroke-miterlimit="3.25"/><path d="M598.5 197.832H20M20 197.832V5M20 5h578.5M598.5 5v192.832" fill="none" stroke-width=".5" stroke-linecap="square" stroke="#666" stroke-miterlimit="3.25"/><path d="M50.238 197.832v-2.398M65.793 197.832v-2.398M81.352 197.832v-2.398M96.906 197.832v-2.398M112.46 197.832v-2.398M128.02 197.832v-4.625" fill="none" stroke-width=".5" stroke="#666" stroke-miterlimit="3.25"/><g fill="#666"><use xlink:href="#a" x="63.35" y="209.833"/><use xlink:href="#b" x="72.115" y="209.833"/><use xlink:href="#c" x="74.542" y="209.833"/><use xlink:href="#b" x="80.059" y="209.833"/><use xlink:href="#a" x="82.486" y="209.833"/><use xlink:href="#d" x="91.251" y="209.833"/><use xlink:href="#e" x="96.69" y="209.833"/></g><path d="M143.574 197.832v-2.398M159.133 197.832v-2.398M174.688 197.832v-2.398M190.246 197.832v-2.398M205.8 197.832v-2.398M221.355 197.832v-4.625" fill="none" stroke-width=".5" stroke="#666" stroke-miterlimit="3.25"/><g fill="#666"><use xlink:href="#f" x="166.688" y="209.833"/><use xlink:href="#b" x="169.955" y="209.833"/><use xlink:href="#g" x="172.381" y="209.833"/><use xlink:href="#h" x="177.45" y="209.833"/></g><path d="M236.914 197.832v-2.398M252.469 197.832v-2.398M268.027 197.832v-2.398M283.582 197.832v-2.398M299.137 197.832v-2.398M314.695 197.832v-4.625" fill="none" stroke-width=".5" stroke="#666" stroke-miterlimit="3.25"/><g fill="#666"><use xlink:href="#i" x="259.026" y="209.833"/><use xlink:href="#j" x="264.182" y="209.833"/><use xlink:href="#k" x="269.885" y="209.833"/><use xlink:href="#f" x="273.269" y="209.833"/></g><path d="M330.25 197.832v-2.398M345.809 197.832v-2.398M361.363 197.832v-2.398M376.918 197.832v-2.398M392.477 197.832v-2.398M408.031 197.832v-4.625" fill="none" stroke-width=".5" stroke="#666" stroke-miterlimit="3.25"/><g fill="#666"><use xlink:href="#e" x="346.364" y="209.833"/><use xlink:href="#b" x="348.79" y="209.833"/><use xlink:href="#l" x="351.217" y="209.833"/><use xlink:href="#i" x="356.827" y="209.833"/><use xlink:href="#m" x="361.984" y="209.833"/><use xlink:href="#a" x="367.496" y="209.833"/></g><path d="M423.59 197.832v-2.398M439.145 197.832v-2.398M454.703 197.832v-2.398M470.258 197.832v-2.398M485.813 197.832v-2.398M501.371 197.832v-4.625" fill="none" stroke-width=".5" stroke="#666" stroke-miterlimit="3.25"/><g fill="#666"><use xlink:href="#h" x="434.701" y="209.833"/><use xlink:href="#n" x="439.657" y="209.833"/><use xlink:href="#e" x="445.165" y="209.833"/><use xlink:href="#b" x="447.592" y="209.833"/><use xlink:href="#l" x="450.019" y="209.833"/><use xlink:href="#i" x="455.629" y="209.833"/><use xlink:href="#m" x="460.785" y="209.833"/><use xlink:href="#a" x="466.298" y="209.833"/></g><path d="M516.926 197.832v-2.398M532.484 197.832v-2.398M548.04 197.832v-2.398M563.594 197.832v-2.398M579.152 197.832v-2.398" fill="none" stroke-width=".5" stroke="#666" stroke-miterlimit="3.25"/><g fill="#666"><use xlink:href="#i" x="524.539" y="209.833"/><use xlink:href="#j" x="529.695" y="209.833"/><use xlink:href="#m" x="535.399" y="209.833"/><use xlink:href="#k" x="540.911" y="209.833"/><use xlink:href="#o" x="544.295" y="209.833"/><use xlink:href="#p" x="549.529" y="209.833"/><use xlink:href="#n" x="554.827" y="209.833"/><use xlink:href="#d" x="560.335" y="209.833"/><use xlink:href="#c" x="565.775" y="209.833"/></g><path d="M20 197.832h4" fill="none" stroke-width=".5" stroke="#666" stroke-miterlimit="3.25"/><use xlink:href="#q" x="11" y="200.333" fill="#666"/><path d="M20 191.75h2.398M20 185.664h2.398M20 179.582h2.398M20 173.496h4" fill="none" stroke-width=".5" stroke="#666" stroke-miterlimit="3.25"/><use xlink:href="#r" x="11" y="175.996" fill="#666"/><path d="M20 167.41h2.398M20 161.328h2.398M20 155.242h2.398M20 149.16h4" fill="none" stroke-width=".5" stroke="#666" stroke-miterlimit="3.25"/><use xlink:href="#s" x="11" y="151.659" fill="#666"/><path d="M20 143.074h2.398M20 136.988h2.398M20 130.906h2.398M20 124.82h4" fill="none" stroke-width=".5" stroke="#666" stroke-miterlimit="3.25"/><use xlink:href="#t" x="11" y="127.321" fill="#666"/><path d="M20 118.738h2.398M20 112.652h2.398M20 106.566h2.398M20 100.484h4" fill="none" stroke-width=".5" stroke="#666" stroke-miterlimit="3.25"/><use xlink:href="#u" x="11" y="102.984" fill="#666"/><path d="M20 94.398h2.398M20 88.316h2.398M20 82.23h2.398M20 76.148h4" fill="none" stroke-width=".5" stroke="#666" stroke-miterlimit="3.25"/><g fill="#666"><use xlink:href="#v" x="6" y="78.647"/><use xlink:href="#q" x="11.615" y="78.647"/></g><path d="M20 70.063h2.398M20 63.977h2.398M20 57.895h2.398M20 51.809h4" fill="none" stroke-width=".5" stroke="#666" stroke-miterlimit="3.25"/><g fill="#666"><use xlink:href="#v" x="6" y="54.309"/><use xlink:href="#r" x="11.615" y="54.309"/></g><path d="M20 45.727h2.398M20 39.64h2.398M20 33.555h2.398M20 27.473h4" fill="none" stroke-width=".5" stroke="#666" stroke-miterlimit="3.25"/><g fill="#666"><use xlink:href="#v" x="6" y="29.972"/><use xlink:href="#s" x="11.615" y="29.972"/></g><path d="M20 21.387h2.398M20 15.305h2.398M20 9.219h2.398M50.238 5v2.398M65.793 5v2.398M81.352 5v2.398M96.906 5v2.398M112.46 5v2.398M128.02 5v4.629M143.574 5v2.398M159.133 5v2.398M174.688 5v2.398M190.246 5v2.398M205.8 5v2.398M221.355 5v4.629M236.914 5v2.398M252.469 5v2.398M268.027 5v2.398M283.582 5v2.398M299.137 5v2.398M314.695 5v4.629M330.25 5v2.398M345.809 5v2.398M361.363 5v2.398M376.918 5v2.398M392.477 5v2.398M408.031 5v4.629M423.59 5v2.398M439.145 5v2.398M454.703 5v2.398M470.258 5v2.398M485.813 5v2.398M501.371 5v4.629M516.926 5v2.398M532.484 5v2.398M548.04 5v2.398M563.594 5v2.398M579.152 5v2.398M598.5 197.832h-4M598.5 191.75h-2.398M598.5 185.664h-2.398M598.5 179.582h-2.398M598.5 173.496h-4M598.5 167.41h-2.398M598.5 161.328h-2.398M598.5 155.242h-2.398M598.5 149.16h-4M598.5 143.074h-2.398M598.5 136.988h-2.398M598.5 130.906h-2.398M598.5 124.82h-4M598.5 118.738h-2.398M598.5 112.652h-2.398M598.5 106.566h-2.398M598.5 100.484h-4M598.5 94.398h-2.398M598.5 88.316h-2.398M598.5 82.23h-2.398M598.5 76.148h-4M598.5 70.063h-2.398M598.5 63.977h-2.398M598.5 57.895h-2.398M598.5 51.809h-4M598.5 45.727h-2.398M598.5 39.64h-2.398M598.5 33.555h-2.398M598.5 27.473h-4M598.5 21.387h-2.398M598.5 15.305h-2.398M598.5 9.219h-2.398" fill="none" stroke-width=".5" stroke="#666" stroke-miterlimit="3.25"/><path d="M614.25 75.25v-8.5h8.5v8.5zm0 0" fill="#841c33" stroke-width=".03" stroke-linecap="square" stroke="#841c33" stroke-miterlimit="3.239"/><g clip-path="url(#w)"><path d="M614.25 75.25v-8.5h8.5v8.5zm0 0" fill="none" stroke-width=".5" stroke-linecap="square" stroke="#000" stroke-opacity=".49" stroke-miterlimit="3.25"/></g><g fill="#4d4d4d"><use xlink:href="#x" x="631" y="75.5"/><use xlink:href="#y" x="637.995" y="75.5"/><use xlink:href="#z" x="645.066" y="75.5"/><use xlink:href="#A" x="652.823" y="75.5"/><use xlink:href="#B" x="659.711" y="75.5"/></g><path d="M614.25 93.25v-8.5h8.5v8.5zm0 0" fill="#a3314b" stroke-width=".03" stroke-linecap="square" stroke="#a3314b" stroke-miterlimit="3.239"/><g clip-path="url(#C)"><path d="M614.25 93.25v-8.5h8.5v8.5zm0 0" fill="none" stroke-width=".5" stroke-linecap="square" stroke="#000" stroke-opacity=".49" stroke-miterlimit="3.25"/></g><g fill="#4d4d4d"><use xlink:href="#D" x="631" y="93.5"/><use xlink:href="#E" x="638.294" y="93.5"/><use xlink:href="#F" x="645.626" y="93.5"/><use xlink:href="#x" x="650.14" y="93.5"/><use xlink:href="#y" x="657.135" y="93.5"/><use xlink:href="#z" x="664.206" y="93.5"/><use xlink:href="#A" x="671.963" y="93.5"/><use xlink:href="#B" x="678.851" y="93.5"/></g><path d="M614.25 111.25v-8.5h8.5v8.5zm0 0" fill="#c25f77" stroke-width=".03" stroke-linecap="square" stroke="#c25f77" stroke-miterlimit="3.239"/><g clip-path="url(#G)"><path d="M614.25 111.25v-8.5h8.5v8.5zm0 0" fill="none" stroke-width=".5" stroke-linecap="square" stroke="#000" stroke-opacity=".49" stroke-miterlimit="3.25"/></g><g fill="#4d4d4d"><use xlink:href="#B" x="631" y="111.5"/><use xlink:href="#A" x="639.15" y="111.5"/><use xlink:href="#x" x="646.038" y="111.5"/><use xlink:href="#y" x="653.033" y="111.5"/><use xlink:href="#z" x="660.104" y="111.5"/><use xlink:href="#A" x="667.861" y="111.5"/><use xlink:href="#B" x="674.749" y="111.5"/></g><path d="M614.25 129.25v-8.5h8.5v8.5zm0 0" fill="#e59db2" stroke-width=".03" stroke-linecap="square" stroke="#e59db2" stroke-miterlimit="3.239"/><g clip-path="url(#H)"><path d="M614.25 129.25v-8.5h8.5v8.5zm0 0" fill="none" stroke-width=".5" stroke-linecap="square" stroke="#000" stroke-opacity=".49" stroke-miterlimit="3.25"/></g><g fill="#4d4d4d"><use xlink:href="#x" x="631" y="129.5"/><use xlink:href="#I" x="637.995" y="129.5"/><use xlink:href="#y" x="645.162" y="129.5"/><use xlink:href="#x" x="652.233" y="129.5"/><use xlink:href="#y" x="659.229" y="129.5"/><use xlink:href="#z" x="666.3" y="129.5"/><use xlink:href="#A" x="674.057" y="129.5"/><use xlink:href="#B" x="680.944" y="129.5"/></g><path d="M614.25 147.25v-8.5h8.5v8.5zm0 0" fill="#f5d5df" stroke-width=".03" stroke-linecap="square" stroke="#f5d5df" stroke-miterlimit="3.239"/><g clip-path="url(#J)"><path d="M614.25 147.25v-8.5h8.5v8.5zm0 0" fill="none" stroke-width=".5" stroke-linecap="square" stroke="#000" stroke-opacity=".49" stroke-miterlimit="3.25"/></g><g fill="#4d4d4d"><use xlink:href="#I" x="631" y="147.5"/><use xlink:href="#D" x="638.167" y="147.5"/><use xlink:href="#x" x="645.461" y="147.5"/><use xlink:href="#y" x="652.456" y="147.5"/><use xlink:href="#z" x="659.527" y="147.5"/><use xlink:href="#A" x="667.284" y="147.5"/><use xlink:href="#B" x="674.172" y="147.5"/></g></svg>