<svg xmlns="http://www.w3.org/2000/svg" xmlns:xlink="http://www.w3.org/1999/xlink" width="697pt" height="288" viewBox="0 0 697 216"><defs><symbol overflow="visible" id="a"><path d="M1.766-.766h3.37V0H.825v-7.11h.942zm0 0"/></symbol><symbol overflow="visible" id="b"><path d="M3.945 0c-.05-.105-.093-.29-.125-.555-.422.434-.922.653-1.507.653-.52 0-.946-.149-1.282-.442a1.438 1.438 0 0 1-.5-1.12c0-.552.211-.977.63-1.282.417-.305 1.007-.457 1.765-.457h.879v-.414c0-.317-.094-.567-.285-.754-.188-.188-.465-.281-.833-.281-.324 0-.593.082-.812.242-.219.164-.328.36-.328.59H.64c0-.262.093-.516.28-.762.188-.246.442-.441.763-.582.32-.145.671-.219 1.054-.219.61 0 1.086.153 1.434.457.344.305.523.727.535 1.258v2.434c0 .484.063.87.184 1.156V0zm-1.5-.688c.285 0 .555-.074.805-.218a1.35 1.35 0 0 0 .555-.574v-1.083h-.711c-1.106 0-1.656.325-1.656.97 0 .284.093.507.28.663.188.16.43.243.727.243zm0 0"/></symbol><symbol overflow="visible" id="c"><path d="M5.738-6.336H3.453V0H2.52v-6.336H.238v-.773h5.5zm0 0"/></symbol><symbol overflow="visible" id="d"><path d="M2.875.098c-.715 0-1.297-.235-1.746-.707-.45-.47-.676-1.098-.676-1.887v-.164c0-.524.102-.992.3-1.406.2-.41.481-.735.84-.965.36-.235.75-.352 1.173-.352.687 0 1.218.227 1.601.68.38.453.57 1.101.57 1.945v.375H1.36c.012.52.164.942.454 1.262.292.32.664.48 1.113.48.316 0 .59-.062.808-.195.223-.129.414-.3.582-.516l.551.43c-.441.68-1.105 1.02-1.992 1.02zm-.11-4.739c-.367 0-.671.133-.921.399-.246.265-.399.64-.457 1.117H4.03v-.07c-.023-.457-.148-.813-.367-1.067-.223-.25-.523-.379-.898-.379zm0 0"/></symbol><symbol overflow="visible" id="e"><path d="M3.145-4.383l1.703-2.726h1.105L3.707-3.586 6.007 0H4.892L3.145-2.773 1.387 0H.277l2.305-3.586-2.25-3.523H1.43zm0 0"/></symbol><symbol overflow="visible" id="f"><path d="M5.148-2.582c0 .805-.187 1.45-.554 1.941-.367.493-.864.739-1.492.739-.641 0-1.149-.203-1.516-.61v2.543H.684V-5.28h.824l.047.586c.367-.457.875-.688 1.53-.688.634 0 1.138.242 1.509.719.367.48.554 1.144.554 2zm-.906-.106c0-.593-.125-1.062-.379-1.41-.254-.343-.601-.515-1.047-.515-.546 0-.957.242-1.23.726v2.524c.27.48.684.722 1.242.722.434 0 .777-.171 1.031-.515.258-.344.383-.852.383-1.532zm0 0"/></symbol><symbol overflow="visible" id="g"><path d="M.465-2.688c0-.808.191-1.46.574-1.953.383-.492.887-.742 1.508-.742s1.11.215 1.473.637V-7.5h.902V0h-.828l-.047-.566c-.36.441-.863.664-1.508.664-.613 0-1.11-.25-1.496-.754-.387-.5-.578-1.153-.578-1.961zm.902.106c0 .598.125 1.066.371 1.406.246.34.59.508 1.028.508.57 0 .988-.258 1.254-.773v-2.426c-.27-.5-.688-.746-1.247-.746-.441 0-.789.168-1.035.511-.246.344-.37.848-.37 1.52zm0 0"/></symbol><symbol overflow="visible" id="h"><path d="M1.129 0v-4.586H.293v-.695h.836v-.543c0-.567.152-1.004.453-1.317.3-.308.73-.46 1.285-.46.207 0 .414.027.617.081l-.046.73a2.77 2.77 0 0 0-.489-.042c-.293 0-.52.086-.68.258-.16.172-.238.414-.238.734v.559h1.13v.695H2.03V0zm0 0"/></symbol><symbol overflow="visible" id="i"><path d="M3.945-.523c-.351.414-.867.62-1.547.62-.562 0-.992-.163-1.289-.492C.816-.719.668-1.203.664-1.844V-5.28h.902v3.41c0 .8.329 1.203.977 1.203.691 0 1.148-.258 1.379-.773v-3.84h.902V0h-.86zm0 0"/></symbol><symbol overflow="visible" id="j"><path d="M5.047-3.031c0 1.058-.18 1.844-.54 2.36-.362.51-.925.769-1.694.769-.758 0-1.32-.25-1.684-.754C.766-1.16.574-1.91.562-2.91v-1.207c0-1.043.18-1.82.54-2.328.363-.508.93-.762 1.703-.762.765 0 1.328.246 1.687.734.36.489.547 1.246.555 2.27zm-.902-1.235c0-.765-.106-1.324-.32-1.675-.216-.348-.555-.524-1.02-.524-.465 0-.801.176-1.012.524-.211.347-.32.882-.328 1.605v1.445c0 .77.113 1.336.336 1.704.222.367.558.546 1.012.546.445 0 .777-.171.992-.515.218-.344.332-.89.34-1.633zm0 0"/></symbol><symbol overflow="visible" id="k"><path d="M5.25 0H.59v-.648l2.46-2.735c.364-.414.618-.75.755-1.008.14-.257.21-.527.21-.804 0-.371-.113-.676-.34-.914-.222-.239-.523-.356-.898-.356-.449 0-.797.13-1.047.383-.25.254-.37.613-.37 1.066H.452c0-.652.211-1.183.633-1.586.422-.402.984-.605 1.691-.605.66 0 1.184.172 1.567.52.386.347.578.808.578 1.382 0 .703-.445 1.535-1.336 2.5L1.68-.738h3.57zm0 0"/></symbol><symbol overflow="visible" id="l"><path d="M4.406-2.387h.985v.739h-.985V0h-.91v-1.648H.258v-.536L3.44-7.109h.965zm-3.12 0h2.21v-3.488l-.105.195zm0 0"/></symbol><symbol overflow="visible" id="m"><path d="M4.137-7.113v.765h-.168c-.703.012-1.262.223-1.68.625-.414.403-.656.973-.723 1.703.375-.43.887-.644 1.536-.644.617 0 1.113.219 1.48.656.371.438.555 1 .555 1.688 0 .734-.2 1.32-.598 1.757-.398.442-.934.66-1.605.66-.68 0-1.23-.261-1.653-.784C.855-1.212.645-1.883.645-2.704v-.348c0-1.308.277-2.308.835-3 .56-.691 1.391-1.047 2.497-1.062zM2.949-3.91c-.308 0-.594.09-.855.277a1.446 1.446 0 0 0-.54.7v.331c0 .586.13 1.059.395 1.414.262.36.59.54.985.54.406 0 .726-.153.96-.45.231-.3.348-.691.348-1.175 0-.489-.117-.887-.351-1.188a1.14 1.14 0 0 0-.942-.45zm0 0"/></symbol><symbol overflow="visible" id="n"><path d="M4.902-5.254c0 .356-.093.672-.28.95a1.95 1.95 0 0 1-.759.648c.371.16.664.39.88.695.218.309.327.656.327 1.043 0 .613-.21 1.105-.625 1.469-.414.363-.96.547-1.636.547-.684 0-1.23-.184-1.645-.551C.754-.82.547-1.31.547-1.918c0-.387.105-.73.316-1.043.207-.309.5-.543.871-.703a1.869 1.869 0 0 1-.75-.648 1.693 1.693 0 0 1-.273-.942c0-.598.195-1.074.578-1.426.383-.351.89-.527 1.52-.527.625 0 1.128.176 1.515.527.387.352.578.828.578 1.426zm-.738 3.316c0-.398-.125-.722-.379-.972-.25-.25-.582-.375-.988-.375s-.73.12-.977.37c-.246.247-.37.571-.37.978 0 .402.12.718.359.953.238.23.574.343 1 .343.421 0 .753-.117.996-.347.242-.235.36-.551.36-.95zM2.81-6.465c-.356 0-.645.11-.864.328-.218.223-.328.52-.328.899 0 .36.106.652.324.875.215.222.504.336.868.336.359 0 .648-.114.867-.336C3.89-4.586 4-4.88 4-5.238c0-.364-.113-.657-.336-.887a1.16 1.16 0 0 0-.855-.34zm0 0"/></symbol><symbol overflow="visible" id="o"><path d="M3.559 0h-.907v-6.02l-1.824.668v-.82l2.59-.973h.14zm0 0"/></symbol><symbol overflow="visible" id="q"><path d="M1.992-6.867l.031.762c.504-.594 1.184-.891 2.04-.891.96 0 1.613.371 1.96 1.105.23-.328.528-.597.891-.8.367-.204.8-.305 1.3-.305 1.505 0 2.27.797 2.298 2.394V0H9.336v-4.531c0-.492-.11-.86-.336-1.102C8.777-5.875 8.398-6 7.871-6c-.437 0-.797.133-1.086.39-.289.262-.453.614-.5 1.051V0H5.102v-4.5c0-1-.489-1.5-1.465-1.5-.77 0-1.297.328-1.582.984V0H.883v-6.867zm0 0"/></symbol><symbol overflow="visible" id="r"><path d="M2.164 0H.992v-6.867h1.172zM.894-8.691c0-.192.06-.352.176-.48.117-.134.29-.196.516-.196.23 0 .402.062.523.195a.701.701 0 0 1 .176.48.671.671 0 0 1-.176.477c-.12.13-.293.192-.523.192-.227 0-.399-.063-.516-.192a.671.671 0 0 1-.175-.476zm0 0"/></symbol><symbol overflow="visible" id="s"><path d="M2-6.867l.04.863c.522-.66 1.206-.992 2.054-.992 1.453 0 2.183.82 2.195 2.457V0H5.117v-4.547c-.004-.492-.117-.86-.34-1.098C4.555-5.879 4.207-6 3.738-6c-.379 0-.715.102-1.004.305a2.101 2.101 0 0 0-.671.8V0H.89v-6.867zm0 0"/></symbol><symbol overflow="visible" id="t"><path d="M5.129 0c-.066-.137-.121-.375-.164-.723-.547.567-1.2.848-1.957.848-.676 0-1.23-.191-1.664-.574A1.859 1.859 0 0 1 .69-1.906c0-.715.274-1.27.817-1.664.543-.395 1.308-.594 2.293-.594h1.144v-.54c0-.41-.125-.737-.367-.98-.246-.242-.61-.367-1.086-.367-.418 0-.77.106-1.054.32-.286.211-.426.465-.426.766H.832c0-.344.121-.672.363-.992a2.45 2.45 0 0 1 .992-.758 3.317 3.317 0 0 1 1.376-.281c.789 0 1.41.2 1.859.594.45.394.68.941.695 1.636v3.16c0 .63.082 1.133.242 1.504V0zm-1.95-.895c.368 0 .72-.097 1.048-.285.332-.191.57-.437.718-.742v-1.41h-.922c-1.437 0-2.156.422-2.156 1.262 0 .367.121.656.367.863.246.207.563.312.946.312zm0 0"/></symbol><symbol overflow="visible" id="u"><path d="M2.164 0H.992v-9.75h1.172zm0 0"/></symbol><symbol overflow="visible" id="w"><path d="M2.48-8.531v1.664h1.286v.906H2.48v4.258c0 .277.06.484.172.621.114.137.309.207.586.207.137 0 .32-.027.559-.078V0c-.309.086-.61.125-.902.125-.524 0-.922-.156-1.188-.473-.266-.316-.398-.77-.398-1.355v-4.258H.059v-.906h1.25v-1.664zm0 0"/></symbol><symbol overflow="visible" id="x"><path d="M2.805-3.18l-.735.766V0H.895v-9.75H2.07v5.898l.63-.757 2.136-2.258h1.43L3.594-4l2.984 4H5.2zm0 0"/></symbol><symbol overflow="visible" id="y"><path d="M1.992-.957h4.02V0H.559v-.863l3.789-5.035H.618v-.97H5.82v.833zm0 0"/></symbol><symbol overflow="visible" id="A"><path d="M4.887-1.82c0-.32-.117-.567-.36-.742-.238-.176-.652-.325-1.25-.454-.593-.125-1.066-.277-1.414-.457-.347-.175-.61-.39-.773-.632a1.522 1.522 0 0 1-.254-.88c0-.562.238-1.038.715-1.425.476-.39 1.086-.586 1.824-.586.781 0 1.414.203 1.898.605.485.403.727.914.727 1.54H4.816c0-.32-.136-.598-.406-.829-.273-.234-.617-.351-1.035-.351-.426 0-.758.093-1 .281a.88.88 0 0 0-.363.73c0 .282.113.497.336.641.226.145.629.281 1.215.41.585.133 1.062.29 1.425.473.364.18.633.398.809.656.176.254.266.567.266.934 0 .613-.247 1.11-.739 1.476-.488.371-1.125.555-1.91.555-.55 0-1.035-.094-1.46-.29A2.391 2.391 0 0 1 .96-.98 1.969 1.969 0 0 1 .6-2.113h1.176c.02.394.18.707.473.937.293.23.684.344 1.164.344.445 0 .8-.09 1.07-.27.27-.18.403-.418.403-.718zm0 0"/></symbol><symbol overflow="visible" id="B"><path d="M.578-3.496c0-.676.133-1.281.395-1.817.265-.539.632-.953 1.105-1.246.473-.293 1.012-.437 1.617-.437.934 0 1.692.324 2.27.973.578.648.863 1.507.863 2.582v.082c0 .668-.125 1.27-.383 1.8A2.904 2.904 0 0 1 5.348-.316C4.87-.02 4.324.125 3.707.125c-.93 0-1.684-.32-2.262-.969-.578-.648-.867-1.504-.867-2.57zm1.18.137c0 .761.176 1.375.531 1.836.352.46.824.691 1.418.691.598 0 1.07-.234 1.422-.7.351-.468.527-1.124.527-1.964 0-.754-.18-1.363-.535-1.832a1.71 1.71 0 0 0-1.426-.703c-.582 0-1.047.23-1.402.691-.356.461-.535 1.121-.535 1.98zm0 0"/></symbol><symbol overflow="visible" id="C"><path d="M4.207-5.813a3.286 3.286 0 0 0-.574-.046c-.774 0-1.293.328-1.57.984V0H.89v-6.867h1.14l.02.793c.386-.614.93-.922 1.636-.922.231 0 .403.031.52.09zm0 0"/></symbol><symbol overflow="visible" id="E"><path d="M6.691-3.36c0 1.047-.238 1.891-.718 2.528-.477.64-1.125.957-1.942.957-.836 0-1.488-.262-1.968-.793v3.309H.89v-9.508h1.07l.059.762c.476-.594 1.14-.891 1.992-.891.824 0 1.476.312 1.957.934.48.62.722 1.488.722 2.597zm-1.175-.132c0-.774-.164-1.387-.496-1.832C4.69-5.774 4.238-6 3.664-6c-.71 0-1.246.316-1.602.945v3.285c.352.625.891.938 1.614.938.562 0 1.011-.223 1.344-.668.332-.445.496-1.11.496-1.992zm0 0"/></symbol><symbol overflow="visible" id="F"><path d="M5.129-.68C4.672-.14 4 .125 3.117.125c-.734 0-1.289-.21-1.672-.637C1.062-.937.867-1.566.863-2.398v-4.47H2.04v4.438c0 1.04.422 1.559 1.27 1.559.894 0 1.492-.332 1.789-1v-4.996h1.175V0H5.156zm0 0"/></symbol><symbol overflow="visible" id="H"><path d="M2.063-6.035c.519-.64 1.199-.961 2.03-.961 1.454 0 2.184.82 2.196 2.457V0H5.117v-4.547c-.004-.492-.117-.86-.34-1.098C4.555-5.879 4.207-6 3.738-6c-.379 0-.715.102-1.004.305a2.101 2.101 0 0 0-.671.8V0H.89v-9.75h1.171zm0 0"/></symbol><symbol overflow="visible" id="J"><path d="M3.645-.832a1.69 1.69 0 0 0 1.097-.379c.313-.254.485-.574.52-.953h1.113c-.023.394-.16.766-.406 1.125-.25.355-.586.637-1 .848a2.9 2.9 0 0 1-1.324.316c-.938 0-1.68-.309-2.23-.934-.556-.625-.83-1.48-.83-2.562v-.195c0-.668.122-1.266.368-1.786s.598-.925 1.055-1.21c.46-.29 1.004-.434 1.629-.434.77 0 1.41.23 1.922.691.507.461.78 1.063.816 1.797H5.262c-.035-.445-.203-.808-.504-1.094a1.577 1.577 0 0 0-1.121-.43c-.598 0-1.059.216-1.387.645-.328.43-.492 1.051-.492 1.864v.222c0 .793.164 1.403.488 1.828.328.426.793.641 1.399.641zm0 0"/></symbol><symbol overflow="visible" id="K"><path d="M3.738.125c-.93 0-1.687-.305-2.273-.914C.883-1.402.59-2.22.59-3.242v-.219c0-.68.129-1.289.39-1.824a3.069 3.069 0 0 1 1.094-1.258c.465-.3.973-.453 1.52-.453.89 0 1.586.297 2.082.883.496.59.742 1.43.742 2.527v.488H1.766c.015.676.214 1.223.593 1.641.38.418.86.625 1.442.625.414 0 .765-.086 1.054-.254.29-.168.54-.394.754-.672l.72.559C5.753-.316 4.89.125 3.738.125zm-.144-6.156c-.477 0-.871.172-1.196.52-.32.343-.52.827-.593 1.449h3.437v-.09c-.031-.598-.195-1.059-.48-1.387-.29-.328-.68-.492-1.168-.492zm0 0"/></symbol><clipPath id="p"><path d="M614 57h10v10h-10zm0 0"/></clipPath><clipPath id="v"><path d="M614 75h10v10h-10zm0 0"/></clipPath><clipPath id="z"><path d="M614 93h10v10h-10zm0 0"/></clipPath><clipPath id="D"><path d="M614 111h10v10h-10zm0 0"/></clipPath><clipPath id="G"><path d="M614 129h10v10h-10zm0 0"/></clipPath><clipPath id="I"><path d="M614 147h10v10h-10zm0 0"/></clipPath></defs><path d="M20 173.496h578.5M20 149.16h578.5M20 124.82h578.5M20 100.484h578.5M20 76.148h578.5M20 51.809h578.5M20 27.473h578.5" fill="none" stroke="#666" stroke-opacity=".5" stroke-dasharray="1,2" stroke-miterlimit="3.25"/><path d="M42.46 197.832v-2.113h16.013v2.113zm0 0" fill="#2b004d" stroke-width=".03" stroke-linecap="square" stroke="#2b004d" stroke-miterlimit="3.25"/><path d="M42.46 197.832v-2.113h16.013v2.113zm0 0" fill="none" stroke-width=".5" stroke-linecap="square" stroke="#000" stroke-opacity=".49" stroke-miterlimit="3.25"/><path d="M58.473 197.832v-22.73h16.015v22.73zm0 0" fill="#470c8a" stroke-width=".03" stroke-linecap="square" stroke="#470c8a" stroke-miterlimit="3.25"/><path d="M58.473 197.832v-22.73h16.015v22.73zm0 0" fill="none" stroke-width=".5" stroke-linecap="square" stroke="#000" stroke-opacity=".49" stroke-miterlimit="3.25"/><path d="M74.488 197.832v-10.559H90.5v10.559zm0 0" fill="#4338bd" stroke-width=".03" stroke-linecap="square" stroke="#4338bd" stroke-miterlimit="3.25"/><path d="M74.488 197.832v-10.559H90.5v10.559zm0 0" fill="none" stroke-width=".5" stroke-linecap="square" stroke="#000" stroke-opacity=".49" stroke-miterlimit="3.25"/><path d="M90.5 197.832V149.82h16.016v48.012zm0 0" fill="#4176e3" stroke-width=".03" stroke-linecap="square" stroke="#4176e3" stroke-miterlimit="3.25"/><path d="M90.5 197.832V149.82h16.016v48.012zm0 0" fill="none" stroke-width=".5" stroke-linecap="square" stroke="#000" stroke-opacity=".49" stroke-miterlimit="3.25"/><path d="M106.516 197.832v-62.055h16.011v62.055zm0 0" fill="#61b6f9" stroke-width=".03" stroke-linecap="square" stroke="#61b6f9" stroke-miterlimit="3.25"/><path d="M106.516 197.832v-62.055h16.011v62.055zm0 0" fill="none" stroke-width=".5" stroke-linecap="square" stroke="#000" stroke-opacity=".49" stroke-miterlimit="3.25"/><path d="M122.527 197.832v-10.555h16.016v10.555zm0 0" fill="#c5ecff" stroke-width=".03" stroke-linecap="square" stroke="#c5ecff" stroke-miterlimit="3.25"/><path d="M122.527 197.832v-10.555h16.016v10.555zm0 0" fill="none" stroke-width=".5" stroke-linecap="square" stroke="#000" stroke-opacity=".49" stroke-miterlimit="3.25"/><path d="M154.555 197.832v-2.191h16.015v2.191zm0 0" fill="#2b004d" stroke-width=".03" stroke-linecap="square" stroke="#2b004d" stroke-miterlimit="3.25"/><path d="M154.555 197.832v-2.191h16.015v2.191zm0 0" fill="none" stroke-width=".5" stroke-linecap="square" stroke="#000" stroke-opacity=".49" stroke-miterlimit="3.25"/><path d="M170.57 197.832v-19.527h16.012v19.527zm0 0" fill="#470c8a" stroke-width=".03" stroke-linecap="square" stroke="#470c8a" stroke-miterlimit="3.25"/><path d="M170.57 197.832v-19.527h16.012v19.527zm0 0" fill="none" stroke-width=".5" stroke-linecap="square" stroke="#000" stroke-opacity=".49" stroke-miterlimit="3.25"/><path d="M186.582 197.832v-10.387h16.016v10.387zm0 0" fill="#4338bd" stroke-width=".03" stroke-linecap="square" stroke="#4338bd" stroke-miterlimit="3.25"/><path d="M186.582 197.832v-10.387h16.016v10.387zm0 0" fill="none" stroke-width=".5" stroke-linecap="square" stroke="#000" stroke-opacity=".49" stroke-miterlimit="3.25"/><path d="M202.598 197.832v-50.137h16.015v50.137zm0 0" fill="#4176e3" stroke-width=".03" stroke-linecap="square" stroke="#4176e3" stroke-miterlimit="3.25"/><path d="M202.598 197.832v-50.137h16.015v50.137zm0 0" fill="none" stroke-width=".5" stroke-linecap="square" stroke="#000" stroke-opacity=".49" stroke-miterlimit="3.25"/><path d="M218.613 197.832v-85.187h16.012v85.187zm0 0" fill="#61b6f9" stroke-width=".03" stroke-linecap="square" stroke="#61b6f9" stroke-miterlimit="3.25"/><path d="M218.613 197.832v-85.187h16.012v85.187zm0 0" fill="none" stroke-width=".5" stroke-linecap="square" stroke="#000" stroke-opacity=".49" stroke-miterlimit="3.25"/><path d="M234.625 197.832v-9.066h16.016v9.066zm0 0" fill="#c5ecff" stroke-width=".03" stroke-linecap="square" stroke="#c5ecff" stroke-miterlimit="3.25"/><path d="M234.625 197.832v-9.066h16.016v9.066zm0 0" fill="none" stroke-width=".5" stroke-linecap="square" stroke="#000" stroke-opacity=".49" stroke-miterlimit="3.25"/><path d="M266.652 197.832v-3.785h16.016v3.785zm0 0" fill="#2b004d" stroke-width=".03" stroke-linecap="square" stroke="#2b004d" stroke-miterlimit="3.25"/><path d="M266.652 197.832v-3.785h16.016v3.785zm0 0" fill="none" stroke-width=".5" stroke-linecap="square" stroke="#000" stroke-opacity=".49" stroke-miterlimit="3.25"/><path d="M282.668 197.832v-21.008h16.012v21.008zm0 0" fill="#470c8a" stroke-width=".03" stroke-linecap="square" stroke="#470c8a" stroke-miterlimit="3.25"/><path d="M282.668 197.832v-21.008h16.012v21.008zm0 0" fill="none" stroke-width=".5" stroke-linecap="square" stroke="#000" stroke-opacity=".49" stroke-miterlimit="3.25"/><path d="M298.68 197.832v-15.555h16.015v15.555zm0 0" fill="#4338bd" stroke-width=".03" stroke-linecap="square" stroke="#4338bd" stroke-miterlimit="3.25"/><path d="M298.68 197.832v-15.555h16.015v15.555zm0 0" fill="none" stroke-width=".5" stroke-linecap="square" stroke="#000" stroke-opacity=".49" stroke-miterlimit="3.25"/><path d="M314.695 197.832V97.016h16.012v100.816zm0 0" fill="#4176e3" stroke-width=".03" stroke-linecap="square" stroke="#4176e3" stroke-miterlimit="3.25"/><path d="M314.695 197.832V97.016h16.012v100.816zm0 0" fill="none" stroke-width=".5" stroke-linecap="square" stroke="#000" stroke-opacity=".49" stroke-miterlimit="3.25"/><path d="M330.707 197.832V28.824h16.016v169.008zm0 0" fill="#61b6f9" stroke-width=".03" stroke-linecap="square" stroke="#61b6f9" stroke-miterlimit="3.25"/><path d="M330.707 197.832V28.824h16.016v169.008zm0 0" fill="none" stroke-width=".5" stroke-linecap="square" stroke="#000" stroke-opacity=".49" stroke-miterlimit="3.25"/><path d="M346.723 197.832v-26.3h16.011v26.3zm0 0" fill="#c5ecff" stroke-width=".03" stroke-linecap="square" stroke="#c5ecff" stroke-miterlimit="3.25"/><path d="M346.723 197.832v-26.3h16.011v26.3zm0 0" fill="none" stroke-width=".5" stroke-linecap="square" stroke="#000" stroke-opacity=".49" stroke-miterlimit="3.25"/><path d="M378.75 197.832v-4.441h16.016v4.441zm0 0" fill="#2b004d" stroke-width=".03" stroke-linecap="square" stroke="#2b004d" stroke-miterlimit="3.25"/><path d="M378.75 197.832v-4.441h16.016v4.441zm0 0" fill="none" stroke-width=".5" stroke-linecap="square" stroke="#000" stroke-opacity=".49" stroke-miterlimit="3.25"/><path d="M394.766 197.832v-12.129h16.011v12.129zm0 0" fill="#470c8a" stroke-width=".03" stroke-linecap="square" stroke="#470c8a" stroke-miterlimit="3.25"/><path d="M394.766 197.832v-12.129h16.011v12.129zm0 0" fill="none" stroke-width=".5" stroke-linecap="square" stroke="#000" stroke-opacity=".49" stroke-miterlimit="3.25"/><path d="M410.777 197.832v-21.957h16.016v21.957zm0 0" fill="#4338bd" stroke-width=".03" stroke-linecap="square" stroke="#4338bd" stroke-miterlimit="3.25"/><path d="M410.777 197.832v-21.957h16.016v21.957zm0 0" fill="none" stroke-width=".5" stroke-linecap="square" stroke="#000" stroke-opacity=".49" stroke-miterlimit="3.25"/><path d="M426.793 197.832v-71.871h16.012v71.871zm0 0" fill="#4176e3" stroke-width=".03" stroke-linecap="square" stroke="#4176e3" stroke-miterlimit="3.25"/><path d="M426.793 197.832v-71.871h16.012v71.871zm0 0" fill="none" stroke-width=".5" stroke-linecap="square" stroke="#000" stroke-opacity=".49" stroke-miterlimit="3.25"/><path d="M442.805 197.832v-53.14h16.015v53.14zm0 0" fill="#61b6f9" stroke-width=".03" stroke-linecap="square" stroke="#61b6f9" stroke-miterlimit="3.25"/><path d="M442.805 197.832v-53.14h16.015v53.14zm0 0" fill="none" stroke-width=".5" stroke-linecap="square" stroke="#000" stroke-opacity=".49" stroke-miterlimit="3.25"/><path d="M458.82 197.832v-94.824h16.012v94.824zm0 0" fill="#c5ecff" stroke-width=".03" stroke-linecap="square" stroke="#c5ecff" stroke-miterlimit="3.25"/><path d="M458.82 197.832v-94.824h16.012v94.824zm0 0" fill="none" stroke-width=".5" stroke-linecap="square" stroke="#000" stroke-opacity=".49" stroke-miterlimit="3.25"/><path d="M490.848 197.832v-2.09h16.011v2.09zm0 0" fill="#2b004d" stroke-width=".03" stroke-linecap="square" stroke="#2b004d" stroke-miterlimit="3.25"/><path d="M490.848 197.832v-2.09h16.011v2.09zm0 0" fill="none" stroke-width=".5" stroke-linecap="square" stroke="#000" stroke-opacity=".49" stroke-miterlimit="3.25"/><path d="M506.86 197.832v-26.465h16.015v26.465zm0 0" fill="#470c8a" stroke-width=".03" stroke-linecap="square" stroke="#470c8a" stroke-miterlimit="3.25"/><path d="M506.86 197.832v-26.465h16.015v26.465zm0 0" fill="none" stroke-width=".5" stroke-linecap="square" stroke="#000" stroke-opacity=".49" stroke-miterlimit="3.25"/><path d="M522.875 197.832v-13.137h16.012v13.137zm0 0" fill="#4338bd" stroke-width=".03" stroke-linecap="square" stroke="#4338bd" stroke-miterlimit="3.25"/><path d="M522.875 197.832v-13.137h16.012v13.137zm0 0" fill="none" stroke-width=".5" stroke-linecap="square" stroke="#000" stroke-opacity=".49" stroke-miterlimit="3.25"/><path d="M538.887 197.832v-52.437h16.015v52.437zm0 0" fill="#4176e3" stroke-width=".03" stroke-linecap="square" stroke="#4176e3" stroke-miterlimit="3.25"/><path d="M538.887 197.832v-52.437h16.015v52.437zm0 0" fill="none" stroke-width=".5" stroke-linecap="square" stroke="#000" stroke-opacity=".49" stroke-miterlimit="3.25"/><path d="M554.902 197.832v-10.977h16.016v10.977zm0 0" fill="#61b6f9" stroke-width=".03" stroke-linecap="square" stroke="#61b6f9" stroke-miterlimit="3.25"/><path d="M554.902 197.832v-10.977h16.016v10.977zm0 0" fill="none" stroke-width=".5" stroke-linecap="square" stroke="#000" stroke-opacity=".49" stroke-miterlimit="3.25"/><path d="M570.918 197.832v-10.516h16.012v10.516zm0 0" fill="#c5ecff" stroke-width=".03" stroke-linecap="square" stroke="#c5ecff" stroke-miterlimit="3.25"/><path d="M570.918 197.832v-10.516h16.012v10.516zm0 0" fill="none" stroke-width=".5" stroke-linecap="square" stroke="#000" stroke-opacity=".49" stroke-miterlimit="3.25"/><path d="M50.465 195.914v-.195M50.465 195.719v-.192M66.48 179.371v-4.27M66.48 175.102v-4.27M82.492 187.43v-.157M82.492 187.273v-.16M98.508 155.285v-5.465M98.508 149.82v-5.46M114.523 141.75v-5.973M114.523 135.777v-5.972M130.535 188.836v-1.559M130.535 187.277v-1.554M162.563 195.86v-.22M162.563 195.64v-.222M178.578 179.762v-1.457M178.578 178.305v-1.457M194.59 187.535v-.09M194.59 187.445v-.093M210.605 150.938v-3.243M210.605 147.695v-3.246M226.617 122.129v-9.484M226.617 112.645v-9.48M242.633 189.117v-.351M242.633 188.766v-.348M274.66 194.254v-.207M274.66 194.047v-.207M290.676 178.93v-2.106M290.676 176.824v-2.11M306.688 182.406v-.129M306.688 182.277v-.132M322.703 102.945v-5.93M322.703 97.016v-5.934M338.715 43.004v-14.18M338.715 28.824V14.641M354.73 172.219v-.688M354.73 171.531v-.687M386.758 193.445v-.054M386.758 193.39v-.058M402.77 186.52v-.817M402.77 185.703v-.812M418.785 176.031v-.156M418.785 175.875v-.156M434.797 128.27v-2.31M434.797 125.96v-2.312M450.813 148.102v-3.41M450.813 144.691v-3.406M466.828 107.379v-4.371M466.828 103.008v-4.371M498.855 195.914v-.172M498.855 195.742v-.172M514.867 172.824v-1.457M514.867 171.367v-1.453M530.883 186.133v-1.438M530.883 184.695v-1.441M546.895 147.828v-2.433M546.895 145.395v-2.43M562.91 187.25v-.395M562.91 186.855v-.394M578.922 190.496v-3.18M578.922 187.316v-3.18M50.465 195.527h3M50.465 195.527h-3M50.465 195.914h3M50.465 195.914h-3M66.48 170.832h3M66.48 170.832h-3M66.48 179.371h3M66.48 179.371h-3M82.492 187.113h3M82.492 187.113h-3M82.492 187.43h3M82.492 187.43h-3M98.508 144.36h3M98.508 144.36h-3M98.508 155.285h3M98.508 155.285h-3M114.523 129.805h3M114.523 129.805h-3M114.523 141.75h3M114.523 141.75h-3M130.535 185.723h3M130.535 185.723h-3M130.535 188.836h3M130.535 188.836h-3M162.563 195.418h3M162.563 195.418h-3M162.563 195.86h3M162.563 195.86h-3M178.578 176.848h3M178.578 176.848h-3M178.578 179.762h3M178.578 179.762h-3M194.59 187.352h3M194.59 187.352h-3M194.59 187.535h3M194.59 187.535h-3M210.605 144.45h3M210.605 144.45h-3M210.605 150.938h3M210.605 150.938h-3M226.617 103.164h3M226.617 103.164h-3M226.617 122.129h3M226.617 122.129h-3M242.633 188.418h3M242.633 188.418h-3M242.633 189.117h3M242.633 189.117h-3M274.66 193.84h3M274.66 193.84h-3M274.66 194.254h3M274.66 194.254h-3M290.676 174.715h3M290.676 174.715h-3M290.676 178.93h3M290.676 178.93h-3M306.688 182.145h3M306.688 182.145h-3M306.688 182.406h3M306.688 182.406h-3M322.703 91.082h3M322.703 91.082h-3M322.703 102.945h3M322.703 102.945h-3M338.715 14.64h3M338.715 14.64h-3M338.715 43.004h3M338.715 43.004h-3M354.73 170.844h3M354.73 170.844h-3M354.73 172.219h3M354.73 172.219h-3M386.758 193.332h3M386.758 193.332h-3M386.758 193.445h3M386.758 193.445h-3M402.77 184.89h3M402.77 184.89h-3M402.77 186.52h3M402.77 186.52h-3M418.785 175.719h3M418.785 175.719h-3M418.785 176.031h3M418.785 176.031h-3M434.797 123.648h3M434.797 123.648h-3M434.797 128.27h3M434.797 128.27h-3M450.813 141.285h3M450.813 141.285h-3M450.813 148.102h3M450.813 148.102h-3M466.828 98.637h3M466.828 98.637h-3M466.828 107.379h3M466.828 107.379h-3M498.855 195.57h3M498.855 195.57h-3M498.855 195.914h3M498.855 195.914h-3M514.867 169.914h3M514.867 169.914h-3M514.867 172.824h3M514.867 172.824h-3M530.883 183.254h3M530.883 183.254h-3M530.883 186.133h3M530.883 186.133h-3M546.895 142.965h3M546.895 142.965h-3M546.895 147.828h3M546.895 147.828h-3M562.91 186.46h3M562.91 186.46h-3M562.91 187.25h3M562.91 187.25h-3M578.922 184.137h3M578.922 184.137h-3M578.922 190.496h3M578.922 190.496h-3" fill="none" stroke-linecap="square" stroke="#000" stroke-miterlimit="3.25"/><path d="M598.5 197.832H20M20 197.832V5M20 5h578.5M598.5 5v192.832" fill="none" stroke-width=".5" stroke-linecap="square" stroke="#666" stroke-miterlimit="3.25"/><path d="M50.465 197.832v-2.398M66.48 197.832v-2.398M82.492 197.832v-2.398M98.508 197.832v-2.398M114.523 197.832v-2.398M130.535 197.832v-2.398M146.55 197.832v-4.625" fill="none" stroke-width=".5" stroke="#666" stroke-miterlimit="3.25"/><g fill="#666"><use xlink:href="#a" x="76.501" y="209.833"/><use xlink:href="#b" x="81.882" y="209.833"/><use xlink:href="#c" x="87.321" y="209.833"/><use xlink:href="#d" x="93.288" y="209.833"/><use xlink:href="#e" x="98.586" y="209.833"/></g><path d="M162.563 197.832v-2.398M178.578 197.832v-2.398M194.59 197.832v-2.398M210.605 197.832v-2.398M226.617 197.832v-2.398M242.633 197.832v-2.398M258.645 197.832v-4.625" fill="none" stroke-width=".5" stroke="#666" stroke-miterlimit="3.25"/><g fill="#666"><use xlink:href="#f" x="181.098" y="209.833"/><use xlink:href="#g" x="186.708" y="209.833"/><use xlink:href="#h" x="192.348" y="209.833"/><use xlink:href="#a" x="195.82" y="209.833"/><use xlink:href="#b" x="201.2" y="209.833"/><use xlink:href="#c" x="206.64" y="209.833"/><use xlink:href="#d" x="212.607" y="209.833"/><use xlink:href="#e" x="217.904" y="209.833"/></g><path d="M274.66 197.832v-2.398M290.676 197.832v-2.398M306.688 197.832v-2.398M322.703 197.832v-2.398M338.715 197.832v-2.398M354.73 197.832v-2.398M370.742 197.832v-4.625" fill="none" stroke-width=".5" stroke="#666" stroke-miterlimit="3.25"/><g fill="#666"><use xlink:href="#e" x="294.695" y="209.833"/><use xlink:href="#d" x="300.964" y="209.833"/><use xlink:href="#a" x="306.262" y="209.833"/><use xlink:href="#b" x="311.643" y="209.833"/><use xlink:href="#c" x="317.082" y="209.833"/><use xlink:href="#d" x="323.049" y="209.833"/><use xlink:href="#e" x="328.347" y="209.833"/></g><path d="M386.758 197.832v-2.398M402.77 197.832v-2.398M418.785 197.832v-2.398M434.797 197.832v-2.398M450.813 197.832v-2.398M466.828 197.832v-2.398M482.84 197.832v-4.625" fill="none" stroke-width=".5" stroke="#666" stroke-miterlimit="3.25"/><g fill="#666"><use xlink:href="#a" x="404.292" y="209.833"/><use xlink:href="#i" x="409.672" y="209.833"/><use xlink:href="#b" x="415.185" y="209.833"/><use xlink:href="#a" x="420.625" y="209.833"/><use xlink:href="#b" x="426.005" y="209.833"/><use xlink:href="#c" x="431.445" y="209.833"/><use xlink:href="#d" x="437.412" y="209.833"/><use xlink:href="#e" x="442.71" y="209.833"/></g><path d="M498.855 197.832v-2.398M514.867 197.832v-2.398M530.883 197.832v-2.398M546.895 197.832v-2.398M562.91 197.832v-2.398M578.922 197.832v-2.398" fill="none" stroke-width=".5" stroke="#666" stroke-miterlimit="3.25"/><g fill="#666"><use xlink:href="#i" x="519.388" y="209.833"/><use xlink:href="#f" x="524.901" y="209.833"/><use xlink:href="#a" x="530.512" y="209.833"/><use xlink:href="#b" x="535.892" y="209.833"/><use xlink:href="#c" x="541.332" y="209.833"/><use xlink:href="#d" x="547.299" y="209.833"/><use xlink:href="#e" x="552.596" y="209.833"/></g><path d="M20 197.832h4" fill="none" stroke-width=".5" stroke="#666" stroke-miterlimit="3.25"/><use xlink:href="#j" x="11" y="200.333" fill="#666"/><path d="M20 191.75h2.398M20 185.664h2.398M20 179.582h2.398M20 173.496h4" fill="none" stroke-width=".5" stroke="#666" stroke-miterlimit="3.25"/><use xlink:href="#k" x="11" y="175.996" fill="#666"/><path d="M20 167.41h2.398M20 161.328h2.398M20 155.242h2.398M20 149.16h4" fill="none" stroke-width=".5" stroke="#666" stroke-miterlimit="3.25"/><use xlink:href="#l" x="11" y="151.659" fill="#666"/><path d="M20 143.074h2.398M20 136.988h2.398M20 130.906h2.398M20 124.82h4" fill="none" stroke-width=".5" stroke="#666" stroke-miterlimit="3.25"/><use xlink:href="#m" x="11" y="127.321" fill="#666"/><path d="M20 118.738h2.398M20 112.652h2.398M20 106.566h2.398M20 100.484h4" fill="none" stroke-width=".5" stroke="#666" stroke-miterlimit="3.25"/><use xlink:href="#n" x="11" y="102.984" fill="#666"/><path d="M20 94.398h2.398M20 88.316h2.398M20 82.23h2.398M20 76.148h4" fill="none" stroke-width=".5" stroke="#666" stroke-miterlimit="3.25"/><g fill="#666"><use xlink:href="#o" x="6" y="78.647"/><use xlink:href="#j" x="11.615" y="78.647"/></g><path d="M20 70.063h2.398M20 63.977h2.398M20 57.895h2.398M20 51.809h4" fill="none" stroke-width=".5" stroke="#666" stroke-miterlimit="3.25"/><g fill="#666"><use xlink:href="#o" x="6" y="54.309"/><use xlink:href="#k" x="11.615" y="54.309"/></g><path d="M20 45.727h2.398M20 39.64h2.398M20 33.555h2.398M20 27.473h4" fill="none" stroke-width=".5" stroke="#666" stroke-miterlimit="3.25"/><g fill="#666"><use xlink:href="#o" x="6" y="29.972"/><use xlink:href="#l" x="11.615" y="29.972"/></g><path d="M20 21.387h2.398M20 15.305h2.398M20 9.219h2.398M50.465 5v2.398M66.48 5v2.398M82.492 5v2.398M98.508 5v2.398M114.523 5v2.398M130.535 5v2.398M146.55 5v4.629M162.563 5v2.398M178.578 5v2.398M194.59 5v2.398M210.605 5v2.398M226.617 5v2.398M242.633 5v2.398M258.645 5v4.629M274.66 5v2.398M290.676 5v2.398M306.688 5v2.398M322.703 5v2.398M338.715 5v2.398M354.73 5v2.398M370.742 5v4.629M386.758 5v2.398M402.77 5v2.398M418.785 5v2.398M434.797 5v2.398M450.813 5v2.398M466.828 5v2.398M482.84 5v4.629M498.855 5v2.398M514.867 5v2.398M530.883 5v2.398M546.895 5v2.398M562.91 5v2.398M578.922 5v2.398M598.5 197.832h-4M598.5 191.75h-2.398M598.5 185.664h-2.398M598.5 179.582h-2.398M598.5 173.496h-4M598.5 167.41h-2.398M598.5 161.328h-2.398M598.5 155.242h-2.398M598.5 149.16h-4M598.5 143.074h-2.398M598.5 136.988h-2.398M598.5 130.906h-2.398M598.5 124.82h-4M598.5 118.738h-2.398M598.5 112.652h-2.398M598.5 106.566h-2.398M598.5 100.484h-4M598.5 94.398h-2.398M598.5 88.316h-2.398M598.5 82.23h-2.398M598.5 76.148h-4M598.5 70.063h-2.398M598.5 63.977h-2.398M598.5 57.895h-2.398M598.5 51.809h-4M598.5 45.727h-2.398M598.5 39.64h-2.398M598.5 33.555h-2.398M598.5 27.473h-4M598.5 21.387h-2.398M598.5 15.305h-2.398M598.5 9.219h-2.398" fill="none" stroke-width=".5" stroke="#666" stroke-miterlimit="3.25"/><path d="M614.25 66.25v-8.5h8.5v8.5zm0 0" fill="#2b004d" stroke-width=".03" stroke-linecap="square" stroke="#2b004d" stroke-miterlimit="3.239"/><g clip-path="url(#p)"><path d="M614.25 66.25v-8.5h8.5v8.5zm0 0" fill="none" stroke-width=".5" stroke-linecap="square" stroke="#000" stroke-opacity=".49" stroke-miterlimit="3.25"/></g><g fill="#4d4d4d"><use xlink:href="#q" x="631" y="66.5"/><use xlink:href="#r" x="642.395" y="66.5"/><use xlink:href="#s" x="645.55" y="66.5"/><use xlink:href="#r" x="652.723" y="66.5"/><use xlink:href="#q" x="655.878" y="66.5"/><use xlink:href="#t" x="667.272" y="66.5"/><use xlink:href="#u" x="674.344" y="66.5"/></g><path d="M614.25 84.25v-8.5h8.5v8.5zm0 0" fill="#470c8a" stroke-width=".03" stroke-linecap="square" stroke="#470c8a" stroke-miterlimit="3.239"/><g clip-path="url(#v)"><path d="M614.25 84.25v-8.5h8.5v8.5zm0 0" fill="none" stroke-width=".5" stroke-linecap="square" stroke="#000" stroke-opacity=".49" stroke-miterlimit="3.25"/></g><g fill="#4d4d4d"><use xlink:href="#w" x="631" y="84.5"/><use xlink:href="#r" x="635.247" y="84.5"/><use xlink:href="#x" x="638.402" y="84.5"/><use xlink:href="#y" x="644.991" y="84.5"/></g><path d="M614.25 102.25v-8.5h8.5v8.5zm0 0" fill="#4338bd" stroke-width=".03" stroke-linecap="square" stroke="#4338bd" stroke-miterlimit="3.239"/><g clip-path="url(#z)"><path d="M614.25 102.25v-8.5h8.5v8.5zm0 0" fill="none" stroke-width=".5" stroke-linecap="square" stroke="#000" stroke-opacity=".49" stroke-miterlimit="3.25"/></g><g fill="#4d4d4d"><use xlink:href="#A" x="631" y="102.5"/><use xlink:href="#B" x="637.703" y="102.5"/><use xlink:href="#C" x="645.117" y="102.5"/><use xlink:href="#w" x="649.517" y="102.5"/></g><path d="M614.25 120.25v-8.5h8.5v8.5zm0 0" fill="#4176e3" stroke-width=".03" stroke-linecap="square" stroke="#4176e3" stroke-miterlimit="3.239"/><g clip-path="url(#D)"><path d="M614.25 120.25v-8.5h8.5v8.5zm0 0" fill="none" stroke-width=".5" stroke-linecap="square" stroke="#000" stroke-opacity=".49" stroke-miterlimit="3.25"/></g><g fill="#4d4d4d"><use xlink:href="#u" x="631" y="120.5"/><use xlink:href="#r" x="634.155" y="120.5"/><use xlink:href="#E" x="637.311" y="120.5"/><use xlink:href="#A" x="644.604" y="120.5"/><use xlink:href="#F" x="651.308" y="120.5"/><use xlink:href="#q" x="658.475" y="120.5"/></g><path d="M614.25 138.25v-8.5h8.5v8.5zm0 0" fill="#61b6f9" stroke-width=".03" stroke-linecap="square" stroke="#61b6f9" stroke-miterlimit="3.239"/><g clip-path="url(#G)"><path d="M614.25 138.25v-8.5h8.5v8.5zm0 0" fill="none" stroke-width=".5" stroke-linecap="square" stroke="#000" stroke-opacity=".49" stroke-miterlimit="3.25"/></g><g fill="#4d4d4d"><use xlink:href="#y" x="631" y="138.5"/><use xlink:href="#H" x="637.443" y="138.5"/><use xlink:href="#u" x="644.604" y="138.5"/><use xlink:href="#r" x="647.759" y="138.5"/><use xlink:href="#E" x="650.914" y="138.5"/><use xlink:href="#A" x="658.208" y="138.5"/><use xlink:href="#F" x="664.911" y="138.5"/><use xlink:href="#q" x="672.078" y="138.5"/></g><path d="M614.25 156.25v-8.5h8.5v8.5zm0 0" fill="#c5ecff" stroke-width=".03" stroke-linecap="square" stroke="#c5ecff" stroke-miterlimit="3.239"/><g clip-path="url(#I)"><path d="M614.25 156.25v-8.5h8.5v8.5zm0 0" fill="none" stroke-width=".5" stroke-linecap="square" stroke="#000" stroke-opacity=".49" stroke-miterlimit="3.25"/></g><g fill="#4d4d4d"><use xlink:href="#A" x="631" y="156.5"/><use xlink:href="#B" x="637.703" y="156.5"/><use xlink:href="#F" x="645.117" y="156.5"/><use xlink:href="#C" x="652.284" y="156.5"/><use xlink:href="#J" x="656.684" y="156.5"/><use xlink:href="#K" x="663.488" y="156.5"/><use xlink:href="#H" x="670.376" y="156.5"/><use xlink:href="#t" x="677.536" y="156.5"/><use xlink:href="#s" x="684.607" y="156.5"/></g></svg>