<svg xmlns="http://www.w3.org/2000/svg" xmlns:xlink="http://www.w3.org/1999/xlink" width="695pt" height="288" viewBox="0 0 695 216"><defs><symbol overflow="visible" id="a"><path d="M1.531-5.281l.028.586c.386-.457.91-.688 1.566-.688.738 0 1.242.285 1.508.852.176-.254.406-.461.687-.617.282-.157.614-.235 1-.235 1.157 0 1.746.617 1.766 1.844V0h-.902v-3.484c0-.38-.086-.66-.262-.848-.172-.188-.461-.281-.867-.281-.336 0-.614.097-.836.3-.219.2-.348.47-.383.805V0h-.91v-3.46c0-.77-.375-1.153-1.13-1.153-.593 0-.995.25-1.214.754V0H.68v-5.281zm0 0"/></symbol><symbol overflow="visible" id="b"><path d="M1.664 0H.762v-5.281h.902zM.688-6.684c0-.148.046-.27.136-.37.09-.102.223-.153.395-.153.176 0 .312.05.402.152.09.102.137.223.137.371 0 .145-.047.27-.137.364-.09.097-.223.148-.402.148-.176 0-.305-.047-.395-.148a.518.518 0 0 1-.136-.364zm0 0"/></symbol><symbol overflow="visible" id="c"><path d="M1.54-5.281l.026.664a1.93 1.93 0 0 1 1.582-.766c1.118 0 1.68.633 1.692 1.89V0h-.902v-3.496c-.004-.379-.094-.664-.262-.844-.172-.183-.438-.273-.801-.273-.293 0-.55.078-.77.234a1.59 1.59 0 0 0-.52.613V0H.685v-5.281zm0 0"/></symbol><symbol overflow="visible" id="d"><path d="M3.945 0c-.05-.105-.093-.29-.125-.555-.422.434-.922.653-1.507.653-.52 0-.946-.149-1.282-.442a1.438 1.438 0 0 1-.5-1.12c0-.552.211-.977.63-1.282.417-.305 1.007-.457 1.765-.457h.879v-.414c0-.317-.094-.567-.285-.754-.188-.188-.465-.281-.833-.281-.324 0-.593.082-.812.242-.219.164-.328.36-.328.59H.64c0-.262.093-.516.28-.762.188-.246.442-.441.763-.582.32-.145.671-.219 1.054-.219.61 0 1.086.153 1.434.457.344.305.523.727.535 1.258v2.434c0 .484.063.87.184 1.156V0zm-1.5-.688c.285 0 .555-.074.805-.218a1.35 1.35 0 0 0 .555-.574v-1.083h-.711c-1.106 0-1.656.325-1.656.97 0 .284.093.507.28.663.188.16.43.243.727.243zm0 0"/></symbol><symbol overflow="visible" id="e"><path d="M1.664 0H.762v-7.5h.902zm0 0"/></symbol><symbol overflow="visible" id="f"><path d="M1.91-6.563v1.282h.985v.695H1.91v3.277c0 .211.043.371.13.477.089.105.237.16.452.16.102 0 .246-.023.43-.062V0a2.573 2.573 0 0 1-.695.098c-.403 0-.707-.121-.914-.368-.204-.242-.305-.59-.305-1.039v-3.277H.043v-.695h.965v-1.282zm0 0"/></symbol><symbol overflow="visible" id="g"><path d="M2.156-2.445l-.562.59V0H.687v-7.5h.907v4.535l.48-.582L3.72-5.28H4.82L2.766-3.078 5.059 0H4zm0 0"/></symbol><symbol overflow="visible" id="h"><path d="M1.531-.738h3.094V0H.43v-.664l2.914-3.871H.473v-.746h4.004v.636zm0 0"/></symbol><symbol overflow="visible" id="i"><path d="M3.758-1.402a.659.659 0 0 0-.274-.567c-.183-.136-.504-.254-.96-.351-.458-.098-.82-.215-1.09-.352-.27-.137-.47-.297-.598-.488a1.161 1.161 0 0 1-.191-.672c0-.434.183-.8.55-1.098.367-.3.832-.453 1.403-.453.597 0 1.086.156 1.457.465.375.309.558.707.558 1.188h-.906c0-.247-.105-.461-.316-.641-.211-.18-.473-.27-.793-.27-.328 0-.586.075-.77.22a.666.666 0 0 0-.281.558c0 .218.086.383.258.496.172.11.484.215.937.316.45.102.817.219 1.094.36.281.14.488.308.625.507.133.196.203.434.203.72 0 .472-.191.85-.566 1.136-.38.285-.868.426-1.473.426-.422 0-.797-.075-1.121-.223a1.852 1.852 0 0 1-.766-.629 1.513 1.513 0 0 1-.273-.871h.902a.93.93 0 0 0 .363.719c.227.18.528.265.895.265.344 0 .617-.066.824-.207a.635.635 0 0 0 .309-.554zm0 0"/></symbol><symbol overflow="visible" id="j"><path d="M.445-2.691c0-.516.102-.98.305-1.395.203-.414.484-.734.848-.957.363-.227.777-.34 1.246-.34.719 0 1.3.25 1.742.75.445.496.668 1.16.668 1.985v.066c0 .512-.098.977-.297 1.383-.195.41-.477.726-.844.957-.367.226-.785.34-1.261.34-.715 0-1.297-.25-1.743-.746-.445-.5-.664-1.157-.664-1.977zm.907.109c0 .586.136 1.055.41 1.41.27.356.633.531 1.09.531.46 0 .824-.18 1.093-.539.27-.36.407-.863.407-1.511 0-.579-.137-1.047-.415-1.407a1.312 1.312 0 0 0-1.093-.543c-.446 0-.809.18-1.082.536-.274.355-.41.863-.41 1.523zm0 0"/></symbol><symbol overflow="visible" id="k"><path d="M3.238-4.473a2.64 2.64 0 0 0-.445-.035c-.594 0-.996.254-1.207.758V0H.684v-5.281h.878l.016.61c.297-.474.715-.712 1.258-.712.176 0 .309.024.402.07zm0 0"/></symbol><symbol overflow="visible" id="l"><path d="M5.148-2.582c0 .805-.187 1.45-.554 1.941-.367.493-.864.739-1.492.739-.641 0-1.149-.203-1.516-.61v2.543H.684V-5.28h.824l.047.586c.367-.457.875-.688 1.53-.688.634 0 1.138.242 1.509.719.367.48.554 1.144.554 2zm-.906-.106c0-.593-.125-1.062-.379-1.41-.254-.343-.601-.515-1.047-.515-.546 0-.957.242-1.23.726v2.524c.27.48.684.722 1.242.722.434 0 .777-.171 1.031-.515.258-.344.383-.852.383-1.532zm0 0"/></symbol><symbol overflow="visible" id="m"><path d="M3.945-.523c-.351.414-.867.62-1.547.62-.562 0-.992-.163-1.289-.492C.816-.719.668-1.203.664-1.844V-5.28h.902v3.41c0 .8.329 1.203.977 1.203.691 0 1.148-.258 1.379-.773v-3.84h.902V0h-.86zm0 0"/></symbol><symbol overflow="visible" id="n"><path d="M1.586-4.645a1.923 1.923 0 0 1 1.562-.738c1.118 0 1.68.633 1.692 1.89V0h-.902v-3.496c-.004-.379-.094-.664-.262-.844-.172-.183-.438-.273-.801-.273-.293 0-.55.078-.77.234a1.59 1.59 0 0 0-.52.613V0H.685v-7.5h.902zm0 0"/></symbol><symbol overflow="visible" id="o"><path d="M2.805-.64c.32 0 .601-.098.843-.294a1.01 1.01 0 0 0 .399-.73h.855c-.015.3-.12.59-.312.863a2.03 2.03 0 0 1-.77.653c-.32.164-.66.246-1.015.246-.72 0-1.293-.239-1.72-.72C.66-1.101.45-1.757.45-2.593v-.148c0-.516.094-.973.285-1.375.188-.399.457-.711.813-.93.351-.223.77-.336 1.25-.336.594 0 1.086.18 1.476.535.395.356.602.817.63 1.38h-.856a1.238 1.238 0 0 0-.387-.84 1.217 1.217 0 0 0-.863-.333c-.457 0-.813.168-1.067.496-.253.332-.378.81-.378 1.434v.172c0 .61.125 1.078.375 1.406.25.328.609.492 1.078.492zm0 0"/></symbol><symbol overflow="visible" id="p"><path d="M2.875.098c-.715 0-1.297-.235-1.746-.707-.45-.47-.676-1.098-.676-1.887v-.164c0-.524.102-.992.3-1.406.2-.41.481-.735.84-.965.36-.235.75-.352 1.173-.352.687 0 1.218.227 1.601.68.38.453.57 1.101.57 1.945v.375H1.36c.012.52.164.942.454 1.262.292.32.664.48 1.113.48.316 0 .59-.062.808-.195.223-.129.414-.3.582-.516l.551.43c-.441.68-1.105 1.02-1.992 1.02zm-.11-4.739c-.367 0-.671.133-.921.399-.246.265-.399.64-.457 1.117H4.03v-.07c-.023-.457-.148-.813-.367-1.067-.223-.25-.523-.379-.898-.379zm0 0"/></symbol><symbol overflow="visible" id="q"><path d="M5.047-3.031c0 1.058-.18 1.844-.54 2.36-.362.51-.925.769-1.694.769-.758 0-1.32-.25-1.684-.754C.766-1.16.574-1.91.562-2.91v-1.207c0-1.043.18-1.82.54-2.328.363-.508.93-.762 1.703-.762.765 0 1.328.246 1.687.734.36.489.547 1.246.555 2.27zm-.902-1.235c0-.765-.106-1.324-.32-1.675-.216-.348-.555-.524-1.02-.524-.465 0-.801.176-1.012.524-.211.347-.32.882-.328 1.605v1.445c0 .77.113 1.336.336 1.704.222.367.558.546 1.012.546.445 0 .777-.171.992-.515.218-.344.332-.89.34-1.633zm0 0"/></symbol><symbol overflow="visible" id="r"><path d="M5.25 0H.59v-.648l2.46-2.735c.364-.414.618-.75.755-1.008.14-.257.21-.527.21-.804 0-.371-.113-.676-.34-.914-.222-.239-.523-.356-.898-.356-.449 0-.797.13-1.047.383-.25.254-.37.613-.37 1.066H.452c0-.652.211-1.183.633-1.586.422-.402.984-.605 1.691-.605.66 0 1.184.172 1.567.52.386.347.578.808.578 1.382 0 .703-.445 1.535-1.336 2.5L1.68-.738h3.57zm0 0"/></symbol><symbol overflow="visible" id="s"><path d="M4.406-2.387h.985v.739h-.985V0h-.91v-1.648H.258v-.536L3.44-7.109h.965zm-3.12 0h2.21v-3.488l-.105.195zm0 0"/></symbol><symbol overflow="visible" id="t"><path d="M4.137-7.113v.765h-.168c-.703.012-1.262.223-1.68.625-.414.403-.656.973-.723 1.703.375-.43.887-.644 1.536-.644.617 0 1.113.219 1.48.656.371.438.555 1 .555 1.688 0 .734-.2 1.32-.598 1.757-.398.442-.934.66-1.605.66-.68 0-1.23-.261-1.653-.784C.855-1.212.645-1.883.645-2.704v-.348c0-1.308.277-2.308.835-3 .56-.691 1.391-1.047 2.497-1.062zM2.949-3.91c-.308 0-.594.09-.855.277a1.446 1.446 0 0 0-.54.7v.331c0 .586.13 1.059.395 1.414.262.36.59.54.985.54.406 0 .726-.153.96-.45.231-.3.348-.691.348-1.175 0-.489-.117-.887-.351-1.188a1.14 1.14 0 0 0-.942-.45zm0 0"/></symbol><symbol overflow="visible" id="u"><path d="M4.902-5.254c0 .356-.093.672-.28.95a1.95 1.95 0 0 1-.759.648c.371.16.664.39.88.695.218.309.327.656.327 1.043 0 .613-.21 1.105-.625 1.469-.414.363-.96.547-1.636.547-.684 0-1.23-.184-1.645-.551C.754-.82.547-1.31.547-1.918c0-.387.105-.73.316-1.043.207-.309.5-.543.871-.703a1.869 1.869 0 0 1-.75-.648 1.693 1.693 0 0 1-.273-.942c0-.598.195-1.074.578-1.426.383-.351.89-.527 1.52-.527.625 0 1.128.176 1.515.527.387.352.578.828.578 1.426zm-.738 3.316c0-.398-.125-.722-.379-.972-.25-.25-.582-.375-.988-.375s-.73.12-.977.37c-.246.247-.37.571-.37.978 0 .402.12.718.359.953.238.23.574.343 1 .343.421 0 .753-.117.996-.347.242-.235.36-.551.36-.95zM2.81-6.465c-.356 0-.645.11-.864.328-.218.223-.328.52-.328.899 0 .36.106.652.324.875.215.222.504.336.868.336.359 0 .648-.114.867-.336C3.89-4.586 4-4.88 4-5.238c0-.364-.113-.657-.336-.887a1.16 1.16 0 0 0-.855-.34zm0 0"/></symbol><symbol overflow="visible" id="v"><path d="M3.559 0h-.907v-6.02l-1.824.668v-.82l2.59-.973h.14zm0 0"/></symbol><symbol overflow="visible" id="x"><path d="M2.297-.996H6.68V0H1.074v-9.242h1.223zm0 0"/></symbol><symbol overflow="visible" id="y"><path d="M5.129 0c-.066-.137-.121-.375-.164-.723-.547.567-1.2.848-1.957.848-.676 0-1.23-.191-1.664-.574A1.859 1.859 0 0 1 .69-1.906c0-.715.274-1.27.817-1.664.543-.395 1.308-.594 2.293-.594h1.144v-.54c0-.41-.125-.737-.367-.98-.246-.242-.61-.367-1.086-.367-.418 0-.77.106-1.054.32-.286.211-.426.465-.426.766H.832c0-.344.121-.672.363-.992a2.45 2.45 0 0 1 .992-.758 3.317 3.317 0 0 1 1.376-.281c.789 0 1.41.2 1.859.594.45.394.68.941.695 1.636v3.16c0 .63.082 1.133.242 1.504V0zm-1.95-.895c.368 0 .72-.097 1.048-.285.332-.191.57-.437.718-.742v-1.41h-.922c-1.437 0-2.156.422-2.156 1.262 0 .367.121.656.367.863.246.207.563.312.946.312zm0 0"/></symbol><symbol overflow="visible" id="z"><path d="M7.457-8.238H4.488V0H3.273v-8.238H.313v-1.004h7.144zm0 0"/></symbol><symbol overflow="visible" id="A"><path d="M3.738.125c-.93 0-1.687-.305-2.273-.914C.883-1.402.59-2.22.59-3.242v-.219c0-.68.129-1.289.39-1.824a3.069 3.069 0 0 1 1.094-1.258c.465-.3.973-.453 1.52-.453.89 0 1.586.297 2.082.883.496.59.742 1.43.742 2.527v.488H1.766c.015.676.214 1.223.593 1.641.38.418.86.625 1.442.625.414 0 .765-.086 1.054-.254.29-.168.54-.394.754-.672l.72.559C5.753-.316 4.89.125 3.738.125zm-.144-6.156c-.477 0-.871.172-1.196.52-.32.343-.52.827-.593 1.449h3.437v-.09c-.031-.598-.195-1.059-.48-1.387-.29-.328-.68-.492-1.168-.492zm0 0"/></symbol><symbol overflow="visible" id="B"><path d="M4.086-5.7l2.219-3.542h1.433L4.816-4.66 7.81 0h-1.45L4.086-3.605 1.805 0H.363L3.36-4.66.43-9.242h1.43zm0 0"/></symbol><symbol overflow="visible" id="D"><path d="M6.691-3.36c0 1.047-.238 1.891-.718 2.528-.477.64-1.125.957-1.942.957-.836 0-1.488-.262-1.968-.793v3.309H.89v-9.508h1.07l.059.762c.476-.594 1.14-.891 1.992-.891.824 0 1.476.312 1.957.934.48.62.722 1.488.722 2.597zm-1.175-.132c0-.774-.164-1.387-.496-1.832C4.69-5.774 4.238-6 3.664-6c-.71 0-1.246.316-1.602.945v3.285c.352.625.891.938 1.614.938.562 0 1.011-.223 1.344-.668.332-.445.496-1.11.496-1.992zm0 0"/></symbol><symbol overflow="visible" id="E"><path d="M.602-3.492c0-1.055.25-1.899.75-2.543.5-.64 1.152-.961 1.96-.961.805 0 1.442.277 1.91.824V-9.75h1.176V0H5.32l-.058-.734C4.793-.16 4.14.125 3.3.125c-.797 0-1.446-.324-1.946-.977-.5-.652-.753-1.5-.753-2.55zm1.175.133c0 .78.16 1.39.48 1.828.325.441.77.66 1.337.66.742 0 1.289-.332 1.629-1v-3.156C4.87-5.676 4.332-6 3.605-6c-.574 0-1.023.223-1.347.668-.32.445-.48 1.102-.48 1.973zm0 0"/></symbol><symbol overflow="visible" id="F"><path d="M1.465 0v-5.96H.383v-.907h1.082v-.707c0-.735.2-1.305.59-1.707.394-.403.953-.602 1.672-.602.27 0 .539.035.804.11l-.062.949c-.2-.04-.41-.055-.633-.055-.383 0-.676.11-.883.332-.207.223-.312.54-.312.953v.727h1.464v.906H2.641V0zm0 0"/></symbol><symbol overflow="visible" id="K"><path d="M5.129-.68C4.672-.14 4 .125 3.117.125c-.734 0-1.289-.21-1.672-.637C1.062-.937.867-1.566.863-2.398v-4.47H2.04v4.438c0 1.04.422 1.559 1.27 1.559.894 0 1.492-.332 1.789-1v-4.996h1.175V0H5.156zm0 0"/></symbol><symbol overflow="visible" id="N"><path d="M6.176-2.414H2.305L1.434 0H.18l3.527-9.242h1.066L8.31 0h-1.25zm-3.504-1h3.14l-1.57-4.324zm0 0"/></symbol><symbol overflow="visible" id="I"><path d="M5.727-4.21c0 .081-.02.16-.063.23a.421.421 0 0 1-.187.16c-.082.035-.336.11-.762.218-.426.11-.828.262-1.2.465.333.2.712.364 1.141.485.43.12.692.21.793.261a.47.47 0 0 1 .2.164c.042.067.066.141.066.223 0 .113-.05.227-.149.332a.43.43 0 0 1-.441.149.39.39 0 0 1-.14-.055l-.532-.54c-.351-.355-.7-.632-1.035-.82 0 .418.055.856.16 1.313.11.453.16.7.16.73 0 .168-.035.29-.113.364-.074.078-.188.113-.336.113-.16 0-.281-.039-.363-.117-.082-.082-.121-.2-.121-.36 0 0 .062-.242.191-.726.129-.48.195-.922.195-1.317-.226.118-.543.36-.945.723-.402.363-.625.555-.668.574-.039.02-.082.036-.125.051a.397.397 0 0 1-.133.024.45.45 0 0 1-.324-.114C.91-1.754.867-1.875.867-2.043c0-.09.024-.168.063-.23a.597.597 0 0 1 .191-.172c.05-.032.297-.106.734-.22.442-.108.848-.269 1.227-.472a7.027 7.027 0 0 0-1.16-.484l-.774-.254a.489.489 0 0 1-.203-.18.396.396 0 0 1-.062-.218c0-.118.047-.227.14-.332a.438.438 0 0 1 .336-.153.49.49 0 0 1 .22.055c.073.035.14.086.198.148.332.367.59.63.774.79.183.16.394.308.64.449 0-.407-.054-.832-.168-1.278-.109-.445-.164-.703-.164-.765 0-.168.036-.29.11-.368.078-.074.187-.109.332-.109.16 0 .281.04.367.117.082.078.125.2.125.36 0 0-.063.238-.195.718a5.087 5.087 0 0 0-.192 1.325 4.95 4.95 0 0 0 .332-.235c.14-.105.344-.285.602-.535.144-.14.3-.273.457-.394.16-.122.273-.192.344-.207a.176.176 0 0 1 .07-.012c.027-.004.047-.004.066-.004a.39.39 0 0 1 .32.164.53.53 0 0 1 .13.328zm0 0"/></symbol><clipPath id="w"><path d="M614 48h10v10h-10zm0 0"/></clipPath><clipPath id="C"><path d="M614 66h10v10h-10zm0 0"/></clipPath><clipPath id="G"><path d="M614 84h10v10h-10zm0 0"/></clipPath><clipPath id="H"><path d="M614 102h10v10h-10zm0 0"/></clipPath><clipPath id="J"><path d="M614 120h10v10h-10zm0 0"/></clipPath><clipPath id="L"><path d="M614 138h10v10h-10zm0 0"/></clipPath><clipPath id="M"><path d="M614 156h10v10h-10zm0 0"/></clipPath></defs><path d="M20 173h578.5M20 148.168h578.5M20 123.336h578.5M20 98.5h578.5M20 73.668h578.5M20 48.836h578.5M20 24h578.5" fill="none" stroke="#666" stroke-opacity=".5" stroke-dasharray="1,2" stroke-miterlimit="3.25"/><path d="M42.46 197.832v-8.805h11.583v8.805zm0 0" fill="#841c33" stroke-width=".03" stroke-linecap="square" stroke="#841c33" stroke-miterlimit="3.25"/><path d="M42.46 197.832v-8.805h11.583v8.805zm0 0" fill="none" stroke-width=".5" stroke-linecap="square" stroke="#000" stroke-opacity=".406" stroke-miterlimit="3.25"/><path d="M54.043 197.832v-5.605h11.586v5.605zm0 0" fill="#992741" stroke-width=".03" stroke-linecap="square" stroke="#992741" stroke-miterlimit="3.25"/><path d="M54.043 197.832v-5.605h11.586v5.605zm0 0" fill="none" stroke-width=".5" stroke-linecap="square" stroke="#000" stroke-opacity=".406" stroke-miterlimit="3.25"/><path d="M65.629 197.832V187.32H77.21v10.512zm0 0" fill="#ac3e58" stroke-width=".03" stroke-linecap="square" stroke="#ac3e58" stroke-miterlimit="3.25"/><path d="M65.629 197.832V187.32H77.21v10.512zm0 0" fill="none" stroke-width=".5" stroke-linecap="square" stroke="#000" stroke-opacity=".406" stroke-miterlimit="3.25"/><path d="M77.21 197.832v-10.406h11.587v10.406zm0 0" fill="#c25f77" stroke-width=".03" stroke-linecap="square" stroke="#c25f77" stroke-miterlimit="3.25"/><path d="M77.21 197.832v-10.406h11.587v10.406zm0 0" fill="none" stroke-width=".5" stroke-linecap="square" stroke="#000" stroke-opacity=".406" stroke-miterlimit="3.25"/><path d="M88.797 197.832v-5.715h11.586v5.715zm0 0" fill="#d9879e" stroke-width=".03" stroke-linecap="square" stroke="#d9879e" stroke-miterlimit="3.25"/><path d="M88.797 197.832v-5.715h11.586v5.715zm0 0" fill="none" stroke-width=".5" stroke-linecap="square" stroke="#000" stroke-opacity=".406" stroke-miterlimit="3.25"/><path d="M100.383 197.832v-8.988h11.582v8.988zm0 0" fill="#eeb2c4" stroke-width=".03" stroke-linecap="square" stroke="#eeb2c4" stroke-miterlimit="3.25"/><path d="M100.383 197.832v-8.988h11.582v8.988zm0 0" fill="none" stroke-width=".5" stroke-linecap="square" stroke="#000" stroke-opacity=".406" stroke-miterlimit="3.25"/><path d="M111.965 197.832v-8.016h11.586v8.016zm0 0" fill="#f5d5df" stroke-width=".03" stroke-linecap="square" stroke="#f5d5df" stroke-miterlimit="3.25"/><path d="M111.965 197.832v-8.016h11.586v8.016zm0 0" fill="none" stroke-width=".5" stroke-linecap="square" stroke="#000" stroke-opacity=".406" stroke-miterlimit="3.25"/><path d="M135.137 197.832v-32.523h11.582v32.523zm0 0" fill="#841c33" stroke-width=".03" stroke-linecap="square" stroke="#841c33" stroke-miterlimit="3.25"/><path d="M135.137 197.832v-32.523h11.582v32.523zm0 0" fill="none" stroke-width=".5" stroke-linecap="square" stroke="#000" stroke-opacity=".406" stroke-miterlimit="3.25"/><path d="M146.719 197.832v-24.621h11.586v24.621zm0 0" fill="#992741" stroke-width=".03" stroke-linecap="square" stroke="#992741" stroke-miterlimit="3.25"/><path d="M146.719 197.832v-24.621h11.586v24.621zm0 0" fill="none" stroke-width=".5" stroke-linecap="square" stroke="#000" stroke-opacity=".406" stroke-miterlimit="3.25"/><path d="M158.305 197.832v-27.398h11.586v27.398zm0 0" fill="#ac3e58" stroke-width=".03" stroke-linecap="square" stroke="#ac3e58" stroke-miterlimit="3.25"/><path d="M158.305 197.832v-27.398h11.586v27.398zm0 0" fill="none" stroke-width=".5" stroke-linecap="square" stroke="#000" stroke-opacity=".406" stroke-miterlimit="3.25"/><path d="M169.89 197.832v-26.914h11.583v26.914zm0 0" fill="#c25f77" stroke-width=".03" stroke-linecap="square" stroke="#c25f77" stroke-miterlimit="3.25"/><path d="M169.89 197.832v-26.914h11.583v26.914zm0 0" fill="none" stroke-width=".5" stroke-linecap="square" stroke="#000" stroke-opacity=".406" stroke-miterlimit="3.25"/><path d="M181.473 197.832v-13.473h11.586v13.473zm0 0" fill="#d9879e" stroke-width=".03" stroke-linecap="square" stroke="#d9879e" stroke-miterlimit="3.25"/><path d="M181.473 197.832v-13.473h11.586v13.473zm0 0" fill="none" stroke-width=".5" stroke-linecap="square" stroke="#000" stroke-opacity=".406" stroke-miterlimit="3.25"/><path d="M193.059 197.832v-37.367h11.582v37.367zm0 0" fill="#eeb2c4" stroke-width=".03" stroke-linecap="square" stroke="#eeb2c4" stroke-miterlimit="3.25"/><path d="M193.059 197.832v-37.367h11.582v37.367zm0 0" fill="none" stroke-width=".5" stroke-linecap="square" stroke="#000" stroke-opacity=".406" stroke-miterlimit="3.25"/><path d="M204.64 197.832v-31.82h11.587v31.82zm0 0" fill="#f5d5df" stroke-width=".03" stroke-linecap="square" stroke="#f5d5df" stroke-miterlimit="3.25"/><path d="M204.64 197.832v-31.82h11.587v31.82zm0 0" fill="none" stroke-width=".5" stroke-linecap="square" stroke="#000" stroke-opacity=".406" stroke-miterlimit="3.25"/><path d="M227.813 197.832V177.91h11.582v19.922zm0 0" fill="#841c33" stroke-width=".03" stroke-linecap="square" stroke="#841c33" stroke-miterlimit="3.25"/><path d="M227.813 197.832V177.91h11.582v19.922zm0 0" fill="none" stroke-width=".5" stroke-linecap="square" stroke="#000" stroke-opacity=".406" stroke-miterlimit="3.25"/><path d="M239.395 197.832v-17.648h11.585v17.648zm0 0" fill="#992741" stroke-width=".03" stroke-linecap="square" stroke="#992741" stroke-miterlimit="3.25"/><path d="M239.395 197.832v-17.648h11.585v17.648zm0 0" fill="none" stroke-width=".5" stroke-linecap="square" stroke="#000" stroke-opacity=".406" stroke-miterlimit="3.25"/><path d="M250.98 197.832V173.32h11.586v24.512zm0 0" fill="#ac3e58" stroke-width=".03" stroke-linecap="square" stroke="#ac3e58" stroke-miterlimit="3.25"/><path d="M250.98 197.832V173.32h11.586v24.512zm0 0" fill="none" stroke-width=".5" stroke-linecap="square" stroke="#000" stroke-opacity=".406" stroke-miterlimit="3.25"/><path d="M262.566 197.832v-23.508h11.582v23.508zm0 0" fill="#c25f77" stroke-width=".03" stroke-linecap="square" stroke="#c25f77" stroke-miterlimit="3.25"/><path d="M262.566 197.832v-23.508h11.582v23.508zm0 0" fill="none" stroke-width=".5" stroke-linecap="square" stroke="#000" stroke-opacity=".406" stroke-miterlimit="3.25"/><path d="M274.148 197.832v-25.559h11.586v25.559zm0 0" fill="#d9879e" stroke-width=".03" stroke-linecap="square" stroke="#d9879e" stroke-miterlimit="3.25"/><path d="M274.148 197.832v-25.559h11.586v25.559zm0 0" fill="none" stroke-width=".5" stroke-linecap="square" stroke="#000" stroke-opacity=".406" stroke-miterlimit="3.25"/><path d="M285.734 197.832v-21.074h11.582v21.074zm0 0" fill="#eeb2c4" stroke-width=".03" stroke-linecap="square" stroke="#eeb2c4" stroke-miterlimit="3.25"/><path d="M285.734 197.832v-21.074h11.582v21.074zm0 0" fill="none" stroke-width=".5" stroke-linecap="square" stroke="#000" stroke-opacity=".406" stroke-miterlimit="3.25"/><path d="M320.488 197.832v-59.277h11.582v59.277zm0 0" fill="#841c33" stroke-width=".03" stroke-linecap="square" stroke="#841c33" stroke-miterlimit="3.25"/><path d="M320.488 197.832v-59.277h11.582v59.277zm0 0" fill="none" stroke-width=".5" stroke-linecap="square" stroke="#000" stroke-opacity=".406" stroke-miterlimit="3.25"/><path d="M332.07 197.832v-60.394h11.586v60.394zm0 0" fill="#992741" stroke-width=".03" stroke-linecap="square" stroke="#992741" stroke-miterlimit="3.25"/><path d="M332.07 197.832v-60.394h11.586v60.394zm0 0" fill="none" stroke-width=".5" stroke-linecap="square" stroke="#000" stroke-opacity=".406" stroke-miterlimit="3.25"/><path d="M343.656 197.832V89.852h11.586v107.98zm0 0" fill="#ac3e58" stroke-width=".03" stroke-linecap="square" stroke="#ac3e58" stroke-miterlimit="3.25"/><path d="M343.656 197.832V89.852h11.586v107.98zm0 0" fill="none" stroke-width=".5" stroke-linecap="square" stroke="#000" stroke-opacity=".406" stroke-miterlimit="3.25"/><path d="M355.242 197.832V85.965h11.582v111.867zm0 0" fill="#c25f77" stroke-width=".03" stroke-linecap="square" stroke="#c25f77" stroke-miterlimit="3.25"/><path d="M355.242 197.832V85.965h11.582v111.867zm0 0" fill="none" stroke-width=".5" stroke-linecap="square" stroke="#000" stroke-opacity=".406" stroke-miterlimit="3.25"/><path d="M366.824 197.832v-87.195h11.586v87.195zm0 0" fill="#d9879e" stroke-width=".03" stroke-linecap="square" stroke="#d9879e" stroke-miterlimit="3.25"/><path d="M366.824 197.832v-87.195h11.586v87.195zm0 0" fill="none" stroke-width=".5" stroke-linecap="square" stroke="#000" stroke-opacity=".406" stroke-miterlimit="3.25"/><path d="M378.41 197.832v-65.555h11.582v65.555zm0 0" fill="#eeb2c4" stroke-width=".03" stroke-linecap="square" stroke="#eeb2c4" stroke-miterlimit="3.25"/><path d="M378.41 197.832v-65.555h11.582v65.555zm0 0" fill="none" stroke-width=".5" stroke-linecap="square" stroke="#000" stroke-opacity=".406" stroke-miterlimit="3.25"/><path d="M389.992 197.832v-63.64h11.586v63.64zm0 0" fill="#f5d5df" stroke-width=".03" stroke-linecap="square" stroke="#f5d5df" stroke-miterlimit="3.25"/><path d="M389.992 197.832v-63.64h11.586v63.64zm0 0" fill="none" stroke-width=".5" stroke-linecap="square" stroke="#000" stroke-opacity=".406" stroke-miterlimit="3.25"/><path d="M413.164 197.832v-93.879h11.582v93.879zm0 0" fill="#841c33" stroke-width=".03" stroke-linecap="square" stroke="#841c33" stroke-miterlimit="3.25"/><path d="M413.164 197.832v-93.879h11.582v93.879zm0 0" fill="none" stroke-width=".5" stroke-linecap="square" stroke="#000" stroke-opacity=".406" stroke-miterlimit="3.25"/><path d="M436.332 197.832V46.594h11.586v151.238zm0 0" fill="#ac3e58" stroke-width=".03" stroke-linecap="square" stroke="#ac3e58" stroke-miterlimit="3.25"/><path d="M436.332 197.832V46.594h11.586v151.238zm0 0" fill="none" stroke-width=".5" stroke-linecap="square" stroke="#000" stroke-opacity=".406" stroke-miterlimit="3.25"/><path d="M447.918 197.832V51.43H459.5v146.402zm0 0" fill="#c25f77" stroke-width=".03" stroke-linecap="square" stroke="#c25f77" stroke-miterlimit="3.25"/><path d="M447.918 197.832V51.43H459.5v146.402zm0 0" fill="none" stroke-width=".5" stroke-linecap="square" stroke="#000" stroke-opacity=".406" stroke-miterlimit="3.25"/><path d="M459.5 197.832v-53.66h11.586v53.66zm0 0" fill="#d9879e" stroke-width=".03" stroke-linecap="square" stroke="#d9879e" stroke-miterlimit="3.25"/><path d="M459.5 197.832v-53.66h11.586v53.66zm0 0" fill="none" stroke-width=".5" stroke-linecap="square" stroke="#000" stroke-opacity=".406" stroke-miterlimit="3.25"/><path d="M471.086 197.832v-19.426h11.582v19.426zm0 0" fill="#eeb2c4" stroke-width=".03" stroke-linecap="square" stroke="#eeb2c4" stroke-miterlimit="3.25"/><path d="M471.086 197.832v-19.426h11.582v19.426zm0 0" fill="none" stroke-width=".5" stroke-linecap="square" stroke="#000" stroke-opacity=".406" stroke-miterlimit="3.25"/><path d="M482.668 197.832v-16.937h11.586v16.937zm0 0" fill="#f5d5df" stroke-width=".03" stroke-linecap="square" stroke="#f5d5df" stroke-miterlimit="3.25"/><path d="M482.668 197.832v-16.937h11.586v16.937zm0 0" fill="none" stroke-width=".5" stroke-linecap="square" stroke="#000" stroke-opacity=".406" stroke-miterlimit="3.25"/><path d="M505.84 197.832v-31.398h11.582v31.398zm0 0" fill="#841c33" stroke-width=".03" stroke-linecap="square" stroke="#841c33" stroke-miterlimit="3.25"/><path d="M505.84 197.832v-31.398h11.582v31.398zm0 0" fill="none" stroke-width=".5" stroke-linecap="square" stroke="#000" stroke-opacity=".406" stroke-miterlimit="3.25"/><path d="M529.008 197.832v-41.473h11.586v41.473zm0 0" fill="#ac3e58" stroke-width=".03" stroke-linecap="square" stroke="#ac3e58" stroke-miterlimit="3.25"/><path d="M529.008 197.832v-41.473h11.586v41.473zm0 0" fill="none" stroke-width=".5" stroke-linecap="square" stroke="#000" stroke-opacity=".406" stroke-miterlimit="3.25"/><path d="M540.594 197.832v-41.008h11.582v41.008zm0 0" fill="#c25f77" stroke-width=".03" stroke-linecap="square" stroke="#c25f77" stroke-miterlimit="3.25"/><path d="M540.594 197.832v-41.008h11.582v41.008zm0 0" fill="none" stroke-width=".5" stroke-linecap="square" stroke="#000" stroke-opacity=".406" stroke-miterlimit="3.25"/><path d="M552.176 197.832V19.527h11.586v178.305zm0 0" fill="#d9879e" stroke-width=".03" stroke-linecap="square" stroke="#d9879e" stroke-miterlimit="3.25"/><path d="M552.176 197.832V19.527h11.586v178.305zm0 0" fill="none" stroke-width=".5" stroke-linecap="square" stroke="#000" stroke-opacity=".406" stroke-miterlimit="3.25"/><path d="M563.762 197.832v-23.066h11.582v23.066zm0 0" fill="#eeb2c4" stroke-width=".03" stroke-linecap="square" stroke="#eeb2c4" stroke-miterlimit="3.25"/><path d="M563.762 197.832v-23.066h11.582v23.066zm0 0" fill="none" stroke-width=".5" stroke-linecap="square" stroke="#000" stroke-opacity=".406" stroke-miterlimit="3.25"/><path d="M575.344 197.832v-19.32h11.586v19.32zm0 0" fill="#f5d5df" stroke-width=".03" stroke-linecap="square" stroke="#f5d5df" stroke-miterlimit="3.25"/><path d="M575.344 197.832v-19.32h11.586v19.32zm0 0" fill="none" stroke-width=".5" stroke-linecap="square" stroke="#000" stroke-opacity=".406" stroke-miterlimit="3.25"/><path d="M48.25 189.281v-.254M48.25 189.027v-.254M59.836 192.309v-.082M59.836 192.227v-.079M71.422 187.7v-.38M71.422 187.32v-.379M83.004 187.945v-.52M83.004 187.426v-.52M94.59 192.203v-.086M94.59 192.117v-.09M106.176 189.41v-.566M106.176 188.844v-.563M117.758 190.059v-.243M117.758 189.816v-.242M140.926 167.465v-2.156M140.926 165.309v-2.153M152.512 173.852v-.641M152.512 173.21v-.64M164.098 171.484v-1.05M164.098 170.434v-1.047M175.68 171.723v-.805M175.68 170.918v-.805M187.266 185.04v-.68M187.266 184.36v-.68M198.852 161.7v-1.235M198.852 160.465v-1.238M210.434 167.012v-1M210.434 166.012v-.996M233.602 180.879v-2.969M233.602 177.91v-2.972M245.188 183.73v-3.546M245.188 180.184v-3.551M256.773 175.348v-2.028M256.773 173.32v-2.027M268.355 175.21v-.886M268.355 174.324v-.887M279.941 173.293v-1.02M279.941 172.273v-1.023M291.527 177.77v-1.012M291.527 176.758v-1.008M326.277 146.09v-7.535M326.277 138.555v-7.54M337.863 145.715v-8.278M337.863 137.438v-8.278M349.45 95.652v-5.8M349.45 89.852V84.05M361.031 94.219v-8.254M361.031 85.965V77.71M372.617 119.64v-9.003M372.617 110.637v-9.008M384.203 135.75v-3.473M384.203 132.277v-3.468M395.785 139.625v-5.434M395.785 134.191v-5.43M418.953 114.652v-10.699M418.953 103.953v-10.7M442.125 58.898V46.594M442.125 46.594V34.285M453.707 54.258V51.43M453.707 51.43v-2.825M465.293 145.598v-1.426M465.293 144.172v-1.426M476.879 178.652v-.246M476.879 178.406v-.246M488.46 181.285v-.39M488.46 180.895v-.391M511.633 168.152v-1.718M511.633 166.434v-1.723M534.8 159.723v-3.364M534.8 156.36v-3.368M546.383 159.227v-2.403M546.383 156.824v-2.398M557.969 24.41v-4.883M557.969 19.527v-4.886M569.555 176.371v-1.605M569.555 174.766v-1.606M581.137 179.668v-1.156M581.137 178.512v-1.157M48.25 188.773h3M48.25 188.773h-3M48.25 189.281h3M48.25 189.281h-3M59.836 192.148h3M59.836 192.148h-3M59.836 192.309h3M59.836 192.309h-3M71.422 186.941h3M71.422 186.941h-3M71.422 187.7h3M71.422 187.7h-3M83.004 186.906h3M83.004 186.906h-3M83.004 187.945h3M83.004 187.945h-3M94.59 192.027h3M94.59 192.027h-3M94.59 192.203h3M94.59 192.203h-3M106.176 188.281h3M106.176 188.281h-3M106.176 189.41h3M106.176 189.41h-3M117.758 189.574h3M117.758 189.574h-3M117.758 190.059h3M117.758 190.059h-3M140.926 163.156h3M140.926 163.156h-3M140.926 167.465h3M140.926 167.465h-3M152.512 172.57h3M152.512 172.57h-3M152.512 173.852h3M152.512 173.852h-3M164.098 169.387h3M164.098 169.387h-3M164.098 171.484h3M164.098 171.484h-3M175.68 170.113h3M175.68 170.113h-3M175.68 171.723h3M175.68 171.723h-3M187.266 183.68h3M187.266 183.68h-3M187.266 185.04h3M187.266 185.04h-3M198.852 159.227h3M198.852 159.227h-3M198.852 161.7h3M198.852 161.7h-3M210.434 165.016h3M210.434 165.016h-3M210.434 167.012h3M210.434 167.012h-3M233.602 174.938h3M233.602 174.938h-3M233.602 180.879h3M233.602 180.879h-3M245.188 176.633h3M245.188 176.633h-3M245.188 183.73h3M245.188 183.73h-3M256.773 171.293h3M256.773 171.293h-3M256.773 175.348h3M256.773 175.348h-3M268.355 173.438h3M268.355 173.438h-3M268.355 175.21h3M268.355 175.21h-3M279.941 171.25h3M279.941 171.25h-3M279.941 173.293h3M279.941 173.293h-3M291.527 175.75h3M291.527 175.75h-3M291.527 177.77h3M291.527 177.77h-3M326.277 131.016h3M326.277 131.016h-3M326.277 146.09h3M326.277 146.09h-3M337.863 129.16h3M337.863 129.16h-3M337.863 145.715h3M337.863 145.715h-3M349.45 84.05h3M349.45 84.05h-3M349.45 95.652h3M349.45 95.652h-3M361.031 77.71h3M361.031 77.71h-3M361.031 94.219h3M361.031 94.219h-3M372.617 101.629h3M372.617 101.629h-3M372.617 119.64h3M372.617 119.64h-3M384.203 128.809h3M384.203 128.809h-3M384.203 135.75h3M384.203 135.75h-3M395.785 128.762h3M395.785 128.762h-3M395.785 139.625h3M395.785 139.625h-3M418.953 93.254h3M418.953 93.254h-3M418.953 114.652h3M418.953 114.652h-3M442.125 34.285h3M442.125 34.285h-3M442.125 58.898h3M442.125 58.898h-3M453.707 48.605h3M453.707 48.605h-3M453.707 54.258h3M453.707 54.258h-3M465.293 142.746h3M465.293 142.746h-3M465.293 145.598h3M465.293 145.598h-3M476.879 178.16h3M476.879 178.16h-3M476.879 178.652h3M476.879 178.652h-3M488.46 180.504h3M488.46 180.504h-3M488.46 181.285h3M488.46 181.285h-3M511.633 164.71h3M511.633 164.71h-3M511.633 168.152h3M511.633 168.152h-3M534.8 152.992h3M534.8 152.992h-3M534.8 159.723h3M534.8 159.723h-3M546.383 154.426h3M546.383 154.426h-3M546.383 159.227h3M546.383 159.227h-3M557.969 14.64h3M557.969 14.64h-3M557.969 24.41h3M557.969 24.41h-3M569.555 173.16h3M569.555 173.16h-3M569.555 176.371h3M569.555 176.371h-3M581.137 177.355h3M581.137 177.355h-3M581.137 179.668h3M581.137 179.668h-3" fill="none" stroke-linecap="square" stroke="#000" stroke-miterlimit="3.25"/><path d="M598.5 197.832H20M20 197.832V5M20 5h578.5M598.5 5v192.832" fill="none" stroke-width=".5" stroke-linecap="square" stroke="#666" stroke-miterlimit="3.25"/><path d="M48.25 197.832v-2.398M59.836 197.832v-2.398M71.422 197.832v-2.398M83.004 197.832v-2.398M94.59 197.832v-2.398M106.176 197.832v-2.398M117.758 197.832v-2.398M129.344 197.832v-4.625" fill="none" stroke-width=".5" stroke="#666" stroke-miterlimit="3.25"/><g fill="#666"><use xlink:href="#a" x="65.005" y="209.833"/><use xlink:href="#b" x="73.77" y="209.833"/><use xlink:href="#c" x="76.197" y="209.833"/><use xlink:href="#b" x="81.714" y="209.833"/><use xlink:href="#a" x="84.141" y="209.833"/><use xlink:href="#d" x="92.905" y="209.833"/><use xlink:href="#e" x="98.345" y="209.833"/></g><path d="M140.926 197.832v-2.398M152.512 197.832v-2.398M164.098 197.832v-2.398M175.68 197.832v-2.398M187.266 197.832v-2.398M198.852 197.832v-2.398M210.434 197.832v-2.398M222.02 197.832v-4.625" fill="none" stroke-width=".5" stroke="#666" stroke-miterlimit="3.25"/><g fill="#666"><use xlink:href="#f" x="167.681" y="209.833"/><use xlink:href="#b" x="170.948" y="209.833"/><use xlink:href="#g" x="173.374" y="209.833"/><use xlink:href="#h" x="178.443" y="209.833"/></g><path d="M233.602 197.832v-2.398M245.188 197.832v-2.398M256.773 197.832v-2.398M268.355 197.832v-2.398M279.941 197.832v-2.398M291.527 197.832v-2.398M303.11 197.832v-2.398M314.695 197.832v-4.625" fill="none" stroke-width=".5" stroke="#666" stroke-miterlimit="3.25"/><g fill="#666"><use xlink:href="#i" x="259.357" y="209.833"/><use xlink:href="#j" x="264.513" y="209.833"/><use xlink:href="#k" x="270.216" y="209.833"/><use xlink:href="#f" x="273.6" y="209.833"/></g><path d="M326.277 197.832v-2.398M337.863 197.832v-2.398M349.45 197.832v-2.398M361.031 197.832v-2.398M372.617 197.832v-2.398M384.203 197.832v-2.398M395.785 197.832v-2.398M407.371 197.832v-4.625" fill="none" stroke-width=".5" stroke="#666" stroke-miterlimit="3.25"/><g fill="#666"><use xlink:href="#e" x="346.033" y="209.833"/><use xlink:href="#b" x="348.459" y="209.833"/><use xlink:href="#l" x="350.886" y="209.833"/><use xlink:href="#i" x="356.496" y="209.833"/><use xlink:href="#m" x="361.653" y="209.833"/><use xlink:href="#a" x="367.165" y="209.833"/></g><path d="M418.953 197.832v-2.398M430.54 197.832v-2.398M442.125 197.832v-2.398M453.707 197.832v-2.398M465.293 197.832v-2.398M476.879 197.832v-2.398M488.46 197.832v-2.398M500.047 197.832v-4.625" fill="none" stroke-width=".5" stroke="#666" stroke-miterlimit="3.25"/><g fill="#666"><use xlink:href="#h" x="433.708" y="209.833"/><use xlink:href="#n" x="438.665" y="209.833"/><use xlink:href="#e" x="444.172" y="209.833"/><use xlink:href="#b" x="446.599" y="209.833"/><use xlink:href="#l" x="449.026" y="209.833"/><use xlink:href="#i" x="454.636" y="209.833"/><use xlink:href="#m" x="459.792" y="209.833"/><use xlink:href="#a" x="465.305" y="209.833"/></g><path d="M511.633 197.832v-2.398M523.215 197.832v-2.398M534.8 197.832v-2.398M546.383 197.832v-2.398M557.969 197.832v-2.398M569.555 197.832v-2.398M581.137 197.832v-2.398" fill="none" stroke-width=".5" stroke="#666" stroke-miterlimit="3.25"/><g fill="#666"><use xlink:href="#i" x="522.884" y="209.833"/><use xlink:href="#j" x="528.041" y="209.833"/><use xlink:href="#m" x="533.744" y="209.833"/><use xlink:href="#k" x="539.256" y="209.833"/><use xlink:href="#o" x="542.64" y="209.833"/><use xlink:href="#p" x="547.875" y="209.833"/><use xlink:href="#n" x="553.172" y="209.833"/><use xlink:href="#d" x="558.68" y="209.833"/><use xlink:href="#c" x="564.12" y="209.833"/></g><path d="M20 197.832h4" fill="none" stroke-width=".5" stroke="#666" stroke-miterlimit="3.25"/><use xlink:href="#q" x="11" y="200.333" fill="#666"/><path d="M20 191.625h2.398M20 185.418h2.398M20 179.207h2.398M20 173h4" fill="none" stroke-width=".5" stroke="#666" stroke-miterlimit="3.25"/><use xlink:href="#r" x="11" y="175.5" fill="#666"/><path d="M20 166.793h2.398M20 160.582h2.398M20 154.375h2.398M20 148.168h4" fill="none" stroke-width=".5" stroke="#666" stroke-miterlimit="3.25"/><use xlink:href="#s" x="11" y="150.667" fill="#666"/><path d="M20 141.957h2.398M20 135.75h2.398M20 129.543h2.398M20 123.336h4" fill="none" stroke-width=".5" stroke="#666" stroke-miterlimit="3.25"/><use xlink:href="#t" x="11" y="125.834" fill="#666"/><path d="M20 117.125h2.398M20 110.918h2.398M20 104.71h2.398M20 98.5h4" fill="none" stroke-width=".5" stroke="#666" stroke-miterlimit="3.25"/><use xlink:href="#u" x="11" y="101.001" fill="#666"/><path d="M20 92.293h2.398M20 86.086h2.398M20 79.875h2.398M20 73.668h4" fill="none" stroke-width=".5" stroke="#666" stroke-miterlimit="3.25"/><g fill="#666"><use xlink:href="#v" x="6" y="76.168"/><use xlink:href="#q" x="11.615" y="76.168"/></g><path d="M20 67.46h2.398M20 61.25h2.398M20 55.043h2.398M20 48.836h4" fill="none" stroke-width=".5" stroke="#666" stroke-miterlimit="3.25"/><g fill="#666"><use xlink:href="#v" x="6" y="51.335"/><use xlink:href="#r" x="11.615" y="51.335"/></g><path d="M20 42.625h2.398M20 36.418h2.398M20 30.21h2.398M20 24h4" fill="none" stroke-width=".5" stroke="#666" stroke-miterlimit="3.25"/><g fill="#666"><use xlink:href="#v" x="6" y="26.502"/><use xlink:href="#s" x="11.615" y="26.502"/></g><path d="M20 17.793h2.398M20 11.586h2.398M20 5.379h2.398M48.25 5v2.398M59.836 5v2.398M71.422 5v2.398M83.004 5v2.398M94.59 5v2.398M106.176 5v2.398M117.758 5v2.398M129.344 5v4.629M140.926 5v2.398M152.512 5v2.398M164.098 5v2.398M175.68 5v2.398M187.266 5v2.398M198.852 5v2.398M210.434 5v2.398M222.02 5v4.629M233.602 5v2.398M245.188 5v2.398M256.773 5v2.398M268.355 5v2.398M279.941 5v2.398M291.527 5v2.398M303.11 5v2.398M314.695 5v4.629M326.277 5v2.398M337.863 5v2.398M349.45 5v2.398M361.031 5v2.398M372.617 5v2.398M384.203 5v2.398M395.785 5v2.398M407.371 5v4.629M418.953 5v2.398M430.54 5v2.398M442.125 5v2.398M453.707 5v2.398M465.293 5v2.398M476.879 5v2.398M488.46 5v2.398M500.047 5v4.629M511.633 5v2.398M523.215 5v2.398M534.8 5v2.398M546.383 5v2.398M557.969 5v2.398M569.555 5v2.398M581.137 5v2.398M598.5 197.832h-4M598.5 191.625h-2.398M598.5 185.418h-2.398M598.5 179.207h-2.398M598.5 173h-4M598.5 166.793h-2.398M598.5 160.582h-2.398M598.5 154.375h-2.398M598.5 148.168h-4M598.5 141.957h-2.398M598.5 135.75h-2.398M598.5 129.543h-2.398M598.5 123.336h-4M598.5 117.125h-2.398M598.5 110.918h-2.398M598.5 104.71h-2.398M598.5 98.5h-4M598.5 92.293h-2.398M598.5 86.086h-2.398M598.5 79.875h-2.398M598.5 73.668h-4M598.5 67.46h-2.398M598.5 61.25h-2.398M598.5 55.043h-2.398M598.5 48.836h-4M598.5 42.625h-2.398M598.5 36.418h-2.398M598.5 30.21h-2.398M598.5 24h-4M598.5 17.793h-2.398M598.5 11.586h-2.398M598.5 5.379h-2.398" fill="none" stroke-width=".5" stroke="#666" stroke-miterlimit="3.25"/><path d="M614.25 57.25v-8.5h8.5v8.5zm0 0" fill="#841c33" stroke-width=".03" stroke-linecap="square" stroke="#841c33" stroke-miterlimit="3.239"/><g clip-path="url(#w)"><path d="M614.25 57.25v-8.5h8.5v8.5zm0 0" fill="none" stroke-width=".5" stroke-linecap="square" stroke="#000" stroke-opacity=".406" stroke-miterlimit="3.25"/></g><g fill="#4d4d4d"><use xlink:href="#x" x="631" y="57.5"/><use xlink:href="#y" x="637.995" y="57.5"/><use xlink:href="#z" x="645.066" y="57.5"/><use xlink:href="#A" x="652.823" y="57.5"/><use xlink:href="#B" x="659.711" y="57.5"/></g><path d="M614.25 75.25v-8.5h8.5v8.5zm0 0" fill="#992741" stroke-width=".03" stroke-linecap="square" stroke="#992741" stroke-miterlimit="3.239"/><g clip-path="url(#C)"><path d="M614.25 75.25v-8.5h8.5v8.5zm0 0" fill="none" stroke-width=".5" stroke-linecap="square" stroke="#000" stroke-opacity=".406" stroke-miterlimit="3.25"/></g><g fill="#4d4d4d"><use xlink:href="#D" x="631" y="75.5"/><use xlink:href="#E" x="638.294" y="75.5"/><use xlink:href="#F" x="645.626" y="75.5"/><use xlink:href="#x" x="650.14" y="75.5"/><use xlink:href="#y" x="657.135" y="75.5"/><use xlink:href="#z" x="664.206" y="75.5"/><use xlink:href="#A" x="671.963" y="75.5"/><use xlink:href="#B" x="678.851" y="75.5"/></g><path d="M614.25 93.25v-8.5h8.5v8.5zm0 0" fill="#ac3e58" stroke-width=".03" stroke-linecap="square" stroke="#ac3e58" stroke-miterlimit="3.239"/><g clip-path="url(#G)"><path d="M614.25 93.25v-8.5h8.5v8.5zm0 0" fill="none" stroke-width=".5" stroke-linecap="square" stroke="#000" stroke-opacity=".406" stroke-miterlimit="3.25"/></g><g fill="#4d4d4d"><use xlink:href="#B" x="631" y="93.5"/><use xlink:href="#A" x="639.15" y="93.5"/><use xlink:href="#x" x="646.038" y="93.5"/><use xlink:href="#y" x="653.033" y="93.5"/><use xlink:href="#z" x="660.104" y="93.5"/><use xlink:href="#A" x="667.861" y="93.5"/><use xlink:href="#B" x="674.749" y="93.5"/></g><path d="M614.25 111.25v-8.5h8.5v8.5zm0 0" fill="#c25f77" stroke-width=".03" stroke-linecap="square" stroke="#c25f77" stroke-miterlimit="3.239"/><g clip-path="url(#H)"><path d="M614.25 111.25v-8.5h8.5v8.5zm0 0" fill="none" stroke-width=".5" stroke-linecap="square" stroke="#000" stroke-opacity=".406" stroke-miterlimit="3.25"/></g><g fill="#4d4d4d"><use xlink:href="#B" x="631" y="111.5"/><use xlink:href="#A" x="639.15" y="111.5"/><use xlink:href="#x" x="646.038" y="111.5"/><use xlink:href="#y" x="653.033" y="111.5"/><use xlink:href="#z" x="660.104" y="111.5"/><use xlink:href="#A" x="667.861" y="111.5"/><use xlink:href="#B" x="674.749" y="111.5"/></g><use xlink:href="#I" x="683" y="111.5" fill="#4d4d4d"/><path d="M614.25 129.25v-8.5h8.5v8.5zm0 0" fill="#d9879e" stroke-width=".03" stroke-linecap="square" stroke="#d9879e" stroke-miterlimit="3.239"/><g clip-path="url(#J)"><path d="M614.25 129.25v-8.5h8.5v8.5zm0 0" fill="none" stroke-width=".5" stroke-linecap="square" stroke="#000" stroke-opacity=".406" stroke-miterlimit="3.25"/></g><g fill="#4d4d4d"><use xlink:href="#x" x="631" y="129.5"/><use xlink:href="#K" x="637.995" y="129.5"/><use xlink:href="#y" x="645.162" y="129.5"/><use xlink:href="#x" x="652.233" y="129.5"/><use xlink:href="#y" x="659.229" y="129.5"/><use xlink:href="#z" x="666.3" y="129.5"/><use xlink:href="#A" x="674.057" y="129.5"/><use xlink:href="#B" x="680.944" y="129.5"/></g><path d="M614.25 147.25v-8.5h8.5v8.5zm0 0" fill="#eeb2c4" stroke-width=".03" stroke-linecap="square" stroke="#eeb2c4" stroke-miterlimit="3.239"/><g clip-path="url(#L)"><path d="M614.25 147.25v-8.5h8.5v8.5zm0 0" fill="none" stroke-width=".5" stroke-linecap="square" stroke="#000" stroke-opacity=".406" stroke-miterlimit="3.25"/></g><g fill="#4d4d4d"><use xlink:href="#K" x="631" y="147.5"/><use xlink:href="#D" x="638.167" y="147.5"/><use xlink:href="#x" x="645.461" y="147.5"/><use xlink:href="#y" x="652.456" y="147.5"/><use xlink:href="#z" x="659.527" y="147.5"/><use xlink:href="#A" x="667.284" y="147.5"/><use xlink:href="#B" x="674.172" y="147.5"/></g><path d="M614.25 165.25v-8.5h8.5v8.5zm0 0" fill="#f5d5df" stroke-width=".03" stroke-linecap="square" stroke="#f5d5df" stroke-miterlimit="3.239"/><g clip-path="url(#M)"><path d="M614.25 165.25v-8.5h8.5v8.5zm0 0" fill="none" stroke-width=".5" stroke-linecap="square" stroke="#000" stroke-opacity=".406" stroke-miterlimit="3.25"/></g><g fill="#4d4d4d"><use xlink:href="#N" x="631" y="165.5"/><use xlink:href="#D" x="639.48" y="165.5"/><use xlink:href="#x" x="646.774" y="165.5"/><use xlink:href="#y" x="653.77" y="165.5"/><use xlink:href="#z" x="660.841" y="165.5"/><use xlink:href="#A" x="668.598" y="165.5"/><use xlink:href="#B" x="675.485" y="165.5"/></g></svg>