<svg xmlns="http://www.w3.org/2000/svg" width="468.907" height="135.293" viewBox="0 -101.47 351.68 101.47"><path d="M29.038-88.28c.745 0 1.47-.146 2.12-.504l.043-1.522h-.651l-.21 1.218c-.41.2-.851.283-1.25.283-1.438 0-2.467-1.091-2.467-3.15 0-2.047 1.134-3.139 2.54-3.139.337 0 .694.074 1.072.284l.21 1.218h.65l-.042-1.523c-.703-.409-1.448-.504-2.026-.504-2.037 0-3.549 1.544-3.549 3.665 0 2.163 1.439 3.674 3.56 3.674zm2.782-5.312h.61l.23-1.344h1.607c.02.913.02 1.827.02 2.73v.514c0 .914 0 1.817-.02 2.71l-1.071.115v.43h3.17v-.43l-1.07-.116c-.021-.903-.021-1.806-.021-2.709v-.514c0-.924 0-1.838.02-2.73h1.607l.231 1.344h.609l-.084-1.87h-5.753l-.085 1.87z"/><path d="M36.664-92.536l.966.115c.02.903.02 1.806.02 2.709v.514c0 .914 0 1.827-.02 2.71l-.966.115v.43h5.439l.073-1.869h-.598l-.231 1.344h-2.678c-.02-.871-.02-1.764-.02-2.814h1.553l.137.987h.483v-2.478h-.483l-.147.998h-1.544c0-.861 0-1.775.021-2.667h2.468l.23 1.333h.6l-.074-1.858h-5.23v.43z"/><path d="M41.42-95.03l.924.105 1.859 3.086-1.88 2.845-.997.127v.43h2.404v-.43l-.819-.116 1.544-2.436 1.47 2.436-.966.116v.43h2.971v-.43l-.903-.105-1.974-3.276 1.722-2.667.924-.115v-.431h-2.404v.43l.892.126-1.396 2.226-1.344-2.246.924-.105v-.431h-2.95v.43zM54.755-97.172c.378.325.745.913.809 1.375.724.546 1.365-.976-.693-1.449l-.116.074zm2.446 6.656a8.85 8.85 0 0 1 1.355 1.649c-1.816.136-3.56.252-4.63.272.955-.86 2.005-2.152 2.583-3.044.22.031.356-.042.409-.147l-1.008-.504c-.42.987-1.501 2.782-2.278 3.538-.084.073-.41.126-.41.126l.4.83a.677.677 0 0 0 .178-.137 79.527 79.527 0 0 0 4.882-.714c.178.315.315.62.378.903.84.609 1.344-1.365-1.733-2.856l-.126.084zm1.397-2.656h-3.79c.157-.42.304-.861.42-1.323.252 0 .367-.095.409-.241l-1.102-.284c-.137.651-.294 1.26-.494 1.848h-2.96l.094.315h2.75c-.734 1.995-1.837 3.6-3.096 4.693l.126.136c1.606-1.05 2.866-2.666 3.727-4.829h5.06c.147 0 .252-.053.273-.168a15.736 15.736 0 0 0-.913-.745l-.504.598zm.903-2.866l-.462.462h-6.867a2.803 2.803 0 0 0-.126-.557l-.178.01c.052.683-.357 1.282-.767 1.513-.22.125-.377.356-.283.587.116.273.514.273.787.084.305-.21.588-.65.588-1.322h6.856a12.28 12.28 0 0 1-.556 1.217l.126.084c.43-.283.997-.808 1.312-1.175.2-.011.326-.021.4-.105l-.83-.798zm5.901-1.218c.315.294.672.819.767 1.228.661.473 1.26-.83-.651-1.302l-.116.074zm.326 1.721v.925h-2.163v-.925h2.163zm0 2.174h-2.163v-.945h2.163v.945zm0 1.27h-2.163v-.966h2.163v.966zm-2.846.82h.116c.336 0 .567-.18.567-.232v-.283h6.278c.147 0 .242-.053.273-.168-.346-.326-.903-.746-.903-.746l-.482.61h-2.31v-.967h2.95c.136 0 .23-.052.262-.168a9.94 9.94 0 0 0-.83-.682l-.45.546H66.42v-.945h2.94c.136 0 .23-.053.262-.168-.305-.294-.82-.682-.82-.682l-.45.546H66.42v-.925h3.244c.147 0 .241-.052.273-.167-.347-.326-.892-.746-.892-.746l-.473.61h-4.882l-.042-.022c.2-.252.378-.515.546-.798.23.042.367-.042.42-.147l-.966-.483c-.63 1.407-1.617 2.73-2.489 3.486l.137.137a8.016 8.016 0 0 0 1.585-1.292v3.685zm7.612.84c.147 0 .252-.053.273-.169-.357-.336-.934-.787-.934-.787l-.504.65h-2.971v-.493c.241-.031.325-.126.346-.262l-1.04-.105v.86h-4.42l.095.305h3.507c-.893.966-2.247 1.87-3.727 2.457l.094.168c1.774-.525 3.37-1.344 4.452-2.415v2.614h.136c.252 0 .557-.147.557-.23v-2.594h.084c.903 1.155 2.435 2.058 3.905 2.54a.772.772 0 0 1 .62-.598l.01-.115c-1.459-.294-3.202-.976-4.21-1.827h3.727zm2.374 1.07v-2.772h2.194v2.772h-2.194zm2.194-5.701v2.625h-2.194v-2.625h2.194zm.284-.745l-.389.43h-1.344c.252-.43.557-.976.767-1.365.21 0 .336-.084.388-.23l-1.102-.263a27.7 27.7 0 0 1-.4 1.858h-.346l-.703-.347v7.78h.115c.284 0 .536-.167.536-.241v-.871h2.194v.808h.105c.22 0 .546-.178.557-.252v-6.436c.21-.042.388-.126.44-.21l-.818-.661zm5.134-.043l-.43.463h-2.29a18 18 0 0 0 .525-1.313c.231.01.347-.094.389-.21l-1.071-.325c-.357 1.616-1.008 3.244-1.69 4.273l.157.094c.567-.567 1.092-1.333 1.533-2.205h2.562c-.074 3.591-.231 5.985-.62 6.373-.115.116-.189.137-.41.137a20.64 20.64 0 0 1-1.48-.116l-.01.19c.43.073.882.189 1.05.314.147.105.189.305.189.536.514 0 .924-.158 1.218-.515.493-.609.682-2.94.756-6.824.23-.02.357-.084.43-.168l-.808-.704zm-3.601 2.71c.525.556 1.144 1.459 1.27 2.173.756.598 1.365-1.103-1.155-2.247l-.115.073zm5.953-3.917c.463.294 1.009.83 1.187 1.302.766.43 1.186-1.081-1.092-1.407l-.095.105zm-.66 2.404c.43.273.913.767 1.07 1.187.745.43 1.176-1.05-.977-1.281l-.094.094zm2.74-.682c-1.649 4.179-1.649 4.179-1.817 4.546-.105.21-.137.22-.263.22h-.44v.232c.22.02.357.042.493.147.23.157.283.986.136 2.047.021.336.158.525.347.525.347 0 .546-.273.567-.725.042-.86-.252-1.343-.263-1.816-.01-.252.053-.588.147-.924.126-.493.882-2.919 1.27-4.2l-.178-.052zm2.277 4.504c-.304.766-.976 1.859-1.71 2.54l.125.148c.882-.567 1.69-1.46 2.132-2.142.23.032.325-.01.378-.105l-.925-.44zm2.5.21c.577.556 1.301 1.48 1.49 2.195.746.546 1.24-1.103-1.365-2.279l-.126.084zm.777-3.916v1.207h-3.119v-1.207h3.119zm-3.119 2.677v-1.155h3.119v1.155h-3.119zm3.15-4.556h-4.389l-.787-.336v2.792c0 2.09-.147 4.358-1.281 6.185l.147.115c1.659-1.816 1.795-4.41 1.795-6.31v-2.131h2.457c-.084.44-.168.913-.273 1.249H87.4l-.683-.304v4.094h.105c.252 0 .525-.157.525-.2v-.293h1.24v2.908c0 .137-.043.19-.222.19-.199 0-1.112-.064-1.112-.064v.157c.42.053.66.137.797.253.106.104.169.272.179.472.882-.095 1.018-.451 1.018-.987v-2.93h1.219v.41h.105c.21 0 .535-.157.545-.22v-3.055c.2-.043.368-.116.43-.2l-.808-.62-.367.389h-1.869a4.09 4.09 0 0 0 .62-.788c.199-.01.325-.105.367-.21l-.934-.251h3.055c.147 0 .241-.053.273-.169-.336-.325-.903-.755-.903-.755l-.483.609zm3.718 0c.745.483 1.795 1.343 2.236 1.931.86.357 1.092-1.239-2.142-2.036l-.094.105zm-.683 2.12c.809.473 1.932 1.355 2.362 2.016.861.347 1.06-1.333-2.268-2.131l-.094.116zm8.536 2.888c.147 0 .241-.053.273-.168-.378-.347-.977-.82-.977-.82l-.535.673H98.34c.367-1.355.325-3.024.346-5.092.252-.042.347-.147.378-.305l-1.123-.115c0 2.289.084 4.084-.326 5.512h-4.819l.094.315h4.62c-.556 1.617-1.827 2.74-4.735 3.559l.095.21c2.803-.661 4.241-1.596 4.987-2.887 1.879.871 3.223 2.016 3.748 2.771.892.473 1.312-1.564-3.643-2.96.115-.22.21-.441.293-.693h3.812zm8.39-2.058v1.323h-4.085v-1.323h4.084zm-4.085 2.971v-1.333h4.084v1.333h-4.084zm4.987-5.102h-3.979c.2-.389.368-.778.514-1.155.284.02.379-.042.42-.168l-1.091-.357a11.822 11.822 0 0 1-.63 1.68h-3.308l.095.304h3.066c-.746 1.48-1.827 2.94-3.234 3.948l.105.126a9.354 9.354 0 0 0 2.383-1.922v5.512h.116c.325 0 .556-.178.556-.241v-2.31h4.084v1.46c0 .157-.041.23-.24.23-.221 0-1.324-.084-1.324-.084v.169c.483.062.746.157.913.272.148.105.2.284.242.504.998-.094 1.102-.44 1.102-.997v-4.683c.231-.042.42-.136.504-.23l-.934-.694-.378.452h-3.843l-.2-.084c.358-.462.662-.945.925-1.428h5.323c.147 0 .23-.052.262-.168-.357-.336-.934-.777-.934-.777l-.514.64zm7.876 1.144h-1.9v-1.69h1.9v1.69zm2.561-2.005h-8.031l.094.315h2.835v1.69h-1.523l-.745-.357v7.202h.115c.294 0 .557-.178.557-.262v-6.268h1.596c-.032 1.428-.252 3.097-1.365 4.515l.136.126c1.113-.945 1.565-2.163 1.754-3.318.357.567.703 1.28.734 1.858.589.546 1.166-.86-.692-2.194.042-.347.063-.672.063-.987h1.91c-.01 1.47-.167 3.213-1.343 4.63l.147.126c1.165-.945 1.585-2.194 1.742-3.38.536.692 1.061 1.585 1.155 2.309.683.588 1.197-1.06-1.112-2.646.031-.357.041-.703.052-1.039h1.984v5.47c0 .178-.063.252-.294.252-.273 0-1.596-.094-1.596-.094v.167c.567.063.882.158 1.082.273.168.095.231.263.283.473 1.082-.105 1.208-.462 1.208-.998v-5.417c.21-.042.388-.126.462-.2l-.893-.682-.356.441h-1.88v-1.69h3.17c.148 0 .253-.053.274-.168-.368-.347-.977-.809-.977-.809l-.546.662zm6.836 2.131v6.74h.136c.263 0 .578-.157.578-.252v-6.079c.262-.031.357-.136.388-.283l-1.102-.126zm.472-2.268c.83 1.711 2.32 3.234 4.148 4.305.105-.284.304-.525.63-.61l.01-.157c-1.942-.83-3.58-2.194-4.599-3.653.284-.032.389-.084.431-.21l-1.207-.315c-.672 1.669-2.51 3.748-4.379 4.987l.074.157c2.12-1.07 3.969-2.93 4.893-4.504zm7.603 3.643a.656.656 0 1 0 0-1.312.655.655 0 0 0-.672.661c0 .347.283.651.672.651zm0 4.147a.656.656 0 1 0 0-1.312.655.655 0 0 0-.672.662c0 .346.283.65.672.65zM143.89-92.962l.105.357h9.134c.168 0 .284-.042.315-.168a25.19 25.19 0 0 0-1.228-1.06l-.662.871h-7.664zm17.545-3.391v1.144h-4.494v-1.144h4.494zm-4.494 2.614v-1.176h4.494v1.176h-4.494zm0 .315h4.494v.462h.115c.231 0 .588-.168.599-.231v-3.024c.21-.042.378-.126.441-.21l-.861-.661-.399.43h-4.336l-.756-.346v4.136h.115c.284 0 .588-.157.588-.22v-.336zm2.583 2.992h3.202c.147 0 .252-.052.284-.168-.357-.325-.935-.787-.935-.787l-.504.65h-2.047v-1.459h4.116c.157 0 .252-.052.273-.168-.347-.325-.924-.787-.924-.787l-.515.65h-8.084l.084.305h4.336v3.549c-.84-.178-1.428-.588-1.869-1.46.189-.367.336-.734.452-1.102.231.01.346-.063.399-.21l-1.092-.262c-.284 1.386-.987 2.97-2.415 3.926l.105.137a5.533 5.533 0 0 0 2.436-2.268c.714 1.659 1.785 2.016 3.706 2.016h3.087c.01-.263.147-.473.399-.504v-.157c-.819.02-2.667.02-3.455.02-.377 0-.724-.01-1.039-.031v-1.89zM172.16-88.28h-1.71v-3.979h3.002c.157 0 .273-.052.304-.168-.556-.472-1.47-1.155-1.47-1.155l-.818 1.03h-1.019v-3.508h3.37c.158 0 .273-.052.305-.167-.578-.483-1.533-1.208-1.533-1.208l-.85 1.082h-6.552l.084.293h3.496v3.507h-3.213l.084.294h3.13v3.98h-3.99l.083.294h9.418c.168 0 .284-.053.315-.169-.588-.493-1.564-1.228-1.564-1.228l-.872 1.102zm9.765-6.782v1.333h-2.813v-1.333h2.813zm-6.614 1.49c.766-.198 1.543-.46 2.257-.818v1.638h.294c.788 0 1.25-.4 1.25-.525v-.158h2.813v.515h.273c.515 0 1.281-.284 1.281-.368v-1.522c.231-.053.357-.147.42-.231l-1.407-1.05-.672.735h-2.561l-.095-.031c.347-.284.651-.588.903-.924h4.357c.158 0 .273-.053.294-.169-.483-.42-1.28-1.007-1.28-1.007l-.704.882h-7.14l.085.294h2.267c-.472.966-1.532 1.984-2.677 2.646l.042.094zM177.6-88.5v-1.921h.787v1.92h-.787zm1.28-2.856l-.598.64h-.546l-.367-.136c.283-.41.514-.84.672-1.28h1.942c.158 0 .263-.053.294-.169-.441-.388-1.165-.924-1.165-.924l-.64.798h-3.36l.083.294h1.176c-.157 1.092-.64 2.363-1.302 3.255l.074.094c.41-.23.787-.514 1.144-.829v2.142h.242c.672 0 1.07-.294 1.07-.389v-.346h.788v.672h.242c.43 0 1.113-.231 1.123-.315v-2.383a.663.663 0 0 0 .378-.2l-1.25-.924zm4.431.935v1.92h-1.018v-1.92h1.018zm1.554-1.712c.147 0 .263-.052.294-.168a28.73 28.73 0 0 0-1.218-.966l-.672.84h-2.97l.083.294h.767c-.169 1.092-.672 2.373-1.355 3.255l.074.105c.388-.21.756-.472 1.091-.756v2.069h.242c.683 0 1.092-.305 1.092-.4v-.346h1.018v.672h.242c.44 0 1.123-.241 1.134-.315v-2.383c.2-.032.325-.126.378-.2l-1.25-.934-.609.65h-.777l-.283-.104c.294-.42.535-.861.714-1.313h2.005zM186.25-90.568c.085-.032.148-.105.21-.22 1.04-.316 2.017-.673 2.542-.862l-.032-.168c-.924.137-1.847.252-2.477.326.913-.914 1.91-2.216 2.435-3.13.21.032.347-.052.4-.146l-.956-.514c-.137.336-.347.787-.599 1.238-.556.021-1.092.021-1.49.021a13.904 13.904 0 0 0 1.784-2.53c.22.021.336-.073.389-.168l-.998-.44c-.241.808-.945 2.34-1.511 2.991-.064.053-.253.105-.253.105l.358.914a.574.574 0 0 0 .22-.179c.462-.105.924-.241 1.302-.346-.462.798-1.008 1.617-1.48 2.09-.085.073-.284.104-.284.104l.44.914zm2.647.493c-1.208.389-2.478.745-3.066.871l.462.914a.373.373 0 0 0 .22-.273 33.396 33.396 0 0 0 2.436-1.365l-.052-.147zm5.323-5.46v1.397h-4.158v-1.397h4.158zm0 1.712v.504h.094c.21 0 .525-.147.536-.21v-1.942c.157-.021.294-.095.346-.169l-.724-.545-.336.335h-1.596c.399-.115.483-1.018-.956-1.47l-.115.085c.304.304.651.85.704 1.291a.398.398 0 0 0 .189.094h-2.174l-.756-.325v2.877c0 1.921-.136 3.958-1.27 5.585l.157.116c1.607-1.596 1.743-3.927 1.743-5.712v-.514h4.158zm-.672 3.129v-1.502h.86v1.502h-.86zm-1.365 0v-1.502h.85v1.502h-.85zm-1.386 0v-1.502h.871v1.502h-.87zm3.832-2.174l-.315.357h-3.39l-.715-.304v5.155h.095c.283 0 .493-.158.493-.21v-2.51h.871v2.258h.085c.251 0 .43-.126.43-.178v-2.08h.85v1.849h.085c.251 0 .43-.137.43-.18v-1.669h.86v1.849c0 .126-.03.178-.167.178s-.693-.052-.693-.052v.167c.294.043.43.105.525.2.094.094.126.241.147.41.703-.074.798-.337.798-.84v-3.644c.178-.031.325-.115.378-.189l-.767-.567zm6.91 2.247h-5.103l.084.315h6.194c.148 0 .253-.052.284-.168-.368-.346-.945-.798-.945-.798l-.515.651zm1.974-1.785h-4.442c.095-.42.21-.934.294-1.438h4.987c.147 0 .242-.053.273-.168-.346-.326-.892-.746-.892-.746l-.494.599h-3.81c.083-.399.146-.787.188-1.081.252.01.357-.095.4-.221l-1.03-.284c-.084.788-.378 2.32-.608 3.234a2.059 2.059 0 0 0-.431.21l.777.599.367-.389h4.515c-.147 1.796-.441 3.234-.788 3.507-.126.105-.23.136-.44.136-.252 0-1.145-.083-1.66-.136l-.01.179c.452.073.956.189 1.134.304.168.105.22.294.22.483.473.01.893-.116 1.187-.378.525-.43.871-1.984 1.029-4.01.22-.022.357-.074.43-.158l-.787-.651-.41.41zm1.574-4.44l-.451.461h-6.825a3.75 3.75 0 0 0-.136-.514l-.179.01c.074.724-.283 1.386-.703 1.638-.231.126-.378.346-.273.577.126.263.514.253.777.053.315-.21.609-.704.556-1.46h6.825c-.116.431-.305 1.019-.452 1.376l.137.074a9.844 9.844 0 0 0 1.176-1.313c.189-.01.315-.02.388-.105l-.84-.798zm2.899 7.485v-2.772h2.194v2.772h-2.194zm2.194-5.701v2.625h-2.194v-2.625h2.194zm.284-.745l-.389.43h-1.344c.252-.43.557-.976.767-1.365.21 0 .336-.084.388-.23l-1.102-.263a27.7 27.7 0 0 1-.4 1.858h-.346l-.703-.347v7.78h.115c.284 0 .536-.167.536-.241v-.871h2.194v.808h.105c.22 0 .546-.178.557-.252v-6.436c.21-.042.388-.126.44-.21l-.818-.661zm5.134-.043l-.43.463h-2.29a18 18 0 0 0 .526-1.313c.23.01.346-.094.388-.21l-1.071-.325c-.357 1.616-1.008 3.244-1.69 4.273l.157.094c.567-.567 1.092-1.333 1.533-2.205h2.562c-.074 3.591-.231 5.985-.62 6.373-.115.116-.189.137-.41.137-.251 0-1.007-.063-1.48-.116l-.01.19c.43.073.882.189 1.05.314.147.105.189.305.189.536.514 0 .924-.158 1.218-.515.493-.609.682-2.94.756-6.824.23-.02.357-.084.43-.168l-.808-.704zm-3.601 2.71c.525.556 1.144 1.459 1.27 2.173.756.598 1.365-1.103-1.155-2.247l-.115.073zM222.77-88.311c.756 0 1.46-.294 2.026-.798l-.388-.556c-.42.356-.945.64-1.575.64-1.176 0-1.964-.787-1.964-1.953 0-1.176.809-1.974 1.985-1.974.535 0 .976.22 1.396.588l.43-.556a2.593 2.593 0 0 0-1.858-.745c-1.543 0-2.845.976-2.845 2.687 0 1.69 1.197 2.667 2.793 2.667zm4.704 2.152c1.648 0 2.142-.892 2.142-2.152v-5.229h-3.234v.704h2.373v4.588c0 .871-.273 1.386-1.292 1.386-.388 0-.798-.105-1.165-.284l-.284.64c.41.2.924.347 1.46.347zm1.617-8.451c.388 0 .693-.263.693-.672 0-.4-.305-.673-.693-.673-.389 0-.693.274-.693.673 0 .409.304.672.693.672zm3.759 6.173h.86v-1.386l1.208-1.186 1.88 2.572h.966l-2.31-3.097 2.036-2.006h-.986l-2.751 2.688h-.042v-5.06h-.861v7.475zm8.547.126c1.218 0 2.31-1.019 2.31-2.761 0-1.575-.746-2.593-2.121-2.593-.599 0-1.25.304-1.712.776h-.031l.032-.986v-2.037h-.861v7.475h.692l.074-.567h.031c.483.43 1.092.693 1.586.693zm-.137-.724c-.367 0-.903-.169-1.385-.599v-2.54c.524-.526 1.05-.767 1.5-.767 1.02 0 1.44.756 1.44 1.88 0 1.259-.662 2.026-1.555 2.026zm6.227.724c1.344 0 2.52-.976 2.52-2.667 0-1.711-1.176-2.687-2.52-2.687s-2.52.976-2.52 2.687c0 1.69 1.176 2.667 2.52 2.667zm0-.714c-.977 0-1.627-.787-1.627-1.953 0-1.176.65-1.974 1.627-1.974.976 0 1.627.798 1.627 1.974 0 1.166-.65 1.953-1.627 1.953zm6.3.714c1.344 0 2.52-.976 2.52-2.667 0-1.711-1.176-2.687-2.52-2.687s-2.52.976-2.52 2.687c0 1.69 1.176 2.667 2.52 2.667zm0-.714c-.977 0-1.627-.787-1.627-1.953 0-1.176.65-1.974 1.627-1.974.976 0 1.627.798 1.627 1.974 0 1.166-.65 1.953-1.627 1.953zm4.263.588h.86v-1.386l1.208-1.186 1.88 2.572h.966l-2.31-3.097 2.036-2.006h-.986l-2.751 2.688h-.042v-5.06h-.861v7.475zM269.652-97.13c.546.44 1.187 1.207 1.365 1.826.756.504 1.25-1.123-1.25-1.91l-.115.084zm3.181 2.499c-.367 1.49-1.039 2.803-2.057 3.905-1.113-.997-1.943-2.3-2.415-3.905h4.472zm2.405 0c.147 0 .252-.053.283-.169-.367-.346-.976-.829-.976-.829l-.536.683h-8.032l.095.315h2.058c.42 1.795 1.165 3.233 2.215 4.356-1.113 1.05-2.572 1.901-4.43 2.52l.083.158c1.995-.525 3.55-1.28 4.746-2.278 1.082 1.029 2.468 1.764 4.084 2.257.147-.357.43-.557.777-.577l.032-.116c-1.69-.41-3.181-1.06-4.389-2.005 1.208-1.166 1.995-2.604 2.457-4.315h1.533zm9.723-1.954c-.242.893-.588 1.88-.882 2.489l.168.094c.472-.514.987-1.28 1.386-2.015.22.01.346-.074.378-.2l-1.05-.368zm-4.714.18c.378.576.819 1.48.882 2.193.672.62 1.354-.923-.746-2.257l-.136.063zm-1.407 1.92h1.354c.147 0 .252-.052.273-.168a9.776 9.776 0 0 0-.798-.745l-.451.598h-.378v-2.005c.262-.042.336-.136.367-.294l-1.04-.126v2.425h-1.69l.085.315h1.459c-.315 1.565-.861 3.13-1.722 4.326l.158.147c.735-.787 1.29-1.69 1.71-2.688v5.103h.137c.252 0 .536-.158.536-.252v-5.05c.336.44.724 1.05.85 1.501.64.483 1.176-.787-.85-1.732v-1.355zm6.352.861l-.378.42h-1.46v-3.506c.242-.053.358-.158.368-.305l-1.05-.105v3.916h-2.3l.095.315h4.452v1.922h-4.294l.094.315h4.2v2.016h-4.82l.095.315h4.725v.566h.105c.22 0 .556-.178.567-.241v-4.767c.21-.042.388-.126.44-.21l-.84-.65zm3.266-3.128c.504.388 1.144 1.08 1.344 1.617.735.44 1.134-1.05-1.24-1.712l-.104.095zm-1.355 4.997c1.701-.556 3.234-1.428 4.263-2.52v2.1h.137c.252 0 .556-.157.556-.23v-1.723c1.082.546 2.54 1.428 3.181 2.027.914.241.914-1.334-3.181-2.247v-.21h4.021c.147 0 .242-.052.273-.168-.357-.325-.913-.745-.913-.745l-.483.608h-2.026a18.5 18.5 0 0 0 1.774-1.512c.21.043.367 0 .42-.094l-.913-.535c-.41.64-1.061 1.522-1.607 2.141h-.546v-1.994c.252-.032.336-.126.357-.273l-1.05-.116v2.383h-4.284l.095.305h3.517c-.882 1.029-2.226 1.984-3.685 2.635l.094.168zm9.156 1.134c.147 0 .252-.052.283-.168-.357-.325-.924-.777-.924-.777l-.514.64h-3.297c.042-.22.074-.43.094-.671.231-.021.347-.137.368-.273l-1.06-.116c-.021.389-.053.735-.116 1.06h-4.168l.094.305h4.011c-.336 1.218-1.27 2.068-4.137 2.782l.084.21c3.539-.682 4.452-1.637 4.767-2.992h.126c.725 1.711 2.09 2.562 4.168 3.024.084-.336.284-.567.588-.63l.01-.116c-2.078-.252-3.716-.902-4.525-2.278h4.148zm1.69 4.242c1.093-.525 1.44-1.533 1.44-2.31 0-.567-.284-.987-.778-.987-.43 0-.682.305-.682.64 0 .536.514.715.945.872-.042.451-.284 1.07-1.092 1.522l.168.263zM306.224-89.455l.094.315h9.124c.147 0 .263-.053.284-.169-.43-.388-1.113-.913-1.113-.913l-.61.767h-7.779zm.976-5.838l.084.315h7.119c.147 0 .262-.052.294-.168-.42-.378-1.082-.882-1.082-.882l-.577.735H307.2zm16.537-1.06v1.144h-4.493v-1.144h4.493zm-4.493 2.614v-1.176h4.493v1.176h-4.493zm0 .315h4.493v.462h.116c.231 0 .588-.168.599-.231v-3.024c.21-.042.377-.126.44-.21l-.86-.661-.4.43h-4.336l-.756-.346v4.136h.116c.283 0 .588-.157.588-.22v-.336zm2.582 2.992h3.203c.147 0 .252-.052.283-.168-.357-.325-.934-.787-.934-.787l-.504.65h-2.048v-1.459h4.116c.158 0 .252-.052.273-.168-.346-.325-.924-.787-.924-.787l-.514.65h-8.085l.084.305h4.337v3.549c-.84-.178-1.428-.588-1.87-1.46.19-.367.337-.734.452-1.102.231.01.347-.063.4-.21l-1.093-.262c-.283 1.386-.987 2.97-2.415 3.926l.105.137a5.531 5.531 0 0 0 2.436-2.268c.714 1.659 1.785 2.016 3.707 2.016h3.086c.01-.263.147-.473.4-.504v-.157c-.82.02-2.668.02-3.455.02-.378 0-.724-.01-1.04-.031v-1.89zM329.982-94.19v-2.195h3.874v2.195h-3.874zm6.604 3.57c.158 0 .273-.053.305-.169a29.7 29.7 0 0 0-1.407-1.123l-.777.997h-2.341c.094-.462.136-.966.167-1.512h3.602c.147 0 .262-.052.294-.168-.378-.336-.945-.777-1.176-.965.084-.032.136-.064.147-.085v-2.498c.22-.042.346-.137.41-.22l-1.397-1.05-.662.734h-3.674l-1.617-.609v4.273h.22c.62 0 1.302-.336 1.302-.472v-.41h3.874v.578h.263c.273 0 .62-.074.882-.158l-.578.756h-6.656l.084.294h2.93c-.011.546-.011 1.05-.085 1.512h-3.57l.084.294h3.434c-.273 1.229-1.103 2.195-3.665 3.045l.064.136c3.653-.661 4.829-1.7 5.249-3.18h.157c.315 1.27 1.176 2.613 3.318 3.18.042-.913.452-1.301 1.229-1.48v-.136c-2.489-.221-3.853-.767-4.347-1.565h3.937zm1.24-6.3c.378.535.724 1.301.787 2.026 1.313 1.06 2.657-1.533-.703-2.079l-.084.053zm2.667 1.249c-1.911 4.326-1.911 4.326-2.163 4.735-.126.22-.168.22-.346.22h-.484v.18c.221.02.41.073.557.178.252.157.283 1.176.063 2.204.126.41.462.525.735.525.64 0 1.07-.388 1.092-.934.031-.924-.494-1.187-.515-1.785-.01-.273.063-.682.147-1.05.116-.609.714-2.96 1.071-4.23l-.157-.043zm4.052 4.252a5.548 5.548 0 0 1-.976 1.491 3.454 3.454 0 0 1-1.082-1.018c.169-.147.326-.315.484-.473h1.574zm.809-1.05l-.83.756h-1.301c.167-.2.315-.388.451-.588.273.021.357-.02.399-.136l-1.522-.42c.252-.19.483-.389.692-.578.295.053.379.01.431-.105l-1.438-.514h4.913c.158 0 .273-.053.305-.168-.473-.452-1.281-1.113-1.281-1.113l-.714.987h-1.082v-1.28h2.3c.147 0 .262-.053.294-.169a29.214 29.214 0 0 0-1.166-1.018l-.65.892h-.777v-1.029c.293-.042.367-.147.388-.294l-1.848-.147v1.47h-2.11l.084.294h2.026v1.281h-2.446l.084.294h1.27c-.41.86-1.165 1.91-1.806 2.51l.074.073c.682-.242 1.386-.64 2.026-1.071-.357 1.029-.987 2.152-1.67 2.814l.085.073a7.305 7.305 0 0 0 1.732-1.092c.2.546.441.997.735 1.376-.924.797-2.12 1.417-3.549 1.826l.053.126c1.659-.189 3.055-.609 4.178-1.239.725.588 1.649.945 2.772 1.218.147-.735.536-1.228 1.145-1.417v-.126c-1.008-.052-1.985-.168-2.835-.43a6.444 6.444 0 0 0 1.428-1.722c.262-.021.367-.053.44-.168l-1.28-1.166zm-.987-1.323c.661.441 1.49 1.24 1.858 1.932 1.344.525 1.817-2.037-1.785-2.015l-.073.083zM12.857-79.669c.157 0 .283-.052.315-.168a37.021 37.021 0 0 0-1.554-1.218l-.85 1.092H5.339l.084.294h7.434zm-1.113 2.614H4.31l.083.294H8.29c-.473 1.176-1.775 3.003-2.625 3.476-.157.105-.515.178-.515.178l.525 1.91a.825.825 0 0 0 .389-.262c2.457-.44 4.441-.871 5.816-1.217.19.44.347.881.452 1.322 1.764 1.334 2.971-2.383-1.984-4.042l-.095.063c.525.672 1.05 1.47 1.46 2.3-2.11.031-4.137.052-5.408.042 1.313-.683 2.877-1.87 3.654-2.762.22.021.357-.052.4-.157l-1.618-.85h5.145c.157 0 .283-.053.315-.169-.588-.504-1.586-1.249-1.586-1.249l-.871 1.123zM15.346-74.188c.084-.032.147-.105.21-.22 1.04-.316 2.016-.673 2.54-.862l-.03-.168c-.925.137-1.849.252-2.479.326.914-.914 1.911-2.216 2.436-3.13.21.032.347-.052.4-.146l-.956-.514c-.137.336-.347.787-.599 1.238-.556.021-1.092.021-1.49.021a13.904 13.904 0 0 0 1.784-2.53c.22.021.336-.073.389-.168l-.998-.44c-.241.808-.945 2.34-1.511 2.991-.064.053-.253.105-.253.105l.358.914a.574.574 0 0 0 .22-.179c.462-.105.924-.241 1.302-.346-.462.798-1.008 1.617-1.48 2.09-.085.073-.284.104-.284.104l.44.914zm2.646.493c-1.208.389-2.478.745-3.066.871l.462.914a.373.373 0 0 0 .22-.273 33.396 33.396 0 0 0 2.436-1.365l-.052-.147zm5.323-5.46v1.397h-4.158v-1.397h4.158zm0 1.712v.504h.094c.21 0 .525-.147.536-.21v-1.942c.157-.021.294-.095.346-.169l-.724-.545-.336.335h-1.596c.399-.115.483-1.018-.956-1.47l-.115.085c.304.304.651.85.703 1.291a.398.398 0 0 0 .19.094h-2.174l-.756-.325v2.877c0 1.921-.136 3.958-1.27 5.585l.157.116c1.607-1.596 1.743-3.927 1.743-5.712v-.514h4.158zm-.672 3.129v-1.502h.86v1.502h-.86zm-1.365 0v-1.502h.85v1.502h-.85zm-1.386 0v-1.502h.871v1.502h-.87zm3.832-2.174l-.315.357h-3.39l-.715-.304v5.155h.095c.283 0 .493-.158.493-.21V-74h.871v2.258h.084c.252 0 .43-.126.43-.178V-74h.851v1.849h.084c.252 0 .43-.137.43-.18V-74h.862v1.849c0 .126-.032.178-.168.178-.137 0-.693-.052-.693-.052v.167c.294.043.43.105.525.2.094.094.126.241.147.41.703-.074.798-.337.798-.84v-3.644c.178-.031.325-.115.378-.189l-.767-.567zm6.91 2.247H25.53l.084.315h6.194c.147 0 .253-.052.284-.168-.368-.346-.945-.798-.945-.798l-.515.651zm1.974-1.785h-4.442c.095-.42.21-.934.294-1.438h4.987c.147 0 .242-.053.273-.168-.346-.326-.892-.746-.892-.746l-.494.599h-3.81c.083-.399.146-.787.188-1.081.252.01.357-.095.4-.221l-1.03-.284c-.084.788-.378 2.32-.609 3.234a2.06 2.06 0 0 0-.43.21l.777.599.367-.389h4.515c-.147 1.796-.441 3.234-.788 3.507-.126.105-.23.136-.44.136-.253 0-1.145-.083-1.66-.136l-.01.179c.452.073.956.189 1.134.304.168.105.22.294.22.483.473.01.893-.116 1.187-.378.525-.43.871-1.984 1.029-4.01.22-.022.357-.074.43-.158l-.787-.651-.41.41zm1.574-4.44l-.451.461h-6.825a3.734 3.734 0 0 0-.136-.514l-.179.01c.074.724-.283 1.386-.703 1.638-.231.126-.378.346-.273.577.126.263.514.253.777.053.315-.21.609-.704.556-1.46h6.825c-.116.431-.305 1.019-.452 1.376l.137.074a9.844 9.844 0 0 0 1.176-1.313c.189-.01.315-.02.388-.105l-.84-.798zm2.899 7.485v-2.772h2.194v2.772h-2.194zm2.194-5.701v2.625h-2.194v-2.625h2.194zm.284-.745l-.389.43h-1.344c.252-.43.557-.976.767-1.365.21 0 .336-.084.388-.231l-1.102-.262a27.7 27.7 0 0 1-.4 1.858h-.346l-.703-.347v7.78h.115c.284 0 .536-.167.536-.241v-.871h2.194v.808h.105c.22 0 .546-.178.556-.252v-6.436c.21-.042.389-.126.441-.21l-.818-.661zm5.134-.043l-.43.463h-2.29c.19-.431.368-.861.525-1.313.231.01.347-.094.389-.21l-1.071-.325c-.357 1.616-1.008 3.244-1.69 4.273l.157.094c.567-.567 1.092-1.333 1.533-2.205h2.562c-.074 3.591-.231 5.985-.62 6.373-.115.116-.189.137-.41.137-.251 0-1.007-.063-1.48-.116l-.01.19c.43.073.882.189 1.05.314.147.105.189.305.189.536.514 0 .924-.158 1.218-.515.493-.609.682-2.94.756-6.824.23-.02.357-.084.43-.168l-.808-.704zm-3.601 2.71c.525.556 1.144 1.459 1.27 2.173.756.598 1.365-1.103-1.155-2.247l-.115.073zM51.841-71.931c.893 0 1.628-.357 2.058-.798v-2.898h-2.184v.725h1.376v1.795c-.263.252-.714.41-1.197.41-1.355 0-2.121-1.093-2.121-2.825 0-1.711.85-2.782 2.142-2.782.661 0 1.07.273 1.407.63l.493-.556c-.389-.41-.987-.84-1.9-.84-1.785 0-3.055 1.343-3.055 3.57 0 2.246 1.249 3.569 2.981 3.569zm3.801-.126h2.11c1.544 0 2.594-.662 2.594-2.016 0-.945-.588-1.49-1.596-1.648v-.042c.82-.21 1.208-.819 1.208-1.502 0-1.207-.956-1.68-2.363-1.68h-1.953v6.888zm.872-3.99v-2.163h.976c1.06 0 1.607.273 1.607 1.019 0 .766-.473 1.144-1.649 1.144h-.934zm0 3.255v-2.52h1.113c1.207 0 1.858.347 1.858 1.197 0 .935-.682 1.323-1.858 1.323h-1.113zm7.539.86c.472 0 .85-.356.85-.881 0-.535-.378-.892-.85-.892s-.85.357-.85.892c0 .525.377.882.85.882zm6.783 0c.756 0 1.46-.293 2.026-.797l-.388-.556c-.42.356-.945.64-1.575.64-1.176 0-1.963-.787-1.963-1.953 0-1.176.808-1.974 1.984-1.974.535 0 .976.22 1.396.588l.43-.556a2.593 2.593 0 0 0-1.858-.745c-1.543 0-2.845.976-2.845 2.687 0 1.69 1.197 2.667 2.793 2.667zm5.25 0c.724 0 1.449-.377 2.016-.818h.031l.074.693h.703v-3.129c0-1.27-.672-2.1-2.068-2.1-.893 0-1.754.4-2.268.735l.336.588c.472-.294 1.123-.609 1.785-.609.987 0 1.333.588 1.354 1.281-2.635.21-3.696.767-3.696 1.911 0 .914.778 1.449 1.733 1.449zm.23-.692c-.587 0-1.123-.241-1.123-.819 0-.672.672-1.102 2.856-1.28v1.343c-.577.483-1.155.756-1.732.756zm4.464 2.72h.86v-1.723l-.042-.965h.032c.452.42 1.05.66 1.522.66 1.228 0 2.32-1.018 2.32-2.75 0-1.585-.734-2.603-2.11-2.603-.63 0-1.291.325-1.764.776h-.031l-.074-.65h-.713v7.254zm2.225-2.751c-.346 0-.882-.169-1.364-.599v-2.54c.524-.526 1.05-.767 1.5-.767 1.02 0 1.44.756 1.44 1.88 0 1.259-.662 2.026-1.576 2.026zM88.024-71.196c.809 0 1.47-.672 1.47-1.48 0-.809-.661-1.47-1.47-1.47s-1.48.661-1.48 1.47c0 .808.672 1.48 1.48 1.48zm0-2.594c.62 0 1.113.494 1.113 1.114a1.118 1.118 0 1 1-2.237 0c0-.62.494-1.114 1.124-1.114zM101.055-80.73c.44.41.955 1.114 1.05 1.68.713.525 1.29-1.007-.946-1.774l-.105.095zm-2.048 7.885c1.533-.556 2.667-1.312 3.486-2.288.766.724 1.438 1.46 1.795 2.047.756.41.977-.735-1.407-2.551.546-.809.914-1.733 1.155-2.793h1.25c.157 0 .241-.053.273-.168-.336-.326-.882-.735-.882-.735l-.483.588h-5.145l.084.315h4.116c-.168.882-.441 1.7-.872 2.425-.65-.462-1.48-.955-2.488-1.48l-.136.126a27.883 27.883 0 0 1 2.31 1.837c-.714 1.029-1.743 1.869-3.14 2.53l.084.147zm-2.53-7.769c.504.588 1.176 1.512 1.375 2.194.746.525 1.26-1.029-1.249-2.267l-.126.073zm1.659 3.696c.283-.042.43-.116.504-.2l-.893-.745-.409.535h-1.376l.063.305h1.47v3.664c-.44.325-1.134.924-1.595 1.25l.619.797a.202.202 0 0 0 .063-.241c.357-.504.945-1.25 1.186-1.564.095-.148.2-.168.336-.011.987 1.24 2.005 1.606 4 1.606h3.077c.042-.304.22-.524.535-.588v-.136c-1.228.052-2.205.052-3.401.052-1.953 0-3.098-.199-4.053-1.228-.053-.042-.084-.073-.126-.094v-3.402zm8.715 2.005a.392.392 0 0 0 .241-.241 89.393 89.393 0 0 0 4.6-1.313l-.043-.178-1.816.336v-2.09h1.596c.147 0 .241-.052.272-.167a21.855 21.855 0 0 0-.818-.756l-.452.63h-.598v-1.754c.262-.042.356-.136.378-.294l-1.04-.105v4.651c-.399.063-.766.126-1.113.19v-3.256c.22-.031.315-.115.336-.241l-.976-.105v3.696c-.41.063-.746.115-.998.136l.43.861zm1.302.756h6.425c.147 0 .252-.052.273-.157a16.086 16.086 0 0 0-.924-.777l-.493.63h-5.365l.084.304zm6.3 2.289h-7.728l.095.304h8.85c.147 0 .242-.052.273-.157a15.376 15.376 0 0 0-.955-.798l-.536.651zm1.301-5.722h-.147c-.115.567-.23 1.123-.304 1.27-.053.095-.105.116-.22.126-.137.021-.505.021-.977.021h-1.04c-.409 0-.462-.063-.462-.241v-1.743c.966-.21 1.974-.588 2.604-.903.252.063.42.063.504-.042l-.86-.609c-.463.389-1.386.945-2.248 1.312v-2.068c.21-.031.316-.136.326-.262l-.997-.116v4.578c0 .546.188.724 1.028.724h1.124c1.648 0 1.984-.115 1.984-.44 0-.127-.052-.21-.294-.295l-.02-1.312zm9.345 5.165h-2.95v-6.561h3.517c.137 0 .252-.053.284-.169a18.937 18.937 0 0 0-1.008-.829l-.546.683h-6.678l.095.315h3.611v6.561h-4.42l.084.315h9.282c.157 0 .241-.052.273-.168-.378-.346-.998-.829-.998-.829l-.546.682zm4.936-8.43c-.62 2.036-1.649 4.042-2.635 5.291l.146.116c.504-.462.998-1.029 1.45-1.67v5.88h.125c.252 0 .536-.179.557-.231v-6.121c.178-.032.283-.105.315-.19l-.462-.167c.44-.724.83-1.523 1.155-2.352.241.021.357-.063.41-.178l-1.061-.378zm5.732 2.11h-3.338c.272-.483.535-.997.756-1.533.23.01.367-.063.409-.178l-1.06-.389c-.557 1.806-1.491 3.58-2.373 4.683l.147.115c.714-.609 1.375-1.448 1.953-2.404h.819v7.213h.105c.367 0 .587-.179.587-.22v-2.552h2.888c.136 0 .241-.052.273-.168-.357-.325-.924-.766-.924-.766l-.494.63h-1.743v-1.943h2.688c.147 0 .252-.052.284-.168-.336-.315-.882-.735-.882-.735l-.473.599h-1.617v-1.89h3.16c.137 0 .242-.053.274-.158-.357-.325-.935-.776-.935-.776l-.504.64zm5.177 2.52c1.817-.85 2.026-2.215 2.026-3.181v-.61h2.08v2.29c0 .44.094.608.703.608h.577c1.03 0 1.281-.136 1.281-.409 0-.147-.084-.21-.294-.273l-.042-.01h-.094a.534.534 0 0 1-.179.03c-.042.011-.105.011-.157.011h-.914c-.189 0-.22-.031-.22-.146v-1.995c.189-.021.325-.085.399-.158l-.767-.661-.388.399h-1.859l-.797-.347v1.28c0 1.02-.21 2.122-1.47 3.035l.115.137zm-2.268-4.41c.525.325 1.176.935 1.386 1.439.809.409 1.166-1.208-1.28-1.544l-.106.105zm-.703 2.362c.483.294 1.04.851 1.207 1.323.777.42 1.187-1.123-1.102-1.417l-.105.094zm3.328-1.28c-2.12 4.756-2.12 4.756-2.33 5.134-.106.22-.137.23-.274.23h-.462v.232c.231.02.378.042.515.147.252.157.315.976.157 2.047.032.325.158.525.357.525.357 0 .557-.273.578-.725.042-.882-.263-1.333-.273-1.805-.01-.273.073-.62.178-.956.168-.556 1.197-3.296 1.743-4.766l-.189-.063zm4.389 3.643a6.945 6.945 0 0 1-1.606 2.362 5.384 5.384 0 0 1-1.68-2.362h3.286zm.462-.746l-.462.43h-4.494l.095.316h.882c.325 1.134.818 2.026 1.49 2.74-.924.756-2.057 1.344-3.443 1.775l.084.178c1.522-.347 2.761-.882 3.737-1.596.809.724 1.848 1.208 3.098 1.554.105-.346.357-.567.661-.62l.021-.115c-1.27-.231-2.383-.63-3.275-1.218a7.51 7.51 0 0 0 1.91-2.593c.263-.01.378-.042.462-.137l-.766-.714zm9.586-.43v1.323h-4.084v-1.323h4.084zm-4.084 2.971v-1.333h4.084v1.333h-4.084zm4.987-5.102h-3.979c.2-.389.368-.778.514-1.155.284.02.379-.042.42-.168l-1.091-.357a11.822 11.822 0 0 1-.63 1.68h-3.308l.095.304h3.066c-.746 1.48-1.827 2.94-3.234 3.948l.105.126a9.35 9.35 0 0 0 2.383-1.922v5.512h.116c.325 0 .556-.178.556-.241v-2.31h4.084v1.46c0 .157-.042.23-.241.23-.22 0-1.323-.084-1.323-.084v.169c.483.062.745.157.913.272.148.105.2.284.242.504.997-.094 1.102-.44 1.102-.997v-4.683c.231-.042.42-.136.504-.23l-.934-.694-.378.452h-3.843l-.2-.084c.358-.462.662-.945.924-1.428h5.324c.147 0 .23-.052.262-.168-.357-.336-.934-.777-.934-.777l-.515.64zm9.86-.431c-.903 1.438-2.615 2.961-4.305 3.895l.116.168a12.724 12.724 0 0 0 3.17-1.932c.924.462 2.1 1.218 2.636 1.764.892.21.903-1.312-2.415-1.952a10.12 10.12 0 0 0 1.68-1.859c.262 0 .388-.02.462-.126l-.777-.703-.494.44h-3.727l.095.305h3.559zm-7.213 5.523c.084-.021.157-.084.22-.19a45.6 45.6 0 0 0 3.056-.986l-.021-.168c-1.071.157-2.132.294-2.867.388 1.155-.924 2.436-2.268 3.119-3.192.189.043.346-.01.399-.105l-.956-.64c-.168.347-.43.767-.745 1.218-.735.031-1.439.052-1.953.063a13 13 0 0 0 2.173-2.383c.21.02.336-.063.378-.158l-1.008-.493c-.325.787-1.218 2.278-1.921 2.887-.074.052-.273.094-.273.094l.378.966a.515.515 0 0 0 .21-.168c.651-.157 1.28-.325 1.774-.462-.63.861-1.396 1.754-2.026 2.258-.084.073-.315.105-.315.105l.378.966zm3.538.472c-1.564.4-3.181.756-3.885.872l.441.966a.36.36 0 0 0 .221-.253c1.438-.567 2.488-1.07 3.265-1.438l-.042-.147zm4.504 1.491h-1.533v-2.688h1.995c.147 0 .231-.052.263-.168-.326-.325-.882-.745-.882-.745l-.472.598h-3.644l.084.315h1.974v2.688h-2.919l.084.315h6.163c.147 0 .242-.053.273-.168-.346-.325-.892-.745-.892-.745l-.494.598zm5.24-6.058h3.895v4.462c0 .178-.063.252-.294.252-.251 0-1.564-.105-1.564-.105v.168c.546.073.872.168 1.06.283.168.105.231.284.273.494 1.071-.105 1.187-.462 1.187-1.029v-4.525h1.722c.147 0 .252-.053.283-.168-.304-.347-.83-.84-.83-.84l-.472.703h-.703v-1.847c.252-.042.357-.137.388-.284l-1.05-.126v2.257h-3.979l.084.305zm.693.997c.64.63.956 1.607 1.134 2.216.651.598 1.228-1.155-1.029-2.32l-.105.104zm-3.233-3.39c.482.587 1.133 1.511 1.322 2.173.725.514 1.218-.998-1.197-2.247l-.125.073zm1.7 3.684c.294-.042.441-.115.504-.2l-.892-.745-.41.525h-1.5l.062.315h1.596v3.602c-.462.325-1.229.955-1.722 1.312l.609.808c.084-.073.105-.168.063-.252.378-.514 1.029-1.29 1.28-1.616.106-.137.21-.158.347 0 .977 1.27 1.985 1.648 3.948 1.648h3.013c.042-.304.22-.525.525-.588v-.136c-1.207.052-2.152.052-3.317.052-1.922 0-3.067-.21-4.011-1.27-.032-.032-.063-.063-.095-.084v-3.37zm9.146-3.81c.462.472 1.04 1.249 1.228 1.837.725.482 1.208-1.03-1.113-1.922l-.115.084zm2.866 5.984c-.577.504-1.165.997-1.638 1.396v-4.252c.2-.042.336-.126.378-.2l-.703-.588-.336.368h-1.502l.095.315h1.386v4.588c0 .178-.042.252-.378.42l.472.861c.095-.042.21-.168.273-.336a60.135 60.135 0 0 0 2.069-2.446l-.116-.126zm1.848-5.964c-.01 3.539.095 6.867-3.297 9.302l.147.179c2.783-1.67 3.517-3.916 3.738-6.289.283 2.457.997 4.756 2.835 6.257.115-.388.346-.556.693-.598l.021-.116c-2.468-1.658-3.224-4.189-3.465-7.045.01-.43.01-.86.021-1.28.262-.032.357-.147.378-.294l-1.071-.116zm5.177 9.523c1.239-.294 2.604-.882 3.391-1.375.262.062.42.041.504-.064l-.934-.566c-.599.587-1.911 1.406-3.035 1.858l.074.147zm5.491-1.68c1.323.44 2.247.997 2.74 1.501.746.578 1.848-1.029-2.677-1.669l-.063.168zm-3.15-1.7h4.452v.923h-4.452v-.924zm4.452-3.529v.872h-4.452v-.872h4.452zm0 2.373v.84h-4.452v-.84h4.452zm0-.315h-4.452v-.871h4.452v.871zm1.06 2.394h-.367v-4.357c.262-.031.409-.095.472-.2l-.913-.682-.378.472h-2.026c.042-.273.094-.609.136-.945h3.864c.136 0 .241-.052.273-.167-.357-.336-.945-.778-.945-.778l-.504.63h-2.646c.042-.304.074-.587.105-.84.21-.02.325-.136.346-.272l-1.028-.105c-.021.378-.053.808-.084 1.217h-3.917l.084.315h3.812c-.032.347-.064.672-.095.945h-1.585l-.798-.335v5.102h-1.859l.095.315h9.145c.147 0 .252-.052.283-.168-.367-.346-.955-.798-.955-.798l-.515.651zm2.342-.042c.935.661 1.365 1.302 1.701 1.995.147.315.284.44.504.44.252 0 .431-.167.431-.471 0-.232-.063-.431-.252-.704-.347-.504-1.008-1.04-2.268-1.438l-.116.178zM212.974-74.409c-.493.861-1.512 2.026-2.509 2.772l.115.126c1.176-.599 2.3-1.554 2.93-2.3.241.043.325.011.399-.094l-.935-.504zm3.727-2.32c.431.241.935.609 1.365 1.008-2.404.147-4.619.283-5.963.325 2.1-.808 4.504-2.047 5.722-2.887.22.084.399.032.462-.042l-.809-.693a16.72 16.72 0 0 1-1.711 1.25c-1.292.073-2.52.136-3.328.168 1.018-.463 2.131-1.135 2.761-1.628.231.053.378-.02.43-.116l-.598-.356a59.812 59.812 0 0 0 3.507-.441c.252.126.462.126.567.031l-.777-.766c-1.743.472-5.008 1.029-7.591 1.249l.032.2a65.985 65.985 0 0 0 3.769-.221c-.609.61-1.743 1.533-2.646 1.921a1.336 1.336 0 0 1-.273.074l.441.861a.454.454 0 0 0 .189-.22 62.598 62.598 0 0 0 3.034-.452c-1.186.756-2.593 1.49-3.727 1.932-.137.052-.389.073-.389.073l.452.882a.42.42 0 0 0 .22-.241c1.071-.105 2.079-.2 3.003-.294v2.908c0 .136-.053.189-.231.189-.21 0-1.218-.074-1.218-.074v.158c.452.052.714.147.861.252.137.094.179.273.2.472.945-.094 1.081-.451 1.081-.987v-2.992c1.06-.115 1.984-.22 2.751-.315.304.315.567.64.703.956.861.42 1.071-1.46-2.194-2.3l-.095.116zm-.22 2.53c.892.588 2.079 1.649 2.457 2.478.871.472 1.144-1.418-2.352-2.593l-.105.115zm9.87-6.646c.325.347.756.945.892 1.396.652.442 1.176-.818-.777-1.47l-.115.074zm-5.019 6.688a.592.592 0 0 0 .242-.22c1.218-.357 2.331-.735 2.961-.935l-.021-.168c-1.082.158-2.153.284-2.867.368.998-.914 2.079-2.226 2.667-3.15.21.042.336-.032.389-.126l-.956-.546c-.136.346-.367.777-.651 1.239-.598.02-1.197.031-1.648.031.693-.692 1.47-1.763 1.911-2.509.22.021.325-.063.378-.157l-.977-.462c-.283.808-1.029 2.33-1.638 2.96-.062.053-.262.095-.262.095l.367.934a.467.467 0 0 0 .221-.189c.525-.115 1.05-.262 1.459-.378-.525.83-1.155 1.69-1.69 2.184-.084.053-.294.105-.294.105l.409.924zm3.245.378c-1.439.43-2.951.83-3.633.966l.451.924a.375.375 0 0 0 .221-.262 36.376 36.376 0 0 0 3.003-1.491l-.042-.137zm5.816.252h-.136c-.095.515-.21 1.092-.273 1.239-.053.073-.084.094-.158.094-.073.011-.273.021-.514.021h-.515c-.231 0-.262-.052-.262-.199V-76.456l.714-.126c.147.273.262.535.325.777.756.546 1.271-1.155-1.354-2.373l-.116.094c.336.336.725.809 1.008 1.281-1.522.095-2.992.168-3.947.2.787-.494 1.659-1.197 2.152-1.712.231.032.378-.052.42-.146l-.956-.452h3.602c.147 0 .252-.052.283-.168-.346-.325-.892-.756-.892-.756l-.494.609h-4.966l.084.315h2.352c-.389.62-1.355 1.774-2.142 2.236-.073.032-.262.074-.262.074l.451.913a.498.498 0 0 0 .2-.23c.293-.032.567-.074.85-.106v.756c0 1.334-.43 2.877-2.488 3.927l.105.158c2.687-.977 3.086-2.678 3.097-4.106v-.84c.462-.073.892-.147 1.302-.21v4.158c0 .473.126.64.766.64h.662c1.123.011 1.396-.126 1.396-.409 0-.137-.052-.22-.262-.304l-.032-1.271zm2.153.546v-2.772h2.195v2.772h-2.195zm2.195-5.701v2.625h-2.195v-2.625h2.195zm.283-.745l-.388.43h-1.344c.252-.43.556-.976.766-1.365.21 0 .336-.084.389-.231l-1.103-.262a27.21 27.21 0 0 1-.399 1.858h-.346l-.704-.347v7.78h.116c.283 0 .535-.167.535-.241v-.871h2.195v.808h.105c.22 0 .546-.178.556-.252v-6.436c.21-.042.388-.126.441-.21l-.819-.661zm5.134-.043l-.43.463h-2.289c.189-.431.367-.861.525-1.313.231.01.346-.094.388-.21l-1.071-.325c-.356 1.616-1.007 3.244-1.69 4.273l.158.094c.566-.567 1.091-1.333 1.532-2.205h2.562c-.073 3.591-.231 5.985-.619 6.373-.116.116-.189.137-.41.137-.252 0-1.008-.063-1.48-.116l-.01.19c.43.073.881.189 1.049.314.147.105.189.305.189.536.515 0 .924-.158 1.218-.515.494-.609.683-2.94.756-6.824.231-.02.357-.084.431-.168l-.809-.704zm-3.601 2.71c.525.556 1.144 1.459 1.27 2.173.756.598 1.365-1.103-1.154-2.247l-.116.073zm10.301-3.098h2.12v2.457c0 .451.095.609.693.609h.588c1.029 0 1.292-.137 1.292-.4 0-.157-.084-.21-.305-.283l-.031-.01h-.105c-.053.02-.126.031-.179.042-.031.01-.105.01-.147.01-.084.011-.273.011-.451.011h-.473c-.199 0-.22-.042-.22-.168v-2.163c.189-.02.325-.084.399-.157l-.767-.651-.377.388h-1.911l-.788-.346v1.228c0 .976-.231 2.058-1.596 2.908l.105.147c1.932-.808 2.153-2.12 2.153-3.055v-.567zm-4.358-.86c.515.493 1.197 1.301 1.418 1.92.756.452 1.176-1.092-1.302-1.994l-.116.073zm3.077 6.456c-.599.399-1.187.787-1.68 1.102v-4.462c.199-.042.346-.126.388-.2l-.693-.566-.336.357h-1.365l.084.304h1.271v4.63c0 .19-.053.252-.378.42l.462.85a.585.585 0 0 0 .262-.346 52.113 52.113 0 0 0 2.069-1.963l-.084-.126zm3.989-1.638a6.59 6.59 0 0 1-1.637 2.405 5.448 5.448 0 0 1-1.785-2.405h3.422zm.473-.735l-.473.43h-4.367l.094.305h.63c.347 1.166.861 2.069 1.575 2.783-.903.734-2.037 1.302-3.412 1.71l.094.18c1.512-.337 2.73-.862 3.696-1.554.819.703 1.869 1.176 3.129 1.511.105-.346.346-.566.672-.619l.021-.116c-1.281-.22-2.394-.598-3.308-1.165.861-.725 1.491-1.606 1.943-2.625.262-.01.378-.042.462-.136l-.756-.704zm3.413-4.105c.525.504 1.207 1.365 1.417 2.005.756.484 1.218-1.112-1.302-2.089l-.115.084zm3.128 6.657c-.65.346-1.301.703-1.826.976v-4.504c.199-.042.336-.126.378-.2l-.693-.577-.336.368h-1.67l.095.315h1.554v4.588c0 .188-.042.252-.368.42l.473.84a.578.578 0 0 0 .262-.316c.924-.713 1.754-1.407 2.205-1.763l-.074-.147zm4.074-3.014H259.1v-3.317c.273-.042.357-.147.389-.294l-1.071-.126v3.737h-2.793l.084.315h2.709v5.523h.137c.251 0 .545-.179.545-.284v-5.239h2.688c.158 0 .252-.052.284-.168-.357-.335-.924-.777-.924-.777l-.494.63zm2.762 7.098c1.092-.525 1.439-1.533 1.439-2.31 0-.567-.284-.987-.777-.987-.431 0-.683.305-.683.64 0 .536.515.715.945.872-.042.451-.283 1.07-1.092 1.522l.168.263zM281.392-74.157h-.137c-.21.956-.346 1.512-.462 1.743-.084.115-.168.179-.409.21-.315.031-1.082.042-2.153.042h-2.299c-.934 0-1.102-.158-1.102-.567v-4.074l2.12-.714v3.917h.126c.263 0 .557-.158.557-.252v-3.896l2.457-.84c-.053 2.3-.2 3.518-.452 3.77-.084.094-.157.115-.346.115-.179 0-.735-.052-1.061-.084v.189c.294.042.609.126.746.231.105.095.147.242.147.441.367 0 .714-.084.955-.336.399-.378.599-1.648.662-4.231a.72.72 0 0 0 .399-.147l-.767-.651-.346.389-.074.03-2.32.799v-2.352c.262-.042.357-.147.388-.294l-1.071-.126v3.003l-2.12.724v-2.488c.241-.042.357-.157.378-.294l-1.05-.126v3.14l-2.037.692.189.242 1.848-.63v3.99c0 .892.472 1.08 1.806 1.08h2.246c3.045 0 3.612-.083 3.612-.513 0-.148-.094-.231-.409-.326l-.021-1.806zm4.295-2.068c1.816-.85 2.026-2.215 2.026-3.181v-.61h2.079v2.29c0 .44.094.608.703.608h.578c1.029 0 1.281-.136 1.281-.409 0-.147-.084-.21-.294-.273l-.042-.01h-.095a.532.532 0 0 1-.178.03c-.042.011-.105.011-.158.011h-.913c-.189 0-.221-.031-.221-.146v-1.995c.189-.021.326-.085.399-.158l-.766-.661-.389.399h-1.858l-.798-.347v1.28c0 1.02-.21 2.122-1.47 3.035l.116.137zm-2.268-4.41c.525.325 1.176.935 1.386 1.439.808.409 1.165-1.208-1.281-1.544l-.105.105zm-.704 2.362c.483.294 1.04.851 1.208 1.323.777.42 1.186-1.123-1.103-1.417l-.105.094zm3.329-1.28c-2.121 4.756-2.121 4.756-2.331 5.134-.105.22-.137.23-.273.23h-.462v.232c.231.02.378.042.514.147.252.157.315.976.158 2.047.031.325.157.525.357.525.357 0 .556-.273.577-.725.042-.882-.262-1.333-.273-1.805-.01-.273.074-.62.179-.956.168-.556 1.197-3.296 1.743-4.766l-.189-.063zm4.388 3.643a6.93 6.93 0 0 1-1.606 2.362 5.382 5.382 0 0 1-1.68-2.362h3.286zm.462-.746l-.462.43h-4.493l.094.316h.882c.325 1.134.819 2.026 1.491 2.74-.924.756-2.058 1.344-3.444 1.775l.084.178c1.523-.347 2.762-.882 3.738-1.596.808.724 1.848 1.208 3.097 1.554.105-.346.357-.567.662-.62l.021-.115c-1.271-.231-2.384-.63-3.276-1.218a7.52 7.52 0 0 0 1.911-2.593c.262-.01.378-.042.462-.137l-.767-.714zm9.587-.43v1.323h-4.084v-1.323h4.084zm-4.084 2.971v-1.333h4.084v1.333h-4.084zm4.987-5.102h-3.979c.199-.389.367-.778.514-1.155.284.02.378-.042.42-.168l-1.092-.357a11.702 11.702 0 0 1-.63 1.68h-3.307l.095.304h3.065c-.745 1.48-1.827 2.94-3.234 3.948l.105.126a9.364 9.364 0 0 0 2.384-1.922v5.512h.115c.326 0 .557-.178.557-.241v-2.31h4.084v1.46c0 .157-.042.23-.241.23-.221 0-1.324-.084-1.324-.084v.169c.484.062.746.157.914.272.147.105.2.284.241.504.998-.094 1.103-.44 1.103-.997v-4.683c.231-.042.42-.136.504-.23l-.935-.694-.378.452h-3.842l-.2-.084c.357-.462.662-.945.924-1.428h5.323c.147 0 .231-.052.263-.168-.357-.336-.935-.777-.935-.777l-.514.64zm7.55 4.084v-2.205h2.698v2.205h-2.698zm-3.266 0c.074-.61.084-1.208.084-1.775v-.43h2.499v2.205h-2.583zm2.583-4.662v2.142h-2.499v-2.142h2.499zm3.381 0v2.142h-2.698v-2.142h2.698zm.262-.777l-.367.462h-5.649l-.808-.336v3.549c0 2.005-.158 3.979-1.365 5.533l.147.105c1.123-.976 1.596-2.268 1.774-3.57h2.625v3.486h.105c.357 0 .578-.168.578-.22v-3.266h2.698v2.468c0 .167-.053.24-.252.24-.231 0-1.355-.094-1.355-.094v.169c.494.062.777.157.935.272.147.095.21.284.241.504 1.019-.105 1.124-.451 1.124-1.018v-7.339c.231-.053.42-.147.493-.241l-.924-.704zm6.542-.304c.315.399.724 1.039.861 1.532.683.484 1.27-.87-.745-1.606l-.116.074zm-2.016 4.714c.021-.357.032-.693.032-1.018v-1.68h5.606v2.698h-5.638zm5.911-3.423l-.367.42h-5.376l-.808-.357v2.352c0 1.942-.2 4.063-1.544 5.806l.158.126c1.449-1.312 1.879-3.076 2.005-4.62h5.659v.64h.105c.231 0 .578-.167.588-.23v-3.297c.179-.042.347-.126.41-.2l-.83-.64zm6.133-1.165c.546.44 1.186 1.207 1.365 1.826.756.504 1.249-1.123-1.25-1.91l-.115.084zm3.181 2.499c-.368 1.49-1.04 2.803-2.058 3.905-1.113-.997-1.942-2.3-2.415-3.905h4.473zm2.404 0c.147 0 .252-.053.284-.169-.368-.346-.977-.829-.977-.829l-.535.683h-8.032l.094.315h2.058c.42 1.795 1.166 3.233 2.216 4.356-1.113 1.05-2.573 1.901-4.431 2.52l.084.158c1.995-.525 3.549-1.281 4.745-2.278 1.082 1.029 2.468 1.764 4.085 2.257.147-.357.43-.557.777-.577l.031-.116c-1.69-.41-3.181-1.06-4.388-2.005 1.207-1.166 1.994-2.604 2.456-4.315h1.533zm9.723-1.954c-.241.893-.588 1.88-.882 2.489l.168.094c.473-.514.987-1.28 1.386-2.015.221.01.347-.074.378-.2l-1.05-.368zm-4.714.18c.378.576.819 1.48.882 2.193.672.62 1.355-.923-.745-2.257l-.137.063zm-1.407 1.92h1.355c.147 0 .252-.052.273-.168a9.764 9.764 0 0 0-.798-.745l-.452.598h-.378v-2.005c.263-.042.336-.136.368-.294l-1.04-.126v2.425h-1.69l.084.315h1.459c-.315 1.565-.861 3.13-1.722 4.326l.158.147c.735-.787 1.291-1.69 1.711-2.688v5.103h.137c.252 0 .535-.158.535-.252v-5.05c.336.44.725 1.05.851 1.501.64.483 1.176-.787-.851-1.732v-1.355zm6.352.861l-.378.42h-1.459v-3.506c.241-.053.357-.158.367-.305l-1.049-.105v3.916h-2.3l.095.315h4.451v1.922h-4.294l.094.315h4.2v2.016h-4.819l.095.315h4.724v.566h.105c.221 0 .557-.178.567-.241v-4.767c.21-.042.389-.126.441-.21l-.84-.65zm2.258 7.245c1.092-.525 1.439-1.533 1.439-2.31 0-.567-.284-.987-.777-.987-.431 0-.683.305-.683.64 0 .536.515.715.945.872-.042.451-.283 1.07-1.092 1.522l.168.263zM13.676-63.257c.157 0 .262-.053.294-.168-.4-.347-1.03-.82-1.03-.82l-.545.683H4.478l.095.305h4.683c-.83 2.268-2.772 4.756-4.935 6.404l.116.126c1.753-1.081 3.286-2.583 4.44-4.22v6.09h.137c.252 0 .557-.158.557-.2v-6.279c.189-.032.283-.105.325-.2l-.514-.188c.315-.505.577-1.019.797-1.533h3.497zm-3.591 2.73c1.155.745 2.782 2.089 3.35 3.097.955.483 1.112-1.575-3.245-3.213l-.105.115zm9.303-.704h-1.06v-2.047a17.783 17.783 0 0 0 1.595-.43c.253.094.452.094.546 0l-.87-.767c-.967.535-2.888 1.197-4.505 1.501l.042.19c.83-.075 1.7-.2 2.51-.358v1.911h-2.552l.084.304h2.215c-.546 1.512-1.46 3.087-2.614 4.19l.136.147a9.887 9.887 0 0 0 2.73-3.14v4.861h.116c.325 0 .567-.168.567-.23v-4.851c.556.535 1.218 1.333 1.396 1.974.735.525 1.229-1.06-1.396-2.184v-.767h2.163c.147 0 .24-.052.272-.167-.335-.315-.881-.767-.881-.767l-.494.63zm2.373-1.953c.252-.031.347-.136.378-.283l-1.04-.116v6.604h.126c.253 0 .536-.147.536-.241v-5.964zm1.606-1.102v8.315c0 .168-.063.242-.273.242a40.4 40.4 0 0 1-1.365-.095v.158c.494.073.777.157.956.283.126.105.189.284.23.504.998-.105 1.124-.451 1.124-1.029v-7.98c.252-.03.357-.125.389-.272l-1.06-.126zm10.08 3.832h-2.814v-2.803h3.402c.147 0 .242-.053.273-.168a14.587 14.587 0 0 0-1.008-.83l-.546.683h-6.509l.084.315h3.59v2.803h-4.461l.073.315h4.389v4.158c0 .178-.063.252-.284.252-.283 0-1.638-.105-1.638-.105v.157c.588.073.914.168 1.113.304.168.095.252.294.273.515 1.103-.105 1.25-.525 1.25-1.092v-4.19h4.115c.147 0 .252-.052.273-.167-.378-.347-1.018-.84-1.018-.84l-.557.693zm8.464-4.021c.388.42.808 1.123.829 1.7.672.578 1.354-.913-.703-1.774l-.126.074zm-5.554 6.688c.094-.032.188-.116.272-.252a66.322 66.322 0 0 0 2.751-.945l-.031-.158c-.977.147-1.943.284-2.615.378.966-.934 2.027-2.268 2.583-3.181.21.031.347-.042.4-.126l-.956-.588a7.888 7.888 0 0 1-.599 1.197c-.588.042-1.154.073-1.595.084.64-.682 1.354-1.7 1.763-2.425.21.02.336-.074.378-.168l-1.008-.452c-.241.798-.913 2.268-1.46 2.888-.072.052-.25.094-.25.094l.367.934a.492.492 0 0 0 .199-.167 25.92 25.92 0 0 0 1.396-.42c-.504.86-1.134 1.753-1.67 2.257-.083.063-.283.105-.283.105l.358.945zm.167 2.31a.362.362 0 0 0 .21-.263 42.487 42.487 0 0 0 2.877-1.501l-.042-.147c-1.407.451-2.856.84-3.517.987l.472.923zm4.158-2.394h1.67v1.932h-1.67v-1.932zm1.67-4.253v1.827h-1.67v-1.827h1.67zm0 3.948h-1.67v-1.806h1.67v1.806zm1.994 2.237h-1.354v-1.932h1.963c.147 0 .242-.053.273-.168-.315-.315-.83-.725-.83-.725l-.44.588h-.966v-1.806h1.963c.147 0 .242-.052.273-.167-.315-.315-.83-.725-.83-.725l-.44.577h-.966v-1.827h2.289c.147 0 .241-.052.273-.167-.326-.315-.85-.735-.85-.735l-.452.587h-3.434l-.115-.052c.231-.493.42-.987.567-1.407.273.01.357-.052.4-.178l-1.103-.347c-.263 1.334-.914 3.255-1.796 4.557l.126.115c.441-.44.809-.955 1.145-1.49v6.393h.105c.315 0 .535-.178.535-.23v-.557h4.714c.147 0 .242-.053.273-.168-.336-.315-.86-.735-.86-.735l-.463.599zm7.938-8.547c.41.41.851 1.071.924 1.607.672.535 1.26-.935-.808-1.69l-.116.083zm-2.015 4.179c-.536.2-1.06.399-1.565.588v-2.058h1.397c.136 0 .241-.052.273-.168a9.898 9.898 0 0 0-.798-.724l-.43.588h-.442v-1.995c.252-.032.357-.137.389-.294l-1.05-.116v2.405h-1.606l.083.304h1.523v2.3c-.704.241-1.291.44-1.606.535l.377.882a.394.394 0 0 0 .21-.284c.368-.178.694-.357 1.019-.535v2.876c0 .18-.063.232-.273.232-.22 0-1.333-.084-1.333-.084v.167c.472.064.756.158.923.284.148.115.21.294.242.535.987-.105 1.102-.482 1.102-1.05v-3.328c.64-.346 1.197-.661 1.628-.913l-.063-.147zm1.102.304c.01-.199.01-.388.01-.566v-1.754h3.602v2.32H51.37zm3.895-3.044l-.388.42h-3.36l-.798-.347v2.405c0 1.91-.21 3.947-1.617 5.616l.137.126c1.648-1.364 2.037-3.254 2.12-4.86h3.623v.671h.105c.22 0 .556-.147.567-.22v-2.95c.21-.043.378-.127.44-.21l-.829-.651zm5.282 1.921h-.83v-2.205a17.153 17.153 0 0 0 1.429-.378c.252.084.43.095.525-.01l-.83-.714c-.882.462-2.604 1.102-3.99 1.428l.042.178c.704-.084 1.45-.21 2.153-.346v2.047h-2.121l.084.304h1.743c-.347 1.491-.998 2.972-1.89 4.106l.136.136a8.67 8.67 0 0 0 2.048-2.887v4.61h.105c.325 0 .567-.169.567-.222v-4.86c.483.461 1.05 1.133 1.25 1.637.671.452 1.144-.892-1.25-1.869v-.65h1.91c.158 0 .253-.053.284-.168-.346-.326-.882-.767-.882-.767l-.483.63zm2.247 4.179v-5.575h2.362v5.575h-2.362zm2.646-6.342l-.4.452h-2.193l-.735-.336v7.78h.125c.295 0 .557-.168.557-.252v-.998h2.362v1.06h.105c.231 0 .557-.136.578-.188v-6.594c.23-.042.42-.136.483-.231l-.882-.693zm6.069 5.313c-1.113.472-2.205.924-2.982 1.228v-3.549h1.964v.483h.105c.23 0 .556-.157.567-.23v-2.888c.21-.042.378-.126.43-.2l-.819-.65-.388.42h-2.845l.094.304h2.856v2.457h-1.827l-.808-.42v4.168c0 .179-.043.252-.337.4l.442.913a.531.531 0 0 0 .272-.305c1.386-.777 2.604-1.543 3.329-1.984l-.053-.147zm3.759-3.675c-.21 1.344-.63 2.53-1.312 3.549-.589-.872-.966-1.88-1.24-3.013a6.36 6.36 0 0 0 .274-.536h2.278zm1.606 0c.147 0 .242-.053.273-.168-.346-.325-.903-.766-.903-.766l-.483.619h-2.624c.273-.62.514-1.291.724-2.005.23-.01.346-.105.388-.242l-1.133-.294c-.42 2.184-1.281 4.231-2.268 5.544l.157.105c.578-.515 1.092-1.176 1.533-1.953.242 1.176.578 2.247 1.082 3.17-.83 1.072-1.985 1.943-3.56 2.626l.084.146c1.649-.556 2.888-1.301 3.8-2.257.589.892 1.387 1.627 2.468 2.184.095-.326.336-.504.64-.557l.032-.105c-1.165-.472-2.057-1.144-2.75-1.973.903-1.113 1.438-2.467 1.732-4.074h.808zm1.576-2.583c.472.588 1.092 1.502 1.28 2.184.746.536 1.26-1.008-1.154-2.247l-.126.063zm1.606 3.696c.294-.042.452-.116.515-.2l-.893-.745-.409.535h-1.386l.063.305h1.47v3.59c-.452.326-1.165.924-1.638 1.271l.62.798c.084-.063.104-.147.063-.252.367-.504.966-1.239 1.217-1.575.105-.147.21-.178.326 0 .798 1.376 1.732 1.617 4.01 1.617h3.056c.042-.305.22-.525.535-.588v-.137c-1.228.053-2.194.053-3.38.053-2.226 0-3.245-.063-4.043-1.228a.479.479 0 0 0-.126-.126v-3.318zm2.93.85c.01-.178.02-.367.02-.546v-1.732h1.848v2.278h-1.868zm3.328 0h-.809v-2.278h1.523c.147 0 .241-.053.273-.168-.336-.325-.861-.766-.861-.766l-.483.619h-.452v-1.743c.263-.042.347-.147.378-.294l-1.029-.115v2.152h-1.847v-1.764c.262-.031.346-.136.378-.283l-1.04-.116v2.163H80.95l.084.315h1.312v1.732c0 .179 0 .368-.01.546h-1.712l.084.315h1.607c-.095 1.187-.42 2.121-1.24 2.909l.148.125c1.155-.787 1.606-1.784 1.743-3.034h1.89v3.224h.125c.242 0 .525-.158.525-.242v-2.982h1.89c.147 0 .252-.052.273-.168-.325-.336-.882-.777-.882-.777l-.472.63zm3.591 4.872c.809 0 1.47-.672 1.47-1.48 0-.809-.661-1.47-1.47-1.47-.808 0-1.48.661-1.48 1.47 0 .808.672 1.48 1.48 1.48zm0-2.593c.62 0 1.113.493 1.113 1.113a1.118 1.118 0 1 1-2.237 0c0-.62.494-1.113 1.124-1.113zM25.405-39.297h4.326v-.745h-1.943c-.346 0-.756.03-1.123.063 1.585-1.66 2.73-2.909 2.73-4.169 0-1.186-.767-1.973-2.006-1.973-.871 0-1.47.409-2.026 1.018l.494.494c.388-.452.87-.809 1.427-.809.85 0 1.27.546 1.27 1.312 0 1.082-1.133 2.29-3.149 4.295v.514zm7.413.126c1.333 0 2.142-1.25 2.142-3.496 0-2.247-.809-3.454-2.142-3.454-1.344 0-2.153 1.207-2.153 3.454s.809 3.496 2.153 3.496zm0-.693c-.788 0-1.313-.84-1.313-2.803s.525-2.762 1.313-2.762c.777 0 1.302.799 1.302 2.762s-.525 2.803-1.302 2.803zm3.433.567h3.78v-.714h-1.386v-5.984h-.661c-.368.22-.809.388-1.418.493v.557h1.218v4.934h-1.533v.714zm5.481-2.54l1.565-2.29c.189-.325.378-.62.546-.945h.042c-.022.358-.053.935-.053 1.292v1.942h-2.1zm2.1 2.54h.819v-1.848h.913v-.693h-.913v-4.157h-.966l-2.866 4.283v.567h3.013v1.848zM50.97-41.649v-2.079h2.352v2.08H50.97zm6.94 0h-3.8v-2.079h3.076v-.735h-3.077v-1.596h3.318v-.756H51.17c.168-.356.336-.735.483-1.102l-.788-.189c-.493 1.407-1.375 2.762-2.362 3.622.2.105.525.368.672.494a9.695 9.695 0 0 0 1.596-2.069h2.551v1.596h-3.129v2.814h-1.722v.756h4.851v2.404h.787v-2.404h3.801v-.756zM62.99-39.171c1.23 0 2.205-.724 2.205-1.911 0-.924-.64-1.512-1.448-1.7v-.043c.724-.273 1.218-.787 1.218-1.595 0-1.082-.84-1.701-2.006-1.701-.787 0-1.407.357-1.921.84l.462.546c.399-.4.871-.683 1.428-.683.714 0 1.155.41 1.155 1.06 0 .704-.473 1.25-1.9 1.25v.661c1.595 0 2.141.536 2.141 1.334 0 .745-.577 1.228-1.386 1.228-.787 0-1.312-.378-1.711-.798l-.44.567c.45.493 1.133.945 2.204.945zM70.675-42.51c.084-.62.116-1.218.116-1.764h4.798v1.764h-4.914zm4.914-4.252v1.743h-4.798v-1.743h4.798zm.808-.766h-6.394v3.212c0 1.67-.168 3.801-1.837 5.27.157.117.472.4.577.568 1.019-.892 1.544-2.079 1.806-3.265h5.04v2.1c0 .23-.084.304-.326.314-.241 0-1.08.011-1.952-.02.125.22.273.587.325.808 1.123 0 1.816-.01 2.215-.147.389-.126.546-.399.546-.945v-7.895zm3.56 9.354c1.103-.388 1.817-1.249 1.817-2.383 0-.735-.315-1.207-.893-1.207-.43 0-.798.262-.798.756 0 .493.357.745.788.745.063 0 .115 0 .178-.01-.052.714-.514 1.207-1.323 1.543l.231.556zM92.169-46.247c-.231-.42-.714-1.071-1.134-1.533l-.672.294c.42.483.892 1.155 1.092 1.585l.714-.346zm1.533.682c.02-.441.031-.85.031-1.25v-1.238h-.777v1.228c0 .399-.01.819-.042 1.26h-3.38v.777h3.296c-.252 1.848-1.081 3.948-3.59 5.575.199.137.482.389.608.578 2.688-1.785 3.528-4.116 3.78-6.153h3.601c-.147 3.548-.304 4.945-.62 5.26-.115.126-.24.158-.45.158-.263 0-.935 0-1.628-.074.147.241.252.577.273.809.63.041 1.302.052 1.659.02.388-.031.63-.125.871-.409.41-.494.546-1.963.714-6.131 0-.116.01-.41.01-.41h-4.356zm2.267 4.053c-.273-.546-.903-1.386-1.459-1.995l-.64.315c.535.63 1.154 1.512 1.417 2.057l.682-.377zm11.897-5.806l-.19.052h-7.496v.767h6.751c-.787.745-1.91 1.564-2.918 2.057v4.924c0 .19-.064.242-.284.253-.241.01-1.05.02-1.921-.011.126.21.273.557.315.777 1.06 0 1.753-.01 2.152-.136.41-.116.546-.347.546-.883v-4.535c1.302-.714 2.73-1.806 3.654-2.814l-.61-.451zm10.227 6.173h-3.654v-1.722h3.654v1.722zm-2.205-2.362h-2.184v3.002h5.166v-3.002h-2.205v-1.323h2.94v-.704h-2.94v-1.364c.871-.116 1.68-.263 2.3-.452l-.379-.64c-1.25.378-3.465.63-5.27.766.084.179.168.441.188.63a40.253 40.253 0 0 0 2.384-.21v1.27h-3.024v.704h3.024v1.323zm-3.423-2.53c-.325-.462-1.018-1.176-1.575-1.66l-.577.42c.567.515 1.228 1.24 1.533 1.712l.62-.472zm-.21 1.68h-2.173v.734h1.417v3.223c-.44.19-.934.599-1.428 1.092l.484.641c.535-.64 1.07-1.197 1.438-1.197.241 0 .567.305.997.556.746.41 1.649.515 2.887.515.988 0 2.825-.052 3.591-.105.01-.22.136-.577.21-.766a41.964 41.964 0 0 1-3.79.178c-1.144 0-2.037-.073-2.72-.441-.43-.23-.671-.44-.913-.546v-3.885zm17.734-1.638v-.746h-3.507c-.136-.367-.42-.966-.682-1.417l-.756.189c.2.378.42.86.556 1.228h-4.168v2.856c0 1.48-.073 3.549-.871 5.04.168.073.535.293.661.43.851-1.564.987-3.895.987-5.47v-2.11h7.78zm-3.202 4.346c-.158-.976-.546-2.435-.903-3.559l-.704.189c.347 1.134.725 2.614.872 3.58l.735-.21zm-2.016.504c-.22-.966-.724-2.425-1.186-3.56l-.672.274c.43 1.123.934 2.614 1.134 3.58l.724-.294zm2.52 1.418c.955-1.617 1.732-3.518 2.236-5.25l-.819-.294c-.41 1.795-1.207 3.927-2.215 5.544h-4.147v.745h7.78v-.745h-2.835zM133.646-39.297h3.885v-.745h-3.014v-6.142h-.871v6.887z"/><path d="M135.44-44.17c.167-.509.314-1.011.453-1.541h.028c.147.53.293 1.032.46 1.541l.217.698h-1.374l.216-.698zm-1.395 2.56h.593l.44-1.395h1.666l.433 1.395h.62l-1.548-4.576h-.656l-1.548 4.576zM138.616-39.297h.882v-6.153h2.078v-.734h-5.039v.734h2.079v6.153zM141.065-36.745h4.074v-.745h-3.203v-2.5h2.615v-.745h-2.615v-2.163h3.098v-.735h-3.969v6.888z"/><path d="M144.498-39.297h.925l.997-1.858c.168-.336.346-.683.546-1.103h.042c.22.42.41.767.588 1.103l1.008 1.858h.965l-2.005-3.517 1.88-3.37h-.924l-.914 1.764a21.88 21.88 0 0 0-.493.997h-.042c-.21-.399-.357-.683-.536-.997l-.934-1.764h-.966l1.869 3.328-2.006 3.559zM155.669-43.507h-2.205v-2.194h2.205v2.194zm-2.205 3.213v-2.52h2.205v2.52h-2.205zm.882-7.812c-.074.494-.263 1.197-.42 1.701h-1.176v7.643h.714v-.83h2.918v-6.813h-1.742c.178-.451.367-1.029.546-1.543l-.84-.158zm7.17 1.67h-3.139c.179-.494.326-.998.452-1.512l-.746-.179c-.336 1.438-.902 2.888-1.606 3.811.168.105.504.315.64.442.368-.494.694-1.135.987-1.838h2.667c-.136 4.179-.294 5.775-.64 6.142-.105.136-.22.157-.43.157-.242 0-.872 0-1.554-.062.146.22.241.535.262.766.588.031 1.186.052 1.554.01.357-.031.598-.125.83-.42.42-.514.556-2.13.724-6.918v-.4zm-1.658 4.724c-.336-.62-1.06-1.627-1.649-2.372l-.608.356c.577.756 1.28 1.796 1.596 2.426l.66-.41zm10.342-4.756h-5.28v-.714h5.28v.714zm0 1.27h-5.28v-.745h5.28v.745zm.767-2.54h-6.793v3.097h6.793v-3.097zm-6.394 6.93h1.9v.65c-.661.084-1.302.158-1.9.22v-.87zm1.9-2.605v.704h-1.9v-.704h1.9zm-1.9 1.292h1.9v.735h-1.9v-.735zm3.213 2.446v-.63l-.567.063v-3.17h5.008v-.652h-9.365v.651h.997v3.539c-.368.042-.725.073-1.029.105l.084.693c.976-.116 2.257-.273 3.56-.431v1.018h.745V-39.6l.567-.074zm3.244-2.446a5.437 5.437 0 0 1-1.166 1.617 5.117 5.117 0 0 1-1.133-1.617h2.299zm.462-.662l-.147.021h-3.717v.64h.63l-.21.064a6.279 6.279 0 0 0 1.291 1.994 6.52 6.52 0 0 1-1.879.966c.137.137.326.4.4.578a7.323 7.323 0 0 0 1.983-1.081 6.13 6.13 0 0 0 2.08 1.08c.104-.198.304-.472.461-.618a6.004 6.004 0 0 1-1.995-.925 6.054 6.054 0 0 0 1.544-2.53l-.441-.189zm6.594-4.2h-1.743a10.237 10.237 0 0 0-.556-1.133l-.704.178c.158.284.326.64.462.956h-2.057v.65h4.598v-.65zm-3.832 5.198c-.21.65-.556 1.291-.976 1.743.157.094.409.293.535.398.41-.493.84-1.249 1.081-1.973l-.64-.168zm-.084-4.326c.2.472.368 1.102.41 1.502l.66-.179c-.041-.399-.23-1.018-.44-1.47l-.63.147zm3.958 3.937v-.672h-1.953v-1.102h2.08v-.661h-1.334c.189-.441.399-1.009.577-1.512l-.714-.158a14.94 14.94 0 0 1-.567 1.67h-2.887v.66h2.131v1.103h-2.09v.672h2.09v2.656c0 .105-.02.137-.126.137-.115.01-.44.01-.798 0 .106.2.2.472.231.662.504 0 .861-.011 1.103-.126.241-.116.304-.294.304-.662v-2.667h1.953zm-1.533.62c.326.525.693 1.239.861 1.69l.546-.315c-.157-.451-.535-1.134-.871-1.648l-.536.273zm6.226-3.014h-3.485v-1.994c1.091-.168 2.299-.43 3.16-.756l-.63-.578c-.746.315-2.09.63-3.255.819v3.58c0 1.397-.094 3.17-.966 4.43.168.096.462.327.598.473.956-1.354 1.093-3.401 1.093-4.903v-.336h1.585v5.292h.756v-5.292h1.144v-.735zm9.492-1.879c-.294-.378-.903-1.029-1.354-1.49l-.599.377c.452.483 1.04 1.145 1.323 1.544l.63-.431zm-1.228 3.36a6.237 6.237 0 0 1-1.607 2.163 6.474 6.474 0 0 1-1.68-2.163h3.287zm.525-.798l-.147.042h-3.517c.126-.357.251-.735.367-1.113h4.725l.01-.756h-4.525c.168-.714.304-1.47.42-2.278l-.871-.126c-.095.85-.242 1.648-.441 2.404h-1.89c.273-.546.577-1.25.756-1.921l-.82-.158c-.188.798-.577 1.649-.703 1.858-.115.232-.23.379-.378.42.084.18.21.568.263.735.094-.115.451-.178 1.113-.178h1.46c-.694 2.173-1.849 3.885-3.76 5.05.19.137.462.42.578.598a8.675 8.675 0 0 0 3.066-3.202c.42.788.945 1.47 1.564 2.048-.892.63-1.942 1.07-3.024 1.323.137.168.326.472.41.671 1.165-.315 2.267-.797 3.233-1.49.935.703 2.08 1.207 3.413 1.501.105-.22.315-.536.483-.693-1.281-.241-2.384-.682-3.297-1.302.903-.808 1.606-1.848 2.037-3.17l-.525-.263zm10.73-3.013v1.07h-6.246v-1.07h6.247zm.778 1.753v-2.436h-7.801v3.056c0 1.68-.084 4-1.134 5.648.189.063.535.273.682.4 1.071-1.712 1.229-4.264 1.229-6.048v-.62h7.024zm-4.378 1.722h2.09v1.102h-2.09v-1.102zm3.863 1.848c-.388.315-1.04.735-1.564 1.05a4.307 4.307 0 0 1-.84-1.113h3.549v-.683h-2.184v-1.102h1.764v-.672h-1.764v-.945h-.735v.945h-2.09v-.945h-.734v.945h-1.565v.672h1.565v1.102h-1.848v.683h1.134v1.7c0 .463-.315.694-.504.799.115.157.273.472.304.661.21-.136.536-.231 3.16-.871-.02-.158 0-.462.032-.651l-2.257.504v-2.142h1.449c.713 1.617 2.047 2.688 3.905 3.16.105-.21.305-.493.483-.65-.924-.19-1.7-.516-2.341-.988a12.731 12.731 0 0 0 1.67-1.06l-.589-.4zm3.35 3.401c1.103-.388 1.817-1.249 1.817-2.383 0-.735-.315-1.207-.893-1.207-.43 0-.798.262-.798.756 0 .493.357.745.788.745.063 0 .115 0 .178-.01-.052.714-.514 1.207-1.322 1.543l.23.556zM218.725-43.276l-.808.23v-1.91h.798v-1.186h-.798v-2.037h-1.187v2.037h-.42c.043-.347.074-.693.095-1.04l-.977-.178c-.073 1.27-.251 2.635-.525 3.475.242.105.704.315.914.462.116-.41.23-.945.336-1.533h.577v2.236c-.64.168-1.217.305-1.68.41l.263 1.27 1.417-.43v3.086h1.187v-3.454l.903-.283-.095-1.155zm6.027-.798v-1.155h-2.31v-.892h1.869v-1.134h-1.87v-.935h-1.196v.935h-1.806v1.134h1.806v.892h-2.415v1.155h3.601v.945h-3.391v1.155h1.24l-.872.556c.44.504.945 1.197 1.155 1.649l.955-.64c-.241-.452-.766-1.103-1.207-1.565h2.12v2.173c0 .137-.042.168-.22.178-.158 0-.714 0-1.208-.02.148.346.305.881.357 1.239.756 0 1.344-.021 1.743-.21.41-.2.525-.536.525-1.166v-2.194h1.019v-1.155h-1.019v-.945h1.124zm4.39-1.124h-2.027v-1.438h2.026v1.438zm1.207-2.54h-4.357v3.654h4.357v-3.654zm-1.911 4.525l.031-.661h-1.175l-.032.66h-1.565v1.124h1.47c-.178 1.229-.608 2.174-1.795 2.814.252.21.588.64.735.934 1.501-.818 2.016-2.11 2.226-3.748h1.029c-.074 1.533-.158 2.142-.294 2.32-.095.106-.168.126-.315.126-.168 0-.504 0-.872-.041.19.325.315.818.336 1.186.473.01.903 0 1.166-.042.314-.053.524-.147.734-.42.284-.347.379-1.344.473-3.77.01-.157.021-.482.021-.482h-2.173zm4.178-3.706h-1.207v5.91h1.207v-5.91zm.977-1.06v8.094c0 .179-.063.241-.252.241-.19 0-.777 0-1.376-.02.168.356.347.924.4 1.291.903 0 1.522-.042 1.931-.252.4-.21.536-.556.536-1.25v-8.105h-1.24zm9.65 1.553h-4.81v-.525h4.81v.525zm0 1.354h-4.81v-.535h4.81v.535zm1.27-2.76h-7.287v3.642h7.287v-3.643zm-2.898 7.076h3.234v-1.082h-3.234v-.787h3.895v-1.103h-9.26v1.103h4.095v2.666c-.672-.21-1.187-.598-1.512-1.312.084-.304.168-.62.241-.955l-1.25-.19c-.24 1.408-.881 2.52-1.952 3.182.283.179.766.64.945.871.609-.42 1.092-.976 1.47-1.669.882 1.218 2.184 1.48 4.105 1.48h2.992c.063-.357.252-.902.42-1.186-.745.032-2.761.032-3.349.032-.283 0-.567-.011-.84-.032v-1.018zM249.005-39.297h4.253v-1.302h-2.71v-5.543h-1.543v6.845z"/><path d="M251.46-43.898c.126-.453.244-.983.356-1.465h.028c.119.475.244 1.012.37 1.465l.104.419h-.97l.112-.419zm-1.646 2.302h1.046l.28-1.081h1.388l.278 1.081h1.088l-1.422-4.548h-1.235l-1.423 4.548z"/><path d="M254.419-39.297h1.554v-5.543h1.879v-1.302h-5.312v1.302h1.879v5.543z"/><path d="M257.173-36.693h4.39v-1.302h-2.846v-1.575h2.33v-1.291h-2.33v-1.375h2.74v-1.302h-4.284v6.845z"/><path d="M260.922-39.297h1.658l.64-1.396c.148-.357.305-.704.463-1.124h.042c.189.42.346.767.514 1.124l.683 1.396h1.721l-1.89-3.444 1.775-3.401h-1.648l-.546 1.29c-.137.316-.284.673-.441 1.103h-.042c-.19-.43-.336-.787-.494-1.102l-.598-1.291h-1.722l1.785 3.328-1.9 3.517zm8.389.126c1.344 0 2.478-.703 2.478-1.942 0-.861-.557-1.407-1.323-1.628v-.042c.713-.304 1.113-.787 1.113-1.48 0-1.166-.924-1.827-2.3-1.827-.819 0-1.49.326-2.1.85l.777.946c.42-.368.777-.589 1.25-.589.525 0 .819.274.819.735 0 .536-.378.893-1.575.893v1.092c1.449 0 1.795.367 1.795.955 0 .504-.43.788-1.081.788-.567 0-1.06-.284-1.46-.672l-.714.976c.483.567 1.24.945 2.32.945zM276.313-40.567v-2.058h1.67v2.058h-1.67zm1.67-3.14h-1.67v-1.7h1.67v1.7zm3.338-2.866c.158-.44.294-.882.41-1.333l-1.197-.273c-.305 1.228-.809 2.499-1.418 3.38v-1.7h-1.627c.178-.452.367-.977.546-1.502l-1.365-.189a11.238 11.238 0 0 1-.305 1.69h-1.186v7.801h1.134v-.766h2.803v-4.903c.284.189.64.43.808.588.326-.452.651-1.03.925-1.659h2.246c-.115 3.706-.252 5.281-.556 5.617-.137.137-.252.178-.462.178-.273 0-.893 0-1.564-.062.22.346.388.87.409 1.217.62.021 1.25.032 1.648-.02.42-.074.714-.19 1.008-.578.43-.557.546-2.226.683-6.92.01-.146.01-.566.01-.566h-2.95zm1.208 4.788c-.326-.61-1.019-1.607-1.544-2.331l-.976.556c.514.767 1.165 1.796 1.459 2.425l1.06-.65zm12.442-.315c-.41-.578-1.197-1.292-1.974-1.89.535-.42 1.144-.977 1.68-1.491l-1.05-.661c-.336.462-.882 1.04-1.376 1.49a4.942 4.942 0 0 0-1.018-1.343c.241-.2.483-.431.693-.672h2.793v-1.03h-6.573v1.03h2.226c-.714.567-1.659 1.05-2.614 1.354.252.21.65.661.83.893a9.76 9.76 0 0 0 1.847-.977c.116.126.22.242.326.378-.673.588-1.796 1.176-2.72 1.501.21.2.546.588.704.83.818-.326 1.764-.924 2.498-1.544.085.168.147.326.21.504-.787.872-2.246 1.67-3.622 2.048.231.23.557.64.714.903a9.142 9.142 0 0 0 3.129-1.796c.021.557-.094.987-.284 1.187-.157.23-.315.273-.556.273-.22 0-.514-.022-.798-.053.19.326.262.787.273 1.092.273.021.546.032.766.021.494-.01.861-.116 1.198-.504.409-.378.619-1.218.535-2.173.525.493 1.008 1.008 1.28 1.417l.883-.787zm-7.056-4.084c-.325-.505-1.029-1.187-1.606-1.67l-.945.683c.577.514 1.239 1.238 1.522 1.742l1.03-.755zm-.241 1.742H285.3v1.155h1.176v2.804c-.43.21-.892.556-1.333.976l.776 1.07c.462-.597.998-1.207 1.355-1.207.262 0 .62.295 1.113.525.777.4 1.7.515 2.96.515 1.03 0 2.73-.063 3.423-.115.032-.336.21-.904.347-1.229-1.019.147-2.646.242-3.738.242-1.113 0-2.09-.063-2.803-.431-.4-.19-.662-.378-.903-.472v-3.833zm9.566 1.943a29.416 29.416 0 0 1-1.365 3.36l1.134.65c.43-1.029.881-2.236 1.238-3.36l-1.007-.65zm.934-1.838c-.41-.283-1.218-.703-1.774-.966l-.693.914c.567.294 1.343.766 1.721 1.06l.746-1.008zm7.339-.577h-2.331v-1.48a11.692 11.692 0 0 0 2.236-.63l-.735-1.05c-.661.336-1.659.64-2.572.83v3.642c0 .872-.031 1.754-.168 2.604l-.115-1.029-.767.168v-.83h.714v-1.123h-.714v-1.428h-1.092v1.428h-.514c.2-.63.399-1.354.567-2.1h1.774v-1.113h-1.575c.053-.346.105-.671.137-1.007l-1.124-.137c-.02.378-.052.756-.094 1.144h-.588l.031-.041c-.399-.315-1.197-.756-1.743-1.03l-.735.914c.567.315 1.355.808 1.722 1.123l.588-.787v.935h.567c-.126.734-.262 1.322-.336 1.553-.126.462-.262.777-.451.84.126.263.294.788.357.987.084-.094.462-.157.766-.157h.651v1.07c-.672.148-1.27.274-1.753.358l.262 1.165c.452-.115.956-.241 1.491-.388v2.058h1.092v-2.342l.882-.23a7.957 7.957 0 0 1-.556 1.93c.262.18.64.473.84.715.818-1.596.955-3.35.955-5.24v-.272h.661v5.46h1.06v-5.46h.61v-1.05zm8.61.074c-.252.85-.599 1.627-1.008 2.33a24.71 24.71 0 0 1-.42-2.876h3.244v-1.24h-1.092l.504-.535c-.367-.346-1.134-.83-1.711-1.123l-.756.745c.43.263.955.599 1.344.914h-1.607a25.687 25.687 0 0 1-.02-1.554h-1.313c0 .525.021 1.04.042 1.554h-4.284v3.065c0 1.365-.073 3.192-.87 4.452.283.147.84.609 1.06.85.86-1.28 1.081-3.328 1.123-4.86h1.365c-.032 1.322-.074 1.826-.179 1.973-.084.105-.168.126-.315.126-.168 0-.525-.01-.903-.042.19.315.326.798.347 1.166.483.01.934.01 1.207-.032.315-.052.525-.147.725-.42.241-.304.304-1.239.336-3.444 0-.147.01-.472.01-.472h-2.593v-1.123h3.045c.136 1.574.367 3.044.724 4.23a8.015 8.015 0 0 1-2.142 1.702c.262.241.714.755.903 1.029.651-.4 1.239-.872 1.774-1.429.462.861 1.04 1.386 1.775 1.386.976 0 1.396-.461 1.596-2.404a3.392 3.392 0 0 1-1.06-.703c-.053 1.312-.18 1.837-.431 1.837-.336 0-.672-.44-.977-1.197.756-1.018 1.376-2.236 1.806-3.601l-1.25-.304zm7.613-2.646h-1.596a5.663 5.663 0 0 0-.43-.83l-1.135.263c.095.157.2.367.273.567h-1.974v.819h4.862v-.82zm-3.245 1.785h1.712v.493h-1.712v-.493zm2.783 1.133v-1.784h-3.801v1.784h3.8zm-3.182 6.132c.452-.493.872-1.281 1.113-1.964l-1.196-.293c-.232.672-.673 1.385-1.093 1.805l1.176.452zm1.848-3.643l1.617-.105.01-.809-1.627.084v-.073a9.686 9.686 0 0 0 1.46-.809l-.61-.514-.21.052h-3.359v.735h2.152a7.537 7.537 0 0 1-.535.231h-.032v.441c-.724.032-1.406.063-1.942.084l.074.85c.535-.03 1.186-.062 1.868-.104v.336c0 .115-.031.136-.157.147-.116 0-.504 0-.872-.021.127.241.273.567.337.85.608 0 1.06 0 1.396-.136.336-.126.43-.326.43-.809v-.43zm-.115 1.753c.105.599.168 1.386.168 1.858l1.25-.157c-.011-.462-.116-1.229-.253-1.816l-1.165.115zm2.152-.01c.22.587.43 1.375.493 1.858l1.26-.241c-.084-.484-.325-1.24-.567-1.806l-1.186.189zm2.404-5.25c.011.977.021 1.806.064 2.467a7.188 7.188 0 0 0-.809-.714 9.002 9.002 0 0 0 .147-1.753h.598zm-.598-1.05V-48.2h-1.092v1.564h-.882v1.05h.882c0 .336-.01.661-.052 1.008-.21-.136-.42-.273-.62-.399l-.577.86c.304.2.619.42.934.673-.252.724-.703 1.428-1.512 2.058.263.189.63.493.809.735.787-.61 1.301-1.302 1.606-2.027a5.6 5.6 0 0 1 .661.672l.525-.84c.126 1.355.441 2.016 1.24 2.016.66 0 .86-.493.944-1.627-.22-.158-.483-.483-.682-.735-.01.693-.053 1.291-.179 1.291-.346 0-.304-1.575-.273-4.735h-1.732zm.336 6.268c.367.62.787 1.45.924 1.974l1.26-.346c-.2-.525-.64-1.344-1.019-1.922l-1.165.294zM328.53-38.174c1.102-.388 1.816-1.249 1.816-2.383 0-.735-.315-1.207-.893-1.207-.43 0-.798.262-.798.756 0 .493.357.745.788.745.063 0 .115 0 .178-.01-.052.714-.514 1.207-1.322 1.543l.23.556zM337.49-43.234c1.67-.462 3.118-1.155 4.168-2.069v1.533h.263c.598 0 1.26-.241 1.26-.336v-2.299h.147c.598 1.428 1.648 2.362 3.013 3.045.168-.724.535-1.208 1.091-1.365l.022-.115c-1.334-.232-2.961-.704-3.854-1.565h3.434c.157 0 .273-.052.304-.168-.504-.44-1.333-1.081-1.333-1.081l-.735.955h-2.09v-1.123c.294-.053.368-.158.378-.305l-1.9-.157v1.585h-4.074l.084.294h3.108c-.703 1.134-1.9 2.31-3.36 3.055l.074.116zm7.948 1.816h-2.258v-.609c.19-.031.294-.084.337-.21.619-.147 1.322-.378 1.774-.598.23-.01.336-.042.42-.126l-1.208-1.134-.703.693h-4.483l.094.294h4.316c-.18.262-.42.556-.641.787l-1.428-.115v1.018h-4.2l.085.294h4.115v1.145c0 .115-.042.157-.178.157-.21 0-1.334-.073-1.334-.073v.136c.557.095.756.252.924.451.179.221.231.536.263.988 1.616-.127 1.847-.641 1.847-1.617v-1.187h4c.158 0 .274-.052.305-.168-.493-.44-1.323-1.081-1.323-1.081l-.724.955zM4.982-31.6c.378.389.82 1.03.987 1.617 1.334.745 2.279-1.722-.913-1.68l-.074.063zm-.766 2.268c.336.388.672 1.008.746 1.585 1.249.861 2.393-1.501-.673-1.638l-.073.053zm3.192-.535c-1.911 4.115-1.911 4.115-2.163 4.525-.126.21-.178.21-.347.21h-.483v.189c.22.01.41.073.557.168.252.178.294 1.207.073 2.299.116.42.43.546.693.546.599 0 1.03-.389 1.05-.945.032-.955-.472-1.25-.493-1.858-.01-.273.063-.672.147-1.03.126-.577.756-2.834 1.123-4.062l-.157-.042zm2.058 5.197v-.987h2.246v.987H9.466zm2.246-2.237v.956H9.466v-.956h2.246zm-.115-.283H9.528l-1.5-.588v5.827h.21c.619 0 1.228-.336 1.228-.483v-1.942h2.246v.829c0 .137-.042.21-.21.21-.252 0-1.428-.063-1.428-.063v.126c.588.105.809.252.988.441.188.19.24.504.283.924 1.596-.126 1.827-.62 1.827-1.49v-3.256c.22-.042.357-.147.42-.23l-1.355-1.03-.64.725zm.588-1.071h-.966v-.977h2.362c.147 0 .263-.052.284-.167-.452-.4-1.208-.987-1.208-.987l-.661.86h-.777v-.86h2.478c.147 0 .262-.053.294-.168-.483-.41-1.26-.977-1.26-.977l-.693.85h-.819v-.692c.283-.053.357-.158.378-.305l-1.869-.147v1.145H7.502l.084.294h2.142v.86H7.796l.084.294h1.848v.977H7.25l.084.294h6.594c.157 0 .273-.053.304-.168-.504-.42-1.323-1.019-1.323-1.019l-.724.893zM20.176-26.056V-27.8H23v1.743h-2.824zm-3.329 0c.032-.389.042-.777.042-1.124v-.62h2.51v1.744h-2.552zm2.552-4.158v1.68h-2.51v-1.68h2.51zm3.6 1.68h-2.823v-1.68H23v1.68zm.767-2.426h-7.643v3.78c0 1.46-.105 3.308-1.26 4.61.168.094.483.356.599.514.797-.893 1.154-2.09 1.312-3.255h2.625v3.097h.777v-3.097H23v2.131c0 .2-.074.263-.284.274-.189 0-.903.01-1.638-.022.105.21.231.546.263.756.987.01 1.596 0 1.953-.126.336-.136.472-.367.472-.87v-7.792zM27.892-22.917h3.885v-.745h-3.014v-6.143h-.871v6.888z"/><path d="M29.686-27.79c.167-.51.314-1.011.453-1.541h.028c.147.53.293 1.032.46 1.541l.217.698H29.47l.216-.698zm-1.395 2.56h.593l.44-1.395h1.666l.433 1.395h.62l-1.548-4.576h-.656l-1.548 4.576zM32.862-22.917h.882v-6.153h2.078v-.735h-5.039v.735h2.079v6.153zM35.312-20.365h4.074v-.745h-3.203v-2.5h2.615v-.745h-2.615v-2.162h3.098v-.735h-3.969v6.887z"/><path d="M38.746-22.917h.924l.997-1.858c.168-.336.346-.683.546-1.103h.042c.22.42.41.767.588 1.103l1.008 1.858h.965l-2.005-3.517 1.88-3.37h-.924l-.914 1.764a21.88 21.88 0 0 0-.493.997h-.042c-.21-.399-.357-.683-.536-.997l-.934-1.765h-.966l1.869 3.329-2.005 3.559zm7.706.126c1.229 0 2.205-.724 2.205-1.911 0-.924-.64-1.512-1.449-1.7v-.043c.725-.273 1.218-.787 1.218-1.595 0-1.082-.84-1.701-2.005-1.701-.788 0-1.407.356-1.921.84l.461.546c.4-.4.872-.683 1.428-.683.714 0 1.155.41 1.155 1.06 0 .704-.472 1.25-1.9 1.25v.661c1.596 0 2.142.536 2.142 1.334 0 .745-.578 1.228-1.386 1.228-.788 0-1.313-.378-1.711-.798l-.441.567c.45.493 1.133.945 2.204.945zM53.612-25.899v-.798h2.373v.798h-2.373zm0-2.11h2.373v.787h-2.373v-.787zm5.638 0v.787h-2.499v-.787h2.499zm0 2.11h-2.499v-.798h2.499v.798zm-2.499 2.814v-.903h3.675v-.63H56.75v-.724h3.286v-3.234h-3.286v-.63h4.273v-.64h-4.273v-.809c1.228-.095 2.373-.21 3.265-.378l-.42-.609c-1.648.305-4.588.494-7.013.557.073.168.157.43.168.62a70.565 70.565 0 0 0 3.234-.137v.756h-4.19v.64h4.19v.63h-3.14v3.234h3.14v.724H52.53v.63h3.455v.903h-4.242v.64h9.344v-.64h-4.336zm7.77-5.869h1.218v-.735h-1.218v-2.016h-.756v2.016h-1.553v.735h1.47c-.316 1.428-.977 3.087-1.66 3.958a3.8 3.8 0 0 1 .43.756c.484-.703.956-1.827 1.313-2.992v5.113h.756v-5.397c.294.525.64 1.166.788 1.512l.493-.577c-.189-.305-1.008-1.544-1.28-1.89v-.483zm5.344 4.389c-.167-.63-.609-1.69-.997-2.51l-.588.21c.168.368.367.798.535 1.218l-1.858.336a18.56 18.56 0 0 0 1.27-3.024l-.755-.22c-.273 1.207-.861 2.51-1.04 2.856-.168.336-.325.577-.493.62.094.188.21.545.252.692.189-.115.525-.2 2.834-.661.095.283.168.535.221.745l.62-.262zm1.596-5.418h-4.115c.189-.493.356-1.018.493-1.543l-.756-.179c-.336 1.418-.913 2.804-1.67 3.685.19.116.505.357.641.483a9.16 9.16 0 0 0 .998-1.722h3.632c-.136 4.274-.294 5.87-.598 6.226-.116.137-.21.18-.4.168-.22 0-.724 0-1.29-.052.147.22.24.546.251.777.515.031 1.04.042 1.344 0 .347-.042.567-.126.777-.42.389-.515.525-2.12.693-7.024v-.399zm9.43-.955l-.19.052h-7.496v.766h6.751c-.788.746-1.911 1.565-2.919 2.058v4.924c0 .19-.063.242-.283.253-.242.01-1.05.02-1.922-.011.126.21.273.556.315.777 1.06 0 1.754-.01 2.153-.136.41-.116.546-.347.546-.883v-4.535c1.301-.714 2.73-1.806 3.653-2.814l-.609-.451zm3.339 1.543h1.134v.766H84.23v-.766zm2.866 0v.766h-1.04v-.766h1.04zm-1.732 3.097h.693v-1.344c.493.263 1.07.64 1.375.914l.346-.462a7.235 7.235 0 0 0-1.427-.882l-.294.357v-.389h1.711v-1.806h-1.711v-.535h1.974v-.598h-1.974v-.662h-.693v.662h-2.079v.598h2.079v.535h-1.775v1.806h1.523c-.493.567-1.292 1.113-2.005 1.376.147.126.346.367.45.514.62-.283 1.303-.798 1.807-1.344v1.26zm2.918 2.373h3.003v-.609h-3.002v-.819h3.695v-.65h-8.094v.65h3.632v2.29h-1.858v-1.733h-.746v1.732H83.19v.672h9.46v-.672h-4.368v-.86zm1.103-5.942l1.816-.011a4.374 4.374 0 0 1-.84 1.596 5.455 5.455 0 0 1-.976-1.585zm3.234-.011v-.65H89.7a8.27 8.27 0 0 0 .367-1.009l-.713-.157c-.284 1.05-.809 2.037-1.492 2.656.148.126.42.388.526.525.21-.21.42-.462.619-.725.21.473.515.956.903 1.407-.546.473-1.228.83-2.037 1.092.137.126.368.42.452.557.787-.294 1.48-.662 2.047-1.155a5.732 5.732 0 0 0 1.91 1.186c.085-.168.295-.462.442-.598a5.522 5.522 0 0 1-1.88-1.06c.483-.557.85-1.24 1.103-2.069h.672zm5.376 7.759h.798v-6.499h-.798v6.499zm.472-9.586c-1.05 1.754-2.928 3.276-4.903 4.126.21.179.452.483.578.704 1.596-.777 3.15-1.995 4.273-3.434 1.376 1.649 2.751 2.636 4.305 3.444.115-.241.357-.535.567-.693-1.617-.787-3.087-1.774-4.42-3.36.105-.147.189-.304.283-.461l-.683-.326zm6.763 1.869h7.339v1.239h.777v-1.963h-3.749l.064-.021c-.126-.315-.389-.83-.599-1.197l-.798.21c.168.304.357.703.473 1.008h-4.263v1.963h.756v-1.24zm5.26 4.82c.347.44.756.965 1.113 1.48l-3.643.304a23.348 23.348 0 0 0 2.1-3.244l-.809-.273c-.62 1.312-1.543 2.677-1.848 3.024-.283.367-.493.619-.714.661.095.2.22.588.263.745.315-.126.787-.168 5.102-.577.2.294.368.556.494.787l.693-.44c-.452-.725-1.397-1.932-2.11-2.835l-.641.367zm-2.278-2.972c.168-.43.325-.882.451-1.344l-.798-.19c-.147.526-.315 1.04-.504 1.534h-3.034v.745h2.73c-.725 1.638-1.701 3.024-2.94 3.99.178.137.525.43.661.588 1.292-1.124 2.352-2.709 3.15-4.578h5.554v-.745h-5.27zm14.28-1.565c-.085 2.909-.2 3.97-.4 4.221-.094.126-.189.147-.346.137-.178.01-.599 0-1.05-.042.105.21.189.525.2.745.493.032.944.032 1.218 0 .283-.031.482-.115.66-.357.295-.378.4-1.596.515-5.081v-.368h-5.795c.23-.388.451-.798.64-1.228l-.787-.231c-.61 1.427-1.638 2.782-2.793 3.632.2.126.504.42.651.567.64-.525 1.26-1.207 1.816-1.995h5.47zm-2.762 1.785v1.69H117v-1.69h2.73zm-1.417 4.693c-1.113 0-1.313-.146-1.313-.714v-1.585h3.497v-3.097h-4.263v4.682c0 1.166.483 1.45 2.12 1.45h3.959c1.417 0 1.732-.389 1.89-1.764-.22-.042-.557-.158-.746-.284-.115 1.082-.262 1.312-1.154 1.312h-3.99zm10.206-4.052h-2.205v-2.194h2.205v2.194zm-2.205 3.212v-2.52h2.205v2.52h-2.205zm.882-7.81c-.074.493-.263 1.196-.42 1.7H125.6v7.643h.714v-.83h2.918v-6.813h-1.742c.178-.451.367-1.029.546-1.543l-.84-.158zm7.17 1.669h-3.139c.179-.494.326-.998.452-1.512l-.745-.179c-.337 1.438-.903 2.887-1.607 3.811.168.105.504.315.64.441.368-.493.694-1.134.987-1.837h2.667c-.136 4.179-.294 5.775-.64 6.142-.105.136-.22.157-.43.157-.242 0-.872 0-1.554-.062.146.22.241.535.262.766.588.031 1.186.052 1.554.01.357-.031.598-.126.83-.42.42-.514.556-2.13.724-6.918v-.4zm-1.658 4.724c-.336-.62-1.06-1.627-1.649-2.373l-.608.357c.577.756 1.28 1.796 1.596 2.426l.66-.41zm12.222-4.462c-.357-.472-1.103-1.186-1.733-1.68l-.567.378c.62.515 1.355 1.25 1.69 1.722l.61-.42zm-6.478-1.785c-.683 1.649-1.838 3.244-3.035 4.263.137.178.368.567.452.756.483-.441.955-.956 1.407-1.544v5.974h.787v-7.097c.43-.683.82-1.386 1.124-2.121l-.735-.23zm6.677 3.381l-.105-.735-3.139.399a36.522 36.522 0 0 1-.2-3.003h-.776a65.62 65.62 0 0 0 .2 3.108l-2.542.315.105.735 2.52-.315c.399 3.276 1.239 5.449 2.96 5.575.547.031.967-.515 1.198-2.31-.158-.073-.494-.262-.651-.41-.105 1.208-.273 1.828-.578 1.806-1.123-.105-1.806-1.984-2.163-4.766l3.171-.399zm3.686 4.063h-1.228v-3.097h1.228v3.097zm-2.593-6.289h1.28c-.283 1.596-.765 3.076-1.5 4.063.125.2.304.64.356.83.2-.252.379-.536.546-.84v3.79h.683v-.85h1.921v-4.494h-1.921c.273-.777.493-1.628.65-2.499h1.565v-.724h-3.58v.724zm7.738 5.344h-3.99v.704h3.99v-.704zm.231-2.047a72.93 72.93 0 0 0 .42-3.927l-.546-.063-.116.042h-3.632v.714h3.496c-.084.913-.22 2.184-.347 3.234h-2.183c.094-.777.199-1.743.252-2.541l-.725-.042c-.073 1.018-.21 2.404-.346 3.255h4.231c-.2 2.3-.42 3.223-.693 3.485-.105.105-.221.126-.399.126-.189 0-.651 0-1.165-.062.125.199.199.503.22.724.504.02.976.032 1.25 0 .314-.01.503-.095.713-.315.368-.378.609-1.47.84-4.284a8.23 8.23 0 0 0 .021-.346h-1.291zm3.612 5.333c1.103-.388 1.817-1.249 1.817-2.383 0-.735-.315-1.207-.893-1.207-.43 0-.798.262-.798.756s.357.745.788.745c.063 0 .115 0 .178-.01-.052.713-.514 1.207-1.322 1.543l.23.556zM169.7-29.889c-.179-.503-.662-1.26-1.113-1.826l-.714.304c.441.578.903 1.355 1.071 1.858l.756-.336zm-.326 3.35v-2.258h2.898v2.258h-2.898zm6.1 0h-2.394v-2.258h2.069v-.745h-2.352c.336-.567.693-1.291 1.008-1.921l-.882-.263c-.22.661-.609 1.544-.966 2.184h-5.418v.745h2.037v2.258h-2.425v.756h2.362c-.157 1.155-.682 2.278-2.341 3.118.168.147.441.44.556.63 1.901-.976 2.447-2.352 2.594-3.748h2.95v3.674h.808v-3.674h2.394v-.756zm3.035.64v-.798h2.373v.798h-2.373zm0-2.11h2.373v.787h-2.373v-.787zm5.639 0v.787h-2.5v-.787h2.5zm0 2.11h-2.5v-.798h2.5v.798zm-2.5 2.814v-.903h3.675v-.63h-3.675v-.724h3.287v-3.234h-3.287v-.63h4.274v-.64h-4.274v-.809c1.229-.095 2.373-.21 3.266-.378l-.42-.609c-1.649.305-4.588.494-7.014.557.074.168.158.43.168.62a70.569 70.569 0 0 0 3.234-.137v.756h-4.189v.64h4.189v.63h-3.139v3.234h3.139v.724h-3.454v.63h3.454v.903h-4.242v.64h9.345v-.64h-4.337zm10.185-7.517h-1.742a10.264 10.264 0 0 0-.557-1.134l-.703.178c.157.284.325.64.462.956h-2.058v.65h4.598v-.65zm-3.832 5.197c-.21.65-.556 1.291-.976 1.743.158.094.409.293.535.398.41-.493.84-1.249 1.082-1.973l-.641-.168zm-.083-4.326c.199.472.367 1.102.409 1.501l.661-.178c-.042-.399-.231-1.018-.441-1.47l-.629.147zm3.958 3.937v-.672h-1.953v-1.102h2.079v-.662h-1.334c.189-.44.399-1.008.578-1.511l-.714-.158a15.022 15.022 0 0 1-.567 1.67h-2.887v.66h2.131v1.103h-2.09v.672h2.09v2.656c0 .105-.021.137-.126.137-.116.01-.441.01-.798 0 .105.2.199.472.231.661.504 0 .861-.01 1.102-.125.242-.116.305-.295.305-.662v-2.667h1.953zm-1.533.62c.325.524.693 1.239.861 1.69l.546-.315c-.158-.451-.536-1.134-.872-1.648l-.535.273zm6.226-3.014h-3.486v-1.994c1.092-.168 2.299-.431 3.16-.756l-.63-.578c-.745.315-2.089.63-3.255.819v3.58c0 1.397-.094 3.17-.965 4.43.168.096.462.327.598.473.956-1.354 1.092-3.401 1.092-4.903v-.336h1.585v5.292h.756v-5.292h1.145v-.735zm3.413-3.538c-.609 1.586-1.628 3.15-2.688 4.147.147.168.368.578.441.756.388-.388.788-.85 1.155-1.365v6.121h.745v-7.244c.41-.704.788-1.449 1.082-2.184l-.735-.23zm1.48 5.145v-1.554h1.869v1.081c0 .158 0 .315-.01.473h-1.859zm4.567-1.554v1.554h-1.942c.011-.158.011-.315.011-.473v-1.081h1.931zm.746 2.215v-2.877h-2.677v-1.028h3.023v-.715h-3.023v-1.112h-.767v1.112h-2.898v.715h2.898v1.028h-2.593v2.877h2.54c-.073.578-.23 1.134-.566 1.617-.557-.388-1.008-.85-1.323-1.396l-.651.21a5.62 5.62 0 0 0 1.522 1.7c-.493.442-1.186.799-2.215 1.061.168.158.388.483.472.651 1.092-.326 1.848-.767 2.373-1.281 1.071.64 2.383 1.05 3.864 1.27.105-.23.294-.535.462-.703-1.491-.179-2.814-.535-3.864-1.113.42-.609.609-1.291.693-2.016h2.73zm6.468-.136V-27.8h2.824v1.743h-2.824zm-3.328 0c.031-.389.042-.777.042-1.124v-.62h2.509v1.744h-2.551zm2.551-4.158v1.68h-2.509v-1.68h2.509zm3.601 1.68h-2.824v-1.68h2.824v1.68zm.767-2.426h-7.644v3.78c0 1.46-.105 3.308-1.259 4.61.167.094.482.356.598.514.798-.893 1.155-2.09 1.312-3.255h2.625v3.097h.777v-3.097h2.824v2.131c0 .2-.073.263-.283.274-.189 0-.903.01-1.638-.022.105.21.231.546.262.756.987.01 1.596 0 1.953-.126.336-.136.473-.367.473-.87v-7.792zM222.855-22.791c.63 0 1.24-.368 1.66-.798h.03l.074.672h.714v-7.475h-.86v1.963l.041.945h-.031c-.441-.42-.914-.661-1.523-.661-1.207 0-2.32 1.028-2.32 2.687 0 1.701.882 2.667 2.215 2.667zm.179-.724c-.945 0-1.501-.735-1.501-1.953 0-1.166.713-1.953 1.595-1.953.441 0 .882.168 1.344.598v2.541c-.451.504-.934.767-1.438.767zm6.426.724c1.344 0 2.52-.976 2.52-2.667 0-1.711-1.176-2.687-2.52-2.687s-2.52.976-2.52 2.687c0 1.69 1.176 2.667 2.52 2.667zm0-.714c-.977 0-1.627-.787-1.627-1.953 0-1.176.65-1.974 1.627-1.974.976 0 1.627.798 1.627 1.974 0 1.166-.65 1.953-1.627 1.953zm6.783.714c.756 0 1.46-.294 2.026-.798l-.388-.556c-.42.356-.945.64-1.575.64-1.176 0-1.964-.787-1.964-1.953 0-1.176.809-1.974 1.985-1.974.535 0 .976.22 1.396.588l.43-.556a2.593 2.593 0 0 0-1.858-.745c-1.543 0-2.845.976-2.845 2.687 0 1.69 1.197 2.667 2.793 2.667zM244.253-30.508c.65-.137 1.27-.304 1.753-.483l-.525-.609c-.924.368-2.562.683-3.947.872.094.178.178.43.22.62a61.983 61.983 0 0 0 1.732-.253v1.743h-2.047v.724h1.848c-.473 1.313-1.313 2.751-2.11 3.55.147.188.346.503.44.713.672-.724 1.355-1.91 1.87-3.129v4.62h.766v-4.588c.451.588 1.039 1.375 1.28 1.774l.473-.64c-.262-.326-1.354-1.607-1.753-2.027v-.273h1.826v-.724h-1.826v-1.89zm2.95 6.31v-5.785h2.341v5.785h-2.341zm-.766-6.53v8.147h.766v-.861h2.341v.787h.777v-8.073h-3.884zM254.247-22.917h1.743c2.027 0 3.15-1.281 3.15-3.475 0-2.184-1.123-3.413-3.192-3.413h-1.7v6.888zm.872-.714v-5.46h.766c1.575 0 2.352.966 2.352 2.699 0 1.742-.777 2.76-2.352 2.76h-.766zm7.665.84c1.344 0 2.52-.976 2.52-2.667 0-1.711-1.176-2.687-2.52-2.687s-2.52.976-2.52 2.687c0 1.69 1.176 2.667 2.52 2.667zm0-.714c-.977 0-1.627-.787-1.627-1.953 0-1.176.65-1.974 1.627-1.974.976 0 1.627.798 1.627 1.974 0 1.166-.65 1.953-1.627 1.953zm6.783.714c.756 0 1.46-.294 2.026-.798l-.388-.556c-.42.356-.945.64-1.575.64-1.176 0-1.964-.787-1.964-1.953 0-1.176.809-1.974 1.985-1.974.535 0 .976.22 1.396.588l.43-.556a2.593 2.593 0 0 0-1.858-.745c-1.543 0-2.845.976-2.845 2.687 0 1.69 1.197 2.667 2.793 2.667zm5.87 0c1.511 0 2.435-.871 2.435-1.964 0-1.018-.672-1.49-1.522-1.837l-.966-.42c-.588-.241-1.229-.483-1.229-1.144 0-.62.536-1.008 1.334-1.008.714 0 1.239.252 1.69.651l.462-.567a3.005 3.005 0 0 0-2.12-.85c-1.313 0-2.258.776-2.258 1.826 0 1.008.798 1.502 1.49 1.775l.988.43c.703.305 1.239.515 1.239 1.25 0 .64-.557 1.092-1.502 1.092-.787 0-1.501-.347-2.016-.861l-.524.608c.619.62 1.49 1.019 2.498 1.019zm7.234 0c.64 0 1.134-.137 1.596-.304l-.19-.63c-.367.136-.745.23-1.228.23-.987 0-1.291-.482-1.291-1.396v-2.425h2.51v-.704h-2.51v-1.637h-.714l-.116 1.637-1.47.053v.65h1.439v2.416c0 1.26.483 2.11 1.974 2.11zm3.696-.126h.86v-2.992c.61-1.06 1.334-1.46 2.1-1.46.4 0 .589.053.945.179l.2-.746c-.315-.157-.63-.21-1.008-.21-.945 0-1.743.515-2.278 1.334h-.032l-.073-1.208h-.714v5.103zm8.085 0h.86v-5.103h-3.233v.704h2.373v4.399zm.336-6.173c.388 0 .693-.263.693-.672 0-.4-.305-.673-.693-.673s-.693.274-.693.673c0 .409.304.672.693.672zm3.623 8.325h.86v-1.722l-.042-.965h.032c.451.42 1.05.66 1.522.66 1.228 0 2.32-1.018 2.32-2.75 0-1.585-.734-2.603-2.11-2.603-.63 0-1.291.325-1.764.776h-.031l-.074-.65h-.713v7.254zm2.225-2.75c-.346 0-.882-.169-1.365-.599v-2.54c.525-.526 1.05-.767 1.502-.767 1.018 0 1.438.756 1.438 1.88 0 1.259-.661 2.026-1.575 2.026zM311.344-23.694v-6.026h3.77v-.798h-8.295v.798h3.675v6.026h-4.22v.777h9.365v-.777h-4.295zm7.844-2.383h4.62v.945h-4.62v-.945zm4.62-4.473v.893h-4.62v-.893h4.62zm0 2.971v.903h-4.62v-.903h4.62zm0-.598h-4.62v-.882h4.62v.882zm2.33 3.045h-1.553v-6.069h-6.142v6.069h-1.67v.714h9.366v-.714zm-6.488.797c-.64.568-1.942 1.25-2.992 1.649.178.157.43.42.567.577 1.05-.42 2.341-1.112 3.16-1.753l-.735-.473zm2.898.505c1.155.545 2.352 1.217 3.087 1.721l.62-.587c-.778-.484-2.038-1.145-3.214-1.67l-.493.536zm9.964-5.229h1.733v1.869h-1.753c.02-.22.02-.43.02-.64v-1.229zm1.733 2.625v2.656h.766v-2.656h1.554v-.756h-1.554v-1.869h1.344v-.756h-1.344v-1.67h-.766v1.67h-1.733v-1.67h-.766v1.67h-1.48v.756h1.48v1.218c0 .22 0 .43-.021.65h-1.522v.757h1.438c-.147.787-.494 1.564-1.281 2.152.168.116.462.41.567.557.924-.704 1.323-1.712 1.48-2.71h1.838zm-4.473-3.36c-.336-.462-1.05-1.186-1.627-1.69l-.556.42c.577.524 1.27 1.28 1.595 1.764l.588-.494zm-.304 1.869h-2.205v.735h1.438v2.982c-.462.178-.997.65-1.554 1.238l.515.704c.535-.714 1.05-1.334 1.407-1.334.22 0 .567.347.987.63.724.452 1.596.578 2.887.578 1.008 0 2.866-.063 3.601-.116.021-.22.147-.598.231-.808a37.96 37.96 0 0 1-3.8.2c-1.187 0-2.058-.074-2.74-.504-.347-.21-.568-.41-.767-.536v-3.77zm17.419-3.14h-5.124v.735h5.124v-.735zm-6.877-.64c-.525.745-1.533 1.69-2.405 2.279.137.146.347.45.462.619.935-.662 2.006-1.68 2.688-2.604l-.745-.294zm.43 2.236c-.724 1.187-1.858 2.394-2.94 3.16.158.158.431.494.546.652.389-.305.788-.683 1.187-1.092v4.661h.777v-5.522c.43-.515.83-1.05 1.155-1.585l-.725-.274zm6.751 1.271h-5.88v.745h3.507v4.326c0 .178-.063.22-.262.23-.2.012-.892.012-1.638-.01.115.22.22.547.252.757 1.029 0 1.617 0 1.974-.116.346-.126.462-.368.462-.85v-4.337h1.585v-.745zM13.76-13.414c-.357-.472-1.103-1.186-1.733-1.68l-.567.378c.62.515 1.355 1.25 1.69 1.722l.61-.42zm-6.478-1.785c-.683 1.649-1.838 3.245-3.035 4.263.137.178.368.567.452.756.483-.441.955-.956 1.407-1.544v5.975h.787v-7.098c.43-.682.82-1.386 1.124-2.12l-.735-.232zm6.677 3.381l-.105-.735-3.139.399a36.5 36.5 0 0 1-.2-3.003h-.777c.043 1.092.116 2.132.2 3.108l-2.54.315.104.735 2.52-.315c.399 3.276 1.239 5.449 2.96 5.575.547.031.967-.515 1.198-2.31-.158-.073-.494-.262-.651-.41-.105 1.208-.273 1.828-.578 1.806-1.123-.105-1.806-1.984-2.163-4.766l3.171-.399zm3.686 4.063h-1.228v-3.097h1.228v3.097zm-2.593-6.289h1.28c-.283 1.596-.765 3.076-1.5 4.063.125.2.304.64.356.83.2-.252.379-.536.546-.84v3.79h.683v-.85h1.921v-4.494h-1.921c.273-.777.493-1.628.65-2.499h1.565v-.724h-3.58v.724zM22.79-8.7H18.8v.704h3.99V-8.7zm.23-2.047c.18-1.292.337-2.845.42-3.927l-.545-.063-.116.042h-3.632v.714h3.496c-.084.913-.22 2.184-.347 3.234h-2.184c.095-.777.2-1.743.253-2.54l-.725-.043c-.073 1.018-.21 2.404-.346 3.255h4.23c-.199 2.3-.42 3.223-.692 3.486-.105.105-.22.125-.4.125-.188 0-.65 0-1.165-.062.126.199.2.503.22.724.505.021.977.032 1.25 0 .315-.01.504-.095.714-.315.368-.378.61-1.47.84-4.284a8.8 8.8 0 0 0 .021-.346h-1.291zm5.829 0h-2.205v-2.194h2.205v2.194zm-2.205 3.213v-2.52h2.205v2.52h-2.205zm.882-7.812c-.074.494-.263 1.197-.42 1.701H25.93v7.643h.714v-.829h2.918v-6.814H27.82c.178-.451.367-1.029.546-1.543l-.84-.158zm7.17 1.67h-3.139c.179-.494.326-.998.452-1.512l-.746-.179c-.336 1.438-.902 2.888-1.606 3.811.168.105.504.315.64.442.368-.494.694-1.135.987-1.838h2.667c-.136 4.179-.294 5.775-.64 6.142-.105.136-.22.157-.43.157-.242 0-.872 0-1.554-.062.146.22.241.535.262.766.588.031 1.186.052 1.554.01.357-.031.598-.125.83-.42.42-.514.556-2.13.724-6.918v-.4zm-1.658 4.724c-.336-.62-1.06-1.627-1.649-2.372l-.608.356c.577.756 1.28 1.796 1.596 2.426l.66-.41zm5.177-4.934c.22.388.451.85.546 1.165l.661-.242a5.392 5.392 0 0 0-.462-.923h1.596v-.578h-2.803c.105-.252.189-.493.262-.756l-.756-.126c-.252.903-.714 1.785-1.28 2.373.188.084.514.263.661.357.315-.336.598-.777.84-1.27h.735zm5.344 6.184v1.008h-5.05v-1.008h5.05zm-.546-2.825v.893h-4.504v-.893h4.504zm-4.504 1.491h5.27v-2.09h-6.047v5.397h.777v-.356h5.05v.336h.766v-2.562H38.51v-.725zm1.606-4.01c.116.199.22.44.315.66h-3.853v1.712h.756v-1.091h6.94v1.091h.777v-1.711h-3.822a5.426 5.426 0 0 0-.42-.809l-.693.148zm2.058-1.407c.094-.252.179-.494.252-.756l-.756-.126c-.189.756-.546 1.501-1.018 1.995.189.094.504.251.64.367.22-.241.43-.556.62-.903h.734c.305.389.61.86.746 1.187l.63-.295a5.681 5.681 0 0 0-.578-.892h1.87v-.577h-3.14zm7.518 5.806l-1.144.378v-2.604h1.05v-.725h-1.05v-2.278h1.207v-.735H46.5v.735h1.302v2.278h-1.186v.725h1.186v2.835c-.535.178-1.018.325-1.407.44l.179.788c.934-.304 2.131-.714 3.255-1.092l-.137-.745zm1.291-3.538h1.596v1.333h-1.596v-1.333zm0-1.974h1.596v1.323h-1.596v-1.323zm3.875 1.323H53.25v-1.323h1.607v1.323zm0 1.984H53.25v-1.333h1.607v1.333zM53.313-6.79v-1.438h2.447v-.714h-2.447v-1.229h2.29v-4.672h-5.334v4.672h2.257v1.229h-2.383v.714h2.383v1.438h-3.192v.714h6.762v-.714h-2.783zm4.82 1.375c1.103-.388 1.817-1.249 1.817-2.383 0-.735-.315-1.207-.893-1.207-.43 0-.798.262-.798.756 0 .493.357.745.788.745.063 0 .115 0 .178-.01-.052.714-.514 1.207-1.323 1.543l.231.556zm18.795-5.7H74.67v-4h-.787v4H70.69v-2.573c.777-.252 1.501-.525 2.09-.83l-.589-.64c-1.039.63-2.887 1.208-4.546 1.596.116.157.242.44.284.63.65-.147 1.323-.325 1.995-.514v2.33h-2.363v.756h2.352c-.084 1.502-.514 2.972-2.457 4.064.168.126.441.409.557.587 2.131-1.217 2.582-2.918 2.667-4.65h3.202v4.63h.787v-4.63h2.258v-.756zm2.51 1.48a22.69 22.69 0 0 0 2.173-3.108l-.64-.388c-.21.377-.43.766-.662 1.133l-1.407.158c.64-.892 1.27-2.037 1.764-3.15l-.714-.346c-.451 1.28-1.25 2.635-1.48 2.981-.242.347-.43.61-.609.651.084.21.2.567.241.735.158-.073.41-.146 1.743-.325-.472.703-.913 1.26-1.113 1.47-.325.399-.587.65-.808.693.084.21.2.556.241.714.231-.168.588-.305 3.36-1.134a6.047 6.047 0 0 1-.052-.662l-2.037.578zm2.09 1.218c-1.313.483-2.668.976-3.56 1.26l.189.766c.976-.368 2.289-.861 3.517-1.354l-.147-.672zm3.768-5.491c-.241.976-.556 2.068-.819 2.803h1.796C86-10.096 85.6-9.246 85.086-8.521c-.693-.945-1.239-2.08-1.595-3.276.052-.662.105-1.376.136-2.11h1.67zm1.386 2.078l-.147.032h-1.07c.262-.86.566-1.942.797-2.845h-4.567v.735h1.166c-.126 3.338-.484 6.047-1.9 7.706.178.116.545.367.671.493.903-1.176 1.396-2.708 1.67-4.577.356.871.797 1.659 1.301 2.362a6.65 6.65 0 0 1-2.183 1.617c.167.116.44.41.546.598.766-.399 1.49-.923 2.12-1.616.578.65 1.229 1.196 1.964 1.585a3.2 3.2 0 0 1 .535-.64 6.421 6.421 0 0 1-2.016-1.544c.725-.966 1.281-2.194 1.596-3.706l-.483-.2zm3.161.105h2.751v-.703h-.913v-2.908h-.714v2.908h-1.124v-2.667h-.724v4.137c0 1.575-.095 3.454-.777 4.777.168.116.44.336.556.483.61-1.06.84-2.436.914-3.822h1.438v3.78h.725v-4.483h-2.142c.01-.252.01-.504.01-.746v-.756zm7.066.168c-.23 1.187-.63 2.216-1.144 3.035-.515-.861-.872-1.911-1.124-3.035h2.268zm.357-.745l-.126.02h-3.338v-1.71c1.417-.105 2.992-.305 4.104-.588l-.493-.651c-1.05.262-2.824.504-4.357.63v3.59c0 1.554-.095 3.507-.892 4.893.188.094.472.304.62.441.892-1.491 1.018-3.58 1.018-5.333v-.547h.23c.263 1.397.683 2.646 1.292 3.665a5.308 5.308 0 0 1-1.942 1.553c.157.148.356.431.461.63a6.155 6.155 0 0 0 1.911-1.522 5.263 5.263 0 0 0 1.775 1.522 2.8 2.8 0 0 1 .525-.63c-.735-.336-1.344-.85-1.838-1.5.735-1.093 1.27-2.531 1.512-4.337l-.462-.126zm11.025-.042v-.777h-4.158v-2.194h-.808v2.194h-4.126v.777h3.17c-.766 1.774-2.057 3.475-3.443 4.326.178.147.43.43.556.62 1.512-1.03 2.867-2.899 3.675-4.946h.168v3.874h-2.436v.777h2.436v1.953h.808v-1.953h2.436v-.777h-2.436v-3.874h.148c.787 2.047 2.141 3.937 3.695 4.914.126-.21.399-.494.599-.662-1.449-.819-2.772-2.478-3.528-4.252h3.244zm8.411-.44h-4.977v-1.408h4.977v1.407zm.808-2.111h-6.551v2.803h6.551v-2.803zm1.239 4.462v-.714h-9.071v.714h2.163c-.221.64-.473 1.365-.693 1.869h.472v.01h4.977c-.189 1.218-.399 1.795-.662 1.995-.115.094-.252.105-.493.105-.305 0-1.05-.01-1.795-.084.147.21.252.514.273.745.713.043 1.417.053 1.763.043.399-.021.662-.085.903-.305.378-.325.641-1.113.882-2.856.032-.115.042-.367.042-.367h-5.197c.126-.368.263-.767.378-1.155h6.058zm4.274-3.055c-.231-.42-.714-1.071-1.134-1.533l-.672.294c.42.483.893 1.155 1.092 1.585l.714-.346zm1.533.682c.021-.441.031-.85.031-1.25v-1.238h-.776v1.228c0 .399-.011.819-.042 1.26h-3.381v.777h3.297c-.252 1.848-1.082 3.948-3.591 5.575.199.137.483.389.609.578 2.688-1.785 3.528-4.116 3.779-6.153h3.602c-.147 3.549-.305 4.945-.62 5.26-.115.126-.241.158-.451.158-.263 0-.935 0-1.627-.074.146.241.251.577.272.809.63.041 1.302.052 1.659.02.389-.031.63-.125.872-.409.409-.494.546-1.963.714-6.131 0-.116.01-.41.01-.41h-4.357zm2.268 4.053c-.273-.546-.903-1.386-1.459-1.995l-.641.315c.536.63 1.155 1.512 1.418 2.058l.682-.378zM132.505-6.537h4.326v-.745h-1.943c-.346 0-.756.031-1.123.063 1.585-1.66 2.73-2.909 2.73-4.169 0-1.186-.767-1.973-2.006-1.973-.871 0-1.47.409-2.026 1.018l.494.494c.388-.452.87-.809 1.427-.809.85 0 1.27.546 1.27 1.312 0 1.082-1.133 2.29-3.149 4.295v.514zm6.111.126c.336 0 .62-.273.62-.651 0-.399-.284-.672-.62-.672-.347 0-.63.273-.63.672 0 .378.283.651.63.651zm3.916 0c1.334 0 2.142-1.25 2.142-3.496 0-2.247-.808-3.454-2.142-3.454-1.344 0-2.152 1.207-2.152 3.454s.808 3.496 2.152 3.496zm0-.693c-.787 0-1.312-.84-1.312-2.803s.525-2.762 1.312-2.762c.777 0 1.302.799 1.302 2.762s-.525 2.803-1.302 2.803zM146.784-5.414c1.103-.388 1.817-1.249 1.817-2.383 0-.735-.315-1.207-.893-1.207-.43 0-.798.262-.798.756 0 .493.357.745.788.745.063 0 .115 0 .178-.01-.052.714-.514 1.207-1.322 1.543l.23.556zm13-8.095c-.18-.503-.662-1.26-1.114-1.826l-.714.304c.441.578.903 1.355 1.071 1.858l.756-.336zm-.326 3.35v-2.258h2.897v2.258h-2.897zm6.1 0h-2.394v-2.258h2.068v-.745h-2.352c.336-.567.694-1.291 1.008-1.921l-.882-.263c-.22.662-.608 1.544-.966 2.184h-5.417v.745h2.037v2.258h-2.425v.756h2.362c-.158 1.155-.683 2.278-2.342 3.118.168.147.441.44.557.63 1.9-.976 2.446-2.352 2.593-3.748h2.95v3.674h.809v-3.674h2.394v-.756zm6.888-2.499h2.131c-.21 1.375-.546 2.53-1.05 3.475-.514-.976-.882-2.12-1.123-3.37l.042-.105zm3.633 0v-.735h-3.391c.188-.567.336-1.165.462-1.785l-.757-.147c-.346 1.722-.913 3.38-1.732 4.462v-3.716h-3.675v.766h2.909v2.215h-2.782v3.98c0 .367-.168.514-.326.588.126.189.262.566.315.797.23-.21.62-.388 3.654-1.553a3.099 3.099 0 0 1-.105-.735l-2.762.997v-3.307h2.751l-.052.063c.178.126.472.42.598.567.262-.378.525-.798.756-1.26.283 1.123.64 2.142 1.123 3.013-.619.882-1.459 1.544-2.561 2.048.157.167.388.525.462.713 1.07-.524 1.91-1.197 2.551-2.036.588.83 1.313 1.49 2.194 1.942.126-.2.347-.504.536-.651-.924-.42-1.67-1.102-2.247-1.974.672-1.134 1.113-2.53 1.396-4.252h.683zm5.933 1.396c-.242 1.313-.651 2.604-1.26 3.455.189.084.504.273.64.398.599-.902 1.06-2.299 1.344-3.716l-.724-.137zm3.664-1.942c-.158.368-.357.787-.546 1.155l.682.168c.284-.598.599-1.302.84-1.943l-.493-.146-.116.031h-3.37c.105-.388.21-.798.294-1.218l-.745-.136c-.242 1.333-.683 2.667-1.302 3.57v-.61h-1.334V-14.2a9.26 9.26 0 0 0 1.344-.42l-.462-.61c-.735.337-2.037.641-3.129.83.084.179.19.43.221.599.42-.063.861-.137 1.302-.231v1.7h-1.617v.735h1.522c-.398 1.208-1.102 2.552-1.743 3.297.116.168.305.473.389.662.514-.651 1.04-1.67 1.449-2.72v4.641h.724v-4.704c.336.462.735 1.05.903 1.344l.441-.62a36.342 36.342 0 0 0-1.344-1.5v-.4h1.24l-.043.064c.19.094.525.283.662.409.378-.557.724-1.281.997-2.079h1.05v6.51c0 .146-.052.178-.19.189-.135 0-.587 0-1.08-.011.105.21.23.536.272.746.651 0 1.103-.022 1.386-.148.284-.126.379-.336.379-.776v-6.51h1.417zm-.84 2.047c.451 1.145.892 2.657 1.04 3.643l.713-.23c-.157-.987-.598-2.457-1.081-3.602l-.672.19zM192.785-6.411c.892 0 1.564-.368 2.11-.998l-.483-.545c-.441.483-.934.777-1.596.777-1.302 0-2.131-1.092-2.131-2.825 0-1.71.86-2.782 2.163-2.782.588 0 1.04.263 1.407.651l.472-.567a2.513 2.513 0 0 0-1.89-.85c-1.753 0-3.055 1.354-3.055 3.57 0 2.246 1.28 3.569 3.003 3.569zM197.423-6.537h.881v-6.152h2.08v-.735h-5.04v.735h2.079v6.152zM199.866-3.985h4.074v-.745h-3.203v-2.5h2.615v-.745h-2.615v-2.162h3.098v-.735h-3.969v6.887z"/><path d="M203.3-6.537h.924l.997-1.858c.168-.336.346-.683.546-1.103h.042c.22.42.41.767.588 1.103l1.008 1.858h.965l-2.005-3.517 1.88-3.37h-.924l-.914 1.764a21.88 21.88 0 0 0-.493.997h-.042c-.21-.399-.357-.683-.536-.997l-.934-1.764h-.966l1.869 3.328-2.006 3.559zM212.203-13.456h7.339v1.239h.777v-1.963h-3.748l.063-.021c-.126-.315-.389-.83-.599-1.197l-.798.21c.168.304.357.703.473 1.008h-4.263v1.963h.756v-1.239zm5.26 4.82c.347.44.756.965 1.113 1.48l-3.643.304a23.35 23.35 0 0 0 2.1-3.244l-.809-.273c-.62 1.312-1.543 2.677-1.848 3.024-.283.367-.493.619-.714.661.095.2.22.588.263.745.315-.125.787-.168 5.102-.577.2.294.368.557.494.787l.693-.44c-.452-.725-1.397-1.932-2.11-2.835l-.641.367zm-2.278-2.972c.168-.43.325-.882.451-1.344l-.798-.189c-.147.525-.315 1.04-.504 1.533H211.3v.745h2.73c-.725 1.638-1.701 3.024-2.94 3.99.178.137.525.43.661.588 1.292-1.124 2.352-2.709 3.15-4.578h5.554v-.745h-5.27zm11.088-1.26h-2.541v-.703h2.54v.703zm0 1.25h-2.541v-.694h2.54v.693zm0 1.28h-2.541v-.724h2.54v.724zm-3.308.945h.767v-.315h7.013v-.63h-3.716v-.724h2.981v-.557h-2.981v-.693h2.95v-.556h-2.95v-.703h3.37v-.63h-3.077c-.115-.336-.367-.798-.598-1.155l-.693.21c.168.283.347.64.483.945h-2.383c.23-.326.42-.672.598-.987l-.798-.147c-.451.913-1.291 2.089-2.436 2.96.179.106.43.336.557.505.325-.274.64-.557.913-.851v3.328zm8.074 1.134v-.64h-4.304v-.704h-.767v.704h-4.242v.64h3.55c-.998.767-2.5 1.428-3.801 1.775.178.146.398.44.514.64 1.333-.42 2.908-1.218 3.979-2.142v2.247h.767v-2.257c1.07.892 2.656 1.669 4.01 2.068.116-.189.336-.483.494-.63-1.302-.326-2.793-.956-3.78-1.7h3.58zm2.626-.84a1.602 1.602 0 1 0 .012 3.204 1.602 1.602 0 0 0-.012-3.204zm0 2.667c-.578 0-1.06-.472-1.06-1.07 0-.578.482-1.061 1.06-1.061a1.066 1.066 0 1 1 0 2.131z"/></svg>