<svg xmlns="http://www.w3.org/2000/svg" width="800" height="599pt" viewBox="0 0 600 599"><g stroke-linecap="square" stroke-miterlimit="3.25"><path d="M324.102 586.063h16.402V569.66h-16.402zm0 0M553.734 586.063h16.403V569.66h-16.403zm0 0" fill="#839ae0" stroke-width=".03" stroke="#839ae0"/><path d="M570.137 586.063h16.402V569.66h-16.402zm0 0" fill="#c67c10" stroke-width=".03" stroke="#c67c10"/><path d="M307.7 569.66h16.402v-16.402h-16.403zm0 0" fill="#9dabdd" stroke-width=".03" stroke="#9dabdd"/><path d="M488.125 569.66h16.402v-16.402h-16.402zm0 0" fill="#d5d0d6" stroke-width=".03" stroke="#d5d0d6"/><path d="M537.332 569.66h16.402v-16.402h-16.402zm0 0" fill="#6687e4" stroke-width=".03" stroke="#6687e4"/><path d="M553.734 569.66h16.403v-16.402h-16.403zm0 0" fill="#f9af44" stroke-width=".03" stroke="#f9af44"/><path d="M570.137 569.66h16.402v-16.402h-16.402zm0 0" fill="#839ae0" stroke-width=".03" stroke="#839ae0"/><path d="M291.3 553.258h16.4v-16.403h-16.4zm0 0M471.723 553.258h16.402v-16.403h-16.402zm0 0" fill="#b8bdd9" stroke-width=".03" stroke="#b8bdd9"/><path d="M520.93 553.258h16.402v-16.403H520.93zm0 0" fill="#6687e4" stroke-width=".03" stroke="#6687e4"/><path d="M537.332 553.258h16.402v-16.403h-16.402zm0 0" fill="#fbc373" stroke-width=".03" stroke="#fbc373"/><path d="M553.734 553.258h16.403v-16.403h-16.403zm0 0" fill="#6687e4" stroke-width=".03" stroke="#6687e4"/><path d="M274.898 536.855h16.403v-16.402h-16.403zm0 0" fill="#d5d0d6" stroke-width=".03" stroke="#d5d0d6"/><path d="M455.32 536.855h16.403v-16.402H455.32zm0 0" fill="#9dabdd" stroke-width=".03" stroke="#9dabdd"/><path d="M504.527 536.855h16.403v-16.402h-16.403zm0 0" fill="#839ae0" stroke-width=".03" stroke="#839ae0"/><path d="M520.93 536.855h16.402v-16.402H520.93zm0 0" fill="#f9af44" stroke-width=".03" stroke="#f9af44"/><path d="M537.332 536.855h16.402v-16.402h-16.402zm0 0" fill="#6687e4" stroke-width=".03" stroke="#6687e4"/><path d="M438.918 520.453h16.402v-16.402h-16.402zm0 0" fill="#839ae0" stroke-width=".03" stroke="#839ae0"/><path d="M504.527 520.453h16.403v-16.402h-16.403zm0 0" fill="#c67c10" stroke-width=".03" stroke="#c67c10"/><path d="M520.93 520.453h16.402v-16.402H520.93zm0 0" fill="#839ae0" stroke-width=".03" stroke="#839ae0"/><path d="M258.496 504.05h16.402v-16.402h-16.402zm0 0" fill="#9dabdd" stroke-width=".03" stroke="#9dabdd"/><path d="M324.102 504.05h16.402v-16.402h-16.402zm0 0" fill="#d5d0d6" stroke-width=".03" stroke="#d5d0d6"/><path d="M471.723 504.05h16.402v-16.402h-16.402zm0 0" fill="#9dabdd" stroke-width=".03" stroke="#9dabdd"/><path d="M488.125 504.05h16.402v-16.402h-16.402zm0 0" fill="#f9af44" stroke-width=".03" stroke="#f9af44"/><path d="M553.734 504.05h16.403v-16.402h-16.403zm0 0" fill="#d5d0d6" stroke-width=".03" stroke="#d5d0d6"/><path d="M242.094 487.648h16.402v-16.402h-16.402zm0 0" fill="#b8bdd9" stroke-width=".03" stroke="#b8bdd9"/><path d="M307.7 487.648h16.402v-16.402h-16.403zm0 0" fill="#d5d0d6" stroke-width=".03" stroke="#d5d0d6"/><path d="M422.516 487.648h16.402v-16.402h-16.402zm0 0" fill="#b8bdd9" stroke-width=".03" stroke="#b8bdd9"/><path d="M455.32 487.648h16.403v-16.402H455.32zm0 0" fill="#839ae0" stroke-width=".03" stroke="#839ae0"/><path d="M471.723 487.648h16.402v-16.402h-16.402zm0 0" fill="#fcd7a2" stroke-width=".03" stroke="#fcd7a2"/><path d="M488.125 487.648h16.402v-16.402h-16.402zm0 0" fill="#9dabdd" stroke-width=".03" stroke="#9dabdd"/><path d="M537.332 487.648h16.402v-16.402h-16.402zm0 0" fill="#b8bdd9" stroke-width=".03" stroke="#b8bdd9"/><path d="M225.691 471.246h16.403v-16.402H225.69zm0 0M291.3 471.246h16.4v-16.402h-16.4zm0 0" fill="#d5d0d6" stroke-width=".03" stroke="#d5d0d6"/><path d="M406.113 471.246h16.403v-16.402h-16.403zm0 0" fill="#839ae0" stroke-width=".03" stroke="#839ae0"/><path d="M438.918 471.246h16.402v-16.402h-16.402zm0 0" fill="#9dabdd" stroke-width=".03" stroke="#9dabdd"/><path d="M455.32 471.246h16.403v-16.402H455.32zm0 0" fill="#fcd7a2" stroke-width=".03" stroke="#fcd7a2"/><path d="M471.723 471.246h16.402v-16.402h-16.402zm0 0" fill="#839ae0" stroke-width=".03" stroke="#839ae0"/><path d="M520.93 471.246h16.402v-16.402H520.93zm0 0" fill="#9dabdd" stroke-width=".03" stroke="#9dabdd"/><path d="M274.898 454.844h16.403V438.44h-16.403zm0 0" fill="#d5d0d6" stroke-width=".03" stroke="#d5d0d6"/><path d="M389.71 454.844h16.403V438.44h-16.402zm0 0" fill="#6687e4" stroke-width=".03" stroke="#6687e4"/><path d="M438.918 454.844h16.402V438.44h-16.402zm0 0" fill="#f9af44" stroke-width=".03" stroke="#f9af44"/><path d="M455.32 454.844h16.403V438.44H455.32zm0 0" fill="#9dabdd" stroke-width=".03" stroke="#9dabdd"/><path d="M504.527 454.844h16.403V438.44h-16.403zm0 0" fill="#839ae0" stroke-width=".03" stroke="#839ae0"/><path d="M209.29 438.441h16.401V422.04H209.29zm0 0M258.496 438.441h16.402V422.04h-16.402zm0 0M406.113 438.441h16.403V422.04h-16.403zm0 0" fill="#b8bdd9" stroke-width=".03" stroke="#b8bdd9"/><path d="M422.516 438.441h16.402V422.04h-16.402zm0 0" fill="#fbc373" stroke-width=".03" stroke="#fbc373"/><path d="M471.723 438.441h16.402V422.04h-16.402zm0 0" fill="#b8bdd9" stroke-width=".03" stroke="#b8bdd9"/><path d="M192.887 422.04h16.402v-16.403h-16.402zm0 0" fill="#d5d0d6" stroke-width=".03" stroke="#d5d0d6"/><path d="M242.094 422.04h16.402v-16.403h-16.402zm0 0" fill="#b8bdd9" stroke-width=".03" stroke="#b8bdd9"/><path d="M373.309 422.04h16.402v-16.403h-16.402zm0 0" fill="#9dabdd" stroke-width=".03" stroke="#9dabdd"/><path d="M389.71 422.04h16.403v-16.403h-16.402zm0 0" fill="#b8bdd9" stroke-width=".03" stroke="#b8bdd9"/><path d="M406.113 422.04h16.403v-16.403h-16.403zm0 0" fill="#fcd7a2" stroke-width=".03" stroke="#fcd7a2"/><path d="M422.516 422.04h16.402v-16.403h-16.402zm0 0" fill="#b8bdd9" stroke-width=".03" stroke="#b8bdd9"/><path d="M455.32 422.04h16.403v-16.403H455.32zm0 0" fill="#839ae0" stroke-width=".03" stroke="#839ae0"/><path d="M225.691 405.637h16.403v-16.403H225.69zm0 0" fill="#b8bdd9" stroke-width=".03" stroke="#b8bdd9"/><path d="M356.906 405.637h16.403v-16.403h-16.403zm0 0" fill="#6687e4" stroke-width=".03" stroke="#6687e4"/><path d="M389.71 405.637h16.403v-16.403h-16.402zm0 0" fill="#fbc373" stroke-width=".03" stroke="#fbc373"/><path d="M406.113 405.637h16.403v-16.403h-16.403zm0 0" fill="#b8bdd9" stroke-width=".03" stroke="#b8bdd9"/><path d="M438.918 405.637h16.402v-16.403h-16.402zm0 0" fill="#6687e4" stroke-width=".03" stroke="#6687e4"/><path d="M176.484 389.234h16.403v-16.402h-16.403zm0 0" fill="#d5d0d6" stroke-width=".03" stroke="#d5d0d6"/><path d="M209.29 389.234h16.401v-16.402H209.29zm0 0" fill="#9dabdd" stroke-width=".03" stroke="#9dabdd"/><path d="M356.906 389.234h16.403v-16.402h-16.403zm0 0" fill="#d5d0d6" stroke-width=".03" stroke="#d5d0d6"/><path d="M373.309 389.234h16.402v-16.402h-16.402zm0 0" fill="#f9af44" stroke-width=".03" stroke="#f9af44"/><path d="M406.113 389.234h16.403v-16.402h-16.403zm0 0M192.887 372.832h16.402V356.43h-16.402zm0 0" fill="#9dabdd" stroke-width=".03" stroke="#9dabdd"/><path d="M340.504 372.832h16.402V356.43h-16.402zm0 0" fill="#839ae0" stroke-width=".03" stroke="#839ae0"/><path d="M356.906 372.832h16.403V356.43h-16.403zm0 0" fill="#f9af44" stroke-width=".03" stroke="#f9af44"/><path d="M373.309 372.832h16.402V356.43h-16.402zm0 0" fill="#d5d0d6" stroke-width=".03" stroke="#d5d0d6"/><path d="M389.71 372.832h16.403V356.43h-16.402zm0 0" fill="#6687e4" stroke-width=".03" stroke="#6687e4"/><path d="M176.484 356.43h16.403v-16.403h-16.403zm0 0" fill="#839ae0" stroke-width=".03" stroke="#839ae0"/><path d="M340.504 356.43h16.402v-16.403h-16.402zm0 0" fill="#c67c10" stroke-width=".03" stroke="#c67c10"/><path d="M356.906 356.43h16.403v-16.403h-16.403zm0 0" fill="#839ae0" stroke-width=".03" stroke="#839ae0"/><path d="M160.082 340.027h16.402v-16.402h-16.402zm0 0" fill="#6687e4" stroke-width=".03" stroke="#6687e4"/><path d="M307.7 340.027h16.402v-16.402h-16.403zm0 0" fill="#9dabdd" stroke-width=".03" stroke="#9dabdd"/><path d="M324.102 340.027h16.402v-16.402h-16.402zm0 0" fill="#f9af44" stroke-width=".03" stroke="#f9af44"/><path d="M488.125 340.027h16.402v-16.402h-16.402zm0 0" fill="#d5d0d6" stroke-width=".03" stroke="#d5d0d6"/><path d="M570.137 340.027h16.402v-16.402h-16.402zm0 0M143.68 323.625h16.402v-16.402H143.68zm0 0" fill="#839ae0" stroke-width=".03" stroke="#839ae0"/><path d="M258.496 323.625h16.402v-16.402h-16.402zm0 0" fill="#d5d0d6" stroke-width=".03" stroke="#d5d0d6"/><path d="M291.3 323.625h16.4v-16.402h-16.4zm0 0" fill="#839ae0" stroke-width=".03" stroke="#839ae0"/><path d="M307.7 323.625h16.402v-16.402h-16.403zm0 0" fill="#fcd7a2" stroke-width=".03" stroke="#fcd7a2"/><path d="M324.102 323.625h16.402v-16.402h-16.402zm0 0" fill="#9dabdd" stroke-width=".03" stroke="#9dabdd"/><path d="M471.723 323.625h16.402v-16.402h-16.402zm0 0" fill="#d5d0d6" stroke-width=".03" stroke="#d5d0d6"/><path d="M553.734 323.625h16.403v-16.402h-16.403zm0 0" fill="#9dabdd" stroke-width=".03" stroke="#9dabdd"/><path d="M127.277 307.223h16.403V290.82h-16.403zm0 0M242.094 307.223h16.402V290.82h-16.402zm0 0" fill="#b8bdd9" stroke-width=".03" stroke="#b8bdd9"/><path d="M274.898 307.223h16.403V290.82h-16.403zm0 0" fill="#9dabdd" stroke-width=".03" stroke="#9dabdd"/><path d="M291.3 307.223h16.4V290.82h-16.4zm0 0" fill="#fcd7a2" stroke-width=".03" stroke="#fcd7a2"/><path d="M307.7 307.223h16.402V290.82h-16.403zm0 0" fill="#839ae0" stroke-width=".03" stroke="#839ae0"/><path d="M455.32 307.223h16.403V290.82H455.32zm0 0" fill="#d5d0d6" stroke-width=".03" stroke="#d5d0d6"/><path d="M537.332 307.223h16.402V290.82h-16.402zm0 0" fill="#b8bdd9" stroke-width=".03" stroke="#b8bdd9"/><path d="M225.691 290.82h16.403v-16.402H225.69zm0 0" fill="#9dabdd" stroke-width=".03" stroke="#9dabdd"/><path d="M274.898 290.82h16.403v-16.402h-16.403zm0 0" fill="#f9af44" stroke-width=".03" stroke="#f9af44"/><path d="M291.3 290.82h16.4v-16.402h-16.4zm0 0" fill="#9dabdd" stroke-width=".03" stroke="#9dabdd"/><path d="M438.918 290.82h16.402v-16.402h-16.402zm0 0M520.93 290.82h16.402v-16.402H520.93zm0 0" fill="#d5d0d6" stroke-width=".03" stroke="#d5d0d6"/><path d="M110.875 274.418h16.402v-16.402h-16.402zm0 0" fill="#839ae0" stroke-width=".03" stroke="#839ae0"/><path d="M160.082 274.418h16.402v-16.402h-16.402zm0 0M242.094 274.418h16.402v-16.402h-16.402zm0 0" fill="#b8bdd9" stroke-width=".03" stroke="#b8bdd9"/><path d="M258.496 274.418h16.402v-16.402h-16.402zm0 0" fill="#fcd7a2" stroke-width=".03" stroke="#fcd7a2"/><path d="M307.7 274.418h16.402v-16.402h-16.403zm0 0" fill="#d5d0d6" stroke-width=".03" stroke="#d5d0d6"/><path d="M422.516 274.418h16.402v-16.402h-16.402zm0 0" fill="#b8bdd9" stroke-width=".03" stroke="#b8bdd9"/><path d="M488.125 274.418h16.402v-16.402h-16.402zm0 0" fill="#9dabdd" stroke-width=".03" stroke="#9dabdd"/><path d="M94.473 258.016h16.402v-16.403H94.473zm0 0M143.68 258.016h16.402v-16.403H143.68zm0 0M209.29 258.016h16.401v-16.403H209.29zm0 0" fill="#b8bdd9" stroke-width=".03" stroke="#b8bdd9"/><path d="M225.691 258.016h16.403v-16.403H225.69zm0 0M258.496 258.016h16.402v-16.403h-16.402zm0 0M291.3 258.016h16.4v-16.403h-16.4zm0 0M406.113 258.016h16.403v-16.403h-16.403zm0 0M471.723 258.016h16.402v-16.403h-16.402zm0 0M127.277 241.613h16.403v-16.402h-16.403zm0 0" fill="#b8bdd9" stroke-width=".03" stroke="#b8bdd9"/><path d="M192.887 241.613h16.402v-16.402h-16.402zm0 0" fill="#839ae0" stroke-width=".03" stroke="#839ae0"/><path d="M225.691 241.613h16.403v-16.402H225.69zm0 0" fill="#fcd7a2" stroke-width=".03" stroke="#fcd7a2"/><path d="M242.094 241.613h16.402v-16.402h-16.402zm0 0" fill="#b8bdd9" stroke-width=".03" stroke="#b8bdd9"/><path d="M274.898 241.613h16.403v-16.402h-16.403zm0 0" fill="#9dabdd" stroke-width=".03" stroke="#9dabdd"/><path d="M389.71 241.613h16.403v-16.402h-16.402zm0 0" fill="#b8bdd9" stroke-width=".03" stroke="#b8bdd9"/><path d="M455.32 241.613h16.403v-16.402H455.32zm0 0" fill="#d5d0d6" stroke-width=".03" stroke="#d5d0d6"/><path d="M78.07 225.21h16.403V208.81H78.07zm0 0" fill="#b8bdd9" stroke-width=".03" stroke="#b8bdd9"/><path d="M110.875 225.21h16.402V208.81h-16.402zm0 0" fill="#839ae0" stroke-width=".03" stroke="#839ae0"/><path d="M192.887 225.21h16.402V208.81h-16.402zm0 0" fill="#d5d0d6" stroke-width=".03" stroke="#d5d0d6"/><path d="M209.29 225.21h16.401V208.81H209.29zm0 0" fill="#fcd7a2" stroke-width=".03" stroke="#fcd7a2"/><path d="M242.094 225.21h16.402V208.81h-16.402zm0 0" fill="#b8bdd9" stroke-width=".03" stroke="#b8bdd9"/><path d="M373.309 225.21h16.402V208.81h-16.402zm0 0" fill="#9dabdd" stroke-width=".03" stroke="#9dabdd"/><path d="M422.516 225.21h16.402V208.81h-16.402zm0 0" fill="#b8bdd9" stroke-width=".03" stroke="#b8bdd9"/><path d="M94.473 208.809h16.402v-16.403H94.473zm0 0" fill="#839ae0" stroke-width=".03" stroke="#839ae0"/><path d="M176.484 208.809h16.403v-16.403h-16.403zm0 0" fill="#9dabdd" stroke-width=".03" stroke="#9dabdd"/><path d="M192.887 208.809h16.402v-16.403h-16.402zm0 0" fill="#fcd7a2" stroke-width=".03" stroke="#fcd7a2"/><path d="M209.29 208.809h16.401v-16.403H209.29zm0 0" fill="#d5d0d6" stroke-width=".03" stroke="#d5d0d6"/><path d="M225.691 208.809h16.403v-16.403H225.69zm0 0" fill="#839ae0" stroke-width=".03" stroke="#839ae0"/><path d="M356.906 208.809h16.403v-16.403h-16.403zm0 0" fill="#9dabdd" stroke-width=".03" stroke="#9dabdd"/><path d="M406.113 208.809h16.403v-16.403h-16.403zm0 0" fill="#d5d0d6" stroke-width=".03" stroke="#d5d0d6"/><path d="M78.07 192.406h16.403v-16.402H78.07zm0 0" fill="#6687e4" stroke-width=".03" stroke="#6687e4"/><path d="M176.484 192.406h16.403v-16.402h-16.403zm0 0" fill="#f9af44" stroke-width=".03" stroke="#f9af44"/><path d="M192.887 192.406h16.402v-16.402h-16.402zm0 0" fill="#9dabdd" stroke-width=".03" stroke="#9dabdd"/><path d="M340.504 192.406h16.402v-16.402h-16.402zm0 0" fill="#839ae0" stroke-width=".03" stroke="#839ae0"/><path d="M373.309 192.406h16.402v-16.402h-16.402zm0 0" fill="#d5d0d6" stroke-width=".03" stroke="#d5d0d6"/><path d="M61.668 176.004H78.07v-16.402H61.668zm0 0" fill="#6687e4" stroke-width=".03" stroke="#6687e4"/><path d="M143.68 176.004h16.402v-16.402H143.68zm0 0" fill="#b8bdd9" stroke-width=".03" stroke="#b8bdd9"/><path d="M160.082 176.004h16.402v-16.402h-16.402zm0 0" fill="#fbc373" stroke-width=".03" stroke="#fbc373"/><path d="M258.496 176.004h16.402v-16.402h-16.402zm0 0" fill="#b8bdd9" stroke-width=".03" stroke="#b8bdd9"/><path d="M324.102 176.004h16.402v-16.402h-16.402zm0 0" fill="#6687e4" stroke-width=".03" stroke="#6687e4"/><path d="M45.266 159.602h16.402v-16.403H45.266zm0 0" fill="#9dabdd" stroke-width=".03" stroke="#9dabdd"/><path d="M110.875 159.602h16.402v-16.403h-16.402zm0 0" fill="#d5d0d6" stroke-width=".03" stroke="#d5d0d6"/><path d="M127.277 159.602h16.403v-16.403h-16.403zm0 0" fill="#b8bdd9" stroke-width=".03" stroke="#b8bdd9"/><path d="M143.68 159.602h16.402v-16.403H143.68zm0 0" fill="#fcd7a2" stroke-width=".03" stroke="#fcd7a2"/><path d="M160.082 159.602h16.402v-16.403h-16.402zm0 0M242.094 159.602h16.402v-16.403h-16.402zm0 0" fill="#b8bdd9" stroke-width=".03" stroke="#b8bdd9"/><path d="M307.7 159.602h16.402v-16.403h-16.403zm0 0" fill="#839ae0" stroke-width=".03" stroke="#839ae0"/><path d="M94.473 143.2h16.402v-16.403H94.473zm0 0" fill="#b8bdd9" stroke-width=".03" stroke="#b8bdd9"/><path d="M127.277 143.2h16.403v-16.403h-16.403zm0 0" fill="#fbc373" stroke-width=".03" stroke="#fbc373"/><path d="M143.68 143.2h16.402v-16.403H143.68zm0 0M225.691 143.2h16.403v-16.403H225.69zm0 0M291.3 143.2h16.4v-16.403h-16.4zm0 0" fill="#b8bdd9" stroke-width=".03" stroke="#b8bdd9"/><path d="M28.863 126.797h16.403v-16.402H28.863zm0 0M61.668 126.797H78.07v-16.402H61.668zm0 0" fill="#9dabdd" stroke-width=".03" stroke="#9dabdd"/><path d="M94.473 126.797h16.402v-16.402H94.473zm0 0" fill="#d5d0d6" stroke-width=".03" stroke="#d5d0d6"/><path d="M110.875 126.797h16.402v-16.402h-16.402zm0 0" fill="#fcd7a2" stroke-width=".03" stroke="#fcd7a2"/><path d="M143.68 126.797h16.402v-16.402H143.68zm0 0" fill="#d5d0d6" stroke-width=".03" stroke="#d5d0d6"/><path d="M209.29 126.797h16.401v-16.402H209.29zm0 0M258.496 126.797h16.402v-16.402h-16.402zm0 0" fill="#839ae0" stroke-width=".03" stroke="#839ae0"/><path d="M45.266 110.395h16.402V93.992H45.266zm0 0" fill="#9dabdd" stroke-width=".03" stroke="#9dabdd"/><path d="M78.07 110.395h16.403V93.992H78.07zm0 0" fill="#b8bdd9" stroke-width=".03" stroke="#b8bdd9"/><path d="M94.473 110.395h16.402V93.992H94.473zm0 0" fill="#fcd7a2" stroke-width=".03" stroke="#fcd7a2"/><path d="M110.875 110.395h16.402V93.992h-16.402zm0 0" fill="#d5d0d6" stroke-width=".03" stroke="#d5d0d6"/><path d="M127.277 110.395h16.403V93.992h-16.403zm0 0" fill="#b8bdd9" stroke-width=".03" stroke="#b8bdd9"/><path d="M192.887 110.395h16.402V93.992h-16.402zm0 0" fill="#839ae0" stroke-width=".03" stroke="#839ae0"/><path d="M242.094 110.395h16.402V93.992h-16.402zm0 0" fill="#b8bdd9" stroke-width=".03" stroke="#b8bdd9"/><path d="M28.863 93.992h16.403V77.59H28.863zm0 0" fill="#6687e4" stroke-width=".03" stroke="#6687e4"/><path d="M78.07 93.992h16.403V77.59H78.07zm0 0" fill="#fbc373" stroke-width=".03" stroke="#fbc373"/><path d="M94.473 93.992h16.402V77.59H94.473zm0 0" fill="#b8bdd9" stroke-width=".03" stroke="#b8bdd9"/><path d="M176.484 93.992h16.403V77.59h-16.403zm0 0" fill="#6687e4" stroke-width=".03" stroke="#6687e4"/><path d="M209.29 93.992h16.401V77.59H209.29zm0 0" fill="#b8bdd9" stroke-width=".03" stroke="#b8bdd9"/><path d="M12.46 77.59h16.403V61.187H12.461zm0 0" fill="#839ae0" stroke-width=".03" stroke="#839ae0"/><path d="M45.266 77.59h16.402V61.187H45.266zm0 0" fill="#d5d0d6" stroke-width=".03" stroke="#d5d0d6"/><path d="M61.668 77.59H78.07V61.187H61.668zm0 0" fill="#f9af44" stroke-width=".03" stroke="#f9af44"/><path d="M110.875 77.59h16.402V61.187h-16.402zm0 0" fill="#9dabdd" stroke-width=".03" stroke="#9dabdd"/><path d="M160.082 77.59h16.402V61.187h-16.402zm0 0" fill="#6687e4" stroke-width=".03" stroke="#6687e4"/><path d="M28.863 61.188h16.403V44.785H28.863zm0 0" fill="#d5d0d6" stroke-width=".03" stroke="#d5d0d6"/><path d="M45.266 61.188h16.402V44.785H45.266zm0 0" fill="#f9af44" stroke-width=".03" stroke="#f9af44"/><path d="M61.668 61.188H78.07V44.785H61.668zm0 0" fill="#d5d0d6" stroke-width=".03" stroke="#d5d0d6"/><path d="M94.473 61.188h16.402V44.785H94.473zm0 0M143.68 61.188h16.402V44.785H143.68zm0 0" fill="#9dabdd" stroke-width=".03" stroke="#9dabdd"/><path d="M12.46 44.785h16.403V28.383H12.461zm0 0" fill="#839ae0" stroke-width=".03" stroke="#839ae0"/><path d="M28.863 44.785h16.403V28.383H28.863zm0 0" fill="#f9af44" stroke-width=".03" stroke="#f9af44"/><path d="M45.266 44.785h16.402V28.383H45.266zm0 0" fill="#d5d0d6" stroke-width=".03" stroke="#d5d0d6"/><path d="M78.07 44.785h16.403V28.383H78.07zm0 0" fill="#6687e4" stroke-width=".03" stroke="#6687e4"/><path d="M110.875 44.785h16.402V28.383h-16.402zm0 0" fill="#9dabdd" stroke-width=".03" stroke="#9dabdd"/><path d="M12.46 28.383h16.403V11.98H12.461zm0 0" fill="#c67c10" stroke-width=".03" stroke="#c67c10"/><path d="M28.863 28.383h16.403V11.98H28.863zm0 0M61.668 28.383H78.07V11.98H61.668zm0 0" fill="#839ae0" stroke-width=".03" stroke="#839ae0"/><path d="M598.5 597.543H.5M.5 597.543V.5M.5.5h598M598.5.5v597.043" fill="none" stroke-width=".5" stroke="#666"/></g></svg>