<svg xmlns="http://www.w3.org/2000/svg" width="468.907" height="87.08pt" viewBox="0 -87.08 351.68 87.08"><path d="M24.13-82.46l.477.03c.459.03.508.11.508.897v4.722c0 .289-.09.508-.249.587l-.308.16v.229c.328-.02.657-.03.986-.03.777 0 1.543.03 2.32.03.42 0 .32 0 1.674-.03.07-.428.11-.747.21-1.713h-.32l-.119.498c-.09.388-.16.598-.22.647-.129.11-.995.18-2.18.18-.36 0-.588-.02-.847-.08v-5.2c0-.787.05-.867.508-.896l.478-.03v-.3a35.766 35.766 0 0 1-2.919 0v.3z"/><path d="M26.516-77.857c.25-.014.509-.021.76-.021.279 0 .565.007.844.02v-.208l-.258-.021c-.244-.021-.335-.07-.335-.182 0-.09.098-.39.244-.739l.195-.467h2.01l.32.802c.119.293.147.383.147.446 0 .077-.112.126-.286.14l-.328.02v.21c.32-.014.649-.021.97-.021.292 0 .592.007.885.02v-.208l-.237-.021c-.181-.014-.258-.147-.502-.712l-1.688-3.962h-.224s-.076.238-.341.83l-1.542 3.502c-.09.202-.223.328-.376.342l-.258.02v.21zm1.57-1.897l.885-2.079.879 2.079h-1.765z"/><path d="M30.521-82.758c.05.568.07.956.07 1.604h.309l.04-.787c.01-.24.12-.329.398-.329h1.544c.03.339.04.568.04.996v4.214c0 .787-.05.866-.508.896l-.478.03v.299a35.28 35.28 0 0 1 2.919 0v-.299l-.479-.03c-.458-.03-.508-.11-.508-.896v-4.214c0-.448.01-.667.04-.996h1.544c.28 0 .388.09.398.329l.04.787h.31c0-.648.02-1.036.069-1.604l-2.152.03h-1.573l-2.023-.03z"/><path d="M35.008-80.123l.478.03c.459.03.508.109.508.896v4.473c0 .787-.04.856-.508.896l-.358.03v.299c.408-.02.817-.03 1.225-.03.767 0 1.544.01 2.311.03l1.663-.03c0-.578.06-1.116.16-1.634h-.349l-.05.339c-.06.428-.189.737-.328.787-.21.07-.937.12-1.833.12-.518 0-.697-.02-.986-.08v-2.79l1.593-.03c.439 0 .628.04.698.37.04.219.05.587.05.587h.298a20.72 20.72 0 0 1 0-2.261h-.298s0 .329-.05.518c-.08.339-.27.378-.698.378-.498 0-1.155-.01-1.593-.04v-2.659c.308-.07.478-.08 1.165-.08.568 0 1.126.05 1.445.14.239.07.268.11.268.338v.648h.35c0-.598.049-1.076.158-1.514l-1.235-.03c-.767.02-1.544.03-2.31.03-.588 0-1.186-.01-1.774-.03v.299z"/><path d="M39.77-75.835a4.5 4.5 0 0 1 1.025 0l2.012-3.048 1.834 3.048a9.07 9.07 0 0 1 1.444 0v-.299l-.3-.03c-.188-.02-.328-.18-.657-.697l-1.753-2.79 1.534-2.071c.399-.538.528-.668.678-.678l.408-.03v-.298H44.99l-1.843 2.69-1.275-2.152c-.229-.379-.378-.548-.568-.648l-1.404.27.02.258.448.03c.24.02.588.349.916.897l1.276 2.121-1.943 2.62c-.249.339-.369.448-.588.478l-.259.03v.299zM48.974-75.835a25.874 25.874 0 0 1 2.49 0v-.299l-.457-.03c-.34-.02-.369-.09-.369-.717v-3.616l-.09-.04a5.77 5.77 0 0 1-1.554.409v.279h.369c.398 0 .438.07.438.727v2.241c0 .628-.03.697-.368.717l-.459.03v.299zm.748-5.927c0 .299.199.498.498.498.298 0 .498-.2.498-.498 0-.289-.2-.498-.488-.498-.31 0-.508.2-.508.498zm2.201 5.857c.518.17.907.24 1.365.24 1.305 0 2.231-.698 2.231-1.674 0-.31-.08-.538-.279-.737-.259-.26-.587-.369-1.464-.538-.817-.16-1.086-.359-1.086-.817 0-.498.349-.777.957-.777.667 0 1.175.349 1.175.817v.229h.279c.01-.578.02-.817.05-1.126-.528-.18-.887-.249-1.295-.249-1.156 0-1.863.548-1.863 1.445 0 .478.22.816.677 1.025.27.12.797.28 1.475.429.448.1.637.309.637.687 0 .538-.498.917-1.205.917-.727 0-1.245-.35-1.245-.847v-.408h-.3c0 .687-.03.986-.109 1.384zM58.653-76.97c0 .776.468 1.225 1.255 1.225.18 0 .349-.03.418-.08l1.236-.857-.05.847c.258-.02.518-.03.777-.03.249 0 .488.01.737.03v-.299l-.389-.02c-.239-.01-.279-.09-.279-.578v-1.822c0-1.455-.418-1.983-1.574-1.983-.428 0-.826.11-1.205.339l-.528.319v.647l.26.07.129-.309c.199-.468.308-.538.767-.538.936 0 1.325.369 1.355 1.275l-.987.18c-1.355.248-1.922.717-1.922 1.583zm.856-.14c0-.369.2-.717.498-.907.25-.149.797-.289 1.555-.398v1.315c-.29.408-.917.787-1.305.787-.399 0-.748-.369-.748-.797zM66.154-78.017c0 .797.269 1.455.757 1.853.338.289.807.419 1.454.419.2 0 .428-.04.478-.08l1.106-.927-.05.917c.26-.02.508-.03.767-.03.3 0 .608.01.907.03v-.299l-.459-.03c-.338-.02-.368-.09-.368-.717v-6.136l-.09-.08c-.438.17-.767.25-1.554.369v.279h.558c.18 0 .25.11.25.408v1.823c-.559-.24-.838-.319-1.186-.319-.27 0-.508.06-.757.19l-.877.458c-.568.298-.936 1.026-.936 1.872zm.866-.328c0-1.086.538-1.724 1.435-1.724.378 0 .777.13 1.125.369.21.14.33.269.33.348v1.285c0 .648-.02.748-.15.977-.28.468-.767.777-1.236.777-.876 0-1.504-.847-1.504-2.032zm5.19.318c0 1.405.888 2.361 2.172 2.361 1.534 0 2.63-1.066 2.63-2.56 0-1.345-.976-2.31-2.34-2.31-1.455 0-2.461 1.025-2.461 2.51zm.927-.338c0-1.196.479-1.843 1.355-1.843.916 0 1.594.996 1.594 2.35 0 1.146-.508 1.864-1.315 1.864-.976 0-1.634-.957-1.634-2.371zm4.454.408c0 1.345.946 2.291 2.28 2.291.519 0 1.266-.189 1.365-.338l.21-.32-.1-.148c-.368.199-.687.288-1.046.288-1.105 0-1.833-.856-1.833-2.171 0-1.066.498-1.664 1.395-1.664.438 0 .916.2 1.096.448l.07.608h.278c0-.458.05-.867.14-1.225-.399-.24-.747-.349-1.156-.349-.478 0-1.036.19-1.634.568-.697.438-1.065 1.136-1.065 2.012zm4.343-1.892h.369c.398 0 .438.07.438.727v1.673c0 .697.06 1.006.24 1.255.218.299.597.449 1.165.449.448 0 .847-.14 1.115-.389l.668-.618c0 .29-.01.449-.04.917a11.429 11.429 0 0 1 1.654 0v-.299l-.409-.03c-.339-.02-.368-.08-.368-.717v-3.616l-.09-.04a5.774 5.774 0 0 1-1.554.409v.279h.368c.399 0 .439.07.439.727v1.623c0 .22-.14.498-.369.727-.279.28-.597.419-.986.419-.349 0-.627-.11-.787-.299-.14-.16-.21-.468-.21-.906v-2.939l-.089-.04a5.77 5.77 0 0 1-1.554.409v.279zm5.988 4.014c.418-.02.846-.03 1.265-.03.398 0 .787.01 1.185.03v-.299l-.418-.03c-.339-.02-.369-.09-.369-.717v-2.112c0-.448.658-.936 1.256-.936.537 0 .906.508.906 1.265v1.783c0 .628-.03.697-.369.717l-.458.03v.299a25.85 25.85 0 0 1 2.49 0v-.299l-.458-.03c-.338-.02-.368-.09-.368-.717v-2.112c0-.448.657-.936 1.255-.936.538 0 .906.508.906 1.265v2.829c.26-.02.528-.03.787-.03.299 0 .588.01.887.03v-.299l-.468-.03c-.34-.02-.369-.09-.369-.717v-2.052c0-.986-.578-1.604-1.494-1.604-.349 0-.638.09-.817.25l-.757.677c-.319-.658-.727-.927-1.415-.927-.368 0-.647.09-.826.25l-.688.637v-.847l-.09-.04a5.769 5.769 0 0 1-1.553.409v.279h.368c.399 0 .439.07.439.727v2.241c0 .628-.03.697-.369.717l-.458.03v.299zm8.897-2.212c0 .628.139 1.166.418 1.545.388.527 1.066.836 1.813.836.368 0 .737-.08 1.145-.259.27-.11.479-.239.518-.299l.2-.338-.13-.1c-.638.379-.867.468-1.295.468-.647 0-1.185-.288-1.464-.777-.19-.328-.26-.607-.28-1.185H99.2a9.99 9.99 0 0 0 1.803-.14c.01-.139.02-.229.02-.348 0-1.146-.737-1.893-1.853-1.893-.368 0-.797.13-1.205.369-.817.468-1.145 1.086-1.145 2.121zm.946-.507c0-.469.04-.688.17-.947.208-.438.637-.707 1.115-.707.329 0 .588.13.767.398.219.33.318.618.318 1.285l-1.115.03c-.458 0-.717-.01-1.255-.06zm3.626 2.719a25.456 25.456 0 0 1 2.47 0v-.299l-.448-.03c-.338-.02-.368-.09-.368-.717v-2.112c0-.448.657-.936 1.265-.936.667 0 1.105.498 1.105 1.265v2.829c.26-.02.529-.03.787-.03.28 0 .548.01.827.03v-.299l-.408-.03c-.339-.02-.369-.08-.369-.717v-1.922c0-1.166-.547-1.734-1.663-1.734-.369 0-.578.07-.787.25l-.757.657v-.867l-.09-.04a5.77 5.77 0 0 1-1.554.409v.279h.369c.398 0 .438.07.438.727v2.241c0 .628-.03.697-.368.717l-.449.03v.299zm5.958-3.795l.757-.04v2.869c0 .737.329 1.056 1.096 1.056.229 0 .468-.05.528-.12l.478-.528-.13-.17c-.249.14-.398.19-.587.19-.39 0-.549-.2-.549-.687v-2.61h1.276l.09-.538-1.366.06v-.379c0-.418.03-.777.11-1.414l-.12-.11c-.238.15-.537.28-.846.379.03.299.04.488.04.787v.697l-.777.349v.209zM112.934-73.365v.3a25.872 25.872 0 0 1 2.49 0v-.3l-.458-.03c-.338-.02-.368-.09-.368-.717v-1.882c.299.179.617.249 1.065.249.29 0 .548-.06.708-.16l1.135-.737c.399-.259.867-1.285.867-1.922 0-1.106-.916-1.973-2.072-1.973-.368 0-.727.1-.887.25l-.817.746v-.956l-.09-.04a5.768 5.768 0 0 1-1.553.409v.279h.369c.398 0 .438.07.438.727v5.01c0 .628-.03.697-.369.717l-.458.03zm1.663-3.476v-2.072c0-.14.05-.25.18-.419.289-.368.697-.557 1.195-.557.936 0 1.534.657 1.534 1.693 0 1.116-.667 1.943-1.564 1.943-.548 0-.956-.18-1.344-.588zm4.454 1.006c.408-.02.817-.03 1.225-.03.478 0 .947.01 1.425.03v-.299l-.518-.03c-.449-.03-.468-.06-.468-.717v-1.713c0-.598.398-1.096.886-1.096.299 0 .508.14.667.458h.21l.09-1.195c-.11-.07-.29-.11-.469-.11-.299 0-.618.16-.827.409l-.557.657v-1.026l-.09-.04a5.771 5.771 0 0 1-1.554.409v.279h.369c.398 0 .438.07.438.727v2.241c0 .628-.03.697-.369.717l-.458.03v.299zm3.985-2.212c0 .628.14 1.166.418 1.545.389.527 1.066.836 1.813.836.369 0 .737-.08 1.146-.259.269-.11.478-.239.518-.299l.2-.338-.13-.1c-.638.379-.867.468-1.295.468-.648 0-1.186-.288-1.465-.777-.189-.328-.259-.607-.279-1.185h1.455a9.99 9.99 0 0 0 1.803-.14c.01-.139.02-.229.02-.348 0-1.146-.737-1.893-1.853-1.893-.369 0-.797.13-1.205.369-.817.468-1.146 1.086-1.146 2.121zm.946-.507c0-.469.04-.688.17-.947.209-.438.637-.707 1.115-.707.33 0 .588.13.767.398.22.33.319.618.319 1.285l-1.116.03c-.458 0-.717-.01-1.255-.06zm3.647 5.19v.298a25.872 25.872 0 0 1 2.49 0v-.299l-.458-.03c-.339-.02-.369-.09-.369-.717v-1.882c.3.179.618.249 1.066.249.289 0 .548-.06.707-.16l1.136-.737c.398-.259.867-1.285.867-1.922 0-1.106-.917-1.973-2.072-1.973-.369 0-.728.1-.887.25l-.817.746v-.956l-.09-.04a5.77 5.77 0 0 1-1.553.409v.279h.368c.399 0 .439.07.439.727v5.01c0 .628-.03.697-.37.717l-.457.03zm1.663-3.477v-2.072c0-.14.05-.25.18-.419.288-.368.697-.557 1.195-.557.936 0 1.534.657 1.534 1.693 0 1.116-.668 1.943-1.564 1.943-.548 0-.956-.18-1.345-.588zm4.563-.13c0 .777.468 1.226 1.255 1.226.18 0 .349-.03.419-.08l1.235-.857-.05.847c.26-.02.518-.03.777-.03.25 0 .488.01.737.03v-.299l-.388-.02c-.24-.01-.28-.09-.28-.578v-1.822c0-1.455-.417-1.983-1.573-1.983-.428 0-.827.11-1.206.339l-.527.319v.647l.259.07.13-.309c.198-.468.308-.538.766-.538.937 0 1.325.369 1.355 1.275l-.986.18c-1.355.248-1.923.717-1.923 1.583zm.857-.139c0-.369.2-.717.498-.907.249-.149.797-.289 1.554-.398v1.315c-.289.408-.917.787-1.305.787-.398 0-.747-.369-.747-.797zm4.015 1.275c.408-.02.817-.03 1.225-.03.478 0 .946.01 1.425.03v-.299l-.518-.03c-.449-.03-.468-.06-.468-.717v-1.713c0-.598.398-1.096.886-1.096.299 0 .508.14.667.458h.21l.089-1.195c-.109-.07-.289-.11-.468-.11-.299 0-.618.16-.827.409l-.557.657v-1.026l-.09-.04a5.77 5.77 0 0 1-1.554.409v.279h.369c.398 0 .438.07.438.727v2.241c0 .628-.03.697-.369.717l-.458.03v.299zM142.62-76.97c0 .776.468 1.225 1.255 1.225.179 0 .348-.03.418-.08l1.235-.857-.05.847c.259-.02.518-.03.777-.03.25 0 .489.01.738.03v-.299l-.389-.02c-.239-.01-.279-.09-.279-.578v-1.822c0-1.455-.418-1.983-1.574-1.983-.428 0-.826.11-1.205.339l-.528.319v.647l.259.07.129-.309c.2-.468.309-.538.768-.538.936 0 1.324.369 1.354 1.275l-.986.18c-1.355.248-1.922.717-1.922 1.583zm.856-.14c0-.369.199-.717.498-.907.249-.149.797-.289 1.554-.398v1.315c-.289.408-.916.787-1.305.787-.398 0-.747-.369-.747-.797zm4.025-2.52l.757-.04v2.869c0 .737.329 1.056 1.096 1.056.229 0 .468-.05.528-.12l.478-.528-.13-.17c-.249.14-.398.19-.587.19-.389 0-.548-.2-.548-.687v-2.61h1.275l.09-.538-1.365.06v-.379c0-.418.03-.777.11-1.414l-.12-.11c-.239.15-.538.28-.847.379.03.299.04.488.04.787v.697l-.777.349v.209zm3.238 3.795a25.86 25.86 0 0 1 2.49 0v-.299l-.458-.03c-.339-.02-.368-.09-.368-.717v-3.616l-.09-.04a5.77 5.77 0 0 1-1.554.409v.279h.369c.398 0 .438.07.438.727v2.241c0 .628-.03.697-.369.717l-.458.03v.299zm.747-5.927c0 .299.199.498.498.498s.498-.2.498-.498c0-.289-.199-.498-.488-.498-.309 0-.508.2-.508.498zm2.222 3.735c0 1.405.886 2.361 2.171 2.361 1.534 0 2.63-1.066 2.63-2.56 0-1.345-.976-2.31-2.341-2.31-1.454 0-2.46 1.025-2.46 2.51zm.926-.338c0-1.196.478-1.843 1.355-1.843.916 0 1.594.996 1.594 2.35 0 1.146-.508 1.864-1.315 1.864-.977 0-1.634-.957-1.634-2.371zm4.254 2.53a25.478 25.478 0 0 1 2.47 0v-.299l-.448-.03c-.338-.02-.368-.09-.368-.717v-2.112c0-.448.657-.936 1.265-.936.667 0 1.106.498 1.106 1.265v2.829c.259-.02.528-.03.786-.03.279 0 .548.01.827.03v-.299l-.408-.03c-.339-.02-.369-.08-.369-.717v-1.922c0-1.166-.547-1.734-1.663-1.734-.369 0-.578.07-.787.25l-.757.657v-.867l-.09-.04a5.77 5.77 0 0 1-1.554.409v.279h.369c.398 0 .438.07.438.727v2.241c0 .628-.03.697-.368.717l-.449.03v.299zM167.397-75.905c.518.17.906.24 1.364.24 1.305 0 2.232-.698 2.232-1.674 0-.31-.08-.538-.279-.737-.259-.26-.588-.369-1.465-.538-.816-.16-1.085-.359-1.085-.817 0-.498.348-.777.956-.777.667 0 1.175.349 1.175.817v.229h.279c.01-.578.02-.817.05-1.126-.528-.18-.886-.249-1.295-.249-1.155 0-1.863.548-1.863 1.445 0 .478.22.816.678 1.025.269.12.797.28 1.474.429.448.1.638.309.638.687 0 .538-.498.917-1.206.917-.727 0-1.245-.35-1.245-.847v-.408h-.299c0 .687-.03.986-.109 1.384zm4.045-4.253l.179.02c.249.03.379.14.518.488l1.643 4.024-.229.608c-.318.836-.707 1.305-1.085 1.305-.16 0-.339-.08-.508-.23h-.13l-.239.748c.189.1.349.15.538.15.667 0 1.096-.36 1.474-1.226l2.022-4.662c.399-.906.588-1.185.837-1.205l.279-.02v-.28a14.965 14.965 0 0 1-1.893 0v.28l.259.02c.419.03.508.149.359.508l-1.186 2.908c-.219-.378-.318-.607-.508-1.095l-.637-1.674c-.169-.438-.15-.627.239-.647l.379-.02v-.28a22.327 22.327 0 0 1-2.311 0v.28zm5.718 4.253c.518.17.906.24 1.365.24 1.305 0 2.231-.698 2.231-1.674 0-.31-.08-.538-.279-.737-.259-.26-.588-.369-1.464-.538-.817-.16-1.086-.359-1.086-.817 0-.498.349-.777.956-.777.668 0 1.176.349 1.176.817v.229h.279c.01-.578.019-.817.049-1.126-.527-.18-.886-.249-1.295-.249-1.155 0-1.862.548-1.862 1.445 0 .478.219.816.677 1.025.269.12.797.28 1.474.429.449.1.638.309.638.687 0 .538-.498.917-1.205.917-.728 0-1.246-.35-1.246-.847v-.408h-.298c0 .687-.03.986-.11 1.384zM181.162-79.63l.757-.04v2.869c0 .737.329 1.056 1.096 1.056.229 0 .468-.05.528-.12l.478-.528-.13-.17c-.249.14-.398.19-.587.19-.389 0-.548-.2-.548-.687v-2.61h1.275l.089-.538-1.364.06v-.379c0-.418.03-.777.109-1.414l-.119-.11c-.239.15-.538.28-.847.379.03.299.04.488.04.787v.697l-.777.349v.209zm3.288 1.583c0 .628.139 1.166.418 1.545.388.527 1.066.836 1.813.836.368 0 .737-.08 1.145-.259.269-.11.479-.239.518-.299l.2-.338-.13-.1c-.638.379-.867.468-1.295.468-.647 0-1.185-.288-1.464-.777-.189-.328-.259-.607-.279-1.185h1.454c.688 0 1.116-.03 1.803-.14.01-.139.02-.229.02-.348 0-1.146-.737-1.893-1.853-1.893-.368 0-.797.13-1.205.369-.817.468-1.145 1.086-1.145 2.121zm.946-.507c0-.469.04-.688.169-.947a1.228 1.228 0 0 1 1.116-.707c.329 0 .588.13.767.398.219.33.318.618.318 1.285l-1.115.03c-.458 0-.717-.01-1.255-.06zm3.726 2.719c.418-.02.847-.03 1.265-.03.398 0 .787.01 1.185.03v-.299l-.418-.03c-.339-.02-.369-.09-.369-.717v-2.112c0-.448.658-.936 1.256-.936.537 0 .906.508.906 1.265v1.783c0 .628-.03.697-.369.717l-.458.03v.299a25.86 25.86 0 0 1 2.491 0v-.299l-.459-.03c-.338-.02-.368-.09-.368-.717v-2.112c0-.448.657-.936 1.255-.936.538 0 .906.508.906 1.265v2.829c.259-.02.528-.03.787-.03.299 0 .588.01.887.03v-.299l-.468-.03c-.339-.02-.369-.09-.369-.717v-2.052c0-.986-.578-1.604-1.494-1.604-.349 0-.638.09-.817.25l-.757.677c-.319-.658-.727-.927-1.415-.927-.368 0-.647.09-.826.25l-.688.637v-.847l-.089-.04a5.77 5.77 0 0 1-1.554.409v.279h.368c.399 0 .439.07.439.727v2.241c0 .628-.03.697-.369.717l-.458.03v.299zm9.305-.558c0 .299.269.578.558.578.319 0 .597-.269.597-.578 0-.299-.278-.578-.587-.578-.299 0-.568.28-.568.578zM24.01-71.271l2.102 7.361h.956l1.614-6.037 1.633 6.037h.946l2.112-7.361h-.757l-1.813 6.405-1.763-6.405h-.697l-1.763 6.405-1.813-6.405h-.757zm10.092 7.361h.737v-2.988c0-1.335.717-1.913 1.663-1.913.996 0 1.684.618 1.684 1.972v2.929h.737v-2.929c0-1.823-.936-2.65-2.351-2.65-.747 0-1.365.3-1.733.837v-2.62h-.737v7.362zm5.868-2.75a2.849 2.849 0 0 0 2.878 2.88c1.236 0 2.301-.887 2.65-1.923h-.767c-.309.747-1.076 1.245-1.903 1.245-1.115 0-2.062-.857-2.121-1.932h4.93c0-1.933-1.225-3.098-2.838-3.098a2.802 2.802 0 0 0-2.83 2.829zm.757-.398c.199-1.046 1.026-1.753 2.062-1.753 1.056 0 1.862.668 2.111 1.753h-4.173zm5.927 3.148h.737v-2.998c0-1.335.678-1.903 1.664-1.903 1.006 0 1.683.558 1.683 2.042v2.859h.737v-2.859c0-1.913-.966-2.72-2.33-2.72-.718 0-1.295.28-1.754.837v-.707h-.737v5.449zM54.853-69.359l2.082 5.449h.797l1.176-3.616 1.185 3.616h.787l2.112-5.449h-.717L60.5-64.797l-1.285-3.894h-.608l-1.284 3.894-1.734-4.562h-.737zm8.837 5.449h.737v-3.178c0-1.016.518-1.574 1.544-1.673v-.727c-.787.04-1.255.309-1.544.906v-.777h-.737v5.449zm2.999 0h.737v-5.449h-.737v5.449zm0-6.047h.737v-1.255h-.737v1.255zm1.484 1.266h1.176v4.781h.737v-4.781h1.225v-.668h-1.225v-1.912h-.737v1.912h-1.176v.668zm3.885 4.781h.738v-5.449h-.738v5.449zm0-6.047h.738v-1.255h-.738v1.255zm1.993 6.047h.737v-2.998c0-1.335.678-1.903 1.663-1.903 1.007 0 1.684.558 1.684 2.042v2.859h.737v-2.859c0-1.913-.966-2.72-2.33-2.72-.718 0-1.296.28-1.754.837v-.707h-.737v5.449zm5.868-2.7c0 1.594 1.245 2.83 2.839 2.83.976 0 1.653-.4 2.082-1.236v.369c0 1.434-.688 2.201-2.003 2.201-.916 0-1.444-.308-2.002-1.295h-.717c.398 1.275 1.365 1.973 2.74 1.973.946 0 1.742-.359 2.21-.977.37-.498.509-1.075.509-2.141v-4.473h-.737v.966c-.548-.747-1.216-1.095-2.132-1.095-1.594 0-2.79 1.235-2.79 2.879zm.747-.06c0-1.244.877-2.14 2.082-2.14 1.175 0 2.091.926 2.091 2.11 0 1.276-.896 2.242-2.081 2.242-1.196 0-2.092-.946-2.092-2.211zm6.446 3.427h.737l.877-1.922h-.738l-.876 1.922zM91.78-68.691h1.176v4.781h.737v-4.781h1.225v-.668h-1.225v-1.912h-.737v1.912h-1.175v.668zm3.886 4.781h.737v-2.988c0-1.335.717-1.913 1.664-1.913.996 0 1.683.618 1.683 1.972v2.929h.737v-2.929c0-1.823-.936-2.65-2.35-2.65-.748 0-1.365.3-1.734.837v-2.62h-.737v7.362zm5.868-2.75a2.849 2.849 0 0 0 2.879 2.88c1.235 0 2.3-.887 2.65-1.923h-.768c-.308.747-1.075 1.245-1.902 1.245-1.116 0-2.062-.857-2.122-1.932h4.93c0-1.933-1.224-3.098-2.838-3.098a2.802 2.802 0 0 0-2.829 2.829zm.757-.398c.2-1.046 1.026-1.753 2.062-1.753 1.056 0 1.863.668 2.112 1.753h-4.174zM110.343-69.359l2.082 5.449h.797l1.175-3.616 1.185 3.616h.787l2.112-5.449h-.717l-1.773 4.562-1.285-3.894h-.608l-1.285 3.894-1.733-4.562h-.737zm8.837 5.449h.737v-3.178c0-1.016.518-1.574 1.544-1.673v-.727c-.787.04-1.256.309-1.544.906v-.777h-.737v5.449zm2.998 0h.737v-5.449h-.737v5.449zm0-6.047h.737v-1.255h-.737v1.255zm1.485 1.266h1.175v4.781h.737v-4.781h1.225v-.668h-1.225v-1.912h-.737v1.912h-1.175v.668zM127.093-66.66a2.849 2.849 0 0 0 2.879 2.88c1.235 0 2.301-.887 2.649-1.923h-.767c-.308.747-1.075 1.245-1.902 1.245-1.116 0-2.062-.857-2.122-1.932h4.931c0-1.933-1.225-3.098-2.839-3.098a2.802 2.802 0 0 0-2.829 2.829zm.757-.398c.199-1.046 1.026-1.753 2.062-1.753 1.056 0 1.863.668 2.112 1.753h-4.174zm5.928 3.148h.737v-3.178c0-1.016.518-1.574 1.544-1.673v-.727c-.787.04-1.255.309-1.544.906v-.777h-.737v5.449zM139.461-66.42c0 1.902.926 2.64 2.311 2.64.847 0 1.384-.3 1.753-.977v.847h.737v-5.449h-.737v2.8c0 1.484-.697 2.101-1.693 2.101-1.056 0-1.634-.578-1.634-1.962v-2.939h-.737v2.939zm5.609.906c0 1.056.707 1.733 1.753 1.733.976 0 1.663-.697 1.663-1.693 0-.667-.308-1.125-.946-1.394-.827-.34-.866-.36-1.026-.439-.339-.17-.498-.398-.498-.717 0-.438.349-.787.787-.787.478 0 .797.28.797.797h.747c0-.877-.657-1.474-1.534-1.474-.887 0-1.544.647-1.544 1.534 0 .388.14.727.408.976.219.21.239.219 1.007.528.786.319 1.056.498 1.056 1.046s-.389.946-.917.946c-.608 0-1.026-.388-1.026-1.056h-.727zm4.104-1.145a2.849 2.849 0 0 0 2.879 2.878c1.235 0 2.301-.886 2.65-1.922h-.767c-.309.747-1.076 1.245-1.903 1.245-1.116 0-2.062-.857-2.121-1.932h4.93c0-1.933-1.225-3.098-2.839-3.098a2.802 2.802 0 0 0-2.829 2.829zm.757-.399c.2-1.046 1.027-1.753 2.062-1.753 1.056 0 1.863.668 2.112 1.753h-4.174zm5.48 1.544c0 1.056.707 1.733 1.753 1.733.976 0 1.663-.697 1.663-1.693 0-.667-.308-1.125-.946-1.394-.827-.34-.866-.36-1.026-.439-.338-.17-.498-.398-.498-.717 0-.438.349-.787.787-.787.478 0 .797.28.797.797h.747c0-.877-.657-1.474-1.534-1.474-.887 0-1.544.647-1.544 1.534 0 .388.14.727.408.976.219.21.24.219 1.007.528.787.319 1.056.498 1.056 1.046s-.389.946-.917.946c-.608 0-1.026-.388-1.026-1.056h-.727zM162.405-61.998h.737v-2.848c.478.697 1.215 1.065 2.122 1.065 1.623 0 2.888-1.245 2.888-2.838 0-1.624-1.245-2.87-2.869-2.87-.926 0-1.683.38-2.141 1.067v-.937h-.737v7.361zm.687-4.661c0-1.206.956-2.152 2.162-2.152 1.225 0 2.151.936 2.151 2.192 0 1.225-.926 2.161-2.141 2.161-1.246 0-2.172-.946-2.172-2.201zm6.107 2.749h.737v-7.361h-.737v7.361zm1.783-2.71c0 1.624 1.245 2.84 2.919 2.84.926 0 1.524-.31 2.102-1.086v.956h.737v-5.449h-.737v.966c-.538-.757-1.206-1.095-2.152-1.095-1.634 0-2.869 1.235-2.869 2.869zm.747-.05c0-1.185.957-2.14 2.142-2.14 1.195 0 2.132.935 2.132 2.15 0 1.236-.917 2.202-2.092 2.202-1.235 0-2.182-.966-2.182-2.211zm6.267 2.76h.737v-5.449h-.737v5.449zm0-6.047h.737v-1.255h-.737v1.255zm1.992 6.047h.738v-2.998c0-1.335.677-1.903 1.663-1.903 1.006 0 1.684.558 1.684 2.042v2.859h.737v-2.859c0-1.913-.967-2.72-2.331-2.72-.717 0-1.295.28-1.753.837v-.707h-.738v5.449zM188.239-68.691h1.175v4.781h.737v-4.781h1.225v-.668h-1.225v-1.912h-.737v1.912h-1.175v.668zM191.674-66.66a2.849 2.849 0 0 0 2.878 2.88c1.236 0 2.301-.887 2.65-1.923h-.767c-.309.747-1.076 1.245-1.903 1.245-1.115 0-2.061-.857-2.121-1.932h4.93c0-1.933-1.225-3.098-2.838-3.098a2.802 2.802 0 0 0-2.829 2.829zm.757-.398c.199-1.046 1.026-1.753 2.062-1.753 1.056 0 1.862.668 2.111 1.753h-4.173zM197.608-63.91h.837l1.474-2.182 1.465 2.182h.846l-1.902-2.78 1.902-2.669h-.846l-1.465 2.102-1.474-2.102h-.837l1.893 2.67-1.893 2.779zm4.822-4.781h1.176v4.781h.737v-4.781h1.225v-.668h-1.225v-1.912h-.737v1.912h-1.176v.668zM208.793-66.62c0 1.624 1.245 2.84 2.919 2.84.926 0 1.524-.31 2.102-1.086v.956h.737v-5.449h-.737v.966c-.538-.757-1.206-1.095-2.152-1.095-1.634 0-2.869 1.235-2.869 2.869zm.747-.05c0-1.185.957-2.14 2.142-2.14 1.195 0 2.132.935 2.132 2.15 0 1.236-.917 2.202-2.092 2.202-1.235 0-2.182-.966-2.182-2.211zm5.819 1.156c0 1.056.707 1.733 1.753 1.733.976 0 1.663-.697 1.663-1.693 0-.667-.309-1.125-.946-1.394-.827-.34-.867-.36-1.026-.439-.339-.17-.498-.398-.498-.717 0-.438.349-.787.787-.787.478 0 .797.28.797.797h.747c0-.877-.658-1.474-1.534-1.474-.887 0-1.544.647-1.544 1.534 0 .388.139.727.408.976.219.21.239.219 1.006.528.787.319 1.056.498 1.056 1.046s-.388.946-.916.946c-.608 0-1.026-.388-1.026-1.056h-.727zM222.147-66.67c0 1.674 1.226 2.89 2.919 2.89 1.594 0 2.769-1.206 2.769-2.84 0-1.663-1.195-2.868-2.829-2.868-1.614 0-2.859 1.225-2.859 2.819zm.747.02c0-1.234.907-2.16 2.112-2.16 1.195 0 2.082.935 2.082 2.2 0 1.246-.857 2.152-2.042 2.152-1.255 0-2.152-.916-2.152-2.191zm5.988 4.653h.737v-2.85c.478.698 1.215 1.066 2.122 1.066 1.623 0 2.889-1.245 2.889-2.838 0-1.624-1.246-2.87-2.87-2.87-.926 0-1.683.38-2.141 1.067v-.937h-.737v7.361zm.687-4.662c0-1.206.956-2.152 2.162-2.152 1.225 0 2.151.936 2.151 2.192 0 1.225-.926 2.161-2.141 2.161-1.246 0-2.172-.946-2.172-2.201zm6.107 4.662h.737v-2.85c.478.698 1.216 1.066 2.122 1.066 1.624 0 2.889-1.245 2.889-2.838 0-1.624-1.245-2.87-2.869-2.87-.926 0-1.684.38-2.142 1.067v-.937h-.737v7.361zm.688-4.662c0-1.206.956-2.152 2.161-2.152 1.225 0 2.152.936 2.152 2.192 0 1.225-.927 2.161-2.142 2.161-1.245 0-2.171-.946-2.171-2.201zm5.898-.01c0 1.673 1.225 2.888 2.918 2.888 1.594 0 2.769-1.205 2.769-2.838 0-1.664-1.195-2.87-2.829-2.87-1.613 0-2.858 1.226-2.858 2.82zm.746.02c0-1.235.907-2.162 2.112-2.162 1.196 0 2.082.936 2.082 2.202 0 1.245-.856 2.151-2.042 2.151-1.255 0-2.152-.916-2.152-2.191zm5.54 1.135c0 1.056.707 1.733 1.753 1.733.976 0 1.664-.697 1.664-1.693 0-.667-.309-1.125-.947-1.394-.827-.34-.866-.36-1.026-.439-.338-.17-.498-.398-.498-.717 0-.438.349-.787.787-.787.478 0 .797.28.797.797h.747c0-.877-.657-1.474-1.534-1.474-.886 0-1.544.647-1.544 1.534 0 .388.14.727.408.976.22.21.24.219 1.007.528.787.319 1.056.498 1.056 1.046s-.389.946-.917.946c-.608 0-1.026-.388-1.026-1.056h-.727zm4.105-1.145a2.849 2.849 0 0 0 2.878 2.878c1.236 0 2.301-.886 2.65-1.922h-.767c-.309.747-1.076 1.245-1.903 1.245-1.115 0-2.062-.857-2.121-1.932h4.93c0-1.933-1.225-3.098-2.838-3.098a2.802 2.802 0 0 0-2.829 2.829zm.756-.399c.2-1.046 1.027-1.753 2.063-1.753 1.056 0 1.862.668 2.111 1.753h-4.174zm5.719.429c0 1.613 1.285 2.848 2.969 2.848.906 0 1.524-.328 2.071-1.115v.986h.738v-7.361h-.738v2.779a2.711 2.711 0 0 0-2.141-.996c-1.644 0-2.899 1.235-2.899 2.859zm.747-.03c0-1.196.947-2.152 2.132-2.152 1.205 0 2.191.966 2.191 2.162s-.956 2.191-2.121 2.191c-1.245 0-2.202-.956-2.202-2.201zM268.341-68.691h1.176v4.781h.737v-4.781h1.225v-.668h-1.225v-1.912h-.737v1.912h-1.176v.668zM271.776-66.67c0 1.674 1.225 2.89 2.918 2.89 1.594 0 2.77-1.206 2.77-2.84 0-1.663-1.196-2.868-2.829-2.868-1.614 0-2.859 1.225-2.859 2.819zm.747.02c0-1.234.906-2.16 2.112-2.16 1.195 0 2.081.935 2.081 2.2 0 1.246-.856 2.152-2.041 2.152-1.256 0-2.152-.916-2.152-2.191zM280.681-68.691h1.175v4.781h.737v-4.781h1.225v-.668h-1.225v-1.912h-.737v1.912h-1.175v.668zm3.885 4.781h.737v-2.988c0-1.335.717-1.913 1.663-1.913.996 0 1.684.618 1.684 1.972v2.929h.737v-2.929c0-1.823-.936-2.65-2.351-2.65-.747 0-1.365.3-1.733.837v-2.62h-.737v7.362zm5.868-2.75a2.849 2.849 0 0 0 2.878 2.88c1.236 0 2.301-.887 2.65-1.923h-.767c-.309.747-1.076 1.245-1.903 1.245-1.115 0-2.061-.857-2.121-1.932h4.93c0-1.933-1.225-3.098-2.838-3.098a2.802 2.802 0 0 0-2.829 2.829zm.757-.398c.199-1.046 1.026-1.753 2.062-1.753 1.056 0 1.862.668 2.111 1.753h-4.173zM299.342-68.691h.847v4.781h.737v-4.781h1.354v-.668h-1.354c-.01-.906.348-1.245 1.354-1.245v-.667c-1.404 0-2.111.647-2.091 1.912h-.847v.668zM302.537-66.67c0 1.674 1.225 2.89 2.918 2.89 1.594 0 2.77-1.206 2.77-2.84 0-1.663-1.196-2.868-2.83-2.868-1.613 0-2.858 1.225-2.858 2.819zm.747.02c0-1.234.906-2.16 2.111-2.16 1.196 0 2.082.935 2.082 2.2 0 1.246-.856 2.152-2.042 2.152-1.255 0-2.151-.916-2.151-2.191zm5.987 2.74h.737v-3.178c0-1.016.519-1.574 1.545-1.673v-.727c-.787.04-1.256.309-1.545.906v-.777h-.737v5.449zm2.999 0h.737v-3.178c0-1.085.548-1.723 1.464-1.723.837 0 1.475.508 1.475 1.724v3.177h.737v-3.158c0-1.235.627-1.753 1.494-1.753.896 0 1.444.528 1.444 1.753v3.158h.737v-3.237c0-1.584-.896-2.351-2.141-2.351-.847 0-1.435.329-1.893 1.056-.428-.727-.966-1.046-1.783-1.046-.687 0-1.115.209-1.534.757v-.628h-.737v5.449zm9.136-2.71c0 1.624 1.245 2.84 2.918 2.84.927 0 1.524-.31 2.102-1.086v.956h.737v-5.449h-.737v.966c-.538-.757-1.205-1.095-2.152-1.095-1.633 0-2.868 1.235-2.868 2.869zm.747-.05c0-1.185.956-2.14 2.141-2.14 1.196 0 2.132.935 2.132 2.15 0 1.236-.916 2.202-2.092 2.202-1.235 0-2.181-.966-2.181-2.211zm5.758-2.021h1.176v4.781h.737v-4.781h1.225v-.668h-1.225v-1.912h-.737v1.912h-1.176v.668zm3.378 0h1.175v4.781h.737v-4.781h1.225v-.668h-1.225v-1.912h-.737v1.912h-1.175v.668zM334.702-66.66a2.849 2.849 0 0 0 2.878 2.88c1.236 0 2.301-.887 2.65-1.923h-.767c-.309.747-1.076 1.245-1.903 1.245-1.115 0-2.061-.857-2.121-1.932h4.931c0-1.933-1.226-3.098-2.839-3.098a2.802 2.802 0 0 0-2.829 2.829zm.757-.398c.199-1.046 1.026-1.753 2.062-1.753 1.056 0 1.862.668 2.111 1.753h-4.173zm5.718.429c0 1.613 1.285 2.848 2.969 2.848.906 0 1.524-.328 2.072-1.115v.986h.737v-7.361h-.737v2.779a2.713 2.713 0 0 0-2.142-.996c-1.644 0-2.899 1.235-2.899 2.859zm.747-.03c0-1.196.947-2.152 2.132-2.152 1.205 0 2.192.966 2.192 2.162s-.957 2.191-2.122 2.191c-1.245 0-2.202-.956-2.202-2.201zM4.105-56.736H5.28v4.781h.737v-4.781h1.225v-.668H6.017v-1.912H5.28v1.912H4.105v.668zM7.54-54.704a2.849 2.849 0 0 0 2.878 2.878c1.235 0 2.301-.886 2.65-1.922H12.3c-.31.747-1.076 1.245-1.903 1.245-1.116 0-2.062-.857-2.121-1.932h4.93c0-1.933-1.225-3.098-2.839-3.098a2.802 2.802 0 0 0-2.829 2.829zm.756-.399c.2-1.046 1.026-1.753 2.062-1.753 1.056 0 1.863.668 2.112 1.753H8.296zM13.474-51.955h.837l1.474-2.182 1.464 2.182h.847l-1.903-2.779 1.903-2.67h-.847l-1.464 2.102-1.474-2.102h-.837l1.893 2.67-1.893 2.779zm4.822-4.781h1.175v4.781h.738v-4.781h1.224v-.668H20.21v-1.912h-.738v1.912h-1.175v.668zM23.952-56.736h.846v4.781h.737v-4.781h1.355v-.668h-1.355c-.01-.906.349-1.245 1.355-1.245v-.667c-1.404 0-2.112.647-2.092 1.912h-.846v.668zM27.146-54.714c0 1.673 1.226 2.888 2.919 2.888 1.594 0 2.77-1.205 2.77-2.838 0-1.664-1.196-2.87-2.83-2.87-1.614 0-2.859 1.226-2.859 2.82zm.747.02c0-1.235.907-2.162 2.112-2.162 1.195 0 2.082.936 2.082 2.202 0 1.245-.857 2.151-2.042 2.151-1.255 0-2.152-.916-2.152-2.191zm5.988.229c0 1.903.926 2.64 2.31 2.64.848 0 1.386-.3 1.754-.977v.847h.737v-5.449h-.737v2.8c0 1.484-.697 2.101-1.693 2.101-1.056 0-1.634-.578-1.634-1.962v-2.939h-.737v2.939zm6.057 2.51h.737v-2.998c0-1.335.678-1.903 1.664-1.903 1.006 0 1.683.558 1.683 2.042v2.859h.737v-2.859c0-1.913-.966-2.72-2.33-2.72-.718 0-1.296.28-1.754.837v-.707h-.737v5.449zm5.868-2.72c0 1.614 1.285 2.85 2.969 2.85.906 0 1.524-.33 2.071-1.116v.986h.738v-7.361h-.738v2.779a2.713 2.713 0 0 0-2.141-.996c-1.644 0-2.899 1.235-2.899 2.859zm.747-.03c0-1.195.947-2.15 2.132-2.15 1.205 0 2.191.965 2.191 2.16 0 1.196-.956 2.192-2.121 2.192-1.245 0-2.202-.956-2.202-2.201zM55.083-51.955h.738v-5.449h-.738v5.449zm0-6.047h.738v-1.255h-.738v1.255zm1.993 6.047h.737v-2.998c0-1.335.678-1.903 1.664-1.903 1.006 0 1.683.558 1.683 2.042v2.859h.737v-2.859c0-1.913-.966-2.72-2.33-2.72-.718 0-1.296.28-1.754.837v-.707h-.737v5.449zM65.97-59.316l.737 7.361h.957l2.73-6.037.517 6.037h.946l3.477-7.361h-.757l-2.998 6.405L71-59.316h-.698l-2.948 6.405-.628-6.405h-.757zm9.485 0l1.643 4.9-.458 2.461h.737l.459-2.46 3.476-4.901h-.807l-2.908 4.124-1.325-4.124h-.817zM80.322-53.599c0 1.046.787 1.773 1.922 1.773 1.425 0 2.68-1.235 2.68-2.58 0-.398-.11-.736-.319-1.006-.22-.278-.568-.478-1.404-.757-.718-.239-.867-.308-1.007-.458-.119-.12-.219-.418-.219-.617 0-.738.658-1.524 1.554-1.524.588 0 1.056.278 1.056 1.315h.767c.02-.18.03-.28.03-.38 0-.975-.687-1.613-1.723-1.613-1.375 0-2.45 1.156-2.45 2.311 0 .757.188 1.206 1.563 1.634 1.056.329 1.385.627 1.385 1.235 0 .956-.807 1.763-1.763 1.763-.837 0-1.265-.438-1.265-1.514h-.787c-.01.16-.02.299-.02.418zm5.16 1.644h.737l1.365-7.361h-.737l-1.365 7.361zm2.959-7.361l.737 7.361h.956l2.73-6.037.518 6.037h.946l3.477-7.361h-.758l-2.998 6.405-.577-6.405h-.698l-2.948 6.405-.628-6.405h-.757zm9.484 0l1.644 4.9-.458 2.461h.737l.458-2.46 3.477-4.901h-.807l-2.909 4.124-1.325-4.124h-.817zM103-54.943c0 1.832 1.394 3.117 3.376 3.117 2.043 0 3.975-1.583 4.463-3.526h-5.01l-.12.668h4.124c-.638 1.315-1.972 2.181-3.367 2.181-1.534 0-2.7-.996-2.7-2.56 0-1.992 1.784-3.705 3.866-3.705 1.105 0 1.992.547 2.3 1.414h.837c-.279-1.265-1.504-2.092-3.108-2.092-2.47 0-4.662 2.122-4.662 4.503zM114.006-54.077c0 1.853 1.145 3.835 2.44 4.373v-.737c-.956-.588-1.663-2.191-1.663-3.636v-.737c0-1.444.707-3.048 1.663-3.636v-.737c-1.295.538-2.44 2.52-2.44 4.373v.737zm3.208-4.93l1.922 1.135.339-.558-1.923-1.155-.338.578zm3.736 0l1.922 1.135.339-.558-1.923-1.155-.338.578zm3.447 1.603l2.082 5.449h.796l1.176-3.616 1.185 3.616h.787l2.112-5.449h-.717l-1.773 4.562-1.285-3.894h-.608l-1.285 3.894-1.733-4.562h-.737zm8.836 5.449h.738v-2.988c0-1.335.717-1.913 1.663-1.913.996 0 1.684.618 1.684 1.972v2.929h.737v-2.929c0-1.823-.937-2.65-2.351-2.65-.747 0-1.365.3-1.733.837v-2.62h-.738v7.362zm5.868-2.71c0 1.624 1.245 2.84 2.919 2.84.926 0 1.524-.31 2.102-1.086v.956h.737v-5.449h-.737v.967c-.538-.758-1.206-1.096-2.152-1.096-1.633 0-2.869 1.235-2.869 2.869zm.747-.05c0-1.185.957-2.14 2.142-2.14 1.195 0 2.132.935 2.132 2.15 0 1.236-.917 2.202-2.092 2.202-1.235 0-2.182-.966-2.182-2.211zm5.76-2.021h1.174v4.781h.738v-4.781h1.225v-.668h-1.225v-1.912h-.738v1.912h-1.175v.668zM151.19-57.404l2.112 5.27-.886 2.092h.787l3.147-7.362h-.787l-1.843 4.343-1.723-4.343h-.807zM156.62-54.714c0 1.673 1.225 2.888 2.918 2.888 1.594 0 2.77-1.205 2.77-2.838 0-1.664-1.196-2.87-2.83-2.87-1.613 0-2.858 1.226-2.858 2.82zm.747.02c0-1.235.906-2.162 2.112-2.162 1.195 0 2.081.936 2.081 2.202 0 1.245-.856 2.151-2.041 2.151-1.256 0-2.152-.916-2.152-2.191zm5.987.229c0 1.903.927 2.64 2.311 2.64.847 0 1.385-.3 1.754-.977v.847h.737v-5.449h-.737v2.8c0 1.484-.698 2.101-1.694 2.101-1.056 0-1.633-.578-1.633-1.962v-2.939h-.738v2.939zM171.21-53.559c0 1.056.708 1.733 1.754 1.733.976 0 1.663-.697 1.663-1.693 0-.667-.309-1.125-.946-1.394-.827-.34-.867-.36-1.026-.439-.339-.17-.498-.398-.498-.717 0-.438.349-.787.787-.787.478 0 .797.28.797.797h.747c0-.877-.658-1.474-1.534-1.474-.887 0-1.544.647-1.544 1.534 0 .388.14.727.408.976.22.21.24.219 1.006.528.787.319 1.056.498 1.056 1.046s-.388.946-.916.946c-.608 0-1.026-.388-1.026-1.056h-.727zm4.105-1.145a2.849 2.849 0 0 0 2.879 2.878c1.235 0 2.3-.886 2.65-1.922h-.768c-.308.747-1.075 1.245-1.902 1.245-1.116 0-2.062-.857-2.122-1.932h4.93c0-1.933-1.224-3.098-2.838-3.098a2.802 2.802 0 0 0-2.829 2.829zm.757-.399c.2-1.046 1.026-1.753 2.062-1.753 1.056 0 1.863.668 2.112 1.753h-4.174zm5.719.399a2.849 2.849 0 0 0 2.878 2.878c1.236 0 2.301-.886 2.65-1.922h-.767c-.309.747-1.076 1.245-1.903 1.245-1.115 0-2.061-.857-2.121-1.932h4.93c0-1.933-1.225-3.098-2.838-3.098a2.802 2.802 0 0 0-2.83 2.829zm.757-.399c.199-1.046 1.026-1.753 2.062-1.753 1.056 0 1.862.668 2.111 1.753h-4.173zM190.719-51.955h.737v-5.449h-.737v5.449zm0-6.047h.737v-1.255h-.737v1.255zm1.544 4.443c0 1.056.707 1.733 1.753 1.733.977 0 1.664-.697 1.664-1.693 0-.667-.31-1.125-.947-1.394-.827-.34-.866-.36-1.025-.439-.34-.17-.499-.398-.499-.717 0-.438.35-.787.787-.787.478 0 .797.28.797.797h.747c0-.877-.657-1.474-1.534-1.474-.886 0-1.544.647-1.544 1.534 0 .388.14.727.409.976.219.21.239.219 1.006.528.787.319 1.056.498 1.056 1.046s-.389.946-.917.946c-.608 0-1.026-.388-1.026-1.056h-.727zM198.278-57.404l2.082 5.449h.797l1.175-3.616 1.186 3.616h.786l2.112-5.449h-.717l-1.773 4.562-1.285-3.894h-.608l-1.285 3.894-1.733-4.562h-.737zm8.837 5.449h.737v-2.988c0-1.335.717-1.913 1.663-1.913.997 0 1.684.618 1.684 1.972v2.929h.737v-2.929c0-1.823-.936-2.65-2.351-2.65-.747 0-1.365.3-1.733.837v-2.62h-.737v7.362zm5.868-2.71c0 1.624 1.245 2.84 2.918 2.84.927 0 1.524-.31 2.102-1.086v.956h.737v-5.449h-.737v.967c-.538-.758-1.205-1.096-2.152-1.096-1.633 0-2.868 1.235-2.868 2.869zm.747-.05c0-1.185.956-2.14 2.141-2.14 1.196 0 2.132.935 2.132 2.15 0 1.236-.916 2.202-2.092 2.202-1.235 0-2.181-.966-2.181-2.211zm5.758-2.021h1.176v4.781h.737v-4.781h1.225v-.668h-1.225v-1.912h-.737v1.912h-1.176v.668zM225.077-57.404l2.112 5.27-.887 2.092h.787l3.148-7.362h-.787l-1.843 4.343-1.723-4.343h-.807zM230.506-54.714c0 1.673 1.226 2.888 2.919 2.888 1.594 0 2.769-1.205 2.769-2.838 0-1.664-1.195-2.87-2.829-2.87-1.614 0-2.859 1.226-2.859 2.82zm.747.02c0-1.235.907-2.162 2.112-2.162 1.195 0 2.082.936 2.082 2.202 0 1.245-.857 2.151-2.042 2.151-1.255 0-2.152-.916-2.152-2.191zm5.988.229c0 1.903.926 2.64 2.311 2.64.847 0 1.384-.3 1.753-.977v.847h.737v-5.449h-.737v2.8c0 1.484-.697 2.101-1.693 2.101-1.056 0-1.634-.578-1.634-1.962v-2.939h-.737v2.939zM245.336-54.654c0 1.593 1.245 2.828 2.839 2.828.976 0 1.653-.398 2.082-1.235v.369c0 1.434-.688 2.201-2.003 2.201-.916 0-1.444-.308-2.002-1.295h-.717c.399 1.275 1.365 1.973 2.739 1.973.947 0 1.744-.359 2.212-.977.368-.497.508-1.075.508-2.141v-4.473h-.737v.967c-.548-.748-1.215-1.096-2.132-1.096-1.594 0-2.789 1.235-2.789 2.879zm.747-.06c0-1.245.877-2.142 2.082-2.142 1.175 0 2.092.927 2.092 2.112 0 1.275-.897 2.241-2.082 2.241-1.196 0-2.092-.946-2.092-2.211zm5.958.01a2.849 2.849 0 0 0 2.879 2.878c1.235 0 2.3-.886 2.649-1.922h-.767c-.309.747-1.076 1.245-1.902 1.245-1.116 0-2.062-.857-2.122-1.932h4.931c0-1.933-1.226-3.098-2.839-3.098a2.802 2.802 0 0 0-2.829 2.829zm.757-.399c.199-1.046 1.026-1.753 2.062-1.753 1.056 0 1.862.668 2.111 1.753h-4.173zM257.974-56.736h1.175v4.781h.737v-4.781h1.225v-.668h-1.225v-1.912h-.737v1.912h-1.175v.668zm3.995-.329h.498v-2.251h-.498v2.251zm1.972 0h.498v-2.251h-.498v2.251zm1.644 6.624v.737c1.295-.538 2.441-2.52 2.441-4.373v-.737c0-1.853-1.146-3.835-2.441-4.373v.737c.956.588 1.663 2.192 1.663 3.636v.737c0 1.445-.707 3.048-1.663 3.636zM271.152-57.404l2.082 5.449h.797l1.175-3.616 1.186 3.616h.787l2.111-5.449h-.717l-1.773 4.562-1.285-3.894h-.608l-1.285 3.894-1.733-4.562h-.737zM279.589-54.714c0 1.673 1.225 2.888 2.918 2.888 1.594 0 2.77-1.205 2.77-2.838 0-1.664-1.196-2.87-2.829-2.87-1.614 0-2.859 1.226-2.859 2.82zm.747.02c0-1.235.906-2.162 2.112-2.162 1.195 0 2.081.936 2.081 2.202 0 1.245-.856 2.151-2.041 2.151-1.256 0-2.152-.916-2.152-2.191zm5.987 2.739h.738v-3.177c0-1.017.518-1.575 1.544-1.674v-.727c-.787.04-1.256.309-1.544.906v-.777h-.738v5.449zM288.81-54.674c0 1.613 1.285 2.848 2.968 2.848.907 0 1.524-.328 2.072-1.115v.986h.737v-7.361h-.737v2.779a2.713 2.713 0 0 0-2.142-.996c-1.643 0-2.898 1.235-2.898 2.859zm.746-.03c0-1.196.947-2.152 2.132-2.152 1.206 0 2.192.966 2.192 2.162 0 1.195-.956 2.191-2.122 2.191-1.245 0-2.202-.956-2.202-2.201zM298.084-50.042h.738v-2.85c.478.698 1.215 1.066 2.121 1.066 1.624 0 2.889-1.245 2.889-2.838 0-1.624-1.245-2.87-2.869-2.87-.926 0-1.683.38-2.141 1.067v-.937h-.738v7.362zm.688-4.662c0-1.206.956-2.152 2.161-2.152 1.225 0 2.152.936 2.152 2.192 0 1.225-.927 2.161-2.142 2.161-1.245 0-2.171-.946-2.171-2.201zm6.107 2.749h.737v-3.177c0-1.017.518-1.575 1.544-1.674v-.727c-.787.04-1.255.309-1.544.906v-.777h-.737v5.449zM307.375-54.714c0 1.673 1.226 2.888 2.919 2.888 1.594 0 2.769-1.205 2.769-2.838 0-1.664-1.195-2.87-2.829-2.87-1.614 0-2.859 1.226-2.859 2.82zm.747.02c0-1.235.907-2.162 2.112-2.162 1.196 0 2.082.936 2.082 2.202 0 1.245-.856 2.151-2.042 2.151-1.255 0-2.152-.916-2.152-2.191zm5.779 0c0 1.623 1.295 2.868 2.968 2.868 1.126 0 2.013-.488 2.67-1.733h-.837c-.568.757-1.095 1.056-1.863 1.056a2.168 2.168 0 0 1-2.191-2.171c0-1.226.946-2.182 2.162-2.182.806 0 1.474.389 1.892 1.106h.827c-.438-1.096-1.484-1.783-2.71-1.783-1.633 0-2.918 1.255-2.918 2.839zm6.446-.01a2.849 2.849 0 0 0 2.878 2.878c1.236 0 2.301-.886 2.65-1.922h-.767c-.309.747-1.076 1.245-1.903 1.245-1.115 0-2.061-.857-2.121-1.932h4.931c0-1.933-1.226-3.098-2.839-3.098a2.802 2.802 0 0 0-2.829 2.829zm.757-.399c.199-1.046 1.026-1.753 2.062-1.753 1.056 0 1.862.668 2.111 1.753h-4.173zm5.479 1.544c0 1.056.707 1.733 1.753 1.733.977 0 1.664-.697 1.664-1.693 0-.667-.309-1.125-.946-1.394-.827-.34-.867-.36-1.026-.439-.339-.17-.498-.398-.498-.717 0-.438.348-.787.786-.787.479 0 .797.28.797.797h.747c0-.877-.657-1.474-1.534-1.474-.886 0-1.544.647-1.544 1.534 0 .388.14.727.409.976.219.21.239.219 1.006.528.787.319 1.056.498 1.056 1.046s-.389.946-.917.946c-.607 0-1.026-.388-1.026-1.056h-.727zm3.866 0c0 1.056.707 1.733 1.753 1.733.976 0 1.663-.697 1.663-1.693 0-.667-.308-1.125-.946-1.394-.827-.34-.867-.36-1.026-.439-.339-.17-.498-.398-.498-.717 0-.438.349-.787.787-.787.478 0 .797.28.797.797h.747c0-.877-.658-1.474-1.534-1.474-.887 0-1.544.647-1.544 1.534 0 .388.139.727.408.976.219.21.239.219 1.006.528.787.319 1.056.498 1.056 1.046s-.388.946-.916.946c-.608 0-1.026-.388-1.026-1.056h-.727zm4.104-1.155c0 1.673 1.226 2.888 2.919 2.888 1.594 0 2.769-1.205 2.769-2.838 0-1.664-1.195-2.87-2.829-2.87-1.614 0-2.859 1.226-2.859 2.82zm.747.02c0-1.235.907-2.162 2.112-2.162 1.195 0 2.082.936 2.082 2.202 0 1.245-.857 2.151-2.042 2.151-1.255 0-2.152-.916-2.152-2.191zm5.988 2.739h.737v-3.177c0-1.017.518-1.575 1.544-1.674v-.727c-.787.04-1.255.309-1.544.906v-.777h-.737v5.449zM343.914-53.559c0 1.056.707 1.733 1.753 1.733.976 0 1.663-.697 1.663-1.693 0-.667-.309-1.125-.946-1.394-.827-.34-.867-.36-1.026-.439-.339-.17-.498-.398-.498-.717 0-.438.349-.787.787-.787.478 0 .797.28.797.797h.747c0-.877-.658-1.474-1.534-1.474-.887 0-1.544.647-1.544 1.534 0 .388.139.727.408.976.219.21.239.219 1.006.528.787.319 1.056.498 1.056 1.046s-.388.946-.916.946c-.608 0-1.026-.388-1.026-1.056h-.727zM4.612-40h.738v-7.361h-.738V-40zm1.993 0h.737v-5.449h-.737V-40zm0-6.047h.737v-1.255h-.737v1.255zM8.597-40h.738v-1.126l.856-1.056L12.004-40h.917l-2.262-2.71 2.122-2.739h-.906l-2.54 3.307v-5.22h-.738V-40zM13.099-42.75a2.849 2.849 0 0 0 2.879 2.88c1.235 0 2.3-.887 2.65-1.923h-.768c-.309.747-1.075 1.245-1.902 1.245-1.116 0-2.062-.857-2.122-1.932h4.93c0-1.933-1.225-3.098-2.838-3.098a2.802 2.802 0 0 0-2.83 2.829zm.757-.398c.2-1.046 1.026-1.753 2.062-1.753 1.056 0 1.863.668 2.111 1.753h-4.173zM22.585-40h1.365v-5.518L25.873-40h1.115l1.923-5.518V-40h1.364v-7.361h-1.872l-1.963 5.578-1.982-5.578h-1.873V-40zm8.827 0h1.325v-5.518h-1.325V-40zm.01-6.315h1.325v-1.325h-1.325v1.325zm2.142 3.556c0 1.603 1.315 2.888 2.949 2.888 1.285 0 2.28-.707 2.739-1.942h-1.494c-.329.508-.707.727-1.255.727-.917 0-1.604-.717-1.604-1.683 0-.966.657-1.664 1.574-1.664.598 0 1.016.25 1.285.757h1.494c-.428-1.265-1.524-1.972-2.78-1.972-1.633 0-2.908 1.265-2.908 2.889zM40.18-40h1.325v-3.068c0-.857.389-1.285 1.186-1.305v-1.275h-.1c-.568 0-.847.16-1.196.667v-.537H40.18V-40zM42.925-42.76c0 1.595 1.316 2.89 2.93 2.89 1.603 0 2.938-1.295 2.938-2.85 0-1.643-1.285-2.928-2.949-2.928-1.604 0-2.919 1.305-2.919 2.889zm1.336-.02c0-.906.727-1.653 1.593-1.653.887 0 1.604.757 1.604 1.674 0 .926-.717 1.673-1.594 1.673-.896 0-1.603-.747-1.603-1.693zm4.931 1.027c.14 1.285.926 1.882 2.022 1.882 1.106 0 1.973-.826 1.973-1.882 0-.817-.379-1.255-1.535-1.614-.906-.289-.936-.309-.936-.598 0-.268.22-.468.508-.468.279 0 .458.15.518.439h1.295c-.05-1.036-.877-1.654-1.813-1.654-1.026 0-1.833.737-1.833 1.683 0 .807.439 1.266 1.534 1.634.887.299.937.389.937.707 0 .309-.26.538-.598.538-.389 0-.608-.199-.737-.667h-1.335zm4.493-1.006c0 1.594 1.315 2.888 2.929 2.888 1.604 0 2.938-1.294 2.938-2.848 0-1.644-1.285-2.93-2.948-2.93-1.604 0-2.919 1.306-2.919 2.89zm1.335-.02c0-.907.727-1.654 1.594-1.654.886 0 1.604.757 1.604 1.674 0 .926-.718 1.673-1.594 1.673-.897 0-1.604-.747-1.604-1.693zm4.842-1.534h.478V-40h1.325v-4.313h.747v-1.106h-.747c.01-.498.18-.667.697-.667h.13v-1.256c-.16-.02-.24-.02-.33-.02-.955 0-1.673.489-1.822 1.943h-.478v1.106zM62.778-44.313h.647V-40h1.325v-4.313h.797v-1.205h-.797v-1.843h-1.325v1.843h-.647v1.205zM68.535-47.361L70.698-40h1.076l1.215-4.87L74.174-40h1.085l2.152-7.361h-1.395l-1.305 5.14-1.234-5.14h-.997l-1.255 5.14-1.295-5.14h-1.395zM77.39-42.76c0 1.595 1.316 2.89 2.93 2.89 1.603 0 2.938-1.295 2.938-2.85 0-1.643-1.285-2.928-2.948-2.928-1.604 0-2.92 1.305-2.92 2.889zm1.336-.02c0-.906.727-1.653 1.594-1.653.886 0 1.603.757 1.603 1.674 0 .926-.717 1.673-1.594 1.673-.896 0-1.603-.747-1.603-1.693zm5.28 2.78h1.325v-3.068c0-.857.388-1.285 1.185-1.305v-1.275h-.1c-.567 0-.846.16-1.195.667v-.537h-1.215V-40zM86.804-42.77c0 1.634 1.205 2.9 2.77 2.9.746 0 1.294-.25 1.822-.847V-40h1.215v-7.361h-1.325v2.33c-.388-.428-1.026-.687-1.723-.687-1.544 0-2.76 1.295-2.76 2.949zm1.335-.06c0-.935.707-1.672 1.614-1.672.926 0 1.633.747 1.633 1.713 0 .956-.707 1.703-1.604 1.703-.926 0-1.643-.767-1.643-1.743zM93.998-39.333h.737l.876-1.922h-.737l-.876 1.922zM99.287-40h3.616v-1.305h-2.25v-6.056h-1.366V-40zm4.244 0h1.325v-5.518h-1.325V-40zm.01-6.315h1.325v-1.325h-1.325v1.325zM105.922-40h1.216v-.707c.567.607 1.096.836 1.912.836 1.554 0 2.69-1.265 2.69-2.928s-1.195-2.919-2.78-2.919c-.717 0-1.205.2-1.713.707v-2.35h-1.325V-40zm1.246-2.8c0-.995.677-1.703 1.603-1.703.947 0 1.634.728 1.634 1.714 0 1.006-.657 1.703-1.604 1.703-.956 0-1.633-.707-1.633-1.713zm5.33 2.8h1.325v-3.068c0-.857.388-1.285 1.185-1.305v-1.275h-.1c-.567 0-.846.16-1.195.667v-.537h-1.215V-40zM115.255-42.74c0 1.614 1.305 2.87 2.988 2.87 1.116 0 2.261-.628 2.63-1.764h-1.445c-.338.399-.667.548-1.215.548-.787 0-1.365-.418-1.524-1.086h4.273c.04-.189.05-.308.05-.508 0-1.713-1.205-2.968-2.849-2.968a2.887 2.887 0 0 0-2.908 2.909zm1.394-.597c.21-.707.748-1.096 1.534-1.096.817 0 1.355.389 1.524 1.096h-3.058zm4.982-.339c0 2.122 1.713 3.805 3.875 3.805 2.141 0 3.795-1.663 3.795-3.815a3.788 3.788 0 0 0-3.785-3.805c-2.192 0-3.885 1.664-3.885 3.815zm1.374 0c0-1.424 1.076-2.5 2.49-2.5 1.365 0 2.431 1.096 2.431 2.51 0 1.415-1.036 2.48-2.43 2.48a2.466 2.466 0 0 1-2.49-2.49zm6.795-.637h.478V-40h1.325v-4.313h1.425V-40h1.324v-4.313h.747v-1.106h-.747c.01-.498.18-.667.697-.667h.13v-1.256c-.16-.02-.239-.02-.329-.02-.956 0-1.673.489-1.822 1.943h-1.425c.01-.498.18-.667.697-.667h.13v-1.256c-.16-.02-.24-.02-.329-.02-.956 0-1.673.489-1.823 1.943h-.478v1.106zM135.777-40h1.325v-5.518h-1.325V-40zm.01-6.315h1.325v-1.325h-1.325v1.325zm2.142 3.556c0 1.603 1.315 2.888 2.949 2.888 1.285 0 2.281-.707 2.74-1.942h-1.495c-.329.508-.707.727-1.255.727-.916 0-1.604-.717-1.604-1.683 0-.966.657-1.664 1.574-1.664.598 0 1.016.25 1.285.757h1.494c-.428-1.265-1.524-1.972-2.779-1.972-1.634 0-2.909 1.265-2.909 2.889zm6.376.02c0 1.613 1.305 2.868 2.989 2.868 1.115 0 2.261-.627 2.63-1.763h-1.445c-.339.399-.667.548-1.215.548-.787 0-1.365-.418-1.524-1.086h4.273c.04-.189.05-.308.05-.508 0-1.713-1.205-2.968-2.849-2.968a2.887 2.887 0 0 0-2.909 2.909zm1.395-.598c.209-.707.747-1.096 1.534-1.096.817 0 1.355.389 1.524 1.096H145.7zM153.227-47.361L155.389-40h1.075l1.216-4.87 1.185 4.87h1.086l2.152-7.361h-1.395l-1.305 5.14-1.235-5.14h-.996l-1.255 5.14-1.295-5.14h-1.395zM162.47-40h1.326v-3.068c0-.857.388-1.285 1.185-1.305v-1.275h-.1c-.567 0-.846.16-1.195.667v-.537h-1.215V-40zm3.189 0h1.325v-5.518h-1.325V-40zm.01-6.315h1.325v-1.325h-1.325v1.325zm1.932 2.002h.648V-40h1.325v-4.313h.797v-1.205h-.797v-1.843h-1.325v1.843h-.648v1.205zM170.698-42.74c0 1.614 1.305 2.87 2.989 2.87 1.115 0 2.261-.628 2.63-1.764h-1.445c-.339.399-.667.548-1.215.548-.787 0-1.365-.418-1.524-1.086h4.273c.04-.189.05-.308.05-.508 0-1.713-1.205-2.968-2.849-2.968a2.887 2.887 0 0 0-2.909 2.909zm1.395-.597c.21-.707.747-1.096 1.534-1.096.817 0 1.355.389 1.524 1.096h-3.058zm5.22 3.337h1.326v-3.068c0-.857.388-1.285 1.185-1.305v-1.275h-.1c-.568 0-.846.16-1.195.667v-.537h-1.215V-40zM183.143-42.71c0 1.624 1.245 2.84 2.919 2.84.926 0 1.524-.31 2.102-1.086V-40h.737v-5.449h-.737v.966c-.538-.757-1.206-1.095-2.152-1.095-1.634 0-2.869 1.235-2.869 2.869zm.747-.05c0-1.185.957-2.14 2.142-2.14 1.196 0 2.132.935 2.132 2.15 0 1.236-.916 2.202-2.092 2.202-1.235 0-2.182-.966-2.182-2.211zm6.267 2.76h.737v-2.998c0-1.335.678-1.903 1.664-1.903 1.006 0 1.683.558 1.683 2.042V-40h.737v-2.859c0-1.913-.966-2.72-2.33-2.72-.718 0-1.296.28-1.754.837v-.707h-.737V-40zm5.868-2.72c0 1.614 1.285 2.85 2.969 2.85.906 0 1.524-.33 2.071-1.116V-40h.738v-7.361h-.738v2.779a2.712 2.712 0 0 0-2.141-.996c-1.644 0-2.899 1.235-2.899 2.859zm.747-.03c0-1.195.947-2.15 2.132-2.15 1.205 0 2.191.965 2.191 2.16 0 1.196-.956 2.192-2.121 2.192-1.245 0-2.202-.956-2.202-2.201zM205.26-40h1.505l.817-1.903h2.62l.787 1.903h1.504l-3.088-7.361h-1.076L205.26-40zm2.82-3.208l.787-2.23.787 2.23h-1.574zm5.021 5.05h1.325v-2.36c.498.448 1.016.647 1.694.647 1.593 0 2.759-1.235 2.759-2.908 0-1.664-1.156-2.87-2.75-2.87-.747 0-1.384.28-1.813.778v-.647h-1.215v7.36zm1.245-4.611c0-.947.698-1.664 1.614-1.664.897 0 1.584.727 1.584 1.684 0 .936-.687 1.663-1.564 1.663-.936 0-1.634-.717-1.634-1.683zm5.33 4.612h1.325v-2.361c.499.448 1.016.647 1.694.647 1.594 0 2.759-1.235 2.759-2.908 0-1.664-1.155-2.87-2.75-2.87-.746 0-1.384.28-1.812.778v-.647h-1.216v7.36zm1.246-4.612c0-.947.697-1.664 1.614-1.664.896 0 1.583.727 1.583 1.684 0 .936-.687 1.663-1.564 1.663-.936 0-1.633-.717-1.633-1.683zm5.33 2.769h1.325v-7.361h-1.325V-40zm2.152-2.74c0 1.614 1.305 2.87 2.988 2.87 1.116 0 2.261-.628 2.63-1.764h-1.445c-.338.399-.667.548-1.215.548-.787 0-1.365-.418-1.524-1.086h4.274c.04-.189.05-.308.05-.508 0-1.713-1.206-2.968-2.85-2.968a2.887 2.887 0 0 0-2.908 2.909zm1.394-.597c.21-.707.748-1.096 1.534-1.096.817 0 1.355.389 1.525 1.096h-3.059zM237.933-40h1.365v-2.8h.438c1.046 0 1.524-.079 1.933-.328.597-.368.966-1.115.966-1.962s-.359-1.544-.996-1.933c-.419-.249-.907-.338-1.883-.338h-1.823V-40zm1.365-4.104v-1.953h.458c1.046 0 1.504.21 1.504.987 0 .637-.339.966-1.564.966h-.398zM242.943-42.74c0 1.664 1.166 2.87 2.78 2.87.776 0 1.304-.25 1.832-.847V-40h1.216v-5.518h-1.215v.737c-.459-.608-1.007-.867-1.804-.867-1.633 0-2.809 1.225-2.809 2.909zm1.335.03c0-1.006.668-1.723 1.614-1.723.946 0 1.624.707 1.624 1.714 0 .916-.598 1.633-1.604 1.633-.966 0-1.634-.657-1.634-1.623zm5.24-.09c0 1.704 1.136 2.93 2.71 2.93.777 0 1.295-.25 1.813-.857-.05 1.185-.558 1.763-1.544 1.763-.618 0-.996-.16-1.385-.588h-1.504c.449 1.106 1.485 1.754 2.84 1.754 1.713 0 2.858-.877 2.858-3.248v-4.472h-1.265v.697c-.408-.558-1.006-.827-1.803-.827-1.564 0-2.72 1.215-2.72 2.849zm1.336.06c0-1.015.607-1.693 1.534-1.693.946 0 1.593.688 1.593 1.694 0 .996-.627 1.653-1.574 1.653-.946 0-1.553-.647-1.553-1.653zm5.24 0c0 1.614 1.305 2.87 2.988 2.87 1.116 0 2.262-.628 2.63-1.764h-1.444c-.34.399-.667.548-1.216.548-.787 0-1.364-.418-1.524-1.086h4.274c.04-.189.05-.308.05-.508 0-1.713-1.206-2.968-2.85-2.968a2.887 2.887 0 0 0-2.908 2.909zm1.395-.597c.209-.707.747-1.096 1.534-1.096.816 0 1.354.389 1.524 1.096h-3.058zm4.872 1.584c.139 1.285.926 1.882 2.021 1.882 1.106 0 1.973-.826 1.973-1.882 0-.817-.379-1.255-1.534-1.614-.907-.289-.936-.309-.936-.598 0-.268.219-.468.507-.468.28 0 .459.15.519.439h1.294c-.05-1.036-.876-1.654-1.813-1.654-1.026 0-1.832.737-1.832 1.683 0 .807.438 1.266 1.534 1.634.886.299.936.389.936.707 0 .309-.259.538-.598.538-.388 0-.607-.199-.737-.667h-1.334zM267.566-40h.737v-1.255h-.737V-40zM29.817-34.489v-.817h-5.698v.817h2.391v6.445h.926v-6.445h2.38zm5.021 6.445v-3.945c0-.876-.627-1.424-1.643-1.424-.738 0-1.186.229-1.674.867v-2.76h-.827v7.262h.827v-2.879c0-1.066.558-1.763 1.415-1.763.587 0 1.075.339 1.075 1.026v3.616h.827zm5.808-2.37c0-.758-.06-1.236-.209-1.624-.339-.857-1.135-1.375-2.112-1.375-1.454 0-2.39 1.076-2.39 2.789s.906 2.73 2.37 2.73c1.196 0 2.023-.678 2.232-1.734H39.7c-.23.687-.697.967-1.365.967-.866 0-1.514-.558-1.534-1.754h3.845zm-.886-.738s0 .04-.01.06h-2.929c.07-.926.658-1.554 1.494-1.554.817 0 1.445.677 1.445 1.494zM50.298-33.264h-.936L48.326-29.2 47.3-33.264h-1.016l-.996 4.064-1.066-4.064h-.916l1.514 5.22h.936l1.006-4.094 1.056 4.094h.946l1.534-5.22zm3.338.728v-.847c-.139-.02-.209-.03-.318-.03-.538 0-.947.319-1.425 1.096v-.947h-.757v5.22h.827v-2.71c0-1.175.388-1.762 1.673-1.782zm1.645 4.492v-5.22h-.827v5.22h.827zm.11-6.007v-1.035h-1.037v1.035h1.036zm3.107 6.007v-.697c-.11.03-.239.04-.398.04-.359 0-.459-.1-.459-.469v-3.416h.857v-.678h-.856v-1.434h-.827v1.434h-.708v.678h.708v3.785c0 .528.358.827 1.006.827.199 0 .398-.02.677-.07zM63.705-30.415c0-.757-.06-1.235-.21-1.623-.338-.857-1.135-1.375-2.111-1.375-1.455 0-2.39 1.076-2.39 2.789s.906 2.73 2.37 2.73c1.195 0 2.022-.678 2.231-1.734h-.837c-.229.687-.697.967-1.364.967-.867 0-1.514-.558-1.534-1.754h3.845zm-.887-.737s0 .04-.01.06H59.88c.07-.926.657-1.554 1.494-1.554.817 0 1.444.677 1.444 1.494zm4.513-1.384v-.847c-.139-.02-.209-.03-.318-.03-.538 0-.947.319-1.425 1.096v-.947h-.757v5.22h.827v-2.71c0-1.175.388-1.762 1.673-1.782zM74.423-28.044v-5.22h-.827v2.88c0 1.065-.557 1.762-1.424 1.762-.657 0-1.076-.398-1.076-1.026v-3.616h-.827v3.945c0 .867.648 1.424 1.664 1.424.767 0 1.255-.269 1.743-.956v.807h.747zm5.31-1.464c0-.777-.438-1.166-1.474-1.415l-.797-.19c-.677-.158-.966-.378-.966-.746 0-.478.428-.787 1.106-.787.667 0 1.026.289 1.046.837h.876c-.01-1.026-.687-1.604-1.892-1.604-1.216 0-2.003.627-2.003 1.594 0 .817.419 1.205 1.654 1.504l.777.19c.578.139.807.308.807.686 0 .488-.488.778-1.216.778-.747 0-1.165-.18-1.275-.977H75.5c.04 1.206.717 1.743 2.082 1.743 1.315 0 2.151-.607 2.151-1.613zm5.52-.907c0-.757-.06-1.235-.21-1.623-.338-.857-1.135-1.375-2.112-1.375-1.454 0-2.39 1.076-2.39 2.789s.906 2.73 2.37 2.73c1.196 0 2.023-.678 2.232-1.734h-.837c-.229.687-.697.967-1.364.967-.867 0-1.515-.558-1.535-1.754h3.845zm-.887-.737s0 .04-.01.06h-2.929c.07-.926.658-1.554 1.494-1.554.817 0 1.445.677 1.445 1.494zm5.888 1.644c0-.777-.439-1.166-1.475-1.415l-.796-.19c-.678-.158-.967-.378-.967-.746 0-.478.429-.787 1.106-.787.667 0 1.026.289 1.046.837h.877c-.01-1.026-.688-1.604-1.893-1.604-1.215 0-2.002.627-2.002 1.594 0 .817.418 1.205 1.653 1.504l.777.19c.578.139.807.308.807.686 0 .488-.488.778-1.215.778-.747 0-1.166-.18-1.275-.977h-.877c.04 1.206.718 1.743 2.082 1.743 1.315 0 2.152-.607 2.152-1.613zM100.413-28.044v-3.915c0-.936-.518-1.454-1.494-1.454-.697 0-1.115.209-1.604.797-.308-.558-.727-.797-1.404-.797-.698 0-1.156.259-1.604.887v-.738h-.757v5.22h.827v-3.277c0-.757.548-1.365 1.225-1.365.618 0 .966.379.966 1.046v3.596h.827v-3.277c0-.757.558-1.365 1.235-1.365.608 0 .957.389.957 1.046v3.596h.826zm6.058-.02v-.627c-.09.02-.13.02-.18.02-.288 0-.448-.15-.448-.409v-2.909c0-.926-.677-1.424-1.962-1.424-1.265 0-2.042.488-2.092 1.693h.837c.07-.637.448-.926 1.225-.926.747 0 1.166.279 1.166.777v.22c0 .348-.21.497-.867.577-1.175.15-1.355.189-1.674.319-.607.249-.916.717-.916 1.354 0 .947.658 1.504 1.713 1.504.668 0 1.315-.278 1.773-.766.09.398.449.687.857.687.17 0 .299-.02.568-.09zm-1.454-1.783c0 .747-.757 1.225-1.564 1.225-.648 0-1.026-.229-1.026-.797 0-.547.368-.787 1.255-.916.876-.12 1.056-.16 1.335-.289v.777zm4.861-2.69v-.846c-.139-.02-.209-.03-.318-.03-.538 0-.947.319-1.425 1.096v-.947h-.757v5.22h.827v-2.71c0-1.175.388-1.762 1.673-1.782zM115.046-28.044l-2.132-3.417 1.813-1.803h-1.066l-2.211 2.212v-4.254h-.827v7.262h.827v-2.032l.806-.797 1.763 2.829h1.027zM119.737-28.044v-5.22h-.827v2.88c0 1.065-.558 1.762-1.424 1.762-.658 0-1.076-.398-1.076-1.026v-3.616h-.827v3.945c0 .867.648 1.424 1.664 1.424.767 0 1.255-.269 1.743-.956v.807h.747zm5.948-2.56c0-1.753-.857-2.809-2.242-2.809-.707 0-1.275.319-1.663.936v-.787h-.757v7.392h.827v-2.8c.438.538.926.777 1.603.777 1.345 0 2.232-1.046 2.232-2.709zm-.867-.02c0 1.185-.608 1.953-1.514 1.953-.877 0-1.454-.718-1.454-1.943s.578-2.022 1.454-2.022c.916 0 1.514.767 1.514 2.012zM130.716-28.044v-.697c-.11.03-.239.04-.399.04-.358 0-.458-.1-.458-.469v-3.416h.857v-.678h-.857v-1.434h-.827v1.434h-.707v.678h.707v3.785c0 .528.359.827 1.007.827.199 0 .398-.02.677-.07zm5.569-.02v-.627c-.09.02-.13.02-.18.02-.289 0-.448-.15-.448-.409v-2.909c0-.926-.677-1.424-1.962-1.424-1.265 0-2.042.488-2.092 1.693h.837c.069-.637.448-.926 1.225-.926.747 0 1.165.279 1.165.777v.22c0 .348-.209.497-.866.577-1.176.15-1.355.189-1.674.319-.607.249-.916.717-.916 1.354 0 .947.657 1.504 1.713 1.504.667 0 1.315-.278 1.773-.766.09.398.449.687.857.687.169 0 .299-.02.568-.09zm-1.455-1.783c0 .747-.757 1.225-1.564 1.225-.647 0-1.026-.229-1.026-.797 0-.547.369-.787 1.255-.916.877-.12 1.056-.16 1.335-.289v.777zm6.535.946v-4.363h-.766v.758c-.419-.618-.927-.907-1.594-.907-1.325 0-2.222 1.116-2.222 2.809 0 1.643.927 2.71 2.152 2.71.657 0 1.116-.28 1.664-.937v.349c0 1.384-.568 1.912-1.534 1.912-.658 0-1.166-.239-1.265-.876h-.847c.089.986.857 1.574 2.082 1.574 1.633 0 2.33-.728 2.33-3.029zm-.846-1.723c0 1.245-.538 1.963-1.415 1.963-.906 0-1.454-.728-1.454-1.993 0-1.255.558-1.992 1.445-1.992.896 0 1.424.757 1.424 2.022zm6.386 1.723v-4.363h-.767v.758c-.419-.618-.927-.907-1.594-.907-1.325 0-2.222 1.116-2.222 2.809 0 1.643.927 2.71 2.152 2.71.657 0 1.116-.28 1.664-.937v.349c0 1.384-.568 1.912-1.534 1.912-.658 0-1.166-.239-1.265-.876h-.847c.089.986.857 1.574 2.082 1.574 1.633 0 2.331-.728 2.331-3.029zm-.847-1.723c0 1.245-.538 1.963-1.415 1.963-.906 0-1.454-.728-1.454-1.993 0-1.255.558-1.992 1.445-1.992.896 0 1.424.757 1.424 2.022zm3.039 2.58v-5.22h-.827v5.22h.827zm.11-6.007v-1.035h-1.036v1.035h1.036zm5.429 6.007v-3.945c0-.866-.648-1.424-1.654-1.424-.777 0-1.275.299-1.733 1.026v-.877h-.767v5.22h.827v-2.879c0-1.066.577-1.763 1.424-1.763.657 0 1.076.399 1.076 1.026v3.616h.827zm5.559-.857v-4.363h-.767v.758c-.419-.618-.927-.907-1.594-.907-1.325 0-2.222 1.116-2.222 2.809 0 1.643.927 2.71 2.152 2.71.657 0 1.116-.28 1.664-.937v.349c0 1.384-.568 1.912-1.534 1.912-.658 0-1.166-.239-1.265-.876h-.847c.089.986.857 1.574 2.082 1.574 1.633 0 2.331-.728 2.331-3.029zm-.847-1.723c0 1.245-.538 1.963-1.415 1.963-.906 0-1.454-.728-1.454-1.993 0-1.255.558-1.992 1.445-1.992.896 0 1.424.757 1.424 2.022zM167.795-29.837h-.837c-.139.837-.568 1.176-1.275 1.176-.916 0-1.464-.708-1.464-1.943 0-1.305.538-2.042 1.444-2.042.698 0 1.136.408 1.235 1.135h.837c-.099-1.275-.896-1.902-2.062-1.902-1.404 0-2.321 1.076-2.321 2.809 0 1.683.897 2.71 2.311 2.71 1.245 0 2.032-.748 2.132-1.943zm5.31-.777c0-1.803-.867-2.799-2.371-2.799-1.464 0-2.351 1.006-2.351 2.76 0 1.752.877 2.758 2.361 2.758 1.464 0 2.361-1.006 2.361-2.719zm-.867-.01c0 1.225-.577 1.963-1.494 1.963-.926 0-1.494-.728-1.494-1.993 0-1.255.568-1.992 1.494-1.992.936 0 1.494.727 1.494 2.022zm6.177 2.58v-3.945c0-.866-.647-1.424-1.654-1.424-.777 0-1.275.299-1.733 1.026v-.877h-.767v5.22h.827v-2.879c0-1.066.578-1.763 1.424-1.763.658 0 1.076.399 1.076 1.026v3.616h.827zM183.804-33.264h-.937l-1.474 4.234-1.394-4.234h-.937l1.833 5.22h.907l2.002-5.22zM188.854-30.415c0-.757-.06-1.235-.209-1.623-.339-.857-1.136-1.375-2.112-1.375-1.455 0-2.391 1.076-2.391 2.789s.907 2.73 2.371 2.73c1.195 0 2.022-.678 2.231-1.734h-.837c-.229.687-.697.967-1.364.967-.867 0-1.514-.558-1.534-1.754h3.845zm-.887-.737s0 .04-.009.06h-2.929c.069-.926.657-1.554 1.494-1.554.817 0 1.444.677 1.444 1.494zm6.167 3.108v-3.945c0-.866-.647-1.424-1.654-1.424-.776 0-1.275.299-1.733 1.026v-.877h-.767v5.22h.827v-2.879c0-1.066.578-1.763 1.424-1.763.658 0 1.076.399 1.076 1.026v3.616h.827zm3.218 0v-.697a1.54 1.54 0 0 1-.398.04c-.359 0-.459-.1-.459-.469v-3.416h.857v-.678h-.857v-1.434h-.826v1.434h-.708v.678h.708v3.785c0 .528.358.827 1.006.827.199 0 .398-.02.677-.07zm1.764 0v-5.22h-.827v5.22h.827zm.109-6.007v-1.035h-1.036v1.035h1.036zm5.659 3.437c0-1.803-.867-2.799-2.371-2.799-1.465 0-2.351 1.006-2.351 2.76 0 1.752.877 2.758 2.361 2.758 1.464 0 2.361-1.006 2.361-2.719zm-.867-.01c0 1.225-.578 1.963-1.494 1.963-.927 0-1.494-.728-1.494-1.993 0-1.255.567-1.992 1.494-1.992.936 0 1.494.727 1.494 2.022zm6.177 2.58v-3.945c0-.866-.648-1.424-1.654-1.424-.777 0-1.275.299-1.733 1.026v-.877h-.767v5.22h.826v-2.879c0-1.066.578-1.763 1.425-1.763.657 0 1.076.399 1.076 1.026v3.616h.827zm5.26-1.464c0-.777-.439-1.166-1.475-1.415l-.797-.19c-.677-.158-.966-.378-.966-.746 0-.478.429-.787 1.106-.787.667 0 1.026.289 1.046.837h.877c-.01-1.026-.688-1.604-1.893-1.604-1.216 0-2.002.627-2.002 1.594 0 .817.418 1.205 1.653 1.504l.777.19c.578.139.807.308.807.686 0 .488-.488.778-1.215.778-.747 0-1.166-.18-1.275-.977h-.877c.04 1.206.717 1.743 2.082 1.743 1.315 0 2.152-.607 2.152-1.613zM220.553-28.044v-.697c-.11.03-.239.04-.399.04-.358 0-.458-.1-.458-.469v-3.416h.857v-.678h-.857v-1.434h-.827v1.434h-.707v.678h.707v3.785c0 .528.359.827 1.007.827.199 0 .398-.02.677-.07zM225.783-30.614c0-1.803-.867-2.799-2.371-2.799-1.464 0-2.351 1.006-2.351 2.76 0 1.752.877 2.758 2.361 2.758 1.464 0 2.361-1.006 2.361-2.719zm-.867-.01c0 1.225-.577 1.963-1.494 1.963-.926 0-1.494-.728-1.494-1.993 0-1.255.568-1.992 1.494-1.992.936 0 1.494.727 1.494 2.022zM233.345-28.044v-7.262h-.827v2.7c-.349-.528-.907-.807-1.604-.807-1.355 0-2.241 1.046-2.241 2.71 0 1.762.866 2.808 2.271 2.808.717 0 1.215-.269 1.663-.916v.767h.738zm-.827-2.59c0 1.205-.578 1.963-1.455 1.963-.916 0-1.524-.768-1.524-1.983s.608-1.982 1.514-1.982c.897 0 1.465.797 1.465 2.002zm6.545.22c0-.758-.06-1.236-.209-1.624-.339-.857-1.136-1.375-2.112-1.375-1.455 0-2.391 1.076-2.391 2.789s.907 2.73 2.371 2.73c1.195 0 2.022-.678 2.231-1.734h-.837c-.229.687-.697.967-1.364.967-.867 0-1.514-.558-1.534-1.754h3.845zm-.887-.738s0 .04-.01.06h-2.928c.069-.926.657-1.554 1.494-1.554.817 0 1.444.677 1.444 1.494zm3.886-1.434v-.678h-.867v-.817c0-.348.199-.527.578-.527.07 0 .1 0 .289.01v-.688a1.98 1.98 0 0 0-.468-.05c-.767 0-1.226.439-1.226 1.186v.886h-.697v.678h.697v4.542h.827v-4.542h.867zm1.703 4.542v-5.22h-.827v5.22h.827zm.11-6.007v-1.035h-1.036v1.035h1.036zm5.449 6.007v-3.945c0-.866-.647-1.424-1.653-1.424-.777 0-1.275.299-1.734 1.026v-.877h-.767v5.22h.827v-2.879c0-1.066.578-1.763 1.425-1.763.657 0 1.076.399 1.076 1.026v3.616h.826zm5.798-2.37c0-.758-.059-1.236-.209-1.624-.339-.857-1.135-1.375-2.112-1.375-1.454 0-2.39 1.076-2.39 2.789s.906 2.73 2.371 2.73c1.195 0 2.022-.678 2.231-1.734h-.837c-.229.687-.697.967-1.365.967-.866 0-1.514-.558-1.534-1.754h3.845zm-.886-.738s0 .04-.01.06h-2.929c.07-.926.658-1.554 1.494-1.554.817 0 1.445.677 1.445 1.494zM260.262-28.044v-.697a1.54 1.54 0 0 1-.398.04c-.359 0-.458-.1-.458-.469v-3.416h.856v-.678h-.856v-1.434h-.827v1.434h-.707v.678h.707v3.785c0 .528.358.827 1.006.827.199 0 .398-.02.677-.07zM265.303-28.044v-3.945c0-.876-.627-1.424-1.644-1.424-.737 0-1.185.229-1.673.867v-2.76h-.827v7.262h.827v-2.879c0-1.066.558-1.763 1.414-1.763.588 0 1.076.339 1.076 1.026v3.616h.827zm5.808-2.37c0-.758-.06-1.236-.209-1.624-.339-.857-1.136-1.375-2.112-1.375-1.454 0-2.391 1.076-2.391 2.789s.907 2.73 2.371 2.73c1.196 0 2.022-.678 2.232-1.734h-.837c-.229.687-.697.967-1.365.967-.867 0-1.514-.558-1.534-1.754h3.845zm-.887-.738s0 .04-.009.06h-2.929c.07-.926.657-1.554 1.494-1.554.817 0 1.444.677 1.444 1.494zM278.583-28.9v-4.364h-.767v.758c-.419-.618-.927-.907-1.594-.907-1.325 0-2.221 1.116-2.221 2.809 0 1.643.926 2.71 2.151 2.71.658 0 1.116-.28 1.664-.937v.349c0 1.384-.568 1.912-1.534 1.912-.658 0-1.166-.239-1.265-.876h-.847c.09.986.857 1.574 2.082 1.574 1.634 0 2.331-.728 2.331-3.029zm-.847-1.724c0 1.245-.538 1.963-1.415 1.963-.906 0-1.454-.728-1.454-1.993 0-1.255.558-1.992 1.445-1.992.896 0 1.424.757 1.424 2.022zm6.625.21c0-.758-.06-1.236-.209-1.624-.339-.857-1.136-1.375-2.112-1.375-1.454 0-2.391 1.076-2.391 2.789s.907 2.73 2.371 2.73c1.196 0 2.022-.678 2.232-1.734h-.837c-.229.687-.698.967-1.365.967-.867 0-1.514-.558-1.534-1.754h3.845zm-.887-.738s0 .04-.009.06h-2.929c.07-.926.657-1.554 1.494-1.554.817 0 1.444.677 1.444 1.494zm6.167 3.108v-3.945c0-.866-.647-1.424-1.653-1.424-.777 0-1.275.299-1.734 1.026v-.877h-.767v5.22h.827v-2.879c0-1.066.578-1.763 1.425-1.763.657 0 1.075.399 1.075 1.026v3.616h.827zm5.798-2.37c0-.758-.059-1.236-.209-1.624-.339-.857-1.135-1.375-2.112-1.375-1.454 0-2.39 1.076-2.39 2.789s.906 2.73 2.371 2.73c1.195 0 2.021-.678 2.231-1.734h-.837c-.229.687-.697.967-1.365.967-.866 0-1.514-.558-1.534-1.754h3.845zm-.886-.738s0 .04-.01.06h-2.929c.07-.926.658-1.554 1.494-1.554.817 0 1.445.677 1.445 1.494zm4.513-1.384v-.847c-.14-.02-.209-.03-.319-.03-.538 0-.946.319-1.424 1.096v-.947h-.757v5.22h.826v-2.71c0-1.175.389-1.762 1.674-1.782zM304.474-28.064v-.627c-.09.02-.13.02-.179.02-.289 0-.449-.15-.449-.409v-2.909c0-.926-.677-1.424-1.962-1.424-1.265 0-2.042.488-2.092 1.693h.837c.07-.637.448-.926 1.225-.926.747 0 1.166.279 1.166.777v.22c0 .348-.21.497-.867.577-1.176.15-1.355.189-1.674.319-.607.249-.916.717-.916 1.354 0 .947.658 1.504 1.713 1.504a2.44 2.44 0 0 0 1.773-.766c.09.398.449.687.857.687.17 0 .299-.02.568-.09zm-1.454-1.783c0 .747-.758 1.225-1.564 1.225-.648 0-1.026-.229-1.026-.797 0-.547.368-.787 1.255-.916.876-.12 1.056-.16 1.335-.289v.777zm3.168 1.803v-7.262h-.827v7.262h.827zM313.639-29.508c0-.777-.439-1.166-1.475-1.415l-.797-.19c-.677-.158-.966-.378-.966-.746 0-.478.429-.787 1.106-.787.667 0 1.026.289 1.046.837h.877c-.01-1.026-.688-1.604-1.893-1.604-1.216 0-2.002.627-2.002 1.594 0 .817.418 1.205 1.653 1.504l.777.19c.578.139.807.308.807.686 0 .488-.488.778-1.215.778-.747 0-1.166-.18-1.275-.977h-.877c.04 1.206.717 1.743 2.082 1.743 1.315 0 2.152-.607 2.152-1.613zM316.537-28.044v-.697a1.54 1.54 0 0 1-.398.04c-.359 0-.459-.1-.459-.469v-3.416h.857v-.678h-.857v-1.434h-.826v1.434h-.708v.678h.708v3.785c0 .528.358.827 1.006.827.199 0 .398-.02.677-.07zm3.437-4.492v-.847a1.983 1.983 0 0 0-.319-.03c-.538 0-.946.319-1.424 1.096v-.947h-.757v5.22h.827v-2.71c0-1.175.388-1.762 1.673-1.782zm4.921 4.492v-5.22h-.827v2.88c0 1.065-.557 1.762-1.424 1.762-.657 0-1.076-.398-1.076-1.026v-3.616h-.826v3.945c0 .867.647 1.424 1.663 1.424.767 0 1.255-.269 1.743-.956v.807h.747zm5.49-1.793h-.837c-.139.837-.568 1.176-1.275 1.176-.916 0-1.464-.708-1.464-1.943 0-1.305.538-2.042 1.444-2.042.697 0 1.136.408 1.235 1.135h.837c-.1-1.275-.896-1.902-2.062-1.902-1.404 0-2.321 1.076-2.321 2.809 0 1.683.897 2.71 2.311 2.71 1.245 0 2.032-.748 2.132-1.943zm2.759 1.793v-.697a1.54 1.54 0 0 1-.398.04c-.358 0-.458-.1-.458-.469v-3.416h.856v-.678h-.856v-1.434h-.827v1.434h-.707v.678h.707v3.785c0 .528.359.827 1.006.827.199 0 .399-.02.677-.07zm5.041 0v-5.22h-.827v2.88c0 1.065-.557 1.762-1.424 1.762-.658 0-1.076-.398-1.076-1.026v-3.616h-.827v3.945c0 .867.648 1.424 1.664 1.424.767 0 1.255-.269 1.743-.956v.807h.747zm3.936-4.492v-.847c-.14-.02-.209-.03-.319-.03-.538 0-.946.319-1.425 1.096v-.947h-.757v5.22h.827v-2.71c0-1.175.389-1.762 1.674-1.782zM347.248-30.415c0-.757-.06-1.235-.209-1.623-.339-.857-1.136-1.375-2.112-1.375-1.454 0-2.391 1.076-2.391 2.789s.907 2.73 2.371 2.73c1.196 0 2.022-.678 2.232-1.734h-.837c-.229.687-.698.967-1.365.967-.867 0-1.514-.558-1.534-1.754h3.845zm-.887-.737s0 .04-.009.06h-2.929c.07-.926.657-1.554 1.494-1.554.817 0 1.444.677 1.444 1.494zM9.065-18.659c0-1.803-.866-2.8-2.37-2.8-1.465 0-2.351 1.007-2.351 2.76s.876 2.76 2.36 2.76c1.465 0 2.361-1.007 2.361-2.72zm-.866-.01c0 1.225-.578 1.962-1.495 1.962-.926 0-1.494-.727-1.494-1.992 0-1.255.568-1.992 1.494-1.992.937 0 1.495.727 1.495 2.022zm3.895-1.962v-.678h-.866v-.817c0-.348.199-.527.577-.527.07 0 .1 0 .29.01v-.688c-.19-.04-.3-.05-.469-.05-.767 0-1.225.439-1.225 1.186v.886h-.697v.678h.697v4.542h.827v-4.542h.866zM20.512-16.109v-.628c-.09.02-.13.02-.18.02-.288 0-.448-.149-.448-.408v-2.909c0-.926-.677-1.424-1.962-1.424-1.265 0-2.042.488-2.092 1.693h.837c.07-.637.448-.926 1.225-.926.747 0 1.166.279 1.166.777v.22c0 .348-.21.497-.867.577-1.175.15-1.355.189-1.674.319-.607.249-.916.717-.916 1.354 0 .947.658 1.504 1.713 1.504.668 0 1.315-.278 1.773-.767.09.399.449.688.857.688.17 0 .299-.02.568-.09zm-1.454-1.783c0 .747-.758 1.225-1.564 1.225-.648 0-1.026-.229-1.026-.797 0-.548.368-.787 1.255-.916.876-.12 1.056-.16 1.335-.289v.777zM28.552-16.089v-7.262h-.827v2.7c-.349-.528-.907-.807-1.604-.807-1.354 0-2.241 1.046-2.241 2.71 0 1.762.867 2.808 2.27 2.808.718 0 1.216-.269 1.665-.916v.767h.737zm-.827-2.59c0 1.205-.578 1.962-1.454 1.962-.917 0-1.524-.767-1.524-1.982 0-1.215.607-1.982 1.514-1.982.896 0 1.464.797 1.464 2.002zm6.515.02c0-1.803-.866-2.8-2.37-2.8-1.465 0-2.351 1.007-2.351 2.76s.876 2.76 2.36 2.76c1.465 0 2.361-1.007 2.361-2.72zm-.866-.01c0 1.225-.578 1.962-1.495 1.962-.926 0-1.494-.727-1.494-1.992 0-1.255.568-1.992 1.494-1.992.937 0 1.495.727 1.495 2.022zm6.077.787h-.837c-.14.837-.568 1.175-1.275 1.175-.916 0-1.465-.707-1.465-1.942 0-1.305.539-2.042 1.445-2.042.697 0 1.136.408 1.235 1.135h.837c-.1-1.275-.896-1.902-2.062-1.902-1.404 0-2.321 1.076-2.321 2.809 0 1.683.896 2.71 2.31 2.71 1.246 0 2.033-.748 2.133-1.943zm5.03 1.793v-5.22h-.826v2.879c0 1.066-.558 1.763-1.425 1.763-.657 0-1.075-.398-1.075-1.026v-3.616h-.827v3.945c0 .867.647 1.424 1.663 1.424.768 0 1.256-.269 1.743-.956v.807h.748zm8.31 0v-3.915c0-.936-.519-1.454-1.495-1.454-.697 0-1.116.209-1.604.797-.309-.558-.727-.797-1.404-.797-.698 0-1.156.259-1.604.886v-.737h-.757v5.22h.827v-3.277c0-.757.547-1.365 1.225-1.365.617 0 .966.379.966 1.046v3.596h.827v-3.277c0-.757.558-1.365 1.235-1.365.608 0 .956.389.956 1.046v3.596h.827zm5.837-2.37c0-.758-.06-1.236-.209-1.624-.338-.857-1.135-1.375-2.111-1.375-1.455 0-2.391 1.076-2.391 2.789s.906 2.73 2.37 2.73c1.196 0 2.023-.678 2.232-1.734h-.837c-.229.687-.697.966-1.364.966-.867 0-1.515-.557-1.535-1.753h3.845zm-.886-.738s0 .04-.01.06h-2.929c.07-.926.658-1.554 1.495-1.554.816 0 1.444.677 1.444 1.494zm6.167 3.108v-3.945c0-.866-.648-1.424-1.654-1.424-.777 0-1.275.299-1.733 1.026v-.877h-.767v5.22h.827v-2.879c0-1.066.577-1.763 1.424-1.763.657 0 1.076.399 1.076 1.026v3.616h.827zm3.218 0v-.697c-.11.03-.24.04-.399.04-.358 0-.458-.1-.458-.469v-3.416h.857v-.678h-.857v-1.434h-.827v1.434h-.707v.678h.707v3.785c0 .528.359.827 1.007.827.199 0 .398-.02.677-.07zm2.152.16v-1.196h-1.046v1.036h.598v.18c0 .687-.13.886-.598.906v.378c.697 0 1.046-.448 1.046-1.305zM75.592-16.089v-.697c-.11.03-.24.04-.399.04-.358 0-.458-.1-.458-.469v-3.416h.857v-.678h-.857v-1.434h-.827v1.434h-.707v.678h.707v3.785c0 .528.359.827 1.006.827.2 0 .399-.02.678-.07zM80.822-18.659c0-1.803-.867-2.8-2.371-2.8-1.464 0-2.35 1.007-2.35 2.76s.876 2.76 2.36 2.76c1.464 0 2.36-1.007 2.36-2.72zm-.867-.01c0 1.225-.578 1.962-1.494 1.962-.926 0-1.494-.727-1.494-1.992 0-1.255.568-1.992 1.494-1.992.936 0 1.494.727 1.494 2.022zM88.732-17.553c0-.777-.439-1.166-1.474-1.415l-.797-.19c-.677-.159-.967-.378-.967-.746 0-.478.429-.787 1.106-.787.668 0 1.026.289 1.046.837h.877c-.01-1.026-.688-1.604-1.893-1.604-1.215 0-2.002.627-2.002 1.594 0 .817.418 1.205 1.654 1.504l.776.19c.578.138.807.308.807.686 0 .488-.488.777-1.215.777-.747 0-1.166-.179-1.275-.976H84.5c.04 1.206.717 1.743 2.081 1.743 1.315 0 2.152-.607 2.152-1.613zM91.63-16.089v-.697c-.109.03-.239.04-.398.04-.358 0-.458-.1-.458-.469v-3.416h.856v-.678h-.856v-1.434h-.827v1.434h-.707v.678h.707v3.785c0 .528.359.827 1.006.827.2 0 .399-.02.677-.07zm5.002-5.22h-.897l-1.445 4.064-1.335-4.064h-.886l1.763 5.24-.318.827c-.14.368-.31.508-.668.508-.12 0-.259-.02-.438-.06v.747c.17.09.338.13.558.13.587 0 1.066-.33 1.345-1.076l2.32-6.316zM98.305-16.089v-7.262h-.827v7.262h.827zm2.231 0v-5.22h-.827v5.22h.827zm.11-6.007v-1.036H99.61v1.036h1.036zm5.15 4.543c0-.777-.438-1.166-1.474-1.415l-.797-.19c-.677-.159-.966-.378-.966-.746 0-.478.428-.787 1.106-.787.667 0 1.025.289 1.045.837h.877c-.01-1.026-.687-1.604-1.893-1.604-1.215 0-2.002.627-2.002 1.594 0 .817.419 1.205 1.654 1.504l.777.19c.577.138.807.308.807.686 0 .488-.489.777-1.216.777-.747 0-1.165-.179-1.275-.976h-.876c.04 1.206.717 1.743 2.081 1.743 1.315 0 2.152-.607 2.152-1.613zm5.519-.907c0-.757-.06-1.235-.209-1.623-.339-.857-1.136-1.375-2.112-1.375-1.454 0-2.39 1.076-2.39 2.789s.906 2.73 2.371 2.73c1.195 0 2.021-.678 2.231-1.734h-.837c-.229.687-.697.966-1.365.966-.866 0-1.514-.557-1.534-1.753h3.845zm-.886-.737s0 .04-.01.06h-2.929c.07-.926.658-1.554 1.494-1.554.817 0 1.445.677 1.445 1.494zM117.161-16.089v-.697a1.54 1.54 0 0 1-.398.04c-.359 0-.458-.1-.458-.469v-3.416h.856v-.678h-.856v-1.434h-.827v1.434h-.707v.678h.707v3.785c0 .528.358.827 1.006.827.199 0 .398-.02.677-.07zM122.371-18.46c0-.757-.06-1.235-.209-1.623-.339-.857-1.136-1.375-2.112-1.375-1.454 0-2.39 1.076-2.39 2.789s.906 2.73 2.371 2.73c1.195 0 2.021-.678 2.231-1.734h-.837c-.229.687-.697.966-1.365.966-.866 0-1.514-.557-1.534-1.753h3.845zm-.886-.737s0 .04-.01.06h-2.929c.07-.926.658-1.554 1.494-1.554.817 0 1.445.677 1.445 1.494zM127.263-16.089l-1.803-2.7 1.753-2.52h-.936l-1.256 1.893-1.255-1.893h-.946l1.743 2.56-1.842 2.66h.946l1.325-2.002 1.304 2.002h.967zm2.799 0v-.697a1.54 1.54 0 0 1-.398.04c-.358 0-.458-.1-.458-.469v-3.416h.856v-.678h-.856v-1.434h-.827v1.434h-.707v.678h.707v3.785c0 .528.359.827 1.006.827.199 0 .399-.02.677-.07zM135.72-16.089v-.697a1.54 1.54 0 0 1-.398.04c-.358 0-.458-.1-.458-.469v-3.416h.856v-.678h-.856v-1.434h-.827v1.434h-.707v.678h.707v3.785c0 .528.359.827 1.006.827.199 0 .399-.02.677-.07zM140.761-16.089v-3.945c0-.876-.627-1.424-1.643-1.424-.738 0-1.186.229-1.674.866v-2.759h-.827v7.262h.827v-2.879c0-1.066.558-1.763 1.415-1.763.587 0 1.075.339 1.075 1.026v3.616h.827zm3.896-4.493v-.846c-.14-.02-.209-.03-.319-.03-.538 0-.946.319-1.424 1.096v-.947h-.758v5.22h.827v-2.71c0-1.175.389-1.763 1.674-1.783zM149.806-18.659c0-1.803-.867-2.8-2.371-2.8-1.464 0-2.351 1.007-2.351 2.76s.877 2.76 2.361 2.76c1.464 0 2.361-1.007 2.361-2.72zm-.867-.01c0 1.225-.577 1.962-1.494 1.962-.926 0-1.494-.727-1.494-1.992 0-1.255.568-1.992 1.494-1.992.936 0 1.494.727 1.494 2.022zm6.127 2.58v-5.22h-.827v2.879c0 1.066-.558 1.763-1.424 1.763-.658 0-1.076-.398-1.076-1.026v-3.616h-.827v3.945c0 .867.648 1.424 1.664 1.424.767 0 1.255-.269 1.743-.956v.807h.747zm5.609-.857v-4.363h-.767v.757c-.418-.617-.927-.906-1.594-.906-1.325 0-2.221 1.116-2.221 2.809 0 1.643.926 2.71 2.152 2.71.657 0 1.115-.28 1.663-.937v.349c0 1.384-.568 1.912-1.534 1.912-.658 0-1.165-.239-1.265-.876h-.847c.09.986.857 1.574 2.082 1.574 1.634 0 2.331-.728 2.331-3.029zm-.847-1.723c0 1.245-.537 1.962-1.414 1.962-.907 0-1.454-.727-1.454-1.992 0-1.255.557-1.992 1.444-1.992.896 0 1.424.757 1.424 2.022zm6.356 2.58v-3.945c0-.876-.627-1.424-1.643-1.424-.738 0-1.186.229-1.674.866v-2.759h-.827v7.262h.827v-2.879c0-1.066.558-1.763 1.415-1.763.587 0 1.075.339 1.075 1.026v3.616h.827zm5.779-2.57c0-1.803-.867-2.8-2.371-2.8-1.465 0-2.351 1.007-2.351 2.76s.877 2.76 2.361 2.76c1.464 0 2.361-1.007 2.361-2.72zm-.867-.01c0 1.225-.578 1.962-1.494 1.962-.927 0-1.494-.727-1.494-1.992 0-1.255.567-1.992 1.494-1.992.936 0 1.494.727 1.494 2.022zm6.127 2.58v-5.22h-.827v2.879c0 1.066-.558 1.763-1.425 1.763-.657 0-1.075-.398-1.075-1.026v-3.616h-.827v3.945c0 .867.647 1.424 1.663 1.424.768 0 1.256-.269 1.743-.956v.807h.748zm3.268 0v-.697c-.11.03-.24.04-.399.04-.358 0-.458-.1-.458-.469v-3.416h.857v-.678h-.857v-1.434h-.827v1.434h-.707v.678h.707v3.785c0 .528.359.827 1.006.827.199 0 .399-.02.678-.07zM188.938-16.109v-.628c-.089.02-.129.02-.179.02-.289 0-.449-.149-.449-.408v-2.909c0-.926-.677-1.424-1.962-1.424-1.265 0-2.042.488-2.092 1.693h.837c.07-.637.448-.926 1.225-.926.747 0 1.166.279 1.166.777v.22c0 .348-.21.497-.867.577-1.175.15-1.355.189-1.674.319-.607.249-.916.717-.916 1.354 0 .947.658 1.504 1.713 1.504.668 0 1.315-.278 1.774-.767a.883.883 0 0 0 .856.688c.17 0 .299-.02.568-.09zm-1.454-1.783c0 .747-.757 1.225-1.564 1.225-.648 0-1.026-.229-1.026-.797 0-.548.368-.787 1.255-.916.876-.12 1.056-.16 1.335-.289v.777zM196.978-16.089v-7.262h-.827v2.7c-.349-.528-.907-.807-1.604-.807-1.354 0-2.241 1.046-2.241 2.71 0 1.762.867 2.808 2.271 2.808.717 0 1.215-.269 1.664-.916v.767h.737zm-.827-2.59c0 1.205-.578 1.962-1.454 1.962-.917 0-1.524-.767-1.524-1.982 0-1.215.607-1.982 1.514-1.982.896 0 1.464.797 1.464 2.002zm6.515.02c0-1.803-.866-2.8-2.371-2.8-1.464 0-2.35 1.007-2.35 2.76s.876 2.76 2.36 2.76c1.465 0 2.361-1.007 2.361-2.72zm-.866-.01c0 1.225-.578 1.962-1.495 1.962-.926 0-1.494-.727-1.494-1.992 0-1.255.568-1.992 1.494-1.992.937 0 1.495.727 1.495 2.022zm6.077.787h-.837c-.139.837-.568 1.175-1.275 1.175-.916 0-1.464-.707-1.464-1.942 0-1.305.538-2.042 1.444-2.042.697 0 1.136.408 1.235 1.135h.837c-.1-1.275-.896-1.902-2.062-1.902-1.404 0-2.321 1.076-2.321 2.809 0 1.683.897 2.71 2.311 2.71 1.245 0 2.032-.748 2.132-1.943zm5.031 1.793v-5.22h-.827v2.879c0 1.066-.558 1.763-1.425 1.763-.657 0-1.075-.398-1.075-1.026v-3.616h-.827v3.945c0 .867.647 1.424 1.663 1.424.768 0 1.256-.269 1.744-.956v.807h.747zm8.308 0v-3.915c0-.936-.518-1.454-1.494-1.454-.697 0-1.116.209-1.604.797-.309-.558-.727-.797-1.404-.797-.698 0-1.156.259-1.604.886v-.737h-.757v5.22h.827v-3.277c0-.757.547-1.365 1.225-1.365.617 0 .966.379.966 1.046v3.596h.827v-3.277c0-.757.558-1.365 1.235-1.365.608 0 .956.389.956 1.046v3.596h.827zm5.838-2.37c0-.758-.059-1.236-.209-1.624-.338-.857-1.135-1.375-2.111-1.375-1.455 0-2.391 1.076-2.391 2.789s.906 2.73 2.371 2.73c1.195 0 2.022-.678 2.231-1.734h-.837c-.229.687-.697.966-1.365.966-.866 0-1.514-.557-1.534-1.753h3.845zm-.886-.738s0 .04-.01.06h-2.929c.07-.926.658-1.554 1.495-1.554.816 0 1.444.677 1.444 1.494zm6.167 3.108v-3.945c0-.866-.648-1.424-1.654-1.424-.777 0-1.275.299-1.733 1.026v-.877h-.767v5.22h.827v-2.879c0-1.066.577-1.763 1.424-1.763.658 0 1.076.399 1.076 1.026v3.616h.827zm3.218 0v-.697c-.11.03-.239.04-.399.04-.358 0-.458-.1-.458-.469v-3.416h.857v-.678h-.857v-1.434h-.827v1.434h-.707v.678h.707v3.785c0 .528.359.827 1.007.827.199 0 .398-.02.677-.07zm2.152.16v-1.196h-1.046v1.036h.598v.18c0 .687-.13.886-.598.906v.378c.697 0 1.046-.448 1.046-1.305zM246.817-16.109v-.628c-.09.02-.13.02-.179.02-.289 0-.449-.149-.449-.408v-2.909c0-.926-.677-1.424-1.962-1.424-1.265 0-2.042.488-2.092 1.693h.837c.07-.637.448-.926 1.225-.926.747 0 1.166.279 1.166.777v.22c0 .348-.21.497-.867.577-1.175.15-1.355.189-1.674.319-.607.249-.916.717-.916 1.354 0 .947.658 1.504 1.713 1.504a2.44 2.44 0 0 0 1.773-.767c.09.399.449.688.857.688.17 0 .299-.02.568-.09zm-1.454-1.783c0 .747-.757 1.225-1.564 1.225-.648 0-1.026-.229-1.026-.797 0-.548.368-.787 1.255-.916.876-.12 1.056-.16 1.335-.289v.777zm6.515 1.803v-3.945c0-.866-.647-1.424-1.654-1.424-.777 0-1.275.299-1.733 1.026v-.877h-.767v5.22h.827v-2.879c0-1.066.578-1.763 1.424-1.763.658 0 1.076.399 1.076 1.026v3.616h.827zm5.619 0v-7.262h-.827v2.7c-.349-.528-.906-.807-1.604-.807-1.354 0-2.241 1.046-2.241 2.71 0 1.762.867 2.808 2.271 2.808.718 0 1.215-.269 1.664-.916v.767h.737zm-.827-2.59c0 1.205-.578 1.962-1.454 1.962-.917 0-1.524-.767-1.524-1.982 0-1.215.607-1.982 1.514-1.982.896 0 1.464.797 1.464 2.002zM263.534-16.089v-.697a1.54 1.54 0 0 1-.398.04c-.359 0-.459-.1-.459-.469v-3.416h.857v-.678h-.857v-1.434h-.826v1.434h-.708v.678h.708v3.785c0 .528.358.827 1.006.827.199 0 .398-.02.677-.07zM268.764-18.659c0-1.803-.866-2.8-2.371-2.8-1.464 0-2.35 1.007-2.35 2.76s.876 2.76 2.36 2.76c1.465 0 2.361-1.007 2.361-2.72zm-.866-.01c0 1.225-.578 1.962-1.495 1.962-.926 0-1.494-.727-1.494-1.992 0-1.255.568-1.992 1.494-1.992.937 0 1.495.727 1.495 2.022zM277.431-16.109v-.628c-.089.02-.129.02-.179.02-.289 0-.448-.149-.448-.408v-2.909c0-.926-.678-1.424-1.963-1.424-1.265 0-2.042.488-2.091 1.693h.836c.07-.637.449-.926 1.225-.926.748 0 1.166.279 1.166.777v.22c0 .348-.209.497-.866.577-1.176.15-1.355.189-1.674.319-.608.249-.916.717-.916 1.354 0 .947.657 1.504 1.713 1.504.667 0 1.315-.278 1.773-.767a.883.883 0 0 0 .857.688c.169 0 .298-.02.567-.09zm-1.454-1.783c0 .747-.757 1.225-1.564 1.225-.647 0-1.026-.229-1.026-.797 0-.548.369-.787 1.255-.916.877-.12 1.056-.16 1.335-.289v.777zm6.595 1.803v-7.262h-.827v2.7c-.348-.528-.906-.807-1.603-.807-1.355 0-2.242 1.046-2.242 2.71 0 1.762.867 2.808 2.271 2.808.718 0 1.216-.269 1.664-.916v.767h.737zm-.827-2.59c0 1.205-.578 1.962-1.454 1.962-.917 0-1.524-.767-1.524-1.982 0-1.215.607-1.982 1.514-1.982.896 0 1.464.797 1.464 2.002zm6.366 2.59v-7.262h-.827v2.7c-.348-.528-.906-.807-1.603-.807-1.355 0-2.242 1.046-2.242 2.71 0 1.762.867 2.808 2.271 2.808.718 0 1.216-.269 1.664-.916v.767h.737zm-.827-2.59c0 1.205-.577 1.962-1.454 1.962-.917 0-1.524-.767-1.524-1.982 0-1.215.607-1.982 1.514-1.982.897 0 1.464.797 1.464 2.002zM296.37-17.882h-.837c-.139.837-.568 1.175-1.275 1.175-.916 0-1.464-.707-1.464-1.942 0-1.305.538-2.042 1.444-2.042.698 0 1.136.408 1.235 1.135h.837c-.099-1.275-.896-1.902-2.062-1.902-1.404 0-2.321 1.076-2.321 2.809 0 1.683.897 2.71 2.311 2.71 1.245 0 2.032-.748 2.132-1.943zm1.754 1.793v-5.22h-.827v5.22h.827zm.109-6.007v-1.036h-1.036v1.036h1.036zm3.108 6.007v-.697a1.54 1.54 0 0 1-.398.04c-.359 0-.458-.1-.458-.469v-3.416h.856v-.678h-.856v-1.434h-.827v1.434h-.707v.678h.707v3.785c0 .528.359.827 1.006.827.199 0 .399-.02.677-.07zm5.569-.02v-.628a.678.678 0 0 1-.179.02c-.289 0-.449-.149-.449-.408v-2.909c0-.926-.677-1.424-1.962-1.424-1.265 0-2.042.488-2.092 1.693h.837c.07-.637.448-.926 1.225-.926.747 0 1.166.279 1.166.777v.22c0 .348-.21.497-.867.577-1.175.15-1.355.189-1.673.319-.608.249-.917.717-.917 1.354 0 .947.658 1.504 1.713 1.504.668 0 1.315-.278 1.774-.767a.883.883 0 0 0 .856.688c.17 0 .299-.02.568-.09zm-1.454-1.783c0 .747-.757 1.225-1.564 1.225-.648 0-1.026-.229-1.026-.797 0-.548.368-.787 1.255-.916.876-.12 1.056-.16 1.335-.289v.777zm4.194 1.803v-.697a1.54 1.54 0 0 1-.398.04c-.359 0-.459-.1-.459-.469v-3.416h.857v-.678h-.857v-1.434h-.826v1.434h-.708v.678h.708v3.785c0 .528.358.827 1.006.827.199 0 .398-.02.677-.07zm1.764 0v-5.22h-.827v5.22h.827zm.109-6.007v-1.036h-1.036v1.036h1.036zm5.658 3.437c0-1.803-.866-2.8-2.37-2.8-1.465 0-2.351 1.007-2.351 2.76s.876 2.76 2.361 2.76c1.464 0 2.36-1.007 2.36-2.72zm-.866-.01c0 1.225-.578 1.962-1.494 1.962-.927 0-1.495-.727-1.495-1.992 0-1.255.568-1.992 1.495-1.992.936 0 1.494.727 1.494 2.022zm6.177 2.58v-3.945c0-.866-.648-1.424-1.654-1.424-.777 0-1.275.299-1.733 1.026v-.877h-.768v5.22h.827v-2.879c0-1.066.578-1.763 1.425-1.763.657 0 1.076.399 1.076 1.026v3.616h.827zm5.26-1.464c0-.777-.439-1.166-1.475-1.415l-.797-.19c-.677-.159-.966-.378-.966-.746 0-.478.429-.787 1.106-.787.667 0 1.026.289 1.046.837h.877c-.01-1.026-.688-1.604-1.893-1.604-1.216 0-2.002.627-2.002 1.594 0 .817.418 1.205 1.653 1.504l.777.19c.578.138.807.308.807.686 0 .488-.488.777-1.215.777-.747 0-1.166-.179-1.275-.976h-.877c.04 1.206.717 1.743 2.082 1.743 1.315 0 2.152-.607 2.152-1.613zM336.386-16.109v-.628c-.09.02-.13.02-.179.02-.289 0-.449-.149-.449-.408v-2.909c0-.926-.677-1.424-1.962-1.424-1.265 0-2.042.488-2.092 1.693h.837c.07-.637.448-.926 1.225-.926.747 0 1.166.279 1.166.777v.22c0 .348-.21.497-.867.577-1.176.15-1.355.189-1.674.319-.607.249-.916.717-.916 1.354 0 .947.658 1.504 1.713 1.504a2.44 2.44 0 0 0 1.773-.767c.09.399.449.688.857.688.17 0 .299-.02.568-.09zm-1.454-1.783c0 .747-.758 1.225-1.564 1.225-.648 0-1.026-.229-1.026-.797 0-.548.368-.787 1.255-.916.876-.12 1.056-.16 1.335-.289v.777zm6.515 1.803v-3.945c0-.866-.647-1.424-1.654-1.424-.777 0-1.275.299-1.733 1.026v-.877h-.767v5.22h.827v-2.879c0-1.066.578-1.763 1.424-1.763.658 0 1.076.399 1.076 1.026v3.616h.827zm5.619 0v-7.262h-.827v2.7c-.349-.528-.907-.807-1.604-.807-1.354 0-2.241 1.046-2.241 2.71 0 1.762.867 2.808 2.271 2.808.717 0 1.215-.269 1.664-.916v.767h.737zm-.827-2.59c0 1.205-.578 1.962-1.454 1.962-.917 0-1.524-.767-1.524-1.982 0-1.215.607-1.982 1.514-1.982.896 0 1.464.797 1.464 2.002zM8.737-5.927H7.9c-.14.837-.568 1.176-1.275 1.176-.917 0-1.465-.708-1.465-1.943 0-1.305.538-2.042 1.445-2.042.697 0 1.135.408 1.235 1.135h.837c-.1-1.275-.897-1.902-2.062-1.902-1.405 0-2.321 1.076-2.321 2.809 0 1.683.896 2.71 2.31 2.71 1.246 0 2.033-.748 2.133-1.943zm3.427-2.7v-.846c-.14-.02-.21-.03-.319-.03-.538 0-.946.319-1.424 1.096v-.947h-.758v5.22h.827v-2.71c0-1.175.389-1.762 1.674-1.782zM17.322-6.704c0-1.803-.866-2.799-2.37-2.799-1.465 0-2.351 1.006-2.351 2.76 0 1.752.876 2.758 2.36 2.758 1.465 0 2.361-1.006 2.361-2.719zm-.866-.01c0 1.225-.578 1.963-1.495 1.963-.926 0-1.494-.728-1.494-1.993 0-1.255.568-1.992 1.494-1.992.937 0 1.495.727 1.495 2.022zm5.897 1.116c0-.777-.438-1.166-1.474-1.415l-.797-.19c-.677-.158-.966-.378-.966-.746 0-.478.428-.787 1.106-.787.667 0 1.026.289 1.046.837h.876c-.01-1.026-.687-1.604-1.892-1.604-1.216 0-2.003.627-2.003 1.594 0 .817.419 1.205 1.654 1.504l.777.19c.578.139.807.308.807.686 0 .488-.488.778-1.215.778-.748 0-1.166-.18-1.275-.977h-.877c.04 1.206.717 1.743 2.082 1.743 1.314 0 2.151-.607 2.151-1.613zm4.982 0c0-.777-.439-1.166-1.475-1.415l-.797-.19c-.677-.158-.966-.378-.966-.746 0-.478.428-.787 1.106-.787.667 0 1.026.289 1.046.837h.877c-.01-1.026-.688-1.604-1.893-1.604-1.216 0-2.003.627-2.003 1.594 0 .817.419 1.205 1.654 1.504l.777.19c.578.139.807.308.807.686 0 .488-.488.778-1.215.778-.747 0-1.166-.18-1.275-.977H23.1c.04 1.206.717 1.743 2.082 1.743 1.315 0 2.152-.607 2.152-1.613zm3.238-.927v-.717h-2.371v.717h2.37zm3.686-2.101v-.847c-.14-.02-.21-.03-.32-.03-.537 0-.945.319-1.423 1.096v-.947h-.758v5.22h.827v-2.71c0-1.175.389-1.762 1.674-1.782zM39.385-6.505c0-.757-.06-1.235-.209-1.623-.339-.857-1.136-1.375-2.112-1.375-1.454 0-2.39 1.076-2.39 2.789s.906 2.73 2.37 2.73c1.196 0 2.023-.678 2.232-1.734h-.837c-.23.687-.697.967-1.365.967-.866 0-1.514-.558-1.534-1.754h3.845zm-.886-.737s0 .04-.01.06H35.56c.07-.926.658-1.554 1.494-1.554.817 0 1.445.677 1.445 1.494zm3.885-1.434v-.678h-.866v-.817c0-.348.199-.527.578-.527.07 0 .099 0 .288.01v-.688c-.189-.04-.298-.05-.468-.05-.767 0-1.225.439-1.225 1.186v.886h-.697v.678h.697v4.542h.827v-4.542h.866zM47.544-6.505c0-.757-.06-1.235-.209-1.623-.338-.857-1.135-1.375-2.112-1.375-1.454 0-2.39 1.076-2.39 2.789s.906 2.73 2.37 2.73c1.196 0 2.023-.678 2.232-1.734h-.837c-.229.687-.697.967-1.365.967-.866 0-1.514-.558-1.534-1.754h3.845zm-.886-.737s0 .04-.01.06H43.72c.07-.926.658-1.554 1.494-1.554.817 0 1.445.677 1.445 1.494zm4.513-1.384v-.847c-.14-.02-.21-.03-.319-.03-.538 0-.946.319-1.424 1.096v-.947h-.757v5.22h.827v-2.71c0-1.175.388-1.762 1.673-1.782zM56.3-6.505c0-.757-.06-1.235-.209-1.623-.339-.857-1.136-1.375-2.112-1.375-1.454 0-2.39 1.076-2.39 2.789s.906 2.73 2.37 2.73c1.196 0 2.022-.678 2.232-1.734h-.837c-.23.687-.697.967-1.365.967-.866 0-1.514-.558-1.534-1.754H56.3zm-.886-.737s0 .04-.01.06h-2.929c.07-.926.658-1.554 1.494-1.554.817 0 1.445.677 1.445 1.494zm6.167 3.108v-3.945c0-.866-.648-1.424-1.654-1.424-.777 0-1.275.299-1.733 1.026v-.877h-.767v5.22h.826v-2.879c0-1.066.578-1.763 1.425-1.763.657 0 1.076.399 1.076 1.026v3.616h.827zm5.44-1.793h-.838c-.14.837-.568 1.176-1.275 1.176-.916 0-1.464-.708-1.464-1.943 0-1.305.538-2.042 1.444-2.042.698 0 1.136.408 1.236 1.135h.836c-.1-1.275-.896-1.902-2.062-1.902-1.404 0-2.32 1.076-2.32 2.809 0 1.683.896 2.71 2.31 2.71 1.245 0 2.032-.748 2.132-1.943zm5.339-.578c0-.757-.06-1.235-.21-1.623-.338-.857-1.135-1.375-2.111-1.375-1.455 0-2.39 1.076-2.39 2.789s.906 2.73 2.37 2.73c1.195 0 2.022-.678 2.231-1.734h-.837c-.229.687-.697.967-1.364.967-.867 0-1.514-.558-1.534-1.754h3.845zm-.887-.737s0 .04-.01.06h-2.928c.07-.926.657-1.554 1.494-1.554.817 0 1.444.677 1.444 1.494zm5.888 1.644c0-.777-.438-1.166-1.474-1.415l-.797-.19c-.677-.158-.966-.378-.966-.746 0-.478.428-.787 1.106-.787.667 0 1.025.289 1.045.837h.877c-.01-1.026-.688-1.604-1.893-1.604-1.215 0-2.002.627-2.002 1.594 0 .817.418 1.205 1.654 1.504l.777.19c.578.139.806.308.806.686 0 .488-.488.778-1.215.778-.747 0-1.165-.18-1.275-.977h-.876c.04 1.206.717 1.743 2.082 1.743 1.314 0 2.151-.607 2.151-1.613zm2.312 1.464V-5.17h-1.036v1.036h1.036z"/></svg>