<?xml version="1.0" encoding="utf-8"?>
<!-- Generator: Adobe Illustrator 12.0.1, SVG Export Plug-In . SVG Version: 6.00 Build 51448)  -->
<!DOCTYPE svg PUBLIC "-//W3C//DTD SVG 1.1//EN" "http://www.w3.org/Graphics/SVG/1.1/DTD/svg11.dtd" [
	<!ENTITY ns_svg "http://www.w3.org/2000/svg">
	<!ENTITY ns_xlink "http://www.w3.org/1999/xlink">
]>
<svg  version="1.1" id="Layer_1" xmlns="&ns_svg;" xmlns:xlink="&ns_xlink;" width="198" height="234" viewBox="0 0 198 234"
	 overflow="visible" enable-background="new 0 0 198 234" xml:space="preserve">
<g>
	<rect fill-rule="evenodd" clip-rule="evenodd" fill="#FFFFFF" width="198" height="234"/>
	<path fill-rule="evenodd" clip-rule="evenodd" fill="#E9E4D1" d="M0,0h198v156H0V0z M0,0"/>
	<rect y="156" fill-rule="evenodd" clip-rule="evenodd" fill="#66A3D3" width="198" height="78"/>
	<g>
		<path fill="#414142" d="M24.749,13.347l0.595-1.257h0.547l0.25,5.234h-0.594c-0.386-1.48-0.871-2.572-1.456-3.275
			c-0.725-0.879-1.59-1.318-2.596-1.318c-1.087,0-1.973,0.487-2.657,1.462s-1.026,2.624-1.026,4.948
			c0,1.955,0.392,3.447,1.176,4.475c0.667,0.868,1.603,1.303,2.809,1.303c1.053,0,1.937-0.338,2.651-1.016
			c0.714-0.676,1.179-1.697,1.396-3.062h0.625c-0.182,1.546-0.712,2.734-1.59,3.565c-0.879,0.831-1.985,1.247-3.32,1.247
			c-1.084,0-2.078-0.272-2.982-0.817c-0.905-0.545-1.628-1.328-2.17-2.351c-0.542-1.021-0.812-2.143-0.812-3.361
			c0-1.294,0.279-2.51,0.838-3.646c0.559-1.137,1.274-1.99,2.146-2.562s1.811-0.856,2.817-0.856c0.562,0,1.106,0.098,1.633,0.293
			C23.554,12.546,24.128,12.878,24.749,13.347z"/>
		<path fill="#414142" d="M35.853,21.262h-5.891c0.029,1.256,0.264,2.143,0.703,2.659c0.504,0.581,1.146,0.872,1.925,0.872
			c1.148,0,2.071-0.656,2.769-1.969l0.572,0.247c-0.856,1.669-2.093,2.503-3.711,2.503c-1.102,0-2.03-0.398-2.784-1.196
			c-0.753-0.798-1.13-1.817-1.13-3.062c0-1.336,0.37-2.417,1.111-3.24c0.741-0.824,1.653-1.236,2.737-1.236
			c0.796,0,1.485,0.205,2.064,0.615s1.016,1,1.309,1.768C35.733,19.762,35.841,20.441,35.853,21.262z M29.962,20.637h3.566
			c0.211,0,0.375-0.071,0.492-0.215s0.176-0.388,0.176-0.733c0-0.644-0.201-1.19-0.602-1.642c-0.401-0.45-0.875-0.676-1.419-0.676
			c-0.609,0-1.126,0.272-1.551,0.816C30.201,18.732,29.98,19.549,29.962,20.637z"/>
		<path fill="#414142" d="M37.332,17.074l2.734-0.156c0.113,0.516,0.196,1.119,0.25,1.812c0.369-0.599,0.803-1.048,1.304-1.347
			c0.5-0.3,1.066-0.449,1.699-0.449c0.544,0,1.001,0.107,1.37,0.321s0.665,0.553,0.887,1.017c0.222,0.463,0.333,0.982,0.333,1.557
			v4.013c0,0.3,0.067,0.512,0.201,0.638c0.134,0.127,0.359,0.189,0.674,0.189h0.578v0.656h-4.328v-0.656h0.41
			c0.383,0,0.65-0.062,0.801-0.185s0.227-0.308,0.227-0.555V20.4c0-0.768-0.117-1.337-0.351-1.706
			c-0.327-0.528-0.824-0.792-1.49-0.792c-0.661,0-1.212,0.268-1.653,0.801s-0.662,1.229-0.662,2.085v3.053
			c0,0.3,0.068,0.512,0.206,0.638c0.137,0.127,0.363,0.189,0.679,0.189h0.569v0.656h-4.344v-0.656h0.566
			c0.285,0,0.5-0.059,0.649-0.176c0.148-0.117,0.222-0.264,0.222-0.44v-5.325c0-0.353-0.095-0.619-0.286-0.801
			c-0.191-0.183-0.465-0.273-0.823-0.273h-0.422V17.074z"/>
		<path fill="#414142" d="M50.697,13.73h0.594v3.359h2.656v0.812h-2.656v5.274c0,0.456,0.107,0.806,0.323,1.049
			c0.215,0.243,0.488,0.364,0.819,0.364c0.395,0,0.732-0.184,1.011-0.552c0.278-0.368,0.441-0.976,0.488-1.823h0.594
			c-0.035,1.096-0.284,1.908-0.747,2.439c-0.463,0.529-1.063,0.795-1.801,0.795c-0.68,0-1.211-0.186-1.595-0.558
			s-0.576-0.859-0.576-1.463v-5.526h-1.438v-0.618c0.658-0.111,1.158-0.384,1.501-0.818C50.38,15.815,50.656,14.903,50.697,13.73z"
			/>
		<path fill="#414142" d="M58.541,16.934V22.4c0,0.67,0.168,1.186,0.505,1.55s0.771,0.546,1.305,0.546
			c0.655,0,1.213-0.266,1.673-0.797c0.459-0.531,0.689-1.195,0.689-1.994v-3.09c0-0.282-0.102-0.501-0.304-0.656
			s-0.591-0.242-1.165-0.26V17.09l2.891-0.156v6.753c0,0.311,0.087,0.549,0.263,0.716s0.421,0.25,0.736,0.25h0.517v0.594
			l-2.766,0.062l-0.172-1.605c-0.491,0.58-0.986,1.016-1.483,1.308c-0.497,0.292-1,0.438-1.509,0.438
			c-0.743,0-1.366-0.249-1.869-0.748c-0.509-0.492-0.764-1.328-0.764-2.507v-3.58c0-0.316-0.125-0.558-0.376-0.722
			c-0.175-0.117-0.534-0.182-1.077-0.193V17.09L58.541,16.934z"/>
		<path fill="#414142" d="M66.781,17.09l2.953-0.156v3.332c0.316-1.096,0.697-1.925,1.144-2.488
			c0.445-0.562,0.997-0.844,1.653-0.844c0.445,0,0.802,0.137,1.068,0.408c0.267,0.273,0.4,0.638,0.4,1.095
			c0,0.369-0.089,0.656-0.267,0.861s-0.401,0.308-0.67,0.308c-0.263,0-0.474-0.088-0.635-0.264s-0.241-0.413-0.241-0.713
			c0-0.193,0.046-0.375,0.137-0.545c0.085-0.152,0.128-0.243,0.128-0.272c0-0.088-0.056-0.132-0.167-0.132
			c-0.24,0-0.512,0.141-0.816,0.422c-0.421,0.394-0.746,0.934-0.975,1.62c-0.351,1.067-0.526,1.921-0.526,2.562v1.769
			c0,0.2,0.07,0.353,0.212,0.458c0.141,0.105,0.382,0.158,0.723,0.158h1.05v0.656h-5.125v-0.656h0.819
			c0.276,0,0.484-0.055,0.625-0.162c0.141-0.109,0.211-0.239,0.211-0.392v-5.248c0-0.398-0.085-0.69-0.255-0.874
			c-0.17-0.186-0.412-0.277-0.729-0.277h-0.72V17.09z"/>
		<path fill="#414142" d="M74.921,17.09h3.953v0.594h-0.372c-0.348,0-0.586,0.046-0.713,0.137c-0.127,0.092-0.19,0.223-0.19,0.394
			c0,0.077,0.02,0.153,0.059,0.229l2.295,4.946l1.711-4.102c0.123-0.294,0.184-0.582,0.184-0.864c0-0.217-0.085-0.386-0.254-0.507
			c-0.17-0.12-0.509-0.198-1.018-0.233V17.09h3.422v0.594c-0.656,0.064-1.098,0.362-1.324,0.893l-3.062,7.086
			c-0.521,1.204-1.042,2.033-1.563,2.488c-0.528,0.459-1.095,0.689-1.699,0.689c-0.44,0-0.793-0.12-1.061-0.361
			c-0.267-0.24-0.4-0.536-0.4-0.889c0-0.264,0.082-0.48,0.247-0.65c0.165-0.171,0.37-0.256,0.617-0.256
			c0.223,0,0.411,0.073,0.564,0.221c0.152,0.147,0.229,0.324,0.229,0.53c0,0.064-0.012,0.153-0.035,0.265
			c-0.023,0.088-0.035,0.153-0.035,0.194c0,0.142,0.091,0.212,0.272,0.212c0.193,0,0.411-0.07,0.654-0.212
			c0.243-0.142,0.47-0.368,0.681-0.68s0.579-1.001,1.103-2.068l-3.127-6.702c-0.11-0.235-0.248-0.41-0.413-0.525
			s-0.407-0.193-0.725-0.234V17.09z"/>
	</g>
	<g>
		<path fill="#414142" d="M98.427,13.309l0.792-1.125h0.641l0.047,4.734h-0.578c-0.364-1.454-0.902-2.516-1.616-3.185
			c-0.713-0.669-1.533-1.003-2.461-1.003c-0.775,0-1.409,0.231-1.902,0.694c-0.493,0.464-0.739,1.029-0.739,1.697
			c0,0.416,0.094,0.781,0.281,1.095c0.188,0.313,0.468,0.568,0.841,0.765s1.076,0.405,2.11,0.626
			c1.451,0.313,2.467,0.632,3.05,0.954c0.583,0.323,1.017,0.729,1.304,1.219c0.286,0.49,0.43,1.063,0.43,1.72
			c0,1.174-0.394,2.146-1.181,2.917c-0.788,0.771-1.805,1.157-3.052,1.157c-1.34,0-2.505-0.432-3.494-1.297l-0.992,1.203h-0.641
			v-5.031h0.641c0.246,1.387,0.796,2.48,1.651,3.282s1.818,1.202,2.89,1.202c0.867,0,1.574-0.256,2.122-0.77
			c0.547-0.513,0.821-1.136,0.821-1.868c0-0.416-0.103-0.781-0.309-1.095c-0.205-0.313-0.531-0.577-0.978-0.791
			c-0.446-0.213-1.324-0.472-2.633-0.775c-1.438-0.339-2.418-0.719-2.938-1.141c-0.73-0.597-1.096-1.442-1.096-2.537
			c0-1.142,0.365-2.076,1.096-2.805c0.73-0.729,1.665-1.094,2.804-1.094c0.546,0,1.065,0.096,1.558,0.289
			C97.388,12.539,97.898,12.859,98.427,13.309z"/>
		<path fill="#414142" d="M108.515,22.887l0.568,0.167c-0.458,1.681-1.466,2.521-3.025,2.521c-1.144,0-2.079-0.378-2.806-1.135
			c-0.728-0.756-1.091-1.762-1.091-3.017c0-1.454,0.399-2.582,1.197-3.382c0.798-0.801,1.736-1.201,2.816-1.201
			c0.81,0,1.479,0.223,2.007,0.667c0.527,0.444,0.792,0.938,0.792,1.482c0,0.327-0.099,0.599-0.298,0.812
			c-0.197,0.214-0.434,0.32-0.705,0.32c-0.267,0-0.491-0.09-0.675-0.271s-0.275-0.399-0.275-0.655c0-0.257,0.103-0.501,0.308-0.734
			c0.098-0.11,0.146-0.198,0.146-0.262c0-0.17-0.114-0.334-0.343-0.494s-0.538-0.24-0.93-0.24c-0.715,0-1.256,0.261-1.625,0.782
			c-0.526,0.757-0.79,1.753-0.79,2.989c0,1.179,0.234,2.071,0.703,2.678c0.469,0.607,1.066,0.91,1.793,0.91
			C107.284,24.824,108.028,24.179,108.515,22.887z"/>
		<path fill="#414142" d="M110.207,12.324l3.109-0.156v6.351c0.436-0.562,0.902-0.983,1.402-1.261
			c0.5-0.279,1.029-0.418,1.588-0.418c0.529,0,1.006,0.126,1.429,0.378c0.329,0.2,0.61,0.549,0.843,1.047
			c0.232,0.499,0.348,1.088,0.348,1.769v3.914c0,0.252,0.064,0.436,0.193,0.549c0.129,0.115,0.33,0.172,0.605,0.172h0.701v0.656
			h-4.438v-0.656h0.492c0.375,0,0.634-0.061,0.777-0.18c0.144-0.121,0.215-0.301,0.215-0.541v-3.912c0-0.686-0.166-1.22-0.499-1.604
			s-0.759-0.576-1.278-0.576c-0.406,0-0.784,0.108-1.132,0.325s-0.643,0.547-0.884,0.989c-0.242,0.442-0.363,0.91-0.363,1.402v3.287
			c0,0.293,0.062,0.501,0.186,0.624c0.124,0.123,0.326,0.185,0.609,0.185h0.705v0.656h-4.375v-0.656h0.5
			c0.34,0,0.581-0.066,0.724-0.197c0.143-0.133,0.214-0.336,0.214-0.611v-9.832c0-0.352-0.092-0.614-0.275-0.787
			s-0.451-0.26-0.801-0.26h-0.596V12.324z"/>
		<path fill="#414142" d="M125.484,16.84c1.105,0,2.035,0.4,2.788,1.201c0.752,0.8,1.128,1.854,1.128,3.162
			c0,0.902-0.168,1.672-0.505,2.309c-0.337,0.636-0.816,1.139-1.44,1.508c-0.623,0.37-1.295,0.555-2.016,0.555
			c-1.065,0-1.969-0.404-2.709-1.214s-1.111-1.858-1.111-3.149c0-1.295,0.372-2.348,1.115-3.157
			C123.479,17.244,124.395,16.84,125.484,16.84z M125.484,17.465c-0.653,0-1.189,0.298-1.609,0.893
			c-0.42,0.596-0.631,1.535-0.631,2.818c0,1.309,0.209,2.264,0.626,2.867c0.417,0.604,0.955,0.906,1.614,0.906
			c0.682,0,1.234-0.302,1.657-0.906c0.423-0.604,0.634-1.592,0.634-2.963c0-1.272-0.208-2.193-0.625-2.762
			C126.733,17.749,126.178,17.465,125.484,17.465z"/>
		<path fill="#414142" d="M134.682,16.84c1.106,0,2.036,0.4,2.788,1.201c0.753,0.8,1.129,1.854,1.129,3.162
			c0,0.902-0.169,1.672-0.505,2.309c-0.337,0.636-0.816,1.139-1.44,1.508c-0.624,0.37-1.296,0.555-2.016,0.555
			c-1.065,0-1.969-0.404-2.71-1.214c-0.74-0.81-1.11-1.858-1.11-3.149c0-1.295,0.372-2.348,1.115-3.157S133.593,16.84,134.682,16.84
			z M134.682,17.465c-0.653,0-1.189,0.298-1.609,0.893c-0.42,0.596-0.63,1.535-0.63,2.818c0,1.309,0.208,2.264,0.626,2.867
			c0.416,0.604,0.954,0.906,1.613,0.906c0.683,0,1.234-0.302,1.658-0.906c0.422-0.604,0.634-1.592,0.634-2.963
			c0-1.272-0.208-2.193-0.626-2.762C135.932,17.749,135.376,17.465,134.682,17.465z"/>
		<path fill="#414142" d="M143.109,12.168v11.945c0,0.165,0.05,0.291,0.15,0.379c0.146,0.117,0.326,0.176,0.538,0.176h0.874v0.656
			H140v-0.656h0.826c0.269,0,0.469-0.064,0.602-0.193c0.131-0.129,0.197-0.311,0.197-0.545V13.904c0-0.293-0.079-0.508-0.238-0.643
			c-0.218-0.188-0.484-0.281-0.803-0.281h-0.74v-0.656L143.109,12.168z"/>
		<path fill="#414142" d="M148.414,12.168v6.129c0.346-0.488,0.729-0.854,1.15-1.095s0.882-0.362,1.38-0.362
			c0.967,0,1.784,0.378,2.452,1.135c0.668,0.756,1.002,1.753,1.002,2.99c0,1.342-0.36,2.425-1.079,3.249
			c-0.719,0.823-1.609,1.235-2.671,1.235c-0.505,0-0.963-0.1-1.373-0.3c-0.411-0.2-0.834-0.539-1.268-1.016
			c-0.33,0.536-0.647,0.974-0.953,1.315l-0.359-0.125c0.166-0.674,0.25-1.377,0.25-2.11v-9.311c0-0.287-0.102-0.513-0.305-0.677
			c-0.202-0.164-0.488-0.246-0.857-0.246h-0.369v-0.656L148.414,12.168z M150.628,17.621c-0.663,0-1.204,0.288-1.62,0.864
			c-0.417,0.577-0.625,1.529-0.625,2.857c0,1.264,0.205,2.168,0.616,2.712c0.411,0.545,0.948,0.816,1.611,0.816
			c0.599,0,1.08-0.27,1.444-0.808c0.458-0.679,0.688-1.647,0.688-2.905c0-1.24-0.201-2.14-0.604-2.699
			C151.736,17.9,151.232,17.621,150.628,17.621z"/>
		<path fill="#414142" d="M159.955,16.84c1.107,0,2.036,0.4,2.789,1.201c0.752,0.8,1.129,1.854,1.129,3.162
			c0,0.902-0.169,1.672-0.506,2.309c-0.336,0.636-0.816,1.139-1.439,1.508c-0.624,0.37-1.296,0.555-2.016,0.555
			c-1.066,0-1.969-0.404-2.71-1.214s-1.11-1.858-1.11-3.149c0-1.295,0.371-2.348,1.115-3.157
			C157.95,17.244,158.866,16.84,159.955,16.84z M159.956,17.465c-0.653,0-1.19,0.298-1.61,0.893
			c-0.42,0.596-0.629,1.535-0.629,2.818c0,1.309,0.208,2.264,0.625,2.867c0.417,0.604,0.955,0.906,1.614,0.906
			c0.682,0,1.234-0.302,1.657-0.906c0.423-0.604,0.635-1.592,0.635-2.963c0-1.272-0.209-2.193-0.626-2.762
			C161.205,17.749,160.649,17.465,159.956,17.465z"/>
		<path fill="#414142" d="M169.153,16.84c1.106,0,2.036,0.4,2.788,1.201c0.753,0.8,1.129,1.854,1.129,3.162
			c0,0.902-0.168,1.672-0.505,2.309c-0.337,0.636-0.817,1.139-1.44,1.508c-0.623,0.37-1.295,0.555-2.016,0.555
			c-1.065,0-1.969-0.404-2.709-1.214c-0.741-0.81-1.111-1.858-1.111-3.149c0-1.295,0.371-2.348,1.115-3.157
			S168.064,16.84,169.153,16.84z M169.153,17.465c-0.653,0-1.189,0.298-1.609,0.893c-0.42,0.596-0.63,1.535-0.63,2.818
			c0,1.309,0.209,2.264,0.625,2.867c0.418,0.604,0.955,0.906,1.614,0.906c0.683,0,1.235-0.302,1.657-0.906
			c0.424-0.604,0.635-1.592,0.635-2.963c0-1.272-0.209-2.193-0.625-2.762C170.402,17.749,169.848,17.465,169.153,17.465z"/>
		<path fill="#414142" d="M174.347,12.324l3.125-0.156v9l2.678-2.33c0.258-0.229,0.387-0.428,0.387-0.6
			c0-0.146-0.077-0.262-0.229-0.345c-0.229-0.118-0.601-0.183-1.116-0.194V17.09h4.391v0.609c-0.868,0.047-1.531,0.277-1.988,0.691
			l-1.896,1.666l3.074,4.23c0.188,0.254,0.514,0.381,0.977,0.381h0.458v0.656h-4.5v-0.656h0.448c0.335,0,0.56-0.029,0.674-0.089
			c0.114-0.059,0.172-0.13,0.172-0.212c0-0.083-0.029-0.166-0.088-0.248l-2.254-3.15l-1.187,1.043v2.105
			c0,0.172,0.056,0.299,0.166,0.382c0.157,0.112,0.376,0.169,0.656,0.169h0.568v0.656h-4.422v-0.656h0.714
			c0.294,0,0.512-0.062,0.652-0.185c0.142-0.123,0.212-0.287,0.212-0.493V13.824c0-0.264-0.084-0.457-0.251-0.58
			c-0.243-0.176-0.569-0.264-0.979-0.264h-0.442V12.324z"/>
	</g>
	<g>
		<path d="M24.002,176.025l0.334,0.521c-0.453,0.465-0.956,0.697-1.509,0.697c-0.422,0-0.778-0.114-1.066-0.342
			c-0.289-0.229-0.542-0.629-0.759-1.203c-0.586,0.617-1.102,1.028-1.546,1.235c-0.444,0.206-0.978,0.31-1.601,0.31
			c-0.889,0-1.564-0.191-2.027-0.574s-0.694-0.874-0.694-1.473c0-0.902,0.529-1.65,1.587-2.247c1.059-0.596,2.467-0.993,4.226-1.19
			v-1.307c0-0.467-0.188-0.865-0.566-1.196s-0.856-0.497-1.438-0.497c-0.538,0-1.002,0.111-1.391,0.333
			c-0.278,0.167-0.417,0.33-0.417,0.49c0,0.093,0.075,0.238,0.227,0.436c0.182,0.247,0.273,0.466,0.273,0.657
			c0,0.277-0.09,0.504-0.27,0.68s-0.415,0.264-0.706,0.264c-0.31,0-0.568-0.105-0.775-0.315c-0.208-0.21-0.312-0.479-0.312-0.808
			c0-0.611,0.345-1.172,1.035-1.679s1.596-0.761,2.717-0.761c1.034,0,1.823,0.222,2.368,0.666c0.545,0.449,0.817,0.995,0.817,1.637
			v4.733c0,0.419,0.068,0.728,0.204,0.925c0.136,0.203,0.312,0.305,0.529,0.305C23.483,176.322,23.736,176.224,24.002,176.025z
			 M20.946,172.369c-1.567,0.217-2.678,0.569-3.332,1.058c-0.487,0.371-0.731,0.897-0.731,1.577c0,0.477,0.126,0.849,0.379,1.118
			c0.253,0.269,0.583,0.403,0.99,0.403c0.728,0,1.359-0.276,1.892-0.83c0.534-0.554,0.801-1.248,0.801-2.083V172.369z"/>
		<path d="M30.621,163.119v6.477c0.366-0.517,0.771-0.902,1.217-1.156c0.446-0.256,0.933-0.383,1.459-0.383
			c1.022,0,1.886,0.398,2.593,1.194c0.706,0.796,1.059,1.845,1.059,3.147c0,1.413-0.379,2.553-1.139,3.42
			c-0.759,0.867-1.7,1.301-2.821,1.301c-0.533,0-1.017-0.105-1.451-0.316c-0.434-0.21-0.88-0.566-1.339-1.068
			c-0.345,0.564-0.679,1.025-1,1.385l-0.391-0.125c0.177-0.711,0.266-1.452,0.266-2.225v-9.817c0-0.303-0.106-0.541-0.319-0.714
			c-0.213-0.173-0.514-0.26-0.902-0.26h-0.388v-0.703L30.621,163.119z M32.964,168.885c-0.702,0-1.272,0.303-1.713,0.909
			s-0.661,1.608-0.661,3.005c0,1.329,0.217,2.28,0.652,2.853s1.002,0.858,1.704,0.858c0.633,0,1.142-0.283,1.527-0.85
			c0.484-0.714,0.726-1.732,0.726-3.055c0-1.305-0.212-2.251-0.638-2.839C34.136,169.179,33.604,168.885,32.964,168.885z"/>
		<path d="M47.673,174.4l0.607,0.177c-0.482,1.778-1.545,2.667-3.189,2.667c-1.206,0-2.191-0.397-2.958-1.193
			s-1.149-1.854-1.149-3.174c0-1.529,0.42-2.715,1.26-3.558c0.84-0.842,1.829-1.263,2.966-1.263c0.852,0,1.556,0.235,2.112,0.705
			c0.556,0.47,0.834,0.992,0.834,1.567c0,0.347-0.104,0.632-0.314,0.858c-0.209,0.225-0.458,0.338-0.745,0.338
			c-0.281,0-0.519-0.096-0.712-0.287c-0.194-0.19-0.291-0.422-0.291-0.693s0.109-0.53,0.329-0.777
			c0.104-0.117,0.155-0.21,0.155-0.277c0-0.179-0.121-0.354-0.361-0.523c-0.241-0.169-0.568-0.254-0.982-0.254
			c-0.753,0-1.325,0.274-1.713,0.822c-0.556,0.795-0.834,1.842-0.834,3.142c0,1.238,0.247,2.177,0.741,2.814
			s1.125,0.956,1.891,0.956C46.375,176.447,47.16,175.766,47.673,174.4z"/>
		<path d="M56.963,163.275l3.391-0.156v11.884c0,0.463,0.088,0.794,0.264,0.991c0.176,0.198,0.439,0.297,0.791,0.297h0.602v0.703
			h-2.969l-0.219-1.761c-0.353,0.626-0.766,1.097-1.239,1.412c-0.474,0.315-1.005,0.474-1.593,0.474c-0.99,0-1.833-0.413-2.53-1.24
			s-1.044-1.92-1.044-3.277c0-1.469,0.445-2.641,1.337-3.518c0.699-0.685,1.504-1.027,2.414-1.027c0.557,0,1.057,0.139,1.499,0.416
			c0.442,0.278,0.828,0.697,1.156,1.259v-4.908c0-0.26-0.101-0.466-0.301-0.617s-0.514-0.228-0.938-0.228h-0.62V163.275z
			 M56.413,168.822c-0.669,0-1.2,0.275-1.594,0.826c-0.394,0.55-0.59,1.478-0.59,2.783c0,1.416,0.201,2.414,0.604,2.992
			s0.92,0.867,1.552,0.867c0.675,0,1.253-0.323,1.733-0.97s0.72-1.591,0.72-2.834c0-1.175-0.257-2.101-0.771-2.774
			C57.621,169.119,57.07,168.822,56.413,168.822z"/>
		<path d="M73.638,172.713h-6.219c0.031,1.317,0.278,2.247,0.742,2.789c0.531,0.609,1.208,0.914,2.03,0.914
			c1.212,0,2.186-0.688,2.921-2.062l0.604,0.259c-0.903,1.755-2.209,2.632-3.917,2.632c-1.163,0-2.143-0.42-2.938-1.258
			c-0.795-0.84-1.192-1.912-1.192-3.221c0-1.406,0.391-2.542,1.173-3.409c0.782-0.866,1.746-1.3,2.89-1.3
			c0.841,0,1.567,0.216,2.18,0.648c0.612,0.432,1.073,1.052,1.382,1.86C73.511,171.133,73.625,171.85,73.638,172.713z
			 M67.419,172.057h3.764c0.222,0,0.396-0.075,0.519-0.227c0.124-0.15,0.186-0.408,0.186-0.771c0-0.678-0.212-1.254-0.635-1.728
			c-0.423-0.475-0.922-0.712-1.497-0.712c-0.643,0-1.188,0.287-1.636,0.859C67.671,170.052,67.438,170.911,67.419,172.057z"/>
		<path d="M80.497,168.307h2.172v0.828h-2.172v6.316c0,0.289,0.068,0.492,0.204,0.609c0.186,0.153,0.445,0.23,0.78,0.23h1.188v0.703
			H77.34v-0.703h0.73c0.327,0,0.555-0.056,0.685-0.166c0.129-0.111,0.194-0.283,0.194-0.518v-6.473h-1.5v-0.828h1.5v-0.656
			c0-1.533,0.318-2.702,0.955-3.509c0.637-0.807,1.426-1.21,2.366-1.21c0.699,0,1.245,0.17,1.637,0.51
			c0.393,0.339,0.589,0.783,0.589,1.333c0,0.358-0.095,0.641-0.284,0.847c-0.189,0.207-0.429,0.311-0.72,0.311
			c-0.261,0-0.477-0.083-0.646-0.25c-0.171-0.167-0.256-0.377-0.256-0.63c0-0.29,0.112-0.528,0.337-0.714
			c0.181-0.147,0.272-0.259,0.272-0.333c0-0.104-0.069-0.201-0.208-0.287c-0.139-0.087-0.348-0.13-0.625-0.13
			c-0.525,0-0.968,0.234-1.329,0.701c-0.361,0.468-0.542,1.163-0.542,2.086V168.307z"/>
		<path d="M93.069,168.805c0.619-0.624,1.188-0.936,1.708-0.936c0.31,0,0.566,0.099,0.771,0.296s0.307,0.438,0.307,0.722
			c0,0.228-0.069,0.418-0.208,0.568c-0.139,0.151-0.301,0.227-0.486,0.227c-0.352,0-0.589-0.215-0.712-0.646
			c-0.05-0.185-0.134-0.276-0.252-0.276c-0.212,0-0.443,0.139-0.692,0.414c0.265,0.365,0.447,0.682,0.545,0.951
			c0.099,0.269,0.148,0.558,0.148,0.867c0,0.537-0.13,1.013-0.39,1.424s-0.69,0.774-1.293,1.09c-0.603,0.315-1.18,0.473-1.729,0.473
			h-1.011c-0.717,0-1.193,0.075-1.428,0.226c-0.235,0.156-0.353,0.385-0.353,0.686c0,0.244,0.096,0.433,0.287,0.563
			c0.191,0.132,0.553,0.197,1.084,0.197l2.289-0.062c1.155,0,1.987,0.193,2.497,0.578c0.51,0.387,0.765,0.915,0.765,1.588
			c0,0.74-0.291,1.363-0.872,1.869c-0.81,0.717-2.019,1.074-3.627,1.074c-1.33,0-2.316-0.242-2.959-0.727
			c-0.507-0.381-0.761-0.808-0.761-1.279c0-0.362,0.163-0.693,0.488-0.994c0.326-0.301,0.872-0.524,1.639-0.672
			c-0.612-0.149-1.073-0.368-1.382-0.658c-0.31-0.289-0.464-0.647-0.464-1.077c0-0.397,0.125-0.745,0.377-1.04
			c0.251-0.295,0.688-0.549,1.308-0.76c-0.527-0.291-0.924-0.642-1.19-1.053c-0.267-0.411-0.4-0.883-0.4-1.414
			c0-0.84,0.331-1.545,0.993-2.113c0.662-0.569,1.522-0.854,2.58-0.854c0.434,0,0.851,0.062,1.253,0.185
			S92.691,168.553,93.069,168.805z M91.171,177.01c-1.137,0-1.948,0.157-2.434,0.472c-0.485,0.313-0.728,0.692-0.728,1.137
			c0,0.419,0.182,0.749,0.547,0.989c0.482,0.32,1.168,0.48,2.058,0.48c1.063,0,1.863-0.176,2.401-0.527
			c0.538-0.351,0.807-0.742,0.807-1.174c0-0.252-0.083-0.488-0.25-0.707c-0.167-0.219-0.433-0.385-0.798-0.499
			C92.411,177.066,91.876,177.01,91.171,177.01z M90.63,168.65c-0.55,0-1.005,0.203-1.363,0.607
			c-0.359,0.404-0.538,0.972-0.538,1.701c0,0.779,0.179,1.383,0.538,1.812c0.358,0.43,0.816,0.645,1.373,0.645
			s1.013-0.209,1.368-0.626s0.533-1.015,0.533-1.794c0-0.723-0.181-1.295-0.543-1.715C91.637,168.86,91.181,168.65,90.63,168.65z"/>
		<path d="M98.933,163.275l3.282-0.156v6.709c0.459-0.594,0.952-1.037,1.48-1.331c0.527-0.294,1.086-0.44,1.676-0.44
			c0.559,0,1.061,0.133,1.508,0.398c0.348,0.209,0.645,0.576,0.889,1.101c0.246,0.524,0.369,1.144,0.369,1.859v4.117
			c0,0.266,0.068,0.458,0.205,0.578s0.351,0.181,0.643,0.181h0.746v0.703h-4.703v-0.703h0.518c0.395,0,0.666-0.063,0.818-0.189
			c0.15-0.127,0.227-0.316,0.227-0.569v-4.118c0-0.722-0.176-1.285-0.526-1.688c-0.351-0.404-0.8-0.606-1.345-0.606
			c-0.429,0-0.826,0.114-1.191,0.343c-0.367,0.228-0.678,0.575-0.932,1.041s-0.381,0.958-0.381,1.476v3.461
			c0,0.309,0.064,0.527,0.194,0.657s0.343,0.194,0.641,0.194h0.743v0.703h-4.61v-0.703h0.527c0.358,0,0.612-0.069,0.762-0.209
			c0.15-0.139,0.227-0.354,0.227-0.644v-10.357c0-0.37-0.098-0.647-0.291-0.829c-0.195-0.182-0.477-0.273-0.846-0.273h-0.629
			V163.275z"/>
		<path d="M113.148,168.307l3.453-0.109v7.473c0,0.204,0.049,0.35,0.148,0.436c0.143,0.124,0.322,0.186,0.539,0.186h0.984v0.703
			h-4.938v-0.703h0.916c0.271,0,0.471-0.066,0.598-0.199c0.125-0.133,0.189-0.325,0.189-0.578v-5.459c0-0.345-0.1-0.605-0.297-0.781
			s-0.492-0.264-0.881-0.264h-0.713V168.307z M115.549,163.104c0.279,0,0.525,0.105,0.736,0.316s0.316,0.459,0.316,0.744
			c0,0.279-0.104,0.521-0.308,0.727c-0.204,0.204-0.45,0.307-0.735,0.307s-0.531-0.104-0.74-0.312
			c-0.207-0.208-0.311-0.451-0.311-0.73s0.105-0.524,0.316-0.735S115.277,163.104,115.549,163.104z"/>
		<path d="M125.084,168.166v8.317c0,1.213-0.332,2.218-0.994,3.017c-0.662,0.798-1.398,1.197-2.209,1.197
			c-0.408,0-0.725-0.101-0.947-0.303c-0.223-0.201-0.334-0.477-0.334-0.823c0-0.305,0.09-0.55,0.27-0.735
			c0.181-0.187,0.406-0.279,0.68-0.279c0.436,0,0.717,0.282,0.848,0.847c0.043,0.187,0.086,0.303,0.129,0.349
			c0.043,0.047,0.111,0.07,0.203,0.07c0.111,0,0.219-0.053,0.322-0.158c0.148-0.16,0.266-0.43,0.352-0.807
			c0.111-0.52,0.166-1.033,0.166-1.541v-7.32c0-0.341-0.105-0.601-0.316-0.779c-0.211-0.18-0.523-0.27-0.939-0.27h-0.791v-0.656
			L125.084,168.166z M124.162,163.088c0.303,0,0.553,0.098,0.75,0.292c0.197,0.195,0.297,0.44,0.297,0.737
			c0,0.304-0.1,0.555-0.297,0.752c-0.197,0.198-0.444,0.297-0.74,0.297c-0.285,0-0.531-0.104-0.742-0.311
			c-0.209-0.207-0.314-0.45-0.314-0.729s0.105-0.521,0.314-0.729C123.641,163.191,123.885,163.088,124.162,163.088z"/>
		<path d="M129.877,163.275l3.297-0.156v9.489l2.826-2.47c0.271-0.242,0.407-0.45,0.407-0.625c0-0.15-0.079-0.268-0.239-0.352
			c-0.238-0.121-0.627-0.188-1.166-0.199v-0.656h4.625v0.656c-0.914,0.049-1.613,0.288-2.095,0.716l-2.001,1.768l3.242,4.454
			c0.197,0.261,0.541,0.391,1.028,0.391h0.481v0.703h-4.75v-0.703h0.475c0.354,0,0.59-0.031,0.711-0.093s0.182-0.136,0.182-0.222
			s-0.031-0.173-0.092-0.26l-2.371-3.307l-1.264,1.115v2.192c0,0.179,0.059,0.312,0.176,0.397c0.166,0.117,0.396,0.176,0.693,0.176
			h0.6v0.703h-4.656v-0.703h0.75c0.309,0,0.536-0.064,0.684-0.194c0.148-0.13,0.223-0.303,0.223-0.519v-10.71
			c0-0.278-0.088-0.481-0.266-0.612c-0.256-0.185-0.6-0.277-1.033-0.277h-0.467V163.275z"/>
		<path d="M147.092,163.119v12.588c0,0.173,0.053,0.306,0.158,0.398c0.154,0.124,0.342,0.186,0.564,0.186h0.918v0.703h-4.922v-0.703
			h0.873c0.285,0,0.498-0.068,0.637-0.204s0.209-0.327,0.209-0.574v-10.562c0-0.309-0.084-0.534-0.25-0.676
			c-0.23-0.198-0.512-0.297-0.846-0.297h-0.779v-0.703L147.092,163.119z"/>
		<path d="M152.871,168.307l2.5-0.156c0.135,0.645,0.223,1.259,0.266,1.843c0.469-0.676,0.938-1.151,1.406-1.429
			c0.469-0.275,0.984-0.414,1.545-0.414c0.6,0,1.092,0.156,1.48,0.471c0.389,0.312,0.688,0.823,0.898,1.529
			c0.414-0.67,0.873-1.17,1.38-1.502s1.06-0.498,1.659-0.498c0.789,0,1.383,0.234,1.777,0.704c0.507,0.617,0.76,1.413,0.76,2.39
			v4.306c0,0.26,0.066,0.436,0.195,0.528c0.174,0.143,0.432,0.213,0.773,0.213h0.438v0.703h-4.375v-0.703h0.436
			c0.371,0,0.631-0.062,0.779-0.186c0.148-0.123,0.223-0.309,0.223-0.557v-4.313c0-0.644-0.156-1.142-0.472-1.493
			c-0.315-0.354-0.728-0.529-1.24-0.529c-0.39,0-0.741,0.104-1.056,0.311c-0.314,0.208-0.561,0.504-0.74,0.887
			c-0.266,0.551-0.398,1.018-0.398,1.401v3.737c0,0.254,0.068,0.44,0.203,0.562c0.136,0.12,0.346,0.181,0.629,0.181h0.59v0.703
			h-4.422v-0.703h0.502c0.314,0,0.549-0.062,0.704-0.186c0.155-0.123,0.231-0.281,0.231-0.473v-4.002
			c0-0.846-0.148-1.461-0.447-1.844s-0.701-0.574-1.205-0.574c-0.652,0-1.154,0.223-1.506,0.667
			c-0.498,0.63-0.748,1.365-0.748,2.205v3.465c0,0.266,0.059,0.448,0.178,0.547c0.168,0.13,0.428,0.194,0.781,0.194h0.447v0.703
			h-4.391v-0.703h0.656c0.246,0,0.436-0.062,0.568-0.186c0.131-0.123,0.197-0.28,0.197-0.472v-5.687c0-0.314-0.08-0.549-0.24-0.703
			s-0.48-0.254-0.963-0.297V168.307z"/>
	</g>
	<g>
		<path d="M14.821,189.275l2.875-0.156c0.12,0.547,0.208,1.186,0.266,1.918c0.39-0.629,0.849-1.101,1.377-1.415
			s1.126-0.472,1.794-0.472c0.575,0,1.057,0.113,1.446,0.338c0.39,0.226,0.702,0.582,0.937,1.07
			c0.235,0.487,0.353,1.033,0.353,1.639v4.223c0,0.315,0.071,0.539,0.214,0.672s0.382,0.199,0.717,0.199h0.615v0.703h-4.578v-0.703
			h0.432c0.404,0,0.686-0.064,0.845-0.194s0.239-0.324,0.239-0.584v-3.716c0-0.809-0.124-1.408-0.371-1.797
			c-0.346-0.556-0.871-0.834-1.575-0.834c-0.698,0-1.28,0.281-1.746,0.844c-0.466,0.562-0.699,1.293-0.699,2.195v3.215
			c0,0.315,0.073,0.539,0.219,0.672c0.146,0.133,0.387,0.199,0.723,0.199h0.605v0.703h-4.594v-0.703h0.597
			c0.3,0,0.528-0.062,0.684-0.186s0.234-0.279,0.234-0.465v-5.622c0-0.372-0.101-0.653-0.301-0.846s-0.489-0.288-0.865-0.288h-0.444
			V189.275z"/>
		<path d="M33.07,189.057c1.169,0,2.15,0.421,2.945,1.263c0.794,0.843,1.192,1.951,1.192,3.326c0,0.95-0.178,1.76-0.534,2.429
			c-0.355,0.67-0.862,1.198-1.521,1.587s-1.369,0.583-2.129,0.583c-1.125,0-2.08-0.426-2.862-1.277
			c-0.782-0.851-1.173-1.955-1.173-3.312c0-1.363,0.393-2.471,1.178-3.321C30.952,189.482,31.919,189.057,33.07,189.057z
			 M33.07,189.713c-0.694,0-1.264,0.313-1.709,0.939s-0.669,1.614-0.669,2.966c0,1.376,0.221,2.382,0.665,3.017
			c0.442,0.636,1.014,0.953,1.714,0.953c0.725,0,1.312-0.317,1.761-0.953c0.449-0.635,0.673-1.675,0.673-3.119
			c0-1.338-0.221-2.307-0.665-2.905C34.397,190.012,33.807,189.713,33.07,189.713z"/>
		<path d="M43.763,189.15c0.135,0.644,0.215,1.263,0.24,1.857c0.426-0.674,0.875-1.152,1.344-1.435s0.982-0.423,1.539-0.423
			c0.593,0,1.16,0.182,1.701,0.547c0.541,0.363,0.979,0.898,1.316,1.602c0.337,0.704,0.505,1.497,0.505,2.38
			c0,1.414-0.414,2.565-1.241,3.454c-0.686,0.741-1.507,1.111-2.464,1.111c-0.543,0-1.034-0.14-1.473-0.418
			c-0.438-0.279-0.827-0.693-1.167-1.245v3.533c0,0.273,0.064,0.466,0.193,0.578c0.165,0.149,0.395,0.224,0.689,0.224h0.634v0.656
			h-4.609v-0.656h0.634c0.294,0,0.514-0.059,0.662-0.176c0.146-0.118,0.22-0.272,0.22-0.465v-9.146c0-0.428-0.101-0.729-0.303-0.905
			c-0.202-0.176-0.606-0.273-1.212-0.292v-0.625L43.763,189.15z M46.462,189.979c-0.674,0-1.245,0.324-1.712,0.974
			c-0.467,0.649-0.701,1.589-0.701,2.819c0,1.242,0.226,2.161,0.677,2.754c0.452,0.594,1.027,0.891,1.727,0.891
			c0.655,0,1.16-0.254,1.513-0.761c0.451-0.667,0.677-1.644,0.677-2.931c0-1.348-0.205-2.309-0.613-2.884
			S47.1,189.979,46.462,189.979z"/>
		<path d="M61.647,190.562c0.31-0.521,0.654-0.991,1.031-1.412l0.344,0.156c-0.177,0.73-0.266,1.516-0.266,2.357v8.361
			c0,0.328,0.064,0.547,0.194,0.658c0.172,0.155,0.443,0.232,0.812,0.232h0.369v0.656h-4.547v-0.656H60.2
			c0.373,0,0.637-0.071,0.792-0.214c0.155-0.144,0.233-0.37,0.233-0.68v-3.313c-0.365,0.512-0.771,0.896-1.216,1.151
			s-0.931,0.384-1.457,0.384c-1.008,0-1.877-0.424-2.607-1.273c-0.729-0.849-1.095-1.918-1.095-3.209
			c0-0.863,0.186-1.657,0.557-2.38c0.371-0.722,0.86-1.274,1.47-1.657c0.608-0.383,1.256-0.574,1.942-0.574
			c0.494,0,0.964,0.105,1.409,0.316C60.673,189.677,61.146,190.042,61.647,190.562z M58.941,189.775
			c-0.649,0-1.188,0.309-1.618,0.926s-0.645,1.58-0.645,2.889c0,1.332,0.215,2.299,0.645,2.896c0.43,0.6,0.963,0.898,1.6,0.898
			c0.414,0,0.802-0.129,1.164-0.389c0.361-0.26,0.644-0.649,0.848-1.171s0.306-1.224,0.306-2.106c0-1.03-0.093-1.81-0.278-2.337
			c-0.186-0.528-0.464-0.928-0.834-1.199C59.757,189.911,59.361,189.775,58.941,189.775z"/>
		<path d="M67.447,189.307l3.125-0.156v3.521c0.334-1.158,0.736-2.035,1.206-2.63s1.051-0.892,1.745-0.892
			c0.47,0,0.846,0.145,1.127,0.433s0.422,0.675,0.422,1.158c0,0.391-0.094,0.694-0.283,0.912c-0.189,0.217-0.425,0.325-0.71,0.325
			c-0.278,0-0.503-0.094-0.673-0.28c-0.17-0.187-0.255-0.438-0.255-0.757c0-0.205,0.048-0.398,0.145-0.579
			c0.091-0.162,0.136-0.259,0.136-0.29c0-0.092-0.059-0.139-0.176-0.139c-0.254,0-0.541,0.148-0.862,0.445
			c-0.445,0.414-0.789,0.982-1.03,1.705c-0.371,1.124-0.557,2.022-0.557,2.696v1.862c0,0.21,0.075,0.371,0.223,0.481
			c0.149,0.111,0.403,0.167,0.763,0.167H72.9v0.703h-5.406v-0.703h0.866c0.292,0,0.512-0.057,0.661-0.172
			c0.148-0.113,0.223-0.251,0.223-0.412v-5.53c0-0.42-0.089-0.728-0.269-0.922s-0.435-0.292-0.769-0.292h-0.759V189.307z"/>
		<path d="M79.614,194.729c0.384,1.061,0.825,1.794,1.323,2.201c0.499,0.408,1.113,0.611,1.844,0.611
			c0.675,0,1.193-0.146,1.555-0.439s0.543-0.664,0.543-1.115c0-0.259-0.066-0.485-0.2-0.68c-0.133-0.194-0.317-0.339-0.553-0.435
			s-0.847-0.236-1.833-0.421c-0.943-0.186-1.6-0.38-1.971-0.584c-0.371-0.203-0.66-0.484-0.867-0.843
			c-0.207-0.357-0.311-0.747-0.311-1.167c0-0.636,0.214-1.213,0.642-1.731c0.552-0.661,1.324-0.991,2.316-0.991
			c0.756,0,1.457,0.237,2.102,0.711l0.614-0.648H85.2l0.242,3.094h-0.625c-0.273-0.875-0.643-1.506-1.107-1.891
			c-0.466-0.386-1.04-0.578-1.722-0.578c-0.59,0-1.052,0.144-1.387,0.43c-0.335,0.287-0.502,0.637-0.502,1.05
			c0,0.364,0.155,0.666,0.465,0.906c0.304,0.246,0.9,0.44,1.787,0.58c1.03,0.171,1.7,0.315,2.01,0.431
			c0.507,0.186,0.901,0.473,1.179,0.859s0.418,0.859,0.418,1.416c0,0.769-0.303,1.419-0.907,1.951
			c-0.604,0.533-1.372,0.799-2.303,0.799c-0.862,0-1.662-0.28-2.4-0.84l-0.679,0.777h-0.493l-0.186-3.453H79.614z"/>
		<path d="M92.205,185.76h0.625v3.547h2.812v0.859H92.83v5.558c0,0.481,0.114,0.85,0.342,1.105c0.228,0.256,0.517,0.384,0.867,0.384
			c0.419,0,0.775-0.195,1.071-0.585c0.295-0.39,0.467-1.033,0.517-1.931h0.625c-0.037,1.159-0.3,2.02-0.789,2.58
			c-0.489,0.562-1.123,0.842-1.902,0.842c-0.718,0-1.28-0.195-1.685-0.588c-0.405-0.392-0.608-0.906-0.608-1.541v-5.824h-1.516
			v-0.654c0.693-0.117,1.22-0.405,1.582-0.863C91.871,187.961,92.161,186.998,92.205,185.76z"/>
		<path d="M102.832,189.15v5.75c0,0.703,0.178,1.246,0.531,1.629c0.354,0.383,0.812,0.574,1.373,0.574
			c0.689,0,1.277-0.279,1.761-0.837s0.726-1.257,0.726-2.095v-3.247c0-0.296-0.107-0.525-0.32-0.688
			c-0.213-0.164-0.621-0.255-1.227-0.273v-0.656l3.047-0.156v7.122c0,0.327,0.094,0.579,0.279,0.755s0.446,0.264,0.781,0.264h0.549
			v0.625l-2.922,0.062l-0.188-1.707c-0.52,0.612-1.041,1.074-1.565,1.383c-0.524,0.311-1.056,0.465-1.593,0.465
			c-0.785,0-1.442-0.262-1.973-0.787c-0.538-0.519-0.807-1.397-0.807-2.639v-3.768c0-0.333-0.133-0.586-0.4-0.76
			c-0.188-0.123-0.568-0.19-1.146-0.203v-0.656L102.832,189.15z"/>
		<path d="M113.609,189.307h4.281v0.625c-0.57,0.013-0.934,0.064-1.092,0.154c-0.158,0.091-0.236,0.22-0.236,0.389
			c0,0.137,0.029,0.274,0.086,0.411l2.312,5.124l2.117-4.969c0.031-0.088,0.047-0.174,0.047-0.262c0-0.453-0.447-0.736-1.344-0.848
			v-0.625h3.594v0.625c-0.364,0.037-0.654,0.137-0.871,0.299c-0.216,0.161-0.383,0.379-0.5,0.652l-3.188,7.361h-0.512l-3.414-7.565
			c-0.123-0.274-0.273-0.466-0.45-0.574s-0.454-0.167-0.831-0.173V189.307z"/>
		<path d="M126.619,189.307h3.807v0.641h-0.502c-0.246,0-0.424,0.039-0.527,0.115c-0.105,0.078-0.158,0.181-0.158,0.311
			c0,0.135,0.031,0.28,0.092,0.434l1.96,4.909l1.682-4.637c-0.231-0.513-0.437-0.83-0.614-0.95c-0.18-0.121-0.496-0.182-0.947-0.182
			v-0.641h4.194v0.641h-0.353c-0.322,0-0.543,0.042-0.664,0.125c-0.119,0.083-0.18,0.199-0.18,0.347c0,0.11,0.027,0.24,0.083,0.388
			l1.971,4.909l1.567-4.362c0.105-0.29,0.158-0.537,0.158-0.74s-0.08-0.36-0.242-0.472c-0.16-0.11-0.463-0.176-0.908-0.194v-0.641
			h3.383v0.641c-0.42,0.068-0.738,0.199-0.955,0.393c-0.217,0.194-0.398,0.492-0.547,0.893l-2.521,7.012h-0.551l-2.434-6.039
			l-2.176,6.039h-0.539l-3.113-7.672c-0.1-0.238-0.211-0.399-0.334-0.482s-0.334-0.131-0.631-0.143V189.307z"/>
		<path d="M143.904,189.307h4.188v0.641c-0.678,0.024-1.018,0.144-1.018,0.357c0,0.099,0.057,0.225,0.168,0.377l1.498,1.978
			l1.459-1.827c0.104-0.135,0.157-0.264,0.157-0.387c0-0.265-0.375-0.431-1.124-0.498v-0.641h3.672v0.641
			c-0.883,0.143-1.559,0.511-2.027,1.105l-1.709,2.138l2.672,3.48c0.182,0.225,0.379,0.385,0.593,0.479
			c0.213,0.095,0.526,0.142,0.94,0.142v0.703h-4.438v-0.703h0.31c0.322,0,0.56-0.034,0.712-0.102c0.1-0.05,0.148-0.111,0.148-0.186
			c0-0.068-0.059-0.183-0.176-0.343l-1.729-2.286l-1.398,1.782c-0.199,0.252-0.297,0.455-0.297,0.608
			c0,0.154,0.066,0.271,0.203,0.351c0.191,0.11,0.518,0.169,0.977,0.175v0.703h-3.781v-0.703c0.457-0.043,0.809-0.139,1.056-0.287
			c0.407-0.254,0.774-0.584,1.103-0.992l1.723-2.182l-2.547-3.299c-0.285-0.371-0.729-0.565-1.334-0.584V189.307z"/>
		<path d="M156.623,189.307h4.172v0.625h-0.39c-0.365,0-0.614,0.049-0.747,0.145c-0.134,0.097-0.2,0.235-0.2,0.416
			c0,0.08,0.019,0.161,0.056,0.242l2.412,5.225l1.803-4.335c0.131-0.31,0.195-0.613,0.195-0.911c0-0.229-0.09-0.408-0.27-0.535
			s-0.539-0.209-1.078-0.246v-0.625h3.625v0.625c-0.697,0.068-1.166,0.383-1.406,0.941l-3.217,7.483
			c-0.545,1.268-1.094,2.14-1.646,2.616c-0.559,0.483-1.156,0.725-1.795,0.725c-0.465,0-0.839-0.127-1.121-0.382
			s-0.424-0.567-0.424-0.94c0-0.279,0.088-0.509,0.262-0.689c0.174-0.18,0.391-0.27,0.65-0.27c0.236,0,0.436,0.078,0.596,0.232
			c0.162,0.156,0.242,0.342,0.242,0.56c0,0.068-0.012,0.161-0.037,0.279c-0.024,0.093-0.037,0.161-0.037,0.205
			c0,0.149,0.096,0.224,0.289,0.224c0.203,0,0.434-0.074,0.691-0.222c0.257-0.147,0.496-0.385,0.72-0.711s0.606-1.048,1.149-2.165
			l-3.289-7.084c-0.117-0.249-0.262-0.434-0.438-0.555c-0.174-0.122-0.43-0.204-0.768-0.248V189.307z"/>
		<path d="M170.354,189.307h6.896v0.555l-5.469,7.43h2.66c0.611,0,1.1-0.192,1.465-0.577c0.364-0.385,0.646-1.099,0.844-2.142h0.625
			l-0.205,3.422h-7.311v-0.646l5.454-7.385h-2.308c-0.482,0-0.842,0.066-1.08,0.199s-0.443,0.353-0.616,0.658
			s-0.333,0.832-0.481,1.58h-0.688L170.354,189.307z"/>
	</g>
	<g>
		<path fill="#FFFFFF" d="M56.988,204.9c1.205,0,2.21,0.469,3.014,1.407c0.995,1.155,1.493,2.905,1.493,5.251
			c0,2.179-0.433,3.838-1.298,4.977c-0.866,1.14-1.911,1.709-3.134,1.709c-1.181,0-2.167-0.479-2.958-1.436
			c-0.989-1.203-1.484-2.941-1.484-5.213c0-2.161,0.467-3.88,1.4-5.158C54.769,205.413,55.758,204.9,56.988,204.9z M57.042,205.572
			c-0.815,0-1.451,0.391-1.908,1.171s-0.686,2.398-0.686,4.854c0,2.399,0.236,4.001,0.709,4.803
			c0.472,0.803,1.106,1.203,1.903,1.203c0.803,0,1.421-0.37,1.853-1.11c0.513-0.883,0.769-2.493,0.769-4.831
			c0-2.419-0.241-4.038-0.723-4.859C58.478,205.982,57.839,205.572,57.042,205.572z"/>
		<path fill="#FFFFFF" d="M69.976,205.119v11.578c0,0.174,0.062,0.307,0.186,0.398c0.179,0.131,0.398,0.195,0.658,0.195h1.797v0.703
			h-6.672v-0.703h1.539c0.321,0,0.559-0.076,0.713-0.227c0.155-0.152,0.232-0.354,0.232-0.607v-8.745
			c0-0.179-0.071-0.331-0.214-0.454s-0.326-0.186-0.549-0.186h-2.065v-0.641c0.968-0.124,1.753-0.29,2.354-0.498
			c0.602-0.208,1.133-0.479,1.592-0.814H69.976z"/>
		<path fill="#FFFFFF" d="M78.351,215.963c-0.284,0.365,1.117,0.547,4.204,0.547c0.463,0,0.793-0.12,0.991-0.361
			c0.197-0.24,0.423-0.906,0.676-1.998h0.641l-0.302,3.844h-8.308v-0.501l2.695-3.065c1.5-1.629,2.401-2.653,2.704-3.073
			c0.433-0.599,0.747-1.178,0.945-1.736s0.296-1.066,0.296-1.523c0-0.759-0.21-1.356-0.63-1.792
			c-0.42-0.435-1.004-0.652-1.751-0.652c-0.84,0-1.525,0.2-2.057,0.602c-0.531,0.4-0.797,0.826-0.797,1.276
			c0,0.154,0.04,0.271,0.121,0.352c0.074,0.08,0.236,0.151,0.484,0.212c0.628,0.148,0.941,0.513,0.941,1.092
			c0,0.314-0.105,0.575-0.316,0.782c-0.21,0.206-0.48,0.31-0.809,0.31c-0.378,0-0.709-0.174-0.994-0.523s-0.428-0.805-0.428-1.367
			c0-0.63,0.162-1.203,0.487-1.719s0.815-0.939,1.47-1.27c0.655-0.331,1.36-0.496,2.114-0.496c0.748,0,1.442,0.16,2.082,0.482
			c0.64,0.32,1.121,0.742,1.442,1.264c0.321,0.522,0.482,1.092,0.482,1.71c0,0.427-0.08,0.858-0.241,1.297
			c-0.16,0.438-0.396,0.85-0.704,1.232c-0.531,0.661-1.078,1.227-1.641,1.695l-2.447,2.058
			C79.086,215.157,78.635,215.599,78.351,215.963z"/>
	</g>
	<g>
		<path fill="#FFFFFF" d="M94.931,211.145c0.885,0.216,1.575,0.573,2.07,1.073c0.631,0.636,0.947,1.423,0.947,2.36
			c0,1.062-0.378,1.914-1.133,2.555c-0.86,0.741-1.981,1.111-3.361,1.111c-0.83,0-1.543-0.136-2.141-0.407
			c-0.597-0.271-1.044-0.64-1.342-1.103c-0.297-0.463-0.445-0.984-0.445-1.565c0-0.469,0.114-0.839,0.343-1.111
			c0.229-0.271,0.515-0.407,0.861-0.407c0.315,0,0.568,0.104,0.759,0.311c0.191,0.206,0.287,0.488,0.287,0.846
			c0,0.229-0.049,0.421-0.148,0.578s-0.271,0.304-0.517,0.439c-0.265,0.143-0.397,0.277-0.397,0.407
			c0,0.185,0.094,0.394,0.283,0.624c0.188,0.232,0.467,0.417,0.835,0.556s0.834,0.208,1.397,0.208c0.972,0,1.691-0.238,2.158-0.716
			c0.468-0.478,0.701-1.243,0.701-2.297c0-1.103-0.2-1.887-0.599-2.353c-0.399-0.465-0.991-0.697-1.777-0.697
			c-0.21,0-0.473,0.023-0.789,0.071c-0.254,0.036-0.436,0.054-0.547,0.054c-0.186,0-0.33-0.038-0.432-0.115
			c-0.103-0.077-0.153-0.174-0.153-0.291c0-0.129,0.048-0.229,0.144-0.3c0.096-0.071,0.252-0.106,0.469-0.106l0.511,0.016
			l0.445,0.016c0.786,0,1.377-0.2,1.774-0.6c0.396-0.4,0.594-1.019,0.594-1.855c0-1.027-0.189-1.758-0.567-2.191
			s-0.941-0.65-1.691-0.65c-0.688,0-1.236,0.123-1.645,0.367c-0.409,0.246-0.613,0.473-0.613,0.681c0,0.135,0.118,0.315,0.355,0.542
			c0.336,0.307,0.504,0.625,0.504,0.956c0,0.251-0.093,0.463-0.279,0.634c-0.186,0.172-0.425,0.258-0.716,0.258
			c-0.31,0-0.563-0.117-0.758-0.352c-0.195-0.233-0.293-0.561-0.293-0.979c0-0.653,0.235-1.232,0.706-1.737
			c0.669-0.715,1.626-1.072,2.872-1.072c1.165,0,2.094,0.312,2.788,0.936c0.694,0.624,1.041,1.396,1.041,2.316
			c0,0.66-0.188,1.231-0.562,1.713C96.495,210.348,95.848,210.773,94.931,211.145z"/>
		<path fill="#FFFFFF" d="M108.389,205.119h0.604v8.781h2.141v0.781h-2.141v1.979c0,0.173,0.068,0.312,0.203,0.417
			c0.197,0.143,0.425,0.214,0.684,0.214h0.785v0.703h-5.141v-0.703h0.955c0.32,0,0.557-0.068,0.709-0.204
			c0.15-0.137,0.227-0.335,0.227-0.595v-1.811h-5.25V213.8L108.389,205.119z M107.414,207.625l-4.48,6.275h4.48V207.625z"/>
		<path fill="#FFFFFF" d="M116.625,204.9c1.562,0.354,2.84,0.531,3.828,0.531c0.463,0,0.898-0.044,1.307-0.131
			c0.408-0.088,0.713-0.188,0.918-0.304c0.105-0.054,0.173-0.081,0.203-0.081c0.062,0,0.094,0.047,0.094,0.139
			c0,0.216-0.141,0.502-0.418,0.856c-0.279,0.354-0.658,0.637-1.139,0.847s-1.033,0.314-1.658,0.314
			c-0.725,0-1.588-0.109-2.592-0.328l-0.289,3.534c0.469-0.235,0.916-0.412,1.342-0.529c0.427-0.118,0.832-0.177,1.215-0.177
			c1.21,0,2.227,0.401,3.052,1.203c0.825,0.803,1.237,1.793,1.237,2.971c0,1.309-0.439,2.385-1.316,3.23
			c-0.879,0.845-2.016,1.268-3.412,1.268c-1.069,0-1.939-0.303-2.609-0.91c-0.672-0.606-1.006-1.328-1.006-2.166
			c0-0.505,0.105-0.895,0.318-1.169s0.486-0.411,0.82-0.411c0.326,0,0.594,0.109,0.801,0.327c0.207,0.219,0.311,0.503,0.311,0.854
			c0,0.265-0.052,0.471-0.154,0.618c-0.102,0.147-0.289,0.271-0.562,0.369c-0.272,0.104-0.408,0.224-0.408,0.359
			c0,0.196,0.092,0.413,0.277,0.65c0.186,0.236,0.465,0.43,0.84,0.581c0.373,0.15,0.801,0.226,1.283,0.226
			c0.945,0,1.668-0.293,2.166-0.879c0.496-0.585,0.746-1.537,0.746-2.856c0-1.202-0.263-2.081-0.787-2.636
			c-0.523-0.555-1.193-0.832-2.008-0.832c-0.369,0-0.74,0.068-1.109,0.205c-0.371,0.137-0.74,0.342-1.11,0.614
			c-0.044,0.434-0.12,0.724-0.231,0.868c-0.111,0.146-0.253,0.219-0.426,0.219c-0.123,0-0.223-0.043-0.296-0.13
			s-0.11-0.208-0.11-0.362c0-0.272,0.125-0.542,0.377-0.809c0.074-0.08,0.127-0.151,0.158-0.213l0.215-2.74
			C116.574,206.945,116.619,205.904,116.625,204.9z"/>
		<path fill="#FFFFFF" d="M129.973,211.914c0.482-0.642,0.99-1.102,1.521-1.379c0.533-0.277,1.117-0.416,1.755-0.416
			c1.026,0,1.889,0.348,2.585,1.041c0.696,0.694,1.045,1.572,1.045,2.633c0,1.277-0.412,2.338-1.234,3.184
			c-0.823,0.845-1.842,1.268-3.053,1.268c-0.854,0-1.615-0.227-2.283-0.681s-1.215-1.162-1.639-2.125s-0.635-2.087-0.635-3.371
			c0-1.389,0.26-2.647,0.781-3.778c0.52-1.129,1.186-1.977,1.994-2.541c0.809-0.565,1.654-0.848,2.533-0.848
			c0.906,0,1.674,0.247,2.307,0.74c0.527,0.4,0.791,0.882,0.791,1.443c0,0.376-0.116,0.684-0.348,0.925
			c-0.23,0.24-0.514,0.36-0.846,0.36c-0.309,0-0.572-0.102-0.791-0.305s-0.328-0.443-0.328-0.72c0-0.185,0.072-0.394,0.22-0.628
			c0.134-0.215,0.202-0.385,0.202-0.508c0-0.172-0.084-0.313-0.252-0.424c-0.225-0.143-0.531-0.213-0.924-0.213
			c-0.603,0-1.152,0.188-1.65,0.564c-0.496,0.377-0.918,1.023-1.264,1.939c-0.344,0.917-0.517,1.946-0.517,3.088
			C129.944,211.33,129.953,211.58,129.973,211.914z M132.734,211.025c-0.773,0-1.406,0.279-1.898,0.838
			c-0.492,0.558-0.738,1.343-0.738,2.354c0,1.099,0.238,1.938,0.715,2.518c0.477,0.579,1.084,0.869,1.82,0.869
			c0.73,0,1.318-0.274,1.764-0.823c0.447-0.549,0.67-1.369,0.67-2.461c0-1.159-0.207-1.999-0.618-2.517
			S133.465,211.025,132.734,211.025z"/>
		<path fill="#FFFFFF" d="M141.97,204.885c0.604,0.156,1.259,0.234,1.962,0.234h5.757v0.427c-0.847,1.49-1.479,2.75-1.899,3.78
			c-0.422,1.029-0.739,2.014-0.955,2.954c-0.217,0.939-0.359,2.034-0.427,3.283c-0.062,1.032-0.12,1.671-0.176,1.915
			s-0.169,0.434-0.338,0.566s-0.39,0.199-0.661,0.199c-0.309,0-0.549-0.105-0.723-0.315c-0.172-0.21-0.259-0.541-0.259-0.993
			c0-0.401,0.071-0.904,0.213-1.508c0.142-0.603,0.466-1.504,0.973-2.704c0.673-1.608,1.257-2.873,1.751-3.795l1.277-2.356h-5.015
			c-0.37,0-0.646,0.13-0.828,0.39s-0.399,1.036-0.652,2.329h-0.672L141.97,204.885z"/>
		<path fill="#FFFFFF" d="M159.942,210.71c0.989,0.36,1.704,0.829,2.146,1.406c0.439,0.577,0.66,1.274,0.66,2.089
			c0,0.994-0.318,1.862-0.955,2.604c-0.824,0.957-1.996,1.436-3.52,1.436c-1.342,0-2.404-0.322-3.184-0.968s-1.17-1.45-1.17-2.414
			c0-0.722,0.225-1.354,0.674-1.894c0.449-0.541,1.225-1,2.326-1.377c-1.625-0.695-2.438-1.771-2.438-3.229
			c0-0.944,0.367-1.758,1.1-2.439c0.731-0.683,1.66-1.023,2.785-1.023c0.771,0,1.443,0.133,2.016,0.398
			c0.571,0.265,1.007,0.625,1.307,1.082c0.3,0.456,0.449,0.934,0.449,1.434C162.139,208.975,161.406,209.939,159.942,210.71z
			 M157.615,211.853c-0.883,0.37-1.496,0.786-1.838,1.249s-0.514,1.031-0.514,1.703c0,0.877,0.26,1.557,0.777,2.041
			s1.262,0.727,2.234,0.727c1.029,0,1.828-0.242,2.398-0.727c0.57-0.483,0.855-1.123,0.855-1.919c0-0.722-0.246-1.267-0.738-1.638
			C160.299,212.92,159.24,212.44,157.615,211.853z M159.229,210.469c0.65-0.369,1.088-0.734,1.311-1.096
			c0.223-0.36,0.334-0.834,0.334-1.419c0-0.771-0.219-1.365-0.658-1.784s-1.076-0.629-1.912-0.629c-0.811,0-1.441,0.195-1.893,0.587
			c-0.451,0.391-0.678,0.9-0.678,1.528c0,0.622,0.197,1.118,0.592,1.487C156.717,209.514,157.686,209.955,159.229,210.469z"/>
		<path fill="#FFFFFF" d="M173.643,211.336c-0.402,0.607-0.871,1.063-1.41,1.37c-0.537,0.307-1.141,0.46-1.808,0.46
			c-0.927,0-1.771-0.324-2.526-0.973c-0.758-0.648-1.137-1.604-1.137-2.863c0-1.229,0.418-2.275,1.256-3.137
			c0.838-0.862,1.838-1.293,3-1.293c1.279,0,2.346,0.531,3.199,1.593s1.279,2.553,1.279,4.473c0,1.593-0.236,2.937-0.71,4.032
			s-1.101,1.911-1.88,2.445s-1.658,0.801-2.635,0.801c-0.947,0-1.688-0.208-2.223-0.623c-0.535-0.416-0.803-0.914-0.803-1.492
			c0-0.383,0.109-0.69,0.33-0.924c0.221-0.234,0.498-0.352,0.832-0.352c0.304,0,0.561,0.101,0.771,0.303
			c0.211,0.201,0.316,0.441,0.316,0.723c0,0.201-0.098,0.424-0.291,0.668c-0.119,0.152-0.178,0.284-0.178,0.394
			c0,0.171,0.102,0.319,0.307,0.444c0.203,0.125,0.531,0.188,0.984,0.188c0.644,0,1.21-0.177,1.699-0.53
			c0.488-0.354,0.885-0.935,1.188-1.743s0.455-1.856,0.455-3.142L173.643,211.336z M171.044,205.572
			c-0.692,0-1.263,0.289-1.708,0.865s-0.668,1.445-0.668,2.604c0,1.062,0.223,1.853,0.668,2.374
			c0.445,0.521,1.027,0.781,1.745,0.781c0.712,0,1.31-0.28,1.796-0.842s0.729-1.348,0.729-2.359c0-1.049-0.252-1.882-0.756-2.498
			C172.345,205.881,171.743,205.572,171.044,205.572z"/>
	</g>
	<g>
		<path fill="#FFFFFF" d="M181.156,96.29l1.781,2.752c-2.406,2.457-5.077,3.686-8.011,3.686c-2.242,0-4.129-0.61-5.662-1.829
			c-1.533-1.22-2.877-3.362-4.03-6.429c-3.121,3.297-5.863,5.497-8.228,6.602c-2.365,1.104-5.206,1.656-8.522,1.656
			c-4.73,0-8.327-1.02-10.79-3.057S134,95.021,134,91.831c0-4.799,2.815-8.783,8.448-11.955s13.129-5.283,22.489-6.336v-6.996
			c0-2.496-1.002-4.632-3.006-6.405s-4.549-2.661-7.637-2.661c-2.857,0-5.321,0.593-7.391,1.776
			c-1.479,0.889-2.217,1.761-2.217,2.616c0,0.494,0.396,1.267,1.188,2.319c0.957,1.316,1.437,2.484,1.437,3.504
			c0,1.48-0.477,2.69-1.429,3.628c-0.953,0.938-2.201,1.406-3.744,1.406c-1.643,0-3.015-0.559-4.114-1.677
			c-1.101-1.117-1.65-2.548-1.65-4.291c0-3.254,1.831-6.229,5.494-8.926c3.663-2.695,8.468-4.044,14.415-4.044
			c5.486,0,9.675,1.184,12.566,3.549c2.891,2.398,4.337,5.307,4.337,8.724v25.235c0,2.234,0.362,3.877,1.089,4.928
			c0.726,1.085,1.666,1.627,2.821,1.627C178.385,97.853,179.737,97.332,181.156,96.29z M164.938,76.79
			c-8.342,1.149-14.253,3.021-17.733,5.614c-2.595,1.971-3.892,4.761-3.892,8.372c0,2.528,0.673,4.507,2.02,5.935
			c1.346,1.428,3.103,2.142,5.271,2.142c3.875,0,7.233-1.469,10.074-4.407c2.84-2.938,4.261-6.624,4.261-11.057V76.79z"/>
	</g>
	<g>
		<path d="M22.889,54.279h0.809l6.219,15.851c0.25,0.642,0.764,0.962,1.539,0.962h0.54v0.875h-6.922v-0.875h0.552
			c0.719,0,1.228-0.078,1.525-0.234c0.203-0.109,0.305-0.277,0.305-0.505c0-0.133-0.027-0.273-0.082-0.422l-1.438-3.683h-6.848
			l-0.808,2.111c-0.211,0.562-0.316,1.009-0.316,1.337c0,0.383,0.178,0.712,0.533,0.985s0.873,0.41,1.553,0.41h0.586v0.875h-6.281
			v-0.875c0.672,0,1.203-0.146,1.594-0.439s0.75-0.851,1.078-1.672L22.889,54.279z M22.566,57.611l-3.093,7.715h6.103L22.566,57.611
			z"/>
		<path d="M44.513,70.764l0.422,0.654c-0.575,0.585-1.212,0.877-1.912,0.877c-0.535,0-0.986-0.145-1.352-0.435
			s-0.687-0.799-0.962-1.527c-0.739,0.783-1.389,1.306-1.949,1.568c-0.561,0.263-1.233,0.394-2.02,0.394
			c-1.12,0-1.973-0.242-2.556-0.727c-0.584-0.484-0.875-1.105-0.875-1.863c0-1.141,0.667-2.088,2.001-2.842
			c1.334-0.754,3.109-1.256,5.327-1.506v-1.668c0-0.594-0.237-1.104-0.709-1.525c-0.474-0.424-1.074-0.635-1.803-0.635
			c-0.675,0-1.256,0.141-1.745,0.422c-0.349,0.212-0.523,0.419-0.523,0.622c0,0.117,0.094,0.302,0.283,0.552
			c0.229,0.312,0.342,0.59,0.342,0.833c0,0.352-0.114,0.64-0.341,0.862s-0.525,0.334-0.893,0.334c-0.392,0-0.719-0.133-0.981-0.398
			c-0.263-0.266-0.394-0.605-0.394-1.02c0-0.773,0.435-1.48,1.306-2.121c0.87-0.641,2.013-0.961,3.426-0.961
			c1.305,0,2.3,0.281,2.987,0.845c0.687,0.57,1.031,1.263,1.031,2.075v6.005c0,0.531,0.086,0.923,0.258,1.173
			c0.172,0.258,0.395,0.387,0.669,0.387C43.855,71.139,44.176,71.014,44.513,70.764z M40.639,66.139
			c-1.971,0.272-3.368,0.717-4.19,1.332c-0.613,0.467-0.919,1.129-0.919,1.986c0,0.6,0.159,1.068,0.477,1.408
			c0.318,0.338,0.733,0.508,1.245,0.508c0.916,0,1.709-0.349,2.38-1.046c0.671-0.696,1.007-1.571,1.007-2.623V66.139z"/>
	</g>
	<g>
		<path d="M25.796,83.412h0.942l2.107,15.29c0.055,0.408,0.217,0.707,0.486,0.896c0.27,0.189,0.686,0.283,1.248,0.283h0.586
			l-0.234,0.875h-7.026l0.234-0.875h0.621c0.672,0,1.111-0.07,1.318-0.212s0.311-0.362,0.311-0.661c0-0.117-0.012-0.256-0.035-0.412
			l-0.484-3.512h-6.26l-1.534,2.419c-0.273,0.432-0.41,0.863-0.41,1.295c0,0.346,0.127,0.612,0.381,0.801s0.666,0.282,1.236,0.282
			h0.574l-0.246,0.875h-6.164l0.234-0.875c0.625-0.047,1.164-0.224,1.617-0.529c0.453-0.307,0.914-0.829,1.383-1.567L25.796,83.412z
			 M24.753,86.975l-4.489,7.078h5.464L24.753,86.975z"/>
		<path d="M40.06,98.92c-0.468,0.719-1.01,1.262-1.626,1.629s-1.225,0.551-1.825,0.551c-1.163,0-2.146-0.424-2.949-1.272
			c-0.803-0.848-1.205-1.925-1.205-3.23c0-1.188,0.314-2.351,0.942-3.489c0.628-1.137,1.434-2.032,2.417-2.685
			c0.983-0.653,1.939-0.979,2.868-0.979c0.749,0,1.41,0.221,1.983,0.662c0.574,0.44,0.962,1.023,1.165,1.75l0.681-2.084l1.838-0.203
			l-2.56,8.939c-0.07,0.242-0.105,0.483-0.105,0.726c0,0.219,0.045,0.386,0.135,0.503s0.198,0.176,0.323,0.176
			c0.234,0,0.501-0.16,0.798-0.481c0.579-0.618,1.123-1.446,1.631-2.487l0.681,0.305c-1.23,2.568-2.488,3.852-3.772,3.852
			c-0.416,0-0.76-0.158-1.034-0.476c-0.274-0.317-0.412-0.727-0.412-1.228L40.06,98.92z M38.836,90.365
			c-0.615,0-1.236,0.248-1.863,0.745s-1.18,1.323-1.659,2.481c-0.479,1.158-0.718,2.351-0.718,3.578
			c0,0.971,0.199,1.688,0.596,2.153c0.397,0.466,0.962,0.698,1.694,0.698c0.654,0,1.264-0.23,1.829-0.691
			c0.565-0.462,1.124-1.366,1.677-2.715s0.829-2.547,0.828-3.597c0-0.751-0.238-1.382-0.713-1.89
			C40.032,90.619,39.475,90.365,38.836,90.365z"/>
	</g>
	<g>
		<path d="M64.765,70.889c0.125,0.32,0.262,0.758,0.41,1.312c0.273,1.038,0.535,1.712,0.785,2.021
			c0.25,0.31,0.534,0.464,0.854,0.464c0.296,0,0.552-0.167,0.766-0.502c0.214-0.334,0.33-0.891,0.345-1.67h0.703
			c-0.008,1.414-0.282,2.455-0.822,3.123s-1.245,1.002-2.113,1.002c-0.807,0-1.463-0.322-1.968-0.966
			c-0.505-0.645-0.839-1.88-1.003-3.706c-0.438,0.109-0.86,0.191-1.266,0.246c-0.407,0.055-0.793,0.082-1.161,0.082
			c-1.454,0-2.796-0.377-4.027-1.131c-1.231-0.753-2.208-1.834-2.931-3.244c-0.723-1.409-1.084-3-1.084-4.773
			c0-2.515,0.816-4.662,2.45-6.442c1.485-1.616,3.33-2.425,5.534-2.425c1.477,0,2.825,0.373,4.045,1.119
			c1.219,0.745,2.196,1.815,2.931,3.209c0.735,1.395,1.102,2.954,1.102,4.68c0,1.577-0.286,2.982-0.858,4.217
			C66.885,68.737,65.988,69.865,64.765,70.889z M64.162,69.271c0.421-0.795,0.729-1.657,0.924-2.586
			c0.195-0.928,0.293-2.09,0.293-3.486c0-1.965-0.215-3.52-0.645-4.662s-1.035-1.986-1.816-2.532s-1.664-0.819-2.648-0.819
			c-0.969,0-1.838,0.273-2.607,0.819s-1.371,1.397-1.805,2.556s-0.65,2.732-0.65,4.722c0,1.403,0.129,2.608,0.387,3.615
			c0.258,1.006,0.66,1.962,1.207,2.866c-0.016-0.358-0.023-0.647-0.023-0.865c0-0.967,0.311-1.763,0.932-2.387
			c0.621-0.623,1.436-0.936,2.444-0.936c1.016,0,1.867,0.339,2.555,1.018C63.224,67.108,63.708,68.001,64.162,69.271z M62.722,70.76
			c-0.016-1.406-0.199-2.426-0.551-3.059c-0.445-0.812-1.129-1.219-2.051-1.219c-0.734,0-1.336,0.234-1.805,0.703
			s-0.703,1.074-0.703,1.816c0,0.734,0.289,1.43,0.867,2.086c0.555,0.242,1.137,0.363,1.746,0.363c0.469,0,0.91-0.059,1.324-0.176
			S62.355,70.986,62.722,70.76z"/>
		<path d="M79.67,62.558c0.395-0.655,0.833-1.248,1.312-1.778l0.422,0.203c-0.219,0.923-0.328,1.916-0.328,2.979v10.567
			c0,0.414,0.082,0.692,0.247,0.833c0.219,0.195,0.563,0.293,1.034,0.293h0.47v0.828h-5.766v-0.828h0.773
			c0.469,0,0.801-0.09,0.996-0.27c0.195-0.181,0.293-0.467,0.293-0.858v-4.182c-0.461,0.65-0.972,1.138-1.535,1.463
			c-0.562,0.325-1.175,0.487-1.839,0.487c-1.272,0-2.37-0.537-3.291-1.612c-0.922-1.075-1.382-2.43-1.382-4.063
			c0-1.094,0.234-2.099,0.704-3.014c0.469-0.914,1.088-1.614,1.858-2.1c0.77-0.484,1.588-0.727,2.456-0.727
			c0.625,0,1.219,0.133,1.782,0.397C78.439,61.442,79.037,61.902,79.67,62.558z M76.248,61.561c-0.82,0-1.502,0.391-2.045,1.173
			s-0.814,2.002-0.814,3.659c0,1.689,0.271,2.912,0.814,3.671s1.217,1.138,2.021,1.138c0.523,0,1.014-0.164,1.471-0.492
			s0.814-0.823,1.072-1.484c0.258-0.66,0.387-1.55,0.387-2.668c0-1.306-0.117-2.293-0.352-2.961
			c-0.234-0.669-0.586-1.175-1.055-1.52C77.279,61.732,76.779,61.561,76.248,61.561z"/>
	</g>
	<g>
		<path d="M63.894,99.879c0.063,1.829,0.21,2.982,0.444,3.459c0.233,0.477,0.536,0.715,0.909,0.715c0.707,0,1.22-0.553,1.538-1.656
			l0.375,0.094c-0.234,1.029-0.61,1.769-1.129,2.218c-0.519,0.448-1.208,0.673-2.065,0.673c-0.835,0-1.467-0.246-1.896-0.738
			c-0.429-0.493-0.644-1.251-0.644-2.275c0-0.477,0.042-1.012,0.127-1.605c-0.383,0.108-0.75,0.191-1.102,0.25
			s-0.691,0.088-1.019,0.088c-1.203,0-2.305-0.295-3.305-0.885c-1-0.59-1.78-1.427-2.343-2.51c-0.562-1.082-0.844-2.295-0.844-3.64
			c0-1.868,0.49-3.692,1.47-5.476c0.98-1.781,2.253-3.163,3.82-4.144c1.565-0.981,3.192-1.472,4.879-1.472
			c1.929,0,3.511,0.639,4.745,1.917c1.234,1.277,1.851,2.944,1.851,5c0,1.915-0.478,3.771-1.433,5.568S65.858,98.73,63.894,99.879z
			 M63.693,98.277c0.887-0.922,1.671-2.339,2.352-4.25c0.681-1.912,1.021-3.782,1.021-5.612c0-1.532-0.35-2.681-1.048-3.447
			c-0.699-0.767-1.665-1.149-2.898-1.149c-1.374,0-2.637,0.52-3.789,1.56c-1.152,1.04-2.051,2.582-2.7,4.626
			c-0.647,2.045-0.972,3.924-0.972,5.636c0,0.773,0.064,1.396,0.192,1.864s0.352,0.923,0.671,1.36
			c-0.055-0.446-0.082-0.807-0.082-1.081c0-0.986,0.334-1.795,1.003-2.426c0.669-0.63,1.555-0.945,2.658-0.945
			c0.634,0,1.186,0.131,1.655,0.394s0.864,0.658,1.185,1.187C63.263,96.521,63.513,97.283,63.693,98.277z M61.726,99.744
			c0.165-0.72,0.247-1.325,0.247-1.818c0-0.852-0.195-1.505-0.586-1.959c-0.391-0.453-0.922-0.68-1.594-0.68
			c-0.758,0-1.389,0.256-1.893,0.769c-0.504,0.512-0.756,1.155-0.756,1.929c0,0.813,0.328,1.49,0.984,2.029
			c0.438,0.141,0.875,0.211,1.312,0.211c0.352,0,0.716-0.041,1.095-0.123S61.312,99.9,61.726,99.744z"/>
		<path d="M81.529,89.459h0.701l-3.396,13.918c-0.047,0.15-0.07,0.287-0.07,0.409c0,0.18,0.086,0.329,0.258,0.448
			c0.172,0.118,0.426,0.178,0.762,0.178h0.82l-0.258,0.859h-5.628l0.258-0.859h0.48c0.797,0,1.301-0.375,1.512-1.125l1.003-4.152
			c-0.633,0.735-1.229,1.246-1.791,1.534c-0.561,0.287-1.166,0.431-1.814,0.431c-1.074,0-1.953-0.371-2.638-1.114
			c-0.685-0.742-1.027-1.735-1.027-2.979c0-1.274,0.324-2.509,0.97-3.705c0.647-1.196,1.502-2.139,2.563-2.826
			c1.062-0.688,2.107-1.032,3.139-1.032c0.627,0,1.168,0.135,1.621,0.403c0.454,0.27,0.897,0.751,1.331,1.444L81.529,89.459z
			 M77.331,90.178c-0.585,0-1.207,0.273-1.866,0.82c-0.659,0.548-1.249,1.429-1.767,2.645c-0.519,1.215-0.778,2.432-0.778,3.651
			c0,0.868,0.185,1.526,0.556,1.976s0.852,0.674,1.445,0.674s1.209-0.27,1.849-0.809s1.223-1.455,1.75-2.746
			c0.526-1.292,0.79-2.561,0.79-3.808c0-0.727-0.187-1.31-0.562-1.747C78.373,90.396,77.9,90.178,77.331,90.178z"/>
	</g>
	<g>
		<path d="M88.484,54.639h8.96c1.736,0,3.083,0.395,4.04,1.184c0.958,0.789,1.438,1.824,1.438,3.105c0,0.766-0.19,1.447-0.57,2.045
			s-0.928,1.074-1.645,1.43c-0.717,0.355-1.843,0.611-3.377,0.768c1.12,0.305,1.892,0.604,2.314,0.896
			c0.422,0.293,0.762,0.672,1.016,1.136c0.254,0.465,0.545,1.411,0.873,2.84c0.234,1.022,0.484,1.719,0.75,2.09
			c0.204,0.287,0.424,0.43,0.658,0.43c0.243,0,0.469-0.178,0.676-0.535c0.207-0.356,0.336-0.985,0.383-1.887h0.797
			c-0.148,2.667-1.131,4-2.945,4c-0.57,0-1.066-0.145-1.484-0.434c-0.418-0.288-0.733-0.714-0.944-1.275
			c-0.165-0.422-0.349-1.526-0.552-3.314c-0.118-1.037-0.304-1.775-0.558-2.212c-0.255-0.438-0.651-0.788-1.191-1.054
			s-1.186-0.398-1.937-0.398h-1.42v6.809c0,0.289,0.074,0.492,0.223,0.609c0.188,0.148,0.48,0.223,0.879,0.223h1.664v0.875h-8.047
			v-0.875h1.704c0.376,0,0.652-0.074,0.828-0.223c0.177-0.148,0.265-0.352,0.265-0.609V56.404c0-0.297-0.09-0.52-0.271-0.668
			c-0.18-0.148-0.454-0.223-0.822-0.223h-1.704V54.639z M93.765,62.607h2.053c1.376,0,2.454-0.26,3.232-0.778
			s1.168-1.442,1.168-2.769c0-0.913-0.146-1.635-0.44-2.166c-0.293-0.53-0.679-0.893-1.156-1.088s-1.416-0.293-2.816-0.293
			c-0.923,0-1.494,0.064-1.713,0.193c-0.219,0.129-0.328,0.35-0.328,0.661V62.607z"/>
		<path d="M106.08,60.982l3.953-0.203v4.443c0.422-1.462,0.93-2.567,1.524-3.318c0.595-0.75,1.329-1.125,2.204-1.125
			c0.595,0,1.07,0.182,1.426,0.545s0.533,0.85,0.533,1.459c0,0.492-0.119,0.875-0.357,1.148c-0.237,0.273-0.535,0.41-0.895,0.41
			c-0.352,0-0.634-0.117-0.848-0.351c-0.215-0.234-0.322-0.55-0.322-0.948c0-0.257,0.062-0.499,0.186-0.725
			c0.115-0.203,0.174-0.324,0.174-0.363c0-0.117-0.074-0.176-0.223-0.176c-0.32,0-0.683,0.188-1.088,0.562
			c-0.562,0.524-0.996,1.244-1.299,2.158c-0.469,1.424-0.703,2.561-0.703,3.413v2.357c0,0.267,0.094,0.47,0.281,0.61
			s0.509,0.211,0.963,0.211h1.396v0.875h-6.828v-0.875h1.09c0.367,0,0.645-0.072,0.832-0.217s0.281-0.318,0.281-0.522v-7.005
			c0-0.531-0.113-0.921-0.342-1.168c-0.227-0.246-0.553-0.369-0.975-0.369h-0.965V60.982z"/>
	</g>
	<g>
		<path d="M91.41,83.412h8.036c1.98,0,3.435,0.369,4.367,1.107c0.93,0.739,1.396,1.723,1.396,2.949c0,0.93-0.258,1.708-0.773,2.333
			c-0.516,0.626-1.301,1.126-2.355,1.501c-0.727,0.258-1.828,0.469-3.305,0.633c0.835,0.25,1.456,0.566,1.86,0.949
			c0.406,0.383,0.691,0.851,0.855,1.405c0.125,0.422,0.188,1.479,0.188,3.174c0.008,0.984,0.066,1.589,0.176,1.815
			c0.109,0.234,0.297,0.352,0.562,0.352c0.57,0,1.139-0.697,1.701-2.094l0.623,0.211c-0.758,2.12-1.891,3.18-3.398,3.18
			c-0.695,0-1.256-0.24-1.682-0.721c-0.426-0.481-0.639-1.199-0.639-2.153c0-0.5,0.055-1.071,0.164-1.712
			c0.132-0.813,0.199-1.364,0.199-1.654c0-0.883-0.219-1.522-0.657-1.918c-0.438-0.395-1.188-0.592-2.253-0.592h-1.691l-1.794,6.832
			c-0.016,0.062-0.023,0.125-0.023,0.188c0,0.212,0.074,0.368,0.223,0.471c0.211,0.142,0.508,0.212,0.891,0.212h1.746l-0.199,0.875
			h-7.962l0.211-0.875h1.43c0.609,0,0.992-0.29,1.148-0.871l3.641-13.746c0.023-0.096,0.035-0.183,0.035-0.262
			c0-0.215-0.098-0.387-0.293-0.519c-0.195-0.131-0.504-0.196-0.926-0.196h-1.711L91.41,83.412z M95,91.35h2.357
			c1.257,0,2.255-0.172,2.994-0.516c0.738-0.345,1.27-0.803,1.592-1.373c0.447-0.782,0.672-1.639,0.672-2.569
			c0-0.845-0.295-1.49-0.883-1.936c-0.588-0.446-1.562-0.669-2.92-0.669c-0.853,0-1.407,0.066-1.664,0.198
			c-0.257,0.133-0.437,0.378-0.539,0.735L95,91.35z"/>
		<path d="M108.871,100.756l-1.932,0.156l1.99-7.527c0.215-0.805,0.322-1.355,0.322-1.651c0-0.374-0.119-0.656-0.357-0.848
			c-0.238-0.19-0.627-0.286-1.166-0.286h-0.516l0.246-0.812l3.857-0.219l-1.102,4.734c0.703-1.617,1.25-2.703,1.637-3.258
			c0.389-0.555,0.809-0.96,1.262-1.217c0.453-0.256,0.898-0.385,1.335-0.385c0.526,0,0.964,0.164,1.317,0.492
			c0.352,0.327,0.527,0.732,0.527,1.217c0,0.453-0.123,0.817-0.371,1.094c-0.246,0.277-0.551,0.416-0.91,0.416
			c-0.291,0-0.537-0.102-0.741-0.305s-0.306-0.449-0.306-0.738c0-0.117,0.039-0.277,0.117-0.48c0.047-0.125,0.07-0.227,0.07-0.305
			c0-0.109-0.027-0.191-0.082-0.246s-0.141-0.082-0.258-0.082c-0.212,0-0.455,0.113-0.729,0.34
			c-0.516,0.446-1.025,1.231-1.525,2.357c-0.908,2.041-1.549,3.694-1.924,4.961L108.871,100.756z"/>
	</g>
	<g>
		<path fill="#929497" d="M52.387,123.008h7.089c1.373,0,2.438,0.312,3.196,0.938c0.758,0.626,1.137,1.446,1.137,2.461
			c0,0.607-0.151,1.147-0.453,1.621s-0.737,0.852-1.306,1.133c-0.569,0.281-1.464,0.484-2.683,0.608
			c0.893,0.241,1.507,0.478,1.845,0.709c0.337,0.232,0.607,0.532,0.81,0.899c0.203,0.368,0.433,1.117,0.689,2.247
			c0.184,0.81,0.381,1.36,0.593,1.654c0.162,0.226,0.336,0.339,0.523,0.339c0.193,0,0.372-0.141,0.537-0.421
			s0.266-0.776,0.304-1.485h0.625c-0.118,2.104-0.895,3.156-2.332,3.156c-0.452,0-0.844-0.114-1.175-0.343s-0.581-0.565-0.748-1.01
			c-0.13-0.334-0.276-1.208-0.437-2.622c-0.093-0.822-0.24-1.405-0.441-1.752c-0.201-0.346-0.516-0.623-0.943-0.833
			s-0.938-0.315-1.533-0.315h-1.125v5.375c0,0.228,0.058,0.389,0.175,0.48c0.147,0.117,0.377,0.176,0.69,0.176h1.307v0.703h-6.344
			v-0.703h1.342c0.296,0,0.514-0.059,0.653-0.176c0.139-0.117,0.208-0.278,0.208-0.482v-10.95c0-0.234-0.071-0.411-0.213-0.528
			c-0.142-0.117-0.358-0.176-0.648-0.176h-1.342V123.008z M56.559,129.32h1.626c1.09,0,1.943-0.205,2.559-0.615
			s0.924-1.141,0.924-2.189c0-0.722-0.116-1.293-0.349-1.713c-0.232-0.419-0.537-0.706-0.915-0.86s-1.121-0.231-2.229-0.231
			c-0.73,0-1.183,0.051-1.356,0.152c-0.173,0.103-0.26,0.276-0.26,0.523V129.32z"/>
		<path fill="#929497" d="M69.557,127.883v5.75c0,0.703,0.177,1.246,0.532,1.629c0.354,0.383,0.812,0.574,1.372,0.574
			c0.69,0,1.277-0.279,1.761-0.837s0.726-1.257,0.726-2.095v-3.247c0-0.296-0.107-0.525-0.32-0.688
			c-0.213-0.164-0.622-0.255-1.227-0.273v-0.656l3.047-0.156v7.122c0,0.327,0.093,0.579,0.279,0.755
			c0.187,0.176,0.447,0.264,0.782,0.264h0.549v0.625l-2.922,0.062l-0.188-1.707c-0.519,0.612-1.041,1.074-1.565,1.383
			c-0.525,0.311-1.056,0.465-1.593,0.465c-0.784,0-1.442-0.262-1.973-0.787c-0.538-0.519-0.806-1.397-0.806-2.639v-3.768
			c0-0.333-0.133-0.586-0.401-0.76c-0.187-0.123-0.568-0.19-1.146-0.203v-0.656L69.557,127.883z"/>
		<path fill="#929497" d="M78.501,128.008l2.875-0.156c0.12,0.547,0.208,1.186,0.266,1.918c0.389-0.629,0.848-1.101,1.377-1.415
			c0.528-0.314,1.126-0.472,1.794-0.472c0.575,0,1.057,0.113,1.447,0.338c0.389,0.226,0.701,0.582,0.937,1.07
			c0.234,0.487,0.352,1.033,0.352,1.639v4.223c0,0.315,0.071,0.539,0.214,0.672c0.143,0.133,0.382,0.199,0.718,0.199h0.615v0.703
			h-4.578v-0.703h0.432c0.404,0,0.686-0.064,0.845-0.194s0.239-0.324,0.239-0.584v-3.716c0-0.809-0.124-1.408-0.371-1.797
			c-0.346-0.556-0.871-0.834-1.575-0.834c-0.698,0-1.28,0.281-1.746,0.844c-0.466,0.562-0.699,1.293-0.699,2.195v3.215
			c0,0.315,0.073,0.539,0.219,0.672c0.146,0.133,0.387,0.199,0.722,0.199h0.606v0.703h-4.594v-0.703h0.597
			c0.3,0,0.528-0.062,0.684-0.186s0.234-0.279,0.234-0.465v-5.622c0-0.372-0.1-0.653-0.301-0.846s-0.489-0.288-0.865-0.288h-0.444
			V128.008z"/>
		<path fill="#929497" d="M91.358,139.961l-0.334-0.445c1.198-0.908,1.797-1.706,1.797-2.393c0-0.099-0.017-0.171-0.051-0.218
			c-0.034-0.046-0.085-0.069-0.153-0.069l-0.204,0.037c-0.117,0.019-0.213,0.027-0.287,0.027c-0.278,0-0.521-0.108-0.729-0.325
			s-0.311-0.48-0.311-0.791c0-0.304,0.105-0.562,0.315-0.772s0.479-0.316,0.806-0.316c0.408,0,0.747,0.159,1.019,0.479
			c0.271,0.318,0.407,0.754,0.407,1.305C93.633,137.686,92.875,138.847,91.358,139.961z"/>
	</g>
	<g>
		<path fill="#929497" d="M99.877,128.039l3.125-0.156v3.521c0.334-1.158,0.736-2.035,1.207-2.63
			c0.47-0.595,1.051-0.892,1.744-0.892c0.471,0,0.846,0.145,1.127,0.433s0.422,0.675,0.422,1.158c0,0.391-0.094,0.694-0.283,0.912
			c-0.188,0.217-0.426,0.325-0.709,0.325c-0.279,0-0.504-0.094-0.674-0.28s-0.256-0.438-0.256-0.757
			c0-0.205,0.049-0.398,0.146-0.579c0.09-0.162,0.135-0.259,0.135-0.29c0-0.092-0.059-0.139-0.176-0.139
			c-0.254,0-0.541,0.148-0.863,0.445c-0.445,0.414-0.787,0.982-1.029,1.705c-0.371,1.124-0.557,2.022-0.557,2.696v1.862
			c0,0.21,0.074,0.371,0.225,0.481c0.148,0.111,0.402,0.167,0.762,0.167h1.107v0.703h-5.406v-0.703h0.866
			c0.292,0,0.513-0.057,0.661-0.172c0.148-0.113,0.223-0.251,0.223-0.412v-5.53c0-0.42-0.09-0.728-0.268-0.922
			c-0.18-0.194-0.436-0.292-0.77-0.292h-0.759V128.039z"/>
		<path fill="#929497" d="M111.759,127.883v5.75c0,0.703,0.177,1.246,0.532,1.629c0.354,0.383,0.811,0.574,1.371,0.574
			c0.691,0,1.277-0.279,1.762-0.837s0.726-1.257,0.726-2.095v-3.247c0-0.296-0.106-0.525-0.319-0.688
			c-0.213-0.164-0.623-0.255-1.228-0.273v-0.656l3.047-0.156v7.122c0,0.327,0.093,0.579,0.278,0.755
			c0.188,0.176,0.447,0.264,0.782,0.264h0.549v0.625l-2.922,0.062l-0.188-1.707c-0.519,0.612-1.04,1.074-1.565,1.383
			c-0.525,0.311-1.057,0.465-1.594,0.465c-0.783,0-1.441-0.262-1.973-0.787c-0.537-0.519-0.806-1.397-0.806-2.639v-3.768
			c0-0.333-0.134-0.586-0.401-0.76c-0.186-0.123-0.568-0.19-1.146-0.203v-0.656L111.759,127.883z"/>
		<path fill="#929497" d="M120.703,128.008l2.875-0.156c0.12,0.547,0.209,1.186,0.266,1.918c0.389-0.629,0.848-1.101,1.377-1.415
			c0.528-0.314,1.127-0.472,1.794-0.472c0.575,0,1.058,0.113,1.446,0.338c0.39,0.226,0.701,0.582,0.938,1.07
			c0.234,0.487,0.352,1.033,0.352,1.639v4.223c0,0.315,0.071,0.539,0.215,0.672c0.143,0.133,0.381,0.199,0.717,0.199h0.615v0.703
			h-4.578v-0.703h0.432c0.404,0,0.686-0.064,0.846-0.194c0.158-0.13,0.238-0.324,0.238-0.584v-3.716
			c0-0.809-0.123-1.408-0.371-1.797c-0.346-0.556-0.87-0.834-1.574-0.834c-0.697,0-1.279,0.281-1.746,0.844
			c-0.467,0.562-0.699,1.293-0.699,2.195v3.215c0,0.315,0.072,0.539,0.219,0.672s0.387,0.199,0.723,0.199h0.605v0.703h-4.594v-0.703
			h0.598c0.299,0,0.527-0.062,0.684-0.186s0.234-0.279,0.234-0.465v-5.622c0-0.372-0.1-0.653-0.301-0.846s-0.488-0.288-0.865-0.288
			h-0.443V128.008z"/>
		<path fill="#929497" d="M133.561,139.961l-0.334-0.445c1.197-0.908,1.797-1.706,1.797-2.393c0-0.099-0.018-0.171-0.051-0.218
			c-0.035-0.046-0.086-0.069-0.154-0.069l-0.203,0.037c-0.117,0.019-0.213,0.027-0.287,0.027c-0.279,0-0.521-0.108-0.729-0.325
			s-0.311-0.48-0.311-0.791c0-0.304,0.104-0.562,0.314-0.772s0.479-0.316,0.806-0.316c0.407,0,0.747,0.159,1.019,0.479
			c0.271,0.318,0.408,0.754,0.408,1.305C135.836,137.686,135.076,138.847,133.561,139.961z"/>
	</g>
	<g>
		<path fill="#929497" d="M142.08,128.039l3.125-0.156v3.521c0.334-1.158,0.735-2.035,1.205-2.63
			c0.471-0.595,1.053-0.892,1.744-0.892c0.471,0,0.847,0.145,1.129,0.433c0.281,0.288,0.422,0.675,0.422,1.158
			c0,0.391-0.096,0.694-0.283,0.912c-0.189,0.217-0.426,0.325-0.711,0.325c-0.278,0-0.502-0.094-0.673-0.28
			s-0.255-0.438-0.255-0.757c0-0.205,0.048-0.398,0.145-0.579c0.091-0.162,0.137-0.259,0.137-0.29c0-0.092-0.059-0.139-0.177-0.139
			c-0.253,0-0.542,0.148-0.862,0.445c-0.445,0.414-0.789,0.982-1.029,1.705c-0.371,1.124-0.557,2.022-0.557,2.696v1.862
			c0,0.21,0.074,0.371,0.223,0.481c0.148,0.111,0.403,0.167,0.764,0.167h1.107v0.703h-5.406v-0.703h0.865
			c0.291,0,0.512-0.057,0.66-0.172c0.15-0.113,0.225-0.251,0.225-0.412v-5.53c0-0.42-0.09-0.728-0.27-0.922
			c-0.179-0.194-0.436-0.292-0.768-0.292h-0.76V128.039z"/>
		<path fill="#929497" d="M153.961,127.883v5.75c0,0.703,0.178,1.246,0.531,1.629c0.354,0.383,0.812,0.574,1.373,0.574
			c0.689,0,1.277-0.279,1.761-0.837s0.726-1.257,0.726-2.095v-3.247c0-0.296-0.107-0.525-0.32-0.688
			c-0.213-0.164-0.621-0.255-1.227-0.273v-0.656l3.047-0.156v7.122c0,0.327,0.094,0.579,0.279,0.755s0.446,0.264,0.781,0.264h0.549
			v0.625l-2.922,0.062l-0.188-1.707c-0.52,0.612-1.041,1.074-1.565,1.383c-0.524,0.311-1.056,0.465-1.593,0.465
			c-0.785,0-1.442-0.262-1.973-0.787c-0.538-0.519-0.807-1.397-0.807-2.639v-3.768c0-0.333-0.133-0.586-0.4-0.76
			c-0.188-0.123-0.568-0.19-1.146-0.203v-0.656L153.961,127.883z"/>
		<path fill="#929497" d="M162.905,128.008l2.875-0.156c0.12,0.547,0.208,1.186,0.266,1.918c0.39-0.629,0.849-1.101,1.377-1.415
			s1.126-0.472,1.794-0.472c0.574,0,1.057,0.113,1.447,0.338c0.389,0.226,0.701,0.582,0.936,1.07
			c0.234,0.487,0.353,1.033,0.353,1.639v4.223c0,0.315,0.071,0.539,0.214,0.672s0.383,0.199,0.719,0.199h0.614v0.703h-4.578v-0.703
			h0.432c0.404,0,0.687-0.064,0.845-0.194c0.16-0.13,0.239-0.324,0.239-0.584v-3.716c0-0.809-0.124-1.408-0.37-1.797
			c-0.346-0.556-0.871-0.834-1.575-0.834c-0.698,0-1.28,0.281-1.746,0.844c-0.466,0.562-0.699,1.293-0.699,2.195v3.215
			c0,0.315,0.073,0.539,0.22,0.672c0.145,0.133,0.387,0.199,0.721,0.199h0.606v0.703h-4.594v-0.703h0.597
			c0.301,0,0.528-0.062,0.685-0.186s0.234-0.279,0.234-0.465v-5.622c0-0.372-0.101-0.653-0.301-0.846s-0.489-0.288-0.864-0.288
			h-0.444V128.008z"/>
		<path fill="#929497" d="M177.311,132.695h-0.48c-0.006-1.106-0.037-1.935-0.094-2.484c-0.094-0.908-0.252-1.98-0.476-3.217
			c-0.243-1.385-0.364-2.29-0.364-2.717c0-0.538,0.107-0.941,0.324-1.21c0.215-0.269,0.498-0.403,0.848-0.403
			c0.363,0,0.649,0.129,0.859,0.385c0.209,0.257,0.312,0.656,0.312,1.201c0,0.463-0.121,1.378-0.363,2.744
			c-0.219,1.199-0.365,2.192-0.438,2.98C177.365,130.763,177.324,131.67,177.311,132.695z M177.08,134.711
			c0.314,0,0.582,0.111,0.801,0.334s0.328,0.492,0.328,0.809c0,0.303-0.111,0.566-0.333,0.789s-0.487,0.334-0.796,0.334
			s-0.572-0.108-0.792-0.325c-0.22-0.216-0.329-0.482-0.329-0.798c0-0.322,0.108-0.594,0.324-0.812
			C176.5,134.82,176.766,134.711,177.08,134.711z"/>
	</g>
</g>
</svg>
