<?xml version="1.0" encoding="utf-8"?>
<!-- Generator: Adobe Illustrator 12.0.1, SVG Export Plug-In . SVG Version: 6.00 Build 51448)  -->
<!DOCTYPE svg PUBLIC "-//W3C//DTD SVG 1.1//EN" "http://www.w3.org/Graphics/SVG/1.1/DTD/svg11.dtd" [
	<!ENTITY ns_svg "http://www.w3.org/2000/svg">
	<!ENTITY ns_xlink "http://www.w3.org/1999/xlink">
]>
<svg  version="1.1" id="Layer_1" xmlns="&ns_svg;" xmlns:xlink="&ns_xlink;" width="198" height="234" viewBox="0 0 198 234"
	 overflow="visible" enable-background="new 0 0 198 234" xml:space="preserve">
<rect fill="#FFFFFF" width="198" height="234"/>
<path fill="#DFDFE1" d="M0,0h198v156H0V0z"/>
<rect y="156" fill="#F0C753" width="198" height="78"/>
<g>
	<path fill="#29292A" d="M18.034,16.04h7.76v2.2h-4.96v3.439h4.72v2.2h-4.72V30h-2.8V16.04z"/>
	<path fill="#29292A" d="M28.193,19.7h2.38v2.34h0.04c0.12-0.96,1.22-2.58,2.82-2.58c0.26,0,0.54,0,0.82,0.08v2.7
		c-0.24-0.141-0.72-0.221-1.2-0.221c-2.18,0-2.18,2.721-2.18,4.2V30h-2.68V19.7z"/>
	<path fill="#29292A" d="M45.713,30h-2.54v-1.4h-0.04c-0.82,1-1.98,1.641-3.38,1.641c-2.44,0-3.5-1.721-3.5-4.04v-6.5h2.68v5.5
		c0,1.26,0.02,2.96,1.74,2.96c1.94,0,2.36-2.101,2.36-3.42V19.7h2.68V30L45.713,30z"/>
	<path fill="#29292A" d="M49.693,21.66h-1.98V19.7h1.98v-2.06l2.68-0.859v2.92h2.38v1.96h-2.38v4.8c0,0.88,0.24,1.7,1.26,1.7
		c0.48,0,0.94-0.101,1.22-0.28l0.08,2.12c-0.56,0.16-1.18,0.24-1.98,0.24c-2.1,0-3.26-1.3-3.26-3.34V21.66L49.693,21.66z"/>
	<path fill="#29292A" d="M56.993,15.26h2.68v2.561h-2.68V15.26z M56.993,19.7h2.68V30h-2.68V19.7z"/>
	<path fill="#29292A" d="M72.293,19.7V29c0,2.8-1.12,5.44-5.44,5.44c-1.06,0-2.28-0.16-3.56-0.7l0.22-2.28c0.82,0.44,2.16,0.9,3,0.9
		c2.96,0,3.1-2.221,3.1-4h-0.04c-0.5,0.88-1.7,1.64-3.2,1.64c-3.04,0-4.2-2.44-4.2-5.2c0-2.479,1.28-5.34,4.36-5.34
		c1.36,0,2.42,0.46,3.16,1.64h0.04v-1.4H72.293z M69.613,24.74c0-1.76-0.68-3.2-2.24-3.2c-1.82,0-2.4,1.68-2.4,3.26
		c0,1.4,0.74,3.12,2.28,3.12C68.933,27.92,69.613,26.46,69.613,24.74z"/>
	<path fill="#29292A" d="M83.653,29.42c-0.98,0.54-2.1,0.82-3.54,0.82c-3.4,0-5.38-1.96-5.38-5.34c0-2.98,1.58-5.44,4.78-5.44
		c3.82,0,4.9,2.62,4.9,6.22h-7.12c0.12,1.66,1.28,2.601,2.94,2.601c1.3,0,2.42-0.48,3.42-1.04V29.42L83.653,29.42z M81.853,23.84
		c-0.08-1.3-0.68-2.42-2.18-2.42s-2.26,1.04-2.38,2.42H81.853z"/>
	<path fill="#29292A" d="M86.913,19.7h2.38v2.34h0.04c0.12-0.96,1.22-2.58,2.82-2.58c0.26,0,0.54,0,0.82,0.08v2.7
		c-0.24-0.141-0.72-0.221-1.2-0.221c-2.18,0-2.18,2.721-2.18,4.2V30h-2.68V19.7L86.913,19.7z"/>
</g>
<g>
	<path fill="#FFFFFF" d="M136.661,56.5c5.668-2.616,13.298-4.251,19.511-4.251c17.112,0,24.198,7.085,24.198,23.652v7.194
		c0,5.668,0.108,9.919,0.218,14.061c0.108,4.251,0.327,8.175,0.653,12.535h-12.86c-0.545-2.943-0.545-6.649-0.654-8.393h-0.219
		c-3.379,6.213-10.683,9.7-17.33,9.7c-9.919,0-19.62-5.994-19.62-16.677c0-8.393,4.033-13.298,9.593-16.022
		c5.559-2.726,12.752-3.271,18.855-3.271h8.065c0-9.047-4.033-12.099-12.644-12.099c-6.213,0-12.428,2.398-17.331,6.104
		L136.661,56.5z M153.773,100.317c4.47,0,7.957-1.962,10.246-5.014c2.396-3.161,3.052-7.194,3.052-11.554h-6.322
		c-6.538,0-16.239,1.09-16.239,9.7C144.51,98.246,148.543,100.317,153.773,100.317z"/>
</g>
<g>
	<path d="M21.906,55.449h2.52l7.08,16.752H28.89l-1.704-4.224h-8.208l-1.704,4.224h-2.52L21.906,55.449z M23.082,57.705
		l-3.336,8.304h6.672L23.082,57.705z"/>
	<path d="M34.698,60.825c1.128-0.672,2.472-1.152,4.032-1.152c3.504,0,4.92,1.729,4.92,5.064V69.8c0,1.393,0.048,2.04,0.096,2.4
		h-2.112v-1.584h-0.048c-0.528,0.744-1.728,1.872-3.792,1.872c-2.64,0-4.488-1.152-4.488-3.816c0-3.071,3.36-4.032,5.688-4.032
		c0.888,0,1.512,0,2.4,0.049c0-2.112-0.768-3.192-3.024-3.192c-1.272,0-2.64,0.48-3.552,1.248L34.698,60.825z M41.394,66.369
		c-0.48,0-0.96-0.048-1.44-0.048c-1.224,0-4.248,0.191-4.248,2.352c0,1.296,1.248,1.992,2.28,1.992c2.232,0,3.408-1.392,3.408-3.216
		V66.369z"/>
</g>
<g>
	<path d="M21.21,84.25h3.792l6.576,16.752h-3.72l-1.44-3.84h-6.792l-1.464,3.84h-3.48L21.21,84.25z M23.058,87.609H23.01
		l-2.424,6.912h4.896L23.058,87.609z"/>
	<path d="M34.41,89.29c1.248-0.576,2.928-0.937,4.296-0.937c3.768,0,5.328,1.561,5.328,5.208v1.584c0,1.248,0.024,2.185,0.048,3.097
		c0.024,0.936,0.072,1.8,0.144,2.76h-2.832c-0.12-0.648-0.12-1.464-0.144-1.848h-0.048c-0.744,1.367-2.352,2.136-3.816,2.136
		c-2.184,0-4.32-1.32-4.32-3.672c0-1.849,0.888-2.929,2.112-3.528s2.808-0.72,4.152-0.72h1.776c0-1.992-0.888-2.664-2.784-2.664
		c-1.368,0-2.736,0.527-3.816,1.344L34.41,89.29z M38.178,98.938c0.984,0,1.752-0.432,2.256-1.104
		c0.528-0.696,0.672-1.584,0.672-2.544h-1.392c-1.44,0-3.576,0.24-3.576,2.136C36.138,98.482,37.026,98.938,38.178,98.938z"/>
</g>
<g>
	<path d="M55.897,55.449h9.384v2.112h-6.984v4.896h6.36v2.112h-6.36v5.52h6.984v2.112h-9.384V55.449L55.897,55.449z"/>
	<path d="M78.697,71.697c-0.864,0.312-1.848,0.792-3.864,0.792c-4.344,0-6.336-2.64-6.336-6.624c0-3.624,2.28-6.192,5.736-6.192
		c4.08,0,5.4,2.977,5.4,6.912h-8.736c0,2.424,1.896,4.08,4.032,4.08c1.488,0,3.216-0.768,3.768-1.224V71.697L78.697,71.697z
		 M77.233,64.905c0-1.872-1.104-3.408-3.048-3.408c-2.208,0-3.12,1.824-3.288,3.408H77.233z"/>
</g>
<g>
	<path d="M55.585,84.25h9.888v2.64h-6.528v4.128h5.976v2.641h-5.976v4.704h6.576v2.64h-9.936V84.25L55.585,84.25z"/>
	<path d="M78.961,100.306c-1.176,0.648-2.52,0.984-4.248,0.984c-4.08,0-6.456-2.353-6.456-6.408c0-3.576,1.896-6.528,5.736-6.528
		c4.584,0,5.88,3.145,5.88,7.465h-8.544c0.144,1.991,1.536,3.119,3.528,3.119c1.56,0,2.904-0.575,4.104-1.248V100.306
		L78.961,100.306z M76.801,93.61c-0.096-1.561-0.816-2.904-2.616-2.904c-1.8,0-2.712,1.248-2.856,2.904H76.801L76.801,93.61z"/>
</g>
<g>
	<path d="M91.795,55.449h4.104c3.312,0,6.502,0.527,6.502,4.536c0,2.04-1.512,3.479-3.456,3.815v0.048
		c0.744,0.288,1.104,0.648,1.63,1.681l3.169,6.672h-2.735l-2.568-5.808c-0.744-1.633-1.536-1.633-2.808-1.633h-1.44v7.44h-2.4
		L91.795,55.449L91.795,55.449z M94.195,62.649h2.04c2.28,0,3.624-1.009,3.624-2.616c0-1.512-1.152-2.472-3.36-2.472h-2.304V62.649
		L94.195,62.649z"/>
	<path d="M106.771,59.961h2.112v1.896h0.048c0.601-1.272,1.896-2.185,3.191-2.185c0.673,0,1.009,0.072,1.488,0.168v2.017
		c-0.408-0.168-0.865-0.217-1.248-0.217c-2.017,0-3.337,1.921-3.337,4.992V72.2h-2.256L106.771,59.961L106.771,59.961z"/>
</g>
<g>
	<path d="M91.459,84.25h3.624c3.6,0,7.896-0.12,7.896,4.536c0,1.968-1.32,3.6-3.456,3.888v0.048c0.912,0.072,1.44,0.984,1.776,1.729
		l2.688,6.552h-3.744l-2.016-5.232c-0.48-1.248-0.912-1.728-2.328-1.728h-1.08v6.96h-3.36L91.459,84.25L91.459,84.25z
		 M94.819,91.402h1.104c1.656,0,3.552-0.24,3.552-2.328c0-2.017-1.872-2.185-3.552-2.185h-1.104V91.402L94.819,91.402z"/>
	<path d="M106.577,88.642h2.856v2.809h0.048c0.146-1.152,1.465-3.097,3.385-3.097c0.312,0,0.647,0,0.983,0.097v3.239
		c-0.288-0.168-0.864-0.264-1.44-0.264c-2.614,0-2.614,3.264-2.614,5.04v4.536h-3.218V88.642L106.577,88.642z"/>
</g>
<g>
	<path fill="#929497" d="M23.621,125.679h2.205l6.195,14.658h-2.289l-1.491-3.696h-7.182l-1.491,3.696h-2.205L23.621,125.679z
		 M24.65,127.652l-2.919,7.267h5.838L24.65,127.652z"/>
	<path fill="#929497" d="M40.862,131.433c-0.756-0.314-1.512-0.462-2.142-0.462c-2.205,0-3.444,1.975-3.444,4.011
		c0,1.911,1.029,4.012,3.57,4.012c0.672,0,1.512-0.21,2.121-0.608l0.147,1.764c-0.819,0.379-1.764,0.441-2.478,0.441
		c-3.234,0-5.46-2.541-5.46-5.607c0-3.255,2.184-5.605,5.46-5.605c0.798,0,1.827,0.188,2.394,0.42L40.862,131.433z"/>
	<path fill="#929497" d="M50.291,131.433c-0.756-0.314-1.512-0.462-2.142-0.462c-2.205,0-3.444,1.975-3.444,4.011
		c0,1.911,1.029,4.012,3.57,4.012c0.672,0,1.512-0.21,2.121-0.608l0.147,1.764c-0.819,0.379-1.764,0.441-2.478,0.441
		c-3.234,0-5.46-2.541-5.46-5.607c0-3.255,2.184-5.605,5.46-5.605c0.798,0,1.827,0.188,2.394,0.42L50.291,131.433z"/>
	<path fill="#929497" d="M61.126,139.896c-0.756,0.273-1.617,0.693-3.381,0.693c-3.801,0-5.544-2.311-5.544-5.796
		c0-3.172,1.995-5.418,5.019-5.418c3.57,0,4.725,2.604,4.725,6.048h-7.644c0,2.121,1.659,3.569,3.528,3.569
		c1.302,0,2.814-0.672,3.297-1.07V139.896L61.126,139.896z M58.459,128.136h-1.407l-2.751-3.023h2.289L58.459,128.136z
		 M59.845,133.952c0-1.638-0.966-2.981-2.667-2.981c-1.932,0-2.73,1.597-2.877,2.981H59.845z"/>
	<path fill="#929497" d="M63.898,138.236c0.777,0.504,1.89,0.756,2.457,0.756c0.903,0,2.016-0.378,2.016-1.532
		c0-1.953-4.641-1.785-4.641-4.788c0-2.227,1.659-3.297,3.78-3.297c0.924,0,1.68,0.188,2.457,0.42l-0.168,1.722
		c-0.441-0.272-1.617-0.546-2.079-0.546c-1.008,0-1.89,0.42-1.89,1.302c0,2.185,4.641,1.555,4.641,4.979
		c0,2.288-1.827,3.339-3.738,3.339c-1.008,0-2.037-0.104-2.94-0.588L63.898,138.236z"/>
</g>
<g>
	<path fill="#929497" d="M80.057,130.383c0.987-0.588,2.163-1.008,3.528-1.008c3.066,0,4.305,1.512,4.305,4.431v4.432
		c0,1.218,0.042,1.784,0.084,2.101h-1.848v-1.387h-0.042c-0.462,0.65-1.512,1.639-3.318,1.639c-2.31,0-3.927-1.009-3.927-3.339
		c0-2.688,2.94-3.528,4.977-3.528c0.777,0,1.323,0,2.1,0.042c0-1.849-0.672-2.793-2.646-2.793c-1.113,0-2.31,0.42-3.108,1.092
		L80.057,130.383z M85.916,135.233c-0.42,0-0.84-0.042-1.26-0.042c-1.071,0-3.717,0.168-3.717,2.059
		c0,1.134,1.092,1.742,1.995,1.742c1.953,0,2.982-1.218,2.982-2.813V135.233L85.916,135.233z"/>
	<path fill="#929497" d="M100.805,140.337h-1.911v-1.701h-0.042c-0.588,1.218-2.016,1.953-3.507,1.953
		c-2.772,0-4.011-1.723-4.011-4.6v-6.362h1.974v5.544c0,2.499,0.546,3.717,2.268,3.821c2.247,0,3.255-1.807,3.255-4.41v-4.955h1.974
		V140.337L100.805,140.337z"/>
	<path fill="#929497" d="M106.663,134.729l-3.485-5.103h2.457l2.331,3.821l2.373-3.821h2.205l-3.444,5.103l3.78,5.607h-2.438
		l-2.646-4.2l-2.646,4.2H102.8L106.663,134.729z"/>
</g>
<g>
	<path fill="#929497" d="M121.941,130.383c0.987-0.588,2.163-1.008,3.528-1.008c3.064,0,4.305,1.512,4.305,4.431v4.432
		c0,1.218,0.042,1.784,0.084,2.101h-1.848v-1.387h-0.043c-0.461,0.65-1.513,1.639-3.317,1.639c-2.31,0-3.927-1.009-3.927-3.339
		c0-2.688,2.938-3.528,4.977-3.528c0.777,0,1.323,0,2.101,0.042c0-1.849-0.672-2.793-2.646-2.793c-1.112,0-2.31,0.42-3.107,1.092
		L121.941,130.383z M127.801,135.233c-0.42,0-0.84-0.042-1.261-0.042c-1.069,0-3.717,0.168-3.717,2.059
		c0,1.134,1.092,1.742,1.995,1.742c1.953,0,2.981-1.218,2.981-2.813L127.801,135.233L127.801,135.233z"/>
	<path fill="#929497" d="M137.965,140.337h-2.353l-3.844-10.71h2.164l2.896,8.735h0.042l2.961-8.735h1.976L137.965,140.337z"/>
	<path fill="#929497" d="M146.176,127.232h-2.226v-2.227h2.226V127.232L146.176,127.232z M144.075,129.627h1.976v10.71h-1.976
		V129.627L144.075,129.627z"/>
	<path fill="#929497" d="M154.514,129.375c3.255,0,5.438,2.352,5.438,5.605c0,3.066-2.226,5.607-5.438,5.607
		c-3.234,0-5.461-2.541-5.461-5.607C149.053,131.727,151.236,129.375,154.514,129.375z M154.514,138.992
		c2.31,0,3.339-2.101,3.339-4.012c0-2.036-1.239-4.011-3.339-4.011c-2.121,0-3.36,1.975-3.36,4.011
		C151.152,136.893,152.182,138.992,154.514,138.992z"/>
	<path fill="#929497" d="M162.702,129.627h1.91v1.7h0.043c0.588-1.218,2.017-1.952,3.507-1.952c2.772,0,4.012,1.722,4.012,4.599
		v6.363h-1.976v-5.544c0-2.499-0.545-3.718-2.268-3.822c-2.246,0-3.255,1.807-3.255,4.41v4.956h-1.975L162.702,129.627
		L162.702,129.627z"/>
	<path fill="#929497" d="M174.841,138.236c0.776,0.504,1.89,0.756,2.457,0.756c0.902,0,2.017-0.378,2.017-1.532
		c0-1.953-4.642-1.785-4.642-4.788c0-2.227,1.658-3.297,3.779-3.297c0.925,0,1.681,0.188,2.457,0.42l-0.168,1.722
		c-0.44-0.272-1.617-0.546-2.079-0.546c-1.009,0-1.89,0.42-1.89,1.302c0,2.185,4.641,1.555,4.641,4.979
		c0,2.288-1.827,3.339-3.737,3.339c-1.009,0-2.037-0.104-2.939-0.588L174.841,138.236z"/>
</g>
<g>
	<path d="M15.828,172.524c0.823-0.552,1.8-0.839,2.93-0.862c2.42,0.012,3.613,1.276,3.578,3.795v3.795
		c0,0.983,0.024,1.584,0.074,1.801h-1.533v-1.19h-0.034c-0.188,0.288-0.508,0.587-0.962,0.898c-0.454,0.328-1.053,0.499-1.797,0.511
		c-0.965,0-1.743-0.229-2.333-0.686c-0.607-0.469-0.917-1.196-0.928-2.181c0-0.574,0.139-1.061,0.417-1.459
		c0.267-0.381,0.61-0.686,1.03-0.914c0.885-0.445,1.782-0.662,2.69-0.65c0.579,0,1.158,0.012,1.737,0.035
		c0-0.8-0.157-1.398-0.469-1.795c-0.335-0.392-0.913-0.587-1.731-0.587c-0.99,0.012-1.852,0.319-2.585,0.924L15.828,172.524z
		 M20.698,176.667c-0.348,0-0.698-0.012-1.051-0.035c-0.217,0-0.496,0.012-0.837,0.035c-0.336,0.041-0.681,0.121-1.034,0.238
		c-0.336,0.105-0.621,0.272-0.854,0.501c-0.245,0.253-0.367,0.584-0.367,0.995c0.011,0.481,0.199,0.848,0.564,1.101
		c0.336,0.264,0.703,0.396,1.102,0.396c0.826-0.012,1.449-0.246,1.871-0.704c0.404-0.446,0.607-1.016,0.607-1.708V176.667z"/>
	<path d="M28.397,167.553h1.638v5.588h0.034c0.255-0.446,0.621-0.807,1.097-1.083c0.465-0.264,1.083-0.396,1.854-0.396
		c1.287,0.023,2.248,0.485,2.883,1.388c0.629,0.884,0.944,1.968,0.944,3.25c0,1.312-0.295,2.45-0.885,3.417
		c-0.618,1.007-1.593,1.525-2.926,1.555c-0.783-0.012-1.429-0.183-1.939-0.511c-0.499-0.312-0.865-0.646-1.097-1.004h-0.034v1.296
		h-1.569V167.553z M35.116,176.432c0.023-0.878-0.15-1.659-0.52-2.344c-0.398-0.678-1.038-1.029-1.918-1.053
		c-0.887,0.023-1.546,0.384-1.978,1.079c-0.443,0.679-0.665,1.469-0.665,2.37c-0.012,0.801,0.198,1.556,0.631,2.264
		c0.409,0.743,1.074,1.126,1.995,1.149c0.449,0,0.833-0.12,1.151-0.359c0.312-0.217,0.568-0.497,0.768-0.843
		C34.96,177.952,35.14,177.198,35.116,176.432z"/>
	<path d="M47.995,173.43c-0.636-0.263-1.229-0.395-1.78-0.395c-0.903,0.023-1.605,0.369-2.105,1.035
		c-0.5,0.685-0.75,1.483-0.75,2.396c0,0.392,0.062,0.792,0.188,1.202c0.108,0.421,0.284,0.792,0.528,1.114
		c0.46,0.731,1.21,1.103,2.25,1.114c0.613,0,1.201-0.173,1.764-0.518l0.119,1.513c-0.334,0.152-0.683,0.252-1.045,0.299
		c-0.369,0.053-0.706,0.08-1.012,0.08c-1.354-0.029-2.439-0.51-3.255-1.44c-0.833-0.902-1.255-2.023-1.267-3.364
		c0.011-1.429,0.428-2.58,1.25-3.452c0.805-0.891,1.896-1.341,3.272-1.353c0.753,0.012,1.417,0.132,1.989,0.36L47.995,173.43z"/>
	<path d="M59.625,179.757H59.59c-0.21,0.358-0.571,0.692-1.083,1.004c-0.5,0.328-1.151,0.499-1.952,0.511
		c-1.33-0.041-2.296-0.565-2.898-1.572c-0.62-0.967-0.929-2.1-0.929-3.399c0-1.282,0.321-2.366,0.963-3.25
		c0.625-0.902,1.585-1.364,2.881-1.388c0.779,0,1.407,0.132,1.884,0.396c0.466,0.276,0.821,0.637,1.065,1.083h0.034v-5.588h1.638
		v13.5h-1.569V179.757z M54.459,176.432c-0.023,0.767,0.165,1.521,0.564,2.264c0.205,0.346,0.467,0.626,0.787,0.843
		c0.313,0.239,0.687,0.359,1.12,0.359c0.923-0.023,1.593-0.406,2.01-1.149c0.41-0.708,0.616-1.463,0.616-2.264
		c0-0.901-0.217-1.691-0.65-2.37c-0.434-0.695-1.098-1.056-1.993-1.079c-0.889,0.023-1.519,0.375-1.89,1.053
		C54.624,174.772,54.436,175.554,54.459,176.432z"/>
	<path d="M74.114,180.673c-0.307,0.117-0.667,0.243-1.082,0.378c-0.432,0.135-1.008,0.209-1.729,0.221
		c-1.573-0.012-2.732-0.469-3.476-1.371c-0.755-0.89-1.133-2.09-1.133-3.601c0.011-1.388,0.395-2.51,1.149-3.364
		c0.744-0.838,1.751-1.262,3.023-1.273c1.465,0.023,2.493,0.514,3.083,1.472c0.312,0.468,0.534,1.011,0.665,1.63
		c0.113,0.637,0.17,1.326,0.17,2.068h-6.359c0.011,0.91,0.307,1.645,0.888,2.202c0.575,0.564,1.259,0.852,2.05,0.863
		c0.569,0,1.119-0.114,1.648-0.344c0.512-0.205,0.88-0.398,1.102-0.581V180.673z M73.053,175.585c0-0.715-0.188-1.318-0.565-1.812
		c-0.382-0.48-0.935-0.727-1.659-0.738c-0.799,0.023-1.383,0.299-1.754,0.826c-0.376,0.517-0.593,1.091-0.65,1.724H73.053z"/>
	<path d="M81.33,173.254h-2.095v-1.373h2.095v-0.855c-0.012-1.14,0.184-2.041,0.588-2.705c0.42-0.646,1.219-0.975,2.395-0.986
		c0.409,0.012,0.776,0.047,1.1,0.105l-0.068,1.373c-0.222-0.07-0.483-0.105-0.784-0.105c-0.676,0.012-1.113,0.217-1.312,0.615
		c-0.199,0.404-0.293,0.926-0.281,1.564v0.994h2.36v1.373h-2.36v7.799H81.33V173.254z"/>
	<path d="M98.115,180.656c0.041,2.89-1.489,4.355-4.59,4.396c-0.819,0.012-1.886-0.2-3.2-0.634l0.179-1.565
		c1.092,0.562,2.162,0.837,3.208,0.825c1.809-0.047,2.73-1.096,2.766-3.147v-0.905h-0.035c-0.364,0.47-0.802,0.825-1.313,1.065
		c-0.534,0.24-1.091,0.361-1.671,0.361c-1.273-0.012-2.222-0.475-2.847-1.389c-0.643-0.86-0.963-1.902-0.963-3.127
		c0-1.247,0.332-2.357,0.997-3.329c0.654-0.996,1.648-1.511,2.984-1.546c0.778,0,1.406,0.138,1.884,0.413
		c0.466,0.276,0.815,0.666,1.048,1.171h0.034v-1.364l1.519-0.001V180.656z M93.869,179.679c0.792-0.012,1.422-0.321,1.89-0.93
		c0.467-0.585,0.707-1.311,0.718-2.177c0-0.983-0.211-1.816-0.633-2.501c-0.445-0.679-1.104-1.024-1.976-1.036
		c-0.821,0.023-1.439,0.39-1.855,1.097c-0.422,0.702-0.633,1.475-0.633,2.317c0,0.884,0.228,1.639,0.684,2.265
		C92.498,179.346,93.099,179.667,93.869,179.679z"/>
	<path d="M104.206,167.553h1.638v5.641h0.034c0.307-0.493,0.711-0.877,1.211-1.153c0.489-0.252,1.041-0.378,1.654-0.378
		c2.253,0.047,3.364,1.361,3.335,3.944v5.446h-1.638v-4.751c0.047-2.119-0.581-3.208-1.885-3.267
		c-0.921,0.012-1.604,0.357-2.047,1.036c-0.443,0.686-0.665,1.599-0.665,2.74v4.241h-1.638V167.553z"/>
	<path d="M120.138,169.816h-1.844v-1.903h1.844V169.816z M118.391,171.881h1.638v9.172h-1.638V171.881z"/>
	<path d="M124.523,183.517c0.176,0.035,0.396,0.053,0.664,0.053c0.389-0.012,0.688-0.193,0.899-0.544
		c0.183-0.334,0.274-0.8,0.274-1.396v-9.748h1.638v9.498c0,0.334-0.012,0.706-0.034,1.116c-0.034,0.416-0.128,0.817-0.281,1.204
		s-0.403,0.7-0.75,0.94c-0.335,0.264-0.817,0.401-1.448,0.413c-0.397,0-0.735-0.027-1.015-0.08L124.523,183.517z M128.108,169.816
		h-1.844v-1.903h1.844V169.816z"/>
	<path d="M134.113,167.553h1.638v8.053l3.577-3.725h2.23l-4.13,4.059l4.658,5.113h-2.358l-3.978-4.717v4.717h-1.638V167.553z"/>
	<path d="M147.313,167.553h1.638v13.5h-1.638V167.553z"/>
	<path d="M154.859,171.881h1.576v1.314h0.035c0.625-1.022,1.594-1.533,2.908-1.533c0.549,0,1.062,0.138,1.541,0.413
		c0.467,0.288,0.82,0.745,1.06,1.373c0.345-0.663,0.797-1.132,1.357-1.408c0.555-0.252,1.045-0.378,1.472-0.378
		c1.161,0.012,1.987,0.343,2.479,0.992c0.479,0.645,0.712,1.481,0.7,2.513v5.886h-1.641v-5.471c0-0.287-0.012-0.586-0.035-0.896
		c-0.048-0.299-0.131-0.574-0.25-0.826c-0.124-0.263-0.297-0.468-0.517-0.614c-0.22-0.141-0.505-0.211-0.854-0.211
		c-0.861,0.023-1.481,0.369-1.861,1.036c-0.386,0.674-0.579,1.461-0.579,2.362v4.619h-1.638v-5.471c0-0.287-0.012-0.586-0.035-0.896
		c-0.048-0.299-0.134-0.574-0.259-0.826c-0.119-0.263-0.289-0.468-0.509-0.614c-0.22-0.141-0.506-0.211-0.856-0.211
		c-0.868,0.023-1.489,0.369-1.864,1.036c-0.393,0.674-0.589,1.461-0.589,2.362v4.619h-1.641V171.881z"/>
	<path d="M15.417,190.881h1.586v1.438h0.034c0.256-0.522,0.654-0.933,1.194-1.229c0.523-0.284,1.097-0.427,1.723-0.427
		c2.252,0.047,3.364,1.361,3.335,3.944v5.446h-1.638v-4.751c0.047-2.119-0.582-3.208-1.885-3.267
		c-0.921,0.012-1.604,0.357-2.047,1.036c-0.443,0.686-0.665,1.599-0.665,2.74v4.241h-1.638V190.881z"/>
	<path d="M28.788,195.467c0.011-1.429,0.431-2.58,1.259-3.452c0.799-0.891,1.891-1.341,3.275-1.353
		c1.378,0.012,2.47,0.462,3.275,1.353c0.811,0.872,1.222,2.023,1.234,3.452c-0.012,1.341-0.423,2.462-1.234,3.364
		c-0.828,0.931-1.92,1.411-3.275,1.44c-1.361-0.029-2.448-0.51-3.259-1.44C29.225,197.929,28.799,196.808,28.788,195.467z
		 M30.52,195.467c0,0.848,0.228,1.62,0.684,2.316c0.456,0.731,1.162,1.103,2.12,1.114c0.957-0.012,1.661-0.383,2.111-1.114
		c0.444-0.696,0.667-1.469,0.667-2.316c0-0.913-0.24-1.712-0.718-2.396c-0.49-0.666-1.176-1.012-2.06-1.035
		c-0.889,0.023-1.573,0.369-2.051,1.035C30.77,193.755,30.52,194.554,30.52,195.467z"/>
	<path d="M43.347,190.881h1.569v1.279h0.034c0.232-0.354,0.598-0.694,1.097-1.02c0.487-0.308,1.128-0.467,1.922-0.479
		c1.287,0.023,2.248,0.485,2.883,1.388c0.629,0.884,0.944,1.968,0.944,3.25c0,1.312-0.295,2.45-0.885,3.417
		c-0.618,1.007-1.593,1.525-2.926,1.555c-0.782-0.012-1.406-0.159-1.871-0.44c-0.476-0.275-0.842-0.622-1.097-1.039h-0.034v5.042
		h-1.638V190.881z M50.066,195.432c0.023-0.878-0.15-1.659-0.52-2.344c-0.398-0.678-1.038-1.029-1.918-1.053
		c-0.887,0.023-1.546,0.384-1.978,1.079c-0.443,0.679-0.665,1.469-0.665,2.37c-0.012,0.801,0.198,1.556,0.631,2.264
		c0.409,0.743,1.074,1.126,1.995,1.149c0.449,0,0.833-0.12,1.151-0.359c0.312-0.217,0.568-0.497,0.768-0.843
		C49.91,196.952,50.089,196.198,50.066,195.432z"/>
	<path d="M65.184,203.834h-1.638v-4.989h-0.034c-0.585,0.922-1.574,1.397-2.967,1.427c-1.33-0.041-2.296-0.565-2.898-1.572
		c-0.62-0.967-0.929-2.1-0.929-3.399c0-1.282,0.321-2.366,0.963-3.25c0.625-0.902,1.585-1.364,2.881-1.388
		c0.79,0.012,1.435,0.173,1.936,0.483c0.511,0.329,0.872,0.678,1.083,1.048h0.034v-1.312l1.569-0.001V203.834z M58.45,195.432
		c-0.023,0.767,0.165,1.521,0.564,2.264c0.205,0.346,0.467,0.626,0.787,0.843c0.313,0.239,0.687,0.359,1.12,0.359
		c0.923-0.023,1.593-0.406,2.01-1.149c0.41-0.708,0.616-1.463,0.616-2.264c0-0.901-0.217-1.691-0.65-2.37
		c-0.434-0.695-1.098-1.056-1.993-1.079c-0.889,0.023-1.519,0.375-1.89,1.053C58.614,193.772,58.426,194.554,58.45,195.432z"/>
	<path d="M71.277,190.881h1.534v1.406h0.034c0.244-0.489,0.571-0.883,0.98-1.18c0.42-0.297,0.866-0.445,1.338-0.445
		c0.432,0,0.792,0.041,1.082,0.123v1.518c-0.312-0.105-0.613-0.158-0.903-0.158c-0.732,0.012-1.314,0.349-1.746,1.01
		c-0.454,0.655-0.681,1.564-0.681,2.729v4.169h-1.638V190.881z"/>
	<path d="M80.591,198.248c0.347,0.217,0.714,0.381,1.102,0.491c0.387,0.105,0.703,0.158,0.948,0.158
		c0.404,0,0.783-0.103,1.136-0.308c0.347-0.192,0.526-0.529,0.538-1.01c0-0.21-0.046-0.4-0.137-0.57
		c-0.108-0.17-0.253-0.312-0.436-0.43c-0.387-0.24-0.837-0.48-1.349-0.721c-0.233-0.135-0.467-0.271-0.7-0.412
		c-0.222-0.146-0.433-0.311-0.632-0.492c-0.393-0.368-0.595-0.857-0.606-1.466c0.011-0.96,0.318-1.675,0.919-2.143
		c0.584-0.457,1.323-0.685,2.214-0.685c0.744,0.012,1.425,0.132,2.043,0.359l-0.145,1.475c-0.193-0.133-0.472-0.246-0.835-0.339
		c-0.37-0.081-0.666-0.122-0.887-0.122c-0.432,0-0.793,0.088-1.083,0.264c-0.33,0.182-0.495,0.465-0.495,0.852
		c0,0.229,0.06,0.419,0.179,0.57c0.114,0.182,0.258,0.331,0.435,0.448c0.199,0.123,0.409,0.237,0.63,0.343
		c0.233,0.123,0.466,0.242,0.699,0.359c0.244,0.111,0.488,0.237,0.732,0.378c0.233,0.146,0.435,0.316,0.605,0.509
		c0.188,0.188,0.335,0.413,0.443,0.677c0.091,0.263,0.136,0.588,0.136,0.975c-0.012,0.972-0.327,1.691-0.945,2.159
		c-0.602,0.469-1.322,0.703-2.161,0.703c-0.415,0-0.826-0.039-1.234-0.115c-0.42-0.07-0.82-0.202-1.2-0.396L80.591,198.248z"/>
	<path d="M95.952,192.254h-2.353v5.014c0,0.525,0.139,0.926,0.416,1.2c0.261,0.287,0.581,0.43,0.96,0.43
		c0.499-0.012,0.87-0.119,1.113-0.324v1.442c-0.176,0.047-0.386,0.1-0.63,0.158c-0.244,0.064-0.499,0.098-0.766,0.098
		c-1.787,0.012-2.698-0.877-2.731-2.667v-5.351h-2.008v-1.373h2.008v-2.127l1.638-0.536v2.663h2.353V192.254z"/>
	<path d="M109.073,200.053h-1.587v-1.447h-0.034c-0.256,0.523-0.646,0.928-1.168,1.212c-0.523,0.291-1.106,0.442-1.749,0.454
		c-2.246-0.053-3.357-1.368-3.334-3.944v-5.446h1.638v4.741c-0.047,2.113,0.581,3.205,1.885,3.275
		c0.943-0.012,1.631-0.365,2.063-1.062c0.432-0.685,0.648-1.589,0.648-2.713v-4.241h1.638V200.053z"/>
	<path d="M119.017,200.053h-2.021l-3.287-9.172h1.846l2.487,7.485h0.035l2.54-7.485h1.688L119.017,200.053z"/>
	<path d="M137.102,200.053h-1.96l-2.373-7.689h-0.035l-2.32,7.689h-1.969l-2.944-9.172h1.854l2.101,7.595h0.035l2.338-7.595h2.004
		l2.303,7.595h0.035l2.232-7.595h1.652L137.102,200.053z"/>
	<path d="M147.185,195.248l-2.988-4.367h2.044l1.934,3.268l1.976-3.268h1.831l-2.953,4.366l3.226,4.806h-2.019l-2.197-3.601
		l-2.197,3.601h-1.959L147.185,195.248z"/>
	<path d="M156.417,202.538c0.222,0.082,0.477,0.129,0.766,0.141c0.374-0.012,0.688-0.126,0.944-0.343
		c0.243-0.217,0.439-0.463,0.587-0.737c0.277-0.621,0.416-1.017,0.416-1.187c-0.011-0.123-0.045-0.272-0.102-0.448
		c-0.08-0.192-0.147-0.368-0.204-0.526l-3.02-8.557h1.795l2.39,7.589h0.034l2.441-7.589h1.649l-3.274,9.375
		c-0.136,0.428-0.292,0.864-0.468,1.31c-0.176,0.457-0.392,0.864-0.646,1.222c-0.232,0.363-0.538,0.659-0.918,0.888
		c-0.386,0.24-0.846,0.366-1.378,0.378c-0.488-0.012-0.86-0.057-1.118-0.133L156.417,202.538z"/>
	<path d="M168.399,198.573l5.125-6.319h-4.877v-1.373h6.78v1.475l-5.291,6.323h5.479v1.374h-7.2L168.399,198.573z"/>
	<path fill="#FFFFFF" d="M53.715,212.767c0-0.721,0.062-1.453,0.187-2.197c0.119-0.756,0.329-1.45,0.63-2.083
		c0.317-0.662,0.743-1.195,1.276-1.6c0.533-0.398,1.211-0.604,2.034-0.615c0.851,0.012,1.549,0.217,2.093,0.615
		c0.533,0.404,0.944,0.938,1.234,1.6c0.318,0.633,0.533,1.327,0.647,2.083c0.107,0.744,0.162,1.477,0.162,2.197
		c0,0.697-0.054,1.418-0.162,2.162c-0.114,0.744-0.329,1.447-0.647,2.109c-0.29,0.657-0.701,1.19-1.234,1.601
		c-0.544,0.41-1.242,0.621-2.093,0.633c-0.823-0.012-1.5-0.223-2.034-0.633s-0.959-0.943-1.276-1.601
		c-0.301-0.662-0.511-1.365-0.63-2.109C53.777,214.185,53.715,213.464,53.715,212.767z M55.556,212.767
		c0,0.398,0.022,0.872,0.068,1.422c0.045,0.562,0.145,1.121,0.298,1.677c0.153,0.539,0.387,0.986,0.7,1.344
		c0.29,0.386,0.696,0.579,1.22,0.579c0.523,0,0.944-0.193,1.263-0.579c0.301-0.357,0.529-0.805,0.682-1.344
		c0.148-0.556,0.245-1.114,0.29-1.677c0.04-0.55,0.06-1.023,0.06-1.422c0.012-0.896-0.116-1.932-0.384-3.107
		c-0.154-0.55-0.381-1.007-0.683-1.37c-0.319-0.345-0.728-0.523-1.229-0.535c-0.478,0.012-0.873,0.19-1.186,0.535
		c-0.313,0.363-0.546,0.82-0.7,1.37c-0.148,0.538-0.253,1.083-0.316,1.633C55.584,211.871,55.556,212.363,55.556,212.767z"/>
	<path fill="#FFFFFF" d="M70.05,208.566l-1.866,1.661l-0.929-1.217l2.98-2.521h1.546v12.562H70.05V208.566z"/>
	<path fill="#FFFFFF" d="M78.573,217.122c0.664-0.586,1.391-1.256,2.18-2.011c0.743-0.673,1.501-1.483,2.273-2.432
		c0.357-0.469,0.653-0.948,0.886-1.44c0.232-0.491,0.349-0.989,0.349-1.492c-0.012-0.597-0.233-1.083-0.665-1.457
		c-0.432-0.346-0.988-0.524-1.67-0.536c-0.256,0-0.52,0.018-0.792,0.053c-0.256,0.059-0.505,0.126-0.75,0.202
		c-0.5,0.164-0.917,0.349-1.252,0.553l-0.179-1.549c1.027-0.482,2.091-0.729,3.191-0.741c1.129,0,2.065,0.299,2.809,0.896
		c0.754,0.604,1.137,1.5,1.149,2.688c0,0.516-0.117,1.037-0.35,1.564c-0.233,0.527-0.529,1.042-0.887,1.546
		c-0.785,1.008-1.55,1.871-2.294,2.592c-0.756,0.744-1.47,1.414-2.141,2.012h5.854v1.483h-7.71V217.122z"/>
	<path fill="#FFFFFF" d="M92.569,211.788h0.979c0.681,0.012,1.342-0.141,1.983-0.457c0.301-0.152,0.55-0.36,0.749-0.624
		c0.187-0.252,0.281-0.577,0.281-0.976c-0.012-0.721-0.25-1.236-0.715-1.547c-0.454-0.287-1.013-0.431-1.677-0.431
		c-0.534,0-1.027,0.059-1.481,0.176c-0.454,0.135-0.86,0.305-1.217,0.51l-0.102-1.604c0.902-0.353,1.917-0.541,3.046-0.564
		c1.117,0,2.053,0.27,2.808,0.809c0.777,0.551,1.171,1.421,1.183,2.61c-0.012,0.791-0.267,1.427-0.765,1.907
		c-0.51,0.492-1.124,0.812-1.843,0.958v0.035c0.823,0.152,1.485,0.48,1.984,0.984c0.477,0.521,0.721,1.23,0.733,2.127
		c-0.023,1.407-0.517,2.356-1.481,2.849c-0.953,0.492-2.056,0.732-3.31,0.721c-1.033-0.029-1.963-0.194-2.791-0.493l0.111-1.673
		c0.323,0.169,0.718,0.317,1.184,0.446c0.466,0.157,0.96,0.236,1.482,0.236c0.709,0.012,1.374-0.151,1.993-0.49
		c0.625-0.321,0.948-0.87,0.971-1.646c-0.012-0.922-0.318-1.556-0.92-1.9c-0.596-0.332-1.301-0.493-2.113-0.481h-1.071V211.788z"/>
	<path fill="#FFFFFF" d="M108.397,216.191h-5.672v-1.481l4.91-8.22h2.493v8.22h1.531v1.481h-1.531v2.861h-1.731V216.191z
		 M108.397,207.973h-0.034l-3.812,6.737h3.847V207.973z"/>
	<path fill="#FFFFFF" d="M123.086,207.973h-5.055l-0.102,3.351c0.334-0.105,0.856-0.164,1.565-0.176
		c1.117,0.012,2.047,0.378,2.79,1.099c0.754,0.722,1.137,1.65,1.148,2.787c-0.022,1.384-0.477,2.43-1.361,3.139
		c-0.886,0.722-1.983,1.088-3.294,1.1c-0.664-0.012-1.203-0.068-1.617-0.168c-0.431-0.082-0.763-0.167-0.995-0.255l0.051-1.692
		c0.688,0.422,1.531,0.632,2.53,0.632c0.767,0,1.423-0.222,1.969-0.667c0.573-0.421,0.865-1.026,0.877-1.816
		c-0.012-0.9-0.293-1.576-0.844-2.026c-0.557-0.433-1.258-0.649-2.104-0.649c-0.512,0-0.949,0.035-1.312,0.105
		c-0.188,0.035-0.36,0.085-0.52,0.149c-0.177,0.07-0.353,0.141-0.528,0.21l0.102-6.604h6.699V207.973z"/>
	<path fill="#FFFFFF" d="M135.206,208.271c-0.637-0.345-1.357-0.518-2.164-0.518c-1.124,0.023-1.968,0.479-2.529,1.368
		c-0.557,0.883-0.847,1.947-0.87,3.194l0.035-0.018c0.789-0.779,1.677-1.163,2.665-1.151c1.197,0.012,2.111,0.384,2.741,1.116
		c0.612,0.745,0.919,1.694,0.919,2.849c-0.012,1.296-0.383,2.31-1.114,3.042c-0.721,0.733-1.647,1.105-2.782,1.117
		c-0.839-0.012-1.525-0.193-2.059-0.545c-0.533-0.346-0.95-0.814-1.251-1.407c-0.295-0.586-0.499-1.233-0.612-1.942
		c-0.119-0.721-0.179-1.433-0.179-2.136c-0.023-1.793,0.319-3.384,1.029-4.772c0.721-1.43,2.022-2.162,3.906-2.197
		c0.442,0,0.913,0.035,1.412,0.105c0.499,0.077,0.865,0.174,1.098,0.291L135.206,208.271z M134.162,215.147
		c0-0.626-0.162-1.196-0.485-1.711c-0.177-0.252-0.387-0.45-0.632-0.597c-0.267-0.141-0.573-0.211-0.92-0.211
		c-0.723,0.012-1.276,0.252-1.663,0.72c-0.403,0.479-0.605,1.079-0.605,1.799c0,0.62,0.185,1.199,0.555,1.737
		c0.353,0.591,0.881,0.892,1.586,0.903c0.732-0.012,1.281-0.289,1.646-0.833C133.989,216.44,134.162,215.838,134.162,215.147z"/>
	<path fill="#FFFFFF" d="M147.994,207.973l-4.492,11.08h-1.915l4.638-11.08h-5.931v-1.482h7.7V207.973z"/>
	<path fill="#FFFFFF" d="M156.604,219.271c-1.067,0-2.016-0.302-2.845-0.905c-0.846-0.586-1.28-1.457-1.303-2.611
		c0-0.85,0.249-1.55,0.747-2.101c0.476-0.557,1.084-0.961,1.825-1.213v-0.035c-0.866-0.334-1.459-0.788-1.779-1.362
		c-0.332-0.58-0.492-1.169-0.48-1.767c0-0.838,0.349-1.547,1.045-2.127c0.679-0.574,1.639-0.867,2.878-0.879
		c1.206,0.023,2.135,0.316,2.785,0.879c0.651,0.568,0.977,1.219,0.977,1.951c0,0.68-0.158,1.277-0.476,1.793
		c-0.334,0.516-0.906,0.996-1.716,1.441c0.744,0.252,1.361,0.659,1.851,1.222c0.466,0.557,0.704,1.26,0.716,2.109
		c-0.012,1.248-0.426,2.16-1.243,2.734C158.785,218.981,157.791,219.271,156.604,219.271z M158.988,215.804
		c0.012-0.438-0.054-0.805-0.196-1.097c-0.137-0.287-0.339-0.513-0.606-0.676c-0.245-0.182-0.533-0.346-0.863-0.492
		c-0.324-0.129-0.658-0.271-0.999-0.43c-0.245,0.17-0.484,0.324-0.718,0.465c-0.245,0.158-0.465,0.328-0.658,0.509
		c-0.199,0.164-0.354,0.372-0.461,0.624c-0.126,0.252-0.188,0.564-0.188,0.939c0.012,0.685,0.273,1.211,0.786,1.58
		c0.479,0.374,1.039,0.562,1.683,0.562c0.604,0,1.117-0.176,1.538-0.526C158.727,216.916,158.954,216.431,158.988,215.804z
		 M154.504,209.538c0.012,0.779,0.846,1.541,2.503,2.285c0.695-0.551,1.143-1.008,1.341-1.371c0.187-0.334,0.274-0.706,0.263-1.116
		c0-0.311-0.065-0.562-0.195-0.756c-0.124-0.205-0.291-0.366-0.5-0.483c-0.431-0.229-0.883-0.343-1.357-0.343
		c-0.431,0-0.871,0.144-1.324,0.431c-0.203,0.146-0.37,0.328-0.5,0.545C154.58,208.952,154.504,209.222,154.504,209.538z"/>
	<path fill="#FFFFFF" d="M165.73,217.262c0.641,0.352,1.36,0.526,2.16,0.526c1.14-0.012,1.987-0.474,2.543-1.386
		c0.562-0.888,0.848-1.95,0.859-3.186l-0.035,0.026c-0.793,0.779-1.683,1.163-2.669,1.151c-1.174-0.012-2.072-0.396-2.695-1.151
		c-0.641-0.732-0.961-1.671-0.961-2.813c0.012-1.307,0.389-2.327,1.132-3.06c0.72-0.732,1.645-1.099,2.773-1.099
		c0.856,0.012,1.554,0.185,2.093,0.519c0.533,0.352,0.944,0.82,1.233,1.406s0.493,1.233,0.612,1.942
		c0.103,0.709,0.153,1.43,0.153,2.162c0.012,1.775-0.326,3.36-1.013,4.755c-0.709,1.425-2.014,2.163-3.914,2.216
		c-0.442,0-0.908-0.051-1.396-0.15c-0.488-0.07-0.859-0.153-1.115-0.247L165.73,217.262z M166.773,210.396
		c0,0.608,0.176,1.17,0.527,1.685c0.171,0.239,0.383,0.433,0.639,0.579c0.244,0.169,0.536,0.254,0.876,0.254
		c0.743-0.012,1.305-0.257,1.686-0.737c0.386-0.468,0.578-1.062,0.578-1.78c0-0.638-0.173-1.231-0.519-1.781
		c-0.363-0.55-0.905-0.837-1.626-0.86c-0.731,0.012-1.271,0.281-1.616,0.808C166.955,209.076,166.773,209.688,166.773,210.396z"/>
</g>
</svg>
