<?xml version="1.0" encoding="UTF-8" standalone="no"?>
<!-- Created with Inkscape (http://www.inkscape.org/) -->

<svg
   xmlns:dc="http://purl.org/dc/elements/1.1/"
   xmlns:cc="http://creativecommons.org/ns#"
   xmlns:rdf="http://www.w3.org/1999/02/22-rdf-syntax-ns#"
   xmlns:svg="http://www.w3.org/2000/svg"
   xmlns="http://www.w3.org/2000/svg"
   xmlns:sodipodi="http://sodipodi.sourceforge.net/DTD/sodipodi-0.dtd"
   xmlns:inkscape="http://www.inkscape.org/namespaces/inkscape"
   version="1.1"
   width="198"
   height="234"
   viewBox="0 0 198 234"
   id="Layer_1"
   xml:space="preserve"
   style="overflow:visible"
   inkscape:version="0.48.0 r9654"
   sodipodi:docname="FuturaSP.svg"><sodipodi:namedview
   pagecolor="#ffffff"
   bordercolor="#666666"
   borderopacity="1"
   objecttolerance="10"
   gridtolerance="10"
   guidetolerance="10"
   inkscape:pageopacity="0"
   inkscape:pageshadow="2"
   inkscape:window-width="1024"
   inkscape:window-height="706"
   id="namedview3016"
   showgrid="false"
   inkscape:zoom="2.2307692"
   inkscape:cx="99"
   inkscape:cy="117"
   inkscape:window-x="-8"
   inkscape:window-y="-8"
   inkscape:window-maximized="1"
   inkscape:current-layer="Layer_1" /><metadata
   id="metadata3341"><rdf:RDF><cc:Work
       rdf:about=""><dc:format>image/svg+xml</dc:format><dc:type
         rdf:resource="http://purl.org/dc/dcmitype/StillImage" /><dc:title /></cc:Work></rdf:RDF></metadata><defs
   id="defs3339" />
<rect
   width="198"
   height="234"
   x="0"
   y="0"
   id="rect3165"
   style="fill:#ffffff" />
<path
   d="M 0,0 H 198 V 156 H 0 V 0 z"
   id="path3167"
   style="fill:#e6e6e6;fill-opacity:1" />
<rect
   width="198"
   height="78"
   x="0"
   y="156"
   id="rect3169"
   style="fill:#ff5f56;fill-opacity:1" />












<g
   style="font-size:144px;font-style:normal;font-variant:normal;font-weight:normal;font-stretch:normal;line-height:125%;letter-spacing:0px;word-spacing:0px;fill:#29292a;fill-opacity:1;stroke:none;font-family:Futura Std Medium;-inkscape-font-specification:Futura Std Medium"
   id="text3343"><path
     d="m 25.306094,17.571206 0,-1.719978 -7.299906,0 0,15.079806 1.879976,0 0,-7.399905 5.239932,0 0,-1.719977 -5.239932,0 0,-4.239946 z"
     style="font-size:20px;fill:#29292a"
     id="path3019" /><path
     d="m 27.238379,21.571155 0,5.37993 c -0.0075,1.299153 0.307495,2.335805 0.944988,3.10996 0.637489,0.774157 1.642475,1.170818 3.014961,1.189985 1.372476,-0.01917 2.377462,-0.415828 3.014961,-1.189985 0.637483,-0.774155 0.952479,-1.810807 0.944988,-3.10996 l 0,-5.37993 -1.799977,0 0,5.179933 c 0.02124,0.773743 -0.116255,1.431234 -0.412495,1.972474 -0.296253,0.541245 -0.878744,0.823741 -1.747477,0.84749 -0.868743,-0.02375 -1.451235,-0.306245 -1.747478,-0.84749 -0.296249,-0.54124 -0.433747,-1.198731 -0.412494,-1.972474 l 0,-5.179933 z"
     style="font-size:20px;fill:#29292a"
     id="path3021" /><path
     d="m 39.612726,23.251133 1.759978,0 0,-1.679978 -1.759978,0 0,-3.579954 -1.799976,0 0,3.579954 -0.979988,0 0,1.679978 0.979988,0 0,7.679901 1.799976,0 z"
     style="font-size:20px;fill:#29292a"
     id="path3023" /><path
     d="m 42.277442,21.571155 0,5.37993 c -0.0075,1.299153 0.307494,2.335805 0.944987,3.10996 0.637489,0.774157 1.642475,1.170818 3.014962,1.189985 1.372475,-0.01917 2.377461,-0.415828 3.014961,-1.189985 0.637483,-0.774155 0.952478,-1.810807 0.944988,-3.10996 l 0,-5.37993 -1.799977,0 0,5.179933 c 0.02124,0.773743 -0.116256,1.431234 -0.412495,1.972474 -0.296253,0.541245 -0.878745,0.823741 -1.747477,0.84749 -0.868744,-0.02375 -1.451236,-0.306245 -1.747478,-0.84749 -0.29625,-0.54124 -0.433748,-1.198731 -0.412495,-1.972474 l 0,-5.179933 z"
     style="font-size:20px;fill:#29292a"
     id="path3025" /><path
     d="m 54.511791,21.571155 -1.799977,0 0,9.359879 1.799977,0 0,-4.599941 c -0.03042,-0.803317 0.09041,-1.546641 0.362495,-2.229971 0.272076,-0.683317 0.877901,-1.046645 1.817477,-1.089986 0.209574,-0.0017 0.405405,0.02667 0.587492,0.085 0.182075,0.05834 0.352906,0.156672 0.512494,0.294996 l 0.819989,-1.639979 c -0.221671,-0.141656 -0.458335,-0.253321 -0.709991,-0.334996 -0.25167,-0.08166 -0.508333,-0.123322 -0.76999,-0.124998 -0.604164,0.0063 -1.125824,0.168757 -1.56498,0.487494 -0.439165,0.318755 -0.770827,0.756249 -0.994987,1.312483 l -0.06,0 z"
     style="font-size:20px;fill:#29292a"
     id="path3027" /><path
     d="m 63.663013,29.651051 c -0.954575,-0.03167 -1.685398,-0.378327 -2.192472,-1.039987 -0.507079,-0.661656 -0.762909,-1.448311 -0.767489,-2.35997 0.0071,-0.901233 0.26791,-1.678722 0.78249,-2.33247 0.514573,-0.653734 1.240396,-0.996229 2.177471,-1.027486 0.975398,0.02626 1.724554,0.358753 2.247471,0.997487 0.522902,0.638748 0.787065,1.426237 0.79249,2.362469 -0.0042,0.946659 -0.265838,1.743314 -0.78499,2.389969 -0.519167,0.64666 -1.270823,0.983322 -2.254971,1.009988 z m 4.739939,-8.079896 -1.799976,0 0,1.55998 -0.04,0 c -0.372503,-0.566651 -0.832497,-1.013312 -1.379982,-1.339983 -0.547499,-0.326653 -1.167491,-0.493318 -1.859976,-0.499994 -1.374153,0.04418 -2.450804,0.540835 -3.229959,1.489981 -0.779158,0.949161 -1.175819,2.085812 -1.189984,3.409956 0.0079,1.383319 0.397077,2.561636 1.167485,3.534955 0.770404,0.97332 1.874555,1.481647 3.312457,1.52498 0.673736,-0.0079 1.281227,-0.172081 1.822476,-0.492494 0.541236,-0.320412 0.99373,-0.749573 1.357483,-1.287483 l 0.04,0 0,1.459981 1.799976,0 z"
     style="font-size:20px;fill:#29292a"
     id="path3029" /></g>
<g
   style="font-size:164.12236023px;font-style:normal;font-variant:normal;font-weight:normal;font-stretch:normal;line-height:125%;letter-spacing:0px;word-spacing:0px;fill:#000000;fill-opacity:1;stroke:none;font-family:Futura Std Medium;-inkscape-font-specification:Futura Std Medium"
   id="text3343-1"><path
     d="m 27.509026,62.251177 1.960326,4.308157 2.302242,0 -8.206013,-17.916461 -8.206012,17.916461 2.302242,0 1.960325,-4.308157 z m -0.888984,-1.960325 -6.108921,0 3.05446,-6.952316 z"
     style="font-size:22.7947731px;fill:#000000"
     id="path3032" /><path
     d="m 37.587242,65.100487 c -1.087967,-0.03609 -1.920915,-0.431193 -2.498846,-1.185313 -0.577938,-0.754114 -0.869517,-1.650696 -0.874737,-2.689748 0.0081,-1.02717 0.305348,-1.913305 0.891834,-2.658407 0.586479,-0.745086 1.413727,-1.135441 2.481749,-1.171066 1.111698,0.02993 1.96554,0.408885 2.561529,1.136875 0.595971,0.728006 0.897048,1.625537 0.903232,2.692598 -0.0048,1.078943 -0.302987,1.986922 -0.894684,2.72394 -0.591715,0.737023 -1.448406,1.12073 -2.570077,1.151121 z m 5.402291,-9.20897 -2.051503,0 0,1.77797 -0.04559,0 c -0.424556,-0.645834 -0.948828,-1.154911 -1.572819,-1.52723 -0.624006,-0.372299 -1.330634,-0.562253 -2.119887,-0.569862 -1.566174,0.05035 -2.793276,0.61641 -3.681308,1.698188 -0.888037,1.081796 -1.340127,2.377281 -1.356272,3.886459 0.009,1.576622 0.452565,2.919596 1.330628,4.028924 0.878059,1.109332 2.136503,1.688691 3.775336,1.738079 0.767883,-0.009 1.460264,-0.196127 2.077147,-0.561314 0.616867,-0.365186 1.132591,-0.854317 1.547175,-1.467394 l 0.04559,0 0,1.663997 2.051503,0 z"
     style="font-size:22.7947731px;fill:#000000"
     id="path3034" /></g>
<g
   style="font-size:164.12236023px;font-style:normal;font-variant:normal;font-weight:normal;font-stretch:normal;line-height:125%;letter-spacing:0px;word-spacing:0px;fill:#000000;fill-opacity:1;stroke:none;font-family:Futura Std Medium;-inkscape-font-specification:Futura Std Medium"
   id="text3343-1-4"><path
     d="M 70.215764,66.924045 67.54881,64.30268 c 0.850028,-0.809676 1.509168,-1.760395 1.977421,-2.852159 0.468219,-1.091755 0.705661,-2.253322 0.712328,-3.484706 -0.06745,-2.527327 -0.952637,-4.635814 -2.655557,-6.325468 -1.702952,-1.689625 -3.819037,-2.567211 -6.348263,-2.632763 -2.529244,0.06555 -4.64533,0.943138 -6.348262,2.632763 -1.70294,1.689654 -2.588124,3.798141 -2.655557,6.325468 0.06458,2.607125 0.94407,4.738406 2.638461,6.393851 1.694385,1.65545 3.816169,2.510242 6.365358,2.564379 0.833888,-0.0024 1.679183,-0.134392 2.535886,-0.396054 0.85668,-0.261661 1.644988,-0.638719 2.364928,-1.131176 l 1.481641,1.52723 z m -6.838343,-6.838343 -2.666955,0 3.943445,3.852267 c -0.535682,0.330047 -1.105544,0.576037 -1.709586,0.73797 -0.604064,0.161938 -1.173925,0.242669 -1.709586,0.242192 -1.91142,-0.04464 -3.519379,-0.713274 -4.823882,-2.005914 -1.304512,-1.292632 -1.983597,-2.941431 -2.037256,-4.946402 0.03371,-1.945118 0.672909,-3.576822 1.917586,-4.895115 1.244668,-1.318266 2.892517,-2.003999 4.943552,-2.057201 2.051017,0.0532 3.698866,0.738936 4.943553,2.057201 1.244658,1.318293 1.883853,2.949997 1.917586,4.895115 -9.66e-4,0.844353 -0.170025,1.702944 -0.507178,2.575776 -0.337184,0.872844 -0.836762,1.617463 -1.498736,2.233859 z"
     style="font-size:22.7947731px;fill:#000000"
     id="path3037" /><path
     d="m 76.692488,65.100487 c -1.087966,-0.03609 -1.920914,-0.431193 -2.498845,-1.185313 -0.577938,-0.754114 -0.869517,-1.650696 -0.874738,-2.689748 0.0081,-1.02717 0.305349,-1.913305 0.891834,-2.658407 0.586479,-0.745086 1.413728,-1.135441 2.481749,-1.171066 1.111698,0.02993 1.965541,0.408885 2.561529,1.136875 0.595972,0.728006 0.897049,1.625537 0.903232,2.692598 -0.0048,1.078943 -0.302986,1.986922 -0.894684,2.72394 -0.591714,0.737023 -1.448406,1.12073 -2.570077,1.151121 z m 5.402292,-9.20897 -2.051503,0 0,1.77797 -0.04559,0 c -0.424082,-0.645834 -0.949304,-1.154911 -1.575669,-1.52723 -0.626381,-0.372299 -1.339657,-0.562253 -2.139831,-0.569862 -1.555253,0.05035 -2.775707,0.61641 -3.661364,1.698188 -0.885662,1.081796 -1.336802,2.377281 -1.353422,3.886459 0.0076,1.576622 0.44829,2.919596 1.32208,4.028924 0.873785,1.109332 2.135079,1.688691 3.783883,1.738079 0.757911,-0.009 1.447443,-0.196127 2.068599,-0.561314 0.621142,-0.365186 1.139715,-0.854317 1.555724,-1.467394 l 0.04559,0 0,7.772917 2.051503,0 z"
     style="font-size:22.7947731px;fill:#000000"
     id="path3039" /></g>
<g
   style="font-size:164.12236023px;font-style:normal;font-variant:normal;font-weight:normal;font-stretch:normal;line-height:125%;letter-spacing:0px;word-spacing:0px;fill:#000000;fill-opacity:1;stroke:none;font-family:Futura Std Medium;-inkscape-font-specification:Futura Std Medium"
   id="text3343-1-9"><path
     d="m 96.601689,59.447452 c 1.258911,-0.176174 2.257118,-0.707095 2.994624,-1.592764 0.737487,-0.885651 1.114547,-1.95794 1.131177,-3.216871 -0.004,-0.836259 -0.20089,-1.619818 -0.58981,-2.35068 -0.388938,-0.730833 -0.944553,-1.314941 -1.666844,-1.752326 -0.691915,-0.372294 -1.427986,-0.602138 -2.208215,-0.689534 -0.780242,-0.08736 -1.556203,-0.123452 -2.327886,-0.108273 l -2.598571,0 0,17.187038 2.142681,0 0,-7.271439 0.888985,0 5.060374,7.271439 2.598576,0 z m -3.122844,-7.795712 0.569862,0 c 1.122147,-0.03987 2.165943,0.136783 3.131391,0.529972 0.965433,0.393219 1.479258,1.242313 1.541477,2.547283 -0.0532,1.32779 -0.539477,2.193979 -1.458846,2.598571 -0.919384,0.404611 -1.952733,0.586967 -3.100049,0.547067 l -0.683835,0 z"
     style="font-size:22.7947731px;fill:#000000"
     id="path3042" /><path
     d="m 105.67334,56.256225 -2.0515,0 0,10.667817 2.0515,0 0,-5.242731 c -0.0347,-0.915572 0.10304,-1.762766 0.41315,-2.541584 0.31009,-0.778803 1.00058,-1.192902 2.07145,-1.242299 0.23886,-0.0019 0.46205,0.0304 0.66958,0.09688 0.20752,0.06649 0.40222,0.178566 0.58411,0.336219 l 0.93458,-1.869147 c -0.25265,-0.161451 -0.52238,-0.28872 -0.80921,-0.381808 -0.28684,-0.09307 -0.57936,-0.140555 -0.87758,-0.142465 -0.68859,0.0071 -1.28315,0.192339 -1.78367,0.555615 -0.50054,0.363297 -0.87854,0.861926 -1.13403,1.495888 l -0.0684,0 z"
     style="font-size:22.7947731px;fill:#000000"
     id="path3044" /></g>
<g
   transform="translate(0.76711303,-6)"
   id="g4227"><g
   style="font-size:164.12236023px;font-style:normal;font-variant:normal;font-weight:normal;font-stretch:normal;line-height:125%;letter-spacing:0px;word-spacing:0px;fill:#000000;fill-opacity:1;stroke:none;font-family:Futura Std Medium;-inkscape-font-specification:Futura Std Medium"
   id="text3343-1-8"><path
     d="m 25.488648,97.762206 1.32208,3.624324 3.578733,0 -6.519221,-17.642929 -2.598571,0 -6.701577,17.642929 3.533145,0 1.413258,-3.624324 z m -0.934573,-2.735338 -4.080212,0 1.891942,-6.245687 0.04559,0 z"
     style="font-size:22.7947731px;font-weight:600;fill:#000000;-inkscape-font-specification:'Futura Std Medium, Semi-Bold'"
     id="path3079" /><path
     d="m 41.895886,90.194439 -3.145638,0 0,1.048546 c -0.396538,-0.457779 -0.868573,-0.807294 -1.416108,-1.048546 -0.547548,-0.241231 -1.11646,-0.362801 -1.706736,-0.364712 -1.618887,0.0608 -2.871632,0.674348 -3.75824,1.840654 -0.886611,1.166326 -1.335852,2.520697 -1.347723,4.063116 0.0095,1.577097 0.457788,2.959011 1.344874,4.145746 0.887082,1.186737 2.155974,1.810737 3.806678,1.871997 0.592175,-0.002 1.157288,-0.123 1.695339,-0.36186 0.538037,-0.23887 0.983479,-0.58174 1.336327,-1.0286 l 0.04559,0 0,1.02575 3.145638,0 z m -5.49347,8.730285 c -0.828204,-0.03704 -1.474047,-0.373257 -1.93753,-1.008656 -0.463492,-0.635392 -0.699035,-1.347719 -0.706629,-2.136982 0.0076,-0.788303 0.243137,-1.496831 0.706629,-2.125586 0.463483,-0.628739 1.109326,-0.961158 1.93753,-0.997258 0.829142,0.0361 1.478784,0.36852 1.948928,0.997259 0.470127,0.628755 0.709469,1.337283 0.718027,2.125585 -0.0086,0.789264 -0.247899,1.501591 -0.718027,2.136982 -0.470144,0.635399 -1.119786,0.971618 -1.948928,1.008656 z"
     style="font-size:22.7947731px;font-weight:600;fill:#000000;-inkscape-font-specification:'Futura Std Medium, Semi-Bold'"
     id="path3081" /></g>
<g
   style="font-size:164.12236023px;font-style:normal;font-variant:normal;font-weight:normal;font-stretch:normal;line-height:125%;letter-spacing:0px;word-spacing:0px;fill:#000000;fill-opacity:1;stroke:none;font-family:Futura Std Medium;-inkscape-font-specification:Futura Std Medium"
   id="text3343-1-4-2"><path
     d="m 68.765248,101.77403 -2.347831,-2.780922 c 0.662923,-0.861914 1.166301,-1.82213 1.510134,-2.880653 0.343799,-1.058512 0.516657,-2.172591 0.518575,-3.34224 -0.01212,-1.625575 -0.375422,-3.11819 -1.089914,-4.47785 -0.714524,-1.359634 -1.707631,-2.452079 -2.979323,-3.27734 -1.271719,-0.825227 -2.749419,-1.249035 -4.433104,-1.271424 -1.683703,0.02239 -3.161403,0.446198 -4.433104,1.271425 -1.27171,0.82526 -2.264817,1.917705 -2.979324,3.277339 -0.714509,1.359661 -1.077813,2.852276 -1.089913,4.47785 0.04084,2.532093 0.831048,4.659576 2.370626,6.382454 1.539572,1.722881 3.583475,2.619461 6.131715,2.689751 0.793048,0 1.554762,-0.0969 2.285146,-0.29063 0.730361,-0.19376 1.389501,-0.48438 1.977421,-0.87189 l 1.185313,1.43605 z m -6.382454,-7.271435 -3.464761,0.273534 2.826516,3.259611 c -0.236028,0.15339 -0.51621,0.285408 -0.840547,0.396053 -0.324356,0.110651 -0.644428,0.168587 -0.960217,0.173809 -1.645959,-0.05651 -2.895855,-0.638717 -3.749693,-1.746628 -0.853847,-1.107901 -1.283143,-2.402436 -1.287887,-3.883609 0.0062,-1.548116 0.438315,-2.925281 1.296436,-4.1315 0.858111,-1.206194 2.105158,-1.842539 3.741144,-1.909037 1.52627,0.06555 2.741974,0.6753 3.647116,1.829257 0.905118,1.153982 1.368605,2.458964 1.390464,3.914952 0.0024,0.608336 -0.08217,1.232334 -0.253589,1.871997 -0.171447,0.639676 -0.444031,1.200989 -0.817752,1.683942 z"
     style="font-size:22.7947731px;font-weight:600;fill:#000000;-inkscape-font-specification:'Futura Std Medium, Semi-Bold'"
     id="path3074" /><path
     d="m 75.062452,98.924724 c -0.828204,-0.03704 -1.474047,-0.373257 -1.93753,-1.008656 -0.463492,-0.635392 -0.699035,-1.347719 -0.706629,-2.136982 0.0076,-0.788303 0.243137,-1.496831 0.706629,-2.125586 0.463483,-0.628739 1.109326,-0.961158 1.93753,-0.997258 0.828193,0.0361 1.474036,0.36852 1.937531,0.997259 0.463479,0.628755 0.699022,1.337283 0.706629,2.125585 -0.0076,0.789264 -0.24315,1.501591 -0.706629,2.136982 -0.463495,0.635399 -1.109338,0.971618 -1.937531,1.008656 z m 5.516265,-8.730285 -3.191228,0 0,1.025751 -0.04559,0 c -0.36377,-0.446856 -0.81586,-0.789723 -1.356271,-1.028601 -0.540426,-0.238855 -1.106488,-0.359476 -1.698189,-0.361862 -1.618887,0.0608 -2.871632,0.674348 -3.75824,1.840654 -0.886611,1.166326 -1.335852,2.520697 -1.347723,4.063116 0.0095,1.577097 0.457788,2.959011 1.344874,4.145746 0.887082,1.186737 2.155974,1.810737 3.806678,1.871997 0.592651,-0.002 1.156813,-0.12347 1.69249,-0.36471 0.535663,-0.24124 0.974456,-0.59076 1.316381,-1.04855 l 0.04559,0 0,7.0207 3.191228,0 z"
     style="font-size:22.7947731px;font-weight:600;fill:#000000;-inkscape-font-specification:'Futura Std Medium, Semi-Bold'"
     id="path3076" /></g>
<g
   style="font-size:164.12236023px;font-style:normal;font-variant:normal;font-weight:normal;font-stretch:normal;line-height:125%;letter-spacing:0px;word-spacing:0px;fill:#000000;fill-opacity:1;stroke:none;font-family:Futura Std Medium;-inkscape-font-specification:Futura Std Medium"
   id="text3343-1-9-5"><path
     d="m 96.929146,94.502599 c 1.153486,-0.231261 2.026324,-0.800173 2.618516,-1.706737 0.592168,-0.906545 0.889448,-1.925648 0.891838,-3.057309 -0.0271,-1.82117 -0.559905,-3.142299 -1.598467,-3.96339 -1.038583,-0.82106 -2.420497,-1.224712 -4.145746,-1.210957 l -4.536101,0 0,17.187034 3.350788,0 0,-6.929518 0.04559,0 4.17139,6.929518 4.057417,0 z m -3.419172,-7.203055 0.45589,0 c 0.907974,-0.02705 1.650693,0.129658 2.22816,0.470136 0.577452,0.340506 0.87568,1.027189 0.894683,2.060051 -0.01568,1.027662 -0.309157,1.730491 -0.880437,2.108489 -0.571293,0.378018 -1.32636,0.556574 -2.265201,0.53567 l -0.433095,0 z"
     style="font-size:22.7947731px;font-weight:600;fill:#000000;-inkscape-font-specification:'Futura Std Medium, Semi-Bold'"
     id="path3069" /><path
     d="m 105.99225,90.559154 -3.19122,0 0,11.192086 3.19122,0 0,-5.037576 c -0.0366,-0.911774 0.0936,-1.743771 0.39036,-2.495996 0.2968,-0.75221 0.97968,-1.151113 2.04865,-1.19671 0.24029,9e-6 0.47203,0.0342 0.69523,0.102575 0.22319,0.06839 0.43214,0.170967 0.62685,0.307726 l 0.38751,-2.963283 c -0.20611,-0.08119 -0.42076,-0.146728 -0.64395,-0.196603 -0.2232,-0.04985 -0.44925,-0.0755 -0.67813,-0.07693 -0.59456,0.0024 -1.12643,0.134404 -1.59562,0.396054 -0.46919,0.261673 -0.86429,0.638731 -1.18531,1.131177 l -0.0456,0 z"
     style="font-size:22.7947731px;font-weight:600;fill:#000000;-inkscape-font-specification:'Futura Std Medium, Semi-Bold'"
     id="path3071" /></g>
</g><g
   style="font-size:117.9814682px;font-style:normal;font-variant:normal;font-weight:normal;font-stretch:normal;line-height:125%;letter-spacing:0px;word-spacing:0px;fill:#ffffff;fill-opacity:1;stroke:none;font-family:Futura Std Medium;-inkscape-font-specification:Futura Std Medium"
   id="text4239"><path
     d="m 155.99561,94.45177 c -5.63111,-0.186792 -9.94229,-2.231775 -12.93355,-6.134957 -2.9913,-3.903154 -4.50046,-8.543694 -4.52748,-13.921634 0.0418,-5.316439 1.58043,-9.902906 4.61597,-13.759414 3.0355,-3.856426 7.31719,-5.876829 12.84506,-6.061217 5.75395,0.154897 10.17327,2.116312 13.258,5.88425 3.08463,3.768022 4.64295,8.413478 4.67496,13.936381 -0.0246,5.584406 -1.5682,10.283936 -4.63072,14.098602 -3.0626,3.814694 -7.49668,5.800688 -13.30224,5.957989 z m 27.96125,-47.663899 -10.61819,0 0,9.202436 -0.23596,0 c -2.19743,-3.342716 -4.91096,-5.977599 -8.14062,-7.904657 -3.22974,-1.92695 -6.88711,-2.910115 -10.97214,-2.949498 -8.10622,0.260594 -14.45747,3.190426 -19.05376,8.789504 -4.59631,5.599175 -6.93624,12.304362 -7.0198,20.115583 0.0467,8.160301 2.34238,15.111279 6.88707,20.852956 4.54467,5.741695 11.05815,8.740345 19.54043,8.995975 3.97442,-0.0467 7.55806,-1.01512 10.75093,-2.90526 3.19278,-1.890135 5.86208,-4.421785 8.00789,-7.594959 l 0.23596,0 0,8.612539 10.61819,0 z"
     style=""
     id="path3066" /></g>
<g
   style="font-size:25.30565071px;font-style:normal;font-variant:normal;font-weight:normal;font-stretch:normal;line-height:125%;letter-spacing:0px;word-spacing:0px;fill:#ff2a2a;fill-opacity:1;stroke:none;font-family:Futura Std Medium;-inkscape-font-specification:Futura Std Medium"
   id="text4243"><path
     d="m 86.463995,139.53405 9.666634,-16.90395 -12.171861,0 0,2.17625 8.300147,0 -9.666635,16.90396 13.538349,0 0,-2.17626 z"
     style=""
     id="path3047" /><path
     d="m 97.819544,129.86742 0,6.80713 c -0.0095,1.6438 0.389068,2.95546 1.195677,3.93498 0.806603,0.97953 2.078199,1.48142 3.814779,1.50567 1.73657,-0.0242 3.00816,-0.52614 3.81478,-1.50567 0.80659,-0.97953 1.20515,-2.29118 1.19567,-3.93498 l 0,-6.80713 -2.27748,0 0,6.55408 c 0.0269,0.979 -0.14709,1.81091 -0.52192,2.49574 -0.37484,0.68482 -1.11186,1.04226 -2.21105,1.07231 -1.09921,-0.0301 -1.83622,-0.38749 -2.21105,-1.07231 -0.37484,-0.68483 -0.54882,-1.51674 -0.52193,-2.49574 l 0,-6.55408 z"
     style=""
     id="path3049" /><path
     d="m 116.74098,119.74529 c -0.50612,-0.20242 -1.03753,-0.30364 -1.59424,-0.30366 -1.44346,0.0327 -2.44724,0.48609 -3.01133,1.36016 -0.5641,0.87411 -0.83402,1.97278 -0.80977,3.29602 l 0,5.76961 -1.03752,0 0,2.12565 1.03752,0 0,9.71724 2.27748,0 0,-9.71724 3.13786,0 0,-2.12565 -3.13786,0 0,-5.08637 c -0.0337,-0.64316 0.0337,-1.32429 0.20244,-2.04341 0.1687,-0.71907 0.64106,-1.10919 1.4171,-1.17037 0.24514,0.007 0.50135,0.0622 0.76865,0.16449 0.26728,0.10229 0.51717,0.20773 0.74967,0.31631 z"
     style=""
     id="path3051" /><path
     d="m 117.73786,129.86742 0,6.80713 c -0.009,1.6438 0.38907,2.95546 1.19567,3.93498 0.80661,0.97953 2.0782,1.48142 3.81478,1.50567 1.73657,-0.0242 3.00816,-0.52614 3.81478,-1.50567 0.8066,-0.97953 1.20515,-2.29118 1.19568,-3.93498 l 0,-6.80713 -2.27748,0 0,6.55408 c 0.0269,0.979 -0.1471,1.81091 -0.52193,2.49574 -0.37484,0.68482 -1.11186,1.04226 -2.21105,1.07231 -1.0992,-0.0301 -1.83622,-0.38749 -2.21105,-1.07231 -0.37484,-0.68483 -0.54881,-1.51674 -0.52192,-2.49574 l 0,-6.55408 z m 2.35339,-5.719 c -0.44073,0.0111 -0.80555,0.15975 -1.09445,0.446 -0.28891,0.28629 -0.43863,0.64372 -0.44917,1.07232 0.0105,0.44075 0.16026,0.80556 0.44917,1.09445 0.2889,0.28892 0.65372,0.43864 1.09445,0.44917 0.42861,-0.0105 0.78604,-0.16025 1.07232,-0.44917 0.28626,-0.28889 0.43493,-0.6537 0.446,-1.09445 -0.0111,-0.4286 -0.15974,-0.78603 -0.446,-1.07232 -0.28627,-0.28625 -0.64371,-0.43492 -1.07232,-0.446 z m 5.33943,0 c -0.44075,0.0111 -0.80556,0.15975 -1.09446,0.446 -0.28891,0.28629 -0.43863,0.64372 -0.44917,1.07232 0.0105,0.44075 0.16026,0.80556 0.44917,1.09445 0.2889,0.28892 0.65371,0.43864 1.09446,0.44917 0.4286,-0.0105 0.78603,-0.16025 1.07231,-0.44917 0.28626,-0.28889 0.43492,-0.6537 0.44601,-1.09445 -0.0111,-0.4286 -0.15975,-0.78603 -0.44601,-1.07232 -0.28628,-0.28625 -0.64371,-0.43492 -1.07231,-0.446 z"
     style=""
     id="path3053" /><path
     d="m 130.78846,119.74529 0,21.96502 2.27748,0 0,-5.44064 c -0.0612,-1.13821 0.0611,-2.19576 0.36692,-3.17266 0.30577,-0.97688 1.16193,-1.49669 2.5685,-1.55944 1.12713,0.0148 1.85255,0.32687 2.17625,0.9363 0.32369,0.60944 0.46709,1.42765 0.43019,2.45461 l 0,6.78183 2.27748,0 0,-7.06018 c 0.0337,-1.47614 -0.24884,-2.6929 -0.84773,-3.6503 -0.5989,-0.95737 -1.71655,-1.45293 -3.35295,-1.48668 -0.73544,0.002 -1.42185,0.16871 -2.05922,0.49978 -0.63739,0.33109 -1.14033,0.81399 -1.50883,1.44873 l -0.0506,0 0,-11.71637 z"
     style=""
     id="path3055" /><path
     d="m 146.4637,129.86742 -2.27748,0 0,11.84289 2.27748,0 0,-5.82022 c -0.0385,-1.01643 0.11439,-1.95694 0.45865,-2.82155 0.34426,-0.86459 1.1108,-1.3243 2.29963,-1.37914 0.26517,-0.002 0.51295,0.0337 0.74334,0.10755 0.23038,0.0738 0.44653,0.19824 0.64845,0.37325 l 1.03752,-2.07503 c -0.28048,-0.17924 -0.57993,-0.32052 -0.89834,-0.42387 -0.31844,-0.10331 -0.64319,-0.15603 -0.97426,-0.15815 -0.76444,0.008 -1.42448,0.21352 -1.98014,0.61681 -0.55567,0.40332 -0.97531,0.95687 -1.25894,1.66066 l -0.0759,0 z"
     style=""
     id="path3057" /><path
     d="m 152.82968,129.86742 0,6.80713 c -0.009,1.6438 0.38907,2.95546 1.19567,3.93498 0.80661,0.97953 2.0782,1.48142 3.81478,1.50567 1.73657,-0.0242 3.00816,-0.52614 3.81478,-1.50567 0.8066,-0.97953 1.20515,-2.29118 1.19568,-3.93498 l 0,-6.80713 -2.27748,0 0,6.55408 c 0.0269,0.979 -0.1471,1.81091 -0.52193,2.49574 -0.37484,0.68482 -1.11186,1.04226 -2.21105,1.07231 -1.0992,-0.0301 -1.83622,-0.38749 -2.21105,-1.07231 -0.37484,-0.68483 -0.54881,-1.51674 -0.52192,-2.49574 l 0,-6.55408 z"
     style=""
     id="path3059" /><path
     d="m 168.15776,129.86742 -2.27748,0 0,11.84289 2.27748,0 0,-5.44064 c -0.0612,-1.13821 0.0611,-2.19576 0.36692,-3.17266 0.30577,-0.97688 1.16193,-1.49669 2.5685,-1.55944 1.12713,0.0148 1.85255,0.32687 2.17625,0.9363 0.32369,0.60944 0.46709,1.42765 0.43019,2.45461 l 0,6.78183 2.27748,0 0,-7.06018 c 0.0337,-1.47614 -0.24884,-2.6929 -0.84773,-3.6503 -0.5989,-0.95737 -1.71655,-1.45293 -3.35295,-1.48668 -0.73544,0.002 -1.42185,0.16871 -2.05922,0.49978 -0.63739,0.33109 -1.14033,0.81399 -1.50883,1.44873 l -0.0506,0 z"
     style=""
     id="path3061" /><path
     d="m 184.21257,140.09077 c -1.2078,-0.0401 -2.1325,-0.47869 -2.77409,-1.31588 -0.6416,-0.83718 -0.9653,-1.83252 -0.97109,-2.98602 0.009,-1.14032 0.33898,-2.12406 0.99007,-2.95124 0.65108,-0.82716 1.56945,-1.26051 2.75511,-1.30006 1.23416,0.0332 2.18205,0.45393 2.84369,1.2621 0.66162,0.8082 0.99586,1.8046 1.00272,2.9892 -0.005,1.19779 -0.33636,2.20578 -0.99323,3.02398 -0.65689,0.81821 -1.60795,1.24418 -2.85318,1.27792 z m 5.99737,-10.22335 -2.27748,0 0,2.02443 -0.0506,0 c -0.4708,-0.74123 -1.05387,-1.32114 -1.74923,-1.73975 -0.69538,-0.41858 -1.48723,-0.63156 -2.37554,-0.63895 -1.72657,0.0559 -3.08146,0.6843 -4.06467,1.88524 -0.98322,1.20096 -1.48405,2.63914 -1.5025,4.31456 0.008,1.75029 0.49767,3.24119 1.46771,4.47272 0.97003,1.23152 2.37026,1.8747 4.20068,1.92953 0.84139,-0.01 1.60688,-0.21773 2.29646,-0.62315 0.68956,-0.40541 1.26525,-0.94842 1.72709,-1.62903 l 0.0506,0 0,2.25218 c 0.0343,1.24417 -0.17979,2.27326 -0.64213,3.08725 -0.46235,0.81398 -1.37862,1.23574 -2.74879,1.26526 -1.05545,-0.006 -1.90528,-0.29734 -2.54951,-0.87303 -0.64423,-0.5757 -0.97531,-1.39812 -0.99323,-2.46727 l -2.27748,0 c 0.0548,1.68491 0.60311,2.99657 1.64484,3.93498 1.04174,0.9384 2.39979,1.41498 4.07416,1.42975 2.25533,-0.0374 3.79263,-0.69643 4.6119,-1.97698 0.81924,-1.28056 1.20515,-2.95809 1.15772,-5.0326 z"
     style=""
     id="path3063" /></g>
<g
   style="font-size:16px;font-style:normal;font-variant:normal;font-weight:normal;font-stretch:normal;line-height:125%;letter-spacing:0px;word-spacing:0px;fill:#000000;fill-opacity:1;stroke:none;font-family:Futura Std Medium;-inkscape-font-specification:Futura Std Medium"
   id="text4251"><path
     d="m 19.045948,178.13615 c -0.81139,-0.0269 -1.432589,-0.32158 -1.863602,-0.88399 -0.431017,-0.56241 -0.648473,-1.23106 -0.652366,-2.00597 0.006,-0.76605 0.227724,-1.42692 0.665117,-1.9826 0.437387,-0.55568 1.054336,-0.8468 1.850851,-0.87337 0.829087,0.0223 1.46587,0.30494 1.91035,0.84787 0.444466,0.54293 0.669005,1.2123 0.673616,2.0081 -0.0035,0.80466 -0.225962,1.48181 -0.667241,2.03147 -0.441292,0.54966 -1.0802,0.83582 -1.916725,0.85849 z m 4.028948,-6.86791 -1.529981,0 0,1.32598 -0.034,0 c -0.316628,-0.48165 -0.707622,-0.86131 -1.172985,-1.13898 -0.465374,-0.27766 -0.992367,-0.41932 -1.58098,-0.425 -1.168029,0.0376 -2.083183,0.45971 -2.745465,1.26649 -0.662284,0.80678 -0.999446,1.77294 -1.011486,2.89846 0.0067,1.17582 0.337515,2.17739 0.992362,3.00471 0.654843,0.82732 1.593372,1.2594 2.815589,1.29623 0.572675,-0.007 1.089043,-0.14627 1.549105,-0.41862 0.46005,-0.27235 0.844669,-0.63713 1.15386,-1.09436 l 0.034,0 0,1.24099 1.529981,0 z"
     style="font-size:17px"
     id="path3132" /><path
     d="m 33.830895,178.13615 c -0.811389,-0.0269 -1.432589,-0.32158 -1.863601,-0.88399 -0.431018,-0.56241 -0.648473,-1.23106 -0.652366,-2.00597 0.006,-0.76605 0.227724,-1.42692 0.665116,-1.9826 0.437387,-0.55568 1.054337,-0.8468 1.850851,-0.87337 0.829088,0.0223 1.465871,0.30494 1.91035,0.84787 0.444467,0.54293 0.669005,1.2123 0.673617,2.0081 -0.0035,0.80466 -0.225963,1.48181 -0.667242,2.03147 -0.441292,0.54966 -1.0802,0.83582 -1.916725,0.85849 z m -3.960949,1.08799 1.529981,0 0,-1.24099 0.034,0 c 0.310244,0.45723 0.696988,0.82201 1.160235,1.09436 0.46324,0.27235 0.977483,0.41189 1.54273,0.41862 1.229645,-0.0368 2.170299,-0.46891 2.821964,-1.29623 0.65165,-0.82732 0.980312,-1.82889 0.985987,-3.00471 -0.0124,-1.12552 -0.348858,-2.09168 -1.009362,-2.89846 -0.660519,-0.80678 -1.570715,-1.22894 -2.730589,-1.26649 -0.596768,0.006 -1.128719,0.14734 -1.595855,0.425 -0.467143,0.27767 -0.858846,0.65733 -1.17511,1.13898 l -0.034,0 0,-8.12589 -1.529981,0 z"
     style="font-size:17px"
     id="path3134" /><path
     d="m 50.213823,171.55724 c -0.310961,-0.17814 -0.64954,-0.3106 -1.015737,-0.39738 -0.366209,-0.0868 -0.730288,-0.12996 -1.092236,-0.12962 -1.252321,0.0245 -2.28364,0.43032 -3.09396,1.21761 -0.810324,0.78731 -1.229652,1.80942 -1.257984,3.06634 0.03117,1.21548 0.449077,2.20997 1.253734,2.98346 0.804654,0.77349 1.809056,1.17298 3.013211,1.19848 0.397365,0.001 0.77561,-0.0397 1.134736,-0.12325 0.359114,-0.0836 0.711859,-0.21816 1.058236,-0.40374 l 0,-1.95498 c -0.288295,0.32654 -0.612708,0.58296 -0.973238,0.76924 -0.360543,0.1863 -0.761454,0.28121 -1.202734,0.28475 -0.821306,-0.0156 -1.482172,-0.28191 -1.9826,-0.79899 -0.500433,-0.51707 -0.757555,-1.1914 -0.771365,-2.02297 0.017,-0.75578 0.271994,-1.40319 0.76499,-1.94223 0.492991,-0.53903 1.121982,-0.82094 1.886976,-0.84574 0.458281,0.001 0.876192,0.0924 1.253734,0.27413 0.37753,0.18169 0.718942,0.44731 1.024237,0.79686 z"
     style="font-size:17px"
     id="path3136" /><path
     d="m 60.217823,178.13615 c -0.81139,-0.0269 -1.432589,-0.32158 -1.863602,-0.88399 -0.431017,-0.56241 -0.648473,-1.23106 -0.652366,-2.00597 0.006,-0.76605 0.227724,-1.42692 0.665117,-1.9826 0.437387,-0.55568 1.054336,-0.8468 1.850851,-0.87337 0.829087,0.0223 1.46587,0.30494 1.91035,0.84787 0.444466,0.54293 0.669005,1.2123 0.673616,2.0081 -0.0035,0.80466 -0.225962,1.48181 -0.667241,2.03147 -0.441292,0.54966 -1.0802,0.83582 -1.916725,0.85849 z m 2.498967,1.08799 1.529981,0 0,-14.75581 -1.529981,0 0,8.12589 -0.034,0 c -0.316274,-0.48165 -0.707977,-0.86131 -1.17511,-1.13898 -0.467146,-0.27766 -0.999096,-0.41932 -1.595855,-0.425 -1.159884,0.0376 -2.07008,0.45971 -2.73059,1.26649 -0.660513,0.80678 -0.996966,1.77294 -1.009361,2.89846 0.0057,1.17582 0.334328,2.17739 0.985987,3.00471 0.651656,0.82732 1.59231,1.2594 2.821964,1.29623 0.565238,-0.007 1.07948,-0.14627 1.54273,-0.41862 0.463237,-0.27235 0.849982,-0.63713 1.160235,-1.09436 l 0.034,0 z"
     style="font-size:17px"
     id="path3138" /><path
     d="m 78.14773,175.50118 0,-0.23799 c 0.0032,-1.21017 -0.300691,-2.21103 -0.911613,-3.00259 -0.610937,-0.79154 -1.548049,-1.20166 -2.811339,-1.23036 -1.284549,0.0255 -2.251411,0.4335 -2.900588,1.22399 -0.64918,0.79049 -0.9743,1.81048 -0.975362,3.05996 0.01098,1.20061 0.358765,2.19085 1.043361,2.97071 0.684593,0.77986 1.640122,1.18361 2.866588,1.21123 0.783756,-0.005 1.498454,-0.19514 2.144098,-0.57161 0.64563,-0.37648 1.160581,-0.91126 1.544855,-1.60436 l -1.291983,-0.73099 c -0.278733,0.48095 -0.60102,0.85778 -0.966863,1.13049 -0.365855,0.2727 -0.83689,0.41153 -1.413107,0.41649 -0.738432,-0.0248 -1.318549,-0.29395 -1.740353,-0.80749 -0.421809,-0.51353 -0.640681,-1.12269 -0.656616,-1.82748 z m -5.983923,-1.15598 c 0.101642,-0.58118 0.353097,-1.05504 0.754365,-1.42161 0.401263,-0.36655 0.903464,-0.55567 1.506606,-0.56737 0.615174,0.009 1.110293,0.19126 1.485356,0.54825 0.375051,0.357 0.610923,0.83724 0.707616,1.44073 z"
     style="font-size:17px"
     id="path3140" /><path
     d="m 88.319613,164.46833 c -0.34,-0.13599 -0.696995,-0.20399 -1.070986,-0.204 -0.969699,0.022 -1.644023,0.32655 -2.022974,0.91374 -0.378955,0.58721 -0.560286,1.32528 -0.543993,2.21422 l 0,3.87595 -0.696991,0 0,1.42798 0.696991,0 0,6.52792 1.52998,0 0,-6.52792 2.107973,0 0,-1.42798 -2.107973,0 0,-3.41696 c -0.02267,-0.43206 0.02266,-0.88964 0.135998,-1.37273 0.113329,-0.48306 0.430658,-0.74514 0.951988,-0.78624 0.164681,0.005 0.336804,0.0418 0.516368,0.1105 0.179556,0.0687 0.347429,0.13955 0.503619,0.2125 z"
     style="font-size:17px"
     id="path3142" /><path
     d="m 97.388323,178.13615 c -0.811389,-0.0269 -1.432589,-0.32158 -1.863602,-0.88399 -0.431017,-0.56241 -0.648472,-1.23106 -0.652366,-2.00597 0.006,-0.76605 0.227724,-1.42692 0.665117,-1.9826 0.437387,-0.55568 1.054337,-0.8468 1.850851,-0.87337 0.829088,0.0223 1.46587,0.30494 1.91035,0.84787 0.444466,0.54293 0.669005,1.2123 0.673617,2.0081 -0.0035,0.80466 -0.225963,1.48181 -0.667242,2.03147 -0.441292,0.54966 -1.0802,0.83582 -1.916725,0.85849 z m 4.028947,-6.86791 -1.529979,0 0,1.35998 -0.034,0 c -0.316274,-0.49794 -0.707977,-0.88752 -1.17511,-1.16873 -0.467145,-0.2812 -0.999096,-0.42428 -1.595854,-0.42925 -1.159884,0.0376 -2.07008,0.45971 -2.730591,1.26649 -0.660513,0.80678 -0.996966,1.77294 -1.009361,2.89846 0.0057,1.17582 0.334328,2.17739 0.985987,3.00471 0.651656,0.82732 1.59231,1.2594 2.821964,1.29623 0.565238,-0.007 1.079481,-0.14627 1.54273,-0.41862 0.463238,-0.27235 0.849982,-0.63713 1.160235,-1.09436 l 0.034,0 0,1.51298 c 0.02301,0.83582 -0.120777,1.52715 -0.43137,2.07398 -0.310606,0.54682 -0.926139,0.83015 -1.846601,0.84999 -0.709037,-0.004 -1.279945,-0.19976 -1.712728,-0.5865 -0.432789,-0.38674 -0.655203,-0.93924 -0.667241,-1.65748 l -1.529981,0 c 0.03683,1.1319 0.40516,2.01306 1.104986,2.64347 0.699822,0.6304 1.612143,0.95057 2.736965,0.96049 1.515099,-0.0251 2.547839,-0.46785 3.098209,-1.32811 0.55036,-0.86026 0.80961,-1.98721 0.77774,-3.38083 z"
     style="font-size:17px"
     id="path3144" /><path
     d="m 108.31512,164.46833 0,14.75581 1.52998,0 0,-3.65496 c -0.0411,-0.76463 0.0411,-1.47508 0.24649,-2.13134 0.20541,-0.65626 0.78057,-1.00546 1.72548,-1.04762 0.7572,0.01 1.24452,0.21959 1.46198,0.629 0.21745,0.40941 0.31378,0.95907 0.289,1.64898 l 0,4.55594 1.52998,0 0,-4.74294 c 0.0227,-0.99165 -0.16717,-1.80906 -0.56949,-2.45222 -0.40234,-0.64315 -1.15316,-0.97606 -2.25247,-0.99874 -0.49406,0.001 -0.95518,0.11334 -1.38336,0.33575 -0.42819,0.22242 -0.76606,0.54683 -1.01361,0.97323 l -0.034,0 0,-7.87089 z"
     style="font-size:17px"
     id="path3146" /><path
     d="m 123.99759,171.26824 -1.52998,0 0,7.9559 1.52998,0 z m -0.76499,-4.70894 c -0.29679,0.007 -0.5447,0.11157 -0.74374,0.31237 -0.19904,0.20082 -0.30245,0.45369 -0.31024,0.75862 0.008,0.29609 0.1112,0.54117 0.31024,0.73524 0.19904,0.19409 0.44695,0.29467 0.74374,0.30174 0.29679,-0.007 0.5447,-0.10765 0.74374,-0.30174 0.19904,-0.19407 0.30245,-0.43915 0.31025,-0.73524 -0.008,-0.30493 -0.11121,-0.5578 -0.31025,-0.75862 -0.19904,-0.2008 -0.44695,-0.30492 -0.74374,-0.31237 z"
     style="font-size:17px"
     id="path3148" /><path
     d="m 133.22806,171.26824 -1.52998,0 0,12.51184 1.52998,0 z m -0.76499,-4.70894 c -0.29679,0.007 -0.5447,0.11157 -0.74374,0.31237 -0.19904,0.20082 -0.30245,0.45369 -0.31025,0.75862 0.008,0.29609 0.11121,0.54117 0.31025,0.73524 0.19904,0.19409 0.44695,0.29467 0.74374,0.30174 0.29679,-0.007 0.5447,-0.10765 0.74374,-0.30174 0.19904,-0.19407 0.30245,-0.43915 0.31025,-0.73524 -0.008,-0.30493 -0.11121,-0.5578 -0.31025,-0.75862 -0.19904,-0.2008 -0.44695,-0.30492 -0.74374,-0.31237 z"
     style="font-size:17px"
     id="path3150" /><path
     d="m 142.22053,164.46833 -1.52998,0 0,14.75581 1.52998,0 0,-3.09396 0.527,-0.527 2.83896,3.62096 1.98897,0 -3.73995,-4.65794 3.39996,-3.29796 -2.02298,0 -2.99196,2.99196 z"
     style="font-size:17px"
     id="path3152" /><path
     d="m 154.96974,164.46833 -1.52998,0 0,14.75581 1.52998,0 z"
     style="font-size:17px"
     id="path3154" /><path
     d="m 163.54996,171.26824 -1.52998,0 0,7.9559 1.52998,0 0,-3.90995 c -0.0283,-0.66476 0.0623,-1.30721 0.27199,-1.92735 0.20966,-0.62014 0.70832,-0.95234 1.49598,-0.99662 0.67822,0.0443 1.09826,0.35099 1.26011,0.92012 0.16185,0.56914 0.22914,1.13509 0.20188,1.69785 l 0,4.21595 1.52998,0 0,-3.90995 c -0.0291,-0.65732 0.0588,-1.29765 0.26349,-1.92098 0.2047,-0.62332 0.70053,-0.95765 1.48748,-1.00299 0.64917,0.0333 1.06354,0.29397 1.24311,0.78199 0.17955,0.48805 0.25818,1.0037 0.23587,1.54698 l 0,4.50495 1.52998,0 0,-4.75994 c 0.0209,-0.93144 -0.1569,-1.72902 -0.53336,-2.39272 -0.37649,-0.66369 -1.07702,-1.01077 -2.1016,-1.04124 -0.51,0.006 -0.98175,0.13459 -1.41523,0.38675 -0.43351,0.25217 -0.77775,0.59358 -1.03274,1.02423 -0.25394,-0.44552 -0.57056,-0.79119 -0.94986,-1.03698 -0.37932,-0.24578 -0.82769,-0.37045 -1.34511,-0.374 -0.43952,0.008 -0.84397,0.12786 -1.21336,0.35912 -0.36939,0.23128 -0.6676,0.52523 -0.89461,0.88187 l -0.034,0 z"
     style="font-size:17px"
     id="path3156" /></g>
<g
   style="font-size:16px;font-style:normal;font-variant:normal;font-weight:normal;font-stretch:normal;line-height:125%;letter-spacing:0px;word-spacing:0px;fill:#000000;fill-opacity:1;stroke:none;font-family:Futura Std Medium;-inkscape-font-specification:Futura Std Medium"
   id="text4291"><path
     d="m 16.52998,191.30272 -1.52998,0 0,7.9559 1.52998,0 0,-3.65495 c -0.04108,-0.76463 0.04108,-1.47508 0.246497,-2.13135 0.20541,-0.65626 0.780569,-1.00546 1.725478,-1.04761 0.757193,0.01 1.24452,0.21959 1.461981,0.62899 0.217449,0.40942 0.313781,0.95908 0.288996,1.64898 l 0,4.55594 1.529981,0 0,-4.74294 c 0.02266,-0.99165 -0.167173,-1.80905 -0.569493,-2.45222 -0.402336,-0.64315 -1.153158,-0.97606 -2.252471,-0.99873 -0.494061,0.001 -0.95518,0.11334 -1.383358,0.33574 -0.428185,0.22242 -0.766055,0.54684 -1.013611,0.97324 l -0.034,0 z"
     style="font-size:17px"
     id="path3105" /><path
     d="m 32.348454,191.06473 c -1.218321,0.0266 -2.22414,0.43244 -3.017461,1.21761 -0.793324,0.78518 -1.204152,1.79029 -1.232484,3.01533 0.02833,1.22505 0.43916,2.23016 1.232484,3.01534 0.793321,0.78518 1.79914,1.19105 3.017461,1.21761 1.218312,-0.0266 2.224131,-0.43243 3.017461,-1.21761 0.793315,-0.78518 1.204143,-1.79029 1.232485,-3.01534 -0.02834,-1.22504 -0.43917,-2.23015 -1.232485,-3.01533 -0.79333,-0.78517 -1.799149,-1.19104 -3.017461,-1.21761 z m 0,1.46198 c 0.775256,0.0209 1.417705,0.2936 1.92735,0.81811 0.509632,0.52452 0.773837,1.17547 0.792615,1.95285 -0.01878,0.76995 -0.282982,1.41878 -0.792615,1.94648 -0.509645,0.5277 -1.152094,0.80253 -1.92735,0.82449 -0.775265,-0.022 -1.417714,-0.29679 -1.92735,-0.82449 -0.509642,-0.5277 -0.773846,-1.17653 -0.792615,-1.94648 0.01877,-0.77738 0.282974,-1.42833 0.792616,-1.95285 0.509636,-0.52451 1.152085,-0.79721 1.927349,-0.81811 z"
     style="font-size:17px"
     id="path3107" /><path
     d="m 46.732575,198.17064 c -0.811389,-0.0269 -1.432589,-0.32158 -1.863601,-0.88399 -0.431018,-0.56241 -0.648473,-1.23107 -0.652366,-2.00598 0.006,-0.76605 0.227724,-1.42691 0.665116,-1.9826 0.437387,-0.55567 1.054337,-0.84679 1.850851,-0.87336 0.829088,0.0223 1.465871,0.30494 1.91035,0.84786 0.444467,0.54294 0.669005,1.2123 0.673617,2.0081 -0.0035,0.80466 -0.225963,1.48182 -0.667242,2.03148 -0.441292,0.54966 -1.0802,0.83582 -1.916725,0.85849 z m -2.430968,-6.86792 -1.529981,0 0,12.51184 1.529981,0 0,-5.79692 0.034,0 c 0.310244,0.45722 0.696988,0.82201 1.160235,1.09436 0.46324,0.27235 0.977483,0.41189 1.54273,0.41862 1.229645,-0.0368 2.170298,-0.46891 2.821964,-1.29624 0.65165,-0.82732 0.980312,-1.82889 0.985987,-3.00471 -0.0124,-1.12552 -0.348858,-2.09167 -1.009362,-2.89846 -0.660519,-0.80677 -1.570715,-1.22893 -2.730589,-1.26648 -0.596768,0.006 -1.128719,0.14734 -1.595855,0.42499 -0.467143,0.27767 -0.858846,0.65733 -1.17511,1.13899 l -0.034,0 z"
     style="font-size:17px"
     id="path3109" /><path
     d="m 60.701534,198.17064 c -0.811389,-0.0269 -1.432589,-0.32158 -1.863602,-0.88399 -0.431017,-0.56241 -0.648472,-1.23107 -0.652366,-2.00598 0.006,-0.76605 0.227724,-1.42691 0.665117,-1.9826 0.437387,-0.55567 1.054337,-0.84679 1.850851,-0.87336 0.829088,0.0223 1.46587,0.30494 1.91035,0.84786 0.444466,0.54294 0.669005,1.2123 0.673617,2.0081 -0.0035,0.80466 -0.225963,1.48182 -0.667242,2.03148 -0.441292,0.54966 -1.0802,0.83582 -1.916725,0.85849 z m 4.028948,-6.86792 -1.52998,0 0,1.32599 -0.034,0 c -0.316274,-0.48166 -0.707977,-0.86132 -1.17511,-1.13899 -0.467145,-0.27765 -0.999096,-0.41932 -1.595854,-0.42499 -1.159884,0.0376 -2.07008,0.45971 -2.73059,1.26648 -0.660514,0.80679 -0.996967,1.77294 -1.009362,2.89846 0.0057,1.17582 0.334328,2.17739 0.985987,3.00471 0.651656,0.82733 1.59231,1.2594 2.821964,1.29624 0.565238,-0.007 1.079481,-0.14627 1.54273,-0.41862 0.463238,-0.27235 0.849982,-0.63714 1.160235,-1.09436 l 0.034,0 0,5.79692 1.52998,0 z"
     style="font-size:17px"
     id="path3111" /><path
     d="m 73.27651,191.30272 -1.52998,0 0,7.9559 1.52998,0 0,-3.90995 c -0.02586,-0.68282 0.07685,-1.31464 0.308121,-1.89547 0.231265,-0.58082 0.746216,-0.88965 1.544855,-0.92649 0.178139,-0.001 0.344595,0.0227 0.499368,0.0722 0.154764,0.0496 0.299971,0.13317 0.43562,0.25074 l 0.696991,-1.39398 c -0.18842,-0.12041 -0.389584,-0.21532 -0.603492,-0.28474 -0.213919,-0.0694 -0.432083,-0.10483 -0.654492,-0.10625 -0.513539,0.005 -0.95695,0.14344 -1.330233,0.41437 -0.37329,0.27094 -0.655202,0.64281 -0.845739,1.11561 l -0.051,0 z"
     style="font-size:17px"
     id="path3113" /><path
     d="m 86.972099,192.45871 c -0.216044,-0.43738 -0.510707,-0.77809 -0.883989,-1.02211 -0.373291,-0.24401 -0.803951,-0.36797 -1.291983,-0.37187 -0.662994,0.0156 -1.215487,0.23942 -1.657479,0.67149 -0.441996,0.43208 -0.671492,0.97891 -0.688491,1.64048 0.0085,0.52983 0.152997,0.94066 0.433494,1.23248 0.280495,0.29183 0.64599,0.54966 1.096487,0.77349 l 1.49598,0.79899 c 0.179556,0.11369 0.317679,0.23481 0.41437,0.36337 0.09668,0.12856 0.145556,0.29644 0.146623,0.50362 -0.0099,0.34425 -0.130336,0.61624 -0.361246,0.81599 -0.230917,0.19975 -0.51283,0.30175 -0.845738,0.306 -0.359832,-0.005 -0.651662,-0.10094 -0.875489,-0.28688 -0.223833,-0.18593 -0.413664,-0.4303 -0.569493,-0.73311 l -1.308983,0.59499 c 0.228434,0.56524 0.596053,1.00299 1.102861,1.31323 0.506804,0.31025 1.057171,0.4675 1.651104,0.47175 0.76109,-0.0152 1.402123,-0.26527 1.9231,-0.75012 0.520966,-0.48484 0.792254,-1.11313 0.813864,-1.88485 -0.01807,-0.61801 -0.207191,-1.09896 -0.567367,-1.44285 -0.360188,-0.34389 -0.783058,-0.6166 -1.268609,-0.81812 -0.486269,-0.20187 -0.911971,-0.40586 -1.277109,-0.61199 -0.365143,-0.20612 -0.557099,-0.47811 -0.575867,-0.81599 0.0081,-0.22595 0.09385,-0.41153 0.257122,-0.55674 0.163266,-0.1452 0.355221,-0.22029 0.575867,-0.22525 0.224181,0.005 0.426053,0.0719 0.605617,0.20187 0.179556,0.12999 0.317679,0.29502 0.41437,0.49512 z"
     style="font-size:17px"
     id="path3115" /><path
     d="m 95.741212,192.73071 1.49598,0 0,-1.42799 -1.49598,0 0,-3.04296 -1.529981,0 0,3.04296 -0.832989,0 0,1.42799 0.832989,0 0,6.52791 1.529981,0 z"
     style="font-size:17px"
     id="path3117" /><path
     d="m 102.92028,191.30272 0,4.57294 c -0.006,1.10428 0.26137,1.98544 0.80324,2.64347 0.54187,0.65803 1.39611,0.9952 2.56272,1.01149 1.1666,-0.0163 2.02084,-0.35346 2.56272,-1.01149 0.54186,-0.65803 0.8096,-1.53919 0.80324,-2.64347 l 0,-4.57294 -1.52998,0 0,4.40295 c 0.0181,0.65768 -0.0988,1.21655 -0.35063,1.6766 -0.25181,0.46006 -0.74693,0.70018 -1.48535,0.72037 -0.73843,-0.0202 -1.23355,-0.26031 -1.48536,-0.72037 -0.25181,-0.46005 -0.36868,-1.01892 -0.35062,-1.6766 l 0,-4.40295 z"
     style="font-size:17px"
     id="path3119" /><path
     d="m 117.04356,191.30272 -1.71698,0 3.99495,8.2279 4.01195,-8.2279 -1.71698,0 -2.29497,4.96394 z"
     style="font-size:17px"
     id="path3121" /><path
     d="m 129.49393,191.30272 -1.73398,0 4.04595,8.2279 2.34597,-5.32093 2.32897,5.32093 4.04595,-8.2279 -1.73398,0 -2.31197,5.06594 -2.32897,-5.50793 -2.34597,5.50793 z"
     style="font-size:17px"
     id="path3123" /><path
     d="m 148.47972,194.94068 -3.55295,4.31794 1.85297,0 2.53297,-3.22996 2.61797,3.22996 1.78497,0 -3.41695,-4.31794 2.92396,-3.63796 -1.85298,0 -2.05697,2.56697 -1.88698,-2.56697 -1.80197,0 z"
     style="font-size:17px"
     id="path3125" /><path
     d="m 161.79656,197.89864 -3.12796,5.91592 1.73398,0 6.44292,-12.51184 -1.71698,0 -2.49897,5.04894 -2.68596,-5.04894 -1.78498,0 z"
     style="font-size:17px"
     id="path3127" /><path
     d="m 174.53701,197.83064 5.38893,-6.52792 -7.44591,0 0,1.42799 4.47094,0 -5.38893,6.52791 8.1429,0 0,-1.42798 z"
     style="font-size:17px"
     id="path3129" /></g>
<g
   style="font-size:16px;font-style:normal;font-variant:normal;font-weight:normal;font-stretch:normal;line-height:125%;letter-spacing:0px;word-spacing:0px;fill:#ffffff;fill-opacity:1;stroke:none;font-family:Futura Std Medium;-inkscape-font-specification:Futura Std Medium"
   id="text4295"><path
     d="m 36.895694,219.25475 c 1.093437,-0.034 1.9684,-0.41743 2.624892,-1.15031 0.656477,-0.73288 1.129742,-1.6112 1.419797,-2.63497 0.290036,-1.02376 0.432121,-1.98897 0.426254,-2.89563 0.0062,-0.912 -0.134644,-1.87973 -0.422477,-2.90318 -0.28785,-1.02344 -0.759856,-1.90051 -1.416018,-2.63119 -0.656178,-0.73067 -1.533659,-1.11285 -2.632448,-1.14654 -1.098798,0.0337 -1.97628,0.41587 -2.632448,1.14654 -0.656172,0.73068 -1.128178,1.60775 -1.416019,2.63119 -0.287842,1.02345 -0.428667,1.99118 -0.422475,2.90318 -0.0059,0.90666 0.136207,1.87187 0.426253,2.89563 0.290045,1.02377 0.76331,1.90209 1.419797,2.63497 0.656482,0.73287 1.531446,1.11631 2.624892,1.15031 z m 0,-12.00184 c 0.758793,0.0327 1.352945,0.36015 1.782458,0.98221 0.4295,0.62207 0.731508,1.34236 0.906026,2.16086 0.174502,0.81851 0.258662,1.5388 0.252478,2.16086 0.0062,0.62165 -0.07798,1.339 -0.252478,2.15205 -0.174518,0.81305 -0.476526,1.52788 -0.906025,2.14449 -0.429514,0.61661 -1.023666,0.94107 -1.782459,0.97339 -0.758803,-0.0323 -1.352955,-0.35678 -1.782459,-0.97339 -0.429509,-0.61661 -0.731518,-1.33144 -0.906025,-2.14449 -0.174512,-0.81305 -0.258671,-1.5304 -0.252478,-2.15205 -0.0062,-0.62206 0.07797,-1.34234 0.252478,-2.16086 0.174508,-0.8185 0.476516,-1.53879 0.906026,-2.16086 0.429503,-0.62206 1.023655,-0.94946 1.782458,-0.98221 z"
     style="font-size:17px;fill:#ffffff"
     id="path3084" /><path
     d="m 51.042889,207.6269 0,11.35586 1.529981,0 0,-12.81784 -2.872963,0 -0.883989,1.46198 z"
     style="font-size:17px;fill:#ffffff"
     id="path3086" /><path
     d="m 65.343083,217.52078 4.215945,-5.15094 c 0.299967,-0.37009 0.533006,-0.78163 0.699116,-1.23461 0.166093,-0.45296 0.250384,-0.91975 0.252872,-1.40035 -0.03259,-1.13437 -0.434919,-2.05307 -1.206984,-2.75609 -0.772081,-0.703 -1.718401,-1.06496 -2.838964,-1.08586 -1.17228,0.0163 -2.108684,0.36621 -2.809214,1.04973 -0.700534,0.68355 -1.118445,1.60295 -1.253733,2.75822 l 1.597979,0 c 0.05808,-0.66298 0.315909,-1.21548 0.77349,-1.65748 0.457574,-0.44198 1.021399,-0.67148 1.691478,-0.68849 0.684944,0.0181 1.270019,0.25819 1.755227,0.72036 0.485195,0.46219 0.738775,1.03806 0.760741,1.72761 -0.01453,0.42712 -0.138485,0.83512 -0.37187,1.22398 -0.2334,0.38888 -0.489105,0.74587 -0.767116,1.07099 l -5.609927,6.88491 8.278893,0 0,-1.46198 z"
     style="font-size:17px;fill:#ffffff"
     id="path3088" /><path
     d="m 80.88426,212.86284 c 0.804296,-0.0506 1.452412,0.14415 1.944349,0.58436 0.491924,0.44023 0.744796,1.07277 0.758616,1.8976 -0.01276,0.71471 -0.242254,1.30828 -0.688491,1.78073 -0.446251,0.47246 -1.032743,0.71754 -1.759477,0.73524 -0.629351,-0.006 -1.176885,-0.18912 -1.642604,-0.54824 -0.465726,-0.35912 -0.745514,-0.85636 -0.839364,-1.49173 l -1.546981,0 c 0.08217,1.06532 0.495826,1.90114 1.240984,2.50747 0.745155,0.60632 1.634809,0.91515 2.668966,0.92648 1.17475,-0.0103 2.144445,-0.35097 2.909088,-1.02211 0.764627,-0.67113 1.16058,-1.61108 1.187859,-2.81984 0.0028,-0.69769 -0.14309,-1.32527 -0.437744,-1.88272 -0.294671,-0.55745 -0.755081,-0.98952 -1.381232,-1.29624 0.543985,-0.30953 0.95198,-0.71044 1.223984,-1.20273 0.271988,-0.49228 0.407986,-1.05469 0.407995,-1.68723 -0.02692,-1.08089 -0.389587,-1.9238 -1.087986,-2.52872 -0.698415,-0.60489 -1.57107,-0.9123 -2.617966,-0.92223 -1.059657,0.003 -1.911062,0.27767 -2.554218,0.82449 -0.64316,0.54683 -1.044071,1.34866 -1.202734,2.40546 l 1.58098,0 c 0.09066,-0.55992 0.321576,-1.00403 0.692741,-1.33235 0.371158,-0.3283 0.848568,-0.49617 1.432231,-0.50362 0.65059,0.0106 1.181124,0.21463 1.591604,0.61199 0.410467,0.39738 0.622256,0.92437 0.635367,1.58098 -0.01878,0.76252 -0.265982,1.29872 -0.741615,1.6086 -0.475646,0.3099 -1.067096,0.45936 -1.774352,0.44837 z"
     style="font-size:17px;fill:#ffffff"
     id="path3090" /><path
     d="m 98.924405,215.7188 0,-10.09787 -7.853899,11.49185 6.323919,0 0,1.86998 1.52998,0 0,-1.86998 1.461985,0 0,-1.39398 z m -1.52998,0 -3.637954,0 3.603954,-5.28693 0.034,0 z"
     style="font-size:17px;fill:#ffffff"
     id="path3092" /><path
     d="m 114.66958,207.6269 0,-1.46198 -5.13393,0 -1.97198,6.57892 0.306,0 c 0.28899,-0.35982 0.64599,-0.6389 1.07098,-0.83724 0.42499,-0.19833 0.86699,-0.29891 1.32599,-0.30175 0.84892,0.0237 1.56503,0.32478 2.14834,0.90312 0.5833,0.57835 0.88717,1.29163 0.91162,2.13984 -0.0206,0.88222 -0.31946,1.62101 -0.89674,2.21635 -0.57729,0.59535 -1.3097,0.90489 -2.19722,0.92861 -0.59217,-0.0113 -1.15883,-0.19266 -1.69998,-0.54399 -0.54116,-0.35133 -0.92082,-0.80465 -1.13899,-1.35998 l -1.18998,1.12198 c 0.39135,0.71081 0.93888,1.26117 1.6426,1.65111 0.70372,0.38993 1.4595,0.58755 2.26735,0.59286 1.35041,-0.0209 2.47027,-0.44234 3.35958,-1.26435 0.88929,-0.82201 1.35041,-1.91921 1.38336,-3.29159 -0.0163,-1.22079 -0.39172,-2.26415 -1.12624,-3.13008 -0.73454,-0.86592 -1.73044,-1.31854 -2.98771,-1.35786 l -0.90099,0.051 0.79899,-2.63497 z"
     style="font-size:17px;fill:#ffffff"
     id="path3094" /><path
     d="m 126.8788,205.89293 -4.36894,5.88192 c -0.38533,0.49902 -0.71116,1.02672 -0.97749,1.5831 -0.26633,0.5564 -0.40516,1.15635 -0.4165,1.79986 0.0397,1.15988 0.47458,2.12532 1.30474,2.89633 0.83015,0.77102 1.81755,1.17122 2.96221,1.20061 1.19529,-0.029 2.1919,-0.43845 2.98984,-1.22823 0.79791,-0.78978 1.21228,-1.78568 1.2431,-2.98771 -0.0227,-1.06709 -0.37683,-1.99287 -1.06248,-2.77734 -0.68567,-0.78446 -1.56682,-1.196 -2.64347,-1.23461 -0.22985,0.001 -0.45014,0.0287 -0.66086,0.0829 -0.21074,0.0542 -0.40977,0.12857 -0.59712,0.22313 l -0.034,-0.034 3.41695,-4.62394 z m -1.51298,11.93384 c -0.75295,-0.0202 -1.38903,-0.2858 -1.90823,-0.79686 -0.5192,-0.51106 -0.78978,-1.14642 -0.81174,-1.9061 0.0262,-0.72107 0.30529,-1.34015 0.83724,-1.85723 0.53195,-0.51707 1.15953,-0.78765 1.88273,-0.81174 0.70832,0.0149 1.33164,0.27413 1.86998,0.77774 0.53831,0.50363 0.82164,1.16237 0.84998,1.97623 -0.0241,0.73382 -0.29892,1.34865 -0.82449,1.84447 -0.52558,0.49583 -1.1574,0.75366 -1.89547,0.77349 z"
     style="font-size:17px;fill:#ffffff"
     id="path3096" /><path
     d="m 142.60697,207.6269 -6.62991,10.86286 1.24098,0.76499 7.9899,-13.08983 -9.23088,0 0,1.46198 z"
     style="font-size:17px;fill:#ffffff"
     id="path3098" /><path
     d="m 154.83319,212.99883 c 0.66866,0.0156 1.24382,0.24792 1.72548,0.697 0.48166,0.44908 0.73382,1.0214 0.75649,1.71697 -0.0248,0.66583 -0.28121,1.22966 -0.76924,1.69148 -0.48804,0.46183 -1.05895,0.70266 -1.71273,0.72249 -0.65378,-0.0198 -1.22469,-0.26066 -1.71272,-0.72249 -0.48804,-0.46182 -0.74445,-1.02565 -0.76924,-1.69148 0.0227,-0.69557 0.27482,-1.26789 0.75649,-1.71697 0.48165,-0.44908 1.05681,-0.68141 1.72547,-0.697 z m -4.01194,2.41397 c 0.0312,1.20132 0.42782,2.13914 1.18998,2.81347 0.76215,0.67432 1.70281,1.01715 2.82196,1.02848 1.11915,-0.0113 2.0598,-0.35416 2.82197,-1.02848 0.76215,-0.67433 1.15881,-1.61215 1.18998,-2.81347 -0.001,-0.70194 -0.17284,-1.32952 -0.51424,-1.88272 -0.34142,-0.5532 -0.84433,-0.95128 -1.50873,-1.19424 0.53123,-0.30138 0.94348,-0.69733 1.23673,-1.18786 0.29324,-0.4905 0.44199,-1.0522 0.44625,-1.6851 -0.0255,-1.06354 -0.38251,-1.9199 -1.07099,-2.56909 -0.6885,-0.64917 -1.55549,-0.98279 -2.60097,-1.00086 -1.04549,0.0181 -1.91247,0.35169 -2.60096,1.00086 -0.6885,0.64919 -1.04549,1.50555 -1.07099,2.56909 0.004,0.6329 0.153,1.1946 0.44625,1.6851 0.29324,0.49053 0.70548,0.88648 1.23673,1.18786 -0.66441,0.24296 -1.16732,0.64104 -1.50873,1.19424 -0.34141,0.5532 -0.51283,1.18078 -0.51424,1.88272 z m 4.01194,-8.15989 c 0.59641,0.0156 1.10357,0.23092 1.52148,0.64599 0.41791,0.41509 0.63607,0.93641 0.6545,1.56398 -0.0237,0.53692 -0.25253,1.02708 -0.68637,1.47048 -0.43385,0.44342 -0.93039,0.67858 -1.48961,0.70549 -0.55922,-0.0269 -1.05576,-0.26207 -1.4896,-0.70549 -0.43385,-0.4434 -0.66264,-0.93356 -0.68637,-1.47048 0.0184,-0.62756 0.23658,-1.14889 0.65449,-1.56398 0.41791,-0.41507 0.92507,-0.6304 1.52148,-0.64599 z"
     style="font-size:17px;fill:#ffffff"
     id="path3100" /><path
     d="m 168.2834,219.25475 4.36894,-5.88192 c 0.38532,-0.50007 0.71115,-1.0299 0.97749,-1.58948 0.26632,-0.55957 0.40515,-1.15739 0.41649,-1.79348 -0.0397,-1.15987 -0.47458,-2.12531 -1.30473,-2.89633 -0.83016,-0.771 -1.81757,-1.17121 -2.96221,-1.20061 -1.1953,0.029 -2.19191,0.43846 -2.98984,1.22823 -0.79793,0.78979 -1.2123,1.7857 -1.24311,2.98771 0.0223,1.05683 0.37719,1.96915 1.06462,2.73697 0.68742,0.76783 1.57353,1.17015 2.65834,1.20698 0.2217,0.002 0.43703,-0.0145 0.64599,-0.0489 0.20895,-0.0343 0.40728,-0.0974 0.59499,-0.18913 l 0.034,0.034 -3.41696,4.60694 z m 1.51298,-6.56191 c -0.69346,-0.0163 -1.31253,-0.2727 -1.85723,-0.76924 -0.5447,-0.49653 -0.83228,-1.13544 -0.86274,-1.91673 0.022,-0.75152 0.30104,-1.38193 0.83724,-1.89122 0.5362,-0.50928 1.19777,-0.77419 1.98473,-0.79474 0.71894,0.0269 1.32952,0.30459 1.83172,0.83299 0.5022,0.52842 0.76428,1.14608 0.78624,1.85297 -0.0113,0.72179 -0.26067,1.3437 -0.74799,1.86573 -0.48733,0.52204 -1.14465,0.79545 -1.97197,0.82024 z"
     style="font-size:17px;fill:#ffffff"
     id="path3102" /></g>
</svg>