<?xml version="1.0" encoding="utf-8"?>
<!-- Generator: Adobe Illustrator 12.0.1, SVG Export Plug-In . SVG Version: 6.00 Build 51448)  -->
<!DOCTYPE svg PUBLIC "-//W3C//DTD SVG 1.1//EN" "http://www.w3.org/Graphics/SVG/1.1/DTD/svg11.dtd" [
	<!ENTITY ns_svg "http://www.w3.org/2000/svg">
	<!ENTITY ns_xlink "http://www.w3.org/1999/xlink">
]>
<svg  version="1.1" id="Layer_1" xmlns="&ns_svg;" xmlns:xlink="&ns_xlink;" width="198" height="234" viewBox="0 0 198 234"
	 overflow="visible" enable-background="new 0 0 198 234" xml:space="preserve">
<g>
	<rect fill-rule="evenodd" clip-rule="evenodd" fill="#FFFFFF" width="198" height="234"/>
	<path fill-rule="evenodd" clip-rule="evenodd" fill="#E9E4D1" d="M0,0h198v156H0V0z M0,0"/>
	<rect y="156" fill-rule="evenodd" clip-rule="evenodd" fill="#D7A676" width="198" height="78"/>
	<g>
		<path fill="#414142" d="M33.92,28.686c0,1.08,0.162,1.728,0.648,1.917c0.081,0.081,0.081,0.243-0.027,0.324
			c-0.324,0-0.81,0.107-1.323,0.243c-1.431,0.378-3.375,0.701-4.833,0.701c-3.213,0-6.156-0.891-8.235-2.997
			c-1.62-1.619-2.484-3.753-2.484-6.129c0-2.295,0.756-4.616,2.43-6.398c1.809-1.891,4.482-3.159,8.559-3.159
			c1.539,0,2.97,0.297,3.429,0.405c0.513,0.107,1.35,0.297,1.674,0.243c0,0.891,0.162,2.295,0.405,3.914
			c-0.081,0.217-0.567,0.243-0.729,0.081c-0.756-2.916-2.781-3.834-5.535-3.834c-5.238,0-7.533,3.727-7.533,7.776
			c0,5.184,2.673,9.261,8.1,9.261c1.674,0,2.673-0.351,2.97-0.81c0.135-0.189,0.27-0.675,0.27-1.539v-1.08
			c0-2.268-0.081-2.43-1.755-2.619l-1.188-0.135c-0.216-0.108-0.189-0.594,0-0.675c0.783,0.054,2.268,0.081,3.861,0.081
			c1.053,0,1.971-0.027,2.862-0.081c0.189,0.107,0.216,0.513,0.027,0.675l-0.432,0.054c-1.134,0.135-1.161,0.892-1.161,2.269V28.686
			z"/>
	</g>
	<g>
		<path fill="#414142" d="M43.503,25.851c0.405-0.135,0.432-0.378,0.459-0.783l0.027-1.242c0.027-0.999-0.297-2.349-1.971-2.349
			c-0.756,0-1.674,0.378-1.728,1.215c-0.027,0.432-0.054,0.756-0.27,0.918c-0.405,0.324-1.134,0.513-1.539,0.513
			c-0.243,0-0.378-0.135-0.378-0.378c0-1.403,3.051-3.32,5.022-3.32c1.944,0,2.889,1.134,2.808,3.158l-0.162,4.698
			c-0.054,1.242,0.189,2.35,1.242,2.35c0.27,0,0.513-0.081,0.675-0.162c0.135-0.081,0.27-0.189,0.351-0.189
			c0.108,0,0.189,0.162,0.189,0.352c0,0.135-0.945,1.188-2.268,1.188c-0.648,0-1.296-0.243-1.755-0.837
			c-0.108-0.162-0.27-0.378-0.432-0.378c-0.189,0-0.513,0.243-1.053,0.54c-0.594,0.324-1.188,0.675-1.944,0.675
			c-0.783,0-1.431-0.216-1.89-0.621c-0.513-0.459-0.837-1.134-0.837-1.89c0-1.053,0.513-1.674,2.241-2.295L43.503,25.851z
			 M41.83,30.603c0.54,0,1.377-0.405,1.647-0.675c0.324-0.324,0.351-0.702,0.351-1.27l0.054-1.593c0-0.297-0.108-0.351-0.27-0.351
			c-0.162,0-0.621,0.107-1.107,0.27c-1.593,0.54-2.376,0.945-2.376,1.998C40.128,29.441,40.453,30.603,41.83,30.603z"/>
		<path fill="#414142" d="M51.333,23.69c0-1.053,0-1.188-0.729-1.674l-0.243-0.162c-0.108-0.108-0.108-0.405,0.027-0.486
			c0.621-0.216,2.052-0.918,2.727-1.322c0.135,0.026,0.216,0.081,0.216,0.188v1.566c0,0.135,0.027,0.216,0.081,0.242
			c0.945-0.782,1.971-1.619,2.97-1.619c0.675,0,1.215,0.432,1.215,1.08c0,0.891-0.729,1.241-1.161,1.241
			c-0.27,0-0.405-0.081-0.594-0.188c-0.405-0.271-0.81-0.433-1.188-0.433c-0.432,0-0.756,0.243-0.972,0.54
			c-0.27,0.378-0.351,1.161-0.351,2.079v3.672c0,1.944,0.054,2.269,1.08,2.35l0.972,0.081c0.189,0.135,0.135,0.594-0.054,0.675
			c-1.269-0.054-2.052-0.081-2.997-0.081c-0.972,0-1.782,0.027-2.484,0.081c-0.189-0.081-0.243-0.54-0.054-0.675l0.513-0.081
			c0.999-0.162,1.026-0.405,1.026-2.35V23.69z"/>
		<path fill="#414142" d="M64.725,25.851c0.405-0.135,0.432-0.378,0.459-0.783l0.027-1.242c0.027-0.999-0.297-2.349-1.971-2.349
			c-0.756,0-1.674,0.378-1.728,1.215c-0.027,0.432-0.054,0.756-0.27,0.918c-0.405,0.324-1.134,0.513-1.539,0.513
			c-0.243,0-0.378-0.135-0.378-0.378c0-1.403,3.051-3.32,5.022-3.32c1.944,0,2.889,1.134,2.808,3.158l-0.162,4.698
			c-0.054,1.242,0.189,2.35,1.242,2.35c0.27,0,0.513-0.081,0.675-0.162c0.135-0.081,0.27-0.189,0.351-0.189
			c0.108,0,0.189,0.162,0.189,0.352c0,0.135-0.945,1.188-2.268,1.188c-0.648,0-1.296-0.243-1.755-0.837
			c-0.108-0.162-0.27-0.378-0.432-0.378c-0.189,0-0.513,0.243-1.053,0.54c-0.594,0.324-1.188,0.675-1.944,0.675
			c-0.783,0-1.431-0.216-1.89-0.621c-0.513-0.459-0.837-1.134-0.837-1.89c0-1.053,0.513-1.674,2.241-2.295L64.725,25.851z
			 M63.051,30.603c0.54,0,1.377-0.405,1.647-0.675c0.324-0.324,0.351-0.702,0.351-1.27l0.054-1.593c0-0.297-0.108-0.351-0.27-0.351
			c-0.162,0-0.621,0.107-1.107,0.27c-1.593,0.54-2.376,0.945-2.376,1.998C61.35,29.441,61.674,30.603,63.051,30.603z"/>
		<path fill="#414142" d="M86.865,24.5c0-1.836-0.81-2.78-2.511-2.78c-1.026,0-1.863,0.459-2.241,0.944
			c-0.324,0.405-0.405,0.676-0.405,1.62v4.131c0,1.944,0.054,2.215,1.026,2.35l0.567,0.081c0.189,0.135,0.135,0.594-0.054,0.675
			c-0.81-0.054-1.593-0.081-2.538-0.081c-0.972,0-1.701,0.027-2.457,0.081c-0.189-0.081-0.243-0.54-0.054-0.675l0.486-0.081
			c0.999-0.162,1.026-0.405,1.026-2.35V24.5c0-1.809-0.81-2.78-2.484-2.78c-1.107,0-1.863,0.485-2.268,0.972
			c-0.27,0.324-0.405,0.675-0.405,1.539v4.185c0,1.944,0.054,2.188,1.026,2.35l0.486,0.081c0.189,0.135,0.135,0.594-0.054,0.675
			c-0.729-0.054-1.512-0.081-2.457-0.081c-0.972,0-1.782,0.027-2.619,0.081c-0.189-0.081-0.243-0.54-0.054-0.675l0.648-0.081
			c0.999-0.135,1.026-0.405,1.026-2.35V23.69c0-1.053,0-1.188-0.729-1.674l-0.243-0.162c-0.108-0.108-0.108-0.405,0.027-0.486
			c0.621-0.216,2.16-0.918,2.7-1.322c0.108,0,0.243,0.054,0.297,0.188c-0.054,0.621-0.054,1.026-0.054,1.27
			c0,0.161,0.108,0.297,0.297,0.297c1.026-0.729,2.295-1.377,3.591-1.377c1.35,0,2.106,0.485,2.862,1.593
			c0.243,0.054,0.432-0.054,0.675-0.216c1.08-0.756,2.403-1.377,3.672-1.377c2.16,0,3.213,1.484,3.213,3.348v4.644
			c0,1.944,0.054,2.215,1.026,2.35l0.648,0.081c0.189,0.135,0.135,0.594-0.054,0.675c-0.891-0.054-1.674-0.081-2.619-0.081
			c-0.972,0-1.701,0.027-2.457,0.081c-0.189-0.081-0.243-0.54-0.054-0.675l0.486-0.081c0.999-0.162,1.026-0.405,1.026-2.35V24.5z"/>
		<path fill="#414142" d="M104.01,26.013c0,3.375-2.322,5.805-5.697,5.805c-3.105,0-5.535-2.187-5.535-5.562
			c0-3.402,2.565-5.832,5.751-5.832C101.553,20.424,104.01,22.691,104.01,26.013z M98.205,21.233c-1.782,0-3.105,1.701-3.105,4.671
			c0,2.457,1.107,5.104,3.483,5.104c2.376,0,3.105-2.484,3.105-4.563C101.688,24.149,100.77,21.233,98.205,21.233z"/>
		<path fill="#414142" d="M108.275,23.69c0-1.053,0-1.188-0.729-1.674l-0.243-0.162c-0.107-0.108-0.107-0.405,0.027-0.486
			c0.621-0.216,2.16-0.918,2.699-1.322c0.108,0,0.244,0.054,0.297,0.188c-0.053,0.621-0.053,1.026-0.053,1.27
			c0,0.161,0.107,0.297,0.297,0.297c1.134-0.702,2.402-1.377,3.779-1.377c2.241,0,3.159,1.539,3.159,3.348v4.644
			c0,1.944,0.054,2.215,1.026,2.35l0.594,0.081c0.189,0.135,0.135,0.594-0.055,0.675c-0.81-0.054-1.592-0.081-2.537-0.081
			c-0.973,0-1.782,0.027-2.512,0.081c-0.188-0.081-0.242-0.54-0.054-0.675l0.513-0.081c1-0.162,1.026-0.405,1.026-2.35v-4.022
			c0-1.539-0.702-2.673-2.538-2.673c-1.025,0-1.917,0.432-2.295,0.944c-0.352,0.459-0.404,0.838-0.404,1.62v4.131
			c0,1.944,0.053,2.188,1.025,2.35l0.486,0.081c0.189,0.135,0.135,0.594-0.055,0.675c-0.729-0.054-1.512-0.081-2.457-0.081
			c-0.972,0-1.781,0.027-2.537,0.081c-0.189-0.081-0.244-0.54-0.055-0.675l0.567-0.081c0.999-0.135,1.026-0.405,1.026-2.35V23.69z"
			/>
		<path fill="#414142" d="M131.927,27.497c0,2.134,0.027,3.133,0.783,3.133c0.297,0,0.756-0.136,1.161-0.271
			c0.189,0.054,0.216,0.729-0.027,0.864c-1.134,0.162-2.808,0.566-3.564,0.864c-0.161,0-0.297-0.081-0.297-0.217v-0.459
			c0-0.404,0-0.729-0.053-0.837h-0.109c-1.188,0.811-2.105,1.242-3.401,1.242c-2.997,0-4.995-2.349-4.995-5.184
			c0-3.78,2.862-6.21,6.534-6.21c0.918,0,1.513,0.135,1.81,0.242c0.135,0,0.162-0.161,0.162-0.378v-4.076
			c0-1.594-0.027-1.756-0.838-2.241l-0.27-0.162c-0.135-0.081-0.135-0.459,0-0.54c0.675-0.216,1.943-0.621,2.916-1.134
			c0.107,0,0.216,0.054,0.27,0.162c-0.027,0.81-0.081,2.159-0.081,3.348V27.497z M129.93,23.447c0-0.54-0.109-0.783-0.298-1.053
			c-0.405-0.567-1.215-1.134-2.269-1.134c-2.456,0-3.725,2.133-3.725,4.481c0,2.457,1.377,4.779,4.022,4.779
			c0.729,0,1.647-0.324,2.079-0.756c0.162-0.162,0.189-0.567,0.189-0.999V23.447z"/>
	</g>
	<g>
		<path fill="#414142" d="M17.214,174.803c0.33-0.11,0.352-0.309,0.374-0.639l0.022-1.012c0.022-0.813-0.242-1.914-1.606-1.914
			c-0.616,0-1.364,0.309-1.408,0.99c-0.022,0.352-0.044,0.616-0.22,0.748c-0.33,0.264-0.924,0.418-1.254,0.418
			c-0.198,0-0.308-0.11-0.308-0.308c0-1.145,2.486-2.706,4.092-2.706c1.584,0,2.354,0.924,2.288,2.573l-0.132,3.828
			c-0.044,1.013,0.154,1.914,1.012,1.914c0.22,0,0.418-0.065,0.55-0.132c0.11-0.066,0.22-0.154,0.286-0.154
			c0.088,0,0.154,0.132,0.154,0.286c0,0.11-0.77,0.968-1.848,0.968c-0.528,0-1.056-0.197-1.43-0.682
			c-0.088-0.132-0.22-0.308-0.352-0.308c-0.154,0-0.418,0.197-0.858,0.439c-0.484,0.265-0.968,0.55-1.584,0.55
			c-0.638,0-1.166-0.176-1.54-0.506c-0.418-0.374-0.682-0.924-0.682-1.54c0-0.857,0.418-1.363,1.826-1.87L17.214,174.803z
			 M15.85,178.675c0.44,0,1.122-0.33,1.342-0.551c0.264-0.264,0.286-0.571,0.286-1.033l0.044-1.299c0-0.241-0.088-0.285-0.22-0.285
			c-0.132,0-0.506,0.088-0.902,0.22c-1.298,0.439-1.936,0.77-1.936,1.628C14.464,177.729,14.728,178.675,15.85,178.675z"/>
		<path fill="#414142" d="M25.838,166.948c0-1.298-0.022-1.43-0.682-1.826l-0.22-0.132c-0.11-0.065-0.11-0.374,0-0.439
			c0.506-0.198,1.562-0.484,2.398-0.924c0.088,0,0.176,0.044,0.22,0.132c-0.044,0.77-0.088,1.76-0.088,2.728v4.158
			c0,0.374,0.088,0.462,0.22,0.462c0.572-0.33,1.452-0.726,2.53-0.726c2.508,0,4.202,1.892,4.202,4.312
			c0,2.926-2.112,4.972-5.06,4.972c-0.814,0-1.43-0.132-1.87-0.285c-0.462-0.133-0.748-0.286-0.924-0.286s-0.352,0.176-0.462,0.33
			c-0.022,0.021-0.044,0.021-0.088,0.021c-0.088,0-0.176-0.044-0.22-0.132c0.022-0.308,0.044-0.726,0.044-1.87V166.948z
			 M27.466,176.364c0,0.771,0.176,1.452,0.55,1.914s0.968,0.727,1.672,0.727c2.068,0,2.882-1.761,2.882-3.652
			c0-2.266-1.166-4.026-3.344-4.026c-0.66,0-1.188,0.154-1.496,0.353c-0.22,0.153-0.264,0.396-0.264,1.254V176.364z"/>
		<path fill="#414142" d="M46.562,170.755c0.176,0.153,0.33,0.506,0.33,0.88c0,0.396-0.22,0.813-0.484,0.813
			c-0.11,0-0.22-0.044-0.308-0.153c-0.484-0.595-1.298-1.166-2.2-1.166c-1.54,0-3.036,1.21-3.036,3.542
			c0,1.716,1.188,3.762,3.542,3.762c1.276,0,1.936-0.572,2.442-1.32c0.176-0.044,0.374,0.11,0.396,0.309
			c-0.748,1.628-2.398,2.243-3.674,2.243c-1.166,0-2.244-0.374-3.014-1.122c-0.77-0.747-1.276-1.825-1.276-3.256
			c0-2.376,1.672-4.905,5.324-4.905C45.11,170.381,45.968,170.49,46.562,170.755z"/>
		<path fill="#414142" d="M59.916,176.145c0,1.738,0.022,2.552,0.638,2.552c0.242,0,0.616-0.109,0.946-0.22
			c0.154,0.044,0.176,0.594-0.022,0.704c-0.924,0.132-2.288,0.462-2.904,0.704c-0.132,0-0.242-0.066-0.242-0.177v-0.374
			c0-0.329,0-0.594-0.044-0.682H58.2c-0.968,0.66-1.716,1.012-2.772,1.012c-2.442,0-4.07-1.914-4.07-4.224
			c0-3.08,2.332-5.06,5.324-5.06c0.748,0,1.232,0.109,1.474,0.197c0.11,0,0.132-0.132,0.132-0.308v-3.322
			c0-1.298-0.022-1.43-0.682-1.826l-0.22-0.132c-0.11-0.065-0.11-0.374,0-0.439c0.55-0.176,1.584-0.506,2.376-0.924
			c0.088,0,0.176,0.044,0.22,0.132c-0.022,0.66-0.066,1.76-0.066,2.728V176.145z M58.288,172.845c0-0.44-0.088-0.639-0.242-0.858
			c-0.33-0.462-0.99-0.924-1.848-0.924c-2.002,0-3.036,1.738-3.036,3.652c0,2.002,1.122,3.894,3.278,3.894
			c0.594,0,1.342-0.264,1.694-0.616c0.132-0.132,0.154-0.462,0.154-0.813V172.845z"/>
		<path fill="#414142" d="M67.945,173.725c-0.572,0-0.594,0.044-0.594,0.594c0,2.222,1.298,4.114,3.652,4.114
			c0.726,0,1.342-0.22,2.024-1.078c0.22-0.066,0.374,0.066,0.396,0.264c-0.726,1.496-2.31,2.046-3.454,2.046
			c-1.43,0-2.552-0.615-3.19-1.451c-0.66-0.858-0.924-1.893-0.924-2.86c0-2.706,1.782-4.972,4.422-4.972
			c1.892,0,3.124,1.298,3.124,2.617c0,0.309-0.044,0.484-0.088,0.572c-0.066,0.132-0.374,0.154-1.298,0.154H67.945z M69.31,173.064
			c1.628,0,2.112-0.088,2.288-0.22c0.066-0.044,0.132-0.132,0.132-0.418c0-0.616-0.418-1.387-1.694-1.387
			c-1.298,0-2.42,1.188-2.442,1.914c0,0.044,0,0.11,0.154,0.11H69.31z"/>
		<path fill="#414142" d="M81.189,171.612c-0.374,0-0.374,0.044-0.374,0.639v4.642c0,1.584,0.044,1.848,0.836,1.914l0.792,0.065
			c0.154,0.11,0.11,0.484-0.044,0.551c-0.99-0.044-1.628-0.066-2.398-0.066c-0.792,0-1.452,0.022-2.112,0.066
			c-0.154-0.066-0.198-0.44-0.044-0.551l0.506-0.065c0.814-0.11,0.836-0.33,0.836-1.914v-4.642c0-0.595,0-0.639-0.44-0.639h-0.77
			c-0.132-0.088-0.154-0.286-0.066-0.418l0.946-0.462c0.176-0.088,0.33-0.22,0.33-0.439c0-1.276,0.154-2.641,0.682-3.872
			c0.55-1.254,1.782-2.794,3.96-2.794c1.166,0,2.156,0.527,2.156,1.319c0,0.44-0.418,0.792-0.836,0.792
			c-0.242,0-0.374-0.088-0.528-0.264c-0.418-0.484-1.034-0.968-1.76-0.968c-0.682,0-1.232,0.418-1.562,1.21
			c-0.396,1.012-0.484,2.618-0.484,3.718v0.638c0,0.595,0,0.616,0.374,0.616h2.508c0.242,0.22,0.088,0.836-0.154,0.924H81.189z"/>
		<path fill="#414142" d="M96.589,171.173c0.242,0.109,0.198,0.857-0.132,0.901h-1.584c0.044,0.374,0.044,0.748,0.044,1.122
			c0,1.519-0.902,3.498-3.696,3.498c-0.396,0-0.704-0.044-0.968-0.065c-0.264,0.153-0.968,0.571-0.968,1.21
			c0,0.506,0.506,0.924,1.54,0.924c0.748,0,1.65-0.066,2.618-0.066c1.232,0,3.08,0.22,3.08,2.42c0,2.398-2.618,4.158-5.478,4.158
			c-2.706,0-3.652-1.452-3.652-2.552c0-0.353,0.088-0.639,0.242-0.814c0.374-0.396,0.99-0.968,1.496-1.474
			c0.198-0.198,0.374-0.396,0.176-0.528c-0.858-0.22-1.606-0.968-1.606-1.738c0-0.109,0.088-0.197,0.33-0.373
			c0.374-0.242,0.792-0.616,1.166-1.013c0.11-0.132,0.22-0.308,0.22-0.418c-0.748-0.396-1.65-1.254-1.65-2.662
			c0-1.892,1.628-3.321,3.586-3.321c0.836,0,1.606,0.22,2.112,0.439c0.704,0.309,0.858,0.353,1.342,0.353H96.589z M91.991,180.061
			c-0.704,0-1.584,0.044-1.892,0.242c-0.528,0.33-1.056,1.012-1.056,1.848c0,1.188,0.946,2.178,2.948,2.178
			c1.958,0,3.256-1.1,3.256-2.354c0-1.342-0.924-1.914-2.508-1.914H91.991z M93.355,173.769c0-1.496-0.616-2.75-1.958-2.75
			c-1.056,0-1.848,0.968-1.848,2.464c0,1.562,0.946,2.574,2.002,2.574C92.739,176.057,93.355,175.11,93.355,173.769z"/>
		<path fill="#414142" d="M101.825,166.948c0-1.298-0.022-1.43-0.683-1.826l-0.219-0.132c-0.111-0.065-0.111-0.374,0-0.439
			c0.549-0.176,1.584-0.506,2.375-0.924c0.088,0,0.176,0.044,0.221,0.132c-0.022,0.66-0.066,1.76-0.066,2.728v4.62
			c0,0.198,0.021,0.374,0.088,0.418c0.792-0.616,1.848-1.144,2.971-1.144c2.09,0,2.838,1.298,2.838,2.838v3.674
			c0,1.584,0.043,1.826,0.836,1.914l0.594,0.065c0.154,0.11,0.109,0.484-0.044,0.551c-0.792-0.044-1.431-0.066-2.2-0.066
			c-0.792,0-1.452,0.022-2.046,0.066c-0.154-0.066-0.198-0.44-0.044-0.551l0.439-0.065c0.814-0.132,0.836-0.33,0.836-1.914v-3.146
			c0-1.407-0.682-2.354-2.09-2.354c-0.748,0-1.32,0.264-1.716,0.594s-0.462,0.44-0.462,1.21v3.696c0,1.584,0.044,1.804,0.836,1.914
			l0.462,0.065c0.154,0.088,0.11,0.484-0.044,0.551c-0.66-0.044-1.298-0.066-2.068-0.066c-0.791,0-1.451,0.022-2.155,0.066
			c-0.154-0.066-0.198-0.44-0.044-0.551l0.55-0.065c0.813-0.088,0.836-0.33,0.836-1.914V166.948z"/>
		<path fill="#414142" d="M116.675,173.042c0-0.857,0-0.968-0.594-1.363l-0.198-0.132c-0.088-0.089-0.088-0.33,0.022-0.396
			c0.506-0.176,1.76-0.748,2.266-1.078c0.11,0,0.198,0.044,0.22,0.132c-0.043,0.771-0.088,1.826-0.088,2.729v3.96
			c0,1.584,0.045,1.804,0.836,1.914l0.463,0.065c0.153,0.11,0.109,0.484-0.045,0.551c-0.66-0.044-1.298-0.066-2.067-0.066
			c-0.792,0-1.452,0.022-2.068,0.066c-0.153-0.066-0.198-0.44-0.044-0.551l0.462-0.065c0.813-0.11,0.836-0.33,0.836-1.914V173.042z
			 M118.479,165.914c0,0.771-0.549,1.122-1.144,1.122c-0.683,0-1.122-0.483-1.122-1.077c0-0.727,0.551-1.166,1.188-1.166
			C118.061,164.793,118.479,165.299,118.479,165.914z"/>
		<path fill="#414142" d="M125.673,173.042c0-0.857,0-0.968-0.595-1.363l-0.197-0.132c-0.088-0.089-0.088-0.33,0.021-0.396
			c0.506-0.176,1.76-0.748,2.266-1.078c0.111,0,0.199,0.044,0.221,0.132c-0.044,0.771-0.088,1.826-0.088,2.729v5.324
			c0,1.584-0.154,2.684-0.462,3.432c-0.66,1.584-1.826,2.64-3.345,3.586c-0.264-0.044-0.396-0.286-0.308-0.506
			c0.572-0.286,0.99-0.638,1.298-0.99c0.793-0.924,1.188-2.508,1.188-5.191V173.042z M127.477,166.091
			c0,0.77-0.55,1.122-1.145,1.122c-0.682,0-1.121-0.484-1.121-1.078c0-0.727,0.55-1.166,1.188-1.166
			C127.059,164.969,127.477,165.475,127.477,166.091z"/>
		<path fill="#414142" d="M134.275,166.948c0-1.298-0.022-1.43-0.683-1.826l-0.22-0.132c-0.11-0.065-0.11-0.374,0-0.439
			c0.55-0.176,1.584-0.506,2.376-0.924c0.088,0,0.176,0.044,0.22,0.132c-0.021,0.66-0.066,1.76-0.066,2.728v7.546
			c0,0.286,0.022,0.33,0.396,0.33c0.484,0,0.902-0.242,1.496-0.857l0.902-0.969c0.615-0.659,0.77-0.901,0.77-1.012
			s-0.109-0.176-0.484-0.22l-0.527-0.066c-0.198-0.065-0.198-0.483,0-0.55h0.506c0.968,0,2.266-0.044,3.498-0.176
			c0.154,0.065,0.176,0.439,0.044,0.55l-0.704,0.132c-0.439,0.088-0.814,0.309-1.387,0.771c-0.857,0.682-1.605,1.474-2.002,1.848
			c-0.264,0.242-0.285,0.352-0.153,0.528c0.374,0.506,0.726,0.924,1.474,1.76c0.858,0.968,1.629,1.826,2.068,2.244
			c0.309,0.286,0.748,0.418,1.145,0.483l0.308,0.044c0.153,0.11,0.132,0.484-0.044,0.551c-0.639-0.044-1.387-0.066-2.09-0.066
			c-0.881,0-1.65,0.022-2.289,0.066c-0.176-0.089-0.197-0.463-0.043-0.551l0.396-0.065c0.33-0.044,0.55-0.088,0.55-0.22
			c0-0.133-0.088-0.286-0.373-0.616l-2.354-2.729c-0.198-0.22-0.44-0.308-0.683-0.308c-0.396,0-0.418,0.065-0.418,0.748v1.21
			c0,1.584,0.045,1.804,0.836,1.914l0.528,0.065c0.154,0.11,0.11,0.484-0.044,0.551c-0.726-0.044-1.363-0.066-2.134-0.066
			c-0.792,0-1.452,0.022-2.112,0.066c-0.154-0.066-0.197-0.44-0.021-0.551l0.484-0.065c0.813-0.11,0.836-0.33,0.836-1.914V166.948z"
			/>
		<path fill="#414142" d="M149.807,176.893c0,1.584,0.044,1.804,0.836,1.914l0.527,0.065c0.154,0.11,0.111,0.484-0.043,0.551
			c-0.727-0.044-1.364-0.066-2.135-0.066c-0.791,0-1.451,0.022-2.111,0.066c-0.154-0.066-0.198-0.44-0.044-0.551l0.506-0.065
			c0.813-0.11,0.836-0.33,0.836-1.914v-9.944c0-1.298-0.022-1.43-0.683-1.826l-0.219-0.132c-0.111-0.065-0.111-0.374,0-0.439
			c0.549-0.176,1.584-0.506,2.375-0.924c0.088,0,0.176,0.044,0.221,0.132c-0.022,0.66-0.066,1.76-0.066,2.728V176.893z"/>
		<path fill="#414142" d="M168.793,173.702c0-1.496-0.66-2.266-2.047-2.266c-0.836,0-1.518,0.374-1.826,0.77
			c-0.264,0.33-0.33,0.551-0.33,1.32v3.366c0,1.584,0.045,1.804,0.836,1.914l0.463,0.065c0.154,0.11,0.109,0.484-0.044,0.551
			c-0.66-0.044-1.298-0.066-2.068-0.066c-0.792,0-1.386,0.022-2.002,0.066c-0.153-0.066-0.198-0.44-0.044-0.551l0.396-0.065
			c0.813-0.132,0.836-0.33,0.836-1.914v-3.19c0-1.474-0.66-2.266-2.024-2.266c-0.901,0-1.519,0.396-1.849,0.792
			c-0.219,0.264-0.329,0.55-0.329,1.254v3.41c0,1.584,0.044,1.782,0.836,1.914l0.396,0.065c0.154,0.11,0.11,0.484-0.043,0.551
			c-0.595-0.044-1.232-0.066-2.002-0.066c-0.793,0-1.453,0.022-2.135,0.066c-0.154-0.066-0.197-0.44-0.044-0.551l0.528-0.065
			c0.813-0.11,0.836-0.33,0.836-1.914v-3.851c0-0.857,0-0.968-0.594-1.363l-0.199-0.132c-0.088-0.089-0.088-0.33,0.022-0.396
			c0.507-0.176,1.761-0.748,2.2-1.078c0.088,0,0.198,0.044,0.242,0.154c-0.044,0.506-0.044,0.836-0.044,1.034
			c0,0.132,0.088,0.242,0.241,0.242c0.836-0.595,1.871-1.122,2.927-1.122c1.1,0,1.716,0.396,2.331,1.298
			c0.199,0.044,0.353-0.044,0.551-0.176c0.88-0.616,1.958-1.122,2.992-1.122c1.76,0,2.617,1.21,2.617,2.728v3.784
			c0,1.584,0.045,1.804,0.836,1.914l0.528,0.065c0.154,0.11,0.11,0.484-0.044,0.551c-0.726-0.044-1.363-0.066-2.134-0.066
			c-0.792,0-1.386,0.022-2.002,0.066c-0.153-0.066-0.198-0.44-0.044-0.551l0.396-0.065c0.813-0.132,0.836-0.33,0.836-1.914V173.702z
			"/>
	</g>
	<g>
		<path fill="#414142" d="M14.156,194.042c0-0.857,0-0.968-0.594-1.363l-0.198-0.132c-0.088-0.089-0.088-0.33,0.022-0.396
			c0.506-0.176,1.76-0.748,2.2-1.078c0.088,0,0.198,0.044,0.242,0.154c-0.044,0.506-0.044,0.836-0.044,1.034
			c0,0.132,0.088,0.242,0.242,0.242c0.924-0.572,1.958-1.122,3.08-1.122c1.826,0,2.574,1.254,2.574,2.728v3.784
			c0,1.584,0.044,1.804,0.836,1.914L23,199.872c0.154,0.11,0.11,0.484-0.044,0.551c-0.66-0.044-1.298-0.066-2.068-0.066
			c-0.792,0-1.452,0.022-2.046,0.066c-0.154-0.066-0.198-0.44-0.044-0.551l0.418-0.065c0.814-0.132,0.836-0.33,0.836-1.914v-3.278
			c0-1.254-0.572-2.178-2.068-2.178c-0.836,0-1.562,0.352-1.87,0.77c-0.286,0.374-0.33,0.683-0.33,1.32v3.366
			c0,1.584,0.044,1.782,0.836,1.914l0.396,0.065c0.154,0.11,0.11,0.484-0.044,0.551c-0.594-0.044-1.232-0.066-2.002-0.066
			c-0.792,0-1.452,0.022-2.068,0.066c-0.154-0.066-0.198-0.44-0.044-0.551l0.462-0.065c0.814-0.11,0.836-0.33,0.836-1.914V194.042z"
			/>
		<path fill="#414142" d="M36.772,195.935c0,2.75-1.892,4.729-4.642,4.729c-2.53,0-4.51-1.781-4.51-4.531
			c0-2.772,2.09-4.752,4.686-4.752C34.77,191.381,36.772,193.229,36.772,195.935z M32.042,192.04c-1.452,0-2.53,1.387-2.53,3.807
			c0,2.002,0.902,4.158,2.838,4.158s2.53-2.024,2.53-3.719C34.88,194.416,34.132,192.04,32.042,192.04z"/>
		<path fill="#414142" d="M42.712,194.042c0-0.857,0-0.968-0.594-1.363l-0.198-0.132c-0.088-0.089-0.088-0.33,0.022-0.396
			c0.572-0.242,1.606-0.77,2.178-1.188c0.132,0,0.22,0.044,0.264,0.153c-0.044,0.396-0.088,0.727-0.088,1.013
			c0,0.153,0.044,0.285,0.198,0.285c0.286-0.132,1.672-1.033,3.08-1.033c2.222,0,3.652,1.804,3.652,4.025
			c0,3.059-2.244,5.258-5.368,5.258c-0.396,0-1.012-0.044-1.21-0.088c-0.198,0.044-0.308,0.154-0.308,0.616v2.31
			c0,1.562,0.044,1.761,0.836,1.87l0.858,0.11c0.154,0.11,0.11,0.484-0.044,0.55c-1.056-0.044-1.694-0.065-2.464-0.065
			c-0.792,0-1.452,0.021-2.068,0.065c-0.154-0.065-0.198-0.439-0.044-0.55l0.462-0.066c0.814-0.109,0.836-0.33,0.836-1.914V194.042z
			 M44.34,198.135c0,0.704,0.22,0.968,0.66,1.319c0.44,0.33,1.122,0.484,1.584,0.484c1.804,0,2.86-1.672,2.86-3.96
			c0-1.76-0.99-3.542-2.97-3.542c-0.946,0-1.628,0.352-1.87,0.616c-0.198,0.242-0.264,0.571-0.264,1.298V198.135z"/>
		<path fill="#414142" d="M64.602,203.502c0,1.584,0.066,1.738,0.836,1.87l0.638,0.11c0.154,0.11,0.11,0.484-0.044,0.55
			c-0.836-0.044-1.474-0.065-2.244-0.065c-0.792,0-1.452,0.021-2.288,0.065c-0.154-0.065-0.198-0.439-0.044-0.55l0.682-0.066
			c0.814-0.088,0.836-0.33,0.836-1.914v-2.859c0-0.418-0.022-0.528-0.198-0.528c-0.572,0.33-1.386,0.55-2.244,0.55
			c-3.278,0-4.466-2.596-4.466-4.312c0-3.19,2.442-4.972,5.28-4.972c0.726,0,1.518,0.132,1.826,0.22
			c0.33,0.088,0.572,0.154,0.77,0.154c0.176,0,0.352-0.154,0.594-0.374c0.11,0,0.198,0.088,0.242,0.197
			c-0.132,0.528-0.176,1.276-0.176,2.662V203.502z M62.973,195.274c0-1.144-0.11-1.87-0.286-2.2
			c-0.308-0.55-0.946-1.012-1.892-1.012c-1.672,0-2.882,1.518-2.882,3.586c0,2.42,1.408,4.136,3.476,4.136
			c0.968,0,1.32-0.22,1.43-0.352s0.154-0.396,0.154-0.88V195.274z"/>
		<path fill="#414142" d="M71.685,194.042c0-0.857,0-0.968-0.594-1.363l-0.198-0.132c-0.088-0.089-0.088-0.33,0.022-0.396
			c0.506-0.176,1.672-0.748,2.222-1.078c0.11,0.022,0.176,0.066,0.176,0.154v1.276c0,0.109,0.022,0.176,0.066,0.197
			c0.77-0.638,1.606-1.319,2.42-1.319c0.55,0,0.99,0.352,0.99,0.88c0,0.726-0.594,1.012-0.946,1.012c-0.22,0-0.33-0.066-0.484-0.154
			c-0.33-0.22-0.66-0.352-0.968-0.352c-0.352,0-0.616,0.198-0.792,0.439c-0.22,0.309-0.286,0.946-0.286,1.694v2.992
			c0,1.584,0.044,1.848,0.88,1.914l0.792,0.065c0.154,0.11,0.11,0.484-0.044,0.551c-1.034-0.044-1.672-0.066-2.442-0.066
			c-0.792,0-1.452,0.022-2.024,0.066c-0.154-0.066-0.198-0.44-0.044-0.551l0.418-0.065c0.814-0.132,0.836-0.33,0.836-1.914V194.042z
			"/>
		<path fill="#414142" d="M86.161,191.776c0.198,0.484,0.352,1.188,0.352,1.782c-0.088,0.154-0.418,0.198-0.528,0.065
			c-0.374-0.968-1.034-1.605-1.936-1.605c-0.858,0-1.408,0.55-1.408,1.342c0,0.902,0.924,1.386,1.694,1.826
			c1.166,0.66,2.244,1.408,2.244,2.97c0,1.672-1.54,2.508-3.168,2.508c-1.034,0-1.804-0.22-2.354-0.659
			c-0.176-0.418-0.308-1.496-0.264-2.223c0.11-0.132,0.396-0.153,0.506-0.021c0.374,1.21,1.078,2.266,2.332,2.266
			c0.792,0,1.474-0.462,1.474-1.408c0-1.012-0.88-1.562-1.694-2.023c-1.276-0.727-2.178-1.496-2.178-2.706
			c0-1.606,1.32-2.508,2.992-2.508C85.149,191.381,85.963,191.601,86.161,191.776z"/>
		<path fill="#414142" d="M94.499,192.612c-0.374,0-0.396,0.066-0.396,0.528v4.114c0,1.275,0.154,2.441,1.606,2.441
			c0.22,0,0.418-0.044,0.594-0.109c0.198-0.066,0.484-0.309,0.55-0.309c0.176,0,0.264,0.242,0.22,0.374
			c-0.396,0.462-1.188,1.012-2.31,1.012c-1.892,0-2.288-1.056-2.288-2.376v-5.037c0-0.595-0.022-0.639-0.462-0.639h-0.616
			c-0.132-0.088-0.154-0.33-0.066-0.462c0.638-0.198,1.188-0.483,1.408-0.682c0.286-0.265,0.704-0.858,0.924-1.298
			c0.11-0.044,0.374-0.044,0.462,0.109v0.99c0,0.396,0.022,0.418,0.396,0.418h2.442c0.264,0.198,0.22,0.792,0.022,0.924H94.499z"/>
		<path fill="#414142" d="M104.091,197.122c0,1.519,0.374,2.53,2.046,2.53c0.594,0,1.298-0.242,1.782-0.66
			c0.286-0.264,0.44-0.594,0.44-1.275v-3.608c0-1.43-0.154-1.474-0.814-1.738l-0.286-0.109c-0.154-0.088-0.154-0.396,0.022-0.484
			c0.879-0.021,2.09-0.176,2.573-0.396c0.11,0.021,0.177,0.065,0.198,0.153c-0.044,0.418-0.066,1.101-0.066,1.914v3.696
			c0,1.738,0.066,2.397,0.682,2.397c0.265,0,0.551-0.044,0.859-0.109c0.131,0.109,0.153,0.55-0.022,0.638
			c-0.858,0.176-2.134,0.396-2.882,0.814c-0.11,0-0.221-0.066-0.264-0.154v-0.902c0-0.197-0.066-0.308-0.199-0.308
			c-0.66,0.418-1.737,1.144-3.035,1.144c-1.936,0-2.662-0.968-2.662-2.75v-3.674c0-1.386,0-1.584-0.66-1.87l-0.264-0.109
			c-0.133-0.11-0.11-0.418,0.044-0.484c1.012-0.021,1.87-0.22,2.354-0.396c0.132,0.021,0.198,0.065,0.22,0.153
			c-0.043,0.374-0.065,0.836-0.065,1.914V197.122z"/>
		<path fill="#414142" d="M116.961,193.866c-0.33-0.813-0.528-1.518-1.32-1.628l-0.439-0.065c-0.133-0.177-0.11-0.484,0.065-0.551
			c0.55,0.044,1.32,0.066,2.068,0.066c0.594,0,1.034-0.022,1.782-0.066c0.153,0.089,0.176,0.44,0.021,0.551l-0.264,0.044
			c-0.682,0.109-0.704,0.22-0.484,0.88c0.506,1.518,1.145,3.058,1.65,4.202c0.197,0.439,0.285,0.638,0.352,0.704
			c0.088-0.066,0.242-0.374,0.418-0.837c0.286-0.747,1.034-2.661,1.254-3.233c0.309-0.771,0.396-1.232,0.396-1.364
			c0-0.198-0.133-0.286-0.396-0.33l-0.506-0.065c-0.132-0.154-0.109-0.462,0.044-0.551c0.683,0.044,1.231,0.066,1.65,0.066
			c0.55,0,0.924-0.022,1.54-0.066c0.154,0.089,0.176,0.418,0.043,0.551l-0.329,0.044c-0.771,0.109-0.968,0.682-1.606,1.914
			c-0.308,0.594-1.672,3.783-2.023,4.686c-0.221,0.55-0.44,1.056-0.727,1.804c-0.044,0.066-0.132,0.088-0.22,0.088
			c-0.11,0-0.22-0.021-0.286-0.088c-0.176-0.615-0.506-1.474-0.836-2.288L116.961,193.866z"/>
		<path fill="#414142" d="M129.61,193.822c-0.506-1.231-0.771-1.452-1.319-1.584l-0.353-0.088c-0.11-0.11-0.132-0.439,0.065-0.528
			c0.683,0.044,1.299,0.066,1.959,0.066c0.682,0,1.319-0.022,1.914-0.066c0.176,0.089,0.197,0.418,0.043,0.528l-0.506,0.088
			c-0.308,0.044-0.483,0.176-0.483,0.309c0,0.132,0.11,0.55,0.352,1.144l1.364,3.366c0.197,0.506,0.396,0.901,0.396,0.946
			c0.065-0.045,0.241-0.419,0.506-1.057l1.078-2.662c0.285-0.704,0.308-0.989,0.197-1.275c-0.197-0.484-0.527-0.66-1.012-0.771
			l-0.352-0.088c-0.154-0.132-0.11-0.462,0.065-0.528c0.55,0.044,1.254,0.066,1.826,0.066c0.682,0,1.342-0.022,2.09-0.066
			c0.198,0.066,0.198,0.418,0.065,0.528l-0.461,0.088c-0.881,0.176-0.836,0.242-0.572,1.013c0.242,0.726,1.43,3.52,1.672,4.113
			c0.132,0.33,0.22,0.572,0.285,0.616c0.045-0.044,0.154-0.264,0.309-0.616c0.286-0.638,1.166-2.97,1.496-3.894
			c0.176-0.506,0.221-0.792,0.221-0.946c0-0.132-0.133-0.242-0.396-0.286l-0.551-0.088c-0.176-0.11-0.131-0.462,0.022-0.528
			c0.638,0.044,1.188,0.066,1.738,0.066c0.418,0,0.946-0.022,1.43-0.066c0.177,0.089,0.198,0.418,0.065,0.528l-0.439,0.088
			c-0.527,0.11-0.726,0.418-1.188,1.386c-0.594,1.232-1.65,3.872-2.068,4.994c-0.309,0.792-0.572,1.431-0.748,2.002
			c-0.088,0.066-0.176,0.088-0.286,0.088c-0.088,0-0.176-0.021-0.241-0.088c-0.133-0.396-0.528-1.54-0.902-2.42l-1.057-2.529
			c-0.153-0.396-0.483-1.122-0.506-1.122c-0.021,0-0.33,0.682-0.484,1.078l-1.144,2.749c-0.396,0.946-0.704,1.738-0.88,2.244
			c-0.066,0.066-0.154,0.088-0.264,0.088c-0.088,0-0.198-0.021-0.264-0.088c-0.133-0.462-0.484-1.363-0.66-1.825L129.61,193.822z"/>
		<path fill="#414142" d="M147.694,193.185c-0.33-0.484-0.704-0.836-1.32-0.946l-0.352-0.065c-0.132-0.11-0.11-0.484,0.044-0.551
			c0.857,0.044,1.363,0.066,1.914,0.066c0.527,0,1.012-0.022,1.869-0.066c0.154,0.089,0.154,0.44,0.022,0.551l-0.33,0.065
			c-0.594,0.11-0.571,0.242-0.198,0.771l1.057,1.54c0.088,0.132,0.22,0.308,0.285,0.374c0.089-0.066,0.814-1.166,1.277-1.87
			c0.373-0.572,0.307-0.683-0.177-0.814l-0.264-0.065c-0.132-0.133-0.089-0.484,0.088-0.551c0.506,0.044,1.078,0.066,1.606,0.066
			c0.506,0,1.188-0.022,1.605-0.066c0.176,0.089,0.176,0.44,0.044,0.551l-0.33,0.065c-0.528,0.11-0.858,0.176-1.101,0.374
			c-0.373,0.309-1.188,1.32-2.067,2.508c-0.265,0.353-0.265,0.418,0.022,0.814l2.045,2.882c0.507,0.704,0.859,0.99,1.453,1.034
			l0.352,0.021c0.132,0.133,0.109,0.484-0.044,0.551c-0.813-0.044-1.54-0.066-2.179-0.066c-0.813,0-1.385,0.022-2.09,0.066
			c-0.176-0.066-0.22-0.44-0.065-0.551l0.638-0.065c0.639-0.066,0.66-0.265,0.374-0.66l-1.144-1.65
			c-0.264-0.396-0.396-0.571-0.484-0.638c-0.066,0.066-0.242,0.286-0.396,0.528l-0.924,1.452c-0.439,0.703-0.483,0.88,0.066,0.968
			l0.374,0.065c0.132,0.11,0.11,0.484-0.044,0.551c-0.55-0.044-1.1-0.066-1.628-0.066c-0.55,0-1.034,0.022-1.606,0.066
			c-0.176-0.089-0.197-0.463-0.043-0.551l0.506-0.088c0.396-0.065,0.703-0.242,1.1-0.66c0.462-0.483,1.451-1.958,1.958-2.573
			c0.198-0.242,0.241-0.33,0.065-0.572L147.694,193.185z"/>
		<path fill="#414142" d="M159.111,204.889c0-0.595,0.396-0.88,0.881-0.88h0.418c0.352,0,0.572-0.154,0.726-0.396
			c0.638-0.99,1.078-1.914,1.276-2.441c0.066-0.177,0.22-0.639,0.22-0.946c0-0.44-0.088-0.704-0.374-1.519l-1.716-4.708
			c-0.374-1.033-0.528-1.562-1.298-1.716l-0.551-0.109c-0.131-0.11-0.109-0.484,0.066-0.551c0.704,0.044,1.364,0.066,2.09,0.066
			c0.594,0,1.211-0.022,1.914-0.066c0.176,0.066,0.198,0.44,0.045,0.551l-0.551,0.109c-0.308,0.066-0.484,0.132-0.484,0.286
			c0,0.264,0.506,1.694,0.639,2.068l0.703,2.023c0.133,0.353,0.551,1.519,0.639,1.562c0.066-0.044,0.418-0.727,0.814-1.628
			l0.748-1.738c0.483-1.144,0.77-1.958,0.77-2.2c0-0.153-0.132-0.308-0.527-0.374l-0.683-0.109c-0.154-0.11-0.132-0.484,0.044-0.551
			c0.704,0.044,1.364,0.066,1.936,0.066c0.551,0,1.057-0.022,1.672-0.066c0.177,0.089,0.199,0.418,0.045,0.551l-0.375,0.065
			c-0.726,0.132-1.121,0.771-1.869,2.332l-1.232,2.53c-0.726,1.474-2.529,5.302-3.607,7.7c-0.375,0.836-0.902,1.033-1.408,1.033
			C159.441,205.834,159.111,205.438,159.111,204.889z"/>
		<path fill="#414142" d="M174.512,200.356c-1.188,0-2.047,0.022-2.311,0.066c-0.088-0.044-0.132-0.133-0.132-0.221
			c0.44-0.527,1.452-2.09,2.112-3.233l2.332-3.96c0.352-0.616,0.197-0.66-0.198-0.66h-1.519c-0.659,0-1.188,0.065-1.518,0.33
			c-0.374,0.286-0.594,0.792-0.792,1.275c-0.11,0.133-0.44,0.088-0.506-0.088c0.044-0.571,0.418-2.046,0.726-2.573
			c0.066-0.045,0.198-0.045,0.265,0c0.065,0.374,0.308,0.396,1.562,0.396h3.124c0.595,0,1.013,0,1.343-0.066
			c0.088,0.045,0.131,0.11,0.109,0.221c-0.462,0.638-0.99,1.452-1.628,2.508l-2.662,4.466c-0.462,0.792-0.418,0.88,0.418,0.88h0.748
			c0.858,0,1.979,0,2.597-0.66c0.241-0.264,0.461-0.726,0.703-1.275c0.154-0.088,0.418-0.044,0.484,0.132
			c-0.198,1.078-0.527,2.112-0.814,2.53c-0.726-0.044-1.451-0.066-2.463-0.066H174.512z"/>
	</g>
	<g>
		<path fill="#FFFFFF" d="M62.16,216.736c0,2.86-2.2,4.928-4.84,4.928c-2.64,0-4.84-2.067-4.84-4.928c0-2.904,2.2-4.972,4.84-4.972
			C59.959,211.765,62.16,213.832,62.16,216.736z M60.686,216.736c0-2.266-1.342-3.96-3.366-3.96c-2.024,0-3.366,1.694-3.366,3.96
			c0,2.222,1.342,3.916,3.366,3.916C59.344,220.652,60.686,218.958,60.686,216.736z"/>
		<path fill="#FFFFFF" d="M69.507,218.958c0,1.519,0.044,1.761,1.232,1.87l0.704,0.066c0.154,0.11,0.132,0.484-0.066,0.528
			c-0.528-0.044-1.716-0.066-2.706-0.066c-0.946,0-2.244,0.022-2.662,0.066c-0.198-0.044-0.22-0.418-0.066-0.528l0.594-0.066
			c1.298-0.153,1.342-0.352,1.342-1.87v-4.487c0-1.519-0.066-1.65-1.342-1.87l-0.374-0.066c-0.154-0.109-0.132-0.483,0.066-0.527
			c0.418,0.044,1.496,0.065,2.442,0.065c0.99,0,1.958-0.021,2.486-0.065c0.198,0.044,0.22,0.418,0.066,0.527l-0.374,0.066
			c-1.276,0.22-1.342,0.352-1.342,1.87V218.958z"/>
	</g>
	<g>
		<path fill="#FFFFFF" d="M81.217,220.08c1.188,0,1.672-0.021,2.2-1.077c0.176-0.11,0.44-0.022,0.528,0.176
			c-0.396,0.836-0.77,1.628-1.034,2.244c-0.396-0.022-0.836-0.044-1.32-0.044c-0.506-0.022-1.034-0.022-1.672-0.022h-2.178
			c-0.726,0-1.496,0.022-1.958,0.066c-0.11-0.044-0.198-0.242-0.132-0.374c0.638-0.484,1.342-1.057,2.222-1.98
			c1.166-1.231,2.266-2.508,2.266-3.894c0-1.343-0.748-2.135-1.936-2.135c-0.946,0-1.672,0.595-2.244,1.519
			c-0.242,0.065-0.44-0.11-0.44-0.33c0.506-1.078,1.782-2.464,3.52-2.464c1.738,0,2.838,1.056,2.838,2.552
			c0,1.32-0.66,2.156-1.98,3.586l-1.716,1.87c-0.022,0.176,0.044,0.308,0.418,0.308H81.217z"/>
		<path fill="#FFFFFF" d="M94.307,214.074c0,0.572-0.308,1.298-1.496,2.179c-0.484,0.352-0.616,0.527-0.352,0.615
			c1.408,0.462,2.288,1.387,2.288,2.86c0,1.628-0.792,2.904-1.892,3.894c-1.276,1.145-2.926,1.87-3.586,1.87
			c-0.704,0-0.88-0.616-0.88-0.901c0-0.33,0.22-0.374,0.396-0.374s0.66,0.109,1.122,0.109c1.54,0,3.102-1.275,3.102-3.762
			c0-1.298-0.616-2.64-2.112-2.64c-0.462,0-0.858,0.264-1.254,0.638c-0.22-0.022-0.44-0.308-0.33-0.66
			c1.32-0.704,3.344-1.672,3.344-3.41c0-0.945-0.55-1.628-1.65-1.628c-0.726,0-1.32,0.353-1.98,1.232
			c-0.22,0-0.374-0.132-0.374-0.33c0.462-0.968,1.716-2.002,3.168-2.002C92.943,211.765,94.307,212.358,94.307,214.074z"/>
		<path fill="#FFFFFF" d="M105.482,221.312c0-0.44,0-0.528-0.439-0.528h-5.17c-0.132-0.088-0.176-0.22-0.176-0.374l0.967-1.1
			c1.035-1.188,5.633-6.974,6.029-7.546c0.131-0.066,0.329-0.022,0.396,0.109v7.261c0,0.55,0.044,0.594,0.44,0.594h1.892
			c0.198,0.198,0.198,0.858,0,1.056h-1.892c-0.44,0-0.44,0.044-0.44,0.528v3.981c-0.089,0.133-0.616,0.154-0.858,0.154
			c-0.22,0-0.638-0.021-0.748-0.154V221.312z M105.043,219.729c0.418,0,0.439-0.022,0.439-0.594v-4.664h-0.044
			c-0.88,1.122-2.948,3.695-3.806,4.817c-0.176,0.242-0.198,0.44,0.242,0.44H105.043z"/>
		<path fill="#FFFFFF" d="M114.744,225.712c-0.264-0.109-0.352-0.462-0.176-0.615c1.21-0.374,3.498-2.002,3.498-4.422
			c0-1.387-0.836-2.376-1.782-3.059c-0.946-0.682-1.737-1.122-1.737-1.892c0-0.374,0.197-1.101,0.483-1.76
			c0.286-0.683,0.683-1.343,0.968-1.431c0.286-0.088,0.727-0.153,1.43-0.264l1.541-0.22c0.813-0.11,0.967-0.177,1.209-0.33
			c0.199,0.021,0.265,0.153,0.242,0.286c-0.154,0.483-0.55,1.319-1.254,1.407l-2.794,0.396c-0.638,0.088-0.771,0.264-0.858,0.616
			c-0.131,0.396,0,0.638,0.617,1.056c0.352,0.242,0.748,0.506,1.033,0.704c1.43,0.99,2.442,2.244,2.442,3.981
			C119.606,223.204,116.35,225.229,114.744,225.712z"/>
		<path fill="#FFFFFF" d="M134.258,217.286c0,2.464-1.957,4.378-4.488,4.378c-2.42,0-4.025-1.825-4.025-4.575
			c0-2.135,0.88-4.664,3.102-6.71c2.354-2.179,5.28-2.883,6.139-3.015c0.154,0.066,0.22,0.33,0.066,0.44
			c-1.255,0.483-2.772,1.122-4.269,2.508c-2.002,1.848-3.233,4.18-3.233,6.93c0,1.849,0.857,3.718,2.684,3.718
			c1.386,0,2.375-1.165,2.375-2.882c0-1.518-0.77-3.124-2.463-3.124c-0.33,0-0.727,0.044-1.145,0.242
			c-0.154-0.044-0.242-0.22-0.154-0.396c0.793-0.572,1.475-0.88,2.267-0.88C133.137,213.921,134.258,215.526,134.258,217.286z"/>
		<path fill="#FFFFFF" d="M142.002,213.437c-1.1,0-1.716,0.154-2.156,1.144c-0.197,0.089-0.439,0-0.506-0.153
			c0.309-0.616,0.639-1.694,0.771-2.42c0.528,0.044,1.188,0.065,2.155,0.065h3.433c1.166,0,2.42,0,2.772-0.065
			c0.131,0.021,0.197,0.109,0.197,0.22c-0.594,0.88-1.672,2.815-2.794,4.95l-4.51,8.514c-0.065,0.021-0.065,0.021-0.22,0.021
			c-0.221,0-0.528-0.132-0.572-0.418l5.72-10.604c0.595-1.1,0.507-1.254-0.065-1.254H142.002z"/>
		<path fill="#FFFFFF" d="M160.746,210.862c0,1.782-1.43,2.706-2.662,3.477c1.43,1.077,2.574,2.023,2.574,4.069
			c0,1.958-1.605,3.256-3.607,3.256c-1.826,0-3.564-1.012-3.564-3.035c0-1.694,1.363-2.794,2.684-3.675
			c-1.275-0.857-2.552-2.09-2.552-3.695c0-2.223,1.782-3.564,3.784-3.564C159.141,207.694,160.746,208.772,160.746,210.862z
			 M154.96,218.496c0,1.343,0.813,2.509,2.179,2.509c1.319,0,2.067-0.902,2.067-2.156c0-1.54-1.407-2.772-2.53-3.498
			C155.686,216.099,154.96,217.198,154.96,218.496z M155.137,210.753c0,1.54,1.363,2.485,2.42,3.189
			c1.012-0.638,1.693-1.76,1.693-3.146c0-1.21-0.703-2.442-2.002-2.442C155.95,208.354,155.137,209.521,155.137,210.753z"/>
		<path fill="#FFFFFF" d="M166.136,225.712c-0.153-0.088-0.241-0.352-0.11-0.483c1.254-0.44,2.289-1.012,3.146-1.672
			c1.145-0.88,3.498-3.322,3.498-7.304c0-1.475-0.484-3.763-2.618-3.763c-1.364,0-2.243,1.122-2.243,2.641
			c0,1.363,0.813,3.189,2.287,3.189c0.439,0,0.727-0.044,1.057-0.198c0.153,0.066,0.176,0.242,0.131,0.396
			c-0.571,0.462-1.254,0.77-2.133,0.77c-1.694,0-2.904-1.451-2.904-3.256c0-2.529,2.023-4.268,4.312-4.268
			c2.64,0,3.916,1.914,3.916,4.598c0,2.244-0.946,4.73-3.233,6.842C169.699,224.612,167.72,225.427,166.136,225.712z"/>
	</g>
	<g>
		<path fill="#FFFFFF" d="M163.527,81.173c1.936-0.646,2.064-1.807,2.193-3.741l0.129-5.935c0.129-4.772-1.419-11.223-9.417-11.223
			c-3.612,0-7.999,1.806-8.257,5.805c-0.129,2.064-0.258,3.612-1.289,4.387c-1.936,1.548-5.418,2.451-7.354,2.451
			c-1.161,0-1.807-0.646-1.807-1.807c0-6.708,14.578-15.867,23.995-15.867c9.288,0,13.803,5.418,13.416,15.094l-0.774,22.446
			c-0.258,5.934,0.903,11.223,5.935,11.223c1.29,0,2.45-0.387,3.226-0.774c0.645-0.387,1.289-0.902,1.676-0.902
			c0.517,0,0.903,0.773,0.903,1.677c0,0.646-4.515,5.676-10.836,5.676c-3.097,0-6.192-1.161-8.386-3.999
			c-0.516-0.773-1.289-1.806-2.063-1.806c-0.903,0-2.45,1.161-5.03,2.58c-2.839,1.548-5.677,3.225-9.289,3.225
			c-3.74,0-6.837-1.031-9.029-2.967c-2.451-2.193-4-5.418-4-9.03c0-5.031,2.451-7.998,10.707-10.965L163.527,81.173z
			 M155.529,103.877c2.58,0,6.579-1.935,7.869-3.225c1.548-1.549,1.678-3.354,1.678-6.063l0.258-7.611
			c0-1.419-0.517-1.677-1.291-1.677c-0.773,0-2.967,0.516-5.289,1.29c-7.61,2.58-11.352,4.515-11.352,9.546
			C147.402,98.33,148.95,103.877,155.529,103.877z M158.883,50.857c-1.031,0.129-1.935-0.517-2.063-1.548l11.739-21.802
			c0.902-1.677,1.936-2.967,2.838-3.096c1.161-0.129,2.451,0.387,3.999,1.677s2.322,2.451,2.322,3.483
			c0,0.902-0.646,2.321-2.193,3.87L158.883,50.857z"/>
	</g>
	<g>
		<path d="M27.149,69.195c-0.168-0.527-0.264-0.6-0.984-0.6h-3.624c-0.6,0-0.744,0.072-0.912,0.576l-0.84,2.52
			c-0.36,1.08-0.528,1.729-0.528,1.992c0,0.288,0.12,0.432,0.696,0.48l0.792,0.071c0.168,0.12,0.168,0.504-0.048,0.601
			c-0.624-0.048-1.368-0.048-2.496-0.072c-0.792,0-1.656,0.048-2.304,0.072c-0.144-0.097-0.192-0.48-0.048-0.601l0.792-0.071
			c0.576-0.049,1.104-0.312,1.44-1.177c0.432-1.104,1.104-2.664,2.112-5.352l2.448-6.48c0.336-0.863,0.48-1.319,0.408-1.704
			c0.576-0.168,0.984-0.6,1.248-0.912c0.144,0,0.312,0.049,0.36,0.217c0.312,1.056,0.696,2.16,1.056,3.216l3.288,9.648
			c0.696,2.063,1.008,2.424,2.04,2.544l0.648,0.071c0.168,0.12,0.12,0.504,0,0.601c-0.984-0.048-1.824-0.072-2.904-0.072
			c-1.152,0-2.064,0.048-2.76,0.072c-0.192-0.097-0.216-0.48-0.048-0.601l0.696-0.071c0.504-0.049,0.84-0.192,0.84-0.433
			c0-0.264-0.12-0.695-0.312-1.271L27.149,69.195z M22.397,67.06c-0.192,0.552-0.168,0.576,0.504,0.576h2.952
			c0.696,0,0.744-0.096,0.528-0.744l-1.296-3.912c-0.192-0.576-0.408-1.224-0.552-1.512h-0.048c-0.072,0.12-0.312,0.696-0.576,1.416
			L22.397,67.06z"/>
		<path d="M38.621,69.796c0.36-0.12,0.384-0.336,0.408-0.696l0.024-1.104c0.024-0.889-0.264-2.089-1.752-2.089
			c-0.672,0-1.488,0.336-1.536,1.08c-0.024,0.385-0.048,0.672-0.24,0.816c-0.36,0.288-1.008,0.456-1.368,0.456
			c-0.216,0-0.336-0.12-0.336-0.336c0-1.248,2.712-2.952,4.464-2.952c1.728,0,2.568,1.008,2.496,2.808l-0.144,4.177
			c-0.048,1.104,0.168,2.088,1.104,2.088c0.24,0,0.456-0.072,0.6-0.145c0.12-0.071,0.24-0.168,0.312-0.168
			c0.096,0,0.168,0.145,0.168,0.312c0,0.12-0.84,1.056-2.016,1.056c-0.576,0-1.152-0.216-1.56-0.744
			c-0.096-0.144-0.24-0.336-0.384-0.336c-0.168,0-0.456,0.216-0.936,0.48c-0.528,0.288-1.056,0.6-1.728,0.6
			c-0.696,0-1.272-0.192-1.68-0.552c-0.456-0.408-0.744-1.008-0.744-1.681c0-0.936,0.456-1.487,1.992-2.039L38.621,69.796z
			 M37.133,74.02c0.48,0,1.224-0.36,1.464-0.6c0.288-0.288,0.312-0.624,0.312-1.128l0.048-1.416c0-0.265-0.096-0.312-0.24-0.312
			s-0.552,0.096-0.984,0.24c-1.416,0.479-2.112,0.84-2.112,1.776C35.621,72.987,35.909,74.02,37.133,74.02z"/>
	</g>
	<g>
		<path d="M30.074,103.756c0.144,0.145,0.072,0.504-0.096,0.601c-0.744-0.048-1.656-0.072-2.712-0.072
			c-1.104,0-2.04,0.024-2.76,0.072c-0.24-0.097-0.24-0.504-0.024-0.601l0.744-0.071c0.528-0.049,0.84-0.24,0.936-0.385
			c0.072-0.12,0.192-0.456,0.264-1.487l0.216-3.217c0.024-0.552,0-0.624-0.504-0.624h-3.456c-0.72,0-0.768,0.024-1.224,0.744
			l-1.752,2.736c-0.84,1.32-1.08,1.68-1.08,1.8c0,0.145,0.096,0.288,0.552,0.36l0.888,0.144c0.192,0.145,0.12,0.504-0.048,0.601
			c-0.744-0.048-1.488-0.072-2.448-0.072c-0.936,0-1.8,0.024-2.664,0.072c-0.12-0.145-0.096-0.456,0.048-0.601l0.648-0.071
			c0.72-0.097,1.248-0.433,1.728-1.009c0.696-0.863,2.112-2.76,3.96-5.399l4.224-5.952c1.032-1.44,1.344-2.064,1.44-2.472
			c0.816-0.12,1.704-0.793,1.752-0.793c0.12,0,0.288,0.097,0.288,0.192c0,0.408-0.12,1.44-0.24,3.528l-0.48,9.072
			c-0.144,2.664-0.12,2.688,1.176,2.832L30.074,103.756z M26.258,97.012c0.408,0,0.456-0.048,0.48-0.479l0.384-5.256
			c0-0.336,0-0.624-0.048-0.624c-0.072,0-0.216,0.144-0.912,1.176l-3.336,4.824c-0.192,0.288-0.12,0.359,0.408,0.359H26.258z"/>
		<path d="M40.753,93.94c0.408-0.192,1.032,0.048,1.176,0.359c-0.36,0.889-2.448,6.192-3.216,8.376
			c-0.144,0.408-0.024,0.553,0.168,0.553c0.408,0,1.104-0.408,2.472-1.608c0.168,0,0.336,0.12,0.336,0.312
			c-1.008,1.344-2.712,2.688-4.032,2.688c-0.552,0-0.696-0.456-0.696-0.648c0-0.168,0.048-0.384,0.24-0.936l0.792-2.16l-0.072-0.023
			c-1.704,2.111-4.152,3.768-5.28,3.768c-0.672,0-1.056-0.672-1.056-1.344c0-0.552,0.528-2.473,2.112-4.656
			c1.152-1.584,2.184-2.544,3.168-3.096c0.936-0.528,1.536-0.696,2.16-0.696c0.264,0,0.432,0.072,0.576,0.144
			c0.096,0.049,0.36,0.265,0.48,0.505L40.753,93.94z M36.578,96.676c-1.536,1.368-3,4.513-3,6.217c0,0.287,0.144,0.456,0.36,0.456
			c0.24,0,0.96-0.312,2.328-1.561c1.824-1.704,2.832-3.768,3.216-5.184c-0.168-0.456-0.576-0.864-1.2-0.864
			C37.706,95.74,37.321,96.004,36.578,96.676z"/>
	</g>
	<g>
		<path d="M68.175,66.771c0,3.96-2.448,7.008-5.808,8.017c-0.048,0.119,0.048,0.216,0.192,0.359
			c1.224,1.176,3.432,3.145,5.352,3.769c0.888,0.288,1.68,0.336,2.232,0.336c0.24,0,0.816-0.072,1.152-0.216
			c0.144,0.023,0.192,0.239,0.12,0.359c-0.768,0.433-1.848,0.624-2.688,0.624c-1.104,0-2.472-0.24-3.888-0.888
			c-1.968-0.912-3.552-2.304-4.44-3.168c-0.72-0.72-0.936-0.769-1.608-0.889c-0.624-0.096-1.488-0.264-2.352-0.575
			c-3.192-1.225-5.136-4.057-5.136-7.488c0-4.8,3.6-8.473,8.544-8.473C65.391,58.539,68.175,62.548,68.175,66.771z M65.775,67.516
			c0-3.96-1.752-8.232-6.336-8.232c-2.496,0-5.736,1.704-5.736,6.96c0,3.553,1.728,8.16,6.456,8.16
			C63.039,74.403,65.775,72.244,65.775,67.516z"/>
		<path d="M80.031,78.195c0,1.729,0.072,1.896,0.912,2.04l0.696,0.12c0.168,0.12,0.12,0.528-0.048,0.601
			c-0.912-0.048-1.608-0.072-2.448-0.072c-0.864,0-1.584,0.024-2.496,0.072c-0.168-0.072-0.216-0.48-0.048-0.601l0.744-0.071
			c0.888-0.097,0.912-0.36,0.912-2.089v-3.12c0-0.455-0.024-0.575-0.216-0.575c-0.624,0.359-1.512,0.6-2.448,0.6
			c-3.576,0-4.872-2.832-4.872-4.704c0-3.479,2.664-5.424,5.76-5.424c0.792,0,1.656,0.144,1.992,0.24
			c0.36,0.096,0.624,0.168,0.84,0.168c0.192,0,0.384-0.168,0.648-0.408c0.12,0,0.216,0.096,0.264,0.216
			c-0.144,0.576-0.192,1.393-0.192,2.904V78.195z M78.255,69.22c0-1.248-0.12-2.04-0.312-2.4c-0.336-0.6-1.032-1.104-2.064-1.104
			c-1.824,0-3.144,1.656-3.144,3.912c0,2.64,1.536,4.512,3.792,4.512c1.056,0,1.44-0.24,1.56-0.384
			c0.12-0.145,0.168-0.433,0.168-0.96V69.22z"/>
	</g>
	<g>
		<path d="M67.963,92.115c-0.12,2.664-1.344,5.616-3.24,7.416c-1.056,1.009-2.4,1.92-3.936,2.28c-0.168,0.096-0.144,0.24-0.024,0.36
			c1.152,1.151,3.192,3.048,5.136,3.744c0.792,0.288,1.56,0.312,2.064,0.312c0.528,0,1.056-0.096,1.368-0.24
			c0.144,0.072,0.168,0.24,0.12,0.36c-0.672,0.48-1.848,0.672-2.688,0.672c-3.168,0-6.192-2.112-7.992-4.368
			c-0.288-0.359-0.576-0.527-1.104-0.552c-1.704-0.096-5.16-1.56-5.088-6.216c0.096-2.952,1.296-6,3.84-8.16
			c1.896-1.608,3.912-2.185,5.856-2.185C65.419,85.539,68.179,87.676,67.963,92.115z M58.579,87.724
			c-1.728,1.464-3.84,4.896-3.984,9.072c-0.072,2.256,0.84,4.607,4.008,4.607c1.176,0,2.52-0.336,4.008-1.92
			c2.16-2.328,3.216-5.808,3.336-8.424c0.096-3.048-1.368-4.776-3.768-4.776C60.643,86.283,59.419,87.004,58.579,87.724z"/>
		<path d="M75.523,105.58c-0.408,1.271-0.36,1.68,0.264,1.728l0.792,0.072c0.12,0.144,0.096,0.432-0.096,0.528
			c-0.888,0.048-3.672,0.432-5.184,0.695c-0.192-0.096-0.24-0.408-0.096-0.552l1.104-0.336c1.032-0.312,1.176-0.744,1.536-1.872
			l2.76-8.568h-0.048c-1.104,1.584-3.624,4.824-5.976,4.824c-1.032,0-1.464-0.912-1.464-1.8c0-0.816,0.192-2.136,1.2-3.816
			c0.936-1.584,2.304-3,3.672-3.744c1.032-0.552,1.776-0.768,2.736-0.768c0.648,0,1.152,0.6,1.296,1.32
			c0.336-0.553,0.888-1.416,1.296-1.944c0.216-0.048,0.528,0.048,0.552,0.288c-0.24,0.72-0.6,1.944-1.464,4.728L75.523,105.58z
			 M74.347,93.651c-1.56,1.44-3.504,4.944-3.504,6.696c0,0.384,0.192,0.672,0.528,0.672c0.36,0,1.128-0.408,2.016-1.152
			c0.984-0.84,2.304-2.231,3.024-3.455c0.648-1.152,0.672-1.849,0.672-2.353c0-0.479-0.288-1.368-0.864-1.368
			C75.787,92.691,75.139,92.932,74.347,93.651z"/>
	</g>
	<g>
		<path d="M93.054,62.548c0-2.28-0.072-2.688-1.056-2.809l-0.768-0.096c-0.168-0.12-0.168-0.504,0.024-0.6
			c1.344-0.12,3-0.192,5.352-0.192c1.488,0,2.904,0.12,4.008,0.72c1.152,0.601,1.992,1.681,1.992,3.36c0,2.28-1.8,3.528-3,4.008
			c-0.12,0.145,0,0.384,0.12,0.576c1.92,3.096,3.192,5.016,4.823,6.384c0.408,0.36,1.009,0.624,1.656,0.672
			c0.121,0.049,0.145,0.24,0.024,0.336c-0.216,0.072-0.601,0.12-1.056,0.12c-2.041,0-3.264-0.6-4.969-3.023
			c-0.624-0.889-1.607-2.544-2.352-3.624c-0.36-0.528-0.744-0.769-1.704-0.769c-1.08,0-1.128,0.024-1.128,0.528v3.024
			c0,2.52,0.048,2.808,1.44,3l0.504,0.071c0.144,0.12,0.096,0.528-0.048,0.601c-1.08-0.048-1.896-0.072-2.856-0.072
			c-1.008,0-1.872,0.024-3,0.072c-0.144-0.072-0.192-0.433-0.048-0.601l0.6-0.071c1.392-0.168,1.44-0.48,1.44-3V62.548z
			 M95.021,65.979c0,0.432,0,0.696,0.072,0.792c0.072,0.072,0.432,0.12,1.656,0.12c0.864,0,1.776-0.096,2.472-0.624
			c0.648-0.504,1.2-1.344,1.2-2.976c0-1.896-1.176-3.696-3.84-3.696c-1.488,0-1.56,0.096-1.56,0.768V65.979z"/>
		<path d="M108.413,67.876c0-0.937,0-1.057-0.647-1.488l-0.217-0.145c-0.096-0.096-0.096-0.359,0.024-0.432
			c0.552-0.192,1.823-0.816,2.424-1.176c0.12,0.023,0.192,0.072,0.192,0.168v1.392c0,0.12,0.023,0.192,0.072,0.216
			c0.84-0.695,1.752-1.439,2.639-1.439c0.601,0,1.08,0.384,1.08,0.96c0,0.792-0.647,1.104-1.031,1.104
			c-0.24,0-0.36-0.071-0.528-0.168c-0.36-0.239-0.72-0.384-1.056-0.384c-0.385,0-0.672,0.216-0.864,0.48
			c-0.239,0.336-0.312,1.032-0.312,1.848v3.264c0,1.729,0.048,2.017,0.959,2.089l0.865,0.071c0.168,0.12,0.119,0.528-0.049,0.601
			c-1.128-0.048-1.824-0.072-2.664-0.072c-0.863,0-1.584,0.024-2.207,0.072c-0.169-0.072-0.217-0.48-0.049-0.601l0.456-0.071
			c0.888-0.145,0.912-0.36,0.912-2.089V67.876z"/>
	</g>
	<g>
		<path d="M95.407,91.853c0.72-2.28,0.6-2.545-0.216-2.593l-0.912-0.096c-0.12-0.192-0.096-0.504,0.12-0.6
			c1.368-0.168,2.736-0.192,4.08-0.192c2.304,0,3.697,0.48,4.537,1.248c0.84,0.744,1.104,1.728,1.104,2.736
			c0,2.424-2.304,3.936-4.128,4.248c-0.336,0.048-0.384,0.168-0.288,0.575c0.312,1.297,0.768,2.881,1.2,4.152
			c0.552,1.608,0.815,2.328,2.376,2.496c0.168,0.096,0.048,0.384,0,0.456c-0.385,0.048-0.792,0.072-1.512,0.072
			c-1.152,0-1.824-0.216-2.232-1.416c-0.6-1.776-1.032-3.168-1.416-4.656c-0.288-1.104-0.432-1.2-1.2-1.2
			c-1.248,0-1.368,0.072-1.584,0.769l-0.936,2.976c-0.72,2.232-0.768,2.688,0.48,2.856l0.576,0.071
			c0.144,0.168,0.072,0.504-0.096,0.601c-1.008-0.048-1.92-0.072-2.88-0.072c-0.984,0-1.8,0.024-2.544,0.072
			c-0.192-0.12-0.192-0.456-0.024-0.601l0.528-0.071c1.152-0.145,1.392-0.408,2.16-2.856L95.407,91.853z M96.127,95.38
			c-0.264,0.984-0.264,1.008,0.96,1.008c2.496,0,5.016-1.703,5.064-4.344c0.071-1.872-1.08-2.928-3.144-2.928
			c-0.936,0-1.008,0.144-1.2,0.768L96.127,95.38z"/>
		<path d="M108.895,96.772l-1.031,3.023h0.119c0.721-1.344,1.896-3.264,2.521-4.056c0.551-0.72,1.151-1.248,1.752-1.248
			c0.84,0,0.959,0.815,0.959,1.176s-0.216,1.056-0.504,1.44c-0.287,0.359-0.672,0.384-0.768-0.12
			c-0.12-0.624-0.264-0.937-0.504-0.937c-0.217,0-0.48,0.24-0.84,0.721c-1.465,1.872-2.809,4.8-4.08,7.56
			c-0.096,0.192-0.217,0.288-0.408,0.288c-0.264,0-0.96-0.096-0.792-0.624c0.312-0.96,1.823-5.208,2.472-7.56
			c0.072-0.265,0.023-0.505-0.191-0.505c-0.625,0-1.272,0.673-1.705,1.248c-0.239,0.049-0.407-0.096-0.383-0.384
			c0.768-1.296,1.68-2.304,2.832-2.304C109.543,94.492,109.111,96.124,108.895,96.772z"/>
	</g>
	<g>
		<path fill="#929497" d="M63.493,125.966c0.768,0,1.272-0.024,1.68-0.145c0.192-0.048,0.384-0.24,0.528-0.479
			c0.096-0.048,0.288-0.024,0.336,0.071c-0.264,0.937-0.432,2.881-0.36,3.456c-0.072,0.12-0.312,0.145-0.432,0.049
			c-0.168-0.937-0.36-1.513-0.648-1.752c-0.624-0.528-1.536-0.648-2.856-0.648h-1.656c-0.72,0-0.744,0.024-0.744,0.936v10.561
			c0,1.392,0.072,2.568,0.336,2.928c0.24,0.288,0.744,0.408,1.128,0.456l0.816,0.096c0.096,0.12,0.096,0.288-0.024,0.385
			c-1.032-0.048-1.92-0.072-3.144-0.072c-1.392,0-2.376,0.024-3.36,0.072c-0.12-0.097-0.12-0.265-0.024-0.385l1.056-0.119
			c0.384-0.049,0.816-0.145,1.056-0.433c0.264-0.336,0.336-1.536,0.336-2.928v-10.561c0-0.911-0.024-0.936-0.744-0.936H55.38
			c-1.488,0-2.52,0.072-3.024,0.6c-0.552,0.553-0.816,1.104-1.128,1.704c-0.144,0.048-0.384,0-0.432-0.168
			c0.384-0.983,0.768-2.399,0.912-3.288c0.12-0.071,0.24-0.071,0.336,0c0.048,0.12,0.144,0.336,0.408,0.433
			c0.264,0.096,1.104,0.168,1.728,0.168H63.493z"/>
		<path fill="#929497" d="M72.78,129.758c0-1.368-0.096-2.353-0.288-2.664c-0.192-0.312-0.48-0.528-1.056-0.576l-0.552-0.048
			c-0.096-0.096-0.096-0.265,0.024-0.384c1.848-0.168,3.48-0.192,5.4-0.192c1.344,0,2.832,0.144,3.864,0.696
			c1.152,0.624,1.992,1.775,1.992,3.456c0,2.16-1.752,3.456-2.976,3.912c-0.096,0.168-0.024,0.384,0.096,0.6
			c1.92,3.096,3.192,5.016,4.896,6.504c0.456,0.408,1.032,0.576,1.824,0.601c0.072,0.071,0.072,0.239,0,0.287
			c-0.24,0.049-0.6,0.12-0.984,0.12c-2.208,0-3.36-0.6-5.064-3.023c-0.624-0.889-1.632-2.521-2.4-3.648
			c-0.36-0.528-0.648-0.815-1.608-0.815c-1.296,0-1.344,0.048-1.344,0.6v2.784c0,1.392,0.072,2.592,0.336,2.952
			c0.24,0.312,0.744,0.407,1.128,0.479l0.48,0.096c0.072,0.12,0.072,0.312-0.048,0.385c-1.128-0.048-1.848-0.072-2.808-0.072
			s-1.68,0.024-2.928,0.072c-0.12-0.072-0.12-0.265-0.048-0.385l0.6-0.096c0.384-0.072,0.888-0.168,1.128-0.479
			c0.264-0.36,0.336-1.561,0.336-2.952V129.758z M74.604,133.237c0,0.385,0.048,0.528,0.12,0.624
			c0.096,0.097,0.552,0.168,1.584,0.168c0.984,0,1.92-0.096,2.592-0.624c0.672-0.527,1.248-1.344,1.248-3.048
			c0-2.016-1.224-3.912-3.84-3.912c-0.72,0-1.368,0.072-1.512,0.216c-0.144,0.097-0.168,0.385-0.192,1.248V133.237z"/>
		<path fill="#929497" d="M93.204,137.966c0,1.392,0.072,2.592,0.336,2.952c0.24,0.312,0.744,0.407,1.128,0.479l0.6,0.096
			c0.072,0.12,0.072,0.312-0.048,0.385c-1.248-0.048-1.968-0.072-2.928-0.072s-1.68,0.024-2.928,0.072
			c-0.12-0.072-0.12-0.265-0.048-0.385l0.6-0.096c0.384-0.072,0.888-0.168,1.128-0.479c0.264-0.36,0.336-1.561,0.336-2.952v-8.16
			c0-1.393-0.072-2.616-0.336-2.952c-0.24-0.312-0.744-0.408-1.128-0.479l-0.576-0.097c-0.096-0.144-0.096-0.288,0.024-0.384
			c1.176,0.048,1.944,0.072,2.928,0.072c1.032,0,1.872-0.024,2.952-0.072c0.12,0.072,0.12,0.24,0.024,0.384l-0.6,0.097
			c-0.384,0.071-0.888,0.168-1.128,0.479c-0.264,0.36-0.336,1.56-0.336,2.952V137.966z"/>
		<path fill="#929497" d="M104.557,135.422c-0.576,0-0.625,0.023-0.769,0.504l-1.272,3.744c-0.191,0.576-0.264,0.863-0.264,1.176
			c0,0.264,0.168,0.408,0.721,0.504l0.888,0.144c0.071,0.12,0.071,0.288-0.024,0.385c-0.648-0.048-1.392-0.048-2.376-0.072
			c-0.864,0-1.536,0.024-2.256,0.072c-0.12-0.097-0.12-0.265-0.048-0.385l0.912-0.216c0.576-0.12,0.84-0.264,1.271-1.271
			c0.48-1.08,0.984-2.353,2.137-5.328l2.399-6.36c0.408-1.08,0.433-1.488,0.384-1.824c0.912-0.359,1.08-0.912,1.152-0.912
			c0.168,0,0.264,0.049,0.312,0.217c0.144,0.407,0.432,1.416,1.224,3.744l3.144,9.12c0.721,2.088,0.984,2.52,1.969,2.712l0.72,0.119
			c0.097,0.097,0.071,0.288-0.024,0.385c-0.744-0.048-1.535-0.072-2.783-0.072c-0.961,0-1.849,0.048-2.616,0.072
			c-0.12-0.097-0.144-0.265-0.048-0.385l0.695-0.144c0.504-0.096,0.793-0.216,0.793-0.576c0-0.264-0.121-0.695-0.312-1.271
			l-1.152-3.576c-0.168-0.504-0.24-0.504-0.768-0.504H104.557z M108.252,134.678c0.648,0,0.624-0.024,0.408-0.648l-1.344-4.008
			c-0.192-0.6-0.432-1.416-0.648-1.824c-0.096,0.24-0.527,1.152-0.96,2.376l-1.248,3.48c-0.239,0.6-0.239,0.624,0.456,0.624H108.252
			z"/>
		<path fill="#929497" d="M133.451,137.726c0,0.72,0,3.672,0.097,4.224c-0.024,0.12-0.12,0.217-0.312,0.24
			c-0.289-0.408-0.912-1.296-2.353-2.928l-6.456-7.272c-1.801-2.04-2.28-2.615-2.712-3c-0.24,0-0.24,0.36-0.24,1.488v5.424
			c0,1.128,0.048,4.248,0.456,4.969c0.168,0.264,0.6,0.432,1.199,0.527l0.721,0.096c0.096,0.097,0.072,0.337-0.023,0.385
			c-0.961-0.048-1.849-0.072-2.761-0.072c-0.888,0-1.536,0.024-2.353,0.072c-0.096-0.072-0.119-0.24-0.023-0.385l0.648-0.119
			c0.455-0.097,0.912-0.288,1.008-0.528c0.384-0.864,0.359-4.08,0.359-4.944v-5.04c0-2.496,0.024-3.336-0.647-3.936
			c-0.36-0.288-0.84-0.433-1.416-0.552l-0.504-0.097c-0.097-0.144-0.072-0.312,0.048-0.384c0.816,0.048,1.584,0.072,2.376,0.072
			c0.552,0,0.96-0.024,1.296-0.072c0.48,1.128,2.137,3.096,4.057,5.184l2.375,2.616c1.129,1.248,3.648,4.08,4.272,4.681
			c0.12-0.097,0.12-0.576,0.12-1.248v-5.257c0-1.128-0.048-4.248-0.456-4.968c-0.168-0.264-0.601-0.432-1.2-0.527l-0.72-0.097
			c-0.097-0.096-0.071-0.336,0.024-0.384c0.959,0.048,1.848,0.072,2.76,0.072c0.888,0,1.536-0.024,2.352-0.072
			c0.096,0.072,0.12,0.24,0.024,0.384l-0.647,0.12c-0.457,0.096-0.912,0.288-1.009,0.528c-0.384,0.864-0.36,4.08-0.36,4.943V137.726
			z"/>
		<path fill="#929497" d="M157.476,133.79c0,4.92-3.624,8.399-8.304,8.399c-5.28,0-8.424-3.815-8.424-8.136
			c0-4.8,3.6-8.473,8.471-8.473C154.644,125.581,157.476,129.518,157.476,133.79z M142.907,133.214c0,3.672,1.752,8.424,6.505,8.424
			c3.096,0,5.903-2.04,5.903-7.2c0-3.768-1.752-8.304-6.456-8.304C146.195,126.134,142.907,127.813,142.907,133.214z"/>
		<path fill="#929497" d="M177.828,137.726c0,0.72,0,3.672,0.096,4.224c-0.024,0.12-0.12,0.217-0.312,0.24
			c-0.287-0.408-0.912-1.296-2.352-2.928l-6.456-7.272c-1.8-2.04-2.28-2.615-2.712-3c-0.24,0-0.24,0.36-0.24,1.488v5.424
			c0,1.128,0.048,4.248,0.456,4.969c0.168,0.264,0.601,0.432,1.2,0.527l0.72,0.096c0.097,0.097,0.072,0.337-0.024,0.385
			c-0.959-0.048-1.848-0.072-2.76-0.072c-0.888,0-1.535,0.024-2.352,0.072c-0.096-0.072-0.12-0.24-0.024-0.385l0.647-0.119
			c0.457-0.097,0.912-0.288,1.009-0.528c0.384-0.864,0.36-4.08,0.36-4.944v-5.04c0-2.496,0.023-3.336-0.648-3.936
			c-0.359-0.288-0.84-0.433-1.416-0.552l-0.504-0.097c-0.096-0.144-0.072-0.312,0.048-0.384c0.815,0.048,1.584,0.072,2.376,0.072
			c0.553,0,0.96-0.024,1.296-0.072c0.479,1.128,2.136,3.096,4.056,5.184l2.377,2.616c1.127,1.248,3.647,4.08,4.271,4.681
			c0.12-0.097,0.12-0.576,0.12-1.248v-5.257c0-1.128-0.048-4.248-0.456-4.968c-0.168-0.264-0.6-0.432-1.199-0.527l-0.721-0.097
			c-0.096-0.096-0.072-0.336,0.023-0.384c0.961,0.048,1.849,0.072,2.761,0.072c0.888,0,1.536-0.024,2.353-0.072
			c0.096,0.072,0.119,0.24,0.023,0.384l-0.648,0.12c-0.455,0.096-0.912,0.288-1.008,0.528c-0.384,0.864-0.359,4.08-0.359,4.943
			V137.726z"/>
	</g>
</g>
</svg>
