<?xml version="1.0" encoding="utf-8"?>
<!-- Generator: Adobe Illustrator 12.0.1, SVG Export Plug-In . SVG Version: 6.00 Build 51448)  -->
<!DOCTYPE svg PUBLIC "-//W3C//DTD SVG 1.1//EN" "http://www.w3.org/Graphics/SVG/1.1/DTD/svg11.dtd" [
	<!ENTITY ns_svg "http://www.w3.org/2000/svg">
	<!ENTITY ns_xlink "http://www.w3.org/1999/xlink">
]>
<svg  version="1.1" id="Layer_1" xmlns="&ns_svg;" xmlns:xlink="&ns_xlink;" width="396" height="468" viewBox="0 0 396 468"
	 overflow="visible" enable-background="new 0 0 396 468" xml:space="preserve">
<g>
	<g>
		<defs>
			<rect id="XMLID_1_" width="396" height="468"/>
		</defs>
		<clipPath id="XMLID_3_">
			<use xlink:href="#XMLID_1_" />
		</clipPath>
		<rect clip-path="url(#XMLID_3_)" fill-rule="evenodd" clip-rule="evenodd" fill="#FFFFFF" width="396" height="468"/>
		<path clip-path="url(#XMLID_3_)" fill-rule="evenodd" clip-rule="evenodd" fill="#EAE8D0" d="M0,0h396v312H0V0z M0,0"/>
	</g>
	<rect y="312" fill-rule="evenodd" clip-rule="evenodd" fill="#FF695B" width="396" height="156"/>
	<g>
		<path fill="#1A1A1A" d="M33.625,30.095V41.72h12.25V30.095h6.688v30.344h-6.688V47.345h-12.25v13.094h-6.688V30.095H33.625z"/>
	</g>
	<g>
		<path fill="#1A1A1A" d="M63.603,55.177c0.907,0.883,2.21,1.324,3.91,1.324c1.218,0,2.267-0.304,3.145-0.913
			c0.878-0.608,1.417-1.252,1.615-1.931h5.312c-0.85,2.632-2.153,4.514-3.91,5.646s-3.881,1.698-6.375,1.698
			c-1.729,0-3.287-0.276-4.675-0.829c-1.388-0.553-2.563-1.339-3.526-2.359s-1.707-2.239-2.23-3.656
			c-0.524-1.417-0.786-2.976-0.786-4.676c0-1.644,0.269-3.174,0.807-4.591s1.302-2.643,2.293-3.677
			c0.991-1.034,2.173-1.849,3.547-2.444c1.374-0.595,2.897-0.893,4.569-0.893c1.87,0,3.499,0.361,4.887,1.083
			c1.388,0.722,2.529,1.691,3.421,2.908s1.537,2.604,1.934,4.16c0.396,1.557,0.539,3.184,0.425,4.881H62.115
			C62.2,52.872,62.696,54.295,63.603,55.177z M70.424,43.624c-0.723-0.79-1.82-1.186-3.293-1.186c-0.964,0-1.764,0.163-2.402,0.487
			c-0.638,0.325-1.147,0.727-1.53,1.207c-0.383,0.479-0.652,0.988-0.808,1.524s-0.248,1.016-0.276,1.439h9.817
			C71.649,45.571,71.146,44.414,70.424,43.624z"/>
		<path fill="#1A1A1A" d="M87.122,30.095v30.344h-6.031V30.095H87.122z"/>
		<path fill="#1A1A1A" d="M96.685,60.438L89.162,38.47h6.333l4.633,15h0.085l4.632-15h5.993L103.4,60.438H96.685z"/>
		<path fill="#1A1A1A" d="M119.149,55.177c0.907,0.883,2.21,1.324,3.91,1.324c1.218,0,2.267-0.304,3.145-0.913
			c0.878-0.608,1.417-1.252,1.615-1.931h5.312c-0.85,2.632-2.153,4.514-3.91,5.646s-3.881,1.698-6.375,1.698
			c-1.729,0-3.287-0.276-4.675-0.829c-1.388-0.553-2.563-1.339-3.526-2.359s-1.707-2.239-2.23-3.656
			c-0.524-1.417-0.786-2.976-0.786-4.676c0-1.644,0.269-3.174,0.807-4.591s1.302-2.643,2.293-3.677
			c0.991-1.034,2.173-1.849,3.547-2.444c1.374-0.595,2.897-0.893,4.569-0.893c1.87,0,3.499,0.361,4.887,1.083
			c1.388,0.722,2.529,1.691,3.421,2.908s1.537,2.604,1.934,4.16c0.396,1.557,0.539,3.184,0.425,4.881h-15.853
			C117.747,52.872,118.242,54.295,119.149,55.177z M125.97,43.624c-0.723-0.79-1.82-1.186-3.293-1.186
			c-0.964,0-1.764,0.163-2.402,0.487c-0.638,0.325-1.147,0.727-1.53,1.207c-0.383,0.479-0.652,0.988-0.808,1.524
			s-0.248,1.016-0.276,1.439h9.817C127.196,45.571,126.693,44.414,125.97,43.624z"/>
		<path fill="#1A1A1A" d="M148.527,38.47v4.031h-4.42v10.886c0,1.021,0.17,1.701,0.51,2.041c0.34,0.34,1.02,0.51,2.041,0.51
			c0.34,0,0.666-0.014,0.977-0.042s0.609-0.071,0.893-0.127v4.67c-0.51,0.087-1.077,0.146-1.7,0.175
			c-0.624,0.029-1.233,0.043-1.828,0.043c-0.935,0-1.82-0.064-2.655-0.191c-0.835-0.127-1.572-0.375-2.208-0.744
			c-0.637-0.368-1.14-0.893-1.508-1.573c-0.368-0.68-0.552-1.573-0.552-2.679V42.501h-3.655V38.47h3.655v-6.594h6.031v6.594H148.527
			z"/>
		<path fill="#1A1A1A" d="M150.959,35.063v-4.969h6.031v4.969H150.959z M156.991,38.466v21.973h-6.031V38.466H156.991z"/>
		<path fill="#1A1A1A" d="M171.617,42.438c-0.963,0-1.771,0.22-2.422,0.659c-0.652,0.439-1.183,1.005-1.594,1.699
			c-0.411,0.694-0.702,1.459-0.872,2.294s-0.255,1.664-0.255,2.485c0,0.793,0.085,1.6,0.255,2.421s0.446,1.565,0.829,2.23
			c0.382,0.666,0.899,1.211,1.551,1.636c0.651,0.425,1.445,0.637,2.38,0.637c1.445,0,2.557-0.403,3.336-1.211
			s1.268-1.891,1.466-3.251h5.823c-0.397,2.918-1.53,5.142-3.4,6.67s-4.264,2.292-7.182,2.292c-1.644,0-3.152-0.276-4.526-0.829
			c-1.374-0.553-2.542-1.325-3.505-2.317c-0.963-0.992-1.713-2.175-2.251-3.549s-0.807-2.884-0.807-4.528
			c0-1.7,0.248-3.28,0.743-4.739s1.225-2.721,2.188-3.784c0.963-1.062,2.138-1.892,3.526-2.487c1.388-0.595,2.974-0.893,4.759-0.893
			c1.303,0,2.557,0.17,3.761,0.511c1.204,0.341,2.281,0.858,3.23,1.554s1.721,1.561,2.316,2.597c0.595,1.036,0.935,2.263,1.02,3.682
			h-5.908C175.683,43.699,174.195,42.438,171.617,42.438z"/>
		<path fill="#1A1A1A" d="M185.698,41.696c0.622-0.934,1.414-1.684,2.375-2.25c0.961-0.566,2.043-0.969,3.245-1.21
			c1.202-0.24,2.411-0.361,3.627-0.361c1.103,0,2.22,0.078,3.351,0.234c1.131,0.156,2.163,0.461,3.097,0.914
			c0.933,0.453,1.696,1.084,2.29,1.892s0.892,1.877,0.892,3.209V55.56c0,0.992,0.057,1.941,0.17,2.848
			c0.113,0.907,0.312,1.587,0.595,2.041l-6.121-0.009c-0.113-0.339-0.205-0.685-0.276-1.038c-0.071-0.353-0.12-0.713-0.148-1.081
			c-0.961,0.993-2.092,1.688-3.393,2.085s-2.629,0.596-3.986,0.596c-1.046,0-2.022-0.128-2.927-0.383s-1.696-0.652-2.375-1.19
			s-1.208-1.219-1.59-2.041s-0.572-1.8-0.572-2.935c0-1.247,0.219-2.275,0.657-3.083c0.438-0.808,1.004-1.453,1.697-1.935
			c0.693-0.482,1.485-0.843,2.375-1.084s1.789-0.433,2.694-0.574s1.796-0.255,2.673-0.34s1.655-0.212,2.333-0.382
			s1.216-0.418,1.612-0.745s0.58-0.801,0.552-1.425c0-0.652-0.106-1.169-0.318-1.552s-0.494-0.68-0.847-0.893
			s-0.762-0.354-1.228-0.425s-0.967-0.106-1.503-0.106c-1.186,0-2.117,0.255-2.794,0.765c-0.678,0.51-1.073,1.359-1.186,2.548
			h-6.031C184.723,43.805,185.076,42.63,185.698,41.696z M197.59,50.222c-0.382,0.128-0.792,0.234-1.229,0.319
			s-0.897,0.156-1.377,0.212s-0.961,0.127-1.441,0.212c-0.452,0.085-0.897,0.199-1.335,0.34s-0.819,0.333-1.145,0.574
			s-0.586,0.545-0.784,0.914s-0.296,0.836-0.296,1.402c0,0.539,0.099,0.992,0.296,1.36s0.466,0.659,0.806,0.871
			c0.339,0.213,0.735,0.361,1.187,0.446s0.918,0.127,1.399,0.127c1.187,0,2.105-0.198,2.755-0.595s1.13-0.871,1.441-1.424
			c0.311-0.553,0.501-1.112,0.572-1.679c0.07-0.566,0.106-1.02,0.106-1.36v-2.252C198.29,49.917,197.972,50.095,197.59,50.222z"/>
	</g>
	<g>
		<path d="M42.459,362.514c-0.885,0-1.589-0.247-2.112-0.74c-0.523-0.492-0.785-1.3-0.785-2.42c-0.934,1.12-2.021,1.928-3.261,2.42
			c-1.24,0.493-2.581,0.74-4.021,0.74c-0.934,0-1.814-0.1-2.641-0.3s-1.554-0.532-2.181-0.999s-1.12-1.066-1.48-1.801
			c-0.36-0.732-0.54-1.619-0.54-2.658c0-1.174,0.2-2.133,0.6-2.879s0.927-1.354,1.581-1.82c0.654-0.466,1.401-0.818,2.242-1.059
			c0.84-0.24,1.701-0.439,2.582-0.6c0.934-0.188,1.821-0.327,2.662-0.42c0.84-0.094,1.581-0.227,2.221-0.4s1.147-0.427,1.521-0.76
			s0.561-0.82,0.561-1.459c0-0.746-0.14-1.347-0.42-1.8s-0.639-0.8-1.079-1.04s-0.933-0.399-1.479-0.479s-1.085-0.12-1.618-0.12
			c-1.438,0-2.637,0.272-3.596,0.817s-1.479,1.574-1.559,3.089H26.25c0.053-1.277,0.32-2.355,0.8-3.233s1.121-1.59,1.921-2.136
			c0.801-0.545,1.721-0.938,2.762-1.178c1.041-0.239,2.135-0.359,3.282-0.359c0.934,0,1.861,0.066,2.782,0.2
			c0.92,0.134,1.754,0.406,2.501,0.819s1.348,0.992,1.801,1.738s0.681,1.719,0.681,2.918v10.631c0,0.8,0.046,1.386,0.14,1.759
			c0.093,0.373,0.407,0.56,0.94,0.56c0.293,0,0.64-0.066,1.04-0.2v2.647C44.314,362.34,43.5,362.514,42.459,362.514z
			 M37.691,352.085c-0.695,0.147-1.423,0.267-2.185,0.36s-1.53,0.199-2.305,0.32c-0.775,0.119-1.47,0.312-2.085,0.58
			c-0.615,0.266-1.116,0.646-1.503,1.14s-0.581,1.167-0.581,2.02c0,0.56,0.113,1.033,0.341,1.42c0.227,0.387,0.521,0.7,0.882,0.94
			s0.789,0.414,1.283,0.52c0.494,0.107,0.996,0.16,1.503,0.16c1.122,0,2.084-0.153,2.886-0.46s1.457-0.692,1.965-1.159
			s0.882-0.974,1.123-1.521c0.24-0.547,0.361-1.06,0.361-1.54v-3.48C38.947,351.705,38.386,351.938,37.691,352.085z"/>
		<path d="M58.893,333.514V344.2h0.094c0.559-1.146,1.438-1.979,2.636-2.5c1.198-0.521,2.516-0.78,3.954-0.78
			c1.597,0,2.988,0.293,4.173,0.88s2.17,1.38,2.955,2.38s1.378,2.152,1.777,3.459c0.399,1.306,0.599,2.691,0.599,4.158
			s-0.193,2.853-0.579,4.158c-0.386,1.307-0.972,2.447-1.757,3.42s-1.771,1.739-2.955,2.299s-2.562,0.84-4.133,0.84
			c-0.506,0-1.072-0.054-1.697-0.16c-0.626-0.106-1.245-0.279-1.857-0.52s-1.191-0.566-1.737-0.98
			c-0.546-0.412-1.005-0.926-1.377-1.54h-0.094v2.761h-3.406v-28.561H58.893z M71.107,348.735c-0.253-0.919-0.64-1.738-1.16-2.458
			c-0.52-0.719-1.187-1.291-2-1.718s-1.767-0.64-2.859-0.64c-1.146,0-2.12,0.227-2.92,0.68s-1.453,1.046-1.959,1.778
			c-0.507,0.732-0.874,1.565-1.1,2.497c-0.227,0.934-0.34,1.879-0.34,2.838c0,1.012,0.12,1.991,0.36,2.938
			c0.24,0.945,0.62,1.777,1.14,2.497s1.193,1.299,2.02,1.738s1.827,0.659,3,0.659c1.173,0,2.153-0.227,2.939-0.68
			s1.42-1.052,1.9-1.798c0.479-0.746,0.826-1.599,1.04-2.558s0.32-1.944,0.32-2.957C71.487,350.594,71.36,349.654,71.107,348.735z"
			/>
		<path d="M98.75,345.002c-0.854-0.721-2-1.082-3.44-1.082c-1.227,0-2.253,0.227-3.08,0.68s-1.487,1.053-1.98,1.799
			s-0.847,1.604-1.06,2.576c-0.213,0.973-0.32,1.979-0.32,3.018c0,0.959,0.113,1.892,0.34,2.797c0.227,0.906,0.58,1.712,1.06,2.418
			s1.106,1.272,1.88,1.699c0.773,0.426,1.693,0.639,2.76,0.639c1.68,0,2.993-0.439,3.94-1.317c0.946-0.878,1.526-2.116,1.74-3.714
			h3.48c-0.374,2.561-1.327,4.533-2.86,5.92s-3.62,2.08-6.26,2.08c-1.574,0-2.967-0.254-4.18-0.76
			c-1.213-0.506-2.226-1.227-3.038-2.159s-1.424-2.046-1.837-3.339s-0.619-2.713-0.619-4.26c0-1.545,0.199-2.992,0.599-4.338
			s1.005-2.52,1.817-3.52c0.812-0.999,1.832-1.785,3.058-2.359c1.227-0.572,2.653-0.859,4.28-0.859c1.173,0,2.273,0.141,3.3,0.42
			c1.026,0.281,1.933,0.715,2.72,1.302s1.433,1.327,1.94,2.222c0.507,0.894,0.827,1.954,0.96,3.182h-3.52
			C100.164,346.736,99.604,345.723,98.75,345.002z"/>
		<path d="M130.264,362.074l0.007-2.801h-0.101c-0.56,1.146-1.438,1.974-2.636,2.48c-1.198,0.506-2.516,0.76-3.954,0.76
			c-1.598,0-2.989-0.293-4.173-0.879c-1.185-0.587-2.17-1.373-2.955-2.359s-1.377-2.133-1.777-3.439s-0.599-2.693-0.599-4.159
			s0.193-2.853,0.579-4.159c0.386-1.306,0.972-2.445,1.757-3.418s1.771-1.746,2.955-2.32c1.185-0.572,2.562-0.859,4.134-0.859
			c0.532,0,1.104,0.054,1.717,0.16c0.612,0.107,1.225,0.287,1.837,0.54s1.191,0.587,1.737,1s1.005,0.927,1.378,1.54h0.094v-10.646
			h3.406v28.561H130.264z M118.05,354.73c0.253,0.918,0.64,1.738,1.16,2.457s1.187,1.292,2,1.719
			c0.813,0.426,1.767,0.639,2.86,0.639c1.146,0,2.12-0.227,2.919-0.68s1.453-1.045,1.96-1.777c0.506-0.732,0.873-1.565,1.1-2.498
			s0.34-1.879,0.34-2.838c0-1.012-0.12-1.99-0.36-2.937c-0.24-0.946-0.62-1.778-1.14-2.497c-0.52-0.72-1.193-1.299-2.02-1.738
			s-1.827-0.66-3-0.66c-1.146,0-2.12,0.227-2.92,0.68s-1.44,1.053-1.919,1.799c-0.48,0.746-0.827,1.598-1.04,2.557
			s-0.32,1.945-0.32,2.957C117.67,352.871,117.796,353.811,118.05,354.73z"/>
		<path d="M160.881,360.754c-1.547,1.174-3.494,1.76-5.842,1.76c-1.654,0-3.088-0.267-4.302-0.8s-2.234-1.279-3.061-2.239
			c-0.827-0.959-1.448-2.105-1.861-3.439c-0.414-1.332-0.647-2.785-0.7-4.358c0-1.573,0.24-3.013,0.72-4.319
			c0.48-1.306,1.154-2.438,2.021-3.398c0.867-0.959,1.895-1.706,3.083-2.239s2.488-0.8,3.903-0.8c1.841,0,3.369,0.381,4.583,1.141
			s2.188,1.727,2.922,2.9c0.733,1.174,1.241,2.455,1.521,3.842s0.394,2.707,0.34,3.961h-15.5c-0.027,0.904,0.08,1.762,0.32,2.573
			s0.627,1.528,1.161,2.153c0.534,0.625,1.214,1.125,2.042,1.496c0.828,0.373,1.802,0.559,2.923,0.559
			c1.441,0,2.623-0.332,3.543-0.998c0.921-0.664,1.528-1.676,1.822-3.033h3.36C163.428,357.834,162.428,359.58,160.881,360.754z
			 M160.074,347.482c-0.308-0.721-0.722-1.341-1.243-1.861s-1.136-0.934-1.844-1.24c-0.708-0.307-1.49-0.461-2.345-0.461
			c-0.882,0-1.677,0.154-2.385,0.461c-0.708,0.307-1.316,0.727-1.824,1.26c-0.508,0.534-0.909,1.154-1.203,1.861
			s-0.468,1.461-0.521,2.262h11.906C160.562,348.963,160.381,348.203,160.074,347.482z"/>
		<path d="M172.966,344.389v-3h3.48v-3.075c0-1.677,0.486-2.948,1.458-3.813s2.389-1.299,4.252-1.299
			c0.319,0,0.686,0.027,1.098,0.08c0.413,0.054,0.779,0.133,1.098,0.24v2.959c-0.292-0.105-0.611-0.18-0.956-0.219
			c-0.345-0.041-0.664-0.061-0.956-0.061c-0.823,0-1.46,0.16-1.912,0.479c-0.451,0.32-0.677,0.932-0.677,1.836v2.873h4v3h-4v17.688
			h-3.406v-17.688H172.966z"/>
		<path d="M209.724,367.93c-1.546,1.682-3.973,2.521-7.278,2.521c-0.96,0-1.939-0.107-2.939-0.32s-1.906-0.56-2.719-1.039
			c-0.813-0.48-1.486-1.106-2.02-1.879c-0.533-0.774-0.827-1.721-0.88-2.841h3.406c0.026,0.613,0.22,1.134,0.58,1.561
			c0.36,0.427,0.8,0.772,1.32,1.04c0.521,0.266,1.088,0.459,1.701,0.58c0.613,0.119,1.199,0.18,1.76,0.18
			c1.121,0,2.067-0.193,2.841-0.58s1.413-0.92,1.921-1.6c0.506-0.68,0.873-1.499,1.1-2.459c0.227-0.959,0.34-2.012,0.34-3.159v-1.36
			h-0.08c-0.588,1.281-1.475,2.221-2.663,2.82c-1.188,0.601-2.45,0.9-3.785,0.9c-1.549,0-2.897-0.279-4.045-0.84
			c-1.148-0.561-2.109-1.314-2.884-2.262s-1.355-2.055-1.743-3.322s-0.581-2.609-0.581-4.023c0-1.228,0.16-2.488,0.48-3.783
			c0.32-1.293,0.854-2.468,1.603-3.521c0.748-1.055,1.735-1.922,2.964-2.602c1.228-0.682,2.738-1.021,4.527-1.021
			c1.309,0,2.51,0.287,3.604,0.86s1.95,1.435,2.563,2.581h0.039V341.4h3.188v18.927C212.043,363.715,211.27,366.25,209.724,367.93z
			 M205.391,358.626c0.789-0.467,1.424-1.08,1.905-1.841c0.481-0.76,0.835-1.621,1.063-2.581c0.227-0.96,0.34-1.921,0.34-2.882
			c0-0.906-0.106-1.8-0.32-2.68c-0.214-0.881-0.555-1.674-1.023-2.381c-0.467-0.707-1.076-1.274-1.824-1.701
			s-1.658-0.641-2.727-0.641c-1.097,0-2.032,0.207-2.808,0.621c-0.775,0.413-1.411,0.967-1.905,1.66s-0.855,1.494-1.083,2.4
			c-0.228,0.908-0.341,1.854-0.341,2.842c0,0.934,0.093,1.867,0.281,2.801c0.187,0.934,0.508,1.781,0.962,2.541
			c0.454,0.761,1.056,1.374,1.805,1.841c0.748,0.467,1.684,0.7,2.807,0.7S204.602,359.093,205.391,358.626z"/>
		<path d="M227.885,333.514v10.921h0.094c0.267-0.639,0.64-1.178,1.119-1.617s1.019-0.799,1.618-1.079
			c0.6-0.279,1.226-0.485,1.878-0.619c0.652-0.133,1.285-0.199,1.898-0.199c1.357,0,2.49,0.188,3.396,0.561
			c0.904,0.373,1.637,0.893,2.197,1.559c0.559,0.668,0.951,1.461,1.178,2.381s0.34,1.939,0.34,3.059v13.598h-3.406v-13.997
			c0-1.279-0.373-2.292-1.119-3.039s-1.771-1.12-3.077-1.12c-1.04,0-1.938,0.16-2.698,0.48s-1.393,0.773-1.898,1.359
			c-0.507,0.586-0.887,1.273-1.14,2.06s-0.38,1.646-0.38,2.579v11.678h-3.406v-28.562H227.885z"/>
		<path d="M254.227,337.67v-4.156h3.406v4.156H254.227z M257.633,341.396v20.68h-3.406v-20.68H257.633z"/>
		<path d="M272.49,368.691c-0.895,0.84-2.102,1.26-3.623,1.26c-0.615,0-1.189-0.054-1.723-0.16v-2.92
			c0.134,0.026,0.247,0.047,0.34,0.061c0.094,0.013,0.193,0.02,0.301,0.02h0.72c0.747,0,1.254-0.207,1.521-0.619
			c0.267-0.414,0.4-1.154,0.4-2.221v-22.721h3.406v23.281C273.832,366.512,273.385,367.852,272.49,368.691z M270.426,337.67v-4.156
			h3.406v4.156H270.426z"/>
		<path d="M290.031,333.514v16.922l9.44-9.041h4.56l-8.199,7.521l8.799,13.161h-4.319l-7.08-10.8l-3.2,2.96v7.84h-3.406v-28.562
			H290.031z"/>
		<path d="M318.111,333.514v28.562h-3.406v-28.562H318.111z"/>
		<path d="M333.924,341.4v3.039h0.074c1.549-2.346,3.779-3.52,6.689-3.52c1.281,0,2.443,0.268,3.484,0.801s1.775,1.439,2.203,2.719
			c0.693-1.119,1.607-1.986,2.742-2.6s2.383-0.92,3.744-0.92c1.041,0,1.982,0.113,2.823,0.34s1.562,0.58,2.162,1.061
			c0.601,0.479,1.067,1.1,1.401,1.859s0.5,1.673,0.5,2.739v15.157h-3.406V348.52c0-0.641-0.053-1.24-0.16-1.801
			c-0.106-0.559-0.307-1.046-0.6-1.459c-0.294-0.413-0.701-0.74-1.221-0.98c-0.521-0.239-1.194-0.359-2.021-0.359
			c-1.682,0-3.002,0.48-3.963,1.439c-0.961,0.961-1.441,2.24-1.441,3.84v12.877h-3.406V348.52c0-0.667-0.06-1.28-0.18-1.84
			c-0.12-0.561-0.327-1.047-0.621-1.46c-0.293-0.413-0.687-0.733-1.18-0.96c-0.494-0.227-1.128-0.34-1.902-0.34
			c-0.986,0-1.834,0.2-2.541,0.6c-0.707,0.4-1.281,0.881-1.721,1.439c-0.441,0.561-0.761,1.141-0.961,1.74s-0.301,1.1-0.301,1.5
			v12.877h-3.406V341.4H333.924z"/>
	</g>
	<g>
		<path d="M29.769,384.4v3.279h0.075c1.414-2.506,3.654-3.76,6.722-3.76c1.36,0,2.494,0.188,3.401,0.561
			c0.907,0.373,1.64,0.893,2.201,1.559c0.56,0.668,0.954,1.461,1.18,2.381s0.34,1.939,0.34,3.059v13.598h-3.406v-13.997
			c0-1.279-0.373-2.292-1.119-3.039s-1.772-1.12-3.078-1.12c-1.04,0-1.939,0.16-2.698,0.48c-0.76,0.32-1.393,0.773-1.899,1.359
			s-0.886,1.273-1.139,2.06s-0.379,1.646-0.379,2.579v11.678h-3.406V384.4H29.769z"/>
		<path d="M55.638,390.498c0.427-1.319,1.067-2.466,1.921-3.439c0.854-0.973,1.908-1.738,3.162-2.299
			c1.254-0.56,2.695-0.84,4.323-0.84c1.654,0,3.102,0.28,4.343,0.84c1.241,0.561,2.288,1.326,3.142,2.299
			c0.854,0.974,1.495,2.12,1.921,3.439c0.427,1.32,0.641,2.739,0.641,4.259s-0.214,2.933-0.641,4.239s-1.067,2.445-1.921,3.418
			c-0.854,0.974-1.901,1.733-3.142,2.279c-1.241,0.547-2.688,0.82-4.343,0.82c-1.628,0-3.069-0.273-4.323-0.82
			c-1.254-0.546-2.308-1.306-3.162-2.279c-0.854-0.973-1.495-2.111-1.921-3.418s-0.64-2.72-0.64-4.239
			S55.211,391.818,55.638,390.498z M59.092,398.09c0.334,0.973,0.795,1.785,1.383,2.438s1.276,1.152,2.064,1.498
			c0.788,0.347,1.624,0.52,2.505,0.52s1.717-0.173,2.505-0.52c0.788-0.346,1.477-0.846,2.064-1.498s1.049-1.465,1.383-2.438
			s0.501-2.086,0.501-3.338s-0.167-2.363-0.501-3.336s-0.795-1.792-1.383-2.458s-1.276-1.172-2.064-1.519
			c-0.788-0.346-1.623-0.52-2.505-0.52s-1.717,0.174-2.505,0.52c-0.788,0.347-1.476,0.853-2.064,1.519s-1.049,1.485-1.383,2.458
			s-0.501,2.084-0.501,3.336S58.758,397.117,59.092,398.09z"/>
		<path d="M89.933,384.4v2.799h0.094c0.559-1.146,1.438-1.979,2.636-2.5c1.198-0.52,2.516-0.779,3.954-0.779
			c1.597,0,2.988,0.293,4.173,0.88s2.17,1.38,2.955,2.38s1.378,2.152,1.777,3.459c0.399,1.306,0.599,2.691,0.599,4.158
			s-0.193,2.853-0.579,4.158c-0.386,1.307-0.972,2.447-1.757,3.42s-1.771,1.739-2.955,2.299s-2.562,0.84-4.133,0.84
			c-0.506,0-1.072-0.054-1.697-0.16c-0.626-0.106-1.245-0.279-1.857-0.52s-1.191-0.566-1.737-0.98
			c-0.546-0.412-1.005-0.926-1.377-1.539h-0.094v10.637h-3.406V384.4H89.933z M102.147,391.735c-0.253-0.919-0.64-1.738-1.16-2.458
			c-0.52-0.719-1.187-1.291-2-1.718s-1.767-0.64-2.859-0.64c-1.146,0-2.12,0.227-2.92,0.68s-1.453,1.046-1.959,1.778
			c-0.507,0.732-0.874,1.565-1.1,2.497c-0.227,0.934-0.34,1.879-0.34,2.838c0,1.012,0.12,1.991,0.36,2.938
			c0.24,0.945,0.62,1.777,1.14,2.497s1.193,1.299,2.02,1.738s1.827,0.659,3,0.659c1.173,0,2.153-0.227,2.939-0.68
			s1.42-1.052,1.9-1.798c0.479-0.746,0.826-1.599,1.04-2.558s0.32-1.944,0.32-2.957C102.527,393.594,102.4,392.654,102.147,391.735z
			"/>
		<path d="M132.504,412.951v-10.678h-0.062c-0.561,1.146-1.441,1.974-2.641,2.48c-1.2,0.506-2.521,0.76-3.961,0.76
			c-1.601,0-2.995-0.293-4.182-0.879c-1.187-0.587-2.174-1.373-2.961-2.359s-1.38-2.133-1.78-3.439c-0.4-1.307-0.6-2.693-0.6-4.159
			s0.193-2.853,0.58-4.159c0.386-1.306,0.972-2.445,1.758-3.418s1.772-1.746,2.958-2.32c1.186-0.572,2.564-0.859,4.137-0.859
			c0.533,0,1.105,0.054,1.719,0.16c0.613,0.106,1.226,0.287,1.838,0.539c0.613,0.254,1.192,0.588,1.739,1
			c0.546,0.414,1.006,0.927,1.379,1.54h0.08V384.4h3.406v28.551H132.504z M120.29,397.73c0.253,0.918,0.64,1.738,1.16,2.457
			s1.187,1.292,2,1.719c0.813,0.426,1.767,0.639,2.86,0.639c1.146,0,2.12-0.227,2.919-0.68s1.453-1.045,1.96-1.777
			c0.506-0.732,0.873-1.565,1.1-2.498s0.34-1.879,0.34-2.838c0-1.012-0.12-1.99-0.36-2.937c-0.24-0.946-0.62-1.778-1.14-2.497
			c-0.52-0.72-1.193-1.299-2.02-1.738s-1.827-0.66-3-0.66c-1.146,0-2.12,0.227-2.92,0.68s-1.44,1.053-1.919,1.799
			c-0.48,0.746-0.827,1.598-1.04,2.557s-0.32,1.945-0.32,2.957C119.91,395.871,120.037,396.811,120.29,397.73z"/>
		<path d="M151.575,384.4v4.359h0.075c0.821-1.68,1.832-2.92,3.032-3.72s2.72-1.173,4.56-1.12v3.594c-1.36,0-2.52,0.188-3.48,0.561
			s-1.733,0.92-2.32,1.64c-0.587,0.72-1.014,1.594-1.28,2.62c-0.267,1.027-0.4,2.207-0.4,3.541v9.201h-3.406V384.4H151.575z"/>
		<path d="M171.733,400.445c0.319,0.52,0.738,0.934,1.256,1.24s1.104,0.526,1.755,0.66c0.651,0.133,1.323,0.199,2.015,0.199
			c0.532,0,1.09-0.039,1.675-0.119s1.123-0.227,1.615-0.44c0.492-0.213,0.897-0.526,1.217-0.938c0.319-0.414,0.479-0.939,0.479-1.58
			c0-0.879-0.333-1.545-0.999-1.998c-0.666-0.453-1.498-0.818-2.497-1.099s-2.083-0.532-3.255-0.759
			c-1.172-0.227-2.257-0.547-3.255-0.96s-1.831-0.993-2.496-1.739c-0.666-0.746-0.999-1.785-0.999-3.117
			c0-1.039,0.233-1.932,0.699-2.678s1.066-1.352,1.799-1.818c0.732-0.466,1.559-0.812,2.478-1.039
			c0.919-0.227,1.832-0.34,2.738-0.34c1.172,0,2.251,0.1,3.237,0.3s1.858,0.546,2.618,1.038c0.759,0.492,1.365,1.158,1.818,1.996
			c0.453,0.839,0.72,1.884,0.8,3.135h-3.406c-0.054-0.664-0.227-1.216-0.52-1.654s-0.666-0.791-1.118-1.057
			c-0.453-0.266-0.952-0.459-1.498-0.578s-1.099-0.18-1.658-0.18c-0.506,0-1.019,0.04-1.538,0.12s-0.992,0.22-1.418,0.42
			c-0.426,0.2-0.772,0.467-1.039,0.8c-0.267,0.333-0.399,0.766-0.399,1.299c0,0.588,0.206,1.074,0.619,1.46
			c0.413,0.387,0.938,0.706,1.578,0.96c0.639,0.253,1.358,0.467,2.157,0.64s1.598,0.353,2.396,0.54
			c0.852,0.186,1.684,0.412,2.496,0.68c0.812,0.266,1.531,0.619,2.157,1.06s1.132,0.993,1.518,1.659
			c0.386,0.666,0.579,1.492,0.579,2.479c0,1.254-0.26,2.293-0.779,3.119c-0.52,0.827-1.198,1.494-2.037,2
			c-0.839,0.507-1.784,0.859-2.835,1.06s-2.097,0.3-3.135,0.3c-1.145,0-2.237-0.12-3.275-0.36s-1.957-0.634-2.755-1.181
			c-0.799-0.548-1.438-1.27-1.917-2.164c-0.479-0.895-0.746-1.982-0.799-3.264h3.406
			C171.241,399.292,171.414,399.926,171.733,400.445z"/>
		<path d="M205.285,384.389v3h-4.125v12.847c0,0.4,0.033,0.72,0.1,0.96s0.193,0.428,0.381,0.561c0.186,0.134,0.446,0.221,0.78,0.26
			c0.334,0.041,0.768,0.061,1.302,0.061h1.562v3h-2.603c-0.881,0-1.636-0.061-2.263-0.18c-0.627-0.121-1.134-0.34-1.521-0.66
			c-0.387-0.32-0.674-0.774-0.861-1.361c-0.187-0.587-0.28-1.36-0.28-2.32l-0.005-13.166h-3.52v-3h3.52v-6.188h3.407v6.188H205.285z
			"/>
		<path d="M230.267,405.074l0.013-3.281h-0.075c-0.72,1.28-1.641,2.221-2.761,2.82c-1.121,0.6-2.441,0.9-3.961,0.9
			c-1.36,0-2.494-0.18-3.4-0.54c-0.908-0.36-1.641-0.873-2.201-1.54s-0.954-1.461-1.181-2.381s-0.34-1.94-0.34-3.061v-13.604h3.406
			v13.997c0,1.28,0.373,2.293,1.119,3.04c0.746,0.746,1.772,1.119,3.077,1.119c1.039,0,1.939-0.16,2.699-0.48
			c0.759-0.319,1.392-0.772,1.898-1.359c0.506-0.586,0.886-1.272,1.139-2.059c0.253-0.787,0.38-1.646,0.38-2.58v-11.678h3.406
			v20.686H230.267z"/>
		<path d="M251.598,405.076l-7.68-20.688h3.8l5.8,17.246h0.08l5.641-17.246h3.56l-7.56,20.688H251.598z"/>
		<path d="M290.117,405.076l-4.199-16.445h-0.08l-4.16,16.445h-3.68l-6.641-20.688h3.76l4.681,16.926h0.08l4.159-16.926h3.721
			l4.32,16.926h0.08l4.64-16.926h3.521l-6.601,20.688H290.117z"/>
		<path d="M309.237,384.389h4.36l4.96,7.242l5.159-7.242h4.08l-7.119,9.523l8,11.164h-4.36l-5.76-8.562l-5.761,8.562h-4.119
			l7.76-10.884L309.237,384.389z"/>
		<path d="M345.857,410.364c-0.387,0.693-0.813,1.261-1.28,1.701s-0.979,0.761-1.54,0.96c-0.561,0.201-1.227,0.301-2,0.301
			c-0.4,0-0.8-0.027-1.199-0.08c-0.4-0.054-0.787-0.146-1.16-0.28v-3.122c0.319,0.107,0.646,0.214,0.979,0.32
			c0.333,0.107,0.673,0.16,1.021,0.16c0.693,0,1.253-0.16,1.68-0.48s0.8-0.787,1.12-1.4l1.399-3.482l-8.199-20.572h3.84l6.04,16.93
			h0.079l5.801-16.93h3.6l-9,23.414C346.637,408.816,346.244,409.67,345.857,410.364z"/>
		<path d="M377.037,387.389h-11.68v-3h16.079v2.32l-12.64,15.367h13.199v3h-17.439v-2.602L377.037,387.389z"/>
	</g>
	<g>
		<path fill="#FFFFFF" d="M102.51,430.906c0.053-1.121,0.187-2.215,0.4-3.281c0.213-1.067,0.52-2.081,0.919-3.041
			c0.4-0.961,0.946-1.801,1.64-2.521s1.566-1.294,2.62-1.721c1.053-0.427,2.312-0.641,3.779-0.641c1.466,0,2.726,0.214,3.779,0.641
			c1.053,0.427,1.926,1,2.619,1.721s1.24,1.561,1.64,2.521c0.4,0.96,0.707,1.974,0.92,3.041c0.213,1.066,0.346,2.16,0.4,3.281
			c0.053,1.121,0.08,2.201,0.08,3.241s-0.027,2.121-0.08,3.241c-0.054,1.121-0.187,2.215-0.4,3.281
			c-0.213,1.068-0.52,2.074-0.92,3.021s-0.946,1.781-1.64,2.502c-0.693,0.72-1.56,1.287-2.599,1.7
			c-1.04,0.413-2.306,0.62-3.799,0.62c-1.466,0-2.726-0.207-3.779-0.62c-1.053-0.413-1.926-0.98-2.62-1.7
			c-0.693-0.721-1.24-1.555-1.64-2.502s-0.707-1.953-0.919-3.021c-0.213-1.066-0.347-2.16-0.4-3.281
			c-0.054-1.12-0.08-2.201-0.08-3.241S102.456,432.027,102.51,430.906z M106.124,437.684c0.066,1.32,0.28,2.561,0.64,3.721
			s0.94,2.141,1.741,2.94c0.8,0.8,1.921,1.2,3.362,1.2c1.441,0,2.562-0.4,3.362-1.2c0.8-0.8,1.38-1.78,1.741-2.94
			s0.574-2.4,0.641-3.721c0.066-1.32,0.1-2.514,0.1-3.58c0-0.693-0.007-1.461-0.02-2.301c-0.014-0.84-0.08-1.68-0.2-2.521
			c-0.12-0.84-0.294-1.66-0.521-2.46c-0.227-0.801-0.56-1.5-1-2.101s-0.994-1.087-1.661-1.46s-1.481-0.561-2.441-0.561
			c-0.961,0-1.775,0.188-2.442,0.561s-1.221,0.859-1.661,1.46s-0.774,1.3-1,2.101c-0.227,0.8-0.4,1.62-0.52,2.46
			c-0.12,0.841-0.187,1.681-0.2,2.521c-0.014,0.84-0.02,1.607-0.02,2.301C106.023,435.17,106.057,436.363,106.124,437.684z"/>
		<path fill="#FFFFFF" d="M133.586,448.076v-20.312h-7.36v-2.719c0.96,0,1.893-0.073,2.8-0.221s1.727-0.422,2.46-0.824
			c0.733-0.401,1.354-0.951,1.86-1.646c0.507-0.697,0.854-1.581,1.041-2.652h2.605v28.375H133.586z"/>
	</g>
	<g>
		<path fill="#FFFFFF" d="M146.961,425.741c0.374-1.227,0.955-2.286,1.743-3.181c0.788-0.893,1.77-1.592,2.945-2.1
			c1.175-0.506,2.511-0.76,4.007-0.76c1.229,0,2.384,0.18,3.466,0.541c1.082,0.359,2.023,0.88,2.825,1.561
			c0.801,0.681,1.436,1.527,1.903,2.541c0.467,1.014,0.701,2.188,0.701,3.522c0,1.254-0.194,2.361-0.582,3.321
			c-0.388,0.961-0.902,1.822-1.543,2.582c-0.642,0.761-1.377,1.447-2.206,2.062s-1.684,1.2-2.565,1.761
			c-0.882,0.533-1.765,1.061-2.646,1.581c-0.882,0.521-1.691,1.074-2.426,1.661c-0.735,0.587-1.363,1.221-1.884,1.9
			c-0.521,0.682-0.862,1.461-1.022,2.342h14.594v3h-18.513c0.133-1.681,0.433-3.115,0.9-4.303s1.06-2.221,1.78-3.102
			c0.72-0.881,1.533-1.654,2.44-2.321c0.906-0.667,1.853-1.294,2.84-1.882c1.2-0.746,2.253-1.434,3.16-2.061
			c0.906-0.627,1.66-1.26,2.26-1.9s1.054-1.335,1.36-2.082s0.46-1.614,0.46-2.602c0-0.773-0.147-1.475-0.441-2.102
			s-0.688-1.167-1.183-1.621c-0.495-0.453-1.077-0.8-1.745-1.04c-0.669-0.24-1.377-0.36-2.126-0.36c-0.99,0-1.839,0.207-2.547,0.62
			c-0.709,0.413-1.291,0.953-1.745,1.62c-0.455,0.666-0.782,1.42-0.982,2.26c-0.201,0.84-0.288,1.687-0.261,2.54h-3.406
			C146.44,428.301,146.587,426.968,146.961,425.741z"/>
		<path fill="#FFFFFF" d="M180.355,431.92c0.133,0,0.266,0,0.4,0h0.72c0.72,0,1.406-0.1,2.06-0.301
			c0.653-0.199,1.227-0.494,1.72-0.881c0.493-0.389,0.887-0.876,1.18-1.464c0.293-0.588,0.44-1.256,0.44-2.004
			c0-1.522-0.482-2.665-1.445-3.427c-0.964-0.762-2.168-1.143-3.613-1.143c-0.91,0-1.706,0.167-2.389,0.5
			c-0.683,0.334-1.245,0.78-1.686,1.34c-0.442,0.561-0.77,1.213-0.984,1.96s-0.321,1.534-0.321,2.36h-3.406
			c0.053-1.36,0.273-2.6,0.661-3.721c0.388-1.119,0.942-2.08,1.664-2.879c0.722-0.801,1.624-1.428,2.706-1.881
			c1.082-0.453,2.332-0.68,3.748-0.68c1.229,0,2.372,0.154,3.427,0.461s1.971,0.768,2.746,1.382
			c0.775,0.614,1.383,1.401,1.824,2.363s0.662,2.097,0.662,3.404c0,1.282-0.375,2.417-1.125,3.405s-1.688,1.735-2.812,2.242v0.08
			c1.735,0.373,3.023,1.187,3.864,2.439s1.261,2.732,1.261,4.438c0,1.413-0.26,2.659-0.781,3.739
			c-0.521,1.079-1.221,1.979-2.102,2.698s-1.916,1.26-3.103,1.62c-1.188,0.359-2.449,0.539-3.784,0.539
			c-1.441,0-2.75-0.201-3.924-0.602c-1.175-0.401-2.176-0.996-3.003-1.785c-0.828-0.787-1.461-1.756-1.902-2.902
			s-0.647-2.453-0.621-3.92h3.406c0.053,1.84,0.587,3.34,1.603,4.5c1.015,1.16,2.497,1.74,4.447,1.74
			c0.828,0,1.615-0.127,2.363-0.379c0.748-0.254,1.402-0.613,1.963-1.079c0.561-0.466,1.008-1.038,1.342-1.718
			s0.501-1.445,0.501-2.297c0-0.879-0.159-1.658-0.475-2.338c-0.317-0.679-0.742-1.252-1.274-1.717
			c-0.532-0.467-1.165-0.812-1.898-1.039s-1.527-0.34-2.38-0.34c-0.72,0-1.4,0.042-2.04,0.125v-2.884
			C180.128,431.906,180.248,431.92,180.355,431.92z"/>
		<path fill="#FFFFFF" d="M218.32,438.451v3h-3.84v6.625h-3.188v-6.625h-12.44v-3.285l12.918-18.465h2.71v18.75H218.32z
			 M211.293,424.544h-0.08l-9.44,13.907h9.521V424.544z"/>
		<path fill="#FFFFFF" d="M231.578,423.201l-1.52,8.147l0.08,0.08c0.613-0.693,1.406-1.206,2.381-1.54c0.973-0.333,1.94-0.5,2.9-0.5
			c1.254,0,2.441,0.2,3.562,0.6c1.12,0.4,2.094,1.008,2.921,1.821s1.48,1.827,1.961,3.04c0.48,1.215,0.721,2.635,0.721,4.262
			c0,1.2-0.207,2.367-0.62,3.501c-0.414,1.134-1.034,2.141-1.861,3.021c-0.827,0.881-1.861,1.58-3.102,2.101s-2.688,0.78-4.342,0.78
			c-1.228,0-2.381-0.181-3.461-0.541c-1.081-0.361-2.035-0.883-2.861-1.564c-0.828-0.682-1.481-1.529-1.961-2.543
			c-0.48-1.014-0.734-2.16-0.761-3.44h3.406c0.054,0.72,0.233,1.394,0.54,2.021s0.721,1.173,1.241,1.64s1.134,0.827,1.841,1.08
			s1.488,0.38,2.342,0.38c0.801,0,1.568-0.14,2.302-0.42c0.733-0.279,1.374-0.699,1.921-1.26c0.547-0.559,0.981-1.26,1.302-2.1
			s0.48-1.818,0.48-2.939c0-0.932-0.153-1.792-0.46-2.578c-0.307-0.787-0.74-1.467-1.301-2.039c-0.561-0.574-1.234-1.02-2.021-1.34
			s-1.662-0.48-2.622-0.48c-1.12,0-2.114,0.247-2.981,0.74s-1.635,1.141-2.302,1.939l-2.921-0.16l2.64-14.707h13.995v3H231.578z"/>
		<path fill="#FFFFFF" d="M265.787,423.864c-0.826-0.775-1.92-1.163-3.279-1.163c-1.44,0-2.601,0.354-3.48,1.061
			s-1.566,1.602-2.061,2.682c-0.492,1.082-0.833,2.248-1.02,3.502s-0.293,2.428-0.32,3.521l0.08,0.08
			c0.799-1.307,1.791-2.254,2.975-2.84c1.186-0.588,2.549-0.881,4.094-0.881c1.357,0,2.575,0.233,3.653,0.7s1.983,1.114,2.716,1.94
			c0.731,0.828,1.297,1.801,1.696,2.922c0.399,1.12,0.599,2.334,0.599,3.641c0,1.041-0.16,2.121-0.479,3.242
			c-0.32,1.12-0.847,2.141-1.579,3.061c-0.732,0.921-1.704,1.682-2.917,2.281c-1.211,0.6-2.71,0.9-4.494,0.9
			c-2.105,0-3.797-0.428-5.074-1.28c-1.279-0.854-2.266-1.948-2.957-3.282c-0.693-1.334-1.152-2.801-1.379-4.401
			s-0.34-3.147-0.34-4.642c0-1.947,0.168-3.836,0.502-5.663s0.9-3.448,1.703-4.862c0.801-1.414,1.868-2.547,3.201-3.4
			c1.334-0.854,3.014-1.281,5.041-1.281c2.346,0,4.213,0.621,5.6,1.863c1.387,1.241,2.187,3.037,2.4,5.387h-3.4
			C267.107,425.668,266.613,424.64,265.787,423.864z M259.61,433.326c-0.72,0.334-1.333,0.787-1.839,1.359
			c-0.506,0.574-0.887,1.254-1.139,2.041c-0.254,0.786-0.381,1.619-0.381,2.499s0.134,1.706,0.4,2.479s0.646,1.44,1.139,2
			c0.494,0.561,1.106,1.007,1.84,1.34c0.732,0.334,1.565,0.5,2.498,0.5c0.934,0,1.752-0.166,2.459-0.5
			c0.706-0.333,1.299-0.793,1.779-1.38c0.479-0.587,0.846-1.26,1.1-2.02c0.252-0.76,0.379-1.554,0.379-2.38
			c0-0.88-0.113-1.713-0.34-2.5c-0.227-0.786-0.58-1.467-1.059-2.039c-0.48-0.574-1.08-1.033-1.799-1.381
			c-0.721-0.346-1.561-0.52-2.52-0.52S260.33,432.993,259.61,433.326z"/>
		<path fill="#FFFFFF" d="M293.51,428.16c-1.254,1.945-2.367,4.025-3.34,6.238c-0.974,2.213-1.767,4.493-2.38,6.84
			c-0.613,2.346-0.987,4.625-1.12,6.838h-3.812c0.16-2.4,0.555-4.741,1.184-7.021c0.629-2.281,1.438-4.469,2.426-6.562
			s2.129-4.074,3.423-5.941s2.687-3.588,4.181-5.162h-14.893v-3.188h18.372v2.92C296.109,424.533,294.764,426.213,293.51,428.16z"/>
		<path fill="#FFFFFF" d="M306.924,423.847c0.454-0.895,1.068-1.648,1.842-2.263c0.774-0.614,1.662-1.082,2.663-1.402
			s2.049-0.48,3.144-0.48c1.548,0,2.869,0.207,3.964,0.621s1.982,0.961,2.663,1.643c0.681,0.68,1.182,1.455,1.502,2.322
			c0.32,0.868,0.48,1.756,0.48,2.664c0,1.281-0.354,2.449-1.061,3.504s-1.66,1.85-2.861,2.384c1.709,0.533,2.977,1.406,3.805,2.619
			s1.242,2.699,1.242,4.458c0,1.387-0.248,2.613-0.742,3.68s-1.161,1.966-2.002,2.699c-0.841,0.732-1.836,1.286-2.983,1.659
			c-1.147,0.372-2.376,0.56-3.685,0.56c-1.361,0-2.629-0.174-3.805-0.52c-1.174-0.347-2.195-0.88-3.062-1.6
			c-0.868-0.72-1.549-1.619-2.043-2.699s-0.74-2.34-0.74-3.779c0-1.679,0.426-3.139,1.281-4.378c0.854-1.239,2.082-2.14,3.684-2.699
			c-1.201-0.48-2.163-1.262-2.884-2.343c-0.722-1.082-1.081-2.264-1.081-3.545C306.244,425.776,306.471,424.741,306.924,423.847z
			 M310.543,444.087c1.137,0.972,2.587,1.458,4.352,1.458c0.856,0,1.639-0.14,2.348-0.42c0.709-0.279,1.324-0.665,1.846-1.158
			c0.521-0.492,0.922-1.071,1.203-1.737s0.422-1.398,0.422-2.198c0-0.771-0.154-1.484-0.462-2.137s-0.729-1.219-1.264-1.697
			c-0.535-0.48-1.157-0.859-1.866-1.139s-1.464-0.42-2.266-0.42c-0.83,0-1.612,0.127-2.348,0.38s-1.377,0.619-1.926,1.099
			c-0.548,0.479-0.976,1.052-1.283,1.718s-0.461,1.411-0.461,2.237C308.838,441.776,309.406,443.115,310.543,444.087z
			 M310.238,429.094c0.268,0.574,0.629,1.049,1.084,1.423c0.454,0.374,0.989,0.655,1.604,0.842s1.271,0.28,1.966,0.28
			c1.365,0,2.488-0.4,3.371-1.202s1.324-1.924,1.324-3.366c0-1.443-0.449-2.532-1.345-3.268c-0.896-0.734-2.04-1.102-3.431-1.102
			c-0.669,0-1.311,0.094-1.926,0.281c-0.615,0.187-1.144,0.467-1.585,0.841s-0.796,0.829-1.063,1.362
			c-0.268,0.535-0.4,1.163-0.4,1.885C309.838,427.845,309.971,428.52,310.238,429.094z"/>
		<path fill="#FFFFFF" d="M337.179,444.427c0.986,0.745,2.159,1.118,3.521,1.118c2.08,0,3.639-0.896,4.68-2.689
			c1.039-1.793,1.613-4.541,1.72-8.244l-0.08-0.08c-0.64,1.2-1.546,2.154-2.719,2.86s-2.452,1.06-3.839,1.06
			c-1.439,0-2.719-0.233-3.838-0.701c-1.12-0.467-2.06-1.115-2.819-1.943s-1.333-1.829-1.72-3.004
			c-0.387-1.176-0.579-2.457-0.579-3.847c0-1.362,0.227-2.61,0.68-3.746c0.453-1.135,1.093-2.11,1.919-2.925
			s1.812-1.449,2.959-1.902c1.146-0.455,2.398-0.682,3.758-0.682c1.333,0,2.586,0.207,3.758,0.621
			c1.174,0.413,2.199,1.127,3.079,2.141s1.579,2.395,2.099,4.141c0.52,1.748,0.78,3.969,0.78,6.664c0,4.908-0.78,8.677-2.339,11.305
			s-4.059,3.941-7.498,3.941c-2.374,0-4.348-0.6-5.921-1.801c-1.573-1.199-2.467-3.026-2.68-5.48h3.399
			C335.632,442.617,336.191,443.682,337.179,444.427z M346.125,426.711c-0.254-0.775-0.627-1.463-1.121-2.064
			s-1.101-1.076-1.82-1.424c-0.721-0.348-1.562-0.521-2.521-0.521c-1.015,0-1.875,0.188-2.582,0.562s-1.281,0.876-1.721,1.503
			c-0.441,0.629-0.761,1.344-0.961,2.146s-0.3,1.644-0.3,2.526c0,0.775,0.14,1.523,0.42,2.244c0.28,0.723,0.667,1.363,1.161,1.926
			c0.493,0.561,1.08,1.009,1.761,1.343s1.435,0.501,2.261,0.501c0.881,0,1.682-0.167,2.402-0.501c0.72-0.334,1.334-0.788,1.84-1.363
			c0.508-0.575,0.895-1.243,1.161-2.005s0.4-1.557,0.4-2.386C346.505,428.314,346.378,427.486,346.125,426.711z"/>
	</g>
	<g>
		<path fill="#FFFFFF" d="M356.676,214.581c-5.02,0-9.014-1.4-11.979-4.199s-4.447-7.377-4.447-13.732
			c-5.289,6.355-11.445,10.934-18.471,13.732s-14.617,4.199-22.775,4.199c-5.289,0-10.273-0.568-14.957-1.703
			c-4.684-1.137-8.801-3.029-12.352-5.68c-3.551-2.648-6.348-6.057-8.387-10.221s-3.059-9.199-3.059-15.105
			c0-6.664,1.133-12.115,3.4-16.355c2.266-4.238,5.252-7.684,8.955-10.334s7.934-4.656,12.695-6.02s9.637-2.498,14.625-3.408
			c5.289-1.059,10.314-1.854,15.076-2.385c4.762-0.529,8.955-1.287,12.584-2.271c3.627-0.984,6.498-2.422,8.615-4.316
			c2.115-1.893,3.174-4.656,3.174-8.291c0-4.24-0.795-7.648-2.383-10.223c-1.59-2.574-3.633-4.541-6.129-5.904
			s-5.295-2.271-8.396-2.727c-3.102-0.453-6.166-0.682-9.191-0.682c-8.17,0-14.979,1.553-20.424,4.654
			c-5.447,3.104-8.398,8.969-8.852,17.596h-19.25c0.301-7.26,1.814-13.385,4.539-18.377c2.723-4.99,6.355-9.035,10.896-12.137
			c4.539-3.102,9.76-5.332,15.662-6.693s12.107-2.043,18.615-2.043c5.297,0,10.555,0.379,15.775,1.137s9.949,2.309,14.188,4.656
			c4.236,2.348,7.641,5.643,10.215,9.885c2.572,4.242,3.859,9.77,3.859,16.584v60.436c0,4.545,0.264,7.877,0.795,9.998
			c0.529,2.121,2.307,3.18,5.334,3.18c1.664,0,3.633-0.377,5.902-1.135v14.941C367.201,213.599,362.582,214.581,356.676,214.581z
			 M329.602,155.495c-3.93,0.832-8.049,1.514-12.357,2.043c-4.309,0.531-8.656,1.137-13.039,1.816
			c-4.383,0.682-8.312,1.779-11.789,3.291c-3.477,1.514-6.312,3.67-8.504,6.471s-3.287,6.621-3.287,11.463
			c0,3.18,0.643,5.865,1.928,8.059c1.285,2.195,2.947,3.973,4.988,5.334c2.039,1.363,4.459,2.346,7.256,2.951
			s5.631,0.908,8.502,0.908c6.348,0,11.791-0.869,16.326-2.609s8.238-3.936,11.109-6.584s4.988-5.523,6.35-8.625
			c1.359-3.102,2.041-6.016,2.041-8.74v-19.75C336.707,153.339,333.531,154.663,329.602,155.495z"/>
	</g>
	<g>
		<path d="M42.096,99.715l13.392,34.281h-5.04l-3.744-10.312H32.208l-3.84,10.312h-4.656l13.344-34.281H42.096z M45.264,119.84
			l-5.712-15.996h-0.096l-5.808,15.996H45.264z"/>
		<path d="M79.62,134.527c-1.057,0-1.898-0.297-2.522-0.888c-0.625-0.592-0.937-1.56-0.937-2.904
			c-1.12,1.345-2.423,2.312-3.911,2.904c-1.487,0.591-3.095,0.888-4.822,0.888c-1.12,0-2.176-0.12-3.167-0.359
			c-0.992-0.24-1.863-0.641-2.615-1.2s-1.344-1.279-1.775-2.159c-0.432-0.879-0.647-1.943-0.647-3.191
			c0-1.406,0.24-2.559,0.72-3.454s1.112-1.624,1.896-2.184c0.784-0.56,1.68-0.983,2.688-1.271s2.04-0.527,3.096-0.72
			c1.12-0.224,2.184-0.392,3.191-0.504c1.008-0.111,1.896-0.271,2.664-0.479c0.768-0.208,1.375-0.512,1.824-0.911
			c0.448-0.4,0.672-0.984,0.672-1.752c0-0.896-0.168-1.615-0.503-2.159c-0.335-0.544-0.767-0.96-1.293-1.247
			c-0.527-0.289-1.118-0.48-1.772-0.576c-0.655-0.096-1.301-0.145-1.94-0.145c-1.725,0-3.162,0.329-4.312,0.987
			s-1.772,1.901-1.868,3.731h-4.094c0.063-1.537,0.383-2.834,0.959-3.892s1.343-1.914,2.303-2.571
			c0.959-0.656,2.063-1.129,3.31-1.417s2.559-0.433,3.934-0.433c1.119,0,2.23,0.08,3.334,0.24s2.103,0.487,2.999,0.982
			c0.896,0.496,1.615,1.191,2.159,2.086c0.543,0.895,0.815,2.062,0.815,3.5v12.754c0,0.959,0.056,1.662,0.168,2.109
			c0.112,0.448,0.488,0.672,1.128,0.672c0.352,0,0.768-0.08,1.248-0.24v3.177C81.844,134.318,80.868,134.527,79.62,134.527z
			 M73.896,122.013c-0.832,0.177-1.703,0.32-2.614,0.433c-0.911,0.111-1.831,0.24-2.758,0.384c-0.928,0.144-1.759,0.376-2.494,0.696
			s-1.335,0.775-1.799,1.367s-0.695,1.4-0.695,2.424c0,0.672,0.136,1.24,0.408,1.705c0.271,0.463,0.624,0.84,1.055,1.127
			c0.432,0.289,0.943,0.496,1.535,0.625c0.592,0.127,1.191,0.191,1.799,0.191c1.343,0,2.494-0.184,3.454-0.552
			c0.959-0.368,1.743-0.832,2.35-1.392c0.607-0.561,1.055-1.168,1.343-1.824c0.288-0.656,0.432-1.272,0.432-1.849v-4.176
			C75.398,121.557,74.727,121.837,73.896,122.013z"/>
	</g>
	<g>
		<path d="M44.4,158.715l12.816,34.281h-7.824l-2.592-7.625H33.984l-2.688,7.625h-7.584l12.96-34.281H44.4z M44.832,179.746
			l-4.32-12.581h-0.096l-4.464,12.581H44.832z"/>
		<path d="M59.241,171.82c0.704-1.057,1.6-1.906,2.688-2.547s2.312-1.096,3.672-1.369c1.36-0.271,2.729-0.408,4.105-0.408
			c1.248,0,2.512,0.088,3.792,0.264c1.28,0.177,2.448,0.521,3.504,1.033s1.92,1.225,2.592,2.137
			c0.672,0.913,1.008,2.121,1.008,3.627v12.919c0,1.12,0.064,2.193,0.192,3.218s0.352,1.793,0.672,2.305l-6.915-0.002
			c-0.128-0.383-0.232-0.773-0.312-1.172s-0.136-0.805-0.168-1.219c-1.089,1.117-2.37,1.898-3.843,2.346
			c-1.473,0.446-2.978,0.67-4.515,0.67c-1.185,0-2.29-0.145-3.314-0.432c-1.025-0.289-1.921-0.736-2.69-1.346
			c-0.769-0.607-1.369-1.376-1.801-2.305c-0.433-0.928-0.648-2.033-0.648-3.313c0-1.409,0.248-2.569,0.745-3.481
			s1.137-1.641,1.922-2.186c0.785-0.544,1.682-0.952,2.691-1.225c1.009-0.271,2.026-0.488,3.052-0.648s2.035-0.287,3.028-0.384
			c0.993-0.096,1.874-0.239,2.643-0.433c0.769-0.191,1.377-0.473,1.826-0.84c0.448-0.369,0.657-0.904,0.625-1.609
			c0-0.736-0.12-1.32-0.36-1.752c-0.24-0.433-0.561-0.769-0.961-1.009s-0.865-0.4-1.394-0.48c-0.529-0.08-1.098-0.12-1.706-0.12
			c-1.346,0-2.403,0.289-3.171,0.865c-0.769,0.578-1.217,1.539-1.345,2.885h-6.812C58.136,174.207,58.537,172.878,59.241,171.82z
			 M72.708,181.465c-0.433,0.145-0.898,0.265-1.396,0.36c-0.497,0.097-1.019,0.177-1.563,0.24c-0.545,0.063-1.091,0.144-1.636,0.239
			c-0.514,0.097-1.019,0.225-1.516,0.385s-0.93,0.376-1.299,0.648c-0.369,0.271-0.666,0.615-0.89,1.031s-0.336,0.944-0.336,1.584
			c0,0.608,0.112,1.12,0.336,1.536s0.529,0.744,0.914,0.984s0.834,0.408,1.347,0.504s1.042,0.144,1.588,0.144
			c1.347,0,2.389-0.224,3.127-0.672c0.738-0.447,1.283-0.984,1.636-1.607c0.353-0.625,0.569-1.256,0.649-1.896
			c0.08-0.64,0.121-1.152,0.121-1.536v-2.544C73.501,181.121,73.141,181.322,72.708,181.465z"/>
	</g>
	<g>
		<path d="M126.417,99.715v3.844h-19.104v10.906h17.808v3.844h-17.808v11.844h19.248v3.844h-23.81V99.715H126.417z"/>
		<path d="M151.377,132.414c-1.857,1.409-4.195,2.113-7.014,2.113c-1.986,0-3.708-0.32-5.166-0.959
			c-1.458-0.641-2.683-1.535-3.676-2.688c-0.993-1.15-1.738-2.525-2.234-4.125s-0.777-3.342-0.841-5.229
			c0-1.887,0.288-3.614,0.864-5.181c0.576-1.568,1.385-2.928,2.425-4.078c1.04-1.152,2.272-2.047,3.697-2.688
			c1.425-0.639,2.985-0.959,4.683-0.959c2.209,0,4.042,0.455,5.498,1.366s2.625,2.069,3.505,3.476s1.489,2.939,1.825,4.601
			c0.336,1.661,0.472,3.243,0.408,4.745h-18.594c-0.032,1.088,0.096,2.119,0.385,3.095c0.288,0.976,0.753,1.839,1.395,2.591
			c0.641,0.752,1.458,1.352,2.453,1.799c0.994,0.448,2.165,0.672,3.511,0.672c1.731,0,3.149-0.399,4.256-1.199
			c1.106-0.799,1.836-2.014,2.188-3.645h4.032C154.434,128.907,153.233,131.005,151.377,132.414z M150.391,116.482
			c-0.369-0.863-0.866-1.606-1.491-2.23c-0.625-0.623-1.362-1.118-2.212-1.486c-0.85-0.367-1.787-0.551-2.812-0.551
			c-1.058,0-2.012,0.184-2.861,0.551c-0.85,0.368-1.579,0.871-2.188,1.511s-1.09,1.383-1.442,2.229
			c-0.353,0.848-0.561,1.75-0.625,2.709h14.281C150.976,118.256,150.759,117.346,150.391,116.482z"/>
	</g>
	<g>
		<path d="M127.939,158.715v6.344h-18.096v7.344h16.608v5.844h-16.608v8.406h18.48v6.344h-26.011v-34.281H127.939z"/>
		<path d="M138.85,187.041c1.024,0.991,2.496,1.486,4.417,1.486c1.376,0,2.56-0.344,3.552-1.033c0.992-0.688,1.6-1.417,1.824-2.186
			h6c-0.96,2.979-2.432,5.109-4.416,6.391c-1.984,1.281-4.384,1.922-7.2,1.922c-1.952,0-3.712-0.312-5.279-0.936
			c-1.568-0.623-2.896-1.51-3.983-2.662c-1.088-1.15-1.927-2.525-2.519-4.125c-0.592-1.599-0.887-3.357-0.887-5.276
			c0-1.854,0.304-3.581,0.912-5.181c0.607-1.598,1.471-2.981,2.59-4.148s2.455-2.086,4.007-2.758s3.271-1.008,5.16-1.008
			c2.112,0,3.952,0.408,5.52,1.223c1.568,0.815,2.856,1.91,3.864,3.284s1.736,2.94,2.184,4.698s0.608,3.596,0.48,5.514H137.17
			C137.266,184.452,137.826,186.051,138.85,187.041z M146.554,173.996c-0.816-0.896-2.056-1.344-3.72-1.344
			c-1.088,0-1.992,0.184-2.712,0.553c-0.72,0.367-1.296,0.824-1.728,1.368c-0.432,0.544-0.736,1.12-0.912,1.728
			c-0.176,0.609-0.28,1.152-0.312,1.633h11.088C147.938,176.205,147.37,174.893,146.554,173.996z"/>
	</g>
	<g>
		<path d="M191.61,99.715c3.262,0,5.813,0.801,7.652,2.403c1.84,1.603,2.76,3.797,2.76,6.584c0,2.083-0.473,3.909-1.416,5.479
			s-2.455,2.643-4.534,3.22v0.096c0.992,0.192,1.8,0.513,2.424,0.96c0.624,0.447,1.12,0.982,1.488,1.606s0.64,1.319,0.816,2.087
			c0.176,0.768,0.312,1.566,0.408,2.397c0.063,0.831,0.111,1.679,0.144,2.542s0.112,1.711,0.24,2.542s0.312,1.622,0.552,2.374
			s0.601,1.415,1.08,1.99h-5.088c-0.32-0.352-0.536-0.831-0.648-1.438c-0.112-0.607-0.184-1.286-0.216-2.038
			c-0.032-0.751-0.064-1.559-0.096-2.422c-0.032-0.862-0.128-1.709-0.288-2.541c-0.128-0.831-0.288-1.622-0.48-2.373
			c-0.192-0.752-0.496-1.406-0.912-1.967c-0.416-0.559-0.959-1.006-1.631-1.342s-1.566-0.504-2.686-0.504h-11.127v14.625h-4.562
			V99.715H191.61z M192.567,115.287c0.959-0.16,1.798-0.473,2.517-0.938s1.295-1.09,1.727-1.875s0.647-1.802,0.647-3.052
			c0-1.73-0.479-3.14-1.438-4.229s-2.51-1.635-4.651-1.635h-11.316v11.969h9.494C190.601,115.527,191.608,115.447,192.567,115.287z"
			/>
		<path d="M213.77,109.197v5.229h0.1c0.996-2.016,2.215-3.502,3.654-4.461s3.264-1.407,5.473-1.344v4.312
			c-1.633,0-3.024,0.225-4.176,0.672c-1.152,0.447-2.08,1.104-2.785,1.967c-0.703,0.863-1.216,1.911-1.535,3.143
			c-0.32,1.231-0.48,2.646-0.48,4.246v11.035h-4.094v-24.799H213.77z"/>
	</g>
	<g>
		<path d="M193.524,158.715c1.535,0,2.919,0.248,4.15,0.744s2.286,1.176,3.167,2.039c0.879,0.864,1.551,1.863,2.015,3
			c0.464,1.135,0.696,2.359,0.696,3.67c0,2.016-0.424,3.76-1.271,5.231s-2.23,2.591-4.149,3.358v0.097
			c0.928,0.257,1.696,0.649,2.304,1.177c0.608,0.529,1.104,1.153,1.488,1.874s0.664,1.513,0.84,2.378s0.296,1.729,0.36,2.594
			c0.032,0.545,0.063,1.186,0.096,1.922s0.088,1.49,0.168,2.258c0.08,0.77,0.208,1.498,0.384,2.186
			c0.176,0.689,0.44,1.273,0.793,1.754h-7.534c-0.415-1.089-0.671-2.387-0.767-3.893c-0.096-1.505-0.239-2.946-0.431-4.324
			c-0.256-1.794-0.8-3.107-1.632-3.939c-0.832-0.834-2.192-1.25-4.081-1.25h-7.537v13.406h-7.531v-34.281H193.524z M190.838,174.215
			c1.728,0,3.023-0.385,3.887-1.152c0.864-0.77,1.296-2.019,1.296-3.748c0-1.665-0.432-2.874-1.296-3.627
			c-0.864-0.752-2.16-1.129-3.887-1.129h-8.254v9.656H190.838z"/>
		<path d="M213.394,168.175v4.608h0.099c0.322-0.77,0.757-1.482,1.301-2.139c0.544-0.657,1.168-1.218,1.872-1.683
			c0.704-0.464,1.456-0.825,2.256-1.081s1.632-0.385,2.496-0.385c0.448,0,0.944,0.08,1.488,0.24v6.344
			c-0.32-0.064-0.704-0.12-1.152-0.168s-0.88-0.072-1.296-0.072c-1.248,0-2.305,0.208-3.168,0.624
			c-0.864,0.416-1.561,0.984-2.088,1.704c-0.528,0.721-0.904,1.561-1.128,2.521c-0.224,0.96-0.336,2-0.336,3.12v11.187h-6.812
			v-24.821H213.394z"/>
	</g>
	<g>
		<path fill="#FF3725" d="M110.623,251.08v15.986l15.066-15.986h10.584l-15.066,15.23l16.524,23.332h-10.638l-11.61-17.334
			l-4.86,4.914v12.42h-8.469V251.08H110.623z"/>
		<path fill="#FF3725" d="M159.613,289.654v-3.888h-0.162c-0.973,1.622-2.233,2.793-3.781,3.514
			c-1.549,0.721-3.133,1.081-4.753,1.081c-2.053,0-3.736-0.27-5.051-0.811c-1.314-0.539-2.35-1.305-3.106-2.295
			c-0.756-0.99-1.288-2.196-1.594-3.619c-0.306-1.422-0.459-2.997-0.459-4.726v-17.175h7.656v15.768c0,2.304,0.36,4.023,1.082,5.156
			c0.721,1.135,2.001,1.701,3.841,1.701c2.092,0,3.607-0.621,4.545-1.863c0.938-1.242,1.407-3.285,1.407-6.129v-14.633h7.656v27.918
			H159.613z"/>
		<path fill="#FF3725" d="M180.387,261.723v3.888h0.162c0.972-1.624,2.232-2.806,3.781-3.546c1.548-0.739,3.133-1.109,4.753-1.109
			c2.053,0,3.736,0.279,5.051,0.838s2.35,1.332,3.106,2.322c0.756,0.99,1.287,2.197,1.593,3.62c0.307,1.423,0.459,2.999,0.459,4.728
			v17.18h-7.656v-15.768c0-2.303-0.361-4.022-1.082-5.156c-0.722-1.134-2.002-1.701-3.841-1.701c-2.092,0-3.607,0.621-4.545,1.863
			c-0.938,1.242-1.407,3.285-1.407,6.129v14.633h-7.656v-27.92H180.387z"/>
		<path fill="#FF3725" d="M211.955,282.691c0.342,0.597,0.783,1.085,1.322,1.465c0.541,0.379,1.161,0.66,1.863,0.84
			c0.702,0.182,1.432,0.271,2.188,0.271c0.539,0,1.105-0.062,1.699-0.189c0.594-0.125,1.135-0.323,1.621-0.593
			c0.485-0.27,0.891-0.63,1.215-1.079c0.323-0.449,0.485-1.016,0.485-1.699c0-1.152-0.765-2.016-2.292-2.591
			c-1.529-0.575-3.66-1.151-6.393-1.727c-1.115-0.252-2.203-0.548-3.264-0.89s-2.005-0.792-2.832-1.35s-1.492-1.259-1.996-2.104
			c-0.504-0.845-0.755-1.88-0.755-3.103c0-1.799,0.351-3.273,1.052-4.424c0.701-1.152,1.627-2.061,2.778-2.726
			s2.446-1.133,3.884-1.403c1.439-0.27,2.913-0.404,4.424-0.404c1.51,0,2.976,0.145,4.396,0.432
			c1.421,0.289,2.688,0.773,3.803,1.457c1.115,0.684,2.041,1.593,2.779,2.727c0.736,1.134,1.178,2.564,1.321,4.291h-7.281
			c-0.108-1.477-0.666-2.476-1.673-2.998c-1.008-0.521-2.195-0.783-3.562-0.783c-0.432,0-0.9,0.027-1.404,0.081
			s-0.963,0.171-1.376,0.351c-0.414,0.18-0.765,0.44-1.053,0.782s-0.432,0.8-0.432,1.375c0,0.684,0.251,1.241,0.755,1.673
			s1.16,0.782,1.969,1.052c0.81,0.27,1.735,0.513,2.778,0.728c1.043,0.217,2.104,0.449,3.183,0.701
			c1.115,0.252,2.203,0.559,3.264,0.918s2.005,0.836,2.832,1.429c0.827,0.594,1.492,1.331,1.996,2.212
			c0.503,0.881,0.755,1.969,0.755,3.263c0,1.834-0.368,3.372-1.106,4.612c-0.736,1.24-1.699,2.238-2.887,2.993
			c-1.187,0.755-2.545,1.286-4.072,1.591c-1.529,0.307-3.085,0.459-4.668,0.459c-1.619,0-3.201-0.162-4.748-0.486
			s-2.922-0.864-4.127-1.621c-1.205-0.756-2.194-1.756-2.968-2.999s-1.196-2.802-1.268-4.675h7.281
			C211.442,281.381,211.613,282.095,211.955,282.691z"/>
		<path fill="#FF3725" d="M250.215,261.736v5.125H244.6v13.822c0,1.297,0.215,2.16,0.647,2.592c0.432,0.433,1.296,0.648,2.592,0.648
			c0.432,0,0.846-0.018,1.241-0.054c0.396-0.036,0.774-0.09,1.135-0.162v5.935c-0.648,0.112-1.368,0.188-2.16,0.225
			s-1.566,0.057-2.322,0.057c-1.188,0-2.311-0.081-3.371-0.243s-1.995-0.478-2.804-0.944c-0.809-0.469-1.446-1.135-1.914-1.999
			s-0.7-1.999-0.7-3.403v-16.473h-4.645v-5.125h4.645v-8.375h7.656v8.375H250.215z"/>
		<path fill="#FF3725" d="M261.922,251.08v14.53h0.156c0.973-1.624,2.215-2.806,3.729-3.546c1.514-0.739,2.99-1.109,4.432-1.109
			c2.055,0,3.738,0.279,5.054,0.838s2.351,1.332,3.107,2.322s1.288,2.197,1.595,3.62c0.306,1.423,0.459,2.999,0.459,4.728v17.18
			h-7.656v-15.768c0-2.303-0.361-4.022-1.082-5.156c-0.722-1.134-2.002-1.701-3.842-1.701c-2.092,0-3.607,0.621-4.545,1.863
			s-1.406,3.285-1.406,6.129v14.633h-7.656V251.08H261.922z"/>
		<path fill="#FF3725" d="M287.702,265.848c0.792-1.188,1.8-2.143,3.023-2.863c1.224-0.72,2.601-1.232,4.13-1.539
			c1.529-0.306,3.068-0.459,4.617-0.459c1.402,0,2.824,0.1,4.264,0.297s2.754,0.584,3.941,1.16c1.188,0.574,2.16,1.375,2.916,2.4
			c0.756,1.024,1.134,2.382,1.134,4.072v14.51c0,1.26,0.071,2.465,0.216,3.615c0.144,1.15,0.396,2.014,0.756,2.589l-7.775,0.013
			c-0.145-0.433-0.262-0.875-0.352-1.326c-0.09-0.45-0.152-0.91-0.188-1.379c-1.225,1.256-2.665,2.137-4.321,2.639
			s-3.35,0.754-5.078,0.754c-1.332,0-2.574-0.162-3.727-0.485s-2.161-0.827-3.025-1.511c-0.864-0.683-1.539-1.545-2.025-2.588
			s-0.729-2.284-0.729-3.723c0-1.582,0.279-2.886,0.838-3.91c0.559-1.025,1.279-1.844,2.162-2.455s1.892-1.069,3.026-1.375
			s2.279-0.549,3.433-0.729s2.288-0.323,3.405-0.432c1.117-0.107,2.107-0.27,2.973-0.484c0.865-0.217,1.549-0.531,2.054-0.944
			s0.739-1.017,0.703-1.808c0-0.826-0.136-1.482-0.405-1.969c-0.271-0.484-0.632-0.863-1.082-1.133
			c-0.451-0.27-0.975-0.449-1.569-0.539s-1.235-0.135-1.921-0.135c-1.515,0-2.705,0.324-3.57,0.974s-1.371,1.731-1.515,3.245h-7.656
			C286.461,268.529,286.91,267.035,287.702,265.848z M302.854,276.654c-0.488,0.162-1.012,0.297-1.57,0.405
			c-0.561,0.108-1.146,0.198-1.76,0.271c-0.614,0.072-1.229,0.162-1.842,0.27c-0.577,0.108-1.146,0.252-1.705,0.432
			c-0.56,0.181-1.047,0.424-1.463,0.729c-0.414,0.306-0.748,0.693-1.001,1.161s-0.379,1.062-0.379,1.781
			c0,0.685,0.126,1.261,0.379,1.729c0.253,0.469,0.595,0.838,1.028,1.107s0.939,0.459,1.517,0.566
			c0.577,0.108,1.173,0.162,1.787,0.162c1.516,0,2.688-0.252,3.519-0.756s1.444-1.107,1.842-1.809
			c0.396-0.703,0.641-1.414,0.73-2.133c0.09-0.721,0.136-1.297,0.136-1.729v-2.862C303.746,276.268,303.34,276.492,302.854,276.654z
			"/>
		<path fill="#FF3725" d="M325.914,251.08v38.562h-7.656V251.08H325.914z"/>
		<path fill="#FF3725" d="M340.223,251.08v38.562h-7.656V251.08H340.223z"/>
		<path fill="#FF3725" d="M354.861,282.939c1.151,1.115,2.807,1.672,4.967,1.672c1.549,0,2.881-0.388,3.996-1.163
			c1.117-0.775,1.801-1.597,2.053-2.462h6.75c-1.08,3.349-2.736,5.743-4.969,7.184c-2.231,1.44-4.932,2.16-8.1,2.16
			c-2.196,0-4.176-0.352-5.938-1.053c-1.763-0.702-3.256-1.701-4.478-2.997c-1.223-1.296-2.166-2.844-2.83-4.644
			c-0.666-1.8-0.998-3.779-0.998-5.939c0-2.088,0.342-4.033,1.024-5.832c0.683-1.801,1.653-3.357,2.911-4.671
			s2.76-2.349,4.506-3.104c1.744-0.756,3.679-1.135,5.803-1.135c2.376,0,4.446,0.459,6.211,1.379
			c1.764,0.918,3.213,2.152,4.346,3.702c1.135,1.55,1.953,3.315,2.457,5.297s0.684,4.054,0.541,6.216h-20.143
			C353.078,280.029,353.709,281.826,354.861,282.939z M363.527,268.248c-0.918-1.008-2.312-1.512-4.185-1.512
			c-1.224,0-2.241,0.207-3.052,0.621c-0.81,0.414-1.457,0.927-1.943,1.538c-0.486,0.612-0.828,1.26-1.025,1.943
			c-0.199,0.684-0.315,1.296-0.352,1.835h12.475C365.084,270.73,364.445,269.256,363.527,268.248z"/>
	</g>
</g>
</svg>
