<?xml version="1.0" encoding="UTF-8" standalone="no"?>
<!-- Generator: Adobe Illustrator 12.0.0, SVG Export Plug-In . SVG Version: 6.00 Build 51448)  -->

<svg
   xmlns:dc="http://purl.org/dc/elements/1.1/"
   xmlns:cc="http://creativecommons.org/ns#"
   xmlns:rdf="http://www.w3.org/1999/02/22-rdf-syntax-ns#"
   xmlns:svg="http://www.w3.org/2000/svg"
   xmlns="http://www.w3.org/2000/svg"
   xmlns:sodipodi="http://sodipodi.sourceforge.net/DTD/sodipodi-0.dtd"
   xmlns:inkscape="http://www.inkscape.org/namespaces/inkscape"
   version="1.0"
   id="Layer_1"
   sodipodi:modified="true"
   inkscape:version="0.47pre4 r22446"
   sodipodi:version="0.32"
   sodipodi:docname="Inconsolata.svg"
   inkscape:output_extension="org.inkscape.output.svg.inkscape"
   width="400"
   height="450"
   viewBox="-3.033 -0.385 400 450"
   overflow="visible"
   enable-background="new -3.033 -0.385 405 250"
   xml:space="preserve"
   style="overflow:visible"><metadata
   id="metadata3561"><rdf:RDF><cc:Work
       rdf:about=""><dc:format>image/svg+xml</dc:format><dc:type
         rdf:resource="http://purl.org/dc/dcmitype/StillImage" /><dc:title /></cc:Work></rdf:RDF></metadata><defs
   id="defs3559"><inkscape:perspective
     sodipodi:type="inkscape:persp3d"
     inkscape:vp_x="0 : 125 : 1"
     inkscape:vp_y="0 : 1000 : 0"
     inkscape:vp_z="405 : 125 : 1"
     inkscape:persp3d-origin="202.5 : 83.333333 : 1"
     id="perspective3563" /><inkscape:perspective
     id="perspective3955"
     inkscape:persp3d-origin="0.5 : 0.33333333 : 1"
     inkscape:vp_z="1 : 0.5 : 1"
     inkscape:vp_y="0 : 1000 : 0"
     inkscape:vp_x="0 : 0.5 : 1"
     sodipodi:type="inkscape:persp3d" /><inkscape:perspective
     id="perspective4001"
     inkscape:persp3d-origin="0.5 : 0.33333333 : 1"
     inkscape:vp_z="1 : 0.5 : 1"
     inkscape:vp_y="0 : 1000 : 0"
     inkscape:vp_x="0 : 0.5 : 1"
     sodipodi:type="inkscape:persp3d" /><inkscape:perspective
     id="perspective5023"
     inkscape:persp3d-origin="0.5 : 0.33333333 : 1"
     inkscape:vp_z="1 : 0.5 : 1"
     inkscape:vp_y="0 : 1000 : 0"
     inkscape:vp_x="0 : 0.5 : 1"
     sodipodi:type="inkscape:persp3d" /><inkscape:perspective
     id="perspective5689"
     inkscape:persp3d-origin="0.5 : 0.33333333 : 1"
     inkscape:vp_z="1 : 0.5 : 1"
     inkscape:vp_y="0 : 1000 : 0"
     inkscape:vp_x="0 : 0.5 : 1"
     sodipodi:type="inkscape:persp3d" /><inkscape:perspective
     id="perspective2926"
     inkscape:persp3d-origin="0.5 : 0.33333333 : 1"
     inkscape:vp_z="1 : 0.5 : 1"
     inkscape:vp_y="0 : 1000 : 0"
     inkscape:vp_x="0 : 0.5 : 1"
     sodipodi:type="inkscape:persp3d" /><inkscape:perspective
     id="perspective2963"
     inkscape:persp3d-origin="0.5 : 0.33333333 : 1"
     inkscape:vp_z="1 : 0.5 : 1"
     inkscape:vp_y="0 : 1000 : 0"
     inkscape:vp_x="0 : 0.5 : 1"
     sodipodi:type="inkscape:persp3d" /></defs>
<sodipodi:namedview
   height="250px"
   width="400px"
   id="base"
   objecttolerance="10.0"
   inkscape:pageopacity="0.0"
   inkscape:pageshadow="2"
   inkscape:window-height="874"
   inkscape:window-width="1360"
   inkscape:current-layer="Layer_1"
   inkscape:window-x="77"
   inkscape:window-y="33"
   inkscape:cy="258.5462"
   inkscape:cx="197.52708"
   gridtolerance="10.0"
   borderopacity="1.0"
   guidetolerance="10.0"
   pagecolor="#ffffff"
   inkscape:zoom="1.1048266"
   bordercolor="#666666"
   showgrid="true"
   inkscape:window-maximized="0">
	<inkscape:grid
   type="xygrid"
   id="grid3941"
   empspacing="5"
   visible="true"
   enabled="true"
   snapvisiblegridlinesonly="true" /></sodipodi:namedview>


<path
   style="fill:#ffccaa;fill-opacity:1;stroke:none"
   d="m -3.033,-0.38499999 400,0 0,349.99999999 -400,0 0,-349.99999999 z"
   id="rect3943" />
<path
   style="fill:#ac9d93;fill-opacity:1;stroke:none"
   d="m -3.033,299.61499 400,0 0,150 -400,0 0,-150 z"
   id="rect3945" />










<g
   style="font-size:60px;font-style:normal;font-variant:normal;font-weight:bold;font-stretch:normal;fill:#000000;fill-opacity:1;stroke:none;font-family:Inconsolata;-inkscape-font-specification:Inconsolata Medium"
   id="text2902"><path
     d="m 24.7952,18.943284 0,3.54 6.9,0 0,30.42 -7.32,0 0,3.48 19.32,0 0,-3.42 -7.8,0 0,-30.48 7.38,0 0,-3.54 -18.48,0"
     style=""
     id="path2985" /><path
     d="m 53.5952,56.323284 4.38,0 0,-15.78 c 0,-1.799998 0.240001,-3.180001 1.38,-4.68 1.019999,-1.379998 3.660003,-3.84 6.54,-3.84 1.379998,0 2.760001,0.600001 3.72,1.74 1.499998,1.799998 1.5,4.140002 1.5,6.06 l 0,16.5 4.26,0 0,-16.62 0,0 c 0,-2.099998 -1e-6,-4.380002 -0.96,-6.6 -1.379999,-3.059997 -4.200003,-4.8 -7.32,-4.8 -3.719997,0 -7.080002,2.400003 -9.12,5.46 l 0,-4.8 -4.38,0 0,27.36"
     style=""
     id="path2987" /><path
     d="m 106.8752,33.463284 c -2.16,-3.179997 -5.82,-5.1 -10.26,-5.1 -8.039992,0 -13.74,6.060008 -13.74,14.28 0,8.279992 5.700007,14.4 13.5,14.4 3.78,0 7.5,-1.560003 10.08,-4.38 l -2.46,-2.88 c -1.86,2.099998 -4.560003,3.3 -7.26,3.3 -5.339995,0 -9.42,-4.440006 -9.42,-10.86 0,-6.239994 4.020005,-10.14 9.06,-10.14 4.67999,0 6.9,3.240001 7.08,3.6 0.24,0.42 -0.12,1.020001 0.36,1.38 l 3.06,-3.6"
     style=""
     id="path2989" /><path
     d="m 137.1152,42.763284 c 0,-9.47999 -6.00001,-14.4 -12.24,-14.4 -6.95999,0 -12.96,6.000009 -12.96,14.52 0,8.339992 5.94001,14.22 12.84,14.22 6.47999,0 12.36,-5.220009 12.36,-14.34 m -12.54,-10.74 c 3.96,0 8.16,3.420008 8.16,10.92 0,6.899993 -3.96,10.38 -7.92,10.38 -4.38,0 -8.34,-4.080007 -8.34,-10.86 0,-6.719993 3.9,-10.44 8.1,-10.44"
     style=""
     id="path2991" /><path
     d="m 143.5952,56.323284 4.38,0 0,-15.78 c 0,-1.799998 0.24,-3.180001 1.38,-4.68 1.02,-1.379998 3.66,-3.84 6.54,-3.84 1.38,0 2.76,0.600001 3.72,1.74 1.5,1.799998 1.5,4.140002 1.5,6.06 l 0,16.5 4.26,0 0,-16.62 0,0 c 0,-2.099998 0,-4.380002 -0.96,-6.6 -1.38,-3.059997 -4.2,-4.8 -7.32,-4.8 -3.72,0 -7.08,2.400003 -9.12,5.46 l 0,-4.8 -4.38,0 0,27.36"
     style=""
     id="path2993" /><path
     d="m 195.4352,32.563284 c -2.52,-2.759997 -6.18,-4.26 -10.26,-4.26 -6.35999,0 -10.5,3.540004 -10.5,7.62 0,4.799995 5.16,6.540001 6.66,7.08 2.34,0.839999 5.34,1.560001 7.38,2.52 2.28,1.079999 2.7,2.520001 2.7,3.48 0,2.579998 -3.12,4.32 -7.02,4.32 -4.68,0 -7.68,-2.820001 -8.58,-3.78 -0.18,-0.24 -0.18,-0.42 -0.18,-0.66 0,-0.06 0.06,-0.42 -0.24,-0.54 l -2.52,4.26 c 3.24,2.999997 7.44,4.38 11.58,4.38 7.49999,0 11.4,-4.440004 11.4,-8.58 0,-1.859998 -0.78,-4.380002 -4.02,-6.18 -3.06,-1.739998 -7.5,-2.340001 -10.08,-3.6 -2.22,-1.079999 -2.7,-2.400001 -2.7,-3.36 0,-2.159998 2.7,-3.72 5.76,-3.72 3.96,0 6.6,2.400002 7.62,3.78 0.18,0.18 0.12,0.36 0.12,0.54 0,0.36 0.24,0.48 0.36,0.48 l 2.52,-3.78"
     style=""
     id="path2995" /><path
     d="m 227.1152,42.763284 c 0,-9.47999 -6.00001,-14.4 -12.24,-14.4 -6.95999,0 -12.96,6.000009 -12.96,14.52 0,8.339992 5.94001,14.22 12.84,14.22 6.47999,0 12.36,-5.220009 12.36,-14.34 m -12.54,-10.74 c 3.96,0 8.16,3.420008 8.16,10.92 0,6.899993 -3.96,10.38 -7.92,10.38 -4.38,0 -8.34,-4.080007 -8.34,-10.86 0,-6.719993 3.9,-10.44 8.1,-10.44"
     style=""
     id="path2997" /><path
     d="m 234.5552,16.483284 0,3.48 7.8,0 0,32.94 -8.16,0 0,3.42 20.58,0 0,-3.42 -8.1,0 0,-36.42 -12.12,0"
     style=""
     id="path2999" /><path
     d="m 264.9152,32.143284 2.1,2.76 c 2.28,-2.339998 5.34,-3.06 7.92,-3.06 3.24,0 4.86,1.380001 5.64,2.64 0.9,1.499999 0.84,3.300002 0.84,4.74 l 0,0.96 -0.84,0 c -4.08,0 -8.4,10e-7 -11.88,1.26 -4.32,1.559999 -6.24,4.800003 -6.24,7.8 0,4.019996 3.48001,7.8 9.18,7.8 3.36,0 6.84,-1.260002 9.84,-3.72 l 0,3 4.08,0 0,-16.98 c 0,-2.219998 -0.06,-4.320002 -1.32,-6.48 -1.8,-2.939997 -5.28,-4.5 -9.54,-4.5 -3.66,0 -7.2,1.140003 -9.78,3.78 m 16.68,11.34 0,1.86 c 0,1.379999 0,3.180002 -1.86,5.16 -1.02,1.019999 -3.6,3.24 -7.2,3.24 -3.66,0 -5.76,-2.340002 -5.76,-4.74 0,-2.039998 1.38,-4.260001 4.8,-5.1 2.52,-0.599999 6.18,-0.42 9.06,-0.42 l 0.96,0"
     style=""
     id="path3001" /><path
     d="m 300.7952,21.583284 -0.54,7.38 -6.54,0 -0.06,3.54 6.42,0 c -0.36,4.679995 -0.54,9.360005 -0.54,13.98 0,2.459998 0,5.220002 1.62,7.5 1.32,1.799998 3.42,2.88 6.24,2.88 3.24,0 6.42,-1.380002 8.76,-3.06 l -1.32,-3.42 c -2.34,1.739998 -4.5,2.52 -6.18,2.52 -2.04,0 -4.14,-1.140003 -4.62,-4.44 0,-0.24 -0.18,-1.260004 -0.18,-5.28 0,-3.539996 0.18,-7.140003 0.54,-10.68 l 9,0 0,-3.6 -8.94,0 c 0,0 0.42,-4.920001 0.72,-6.48 0.06,-0.599999 0.54,-0.960001 0.3,-1.62 l -4.68,0.78"
     style=""
     id="path3003" /><path
     d="m 324.9152,32.143284 2.1,2.76 c 2.28,-2.339998 5.34,-3.06 7.92,-3.06 3.24,0 4.86,1.380001 5.64,2.64 0.9,1.499999 0.84,3.300002 0.84,4.74 l 0,0.96 -0.84,0 c -4.08,0 -8.4,10e-7 -11.88,1.26 -4.32,1.559999 -6.24,4.800003 -6.24,7.8 0,4.019996 3.48001,7.8 9.18,7.8 3.36,0 6.84,-1.260002 9.84,-3.72 l 0,3 4.08,0 0,-16.98 c 0,-2.219998 -0.06,-4.320002 -1.32,-6.48 -1.8,-2.939997 -5.28,-4.5 -9.54,-4.5 -3.66,0 -7.2,1.140003 -9.78,3.78 m 16.68,11.34 0,1.86 c 0,1.379999 0,3.180002 -1.86,5.16 -1.02,1.019999 -3.6,3.24 -7.2,3.24 -3.66,0 -5.76,-2.340002 -5.76,-4.74 0,-2.039998 1.38,-4.260001 4.8,-5.1 2.52,-0.599999 6.18,-0.42 9.06,-0.42 l 0.96,0"
     style=""
     id="path3005" /></g><g
   style="font-size:180px;font-style:normal;font-variant:normal;font-weight:bold;font-stretch:normal;fill:#808080;fill-opacity:1;stroke:none;font-family:Inconsolata;-inkscape-font-specification:Inconsolata Medium"
   id="text2906"><path
     d="m 290.58052,102.36442 6.3,8.28 c 6.84,-7.01999 16.02001,-9.18 23.76,-9.18 9.71999,0 14.58001,4.14 16.92,7.92 2.7,4.49999 2.52,9.9 2.52,14.22 l 0,2.88 -2.52,0 c -12.23998,0 -25.20001,0 -35.64,3.78 -12.95998,4.67999 -18.72,14.40001 -18.72,23.4 0,12.05999 10.44002,23.4 27.54,23.4 10.07999,0 20.52001,-3.78001 29.52,-11.16 l 0,9 12.24,0 0,-50.94 c 0,-6.65999 -0.18,-12.96001 -3.96,-19.44 -5.39999,-8.819992 -15.84001,-13.500001 -28.62,-13.500001 -10.97999,0 -21.6,3.420008 -29.34,11.340001 m 50.04,34.02 0,5.58 c 0,4.13999 0,9.54 -5.58,15.48 -3.05999,3.06 -10.80001,9.72 -21.6,9.72 -10.97999,0 -17.28,-7.02001 -17.28,-14.22 0,-6.11999 4.14001,-12.78 14.4,-15.3 7.56,-1.8 18.54001,-1.26 27.18,-1.26 l 2.88,0"
     style=""
     id="path3104" /></g><g
   style="font-size:50px;font-style:normal;font-variant:normal;font-weight:bold;font-stretch:normal;line-height:125%;fill:#000000;fill-opacity:1;stroke:none;font-family:Inconsolata;-inkscape-font-specification:Inconsolata Bold"
   id="text2910"><path
     d="m 26.98653,122.04312 3.45,0 3.05,-9.15 9.85,0 3.45,9.1 3.65,0 -12.05,-31.700002 -0.4,0 -11,31.750002 m 15.6,-11.85 -8.45,0 4.05,-11.850002 4.4,11.850002"
     style="text-align:start;line-height:125%;writing-mode:lr-tb;text-anchor:start;font-family:Inconsolata;-inkscape-font-specification:Inconsolata Bold"
     id="path3120" /><path
     d="m 55.78653,101.84312 1.75,2.3 c 1.899998,-1.95 4.450002,-2.55 6.6,-2.55 2.699997,0 4.05,1.15 4.7,2.2 0.749999,1.25 0.7,2.75 0.7,3.95 l 0,0.8 -0.7,0 c -3.399997,0 -7.000003,0 -9.9,1.05 -3.599997,1.3 -5.2,4 -5.2,6.5 0,3.34999 2.900004,6.5 7.65,6.5 2.799997,0 5.700002,-1.05 8.2,-3.1 l 0,2.5 3.4,0 0,-14.15 c 0,-1.85 -0.05,-3.6 -1.1,-5.4 -1.499999,-2.449999 -4.400004,-3.750002 -7.95,-3.750002 -3.049997,0 -6.000003,0.950002 -8.15,3.150002 m 13.9,9.45 0,1.55 c 0,1.15 -2e-6,2.65 -1.55,4.3 -0.85,0.85 -3.000003,2.7 -6,2.7 -3.049997,0 -4.8,-1.95 -4.8,-3.95 0,-1.7 1.150002,-3.55 4,-4.25 2.099997,-0.5 5.150002,-0.35 7.55,-0.35 l 0.8,0"
     style="text-align:start;line-height:125%;writing-mode:lr-tb;text-anchor:start;font-family:Inconsolata;-inkscape-font-specification:Inconsolata Bold"
     id="path3122" /><path
     d="m 104.18653,90.843118 0,31.150002 19,0 0,-3.1 -15.65,0 0,-11.55 13,0 0,-3.2 -13,0 0,-10.200002 15.75,0 0,-3.1 -19.1,0"
     style="text-align:start;line-height:125%;writing-mode:lr-tb;text-anchor:start;font-family:Inconsolata;-inkscape-font-specification:Inconsolata Bold"
     id="path3124" /><path
     d="m 139.18653,98.643118 c -5.45,0 -10.5,3.900012 -10.5,12.200002 0,7.64999 4.75001,11.7 10.95,11.7 3.3,0 6.25,-1.2 8.2,-3.55 l -2,-1.95 c -1.45,1.7 -3.65,2.6 -5.9,2.6 -3.05,0 -7.5,-1.70001 -7.75,-8.55 l 16.2,0 c 0.15,-1.55 0.1,-3.05 -0.15,-4.35 -1.05,-6.15 -5.3,-8.100002 -9.05,-8.100002 m -6.9,9.700002 c 0.75,-5.4 4.2,-6.95 6.65,-6.95 3.7,0 6.35,3.25 5.9,6.95 l -12.55,0"
     style="text-align:start;line-height:125%;writing-mode:lr-tb;text-anchor:start;font-family:Inconsolata;-inkscape-font-specification:Inconsolata Bold"
     id="path3126" /><path
     d="m 188.78653,93.693118 c 2.2,0 4.9,1.300004 6.4,5 1.1,2.650002 1.25,5.700002 1.25,8.300002 0,10.34999 -4.8,12.25 -7.45,12.25 -3.65,0 -7.85,-3.50001 -7.85,-13.35 0,-9.149993 4.25,-12.200002 7.65,-12.200002 m 11.05,12.900002 c 0,-2.95 -0.2,-6.800005 -1.9,-10.150002 -2,-4.049996 -5.6,-5.9 -9,-5.9 -4.65,0 -11.2,3.600013 -11.2,15.850002 0,11.09999 5.3,15.3 9.8,16 0,2.85 0.75,5 3,6.1 1.95,0.95 4.15,0.75 7.75,0.75 l 0.05,-3.4 c -1.55,0.1 -2.9,0.3 -4.05,0.3 -3.1,0 -3.6,-2.05 -3.65,-3.8 2.85,-0.5 5.6,-2.40001 7.35,-5.85 1.65,-3.3 1.85,-7.2 1.85,-9.9"
     style="text-align:start;line-height:125%;writing-mode:lr-tb;text-anchor:start;font-family:Inconsolata;-inkscape-font-specification:Inconsolata Bold"
     id="path3128" /><path
     d="m 219.93653,102.49312 c 0,0.05 -1.60001,-3.900002 -6.65,-3.900002 -5,0 -9.9,4.050012 -9.9,11.800002 0,7.39999 4.35,12.15 9.4,12.15 2.9,0 5.55,-1.65 7,-4.2 l 0,12 3.55,0 0,-31.150002 -3.4,0 0,3.300002 m -6.5,-0.95 c 2.05,0 4.65,1.05 5.65,3.85 0.45,1.3 0.55,2.7 0.55,5.5 0,1.7 -0.1,2.95 -0.45,4.15 -0.9,2.7 -3.25,4.3 -5.6,4.3 -3.3,0 -6.6,-3.00001 -6.6,-9.45 0,-6 3.4,-8.35 6.45,-8.35"
     style="text-align:start;line-height:125%;writing-mode:lr-tb;text-anchor:start;font-family:Inconsolata;-inkscape-font-specification:Inconsolata Bold"
     id="path3130" /></g><g
   style="font-size:50px;font-style:italic;font-variant:normal;font-weight:bold;font-stretch:normal;line-height:125%;fill:#000000;fill-opacity:1;stroke:none;overflow:visible;font-family:Inconsolata;-inkscape-font-specification:Inconsolata Bold Italic"
   id="text2910-1"><path
     d="m 24.271688,172.04313 3.45,0 4.85,-9.15 9.85,0 1.65,9.1 3.65,0 -5.7,-31.7 -0.4,0 -17.35,31.75 m 17.95,-11.85 -8.45,0 6.45,-11.85 2,11.85"
     style="text-align:start;line-height:125%;writing-mode:lr-tb;text-anchor:start;font-family:Inconsolata;-inkscape-font-specification:Inconsolata Bold Italic"
     id="path3107" /><path
     d="m 57.121688,151.84313 1.25,2.3 c 2.299997,-1.94999 5.000002,-2.55 7.15,-2.55 2.699997,0 3.8,1.15 4.25,2.2 0.499999,1.25 0.149999,2.75 -0.1,3.95 l -0.15,0.8 -0.7,0 c -3.399997,0 -7.000003,0 -10.1,1.05 -3.899996,1.3 -6.000001,4.00001 -6.5,6.5 -0.7,3.35 1.600004,6.5 6.35,6.5 2.799997,0 5.900003,-1.05 8.8,-3.1 l -0.5,2.5 3.4,0 2.85,-14.15 c 0.349999,-1.84999 0.649999,-3.6 -0.05,-5.4 -0.999999,-2.44999 -3.650004,-3.75 -7.2,-3.75 -3.049997,0 -6.200003,0.95001 -8.75,3.15 m 12,9.45 -0.3,1.55 c -0.25,1.15 -0.550002,2.65001 -2.45,4.3 -0.999999,0.85 -3.500003,2.7 -6.5,2.7 -3.049997,0 -4.45,-1.95 -4.05,-3.95 0.349999,-1.69999 1.900003,-3.55 4.85,-4.25 2.199997,-0.5 5.250002,-0.35 7.65,-0.35 l 0.8,0"
     style="text-align:start;line-height:125%;writing-mode:lr-tb;text-anchor:start;font-family:Inconsolata;-inkscape-font-specification:Inconsolata Bold Italic"
     id="path3109" /><path
     d="m 107.72169,140.84313 -6.25,31.15 19,0 0.6,-3.1 -15.65,0 2.35,-11.55 13,0 0.6,-3.2 -13,0 2.05,-10.2 15.75,0 0.65,-3.1 -19.1,0"
     style="text-align:start;line-height:125%;writing-mode:lr-tb;text-anchor:start;font-family:Inconsolata;-inkscape-font-specification:Inconsolata Bold Italic"
     id="path3111" /><path
     d="m 141.12169,148.64313 c -5.45,0 -11.25,3.90001 -12.9,12.2 -1.55,7.65 2.4,11.7 8.6,11.7 3.29999,0 6.5,-1.2 8.9,-3.55 l -1.6,-1.95 c -1.8,1.7 -4.2,2.6 -6.45,2.6 -3.05,0 -7.15,-1.7 -6,-8.55 l 16.2,0 c 0.45,-1.54999 0.7,-3.05 0.7,-4.35 0.2,-6.14999 -3.70001,-8.1 -7.45,-8.1 m -8.8,9.7 c 1.8,-5.39999 5.55,-6.95 8,-6.95 3.69999,0 5.7,3.25001 4.55,6.95 l -12.55,0"
     style="text-align:start;line-height:125%;writing-mode:lr-tb;text-anchor:start;font-family:Inconsolata;-inkscape-font-specification:Inconsolata Bold Italic"
     id="path3113" /><path
     d="m 191.72169,143.69313 c 2.2,0 4.65,1.30001 5.4,5 0.6,2.65 0.1,5.70001 -0.4,8.3 -2.05,10.34999 -7.25,12.25 -9.9,12.25 -3.65,0 -7.15,-3.50001 -5.2,-13.35 1.85,-9.14999 6.7,-12.2 10.1,-12.2 m 8.5,12.9 c 0.55,-2.94999 1.15,-6.8 0.1,-10.15 -1.2,-4.04999 -4.40001,-5.9 -7.8,-5.9 -4.65,0 -11.95,3.60002 -14.4,15.85 -2.2,11.09999 2.25,15.3 6.6,16 -0.55,2.85 -0.25,5 1.8,6.1 1.75,0.95 4,0.75 7.6,0.75 l 0.75,-3.4 c -1.6,0.1 -3,0.3 -4.15,0.3 -3.1,0 -3.15,-2.05 -2.85,-3.8 2.94999,-0.5 6.05,-2.4 8.5,-5.85 2.3,-3.29999 3.3,-7.2 3.85,-9.9"
     style="text-align:start;line-height:125%;writing-mode:lr-tb;text-anchor:start;font-family:Inconsolata;-inkscape-font-specification:Inconsolata Bold Italic"
     id="path3115" /><path
     d="m 221.12169,152.49313 c 0,0.05 -0.80001,-3.9 -5.85,-3.9 -5,0 -10.75,4.05001 -12.3,11.8 -1.45,7.4 1.95,12.15 7,12.15 2.89999,0 5.85,-1.65 7.85,-4.2 l -2.4,12 3.55,0 6.2,-31.15 -3.4,0 -0.65,3.3 m -6.3,-0.95 c 2.05,0 4.45,1.05001 4.85,3.85 0.2,1.3 0.05,2.70001 -0.55,5.5 -0.3,1.7 -0.65,2.95 -1.25,4.15 -1.45,2.7 -4.1,4.3 -6.45,4.3 -3.3,0 -6,-3 -4.75,-9.45 1.2,-5.99999 5.1,-8.35 8.15,-8.35"
     style="text-align:start;line-height:125%;writing-mode:lr-tb;text-anchor:start;font-family:Inconsolata;-inkscape-font-specification:Inconsolata Bold Italic"
     id="path3117" /></g><g
   style="font-size:60px;font-style:normal;font-variant:normal;font-weight:bold;font-stretch:normal;fill:#1a8d1a;fill-opacity:1;stroke:none;font-family:Inconsolata;-inkscape-font-specification:Inconsolata Medium"
   id="text2943"><path
     d="m 83.51951,245.97938 c 0,-3.48 -0.240002,-8.10001 -2.28,-12.12 -2.459997,-4.8 -6.720004,-7.02 -10.8,-7.02 -5.579994,0 -13.44,4.32001 -13.44,19.02 0,14.69998 7.740006,19.32 13.5,19.32 4.019996,0 8.340003,-2.28001 10.8,-7.26 1.979998,-4.02 2.22,-8.64001 2.22,-11.94 m -13.26,-15.24 c 2.639997,0 5.880002,1.56 7.62,5.94 1.259999,3.11999 1.44,6.72 1.44,9.84 0,2.45999 -0.120002,6.3 -1.68,9.48 -1.739998,3.65999 -4.620002,5.1 -7.14,5.1 -4.199996,0 -9.36,-3.90002 -9.36,-15.78 0,-11.15999 5.220004,-14.58 9.12,-14.58"
     style=""
     id="path3083" /><path
     d="m 88.79951,237.21938 0.06,37.38 4.38,0 0,-13.62 c 1.859998,2.69999 4.920003,4.38 8.22,4.38 5.63999,0 11.52,-4.74001 11.52,-14.76 0,-9.65999 -5.70001,-13.98 -11.1,-13.98 -3.539996,0 -6.840002,1.8 -8.7,4.8 l 0,-4.2 -4.38,0 m 11.46,3.06 c 2.4,0 8.22,1.26001 8.22,11.22 0,8.63999 -5.64,10.02 -8.22,10.02 -2.579997,0 -5.220001,-1.32001 -6.3,-3.78 -0.779999,-1.86 -0.78,-4.14001 -0.78,-8.1 0,-2.28 0.120001,-3.96001 0.72,-5.4 1.079999,-2.46 3.600003,-3.96 6.36,-3.96"
     style=""
     id="path3085" /><path
     d="m 130.73951,236.55938 c -6.53999,0 -12.6,4.68001 -12.6,14.64 0,9.17999 5.70001,14.04 13.14,14.04 3.96,0 7.5,-1.44001 9.84,-4.26 l -2.4,-2.34 c -1.74,2.03999 -4.38,3.12 -7.08,3.12 -3.66,0 -9,-2.04001 -9.3,-10.26 l 19.44,0 c 0.18,-1.86 0.12,-3.66001 -0.18,-5.22 -1.26,-7.38 -6.36,-9.72 -10.86,-9.72 m -8.28,11.64 c 0.9,-6.48 5.04,-8.34 7.98,-8.34 4.44,0 7.62,3.9 7.08,8.34 l -15.06,0"
     style=""
     id="path3087" /><path
     d="m 149.33951,264.57938 4.38,0 0,-15.78 c 0,-1.8 0.24,-3.18001 1.38,-4.68 1.02,-1.38 3.66,-3.84 6.54,-3.84 1.38,0 2.76,0.6 3.72,1.74 1.5,1.79999 1.5,4.14 1.5,6.06 l 0,16.5 4.26,0 0,-16.62 0,0 c 0,-2.1 0,-4.38001 -0.96,-6.6 -1.38,-3.06 -4.2,-4.8 -7.32,-4.8 -3.72,0 -7.08,2.4 -9.12,5.46 l 0,-4.8 -4.38,0 0,27.36"
     style=""
     id="path3089" /><path
     d="m 231.17951,240.81938 c -2.52,-2.76 -6.18,-4.26 -10.26,-4.26 -6.35999,0 -10.5,3.54 -10.5,7.62 0,4.79999 5.16,6.54 6.66,7.08 2.34,0.84 5.34,1.56 7.38,2.52 2.28,1.08 2.7,2.52 2.7,3.48 0,2.57999 -3.12,4.32 -7.02,4.32 -4.68,0 -7.68,-2.82 -8.58,-3.78 -0.18,-0.24 -0.18,-0.42 -0.18,-0.66 0,-0.06 0.06,-0.42 -0.24,-0.54 l -2.52,4.26 c 3.24,2.99999 7.44,4.38 11.58,4.38 7.49999,0 11.4,-4.44001 11.4,-8.58 0,-1.86 -0.78,-4.38001 -4.02,-6.18 -3.06,-1.74 -7.5,-2.34001 -10.08,-3.6 -2.22,-1.08 -2.7,-2.4 -2.7,-3.36 0,-2.16 2.7,-3.72 5.76,-3.72 3.96,0 6.6,2.4 7.62,3.78 0.18,0.18 0.12,0.36 0.12,0.54 0,0.36 0.24,0.48 0.36,0.48 l 2.52,-3.78"
     style=""
     id="path3091" /><path
     d="m 262.85951,251.01938 c 0,-9.47999 -6.00001,-14.4 -12.24,-14.4 -6.95999,0 -12.96,6 -12.96,14.52 0,8.33999 5.94001,14.22 12.84,14.22 6.47999,0 12.36,-5.22001 12.36,-14.34 m -12.54,-10.74 c 3.96,0 8.16,3.42 8.16,10.92 0,6.89999 -3.96,10.38 -7.92,10.38 -4.38,0 -8.34,-4.08001 -8.34,-10.86 0,-6.72 3.9,-10.44 8.1,-10.44"
     style=""
     id="path3093" /><path
     d="m 268.97951,237.21938 0,15.3 c 0,2.33999 0,4.74 1.08,7.2 1.56,3.59999 4.92,5.58 8.52,5.58 3.42,0 6.66,-1.86001 8.46,-4.86 l -0.06,2.04 c 0,0.72 0,1.44 0.12,2.1 l 4.56,0 c -0.3,-0.78 -0.36,-1.68 -0.36,-2.46 l 0,-24.9 -4.32,0 0,15.06 c 0,2.09999 -0.18,3.72 -1.08,5.4 -1.26,2.33999 -3.72,4.08 -6.36,4.08 -2.1,0 -4.14,-1.20001 -5.22,-3.36 -0.96,-1.92 -0.96,-4.08001 -0.96,-5.88 l 0,-15.3 -4.38,0"
     style=""
     id="path3095" /><path
     d="m 301.19951,237.21938 0,27.42 4.32,0 0,-13.32 c 0,-1.68 0.06,-3.48001 1.92,-6.42 2.52,-3.96 5.76,-4.62 7.74,-4.62 2.28,0 3.72,1.08 4.5,2.04 0.36,0.48 0.54,0.96 1.02,1.38 l 2.04,-4.14 c -1.74,-1.8 -4.26,-3 -7.32,-3 -4.02,0 -8.1,2.04 -9.9,5.94 l 0.18,-5.28 -4.5,0"
     style=""
     id="path3097" /><path
     d="m 352.61951,241.71938 c -2.16,-3.18 -5.82,-5.1 -10.26,-5.1 -8.03999,0 -13.74,6.06 -13.74,14.28 0,8.27999 5.70001,14.4 13.5,14.4 3.78,0 7.5,-1.56001 10.08,-4.38 l -2.46,-2.88 c -1.86,2.09999 -4.56,3.3 -7.26,3.3 -5.33999,0 -9.42,-4.44001 -9.42,-10.86 0,-6.24 4.02001,-10.14 9.06,-10.14 4.68,0 6.9,3.24 7.08,3.6 0.24,0.42 -0.12,1.02 0.36,1.38 l 3.06,-3.6"
     style=""
     id="path3099" /><path
     d="m 370.73951,236.55938 c -6.53999,0 -12.6,4.68001 -12.6,14.64 0,9.17999 5.70001,14.04 13.14,14.04 3.96,0 7.5,-1.44001 9.84,-4.26 l -2.4,-2.34 c -1.74,2.03999 -4.38,3.12 -7.08,3.12 -3.66,0 -9,-2.04001 -9.3,-10.26 l 19.44,0 c 0.18,-1.86 0.12,-3.66001 -0.18,-5.22 -1.26,-7.38 -6.36,-9.72 -10.86,-9.72 m -8.28,11.64 c 0.9,-6.48 5.04,-8.34 7.98,-8.34 4.44,0 7.62,3.9 7.08,8.34 l -15.06,0"
     style=""
     id="path3101" /></g><g
   style="font-size:50px;font-style:normal;font-variant:normal;font-weight:bold;font-stretch:normal;fill:#000000;fill-opacity:1;stroke:none;font-family:Inconsolata;-inkscape-font-specification:Inconsolata Medium"
   id="text2947"><path
     d="m 26.614655,322.35952 1.75,2.3 c 1.899998,-1.95 4.450002,-2.55 6.6,-2.55 2.699997,0 4.05,1.15 4.7,2.2 0.749999,1.25 0.7,2.75 0.7,3.95 l 0,0.8 -0.7,0 c -3.399997,0 -7.000003,0 -9.9,1.05 -3.599997,1.3 -5.2,4 -5.2,6.5 0,3.35 2.900004,6.5 7.65,6.5 2.799997,0 5.700002,-1.05 8.2,-3.1 l 0,2.5 3.4,0 0,-14.15 c 0,-1.85 -0.05,-3.6 -1.1,-5.4 -1.499999,-2.45 -4.400004,-3.75 -7.95,-3.75 -3.049997,0 -6.000003,0.95 -8.15,3.15 m 13.9,9.45 0,1.55 c 0,1.15 -2e-6,2.65 -1.55,4.3 -0.85,0.85 -3.000003,2.7 -6,2.7 -3.049997,0 -4.8,-1.95 -4.8,-3.95 0,-1.7 1.150002,-3.55 4,-4.25 2.099997,-0.5 5.150002,-0.35 7.55,-0.35 l 0.8,0"
     style=""
     id="path3056" /><path
     d="m 50.064655,309.25952 0,33.25 2.35,0 1.25,-3 c 1.499998,2.25 4.000002,3.6 6.75,3.6 4.699995,0 9.55,-4.00001 9.55,-12.3 0,-7.94999 -4.700005,-11.65 -9.2,-11.65 -2.899998,0 -5.600002,1.55 -7.05,4.05 l 0,-12.8 c 0,-0.3 0.05,-0.4 0.3,-0.6 0.1,-0.05 0.349999,-0.25 0.3,-0.55 l -4.25,0 m 9.45,13 c 2.149997,0 6.7,1.25001 6.7,9.35 0,6.94999 -4.500003,8.25 -6.75,8.25 -1.549999,0 -5.000001,-0.6 -5.6,-5 -0.15,-1.15 -0.15,-2.5 -0.15,-4.5 0,-2.05 0.1,-3.55 0.6,-4.8 0.849999,-2.05 2.950002,-3.3 5.2,-3.3"
     style=""
     id="path3058" /><path
     d="m 94.914655,323.45952 c -1.799999,-2.65 -4.850004,-4.25 -8.55,-4.25 -6.699994,0 -11.45,5.05001 -11.45,11.9 0,6.89999 4.750006,12 11.25,12 3.149996,0 6.250002,-1.3 8.4,-3.65 l -2.05,-2.4 c -1.549999,1.75 -3.800003,2.75 -6.05,2.75 -4.449996,0 -7.85,-3.7 -7.85,-9.05 0,-5.19999 3.350004,-8.45 7.55,-8.45 3.899996,0 5.75,2.7 5.9,3 0.199999,0.35 -0.1,0.85 0.3,1.15 l 2.55,-3"
     style=""
     id="path3060" /><path
     d="m 115.66465,323.00952 c -1.09999,-2.35 -3.55,-3.9 -6.7,-3.9 -4.34999,0 -9.649995,3.10001 -9.649995,11.8 0,8.44999 4.700005,12.15 9.099995,12.15 2.9,0 5.60001,-1.65 7.05,-4.2 l 0,2 c 0,0.55 0.05,1.1 0.2,1.65 l 3.6,0 c -0.2,-0.65 -0.2,-1.4 -0.2,-2.1 l -0.05,-29.7 c 0,-0.3 0,-0.4 0.2,-0.7 0.1,-0.15 0.3,-0.4 0.25,-0.75 l -3.8,0 0,13.75 m -6.55,-0.95 c 2,0 4.95001,1.05 5.85,4.45 0.3,1.05 0.4,2.3 0.4,4.85 0,1.75 -0.1,3 -0.5,4.2 -0.84999,2.7 -3.25,4.3 -5.6,4.3 -2.59999,0 -6.45,-2.00001 -6.45,-9.5 0,-6.54999 3.65001,-8.3 6.3,-8.3"
     style=""
     id="path3062" /><path
     d="m 135.01465,319.15952 c -5.44999,0 -10.5,3.90001 -10.5,12.2 0,7.64999 4.75001,11.7 10.95,11.7 3.3,0 6.25001,-1.2 8.2,-3.55 l -2,-1.95 c -1.44999,1.7 -3.65,2.6 -5.9,2.6 -3.04999,0 -7.5,-1.70001 -7.75,-8.55 l 16.2,0 c 0.15,-1.55 0.1,-3.05 -0.15,-4.35 -1.04999,-6.14999 -5.3,-8.1 -9.05,-8.1 m -6.9,9.7 c 0.75,-5.39999 4.20001,-6.95 6.65,-6.95 3.7,0 6.35,3.25001 5.9,6.95 l -12.55,0"
     style=""
     id="path3064" /><path
     d="m 164.26465,309.00952 c -3.19999,0 -6.2,1.35 -7.8,3.95 -1.19999,1.9 -1.25,3.8 -1.25,5.85 l 0,2.25 -5,0 0,2.85 5,0 0,18.6 3.45,0 0,-18.6 7.45,0 0,-2.85 -7.45,0 0,-1.8 c 0,-1.65 -0.05,-3.4 0.8,-4.9 0.95,-1.7 2.75001,-2.55 4.6,-2.55 2.2,0 4.05001,1.15 5,2.6 0.15,0.25 0.15,0.4 0.15,0.6 0,0.35 0.25,0.45 0.4,0.45 l 1.65,-3.35 c -1.64999,-1.95 -4.15,-3.1 -7,-3.1"
     style=""
     id="path3066" /><path
     d="m 178.36465,326.80952 c 0,-2.75 2.30001,-5 5.05,-5 2.8,0 5.05,2.25 5.05,5 0,2.75 -2.25,5 -5.05,5 -2.79999,0 -5.05,-2.25 -5.05,-5 m 5.25,-7.85 c -4.54999,0 -8.5,3.60001 -8.5,8.05 0,2.5 1.25001,4.85 3.35,6.2 -1.64999,1.4 -2.6,2.95 -2.6,4.4 0,0.95 0.40001,2.3 1.85,3.05 -2.44999,1.55 -3.7,3.25 -3.7,5.05 0,2.5 2.30001,5.45 10.3,5.45 7.75,0 10.55,-3.95 10.55,-7 0,-2 -1.15,-4 -3.55,-4.95 -2.39999,-1 -5.15,-0.65 -7.75,-0.65 -1.69999,0 -2.8,-0.15 -3.25,-0.3 -0.89999,-0.25 -1.4,-0.8 -1.4,-1.5 0,-1.2 1.4,-2.35 1.65,-2.55 0.9,0.35 1.90001,0.5 2.9,0.5 4.5,0 8.2,-3.6 8.2,-7.8 0,-1.4 -0.4,-2.75 -1.15,-3.9 1.2,-0.7 2.60001,-1.1 4,-1.1 0.45,0 0.85,0.05 1.3,0.15 l -0.4,-2.95 c -2.29999,-0.2 -4.6,0.55 -6.35,2 -1.44999,-1.4 -3.35,-2.15 -5.45,-2.15 m -3.45,22.35 c 0.85,0.1 2.05001,0.2 3.8,0.3 1.7,0.05 3.55001,-0.1 4.85,0.1 2.1,0.35 2.75,1.65 2.75,2.65 0,1 -0.6,2.2 -2.15,3.05 -1.69999,0.9 -3.6,1 -5.15,1 -1.04999,0 -3,-0.05 -4.7,-0.75 -1.84999,-0.75 -2.25,-2 -2.25,-2.8 0,-1.65 1.55001,-2.85 2.85,-3.55"
     style=""
     id="path3068" /><path
     d="m 200.56465,342.50952 3.7,0 0,-13.15 c 0,-1.5 0.15001,-2.65 1.1,-3.9 0.9,-1.15 3.10001,-3.2 5.5,-3.2 1.15,0 2.30001,0.5 3.1,1.45 1.25,1.5 1.25,3.45 1.25,5.05 l 0,13.75 3.55,0 0,-13.85 0,0 c 0,-1.75 -0.05,-3.65 -0.85,-5.5 -1.14999,-2.55 -3.45,-4 -6.05,-4 -3.09999,0 -5.95,2 -7.6,4.55 l 0,-13.25 c 0,-0.15 0,-0.3 0.15,-0.45 0.15,-0.15 0.35,-0.3 0.35,-0.55 0,-0.05 0,-0.1 -0.05,-0.15 l -4.15,0 0,33.2"
     style=""
     id="path3070" /><path
     d="m 227.41465,319.65952 0,2.95 5.5,0 0,17.05 -5.8,0 0,2.85 14.8,0 0,-2.85 -5.35,0 0,-20 -9.15,0 m 7.4,-9.9 c -1.44999,0 -2.6,1.15 -2.6,2.55 0,1.4 1.15001,2.55 2.6,2.55 1.45,0 2.6,-1.15 2.6,-2.55 0,-1.4 -1.15,-2.55 -2.6,-2.55"
     style=""
     id="path3072" /><path
     d="m 253.36465,319.65952 0,3 8.55,0 0,18.95 c 0,1.25 -0.05,2.45 -0.6,3.65 -0.84999,1.85 -2.65,2.9 -4.6,2.9 -2.74999,0 -4.25,-2 -4.45,-2.3 -0.2,-0.35 -0.1,-0.65 -0.45,-0.9 l -2.3,3.1 c 1.65,2.05 4.15001,3.2 6.95,3.2 3.3,0 6.45001,-1.55 8,-4.55 1,-1.95 1.05,-3.8 1.05,-5.75 l 0,-21.3 -12.15,0 m 10.4,-9.9 c -1.44999,0 -2.6,1.15 -2.6,2.55 0,1.4 1.15001,2.55 2.6,2.55 1.4,0 2.55,-1.15 2.55,-2.55 0,-1.4 -1.15,-2.55 -2.55,-2.55"
     style=""
     id="path3074" /><path
     d="m 275.41465,309.30952 0,33.25 3.6,0 0,-8.65 3.05,-2.8 9.3,11.65 c 0,0 1.95001,-0.2 4.3,-0.2 0.15,0 0.25,0 0.35,0 l -11.2,-13.65 9.65,-9.05 -1.3,0 c -0.89999,0 -1.8,-0.05 -2.7,-0.3 l -11.45,10.65 0,-19.6 c 0,-0.2 0.05,-0.35 0.2,-0.6 0.15,-0.15 0.35,-0.35 0.3,-0.7 l -4.1,0"
     style=""
     id="path3076" /><path
     d="m 301.31465,309.30952 0,2.9 6.5,0 0,27.45 -6.8,0 0,2.85 17.15,0 0,-2.85 -6.75,0 0,-30.35 -10.1,0"
     style=""
     id="path3078" /><path
     d="m 323.96465,342.50952 3.3,0 0,-15.2 c 0,-1.1 0.10001,-2.1 0.75,-3.3 0.8,-1.5 1.80001,-2.1 2.75,-2.1 0.8,0 1.7,0.5 2.1,1.75 0.3,0.95 0.25,2.05 0.25,3 l 0,15.85 3.35,0 0,-15.1 c 0,-1.2 0.10001,-2.15 0.95,-3.6 0.4,-0.6 1.25001,-2.05 2.65,-2.05 0.75,0 1.45,0.45 1.8,1.3 0.45,0.95 0.35,2.25 0.35,3.3 l 0,16.2 3.4,0 0,-16.25 c 0,-1.9 0.05,-3.8 -0.95,-5.35 -0.84999,-1.3 -2.3,-1.8 -3.55,-1.8 -2.19999,0 -4.25,1.3 -5.15,3.3 -0.35,-1.9 -1.95,-3.3 -4,-3.3 -1.89999,0 -3.65,1.2 -4.7,2.8 l 0.05,-2.25 -3.35,0 0,22.8"
     style=""
     id="path3080" /></g><g
   style="font-size:50px;font-style:normal;font-variant:normal;font-weight:bold;font-stretch:normal;fill:#000000;fill-opacity:1;stroke:none;overflow:visible;font-family:Inconsolata;-inkscape-font-specification:Inconsolata Medium"
   id="text2947-2"><path
     d="m 24.564656,382.51343 3.65,0 0,-13.15 c 0,-1.5 0.200001,-2.65 1.15,-3.9 0.849999,-1.15 3.050002,-3.2 5.45,-3.2 1.149999,0 2.3,0.5 3.1,1.45 1.249998,1.5 1.25,3.45 1.25,5.05 l 0,13.75 3.55,0 0,-13.85 0,0 c 0,-1.75 -10e-7,-3.65 -0.8,-5.5 -1.149999,-2.55 -3.500003,-4 -6.1,-4 -3.099997,0 -5.900002,2 -7.6,4.55 l 0,-4 -3.65,0 0,22.8"
     style=""
     id="path3029" /><path
     d="m 69.164656,371.21343 c 0,-7.89999 -5.000006,-12 -10.2,-12 -5.799995,0 -10.8,5 -10.8,12.1 0,6.94999 4.950005,11.85 10.7,11.85 5.399994,0 10.3,-4.35001 10.3,-11.95 m -10.45,-8.95 c 3.299996,0 6.8,2.85 6.8,9.1 0,5.74999 -3.300004,8.65 -6.6,8.65 -3.649997,0 -6.95,-3.40001 -6.95,-9.05 0,-5.6 3.250003,-8.7 6.75,-8.7"
     style=""
     id="path3031" /><path
     d="m 74.114656,359.71343 0.05,31.15 3.65,0 0,-11.35 c 1.549998,2.25 4.100002,3.65 6.85,3.65 4.699995,0 9.6,-3.95001 9.6,-12.3 0,-8.04999 -4.750005,-11.65 -9.25,-11.65 -2.949997,0 -5.700002,1.5 -7.25,4 l 0,-3.5 -3.65,0 m 9.55,2.55 c 1.999998,0 6.85,1.05001 6.85,9.35 0,7.19999 -4.700002,8.35 -6.85,8.35 -2.149998,0 -4.350001,-1.1 -5.25,-3.15 -0.65,-1.55 -0.65,-3.45001 -0.65,-6.75 0,-1.9 0.1,-3.3 0.6,-4.5 0.899999,-2.05 3.000002,-3.3 5.3,-3.3"
     style=""
     id="path3033" /><path
     d="m 114.81466,363.01343 c 0,0.05 -1.60001,-3.9 -6.65,-3.9 -5,0 -9.900004,4.05001 -9.900004,11.8 0,7.39999 4.350004,12.15 9.400004,12.15 2.89999,0 5.55,-1.65 7,-4.2 l 0,12 3.55,0 0,-31.15 -3.4,0 0,3.3 m -6.5,-0.95 c 2.04999,0 4.65,1.05 5.65,3.85 0.45,1.3 0.55,2.7 0.55,5.5 0,1.7 -0.1,2.95 -0.45,4.15 -0.9,2.7 -3.25001,4.3 -5.6,4.3 -3.3,0 -6.6,-3.00001 -6.6,-9.45 0,-6 3.4,-8.35 6.45,-8.35"
     style=""
     id="path3035" /><path
     d="m 126.11466,359.71343 0,22.85 3.6,0 0,-11.1 c 0,-1.4 0.05,-2.9 1.6,-5.35 2.09999,-3.3 4.8,-3.85 6.45,-3.85 1.89999,0 3.1,0.9 3.75,1.7 0.3,0.4 0.45,0.8 0.85,1.15 l 1.7,-3.45 c -1.45,-1.5 -3.55001,-2.5 -6.1,-2.5 -3.35,0 -6.75001,1.7 -8.25,4.95 l 0.15,-4.4 -3.75,0"
     style=""
     id="path3037" /><path
     d="m 167.76466,362.71343 c -2.1,-2.3 -5.15001,-3.55 -8.55,-3.55 -5.3,0 -8.75,2.95 -8.75,6.35 0,3.99999 4.3,5.45 5.55,5.9 1.94999,0.7 4.45,1.3 6.15,2.1 1.89999,0.9 2.25,2.1 2.25,2.9 0,2.15 -2.60001,3.6 -5.85,3.6 -3.9,0 -6.40001,-2.35 -7.15,-3.15 -0.15,-0.2 -0.15,-0.35 -0.15,-0.55 0,-0.05 0.05,-0.35 -0.2,-0.45 l -2.1,3.55 c 2.69999,2.5 6.2,3.65 9.65,3.65 6.24999,0 9.5,-3.70001 9.5,-7.15 0,-1.55 -0.65001,-3.65 -3.35,-5.15 -2.55,-1.45 -6.25001,-1.95 -8.4,-3 -1.85,-0.9 -2.25,-2 -2.25,-2.8 0,-1.8 2.25,-3.1 4.8,-3.1 3.29999,0 5.5,2 6.35,3.15 0.15,0.15 0.1,0.3 0.1,0.45 0,0.3 0.2,0.4 0.3,0.4 l 2.1,-3.15"
     style=""
     id="path3039" /><path
     d="m 180.56466,353.56343 -0.45,6.15 -5.45,0 -0.05,2.95 5.35,0 c -0.3,3.89999 -0.45,7.8 -0.45,11.65 0,2.05 0,4.35 1.35,6.25 1.09999,1.5 2.85,2.4 5.2,2.4 2.69999,0 5.35,-1.15 7.3,-2.55 l -1.1,-2.85 c -1.95,1.45 -3.75001,2.1 -5.15,2.1 -1.7,0 -3.45,-0.95001 -3.85,-3.7 0,-0.2 -0.15,-1.05001 -0.15,-4.4 0,-2.95 0.15,-5.95001 0.45,-8.9 l 7.5,0 0,-3 -7.45,0 c 0,0 0.35,-4.1 0.6,-5.4 0.05,-0.5 0.45,-0.8 0.25,-1.35 l -3.9,0.65"
     style=""
     id="path3041" /><path
     d="m 199.26466,359.71343 0,12.75 c 0,1.95 0,3.95 0.9,6 1.29999,2.99999 4.1,4.65 7.1,4.65 2.84999,0 5.55,-1.55 7.05,-4.05 l -0.05,1.7 c 0,0.6 0,1.2 0.1,1.75 l 3.8,0 c -0.25,-0.65 -0.3,-1.4 -0.3,-2.05 l 0,-20.75 -3.6,0 0,12.55 c 0,1.75 -0.15001,3.1 -0.9,4.5 -1.05,1.95 -3.10001,3.4 -5.3,3.4 -1.75,0 -3.45001,-1 -4.35,-2.8 -0.8,-1.6 -0.8,-3.4 -0.8,-4.9 l 0,-12.75 -3.65,0"
     style=""
     id="path3043" /><path
     d="m 223.11466,359.66343 9.05,23.05 2.85,0 5.55,-13.05 c 1.34999,-3.2 2.65,-6.50001 3.4,-10 l -3.25,0 c -0.6,3.34999 -1.80001,6.5 -3.1,9.5 l -3.65,8.5 -6.6,-16.7 c -0.05,-0.1 -0.1,-0.2 -0.1,-0.3 0,-0.3 0.25,-0.6 0.15,-1 l -4.3,0"
     style=""
     id="path3045" /><path
     d="m 246.91466,359.66343 4.6,22.9 3.25,0 4,-14.8 4.25,14.8 3.35,0 c 1.54999,-7.54999 2.85,-15.20001 3.8,-22.85 l -3.3,0 c 0.1,2.74999 -0.15001,5.30001 -2.15,18.3 l -4.8,-16.2 -2.2,0 -3.95,16.25 -3.3,-16.5 c -0.1,-0.35 -0.1,-0.5 0.05,-0.9 0.05,-0.25 0.2,-0.6 0.05,-1 l -3.65,0"
     style=""
     id="path3047" /><path
     d="m 289.26466,359.66343 -5.7,8.45 -6,-8.45 -3.9,0 7.85,11.25 -8,11.6 4.05,0 5.95,-8.85 6.3,8.85 4.1,0 -8.4,-11.7 7.4,-11.15 -3.65,0"
     style=""
     id="path3049" /><path
     d="m 298.41466,359.71343 9.3,22.75 -0.75,1.65 c -0.4,0.95 -0.85001,1.9 -1.55,2.65 -0.95,1.05 -2.15001,1.5 -3.2,1.5 -1.7,0 -2.55,-1.15 -2.7,-1.35 -0.15,-0.25 -0.1,-0.6 -0.4,-0.85 l -1.85,3.25 c 1.29999,1.25 3.05,1.9 4.95,1.9 2.04999,0 4.2,-0.75 5.7,-2.45 0.99999,-1.15 1.5,-2.35 2,-3.65 l 7.1,-18.85 c 0.84999,-2.15 1.6,-4.35 2.3,-6.6 l -3.75,0 c -0.4,2.1 -1.05001,4.1 -1.75,6.1 l -4.35,12.25 -6.7,-16.85 c -0.05,-0.15 -0.05,-0.25 -0.05,-0.4 0,-0.35 0.25,-0.6 0.2,-1.05 l -4.5,0"
     style=""
     id="path3051" /><path
     d="m 324.66466,359.66343 0,3.15 13.15,0 -14.15,17.3 0,2.45 19.95,0 0,-3.4 c -0.6,-0.1 -0.80001,0.3 -1.5,0.3 l -13.6,0 13.95,-17.35 0,-2.45 -17.8,0"
     style=""
     id="path3053" /></g><g
   style="font-size:50px;font-style:normal;font-variant:normal;font-weight:bold;font-stretch:normal;fill:#ffffff;fill-opacity:1;stroke:none;font-family:Inconsolata;-inkscape-font-specification:Inconsolata Medium"
   id="text2980"><path
     d="m 150.59668,403.23139 c -4.95,0 -10.05,6.10001 -10.05,16.05 0,10.09999 5.15,15.9 10.1,15.9 4.49999,0 9.85,-4.90001 9.85,-15.65 0,-10.59999 -5.10001,-16.3 -9.9,-16.3 m 4.85,7.15 -10.95,14.2 c -0.45,-1.75 -0.7,-3.7 -0.7,-5.9 0,-7.99999 3.65,-12.4 6.75,-12.4 1.69999,0 3.55,1.35 4.9,4.1 m 1.15,3.3 c 0.45,1.75 0.65,3.85 0.65,6.3 0,8.69999 -3.75001,12 -6.5,12 -1.85,0 -3.75,-1.5 -5.1,-4.25 l 10.95,-14.05"
     style=""
     id="path3008" /><path
     d="m 177.99668,403.43139 -2.4,0 -8.15,4.25 0.8,1.95 6.25,-1.85 0,26.85 3.5,0 0,-31.2"
     style=""
     id="path3010" /><path
     d="m 191.89668,408.28139 2.55,2.05 c 0.3,-0.45 0.15,-0.75 0.45,-1.15 0.75,-1.15 2.6,-2.85 5.3,-2.85 3.34999,0 6,2.55 6,5.9 0,3.8 -3.20001,6.55 -5.45,8.6 -3.55,3.2 -6.45001,6.40001 -9.05,11.55 l 0,2.2 18.3,0 0,-3.45 c -0.35,-0.15 -0.6,0.1 -0.7,0.2 -0.2,0.2 -0.3,0.2 -0.5,0.2 l -13.1,0 c 2.59999,-4.5 6.25,-7.6 8.5,-9.7 2.24999,-2.15 5.45,-5.35 5.45,-9.85 0,-4.84999 -3.95001,-8.75 -9,-8.75 -3.55,0 -6.90001,1.9 -8.75,5.05"
     style=""
     id="path3012" /><path
     d="m 233.54668,411.23139 c 0,-4.25 -3.60001,-7.9 -8.55,-7.9 -2.8,0 -5.55001,1.2 -7.5,3.35 l 1.95,2.15 c 1.45,-1.55 3.45,-2.4 5.4,-2.4 3.19999,0 5.4,2.25 5.4,4.9 0,1.85 -1.15001,3.95 -3.35,4.9 -0.55,0.2 -1.95001,0.75 -4.9,0.75 l 0,2.8 c 0.5,-0.05 1.05,-0.1 1.6,-0.1 4.19999,0 7.3,2.2 7.3,5.95 0,3.4 -2.60001,6.35 -6.25,6.35 -2.9,0 -4.65,-1.9 -4.9,-2.15 -0.4,-0.45 -0.2,-0.95 -0.65,-1.4 l -2.6,3.15 c 2.04999,2.35 5.05,3.55 8.15,3.55 5.99999,0 9.6,-4.25 9.6,-9.1 0,-3.7 -2.10001,-6.85 -5.35,-8.05 2.79999,-1.05 4.65,-3.7 4.65,-6.75"
     style=""
     id="path3014" /><path
     d="m 253.69668,403.43139 -13.25,19.95 0,2.6 12.55,0 0,8.6 3.6,0 0,-8.55 4.05,0 0,-3.1 -4.05,0 0,-19.5 -2.9,0 m -0.65,5.55 0,13.95 -9.15,0 9.15,-13.95"
     style=""
     id="path3016" /><path
     d="m 268.34668,403.43139 -1.1,15.85 2.25,0.9 c 1.5,-1.9 3.7,-2.95 5.85,-2.95 3.24999,0 6.35,2.50001 6.35,7.45 0,4.8 -2.95001,7.4 -6.3,7.4 -3.35,0 -5.55,-2.55 -5.7,-2.85 -0.2,-0.4 0.05,-0.9 -0.4,-1.2 l -3.1,2.35 c 2.09999,3.05 5.55,4.8 9.25,4.8 5.39999,0 9.85,-3.65001 9.85,-10.4 0,-6.69999 -4.20001,-10.4 -9.45,-10.4 -1.7,0 -3.45,0.4 -5.05,1.2 l 0.45,-9 12.9,0 0,-3.15 -15.8,0"
     style=""
     id="path3018" /><path
     d="m 302.39668,403.08139 c -3.75,0 -7.75001,2.30001 -9.7,7.75 -1.05,2.95 -1.3,6.6 -1.3,9.6 0,3.65 0.35,7.55 2.35,10.55 1.79999,2.75 4.6,4.15 7.35,4.15 4.74999,0 8.9,-4.00001 8.9,-10.45 0,-6.44999 -4.15001,-10.2 -8.55,-10.2 -2.7,0 -5.25,1.45 -6.6,3.75 0.2,-10.64999 5.3,-12.05 7.55,-12.05 2.04999,0 3.45,1.1 3.65,1.3 0.3,0.35 0.3,0.8 0.75,1.15 l 2.4,-2.7 c -1.8,-1.8 -4.30001,-2.85 -6.8,-2.85 m -1.3,14.5 c 2.49999,0 5.5,1.95001 5.5,7.3 0,4.85 -2.70001,7.15 -5.35,7.15 -3.8,0 -6.65,-4.45001 -6.25,-10.3 1.4,-2.55 3.8,-4.15 6.1,-4.15"
     style=""
     id="path3020" /><path
     d="m 316.94668,403.43139 0,3.35 13.35,0 c -1.6,3.7 -3.1,7.4 -4.55,11.15 -2.1,5.49999 -4.10001,11.05001 -5.95,16.65 l 3.95,0 c 1.5,-4.89999 3.15,-9.75 4.95,-14.55 1.79999,-4.94999 3.8,-9.8 5.9,-14.65 l 0,-1.95 -17.65,0"
     style=""
     id="path3022" /><path
     d="m 350.94668,403.08139 c -4.8,0 -8.45,3.45 -8.45,7.65 0,3.05 1.95,5.85 4.75,7.3 -3.7,1.75 -6.2,5.15 -6.2,8.75 0,4.65 4.1,8.35 9.45,8.35 5.44999,0 9.6,-3.8 9.6,-8.55 0,-3.7 -2.50001,-7 -6,-8.65 2.99999,-1.55 4.95,-4.5 4.95,-7.5 0,-4.1 -3.55001,-7.35 -8.1,-7.35 m -1.05,16.4 c 3.99999,1.25 6.65,4 6.65,7.05 0,3 -2.55001,5.45 -5.9,5.45 -3.4,0 -6,-2.55 -6,-5.65 0,-2.95 2.3,-5.65 5.25,-6.85 m 0.75,-13.5 c 2.79999,0 5,2.1 5,4.7 0,2.4 -1.85001,4.7 -4.3,6 0,0 -5.5,-2.1 -5.5,-6.25 0,-2.45 2.1,-4.45 4.8,-4.45"
     style=""
     id="path3024" /><path
     d="m 373.89668,435.13139 c 3.79999,0 7.75,-2.3 9.65,-7.25 0.55,-1.45 1.35,-4.15 1.35,-9.25 0,-3.9 -0.35,-6.6 -1.1,-8.7 -1.6,-4.79999 -5.20001,-6.8 -8.45,-6.8 -4.85,0 -8.9,4.30001 -8.9,10.35 0,5.94999 4,9.8 8.55,9.8 2.54999,0 4.95,-1.25 6.4,-3.35 -0.15,4.85 -0.95,6.95 -1.25,7.7 -1.35,3.15 -3.95001,4.3 -6.15,4.3 -2.25,0 -3.75,-1.1 -3.75,-1.15 -0.45,-0.3 -0.3,-0.85 -0.85,-1.2 l -2.4,2.7 c 1.84999,1.8 4.3,2.85 6.9,2.85 m 1.4,-14.9 c -2.75,0 -5.45,-2.25 -5.45,-6.9 0,-4.55 2.6,-7.1 5.45,-7.1 3.49999,0 6.5,3.90001 5.95,10.2 -1.4,2.35 -3.70001,3.8 -5.95,3.8"
     style=""
     id="path3026" /></g></svg>