<?xml version="1.0" encoding="UTF-8" standalone="no"?>
<!-- Created with Inkscape (http://www.inkscape.org/) -->
<svg
   xmlns:svg="http://www.w3.org/2000/svg"
   xmlns="http://www.w3.org/2000/svg"
   xmlns:xlink="http://www.w3.org/1999/xlink"
   version="1.0"
   width="396"
   height="468"
   viewBox="0 0 396 468"
   id="Layer_1"
   xml:space="preserve"><defs
   id="defs3580">
	
	
	
	
	
	
	
	
	
	
</defs>
<g
   id="g3397">
	<g
   id="g3399">
		<g
   id="g3401">
			<g
   id="g3403">
				<defs
   id="defs3405">
					<rect
   width="396"
   height="468"
   x="0"
   y="0"
   id="SVGID_1_" />
				</defs>
				<clipPath
   id="SVGID_2_">
					<use
   id="use3409"
   style="overflow:visible"
   x="0"
   y="0"
   width="396"
   height="468"
   xlink:href="#SVGID_1_" />
				</clipPath>
				<rect
   width="396"
   height="468"
   x="0"
   y="0"
   clip-path="url(#SVGID_2_)"
   id="rect3411"
   style="fill:#ffffff" />
			</g>
		</g>
		<g
   id="g3413">
			<g
   id="g3415">
				<defs
   id="defs3417">
					<rect
   width="396"
   height="468"
   x="0"
   y="0"
   id="SVGID_3_" />
				</defs>
				<clipPath
   id="SVGID_4_">
					<use
   id="use3421"
   style="overflow:visible"
   x="0"
   y="0"
   width="396"
   height="468"
   xlink:href="#SVGID_3_" />
				</clipPath>
				<path
   d="M 0,0 L 396,0 L 396,312 L 0,312 L 0,0 z"
   clip-path="url(#SVGID_4_)"
   id="path3423"
   style="fill:#f2eedf" />
			</g>
		</g>
	</g>
	<rect
   width="396"
   height="156"
   x="0"
   y="312"
   id="rect3425"
   style="fill:#b25966" />
</g>

<g
   id="g3449">
	<path
   d="M 45.951,129.199 L 30.57,129.199 L 27.875,135.469 C 27.211,137.012 26.879,138.164 26.879,138.926 C 26.879,139.531 27.167,140.064 27.743,140.523 C 28.319,140.982 29.564,141.28 31.478,141.417 L 31.478,142.501 L 18.968,142.501 L 18.968,141.417 C 20.628,141.124 21.702,140.743 22.191,140.274 C 23.187,139.336 24.29,137.432 25.502,134.561 L 39.477,101.866 L 40.502,101.866 L 54.33,134.913 C 55.443,137.569 56.454,139.293 57.362,140.084 C 58.27,140.875 59.534,141.319 61.156,141.417 L 61.156,142.501 L 45.482,142.501 L 45.482,141.417 C 47.064,141.339 48.133,141.076 48.69,140.626 C 49.247,140.177 49.525,139.63 49.525,138.985 C 49.525,138.126 49.134,136.769 48.353,134.913 L 45.951,129.199 z M 45.131,127.031 L 38.393,110.976 L 31.479,127.031 L 45.131,127.031 z"
   id="path3451" />
	<path
   d="M 78.91,138.633 C 76.156,140.762 74.428,141.992 73.724,142.324 C 72.669,142.812 71.546,143.056 70.355,143.056 C 68.499,143.056 66.971,142.422 65.77,141.152 C 64.569,139.882 63.968,138.213 63.968,136.142 C 63.968,134.834 64.261,133.701 64.847,132.744 C 65.648,131.416 67.039,130.166 69.022,128.994 C 71.004,127.822 74.3,126.397 78.91,124.717 L 78.91,123.662 C 78.91,120.986 78.485,119.15 77.636,118.154 C 76.787,117.158 75.551,116.66 73.93,116.66 C 72.7,116.66 71.722,116.993 71,117.656 C 70.257,118.32 69.887,119.082 69.887,119.941 L 69.946,121.64 C 69.946,122.538 69.716,123.232 69.258,123.72 C 68.799,124.208 68.198,124.452 67.456,124.452 C 66.733,124.452 66.142,124.199 65.684,123.69 C 65.225,123.182 64.996,122.489 64.996,121.61 C 64.996,119.93 65.855,118.387 67.574,116.981 C 69.292,115.575 71.705,114.872 74.81,114.872 C 77.193,114.872 79.146,115.272 80.669,116.073 C 81.821,116.678 82.671,117.626 83.218,118.915 C 83.57,119.755 83.745,121.474 83.745,124.071 L 83.745,133.182 C 83.745,135.741 83.793,137.308 83.891,137.884 C 83.989,138.46 84.15,138.846 84.374,139.041 C 84.598,139.236 84.857,139.334 85.15,139.334 C 85.462,139.334 85.736,139.266 85.97,139.129 C 86.38,138.876 87.171,138.162 88.343,136.99 L 88.343,138.631 C 86.155,141.561 84.066,143.026 82.073,143.026 C 81.116,143.026 80.354,142.693 79.788,142.03 C 79.222,141.368 78.929,140.234 78.91,138.633 z M 78.91,136.729 L 78.91,126.504 C 75.961,127.676 74.056,128.506 73.197,128.994 C 71.654,129.854 70.55,130.752 69.886,131.689 C 69.222,132.627 68.89,133.652 68.89,134.765 C 68.89,136.171 69.31,137.339 70.15,138.266 C 70.989,139.194 71.956,139.658 73.05,139.658 C 74.535,139.658 76.488,138.682 78.91,136.729 z"
   id="path3453" />
	<path
   d="M 116,104.941 L 116,120.644 L 124.73,120.644 C 126.996,120.644 128.509,120.303 129.271,119.619 C 130.286,118.721 130.853,117.139 130.97,114.873 L 132.054,114.873 L 132.054,128.701 L 130.97,128.701 C 130.696,126.767 130.423,125.527 130.15,124.98 C 129.798,124.296 129.222,123.76 128.421,123.369 C 127.62,122.978 126.389,122.783 124.73,122.783 L 116,122.783 L 116,135.879 C 116,137.637 116.078,138.706 116.234,139.087 C 116.39,139.468 116.663,139.771 117.054,139.995 C 117.445,140.22 118.186,140.332 119.281,140.332 L 126.019,140.332 C 128.265,140.332 129.896,140.176 130.912,139.863 C 131.927,139.551 132.904,138.936 133.842,138.017 C 135.053,136.806 136.293,134.98 137.563,132.538 L 138.735,132.538 L 135.307,142.499 L 104.692,142.499 L 104.692,141.415 L 106.098,141.415 C 107.036,141.415 107.924,141.191 108.764,140.741 C 109.389,140.429 109.814,139.96 110.038,139.335 C 110.262,138.71 110.375,137.431 110.375,135.497 L 110.375,109.686 C 110.375,107.166 110.121,105.614 109.613,105.028 C 108.91,104.247 107.738,103.856 106.097,103.856 L 104.691,103.856 L 104.691,102.772 L 135.306,102.772 L 135.745,111.473 L 134.602,111.473 C 134.192,109.383 133.738,107.948 133.24,107.166 C 132.742,106.385 132.005,105.789 131.028,105.379 C 130.247,105.086 128.87,104.94 126.897,104.94 L 116,104.94 L 116,104.941 z"
   id="path3455" />
	<path
   d="M 146.498,125.771 C 146.478,129.755 147.445,132.88 149.398,135.146 C 151.351,137.412 153.646,138.544 156.283,138.544 C 158.041,138.544 159.569,138.061 160.868,137.094 C 162.167,136.127 163.256,134.472 164.135,132.128 L 165.043,132.714 C 164.633,135.39 163.441,137.826 161.469,140.024 C 159.496,142.221 157.026,143.32 154.057,143.32 C 150.834,143.32 148.076,142.065 145.781,139.555 C 143.486,137.046 142.339,133.671 142.339,129.433 C 142.339,124.844 143.515,121.264 145.869,118.696 C 148.223,116.128 151.176,114.843 154.731,114.843 C 157.738,114.843 160.21,115.835 162.143,117.817 C 164.077,119.799 165.043,122.451 165.043,125.771 L 146.498,125.771 L 146.498,125.771 z M 146.498,124.072 L 158.92,124.072 C 158.822,122.354 158.617,121.142 158.305,120.439 C 157.817,119.345 157.089,118.486 156.122,117.861 C 155.155,117.236 154.144,116.923 153.09,116.923 C 151.468,116.923 150.018,117.553 148.739,118.813 C 147.46,120.073 146.713,121.827 146.498,124.072 z"
   id="path3457" />
	<path
   d="M 222.289,142.5 L 211.684,142.5 L 198.237,123.926 C 197.241,123.966 196.43,123.985 195.805,123.985 C 195.551,123.985 195.278,123.981 194.985,123.97 C 194.692,123.96 194.389,123.946 194.077,123.926 L 194.077,135.469 C 194.077,137.969 194.35,139.522 194.897,140.127 C 195.639,140.987 196.752,141.416 198.237,141.416 L 199.79,141.416 L 199.79,142.5 L 182.769,142.5 L 182.769,141.416 L 184.263,141.416 C 185.943,141.416 187.144,140.87 187.867,139.775 C 188.277,139.17 188.482,137.734 188.482,135.468 L 188.482,109.804 C 188.482,107.304 188.209,105.751 187.662,105.146 C 186.9,104.287 185.767,103.857 184.264,103.857 L 182.77,103.857 L 182.77,102.773 L 197.243,102.773 C 201.462,102.773 204.572,103.081 206.574,103.696 C 208.576,104.311 210.275,105.444 211.672,107.094 C 213.068,108.745 213.767,110.712 213.767,112.997 C 213.767,115.439 212.971,117.558 211.379,119.354 C 209.787,121.151 207.321,122.42 203.982,123.163 L 212.185,134.559 C 214.06,137.177 215.671,138.914 217.019,139.774 C 218.367,140.634 220.124,141.18 222.292,141.415 L 222.292,142.5 L 222.289,142.5 z M 194.076,122.08 C 194.447,122.08 194.769,122.085 195.043,122.095 C 195.316,122.105 195.541,122.11 195.717,122.11 C 199.506,122.11 202.363,121.29 204.286,119.649 C 206.209,118.008 207.172,115.919 207.172,113.379 C 207.172,110.899 206.396,108.882 204.843,107.329 C 203.29,105.776 201.234,105 198.676,105 C 197.543,105 196.01,105.186 194.076,105.557 L 194.076,122.08 z"
   id="path3459" />
	<path
   d="M 231.488,114.873 L 231.488,120.908 C 233.734,116.885 236.039,114.873 238.402,114.873 C 239.476,114.873 240.365,115.2 241.068,115.854 C 241.771,116.509 242.123,117.265 242.123,118.125 C 242.123,118.887 241.869,119.531 241.361,120.059 C 240.853,120.587 240.248,120.85 239.545,120.85 C 238.861,120.85 238.095,120.513 237.245,119.839 C 236.395,119.165 235.766,118.828 235.355,118.828 C 235.003,118.828 234.623,119.023 234.212,119.414 C 233.333,120.215 232.425,121.534 231.487,123.369 L 231.487,136.23 C 231.487,137.714 231.673,138.837 232.044,139.599 C 232.298,140.126 232.747,140.566 233.392,140.917 C 234.037,141.268 234.964,141.444 236.175,141.444 L 236.175,142.499 L 222.435,142.499 L 222.435,141.444 C 223.802,141.444 224.818,141.229 225.482,140.799 C 225.97,140.487 226.312,139.989 226.507,139.305 C 226.605,138.973 226.653,138.026 226.653,136.463 L 226.653,126.063 C 226.653,122.938 226.59,121.078 226.463,120.482 C 226.336,119.886 226.102,119.452 225.76,119.178 C 225.418,118.905 224.993,118.768 224.486,118.768 C 223.881,118.768 223.197,118.914 222.435,119.207 L 222.142,118.152 L 230.257,114.871 L 231.488,114.871 L 231.488,114.873 z"
   id="path3461" />
	<path
   d="M 49.408,173.865 L 46.39,206.912 C 46.233,208.455 46.156,209.471 46.156,209.959 C 46.156,210.74 46.302,211.336 46.595,211.746 C 46.966,212.313 47.469,212.732 48.104,213.006 C 48.738,213.28 49.808,213.416 51.312,213.416 L 50.99,214.5 L 35.346,214.5 L 35.668,213.416 L 36.342,213.416 C 37.612,213.416 38.646,213.143 39.447,212.596 C 40.013,212.225 40.453,211.61 40.765,210.75 C 40.98,210.145 41.185,208.719 41.38,206.473 L 41.849,201.434 L 30.482,201.434 L 26.439,206.913 C 25.521,208.143 24.945,209.027 24.71,209.564 C 24.476,210.102 24.358,210.604 24.358,211.073 C 24.358,211.698 24.611,212.235 25.12,212.684 C 25.628,213.134 26.468,213.377 27.64,213.416 L 27.318,214.5 L 15.57,214.5 L 15.892,213.416 C 17.338,213.357 18.612,212.874 19.715,211.966 C 20.818,211.058 22.464,209.12 24.652,206.151 L 48.382,173.866 L 49.408,173.866 L 49.408,173.865 z M 43.607,183.621 L 32.093,199.295 L 42.083,199.295 L 43.607,183.621 z"
   id="path3463" />
	<path
   d="M 83.305,187.986 L 77.592,207.849 L 76.947,210.515 C 76.888,210.769 76.859,210.984 76.859,211.16 C 76.859,211.473 76.957,211.746 77.152,211.98 C 77.308,212.156 77.504,212.244 77.738,212.244 C 77.991,212.244 78.324,212.088 78.734,211.775 C 79.496,211.209 80.511,210.037 81.781,208.259 L 82.777,208.962 C 81.429,210.994 80.042,212.541 78.617,213.606 C 77.191,214.67 75.873,215.203 74.662,215.203 C 73.822,215.203 73.192,214.993 72.772,214.573 C 72.352,214.153 72.142,213.543 72.142,212.742 C 72.142,211.785 72.357,210.526 72.787,208.963 L 73.402,206.766 C 70.843,210.106 68.49,212.44 66.341,213.768 C 64.798,214.725 63.284,215.204 61.8,215.204 C 60.374,215.204 59.144,214.613 58.109,213.432 C 57.073,212.25 56.556,210.624 56.556,208.554 C 56.556,205.449 57.489,202.172 59.354,198.725 C 61.219,195.278 63.587,192.519 66.458,190.449 C 68.704,188.808 70.823,187.988 72.815,187.988 C 74.006,187.988 74.998,188.301 75.789,188.926 C 76.58,189.551 77.181,190.586 77.591,192.031 L 78.646,188.691 L 83.305,187.986 z M 72.875,189.51 C 71.625,189.51 70.297,190.096 68.891,191.268 C 66.899,192.928 65.126,195.389 63.574,198.651 C 62.021,201.913 61.245,204.862 61.245,207.499 C 61.245,208.828 61.577,209.877 62.241,210.648 C 62.905,211.42 63.666,211.805 64.526,211.805 C 66.654,211.805 68.969,210.233 71.469,207.088 C 74.809,202.909 76.479,198.621 76.479,194.227 C 76.479,192.567 76.157,191.366 75.512,190.623 C 74.867,189.881 73.988,189.51 72.875,189.51 z"
   id="path3465" />
	<path
   d="M 119.574,176.912 L 115.033,192.615 L 118.754,192.615 C 121.41,192.615 123.334,192.21 124.525,191.399 C 125.716,190.589 126.741,189.089 127.601,186.902 L 128.685,186.902 L 124.613,201.316 L 123.441,201.316 C 123.793,200.105 123.968,199.07 123.968,198.211 C 123.968,197.372 123.797,196.698 123.455,196.19 C 123.113,195.682 122.644,195.307 122.049,195.062 C 121.453,194.818 120.198,194.696 118.284,194.696 L 114.505,194.696 L 110.667,207.85 C 110.296,209.12 110.11,210.087 110.11,210.75 C 110.11,211.258 110.354,211.707 110.842,212.098 C 111.174,212.372 112.004,212.508 113.332,212.508 L 116.848,212.508 C 120.657,212.508 123.708,211.834 126.003,210.487 C 128.298,209.139 130.354,206.796 132.17,203.456 L 133.254,203.456 L 129.504,214.501 L 98.803,214.501 L 99.184,213.417 C 100.707,213.378 101.733,213.241 102.26,213.007 C 103.041,212.655 103.608,212.206 103.959,211.659 C 104.486,210.858 105.111,209.179 105.834,206.62 L 112.807,182.655 C 113.353,180.721 113.627,179.247 113.627,178.231 C 113.627,177.489 113.368,176.908 112.851,176.488 C 112.333,176.068 111.323,175.858 109.819,175.858 L 109.204,175.858 L 109.556,174.774 L 138.091,174.774 L 135.63,184.354 L 134.546,184.354 C 134.682,183.456 134.751,182.704 134.751,182.098 C 134.751,181.063 134.497,180.194 133.989,179.491 C 133.325,178.593 132.358,177.909 131.089,177.44 C 130.151,177.088 127.993,176.913 124.614,176.913 L 119.574,176.913 L 119.574,176.912 z"
   id="path3467" />
	<path
   d="M 143.949,203.455 C 143.812,204.432 143.744,205.242 143.744,205.887 C 143.744,207.626 144.359,209.105 145.59,210.325 C 146.82,211.546 148.315,212.156 150.072,212.156 C 151.478,212.156 152.83,211.868 154.13,211.292 C 155.429,210.716 157.357,209.442 159.916,207.469 L 160.531,208.319 C 155.902,212.909 151.488,215.204 147.289,215.204 C 144.437,215.204 142.289,214.306 140.844,212.509 C 139.398,210.712 138.676,208.73 138.676,206.562 C 138.676,203.652 139.574,200.673 141.371,197.626 C 143.168,194.579 145.424,192.211 148.139,190.522 C 150.853,188.833 153.647,187.988 156.518,187.988 C 158.588,187.988 160.122,188.408 161.118,189.248 C 162.114,190.088 162.612,191.084 162.612,192.236 C 162.612,193.858 161.967,195.41 160.678,196.894 C 158.979,198.828 156.478,200.391 153.178,201.582 C 150.99,202.381 147.914,203.006 143.949,203.455 z M 144.154,202.02 C 147.044,201.688 149.398,201.122 151.215,200.321 C 153.617,199.247 155.419,197.963 156.62,196.468 C 157.821,194.973 158.422,193.553 158.422,192.205 C 158.422,191.385 158.163,190.721 157.646,190.213 C 157.128,189.705 156.391,189.451 155.434,189.451 C 153.442,189.451 151.328,190.511 149.091,192.63 C 146.854,194.75 145.209,197.879 144.154,202.02 z"
   id="path3469" />
	<path
   d="M 203.363,214.5 L 197.006,195.193 C 195.522,195.213 193.998,195.066 192.436,194.754 L 189.008,206.766 C 188.559,208.329 188.334,209.647 188.334,210.721 C 188.334,211.541 188.617,212.186 189.184,212.655 C 189.614,213.007 190.786,213.26 192.7,213.417 L 192.436,214.501 L 177.055,214.501 L 177.377,213.417 C 178.822,213.358 179.799,213.212 180.307,212.978 C 181.108,212.646 181.694,212.197 182.065,211.63 C 182.69,210.712 183.344,209.091 184.028,206.767 L 190.971,182.773 C 191.44,181.172 191.674,179.931 191.674,179.052 C 191.674,178.154 191.308,177.392 190.575,176.767 C 189.843,176.142 188.793,175.84 187.426,175.859 L 187.778,174.775 L 200.727,174.775 C 205.063,174.775 208.188,175.595 210.102,177.236 C 212.016,178.877 212.973,181.035 212.973,183.711 C 212.973,186.27 211.992,188.608 210.029,190.728 C 208.066,192.848 205.376,194.19 201.958,194.756 L 205.825,206.387 C 206.763,209.239 207.7,211.094 208.638,211.953 C 209.576,212.813 211.089,213.301 213.179,213.418 L 212.857,214.502 L 203.363,214.502 L 203.363,214.5 z M 192.934,193.084 C 194.184,193.26 195.297,193.348 196.274,193.348 C 199.633,193.348 202.29,192.415 204.243,190.55 C 206.196,188.685 207.173,186.365 207.173,183.592 C 207.173,181.424 206.563,179.764 205.342,178.612 C 204.121,177.46 202.29,176.883 199.849,176.883 C 199.224,176.883 198.482,176.961 197.622,177.117 L 192.934,193.084 z"
   id="path3471" />
	<path
   d="M 218.217,189.627 L 228.324,187.986 L 224.105,202.224 C 227.523,196.384 230.628,192.303 233.421,189.978 C 235.003,188.65 236.292,187.986 237.288,187.986 C 237.933,187.986 238.44,188.176 238.811,188.557 C 239.182,188.938 239.368,189.49 239.368,190.212 C 239.368,191.501 239.036,192.732 238.372,193.903 C 237.903,194.782 237.229,195.221 236.351,195.221 C 235.902,195.221 235.516,195.075 235.194,194.782 C 234.872,194.489 234.672,194.04 234.593,193.434 C 234.554,193.063 234.466,192.819 234.329,192.702 C 234.173,192.546 233.987,192.468 233.772,192.468 C 233.44,192.468 233.127,192.546 232.834,192.702 C 232.326,192.976 231.555,193.738 230.52,194.987 C 228.899,196.902 227.141,199.382 225.247,202.428 C 224.427,203.717 223.724,205.172 223.138,206.793 C 222.318,209.02 221.849,210.357 221.732,210.807 L 220.794,214.498 L 216.312,214.498 L 221.732,196.305 C 222.357,194.196 222.67,192.692 222.67,191.793 C 222.67,191.441 222.524,191.148 222.231,190.914 C 221.84,190.602 221.323,190.445 220.678,190.445 C 220.268,190.445 219.516,190.533 218.422,190.709 L 218.217,189.627 z"
   id="path3473" />
</g>
<g
   id="g3475">
	<path
   d="M 323.396,197.354 C 312.611,205.693 305.84,210.512 303.086,211.812 C 298.955,213.723 294.556,214.681 289.89,214.681 C 282.622,214.681 276.637,212.196 271.933,207.223 C 267.228,202.251 264.876,195.711 264.876,187.601 C 264.876,182.477 266.022,178.039 268.317,174.29 C 271.454,169.089 276.904,164.192 284.669,159.602 C 292.433,155.012 305.341,149.429 323.396,142.849 L 323.396,138.718 C 323.396,128.239 321.733,121.047 318.405,117.146 C 315.078,113.245 310.238,111.294 303.89,111.294 C 299.07,111.294 295.244,112.596 292.415,115.195 C 289.507,117.797 288.054,120.78 288.054,124.145 L 288.284,130.8 C 288.284,134.32 287.384,137.036 285.587,138.947 C 283.789,140.86 281.437,141.816 278.53,141.816 C 275.699,141.816 273.384,140.823 271.588,138.833 C 269.79,136.845 268.892,134.128 268.892,130.686 C 268.892,124.108 272.257,118.064 278.99,112.556 C 285.72,107.048 295.17,104.294 307.332,104.294 C 316.664,104.294 324.314,105.863 330.281,108.999 C 334.795,111.371 338.122,115.081 340.264,120.129 C 341.641,123.419 342.329,130.151 342.329,140.324 L 342.329,176.01 C 342.329,186.032 342.518,192.171 342.903,194.427 C 343.284,196.684 343.916,198.196 344.796,198.959 C 345.675,199.725 346.69,200.106 347.837,200.106 C 349.06,200.106 350.132,199.839 351.05,199.303 C 352.656,198.31 355.755,195.516 360.345,190.927 L 360.345,197.353 C 351.777,208.828 343.591,214.565 335.788,214.565 C 332.04,214.565 329.056,213.263 326.839,210.664 C 324.619,208.064 323.473,203.627 323.396,197.354 z M 323.396,189.895 L 323.396,149.849 C 311.845,154.439 304.386,157.691 301.021,159.602 C 294.977,162.969 290.654,166.487 288.054,170.159 C 285.452,173.831 284.154,177.847 284.154,182.207 C 284.154,187.715 285.798,192.287 289.088,195.919 C 292.376,199.553 296.162,201.37 300.447,201.37 C 306.26,201.37 313.91,197.545 323.396,189.895 z"
   id="path3477"
   style="fill:#c4b587" />
</g>
<g
   id="g3479">
	<g
   id="g3481">
		<path
   d="M 140.076,267.512 L 140.076,278.528 C 140.076,280.676 140.208,282.029 140.472,282.586 C 140.736,283.143 141.204,283.587 141.878,283.919 C 142.552,284.251 143.787,284.417 145.584,284.417 L 145.584,285.501 L 125.398,285.501 L 125.398,284.417 C 127.233,284.417 128.479,284.246 129.133,283.904 C 129.787,283.562 130.246,283.118 130.51,282.571 C 130.774,282.024 130.906,280.676 130.906,278.528 L 130.906,252.747 C 130.906,250.599 130.774,249.246 130.51,248.689 C 130.246,248.132 129.782,247.688 129.118,247.356 C 128.454,247.024 127.214,246.858 125.397,246.858 L 125.397,245.774 L 142.711,245.774 C 148.414,245.774 152.506,246.79 154.986,248.821 C 157.466,250.852 158.707,253.391 158.707,256.438 C 158.707,259.016 157.906,261.223 156.305,263.059 C 154.703,264.895 152.496,266.145 149.684,266.809 C 147.791,267.277 144.588,267.512 140.076,267.512 z M 140.076,248.059 L 140.076,265.227 C 140.721,265.266 141.208,265.286 141.541,265.286 C 143.924,265.286 145.76,264.578 147.049,263.162 C 148.338,261.746 148.983,259.554 148.983,256.585 C 148.983,253.636 148.338,251.478 147.049,250.11 C 145.76,248.742 143.836,248.059 141.278,248.059 L 140.076,248.059 z"
   id="path3483"
   style="fill:#b25966" />
		<path
   d="M 189.002,258.107 L 189.002,279.552 C 189.002,281.642 189.197,282.946 189.588,283.463 C 189.979,283.981 190.77,284.308 191.961,284.444 L 191.961,285.499 L 180.799,285.499 L 180.799,281.837 C 179.49,283.4 178.181,284.537 176.873,285.25 C 175.564,285.963 174.1,286.319 172.478,286.319 C 170.935,286.319 169.563,285.845 168.362,284.898 C 167.161,283.951 166.355,282.842 165.945,281.573 C 165.535,280.304 165.33,278.087 165.33,274.923 L 165.33,264.054 C 165.33,261.984 165.14,260.695 164.759,260.187 C 164.378,259.679 163.582,259.347 162.371,259.191 L 162.371,258.107 L 173.533,258.107 L 173.533,276.828 C 173.533,278.781 173.625,280.041 173.811,280.607 C 173.997,281.173 174.29,281.603 174.69,281.896 C 175.09,282.189 175.554,282.335 176.082,282.335 C 176.785,282.335 177.419,282.149 177.986,281.778 C 178.767,281.27 179.704,280.245 180.799,278.702 L 180.799,264.054 C 180.799,261.984 180.609,260.695 180.228,260.187 C 179.847,259.679 179.051,259.347 177.84,259.191 L 177.84,258.107 L 189.002,258.107 z"
   id="path3485"
   style="fill:#b25966" />
		<path
   d="M 206.521,245.773 L 206.521,260.861 C 208.826,258.478 211.345,257.287 214.08,257.287 C 215.955,257.287 217.723,257.839 219.383,258.942 C 221.043,260.045 222.342,261.613 223.279,263.644 C 224.216,265.675 224.685,268.019 224.685,270.675 C 224.685,273.663 224.089,276.378 222.898,278.82 C 221.707,281.262 220.115,283.122 218.123,284.401 C 216.131,285.68 213.855,286.32 211.297,286.32 C 209.813,286.32 208.494,286.086 207.342,285.617 C 206.19,285.148 205.057,284.387 203.944,283.332 L 199.403,286.291 L 198.407,286.291 L 198.407,251.457 C 198.407,249.875 198.338,248.898 198.202,248.527 C 198.007,247.98 197.699,247.575 197.279,247.311 C 196.859,247.047 196.151,246.896 195.155,246.857 L 195.155,245.773 L 206.521,245.773 L 206.521,245.773 z M 206.521,263.469 L 206.521,275.657 C 206.521,278.137 206.58,279.72 206.697,280.403 C 206.892,281.555 207.361,282.488 208.103,283.201 C 208.845,283.914 209.792,284.27 210.945,284.27 C 211.941,284.27 212.795,283.987 213.508,283.42 C 214.221,282.854 214.816,281.731 215.295,280.051 C 215.774,278.371 216.013,275.344 216.013,270.969 C 216.013,266.77 215.486,263.889 214.431,262.326 C 213.669,261.193 212.644,260.627 211.355,260.627 C 209.676,260.627 208.064,261.574 206.521,263.469 z"
   id="path3487"
   style="fill:#b25966" />
		<path
   d="M 240.008,245.773 L 240.008,279.816 C 240.008,281.75 240.233,282.985 240.682,283.522 C 241.131,284.059 242.01,284.367 243.319,284.445 L 243.319,285.5 L 228.524,285.5 L 228.524,284.445 C 229.735,284.406 230.633,284.054 231.219,283.39 C 231.61,282.941 231.805,281.749 231.805,279.816 L 231.805,251.457 C 231.805,249.543 231.58,248.317 231.131,247.78 C 230.682,247.243 229.813,246.935 228.524,246.857 L 228.524,245.773 L 240.008,245.773 z"
   id="path3489"
   style="fill:#b25966" />
		<path
   d="M 256.648,258.107 L 256.648,279.816 C 256.648,281.75 256.873,282.985 257.322,283.522 C 257.771,284.059 258.65,284.367 259.959,284.445 L 259.959,285.5 L 245.164,285.5 L 245.164,284.445 C 246.375,284.406 247.273,284.054 247.859,283.39 C 248.25,282.941 248.445,281.749 248.445,279.816 L 248.445,263.82 C 248.445,261.886 248.22,260.651 247.771,260.114 C 247.322,259.577 246.453,259.269 245.164,259.191 L 245.164,258.107 L 256.648,258.107 L 256.648,258.107 z M 252.547,244.836 C 253.817,244.836 254.891,245.28 255.77,246.169 C 256.649,247.058 257.088,248.127 257.088,249.377 C 257.088,250.627 256.644,251.691 255.755,252.57 C 254.865,253.449 253.797,253.888 252.547,253.888 C 251.297,253.888 250.233,253.449 249.354,252.57 C 248.475,251.691 248.036,250.627 248.036,249.377 C 248.036,248.127 248.475,247.058 249.354,246.169 C 250.233,245.28 251.297,244.836 252.547,244.836 z"
   id="path3491"
   style="fill:#b25966" />
		<path
   d="M 279.939,257.346 L 280.378,266.692 L 279.382,266.692 C 278.191,263.919 276.954,262.024 275.676,261.008 C 274.397,259.992 273.122,259.485 271.853,259.485 C 271.052,259.485 270.369,259.754 269.802,260.291 C 269.235,260.828 268.952,261.448 268.952,262.151 C 268.952,262.678 269.147,263.186 269.538,263.674 C 270.163,264.475 271.911,265.847 274.782,267.79 C 277.653,269.733 279.543,271.384 280.451,272.741 C 281.359,274.098 281.813,275.617 281.813,277.297 C 281.813,278.82 281.432,280.315 280.67,281.779 C 279.908,283.243 278.834,284.367 277.447,285.148 C 276.06,285.929 274.527,286.32 272.847,286.32 C 271.538,286.32 269.79,285.91 267.603,285.09 C 267.017,284.875 266.617,284.768 266.402,284.768 C 265.757,284.768 265.22,285.256 264.791,286.233 L 263.824,286.233 L 263.355,276.389 L 264.351,276.389 C 265.23,278.967 266.435,280.901 267.969,282.19 C 269.502,283.479 270.952,284.124 272.32,284.124 C 273.258,284.124 274.023,283.836 274.62,283.26 C 275.216,282.684 275.514,281.986 275.514,281.165 C 275.514,280.227 275.221,279.417 274.635,278.733 C 274.049,278.049 272.74,277.014 270.709,275.628 C 267.721,273.558 265.787,271.976 264.908,270.882 C 263.619,269.28 262.974,267.513 262.974,265.579 C 262.974,263.47 263.702,261.56 265.157,259.851 C 266.611,258.142 268.717,257.288 271.47,257.288 C 272.954,257.288 274.39,257.649 275.777,258.372 C 276.304,258.665 276.734,258.811 277.066,258.811 C 277.418,258.811 277.701,258.738 277.916,258.591 C 278.131,258.444 278.473,258.029 278.941,257.346 L 279.939,257.346 z"
   id="path3493"
   style="fill:#b25966" />
		<path
   d="M 297.166,245.773 L 297.166,261.623 C 298.67,260.041 300.047,258.923 301.297,258.269 C 302.547,257.615 303.846,257.288 305.193,257.288 C 306.912,257.288 308.381,257.776 309.602,258.753 C 310.822,259.73 311.633,260.877 312.034,262.195 C 312.433,263.513 312.635,265.735 312.635,268.86 L 312.635,279.553 C 312.635,281.643 312.83,282.947 313.221,283.464 C 313.612,283.981 314.403,284.309 315.594,284.445 L 315.594,285.5 L 301.707,285.5 L 301.707,284.445 C 302.684,284.308 303.416,283.918 303.904,283.273 C 304.256,282.765 304.431,281.525 304.431,279.552 L 304.431,267.335 C 304.431,265.069 304.343,263.648 304.167,263.072 C 303.991,262.496 303.693,262.047 303.273,261.724 C 302.852,261.402 302.379,261.241 301.852,261.241 C 301.071,261.241 300.309,261.51 299.567,262.047 C 298.825,262.584 298.024,263.526 297.165,264.874 L 297.165,279.552 C 297.165,281.505 297.311,282.726 297.604,283.214 C 297.975,283.878 298.737,284.288 299.889,284.444 L 299.889,285.499 L 286.002,285.499 L 286.002,284.444 C 287.154,284.327 287.975,283.956 288.463,283.331 C 288.795,282.901 288.961,281.642 288.961,279.552 L 288.961,251.72 C 288.961,249.65 288.771,248.361 288.39,247.853 C 288.009,247.345 287.213,247.013 286.002,246.857 L 286.002,245.773 L 297.166,245.773 z"
   id="path3495"
   style="fill:#b25966" />
		<path
   d="M 342.547,270.822 L 327.518,270.822 C 327.694,274.455 328.661,277.326 330.418,279.435 C 331.766,281.056 333.387,281.867 335.281,281.867 C 336.453,281.867 337.517,281.54 338.474,280.886 C 339.431,280.232 340.456,279.055 341.55,277.356 L 342.546,278.001 C 341.062,281.028 339.421,283.172 337.624,284.432 C 335.827,285.692 333.747,286.322 331.384,286.322 C 327.321,286.322 324.245,284.759 322.155,281.634 C 320.475,279.114 319.635,275.989 319.635,272.259 C 319.635,267.689 320.869,264.051 323.341,261.346 C 325.812,258.641 328.707,257.288 332.028,257.288 C 334.801,257.288 337.209,258.426 339.25,260.701 C 341.291,262.976 342.391,266.35 342.547,270.822 z M 335.34,268.859 C 335.34,265.714 335.168,263.556 334.827,262.384 C 334.485,261.212 333.953,260.323 333.23,259.718 C 332.82,259.366 332.273,259.191 331.589,259.191 C 330.573,259.191 329.743,259.689 329.099,260.685 C 327.947,262.423 327.37,264.806 327.37,267.833 L 327.37,268.858 L 335.34,268.858 L 335.34,268.859 z"
   id="path3497"
   style="fill:#b25966" />
		<path
   d="M 357.342,258.107 L 357.342,264.318 C 359.158,261.486 360.75,259.606 362.117,258.678 C 363.484,257.75 364.803,257.286 366.072,257.286 C 367.166,257.286 368.039,257.623 368.694,258.297 C 369.348,258.971 369.675,259.923 369.675,261.153 C 369.675,262.462 369.357,263.477 368.723,264.2 C 368.088,264.923 367.322,265.284 366.423,265.284 C 365.388,265.284 364.489,264.952 363.728,264.288 C 362.967,263.624 362.517,263.253 362.38,263.175 C 362.185,263.058 361.96,262.999 361.706,262.999 C 361.14,262.999 360.602,263.214 360.095,263.644 C 359.294,264.308 358.689,265.255 358.279,266.486 C 357.654,268.381 357.341,270.47 357.341,272.756 L 357.341,279.055 L 357.37,280.696 C 357.37,281.809 357.438,282.522 357.575,282.835 C 357.809,283.362 358.156,283.748 358.615,283.992 C 359.073,284.236 359.85,284.388 360.944,284.446 L 360.944,285.501 L 346.15,285.501 L 346.15,284.446 C 347.341,284.348 348.146,284.021 348.567,283.465 C 348.987,282.908 349.197,281.439 349.197,279.056 L 349.197,263.91 C 349.197,262.347 349.119,261.351 348.963,260.922 C 348.768,260.375 348.484,259.975 348.113,259.721 C 347.742,259.467 347.088,259.291 346.15,259.194 L 346.15,258.11 L 357.342,258.11 L 357.342,258.107 z"
   id="path3499"
   style="fill:#b25966" />
	</g>
</g>
<g
   id="g3501">
	<path
   d="M 38.322,354.406 C 36.119,356.109 34.736,357.094 34.174,357.359 C 33.33,357.75 32.431,357.945 31.479,357.945 C 29.994,357.945 28.772,357.437 27.811,356.422 C 26.85,355.407 26.37,354.07 26.37,352.414 C 26.37,351.367 26.604,350.461 27.073,349.695 C 27.714,348.632 28.827,347.632 30.413,346.695 C 31.998,345.757 34.635,344.617 38.323,343.273 L 38.323,342.429 C 38.323,340.288 37.983,338.82 37.303,338.023 C 36.623,337.226 35.635,336.828 34.338,336.828 C 33.354,336.828 32.572,337.094 31.994,337.625 C 31.4,338.156 31.103,338.766 31.103,339.453 L 31.15,340.812 C 31.15,341.531 30.966,342.085 30.599,342.476 C 30.232,342.867 29.751,343.062 29.158,343.062 C 28.58,343.062 28.107,342.859 27.74,342.453 C 27.373,342.047 27.189,341.492 27.189,340.789 C 27.189,339.445 27.877,338.211 29.252,337.086 C 30.627,335.961 32.557,335.398 35.041,335.398 C 36.947,335.398 38.51,335.718 39.729,336.359 C 40.651,336.843 41.331,337.601 41.768,338.632 C 42.049,339.304 42.19,340.679 42.19,342.757 L 42.19,350.046 C 42.19,352.093 42.229,353.347 42.307,353.808 C 42.385,354.269 42.514,354.578 42.694,354.734 C 42.873,354.89 43.081,354.968 43.315,354.968 C 43.565,354.968 43.784,354.913 43.971,354.804 C 44.299,354.601 44.932,354.031 45.869,353.093 L 45.869,354.406 C 44.119,356.75 42.447,357.922 40.853,357.922 C 40.087,357.922 39.478,357.656 39.025,357.125 C 38.571,356.594 38.337,355.688 38.322,354.406 z M 38.322,352.883 L 38.322,344.703 C 35.963,345.641 34.439,346.305 33.752,346.695 C 32.518,347.383 31.634,348.101 31.104,348.851 C 30.573,349.601 30.307,350.421 30.307,351.312 C 30.307,352.437 30.643,353.371 31.315,354.113 C 31.986,354.855 32.76,355.226 33.635,355.226 C 34.821,355.227 36.384,354.445 38.322,352.883 z"
   id="path3503" />
	<path
   d="M 58.145,339.734 C 60.223,336.843 62.465,335.398 64.872,335.398 C 67.075,335.398 68.997,336.339 70.638,338.222 C 72.279,340.105 73.099,342.679 73.099,345.945 C 73.099,349.758 71.833,352.828 69.302,355.156 C 67.13,357.156 64.708,358.156 62.036,358.156 C 60.786,358.156 59.516,357.929 58.227,357.476 C 56.938,357.023 55.622,356.343 54.278,355.437 L 54.278,333.195 C 54.278,330.757 54.219,329.257 54.102,328.695 C 53.985,328.133 53.801,327.75 53.551,327.547 C 53.301,327.344 52.988,327.242 52.613,327.242 C 52.175,327.242 51.629,327.367 50.972,327.617 L 50.644,326.797 L 57.089,324.172 L 58.144,324.172 L 58.144,339.734 L 58.145,339.734 z M 58.145,341.234 L 58.145,354.078 C 58.942,354.859 59.766,355.449 60.618,355.848 C 61.47,356.246 62.341,356.446 63.231,356.446 C 64.652,356.446 65.977,355.665 67.204,354.102 C 68.431,352.539 69.044,350.266 69.044,347.282 C 69.044,344.532 68.431,342.419 67.204,340.942 C 65.977,339.465 64.582,338.727 63.02,338.727 C 62.191,338.727 61.364,338.938 60.536,339.36 C 59.911,339.672 59.114,340.297 58.145,341.234 z"
   id="path3505" />
	<path
   d="M 99.297,349.344 C 98.719,352.172 97.586,354.348 95.899,355.871 C 94.212,357.394 92.344,358.156 90.297,358.156 C 87.859,358.156 85.734,357.133 83.922,355.086 C 82.11,353.039 81.203,350.273 81.203,346.789 C 81.203,343.414 82.207,340.672 84.215,338.562 C 86.223,336.452 88.633,335.398 91.445,335.398 C 93.554,335.398 95.289,335.957 96.648,337.074 C 98.007,338.191 98.687,339.351 98.687,340.554 C 98.687,341.148 98.496,341.628 98.113,341.995 C 97.73,342.362 97.195,342.546 96.508,342.546 C 95.586,342.546 94.891,342.249 94.422,341.655 C 94.156,341.327 93.981,340.702 93.895,339.78 C 93.809,338.858 93.493,338.155 92.946,337.671 C 92.399,337.202 91.641,336.968 90.673,336.968 C 89.11,336.968 87.853,337.546 86.9,338.702 C 85.634,340.233 85.002,342.257 85.002,344.772 C 85.002,347.335 85.631,349.596 86.889,351.557 C 88.147,353.518 89.846,354.498 91.987,354.498 C 93.518,354.498 94.893,353.975 96.112,352.928 C 96.971,352.209 97.807,350.905 98.62,349.014 L 99.297,349.344 z"
   id="path3507" />
	<path
   d="M 122.331,355.086 C 121.284,356.18 120.261,356.965 119.261,357.441 C 118.261,357.917 117.183,358.156 116.027,358.156 C 113.683,358.156 111.636,357.176 109.886,355.215 C 108.136,353.254 107.261,350.735 107.261,347.656 C 107.261,344.577 108.23,341.761 110.167,339.207 C 112.104,336.653 114.597,335.375 117.644,335.375 C 119.535,335.375 121.097,335.977 122.332,337.18 L 122.332,333.219 C 122.332,330.766 122.273,329.258 122.156,328.696 C 122.039,328.134 121.855,327.751 121.605,327.548 C 121.355,327.345 121.042,327.243 120.667,327.243 C 120.261,327.243 119.722,327.368 119.05,327.618 L 118.745,326.798 L 125.143,324.173 L 126.198,324.173 L 126.198,348.993 C 126.198,351.509 126.257,353.044 126.374,353.598 C 126.491,354.152 126.679,354.539 126.937,354.758 C 127.195,354.977 127.496,355.086 127.839,355.086 C 128.261,355.086 128.823,354.953 129.527,354.688 L 129.785,355.508 L 123.41,358.156 L 122.332,358.156 L 122.332,355.086 L 122.331,355.086 z M 122.331,353.445 L 122.331,342.382 C 122.237,341.319 121.956,340.351 121.487,339.476 C 121.018,338.601 120.397,337.941 119.624,337.496 C 118.851,337.051 118.097,336.828 117.362,336.828 C 115.987,336.828 114.76,337.445 113.682,338.68 C 112.26,340.305 111.549,342.68 111.549,345.805 C 111.549,348.961 112.237,351.379 113.612,353.059 C 114.987,354.739 116.518,355.579 118.206,355.579 C 119.628,355.578 121.003,354.867 122.331,353.445 z"
   id="path3509" />
	<path
   d="M 139.577,344.117 C 139.561,347.305 140.335,349.805 141.897,351.617 C 143.459,353.43 145.295,354.336 147.405,354.336 C 148.811,354.336 150.033,353.949 151.073,353.176 C 152.112,352.403 152.983,351.078 153.686,349.203 L 154.413,349.672 C 154.085,351.813 153.132,353.762 151.554,355.52 C 149.975,357.278 147.999,358.157 145.624,358.157 C 143.046,358.157 140.839,357.153 139.003,355.145 C 137.167,353.137 136.249,350.438 136.249,347.047 C 136.249,343.375 137.19,340.512 139.073,338.457 C 140.956,336.402 143.319,335.375 146.163,335.375 C 148.569,335.375 150.546,336.168 152.093,337.754 C 153.64,339.34 154.413,341.461 154.413,344.117 L 139.577,344.117 z M 139.577,342.758 L 149.515,342.758 C 149.436,341.383 149.272,340.414 149.023,339.852 C 148.632,338.977 148.05,338.289 147.277,337.789 C 146.504,337.289 145.695,337.039 144.851,337.039 C 143.554,337.039 142.393,337.543 141.371,338.551 C 140.346,339.559 139.749,340.961 139.577,342.758 z"
   id="path3511" />
	<path
   d="M 170.462,337.719 L 170.462,351.828 C 170.462,353.828 170.681,355.094 171.118,355.625 C 171.696,356.313 172.469,356.656 173.438,356.656 L 175.383,356.656 L 175.383,357.5 L 162.563,357.5 L 162.563,356.656 L 163.524,356.656 C 164.149,356.656 164.719,356.5 165.235,356.187 C 165.751,355.874 166.106,355.453 166.301,354.921 C 166.496,354.39 166.594,353.358 166.594,351.827 L 166.594,337.718 L 162.422,337.718 L 162.422,336.03 L 166.594,336.03 L 166.594,334.624 C 166.594,332.483 166.937,330.671 167.625,329.186 C 168.313,327.702 169.363,326.502 170.777,325.588 C 172.191,324.674 173.78,324.217 175.547,324.217 C 177.188,324.217 178.695,324.748 180.07,325.811 C 180.976,326.514 181.429,327.303 181.429,328.178 C 181.429,328.647 181.226,329.088 180.82,329.502 C 180.413,329.916 179.976,330.123 179.507,330.123 C 179.147,330.123 178.769,329.994 178.37,329.736 C 177.971,329.478 177.483,328.923 176.905,328.072 C 176.327,327.22 175.795,326.646 175.311,326.349 C 174.827,326.052 174.288,325.904 173.694,325.904 C 172.975,325.904 172.366,326.095 171.866,326.478 C 171.366,326.861 171.007,327.455 170.788,328.259 C 170.569,329.064 170.46,331.138 170.46,334.482 L 170.46,336.029 L 175.991,336.029 L 175.991,337.717 L 170.462,337.717 L 170.462,337.719 z"
   id="path3513" />
	<path
   d="M 188.598,349.672 C 187.285,349.031 186.278,348.137 185.575,346.988 C 184.872,345.839 184.52,344.57 184.52,343.179 C 184.52,341.054 185.32,339.226 186.922,337.695 C 188.524,336.164 190.574,335.398 193.074,335.398 C 195.121,335.398 196.894,335.898 198.394,336.898 L 202.94,336.898 C 203.612,336.898 204.003,336.918 204.112,336.957 C 204.221,336.996 204.3,337.062 204.346,337.156 C 204.44,337.297 204.487,337.547 204.487,337.906 C 204.487,338.312 204.448,338.594 204.37,338.75 C 204.323,338.828 204.241,338.891 204.124,338.938 C 204.007,338.985 203.612,339.008 202.94,339.008 L 200.151,339.008 C 201.026,340.133 201.464,341.571 201.464,343.321 C 201.464,345.321 200.698,347.032 199.167,348.454 C 197.636,349.876 195.582,350.587 193.003,350.587 C 191.94,350.587 190.855,350.431 189.745,350.118 C 189.057,350.712 188.593,351.231 188.35,351.677 C 188.107,352.122 187.987,352.501 187.987,352.814 C 187.987,353.08 188.116,353.337 188.374,353.587 C 188.632,353.837 189.136,354.017 189.886,354.126 C 190.323,354.189 191.417,354.243 193.167,354.29 C 196.386,354.368 198.472,354.478 199.424,354.618 C 200.877,354.821 202.037,355.36 202.904,356.235 C 203.771,357.11 204.205,358.188 204.205,359.469 C 204.205,361.235 203.377,362.891 201.721,364.438 C 199.283,366.719 196.104,367.86 192.182,367.86 C 189.166,367.86 186.619,367.18 184.541,365.821 C 183.369,365.04 182.783,364.227 182.783,363.383 C 182.783,363.008 182.868,362.633 183.041,362.258 C 183.307,361.68 183.853,360.875 184.682,359.844 C 184.791,359.703 185.588,358.86 187.073,357.313 C 186.26,356.829 185.686,356.395 185.35,356.012 C 185.014,355.629 184.846,355.196 184.846,354.711 C 184.846,354.164 185.069,353.523 185.514,352.789 C 185.959,352.055 186.989,351.016 188.598,349.672 z M 188.364,357.5 C 187.629,358.297 187.075,359.039 186.7,359.727 C 186.325,360.415 186.137,361.047 186.137,361.625 C 186.137,362.375 186.59,363.031 187.496,363.594 C 189.058,364.563 191.316,365.047 194.269,365.047 C 197.082,365.047 199.155,364.551 200.491,363.559 C 201.827,362.567 202.495,361.508 202.495,360.383 C 202.495,359.57 202.097,358.992 201.3,358.649 C 200.487,358.305 198.878,358.102 196.472,358.04 C 192.958,357.945 190.254,357.766 188.364,357.5 z M 192.676,336.523 C 191.519,336.523 190.551,336.984 189.77,337.906 C 188.988,338.828 188.598,340.242 188.598,342.148 C 188.598,344.617 189.129,346.531 190.192,347.89 C 191.004,348.921 192.035,349.437 193.286,349.437 C 194.473,349.437 195.45,348.992 196.216,348.101 C 196.981,347.21 197.364,345.812 197.364,343.906 C 197.364,341.422 196.825,339.476 195.747,338.07 C 194.95,337.039 193.926,336.523 192.676,336.523 z"
   id="path3515" />
	<path
   d="M 217.961,324.172 L 217.961,339.875 C 219.695,337.969 221.07,336.746 222.086,336.207 C 223.102,335.668 224.117,335.398 225.133,335.398 C 226.352,335.398 227.399,335.734 228.274,336.406 C 229.149,337.078 229.797,338.133 230.219,339.57 C 230.516,340.57 230.664,342.398 230.664,345.054 L 230.664,352.648 C 230.664,354.007 230.773,354.937 230.992,355.437 C 231.148,355.812 231.414,356.109 231.789,356.328 C 232.164,356.547 232.852,356.656 233.852,356.656 L 233.852,357.5 L 223.305,357.5 L 223.305,356.656 L 223.797,356.656 C 224.797,356.656 225.492,356.504 225.883,356.199 C 226.274,355.894 226.547,355.445 226.703,354.851 C 226.75,354.601 226.773,353.867 226.773,352.648 L 226.773,345.054 C 226.773,342.71 226.652,341.171 226.41,340.437 C 226.168,339.703 225.781,339.152 225.25,338.785 C 224.719,338.418 224.078,338.234 223.328,338.234 C 222.562,338.234 221.765,338.437 220.937,338.843 C 220.109,339.249 219.117,340.07 217.96,341.304 L 217.96,352.648 C 217.96,354.117 218.042,355.031 218.206,355.39 C 218.37,355.749 218.675,356.05 219.12,356.292 C 219.565,356.534 220.335,356.655 221.429,356.655 L 221.429,357.499 L 210.788,357.499 L 210.788,356.655 C 211.741,356.655 212.491,356.507 213.038,356.21 C 213.351,356.054 213.601,355.757 213.788,355.319 C 213.975,354.881 214.069,353.991 214.069,352.647 L 214.069,333.217 C 214.069,330.764 214.01,329.256 213.893,328.694 C 213.776,328.132 213.596,327.749 213.354,327.546 C 213.112,327.343 212.788,327.241 212.381,327.241 C 212.053,327.241 211.522,327.366 210.787,327.616 L 210.459,326.796 L 216.881,324.171 L 217.961,324.171 L 217.961,324.172 z"
   id="path3517" />
	<path
   d="M 247.862,335.398 L 247.862,352.648 C 247.862,353.992 247.96,354.886 248.155,355.332 C 248.35,355.778 248.639,356.109 249.022,356.328 C 249.405,356.547 250.104,356.656 251.12,356.656 L 251.12,357.5 L 240.69,357.5 L 240.69,356.656 C 241.737,356.656 242.44,356.554 242.799,356.351 C 243.158,356.148 243.444,355.812 243.654,355.343 C 243.864,354.874 243.97,353.976 243.97,352.648 L 243.97,344.375 C 243.97,342.047 243.9,340.539 243.759,339.852 C 243.65,339.352 243.478,339.004 243.243,338.809 C 243.008,338.614 242.688,338.516 242.282,338.516 C 241.844,338.516 241.313,338.633 240.688,338.868 L 240.36,338.024 L 246.829,335.399 L 247.862,335.399 L 247.862,335.398 z M 245.917,324.172 C 246.573,324.172 247.132,324.402 247.593,324.863 C 248.054,325.324 248.284,325.883 248.284,326.539 C 248.284,327.195 248.054,327.758 247.593,328.227 C 247.132,328.696 246.573,328.93 245.917,328.93 C 245.261,328.93 244.698,328.696 244.229,328.227 C 243.76,327.758 243.526,327.196 243.526,326.539 C 243.526,325.882 243.756,325.324 244.217,324.863 C 244.678,324.402 245.245,324.172 245.917,324.172 z"
   id="path3519" />
	<path
   d="M 266.045,335.398 L 266.045,357.007 C 266.045,360.679 265.264,363.405 263.701,365.187 C 262.138,366.969 260.107,367.859 257.607,367.859 C 256.186,367.859 255.131,367.601 254.443,367.086 C 253.755,366.57 253.412,366.039 253.412,365.492 C 253.412,364.945 253.603,364.476 253.986,364.086 C 254.37,363.695 254.818,363.5 255.334,363.5 C 255.741,363.5 256.154,363.602 256.576,363.805 C 256.843,363.914 257.353,364.309 258.111,364.989 C 258.869,365.669 259.506,366.009 260.021,366.009 C 260.396,366.009 260.763,365.864 261.123,365.575 C 261.483,365.286 261.748,364.802 261.92,364.122 C 262.092,363.442 262.178,361.97 262.178,359.704 L 262.178,344.423 C 262.178,342.064 262.108,340.548 261.967,339.876 C 261.858,339.36 261.686,339.005 261.451,338.81 C 261.216,338.615 260.896,338.517 260.49,338.517 C 260.052,338.517 259.521,338.634 258.896,338.869 L 258.568,338.025 L 265.037,335.4 L 266.045,335.4 L 266.045,335.398 z M 264.029,324.148 C 264.701,324.148 265.271,324.382 265.74,324.851 C 266.209,325.32 266.443,325.89 266.443,326.562 C 266.443,327.218 266.209,327.781 265.74,328.25 C 265.271,328.719 264.701,328.953 264.029,328.953 C 263.373,328.953 262.81,328.719 262.341,328.25 C 261.872,327.781 261.638,327.219 261.638,326.562 C 261.638,325.89 261.872,325.32 262.341,324.851 C 262.81,324.382 263.373,324.148 264.029,324.148 z"
   id="path3521" />
	<path
   d="M 283.08,324.172 L 283.08,345.547 L 288.541,340.555 C 289.697,339.492 290.369,338.821 290.557,338.539 C 290.682,338.351 290.745,338.164 290.745,337.976 C 290.745,337.663 290.616,337.394 290.358,337.167 C 290.1,336.94 289.674,336.812 289.081,336.78 L 289.081,336.03 L 298.409,336.03 L 298.409,336.78 C 297.128,336.811 296.061,337.007 295.21,337.366 C 294.357,337.725 293.425,338.366 292.409,339.288 L 286.901,344.374 L 292.409,351.335 C 293.94,353.257 294.972,354.476 295.503,354.991 C 296.253,355.725 296.909,356.202 297.472,356.421 C 297.862,356.577 298.541,356.655 299.511,356.655 L 299.511,357.499 L 289.081,357.499 L 289.081,356.655 C 289.675,356.639 290.077,356.55 290.288,356.385 C 290.499,356.22 290.604,355.99 290.604,355.694 C 290.604,355.335 290.291,354.756 289.666,353.96 L 283.08,345.546 L 283.08,352.671 C 283.08,354.062 283.177,354.976 283.373,355.413 C 283.568,355.851 283.845,356.163 284.205,356.351 C 284.564,356.539 285.345,356.64 286.549,356.656 L 286.549,357.5 L 275.627,357.5 L 275.627,356.656 C 276.72,356.656 277.54,356.523 278.088,356.258 C 278.416,356.086 278.665,355.82 278.838,355.461 C 279.072,354.945 279.19,354.055 279.19,352.789 L 279.19,333.242 C 279.19,330.758 279.134,329.238 279.026,328.683 C 278.917,328.128 278.736,327.745 278.487,327.535 C 278.237,327.324 277.909,327.219 277.503,327.219 C 277.175,327.219 276.683,327.352 276.026,327.617 L 275.628,326.797 L 282.003,324.172 L 283.08,324.172 z"
   id="path3523" />
	<path
   d="M 312.91,324.172 L 312.91,352.649 C 312.91,353.993 313.008,354.883 313.203,355.321 C 313.398,355.759 313.699,356.091 314.105,356.317 C 314.511,356.543 315.269,356.657 316.378,356.657 L 316.378,357.501 L 305.855,357.501 L 305.855,356.657 C 306.839,356.657 307.511,356.555 307.871,356.352 C 308.231,356.149 308.512,355.813 308.715,355.344 C 308.918,354.875 309.02,353.977 309.02,352.649 L 309.02,333.149 C 309.02,330.727 308.965,329.239 308.856,328.684 C 308.747,328.129 308.571,327.75 308.329,327.547 C 308.087,327.344 307.778,327.242 307.403,327.242 C 306.997,327.242 306.481,327.367 305.856,327.617 L 305.458,326.797 L 311.856,324.172 L 312.91,324.172 z"
   id="path3525" />
	<path
   d="M 330.039,339.969 C 331.602,338.406 332.523,337.508 332.805,337.274 C 333.508,336.68 334.266,336.219 335.078,335.891 C 335.89,335.563 336.695,335.399 337.492,335.399 C 338.836,335.399 339.992,335.79 340.961,336.571 C 341.93,337.352 342.578,338.485 342.906,339.969 C 344.515,338.094 345.875,336.864 346.984,336.278 C 348.093,335.692 349.234,335.399 350.406,335.399 C 351.547,335.399 352.558,335.692 353.441,336.278 C 354.324,336.864 355.023,337.821 355.539,339.149 C 355.883,340.055 356.055,341.477 356.055,343.415 L 356.055,352.649 C 356.055,353.993 356.157,354.915 356.36,355.415 C 356.516,355.759 356.805,356.052 357.227,356.294 C 357.649,356.536 358.336,356.657 359.29,356.657 L 359.29,357.501 L 348.696,357.501 L 348.696,356.657 L 349.141,356.657 C 350.063,356.657 350.782,356.477 351.297,356.118 C 351.656,355.868 351.914,355.47 352.07,354.923 C 352.133,354.657 352.164,353.9 352.164,352.65 L 352.164,343.416 C 352.164,341.666 351.953,340.432 351.531,339.713 C 350.922,338.713 349.945,338.213 348.601,338.213 C 347.773,338.213 346.941,338.42 346.105,338.834 C 345.269,339.248 344.257,340.018 343.07,341.143 L 343.023,341.401 L 343.07,342.409 L 343.07,352.651 C 343.07,354.12 343.152,355.034 343.316,355.393 C 343.48,355.752 343.789,356.053 344.242,356.295 C 344.695,356.537 345.469,356.658 346.562,356.658 L 346.562,357.502 L 335.71,357.502 L 335.71,356.658 C 336.898,356.658 337.714,356.517 338.159,356.236 C 338.604,355.955 338.913,355.533 339.085,354.97 C 339.163,354.704 339.202,353.931 339.202,352.65 L 339.202,343.416 C 339.202,341.666 338.944,340.408 338.429,339.643 C 337.741,338.643 336.781,338.143 335.546,338.143 C 334.702,338.143 333.866,338.37 333.038,338.823 C 331.741,339.511 330.741,340.284 330.038,341.143 L 330.038,352.651 C 330.038,354.057 330.136,354.971 330.331,355.393 C 330.526,355.815 330.815,356.131 331.198,356.342 C 331.581,356.553 332.358,356.658 333.53,356.658 L 333.53,357.502 L 322.913,357.502 L 322.913,356.658 C 323.897,356.658 324.585,356.553 324.976,356.342 C 325.367,356.131 325.664,355.795 325.867,355.334 C 326.07,354.873 326.172,353.979 326.172,352.65 L 326.172,344.447 C 326.172,342.088 326.102,340.564 325.961,339.877 C 325.852,339.361 325.68,339.006 325.445,338.811 C 325.21,338.616 324.89,338.518 324.484,338.518 C 324.046,338.518 323.523,338.635 322.914,338.87 L 322.562,338.026 L 329.031,335.401 L 330.039,335.401 L 330.039,339.969 L 330.039,339.969 z"
   id="path3527" />
</g>
<g
   id="g3529">
	<path
   d="M 32.689,387.945 C 35.205,384.914 37.603,383.398 39.884,383.398 C 41.056,383.398 42.064,383.691 42.907,384.277 C 43.75,384.863 44.422,385.828 44.923,387.172 C 45.266,388.11 45.439,389.547 45.439,391.485 L 45.439,400.649 C 45.439,402.008 45.548,402.93 45.767,403.415 C 45.939,403.806 46.216,404.11 46.599,404.329 C 46.982,404.548 47.689,404.657 48.72,404.657 L 48.72,405.501 L 38.103,405.501 L 38.103,404.657 L 38.548,404.657 C 39.548,404.657 40.247,404.505 40.646,404.2 C 41.045,403.895 41.322,403.446 41.478,402.852 C 41.54,402.618 41.572,401.883 41.572,400.649 L 41.572,391.86 C 41.572,389.907 41.318,388.489 40.81,387.606 C 40.302,386.723 39.447,386.282 38.244,386.282 C 36.384,386.282 34.533,387.298 32.689,389.329 L 32.689,400.649 C 32.689,402.102 32.774,403.001 32.947,403.344 C 33.166,403.797 33.466,404.129 33.849,404.34 C 34.232,404.551 35.009,404.656 36.181,404.656 L 36.181,405.5 L 25.564,405.5 L 25.564,404.656 L 26.033,404.656 C 27.126,404.656 27.865,404.379 28.248,403.824 C 28.631,403.269 28.822,402.211 28.822,400.648 L 28.822,392.679 C 28.822,390.101 28.763,388.531 28.646,387.968 C 28.529,387.405 28.349,387.023 28.107,386.82 C 27.864,386.617 27.541,386.515 27.134,386.515 C 26.696,386.515 26.173,386.632 25.564,386.867 L 25.212,386.023 L 31.681,383.398 L 32.689,383.398 L 32.689,387.945 L 32.689,387.945 z"
   id="path3531" />
	<path
   d="M 65.731,383.398 C 68.981,383.398 71.59,384.632 73.559,387.101 C 75.231,389.21 76.067,391.632 76.067,394.367 C 76.067,396.289 75.606,398.234 74.684,400.203 C 73.762,402.172 72.493,403.656 70.875,404.656 C 69.257,405.656 67.457,406.156 65.473,406.156 C 62.239,406.156 59.668,404.867 57.762,402.289 C 56.153,400.117 55.348,397.68 55.348,394.976 C 55.348,393.007 55.836,391.05 56.813,389.105 C 57.789,387.16 59.075,385.722 60.668,384.792 C 62.261,383.862 63.95,383.398 65.731,383.398 z M 65.004,384.922 C 64.175,384.922 63.343,385.168 62.508,385.66 C 61.672,386.152 60.996,387.015 60.481,388.25 C 59.966,389.485 59.708,391.07 59.708,393.008 C 59.708,396.133 60.329,398.828 61.571,401.094 C 62.813,403.36 64.45,404.492 66.481,404.492 C 67.996,404.492 69.247,403.867 70.231,402.617 C 71.215,401.367 71.708,399.219 71.708,396.172 C 71.708,392.359 70.888,389.359 69.247,387.172 C 68.137,385.672 66.723,384.922 65.004,384.922 z"
   id="path3533" />
	<path
   d="M 82.484,386.164 L 89.093,383.492 L 89.984,383.492 L 89.984,388.508 C 91.093,386.617 92.207,385.293 93.324,384.535 C 94.441,383.777 95.617,383.398 96.851,383.398 C 99.007,383.398 100.804,384.242 102.242,385.929 C 104.008,387.992 104.89,390.679 104.89,393.992 C 104.89,397.695 103.827,400.758 101.702,403.18 C 99.952,405.164 97.749,406.157 95.093,406.157 C 93.937,406.157 92.937,405.993 92.093,405.665 C 91.468,405.431 90.765,404.962 89.984,404.259 L 89.984,410.798 C 89.984,412.267 90.074,413.2 90.254,413.599 C 90.434,413.998 90.746,414.314 91.192,414.548 C 91.638,414.782 92.446,414.9 93.618,414.9 L 93.618,415.767 L 82.368,415.767 L 82.368,414.9 L 82.954,414.9 C 83.813,414.916 84.548,414.752 85.157,414.408 C 85.454,414.236 85.684,413.959 85.848,413.576 C 86.012,413.193 86.094,412.221 86.094,410.658 L 86.094,390.361 C 86.094,388.97 86.031,388.088 85.906,387.713 C 85.781,387.338 85.582,387.057 85.308,386.869 C 85.034,386.681 84.663,386.588 84.195,386.588 C 83.82,386.588 83.343,386.697 82.765,386.916 L 82.484,386.164 z M 89.984,389.891 L 89.984,397.907 C 89.984,399.641 90.054,400.782 90.195,401.329 C 90.414,402.235 90.949,403.032 91.8,403.72 C 92.651,404.408 93.726,404.751 95.023,404.751 C 96.586,404.751 97.851,404.142 98.82,402.923 C 100.086,401.329 100.718,399.087 100.718,396.196 C 100.718,392.915 99.999,390.391 98.562,388.626 C 97.562,387.407 96.374,386.798 94.999,386.798 C 94.249,386.798 93.507,386.986 92.772,387.361 C 92.211,387.641 91.281,388.484 89.984,389.891 z"
   id="path3535" />
	<path
   d="M 131.839,383.398 L 131.839,411.007 C 131.839,412.382 131.933,413.265 132.12,413.655 C 132.307,414.045 132.6,414.35 132.999,414.569 C 133.398,414.788 134.175,414.897 135.331,414.897 L 135.331,415.764 L 124.503,415.764 L 124.503,414.897 L 124.948,414.897 C 125.823,414.897 126.487,414.772 126.94,414.522 C 127.253,414.35 127.503,414.042 127.69,413.596 C 127.877,413.15 127.971,412.287 127.971,411.006 L 127.971,401.772 C 126.549,403.46 125.307,404.612 124.244,405.229 C 123.181,405.846 122.08,406.155 120.939,406.155 C 118.861,406.155 117.005,405.21 115.373,403.319 C 113.741,401.428 112.924,398.897 112.924,395.725 C 112.924,392.084 114.002,389.12 116.158,386.83 C 118.314,384.54 120.916,383.396 123.963,383.396 C 124.854,383.396 125.674,383.521 126.424,383.771 C 127.174,384.021 127.846,384.396 128.44,384.896 C 129.346,384.458 130.213,383.958 131.042,383.396 L 131.839,383.396 L 131.839,383.398 z M 127.972,400.297 L 127.972,390.219 C 127.972,389.047 127.82,388.125 127.515,387.453 C 127.21,386.781 126.667,386.211 125.886,385.742 C 125.105,385.273 124.222,385.039 123.238,385.039 C 121.488,385.039 119.988,385.781 118.738,387.266 C 117.488,388.751 116.863,391 116.863,394.016 C 116.863,396.907 117.5,399.102 118.773,400.602 C 120.046,402.102 121.582,402.852 123.378,402.852 C 124.3,402.852 125.12,402.653 125.839,402.254 C 126.558,401.855 127.269,401.203 127.972,400.297 z"
   id="path3537" />
	<path
   d="M 147.913,383.398 L 147.913,388.226 C 149.709,385.007 151.554,383.398 153.444,383.398 C 154.303,383.398 155.014,383.66 155.577,384.183 C 156.14,384.706 156.421,385.312 156.421,385.999 C 156.421,386.608 156.218,387.124 155.812,387.546 C 155.405,387.968 154.921,388.179 154.359,388.179 C 153.812,388.179 153.199,387.909 152.519,387.37 C 151.839,386.831 151.335,386.561 151.007,386.561 C 150.726,386.561 150.421,386.717 150.093,387.03 C 149.39,387.671 148.663,388.725 147.913,390.194 L 147.913,400.483 C 147.913,401.671 148.061,402.569 148.358,403.178 C 148.561,403.6 148.921,403.951 149.436,404.233 C 149.951,404.515 150.693,404.655 151.663,404.655 L 151.663,405.499 L 140.67,405.499 L 140.67,404.655 C 141.763,404.655 142.576,404.483 143.108,404.139 C 143.498,403.889 143.772,403.491 143.928,402.944 C 144.006,402.678 144.045,401.921 144.045,400.671 L 144.045,392.351 C 144.045,389.851 143.994,388.363 143.893,387.886 C 143.791,387.409 143.603,387.062 143.33,386.843 C 143.057,386.624 142.717,386.515 142.31,386.515 C 141.826,386.515 141.279,386.632 140.669,386.867 L 140.435,386.023 L 146.927,383.398 L 147.913,383.398 L 147.913,383.398 z"
   id="path3539" />
	<path
   d="M 176.291,383.398 L 176.291,390.711 L 175.518,390.711 C 174.924,388.414 174.162,386.852 173.233,386.023 C 172.303,385.195 171.12,384.781 169.682,384.781 C 168.588,384.781 167.705,385.07 167.034,385.648 C 166.362,386.226 166.026,386.867 166.026,387.57 C 166.026,388.445 166.276,389.195 166.776,389.82 C 167.26,390.461 168.244,391.14 169.729,391.859 L 173.151,393.523 C 176.323,395.07 177.909,397.109 177.909,399.64 C 177.909,401.593 177.171,403.167 175.694,404.363 C 174.217,405.559 172.565,406.156 170.737,406.156 C 169.424,406.156 167.924,405.922 166.237,405.453 C 165.721,405.297 165.299,405.219 164.971,405.219 C 164.611,405.219 164.33,405.422 164.127,405.828 L 163.354,405.828 L 163.354,398.164 L 164.127,398.164 C 164.564,400.352 165.4,402 166.635,403.109 C 167.869,404.218 169.252,404.773 170.783,404.773 C 171.861,404.773 172.74,404.457 173.42,403.824 C 174.1,403.191 174.44,402.429 174.44,401.539 C 174.44,400.461 174.061,399.555 173.303,398.82 C 172.545,398.086 171.033,397.156 168.768,396.031 C 166.502,394.906 165.018,393.89 164.315,392.984 C 163.612,392.093 163.26,390.968 163.26,389.609 C 163.26,387.843 163.865,386.367 165.076,385.179 C 166.286,383.991 167.853,383.398 169.775,383.398 C 170.619,383.398 171.642,383.578 172.845,383.937 C 173.642,384.171 174.173,384.289 174.439,384.289 C 174.689,384.289 174.884,384.234 175.025,384.125 C 175.166,384.016 175.33,383.773 175.517,383.398 L 176.291,383.398 z"
   id="path3541" />
	<path
   d="M 192.129,376.977 L 192.129,384.032 L 197.145,384.032 L 197.145,385.673 L 192.129,385.673 L 192.129,399.595 C 192.129,400.986 192.328,401.923 192.727,402.408 C 193.126,402.893 193.637,403.135 194.262,403.135 C 194.778,403.135 195.278,402.975 195.762,402.655 C 196.246,402.335 196.621,401.862 196.887,401.237 L 197.801,401.237 C 197.254,402.768 196.48,403.921 195.481,404.694 C 194.481,405.467 193.45,405.854 192.387,405.854 C 191.668,405.854 190.965,405.655 190.278,405.256 C 189.59,404.858 189.083,404.287 188.755,403.545 C 188.427,402.803 188.263,401.658 188.263,400.111 L 188.263,385.673 L 184.865,385.673 L 184.865,384.9 C 185.724,384.556 186.603,383.974 187.502,383.154 C 188.4,382.334 189.201,381.361 189.904,380.236 C 190.263,379.642 190.763,378.556 191.404,376.978 L 192.129,376.978 L 192.129,376.977 z"
   id="path3543" />
	<path
   d="M 222.852,384.031 L 222.852,397.039 C 222.852,399.523 222.911,401.043 223.028,401.598 C 223.145,402.153 223.333,402.539 223.591,402.758 C 223.849,402.977 224.15,403.086 224.493,403.086 C 224.977,403.086 225.524,402.953 226.134,402.688 L 226.462,403.508 L 220.04,406.156 L 218.985,406.156 L 218.985,401.609 C 217.141,403.609 215.735,404.867 214.766,405.382 C 213.797,405.897 212.774,406.155 211.696,406.155 C 210.493,406.155 209.45,405.807 208.567,405.112 C 207.684,404.417 207.071,403.522 206.727,402.428 C 206.383,401.334 206.211,399.787 206.211,397.787 L 206.211,388.201 C 206.211,387.185 206.102,386.482 205.883,386.092 C 205.664,385.702 205.34,385.401 204.91,385.19 C 204.48,384.979 203.703,384.881 202.578,384.897 L 202.578,384.03 L 210.101,384.03 L 210.101,398.397 C 210.101,400.397 210.449,401.71 211.144,402.335 C 211.839,402.96 212.679,403.273 213.664,403.273 C 214.336,403.273 215.098,403.062 215.949,402.64 C 216.8,402.218 217.812,401.413 218.984,400.226 L 218.984,388.062 C 218.984,386.843 218.761,386.019 218.316,385.589 C 217.871,385.159 216.945,384.929 215.539,384.898 L 215.539,384.031 L 222.852,384.031 z"
   id="path3545" />
	<path
   d="M 231.729,384.031 L 241.831,384.031 L 241.831,384.898 L 241.175,384.898 C 240.566,384.898 240.101,385.046 239.78,385.343 C 239.459,385.64 239.3,386.038 239.3,386.538 C 239.3,387.085 239.464,387.733 239.792,388.483 L 244.784,400.342 L 249.8,388.037 C 250.159,387.162 250.339,386.498 250.339,386.045 C 250.339,385.826 250.276,385.647 250.151,385.506 C 249.979,385.272 249.76,385.111 249.495,385.026 C 249.23,384.941 248.69,384.897 247.878,384.897 L 247.878,384.03 L 254.886,384.03 L 254.886,384.897 C 254.073,384.96 253.511,385.124 253.198,385.389 C 252.651,385.858 252.159,386.639 251.721,387.733 L 244.104,406.155 L 243.143,406.155 L 235.479,388.038 C 235.135,387.194 234.807,386.589 234.495,386.222 C 234.183,385.855 233.784,385.546 233.3,385.296 C 233.034,385.155 232.511,385.023 231.73,384.898 L 231.73,384.031 L 231.729,384.031 z"
   id="path3547" />
	<path
   d="M 260.436,384.031 L 269.436,384.031 L 269.436,384.898 C 268.608,384.961 268.065,385.109 267.807,385.343 C 267.549,385.577 267.42,385.913 267.42,386.351 C 267.42,386.835 267.553,387.421 267.818,388.109 L 272.412,400.461 L 277.029,390.406 L 275.81,387.242 C 275.435,386.304 274.943,385.656 274.333,385.297 C 273.989,385.078 273.349,384.945 272.411,384.899 L 272.411,384.032 L 282.63,384.032 L 282.63,384.899 C 281.505,384.946 280.708,385.149 280.239,385.508 C 279.926,385.758 279.77,386.156 279.77,386.703 C 279.77,387.016 279.833,387.336 279.958,387.664 L 284.833,399.992 L 289.356,388.109 C 289.669,387.265 289.825,386.593 289.825,386.093 C 289.825,385.796 289.673,385.53 289.368,385.296 C 289.063,385.062 288.466,384.929 287.575,384.898 L 287.575,384.031 L 294.348,384.031 L 294.348,384.898 C 292.989,385.101 291.989,386.023 291.348,387.664 L 284.176,406.156 L 283.215,406.156 L 277.848,392.445 L 271.59,406.156 L 270.723,406.156 L 263.832,388.109 C 263.379,386.968 262.934,386.199 262.496,385.8 C 262.058,385.401 261.371,385.101 260.433,384.898 L 260.433,384.031 L 260.436,384.031 z"
   id="path3549" />
	<path
   d="M 300.229,384.031 L 310.331,384.031 L 310.331,384.898 C 309.689,384.898 309.241,385.007 308.983,385.226 C 308.725,385.445 308.596,385.734 308.596,386.093 C 308.596,386.468 308.868,387.046 309.416,387.827 C 309.588,388.077 309.846,388.468 310.189,388.999 L 311.712,391.437 L 313.47,388.999 C 314.595,387.452 315.158,386.476 315.158,386.069 C 315.158,385.741 315.025,385.464 314.76,385.237 C 314.493,385.01 314.065,384.897 313.471,384.897 L 313.471,384.03 L 320.737,384.03 L 320.737,384.897 C 319.971,384.944 319.307,385.155 318.745,385.53 C 317.979,386.061 316.932,387.218 315.604,388.999 L 312.674,392.913 L 318.018,400.601 C 319.331,402.492 320.268,403.628 320.831,404.011 C 321.394,404.394 322.12,404.609 323.011,404.656 L 323.011,405.5 L 312.886,405.5 L 312.886,404.656 C 313.589,404.656 314.136,404.5 314.527,404.187 C 314.823,403.968 314.972,403.679 314.972,403.32 C 314.972,402.961 314.471,402.054 313.472,400.601 L 310.331,396.007 L 306.886,400.601 C 305.823,402.023 305.292,402.867 305.292,403.132 C 305.292,403.507 305.468,403.847 305.819,404.152 C 306.17,404.457 306.698,404.625 307.401,404.656 L 307.401,405.5 L 300.393,405.5 L 300.393,404.656 C 300.956,404.578 301.448,404.383 301.87,404.07 C 302.464,403.617 303.464,402.461 304.87,400.601 L 309.37,394.624 L 305.292,388.718 C 304.135,387.03 303.241,385.972 302.608,385.542 C 301.975,385.112 301.181,384.897 300.229,384.897 L 300.229,384.031 L 300.229,384.031 z"
   id="path3551" />
	<path
   d="M 328.676,384.031 L 338.684,384.031 L 338.684,384.898 L 338.192,384.898 C 337.489,384.898 336.962,385.05 336.61,385.355 C 336.258,385.66 336.083,386.039 336.083,386.492 C 336.083,387.101 336.341,387.945 336.856,389.023 L 342.083,399.851 L 346.888,387.992 C 347.154,387.351 347.286,386.719 347.286,386.094 C 347.286,385.813 347.231,385.602 347.122,385.461 C 346.997,385.289 346.802,385.152 346.536,385.051 C 346.27,384.95 345.802,384.899 345.13,384.899 L 345.13,384.032 L 352.114,384.032 L 352.114,384.899 C 351.536,384.962 351.091,385.087 350.778,385.274 C 350.465,385.461 350.122,385.813 349.747,386.329 C 349.606,386.548 349.341,387.149 348.95,388.134 L 340.208,409.556 C 339.364,411.634 338.259,413.204 336.892,414.267 C 335.525,415.33 334.208,415.861 332.943,415.861 C 332.021,415.861 331.263,415.595 330.67,415.064 C 330.077,414.533 329.779,413.923 329.779,413.236 C 329.779,412.58 329.994,412.052 330.424,411.654 C 330.854,411.256 331.444,411.056 332.194,411.056 C 332.71,411.056 333.413,411.228 334.303,411.572 C 334.928,411.806 335.319,411.924 335.475,411.924 C 335.944,411.924 336.455,411.682 337.01,411.197 C 337.565,410.712 338.123,409.775 338.686,408.384 L 340.209,404.657 L 332.498,388.462 C 332.264,387.978 331.889,387.376 331.373,386.657 C 330.982,386.11 330.662,385.743 330.412,385.555 C 330.053,385.305 329.474,385.086 328.678,384.899 L 328.678,384.031 L 328.676,384.031 z"
   id="path3553" />
	<path
   d="M 377.352,398.914 L 377.094,405.5 L 358.156,405.5 L 358.156,404.656 L 372.406,385.672 L 365.375,385.672 C 363.859,385.672 362.867,385.77 362.398,385.965 C 361.929,386.16 361.546,386.531 361.25,387.078 C 360.828,387.859 360.586,388.828 360.523,389.984 L 359.585,389.984 L 359.726,384.031 L 377.726,384.031 L 377.726,384.898 L 363.335,403.929 L 371.163,403.929 C 372.804,403.929 373.917,403.792 374.503,403.519 C 375.089,403.246 375.562,402.765 375.921,402.078 C 376.171,401.578 376.382,400.523 376.554,398.914 L 377.352,398.914 L 377.352,398.914 z"
   id="path3555" />
</g>
<g
   id="g3557">
	<path
   d="M 140.957,438.622 C 140.957,435.553 141.42,432.911 142.346,430.695 C 143.272,428.479 144.502,426.829 146.036,425.745 C 147.226,424.885 148.456,424.455 149.726,424.455 C 151.789,424.455 153.642,425.507 155.282,427.609 C 157.332,430.215 158.357,433.747 158.357,438.205 C 158.357,441.326 157.907,443.978 157.008,446.161 C 156.109,448.344 154.961,449.928 153.566,450.913 C 152.171,451.898 150.824,452.392 149.528,452.392 C 146.962,452.392 144.825,450.877 143.119,447.848 C 141.678,445.295 140.957,442.22 140.957,438.622 z M 144.846,439.117 C 144.846,442.821 145.302,445.844 146.215,448.184 C 146.969,450.156 148.093,451.141 149.588,451.141 C 150.302,451.141 151.043,450.82 151.81,450.178 C 152.577,449.536 153.159,448.462 153.556,446.954 C 154.165,444.679 154.469,441.471 154.469,437.331 C 154.469,434.263 154.151,431.703 153.516,429.652 C 153.04,428.131 152.425,427.053 151.671,426.418 C 151.129,425.981 150.474,425.764 149.707,425.764 C 148.808,425.764 148.007,426.167 147.307,426.974 C 146.354,428.073 145.706,429.798 145.362,432.153 C 145.018,434.508 144.846,436.829 144.846,439.117 z"
   id="path3559"
   style="fill:#f2eedf" />
	<path
   d="M 168.631,427.649 L 175.179,424.455 L 175.834,424.455 L 175.834,447.173 C 175.834,448.681 175.897,449.62 176.022,449.99 C 176.147,450.361 176.409,450.645 176.806,450.844 C 177.202,451.042 178.01,451.155 179.226,451.181 L 179.226,451.915 L 169.107,451.915 L 169.107,451.181 C 170.377,451.155 171.197,451.046 171.567,450.854 C 171.938,450.663 172.195,450.405 172.341,450.081 C 172.487,449.757 172.559,448.788 172.559,447.174 L 172.559,432.651 C 172.559,430.693 172.493,429.437 172.361,428.881 C 172.268,428.457 172.1,428.147 171.855,427.948 C 171.61,427.75 171.316,427.65 170.972,427.65 C 170.483,427.65 169.802,427.855 168.929,428.265 L 168.631,427.649 z"
   id="path3561"
   style="fill:#f2eedf" />
	<path
   d="M 206.881,446.736 L 204.996,451.915 L 189.123,451.915 L 189.123,451.181 C 193.792,446.922 197.08,443.444 198.984,440.744 C 200.888,438.046 201.841,435.579 201.841,433.344 C 201.841,431.638 201.318,430.236 200.273,429.138 C 199.228,428.04 197.978,427.492 196.523,427.492 C 195.201,427.492 194.014,427.879 192.962,428.652 C 191.91,429.425 191.133,430.56 190.63,432.055 L 189.896,432.055 C 190.226,429.608 191.077,427.729 192.445,426.419 C 193.814,425.109 195.524,424.455 197.574,424.455 C 199.757,424.455 201.579,425.156 203.04,426.559 C 204.502,427.96 205.233,429.614 205.233,431.519 C 205.233,432.881 204.915,434.244 204.28,435.606 C 203.301,437.75 201.714,440.018 199.518,442.412 C 196.225,446.01 194.168,448.18 193.348,448.92 L 200.372,448.92 C 201.801,448.92 202.803,448.867 203.378,448.762 C 203.953,448.656 204.472,448.441 204.936,448.116 C 205.399,447.792 205.802,447.333 206.146,446.737 L 206.881,446.737 L 206.881,446.736 z"
   id="path3563"
   style="fill:#f2eedf" />
	<path
   d="M 214.694,430.13 C 215.461,428.317 216.429,426.919 217.601,425.934 C 218.771,424.949 220.23,424.455 221.976,424.455 C 224.13,424.455 225.785,425.156 226.935,426.559 C 227.808,427.604 228.246,428.721 228.246,429.912 C 228.246,431.87 227.016,433.893 224.555,435.983 C 226.209,436.631 227.459,437.557 228.305,438.761 C 229.152,439.964 229.575,441.38 229.575,443.007 C 229.575,445.335 228.835,447.352 227.353,449.058 C 225.422,451.281 222.624,452.392 218.96,452.392 C 217.147,452.392 215.914,452.166 215.26,451.717 C 214.606,451.267 214.278,450.784 214.278,450.269 C 214.278,449.885 214.434,449.548 214.745,449.257 C 215.056,448.966 215.429,448.82 215.866,448.82 C 216.196,448.82 216.533,448.873 216.878,448.978 C 217.103,449.044 217.612,449.286 218.405,449.703 C 219.199,450.119 219.747,450.367 220.051,450.447 C 220.54,450.593 221.063,450.665 221.619,450.665 C 222.968,450.665 224.141,450.143 225.14,449.098 C 226.138,448.053 226.638,446.817 226.638,445.388 C 226.638,444.343 226.406,443.325 225.943,442.332 C 225.599,441.591 225.222,441.029 224.812,440.645 C 224.244,440.116 223.463,439.636 222.471,439.207 C 221.48,438.777 220.467,438.562 219.435,438.562 L 218.8,438.562 L 218.8,437.966 C 219.845,437.834 220.894,437.457 221.945,436.835 C 222.998,436.213 223.761,435.466 224.238,434.593 C 224.714,433.72 224.952,432.761 224.952,431.716 C 224.952,430.354 224.525,429.252 223.672,428.412 C 222.819,427.572 221.758,427.152 220.488,427.152 C 218.437,427.152 216.724,428.25 215.349,430.446 L 214.694,430.13 z"
   id="path3565"
   style="fill:#f2eedf" />
	<path
   d="M 255.92,441.994 L 255.92,444.812 L 252.309,444.812 L 252.309,451.915 L 249.036,451.915 L 249.036,444.812 L 237.647,444.812 L 237.647,442.272 L 250.127,424.455 L 252.309,424.455 L 252.309,441.994 L 255.92,441.994 L 255.92,441.994 z M 249.035,441.994 L 249.035,428.641 L 239.591,441.994 L 249.035,441.994 z"
   id="path3567"
   style="fill:#f2eedf" />
	<path
   d="M 279.031,425.011 L 277.482,428.384 L 269.388,428.384 L 267.622,431.995 C 271.126,432.511 273.905,433.813 275.954,435.903 C 277.714,437.702 278.593,439.818 278.593,442.253 C 278.593,443.668 278.306,444.978 277.73,446.181 C 277.156,447.385 276.431,448.41 275.558,449.257 C 274.685,450.103 273.712,450.784 272.642,451.3 C 271.121,452.028 269.56,452.392 267.958,452.392 C 266.345,452.392 265.171,452.118 264.437,451.569 C 263.703,451.019 263.335,450.415 263.335,449.754 C 263.335,449.383 263.487,449.056 263.792,448.772 C 264.097,448.488 264.48,448.345 264.942,448.345 C 265.286,448.345 265.587,448.398 265.844,448.504 C 266.102,448.609 266.543,448.881 267.164,449.317 C 268.156,450.005 269.162,450.348 270.18,450.348 C 271.727,450.348 273.086,449.763 274.258,448.592 C 275.428,447.421 276.014,445.996 276.014,444.317 C 276.014,442.69 275.491,441.171 274.446,439.763 C 273.401,438.354 271.96,437.266 270.122,436.499 C 268.679,435.903 266.716,435.56 264.229,435.467 L 269.387,425.011 L 279.031,425.011 L 279.031,425.011 z"
   id="path3569"
   style="fill:#f2eedf" />
	<path
   d="M 303.986,424.455 L 303.986,425.189 C 302.24,425.361 300.816,425.708 299.711,426.23 C 298.607,426.752 297.516,427.55 296.438,428.622 C 295.36,429.694 294.467,430.887 293.76,432.203 C 293.051,433.519 292.459,435.083 291.983,436.895 C 293.889,435.585 295.799,434.931 297.717,434.931 C 299.557,434.931 301.151,435.671 302.498,437.153 C 303.848,438.634 304.523,440.54 304.523,442.867 C 304.523,445.116 303.841,447.167 302.478,449.018 C 300.837,451.266 298.669,452.391 295.97,452.391 C 294.132,452.391 292.572,451.783 291.288,450.566 C 288.774,448.198 287.518,445.129 287.518,441.359 C 287.518,438.952 288,436.664 288.965,434.495 C 289.932,432.325 291.311,430.4 293.102,428.721 C 294.895,427.041 296.612,425.91 298.25,425.328 C 299.891,424.746 301.418,424.455 302.834,424.455 L 303.986,424.455 L 303.986,424.455 z M 291.646,438.344 C 291.408,440.13 291.289,441.572 291.289,442.669 C 291.289,443.94 291.523,445.318 291.992,446.806 C 292.463,448.294 293.16,449.475 294.086,450.348 C 294.762,450.97 295.58,451.281 296.547,451.281 C 297.697,451.281 298.727,450.739 299.631,449.654 C 300.537,448.569 300.99,447.022 300.99,445.011 C 300.99,442.749 300.541,440.791 299.642,439.138 C 298.742,437.485 297.464,436.658 295.812,436.658 C 295.31,436.658 294.771,436.763 294.195,436.975 C 293.619,437.187 292.77,437.643 291.646,438.344 z"
   id="path3571"
   style="fill:#f2eedf" />
	<path
   d="M 314.242,425.011 L 328.666,425.011 L 328.666,425.765 L 319.697,452.471 L 317.474,452.471 L 325.511,428.245 L 318.111,428.245 C 316.615,428.245 315.55,428.423 314.916,428.78 C 313.805,429.388 312.912,430.328 312.238,431.597 L 311.662,431.379 L 314.242,425.011 z"
   id="path3573"
   style="fill:#f2eedf" />
	<path
   d="M 342.332,438.363 C 340.201,436.617 338.83,435.216 338.215,434.157 C 337.6,433.099 337.291,432.001 337.291,430.863 C 337.291,429.118 337.967,427.613 339.316,426.349 C 340.664,425.086 342.457,424.454 344.693,424.454 C 346.861,424.454 348.607,425.043 349.929,426.22 C 351.253,427.398 351.913,428.741 351.913,430.248 C 351.913,431.253 351.556,432.278 350.843,433.323 C 350.128,434.368 348.64,435.598 346.378,437.013 C 348.706,438.812 350.247,440.227 351.001,441.259 C 352.007,442.608 352.509,444.03 352.509,445.525 C 352.509,447.417 351.788,449.034 350.347,450.377 C 348.906,451.719 347.013,452.391 344.671,452.391 C 342.118,452.391 340.128,451.59 338.7,449.99 C 337.561,448.707 336.993,447.305 336.993,445.784 C 336.993,444.594 337.393,443.413 338.194,442.242 C 338.994,441.072 340.373,439.779 342.332,438.363 z M 343.264,439.117 C 342.166,440.044 341.354,441.052 340.825,442.143 C 340.296,443.234 340.03,444.414 340.03,445.684 C 340.03,447.391 340.497,448.756 341.43,449.782 C 342.362,450.807 343.549,451.32 344.991,451.32 C 346.419,451.32 347.563,450.916 348.423,450.109 C 349.284,449.302 349.714,448.324 349.714,447.172 C 349.714,446.22 349.462,445.366 348.96,444.612 C 348.02,443.212 346.121,441.38 343.264,439.117 z M 345.447,436.24 C 347.033,434.812 348.039,433.684 348.463,432.857 C 348.885,432.031 349.098,431.095 349.098,430.049 C 349.098,428.66 348.707,427.572 347.926,426.785 C 347.147,425.998 346.082,425.604 344.733,425.604 C 343.384,425.604 342.286,425.995 341.44,426.775 C 340.592,427.555 340.169,428.468 340.169,429.513 C 340.169,430.201 340.345,430.889 340.696,431.576 C 341.046,432.264 341.546,432.919 342.194,433.54 L 345.447,436.24 z"
   id="path3575"
   style="fill:#f2eedf" />
	<path
   d="M 361.059,452.471 L 361.059,451.737 C 362.778,451.711 364.379,451.31 365.86,450.537 C 367.342,449.764 368.774,448.411 370.157,446.479 C 371.538,444.548 372.501,442.425 373.044,440.11 C 370.966,441.446 369.089,442.114 367.409,442.114 C 365.516,442.114 363.895,441.384 362.548,439.922 C 361.198,438.461 360.525,436.52 360.525,434.099 C 360.525,431.745 361.199,429.648 362.548,427.81 C 364.175,425.575 366.298,424.456 368.917,424.456 C 371.126,424.456 373.017,425.369 374.591,427.194 C 376.523,429.456 377.487,432.247 377.487,435.567 C 377.487,438.556 376.753,441.343 375.286,443.929 C 373.817,446.515 371.772,448.661 369.155,450.367 C 367.024,451.769 364.704,452.471 362.19,452.471 L 361.059,452.471 L 361.059,452.471 z M 373.359,438.642 C 373.597,436.922 373.716,435.546 373.716,434.515 C 373.716,433.232 373.497,431.846 373.062,430.358 C 372.624,428.871 372.007,427.729 371.207,426.936 C 370.406,426.142 369.498,425.746 368.478,425.746 C 367.3,425.746 366.269,426.274 365.382,427.333 C 364.497,428.392 364.054,429.965 364.054,432.056 C 364.054,434.846 364.642,437.029 365.82,438.603 C 366.679,439.741 367.738,440.31 368.994,440.31 C 369.603,440.31 370.324,440.164 371.158,439.873 C 371.99,439.581 372.725,439.171 373.359,438.642 z"
   id="path3577"
   style="fill:#f2eedf" />
</g>
<path
   d="M 45.119843,24.556557 L 45.471405,32.009682 L 44.58078,32.009682 C 44.408878,30.697207 44.174503,29.759708 43.877655,29.197182 C 43.393254,28.29096 42.744817,27.626898 41.932343,27.204994 C 41.135444,26.767524 40.080757,26.548774 38.76828,26.548744 L 34.291718,26.548744 L 34.291718,50.829994 C 34.291701,52.783123 34.502638,54.001872 34.92453,54.486244 C 35.518262,55.142495 36.432323,55.47062 37.666718,55.470619 L 38.76828,55.470619 L 38.76828,56.337807 L 25.291718,56.337807 L 25.291718,55.470619 L 26.416718,55.470619 C 27.760457,55.47062 28.713581,55.06437 29.276093,54.251869 C 29.61983,53.751872 29.791705,52.611248 29.791718,50.829994 L 29.791718,26.548744 L 25.971405,26.548744 C 24.487023,26.548774 23.432336,26.658149 22.807343,26.876869 C 21.994838,27.173773 21.299526,27.744085 20.721405,28.587807 C 20.143277,29.431584 19.799528,30.572207 19.690155,32.009682 L 18.79953,32.009682 L 19.17453,24.556557 L 45.119843,24.556557 M 51.963593,23.009682 C 52.619835,23.009715 53.174522,23.24409 53.627655,23.712807 C 54.096396,24.165964 54.330771,24.720651 54.33078,25.376869 C 54.330771,26.03315 54.096396,26.595649 53.627655,27.064369 C 53.174522,27.533148 52.619835,27.767523 51.963593,27.767494 C 51.307336,27.767523 50.744837,27.533148 50.276093,27.064369 C 49.807338,26.595649 49.572963,26.03315 49.572968,25.376869 C 49.572963,24.720651 49.799525,24.165964 50.252655,23.712807 C 50.721399,23.24409 51.291711,23.009715 51.963593,23.009682 M 53.908905,34.236244 L 53.908905,51.486244 C 53.908896,52.829998 54.002646,53.728434 54.190155,54.181557 C 54.393271,54.619058 54.682333,54.947183 55.057343,55.165932 C 55.447957,55.384683 56.151081,55.494058 57.166718,55.494057 L 57.166718,56.337807 L 46.73703,56.337807 L 46.73703,55.494057 C 47.783902,55.494058 48.487027,55.392495 48.846405,55.189369 C 49.205776,54.986246 49.487026,54.650308 49.690155,54.181557 C 49.9089,53.712809 50.018275,52.814373 50.01828,51.486244 L 50.01828,43.212807 C 50.018275,40.884697 49.947963,39.376886 49.807343,38.689369 C 49.697963,38.189387 49.526088,37.845638 49.291718,37.658119 C 49.057338,37.455013 48.737026,37.353451 48.33078,37.353432 C 47.893277,37.353451 47.362028,37.470638 46.73703,37.704994 L 46.408905,36.861244 L 52.877655,34.236244 L 53.908905,34.236244 M 66.190155,38.806557 C 67.752646,37.244076 68.67452,36.345639 68.95578,36.111244 C 69.658894,35.517515 70.416705,35.056578 71.229218,34.728432 C 72.041704,34.400329 72.84639,34.236266 73.64328,34.236244 C 74.987013,34.236266 76.143262,34.626891 77.11203,35.408119 C 78.08076,36.189389 78.729197,37.322201 79.057343,38.806557 C 80.666695,36.931576 82.026069,35.705015 83.135468,35.126869 C 84.244817,34.533141 85.38544,34.236266 86.557343,34.236244 C 87.697938,34.236266 88.70575,34.533141 89.58078,35.126869 C 90.471373,35.705015 91.174497,36.658139 91.690155,37.986244 C 92.033871,38.892512 92.205746,40.314385 92.20578,42.251869 L 92.20578,51.486244 C 92.205746,52.829998 92.307309,53.751872 92.510468,54.251869 C 92.666683,54.595621 92.955745,54.892496 93.377655,55.142494 C 93.799495,55.37687 94.486994,55.494058 95.440155,55.494057 L 95.440155,56.337807 L 84.846405,56.337807 L 84.846405,55.494057 L 85.291718,55.494057 C 86.213565,55.494058 86.932314,55.31437 87.447968,54.954994 C 87.807313,54.704996 88.065125,54.306559 88.221405,53.759682 C 88.283875,53.49406 88.315125,52.736248 88.315155,51.486244 L 88.315155,42.251869 C 88.315125,40.501885 88.104188,39.267511 87.682343,38.548744 C 87.072939,37.548763 86.096377,37.048763 84.752655,37.048744 C 83.924504,37.048763 83.088568,37.259701 82.244843,37.681557 C 81.416694,38.087825 80.408883,38.853449 79.221405,39.978432 L 79.17453,40.236244 L 79.221405,41.244057 L 79.221405,51.486244 C 79.221384,52.954998 79.299509,53.869059 79.45578,54.228432 C 79.627634,54.587808 79.940133,54.892496 80.39328,55.142494 C 80.846382,55.37687 81.619819,55.494058 82.713593,55.494057 L 82.713593,56.337807 L 71.86203,56.337807 L 71.86203,55.494057 C 73.049515,55.494058 73.862014,55.353433 74.29953,55.072182 C 74.752639,54.790933 75.065138,54.369059 75.23703,53.806557 C 75.315138,53.540934 75.3542,52.767498 75.354218,51.486244 L 75.354218,42.251869 C 75.3542,40.501885 75.096388,39.244074 74.58078,38.478432 C 73.893264,37.478451 72.932328,36.978451 71.697968,36.978432 C 70.854205,36.978451 70.018268,37.205013 69.190155,37.658119 C 67.89327,38.345637 66.893271,39.119074 66.190155,39.978432 L 66.190155,51.486244 C 66.190147,52.892498 66.283897,53.806559 66.471405,54.228432 C 66.674522,54.650308 66.963584,54.970621 67.338593,55.189369 C 67.729208,55.392495 68.510457,55.494058 69.682343,55.494057 L 69.682343,56.337807 L 59.065155,56.337807 L 59.065155,55.494057 C 60.049528,55.494058 60.737028,55.392495 61.127655,55.189369 C 61.518277,54.970621 61.815152,54.634683 62.01828,54.181557 C 62.221401,53.712809 62.322964,52.814373 62.322968,51.486244 L 62.322968,43.283119 C 62.322964,40.92376 62.252651,39.400324 62.11203,38.712807 C 62.002651,38.1972 61.830777,37.845638 61.596405,37.658119 C 61.362027,37.455013 61.041715,37.353451 60.635468,37.353432 C 60.197966,37.353451 59.674529,37.470638 59.065155,37.704994 L 58.713593,36.861244 L 65.182343,34.236244 L 66.190155,34.236244 L 66.190155,38.806557 M 100.73703,42.954994 C 100.7214,46.142504 101.49484,48.642502 103.05734,50.454994 C 104.61983,52.267498 106.45577,53.173747 108.56516,53.173744 C 109.97139,53.173747 111.19014,52.790935 112.22141,52.025307 C 113.26826,51.244062 114.14326,49.915938 114.84641,48.040932 L 115.57297,48.509682 C 115.24482,50.650312 114.2917,52.603435 112.71359,54.369057 C 111.13545,56.119057 109.15889,56.994056 106.78391,56.994057 C 104.20577,56.994056 101.99484,55.994057 100.15109,53.994057 C 98.322965,51.978436 97.408903,49.275314 97.408905,45.884682 C 97.408903,42.212821 98.346402,39.353449 100.22141,37.306557 C 102.11202,35.244078 104.47921,34.212829 107.32297,34.212807 C 109.7292,34.212829 111.70576,35.009703 113.25266,36.603432 C 114.79951,38.181575 115.57295,40.29876 115.57297,42.954994 L 100.73703,42.954994 M 100.73703,41.595619 L 110.67453,41.595619 C 110.59639,40.220635 110.43233,39.251886 110.18234,38.689369 C 109.7917,37.814388 109.20577,37.126888 108.42453,36.626869 C 107.65889,36.126889 106.85421,35.87689 106.01047,35.876869 C 104.71358,35.87689 103.54952,36.384702 102.51828,37.400307 C 101.50265,38.400325 100.9089,39.798761 100.73703,41.595619 M 132.28391,34.236244 L 132.28391,41.548744 L 131.51047,41.548744 C 130.9167,39.251886 130.15108,37.689388 129.21359,36.861244 C 128.29171,36.03314 127.11202,35.619077 125.67453,35.619057 C 124.58077,35.619077 123.69796,35.90814 123.02609,36.486244 C 122.35421,37.064388 122.01827,37.705013 122.01828,38.408119 C 122.01827,39.283136 122.26827,40.033136 122.76828,40.658119 C 123.25265,41.298759 124.23702,41.978446 125.72141,42.697182 L 129.14328,44.361244 C 132.31514,45.90813 133.90108,47.94719 133.90109,50.478432 C 133.90108,52.431561 133.15889,54.009684 131.67453,55.212807 C 130.20577,56.400307 128.55733,56.994056 126.72922,56.994057 C 125.41671,56.994056 123.91671,56.759681 122.22922,56.290932 C 121.71359,56.134682 121.29171,56.056557 120.96359,56.056557 C 120.60421,56.056557 120.32296,56.259682 120.11984,56.665932 L 119.34641,56.665932 L 119.34641,49.001869 L 120.11984,49.001869 C 120.55734,51.189374 121.39328,52.83781 122.62766,53.947182 C 123.86202,55.056558 125.24483,55.611245 126.77609,55.611244 C 127.85421,55.611245 128.72921,55.298745 129.40109,54.673744 C 130.08858,54.033122 130.43233,53.267497 130.43234,52.376869 C 130.43233,51.298749 130.04952,50.3925 129.28391,49.658119 C 128.53389,48.923752 127.02608,47.994065 124.76047,46.869057 C 122.49484,45.744067 121.01046,44.728443 120.30734,43.822182 C 119.60421,42.93157 119.25265,41.806571 119.25266,40.447182 C 119.25265,38.681574 119.85421,37.205013 121.05734,36.017494 C 122.27609,34.830016 123.8464,34.236266 125.76828,34.236244 C 126.61202,34.236266 127.63546,34.415954 128.83859,34.775307 C 129.63545,35.009703 130.1667,35.12689 130.43234,35.126869 C 130.68233,35.12689 130.87764,35.072203 131.01828,34.962807 C 131.15889,34.853453 131.32295,34.611266 131.51047,34.236244 L 132.28391,34.236244 M 146.93234,24.556557 L 155.55734,24.556557 L 174.98703,48.392494 L 174.98703,30.064369 C 174.987,28.111272 174.76825,26.892524 174.33078,26.408119 C 173.75263,25.7519 172.83857,25.423775 171.58859,25.423744 L 170.48703,25.423744 L 170.48703,24.556557 L 181.54953,24.556557 L 181.54953,25.423744 L 180.42453,25.423744 C 179.08075,25.423775 178.12762,25.830025 177.56516,26.642494 C 177.22138,27.142523 177.0495,28.283147 177.04953,30.064369 L 177.04953,56.853432 L 176.20578,56.853432 L 155.25266,31.259682 L 155.25266,50.829994 C 155.25265,52.783123 155.46358,54.001872 155.88547,54.486244 C 156.47921,55.142495 157.39327,55.47062 158.62766,55.470619 L 159.75266,55.470619 L 159.75266,56.337807 L 148.69016,56.337807 L 148.69016,55.470619 L 149.79172,55.470619 C 151.15109,55.47062 152.11203,55.06437 152.67453,54.251869 C 153.01827,53.751872 153.19015,52.611248 153.19016,50.829994 L 153.19016,28.728432 C 152.26828,27.650335 151.56515,26.939399 151.08078,26.595619 C 150.61203,26.251899 149.91672,25.931587 148.99484,25.634682 C 148.54172,25.494088 147.85422,25.423775 146.93234,25.423744 L 146.93234,24.556557 M 187.36203,42.954994 C 187.3464,46.142504 188.11984,48.642502 189.68234,50.454994 C 191.24483,52.267498 193.08077,53.173747 195.19016,53.173744 C 196.59639,53.173747 197.81514,52.790935 198.84641,52.025307 C 199.89326,51.244062 200.76826,49.915938 201.47141,48.040932 L 202.19797,48.509682 C 201.86982,50.650312 200.9167,52.603435 199.33859,54.369057 C 197.76045,56.119057 195.78389,56.994056 193.40891,56.994057 C 190.83077,56.994056 188.61984,55.994057 186.77609,53.994057 C 184.94796,51.978436 184.0339,49.275314 184.03391,45.884682 C 184.0339,42.212821 184.9714,39.353449 186.84641,37.306557 C 188.73702,35.244078 191.10421,34.212829 193.94797,34.212807 C 196.3542,34.212829 198.33076,35.009703 199.87766,36.603432 C 201.42451,38.181575 202.19795,40.29876 202.19797,42.954994 L 187.36203,42.954994 M 187.36203,41.595619 L 197.29953,41.595619 C 197.22139,40.220635 197.05733,39.251886 196.80734,38.689369 C 196.4167,37.814388 195.83077,37.126888 195.04953,36.626869 C 194.28389,36.126889 193.47921,35.87689 192.63547,35.876869 C 191.33858,35.87689 190.17452,36.384702 189.14328,37.400307 C 188.12765,38.400325 187.5339,39.798761 187.36203,41.595619 M 203.83859,34.869057 L 212.83859,34.869057 L 212.83859,35.736244 C 212.01046,35.798765 211.46358,35.947202 211.19797,36.181557 C 210.94796,36.415952 210.82296,36.751889 210.82297,37.189369 C 210.82296,37.673763 210.95577,38.2597 211.22141,38.947182 L 215.81516,51.298744 L 220.43234,41.244057 L 219.21359,38.079994 C 218.83858,37.142513 218.34639,36.494077 217.73703,36.134682 C 217.39327,35.915952 216.75264,35.78314 215.81516,35.736244 L 215.81516,34.869057 L 226.03391,34.869057 L 226.03391,35.736244 C 224.90888,35.78314 224.11201,35.986265 223.64328,36.345619 C 223.33076,36.595639 223.17451,36.994076 223.17453,37.540932 C 223.17451,37.85345 223.23701,38.173762 223.36203,38.501869 L 228.23703,50.829994 L 232.76047,38.947182 C 233.07294,38.10345 233.22919,37.431576 233.22922,36.931557 C 233.22919,36.634701 233.07294,36.369077 232.76047,36.134682 C 232.46356,35.900327 231.86981,35.767515 230.97922,35.736244 L 230.97922,34.869057 L 237.75266,34.869057 L 237.75266,35.736244 C 236.39325,35.93939 235.39325,36.861264 234.75266,38.501869 L 227.58078,56.994057 L 226.61984,56.994057 L 221.25266,43.283119 L 214.99484,56.994057 L 214.12766,56.994057 L 207.23703,38.947182 C 206.7839,37.806575 206.33859,37.040951 205.90109,36.650307 C 205.46359,36.244077 204.77609,35.93939 203.83859,35.736244 L 203.83859,34.869057 M 282.65891,56.337807 L 274.17453,56.337807 L 263.41672,41.478432 C 262.61983,41.509697 261.97139,41.525322 261.47141,41.525307 C 261.26827,41.525322 261.04952,41.525322 260.81516,41.525307 C 260.58077,41.509697 260.33858,41.494072 260.08859,41.478432 L 260.08859,50.712807 C 260.08858,52.71281 260.30733,53.954997 260.74484,54.439369 C 261.33858,55.12687 262.22921,55.47062 263.41672,55.470619 L 264.65891,55.470619 L 264.65891,56.337807 L 251.04172,56.337807 L 251.04172,55.470619 L 252.23703,55.470619 C 253.58078,55.47062 254.54171,55.033121 255.11984,54.158119 C 255.44796,53.673747 255.61202,52.525311 255.61203,50.712807 L 255.61203,30.181557 C 255.61202,28.181585 255.39327,26.939399 254.95578,26.454994 C 254.3464,25.767525 253.44015,25.423775 252.23703,25.423744 L 251.04172,25.423744 L 251.04172,24.556557 L 262.61984,24.556557 C 265.99483,24.556588 268.4792,24.806588 270.07297,25.306557 C 271.68232,25.790962 273.04169,26.697211 274.15109,28.025307 C 275.27607,29.337834 275.83857,30.908145 275.83859,32.736244 C 275.83857,34.689391 275.19794,36.384702 273.91672,37.822182 C 272.65107,39.259699 270.68232,40.275323 268.01047,40.869057 L 274.57297,49.986244 C 276.07294,52.079998 277.362,53.470622 278.44016,54.158119 C 279.51825,54.845621 280.9245,55.28312 282.65891,55.470619 L 282.65891,56.337807 M 260.08859,40.001869 C 260.38546,40.001886 260.64327,40.009698 260.86203,40.025307 C 261.08077,40.025323 261.26046,40.025323 261.40109,40.025307 C 264.43233,40.025323 266.71358,39.369074 268.24484,38.056557 C 269.7917,36.744076 270.56513,35.072203 270.56516,33.040932 C 270.56513,31.056582 269.94014,29.447209 268.69016,28.212807 C 267.45576,26.962836 265.81514,26.337837 263.76828,26.337807 C 262.86202,26.337837 261.63546,26.486274 260.08859,26.783119 L 260.08859,40.001869 M 294.28391,34.236244 C 297.53389,34.236266 300.14326,35.47064 302.11203,37.939369 C 303.78388,40.04876 304.61982,42.470633 304.61984,45.204994 C 304.61982,47.126878 304.15888,49.072189 303.23703,51.040932 C 302.31513,53.009685 301.0417,54.494059 299.41672,55.494057 C 297.80733,56.494057 296.01045,56.994056 294.02609,56.994057 C 290.79171,56.994056 288.2214,55.704995 286.31516,53.126869 C 284.70578,50.955 283.90109,48.517502 283.90109,45.814369 C 283.90109,43.845632 284.38547,41.892509 285.35422,39.954994 C 286.33859,38.001888 287.62765,36.564389 289.22141,35.642494 C 290.81515,34.705016 292.50264,34.236266 294.28391,34.236244 M 293.55734,35.759682 C 292.72921,35.759702 291.89327,36.009702 291.04953,36.509682 C 290.2214,36.994076 289.54952,37.85345 289.03391,39.087807 C 288.51827,40.322198 288.26046,41.908134 288.26047,43.845619 C 288.26046,46.970629 288.87765,49.665938 290.11203,51.931557 C 291.36202,54.197184 293.00264,55.329995 295.03391,55.329994 C 296.54952,55.329995 297.79951,54.704996 298.78391,53.454994 C 299.76826,52.204998 300.26045,50.056563 300.26047,47.009682 C 300.26045,43.197195 299.44014,40.197198 297.79953,38.009682 C 296.69014,36.509702 295.27608,35.759702 293.55734,35.759682 M 314.15891,38.806557 C 315.7214,37.244076 316.64327,36.345639 316.92453,36.111244 C 317.62764,35.517515 318.38546,35.056578 319.19797,34.728432 C 320.01045,34.400329 320.81514,34.236266 321.61203,34.236244 C 322.95576,34.236266 324.11201,34.626891 325.08078,35.408119 C 326.04951,36.189389 326.69795,37.322201 327.02609,38.806557 C 328.63545,36.931576 329.99482,35.705015 331.10422,35.126869 C 332.21357,34.533141 333.35419,34.236266 334.52609,34.236244 C 335.66669,34.236266 336.6745,34.533141 337.54953,35.126869 C 338.44012,35.705015 339.14325,36.658139 339.65891,37.986244 C 340.00262,38.892512 340.1745,40.314385 340.17453,42.251869 L 340.17453,51.486244 C 340.1745,52.829998 340.27606,53.751872 340.47922,54.251869 C 340.63543,54.595621 340.9245,54.892496 341.34641,55.142494 C 341.76824,55.37687 342.45574,55.494058 343.40891,55.494057 L 343.40891,56.337807 L 332.81516,56.337807 L 332.81516,55.494057 L 333.26047,55.494057 C 334.18231,55.494058 334.90106,55.31437 335.41672,54.954994 C 335.77606,54.704996 336.03388,54.306559 336.19016,53.759682 C 336.25263,53.49406 336.28388,52.736248 336.28391,51.486244 L 336.28391,42.251869 C 336.28388,40.501885 336.07294,39.267511 335.65109,38.548744 C 335.04169,37.548763 334.06513,37.048763 332.72141,37.048744 C 331.89325,37.048763 331.05732,37.259701 330.21359,37.681557 C 329.38544,38.087825 328.37763,38.853449 327.19016,39.978432 L 327.14328,40.236244 L 327.19016,41.244057 L 327.19016,51.486244 C 327.19013,52.954998 327.26826,53.869059 327.42453,54.228432 C 327.59638,54.587808 327.90888,54.892496 328.36203,55.142494 C 328.81513,55.37687 329.58857,55.494058 330.68234,55.494057 L 330.68234,56.337807 L 319.83078,56.337807 L 319.83078,55.494057 C 321.01827,55.494058 321.83076,55.353433 322.26828,55.072182 C 322.72139,54.790933 323.03389,54.369059 323.20578,53.806557 C 323.28389,53.540934 323.32295,52.767498 323.32297,51.486244 L 323.32297,42.251869 C 323.32295,40.501885 323.06514,39.244074 322.54953,38.478432 C 321.86201,37.478451 320.90108,36.978451 319.66672,36.978432 C 318.82295,36.978451 317.98702,37.205013 317.15891,37.658119 C 315.86202,38.345637 314.86202,39.119074 314.15891,39.978432 L 314.15891,51.486244 C 314.1589,52.892498 314.25265,53.806559 314.44016,54.228432 C 314.64327,54.650308 314.93233,54.970621 315.30734,55.189369 C 315.69796,55.392495 316.47921,55.494058 317.65109,55.494057 L 317.65109,56.337807 L 307.03391,56.337807 L 307.03391,55.494057 C 308.01828,55.494058 308.70578,55.392495 309.09641,55.189369 C 309.48703,54.970621 309.7839,54.634683 309.98703,54.181557 C 310.19015,53.712809 310.29171,52.814373 310.29172,51.486244 L 310.29172,43.283119 C 310.29171,40.92376 310.2214,39.400324 310.08078,38.712807 C 309.9714,38.1972 309.79953,37.845638 309.56516,37.658119 C 309.33078,37.455013 309.01046,37.353451 308.60422,37.353432 C 308.16672,37.353451 307.64328,37.470638 307.03391,37.704994 L 306.68234,36.861244 L 313.15109,34.236244 L 314.15891,34.236244 L 314.15891,38.806557 M 357.26047,53.244057 C 355.05733,54.947183 353.67452,55.931557 353.11203,56.197182 C 352.26827,56.587806 351.36983,56.783119 350.41672,56.783119 C 348.93234,56.783119 347.70578,56.275307 346.73703,55.259682 C 345.7839,54.244059 345.30734,52.908123 345.30734,51.251869 C 345.30734,50.205 345.54172,49.298751 346.01047,48.533119 C 346.65109,47.470628 347.76046,46.470629 349.33859,45.533119 C 350.93234,44.595631 353.57296,43.455007 357.26047,42.111244 L 357.26047,41.267494 C 357.26045,39.126886 356.9167,37.658138 356.22922,36.861244 C 355.55733,36.064389 354.57296,35.665952 353.27609,35.665932 C 352.29171,35.665952 351.51046,35.931577 350.93234,36.462807 C 350.33859,36.994076 350.04171,37.60345 350.04172,38.290932 L 350.08859,39.650307 C 350.08859,40.369073 349.90109,40.92376 349.52609,41.314369 C 349.16671,41.705009 348.69015,41.900321 348.09641,41.900307 C 347.51828,41.900321 347.04171,41.697196 346.66672,41.290932 C 346.30734,40.884697 346.12765,40.33001 346.12766,39.626869 C 346.12765,38.283137 346.81515,37.048763 348.19016,35.923744 C 349.56515,34.798766 351.49483,34.236266 353.97922,34.236244 C 355.88546,34.236266 357.44795,34.556578 358.66672,35.197182 C 359.58858,35.681577 360.26826,36.439389 360.70578,37.470619 C 360.98701,38.142512 361.12764,39.517511 361.12766,41.595619 L 361.12766,48.884682 C 361.12764,50.931562 361.1667,52.189373 361.24484,52.658119 C 361.32295,53.111247 361.44795,53.415935 361.61984,53.572182 C 361.80732,53.728434 362.01826,53.806559 362.25266,53.806557 C 362.50264,53.806559 362.72139,53.751872 362.90891,53.642494 C 363.23701,53.439372 363.86982,52.86906 364.80734,51.931557 L 364.80734,53.244057 C 363.05732,55.587807 361.38545,56.759681 359.79172,56.759682 C 359.02608,56.759681 358.4167,56.494057 357.96359,55.962807 C 357.51045,55.431558 357.27608,54.525309 357.26047,53.244057 M 357.26047,51.720619 L 357.26047,43.540932 C 354.90108,44.478444 353.37765,45.142505 352.69016,45.533119 C 351.45577,46.220629 350.57296,46.939379 350.04172,47.689369 C 349.51046,48.439377 349.24484,49.259689 349.24484,50.150307 C 349.24484,51.275312 349.58077,52.212811 350.25266,52.962807 C 350.92452,53.697184 351.69796,54.064371 352.57297,54.064369 C 353.76046,54.064371 355.32296,53.283122 357.26047,51.720619 M 372.63547,38.783119 C 375.15108,35.75189 377.54952,34.236266 379.83078,34.236244 C 381.00264,34.236266 382.01045,34.533141 382.85422,35.126869 C 383.69795,35.705015 384.36982,36.665951 384.86984,38.009682 C 385.21357,38.947199 385.38545,40.384698 385.38547,42.322182 L 385.38547,51.486244 C 385.38545,52.845623 385.49482,53.767497 385.71359,54.251869 C 385.88545,54.642496 386.15888,54.947183 386.53391,55.165932 C 386.92451,55.384683 387.63544,55.494058 388.66672,55.494057 L 388.66672,56.337807 L 378.04953,56.337807 L 378.04953,55.494057 L 378.49484,55.494057 C 379.49483,55.494058 380.19014,55.34562 380.58078,55.048744 C 380.98701,54.736246 381.26826,54.283121 381.42453,53.689369 C 381.48701,53.454997 381.51826,52.720623 381.51828,51.486244 L 381.51828,42.697182 C 381.51826,40.744072 381.26045,39.330011 380.74484,38.454994 C 380.24483,37.564388 379.39327,37.119076 378.19016,37.119057 C 376.33077,37.119076 374.47921,38.1347 372.63547,40.165932 L 372.63547,51.486244 C 372.63546,52.939373 372.7214,53.837809 372.89328,54.181557 C 373.11202,54.634683 373.4089,54.970621 373.78391,55.189369 C 374.17452,55.392495 374.95577,55.494058 376.12766,55.494057 L 376.12766,56.337807 L 365.51047,56.337807 L 365.51047,55.494057 L 365.97922,55.494057 C 367.07297,55.494058 367.80734,55.22062 368.18234,54.673744 C 368.57296,54.111246 368.76828,53.048747 368.76828,51.486244 L 368.76828,43.517494 C 368.76828,40.939385 368.70578,39.369074 368.58078,38.806557 C 368.4714,38.244075 368.29171,37.861263 368.04172,37.658119 C 367.80734,37.455013 367.48703,37.353451 367.08078,37.353432 C 366.64328,37.353451 366.11984,37.470638 365.51047,37.704994 L 365.15891,36.861244 L 371.62766,34.236244 L 372.63547,34.236244 L 372.63547,38.783119"
   id="text3596"
   style="font-size:48px;font-style:normal;font-variant:normal;font-weight:normal;font-stretch:normal;fill:#474747;fill-opacity:1;stroke:none;stroke-width:1px;stroke-linecap:butt;stroke-linejoin:miter;stroke-opacity:1;font-family:Times New Roman;-inkscape-font-specification:'Times New Roman,'" /></svg>