<svg xmlns="http://www.w3.org/2000/svg" width="187.349" height="41.972" viewBox="0 -31.479 140.512 31.479"><path d="M13.825-19.319c.02.021.039.13.039.31-.007.18-.013.29-.04.33-.019.008-.038.035-.077.067l-.106.087c-.038.023-.071.071-.117.136a.431.431 0 00-.087.213c-.017.007-.038.177-.077.494-.044.312-.107.62-.203.91-.101.29-.217.5-.359.63-.275.19-.697.29-1.278.29-.586 0-1.014-.07-1.298-.213a1.15 1.15 0 01-.339-.31 1.676 1.676 0 01-.242-.464 4.107 4.107 0 01-.145-.465 7.195 7.195 0 01-.107-.504 3.084 3.084 0 01-.058-.368c-.04-.2-.168-.29-.388-.29-.225-.003-.348.096-.387.29-.004.033-.02.162-.058.368-.043.205-.074.375-.106.504a6.463 6.463 0 01-.146.465 1.838 1.838 0 01-.242.464 1.264 1.264 0 01-.358.31c-.272.14-.697.213-1.279.213-.581 0-1.007-.097-1.278-.29a1.237 1.237 0 01-.3-.475 3.028 3.028 0 01-.174-.62c-.036-.206-.065-.4-.098-.6-.036-.206-.054-.313-.067-.34a.506.506 0 00-.087-.212c-.051-.066-.084-.11-.116-.136-.033-.029-.068-.054-.107-.087-.044-.033-.065-.055-.078-.068-.031-.043-.038-.148-.038-.329-.007-.182.013-.284.038-.31.046-.057.252-.097.6-.135.344-.046.811-.058 1.386-.058.574 0 1.133.025 1.675.077.02.007.152.042.378.087.22.043.507.074.843.087a4.12 4.12 0 00.59-.039c.146-.03.271-.051.368-.077.091-.031.184-.045.262-.058.536-.058 1.1-.077 1.675-.077.57 0 1.037.019 1.385.058.342.032.549.083.6.135z" fill="#31373d"/><path d="M8.014-18.292c-.068.89-.226 1.453-.484 1.685-.196.178-.543.278-1.046.29-.51.008-.872-.083-1.104-.29-.07-.067-.13-.197-.194-.397a5.177 5.177 0 01-.213-1.482c-.003-.21.129-.349.387-.426.253-.078.633-.116 1.124-.116.316-.002.59.016.803.048.213.028.391.107.533.223.137.11.207.271.194.465zm1.86 0c-.03-.285.1-.478.377-.581.276-.104.662-.155 1.153-.155.484-.002.861.038 1.113.116.248.077.384.22.397.426a5.563 5.563 0 01-.126 1.153c-.085.38-.184.623-.3.726-.22.204-.58.303-1.085.29-.51-.018-.852-.11-1.046-.29-.262-.235-.419-.794-.484-1.685z" fill="#55acee"/><path d="M25.363-14.147c-.973-.97-1.453-2.137-1.453-3.506 0-1.37.484-2.537 1.453-3.506.964-.973 2.137-1.452 3.506-1.452 1.362-.001 2.537.484 3.505 1.452.967.964 1.453 2.137 1.453 3.506-.006 1.368-.484 2.537-1.453 3.506-.97.966-2.137 1.453-3.505 1.453-1.375-.007-2.538-.485-3.506-1.453z" fill="#ffcc4d"/><path d="M31.27-16.103c.052-.056.107-.052.165 0 .056.048.068.11.03.174-.031.05-.066.113-.117.184a5.188 5.188 0 01-.32.349 4.405 4.405 0 01-.513.426 3.19 3.19 0 01-.717.339 2.853 2.853 0 01-1.86 0 3.081 3.081 0 01-.716-.34 3.387 3.387 0 01-.513-.425 3.439 3.439 0 01-.32-.35 1.007 1.007 0 01-.116-.183c-.04-.066-.029-.123.03-.174.053-.056.112-.052.164 0 .02.009.07.038.136.077.06.036.177.103.338.194a4.035 4.035 0 001.172.436c.257.052.51.087.756.087.239-.002.497-.03.755-.087.254-.064.475-.123.65-.194a7.57 7.57 0 00.522-.242c.172-.091.287-.155.339-.194a.423.423 0 01.136-.077z" fill="#664500"/><path d="M28.791-15.29h.194v1.24h-.232v-1.24h.038z" fill="#65471b"/><path d="M29.973-15.445v.852a.524.524 0 01-.165.378.577.577 0 01-.397.165h-.426v-1.24c.085-.001.194-.006.31-.02.166-.027.394-.07.677-.135zm-2.208 0c.279.062.51.11.678.136.112.011.219.02.31.02v1.239h-.427a.537.537 0 01-.397-.165.506.506 0 01-.164-.378v-.852z" fill="#fff"/><path d="M31.27-16.103c.052-.056.107-.052.165 0 .056.048.068.11.03.174-.044.063-.098.152-.175.262-.078.107-.245.27-.504.484a3.35 3.35 0 01-.814.493v-.503c-.284.064-.51.11-.677.135-.118.008-.22.02-.31.02-.005-.005-.016 0-.049 0-.034-.005-.055 0-.068 0-.018-.005-.038 0-.077 0-.013-.005-.026 0-.038 0-.092-.005-.194-.007-.31-.02-.173-.03-.394-.07-.678-.135v.503a3.11 3.11 0 01-.814-.493c-.259-.217-.426-.375-.504-.484a3.053 3.053 0 01-.174-.262c-.04-.066-.029-.123.03-.174.053-.056.112-.052.164 0 .42.293.923.523 1.491.678.307.074.614.116.91.116a3.91 3.91 0 00.911-.116 4.888 4.888 0 001.492-.678zm-.019-2.654c0 .15-.026.3-.077.436a.816.816 0 01-.213.32.47.47 0 01-.291.115c-.155-.002-.29-.083-.407-.251a1.044 1.044 0 01-.174-.62.907.907 0 01.049-.33.947.947 0 01.125-.27.524.524 0 01.184-.184.365.365 0 01.223-.068c.155-.002.29.084.407.252.114.162.174.367.174.6zm-4.745 0a.933.933 0 01.048-.33.973.973 0 01.126-.27.533.533 0 01.184-.184.367.367 0 01.223-.068c.162-.002.306.084.416.252.106.162.165.367.165.6-.006.15-.026.3-.078.436a.804.804 0 01-.213.32.467.467 0 01-.29.115c-.161-.002-.291-.083-.407-.251a1.052 1.052 0 01-.174-.62z" fill="#65471b"/><path d="M33.498-19.958c.036.02.058.09.058.194-.002.1-.02.168-.058.193a.791.791 0 01-.126.068 1.318 1.318 0 00-.213.117.241.241 0 00-.126.164c-.014.01-.035.155-.068.426a3.976 3.976 0 01-.184.785c-.094.25-.213.435-.368.552-.272.201-.649.32-1.133.339-.488.015-.92-.068-1.308-.262a1.115 1.115 0 01-.377-.368 1.594 1.594 0 01-.194-.406 4.047 4.047 0 01-.097-.465c-.037-.198-.054-.323-.067-.388-.054-.17-.171-.252-.359-.252-.19-.004-.3.084-.339.252a1.953 1.953 0 00-.087.388c-.033.19-.064.348-.097.465a1.82 1.82 0 01-.193.406 1.126 1.126 0 01-.378.368c-.392.19-.823.281-1.307.262-.487-.024-.862-.133-1.134-.34a.873.873 0 01-.232-.251 1.54 1.54 0 01-.155-.33 4.459 4.459 0 01-.155-.736c-.017-.109-.026-.196-.039-.28a.894.894 0 01-.019-.165.375.375 0 00-.136-.164 1.159 1.159 0 00-.213-.117c-.079-.036-.122-.055-.135-.068-.042-.027-.058-.09-.058-.193-.004-.107.019-.168.058-.194-.003-.018.026-.02.077-.02.05-.005.104.004.155.01.052.005.12.007.203 0a.536.536 0 00.223-.068c.23-.135.526-.225.881-.29a4.055 4.055 0 011.211-.02c.446.05.84.188 1.162.407.103.073.342.11.717.097.356.01.594-.02.697-.097.318-.224.71-.355 1.162-.407a4.06 4.06 0 011.211.02c.353.062.649.162.881.29.088.033.19.065.3.078a.914.914 0 00.243 0 .149.149 0 01.116 0zm-5.56 1.007c.024-.35-.05-.575-.231-.678-.226-.144-.601-.213-1.144-.213a3.4 3.4 0 00-1.123.175c-.12.05-.148.264-.097.639.073.644.194 1.026.349 1.142.206.153.536.233.988.233.306 0 .58-.071.813-.213.257-.145.407-.504.446-1.085zm4.475-.077c.05-.377.02-.588-.096-.64a3.48 3.48 0 00-1.124-.174c-.543-.004-.923.071-1.143.213-.18.102-.258.33-.232.678.036.58.187.943.445 1.085.241.14.517.213.814.213.45 0 .781-.078.988-.233.15-.118.27-.497.348-1.142z" fill="#292f33"/><path d="M53.463-17.672a.906.906 0 01-.349.716.846.846 0 01.271.64c-.003.342-.161.613-.484.794a.901.901 0 01.194.561.884.884 0 01-.465.795.923.923 0 01.194.561.89.89 0 01-.272.64.916.916 0 01-.658.27h-4.959c-.368-.006-.658-.09-.89-.27-.236-.184-.447-.278-.64-.29-.326-.046-.53-.15-.62-.33-.093-.184-.135-.433-.135-.756v-2.944c-.005-.3.07-.517.213-.659a.934.934 0 01.503-.27c.19-.046.407-.133.64-.282a1.52 1.52 0 00.542-.648 6.11 6.11 0 00.455-1.54c.069-.5.09-.862.058-1.095-.034-.237-.01-.42.068-.561.073-.147.265-.213.562-.213.344 0 .633.2.852.6.217.4.303.787.252 1.162-.032.128-.052.268-.078.417a8.825 8.825 0 00-.058.358c-.014.084-.029.184-.048.28a.904.904 0 00-.03.233.515.515 0 00.02.155.148.148 0 00.077.097.31.31 0 00.136.03c.149-.005.374 0 .659 0 .446.008.787.022 1.007.028.218.006.503.023.852.048.343.023.607.065.775.117.164.05.355.116.562.193.202.071.361.181.465.31.097.126.187.285.251.465.049.125.078.259.078.388z" fill="#ffdb5e"/><path d="M50.17-16.762a.389.389 0 00-.3.126.396.396 0 00-.126.31.416.416 0 00.126.31c.08.078.184.126.3.126h2.305a.426.426 0 00.368-.213c.075-.133.187-.155.329-.078.137.073.168.187.078.33a.837.837 0 01-.775.445h-2.227a.418.418 0 00-.32.126.412.412 0 00-.126.32.399.399 0 00.058.213.434.434 0 00.388.213h1.936c.165-.007.29-.072.369-.214.084-.144.203-.17.338-.087.13.078.165.197.087.34a.887.887 0 01-.794.445h-1.8a.402.402 0 00-.301.126.42.42 0 00-.126.32c0 .074.02.148.058.212.032.064.09.116.155.155.06.033.135.059.213.059h1.51a.452.452 0 00.388-.213c.076-.144.188-.172.33-.088.137.08.167.197.077.34-.185.291-.445.445-.794.445h-1.51a.897.897 0 01-.64-.272.87.87 0 01-.271-.639.894.894 0 01.232-.62.85.85 0 01-.387-.736.888.888 0 01.27-.658.856.856 0 01-.329-.697.882.882 0 01.272-.659.856.856 0 01-.33-.697.889.889 0 01.272-.659.862.862 0 01.639-.271h1.627c.063-.004.122.026.174.077a.26.26 0 01.078.175.23.23 0 01-.078.164.285.285 0 01-.174.068h-1.627a.383.383 0 00-.3.126.4.4 0 00-.126.31.415.415 0 00.126.31.404.404 0 00.3.126h2.44a.4.4 0 00.368-.213c.076-.134.188-.155.33-.078.137.072.174.188.097.33a.882.882 0 01-.794.445H50.17z" fill="#ee9547"/><path d="M64.797-5.808c.319-.02.488-.24.488-.489a.467.467 0 00-.478-.488c-.24 0-.488.15-.488.498 0 .508.498.927 1.105.927 1.515 0 2.082-2.331 2.79-5.22a134.436 134.436 0 001.952-9.523c.369-2.122.737-4.114 1.076-5.399.12-.488.458-1.773.847-1.773.308 0 .557.19.597.23-.328.02-.498.238-.498.487 0 .329.25.488.478.488.24 0 .488-.149.488-.498 0-.538-.537-.926-1.085-.926-.757 0-1.315 1.086-1.863 3.118-.03.11-1.385 5.11-2.48 11.625-.26 1.524-.548 3.187-.877 4.572-.18.727-.638 2.6-1.444 2.6-.359 0-.598-.23-.608-.23zm8.161-1.406c-.098-.405-.412-.824-1.067-.824-.977 0-1.786.733-2.037 1.36-.042.12-.14.405-.14.684 0 .481.377 1.276 1.465 1.276 1.807 0 2.54-2.252 2.54-3.243 0-1.193-.782-1.876-1.717-1.876-1.137 0-1.45.907-1.45 1.123 0 .056.034.251.278.251a.397.397 0 00.391-.384c0-.188-.14-.25-.272-.265.349-.523.92-.523 1.04-.523.523 0 1.143.328 1.143 1.318 0 .3-.035.544-.167 1.103h-.007zm-1.765 2.273c-.788 0-.879-.593-.879-.809 0-.272.189-.955.259-1.13.125-.32.557-.962 1.346-.962.676 0 .9.53.9.948 0 .468-.454 1.953-1.626 1.953z"/><path d="M78.19-7.8a.495.495 0 00-.155.339c-.006.103.052.221.156.339.1.113.241.25.413.4.17.144.303.287.393.414.103.169.197.418.265.739.067.318.102.6.102.834l.013.366h-3.852c-.002-.11.003-.242.007-.4 0-.16.04-.411.109-.76.067-.35.156-.607.264-.78.07-.11.17-.22.292-.338.116-.121.23-.213.325-.285.094-.074.176-.156.244-.251a.51.51 0 00.102-.278c-.003-.114-.052-.222-.156-.34a4.342 4.342 0 00-.414-.4 2.43 2.43 0 01-.393-.413c-.11-.173-.197-.418-.264-.74a4.094 4.094 0 01-.102-.834l-.014-.366h3.852c-.006.108-.002.242-.006.4-.009.158-.04.412-.109.76-.069.347-.156.608-.265.78a2.796 2.796 0 01-.393.414c-.173.143-.31.282-.413.4z" fill="#ffe8b6"/><path d="M78.035-6.308a.726.726 0 01.481.19.91.91 0 01.292.393c.051.168.097.37.129.597.026.223.047.407.047.543l.013.216h-3.092a4.31 4.31 0 01.19-1.356c.04-.14.143-.267.292-.393a.696.696 0 01.481-.19.417.417 0 00.278-.122c.084-.084.129-.167.129-.258-.014-.22-.013-.475-.013-.773a.837.837 0 00-.15-.488 2.991 2.991 0 00-.42-.469 3.187 3.187 0 01-.38-.4h2.279a3.124 3.124 0 01-.299.326c-.13.116-.233.217-.319.298a1.08 1.08 0 00-.23.32.87.87 0 00-.101.413 21.14 21.14 0 01-.014.773c-.003.088.043.176.129.258.08.079.178.122.278.122z" fill="#ffac33"/><path d="M79.656-4.647a.389.389 0 01.115.272.388.388 0 01-.115.27.407.407 0 01-.279.116h-3.852a.387.387 0 01-.278-.115.368.368 0 01-.115-.271.355.355 0 01.115-.272.363.363 0 01.278-.115h3.852a.37.37 0 01.279.115zm0-6.171c.07.07.115.167.115.271a.393.393 0 01-.394.387h-3.852a.398.398 0 01-.278-.116.362.362 0 01-.115-.271.35.35 0 01.115-.271.353.353 0 01.278-.116h3.852a.385.385 0 01.279.116z" fill="#3b88c3"/><path d="M93.03-16.549c-.007.993-.475 1.795-1.425 2.402-.953.604-2.127.91-3.534.91-1.414-.006-2.586-.303-3.535-.91-.95-.61-1.424-1.408-1.424-2.402 0-1.06.49-2.011 1.472-2.857.977-.848 2.143-1.269 3.486-1.269 1.337-.006 2.506.423 3.487 1.27.98.842 1.472 1.797 1.472 2.856z" fill="#c6e5b3"/><path d="M91.867-19.125c.77.785 1.162 1.646 1.162 2.576-.006.386-.08.659-.242.814-.166.149-.407.213-.736.174a7.26 7.26 0 01-1.046-.213c-.372-.11-.83-.213-1.385-.33a7.37 7.37 0 00-1.55-.174 7.19 7.19 0 00-1.549.175 19.12 19.12 0 00-1.385.329c-.37.096-.716.174-1.046.213-.335.035-.575-.02-.736-.174-.162-.161-.242-.426-.242-.814 0-.931.387-1.788 1.162-2.576a1.546 1.546 0 01-.62-1.279c0-.468.162-.858.485-1.18.32-.327.716-.485 1.181-.485.256-.002.5.058.726.174.222.11.417.271.572.465.153.192.258.413.31.659a3.163 3.163 0 012.286 0c.076-.376.267-.685.57-.93.3-.25.65-.368 1.037-.368.462-.002.859.161 1.182.484.319.32.484.717.484 1.181-.005.526-.207.956-.62 1.28z" fill="#77b255"/><path d="M84.497-19.87a.92.92 0 01-.28-.679.916.916 0 01.28-.678.912.912 0 01.678-.28.917.917 0 01.678.28c.187.185.28.414.28.678a.926.926 0 01-.28.678.928.928 0 01-.678.281.928.928 0 01-.678-.28zm5.791 0a.906.906 0 01-.28-.679.902.902 0 01.28-.678.906.906 0 01.678-.28.923.923 0 01.679.28c.183.185.28.414.28.678a.945.945 0 01-.28.678.936.936 0 01-.679.281.922.922 0 01-.678-.28z" fill="#fff"/><path d="M84.758-20.539a.394.394 0 01.126-.3.387.387 0 01.3-.126.376.376 0 01.291.126.43.43 0 010 .59.404.404 0 01-.29.117.4.4 0 01-.214-.059.408.408 0 01-.155-.154.368.368 0 01-.058-.194zm5.908.29a.38.38 0 01-.116-.29.395.395 0 01.116-.3.357.357 0 01.29-.126.402.402 0 01.301.126.408.408 0 010 .59.44.44 0 01-.3.117.394.394 0 01-.29-.116z" fill="#292f33"/><path d="M86.773-16.907a.29.29 0 01-.078-.194.273.273 0 01.078-.194.23.23 0 01.193-.087.243.243 0 01.194.087.286.286 0 01.078.194.303.303 0 01-.078.194.26.26 0 01-.387 0zm2.208 0a.276.276 0 01-.077-.194.26.26 0 01.077-.194c.049-.064.116-.087.194-.087a.237.237 0 01.194.087.3.3 0 01.077.194.32.32 0 01-.077.194.265.265 0 01-.194.087.263.263 0 01-.194-.087z" fill="#5c913b"/><path d="M102.685-17.191c.15 0 .34 0 .34-.2 0-.199-.19-.199-.33-.199H96.73c-.14 0-.33 0-.33.2 0 .199.19.199.34.199h5.946zm.01 1.932c.14 0 .33 0 .33-.199 0-.2-.19-.2-.34-.2H96.74c-.15 0-.34 0-.34.2s.19.2.33.2h5.966zm4.699 9.451c.319-.02.488-.24.488-.489a.467.467 0 00-.478-.488c-.24 0-.488.15-.488.498 0 .508.498.927 1.105.927 1.515 0 2.082-2.331 2.79-5.22a134.43 134.43 0 001.952-9.523c.369-2.122.737-4.114 1.076-5.399.12-.488.458-1.773.847-1.773.308 0 .557.19.597.23-.328.02-.498.238-.498.487 0 .329.25.488.478.488.24 0 .488-.149.488-.498 0-.538-.537-.926-1.085-.926-.757 0-1.315 1.086-1.863 3.118-.03.11-1.385 5.11-2.48 11.625-.26 1.524-.548 3.187-.877 4.572-.18.727-.638 2.6-1.444 2.6-.359 0-.598-.23-.608-.23z"/><path d="M116.104-7.8a.495.495 0 00-.156.339c-.006.103.052.221.156.339.1.113.241.25.413.4.17.144.303.287.393.414.103.169.197.418.265.739.067.318.102.6.102.834l.013.366h-3.852c-.002-.11.002-.242.007-.4 0-.16.04-.411.109-.76.067-.35.155-.607.264-.78.07-.11.17-.22.292-.338.116-.121.23-.213.325-.285.094-.074.176-.156.244-.251a.51.51 0 00.102-.278c-.003-.114-.052-.222-.156-.34a4.343 4.343 0 00-.414-.4 2.43 2.43 0 01-.393-.413c-.11-.173-.197-.418-.264-.74a4.093 4.093 0 01-.102-.834l-.014-.366h3.852c-.006.108-.002.242-.006.4a6.028 6.028 0 01-.109.76c-.069.347-.156.608-.265.78a2.796 2.796 0 01-.393.414c-.173.143-.31.282-.413.4z" fill="#ffe8b6"/><path d="M115.948-6.308a.726.726 0 01.481.19.91.91 0 01.292.393c.051.168.097.37.128.597.026.223.048.407.048.543l.013.216h-3.092a4.31 4.31 0 01.19-1.356c.04-.14.142-.267.291-.393a.696.696 0 01.482-.19.417.417 0 00.278-.122c.084-.084.129-.167.129-.258-.014-.22-.014-.475-.014-.773a.837.837 0 00-.149-.488 3.043 3.043 0 00-.42-.469 3.186 3.186 0 01-.38-.4h2.279a3.124 3.124 0 01-.299.326c-.13.116-.233.217-.319.298a1.08 1.08 0 00-.23.32.87.87 0 00-.102.413c0 .293-.004.556-.013.773-.003.088.043.176.128.258a.4.4 0 00.279.122z" fill="#ffac33"/><path d="M117.569-4.647a.39.39 0 01.115.272.388.388 0 01-.115.27.407.407 0 01-.279.116h-3.852a.387.387 0 01-.278-.115.368.368 0 01-.115-.271.355.355 0 01.115-.272.363.363 0 01.278-.115h3.852a.37.37 0 01.279.115zm0-6.171c.07.07.115.167.115.271a.393.393 0 01-.394.387h-3.852a.398.398 0 01-.278-.116.362.362 0 01-.115-.271.35.35 0 01.115-.271.353.353 0 01.278-.116h3.852a.385.385 0 01.279.116z" fill="#3b88c3"/><path d="M126.275-13.934v-.309c-.698 0-.778-.07-.778-.558v-6.046l-1.434.11v.308c.697 0 .777.07.777.558v2.152a1.59 1.59 0 00-1.255-.618c-1.175 0-2.221.976-2.221 2.261 0 1.265.976 2.252 2.111 2.252.638 0 1.086-.34 1.335-.658v.658l1.465-.11zm-1.465-1.175c0 .179 0 .199-.11.368-.298.478-.746.697-1.175.697-.448 0-.807-.258-1.046-.637-.259-.409-.289-.976-.289-1.385 0-.368.02-.966.31-1.414.208-.309.587-.638 1.125-.638.348 0 .767.15 1.076.598.11.17.11.19.11.369v2.042z"/><path d="M136.481-16.549c-.006.993-.474 1.795-1.424 2.402-.953.604-2.127.91-3.534.91-1.414-.006-2.586-.303-3.535-.91-.95-.61-1.424-1.408-1.424-2.402 0-1.06.49-2.011 1.472-2.857.977-.848 2.143-1.269 3.486-1.269 1.337-.006 2.506.423 3.487 1.27.98.842 1.472 1.797 1.472 2.856z" fill="#c6e5b3"/><path d="M135.319-19.125c.77.785 1.162 1.646 1.162 2.576-.006.386-.08.659-.242.814-.166.149-.407.213-.736.174a7.26 7.26 0 01-1.046-.213c-.372-.11-.83-.213-1.385-.33a7.37 7.37 0 00-1.55-.174 7.19 7.19 0 00-1.549.175c-.558.112-1.017.225-1.385.329-.37.096-.717.174-1.046.213-.335.035-.575-.02-.736-.174-.162-.161-.242-.426-.242-.814 0-.931.387-1.788 1.162-2.576a1.546 1.546 0 01-.62-1.279c0-.468.162-.858.485-1.18.32-.327.716-.485 1.181-.485.256-.002.5.058.726.174.222.11.417.271.572.465.153.192.258.413.31.659a3.163 3.163 0 012.286 0c.076-.376.267-.685.57-.93.3-.25.65-.368 1.037-.368.462-.002.859.161 1.182.484.319.32.484.717.484 1.181-.005.526-.207.956-.62 1.28z" fill="#77b255"/><path d="M127.949-19.87a.92.92 0 01-.281-.679.916.916 0 01.281-.678.912.912 0 01.678-.28.917.917 0 01.678.28c.187.185.28.414.28.678a.926.926 0 01-.28.678.928.928 0 01-.678.281.928.928 0 01-.678-.28zm5.791 0a.906.906 0 01-.28-.679.902.902 0 01.28-.678.906.906 0 01.678-.28.92.92 0 01.678.28.934.934 0 01.281.678.945.945 0 01-.28.678.936.936 0 01-.679.281.922.922 0 01-.678-.28z" fill="#fff"/><path d="M128.21-20.539a.394.394 0 01.126-.3.387.387 0 01.3-.126.376.376 0 01.291.126.43.43 0 010 .59.404.404 0 01-.29.117.4.4 0 01-.214-.059.408.408 0 01-.155-.154.368.368 0 01-.058-.194zm5.908.29a.38.38 0 01-.116-.29.395.395 0 01.116-.3.357.357 0 01.29-.126.402.402 0 01.301.126.408.408 0 010 .59.44.44 0 01-.3.117.394.394 0 01-.291-.116z" fill="#292f33"/><path d="M130.225-16.907a.29.29 0 01-.078-.194.273.273 0 01.078-.194.23.23 0 01.193-.087.243.243 0 01.194.087.286.286 0 01.078.194.303.303 0 01-.078.194.26.26 0 01-.387 0zm2.208 0a.276.276 0 01-.077-.194.26.26 0 01.077-.194c.049-.064.116-.087.194-.087a.237.237 0 01.194.087.3.3 0 01.077.194.32.32 0 01-.077.194.265.265 0 01-.194.087.263.263 0 01-.194-.087z" fill="#5c913b"/></svg>