<svg xmlns="http://www.w3.org/2000/svg" xmlns:xlink="http://www.w3.org/1999/xlink" width="172.85pt" height="41.92pt" viewBox="0 0 172.85 41.92"><path d="M34.9311 20.302c0-3.1128-2.5233-5.6361-5.6361-5.6361s-5.6362 2.5233-5.6362 5.6361 2.5234 5.6362 5.6362 5.6362c3.1128 0 5.6361-2.5234 5.6361-5.6362zm-5.6361 0" fill="#f44336"/><path stroke-width=".797" stroke-miterlimit="10" fill="none" stroke="#000" d="M34.9311 20.302c0-3.1128-2.5233-5.6361-5.6361-5.6361s-5.6362 2.5233-5.6362 5.6361 2.5234 5.6362 5.6362 5.6362c3.1128 0 5.6361-2.5234 5.6361-5.6362zm-5.6361 0"/><symbol id="a"><path d="M.333.389C.315.426.286.453.241.453.124.453 0 .306 0 .16 0 .066.055 0 .133 0c.02 0 .07.004.13.075A.091.091 0 0 1 .354 0c.035 0 .058.023.074.055.017.036.03.097.03.099 0 .01-.009.01-.012.01C.436.164.435.16.432.146.415.081.397.022.356.022c-.027 0-.03.026-.03.046 0 .022.002.03.013.074.011.042.013.052.022.09l.036.14C.404.4.404.402.404.406c0 .017-.012.027-.029.027C.351.433.336.411.333.389M.268.13C.263.112.263.11.248.093.204.038.163.022.135.022c-.05 0-.064.055-.064.094 0 .05.032.173.055.219.031.059.076.096.116.096.065 0 .079-.082.079-.088C.321.337.319.331.318.326L.268.13z"/></symbol><use xlink:href="#a" transform="matrix(9.9626 0 0 -9.9626 4.3825 8.3826)"/><symbol id="b"><path d="M.192.694c0 .001 0 .011-.013.011C.156.705.083.697.057.695.049.694.038.693.038.675c0-.012.009-.012.024-.012.048 0 .05-.007.05-.017C.112.639.103.605.098.584L.016.258C.004.208 0 .192 0 .157 0 .062.053 0 .127 0c.118 0 .241.149.241.293 0 .091-.053.16-.133.16C.189.453.148.424.118.393l.074.301M.098.316C.104.338.104.34.113.351c.049.065.094.08.12.08.036 0 .063-.03.063-.094C.296.278.263.163.245.125.212.058.166.022.127.022.093.022.06.049.06.123c0 .019 0 .038.016.101l.022.092z"/></symbol><use xlink:href="#b" transform="matrix(9.9626 0 0 -9.9626 4.9482 38.0446)"/><symbol id="c"><path d="M.355.391c-.016 0-.03 0-.044-.014A.0541.0541 0 0 1 .293.338C.293.314.311.303.33.303c.029 0 .056.024.056.064 0 .049-.047.086-.118.086C.133.453 0 .31 0 .169 0 .079.058 0 .162 0c.143 0 .227.106.227.118 0 .006-.006.013-.012.013C.372.131.37.129.364.121.285.022.176.022.164.022c-.063 0-.09.049-.09.109 0 .041.02.138.054.2.031.057.086.1.141.1.034 0 .072-.013.086-.04z"/></symbol><use xlink:href="#c" transform="matrix(9.9626 0 0 -9.9626 50.2255 8.3826)"/><symbol id="d"><path d="M.476.694c0 .001 0 .011-.013.011C.448.705.353.696.336.694.328.693.322.688.322.675c0-.012.009-.012.024-.012.048 0 .05-.007.05-.017L.393.626.333.389C.315.426.286.453.241.453.124.453 0 .306 0 .16 0 .066.055 0 .133 0c.02 0 .07.004.13.075A.091.091 0 0 1 .354 0c.035 0 .058.023.074.055.017.036.03.097.03.099 0 .01-.009.01-.012.01C.436.164.435.16.432.146.415.081.397.022.356.022c-.027 0-.03.026-.03.046 0 .024.002.031.006.048l.144.578M.268.13C.263.112.263.11.248.093.204.038.163.022.135.022c-.05 0-.064.055-.064.094 0 .05.032.173.055.219.031.059.076.096.116.096.065 0 .079-.082.079-.088C.321.337.319.331.318.326L.268.13z"/></symbol><use xlink:href="#d" transform="matrix(9.9626 0 0 -9.9626 49.7785 38.0446)"/><path stroke-width=".797" stroke-miterlimit="10" fill="none" stroke="#000" d="m24.1778 17.1037-10.5436-6.59m10.5436 12.9867-11.0389 6.8994m21.2733-13.2961 11.021-6.8883m-11.021 13.285 10.584 6.615"/><symbol id="e"><path d="M.779.241C.724.199.697.158.689.145.644.076.636.013.636.012.636 0 .648 0 .656 0c.017 0 .018.002.022.02.023.098.082.182.195.228.012.004.015.006.015.013 0 .007-.006.01-.008.011C.836.289.715.339.677.507.674.519.673.522.656.522c-.008 0-.02 0-.02-.012 0-.002.009-.065.051-.132.02-.03.049-.065.092-.097H.036C.018.281 0 .281 0 .261s.018-.02.036-.02h.743z"/></symbol><use xlink:href="#e" transform="matrix(9.9626 0 0 -9.9626 62.416 23.2466)"/><path d="M129.6441 20.302c0-3.1128-2.5233-5.6361-5.6361-5.6361s-5.6362 2.5233-5.6362 5.6361 2.5234 5.6362 5.6362 5.6362c3.1128 0 5.6361-2.5234 5.6361-5.6362zm-5.6361 0" fill="#f44336"/><path stroke-width=".797" stroke-miterlimit="10" fill="none" stroke="#000" d="M129.6441 20.302c0-3.1128-2.5233-5.6361-5.6361-5.6361s-5.6362 2.5233-5.6362 5.6361 2.5234 5.6362 5.6362 5.6362c3.1128 0 5.6361-2.5234 5.6361-5.6362zm-5.6361 0"/><symbol id="f"><path d="M.232.01c0 .003 0 .005-.017.022C.09.158.058.347.058.5c0 .174.038.348.161.473.013.012.013.014.013.017 0 .007-.004.01-.01.01-.01 0-.1-.068-.159-.195C.012.695 0 .584 0 .5 0 .422.011.301.066.188.126.065.212 0 .222 0c.006 0 .01.003.01.01z"/></symbol><use xlink:href="#f" transform="matrix(9.9626 0 0 -9.9626 80.1193 25.2837)"/><symbol id="g"><path d="M.117.194C.117.26.092.299.053.299A.0515.0515 0 0 1 0 .246C0 .219.02.193.053.193c.012 0 .025.004.035.013.003.002.004.003.005.003S.095.208.095.194C.095.12.06.06.027.027.016.016.016.014.016.011.016.004.021 0 .026 0c.011 0 .091.077.091.194z"/></symbol><use xlink:href="#a" transform="matrix(9.9626 0 0 -9.9626 83.4055 22.9026)"/><use xlink:href="#g" transform="matrix(9.9626 0 0 -9.9626 89.124 24.7158)"/><use xlink:href="#b" transform="matrix(9.9626 0 0 -9.9626 93.149 22.9026)"/><symbol id="h"><path d="M.232.5c0 .078-.011.199-.066.312C.106.935.02 1 .01 1 .004 1 0 .996 0 .99 0 .987 0 .985.019.967.117.868.174.709.174.5.174.329.137.153.013.027 0 .015 0 .013 0 .01 0 .004.004 0 .01 0c.01 0 .1.068.159.195C.22.305.232.416.232.5z"/></symbol><use xlink:href="#h" transform="matrix(9.9626 0 0 -9.9626 97.5449 25.2837)"/><use xlink:href="#f" transform="matrix(9.9626 0 0 -9.9626 148.1733 25.2837)"/><use xlink:href="#c" transform="matrix(9.9626 0 0 -9.9626 151.4695 22.9026)"/><use xlink:href="#g" transform="matrix(9.9626 0 0 -9.9626 156.2216 24.7158)"/><use xlink:href="#d" transform="matrix(9.9626 0 0 -9.9626 160.1768 22.9026)"/><use xlink:href="#h" transform="matrix(9.9626 0 0 -9.9626 165.5539 25.2837)"/><path stroke-width="2.1918" stroke-miterlimit="10" fill="none" stroke="#000" d="M117.9733 20.302h-12.7385m24.8079 0h12.761"/><path stroke-width=".5978" stroke-miterlimit="10" fill="none" stroke="#fff" d="M117.9733 20.302h-12.7385m24.8079 0h12.761"/></svg>